<svg xmlns="http://www.w3.org/2000/svg" viewBox="0 0 1320 961.64"><defs><style>.cls-1{fill:#fff;}.cls-2,.cls-4{fill:#ffa300;}.cls-2,.cls-5{opacity:0.2;}.cls-3{fill:#1d1d1b;}.cls-6{fill:none;stroke:#ffa300;stroke-miterlimit:10;stroke-width:2px;}</style></defs><g id="Layer_2" data-name="Layer 2"><g id="Isolation_Mode" data-name="Isolation Mode"><rect class="cls-1" x="0.53" width="1319.47" height="961.04"/><rect class="cls-2" width="660" height="480.82"/><path class="cls-3" d="M168,276.69h2.07v18.67h-6.61V276.69h2.16v7.17H168Zm0,16.58v-7.34h-2.38v7.34Zm7.7-16.58h2.14v18.67h-6.57V276.69h2.06v7.17h2.37Zm0,16.58v-7.34h-2.37v7.34Zm8.67-6.6H182v9.91h-2.23V276.09H182v8.3h2.38Z"/><path class="cls-3" d="M186,293.41h20.47v2.19H186Zm1.36-11.11h15.41V279H187.38v-2.14h17.76v7.56h-15.4v3.41h15.71v2.13H187.38Z"/><path class="cls-3" d="M221.41,276.21h2.26v20h-2.26V286.6h-3.67a13.84,13.84,0,0,1-1.67,4.64,8.45,8.45,0,0,1-2.83,3,7,7,0,0,1-3.68,1.07v-2.23a4.85,4.85,0,0,0,3.31-1.38,8.68,8.68,0,0,0,2.19-3.71,18,18,0,0,0,.76-5.52V279h-6.26v-2.16h8.57v5.52c0,.67,0,1.34-.07,2h3.35Zm7.4-.12v20.49h-2.28V276.09Z"/><path class="cls-3" d="M251.44,288H239.75V276.45h2.33V280h7v-3.52h2.33Zm7.2,6.17v2.16H240.76v-6.55h2.42v4.39ZM249.11,286v-4h-7v4Zm6.74-.46h-3.36v-2.11h3.36v-2.85h-3.36v-2.12h3.36v-2.32h2.36V291.3h-2.36Z"/><path class="cls-3" d="M275.8,280.55H261.9v-2.09h5.74v-2.59h2.42v2.59h5.74ZM270,293.25a17.67,17.67,0,0,0,6.48-.92v2.16a9.57,9.57,0,0,1-2.73.65,31.61,31.61,0,0,1-4,.22H262v-2.11h5.66V290.2a6.21,6.21,0,0,1-3.44-1.33,3.8,3.8,0,0,1,.35-5.93,8.76,8.76,0,0,1,8.64,0,3.81,3.81,0,0,1,.33,5.94,6.26,6.26,0,0,1-3.5,1.34Zm-3.87-5.56a6.08,6.08,0,0,0,5.43,0,1.9,1.9,0,0,0,1-1.64,1.93,1.93,0,0,0-1-1.66,6,6,0,0,0-5.43,0,1.93,1.93,0,0,0-1,1.66A1.9,1.9,0,0,0,266.17,287.69Zm17.26-1.21H280.6v10.1h-2.38V276.09h2.38v8.11h2.83Z"/><path class="cls-3" d="M293.39,279.33h5.45v2.11h-13.3v-2.11H291V276h2.42Zm1.75,4.52a5.28,5.28,0,0,1,2,2.21,7.81,7.81,0,0,1,0,6.55,5.28,5.28,0,0,1-2,2.21,6,6,0,0,1-5.9,0,5.37,5.37,0,0,1-2-2.21,7.71,7.71,0,0,1,0-6.55,5.37,5.37,0,0,1,2-2.21,6,6,0,0,1,5.9,0ZM293.92,293a3.46,3.46,0,0,0,1.21-1.46,5.9,5.9,0,0,0,0-4.47,3.4,3.4,0,0,0-1.21-1.46,3.19,3.19,0,0,0-4.18.64,4.55,4.55,0,0,0-1,3.05,4.6,4.6,0,0,0,1,3.06,3.22,3.22,0,0,0,4.18.64Zm12.6-6.36h-2.88v9.91h-2.38V276.09h2.38v8.3h2.88Z"/><path class="cls-3" d="M308.17,286.29h20.48v2.11H308.17Zm1.42,3.93H312v4h15.58v2.11h-18Zm.05-14.13H312v5.83h15.33V284H309.64Z"/><path class="cls-3" d="M345.54,276.85a10.05,10.05,0,0,1,4.24.83,6.17,6.17,0,0,1,2.73,2.34,6.94,6.94,0,0,1,0,7,6.17,6.17,0,0,1-2.73,2.34,10.05,10.05,0,0,1-4.24.83h-4.29v5.88h-2.52V276.85Zm3.93,9.93a4.33,4.33,0,0,0,0-6.5,6.62,6.62,0,0,0-4.12-1.15h-4.1v8.79h4.1A6.62,6.62,0,0,0,349.47,286.78Z"/><path class="cls-3" d="M360.32,295.21a9.39,9.39,0,0,1-3.61-3.6,10.82,10.82,0,0,1,0-10.32,9.53,9.53,0,0,1,3.61-3.6,11.13,11.13,0,0,1,9.54-.41,8.72,8.72,0,0,1,3.25,2.43,9,9,0,0,1,1.78,3.6h-2.57A6.07,6.07,0,0,0,369.9,280a7.5,7.5,0,0,0-4.37-1.24,7.73,7.73,0,0,0-3.91,1,7.23,7.23,0,0,0-2.71,2.75,8.57,8.57,0,0,0,0,8,7.21,7.21,0,0,0,2.72,2.76,7.75,7.75,0,0,0,3.9,1,8.08,8.08,0,0,0,3.22-.63,7,7,0,0,0,2.44-1.74,6.11,6.11,0,0,0,1.33-2.48h2.57a8.64,8.64,0,0,1-1.74,3.65,9.19,9.19,0,0,1-3.35,2.58,10.62,10.62,0,0,1-4.51.95A10.31,10.31,0,0,1,360.32,295.21Z"/><path class="cls-3" d="M390.25,286.57h-12V276.45h2.33v2.95h7.32v-2.95h2.32Zm3.76,2.85c1.61.66,2.41,1.69,2.41,3.08s-.8,2.42-2.41,3.09a21,21,0,0,1-12.74,0c-1.61-.67-2.42-1.7-2.42-3.09s.81-2.42,2.42-3.08a20.79,20.79,0,0,1,12.74,0Zm-6.08-4.81v-3.27h-7.32v3.27Zm4.23,9.49c1.16-.36,1.74-.89,1.74-1.6s-.58-1.23-1.74-1.59a19.19,19.19,0,0,0-9,0c-1.16.36-1.75.89-1.75,1.59s.58,1.24,1.74,1.6a19.23,19.23,0,0,0,9.05,0ZM399,280.41v2.28h-2.88v5.09h-2.38V276.09h2.38v4.32Z"/><path class="cls-3" d="M427.84,293.41v2.19H407.36v-2.19Zm-1-3.48H408.73v-13.1h17.76V279H411.11v3.36h15.12v2.08H411.11v3.39H426.8Z"/><path class="cls-3" d="M435.25,288.9h-4.17v-7.17h6.16v-3.12h-6.16v-2h8.37v7.08h-6.17v3.22h2.16a15.53,15.53,0,0,0,5.6-.75v2A16.44,16.44,0,0,1,435.25,288.9Zm15.41,5.31v2.11H432.37v-5.86h2.43v3.75ZM443,283.12h-2.31v-2.19H443v-4.72h2.23v15.36H443Zm7.2,8.78H447.9V276.09h2.26Z"/><path class="cls-3" d="M453.54,293.37H474v2.23H453.54Zm1.34-16.54h17.79V279H457.31v7.68h15.6v2.21h-18Z"/><path class="cls-3" d="M484.52,293.13a18,18,0,0,0,6.63-.87v2.23a18.89,18.89,0,0,1-6.7.87h-7.82v-2.23h5.54v-4a5.86,5.86,0,0,1-3.65-2.08,6.37,6.37,0,0,1-1.39-4.16,6.88,6.88,0,0,1,.79-3.3,5.72,5.72,0,0,1,2.21-2.26,6.84,6.84,0,0,1,6.42,0,5.89,5.89,0,0,1,2.25,2.26,6.67,6.67,0,0,1,.81,3.3,6.56,6.56,0,0,1-.65,3,5.84,5.84,0,0,1-1.8,2.19,6,6,0,0,1-2.64,1.09Zm-4-7.24a3.59,3.59,0,0,0,2.83,1.19,3.73,3.73,0,0,0,3.44-2.07,4.58,4.58,0,0,0,.49-2.13,4.64,4.64,0,0,0-.49-2.16,3.73,3.73,0,0,0-1.38-1.51,3.81,3.81,0,0,0-2.06-.56,3.59,3.59,0,0,0-2.83,1.19,4.85,4.85,0,0,0,0,6.05Zm17.54.59h-2.83v10.1h-2.38V276.09h2.38v8.11h2.83Z"/><path class="cls-3" d="M167.38,308.09v12.24H165v-5.45h-4.24v4.32H149V308.59h11.81v4.06H165v-4.56Zm-17.62,13.36h17.62v7.13H165v-5.06h-15.2Zm8.64-10.84h-7.1v6.55h7.1Z"/><path class="cls-3" d="M190.47,308.09v20.49h-2.38v-9.93h-5.47a11.83,11.83,0,0,1-3.79,6.36,10.29,10.29,0,0,1-6.8,2.3v-2.26a8,8,0,0,0,4.72-1.38,8.63,8.63,0,0,0,3-3.89,15.69,15.69,0,0,0,1-6V311H172v-2.18h11.16v4.95a19,19,0,0,1-.16,2.63h5.06v-8.32Z"/><path class="cls-3" d="M195.44,316.85h9.16V311h-9.21v-2.18H207V319h-9.17v6.14h6a15.93,15.93,0,0,0,2.92-.26,9.63,9.63,0,0,0,2.38-.72v2.18a8.44,8.44,0,0,1-2.37.72,16.57,16.57,0,0,1-3,.27h-8.3ZM211,308.09h2.38v20.49H211Z"/><path class="cls-3" d="M224.07,317.47h20.47v1.92H224.07Zm3.69-2.59c-1.68-.66-2.52-1.65-2.52-3s.84-2.31,2.52-3a22.46,22.46,0,0,1,13.06,0c1.68.65,2.52,1.63,2.52,3s-.84,2.32-2.52,3a22.25,22.25,0,0,1-13.06,0Zm-2.28,6.5H243.1v7H225.48ZM239,313.45c1.22-.34,1.83-.86,1.83-1.55s-.61-1.18-1.84-1.53a21,21,0,0,0-9.38,0c-1.23.35-1.84.86-1.84,1.53s.61,1.21,1.83,1.55a21.5,21.5,0,0,0,9.4,0Zm1.76,13v-3.17H227.86v3.17Z"/><path class="cls-3" d="M251.4,318.23a9.15,9.15,0,0,1-3.93,1.5v-2.21a6.58,6.58,0,0,0,3.33-1.66,8.74,8.74,0,0,0,2.22-3.3,12,12,0,0,0,.81-4.28l2.37.14a13,13,0,0,1-.88,4.78l6.5,4.51-1.35,1.73-6.12-4.32A10.2,10.2,0,0,1,251.4,318.23Zm-2.69,3.22h17.57v7.13h-2.4v-5.06H248.71Zm17.57-13.36v12.24h-2.37V308.09Z"/><path class="cls-3" d="M270.24,316.75h20.47v1.85H270.24Zm3.71-2.17c-1.66-.6-2.48-1.55-2.48-2.85s.82-2.22,2.48-2.82a24,24,0,0,1,13,0q2.49.9,2.49,2.82T287,314.58a24,24,0,0,1-13,0Zm-2.29,8.87H287V322H271.61v-1.78H289.3v4.9H274v1.44h15.67v1.77h-18Zm13.53-10.28c1.22-.31,1.83-.8,1.83-1.44s-.61-1.12-1.84-1.44a23.4,23.4,0,0,0-9.43,0c-1.22.32-1.84.8-1.84,1.44s.61,1.13,1.83,1.44a23.5,23.5,0,0,0,9.45,0Z"/><path class="cls-3" d="M309.15,325.2a15.92,15.92,0,0,0,2.91-.27,8.81,8.81,0,0,0,2.39-.72v2.16a8.54,8.54,0,0,1-2.41.72,17,17,0,0,1-3,.27h-8V308.83h11.83V311h-9.41V325.2Zm12.33-6.53H318.6v9.91h-2.37V308.09h2.37v8.3h2.88Z"/><path class="cls-3" d="M332.34,317.47q-3.13,2.14-8.67,2.14v-2.12A13.38,13.38,0,0,0,330.6,316a5,5,0,0,0,2.47-4.55v-.75h-9.4v-2.06h11.8V311A7.28,7.28,0,0,1,332.34,317.47Zm-8,4h17.33v7.13h-2.4v-5.06H324.36Zm20.21-6.55h-2.88v5.43h-2.38V308.09h2.38v4.53h2.88Z"/><path class="cls-3" d="M350.61,318.61a9.11,9.11,0,0,1-4,1.36v-2.16a6.16,6.16,0,0,0,4.07-2.3,8.44,8.44,0,0,0,1.72-4.86H346.9v-2H360v2h-5.16a12.58,12.58,0,0,1-.53,3.05l6.29,4.35-1.27,1.75-5.88-4.13A8.63,8.63,0,0,1,350.61,318.61Zm-2.73,3.08H365.5v6.89h-2.43v-4.82H347.88Zm17.62-13.6v12.48h-2.38v-5.69h-4v-2.07h4v-4.72Z"/><path class="cls-3" d="M369.31,325.37h20.48v2.23H369.31Zm5.38-4.65a7.17,7.17,0,0,1-3.23-2.28,5.7,5.7,0,0,1,0-6.84,7.33,7.33,0,0,1,3.23-2.28,15.1,15.1,0,0,1,9.7,0,7.29,7.29,0,0,1,3.22,2.28,5.7,5.7,0,0,1,0,6.84,7.14,7.14,0,0,1-3.22,2.28,14.93,14.93,0,0,1-9.7,0Zm8.36-1.89a5.38,5.38,0,0,0,2.37-1.54,3.49,3.49,0,0,0,0-4.54,5.36,5.36,0,0,0-2.37-1.53,11.71,11.71,0,0,0-7,0,5.39,5.39,0,0,0-2.36,1.53,3.49,3.49,0,0,0,0,4.54,5.4,5.4,0,0,0,2.36,1.54,11.71,11.71,0,0,0,7,0Z"/><path class="cls-3" d="M412.87,325.41v2.19H392.4v-2.19h9v-3.86h-7.61v-7.39h15.41v-3.22H393.77v-2.11h17.76v7.37H396.15v3.24h15.69v2.11h-8v3.86Z"/><path class="cls-3" d="M442.68,319v2h-9.05v3.2h-2.4V321h-9v-2Zm-16.63,7.37h15.58v2h-18v-5.52h2.42Zm15.14-9.39H423.67v-8.73H426v2.47h12.83v-2.47h2.33Zm-2.33-1.89V312.5H426v2.55Z"/><path class="cls-3" d="M449.19,318.45a8.58,8.58,0,0,1-3.87,1.52v-2.21a6.21,6.21,0,0,0,3.24-1.69,9,9,0,0,0,2.14-3.4,13.35,13.35,0,0,0,.77-4.39l2.37.14a13.9,13.9,0,0,1-.86,4.92l6.38,4.83-1.42,1.63-5.9-4.49A9.91,9.91,0,0,1,449.19,318.45ZM447,321.69h17.62v6.89h-2.42v-4.82H447Zm17.62-13.6v12.48h-2.38V314h-4.94v-2.16h4.94v-3.74Z"/><path class="cls-3" d="M476.69,311.33h5.45v2.11h-13.3v-2.11h5.43V308h2.42Zm1.75,4.52a5.28,5.28,0,0,1,2,2.21,7.81,7.81,0,0,1,0,6.55,5.28,5.28,0,0,1-2,2.21,6,6,0,0,1-5.9,0,5.37,5.37,0,0,1-2-2.21,7.71,7.71,0,0,1,0-6.55,5.37,5.37,0,0,1,2-2.21,6,6,0,0,1,5.9,0ZM477.22,325a3.46,3.46,0,0,0,1.21-1.46,5.9,5.9,0,0,0,0-4.47,3.4,3.4,0,0,0-1.21-1.46,3.19,3.19,0,0,0-4.18.64,4.55,4.55,0,0,0-1,3.05,4.6,4.6,0,0,0,1,3.06,3.22,3.22,0,0,0,4.18.64Zm12.6-6.36h-2.88v9.91h-2.38V308.09h2.38v8.3h2.88Z"/><path class="cls-3" d="M502.73,311q1.63,2.4,1.63,7.12c0,3.16-.54,5.53-1.63,7.13a5.29,5.29,0,0,1-8.86,0c-1.09-1.6-1.63-4-1.63-7.13s.54-5.52,1.63-7.12a5.29,5.29,0,0,1,8.86,0ZM501,323.64a15.85,15.85,0,0,0,0-11.08,2.91,2.91,0,0,0-5.39,0,15.7,15.7,0,0,0,0,11.08,2.92,2.92,0,0,0,5.39,0Zm9.78-15.55v20.49h-2.35v-5.71H505l.17-2.23h3.29v-5.19h-3.29l-.17-2.23h3.46v-5.13Z"/><path class="cls-3" d="M165.07,349.11l6.63,8.83-1.92,1.37-5.45-7.44a14.39,14.39,0,0,1-3,5.38,6.37,6.37,0,0,1-4.25,2.11V357a5.09,5.09,0,0,0,3.44-2.56,17.31,17.31,0,0,0,2.18-5.84,41.37,41.37,0,0,0,.77-8l2.42.1A42.28,42.28,0,0,1,165.07,349.11Zm10.78-9v20.49h-2.37V340.09Z"/><path class="cls-3" d="M184.14,349.67a9.57,9.57,0,0,1-4,1.34v-2.14a6.34,6.34,0,0,0,4-2,7.12,7.12,0,0,0,1.76-4.19h-5.52v-2h13.08v2h-5.18a10.5,10.5,0,0,1-.41,2.28l6.24,3.85-1.18,1.77L187,346.83A8.33,8.33,0,0,1,184.14,349.67Zm12.12,3.45a3.35,3.35,0,0,1,0,6.43,20.21,20.21,0,0,1-12.74,0,3.35,3.35,0,0,1,0-6.43,20.21,20.21,0,0,1,12.74,0ZM194.4,358c1.16-.39,1.73-1,1.73-1.71s-.57-1.32-1.73-1.7a17.79,17.79,0,0,0-9,0c-1.16.38-1.74.95-1.74,1.7s.58,1.32,1.73,1.71a18.13,18.13,0,0,0,9,0Zm6.84-14v2.25h-2.88v5.16H196V340.09h2.37V344Z"/><path class="cls-3" d="M202.9,348.75h20.47v1.85H202.9Zm3.71-2.17q-2.49-.9-2.49-2.85t2.49-2.82a24,24,0,0,1,13,0c1.65.6,2.48,1.54,2.48,2.82s-.83,2.25-2.48,2.85a24,24,0,0,1-13,0Zm-2.29,8.87h15.31V354H204.27v-1.78H222v4.9H206.64v1.44h15.68v1.77h-18Zm13.53-10.28c1.22-.31,1.82-.8,1.82-1.44s-.61-1.12-1.83-1.44a23.4,23.4,0,0,0-9.43,0c-1.23.32-1.84.8-1.84,1.44s.61,1.13,1.83,1.44a23.5,23.5,0,0,0,9.45,0Z"/><path class="cls-3" d="M236.62,350.89a8.44,8.44,0,0,1-3.87,1.56v-2.24a5.86,5.86,0,0,0,3.26-1.75,9.46,9.46,0,0,0,2.12-3.56,14.44,14.44,0,0,0,.77-4.62l2.37.14a14.71,14.71,0,0,1-.86,5.14l6.36,5.09-1.49,1.68-5.78-4.71A10.62,10.62,0,0,1,236.62,350.89Zm15.81,7.29v2.14H234.55v-6.53H237v4.39Zm-2.8-12h-4.95V344h4.95v-3.91H252v15.24h-2.37Z"/><path class="cls-3" d="M276.27,357.39v2.21H255.79v-2.21h9v-5h-7.65V340.83h17.78V343H259.56v7.17h15.6v2.21h-7.94v5Z"/><path class="cls-3" d="M287.19,343.33h5.44v2.11H279.34v-2.11h5.42V340h2.43Zm1.75,4.52a5.32,5.32,0,0,1,2,2.21,7.81,7.81,0,0,1,0,6.55,5.32,5.32,0,0,1-2,2.21,6,6,0,0,1-5.91,0,5.34,5.34,0,0,1-2-2.21,7.62,7.62,0,0,1,0-6.55,5.34,5.34,0,0,1,2-2.21,6,6,0,0,1,5.91,0ZM287.71,357a3.4,3.4,0,0,0,1.22-1.46,5.9,5.9,0,0,0,0-4.47,3.35,3.35,0,0,0-1.22-1.46,3,3,0,0,0-1.72-.51,3.06,3.06,0,0,0-2.45,1.15,4.55,4.55,0,0,0-1,3.05,4.6,4.6,0,0,0,1,3.06,3.05,3.05,0,0,0,2.45,1.14A3,3,0,0,0,287.71,357Zm12.6-6.36h-2.88v9.91h-2.37V340.09h2.37v8.3h2.88Z"/><path class="cls-3" d="M303.05,340.83h11.23v18.53H303.05Zm2.35,16.32h6.53V343H305.4Zm15.87-17.06v20.49h-2.38v-6.26h-3.48v-2.23h3.48v-4.73h-3.48v-2.23h3.48v-5Z"/><path class="cls-3" d="M327,362.5h-2l.77-5.42h2.4Z"/><path class="cls-3" d="M358.18,356.14v3.72H337.44v-3.72Zm-.89-1.89h-18.7V340.57h18.46v3.55H342.6v1.61h14.11v3.36H342.6v1.6h14.69Z"/><path class="cls-3" d="M368.88,353.07a19.49,19.49,0,0,1-2.81.19h-5.18v-8H366v-1.61h-5.11v-3.28h8.81v7.94h-5.09V350h1.68a19,19,0,0,0,2.68-.18,9.22,9.22,0,0,0,2-.49v3.24A8.63,8.63,0,0,1,368.88,353.07Zm12.29,3.86v3.65h-19.1v-6.31h4.12v2.66ZM372,347.74h-1.39V344H372v-3.84h3.74v15H372Zm8.95,7.8h-3.79V340.09h3.79Z"/><path class="cls-3" d="M396.7,344.26h-8.07v11.67H393a16.86,16.86,0,0,0,2.92-.26,9.41,9.41,0,0,0,2.39-.68v3.65a9.27,9.27,0,0,1-2.44.72,18.44,18.44,0,0,1-3,.26h-8.3V340.57H396.7Zm6.74,16.32h-4.05V340.09h4.05Z"/><path class="cls-3" d="M420.53,344.65h-14v-3.17h4.95v-1.75h4.12v1.75h4.95Zm-10.19,8.54a5.11,5.11,0,0,1-2.27-1.44,3.58,3.58,0,0,1,0-4.61,5.11,5.11,0,0,1,2.27-1.44,10.77,10.77,0,0,1,6.36,0,5.11,5.11,0,0,1,2.27,1.44,3.58,3.58,0,0,1,0,4.61,5.11,5.11,0,0,1-2.27,1.44,10.77,10.77,0,0,1-6.36,0Zm1.65,3.86h14.25v3.53H407.86v-6.31H412Zm-.22-8.53a1.08,1.08,0,0,0-.67.93,1.07,1.07,0,0,0,.67.92,4.32,4.32,0,0,0,3.5,0,1.07,1.07,0,0,0,.67-.92,1.08,1.08,0,0,0-.67-.93,4.32,4.32,0,0,0-3.5,0Zm16.58-3.68v3.94H426v6.59H421.9V340.09H426v4.75Z"/><path class="cls-3" d="M445.8,349.05q-3.29,1.9-8.93,1.91v-3.43a19.53,19.53,0,0,0,4.25-.46,7.39,7.39,0,0,0,2.83-1.22,2.33,2.33,0,0,0,1-1.85v-.31h-8.09v-3.36h12.22v2.78A6.39,6.39,0,0,1,445.8,349.05Zm-8.14,2.84h18.1v8.69h-18.1Zm4.06,5.36h10v-2h-10Zm16.44-9.82h-2.4v3.74H451.7V340.09h4.06v3.4h2.4Z"/><path class="cls-3" d="M468.85,349.77a16.2,16.2,0,0,1-8.89,2.15v-3.53a13.47,13.47,0,0,0,5.9-1.16,3.45,3.45,0,0,0,2.19-3.14v-.31H460v-3.45h12.22v3A7.18,7.18,0,0,1,468.85,349.77ZM460.66,353h18.19v7.82h-4.13v-4.34H460.66Zm20.59-5.23h-2.4v4.51h-4.06V340.09h4.06v3.74h2.4Z"/><path class="cls-3" d="M491.45,355.83a21.85,21.85,0,0,0,3-.2,8.75,8.75,0,0,0,2.34-.62v3.8a9.09,9.09,0,0,1-2.33.61,22.28,22.28,0,0,1-3,.2h-8.69v-3.79h2.61v-7.42h4.08v7.42Zm-.1-11.38h-8v-3.76h12.12V353.5h-4.08Zm13,6.87H502v9.26h-4.05V340.09H502v7.29h2.36Z"/><path class="cls-3" d="M180.17,381.4l6,7.73-3.21,2.4-4.13-5.62a10.82,10.82,0,0,1-3.16,4.21,6.79,6.79,0,0,1-4.23,1.5v-4.08A3.94,3.94,0,0,0,174,386a10.65,10.65,0,0,0,1.82-3.93,24.13,24.13,0,0,0,.75-5.73H172v-3.72h13.11v3.72h-4.39A33.1,33.1,0,0,1,180.17,381.4Zm10.68-9.31v20.49h-4V372.09Z"/><path class="cls-3" d="M214.85,381.64v3.24H194.11v-3.24h8.36v-2.4h4v2.4Zm-10.46-4.54a13.09,13.09,0,0,1-4.3,2.5,16.38,16.38,0,0,1-5.37,1v-3.39a11.64,11.64,0,0,0,3.82-.76,8.6,8.6,0,0,0,3.05-2,5.54,5.54,0,0,0,1.55-2.95l4.1.67a8.29,8.29,0,0,1-.76,2.23l8.18,3.15-1.47,3.09Zm-9.17,8.83h18.43v6.89h-4.1v-3.67H195.22Z"/><path class="cls-3" d="M221.45,383.23a8.42,8.42,0,0,1-3.89,1v-3.65a4.7,4.7,0,0,0,2.35-.78,5.21,5.21,0,0,0,1.67-1.76,6,6,0,0,0,.81-2.31h-4.54v-3.4h13.06v3.4h-4.42a8.47,8.47,0,0,1-.36,1.83l5.59,3.57-2.13,2.93-5.11-3.36A9.58,9.58,0,0,1,221.45,383.23Zm-2.78,2H237.1v7.58H233v-4.1h-14.3Zm18.43-13.15v12.43H233v-4.71h-2.71v-3.48H233v-4.24Z"/><path class="cls-3" d="M250.48,372.88a5.79,5.79,0,0,1,2.38,2.16,6.54,6.54,0,0,1,0,6.45,5.7,5.7,0,0,1-2.38,2.15,8.51,8.51,0,0,1-7,0,5.64,5.64,0,0,1-2.38-2.15,6.54,6.54,0,0,1,0-6.45,5.73,5.73,0,0,1,2.38-2.16,8.41,8.41,0,0,1,7,0Zm-4.33,16.05H260.4v3.65H242v-7.17h4.13ZM245,376.23a2.76,2.76,0,0,0,2,4.78,2.76,2.76,0,1,0,0-5.52A2.67,2.67,0,0,0,245,376.23Zm15.1,11h-4.05V372.09h4.05Z"/><path class="cls-3" d="M290.83,382.36v3.31h-8.32v2.45h-4.08v-2.45H270.1v-3.31Zm-15.4,6.89h14.44v3.33H271.3v-5.76h4.13Zm14.16-8.07H271.35v-9.09h4v1.53h10.32v-1.53h4Zm-4-3.05V376.6H275.31v1.53Z"/><path class="cls-3" d="M297.05,383a8.6,8.6,0,0,1-3.94,1.2v-3.72a4.92,4.92,0,0,0,2.79-1.33,7.88,7.88,0,0,0,1.92-3,11.74,11.74,0,0,0,.72-4l4.08.24a13.49,13.49,0,0,1-.77,4.54l5.71,4.32-2.4,2.71-5-3.84A10.48,10.48,0,0,1,297.05,383Zm-2.4,2.21h18.43v7.58H309v-4.1h-14.3Zm18.43-13.15v12.43H309v-6.24h-3.7v-3.67H309v-2.52Z"/><path class="cls-3" d="M316.42,380.75h20.47v1.85H316.42Zm3.71-2.17q-2.49-.9-2.49-2.85t2.49-2.82a24,24,0,0,1,13,0c1.65.6,2.48,1.54,2.48,2.82s-.83,2.25-2.48,2.85a24,24,0,0,1-13,0Zm-2.3,8.87h15.32V386H317.79v-1.78h17.68v4.9H320.16v1.44h15.67v1.77h-18Zm13.54-10.28c1.21-.31,1.82-.8,1.82-1.44s-.61-1.12-1.83-1.44a23.4,23.4,0,0,0-9.43,0c-1.23.32-1.84.8-1.84,1.44s.61,1.13,1.82,1.44a23.55,23.55,0,0,0,9.46,0Z"/><path class="cls-3" d="M366.7,382.62v1.85H346.23v-1.85h9V380.8h-7.56v-8.47h17.62v1.77H350.09v1.61H365v1.7h-14.9V379h15.43v1.78h-7.9v1.82ZM363,386.68c1.67.54,2.5,1.4,2.5,2.57s-.84,2-2.51,2.58a26.09,26.09,0,0,1-13,0c-1.68-.55-2.51-1.42-2.51-2.58s.83-2,2.49-2.57a26.21,26.21,0,0,1,13,0Zm-1.87,3.79c1.25-.27,1.87-.68,1.87-1.22s-.63-1-1.88-1.23a26.23,26.23,0,0,0-9.24,0q-1.89.41-1.89,1.23c0,.54.63.95,1.88,1.22a26.35,26.35,0,0,0,9.26,0Z"/><path class="cls-3" d="M375.5,375.28h4.3v2.13H368.86v-2.13h4.29V372h2.35Zm1.4,4.47a4.87,4.87,0,0,1,1.69,2.15,9.84,9.84,0,0,1,0,6.82,4.87,4.87,0,0,1-1.69,2.15,4.54,4.54,0,0,1-4.94,0,4.92,4.92,0,0,1-1.68-2.15,9.84,9.84,0,0,1,0-6.82,4.92,4.92,0,0,1,1.68-2.15,4.54,4.54,0,0,1,4.94,0Zm-.6,8.64a6.95,6.95,0,0,0,0-6.16,2.16,2.16,0,0,0-1.88-1.12,2.1,2.1,0,0,0-1.83,1.12,7,7,0,0,0,0,6.16,2.1,2.1,0,0,0,1.83,1.12A2.16,2.16,0,0,0,376.3,388.39ZM389,372.09v20.49h-2.21v-10h-3.29v9.65h-2.21v-20h2.21v8.13h3.29v-8.25Z"/><path class="cls-3" d="M419.59,389.37v2.23H399.12v-2.23h9v-5.74h2.42v5.74Zm-14.76-6.29a9.92,9.92,0,0,1-5.3,1.56v-2.26a7.42,7.42,0,0,0,4.19-1.35,11.9,11.9,0,0,0,3.43-3.7,15.19,15.19,0,0,0,2-5.15l2.45.43a18,18,0,0,1-1.39,4.32l9,5.88-1.3,1.9-8.74-5.88A13.63,13.63,0,0,1,404.83,383.08Z"/><path class="cls-3" d="M432.65,372.69H435v18.67H423.38V372.69h2.36v7.05h6.91Zm0,16.48v-7.24h-6.91v7.24Zm8.69-17.08v20.49H439V372.09Z"/><path class="cls-3" d="M453.12,381.52l6.58,8.26-1.88,1.41-5.4-7a13.2,13.2,0,0,1-2.82,5,6.56,6.56,0,0,1-4.06,2.11V389a4.9,4.9,0,0,0,3.07-2.21,14.19,14.19,0,0,0,2-4.92,32.94,32.94,0,0,0,.74-6.87H446v-2.18H458.9V375h-5.16A33.47,33.47,0,0,1,453.12,381.52Zm13.61,1.15h-2.88v9.91h-2.38V372.09h2.38v8.3h2.88Z"/><path class="cls-3" d="M468.38,381.52h20.48v1.73H468.38Zm1.42,6.21h15.34v-1.32H469.75v-1.68h17.69v4.59H472.1v1.34h15.7v1.68h-18Zm.07-12.33h15.22V374H469.87v-1.68h17.52V377H472.18v1.37h15.5V380H469.87Z"/><path class="cls-3" d="M153,413.21l6.46,8.73-1.92,1.37L152.3,416a13.77,13.77,0,0,1-2.93,5.29,6.32,6.32,0,0,1-4.2,2.08V421a5,5,0,0,0,3.39-2.55,17.19,17.19,0,0,0,2.13-5.83,41.54,41.54,0,0,0,.74-8l2.43.1A44.59,44.59,0,0,1,153,413.21Zm13.39,1.46h-2.88v9.91h-2.37V404.09h2.37v8.3h2.88Z"/><path class="cls-3" d="M188.56,421.41v2.19H168.09v-2.19h9v-3.86h-7.6v-7.39h15.4v-3.22h-15.4v-2.11h17.76v7.37H171.83v3.24h15.7v2.11h-8v3.86Z"/><path class="cls-3" d="M195.42,413.31a9.83,9.83,0,0,1-4,1.22v-2.12a6.58,6.58,0,0,0,4-1.89,6.34,6.34,0,0,0,1.75-3.89h-5.49v-2h13.08v2h-5.19a9.58,9.58,0,0,1-.45,2.28l6.31,3.65-1.13,1.77-6.09-3.6A8.4,8.4,0,0,1,195.42,413.31Zm12,2.42h2.33v8.59H192.59v-8.59h2.33v2.18H207.4Zm0,6.64v-2.54H194.92v2.54ZM212.61,410h-2.88v4.59h-2.38V404.09h2.38v3.72h2.88Z"/><path class="cls-3" d="M214.26,412.75h20.48v1.85H214.26Zm3.71-2.17c-1.65-.6-2.48-1.55-2.48-2.85s.83-2.22,2.48-2.82a24,24,0,0,1,13,0q2.49.9,2.49,2.82T231,410.58a24,24,0,0,1-13,0Zm-2.29,8.87H231V418H215.63v-1.78h17.69v4.9H218v1.44h15.67v1.77h-18Zm13.54-10.28c1.21-.31,1.82-.8,1.82-1.44s-.61-1.12-1.84-1.44a23.4,23.4,0,0,0-9.43,0q-1.83.48-1.83,1.44c0,.64.6,1.13,1.82,1.44a23.55,23.55,0,0,0,9.46,0Z"/><path class="cls-3" d="M256.77,414.24h-12v-9.65h12Zm-1.68,5.61,8.35,2.69-.67,2-9-3.12a10.08,10.08,0,0,1-3.78,2.13,15.79,15.79,0,0,1-4.79.73v-2.07a11.79,11.79,0,0,0,5.05-1.05,5.63,5.63,0,0,0,3-2.86h-7.8v-2h17.45v2h-7.15A6.43,6.43,0,0,1,255.09,419.85Zm-.68-13.24h-7.27v5.61h7.27Zm11.09,1.68v2.28h-2.88v4.65h-2.37V404.09h2.37v4.2Z"/><path class="cls-3" d="M278.58,415.75v2.14h7.61v6.45H268.57v-6.45h7.61v-2.14h-9v-1.9h20.47v1.9Zm-1.73-5.83a11.23,11.23,0,0,1-3.92,1.83,19.8,19.8,0,0,1-5,.71v-1.89a16.64,16.64,0,0,0,5.26-1,4.92,4.92,0,0,0,3.1-2.43h-8v-1.89h7.82v-2h2.43v2h7.8v1.89H278.8a3.94,3.94,0,0,1-.53,1.2l8.59,2.28-.55,1.85Zm7,9.81H271v2.74h12.89Z"/><path class="cls-3" d="M306.06,421.17a15.93,15.93,0,0,0,2.92-.26,10.24,10.24,0,0,0,2.39-.7v2.16a8.59,8.59,0,0,1-2.39.72,16.63,16.63,0,0,1-3,.27h-8.06V404.83h11.83V407H300.3v5.84h9.1V415h-9.1v6.14Zm12.34-6.5h-2.88v9.91h-2.38V404.09h2.38v8.3h2.88Z"/><path class="cls-3" d="M325.91,415a9.92,9.92,0,0,1-5.4,1.48v-2.08a8,8,0,0,0,3.42-.75,5.35,5.35,0,0,0,2.29-2.07,6.08,6.08,0,0,0,.82-3.21v-1.77h-6.53v-2h8.83v4.08h3.07v-4.46h2.26V416h-2.26v-5.13H329A7.21,7.21,0,0,1,325.91,415Zm13.87,9.57-9.12-3.91a10.17,10.17,0,0,1-4,2.69,14.56,14.56,0,0,1-5.09,1v-2.23a11.56,11.56,0,0,0,3.85-.7,8.35,8.35,0,0,0,3.13-2,5.86,5.86,0,0,0,1.66-3.05l2.38.56a8.79,8.79,0,0,1-.75,2l8.83,3.52Zm0-6.29h-2.28v-14.2h2.28Z"/><path class="cls-3" d="M355.56,415.11a27.41,27.41,0,0,1-3.92.26h-7.56V404.59H356.8v1.94H346.43V409h10v1.89h-10v2.52h5.4a27.11,27.11,0,0,0,3.78-.24,10.5,10.5,0,0,0,2.68-.67v1.94A10.65,10.65,0,0,1,355.56,415.11Zm4.61,2.74c1.61.6,2.41,1.57,2.41,2.92s-.81,2.29-2.42,2.9a23.53,23.53,0,0,1-13,0c-1.62-.61-2.43-1.58-2.43-2.9s.81-2.32,2.43-2.92a23.81,23.81,0,0,1,13,0Zm-1.86,4.37c1.17-.31,1.75-.8,1.75-1.45s-.58-1.14-1.75-1.46a23.53,23.53,0,0,0-9.26,0c-1.17.32-1.76.8-1.76,1.46s.59,1.14,1.76,1.45a23,23,0,0,0,9.26,0Zm4-5.92h-2.38V404.09h2.38Z"/><path class="cls-3" d="M366.23,412.75H386.7v1.85H366.23Zm3.71-2.17q-2.49-.9-2.49-2.85t2.49-2.82a24,24,0,0,1,13,0c1.66.6,2.48,1.54,2.48,2.82s-.82,2.25-2.48,2.85a24,24,0,0,1-13,0Zm-2.29,8.87H383V418H367.6v-1.78h17.69v4.9H370v1.44h15.68v1.77h-18Zm13.53-10.28c1.22-.31,1.83-.8,1.83-1.44s-.62-1.12-1.84-1.44a23.4,23.4,0,0,0-9.43,0c-1.23.32-1.84.8-1.84,1.44s.61,1.13,1.83,1.44a23.5,23.5,0,0,0,9.45,0Z"/><path class="cls-3" d="M400,414.89a8.45,8.45,0,0,1-3.86,1.56v-2.24a5.86,5.86,0,0,0,3.25-1.75,9.33,9.33,0,0,0,2.12-3.56,14.44,14.44,0,0,0,.77-4.62l2.38.14a14.71,14.71,0,0,1-.87,5.14l6.36,5.09-1.49,1.68-5.78-4.71A10.62,10.62,0,0,1,400,414.89Zm15.82,7.29v2.14H397.89v-6.53h2.42v4.39Zm-2.81-12H408V408H413v-3.91h2.37v15.24H413Z"/><path class="cls-3" d="M439.6,421.37v2.23H419.13v-2.23h9v-4.61h-7.66V404.69h2.35v3.67h13.06v-3.67h2.35v12.07h-7.68v4.61Zm-16.78-6.75h13.06v-4.13H422.82Z"/><path class="cls-3" d="M454.55,412.05a5.15,5.15,0,0,1-2.24,1.79,9.27,9.27,0,0,1-6.77,0,5.13,5.13,0,0,1-2.25-1.79,4.84,4.84,0,0,1,0-5.3,5.22,5.22,0,0,1,2.25-1.8,9.14,9.14,0,0,1,6.77,0,5.25,5.25,0,0,1,2.24,1.8,4.84,4.84,0,0,1,0,5.3Zm4.46,3.68h2.33v8.59H444.2v-8.59h2.36v2.16H459Zm-13-4a4.79,4.79,0,0,0,2.94.84,4.72,4.72,0,0,0,2.93-.84,2.94,2.94,0,0,0,0-4.6,4.72,4.72,0,0,0-2.93-.84,4.79,4.79,0,0,0-2.94.84,2.94,2.94,0,0,0,0,4.6Zm13,10.68v-2.59H446.56v2.59Zm2.33-18.28V414.6H459V404.09Z"/><path class="cls-3" d="M466.48,404.71h2.42v16.46h6a16.08,16.08,0,0,0,2.91-.27,10.23,10.23,0,0,0,2.4-.73v2.18a9.74,9.74,0,0,1-2.38.73,15,15,0,0,1-2.93.28h-8.37Zm15.57-.62h2.38v20.49l-2.38,0Z"/><path class="cls-3" d="M497.49,421.2a15.92,15.92,0,0,0,2.91-.27,8.93,8.93,0,0,0,2.39-.72v2.16a8.54,8.54,0,0,1-2.41.72,17,17,0,0,1-3,.27h-8V404.83h11.83V407h-9.41V421.2Zm12.33-6.53h-2.88v9.91h-2.37V404.09h2.37v8.3h2.88Z"/><path class="cls-3" d="M512,423.9a1.64,1.64,0,0,1-.49-1.21,1.66,1.66,0,0,1,.49-1.22,1.68,1.68,0,0,1,1.21-.49,1.64,1.64,0,0,1,1.2.49,1.69,1.69,0,0,1,.48,1.22,1.67,1.67,0,0,1-.48,1.21,1.6,1.6,0,0,1-1.2.49A1.64,1.64,0,0,1,512,423.9Z"/><path class="cls-3" d="M262,243.45a23.14,23.14,0,0,0,3.89-.34,13,13,0,0,0,3.18-.91v4.86a12.32,12.32,0,0,1-3.26,1,23.49,23.49,0,0,1-4.06.37H251.06V223H267v5h-10.5v5.18h10v4.93h-10v5.38Zm17-5.86h-3.2v12.1h-5.41V222.36h5.41v10H279Z"/><path class="cls-3" d="M288.45,237.53a15,15,0,0,1-7.15,1.79v-4.64a8.55,8.55,0,0,0,5.18-1.63,5.08,5.08,0,0,0,1.92-4.19v-1.7h-7.1v-4.48h12.32v4.93H296v-5.12H301V238.2H296v-5.6h-3.1A9.64,9.64,0,0,1,288.45,237.53ZM307.5,250l-12.12-4.29a15.73,15.73,0,0,1-5.65,2.94,24.09,24.09,0,0,1-7,1v-5a16.65,16.65,0,0,0,5.06-.75,11.27,11.27,0,0,0,3.94-2.09,6.09,6.09,0,0,0,2-3.11l5.41,1.19a10.52,10.52,0,0,1-.74,2l11,3.36Zm.61-8.8H303V222.36h5.12Z"/><path class="cls-3" d="M328.4,237.56a27.36,27.36,0,0,1-3.78.26h-12V222.68h17.09v4.1H317.94v1.56h11.2v3.81h-11.2v1.57h7a25.27,25.27,0,0,0,3.52-.24,12.93,12.93,0,0,0,2.78-.66v4A12.1,12.1,0,0,1,328.4,237.56Zm6.61,2.67q3.38,1.31,3.37,4.24c0,2-1.12,3.38-3.37,4.24a32.54,32.54,0,0,1-18.21,0c-2.25-.86-3.38-2.28-3.38-4.24s1.13-3.37,3.38-4.24a32.78,32.78,0,0,1,18.21,0Zm-4.21,5.33c1.19-.21,1.79-.58,1.79-1.09q0-1.41-6.69-1.41c-4.46,0-6.68.47-6.68,1.41,0,.51.59.88,1.79,1.09a37.6,37.6,0,0,0,9.79,0Zm7.33-7h-5.41V222.36h5.41Z"/><path class="cls-3" d="M379.09,236.06v4.41H368v3.26h-5.44v-3.26h-11.1v-4.41Zm-20.55,9.18h19.27v4.45H353V242h5.5Zm18.88-10.75H353.1V222.36h5.28v2h13.76v-2h5.28Zm-5.28-4.07v-2H358.38v2Z"/><path class="cls-3" d="M387.37,237a11.46,11.46,0,0,1-5.24,1.6v-5a6.54,6.54,0,0,0,3.71-1.77,10.41,10.41,0,0,0,2.56-4,15.36,15.36,0,0,0,1-5.37l5.44.32a18,18,0,0,1-1,6.05l7.61,5.75-3.2,3.62-6.62-5.12A14.05,14.05,0,0,1,387.37,237Zm-3.2,3h24.58V250h-5.5v-5.48H384.17Zm24.58-17.54v16.58h-5.41v-8.33h-4.93v-4.89h4.93v-3.36Z"/><path class="cls-4" d="M330,174.84a61.7,61.7,0,1,1,61.69-61.7A61.76,61.76,0,0,1,330,174.84Zm0-118.07a56.37,56.37,0,1,0,56.37,56.37A56.44,56.44,0,0,0,330,56.77Z"/><path class="cls-4" d="M330,155.16a42,42,0,1,1,42-42A42.06,42.06,0,0,1,330,155.16Zm0-78.71a36.69,36.69,0,1,0,36.69,36.69A36.73,36.73,0,0,0,330,76.45Z"/><path class="cls-4" d="M330,96.13a2.66,2.66,0,0,1-2.66-2.66V37.71a2.66,2.66,0,0,1,5.32,0V93.47A2.66,2.66,0,0,1,330,96.13Z"/><path class="cls-4" d="M330,191.23a2.66,2.66,0,0,1-2.66-2.66V132.82a2.66,2.66,0,0,1,5.32,0v55.75A2.66,2.66,0,0,1,330,191.23Z"/><path class="cls-4" d="M405.43,115.8H349.68a2.66,2.66,0,0,1,0-5.32h55.75a2.66,2.66,0,0,1,0,5.32Z"/><path class="cls-4" d="M310.32,115.8H254.57a2.66,2.66,0,0,1,0-5.32h55.75a2.66,2.66,0,1,1,0,5.32Z"/><path class="cls-4" d="M330,119.08a2.66,2.66,0,0,1-2.66-2.66v-6.56a2.66,2.66,0,0,1,5.32,0v6.56A2.66,2.66,0,0,1,330,119.08Z"/><rect class="cls-1" x="660" width="660" height="480.82"/><path class="cls-3" d="M919.5,233a12.93,12.93,0,0,1-4,2.53,13.41,13.41,0,0,1-4.94,1v-4.22a7.86,7.86,0,0,0,4-1.3,5.5,5.5,0,0,0,2.2-2.73h-5.89v-4.1H917v-2.27h5.47v2.27h6v2.63h2.82v-4.42h5.41v13.92h-5.41v-5.06h-3.59v-3h-5.37a5.08,5.08,0,0,1-.35,1.18l7.07,3.1L927,236.37ZM937,246v3.68H912.27v-7.84h19.11v-1H912.21v-3.65h24.48V245H917.58v1Z"/><path class="cls-3" d="M952.72,234.65l8,10.53-4.39,3-5.44-7.49a14.6,14.6,0,0,1-4.14,5.66,9,9,0,0,1-5.62,2V243a5.16,5.16,0,0,0,3.49-2.13,14.24,14.24,0,0,0,2.37-5.22,34.12,34.12,0,0,0,1-7.66h-6v-5h17.31v5h-5.82A48.51,48.51,0,0,1,952.72,234.65Zm14.75-12.29v27.33h-5.41v-13h-5.44v-5.05h5.44v-9.28Z"/><path class="cls-3" d="M990.13,228.44H971.44v-4.22H978v-2.34h5.5v2.34h6.6Zm-13.59,11.39a6.79,6.79,0,0,1-3-1.92,4.77,4.77,0,0,1,0-6.14,6.62,6.62,0,0,1,3-1.92,14.37,14.37,0,0,1,8.48,0,6.71,6.71,0,0,1,3,1.92,4.77,4.77,0,0,1,0,6.14,6.88,6.88,0,0,1-3,1.92,14.36,14.36,0,0,1-8.48,0Zm2.19,5.15h19v4.71H973.23v-8.42h5.5Zm-.28-11.37a1.29,1.29,0,0,0,0,2.46,4.77,4.77,0,0,0,2.33.5,4.83,4.83,0,0,0,2.34-.5,1.29,1.29,0,0,0,0-2.46,4.83,4.83,0,0,0-2.34-.5A4.77,4.77,0,0,0,978.45,233.61Zm22.11-4.92v5.25h-3.2v8.8H992V222.36h5.41v6.33Z"/><path class="cls-3" d="M1023,239.16h-11.58v-4.51h3.77v-5.06h5.35v5.06h2.56a31.74,31.74,0,0,0,4-.24,11.16,11.16,0,0,0,3.07-.76v4.52A19.2,19.2,0,0,1,1023,239.16Zm.13-12h-10.69v-4.58h16.07V233h-5.38Zm-4.64,18h19v4.61H1013v-8.61h5.47Zm21.79-16.64v5.09h-3.14v9.53h-5.4v-20.7h5.4v6.08Z"/><path class="cls-3" d="M1059.28,238h-10.47v5.5h5.92a21.47,21.47,0,0,0,3.88-.36,14.46,14.46,0,0,0,3.2-1v4.87a12.52,12.52,0,0,1-3.22,1,23.9,23.9,0,0,1-4.08.35h-11.07V233.24h10.46v-5.38h-10.53V223h15.91Zm9.37,11.65h-5.41V222.36h5.41Z"/><path class="cls-3" d="M901.18,287.44v2H880.7v-2h9V285h-7.56v-8.8h2.35v2.49h12.84v-2.49h2.33V285h-7.56v2.43Zm-16.64,6.89h15.58v2h-18v-5.45h2.42Zm0-11.21h12.84v-2.59H884.52Z"/><path class="cls-3" d="M911.83,285.21l6.46,8.73-1.92,1.37L911.09,288a13.64,13.64,0,0,1-2.93,5.29,6.32,6.32,0,0,1-4.2,2.08V293a5,5,0,0,0,3.4-2.55,17.41,17.41,0,0,0,2.12-5.83,41.54,41.54,0,0,0,.74-8l2.43.1A43.8,43.8,0,0,1,911.83,285.21Zm13.39,1.46h-2.88v9.91H920V276.09h2.37v8.3h2.88Z"/><path class="cls-3" d="M926.88,293.13h8.38a29.4,29.4,0,0,0,3.93-.24,9.72,9.72,0,0,0,2.79-.72v2.2a10.86,10.86,0,0,1-2.84.72,27.29,27.29,0,0,1-4,.27h-8.23Zm3.77-4.52a5.79,5.79,0,0,1-2.26-2.29,7.31,7.31,0,0,1,0-6.69,5.88,5.88,0,0,1,2.26-2.3,7,7,0,0,1,6.53,0,5.79,5.79,0,0,1,2.25,2.3,7.23,7.23,0,0,1,0,6.69,5.7,5.7,0,0,1-2.25,2.29,6.91,6.91,0,0,1-6.53,0Zm5.36-1.9a4,4,0,0,0,1.41-1.54,5.09,5.09,0,0,0,0-4.4,3.8,3.8,0,0,0-1.42-1.55,3.85,3.85,0,0,0-2.09-.57,3.9,3.9,0,0,0-2.11.57,3.63,3.63,0,0,0-1.4,1.55,4.81,4.81,0,0,0-.5,2.2,4.4,4.4,0,0,0,1.11,3.09,3.72,3.72,0,0,0,2.9,1.21A3.92,3.92,0,0,0,936,286.71Zm7.69-10.62h2.38v20.49H943.7Z"/><path class="cls-3" d="M977.16,289.89H968v7.17h-2.45v-7.17h-8.88v-2.26h20.47Zm-13.54-11.11h-5.8v-2.21H966v9.36h-2.38Zm9.8,0h-5.93v-2.21h8.33v9.36h-2.4Z"/><path class="cls-3" d="M1000.25,286.6v2h-9v3.53h-2.4v-3.53h-9v-2Zm-10.63-4.73a10.66,10.66,0,0,1-3.89,2.21,16.1,16.1,0,0,1-4.9.84v-2a13.33,13.33,0,0,0,3.64-.6,9.55,9.55,0,0,0,3.07-1.56,4.26,4.26,0,0,0,1.62-2.4h-8v-2h17.66v2h-7.27a5.37,5.37,0,0,1-.65,1.9l8.47,2.88-.72,1.89Zm-6,12.43h15.57v2h-18v-5.83h2.43Z"/><path class="cls-3" d="M1016.71,280h-13.92V278h5.76v-2.3h2.4V278h5.76ZM1006.64,289a4.79,4.79,0,0,1-2.17-1.45,3.61,3.61,0,0,1,0-4.51,4.87,4.87,0,0,1,2.17-1.45,9.18,9.18,0,0,1,3.11-.49,9.09,9.09,0,0,1,3.1.49,5,5,0,0,1,2.16,1.44,3.64,3.64,0,0,1,0,4.53,4.79,4.79,0,0,1-2.16,1.44,9.08,9.08,0,0,1-3.1.5A9.18,9.18,0,0,1,1006.64,289Zm0,5.18H1022v2.11h-17.69V290.7h2.4Zm.34-10.59a2,2,0,0,0-1,1.71,2,2,0,0,0,1,1.71,5,5,0,0,0,2.73.66,5,5,0,0,0,2.74-.66,2,2,0,0,0,1-1.71,2,2,0,0,0-1-1.71,4.94,4.94,0,0,0-2.74-.67A4.88,4.88,0,0,0,1007,283.62Zm17.28-1.92V284h-2.88v7.47H1019V276.09h2.38v5.61Z"/><path class="cls-3" d="M1053.14,287v2h-9v3.2h-2.41V289h-9v-2Zm-16.63,7.37h15.58v2h-18v-5.52h2.42Zm15.14-9.39h-17.51v-8.73h2.35v2.47h12.84v-2.47h2.32Zm-2.32-1.89V280.5h-12.84v2.55Z"/><path class="cls-3" d="M1059.65,286.45a8.54,8.54,0,0,1-3.87,1.52v-2.21a6.14,6.14,0,0,0,3.24-1.69,9,9,0,0,0,2.14-3.4,13.35,13.35,0,0,0,.77-4.39l2.37.14a13.68,13.68,0,0,1-.86,4.92l6.38,4.83-1.41,1.63-5.91-4.49A9.91,9.91,0,0,1,1059.65,286.45Zm-2.24,3.24H1075v6.89h-2.42v-4.82h-15.2Zm17.62-13.6v12.48h-2.38V282h-4.94v-2.16h4.94v-3.74Z"/><path class="cls-3" d="M1086.65,293.13a18.54,18.54,0,0,0,6.72-.87v2.23a18.89,18.89,0,0,1-6.7.87h-7.82v-2.23h3.57v-8.69h2.4v8.69Zm2.28-14h-9.34v-2.21h11.74v13.05h-2.4Zm11.35,7.39h-2.83v10.1h-2.38V276.09h2.38v8.11h2.83Z"/><path class="cls-3" d="M843.58,324.26h-4.35v4.8h-4v-4.8h-4v4.8h-4v-4.8h-4.35v-3.69h20.74Zm-14.86-6.35a12.42,12.42,0,0,1-5.4,1.17v-3.82a8.29,8.29,0,0,0,3.87-.95,8.8,8.8,0,0,0,3.1-2.66,8.54,8.54,0,0,0,1.58-3.87l4.12.59a11.89,11.89,0,0,1-.91,3.17l8.43,4.15-1.9,3.41-8.5-4.49A12.78,12.78,0,0,1,828.72,317.91Z"/><path class="cls-3" d="M858,323.69a10.5,10.5,0,0,0,2.31-.68v3.63a9.27,9.27,0,0,1-2.44.72,18.32,18.32,0,0,1-3,.26h-8.57V324h1.68V312.24h-1.54v-3.67h13.13v3.67H858Zm-6.07.26H854V312.24h-2.09Zm14-15.86v20.49h-4.06v-9.19h-2.61V315.6h2.61v-7.51Z"/><path class="cls-3" d="M877.66,308.57h4v19.05H869.71V308.57h4v6h4Zm0,15.33v-5.61h-4v5.61Zm13-4.39h-2.4v9.07h-4.06V308.09h4.06v7.48h2.4Z"/><path class="cls-3" d="M903.88,310.76q1.71,2.44,1.71,7.33c0,3.27-.57,5.71-1.71,7.34a5.81,5.81,0,0,1-9.45,0c-1.15-1.63-1.72-4.07-1.72-7.34s.57-5.7,1.72-7.33a5.81,5.81,0,0,1,9.45,0Zm-7.17,7.33c0,4,.82,6.05,2.45,6.05s2.43-2,2.43-6.05a12,12,0,0,0-.66-4.63q-.66-1.41-1.77-1.41Q896.71,312.05,896.71,318.09Zm15.22,10.49h-4.06V308.09h4.06Z"/><path class="cls-3" d="M924.05,317.3l6,7.9-3.29,2.28-4.08-5.62a10.91,10.91,0,0,1-3.11,4.25,6.73,6.73,0,0,1-4.21,1.51v-4.08A3.84,3.84,0,0,0,918,322a10.67,10.67,0,0,0,1.78-3.92,25.24,25.24,0,0,0,.72-5.74h-4.54v-3.72h13v3.72h-4.37A35.78,35.78,0,0,1,924.05,317.3Zm11.06-9.21v20.49h-4.05v-9.74H927v-3.79h4.08v-7Z"/><path class="cls-3" d="M950.52,327.39a19.2,19.2,0,0,1-3.07.23h-9.17v-3.79h9.34a21.85,21.85,0,0,0,3-.2,8.75,8.75,0,0,0,2.34-.62v3.75A9.6,9.6,0,0,1,950.52,327.39Zm-1.76-18.33a5.91,5.91,0,0,1,2.31,2.34,7.63,7.63,0,0,1,0,7,5.91,5.91,0,0,1-2.31,2.34,7.3,7.3,0,0,1-6.76,0,5.89,5.89,0,0,1-2.33-2.34,7.63,7.63,0,0,1,0-7,5.89,5.89,0,0,1,2.33-2.34,7.3,7.3,0,0,1,6.76,0Zm-5.29,3.65a3.61,3.61,0,0,0,0,4.35,2.6,2.6,0,0,0,3.84,0,3.63,3.63,0,0,0,0-4.34,2.4,2.4,0,0,0-1.92-.86A2.36,2.36,0,0,0,943.47,312.71Zm14.68,15.87h-4V308.09h4Z"/><path class="cls-3" d="M975.12,316a9.7,9.7,0,0,1-3,1.9,10.11,10.11,0,0,1-3.71.76v-3.16a5.88,5.88,0,0,0,3-1,4.14,4.14,0,0,0,1.65-2.05h-4.42v-3.07h4.53v-1.7h4.11v1.7h4.51v2H984v-3.31H988v10.44H984v-3.8h-2.69V312.5h-4a3.44,3.44,0,0,1-.26.89l5.3,2.33-1.56,2.88Zm13.1,9.79v2.76H969.7V322.7H984V322H969.65v-2.73H988v5.83H973.68v.74Z"/><path class="cls-3" d="M1000,317.3l6,7.9-3.29,2.28-4.08-5.62a10.91,10.91,0,0,1-3.11,4.25,6.7,6.7,0,0,1-4.21,1.51v-4.08a3.88,3.88,0,0,0,2.62-1.59,10.66,10.66,0,0,0,1.77-3.92,25.24,25.24,0,0,0,.72-5.74H991.9v-3.72h13v3.72h-4.37A35.78,35.78,0,0,1,1000,317.3Zm11.07-9.21v20.49H1007v-9.74H1003v-3.79H1007v-7Z"/><path class="cls-3" d="M1028.09,312.65h-14v-3.17H1019v-1.75h4.12v1.75h4.95Zm-10.19,8.54a5.11,5.11,0,0,1-2.27-1.44,3.58,3.58,0,0,1,0-4.61,5.11,5.11,0,0,1,2.27-1.44,10.77,10.77,0,0,1,6.36,0,5.11,5.11,0,0,1,2.27,1.44,3.58,3.58,0,0,1,0,4.61,5.11,5.11,0,0,1-2.27,1.44,10.77,10.77,0,0,1-6.36,0Zm1.64,3.86h14.26v3.53h-18.38v-6.31h4.12Zm-.21-8.53a1.08,1.08,0,0,0-.67.93,1.07,1.07,0,0,0,.67.92,4.32,4.32,0,0,0,3.5,0,1.07,1.07,0,0,0,.67-.92,1.08,1.08,0,0,0-.67-.93,4.32,4.32,0,0,0-3.5,0Zm16.58-3.68v3.94h-2.4v6.59h-4V308.09h4v4.75Z"/><path class="cls-3" d="M1044.43,308.57h9.31v19.05h-9.31ZM1048.2,324h1.8V312.24h-1.8Zm16.27-15.86v20.49h-3.79v-9.12H1059v8.76h-3.75v-20H1059v7.44h1.7v-7.53Z"/><path class="cls-3" d="M1071.37,318.28a9.37,9.37,0,0,1-4,1v-3.56a5.12,5.12,0,0,0,2.29-.64,5.25,5.25,0,0,0,1.66-1.47,5,5,0,0,0,.85-1.89h-4.51v-3.36h13v3.36h-4.44a6.2,6.2,0,0,1-.21,1.15l5.37,3-1.89,3-5.11-2.95A9.61,9.61,0,0,1,1071.37,318.28Zm12.71,2.47a3.68,3.68,0,0,1,0,7,21.26,21.26,0,0,1-13.44,0,3.68,3.68,0,0,1,0-7,21.08,21.08,0,0,1,13.44,0Zm-3.18,4.51c.89-.22,1.33-.56,1.33-1s-.45-.79-1.34-1a18.49,18.49,0,0,0-7.06,0c-.89.22-1.34.56-1.34,1s.44.8,1.33,1a19.74,19.74,0,0,0,7.08,0Zm7.91-14v3.86h-2.4v4.28h-4.06V308.09h4.06v3.14Z"/><path class="cls-3" d="M1098.94,320.69h-8.69V317.3h2.83v-3.79h4v3.79H1099a24,24,0,0,0,3-.18,8.5,8.5,0,0,0,2.3-.56v3.38A14.2,14.2,0,0,1,1098.94,320.69Zm.09-9h-8v-3.43h12v7.82h-4Zm-3.48,13.47h14.28v3.45h-18.38v-6.45h4.1Zm16.35-12.48v3.81h-2.36v7.15h-4V308.09h4v4.56Z"/><path class="cls-3" d="M1126.13,319.85h-7.85V324h4.44a15.89,15.89,0,0,0,2.9-.27,10,10,0,0,0,2.4-.71v3.65a9.13,9.13,0,0,1-2.41.72,18.23,18.23,0,0,1-3.06.26h-8.3V316.25h7.85v-4h-7.9v-3.64h11.93Zm7,8.73h-4.06V308.09h4.06Z"/><path class="cls-3" d="M1136.57,317.52H1157v1.73h-20.47Zm1.41,6.21h15.34v-1.32h-15.38v-1.68h17.68v4.59h-15.33v1.34H1156v1.68h-18Zm.07-12.33h15.22V310h-15.22v-1.68h17.52V313h-15.21v1.37h15.5V316h-17.81Z"/><path class="cls-3" d="M848.28,350.62v1.85H827.81v-1.85h9.05V348.8H829.3v-8.47h17.61v1.77H831.67v1.61h14.91v1.7H831.67V347h15.44v1.78h-7.9v1.82Zm-3.74,4.06c1.66.54,2.49,1.4,2.49,2.57s-.83,2-2.5,2.58a26.13,26.13,0,0,1-13,0c-1.67-.55-2.51-1.42-2.51-2.58s.83-2,2.5-2.57a26.21,26.21,0,0,1,13,0Zm-1.88,3.79c1.25-.27,1.88-.68,1.88-1.22s-.63-1-1.89-1.23a26.23,26.23,0,0,0-9.24,0c-1.25.27-1.88.68-1.88,1.23s.62.95,1.87,1.22a26.35,26.35,0,0,0,9.26,0Z"/><path class="cls-3" d="M857.09,343.28h4.29v2.13H850.44v-2.13h4.3V340h2.35Zm1.39,4.47a4.8,4.8,0,0,1,1.69,2.15,9.84,9.84,0,0,1,0,6.82,4.8,4.8,0,0,1-1.69,2.15,4.35,4.35,0,0,1-2.47.73,4.29,4.29,0,0,1-2.46-.73,4.92,4.92,0,0,1-1.68-2.15,9.84,9.84,0,0,1,0-6.82,4.92,4.92,0,0,1,1.68-2.15A4.29,4.29,0,0,1,856,347,4.35,4.35,0,0,1,858.48,347.75Zm-.6,8.64a6.95,6.95,0,0,0,0-6.16,2.14,2.14,0,0,0-1.87-1.12,2.11,2.11,0,0,0-1.84,1.12,7,7,0,0,0,0,6.16,2.11,2.11,0,0,0,1.84,1.12A2.14,2.14,0,0,0,857.88,356.39Zm12.72-16.3v20.49h-2.21v-10h-3.28v9.65H862.9v-20h2.21v8.13h3.28v-8.25Z"/><path class="cls-3" d="M889.06,349.11l6.62,8.83-1.92,1.37-5.45-7.44a14.39,14.39,0,0,1-3,5.38,6.37,6.37,0,0,1-4.25,2.11V357a5.09,5.09,0,0,0,3.44-2.56,17.31,17.31,0,0,0,2.18-5.84,40.59,40.59,0,0,0,.77-8l2.42.1A43.09,43.09,0,0,1,889.06,349.11Zm10.77-9v20.49h-2.37V340.09Z"/><path class="cls-3" d="M908.12,349.67a9.57,9.57,0,0,1-4,1.34v-2.14a6.34,6.34,0,0,0,4-2,7.05,7.05,0,0,0,1.76-4.19h-5.52v-2h13.08v2h-5.18a9.93,9.93,0,0,1-.41,2.28l6.24,3.85-1.17,1.77L911,346.83A8.24,8.24,0,0,1,908.12,349.67Zm12.12,3.45a3.35,3.35,0,0,1,0,6.43,20.21,20.21,0,0,1-12.74,0,3.35,3.35,0,0,1,0-6.43,20.21,20.21,0,0,1,12.74,0ZM918.38,358c1.16-.39,1.73-1,1.73-1.71s-.57-1.32-1.73-1.7a17.79,17.79,0,0,0-9,0c-1.16.38-1.74.95-1.74,1.7s.58,1.32,1.73,1.71a18.13,18.13,0,0,0,9,0Zm6.84-14v2.25h-2.88v5.16H920V340.09h2.37V344Z"/><path class="cls-3" d="M954.07,357.44v2.16H933.6v-2.16Zm-.74-12.58h-19v-2.13h8.26v-2.91H945v2.91h8.31Zm-15.72,2.44a19.44,19.44,0,0,1,12.43,0,3.22,3.22,0,0,1,0,6.2,19.63,19.63,0,0,1-12.43,0,3.22,3.22,0,0,1,0-6.2Zm10.69,1.52a20.28,20.28,0,0,0-8.95,0c-1.11.34-1.67.87-1.67,1.59s.56,1.24,1.67,1.57a20.68,20.68,0,0,0,8.95,0c1.11-.33,1.67-.85,1.67-1.57S949.41,349.16,948.3,348.82Z"/><path class="cls-3" d="M956.69,350.53h20.47v1.84H956.69Zm1.41,3.57h17.62v6.24H958.1Zm.08-10.39h15.19V342.1H958.18v-1.77H975.7v5.08H960.5V347H976v1.78h-17.8Zm15.19,14.83V355.9H960.46v2.64Z"/><path class="cls-3" d="M992.28,340.21h2.23v20h-2.23v-9.33h-2.71q-.11,4.49-1.3,6.61a3.78,3.78,0,0,1-3.45,2.12,3.83,3.83,0,0,1-3.58-2.31c-.8-1.55-1.2-3.95-1.2-7.22s.4-5.66,1.2-7.21a3.83,3.83,0,0,1,3.58-2.31,3.73,3.73,0,0,1,3.37,2,13.26,13.26,0,0,1,1.35,6.1h2.74Zm-5.58,15.45a25.69,25.69,0,0,0,0-11.13c-.41-1.2-1-1.8-1.88-1.8s-1.48.6-1.9,1.8a25.29,25.29,0,0,0,0,11.13c.42,1.2,1.05,1.8,1.9,1.8S986.29,356.86,986.7,355.66Zm12.78-15.57v20.49h-2.26V340.09Z"/><path class="cls-3" d="M1022.28,350.24h-12v-9.65h12Zm-1.68,5.61,8.35,2.69-.67,2-9-3.12a10.08,10.08,0,0,1-3.78,2.13,15.74,15.74,0,0,1-4.79.73v-2.07a11.76,11.76,0,0,0,5-1.05,5.6,5.6,0,0,0,3-2.86H1011v-2h17.45v2h-7.15A6.43,6.43,0,0,1,1020.6,355.85Zm-.67-13.24h-7.28v5.61h7.28Zm11.09,1.68v2.28h-2.88v4.65h-2.38V340.09h2.38v4.2Z"/><path class="cls-3" d="M1032.67,350.29h20.47v2.11h-20.47Zm1.42,3.93h2.42v4h15.58v2.11h-18Zm.05-14.13h2.39v5.83h15.34V348h-17.73Z"/><path class="cls-3" d="M1068.07,357.25a15.67,15.67,0,0,0,2.58-.21,9.61,9.61,0,0,0,2.2-.59v2.09a9.29,9.29,0,0,1-2.26.6,17.09,17.09,0,0,1-2.78.22h-4.71V340.83H1072v2.11h-6.53v14.31Zm14.11-17.16v20.49h-2.25v-10h-3.34v9.65h-2.26v-20h2.26v8.13h3.34v-8.25Z"/><path class="cls-3" d="M1085.57,349.49H1106v1.92h-20.47Zm3.73-2.61c-1.67-.66-2.51-1.65-2.51-3s.84-2.31,2.51-3a22.2,22.2,0,0,1,13,0c1.67.65,2.51,1.63,2.51,3s-.84,2.32-2.51,3a22,22,0,0,1-13,0Zm0,12.86q-2.49-.89-2.49-2.85c0-1.32.82-2.26,2.47-2.84a25.22,25.22,0,0,1,13.06,0c1.65.58,2.47,1.52,2.47,2.84s-.83,2.26-2.48,2.85a24.29,24.29,0,0,1-13,0Zm11.18-14.29c1.21-.34,1.81-.86,1.81-1.55s-.61-1.18-1.82-1.53a20.75,20.75,0,0,0-9.32,0c-1.21.35-1.82.86-1.82,1.53s.6,1.21,1.81,1.55a21.23,21.23,0,0,0,9.34,0Zm0,12.86c1.23-.29,1.84-.77,1.84-1.42s-.61-1.11-1.84-1.4a21.54,21.54,0,0,0-4.66-.43,21.22,21.22,0,0,0-4.64.43c-1.23.29-1.84.76-1.84,1.4s.61,1.13,1.84,1.42a19.92,19.92,0,0,0,4.64.45A20.22,20.22,0,0,0,1100.45,358.31Z"/><path class="cls-3" d="M1118.06,345.32v-2.74h-8.61v-2h11v6.67h-8.56v2.79h4.6a31.49,31.49,0,0,0,3.84-.21,9.75,9.75,0,0,0,2.62-.59v2a11.34,11.34,0,0,1-2.69.57,31.39,31.39,0,0,1-3.93.22h-6.8v-6.72Zm-7.73,8.71H1128v6.55h-2.42v-4.51h-15.2ZM1128,340.09V352.9h-2.35v-4.7h-3.75v-2h3.75v-1.85h-3.75v-2h3.75v-2.23Z"/><path class="cls-3" d="M1131.74,348.75h20.47v1.85h-20.47Zm3.71-2.17c-1.66-.6-2.48-1.55-2.48-2.85s.82-2.22,2.48-2.82a24,24,0,0,1,13,0q2.49.9,2.49,2.82t-2.49,2.85a24,24,0,0,1-13,0Zm-2.29,8.87h15.31V354h-15.36v-1.78h17.69v4.9h-15.31v1.44h15.67v1.77h-18Zm13.53-10.28c1.22-.31,1.83-.8,1.83-1.44s-.61-1.12-1.84-1.44a23.4,23.4,0,0,0-9.43,0c-1.22.32-1.84.8-1.84,1.44s.61,1.13,1.83,1.44a23.5,23.5,0,0,0,9.45,0Z"/><path class="cls-3" d="M852.13,372.83h11.55v5.74a14.63,14.63,0,0,1-1.48,6.82,10.42,10.42,0,0,1-4.09,4.39,12.05,12.05,0,0,1-6,1.53v-2.23a9.33,9.33,0,0,0,5.61-1.72,8.53,8.53,0,0,0,3.13-4.93h-8.74v-2.16h9.1c0-.51.07-1,.07-1.56V375h-9.17Zm18.15-.74v20.49H867.9V372.09Z"/><path class="cls-3" d="M885.66,382.38v1.85h7.66v4.9H878v1.44h15.67v1.77h-18v-4.89H891V386H875.63v-1.78h7.68v-1.85h-9v-1.85h20.47v1.85Zm-7.69-3.8c-1.66-.6-2.48-1.55-2.48-2.85s.82-2.22,2.48-2.82a24,24,0,0,1,13,0q2.49.9,2.49,2.82T891,378.58a24,24,0,0,1-13,0Zm1.8-4.29c-1.23.32-1.84.8-1.84,1.44s.61,1.13,1.83,1.44a23.5,23.5,0,0,0,9.45,0c1.22-.31,1.83-.8,1.83-1.44s-.61-1.12-1.84-1.44a23.4,23.4,0,0,0-9.43,0Z"/><path class="cls-3" d="M924.54,387.33h-9v5.73h-2.42v-5.73h-9v-2.21h20.47Zm-14.7-5.74a11.26,11.26,0,0,1-5.29,1.37V380.7a8.29,8.29,0,0,0,4.19-1.16,10.74,10.74,0,0,0,3.44-3.18,11.12,11.12,0,0,0,1.85-4.42l2.45.39a14,14,0,0,1-1.25,3.74l8.78,4.87-1.1,2-8.83-5A12.72,12.72,0,0,1,909.84,381.59Z"/><path class="cls-3" d="M946.21,380.41a5.27,5.27,0,0,1-2.24,1.88,8.89,8.89,0,0,1-6.77,0,5.21,5.21,0,0,1-2.24-1.88,5.21,5.21,0,0,1,0-5.55A5.17,5.17,0,0,1,937.2,373a8.89,8.89,0,0,1,6.77,0,5.22,5.22,0,0,1,2.24,1.89,5.27,5.27,0,0,1,0,5.55Zm7,12-3.93-3.28a7.3,7.3,0,0,1-2.27,2.26,6,6,0,0,1-2.84.93l-3.48-3.07a7.7,7.7,0,0,1-2.28,2.17,6.2,6.2,0,0,1-2.79.9v-2.16a3.71,3.71,0,0,0,2.1-1,6.66,6.66,0,0,0,1.65-2.2,8,8,0,0,0,.76-2.9l2.31.31a10.55,10.55,0,0,1-.77,3l3.14,2.59a4.07,4.07,0,0,0,1.78-1.15,7.12,7.12,0,0,0,1.34-2.11,8.28,8.28,0,0,0,.63-2.67l2.3.34a10.67,10.67,0,0,1-.65,2.85l4.42,3.43Zm-15.58-12.32a4.53,4.53,0,0,0,2.94.9,4.48,4.48,0,0,0,2.91-.9,3.26,3.26,0,0,0,0-4.92,4.48,4.48,0,0,0-2.91-.9,4.53,4.53,0,0,0-2.94.9,3.26,3.26,0,0,0,0,4.92Zm15.34,3.4h-2.37v-11.4H953Z"/><path class="cls-3" d="M977.44,389.39v2.21H957v-2.21h9v-5h-7.65V372.83h17.78V375H960.73v7.17h15.6v2.21h-7.94v5Z"/><path class="cls-3" d="M1000.52,383.39v1.9H980.05v-1.9h9.05v-2h-7.56v-5.44h15.19v-1.76H981.54v-1.84h17.52v5.35H983.87v1.85h15.48v1.84h-7.9v2Zm-19.22,3.67h17.78v5.55h-2.4V389H981.3Z"/><path class="cls-3" d="M1017.59,384.25h-7.73v-2h4v-4.87h2.35v4.87h1.44q4.85,0,6.72-.79v2Q1022.6,384.26,1017.59,384.25Zm2.45-9.76h-9.2v-2.07h11.57v7.95H1020Zm-6.34,15.76H1029v2.07H1011.3v-6h2.4Zm17.59-12.62v2.23h-2.83v7.8h-2.38V372.09h2.38v5.54Z"/><path class="cls-3" d="M1034.12,380.85h9.17V375h-9.21v-2.18h11.59V383h-9.17v6.14h6a15.93,15.93,0,0,0,2.92-.26,9.63,9.63,0,0,0,2.38-.72v2.18a8.54,8.54,0,0,1-2.37.72,16.57,16.57,0,0,1-3,.27h-8.31Zm15.58-8.76h2.38v20.49h-2.38Z"/><path class="cls-3" d="M1069.88,375.61H1056v-1.82h5.76v-2.06h2.4v2.06h5.76Zm-10,7.83a5,5,0,0,1-2.16-1.25,2.72,2.72,0,0,1,0-3.82,5.28,5.28,0,0,1,2.16-1.26,11,11,0,0,1,6.15,0,5.14,5.14,0,0,1,2.14,1.26,2.73,2.73,0,0,1,0,3.82,5,5,0,0,1-2.14,1.25,11.25,11.25,0,0,1-6.16,0Zm12.44,1.27h2.31v7.61h-17.14v-7.61h2.31v1.85h12.52Zm-12.08-5.78a1.39,1.39,0,0,0,0,2.68,7.24,7.24,0,0,0,5.44,0c.68-.35,1-.79,1-1.34a1.56,1.56,0,0,0-1-1.34,7.24,7.24,0,0,0-5.44,0Zm12.08,11.52v-2.07h-12.52v2.07Zm5.19-11.86h-2.88v5h-2.38V372.09h2.38v4.29h2.88Z"/><path class="cls-3" d="M1080.3,372.71h2.42v16.46h6a16,16,0,0,0,2.9-.27,9.94,9.94,0,0,0,2.4-.73v2.18a9.6,9.6,0,0,1-2.38.73,15,15,0,0,1-2.92.28h-8.38Zm15.58-.62h2.37v20.49l-2.37,0Z"/><path class="cls-3" d="M1111.31,389.2a15.92,15.92,0,0,0,2.91-.27,8.81,8.81,0,0,0,2.39-.72v2.16a8.54,8.54,0,0,1-2.41.72,17,17,0,0,1-3,.27h-8V372.83H1115V375h-9.4V389.2Zm12.33-6.53h-2.88v9.91h-2.37V372.09h2.37v8.3h2.88Z"/><path class="cls-3" d="M1125.86,391.9a1.64,1.64,0,0,1-.49-1.21,1.66,1.66,0,0,1,.49-1.22,1.69,1.69,0,0,1,1.21-.49,1.66,1.66,0,0,1,1.21.49,1.69,1.69,0,0,1,.48,1.22,1.67,1.67,0,0,1-.48,1.21,1.62,1.62,0,0,1-1.21.49A1.65,1.65,0,0,1,1125.86,391.9Z"/><path class="cls-4" d="M947.84,138.43h0a2.68,2.68,0,0,1-2.68-2.66,2.64,2.64,0,0,1,2.64-2.66h.08c2,0,4.78,0,8.22-4.54l1.25-1.66c4.18-5.58,8.91-11.9,17.6-11.9H984a2.66,2.66,0,0,1,0,5.32h-9.06c-6,0-9.42,4.53-13.34,9.77l-1.28,1.7C955.26,138.4,950.27,138.43,947.84,138.43Z"/><path class="cls-4" d="M947.76,171.62h-18.1A2.66,2.66,0,0,1,927,169V132.75a2.66,2.66,0,0,1,2.67-2.66h18.1a2.66,2.66,0,0,1,2.66,2.66V169A2.66,2.66,0,0,1,947.76,171.62Zm-15.44-5.32H945.1V135.41H932.32Z"/><path class="cls-4" d="M1005.08,174.64h-36.2c-7.79,0-10-2.18-11.65-4.61-.72-1-1-1.43-3.44-1.43h-6a2.66,2.66,0,1,1,0-5.32h6c4.83,0,6.45,1.75,7.81,3.7.83,1.2,1.62,2.34,7.28,2.34h36c3.19-2,8.59-22.18,6-33-.62-2.57-1.54-3.87-2.73-3.87H974.91a2.66,2.66,0,1,1,0-5.32h33.24a7.25,7.25,0,0,1,6.34,3.91c4.9,8.41,1.27,30.62-3.68,39.25C1009.13,173.16,1007.2,174.64,1005.08,174.64Z"/><path class="cls-4" d="M999.05,132.4a2.66,2.66,0,0,1-2.66-2.66v-18.1a2.66,2.66,0,1,1,5.32,0v18.1A2.66,2.66,0,0,1,999.05,132.4Z"/><path class="cls-4" d="M984,132.4a2.66,2.66,0,0,1-2.67-2.66v-18.1a2.67,2.67,0,1,1,5.33,0v18.1A2.66,2.66,0,0,1,984,132.4Z"/><path class="cls-4" d="M996,183.69h-9A5.69,5.69,0,0,1,981.3,178v-6a2.67,2.67,0,0,1,5.33,0v6a.36.36,0,0,0,.35.36h9a.36.36,0,0,0,.36-.36v-6a2.66,2.66,0,0,1,5.32,0v6A5.69,5.69,0,0,1,996,183.69Z"/><path class="cls-4" d="M990,114.3a35.85,35.85,0,1,1,35.85-35.85A35.89,35.89,0,0,1,990,114.3Zm0-66.38a30.53,30.53,0,1,0,30.53,30.53A30.56,30.56,0,0,0,990,47.92Z"/><path class="cls-4" d="M990,87.14c-6.57,0-11.71-5.71-11.71-13V70.69c0-7.3,5.14-13,11.71-13s11.71,5.71,11.71,13v3.45C1001.71,81.43,996.57,87.14,990,87.14ZM990,63c-3.58,0-6.39,3.38-6.39,7.69v3.45c0,4.3,2.81,7.68,6.39,7.68s6.39-3.38,6.39-7.68V70.69C996.39,66.38,993.58,63,990,63Z"/><path class="cls-4" d="M1005.08,96.19a2.66,2.66,0,0,1-2.66-2.66c0-3.09-5-6.39-12.42-6.39s-12.42,3.3-12.42,6.39a2.67,2.67,0,0,1-5.33,0c0-6.67,7.63-11.71,17.75-11.71s17.75,5,17.75,11.71A2.66,2.66,0,0,1,1005.08,96.19Z"/><path class="cls-4" d="M1044.31,108.26c-6.57,0-11.71-5.71-11.71-13V91.81c0-7.3,5.14-13,11.71-13s11.71,5.71,11.71,13v3.45C1056,102.55,1050.87,108.26,1044.31,108.26Zm0-24.14c-3.59,0-6.39,3.38-6.39,7.69v3.45c0,4.3,2.8,7.68,6.39,7.68s6.39-3.38,6.39-7.68V91.81C1050.7,87.5,1047.89,84.12,1044.31,84.12Z"/><path class="cls-4" d="M1059.39,117.31a2.66,2.66,0,0,1-2.66-2.66c0-3.08-5-6.39-12.42-6.39s-12.43,3.31-12.43,6.39a2.66,2.66,0,0,1-5.32,0c0-6.68,7.63-11.71,17.75-11.71s17.75,5,17.75,11.71A2.66,2.66,0,0,1,1059.39,117.31Z"/><path class="cls-4" d="M935.69,108.26c-6.57,0-11.71-5.71-11.71-13V91.81c0-7.3,5.14-13,11.71-13s11.71,5.71,11.71,13v3.45C947.4,102.55,942.26,108.26,935.69,108.26Zm0-24.14c-3.58,0-6.39,3.38-6.39,7.69v3.45c0,4.3,2.81,7.68,6.39,7.68s6.39-3.38,6.39-7.68V91.81C942.08,87.5,939.28,84.12,935.69,84.12Z"/><path class="cls-4" d="M950.78,117.31a2.66,2.66,0,0,1-2.66-2.66c0-3.08-5-6.39-12.43-6.39s-12.42,3.31-12.42,6.39a2.67,2.67,0,0,1-5.33,0c0-6.68,7.63-11.71,17.75-11.71s17.75,5,17.75,11.71A2.66,2.66,0,0,1,950.78,117.31Z"/><rect class="cls-1" y="480.82" width="660" height="480.82"/><path class="cls-3" d="M191.64,774.19v2.23H171.17v-2.23h10.68v-8h2.38v8Zm-14.18-14.36h-5.19v-2.2h7.54v12.72h-2.35Zm10.61,0H181.2v-2.2h9.24v12.72h-2.37Z"/><path class="cls-3" d="M195.22,757.65h11.4v18.53h-11.4ZM197.59,774h6.65V759.86h-6.65Zm18.1-6.48h-2.88v9.91h-2.38V756.91h2.38v8.3h2.88Z"/><path class="cls-3" d="M237.82,774.23v2.19H217.35v-2.19Zm-1-3.48H218.71v-13.1h17.76v2.14H221.09v3.36h15.12v2.08H221.09v3.39h15.69Z"/><path class="cls-3" d="M250.11,762.14V759.4h-8.88v-2h11.23v6.67h-8.84v2.79h4.88a28.78,28.78,0,0,0,3.79-.23A9.16,9.16,0,0,0,255,766v2a11.52,11.52,0,0,1-2.7.66,28.62,28.62,0,0,1-3.9.25h-7.08v-6.72Zm-8,8.71h17.62v6.55h-2.42v-4.51h-15.2Zm17.62-13.94v12.81h-2.38v-6.5H253.8V761h3.55v-4.12Z"/><path class="cls-3" d="M276,757h2.23v20H276v-9.33h-2.72a14.57,14.57,0,0,1-1.29,6.61,3.9,3.9,0,0,1-7-.19c-.81-1.55-1.21-4-1.21-7.22s.4-5.66,1.21-7.21a3.82,3.82,0,0,1,3.57-2.31,3.72,3.72,0,0,1,3.37,2,13.12,13.12,0,0,1,1.36,6.1H276Zm-5.59,15.45a25.29,25.29,0,0,0,0-11.13c-.4-1.2-1-1.8-1.88-1.8s-1.48.6-1.9,1.8a25.29,25.29,0,0,0,0,11.13c.42,1.2,1,1.8,1.9,1.8S270,773.68,270.44,772.48Zm12.79-15.57V777.4H281V756.91Z"/><path class="cls-3" d="M294.58,765.14l6.41,9.79-2,1.3-5.11-8.07a14.68,14.68,0,0,1-2.88,5.75,6.21,6.21,0,0,1-4.22,2.27v-2.43a4.72,4.72,0,0,0,3.25-2.54,17.81,17.81,0,0,0,2-5.82,43.13,43.13,0,0,0,.71-8l2.43.1A45.85,45.85,0,0,1,294.58,765.14Zm11.32-8.23V777.4h-2.37V766.55h-5.28v-2.23h5.28v-7.41Z"/><path class="cls-3" d="M322.39,768.47h-12V757.41h12ZM313.51,775H328.8v2.16H311.11v-6.65h2.4ZM320,759.47h-7.27v6.94H320Zm11.09,2.31v2.28h-2.88v8.06h-2.38V756.91h2.38v4.87Z"/><path class="cls-3" d="M343.57,767.13a9.44,9.44,0,0,1-3.78,1.25v-2.07a6.42,6.42,0,0,0,3.76-1.83,6.68,6.68,0,0,0,1.83-3.69H340v-2h5.42v-2.25h2.4v2.25h5.35v2h-5.37a9.17,9.17,0,0,1-.51,2l6.24,3.62-1.12,1.8-6.08-3.6A8.75,8.75,0,0,1,343.57,767.13Zm7,5.93,8.23,2.4-.62,2-8.95-2.86a10.47,10.47,0,0,1-3.79,1.91,17.29,17.29,0,0,1-4.83.66v-2a13.23,13.23,0,0,0,5-.9,5.49,5.49,0,0,0,3-2.46h-7.78v-1.9h17.45v1.9h-7.13A7.22,7.22,0,0,1,350.59,773.06Zm10.35-11.62v2.28h-2.88v5h-2.38V756.91h2.38v4.53Z"/><path class="cls-3" d="M372.55,758.43a6.78,6.78,0,0,1,2.14,3.18,18.66,18.66,0,0,1,0,10.61,6.78,6.78,0,0,1-2.14,3.18A5.37,5.37,0,0,1,364.9,774c-1.11-1.6-1.66-4-1.66-7.13s.55-5.52,1.66-7.12a5.15,5.15,0,0,1,4.46-2.4A5.07,5.07,0,0,1,372.55,758.43Zm-.49,14a15.53,15.53,0,0,0,0-11.07,2.93,2.93,0,0,0-5.42,0,15.53,15.53,0,0,0,0,11.07,2.93,2.93,0,0,0,5.42,0Zm12-5h-2.88v9.91h-2.37V756.91h2.37v8.3H384Z"/><path class="cls-3" d="M406.15,766v1.85H385.68V766h9.05v-1.8h-7.59V757h2.33v1.77h12.87V757h2.32v7.17H397.1V766Zm-16.73,9.41H405.1v1.75h-18v-4.77h15.31V771H387.05v-1.75h17.69v4.78H389.42Zm.05-13h12.87v-1.82H389.47Z"/><path class="cls-3" d="M436,772.15h-9v5.73h-2.42v-5.73h-9v-2.21H436Zm-14.7-5.74a11.26,11.26,0,0,1-5.29,1.37v-2.26a8.39,8.39,0,0,0,4.19-1.16,10.84,10.84,0,0,0,3.44-3.18,11.12,11.12,0,0,0,1.85-4.42l2.45.39a14,14,0,0,1-1.25,3.74l8.78,4.87-1.1,2-8.83-5A12.72,12.72,0,0,1,421.26,766.41Z"/><path class="cls-3" d="M457.63,765.23a5.27,5.27,0,0,1-2.24,1.88,8.89,8.89,0,0,1-6.77,0,5.21,5.21,0,0,1-2.24-1.88,5.21,5.21,0,0,1,0-5.55,5.17,5.17,0,0,1,2.24-1.89,8.89,8.89,0,0,1,6.77,0,5.22,5.22,0,0,1,2.24,1.89,5.27,5.27,0,0,1,0,5.55Zm7,12L460.73,774a7.3,7.3,0,0,1-2.27,2.26,6,6,0,0,1-2.85.93l-3.47-3.07a7.82,7.82,0,0,1-2.28,2.17,6.2,6.2,0,0,1-2.79.9V775a3.71,3.71,0,0,0,2.1-1,6.8,6.8,0,0,0,1.65-2.2,8,8,0,0,0,.76-2.9l2.31.31a10.55,10.55,0,0,1-.77,3l3.14,2.59a4.13,4.13,0,0,0,1.78-1.15,7,7,0,0,0,1.34-2.12,8.16,8.16,0,0,0,.63-2.66l2.3.34a10.67,10.67,0,0,1-.65,2.85l4.42,3.43Zm-15.59-12.32a4.57,4.57,0,0,0,2.95.9,4.48,4.48,0,0,0,2.91-.9,3.26,3.26,0,0,0,0-4.92,4.48,4.48,0,0,0-2.91-.9,4.57,4.57,0,0,0-2.95.9,3.28,3.28,0,0,0,0,4.92Zm15.35,3.4h-2.37v-11.4h2.37Z"/><path class="cls-3" d="M468.38,767.11h20.48v2.11H468.38ZM469.8,771h2.42v4H487.8v2.11h-18Zm.05-14.13h2.4v5.83h15.33v2.11H469.85Z"/><path class="cls-3" d="M125.76,800.43a8.25,8.25,0,0,1-3.91,1.05v-3.67a4.61,4.61,0,0,0,3.28-1.64,6.84,6.84,0,0,0,1.57-3.57h-4.56v-3.45h13v3.45h-4.41a8.8,8.8,0,0,1-.36,1.92l5.66,3.91-2.28,2.88-5-3.57A9.7,9.7,0,0,1,125.76,800.43Zm15.94,5.35v3.62H123.07v-7.17h4.13v3.55Zm-4.35-12.51v-4.36h4.06V804.1h-4.06v-7.3h-2.73v-3.53Z"/><path class="cls-3" d="M165.31,797.86v3.07H144.58v-3.07h3.81V796q-2.8-1.08-2.8-3.24c0-1.41.84-2.45,2.53-3.13a23.34,23.34,0,0,1,13.65,0c1.69.68,2.54,1.72,2.54,3.13s-.94,2.52-2.81,3.24v1.9Zm-1,7.77q0,4-9.36,4t-9.36-4q0-4,9.36-4T164.31,805.63Zm-13.07-13.75c-.89.19-1.33.47-1.33.84s.44.67,1.32.85a24.85,24.85,0,0,0,7.44,0c.88-.18,1.32-.46,1.32-.85s-.45-.65-1.34-.84a23.81,23.81,0,0,0-7.41,0ZM160,805.63q0-1-5-1t-5,1q0,1,5,1T160,805.63Zm-7.59-7.77h5.09v-1.08c-.7.06-1.55.09-2.54.09s-1.84,0-2.55-.09Z"/><path class="cls-3" d="M178.47,798.94a9.38,9.38,0,0,1-4.08,1.15v-3.62a5.41,5.41,0,0,0,2.82-1.19,6.82,6.82,0,0,0,1.9-2.63,9.28,9.28,0,0,0,.72-3.65l4.08.24a11.68,11.68,0,0,1-.64,3.87l5.56,3.52-2.06,2.93-5.14-3.38A10,10,0,0,1,178.47,798.94Zm12.84,2.63a3.68,3.68,0,0,1,0,7,21.26,21.26,0,0,1-13.44,0,3.68,3.68,0,0,1,0-7,21.08,21.08,0,0,1,13.44,0Zm-3.18,4.51c.88-.22,1.33-.56,1.33-1s-.45-.79-1.35-1a18.44,18.44,0,0,0-7.05,0c-.9.22-1.35.56-1.35,1s.45.8,1.34,1a19.74,19.74,0,0,0,7.08,0Zm7.9-14v3.86h-2.4v4.28h-4V788.91h4v3.14Z"/><path class="cls-3" d="M209.86,801.15v1.08H217v7.17H198.67v-7.17h7.16v-1.08h-8.36v-3.08h20.74v3.08Zm7.29-4H198.53v-3h3.14V792h-2.92v-3h18.19v3H214v2.14h3.14ZM213,805.2H202.68v1.23H213Zm-7.29-11.11H210V792h-4.27Z"/><path class="cls-3" d="M229.32,804.65a22,22,0,0,0,3-.2,8.75,8.75,0,0,0,2.34-.62v3.8a9.2,9.2,0,0,1-2.33.61,22.43,22.43,0,0,1-3.05.2h-8.69v-3.79h2.62v-7.42h4.08v7.42Zm-.09-11.38h-8v-3.76h12.12v12.81h-4.08Zm13,6.87h-2.35v9.26H235.8V788.91h4.06v7.29h2.35Z"/><path class="cls-3" d="M264.19,793h-14v-2.92h4.94v-1.56h4.13v1.56h4.94Zm-11.46,6.84a2.91,2.91,0,0,1,0-5.37,9.35,9.35,0,0,1,4.46-1,9.22,9.22,0,0,1,4.43,1,2.92,2.92,0,0,1,0,5.37,9.22,9.22,0,0,1-4.43,1A9.35,9.35,0,0,1,252.73,799.87Zm13,1.35h3.94v8.18h-18.1v-8.18h3.94v1.15h10.22Zm-10.27-4.69c-.43.15-.65.37-.65.66s.22.5.65.66a7.27,7.27,0,0,0,3.55,0c.43-.16.65-.38.65-.66s-.22-.51-.65-.66a7,7,0,0,0-3.55,0Zm10.27,9.85v-1.15H255.46v1.15Zm6.34-10.2h-2.4v4.32h-4.06V788.91h4.06v3.48H272Z"/><path class="cls-3" d="M286.25,800.67H278.4v4.12h4.44a15.89,15.89,0,0,0,2.9-.27,10.75,10.75,0,0,0,2.41-.71v3.65a9.34,9.34,0,0,1-2.42.72,18.23,18.23,0,0,1-3.06.26h-8.3V797.07h7.85v-4h-7.9v-3.64h11.93Zm7,8.73h-4V788.91h4Z"/><path class="cls-3" d="M300.79,800.05a8.42,8.42,0,0,1-3.89,1V797.4a4.77,4.77,0,0,0,2.36-.78,5.28,5.28,0,0,0,1.66-1.76,6,6,0,0,0,.81-2.31h-4.54v-3.4h13.06v3.4h-4.42a8.47,8.47,0,0,1-.36,1.83l5.6,3.57-2.14,2.93-5.11-3.36A9.37,9.37,0,0,1,300.79,800.05Zm-2.78,2h18.43v7.58h-4.13v-4.1H298Zm18.43-13.15v12.43h-4.06v-4.71h-2.71v-3.48h2.71v-4.24Z"/><path class="cls-3" d="M329.82,789.7a5.73,5.73,0,0,1,2.38,2.16,6.54,6.54,0,0,1,0,6.45,5.64,5.64,0,0,1-2.38,2.15,8.51,8.51,0,0,1-7,0,5.64,5.64,0,0,1-2.38-2.15,6.54,6.54,0,0,1,0-6.45,5.73,5.73,0,0,1,2.38-2.16,8.41,8.41,0,0,1,7,0Zm-4.33,16h14.25v3.65H321.36v-7.17h4.13Zm-1.14-12.7a2.76,2.76,0,0,0,1.95,4.78,2.76,2.76,0,1,0-1.95-4.78Zm15.11,11H335.4V788.91h4.06Z"/><path class="cls-3" d="M350,789.39h11.59v5.54a16.85,16.85,0,0,1-1.42,7.18,10.73,10.73,0,0,1-4,4.69,11.33,11.33,0,0,1-6.14,1.64V804.6a6.54,6.54,0,0,0,5.55-2.57,11.61,11.61,0,0,0,1.91-7.1v-1.85H350Zm21.07,10.94h-2.4v9.07h-4.06V788.91h4.06v7.48h2.4Z"/><path class="cls-3" d="M381.82,798.59a16,16,0,0,1-8.81,2.15v-3.53a13.12,13.12,0,0,0,5.82-1.16,3.45,3.45,0,0,0,2.15-3.14v-.31h-8v-3.45H385.1v3A7.21,7.21,0,0,1,381.82,798.59Zm-7.8,3.23h18.43v7.82h-4.13V805.3H374Zm18.43-12.91V801.1h-4v-1.63h-3.17v-3.53h3.17v-1.66h-2.38v-3.53h2.38v-1.84Z"/><path class="cls-3" d="M416.35,799.92H395.62V797h20.73Zm-3.55-10.44c1.66.61,2.5,1.59,2.5,2.95s-.84,2.35-2.5,3a26,26,0,0,1-13.63,0c-1.67-.61-2.5-1.6-2.5-3s.83-2.34,2.5-2.95a26,26,0,0,1,13.63,0Zm2.35,16.59H400.8v.69h14.57v2.64H396.84V804h14.35v-.69h-14.4v-2.55h18.36Zm-12.86-14.36q-1.32.24-1.32.72,0,1,5,1c3.35,0,5-.32,5-1q0-.48-1.32-.72a28.56,28.56,0,0,0-7.39,0Z"/><path class="cls-3" d="M434.57,798.22l5.95,7.73-3.22,2.4-4.12-5.62a11,11,0,0,1-3.16,4.21,6.8,6.8,0,0,1-4.24,1.5v-4.08a3.9,3.9,0,0,0,2.64-1.59,10.65,10.65,0,0,0,1.83-3.93,24.68,24.68,0,0,0,.74-5.73h-4.63v-3.72h13.1v3.72h-4.39A33.15,33.15,0,0,1,434.57,798.22Zm10.68-9.31V809.4h-4.06V788.91Z"/><path class="cls-3" d="M469.25,798.46v3.24H448.51v-3.24h8.35v-2.4h4v2.4Zm-10.47-4.54a12.94,12.94,0,0,1-4.29,2.5,16.39,16.39,0,0,1-5.38,1V794a11.65,11.65,0,0,0,3.83-.76,8.69,8.69,0,0,0,3.05-2,5.54,5.54,0,0,0,1.55-2.95l4.1.67a8,8,0,0,1-.77,2.23l8.19,3.15-1.47,3.09Zm-9.16,8.83h18.43v6.89h-4.11V806H449.62Z"/><path class="cls-3" d="M475.85,800.05a8.45,8.45,0,0,1-3.89,1V797.4a4.73,4.73,0,0,0,2.35-.78,5.21,5.21,0,0,0,1.67-1.76,6.18,6.18,0,0,0,.8-2.31h-4.53v-3.4H485.3v3.4h-4.41a8.47,8.47,0,0,1-.36,1.83l5.59,3.57L484,800.88l-5.11-3.36A9.44,9.44,0,0,1,475.85,800.05Zm-2.79,2H491.5v7.58h-4.13v-4.1H473.06Zm18.44-13.15v12.43h-4.06v-4.71h-2.71v-3.48h2.71v-4.24Z"/><path class="cls-3" d="M515.42,808.68H494.69v-3.79h20.73Zm-5.35-18.75a7.58,7.58,0,0,1,3.34,2.38,5.91,5.91,0,0,1,0,7.06,7.68,7.68,0,0,1-3.34,2.39,15.22,15.22,0,0,1-10,0,7.68,7.68,0,0,1-3.34-2.39,5.91,5.91,0,0,1,0-7.06,7.58,7.58,0,0,1,3.34-2.38,15.05,15.05,0,0,1,10,0Zm-7.74,3.2a4.33,4.33,0,0,0-1.85,1.09,2.32,2.32,0,0,0,0,3.24,4.24,4.24,0,0,0,1.85,1.09,9.72,9.72,0,0,0,5.45,0,4.24,4.24,0,0,0,1.85-1.09,2.32,2.32,0,0,0,0-3.24,4.33,4.33,0,0,0-1.85-1.09,10,10,0,0,0-5.45,0Z"/><path class="cls-3" d="M538.51,805v3.69H517.78V805h8.3v-2.31h-7.15v-8.35h14.45v-1.39h-14.5v-3.55h18.5v8.32H522.94v1.42h14.68v3.55h-7.41V805Z"/><path class="cls-3" d="M165.31,835.83h-8.4v6h-4.2v-6h-8.13v-3.76h20.73Zm-5.4-10.92H145.73v-3.76h18.38v9.69h-4.2Z"/><path class="cls-3" d="M180.05,833.91v1.18h7.15v6.55h-4.1v-3.38H168.77v-3.17H176v-1.18h-8.36V830.7H188.4v3.21Zm-2.57-6a15.17,15.17,0,0,1-4.1,1.57,23.87,23.87,0,0,1-5,.61v-3.14a19.71,19.71,0,0,0,4.38-.58,7.12,7.12,0,0,0,3-1.42h-7.06v-3.09H176v-1.73h4.13v1.73h7.25v3.09h-7l-.21.46,7.75,1.73-1,3Z"/><path class="cls-3" d="M199.2,824.15h5.45v2.11h-13.3v-2.11h5.43v-3.29h2.42Zm1.75,4.52a5.28,5.28,0,0,1,2,2.21,7.81,7.81,0,0,1,0,6.55,5.28,5.28,0,0,1-2,2.21,6,6,0,0,1-5.9,0,5.43,5.43,0,0,1-2-2.21,7.71,7.71,0,0,1,0-6.55,5.43,5.43,0,0,1,2-2.21,6,6,0,0,1,5.9,0Zm-1.22,9.18a3.46,3.46,0,0,0,1.21-1.46,5.9,5.9,0,0,0,0-4.47,3.4,3.4,0,0,0-1.21-1.46,3.2,3.2,0,0,0-4.18.63,5.36,5.36,0,0,0,0,6.12,3.22,3.22,0,0,0,4.18.64Zm12.6-6.36h-2.88v9.91h-2.38V820.91h2.38v8.3h2.88Z"/><path class="cls-3" d="M225.24,823.79q1.63,2.4,1.63,7.12c0,3.16-.54,5.53-1.63,7.13a5.29,5.29,0,0,1-8.86,0c-1.08-1.6-1.63-4-1.63-7.13s.55-5.52,1.63-7.12a5.29,5.29,0,0,1,8.86,0Zm-1.74,12.67a15.85,15.85,0,0,0,0-11.08,3,3,0,0,0-2.68-1.81,3,3,0,0,0-2.71,1.81,15.85,15.85,0,0,0,0,11.08,3,3,0,0,0,2.71,1.8A3,3,0,0,0,223.5,836.46Zm9.78-15.55V841.4h-2.35v-5.71h-3.46l.17-2.23h3.29v-5.19h-3.29l-.17-2.23h3.46v-5.13Z"/><path class="cls-3" d="M254.23,821.51h2.35v18.67H245V821.51h2.35v7h6.91Zm0,16.48v-7.24h-6.91V838Zm8.69-17.08V841.4h-2.38V820.91Z"/><path class="cls-3" d="M287.35,838.23v2.19H266.88v-2.19h4V830h2.38v8.23h4V830h2.4v8.23Zm-3.74-14.4H268.1v-2.2H286v13.53h-2.42Z"/><path class="cls-3" d="M308.09,831.56v1.73h7.65v4.78H300.43v1.34H316.1v1.75h-18v-4.77h15.32V835H298.06v-1.75h7.68v-1.73h-9.05v-1.85h20.47v1.85Zm7.58-3.36H298.15V821h2.33v1.77h12.86V821h2.33Zm-2.33-1.8v-1.82H300.48v1.82Z"/><path class="cls-3" d="M320.52,821.65h11.16v4.94a17.66,17.66,0,0,1-1.34,7.12,10.74,10.74,0,0,1-3.87,4.74,10.47,10.47,0,0,1-6,1.68v-2.26a8,8,0,0,0,4.72-1.38,8.59,8.59,0,0,0,3-3.9,15.59,15.59,0,0,0,1-6v-2.81h-8.74Zm20.69,9.84h-2.88v9.91H336V820.91h2.38v8.3h2.88Z"/><path class="cls-3" d="M356.71,824.79H342.79v-1.94h5.76v-2.3H351v2.3h5.76Zm-10.07,9.06a4.79,4.79,0,0,1-2.17-1.45,3.61,3.61,0,0,1,0-4.51,4.87,4.87,0,0,1,2.17-1.45,9.18,9.18,0,0,1,3.11-.49,9.09,9.09,0,0,1,3.1.49,5,5,0,0,1,2.16,1.44,3.64,3.64,0,0,1,0,4.53,4.79,4.79,0,0,1-2.16,1.44,9.08,9.08,0,0,1-3.1.5A9.18,9.18,0,0,1,346.64,833.85Zm0,5.18H362v2.11H344.28v-5.62h2.4Zm.34-10.59a2,2,0,0,0-1,1.71,2,2,0,0,0,1,1.71,5,5,0,0,0,2.73.66,5,5,0,0,0,2.74-.66,2,2,0,0,0,1-1.71,2,2,0,0,0-1-1.71,4.94,4.94,0,0,0-2.74-.67A4.88,4.88,0,0,0,347,828.44Zm17.28-1.92v2.28h-2.88v7.47H359V820.91h2.38v5.61Z"/><path class="cls-3" d="M385.37,832h-12V821.41h12Zm-1.59,3.79,8.38,3.53-.94,2.06-8.69-3.89a10.86,10.86,0,0,1-3.89,2.66,13.08,13.08,0,0,1-4.82,1v-2.23a10.19,10.19,0,0,0,3.72-.74,8.61,8.61,0,0,0,3-2,6.33,6.33,0,0,0,1.67-3l2.4.43A9.21,9.21,0,0,1,383.78,835.81ZM383,823.45h-7.28V830H383Zm11.08,2.06v2.28h-2.88V835h-2.37v-14h2.37v4.6Z"/><path class="cls-3" d="M403.56,838a18.5,18.5,0,0,0,6.72-.87v2.23a18.89,18.89,0,0,1-6.7.87h-7.82V838h3.58v-8.69h2.4V838Zm2.28-14H396.5V821.7h11.74v13h-2.4Zm11.35,7.39h-2.83v10.1H412V820.91h2.38V829h2.83Z"/><path class="cls-3" d="M426.31,821.65h11.16v4.94a17.66,17.66,0,0,1-1.34,7.12,10.74,10.74,0,0,1-3.87,4.74,10.47,10.47,0,0,1-5.95,1.68v-2.26a8,8,0,0,0,4.72-1.38,8.59,8.59,0,0,0,3-3.9,15.59,15.59,0,0,0,1-6v-2.81h-8.74ZM447,831.49h-2.88v9.91h-2.38V820.91h2.38v8.3H447Z"/><path class="cls-3" d="M457.89,830.29c-2.06,1.42-4.92,2.14-8.59,2.14v-2.12a13,13,0,0,0,6.85-1.54,5,5,0,0,0,2.44-4.55v-.75H449.3v-2.06H461v2.42A7.31,7.31,0,0,1,457.89,830.29Zm-7.58,4h17.57v7.13h-2.4v-5.06H450.31ZM468,820.91v12.24h-2.38v-2.48h-4.36v-2.11h4.36v-3.07H462v-2.11h3.57v-2.47Z"/><path class="cls-3" d="M471.74,838.19h20.47v2.23H471.74Zm5.38-4.65a7.17,7.17,0,0,1-3.23-2.28,5.7,5.7,0,0,1,0-6.84,7.33,7.33,0,0,1,3.23-2.28,15.07,15.07,0,0,1,9.69,0,7.27,7.27,0,0,1,3.23,2.28,5.7,5.7,0,0,1,0,6.84,7.12,7.12,0,0,1-3.23,2.28,14.9,14.9,0,0,1-9.69,0Zm8.36-1.89a5.38,5.38,0,0,0,2.37-1.54,3.49,3.49,0,0,0,0-4.54,5.36,5.36,0,0,0-2.37-1.53,11.71,11.71,0,0,0-7,0,5.33,5.33,0,0,0-2.36,1.53,3.49,3.49,0,0,0,0,4.54,5.34,5.34,0,0,0,2.36,1.54,11.71,11.71,0,0,0,7,0Z"/><path class="cls-3" d="M515.3,838.23v2.19H494.83v-2.19h9v-3.86H496.2V827h15.41v-3.22H496.2v-2.11H514V829H498.57v3.24h15.7v2.11h-8v3.86Z"/><path class="cls-3" d="M191.81,870a16,16,0,0,0,2.92-.26,10.14,10.14,0,0,0,2.38-.7v2.16a8.52,8.52,0,0,1-2.38.72,16.71,16.71,0,0,1-3,.27h-8.07V853.65h11.84v2.18h-9.46v5.84h9.1v2.18h-9.1V870Zm12.34-6.5h-2.88v9.91h-2.38V852.91h2.38v8.3h2.88Z"/><path class="cls-3" d="M233,870.19v2.23H212.52v-2.23ZM231.62,866H213.86V853.51h2.36v4h13.05v-4h2.35Zm-2.35-2.13v-4.25H216.22v4.25Z"/><path class="cls-3" d="M240.29,865.72h-4.06v-7.17h6.46v-3.12h-6.46v-2h8.69v7.08h-6.46v3.22h2a15.55,15.55,0,0,0,5.61-.75v2A16.34,16.34,0,0,1,240.29,865.72ZM255.82,871v2.11H237.53v-5.88h2.4V871Zm-6.1-2.64h-2.26V853h2.26v5.32h3.34v-5.44h2.25v15.84h-2.25v-8.24h-3.34Z"/><path class="cls-3" d="M258.7,870.19h20.47v2.23H258.7ZM260,853.65h17.78v2.21H262.46v7.68h15.61v2.21H260Z"/><path class="cls-3" d="M289.68,870a18,18,0,0,0,6.62-.87v2.23a18.83,18.83,0,0,1-6.69.87h-7.83V870h5.55v-4a5.83,5.83,0,0,1-3.65-2.08,6.32,6.32,0,0,1-1.39-4.16,6.77,6.77,0,0,1,.79-3.3,5.66,5.66,0,0,1,2.21-2.26,6.84,6.84,0,0,1,6.42,0A5.79,5.79,0,0,1,294,856.4a6.57,6.57,0,0,1,.82,3.3,6.7,6.7,0,0,1-.65,3,5.84,5.84,0,0,1-1.8,2.19,6.08,6.08,0,0,1-2.64,1.09Zm-4-7.24a3.62,3.62,0,0,0,2.83,1.19,3.94,3.94,0,0,0,2.06-.55,3.78,3.78,0,0,0,1.39-1.52,4.58,4.58,0,0,0,.49-2.13,4.64,4.64,0,0,0-.49-2.16,3.73,3.73,0,0,0-1.38-1.51,3.82,3.82,0,0,0-2.07-.56,3.62,3.62,0,0,0-2.83,1.19,4.88,4.88,0,0,0,0,6.05Zm17.55.59h-2.84v10.1H298V852.91h2.37V861h2.84Z"/><path class="cls-3" d="M304.87,870h8.38a29.4,29.4,0,0,0,3.93-.24A9.63,9.63,0,0,0,320,869v2.2a10.77,10.77,0,0,1-2.83.72,27.44,27.44,0,0,1-4,.27h-8.23Zm3.77-4.52a5.79,5.79,0,0,1-2.26-2.29,7.31,7.31,0,0,1,0-6.69,5.88,5.88,0,0,1,2.26-2.3,7,7,0,0,1,6.53,0,5.79,5.79,0,0,1,2.25,2.3,7.23,7.23,0,0,1,0,6.69,5.7,5.7,0,0,1-2.25,2.29,6.91,6.91,0,0,1-6.53,0Zm5.36-1.9a4,4,0,0,0,1.41-1.54,5.09,5.09,0,0,0,0-4.4A3.8,3.8,0,0,0,314,856a3.85,3.85,0,0,0-2.09-.57,3.9,3.9,0,0,0-2.11.57,3.69,3.69,0,0,0-1.4,1.55,4.81,4.81,0,0,0-.49,2.2,4.4,4.4,0,0,0,1.1,3.09,3.73,3.73,0,0,0,2.9,1.21A3.92,3.92,0,0,0,314,863.53Zm7.7-10.62h2.37V873.4H321.7Z"/><path class="cls-3" d="M342.62,863l6.48,7.66-1.72,1.53-5.5-6.62A11.82,11.82,0,0,1,339,870.2a7,7,0,0,1-4.1,2v-2.33a5,5,0,0,0,3-1.87,11.64,11.64,0,0,0,2-4.07,24.16,24.16,0,0,0,.88-5.63h-5.5v-2.21h5.5v-3.36h2.42v3.36h5.23v2.21h-5.25A28,28,0,0,1,342.62,863Zm13.49.53h-2.88v9.91h-2.37V852.91h2.37v8.3h2.88Z"/><path class="cls-3" d="M370.3,862.43H358.61v-9.16h2.33v2.54H368v-2.54h2.31Zm7.27,8.86v1.85H359.62v-5.31h15.09v-1.68H359.57v-1.84h17.49v5.28H362v1.7ZM368,860.51v-2.8h-7.05v2.8Zm6.7.34h-3.34v-2h3.34v-2.16h-3.34v-2h3.34v-1.84h2.37v10.27h-2.37Z"/><path class="cls-3" d="M394.66,857.37h-13.9v-2.09h5.74v-2.59h2.42v2.59h5.74Zm-5.76,12.7a17.67,17.67,0,0,0,6.48-.92v2.16a9.57,9.57,0,0,1-2.73.65,31.61,31.61,0,0,1-4,.22h-7.82v-2.11h5.66V867a6.18,6.18,0,0,1-3.44-1.33,3.56,3.56,0,0,1-1.26-2.82,3.6,3.6,0,0,1,1.6-3.11,8.76,8.76,0,0,1,8.64,0,3.8,3.8,0,0,1,.34,5.94,6.29,6.29,0,0,1-3.5,1.34ZM385,864.51a6.08,6.08,0,0,0,5.43,0,1.9,1.9,0,0,0,1-1.64,1.93,1.93,0,0,0-1-1.66,6,6,0,0,0-5.43,0,1.93,1.93,0,0,0-1,1.66A1.9,1.9,0,0,0,385,864.51Zm17.26-1.21h-2.83v10.1h-2.38V852.91h2.38V861h2.83Z"/><path class="cls-3" d="M403.94,862.34h20.48v1.73H403.94Zm1.42,6.21H420.7v-1.32H405.31v-1.68H423v4.59H407.66v1.34h15.7v1.68h-18Zm.07-12.33h15.22v-1.39H405.43v-1.68H423v4.65H407.74v1.37h15.5v1.68H405.43Z"/><path class="cls-3" d="M454.22,863.44v1.85H433.75v-1.85h9.05v-1.82h-7.56v-8.47h17.62v1.77H437.61v1.61h14.91v1.7H437.61v1.61h15.44v1.78h-7.9v1.82Zm-3.74,4.06c1.66.54,2.5,1.4,2.5,2.57s-.84,2-2.51,2.58a26.13,26.13,0,0,1-13,0c-1.67-.56-2.5-1.42-2.5-2.58s.83-2,2.49-2.57a26.21,26.21,0,0,1,13,0Zm-1.87,3.79c1.25-.27,1.87-.68,1.87-1.22s-.63-1-1.88-1.23a26.23,26.23,0,0,0-9.24,0q-1.89.4-1.89,1.23c0,.54.63.95,1.87,1.22a26.4,26.4,0,0,0,9.27,0Z"/><path class="cls-3" d="M463,856.1h4.3v2.13H456.38V856.1h4.3v-3.24H463Zm1.39,4.47a4.8,4.8,0,0,1,1.69,2.15,9.69,9.69,0,0,1,0,6.82,4.8,4.8,0,0,1-1.69,2.15,4.35,4.35,0,0,1-2.47.73,4.29,4.29,0,0,1-2.46-.73,4.92,4.92,0,0,1-1.68-2.15,9.84,9.84,0,0,1,0-6.82,4.92,4.92,0,0,1,1.68-2.15,4.29,4.29,0,0,1,2.46-.73A4.35,4.35,0,0,1,464.42,860.57Zm-.6,8.64a6.95,6.95,0,0,0,0-6.16,2.14,2.14,0,0,0-1.87-1.12,2.12,2.12,0,0,0-1.84,1.12,7.13,7.13,0,0,0,0,6.16,2.12,2.12,0,0,0,1.84,1.12A2.14,2.14,0,0,0,463.82,869.21Zm12.72-16.3V873.4h-2.2v-10h-3.29V873h-2.21V853h2.21v8.13h3.29v-8.25Z"/><path class="cls-3" d="M235.06,893.63c-2.06,1.3-4.93,2-8.61,2v-2.07a14.16,14.16,0,0,0,6.86-1.4,4.42,4.42,0,0,0,2.43-4.07v-.62h-9.29v-2h11.69v2.23A6.61,6.61,0,0,1,235.06,893.63Zm7.87,4.3a3.34,3.34,0,0,1,0,6.44,20.77,20.77,0,0,1-12.92,0,3.34,3.34,0,0,1,0-6.44,21,21,0,0,1,12.94,0Zm-1.86,4.94c1.2-.38,1.8-1,1.8-1.72s-.6-1.34-1.8-1.71a18.93,18.93,0,0,0-9.22,0c-1.2.37-1.8.95-1.8,1.71s.6,1.34,1.8,1.72a19.26,19.26,0,0,0,9.22,0Zm1.66-8.87h-4.37v-2.09h4.37V889.2h-3.58v-2.09h3.58v-2.2h2.37v11.32h-2.37Z"/><path class="cls-3" d="M252.23,894.76a6.81,6.81,0,0,1-3.31,1.33V894a4.37,4.37,0,0,0,3.06-2.17,9.65,9.65,0,0,0,1.18-4.36h-3.93v-2h9.84v2h-3.63a12.2,12.2,0,0,1-.33,2.42l4.87,4.37-1.46,1.51L254.39,892A7.47,7.47,0,0,1,252.23,894.76Zm14.16,3.49c1.68.64,2.52,1.67,2.52,3.1s-.84,2.45-2.52,3.09a23,23,0,0,1-13.15,0q-2.52-1-2.52-3.09c0-1.43.84-2.46,2.52-3.1a23,23,0,0,1,13.15,0Zm-1.89,4.69q1.89-.51,1.89-1.59c0-.72-.63-1.26-1.89-1.6a21.41,21.41,0,0,0-9.38,0c-1.26.34-1.88.88-1.88,1.6s.62,1.25,1.88,1.59a21.41,21.41,0,0,0,9.38,0Zm-1.5-6.73h-2.25V885H263v4h3.34v-4.1h2.26v12h-2.26v-5.69H263Z"/><path class="cls-3" d="M281.39,890.14V887.4h-8.62v-2h11v6.67h-8.57v2.79h4.61a31.61,31.61,0,0,0,3.84-.21,9.75,9.75,0,0,0,2.62-.59v2a11.46,11.46,0,0,1-2.69.57,31.67,31.67,0,0,1-3.94.22h-6.79v-6.72Zm-7.73,8.71h17.62v6.55h-2.43v-4.51H273.66Zm17.62-13.94v12.81h-2.36V893h-3.74v-2h3.74v-1.85h-3.74v-2h3.74v-2.23Z"/><path class="cls-3" d="M295.07,893.57h20.47v1.85H295.07Zm3.71-2.17q-2.49-.9-2.49-2.85t2.49-2.82a24,24,0,0,1,13,0c1.65.6,2.48,1.54,2.48,2.82s-.83,2.25-2.48,2.85a24,24,0,0,1-13,0Zm-2.29,8.87H311.8v-1.44H296.44v-1.78h17.68V902H298.81v1.44h15.68v1.77h-18ZM310,890c1.22-.32,1.82-.8,1.82-1.44s-.61-1.12-1.83-1.44a23.4,23.4,0,0,0-9.43,0c-1.23.32-1.84.8-1.84,1.44s.61,1.12,1.83,1.44a23.5,23.5,0,0,0,9.45,0Z"/><path class="cls-3" d="M334.1,893.57c-2.07,1.26-5,1.9-8.7,1.9V893.4a15,15,0,0,0,6.94-1.34,4.28,4.28,0,0,0,2.47-4v-.62H325.4v-2h11.81v2.23A6.43,6.43,0,0,1,334.1,893.57Zm1.79,7.1,8.35,2.69-.67,2-9-3.12a10.08,10.08,0,0,1-3.78,2.13,15.74,15.74,0,0,1-4.79.73v-2.07a11.8,11.8,0,0,0,5.06-1.05,5.61,5.61,0,0,0,3-2.86h-7.8v-2h17.45v2h-7.15A6,6,0,0,1,335.89,900.67Zm10.42-11.56v2.28h-2.88V896h-2.38V884.91h2.38v4.2Z"/><path class="cls-3" d="M368.44,894.53v1.87h-9.05v2H357v-2h-9v-1.87Zm-10.8-3.86a11.31,11.31,0,0,1-3.92,1.81,20.59,20.59,0,0,1-4.94.68v-1.87a16.66,16.66,0,0,0,5.21-.94,4.84,4.84,0,0,0,3.09-2.44h-7.92v-1.85H357v-2h2.42v2h7.8v1.85h-7.63a4.45,4.45,0,0,1-.55,1.27l8.64,2.23-.55,1.8Zm7,7.17H367v7.32H349.38v-7.32h2.35v1.8h12.94Zm0,5.5v-1.9H351.73v1.9Z"/><path class="cls-3" d="M372.23,885.53h2.42V902h6a16.08,16.08,0,0,0,2.91-.27,10.23,10.23,0,0,0,2.4-.73v2.18a9.74,9.74,0,0,1-2.38.73,15,15,0,0,1-2.93.28h-8.37Zm15.57-.62h2.38V905.4l-2.38,0Z"/><path class="cls-3" d="M403.24,902a15.92,15.92,0,0,0,2.91-.27,8.81,8.81,0,0,0,2.39-.72v2.16a8.54,8.54,0,0,1-2.41.72,17,17,0,0,1-3,.27h-8V885.65h11.83v2.16h-9.41V902Zm12.33-6.53h-2.88v9.91h-2.37V884.91h2.37v8.3h2.88Z"/><path class="cls-3" d="M417.79,904.72a1.64,1.64,0,0,1-.49-1.21,1.66,1.66,0,0,1,.49-1.22,1.68,1.68,0,0,1,1.21-.49,1.64,1.64,0,0,1,1.2.49,1.69,1.69,0,0,1,.48,1.22,1.67,1.67,0,0,1-.48,1.21,1.6,1.6,0,0,1-1.2.49A1.64,1.64,0,0,1,417.79,904.72Z"/><path class="cls-3" d="M237.31,704h10a13,13,0,0,1,5.77,1.18,8.57,8.57,0,0,1,3.7,3.33,9.63,9.63,0,0,1,1.28,5,9.8,9.8,0,0,1-1.28,5.08,8.53,8.53,0,0,1-3.7,3.34,13,13,0,0,1-5.77,1.18h-4.19v6.95h-5.83Zm9.76,14a5.76,5.76,0,0,0,3.83-1.15,4.11,4.11,0,0,0,1.36-3.3,4,4,0,0,0-1.36-3.26,5.87,5.87,0,0,0-3.83-1.12h-3.93V718Z"/><path class="cls-3" d="M261.22,704h11.32a9.83,9.83,0,0,1,6.68,2.08,7.14,7.14,0,0,1,2.38,5.69,5.19,5.19,0,0,1-.86,2.8,4.32,4.32,0,0,1-2.18,1.84,6.12,6.12,0,0,1,3.06,2.23,5.79,5.79,0,0,1,1.2,3.53,7.84,7.84,0,0,1-1.11,4.2,7.13,7.13,0,0,1-3.21,2.75,12,12,0,0,1-5,1H261.22Zm11.07,10.56a4,4,0,0,0,2.57-.72,2.48,2.48,0,0,0,.92-2.07,2.51,2.51,0,0,0-.92-2.09,4,4,0,0,0-2.57-.72H267v5.6Zm1,10.56a4.41,4.41,0,0,0,2.75-.77,2.88,2.88,0,0,0,0-4.35,4.41,4.41,0,0,0-2.75-.77H267v5.89Z"/><path class="cls-3" d="M299.9,716.55a12.5,12.5,0,0,1-5.44,1.54v-4.83a7.07,7.07,0,0,0,3.76-1.59,9,9,0,0,0,2.55-3.5,12.61,12.61,0,0,0,1-4.86l5.44.32a15.35,15.35,0,0,1-.87,5.15l7.43,4.7L311,717.39l-6.85-4.52A13,13,0,0,1,299.9,716.55ZM317,720.06q3.36,1.46,3.36,4.65T317,729.37a28.22,28.22,0,0,1-17.92,0q-3.36-1.46-3.36-4.66t3.36-4.65a28.22,28.22,0,0,1,17.92,0Zm-4.24,6c1.19-.28,1.78-.74,1.78-1.36s-.6-1-1.79-1.34a24.82,24.82,0,0,0-9.41,0c-1.2.3-1.79.75-1.79,1.34s.59,1.08,1.77,1.36a25.54,25.54,0,0,0,9.44,0Zm10.55-18.7v5.15h-3.2v5.7h-5.41v-15h5.41v4.19Z"/><path class="cls-3" d="M341.76,719.5v1.44h9.54v9.57H326.85v-9.57h9.53V719.5H325.25v-4.1H352.9v4.1Zm9.73-5.35H326.66v-4.06h4.19v-2.85h-3.91v-4.06H351.2v4.06h-3.9v2.85h4.19ZM346,724.91H332.19v1.63H346Zm-9.73-14.82h5.7v-2.85h-5.7Z"/><path class="cls-3" d="M365.38,703.82h12V712a24.46,24.46,0,0,1-1.62,9.44,13.05,13.05,0,0,1-4.34,5.81,10.6,10.6,0,0,1-6,2v-5.06a6.21,6.21,0,0,0,5-3.31c1.21-2,1.82-4.93,1.82-8.69v-3.49h-6.81Zm26.81-.64v27.33h-5.12V718.35h-2.46V730h-5.06V703.31h5.06v9.92h2.46V703.18Z"/><path class="cls-3" d="M413.06,716.3H396.38V703.5h5.25v2.24h6.18V703.5h5.25Zm-10.4,10.59h19.07v3.62H397.34v-8h18.79v-1.06H397.28v-3.62h24.16v8H402.66Zm5.15-14.78v-2.28h-6.18v2.28ZM424.64,707V712h-3.2v4.92H416V703.18h5.41V707Z"/><path class="cls-4" d="M321.51,583.89a2.65,2.65,0,0,1-2.6-2.13,8.77,8.77,0,0,0-2.78-5.27,29.66,29.66,0,0,1-2.26-2.66c-3.42-4.58-5.67-8.84-5.53-14.72.26-11.67,10.11-20.9,21.89-20.84a2.66,2.66,0,0,1,0,5.32h-.29a16,16,0,0,0-16.24,15.64c-.1,4.37,1.64,7.61,4.48,11.42a25.46,25.46,0,0,0,1.89,2.22,13.83,13.83,0,0,1,4.09,7.83,2.66,2.66,0,0,1-2.07,3.14A3.29,3.29,0,0,1,321.51,583.89Z"/><path class="cls-4" d="M338.49,583.89a3.17,3.17,0,0,1-.53,0,2.67,2.67,0,0,1-2.08-3.14,13.2,13.2,0,0,1,4.29-7.73,18.45,18.45,0,0,0,2.07-2.32c2.84-3.81,4.58-7,4.48-11.42a16,16,0,0,0-16.49-15.64h0a2.66,2.66,0,0,1,0-5.32h.32A21.52,21.52,0,0,1,352,559.11c.14,5.88-2.11,10.14-5.53,14.72a25,25,0,0,1-2.57,2.9,8,8,0,0,0-2.85,5A2.65,2.65,0,0,1,338.49,583.89Z"/><path class="cls-4" d="M321.79,583.9a2.66,2.66,0,0,1,0-5.32h16.64a2.69,2.69,0,0,1,2.69,2.6,2.64,2.64,0,0,1-2.52,2.72H321.79Z"/><path class="cls-4" d="M334.64,596.62h-4.45a2.66,2.66,0,1,1,0-5.32h2.95l2.69-4.44v-5.63a2.66,2.66,0,0,1,5.32,0v6.37a2.64,2.64,0,0,1-.38,1.37l-3.85,6.37A2.66,2.66,0,0,1,334.64,596.62Z"/><path class="cls-4" d="M341.11,560.37a2.65,2.65,0,0,1-2.6-2.16,7.48,7.48,0,0,0-3.73-5,2.66,2.66,0,0,1,2.64-4.62,12.78,12.78,0,0,1,6.31,8.56,2.66,2.66,0,0,1-2.11,3.12A2.94,2.94,0,0,1,341.11,560.37Z"/><path class="cls-4" d="M330,596.62h-4.26a2.66,2.66,0,0,1-2.22-1.19l-4.22-6.36a2.68,2.68,0,0,1-.45-1.47v-6.37a2.67,2.67,0,0,1,5.33,0v5.56l3,4.51H330a2.66,2.66,0,1,1,0,5.32Z"/><path class="cls-4" d="M330,662.74a2.66,2.66,0,0,1-2.66-2.66V619.77a2.66,2.66,0,1,1,5.32,0v40.31A2.66,2.66,0,0,1,330,662.74Z"/><path class="cls-4" d="M330,622.43a2.66,2.66,0,0,1-1.19-.28l-38.89-19.44a2.66,2.66,0,1,1,2.38-4.76l38.89,19.44a2.66,2.66,0,0,1-1.19,5Z"/><path class="cls-4" d="M316.16,641.88a2.69,2.69,0,0,1-1.19-.28l-38.89-19.45a2.68,2.68,0,0,1-1.39-1.73,2.66,2.66,0,0,1,.41-2.19l13.81-19.45a2.66,2.66,0,0,1,4.34,3.09l-12,16.91,34.08,17,12.48-17.59a2.66,2.66,0,1,1,4.34,3.08l-13.81,19.45A2.66,2.66,0,0,1,316.16,641.88Z"/><path class="cls-4" d="M343.48,642a2.66,2.66,0,0,1-2.2-1.15l-13.5-19.56a2.66,2.66,0,0,1,4.38-3l12.19,17.66,34.08-17-11.76-17a2.66,2.66,0,1,1,4.38-3l13.51,19.56a2.68,2.68,0,0,1-1,3.9l-38.9,19.44A2.62,2.62,0,0,1,343.48,642Z"/><path class="cls-4" d="M330,622.43a2.66,2.66,0,0,1-1.19-5L367.67,598a2.66,2.66,0,0,1,2.38,4.76l-38.89,19.44A2.66,2.66,0,0,1,330,622.43Z"/><path class="cls-4" d="M330,662.74a2.66,2.66,0,0,1-1.19-.28L289.89,643a2.66,2.66,0,0,1-1.47-2.38V627.9a2.66,2.66,0,0,1,5.32,0V639l37.42,18.71a2.66,2.66,0,0,1-1.19,5Z"/><path class="cls-4" d="M330,662.74a2.66,2.66,0,0,1-1.19-5L366.2,639V627.9a2.66,2.66,0,1,1,5.32,0v12.73a2.66,2.66,0,0,1-1.47,2.38l-38.89,19.45A2.66,2.66,0,0,1,330,662.74Z"/><path class="cls-4" d="M330,535.1a2.66,2.66,0,0,1-2.66-2.66V528.2a2.66,2.66,0,1,1,5.32,0v4.24A2.66,2.66,0,0,1,330,535.1Z"/><path class="cls-4" d="M310.5,543.18a2.65,2.65,0,0,1-1.88-.78l-3-3a2.66,2.66,0,0,1,3.76-3.76l3,3a2.66,2.66,0,0,1-1.88,4.54Z"/><path class="cls-4" d="M302.42,562.68h-4.24a2.66,2.66,0,0,1,0-5.32h4.24a2.66,2.66,0,1,1,0,5.32Z"/><path class="cls-4" d="M307.5,585.18a2.66,2.66,0,0,1-1.88-4.54l3-3a2.66,2.66,0,0,1,3.76,3.76l-3,3A2.65,2.65,0,0,1,307.5,585.18Z"/><path class="cls-4" d="M352.5,585.18a2.65,2.65,0,0,1-1.88-.78l-3-3a2.66,2.66,0,0,1,3.76-3.76l3,3a2.66,2.66,0,0,1-1.88,4.54Z"/><path class="cls-4" d="M361.82,562.68h-4.24a2.66,2.66,0,1,1,0-5.32h4.24a2.66,2.66,0,1,1,0,5.32Z"/><path class="cls-4" d="M349.5,543.18a2.66,2.66,0,0,1-1.88-4.54l3-3a2.66,2.66,0,0,1,3.76,3.76l-3,3A2.65,2.65,0,0,1,349.5,543.18Z"/><path class="cls-4" d="M291.08,603a2.66,2.66,0,0,1-1.19-5l21.92-11a2.67,2.67,0,0,1,2.38,4.77l-21.92,11A2.66,2.66,0,0,1,291.08,603Z"/><path class="cls-4" d="M291.07,603a2.61,2.61,0,0,1-1.58-.53l-17.6-13.08a2.67,2.67,0,0,1,.4-4.52L298.08,572a2.66,2.66,0,0,1,2.38,4.76l-21.92,11,14.12,10.5a2.66,2.66,0,0,1-1.59,4.8Z"/><path class="cls-4" d="M368.93,603a2.66,2.66,0,0,1-1.59-4.8l14.12-10.5-21.91-11a2.66,2.66,0,1,1,2.38-4.76l25.78,12.89a2.67,2.67,0,0,1,.4,4.52l-17.6,13.08A2.59,2.59,0,0,1,368.93,603Z"/><path class="cls-4" d="M368.86,603a2.66,2.66,0,0,1-1.19-.28l-21.89-11a2.66,2.66,0,1,1,2.38-4.76l21.89,11a2.66,2.66,0,0,1-1.19,5Z"/><g class="cls-5"><rect class="cls-4" x="660" y="480.82" width="660" height="480.82"/></g><path class="cls-3" d="M811.36,776.57a5.73,5.73,0,0,1-2.37-2.08,6.08,6.08,0,0,1-.91-3h2.5a3.5,3.5,0,0,0,1.2,2.64,4.5,4.5,0,0,0,3.12,1,5.41,5.41,0,0,0,2.29-.46,3.48,3.48,0,0,0,1.49-1.25,3.17,3.17,0,0,0,.51-1.75,3,3,0,0,0-1.22-2.52,5.6,5.6,0,0,0-3.41-.91h-2.11v-2.09h2.11a4.5,4.5,0,0,0,3-.95,3,3,0,0,0,1.14-2.43,3.21,3.21,0,0,0-.48-1.72,3.37,3.37,0,0,0-1.41-1.24,4.83,4.83,0,0,0-2.15-.45,4.17,4.17,0,0,0-2.16.53,3.59,3.59,0,0,0-1.38,1.41,4.06,4.06,0,0,0-.46,1.92h-2.52a5.93,5.93,0,0,1,.81-3.06,5.76,5.76,0,0,1,2.31-2.17,7.08,7.08,0,0,1,3.4-.79A7.6,7.6,0,0,1,818,758a5.71,5.71,0,0,1,2.31,2,5,5,0,0,1,.81,2.77,4.29,4.29,0,0,1-1,2.88,4.44,4.44,0,0,1-2.42,1.54,5,5,0,0,1,2.77,1.48,4.17,4.17,0,0,1,1.17,3.06,5.11,5.11,0,0,1-.86,2.89,5.81,5.81,0,0,1-2.4,2,8.07,8.07,0,0,1-3.51.74A7.76,7.76,0,0,1,811.36,776.57Z"/><path class="cls-3" d="M832,766.34l6.57,8.25L836.69,776l-5.4-7a13.2,13.2,0,0,1-2.82,5,6.58,6.58,0,0,1-4.07,2.11v-2.35a4.85,4.85,0,0,0,3.07-2.21,14.19,14.19,0,0,0,2-4.92,32.94,32.94,0,0,0,.74-6.87h-5.33v-2.18h12.89v2.18h-5.16A34.27,34.27,0,0,1,832,766.34Zm13.6,1.15h-2.88v9.91h-2.37V756.91h2.37v8.3h2.88Z"/><path class="cls-3" d="M858.65,767.2v1.85h7.66V774H851v1.44h15.68v1.77h-18v-4.89H864v-1.44H848.62v-1.78h7.68V767.2h-9v-1.85h20.47v1.85Zm7.58-3.41H848.71v-6.64h17.52ZM863.88,759H851.09v3h12.79Z"/><path class="cls-3" d="M890.81,772.94h-5.06v4.94h-2.36v-4.94h-5.66v4.94h-2.35v-4.94h-5V770.8h20.47Zm-1.1-4.54H871.78V762h15.29v-2.4H871.78v-2h17.61V764H874.13v2.4h15.58Z"/><path class="cls-3" d="M904.56,767.79a8.67,8.67,0,0,1-4,1.43V767a6,6,0,0,0,4.08-2.38,9.1,9.1,0,0,0,1.71-5.15h-5.52v-2.07H913.9v2.07h-5.16a13.67,13.67,0,0,1-.53,3.14l6.29,4.68-1.35,1.73-5.78-4.39A8.75,8.75,0,0,1,904.56,767.79ZM919.87,775v2.14H902v-6.53h2.43V775Zm-2.8-13.25v-4.84h2.37v15.24h-2.37v-8.31h-4v-2.09Z"/><path class="cls-3" d="M943.71,767.42v2h-9.05V773h-2.4v-3.53h-9v-2Zm-16.64,7.7h15.6v2h-18v-6h2.4Zm15.15-9.77H924.7v-8.2h17.52Zm-2.38-6.24H927.07v4.28h12.77Z"/><path class="cls-3" d="M972.34,756.91v10.51H970v-4.2h-4.17a4.6,4.6,0,0,1-2,2.95,7.37,7.37,0,0,1-4.18,1.1,8.24,8.24,0,0,1-3.35-.63,5.14,5.14,0,0,1-2.21-1.79,4.86,4.86,0,0,1,0-5.28,5.14,5.14,0,0,1,2.21-1.79,8.24,8.24,0,0,1,3.35-.63,7.44,7.44,0,0,1,4.09,1,4.54,4.54,0,0,1,2.08,2.82H970v-4.1ZM970,768.55h2.35v8.59H955.13v-8.59h2.33v2.16H970Zm-7.56-4.08a2.9,2.9,0,0,0,0-4.52,4.54,4.54,0,0,0-2.86-.84,4.59,4.59,0,0,0-2.87.84,2.89,2.89,0,0,0,0,4.52,4.59,4.59,0,0,0,2.87.84A4.54,4.54,0,0,0,962.43,764.47ZM970,775.19V772.6H957.46v2.59Z"/><path class="cls-3" d="M982.2,766.67l4.95,8.16-1.9,1.13-3.62-6.14q-1.51,5.77-5.4,6.36v-2.26c1.29-.29,2.27-1.47,2.94-3.56a29.24,29.24,0,0,0,1.06-8.25h-3.79V760h3.79v-3.09h2.28V760h3.72v2.16h-3.72A38.33,38.33,0,0,1,982.2,766.67Zm6.07-9.64h2.26v20h-2.26v-9.6h-2.85v-2.23h2.85Zm7.56-.12V777.4h-2.25V756.91Z"/><path class="cls-3" d="M1007.11,774a18,18,0,0,0,6.63-.87v2.23a18.89,18.89,0,0,1-6.7.87h-7.82V774h5.54v-4a5.86,5.86,0,0,1-3.65-2.08,6.37,6.37,0,0,1-1.39-4.16,6.88,6.88,0,0,1,.79-3.3,5.72,5.72,0,0,1,2.21-2.26,6.84,6.84,0,0,1,6.42,0,5.89,5.89,0,0,1,2.25,2.26,6.67,6.67,0,0,1,.81,3.3,6.56,6.56,0,0,1-.65,3,5.84,5.84,0,0,1-1.8,2.19,6,6,0,0,1-2.64,1.09Zm-4-7.24a3.59,3.59,0,0,0,2.83,1.19,3.93,3.93,0,0,0,2-.55,3.78,3.78,0,0,0,1.39-1.52,4.58,4.58,0,0,0,.49-2.13,4.64,4.64,0,0,0-.49-2.16A3.73,3.73,0,0,0,1008,760a3.81,3.81,0,0,0-2.06-.56,3.59,3.59,0,0,0-2.83,1.19,4.85,4.85,0,0,0,0,6.05Zm17.54.59h-2.83v10.1h-2.38V756.91h2.38V765h2.83Z"/><path class="cls-3" d="M1022.31,774h8.37a29.67,29.67,0,0,0,3.94-.24,9.64,9.64,0,0,0,2.78-.72v2.2a10.77,10.77,0,0,1-2.83.72,27.29,27.29,0,0,1-4,.27h-8.23Zm3.76-4.52a5.7,5.7,0,0,1-2.25-2.29,7.23,7.23,0,0,1,0-6.69,5.79,5.79,0,0,1,2.25-2.3,7,7,0,0,1,6.53,0,5.88,5.88,0,0,1,2.26,2.3,7.31,7.31,0,0,1,0,6.69,5.79,5.79,0,0,1-2.26,2.29,6.91,6.91,0,0,1-6.53,0Zm5.37-1.9a3.93,3.93,0,0,0,1.4-1.54,5,5,0,0,0,0-4.4,4,4,0,0,0-5.61-1.55,3.71,3.71,0,0,0-1.41,1.55,4.81,4.81,0,0,0-.49,2.2,4.44,4.44,0,0,0,1.1,3.09,3.75,3.75,0,0,0,2.91,1.21A3.92,3.92,0,0,0,1031.44,767.53Zm7.69-10.62h2.37V777.4h-2.37Z"/><path class="cls-3" d="M1064.54,757h2.24v20h-2.24v-6.33h-4.84a9.57,9.57,0,0,1-3,4,6.83,6.83,0,0,1-4.17,1.43V773.9a4.78,4.78,0,0,0,3.29-1.38,8.61,8.61,0,0,0,2.13-3.71,18.33,18.33,0,0,0,.75-5.52v-3.48h-6.17v-2.16H1061V762h3.5Zm0,11.47v-4.25H1061a21.2,21.2,0,0,1-.6,4.25Zm7.28-11.59V777.4h-2.24V756.91Z"/><path class="cls-3" d="M1078.24,767.77a5.39,5.39,0,0,1-2.24-2,5.89,5.89,0,0,1,0-5.86,5.39,5.39,0,0,1,2.24-2,8,8,0,0,1,6.68,0,5.4,5.4,0,0,1,2.22,2,5.89,5.89,0,0,1,0,5.86,5.4,5.4,0,0,1-2.22,2,8,8,0,0,1-6.68,0Zm-1.58,2.5h17.09v7.13h-2.4v-5.06h-14.69Zm2-10.16a3.86,3.86,0,0,0,0,5.4,4.17,4.17,0,0,0,2.88,1,4.07,4.07,0,0,0,2.87-1,3.86,3.86,0,0,0,0-5.38,4.07,4.07,0,0,0-2.87-1A4.17,4.17,0,0,0,1078.7,760.11Zm15,1.21v3h2.88v2.06h-2.88v2.79h-2.37V756.91h2.37v2.35h2.88v2.06Z"/><path class="cls-3" d="M1098.29,765.57h20.47v1.85h-20.47Zm3.71-2.17q-2.49-.9-2.49-2.85t2.49-2.82a24,24,0,0,1,13,0c1.65.6,2.48,1.54,2.48,2.82s-.83,2.25-2.48,2.85a24,24,0,0,1-13,0Zm-2.3,8.87H1115v-1.44h-15.36v-1.78h17.68V774H1102v1.44h15.67v1.77h-18ZM1113.24,762c1.22-.32,1.82-.8,1.82-1.44s-.61-1.12-1.83-1.44a23.4,23.4,0,0,0-9.43,0c-1.23.32-1.84.8-1.84,1.44s.61,1.12,1.82,1.44a23.55,23.55,0,0,0,9.46,0Z"/><path class="cls-3" d="M1148.57,767.44v1.85H1128.1v-1.85h9v-1.82h-7.56v-8.47h17.62v1.77H1132v1.61h14.9v1.7H1132v1.61h15.43v1.78h-7.89v1.82Zm-3.75,4.06c1.67.54,2.5,1.4,2.5,2.57s-.84,2-2.51,2.58a26.09,26.09,0,0,1-13,0c-1.67-.56-2.51-1.42-2.51-2.58s.83-2,2.5-2.57a26.17,26.17,0,0,1,13,0Zm-1.87,3.79c1.25-.27,1.87-.68,1.87-1.22s-.62-1-1.88-1.23a26.23,26.23,0,0,0-9.24,0c-1.26.27-1.88.68-1.88,1.23s.62.95,1.87,1.22a26.35,26.35,0,0,0,9.26,0Z"/><path class="cls-3" d="M1157.38,760.1h4.29v2.13h-10.94V760.1H1155v-3.24h2.36Zm1.39,4.47a4.87,4.87,0,0,1,1.69,2.15,9.84,9.84,0,0,1,0,6.82,4.87,4.87,0,0,1-1.69,2.15,4.37,4.37,0,0,1-2.47.73,4.29,4.29,0,0,1-2.46-.73,4.78,4.78,0,0,1-1.68-2.15,9.69,9.69,0,0,1,0-6.82,4.78,4.78,0,0,1,1.68-2.15,4.29,4.29,0,0,1,2.46-.73A4.37,4.37,0,0,1,1158.77,764.57Zm-.6,8.64a6.95,6.95,0,0,0,0-6.16,2.15,2.15,0,0,0-1.87-1.12,2.1,2.1,0,0,0-1.84,1.12,7,7,0,0,0,0,6.16,2.1,2.1,0,0,0,1.84,1.12A2.15,2.15,0,0,0,1158.17,773.21Zm12.72-16.3V777.4h-2.21v-10h-3.29V777h-2.21V757h2.21v8.13h3.29v-8.25Z"/><path class="cls-3" d="M797.59,799.79a8.63,8.63,0,0,1-4,1.43V799a6,6,0,0,0,4.08-2.38,9.17,9.17,0,0,0,1.7-5.15h-5.52v-2.07h13.08v2.07h-5.16a13.15,13.15,0,0,1-.53,3.14l6.29,4.68-1.34,1.73-5.79-4.39A8.75,8.75,0,0,1,797.59,799.79ZM812.91,807v2.14H795v-6.53h2.42V807Zm-2.81-13.25v-4.84h2.37v15.24H810.1v-8.31h-4v-2.09Z"/><path class="cls-3" d="M827.69,799.32v3.31h7.61v6.8h-2.4v-4.76H817.51v-2h7.78v-3.31h-9v-2h20.47v2Zm5.14-8.11H817.68v-2.06h17.55v7h-2.4Z"/><path class="cls-3" d="M865.37,788.91V809.4H863v-9.77h-3.93c-.1,2.92-.7,5.11-1.79,6.59a5.32,5.32,0,0,1-8.77-.18c-1.11-1.6-1.66-4-1.66-7.13s.55-5.52,1.66-7.12a5.35,5.35,0,0,1,8.64-.39,10.74,10.74,0,0,1,1.87,6h4v-8.49Zm-9.71,15.54a15.53,15.53,0,0,0,0-11.07,2.93,2.93,0,0,0-5.42,0,15.53,15.53,0,0,0,0,11.07,2.93,2.93,0,0,0,5.42,0Z"/><path class="cls-3" d="M870.36,789.65h12v2.18h-9.65V806h6a15.93,15.93,0,0,0,2.92-.26A9.72,9.72,0,0,0,884,805v2.18a9,9,0,0,1-2.41.72,16.57,16.57,0,0,1-3,.27h-8.28Zm15.55-.74h2.38V809.4l-2.38,0Z"/><path class="cls-3" d="M900.22,797.14l6.41,9.79-2,1.3-5.11-8.07a14.68,14.68,0,0,1-2.88,5.75,6.19,6.19,0,0,1-4.22,2.27v-2.43a4.72,4.72,0,0,0,3.25-2.54,18,18,0,0,0,2-5.82,44.05,44.05,0,0,0,.7-8l2.43.1A45.85,45.85,0,0,1,900.22,797.14Zm11.33-8.23V809.4h-2.38V798.55h-5.28v-2.23h5.28v-7.41Z"/><path class="cls-3" d="M915.34,799.51h20.47v2H915.34Zm1.41,3.65h2.43v4h15.57v2h-18Zm0-14h17.55v2H919.2v4.2h15.39v2H916.8Z"/><path class="cls-3" d="M950.21,789.51h2.06v18.67h-6.6V789.51h2.16v7.17h2.38Zm0,16.58v-7.34h-2.38v7.34Zm7.7-16.58h2.14v18.67h-6.58V789.51h2.07v7.17h2.37Zm0,16.58v-7.34h-2.37v7.34Zm8.67-6.6H964.2v9.91H962V788.91h2.23v8.3h2.38Z"/><path class="cls-3" d="M968.23,806.23H988.7v2.19H968.23Zm1.37-11.11H985v-3.33H969.6v-2.14h17.76v7.56H972v3.41h15.72v2.13H969.6Z"/><path class="cls-3" d="M1011.79,806.19v2.23H991.32v-2.23H999V797h2.45v9.15ZM1008,791.86H992.57v-2.23h17.85v13.53H1008Z"/><path class="cls-3" d="M1032,797a8.71,8.71,0,0,1-4.12,2.92,18,18,0,0,1-6.22,1v-2.14a12.69,12.69,0,0,0,6.88-1.66,5.19,5.19,0,0,0,2.52-4.63v-1h-9.4v-2.09h11.8v2.78A7.8,7.8,0,0,1,1032,797Zm-7.06,10h15.29v2.16h-17.69v-6.46h2.4Zm17.62-13.2v2.28h-2.88v8.06h-2.38V788.91h2.38v4.87Z"/><path class="cls-3" d="M1055.3,800.85a34.68,34.68,0,0,1-3.88.2h-7.06v-2h2.4v-7.6h-2.33v-2h13.06v2h-2.38v7.46a12.91,12.91,0,0,0,2.93-.6v2A13,13,0,0,1,1055.3,800.85ZM1064,807v2.14h-17.93V802.9h2.4V807Zm-15-8h2.54c.56,0,1,0,1.25,0v-7.58H1049Zm12.12-1h-3v-2h3v-2.43h-3v-2h3v-2.64h2.35v15.26h-2.35Z"/><path class="cls-3" d="M1075.61,792.15h5.45v2.11h-13.3v-2.11h5.42v-3.29h2.43Zm1.75,4.52a5.34,5.34,0,0,1,2,2.21,7.81,7.81,0,0,1,0,6.55,5.34,5.34,0,0,1-2,2.21,6,6,0,0,1-5.9,0,5.37,5.37,0,0,1-2-2.21,7.71,7.71,0,0,1,0-6.55,5.37,5.37,0,0,1,2-2.21,6,6,0,0,1,5.9,0Zm-1.22,9.18a3.46,3.46,0,0,0,1.21-1.46,5.9,5.9,0,0,0,0-4.47,3.4,3.4,0,0,0-1.21-1.46,3.2,3.2,0,0,0-4.18.63,5.36,5.36,0,0,0,0,6.12,3.22,3.22,0,0,0,4.18.64Zm12.6-6.36h-2.88v9.91h-2.38V788.91h2.38v8.3h2.88Z"/><path class="cls-3" d="M1102.7,789H1105v20h-2.26v-9.62H1099a13.84,13.84,0,0,1-1.67,4.64,8.54,8.54,0,0,1-2.83,3,7,7,0,0,1-3.68,1.07V805.9a4.85,4.85,0,0,0,3.31-1.38,8.67,8.67,0,0,0,2.18-3.71,17.69,17.69,0,0,0,.77-5.52v-3.48h-6.26v-2.16h8.57v5.52c0,.67,0,1.34-.08,2h3.36Zm7.4-.12V809.4h-2.28V788.91Z"/><path class="cls-3" d="M1140.67,804.15h-9.07v5.73h-2.4v-5.73h-9v-2.21h20.47Zm-14.59-5.69a15.16,15.16,0,0,1-5.21,1.27v-2.21a11.35,11.35,0,0,0,5.55-1.85,6.8,6.8,0,0,0,3-4.08h-8v-2.16h18.09v2.16h-7.56a8.77,8.77,0,0,1-.69,2.12l8.92,4-1,2-9.14-4.11A10.93,10.93,0,0,1,1126.08,798.46Z"/><path class="cls-3" d="M1163.76,799.42v2h-9V805h-2.4v-3.53h-9v-2Zm-16.63,7.7h15.6v2h-18v-6h2.4Zm15.14-9.77h-17.52v-8.2h17.52Zm-2.37-6.24h-12.77v4.28h12.77Z"/><path class="cls-3" d="M1170.19,807.4a6.74,6.74,0,0,1-2.17-3.18,18.43,18.43,0,0,1,0-10.61,6.74,6.74,0,0,1,2.17-3.18,5.28,5.28,0,0,1,3.27-1,5.18,5.18,0,0,1,3.23,1,6.76,6.76,0,0,1,2.18,3.18,18.43,18.43,0,0,1,0,10.61,6.76,6.76,0,0,1-2.18,3.18,5.24,5.24,0,0,1-3.23,1A5.34,5.34,0,0,1,1170.19,807.4Zm6-2.95a15.09,15.09,0,0,0,0-11.06,3,3,0,0,0-5.55,0,15,15,0,0,0,0,11.07,3,3,0,0,0,5.56,0Zm6.91-15.54h2.4V809.4h-2.4Z"/><path class="cls-3" d="M802.11,821.65h11.16v4.94a17.49,17.49,0,0,1-1.35,7.12,10.65,10.65,0,0,1-3.86,4.74,10.49,10.49,0,0,1-5.95,1.68v-2.26a7.94,7.94,0,0,0,4.71-1.38,8.6,8.6,0,0,0,3-3.9,15.6,15.6,0,0,0,1-6v-2.81h-8.73Zm20.68,9.84h-2.88v9.91h-2.37V820.91h2.37v8.3h2.88Z"/><path class="cls-3" d="M824.45,830.17h20.47v1.92H824.45Zm3.71,10.38c-1.66-.6-2.49-1.56-2.49-2.87s.83-2.26,2.49-2.85a24.29,24.29,0,0,1,13,0c1.66.59,2.48,1.54,2.48,2.85s-.82,2.27-2.48,2.87a24,24,0,0,1-13,0Zm-2.25-19.64h2.4v5.3H843.7v1.92H825.91Zm13.41,18.21q1.86-.45,1.86-1.44t-1.86-1.41a23.68,23.68,0,0,0-9.29,0q-1.86.45-1.86,1.41t1.86,1.44a23.68,23.68,0,0,0,9.29,0Z"/><path class="cls-3" d="M855.84,824.15h5.45v2.11H848v-2.11h5.43v-3.29h2.42Zm1.75,4.52a5.28,5.28,0,0,1,2,2.21,7.81,7.81,0,0,1,0,6.55,5.28,5.28,0,0,1-2,2.21,6,6,0,0,1-5.9,0,5.43,5.43,0,0,1-2-2.21,7.71,7.71,0,0,1,0-6.55,5.43,5.43,0,0,1,2-2.21,6,6,0,0,1,5.9,0Zm-1.22,9.18a3.39,3.39,0,0,0,1.21-1.46,5.78,5.78,0,0,0,0-4.47,3.33,3.33,0,0,0-1.21-1.46,3.2,3.2,0,0,0-4.18.63,5.36,5.36,0,0,0,0,6.12,3.22,3.22,0,0,0,4.18.64Zm12.6-6.36h-2.88v9.91h-2.38V820.91h2.38v8.3H869Z"/><path class="cls-3" d="M871.71,821.65h11.23v18.53H871.71ZM874.06,838h6.53V823.86h-6.53Zm15.86-17.06V841.4h-2.37v-6.26h-3.48v-2.23h3.48v-4.73h-3.48V826h3.48v-5Z"/><path class="cls-3" d="M912.41,831.18a19.07,19.07,0,0,1-2.78.19h-8.88V821.15h12.6v3.33H904.8v3.58h5a18.93,18.93,0,0,0,2.68-.18,9.81,9.81,0,0,0,2-.49v3.26A9.07,9.07,0,0,1,912.41,831.18Zm4.8,2.39a3.68,3.68,0,0,1,0,7,21.26,21.26,0,0,1-13.44,0,3.68,3.68,0,0,1,0-7,21.08,21.08,0,0,1,13.44,0ZM914,838.08c.89-.22,1.33-.56,1.33-1s-.45-.79-1.34-1a18.49,18.49,0,0,0-7.06,0c-.89.22-1.34.56-1.34,1s.44.8,1.33,1a19.74,19.74,0,0,0,7.08,0Zm7.91-13.77v3.94h-2.4v3.94h-4.06V820.91h4.06v3.4Z"/><path class="cls-3" d="M933.58,821.55a5.24,5.24,0,0,1,2.3,1.76,4.52,4.52,0,0,1,0,5.19,5.2,5.2,0,0,1-2.3,1.74,9.93,9.93,0,0,1-7,0,5.29,5.29,0,0,1-2.31-1.74,4.56,4.56,0,0,1,0-5.19,5.33,5.33,0,0,1,2.31-1.76,10.08,10.08,0,0,1,7,0Zm9.62,16.23H929.14v.81h14.28v2.81H925.13v-6.12h14.06v-.81H925.08v-2.81H943.2Zm-15-13.18a1.55,1.55,0,0,0,0,2.59,3.33,3.33,0,0,0,1.89.48,3.29,3.29,0,0,0,1.88-.48,1.54,1.54,0,0,0,0-2.59,3.29,3.29,0,0,0-1.88-.48A3.33,3.33,0,0,0,928.21,824.6Zm15,6.34h-4.05v-10h4.05Z"/><path class="cls-3" d="M973.92,837.27h-8.3v4.61h-4.13v-4.61h-8.3v-3.74h20.73Zm-10.58-8.59a12.46,12.46,0,0,1-4.19,2.45,15.49,15.49,0,0,1-5.2.91v-3.69a11.31,11.31,0,0,0,4.49-1,6.18,6.18,0,0,0,2.95-2.53h-7.08v-3.67h18.48v3.67h-6.91a7.87,7.87,0,0,1-.31.84l8.06,3.05-1.53,3.36Z"/><path class="cls-3" d="M997,830.79v3.34h-8.33v2.78H984.6v-2.78h-8.33v-3.34ZM981.6,838h14.45v3.36H977.47v-6.07h4.13Zm14.16-8.45H977.52v-8.68h18.24Zm-4-5.49H981.55v2.3h10.18Z"/><path class="cls-3" d="M1015.23,829.62l6.07,8.45-3.29,2.35-4.23-6.12a11.87,11.87,0,0,1-3.22,4.53,6.67,6.67,0,0,1-4.29,1.61v-4.17a4.19,4.19,0,0,0,2.91-2.13,15.57,15.57,0,0,0,2-5.27,36,36,0,0,0,.72-7.56l4.13.15A40.06,40.06,0,0,1,1015.23,829.62Zm10.67-8.71V841.4h-4.05V820.91Z"/><path class="cls-3" d="M1044.82,836.77a18,18,0,0,0,2.94-.24,9.06,9.06,0,0,0,2.36-.67v3.62a8.27,8.27,0,0,1-2.46.71,19.52,19.52,0,0,1-3.13.25h-8V821.39h11.93v3.67h-7.8v11.71Zm12.72-4.44h-2.4v9.07h-4.06V820.91h4.06v7.48h2.4Z"/><path class="cls-3" d="M1079.71,832.79H1059v-3.12h20.73Zm-3.54-11.19c1.69.69,2.53,1.74,2.53,3.15s-.84,2.45-2.53,3.14a23.13,23.13,0,0,1-13.65,0c-1.69-.69-2.54-1.74-2.54-3.14s.85-2.46,2.54-3.15a23.13,23.13,0,0,1,13.65,0Zm2.34,19.8h-18.33v-7.56h18.33Zm-4-3v-1.46h-10.32v1.46Zm-8.86-14.44c-.89.19-1.34.47-1.34.84s.44.66,1.32.85a25.76,25.76,0,0,0,7.44,0c.88-.19,1.32-.47,1.32-.85s-.44-.65-1.33-.84a23.81,23.81,0,0,0-7.41,0Z"/><path class="cls-3" d="M1094.18,830.12a19,19,0,0,1-2.78.19h-8.88V821h4.1v6h5a18.89,18.89,0,0,0,2.67-.18,9.92,9.92,0,0,0,2.06-.49v3.28A8.68,8.68,0,0,1,1094.18,830.12Zm-6.93,8.45h14.28v2.83h-18.29v-6.24h14.06v-.86h-14.11v-2.83h18.12v6.24h-14.06Zm16.46-15v3.8h-2.4v3.36h-4v-9.84h4v2.68Z"/><path class="cls-3" d="M1123.32,821h3.74v20h-3.74v-2.59l-3,1.68-2.64-4.8c-1.22,3.31-3.15,5-5.79,5.11v-4c1-.14,1.84-1.23,2.45-3.25a30.21,30.21,0,0,0,1-8.17h-3v-3.67H1122v3.67h-2.88c0,1.84-.13,3.51-.29,5l4.49,7.78V832h-2.62V828.2h2.62Zm9-.09V841.4h-3.79V820.91Z"/><path class="cls-3" d="M1147.34,833.15v1.08h7.16v7.17h-18.34v-7.17h7.15v-1.08H1135v-3.08h20.74v3.08Zm7.3-4H1136v-3h3.14V824h-2.93v-3h18.19v3h-2.92v2.14h3.14Zm-4.15,8.06h-10.32v1.23h10.32Zm-7.3-11.11h4.27V824h-4.27Z"/><path class="cls-3" d="M1178.78,831.92h-20.73V829h20.73Zm-3.55-10.44c1.67.61,2.5,1.59,2.5,2.95s-.83,2.35-2.5,3a26,26,0,0,1-13.63,0c-1.66-.61-2.5-1.6-2.5-3s.84-2.34,2.5-2.95a26,26,0,0,1,13.63,0Zm2.35,16.59h-14.35v.69h14.57v2.64h-18.53V836h14.35v-.69h-14.4v-2.55h18.36Zm-12.86-14.36q-1.32.24-1.32.72c0,.64,1.67,1,5,1s5-.32,5-1q0-.48-1.32-.72a28.56,28.56,0,0,0-7.39,0Z"/><path class="cls-3" d="M837.27,863.8H824.76V853.15h3.94v2.08h4.63v-2.08h3.94Zm-7.73,6.31h14.23v3.29H825.46v-8.25h18.09v3.28h-14Zm3.79-9.57V858.4H828.7v2.14ZM846,856.39v3.93h-2.4v4.11h-4V852.91h4v3.48Z"/><path class="cls-3" d="M868.13,863.92H847.39V861h20.74Zm-3.55-10.44c1.66.61,2.49,1.59,2.49,2.95s-.83,2.35-2.49,3a26,26,0,0,1-13.63,0c-1.67-.61-2.5-1.6-2.5-3s.83-2.34,2.5-2.95a26,26,0,0,1,13.63,0Zm2.35,16.59H852.58v.69h14.57v2.64H848.62V868H863v-.69h-14.4v-2.55h18.36Zm-12.86-14.36q-1.32.24-1.32.72,0,1,5,1c3.35,0,5-.32,5-1q0-.48-1.32-.72a28.56,28.56,0,0,0-7.39,0Z"/><path class="cls-3" d="M897.94,869.27h-8.28v4.61h-4.18v-4.61H877.2v-3.74h20.74Zm-14.87-6.44a12.34,12.34,0,0,1-5.39,1.16v-3.81a8.28,8.28,0,0,0,3.85-1,8.88,8.88,0,0,0,4.7-6.63l4.12.6a12.66,12.66,0,0,1-1,3.27l8.48,4.15L896,864l-8.52-4.49A12.93,12.93,0,0,1,883.07,862.83Z"/><path class="cls-3" d="M919.54,861.35a5.51,5.51,0,0,1-2.35,1.94,9.24,9.24,0,0,1-7,0,5.48,5.48,0,0,1-2.36-1.94,5.41,5.41,0,0,1,0-5.79,5.5,5.5,0,0,1,2.36-1.95,9.24,9.24,0,0,1,7,0,5.53,5.53,0,0,1,2.35,1.95,5.41,5.41,0,0,1,0,5.79ZM926,873.62l-3.4-2.71a7.51,7.51,0,0,1-2.51,1.84,7.09,7.09,0,0,1-3,.65L914,870.93a7.94,7.94,0,0,1-2.51,1.84,7.13,7.13,0,0,1-2.94.63v-3.67a2.94,2.94,0,0,0,1.81-.64,4.94,4.94,0,0,0,1.43-1.75,7,7,0,0,0,.72-2.46l3.91.65a10.29,10.29,0,0,1-.62,2.5l2.23,1.53a4,4,0,0,0,2-1.69,6.68,6.68,0,0,0,1-3l3.91.65a12.08,12.08,0,0,1-.6,2.47l4,2.71Zm-14.2-13.56a3.37,3.37,0,0,0,3.84,0,2.16,2.16,0,0,0,0-3.22,3.37,3.37,0,0,0-3.84,0,2.16,2.16,0,0,0,0,3.22Zm15,4.2h-4.05V852.91h4.05Z"/><path class="cls-3" d="M941.33,853h3.79v20h-3.79v-8.76h-2.45a12.81,12.81,0,0,1-1.86,4.47,8.62,8.62,0,0,1-3,2.74,7.68,7.68,0,0,1-3.67,1v-3.79a4.67,4.67,0,0,0,3.74-2.48,12.84,12.84,0,0,0,1.37-6.52V857h-5.11v-3.64h9v6.12q0,.62,0,.93h2Zm9.17-.09V873.4h-3.84V852.91Z"/><path class="cls-3" d="M969.07,855.38h4.56v3.69H960.34v-3.69h4.58v-2.55h4.15Zm1.07,5.36a5.46,5.46,0,0,1,2.08,2.28,7.81,7.81,0,0,1,0,6.55,5.46,5.46,0,0,1-2.08,2.28,6.41,6.41,0,0,1-6.31,0,5.46,5.46,0,0,1-2.08-2.28,7.81,7.81,0,0,1,0-6.55,5.46,5.46,0,0,1,2.08-2.28,6.41,6.41,0,0,1,6.31,0Zm-1.62,7.67a4.32,4.32,0,0,0,0-4.22,1.87,1.87,0,0,0-3.07,0,4.32,4.32,0,0,0,0,4.22,1.89,1.89,0,0,0,3.07,0Zm13-4.08h-2.4v9.07h-4V852.91h4v7.48h2.4Z"/><path class="cls-3" d="M994.43,855.58q1.67,2.45,1.67,7.33c0,3.27-.56,5.71-1.67,7.34a5.62,5.62,0,0,1-9.25,0c-1.12-1.63-1.68-4.07-1.68-7.34s.56-5.7,1.68-7.33a5.62,5.62,0,0,1,9.25,0Zm-2.32,7.33c0-4-.76-6-2.3-6s-2.33,2-2.33,6a12.81,12.81,0,0,0,.61,4.66c.41.93,1,1.39,1.72,1.39C991.35,869,992.11,867,992.11,862.91Zm10.8-10V873.4h-4v-4.94H996.6l.26-3.79h2.07V861h-2.07l-.26-3.79h2.33v-4.34Z"/><path class="cls-3" d="M1033.42,861.91v1.92h-20.48v-1.92h9v-2h-7.58v-7h2.4V858h15.38v1.9h-7.85v2Zm-5,9.43h3.77v1.87H1014.1v-1.87h3.76v-3.75h-3.52V865.7H1032v1.89h-3.53Zm-8.23,0h5.88v-3.75h-5.88Z"/><path class="cls-3" d="M1036,863.56h20.47v2H1036Zm5.61-2.33a8,8,0,0,1-3.27-1.51,3.13,3.13,0,0,1,0-4.94,8,8,0,0,1,3.28-1.5,21.88,21.88,0,0,1,9.21,0,8,8,0,0,1,3.28,1.5,3.13,3.13,0,0,1,0,4.94,8,8,0,0,1-3.26,1.51,21.18,21.18,0,0,1-9.24,0Zm-4.19,6.1h2.42v3.79h15.58v2h-18Zm13.5-8.2c1.25-.45,1.88-1.08,1.88-1.88s-.63-1.42-1.88-1.87a16.79,16.79,0,0,0-9.39,0c-1.25.45-1.88,1.07-1.88,1.87s.63,1.43,1.88,1.88a16.32,16.32,0,0,0,9.39,0Z"/><path class="cls-3" d="M1085.64,871.39v1.75h-17.9v-4.85h15.07v-1.44h-15.12V865.1h3.89v-1.9h-5.74v-1.82h8.47a21.13,21.13,0,0,0,6.72-.75v1.8a10.78,10.78,0,0,1-2.76.58,38.58,38.58,0,0,1-4.1.19h-.24v1.9h11.21V870h-15.08v1.42ZM1076.33,859h-9.12v-1.8h9.12v-2h-9.12v-1.8h11.49v7.08h-2.37Zm6.43-1.2h-2.86v-2h2.86v-2.8h2.38V864h-2.38Z"/><path class="cls-3" d="M1090.1,861.67h9.17v-5.84h-9.21v-2.18h11.59v10.2h-9.17V870h6a15.93,15.93,0,0,0,2.92-.26,9.63,9.63,0,0,0,2.38-.72v2.18a8.44,8.44,0,0,1-2.37.72,16.57,16.57,0,0,1-3,.27h-8.31Zm15.58-8.76h2.38V873.4h-2.38Z"/><path class="cls-3" d="M1121.54,870a15.93,15.93,0,0,0,2.92-.26,9.72,9.72,0,0,0,2.39-.72v2.18a8.49,8.49,0,0,1-2.35.72,16.06,16.06,0,0,1-3,.27h-8.35V853.65h12v2.18h-9.67v5.84h9.31v2.18h-9.31V870Zm9.6-17.08V873.4h-2.37V852.91Z"/><path class="cls-3" d="M1135.1,870h8.38a29.67,29.67,0,0,0,3.94-.24,9.64,9.64,0,0,0,2.78-.72v2.2a10.77,10.77,0,0,1-2.83.72,27.39,27.39,0,0,1-4,.27h-8.24Zm3.77-4.52a5.7,5.7,0,0,1-2.25-2.29,7.23,7.23,0,0,1,0-6.69,5.79,5.79,0,0,1,2.25-2.3,7,7,0,0,1,6.53,0,5.88,5.88,0,0,1,2.26,2.3,7.31,7.31,0,0,1,0,6.69,5.79,5.79,0,0,1-2.26,2.29,6.91,6.91,0,0,1-6.53,0Zm5.37-1.9a3.93,3.93,0,0,0,1.4-1.54,5.09,5.09,0,0,0,0-4.4,3.84,3.84,0,0,0-3.5-2.12,3.93,3.93,0,0,0-2.12.57,3.76,3.76,0,0,0-1.4,1.55,4.81,4.81,0,0,0-.49,2.2,4.44,4.44,0,0,0,1.1,3.09,3.75,3.75,0,0,0,2.91,1.21A3.92,3.92,0,0,0,1144.24,863.53Zm7.69-10.62h2.37V873.4h-2.37Z"/><path class="cls-3" d="M889,893.14l6.41,9.79-2,1.3-5.12-8.07a14.68,14.68,0,0,1-2.88,5.75,6.19,6.19,0,0,1-4.22,2.27v-2.43a4.72,4.72,0,0,0,3.25-2.54,18,18,0,0,0,2-5.82,44.92,44.92,0,0,0,.71-8l2.42.1A45.85,45.85,0,0,1,889,893.14Zm11.33-8.23V905.4H897.9V894.55h-5.28v-2.23h5.28v-7.41Z"/><path class="cls-3" d="M914.51,885.51h2.35v18.67H905.25V885.51h2.35v7h6.91Zm0,16.48v-7.24H907.6V902Zm8.69-17.08V905.4h-2.38V884.91Z"/><path class="cls-3" d="M947.63,902.19v2.23H927.16v-2.23Zm-14.8-6a9.61,9.61,0,0,1-5.26,1.6v-2.25a7.12,7.12,0,0,0,4.17-1.43,12.27,12.27,0,0,0,3.45-3.84,15.91,15.91,0,0,0,1.95-5.27l2.45.43a16.73,16.73,0,0,1-1.44,4.47l9,6.07-1.29,1.9-8.76-6.08A14.22,14.22,0,0,1,932.83,896.19Z"/><path class="cls-3" d="M950.25,894.34h20.47v1.73H950.25Zm1.41,6.21H967v-1.32H951.61v-1.68H969.3v4.59H954v1.34h15.69v1.68h-18Zm.07-12.33H967v-1.39H951.73v-1.68h17.52v4.65H954v1.37h15.5v1.68H951.73Z"/><path class="cls-3" d="M986.24,894l5,8.79-2,1.1-3.64-6.62q-1.51,6.24-5.43,6.91v-2.33q2-.55,3-4.26a38.56,38.56,0,0,0,1.08-9.78h-3.76v-2.16h9.64v2.16h-3.59A53.67,53.67,0,0,1,986.24,894Zm6-9h2.25v20H992.2v-10.1H989v-2.23h3.24Zm7.56-.12V905.4H997.5V884.91Z"/><path class="cls-3" d="M1023.61,893.55v2h-20.47v-2h7.68v-4h2.4v4Zm-3.75,4.87c1.67.65,2.5,1.65,2.5,3s-.83,2.37-2.5,3a21.8,21.8,0,0,1-13,0c-1.67-.65-2.51-1.66-2.51-3s.83-2.41,2.49-3a18.62,18.62,0,0,1,6.51-1A18,18,0,0,1,1019.86,898.42Zm-.13-11.26h-15.22v-2h17.59v7h-2.37ZM1018,903c1.27-.36,1.9-.88,1.9-1.57s-.63-1.19-1.9-1.55a17,17,0,0,0-4.61-.54,17.49,17.49,0,0,0-4.63.52c-1.24.34-1.87.86-1.87,1.57s.63,1.21,1.9,1.57a19.91,19.91,0,0,0,9.21,0Z"/><path class="cls-3" d="M1040.08,888.43h-13.92v-1.82h5.76v-2.06h2.4v2.06h5.76Zm-10,7.83a5,5,0,0,1-2.16-1.25,2.72,2.72,0,0,1,0-3.82,5.28,5.28,0,0,1,2.16-1.26,11,11,0,0,1,6.15,0,5.18,5.18,0,0,1,2.15,1.26,2.73,2.73,0,0,1,0,3.82,5.06,5.06,0,0,1-2.15,1.25,10.12,10.12,0,0,1-3.07.43A10.26,10.26,0,0,1,1030,896.26Zm12.45,1.27h2.3v7.61h-17.13v-7.61h2.3v1.85h12.53Zm-12.09-5.78a1.39,1.39,0,0,0,0,2.68,7.24,7.24,0,0,0,5.44,0,1.39,1.39,0,0,0,0-2.68,7.24,7.24,0,0,0-5.44,0Zm12.09,11.52V901.2H1030v2.07Zm5.18-11.86h-2.88v5h-2.38V884.91h2.38v4.29h2.88Z"/><path class="cls-3" d="M1050.49,885.53h2.43V902h5.95a15.89,15.89,0,0,0,2.9-.27,9.94,9.94,0,0,0,2.4-.73v2.18a9.51,9.51,0,0,1-2.37.73,15.08,15.08,0,0,1-2.93.28h-8.38Zm15.58-.62h2.37V905.4l-2.37,0Z"/><path class="cls-3" d="M1081.5,902a15.94,15.94,0,0,0,2.92-.27,8.84,8.84,0,0,0,2.38-.72v2.16a8.44,8.44,0,0,1-2.41.72,16.93,16.93,0,0,1-3,.27h-8V885.65h11.84v2.16h-9.41V902Zm12.34-6.53H1091v9.91h-2.38V884.91H1091v8.3h2.88Z"/><path class="cls-3" d="M1096.06,904.72a1.65,1.65,0,0,1-.5-1.21,1.69,1.69,0,0,1,1.71-1.71,1.64,1.64,0,0,1,1.2.49,1.69,1.69,0,0,1,.48,1.22,1.67,1.67,0,0,1-.48,1.21,1.6,1.6,0,0,1-1.2.49A1.62,1.62,0,0,1,1096.06,904.72Z"/><path class="cls-3" d="M880.56,718.54a11.19,11.19,0,0,1-5.22,1.41v-4.9a6.13,6.13,0,0,0,4.37-2.19,9.12,9.12,0,0,0,2.1-4.75h-6.08V703.5h17.41v4.61h-5.89a12.43,12.43,0,0,1-.48,2.56l7.55,5.21-3,3.84L884.62,715A12.69,12.69,0,0,1,880.56,718.54Zm21.25,7.13v4.84H877v-9.57h5.5v4.73ZM896,709v-5.82h5.4v20.25H896v-9.72h-3.65V709Z"/><path class="cls-3" d="M922.19,718v3h9.51v9.83h-5.51v-5.32H907.12V721h9.63v-3h-11.1v-4.54H933.3V718Zm3.88-10.21H907.25v-4.57h24.32v9.18h-5.5Z"/><path class="cls-3" d="M961.9,717.74v1.18h9.54v7.2H952.3v1h19.43v3.43H947v-7.24h19.14v-1H947v-3.39h9.57v-1.18H945.39V713.8H973v3.94Zm9.48-5H947.06v-9.6h24.32ZM966,707.05H952.4v1.86H966Z"/><path class="cls-3" d="M1003.82,726H998v5.19h-5.37V726h-5.32v5.19H982V726h-5.79v-4.8h27.64Zm-6.88-18.08h-19.2V703.5h24.48v10H983.09v1.57h19.45v4.39H977.81v-10h19.13Z"/><path class="cls-3" d="M1028.11,714.79l8.1,11.27-4.39,3.13-5.63-8.16a15.93,15.93,0,0,1-4.3,6.05,9,9,0,0,1-5.71,2.15v-5.57a5.57,5.57,0,0,0,3.87-2.83,20.88,20.88,0,0,0,2.65-7,47.93,47.93,0,0,0,1-10.08l5.51.19A52.09,52.09,0,0,1,1028.11,714.79Zm14.24-11.61v27.33h-5.41V703.18Z"/><path class="cls-3" d="M1046.7,724.49h27.65v5.06H1046.7Zm7.8-5.78a15.1,15.1,0,0,1-7.25,1.91V715.5a9.37,9.37,0,0,0,5.17-1.59,13.14,13.14,0,0,0,4.14-4.41,16.68,16.68,0,0,0,2.18-6.42l5.5.87a20.92,20.92,0,0,1-1.5,5.4l11.64,7-2.84,4.39-11.2-7.17A18.17,18.17,0,0,1,1054.5,718.71Z"/><path class="cls-3" d="M1088.61,718.63a25.52,25.52,0,0,1-3.76.26H1078V703.5h11.9v4.09H1083v1.67h6.34v3.87H1083v1.7h2.18a25.16,25.16,0,0,0,3.52-.24,12.93,12.93,0,0,0,2.78-.66v4A11.68,11.68,0,0,1,1088.61,718.63Zm-9.08,1.7h25.16v10.18h-25.16Zm5.32,6h14.52v-1.86h-14.52Zm7.9-14h-2v-4.73h2v-4.35h5v15.77h-5Zm11.94-9.21v16.19h-5.06V703.18Z"/><path class="cls-4" d="M970.18,569.79H898.12a2.66,2.66,0,0,1,0-5.32h72.06a2.66,2.66,0,1,1,0,5.32Z"/><path class="cls-4" d="M992,585.67H919.93a2.66,2.66,0,1,1,0-5.32H992a2.66,2.66,0,0,1,0,5.32Z"/><path class="cls-4" d="M970.18,601.56H898.12a2.66,2.66,0,0,1,0-5.32h72.06a2.66,2.66,0,1,1,0,5.32Z"/><path class="cls-4" d="M949.54,635.61H930.18a10,10,0,0,1-10-10V599.91a2.67,2.67,0,0,1,5.33,0v25.68a4.7,4.7,0,0,0,4.69,4.7h19.36a2.66,2.66,0,0,1,0,5.32Z"/><path class="cls-4" d="M1019.06,635.61H981.6a2.66,2.66,0,0,1,0-5.32h37.46a4.71,4.71,0,0,0,4.7-4.7V548.52a4.71,4.71,0,0,0-4.7-4.7H936.8a2.66,2.66,0,1,1,0-5.32h82.26a10,10,0,0,1,10,10v77.07A10,10,0,0,1,1019.06,635.61Z"/><path class="cls-4" d="M922.82,568.38a2.66,2.66,0,0,1-2.66-2.66v-17.2a10,10,0,0,1,10-10h9.56a2.66,2.66,0,1,1,0,5.32h-9.56a4.7,4.7,0,0,0-4.69,4.7v17.2A2.66,2.66,0,0,1,922.82,568.38Z"/><path class="cls-4" d="M965.66,649.42A16.47,16.47,0,1,1,982.13,633,16.49,16.49,0,0,1,965.66,649.42Zm0-27.62A11.15,11.15,0,1,0,976.81,633,11.16,11.16,0,0,0,965.66,621.8Z"/><path class="cls-4" d="M1053.49,649.42A16.47,16.47,0,1,1,1070,633,16.49,16.49,0,0,1,1053.49,649.42Zm0-27.62A11.15,11.15,0,1,0,1064.64,633,11.16,11.16,0,0,0,1053.49,621.8Z"/><path class="cls-4" d="M1038.72,635.61h-30a2.66,2.66,0,0,1,0-5.32h30a2.66,2.66,0,0,1,0,5.32Z"/><path class="cls-4" d="M1075.27,635.61h-6.89a2.66,2.66,0,0,1,0-5.32h6.89a4,4,0,0,0,4-3.95v-23.7a4,4,0,0,0-4-3.95h-1.33a2.65,2.65,0,0,1-2.19-1.16l-18.49-27.13a4,4,0,0,0-3.27-1.72h-23.57a2.66,2.66,0,0,1,0-5.32H1050a9.26,9.26,0,0,1,7.66,4l17.71,26a9.28,9.28,0,0,1,9.18,9.27v23.7A9.28,9.28,0,0,1,1075.27,635.61Z"/><path class="cls-4" d="M1074,598.69H1047a9.28,9.28,0,0,1-9.27-9.27V579a2.66,2.66,0,1,1,5.32,0v10.42a4,4,0,0,0,4,4H1074a2.66,2.66,0,0,1,0,5.32Z"/><line class="cls-6" y1="480.82" x2="1320" y2="480.82"/><line class="cls-6" x1="660" x2="660" y2="961.64"/></g></g></svg>