<svg xmlns="http://www.w3.org/2000/svg" viewBox="0 0 202 212"><defs><style>.cls-1{fill:#fff;}</style></defs><g id="Layer_2" data-name="Layer 2"><g id="Layer_1-2" data-name="Layer 1"><path class="cls-1" d="M112.85,189.19a4.86,4.86,0,0,0,1.51,3.52,4.73,4.73,0,0,0,3.25,1.3h.27A70.19,70.19,0,0,0,184,127.88a4.71,4.71,0,0,0-1.3-3.52,4.82,4.82,0,0,0-8.31,3,60.6,60.6,0,0,1-57,57A4.83,4.83,0,0,0,112.85,189.19Z"/><path class="cls-1" d="M93.06,149.57a4.81,4.81,0,0,0,4.7,3.83,4.8,4.8,0,0,0,4-2.17l5.89-9a19.35,19.35,0,0,0,20.54-31.33l18.91-28.84a4.81,4.81,0,0,0-8-5.28l-18.87,28.79A19.35,19.35,0,0,0,99.62,137l-5.88,9A4.77,4.77,0,0,0,93.06,149.57Zm11-25.71a9.77,9.77,0,1,1,9.77,9.77A9.78,9.78,0,0,1,104.08,123.86Z"/><path class="cls-1" d="M181.11,66.93a88.65,88.65,0,0,0-7.89-8.2l3.34-4.49,0,0h0a4.85,4.85,0,0,0,2.86.94,4.81,4.81,0,0,0,2.88-8.67l-7.77-5.76a4.81,4.81,0,1,0-5.74,7.72h0l-3.08,4.15a87.75,87.75,0,0,0-36.23-15.58V25.94h5.19a4.82,4.82,0,0,0,4.81-4.81V4.81A4.82,4.82,0,0,0,134.72,0H93a4.82,4.82,0,0,0-4.81,4.81V21.13A4.82,4.82,0,0,0,93,25.94h5.19V37.07a87.65,87.65,0,0,0-36,15.38l-2.93-3.94,0,0a4.81,4.81,0,1,0-5.73-7.72L45.8,46.53a4.81,4.81,0,0,0-1.89,3.16,4.81,4.81,0,0,0,4.76,5.51,4.82,4.82,0,0,0,2.86-.94l0,0,3.17,4.27a88.2,88.2,0,0,0-29,65.32,89.76,89.76,0,0,0,.77,11.69A4.81,4.81,0,0,0,36,134.26,78.59,78.59,0,0,1,103.58,46a4.82,4.82,0,0,0,4.2-4.77V25.94h12.13V41.19a4.83,4.83,0,0,0,4.2,4.77A78.55,78.55,0,1,1,86.19,197.38a4.8,4.8,0,0,0-6.12,6.38,4.7,4.7,0,0,0,2.71,2.61A88.13,88.13,0,0,0,181.11,66.93ZM124.72,16.31H97.78V9.62h32.13v6.7h-5.19Z"/><path class="cls-1" d="M16.06,155H48.13a4.81,4.81,0,0,0,0-9.62H16.06a4.81,4.81,0,0,0,0,9.62Z"/><path class="cls-1" d="M69.17,170.78h-20a4.81,4.81,0,1,0,0,9.62h20a4.81,4.81,0,0,0,0-9.62Z"/><path class="cls-1" d="M48.14,190.49H4.81a4.81,4.81,0,0,0,0,9.62H48.14a4.81,4.81,0,0,0,0-9.62Z"/></g></g></svg>