<svg xmlns="http://www.w3.org/2000/svg" viewBox="0 0 162.58 210"><defs><style>.cls-1{fill:#fff;}</style></defs><g id="Layer_2" data-name="Layer 2"><g id="Layer_1-2" data-name="Layer 1"><path class="cls-1" d="M162.58,80.94a22.82,22.82,0,0,0-5.49-14.83,22.81,22.81,0,0,0-11.65-27.64,22.88,22.88,0,0,0-21.08-21.38A23,23,0,0,0,96.5,5.75a23,23,0,0,0-30.09-.29A23.11,23.11,0,0,0,50.56,6a22.87,22.87,0,0,0-11.91,11A22.9,22.9,0,0,0,17.16,38,22.8,22.8,0,0,0,5.77,65.78a22.79,22.79,0,0,0-.29,30A22.83,22.83,0,0,0,17.13,123.4a22.79,22.79,0,0,0,6.68,14.77,23.1,23.1,0,0,0,14.41,6.62,22.9,22.9,0,0,0,9.13,9.55V205.9a4.1,4.1,0,0,0,5.74,3.76l28.2-12.36,28.19,12.36a4.13,4.13,0,0,0,1.65.34,4.11,4.11,0,0,0,4.1-4.1V154.25a22.78,22.78,0,0,0,8.69-9.43,22.9,22.9,0,0,0,21.49-21,22.82,22.82,0,0,0,11.4-27.74,22.84,22.84,0,0,0,5.77-15.15ZM85.39,190.15V174.33a4.1,4.1,0,1,0-8.2,0v15.82l-21.64,9.47v-42.5a23,23,0,0,0,10.53-1,23,23,0,0,0,30.09.29,23.12,23.12,0,0,0,10.86.85v42.36ZM149.29,92a4.12,4.12,0,0,0-1,4.94,14.5,14.5,0,0,1,.38,12.15,14.74,14.74,0,0,1-8.67,8.15,4.09,4.09,0,0,0-2.73,4.06,14.71,14.71,0,0,1-15.78,15.32,4.09,4.09,0,0,0-4.18,2.77,14.64,14.64,0,0,1-8.38,8.87A14.82,14.82,0,0,1,97,147.92a4.11,4.11,0,0,0-4.79.94,14.79,14.79,0,0,1-22.06-.26,4.1,4.1,0,0,0-4.9-1,14.76,14.76,0,0,1-20.44-8.25,4.12,4.12,0,0,0-4.06-2.72,14.81,14.81,0,0,1-11.14-4.28A14.62,14.62,0,0,1,25.33,121a4.1,4.1,0,0,0-2.78-4.19A14.62,14.62,0,0,1,14,96.59a4.1,4.1,0,0,0-1-4.82,14.58,14.58,0,0,1,.27-21.9,4.09,4.09,0,0,0,1-4.93,14.61,14.61,0,0,1,8.3-20.3,4.11,4.11,0,0,0,2.73-4.07A14.66,14.66,0,0,1,29.6,29.51a14.81,14.81,0,0,1,11.49-4.26,4.08,4.08,0,0,0,4.17-2.77A14.78,14.78,0,0,1,65.58,14,4.1,4.1,0,0,0,70.37,13a14.8,14.8,0,0,1,22.07.26,4.09,4.09,0,0,0,4.9,1,14.76,14.76,0,0,1,20.44,8.25,4.1,4.1,0,0,0,4.06,2.72A14.79,14.79,0,0,1,133,29.51a14.59,14.59,0,0,1,4.27,11.41A4.11,4.11,0,0,0,140,45.1a14.61,14.61,0,0,1,8.57,20.18,4.11,4.11,0,0,0,1,4.82,14.59,14.59,0,0,1-.26,21.9Z"/><path class="cls-1" d="M81.29,28.65a52.29,52.29,0,1,0,52.5,52.29,52.46,52.46,0,0,0-52.5-52.29Zm0,96.36a44.08,44.08,0,1,1,44.3-44.07A44.23,44.23,0,0,1,81.29,125Z"/><path class="cls-1" d="M104.64,71.67l-13-3L84.8,57.26a4.11,4.11,0,0,0-7,0L70.91,68.67l-13,3a4.14,4.14,0,0,0-3,2.74,4.09,4.09,0,0,0,.81,4l8.73,10-1.16,13.27A4.11,4.11,0,0,0,69,105.81l12.26-5.19,12.26,5.19a4.13,4.13,0,0,0,4-.46,4.1,4.1,0,0,0,1.67-3.67L98.08,88.41l8.73-10a4.11,4.11,0,0,0-2.17-6.69ZM90.75,84.35a4.08,4.08,0,0,0-1,3l.71,8.21-7.58-3.22a4.16,4.16,0,0,0-3.2,0L72.1,95.6l.72-8.21a4.12,4.12,0,0,0-1-3l-5.4-6.22,8-1.86A4.1,4.1,0,0,0,77,74.39l4.25-7.06,4.25,7.06a4.08,4.08,0,0,0,2.58,1.88l8,1.86Z"/></g></g></svg>