<svg xmlns="http://www.w3.org/2000/svg" viewBox="0 0 260 150.83"><defs><style>.cls-1{fill:#fff;}</style></defs><g id="Layer_2" data-name="Layer 2"><g id="Layer_1-2" data-name="Layer 1"><path class="cls-1" d="M257.13,77.74a17.67,17.67,0,0,0-12.53-5.43l-3.77-.16-17-29.95c-3.09-5.46-9.88-9.06-17.73-9.4l-30.53-1.13L176.43,11a12.13,12.13,0,0,0-2.94-8.75A6.89,6.89,0,0,0,168.55,0H48.92c-4.2,0-7.58,4.16-7.86,9.67h0l-.85,15.8a3.39,3.39,0,1,0,6.78.36L47.85,10A4.41,4.41,0,0,1,49,6.8H168.45a5,5,0,0,1,1.19,3.89l-2.47,62.57-1.68,42.95h0l-.06,1.33a4.67,4.67,0,0,1-1.18,3.3h-47.6a27.65,27.65,0,0,0-8.12-17.8c-8.47-8.47-20.85-10.55-32.31-5.45A25.12,25.12,0,0,0,63.5,110.32a31.5,31.5,0,0,0-2.67,10.53H43.27c-.42-.28-1.29-1.72-1.18-4L43.15,97.2a3.4,3.4,0,1,0-6.79-.36L35.3,116.53a12.16,12.16,0,0,0,2.9,8.87,6.85,6.85,0,0,0,5,2.24h18a28,28,0,0,0,27.52,23.19,31,31,0,0,0,12.59-2.75A25.12,25.12,0,0,0,114,135.36a31.89,31.89,0,0,0,2.32-7.72h48.05a6.84,6.84,0,0,0,5.05-2.34,6.55,6.55,0,0,0,4.76,2.34l4,0a28,28,0,0,0,27.52,23.17,31,31,0,0,0,12.59-2.75A25.12,25.12,0,0,0,231,135.36a31.88,31.88,0,0,0,2.27-7.43l15.48.07c4.24,0,7.69-2.72,8-6.33L260,85.72A10.77,10.77,0,0,0,257.13,77.74Zm-147.74,49.9a25.33,25.33,0,0,1-1.62,5,18.34,18.34,0,0,1-9.28,9.28c-8.83,3.93-18.3,2.38-24.73-4.05a20.84,20.84,0,0,1-5.65-10.18,21.68,21.68,0,0,1-.44-6.79,24.4,24.4,0,0,1,2-7.76A18.34,18.34,0,0,1,79,103.81c8.83-3.93,18.3-2.38,24.73,4a20.85,20.85,0,0,1,6.1,13A22.66,22.66,0,0,1,109.39,127.64Zm116.91.26a25.55,25.55,0,0,1-1.56,4.69,18.34,18.34,0,0,1-9.28,9.28c-8.83,3.93-18.3,2.38-24.73-4.05a20.85,20.85,0,0,1-5.64-10.12,21.45,21.45,0,0,1-.45-6.8,24.16,24.16,0,0,1,2-7.81,18.34,18.34,0,0,1,9.28-9.28c8.83-3.93,18.3-2.38,24.73,4a20.86,20.86,0,0,1,6.12,13.24A22.48,22.48,0,0,1,226.3,127.9ZM250,120.85a2,2,0,0,1-1.26.36l-15.07-.07a27.66,27.66,0,0,0-8.14-18.09C217,94.58,204.65,92.5,193.2,97.6a25.11,25.11,0,0,0-12.73,12.72,31.61,31.61,0,0,0-2.67,10.55l-3.25,0a9.53,9.53,0,0,1-2.28-4.29l.18-4.59,2.89-73.51,30.53,1.13c5.42.24,10.17,2.58,12.09,6l17.88,31.59a3.4,3.4,0,0,0,2.81,1.72l5.66.24a11.1,11.1,0,0,1,7.74,3.15,4,4,0,0,1,1.15,2.91Z"/><path class="cls-1" d="M212.92,51.53a12.82,12.82,0,0,0-11.13-7l-15.58-.81A4,4,0,0,0,182,47.45l-1.53,23.73a3.92,3.92,0,0,0,1,2.88,4.11,4.11,0,0,0,2.84,1.36l34.23,1.76h.21a4.1,4.1,0,0,0,3.4-1.79,3.91,3.91,0,0,0,.28-3.88ZM187.38,68.77l1.17-18.13,12.89.66a6.19,6.19,0,0,1,5.34,3.13l7.44,15.72Z"/><path class="cls-1" d="M98.22,113.36c-4.49-4.49-11.15-5.2-17-1.82a10.39,10.39,0,0,0-3.81,3.81h0a15.24,15.24,0,0,0-2,5.5,13.43,13.43,0,0,0,13.2,15.41,15,15,0,0,0,7.55-2.12,10.39,10.39,0,0,0,3.81-3.81,15.83,15.83,0,0,0,1.24-2.69,14.11,14.11,0,0,0,.73-6.79A13.25,13.25,0,0,0,98.22,113.36Zm-4,13.56a4.34,4.34,0,0,1-.56.72,3.65,3.65,0,0,1-.79.63c-3.64,2.11-6.8,1.08-8.61-.63a.86.86,0,0,1-.14-.13,6.66,6.66,0,0,1-1.66-6.66,10,10,0,0,1,.9-2.09h0a3.8,3.8,0,0,1,1.35-1.35,8.09,8.09,0,0,1,4.07-1.18,6.62,6.62,0,0,1,4.68,1.94A6.52,6.52,0,0,1,95,120.85,7.39,7.39,0,0,1,94.17,126.92Z"/><path class="cls-1" d="M215.37,113.18c-4.58-4.58-11.37-5.3-17.3-1.86a10.69,10.69,0,0,0-3.88,3.88,15.75,15.75,0,0,0-2,5.74,13.49,13.49,0,0,0,3.88,11.56,13.44,13.44,0,0,0,9.6,4,15.38,15.38,0,0,0,7.7-2.15,10.62,10.62,0,0,0,3.88-3.88,16.25,16.25,0,0,0,1.22-2.62,14.43,14.43,0,0,0,.82-6.79A13.48,13.48,0,0,0,215.37,113.18Zm-4,13.89a3.77,3.77,0,0,1-.58.75,4,4,0,0,1-.83.66c-3.82,2.22-7.13,1.1-9-.71l-.08-.07a6.91,6.91,0,0,1-1.77-6.73,9.48,9.48,0,0,1,1-2.36,4,4,0,0,1,1.41-1.41A8.42,8.42,0,0,1,205.7,116a6.89,6.89,0,0,1,6.63,5.06A7.72,7.72,0,0,1,211.35,127.07Z"/><path class="cls-1" d="M51.05,68.68a3.4,3.4,0,0,0-3.4-3.4H3.4a3.4,3.4,0,0,0,0,6.8H47.65A3.4,3.4,0,0,0,51.05,68.68Z"/><path class="cls-1" d="M19,42.71H60.89a3.4,3.4,0,0,0,0-6.8H19a3.4,3.4,0,1,0,0,6.8Z"/><path class="cls-1" d="M24,54a3.4,3.4,0,0,0,3.39,3.4h43.4a3.4,3.4,0,1,0,0-6.79H27.35A3.39,3.39,0,0,0,24,54Z"/><path class="cls-1" d="M70.48,83.36A3.4,3.4,0,0,0,67.08,80H19.41a3.4,3.4,0,1,0,0,6.79H67.08A3.4,3.4,0,0,0,70.48,83.36Z"/></g></g></svg>