<svg xmlns="http://www.w3.org/2000/svg" viewBox="0 0 188.93 210"><defs><style>.cls-1{fill:#fff;}</style></defs><g id="Layer_2" data-name="Layer 2"><g id="Layer_1-2" data-name="Layer 1"><path class="cls-1" d="M95.4,103.81a35.5,35.5,0,0,0,12,4.35v5.57a4,4,0,0,0,8.06,0v-5.8a16.57,16.57,0,0,0,6.52-3.08,12.92,12.92,0,0,0,4.53-14.78c-1.33-3.48-4.7-8-13.26-9.57a15,15,0,0,1-5.85-2.32c-2.64-1.88-2.3-3.09-2.18-3.54a6.18,6.18,0,0,1,4.17-4.4c4.27-1.51,10.49,0,15.85,3.77a1,1,0,0,0,1.38-.24l3.52-5a1,1,0,0,0,.17-.74,1,1,0,0,0-.41-.64,30.9,30.9,0,0,0-14.44-5.69V55.57a4,4,0,1,0-8.06,0v6.84l-.7.23a14.27,14.27,0,0,0-9.24,9.82c-.75,2.66-1.06,7.79,5.26,12.29a22.67,22.67,0,0,0,9,3.67c3.92.74,6.35,2.26,7.21,4.52a5,5,0,0,1-1.93,5.54c-6.36,4.92-16.95-1.24-17.43-1.53a1.11,1.11,0,0,0-.27-.12,1,1,0,0,0-1.11.43l-3.19,5.19a1,1,0,0,0,.33,1.36Z"/><path class="cls-1" d="M187.5,17.35A26.14,26.14,0,0,0,162.57,0h-133a.78.78,0,0,0-.22,0A30.37,30.37,0,0,0,.11,30.2V200.94a1,1,0,0,0-.11.45v1.23a6.08,6.08,0,0,0,2.88,5.27,5.87,5.87,0,0,0,6.92-.6L20.47,198l11.67,11.67a1,1,0,0,0,1.4,0L45,198.24l11.47,11.47a1,1,0,0,0,.7.29,1,1,0,0,0,.7-.29l11.48-11.47,11.47,11.47a1,1,0,0,0,1.4,0L93.7,198.24l11.47,11.47a1,1,0,0,0,1.4,0L118,198.24l11.47,11.47a1,1,0,0,0,1.4,0L142.59,198l10.46,9a6,6,0,0,0,4.71,1.5,5.94,5.94,0,0,0,5.21-6.07l0-.5a1.37,1.37,0,0,0,0-.19V44.37h16.49a4,4,0,0,0,3-1.37A26,26,0,0,0,187.5,17.35ZM44,25.9A26.56,26.56,0,0,0,37.38,8.06H162.64a17.84,17.84,0,0,1,14.89,28.25H41.82A26.08,26.08,0,0,0,44,25.9Zm-8.1,1.32a18,18,0,0,1-4.55,10.62,3.93,3.93,0,0,0,2.95,6.53H154.91V198l-12-10.38a1,1,0,0,0-1.35.05L130.21,199l-11.47-11.47a1,1,0,0,0-1.4,0L105.87,199,94.4,187.54a1,1,0,0,0-1.4,0L81.53,199,70.06,187.54a1,1,0,0,0-1.41,0L57.18,199,45.71,187.54a1,1,0,0,0-1.4,0L32.84,199,21.52,187.68a1,1,0,0,0-1.35-.05L8.17,198V30.2A22.18,22.18,0,0,1,23,9.31a6.21,6.21,0,0,1,3.61.31l.13.08A18.5,18.5,0,0,1,35.9,27.22Z"/><rect class="cls-1" x="36.15" y="68.44" width="39.99" height="8.06" rx="0.99"/><rect class="cls-1" x="36.15" y="93.12" width="39.99" height="8.06" rx="0.99"/><rect class="cls-1" x="36.15" y="132.58" width="92.45" height="8.06" rx="0.99"/><rect class="cls-1" x="36.15" y="157.25" width="92.45" height="8.06" rx="0.99"/></g></g></svg>