<?xml version="1.0" encoding="UTF-8"?>
<svg id="Layer_2" data-name="Layer 2" xmlns="http://www.w3.org/2000/svg" viewBox="0 0 1996.2871088888 1962.1572">
  <defs>
    <style>
      .cls-1 {
        fill: #fbb03b;
      }
    </style>
  </defs>
  <g id="Layer_1-2" data-name="Layer 1">
    <g>
      <path class="cls-1" d="M821.9331088888,1598.2651c68.3067,63.6035,56.3775,116.7246,51.7964,121.6421-5.3076,5.6948-56.7124,20.5981-125.023-43.0093-68.3066-63.6079-122.3505247119-187.3418-122.3505247119-187.3418,0,0,127.2592247119,45.0928,195.5771247119,108.709Z"/>
      <path class="cls-1" d="M741.1875088888,1834.395c91.6235-17.7842,109.6318-69.166,108.3506-75.7617-1.4868-7.6402-37.2056-47.5049-128.832-29.7139-91.6260247807,17.7915-202.9893219674,94.1406-202.9893219674,94.1406,0,0,131.8340219674,29.1294,223.4707219674,11.335Z"/>
      <path class="cls-1" d="M618.1542843841,1522.2436c41.5947245047,77.9956,14.5497996324,121.9004,8.9398997742,124.8941-6.5072998356,3.4653-57.1380985566.9848-98.7357975057-77.0108-41.5980989491-78.0034-51.9032986888-205.4575-51.9032986888-205.4575,0,0,100.0936974714,79.5635,141.6991964204,157.5742Z"/>
      <path class="cls-1" d="M473.1332880476,1708.8696c87.5365977886,12.2764,119.4824208411-28.1943,120.3686969592-34.4961,1.0223999742-7.3008-18.6992761181-54-106.2402761181-66.2764-87.5361189867-12.2763-210.7876158731,21.8223-210.7876158731,21.8223,0,0,109.1069972437,66.6743,196.659195032,78.9502Z"/>
      <path class="cls-1" d="M453.5117088888,1406.1889c17.7533792061,79.5943-17.119119913,111.9727-22.8408197685,113.249-6.6400998323,1.4737-51.0390987106-13.2128-68.8007982619-92.8105-17.7577995514-79.6089,4.4882998866-195.4678,4.4882998866-195.4678,0,0,69.3843181438,95.4131,87.1533181438,175.0293Z"/>
      <path class="cls-1" d="M278.5707929627,1536.372c74.8061981102,32.4898,113.1815971408,4.3867,115.5224970817-.9951,2.7089999316-6.2461-3.3149999163-52.624-78.1249980264-85.124-74.8032981103-32.4839-192.7944951296-32.5464-192.7944951296-32.5464,0,0,80.5751979645,86.1743,155.3969960743,118.6655Z"/>
      <path class="cls-1" d="M331.1527916344,1258.9907c1.3183999667,74.9946-36.0795990886,97.7392-41.4681989524,97.8349-6.256399842.0962-43.5512988998-21.3276-44.8798837932-96.3222-1.3135150399-75.0088,40.0995839139-175.3018,40.0995839139-175.3018,0,0,44.9198988652,98.7725,46.2484988317,173.7891Z"/>
      <path class="cls-1" d="M149.5053962232,1344.0317c61.4149984485,43.0679,101.1825974439,24.8223,104.2758973658,20.4038,3.5951999092-5.1265,6.7210998302-48.0268-54.6938986183-91.1089-61.4110984486-43.0703-167.7206860818-64.8887-167.7206860818-64.8887,0,0,56.7094888862,92.5088,118.1386873344,135.5938Z"/>
      <path class="cls-1" d="M254.4232935727,1117.1069c-19.4662995082,67.4941-59.2001985045,77.5566-64.050198382,76.1567-5.6249998579-1.6347-33.112386302-31.0742-13.657299655-98.5766,19.4780995079-67.4942,84.1523978741-145.8741,84.1523978741-145.8741,0,0,13.0189996711,100.7847-6.4448998372,168.294Z"/>
      <path class="cls-1" d="M68.4242982715,1143.2202c43.1117989109,55.4585,83.7275978849,50.0771,87.718297784,46.9726,4.6244998832-3.6059,19.2338995141-41.144-23.8813993967-96.6054C89.1537977478,1038.1294,0,989.3305,0,989.3305c0,0,25.294399361,98.418,68.4242982715,153.8897Z"/>
      <path class="cls-1" d="M226.1797088888,956.5092c-29.4805138578,61.0352-68.9077128618,64.1509-73.2891127511,62.0362-5.0902998714-2.4737-26.4501993318-34.9366,3.0191127511-95.979,29.4916864276-61.0357,103.737284552-125.0821,103.737284552-125.0821,0,0-3.9906998992,97.9751-33.467284552,159.0249Z"/>
      <path class="cls-1" d="M45.0272988625,951.1381c31.9975991917,59.7481,71.4985981938,61.232,75.8027980851,58.9209,4.9823998741-2.6762,24.976999369-36.0102-7.0204998226-95.7607-31.9980991917-59.7505-108.8637972499-120.6528-108.8637972499-120.6528,0,0,8.0689090137,97.7241,40.0814989875,157.4926Z"/>
      <path class="cls-1" d="M212.9955946193,804.3642c-35.7299990974,48.2603-70.5653982174,44.4624-74.0277981299,41.9009-4.0155998986-2.9898-17.2558995641-34.7769,18.4629123994-83.0376,35.7401862313-48.2642,110.923284332-91.7632,110.923284332-91.7632,0,0-19.632799504,84.6211-55.3583986015,132.8999Z"/>
      <path class="cls-1" d="M56.2030985802,769.7978c17.9936995454,57.2847,52.1283986831,65.0991,56.2626985787,63.792,4.7769117299-1.5059,27.6752993009-27.2173,9.6855997553-84.5103-17.9902995455-57.2773-74.8510981091-122.9711-74.8510981091-122.9711,0,0-9.0980997702,86.3862,8.9027997751,143.6894Z"/>
      <path class="cls-1" d="M239.9804939376,655.6777c-38.7817850488,39.623-70.1591982276,31.7466-73.0048981557,28.9634-3.2929999168-3.2403-11.3832997124-33.9947,27.3876993081-73.6143,38.7958990199-39.623,113.056597144-69.9043,113.056597144-69.9043,0,0-28.6537992761,74.9097-67.4393982963,114.5552Z"/>
      <path class="cls-1" d="M100.9462974499,604.2353c9.2089997674,54.6758,39.4457990035,66.1333,43.3959989037,65.4644,4.5546998849-.7744,28.7460992738-21.4004,19.5434125352-76.0796-9.2124127962-54.6607-52.9145116922-121.9336-52.9145116922-121.9336,0,0-19.2450995138,77.8623-10.0248997467,132.5488Z"/>
      <path class="cls-1" d="M286.0224927745,519.5932c-39.150899011,27.8667-64.7148983652,16.336-66.7153983146,13.5274-2.3109999416-3.2705-4.5106998861-30.7432,34.636799125-58.6109,39.1654990106-27.8594,107.1585972929-42.3208,107.1585972929-42.3208,0,0-35.9173990927,59.5181-75.0799981033,87.4043Z"/>
      <path class="cls-1" d="M175.2870955719,454.416c-.516099987,48.0503,23.5234994057,62.4526,26.9966133169,62.4936,4.0053858999.0332,27.8012852988-13.8603,28.3256852855-61.9179.512699987-48.0352-26.4726852855-112.1265-26.4726852855-112.1265,0,0-28.3398133298,63.4785-28.8496133169,111.5508Z"/>
      <path class="cls-1" d="M341.935091362,401.9296c-38.7451990212,19.9166-60.1865984796,6.252-61.6147984435,3.4727-1.6498999583-3.2368-.0521999987-28.1733,38.6855990227-48.0908,38.7596990208-19.9053,101.6405974323-24.0503,101.6405974323-24.0503,0,0-39.9560989906,48.7363-78.7113980116,68.6684Z"/>
      <path class="cls-1" d="M251.046393658,329.0683c-6.7030998307,43.0449,12.9965996717,59.0899,16.1039995932,59.5772,3.5873999094.5498,26.7450993244-8.8252,33.4555991548-51.8775,6.7030998307-43.0307-9.1874997679-104.0361-9.1874997679-104.0361,0,0-33.6728991494,53.2725-40.3720989801,96.3364Z"/>
      <path class="cls-1" d="M413.4823895546,309.4321c-38.0292990393,12.4536-55.5062985978-3.0493-56.3964985753-5.773-1.0252999741-3.1782,4.0351998981-25.5649,42.0600989375-38.0254,38.0434990389-12.4428,95.6830975828-7.0864,95.6830975828-7.0864,0,0-43.2997989062,38.4199-81.346697945,50.8848Z"/>
      <path class="cls-1" d="M341.5907913707,230.1704c-12.3202996888,38.0766,3.2265999185,55.4834,5.9804998489,56.3764,3.1698999199,1.0191,25.5380993549-4.1333,37.8588990436-42.2104,12.3168996888-38.062,6.7357998298-95.7085,6.7357998298-95.7085,0,0-38.2611990334,43.4468-50.5751987224,81.5425Z"/>
      <path class="cls-1" d="M492.4594875594,225.9585c-34.2826991339,6.1606-47.4819988005-9.3116-47.9247786706-11.7706-.502-2.8603,6.5555797157-21.5517,40.8412788496-27.7197,34.3012991335-6.1416,83.3480978944,5.4185,83.3480978944,5.4185,0,0-41.9564989401,27.9077-76.2645980734,34.0718Z"/>
      <path class="cls-1" d="M440.028288884,148.9672c-15.2074996158,31.3404-3.9017999014,48.2237-1.6351999587,49.3238,2.612799934,1.2622,22.5150994312-.4839,37.7226199635-31.8282,15.2065786994-31.3369,17.333-81.705,17.333-81.705,0,0-38.2168203889,32.8501-53.4204200048,64.2094Z"/>
      <path class="cls-1" d="M591.1801850655,149.768c-29.2182992619,2.624-39.1401990112-11.3349-39.3285990065-13.4316-.2104999947-2.4361,7.0985998207-17.5918,36.3163990826-20.2197,29.2333992615-2.6094,69.5249237472,10.7299,69.5249237472,10.7299,0,0-37.2730245619,20.2974-66.5127238233,22.9214Z"/>
      <path class="cls-1" d="M552.9110860323,81.2924c-15.081499619,25.1617-6.850099827,40.1617-5.0340998728,41.2539,2.096099947,1.2549,18.9271995219,1.2701,34.0087227293-23.8994,15.0815760305-25.1582,20.604075891-67.2578,20.604075891-67.2578,0,0-34.497075891,24.7183-49.5786987475,49.9033Z"/>
      <path class="cls-1" d="M680.5850088888,101.2016c-26.0591-3.518-31.9497-17.6953-31.6953-19.5664.3027-2.1709,9.7036-13.9595,35.7626-10.4385,26.0625,3.5362,58.6211,23.2095,58.6211,23.2095,0,0-36.6152,10.3198-62.6884,6.7954Z"/>
      <path class="cls-1" d="M660.7705088888,33.7402c-18.1855251219,18.9902-13.9809252281,33.7358-12.6118,35.0537,1.5835,1.5176,16.2886,4.8755,34.478-14.1147,18.1895-18.983,31.3887-54.6792,31.3887-54.6792,0,0-35.0645,14.7387-53.2549,33.7402Z"/>
      <path class="cls-1" d="M728.0332088888,26.6494c-19.688,9.56-20.6738,22.2837-19.9868,23.7114.7974,1.6431,11.3013,8.5229,30.9976-1.0405,19.6875-9.5493,40.3242-33.5923,40.3242-33.5923,0,0-31.6363,1.3545-51.335,10.9214Z"/>
      <path class="cls-1" d="M1174.3550088888,1598.2651c-68.3071,63.6035-56.3775,116.7246-51.7974,121.6421,5.3076,5.6948,56.7129,20.5981,125.0235-43.0093,68.3061-63.6079,122.3505-187.3418,122.3505-187.3418,0,0-127.2592,45.0928-195.5766,108.709Z"/>
      <path class="cls-1" d="M1255.0996088888,1834.395c-91.6225-17.7842-109.6313-69.166-108.3506-75.7617,1.4873-7.6402,37.2056-47.5049,128.8325-29.7139,91.627,17.7915,202.9888,94.1406,202.9888,94.1406,0,0-131.833,29.1294-223.4707,11.335Z"/>
      <path class="cls-1" d="M1378.1333088888,1522.2436c-41.5942,77.9956-14.5498,121.9004-8.939,124.8941,6.5074,3.4653,57.1368.9848,98.7344-77.0108,41.5986-78.0034,51.9038-205.4575,51.9038-205.4575,0,0-100.0937,79.5635-141.6992,157.5742Z"/>
      <path class="cls-1" d="M1523.1553088888,1708.8696c-87.5381,12.2764-119.4839-28.1943-120.3692-34.4961-1.0219-7.3008,18.6983-54,106.2393-66.2764,87.5361-12.2763,210.7881,21.8223,210.7881,21.8223,0,0-109.1074,66.6743-196.6582,78.9502Z"/>
      <path class="cls-1" d="M1542.7773088888,1406.1889c-17.7553,79.5943,17.1182,111.9727,22.8389,113.249,6.6406,1.4737,51.0401-13.2128,68.8023-92.8105,17.7563-79.6089-4.4898-195.4678-4.4898-195.4678,0,0-69.3838,95.4131-87.1514,175.0293Z"/>
      <path class="cls-1" d="M1717.7178088888,1536.372c-74.8076,32.4898-113.1826,4.3867-115.5225-.9951-2.7095-6.2461,3.3135-52.624,78.1236-85.124,74.8032-32.4839,192.7944-32.5464,192.7944-32.5464,0,0-80.5752,86.1743-155.3955,118.6655Z"/>
      <path class="cls-1" d="M1665.1343088888,1258.9907c-1.3169,74.9946,36.0801,97.7392,41.4692,97.8349,6.2559.0962,43.5503-21.3276,44.8789-96.3222,1.3145-75.0088-40.0996-175.3018-40.0996-175.3018,0,0-44.9199,98.7725-46.2485,173.7891Z"/>
      <path class="cls-1" d="M1846.7822088888,1344.0317c-61.416,43.0679-101.1831,24.8223-104.2754,20.4038-3.5947-5.1265-6.7226-48.0268,54.6934-91.1089,61.4116-43.0703,167.7212-64.8887,167.7212-64.8887,0,0-56.7085,92.5088-118.1392,135.5938Z"/>
      <path class="cls-1" d="M1741.8638088888,1117.1069c19.4668,67.4941,59.2007,77.5566,64.0503,76.1567,5.625-1.6347,33.1132-31.0742,13.6582-98.5766-19.4781-67.4942-84.1533-145.8741-84.1533-145.8741,0,0-13.0176,100.7847,6.4448,168.294Z"/>
      <path class="cls-1" d="M1927.8633088888,1143.2202c-43.1109,55.4585-83.7285,50.0771-87.7173,46.9726-4.626-3.6059-19.2349-41.144,23.8809-96.6054,43.1079-55.458,132.2602-104.2569,132.2602-104.2569,0,0-25.2939,98.418-68.4238,153.8897Z"/>
      <path class="cls-1" d="M1770.1079088888,956.5092c29.48,61.0352,68.9082,64.1509,73.2886,62.0362,5.0903-2.4737,26.4512-34.9366-3.0186-95.979-29.4912-61.0357-103.7373-125.0821-103.7373-125.0821,0,0,3.9903,97.9751,33.4673,159.0249Z"/>
      <path class="cls-1" d="M1951.2612088888,951.1381c-31.998,59.7481-71.5,61.232-75.8042,58.9209-4.9824-2.6762-24.9755-36.0102,7.021-95.7607,31.9986-59.7505,108.8638-120.6528,108.8638-120.6528,0,0-8.0693,97.7241-40.0806,157.4926Z"/>
      <path class="cls-1" d="M1783.2920088888,804.3642c35.7295,48.2603,70.5664,44.4624,74.0273,41.9009,4.0166-2.9898,17.2559-34.7769-18.4614-83.0376-35.7407-48.2642-110.9238-91.7632-110.9238-91.7632,0,0,19.6323,84.6211,55.3579,132.8999Z"/>
      <path class="cls-1" d="M1940.0850088888,769.7978c-17.9947,57.2847-52.1299,65.0991-56.2637,63.792-4.7754-1.5059-27.6758-27.2173-9.6841-84.5103,17.9898-57.2773,74.8496-122.9711,74.8496-122.9711,0,0,9.0982,86.3862-8.9018,143.6894Z"/>
      <path class="cls-1" d="M1756.3071088888,655.6777c38.7827,39.623,70.1587,31.7466,73.0044,28.9634,3.293-3.2403,11.3843-33.9947-27.3867-73.6143-38.7969-39.623-113.0576-69.9043-113.0576-69.9043,0,0,28.6543,74.9097,67.4399,114.5552Z"/>
      <path class="cls-1" d="M1895.3418088888,604.2353c-9.21,54.6758-39.4473,66.1333-43.3955,65.4644-4.5547-.7744-28.7461-21.4004-19.5449-76.0796,9.2138-54.6607,52.9155-121.9336,52.9155-121.9336,0,0,19.2446,77.8623,10.0249,132.5488Z"/>
      <path class="cls-1" d="M1710.2647088888,519.5932c39.1508,27.8667,64.7158,16.336,66.7158,13.5274,2.311-3.2705,4.5102-30.7432-34.6367-58.6109-39.1651-27.8594-107.1582-42.3208-107.1582-42.3208,0,0,35.9179,59.5181,75.0791,87.4043Z"/>
      <path class="cls-1" d="M1821.0000088888,454.416c.5166,48.0503-23.5225,62.4526-26.9971,62.4936-4.0048.0332-27.7998-13.8603-28.3252-61.9179-.5117-48.0352,26.4732-112.1265,26.4732-112.1265,0,0,28.3398,63.4785,28.8491,111.5508Z"/>
      <path class="cls-1" d="M1654.3525088888,401.9296c38.7447,19.9166,60.1871,6.252,61.6143,3.4727,1.6504-3.2368.0522-28.1733-38.6855-48.0908-38.7588-19.9053-101.6402-24.0503-101.6402-24.0503,0,0,39.9561,48.7363,78.7114,68.6684Z"/>
      <path class="cls-1" d="M1745.2407088888,329.0683c6.7032,43.0449-12.9956,59.0899-16.103,59.5772-3.5884.5498-26.7451-8.8252-33.4561-51.8775-6.7026-43.0307,9.1866-104.0361,9.1866-104.0361,0,0,33.6738,53.2725,40.3725,96.3364Z"/>
      <path class="cls-1" d="M1582.8057088888,309.4321c38.0298,12.4536,55.5063-3.0493,56.3955-5.773,1.0254-3.1782-4.0342-25.5649-42.0596-38.0254-38.0425-12.4428-95.6826-7.0864-95.6826-7.0864,0,0,43.2998,38.4199,81.3467,50.8848Z"/>
      <path class="cls-1" d="M1654.6963088888,230.1704c12.3208,38.0766-3.2266,55.4834-5.9795,56.3764-3.1709,1.0191-25.5391-4.1333-37.8584-42.2104-12.3184-38.062-6.7363-95.7085-6.7363-95.7085,0,0,38.2597,43.4468,50.5742,81.5425Z"/>
      <path class="cls-1" d="M1503.8286088888,225.9585c34.2818,6.1606,47.481-9.3116,47.9248-11.7706.5015-2.8603-6.5552-21.5517-40.8418-27.7197-34.3008-6.1416-83.3476,5.4185-83.3476,5.4185,0,0,41.9565,27.9077,76.2646,34.0718Z"/>
      <path class="cls-1" d="M1556.2603088888,148.9672c15.2065,31.3404,3.9003,48.2237,1.6347,49.3238-2.6137,1.2622-22.5161-.4839-37.7221-31.8282-15.2081-31.3369-17.3335-81.705-17.3335-81.705,0,0,38.2172,32.8501,53.4209,64.2094Z"/>
      <path class="cls-1" d="M1405.1074088888,149.768c29.2188,2.624,39.1402-11.3349,39.3282-13.4316.2104-2.4361-7.0977-17.5918-36.316-20.2197-29.2334-2.6094-69.5249,10.7299-69.5249,10.7299,0,0,37.2725,20.2974,66.5127,22.9214Z"/>
      <path class="cls-1" d="M1443.3765088888,81.2924c15.0815,25.1617,6.8506,40.1617,5.0351,41.2539-2.0976,1.2549-18.9287,1.2701-34.0102-23.8994-15.0816-25.1582-20.6031-67.2578-20.6031-67.2578,0,0,34.4966,24.7183,49.5782,49.9033Z"/>
      <path class="cls-1" d="M1315.7031088888,101.2016c26.0586-3.518,31.9502-17.6953,31.6949-19.5664-.3023-2.1709-9.7037-13.9595-35.7623-10.4385-26.0625,3.5362-58.6215,23.2095-58.6215,23.2095,0,0,36.6157,10.3198,62.6889,6.7954Z"/>
      <path class="cls-1" d="M1335.5166088888,33.7402c18.1856,18.9902,13.9819,33.7358,12.6123,35.0537-1.584,1.5176-16.2881,4.8755-34.4785-14.1147-18.1885-18.983-31.3882-54.6792-31.3882-54.6792,0,0,35.0654,14.7387,53.2544,33.7402Z"/>
      <path class="cls-1" d="M1268.2549088888,26.6494c19.6875,9.56,20.6733,22.2837,19.9873,23.7114-.7979,1.6431-11.3027,8.5229-30.9981-1.0405-19.6879-9.5493-40.3242-33.5923-40.3242-33.5923,0,0,31.6358,1.3545,51.335,10.9214Z"/>
      <path class="cls-1" d="M858.9692088888,1745.4926s81.7749,40.4649,123.9302,87.6768c35.0835,39.292,71.6548,80.0889,91.0474,128.9878,0,0,24.4497-5.061,34.5664-14.333,0,0-102.0093-166.9234-242.8003-212.4478,0,0-8.4302-2.5302-6.7437,10.1162Z"/>
      <path class="cls-1" d="M1130.9697088888,1745.4926s-81.7744,40.4649-123.9306,87.6768c-35.0826,39.292-71.6543,80.0889-91.0474,128.9878,0,0-24.4492-5.061-34.5664-14.333,0,0,102.0093-166.9234,242.8008-212.4478,0,0,8.4306-2.5302,6.7436,10.1162Z"/>
    </g>
  </g>
</svg>