<svg xmlns="http://www.w3.org/2000/svg" width="519.36796" height="200.47548" viewBox="0 0 519.36796 200.47548">
  <defs>
    <style>
      .cls-1 {
        fill: #222;
      }

      .cls-2 {
        fill: #002d75;
      }

      .cls-3 {
        fill: #dc266f;
      }

      .cls-4 {
        fill: #2ca1d8;
      }
    </style>
  </defs>
  <title>Asset 4</title>
  <g id="Layer_2" data-name="Layer 2">
    <g id="Layer_1-2" data-name="Layer 1">
      <g>
        <path class="cls-1" d="M29.10915,131.98255H0v-5.44716H11.15456v-5.22554h6.8492v5.22554H29.10915Zm-2.47988,11.21328c0,5.6634-4.95979,9.37833-12.0747,9.37833-7.169,0-12.18292-3.71493-12.18292-9.37833,0-5.658,5.01388-9.49125,12.18292-9.49125,7.11491,0,12.0747,3.83326,12.0747,9.49125m14.06742,26.36371H7.11491V155.22176h6.84428v8.83656h26.7375Zm-31.589-26.36371c-.05413,2.69685,2.15516,4.1528,5.4469,4.1528,3.28683,0,5.55022-1.456,5.55022-4.1528,0-2.69626-2.26339-4.20205-5.55022-4.25611-3.29174.05406-5.501,1.55985-5.4469,4.25611m29.81279-6.73613h6.62776v5.60453H38.92046v15.9571H32.02205V121.41857h6.89841Z"/>
        <path class="cls-1" d="M87.24039,127.34925a67.1845,67.1845,0,0,1-.96935,13.044h6.30307v5.50123H73.49273v7.05567H87.29445v17.46769H80.39111V158.34327h-28.189v-5.39311H66.59428v-7.05567H47.67045v-5.50123H79.31853a57.38825,57.38825,0,0,0,1.07258-11.4301H53.17145V123.5214H87.24039Z"/>
        <path class="cls-1" d="M121.4879,158.71987H97.77149V125.78279H121.4879ZM104.67,153.2775h10.136V131.1753H104.67ZM136.42137,170.529h-6.95251V121.36451h6.95251Z"/>
        <path class="cls-1" d="M169.86538,131.28341H152.885v21.72381c8.783-.02943,14.17568-.21683,20.37545-1.34843l.64943,5.65859c-6.79507,1.29377-13.04889,1.5106-23.672,1.5106h-4.25618v-33.1491h23.88369ZM184.0952,170.529h-6.95251V121.36451h6.95251Z"/>
        <path class="cls-1" d="M216.78188,139.10009h8.51725v-17.738h6.79019v49.16506h-6.79019V144.60132H216.836c-.7282,9.43238-5.77159,15.19909-12.61591,15.19909-7.43963,0-12.77831-6.74094-12.72418-17.52175-.05413-10.6721,5.28455-17.4671,12.72418-17.4671,6.62779,0,11.563,5.47119,12.56177,14.28853m-18.70733,3.17857c-.05413,7.332,2.47988,11.26793,6.14556,11.26793,3.71981,0,6.14556-3.936,6.14556-11.26793,0-7.27671-2.42575-11.26733-6.14556-11.26733-3.66568,0-6.19969,3.99062-6.14556,11.26733"/>
        <path class="cls-1" d="M283.271,164.48657H238.36732V158.882H283.271Zm-33.2669-31.85473h21.40374v-8.14342h6.84921v26.20094h-35.1514V124.48842h6.89845Zm21.40374,5.33845H250.004v7.32656h21.40381Z"/>
        <path class="cls-1" d="M306.68478,140.60709h-12.0206v5.01411a69.438,69.438,0,0,0,14.01336-1.18566l.59043,5.44657c-5.71258,1.02348-10.56414,1.18625-17.84137,1.18625h-3.39509v-15.524H300.052v-4.80269H287.97737v-5.39251h18.70741Zm22.74706,28.95185h-34.502V154.355h6.90334v9.70328h27.59862Zm-1.23993-11.755h-6.52449V140.878h-4.25618v15.903H310.995V122.27868h6.41622V135.3275h4.25618V121.418h6.52449Z"/>
        <path class="cls-1" d="M378.6162,164.43312H333.7125v-5.6586h44.9037Zm-4.90562-14.87475H338.99209V125.46325h34.34452v5.54567H345.78724v13.04882h27.92334Z"/>
        <path class="cls-1" d="M408.76745,130.10016H404.7278v13.09807c1.64341-.13754,3.25732-.30032,4.79247-.48712l.27066,5.06277c-9.21593,1.57006-19.94734,1.72742-27.70681,1.72742l-.69869-5.55047,5.22546-.05406V130.10016h-3.98552v-5.506h26.14208ZM422.88908,161.305c-.05413,5.71806-6.35721,9.11285-16.92134,9.11285-10.51489,0-16.877-3.39479-16.877-9.11285,0-5.87,6.36208-9.1615,16.877-9.21555,10.56413.054,16.86721,3.34554,16.92134,9.21555m-24.73982-17.73257V130.10016h-4.9057V143.7346ZM395.94,161.305c0,2.59355,3.44923,3.88251,10.02777,3.88251,6.57366,0,10.082-1.289,10.082-3.88251,0-2.69145-3.50831-3.93116-10.082-3.93116-6.57854,0-10.02777,1.23971-10.02777,3.93116m26.79167-9.96875h-6.84928v-7.33137h-6.03729v-5.49581h6.03729v-3.7738h-6.03729v-5.39311h6.03729v-7.98065h6.84928Z"/>
        <path class="cls-1" d="M432.39722,161.84858l-3.88221-5.2844c11.61713-5.82076,17.84144-13.63443,19.13551-24.58223H431.31968v-5.60453h23.34244c-.05413,14.66273-5.77166,27.3872-22.2649,35.47116m35.363-21.66975h6.95251v5.6586h-6.95251v24.47411h-6.89846V121.36331h6.89846Z"/>
        <path class="cls-1" d="M519.368,169.55834H482.81911V154.89021h6.84433v-6.5193c-4.394.1868-8.57138.21683-12.28624.21683l-.81191-5.44237c9.00436-.05886,21.12827-.167,31.48084-1.45654l.37885,4.906c-3.88221.64448-7.89724,1.10216-11.86309,1.39708V157.321h-6.89845v6.74093H519.368ZM504.7593,131.878c0,5.22494-5.12215,8.62514-12.23714,8.62514-7.28218,0-12.34524-3.4002-12.34524-8.62514,0-5.23094,5.00892-8.84256,12.34524-8.7879,7.115-.05466,12.23714,3.557,12.23714,8.7879m-18.06286,0c-.05413,2.37131,2.32244,3.66569,5.82572,3.66569,3.28691,0,5.65852-1.29438,5.71265-3.66569-.05413-2.43077-2.42574-3.77439-5.71265-3.77439-3.50328,0-5.87985,1.34362-5.82572,3.77439m31.594,26.57454H511.392v-3.88191h-9.38321v-4.68916H511.392V121.42217h6.89845Z"/>
        <polygon class="cls-1" points="29.7 200.3 25.719 200.3 17.285 189.224 12.862 194.027 12.862 200.3 9.565 200.3 9.565 176.289 12.862 176.289 12.862 189.771 25.138 176.289 29.085 176.289 19.583 186.651 29.7 200.3"/>
        <path class="cls-1" d="M45.871,183.224a8.33221,8.33221,0,0,1,3.29179,3.23743,9.40114,9.40114,0,0,1,1.18581,4.75283,9.49794,9.49794,0,0,1-1.18581,4.76845A8.35352,8.35352,0,0,1,45.871,199.24a10.60578,10.60578,0,0,1-9.66858,0,8.42565,8.42565,0,0,1-3.29667-3.24283,10.21524,10.21524,0,0,1,0-9.5357A8.37629,8.37629,0,0,1,36.2024,183.224a10.601,10.601,0,0,1,9.66858,0m-7.99071,2.43018a5.71805,5.71805,0,0,0-2.16007,2.28361,6.99466,6.99466,0,0,0-.77249,3.31131,7.16858,7.16858,0,0,0,.77249,3.36056,5.54973,5.54973,0,0,0,2.16007,2.27821,6.1645,6.1645,0,0,0,3.17365.80666,6.10132,6.10132,0,0,0,3.13923-.80666,5.54989,5.54989,0,0,0,2.16-2.27821,7.1686,7.1686,0,0,0,.77253-3.36056,6.99468,6.99468,0,0,0-.77253-3.31131,5.71823,5.71823,0,0,0-2.16-2.28361,6.06458,6.06458,0,0,0-3.13923-.82167,6.12654,6.12654,0,0,0-3.17365.82167"/>
        <path class="cls-1" d="M60.53634,183.09788a7.51767,7.51767,0,0,1,3.90676-1.0427V185.14a5.84026,5.84026,0,0,0-6.44572,5.59433v9.56573H54.809V182.15849h3.18841v3.91134a6.61412,6.61412,0,0,1,2.539-2.97195"/>
        <path class="cls-1" d="M81.55875,184.54121a10.18573,10.18573,0,0,1,2.16,6.90851c0,.46249-.00984.80185-.02951,1.0331H69.3512a6.14457,6.14457,0,0,0,2.04193,3.8723,6.04374,6.04374,0,0,0,4.09874,1.44152,7.65564,7.65564,0,0,0,2.9965-.58021,7.17747,7.17747,0,0,0,2.42087-1.64875l1.75168,1.82053a9.20339,9.20339,0,0,1-3.22782,2.229,10.7138,10.7138,0,0,1-4.18231.78744,9.69069,9.69069,0,0,1-4.75313-1.14662,8.111,8.111,0,0,1-3.22286-3.24223,10.41732,10.41732,0,0,1,0-9.52128,8.36665,8.36665,0,0,1,3.20807-3.25725,9.26928,9.26928,0,0,1,4.699-1.18085q4.22177,0,6.37688,2.48483m-.71836,5.47119a5.25954,5.25954,0,0,0-5.62406-5.31863A5.74411,5.74411,0,0,0,71.221,186.1353a6.05257,6.05257,0,0,0-1.90424,3.8771Z"/>
        <path class="cls-1" d="M99.15859,200.3025v-2.53889q-2.02964,2.67944-6.34738,2.677a7.22137,7.22137,0,0,1-3.31138-.72316,5.243,5.243,0,0,1-2.18962-1.98811,5.36053,5.36053,0,0,1-.77737-2.84881,4.65391,4.65391,0,0,1,1.80574-3.85789,8.042,8.042,0,0,1,5.01884-1.45594h5.7667v-.86131a3.72866,3.72866,0,0,0-1.1858-2.96234,5.03868,5.03868,0,0,0-3.44923-1.04811,9.87518,9.87518,0,0,0-5.58959,1.95387l-1.3383-2.18992a16.48936,16.48936,0,0,1,3.62139-1.83494,12.29176,12.29176,0,0,1,3.961-.5658,7.60287,7.60287,0,0,1,5.25,1.65775,6.0172,6.0172,0,0,1,1.88457,4.65013l.03446,11.93644Zm-1.90417-3.587a4.26251,4.26251,0,0,0,1.8697-2.86323v-1.81573H93.80519a6.22185,6.22185,0,0,0-3.20815.64929,2.24982,2.24982,0,0,0-1.04308,2.062,2.68326,2.68326,0,0,0,1.06276,2.229,4.54418,4.54418,0,0,0,2.844.82167,6.50188,6.50188,0,0,0,3.79369-1.083"/>
        <polygon class="cls-1" points="117.304 176.289 121.215 176.289 129.993 193.171 138.707 176.289 142.649 176.289 142.649 200.301 139.563 200.301 139.529 181.126 130.987 197.762 128.965 197.762 120.354 181.126 120.354 200.301 117.304 200.301 117.304 176.289"/>
        <path class="cls-1" d="M162.8513,184.54121a10.18573,10.18573,0,0,1,2.16,6.90851c0,.46249-.00983.80185-.02951,1.0331H150.64375a6.14463,6.14463,0,0,0,2.04194,3.8723,6.04372,6.04372,0,0,0,4.09874,1.44152,7.65568,7.65568,0,0,0,2.9965-.58021,7.22657,7.22657,0,0,0,2.42086-1.64875l1.75168,1.82053a9.20339,9.20339,0,0,1-3.22782,2.229,10.73126,10.73126,0,0,1-4.1823.78744,9.69066,9.69066,0,0,1-4.75313-1.14662,8.08037,8.08037,0,0,1-3.22287-3.24223,10.41732,10.41732,0,0,1,0-9.52128,8.33377,8.33377,0,0,1,3.20808-3.25725,9.26922,9.26922,0,0,1,4.699-1.18085q4.22175,0,6.37687,2.48483m-.71836,5.47119a5.25954,5.25954,0,0,0-5.624-5.31863,5.7356,5.7356,0,0,0-3.99536,1.44153,6.05262,6.05262,0,0,0-1.90424,3.8771Z"/>
        <path class="cls-1" d="M186.27836,174.85475v25.44354H183.09v-3.59721a7.19616,7.19616,0,0,1-2.76037,2.79,8.04,8.04,0,0,1-4.02982.98444,8.62923,8.62923,0,0,1-4.54644-1.18626,8.10721,8.10721,0,0,1-3.07038-3.29629,10.24029,10.24029,0,0,1-1.09721-4.8171,9.99708,9.99708,0,0,1,1.09721-4.748,8.0477,8.0477,0,0,1,3.07038-3.238,8.69627,8.69627,0,0,1,4.512-1.16584,8.27823,8.27823,0,0,1,4.07907.95922A6.813,6.813,0,0,1,183.09,185.7581V174.85475Zm-6.15539,22.053a5.86961,5.86961,0,0,0,2.17971-2.29743,7.01089,7.01089,0,0,0,.78728-3.33113,7.08534,7.08534,0,0,0-.78728-3.36056,5.83923,5.83923,0,0,0-2.17971-2.298,6.12686,6.12686,0,0,0-3.17369-.82167,5.99817,5.99817,0,0,0-3.17368.84149,5.849,5.849,0,0,0-2.17483,2.31726,7.37968,7.37968,0,0,0,0,6.65264,5.823,5.823,0,0,0,2.17483,2.29743,6.53581,6.53581,0,0,0,6.34737,0"/>
        <path class="cls-1" d="M195.69753,175.50344a2.20178,2.20178,0,0,1,0,2.94732,2.03266,2.03266,0,0,1-2.844,0,2.18785,2.18785,0,0,1,0-2.94732,2.01927,2.01927,0,0,1,2.844,0m-3.00145,6.652h3.1884V200.3019h-3.1884Z"/>
        <path class="cls-1" d="M213.17379,200.3025v-2.53889q-2.02962,2.67944-6.34737,2.677a7.22132,7.22132,0,0,1-3.31138-.72316,5.243,5.243,0,0,1-2.18962-1.98811,5.36053,5.36053,0,0,1-.77737-2.84881,4.65392,4.65392,0,0,1,1.80573-3.85789,8.03215,8.03215,0,0,1,5.01884-1.45594h5.76671v-.86131a3.72864,3.72864,0,0,0-1.18581-2.96234,5.03866,5.03866,0,0,0-3.44923-1.04811,9.86333,9.86333,0,0,0-5.58959,1.95387l-1.33829-2.18992a16.48909,16.48909,0,0,1,3.62138-1.83494,12.2918,12.2918,0,0,1,3.961-.5658,7.60287,7.60287,0,0,1,5.25,1.65775,6.0172,6.0172,0,0,1,1.88457,4.65013l.03446,11.93644Zm-1.90417-3.587a4.26253,4.26253,0,0,0,1.86971-2.86323v-1.81573H207.8204a6.22185,6.22185,0,0,0-3.20815.64929,2.24982,2.24982,0,0,0-1.04308,2.062,2.68325,2.68325,0,0,0,1.06275,2.229,4.5442,4.5442,0,0,0,2.844.82167,6.50186,6.50186,0,0,0,3.79369-1.083"/>
        <path class="cls-1" d="M247.349,177.88616a5.19986,5.19986,0,0,1,2.11086,4.40867,5.30761,5.30761,0,0,1-1.16613,3.47888,5.63931,5.63931,0,0,1-3.1884,1.904,6.263,6.263,0,0,1,3.92643,2.00732,5.95376,5.95376,0,0,1,1.422,4.06451,5.699,5.699,0,0,1-2.31259,4.8219,10.50658,10.50658,0,0,1-6.39655,1.72743H231.31833V176.28727h10.25413a9.37832,9.37832,0,0,1,5.77654,1.59889m-2.49954,7.6461a3.19168,3.19168,0,0,0,1.21531-2.686,3.13045,3.13045,0,0,0-1.21531-2.6476,5.46252,5.46252,0,0,0-3.44923-.88534H234.61v7.16379h6.79019a5.52022,5.52022,0,0,0,3.44923-.9448m.73315,10.74117a3.37392,3.37392,0,0,0,1.51052-2.93711,3.25194,3.25194,0,0,0-1.51052-2.844,7.34966,7.34966,0,0,0-4.18238-1.02829H234.61v7.81848h6.79019a7.05192,7.05192,0,0,0,4.18238-1.00907"/>
        <path class="cls-1" d="M261.15815,183.09788a7.52279,7.52279,0,0,1,3.91172-1.0427V185.14a5.83412,5.83412,0,0,0-6.45068,5.59433v9.56573h-3.18841V182.15849h3.18841v3.91134a6.5842,6.5842,0,0,1,2.539-2.97195"/>
        <path class="cls-1" d="M279.61119,200.3025v-2.53889q-2.02962,2.67944-6.34242,2.677a7.22185,7.22185,0,0,1-3.31145-.72316,5.25668,5.25668,0,0,1-2.1945-1.98811,5.35688,5.35688,0,0,1-.7725-2.84881,4.66322,4.66322,0,0,1,1.80086-3.85789,8.05735,8.05735,0,0,1,5.0238-1.45594h5.76175v-.86131a3.74188,3.74188,0,0,0-1.18085-2.96234,5.06127,5.06127,0,0,0-3.45419-1.04811,9.88727,9.88727,0,0,0-5.58959,1.95387l-1.33341-2.18992a16.2774,16.2774,0,0,1,3.62146-1.83494,12.25962,12.25962,0,0,1,3.956-.5658,7.60287,7.60287,0,0,1,5.25,1.65775,6.0172,6.0172,0,0,1,1.88457,4.65013l.03446,11.93644Zm-1.90417-3.587a4.24583,4.24583,0,0,0,1.86971-2.86323v-1.81573H274.2578a6.2135,6.2135,0,0,0-3.2032.64929,2.25339,2.25339,0,0,0-1.048,2.062,2.68325,2.68325,0,0,0,1.06275,2.229,4.54961,4.54961,0,0,0,2.849.82167,6.49674,6.49674,0,0,0,3.78873-1.083"/>
        <path class="cls-1" d="M303.55141,183.92436a7.07393,7.07393,0,0,1,1.81558,5.16186v11.21327h-3.1884V189.94213a4.8438,4.8438,0,0,0-1.28424-3.5816,4.78582,4.78582,0,0,0-3.55254-1.28956,5.46321,5.46321,0,0,0-3.956,1.56466,6.10714,6.10714,0,0,0-1.73689,3.95639v9.70747h-3.1884v-18.141h3.1884v3.84286q1.81564-3.88221,6.8935-3.94617a6.64429,6.64429,0,0,1,5.009,1.86918"/>
        <path class="cls-1" d="M327.97583,174.85475v25.44354h-3.1884v-3.59721a7.19611,7.19611,0,0,1-2.76038,2.79,8.04581,8.04581,0,0,1-4.03477.98444,8.654,8.654,0,0,1-4.54644-1.18626,8.09626,8.09626,0,0,1-3.06542-3.29629,10.24029,10.24029,0,0,1-1.09721-4.8171,9.99708,9.99708,0,0,1,1.09721-4.748,8.03648,8.03648,0,0,1,3.06542-3.238,8.72162,8.72162,0,0,1,4.51205-1.16584,8.29737,8.29737,0,0,1,4.08395.95922,6.78348,6.78348,0,0,1,2.74559,2.77494V174.85475Zm-6.1554,22.053a5.82246,5.82246,0,0,0,2.17476-2.29743,6.956,6.956,0,0,0,.79224-3.33113,7.02989,7.02989,0,0,0-.79224-3.36056,5.79257,5.79257,0,0,0-2.17476-2.298,6.13953,6.13953,0,0,0-3.17368-.82167,6.01056,6.01056,0,0,0-3.17369.84149,5.84916,5.84916,0,0,0-2.17483,2.31726,7.37976,7.37976,0,0,0,0,6.65264,5.82318,5.82318,0,0,0,2.17483,2.29743,6.53581,6.53581,0,0,0,6.34737,0"/>
        <polygon class="cls-1" points="343.688 176.289 360.359 176.289 360.359 179.276 346.975 179.276 346.975 186.681 358.946 186.681 358.946 189.673 346.975 189.673 346.975 197.314 360.767 197.314 360.767 200.301 343.688 200.301 343.688 176.289"/>
        <polygon class="cls-1" points="362.755 182.156 366.15 182.156 371.602 197.149 377.024 182.156 380.247 182.156 373.181 200.303 369.855 200.303 362.755 182.156"/>
        <path class="cls-1" d="M394.34235,200.3025v-2.53889q-2.0223,2.67944-6.34241,2.677a7.22189,7.22189,0,0,1-3.31146-.72316,5.25668,5.25668,0,0,1-2.1945-1.98811,5.35688,5.35688,0,0,1-.77249-2.84881,4.66321,4.66321,0,0,1,1.80085-3.85789,8.05735,8.05735,0,0,1,5.0238-1.45594h5.76175v-.86131a3.74188,3.74188,0,0,0-1.18085-2.96234,5.056,5.056,0,0,0-3.44923-1.04811,9.86311,9.86311,0,0,0-5.58959,1.95387l-1.33837-2.18992a16.38211,16.38211,0,0,1,3.62146-1.83494,12.25962,12.25962,0,0,1,3.956-.5658,7.59435,7.59435,0,0,1,5.25,1.65775,6.0172,6.0172,0,0,1,1.88457,4.65013l.03935,11.93644Zm-1.90416-3.587a4.24585,4.24585,0,0,0,1.8697-2.86323v-1.81573H388.989a6.21346,6.21346,0,0,0-3.20319.64929,2.2534,2.2534,0,0,0-1.048,2.062,2.68328,2.68328,0,0,0,1.06275,2.229,4.54961,4.54961,0,0,0,2.849.82167,6.49679,6.49679,0,0,0,3.78874-1.083"/>
        <rect class="cls-1" x="403.36833" y="174.85355" width="3.1884" height="25.44835"/>
        <path class="cls-1" d="M429.02187,182.15608v18.147h-3.22293v-3.84287c-1.19069,2.58814-3.43444,3.89693-6.72127,3.94618a6.50222,6.50222,0,0,1-4.94008-1.86978,7.14341,7.14341,0,0,1-1.78607-5.16187V182.15608h3.22286v10.358a4.91617,4.91617,0,0,0,1.25466,3.587,4.59123,4.59123,0,0,0,3.44922,1.289,5.10829,5.10829,0,0,0,4.02982-1.80611,6.7411,6.7411,0,0,0,1.49086-4.512v-8.91584Z"/>
        <path class="cls-1" d="M446.30675,200.3025v-2.53889q-2.0223,2.67944-6.34242,2.677a7.22188,7.22188,0,0,1-3.31145-.72316,5.25668,5.25668,0,0,1-2.1945-1.98811,5.35688,5.35688,0,0,1-.77249-2.84881,4.66321,4.66321,0,0,1,1.80085-3.85789,8.05735,8.05735,0,0,1,5.0238-1.45594h5.76175v-.86131a3.7551,3.7551,0,0,0-1.176-2.96234,5.07828,5.07828,0,0,0-3.45411-1.04811,9.86311,9.86311,0,0,0-5.58959,1.95387l-1.33837-2.18992a16.38211,16.38211,0,0,1,3.62146-1.83494,12.25962,12.25962,0,0,1,3.956-.5658,7.59435,7.59435,0,0,1,5.25,1.65775,6.0172,6.0172,0,0,1,1.88457,4.65013l.03935,11.93644Zm-1.90417-3.587a4.24583,4.24583,0,0,0,1.86971-2.86323v-1.81573h-5.31405a6.22152,6.22152,0,0,0-3.20807.64929,2.2534,2.2534,0,0,0-1.048,2.062,2.68328,2.68328,0,0,0,1.06275,2.229,4.55925,4.55925,0,0,0,2.849.82167,6.49674,6.49674,0,0,0,3.78873-1.083"/>
        <path class="cls-1" d="M464.90349,199.09882a7.78543,7.78543,0,0,1-4.2513,1.33882,4.8374,4.8374,0,0,1-3.50328-1.28416,5.17013,5.17013,0,0,1-1.33837-3.89212V185.20851h-2.56847v-2.43017h2.56847v-4.87656h3.22782v4.87656h5.55513v2.43017h-5.55513v9.472a3.3561,3.3561,0,0,0,.54613,2.15509,2.02217,2.02217,0,0,0,1.64837.65469,5.74608,5.74608,0,0,0,2.80955-.86131Z"/>
        <path class="cls-1" d="M471.77192,175.50344a2.18785,2.18785,0,0,1,0,2.94732,2.0266,2.0266,0,0,1-2.83906,0,2.18762,2.18762,0,0,1,0-2.94732,2.01326,2.01326,0,0,1,2.83906,0m-2.99658,6.652h3.1884V200.3019h-3.1884Z"/>
        <path class="cls-1" d="M490.54374,183.224a8.33253,8.33253,0,0,1,3.29179,3.23743,9.44915,9.44915,0,0,1,1.18085,4.75283,9.54661,9.54661,0,0,1-1.18085,4.76845,8.35385,8.35385,0,0,1-3.29179,3.25725,10.61609,10.61609,0,0,1-9.67354,0,8.41273,8.41273,0,0,1-3.29171-3.24283,10.17747,10.17747,0,0,1,0-9.5357,8.36345,8.36345,0,0,1,3.29171-3.23743,10.61131,10.61131,0,0,1,9.67354,0m-7.99071,2.43018a5.69636,5.69636,0,0,0-2.165,2.28361,6.99466,6.99466,0,0,0-.77249,3.31131,7.16858,7.16858,0,0,0,.77249,3.36056,5.52959,5.52959,0,0,0,2.165,2.27821,6.56912,6.56912,0,0,0,6.308,0,5.51915,5.51915,0,0,0,2.16-2.27821,7.11,7.11,0,0,0,.7725-3.36056,6.93744,6.93744,0,0,0-.7725-3.31131,5.68549,5.68549,0,0,0-2.16-2.28361,6.464,6.464,0,0,0-6.308,0"/>
        <path class="cls-1" d="M514.56423,183.92436a7.07635,7.07635,0,0,1,1.82053,5.16186v11.21327h-3.18848V189.94213a4.82637,4.82637,0,0,0-1.28912-3.5816,4.77823,4.77823,0,0,0-3.55253-1.28956,5.47137,5.47137,0,0,0-3.956,1.56466,6.07888,6.07888,0,0,0-1.732,3.95639v9.70747h-3.19328v-18.141h3.19328v3.84286q1.81566-3.88221,6.88862-3.94617a6.64431,6.64431,0,0,1,5.009,1.86918"/>
        <polygon class="cls-2" points="78.459 29.489 104.041 29.489 133.568 0.094 156.64 0.094 119.008 37.731 156.64 75.357 133.568 75.357 104.041 45.83 78.459 45.83 78.459 75.357 61.976 75.357 61.976 0.094 78.459 0.094 78.459 29.489"/>
        <path class="cls-2" d="M355.54089,37.729a21.87977,21.87977,0,0,1,5.14677,12.0896,23.33564,23.33564,0,0,1-1.99276,12.22234,23.91054,23.91054,0,0,1-7.9612,9.47143,21.33541,21.33541,0,0,1-12.77343,3.84828H269.916V.0979h68.04432A21.30549,21.30549,0,0,1,350.7337,3.95038a23.93416,23.93416,0,0,1,7.9612,9.46663,23.3626,23.3626,0,0,1,1.99276,12.22774,21.85142,21.85142,0,0,1-5.14677,12.0842M286.39935,29.487h51.56092a5.69556,5.69556,0,0,0,4.73835-1.9875,7.09445,7.09445,0,0,0,0-8.92545,5.6851,5.6851,0,0,0-4.73835-1.99291H286.39935Zm0,29.39453h51.56092a5.711,5.711,0,0,0,4.73835-1.98751,7.10209,7.10209,0,0,0,0-8.93085,5.68964,5.68964,0,0,0-4.73835-1.99772H286.39935Z"/>
        <polygon class="cls-3" points="238.308 8.668 238.308 75.36 256.74 75.36 256.74 1.076 238.308 8.668"/>
        <polygon class="cls-3" points="165.465 75.358 183.902 75.358 183.902 8.667 165.465 1.075 165.465 75.358"/>
        <rect class="cls-3" x="201.89234" y="29.35248" width="18.43187" height="46.00571"/>
        <path class="cls-2" d="M392.1715,55.78707a10.18288,10.18288,0,0,1-3.09-7.48392V45.96607h68.93987V29.35488H372.59805V48.30315a26.44616,26.44616,0,0,0,2.13549,10.579,26.81187,26.81187,0,0,0,14.34792,14.348,26.48939,26.48939,0,0,0,10.574,2.13046h58.3659V58.88215h-58.3659a10.18714,10.18714,0,0,1-7.48393-3.09508"/>
        <polygon class="cls-4" points="372.601 0 372.601 16.582 458.024 16.582 458.024 0.099 372.601 0"/>
      </g>
    </g>
  </g>
</svg>
