<svg xmlns="http://www.w3.org/2000/svg" width="1621.4526" height="139.16567" viewBox="0 0 1621.4526 139.16567">
  <defs>
    <style>
      .cls-1 {
        fill: #222;
      }

      .cls-2 {
        fill: #002d75;
      }

      .cls-3 {
        fill: #dc266f;
      }

      .cls-4 {
        fill: #2ca1d8;
      }
    </style>
  </defs>
  <title>Asset 2</title>
  <g id="Layer_2" data-name="Layer 2">
    <g id="Layer_1-2" data-name="Layer 1">
      <g>
        <path class="cls-1" d="M781.601,18.28317H731.73487V8.95174H750.8435V0h11.73322V8.95174H781.601Zm-4.24822,19.2092c0,9.70184-8.49644,16.06581-20.685,16.06581-12.28113,0-20.87866-6.364-20.87866-16.06581,0-9.69257,8.59753-16.25924,20.87866-16.25924,12.18852,0,20.685,6.56667,20.685,16.25924m24.09871,45.1631H743.92314V58.09373h11.72472V73.23144h45.80361Zm-54.11458-45.1631c-.0926,4.61993,3.69208,7.11407,9.33091,7.11407,5.63059,0,9.50814-2.49414,9.50814-7.11407,0-4.61889-3.87755-7.19843-9.50814-7.291-5.63883.09261-9.42351,2.67215-9.33091,7.291m51.07176-11.53951h11.36228v9.601H798.40865V62.88961H786.59106V.18624h11.81759Z"/>
        <path class="cls-1" d="M881.17576,10.346a115.66261,115.66261,0,0,1-1.65222,22.34541H890.3212v9.424h-32.688V54.2023h23.64367V84.12582H869.45077V63.44111H821.15251V54.2023h24.66334V42.11538H813.39768v-9.424h54.20718a98.39627,98.39627,0,0,0,1.84591-19.58066H822.813V3.78854h58.3628Z"/>
        <path class="cls-1" d="M939.85624,64.09243H899.22818V7.66866h40.62806ZM911.04577,54.761h17.36381V16.89822H911.04577Zm54.39265,29.55207H953.51974V.09055h11.91868Z"/>
        <path class="cls-1" d="M1022.72239,17.08343h-29.0888V54.30622c15.05436-.05042,24.28418-.37145,34.91309-2.31819l1.1043,9.70184c-11.63212,2.20809-22.35389,2.57954-40.54368,2.57954H981.816V7.48242h40.90639Zm24.385,67.22965h-11.91868V.09055h11.91868Z"/>
        <path class="cls-1" d="M1103.09876,30.47606h14.58234V.08952h11.64061V84.31308H1117.6811v-44.413h-14.48948c-1.24758,16.15841-9.87881,26.03722-21.612,26.03722-12.74466,0-21.89036-11.54775-21.7975-30.01612-.09286-18.28214,9.05284-29.92249,21.7975-29.92249,11.36228,0,19.80831,9.37258,21.51917,24.47736m-32.047,5.44513C1070.95891,48.48141,1075.3,55.224,1081.57959,55.224c6.3722,0,10.52782-6.74262,10.52782-19.30284,0-12.46556-4.15562-19.30181-10.52782-19.30181-6.2796,0-10.62068,6.83625-10.52782,19.30181"/>
        <path class="cls-1" d="M1216.98656,73.97125H1140.063v-9.601h76.92353Zm-56.98043-54.57786h36.6664V5.4513h11.73321v44.876h-60.2172V5.4513h11.81759Zm36.6664,9.14518h-36.6664v12.551h36.6664Z"/>
        <path class="cls-1" d="M1257.10863,33.05766h-20.59235v8.58956a118.95374,118.95374,0,0,0,24.00611-2.03112l1.01144,9.33039c-9.78621,1.75331-18.09719,2.03215-30.56378,2.03215H1225.154V24.38476h20.5921V16.15738h-20.6847V6.9196h32.04724ZM1296.076,82.65444h-59.10441V56.609h11.82582V73.23144H1296.076Zm-2.124-20.13731h-11.16859V33.52171h-7.29953V60.76485h-10.99161V1.65967h10.99161V24.01331h7.29953V.18521H1293.952Z"/>
        <path class="cls-1" d="M1380.32425,73.8735h-76.92352V64.17989h76.92352Zm-8.40358-25.4816h-59.47559V7.11509h58.83482v9.50017h-47.19421V38.9689h47.835Z"/>
        <path class="cls-1" d="M1431.97684,15.05848h-6.92036v22.438c2.81542-.23563,5.58017-.51447,8.20988-.83447l.46379,8.67291c-15.78774,2.68963-34.17148,2.95922-47.46405,2.95922l-1.19691-9.5084,8.95174-.09261V15.05848h-6.8275V5.62622h44.78341Zm24.19132,53.45632c-.0926,9.79547-10.89026,15.611-28.98745,15.611-18.01281,0-28.91156-5.81555-28.91156-15.611,0-10.05579,10.89875-15.69436,28.91156-15.787,18.09719.09261,28.89485,5.73118,28.98745,15.787m-42.38111-30.37728v-23.079h-8.40383V38.41533Zm-3.78468,30.37728c0,4.443,5.90866,6.651,17.17834,6.651,11.2612,0,17.27121-2.20809,17.27121-6.651,0-4.61066-6.01-6.73439-17.27121-6.73439-11.26968,0-17.17834,2.12373-17.17834,6.73439m45.89621-17.07725h-11.73347V38.87835h-10.34236V29.46359h10.34236V22.99878h-10.34236V13.76h10.34236V.08849h11.73347Z"/>
        <path class="cls-1" d="M1472.46419,69.446l-6.65052-9.05258c19.90065-9.97142,30.56351-23.35685,32.78036-42.11127h-27.97575v-9.601h39.987c-.0926,25.11839-9.887,46.9164-38.14112,60.76486m60.57965-37.122h11.90993v9.69361h-11.90993V83.9437H1521.226V.09158h11.81785Z"/>
        <path class="cls-1" d="M1621.4526,82.65341h-62.61128V57.52576H1570.566V46.35769c-7.52718.32-14.68343.37144-21.04689.37144l-1.39112-9.32319c15.4253-.10083,36.19437-.286,53.92912-2.49517l.64925,8.40435c-6.65052,1.10405-13.529,1.8881-20.32251,2.39331V61.68987H1570.566V73.23762h50.88655Zm-25.02578-64.54928c0,8.95072-8.77477,14.77552-20.96355,14.77552-12.47482,0-21.14824-5.8248-21.14824-14.77552,0-8.961,8.58082-15.148,21.14824-15.05436,12.18878-.09364,20.96355,6.09336,20.96355,15.05436m-30.9432,0c-.0926,4.06224,3.97838,6.2796,9.97965,6.2796,5.63086,0,9.69361-2.21736,9.78621-6.2796-.0926-4.1641-4.15535-6.46583-9.78621-6.46583-6.00127,0-10.07225,2.30173-9.97965,6.46583m54.12307,45.52425h-11.81785v-6.65h-16.08278V48.94546h16.08278V.19241h11.81785Z"/>
        <polygon class="cls-1" points="778.784 138.872 771.906 138.872 757.307 119.705 749.653 128.016 749.653 138.872 743.955 138.872 743.955 97.326 749.653 97.326 749.653 120.649 770.894 97.326 777.73 97.326 761.285 115.246 778.784 138.872"/>
        <path class="cls-1" d="M806.78265,109.31315a14.46579,14.46579,0,0,1,5.6895,5.61387,17.56159,17.56159,0,0,1,0,16.462,14.3819,14.3819,0,0,1-5.6895,5.64783,18.46121,18.46121,0,0,1-16.74,0,14.53842,14.53842,0,0,1-5.69825-5.61387,17.56733,17.56733,0,0,1,0-16.49591,14.54527,14.54527,0,0,1,5.69825-5.61387,18.40239,18.40239,0,0,1,16.74,0m-13.832,4.21452a9.76373,9.76373,0,0,0-3.73427,3.9542,11.90433,11.90433,0,0,0-1.34868,5.72294,12.23044,12.23044,0,0,0,1.34868,5.81555,9.60273,9.60273,0,0,0,3.73427,3.95317,11.4181,11.4181,0,0,0,10.924,0,9.58268,9.58268,0,0,0,3.72552-3.95317,12.22688,12.22688,0,0,0,1.34019-5.81555,11.90038,11.90038,0,0,0-1.34019-5.72294,9.74317,9.74317,0,0,0-3.72552-3.9542,11.18661,11.18661,0,0,0-10.924,0"/>
        <path class="cls-1" d="M832.14078,109.10736a13.0759,13.0759,0,0,1,6.77683-1.812v5.3443a10.11026,10.11026,0,0,0-11.16859,9.66788v16.56278H822.2365V107.48061H827.749v6.76011a11.47855,11.47855,0,0,1,4.39176-5.13336"/>
        <path class="cls-1" d="M868.52036,111.60253q3.74275,4.29838,3.751,11.96035c0,.79228-.0252,1.38289-.0589,1.779H847.39733a10.673,10.673,0,0,0,3.53182,6.7097,10.43516,10.43516,0,0,0,7.0886,2.49517,13.29254,13.29254,0,0,0,5.20076-1.01248,12.705,12.705,0,0,0,4.18082-2.84809l3.0261,3.1434a16.12662,16.12662,0,0,1-5.57169,3.86057,18.76957,18.76957,0,0,1-7.24036,1.35716,16.6282,16.6282,0,0,1-8.22686-1.98893,13.82975,13.82975,0,0,1-5.57169-5.60565,17.97269,17.97269,0,0,1,0-16.47018,14.42358,14.42358,0,0,1,5.538-5.6396,16.02,16.02,0,0,1,8.134-2.04758c4.86352,0,8.5556,1.43228,11.03354,4.30713m-1.23884,9.46518a9.12043,9.12043,0,0,0-9.72731-9.20383,9.93991,9.93991,0,0,0-6.92011,2.49517,10.50866,10.50866,0,0,0-3.29594,6.70866Z"/>
        <path class="cls-1" d="M898.98381,138.87036V134.4871c-2.35189,3.08475-6.00153,4.62712-10.98312,4.62712a12.37879,12.37879,0,0,1-5.73169-1.2553,9.07959,9.07959,0,0,1-3.80166-3.43973,9.30258,9.30258,0,0,1-1.32321-4.92243,8.03375,8.03375,0,0,1,3.11022-6.67574q3.11034-2.46482,8.69039-2.5281h9.97142V118.8092a6.50545,6.50545,0,0,0-2.03961-5.13337,8.79222,8.79222,0,0,0-5.97632-1.812,17.17666,17.17666,0,0,0-9.67663,3.38828l-2.30944-3.80191a28.90484,28.90484,0,0,1,6.2711-3.17736,21.37041,21.37041,0,0,1,6.836-.97749q5.89194,0,9.095,2.882a10.48526,10.48526,0,0,1,3.262,8.04114l.0589,20.65177Zm-3.30417-6.20448a7.342,7.342,0,0,0,3.23652-4.95536v-3.14443h-9.20435a10.68612,10.68612,0,0,0-5.538,1.12978,3.89107,3.89107,0,0,0-1.8207,3.56526,4.61412,4.61412,0,0,0,1.84591,3.85234,7.81914,7.81914,0,0,0,4.93118,1.43228,11.2303,11.2303,0,0,0,6.54943-1.87987"/>
        <polygon class="cls-1" points="930.367 97.328 937.135 97.328 952.324 126.527 967.404 97.328 974.231 97.328 974.231 138.876 968.887 138.876 968.829 105.698 954.052 134.484 950.546 134.484 935.643 105.698 935.643 138.876 930.367 138.876 930.367 97.328"/>
        <path class="cls-1" d="M1009.18,111.60253q3.73,4.29838,3.7425,11.96035c0,.79228-.02521,1.38289-.05891,1.779H988.057a10.67391,10.67391,0,0,0,3.53157,6.7097,10.42938,10.42938,0,0,0,7.08037,2.49517,13.33556,13.33556,0,0,0,5.20924-1.01248,12.79355,12.79355,0,0,0,4.18083-2.84809l3.0261,3.1434a16.086,16.086,0,0,1-5.58018,3.86057,18.76966,18.76966,0,0,1-7.24037,1.35716,16.57269,16.57269,0,0,1-8.21837-1.98893,13.9022,13.9022,0,0,1-5.58017-5.60565,17.97269,17.97269,0,0,1,0-16.47018,14.50217,14.50217,0,0,1,5.54648-5.6396,16.02,16.02,0,0,1,8.134-2.04758q7.2953,0,11.03354,4.30713m-1.24733,9.46518a9.10813,9.10813,0,0,0-9.7273-9.20383,9.96874,9.96874,0,0,0-6.92011,2.49517,10.50861,10.50861,0,0,0-3.29594,6.70866Z"/>
        <path class="cls-1" d="M1049.71781,94.837v44.03332h-5.521v-6.22917a12.356,12.356,0,0,1-4.77915,4.82982,13.8195,13.8195,0,0,1-6.97079,1.69466,15.00963,15.00963,0,0,1-7.86442-2.04861,14.04076,14.04076,0,0,1-5.31034-5.69722,17.79542,17.79542,0,0,1-1.89632-8.33644,17.32781,17.32781,0,0,1,1.89632-8.21812,14.0068,14.0068,0,0,1,5.31034-5.60564,15.02143,15.02143,0,0,1,7.80526-2.02289,14.443,14.443,0,0,1,7.07213,1.66894,11.66785,11.66785,0,0,1,4.737,4.8041V94.837Zm-10.64563,38.1581a9.94271,9.94271,0,0,0,3.75922-3.97787,11.89343,11.89343,0,0,0,1.3654-5.74866,12.07923,12.07923,0,0,0-1.3654-5.82481,9.98062,9.98062,0,0,0-3.75922-3.96964,10.55375,10.55375,0,0,0-5.4958-1.42507,10.38426,10.38426,0,0,0-5.48732,1.44977,10.19917,10.19917,0,0,0-3.76771,4.00462,12.81689,12.81689,0,0,0,0,11.51379,9.90558,9.90558,0,0,0,3.76771,3.97787,11.29343,11.29343,0,0,0,10.98312,0"/>
        <path class="cls-1" d="M1066.01384,95.9627a3.81334,3.81334,0,0,1,0,5.09941,3.4805,3.4805,0,0,1-4.92268,0,3.7897,3.7897,0,0,1,0-5.09941,3.521,3.521,0,0,1,4.92268,0m-5.19227,11.51379h5.521v31.398h-5.521Z"/>
        <path class="cls-1" d="M1096.25968,138.87036V134.4871c-2.35189,3.08475-6.00153,4.62712-10.98312,4.62712a12.37876,12.37876,0,0,1-5.73169-1.2553,9.07953,9.07953,0,0,1-3.80166-3.43973,9.3025,9.3025,0,0,1-1.32322-4.92243,8.03377,8.03377,0,0,1,3.11022-6.67574q3.11034-2.46482,8.6904-2.5281h9.97142V118.8092a6.50545,6.50545,0,0,0-2.03961-5.13337,8.79225,8.79225,0,0,0-5.97632-1.812,17.17666,17.17666,0,0,0-9.67663,3.38828l-2.30945-3.80191a28.90489,28.90489,0,0,1,6.27111-3.17736,21.37032,21.37032,0,0,1,6.836-.97749q5.89194,0,9.095,2.882a10.48522,10.48522,0,0,1,3.262,8.04114l.05891,20.65177Zm-3.30417-6.20448a7.34206,7.34206,0,0,0,3.23652-4.95536v-3.14443h-9.20435a10.68612,10.68612,0,0,0-5.538,1.12978,3.89108,3.89108,0,0,0-1.82071,3.56526,4.61412,4.61412,0,0,0,1.84592,3.85234,7.81911,7.81911,0,0,0,4.93117,1.43228,11.23031,11.23031,0,0,0,6.54944-1.87987"/>
        <path class="cls-1" d="M1155.397,100.08976a9.03311,9.03311,0,0,1,3.64964,7.62853,9.219,9.219,0,0,1-2.0144,6.01825,9.78983,9.78983,0,0,1-5.52951,3.29568,10.83013,10.83013,0,0,1,6.802,3.47266,10.339,10.339,0,0,1,2.47,7.0297,9.83845,9.83845,0,0,1-4.02083,8.34467q-3.99549,2.99728-11.06724,2.99214H1127.6484V97.325h17.75172q6.34687,0,9.99689,2.76475m-4.33259,13.23315a5.54382,5.54382,0,0,0,2.10726-4.66108,5.39978,5.39978,0,0,0-2.10726-4.56848,9.44689,9.44689,0,0,0-5.95934-1.54237H1133.3464v12.39868h11.75868a9.547,9.547,0,0,0,5.95934-1.62675m1.28128,18.57744a5.84184,5.84184,0,0,0,2.6045-5.08191,5.65,5.65,0,0,0-2.6045-4.92243,12.79086,12.79086,0,0,0-7.24062-1.7708H1133.3464v13.52022h11.75868a12.27317,12.27317,0,0,0,7.24062-1.74508"/>
        <path class="cls-1" d="M1179.27913,109.10736a13.06724,13.06724,0,0,1,6.76834-1.812v5.3443a10.09673,10.09673,0,0,0-11.16009,9.66788v16.56278h-5.521V107.48061h5.521v6.76011a11.427,11.427,0,0,1,4.39175-5.13336"/>
        <path class="cls-1" d="M1211.21268,138.87036V134.4871q-3.5151,4.62713-10.98312,4.62712a12.34473,12.34473,0,0,1-5.72346-1.2553,9.03,9.03,0,0,1-3.8014-3.43973,9.23212,9.23212,0,0,1-1.3317-4.92243,8.05682,8.05682,0,0,1,3.11021-6.67574c2.08206-1.64321,4.97311-2.48591,8.69889-2.5281h9.97142V118.8092a6.533,6.533,0,0,0-2.03987-5.13337,8.806,8.806,0,0,0-5.97606-1.812,17.15577,17.15577,0,0,0-9.67663,3.38828l-2.30945-3.80191a28.86027,28.86027,0,0,1,6.26262-3.17736,21.38872,21.38872,0,0,1,6.84449-.97749q5.87921,0,9.095,2.882a10.47985,10.47985,0,0,1,3.2535,8.04114l.0589,20.65177Zm-3.30417-6.20448a7.3536,7.3536,0,0,0,3.245-4.95536v-3.14443h-9.20435a10.721,10.721,0,0,0-5.54648,1.12978,3.88493,3.88493,0,0,0-1.81222,3.56526,4.5919,4.5919,0,0,0,1.84592,3.85234,7.80939,7.80939,0,0,0,4.92268,1.43228,11.21175,11.21175,0,0,0,6.54944-1.87987"/>
        <path class="cls-1" d="M1252.62942,110.53141q3.14816,3.23805,3.14391,8.93528v19.40367h-5.51252V120.94218a7.711,7.711,0,0,0-8.37014-8.42081,9.45152,9.45152,0,0,0-6.85272,2.70507,10.56026,10.56026,0,0,0-3.00089,6.85375v16.79017h-5.521V107.48061h5.521v6.64178q3.14854-6.69992,11.92717-6.827,5.52538,0,8.66519,3.236"/>
        <path class="cls-1" d="M1294.89245,94.837v44.03332h-5.521v-6.22917a12.41246,12.41246,0,0,1-4.77915,4.82982,13.81945,13.81945,0,0,1-6.97079,1.69466,14.98831,14.98831,0,0,1-7.86441-2.04861,14.03721,14.03721,0,0,1-5.31034-5.69722,17.69317,17.69317,0,0,1-1.89659-8.33644,17.2284,17.2284,0,0,1,1.89659-8.21812,14.00323,14.00323,0,0,1,5.31034-5.60564,15.02139,15.02139,0,0,1,7.80525-2.02289,14.38726,14.38726,0,0,1,7.06365,1.66894,11.63684,11.63684,0,0,1,4.74545,4.8041V94.837Zm-10.65411,38.1581a9.96271,9.96271,0,0,0,3.7677-3.97787,11.89343,11.89343,0,0,0,1.3654-5.74866,12.07923,12.07923,0,0,0-1.3654-5.82481,10.00083,10.00083,0,0,0-3.7677-3.96964,10.52306,10.52306,0,0,0-5.48732-1.42507,10.38364,10.38364,0,0,0-5.48732,1.44977,10.19978,10.19978,0,0,0-3.768,4.00462,12.74824,12.74824,0,0,0,0,11.51379,9.90617,9.90617,0,0,0,3.768,3.97787,11.2771,11.2771,0,0,0,10.97464,0"/>
        <polygon class="cls-1" points="1322.079 97.328 1350.923 97.328 1350.923 102.487 1327.777 102.487 1327.777 115.316 1348.487 115.316 1348.487 120.475 1327.777 120.475 1327.777 133.708 1351.631 133.708 1351.631 138.876 1322.079 138.876 1322.079 97.328"/>
        <polygon class="cls-1" points="1355.071 107.478 1360.946 107.478 1370.378 133.414 1379.76 107.478 1385.34 107.478 1373.118 138.877 1367.36 138.877 1355.071 107.478"/>
        <path class="cls-1" d="M1409.73073,138.87036V134.4871q-3.5151,4.62713-10.97463,4.62712a12.37876,12.37876,0,0,1-5.73169-1.2553,9.02915,9.02915,0,0,1-3.80166-3.43973,9.30865,9.30865,0,0,1-1.3317-4.92243,8.05682,8.05682,0,0,1,3.11021-6.67574c2.082-1.64321,4.97311-2.48591,8.69889-2.5281h9.97142V118.8092a6.53372,6.53372,0,0,0-2.03961-5.13337,8.79225,8.79225,0,0,0-5.97632-1.812,17.17666,17.17666,0,0,0-9.67663,3.38828l-2.30945-3.80191a28.86141,28.86141,0,0,1,6.26288-3.17736,21.38592,21.38592,0,0,1,6.84423-.97749q5.8792,0,9.095,2.882a10.47981,10.47981,0,0,1,3.25349,8.04114l.0674,20.65177Zm-3.29568-6.20448a7.37106,7.37106,0,0,0,3.23652-4.95536v-3.14443h-9.20435a10.68612,10.68612,0,0,0-5.538,1.12978,3.89108,3.89108,0,0,0-1.82071,3.56526,4.61412,4.61412,0,0,0,1.84592,3.85234,7.81911,7.81911,0,0,0,4.93117,1.43228,11.24892,11.24892,0,0,0,6.54944-1.87987"/>
        <rect class="cls-1" x="1425.34406" y="94.83293" width="5.51253" height="44.04155"/>
        <path class="cls-1" d="M1469.73571,107.47752v31.399h-5.58018v-6.64281q-3.08487,6.70146-11.63212,6.81155c-3.64963,0-6.49876-1.07112-8.54711-3.237q-3.09762-3.22417-3.09324-8.91779V107.47752h5.57992v17.921a8.49566,8.49566,0,0,0,2.17465,6.20346,7.91451,7.91451,0,0,0,5.95935,2.22559,8.83123,8.83123,0,0,0,6.97078-3.11048,11.6678,11.6678,0,0,0,2.58777-7.81374V107.47752Z"/>
        <path class="cls-1" d="M1499.65177,138.87036V134.4871c-2.35163,3.08475-6.00127,4.62712-10.98286,4.62712a12.37729,12.37729,0,0,1-5.73169-1.2553,9.08029,9.08029,0,0,1-3.80192-3.43973,9.30258,9.30258,0,0,1-1.32321-4.92243,8.034,8.034,0,0,1,3.11047-6.67574q3.11-2.46482,8.6904-2.5281h9.97142V118.8092a6.50561,6.50561,0,0,0-2.03987-5.13337,8.78272,8.78272,0,0,0-5.96783-1.812,17.17955,17.17955,0,0,0-9.68486,3.38828l-2.30945-3.80191a28.89776,28.89776,0,0,1,6.27086-3.17736,21.37306,21.37306,0,0,1,6.83625-.97749q5.89194,0,9.09476,2.882a10.45575,10.45575,0,0,1,3.26225,8.04114l.05864,20.65177Zm-3.30391-6.20448a7.34206,7.34206,0,0,0,3.23652-4.95536v-3.14443H1490.38a10.68719,10.68719,0,0,0-5.53825,1.12978,3.89107,3.89107,0,0,0-1.8207,3.56526,4.61412,4.61412,0,0,0,1.84591,3.85234,7.83523,7.83523,0,0,0,4.93118,1.43228,11.23114,11.23114,0,0,0,6.54969-1.87987"/>
        <path class="cls-1" d="M1531.81735,136.79809a13.5026,13.5026,0,0,1-7.359,2.31,8.374,8.374,0,0,1-6.06043-2.22559c-1.53414-1.4827-2.30945-3.72475-2.30945-6.73439V112.75082h-4.45066V108.5363h4.45066v-8.42081h5.57992v8.42081h9.61747v4.21452h-9.61747v16.394a5.88143,5.88143,0,0,0,.94405,3.734,3.54109,3.54109,0,0,0,2.85736,1.12977,9.98963,9.98963,0,0,0,4.86378-1.492Z"/>
        <path class="cls-1" d="M1543.70464,95.9627a3.789,3.789,0,0,1,0,5.09941,3.47026,3.47026,0,0,1-4.91419,0,3.789,3.789,0,0,1,0-5.09941,3.5106,3.5106,0,0,1,4.91419,0m-5.18378,11.51379h5.51253v31.398h-5.51253Z"/>
        <path class="cls-1" d="M1576.18867,109.31315a14.5789,14.5789,0,0,1,5.68951,5.61387,17.56356,17.56356,0,0,1,0,16.462,14.49317,14.49317,0,0,1-5.68951,5.64783,18.47895,18.47895,0,0,1-16.7485,0,14.57325,14.57325,0,0,1-5.69-5.61387,17.56929,17.56929,0,0,1,0-16.49591,14.58014,14.58014,0,0,1,5.69-5.61387,18.42006,18.42006,0,0,1,16.7485,0m-13.832,4.21452a9.84033,9.84033,0,0,0-3.74275,3.9542,11.99509,11.99509,0,0,0-1.34019,5.72294,12.32405,12.32405,0,0,0,1.34019,5.81555,9.67682,9.67682,0,0,0,3.74275,3.95317,11.4015,11.4015,0,0,0,10.91547,0,9.54834,9.54834,0,0,0,3.734-3.95317,12.32405,12.32405,0,0,0,1.34019-5.81555,11.99509,11.99509,0,0,0-1.34019-5.72294,9.70737,9.70737,0,0,0-3.734-3.9542,11.1704,11.1704,0,0,0-10.91547,0"/>
        <path class="cls-1" d="M1617.74637,110.53141c2.10727,2.1587,3.14392,5.13336,3.14392,8.93528v19.40367h-5.51253V120.94218a7.71131,7.71131,0,0,0-8.37039-8.42081,9.45152,9.45152,0,0,0-6.85272,2.70507,10.51091,10.51091,0,0,0-2.99214,6.85375v16.79017H1591.633V107.48061h5.52951v6.64178q3.13542-6.69992,11.92691-6.827,5.513,0,8.657,3.236"/>
        <polygon class="cls-2" points="28.237 58.072 72.06 58.072 122.642 7.717 162.166 7.717 97.701 72.183 162.166 136.648 122.642 136.648 72.06 86.065 28.237 86.065 28.237 136.648 0 136.648 0 7.717 28.237 7.717 28.237 58.072"/>
        <path class="cls-2" d="M502.89948,72.17987a37.60881,37.60881,0,0,1,8.82544,20.71043,39.953,39.953,0,0,1-3.42224,20.93782,41.04892,41.04892,0,0,1-13.63829,16.23455q-9.179,6.58725-21.88187,6.59137H356.21743V7.72319H472.78252q12.69411,0,21.88187,6.59137a41.07538,41.07538,0,0,1,13.63829,16.22632,40.00747,40.00747,0,0,1,3.42224,20.94606,37.48334,37.48334,0,0,1-8.82544,20.69293m-118.4447-14.1098h88.32774c3.59922,0,6.32178-1.138,8.11728-3.414a12.14216,12.14216,0,0,0,0-15.28176c-1.7955-2.276-4.51806-3.414-8.11728-3.414H384.45478Zm0,50.34584h88.32774c3.59922,0,6.32178-1.137,8.11728-3.40475a12.15378,12.15378,0,0,0,0-15.29c-1.7955-2.28424-4.51806-3.42224-8.11728-3.42224H384.45478Z"/>
        <polygon class="cls-3" points="302.074 22.397 302.074 136.653 333.641 136.653 333.641 9.399 302.074 22.397"/>
        <polygon class="cls-3" points="177.285 136.65 208.868 136.65 208.868 22.395 177.285 9.397 177.285 136.65"/>
        <rect class="cls-3" x="239.68939" y="57.8293" width="31.56673" height="78.81959"/>
        <path class="cls-2" d="M565.65481,103.12307a17.4573,17.4573,0,0,1-5.29362-12.82055V86.29893H678.46068V57.83444H532.12384V90.30252a45.23023,45.23023,0,0,0,3.64989,18.11442,45.96148,45.96148,0,0,0,24.58746,24.58746,45.37951,45.37951,0,0,0,18.11416,3.64964h99.98533v-28.2371H578.47535a17.44367,17.44367,0,0,1-12.82054-5.29387"/>
        <polygon class="cls-4" points="532.127 7.555 532.127 35.962 678.456 35.962 678.456 7.724 532.127 7.555"/>
      </g>
    </g>
  </g>
</svg>
