<?xml version="1.0" encoding="UTF-8"?>
<svg id="Layer_1" xmlns="http://www.w3.org/2000/svg" version="1.1" viewBox="0 0 305.8 58.2">
  <!-- Generator: Adobe Illustrator 29.0.0, SVG Export Plug-In . SVG Version: 2.1.0 Build 186)  -->
  <defs>
    <style>
      .st0 {
        fill: #fff;
      }

      .st1 {
        fill: #dc266f;
      }

      .st2 {
        fill: #2ca1d8;
      }
    </style>
  </defs>
  <g id="Layer_2">
    <g id="Layer_1-2">
      <g>
        <polygon class="st0" points="12.7 22.8 32.5 22.8 55.3 0 73.1 0 44 29.1 73.1 58.2 55.3 58.2 32.5 35.4 12.7 35.4 12.7 58.2 0 58.2 0 0 12.7 0 12.7 22.8"/>
        <path class="st0" d="M226.7,29.1c2.2,2.6,3.6,5.9,4,9.3.3,3.2-.2,6.5-1.5,9.4-1.4,2.9-3.5,5.5-6.1,7.3-2.9,2-6.3,3.1-9.9,3h-52.5V0h52.5c3.5,0,7,1,9.9,3,2.7,1.9,4.8,4.4,6.1,7.3,1.4,3,1.9,6.2,1.5,9.4-.3,3.4-1.7,6.7-4,9.3M173.3,22.8h39.8c1.4,0,2.8-.5,3.7-1.5,1.6-2,1.6-4.9,0-6.9-.9-1.1-2.3-1.6-3.7-1.5h-39.8v10ZM173.3,45.5h39.8c1.4,0,2.8-.5,3.7-1.5,1.6-2,1.6-4.9,0-6.9-.9-1.1-2.3-1.6-3.7-1.5h-39.8v10Z"/>
        <polygon class="st1" points="136.2 6.7 136.2 58.2 150.4 58.2 150.4 .8 136.2 6.7"/>
        <polygon class="st1" points="79.9 58.2 94.1 58.2 94.1 6.7 79.9 .8 79.9 58.2"/>
        <rect class="st1" x="108" y="22.7" width="14.2" height="35.5"/>
        <path class="st0" d="M255,43.1c-1.6-1.5-2.4-3.6-2.4-5.8v-1.8h53.2v-12.8h-66v14.6c0,2.8.5,5.6,1.6,8.2,2.1,5,6.1,9,11.1,11.1,2.6,1.1,5.4,1.7,8.2,1.6h45.1v-12.7h-45.1c-2.2,0-4.3-.8-5.8-2.4"/>
        <polygon class="st2" points="239.9 0 239.9 12.8 305.8 12.8 305.8 0 239.9 0"/>
      </g>
    </g>
  </g>
</svg>