<svg xmlns="http://www.w3.org/2000/svg" width="305.81278" height="58.19053" viewBox="0 0 305.81278 58.19053">
  <defs>
    <style>
      .cls-1 {
        fill: #002d75;
      }

      .cls-2 {
        fill: #dc266f;
      }

      .cls-3 {
        fill: #2ca1d8;
      }
    </style>
  </defs>
  <title>Asset 1</title>
  <g id="Layer_2" data-name="Layer 2">
    <g id="Layer_1-2" data-name="Layer 1">
      <g>
        <polygon class="cls-1" points="12.728 22.77 32.481 22.77 55.28 0.073 73.096 0.073 44.038 29.131 73.096 58.188 55.28 58.188 32.481 35.388 12.728 35.388 12.728 58.188 0 58.188 0 0.073 12.728 0.073 12.728 22.77"/>
        <path class="cls-1" d="M226.67944,29.12912a16.95212,16.95212,0,0,1,3.978,9.33513,18.00867,18.00867,0,0,1-1.54256,9.43761,18.50261,18.50261,0,0,1-6.14739,7.31765,16.474,16.474,0,0,1-9.86315,2.971H160.56324V.0756h52.54113a16.47406,16.47406,0,0,1,9.86315,2.971,18.51457,18.51457,0,0,1,6.14739,7.31394,18.03324,18.03324,0,0,1,1.54256,9.44133,16.89552,16.89552,0,0,1-3.978,9.32723M173.29108,22.7692h39.81329a4.38514,4.38514,0,0,0,3.65882-1.53885,5.473,5.473,0,0,0,0-6.88817,4.38514,4.38514,0,0,0-3.65882-1.53885H173.29108Zm0,22.69314h39.81329a4.39322,4.39322,0,0,0,3.65882-1.53467,5.47825,5.47825,0,0,0,0-6.89189,4.37689,4.37689,0,0,0-3.65882-1.54256H173.29108Z"/>
        <polygon class="cls-2" points="136.158 6.69 136.158 58.19 150.387 58.19 150.387 0.831 136.158 6.69"/>
        <polygon class="cls-2" points="79.91 58.189 94.146 58.189 94.146 6.689 79.91 0.83 79.91 58.189"/>
        <rect class="cls-2" x="108.0388" y="22.66067" width="14.22855" height="35.52754"/>
        <path class="cls-1" d="M254.96609,43.07662a7.86882,7.86882,0,0,1-2.38607-5.7788v-1.8046h53.23276V22.663h-65.9606V37.29782a20.38726,20.38726,0,0,0,1.64517,8.165A20.71684,20.71684,0,0,0,252.58,56.54548a20.45472,20.45472,0,0,0,8.16487,1.64505h45.06789V45.4628H260.74489a7.86267,7.86267,0,0,1-5.7788-2.38618"/>
        <polygon class="cls-3" points="239.854 0 239.854 12.804 305.81 12.804 305.81 0.076 239.854 0"/>
      </g>
    </g>
  </g>
</svg>
