<?xml version="1.0" encoding="UTF-8"?>
<svg id="Layer_2" data-name="Layer 2" xmlns="http://www.w3.org/2000/svg" viewBox="0 0 284.0731903056 82.3148979206">
  <defs>
    <style>
      .cls-1 {
        fill: #fff;
      }

      .cls-2 {
        fill: #62c7cc;
      }

      .cls-3 {
        fill: #939598;
      }

      .cls-4 {
        fill: #00b19d;
      }
    </style>
  </defs>
  <g id="Layer_1-2" data-name="Layer 1">
    <g>
      <rect class="cls-4" x="74.7045955947" y="28.0141917274" width="6.9203998252" height="47.380806368"/>
      <path class="cls-4" d="M61.3558959319,48.135298784c-1.7352999562-4.1542998951-2.6014999343-10.8613997256-2.6014999343-20.1211070566h-7.0673998215c0,9.2265073318-.9003999773,15.9179071628-2.6986961762,20.0722070579-1.571303716,3.6992999065-6.5869035893,7.1308998199-10.0225035025,7.7841998034l2.5131999365,5.5653998594c2.944303566-.4238067206,5.5946998587-1.4881999624,7.9506997991-3.1893999194,2.5834999347-1.8319999537,4.4974998864-4.2206998934,5.741699855-7.165999819,1.2103999694,2.9784999248,2.9940999244,5.3671998644,5.3500998648,7.165999819,2.3221999413,1.7343999562,5.1034998711,2.7968999293,8.3426997892,3.1893999194l2.5131999365-5.6141998582c-3.4686999124-.6210999843-8.4842997857-4.0204998984-10.0214997468-7.6864998058Z"/>
      <path class="cls-4" d="M109.0990947258,48.135298784c-1.7348999562-4.1542998951-2.6015999343-10.8613997256-2.6015999343-20.1211070566h-7.0672998215c0,9.2265073318-.9003999773,15.9179071628-2.6987999318,20.0722070579-1.5702999603,3.6992999065-6.5868998336,7.1308998199-10.0218997468,7.7841998034l2.5126999365,5.5653998594c2.9447999256-.4238067206,5.5946998587-1.4881999624,7.9505997992-3.1893999194,2.5839999347-1.8319999537,4.4980998864-4.2206998934,5.741699855-7.165999819,1.2104999694,2.9784999248,2.9941999244,5.3671998644,5.3500998648,7.165999819,2.3227999413,1.7343999562,5.104499871,2.7968999293,8.3432997892,3.1893999194l2.5126999365-5.6141998582c-3.4687999124-.6210999843-8.4843997857-4.0204998984-10.0214997468-7.6864998058Z"/>
      <path class="cls-1" d="M207.1967922476,28.0141917274c-4.3847998892,0-7.8525998016,1.5215075265-10.4047997372,4.5644074496-2.2904999421,2.7167999314-3.4355999132,6.0527998471-3.4355999132,10.0116997471,0,3.8945999016,1.1450999711,7.1992998181,3.4355999132,9.9140997495,2.5521999355,3.0106999239,6.0199998479,4.5146998859,10.4047997372,4.5146998859,4.3187998909,0,7.7705077524-1.503999962,10.3558997384-4.5146998859,2.3217999413-2.7147999314,3.484399912-6.0194998479,3.484399912-9.9140997495,0-3.9588999-1.1625999706-7.2948998157-3.484399912-10.0116997471-2.585391986-3.0428999231-6.0370998475-4.5644074496-10.3558997384-4.5644074496ZM212.3007921187,48.332498779c-1.2763999678,1.7343999562-2.9775999248,2.6015999343-5.1039998711,2.6015999343-2.1596999454,0-3.8613999025-.8671999781-5.1044922476-2.6015999343-1.1128075953-1.5703070516-1.668-3.4843070516-1.668-5.7421998549,0-2.2889999422.5551924047-4.236299893,1.668-5.8397998525,1.2762923444-1.7675999553,2.977-2.651399933,5.1044922476-2.651399933,2.1263999463,0,3.8275999033.8837999777,5.1039998711,2.651399933,1.1449999711,1.6034999595,1.7176999566,3.5507999103,1.7176999566,5.8397998525,0,2.2578928033-.5726999855,4.1718928033-1.7176999566,5.7421998549Z"/>
      <rect class="cls-1" x="226.7299917542" y="28.0141917274" width="6.9198998252" height="47.380806368"/>
      <rect class="cls-1" x="239.8436914229" y="61.5834984443" width="44.2294988827" height="6.134799845"/>
      <path class="cls-1" d="M248.2455912107,50.5404987232h30.6644992253v-6.133799845h-27.0316993171v-10.2577997409h27.0316993171v-6.1347074099h-34.001899141v18.8457070888c0,1.3749999653.2943999926,2.3553999405.8832999777,2.9452929112.4916999876.490207002,1.3090999669.7353069959,2.454099938.7353069959Z"/>
      <path class="cls-1" d="M189.331992699,28.0141917274h-14.114692699v30.0361068061h-15.7544065465v-7.3603998141c2.0468999483-.5174999869,3.9130999011-1.4959999622,5.5946998587-2.9471999255,2.8134999289-2.3866999397,4.2211998934-5.3808998641,4.2211998934-8.9805070665,0-3.5995926157-1.4076999644-6.5917925401-4.2211998934-8.9823924797-2.6181999339-2.2236075203-5.6767998566-3.3358999157-9.1771997682-3.3358999157-3.5331999107,0-6.609899833,1.1122923954-9.227093544,3.3358999157-2.7812061526,2.3905999396-4.1714061175,5.382799864-4.1714061175,8.9823924797,0,3.5996072025,1.3901999649,6.5938071268,4.1714061175,8.9805070665,1.7685937324,1.5253999615,3.7523936823,2.5233999363,5.939,3.0175999238v7.2899998158h-10.7486061014v6.133799845h33.3736061014v10.767599728h6.9198928807v-40.0273989888h7.1947998182v-6.9101073904ZM151.4140936568,43.1293989105c-1.3090999669-1.2089999695-1.9628999504-2.6659999327-1.9628999504-4.3672071831,0-1.7011926636.6537999835-3.1405926273,1.9628999504-4.3182925975,1.2430999686-1.1122999719,2.731399931-1.6699999578,4.4662998872-1.6699999578,1.668906456,0,3.1405999207.5576999859,4.4169998884,1.6699999578,1.307599967,1.1776999702,1.9627999504,2.6170999339,1.9627999504,4.3182925975,0,1.7012072504-.6551999834,3.1582072136-1.9627999504,4.3672071831-1.2763999678,1.146499971-2.7480934324,1.7187928169-4.4169998884,1.7187928169-1.7348999562,0-3.2231999186-.5722928459-4.4662998872-1.7187928169Z"/>
      <polygon class="cls-4" points="136.4745940342 28.0141917274 129.3685942138 28.0141917274 122.4481943886 28.0141917274 122.4481943886 34.9242991177 122.4481943886 74.9516981066 129.3685942138 74.9516981066 129.3685942138 52.5922986714 129.3685942138 48.5775987728 129.3685942138 42.4428989278 129.3685942138 37.3588990562 129.3685942138 34.9242991177 136.4745940342 34.9242991177 136.4745940342 28.0141917274"/>
      <polygon class="cls-4" points="13.8403 75.3949980954 13.8403 68.3832982725 6.9198973071 68.3832982725 6.9198973071 82.3148979206 10.3798972197 82.3148979206 13.8403 82.3148979206 74.7045955947 82.3148979206 74.7045955947 75.3949980954 13.8403 75.3949980954"/>
      <rect class="cls-3" x="13.8403" y="6.9198998252" width="13.4716967919" height="6.9203998252"/>
      <polygon class="cls-2" points="34.3915966131 6.9198998252 34.3915966131 13.8402996504 74.7045955947 13.8402996504 74.7045955947 21.7138994515 81.6249954199 21.7138994515 81.6249954199 13.8402996504 81.6249954199 9.4032997625 81.6249954199 6.9198998252 34.3915966131 6.9198998252"/>
      <rect class="cls-3" x="6.9198973071" y="13.8402996504" width="6.9204026929" height="47.964892077"/>
      <rect class="cls-2" y="6.9198998252" width="6.9198973071" height="6.9203998252"/>
      <rect class="cls-4" x="6.9198973071" width="6.9204026929" height="6.9198998252"/>
    </g>
  </g>
</svg>