<?xml version="1.0" encoding="UTF-8"?>
<svg id="Layer_2" xmlns="http://www.w3.org/2000/svg" version="1.1" viewBox="0 0 138.8 67.2">
  <!-- Generator: Adobe Illustrator 29.0.0, SVG Export Plug-In . SVG Version: 2.1.0 Build 186)  -->
  <defs>
    <style>
      .st0 {
        fill: #1e1e1e;
      }

      .st1 {
        fill: #272d6f;
      }
    </style>
  </defs>
  <polygon class="st1" points="84.5 10.1 69.5 0 69.5 12.6 74.4 15.9 74.4 15.9 74.4 21.8 64.4 21.8 64.4 13.3 54.3 19.7 54.3 35.7 54.3 35.7 69.3 45.8 69.3 33.2 64.4 29.9 64.4 29.9 64.4 24.1 74.4 24.1 74.4 32.5 84.5 26.1 84.5 10.1 84.5 10.1"/>
  <g>
    <path class="st0" d="M.4,55.2c0-.3,0-.5.1-.7,0-.2.2-.4.4-.6h-.9v-1.1h2.1v-1.1h1.4v1.1h2.1v1.1h-.9c.2.2.3.4.4.6,0,.2.1.5.1.7s0,.6-.2.9c-.1.3-.3.5-.5.7-.2.2-.5.4-.8.5-.3.1-.6.2-.9.2s-.6,0-.9-.2c-.3-.1-.5-.3-.8-.5-.2-.2-.4-.4-.5-.7s-.2-.6-.2-.9ZM2.9,58.2v1.8h4.8v1.1H1.5v-2.9h1.4ZM1.8,55.1c0,.4,0,.6.3.9s.4.3.7.3.6-.1.7-.3.3-.5.3-.9,0-.3,0-.5c0-.2-.1-.3-.2-.4s-.2-.2-.3-.3c-.1,0-.3,0-.4,0s-.3,0-.4,0c-.1,0-.2.2-.3.3s-.2.2-.2.4c0,.2,0,.3,0,.5ZM7.6,51.8v2.5h1.5v1.1h-1.5v3h-1.4v-6.7h1.4Z"/>
    <path class="st0" d="M14.9,57.7v1.1h-5.1v-3.9h2.9v-1.5h-2.9v-1.1h4.3v3.8h-2.9v1.6h3.7ZM17,51.8v3h1.5v1.2h-1.5v5h-1.4v-9.2h1.4Z"/>
    <path class="st0" d="M25.4,52.3h1.4v6.4h-4.6v-6.4h1.4v2.1h1.8v-2.1ZM25.4,57.6v-1.9h-1.8v1.9h1.8ZM29.4,51.8v9.2h-1.4v-9.2h1.4Z"/>
    <path class="st0" d="M31.3,52.5h5.1v1.2h-1.8v.8c0,.3,0,.6,0,.9,0,.3.2.5.3.8.2.3.4.5.7.8.3.3.7.6,1.2,1l-.8,1c-.5-.4-1-.8-1.3-1.1s-.6-.6-.8-.9c-.2.3-.5.6-.8,1s-.8.7-1.3,1.2l-.9-.9c.5-.4.9-.8,1.2-1,.3-.3.5-.6.7-.8s.3-.5.4-.8c0-.3,0-.6,0-1v-.8h-1.9v-1.2ZM38.8,51.8v9.2h-1.4v-9.2h1.4Z"/>
    <path class="st0" d="M46,57.6v1.2h-5v-6.4h1.4v5.2h3.6ZM48.2,51.8v9.2h-1.4v-9.2h1.4Z"/>
    <path class="st0" d="M49.8,59h8.6v1.1h-8.6v-1.1ZM57.2,57.3c-.8-.3-1.4-.7-1.9-1-.5-.3-.9-.6-1.2-1-.3.3-.7.7-1.2,1-.5.3-1.2.7-2,1l-.6-1.1c.6-.3,1.1-.5,1.5-.8s.7-.5.9-.7c.2-.2.4-.5.5-.7,0-.2.1-.5.1-.7v-1.2h1.4v1.2c0,.3,0,.5.1.7,0,.2.2.5.5.7.2.2.5.5.9.7.4.2.9.5,1.5.8l-.6,1.1Z"/>
    <path class="st0" d="M62,52.4h3.7v6.3h-3.7v-6.3ZM63.4,53.6v4h1v-4h-1ZM69.8,51.8v9.2h-1.3v-4.9h-.7v4.6h-1.3v-8.8h1.3v3.1h.7v-3.2h1.3Z"/>
    <path class="st0" d="M76.8,57.6v1.2h-5v-6.4h1.4v5.2h3.6ZM79,51.8v9.2h-1.4v-9.2h1.4Z"/>
    <path class="st0" d="M80.9,52.5h5.1v1.2h-1.8v.8c0,.3,0,.6,0,.9,0,.3.2.5.3.8.2.3.4.5.7.8s.7.6,1.2,1l-.8,1c-.5-.4-1-.8-1.3-1.1s-.6-.6-.8-.9c-.2.3-.5.6-.8,1s-.8.7-1.3,1.2l-.9-.9c.5-.4.9-.8,1.2-1,.3-.3.5-.6.7-.8s.3-.5.4-.8c0-.3.1-.6.1-1v-.8h-1.9v-1.2ZM88.4,51.8v9.2h-1.4v-9.2h1.4Z"/>
    <path class="st0" d="M90.4,52.3h4.5v4.8h-4.5v-4.8ZM91.8,53.5v2.4h1.8v-2.4h-1.8ZM93.2,58v1.9h4.8v1.1h-6.2v-3.1h1.4ZM97.8,51.8v6.7h-1.4v-3.2h-1.2v-1.1h1.2v-2.3h1.4Z"/>
    <path class="st0" d="M99.4,59h8.6v1.1h-8.6v-1.1ZM101.9,56.4h5v1.1h-6.4v-5.3h6.3v1.1h-4.9v.9h4.9v1.1h-4.9v1Z"/>
    <path class="st0" d="M113.4,52.3h1.4v2.2c0,.3,0,.6,0,.9,0,.2.1.5.3.8.2.3.4.5.7.8.3.3.7.6,1.2,1.1l-.8,1c-.5-.4-1-.8-1.3-1.1-.3-.3-.6-.6-.8-.9-.2.3-.5.6-.9,1-.4.3-.8.8-1.4,1.2l-.9-1c.5-.4.9-.8,1.2-1.1s.5-.6.7-.9c.2-.3.3-.5.3-.8,0-.3,0-.6,0-.9v-2.2ZM119.2,51.8v9.2h-1.4v-5.5h-1.5v-1.1h1.5v-2.6h1.4Z"/>
    <path class="st0" d="M124.4,59v-1.7h-2.9v-1.2h1.2v-2.6h-1.1v-1.2h6.9v1.2h-1.1v2.6h1.2v1.2h-2.9v1.7h3.6v1.1h-8.6v-1.1h3.6ZM124.1,56.1h2v-2.6h-2v2.6Z"/>
    <path class="st0" d="M130.2,59h8.6v1.1h-8.6v-1.1ZM132.7,56.4h5v1.1h-6.4v-5.3h6.3v1.1h-4.9v.9h4.9v1.1h-4.9v1Z"/>
  </g>
  <g>
    <path class="st0" d="M27,64.8h.7v.9h.9v-.9h.7v2.4h-.7v-.9h-.9v.9h-.7v-2.4Z"/>
    <path class="st0" d="M29.8,67.2l.8-2.4h.9l.8,2.4h-.7l-.6-1.7h0l-.6,1.7h-.7ZM31.7,66.2v.5h-1.4v-.5h1.4Z"/>
    <path class="st0" d="M35.1,67.2h-.5l-.9-1.3h0v1.3h-.7v-2.4h.6l.9,1.3h0v-1.3h.7v2.4Z"/>
    <path class="st0" d="M35.7,64.8h.7v1.9h1v.5h-1.7v-2.4Z"/>
    <path class="st0" d="M37.9,67.2l.8-2.4h.9l.8,2.4h-.7l-.6-1.7h0l-.6,1.7h-.7ZM39.9,66.2v.5h-1.4v-.5h1.4Z"/>
    <path class="st0" d="M42.2,64.8h1.1c.2,0,.3,0,.5,0,.1,0,.2.1.3.2,0,0,0,.2,0,.3s0,.2,0,.2c0,0,0,.1-.2.2s-.2,0-.2.1h0c.1,0,.2,0,.3.1s.2.1.2.2c0,0,0,.2,0,.3s0,.2-.1.3-.2.2-.3.2c-.1,0-.3,0-.5,0h-1.2v-2.4ZM43.3,65.7s0,0,.1,0c0,0,0,0,0-.1s0,0,0-.1c0,0,0,0-.1,0,0,0,0,0-.2,0h-.3v.5h.3c0,0,.1,0,.2,0ZM43.4,66.6c0,0,0,0,.1,0,0,0,0,0,0-.1s0-.1,0-.1c0,0,0,0-.1,0,0,0-.1,0-.2,0h-.3v.5h.3c0,0,.1,0,.2,0Z"/>
    <path class="st0" d="M46.9,64.8v1.5c0,.2,0,.3-.1.5,0,.1-.2.2-.4.3s-.3.1-.6.1-.4,0-.6-.1c-.2,0-.3-.2-.4-.3,0-.1-.1-.3-.1-.5v-1.5h.7v1.5c0,0,0,.1,0,.2,0,0,0,.1.1.1s.1,0,.2,0,.2,0,.2,0,.1,0,.1-.1c0,0,0-.1,0-.2v-1.5h.7Z"/>
    <path class="st0" d="M48.9,65.4s0,0-.1,0c0,0-.1,0-.2,0s-.1,0-.2,0c0,0,0,0-.1,0s0,0,0,.1c0,0,0,.1,0,.1,0,0,.1,0,.3,0h.2c.2,0,.3.1.4.2.1,0,.2.1.3.2,0,0,0,.2,0,.3,0,.2,0,.3-.1.4,0,.1-.2.2-.3.2-.1,0-.3,0-.5,0s-.4,0-.6,0c-.2,0-.3-.2-.4-.3,0-.1-.1-.3-.1-.5h.6c0,0,0,.1,0,.2,0,0,0,0,.1.1s.1,0,.2,0,.1,0,.2,0c0,0,0,0,.1,0,0,0,0,0,0-.1,0,0,0,0,0-.1,0,0,0,0-.1,0s-.1,0-.2,0h-.3c-.2-.1-.4-.2-.5-.3-.1-.1-.2-.3-.2-.4,0-.1,0-.3.1-.4s.2-.2.4-.3c.2,0,.3,0,.5,0s.4,0,.5,0c.1,0,.3.2.3.3,0,.1.1.3.1.4h-.6c0,0,0-.1,0-.1Z"/>
    <path class="st0" d="M50.9,67.2h-.7v-2.4h.7v2.4Z"/>
    <path class="st0" d="M53.7,67.2h-.5l-.9-1.3h0v1.3h-.7v-2.4h.6l.9,1.3h0v-1.3h.7v2.4Z"/>
    <path class="st0" d="M54.4,64.8h1.8v.5h-1.1v.4h1v.5h-1v.4h1.1v.5h-1.8v-2.4Z"/>
    <path class="st0" d="M58.1,65.4s0,0-.1,0c0,0-.1,0-.2,0s-.1,0-.2,0c0,0,0,0-.1,0,0,0,0,0,0,.1,0,0,0,.1,0,.1,0,0,.1,0,.3,0h.2c.2,0,.3.1.4.2.1,0,.2.1.3.2,0,0,0,.2,0,.3,0,.2,0,.3-.1.4,0,.1-.2.2-.3.2-.1,0-.3,0-.5,0s-.4,0-.6,0c-.2,0-.3-.2-.4-.3,0-.1-.1-.3-.1-.5h.6c0,0,0,.1,0,.2,0,0,0,0,.1.1,0,0,.1,0,.2,0s.1,0,.2,0c0,0,0,0,.1,0,0,0,0,0,0-.1,0,0,0,0,0-.1,0,0,0,0-.1,0,0,0-.1,0-.2,0h-.3c-.2-.1-.4-.2-.5-.3s-.2-.3-.2-.4c0-.1,0-.3.1-.4,0-.1.2-.2.4-.3.2,0,.3,0,.5,0s.4,0,.5,0c.1,0,.3.2.3.3,0,.1.1.3.1.4h-.6c0,0,0-.1,0-.1Z"/>
    <path class="st0" d="M60.7,65.4s0,0-.1,0c0,0-.1,0-.2,0s-.1,0-.2,0c0,0,0,0-.1,0,0,0,0,0,0,.1,0,0,0,.1,0,.1,0,0,.1,0,.3,0h.2c.2,0,.3.1.4.2.1,0,.2.1.3.2,0,0,0,.2,0,.3,0,.2,0,.3-.1.4,0,.1-.2.2-.3.2-.1,0-.3,0-.5,0s-.4,0-.6,0c-.2,0-.3-.2-.4-.3,0-.1-.1-.3-.1-.5h.6c0,0,0,.1,0,.2,0,0,0,0,.1.1,0,0,.1,0,.2,0s.1,0,.2,0c0,0,0,0,.1,0,0,0,0,0,0-.1,0,0,0,0,0-.1,0,0,0,0-.1,0,0,0-.1,0-.2,0h-.3c-.2-.1-.4-.2-.5-.3s-.2-.3-.2-.4c0-.1,0-.3.1-.4,0-.1.2-.2.4-.3.2,0,.3,0,.5,0s.4,0,.5,0c.1,0,.3.2.3.3,0,.1.1.3.1.4h-.6c0,0,0-.1,0-.1Z"/>
    <path class="st0" d="M64,64.8l.6,1.4h0l.6-1.4h.8v2.4h-.6v-1.4h0l-.6,1.4h-.4l-.6-1.4h0v1.4h-.6v-2.4h.8Z"/>
    <path class="st0" d="M66.6,67.2l.8-2.4h.9l.8,2.4h-.7l-.6-1.7h0l-.6,1.7h-.7ZM68.5,66.2v.5h-1.4v-.5h1.4Z"/>
    <path class="st0" d="M71.9,67.2h-.5l-.9-1.3h0v1.3h-.7v-2.4h.6l.9,1.3h0v-1.3h.7v2.4Z"/>
    <path class="st0" d="M72.5,67.2l.8-2.4h.9l.8,2.4h-.7l-.6-1.7h0l-.6,1.7h-.7ZM74.4,66.2v.5h-1.4v-.5h1.4Z"/>
    <path class="st0" d="M77,65.4s0,0-.1,0c0,0-.1,0-.2,0-.1,0-.2,0-.3,0,0,0-.1.1-.2.2,0,.1,0,.2,0,.4s0,.3,0,.4.1.2.2.2c0,0,.2,0,.3,0s.2,0,.3,0,.1,0,.2-.1c0,0,0-.1,0-.2h.1s-.6,0-.6,0v-.5h1.1v.3c0,.2,0,.4-.1.6s-.2.3-.4.4c-.2,0-.4.1-.6.1s-.4,0-.6-.1c-.2,0-.3-.2-.4-.4s-.2-.4-.2-.6,0-.5.2-.7.3-.3.4-.4.4-.1.6-.1.4,0,.5.1c.2,0,.3.2.4.3,0,.1.2.3.2.4h-.7c0,0,0-.1,0-.1Z"/>
    <path class="st0" d="M78.4,64.8h1.8v.5h-1.1v.4h1v.5h-1v.4h1.1v.5h-1.8v-2.4Z"/>
    <path class="st0" d="M81.7,64.8l.6,1.4h0l.6-1.4h.8v2.4h-.6v-1.4h0l-.6,1.4h-.4l-.6-1.4h0v1.4h-.6v-2.4h.8Z"/>
    <path class="st0" d="M84.4,64.8h1.8v.5h-1.1v.4h1v.5h-1v.4h1.1v.5h-1.8v-2.4Z"/>
    <path class="st0" d="M89,67.2h-.5l-.9-1.3h0v1.3h-.7v-2.4h.6l.9,1.3h0v-1.3h.7v2.4Z"/>
    <path class="st0" d="M89.6,64.8h2.1v.5h-.7v1.9h-.6v-1.9h-.7v-.5Z"/>
    <path class="st0" d="M94.8,65.4s0,0-.1,0c0,0-.1,0-.2,0s-.1,0-.2,0c0,0,0,0-.1,0,0,0,0,0,0,.1,0,0,0,.1,0,.1,0,0,.1,0,.3,0h.2c.2,0,.3.1.4.2.1,0,.2.1.3.2,0,0,0,.2,0,.3,0,.2,0,.3-.1.4,0,.1-.2.2-.3.2-.1,0-.3,0-.5,0s-.4,0-.6,0c-.2,0-.3-.2-.4-.3,0-.1-.1-.3-.1-.5h.6c0,0,0,.1,0,.2,0,0,0,0,.1.1,0,0,.1,0,.2,0s.1,0,.2,0c0,0,0,0,.1,0,0,0,0,0,0-.1,0,0,0,0,0-.1,0,0,0,0-.1,0,0,0-.1,0-.2,0h-.3c-.2-.1-.4-.2-.5-.3s-.2-.3-.2-.4c0-.1,0-.3.1-.4,0-.1.2-.2.4-.3.2,0,.3,0,.5,0s.4,0,.5,0c.1,0,.3.2.3.3,0,.1.1.3.1.4h-.6c0,0,0-.1,0-.1Z"/>
    <path class="st0" d="M98.2,64.8v1.5c0,.2,0,.3-.1.5,0,.1-.2.2-.4.3-.2,0-.3.1-.6.1s-.4,0-.6-.1c-.2,0-.3-.2-.4-.3,0-.1-.1-.3-.1-.5v-1.5h.7v1.5c0,0,0,.1,0,.2,0,0,0,.1.1.1,0,0,.1,0,.2,0s.2,0,.2,0,.1,0,.1-.1c0,0,0-.1,0-.2v-1.5h.7Z"/>
    <path class="st0" d="M98.9,64.8h1.1c.2,0,.3,0,.5.1.1,0,.2.2.3.3,0,.1.1.3.1.4s0,.3-.1.4c0,.1-.2.2-.3.3s-.3.1-.5.1h-.6v-.5h.5c0,0,.1,0,.2,0,0,0,.1,0,.1-.1,0,0,0-.1,0-.2s0-.1,0-.2,0,0-.1-.1c0,0-.1,0-.2,0h-.3v1.9h-.7v-2.4Z"/>
    <path class="st0" d="M101.5,64.8h1.1c.2,0,.3,0,.5.1.1,0,.2.2.3.3,0,.1.1.3.1.4s0,.3-.1.4c0,.1-.2.2-.3.3s-.3.1-.5.1h-.6v-.5h.5c0,0,.1,0,.2,0,0,0,.1,0,.1-.1,0,0,0-.1,0-.2s0-.1,0-.2,0,0-.1-.1c0,0-.1,0-.2,0h-.3v1.9h-.7v-2.4Z"/>
    <path class="st0" d="M106.3,66.7c-.1.2-.2.3-.4.4-.2,0-.4.1-.6.1s-.4,0-.6-.1c-.2,0-.3-.2-.4-.4-.1-.2-.2-.4-.2-.7s0-.5.2-.7c.1-.2.2-.3.4-.4.2,0,.4-.1.6-.1s.4,0,.6.1c.2,0,.3.2.4.4s.2.4.2.7,0,.5-.2.7ZM105.7,65.6c0-.1-.1-.2-.2-.2,0,0-.2,0-.3,0s-.2,0-.3,0c0,0-.1.1-.2.2,0,.1,0,.2,0,.4s0,.3,0,.4c0,.1.1.2.2.2,0,0,.2,0,.3,0s.2,0,.3,0c0,0,.1-.1.2-.2,0-.1,0-.2,0-.4s0-.3,0-.4Z"/>
    <path class="st0" d="M107.1,64.8h1.1c.2,0,.3,0,.5,0s.2.2.3.3c0,.1.1.3.1.4s0,.3-.1.4c0,.1-.2.2-.3.3s-.3,0-.5,0h-.6v-.5h.5c0,0,.2,0,.2,0,0,0,.1,0,.1,0s0,0,0-.2,0-.1,0-.2,0,0-.1-.1-.1,0-.2,0h-.3v1.9h-.7v-2.4ZM109.2,67.2h-.7l-.6-1.1h.7l.6,1.1Z"/>
    <path class="st0" d="M109.7,64.8h2.1v.5h-.7v1.9h-.6v-1.9h-.7v-.5Z"/>
  </g>
</svg>