<?xml version="1.0" encoding="UTF-8"?>
<svg id="Layer_2" xmlns="http://www.w3.org/2000/svg" version="1.1" viewBox="0 0 195.9 33.7">
  <!-- Generator: Adobe Illustrator 29.0.0, SVG Export Plug-In . SVG Version: 2.1.0 Build 186)  -->
  <defs>
    <style>
      .st0 {
        fill: #1e1e1e;
      }

      .st1 {
        fill: #272d6f;
      }
    </style>
  </defs>
  <polygon class="st1" points="22.2 7.4 11.2 0 11.2 9.3 14.8 11.7 14.8 11.7 14.8 16 7.4 16 7.4 9.8 0 14.5 0 26.3 0 26.3 11 33.7 11 24.4 7.4 22 7.4 22 7.4 17.7 14.8 17.7 14.8 23.9 22.2 19.2 22.2 7.4 22.2 7.4"/>
  <g>
    <path class="st0" d="M29.8,12c0-.3,0-.6.2-.9.1-.3.3-.5.4-.8h-1.1v-1.3h2.5v-1.3h1.7v1.3h2.5v1.3h-1.1c.2.2.3.5.5.8.1.3.2.6.2.9s0,.7-.2,1.1c-.1.3-.4.6-.6.9-.3.2-.6.4-.9.6-.4.1-.7.2-1.1.2s-.8,0-1.1-.2c-.3-.1-.7-.3-.9-.6-.3-.2-.5-.5-.6-.9s-.2-.7-.2-1.1ZM32.9,15.6v2.1h5.8v1.4h-7.5v-3.5h1.7ZM31.5,11.9c0,.4.1.8.3,1s.5.4.9.4.7-.1.9-.4.3-.6.3-1,0-.4,0-.6c0-.2-.1-.3-.3-.5s-.2-.2-.4-.3c-.1,0-.3-.1-.5-.1s-.4,0-.5.1c-.1,0-.3.2-.4.3s-.2.3-.3.5c0,.2,0,.4,0,.6ZM38.4,8v3h1.8v1.4h-1.8v3.6h-1.7V8h1.7Z"/>
    <path class="st0" d="M47.2,15.1v1.3h-6.1v-4.7h3.5v-1.8h-3.5v-1.4h5.1v4.6h-3.5v2h4.4ZM49.7,8v3.7h1.8v1.4h-1.8v6h-1.7V8h1.7Z"/>
    <path class="st0" d="M59.8,8.5h1.6v7.7h-5.5v-7.7h1.7v2.6h2.2v-2.6ZM59.8,14.9v-2.3h-2.2v2.3h2.2ZM64.7,8v11.1h-1.7V8h1.7Z"/>
    <path class="st0" d="M66.9,8.8h6.1v1.4h-2.2v1c0,.4,0,.8.1,1.1,0,.3.2.6.4.9.2.3.5.6.8,1,.4.3.9.8,1.5,1.2l-1,1.2c-.6-.5-1.2-.9-1.6-1.3s-.8-.7-1-1.1c-.3.4-.6.8-1,1.2s-1,.9-1.6,1.4l-1.1-1.1c.6-.5,1-.9,1.4-1.3.4-.3.6-.7.9-1s.4-.6.4-1c0-.3.1-.8.1-1.2v-1h-2.2v-1.4ZM75.9,8v11.1h-1.7V8h1.7Z"/>
    <path class="st0" d="M84.6,14.9v1.4h-6v-7.6h1.7v6.2h4.4ZM87.2,8v11.1h-1.7V8h1.7Z"/>
    <path class="st0" d="M89.1,16.6h10.3v1.4h-10.3v-1.4ZM98,14.6c-1-.4-1.7-.8-2.3-1.2-.6-.4-1.1-.8-1.4-1.1-.3.4-.8.8-1.4,1.2-.6.4-1.4.8-2.4,1.2l-.7-1.3c.7-.3,1.3-.6,1.8-.9s.8-.6,1.1-.9c.3-.3.5-.6.6-.9,0-.3.1-.6.1-.9v-1.4h1.7v1.4c0,.3,0,.6.1.9,0,.3.3.6.6.8.3.3.6.5,1.1.8.5.3,1.1.6,1.8.9l-.7,1.3Z"/>
    <path class="st0" d="M103.8,8.7h4.5v7.6h-4.5v-7.6ZM105.4,10.1v4.8h1.2v-4.8h-1.2ZM113.1,8v11.1h-1.6v-5.9h-.8v5.5h-1.6v-10.6h1.6v3.7h.8v-3.8h1.6Z"/>
    <path class="st0" d="M121.5,14.9v1.4h-6v-7.6h1.7v6.2h4.4ZM124.2,8v11.1h-1.7V8h1.7Z"/>
    <path class="st0" d="M126.4,8.8h6.1v1.4h-2.2v1c0,.4,0,.8.1,1.1,0,.3.2.6.4.9.2.3.5.6.8,1s.9.8,1.5,1.2l-1,1.2c-.6-.5-1.2-.9-1.6-1.3s-.8-.7-1-1.1c-.3.4-.6.8-1,1.2s-1,.9-1.6,1.4l-1.1-1.1c.6-.5,1-.9,1.4-1.3.4-.3.6-.7.9-1s.4-.6.4-1c0-.3.1-.8.1-1.2v-1h-2.2v-1.4ZM135.5,8v11.1h-1.7V8h1.7Z"/>
    <path class="st0" d="M137.8,8.5h5.4v5.8h-5.4v-5.8ZM139.5,9.9v2.9h2.1v-2.9h-2.1ZM141.2,15.4v2.3h5.8v1.4h-7.4v-3.7h1.7ZM146.7,8v8.1h-1.7v-3.9h-1.4v-1.4h1.4v-2.8h1.7Z"/>
    <path class="st0" d="M148.6,16.6h10.3v1.4h-10.3v-1.4ZM151.7,13.5h6v1.4h-7.7v-6.3h7.6v1.4h-5.9v1.1h5.8v1.4h-5.8v1.2Z"/>
    <path class="st0" d="M165.5,8.6h1.7v2.6c0,.4,0,.7,0,1,0,.3.2.6.4.9.2.3.5.6.8,1,.4.4.9.8,1.5,1.3l-.9,1.2c-.6-.5-1.1-.9-1.6-1.3-.4-.4-.8-.8-1-1.1-.3.4-.6.8-1,1.2-.4.4-1,.9-1.7,1.5l-1-1.2c.6-.5,1.1-1,1.5-1.3s.7-.7.9-1c.2-.3.3-.6.4-1,0-.3.1-.7.1-1.1v-2.6ZM172.4,8v11.1h-1.7v-6.6h-1.8v-1.4h1.8v-3.1h1.7Z"/>
    <path class="st0" d="M178.6,16.6v-2h-3.4v-1.4h1.4v-3.1h-1.3v-1.4h8.3v1.4h-1.3v3.1h1.4v1.4h-3.4v2h4.3v1.4h-10.3v-1.4h4.3ZM178.3,13.1h2.4v-3.1h-2.4v3.1Z"/>
    <path class="st0" d="M185.6,16.6h10.3v1.4h-10.3v-1.4ZM188.6,13.5h6v1.4h-7.7v-6.3h7.6v1.4h-5.9v1.1h5.8v1.4h-5.8v1.2Z"/>
  </g>
  <g>
    <path class="st0" d="M58.8,24.3h.8v1.2h1.1v-1.2h.8v3h-.8v-1.2h-1.1v1.2h-.8v-3Z"/>
    <path class="st0" d="M62.4,27.3l1-3h1.1l1,3h-.9l-.7-2.2h0l-.7,2.2h-.9ZM64.8,26.1v.6h-1.7v-.6h1.7Z"/>
    <path class="st0" d="M69,27.3h-.7l-1.2-1.6h0v1.6h-.8v-3h.7l1.1,1.6h0v-1.6h.8v3Z"/>
    <path class="st0" d="M69.8,24.3h.8v2.4h1.3v.6h-2.1v-3Z"/>
    <path class="st0" d="M72.6,27.3l1-3h1.1l1,3h-.9l-.7-2.2h0l-.7,2.2h-.9ZM75.1,26.1v.6h-1.7v-.6h1.7Z"/>
    <path class="st0" d="M77.9,24.3h1.3c.2,0,.4,0,.6,0,.2,0,.3.1.4.3,0,.1.1.2.1.4s0,.2,0,.3c0,0-.1.2-.2.2s-.2.1-.3.1h0c.1,0,.3,0,.4.1s.2.1.3.3c0,.1,0,.2,0,.4s0,.3-.1.4-.2.2-.4.3c-.2,0-.4.1-.6.1h-1.4v-3ZM79.3,25.4c0,0,.1,0,.1-.1,0,0,0,0,0-.2s0-.1,0-.2c0,0,0,0-.1-.1,0,0-.1,0-.2,0h-.4v.6h.4c0,0,.1,0,.2,0ZM79.4,26.6c0,0,.1,0,.1-.1,0,0,0-.1,0-.2s0-.1,0-.2c0,0,0,0-.1-.1,0,0-.1,0-.2,0h-.4v.7h.4c0,0,.2,0,.2,0Z"/>
    <path class="st0" d="M83.9,24.3v1.9c0,.2,0,.4-.2.6-.1.2-.3.3-.5.4s-.4.1-.7.1-.5,0-.7-.1c-.2,0-.4-.2-.5-.4-.1-.2-.2-.4-.2-.6v-1.9h.8v1.9c0,0,0,.2,0,.3,0,0,.1.1.2.2s.2,0,.3,0,.2,0,.3,0,.1-.1.2-.2c0,0,0-.2,0-.3v-1.9h.8Z"/>
    <path class="st0" d="M86.4,25s0,0-.1-.1c0,0-.1,0-.2,0s-.2,0-.2,0c0,0-.1,0-.1,0s0,0,0,.1c0,0,0,.1,0,.2,0,0,.2,0,.3.1h.3c.2.1.4.2.5.2.1,0,.2.2.3.3,0,.1.1.3.1.4,0,.2,0,.4-.2.5-.1.1-.2.2-.4.3-.2,0-.4.1-.7.1s-.5,0-.7-.1c-.2,0-.4-.2-.5-.4-.1-.2-.2-.4-.2-.6h.8c0,0,0,.2,0,.2,0,0,.1.1.2.1s.2,0,.3,0,.2,0,.2,0c0,0,.1,0,.1,0,0,0,0,0,0-.1,0,0,0,0,0-.1,0,0,0,0-.2,0s-.2,0-.3,0h-.3c-.3-.1-.5-.2-.7-.4-.2-.1-.2-.3-.2-.5,0-.2,0-.4.2-.5s.3-.3.4-.3c.2,0,.4-.1.6-.1s.5,0,.6.1c.2,0,.3.2.4.3,0,.1.1.3.2.5h-.8c0,0,0-.1,0-.2Z"/>
    <path class="st0" d="M88.9,27.3h-.8v-3h.8v3Z"/>
    <path class="st0" d="M92.4,27.3h-.7l-1.2-1.6h0v1.6h-.8v-3h.7l1.1,1.6h0v-1.6h.8v3Z"/>
    <path class="st0" d="M93.3,24.3h2.2v.6h-1.4v.5h1.3v.6h-1.3v.5h1.4v.6h-2.2v-3Z"/>
    <path class="st0" d="M98,25s0,0-.1-.1c0,0-.1,0-.2,0s-.2,0-.2,0c0,0-.1,0-.1,0,0,0,0,0,0,.1,0,0,0,.1,0,.2,0,0,.2,0,.3.1h.3c.2.1.4.2.5.2.1,0,.2.2.3.3,0,.1.1.3.1.4,0,.2,0,.4-.2.5-.1.1-.2.2-.4.3-.2,0-.4.1-.7.1s-.5,0-.7-.1c-.2,0-.4-.2-.5-.4-.1-.2-.2-.4-.2-.6h.8c0,0,0,.2,0,.2,0,0,.1.1.2.1,0,0,.2,0,.3,0s.2,0,.2,0c0,0,.1,0,.1,0,0,0,0,0,0-.1,0,0,0,0,0-.1,0,0,0,0-.2,0,0,0-.2,0-.3,0h-.3c-.3-.1-.5-.2-.7-.4s-.2-.3-.2-.5c0-.2,0-.4.2-.5.1-.1.3-.3.4-.3.2,0,.4-.1.6-.1s.5,0,.6.1c.2,0,.3.2.4.3,0,.1.2.3.2.5h-.8c0,0,0-.1,0-.2Z"/>
    <path class="st0" d="M101.3,25s0,0-.1-.1c0,0-.1,0-.2,0s-.2,0-.2,0c0,0-.1,0-.1,0,0,0,0,0,0,.1,0,0,0,.1,0,.2,0,0,.2,0,.3.1h.3c.2.1.4.2.5.2.1,0,.2.2.3.3,0,.1.1.3.1.4,0,.2,0,.4-.2.5-.1.1-.2.2-.4.3-.2,0-.4.1-.7.1s-.5,0-.7-.1c-.2,0-.4-.2-.5-.4-.1-.2-.2-.4-.2-.6h.8c0,0,0,.2,0,.2,0,0,.1.1.2.1,0,0,.2,0,.3,0s.2,0,.2,0c0,0,.1,0,.1,0,0,0,0,0,0-.1,0,0,0,0,0-.1,0,0,0,0-.2,0,0,0-.2,0-.3,0h-.3c-.3-.1-.5-.2-.7-.4s-.2-.3-.2-.5c0-.2,0-.4.2-.5.1-.1.3-.3.4-.3.2,0,.4-.1.6-.1s.5,0,.6.1c.2,0,.3.2.4.3,0,.1.2.3.2.5h-.8c0,0,0-.1,0-.2Z"/>
    <path class="st0" d="M105.3,24.3l.7,1.7h0l.7-1.7h1v3h-.8v-1.8h0l-.7,1.7h-.5l-.7-1.8h0v1.8h-.8v-3h1Z"/>
    <path class="st0" d="M108.6,27.3l1-3h1.1l1,3h-.9l-.7-2.2h0l-.7,2.2h-.9ZM111.1,26.1v.6h-1.7v-.6h1.7Z"/>
    <path class="st0" d="M115.2,27.3h-.7l-1.2-1.6h0v1.6h-.8v-3h.7l1.1,1.6h0v-1.6h.8v3Z"/>
    <path class="st0" d="M116,27.3l1-3h1.1l1,3h-.9l-.7-2.2h0l-.7,2.2h-.9ZM118.4,26.1v.6h-1.7v-.6h1.7Z"/>
    <path class="st0" d="M121.7,25.1s-.1,0-.2-.1c0,0-.2,0-.2,0-.1,0-.3,0-.4.1-.1,0-.2.2-.2.3,0,.1,0,.3,0,.5s0,.3,0,.5.1.2.2.3c.1,0,.2.1.4.1s.2,0,.3,0,.2,0,.2-.2c0,0,0-.2,0-.2h.1s-.7,0-.7,0v-.6h1.4v.4c0,.3,0,.5-.2.7s-.3.3-.5.4c-.2.1-.5.2-.7.2s-.6,0-.8-.2c-.2-.1-.4-.3-.5-.5s-.2-.5-.2-.8,0-.6.2-.8.3-.4.5-.5.5-.2.8-.2.5,0,.7.1c.2,0,.4.2.5.4.1.2.2.3.2.5h-.8c0,0,0-.1,0-.2Z"/>
    <path class="st0" d="M123.5,24.3h2.2v.6h-1.4v.5h1.3v.6h-1.3v.5h1.4v.6h-2.2v-3Z"/>
    <path class="st0" d="M127.6,24.3l.7,1.7h0l.7-1.7h1v3h-.8v-1.8h0l-.7,1.7h-.5l-.7-1.8h0v1.8h-.8v-3h1Z"/>
    <path class="st0" d="M131,24.3h2.2v.6h-1.4v.5h1.3v.6h-1.3v.5h1.4v.6h-2.2v-3Z"/>
    <path class="st0" d="M136.8,27.3h-.7l-1.2-1.6h0v1.6h-.8v-3h.7l1.1,1.6h0v-1.6h.8v3Z"/>
    <path class="st0" d="M137.6,24.3h2.7v.6h-.9v2.4h-.8v-2.4h-.9v-.6Z"/>
    <path class="st0" d="M144,25s0,0-.1-.1c0,0-.1,0-.2,0s-.2,0-.2,0c0,0-.1,0-.1,0,0,0,0,0,0,.1,0,0,0,.1,0,.2,0,0,.2,0,.3.1h.3c.2.1.4.2.5.2.1,0,.2.2.3.3,0,.1.1.3.1.4,0,.2,0,.4-.2.5-.1.1-.2.2-.4.3-.2,0-.4.1-.7.1s-.5,0-.7-.1c-.2,0-.4-.2-.5-.4-.1-.2-.2-.4-.2-.6h.8c0,0,0,.2,0,.2,0,0,.1.1.2.1,0,0,.2,0,.3,0s.2,0,.2,0c0,0,.1,0,.1,0,0,0,0,0,0-.1,0,0,0,0,0-.1,0,0,0,0-.2,0,0,0-.2,0-.3,0h-.3c-.3-.1-.5-.2-.7-.4s-.2-.3-.2-.5c0-.2,0-.4.2-.5.1-.1.3-.3.4-.3.2,0,.4-.1.6-.1s.5,0,.6.1c.2,0,.3.2.4.3,0,.1.2.3.2.5h-.8c0,0,0-.1,0-.2Z"/>
    <path class="st0" d="M148.4,24.3v1.9c0,.2,0,.4-.2.6-.1.2-.3.3-.5.4-.2,0-.4.1-.7.1s-.5,0-.7-.1c-.2,0-.4-.2-.5-.4-.1-.2-.2-.4-.2-.6v-1.9h.8v1.9c0,0,0,.2,0,.3,0,0,.1.1.2.2,0,0,.2,0,.3,0s.2,0,.3,0,.1-.1.2-.2c0,0,0-.2,0-.3v-1.9h.8Z"/>
    <path class="st0" d="M149.2,24.3h1.3c.2,0,.4,0,.6.1.2,0,.3.2.4.4,0,.2.1.3.1.6s0,.4-.1.6c0,.2-.2.3-.4.4s-.4.1-.6.1h-.8v-.6h.6c.1,0,.2,0,.3,0,0,0,.1,0,.2-.1,0,0,0-.1,0-.2s0-.2,0-.2,0-.1-.2-.1c0,0-.2,0-.3,0h-.3v2.4h-.8v-3Z"/>
    <path class="st0" d="M152.5,24.3h1.3c.2,0,.4,0,.6.1.2,0,.3.2.4.4,0,.2.1.3.1.6s0,.4-.1.6c0,.2-.2.3-.4.4s-.4.1-.6.1h-.8v-.6h.6c.1,0,.2,0,.3,0,0,0,.1,0,.2-.1,0,0,0-.1,0-.2s0-.2,0-.2,0-.1-.2-.1c0,0-.2,0-.3,0h-.3v2.4h-.8v-3Z"/>
    <path class="st0" d="M158.5,26.6c-.1.2-.3.4-.5.5-.2.1-.5.2-.8.2s-.5,0-.8-.2c-.2-.1-.4-.3-.5-.5-.1-.2-.2-.5-.2-.8s0-.6.2-.8c.1-.2.3-.4.5-.5.2-.1.5-.2.8-.2s.5,0,.8.2c.2.1.4.3.5.5s.2.5.2.8,0,.6-.2.8ZM157.8,25.3c0-.1-.1-.2-.2-.3,0,0-.2,0-.4,0s-.3,0-.4,0c0,0-.2.2-.2.3,0,.1,0,.3,0,.5s0,.3,0,.5c0,.1.1.2.2.3,0,0,.2,0,.4,0s.3,0,.4,0c0,0,.2-.2.2-.3,0-.1,0-.3,0-.5s0-.3,0-.5Z"/>
    <path class="st0" d="M159.5,24.3h1.3c.2,0,.4,0,.6.1s.3.2.4.4c0,.2.1.3.1.5s0,.4-.1.5c0,.1-.2.3-.4.3s-.4.1-.6.1h-.8v-.6h.6c.1,0,.2,0,.3,0,0,0,.1,0,.2-.1s0-.1,0-.2,0-.2,0-.2,0,0-.2-.1-.2,0-.3,0h-.3v2.4h-.8v-3ZM162.1,27.3h-.9l-.8-1.4h.9l.8,1.4Z"/>
    <path class="st0" d="M162.7,24.3h2.7v.6h-.9v2.4h-.8v-2.4h-.9v-.6Z"/>
  </g>
</svg>