<?xml version="1.0" encoding="utf-8"?>
<!-- Generator: Adobe Illustrator 24.2.0, SVG Export Plug-In . SVG Version: 6.00 Build 0)  -->
<svg version="1.1" id="Layer_1" xmlns="http://www.w3.org/2000/svg" xmlns:xlink="http://www.w3.org/1999/xlink" x="0px" y="0px"
	 viewBox="0 0 512 447.5" style="enable-background:new 0 0 512 447.5;" xml:space="preserve">
<path d="M239,276h-71.1V69.5c0-3.9-3.2-7.1-7.1-7.1H85.9c-3.9,0-7.1,3.2-7.1,7.1V276H7.6c-2.7,0-5.2,1.5-6.4,3.9
	c-1.2,2.4-1,5.3,0.6,7.4l115.7,157.1c1.3,1.8,3.5,2.9,5.7,2.9s4.4-1.1,5.7-2.9l115.7-157.1c1.6-2.2,1.8-5,0.6-7.4
	C244.1,277.5,241.7,276,239,276L239,276z M123.3,428.2L21.7,290.3h64.1c3.9,0,7.1-3.2,7.1-7.1V76.6h60.6v206.5
	c0,3.9,3.2,7.1,7.1,7.1h64.2L123.3,428.2z M482.6,289.8h-7c2.5-4.3,4-9.3,4-14.6v-23.9c0-15.9-13-28.9-28.9-28.9H429
	c36.4-20.2,61.1-59,61.1-103.5c0-65.2-53-118.2-118.2-118.2s-118.2,53-118.2,118.2c0,44.5,24.7,83.3,61.1,103.5h-21.6
	c-15.9,0-28.9,13-28.9,28.9v23.9c0,15.9,13,28.9,28.9,28.9h7c-2.5,4.3-4,9.3-4,14.6v23.9c0,5.3,1.5,10.3,4,14.6h-7
	c-15.9,0-28.9,13-28.9,28.9v23.9c0,15.9,13,28.9,28.9,28.9h157.4c15.9,0,28.9-13,28.9-28.9v-23.9c0-5.3-1.5-10.3-4-14.6h7
	c16,0,28.9-13,28.9-28.9v-23.9C511.5,302.7,498.5,289.8,482.6,289.8L482.6,289.8z M429.3,236.6h21.3c8.1,0,14.6,6.6,14.6,14.6v23.9
	c0,8.1-6.6,14.6-14.6,14.6h-21.3V236.6z M447,304v53.2h-36V304H447z M360.7,304h36v53.2h-36L360.7,304z M328.8,289.8v-53.2h32.7
	c1.1,0.1,2.2,0.2,3.3,0.2v53H328.8z M379.1,289.8v-53c1.1-0.1,2.2-0.1,3.3-0.2h32.7v53.2H379.1z M268,118.8
	c0-57.3,46.6-103.9,103.9-103.9s103.9,46.6,103.9,103.9c0,54-41.4,98.5-94.2,103.5h-19.5C309.4,217.3,268,172.8,268,118.8L268,118.8
	z M293.2,289.8c-8.1,0-14.6-6.6-14.6-14.6v-23.9c0-8.1,6.6-14.6,14.6-14.6h21.3v53.2L293.2,289.8z M314.5,424.7h-21.3
	c-8.1,0-14.6-6.6-14.6-14.6v-23.9c0-8.1,6.6-14.6,14.6-14.6h21.3V424.7z M310.5,342.6v-23.9c0-8.1,6.6-14.6,14.7-14.6h21.3v53.2
	h-21.3C317.1,357.2,310.5,350.7,310.5,342.6L310.5,342.6z M364.8,424.7h-36v-53.2h36V424.7z M415.1,424.7h-36v-53.2h36L415.1,424.7z
	 M465.3,410.1c0,8.1-6.6,14.6-14.6,14.6h-21.3v-53.2h21.3c8.1,0,14.6,6.6,14.6,14.6V410.1z M497.2,342.6c0,8.1-6.6,14.6-14.7,14.6
	h-21.3V304h21.3c8.1,0,14.7,6.6,14.7,14.6V342.6z M364.8,176.4H361c-16.4,0-29.7-12.4-29.7-27.6v-7.1h14.3v7.1
	c0,7.3,6.9,13.3,15.4,13.3h16.6c11.4,0,20.7-8.1,20.7-18.1c0-10-9.3-18.1-20.7-18.1c-11.4,0-46.2,0-46.2-32.4
	c0-17.4,14.9-31.6,33.5-32.3V37.4h14.3v23.8h3.8c16.4,0,29.7,12.4,29.7,27.6v7.1h-14.3v-7.1c0-7.3-6.9-13.3-15.4-13.3h-16.5
	c-11.4,0-20.7,8.1-20.7,18.1c0,10.9,5.4,18.1,32,18.1c19.3,0,35,14.5,35,32.4c0,17.4-14.9,31.6-33.5,32.3v23.9h-14.3V176.4z"/>
</svg>
