<svg id="Layer_1" enable-background="new 0 0 512 512" viewBox="0 0 512 512" xmlns="http://www.w3.org/2000/svg"><path d="m238.988 308.033h-71.139v-206.543c0-3.94-3.194-7.135-7.134-7.135h-74.837c-3.94 0-7.134 3.194-7.134 7.135v206.543h-71.11c-2.691 0-5.153 1.514-6.367 3.917-1.214 2.401-.973 5.282.622 7.449l115.677 157.066c1.345 1.825 3.477 2.904 5.744 2.904s4.4-1.079 5.744-2.904l115.677-157.066c1.596-2.167 1.836-5.048.622-7.449-1.212-2.402-3.674-3.917-6.365-3.917zm-115.677 152.17-101.563-137.901h64.13c3.94 0 7.134-3.194 7.134-7.135v-206.542h60.568v206.543c0 3.94 3.194 7.135 7.134 7.135h64.159zm359.248-138.451h-6.973c2.536-4.298 3.997-9.302 3.997-14.643v-23.915c0-15.942-12.97-28.912-28.912-28.912h-21.651c36.403-20.166 61.105-58.98 61.105-103.459 0-65.17-53.02-118.19-118.19-118.19s-118.189 53.02-118.189 118.19c0 44.48 24.702 83.294 61.105 103.459h-21.622c-15.942 0-28.912 12.971-28.912 28.912v23.915c0 15.942 12.97 28.912 28.912 28.912h6.976c-2.538 4.298-4.001 9.302-4.001 14.643v23.916c0 5.341 1.463 10.345 4.001 14.643h-6.976c-15.942 0-28.912 12.97-28.912 28.912v23.916c0 15.942 12.97 28.912 28.912 28.912h157.441c15.942 0 28.912-12.97 28.912-28.912v-23.916c0-5.341-1.462-10.345-3.997-14.643h6.973c15.958 0 28.941-12.97 28.941-28.912v-23.916c.001-15.942-12.981-28.912-28.94-28.912zm-53.231-53.201h21.344c8.075 0 14.644 6.568 14.644 14.643v23.915c0 8.075-6.569 14.643-14.644 14.643h-21.344zm17.647 67.47v53.202h-35.989v-53.202zm-86.245 0h35.989v53.202h-35.989zm-31.916-14.269v-53.201h32.735c1.08.095 2.165.175 3.253.24v52.961zm50.257 0v-52.961c1.088-.065 2.173-.146 3.253-.24h32.736v53.201zm-111.055-170.93c0-57.303 46.619-103.921 103.921-103.921s103.922 46.618 103.922 103.921c0 54.012-41.42 98.523-94.163 103.459h-19.518c-52.743-4.935-94.162-49.447-94.162-103.459zm25.215 170.93c-8.075 0-14.644-6.568-14.644-14.643v-23.915c0-8.075 6.569-14.643 14.644-14.643h21.315v53.201zm21.315 134.943h-21.315c-8.075 0-14.644-6.568-14.644-14.643v-23.916c0-8.075 6.569-14.643 14.644-14.643h21.315zm-4.073-82.115v-23.916c0-8.075 6.582-14.643 14.673-14.643h21.315v53.202h-21.315c-8.09 0-14.673-6.568-14.673-14.643zm54.33 82.115h-35.988v-53.202h35.988zm50.257 0h-35.989v-53.202h35.989zm50.256-14.643c0 8.075-6.569 14.643-14.644 14.643h-21.344v-53.202h21.344c8.075 0 14.644 6.568 14.644 14.643zm31.916-67.472c0 8.075-6.582 14.643-14.673 14.643h-21.316v-53.202h21.316c8.09 0 14.673 6.568 14.673 14.643zm-132.429-166.135h-3.813c-16.356 0-29.663-12.362-29.663-27.555v-7.135h14.268v7.135c0 7.327 6.906 13.286 15.395 13.286h16.579c11.419 0 20.709-8.124 20.709-18.109 0-9.986-9.29-18.11-20.709-18.11-11.437 0-46.242 0-46.242-32.378 0-17.379 14.881-31.598 33.475-32.342v-23.866h14.268v23.829h3.813c16.356 0 29.662 12.362 29.662 27.555v7.135h-14.268v-7.135c0-7.327-6.906-13.286-15.394-13.286h-16.55c-11.435 0-20.738 8.124-20.738 18.109 0 10.87 5.437 18.109 31.974 18.109 19.287 0 34.977 14.526 34.977 32.379 0 17.387-14.883 31.611-33.475 32.343v23.893h-14.268z"/></svg>