<?xml version="1.0" encoding="utf-8"?>
<!-- Generator: Adobe Illustrator 24.2.0, SVG Export Plug-In . SVG Version: 6.00 Build 0)  -->
<svg version="1.1" id="Layer_1" xmlns="http://www.w3.org/2000/svg" xmlns:xlink="http://www.w3.org/1999/xlink" x="0px" y="0px"
	 viewBox="0 0 512 437.2" style="enable-background:new 0 0 512 437.2;" xml:space="preserve">
<g id="Numbers">
	<text transform="matrix(1 0 0 1 221.3672 -175.7886)" style="fill:#FF0000; font-family:'ArialMT'; font-size:124.5405px;">4</text>
	<text transform="matrix(1 0 0 1 186.7383 682.1567)" style="fill:#FF0000; font-family:'ArialMT'; font-size:124.5405px;">14</text>
	<text transform="matrix(1 0 0 1 186.7383 1540.1021)" style="fill:#FF0000; font-family:'ArialMT'; font-size:124.5405px;">24</text>
	<text transform="matrix(1 0 0 1 186.7383 2398.0474)" style="fill:#FF0000; font-family:'ArialMT'; font-size:124.5405px;">34</text>
	<text transform="matrix(1 0 0 1 186.7383 3255.9927)" style="fill:#FF0000; font-family:'ArialMT'; font-size:124.5405px;">44</text>
	<text transform="matrix(1 0 0 1 186.7383 4113.9419)" style="fill:#FF0000; font-family:'ArialMT'; font-size:124.5405px;">54</text>
	<text transform="matrix(1 0 0 1 186.7383 4971.8872)" style="fill:#FF0000; font-family:'ArialMT'; font-size:124.5405px;">64</text>
	<text transform="matrix(1 0 0 1 186.7383 5829.8325)" style="fill:#FF0000; font-family:'ArialMT'; font-size:124.5405px;">74</text>
	<text transform="matrix(1 0 0 1 186.7383 6687.7778)" style="fill:#FF0000; font-family:'ArialMT'; font-size:124.5405px;">84</text>
	<text transform="matrix(1 0 0 1 186.7383 7545.7231)" style="fill:#FF0000; font-family:'ArialMT'; font-size:124.5405px;">94</text>
	<text transform="matrix(1 0 0 1 152.1055 8403.6689)" style="fill:#FF0000; font-family:'ArialMT'; font-size:124.5405px;">104</text>
	
		<text transform="matrix(1 0 0 1 156.7266 9261.6182)" style="fill:#FF0000; font-family:'ArialMT'; font-size:124.5405px; letter-spacing:-9;">1</text>
	<text transform="matrix(1 0 0 1 216.7461 9261.6182)" style="fill:#FF0000; font-family:'ArialMT'; font-size:124.5405px;">14</text>
	<text transform="matrix(1 0 0 1 152.1055 10119.5635)" style="fill:#FF0000; font-family:'ArialMT'; font-size:124.5405px;">124</text>
	<text transform="matrix(1 0 0 1 152.1055 10977.5088)" style="fill:#FF0000; font-family:'ArialMT'; font-size:124.5405px;">134</text>
	<text transform="matrix(1 0 0 1 152.1055 11835.4541)" style="fill:#FF0000; font-family:'ArialMT'; font-size:124.5405px;">144</text>
	<text transform="matrix(1 0 0 1 152.1055 12693.3994)" style="fill:#FF0000; font-family:'ArialMT'; font-size:124.5405px;">154</text>
	<text transform="matrix(1 0 0 1 152.1055 13551.3447)" style="fill:#FF0000; font-family:'ArialMT'; font-size:124.5405px;">164</text>
	<text transform="matrix(1 0 0 1 152.1055 14409.2939)" style="fill:#FF0000; font-family:'ArialMT'; font-size:124.5405px;">174</text>
	<text transform="matrix(1 0 0 1 152.1055 15267.2393)" style="fill:#FF0000; font-family:'ArialMT'; font-size:124.5405px;">184</text>
	<text transform="matrix(1 0 0 1 152.1055 16125.1846)" style="fill:#FF0000; font-family:'ArialMT'; font-size:124.5405px;">194</text>
	<text transform="matrix(1 0 0 1 152.1055 16983.1289)" style="fill:#FF0000; font-family:'ArialMT'; font-size:124.5405px;">204</text>
	<text transform="matrix(1 0 0 1 152.1055 17841.0742)" style="fill:#FF0000; font-family:'ArialMT'; font-size:124.5405px;">214</text>
	<text transform="matrix(1 0 0 1 152.1055 18699.0195)" style="fill:#FF0000; font-family:'ArialMT'; font-size:124.5405px;">224</text>
	<text transform="matrix(1 0 0 1 152.1055 19556.9688)" style="fill:#FF0000; font-family:'ArialMT'; font-size:124.5405px;">234</text>
	<text transform="matrix(1 0 0 1 152.1055 20414.9141)" style="fill:#FF0000; font-family:'ArialMT'; font-size:124.5405px;">244</text>
	<text transform="matrix(1 0 0 1 152.1055 21272.8594)" style="fill:#FF0000; font-family:'ArialMT'; font-size:124.5405px;">254</text>
	<text transform="matrix(1 0 0 1 152.1055 22130.8047)" style="fill:#FF0000; font-family:'ArialMT'; font-size:124.5405px;">264</text>
	<text transform="matrix(1 0 0 1 152.1055 22988.75)" style="fill:#FF0000; font-family:'ArialMT'; font-size:124.5405px;">274</text>
	<text transform="matrix(1 0 0 1 152.1055 23846.6973)" style="fill:#FF0000; font-family:'ArialMT'; font-size:124.5405px;">284</text>
	<text transform="matrix(1 0 0 1 152.1055 24704.6426)" style="fill:#FF0000; font-family:'ArialMT'; font-size:124.5405px;">294</text>
</g>
<g id="_2_PT">
	<path d="M491.2,104.7H20.8c-3.8,0-6.9-3.1-6.9-6.9c0-1,0.2-2,0.6-2.9L56,5c1.1-2.5,3.6-4,6.3-4h387.5c2.7,0,5.2,1.6,6.3,4
		l41.5,89.9c1.6,3.5,0.1,7.6-3.4,9.2C493.2,104.5,492.2,104.7,491.2,104.7z M31.6,90.9h448.9l-35.1-76.1H66.7L31.6,90.9z"/>
	<path d="M54.4,187.8c-22.4,0-40.5-18.2-40.5-40.5V97.8c0-3.8,3.1-6.9,6.9-6.9H88c3.8,0,6.9,3.1,6.9,6.9v49.4
		C94.9,169.6,76.7,187.7,54.4,187.8z M27.7,104.7v42.5c0,14.7,11.9,26.7,26.7,26.7S81,162,81,147.2v-42.5H27.7z"/>
	<path d="M121.6,187.8c-22.4,0-40.5-18.2-40.5-40.5V97.8c0-3.8,3.1-6.9,6.9-6.9h67.2c3.8,0,6.9,3.1,6.9,6.9v49.4
		C162.1,169.6,143.9,187.7,121.6,187.8z M94.9,104.7v42.5c0,14.7,12,26.7,26.7,26.7c14.7,0,26.7-11.9,26.7-26.7v-42.5H94.9z"/>
	<path d="M188.8,187.8c-22.4,0-40.5-18.2-40.5-40.5V97.8c0-3.8,3.1-6.9,6.9-6.9h67.2c3.8,0,6.9,3.1,6.9,6.9v49.4
		C229.3,169.6,211.2,187.7,188.8,187.8z M162.1,104.7v42.5c0,14.7,11.9,26.7,26.7,26.7c14.7,0,26.7-11.9,26.7-26.7v-42.5H162.1z"/>
	<path d="M256,187.8c-22.4,0-40.5-18.2-40.5-40.5V97.8c0-3.8,3.1-6.9,6.9-6.9h67.2c3.8,0,6.9,3.1,6.9,6.9v49.4
		C296.5,169.6,278.4,187.7,256,187.8z M229.3,104.7v42.5c0,14.7,11.9,26.7,26.7,26.7c14.7,0,26.7-11.9,26.7-26.7v-42.5H229.3z"/>
	<path d="M323.2,187.8c-22.4,0-40.5-18.2-40.5-40.5V97.8c0-3.8,3.1-6.9,6.9-6.9h67.2c3.8,0,6.9,3.1,6.9,6.9v49.4
		C363.7,169.6,345.6,187.7,323.2,187.8z M296.5,104.7v42.5c0,14.7,11.9,26.7,26.7,26.7c14.7,0,26.7-11.9,26.7-26.7v-42.5H296.5z"/>
	<path d="M390.4,187.8c-22.4,0-40.5-18.2-40.5-40.5V97.8c0-3.8,3.1-6.9,6.9-6.9H424c3.8,0,6.9,3.1,6.9,6.9v49.4
		C430.9,169.6,412.8,187.7,390.4,187.8z M363.7,104.7v42.5c0,14.7,11.9,26.7,26.7,26.7c14.7,0,26.7-11.9,26.7-26.7v-42.5H363.7z"/>
	<path d="M457.6,187.8c-22.4,0-40.5-18.2-40.5-40.5V97.8c0-3.8,3.1-6.9,6.9-6.9h67.2c3.8,0,6.9,3.1,6.9,6.9v49.4
		C498.1,169.6,480,187.7,457.6,187.8z M431,104.7v42.5c0,14.7,11.9,26.7,26.7,26.7c14.7,0,26.7-11.9,26.7-26.7v-42.5H431z"/>
	<path d="M470.5,436.8H40.9c-3.8,0-6.9-3.1-6.9-6.9v-256h13.8V423h415.8V173.9h13.8v256C477.4,433.7,474.3,436.8,470.5,436.8z"/>
	<path d="M415.1,436.8H297.5c-3.8,0-6.9-3.1-6.9-6.9V236.2c0-3.8,3.1-6.9,6.9-6.9h117.6c3.8,0,6.9,3.1,6.9,6.9v193.7
		C422.1,433.7,419,436.8,415.1,436.8z M304.4,423h103.8V243.1H304.4V423z"/>
	<path d="M256,378H83c-3.8,0-6.9-3.1-6.9-6.9V232.7c0-3.8,3.1-6.9,6.9-6.9h173c3.8,0,6.9,3.1,6.9,6.9v138.4
		C262.9,374.9,259.8,378,256,378z M89.9,364.2h159.1V239.7H89.9V364.2z"/>
</g>
</svg>
