<?xml version="1.0" encoding="utf-8"?>
<!-- Generator: Adobe Illustrator 24.2.0, SVG Export Plug-In . SVG Version: 6.00 Build 0)  -->
<svg version="1.1" id="Layer_1_1_" xmlns="http://www.w3.org/2000/svg" xmlns:xlink="http://www.w3.org/1999/xlink" x="0px" y="0px"
	 viewBox="0 0 482.1 482.1" style="enable-background:new 0 0 482.1 482.1;" xml:space="preserve">
<path d="M92.7,279.4C84.3,275.4,75,273,65,273c-35.3,0-64,28.7-64,64s28.7,64,64,64c22.1,0,41.7-11.3,53.2-28.5l60.5,30.3
	c-1,4.6-1.6,9.3-1.6,14.2c0,35.3,28.7,64,64,64s64-28.7,64-64c0-13.3-4.1-25.6-11-35.8l85-88.8c10.7,7.9,23.8,12.6,38,12.6
	c35.3,0,64-28.7,64-64s-28.7-64-64-64c-14.8,0-28.3,5.1-39.2,13.5l-86.3-86.3C300,93.4,305,79.8,305,65c0-35.3-28.7-64-64-64
	s-64,28.7-64,64c0,4.9,0.6,9.6,1.6,14.2l-56.7,20.7C111.3,79.2,89.8,65,65,65C29.7,65,1,93.7,1,129s28.7,64,64,64
	c9.1,0,17.8-1.9,25.6-5.4l29.4,49.6L92.7,279.4z M65,385c-26.5,0-48-21.5-48-48s21.5-48,48-48s48,21.5,48,48S91.5,385,65,385z
	 M125.3,358.2c2.3-6.6,3.7-13.8,3.7-21.2c0-19.6-8.9-37.2-22.8-48.9l23-35.5l69.4,116.7c-5.8,5.2-10.7,11.4-14.4,18.4L125.3,358.2z
	 M241,129c14.8,0,28.3-5.1,39.2-13.5l86.3,86.3c-5.2,6.7-9,14.3-11.3,22.7l-50.3-6.9c0-0.2,0-0.4,0-0.6c0-35.3-28.7-64-64-64
	c-22.1,0-41.7,11.3-53.2,28.5l-9.5-4.8l35-54.1C221.7,126.7,231.1,129,241,129L241,129z M249,353.6v-73.1c26-3.3,47.2-22.2,53.8-47
	l50.3,6.9c0,0.2,0,0.4,0,0.6c0,15.3,5.4,29.3,14.4,40.3l-84,87.8C274,360.8,262.1,355.2,249,353.6z M241,169c26.5,0,48,21.5,48,48
	s-21.5,48-48,48s-48-21.5-48-48S214.6,169,241,169z M180.7,195.8c-2.3,6.6-3.7,13.8-3.7,21.2c0,32.6,24.5,59.5,56,63.4v73.1
	c-7.6,1-14.7,3.2-21.3,6.6l-72.9-122.6l30.6-47.3L180.7,195.8z M241,465c-26.5,0-48-21.5-48-48s21.5-48,48-48s48,21.5,48,48
	S267.5,465,241,465z M417,193c26.5,0,48,21.5,48,48s-21.5,48-48,48s-48-21.5-48-48S390.6,193,417,193z M241,17c26.5,0,48,21.5,48,48
	s-21.5,48-48,48s-48-21.5-48-48S214.6,17,241,17z M184.1,94.2c3.9,7.6,9.3,14.3,15.7,19.8l-36,55.6l-38.6-19.3
	c2.3-6.6,3.7-13.8,3.7-21.2c0-4.9-0.6-9.6-1.6-14.2L184.1,94.2z M17,129c0-26.5,21.5-48,48-48s48,21.5,48,48s-21.5,48-48,48
	S17,155.5,17,129z M104.4,179.4c5.4-4.2,10.1-9.2,13.9-14.8l36.9,18.5l-25.4,39.2L104.4,179.4z"/>
</svg>
