<?xml version="1.0" encoding="utf-8"?>
<!-- Generator: Adobe Illustrator 24.2.0, SVG Export Plug-In . SVG Version: 6.00 Build 0)  -->
<svg version="1.1" id="Capa_1" xmlns="http://www.w3.org/2000/svg" xmlns:xlink="http://www.w3.org/1999/xlink" x="0px" y="0px"
	 viewBox="0 0 465.5 512" style="enable-background:new 0 0 465.5 512;" xml:space="preserve">
<g>
	<g>
		<path d="M233.1,232.3c-9.4,0-17.1,7.6-17.1,17.1c0,6.8,4,12.7,9.8,15.4v20.7c0,4,3.3,7.3,7.3,7.3s7.3-3.3,7.3-7.3v-20.7
			c5.8-2.7,9.8-8.6,9.8-15.4C250.1,239.9,242.5,232.3,233.1,232.3z"/>
	</g>
</g>
<g>
	<g>
		<path d="M414.9,111.1c-31.4-12.4-56.3-35.3-70.1-64.4c-3.8-7.9-11.9-13-20.7-13H141.5c-8.8,0-17,5.1-20.7,13
			c-13.8,29.1-38.7,52-70.1,64.4c-8.8,3.5-14.5,11.9-14.5,21.4v44.4c0,58.2,17,115.7,49.1,166.3c32.4,51.1,79.4,93.8,135.9,123.5
			l0.9,0.5c3.4,1.8,7,2.6,10.7,2.6c3.7,0,7.4-0.9,10.7-2.6l0.9-0.5c56.5-29.7,103.5-72.4,135.9-123.5
			c32.1-50.6,49.1-108.1,49.1-166.3v-44.4C429.4,123,423.7,114.6,414.9,111.1z M414.8,176.9c0,55.4-16.2,110.3-46.8,158.5
			c-31.1,48.9-76.2,89.9-130.4,118.4l-0.9,0.5c-2.5,1.3-5.4,1.3-7.9,0l-0.9-0.5c-54.2-28.5-99.3-69.4-130.4-118.4
			c-30.6-48.2-46.8-103.1-46.8-158.5v-44.4c0-3.5,2.1-6.6,5.3-7.8c34.8-13.8,62.5-39.2,77.9-71.7c1.4-2.9,4.3-4.7,7.6-4.7h182.6
			c3.2,0,6.2,1.8,7.6,4.7c15.4,32.4,43.1,57.9,77.9,71.7c3.2,1.3,5.3,4.3,5.3,7.8V176.9z"/>
	</g>
</g>
<g>
	<g>
		<path d="M451.4,246.1c-3.9-0.9-7.8,1.6-8.7,5.5c-22.2,98.2-89.8,183.3-185.4,233.6l-22.2,11.7c-1.4,0.8-3.1,0.8-4.6,0l-22.2-11.7
			c-95.8-50.4-163.4-135.6-185.5-234c-0.9-3.9-4.8-6.4-8.7-5.5c-3.9,0.9-6.4,4.8-5.5,8.7c23,102.5,93.4,191.4,193,243.7l22.2,11.7
			c2.8,1.5,6,2.2,9.1,2.2c3.1,0,6.2-0.7,9.1-2.2l22.2-11.7c99.4-52.3,169.7-140.9,192.9-243.3C457.8,250.9,455.4,247,451.4,246.1z"
			/>
	</g>
</g>
<g>
	<g>
		<path d="M447.9,83.4C409,79.3,378.4,52,373.5,17c-1.4-9.7-9.7-17-19.3-17H111.4c-9.7,0-18,7.3-19.3,17
			c-4.9,35-35.5,62.3-74.4,66.4c-9.9,1-17.3,9.4-17.3,19.4V181c0,11.4,0.6,22.9,1.8,34.2c0.4,3.8,3.5,6.5,7.2,6.5c0.2,0,0.5,0,0.8,0
			c4-0.4,6.9-4,6.5-8c-1.1-10.8-1.7-21.8-1.7-32.7v-78.2c0-2.5,1.9-4.6,4.2-4.9c45.6-4.8,81.5-37.2,87.3-78.9
			c0.4-2.6,2.4-4.4,4.9-4.4h242.8c2.5,0,4.5,1.9,4.9,4.4c5.8,41.6,41.7,74.1,87.3,78.9c2.4,0.3,4.3,2.4,4.3,4.9V181
			c0,10.8-0.6,21.6-1.6,32.3c-0.4,4,2.5,7.6,6.5,8c4,0.4,7.6-2.5,8-6.5c1.1-11.2,1.7-22.6,1.7-33.8v-78.2
			C465.2,92.7,457.8,84.4,447.9,83.4z"/>
	</g>
</g>
<g>
	<g>
		<path d="M316.2,181.9h-12v-34.8c0-39.3-31.9-71.2-71.2-71.2c-39.3,0-71.2,31.9-71.2,71.2v34.8h-12c-12.8,0-23.2,10.4-23.2,23.2
			v104.3c0,12.8,10.4,23.2,23.2,23.2h166.4c12.8,0,23.2-10.4,23.2-23.2V205C339.4,192.3,329,181.9,316.2,181.9z M176.4,147.1
			c0-31.2,25.4-56.6,56.6-56.6s56.6,25.4,56.6,56.6v34.8H176.4V147.1z M324.8,309.4c0,4.7-3.9,8.6-8.6,8.6H149.9
			c-4.7,0-8.6-3.9-8.6-8.6V205c0-4.7,3.9-8.6,8.6-8.6h166.4c4.7,0,8.6,3.9,8.6,8.6V309.4z"/>
	</g>
</g>
</svg>
