<?xml version="1.0" encoding="UTF-8"?>
<svg xmlns="http://www.w3.org/2000/svg" xmlns:xlink="http://www.w3.org/1999/xlink" version="1.1" id="Capa_1" x="0px" y="0px" viewBox="0 0 511.3 511.3" style="enable-background:new 0 0 511.3 511.3;" xml:space="preserve" width="512" height="512">
<g>
	<path style="fill:none;stroke:#000000;stroke-width:15;stroke-miterlimit:10;" d="M440.466,437.511l53.821-44.011&#10;&#9;&#9;c9.643-6.562,12.39-19.563,6.228-29.467c-6.177-9.926-19.095-13.192-29.247-7.394l-109.39,66.507l-95.642-27.043l71.971-30.254&#10;&#9;&#9;c12.511-5.302,18.693-19.461,14.076-32.241v0c-4.883-13.516-19.94-20.357-33.332-15.145l-50.739,19.746&#10;&#9;&#9;c-66.711-40.936-111.334,9.809-111.334,9.809H127"/>
	<polyline style="fill:none;stroke:#000000;stroke-width:15;stroke-miterlimit:10;" points="127,478.208 180.878,478.208 &#10;&#9;&#9;366.239,498.208 428.677,447.151 &#9;"/>
	<path style="fill:none;stroke:#000000;stroke-width:15;stroke-miterlimit:10;" d="M435.463,378.407l6.059-19.413&#10;&#9;&#9;c4.438-10.786-0.423-23.153-11.019-28.03c-10.62-4.887-23.204-0.504-28.489,9.924l-38.395,81.198"/>
	<polyline style="fill:none;stroke:#000000;stroke-width:15;stroke-miterlimit:10;" points="127,405.556 127,503.619 7.5,503.619 &#10;&#9;&#9;7.5,323.619 127,323.619 127,390.619 &#9;"/>
	<circle style="fill:none;stroke:#000000;stroke-width:15;stroke-miterlimit:10;" cx="67.25" cy="444.619" r="21.125"/>
	<rect x="286" y="211.619" style="fill:none;stroke:#000000;stroke-width:15;stroke-miterlimit:10;" width="100" height="35.667"/>
	<rect x="306" y="247.286" style="fill:none;stroke:#000000;stroke-width:15;stroke-miterlimit:10;" width="60" height="38.052"/>
	<path style="fill:none;stroke:#000000;stroke-width:15;stroke-miterlimit:10;" d="M422.902,140.898&#10;&#9;&#9;c5.166-11.709,8.035-24.659,8.035-38.28c0-52.433-42.505-94.938-94.938-94.938s-94.938,42.505-94.938,94.938&#10;&#9;&#9;c0,34.11,17.992,64.013,45,80.75v28.25h99.875v-28.25c12.009-7.442,22.235-17.488,29.89-29.348"/>
	<polyline style="fill:none;stroke:#000000;stroke-width:15;stroke-miterlimit:10;" points="371.687,87.406 329.26,129.832 &#10;&#9;&#9;300.313,100.885 &#9;"/>
	<line style="fill:none;stroke:#000000;stroke-width:15;stroke-miterlimit:10;" x1="211" y1="105.681" x2="166.125" y2="105.681"/>
	
		<line style="fill:none;stroke:#000000;stroke-width:15;stroke-miterlimit:10;" x1="226.278" y1="168.575" x2="187.415" y2="191.012"/>
	
		<line style="fill:none;stroke:#000000;stroke-width:15;stroke-miterlimit:10;" x1="442.784" y1="173.663" x2="481.647" y2="196.1"/>
	<line style="fill:none;stroke:#000000;stroke-width:15;stroke-miterlimit:10;" x1="461" y1="111.556" x2="505.875" y2="111.556"/>
	
		<line style="fill:none;stroke:#000000;stroke-width:15;stroke-miterlimit:10;" x1="445.722" y1="48.663" x2="484.585" y2="26.225"/>
	
		<line style="fill:none;stroke:#000000;stroke-width:15;stroke-miterlimit:10;" x1="229.216" y1="43.575" x2="190.353" y2="21.137"/>
</g>















</svg>
