<svg xmlns="http://www.w3.org/2000/svg" width="1535.15606" height="376.32928" viewBox="0 0 1535.15606 376.32928">
  <defs>
    <style>
      .cls-1 {
        fill: #c22529;
      }

      .cls-2 {
        fill: #fff;
      }
    </style>
  </defs>
  <title>Asset 3</title>
  <g id="Layer_2" data-name="Layer 2">
    <g id="Layer_1-2" data-name="Layer 1">
      <g>
        <path class="cls-1" d="M137.59636,218.297,228.836,376.32928h93.77341l-86.868-150.4594L177.967,125.801a61.17045,61.17045,0,0,0-42.58971,88.6524Z"/>
        <polygon class="cls-1" points="313.859 269.277 396.696 125.801 302.922 125.801 266.973 188.067 313.859 269.277"/>
        <path class="cls-1" d="M173.71825,0A188.32145,188.32145,0,0,0,33.51717,80.63588c-.232.33493-.47367.6626-.704.99838L18.40625,106.589a188.8613,188.8613,0,0,0-.76564,161.0243l1.17848.67966L96.26827,134.1465h.004a106.82775,106.82775,0,0,1,92.61442-53.51062H422.77607L469.33108,0Z"/>
      </g>
      <g>
        <path class="cls-2" d="M710.36118,288.17871c-1.8677,0-5.293-.29992-9.03011-.29992-38.29831-1.49962-51.06385-9.8975-63.82938-29.68912-7.47426-11.69535-16.19251-27.29142-24.91078-43.18571-5.60484-9.8941-11.20967-14.69459-21.4838-14.69459H586.748v47.38295c0,25.19025,2.80157,28.49112,26.15477,30.88881v6.89826H520.73734v-6.89826c23.3515-2.39769,26.46663-5.69856,26.46663-30.88881V128.33771c0-24.892-2.80327-28.49111-25.22092-30.58889V90.85057h85.62673c26.15478,0,41.72359,2.99923,54.48912,11.39542,12.14353,8.09625,19.92794,21.29294,19.92794,39.285,0,26.39-18.37208,40.78632-38.92031,48.88429,4.66927,9.296,16.501,29.38919,25.84292,43.1823,10.89782,16.79407,18.05853,26.9898,24.28707,33.88806,6.85054,7.49811,11.83168,11.39713,18.68222,14.39467ZM593.28669,191.31333c14.01124,0,24.28706-2.09776,31.75961-8.39618,9.34026-8.09795,14.3231-20.39316,14.3231-36.8856,0-33.2882-18.68223-46.185-36.11875-46.185q-10.7436,0-14.01124,2.69932c-1.86942,1.79954-2.49142,4.49886-2.49142,10.49564v78.27177Z"/>
        <path class="cls-2" d="M927.69582,186.21683c0,63.57547-47.32672,103.76024-105.24281,103.76024-61.64982,0-103.99711-44.08379-103.99711-101.06092,0-50.38389,36.74245-102.56394,107.42238-102.56394,56.04669,0,101.81754,41.08454,101.81754,99.86462m-163.1572-3.29917c0,53.67967,23.04135,97.46353,63.51921,97.46353,30.20378,0,53.24513-29.3892,53.24513-86.0681,0-61.17777-23.97693-98.36331-61.33969-98.36331-31.13759,0-55.42465,32.98659-55.42465,86.96788"/>
        <path class="cls-2" d="M1146.58361,98.34747c-20.2381,2.09948-24.59725,6.59834-37.6746,35.98754-11.20969,25.19024-39.544,92.96635-63.51927,155.04391h-11.20968c-21.79561-55.181-50.75368-128.354-63.51921-158.94293-10.27582-25.79009-15.25694-30.289-33.93919-32.08852v-7.4964h90.91975v7.4964c-23.04141,3.59911-22.41937,7.79805-17.74839,20.99131,7.47252,20.39316,30.51392,78.27177,45.14884,115.459h.93386c13.38924-33.58813,29.89022-75.57245,40.166-106.76117,6.85053-21.89108,6.5387-26.09-18.99241-29.68913v-7.4964h69.43426Z"/>
        <path class="cls-2" d="M1318.45026,237.49761c-1.86772,12.2952-8.09627,38.68515-10.586,47.9811H1152.8016v-6.89826c26.46664-2.39769,29.58005-3.89732,29.58005-30.58719V128.337c0-27.58965-3.11341-28.78934-24.59891-30.5889V90.84988h142.2971c.31187,5.39864,1.86772,25.19194,3.42529,43.78556l-7.78439,1.19971c-2.80326-11.09721-7.47429-20.99472-14.01294-26.68988-5.915-5.69857-14.3231-8.098-33.31551-8.098H1234.6929c-10.58765,0-12.14349.89977-12.14349,10.49565v67.77442H1244.345c27.08862,0,31.1359-2.09777,35.80688-22.79086h7.47257v57.57869h-7.47257c-4.671-20.993-8.71826-22.79256-35.80688-22.79256h-21.79561v54.58114c0,15.29445,1.24568,23.69063,7.16069,26.39,5.29468,2.39939,15.56878,2.99924,27.08862,2.99924,18.37038,0,28.958-2.09947,36.43059-9.89751,6.22682-7.19478,12.45537-16.79236,18.06021-29.68911Z"/>
        <path class="cls-2" d="M1436.76382,285.47922V278.581c21.48379-4.79709,20.54988-8.996,14.32305-19.79161-3.11347-5.99848-11.20968-18.89354-33.94087-56.98053-15.56879,22.1927-27.40046,40.78631-35.80689,56.08076-8.09455,13.79482-4.3591,16.19422,18.6822,20.69138v6.89826h-76.59657V278.581c16.81453-1.79955,27.40046-6.89656,36.74241-17.99206,15.257-18.89354,33.31551-42.58587,50.752-67.77611-14.94513-24.89033-28.02421-46.18325-44.52514-71.97335-10.27415-16.19252-16.81452-20.993-37.36445-23.09079V90.8504h92.16536v6.89825c-18.06016,4.19895-18.06016,7.79634-13.38924,16.19422,5.915,11.0955,15.257,26.39,28.6462,47.98111A434.9793,434.9793,0,0,0,1465.41,117.54026c7.16063-11.99527,5.60484-15.29274-17.43662-19.79161V90.8504h74.41541v6.89825c-20.86014,2.69932-27.71062,6.29671-41.72183,22.79086-10.586,12.59682-23.97527,30.88881-37.98826,49.78236,18.68225,29.08925,33.941,54.2795,51.99947,81.2693,13.07741,20.09323,18.37033,24.5921,40.47787,26.98979v6.89826Z"/>
      </g>
    </g>
  </g>
</svg>
