<svg xmlns="http://www.w3.org/2000/svg" width="578.662" height="463.99538" viewBox="0 0 578.662 463.99538">
  <defs>
    <style>
      .cls-1 {
        fill: #c22529;
      }
    </style>
  </defs>
  <title>logo</title>
  <g id="Layer_2" data-name="Layer 2">
    <g id="Layer_1-2" data-name="Layer 1">
      <g>
        <path class="cls-1" d="M169.64951,269.14938l112.494,194.846h115.618l-107.104-185.509-71.233-123.38a75.42014,75.42014,0,0,0-52.511,109.304Z"/>
        <polygon class="cls-1" points="386.973 332.005 489.106 155.106 373.488 155.106 329.164 231.877 386.973 332.005"/>
        <path class="cls-1" d="M214.186,0A232.191,232.191,0,0,0,41.325,99.42c-.286.413-.584.817-.868,1.231L22.694,131.419a232.85662,232.85662,0,0,0-.944,198.535l1.453.838,95.491-165.396h.005A131.71332,131.71332,0,0,1,232.888,99.42H521.262L578.662,0Z"/>
      </g>
    </g>
  </g>
</svg>
