<svg xmlns="http://www.w3.org/2000/svg" xmlns:xlink="http://www.w3.org/1999/xlink" viewBox="0 0 804.7 135.67"><defs><style>.cls-1{fill:#fff;}.cls-2{fill:url(#무제_그라디언트_5);}.cls-3{fill:url(#무제_그라디언트_5-2);}.cls-4{fill:url(#무제_그라디언트_5-3);}.cls-5{fill:url(#무제_그라디언트_5-4);}.cls-6{fill:#326e6f;}</style><linearGradient id="무제_그라디언트_5" x1="151.09" y1="-6.75" x2="151.09" y2="142.89" gradientUnits="userSpaceOnUse"><stop offset="0" stop-color="#4d999a"/><stop offset="1" stop-color="#326e6f"/></linearGradient><linearGradient id="무제_그라디언트_5-2" x1="152.69" y1="-6.75" x2="152.69" y2="142.89" xlink:href="#무제_그라디언트_5"/><linearGradient id="무제_그라디언트_5-3" x1="79.36" y1="-6.75" x2="79.36" y2="142.89" xlink:href="#무제_그라디언트_5"/><linearGradient id="무제_그라디언트_5-4" x1="81.44" y1="-6.75" x2="81.44" y2="142.89" xlink:href="#무제_그라디언트_5"/></defs><g id="Layer_2" data-name="Layer 2"><g id="레이어_1" data-name="레이어 1"><path class="cls-1" d="M238.13,69.38v-9c0-11.11,4.79-14.51,14-16.76l10.65-2.59c4-1,6.57-3.67,6.57-8.39V28.4c0-5.72-4.19-7.44-8.79-7.44h-7.65c-6.45,0-9,2.71-9,10.7v1.67h-5.72V31.66c0-10,2.93-15.57,15.24-15.57h7.45c9,0,14.31,3.6,14.31,12.24v4.6c0,7.78-4.53,11.45-11.45,13.11L253,48.63c-6.38,1.52-9.12,4.85-9.12,11v4.93h31.34v4.85Z"/><path class="cls-1" d="M275.73,69.92H237.6V60.4c0-11.57,5.06-15,14.38-17.29l10.65-2.59c4.09-1,6.16-3.67,6.16-7.86V28.4c0-5.71-4.49-6.91-8.25-6.91h-7.65c-6.28,0-8.51,2.67-8.51,10.17v2.21H237.6V31.66c0-9.67,2.67-16.11,15.77-16.11h7.45c9.85,0,14.85,4.3,14.85,12.78v4.6c0,7.25-3.88,11.71-11.86,13.64L253.1,49.16c-6.11,1.45-8.72,4.58-8.72,10.44V64h31.35Zm-37.06-1.08h36V65.07H243.31V59.6c0-6.38,2.94-9.92,9.54-11.49l10.71-2.6c7.52-1.81,11-5.8,11-12.58v-4.6c0-7.87-4.51-11.71-13.77-11.71h-7.45c-12.3,0-14.7,5.52-14.7,15v1.13h4.64V31.66c0-8.09,2.69-11.24,9.58-11.24h7.65c6,0,9.33,2.83,9.33,8v4.26c0,4.69-2.41,7.76-7,8.91l-10.64,2.6c-9,2.2-13.57,5.32-13.57,16.23Z"/><path class="cls-1" d="M321.72,69.38V43.91h-28V69.38h-5.77V16.09h5.77V39h28V16.09h5.86V69.38Z"/><path class="cls-1" d="M328.12,69.92h-6.94V44.45H294.24V69.92h-6.85V15.55h6.85v23h26.94V15.55h6.94Zm-5.86-1.08H327V16.62h-4.78v23h-29.1v-23h-4.7V68.84h4.7V43.37h29.1Z"/><path class="cls-1" d="M403.19,69.38,390.57,24.54,377.92,69.38h-6.33L356.9,16.09H363l11.76,45,12.53-45h6.64L406.4,61.2l11.91-45.11h6L409.58,69.38Z"/><path class="cls-1" d="M410,69.92h-7.21l-.1-.39-12.11-43L378.33,69.92h-7.15l-.1-.39-14.89-54h7.18l.11.4,11.26,43.11,12.09-43.51h7.46l.1.39,12,43.19L417.9,15.55H425Zm-6.38-1.08h5.56l14.42-52.22h-4.87L406.41,63.26l-.53-1.91L393.47,16.62h-5.82l-13,46.59L362.53,16.62h-4.92L372,68.84h5.5l13.06-46.29.51,1.84Z"/><path class="cls-1" d="M450,69.38c-12,0-18.09-5.06-18.09-18.36V34.38c0-13.17,6.12-18.29,18.09-18.29h4.87c12,0,18.09,5.12,18.09,18.29V51c0,13.3-6.11,18.36-18.09,18.36Zm17.25-35.19c0-9.31-3.86-13.17-12.38-13.17H450c-8.58,0-12.37,3.86-12.37,13.17v17c0,9.38,3.79,13.3,12.37,13.3h4.87c8.52,0,12.38-3.92,12.38-13.3Z"/><path class="cls-1" d="M454.84,69.92H450c-12.88,0-18.62-5.83-18.62-18.9V34.38c0-13,5.74-18.83,18.62-18.83h4.87c12.88,0,18.63,5.81,18.63,18.83V51C473.47,64.09,467.72,69.92,454.84,69.92ZM450,16.62c-12.13,0-17.55,5.48-17.55,17.76V51c0,12.49,5.25,17.82,17.55,17.82h4.87c12.3,0,17.55-5.33,17.55-17.82V34.38c0-12.28-5.42-17.76-17.55-17.76Zm4.87,48.45H450c-8.93,0-12.91-4.27-12.91-13.84v-17c0-9.48,4-13.71,12.91-13.71h4.87c8.93,0,12.91,4.23,12.91,13.71v17C467.75,60.8,463.77,65.07,454.84,65.07ZM450,21.56c-8.41,0-11.83,3.66-11.83,12.63v17C438.14,60.29,441.56,64,450,64h4.87c8.3,0,11.84-3.81,11.84-12.76v-17c0-8.85-3.54-12.63-11.84-12.63Z"/><path class="cls-1" d="M517,69.38v-12c0-6.51-1.48-9.71-9.59-9.71H492V69.38h-5.78V16.09H507.4c9.31,0,15.83,4.13,15.83,13.45v4.38c0,4.93-2,9.11-6.52,11.17,4.2,1.82,6,5.53,6,9.66V69.38Zm.52-39.25c0-6.39-3.73-9.17-10.58-9.17H492V42.84h14.9c6.85,0,10.58-2.87,10.58-9.32Z"/><path class="cls-1" d="M523.3,69.92h-6.85V57.4c0-6.34-1.31-9.18-9.05-9.18H492.57v21.7h-6.86V15.55H507.4c10.4,0,16.36,5.1,16.36,14v4.38c0,5.09-2.06,9-5.85,11.16a10.57,10.57,0,0,1,5.39,9.67Zm-5.78-1.08h4.71V54.75c0-4.31-2-7.57-5.73-9.16l-1.12-.49,1.11-.5c5.12-2.33,6.2-7.1,6.2-10.68V29.54c0-11.24-9.58-12.92-15.29-12.92H486.79V68.84h4.7V47.15H507.4c8.51,0,10.12,3.6,10.12,10.25ZM506.93,43.37H491.49V20.42h15.44c7.38,0,11.12,3.27,11.12,9.71v3.39C518.05,40.06,514.31,43.37,506.93,43.37ZM492.57,42.3h14.36c6.76,0,10.05-2.88,10.05-8.78V30.13c0-5.9-3.2-8.64-10.05-8.64H492.57Z"/><path class="cls-1" d="M535.5,69.38V16.09h5.79V64.53h25.47v4.85Z"/><path class="cls-1" d="M567.3,69.92H535V15.55h6.87V64H567.3ZM536,68.84h30.19V65.07H540.76V16.62H536Z"/><path class="cls-1" d="M576.9,69.38V16.09h22.49c11.38,0,19.29,6.91,19.29,18.63v15.9c0,11.78-7.91,18.76-19.29,18.76ZM613,35c0-9.39-6.26-14-14.65-14H582.7V64.53h15.62c8.39,0,14.65-4.53,14.65-14.1Z"/><path class="cls-1" d="M599.39,69.92h-23V15.55h23c12.05,0,19.83,7.52,19.83,19.17v15.9C619.22,62.34,611.44,69.92,599.39,69.92Zm-21.95-1.08h21.95c11.39,0,18.75-7.16,18.75-18.22V34.72c0-11-7.36-18.1-18.75-18.1H577.44Zm20.88-3.77H582.16V20.42h16.16c9.37,0,15.18,5.58,15.18,14.58V50.43C613.5,59.6,607.82,65.07,598.32,65.07ZM583.23,64h15.09c8.83,0,14.11-5.07,14.11-13.56V35c0-8.46-5.28-13.51-14.11-13.51H583.23Z"/><path class="cls-1" d="M670.66,69.38,658,24.54,645.37,69.38h-6.31L624.35,16.09h6l11.78,45,12.51-45h6.66l12.5,45.11,11.91-45.11h6L677.05,69.38Z"/><path class="cls-1" d="M677.46,69.92h-7.21l-.1-.39L658,26.53,645.78,69.92h-7.13l-.1-.39-14.91-54h7.18l.11.4,11.26,43.11,12.08-43.51h7.49l.1.39,12,43.19,11.51-43.58h7.1Zm-6.38-1.08h5.56L691,16.62h-4.87L673.86,63.26l-.53-1.91L660.94,16.62H655.1L642.17,63.21l-.51-1.94L630,16.62h-4.92l14.42,52.22H645L658,22.55l.51,1.84Z"/><path class="cls-1" d="M701.19,69.38V16.09H707V69.38Z"/><path class="cls-1" d="M707.52,69.92h-6.87V15.55h6.87Zm-5.79-1.08h4.72V16.62h-4.72Z"/><path class="cls-1" d="M720.94,69.38V16.09h22.47c11.39,0,19.31,6.91,19.31,18.63v15.9c0,11.78-7.92,18.76-19.31,18.76ZM757,35c0-9.39-6.24-14-14.63-14H726.72V64.53h15.64c8.39,0,14.63-4.53,14.63-14.1Z"/><path class="cls-1" d="M743.41,69.92h-23V15.55h23c12.06,0,19.85,7.52,19.85,19.17v15.9C763.26,62.34,755.47,69.92,743.41,69.92Zm-21.93-1.08h21.93c11.41,0,18.78-7.16,18.78-18.22V34.72c0-11-7.37-18.1-18.78-18.1H721.48Zm20.88-3.77H726.18V20.42h16.18c9.36,0,15.17,5.58,15.17,14.58V50.43C757.53,59.6,751.86,65.07,742.36,65.07ZM727.25,64h15.11c8.82,0,14.09-5.07,14.09-13.56V35c0-8.46-5.27-13.51-14.09-13.51H727.25Z"/><path class="cls-1" d="M774.11,69.38V16.09h30.06V21H779.88V39.38H803v4.85H779.88v20.3h24.29v4.85Z"/><path class="cls-1" d="M804.7,69.92H773.57V15.55H804.7v5.94H780.42V38.84H803.5v5.93H780.42V64H804.7Zm-30.06-1.08h29V65.07H779.35V43.69h23.08V39.92H779.35V20.42h24.28v-3.8h-29Z"/><path class="cls-1" d="M253.17,117.38V93.89h10.35c3.82,0,6.13,1.5,6.13,4.61v2.37a4.53,4.53,0,0,1-2.16,4.17,5,5,0,0,1,3.08,4.95v2.17c0,3.72-2.32,5.22-6,5.22Zm14-18.21c0-2.31-1.43-3.14-3.72-3.14h-7.68v8.15h7c2.88,0,4.43-.87,4.43-3.46Zm.89,11.08c0-2.43-.91-3.93-4-3.93h-8.27v8.92h8c3.19,0,4.28-1.09,4.28-3.41Z"/><path class="cls-1" d="M274.48,117.38V93.89h13.26V96H277v8.13H287.2v2.14H277v8.94h10.71v2.14Z"/><path class="cls-1" d="M296.44,117.38V96h-7.06V93.89h16.69V96H299v21.35Z"/><path class="cls-1" d="M314.22,117.38V96h-7.06V93.89h16.69V96h-7.08v21.35Z"/><path class="cls-1" d="M326.9,117.38V93.89h13.26V96H329.45v8.13h10.18v2.14H329.45v8.94h10.71v2.14Z"/><path class="cls-1" d="M357.31,117.38V112.1c0-2.87-.64-4.28-4.21-4.28h-6.78v9.56h-2.55V93.89h9.33c4.1,0,7,1.83,7,5.93v1.94a5,5,0,0,1-2.87,4.92,4.37,4.37,0,0,1,2.66,4.25v6.45Zm.24-17.3c0-2.81-1.64-4-4.66-4h-6.57v9.65h6.57c3,0,4.66-1.26,4.66-4.1Z"/><path class="cls-1" d="M372,117.38V93.89h9.33c4.1,0,7,1.91,7,6v2.59c0,4.13-2.88,6.07-7,6.07h-6.78v8.79Zm13.79-17.3c0-2.81-1.64-4-4.67-4h-6.57v10.42h6.57c3,0,4.67-1.24,4.67-4Z"/><path class="cls-1" d="M404.91,117.38V112.1c0-2.87-.64-4.28-4.21-4.28h-6.78v9.56h-2.55V93.89h9.33c4.1,0,7,1.83,7,5.93v1.94a5,5,0,0,1-2.87,4.92,4.37,4.37,0,0,1,2.66,4.25v6.45Zm.24-17.3c0-2.81-1.64-4-4.66-4h-6.57v9.65h6.57c3,0,4.66-1.26,4.66-4.1Z"/><path class="cls-1" d="M419.68,117.38c-5.28,0-8-2.23-8-8.1V102c0-5.81,2.7-8.07,8-8.07h2.14c5.28,0,8,2.26,8,8.07v7.32c0,5.87-2.69,8.1-8,8.1Zm7.59-15.51c0-4.11-1.7-5.8-5.45-5.8h-2.14c-3.78,0-5.45,1.69-5.45,5.8v7.51c0,4.13,1.67,5.86,5.45,5.86h2.14c3.75,0,5.45-1.73,5.45-5.86Z"/><path class="cls-1" d="M441,117.38c-4.39,0-7-2.17-7-7.33v-8.59c0-5,2.61-7.57,7-7.57h4.72c4.84,0,6.72,2.41,6.72,6.9v.9h-2.52v-.87c0-3.23-1.12-4.79-4.61-4.79h-4c-2.81,0-4.78,1.35-4.78,5.34V110c0,4,2,5.28,4.78,5.28h4.16c2.87,0,4.72-.79,4.72-4.87v-1.2h2.56v1.23c0,5.19-2.5,7-7,7Z"/><path class="cls-1" d="M456.69,117.38V93.89H470V96H459.24v8.13h10.17v2.14H459.24v8.94H470v2.14Z"/><path class="cls-1" d="M479.06,117.38c-3.69,0-6.32-1.5-6.32-6.24V110h2.52v1.11c0,3.35,1.61,4.17,4.1,4.17h3.75c2.4,0,3.75-1,3.75-3.26v-2c0-2.19-1.2-3.08-3.16-3.25l-5.33-.56c-2.88-.32-5.49-1.41-5.49-5.19V99.23c0-3.49,2.43-5.34,6-5.34h3.78c3.26,0,6.07,1.38,6.07,5.4v1h-2.55v-1c0-2.43-1.32-3.26-3.7-3.26h-3c-2.66,0-4,1.21-4,3.29v1.37c0,2.27,1.2,3.06,3.2,3.26l5.39.56c3.34.35,5.39,1.73,5.39,5.28v2.31c0,3.84-2.6,5.28-6.22,5.28Z"/><path class="cls-1" d="M499.14,117.38c-3.69,0-6.32-1.5-6.32-6.24V110h2.52v1.11c0,3.35,1.61,4.17,4.1,4.17h3.75c2.4,0,3.75-1,3.75-3.26v-2c0-2.19-1.2-3.08-3.16-3.25l-5.33-.56c-2.88-.32-5.49-1.41-5.49-5.19V99.23c0-3.49,2.43-5.34,6-5.34h3.79c3.26,0,6.07,1.38,6.07,5.4v1H506.3v-1c0-2.43-1.32-3.26-3.7-3.26h-3.05c-2.66,0-4,1.21-4,3.29v1.37c0,2.27,1.2,3.06,3.2,3.26l5.39.56c3.34.35,5.39,1.73,5.39,5.28v2.31c0,3.84-2.6,5.28-6.22,5.28Z"/><path class="cls-1" d="M521.31,117.38V93.89h10.35c3.81,0,6.12,1.5,6.12,4.61v2.37a4.53,4.53,0,0,1-2.16,4.17A5,5,0,0,1,538.7,110v2.17c0,3.72-2.32,5.22-6,5.22Zm14-18.21c0-2.31-1.43-3.14-3.72-3.14h-7.68v8.15h7c2.87,0,4.42-.87,4.42-3.46Zm.89,11.08c0-2.43-.92-3.93-4-3.93h-8.27v8.92h8c3.19,0,4.28-1.09,4.28-3.41Z"/><path class="cls-1" d="M542.61,117.38V93.89h13.26V96H545.16v8.13h10.17v2.14H545.16v8.94h10.71v2.14Z"/><path class="cls-1" d="M564.58,117.38V96h-7.07V93.89H574.2V96h-7.07v21.35Z"/><path class="cls-1" d="M582.36,117.38V96H575.3V93.89H592V96h-7.07v21.35Z"/><path class="cls-1" d="M595,117.38V93.89h13.26V96H597.58v8.13h10.17v2.14H597.58v8.94h10.71v2.14Z"/><path class="cls-1" d="M625.44,117.38V112.1c0-2.87-.65-4.28-4.22-4.28h-6.78v9.56h-2.55V93.89h9.33c4.1,0,7,1.83,7,5.93v1.94a5.05,5.05,0,0,1-2.88,4.92,4.38,4.38,0,0,1,2.67,4.25v6.45Zm.24-17.3c0-2.81-1.65-4-4.67-4h-6.57v9.65H621c3,0,4.67-1.26,4.67-4.1Z"/><path class="cls-1" d="M645.62,117.38c-3.69,0-6.32-1.5-6.32-6.24V110h2.52v1.11c0,3.35,1.61,4.17,4.1,4.17h3.75c2.4,0,3.75-1,3.75-3.26v-2c0-2.19-1.2-3.08-3.16-3.25l-5.34-.56c-2.87-.32-5.49-1.41-5.49-5.19V99.23c0-3.49,2.44-5.34,6-5.34h3.79c3.25,0,6.07,1.38,6.07,5.4v1h-2.55v-1c0-2.43-1.32-3.26-3.7-3.26H646c-2.67,0-4,1.21-4,3.29v1.37c0,2.27,1.21,3.06,3.21,3.26l5.38.56c3.35.35,5.4,1.73,5.4,5.28v2.31c0,3.84-2.6,5.28-6.22,5.28Z"/><path class="cls-1" d="M667.89,117.38c-5.28,0-8-2.23-8-8.1V102c0-5.81,2.7-8.07,8-8.07H670c5.28,0,8,2.26,8,8.07v7.32c0,5.87-2.69,8.1-8,8.1Zm7.59-15.51c0-4.11-1.7-5.8-5.45-5.8h-2.14c-3.78,0-5.45,1.69-5.45,5.8v7.51c0,4.13,1.67,5.86,5.45,5.86H670c3.75,0,5.45-1.73,5.45-5.86Z"/><path class="cls-1" d="M682.77,117.38V93.89h2.56v21.35h11.23v2.14Z"/><path class="cls-1" d="M706,117.38c-4.13,0-7.36-2-7.36-7.59V93.89h2.52v15.9c0,3.39,1.33,5.45,5.2,5.45h1.84c3.87,0,5.19-2.06,5.19-5.45V93.89h2.51v15.9c0,5.56-3.22,7.59-7.35,7.59Z"/><path class="cls-1" d="M726,117.38V96H718.9V93.89h16.68V96h-7.07v21.35Z"/><path class="cls-1" d="M738.63,117.38V93.89h2.55v23.49Z"/><path class="cls-1" d="M753.9,117.38c-5.28,0-8-2.23-8-8.1V102c0-5.81,2.7-8.07,8-8.07H756c5.28,0,8,2.26,8,8.07v7.32c0,5.87-2.69,8.1-8,8.1Zm7.59-15.51c0-4.11-1.7-5.8-5.45-5.8H753.9c-3.78,0-5.45,1.69-5.45,5.8v7.51c0,4.13,1.67,5.86,5.45,5.86H756c3.75,0,5.45-1.73,5.45-5.86Z"/><path class="cls-1" d="M784.82,117.38l-13.5-20v20h-2.55V93.89h2.94l13.42,19.74V93.89h2.55v23.49Z"/><path class="cls-2" d="M183.41,47.29c-20,12-41.85,20.42-64.63,25.92V0a67.26,67.26,0,0,1,25,4.74V55.29h17.91V15.23A67.78,67.78,0,0,1,183.41,47.29Z"/><path class="cls-3" d="M186.61,67.83a67.87,67.87,0,0,1-25,52.61V80.38H143.74v50.55a67.46,67.46,0,0,1-25,4.74V86.46c24.44-5.64,47.48-15.75,66.68-31.11A66.52,66.52,0,0,1,186.61,67.83Z"/><path class="cls-4" d="M113.21,0V74.49A346,346,0,0,1,47,82.42,67.5,67.5,0,0,1,45.5,71.67H88.06V33.72A42.18,42.18,0,0,0,71.93,58.3H46.08A67.82,67.82,0,0,1,113.21,0Z"/><path class="cls-5" d="M113.21,87.67v9H82.11a42.39,42.39,0,0,0,31.1,13.57v25.41a67.76,67.76,0,0,1-61.37-39,53.11,53.11,0,0,1-2.18-5.24A235.1,235.1,0,0,0,113.21,87.67Z"/><path class="cls-6" d="M0,82.75S136.88,139.1,228.45,15.38c0,0-7,4-31.53,10.65a102,102,0,0,0,15.5.42S155.71,106.93,0,82.75Z"/></g></g></svg>