<svg xmlns="http://www.w3.org/2000/svg" xmlns:xlink="http://www.w3.org/1999/xlink" viewBox="0 0 228.45 135.67"><defs><style>.cls-1{fill:url(#무제_그라디언트_5);}.cls-2{fill:url(#무제_그라디언트_5-2);}.cls-3{fill:url(#무제_그라디언트_5-3);}.cls-4{fill:url(#무제_그라디언트_5-4);}.cls-5{fill:#326e6f;}</style><linearGradient id="무제_그라디언트_5" x1="151.09" y1="-6.75" x2="151.09" y2="142.89" gradientUnits="userSpaceOnUse"><stop offset="0" stop-color="#4d999a"/><stop offset="1" stop-color="#326e6f"/></linearGradient><linearGradient id="무제_그라디언트_5-2" x1="152.69" y1="-6.75" x2="152.69" y2="142.89" xlink:href="#무제_그라디언트_5"/><linearGradient id="무제_그라디언트_5-3" x1="79.36" y1="-6.75" x2="79.36" y2="142.89" xlink:href="#무제_그라디언트_5"/><linearGradient id="무제_그라디언트_5-4" x1="81.44" y1="-6.75" x2="81.44" y2="142.89" xlink:href="#무제_그라디언트_5"/></defs><g id="Layer_2" data-name="Layer 2"><g id="레이어_1" data-name="레이어 1"><path class="cls-1" d="M183.41,47.29c-20,12-41.85,20.42-64.63,25.92V0a67.26,67.26,0,0,1,25,4.74V55.29h17.91V15.23A67.78,67.78,0,0,1,183.41,47.29Z"/><path class="cls-2" d="M186.61,67.83a67.87,67.87,0,0,1-25,52.61V80.38H143.74v50.55a67.46,67.46,0,0,1-25,4.74V86.46c24.44-5.64,47.48-15.75,66.68-31.11A66.52,66.52,0,0,1,186.61,67.83Z"/><path class="cls-3" d="M113.21,0V74.49A346,346,0,0,1,47,82.42,67.5,67.5,0,0,1,45.5,71.67H88.06V33.72A42.18,42.18,0,0,0,71.93,58.3H46.08A67.82,67.82,0,0,1,113.21,0Z"/><path class="cls-4" d="M113.21,87.67v9H82.11a42.39,42.39,0,0,0,31.1,13.57v25.41a67.76,67.76,0,0,1-61.37-39,53.11,53.11,0,0,1-2.18-5.24A235.1,235.1,0,0,0,113.21,87.67Z"/><path class="cls-5" d="M0,82.75S136.88,139.1,228.45,15.38c0,0-7,4-31.53,10.65a102,102,0,0,0,15.5.42S155.71,106.93,0,82.75Z"/></g></g></svg>