<svg id="Layer_1" enable-background="new 0 0 48 48" viewBox="0 0 48 48" xmlns="http://www.w3.org/2000/svg"><g><path d="m.5 6h15.2v41.5h-15.2z" fill="#6eb2d5"/><g><g><path d="m11.8 11.8h2.2v2h-2.2z" fill="#fff"/></g><g><path d="m11.8 18.4h2.2v2h-2.2z" fill="#fff"/></g><g><path d="m11.8 24.9h2.2v2h-2.2z" fill="#fff"/></g><g><path d="m11.8 31.4h2.2v2h-2.2z" fill="#fff"/></g></g><g><g><path d="m4.9 11.8h2.2v2h-2.2z" fill="#fff"/></g><g><path d="m4.9 18.4h2.2v2h-2.2z" fill="#fff"/></g><g><path d="m4.9 24.9h2.2v2h-2.2z" fill="#fff"/></g><g><path d="m4.9 31.4h2.2v2h-2.2z" fill="#fff"/></g></g><path d="m32.3 11.8h15.2v35.7h-15.2z" fill="#62c08f"/><g><path d="m33.3 18.7h8.7v2h-8.7z" fill="#fff"/></g><g><path d="m33.3 25.3h8.7v2h-8.7z" fill="#fff"/></g><g><path d="m33.3 31.9h8.7v2h-8.7z" fill="#fff"/></g><g><path d="m33.3 38.4h8.7v2h-8.7z" fill="#fff"/></g><path d="m13.7.5h20.6v47h-20.6z" fill="#e3e3e3"/><g><g><g><path d="m19.5 7h2v2.1h-2z" fill="#b8d5e1"/></g><g><path d="m26.5 7h2v2.1h-2z" fill="#b8d5e1"/></g></g><g><g><path d="m19.5 14h2v2.1h-2z" fill="#b8d5e1"/></g><g><path d="m26.5 14h2v2.1h-2z" fill="#b8d5e1"/></g></g><g><g><path d="m19.5 20.9h2v2.1h-2z" fill="#b8d5e1"/></g><g><path d="m26.5 20.9h2v2.1h-2z" fill="#b8d5e1"/></g></g><g><g><path d="m19.5 27.9h2v2.1h-2z" fill="#b8d5e1"/></g><g><path d="m26.5 27.9h2v2.1h-2z" fill="#b8d5e1"/></g></g><g><g><path d="m19.5 34.8h2v2.1h-2z" fill="#b8d5e1"/></g><g><path d="m26.5 34.8h2v2.1h-2z" fill="#b8d5e1"/></g></g></g></g></svg>