<?xml version="1.0" encoding="iso-8859-1"?>
<!-- Generator: Adobe Illustrator 19.0.0, SVG Export Plug-In . SVG Version: 6.00 Build 0)  -->
<svg version="1.1" id="Capa_1" xmlns="http://www.w3.org/2000/svg" xmlns:xlink="http://www.w3.org/1999/xlink" x="0px" y="0px"
	 viewBox="0 0 512 512" style="enable-background:new 0 0 512 512;" xml:space="preserve">
<circle style="fill:#FFA500;" cx="256" cy="256" r="256"/>
<path style="fill:#FF6900;" d="M512,256c0-2.712-0.057-5.41-0.14-8.101l-80.911-80.911H421.5l-76.488-76.654h-23.046v28.417
	l-28.614-28.417h-23.046v28.25l-28.614-28.25h-23.046v28.417l-28.614-28.417h-23.046v44.74h-15.752
	c-16.016,0-29.119,13.104-29.119,29.12v2.795H81.051v23.046l28.365,28.614H81.051v23.045l28.886,28.614H81.051v23.046l28.074,28.614
	H81.051v23.046L247.899,511.86c2.691,0.084,5.389,0.14,8.101,0.14C397.385,512,512,397.385,512,256z"/>
<g>
	<rect x="166.99" y="90.33" style="fill:#FFFFFF;" width="23.05" height="54.57"/>
	<rect x="218.65" y="90.33" style="fill:#FFFFFF;" width="23.05" height="54.57"/>
</g>
<g>
	<rect x="270.31" y="90.33" style="fill:#FFF0AB;" width="23.05" height="54.57"/>
	<rect x="321.97" y="90.33" style="fill:#FFF0AB;" width="23.05" height="54.57"/>
</g>
<g>
	<rect x="166.99" y="367.1" style="fill:#FFFFFF;" width="23.05" height="54.57"/>
	<rect x="218.65" y="367.1" style="fill:#FFFFFF;" width="23.05" height="54.57"/>
</g>
<g>
	<rect x="270.31" y="367.1" style="fill:#FFF0AB;" width="23.05" height="54.57"/>
	<rect x="321.97" y="367.1" style="fill:#FFF0AB;" width="23.05" height="54.57"/>
	<rect x="376.38" y="166.99" style="fill:#FFF0AB;" width="54.57" height="23.05"/>
	<rect x="376.38" y="218.65" style="fill:#FFF0AB;" width="54.57" height="23.05"/>
	<rect x="376.38" y="270.31" style="fill:#FFF0AB;" width="54.57" height="23.05"/>
	<rect x="376.38" y="321.97" style="fill:#FFF0AB;" width="54.57" height="23.05"/>
</g>
<g>
	<rect x="81.05" y="166.99" style="fill:#FFFFFF;" width="54.57" height="23.05"/>
	<rect x="81.05" y="218.65" style="fill:#FFFFFF;" width="54.57" height="23.05"/>
	<rect x="81.05" y="270.31" style="fill:#FFFFFF;" width="54.57" height="23.05"/>
	<rect x="81.05" y="321.97" style="fill:#FFFFFF;" width="54.57" height="23.05"/>
</g>
<path style="fill:#00B6FD;" d="M360.764,376.927H151.236c-16.016,0-29.12-13.104-29.12-29.12V164.193
	c0-16.016,13.104-29.12,29.12-29.12h209.528c16.016,0,29.12,13.104,29.12,29.12v183.615
	C389.883,363.823,376.78,376.927,360.764,376.927z"/>
<path style="fill:#009AFD;" d="M389.88,164.19v183.62c0,16.01-13.1,29.12-29.12,29.12H256V135.07h104.76
	C376.78,135.07,389.88,148.18,389.88,164.19z"/>
<rect x="154.18" y="169.26" style="fill:#0E6EF3;" width="203.64" height="173.49"/>
<rect x="256" y="169.26" style="fill:#0062BC;" width="101.82" height="173.48"/>
<g>
</g>
<g>
</g>
<g>
</g>
<g>
</g>
<g>
</g>
<g>
</g>
<g>
</g>
<g>
</g>
<g>
</g>
<g>
</g>
<g>
</g>
<g>
</g>
<g>
</g>
<g>
</g>
<g>
</g>
</svg>
