<?xml version="1.0" encoding="UTF-8"?>
<svg id="Layer_1" xmlns="http://www.w3.org/2000/svg" version="1.1" viewBox="0 0 512 456">
  <!-- Generator: Adobe Illustrator 29.0.0, SVG Export Plug-In . SVG Version: 2.1.0 Build 186)  -->
  <defs>
    <style>
      .st0 {
        fill: #009ae0;
      }

      .st1 {
        fill: #00aae5;
      }

      .st2 {
        fill: #eaeff0;
      }

      .st3 {
        fill: #bac2c6;
      }

      .st4 {
        fill: #2d4a60;
      }

      .st5 {
        fill: #263f52;
      }
    </style>
  </defs>
  <path class="st2" d="M510,371.1l-51.3-79.1c-2-2.8-7.2-10.7-10.7-10.7H64c-3.4,0-8.7,7.9-10.7,10.7L2,371.1C.7,372.9,0,375.1,0,377.3v10.7c0,11.8,9.6,21.3,21.3,21.3h469.3c11.8,0,21.3-9.6,21.3-21.3v-10.7c0-2.2-.7-4.4-2-6.2Z"/>
  <path class="st4" d="M427.1,46.7H84.9c-17.4,0-31.5,14.1-31.5,31.5v213.8h405.3V78.2c0-17.4-14.1-31.5-31.5-31.5h0Z"/>
  <path class="st5" d="M53.3,78.2v213.8h405.3L65,53.7c-7.4,6-11.7,15-11.7,24.5Z"/>
  <path class="st1" d="M426.7,68H85.3c-5.9,0-10.7,4.8-10.7,10.7h0v192h362.7V78.7c0-5.9-4.8-10.7-10.7-10.7Z"/>
  <path class="st0" d="M88.6,68h-3.2c-5.9,0-10.7,4.8-10.7,10.7h0v192h348.8L88.6,68Z"/>
  <g>
    <path class="st3" d="M21.3,409.3h469.3c11.8,0,21.3-9.6,21.3-21.3v-10.7H0v10.7c0,11.8,9.6,21.3,21.3,21.3Z"/>
    <path class="st3" d="M53.2,345.3h405.6c2.9,0,5.3-2.4,5.3-5.3,0-.9-.2-1.9-.7-2.7l-16.9-29.3c-1.9-3.3-5.4-5.3-9.2-5.3H74.7c-3.8,0-7.3,2-9.2,5.3l-16.9,29.3c-1.5,2.6-.6,5.8,2,7.3.8.5,1.7.7,2.7.7Z"/>
    <path class="st3" d="M220.5,353.1l-1.5,16c-.1,1.5.9,2.8,2.4,2.9,0,0,.2,0,.3,0h68.8c1.5,0,2.7-1.2,2.7-2.7,0,0,0-.2,0-.3l-1.5-16c-.1-1.4-1.3-2.4-2.7-2.4h-65.8c-1.4,0-2.5,1-2.7,2.4Z"/>
  </g>
</svg>