<svg id="Capa_1" enable-background="new 0 0 512 512" height="512" viewBox="0 0 512 512" width="512" xmlns="http://www.w3.org/2000/svg" xmlns:xlink="http://www.w3.org/1999/xlink"><linearGradient id="SVGID_1_" gradientUnits="userSpaceOnUse" x1="251.143" x2="485.454" y1="407.758" y2="272.478"><stop offset="0" stop-color="#60aa5c"/><stop offset=".2614" stop-color="#62ae5e"/><stop offset=".53" stop-color="#69ba65"/><stop offset=".801" stop-color="#75cf70"/><stop offset="1" stop-color="#80e37b"/></linearGradient><linearGradient id="lg1"><stop offset="0" stop-color="#e37a34"/><stop offset=".1583" stop-color="#ef9936"/><stop offset=".35" stop-color="#fab937"/><stop offset=".4562" stop-color="#ffc538"/><stop offset=".6808" stop-color="#fad53d"/><stop offset=".8982" stop-color="#f7e041"/></linearGradient><linearGradient id="SVGID_2_" gradientUnits="userSpaceOnUse" x1="332.734" x2="430.974" xlink:href="#lg1" y1="401.49" y2="401.49"/><linearGradient id="lg2"><stop offset="0" stop-color="#fff"/><stop offset="1" stop-color="#fff" stop-opacity="0"/></linearGradient><linearGradient id="SVGID_3_" gradientUnits="userSpaceOnUse" x1="340.081" x2="399.465" xlink:href="#lg2" y1="405.664" y2="363.445"/><linearGradient id="SVGID_4_" gradientUnits="userSpaceOnUse" x1="411.247" x2="301.976" xlink:href="#lg1" y1="383.914" y2="383.914"/><linearGradient id="lg3"><stop offset="0" stop-color="#ffa538"/><stop offset=".2643" stop-color="#fcb83b"/><stop offset=".732" stop-color="#f8d53f"/><stop offset="1" stop-color="#f7e041"/></linearGradient><linearGradient id="SVGID_5_" gradientUnits="userSpaceOnUse" x1="342.391" x2="433.903" xlink:href="#lg3" y1="387.452" y2="387.452"/><linearGradient id="SVGID_6_" gradientUnits="userSpaceOnUse" x1="348.914" x2="416.123" xlink:href="#lg1" y1="391.036" y2="391.036"/><linearGradient id="SVGID_7_" gradientUnits="userSpaceOnUse" x1="349.516" x2="386.974" xlink:href="#lg2" y1="399.238" y2="371.363"/><linearGradient id="SVGID_8_" gradientUnits="userSpaceOnUse" x1="424.452" x2="522.692" xlink:href="#lg1" y1="375.204" y2="375.204"/><linearGradient id="SVGID_9_" gradientUnits="userSpaceOnUse" x1="431.799" x2="491.183" xlink:href="#lg2" y1="379.377" y2="337.158"/><linearGradient id="SVGID_10_" gradientUnits="userSpaceOnUse" x1="502.965" x2="393.694" xlink:href="#lg1" y1="357.628" y2="357.628"/><linearGradient id="SVGID_11_" gradientUnits="userSpaceOnUse" x1="434.109" x2="525.621" xlink:href="#lg3" y1="361.166" y2="361.166"/><linearGradient id="SVGID_12_" gradientUnits="userSpaceOnUse" x1="440.632" x2="507.841" xlink:href="#lg1" y1="364.75" y2="364.75"/><linearGradient id="SVGID_13_" gradientUnits="userSpaceOnUse" x1="441.234" x2="478.692" xlink:href="#lg2" y1="372.952" y2="345.076"/><linearGradient id="lg4"><stop offset="0" stop-color="#dea861"/><stop offset=".2843" stop-color="#f5bc44"/><stop offset=".4562" stop-color="#ffc538"/><stop offset=".6808" stop-color="#fad53d"/><stop offset=".8982" stop-color="#f7e041"/></linearGradient><linearGradient id="SVGID_14_" gradientTransform="matrix(-1 0 0 1 478.462 0)" gradientUnits="userSpaceOnUse" x1="357.473" x2="420.505" xlink:href="#lg4" y1="439.195" y2="439.195"/><linearGradient id="SVGID_15_" gradientTransform="matrix(-1 0 0 1 478.462 0)" gradientUnits="userSpaceOnUse" x1="371.686" x2="421.875" xlink:href="#lg4" y1="403.847" y2="403.847"/><linearGradient id="SVGID_16_" gradientUnits="userSpaceOnUse" x1="177.33" x2="259.251" y1="265.093" y2="265.093"><stop offset=".1018" stop-color="#41464e"/><stop offset=".5876" stop-color="#4b515a"/><stop offset="1" stop-color="#565d68"/></linearGradient><linearGradient id="lg5"><stop offset="0" stop-color="#565d68"/><stop offset=".1002" stop-color="#5c636f"/><stop offset=".6138" stop-color="#78808f"/><stop offset=".8982" stop-color="#838b9b"/></linearGradient><linearGradient id="SVGID_17_" gradientUnits="userSpaceOnUse" x1="192.104" x2="257.116" xlink:href="#lg5" y1="247.429" y2="247.429"/><linearGradient id="SVGID_18_" gradientUnits="userSpaceOnUse" x1="34.629" x2="410.223" xlink:href="#lg5" y1="275.996" y2="59.147"/><g><g><path d="m183.066 375.171 204.133-117.856c5.669-3.273 12.653-3.273 18.323-.001l102.031 58.894c5.929 3.422 5.929 11.979.001 15.402l-204.133 117.857c-5.669 3.273-12.653 3.273-18.323.001l-102.031-58.894c-5.929-3.423-5.929-11.98-.001-15.403z" fill="url(#SVGID_1_)"/><path d="m464.906 335.012c-9.297-5.368-8.177-14.72 2.46-20.951-15.799-9.11-39.117-22.556-54.684-31.531-10.573 6.043-26.354 6.78-35.747 1.752l-151.169 87.278c9.285 5.401 8.1 14.799-2.67 21.017-.015.008-.031.015-.046.023l53.293 30.726c.416-.27.823-.542 1.272-.801 10.791-6.23 27.115-6.907 36.46-1.511.368.212.691.442 1.027.666l149.967-86.583c-.052-.031-.111-.055-.163-.085z" fill="#99e995"/><g fill="#60aa5c"><ellipse cx="345.31" cy="353.391" rx="39.961" ry="22.608" transform="matrix(.993 -.121 .121 .993 -40.22 44.375)"/><path d="m301.974 378.096c-5.053-2.917-13.879-2.552-19.714.817s-6.468 8.465-1.415 11.382 13.88 2.551 19.714-.817c5.835-3.368 6.468-8.464 1.415-11.382z"/><ellipse cx="399.211" cy="321.661" rx="14.046" ry="7.946" transform="matrix(.993 -.121 .121 .993 -35.983 50.661)"/></g></g><g><path d="m407.68 397.004v-16.281l-74.946 6.735v16.618l.001-.001c.142 4.839 3.147 9.441 9.138 12.9 13.552 7.824 37.223 6.842 52.872-2.192 8.803-5.082 13.192-11.63 12.935-17.779z" fill="url(#SVGID_2_)"/><ellipse cx="370.207" cy="383.914" fill="#f7e041" rx="37.67" ry="21.312" transform="matrix(.993 -.121 .121 .993 -43.729 47.611)"/><path d="m396.985 396.685c13.531-8.998 14.428-21.697 1.556-29.13-12.871-7.431-34.857-6.904-50.441.906z" fill="url(#SVGID_3_)"/><path d="m391.761 371.47c-10.309-5.952-28.316-5.205-40.22 1.667-11.904 6.873-13.197 17.269-2.888 23.221s28.316 5.205 40.22-1.667 13.197-17.269 2.888-23.221z" fill="url(#SVGID_4_)"/><path d="m391.761 378.546c-10.309-5.952-28.316-5.205-40.22 1.667-4.83 2.788-7.88 6.158-9.15 9.574.997 2.459 3.071 4.729 6.263 6.572 10.309 5.952 28.316 5.205 40.219-1.667 4.83-2.789 7.88-6.158 9.15-9.574-.996-2.459-3.07-4.729-6.262-6.572z" fill="url(#SVGID_5_)"/><path d="m391.505 389.927v-8.22l-42.591 3.726v8.445l.005-.001c.032 1.037.298 2.055.798 3.026 10.445 5.331 27.645 4.434 39.157-2.213.621-.358 1.211-.728 1.773-1.105.588-1.217.886-2.45.849-3.659z" fill="url(#SVGID_6_)"/><ellipse cx="370.208" cy="383.508" fill="#f7e041" rx="21.404" ry="12.109" transform="matrix(.993 -.121 .121 .993 -43.678 47.605)"/><path d="m386.011 390.349c7.111-5.082 7.415-12.026.296-16.136s-19.146-3.935-27.949.171z" fill="url(#SVGID_7_)"/></g><g><path d="m499.398 370.718v-16.281l-74.946 6.735v16.618l.001-.001c.142 4.839 3.147 9.441 9.138 12.9 13.552 7.824 37.223 6.842 52.872-2.192 8.803-5.082 13.192-11.63 12.935-17.779z" fill="url(#SVGID_8_)"/><ellipse cx="461.925" cy="357.628" fill="#f7e041" rx="37.67" ry="21.312" transform="matrix(.993 -.121 .121 .993 -39.875 58.514)"/><path d="m488.703 370.399c13.531-8.998 14.428-21.697 1.557-29.13-12.871-7.431-34.857-6.904-50.441.906z" fill="url(#SVGID_9_)"/><path d="m483.479 345.184c-10.309-5.952-28.316-5.205-40.22 1.667-11.904 6.873-13.197 17.269-2.888 23.221s28.316 5.205 40.22-1.667c11.904-6.873 13.197-17.269 2.888-23.221z" fill="url(#SVGID_10_)"/><path d="m483.479 352.259c-10.309-5.952-28.316-5.205-40.22 1.667-4.83 2.788-7.88 6.158-9.15 9.574.997 2.459 3.071 4.729 6.263 6.572 10.309 5.952 28.316 5.205 40.219-1.667 4.83-2.789 7.88-6.158 9.15-9.574-.996-2.458-3.07-4.728-6.262-6.572z" fill="url(#SVGID_11_)"/><path d="m483.223 363.641v-8.22l-42.591 3.726v8.445l.005-.001c.032 1.037.298 2.055.798 3.026 10.445 5.331 27.645 4.434 39.157-2.213.621-.358 1.211-.728 1.773-1.105.588-1.216.886-2.45.849-3.659z" fill="url(#SVGID_12_)"/><ellipse cx="461.926" cy="357.222" fill="#f7e041" rx="21.404" ry="12.109" transform="matrix(.993 -.121 .121 .993 -39.825 58.509)"/><path d="m477.729 364.063c7.111-5.082 7.415-12.026.296-16.136s-19.146-3.935-27.949.171z" fill="url(#SVGID_13_)"/></g><path d="m60.012 455.446v-47.108l43.309 3.808v46.463c.048.481.048.959 0 1.433-.266 2.612-1.994 5.075-5.25 6.954-7.838 4.525-21.528 3.958-30.578-1.267-5.092-2.939-7.63-6.727-7.481-10.283z" fill="url(#SVGID_14_)"/><circle cx="81.681" cy="403.847" fill="url(#SVGID_15_)" r="25.094"/><path d="m367.193 266.554v-102.348l-294.81 25.921v97.96c-.327 3.275-.328 6.532 0 9.758 1.81 17.777 13.576 34.544 35.737 47.338 53.353 30.803 146.546 26.941 208.152-8.628 34.658-20.009 51.936-45.791 50.921-70.001z" fill="url(#SVGID_16_)"/><path d="m0 183.46v42.238l.025-.001c-.137 4.774 2.139 9.607 6.866 12.336l163.489 94.391c15.176 8.762 33.874 8.762 49.05 0l213.052-123.006c4.594-2.652 6.891-7.293 6.891-11.935v-41.622z" fill="url(#SVGID_17_)"/><path d="m6.891 195.396 163.489 94.39c15.176 8.762 33.874 8.762 49.05 0l213.052-123.006c9.188-5.305 9.188-18.566 0-23.87l-163.49-94.39c-15.176-8.762-33.874-8.762-49.05 0l-213.051 123.005c-9.188 5.305-9.188 18.566 0 23.871z" fill="url(#SVGID_18_)"/><g><path d="m81.681 397.959c-5.962 0-10.793-4.832-10.793-10.793v-149.537c0-3.856 2.057-7.42 5.396-9.347l127.173-73.424c5.163-2.981 11.764-1.211 14.745 3.951 2.979 5.162 1.211 11.764-3.951 14.744l-121.777 70.308v143.304c0 5.961-4.831 10.794-10.793 10.794z" fill="#f7e041"/></g></g></svg>