<?xml version="1.0" encoding="UTF-8"?>
<svg id="Layer_1" xmlns="http://www.w3.org/2000/svg" version="1.1" viewBox="0 0 133 133">
  <!-- Generator: Adobe Illustrator 29.0.0, SVG Export Plug-In . SVG Version: 2.1.0 Build 186)  -->
  <defs>
    <style>
      .st0 {
        fill: #fde500;
      }

      .st1 {
        fill: #3c1e1e;
      }
    </style>
  </defs>
  <rect class="st0" x="3.4" y="2.5" width="128" height="128" rx="27.6" ry="27.6"/>
  <path class="st1" d="M67.5,26.3c23.8,0,43.1,15,43.1,33.6s-19.3,33.6-43.1,33.6-4.8-.2-7.1-.5l-18.1,11.8c-2.1,1.1-2.8,1-1.9-1.7l3.7-15.1c-11.8-6-19.6-16.4-19.6-28.2,0-18.6,19.3-33.6,43.1-33.6h0ZM91.7,59.4l6-5.8c.8-.7.8-2,0-2.7-.7-.8-2-.8-2.7,0l-7.9,7.7v-6.3c0-1.1-.9-1.9-1.9-1.9s-1.9.9-1.9,1.9v17.3c0,1.1.9,1.9,1.9,1.9s1.9-.9,1.9-1.9v-5.6l1.8-1.7,5.9,8.3c.4.5,1,.8,1.6.8s.8,0,1.1-.4c.9-.6,1.1-1.8.5-2.7l-6.2-8.8h-.1ZM79.6,67.3h-6v-15.1c0-1.1-.9-1.9-1.9-1.9s-1.9.9-1.9,1.9v17.1c0,1.1.9,1.9,1.9,1.9h7.9c1.1,0,1.9-.9,1.9-1.9s-.9-1.9-1.9-1.9h0ZM55.5,62.8l2.9-7,2.6,7h-5.5ZM65.9,64.8h0c0-.5-.2-1-.5-1.3l-4.3-11.5c-.4-1.1-1.4-1.9-2.6-1.9s-2.2.7-2.7,1.8l-6.8,16.7c-.4,1,0,2.1,1.1,2.5,1,.4,2.1,0,2.5-1.1l1.4-3.3h8.5l1.2,3.3c.3.8,1,1.3,1.8,1.3s.5,0,.7,0c1-.4,1.5-1.5,1.1-2.5l-1.4-3.8h0ZM52.2,52.2c0-1.1-.9-1.9-1.9-1.9h-13.3c-1.1,0-1.9.9-1.9,1.9s.9,1.9,1.9,1.9h4.8v15.3c0,1.1.9,1.9,1.9,1.9s1.9-.9,1.9-1.9v-15.3h4.7c1.1,0,1.9-.9,1.9-1.9Z"/>
</svg>