<?xml version="1.0" encoding="UTF-8"?>
<svg id="Layer_1" xmlns="http://www.w3.org/2000/svg" version="1.1" xmlns:xlink="http://www.w3.org/1999/xlink" viewBox="0 0 133 133">
  <!-- Generator: Adobe Illustrator 29.0.0, SVG Export Plug-In . SVG Version: 2.1.0 Build 186)  -->
  <defs>
    <style>
      .st0 {
        fill: #00b771;
      }

      .st1 {
        fill: #fff;
      }

      .st2 {
        fill: #1c9dff;
      }

      .st3 {
        fill: none;
      }

      .st4 {
        clip-path: url(#clippath);
      }
    </style>
    <clipPath id="clippath">
      <rect class="st3" x="2.5" y="2.6" width="128" height="128" rx="27.8" ry="27.8"/>
    </clipPath>
  </defs>
  <g>
    <path id="SVGID" class="st0" d="M102.7,130.6H30.3c-15.4,0-27.8-12.5-27.8-27.8V30.4C2.5,15,15,2.6,30.3,2.6h72.3c15.4,0,27.8,12.5,27.8,27.8v72.3c0,15.4-12.5,27.8-27.8,27.8Z"/>
    <g class="st4">
      <path class="st2" d="M102.7,130.6H30.3c-15.4,0-27.8-12.5-27.8-27.8V30.4C2.5,15,15,2.6,30.3,2.6h72.3c15.4,0,27.8,12.5,27.8,27.8v72.3c0,15.4-12.5,27.8-27.8,27.8Z"/>
    </g>
  </g>
  <path class="st1" d="M38.6,38.7h55.8c1.7,0,3.1,1.4,3.1,3.1v49.6c0,1.7-1.4,3.1-3.1,3.1h-55.8c-1.7,0-3.1-1.4-3.1-3.1v-49.6c0-1.7,1.4-3.1,3.1-3.1ZM66.7,65.6l-19.9-16.9-4,4.7,23.9,20.3,23.5-20.4-4.1-4.7-19.5,16.9Z"/>
</svg>