<svg xmlns="http://www.w3.org/2000/svg" viewBox="0 0 451.5961 102.43542"><defs><style>.cls-1{fill:#25408f;}.cls-2{fill:#fff;}.cls-3{fill:#231f20;}</style></defs><g id="Layer_2" data-name="Layer 2"><g id="레이어_2" data-name="레이어 2"><rect class="cls-1" x="0.02538" y="25.02897" width="122.538" height="26.73943"/><polygon class="cls-2" points="10.51 44.335 10.51 32.05 12.632 32.05 12.632 36.822 16.617 36.822 16.617 32.05 18.724 32.05 18.724 44.335 16.617 44.335 16.617 39.031 12.632 39.031 12.632 44.335 10.51 44.335"/><rect class="cls-2" x="20.67565" y="41.80341" width="2.04578" height="2.53135"/><polygon class="cls-2" points="28.128 44.335 23.794 32.05 26.052 32.05 28.795 40.256 31.523 32.05 33.751 32.05 29.447 44.335 28.128 44.335"/><rect class="cls-2" x="34.76353" y="41.80341" width="2.04584" height="2.53135"/><path class="cls-2" d="M40.13989,44.33476h-2.258L42.39791,32.05h1.90928l4.51633,12.28472H46.50491l-1.21264-3.40182H41.3824Zm3.21266-9.02821-1.197,3.41772h2.37919Z"/><rect class="cls-2" x="49.82061" y="41.80341" width="2.04612" height="2.53135"/><path class="cls-2" d="M62.5018,43.6411a5.288,5.288,0,0,1-3.07667.919,5.416,5.416,0,0,1-2.40934-.54773,5.85335,5.85335,0,0,1-1.98526-1.56414,6.544,6.544,0,0,1-1.09113-1.983,7.33929,7.33929,0,0,1-.3789-2.354,6.53249,6.53249,0,0,1,1.78834-4.53,5.78858,5.78858,0,0,1,1.8638-1.322,5.56913,5.56913,0,0,1,2.22759-.451,5.28269,5.28269,0,0,1,3.12215.95082,6.43266,6.43266,0,0,1,2.182,2.86993H62.34992a3.66068,3.66068,0,0,0-1.28806-1.209,3.62359,3.62359,0,0,0-1.63673-.35509,3.48739,3.48739,0,0,0-1.39384.27446,3.35584,3.35584,0,0,0-1.15206.854,3.95281,3.95281,0,0,0-.86362,1.35465,4.41,4.41,0,0,0-.28788,1.57974,5.014,5.014,0,0,0,.25745,1.62826,3.76906,3.76906,0,0,0,.803,1.322,3.56688,3.56688,0,0,0,1.21265.91927,3.29211,3.29211,0,0,0,1.42427.3224,3.333,3.333,0,0,0,1.59125-.3712,3.5469,3.5469,0,0,0,1.24308-1.1123h2.50008A6.88717,6.88717,0,0,1,62.5018,43.6411Z"/><rect class="cls-2" x="66.36287" y="41.80341" width="2.04606" height="2.53135"/><path class="cls-2" d="M76.131,44.33476H73.873L78.389,32.05h1.90928l4.5166,12.28472H82.496l-1.21265-3.40182H77.37352Zm3.21266-9.02821-1.197,3.41772h2.37947Z"/><path class="cls-2" d="M91.22238,44.35094V43.7867a3.881,3.881,0,0,1-.97.57985,3.07117,3.07117,0,0,1-1.09114.19354,3.30425,3.30425,0,0,1-2.66735-1.12842,4.61988,4.61988,0,0,1-.96974-3.11148V34.95147h2.0154v4.90128a3.79475,3.79475,0,0,0,.39422,1.98328,1.47253,1.47253,0,0,0,1.33353.62836,1.725,1.725,0,0,0,.98508-.27417,1.75822,1.75822,0,0,0,.62128-.74161,2.78831,2.78831,0,0,0,.24235-.91871,9.40149,9.40149,0,0,0,.06086-1.24139v-4.337h2.0003v9.39947Z"/><path class="cls-2" d="M95.82557,43.093a5.00407,5.00407,0,0,1-1.31843-3.51447,5.26967,5.26967,0,0,1,.33336-1.87009,4.97222,4.97222,0,0,1,.95464-1.57974,4.09825,4.09825,0,0,1,1.45526-1.08019,4.42338,4.42338,0,0,1,1.80316-.35447,4.13176,4.13176,0,0,1,1.364.22561,4.4531,4.4531,0,0,1,1.27266.70927V32.05h2.01569V44.33476h-2.03073V43.5767a4.8627,4.8627,0,0,1-1.24252.70927,3.60207,3.60207,0,0,1-1.288.24178A4.34515,4.34515,0,0,1,95.82557,43.093Zm5.15238-5.49725a2.36664,2.36664,0,0,0-1.78784-.78984,2.45644,2.45644,0,0,0-1.84869.77367,2.76945,2.76945,0,0,0-.75779,1.999,2.92569,2.92569,0,0,0,.75779,2.06364,2.40463,2.40463,0,0,0,1.8638.82218,2.295,2.295,0,0,0,1.75762-.82218,2.80747,2.80747,0,0,0,.77317-1.96689A2.94972,2.94972,0,0,0,100.978,37.59579Z"/><path class="cls-2" d="M105.40023,34.1619V32.05h2.00051V34.1619Zm0,.75779h2.00051v9.41507h-2.00051Z"/><polygon class="cls-2" points="109.565 36.919 108.398 36.919 108.398 34.92 109.565 34.92 109.565 32.05 111.565 32.05 111.565 34.92 112.762 34.92 112.762 36.919 111.565 36.919 111.565 44.335 109.565 44.335 109.565 36.919"/><rect class="cls-3" x="121.77875" y="25.02897" width="100.54515" height="26.73943"/><text/><path class="cls-2" d="M417.82516,82.82452h6.24463V93.55026H451.5961V99.792H420.92131a3.03815,3.03815,0,0,1-2.2864-.74965,4.44087,4.44087,0,0,1-.80975-2.99464Zm27.12382-1.446V57.37847h6.33441v32.9306h-6.37583v-3.3418H437.5415V81.37856Zm-17.8698-2.6474H414.40933V72.69854h27.1318v6.03262h-8.173V88.1174h-6.289Zm8.168-20.3072a10.47032,10.47032,0,0,1,3.50654,8.08622,9.40347,9.40347,0,0,1-3.63774,7.5812,11.09053,11.09053,0,0,1-7.40859,2.79526,11.56348,11.56348,0,0,1-7.6827-2.79526,9.3997,9.3997,0,0,1-3.63381-7.5812,10.41039,10.41039,0,0,1,3.54695-8.08622,11.12858,11.12858,0,0,1,7.76956-2.993,10.7403,10.7403,0,0,1,7.53979,2.993m-11.31257,4.29072a5.58406,5.58406,0,0,0-1.39374,3.7955,5.1435,5.1435,0,0,0,1.39374,3.64167,4.56993,4.56993,0,0,0,3.54693,1.59787,4.48268,4.48268,0,0,0,3.45714-1.59787,5.097,5.097,0,0,0,1.48455-3.64167,5.40642,5.40642,0,0,0-1.48455-3.7955A4.54813,4.54813,0,0,0,427.48157,61.17a4.63917,4.63917,0,0,0-3.54693,1.54465M398.961,57.37847h6.33141V100.439H398.961Zm-13.29414,6.23574H369.72529V57.37847h22.32132v19.015H376.05577v8.033h24.299v6.2318h-27.62a2.96862,2.96862,0,0,1-2.24106-.7457,4.61954,4.61954,0,0,1-.76833-2.99657V70.40042h15.94155ZM325.85,84.32382h6.33149v9.22644H359.624V99.792H328.95018a3.04678,3.04678,0,0,1-2.29035-.74965,4.4409,4.4409,0,0,1-.80984-2.99464Zm27.12684-26.94535h6.33149V64.711h5.07289v6.23978h-5.07289v18.2121h-6.33149V80.93071H322.4382V74.695h6.15392V67.90685h6.28109V74.695h18.10362Zm-12.3936,19.161V63.56492H324.189V57.37847h22.72472v19.161ZM290.46431,83.3256a7.46212,7.46212,0,0,0-2.11269,5.38953,7.23278,7.23278,0,0,0,2.11269,5.28884,6.60189,6.60189,0,0,0,4.93673,2.14632,6.531,6.531,0,0,0,4.851-2.14632,7.16778,7.16778,0,0,0,2.15812-5.28884A7.3929,7.3929,0,0,0,300.252,83.3256a6.60448,6.60448,0,0,0-4.851-2.09693,6.7808,6.7808,0,0,0-4.93673,2.09693m14.10005-3.99074a11.85888,11.85888,0,0,1,4.48889,9.42956,12.94233,12.94233,0,0,1-4.263,9.93064,13.13765,13.13765,0,0,1-9.253,3.74036,13.34047,13.34047,0,0,1-9.43058-3.74036,12.93262,12.93262,0,0,1-4.267-9.93064,11.83172,11.83172,0,0,1,4.49676-9.42956,13.86833,13.86833,0,0,1,9.2008-3.49572,13.45357,13.45357,0,0,1,9.02716,3.49572m10.05891,1.39667H276.45415V74.49176h38.16912Zm-22.45351-9.48289H280.804a3.0619,3.0619,0,0,1-2.28641-.74571,4.62788,4.62788,0,0,1-.76833-2.99848v-10.126h6.33533v7.78432h29.23579v6.08585H292.16976Zm-30.49724,8.03683a12.70952,12.70952,0,0,1,4.08942,9.67823,12.875,12.875,0,0,1-4.08942,9.73136,12.57124,12.57124,0,0,1-17.68939,0,13.01446,13.01446,0,0,1-3.99964-9.73136,12.84563,12.84563,0,0,1,3.99964-9.67823A12.20576,12.20576,0,0,1,252.82979,75.64a12.41137,12.41137,0,0,1,8.84273,3.64551m-13.20041,4.78584a7.03508,7.03508,0,0,0,0,9.78075,5.99783,5.99783,0,0,0,8.84657,0,7.04546,7.04546,0,0,0,0-9.78075,6.11243,6.11243,0,0,0-8.84657,0m12.52965-21.85377V57.37847h6.33048V77.6876h-6.33048V68.10805h-7.41152V62.21754Zm-14.95121-4.83907c-.03747,3.96125.59875,7.03468,1.88291,9.23028q2.19711,3.69294,7.36323,4.5906V77.6876a14.88477,14.88477,0,0,1-7.40859-2.39489,13.69821,13.69821,0,0,1-5.07278-5.64194,14.14977,14.14977,0,0,1-5.43781,5.68729,15.34765,15.34765,0,0,1-7.13831,2.34954V71.19935q5.1651-.8463,7.3188-4.63989,1.79609-3.13947,1.84149-9.181ZM215.01326,85.61989H185.779v-5.492h35.56527V92.35277H192.10947v1.7518h29.23479V99.792H188.83333a3.04844,3.04844,0,0,1-2.29187-.74965,4.62027,4.62027,0,0,1-.76247-2.99464V87.26513h29.23427Zm-14.59759-3.98882V78.238H184.474V72.59209H222.6472V78.238H206.70312v3.3931Zm14.68587-18.76651H192.01725v2.34752h23.08429ZM188.786,70.69827a2.98107,2.98107,0,0,1-2.24449-.74964A4.60006,4.60006,0,0,1,185.779,66.958V57.37847h35.56527V66.958a4.42178,4.42178,0,0,1-.80794,2.99061,2.97,2.97,0,0,1-2.24489.74964ZM169.02517,90.9068H139.791V84.82489h35.5691V99.99508h-6.33493ZM154.43,86.17026V81.63107H138.486V75.39139h38.17509v6.23968h-15.942v4.53919Zm7.81452-21.907q1.21174,1.39959,4.76008,2.04764a52.40161,52.40161,0,0,0,8.3555.59581V72.9965a58.82974,58.82974,0,0,1-10.05942-.69833q-5.75385-1.05054-7.72412-3.5431-2.02775,2.49756-7.86381,3.5431a58.27583,58.27583,0,0,1-9.92175.69833V66.90671a50.1995,50.1995,0,0,0,8.21783-.59581q3.54505-.648,4.76219-2.04764h-12.98V58.278h14.23418V54.335h7.14416v3.943H175.3601v5.98525Zm-66.32833,20.461h6.32705v8.826h27.44349V99.792H99.01194a3.03539,3.03539,0,0,1-2.28792-.74965,4.43113,4.43113,0,0,1-.80783-2.99464Zm27.1215-17.717V57.37847h6.33442V86.56881h-6.33442V73.24507H111.27232V67.00731Zm-7.233-9.62884V60.5723q0,10.93077-7.49828,15.96719-5.47356,3.69582-14.50295,3.99276V73.94139q7.90295-.34619,11.90091-3.541a8.78711,8.78711,0,0,0,3.41381-7.088H94.38741V57.37847ZM77.05354,89.31085H47.81592V83.07309h35.5686v16.922h-6.331ZM62.49988,77.38772H46.51238V71.15H85.26752v6.23776H68.78884v7.33657h-6.289Zm14.55366-4.49384V63.61421H47.81592V57.37847h35.5686V72.89388ZM3.93668,84.22322h6.3329v9.327H37.71115V99.792H6.99294a2.89409,2.89409,0,0,1-2.24642-.74965,4.43,4.43,0,0,1-.80984-2.99464Zm33.46025-9.93266V86.56881H31.06605V57.37847h6.33088v10.631h5.11976v6.28109ZM22.89156,64.91422a10.94059,10.94059,0,0,1,1.43859,2.59023,9.13049,9.13049,0,0,1,.53511,3.09514,10.93606,10.93606,0,0,1-3.54794,8.38408,10.95021,10.95021,0,0,1-7.85785,3.19383,10.88851,10.88851,0,0,1-7.81291-3.19383,11.0442,11.0442,0,0,1-3.55137-8.38408A10.32407,10.32407,0,0,1,2.54738,67.607a12.1709,12.1709,0,0,1,1.303-2.69275H.66054V58.97038h9.43007V55.08469h6.73782v3.88569h9.43209v5.94384ZM9.77639,66.75874a5.92946,5.92946,0,0,0,0,7.93623,4.92425,4.92425,0,0,0,3.68308,1.596,4.9754,4.9754,0,0,0,3.63824-1.596,5.42362,5.42362,0,0,0,1.61908-3.94347,5.48724,5.48724,0,0,0-1.61908-3.99276,5.038,5.038,0,0,0-3.63824-1.54666,4.987,4.987,0,0,0-3.68308,1.54666"/><path class="cls-2" d="M199.90583,39.69922h2.2652v3.89071h9.985v2.26414H201.02894a1.10205,1.10205,0,0,1-.82938-.27193,1.61089,1.61089,0,0,1-.29373-1.08629Z"/><polygon class="cls-2" points="209.745 39.175 209.745 30.469 212.043 30.469 212.043 42.414 209.73 42.414 209.73 41.202 207.058 41.202 207.058 39.175 209.745 39.175"/><polygon class="cls-2" points="203.263 38.214 198.667 38.214 198.667 36.026 208.509 36.026 208.509 38.214 205.544 38.214 205.544 41.619 203.263 41.619 203.263 38.214"/><path class="cls-2" d="M206.22558,30.848a3.89594,3.89594,0,0,0-2.735-1.08571A4.0368,4.0368,0,0,0,200.6722,30.848a3.77624,3.77624,0,0,0-1.28663,2.93323,3.40974,3.40974,0,0,0,1.31813,2.75,4.19454,4.19454,0,0,0,2.78686,1.014,4.023,4.023,0,0,0,2.68744-1.014,3.41111,3.41111,0,0,0,1.31958-2.75A3.79805,3.79805,0,0,0,206.22558,30.848Zm-1.56287,4.25422a1.62611,1.62611,0,0,1-1.25407.57963,1.65772,1.65772,0,0,1-1.28663-.57963,1.86574,1.86574,0,0,1-.50558-1.321,2.02556,2.02556,0,0,1,.50558-1.37679,1.68284,1.68284,0,0,1,1.28663-.56033,1.64986,1.64986,0,0,1,1.25407.56033,1.9611,1.9611,0,0,1,.53851,1.37679A1.84887,1.84887,0,0,1,204.66271,35.10225Z"/><rect class="cls-2" x="193.06294" y="30.46879" width="2.29669" height="15.61999"/><path class="cls-2" d="M188.24055,32.73077h-5.78272v-2.262h8.09695v6.89759h-5.8006V40.2803h8.81433v2.26056h-10.019a1.07685,1.07685,0,0,1-.81293-.2705,1.67572,1.67572,0,0,1-.27871-1.087V35.19243h5.78272Z"/><path class="cls-2" d="M166.54228,40.24308H168.839v3.34685h9.95463v2.26414H167.66686a1.10519,1.10519,0,0,1-.83082-.27193,1.61094,1.61094,0,0,1-.29376-1.08629Z"/><polygon class="cls-2" points="176.382 30.469 178.679 30.469 178.679 33.129 180.519 33.129 180.519 35.392 178.679 35.392 178.679 41.998 176.382 41.998 176.382 39.012 165.305 39.012 165.305 36.75 167.537 36.75 167.537 34.288 169.815 34.288 169.815 36.75 176.382 36.75 176.382 30.469"/><polygon class="cls-2" points="171.887 37.419 171.887 32.713 165.94 32.713 165.94 30.469 174.183 30.469 174.183 37.419 171.887 37.419"/><path class="cls-2" d="M158.821,38.43336a4.88018,4.88018,0,0,0-3.27456-1.26806,5.03054,5.03054,0,0,0-3.33755,1.26806,4.2919,4.2919,0,0,0-1.63118,3.42053,4.69117,4.69117,0,0,0,1.54782,3.60227,4.83914,4.83914,0,0,0,3.42091,1.3568,4.7656,4.7656,0,0,0,3.35648-1.3568,4.69472,4.69472,0,0,0,1.54638-3.60227A4.30174,4.30174,0,0,0,158.821,38.43336Zm-1.5643,5.32115a2.369,2.369,0,0,1-1.75966.77856,2.39483,2.39483,0,0,1-1.79078-.77856,2.62369,2.62369,0,0,1-.76637-1.91851,2.70687,2.70687,0,0,1,.76637-1.955,2.45974,2.45974,0,0,1,1.79078-.76065,2.39568,2.39568,0,0,1,1.75966.76065,2.68172,2.68172,0,0,1,.78286,1.955A2.60007,2.60007,0,0,1,157.25673,43.75451Z"/><rect class="cls-2" x="148.62417" y="36.67655" width="13.84567" height="2.26345"/><path class="cls-2" d="M154.32493,35.50012H150.202a1.11067,1.11067,0,0,1-.82938-.2705,1.67875,1.67875,0,0,1-.27871-1.08768V30.46879h2.29811v2.82372H161.9972v2.20761h-7.67227Z"/><path class="cls-2" d="M143.26222,38.41544a4.50223,4.50223,0,0,0-3.20768-1.32239,4.42751,4.42751,0,0,0-3.20906,1.32239,4.65964,4.65964,0,0,0-1.45085,3.51073,4.72087,4.72087,0,0,0,1.45085,3.53,4.56014,4.56014,0,0,0,6.41674,0,4.67037,4.67037,0,0,0,1.48341-3.53A4.61036,4.61036,0,0,0,143.26222,38.41544Zm-1.57935,5.284a2.17568,2.17568,0,0,1-3.20905,0,2.552,2.552,0,0,1,0-3.54792,2.21725,2.21725,0,0,1,3.20905,0,2.55571,2.55571,0,0,1,0,3.54792Z"/><polygon class="cls-2" points="143.019 32.224 143.019 30.469 145.315 30.469 145.315 37.836 143.019 37.836 143.019 34.361 140.33 34.361 140.33 32.224 143.019 32.224"/><path class="cls-2" d="M137.59542,30.46879a6.53809,6.53809,0,0,0,.683,3.34824,3.63354,3.63354,0,0,0,2.671,1.66521v2.35358a5.39929,5.39929,0,0,1-2.68743-.86873,4.96892,4.96892,0,0,1-1.84013-2.04659,5.13272,5.13272,0,0,1-1.97254,2.063,5.56723,5.56723,0,0,1-2.58939.85228V35.48224a3.49759,3.49759,0,0,0,2.65486-1.68309,6.94274,6.94274,0,0,0,.668-3.33036Z"/></g></g></svg>