<?xml version="1.0" encoding="utf-8"?>
<!-- Generator: Adobe Illustrator 22.0.1, SVG Export Plug-In . SVG Version: 6.00 Build 0)  -->
<svg version="1.1" id="Layer_1" xmlns="http://www.w3.org/2000/svg" xmlns:xlink="http://www.w3.org/1999/xlink" x="0px" y="0px"
	 viewBox="0 0 1822.3 679.7" style="enable-background:new 0 0 1822.3 679.7;" xml:space="preserve">
<style type="text/css">
	.st0{fill:#FFFFFF;}
</style>
<g id="Layer_2_1_">
	<g id="_Ã_h_1">
		<path class="st0" d="M118.2,370.1h267c6.6,0,11.4-1.5,14.7-4.4c3.7-3.3,6.3-8.5,8.5-16.2h9.9v112.3h-9.9
			c-2.2-7.7-4.8-12.9-8.5-15.8c-3.3-3-8.1-4.4-14.7-4.4H3v-10.3c7.7-2.2,13.3-4.8,16.2-8.1s4.4-8.5,4.4-15.1V40.9
			c0-6.6-1.5-11.8-4.4-15.1S10.7,19.9,3,17.7V7.4h135.8v10.3c-7.7,1.9-12.9,4.4-16.2,8.1c-3,3.3-4.4,8.5-4.4,15.1L118.2,370.1z"/>
		<path class="st0" d="M517,408V40.5c0-6.6-1.5-11.4-4.4-14.7s-8.5-5.9-16.2-8.1V7.4h135.8v10.3c-7.7,1.9-12.9,4.4-16.2,8.1
			c-2.9,3.3-4.4,8.1-4.4,14.7V408c0,6.6,1.5,11.8,4.8,15.1c3,3.7,8.1,6.3,15.8,8.1v10.3H496.4v-10.3c7.7-2.2,13.3-4.8,16.2-8.1
			C515.5,419.8,517,414.6,517,408z"/>
		<path class="st0" d="M1107.6,251.9h-250v156.5c0,6.3,1.5,11.4,4.8,14.7c2.9,3.7,8.1,6.3,15.8,8.1v10.3H742.7v-10.3
			c7.4-2.2,12.9-4.8,15.8-8.1s4.4-8.5,4.4-14.7V40.5c0-6.6-1.5-11.4-4.4-14.7s-8.5-5.9-15.8-8.1V7.4h135.5v10.3
			c-7.7,1.9-12.9,4.4-16.2,8.1c-3,3.3-4.4,8.1-4.4,14.7v139.9h250V40.5c0-6.6-1.5-11.4-4.4-14.7c-3-3.7-8.5-6.3-15.8-8.1V7.4h135.5
			v10.3c-7.7,2.2-12.9,4.8-16.2,8.1c-3,3.3-4.4,8.1-4.4,14.7v367.9c0,6.3,1.5,11.4,4.4,14.7c3.3,3.3,8.5,5.9,16.2,8.1v10.3h-135.5
			v-10.3c7.4-1.8,12.5-4.4,15.5-8.1c3.3-3.3,4.8-8.5,4.8-14.7L1107.6,251.9z"/>
		<path class="st0" d="M1752,61.1C1707.7,20.4,1647.8,0,1572.3,0c-101.3,1.5-173.1,36.1-215.4,104.9
			c-22.5,36.1-33.5,75.9-33.5,119.3c0,29.1,5.5,58,16.2,85.1c12.5,30.2,30.6,56.7,54.1,78.4c44.2,41,103.9,61.5,179,61.5
			c100.1,0,172-35.3,216.1-105.7c22.5-36.1,33.5-74.7,33.5-116.3C1822.2,159.2,1798.8,103.8,1752,61.1z M1714.4,284.6
			c-8.3,20.5-21.2,38.9-37.6,53.8c-27.6,24.7-62.2,36.8-103.8,36.8s-76.2-12.1-103.8-36.8c-32.8-29.1-49-67-49-114.1
			c0-47.1,16.2-85.1,49-114.1c27.6-24.7,61.9-36.8,103.1-36.8c42,0.4,76.6,12.5,104.5,36.8c32.4,28,48.6,67,48.6,116
			C1725.5,246.1,1721.7,266,1714.4,284.6z"/>
		<path class="st0" d="M1598.4,642.9V626h19.9l-19.9-43.8v-30.6h22.8v3c-3.7,0.7-5.5,2.6-5.5,5.2c0.2,2.1,0.8,4.1,1.8,5.9l46.8,94.6
			c1.3,2.9,3.1,5.7,5.2,8.1c1.5,1.5,3.3,2.2,5.9,2.9v3h-44.9v-3c4-0.7,5.9-2.6,5.9-5.5c-0.2-2-0.8-3.8-1.8-5.5l-8.5-17.3H1598.4z
			 M1727.7,654h75.1c1.6,0.1,3.2-0.4,4.4-1.5c1.2-1.2,1.9-2.8,2.2-4.4h2.9v31.7h-2.9c-0.3-1.7-1-3.2-2.2-4.4
			c-1.3-0.8-2.9-1.2-4.4-1.1h-107.5v-3c1.6-0.5,3.1-1.4,4.4-2.6c0.7-0.7,1.1-2.2,1.1-4V560.8c0-1.8-0.4-3.3-1.1-4
			c-1.2-1.2-2.8-1.9-4.4-2.2v-3h38.3v3c-1.8,0.2-3.5,1-4.8,2.2c-0.7,0.7-1.1,2.2-1.1,4V654z M1598.4,551.6v30.9l-20.3,43.5h20.3
			v16.9h-28l-8.4,17.3c-0.9,1.7-1.4,3.6-1.5,5.5c0,2.6,1.8,4.4,5.9,5.5v3h-40.5v-3c2-0.6,3.8-1.4,5.5-2.6c1.1-1.1,2.6-3.7,4.4-7
			l44.9-94.3c1.5-3,2.2-5.2,2.2-7c0-2.9-1.8-4.8-5.2-5.9v-3H1598.4z M1265.9,676v-20.6l0,0c11.8,0,21.4-3.7,29.1-10.3
			c4.8-4.4,8.5-9.2,10.7-15.5c2.2-5.1,3.3-10.6,3.3-16.2c0-14-4.4-25-14-32.8c-7.7-7-17.3-10.3-29.1-10.7v-20.6
			c21.4,0,37.9,5.9,50.4,17.3c13.3,12.2,19.9,27.6,19.9,46.8c0.2,11.6-3.2,23.1-9.6,32.8C1314.5,666.1,1294.3,676,1265.9,676z
			 M1395.2,590.2v74.4c0,1.8,0.4,3.3,1.1,4c1.4,1.2,3,2.1,4.8,2.6v3H1365v-3c2.2-0.7,3.7-1.5,4.4-2.6c0.7-0.7,1.1-2.2,1.1-4V560.8
			c0-1.8-0.4-3.3-1.1-4c-0.7-1.1-2.2-1.8-4.4-2.2v-3h41.6v3c-2.6,0.4-4,1.8-4,4c0,1.5,1.1,3,2.6,4.8l67.8,70.3v-73
			c0-1.8-0.4-3.3-1.5-4c-0.7-1.1-2.2-1.8-4.4-2.2v-3h36.1v3c-2.2,0.4-3.7,1.1-4.4,2.2c-1,1.1-1.5,2.5-1.5,4v103.8
			c0,1.5,0.5,2.9,1.5,4c0.7,1.1,2.2,1.8,4.4,2.6v3h-38.7v-3c2.6-0.7,3.7-1.8,3.7-4c0-1.1-1.5-3.3-4.4-6.3L1395.2,590.2z
			 M1265.9,549.3V570l0,0c-11.8,0-21.7,3.7-29.5,10.7c-9.2,8.1-13.6,18.8-13.6,32s4.4,23.9,13.6,32.4c7.7,6.6,17.7,10.3,29.5,10.3
			V676l0,0c-21.4,0-38.3-5.5-50.8-17.3c-6.8-6-12-13.6-15.1-22.1c-3-7.6-4.5-15.7-4.4-23.9c0-12.2,3-23.6,9.2-33.5
			c12.2-19.5,32.4-29.4,60.8-29.8H1265.9z M987.5,674.2v-3.3c0.6-0.1,1.3,0.1,1.8,0.4v3L987.5,674.2z M987.5,577.4h1.1
			c0.4-1.6,1.2-3.1,2.2-4.4c1.3-0.8,2.9-1.2,4.4-1.1h37.9v92.8c0,1.8-0.4,3.3-1.1,4c-1.4,1.2-3,2.1-4.8,2.6v3h38.3v-3
			c-1.6-0.5-3.1-1.4-4.4-2.6c-0.7-0.7-1.1-2.2-1.1-4v-92.8h37.9c1.8,0,3.3,0.4,4,1.1c1.1,0.7,1.8,2.2,2.6,4.4h2.9v-31.7h-2.9
			c-0.7,2.2-1.5,3.7-2.6,4.4c-0.7,1.1-2.2,1.5-4,1.5H995.3c-1.8,0-3.3-0.4-4-1.5c-1.1-0.7-1.8-2.2-2.6-4.4h-1.1L987.5,577.4
			L987.5,577.4z M1134.5,664.6V560.8c0-1.8-0.4-3.3-1.1-4c-0.7-1.1-2.2-1.8-4.4-2.2v-3h38.3v3c-1.8,0.2-3.5,1-4.8,2.2
			c-0.7,0.7-1.1,2.2-1.1,4v103.8c-0.1,1.6,0.4,3.2,1.5,4.4c1.3,1,2.8,1.8,4.4,2.2v3h-38.3v-3c2.2-0.7,3.7-1.5,4.4-2.6
			C1134.1,667.9,1134.5,666.5,1134.5,664.6z M987.5,545.7v31.7h-1.8v-31.7H987.5z M987.5,670.9c-1.6-0.6-3.1-1.5-4.4-2.6
			c-1.5-1.5-2.9-4.4-5.2-8.1l-46.4-94.6c-1-1.8-1.5-3.8-1.5-5.9c0-2.6,1.8-4.4,5.2-5.2v-3h-22.8v30.9l0.4-0.4l19.9,43.8h-20.3v16.9
			h28l8.1,17.3c1.1,2.2,1.8,4,1.8,5.5c0,3-2.2,4.8-5.9,5.5v3h43.1L987.5,670.9z M912.4,551.6v30.9L892.5,626h19.9v16.9h-28
			l-8.1,17.3c-1.1,2.2-1.8,4-1.8,5.5c0,2.6,2.2,4.4,6.3,5.5v3h-40.8v-3c2.6-0.7,4.4-1.5,5.5-2.6c1.5-1.1,3-3.7,4.4-7l44.9-94.3
			c1.5-3,2.2-5.2,2.2-7c0-2.9-1.5-4.8-5.2-5.9v-3H912.4z M587.7,626v-22.1h7.3c4.3,0,8.6-0.2,12.9-0.7c2.4-0.3,4.8-1.1,7-2.2
			c4.4-2.2,6.6-6.6,6.6-13.3c0-6.3-2.2-10.7-6.6-13.3c-2.2-1.1-4.6-1.9-7-2.2c-4.3-0.4-8.6-0.5-12.9-0.4h-7.4v-20.3h9.9
			c9.6,0,16.9,0.4,22.5,1.5c5.1,0.9,10,2.8,14.4,5.5c4.7,3.2,8.4,7.7,10.7,12.9c2.2,5.2,3.4,10.8,3.3,16.5c0,19.9-11.4,31.7-33.5,35
			l23.9,33.9c2.7,4.1,5.8,7.9,9.2,11.4c2,1.7,4.4,2.7,7,2.9v3h-44.2v-3c2.9-0.7,4.4-1.5,4.4-3.3c0-1.1-1.5-3.7-4-7.7L587.7,626z
			 M709.2,590.3v74.4c0,1.8,0.4,3.3,1.5,4c0.7,1.1,2.2,1.8,4.4,2.6v3H679v-3c2.2-0.7,3.7-1.5,4.4-2.6c1.1-0.7,1.5-2.2,1.5-4V560.8
			c0-1.8-0.4-3.3-1.5-4c-0.7-1.1-2.2-1.8-4.4-2.2v-3h41.6v3c-2.6,0.4-3.7,1.8-3.7,4c0,1.5,0.7,3,2.6,4.8l67.4,70.3v-73
			c0-1.8-0.4-3.3-1.1-4c-0.7-1.1-2.2-1.8-4.4-2.2v-3h36.1v3c-1.8,0.2-3.5,1-4.8,2.2c-0.7,0.7-1.1,2.2-1.1,4v103.8
			c0,1.8,0.4,3.3,1.1,4c1.4,1.2,3,2.1,4.8,2.6v3h-38.7v-3c2.2-0.7,3.7-1.8,3.7-4c0-1.1-1.5-3.3-4.4-6.3L709.2,590.3z M5.9,664.6
			V560.8c0-1.5-0.5-2.9-1.5-4c-0.7-1.1-2.2-1.9-4.4-2.3v-3h38.3v3c-2.2,0.4-3.7,1.1-4.4,2.2c-1.1,0.7-1.5,2.2-1.5,4v103.9
			c-0.1,1.6,0.4,3.2,1.5,4.4c1.3,1,2.8,1.8,4.4,2.2v3H0v-3c2.2-0.7,3.7-1.5,4.4-2.6C5.4,667.6,5.9,666.1,5.9,664.6L5.9,664.6z
			 M587.7,551.6v20.3h-33.9v32h33.9V626l-1.5-1.8h-32.4v40.5c-0.1,1.6,0.3,3.1,1.1,4.4c1.3,1,2.8,1.8,4.4,2.2v3H521v-3
			c2.2-0.7,3.7-1.5,4.4-2.6c1.1-0.7,1.5-2.2,1.5-4V560.8c0-1.8-0.4-3.3-1.5-4c-0.7-1.1-2.2-1.8-4.4-2.2v-3L587.7,551.6z M99.8,590.3
			v74.4c0,1.8,0.4,3.3,1.1,4c1.4,1.2,3,2.1,4.8,2.6v3H69.6v-3c2.2-0.7,3.7-1.5,4.4-2.6c0.7-0.7,1.1-2.2,1.1-4V560.8
			c0-1.8-0.4-3.3-1.1-4c-0.7-1.1-2.2-1.8-4.4-2.2v-3h41.6v3c-2.6,0.4-4,1.8-4,4c0,1.5,1.1,3,2.6,4.8l67.8,70.3v-73
			c0-1.8-0.4-3.3-1.5-4c-0.7-1.1-2.2-1.8-4.4-2.2v-3h36.1v3c-2.2,0.4-3.7,1.1-4.4,2.2c-1,1.1-1.5,2.5-1.5,4v103.8
			c0,1.5,0.5,2.9,1.5,4c0.7,1.1,2.2,1.8,4.4,2.6v3H169v-3c2.6-0.7,3.7-1.8,3.7-4c0-1.1-1.5-3.3-4.4-6.3L99.8,590.3z M303.4,571.8
			v92.8c0,1.8,0.4,3.3,1.1,4c1.3,1.1,2.8,2,4.4,2.6v3h-38.3v-3c1.8-0.5,3.4-1.3,4.8-2.6c0.7-0.7,1.1-2.2,1.1-4v-92.8h-37.9
			c-1.5-0.1-3.1,0.3-4.4,1.1c-1,1.3-1.8,2.8-2.2,4.4h-3v-31.7h3c0.7,2.2,1.5,3.7,2.6,4.4c0.7,1.1,2.2,1.5,4,1.5h102.7
			c1.9,0,3.3-0.4,4-1.5c1.1-0.7,1.9-2.2,2.6-4.4h3v31.7h-3c-0.7-2.2-1.5-3.7-2.6-4.4c-0.7-0.7-2.2-1.1-4-1.1H303.4z M404.7,620.4
			V654h78.8c1.8,0,3.3-0.4,4-1.5c1.1-0.7,1.8-2.2,2.6-4.4h3v31.7h-3c-0.7-2.2-1.5-3.7-2.6-4.4c-0.7-0.7-2.2-1.1-4-1.1H372.3v-3
			c2.2-0.7,3.7-1.5,4.4-2.6c0.7-0.7,1.1-2.2,1.1-4V560.8c0-1.8-0.4-3.3-1.1-4c-0.7-1.1-2.2-1.8-4.4-2.2v-3h109
			c1.6,0.1,3.2-0.4,4.4-1.5c1-1.3,1.8-2.8,2.2-4.4h3v31.7h-3c-0.4-1.6-1.2-3.1-2.2-4.4c-1.3-0.8-2.9-1.2-4.4-1.1h-76.6V601h49.7
			c1.5,0,2.9-0.5,4-1.5c1.1-0.7,1.8-2.2,2.6-4.4h3V626h-3c-0.7-2.2-1.5-3.7-2.6-4.4c-0.7-0.7-2.2-1.1-4-1.1L404.7,620.4z"/>
	</g>
</g>
</svg>
