<svg xmlns="http://www.w3.org/2000/svg" viewBox="0 0 1822.29 679.72"><defs><style>.cls-1{fill:#fff;}.cls-2{fill:#f58220;}</style></defs><g id="Layer_2" data-name="Layer 2"><g id="_Ï_h_1" data-name="¹Ï¼h 1"><path class="cls-1" d="M118.2,370.06h267c6.63,0,11.42-1.48,14.73-4.42,3.68-3.32,6.26-8.47,8.47-16.2h9.94v112.3h-9.94c-2.21-7.73-4.79-12.89-8.47-15.83-3.31-3-8.1-4.42-14.73-4.42H3V431.18c7.73-2.21,13.25-4.79,16.2-8.1s4.42-8.47,4.42-15.1V40.87c0-6.63-1.48-11.78-4.42-15.1S10.68,19.88,3,17.67V7.36H138.82V17.67c-7.74,1.85-12.89,4.42-16.2,8.1-3,3.32-4.42,8.47-4.42,15.1Z"/><path class="cls-1" d="M517,408V40.5c0-6.62-1.47-11.41-4.42-14.73s-8.46-5.89-16.2-8.1V7.36H632.22V17.67c-7.73,1.85-12.88,4.42-16.2,8.1-2.94,3.32-4.42,8.11-4.42,14.73V408c0,6.63,1.48,11.78,4.79,15.1,3,3.68,8.1,6.26,15.83,8.1v10.31H496.35V431.18c7.74-2.21,13.26-4.79,16.2-8.1S517,414.61,517,408Z"/><path class="cls-1" d="M1107.59,251.86h-250V408.35c0,6.26,1.47,11.41,4.79,14.73,2.94,3.68,8.1,6.26,15.83,8.1v10.31H742.69V431.18c7.36-2.21,12.89-4.79,15.83-8.1s4.42-8.47,4.42-14.73V40.5c0-6.62-1.47-11.41-4.42-14.73s-8.47-5.89-15.83-8.1V7.36h135.5V17.67c-7.73,1.85-12.89,4.42-16.2,8.1-3,3.32-4.42,8.11-4.42,14.73V180.42h250V40.5c0-6.62-1.47-11.41-4.42-14.73-3-3.68-8.47-6.25-15.83-8.1V7.36h135.5V17.67c-7.73,2.21-12.89,4.79-16.2,8.1-3,3.32-4.42,8.11-4.42,14.73V408.35c0,6.26,1.47,11.41,4.42,14.73,3.31,3.31,8.47,5.89,16.2,8.1v10.31h-135.5V431.18c7.36-1.84,12.52-4.42,15.46-8.1,3.32-3.32,4.79-8.47,4.79-14.73Z"/><path class="cls-1" d="M1572.27,0Q1685.51,0,1752,61.12q70.15,64.08,70.33,166.07c0,41.61-11,80.27-33.51,116.35-44.18,70.33-116,105.68-216.14,105.68q-112.67,0-179-61.49c-23.57-21.73-41.61-48.24-54.13-78.43a231.23,231.23,0,0,1-16.2-85.06c0-43.45,11.05-83.21,33.51-119.3C1399.21,36.08,1471,1.47,1572.27,0Z"/><path class="cls-2" d="M1572.27,73.27c-41.24,0-75.48,12.16-103.1,36.83-32.77,29.08-49,67-49,114.14s16.2,85.06,49,114.15c27.62,24.67,62.23,36.82,103.84,36.82s76.22-12.15,103.84-36.82a147.65,147.65,0,0,0,37.56-53.76,159,159,0,0,0,11-58.55c0-49-16.2-88-48.6-116C1648.86,85.79,1614.25,73.64,1572.27,73.27Z"/><path class="cls-1" d="M1598.42,642.9V626h19.88l-19.88-43.81V551.58h22.83v2.95c-3.69.74-5.53,2.58-5.53,5.16a13.59,13.59,0,0,0,1.84,5.89l46.77,94.63a34.42,34.42,0,0,0,5.15,8.1c1.48,1.47,3.32,2.21,5.89,2.94v3h-44.92v-3c4-.73,5.89-2.57,5.89-5.52a13.68,13.68,0,0,0-1.84-5.52L1626,642.9ZM1727.66,654h75.12a5.9,5.9,0,0,0,4.42-1.47,8.18,8.18,0,0,0,2.2-4.42h2.95v31.66h-2.95a8.18,8.18,0,0,0-2.2-4.42,7.93,7.93,0,0,0-4.42-1.1H1695.26v-3a12.76,12.76,0,0,0,4.42-2.57c.73-.74,1.1-2.21,1.1-4V560.79c0-1.84-.37-3.31-1.1-4a8.48,8.48,0,0,0-4.42-2.21v-2.95h38.29v2.95a8.33,8.33,0,0,0-4.78,2.21c-.74.74-1.11,2.21-1.11,4ZM1598.42,551.58v30.93L1578.17,626h20.25V642.9h-28L1562,660.21a12.42,12.42,0,0,0-1.47,5.52c0,2.58,1.84,4.42,5.89,5.52v3h-40.5v-3a19.12,19.12,0,0,0,5.52-2.57c1.11-1.11,2.58-3.69,4.42-7l44.92-94.26c1.48-2.95,2.21-5.16,2.21-7,0-2.94-1.84-4.78-5.15-5.89v-2.95ZM1265.92,676V655.42h0c11.78,0,21.36-3.68,29.09-10.31,4.79-4.42,8.47-9.2,10.68-15.46a41.16,41.16,0,0,0,3.31-16.21c0-14-4.42-25-14-32.77-7.73-7-17.31-10.31-29.09-10.67V549.38c21.36,0,37.93,5.89,50.45,17.3,13.25,12.15,19.88,27.62,19.88,46.76a57.86,57.86,0,0,1-9.57,32.78Q1308.44,676,1265.92,676Zm129.24-85.79v74.38c0,1.84.37,3.31,1.11,4a11.62,11.62,0,0,0,4.78,2.57v3H1365v-3c2.21-.73,3.68-1.47,4.42-2.57.73-.74,1.1-2.21,1.1-4V560.79c0-1.84-.37-3.31-1.1-4q-1.11-1.65-4.42-2.21v-2.95h41.61v2.95c-2.58.37-4,1.84-4,4.05,0,1.47,1.1,2.95,2.58,4.79l67.75,70.33V560.79c0-1.84-.37-3.31-1.48-4-.73-1.1-2.21-1.84-4.41-2.21v-2.95h36.08v2.95q-3.32.56-4.42,2.21a5.93,5.93,0,0,0-1.47,4V664.63a5.93,5.93,0,0,0,1.47,4c.74,1.1,2.21,1.84,4.42,2.57v3h-38.66v-3c2.58-.73,3.68-1.84,3.68-4,0-1.1-1.47-3.31-4.42-6.26Zm-129.24-40.87V570h0c-11.78,0-21.72,3.68-29.46,10.67-9.2,8.1-13.62,18.78-13.62,32s4.42,23.93,13.62,32.4c7.74,6.63,17.68,10.31,29.46,10.31V676h0c-21.36,0-38.29-5.52-50.81-17.3a55.09,55.09,0,0,1-15.1-22.1,65.6,65.6,0,0,1-4.42-23.93c0-12.15,3-23.57,9.21-33.51q18.23-29.26,60.75-29.82ZM987.55,674.2v-3.31a3.38,3.38,0,0,1,1.84.36v3Zm0-96.84h1.1a12.18,12.18,0,0,1,2.21-4.42,7.84,7.84,0,0,1,4.42-1.1h37.93v92.79c0,1.84-.37,3.31-1.11,4a11.55,11.55,0,0,1-4.78,2.57v3h38.29v-3a12.76,12.76,0,0,1-4.42-2.57c-.73-.74-1.1-2.21-1.1-4V571.84H1098c1.85,0,3.32.36,4,1.1,1.11.74,1.85,2.21,2.58,4.42h2.95V545.69h-2.95c-.73,2.21-1.47,3.69-2.58,4.42-.73,1.11-2.2,1.47-4,1.47H995.28c-1.84,0-3.31-.36-4-1.47-1.1-.73-1.84-2.21-2.58-4.42h-1.1v31.67Zm146.92,87.27V560.79c0-1.84-.37-3.31-1.11-4-.73-1.1-2.21-1.84-4.42-2.21v-2.95h38.3v2.95a8.39,8.39,0,0,0-4.79,2.21c-.73.74-1.1,2.21-1.1,4V664.63a5.9,5.9,0,0,0,1.47,4.42,12,12,0,0,0,4.42,2.2v3h-38.3v-3c2.21-.73,3.69-1.47,4.42-2.57C1134.1,667.94,1134.47,666.47,1134.47,664.63ZM987.55,545.69v31.67h-1.84V545.69Zm0,125.2a17.64,17.64,0,0,1-4.42-2.58c-1.47-1.47-2.94-4.42-5.15-8.1l-46.4-94.63a12.68,12.68,0,0,1-1.47-5.89c0-2.58,1.84-4.42,5.15-5.16v-2.95H912.43v30.93l.37-.36L932.69,626H912.43V642.9h28l8.1,17.31c1.1,2.21,1.84,4,1.84,5.52,0,2.95-2.21,4.79-5.89,5.52v3h43.08ZM912.43,551.58v30.93L892.55,626h19.88V642.9h-28l-8.1,17.31c-1.1,2.21-1.84,4-1.84,5.52,0,2.58,2.21,4.42,6.26,5.52v3H839.9v-3c2.57-.73,4.42-1.47,5.52-2.57,1.47-1.11,3-3.69,4.42-7l44.92-94.26c1.47-2.95,2.21-5.16,2.21-7,0-2.94-1.47-4.78-5.16-5.89v-2.95ZM587.67,626V603.87H595a95.76,95.76,0,0,0,12.89-.74,22.12,22.12,0,0,0,7-2.2q6.63-3.31,6.63-13.26,0-9.39-6.63-13.26a22.39,22.39,0,0,0-7-2.21,114.46,114.46,0,0,0-12.89-.36h-7.36V551.58h9.94c9.58,0,16.94.37,22.46,1.48a41.54,41.54,0,0,1,14.36,5.52,30.6,30.6,0,0,1,10.68,12.89A41.6,41.6,0,0,1,648.43,588c0,19.88-11.42,31.66-33.51,35l23.93,33.87a82.1,82.1,0,0,0,9.21,11.42,11.94,11.94,0,0,0,7,2.94v3H610.87v-3c2.94-.73,4.42-1.47,4.42-3.31,0-1.1-1.48-3.68-4-7.73L587.67,626Zm121.51-35.71v74.38c0,1.84.37,3.31,1.47,4,.74,1.1,2.21,1.84,4.42,2.57v3H679v-3c2.21-.73,3.68-1.47,4.42-2.57,1.1-.74,1.47-2.21,1.47-4V560.79c0-1.84-.37-3.31-1.47-4q-1.11-1.65-4.42-2.21v-2.95H720.6v2.95c-2.58.37-3.69,1.84-3.69,4.05,0,1.47.74,2.95,2.58,4.79l67.38,70.33V560.79c0-1.84-.36-3.31-1.1-4q-1.11-1.65-4.42-2.21v-2.95h36.09v2.95a8.36,8.36,0,0,0-4.79,2.21c-.74.74-1.11,2.21-1.11,4V664.63c0,1.84.37,3.31,1.11,4a11.6,11.6,0,0,0,4.79,2.57v3H778.77v-3c2.21-.73,3.69-1.84,3.69-4,0-1.1-1.48-3.31-4.42-6.26ZM5.89,664.63V560.79a5.93,5.93,0,0,0-1.47-4Q3.31,555.09,0,554.53v-2.95H38.29v2.95q-3.32.56-4.41,2.21c-1.11.74-1.48,2.21-1.48,4V664.63a5.86,5.86,0,0,0,1.48,4.42,11.89,11.89,0,0,0,4.41,2.2v3H0v-3c2.21-.73,3.68-1.47,4.42-2.57a5.93,5.93,0,0,0,1.47-4Zm581.78-113v20.26H553.79v32h33.88V626l-1.47-1.84H553.79v40.51a7.84,7.84,0,0,0,1.11,4.42,12,12,0,0,0,4.42,2.2v3H521v-3c2.21-.73,3.69-1.47,4.42-2.57,1.11-.74,1.47-2.21,1.47-4V560.79c0-1.84-.36-3.31-1.47-4-.73-1.1-2.21-1.84-4.42-2.21v-2.95ZM99.79,590.25v74.38c0,1.84.36,3.31,1.1,4a11.66,11.66,0,0,0,4.79,2.57v3H69.59v-3c2.21-.73,3.68-1.47,4.42-2.57.74-.74,1.11-2.21,1.11-4V560.79c0-1.84-.37-3.31-1.11-4q-1.11-1.65-4.42-2.21v-2.95H111.2v2.95c-2.58.37-4,1.84-4,4.05,0,1.47,1.1,2.95,2.58,4.79l67.75,70.33V560.79c0-1.84-.37-3.31-1.47-4q-1.11-1.65-4.42-2.21v-2.95h36.08v2.95q-3.31.56-4.42,2.21a5.93,5.93,0,0,0-1.47,4V664.63a5.93,5.93,0,0,0,1.47,4c.74,1.1,2.21,1.84,4.42,2.57v3H169v-3c2.58-.73,3.68-1.84,3.68-4,0-1.1-1.47-3.31-4.42-6.26L99.79,590.25Zm203.62-18.41v92.79c0,1.84.37,3.31,1.1,4a12.76,12.76,0,0,0,4.42,2.57v3H270.64v-3a11.55,11.55,0,0,0,4.78-2.57c.74-.74,1.11-2.21,1.11-4V571.84H238.6a7.84,7.84,0,0,0-4.42,1.1,12.18,12.18,0,0,0-2.21,4.42H229V545.69H232c.74,2.21,1.48,3.69,2.58,4.42.74,1.11,2.21,1.47,4,1.47H341.33c1.85,0,3.32-.36,4.05-1.47,1.11-.73,1.85-2.21,2.58-4.42h3v31.67h-3c-.73-2.21-1.47-3.68-2.58-4.42-.73-.74-2.2-1.1-4.05-1.1Zm101.26,48.6V654h78.8c1.84,0,3.31-.37,4-1.47,1.1-.74,1.84-2.21,2.57-4.42h3v31.66h-3c-.73-2.21-1.47-3.68-2.57-4.42-.74-.73-2.21-1.1-4-1.1H372.26v-3c2.21-.73,3.69-1.47,4.42-2.57.74-.74,1.11-2.21,1.11-4V560.79c0-1.84-.37-3.31-1.11-4-.73-1.1-2.21-1.84-4.42-2.21v-2.95h109a5.82,5.82,0,0,0,4.41-1.47,11.78,11.78,0,0,0,2.21-4.42h2.95v31.67h-2.95a11.87,11.87,0,0,0-2.21-4.42,7.79,7.79,0,0,0-4.41-1.1H404.67v29.09h49.71a5.88,5.88,0,0,0,4.05-1.48c1.1-.73,1.84-2.21,2.57-4.42H464V626H461c-.73-2.21-1.47-3.68-2.57-4.41-.74-.74-2.21-1.11-4.05-1.11Z"/></g></g></svg>