<svg xmlns="http://www.w3.org/2000/svg" viewBox="0 0 381.96 157.75"><defs><style>.cls-1{fill:#56c5d0;fill-rule:evenodd;}.cls-2{fill:#fff;}.cls-3{fill:#f58220;}</style></defs><g id="Layer_2" data-name="Layer 2"><g id="_Ï_h_1" data-name="¹Ï¼h 1"><path class="cls-1" d="M0,157.75H382V55.15A55.36,55.36,0,0,0,326.74,0H0Z"/><path class="cls-2" d="M37.73,86.47h52.2a4.22,4.22,0,0,0,2.88-.86,6.52,6.52,0,0,0,1.65-3.17h2v22h-2a5.94,5.94,0,0,0-1.65-3.1,4.22,4.22,0,0,0-2.88-.86H15.19v-2a6.79,6.79,0,0,0,3.17-1.58,4.37,4.37,0,0,0,.86-3V22.1a4.37,4.37,0,0,0-.86-3,6.79,6.79,0,0,0-3.17-1.58v-2H41.76v2a6,6,0,0,0-3.17,1.58,4.42,4.42,0,0,0-.86,3Z"/><path class="cls-2" d="M115.7,93.89V22a4.17,4.17,0,0,0-.86-2.88,6.79,6.79,0,0,0-3.17-1.58v-2h26.57v2a6,6,0,0,0-3.17,1.58,4.22,4.22,0,0,0-.86,2.88V93.89a4.09,4.09,0,0,0,.93,3,5.46,5.46,0,0,0,3.1,1.58v2H111.67v-2a6.79,6.79,0,0,0,3.17-1.58A4.37,4.37,0,0,0,115.7,93.89Z"/><path class="cls-2" d="M231.19,63.36H182.3V94a4,4,0,0,0,.94,2.88,5.43,5.43,0,0,0,3.1,1.58v2h-26.5v-2a6.85,6.85,0,0,0,3.1-1.58A4.34,4.34,0,0,0,163.8,94V22a4.22,4.22,0,0,0-.86-2.88,6.85,6.85,0,0,0-3.1-1.58v-2h26.5v2a5.92,5.92,0,0,0-3.17,1.58A4.17,4.17,0,0,0,182.3,22V49.39h48.89V22a4.22,4.22,0,0,0-.86-2.88,5.72,5.72,0,0,0-3.1-1.58v-2h26.5v2a7.17,7.17,0,0,0-3.17,1.58A4.17,4.17,0,0,0,249.7,22V94a4.29,4.29,0,0,0,.86,2.88,7.17,7.17,0,0,0,3.17,1.58v2h-26.5v-2a5.48,5.48,0,0,0,3-1.58,4,4,0,0,0,.93-2.88Z"/><path class="cls-2" d="M322.06,14.11q22.14,0,35.13,12c9.15,8.36,13.75,19.16,13.75,32.48a42.23,42.23,0,0,1-6.55,22.75C355.75,95,341.71,102,322.13,102q-22,0-35-12a43.08,43.08,0,0,1-10.59-15.34A45.18,45.18,0,0,1,273.38,58a43.19,43.19,0,0,1,6.56-23.33C288.22,21.17,302.26,14.4,322.06,14.11Z"/><path class="cls-3" d="M322.06,28.44c-8.07,0-14.76,2.38-20.16,7.2-6.41,5.69-9.58,13.1-9.58,22.32s3.17,16.63,9.58,22.32c5.4,4.82,12.16,7.2,20.3,7.2s14.9-2.38,20.3-7.2a28.92,28.92,0,0,0,7.35-10.51A31.09,31.09,0,0,0,352,58.32c0-9.58-3.17-17.21-9.51-22.68C337,30.89,330.26,28.51,322.06,28.44Z"/><path class="cls-2" d="M327.17,139.82v-3.31h3.89l-3.89-8.57v-6h4.46v.57c-.72.15-1.08.51-1.08,1a2.71,2.71,0,0,0,.36,1.15l9.15,18.51a7,7,0,0,0,1,1.58,2.53,2.53,0,0,0,1.16.58v.57h-8.79v-.57c.79-.15,1.15-.51,1.15-1.08a2.61,2.61,0,0,0-.36-1.08l-1.65-3.39ZM352.44,142h14.69a1.15,1.15,0,0,0,.86-.28,1.6,1.6,0,0,0,.43-.87H369V147h-.58a1.11,1.11,0,0,0-1.29-1.08h-21v-.57a2.6,2.6,0,0,0,.87-.51,1.17,1.17,0,0,0,.21-.79v-20.3A1.17,1.17,0,0,0,347,123a1.72,1.72,0,0,0-.87-.44V122h7.49v.57a1.62,1.62,0,0,0-.93.44,1.11,1.11,0,0,0-.22.79Zm-25.27-20V128l-4,8.49h4v3.31H321.7L320,143.21a2.36,2.36,0,0,0-.29,1.08c0,.5.36.86,1.15,1.08v.57H313v-.57a3.62,3.62,0,0,0,1.08-.51,7.34,7.34,0,0,0,.87-1.36l8.78-18.44a3.15,3.15,0,0,0,.43-1.36c0-.58-.36-.94-1-1.16V122Zm-65,24.33v-4h0a8.45,8.45,0,0,0,5.69-2,7.35,7.35,0,0,0,2.09-3,8.1,8.1,0,0,0,.65-3.17,7.75,7.75,0,0,0-2.74-6.4,8.46,8.46,0,0,0-5.69-2.09v-4c4.18,0,7.42,1.15,9.87,3.38a11.82,11.82,0,0,1,3.88,9.14,11.25,11.25,0,0,1-1.87,6.41q-3.55,5.84-11.88,5.83Zm25.27-16.77v14.54a1.16,1.16,0,0,0,.22.79,2.29,2.29,0,0,0,.94.51v.57h-7.06v-.57a1.6,1.6,0,0,0,.86-.51,1.11,1.11,0,0,0,.22-.79v-20.3a1.11,1.11,0,0,0-.22-.79,1.23,1.23,0,0,0-.86-.44V122h8.14v.57c-.51.08-.8.36-.8.8a1.74,1.74,0,0,0,.51.93L302.62,138V123.77a.91.91,0,0,0-.29-.79,1.26,1.26,0,0,0-.87-.44V122h7.06v.57a1.23,1.23,0,0,0-.86.44,1.11,1.11,0,0,0-.29.79v20.3a1.11,1.11,0,0,0,.29.79,1.6,1.6,0,0,0,.86.51v.57H301v-.57c.5-.15.72-.36.72-.79,0-.22-.29-.65-.86-1.23Zm-25.27-8v4h0a8.32,8.32,0,0,0-5.76,2.09,7.9,7.9,0,0,0-2.66,6.26,8.18,8.18,0,0,0,2.66,6.34,8.66,8.66,0,0,0,5.76,2v4h0c-4.17,0-7.49-1.08-9.93-3.38a10.74,10.74,0,0,1-3-4.32,13,13,0,0,1-.86-4.68,12.14,12.14,0,0,1,1.8-6.55q3.57-5.73,11.88-5.83Zm-54.43,24.4v-.64a.66.66,0,0,1,.36.07v.57Zm0-18.93h.22a2.3,2.3,0,0,1,.43-.87,1.54,1.54,0,0,1,.86-.21h7.42v18.14a1.11,1.11,0,0,1-.22.79,2.25,2.25,0,0,1-.93.51v.57H223v-.57a2.55,2.55,0,0,1-.86-.51,1.16,1.16,0,0,1-.22-.79V125.93h7.42a1.17,1.17,0,0,1,.79.21,1.68,1.68,0,0,1,.51.87h.57v-6.19h-.57a1.6,1.6,0,0,1-.51.86.88.88,0,0,1-.79.29H209.23a.88.88,0,0,1-.79-.29,1.54,1.54,0,0,1-.5-.86h-.22V127Zm28.73,17.06v-20.3a1.11,1.11,0,0,0-.22-.79,1.23,1.23,0,0,0-.86-.44V122h7.49v.57a1.66,1.66,0,0,0-.94.44,1.16,1.16,0,0,0-.22.79v20.3a1.19,1.19,0,0,0,.29.87,2.54,2.54,0,0,0,.87.43v.57h-7.49v-.57a1.6,1.6,0,0,0,.86-.51A1.11,1.11,0,0,0,236.45,144.07Zm-28.73-23.25V127h-.36v-6.19Zm0,24.48a3.32,3.32,0,0,1-.86-.51,10,10,0,0,1-1-1.58l-9.07-18.51a2.41,2.41,0,0,1-.29-1.15c0-.5.36-.86,1-1V122H193V128l.07-.08,3.89,8.57h-4v3.31h5.47l1.59,3.39a2.77,2.77,0,0,1,.36,1.08c0,.57-.43.93-1.15,1.08v.57h8.42ZM193,122V128l-3.89,8.49H193v3.31h-5.47L186,143.21a2.61,2.61,0,0,0-.36,1.08c0,.5.43.86,1.22,1.08v.57h-8v-.57a2.58,2.58,0,0,0,1.08-.51,3.69,3.69,0,0,0,.86-1.36l8.79-18.44a3.3,3.3,0,0,0,.43-1.36c0-.58-.29-.94-1-1.16V122Zm-63.5,14.54v-4.32H131a19.45,19.45,0,0,0,2.52-.14,4.56,4.56,0,0,0,1.37-.43,2.63,2.63,0,0,0,1.29-2.6,2.76,2.76,0,0,0-1.29-2.59,4.56,4.56,0,0,0-1.37-.43,22.59,22.59,0,0,0-2.52-.07h-1.44v-4h1.94a23.4,23.4,0,0,1,4.39.29,7.92,7.92,0,0,1,2.81,1.08,5.88,5.88,0,0,1,2.09,2.52,8.12,8.12,0,0,1,.65,3.24c0,3.88-2.23,6.19-6.55,6.84l4.68,6.62a16.07,16.07,0,0,0,1.8,2.23,2.33,2.33,0,0,0,1.36.58v.57h-8.64v-.57c.58-.15.87-.29.87-.65a4.89,4.89,0,0,0-.79-1.51l-4.61-6.7Zm23.76-7v14.54a.88.88,0,0,0,.29.79,1.6,1.6,0,0,0,.86.51v.57h-7.06v-.57a1.64,1.64,0,0,0,.87-.51.91.91,0,0,0,.29-.79v-20.3a.91.91,0,0,0-.29-.79,1.26,1.26,0,0,0-.87-.44V122h8.14v.57a.74.74,0,0,0-.72.8,1.35,1.35,0,0,0,.5.93L168.48,138V123.77a1.11,1.11,0,0,0-.22-.79,1.23,1.23,0,0,0-.86-.44V122h7.06v.57a1.66,1.66,0,0,0-.94.44,1.16,1.16,0,0,0-.22.79v20.3a1.16,1.16,0,0,0,.22.79,2.29,2.29,0,0,0,.94.51v.57H166.9v-.57c.43-.15.72-.36.72-.79,0-.22-.29-.65-.87-1.23ZM15.77,144.07v-20.3a1.16,1.16,0,0,0-.29-.79,1.23,1.23,0,0,0-.86-.44V122H22.1v.57a1.23,1.23,0,0,0-.86.44.88.88,0,0,0-.29.79v20.3a1.15,1.15,0,0,0,.29.87,2.47,2.47,0,0,0,.86.43v.57H14.62v-.57a1.6,1.6,0,0,0,.86-.51,1.16,1.16,0,0,0,.29-.79ZM129.53,122v4H122.9v6.26h6.63v4.32l-.29-.36H122.9v7.92a1.6,1.6,0,0,0,.22.87,2.47,2.47,0,0,0,.86.43v.57H116.5v-.57a1.6,1.6,0,0,0,.86-.51.88.88,0,0,0,.29-.79v-20.3a.88.88,0,0,0-.29-.79,1.23,1.23,0,0,0-.86-.44V122Zm-95.4,7.56v14.54a1.17,1.17,0,0,0,.21.79,2.36,2.36,0,0,0,.94.51v.57H28.22v-.57a1.64,1.64,0,0,0,.87-.51,1.17,1.17,0,0,0,.21-.79v-20.3a1.17,1.17,0,0,0-.21-.79,1.26,1.26,0,0,0-.87-.44V122h8.14v.57c-.5.08-.79.36-.79.8a1.71,1.71,0,0,0,.5.93L49.32,138V123.77A.88.88,0,0,0,49,123a1.23,1.23,0,0,0-.86-.44V122h7v.57a1.23,1.23,0,0,0-.86.44,1.16,1.16,0,0,0-.29.79v20.3a1.16,1.16,0,0,0,.29.79,1.6,1.6,0,0,0,.86.51v.57H47.66v-.57c.51-.15.72-.36.72-.79,0-.22-.28-.65-.86-1.23L34.13,129.53Zm39.81-3.6v18.14a1.16,1.16,0,0,0,.22.79,2.55,2.55,0,0,0,.86.51v.57H67.54v-.57a2.25,2.25,0,0,0,.93-.51,1.11,1.11,0,0,0,.22-.79V125.93H61.27a1.54,1.54,0,0,0-.86.21A2.3,2.3,0,0,0,60,127H59.4v-6.19H60a1.54,1.54,0,0,0,.5.86.88.88,0,0,0,.79.29H81.36a.88.88,0,0,0,.79-.29,1.6,1.6,0,0,0,.51-.86h.57V127h-.57a1.68,1.68,0,0,0-.51-.87,1.17,1.17,0,0,0-.79-.21Zm19.8,9.5V142h15.41a.9.9,0,0,0,.79-.28,1.68,1.68,0,0,0,.51-.87H111V147h-.57a1.6,1.6,0,0,0-.51-.86,1.16,1.16,0,0,0-.79-.22H87.41v-.57a1.6,1.6,0,0,0,.86-.51,1.11,1.11,0,0,0,.22-.79v-20.3a1.11,1.11,0,0,0-.22-.79,1.23,1.23,0,0,0-.86-.44V122h21.31a1.12,1.12,0,0,0,.86-.29,2.29,2.29,0,0,0,.44-.86h.57V127H110a2.44,2.44,0,0,0-.44-.87,1.54,1.54,0,0,0-.86-.21h-15v5.69h9.72a1.21,1.21,0,0,0,.8-.29,1.63,1.63,0,0,0,.5-.87h.58v6h-.58a1.6,1.6,0,0,0-.5-.86,1.16,1.16,0,0,0-.8-.22Z"/></g></g></svg>