<svg width="100" height="100" viewBox="0 0 100 100" fill="none" xmlns="http://www.w3.org/2000/svg">
<circle cx="50" cy="50" r="49" stroke="#9B9B9B" stroke-width="2"/>
<path d="M53.8673 50C53.8673 58.2965 47.1637 65 38.9336 65C30.7035 65 24 58.3628 24 50C24 41.6372 30.7035 35 38.9336 35C47.1637 35 53.8673 41.7035 53.8673 50Z" fill="#9B9B9B"/>
<path d="M70.2611 50.0002C70.2611 57.8321 66.9425 64.1374 62.8275 64.1374C58.7124 64.1374 55.3939 57.8321 55.3939 50.0002C55.3939 42.1683 58.7124 35.863 62.8275 35.863C66.8762 35.863 70.2611 42.2347 70.2611 50.0002Z" fill="#9B9B9B"/>
<path d="M76.8982 50C76.8982 56.969 75.7035 62.677 74.2434 62.677C72.7832 62.677 71.5885 56.969 71.5885 50C71.5885 43.031 72.7832 37.323 74.2434 37.323C75.7699 37.323 76.8982 43.031 76.8982 50Z" fill="#9B9B9B"/>
</svg>
