<svg width="100" height="100" viewBox="0 0 100 100" fill="none" xmlns="http://www.w3.org/2000/svg">
<circle cx="50" cy="50" r="49" stroke="#9B9B9B" stroke-width="2"/>
<path d="M30.5393 49.9774C34.2141 47.945 38.3361 46.2273 42.1663 44.5096C48.781 41.7123 55.3956 38.9383 62.1152 36.3776C63.4276 35.9297 65.7627 35.5051 66 37.4594C65.8698 40.206 65.37 42.9525 65.0026 45.6716C64.1101 51.693 63.0602 57.6889 62.0354 63.6828C61.6931 65.6899 59.2006 66.7209 57.6005 65.4258C53.7682 62.8377 49.9359 60.2496 46.1561 57.6087C44.9235 56.341 46.0763 54.5198 47.1808 53.6198C50.3307 50.5035 53.6632 47.8351 56.6576 44.5603C57.4724 42.606 55.0827 44.2434 54.2952 44.7441C49.9905 47.7294 45.7907 50.8986 41.2235 53.5395C38.9136 54.8325 36.1837 53.7233 33.8739 53.0113C31.7992 52.1662 28.7544 51.2958 30.5393 49.9753V49.9774Z" fill="#9B9B9B"/>
</svg>
