<svg width="172" height="61" viewBox="0 0 172 61" fill="none" xmlns="http://www.w3.org/2000/svg">
<rect x="0.822571" y="0.5" width="169.831" height="60" rx="30" fill="black" fill-opacity="0.5"/>
<rect x="0.822571" y="0.5" width="169.831" height="60" rx="30" stroke="#545454"/>
<path d="M43.8749 31.0408C43.8555 28.8926 45.633 27.848 45.7146 27.7994C44.7078 26.3312 43.1474 26.1306 42.5985 26.1146C41.2882 25.9767 40.0167 26.899 39.3489 26.899C38.668 26.899 37.6394 26.1282 36.5316 26.151C35.1056 26.1729 33.7715 26.9985 33.0396 28.2807C31.5296 30.8946 32.6559 34.7362 34.1027 36.8494C34.8264 37.8839 35.6719 39.0397 36.7788 38.999C37.8618 38.9543 38.2659 38.3083 39.5728 38.3083C40.8676 38.3083 41.2474 38.9989 42.3761 38.9727C43.5383 38.9543 44.2702 37.9334 44.9681 36.8892C45.8045 35.7032 46.1405 34.5347 46.1537 34.4749C46.1265 34.4652 43.8967 33.6148 43.8749 31.0408ZM41.7423 24.7246C42.3251 23.9961 42.7234 23.0053 42.6126 22C41.77 22.0374 40.7156 22.5828 40.1085 23.2953C39.5714 23.9233 39.0915 24.9519 39.2159 25.9194C40.1629 25.9903 41.1347 25.4419 41.7423 24.7246Z" fill="white"/>
<path d="M57.5863 37H54.7386L59.1508 24.2734H62.5433L66.9379 37H64.1078L63.1498 34.0645H58.5443L57.5863 37ZM59.2123 32.0078H62.4818L60.891 27.1387H60.8031L59.2123 32.0078ZM68.3265 40.5859V27.4551H70.8929V29.0547H70.9984C71.3588 28.2812 72.1146 27.332 73.723 27.332C75.8324 27.332 77.599 28.9668 77.5902 32.2363C77.599 35.4268 75.9027 37.1582 73.723 37.1582C72.1674 37.1582 71.3676 36.2617 70.9984 35.4707H70.9281V40.5859H68.3265ZM70.8754 32.2188C70.8666 33.9414 71.6049 35.0752 72.8969 35.084C74.224 35.0752 74.9447 33.9062 74.9359 32.2188C74.9447 30.5576 74.2416 29.4062 72.8969 29.4062C71.5961 29.4062 70.8666 30.5049 70.8754 32.2188ZM79.2777 40.5859V27.4551H81.8441V29.0547H81.9496C82.3099 28.2812 83.0658 27.332 84.6742 27.332C86.7836 27.332 88.5502 28.9668 88.5414 32.2363C88.5502 35.4268 86.8539 37.1582 84.6742 37.1582C83.1185 37.1582 82.3187 36.2617 81.9496 35.4707H81.8793V40.5859H79.2777ZM81.8265 32.2188C81.8177 33.9414 82.556 35.0752 83.848 35.084C85.1752 35.0752 85.8959 33.9062 85.8871 32.2188C85.8959 30.5576 85.1927 29.4062 83.848 29.4062C82.5472 29.4062 81.8177 30.5049 81.8265 32.2188ZM101.338 27.9121C101.233 26.9014 100.433 26.3125 99.141 26.3125C97.8051 26.3125 97.058 26.9277 97.0492 27.7715C97.0404 28.6943 97.9896 29.1074 99.0883 29.3535L100.231 29.6348C102.411 30.1357 104.036 31.2432 104.045 33.3613C104.036 35.6904 102.226 37.1846 99.1234 37.1758C96.0472 37.1846 94.0873 35.7607 94.0082 33.0273H96.5746C96.6625 34.3105 97.682 34.9609 99.0883 34.9609C100.477 34.9609 101.373 34.3105 101.373 33.3613C101.373 32.4912 100.582 32.0869 99.1937 31.7441L97.8051 31.4102C95.6605 30.8828 94.3422 29.8105 94.3422 27.9473C94.3334 25.6357 96.3724 24.0977 99.1586 24.0977C101.98 24.0977 103.834 25.6621 103.87 27.9121H101.338ZM110.743 27.4551V29.4062H108.95V34.0645C108.941 34.8291 109.319 35.0137 109.846 35.0312C110.11 35.0312 110.567 35.0049 110.883 34.9785V37.0352C110.602 37.0791 110.136 37.1318 109.495 37.123C107.614 37.1318 106.33 36.2881 106.348 34.4336V29.4062H105.03V27.4551H106.348V25.1699H108.95V27.4551H110.743ZM116.561 37.1934C113.678 37.1846 111.876 35.207 111.885 32.2539C111.876 29.3096 113.678 27.332 116.561 27.332C119.453 27.332 121.245 29.3096 121.254 32.2539C121.245 35.207 119.453 37.1846 116.561 37.1934ZM114.522 32.2539C114.522 33.9238 115.216 35.1631 116.578 35.1719C117.906 35.1631 118.609 33.9238 118.6 32.2539C118.609 30.5752 117.906 29.3184 116.578 29.3184C115.216 29.3184 114.522 30.5752 114.522 32.2539ZM122.889 37V27.4551H125.403V29.1074H125.508C125.851 27.9385 126.739 27.3145 127.811 27.3145C128.075 27.3145 128.409 27.3496 128.637 27.4023V29.7227C128.391 29.6436 127.89 29.582 127.53 29.582C126.352 29.582 125.482 30.3994 125.491 31.5684V37H122.889ZM133.928 37.1934C131.001 37.1846 129.208 35.2949 129.217 32.2715C129.208 29.3271 131.028 27.332 133.823 27.332C136.328 27.332 138.305 28.9141 138.305 32.166V32.9043H131.784C131.784 34.3457 132.636 35.2334 133.981 35.2422C134.869 35.2334 135.501 34.8467 135.756 34.2754H138.235C137.866 36.042 136.284 37.1846 133.928 37.1934ZM131.784 31.2695H135.844C135.835 30.1094 135.036 29.2744 133.875 29.2832C132.68 29.2744 131.836 30.1709 131.784 31.2695Z" fill="white"/>
</svg>
