<svg width="18" height="18" viewBox="0 0 18 18" fill="none" xmlns="http://www.w3.org/2000/svg">
<path d="M18 9C18 13.9705 13.9705 18 9 18C4.02948 18 0 13.9705 0 9C0 4.02948 4.02948 0 9 0C13.9705 0 18 4.02948 18 9ZM4.32432 8.5581C4.3659 7.29774 4.58424 6.0921 4.95036 4.97736L1.94382 4.97394C1.33416 6.0408 0.95904 7.25886 0.88938 8.5581H4.32432ZM8.56062 4.9743H5.88114C5.4819 6.09264 5.247 7.29594 5.20254 8.5581H8.56044V4.9743H8.56062ZM8.56062 0.88866C7.61454 1.7343 6.81588 2.82708 6.2388 4.08762H8.56062V0.88866ZM2.52576 4.08744H5.283C5.74686 2.97882 6.3846 1.95102 7.11918 1.10016C5.2227 1.52784 3.60018 2.67156 2.52576 4.08744ZM17.1106 8.5581C17.041 7.25868 16.6657 6.0408 16.0562 4.97394L13.0493 4.97736C13.4156 6.0921 13.6339 7.29774 13.6755 8.5581H17.1106ZM9.43938 8.5581H12.7975C12.753 7.29594 12.5179 6.09264 12.1187 4.9743H9.43938V8.5581ZM9.43938 4.08744H11.7614C11.1841 2.8269 10.3855 1.73412 9.43938 0.88848V4.08744ZM10.8806 1.10034C11.6154 1.9512 12.2533 2.979 12.717 4.08744H15.4742C14.4 2.67156 12.7777 1.52784 10.8806 1.10034ZM0.88938 9.4419C0.95904 10.741 1.33416 11.9592 1.94382 13.0257L4.95036 13.0225C4.58424 11.9079 4.3659 10.7021 4.32432 9.44172H0.88938V9.4419ZM8.56062 9.4419H5.20254C5.247 10.7042 5.4819 11.9074 5.88114 13.0257H8.56062V9.4419ZM8.56062 13.9126H6.23862C6.81588 15.1733 7.61436 16.2659 8.56044 17.1113V13.9126H8.56062ZM7.11918 16.8997C6.3846 16.0484 5.74668 15.021 5.283 13.9124H2.52576C3.60018 15.3283 5.2227 16.472 7.11918 16.8997ZM13.6753 9.4419C13.6339 10.7023 13.4156 11.9079 13.0491 13.0226L16.056 13.0259C16.6657 11.9594 17.041 10.7411 17.1104 9.44208H13.6753V9.4419ZM9.43938 13.0257H12.1189C12.5181 11.9074 12.753 10.7042 12.7976 9.4419H9.43938V13.0257ZM9.43938 17.1113C10.3856 16.2659 11.1841 15.1731 11.7614 13.9126H9.43938V17.1113ZM15.4742 13.9126H12.717C12.2533 15.0212 11.6154 16.0486 10.8806 16.8998C12.7777 16.472 14.4 15.3283 15.4742 13.9126Z" fill="white"/>
</svg>
