<svg width="188" height="61" viewBox="0 0 188 61" fill="none" xmlns="http://www.w3.org/2000/svg">
<rect x="1.34644" y="0.5" width="185.476" height="60" rx="30" fill="black" fill-opacity="0.5"/>
<rect x="1.34644" y="0.5" width="185.476" height="60" rx="30" stroke="#545454"/>
<path d="M40.6997 35.9727H39.2896C39.286 36.0406 39.2824 36.1021 39.2824 36.1668C39.2824 36.9028 39.2788 37.6393 39.2824 38.3753C39.2824 38.8313 39.1195 39.1941 38.7178 39.4203C38.0429 39.7976 37.2331 39.2909 37.2159 38.4793C37.2014 37.8401 37.2118 37.1973 37.2118 36.5581V35.9655C36.9884 35.9655 36.7821 35.9546 36.5799 35.9691C35.8624 36.0121 35.3223 35.4556 35.3263 34.7015C35.3295 32.9956 35.3263 31.2896 35.3263 29.5837C35.3263 28.9658 35.3295 28.3519 35.3227 27.7339C35.3227 27.5978 35.3544 27.5476 35.5 27.5476C38.4939 27.5512 41.4878 27.5512 44.4821 27.5476C44.6096 27.5476 44.6558 27.5797 44.6558 27.7163C44.6522 30.0578 44.6522 32.3957 44.6522 34.7372C44.6522 35.4411 44.1229 36.0084 43.4163 35.9691C43.2104 35.9582 43.0046 35.9655 42.7807 35.9655C42.777 36.041 42.7703 36.1057 42.7703 36.1704V38.397C42.7703 38.8602 42.5893 39.2267 42.1731 39.4384C41.5271 39.7686 40.7422 39.3054 40.7101 38.5513C40.6784 37.7686 40.6997 36.9856 40.6961 36.1989C40.6997 36.1233 40.6997 36.0555 40.6997 35.9727ZM44.6535 27.1666H35.3227C35.4078 25.3644 36.2175 24.033 37.7167 23.1138C37.5814 22.8478 37.4539 22.5922 37.3222 22.3334C37.2191 22.1289 37.1164 21.9249 37.006 21.7241C36.9531 21.6259 36.9314 21.5345 37.0381 21.4725C37.1413 21.4142 37.1942 21.4906 37.2408 21.582C37.457 22.0086 37.6773 22.428 37.8977 22.855C37.9189 22.8953 37.9438 22.9351 37.9759 22.9862C39.3186 22.3809 40.6613 22.3773 42.0247 22.9898C42.1315 22.7817 42.2419 22.5781 42.3482 22.3701L42.7535 21.582C42.7997 21.4942 42.8603 21.4069 42.9526 21.4798C42.9987 21.516 43.0163 21.6517 42.9878 21.7096C42.7997 22.1072 42.5938 22.4976 42.3912 22.888C42.3559 22.9572 42.3201 23.0265 42.2776 23.1174C43.3434 23.7417 44.0822 24.6419 44.4581 25.8353C44.5938 26.2619 44.6716 26.7034 44.654 27.1666H44.6535ZM42.5508 24.9084C42.5508 24.6641 42.3835 24.4854 42.16 24.4781C41.9361 24.4745 41.7551 24.6568 41.7515 24.8943C41.7479 25.1422 41.9184 25.339 42.146 25.339C42.3871 25.3426 42.5508 25.164 42.5508 24.9084ZM37.8479 25.339C38.0754 25.3354 38.2424 25.149 38.2424 24.8939C38.2388 24.6568 38.0646 24.4745 37.8407 24.4781C37.6208 24.4781 37.4503 24.6641 37.4466 24.9047C37.443 25.1603 37.6136 25.3426 37.8479 25.339ZM47.3189 30.8015V33.1109C47.3189 33.5552 47.1185 33.8954 46.7281 34.0994C46.0939 34.4323 45.3457 34.0062 45.2416 33.2652C45.2308 33.1824 45.2271 33.1001 45.2271 33.0141V28.574C45.2271 28.1985 45.3239 27.8651 45.6175 27.6145C45.9256 27.3566 46.2735 27.2816 46.6526 27.439C47.029 27.5964 47.2402 27.8936 47.3085 28.2913C47.3226 28.3845 47.3226 28.4813 47.3226 28.5776C47.3226 29.3227 47.3226 30.0637 47.3189 30.8015ZM34.9418 30.7902V33.0503C34.9418 33.5027 34.7699 33.8682 34.3686 34.0908C33.7095 34.4527 32.9002 33.9759 32.8536 33.201C32.8396 32.9748 32.8504 32.7454 32.8504 32.5192V28.4831C32.8504 27.999 33.1151 27.5865 33.5163 27.4286C34.1646 27.1739 34.9056 27.6294 34.9273 28.3288C34.9522 29.1467 34.9346 29.9651 34.9346 30.7866C34.9346 30.7902 34.9382 30.7902 34.9418 30.7902Z" fill="white"/>
<path d="M64.9193 28.3691C64.5589 27.1738 63.6009 26.4443 62.2122 26.4355C60.2435 26.4443 58.9075 27.9473 58.9075 30.6191C58.9075 33.3086 60.1995 34.8291 62.2298 34.8379C64.0491 34.8291 65.1302 33.8008 65.1653 32.2012H62.4056V30.2148H67.7142V31.7969C67.7142 35.1367 65.4202 37.1758 62.2122 37.1758C58.6439 37.1758 56.2181 34.6797 56.2181 30.6543C56.2181 26.5234 58.8021 24.0977 62.1595 24.0977C65.0335 24.0977 67.2396 25.8643 67.5911 28.3691H64.9193ZM73.8841 37.1934C71.0013 37.1846 69.1995 35.207 69.2083 32.2539C69.1995 29.3096 71.0013 27.332 73.8841 27.332C76.7757 27.332 78.5687 29.3096 78.5775 32.2539C78.5687 35.207 76.7757 37.1846 73.8841 37.1934ZM71.845 32.2539C71.845 33.9238 72.5394 35.1631 73.9017 35.1719C75.2288 35.1631 75.9319 33.9238 75.9232 32.2539C75.9319 30.5752 75.2288 29.3184 73.9017 29.3184C72.5394 29.3184 71.845 30.5752 71.845 32.2539ZM84.5013 37.1934C81.6185 37.1846 79.8167 35.207 79.8255 32.2539C79.8167 29.3096 81.6185 27.332 84.5013 27.332C87.3929 27.332 89.1859 29.3096 89.1946 32.2539C89.1859 35.207 87.3929 37.1846 84.5013 37.1934ZM82.4622 32.2539C82.4622 33.9238 83.1566 35.1631 84.5189 35.1719C85.846 35.1631 86.5491 33.9238 86.5403 32.2539C86.5491 30.5752 85.846 29.3184 84.5189 29.3184C83.1566 29.3184 82.4622 30.5752 82.4622 32.2539ZM95.1185 40.7793C92.4818 40.7793 90.8558 39.5928 90.7064 37.791H93.2728C93.4134 38.5557 94.1341 38.8984 95.1712 38.8984C96.3753 38.8984 97.1839 38.3799 97.1927 37.0527V35.3125H97.0696C96.7269 36.0859 95.8831 36.8682 94.345 36.8594C92.1917 36.8682 90.4603 35.3477 90.4603 32.166C90.4603 28.9404 92.2357 27.332 94.345 27.332C95.9446 27.332 96.7181 28.2812 97.0696 29.0547H97.1751V27.4551H99.7591V37.1055C99.7503 39.54 97.8343 40.7793 95.1185 40.7793ZM93.1321 32.2012C93.1234 33.8535 93.8353 34.8994 95.1536 34.9082C96.4544 34.8994 97.1927 33.8975 97.1927 32.2012C97.1927 30.5049 96.4632 29.4062 95.1536 29.4062C93.8265 29.4062 93.1234 30.5576 93.1321 32.2012ZM104.382 24.2734V37H101.781V24.2734H104.382ZM110.728 37.1934C107.801 37.1846 106.008 35.2949 106.017 32.2715C106.008 29.3271 107.827 27.332 110.622 27.332C113.127 27.332 115.105 28.9141 115.105 32.166V32.9043H108.583C108.583 34.3457 109.436 35.2334 110.781 35.2422C111.668 35.2334 112.301 34.8467 112.556 34.2754H115.034C114.665 36.042 113.083 37.1846 110.728 37.1934ZM108.583 31.2695H112.644C112.635 30.1094 111.835 29.2744 110.675 29.2832C109.48 29.2744 108.636 30.1709 108.583 31.2695ZM120.888 40.5859V27.4551H123.454V29.0547H123.56C123.92 28.2812 124.676 27.332 126.284 27.332C128.394 27.332 130.16 28.9668 130.152 32.2363C130.16 35.4268 128.464 37.1582 126.284 37.1582C124.729 37.1582 123.929 36.2617 123.56 35.4707H123.49V40.5859H120.888ZM123.437 32.2188C123.428 33.9414 124.166 35.0752 125.458 35.084C126.785 35.0752 127.506 33.9062 127.497 32.2188C127.506 30.5576 126.803 29.4062 125.458 29.4062C124.158 29.4062 123.428 30.5049 123.437 32.2188ZM134.441 24.2734V37H131.839V24.2734H134.441ZM136.005 34.3281C136.014 32.2012 137.719 31.5068 139.556 31.3926C140.242 31.3486 141.525 31.2871 141.929 31.2695V30.4961C141.92 29.6963 141.375 29.2393 140.4 29.2305C139.512 29.2393 138.958 29.6348 138.818 30.2852H136.339C136.497 28.6328 137.939 27.332 140.47 27.332C142.553 27.332 144.522 28.2637 144.513 30.5664V37H142.052V35.6816H141.982C141.516 36.5605 140.602 37.1846 139.187 37.1758C137.359 37.1846 136.014 36.2178 136.005 34.3281ZM138.501 34.2578C138.501 34.9873 139.09 35.374 139.925 35.3828C141.112 35.374 141.938 34.6006 141.929 33.5898V32.8955C141.534 32.9131 140.417 32.9746 139.978 33.0098C139.073 33.0889 138.501 33.5195 138.501 34.2578ZM147.677 40.5859C147.167 40.5771 146.693 40.5684 146.359 40.5332V38.5117C146.693 38.5381 147.088 38.5469 147.413 38.5469C147.932 38.5469 148.345 38.4941 148.661 37.668L148.82 37.2637L145.392 27.4551H148.117L150.12 34.4863H150.226L152.247 27.4551H155.007L151.281 38.0547C150.736 39.5928 149.69 40.5771 147.677 40.5859Z" fill="white"/>
</svg>
