<svg width="28" height="28" viewBox="0 0 28 28" fill="none" xmlns="http://www.w3.org/2000/svg">
<path d="M20.563 26.3594H17.2817C16.8283 26.3594 16.4614 25.9925 16.4614 25.5391C16.4614 25.0856 16.8283 24.7188 17.2817 24.7188H20.563C21.92 24.7188 23.0239 23.6148 23.0239 22.2578V20.6172C23.0239 20.1638 23.3908 19.7969 23.8442 19.7969C24.2977 19.7969 24.6646 20.1638 24.6646 20.6172V22.2578C24.6646 24.5193 22.8245 26.3594 20.563 26.3594Z" fill="#5B5B5B"/>
<path d="M0.000488281 15.6414C0.000488281 17.8915 0.728105 20.0572 2.95411 20.0572C3.57016 20.0572 4.13251 19.8794 4.46895 19.7111V11.6264C4.12967 11.4569 3.56157 11.2769 2.93994 11.2793C0.720941 11.2881 0.000488281 13.4049 0.000488281 15.6414Z" fill="white"/>
<path fill-rule="evenodd" clip-rule="evenodd" d="M3.28174 10.7188C3.28174 4.83875 8.12049 0 14.0005 0C19.8805 0 24.6646 4.83875 24.6646 10.7188C24.6646 11.1722 24.2977 11.5391 23.8442 11.5391C23.3908 11.5391 23.0239 11.1722 23.0239 10.7188C23.0239 5.74323 18.976 1.64062 14.0005 1.64062C9.02496 1.64062 4.92236 5.74323 4.92236 10.7188C4.92236 11.1722 4.55546 11.5391 4.10205 11.5391C3.64864 11.5391 3.28174 11.1722 3.28174 10.7188Z" fill="#5B5B5B"/>
<path d="M15.6411 23.0781H14.0005C12.6435 23.0781 11.5396 24.182 11.5396 25.5391C11.5396 26.8961 12.6435 28 14.0005 28H15.6411C16.9981 28 18.1021 26.8961 18.1021 25.5391C18.1021 24.182 16.9981 23.0781 15.6411 23.0781Z" fill="white"/>
<path d="M4.10205 21.4375C3.64864 21.4375 3.28174 21.0706 3.28174 20.6172V10.7188C3.28174 10.2653 3.64864 9.89844 4.10205 9.89844C4.55546 9.89844 4.92236 10.2653 4.92236 10.7188V20.6172C4.92236 21.0706 4.55546 21.4375 4.10205 21.4375Z" fill="black"/>
<path d="M23.8442 21.4375C23.3908 21.4375 23.0239 21.0706 23.0239 20.6172V10.7188C23.0239 10.2653 23.3908 9.89844 23.8442 9.89844C24.2977 9.89844 24.6646 10.2653 24.6646 10.7188V20.6172C24.6646 21.0706 24.2977 21.4375 23.8442 21.4375Z" fill="black"/>
<path d="M25.0057 11.2793C24.3838 11.2768 23.8157 11.4564 23.4768 11.6254V19.7102C23.8132 19.8784 24.3757 20.0563 24.9917 20.0563C27.2212 20.0563 28 17.8844 28 15.6405C28 13.4055 27.2267 11.2885 25.0057 11.2793Z" fill="white"/>
<path d="M5.74268 21.4375H4.10205C3.64864 21.4375 3.28174 21.0706 3.28174 20.6172V10.7188C3.28174 10.2653 3.64864 9.89844 4.10205 9.89844H5.74268C6.19609 9.89844 6.56299 10.2653 6.56299 10.7188V20.6172C6.56299 21.0706 6.19609 21.4375 5.74268 21.4375Z" fill="#D3D3D3"/>
<path d="M23.8442 21.4375H22.2036C21.7502 21.4375 21.3833 21.0706 21.3833 20.6172V10.7188C21.3833 10.2653 21.7502 9.89844 22.2036 9.89844H23.8442C24.2977 9.89844 24.6646 10.2653 24.6646 10.7188V20.6172C24.6646 21.0706 24.2977 21.4375 23.8442 21.4375Z" fill="#D3D3D3"/>
</svg>
