<svg id="Capa_1" enable-background="new 0 0 512 512" height="512" viewBox="0 0 512 512" width="512" xmlns="http://www.w3.org/2000/svg"><g><path d="m292.787 510.408v-13.348c0-29.897-24.237-54.134-54.134-54.134-15.418 0-115.011 0-130.141 0-29.897 0-54.134 24.237-54.134 54.134v14.94h232.315z" fill="#2abcc8"/><path d="m250.841 442.925h-18.282c29.897 0 54.134 24.237 54.134 54.134v14.941h18.282v-14.941c0-29.897-24.236-54.134-54.134-54.134z" fill="#0cacba"/><path d="m207.171 353.92h-54.988v63.475l-11.071 12.474v16.859c0 21.281 17.248 38.565 38.565 38.565 21.299 0 38.565-17.266 38.565-38.565v-16.755l-11.071-12.579z" fill="#ffb09e"/><path d="m141.111 353.92v75.95c24.933 11.349 53.439 10.741 77.13.104 0-12.48 0-67.555 0-76.054z" fill="#ffa78f"/><path d="m335.087 427.442h-40.301v84.558h34.207l6.094-2.316z" fill="#ffcebf"/><path d="m337.456 331.179c-4.948 2.303-8.387 7.305-8.387 13.122v99.176h22.866c0-11.992 0-83.282 0-99.176 0-5.817-3.438-10.819-8.386-13.122z" fill="#ffcebf"/><path d="m284.676 317.448 8.363-94.847c1.985-22.509-15.753-41.879-38.349-41.879h-73.162v136.726z" fill="#444"/><path d="m230.865 279.172h45.24c17.393 0 31.493 14.1 31.493 31.493v.194c0 17.393-14.1 31.493-31.493 31.493h-45.24z" fill="#ffa78f"/><path d="m128.488 342.351h-45.24c-17.393 0-31.493-14.1-31.493-31.493v-.194c0-17.393 14.1-31.493 31.493-31.493h45.24z" fill="#ffa78f"/><g><path d="m266.777 327.129v-32.877c0-48.165-37.594-92.494-94.024-92.494-48.077 3.453-86.011 43.538-86.011 92.494v32.877c0 48.881 37.816 88.916 85.786 92.479 56.951 0 94.249-44.605 94.249-92.479z" fill="#ffcebf"/></g><path d="m152.183 355.113c0 15.184 12.309 27.494 27.494 27.494 15.184 0 27.494-12.309 27.494-27.494z" fill="#ffa799"/><g><path d="m225.252 333.636c-4.207 0-7.618-3.411-7.618-7.618v-17.14c0-4.207 3.411-7.618 7.618-7.618s7.618 3.411 7.618 7.618v17.14c0 4.208-3.411 7.618-7.618 7.618z" fill="#5a5a5a"/></g><g><path d="m134.387 333.636c-4.207 0-7.618-3.411-7.618-7.618v-17.14c0-4.207 3.411-7.618 7.618-7.618s7.618 3.411 7.618 7.618v17.14c0 4.208-3.411 7.618-7.618 7.618z" fill="#5a5a5a"/></g><g><path d="m246.295 362.731h-16.921c-4.207 0-7.618-3.411-7.618-7.618s3.411-7.618 7.618-7.618h16.921c4.207 0 7.618 3.411 7.618 7.618s-3.411 7.618-7.618 7.618z" fill="#fe8f83"/></g><path d="m172.697 201.753c48.051 3.48 85.955 43.562 85.955 92.5v32.877c0 47.534-36.323 88.84-86.193 92.485 55.658 4.174 100.412-39.467 100.412-92.485v-32.877c0-53.032-44.704-96.522-100.174-92.5z" fill="#ffb09e"/><g><path d="m134.387 333.636c4.207 0 7.618-3.411 7.618-7.618v-17.14c0-4.207-3.411-7.618-7.618-7.618s-7.618 3.411-7.618 7.618v17.14c0 4.208 3.411 7.618 7.618 7.618z" fill="#5a5a5a"/></g><g><path d="m113.344 362.731h16.921c4.207 0 7.618-3.411 7.618-7.618s-3.411-7.618-7.618-7.618h-16.921c-4.207 0-7.618 3.411-7.618 7.618s3.411 7.618 7.618 7.618z" fill="#fe8f83"/></g><path d="m294.786 427.442h46.396v84.558h-46.396z" fill="#ffcebf"/><path d="m328.993 427.442h12.188v84.558h-12.188z" fill="#ffb09e"/><path d="m343.549 329.821c-2.18 0-4.24.496-6.094 1.358 4.948 2.303 8.386 7.305 8.386 13.122v58.93 40.246h12.188v-99.176c.001-7.997-6.482-14.48-14.48-14.48z" fill="#ffb09e"/><path d="m196.694 152.065c-7.675 0-60.924 0-67.455 0-34.662 0-62.76 28.099-62.76 62.76v64.293h113.114c35.085 0 63.526-28.442 63.526-63.526v-17.102c0-25.64-20.785-46.425-46.425-46.425z" fill="#5a5a5a"/><path d="m210.914 152.065h-24.377c25.64 0 46.425 20.785 46.425 46.425v17.101c0 35.085-28.442 63.526-63.526 63.526h24.377c35.085 0 63.526-28.442 63.526-63.526v-17.101c0-25.64-20.785-46.425-46.425-46.425z" fill="#444"/><path d="m348.048 398.661c-7.88 0-60.064 0-67.802 0-.515 1.38-.894 2.726-.894 4.571v54.302c0 6.731 5.457 12.188 12.188 12.188h48.215c6.728-.004 12.181-5.459 12.181-12.188v-54.985c0-2.148-1.741-3.888-3.888-3.888z" fill="#ffcebf"/><path d="m358.03 457.533v-54.302c0-6.731-5.457-12.188-12.188-12.188h-54.302c-5.114 0-9.485 3.153-11.294 7.618h61.708c2.147 0 3.888 1.741 3.888 3.888v54.985c0 6.73-5.455 12.186-12.185 12.188h12.185c6.65-.001 12.188-5.439 12.188-12.189z" fill="#ffb09e"/><g><path d="m299.28 248.778c.957 16.79 14.614 30.171 31.515 30.698 17.546-.529 31.609-14.908 31.609-32.581v-3.931h-61.178v3.93z" fill="#bfbfbf"/><g><g><path d="m330.894 49.7c-4.208 0-7.618-3.411-7.618-7.618v-34.464c0-4.207 3.41-7.618 7.618-7.618s7.618 3.411 7.618 7.618v34.464c0 4.207-3.41 7.618-7.618 7.618z" fill="#ffd15b"/></g><g><path d="m452.626 130.782h-34.464c-4.208 0-7.618-3.411-7.618-7.618s3.41-7.618 7.618-7.618h34.464c4.208 0 7.618 3.411 7.618 7.618s-3.41 7.618-7.618 7.618z" fill="#ffd15b"/></g><g><path d="m243.626 130.782h-34.465c-4.207 0-7.618-3.411-7.618-7.618s3.411-7.618 7.618-7.618h34.465c4.207 0 7.618 3.411 7.618 7.618s-3.411 7.618-7.618 7.618z" fill="#ffd15b"/></g><g><path d="m263.799 73.029-24.369-24.37c-2.975-2.975-2.975-7.798 0-10.773 2.975-2.974 7.798-2.975 10.773 0l24.37 24.37c2.975 2.975 2.975 7.798 0 10.773-2.976 2.974-7.798 2.975-10.774 0z" fill="#ffd15b"/></g><g><path d="m387.215 73.029c-2.975-2.975-2.975-7.798 0-10.773l24.371-24.37c2.977-2.975 7.799-2.975 10.774 0s2.975 7.798 0 10.773l-24.371 24.37c-2.976 2.974-7.799 2.975-10.774 0z" fill="#ffd15b"/></g></g><path d="m360.263 205.204h-58.737c-5.214 0-9.44 4.226-9.44 9.44 0 5.211 4.224 9.44 9.44 9.44h58.737c5.214 0 9.44-4.226 9.44-9.44 0-5.213-4.227-9.44-9.44-9.44z" fill="#cecece"/><path d="m360.263 224.084h-58.737c-5.214 0-9.44 4.226-9.44 9.44 0 5.211 4.224 9.44 9.44 9.44h58.737c5.214 0 9.44-4.226 9.44-9.44 0-5.211-4.224-9.44-9.44-9.44z" fill="#cecece"/><path d="m323.725 75.037c-43.372 5.073-68.397 53.222-46.495 91.727 11.146 19.597 15.449 30.884 19.808 41.587h59.587c3.688-9.055 8.326-21.126 19.982-41.896 22.606-40.281-5.909-91.418-52.882-91.418z" fill="#fff0ad"/><path d="m323.725 75.037c43.825 4.99 68.223 53.225 46.789 91.418-11.656 20.77-16.294 32.841-19.982 41.896h14.22c3.688-9.055 8.326-21.126 19.982-41.896 24.414-43.504-10.754-97.293-61.009-91.418z" fill="#ffe177"/><g><g><path d="m311.969 209.806-8.326-42.778c-.803-4.13 1.893-8.129 6.023-8.933 4.132-.805 8.13 1.893 8.933 6.022l8.326 42.778c.803 4.13-1.893 8.129-6.023 8.933-4.122.804-8.128-1.886-8.933-6.022z" fill="#ffd15b"/></g><g><path d="m340.886 215.828c-4.129-.804-6.826-4.803-6.023-8.933l8.325-42.778c.804-4.129 4.805-6.826 8.933-6.022 4.129.804 6.826 4.803 6.023 8.933l-8.325 42.778c-.804 4.132-4.806 6.826-8.933 6.022z" fill="#ffd15b"/></g></g><path d="m360.263 205.204h-14.22c5.214 0 9.44 4.226 9.44 9.44 0 5.213-4.226 9.44-9.44 9.44h14.22c5.214 0 9.44-4.226 9.44-9.44 0-5.213-4.227-9.44-9.44-9.44z" fill="#bfbfbf"/><path d="m350.216 230.178c-52.979 0-49.32-.126-50.994.295 0 18.186-.02 16.93.058 18.305 1.634.4-2.038.28 50.858.28-.957 14.595-11.513 26.563-25.419 29.657 19.882 4.427 38.951-10.243 39.687-30.625.042-1.158.03.686.03-16.931z" fill="#acacac"/><path d="m360.263 224.084h-14.22c5.214 0 9.44 4.226 9.44 9.44 0 5.214-4.226 9.44-9.44 9.44h14.22c5.214 0 9.44-4.226 9.44-9.44 0-5.213-4.227-9.44-9.44-9.44z" fill="#bfbfbf"/><g><path d="m355.483 214.644c0-5.212-4.224-9.438-9.436-9.44h-44.521c-5.214 0-9.44 4.226-9.44 9.44 0 5.211 4.224 9.44 9.44 9.44h44.518c5.213 0 9.439-4.226 9.439-9.44z" fill="#cecece"/></g><g><path d="m355.483 233.524c0-5.213-4.226-9.44-9.44-9.44h-44.518c-5.214 0-9.44 4.226-9.44 9.44 0 5.211 4.224 9.44 9.44 9.44h44.521c5.213-.002 9.437-4.228 9.437-9.44z" fill="#cecece"/></g></g></g></svg>