<svg id="Capa_1" enable-background="new 0 0 512 512" height="512" viewBox="0 0 512 512" width="512" xmlns="http://www.w3.org/2000/svg"><g><path d="m305.675 422.889v-105.974c-16.621 0-89.468 0-101.512 0l-1.732 12.127v94.878l-15.36 12.644-7.432 52.026h152.724l-7.432-52.026z" fill="#acacac"/><path d="m187.07 436.564h137.86l-6.453-45.166h-124.954z" fill="#9c9c9c"/><path d="m16.334 368.734v25.1c0 11.082 8.984 20.066 20.066 20.066h428.898c11.082 0 20.066-8.984 20.066-20.066v-25.1c-4.351 0-465.232 0-469.03 0z" fill="#cecece"/><path d="m465.298 80.583c-22.06 0-406.718 0-428.898 0-11.082 0-20.066 8.984-20.066 20.066v268.085h469.03v-268.085c0-11.082-8.984-20.066-20.066-20.066z" fill="#75cdd5"/><path d="m475.6 80.583h-20.604c11.082 0 20.066 8.984 20.066 20.066v268.085h20.604v-268.085c0-11.082-8.984-20.066-20.066-20.066z" fill="#2abcc8"/><path d="m475.062 368.734v25.1c0 11.082-8.984 20.066-20.066 20.066h20.604c11.082 0 20.066-8.984 20.066-20.066v-25.1z" fill="#bfbfbf"/><path d="m53.489 39.74v276.238c0 10.974 8.896 19.87 19.87 19.87h352.919c10.974 0 19.87-8.896 19.87-19.87v-276.238c-12.88 0-371.969 0-392.659 0z" fill="#e5eef9"/><path d="m437.907 39.74v276.238c0 10.974-8.896 19.87-19.87 19.87h20.604c10.974 0 19.87-8.896 19.87-19.87v-276.238z" fill="#d5e3f4"/><path d="m280.261 306.043v-215.525h140.204c4.552 0 8.241 3.69 8.241 8.241v199.042c0 4.552-3.69 8.241-8.241 8.241h-140.204z" fill="#838383"/><path d="m83.294 297.801v-199.042c0-4.552 3.69-8.241 8.241-8.241h188.725v215.525h-188.725c-4.551 0-8.241-3.69-8.241-8.242z" fill="#5a5a5a"/><g><g><path d="m400.332 131.361h-90.518c-4.268 0-7.726-3.459-7.726-7.726s3.459-7.726 7.726-7.726h90.518c4.268 0 7.726 3.459 7.726 7.726 0 4.266-3.458 7.726-7.726 7.726z" fill="#e5eef9"/></g></g><g><g><path d="m400.332 167.236h-90.518c-4.268 0-7.726-3.459-7.726-7.726s3.459-7.726 7.726-7.726h90.518c4.268 0 7.726 3.459 7.726 7.726s-3.458 7.726-7.726 7.726z" fill="#e5eef9"/></g></g><g><g><path d="m400.332 203.113h-90.518c-4.268 0-7.726-3.459-7.726-7.726s3.459-7.726 7.726-7.726h90.518c4.268 0 7.726 3.459 7.726 7.726s-3.458 7.726-7.726 7.726z" fill="#e5eef9"/></g></g><g><g><path d="m400.332 238.988h-90.518c-4.268 0-7.726-3.459-7.726-7.726s3.459-7.726 7.726-7.726h90.518c4.268 0 7.726 3.459 7.726 7.726s-3.458 7.726-7.726 7.726z" fill="#e5eef9"/></g></g><g><g><path d="m400.332 274.864h-90.518c-4.268 0-7.726-3.459-7.726-7.726s3.459-7.726 7.726-7.726h90.518c4.268 0 7.726 3.459 7.726 7.726s-3.458 7.726-7.726 7.726z" fill="#e5eef9"/></g></g><g><path d="m320.576 140.467c-4.268 0-7.726-3.459-7.726-7.726v-18.214c0-4.267 3.459-7.726 7.726-7.726s7.726 3.459 7.726 7.726v18.214c.001 4.267-3.458 7.726-7.726 7.726z" fill="#cecece"/></g><g><path d="m391.501 176.344c-4.268 0-7.726-3.459-7.726-7.726v-18.214c0-4.267 3.459-7.726 7.726-7.726s7.726 3.459 7.726 7.726v18.214c0 4.266-3.458 7.726-7.726 7.726z" fill="#cecece"/></g><g><path d="m361.421 212.219c-4.268 0-7.726-3.459-7.726-7.726v-18.214c0-4.267 3.459-7.726 7.726-7.726s7.726 3.459 7.726 7.726v18.214c0 4.267-3.459 7.726-7.726 7.726z" fill="#cecece"/></g><g><path d="m391.501 248.096c-4.268 0-7.726-3.459-7.726-7.726v-18.214c0-4.267 3.459-7.726 7.726-7.726s7.726 3.459 7.726 7.726v18.214c0 4.266-3.458 7.726-7.726 7.726z" fill="#cecece"/></g><g><path d="m320.576 283.972c-4.268 0-7.726-3.459-7.726-7.726v-18.214c0-4.267 3.459-7.726 7.726-7.726s7.726 3.459 7.726 7.726v18.214c.001 4.267-3.458 7.726-7.726 7.726z" fill="#cecece"/></g><path d="m235.763 271.761h-112.25v-35.669c0-14.82 12.014-26.834 26.834-26.834h58.582c14.82 0 26.834 12.014 26.834 26.834z" fill="#eb5569"/><circle cx="179.638" cy="164.135" fill="#ffcebf" r="45.123"/><path d="m437.907 39.74v276.238c0 10.974-8.896 19.87-19.87 19.87h20.604c10.974 0 19.87-8.896 19.87-19.87v-276.238z" fill="#d5e3f4"/><g fill="#9c9c9c"><path d="m446.375 1.561c1.189.503 2.318 1.118 3.375 1.832-1.057-.714-2.186-1.329-3.375-1.832z"/><path d="m426.279 0c-15.982 0-333.852 0-352.92 0-10.974 0-19.87 8.896-19.87 19.87v39.74h392.659v-39.74c0-10.974-8.896-19.87-19.869-19.87z"/></g><path d="m438.641 0h-20.604c10.974 0 19.87 8.896 19.87 19.87v39.74h20.604v-39.74c0-10.974-8.897-19.87-19.87-19.87z" fill="#838383"/><g><path d="m327.751 37.531h-14.35c-4.268 0-7.726-3.459-7.726-7.726s3.459-7.726 7.726-7.726h14.35c4.268 0 7.726 3.459 7.726 7.726s-3.458 7.726-7.726 7.726z" fill="#cecece"/></g><g><path d="m371.907 37.531h-14.351c-4.268 0-7.726-3.459-7.726-7.726s3.459-7.726 7.726-7.726h14.351c4.268 0 7.726 3.459 7.726 7.726s-3.458 7.726-7.726 7.726z" fill="#cecece"/></g><g><path d="m416.062 37.531h-14.351c-4.268 0-7.726-3.459-7.726-7.726s3.459-7.726 7.726-7.726h14.351c4.268 0 7.726 3.459 7.726 7.726s-3.458 7.726-7.726 7.726z" fill="#cecece"/></g><path d="m339.508 472.983c-7.825 0-171.656 0-179.379 0-10.774 0-19.508 8.734-19.508 19.508 0 10.774 8.734 19.508 19.508 19.508h179.379c10.769 0 19.509-8.729 19.509-19.509 0-10.773-8.734-19.507-19.509-19.507z" fill="#cecece"/><path d="m351.87 472.983h-20.604c10.753 0 19.509 8.713 19.509 19.509 0 10.774-8.734 19.508-19.509 19.508h20.604c10.769 0 19.509-8.729 19.509-19.509 0-10.774-8.734-19.508-19.509-19.508z" fill="#bfbfbf"/></g></svg>