<svg id="Capa_1" enable-background="new 0 0 512 512" height="512" viewBox="0 0 512 512" width="512" xmlns="http://www.w3.org/2000/svg"><g><path d="m44.238 379.154c-1.16-.012-2.278.149-3.345.438 63.925 1.994 162.031 11.34 190.382 48.896v14.489h24.725v-14.489c-31.757-42.067-151.038-48.741-211.762-49.334z" fill="#d5e3f4"/><path d="m467.762 379.154c-6.512.063-13.701.198-21.379.438 5.255 1.419 9.13 6.21 9.13 11.925v51.461h24.724v-51.461c-.001-6.875-5.601-12.43-12.475-12.363z" fill="#d5e3f4"/><g><path d="m40.893 379.592c.428-.116.866-.204 1.31-.276-5.909.922-10.44 6.021-10.44 12.201v51.461h199.512v-14.489c-28.351-37.557-126.457-46.902-190.382-48.897z" fill="#e5eef9"/></g><path d="m256 428.488v14.489h199.512v-51.461c0-5.715-3.875-10.506-9.13-11.925-50.08 1.623-159.989 8.635-190.382 48.897z" fill="#e5eef9"/><g><path d="m247.448 120.634c-51.728 6.051-81.574 63.475-55.453 109.398 13.294 23.373 18.425 36.834 23.624 49.599h71.067c4.399-10.799 9.931-25.196 23.832-49.967 26.961-48.04-7.047-109.03-63.07-109.03z" fill="#fff0ad"/><path d="m247.447 120.634c52.268 5.952 81.367 63.479 55.803 109.031-13.901 24.772-19.433 39.168-23.832 49.967h16.959c4.399-10.799 9.931-25.196 23.832-49.967 29.119-51.886-12.825-116.037-72.762-109.031z" fill="#ffe177"/><g><path d="m268.909 283.455c-4.189-.816-6.924-4.872-6.109-9.06l9.201-47.274c.816-4.187 4.874-6.918 9.06-6.109 4.189.816 6.924 4.872 6.109 9.06l-9.201 47.274c-.814 4.187-4.868 6.922-9.06 6.109z" fill="#ffd15b"/></g><g><path d="m234.03 277.346-9.2-47.274c-.815-4.188 1.92-8.244 6.108-9.06 4.185-.811 8.244 1.921 9.06 6.109l9.2 47.274c.815 4.188-1.92 8.244-6.108 9.06-4.191.812-8.245-1.921-9.06-6.109z" fill="#ffd15b"/></g><path d="m218.293 327.848c1.141 20.024 17.43 35.983 37.587 36.613 20.926-.631 37.699-17.78 37.699-38.859v-4.688h-72.964v4.688z" fill="#bfbfbf"/><path d="m291.025 275.879h-70.054c-6.218 0-11.259 5.041-11.259 11.259 0 6.215 5.038 11.259 11.259 11.259h70.054c6.218 0 11.259-5.041 11.259-11.259-.001-6.218-5.041-11.259-11.259-11.259z" fill="#cecece"/><path d="m291.025 298.397h-70.054c-6.218 0-11.259 5.041-11.259 11.259 0 6.215 5.038 11.259 11.259 11.259h70.054c6.218 0 11.259-5.041 11.259-11.259-.001-6.216-5.039-11.259-11.259-11.259z" fill="#cecece"/><path d="m291.025 275.879h-16.959c6.218 0 11.259 5.041 11.259 11.259 0 6.218-5.041 11.258-11.259 11.258h16.959c6.218 0 11.259-5.041 11.259-11.258-.001-6.218-5.041-11.259-11.259-11.259z" fill="#bfbfbf"/><path d="m279.043 305.665c-63.186 0-58.822-.15-60.819.351 0 21.69-.024 20.191.069 21.832 1.949.477-2.43.334 60.656.334-1.142 17.406-13.731 31.681-30.316 35.371 23.713 5.28 46.455-12.216 47.333-36.525.049-1.381.036.819.036-20.192z" fill="#acacac"/><path d="m291.025 298.397h-16.959c6.218 0 11.259 5.041 11.259 11.258 0 6.218-5.041 11.259-11.259 11.259h16.959c6.218 0 11.259-5.041 11.259-11.259-.001-6.218-5.041-11.258-11.259-11.258z" fill="#bfbfbf"/><g><path d="m285.324 287.138c0-6.217-5.038-11.257-11.254-11.259h-53.099c-6.218 0-11.259 5.041-11.259 11.259 0 6.215 5.038 11.258 11.259 11.258h53.094c6.219.001 11.259-5.04 11.259-11.258z" fill="#cecece"/></g><g><path d="m285.324 309.655c0-6.218-5.041-11.258-11.259-11.258h-53.094c-6.218 0-11.259 5.041-11.259 11.258 0 6.215 5.038 11.259 11.259 11.259h53.099c6.216-.002 11.254-5.042 11.254-11.259z" fill="#cecece"/></g></g><path d="m244.668 479.549h-226.382c-10.099 0-18.286-8.186-18.286-18.285 0-10.099 8.187-18.286 18.286-18.286h237.714v25.239c0 6.259-5.074 11.332-11.332 11.332z" fill="#f07281"/><g><g><path d="m256 89.015c-4.267 0-7.726-3.459-7.726-7.726v-41.112c0-4.268 3.459-7.726 7.726-7.726 4.268 0 7.726 3.459 7.726 7.726v41.112c0 4.267-3.458 7.726-7.726 7.726z" fill="#ffd15b"/></g><g><path d="m401.21 185.734h-41.112c-4.268 0-7.726-3.459-7.726-7.726 0-4.268 3.459-7.726 7.726-7.726h41.112c4.268 0 7.726 3.459 7.726 7.726.001 4.268-3.458 7.726-7.726 7.726z" fill="#ffd15b"/></g><g><path d="m151.901 185.734h-41.111c-4.267 0-7.726-3.459-7.726-7.726 0-4.268 3.459-7.726 7.726-7.726h41.111c4.267 0 7.726 3.459 7.726 7.726.001 4.268-3.458 7.726-7.726 7.726z" fill="#ffd15b"/></g><g><path d="m176.928 117.241-29.07-29.069c-3.018-3.018-3.018-7.909 0-10.928 3.017-3.016 7.909-3.016 10.927 0l29.07 29.069c3.018 3.018 3.018 7.909 0 10.928-3.019 3.018-7.91 3.017-10.927 0z" fill="#ffd15b"/></g><g><path d="m324.145 117.24c-3.017-3.017-3.017-7.908.001-10.927l29.07-29.069c3.017-3.016 7.909-3.017 10.927.001 3.017 3.017 3.017 7.908-.001 10.927l-29.07 29.069c-3.017 3.017-7.908 3.018-10.927-.001z" fill="#ffd15b"/></g></g><path d="m244.668 479.549h-226.382c-10.099 0-18.286-8.186-18.286-18.285 0-10.099 8.187-18.286 18.286-18.286h237.714v25.239c0 6.259-5.074 11.332-11.332 11.332z" fill="#f07281"/><path d="m479.292 442.978c-8.159 0-215.681 0-223.292 0v25.239c0 6.259 5.074 11.332 11.332 11.332h211.96c10.099 0 18.286-8.187 18.286-18.286s-8.187-18.285-18.286-18.285z" fill="#f07281"/><path d="m493.714 442.978h-24.724c10.099 0 18.286 8.187 18.286 18.286 0 10.099-8.187 18.286-18.286 18.286h24.724c10.099 0 18.286-8.187 18.286-18.286 0-10.1-8.187-18.286-18.286-18.286z" fill="#eb5569"/></g></svg>