<svg id="Capa_1" enable-background="new 0 0 512 512" height="512" viewBox="0 0 512 512" width="512" xmlns="http://www.w3.org/2000/svg"><g><g><path d="m87.134 88.747-3.07 3.969h-23.059l-4.052-3.969h-31.618v336.745h81.678v-336.745z" fill="#eb5569"/><path d="m56.953 88.747h30.181v336.745h-30.181z" fill="#f07281"/><path d="m96.711 88.747h20.604v336.745h-20.604z" fill="#e53950"/><path d="m64.629 46.099-18.779 4.562-20.515 38.086h77.557l-20.515-38.086z" fill="#ffcebf"/><path d="m117.315 88.747-20.516-38.086-23.911-6.146c10.021 18.604 21.5 39.914 23.823 44.226z" fill="#ffb09e"/><path d="m80.059 46.358-12.209-22.664-6.826-1.203-15.174 28.17h30.349z" fill="#eb5569"/><path d="m76.199 50.661h20.601l-18.022-33.455c-3.325-6.174-11.581-6.174-14.907 0l-2.847 5.285c3.661 6.795 9.368 17.39 15.175 28.17z" fill="#e53950"/></g><g><path d="m179.129 88.747-3.071 3.969h-23.058l-4.053-3.969h-31.618v336.745h81.679v-336.745z" fill="#ffd15b"/><path d="m148.947 88.747h30.181v336.745h-30.181z" fill="#ffe177"/><path d="m188.706 88.747h20.604v336.745h-20.604z" fill="#ffc344"/><path d="m156.623 46.099-18.778 4.562-20.516 38.086h77.558l-20.516-38.086z" fill="#ffcebf"/><path d="m209.31 88.747-20.516-38.086-23.911-6.146c10.021 18.604 21.5 39.914 23.823 44.226z" fill="#ffb09e"/><path d="m172.054 46.358-12.209-22.664-6.826-1.203-15.174 28.17h30.348z" fill="#ffd15b"/><path d="m168.193 50.661h20.601l-18.021-33.455c-3.325-6.174-11.581-6.174-14.907 0l-2.847 5.285c3.66 6.795 9.368 17.39 15.174 28.17z" fill="#ffc344"/></g><g><path d="m271.091 88.747-3.071 3.969h-23.058l-4.053-3.969h-31.618v336.745h81.679v-336.745z" fill="#9c9c9c"/><path d="m240.909 88.747h30.181v336.745h-30.181z" fill="#acacac"/><path d="m280.668 88.747h20.604v336.745h-20.604z" fill="#838383"/><path d="m248.585 46.099-18.778 4.562-20.516 38.086h77.558l-20.516-38.086z" fill="#ffcebf"/><path d="m301.272 88.747-20.516-38.086-23.911-6.146c10.021 18.604 21.5 39.914 23.823 44.226z" fill="#ffb09e"/><path d="m264.016 46.358-12.209-22.664-6.826-1.203-15.174 28.17h30.348z" fill="#9c9c9c"/><path d="m260.155 50.661h20.601l-18.021-33.455c-3.325-6.174-11.581-6.174-14.907 0l-2.847 5.285c3.66 6.795 9.368 17.39 15.174 28.17z" fill="#838383"/></g><g><path d="m363.067 88.747-3.07 3.969h-23.058l-4.053-3.969h-31.618v336.745h81.678v-336.745z" fill="#2abcc8"/><path d="m332.886 88.747h30.181v336.745h-30.181z" fill="#75cdd5"/><path d="m372.644 88.747h20.604v336.745h-20.604z" fill="#0cacba"/><path d="m340.562 46.099-18.779 4.562-20.515 38.086h77.557l-20.515-38.086z" fill="#ffcebf"/><path d="m393.248 88.747-20.516-38.086-23.911-6.146c10.021 18.604 21.5 39.914 23.823 44.226z" fill="#ffb09e"/><path d="m355.992 46.358-12.209-22.664-6.826-1.203-15.174 28.17h30.349z" fill="#2abcc8"/><path d="m352.132 50.661h20.601l-18.021-33.455c-3.325-6.174-11.581-6.174-14.907 0l-2.847 5.285c3.66 6.795 9.367 17.39 15.174 28.17z" fill="#0cacba"/></g><g><path d="m455.047 88.747-4.546 4.227h-21.563l-4.072-4.227h-31.618v336.745h81.678v-336.745z" fill="#0078c8"/><path d="m424.866 88.747h30.181v336.745h-30.181z" fill="#3c87d0"/><path d="m464.625 88.747h20.604v336.745h-20.604z" fill="#0268b4"/><path d="m432.542 46.099-18.779 4.562-20.515 38.086h77.558l-20.516-38.086z" fill="#ffcebf"/><path d="m485.228 88.747-20.516-38.086-23.911-6.146c10.021 18.604 21.5 39.914 23.823 44.226z" fill="#ffb09e"/><path d="m447.973 46.358-12.209-22.664-6.826-1.203-15.175 28.17h30.349z" fill="#0078c8"/><path d="m444.112 50.661h20.601l-18.021-33.455c-3.325-6.174-11.581-6.174-14.907 0l-2.847 5.285c3.66 6.795 9.367 17.39 15.174 28.17z" fill="#0268b4"/></g><path d="m478.462 150.297c-13.296 0-92.774 0-106.053 0-4.762 0-8.623 3.861-8.623 8.623v15.2c0 20.836-16.891 37.726-37.726 37.726h-138.689c-20.836 0-37.726-16.89-37.726-37.726v-15.2c0-4.763-3.861-8.623-8.623-8.623h-128.087c-7.144 0-12.935 5.792-12.935 12.935v316.791c0 10.715 8.687 19.402 19.402 19.402h452.592c10.715 0 19.402-8.687 19.402-19.402v-316.791c0-7.143-5.791-12.935-12.934-12.935z" fill="#98bce5"/><g><path d="m499.065 150.297h-26.785c7.144 0 12.935 5.791 12.935 12.935v316.791c0 10.715-8.687 19.402-19.402 19.402h26.785c10.715 0 19.402-8.687 19.402-19.402v-316.791c0-7.143-5.791-12.935-12.935-12.935z" fill="#7bacdf"/></g><path d="m429.293 401.336h-346.586c-14.224 0-25.755-11.531-25.755-25.755v-73.306c0-14.224 11.531-25.755 25.755-25.755h346.585c14.224 0 25.755 11.531 25.755 25.755v73.306c0 14.225-11.53 25.755-25.754 25.755z" fill="#d5e3f4"/></g></svg>