<svg id="Capa_1" enable-background="new 0 0 497 497" height="512" viewBox="0 0 497 497" width="512" xmlns="http://www.w3.org/2000/svg"><g><circle cx="333.312" cy="169.989" fill="#ffe177" r="149.086"/><path d="m438.73 64.577-11.91 11.91-198.93 198.93c-58.22-58.23-58.22-152.62 0-210.84 26.23-26.24 59.82-40.65 94.12-43.24 41.83-3.17 84.73 11.25 116.72 43.24z" fill="#ffe177"/><path d="m438.73 64.577-11.91 11.91c-3.31-4.11-6.88-8.09-10.7-11.91-26.23-26.24-59.81-40.65-94.11-43.24 41.83-3.17 84.73 11.25 116.72 43.24z" fill="#f7c952"/><path d="m438.73 275.414c-58.22 58.22-152.62 58.22-210.84 0l210.84-210.84c58.22 58.22 58.22 152.61 0 210.84z" fill="#e4f6f9"/><path d="m438.73 64.574-12.418 11.272c47.802 58.556 44.405 144.961-10.192 199.568-26.233 26.233-59.811 40.64-94.115 43.232 41.829 3.162 84.738-11.245 116.725-43.232 58.22-58.23 58.22-152.62 0-210.84z" fill="#d4f2f6"/><path d="m438.732 64.569-31.639 89.772c-14.735 41.81-47.619 74.694-89.429 89.429l-89.772 31.639 33.431-91.645c14.534-39.842 45.922-71.23 85.764-85.764z" fill="#a2aee6"/><path d="m432.089 83.42 6.644-18.851-16.823 6.137c3.659 4.091 7.05 8.338 10.179 12.714z" fill="#8795de"/><g><circle cx="81.314" cy="78.063" fill="#d88a55" r="46.718"/><path d="m81.314 31.345c-3.899 0-7.684.485-11.305 1.385 20.338 5.056 35.414 23.431 35.414 45.333s-15.075 40.277-35.414 45.333c3.621.9 7.406 1.385 11.305 1.385 25.802 0 46.718-20.917 46.718-46.719s-20.916-46.717-46.718-46.717z" fill="#c57a44"/><circle cx="242.248" cy="78.063" fill="#d88a55" r="46.718"/><path d="m242.248 31.345c-3.899 0-7.684.485-11.305 1.385 20.338 5.056 35.414 23.431 35.414 45.333s-15.075 40.277-35.414 45.333c3.621.9 7.406 1.385 11.305 1.385 25.802 0 46.718-20.917 46.718-46.719s-20.916-46.717-46.718-46.717z" fill="#c57a44"/></g><path d="m141.428 174.76 20.402-6.419 20.305 6.419c28.438 0 53.259 19.277 60.297 46.831l14.453 56.581h-190.208l14.453-56.581c7.039-27.554 31.859-46.831 60.298-46.831z" fill="#d88a55"/><path d="m242.431 221.591c-7.038-27.553-31.859-46.831-60.297-46.831l-9.512-3.007-13.098 3.007c28.438 0 53.259 19.277 60.297 46.831l14.453 56.581h22.61z" fill="#c57a44"/><path d="m497 173.947v284.31c0 9.85-7.98 17.84-17.83 17.84h-461.34c-9.85 0-17.83-7.99-17.83-17.84v-284.31c0-6.04 2.45-11.51 6.41-15.47 1.15-1.15 2.44-2.18 3.83-3.05 3.37-2.12 7.36-3.35 11.64-3.35 12.08 0 21.87 9.79 21.87 21.87v40.85c0 6.09 4.94 11.02 11.03 11.02h387.44c6.09 0 11.03-4.93 11.03-11.02v-40.85c0-12.08 9.79-21.87 21.87-21.87 12.09 0 21.88 9.79 21.88 21.87z" fill="#ffe5c2"/><path d="m32.036 225.817c-6.018 0-10.896-4.878-10.896-10.896v-40.974c0-7.94-4.56-14.69-10.9-18.52 3.499-2.201 7.666-3.443 12.133-3.344 11.976.264 21.377 10.432 21.377 22.411v40.303c0 6.09 4.94 11.02 11.03 11.02z" fill="#fed2a4"/><path d="m475.123 152.073c-4.137 0-8.006 1.149-11.305 3.145 6.336 3.832 10.572 10.787 10.572 18.732v51.869 232.442c0 9.849-7.984 17.833-17.834 17.833h22.61c9.849 0 17.833-7.984 17.833-17.833v-232.441-51.87c.001-12.082-9.794-21.877-21.876-21.877z" fill="#fed2a4"/><g><path d="m136.245 422.027h-86.872c-4.673 0-8.461-3.788-8.461-8.461v-87.62c0-4.673 3.788-8.461 8.461-8.461h95.333l8.346 30.893-8.346 34.29v30.898c0 4.673-3.788 8.461-8.461 8.461z" fill="#fe73c5"/><path d="m122.096 317.485v96.081c0 4.673-3.788 8.461-8.461 8.461h22.61c4.673 0 8.461-3.788 8.461-8.461v-30.898l8.346-34.29-8.346-30.893z" fill="#fe4fb7"/><path d="m248.5 382.668h-103.794v-96.081c0-4.673 3.788-8.461 8.461-8.461h86.872c4.673 0 8.461 3.788 8.461 8.461v30.898l8.384 30.893z" fill="#97da7b"/><path d="m240.039 278.126h-22.61c4.673 0 8.461 3.788 8.461 8.461v96.081h22.61l8.384-34.29-8.384-30.893v-30.898c0-4.673-3.788-8.461-8.461-8.461z" fill="#79cf59"/><path d="m343.833 422.027h-86.872c-4.673 0-8.461-3.788-8.461-8.461v-96.081h103.794l7.704 33.307-7.704 31.876v30.898c0 4.673-3.788 8.461-8.461 8.461z" fill="#a6e7f0"/><path d="m329.684 317.485v96.081c0 4.673-3.788 8.461-8.461 8.461h22.61c4.673 0 8.461-3.788 8.461-8.461v-30.898l7.704-31.876-7.704-33.307z" fill="#6bd9e7"/><path d="m447.627 382.668h-95.333v-96.081c0-4.673 3.788-8.461 8.461-8.461h86.872c4.673 0 8.461 3.788 8.461 8.461v87.62c0 4.673-3.788 8.461-8.461 8.461z" fill="#a2aee6"/><path d="m447.627 278.126h-22.61c4.673 0 8.461 3.788 8.461 8.461v87.62c0 4.673-3.788 8.461-8.461 8.461h22.61c4.673 0 8.461-3.788 8.461-8.461v-87.62c0-4.673-3.788-8.461-8.461-8.461z" fill="#8795de"/></g><path d="m245.11 109.217v16.64c0 27.01-21.9 48.9-48.9 48.9h-68.86c-27 0-48.89-21.89-48.89-48.9v-16.64c0-27 21.89-48.9 48.89-48.9h68.86c27 0 48.9 21.9 48.9 48.9z" fill="#d88a55"/><path d="m196.207 60.32h-22.61c27.006 0 48.898 21.893 48.898 48.898v16.644c0 27.006-21.892 48.898-48.898 48.898h22.61c27.006 0 48.898-21.893 48.898-48.898v-16.644c0-27.005-21.892-48.898-48.898-48.898z" fill="#c57a44"/><g><path d="m169.28 143.037v31.72h-15v-31.72c0-4.15 3.36-7.5 7.5-7.5s7.5 3.35 7.5 7.5z" fill="#c57a44"/></g><g fill="#f9f3f1"><path d="m412.424 323.763c-6.064-2.237-11.723-4.669-13.661-5.515-.8-.72-.812-1.658-.735-2.188.099-.686.613-2.364 3.261-3.162 6.568-1.98 12.769 2.864 12.985 3.036 3.17 2.622 7.869 2.201 10.521-.953 2.665-3.171 2.256-7.902-.915-10.567-.501-.421-12.41-10.243-26.919-5.878-7.46 2.247-12.741 8.146-13.781 15.393-.98 6.827 1.98 13.396 7.726 17.142.332.217.68.406 1.041.567.297.132 7.348 3.271 15.286 6.198 1.535.566 6.502 2.649 5.961 5.68-.418 2.339-3.515 4.863-7.79 4.863-4.752 0-9.313-1.903-12.203-5.091-2.782-3.069-7.525-3.302-10.594-.52s-3.302 7.524-.52 10.594c5.771 6.365 14.269 10.017 23.316 10.017 11.288 0 20.774-7.245 22.557-17.227 1.349-7.556-2.024-17.405-15.536-22.389z"/><path d="m319.945 339.183c-3.472-2.261-8.118-1.278-10.377 2.193l-9.87 15.161-9.988-15.299c-2.267-3.468-6.911-4.441-10.381-2.18-3.468 2.265-4.444 6.912-2.18 10.381l15.053 23.054-.058 23.79c-.01 4.143 3.34 7.509 7.481 7.519h.019c4.134 0 7.49-3.346 7.5-7.481l.058-23.817 14.936-22.944c2.26-3.472 1.279-8.117-2.193-10.377z"/><path d="m106.882 337.839h-28.145c-4.143 0-7.5 3.357-7.5 7.5s3.357 7.5 7.5 7.5h6.515v43.463c0 4.143 3.357 7.5 7.5 7.5s7.5-3.357 7.5-7.5v-43.463h6.63c4.143 0 7.5-3.357 7.5-7.5s-3.358-7.5-7.5-7.5z"/><path d="m196.604 297.416c-18.186 0-32.981 14.795-32.981 32.98s14.796 32.981 32.981 32.981 32.98-14.796 32.98-32.981-14.795-32.98-32.98-32.98zm0 50.962c-9.915 0-17.981-8.066-17.981-17.981 0-9.914 8.066-17.98 17.981-17.98 9.914 0 17.98 8.066 17.98 17.98 0 9.915-8.066 17.981-17.98 17.981z"/></g><circle cx="116.972" cy="124.782" fill="#766e6e" r="7.674"/><circle cx="207.486" cy="124.782" fill="#766e6e" r="7.674"/><g><path d="m173.952 150.533h-24.246c-4.143 0-7.5-3.357-7.5-7.5s3.357-7.5 7.5-7.5h24.246c4.143 0 7.5 3.357 7.5 7.5s-3.357 7.5-7.5 7.5z" fill="#766e6e"/></g></g></svg>