<svg id="Capa_1" enable-background="new 0 0 512 512" height="512" viewBox="0 0 512 512" width="512" xmlns="http://www.w3.org/2000/svg"><g><g><path d="m189.399 249.556c22.917 22.917 1.832 81.157-47.094 130.083s-89.93 53.452-112.847 30.535-19.067-64.598 29.858-113.524 107.166-70.011 130.083-47.094z" fill="#df8a57"/></g><g><path d="m322.601 249.556c-22.917 22.917-1.832 81.157 47.094 130.083s89.93 53.452 112.847 30.535 19.068-64.598-29.858-113.524-107.166-70.011-130.083-47.094z" fill="#df8a57"/></g><g><path d="m407.109 376.696c0 73.737-65.488 118.049-146.271 118.049s-146.271-44.311-146.271-118.049 65.488-148.978 146.271-148.978 146.271 75.24 146.271 148.978z" fill="#eaaa83"/></g><g><path d="m216.33 392.732c0-63.819 49.059-128.753 114.629-145.07-20.82-12.498-44.712-19.945-70.12-19.945-80.783 0-146.271 75.241-146.271 148.978s65.488 118.049 146.271 118.049c7.336 0 14.543-.37 21.589-1.09-39.807-19.308-66.098-54.206-66.098-100.922z" fill="#e4996d"/></g><g><path d="m360.617 218.028h-99.778-99.778l-14.415 33.674c-7.741 18.084-1.188 38.672 15.952 50.097 20.648 13.765 49.63 31.778 77.487 44.622 13.046 6.015 28.463 6.015 41.509 0 27.857-12.844 56.839-30.858 77.487-44.622 17.14-11.426 23.693-32.014 15.952-50.097z" fill="#f6ca56"/></g><g><circle cx="173.818" cy="436.93" fill="#d97c41" r="75.07"/></g><g><circle cx="347.797" cy="436.93" fill="#d97c41" r="75.07"/></g><g><path d="m221.73 488.981c-41.46 0-75.07-33.61-75.07-75.07 0-20.072 7.893-38.289 20.725-51.758-38.446 3.266-68.637 35.485-68.637 74.776 0 41.46 33.61 75.07 75.07 75.07 21.388 0 40.671-8.959 54.345-23.312-2.122.182-4.264.294-6.433.294z" fill="#c76d33"/></g><g><path d="m395.71 488.981c-41.46 0-75.07-33.61-75.07-75.07 0-20.072 7.893-38.289 20.725-51.758-38.446 3.266-68.637 35.486-68.637 74.776 0 41.46 33.61 75.07 75.07 75.07 21.388 0 40.671-8.959 54.345-23.312-2.123.182-4.265.294-6.433.294z" fill="#c76d33"/></g><g><path d="m376.713 409.563c-6.698-4.69-16.532-3.236-26.067 2.824-1.737 1.104-3.959 1.104-5.697 0-9.535-6.06-19.369-7.514-26.067-2.824-10.862 7.606-12.664 23.284.045 41.434 5.952 8.501 14.031 16.034 22.056 20.862 4.186 2.518 9.444 2.518 13.63 0 8.024-4.827 16.104-12.361 22.056-20.862 12.708-18.15 10.906-33.828.044-41.434z" fill="#fff1cf"/></g><g><path d="m326.397 411.249c0-1.481.073-2.946.209-4.391-2.844.242-5.464 1.122-7.725 2.706-10.862 7.606-12.664 23.284.045 41.434 5.952 8.501 14.031 16.034 22.056 20.862 4.186 2.518 9.444 2.518 13.63 0 5.929-3.567 11.886-8.612 16.995-14.431-25.057-.524-45.21-20.997-45.21-46.18z" fill="#fce3a0"/></g><g><path d="m360.552 257.225c5.634 0 11.187.359 16.641 1.041-.523-2.21-1.238-4.406-2.162-6.565l-14.415-33.674h-99.778-99.778l-14.415 33.674c-7.741 18.084-1.188 38.672 15.952 50.097 19.298 12.864 45.874 29.437 72.009 42.036 20.394-50.826 69.098-86.609 125.946-86.609z" fill="#f1b70b"/></g><g><path d="m201.624 409.563c-6.698-4.69-16.532-3.236-26.067 2.824-1.737 1.104-3.959 1.104-5.697 0-9.535-6.06-19.369-7.514-26.067-2.824-10.862 7.606-12.664 23.284.045 41.434 5.952 8.501 14.031 16.034 22.056 20.862 4.186 2.518 9.444 2.518 13.63 0 8.024-4.827 16.104-12.361 22.056-20.862 12.708-18.15 10.906-33.828.044-41.434z" fill="#fff1cf"/></g><g><path d="m151.309 411.249c0-1.481.073-2.946.209-4.391-2.844.242-5.463 1.122-7.725 2.706-10.862 7.606-12.664 23.284.045 41.434 5.952 8.501 14.031 16.034 22.056 20.862 4.186 2.518 9.444 2.518 13.63 0 5.929-3.567 11.886-8.612 16.995-14.431-25.058-.524-45.21-20.997-45.21-46.18z" fill="#fce3a0"/></g><g><path d="m46.381 42.998 83.587 71.861c20.406-9.672 34.523-30.451 34.523-54.534-.001-33.317-27.009-60.325-60.325-60.325-27.292 0-50.339 18.129-57.785 42.998z" fill="#df8a57"/></g><g><path d="m67.001 39.582c-7.218 0-14.148 1.213-20.621 3.416-1.644 5.489-2.538 11.302-2.538 17.326 0 33.316 27.008 60.324 60.324 60.324 9.233 0 17.978-2.082 25.801-5.79.654-3.669 1.014-7.439 1.014-11.296.001-35.335-28.644-63.98-63.98-63.98z" fill="#fce3a0"/></g><g><path d="m388.466 114.858 83.587-71.861c-7.447-24.868-30.494-42.997-57.786-42.997-33.316 0-60.324 27.008-60.324 60.324 0 24.083 14.116 44.862 34.523 54.534z" fill="#df8a57"/></g><g><path d="m451.432 39.582c7.218 0 14.148 1.213 20.621 3.416 1.644 5.489 2.538 11.302 2.538 17.326 0 33.316-27.008 60.324-60.324 60.324-9.233 0-17.978-2.082-25.801-5.79-.654-3.669-1.014-7.439-1.014-11.296-.001-35.335 28.645-63.98 63.98-63.98z" fill="#fce3a0"/></g><g><ellipse cx="260.808" cy="144.296" fill="#eaaa83" rx="170.886" ry="144.296"/></g><g><path d="m185.953 144.094c0-65.49 51.673-120.781 122.467-138.411-15.114-3.696-31.088-5.683-47.612-5.683-94.378 0-170.887 64.604-170.887 144.296s76.508 144.296 170.886 144.296c16.82 0 33.067-2.062 48.419-5.885-71.208-17.409-123.273-72.874-123.273-138.613z" fill="#e4996d"/></g><g><ellipse cx="260.332" cy="193.694" fill="#fff1cf" rx="84.53" ry="60.081"/></g><g><path d="m245.992 193.694c0-24.279 20.274-45.179 49.435-54.655-10.693-3.474-22.57-5.426-35.095-5.426-46.685 0-84.53 26.899-84.53 60.081s37.846 60.081 84.53 60.081c12.525 0 24.403-1.952 35.095-5.426-29.161-9.476-49.435-30.376-49.435-54.655z" fill="#fce3a0"/></g><g><ellipse cx="260.332" cy="146.512" fill="#af602d" rx="30.801" ry="23.201"/></g><g><g><g><path d="m201.251 134.136c-4.143 0-7.5-3.358-7.5-7.5v-11.444c0-4.142 3.357-7.5 7.5-7.5s7.5 3.358 7.5 7.5v11.444c0 4.142-3.357 7.5-7.5 7.5z" fill="#495560"/></g><g><path d="m321.394 134.136c-4.143 0-7.5-3.358-7.5-7.5v-11.444c0-4.142 3.357-7.5 7.5-7.5s7.5 3.358 7.5 7.5v11.444c0 4.142-3.357 7.5-7.5 7.5z" fill="#495560"/></g></g><g><path d="m260.807 219.242c-8.187 0-15.971-3.545-21.355-9.726-2.722-3.123-2.396-7.86.728-10.582 3.122-2.721 7.86-2.395 10.581.728 2.536 2.91 6.198 4.58 10.047 4.58s7.511-1.669 10.047-4.58c2.721-3.125 7.459-3.449 10.581-.728 3.123 2.721 3.449 7.458.728 10.582-5.386 6.181-13.17 9.726-21.357 9.726z" fill="#495560"/></g></g></g></svg>