<svg id="Capa_1" enable-background="new 0 0 512 512" height="512" viewBox="0 0 512 512" width="512" xmlns="http://www.w3.org/2000/svg"><g><path d="m501.698 7.738h-251.517c-5.69 0-10.302 4.612-10.302 10.302v47.256c16.725 9.262 28.077 27.089 28.077 47.523v50.107l.71.215c10.103 3.055 17.159 12.564 17.159 23.126v10.16c0 13.322-10.838 24.16-24.16 24.16h-18.319v15.888c0 6.427-1.239 12.566-3.468 18.21v62.153l66.267 21.33c20.954 6.745 35.033 26.067 35.033 48.08v1.654h28.082l18.026-18.026c3.17-3.17 7.385-4.916 11.868-4.916 4.482 0 8.697 1.746 11.867 4.916s4.916 7.384 4.916 11.867-1.746 8.697-4.916 11.867l-11.347 11.347h102.024c5.69 0 10.302-4.612 10.302-10.302v-376.615c0-5.69-4.612-10.302-10.302-10.302z" fill="#fef0ae"/><g><path d="m501.698 7.738h-34.511c5.69 0 10.302 4.612 10.302 10.302v376.616c0 5.689-4.612 10.302-10.302 10.302h34.511c5.69 0 10.302-4.612 10.302-10.302v-376.616c0-5.69-4.612-10.302-10.302-10.302z" fill="#fee97d"/></g><g><path d="m216.628 88.499v47.999h7.115c10.793 0 19.573 8.781 19.573 19.573v6.065h18.349c2.54 0 4.989.397 7.291 1.128v-50.447c0-30.536-24.754-55.29-55.29-55.29h-9.313c7.605 8.112 12.275 19.004 12.275 30.972z" fill="#a44f3e"/></g><g><g><path d="m442.358 226.414h-132.837c-4.142 0-7.5-3.358-7.5-7.5s3.358-7.5 7.5-7.5h132.836c4.142 0 7.5 3.358 7.5 7.5s-3.357 7.5-7.499 7.5z" fill="#ffc344"/></g><g><path d="m442.358 258.692h-132.837c-4.142 0-7.5-3.358-7.5-7.5s3.358-7.5 7.5-7.5h132.836c4.142 0 7.5 3.358 7.5 7.5s-3.357 7.5-7.499 7.5z" fill="#ffc344"/></g><g><path d="m442.358 290.972h-132.837c-4.142 0-7.5-3.358-7.5-7.5s3.358-7.5 7.5-7.5h132.836c4.142 0 7.5 3.358 7.5 7.5s-3.357 7.5-7.499 7.5z" fill="#ffc344"/></g><g><path d="m402.286 323.25h-92.764c-4.142 0-7.5-3.358-7.5-7.5s3.358-7.5 7.5-7.5h92.764c4.142 0 7.5 3.358 7.5 7.5s-3.358 7.5-7.5 7.5z" fill="#ffc344"/></g></g><g><g><g><g><g><g><g fill="#596c76"><path d="m115.344 311.91h-1l-78.618 25.306c-21.291 6.854-35.726 26.665-35.726 49.032v107.712c0 5.69 4.612 10.302 10.302 10.302h105.042z"/><path d="m306.453 337.216-78.618-25.306h-1v192.352h72.08v-77.926c0-21.193 17.242-38.435 38.434-38.435h4.83v-1.654c0-22.366-14.435-42.177-35.726-49.031z"/></g><g><path d="m307.509 400.572c7.231-8.367 17.913-13.67 29.84-13.67h4.83v-.654c0-22.367-14.435-42.178-35.726-49.031l-13.504-4.347c9.119 9.397 14.56 22.152 14.56 35.877z" fill="#465a61"/></g><g><g><path d="m115.374 309.287-43.939 59.231c-1.606 2.165-1.271 5.202.767 6.965l43.172 37.337z" fill="#8d9ca8"/></g><g><path d="m270.799 368.526-43.994-60.349v104.643l43.201-37.363c2.026-1.753 2.371-4.766.793-6.931z" fill="#8d9ca8"/></g></g><g><g><path d="m115.374 389.142-43.839 37.915c-1.743 1.508-2.273 3.991-1.296 6.078l33.272 71.127h11.864v-115.12z" fill="#7a8c98"/></g><g><path d="m270.611 427.028-43.806-37.886v115.12h10.879l34.2-71.105c1.007-2.096.486-4.607-1.273-6.129z" fill="#7a8c98"/></g></g><path d="m174.589 341.44c-1.05-.665-2.26-1.017-3.499-1.017-1.241 0-2.451.352-3.5 1.017l-53.246 33.799v129.022h28.277l1.068-.519 14.25-121.173 9.355 10.33c.984 1.085 2.332 1.683 3.795 1.683 1.464 0 2.812-.598 3.795-1.683l9.355-10.33 14.247 121.149 1.071.543h28.277v-129.021z" fill="#dff6fd"/><path d="m193.318 372.593 13.041 8.278c2.89 1.834 4.641 5.02 4.641 8.443v114.949h16.835v-127.25l-24.458-15.526z" fill="#c8effe"/><g><g><path d="m174.143 392.228c-.791.873-1.875 1.354-3.054 1.354s-2.263-.481-3.054-1.354l-10.833-11.96-14.581 123.994h56.937l-14.581-123.994z" fill="#0593fc"/></g></g><g><path d="m171.09 339.772-32.99 20.941 29.171 32.207c2.045 2.257 5.591 2.257 7.635 0l29.171-32.207z" fill="#26a6fe"/></g><g><path d="m80.513 162.137h18.349v-6.065c0-10.793 8.781-19.573 19.573-19.573h99.223v-47.999c0-25.603-20.755-46.358-46.358-46.358h-51.72c-25.603 0-46.358 20.755-46.358 46.358v74.766c2.302-.731 4.75-1.129 7.291-1.129z" fill="#bb5d4c"/></g><g><path d="m222.684 299.001-23.435-13.53c-.783.04-1.571.061-2.364.061h-51.592c-.793 0-1.581-.02-2.364-.061l-23.434 13.53c-3.187 1.84-5.151 5.241-5.151 8.922v69.091l56.745-36.02 56.746 36.021v-69.091c0-3.682-1.963-7.083-5.151-8.923z" fill="#f2fbff"/></g><g><path d="m222.684 299.001-23.435-13.53c-.783.04-1.571.061-2.364.061h-14.366l23.33 13.469c3.187 1.84 5.151 5.241 5.151 8.922v58.404l16.835 10.687v-69.091c0-3.681-1.963-7.082-5.151-8.922z" fill="#dff6fd"/></g><g><path d="m193.614 286.178h-45.049c-3.765 0-7.429-.435-10.956-1.232v17.977c0 1.563.71 3.041 1.929 4.019l28.33 22.709c1.883 1.509 4.561 1.509 6.443 0l28.33-22.709c1.22-.978 1.929-2.456 1.929-4.019v-17.977c-3.528.797-7.191 1.232-10.956 1.232z" fill="#f89580"/></g><g fill="#f89580"><path d="m261.666 161.107h-18.319v60.48h18.319c13.896 0 25.16-11.265 25.16-25.16v-10.16c0-13.895-11.264-25.16-25.16-25.16z"/><path d="m98.832 161.107h-18.319c-13.896 0-25.16 11.265-25.16 25.16v10.16c0 13.896 11.265 25.16 25.16 25.16h18.319z"/></g><g><path d="m223.744 135.469h-105.309c-11.379 0-20.604 9.225-20.604 20.604v80.403c0 28.019 22.714 50.733 50.733 50.733h45.049c28.019 0 50.733-22.714 50.733-50.733v-80.403c.001-11.38-9.223-20.604-20.602-20.604z" fill="#ffcebf"/></g><g><path d="m223.744 135.469h-26.234c11.379 0 20.604 9.225 20.604 20.604v80.403c0 28.019-22.714 50.733-50.733 50.733h26.234c28.019 0 50.733-22.714 50.733-50.733v-80.403c-.001-11.38-9.225-20.604-20.604-20.604z" fill="#ffb09e"/></g><g><g><path d="m138.848 190.849c-4.142 0-7.5-3.358-7.5-7.5v-14.837c0-4.142 3.358-7.5 7.5-7.5s7.5 3.358 7.5 7.5v14.837c0 4.142-3.358 7.5-7.5 7.5z" fill="#f89580"/></g><g><path d="m203.331 190.849c-4.142 0-7.5-3.358-7.5-7.5v-14.837c0-4.142 3.358-7.5 7.5-7.5s7.5 3.358 7.5 7.5v14.837c0 4.142-3.358 7.5-7.5 7.5z" fill="#f89580"/></g></g></g></g></g><g><path d="m171.089 220.01c-9.469 0-17.172-7.704-17.172-17.173s7.704-17.172 17.172-17.172c4.142 0 7.5 3.358 7.5 7.5s-3.358 7.5-7.5 7.5c-1.198 0-2.172.975-2.172 2.172 0 1.198.975 2.173 2.172 2.173 4.142 0 7.5 3.358 7.5 7.5s-3.358 7.5-7.5 7.5z" fill="#f89580"/></g></g></g></g><g><path d="m170.411 262.045c-7.878 0-16.011-3.358-21.927-9.092-5.217-5.056-8.08-11.298-8.063-17.577.011-4.135 3.367-7.479 7.5-7.479h.021c4.142.011 7.491 3.378 7.479 7.521-.006 2.136 1.271 4.602 3.502 6.765 3.235 3.135 7.809 5 11.911 4.855.17-.006.34-.006.51 0 4.104.147 8.675-1.721 11.91-4.856 2.231-2.163 3.508-4.628 3.502-6.765-.011-4.142 3.338-7.509 7.48-7.52h.021c4.133 0 7.488 3.345 7.5 7.48.017 6.278-2.847 12.521-8.063 17.577-6.086 5.898-14.538 9.299-22.604 9.083-.226.005-.453.008-.679.008z" fill="#f89580"/></g><g><g><ellipse cx="375.94" cy="120.854" fill="#00f2a6" rx="64.859" ry="64.859" transform="matrix(.338 -.941 .941 .338 135.029 433.741)"/></g><g><path d="m375.939 55.995c-5.971 0-11.747.823-17.238 2.334 27.449 7.552 47.62 32.675 47.62 62.524s-20.171 54.972-47.62 62.524c5.491 1.511 11.267 2.334 17.238 2.334 35.821 0 64.859-29.038 64.859-64.859s-29.038-64.857-64.859-64.857z" fill="#0ed290"/></g><g><path d="m370.535 147.091c-1.989 0-3.897-.79-5.303-2.197l-22.34-22.34c-2.929-2.929-2.929-7.678 0-10.606 2.929-2.929 7.678-2.929 10.606 0l17.037 17.037 27.847-27.847c2.929-2.929 7.678-2.929 10.606 0 2.929 2.929 2.929 7.678 0 10.606l-33.15 33.15c-1.406 1.407-3.314 2.197-5.303 2.197z" fill="#fff"/></g></g><path d="m302.728 425.881-4.814 1v77.38h70.948c5.69 0 10.302-4.612 10.302-10.302v-68.079h-76.436z" fill="#7a8c98"/><g><path d="m352.837 426.882v67.079c0 5.689-4.612 10.302-10.302 10.302h26.327c5.69 0 10.302-4.612 10.302-10.302v-67.079z" fill="#596c76"/></g><g><path d="m411.728 369.169c-6.945-6.945-18.204-6.945-25.149 0l-17.733 17.733h-31.497c-21.779 0-39.435 17.655-39.435 39.434v.545h81.249l32.564-32.564c6.946-6.944 6.946-18.204.001-25.148z" fill="#ffcebf"/></g><g><path d="m411.728 369.169c-6.945-6.945-18.204-6.945-25.149 0l-.438.438c6.528 6.972 6.408 17.907-.396 24.71l-32.564 32.564h25.983l32.564-32.564c6.945-6.944 6.945-18.204 0-25.148z" fill="#ffb09e"/></g><g><path d="m442.358 323.25h-15.348c-4.142 0-7.5-3.358-7.5-7.5s3.358-7.5 7.5-7.5h15.348c4.142 0 7.5 3.358 7.5 7.5s-3.358 7.5-7.5 7.5z" fill="#ffc344"/></g></g></svg>