<?xml version="1.0" encoding="UTF-8"?>
<svg id="Layer_2" data-name="Layer 2" xmlns="http://www.w3.org/2000/svg" viewBox="0 0 95.36 20.61">
  <defs>
    <style>
      .cls-1 {
        fill: #b19657;
      }
    </style>
  </defs>
  <g id="Layer_1-2" data-name="Layer 1">
    <g>
      <g>
        <path class="cls-1" d="M25.36,9.02h-8.42v4.53h8.42v-4.53ZM23.67,12.16h-5.06v-1.78h5.06v1.78Z"/>
        <path class="cls-1" d="M25.4,2.86v-.99h-8.42v1.39h6.73c0,.86-.04,1.82-.31,3.06h-7.78v1.4h11.1v-1.4h-1.6c.28-1.41.28-2.49.28-3.45Z"/>
        <polygon class="cls-1" points="36.64 1.31 34.93 1.31 34.93 13.68 36.64 13.68 36.64 7.55 38.42 7.55 38.42 6.08 36.64 6.08 36.64 1.31"/>
        <path class="cls-1" d="M31.53,4.11v-1.85h-1.71v1.85c0,2.3-.97,4.66-3.03,5.63l1.05,1.4c1.37-.69,2.31-2,2.84-3.6.51,1.5,1.38,2.72,2.68,3.37l1.03-1.39c-1.95-.95-2.88-3.19-2.87-5.41Z"/>
        <polygon class="cls-1" points="48.14 5.63 49.78 5.63 49.78 4.21 48.14 4.21 48.14 1.32 46.43 1.32 46.43 8.73 48.14 8.73 48.14 5.63"/>
        <path class="cls-1" d="M42.86,4.44h-3.91v3.81h1.03c2.45,0,4.01-.07,5.76-.39l-.19-1.39c-1.54.27-2.9.35-4.9.37v-1.09h3.87v-3.68h-5.57v1.36h3.92v1.02Z"/>
        <path class="cls-1" d="M44.14,8.98c-2.57,0-4.16.9-4.16,2.38s1.59,2.31,4.16,2.31,4.12-.84,4.12-2.31-1.6-2.38-4.12-2.38ZM44.14,12.38c-1.61,0-2.49-.35-2.48-1.02-.01-.69.87-1.03,2.48-1.03s2.44.34,2.44,1.03-.84,1.02-2.44,1.02Z"/>
        <g>
          <path class="cls-1" d="M59.65,9.05h-8.33v4.45h8.33v-4.45ZM58.19,12.27h-5.41v-2.04h5.41v2.04Z"/>
          <path class="cls-1" d="M59.67,2.9v-.95h-8.3v1.21h6.82c0,.9-.03,1.91-.31,3.24h-7.88v1.22h11.01v-1.22h-1.64c.29-1.45.29-2.54.29-3.49Z"/>
          <polygon class="cls-1" points="70.06 6.15 67.52 6.15 67.52 7.39 70.06 7.39 70.06 13.64 71.54 13.64 71.54 1.35 70.06 1.35 70.06 6.15"/>
          <path class="cls-1" d="M61.37,10.24l.77,1.18c4.14-2.09,5.41-5.14,5.42-8.77h-5.64v1.2h4.14c-.25,2.75-1.59,4.83-4.7,6.39Z"/>
          <path class="cls-1" d="M74.69,9.58v-2.39h3.12V2.6h-4.56v1.22h3.13v2.13h-3.12v4.88h.83c1.49,0,2.81-.05,4.44-.33l-.11-1.22c-1.34.22-2.51.27-3.73.29Z"/>
          <polygon class="cls-1" points="83.27 13.64 83.27 1.35 81.86 1.35 81.86 6.07 80.5 6.07 80.5 1.58 79.14 1.58 79.14 13.01 80.5 13.01 80.5 7.29 81.86 7.29 81.86 13.64 83.27 13.64"/>
          <path class="cls-1" d="M89.79,5.16c.8,1.61,2.47,2.8,4.5,3.19l.64-1.25c-2.53-.41-4.36-2.24-4.36-4.11v-.9h-1.57v.9c-.01,1.85-1.81,3.7-4.33,4.11l.64,1.25c2.03-.38,3.68-1.59,4.48-3.19Z"/>
          <polygon class="cls-1" points="90.54 10.89 90.54 8.05 89.07 8.05 89.07 10.89 84.35 10.89 84.35 12.12 95.36 12.12 95.36 10.89 90.54 10.89"/>
        </g>
        <g>
          <path class="cls-1" d="M19.3,17.99h.77c0,.21-.05.39-.14.55-.09.16-.22.28-.39.37-.17.09-.36.13-.57.13-.25,0-.48-.06-.67-.17-.2-.11-.35-.26-.46-.46-.11-.2-.17-.42-.17-.67s.06-.48.17-.68c.11-.2.27-.35.46-.46.2-.11.42-.17.67-.17.13,0,.26.02.38.06.13.04.24.1.35.18.11.08.19.17.26.27l.21-.16c-.08-.12-.18-.22-.31-.31-.13-.09-.27-.16-.43-.21-.15-.05-.31-.08-.46-.08-.31,0-.58.07-.82.2s-.43.32-.56.55c-.14.23-.2.5-.2.81s.07.57.2.8c.13.23.32.42.56.55s.51.2.82.2c.27,0,.51-.06.71-.17.21-.11.37-.26.48-.46.12-.2.17-.42.17-.67v-.25h-1.04v.25Z"/>
          <path class="cls-1" d="M23.37,18.19c0,.17-.04.32-.11.45-.07.13-.18.23-.31.31-.13.07-.28.11-.46.11s-.32-.04-.45-.11c-.13-.07-.24-.18-.31-.31-.07-.13-.11-.28-.11-.45v-1.95h-.28v1.95c0,.22.05.41.15.58s.23.3.41.4c.17.1.37.14.59.14s.43-.05.6-.14c.18-.1.31-.23.41-.4.1-.17.15-.36.15-.58v-1.95h-.28v1.95Z"/>
          <polygon class="cls-1" points="24.92 19.23 26.68 19.23 26.68 18.99 25.2 18.99 25.2 17.81 26.57 17.81 26.57 17.56 25.2 17.56 25.2 16.49 26.68 16.49 26.68 16.24 24.92 16.24 24.92 19.23"/>
          <polygon class="cls-1" points="29.35 17.86 28.23 16.24 27.95 16.24 27.95 19.23 28.23 19.23 28.23 16.7 29.34 18.33 30.47 16.69 30.47 19.23 30.75 19.23 30.75 16.24 30.47 16.24 29.35 17.86"/>
          <path class="cls-1" d="M33.12,17.61l-.31-.07c-.16-.04-.29-.1-.39-.18s-.15-.2-.15-.35c0-.17.06-.31.19-.41.13-.1.3-.15.51-.15.2,0,.38.04.52.13.14.09.25.21.31.37l.26-.1c-.03-.1-.09-.2-.18-.3-.09-.1-.21-.18-.35-.25-.15-.07-.32-.1-.52-.1-.33,0-.59.07-.76.22s-.26.36-.26.63c0,.15.04.27.11.37s.16.18.28.25c.12.06.24.11.37.15l.31.08c.22.05.4.13.53.22.14.1.21.22.21.38s-.07.3-.22.4c-.15.1-.36.15-.62.15-.21,0-.39-.05-.53-.15s-.24-.22-.29-.35l-.26.1c.03.09.08.17.14.24.06.08.14.15.23.21.09.06.2.11.33.15s.28.05.45.05c.24,0,.43-.04.59-.12.16-.08.28-.18.35-.31.08-.13.12-.27.12-.42,0-.18-.08-.34-.25-.5-.16-.16-.4-.27-.71-.34Z"/>
          <path class="cls-1" d="M36.05,16.24l-1.26,3h.3l.39-.93h1.44l.39.93h.3l-1.26-3h-.29ZM36.81,18.06h-1.23l.61-1.47.61,1.47Z"/>
          <path class="cls-1" d="M39.92,17.9c.16-.08.28-.18.37-.31.09-.13.14-.29.14-.46s-.04-.33-.12-.46c-.08-.13-.2-.24-.35-.31-.15-.08-.32-.11-.51-.11h-.94v3h.28v-1.22h.6s.09-.02.13-.03h-.02s.74,1.25.74,1.25h.31l-.78-1.31s.1-.01.14-.03ZM39.53,17.76h-.73v-1.27h.66c.21,0,.38.06.51.18.13.12.2.27.2.46,0,.12-.03.23-.09.33-.06.1-.13.17-.23.22-.09.05-.2.08-.32.08Z"/>
          <path class="cls-1" d="M42.51,16.24l-1.26,3h.3l.39-.93h1.44l.39.93h.3l-1.26-3h-.29ZM43.27,18.06h-1.23l.61-1.47.61,1.47Z"/>
          <polygon class="cls-1" points="47.21 18.79 45.26 16.24 44.98 16.24 44.98 19.23 45.26 19.23 45.26 16.67 47.21 19.23 47.48 19.23 47.48 16.24 47.21 16.24 47.21 18.79"/>
          <path class="cls-1" d="M50.49,17.99h.77c0,.21-.05.39-.14.55-.09.16-.22.28-.39.37-.17.09-.36.13-.57.13-.25,0-.48-.06-.67-.17-.2-.11-.35-.26-.46-.46-.11-.2-.17-.42-.17-.67s.06-.48.17-.68c.11-.2.27-.35.46-.46.2-.11.42-.17.67-.17.13,0,.26.02.38.06.13.04.24.1.35.18.11.08.19.17.26.27l.21-.16c-.08-.12-.18-.22-.31-.31-.13-.09-.27-.16-.43-.21-.15-.05-.31-.08-.46-.08-.31,0-.58.07-.82.2s-.43.32-.56.55c-.14.23-.2.5-.2.81s.07.57.2.8c.13.23.32.42.56.55s.51.2.82.2c.27,0,.51-.06.71-.17.21-.11.37-.26.48-.46.12-.2.17-.42.17-.67v-.25h-1.04v.25Z"/>
          <path class="cls-1" d="M55.81,17.99h.77c0,.21-.05.39-.14.55-.09.16-.22.28-.39.37-.17.09-.36.13-.57.13-.25,0-.48-.06-.67-.17-.2-.11-.35-.26-.46-.46-.11-.2-.17-.42-.17-.67s.06-.48.17-.68c.11-.2.27-.35.46-.46.2-.11.42-.17.67-.17.13,0,.26.02.38.06.13.04.24.1.35.18.11.08.19.17.26.27l.21-.16c-.08-.12-.18-.22-.31-.31-.13-.09-.27-.16-.43-.21-.15-.05-.31-.08-.46-.08-.31,0-.58.07-.82.2s-.43.32-.56.55c-.14.23-.2.5-.2.81s.07.57.2.8c.13.23.32.42.56.55s.51.2.82.2c.27,0,.51-.06.71-.17.21-.11.37-.26.48-.46.12-.2.17-.42.17-.67v-.25h-1.04v.25Z"/>
          <path class="cls-1" d="M59.91,16.39c-.22-.13-.48-.2-.76-.2s-.54.07-.76.2c-.22.13-.39.31-.52.55s-.19.5-.19.81.06.57.19.8c.13.23.3.42.52.55s.48.2.77.2.54-.07.76-.2.39-.31.51-.55c.12-.23.19-.5.19-.8s-.06-.57-.19-.8c-.12-.23-.3-.42-.52-.55ZM60.18,18.41c-.1.2-.24.35-.42.46-.18.11-.38.17-.61.17s-.44-.06-.62-.17c-.18-.11-.32-.26-.43-.46-.1-.2-.15-.42-.15-.67s.05-.48.15-.67c.1-.2.24-.35.42-.46.18-.11.38-.17.61-.17s.44.06.62.17c.18.11.32.26.42.46.1.2.15.42.15.67s-.05.48-.15.67Z"/>
          <polygon class="cls-1" points="61.98 16.24 61.7 16.24 61.7 19.23 63.46 19.23 63.46 18.99 61.98 18.99 61.98 16.24"/>
          <path class="cls-1" d="M66.03,16.43c-.21-.13-.46-.19-.73-.19h-.91v3h.91c.28,0,.52-.06.73-.19.21-.13.38-.31.5-.53.12-.22.18-.48.18-.77s-.06-.55-.18-.78c-.12-.23-.29-.4-.5-.53ZM66.34,18.22c-.06.15-.14.28-.24.4-.11.12-.23.21-.36.27-.14.06-.28.1-.44.1h-.63v-2.5h.63c.16,0,.3.03.44.1.14.06.26.15.36.27.1.12.19.25.24.4.06.15.09.31.09.48s-.03.33-.09.48Z"/>
          <polygon class="cls-1" points="69.33 19.23 71.09 19.23 71.09 18.99 69.61 18.99 69.61 17.81 70.98 17.81 70.98 17.56 69.61 17.56 69.61 16.49 71.09 16.49 71.09 16.24 69.33 16.24 69.33 19.23"/>
          <polygon class="cls-1" points="74.12 16.24 73.21 17.5 72.3 16.24 71.96 16.24 73.05 17.72 71.96 19.23 72.3 19.23 73.21 17.94 74.11 19.23 74.45 19.23 73.36 17.72 74.45 16.24 74.12 16.24"/>
          <path class="cls-1" d="M77.41,18.72c-.11.1-.23.18-.36.24-.13.06-.27.09-.41.09-.23,0-.44-.06-.62-.17-.18-.11-.32-.27-.43-.46-.1-.2-.15-.42-.15-.68s.05-.48.15-.67c.1-.2.24-.35.42-.46.18-.11.38-.17.61-.17.14,0,.28.03.41.08s.26.13.36.22.19.2.26.32l.23-.14c-.07-.14-.18-.27-.31-.38s-.28-.2-.45-.26c-.16-.06-.33-.09-.5-.09-.29,0-.54.07-.76.2s-.39.32-.52.55-.19.5-.19.8.06.57.19.8c.13.23.3.42.52.55s.48.2.77.2c.17,0,.34-.03.51-.1s.32-.16.45-.28c.13-.12.24-.25.31-.4l-.23-.14c-.06.13-.15.25-.26.35Z"/>
          <polygon class="cls-1" points="81.07 17.56 79.22 17.56 79.22 16.24 78.94 16.24 78.94 19.23 79.22 19.23 79.22 17.81 81.07 17.81 81.07 19.23 81.35 19.23 81.35 16.24 81.07 16.24 81.07 17.56"/>
          <path class="cls-1" d="M83.53,16.24l-1.26,3h.3l.39-.93h1.44l.39.93h.3l-1.26-3h-.29ZM84.29,18.06h-1.23l.61-1.47.61,1.47Z"/>
          <polygon class="cls-1" points="88.22 18.79 86.27 16.24 85.99 16.24 85.99 19.23 86.27 19.23 86.27 16.67 88.22 19.23 88.5 19.23 88.5 16.24 88.22 16.24 88.22 18.79"/>
          <path class="cls-1" d="M91.51,17.99h.77c0,.21-.05.39-.14.55-.09.16-.22.28-.39.37-.17.09-.36.13-.57.13-.25,0-.48-.06-.67-.17-.2-.11-.35-.26-.46-.46-.11-.2-.17-.42-.17-.67s.06-.48.17-.68c.11-.2.27-.35.46-.46.2-.11.42-.17.67-.17.13,0,.26.02.38.06.13.04.24.1.35.18.11.08.19.17.26.27l.21-.16c-.08-.12-.18-.22-.31-.31-.13-.09-.27-.16-.43-.21-.15-.05-.31-.08-.46-.08-.31,0-.58.07-.82.2s-.43.32-.56.55c-.14.23-.2.5-.2.81s.07.57.2.8c.13.23.32.42.56.55s.51.2.82.2c.27,0,.51-.06.71-.17.21-.11.37-.26.48-.46.12-.2.17-.42.17-.67v-.25h-1.04v.25Z"/>
          <polygon class="cls-1" points="93.59 19.23 95.35 19.23 95.35 18.99 93.87 18.99 93.87 17.81 95.25 17.81 95.25 17.56 93.87 17.56 93.87 16.49 95.35 16.49 95.35 16.24 93.59 16.24 93.59 19.23"/>
        </g>
      </g>
      <g>
        <path class="cls-1" d="M11.3,0c-.44.89-.79,1.25-1.69,1.69.89.44,1.25.79,1.69,1.69.44-.89.79-1.25,1.69-1.69-.89-.44-1.25-.79-1.69-1.69Z"/>
        <path class="cls-1" d="M11.29,13.72c-.49-.26-1.08-.47-1.78-.62-.69-.15-1.47-.25-2.34-.3-.84-.05-1.51-.13-2.01-.22-.51-.09-.88-.21-1.13-.34-.25-.13-.42-.29-.51-.47-.09-.18-.13-.37-.13-.59,0-.38.14-.7.42-.94.18-.15.42-.25.7-.34.45.1.93.16,1.44.16.96,0,1.83-.18,2.61-.54.77-.36,1.39-.86,1.84-1.5.45-.64.68-1.38.68-2.21,0-.62-.13-1.18-.39-1.69-.26-.51-.62-.96-1.09-1.34-.47-.38-1.01-.68-1.63-.88-.62-.21-1.29-.31-2.01-.31-.95,0-1.82.18-2.59.54-.77.36-1.39.86-1.84,1.5-.45.64-.68,1.38-.68,2.21s.23,1.54.68,2.17c.45.64,1.07,1.14,1.84,1.5.18.08.36.16.55.22-.68.19-1.24.44-1.69.75-.61.42-.92.94-.92,1.56,0,.33.07.64.19.94.13.29.36.56.69.8.33.24.78.43,1.36.59.07.02.16.03.23.05-.13.03-.26.07-.38.1-.31.08-.62.17-.92.27-1.16.41-2.46,1.29-2.46,2.56,0,.5.13.94.38,1.32.42.63,1.15,1.05,1.86,1.34.64.27,1.32.42,2.01.51.55.07,1.1.1,1.65.09.64-.01,1.29-.09,1.92-.21,1.54-.32,3.16-.95,4.15-2.14.59-.71.9-1.58.79-2.48-.11-.9-.63-1.6-1.48-2.05ZM3.36,5.83c0-1.95,1.16-3.53,2.58-3.53s2.58,1.58,2.58,3.53-1.16,3.53-2.58,3.53-2.58-1.58-2.58-3.53ZM4.71,14.64c.06-.01.12-.02.18-.03.34-.06.68-.1,1.05-.1.83,0,1.59.16,2.22.43,1,.42,1.66,1.13,1.66,1.92,0,1.3-1.74,2.35-3.88,2.35-2.01,0-3.65-.93-3.85-2.12-.01-.08-.04-.15-.04-.23,0-1.04,1.12-1.9,2.66-2.22Z"/>
      </g>
    </g>
  </g>
</svg>