<?xml version="1.0" encoding="UTF-8"?>
<svg id="Layer_1" xmlns="http://www.w3.org/2000/svg" version="1.1" viewBox="0 0 438.7 122.9">
  <!-- Generator: Adobe Illustrator 29.0.0, SVG Export Plug-In . SVG Version: 2.1.0 Build 186)  -->
  <defs>
    <style>
      .st0 {
        fill: #b29758;
      }
    </style>
  </defs>
  <g id="_레이어_2" data-name="레이어_2">
    <g id="_레이어_1-2" data-name="레이어_1-2">
      <path class="st0" d="M29.2,99.2h38.3v22.6H0V1.7h29.2v97.5Z"/>
      <path class="st0" d="M98.7,115.1c-9.3-5.2-17.1-12.8-22.4-22-5.6-9.6-8.5-20.6-8.3-31.7-.2-11.1,2.7-22,8.3-31.6,5.4-9.2,13.1-16.7,22.4-21.9,19.4-10.5,42.7-10.5,62.1,0,9.3,5.1,16.9,12.7,22.2,21.9,5.5,9.6,8.3,20.5,8.1,31.6.2,11.1-2.7,22.1-8.2,31.7-5.3,9.2-13,16.8-22.2,22-9.5,5.3-20.1,8-30.9,7.9-10.8,0-21.5-2.6-31-7.9ZM152.7,86.7c5.8-6.4,8.6-14.8,8.6-25.3s-2.9-19.1-8.6-25.4c-5.8-6.3-13.4-9.5-23-9.5-9.7,0-17.4,3.1-23.2,9.4-5.8,6.3-8.6,14.8-8.6,25.5,0,10.6,2.9,19.1,8.6,25.4,5.8,6.3,13.5,9.5,23.2,9.5,9.5,0,17.2-3.2,22.9-9.6h0Z"/>
      <path class="st0" d="M278.5,39.7c-2.1-3.9-5.4-7.1-9.3-9.1-4.4-2.2-9.3-3.3-14.3-3.2-9.5,0-17.1,3.1-22.7,9.3s-8.5,14.5-8.6,24.9c0,11.1,3,19.7,9,25.9,6,6.2,14.2,9.3,24.7,9.3,7.2,0,13.2-1.8,18.2-5.5s8.6-8.9,10.9-15.7h-37.1v-21.6h63.6v27.2c-2.3,7.5-6,14.4-11,20.3-5.4,6.4-12.1,11.6-19.8,15.2-8.4,4-17.7,6-27,5.8-11.9,0-22.4-2.6-31.7-7.8-9.1-5-16.7-12.5-21.7-21.6-5.2-9.2-7.8-19.8-7.8-31.6,0-11.9,2.6-22.4,7.8-31.7,5-9.1,12.5-16.6,21.6-21.7,9.2-5.2,19.8-7.8,31.6-7.8,14.4,0,26.5,3.5,36.3,10.4,9.9,7,16.4,16.6,19.6,28.9h-32.3Z"/>
      <path class="st0" d="M346.3,115.1c-9.3-5.2-17.1-12.8-22.4-22-5.6-9.6-8.5-20.6-8.3-31.7-.2-11.1,2.7-22,8.3-31.6,5.4-9.2,13.1-16.7,22.4-21.9,19.4-10.5,42.7-10.5,62.1,0,9.3,5.1,17,12.7,22.2,21.9,5.5,9.6,8.3,20.6,8.1,31.6.2,11.1-2.7,22.1-8.2,31.7-5.3,9.2-12.9,16.8-22.2,22-19.3,10.5-42.7,10.5-62,0h0ZM400.3,86.7c5.8-6.4,8.7-14.8,8.7-25.3s-2.9-19.1-8.6-25.4c-5.8-6.3-13.4-9.5-23-9.5-9.7,0-17.4,3.1-23.2,9.4-5.8,6.3-8.6,14.8-8.6,25.5s2.9,19.1,8.6,25.4c5.8,6.3,13.5,9.5,23.2,9.5,9.5,0,17.2-3.2,23-9.6h0Z"/>
    </g>
  </g>
</svg>