<svg xmlns="http://www.w3.org/2000/svg" viewBox="0 0 215.7422 213"><defs><style>.cls-1{fill:#fbda73;}.cls-2{fill:#d2e9f7;}.cls-3{fill:#f08e70;}.cls-4{fill:#3d5a80;}</style></defs><g id="Layer_2" data-name="Layer 2"><g id="Colored_details" data-name="Colored details"><path class="cls-1" d="M61.3374,58.5018v-32.96A7.0417,7.0417,0,0,1,68.3791,18.5h3.9583v-.8455A15.1543,15.1543,0,0,1,87.4738,2.5l71.8636-.0853V20.0174A15.4824,15.4824,0,0,1,143.7706,35.5L80.36,35.1544a7.2966,7.2966,0,0,0-7.3261,6.9117L72.1657,58.5Z"/><path class="cls-2" d="M148.4809,57.3611,150.7559,33.5H137.0046l-5.1863,62.5674c-.095,1.1743-.6678,2.2759-.643,3.4326h13.7756l1.8973-22.1457C164.504,70.3282,148.4809,57.3611,148.4809,57.3611Z"/><path class="cls-2" d="M209.7868,101.5h-7.5825L178.73,196.8734a4.7654,4.7654,0,0,1-4.6274,3.6266H25.0754l1.9073,6.8328a5.7,5.7,0,0,0,5.49,4.1672h151.63a4.7658,4.7658,0,0,0,4.6276-3.6267l24.957-101.3967A4.0166,4.0166,0,0,0,209.7868,101.5Z"/><polygon class="cls-3" points="114.017 150.5 101.893 150.5 95.831 161 101.893 171.5 114.017 171.5 120.08 161 114.017 150.5"/></g><g id="icons"><path class="cls-4" d="M187.8374,40a2,2,0,0,1-2-2V33a2,2,0,0,1,4,0v5A2,2,0,0,1,187.8374,40Z"/><path class="cls-4" d="M187.8374,64a2,2,0,0,1-2-2V58a2,2,0,0,1,4,0v4A2,2,0,0,1,187.8374,64Z"/><path class="cls-4" d="M201.8374,50h-5a2,2,0,0,1,0-4h5a2,2,0,0,1,0,4Z"/><path class="cls-4" d="M178.8374,50h-4a2,2,0,0,1,0-4h4a2,2,0,0,1,0,4Z"/><path class="cls-4" d="M145.4683,92.96c-.0538,0-.1075-.002-.1621-.0069A1.9987,1.9987,0,0,1,143.4731,90.8l1.1963-14.918,1.2823-.4062a8.2516,8.2516,0,0,0,5.5859-5.9541l.3711-1.5313a4.6758,4.6758,0,0,0-.7315-3.85,4.8262,4.8262,0,0,0-3.4453-2.0156l-1.9736-.2041,1.6611-17.4238a2,2,0,1,1,3.9825.3789l-1.3057,13.6992a8.8324,8.8324,0,0,1,4.3486,3.2568,8.7392,8.7392,0,0,1,1.3506,7.1006l-.3711,1.5313A12.3792,12.3792,0,0,1,148.4478,78.8L147.46,91.12A2,2,0,0,1,145.4683,92.96Z"/><path class="cls-4" d="M75.5991,92.9336a2,2,0,0,1-1.9912-1.84l-.9424-11.7452a12.301,12.301,0,0,1-8.3916-8.8847,2,2,0,1,1,3.8867-.9434,8.31,8.31,0,0,0,6.712,6.2451l1.539.2578,1.1826,14.75a1.9987,1.9987,0,0,1-1.833,2.1534C75.7065,92.9316,75.6528,92.9336,75.5991,92.9336Z"/><path class="cls-4" d="M70.1968,62H62.4761a3.6422,3.6422,0,0,1-3.6387-3.6387V22.7285l.1016-.3066c1.6084-4.8408,5.8164-7.2559,11.3545-6.5655A18.1343,18.1343,0,0,1,88.3286,0h71.0723a3.4409,3.4409,0,0,1,3.4365,3.4365v15.15A18.4336,18.4336,0,0,1,144.4243,37H80.0415a6.2112,6.2112,0,0,0-6.2041,6.2041V58.3594A3.6443,3.6443,0,0,1,70.1968,62Zm-7.3594-4h7V43.2041A10.2151,10.2151,0,0,1,80.0415,33h64.3828a14.43,14.43,0,0,0,14.4131-14.4131V4H88.3286A14.1565,14.1565,0,0,0,74.2007,16.9023a3.42,3.42,0,0,1-1.31,2.3946,3.2,3.2,0,0,1-2.5224.6142c-2.68-.4619-6.1358-.2207-7.5313,3.4834Z"/><path class="cls-4" d="M183.8872,213H31.8511a7.4758,7.4758,0,0,1-7.33-5.8564L.146,106.2852A5.9648,5.9648,0,0,1,5.9624,99H209.7769a5.9636,5.9636,0,0,1,5.8242,7.2451L191.21,207.1719A7.4667,7.4667,0,0,1,183.8872,213ZM5.9624,103a1.9642,1.9642,0,0,0-1.9189,2.3857l24.373,100.8467A3.5043,3.5043,0,0,0,31.8511,209H183.8872a3.4949,3.4949,0,0,0,3.4277-2.7393l24.3887-100.915a1.936,1.936,0,0,0-.3965-1.6123,1.9559,1.9559,0,0,0-1.53-.7334Z"/><path class="cls-4" d="M112.8208,174H102.5962a4.1563,4.1563,0,0,1-3.59-2.0723l-5.1123-8.8554a4.1514,4.1514,0,0,1,.001-4.1465l5.1113-8.8535a4.1563,4.1563,0,0,1,3.59-2.0723h10.2246a4.1561,4.1561,0,0,1,3.59,2.0723l5.1133,8.8554a4.16,4.16,0,0,1,0,4.1446l-5.1133,8.8554A4.1561,4.1561,0,0,1,112.8208,174Zm-10.2246-22a.143.143,0,0,0-.125.0723l-5.1123,8.8554a.1406.1406,0,0,0-.001.1426l5.1133,8.8574a.143.143,0,0,0,.125.0723h10.2246a.143.143,0,0,0,.125-.0723l5.1133-8.8554a.1424.1424,0,0,0,0-.1446l-5.1133-8.8554a.143.143,0,0,0-.125-.0723Z"/><path class="cls-4" d="M97.8374,72h-4a2,2,0,0,1,0-4h4a2,2,0,0,1,0,4Z"/><path class="cls-4" d="M127.8374,72h-5a2,2,0,0,1,0-4h5a2,2,0,0,1,0,4Z"/><path class="cls-4" d="M110.8374,93a2,2,0,0,1-2-2V80a2,2,0,0,1,4,0V91A2,2,0,0,1,110.8374,93Z"/></g></g></svg>