<svg xmlns="http://www.w3.org/2000/svg" viewBox="0 0 230 157.4941"><defs><style>.cls-1{fill:#d2e9f7;}.cls-2{fill:#fbda73;}.cls-3{fill:#3d5a80;}</style></defs><g id="Layer_2" data-name="Layer 2"><g id="Colored_details" data-name="Colored details"><polygon class="cls-1" points="159.271 73.098 115.715 88.914 3.5 46.294 3.5 43.871 2.5 44.253 2.499 59.309 114.714 101.929 158.27 86.113 228.044 59.309 228.402 44.775 159.271 73.098"/><polygon class="cls-1" points="93.5 153.416 70.5 149.458 70.5 85.433 93.5 94.561 93.5 153.416"/><path class="cls-2" d="M204.7553,140.6494h-7.5106a4.7447,4.7447,0,0,1-4.7447-4.7447v-9.5661a6.5919,6.5919,0,0,1,2.7905-5.3854L201,116.923l5.7095,4.03a6.5919,6.5919,0,0,1,2.7905,5.3854v9.5661A4.7447,4.7447,0,0,1,204.7553,140.6494Z"/></g><g id="icons"><path class="cls-3" d="M115,103.8965a11.8269,11.8269,0,0,1-4.2471-.7891L1.6416,61.1914A2.5749,2.5749,0,0,1,0,58.8027V44.8076A2.57,2.57,0,0,1,1.6514,42.416L110.7783.7793a11.8244,11.8244,0,0,1,8.4434,0L228.3535,42.418A2.5678,2.5678,0,0,1,230,44.8076V58.8027a2.5755,2.5755,0,0,1-1.6406,2.3887L190.7881,75.625a2,2,0,0,1-1.4336-3.7344L226,57.8125V45.8008L117.7959,4.5156a7.838,7.838,0,0,0-5.5918,0L4,45.8008V57.8125L112.1865,99.373a7.83,7.83,0,0,0,5.627,0l39.4189-15.1425a2,2,0,1,1,1.4336,3.7343l-39.4189,15.1426A11.8309,11.8309,0,0,1,115,103.8965ZM226.9258,46.1543l.0068.0019ZM3.0791,46.1523l-.0068.002Z"/><path class="cls-3" d="M115.5,157.4941c-29.3291,0-60.5-6.083-60.5-17.3554V99.1494a2,2,0,0,1,4,0v40.9893c0,5.5771,21.4941,13.3554,56.5,13.3554s56.5-7.7783,56.5-13.3554V99.1494a2,2,0,0,1,4,0v40.9893C176,151.4111,144.8291,157.4941,115.5,157.4941Z"/><path class="cls-3" d="M204.3125,142.1494H200a2,2,0,0,1,0-4h4.3125A3.6918,3.6918,0,0,0,208,134.4619v-9.9775a4.157,4.157,0,0,0-2.3223-3.7461L199,117.4228V93.9033L113.6074,54.6084a2,2,0,0,1,1.6719-3.6328L203,91.3408v23.6016l4.4561,2.2129A8.1332,8.1332,0,0,1,212,124.4844v9.9775A7.6957,7.6957,0,0,1,204.3125,142.1494Z"/></g></g></svg>