<svg xmlns="http://www.w3.org/2000/svg" viewBox="0 0 221.0985 178.5942"><defs><style>.cls-1{fill:#d2e9f7;}.cls-2{fill:#f08e70;}.cls-3{fill:#fbda73;}.cls-4{fill:#3d5a80;}</style></defs><g id="Layer_2" data-name="Layer 2"><g id="Colored_details" data-name="Colored details"><path class="cls-1" d="M107.5,150.5h-11l-3.0115-4.1371A6.9577,6.9577,0,0,0,87.8634,143.5H85.5V3.6052l.0244.0033A25.4087,25.4087,0,0,1,107.5,28.7842Z"/><rect class="cls-2" x="3.5" y="16.5" width="14" height="140"/><rect class="cls-2" x="196.5" y="16.5" width="14" height="142"/><path class="cls-2" d="M208.5,158.5H140.6361a17.0616,17.0616,0,0,0-7.5409,1.7569L119.23,167.0888a3.9934,3.9934,0,0,1-1.7649.4112H97.5692a3.9922,3.9922,0,0,1-1.76-.4088L82.8542,160.73a21.7863,21.7863,0,0,0-9.6022-2.23H11.5v-16H87.7973a5.3513,5.3513,0,0,1,3.5622,1.358l6.3242,5.642h18.351l4.7857-5.4892a4.4063,4.4063,0,0,1,3.3214-1.5108H208.5Z"/><path class="cls-3" d="M168.2564,129.3517l11.58,43.2765a4.6513,4.6513,0,0,0,3.1623,3.2545h0a2.4784,2.4784,0,0,0,3.0836-1.6649l6.972-23.3222,23.9887-7.2829a2.8937,2.8937,0,0,0,2.053-2.7689h0a3.69,3.69,0,0,0-2.75-3.5681l-44.3477-11.68a3.0649,3.0649,0,0,0-2.5478.46h0A3.065,3.065,0,0,0,168.2564,129.3517Z"/></g><g id="icons"><path class="cls-4" d="M210,124a2,2,0,0,1-2-2V19.4912A.4919.4919,0,0,0,207.5088,19H206a2,2,0,0,1,0-4h1.5088A4.4961,4.4961,0,0,1,212,19.4912V122A2,2,0,0,1,210,124Z"/><path class="cls-4" d="M117.3877,169H94.85l-8.6567-4.7461A34.6368,34.6368,0,0,0,69.5869,160H3.2153A3.219,3.219,0,0,1,0,156.7847V19.4912A4.4961,4.4961,0,0,1,4.4912,15H6a2,2,0,0,1,0,4H4.4912A.4916.4916,0,0,0,4,19.4912V156H69.5869a38.65,38.65,0,0,1,18.5293,4.7461L95.8745,165h20.4888l7.7588-4.2539A38.6515,38.6515,0,0,1,142.6514,156H162a2,2,0,0,1,0,4H142.6514a34.6368,34.6368,0,0,0-16.6065,4.2539Z"/><path class="cls-4" d="M195,119a2,2,0,0,1-2-2V4.1382A.1388.1388,0,0,0,192.8613,4H135.3066a27.6986,27.6986,0,0,0-27.6972,27.6973,2,2,0,0,1-4,0A31.6978,31.6978,0,0,1,135.3066,0h57.5547A4.143,4.143,0,0,1,197,4.1382V117A2,2,0,0,1,195,119Z"/><path class="cls-4" d="M115.6475,152H95.0732l-2.9892-4.3711A6.0344,6.0344,0,0,0,87.1011,145H17.06A3.0634,3.0634,0,0,1,14,141.94V4.1382A4.1429,4.1429,0,0,1,18.1382,0H76.44a31.697,31.697,0,0,1,31.6973,31.6973,2,2,0,0,1-4,0A27.6978,27.6978,0,0,0,76.44,4H18.1382A.1384.1384,0,0,0,18,4.1382V141H87.1011a10.0307,10.0307,0,0,1,8.2846,4.3711L97.1836,148h16.3535l1.7979-2.6289A10.0307,10.0307,0,0,1,123.62,141H157a2,2,0,0,1,0,4H123.62a6.0344,6.0344,0,0,0-4.9829,2.6289Z"/><path class="cls-4" d="M105.93,140h-.0015a2,2,0,0,1-1.9985-2.0015l.07-110A2,2,0,0,1,106,26h.0015A2,2,0,0,1,108,28.0015l-.07,110A2,2,0,0,1,105.93,140Z"/><path class="cls-4" d="M183.2979,178.5942a5.47,5.47,0,0,1-1.4-.184,5.3189,5.3189,0,0,1-3.8037-3.7759L165.8975,129.99a5.3706,5.3706,0,0,1,6.5966-6.5961l44.6446,12.1958a5.3712,5.3712,0,0,1,2.3818,8.979l-.3574.3569-24.4229,7.311-7.31,24.4229-.3574.3569A5.3139,5.3139,0,0,1,183.2979,178.5942Zm2.36-2.9921h0ZM171.0625,127.2a1.3653,1.3653,0,0,0-.9531.4048,1.3475,1.3475,0,0,0-.3526,1.3315L181.9521,173.58a1.3472,1.3472,0,0,0,.9708.9638,1.3794,1.3794,0,0,0,.998-.1118l7.6064-25.41,25.4092-7.606a1.3627,1.3627,0,0,0,.1114-.9976,1.3467,1.3467,0,0,0-.9639-.9711L171.44,127.252A1.4212,1.4212,0,0,0,171.0625,127.2Z"/><path class="cls-4" d="M151,104a2,2,0,0,1-2-2V97a2,2,0,0,1,4,0v5A2,2,0,0,1,151,104Z"/><path class="cls-4" d="M151,128a2,2,0,0,1-2-2v-4a2,2,0,0,1,4,0v4A2,2,0,0,1,151,128Z"/><path class="cls-4" d="M165,114h-5a2,2,0,0,1,0-4h5a2,2,0,0,1,0,4Z"/><path class="cls-4" d="M142,114h-4a2,2,0,0,1,0-4h4a2,2,0,0,1,0,4Z"/></g></g></svg>