<svg xmlns="http://www.w3.org/2000/svg" viewBox="0 0 182 214.8633"><defs><style>.cls-1{fill:#f08e70;}.cls-2{fill:#d2e9f7;}.cls-3{fill:#fbda73;}.cls-4{fill:#3d5a80;}</style></defs><g id="Layer_2" data-name="Layer 2"><g id="Colored_details" data-name="Colored details"><circle class="cls-1" cx="90" cy="68" r="10.5"/><path class="cls-2" d="M84.6043,37.7569c27.0923,3.3359,48.0465,25.8767,48.0465,53.1951A52.8658,52.8658,0,0,1,114.74,130.5315a21.3768,21.3768,0,0,0-7.24,15.9434V167.5h14V146.4749a21.3768,21.3768,0,0,1,7.24-15.9434A52.8658,52.8658,0,0,0,146.6508,90.952C146.6508,59.0767,118.1249,33.7021,84.6043,37.7569Z"/><path class="cls-2" d="M118.5093,167.5007l-4.0093-.0649v20.632a9.4323,9.4323,0,0,1-9.4186,9.4322l-13.563.0187a.0185.0185,0,0,0-.0184.0185v4.966a.059.059,0,0,1-.0178.0421,10.7757,10.7757,0,0,0-3.263,8.0884l.1,2.8663H95.53a2.97,2.97,0,0,0,2.97-2.97V202.5l15.6913-.0224a7.3191,7.3191,0,0,0,7.3087-7.3191v-24.623A3.0351,3.0351,0,0,0,118.5093,167.5007Z"/><rect class="cls-3" x="77.5" y="107.5" width="26" height="52"/></g><g id="icons"><path class="cls-4" d="M90.5,214.8633a11.5134,11.5134,0,0,1-11.5-11.5V202a2,2,0,0,1,4,0v1.3633a7.5,7.5,0,0,0,15,0V200h15.5469a4.9179,4.9179,0,0,0,4.4717-2.8838l.4111-.9053a17.5352,17.5352,0,0,0,1.57-7.2773V172.21a2.2122,2.2122,0,0,0-2.21-2.21H65.21A2.2122,2.2122,0,0,0,63,172.21v16.9023a17.7568,17.7568,0,0,0,1.623,7.3906l1.4405,3.12a.7246.7246,0,0,0,.6582.4209h.0127l3.6357-.0664h.0371a2,2,0,0,1,.0352,4l-3.6358.0664h-.0849a4.7239,4.7239,0,0,1-4.29-2.7451l-1.44-3.1191A21.7788,21.7788,0,0,1,59,189.1123V172.21A6.2174,6.2174,0,0,1,65.21,166h52.58a6.2174,6.2174,0,0,1,6.21,6.21v16.7236a21.5144,21.5144,0,0,1-1.9268,8.9277l-.4111.9053A8.9258,8.9258,0,0,1,113.5469,204H101.9824A11.514,11.514,0,0,1,90.5,214.8633Z"/><path class="cls-4" d="M120,161a2,2,0,0,1-2-2V148.9893a27.1227,27.1227,0,0,1,8.43-19.7373,52.4408,52.4408,0,0,0-6.9092-81.9532C104.4678,37.291,85.6816,35.8125,67.9814,43.2412A47.4839,47.4839,0,0,0,42.8877,68.0947c-9.4277,22.02-4.99,45.416,11.58,61.0606A27.3751,27.3751,0,0,1,63,148.9873V159a2,2,0,0,1-4,0V148.9873a23.3615,23.3615,0,0,0-7.2783-16.9238C33.8994,115.2373,29.1055,90.123,39.21,66.5205A51.5206,51.5206,0,0,1,66.4326,39.5537c18.961-7.958,39.1162-6.3476,55.3028,4.4141a56.4413,56.4413,0,0,1,7.4326,88.2A23.1068,23.1068,0,0,0,122,148.9893V159A2,2,0,0,1,120,161Z"/><path class="cls-4" d="M98,180H71a2,2,0,0,1,0-4H98a2,2,0,0,1,0,4Z"/><path class="cls-4" d="M112,192H85a2,2,0,0,1,0-4h27a2,2,0,0,1,0,4Z"/><path class="cls-4" d="M91,26a2,2,0,0,1-2-2V2a2,2,0,0,1,4,0V24A2,2,0,0,1,91,26Z"/><path class="cls-4" d="M124.5771,35.0576a2,2,0,0,1-1.7294-3L133.793,13.1094a1.9995,1.9995,0,1,1,3.4629,2L126.3105,34.0576A1.9974,1.9974,0,0,1,124.5771,35.0576Z"/><path class="cls-4" d="M149.1758,59.3281a2,2,0,0,1-1.001-3.7324L167.13,44.6631a2,2,0,1,1,1.998,3.4648l-18.955,10.9326A1.9878,1.9878,0,0,1,149.1758,59.3281Z"/><path class="cls-4" d="M180,93h-.001l-22-.0146a2,2,0,0,1,.001-4h.001l22,.0146A2,2,0,0,1,180,93Z"/><path class="cls-4" d="M168.5332,137.0352a1.99,1.99,0,0,1-1-.2686l-18.9414-10.958a2,2,0,0,1,2.0039-3.4629l18.9414,10.958a2,2,0,0,1-1.0039,3.7315Z"/><path class="cls-4" d="M15.0273,137.6377a2,2,0,0,1-.999-3.7334L32.999,122.9951a2,2,0,0,1,1.9942,3.4668L16.0225,137.3711A1.9925,1.9925,0,0,1,15.0273,137.6377Z"/><path class="cls-4" d="M24,94.043h-.0039l-22-.043A2,2,0,0,1,2,90h.0039l22,.043a2,2,0,0,1-.0039,4Z"/><path class="cls-4" d="M33.6611,59.98a1.989,1.989,0,0,1-1.0019-.27L13.7314,48.7266a2,2,0,0,1,2.0079-3.459L34.667,56.25a2,2,0,0,1-1.0059,3.73Z"/><path class="cls-4" d="M57.9834,35.4336A2,2,0,0,1,56.2471,34.43L45.3516,15.4521A2,2,0,1,1,48.82,13.46L59.7158,32.4375a2,2,0,0,1-1.7324,2.9961Z"/><path class="cls-4" d="M103,160a2,2,0,0,1-2-2V100.6318L90,78.0811,79,100.6318V158a2,2,0,0,1-4,0V99.708L88.5156,72h2.9688L105,99.708V158A2,2,0,0,1,103,160Z"/><path class="cls-4" d="M100,109H80a2,2,0,0,1,0-4h20a2,2,0,0,1,0,4Z"/><path class="cls-4" d="M90.2109,157a2,2,0,0,1-2-1.9912l-.2109-48A2,2,0,0,1,89.9912,105H90a2,2,0,0,1,2,1.9912l.2109,48A2,2,0,0,1,90.22,157Z"/></g></g></svg>