<svg xmlns="http://www.w3.org/2000/svg" viewBox="0 0 212 169"><defs><style>.cls-1{fill:#d2e9f7;}.cls-2{fill:#f08e70;}.cls-3{fill:#3d5a80;}</style></defs><g id="Layer_2" data-name="Layer 2"><g id="Colored_details" data-name="Colored details"><path class="cls-1" d="M106.5,150.5h-11l-3.0115-4.1371A6.9577,6.9577,0,0,0,86.8634,143.5H84.5V3.6052l.0244.0033A25.4087,25.4087,0,0,1,106.5,28.7842Z"/><rect class="cls-2" x="2.5" y="16.5" width="14" height="140"/><rect class="cls-2" x="195.5" y="16.5" width="14" height="140"/><path class="cls-2" d="M207.5,158.5H139.6361a17.0616,17.0616,0,0,0-7.5409,1.7569L118.23,167.0888a3.9934,3.9934,0,0,1-1.7649.4112H96.5692a3.9922,3.9922,0,0,1-1.76-.4088L81.8542,160.73a21.7863,21.7863,0,0,0-9.6022-2.23H10.5v-16H86.7973a5.3513,5.3513,0,0,1,3.5622,1.358l6.3242,5.642h18.351l4.7857-5.4892a4.4063,4.4063,0,0,1,3.3214-1.5108H207.5Z"/></g><g id="icons"><path class="cls-3" d="M117.3877,169H94.85l-8.6567-4.7461A34.6368,34.6368,0,0,0,69.5869,160H3.2153A3.219,3.219,0,0,1,0,156.7847V19.4912A4.4961,4.4961,0,0,1,4.4912,15H6a2,2,0,0,1,0,4H4.4912A.4916.4916,0,0,0,4,19.4912V156H69.5869a38.65,38.65,0,0,1,18.5293,4.7461L95.8745,165h20.4888l7.7588-4.2539A38.65,38.65,0,0,1,142.6514,156h64.8574a.4916.4916,0,0,0,.4912-.4912V19.4912A.4916.4916,0,0,0,207.5088,19H206a2,2,0,0,1,0-4h1.5088A4.4961,4.4961,0,0,1,212,19.4912V155.5088A4.4961,4.4961,0,0,1,207.5088,160H142.6514a34.6368,34.6368,0,0,0-16.6065,4.2539Z"/><path class="cls-3" d="M115.6475,152H95.0732l-2.9892-4.3711A6.0344,6.0344,0,0,0,87.1011,145H17.06A3.0634,3.0634,0,0,1,14,141.94V4.1382A4.1429,4.1429,0,0,1,18.1382,0H76.0508a31.7349,31.7349,0,0,1,29.6279,20.4155A31.7379,31.7379,0,0,1,135.3066,0h57.5552A4.1429,4.1429,0,0,1,197,4.1382V140.8618A4.143,4.143,0,0,1,192.8618,145H123.62a6.0344,6.0344,0,0,0-4.9829,2.6289Zm-18.4639-4h16.3535l1.7979-2.6289A10.0307,10.0307,0,0,1,123.62,141h69.2422a.1384.1384,0,0,0,.1382-.1382V4.1382A.1384.1384,0,0,0,192.8618,4H135.3066a27.701,27.701,0,0,0-27.623,25.66q.0645,1.0135.0644,2.0376a2.0064,2.0064,0,0,1-2.0693,1.999,2.0341,2.0341,0,0,1-2.0693-1.999q0-1.0233.0644-2.0376A27.7,27.7,0,0,0,76.0508,4H18.1382A.1384.1384,0,0,0,18,4.1382V141H87.1011a10.0307,10.0307,0,0,1,8.2846,4.3711Z"/><path class="cls-3" d="M105.93,140h-.0015a2,2,0,0,1-1.9985-2.0015l.07-110A2,2,0,0,1,106,26h.0015A2,2,0,0,1,108,28.0015l-.07,110A2,2,0,0,1,105.93,140Z"/><path class="cls-3" d="M80,22H32a2,2,0,0,1,0-4H80a2,2,0,0,1,0,4Z"/><path class="cls-3" d="M80,43H32a2,2,0,0,1,0-4H80a2,2,0,0,1,0,4Z"/><path class="cls-3" d="M80,63H32a2,2,0,0,1,0-4H80a2,2,0,0,1,0,4Z"/><path class="cls-3" d="M80,84H32a2,2,0,0,1,0-4H80a2,2,0,0,1,0,4Z"/><path class="cls-3" d="M80,104H32a2,2,0,0,1,0-4H80a2,2,0,0,1,0,4Z"/><path class="cls-3" d="M80,125H32a2,2,0,0,1,0-4H80a2,2,0,0,1,0,4Z"/><path class="cls-3" d="M177,22H129a2,2,0,0,1,0-4h48a2,2,0,0,1,0,4Z"/><path class="cls-3" d="M177,43H129a2,2,0,0,1,0-4h48a2,2,0,0,1,0,4Z"/><path class="cls-3" d="M177,63H129a2,2,0,0,1,0-4h48a2,2,0,0,1,0,4Z"/><path class="cls-3" d="M177,84H129a2,2,0,0,1,0-4h48a2,2,0,0,1,0,4Z"/><path class="cls-3" d="M177,104H129a2,2,0,0,1,0-4h48a2,2,0,0,1,0,4Z"/><path class="cls-3" d="M177,125H129a2,2,0,0,1,0-4h48a2,2,0,0,1,0,4Z"/></g></g></svg>