<?xml version="1.0" encoding="UTF-8"?>
<svg id="Layer_2" data-name="Layer 2" xmlns="http://www.w3.org/2000/svg" viewBox="0 0 549.0740480974 242.0166214612">
  <defs>
    <style>
      .cls-1 {
        fill: #00ae56;
      }
    </style>
  </defs>
  <g id="Layer_1-2" data-name="Layer 1">
    <g>
      <rect class="cls-1" width="549.0740480974" height="242.0166214612"/>
      <g>
        <path d="M91.3363994107,151.2573413447c-4.9160575115-3.1322257014-8.6922922356-7.4895322028-11.3279723439-13.0726513327-2.6364119367-5.5823873015-3.9540690338-11.9397809155-3.9540690338-19.0736444989,0-7.1946053436,1.3491257197-13.5988359774,4.047011245-19.21342373,2.6982514395-5.6131240957,6.4971728451-9.9850671658,11.3978619594-13.1187565241,4.8999572859-3.1322257014,10.5441840901-4.6983385521,16.933412241-4.6983385521,4.9932654114,0,9.5441405338.9308857692,13.6540890242,2.7911936507,4.109216662,1.86103971,7.4434270114,4.5051358453,10.0018992198,7.9315565775,2.5588381226,3.4278843891,4.1322692577,7.358534913,4.7221229762,11.7934152285h-11.2580827284c-.5898537185-2.2635453492-1.6209999833-4.3492563886-3.0938047086-6.2571331184-1.4735365537-1.9071449014-3.380681455-3.4191024479-5.7221665325-4.5358726395-2.3418509917-1.1160383632-5.0474207155-1.6751552875-8.1178069142-1.6751552875-4.2182590988,0-7.9246042074,1.102133623-11.1186694115,3.3034735552-3.1944311184,2.2028035891-5.6753295127,5.3116107805-7.4430610972,9.3278852313-1.7680974987,4.0162744508-2.6517803339,8.6758260958-2.6517803339,13.9793867636,0,5.4272396733.8679485238,10.180465358,2.604943314,14.2589452257,1.736628876,4.0777480393,4.2021588732,7.2333922506,7.3969559058,9.4669326339,3.1940652041,2.2320767265,6.9315130212,3.3488469181,11.2116116227,3.3488469181,2.821930445,0,5.3884527662-.4954478504,7.6992010494-1.4885390366,2.3100164548-.9923593577,4.2566800916-2.4106428646,5.8385272537-4.2563141774,1.5814812478-1.8449394844,2.7132539224-4.0543295294,3.3960498522-6.6296337918h11.2580827284c-.5898537185,4.2804645158-2.116813748,8.1262229412-4.5823437452,11.5372752763-2.4658959114,3.4117841635-5.7221665325,6.0946672059-9.7695436918,8.0486491271-4.0473771592,1.9532500928-8.6608236129,2.9302410534-13.8399734467,2.9302410534-6.6058493677,0-12.3671687215-1.5661128507-17.2824944045-4.6983385521Z"/>
        <path d="M156.2971504351,94.2449789519c2.5098056175-8.2411200055,6.1971231868-15.8806770374,11.062318622-22.9201347528h8.3841924645c-2.4841916223,3.3905611389-4.7488347141,7.8210504838-6.7928315328,13.2943953485-2.0443627329,5.4733448647-3.6620694883,11.3989597021-4.8516566092,17.7768445123-1.1906848636,6.3793484671-1.7856613812,12.5830581098-1.7856613812,18.6118607565,0,6.0302663036.5949765176,12.2339759463,1.7856613812,18.6118607565,1.1895871209,6.3800802955,2.8072938763,12.3049633045,4.8516566092,17.7775763407,2.0439968187,5.4733448647,4.3086399105,9.904566038,6.7928315328,13.2943953485h-8.3841924645c-4.8651954352-7.0387258869-8.5525130045-14.6790147473-11.062318622-22.9201347528-2.5101715317-8.2418518339-3.7648913834-17.162108627-3.7648913834-26.7636976929,0-9.6001254091,1.2547198516-18.5203822021,3.7648913834-26.7629658645Z"/>
        <path d="M231.9085665868,147.7716425093c-2.5101715317,8.2411200055-6.197489101,15.8814088659-11.062318622,22.9201347528h-8.3838265503c2.4838257081-3.3898293105,4.7481028857-7.8210504838,6.7924656186-13.2943953485,2.0439968187-5.4726130362,3.6613376598-11.3974960452,4.8520225234-17.7775763407,1.1899530352-6.3778848102,1.785295467-12.5815944529,1.785295467-18.6118607565,0-6.0288026467-.5953424318-12.2325122894-1.785295467-18.6118607565-1.1906848636-6.3778848102-2.8080257047-12.3034996476-4.8520225234-17.7768445123-2.0443627329-5.4733448647-4.3086399105-9.9038342096-6.7924656186-13.2943953485h8.3838265503c4.864829521,7.0394577154,8.5521470903,14.6790147473,11.062318622,22.9201347528,2.5098056175,8.2425836623,3.7652572976,17.1628404554,3.7652572976,26.7629658645,0,9.601589066-1.2554516801,18.521845859-3.7652572976,26.7636976929Z"/>
        <path d="M259.9555254403,98.1763613042h57.5923364275v10.3275628734h-57.5923364275v-10.3275628734ZM259.9555254403,125.9031452174h57.5923364275v10.3282947018h-57.5923364275v-10.3282947018Z"/>
        <path d="M351.9020840875,151.2573413447c-4.9156915973-3.1322257014-8.6919263214-7.4895322028-11.3272405155-13.0726513327-2.636777851-5.5823873015-3.9548008622-11.9397809155-3.9548008622-19.0736444989,0-7.1946053436,1.349491634-13.5988359774,4.0477430735-19.21342373,2.6982514395-5.6131240957,6.4964410167-9.9850671658,11.3974960452-13.1187565241,4.8995913717-3.1322257014,10.5441840901-4.6983385521,16.9337781553-4.6983385521,4.9925335829,0,9.5437746196.9308857692,13.65372311,2.7911936507,4.109216662,1.86103971,7.4434270114,4.5051358453,10.0018992198,7.9315565775,2.5584722084,3.4278843891,4.1326351719,7.358534913,4.721757062,11.7934152285h-11.2577168141c-.5898537185-2.2635453492-1.6209999833-4.3492563886-3.0941706228-6.2571331184-1.4731706395-1.9071449014-3.3803155408-3.4191024479-5.7214347041-4.5358726395-2.3425828201-1.1160383632-5.048152544-1.6751552875-8.1181728284-1.6751552875-4.2182590988,0-7.9242382932,1.102133623-11.1186694115,3.3034735552-3.1944311184,2.2028035891-5.6753295127,5.3116107805-7.4434270114,9.3278852313-1.7673656703,4.0162744508-2.6514144197,8.6758260958-2.6514144197,13.9793867636,0,5.4272396733.8679485238,10.180465358,2.6053092283,14.2589452257,1.736628876,4.0777480393,4.2021588732,7.2333922506,7.3965899916,9.4669326339,3.1936992899,2.2320767265,6.9318789354,3.3488469181,11.2116116227,3.3488469181,2.821930445,0,5.3884527662-.4954478504,7.6995669636-1.4885390366,2.3096505406-.9923593577,4.2563141774-2.4106428646,5.8377954252-4.2563141774,1.5822130763-1.8449394844,2.7136198366-4.0543295294,3.3964157664-6.6296337918h11.2577168141c-.5891218901,4.2804645158-2.1164478337,8.1262229412-4.5819778309,11.5372752763-2.4655299972,3.4117841635-5.7221665325,6.0946672059-9.769909606,8.0486491271-4.047011245,1.9532500928-8.6604576987,2.9302410534-13.8396075325,2.9302410534-6.6062152819,0-12.3671687215-1.5661128507-17.2828603187-4.6983385521Z"/>
        <path d="M423.5444287226,151.350283556c-4.9164234257-3.0700202844-8.7387633412-7.3892717072-11.467751575-12.9562906116-2.7289882338-5.5662870759-4.0938482649-11.9939362197-4.0938482649-19.2829474313,0-7.3504848002,1.3648600311-13.8242391354,4.0938482649-19.4227266624,2.7289882338-5.5970238702,6.5513281493-9.9316436901,11.467751575-13.0016639745,4.9149597688-3.0707521129,10.5837028256-4.6061281693,17.0033018566-4.6061281693s12.0876102593,1.5353760564,17.0033018566,4.6061281693c4.9149597688,3.0700202844,8.7226631156,7.4046401044,11.4209145551,13.0016639745,2.6982514395,5.598487527,4.0477430735,12.0722418622,4.0477430735,19.4227266624,0,7.2890112117-1.349491634,13.7166603554-4.0477430735,19.2829474313-2.6982514395,5.5670189043-6.5059547863,9.8862703271-11.4209145551,12.9562906116-4.9156915973,3.0700202844-10.5837028256,4.6053963409-17.0033018566,4.6053963409s-12.0883420878-1.5353760564-17.0033018566-4.6053963409ZM452.247471768,142.2785382769c3.1790627212-2.4186929774,5.5436003944-5.6592292871,7.094344848-9.7223407577,1.5507444536-4.0631114706,2.3264825946-8.5448288059,2.3264825946-13.4451520061,0-4.9310599944-.775738141-9.4354640112-2.3264825946-13.513943879-1.5507444536-4.0777480393-3.9152821267-7.3424346874-7.094344848-9.7933281159-3.1790627212-2.4486979432-7.0789764508-3.6752424001-11.6997411888-3.6752424001-4.6522333607,0-8.5601972031,1.2265444569-11.7231596987,3.6752424001-3.1636943241,2.4508934285-5.5362821101,5.7155800766-7.1177633579,9.7933281159-1.5814812478,4.0784798677-2.372587786,8.5828838846-2.372587786,13.513943879,0,4.9003232001.7911065381,9.3820405355,2.372587786,13.4451520061s3.9540690338,7.3036477804,7.1177633579,9.7223407577c3.1629624957,2.4186929774,7.0709263381,3.6291372087,11.7231596987,3.6291372087,4.620764738,0,8.5206784676-1.2104442313,11.6997411888-3.6291372087Z"/>
      </g>
    </g>
  </g>
</svg>