<?xml version="1.0" encoding="UTF-8"?>
<svg id="Layer_2" data-name="Layer 2" xmlns="http://www.w3.org/2000/svg" viewBox="0 0 447.0468690808 419.1370884865">
  <defs>
    <style>
      .cls-1 {
        fill: #00ae56;
      }
    </style>
  </defs>
  <g id="Layer_1-2" data-name="Layer 1">
    <g>
      <rect class="cls-1" width="447.0468690808" height="419.1370884865"/>
      <g>
        <path d="M74.3645625416,234.1967969819c-4.002571468-2.550205565-7.0771183641-6.097851344-9.223044846-10.6435331794-2.1465223243-4.545085993-3.2193366046-9.7211691106-3.2193366046-15.5294410376,0-5.857726848,1.0984355045-11.0719438806,3.2950085922-15.6432469402,2.1968710089-4.5701113747,5.2898890201-8.1296740021,9.2799477973-10.681071252,3.9894629347-2.550205565,8.5848976123-3.8253083475,13.7868998752-3.8253083475,4.0654328435,0,7.770678943.7579115604,11.1169299835,2.2725429965,3.345655198,1.5152272785,6.0603132714,3.6680059482,8.1433783778,6.4577401667,2.0833630276,2.7909259034,3.3644242343,5.9911955505,3.8446732262,9.6020006262h-9.1661418947c-.4802489919-1.8429406104-1.3197909641-3.5410915124-2.5189238379-5.0944527058-1.1997287162-1.552765351-2.7524940672-2.7837757943-4.6588918955-3.6930313299-1.9066957495-.9086596931-4.1095251827-1.3638833033-6.6093820631-1.3638833033-3.4344357189,0-6.4520796637.8973386871-9.0526339134,2.6896326917-2.6008521709,1.7934856894-4.6207579805,4.3246242969-6.0600153502,7.5946075074-1.4395552909,3.2699832105-2.1590350151,7.0637119096-2.1590350151,11.3817819399,0,4.4187673996.7066691122,8.2887639287,2.1209011002,11.609393745,1.4139340668,3.3200339739,3.4213271856,5.8893064964,6.0224772777,7.7078175675,2.6005542497,1.8173193863,5.6435214974,2.7265749218,9.1283059009,2.7265749218,2.2975683782,0,4.3871877512-.4033853195,6.2685601978-1.2119434858,1.8807766042-.8079623239,3.465717446-1.9627049372,4.7536308406-3.4654195248,1.2876154734-1.5021187452,2.2090857786-3.3009670164,2.765006758-5.3977364985h9.1661418947c-.4802489919,3.4850823247-1.7234742049,6.6162342509-3.7308673237,9.3934557786-2.00769104,2.7778173701-4.6588918955,4.9621756882-7.9541984089,6.5530749542-3.2953065134,1.5903034236-7.05149714,2.3857530566-11.2682739586,2.3857530566-5.3783716198,0-10.0691410849-1.2751027825-14.0711167104-3.8253083475Z"/>
        <path d="M127.2545151066,187.7782889593c2.0434415853-6.7097815111,5.0455936272-12.9297805516,9.0067540469-18.6611888062h6.8262687046c-2.0225871006,2.7605379399-3.8664214746,6.3677679611-5.5306093585,10.8240734332-1.6644858051,4.4563054721-2.9815954783,9.2808415609-3.9501373349,14.4736082663-.9694356202,5.1939583902-1.453855509,10.2449145993-1.453855509,15.1534644695,0,4.9097415551.4844198889,9.9606977641,1.453855509,15.1534644695.9685418565,5.1945542327,2.2856515298,10.018494479,3.9501373349,14.4742041087,1.6641878839,4.4563054721,3.508022258,8.0641313357,5.5306093585,10.8240734332h-6.8262687046c-3.9611604197-5.7308124122-6.9633124616-11.9514072951-9.0067540469-18.6611888062-2.0437395065-6.7103773535-3.0653113386-13.973100632-3.0653113386-21.7905532052,0-7.8162608883,1.0215718321-15.0789841668,3.0653113386-21.7899573627Z"/>
        <path d="M188.8160603563,231.3587995272c-2.0437395065,6.7097815111-5.0458915484,12.930376394-9.0067540469,18.6611888062h-6.8259707834c2.0222891794-2.7599420975,3.8658256322-6.3677679611,5.5303114373-10.8240734332,1.6641878839-4.4557096297,2.9809996359-9.2796498761,3.9504352561-14.4742041087.9688397777-5.1927667054,1.4535575878-10.2437229144,1.4535575878-15.1534644695,0-4.9085498702-.4847178101-9.9595060793-1.4535575878-15.1534644695-.9694356202-5.1927667054-2.2862473722-10.0173027942-3.9504352561-14.4736082663-1.6644858051-4.4563054721-3.5080222579-8.0635354933-5.5303114373-10.8240734332h6.8259707834c3.9608624985,5.7314082546,6.9630145404,11.9514072951,9.0067540469,18.6611888062,2.0434415853,6.710973196,3.0656092598,13.9736964745,3.0656092598,21.7899573627,0,7.8174525731-1.0221676745,15.0801758516-3.0656092598,21.7905532052Z"/>
        <path d="M211.651423248,190.9791544488h46.8907131418v8.4085282555h-46.8907131418v-8.4085282555ZM211.651423248,213.553836281h46.8907131418v8.4091240979h-46.8907131418v-8.4091240979Z"/>
        <path d="M286.5127671932,234.1967969819c-4.0022735468-2.550205565-7.0768204429-6.097851344-9.2224490036-10.6435331794-2.1468202455-4.545085993-3.219932447-9.7211691106-3.219932447-15.5294410376,0-5.857726848,1.0987334257-11.0719438806,3.2956044346-15.6432469402,2.1968710089-4.5701113747,5.2892931777-8.1296740021,9.2796498761-10.681071252,3.9891650135-2.550205565,8.5848976123-3.8253083475,13.7871977965-3.8253083475,4.0648370011,0,7.7703810218.7579115604,11.1166320623,2.2725429965,3.345655198,1.5152272785,6.0603132714,3.6680059482,8.1433783778,6.4577401667,2.0830651064,2.7909259034,3.3647221555,5.9911955505,3.844375305,9.6020006262h-9.1658439735c-.4802489919-1.8429406104-1.3197909641-3.5410915124-2.5192217591-5.0944527058-1.1994307949-1.552765351-2.752196146-2.7837757943-4.6582960531-3.6930313299-1.907291592-.9086596931-4.1101210251-1.3638833033-6.6096799843-1.3638833033-3.4344357189,0-6.4517817425.8973386871-9.0526339134,2.6896326917-2.6008521709,1.7934856894-4.6207579805,4.3246242969-6.0603132714,7.5946075074-1.4389594485,3.2699832105-2.1587370939,7.0637119096-2.1587370939,11.3817819399,0,4.4187673996.7066691122,8.2887639287,2.1211990214,11.609393745,1.4139340668,3.3200339739,3.4213271856,5.8893064964,6.0221793564,7.7078175675,2.6002563284,1.8173193863,5.6438194186,2.7265749218,9.1283059009,2.7265749218,2.2975683782,0,4.3871877512-.4033853195,6.268858119-1.2119434858,1.880478683-.8079623239,3.4654195248-1.9627049372,4.7530349982-3.4654195248,1.2882113158-1.5021187452,2.2093836998-3.3009670164,2.7653046793-5.3977364985h9.1658439735c-.4796531495,3.4850823247-1.7231762836,6.6162342509-3.7305694025,9.3934557786-2.0073931188,2.7778173701-4.6588918955,4.9621756882-7.9544963301,6.5530749542-3.2950085922,1.5903034236-7.0511992188,2.3857530566-11.2679760374,2.3857530566-5.378669541,0-10.0691410849-1.2751027825-14.0714146316-3.8253083475Z"/>
        <path d="M344.8427610687,234.2724689695c-4.0028693892-2.4995589592-7.1149543579-6.0162209322-9.3368507485-10.5487942343-2.2218963906-4.5319774597-3.3331425072-9.7652614498-3.3331425072-15.6998519702,0-5.9846412839,1.1112461165-11.2554633465,3.3331425072-15.8136578728,2.2218963906-4.5570028414,5.3339813593-8.0861775053,9.3368507485-10.5857364645,4.0016777044-2.5001548016,8.6170731031-3.7502322024,13.8438028265-3.7502322024s9.8415292797,1.2500774008,13.8438028265,3.7502322024c4.0016777044,2.4995589592,7.1018458246,6.0287336231,9.2987168336,10.5857364645,2.1968710089,4.5581945262,3.2956044346,9.8290165889,3.2956044346,15.8136578728,0,5.9345905204-1.0987334257,11.1678745105-3.2956044346,15.6998519702-2.1968710089,4.5325733021-5.2970391292,8.0492352752-9.2987168336,10.5487942343-4.0022735468,2.4995589592-8.6170731031,3.74963636-13.8438028265,3.74963636s-9.8421251222-1.2500774008-13.8438028265-3.74963636ZM368.2122966914,226.8864063097c2.58833948-1.9692592038,4.5135063446-4.6076494473,5.7760964363-7.9157665727,1.2625900916-3.3081171255,1.8941830587-6.9570561161,1.8941830587-10.9468169721,0-4.0147862376-.631592967-7.6821963434-1.8941830587-11.0028261597-1.2625900917-3.3200339739-3.1877569563-5.9780870172-5.7760964363-7.9735632876-2.58833948-1.9936887431-5.7635837454-2.9923206419-9.5257327962-2.9923206419-3.787770275,0-6.969568807.9986318988-9.5447997537,2.9923206419-2.5758267891,1.9954762704-4.5075479204,4.6535293137-5.7951633938,7.9735632876-1.2876154734,3.3206298163-1.9317211313,6.9880399221-1.9317211313,11.0028261597,0,3.9897608559.6441056579,7.6386998466,1.9317211313,10.9468169721s3.2193366046,5.9465073689,5.7951633938,7.9157665727c2.5752309467,1.9692592038,5.7570294788,2.9547825694,9.5447997537,2.9547825694,3.7621490508,0,6.9373933162-.9855233655,9.5257327962-2.9547825694Z"/>
      </g>
    </g>
  </g>
</svg>