<?xml version="1.0" encoding="UTF-8"?>
<svg id="Layer_2" data-name="Layer 2" xmlns="http://www.w3.org/2000/svg" viewBox="0 0 339.2252413637 365.4659882783">
  <defs>
    <style>
      .cls-1 {
        fill: #ff2a2a;
      }
    </style>
  </defs>
  <g id="Layer_1-2" data-name="Layer 1">
    <g>
      <path class="cls-1" d="M322.4483009489,182.7331070809l.0001290762-.0002581524c43.7616131112-58.5310315521-3.8475038524-140.9926651156-76.4177667331-132.3594021771h-.0001290762l-.0001290762-.0001290762c-28.8083916171-67.1644235668-124.027012773-67.1644235668-152.8355334662,0v.0001290762h-.0002581524C20.6244797164,41.7401838128-26.9848953997,124.2018173763,16.7768467877,182.7328489284v.0003872287c-43.7617421874,58.5309024758,3.8476329286,140.9926651156,76.4177667331,132.3594021771h.0002581524v.0001290762c28.8085206933,67.1642944906,124.0271418492,67.1642944906,152.8355334662,0l.0001290762-.0001290762h.0001290762c72.5702628807,8.6332629385,120.1793798443-73.8284997012,76.4177667331-132.3594021771l-.0001290762-.0001290762Z"/>
      <g>
        <path d="M86.6148179475,139.9300156235c4.013671875-13.1806640625,9.9111328125-25.3994140625,17.6923828125-36.6572265625h13.4086914062c-3.97265625,5.4223632812-7.5947265625,12.5087890625-10.8637695312,21.26171875-3.26953125,8.7534179688-5.8564453125,18.2309570312-7.759765625,28.4321289062-1.9038085938,10.2021484375-2.85546875,20.1240234375-2.85546875,29.7666015625,0,9.6430664062.9516601562,19.5649414062,2.85546875,29.7661132812,1.9033203125,10.2021484375,4.490234375,19.6791992188,7.759765625,28.4321289062,3.2690429688,8.7529296875,6.8911132812,15.8393554688,10.8637695312,21.26171875h-13.4086914062c-7.78125-11.2573242188-13.6787109375-23.4760742188-17.6923828125-36.6572265625-4.0146484375-13.1811523438-6.021484375-27.4482421875-6.021484375-42.802734375,0-15.3540039062,2.0068359375-29.62109375,6.021484375-42.8032226562Z"/>
        <path d="M252.6104234162,225.5359726548c-4.0146484375,13.1811523438-9.912109375,25.3999023438-17.6923828125,36.6572265625h-13.4086914062c3.9731445312-5.4223632812,7.59375-12.5087890625,10.8637695312-21.26171875,3.2685546875-8.7529296875,5.85546875-18.2299804688,7.759765625-28.4321289062,1.9028320312-10.201171875,2.85546875-20.123046875,2.85546875-29.7661132812,0-9.642578125-.9526367188-19.564453125-2.85546875-29.7666015625-1.904296875-10.201171875-4.4912109375-19.6787109375-7.759765625-28.4321289062-3.2700195312-8.7529296875-6.890625-15.8393554688-10.8637695312-21.26171875h13.4086914062c7.7802734375,11.2578125,13.677734375,23.4765625,17.6923828125,36.6572265625,4.013671875,13.1821289062,6.021484375,27.44921875,6.021484375,42.8032226562,0,15.3544921875-2.0078125,29.6215820312-6.021484375,42.802734375Z"/>
      </g>
    </g>
  </g>
</svg>