<?xml version="1.0" encoding="UTF-8"?>
<svg id="Layer_2" data-name="Layer 2" xmlns="http://www.w3.org/2000/svg" viewBox="0 0 440.09364006 418.5538728298">
  <defs>
    <style>
      .cls-1 {
        fill: #ffca00;
      }
    </style>
  </defs>
  <g id="Layer_1-2" data-name="Layer 1">
    <g>
      <polygon class="cls-1" points="220.0468182341 341.0397860343 356.0431216576 418.5538728298 324.3479548336 265.2604895479 440.09364006 159.8733383173 284.5083976939 142.6469840153 220.0468182341 0 155.585083341 142.6469840153 0 159.8733383173 115.7455327171 265.2604895479 84.0503593774 418.5538728298 220.0468182341 341.0397860343"/>
      <path d="M199.90228878,272.2974442274c-6.5600585938-4.1796875-11.5991210938-9.9946289062-15.1162109375-17.4443359375-3.5180664062-7.44921875-5.2763671875-15.9326171875-5.2763671875-25.4521484375,0-9.6005859375,1.8002929688-18.1469726562,5.400390625-25.6381835938,3.6005859375-7.490234375,8.669921875-13.3251953125,15.2094726562-17.505859375,6.5385742188-4.1796875,14.0703125-6.2700195312,22.5961914062-6.2700195312,6.6630859375,0,12.7358398438,1.2416992188,18.2202148438,3.724609375,5.4833984375,2.4833984375,9.9326171875,6.0122070312,13.3466796875,10.5844726562,3.4145507812,4.5732421875,5.5141601562,9.8188476562,6.3012695312,15.7368164062h-15.0229492188c-.787109375-3.0205078125-2.1630859375-5.8041992188-4.1284179688-8.349609375-1.9663085938-2.544921875-4.5112304688-4.5625-7.6357421875-6.052734375-3.125-1.4897460938-6.7353515625-2.2348632812-10.8325195312-2.2348632812-5.62890625,0-10.5747070312,1.4697265625-14.8369140625,4.4077148438-4.2626953125,2.9389648438-7.5732421875,7.087890625-9.9321289062,12.4467773438-2.359375,5.3598632812-3.5385742188,11.5776367188-3.5385742188,18.654296875,0,7.2431640625,1.158203125,13.5854492188,3.4760742188,19.02734375,2.3173828125,5.4423828125,5.607421875,9.6528320312,9.8706054688,12.6328125,4.2622070312,2.9794921875,9.2495117188,4.4697265625,14.9609375,4.4697265625,3.765625,0,7.1904296875-.6616210938,10.2739257812-1.9868164062,3.0825195312-1.3237304688,5.6801757812-3.2172851562,7.791015625-5.6801757812,2.1103515625-2.4614257812,3.6206054688-5.41015625,4.5317382812-8.8461914062h15.0229492188c-.787109375,5.7114257812-2.8247070312,10.84375-6.1147460938,15.3955078125-3.2905273438,4.5532226562-7.6357421875,8.1323242188-13.0366210938,10.7397460938-5.4008789062,2.6069335938-11.5571289062,3.9106445312-18.4682617188,3.9106445312-8.8149414062,0-16.5029296875-2.0893554688-23.0620117188-6.26953125Z"/>
    </g>
  </g>
</svg>