<svg id="Capa_1" enable-background="new 0 0 512 512" viewBox="0 0 512 512" xmlns="http://www.w3.org/2000/svg" xmlns:xlink="http://www.w3.org/1999/xlink"><linearGradient id="SVGID_1_" gradientTransform="matrix(.707 .707 -.707 .707 267.644 -101.216)" gradientUnits="userSpaceOnUse" x1="231.916" x2="262.968" y1="448.271" y2="448.271"><stop offset="0" stop-color="#f5fbff"/><stop offset="1" stop-color="#dbd5ef"/></linearGradient><linearGradient id="lg1"><stop offset="0" stop-color="#dbd5ef" stop-opacity="0"/><stop offset=".2853" stop-color="#d9d2ee" stop-opacity=".285"/><stop offset=".4739" stop-color="#d4c9e9" stop-opacity=".474"/><stop offset=".6346" stop-color="#cbbae2" stop-opacity=".635"/><stop offset=".7795" stop-color="#bfa5d7" stop-opacity=".78"/><stop offset=".9126" stop-color="#af8aca" stop-opacity=".913"/><stop offset="1" stop-color="#a274bf"/></linearGradient><linearGradient id="SVGID_00000166641287646018949500000017380010002341362602_" gradientTransform="matrix(.707 .707 -.707 .707 267.644 -101.216)" gradientUnits="userSpaceOnUse" x1="230.024" x2="269.106" xlink:href="#lg1" y1="448.271" y2="448.271"/><linearGradient id="SVGID_00000155855522071230661670000002111509599760403841_" gradientUnits="userSpaceOnUse" x1="174.327" x2="234.374" xlink:href="#lg1" y1="337.674" y2="277.626"/><linearGradient id="lg2"><stop offset="0" stop-color="#ffa1ae"/><stop offset="1" stop-color="#ff4565"/></linearGradient><linearGradient id="SVGID_00000166670444973208342060000007985269686564300436_" gradientTransform="matrix(.707 .707 -.707 .707 267.644 -101.216)" gradientUnits="userSpaceOnUse" x1="196.584" x2="281.893" xlink:href="#lg2" y1="156.73" y2="156.73"/><linearGradient id="lg3"><stop offset="0" stop-color="#fe0364" stop-opacity="0"/><stop offset=".2343" stop-color="#f90362" stop-opacity=".234"/><stop offset=".5173" stop-color="#ea035b" stop-opacity=".517"/><stop offset=".8243" stop-color="#d20250" stop-opacity=".824"/><stop offset="1" stop-color="#c00148"/></linearGradient><linearGradient id="SVGID_00000165920867862399240910000000225378421253696939_" gradientTransform="matrix(.707 .707 -.707 .707 267.644 -101.216)" gradientUnits="userSpaceOnUse" x1="244.357" x2="244.357" xlink:href="#lg3" y1="100.4" y2="43.799"/><linearGradient id="SVGID_00000139270078043903788430000004696271080610795917_" gradientTransform="matrix(.707 .707 -.707 .707 267.644 -101.216)" gradientUnits="userSpaceOnUse" x1="241.493" x2="334.242" xlink:href="#lg3" y1="163.659" y2="153.059"/><linearGradient id="SVGID_00000126322378223997263100000007219453858328964268_" gradientTransform="matrix(.707 .707 -.707 .707 267.644 -101.216)" gradientUnits="userSpaceOnUse" x1="244.357" x2="244.357" xlink:href="#lg3" y1="222.298" y2="273.167"/><linearGradient id="SVGID_00000117673286165045716210000001908592556940738730_" gradientTransform="matrix(.707 .707 -.707 .707 267.644 -101.216)" gradientUnits="userSpaceOnUse" x1="244.357" x2="244.357" xlink:href="#lg2" y1=".361" y2="44.625"/><linearGradient id="SVGID_00000047037973188584937180000010447805302085388434_" gradientTransform="matrix(.707 .707 -.707 .707 267.644 -101.216)" gradientUnits="userSpaceOnUse" x1="309.146" x2="349.024" xlink:href="#lg3" y1="34.22" y2="54.365"/><linearGradient id="SVGID_00000021080106261186584110000006764350478684133551_" gradientTransform="matrix(.707 .707 -.707 .707 267.644 -101.216)" gradientUnits="userSpaceOnUse" x1="244.357" x2="244.357" xlink:href="#lg3" y1="25.439" y2="53.133"/><linearGradient id="SVGID_00000124133229075293263030000000582194375989163707_" gradientTransform="matrix(.707 .707 -.707 .707 267.644 -101.216)" gradientUnits="userSpaceOnUse" x1="244.357" x2="244.357" xlink:href="#lg2" y1="260.912" y2="292.712"/><linearGradient id="SVGID_00000074443025717820992750000016158365450615663284_" gradientTransform="matrix(.707 .707 -.707 .707 267.644 -101.216)" gradientUnits="userSpaceOnUse" x1="347.758" x2="398.094" xlink:href="#lg3" y1="276.49" y2="276.49"/><g><g><path d="m244.922 267.078-17.287-17.287-144.298 144.298c-28.972 28.972-54.318 61.354-75.483 96.436l-6.857 11.365c-3.578 5.931 3.181 12.691 9.112 9.112l11.365-6.857c35.082-21.165 67.465-46.511 96.436-75.483l144.298-144.298z" fill="url(#SVGID_1_)"/><path d="m244.922 267.078-17.287-17.287-144.298 144.298c-28.972 28.972-54.318 61.354-75.483 96.436l-6.857 11.365c-3.578 5.931 3.181 12.691 9.112 9.112l11.365-6.857c35.082-21.165 67.465-46.511 96.436-75.483l144.298-144.298z" fill="url(#SVGID_00000166641287646018949500000017380010002341362602_)"/><path d="m227.634 249.791-133.818 133.819 34.574 34.574 133.819-133.818-17.287-17.288z" fill="url(#SVGID_00000155855522071230661670000002111509599760403841_)"/></g><g><path d="m443.387 194.201 37.974-27.086-136.475-136.475-27.087 37.974c-37.385 52.412-87.326 83.594-140.167 91.315l-32.746 4.785 202.4 202.4 4.785-32.745c7.722-52.842 38.903-102.783 91.316-140.168z" fill="url(#SVGID_00000166670444973208342060000007985269686564300436_)"/><path d="m317.799 68.614c-14.824 20.782-31.627 38.212-49.797 52.179l123.204 123.204c13.967-18.17 31.397-34.973 52.179-49.797l37.974-27.086-136.473-136.474z" fill="url(#SVGID_00000165920867862399240910000000225378421253696939_)"/><path d="m352.072 334.368c7.721-52.841 38.903-102.782 91.315-140.168l37.974-27.086-87.741-87.741-167.037 167.036 120.704 120.704z" fill="url(#SVGID_00000139270078043903788430000004696271080610795917_)"/><path d="m177.632 159.928-32.745 4.785 202.4 202.4 4.785-32.745c3.143-21.511 10.176-42.54 20.944-62.438l-132.946-132.946c-19.898 10.769-40.927 17.801-62.438 20.944z" fill="url(#SVGID_00000126322378223997263100000007219453858328964268_)"/><g><path d="m469.118 172.863-129.98-129.981c-9.81-9.81-9.81-25.714 0-35.524 8.398-8.398 21.53-9.767 31.479-3.281l11.336 7.389c47.339 30.857 87.725 71.243 118.582 118.582l7.389 11.336c6.485 9.949 5.116 23.081-3.281 31.479-9.81 9.809-25.715 9.809-35.525 0z" fill="url(#SVGID_00000117673286165045716210000001908592556940738730_)"/><path d="m469.118 172.863c9.81 9.81 25.715 9.81 35.524 0 8.398-8.398 9.767-21.53 3.281-31.479l-7.389-11.336c-15.429-23.669-33.239-45.601-53.111-65.472l-43.296 43.296z" fill="url(#SVGID_00000047037973188584937180000010447805302085388434_)"/><path d="m339.138 7.358c-9.81 9.81-9.81 25.714 0 35.524l129.98 129.98c9.81 9.81 25.715 9.81 35.524 0 5.105-5.105 7.595-11.959 7.32-18.784l-154.04-154.04c-6.825-.275-13.68 2.215-18.784 7.32z" fill="url(#SVGID_00000021080106261186584110000006764350478684133551_)"/></g><g><path d="m330.394 377.633-196.027-196.027c-6.926-6.926-6.926-18.156 0-25.082s18.156-6.926 25.082 0l196.027 196.027c6.926 6.926 6.926 18.156 0 25.082s-18.156 6.926-25.082 0z" fill="url(#SVGID_00000124133229075293263030000000582194375989163707_)"/><path d="m355.476 352.551-59.697-59.697-25.082 25.082 59.697 59.697c6.926 6.926 18.156 6.926 25.082 0s6.926-18.156 0-25.082z" fill="url(#SVGID_00000074443025717820992750000016158365450615663284_)"/></g></g></g><g/><g/><g/><g/><g/><g/><g/><g/><g/><g/><g/><g/><g/><g/><g/></svg>