<svg id="Capa_1" enable-background="new 0 0 510 510" height="512" viewBox="0 0 510 510" width="512" xmlns="http://www.w3.org/2000/svg" xmlns:xlink="http://www.w3.org/1999/xlink"><linearGradient id="lg1"><stop offset="0" stop-color="#deecf1"/><stop offset="1" stop-color="#d9b1ee"/></linearGradient><linearGradient id="SVGID_1_" gradientUnits="userSpaceOnUse" x1="98.13" x2="174.875" xlink:href="#lg1" y1="327.304" y2="485.494"/><linearGradient id="lg2"><stop offset="0" stop-color="#8379c1" stop-opacity="0"/><stop offset=".2831" stop-color="#8374be" stop-opacity=".283"/><stop offset=".5864" stop-color="#8268b5" stop-opacity=".586"/><stop offset=".898" stop-color="#8152a6" stop-opacity=".898"/><stop offset="1" stop-color="#814aa0"/></linearGradient><linearGradient id="SVGID_00000150787590905620562500000003621784853982341279_" gradientUnits="userSpaceOnUse" x1="111.536" x2="144.601" xlink:href="#lg2" y1="435.919" y2="419.213"/><linearGradient id="SVGID_00000013891590596752243870000013183336996971408540_" gradientUnits="userSpaceOnUse" x1="136.035" x2="163.183" y1="110.633" y2="161.1"><stop offset="0" stop-color="#9be69d"/><stop offset="1" stop-color="#0bb494"/></linearGradient><linearGradient id="SVGID_00000144305881142986195360000014655683982907770014_" gradientUnits="userSpaceOnUse" x1="151.267" x2="132.733" y1="150.284" y2="117.393"><stop offset="0" stop-color="#01525a" stop-opacity="0"/><stop offset="1" stop-color="#01525a"/></linearGradient><linearGradient id="SVGID_00000003806346387430945170000017561914702243760030_" gradientUnits="userSpaceOnUse" x1="283.266" x2="325.348" y1="93.657" y2="93.657"><stop offset="0" stop-color="#deecf1"/><stop offset="1" stop-color="#8ebac5"/></linearGradient><linearGradient id="SVGID_00000025421299343927354670000015458090794148175251_" gradientUnits="userSpaceOnUse" x1="304.671" x2="304.671" y1="83.858" y2="62.948"><stop offset="0" stop-color="#678d98" stop-opacity="0"/><stop offset=".2265" stop-color="#638892" stop-opacity=".227"/><stop offset=".5216" stop-color="#597b82" stop-opacity=".522"/><stop offset=".8533" stop-color="#476567" stop-opacity=".853"/><stop offset="1" stop-color="#3e5959"/></linearGradient><linearGradient id="lg3"><stop offset="0" stop-color="#a6e7f0"/><stop offset=".1713" stop-color="#90e2ed"/><stop offset=".5295" stop-color="#56d7e7"/><stop offset="1" stop-color="#02c7dd"/></linearGradient><linearGradient id="SVGID_00000088091454456502982000000014255667330500469391_" gradientUnits="userSpaceOnUse" x1="166.423" x2="331.551" xlink:href="#lg3" y1="214.981" y2="380.11"/><linearGradient id="lg4"><stop offset="0" stop-color="#0199b1" stop-opacity="0"/><stop offset="1" stop-color="#0199b1"/></linearGradient><linearGradient id="SVGID_00000111891354833978110170000013922101028199482527_" gradientUnits="userSpaceOnUse" x1="304.671" x2="304.671" xlink:href="#lg4" y1="314.337" y2="491.72"/><linearGradient id="SVGID_00000150792951427957301180000014420668315471336079_" gradientUnits="userSpaceOnUse" x1="300.218" x2="441.075" xlink:href="#lg4" y1="293.28" y2="434.137"/><linearGradient id="SVGID_00000018951777633455449240000005578807943320222340_" gradientUnits="userSpaceOnUse" x1="437.662" x2="146.4" xlink:href="#lg3" y1="430.724" y2="139.462"/><linearGradient id="SVGID_00000052812121735338390980000004723657450351246483_" gradientUnits="userSpaceOnUse" x1="427.584" x2="385.795" xlink:href="#lg4" y1="311.78" y2="269.99"/><linearGradient id="SVGID_00000032617596494535256280000017843640404076120983_" gradientUnits="userSpaceOnUse" x1="233.147" x2="383.55" y1="226.209" y2="376.612"><stop offset="0" stop-color="#f9f5f3"/><stop offset="1" stop-color="#efe2dd"/></linearGradient><linearGradient id="lg5"><stop offset="0" stop-color="#9e9797" stop-opacity="0"/><stop offset=".3104" stop-color="#968f8f" stop-opacity=".31"/><stop offset=".7849" stop-color="#827a7a" stop-opacity=".785"/><stop offset="1" stop-color="#766e6e"/></linearGradient><linearGradient id="SVGID_00000106127462196493833170000013134316546756093592_" gradientUnits="userSpaceOnUse" x1="304.671" x2="304.671" xlink:href="#lg5" y1="235.084" y2="102.473"/><linearGradient id="SVGID_00000005972627368796297200000008418413958997439633_" gradientUnits="userSpaceOnUse" x1="273.087" x2="124.817" xlink:href="#lg5" y1="279.717" y2="195.14"/><linearGradient id="SVGID_00000059281644043590804540000005004120532855230102_" gradientUnits="userSpaceOnUse" x1="416.04" x2="343.242" xlink:href="#lg5" y1="336.55" y2="263.752"/><linearGradient id="SVGID_00000019652707250098194600000003590381000012719773_" gradientUnits="userSpaceOnUse" x1="287.546" x2="333.488" xlink:href="#lg1" y1="159.719" y2="226.023"/><linearGradient id="SVGID_00000144313088523761061920000004783840286767055038_" gradientUnits="userSpaceOnUse" x1="257.133" x2="303.076" xlink:href="#lg1" y1="180.793" y2="247.096"/><linearGradient id="SVGID_00000047058855627277542240000002952647692648492197_" gradientUnits="userSpaceOnUse" x1="337.074" x2="383.017" xlink:href="#lg1" y1="125.4" y2="191.704"/><linearGradient id="SVGID_00000128464361139104916140000002734499945809132184_" gradientUnits="userSpaceOnUse" x1="274.872" x2="320.814" xlink:href="#lg1" y1="168.501" y2="234.805"/><linearGradient id="SVGID_00000036964209773637016850000015025948036460075664_" gradientUnits="userSpaceOnUse" x1="380.758" x2="424.091" y1="181.57" y2="225.424"><stop offset="0" stop-color="#5a5a5a"/><stop offset="1" stop-color="#444"/></linearGradient><linearGradient id="lg6"><stop offset="0" stop-color="#766e6e" stop-opacity="0"/><stop offset="1" stop-color="#1a1a1a"/></linearGradient><linearGradient id="SVGID_00000170260562875382855680000013573250798665345959_" gradientTransform="matrix(.707 .707 -.707 .707 -2023.249 272.864)" gradientUnits="userSpaceOnUse" x1="1664.2" x2="1664.2" xlink:href="#lg6" y1="-1738.761" y2="-1669.392"/><linearGradient id="SVGID_00000066508165659156213800000012108684776915526784_" gradientTransform="matrix(.707 .707 -.707 .707 -2023.249 272.864)" gradientUnits="userSpaceOnUse" x1="1692.11" x2="1647.609" xlink:href="#lg6" y1="-1768.142" y2="-1758.702"/><linearGradient id="SVGID_00000127040348475312898510000003736964600816975761_" gradientUnits="userSpaceOnUse" x1="277.314" x2="318.196" y1="271.12" y2="312.002"><stop offset="0" stop-color="#ffa1ae"/><stop offset="1" stop-color="#ff4565"/></linearGradient><linearGradient id="lg7"><stop offset="0" stop-color="#fd4755" stop-opacity="0"/><stop offset=".2586" stop-color="#f74453" stop-opacity=".259"/><stop offset=".6211" stop-color="#e53b4c" stop-opacity=".621"/><stop offset="1" stop-color="#ca2e43"/></linearGradient><linearGradient id="SVGID_00000047058952919068465380000017570108850193740160_" gradientUnits="userSpaceOnUse" x1="304.671" x2="304.671" xlink:href="#lg7" y1="299.121" y2="358.921"/><linearGradient id="SVGID_00000001651848607762412960000010552865972244218263_" gradientTransform="matrix(.707 -.707 .707 .707 1249.646 -1574.912)" gradientUnits="userSpaceOnUse" x1="-1992.884" x2="-1992.884" xlink:href="#lg7" y1="657.132" y2="720.079"/><linearGradient id="lg8"><stop offset="0" stop-color="#deecf1" stop-opacity="0"/><stop offset="1" stop-color="#d9b1ee"/></linearGradient><linearGradient id="SVGID_00000031205507130055808080000009834465677231328924_" gradientUnits="userSpaceOnUse" x1="393.946" x2="349.048" xlink:href="#lg8" y1="221.86" y2="221.86"/><linearGradient id="SVGID_00000088115863429974550290000007049615025649374909_" gradientUnits="userSpaceOnUse" x1="374.63" x2="339.635" xlink:href="#lg8" y1="158.512" y2="158.512"/><linearGradient id="SVGID_00000042708425986012126560000014589103535588306082_" gradientUnits="userSpaceOnUse" x1="304.671" x2="304.671" y1="15.292" y2="64.019"><stop offset="0" stop-color="#fff5c6"/><stop offset="1" stop-color="#fee45a"/></linearGradient><linearGradient id="SVGID_00000177476009238111563960000018151675054324959109_" gradientUnits="userSpaceOnUse" x1="304.671" x2="304.671" y1="15.814" y2="72.806"><stop offset="0" stop-color="#e8b800" stop-opacity="0"/><stop offset=".9994" stop-color="#e8b800" stop-opacity=".999"/><stop offset="1" stop-color="#e8b800"/></linearGradient><linearGradient id="SVGID_00000029033875375770290930000005980040007490528648_" gradientUnits="userSpaceOnUse" x1="57.876" x2="134.621" xlink:href="#lg1" y1="338.729" y2="496.918"/><linearGradient id="SVGID_00000030472880858356456440000009475738253487352728_" gradientUnits="userSpaceOnUse" x1="13.622" x2="90.367" xlink:href="#lg1" y1="368.304" y2="526.493"/><linearGradient id="SVGID_00000170980076349151900810000011895782909215428520_" gradientUnits="userSpaceOnUse" x1="120.861" x2="86.665" xlink:href="#lg8" y1="388.652" y2="388.652"/><linearGradient id="SVGID_00000020400956483926694710000008304177103969710514_" gradientUnits="userSpaceOnUse" x1="152.446" x2="62.127" xlink:href="#lg8" y1="451.301" y2="451.301"/><linearGradient id="SVGID_00000121265775748786078600000013069631788620751035_" gradientUnits="userSpaceOnUse" x1="40.796" x2="117.541" xlink:href="#lg1" y1="355.12" y2="513.309"/><linearGradient id="SVGID_00000165226919374348573980000012141439498675772568_" gradientUnits="userSpaceOnUse" x1="162.366" x2="119.033" xlink:href="#lg2" y1="357.327" y2="357.327"/><linearGradient id="SVGID_00000005257043862959763280000005937283515877476006_" gradientUnits="userSpaceOnUse" x1="250.597" x2="191.602" xlink:href="#lg2" y1="451.301" y2="451.301"/><linearGradient id="SVGID_00000119811861186196719330000000449782100094834057_" gradientUnits="userSpaceOnUse" x1="44.598" x2="121.343" xlink:href="#lg1" y1="111.79" y2="269.979"/><linearGradient id="SVGID_00000075127180625956888810000000104521259414308781_" gradientUnits="userSpaceOnUse" x1="41.393" x2="137.751" xlink:href="#lg1" y1="82.033" y2="280.647"/><linearGradient id="SVGID_00000020381086248812816810000006609375059197354662_" gradientUnits="userSpaceOnUse" x1="137.828" x2="86.199" xlink:href="#lg8" y1="132.138" y2="132.138"/><g><path d="m158.752 427.807c4.325 0 7.831-3.506 7.831-7.831s-3.506-7.831-7.831-7.831h-31.325c-4.325 0-7.831 3.506-7.831 7.831s3.506 7.831 7.831 7.831z" fill="url(#SVGID_1_)"/><path d="m158.752 427.807c4.325 0 7.831-3.506 7.831-7.831s-3.506-7.831-7.831-7.831h-31.325c-4.325 0-7.831 3.506-7.831 7.831s3.506 7.831 7.831 7.831z" fill="url(#SVGID_00000150787590905620562500000003621784853982341279_)"/><g><path d="m199.511 109.086-4.286-4.286c-11.164-11.164-29.265-11.164-40.429 0l-19.507 19.507h-39.053c-4.325 0-7.831 3.506-7.831 7.831s3.506 7.831 7.831 7.831h23.39l-6.743 6.743c-11.164 11.164-11.164 29.265 0 40.429l4.286 4.286c11.164 11.164 29.265 11.164 40.429 0l41.912-41.912c11.165-11.164 11.165-29.265.001-40.429z" fill="url(#SVGID_00000013891590596752243870000013183336996971408540_)"/><path d="m119.626 139.969-6.743 6.743c-11.164 11.164-11.164 29.265 0 40.429l4.286 4.286c11.164 11.164 29.265 11.164 40.429 0l41.912-41.912c2.815-2.815 4.918-6.072 6.313-9.546z" fill="url(#SVGID_00000144305881142986195360000014655683982907770014_)"/><path d="m263.648 127.17 9.147-76.604c1.286-10.773 15.174-19.09 31.876-19.09 16.702 0 30.59 8.317 31.876 19.09l9.147 76.604c1.846 15.463-17.05 28.669-41.023 28.669-23.972 0-42.869-13.206-41.023-28.669z" fill="url(#SVGID_00000003806346387430945170000017561914702243760030_)"/><path d="m263.648 127.17 9.147-76.604c1.286-10.773 15.174-19.09 31.876-19.09 16.702 0 30.59 8.317 31.876 19.09l9.147 76.604c1.846 15.463-17.05 28.669-41.023 28.669-23.972 0-42.869-13.206-41.023-28.669z" fill="url(#SVGID_00000025421299343927354670000015458090794148175251_)"/><g><path d="m449.861 152.544c-80.186-80.186-210.193-80.186-290.378 0-61.722 61.722-75.923 152.96-42.625 228.276h-30.715c-4.325 0-7.831 3.506-7.831 7.831s3.506 7.831 7.831 7.831h38.459c9.146 16.66 20.765 32.324 34.881 46.44.185.185.375.363.561.547h-92.1c-4.325 0-7.831 3.506-7.831 7.831s3.506 7.831 7.831 7.831h108.807c.31 0 .614-.023.914-.058 80.587 63.599 197.82 58.225 272.197-16.152 80.184-80.184 80.184-210.191-.001-290.377z" fill="url(#SVGID_00000088091454456502982000000014255667330500469391_)"/><path d="m99.343 297.733c0 113.399 91.929 205.329 205.329 205.329s205.329-91.929 205.329-205.329c0-24.56-4.327-48.105-12.234-69.934h-386.19c-7.908 21.83-12.234 45.374-12.234 69.934z" fill="url(#SVGID_00000111891354833978110170000013922101028199482527_)"/><path d="m159.482 442.922c80.185 80.185 210.193 80.186 290.378 0 80.186-80.186 80.185-210.193 0-290.378-17.366-17.366-37.074-30.956-58.102-40.8l-273.076 273.076c9.844 21.028 23.434 40.736 40.8 58.102z" fill="url(#SVGID_00000150792951427957301180000014420668315471336079_)"/></g><circle cx="304.671" cy="297.733" fill="url(#SVGID_00000018951777633455449240000005578807943320222340_)" r="180.551"/><path d="m268.726 334.423 140.237 140.237c14.597-8.618 28.357-19.197 40.898-31.738 80.061-80.061 80.18-209.786.367-290.002z" fill="url(#SVGID_00000052812121735338390980000004723657450351246483_)"/><g><circle cx="304.671" cy="297.733" fill="url(#SVGID_00000032617596494535256280000017843640404076120983_)" r="153.972"/><circle cx="304.671" cy="297.733" fill="url(#SVGID_00000106127462196493833170000013134316546756093592_)" r="153.972"/><circle cx="304.671" cy="297.733" fill="url(#SVGID_00000005972627368796297200000008418413958997439633_)" r="153.972"/><path d="m268.726 334.423 102.289 102.289c15.378-7.341 29.795-17.368 42.531-30.105 60.005-60.005 60.124-157.213.368-217.372z" fill="url(#SVGID_00000059281644043590804540000005004120532855230102_)"/></g><g><g><path d="m270.877 166.429h31.665c4.372 0 7.916-3.544 7.916-7.916s-3.544-7.916-7.916-7.916h-31.665c-4.372 0-7.916 3.544-7.916 7.916-.001 4.371 3.544 7.916 7.916 7.916z" fill="url(#SVGID_00000019652707250098194600000003590381000012719773_)"/><path d="m279.468 182.261h-31.665c-4.372 0-7.916 3.544-7.916 7.916s3.544 7.916 7.916 7.916h31.665c4.372 0 7.916-3.544 7.916-7.916s-3.544-7.916-7.916-7.916z" fill="url(#SVGID_00000144313088523761061920000004783840286767055038_)"/><path d="m436.953 182.261h-109.988c-4.372 0-7.916 3.544-7.916 7.916s3.544 7.916 7.916 7.916h109.988c4.372 0 7.916-3.544 7.916-7.916s-3.544-7.916-7.916-7.916z" fill="url(#SVGID_00000047058855627277542240000002952647692648492197_)"/><path d="m320.101 213.926h-16.537c-4.372 0-7.916 3.544-7.916 7.916s3.544 7.916 7.916 7.916h16.537c4.372 0 7.916-3.544 7.916-7.916s-3.544-7.916-7.916-7.916z" fill="url(#SVGID_00000128464361139104916140000002734499945809132184_)"/></g><g><path d="m485.896 102.342-17.294 4.073c-1.104.26-2.204.533-3.299.818-27.259 7.092-51.564 22.439-70.252 43.364h-45.012c-4.372 0-7.916 3.544-7.916 7.916s3.544 7.916 7.916 7.916h32.256l-91.69 117.983 28.132 28.132 125.959-97.888c24.94-19.382 43.267-46.241 51.22-76.809.285-1.096.558-2.196.818-3.299l4.073-17.294c2.112-8.967-5.945-17.024-14.911-14.912z" fill="url(#SVGID_00000036964209773637016850000015025948036460075664_)"/><path d="m445.389 214.095c-6.769-11.268-15.001-21.903-24.716-31.619-9.715-9.715-20.35-17.948-31.619-24.716-.184.233-.378.457-.56.692l-97.889 125.959 28.132 28.132 125.959-97.889c.235-.181.459-.375.693-.559z" fill="url(#SVGID_00000170260562875382855680000013573250798665345959_)"/><path d="m318.738 312.544 125.959-97.889c24.94-19.382 43.267-46.241 51.22-76.809.285-1.096.558-2.196.818-3.299l4.073-17.294c1.056-4.483-.43-8.739-3.301-11.61l-192.836 192.835z" fill="url(#SVGID_00000066508165659156213800000012108684776915526784_)"/></g><g><circle cx="304.671" cy="298.478" fill="url(#SVGID_00000127040348475312898510000003736964600816975761_)" r="50.835"/><path d="m253.836 298.478c0 28.075 22.76 50.835 50.835 50.835s50.835-22.76 50.835-50.835c0-6.08-1.071-11.91-3.029-17.314h-95.612c-1.957 5.404-3.029 11.233-3.029 17.314z" fill="url(#SVGID_00000047058952919068465380000017570108850193740160_)"/><path d="m268.726 334.423c19.852 19.852 52.039 19.852 71.891 0s19.852-52.039 0-71.891c-4.3-4.3-9.179-7.664-14.385-10.101l-67.608 67.608c2.438 5.205 5.802 10.085 10.102 14.384z" fill="url(#SVGID_00000001651848607762412960000010552865972244218263_)"/></g><path d="m403.235 213.944h-35.996c-4.204.189-7.557 3.647-7.557 7.898 0 4.372 3.544 7.916 7.916 7.916h10.941v.018h24.697c4.372 0 7.916-3.544 7.916-7.916-.001-4.372-3.545-7.916-7.917-7.916z" fill="url(#SVGID_00000031205507130055808080000009834465677231328924_)"/><path d="m350.039 166.428h52.871c4.372 0 7.916-3.544 7.916-7.916s-3.544-7.916-7.916-7.916h-52.871c-4.372 0-7.916 3.544-7.916 7.916-.001 4.372 3.544 7.916 7.916 7.916z" fill="url(#SVGID_00000088115863429974550290000007049615025649374909_)"/></g><g><path d="m361.839 67.499h-114.335c-6.776 0-12.269-5.493-12.269-12.269v-36.023c0-6.776 5.493-12.269 12.269-12.269h114.335c6.776 0 12.269 5.493 12.269 12.269v36.023c0 6.776-5.493 12.269-12.269 12.269z" fill="url(#SVGID_00000042708425986012126560000014589103535588306082_)"/><g fill="url(#SVGID_00000177476009238111563960000018151675054324959109_)"><path d="m337.848 67.499h-66.354c-5.32 0-9.633-4.313-9.633-9.633v-41.294c0-5.32 4.313-9.633 9.633-9.633h66.354c5.32 0 9.633 4.313 9.633 9.633v41.294c.001 5.32-4.312 9.633-9.633 9.633z"/><path d="m314.507 67.499h-19.671c-3.218 0-5.827-2.609-5.827-5.827v-48.907c0-3.218 2.609-5.827 5.827-5.827h19.671c3.218 0 5.827 2.609 5.827 5.827v48.907c0 3.218-2.609 5.827-5.827 5.827z"/></g></g></g><g><path d="m51.236 365.158h31.325c4.325 0 7.831-3.506 7.831-7.831s-3.506-7.831-7.831-7.831h-31.325c-4.325 0-7.831 3.506-7.831 7.831s3.506 7.831 7.831 7.831z" fill="url(#SVGID_00000029033875375770290930000005980040007490528648_)"/><path d="m39.156 380.82h-31.325c-4.325 0-7.831 3.506-7.831 7.831s3.506 7.831 7.831 7.831h31.325c4.325 0 7.831-3.506 7.831-7.831s-3.506-7.831-7.831-7.831z" fill="url(#SVGID_00000030472880858356456440000009475738253487352728_)"/><path d="m194.949 380.82h-108.806c-4.325 0-7.831 3.506-7.831 7.831s3.506 7.831 7.831 7.831h108.807c4.325 0 7.831-3.506 7.831-7.831s-3.507-7.831-7.832-7.831z" fill="url(#SVGID_00000170980076349151900810000011895782909215428520_)"/><path d="m176.749 443.47h-108.806c-4.325 0-7.831 3.506-7.831 7.831s3.506 7.831 7.831 7.831h108.807c4.325 0 7.831-3.506 7.831-7.831s-3.507-7.831-7.832-7.831z" fill="url(#SVGID_00000020400956483926694710000008304177103969710514_)"/><path d="m80.441 427.807c4.325 0 7.831-3.506 7.831-7.831s-3.506-7.831-7.831-7.831h-16.36c-4.325 0-7.831 3.506-7.831 7.831s3.506 7.831 7.831 7.831z" fill="url(#SVGID_00000121265775748786078600000013069631788620751035_)"/><path d="m129.497 365.158h31.001c4.325 0 7.831-3.506 7.831-7.831s-3.506-7.831-7.831-7.831h-31.001c-4.325 0-7.831 3.506-7.831 7.831s3.506 7.831 7.831 7.831z" fill="url(#SVGID_00000165226919374348573980000012141439498675772568_)"/><path d="m242.009 443.47h-31.325c-4.325 0-7.831 3.506-7.831 7.831s3.506 7.831 7.831 7.831h31.325c4.325 0 7.831-3.506 7.831-7.831s-3.506-7.831-7.831-7.831z" fill="url(#SVGID_00000005257043862959763280000005937283515877476006_)"/></g><path d="m70.132 124.307h-31.324c-4.325 0-7.831 3.506-7.831 7.831s3.506 7.831 7.831 7.831h31.325c4.325 0 7.831-3.506 7.831-7.831-.001-4.325-3.507-7.831-7.832-7.831z" fill="url(#SVGID_00000119811861186196719330000000449782100094834057_)"/><path d="m95.755 171.294c4.325 0 7.831-3.506 7.831-7.831s-3.506-7.831-7.831-7.831h-29.712c-4.325 0-7.831 3.506-7.831 7.831s3.506 7.831 7.831 7.831z" fill="url(#SVGID_00000075127180625956888810000000104521259414308781_)"/><path d="m184.815 124.307h-88.579c-4.325 0-7.831 3.506-7.831 7.831s3.506 7.831 7.831 7.831h88.579c4.325 0 7.831-3.506 7.831-7.831s-3.506-7.831-7.831-7.831z" fill="url(#SVGID_00000020381086248812816810000006609375059197354662_)"/></g></svg>