<svg xmlns="http://www.w3.org/2000/svg" viewBox="0 0 218.12 403.27"><g id="Layer_2" data-name="Layer 2"><g id="Layer_6" data-name="Layer 6"><path d="M188.83,0H29.29A29.32,29.32,0,0,0,0,29.29V374a29.32,29.32,0,0,0,29.29,29.29H188.83A29.32,29.32,0,0,0,218.12,374V29.29A29.32,29.32,0,0,0,188.83,0ZM29.29,391.27A17.31,17.31,0,0,1,12,374v-30.1H206.12V374a17.31,17.31,0,0,1-17.29,17.29ZM12,29.29A17.31,17.31,0,0,1,29.29,12H188.83a17.31,17.31,0,0,1,17.29,17.29V40.76H12ZM61.92,214.9c.54-5.14-1.4-15.12-12-22.44C40.75,186.18,33.34,166,36.74,143,40,121.08,56.07,112,64,112h5.9c7.88,0,24,9.12,27.2,31.07,3.4,22.94-4,43.15-13.14,49.43-10.64,7.32-12.58,17.3-12,22.44v117H62Zm87.5,0c.55-5.14-1.4-15.12-12-22.44-4.11-2.83-9-6.71-10.72-11.88l1.8-22.35a14.52,14.52,0,0,0,25.94,3.9,14.53,14.53,0,0,0,25.94-3.9l1.8,22.35c-1.75,5.17-6.61,9-10.73,11.88-10.64,7.32-12.58,17.3-12,22.44v117h-9.91Zm21.9-1.18c-.07-.92-.19-6.5,6.89-11.38,6.07-4.17,13.34-10.16,15.81-19.61a5.86,5.86,0,0,0,.17-2l-5.87-72.88a9.51,9.51,0,0,0-10.41-8.71l-2.13.21a9.52,9.52,0,0,0-8.58,9.84L169,153.92a2.47,2.47,0,0,1-.7,1.84,2.52,2.52,0,0,1-4.34-1.74V109.38a9.52,9.52,0,0,0-19,0V154a2.52,2.52,0,0,1-2.52,2.52,2.47,2.47,0,0,1-1.81-.78,2.51,2.51,0,0,1-.71-1.84l1.76-44.73A9.53,9.53,0,0,0,133,99.35l-2.13-.21a9.5,9.5,0,0,0-10.4,8.71l-5.88,72.88a6.13,6.13,0,0,0,.18,2c2.47,9.45,9.74,15.45,15.8,19.61,7.08,4.88,7,10.46,6.9,11.38a3.6,3.6,0,0,0-.06.82l0,117.34H83.86V214.53a3.57,3.57,0,0,0-.05-.81c-.07-.92-.19-6.5,6.89-11.38,12.3-8.45,22.5-32.14,18.21-61.07C104.74,113.09,83.14,100,69.85,100H64c-13.29,0-34.9,13.13-39.08,41.31-4.28,28.93,5.92,52.62,18.21,61.07,7.08,4.88,7,10.46,6.89,11.38a3.62,3.62,0,0,0,0,.82l0,117.34H12V52.76H206.12V331.88H171.37V214.53A3.57,3.57,0,0,0,171.32,213.72Z"/><path d="M108.5,348.18A18.81,18.81,0,1,0,127.31,367,18.83,18.83,0,0,0,108.5,348.18Zm0,25.62a6.81,6.81,0,1,1,6.81-6.81A6.82,6.82,0,0,1,108.5,373.8Z"/></g></g></svg>