<svg xmlns="http://www.w3.org/2000/svg" viewBox="0 0 310.99 448.34"><g id="Layer_2" data-name="Layer 2"><g id="Layer_6" data-name="Layer 6"><path d="M310.68,440.45,311,236.82a205.34,205.34,0,0,0-12.29-70.36l-33.5-92.6V32.64A32.7,32.7,0,0,0,240.79,1.07,6,6,0,0,0,237.38,0H46.16A24.14,24.14,0,0,0,22.05,24.12V50.94a32.71,32.71,0,0,0,21,30.51l-30.8,85.13A205.3,205.3,0,0,0,0,236.67V442.34a6,6,0,0,0,6,6H305a6,6,0,0,0,5.68-7.89ZM224,190.83a195.3,195.3,0,0,1,6.09-20.16l22.51-62.24V394.65l-34.09,33.41V236.67A193.32,193.32,0,0,1,224,190.83ZM34.05,24.12A12.13,12.13,0,0,1,46.16,12H211.67a24,24,0,0,0-3.28,12.12v27a32.27,32.27,0,0,0,4.86,17,31.77,31.77,0,0,0,2.66,3.72L54.66,71.59A20.75,20.75,0,0,1,34.05,50.94ZM253.16,68.21v3.71h-.1l-9.22-.09V26.68h-12V69.6l-.46-.23a19,19,0,0,1-1.93-1.16,20.64,20.64,0,0,1-9.06-17v-27a12.13,12.13,0,0,1,11-12.06,10.55,10.55,0,0,1,1.13-.06,20.74,20.74,0,0,1,20.65,20.64ZM12,236.67a193.39,193.39,0,0,1,11.57-66L55.08,83.59,237.37,84h0a6,6,0,0,0,1.65-.24c.57,0,1.13.06,1.7.06l8,.08-29.93,82.7c-1,2.82-2,5.66-2.87,8.5s-1.72,5.72-2.49,8.59c-.38,1.44-.75,2.88-1.1,4.33a205.49,205.49,0,0,0-5.83,48.67h0V436.34H12ZM227.19,436.34l31.55-30.92,31.56,30.92Zm37.39-42V107.55l22.8,63A193.42,193.42,0,0,1,299,236.8l-.25,191Z"/><path d="M109.66,217.26a79.6,79.6,0,0,0-79.51,79.51c0,1.39,0,2.78.11,4.16,0,.62.1,1.23.14,1.85s.11,1.5.18,2.25.19,1.46.28,2.2.16,1.24.25,1.86.26,1.47.4,2.2.22,1.22.34,1.83.32,1.38.48,2.07.31,1.3.48,1.94.35,1.26.53,1.88.42,1.41.64,2.1.38,1.13.57,1.69c.26.75.53,1.5.82,2.24.2.52.4,1,.61,1.55.3.75.63,1.51,1,2.26.13.29.24.58.37.87,0,.09.1.18.14.26A79.48,79.48,0,0,0,186,318.89l.07-.18c.07-.25.13-.5.2-.76.59-2.13,1.09-4.31,1.51-6.51.09-.51.19-1,.27-1.52s.19-1.16.28-1.75c.13-.93.25-1.86.35-2.8.05-.42.09-.84.13-1.27.08-.88.15-1.77.2-2.66l.06-1.1c0-1.18.09-2.37.09-3.57A79.6,79.6,0,0,0,109.66,217.26Zm0,147A67.53,67.53,0,0,1,51,330.13c8.29-5,12.77-14.26,12.79-26.71.11-3.95,1.61-6.13,4.6-6.67,3.25-.59,7.22,1.09,8.16,3.45a6,6,0,0,0,1.21,1.86,32.32,32.32,0,0,0,64.16-3.4c7.55-1.43,23.43-2.24,29,14.42a21.54,21.54,0,0,0,2.63,5.33A67.61,67.61,0,0,1,109.66,364.27Zm19.79-72.17c0,.13.05.26.08.38.07.33.13.67.19,1s.06.41.08.61a19.77,19.77,0,0,1,.19,2.68,20.33,20.33,0,1,1-20.33-20.33,19.24,19.24,0,0,1,2,.1l.47.07c.51.06,1,.13,1.52.23l.41.1c.52.11,1,.24,1.54.39l.28.1c.55.17,1.1.37,1.63.59l.11.05A20.42,20.42,0,0,1,129.45,292.1ZM177.11,299c-9.52-13-25.39-14.26-36.71-12.27-.08-.24-.18-.48-.27-.73s-.16-.45-.25-.67a32.21,32.21,0,0,0-18.81-18.78l-.46-.17q-.61-.23-1.23-.42c-.55-.17-1.1-.33-1.66-.48l-.85-.19c-.5-.12-1-.22-1.51-.31l-.65-.12c-.71-.11-1.43-.19-2.15-.26l-.56,0c-.77,0-1.55-.09-2.34-.09s-1.59,0-2.38.09l-.49,0c-.76.07-1.52.16-2.26.28l-.39.07c-.68.12-1.36.26-2,.42l-.34.08c-.73.18-1.44.39-2.14.62l-.47.16c-.71.24-1.41.5-2.1.79L97,267c-.66.29-1.31.6-1.95.92l-.42.22q-1,.51-1.89,1.08l-.35.22c-.56.36-1.11.73-1.65,1.12l-.26.19c-.58.43-1.14.89-1.7,1.35l-.37.33c-.55.48-1.09,1-1.6,1.49l-.14.14c-.48.49-.94,1-1.39,1.52-.1.12-.21.23-.3.35-.47.55-.91,1.11-1.34,1.7-.09.11-.17.23-.25.35-.4.55-.78,1.11-1.13,1.69a1.64,1.64,0,0,0-.14.22c-.39.62-.74,1.26-1.08,1.91l-.23.44q-.49,1-.93,2l-.09.22c-.26.64-.5,1.3-.73,2l-.09.26a20.73,20.73,0,0,0-12.66-1.79c-6.82,1.23-14.2,6.68-14.47,18.27v.14c0,7.34-2,12.58-5.86,15.67-.18-.5-.35-1-.51-1.49-.09-.3-.2-.6-.29-.9q-.93-3-1.58-6.14c0-.19-.07-.37-.11-.56-.17-.85-.32-1.7-.46-2.56l-.12-.85c-.12-.77-.21-1.54-.3-2.32,0-.32-.07-.64-.1-1-.07-.77-.13-1.55-.18-2.33l-.06-.91c0-1.07-.08-2.14-.08-3.22a67.51,67.51,0,0,1,135,0C177.17,297.51,177.14,298.24,177.11,299Z"/></g></g></svg>