<svg xmlns="http://www.w3.org/2000/svg" viewBox="0 0 296.61 421.31"><g id="Layer_2" data-name="Layer 2"><g id="Layer_6" data-name="Layer 6"><path d="M290.61,0H80.82c-.17,0-.34,0-.5,0l-.24,0-.43.08L79.4.23,79,.35l-.25.1a3.39,3.39,0,0,0-.39.18l-.22.11L77.7,1l-.12.07,0,0a5.66,5.66,0,0,0-.54.43l-.1.09c-.11.11-.22.21-.33.33l0,.06-.16.18-.27.35L76,2.75c-.08.11-.15.23-.22.35l-.12.24c-.06.12-.12.25-.17.38l-.1.24c-.05.14-.09.29-.13.43a1.66,1.66,0,0,0-.06.21,5.09,5.09,0,0,0-.12.66.28.28,0,0,0,0,.09c0,.2,0,.39,0,.59V50H6a7,7,0,0,0-1,.09l-.58.13-.17.05a5,5,0,0,0-.79.31c-.15.07-.29.15-.43.23a6.65,6.65,0,0,0-.62.41,5.33,5.33,0,0,0-.62.54,5.33,5.33,0,0,0-.54.62A6.65,6.65,0,0,0,.81,53c-.08.14-.16.28-.23.43a5,5,0,0,0-.31.79c0,.05,0,.11-.05.17s-.09.39-.13.58A7,7,0,0,0,0,56V415.31a6,6,0,0,0,6,6H215.6a6,6,0,0,0,6-6v-44h69a6,6,0,0,0,6-6V6A6,6,0,0,0,290.61,0Zm-81,371.31v38H173.11V292a6.36,6.36,0,0,0-.06-.87c0-.06-.66-6.11,6.91-11.32,6.06-4.17,13.33-10.17,15.8-19.61a5.86,5.86,0,0,0,.17-2l-5.87-72.89a9.51,9.51,0,0,0-10.41-8.7l-2.13.2a9.53,9.53,0,0,0-8.58,9.85l1.75,44.72a2.51,2.51,0,0,1-2.52,2.62,2.53,2.53,0,0,1-2.52-2.52V186.81a9.52,9.52,0,0,0-19,0v44.63A2.52,2.52,0,0,1,144.1,234a2.51,2.51,0,0,1-2.51-2.61l1.75-44.73a9.53,9.53,0,0,0-8.59-9.85l-2.13-.2a9.51,9.51,0,0,0-10.4,8.7l-5.88,72.89a6.13,6.13,0,0,0,.18,2c2.47,9.45,9.74,15.44,15.8,19.61,7.09,4.87,7,10.46,6.9,11.38a3.55,3.55,0,0,0-.06.81l0,67.35v50H85.6V292a6.36,6.36,0,0,0-.06-.87A10.17,10.17,0,0,1,87,285.51a17.11,17.11,0,0,1,5.44-5.74,29.75,29.75,0,0,0,5-4.45,43.83,43.83,0,0,0,5.4-7.45,60.48,60.48,0,0,0,5.06-11.47,82.94,82.94,0,0,0,2.72-37.7A54.28,54.28,0,0,0,103,197.59a48.18,48.18,0,0,0-6.73-8.43,45.48,45.48,0,0,0-6.47-5.37C88.9,183.16,88,182.56,87,182a39.25,39.25,0,0,0-6-2.8,30.19,30.19,0,0,0-6-1.55,22.94,22.94,0,0,0-3.42-.28h-5.9c-13.29,0-34.9,13.13-39.08,41.31-4.28,28.92,5.92,52.62,18.21,61.07,7.08,4.87,7,10.46,6.89,11.38a3.57,3.57,0,0,0-.05.81l0,117.35H12V157.12H209.6V371.31Zm-58.41,0v-12l0-67c.55-5.14-1.4-15.13-12-22.45-4.11-2.83-9-6.7-10.72-11.87l1.8-22.36A14.53,14.53,0,0,0,144.1,246a14.51,14.51,0,0,0,12-6.4,14.53,14.53,0,0,0,25.94-3.91l1.8,22.36c-1.75,5.17-6.61,9-10.73,11.88-10.63,7.31-12.58,17.3-12,22.44v117H151.2ZM87.78,14.91,182.38,50H87V14.63ZM79.67,62H209.6v83.12H12V62H79.67Zm-16,347.31,0-117c.54-5.14-1.4-15.13-12-22.44-9.13-6.28-16.54-26.49-13.14-49.43,3.26-22,19.33-31.07,27.21-31.07h5.9a14.41,14.41,0,0,1,3.42.47,23.91,23.91,0,0,1,6,2.48,31.3,31.3,0,0,1,6,4.44,35.66,35.66,0,0,1,4.32,4.87,41.67,41.67,0,0,1,7.46,18.81c.15,1,.26,1.94.37,2.91.15,1.38.27,2.76.34,4.12a69.16,69.16,0,0,1-3.73,27.4c-2.27,6.17-5.36,11-8.76,13.94-.45.38-.9.74-1.36,1.06A32.17,32.17,0,0,0,81,273.77,26.42,26.42,0,0,0,75,283a21.21,21.21,0,0,0-1.4,9.31v117Zm220.91-50h-62.8V56a6,6,0,0,0-3.91-5.63L114.44,12H284.61Z"/><polygon points="49.45 115.23 43.67 92.81 28.7 92.81 28.7 129.65 38.02 129.65 38.02 101.56 45.2 129.65 53.63 129.65 60.82 101.56 60.82 129.65 70.14 129.65 70.14 92.81 55.18 92.81 49.45 115.23"/><polygon points="85.31 129.65 87.01 129.65 91.33 129.65 97.36 129.65 108.44 129.65 108.44 121.31 96.66 121.31 90.64 121.31 88.78 121.31 88.78 114.05 90.03 114.05 96.05 114.05 106.5 114.05 106.5 106.53 95.42 106.53 89.4 106.53 88.78 106.53 88.78 100.68 88.92 100.68 94.94 100.68 107.88 100.68 107.88 92.81 94.28 92.81 88.26 92.81 87.01 92.81 82.24 92.81 81.01 92.81 77.38 92.81 77.38 129.65 81.01 129.65 85.31 129.65"/><polygon points="125.35 109.42 139.14 129.65 149.87 129.65 149.87 92.81 139.14 92.81 139.14 113.19 125.27 92.81 114.64 92.81 114.64 129.65 125.35 129.65 125.35 109.42"/><path d="M160.94,125.23a13.18,13.18,0,0,0,3.91,3.18,15.45,15.45,0,0,0,5.31,1.49,50.5,50.5,0,0,0,5.87.38,23,23,0,0,0,8-1.23,12.77,12.77,0,0,0,4.56-3.05,13.35,13.35,0,0,0,3.19-5.07,18.49,18.49,0,0,0,1-6.17v-22H181.41v22.47a6.43,6.43,0,0,1-1.67,4.74,7.19,7.19,0,0,1-9.25,0,6.44,6.44,0,0,1-1.67-4.71V92.81H157.46v22a21.78,21.78,0,0,0,1.06,6.23A11.52,11.52,0,0,0,160.94,125.23Z"/></g></g></svg>