<svg height="512" viewBox="0 0 64 64" width="512" xmlns="http://www.w3.org/2000/svg"><g id="Layer_31" data-name="Layer 31"><path d="m1 13h44a0 0 0 0 1 0 0v46a4 4 0 0 1 -4 4h-36a4 4 0 0 1 -4-4v-46a0 0 0 0 1 0 0z" fill="#f8c460"/><g fill="#eaac47"><path d="m45 35h-.764a2 2 0 0 0 -1.789 1.106l-1.447 2.894a2 2 0 0 0 0 4l1 8h3z"/><path d="m21 35h-.764a2 2 0 0 0 -1.789 1.106l-1.447 2.894a2 2 0 0 0 0 4l1 8h3z"/><path d="m44 60a40 40 0 0 1 -40-40v-7h-3v46a4 4 0 0 0 4 4h36a4 4 0 0 0 3.892-3.108 3.974 3.974 0 0 1 -.892.108z"/></g><path d="m11 5v18h4v-22z" fill="#f97878"/><path d="m31 1v22h4v-18z" fill="#f97878"/><path d="m15 1h16v4h-16z" fill="#f97878"/><rect fill="#a7d0e1" height="4" rx="2" width="48" x="15" y="51"/><path d="m18 53a2 2 0 0 1 2-2h-3a2 2 0 0 0 0 4h3a2 2 0 0 1 -2-2z" fill="#80bbce"/><path d="m19 55 1.621 6.485a2 2 0 0 0 1.941 1.515h8.876a2 2 0 0 0 1.941-1.515l.242-.97a2 2 0 0 1 1.941-1.515h6.876a2 2 0 0 1 1.941 1.515l.242.97a2 2 0 0 0 1.941 1.515h8.876a2 2 0 0 0 1.941-1.515l1.621-6.485z" fill="#a7d0e1"/><path d="m33.438 60h-8.876a2 2 0 0 1 -1.941-1.515l-.871-3.485h-2.75l1.621 6.485a2 2 0 0 0 1.941 1.515h8.876a2 2 0 0 0 1.941-1.515l.242-.97a2 2 0 0 1 .243-.566 1.994 1.994 0 0 1 -.426.051z" fill="#80bbce"/><path d="m57.438 60h-8.876a2 2 0 0 1 -1.941-1.515l-.242-.97a2 2 0 0 0 -1.941-1.515h-6.876a2 2 0 0 0 -1.941 1.515l-.242.97a2 2 0 0 1 -.243.566 1.994 1.994 0 0 1 .426-.051h6.876a2 2 0 0 1 1.941 1.515l.242.97a2 2 0 0 0 1.941 1.515h8.876a2 2 0 0 0 1.941-1.515l.378-1.512a1.971 1.971 0 0 1 -.319.027z" fill="#80bbce"/><path d="m34 51h-14l-1-8h16z" fill="#f97878"/><path d="m22.562 44.5-.187-1.5h-3.375l1 8h14l.375-3h-7.844a4 4 0 0 1 -3.969-3.5z" fill="#ed5d5d"/><path d="m31.764 35h-9.528a2 2 0 0 0 -1.789 1.106l-1.447 2.894h16l-1.447-2.894a2 2 0 0 0 -1.789-1.106z" fill="#f97878"/><path d="m25.236 35h-3a2 2 0 0 0 -1.789 1.106l-1.447 2.894h3l1.447-2.894a2 2 0 0 1 1.789-1.106z" fill="#ed5d5d"/><rect fill="#a7d0e1" height="4" rx="2" width="20" x="17" y="39"/><path d="m20 41a2 2 0 0 1 2-2h-3a2 2 0 0 0 0 4h3a2 2 0 0 1 -2-2z" fill="#80bbce"/><path d="m58 51h-14l-1-8h16z" fill="#f97878"/><path d="m46.562 44.5-.187-1.5h-3.375l1 8h14l.375-3h-7.844a4 4 0 0 1 -3.969-3.5z" fill="#ed5d5d"/><path d="m55.764 35h-9.528a2 2 0 0 0 -1.789 1.106l-1.447 2.894h16l-1.447-2.894a2 2 0 0 0 -1.789-1.106z" fill="#f97878"/><path d="m49.236 35h-3a2 2 0 0 0 -1.789 1.106l-1.447 2.894h3l1.447-2.894a2 2 0 0 1 1.789-1.106z" fill="#ed5d5d"/><rect fill="#a7d0e1" height="4" rx="2" width="20" x="41" y="39"/><path d="m44 41a2 2 0 0 1 2-2h-3a2 2 0 0 0 0 4h3a2 2 0 0 1 -2-2z" fill="#80bbce"/><path d="m56 38h-2a1 1 0 0 1 0-2h2a1 1 0 0 1 0 2z" fill="#fff"/></g></svg>