<svg xmlns="http://www.w3.org/2000/svg" xmlns:xlink="http://www.w3.org/1999/xlink" viewBox="0 0 304.52 282.99"><defs><style>.cls-1{mask:url(#mask);filter:url(#luminosity-noclip-3);}.cls-100,.cls-101,.cls-102,.cls-103,.cls-104,.cls-105,.cls-108,.cls-109,.cls-110,.cls-112,.cls-114,.cls-115,.cls-2,.cls-4,.cls-46,.cls-50,.cls-53,.cls-55,.cls-95,.cls-96,.cls-97,.cls-98,.cls-99{mix-blend-mode:multiply;}.cls-2{fill:url(#linear-gradient);}.cls-3{mask:url(#mask-2);filter:url(#luminosity-noclip-4);}.cls-4{fill:url(#linear-gradient-2);}.cls-5{isolation:isolate;}.cls-6{fill:#404b4d;}.cls-7{fill:#677274;}.cls-8{fill:#273234;}.cls-9{fill:#0e191b;}.cls-10{fill:#2e373a;}.cls-11{fill:#555e61;}.cls-12{fill:#3b4447;}.cls-13{fill:url(#linear-gradient-3);}.cls-14{fill:url(#linear-gradient-4);}.cls-15{fill:url(#linear-gradient-5);}.cls-16{fill:url(#linear-gradient-6);}.cls-17{fill:url(#linear-gradient-7);}.cls-18{fill:url(#linear-gradient-8);}.cls-19{fill:url(#linear-gradient-9);}.cls-20{fill:url(#linear-gradient-10);}.cls-21{fill:url(#linear-gradient-11);}.cls-22{fill:url(#linear-gradient-12);}.cls-23{fill:url(#linear-gradient-13);}.cls-24{fill:url(#linear-gradient-14);}.cls-25{fill:url(#linear-gradient-15);}.cls-26{fill:url(#linear-gradient-16);}.cls-27{fill:url(#linear-gradient-17);}.cls-28{fill:url(#linear-gradient-18);}.cls-29{fill:url(#linear-gradient-19);}.cls-30{fill:url(#linear-gradient-20);}.cls-31{fill:url(#linear-gradient-21);}.cls-32{fill:url(#linear-gradient-22);}.cls-33{fill:url(#linear-gradient-23);}.cls-34{fill:url(#linear-gradient-24);}.cls-35{fill:url(#linear-gradient-25);}.cls-36{fill:url(#linear-gradient-26);}.cls-37{fill:url(#linear-gradient-27);}.cls-38{fill:url(#linear-gradient-28);}.cls-39{fill:url(#linear-gradient-29);}.cls-40{fill:url(#linear-gradient-30);}.cls-41{fill:url(#linear-gradient-31);}.cls-42{fill:#333e40;}.cls-43{fill:#5a6567;}.cls-44{fill:url(#linear-gradient-32);}.cls-45{fill:#9aa3a9;}.cls-109,.cls-121,.cls-46,.cls-50,.cls-52,.cls-98{opacity:0.2;}.cls-47{fill:url(#linear-gradient-33);}.cls-48{fill:url(#linear-gradient-34);}.cls-49,.cls-50,.cls-53{fill:#8897a0;}.cls-113,.cls-121,.cls-124,.cls-51,.cls-52{fill:#fff;}.cls-113,.cls-51,.cls-53{opacity:0.5;}.cls-51,.cls-52{mix-blend-mode:overlay;}.cls-54{fill:#e1e8ec;}.cls-112,.cls-55{opacity:0.1;}.cls-56{fill:#0a1316;}.cls-57{fill:url(#_10);}.cls-58{fill:url(#linear-gradient-35);}.cls-59{fill:#232c2f;}.cls-60{fill:url(#_10-2);}.cls-61{fill:url(#linear-gradient-36);}.cls-62{fill:url(#_10-3);}.cls-63{fill:url(#linear-gradient-37);}.cls-64{fill:url(#_10-4);}.cls-65{fill:url(#linear-gradient-38);}.cls-66{fill:url(#_10-5);}.cls-67{fill:url(#linear-gradient-39);}.cls-68{fill:url(#_10-6);}.cls-69{fill:url(#linear-gradient-40);}.cls-70{fill:url(#_10-7);}.cls-71{fill:url(#linear-gradient-41);}.cls-72{fill:url(#_10-8);}.cls-73{fill:url(#linear-gradient-42);}.cls-74{fill:url(#_10-9);}.cls-75{fill:url(#linear-gradient-43);}.cls-76{fill:url(#_10-10);}.cls-77{fill:url(#linear-gradient-44);}.cls-78{fill:url(#linear-gradient-45);}.cls-79{fill:url(#linear-gradient-46);}.cls-80{fill:url(#linear-gradient-47);}.cls-81{fill:url(#linear-gradient-48);}.cls-82{fill:url(#linear-gradient-49);}.cls-83{fill:url(#linear-gradient-50);}.cls-84{fill:url(#linear-gradient-51);}.cls-85{fill:url(#linear-gradient-52);}.cls-86{fill:url(#linear-gradient-53);}.cls-87{fill:url(#linear-gradient-54);}.cls-88{fill:url(#linear-gradient-55);}.cls-89{fill:url(#linear-gradient-56);}.cls-90{fill:url(#linear-gradient-57);}.cls-91{fill:url(#linear-gradient-58);}.cls-92{fill:url(#linear-gradient-59);}.cls-93{fill:url(#linear-gradient-60);}.cls-94{fill:url(#linear-gradient-61);}.cls-110,.cls-95{opacity:0.15;}.cls-100,.cls-101,.cls-102,.cls-105,.cls-108,.cls-96,.cls-97,.cls-99{opacity:0.3;}.cls-96{fill:url(#_2);}.cls-97{fill:url(#_2-2);}.cls-98{fill:url(#linear-gradient-62);}.cls-99{fill:url(#_2-3);}.cls-100{fill:url(#_2-4);}.cls-101{fill:url(#_2-5);}.cls-102{fill:url(#_2-6);}.cls-103,.cls-104,.cls-114,.cls-115{opacity:0.4;}.cls-103{fill:url(#_2-7);}.cls-104{fill:url(#_2-8);}.cls-106{fill:url(#_2-9);}.cls-107{fill:url(#_2-10);}.cls-108{fill:url(#_2-11);}.cls-109{fill:url(#linear-gradient-63);}.cls-111{fill:#2e383b;}.cls-112{fill:url(#_2-12);}.cls-116{fill:#141c1e;}.cls-117{fill:#303e42;}.cls-118{fill:#39464a;}.cls-119{fill:#3d4b4f;}.cls-120{fill:#c5d0d3;opacity:0.7;}.cls-122{fill:#939a9e;}.cls-123{fill:#dee5e9;}.cls-125{fill:#f09041;}.cls-126{fill:url(#linear-gradient-64);}.cls-127{fill:url(#linear-gradient-65);}.cls-128{mask:url(#mask-3);}.cls-129{fill:url(#linear-gradient-66);}.cls-130{mask:url(#mask-4);}.cls-131{fill:url(#linear-gradient-67);}.cls-132{filter:url(#luminosity-noclip-2);}.cls-133{filter:url(#luminosity-noclip);}</style><filter id="luminosity-noclip" x="49.14" y="-8166.24" width="14.58" height="32766" filterUnits="userSpaceOnUse" color-interpolation-filters="sRGB"><feFlood flood-color="#fff" result="bg"/><feBlend in="SourceGraphic" in2="bg"/></filter><mask id="mask" x="49.14" y="-8166.24" width="14.58" height="32766" maskUnits="userSpaceOnUse"><g class="cls-133"/></mask><linearGradient id="linear-gradient" x1="49.14" y1="267.78" x2="63.73" y2="267.78" gradientUnits="userSpaceOnUse"><stop offset="0" stop-color="#fff"/><stop offset="0.09" stop-color="#f5f5f5"/><stop offset="0.23" stop-color="#d9d9d9"/><stop offset="0.43" stop-color="#ababab"/><stop offset="0.65" stop-color="#6c6c6c"/><stop offset="0.91" stop-color="#1d1d1d"/><stop offset="1"/></linearGradient><filter id="luminosity-noclip-2" x="3.54" y="-8166.24" width="8.06" height="32766" filterUnits="userSpaceOnUse" color-interpolation-filters="sRGB"><feFlood flood-color="#fff" result="bg"/><feBlend in="SourceGraphic" in2="bg"/></filter><mask id="mask-2" x="3.54" y="-8166.24" width="8.06" height="32766" maskUnits="userSpaceOnUse"><g class="cls-132"/></mask><linearGradient id="linear-gradient-2" x1="3.54" y1="238.1" x2="11.6" y2="238.1" xlink:href="#linear-gradient"/><linearGradient id="linear-gradient-3" x1="188.24" y1="142.07" x2="189.21" y2="163.09" gradientUnits="userSpaceOnUse"><stop offset="0" stop-color="#f3f5f7"/><stop offset="1" stop-color="#999d9e"/></linearGradient><linearGradient id="linear-gradient-4" x1="184.15" y1="159.28" x2="194.62" y2="142.3" xlink:href="#linear-gradient-3"/><linearGradient id="linear-gradient-5" x1="181.22" y1="151.06" x2="193.19" y2="151.06" gradientUnits="userSpaceOnUse"><stop offset="0" stop-color="#c3c5c7"/><stop offset="1" stop-color="#696d6e"/></linearGradient><linearGradient id="linear-gradient-6" x1="181.22" y1="150.71" x2="192.62" y2="150.71" xlink:href="#linear-gradient-3"/><linearGradient id="linear-gradient-7" x1="181.22" y1="150.22" x2="189.82" y2="150.22" gradientUnits="userSpaceOnUse"><stop offset="0" stop-color="#c1c3c5"/><stop offset="1" stop-color="#676b6c"/></linearGradient><linearGradient id="linear-gradient-8" x1="187.05" y1="145.45" x2="183.23" y2="160.48" xlink:href="#linear-gradient-3"/><linearGradient id="linear-gradient-9" x1="172.17" y1="159.96" x2="189.77" y2="124.29" gradientUnits="userSpaceOnUse"><stop offset="0" stop-color="#222829"/><stop offset="0.52" stop-color="#5b6b6e"/><stop offset="1" stop-color="#404b4d"/></linearGradient><linearGradient id="linear-gradient-10" x1="155.04" y1="161.25" x2="156.02" y2="182.26" xlink:href="#linear-gradient-3"/><linearGradient id="linear-gradient-11" x1="150.95" y1="178.45" x2="161.43" y2="161.47" xlink:href="#linear-gradient-3"/><linearGradient id="linear-gradient-12" x1="148.03" y1="170.23" x2="160" y2="170.23" xlink:href="#linear-gradient-5"/><linearGradient id="linear-gradient-13" x1="148.03" y1="169.89" x2="159.43" y2="169.89" xlink:href="#linear-gradient-3"/><linearGradient id="linear-gradient-14" x1="148.03" y1="169.39" x2="156.63" y2="169.39" xlink:href="#linear-gradient-7"/><linearGradient id="linear-gradient-15" x1="153.85" y1="164.62" x2="150.04" y2="179.65" xlink:href="#linear-gradient-3"/><linearGradient id="linear-gradient-16" x1="138.98" y1="179.13" x2="156.58" y2="143.46" xlink:href="#linear-gradient-9"/><linearGradient id="linear-gradient-17" x1="221.63" y1="128.63" x2="209.66" y2="153.23" gradientUnits="userSpaceOnUse"><stop offset="0" stop-color="#b8bfc3"/><stop offset="0.13" stop-color="#c7ced1"/><stop offset="0.46" stop-color="#ebf2f2"/><stop offset="0.63" stop-color="#f8ffff"/><stop offset="0.72" stop-color="#ebf2f6"/><stop offset="0.9" stop-color="#b8bfc3"/><stop offset="1" stop-color="#89939a"/></linearGradient><linearGradient id="linear-gradient-18" x1="241.91" y1="173.44" x2="242.88" y2="194.45" xlink:href="#linear-gradient-3"/><linearGradient id="linear-gradient-19" x1="237.82" y1="190.65" x2="248.29" y2="173.67" xlink:href="#linear-gradient-3"/><linearGradient id="linear-gradient-20" x1="234.89" y1="182.43" x2="246.86" y2="182.43" xlink:href="#linear-gradient-5"/><linearGradient id="linear-gradient-21" x1="234.89" y1="182.08" x2="246.29" y2="182.08" xlink:href="#linear-gradient-3"/><linearGradient id="linear-gradient-22" x1="234.89" y1="181.59" x2="243.49" y2="181.59" xlink:href="#linear-gradient-7"/><linearGradient id="linear-gradient-23" x1="240.72" y1="176.82" x2="236.9" y2="191.85" xlink:href="#linear-gradient-3"/><linearGradient id="linear-gradient-24" x1="225.84" y1="191.33" x2="243.44" y2="155.65" xlink:href="#linear-gradient-9"/><linearGradient id="linear-gradient-25" x1="208.71" y1="192.61" x2="209.69" y2="213.63" xlink:href="#linear-gradient-3"/><linearGradient id="linear-gradient-26" x1="204.62" y1="209.82" x2="215.1" y2="192.84" xlink:href="#linear-gradient-3"/><linearGradient id="linear-gradient-27" x1="201.7" y1="201.6" x2="213.67" y2="201.6" xlink:href="#linear-gradient-5"/><linearGradient id="linear-gradient-28" x1="201.7" y1="201.25" x2="213.1" y2="201.25" xlink:href="#linear-gradient-3"/><linearGradient id="linear-gradient-29" x1="201.7" y1="200.76" x2="210.3" y2="200.76" xlink:href="#linear-gradient-7"/><linearGradient id="linear-gradient-30" x1="207.53" y1="195.99" x2="203.71" y2="211.02" xlink:href="#linear-gradient-3"/><linearGradient id="linear-gradient-31" x1="192.65" y1="210.5" x2="210.25" y2="174.83" xlink:href="#linear-gradient-9"/><linearGradient id="linear-gradient-32" x1="129.32" y1="212.02" x2="142.32" y2="234.54" gradientUnits="userSpaceOnUse"><stop offset="0.44" stop-color="#b8bfc3"/><stop offset="0.44" stop-color="#bac1c5"/><stop offset="0.52" stop-color="#dee5e9"/><stop offset="0.56" stop-color="#ebf2f6"/><stop offset="0.84" stop-color="#b8bfc3"/><stop offset="1" stop-color="#89939a"/></linearGradient><linearGradient id="linear-gradient-33" x1="141.04" y1="203.51" x2="155.42" y2="228.42" gradientUnits="userSpaceOnUse"><stop offset="0.44" stop-color="#d2d9dd"/><stop offset="0.52" stop-color="#f2f4f5"/><stop offset="0.56" stop-color="#fff"/><stop offset="0.84" stop-color="#d2d9dd"/><stop offset="1" stop-color="#a3adb4"/></linearGradient><linearGradient id="linear-gradient-34" x1="124.85" y1="212.8" x2="139.23" y2="237.71" xlink:href="#linear-gradient-33"/><linearGradient id="_10" x1="-28.03" y1="-445.22" x2="-28.03" y2="-441.14" gradientTransform="matrix(0.87, -0.5, 0, 1, 164.02, 643.31)" gradientUnits="userSpaceOnUse"><stop offset="0" stop-color="#c5c5c5"/><stop offset="1" stop-color="#939393"/></linearGradient><linearGradient id="linear-gradient-35" x1="-28" y1="-444.09" x2="-28" y2="-432.97" gradientTransform="matrix(0.87, -0.5, 0, 1, 164.02, 643.31)" gradientUnits="userSpaceOnUse"><stop offset="0" stop-color="#485154"/><stop offset="1" stop-color="#2f383b"/></linearGradient><linearGradient id="_10-2" x1="-8.24" y1="-445.22" x2="-8.24" y2="-441.14" xlink:href="#_10"/><linearGradient id="linear-gradient-36" x1="-8.22" y1="-444.08" x2="-8.22" y2="-432.97" xlink:href="#linear-gradient-35"/><linearGradient id="_10-3" x1="11.54" y1="-445.22" x2="11.54" y2="-441.14" xlink:href="#_10"/><linearGradient id="linear-gradient-37" x1="11.56" y1="-444.08" x2="11.56" y2="-432.97" xlink:href="#linear-gradient-35"/><linearGradient id="_10-4" x1="31.32" y1="-445.21" x2="31.32" y2="-441.14" xlink:href="#_10"/><linearGradient id="linear-gradient-38" x1="31.34" y1="-444.08" x2="31.34" y2="-432.97" xlink:href="#linear-gradient-35"/><linearGradient id="_10-5" x1="51.1" y1="-445.21" x2="51.1" y2="-441.14" xlink:href="#_10"/><linearGradient id="linear-gradient-39" x1="51.13" y1="-444.08" x2="51.13" y2="-432.97" xlink:href="#linear-gradient-35"/><linearGradient id="_10-6" x1="70.88" y1="-445.21" x2="70.88" y2="-441.14" xlink:href="#_10"/><linearGradient id="linear-gradient-40" x1="70.91" y1="-444.08" x2="70.91" y2="-432.97" xlink:href="#linear-gradient-35"/><linearGradient id="_10-7" x1="90.67" y1="-445.21" x2="90.67" y2="-441.13" xlink:href="#_10"/><linearGradient id="linear-gradient-41" x1="90.69" y1="-444.08" x2="90.69" y2="-432.97" xlink:href="#linear-gradient-35"/><linearGradient id="_10-8" x1="110.45" y1="-445.21" x2="110.45" y2="-441.13" xlink:href="#_10"/><linearGradient id="linear-gradient-42" x1="110.47" y1="-444.08" x2="110.47" y2="-432.97" xlink:href="#linear-gradient-35"/><linearGradient id="_10-9" x1="130.23" y1="-445.21" x2="130.23" y2="-441.13" xlink:href="#_10"/><linearGradient id="linear-gradient-43" x1="130.26" y1="-444.08" x2="130.26" y2="-432.96" xlink:href="#linear-gradient-35"/><linearGradient id="_10-10" x1="150.01" y1="-445.21" x2="150.01" y2="-441.13" xlink:href="#_10"/><linearGradient id="linear-gradient-44" x1="150.04" y1="-444.08" x2="150.04" y2="-432.96" xlink:href="#linear-gradient-35"/><linearGradient id="linear-gradient-45" x1="102.49" y1="252.95" x2="98.5" y2="279.65" xlink:href="#linear-gradient-3"/><linearGradient id="linear-gradient-46" x1="98.31" y1="276.18" x2="100.41" y2="263.19" gradientUnits="userSpaceOnUse"><stop offset="0" stop-color="#e6e8ea"/><stop offset="1" stop-color="#8c9091"/></linearGradient><linearGradient id="linear-gradient-47" x1="98.58" y1="270.07" x2="104.83" y2="254.62" xlink:href="#linear-gradient-3"/><linearGradient id="linear-gradient-48" x1="101.89" y1="254.97" x2="97.81" y2="276.14" xlink:href="#linear-gradient-3"/><linearGradient id="linear-gradient-49" x1="101.11" y1="259.28" x2="100.97" y2="276.09" xlink:href="#linear-gradient-3"/><linearGradient id="linear-gradient-50" x1="99.41" y1="257.85" x2="100.84" y2="257.85" gradientUnits="userSpaceOnUse"><stop offset="0" stop-color="#8f9193"/><stop offset="1" stop-color="#35393a"/></linearGradient><linearGradient id="linear-gradient-51" x1="93.78" y1="266.07" x2="95.83" y2="266.07" xlink:href="#linear-gradient-50"/><linearGradient id="linear-gradient-52" x1="94.44" y1="270.21" x2="96.36" y2="270.21" xlink:href="#linear-gradient-50"/><linearGradient id="linear-gradient-53" x1="97.56" y1="271.75" x2="98.59" y2="271.75" xlink:href="#linear-gradient-50"/><linearGradient id="linear-gradient-54" x1="96" y1="261.33" x2="97.91" y2="261.33" xlink:href="#linear-gradient-50"/><linearGradient id="linear-gradient-55" x1="103.21" y1="256.82" x2="104.4" y2="256.82" xlink:href="#linear-gradient-50"/><linearGradient id="linear-gradient-56" x1="105.63" y1="259.76" x2="106.89" y2="259.76" xlink:href="#linear-gradient-50"/><linearGradient id="linear-gradient-57" x1="105.74" y1="263.61" x2="106.27" y2="263.61" xlink:href="#linear-gradient-50"/><linearGradient id="linear-gradient-58" x1="101.11" y1="270.54" x2="101.61" y2="270.54" xlink:href="#linear-gradient-50"/><linearGradient id="linear-gradient-59" x1="104.24" y1="267.11" x2="104.67" y2="267.11" xlink:href="#linear-gradient-50"/><linearGradient id="linear-gradient-60" x1="104.08" y1="264.02" x2="98.54" y2="266.32" xlink:href="#linear-gradient-3"/><linearGradient id="linear-gradient-61" x1="102.29" y1="262.46" x2="100.13" y2="273.44" xlink:href="#linear-gradient-3"/><linearGradient id="_2" x1="87.38" y1="248.27" x2="80.61" y2="272.97" gradientUnits="userSpaceOnUse"><stop offset="0" stop-color="#fff"/><stop offset="1"/></linearGradient><linearGradient id="_2-2" x1="91.41" y1="206.17" x2="96.14" y2="194.28" xlink:href="#_2"/><linearGradient id="linear-gradient-62" x1="61.84" y1="250.19" x2="61.72" y2="261" gradientUnits="userSpaceOnUse"><stop offset="0" stop-color="#fff"/><stop offset="0.11" stop-color="#fafafa"/><stop offset="0.23" stop-color="#ececec"/><stop offset="0.36" stop-color="#d5d5d5"/><stop offset="0.5" stop-color="#b5b5b5"/><stop offset="0.64" stop-color="#8b8b8b"/><stop offset="0.79" stop-color="#585858"/><stop offset="0.93" stop-color="#1d1d1d"/><stop offset="1"/></linearGradient><linearGradient id="_2-3" x1="52.39" y1="249.78" x2="58.96" y2="252.73" xlink:href="#_2"/><linearGradient id="_2-4" x1="62.26" y1="261.88" x2="36.35" y2="252.15" xlink:href="#_2"/><linearGradient id="_2-5" x1="75.07" y1="262.12" x2="71.4" y2="249.37" xlink:href="#_2"/><linearGradient id="_2-6" x1="48.62" y1="272.43" x2="60.93" y2="272.43" xlink:href="#_2"/><linearGradient id="_2-7" x1="6.37" y1="242.09" x2="4.96" y2="236.83" xlink:href="#_2"/><linearGradient id="_2-8" x1="5.5" y1="236.88" x2="3.93" y2="233.35" xlink:href="#_2"/><linearGradient id="_2-9" x1="11.99" y1="248.28" x2="5.2" y2="242.78" xlink:href="#_2"/><linearGradient id="_2-10" x1="13.04" y1="246.99" x2="6.25" y2="241.49" xlink:href="#_2"/><linearGradient id="_2-11" x1="9.6" y1="221.45" x2="1.9" y2="221.23" xlink:href="#_2"/><linearGradient id="linear-gradient-63" x1="2.93" y1="232.32" x2="11.91" y2="232.32" xlink:href="#linear-gradient-62"/><linearGradient id="_2-12" x1="42.2" y1="179.91" x2="38.03" y2="186.6" xlink:href="#_2"/><linearGradient id="linear-gradient-64" x1="49.14" y1="267.78" x2="63.73" y2="267.78" gradientUnits="userSpaceOnUse"><stop offset="0" stop-color="#fff"/><stop offset="1" stop-color="#969696"/></linearGradient><linearGradient id="linear-gradient-65" x1="3.54" y1="238.1" x2="11.6" y2="238.1" xlink:href="#linear-gradient-64"/><filter id="luminosity-noclip-3" x="49.14" y="262.84" width="14.58" height="9.89" filterUnits="userSpaceOnUse" color-interpolation-filters="sRGB"><feFlood flood-color="#fff" result="bg"/><feBlend in="SourceGraphic" in2="bg"/></filter><mask id="mask-3" x="49.14" y="262.84" width="14.58" height="9.89" maskUnits="userSpaceOnUse"><g class="cls-1"><path class="cls-2" d="M50.41,263.16c-.39.79-1.82,3.59-1,4.35s3.87,2.06,6,3a42.89,42.89,0,0,0,6.77,2.24c.87.06,1.41-.22,1.5-1.13s0-3.82,0-4.21-.71-.72-1.71-1-6-1.93-7.71-2.69S50.76,262.48,50.41,263.16Z"/></g></mask><linearGradient id="linear-gradient-66" x1="49.14" y1="267.78" x2="63.73" y2="267.78" gradientUnits="userSpaceOnUse"><stop offset="0" stop-color="#fff"/><stop offset="1" stop-color="#fff"/></linearGradient><filter id="luminosity-noclip-4" x="3.54" y="231.51" width="8.06" height="13.18" filterUnits="userSpaceOnUse" color-interpolation-filters="sRGB"><feFlood flood-color="#fff" result="bg"/><feBlend in="SourceGraphic" in2="bg"/></filter><mask id="mask-4" x="3.54" y="231.51" width="8.06" height="13.18" maskUnits="userSpaceOnUse"><g class="cls-3"><path class="cls-4" d="M3.54,231.51s.08,4.48.13,5.12a3.64,3.64,0,0,0,1.13,2.51c.84.69,5.25,4.8,6,5.26s1,.49.72-.84-1.69-5.74-2.79-7S3.54,231.51,3.54,231.51Z"/></g></mask><linearGradient id="linear-gradient-67" x1="3.54" y1="238.1" x2="11.6" y2="238.1" xlink:href="#linear-gradient-66"/></defs><title>a1-truck</title><g class="cls-5"><g id="레이어_2" data-name="레이어 2"><g id="_1" data-name="1"><polygon class="cls-6" points="196.69 185.76 147.28 211.45 147.28 205.45 196.69 179.76 196.69 185.76"/><polygon class="cls-7" points="193.89 177.68 144.49 203.37 147.28 205.45 196.69 179.76 193.89 177.68"/><polygon class="cls-6" points="147.67 211.36 99.84 239.85 99.49 233.87 147.33 205.37 147.67 211.36"/><polygon class="cls-7" points="146.79 203.28 98.95 231.77 99.49 233.87 147.33 205.37 146.79 203.28"/><polygon class="cls-7" points="277.17 163.72 279.94 162.12 209.54 121.48 206.78 123.08 277.17 163.72"/><polygon class="cls-6" points="277.17 166.75 279.94 165.15 279.94 162.12 277.17 163.72 277.17 166.75"/><polygon class="cls-8" points="277.17 166.75 277.17 163.72 206.78 123.08 206.78 126.11 277.17 166.75"/><path class="cls-9" d="M203.66,150.69c0,.76-.54,1.08-1.2.72l-15.05-8.34a2.58,2.58,0,0,1-1.21-2V129c0-.76.54-1.08,1.21-.71l15.05,8.33a2.6,2.6,0,0,1,1.2,2.05Z"/><polygon class="cls-9" points="179.6 127.19 204.49 141.56 202 134.16 187.53 124.99 179.6 127.19"/><path class="cls-10" d="M197.77,135.38l-8-4.26c-2.43-1.39-5.76-1.17-9.45.95C173,136.35,167,146.75,167,155.3c0,4.3,1.52,7.32,4,8.71l8,4.26c2.42,1.38,5.75,1.17,9.44-1,7.4-4.28,13.41-14.68,13.41-23.23C201.74,139.79,200.22,136.77,197.77,135.38Z"/><path class="cls-11" d="M201.74,144.08c0,8.55-6,18.95-13.41,23.23-3.69,2.13-7,2.34-9.44,1s-4-4.4-4-8.7c0-8.56,6-18.95,13.41-23.23,3.69-2.13,7-2.34,9.45-1S201.74,139.79,201.74,144.08Z"/><path class="cls-12" d="M200.91,145.08c0,7.79-5.47,17.27-12.22,21.17s-12.22.73-12.22-7.06,5.47-17.27,12.22-21.17S200.91,137.28,200.91,145.08Z"/><path class="cls-13" d="M196.91,147.17c0,5.24-3.68,11.6-8.22,14.22s-8.21.5-8.21-4.74,3.68-11.61,8.21-14.23S196.91,141.93,196.91,147.17Z"/><path class="cls-14" d="M196.16,147.6a16.52,16.52,0,0,1-7.47,12.94c-4.12,2.38-7.47.45-7.47-4.32a16.53,16.53,0,0,1,7.47-12.94C192.82,140.9,196.16,142.83,196.16,147.6Z"/><path class="cls-15" d="M192.27,142.27a6.52,6.52,0,0,0-3.58,1,16.53,16.53,0,0,0-7.47,12.94,6.54,6.54,0,0,0,.93,3.63,6.49,6.49,0,0,0,3.57-1,16.51,16.51,0,0,0,7.47-12.94A6.54,6.54,0,0,0,192.27,142.27Z"/><path class="cls-16" d="M191.3,142.32a7.4,7.4,0,0,0-2.61,1,16.53,16.53,0,0,0-7.47,12.94,7.39,7.39,0,0,0,.48,2.77,5.41,5.41,0,0,0,4-.82,15.22,15.22,0,0,0,6.9-11.94A5.4,5.4,0,0,0,191.3,142.32Z"/><path class="cls-17" d="M181.22,156.22a9.72,9.72,0,0,0,.07,1.11,5.52,5.52,0,0,0,2.51-.81,13.29,13.29,0,0,0,6-10.42,5.18,5.18,0,0,0-.8-3l-.33.18A16.53,16.53,0,0,0,181.22,156.22Z"/><path class="cls-18" d="M188.51,149.13a6.19,6.19,0,0,1-2.8,4.84c-1.55.9-2.8.17-2.8-1.61a6.17,6.17,0,0,1,2.8-4.85C187.25,146.62,188.51,147.34,188.51,149.13Z"/><path class="cls-9" d="M170,172.3a.75.75,0,0,1-1.21.71l-15.05-8.33a2.61,2.61,0,0,1-1.21-2.05V150.56a.75.75,0,0,1,1.21-.72l15.05,8.34a2.61,2.61,0,0,1,1.21,2Z"/><path class="cls-10" d="M154.18,148.85l-8-4.26c-2.43-1.38-5.77-1.17-9.46.95-7.4,4.28-13.41,14.68-13.41,23.23,0,4.31,1.52,7.32,4,8.71l7.95,4.27c2.43,1.37,5.76,1.16,9.44-1,7.41-4.28,13.41-14.68,13.41-23.23C158.14,153.26,156.63,150.24,154.18,148.85Z"/><path class="cls-11" d="M158.14,157.55c0,8.55-6,18.95-13.41,23.23-3.68,2.13-7,2.34-9.44,1s-4-4.41-4-8.71c0-8.56,6-18.95,13.41-23.23,3.69-2.13,7-2.34,9.45-1S158.14,153.26,158.14,157.55Z"/><path class="cls-12" d="M157.32,158.55c0,7.79-5.47,17.27-12.22,21.16s-12.22.74-12.22-7.05,5.47-17.27,12.22-21.17S157.32,150.75,157.32,158.55Z"/><polygon class="cls-9" points="146.41 146.36 171.3 160.73 168.81 153.34 154.33 144.16 146.41 146.36"/><path class="cls-19" d="M200.3,130.57h0l-.09,0c-.14-.08-.28-.17-.43-.24l-15.95-9.2c-3-1.4-6.87-1-11.17,1.45-9.16,5.29-16.59,18.15-16.59,28.73,0,.19,0,.37,0,.56l15.63,9,2.29-1.33c0-.18,0-.36,0-.55,0-9.12,6.4-20.19,14.29-24.75s14.29-.86,14.29,8.25c0,.19,0,.38,0,.57l2.3-1.33c0-.19,0-.38,0-.57C204.88,136,203.13,132.38,200.3,130.57Z"/><path class="cls-6" d="M174,159.51c0-.18,0-.36,0-.55,0-9.12,6.4-20.19,14.29-24.75s14.29-.86,14.29,8.25c0,.19,0,.38,0,.57l2.3-1.33c0-.19,0-.38,0-.57,0-10.58-7.43-14.86-16.59-9.57s-16.59,18.15-16.59,28.72c0,.19,0,.37,0,.56Z"/><path class="cls-10" d="M164.58,154.55l-8-4.26c-2.43-1.38-5.77-1.17-9.45,1-7.41,4.27-13.42,14.67-13.42,23.22,0,4.31,1.53,7.32,4,8.71l7.95,4.27c2.43,1.37,5.76,1.16,9.44-1,7.41-4.27,13.41-14.67,13.41-23.23C168.54,159,167,155.94,164.58,154.55Z"/><path class="cls-11" d="M168.54,163.25c0,8.56-6,19-13.41,23.23-3.68,2.13-7,2.34-9.44,1s-4-4.41-4-8.71c0-8.55,6-19,13.41-23.23,3.69-2.13,7-2.34,9.45-1S168.54,159,168.54,163.25Z"/><path class="cls-12" d="M167.72,164.25c0,7.79-5.47,17.27-12.22,21.17s-12.22.74-12.22-7.06,5.47-17.27,12.22-21.17S167.72,156.46,167.72,164.25Z"/><path class="cls-20" d="M163.71,166.34c0,5.24-3.67,11.61-8.21,14.23s-8.22.49-8.22-4.75,3.68-11.61,8.22-14.22S163.71,161.1,163.71,166.34Z"/><path class="cls-21" d="M163,166.77a16.53,16.53,0,0,1-7.47,12.94c-4.13,2.38-7.47.45-7.47-4.31a16.49,16.49,0,0,1,7.47-12.94C159.62,160.07,163,162,163,166.77Z"/><path class="cls-22" d="M159.07,161.44a6.59,6.59,0,0,0-3.57,1A16.49,16.49,0,0,0,148,175.4,6.44,6.44,0,0,0,149,179a6.49,6.49,0,0,0,3.57-1A16.49,16.49,0,0,0,160,165.07,6.56,6.56,0,0,0,159.07,161.44Z"/><path class="cls-23" d="M158.1,161.49a7.39,7.39,0,0,0-2.6,1A16.49,16.49,0,0,0,148,175.4a7.33,7.33,0,0,0,.48,2.76,5.46,5.46,0,0,0,4-.81,15.25,15.25,0,0,0,6.9-11.95A5.42,5.42,0,0,0,158.1,161.49Z"/><path class="cls-24" d="M148,175.4a8,8,0,0,0,.07,1.11,5.7,5.7,0,0,0,2.5-.81,13.31,13.31,0,0,0,6-10.43,5.2,5.2,0,0,0-.8-3,2.68,2.68,0,0,0-.33.18A16.49,16.49,0,0,0,148,175.4Z"/><path class="cls-25" d="M155.31,168.3a6.2,6.2,0,0,1-2.8,4.85c-1.54.89-2.8.17-2.8-1.62a6.21,6.21,0,0,1,2.8-4.85C154.06,165.79,155.31,166.51,155.31,168.3Z"/><path class="cls-26" d="M167.11,149.75h0l-.09-.05-.43-.25-15.95-9.19c-3-1.41-6.87-1-11.18,1.45-9.16,5.29-16.58,18.15-16.58,28.72,0,.19,0,.38,0,.56l15.62,9,2.3-1.33c0-.18,0-.36,0-.55,0-9.11,6.39-20.19,14.28-24.75s14.29-.86,14.29,8.25c0,.19,0,.38,0,.57l2.3-1.32c0-.2,0-.39,0-.58C171.68,155.19,169.94,151.55,167.11,149.75Z"/><path class="cls-6" d="M140.82,178.68c0-.18,0-.36,0-.55,0-9.11,6.39-20.19,14.28-24.75s14.29-.86,14.29,8.25c0,.19,0,.38,0,.57l2.3-1.32c0-.2,0-.39,0-.58,0-10.57-7.43-14.86-16.59-9.57s-16.58,18.15-16.58,28.73c0,.18,0,.37,0,.55Z"/><polygon class="cls-7" points="221.57 125.78 201.6 114.25 199.38 115.52 219.36 127.06 221.57 125.78"/><polygon class="cls-8" points="219.36 127.06 199.38 115.52 199.38 126.53 219.36 138.06 219.36 127.06"/><polygon class="cls-7" points="82.7 214.54 232 128.34 228.89 126.54 79.59 212.74 82.7 214.54"/><polygon class="cls-6" points="79.59 212.75 228.89 126.55 228.89 119.29 79.59 205.49 79.59 212.75"/><polygon class="cls-8" points="240.25 132.33 225.78 123.97 225.78 129.05 240.25 137.41 240.25 132.33"/><polygon class="cls-8" points="236.22 134.77 221.74 126.41 221.74 131.49 236.22 139.84 236.22 134.77"/><polygon class="cls-7" points="135.09 192.15 120.62 183.8 117.51 185.59 131.98 193.95 135.09 192.15"/><polygon class="cls-8" points="131.98 193.95 117.51 185.59 117.51 190.67 131.98 199.03 131.98 193.95"/><polygon class="cls-7" points="166.99 174.22 152.52 165.86 149.41 167.66 163.88 176.01 166.99 174.22"/><polygon class="cls-8" points="163.88 176.01 149.41 167.66 149.41 172.73 163.88 181.09 163.88 176.01"/><polygon class="cls-7" points="201.7 154.62 187.23 146.26 184.12 148.06 198.59 156.42 201.7 154.62"/><polygon class="cls-8" points="198.59 156.42 184.12 148.06 184.12 153.13 198.59 161.49 198.59 156.42"/><path class="cls-27" d="M219.71,126.9a.86.86,0,0,0-.8.11l-17.47,10.08a2.65,2.65,0,0,0-1.2,2.07v7.64a.78.78,0,0,0,.47.82l15,8.49a.87.87,0,0,1-.35-.78V147.7a2.65,2.65,0,0,1,1.2-2.07L234,135.54a.84.84,0,0,1,.81-.09Z"/><polygon class="cls-7" points="243.36 130.53 228.88 122.18 225.78 123.97 240.25 132.33 243.36 130.53"/><polygon class="cls-7" points="103.45 213.57 252.75 127.37 249.64 125.58 100.34 211.78 103.45 213.57"/><polygon class="cls-6" points="103.45 217.53 252.75 131.33 252.75 127.37 103.45 213.57 103.45 217.53"/><polygon class="cls-6" points="251.19 132.23 103.45 217.53 103.45 230.04 174.39 189.08 183.97 188.39 232 160.66 234.64 159.61 251.19 150.06 251.19 132.23"/><polygon class="cls-8" points="251.19 132.23 103.45 217.53 103.45 220.48 251.19 135.18 251.19 132.23"/><polygon class="cls-7" points="78.04 198.84 227.34 112.64 224.23 110.84 74.93 197.04 78.04 198.84"/><polygon class="cls-7" points="79.59 205.49 228.89 119.29 225.78 117.49 76.48 203.69 79.59 205.49"/><polygon class="cls-6" points="78.04 202.79 227.34 116.59 227.34 112.64 78.04 198.84 78.04 202.79"/><polygon class="cls-7" points="239.32 132.97 224.85 124.61 221.74 126.41 236.22 134.77 239.32 132.97"/><path class="cls-9" d="M257.33,182.06c0,.76-.54,1.08-1.2.71l-15-8.33a2.58,2.58,0,0,1-1.21-2.05V160.32c0-.76.54-1.08,1.21-.72l15,8.34a2.6,2.6,0,0,1,1.2,2.05Z"/><polygon class="cls-9" points="233.27 158.56 258.16 172.93 255.67 165.53 241.19 156.36 233.27 158.56"/><path class="cls-10" d="M251.44,166.75l-7.95-4.27c-2.43-1.38-5.76-1.17-9.45,1-7.41,4.28-13.41,14.68-13.41,23.23,0,4.3,1.52,7.32,4,8.71l8,4.26c2.42,1.38,5.75,1.16,9.44-1,7.4-4.28,13.41-14.68,13.41-23.23C255.41,171.15,253.89,168.14,251.44,166.75Z"/><path class="cls-11" d="M255.41,175.45c0,8.55-6,19-13.41,23.23-3.69,2.12-7,2.34-9.44,1s-4-4.4-4-8.7c0-8.56,6-19,13.41-23.23,3.69-2.13,7-2.34,9.45-1S255.41,171.15,255.41,175.45Z"/><path class="cls-12" d="M254.58,176.45c0,7.79-5.47,17.27-12.22,21.16s-12.22.74-12.22-7.05,5.47-17.27,12.22-21.17S254.58,168.65,254.58,176.45Z"/><path class="cls-28" d="M250.58,178.54c0,5.23-3.68,11.6-8.22,14.22s-8.21.5-8.21-4.74,3.67-11.61,8.21-14.23S250.58,173.3,250.58,178.54Z"/><path class="cls-29" d="M249.83,179a16.49,16.49,0,0,1-7.47,12.94c-4.12,2.39-7.47.45-7.47-4.31a16.53,16.53,0,0,1,7.47-12.94C246.49,172.27,249.83,174.2,249.83,179Z"/><path class="cls-30" d="M245.94,173.64a6.52,6.52,0,0,0-3.58,1,16.53,16.53,0,0,0-7.47,12.94,6.54,6.54,0,0,0,.93,3.63,6.49,6.49,0,0,0,3.57-1,16.52,16.52,0,0,0,7.47-12.94A6.54,6.54,0,0,0,245.94,173.64Z"/><path class="cls-31" d="M245,173.69a7.47,7.47,0,0,0-2.61,1,16.53,16.53,0,0,0-7.47,12.94,7.42,7.42,0,0,0,.48,2.77,5.41,5.41,0,0,0,4-.82,15.23,15.23,0,0,0,6.9-11.94A5.4,5.4,0,0,0,245,173.69Z"/><path class="cls-32" d="M234.89,187.59a9.72,9.72,0,0,0,.07,1.11,5.52,5.52,0,0,0,2.51-.81,13.32,13.32,0,0,0,6-10.43,5.17,5.17,0,0,0-.8-3l-.33.18A16.53,16.53,0,0,0,234.89,187.59Z"/><path class="cls-33" d="M242.18,180.49a6.2,6.2,0,0,1-2.8,4.85c-1.55.89-2.8.17-2.8-1.61a6.17,6.17,0,0,1,2.8-4.85C240.92,178,242.18,178.71,242.18,180.49Z"/><path class="cls-9" d="M223.65,203.67a.75.75,0,0,1-1.21.71l-15.05-8.33a2.63,2.63,0,0,1-1.21-2.06V181.92a.75.75,0,0,1,1.21-.71l15.05,8.34a2.61,2.61,0,0,1,1.21,2Z"/><path class="cls-10" d="M207.85,180.22l-8-4.27c-2.42-1.38-5.76-1.17-9.45,1C183,181.19,177,191.59,177,200.14c0,4.3,1.53,7.32,4,8.71l8,4.26c2.43,1.38,5.76,1.16,9.44-1,7.41-4.28,13.41-14.68,13.41-23.23C211.81,184.63,210.3,181.61,207.85,180.22Z"/><path class="cls-11" d="M211.81,188.92c0,8.55-6,19-13.41,23.23-3.68,2.12-7,2.34-9.44,1s-4-4.4-4-8.7c0-8.56,6-19,13.41-23.23,3.69-2.13,7-2.34,9.45-1S211.81,184.63,211.81,188.92Z"/><path class="cls-12" d="M211,189.92c0,7.79-5.47,17.27-12.22,21.16s-12.22.74-12.22-7.05,5.47-17.27,12.22-21.17S211,182.12,211,189.92Z"/><polygon class="cls-9" points="200.08 177.73 224.97 192.1 222.48 184.7 208 175.53 200.08 177.73"/><path class="cls-34" d="M254,161.94h0l-.09-.05c-.14-.08-.28-.17-.43-.24l-16-9.2c-2.95-1.4-6.87-1-11.17,1.45-9.16,5.29-16.59,18.15-16.59,28.73,0,.19,0,.37,0,.56l15.62,9,2.3-1.33c0-.18,0-.37,0-.56,0-9.11,6.4-20.19,14.29-24.74s14.29-.86,14.29,8.25c0,.19,0,.38,0,.57l2.3-1.33c0-.19,0-.38,0-.57C258.55,167.38,256.8,163.74,254,161.94Z"/><path class="cls-6" d="M227.68,190.88c0-.18,0-.37,0-.56,0-9.11,6.4-20.19,14.29-24.74s14.29-.86,14.29,8.25c0,.19,0,.38,0,.57l2.3-1.33c0-.19,0-.38,0-.57,0-10.58-7.43-14.87-16.59-9.58s-16.59,18.15-16.59,28.73c0,.19,0,.37,0,.56Z"/><path class="cls-10" d="M218.25,185.92l-7.95-4.26c-2.43-1.38-5.77-1.17-9.46,1-7.4,4.27-13.41,14.67-13.41,23.22,0,4.31,1.53,7.32,4,8.71l8,4.27c2.43,1.37,5.76,1.16,9.44-1,7.41-4.28,13.41-14.68,13.41-23.23C222.21,190.33,220.7,187.31,218.25,185.92Z"/><path class="cls-11" d="M222.21,194.62c0,8.55-6,18.95-13.41,23.23-3.68,2.13-7,2.34-9.44,1s-4-4.41-4-8.71c0-8.55,6-19,13.41-23.23,3.69-2.13,7-2.34,9.45-1S222.21,190.33,222.21,194.62Z"/><path class="cls-12" d="M221.39,195.62c0,7.79-5.47,17.27-12.22,21.17s-12.22.73-12.22-7.06,5.47-17.27,12.22-21.17S221.39,187.82,221.39,195.62Z"/><path class="cls-35" d="M217.38,197.71c0,5.24-3.67,11.61-8.21,14.22s-8.22.5-8.22-4.74,3.68-11.61,8.22-14.23S217.38,192.47,217.38,197.71Z"/><path class="cls-36" d="M216.64,198.14a16.52,16.52,0,0,1-7.47,12.94c-4.13,2.38-7.47.45-7.47-4.32a16.52,16.52,0,0,1,7.47-12.94C213.3,191.44,216.64,193.37,216.64,198.14Z"/><path class="cls-37" d="M212.74,192.81a6.57,6.57,0,0,0-3.57,1,16.52,16.52,0,0,0-7.47,12.94,6.46,6.46,0,0,0,.93,3.63,6.49,6.49,0,0,0,3.57-1,16.51,16.51,0,0,0,7.47-12.94A6.54,6.54,0,0,0,212.74,192.81Z"/><path class="cls-38" d="M211.77,192.86a7.42,7.42,0,0,0-2.6,1,16.52,16.52,0,0,0-7.47,12.94,7.35,7.35,0,0,0,.48,2.77,5.42,5.42,0,0,0,4-.82,15.22,15.22,0,0,0,6.9-11.94A5.42,5.42,0,0,0,211.77,192.86Z"/><path class="cls-39" d="M201.7,206.76a7.87,7.87,0,0,0,.07,1.11,5.45,5.45,0,0,0,2.5-.81,13.27,13.27,0,0,0,6-10.42,5.26,5.26,0,0,0-.8-3l-.33.18A16.52,16.52,0,0,0,201.7,206.76Z"/><path class="cls-40" d="M209,199.67a6.2,6.2,0,0,1-2.8,4.85c-1.54.89-2.8.16-2.8-1.62a6.2,6.2,0,0,1,2.8-4.85C207.73,197.16,209,197.88,209,199.67Z"/><path class="cls-41" d="M220.78,181.11h0l-.09-.05-.43-.24-16-9.2c-2.95-1.4-6.87-1-11.18,1.46-9.16,5.28-16.58,18.15-16.58,28.72,0,.19,0,.37,0,.56l15.62,9,2.3-1.33c0-.18,0-.36,0-.55,0-9.11,6.4-20.19,14.29-24.75s14.28-.86,14.28,8.25c0,.19,0,.38,0,.57l2.3-1.33c0-.19,0-.38,0-.57C225.35,186.56,223.61,182.92,220.78,181.11Z"/><path class="cls-6" d="M194.49,210.05c0-.18,0-.36,0-.55,0-9.11,6.4-20.19,14.29-24.75s14.28-.86,14.28,8.25c0,.19,0,.38,0,.57l2.3-1.33c0-.19,0-.38,0-.57,0-10.57-7.42-14.86-16.58-9.57s-16.59,18.15-16.59,28.72c0,.19,0,.38,0,.56Z"/><polygon class="cls-7" points="266.5 153.28 246.53 141.75 244.31 143.02 264.29 154.56 266.5 153.28"/><polygon class="cls-8" points="264.46 154.56 244.49 143.02 244.49 154.03 264.46 165.56 264.46 154.56"/><polygon class="cls-6" points="266.67 164.28 266.67 153.28 264.46 154.56 264.46 165.56 266.67 164.28"/><path class="cls-42" d="M162.78,195.4a8,8,0,0,0-7.26,0,2.57,2.57,0,0,0-1.51,2.09v13.27a2.57,2.57,0,0,0,1.51,2.1,8.07,8.07,0,0,0,7.26,0,2.56,2.56,0,0,0,1.5-2.1V197.49A2.56,2.56,0,0,0,162.78,195.4Z"/><path class="cls-43" d="M162.78,195.4c2,1.16,2,3,0,4.19a8,8,0,0,1-7.26,0c-2-1.16-2-3,0-4.19A8,8,0,0,1,162.78,195.4Z"/><path class="cls-42" d="M154.29,199.47a8.07,8.07,0,0,0-7.26,0,2.56,2.56,0,0,0-1.5,2.1v13.27a2.53,2.53,0,0,0,1.5,2.09,8,8,0,0,0,7.26,0,2.53,2.53,0,0,0,1.5-2.09V201.57A2.56,2.56,0,0,0,154.29,199.47Z"/><path class="cls-43" d="M154.29,199.47c2,1.16,2,3,0,4.19a8,8,0,0,1-7.26,0c-2-1.15-2-3,0-4.19A8.07,8.07,0,0,1,154.29,199.47Z"/><path class="cls-44" d="M157.23,211l-14-8.07a.77.77,0,0,0-.93,0h0l-28.8,16.57a.81.81,0,0,0-.39.79v13a2.65,2.65,0,0,0,1.2,2.07l14,8.07a.86.86,0,0,0,.85.08l28.9-16.65,0,0h0a.86.86,0,0,0,.32-.75v-13A2.67,2.67,0,0,0,157.23,211Z"/><path class="cls-45" d="M128.3,243.48c.66.37,1.2.06,1.2-.69v-13a2.65,2.65,0,0,0-1.2-2.07l-14-8.06c-.66-.38-1.2-.07-1.2.69v13a2.65,2.65,0,0,0,1.2,2.07Z"/><path class="cls-46" d="M151.83,214l-14-8.07a.77.77,0,0,0-.93,0h0l-1.13.79h0a.83.83,0,0,1,.82.08l14,8.07a2.64,2.64,0,0,1,1.19,2.07v13l-.35.78,1.23-.87,0,0h0a.89.89,0,0,0,.32-.75v-13A2.65,2.65,0,0,0,151.83,214Z"/><path class="cls-47" d="M152.59,213.54l-14-8.07a.77.77,0,0,0-.93,0h0l-1.14.79h0a.88.88,0,0,1,.83.09l14,8.07a2.65,2.65,0,0,1,1.2,2.07v13l-.35.77,1.23-.86,0,0h0a.83.83,0,0,0,.32-.74v-13A2.67,2.67,0,0,0,152.59,213.54Z"/><path class="cls-46" d="M135.64,223.32l-14-8.07a.77.77,0,0,0-.93,0h0l-1.13.78h0a.88.88,0,0,1,.83.09l14,8.07a2.65,2.65,0,0,1,1.2,2.07v13l-.36.77,1.24-.86,0,0h0a.89.89,0,0,0,.32-.75v-13A2.65,2.65,0,0,0,135.64,223.32Z"/><path class="cls-48" d="M136.4,222.82l-14-8.06a.76.76,0,0,0-.93,0h0l-1.13.79h0a.83.83,0,0,1,.83.09l14,8.07a2.65,2.65,0,0,1,1.2,2.07v13l-.35.77,1.23-.86,0,0v0h0a.84.84,0,0,0,.32-.74v-13A2.68,2.68,0,0,0,136.4,222.82Z"/><polygon class="cls-49" points="146.34 220.15 148.47 224.89 148.47 226.51 150.27 225.47 150.27 224.61 147.95 219.21 146.34 220.15"/><polygon class="cls-49" points="203.78 197.52 203.78 196.25 202.29 195.4 139.77 231.56 139.77 235.46 140.94 236.17 203.46 200 203.46 198.98 203.2 198.81 203.2 197.85 203.78 197.52"/><polygon class="cls-50" points="141.25 233.68 140.68 233.41 140.68 234.98 203.2 198.81 203.2 197.85 141.25 233.68"/><polygon class="cls-51" points="202.29 195.4 139.77 231.56 141.25 232.42 203.78 196.25 202.29 195.4"/><polygon class="cls-52" points="203.46 198.98 140.94 235.14 140.68 234.98 203.2 198.81 203.46 198.98"/><polygon class="cls-49" points="203.78 204.6 203.78 203.33 202.29 202.47 139.77 238.64 139.77 242.54 140.94 243.25 203.46 207.08 203.46 206.06 203.2 205.89 203.2 204.93 203.78 204.6"/><polygon class="cls-50" points="141.25 240.76 140.68 240.48 140.68 242.06 203.2 205.89 203.2 204.93 141.25 240.76"/><polygon class="cls-51" points="202.29 202.47 139.77 238.64 141.25 239.5 203.78 203.33 202.29 202.47"/><polygon class="cls-52" points="203.46 206.06 140.94 242.22 140.68 242.06 203.2 205.89 203.46 206.06"/><polygon class="cls-49" points="190.36 194.67 192.5 199.41 192.5 201.03 194.29 200 194.29 199.13 191.98 193.73 190.36 194.67"/><polygon class="cls-53" points="190.36 194.67 192.5 199.41 192.5 201.03 193.4 200.51 193.4 199.41 191.16 194.2 190.36 194.67"/><polygon class="cls-53" points="146.34 220.15 148.47 224.89 148.47 226.51 149.37 225.99 149.37 224.89 147.14 219.68 146.34 220.15"/><polygon class="cls-54" points="230.04 0 54.68 101.25 54.68 189.81 129.16 232.59 304.52 131.34 304.52 42.77 230.04 0"/><polygon class="cls-54" points="302.83 43.74 228.17 1.08 56.83 100.01 131.12 142.67 131.12 142.67 131.12 220.56 302.87 121.4 302.87 43.73 302.83 43.74"/><polygon class="cls-55" points="302.87 43.73 302.87 132.29 304.52 131.34 304.52 42.77 302.87 43.73"/><polygon class="cls-55" points="131.12 222.8 131.12 231.45 302.87 132.29 302.87 123.65 131.12 222.8"/><polygon class="cls-55" points="131.12 142.67 131.12 220.56 302.87 121.4 302.83 43.74 131.12 142.67"/><polygon class="cls-46" points="54.68 101.25 54.68 189.81 129.16 232.59 129.15 143.8 54.68 101.25"/><polygon class="cls-55" points="129.16 232.59 131.12 231.45 131.12 142.67 129.15 143.8 129.16 232.59"/><polygon class="cls-46" points="131.12 227.19 131.12 228.97 302.87 129.81 302.87 128.04 131.12 227.19"/><polygon class="cls-55" points="131.12 219.37 131.12 220.56 302.87 121.4 302.87 120.21 131.12 219.37"/><polygon class="cls-55" points="130.53 143.06 130.53 231.79 131.12 231.45 131.12 142.67 130.53 143.06"/><polygon class="cls-55" points="302.87 43.73 302.87 132.29 303.3 132.04 303.3 43.48 302.87 43.73"/><polygon class="cls-56" points="140.76 222.95 138.73 224.12 138.73 222.86 140.76 221.69 140.76 222.95"/><polygon class="cls-57" points="140.76 215.16 138.73 216.33 138.73 212.34 140.76 211.16 140.76 215.16"/><polygon class="cls-58" points="140.57 222.66 138.97 223.59 138.97 213.13 140.57 212.21 140.57 222.66"/><polygon class="cls-59" points="140.57 222.66 138.97 223.59 138.97 219.41 140.57 218.49 140.57 222.66"/><polygon class="cls-11" points="140.57 217.44 138.97 218.36 138.97 216.19 140.57 215.27 140.57 217.44"/><polygon class="cls-56" points="157.89 213.06 155.86 214.23 155.86 212.97 157.89 211.79 157.89 213.06"/><polygon class="cls-60" points="157.89 205.27 155.86 206.44 155.86 202.45 157.89 201.27 157.89 205.27"/><polygon class="cls-61" points="157.7 212.77 156.1 213.69 156.1 203.24 157.7 202.32 157.7 212.77"/><polygon class="cls-59" points="157.7 212.77 156.1 213.69 156.1 209.52 157.7 208.6 157.7 212.77"/><polygon class="cls-11" points="157.7 207.54 156.1 208.47 156.1 206.3 157.7 205.38 157.7 207.54"/><polygon class="cls-56" points="175.03 203.17 172.99 204.34 172.99 203.08 175.02 201.9 175.03 203.17"/><polygon class="cls-62" points="175.02 195.38 172.99 196.55 172.99 192.56 175.02 191.38 175.02 195.38"/><polygon class="cls-63" points="174.83 202.88 173.23 203.81 173.23 193.35 174.83 192.43 174.83 202.88"/><polygon class="cls-59" points="174.83 202.88 173.23 203.81 173.23 199.63 174.83 198.71 174.83 202.88"/><polygon class="cls-11" points="174.83 197.65 173.23 198.58 173.23 196.41 174.83 195.49 174.83 197.65"/><polygon class="cls-56" points="192.16 193.28 190.13 194.45 190.13 193.19 192.16 192.01 192.16 193.28"/><polygon class="cls-64" points="192.16 185.49 190.13 186.66 190.13 182.66 192.16 181.49 192.16 185.49"/><polygon class="cls-65" points="191.96 192.99 190.36 193.91 190.36 183.46 191.96 182.54 191.96 192.99"/><polygon class="cls-59" points="191.96 192.99 190.36 193.91 190.36 189.74 191.96 188.82 191.96 192.99"/><polygon class="cls-11" points="191.96 187.76 190.36 188.69 190.36 186.52 191.96 185.6 191.96 187.76"/><polygon class="cls-56" points="209.29 183.39 207.26 184.56 207.26 183.29 209.29 182.12 209.29 183.39"/><polygon class="cls-66" points="209.29 175.6 207.26 176.77 207.26 172.77 209.29 171.6 209.29 175.6"/><polygon class="cls-67" points="209.09 183.1 207.49 184.02 207.49 173.57 209.09 172.65 209.09 183.1"/><polygon class="cls-59" points="209.09 183.1 207.49 184.02 207.49 179.85 209.09 178.93 209.09 183.1"/><polygon class="cls-11" points="209.09 177.87 207.49 178.8 207.49 176.63 209.09 175.71 209.09 177.87"/><polygon class="cls-56" points="226.42 173.5 224.39 174.67 224.39 173.41 226.42 172.23 226.42 173.5"/><polygon class="cls-68" points="226.42 165.71 224.39 166.88 224.39 162.88 226.42 161.71 226.42 165.71"/><polygon class="cls-69" points="226.23 173.21 224.63 174.13 224.63 163.68 226.23 162.75 226.23 173.21"/><polygon class="cls-59" points="226.23 173.21 224.63 174.13 224.63 169.96 226.23 169.04 226.23 173.21"/><polygon class="cls-11" points="226.23 167.98 224.63 168.91 224.63 166.74 226.23 165.82 226.23 167.98"/><polygon class="cls-56" points="243.55 163.61 241.52 164.78 241.52 163.51 243.55 162.34 243.55 163.61"/><polygon class="cls-70" points="243.55 155.81 241.52 156.99 241.52 152.99 243.55 151.82 243.55 155.81"/><polygon class="cls-71" points="243.36 163.32 241.76 164.24 241.76 153.79 243.36 152.86 243.36 163.32"/><polygon class="cls-59" points="243.36 163.32 241.76 164.24 241.76 160.07 243.36 159.15 243.36 163.32"/><polygon class="cls-11" points="243.36 158.09 241.76 159.01 241.76 156.85 243.36 155.93 243.36 158.09"/><polygon class="cls-56" points="260.68 153.72 258.65 154.89 258.65 153.62 260.68 152.45 260.68 153.72"/><polygon class="cls-72" points="260.68 145.93 258.65 147.1 258.65 143.1 260.68 141.93 260.68 145.93"/><polygon class="cls-73" points="260.49 153.43 258.89 154.35 258.89 143.9 260.49 142.97 260.49 153.43"/><polygon class="cls-59" points="260.49 153.43 258.89 154.35 258.89 150.18 260.49 149.25 260.49 153.43"/><polygon class="cls-11" points="260.49 148.2 258.89 149.12 258.89 146.96 260.49 146.04 260.49 148.2"/><polygon class="cls-56" points="277.81 143.82 275.78 145 275.78 143.73 277.81 142.56 277.81 143.82"/><polygon class="cls-74" points="277.81 136.03 275.78 137.21 275.78 133.21 277.81 132.04 277.81 136.03"/><polygon class="cls-75" points="277.62 143.54 276.02 144.46 276.02 134.01 277.62 133.08 277.62 143.54"/><polygon class="cls-59" points="277.62 143.54 276.02 144.46 276.02 140.29 277.62 139.37 277.62 143.54"/><polygon class="cls-11" points="277.62 138.31 276.02 139.23 276.02 137.07 277.62 136.15 277.62 138.31"/><polygon class="cls-56" points="294.95 133.94 292.92 135.11 292.92 133.84 294.95 132.67 294.95 133.94"/><polygon class="cls-76" points="294.95 126.14 292.91 127.31 292.91 123.32 294.95 122.15 294.95 126.14"/><polygon class="cls-77" points="294.75 133.65 293.15 134.57 293.15 124.12 294.75 123.19 294.75 133.65"/><polygon class="cls-59" points="294.75 133.65 293.15 134.57 293.15 130.4 294.75 129.47 294.75 133.65"/><polygon class="cls-11" points="294.75 128.42 293.15 129.34 293.15 127.18 294.75 126.25 294.75 128.42"/><polygon class="cls-6" points="80.12 276.91 75.34 274.15 64.81 280.24 69.58 282.99 80.12 276.91"/><polygon class="cls-8" points="80.12 276.08 80.12 276.91 69.58 282.99 69.58 282.17 80.12 276.08"/><polygon class="cls-9" points="118.77 253.58 117.59 255.6 113.13 253.58 85.34 264.15 86.3 244.73 103.21 236.82 116.6 238.43 118.77 253.58"/><path class="cls-9" d="M116.13,261.78c0,.76-.54,1.08-1.21.72l-15-8.34a2.6,2.6,0,0,1-1.2-2V227.67c0-.76.54-1.08,1.2-.71l15,8.34a2.58,2.58,0,0,1,1.21,2Z"/><path class="cls-10" d="M110,247.74l-7.31-4.35c-2.44-1.39-5.81-1.18-9.52,1-7.47,4.31-13.53,14.79-13.53,23.42,0,4.34,1.53,7.38,4,8.78l7.3,4.34c2.45,1.39,5.81,1.17,9.52-1,7.47-4.31,13.52-14.8,13.52-23.42C114,252.18,112.43,249.14,110,247.74Z"/><path class="cls-11" d="M114,256.51c0,8.62-6,19.11-13.52,23.42-3.71,2.14-7.07,2.36-9.52,1s-4-4.44-4-8.78c0-8.62,6-19.1,13.52-23.42,3.72-2.14,7.08-2.36,9.53-1S114,252.18,114,256.51Z"/><path class="cls-12" d="M113.13,257.51c0,7.86-5.51,17.42-12.32,21.35s-12.32.74-12.32-7.12S94,254.33,100.81,250.4,113.13,249.66,113.13,257.51Z"/><path class="cls-78" d="M109.23,259.3c0,5.36-3.77,11.88-8.41,14.57s-8.42.51-8.42-4.86,3.77-11.89,8.42-14.57S109.23,253.93,109.23,259.3Z"/><path class="cls-79" d="M107.53,259.63a16,16,0,0,1-7.22,12.51c-4,2.3-7.22.44-7.22-4.17a16,16,0,0,1,7.22-12.51C104.3,253.16,107.53,255,107.53,259.63Z"/><path class="cls-80" d="M100.82,255.09a10.11,10.11,0,0,0-1.2.81,7.28,7.28,0,0,1,.69-.44c4-2.3,7.22-.44,7.22,4.17a16,16,0,0,1-7.22,12.51c-4,2.3-7.22.44-7.22-4.17a12.25,12.25,0,0,1,.13-1.69,12.55,12.55,0,0,0-.25,2.4c0,5,3.51,7,7.85,4.54a17.38,17.38,0,0,0,7.85-13.6C108.67,254.61,105.15,252.59,100.82,255.09Z"/><path class="cls-81" d="M107.08,259.82a15.22,15.22,0,0,1-6.89,11.94c-3.81,2.2-6.9.42-6.9-4a15.23,15.23,0,0,1,6.9-11.94C104,253.64,107.08,255.42,107.08,259.82Z"/><path class="cls-82" d="M105.77,262a10.4,10.4,0,0,1-4.71,8.15c-2.6,1.51-4.7.29-4.7-2.71a10.39,10.39,0,0,1,4.7-8.16C103.66,257.82,105.77,259,105.77,262Z"/><path class="cls-83" d="M100.8,257.69c.13.55-.06,1.07-.44,1.16s-.78-.29-.91-.84.06-1.08.43-1.17S100.67,257.13,100.8,257.69Z"/><path class="cls-84" d="M94.9,265.38c.57.08,1,.45.93.83s-.56.62-1.12.54-1-.45-.92-.83S94.34,265.3,94.9,265.38Z"/><path class="cls-85" d="M95.19,269.76c.51-.24,1-.24,1.14,0s-.21.65-.72.89-1,.24-1.15,0S94.67,270,95.19,269.76Z"/><path class="cls-86" d="M97.73,271.55c.21-.36.54-.56.73-.44s.17.49,0,.85-.54.55-.73.44S97.52,271.9,97.73,271.55Z"/><path class="cls-87" d="M97.38,260.69a.8.8,0,1,1-.84,1.27.8.8,0,1,1,.84-1.27Z"/><path class="cls-88" d="M104.4,256.83c0,.57-.3,1-.62,1s-.59-.48-.57-1.05.3-1,.63-1S104.42,256.27,104.4,256.83Z"/><path class="cls-89" d="M106.5,260.13c-.32.21-.69.22-.82,0s0-.53.34-.75.69-.22.82,0S106.82,259.91,106.5,260.13Z"/><path class="cls-90" d="M105.92,264c-.14,0-.21-.22-.17-.43s.2-.34.33-.31.22.22.17.42S106.06,264,105.92,264Z"/><path class="cls-91" d="M101.46,270.84a.29.29,0,0,1-.33-.23.28.28,0,0,1,.13-.38c.13,0,.27.06.33.23A.3.3,0,0,1,101.46,270.84Z"/><path class="cls-92" d="M104.62,267.23a.23.23,0,0,1-.3.08.24.24,0,0,1,0-.32.23.23,0,0,1,.31-.08A.23.23,0,0,1,104.62,267.23Z"/><path class="cls-93" d="M104.14,263.54a6.12,6.12,0,0,1-2.77,4.81c-1.54.89-2.78.17-2.78-1.6a6.13,6.13,0,0,1,2.78-4.81C102.9,261.06,104.14,261.77,104.14,263.54Z"/><path class="cls-94" d="M104.41,263.81a6,6,0,0,1-2.69,4.67c-1.49.86-2.7.16-2.7-1.56a5.94,5.94,0,0,1,2.7-4.66C103.2,261.4,104.41,262.09,104.41,263.81Z"/><polygon class="cls-10" points="69.58 282.99 64.81 280.24 64.81 270.85 68.24 272.83 69.58 282.17 69.58 282.99"/><polygon class="cls-10" points="80.12 276.91 75.34 274.15 75.34 264.76 78.77 266.75 80.12 276.08 80.12 276.91"/><path class="cls-43" d="M10,189.45c0,.76-.54,1.07-1.2.69l-4.7-2.71a2.67,2.67,0,0,1-1.2-2.08V165.91c0-.76.54-1.07,1.2-.69l4.7,2.72A2.65,2.65,0,0,1,10,170Z"/><path class="cls-6" d="M9.32,190c0,.76-.54,1.07-1.2.69l-4.7-2.72a2.65,2.65,0,0,1-1.2-2.07V166.42c0-.76.54-1.07,1.2-.69l4.7,2.71a2.67,2.67,0,0,1,1.2,2.08Z"/><path class="cls-54" d="M121,254.12s-.47-12.53-.72-14.61-.55-3.6-1-3.88l-4.69-2.73-.57-1.43,4.77-3.06L116,224.88l-1.67-1.67v-4.37l1-.47s-2-32.15-2.33-36.28-2.39-9.32-4.36-11.05-16.74-10.82-25.94-16.49-24.74-14.29-28.08-16-4.07-1-5.44,0-36.27,23.37-37.65,24.9A11.69,11.69,0,0,0,10,165.62a4.68,4.68,0,0,1-.48-1.43,8.8,8.8,0,0,0-4.39,1.6s-.34,5.82-.2,7.45a6.06,6.06,0,0,0,1.58,3.86c-1.15,7.39-3,21.74-3,21.74l-.35,9.49c-1.72.83-2.8,4-2.9,4.86s-.54,5.84,0,8.35,4,5.2,4,5.2c-1.91.55-1.47,5.41-1.72,8.7s-.19,7.07,2,9.28,9.92,8.06,9.92,8.06c-.79,2,1.42,3.83,1.42,3.83s26.83,16.16,27.56,16.16a27.22,27.22,0,0,0,3.74-.93s8.59,4.52,12.87,5.89a10.63,10.63,0,0,0,8.11-1v-3.23l7.88-4.07V268.4l4.17-2.32,2.27,1.35L86,265.61s2.31-9.53,4.34-15.31a23.13,23.13,0,0,1,9.1-11.5,82.93,82.93,0,0,1,9.39-5.45,9.69,9.69,0,0,1,2.32-.41l2.4,4.56,1.34,1.34a29.15,29.15,0,0,1,2.24,8.41,48.49,48.49,0,0,1,.44,8.35Z"/><path class="cls-95" d="M113,182.09a23.1,23.1,0,0,0-2.62-8.69L67,199.22s-.24,5.5-2.32,8.61-9.16-.63-12.65-2.58L49.77,204l-29.44-4.31-16.55-2.9c-.17,1.29-.27,2.08-.27,2.08l-.35,9.49v3.52c0,.52,2,3.35,2.3,3.65A19.47,19.47,0,0,0,.89,215c-.28,0-.5-.7-.66-1.55a34.89,34.89,0,0,0,0,8c.54,2.5,4,5.2,4,5.2s.78,2.61,5.21,5.91c-.26-1-.41-1.67-.41-1.67h0a7,7,0,0,0,1.53,1.68c2.91,2.22,14.44,9.21,18.8,11.9s16.79,9.9,18.42,10.71a8.85,8.85,0,0,0,1.47.61l3.6,2.37-.12.16h0a25.8,25.8,0,0,0,8.5,3,11.64,11.64,0,0,0,6-.94l1,3.14a16.74,16.74,0,0,1-4.95,1.12c-2.52,0-9.8-2.51-14.8-5.11a21.9,21.9,0,0,1-5.68-2.52c-1.8-1-21.15-12.65-23.9-14.28a49.2,49.2,0,0,1-7-4.9h0a50.88,50.88,0,0,1-5.82-4.58c-1.91-1.8-3-3-3.16-4.23a16.54,16.54,0,0,0-.18,1.69c.41.37.79.74.79.74l1.72,5.12,4.9,5.5s1.34,1.28,1.39,1.75.36,1.93-.26,1.8-4-3.25-5.69-4.77S3,238.47,2.51,236.52c-.15,3,.11,6.23,2.08,8.2,2.21,2.21,9.92,8.06,9.92,8.06-.79,2,1.42,3.83,1.42,3.83s26.83,16.16,27.56,16.16a27.22,27.22,0,0,0,3.74-.93s8.59,4.52,12.87,5.89a10.63,10.63,0,0,0,8.11-1v-3.23l7.88-4.07V268.4l4.17-2.32,1.28-.76v-2l-13.33,7.11v-4.34l9.52-5.1c.74-4.44,2.16-10,2.16-10l7.9-4.67c.63-1,3.76-6.31,3.76-6.31L69.71,252.17V248.7l44.64-25.49v-4.37l1-.47S113.28,186.22,113,182.09ZM49.18,251.2a3.31,3.31,0,0,1-3.79.72c-1.28-.53-12.43-7.45-15.63-9.33s-12.78-7.4-15.22-8.93-3.89-5.42-3.89-5.42l.51-1.17c1.26.89,2.61,1.8,3.76,2.46,3.23,1.85,28.63,17.22,33,19.57l1.33.7A2,2,0,0,1,49.18,251.2Zm2-5.33s-2.16,2-4.33.86-33.79-20.34-34.27-20.61S9,222.5,9,220.43a1.52,1.52,0,0,1,.62-1.12c1.91,1.35,3.93,2.67,4.75,3.2,1.59,1,23.72,14.53,30.09,18.11,3.11,1.74,5.93,3.15,8,4.13Zm-40.87,2.86C8.91,247.6,3.54,244,3.14,241.6a25.15,25.15,0,0,1-.35-2.75l.16.08a6.34,6.34,0,0,0,1.16,1.55,4.82,4.82,0,0,0,1.37,3c1.44,1.42,4.94,4.82,5.92,5.78C11.23,249.26,10.92,249.16,10.36,248.73ZM47,263c-.18.69-.54,2-1,3.2a8,8,0,0,1-1,2.11c-.82,1-1.9.43-3.95-.63s-20.52-12.3-22.21-13.35-2.94-1.39-3.84-3.62a20.9,20.9,0,0,1-.89-3.61l.92.62,31,18.48-.32-.18c.37-1.09.67-2.22.83-2.84.31-1.2-.26-1.63-1.95-2.54s-15.7-9.38-19-11.33-11.18-6.87-11.18-6.87c-.37-.19-.75-.45-1-.56.07-.55.82,0,1.48.39,0,0,7.9,4.91,11.19,6.86s17.3,10.42,19,11.33S47.26,261.75,47,263Zm11.43,13.22c-1.33-.33-6.74-2.9-8-3.46a4,4,0,0,1-1.55-.94,8.79,8.79,0,0,0,1.2.52c2.76,1,8.31,2.93,10.62,3.19A2,2,0,0,1,58.39,276.17ZM61,273a65.61,65.61,0,0,1-9.1-3.34c-2.62-1.2-3.3-1.41-3.34-2.22a8.49,8.49,0,0,1,1.13-2.76l3.19,1.72,6.25,2.49s4.53,2.79,4.38,3.26S62.7,273.37,61,273Zm-2-23.06a4.72,4.72,0,0,0-1.12-1.89c-.65-.81-1.71-2.09-1.71-2.09a38.42,38.42,0,0,0,6.57,1.26A19.28,19.28,0,0,0,68.21,246a13,13,0,0,1,1.43,1.69,2.46,2.46,0,0,1,.06.45C65.17,250.74,59.05,250,59.05,250Zm45-38.88c-1.7,1.21-41,25.18-41,25.18l.7-2.69S97.79,212.16,102,209.45s4.37-5.83,4.37-5.83L105.2,182.5l1.78-1.09s1.3,15.17,1.86,20.35S105.72,209.87,104,211.08Z"/><path class="cls-95" d="M121,254.12s-.47-12.53-.72-14.61a13.8,13.8,0,0,0-.73-3.53c-1.36.91-4.58,2.94-4.58,2.94h0a30.26,30.26,0,0,1,2.2,8.33,48.49,48.49,0,0,1,.44,8.35Z"/><path class="cls-95" d="M116,235.46l-1.47-2.56-.57-1.43,4.77-3.06L116,224.88l.27.34s-15.93,9.35-19,11.41-6.6,5.93-9.84,12.3-4.92,18.5-4.92,18.5L86,265.61s2.31-9.53,4.34-15.31a23.13,23.13,0,0,1,9.1-11.5,82.93,82.93,0,0,1,9.39-5.45,9.69,9.69,0,0,1,2.32-.41l2.4,4.56a19.3,19.3,0,0,1,2.2-1.34C116.53,235.83,116,235.46,116,235.46Z"/><path class="cls-96" d="M91.55,240.06s-3.13,5.35-3.76,6.31L79.89,251s-1.42,5.51-2.16,10l3.81,2.33v2l-1.28.76,2.27,1.35s1.68-12.13,4.92-18.5,6.77-10.23,9.84-12.3Z"/><path class="cls-97" d="M108.84,201.76c-.56-5.18-1.86-20.35-1.86-20.35l-1.78,1.09,1.13,21.12s-.2,3.12-4.37,5.83-38.29,24.12-38.29,24.12l-.7,2.69s39.35-24,41.05-25.18S109.41,206.94,108.84,201.76Z"/><path class="cls-98" d="M59.05,250a8,8,0,0,1-.46,1.5,29.42,29.42,0,0,1-1.76,3.44,2.44,2.44,0,0,1-3,1.24c.36.26.79.55,1.31.89,1.87,1.21,6.16,2.16,9,1.94a15.57,15.57,0,0,0,5.55-1.75V248.7s0-.29,0-.58C65.17,250.74,59.05,250,59.05,250Z"/><path class="cls-99" d="M56.12,246.63s2,2.28,2.26,2.66.28.84,0,1.57a28.78,28.78,0,0,1-2.29,4.33c-.42.4-1.44.9-3.1-.57,0,0,1.55-3.42,2.19-4.89A16.3,16.3,0,0,0,56.12,246.63Z"/><path class="cls-95" d="M57.93,248.07c-.65-.81-1.71-2.09-1.71-2.09l-.27.44-.34,1.22A44.43,44.43,0,0,1,53.88,252c-.19.45-.37.85-.53,1.17a7.92,7.92,0,0,1-.85,1.54,2.44,2.44,0,0,0,.1.24.43.43,0,0,0,0,.07l.12.19.07.09.15.16.11.12.11.1.33.27,0,0a2.48,2.48,0,0,0,.26.19,2.44,2.44,0,0,0,3-1.24,29.42,29.42,0,0,0,1.76-3.44,8,8,0,0,0,.46-1.5A4.72,4.72,0,0,0,57.93,248.07Zm.45,2.79a28.78,28.78,0,0,1-2.29,4.33c-.42.4-1.44.9-3.1-.57,0,0,1.55-3.42,2.19-4.89a16.3,16.3,0,0,0,.94-3.1s2,2.28,2.26,2.66S58.66,250.13,58.38,250.86Z"/><path class="cls-100" d="M68.21,263.58l-1-3.14a11.64,11.64,0,0,1-6,.94,25.8,25.8,0,0,1-8.5-3h0a4.12,4.12,0,0,1-4.33,1.18c5,2.6,12.28,5.11,14.8,5.11A16.74,16.74,0,0,0,68.21,263.58Z"/><path class="cls-101" d="M69.71,256.47v.75a16.16,16.16,0,0,1-2.51,1.09l0,2.13,1,3.14v2.51l9.52-5.1c.74-4.44,2.16-10,2.16-10Z"/><path class="cls-102" d="M50.07,272.29c2.76,1,8.31,2.93,10.62,3.19a1.76,1.76,0,0,0,.22-.55c.18-1-1-1.57-3.56-2.44-1.27-.44-5.34-2.21-6.83-2.84s-1.61,0-1.7.3a1.85,1.85,0,0,0,0,1.82A8.79,8.79,0,0,0,50.07,272.29Z"/><path class="cls-103" d="M11.4,249.22c-1-1-4.48-4.36-5.92-5.78a4.82,4.82,0,0,1-1.37-3A6.34,6.34,0,0,1,3,238.93l-.16-.08a25.15,25.15,0,0,0,.35,2.75c.4,2.44,5.77,6,7.22,7.13C10.92,249.16,11.23,249.26,11.4,249.22Z"/><path class="cls-104" d="M5.6,240.91c1.73,1.52,5.07,4.64,5.69,4.77s.31-1.33.26-1.8-1.39-1.75-1.39-1.75l-4.9-5.5-1.72-5.12s-.38-.37-.79-.74c-.09,1.53-.07,3.25-.18,4.67,0,.35,0,.72-.06,1.08C3,238.47,3.84,239.35,5.6,240.91Z"/><g class="cls-105"><path class="cls-106" d="M5.48,243.44c1.44,1.42,4.94,4.82,5.92,5.78.28-.07.2-.49.2-.49s.12-1.95-.95-2.65-5-4.23-6.24-5.31c-.11-.1-.21-.19-.3-.29A4.82,4.82,0,0,0,5.48,243.44Z"/><path class="cls-107" d="M3,238.93a3.33,3.33,0,0,1-.17-.39s0,.09,0,.31Z"/></g><polygon class="cls-95" points="68.21 245.71 114.35 219.14 114.35 218.84 68.21 245.42 68.21 245.71"/><path class="cls-95" d="M.75,216.17A3.22,3.22,0,0,1,.81,215h0c-.24-.12-.43-.77-.58-1.53a34.88,34.88,0,0,0,0,8c.54,2.5,4,5.2,4,5.2l.34.21A10.45,10.45,0,0,1,1.82,222,39.6,39.6,0,0,1,.75,216.17Z"/><path class="cls-108" d="M1.16,215.84s-.17-.43.54-.42,2.83.22,3.15.29.39.43.51.82.32,1.55.46,2.32S7,227.17,7,227.17a10,10,0,0,1-2.93-1.85c-1.28-1.22-1.94-3.25-2.34-5.42A39.21,39.21,0,0,1,1.16,215.84Z"/><path class="cls-109" d="M2.93,229.08c.17,1.21,1.25,2.43,3.16,4.23a50.88,50.88,0,0,0,5.82,4.58h0l-.24-.22c-.94-.91-1.72-3.35-2.17-5-4.43-3.3-5.21-5.91-5.21-5.91C3.53,227,3.14,227.87,2.93,229.08Z"/><g class="cls-110"><path d="M69.1,207.19A6.82,6.82,0,0,0,69,208C69,207.71,69.07,207.45,69.1,207.19Z"/><path d="M111.91,177,72.18,201.08s-2.47,1.72-3.08,6.11a7.83,7.83,0,0,1,3.08-4.72l40.09-24.26C112.16,177.81,112,177.42,111.91,177Z"/></g><path class="cls-111" d="M15.35,254.81c.31-.28.69-1,1.72-.34s21.17,12.67,21.86,13.11a11.17,11.17,0,0,1,2.49,2.61c.59.91,1.59,1.71,2.31,1.59a5.56,5.56,0,0,0,1.62-.7l-2.54-1.32s-1-1.21-1.92-2.21c-2.58-1.39-20.41-12.24-22.07-13.27a11.71,11.71,0,0,1-2.86-2,2,2,0,0,0-1.45.48,2.6,2.6,0,0,0,0,1.78C14.82,254.77,15.2,255,15.35,254.81Z"/><path class="cls-95" d="M59.11,201.22c-9-4.15-41.4-24.37-46-27.82-3.7-2.77-6.2-3.76-7.95-7.61,0,0-.34,5.82-.2,7.45a6.06,6.06,0,0,0,1.58,3.86s2.31,1.84,9.46,6.3,32.48,19.9,36,21.85,10.57,5.7,12.65,2.58a15.84,15.84,0,0,0,2-6A9.7,9.7,0,0,1,59.11,201.22Z"/><path class="cls-112" d="M14.78,161.06a34.81,34.81,0,0,0-3.27,2.37A11.69,11.69,0,0,0,10,165.62c.7,2.23,9.32,7.8,11.93,9.7l26.25,15.94a77.14,77.14,0,0,0,12.28,6.24c5.19,1.9,6.46,1.72,6.46,1.72l6.86-4.08Z"/><path class="cls-113" d="M57.37,140,22.88,162.08l.32.2L57.71,140.2Z"/><path class="cls-95" d="M59,140.9,24.42,163l.33.2,34.57-22.11Z"/><path class="cls-95" d="M65.9,144.75,31.05,167l.33.2,34.86-22.3Z"/><path class="cls-113" d="M29.84,166.31l34.8-22.26-.31-.18-34.8,22.27Z"/><path class="cls-113" d="M99.78,165.16,64.34,186.51l.32.19,35.43-21.34Z"/><path class="cls-95" d="M66.15,187.62l35.41-21.33-.32-.2L65.83,187.42Z"/><path class="cls-113" d="M92.89,160.85,57.33,182.27l.33.19,35.55-21.41Z"/><path class="cls-95" d="M59.15,183.37l35.4-21.32-.31-.2L58.83,183.18Z"/><g class="cls-114"><path d="M68.33,246h-.25l.49-13.16-1-1.73v0c0-.24,3.1-24,3.18-25.07a9.41,9.41,0,0,1,1.63-4.08l.2.14A9,9,0,0,0,71,206c-.09,1.07-3,23.58-3.19,25l1,1.72v0Z"/></g><g class="cls-114"><rect x="52.41" y="241" width="9.99" height="0.24" transform="translate(-190.45 239.42) rotate(-76.21)"/></g><g class="cls-114"><rect x="5.27" y="204.34" width="0.24" height="12.02" transform="translate(-10.19 0.51) rotate(-2.78)"/></g><g class="cls-105"><path d="M75.76,198.86l-.83-4.43h0a6,6,0,0,0-2-2.22c-.26-.16-1.12-.71-2.41-1.55-5.36-3.48-18.46-11.21-26.69-15.94-10.19-5.87-23.62-13.93-23.75-14a17.4,17.4,0,0,0-2.81-1.26l0-.24a16.58,16.58,0,0,1,2.88,1.29c.15.08,13.62,8.17,23.76,14,8.23,4.74,21.34,12.47,26.7,15.95,1.3.84,2.15,1.4,2.41,1.55a6,6,0,0,1,2.07,2.35l.84,4.46Z"/></g><polygon class="cls-115" points="98.17 215.01 98.43 228.01 98.67 227.88 98.42 214.98 97.25 212.49 96.42 188.53 96.18 188.53 97.01 212.53 98.17 215.01"/><path class="cls-115" d="M99.58,238.72l0-3.48-2-2.41v-4l-.24.14v3.95l2,2.42,0,3.56.12-.09Z"/><path class="cls-6" d="M52,202.57c-3.5-1.95-28.84-17.38-36-21.85s-9.46-6.3-9.46-6.3a10.18,10.18,0,0,1-1.61-2.56c0,.57,0,1,0,1.38a6.06,6.06,0,0,0,1.58,3.86s2.31,1.84,9.46,6.3,32.48,19.9,36,21.85,10.57,5.7,12.65,2.58a9.69,9.69,0,0,0,1.07-2.19C63.63,208.76,55.47,204.52,52,202.57Z"/><polygon class="cls-6" points="77.02 261.37 80.89 263.66 80.89 264.43 68.21 271.26 68.21 266.09 77.02 261.37"/><polygon class="cls-8" points="68.21 270.26 68.21 271.26 80.89 264.43 80.89 263.66 68.21 270.26"/><polygon class="cls-6" points="97.25 232.56 89.87 236.82 89.87 233.59 97.25 229.33 97.25 232.56"/><path class="cls-111" d="M44.42,240.62c-6.37-3.58-28.5-17.1-30.09-18.11s-7.55-5-8.73-6.34L6.09,218,9,220.43l3.31,1.19c.22,1.46,2.17,3.31,2.17,3.31l31.84,18.95c2.08,1.24,3,0,3,0l2,2,4.38,1.77.36-1.29A125.32,125.32,0,0,1,44.42,240.62Z"/><path class="cls-111" d="M47.92,249.1c-4.37-2.35-29.77-17.72-33-19.57a93,93,0,0,1-8-5.61l.26,1.56c.39.39,3.51,2.76,3.51,2.76l3.54,1.19a6.05,6.05,0,0,0,2.19,3.23c.85.43,25.94,15.44,27.76,16.41a2.87,2.87,0,0,0,3,.1l2,2,4.17,1.94c.16-.32.34-.72.53-1.17A49.24,49.24,0,0,1,47.92,249.1Z"/><path class="cls-111" d="M51.9,255.42c-1,1-2.44.67-4.06-.15s-14.07-8-18.42-10.71C25.34,242,15,235.76,11.29,233.14a10,10,0,0,0,2.16,4.18,74.12,74.12,0,0,0,8.38,5.61c3.19,1.92,16.58,9.92,19,11.31s6.83,4.1,8.59,4.38,3.29.35,3.55-.54a13.79,13.79,0,0,0,.36-2.29,10.74,10.74,0,0,1-.85-1.11A6.49,6.49,0,0,1,51.9,255.42Z"/><path class="cls-111" d="M15,247.67c.28,1.16,1,3.72,1.72,4.3.49.36,22.06,13.29,23.93,14.5,1.11.72,3.38,1.91,4.5,1.54a9.69,9.69,0,0,0,.84-1.86Z"/><path class="cls-116" d="M66.28,203.71a13.09,13.09,0,0,1-1.65,4.12c-2.08,3.12-9.16-.63-12.65-2.58S23.14,187.87,16,183.4s-9.46-6.3-9.46-6.3c-1.15,7.39-3,21.74-3,21.74l-.11,2.8a8.82,8.82,0,0,0,2.91,4.3c3.82,2.89,17.74,11.33,25.2,15.87s21.3,12.6,25.42,14,7,1.11,7.64-1.61,3.08-21.93,3.72-25.88C68.82,205,67.8,204.45,66.28,203.71Z"/><path class="cls-117" d="M65.71,205.64a10.15,10.15,0,0,1-1.08,2.19c-2.08,3.12-9.16-.63-12.65-2.58S23.14,187.87,16,183.4c-4.44-2.77-7-4.53-8.33-5.47-.4,2.62-1.93,12.53-2.21,15.61-.32,3.54-1.07,5.21,1.45,7.15s16.78,10.48,24.58,15.06,22.05,13,25.55,14.52,6.72,3.28,7.55-2.56,2.61-18,2.77-19.88C67.47,206.62,66.89,206.1,65.71,205.64Z"/><path class="cls-118" d="M66.17,216.69c-13.12-8-43.78-26.05-45.39-27.09-1.87-1.19-7.16,2.46-10.45,4.63-2.06,1.36-3.48,4-4.24,5.71a6.15,6.15,0,0,0,.82.75c2.53,1.93,16.78,10.48,24.58,15.06s22.05,13,25.55,14.52,6.72,3.28,7.55-2.56C65,224.89,65.62,220.59,66.17,216.69Z"/><path class="cls-116" d="M93.67,193.63v18.18a6.18,6.18,0,0,1-3.08,4.32c-2.85,1.76-17,10.83-17,10.83s-2.85,1.95-2.71-1.28,1.57-17.77,1.61-18.81,1.29-2.75,3.66-4.08,13.44-7.93,14.67-8.64S93.67,192.63,93.67,193.63Z"/><path class="cls-117" d="M89.64,215.63a6.22,6.22,0,0,0,3.09-4.32V193.24a10.55,10.55,0,0,0-1.91.91c-1.23.71-12.29,7.31-14.67,8.64s-3.61,3-3.66,4.08S71,222.45,70.88,225.68A2.57,2.57,0,0,0,71.1,227a3.6,3.6,0,0,0,1.54-.58S86.79,217.39,89.64,215.63Z"/><path class="cls-119" d="M60.49,209.52c-6.44-3.65-8.38-1.34-10.62,1s-2.31,6.49,3.81,8.95S74,217.19,60.49,209.52Z"/><path class="cls-120" d="M16,183.4c-1.61-1-3-1.87-4.12-2.62-.62,3.82-1.71,11.24-.89,11.27s7.7-4,10.11-5.49C19,185.27,17.23,184.17,16,183.4Z"/><path class="cls-121" d="M16,183.4c-4.44-2.77-7-4.53-8.33-5.47-.4,2.62-1.93,12.53-2.21,15.61-.32,3.54-1.07,5.21,1.45,7.15.87.66,3.12,2.11,6,3.9a56.94,56.94,0,0,1,15.62-13.47C23.27,187.9,18.51,185,16,183.4Z"/><path class="cls-122" d="M36.62,260.46a.93.93,0,0,1-.49-.15l-13.4-8a2,2,0,0,1-.9-1.6v-1.9c0-.56.34-.82.68-.82a1,1,0,0,1,.49.15l13.39,8a2,2,0,0,1,.91,1.59v1.91A.71.71,0,0,1,36.62,260.46Z"/><path class="cls-123" d="M37,259.65c0,.5-.35.7-.78.44l-13.4-8a1.78,1.78,0,0,1-.77-1.37v-1.9c0-.5.35-.7.77-.44l13.4,8a1.79,1.79,0,0,1,.78,1.37Z"/><path class="cls-46" d="M64.93,209.16A14.7,14.7,0,0,0,66.82,204l-.54-.27a13.09,13.09,0,0,1-1.65,4.12c-2.08,3.12-9.16-.63-12.65-2.58S23.14,187.87,16,183.4s-9.46-6.3-9.46-6.3l-.12.79a6.77,6.77,0,0,0,.43.54s2.3,1.83,9.45,6.3,32.49,19.89,36,21.84S62.86,212.28,64.93,209.16Z"/><path class="cls-124" d="M5.48,243.44c.54.54,1.39,1.36,2.27,2.22a5.47,5.47,0,0,0,1-1.12c-1.5-1.28-3.36-2.95-4.22-3.69l-.3.18A4.57,4.57,0,0,0,5.48,243.44Z"/><path class="cls-124" d="M60.68,275.48a1.57,1.57,0,0,0,.23-.55c.18-1-1-1.57-3.56-2.44-.48-.17-1.37-.53-2.37-.94a5.8,5.8,0,0,0-.74,2.19A41,41,0,0,0,60.68,275.48Z"/><path class="cls-125" d="M67.76,266.69a.63.63,0,0,1-.39.56l-1.75.66a.27.27,0,0,1-.39-.27V267a.65.65,0,0,1,.39-.56l1.75-.66a.27.27,0,0,1,.39.27Z"/><path class="cls-125" d="M120.6,253.08a.64.64,0,0,1-.37.57l-1.73.72a.27.27,0,0,1-.4-.26v-.61a.64.64,0,0,1,.37-.58l1.72-.71a.27.27,0,0,1,.4.26Z"/><path class="cls-126" d="M50.41,263.16c-.39.79-1.82,3.59-1,4.35s3.87,2.06,6,3a42.89,42.89,0,0,0,6.77,2.24c.87.06,1.41-.22,1.5-1.13s0-3.82,0-4.21-.71-.72-1.71-1-6-1.93-7.71-2.69S50.76,262.48,50.41,263.16Z"/><path class="cls-124" d="M56.09,267.54c0,1.27-.89,1.79-2,1.15a4.41,4.41,0,0,1-2-3.46c0-1.27.89-1.79,2-1.15A4.4,4.4,0,0,1,56.09,267.54Z"/><path class="cls-124" d="M61.41,266.27c-.85-.26-2.3-.74-3.72-1.24a2.26,2.26,0,0,0-.34,1.28,5.64,5.64,0,0,0,2.56,4.42c1.41.82,2.55.16,2.55-1.47A5.42,5.42,0,0,0,61.41,266.27Z"/><path class="cls-127" d="M3.54,231.51s.08,4.48.13,5.12a3.64,3.64,0,0,0,1.13,2.51c.84.69,5.25,4.8,6,5.26s1,.49.72-.84-1.69-5.74-2.79-7S3.54,231.51,3.54,231.51Z"/><path class="cls-124" d="M5.1,237.14c1.41.82,2.56.16,2.56-1.47,0-.09,0-.19,0-.29-1.6-1.61-4.09-3.87-4.09-3.87s0,2.75.1,4.25A4.76,4.76,0,0,0,5.1,237.14Z"/><path class="cls-124" d="M8.7,236.52s0,0,0,0c-.8-.16-1.38.36-1.38,1.38a4.41,4.41,0,0,0,2,3.46,1.29,1.29,0,0,0,1.55,0A18.29,18.29,0,0,0,8.7,236.52Z"/><g class="cls-128"><path class="cls-129" d="M50.41,263.16c-.39.79-1.82,3.59-1,4.35s3.87,2.06,6,3a42.89,42.89,0,0,0,6.77,2.24c.87.06,1.41-.22,1.5-1.13s0-3.82,0-4.21-.71-.72-1.71-1-6-1.93-7.71-2.69S50.76,262.48,50.41,263.16Z"/></g><path class="cls-111" d="M63.68,267.38c0-.39-.71-.72-1.71-1s-6-1.93-7.71-2.69-3.5-1.25-3.85-.57-1.82,3.59-1,4.35,3.87,2.06,6,3a42.89,42.89,0,0,0,6.77,2.24c.87.06,1.41-.22,1.5-1.13S63.7,267.77,63.68,267.38Zm-.14,4.2a1,1,0,0,1-1.13,1h-.22a41.9,41.9,0,0,1-6.73-2.23c-2-.82-5.21-2.19-6-2.94-.32-.31-.4-1.28,1.05-4.14.1-.21.32-.29.67-.29a8.67,8.67,0,0,1,3,.87c1.71.77,6.78,2.48,7.73,2.71s1.6.54,1.61.82C63.57,267.83,63.63,270.68,63.54,271.58Z"/><g class="cls-130"><path class="cls-131" d="M3.54,231.51s.08,4.48.13,5.12a3.64,3.64,0,0,0,1.13,2.51c.84.69,5.25,4.8,6,5.26s1,.49.72-.84-1.69-5.74-2.79-7S3.54,231.51,3.54,231.51Z"/></g><path class="cls-111" d="M10.85,244.32c-.71-.46-5.13-4.57-6-5.27a3.73,3.73,0,0,1-1.13-2.5c0-.58-.11-4.15-.12-5l-.09-.08s.08,4.48.13,5.12a3.64,3.64,0,0,0,1.13,2.51c.84.69,5.25,4.8,6,5.26.42.27.69.39.79.18C11.43,244.65,11.18,244.53,10.85,244.32Z"/><path class="cls-6" d="M78.09,235.55a2,2,0,0,1-1-.28L73.22,233a.48.48,0,0,1-.18-.67.49.49,0,0,1,.66-.18l3.9,2.25a.7.7,0,0,0,.67.11c.15-.08.24-.32.24-.64V207.15a3.15,3.15,0,0,0-1.4-2.43l-3.89-2.25a.48.48,0,0,1,.48-.84l3.9,2.25a4.1,4.1,0,0,1,1.89,3.27v26.74a1.65,1.65,0,0,1-.73,1.49A1.29,1.29,0,0,1,78.09,235.55Z"/><path class="cls-43" d="M85.13,232.22c0,.76-.54,1.07-1.19.69l-4.71-2.71a2.67,2.67,0,0,1-1.2-2.08V208.68c0-.76.54-1.07,1.2-.69l4.71,2.72a2.67,2.67,0,0,1,1.19,2.07Z"/><path class="cls-6" d="M84.5,232.73c0,.76-.54,1.07-1.19.69L78.6,230.7a2.65,2.65,0,0,1-1.2-2.07V209.19c0-.76.53-1.07,1.19-.69l4.71,2.71a2.66,2.66,0,0,1,1.19,2.08Z"/></g></g></g></svg>