<?xml version="1.0" encoding="utf-8"?>
<!-- Generator: Adobe Illustrator 24.0.1, SVG Export Plug-In . SVG Version: 6.00 Build 0)  -->
<svg version="1.1" id="Capa_1" xmlns="http://www.w3.org/2000/svg" xmlns:xlink="http://www.w3.org/1999/xlink" x="0px" y="0px"
	 viewBox="0 0 512 512" style="enable-background:new 0 0 512 512;" xml:space="preserve">
<style type="text/css">
	.st0{fill:#0ED2B3;}
	.st1{fill:#0AB69F;}
	.st2{fill:#F9F3F1;}
	.st3{fill:#172A92;}
	.st4{fill:#01998D;}
	.st5{fill:#008B81;}
</style>
<circle class="st0" cx="256" cy="261.4" r="250.6"/>
<path class="st1" d="M506.6,261.4C506.6,399.8,394.4,512,256,512c-73.5,0-139.6-31.6-185.4-82c43.3,35.9,99,57.4,159.6,57.4
	c138.4,0,250.6-112.2,250.6-250.6c0-65-24.7-124.1-65.3-168.7C471.2,114.1,506.6,183.6,506.6,261.4z"/>
<circle class="st2" cx="256" cy="261.4" r="193.1"/>
<g>
	<path class="st3" d="M212.3,180.9c22.4,0,41.3,15.3,41.3,38.4c0,41.5-62.6,55-62.6,77.2v7.3h56.8c3.5,0,6.8,4.1,6.8,8.9
		c0,4.8-3.3,9.3-6.8,9.3h-68.7c-3.9,0-9.1-2.7-9.1-6.8v-18.7c0-31.3,63.1-46.9,63.1-76.7c0-9.5-6.2-20.3-20.9-20.3
		c-10.8,0-19.5,6-19.5,19.1c0,3.9-4.1,7.7-10.8,7.7c-5.4,0-9.3-2.7-9.3-11.4C172.7,194.4,191.2,180.9,212.3,180.9L212.3,180.9z"/>
	<path class="st3" d="M310,290.4h-47.5c-4.1,0-7.1-2.9-7.1-7.5c0-1.4,0.4-2.9,1.2-4.2l46.7-92.1c2.1-4.1,5.6-5.6,8.9-5.6
		c3.9,0,10.2,3.1,10.2,7.9c0,1-0.4,1.9-1,3.1l-39.8,79.4H310v-26.6c0-4.8,5-6.8,10.2-6.8c5,0,10.2,1.9,10.2,6.8v26.6h9.5
		c4.6,0,7,4.8,7,9.7c0,4.6-3.3,9.5-7,9.5h-9.5v24.9c0,4.4-5.2,6.8-10.2,6.8c-5.2,0-10.2-2.3-10.2-6.8L310,290.4z"/>
	<path class="st3" d="M256,128c-4.3,0-7.7-3.5-7.7-7.7V89.5c0-4.3,3.5-7.7,7.7-7.7c4.3,0,7.7,3.5,7.7,7.7v30.7
		C263.7,124.5,260.3,128,256,128L256,128z"/>
	<path class="st3" d="M256,441c-4.3,0-7.7-3.5-7.7-7.7v-30.7c0-4.3,3.5-7.7,7.7-7.7c4.3,0,7.7,3.5,7.7,7.7v30.7
		C263.7,437.5,260.3,441,256,441L256,441z"/>
	<path class="st3" d="M427.9,269.1h-30.7c-4.3,0-7.7-3.5-7.7-7.7s3.5-7.7,7.7-7.7h30.7c4.3,0,7.7,3.5,7.7,7.7
		S432.2,269.1,427.9,269.1z"/>
	<path class="st3" d="M114.9,269.1H84.1c-4.3,0-7.7-3.5-7.7-7.7s3.5-7.7,7.7-7.7h30.7c4.3,0,7.7,3.5,7.7,7.7
		C122.6,265.6,119.1,269.1,114.9,269.1z"/>
	<path class="st3" d="M182.7,142.1c-2.7,0-5.3-1.4-6.7-3.9l-8.1-14.1c-2.1-3.7-0.9-8.4,2.8-10.6s8.4-0.9,10.6,2.8l8.1,14.1
		c2.1,3.7,0.9,8.4-2.8,10.6C185.3,141.7,184,142.1,182.7,142.1z"/>
	<path class="st3" d="M337.5,410.2c-2.7,0-5.3-1.4-6.7-3.9l-8.1-14.1c-2.1-3.7-0.9-8.4,2.8-10.6c3.7-2.1,8.4-0.9,10.6,2.8l8.1,14.1
		c2.1,3.7,0.9,8.4-2.8,10.6C340.1,409.9,338.8,410.2,337.5,410.2L337.5,410.2z"/>
	<path class="st3" d="M129,195.8c-1.3,0-2.6-0.3-3.9-1l-14.1-8.1c-3.7-2.1-5-6.9-2.8-10.6c2.1-3.7,6.9-5,10.6-2.8l14.1,8.1
		c3.7,2.1,5,6.9,2.8,10.6C134.2,194.4,131.6,195.8,129,195.8z"/>
	<path class="st3" d="M397.1,350.6c-1.3,0-2.6-0.3-3.9-1l-14.1-8.1c-3.7-2.1-5-6.9-2.8-10.6c2.1-3.7,6.9-5,10.6-2.8l14.1,8.1
		c3.7,2.1,5,6.9,2.8,10.6C402.4,349.2,399.8,350.6,397.1,350.6L397.1,350.6z"/>
	<path class="st3" d="M114.9,350.6c-2.7,0-5.3-1.4-6.7-3.9c-2.1-3.7-0.9-8.4,2.8-10.6l14.1-8.1c3.7-2.1,8.4-0.9,10.6,2.8
		c2.1,3.7,0.9,8.4-2.8,10.6l-14.1,8.1C117.5,350.2,116.2,350.6,114.9,350.6L114.9,350.6z"/>
	<path class="st3" d="M383,195.8c-2.7,0-5.3-1.4-6.7-3.9c-2.1-3.7-0.9-8.4,2.8-10.6l14.1-8.1c3.7-2.1,8.4-0.9,10.6,2.8
		c2.1,3.7,0.9,8.4-2.8,10.6l-14.1,8.1C385.7,195.4,384.3,195.8,383,195.8z"/>
	<path class="st3" d="M174.5,410.2c-1.3,0-2.6-0.3-3.9-1c-3.7-2.1-5-6.9-2.8-10.6l8.1-14.1c2.1-3.7,6.9-5,10.6-2.8
		c3.7,2.1,5,6.9,2.8,10.6l-8.1,14.1C179.8,408.8,177.2,410.2,174.5,410.2L174.5,410.2z"/>
</g>
<path class="st4" d="M439,104l-16.2-82.6c-2.9-14.9-17.7-24.2-32.4-20.6c-14.2,3.6-22.8,18-19.2,32.2l10.2,39.9
	c1.1,4.5-2.1,8.9-6.6,9.2l-41.1,2.6c-14.6,0.9-25.7,13.6-24.7,28.2c1.1,15.1,14.6,26.2,29.6,24.4l83.5-10.3
	C433.5,125.7,441.1,115.1,439,104z"/>
<path class="st5" d="M422.2,127.1l-83.5,10.3c-1.1,0.1-2.2,0.2-3.3,0.2c-13.7,0-25.4-10.6-26.3-24.6c-0.2-2.6,0-5.1,0.6-7.6
	c3.9,6.7,11.2,11.1,19.3,11.1c0.9,0,1.8-0.1,2.8-0.2l70.6-8.7c9.5-1.2,16-10.1,14.2-19.5l-13.7-69.9c-1.6-8.1-7.4-14.3-14.6-16.8
	c0.7-0.2,1.4-0.5,2.2-0.6c14.7-3.7,29.5,5.7,32.4,20.6L439,104C441.1,115.1,433.5,125.7,422.2,127.1z"/>
</svg>
