<?xml version="1.0" encoding="utf-8"?>
<!-- Generator: Adobe Illustrator 24.0.1, SVG Export Plug-In . SVG Version: 6.00 Build 0)  -->
<svg version="1.1" id="Capa_1" xmlns="http://www.w3.org/2000/svg" xmlns:xlink="http://www.w3.org/1999/xlink" x="0px" y="0px"
	 viewBox="0 0 512 512" style="enable-background:new 0 0 512 512;" xml:space="preserve">
<style type="text/css">
	.st0{fill:#F3F0F3;}
	.st1{fill:#E2DEE2;}
	.st2{fill:#172A92;}
	.st3{fill:#D5DAF3;}
	.st4{fill:#00FF6D;}
	.st5{fill:#BEC6ED;}
	.st6{fill:#F8F8F8;}
	.st7{fill:#FFE17D;}
	.st8{fill:#FFC350;}
	.st9{fill:#FFD164;}
	.st10{fill:#FFF6D8;}
	.st11{fill:#122163;}
</style>
<g>
	<path class="st0" d="M391.9,81.8v344.4H15.7c-8.7,0-15.7-7-15.7-15.7V81.8l186.8-13.6L365.1,80L391.9,81.8z"/>
	<path class="st1" d="M391.9,81.8v344.4H254.7c-8.8-16.7-13.8-35.7-13.8-55.9c0-62.9,48.4-114.5,110-119.7
		c5.7-0.5,10.1-5.2,10.1-10.9V81.8l4.1-1.8L391.9,81.8z"/>
	<path class="st2" d="M376.2,21.7H15.7C7,21.7,0,28.8,0,37.4v44.3h391.9V37.4C391.9,28.8,384.9,21.7,376.2,21.7z"/>
	<path class="st2" d="M391.9,37.4v44.3H361V37.4c0-8.7-7-15.7-15.7-15.7h30.9C384.9,21.7,391.9,28.8,391.9,37.4z"/>
	<path class="st3" d="M337.3,180.3H165.8c-6.2,0-11.3-5-11.3-11.3v-16.6c0-6.2,5-11.3,11.3-11.3h171.5c6.2,0,11.3,5,11.3,11.3V169
		C348.6,175.2,343.5,180.3,337.3,180.3z"/>
	<path class="st4" d="M95.6,193.2H56c-7,0-12.7-5.7-12.7-12.7v-39.6c0-7,5.7-12.7,12.7-12.7h39.6c7,0,12.7,5.7,12.7,12.7v39.6
		C108.3,187.5,102.6,193.2,95.6,193.2z"/>
	<path class="st3" d="M348.6,248.3v2.5l-62.2,25.4H165.8c-6.2,0-11.3-5-11.3-11.3v-16.6c0-6.2,5-11.3,11.3-11.3h171.5
		C343.5,237,348.6,242,348.6,248.3z"/>
	<path class="st5" d="M348.6,250.8v14.1c0,6.2-5,11.3-11.3,11.3h-51C303.8,262.3,325.2,253.2,348.6,250.8L348.6,250.8z"/>
	<path class="st4" d="M95.6,289H56c-7,0-12.7-5.7-12.7-12.7v-39.6c0-7,5.7-12.7,12.7-12.7h39.6c7,0,12.7,5.7,12.7,12.7v39.6
		C108.3,283.4,102.6,289,95.6,289z"/>
	<path class="st3" d="M240.9,372h-75.2c-6.2,0-11.3-5-11.3-11.3v-16.6c0-6.2,5-11.3,11.3-11.3h81.1L240.9,372z"/>
	<path class="st5" d="M348.6,344.1v16.6c0,6.2-5,11.3-11.3,11.3h-96.4c0-0.6,0-1.2,0-1.8c0-13,2.1-25.6,5.9-37.3h90.4
		C343.5,332.9,348.6,337.9,348.6,344.1L348.6,344.1z"/>
	<path class="st4" d="M95.6,384.9H56c-7,0-12.7-5.7-12.7-12.7v-39.6c0-7,5.7-12.7,12.7-12.7h39.6c7,0,12.7,5.7,12.7,12.7v39.6
		C108.3,379.2,102.6,384.9,95.6,384.9z"/>
	<g>
		<path class="st6" d="M495.6,370.2c0,102.8-101.7,118.7-101.7,118.7l-17.4,0.4c-59.1-7.5-104.6-57.9-104.6-119.1
			c0-61.1,45.6-111.5,104.6-119.1h22.8C399.3,251.1,495.6,268.1,495.6,370.2L495.6,370.2z"/>
		<path class="st6" d="M512,370.2c0,66.3-53.8,120.1-120.1,120.1c-5.2,0-10.4-0.3-15.5-1c59-7.6,104.6-58,104.6-119.1
			c0-61.1-45.6-111.5-104.6-119.1c5.1-0.6,10.2-1,15.5-1C458.2,250.1,512,303.9,512,370.2z"/>
	</g>
	<g>
		<path class="st5" d="M75.8,176.9c-2.1,0-4-0.8-5.5-2.3l-31.9-32.1c-3-3-3-7.9,0-10.9s7.9-3,10.9,0L75.6,158l44.4-47.9
			c2.9-3.1,7.8-3.3,10.9-0.4c3.1,2.9,3.3,7.8,0.4,10.9l-49.9,53.8c-1.4,1.5-3.4,2.4-5.5,2.5C75.9,176.9,75.9,176.9,75.8,176.9
			L75.8,176.9z"/>
	</g>
	<g>
		<path class="st5" d="M75.8,272.7c-2.1,0-4-0.8-5.5-2.3l-31.9-32.1c-3-3-3-7.9,0-10.9s7.9-3,10.9,0l26.2,26.4L120,206
			c2.9-3.1,7.8-3.3,10.9-0.4c3.1,2.9,3.3,7.8,0.4,10.9l-49.9,53.8c-1.4,1.5-3.4,2.4-5.5,2.5C75.9,272.7,75.9,272.7,75.8,272.7z"/>
	</g>
	<g>
		<path class="st5" d="M75.8,368.6c-2.1,0-4-0.8-5.5-2.3l-31.9-32.1c-3-3-3-7.9,0-10.9s7.9-3,10.9,0l26.2,26.4l44.4-47.9
			c2.9-3.1,7.8-3.3,10.9-0.4c3.1,2.9,3.3,7.8,0.4,10.9l-49.9,53.8c-1.4,1.5-3.4,2.4-5.5,2.5C75.9,368.6,75.9,368.6,75.8,368.6
			L75.8,368.6z"/>
	</g>
</g>
<path class="st7" d="M389.6,292l-70.1,33.9c-0.9,0.4-1.4,1.3-1.4,2.3v83.3c0,1,0.6,1.9,1.4,2.3l70.1,33.9c1.4,0.7,3,0.7,4.4,0
	l70.1-33.9c0.9-0.4,1.4-1.3,1.4-2.3v-83.3c0-1-0.6-1.9-1.4-2.3L394,292C392.6,291.3,391,291.3,389.6,292z"/>
<path class="st8" d="M318.4,326.7c-0.3,0.4-0.4,0.9-0.4,1.4v83.3c0,1,0.6,1.9,1.4,2.3l70.1,33.9c0.7,0.3,1.5,0.5,2.2,0.5v-85.9
	L318.4,326.7z"/>
<path class="st9" d="M465.2,326.7c0.3,0.4,0.4,0.9,0.4,1.4v83.3c0,1-0.6,1.9-1.4,2.3L394,447.6c-0.7,0.3-1.5,0.5-2.2,0.5v-85.9
	L465.2,326.7z"/>
<path class="st10" d="M349,400.5c-0.4,0-0.7-0.1-1.1-0.3l-20.8-10c-1.3-0.6-1.8-2.1-1.2-3.4c0.6-1.3,2.1-1.8,3.4-1.2l20.8,10
	c1.3,0.6,1.8,2.1,1.2,3.4C350.8,400,349.9,400.5,349,400.5z"/>
<polygon class="st2" points="440.3,338.7 366.7,303.1 347.3,312.6 421.1,348.2 "/>
<path class="st11" d="M421.1,348.2v27.6c0,0.9,1,1.6,1.8,1.1l16-7.7c0.9-0.4,1.4-1.3,1.4-2.3v-28.2L421.1,348.2z"/>
</svg>
