<svg xmlns="http://www.w3.org/2000/svg" viewBox="0 0 48 48"><defs><style>.cls-1{fill:#fff;}</style></defs><title>a6-3</title><g id="레이어_2" data-name="레이어 2"><g id="layer_1" data-name="layer 1"><path class="cls-1" d="M13.91,6.53l-4.3,4.3L8.42,9.63a.74.74,0,0,0-1,0,.72.72,0,0,0,0,1L9.1,12.37a.72.72,0,0,0,1,0l4.82-4.81a.74.74,0,0,0,0-1A.72.72,0,0,0,13.91,6.53Z"/><path class="cls-1" d="M9.08,15.5a5,5,0,0,0,4.34-2.44.73.73,0,0,0-1.24-.76,3.64,3.64,0,1,1-3.1-5.53A3.71,3.71,0,0,1,10.36,7a.74.74,0,0,0,.94-.42.73.73,0,0,0-.43-.94,4.94,4.94,0,0,0-1.79-.33,5.1,5.1,0,0,0,0,10.19Z"/><path class="cls-1" d="M13.91,20.11,9.61,24.4,8.42,23.21a.74.74,0,0,0-1,0,.72.72,0,0,0,0,1L9.1,26a.72.72,0,0,0,1,0l4.82-4.82a.72.72,0,1,0-1-1Z"/><path class="cls-1" d="M9.08,29.07a5.06,5.06,0,0,0,4.34-2.43.73.73,0,0,0-1.24-.76,3.64,3.64,0,1,1-3.1-5.53,3.49,3.49,0,0,1,1.28.23.74.74,0,0,0,.94-.43.72.72,0,0,0-.43-.93,5,5,0,0,0-1.79-.33,5.09,5.09,0,0,0,0,10.18Z"/><path class="cls-1" d="M9.1,32.47a5.11,5.11,0,1,0,5.11,5.11A5.11,5.11,0,0,0,9.1,32.47Zm0,8.77a3.66,3.66,0,1,1,3.65-3.66A3.66,3.66,0,0,1,9.1,41.24Z"/><path class="cls-1" d="M17.44,35.4h4.22a.73.73,0,1,0,0-1.46H17.44a.73.73,0,1,0,0,1.46Z"/><path class="cls-1" d="M17.44,22.79H20a.73.73,0,0,0,.73-.73.73.73,0,0,0-.73-.72H17.44a.73.73,0,0,0-.73.72A.73.73,0,0,0,17.44,22.79Z"/><path class="cls-1" d="M17.44,27.64h1.94a.73.73,0,0,0,.73-.73.73.73,0,0,0-.73-.72H17.44a.73.73,0,0,0-.73.72A.73.73,0,0,0,17.44,27.64Z"/><path class="cls-1" d="M17.44,8.24h4.85A.73.73,0,0,0,23,7.52a.73.73,0,0,0-.73-.73H17.44a.73.73,0,0,0-.73.73A.73.73,0,0,0,17.44,8.24Z"/><path class="cls-1" d="M17.44,13.09H28.11a.73.73,0,1,0,0-1.45H17.44a.73.73,0,1,0,0,1.45Z"/><path class="cls-1" d="M26,38.79H17.44a.73.73,0,1,0,0,1.46H26a.73.73,0,0,0,0-1.46Z"/><path class="cls-1" d="M37.33,13.84V7.52A.72.72,0,0,0,37.12,7L30.33.21A.74.74,0,0,0,29.82,0H.73A.73.73,0,0,0,0,.73V47.27A.73.73,0,0,0,.73,48H36.61a.73.73,0,0,0,.72-.73V40a13.33,13.33,0,0,0,0-26.13ZM30.55,2.48l4.3,4.31h-4.3Zm5.33,44.07H1.46V1.46H29.09V7.52a.73.73,0,0,0,.73.72h6.06v5.4c-.4,0-.81-.06-1.21-.06a13.33,13.33,0,1,0,0,26.66c.4,0,.81,0,1.21-.06Zm-1.21-7.76A11.88,11.88,0,1,1,46.54,26.91,11.89,11.89,0,0,1,34.67,38.79Z"/><path class="cls-1" d="M42,23.9l-4.61-.68-2.06-4.17a.76.76,0,0,0-1.31,0L32,23.22l-4.61.68a.7.7,0,0,0-.58.49.73.73,0,0,0,.18.75l3.34,3.25L29.49,33a.73.73,0,0,0,.72.85.66.66,0,0,0,.33-.09l4.13-2.16,4.12,2.16a.72.72,0,0,0,.76-.05.71.71,0,0,0,.29-.71l-.78-4.59,3.33-3.25a.73.73,0,0,0,.18-.75A.7.7,0,0,0,42,23.9Zm-4.22,3.71a.71.71,0,0,0-.21.64l.6,3.52L35,30.11a.72.72,0,0,0-.67,0l-3.16,1.66.6-3.52a.71.71,0,0,0-.21-.64L29,25.12l3.53-.51a.71.71,0,0,0,.55-.4L34.67,21l1.57,3.2a.71.71,0,0,0,.55.4l3.53.51Z"/></g></g></svg>