<svg xmlns="http://www.w3.org/2000/svg" viewBox="0 0 48 48"><defs><style>.cls-1{fill:#fff;}</style></defs><title>a6-4</title><g id="레이어_2" data-name="레이어 2"><g id="layer_1" data-name="layer 1"><path class="cls-1" d="M47.27,41.49H13.88a.73.73,0,0,0,0,1.46H47.27a.73.73,0,0,0,0-1.46Z"/><path class="cls-1" d="M20.07,46.55H.73a.73.73,0,0,0-.73.72A.73.73,0,0,0,.73,48H20.07a.73.73,0,0,0,.73-.73A.73.73,0,0,0,20.07,46.55Z"/><path class="cls-1" d="M33,46.55H25.13a.73.73,0,0,0-.73.72.73.73,0,0,0,.73.73H33a.73.73,0,0,0,.72-.73A.72.72,0,0,0,33,46.55Z"/><path class="cls-1" d="M11.86,31.43a.73.73,0,0,0-.73.73.73.73,0,1,0,.73-.73Z"/><path class="cls-1" d="M37.16,31.43a.73.73,0,0,0-.73.73.73.73,0,1,0,.73-.73Z"/><path class="cls-1" d="M44.63,23.72a.73.73,0,0,0-.73.73V27.8a.73.73,0,0,0,.73.73.73.73,0,0,0,.72-.73V24.45A.73.73,0,0,0,44.63,23.72Z"/><path class="cls-1" d="M35.94,22.15H32.1a.73.73,0,0,0-.73.73.72.72,0,0,0,.73.72h3.84a.73.73,0,0,0,.73-.72A.73.73,0,0,0,35.94,22.15Z"/><path class="cls-1" d="M45.31,19.68A4.41,4.41,0,0,1,43,17.33L39,6.72a5.61,5.61,0,0,0-5.22-3.6H27a.72.72,0,0,0-.52.21.76.76,0,0,0-.21.52V17.1L22.73.57A.73.73,0,0,0,22,0H5.75A.74.74,0,0,0,5,.57L0,23.73a1,1,0,0,0,0,.16v6.24a2.75,2.75,0,0,0,2.75,2.75H6.12a5.78,5.78,0,0,0,11.47,0H31.42a5.78,5.78,0,0,0,11.47,0h2.36A2.75,2.75,0,0,0,48,30.13V24A4.81,4.81,0,0,0,45.31,19.68ZM6.33,1.46h15.1l4.7,21.7H1.63Zm5.53,35a4.33,4.33,0,1,1,4.33-4.33A4.33,4.33,0,0,1,11.86,36.49Zm5.73-5.07a5.78,5.78,0,0,0-11.47,0H2.75a1.3,1.3,0,0,1-1.3-1.29V24.62H26.31v6.8ZM32.82,4.57h1a4.15,4.15,0,0,1,3.86,2.67l3.78,10h-5.5a3.12,3.12,0,0,1-3.12-3.12Zm4.34,31.92a4.33,4.33,0,1,1,4.33-4.33A4.34,4.34,0,0,1,37.16,36.49Zm9.39-6.36a1.3,1.3,0,0,1-1.3,1.29H42.89a5.78,5.78,0,0,0-11.47,0H27.76V4.57h3.61v9.58a4.58,4.58,0,0,0,4.57,4.57H42.1A6,6,0,0,0,44.67,21a3.34,3.34,0,0,1,1.88,3Z"/><path class="cls-1" d="M18.73,4a.73.73,0,0,0-.73.73,4.12,4.12,0,1,1-8.24,0,.73.73,0,1,0-1.45,0,5.58,5.58,0,0,0,11.15,0A.73.73,0,0,0,18.73,4Z"/></g></g></svg>