<svg xmlns="http://www.w3.org/2000/svg" viewBox="0 0 2484.05 2622.74"><defs><style>.cls-1{fill:#c08e67;}.cls-2{fill:#a97d5f;}.cls-3{fill:#c7a188;}.cls-4{fill:#3f3c38;}.cls-5{fill:#d3bfa9;}.cls-6{fill:#9e9185;}.cls-7{fill:#e8d4bf;}.cls-8{fill:#cebbae;}.cls-9{fill:#c1b0a0;}.cls-10{fill:#d6c7bf;}.cls-11{fill:#dbb37b;}.cls-12{fill:#c49d6e;}.cls-13{fill:#e2c19a;}.cls-14{fill:#9b7f64;}.cls-15{fill:#b28e69;}.cls-16{fill:#a58362;}.cls-17{fill:#dfa578;}.cls-18{fill:#c89471;}.cls-19{fill:#c19a85;}.cls-20{fill:#af8f80;}.cls-21{fill:#e5bb9e;}</style></defs><title>p-box</title><g id="레이어_2" data-name="레이어 2"><g id="_迹_2" data-name="卵迹_2"><rect class="cls-1" x="1345.22" y="461" width="767.68" height="1457.07"/><path class="cls-2" d="M2333.7,315.93,2112.9,461V1918.06L2333.7,1773Z"/><path class="cls-3" d="M2112.91,461,2333.7,315.93H1566.75L1346,461Z"/><path class="cls-4" d="M1668.17,1758.6v118.54h118.54V1758.6Zm113.93,113.93H1672.78V1763.21H1782.1Z"/><path class="cls-4" d="M1743.86,1820.72c.29,5.31-6.88,9.72-15.48,10-9.24.3-17.65-4.27-17.37-10v-43.53h32.85Z"/><rect class="cls-4" x="1725.65" y="1824.93" width="3.58" height="32.77"/><ellipse class="cls-4" cx="1727.44" cy="1859.64" rx="16.43" ry="3.11"/><path class="cls-4" d="M1528.76,1758.6v118.54H1647.3V1758.6Zm113.93,113.93H1533.37V1763.21h109.32Z"/><rect class="cls-4" x="1564.02" y="1788.09" width="9.35" height="58.04"/><path class="cls-4" d="M1568.57,1781q-5.61,7.17-11.21,14.33H1580Z"/><rect class="cls-4" x="1602.69" y="1788.09" width="9.35" height="58.04"/><path class="cls-4" d="M1607.24,1781,1596,1795.29h22.68Z"/><rect class="cls-4" x="1547.67" y="1849.64" width="80.72" height="6.41"/><path class="cls-4" d="M1389.35,1758.6v118.54h118.54V1758.6Zm113.93,113.93H1394V1763.21h109.32Z"/><path class="cls-4" d="M1450.69,1847.87a6.86,6.86,0,1,0,13.64.23l4.12-.12a10.84,10.84,0,1,1-21.61-.11v-51.78h3.85Z"/><path class="cls-4" d="M1490.4,1803.31c-.72,1.09-4.46,6.54-10.41,6.62-6.12.08-10-5.58-10.68-6.62-.82,1.13-4.91,6.53-11.1,6.2-5.49-.29-9.07-4.91-10-6.2-.66,1-4.14,6.25-9.72,6.41-5.92.18-9.67-5.46-10.28-6.41-.73,1-5,7-11.44,6.51-5.51-.4-9-5.21-9.93-6.51,4.19-5.12,19.31-22.35,41.78-22.35S1486.22,1798.19,1490.4,1803.31Z"/><path class="cls-5" d="M1814,461.42H1709.46v688.27H1814Z"/><path class="cls-6" d="M1814,1918.06H1709.46V1710.48H1814Z"/><path class="cls-5" d="M1782.1,1763.21h-72.64v109.32h72.64Zm-54.66,99.54c-9.08,0-16.43-1.39-16.43-3.11s6.41-2.93,14.64-3.09v-25.9c-8.1-.57-14.89-4.77-14.64-9.93v-43.53h32.85v43.53c.28,5.14-6.42,9.42-14.63,10v25.88c8.23.16,14.64,1.48,14.64,3.09S1736.51,1862.75,1727.44,1862.75Z"/><path class="cls-5" d="M1709.46,1710.48v48.12h77.25v118.54h-77.25v40.92H1814V1710.48Z"/><path class="cls-7" d="M1814,461.42H1709.46l226-145.49h102.93Z"/><path class="cls-8" d="M1762.9,461.35c18-12.82,36.18-25.31,54.46-37.69,9.12-6.22,18.31-12.33,27.47-18.48l27.59-18.3,27.71-18.11c9.28-6,18.51-12,27.83-17.93,18.6-11.89,37.27-23.67,56.16-35.11-18,12.82-36.18,25.32-54.45,37.7-9.12,6.22-18.32,12.32-27.47,18.48l-27.6,18.29-27.71,18.11c-9.28,6-18.52,12-27.83,17.92C1800.46,438.13,1781.79,449.9,1762.9,461.35Z"/><path class="cls-7" d="M1506,356l-71.77,46.51,766.69,0,71.8-46.54Z"/><path class="cls-9" d="M2272.75,356,2201,402.52V896.74L2272.88,850Q2272.82,603,2272.75,356Z"/><path class="cls-9" d="M2272.78,1509l.1-.06L2201,1555.71v304.35q36-23.57,71.93-47.11Q2272.84,1661,2272.78,1509Z"/><path class="cls-10" d="M1851.58,403c5.43-4.56,11.08-8.8,16.81-12.91,2.84-2.1,5.76-4.07,8.65-6.09l8.76-5.91,8.89-5.72c3-1.85,6-3.76,9-5.54,6-3.63,12.17-7.15,18.52-10.33-5.44,4.56-11.09,8.8-16.81,12.92-2.84,2.09-5.77,4.06-8.65,6.09l-8.77,5.9-8.89,5.72c-3,1.84-6,3.75-9,5.53C1864,396.27,1857.91,399.79,1851.58,403Z"/><rect class="cls-11" y="1918.06" width="1050.32" height="539.1"/><polygon class="cls-12" points="1050.32 2457.17 1352.41 2258.68 1352.41 1719.58 1050.32 1918.06 1050.32 2457.17"/><path class="cls-13" d="M1050.32,1918.06l302.09-198.48H303.08L1,1918.06Z"/><path class="cls-7" d="M1222.16,1806.93H949.58l-778.5-.61-71.75,47.12,777.44,0h272.58Z"/><path class="cls-5" d="M647.29,2345.26H542.72v111.91H647.29Z"/><path class="cls-9" d="M1222.29,1996.6q-.06-94.83-.13-189.67l-72.81,46.53v348.67l72.94-46.74q0-79.36-.11-158.72Z"/><rect class="cls-14" x="368.13" y="1964.87" width="312.54" height="47.11" rx="13.34"/><rect class="cls-11" x="409.27" y="779.54" width="1050.32" height="1050.32"/><path class="cls-15" d="M1761.67,581.05l-876.18,2L409.27,779.54H1459.59Z"/><path class="cls-16" d="M882.4,780.13,885.49,583,409.27,779.54Z"/><path class="cls-12" d="M1459.59,779.54V1829.41l302.08-198.49V581.05Z"/><path class="cls-13" d="M1459.59,779.54l302.08-198.49-421.39-98.31L1014.07,701.12Z"/><path class="cls-13" d="M923.24,713.44l295.32-194.73L712.35,581.05,410.27,779.54Z"/><path class="cls-7" d="M923.21,713.41,1223,518.22l-50.2,6.1-303.11,196Z"/><path class="cls-5" d="M1028.47,779.54H923.91V985.12h104.56Z"/><path class="cls-5" d="M1087,1444.72H982.45v385.14H1087Z"/><path class="cls-7" d="M1065.2,709.9l319.12-217.14-44-10L1014.07,701.12Z"/><rect class="cls-11" x="1482.02" y="1408.79" width="778.21" height="979.09"/><path class="cls-12" d="M2260.23,2387.88l223.82-179.66V1265.73l-223.82,143.06Z"/><path class="cls-13" d="M2260.23,1408.79l223.82-143.06H1706.58l-223.82,143.06Z"/><rect class="cls-14" x="1716.55" y="1484.55" width="312.54" height="47.11" rx="13.34"/><path class="cls-9" d="M2428.29,1491.13q-.06-94.85-.13-189.68L2355.35,1348v348.67l72.94-46.74q-.06-79.37-.11-158.72Z"/><path class="cls-9" d="M2355.65,2113.12l1.08,197.3,71.55-57.43q0-97.83,0-195.65Z"/><path class="cls-7" d="M1650.69,1301.45,1577.91,1348l777.44,0,72.81-46.54Z"/><path class="cls-8" d="M1618.25,1322.07c32.4-.44,64.79-.64,97.18-1l97.19-.56c32.39-.23,64.79-.19,97.18-.28l97.19-.18,97.18.18,48.59.09,24.3.05,24.3.14,97.18.55,48.59.45,24.3.22,24.29.3-24.29.3-24.3.23-48.59.45-97.18.55-24.3.14-24.3,0-48.59.09-97.18.18-97.19-.18c-32.39-.09-64.79-.05-97.18-.29l-97.19-.55C1683,1322.71,1650.65,1322.52,1618.25,1322.07Z"/><rect class="cls-1" x="878.63" y="2228.71" width="767.68" height="394.03"/><polygon class="cls-2" points="1646.31 2622.74 1867.1 2477.67 1867.1 2083.64 1646.31 2228.71 1646.31 2622.74"/><path class="cls-3" d="M1646.31,2228.71l220.79-145.07H1100.15L879.36,2228.71Z"/><path class="cls-5" d="M1347.43,2229.14H1242.86v122.7h104.57Z"/><path class="cls-7" d="M1347.43,2229.14H1242.86l226-145.5h102.93Z"/><path class="cls-8" d="M1296.31,2229.07c18-12.82,36.18-25.32,54.45-37.7,9.12-6.22,18.32-12.32,27.47-18.48l27.6-18.29,27.7-18.12c9.28-6,18.52-12,27.84-17.92,18.59-11.9,37.26-23.67,56.15-35.12-18,12.83-36.17,25.32-54.45,37.7-9.11,6.22-18.31,12.32-27.47,18.48L1408,2157.91,1380.29,2176c-9.27,6-18.51,12-27.83,17.93C1333.87,2205.84,1315.19,2217.62,1296.31,2229.07Z"/><rect class="cls-17" x="1194.66" y="1802.05" width="578.88" height="386.54"/><path class="cls-18" d="M1773.53,1802.05v386.54l167.52-121.13q-.51-201.07-1-402.15Z"/><path class="cls-19" d="M1773.53,1802.05,1940,1665.31H1361.7l-166.49,136.74Z"/><path class="cls-20" d="M1360.1,1802.05q.8-68.37,1.6-136.74l-166.49,136.74Z"/><path class="cls-21" d="M1773.53,1802.05,1940,1665.31l-209.59-45.62L1555,1760.27Z"/><path class="cls-7" d="M1598.48,1768.72l166.9-141.29-35-7.74L1555,1760.27Z"/><path class="cls-21" d="M1475.51,1746.51l137.57-138.44-251.38,57.24-166.49,136.74Z"/><path class="cls-7" d="M1475.51,1746.51l137.57-138.44-33.24,7.56-139.42,137.83Z"/><path class="cls-5" d="M1584.07,1802.05H1479.5v331.13h104.57Z"/><path class="cls-5" d="M1578.66,2132c1.92,0,3.74.15,5.41.3v-27.11a25,25,0,0,1-5.41.93Z"/><path class="cls-5" d="M1522.21,2133.18H1564a57,57,0,0,1,11.06-1.16v-25.89c-8.1-.57-14.88-4.77-14.63-9.93v-43.53h23.62v-14h-61.86Z"/><path class="cls-5" d="M1479.5,1802.05v232h17.24v99.1h20.86v-99.1h66.47v-232Z"/><path class="cls-5" d="M1479.5,2133.18h12.62v-94.49H1479.5Z"/><rect class="cls-17" x="1266.66" y="119.15" width="629.59" height="323.15"/><polygon class="cls-18" points="1896.26 442.3 2077.33 323.32 2077.33 0.17 1896.26 119.14 1896.26 442.3"/><path class="cls-21" d="M1896.26,119.15,2077.33.17h-629l-181.08,119Z"/><path class="cls-5" d="M1605,119.62H1500.47v46.44H1605Z"/><path class="cls-7" d="M1605,119.62H1500.47L1686.24,0l103.13.06Z"/><path class="cls-8" d="M1553.91,119.55c14.94-10.52,30.06-20.78,45.25-30.94,7.57-5.1,15.21-10.11,22.82-15.16l22.93-15,23-14.87c7.71-4.9,15.38-9.86,23.13-14.71,15.44-9.76,31-19.43,46.65-28.82-14.94,10.53-30.06,20.78-45.24,30.94-7.57,5.11-15.22,10.11-22.82,15.17l-22.93,15-23,14.87c-7.7,4.9-15.38,9.85-23.12,14.71C1585.12,100.49,1569.6,110.15,1553.91,119.55Z"/></g></g></svg>