<svg xmlns="http://www.w3.org/2000/svg" xmlns:xlink="http://www.w3.org/1999/xlink" viewBox="0 0 358.14 167.19"><defs><style>.cls-1{isolation:isolate;}.cls-2{fill:#21292b;}.cls-3{fill:#4a585c;}.cls-4{fill:#222b2e;}.cls-5{fill:#f4872a;}.cls-6{fill:#151e21;}.cls-7{fill:url(#linear-gradient);}.cls-8{fill:#3b4447;}.cls-41,.cls-9,.cls-99{opacity:0.5;}.cls-9{fill:url(#linear-gradient-2);}.cls-10{fill:url(#linear-gradient-3);}.cls-11{fill:url(#linear-gradient-4);}.cls-12{fill:url(#linear-gradient-5);}.cls-13{fill:url(#linear-gradient-6);}.cls-14{fill:#2b2e2f;}.cls-136,.cls-139,.cls-14,.cls-89{opacity:0.4;}.cls-130,.cls-131,.cls-136,.cls-139,.cls-14,.cls-70,.cls-77,.cls-78,.cls-79,.cls-80,.cls-81,.cls-82,.cls-83,.cls-84,.cls-85,.cls-86,.cls-87,.cls-88,.cls-89,.cls-93{mix-blend-mode:multiply;}.cls-15{fill:#b7b9bb;}.cls-16{fill:url(#linear-gradient-7);}.cls-17{fill:url(#linear-gradient-8);}.cls-18{fill:#393b3d;}.cls-19{fill:url(#linear-gradient-9);}.cls-20{fill:#5b686c;}.cls-21{fill:url(#linear-gradient-10);}.cls-22{fill:url(#linear-gradient-11);}.cls-23{fill:url(#linear-gradient-12);}.cls-24{fill:url(#linear-gradient-13);}.cls-25{fill:url(#linear-gradient-14);}.cls-26{fill:url(#linear-gradient-15);}.cls-27{fill:url(#linear-gradient-16);}.cls-28{fill:url(#linear-gradient-17);}.cls-29{fill:url(#linear-gradient-18);}.cls-30{fill:url(#linear-gradient-19);}.cls-31{fill:url(#linear-gradient-20);}.cls-32{fill:url(#linear-gradient-21);}.cls-33{fill:url(#linear-gradient-22);}.cls-34{fill:url(#linear-gradient-23);}.cls-35{fill:url(#linear-gradient-24);}.cls-36{fill:url(#linear-gradient-25);}.cls-37{fill:url(#linear-gradient-26);}.cls-38{fill:url(#linear-gradient-27);}.cls-39{fill:url(#linear-gradient-28);}.cls-40{fill:url(#linear-gradient-29);}.cls-41{fill:url(#linear-gradient-30);}.cls-42{fill:url(#linear-gradient-31);}.cls-43{fill:url(#linear-gradient-32);}.cls-44{fill:url(#linear-gradient-33);}.cls-45{fill:url(#linear-gradient-34);}.cls-46{fill:url(#linear-gradient-35);}.cls-47{fill:url(#linear-gradient-36);}.cls-48{fill:url(#linear-gradient-37);}.cls-49{fill:url(#linear-gradient-38);}.cls-50{fill:url(#linear-gradient-39);}.cls-51{fill:url(#linear-gradient-40);}.cls-52{fill:url(#linear-gradient-41);}.cls-53{fill:url(#linear-gradient-42);}.cls-54{fill:url(#linear-gradient-43);}.cls-55{fill:url(#linear-gradient-44);}.cls-56{fill:url(#linear-gradient-45);}.cls-57{fill:url(#linear-gradient-46);}.cls-58{fill:url(#linear-gradient-47);}.cls-59{fill:url(#linear-gradient-48);}.cls-60{fill:url(#linear-gradient-49);}.cls-61{fill:url(#linear-gradient-50);}.cls-62{fill:url(#linear-gradient-51);}.cls-63{fill:url(#linear-gradient-52);}.cls-64{fill:url(#linear-gradient-53);}.cls-65{fill:url(#linear-gradient-54);}.cls-66{fill:url(#linear-gradient-55);}.cls-67{fill:url(#linear-gradient-56);}.cls-68{fill:url(#linear-gradient-57);}.cls-69{fill:url(#linear-gradient-58);}.cls-70,.cls-81,.cls-83,.cls-85,.cls-88,.cls-93,.cls-97{opacity:0.2;}.cls-71{fill:url(#linear-gradient-59);}.cls-72{fill:url(#linear-gradient-60);}.cls-73{fill:url(#linear-gradient-61);}.cls-74{fill:url(#linear-gradient-62);}.cls-75{fill:url(#linear-gradient-63);}.cls-76{fill:#e1e8ec;}.cls-77{opacity:0.1;}.cls-78,.cls-79{opacity:0.07;}.cls-78{fill:url(#_2);}.cls-130,.cls-131,.cls-80,.cls-84{opacity:0.15;}.cls-80{fill:url(#_2-2);}.cls-81{fill:url(#_2-3);}.cls-82{opacity:0.25;}.cls-83{fill:url(#_2-4);}.cls-84{fill:url(#_2-5);}.cls-85{fill:url(#_2-6);}.cls-86,.cls-87{opacity:0.3;}.cls-86{fill:url(#_2-7);}.cls-88{fill:url(#_2-8);}.cls-90{fill:#2e3638;}.cls-91{fill:#141c1e;}.cls-92{fill:#303e42;}.cls-93{fill:url(#_2-9);}.cls-94{fill:url(#linear-gradient-64);}.cls-95{fill:#ffa144;}.cls-96{fill:#98a6aa;}.cls-97{fill:#fff;}.cls-98{fill:url(#linear-gradient-65);}.cls-99{fill:url(#linear-gradient-66);}.cls-100{fill:url(#linear-gradient-67);}.cls-101{fill:url(#linear-gradient-68);}.cls-102{fill:#d0d2d4;}.cls-103{fill:url(#linear-gradient-69);}.cls-104{fill:url(#linear-gradient-70);}.cls-105{fill:url(#linear-gradient-71);}.cls-106{fill:url(#linear-gradient-72);}.cls-107{fill:url(#linear-gradient-73);}.cls-108{fill:url(#linear-gradient-74);}.cls-109{fill:url(#linear-gradient-75);}.cls-110{fill:url(#linear-gradient-76);}.cls-111{fill:url(#linear-gradient-77);}.cls-112{fill:url(#linear-gradient-78);}.cls-113{fill:url(#linear-gradient-79);}.cls-114{fill:url(#linear-gradient-80);}.cls-115{fill:url(#linear-gradient-81);}.cls-116{fill:url(#linear-gradient-82);}.cls-117{fill:url(#linear-gradient-83);}.cls-118{fill:url(#linear-gradient-84);}.cls-119{fill:url(#linear-gradient-85);}.cls-120{fill:url(#linear-gradient-86);}.cls-121{fill:url(#linear-gradient-87);}.cls-122{fill:url(#linear-gradient-88);}.cls-123{fill:url(#linear-gradient-89);}.cls-124{fill:url(#linear-gradient-90);}.cls-125{fill:url(#linear-gradient-91);}.cls-126{fill:url(#linear-gradient-92);}.cls-127{fill:url(#linear-gradient-93);}.cls-128{opacity:0.7;mix-blend-mode:screen;fill:url(#_2-10);}.cls-129{fill:#3d4b4f;}.cls-130{fill:url(#_2-11);}.cls-132{fill:url(#_28);}.cls-133{fill:url(#_28-2);}.cls-134{fill:url(#_1);}.cls-135{fill:url(#_29);}.cls-136{fill:url(#linear-gradient-94);}.cls-137{fill:url(#_1-2);}.cls-138{fill:url(#_29-2);}.cls-139{fill:url(#linear-gradient-95);}.cls-140{fill:#0a1316;}.cls-141{fill:url(#_10);}.cls-142{fill:url(#linear-gradient-96);}.cls-143{fill:#232c2f;}.cls-144{fill:#555e61;}.cls-145{fill:url(#_10-2);}.cls-146{fill:url(#linear-gradient-97);}.cls-147{fill:url(#_10-3);}.cls-148{fill:url(#linear-gradient-98);}.cls-149{fill:url(#_10-4);}.cls-150{fill:url(#linear-gradient-99);}.cls-151{fill:url(#_10-5);}.cls-152{fill:url(#linear-gradient-100);}.cls-153{fill:url(#_10-6);}.cls-154{fill:url(#linear-gradient-101);}.cls-155{fill:url(#_10-7);}.cls-156{fill:url(#linear-gradient-102);}.cls-157{fill:url(#_10-8);}.cls-158{fill:url(#linear-gradient-103);}.cls-159{fill:url(#_10-9);}.cls-160{fill:url(#linear-gradient-104);}.cls-161{fill:url(#_10-10);}.cls-162{fill:url(#linear-gradient-105);}</style><linearGradient id="linear-gradient" x1="218.88" y1="125.48" x2="218.88" y2="167.9" gradientTransform="matrix(-1, 0, 0, 1, 358.14, 0)" gradientUnits="userSpaceOnUse"><stop offset="0" stop-color="#555e61"/><stop offset="1" stop-color="#222b2e"/></linearGradient><linearGradient id="linear-gradient-2" x1="218.88" y1="160.99" x2="218.88" y2="130.72" xlink:href="#linear-gradient"/><linearGradient id="linear-gradient-3" x1="218.88" y1="160.99" x2="218.88" y2="130.75" xlink:href="#linear-gradient"/><linearGradient id="linear-gradient-4" x1="218.88" y1="163.69" x2="218.88" y2="129.14" gradientTransform="matrix(-1, 0, 0, 1, 358.14, 0)" gradientUnits="userSpaceOnUse"><stop offset="0" stop-color="#f9fcff"/><stop offset="1" stop-color="#76797a"/></linearGradient><linearGradient id="linear-gradient-5" x1="218.88" y1="157.4" x2="218.88" y2="136.49" gradientTransform="matrix(-1, 0, 0, 1, 358.14, 0)" gradientUnits="userSpaceOnUse"><stop offset="0" stop-color="#e0e3e6"/><stop offset="1" stop-color="#5d6061"/></linearGradient><linearGradient id="linear-gradient-6" x1="218.88" y1="157.41" x2="218.88" y2="136.5" gradientTransform="matrix(-1, 0, 0, 1, 358.14, 0)" gradientUnits="userSpaceOnUse"><stop offset="0" stop-color="#c7cacd"/><stop offset="1" stop-color="#444748"/></linearGradient><linearGradient id="linear-gradient-7" x1="218.88" y1="151.48" x2="218.88" y2="142.39" xlink:href="#linear-gradient-5"/><linearGradient id="linear-gradient-8" x1="218.88" y1="143.45" x2="218.88" y2="148.84" gradientTransform="matrix(-1, 0, 0, 1, 358.14, 0)" gradientUnits="userSpaceOnUse"><stop offset="0" stop-color="#eff2f5"/><stop offset="1" stop-color="#86898b"/></linearGradient><linearGradient id="linear-gradient-9" x1="535.84" y1="141.28" x2="535.84" y2="139.43" gradientTransform="translate(-394.77)" xlink:href="#linear-gradient-8"/><linearGradient id="linear-gradient-10" x1="535.84" y1="139.71" x2="535.84" y2="141.05" gradientTransform="translate(-394.77)" xlink:href="#linear-gradient-8"/><linearGradient id="linear-gradient-11" x1="538.77" y1="143.41" x2="538.77" y2="141.56" gradientTransform="translate(-394.77)" xlink:href="#linear-gradient-8"/><linearGradient id="linear-gradient-12" x1="538.77" y1="141.85" x2="538.77" y2="143.18" gradientTransform="translate(-394.77)" xlink:href="#linear-gradient-8"/><linearGradient id="linear-gradient-13" x1="539.89" y1="146.86" x2="539.89" y2="145.01" gradientTransform="translate(-394.77)" xlink:href="#linear-gradient-8"/><linearGradient id="linear-gradient-14" x1="539.89" y1="145.29" x2="539.89" y2="146.63" gradientTransform="translate(-394.77)" xlink:href="#linear-gradient-8"/><linearGradient id="linear-gradient-15" x1="529.28" y1="143.41" x2="529.28" y2="141.56" gradientTransform="translate(-394.77)" xlink:href="#linear-gradient-8"/><linearGradient id="linear-gradient-16" x1="529.28" y1="141.85" x2="529.28" y2="143.18" gradientTransform="translate(-394.77)" xlink:href="#linear-gradient-8"/><linearGradient id="linear-gradient-17" x1="538.77" y1="149.84" x2="538.77" y2="148" gradientTransform="translate(-394.77)" xlink:href="#linear-gradient-8"/><linearGradient id="linear-gradient-18" x1="538.77" y1="148.28" x2="538.77" y2="149.62" gradientTransform="translate(-394.77)" xlink:href="#linear-gradient-8"/><linearGradient id="linear-gradient-19" x1="529.28" y1="149.84" x2="529.28" y2="148" gradientTransform="translate(-394.77)" xlink:href="#linear-gradient-8"/><linearGradient id="linear-gradient-20" x1="529.28" y1="148.28" x2="529.28" y2="149.62" gradientTransform="translate(-394.77)" xlink:href="#linear-gradient-8"/><linearGradient id="linear-gradient-21" x1="528.16" y1="146.86" x2="528.16" y2="145.01" gradientTransform="translate(-394.77)" xlink:href="#linear-gradient-8"/><linearGradient id="linear-gradient-22" x1="528.16" y1="145.29" x2="528.16" y2="146.63" gradientTransform="translate(-394.77)" xlink:href="#linear-gradient-8"/><linearGradient id="linear-gradient-23" x1="532.25" y1="141.28" x2="532.25" y2="139.43" gradientTransform="translate(-394.77)" xlink:href="#linear-gradient-8"/><linearGradient id="linear-gradient-24" x1="532.25" y1="139.71" x2="532.25" y2="141.05" gradientTransform="translate(-394.77)" xlink:href="#linear-gradient-8"/><linearGradient id="linear-gradient-25" x1="535.84" y1="152.38" x2="535.84" y2="150.54" gradientTransform="translate(-394.77)" xlink:href="#linear-gradient-8"/><linearGradient id="linear-gradient-26" x1="535.84" y1="150.82" x2="535.84" y2="152.16" gradientTransform="translate(-394.77)" xlink:href="#linear-gradient-8"/><linearGradient id="linear-gradient-27" x1="532.25" y1="152.38" x2="532.25" y2="150.54" gradientTransform="translate(-394.77)" xlink:href="#linear-gradient-8"/><linearGradient id="linear-gradient-28" x1="532.25" y1="150.82" x2="532.25" y2="152.16" gradientTransform="translate(-394.77)" xlink:href="#linear-gradient-8"/><linearGradient id="linear-gradient-29" x1="269.9" y1="125.48" x2="269.9" y2="167.9" xlink:href="#linear-gradient"/><linearGradient id="linear-gradient-30" x1="269.9" y1="160.99" x2="269.9" y2="130.72" xlink:href="#linear-gradient"/><linearGradient id="linear-gradient-31" x1="269.9" y1="160.99" x2="269.9" y2="130.75" xlink:href="#linear-gradient"/><linearGradient id="linear-gradient-32" x1="269.9" y1="163.69" x2="269.9" y2="129.14" xlink:href="#linear-gradient-4"/><linearGradient id="linear-gradient-33" x1="269.9" y1="157.4" x2="269.9" y2="136.49" xlink:href="#linear-gradient-5"/><linearGradient id="linear-gradient-34" x1="269.9" y1="157.41" x2="269.9" y2="136.5" xlink:href="#linear-gradient-6"/><linearGradient id="linear-gradient-35" x1="269.9" y1="151.48" x2="269.9" y2="142.39" xlink:href="#linear-gradient-5"/><linearGradient id="linear-gradient-36" x1="269.9" y1="143.45" x2="269.9" y2="148.84" xlink:href="#linear-gradient-8"/><linearGradient id="linear-gradient-37" x1="484.82" y1="141.28" x2="484.82" y2="139.43" gradientTransform="translate(-394.77)" xlink:href="#linear-gradient-8"/><linearGradient id="linear-gradient-38" x1="484.82" y1="139.71" x2="484.82" y2="141.05" gradientTransform="translate(-394.77)" xlink:href="#linear-gradient-8"/><linearGradient id="linear-gradient-39" x1="487.76" y1="143.41" x2="487.76" y2="141.56" gradientTransform="translate(-394.77)" xlink:href="#linear-gradient-8"/><linearGradient id="linear-gradient-40" x1="487.75" y1="141.85" x2="487.75" y2="143.18" gradientTransform="translate(-394.77)" xlink:href="#linear-gradient-8"/><linearGradient id="linear-gradient-41" x1="488.87" y1="146.86" x2="488.87" y2="145.01" gradientTransform="translate(-394.77)" xlink:href="#linear-gradient-8"/><linearGradient id="linear-gradient-42" x1="488.87" y1="145.29" x2="488.87" y2="146.63" gradientTransform="translate(-394.77)" xlink:href="#linear-gradient-8"/><linearGradient id="linear-gradient-43" x1="478.26" y1="143.41" x2="478.26" y2="141.56" gradientTransform="translate(-394.77)" xlink:href="#linear-gradient-8"/><linearGradient id="linear-gradient-44" x1="478.26" y1="141.85" x2="478.26" y2="143.18" gradientTransform="translate(-394.77)" xlink:href="#linear-gradient-8"/><linearGradient id="linear-gradient-45" x1="487.76" y1="149.84" x2="487.76" y2="148" gradientTransform="translate(-394.77)" xlink:href="#linear-gradient-8"/><linearGradient id="linear-gradient-46" x1="487.75" y1="148.28" x2="487.75" y2="149.62" gradientTransform="translate(-394.77)" xlink:href="#linear-gradient-8"/><linearGradient id="linear-gradient-47" x1="478.26" y1="149.84" x2="478.26" y2="148" gradientTransform="translate(-394.77)" xlink:href="#linear-gradient-8"/><linearGradient id="linear-gradient-48" x1="478.26" y1="148.28" x2="478.26" y2="149.62" gradientTransform="translate(-394.77)" xlink:href="#linear-gradient-8"/><linearGradient id="linear-gradient-49" x1="477.14" y1="146.86" x2="477.14" y2="145.01" gradientTransform="translate(-394.77)" xlink:href="#linear-gradient-8"/><linearGradient id="linear-gradient-50" x1="477.14" y1="145.29" x2="477.14" y2="146.63" gradientTransform="translate(-394.77)" xlink:href="#linear-gradient-8"/><linearGradient id="linear-gradient-51" x1="481.23" y1="141.28" x2="481.23" y2="139.43" gradientTransform="translate(-394.77)" xlink:href="#linear-gradient-8"/><linearGradient id="linear-gradient-52" x1="481.23" y1="139.71" x2="481.23" y2="141.05" gradientTransform="translate(-394.77)" xlink:href="#linear-gradient-8"/><linearGradient id="linear-gradient-53" x1="484.82" y1="152.38" x2="484.82" y2="150.54" gradientTransform="translate(-394.77)" xlink:href="#linear-gradient-8"/><linearGradient id="linear-gradient-54" x1="484.82" y1="150.82" x2="484.82" y2="152.16" gradientTransform="translate(-394.77)" xlink:href="#linear-gradient-8"/><linearGradient id="linear-gradient-55" x1="481.23" y1="152.38" x2="481.23" y2="150.54" gradientTransform="translate(-394.77)" xlink:href="#linear-gradient-8"/><linearGradient id="linear-gradient-56" x1="481.23" y1="150.82" x2="481.23" y2="152.16" gradientTransform="translate(-394.77)" xlink:href="#linear-gradient-8"/><linearGradient id="linear-gradient-57" x1="143.5" y1="124.37" x2="143.5" y2="148.72" gradientTransform="matrix(-1, 0, 0, 1, 358.14, 0)" gradientUnits="userSpaceOnUse"><stop offset="0" stop-color="#b7b7b7"/><stop offset="0.08" stop-color="#858585"/><stop offset="0.46" stop-color="#979797"/><stop offset="0.91" stop-color="#858585"/><stop offset="1" stop-color="#535353"/></linearGradient><linearGradient id="linear-gradient-58" x1="133.82" y1="123.68" x2="133.82" y2="149.45" xlink:href="#linear-gradient-57"/><linearGradient id="linear-gradient-59" x1="155.01" y1="123.68" x2="155.01" y2="149.45" xlink:href="#linear-gradient-57"/><linearGradient id="linear-gradient-60" x1="218.88" y1="102.21" x2="218.88" y2="151.78" gradientTransform="matrix(-1, 0, 0, 1, 358.14, 0)" gradientUnits="userSpaceOnUse"><stop offset="0" stop-color="#485154"/><stop offset="1" stop-color="#151e21"/></linearGradient><linearGradient id="linear-gradient-61" x1="218.88" y1="116.8" x2="218.88" y2="146.41" gradientTransform="matrix(-1, 0, 0, 1, 358.14, 0)" gradientUnits="userSpaceOnUse"><stop offset="0" stop-color="#606a6e"/><stop offset="1" stop-color="#0d1112"/></linearGradient><linearGradient id="linear-gradient-62" x1="269.9" y1="102.21" x2="269.9" y2="151.78" xlink:href="#linear-gradient-60"/><linearGradient id="linear-gradient-63" x1="269.9" y1="116.8" x2="269.9" y2="146.41" xlink:href="#linear-gradient-61"/><linearGradient id="_2" x1="43.72" y1="51.62" x2="43.72" y2="152.37" gradientTransform="matrix(-1, 0, 0, 1, 358.14, 0)" gradientUnits="userSpaceOnUse"><stop offset="0" stop-color="#fff"/><stop offset="1"/></linearGradient><linearGradient id="_2-2" x1="11.51" y1="121.44" x2="4.82" y2="121.44" xlink:href="#_2"/><linearGradient id="_2-3" x1="10.69" y1="117.03" x2="6" y2="117.03" xlink:href="#_2"/><linearGradient id="_2-4" x1="7.74" y1="106.85" x2="-0.06" y2="106.85" xlink:href="#_2"/><linearGradient id="_2-5" x1="10.85" y1="131.37" x2="2.83" y2="131.37" xlink:href="#_2"/><linearGradient id="_2-6" x1="52.96" y1="66.53" x2="56.33" y2="61.9" xlink:href="#_2"/><linearGradient id="_2-7" x1="25.88" y1="140.32" x2="25.88" y2="115.85" xlink:href="#_2"/><linearGradient id="_2-8" x1="13.71" y1="92.46" x2="1.7" y2="92.46" xlink:href="#_2"/><linearGradient id="_2-9" x1="8.44" y1="46.96" x2="16.89" y2="46.96" xlink:href="#_2"/><linearGradient id="linear-gradient-64" x1="7.16" y1="124.49" x2="7.16" y2="135.42" gradientTransform="matrix(-1, 0, 0, 1, 358.14, 0)" gradientUnits="userSpaceOnUse"><stop offset="0" stop-color="#474747"/><stop offset="0" stop-color="#4c4c4c"/><stop offset="0.03" stop-color="#626262"/><stop offset="0.05" stop-color="#737373"/><stop offset="0.08" stop-color="#7e7e7e"/><stop offset="0.13" stop-color="#858585"/><stop offset="0.25" stop-color="#878787"/><stop offset="0.36" stop-color="#d3d3d3"/><stop offset="0.45" stop-color="#f3f3f3"/><stop offset="0.48" stop-color="#fff"/><stop offset="0.56" stop-color="#fff"/><stop offset="0.72" stop-color="#d3d3d3"/><stop offset="0.87" stop-color="#878787"/></linearGradient><linearGradient id="linear-gradient-65" x1="60.8" y1="125.01" x2="60.8" y2="166.73" xlink:href="#linear-gradient"/><linearGradient id="linear-gradient-66" x1="60.8" y1="161.17" x2="60.8" y2="130.84" xlink:href="#linear-gradient"/><linearGradient id="linear-gradient-67" x1="60.8" y1="161.17" x2="60.8" y2="130.84" gradientTransform="matrix(-0.02, -1, -1, 0.02, 444.52, 204.24)" xlink:href="#linear-gradient"/><linearGradient id="linear-gradient-68" x1="60.8" y1="158.05" x2="60.8" y2="133.31" xlink:href="#linear-gradient-4"/><linearGradient id="linear-gradient-69" x1="60.8" y1="135.82" x2="60.8" y2="156.83" xlink:href="#linear-gradient-4"/><linearGradient id="linear-gradient-70" x1="60.8" y1="137.56" x2="60.8" y2="162.34" xlink:href="#linear-gradient-4"/><linearGradient id="linear-gradient-71" x1="60.8" y1="141.65" x2="60.8" y2="150.69" xlink:href="#linear-gradient-4"/><linearGradient id="linear-gradient-72" x1="697.97" y1="146.86" x2="697.97" y2="145.01" gradientTransform="translate(-394.77)" xlink:href="#linear-gradient-8"/><linearGradient id="linear-gradient-73" x1="697.97" y1="145.29" x2="697.97" y2="146.63" gradientTransform="translate(-394.77)" xlink:href="#linear-gradient-8"/><linearGradient id="linear-gradient-74" x1="696.85" y1="143.41" x2="696.85" y2="141.56" gradientTransform="translate(-394.77)" xlink:href="#linear-gradient-8"/><linearGradient id="linear-gradient-75" x1="696.85" y1="141.84" x2="696.85" y2="143.18" gradientTransform="translate(-394.77)" xlink:href="#linear-gradient-8"/><linearGradient id="linear-gradient-76" x1="693.92" y1="141.28" x2="693.92" y2="139.43" gradientTransform="translate(-394.77)" xlink:href="#linear-gradient-8"/><linearGradient id="linear-gradient-77" x1="693.92" y1="139.71" x2="693.92" y2="141.05" gradientTransform="translate(-394.77)" xlink:href="#linear-gradient-8"/><linearGradient id="linear-gradient-78" x1="690.29" y1="141.28" x2="690.29" y2="139.43" gradientTransform="translate(-394.77)" xlink:href="#linear-gradient-8"/><linearGradient id="linear-gradient-79" x1="690.29" y1="139.71" x2="690.29" y2="141.05" gradientTransform="translate(-394.77)" xlink:href="#linear-gradient-8"/><linearGradient id="linear-gradient-80" x1="687.5" y1="143.41" x2="687.5" y2="141.56" gradientTransform="translate(-394.77)" xlink:href="#linear-gradient-8"/><linearGradient id="linear-gradient-81" x1="687.5" y1="141.84" x2="687.5" y2="143.18" gradientTransform="translate(-394.77)" xlink:href="#linear-gradient-8"/><linearGradient id="linear-gradient-82" x1="687.36" y1="150.3" x2="687.36" y2="148.46" gradientTransform="translate(-394.77)" xlink:href="#linear-gradient-8"/><linearGradient id="linear-gradient-83" x1="687.36" y1="148.74" x2="687.36" y2="150.08" gradientTransform="translate(-394.77)" xlink:href="#linear-gradient-8"/><linearGradient id="linear-gradient-84" x1="696.99" y1="150.3" x2="696.99" y2="148.46" gradientTransform="translate(-394.77)" xlink:href="#linear-gradient-8"/><linearGradient id="linear-gradient-85" x1="696.99" y1="148.74" x2="696.99" y2="150.08" gradientTransform="translate(-394.77)" xlink:href="#linear-gradient-8"/><linearGradient id="linear-gradient-86" x1="690.29" y1="152.43" x2="690.29" y2="150.59" gradientTransform="translate(-394.77)" xlink:href="#linear-gradient-8"/><linearGradient id="linear-gradient-87" x1="690.29" y1="150.87" x2="690.29" y2="152.21" gradientTransform="translate(-394.77)" xlink:href="#linear-gradient-8"/><linearGradient id="linear-gradient-88" x1="693.92" y1="152.43" x2="693.92" y2="150.59" gradientTransform="translate(-394.77)" xlink:href="#linear-gradient-8"/><linearGradient id="linear-gradient-89" x1="693.92" y1="150.87" x2="693.92" y2="152.21" gradientTransform="translate(-394.77)" xlink:href="#linear-gradient-8"/><linearGradient id="linear-gradient-90" x1="686.24" y1="146.86" x2="686.24" y2="145.01" gradientTransform="translate(-394.77)" xlink:href="#linear-gradient-8"/><linearGradient id="linear-gradient-91" x1="686.24" y1="145.29" x2="686.24" y2="146.63" gradientTransform="translate(-394.77)" xlink:href="#linear-gradient-8"/><linearGradient id="linear-gradient-92" x1="7.35" y1="125.92" x2="7.35" y2="133.34" xlink:href="#linear-gradient-64"/><linearGradient id="linear-gradient-93" x1="7.66" y1="127.13" x2="7.66" y2="132.02" xlink:href="#linear-gradient-64"/><linearGradient id="_2-10" x1="7.16" y1="124.49" x2="7.16" y2="135.42" xlink:href="#_2"/><linearGradient id="_2-11" x1="225.95" y1="8.75" x2="225.95" y2="114.86" xlink:href="#_2"/><linearGradient id="_28" x1="115.91" y1="137.89" x2="115.91" y2="116.06" gradientTransform="matrix(-1, 0, 0, 1, 358.14, 0)" gradientUnits="userSpaceOnUse"><stop offset="0" stop-color="#adadad"/><stop offset="1" stop-color="#7b7b7b"/></linearGradient><linearGradient id="_28-2" x1="176.69" y1="139.02" x2="176.69" y2="115.97" xlink:href="#_28"/><linearGradient id="_1" x1="104.75" y1="127.71" x2="191.39" y2="127.71" gradientTransform="matrix(-1, 0, 0, 1, 358.14, 0)" gradientUnits="userSpaceOnUse"><stop offset="0" stop-color="#dfdfdf"/><stop offset="1" stop-color="#adadad"/></linearGradient><linearGradient id="_29" x1="104.75" y1="129.42" x2="191.39" y2="129.42" gradientTransform="matrix(-1, 0, 0, 1, 358.14, 0)" gradientUnits="userSpaceOnUse"><stop offset="0" stop-color="#f9f9f9"/><stop offset="1" stop-color="#c7c7c7"/></linearGradient><linearGradient id="linear-gradient-94" x1="148.07" y1="130.68" x2="148.07" y2="125.99" gradientTransform="matrix(-1, 0, 0, 1, 358.14, 0)" gradientUnits="userSpaceOnUse"><stop offset="0" stop-color="#fff"/><stop offset="0.27" stop-color="#fdfdfd"/><stop offset="0.41" stop-color="#f5f5f5"/><stop offset="0.52" stop-color="#e8e8e8"/><stop offset="0.61" stop-color="#d5d5d5"/><stop offset="0.69" stop-color="#bdbdbd"/><stop offset="0.77" stop-color="#9f9f9f"/><stop offset="0.84" stop-color="#7b7b7b"/><stop offset="0.9" stop-color="#515151"/><stop offset="0.96" stop-color="#242424"/><stop offset="1"/></linearGradient><linearGradient id="_1-2" x1="104.75" y1="138.96" x2="191.39" y2="138.96" xlink:href="#_1"/><linearGradient id="_29-2" x1="104.75" y1="140.67" x2="191.39" y2="140.67" xlink:href="#_29"/><linearGradient id="linear-gradient-95" x1="148.07" y1="141.93" x2="148.07" y2="137.24" xlink:href="#linear-gradient-94"/><linearGradient id="_10" x1="108.06" y1="100.05" x2="108.06" y2="105.38" gradientTransform="matrix(-1, 0, 0, 1, 358.14, 0)" gradientUnits="userSpaceOnUse"><stop offset="0" stop-color="#c5c5c5"/><stop offset="1" stop-color="#939393"/></linearGradient><linearGradient id="linear-gradient-96" x1="108.09" y1="101.53" x2="108.09" y2="116.04" gradientTransform="matrix(-1, 0, 0, 1, 358.14, 0)" gradientUnits="userSpaceOnUse"><stop offset="0" stop-color="#485154"/><stop offset="1" stop-color="#2f383b"/></linearGradient><linearGradient id="_10-2" x1="133.89" y1="100.05" x2="133.89" y2="105.38" xlink:href="#_10"/><linearGradient id="linear-gradient-97" x1="133.92" y1="101.53" x2="133.92" y2="116.04" xlink:href="#linear-gradient-96"/><linearGradient id="_10-3" x1="159.71" y1="100.05" x2="159.71" y2="105.38" xlink:href="#_10"/><linearGradient id="linear-gradient-98" x1="159.75" y1="101.53" x2="159.75" y2="116.04" xlink:href="#linear-gradient-96"/><linearGradient id="_10-4" x1="185.54" y1="100.05" x2="185.54" y2="105.38" xlink:href="#_10"/><linearGradient id="linear-gradient-99" x1="185.57" y1="101.53" x2="185.57" y2="116.04" xlink:href="#linear-gradient-96"/><linearGradient id="_10-5" x1="211.37" y1="100.05" x2="211.37" y2="105.38" xlink:href="#_10"/><linearGradient id="linear-gradient-100" x1="211.4" y1="101.53" x2="211.4" y2="116.04" xlink:href="#linear-gradient-96"/><linearGradient id="_10-6" x1="237.2" y1="100.05" x2="237.2" y2="105.38" xlink:href="#_10"/><linearGradient id="linear-gradient-101" x1="237.23" y1="101.53" x2="237.23" y2="116.04" xlink:href="#linear-gradient-96"/><linearGradient id="_10-7" x1="263.02" y1="100.05" x2="263.02" y2="105.38" xlink:href="#_10"/><linearGradient id="linear-gradient-102" x1="263.06" y1="101.53" x2="263.06" y2="116.04" xlink:href="#linear-gradient-96"/><linearGradient id="_10-8" x1="288.85" y1="100.05" x2="288.85" y2="105.38" xlink:href="#_10"/><linearGradient id="linear-gradient-103" x1="288.89" y1="101.53" x2="288.89" y2="116.04" xlink:href="#linear-gradient-96"/><linearGradient id="_10-9" x1="314.68" y1="100.05" x2="314.68" y2="105.38" xlink:href="#_10"/><linearGradient id="linear-gradient-104" x1="314.71" y1="101.53" x2="314.71" y2="116.04" xlink:href="#linear-gradient-96"/><linearGradient id="_10-10" x1="340.51" y1="100.05" x2="340.51" y2="105.38" xlink:href="#_10"/><linearGradient id="linear-gradient-105" x1="340.54" y1="101.53" x2="340.54" y2="116.04" xlink:href="#linear-gradient-96"/></defs><g class="cls-1"><g id="Layer_2" data-name="Layer 2"><g id="_1-3" data-name="1"><rect class="cls-2" x="63.54" y="144.08" width="0.81" height="14.54"/><polygon class="cls-3" points="272.91 110.43 41.63 110.43 41.63 115.23 84.38 120.06 144.89 120.06 277.89 115.51 279.04 110.43 272.91 110.43"/><rect class="cls-4" x="41.63" y="117.73" width="245.33" height="14.63"/><rect class="cls-3" x="47.63" y="121.71" width="3.34" height="17.79"/><rect class="cls-5" x="46.11" y="128.83" width="1.52" height="8.94"/><rect class="cls-4" x="56.79" y="135.71" width="22.46" height="1.3"/><polygon class="cls-6" points="237.09 130.08 259.67 130.08 259.67 130.97 265.96 130.97 265.96 143.25 259.67 143.25 259.67 146.63 232.95 146.63 232.95 139.49 194.77 139.49 194.77 130.08 232.95 130.08 237.09 130.08"/><polygon class="cls-6" points="75.62 130.6 109.98 130.6 109.98 135.71 164.29 135.71 164.29 130.97 167.37 130.97 167.37 135.71 197.35 135.71 197.35 140.38 90.05 140.38 90.05 137.76 75.62 137.76 75.62 130.6"/><path class="cls-7" d="M118.18,146.1a21.09,21.09,0,1,1,21.09,21.09A21.09,21.09,0,0,1,118.18,146.1Z"/><path class="cls-8" d="M119.81,146.1a19.46,19.46,0,1,1,19.46,19.45A19.46,19.46,0,0,1,119.81,146.1Z"/><path class="cls-9" d="M124.14,146.1a15.13,15.13,0,1,1,15.13,15.13A15.12,15.12,0,0,1,124.14,146.1Z"/><path class="cls-10" d="M125.52,146.1a13.75,13.75,0,1,1,13.75,13.74A13.76,13.76,0,0,1,125.52,146.1Z"/><path class="cls-11" d="M127.31,146.1a12,12,0,1,1,12,12A12,12,0,0,1,127.31,146.1Z"/><path class="cls-12" d="M128,146.1a11.3,11.3,0,1,1,11.3,11.3A11.29,11.29,0,0,1,128,146.1Z"/><path class="cls-13" d="M128.88,146.1a10.39,10.39,0,1,1,10.39,10.38A10.39,10.39,0,0,1,128.88,146.1Z"/><path class="cls-14" d="M131.7,146.1a7.57,7.57,0,1,1,7.57,7.56A7.56,7.56,0,0,1,131.7,146.1Z"/><path class="cls-15" d="M132.13,146.1a7.14,7.14,0,1,1,7.14,7.14A7.14,7.14,0,0,1,132.13,146.1Z"/><path class="cls-16" d="M135.26,146.1a4,4,0,1,1,4,4A4,4,0,0,1,135.26,146.1Z"/><path class="cls-17" d="M136.35,146.1a2.92,2.92,0,1,1,2.92,2.92A2.92,2.92,0,0,1,136.35,146.1Z"/><path class="cls-18" d="M138.13,137a1.17,1.17,0,1,0,1.14-.89A1,1,0,0,0,138.13,137Z"/><path class="cls-18" d="M138.13,155.07a1.17,1.17,0,0,0,2.27,0,1.17,1.17,0,0,0-2.27,0Z"/><path class="cls-18" d="M143.66,138.07a1.17,1.17,0,1,0,1.43,0A1,1,0,0,0,143.66,138.07Z"/><path class="cls-18" d="M133,152.68a1.17,1.17,0,1,0,1.44-.05A1,1,0,0,0,133,152.68Z"/><path class="cls-18" d="M147.5,142.18a1.16,1.16,0,1,0,1.2.8A1,1,0,0,0,147.5,142.18Z"/><path class="cls-18" d="M130.33,147.76a1.16,1.16,0,1,0,1.19.8A1,1,0,0,0,130.33,147.76Z"/><path class="cls-18" d="M148.2,147.76a1.16,1.16,0,1,0,.5,1.35A1,1,0,0,0,148.2,147.76Z"/><path class="cls-18" d="M131,142.18a1.16,1.16,0,1,0,.49,1.35A1,1,0,0,0,131,142.18Z"/><path class="cls-18" d="M145.49,152.68a1,1,0,0,0-1.44-.05,1,1,0,0,0-.39,1.38,1.17,1.17,0,0,0,1.83-1.33Z"/><path class="cls-18" d="M134.88,138.07a1,1,0,0,0-1.44,0,.92.92,0,1,0,1.44,0Z"/><path class="cls-19" d="M142,140.38a.89.89,0,1,1-.89-.89A.89.89,0,0,1,142,140.38Z"/><path class="cls-20" d="M141.81,140.38a.74.74,0,1,1-.74-.74A.74.74,0,0,1,141.81,140.38Z"/><path class="cls-21" d="M141.74,140.38a.67.67,0,1,1-.67-.67A.67.67,0,0,1,141.74,140.38Z"/><path class="cls-22" d="M144.89,142.51a.89.89,0,1,1-.89-.89A.89.89,0,0,1,144.89,142.51Z"/><path class="cls-20" d="M144.75,142.51a.75.75,0,0,1-.75.74.74.74,0,0,1,0-1.48A.75.75,0,0,1,144.75,142.51Z"/><path class="cls-23" d="M144.67,142.51a.67.67,0,1,1-.67-.67A.67.67,0,0,1,144.67,142.51Z"/><path class="cls-24" d="M146,146a.89.89,0,1,1-.89-.89A.89.89,0,0,1,146,146Z"/><path class="cls-20" d="M145.87,146a.75.75,0,0,1-.75.74.74.74,0,1,1,0-1.48A.75.75,0,0,1,145.87,146Z"/><path class="cls-25" d="M145.79,146a.67.67,0,0,1-.67.67.67.67,0,0,1,0-1.34A.67.67,0,0,1,145.79,146Z"/><path class="cls-26" d="M135.4,142.51a.89.89,0,1,1-.89-.89A.89.89,0,0,1,135.4,142.51Z"/><path class="cls-20" d="M135.25,142.51a.74.74,0,1,1-.74-.74A.74.74,0,0,1,135.25,142.51Z"/><path class="cls-27" d="M135.18,142.51a.67.67,0,1,1-.67-.67A.67.67,0,0,1,135.18,142.51Z"/><path class="cls-28" d="M144.89,148.94a.89.89,0,1,1-.89-.88A.89.89,0,0,1,144.89,148.94Z"/><path class="cls-20" d="M144.75,148.94a.76.76,0,0,1-.75.75.75.75,0,1,1,.75-.75Z"/><path class="cls-29" d="M144.67,148.94a.67.67,0,1,1-.67-.66A.67.67,0,0,1,144.67,148.94Z"/><path class="cls-30" d="M135.4,148.94a.89.89,0,1,1-.89-.88A.89.89,0,0,1,135.4,148.94Z"/><path class="cls-20" d="M135.25,148.94a.74.74,0,1,1-.74-.74A.75.75,0,0,1,135.25,148.94Z"/><path class="cls-31" d="M135.18,148.94a.67.67,0,1,1-.67-.66A.67.67,0,0,1,135.18,148.94Z"/><path class="cls-32" d="M134.28,146a.89.89,0,1,1-.89-.89A.89.89,0,0,1,134.28,146Z"/><path class="cls-20" d="M134.13,146a.74.74,0,1,1-.74-.74A.74.74,0,0,1,134.13,146Z"/><path class="cls-33" d="M134.06,146a.67.67,0,1,1-.67-.67A.67.67,0,0,1,134.06,146Z"/><path class="cls-34" d="M138.37,140.38a.89.89,0,1,1-.89-.89A.89.89,0,0,1,138.37,140.38Z"/><path class="cls-20" d="M138.22,140.38a.74.74,0,1,1-.74-.74A.74.74,0,0,1,138.22,140.38Z"/><path class="cls-35" d="M138.15,140.38a.67.67,0,1,1-.67-.67A.67.67,0,0,1,138.15,140.38Z"/><path class="cls-36" d="M142,151.48a.89.89,0,1,1-.89-.88A.89.89,0,0,1,142,151.48Z"/><path class="cls-20" d="M141.81,151.48a.74.74,0,1,1-1.48,0,.74.74,0,1,1,1.48,0Z"/><path class="cls-37" d="M141.74,151.48a.67.67,0,1,1-.67-.66A.67.67,0,0,1,141.74,151.48Z"/><path class="cls-38" d="M138.37,151.48a.89.89,0,1,1-1.77,0,.89.89,0,0,1,1.77,0Z"/><path class="cls-20" d="M138.22,151.48a.74.74,0,1,1-1.48,0,.74.74,0,1,1,1.48,0Z"/><path class="cls-39" d="M138.15,151.48a.67.67,0,1,1-.67-.66A.67.67,0,0,1,138.15,151.48Z"/><path class="cls-40" d="M67.16,146.1a21.09,21.09,0,1,1,21.09,21.09A21.09,21.09,0,0,1,67.16,146.1Z"/><path class="cls-8" d="M68.79,146.1a19.46,19.46,0,1,1,19.46,19.45A19.46,19.46,0,0,1,68.79,146.1Z"/><path class="cls-41" d="M73.12,146.1a15.13,15.13,0,1,1,15.13,15.13A15.12,15.12,0,0,1,73.12,146.1Z"/><path class="cls-42" d="M74.5,146.1a13.75,13.75,0,1,1,13.75,13.74A13.76,13.76,0,0,1,74.5,146.1Z"/><path class="cls-43" d="M76.29,146.1a12,12,0,1,1,12,12A12,12,0,0,1,76.29,146.1Z"/><path class="cls-44" d="M77,146.1a11.3,11.3,0,1,1,11.3,11.3A11.3,11.3,0,0,1,77,146.1Z"/><path class="cls-45" d="M77.86,146.1a10.39,10.39,0,1,1,10.39,10.38A10.39,10.39,0,0,1,77.86,146.1Z"/><path class="cls-14" d="M80.69,146.1a7.56,7.56,0,1,1,7.56,7.56A7.55,7.55,0,0,1,80.69,146.1Z"/><path class="cls-15" d="M81.11,146.1a7.14,7.14,0,1,1,7.14,7.14A7.14,7.14,0,0,1,81.11,146.1Z"/><path class="cls-46" d="M84.24,146.1a4,4,0,1,1,4,4A4,4,0,0,1,84.24,146.1Z"/><path class="cls-47" d="M85.33,146.1A2.92,2.92,0,1,1,88.25,149,2.92,2.92,0,0,1,85.33,146.1Z"/><path class="cls-18" d="M87.12,137a1.16,1.16,0,1,0,1.13-.89A1,1,0,0,0,87.12,137Z"/><path class="cls-18" d="M87.12,155.07a1.17,1.17,0,1,0,1.13-.88A1,1,0,0,0,87.12,155.07Z"/><path class="cls-18" d="M92.64,138.07a1.17,1.17,0,1,0,1.44,0A1,1,0,0,0,92.64,138.07Z"/><path class="cls-18" d="M82,152.68a1.17,1.17,0,1,0,1.43-.05A1,1,0,0,0,82,152.68Z"/><path class="cls-18" d="M96.49,142.18a1.16,1.16,0,1,0,1.19.8A1,1,0,0,0,96.49,142.18Z"/><path class="cls-18" d="M79.31,147.76a1.16,1.16,0,0,0,.7,2.15,1,1,0,0,0,.49-1.35A1,1,0,0,0,79.31,147.76Z"/><path class="cls-18" d="M97.18,147.76a1.16,1.16,0,1,0,.5,1.35A1,1,0,0,0,97.18,147.76Z"/><path class="cls-18" d="M80,142.18a1.16,1.16,0,1,0,.49,1.35A1,1,0,0,0,80,142.18Z"/><path class="cls-18" d="M94.47,152.68a1,1,0,0,0-1.44-.05,1,1,0,0,0-.39,1.38,1.17,1.17,0,0,0,1.83-1.33Z"/><path class="cls-18" d="M83.86,138.07a1.17,1.17,0,1,0-.4,1.39A1,1,0,0,0,83.86,138.07Z"/><path class="cls-48" d="M90.94,140.38a.89.89,0,1,1-.89-.89A.89.89,0,0,1,90.94,140.38Z"/><path class="cls-20" d="M90.79,140.38a.74.74,0,1,1-.74-.74A.74.74,0,0,1,90.79,140.38Z"/><path class="cls-49" d="M90.72,140.38a.67.67,0,1,1-.67-.67A.67.67,0,0,1,90.72,140.38Z"/><path class="cls-50" d="M93.87,142.51a.89.89,0,1,1-.89-.89A.89.89,0,0,1,93.87,142.51Z"/><path class="cls-20" d="M93.73,142.51a.75.75,0,1,1-.75-.74A.74.74,0,0,1,93.73,142.51Z"/><path class="cls-51" d="M93.65,142.51a.67.67,0,1,1-.67-.67A.67.67,0,0,1,93.65,142.51Z"/><path class="cls-52" d="M95,146a.89.89,0,1,1-.88-.89A.89.89,0,0,1,95,146Z"/><path class="cls-20" d="M94.85,146a.75.75,0,1,1-.74-.74A.74.74,0,0,1,94.85,146Z"/><path class="cls-53" d="M94.77,146a.66.66,0,0,1-.66.67.67.67,0,1,1,0-1.34A.66.66,0,0,1,94.77,146Z"/><path class="cls-54" d="M84.38,142.51a.89.89,0,1,1-.89-.89A.89.89,0,0,1,84.38,142.51Z"/><path class="cls-20" d="M84.23,142.51a.74.74,0,1,1-.74-.74A.74.74,0,0,1,84.23,142.51Z"/><path class="cls-55" d="M84.16,142.51a.67.67,0,1,1-.67-.67A.67.67,0,0,1,84.16,142.51Z"/><path class="cls-56" d="M93.87,148.94a.89.89,0,1,1-.89-.88A.88.88,0,0,1,93.87,148.94Z"/><path class="cls-20" d="M93.73,148.94a.75.75,0,1,1-.75-.74A.75.75,0,0,1,93.73,148.94Z"/><path class="cls-57" d="M93.65,148.94a.67.67,0,1,1-.67-.66A.67.67,0,0,1,93.65,148.94Z"/><path class="cls-58" d="M84.38,148.94a.89.89,0,1,1-.89-.88A.89.89,0,0,1,84.38,148.94Z"/><path class="cls-20" d="M84.23,148.94a.74.74,0,1,1-.74-.74A.75.75,0,0,1,84.23,148.94Z"/><path class="cls-59" d="M84.16,148.94a.67.67,0,1,1-.67-.66A.67.67,0,0,1,84.16,148.94Z"/><path class="cls-60" d="M83.26,146a.89.89,0,1,1-.89-.89A.89.89,0,0,1,83.26,146Z"/><path class="cls-20" d="M83.11,146a.74.74,0,1,1-.74-.74A.74.74,0,0,1,83.11,146Z"/><path class="cls-61" d="M83,146a.67.67,0,1,1-.67-.67A.67.67,0,0,1,83,146Z"/><path class="cls-62" d="M87.35,140.38a.89.89,0,1,1-.89-.89A.89.89,0,0,1,87.35,140.38Z"/><path class="cls-20" d="M87.21,140.38a.75.75,0,0,1-.75.74.74.74,0,0,1,0-1.48A.75.75,0,0,1,87.21,140.38Z"/><path class="cls-63" d="M87.13,140.38a.67.67,0,1,1-.67-.67A.67.67,0,0,1,87.13,140.38Z"/><path class="cls-64" d="M90.94,151.48a.89.89,0,1,1-.89-.88A.89.89,0,0,1,90.94,151.48Z"/><path class="cls-20" d="M90.79,151.48a.74.74,0,1,1-1.48,0,.74.74,0,0,1,1.48,0Z"/><path class="cls-65" d="M90.72,151.48a.67.67,0,1,1-.67-.66A.67.67,0,0,1,90.72,151.48Z"/><path class="cls-66" d="M87.35,151.48a.89.89,0,1,1-1.77,0,.89.89,0,0,1,1.77,0Z"/><path class="cls-20" d="M87.21,151.48a.76.76,0,0,1-.75.75.75.75,0,0,1-.74-.75.74.74,0,0,1,.74-.74A.75.75,0,0,1,87.21,151.48Z"/><path class="cls-67" d="M87.13,151.48a.67.67,0,1,1-.67-.66A.67.67,0,0,1,87.13,151.48Z"/><rect class="cls-68" x="193.31" y="124.45" width="42.66" height="24.38"/><rect class="cls-69" x="222.68" y="123.77" width="3.3" height="25.8"/><rect class="cls-70" x="225.98" y="124.45" width="0.47" height="24.38"/><rect class="cls-70" x="222.21" y="124.45" width="0.47" height="24.38"/><rect class="cls-71" x="201.49" y="123.77" width="3.29" height="25.8"/><rect class="cls-70" x="204.78" y="124.45" width="0.47" height="24.38"/><rect class="cls-70" x="201.02" y="124.45" width="0.47" height="24.38"/><rect class="cls-2" x="114.56" y="144.08" width="0.81" height="14.54"/><path class="cls-72" d="M161.5,144.37c0-.05,0-.1,0-.15a22.24,22.24,0,0,0-44.48,0v.15h-3.27v-.15c0-13.79,11.42-25,25.51-25s25.51,11.19,25.51,25c0,.05,0,.1,0,.15Z"/><path class="cls-73" d="M139.27,119.24c14.09,0,25.51,11.19,25.51,25,0,.05,0,.1,0,.15h-.53v-.15c0-13.5-11.18-24.45-25-24.45s-25,11-25,24.45c0,.05,0,.1,0,.15h-.54v-.15C113.76,130.43,125.18,119.24,139.27,119.24Z"/><path class="cls-74" d="M110.48,144.37c0-.05,0-.1,0-.15a22.24,22.24,0,0,0-44.48,0v.15H62.74v-.15c0-13.79,11.42-25,25.51-25s25.51,11.19,25.51,25c0,.05,0,.1,0,.15Z"/><path class="cls-75" d="M88.25,119.24c14.09,0,25.51,11.19,25.51,25,0,.05,0,.1,0,.15h-.53v-.15c0-13.5-11.18-24.45-25-24.45s-25,11-25,24.45c0,.05,0,.1,0,.15h-.54v-.15C62.74,130.43,74.16,119.24,88.25,119.24Z"/><polygon class="cls-4" points="59.25 136.13 56.04 146.1 35.11 149.02 35.11 145.96 54.72 137.76 59.25 136.13"/><path class="cls-4" d="M52.89,134.8a3.75,3.75,0,1,1,3.75,3.75A3.74,3.74,0,0,1,52.89,134.8Z"/><rect class="cls-4" x="33.31" y="144.44" width="2.18" height="5.33"/><rect class="cls-4" x="262.73" y="130.97" width="9.22" height="6.79"/><rect class="cls-6" x="181.45" y="125.01" width="8.43" height="19.36"/><rect class="cls-6" x="171.88" y="125.01" width="8.44" height="19.36"/><path class="cls-4" d="M323.18,137.76H272s1.62-17.51,7.33-24.21,24.72-6.33,30-5.13S323.18,137.76,323.18,137.76Z"/><polygon class="cls-2" points="342.79 148.66 326.54 148.66 326.54 149.12 330.56 150.65 338.69 150.65 342.79 149.01 342.79 148.66"/><polygon class="cls-2" points="344.35 142.51 342.79 148.66 341.94 148.98 342.97 144.07 342.44 142.51 344.35 142.51"/><polygon class="cls-2" points="324.93 142.51 326.48 148.66 327.33 148.98 326.3 144.07 326.83 142.51 324.93 142.51"/><rect class="cls-2" x="272.48" y="146.85" width="0.43" height="11.36"/><path class="cls-76" d="M268.68,132.72a95.83,95.83,0,0,1,1.38-10.12l1.46-.49,1.81-5,1.29-1.81h-1.5V113.2H270.7l2.13-4.23V91.18h2.36l.45-18.4s1-18.84,1.13-23.26,1.35-11.28,2-12.63,3-1.94,9.74-1.68,23.79,1.2,29.26,1.65,14.87,1.27,18.46,2.17a11.28,11.28,0,0,1,5,2.3s4,.44,5.42,2.68,3,8.17,3,8.17l-2,.41-2.7-2s2.43,7.45,4,14.38,3,17.16,3,17.16l1.28,2.1a1.92,1.92,0,0,1,.6,1.12,3.78,3.78,0,0,1-.45,1.38l.75,9.59h.56l.15,2.44h-.56l0,1.5h-.29l-.06.9a39.79,39.79,0,0,1,.7,5.27c.22,3.11.22,6.19.22,6.19l-.47,1.39.22,3.14-1.76.19v3.8l1.41,2.17a31,31,0,0,1,.16,5.19c-.09,3.61-.09,11.4-.09,11.4a32.25,32.25,0,0,0,1.54-3.2c.22-.76.74-1.76,1.66-1.64s.5,2.14-.31,4-1.32,3.17-3.65,3.39-8.94.26-8.94.26H324.94l-.23-1.88h-4.12l-.71-3.93s-2.36-9.4-5.09-14.76-6.67-10.71-14.57-10.82H287.67c-1.95,0-5.21,1.42-6.29,1.94,0,0-3.45,7.12-4.35,9.07a66.77,66.77,0,0,0-3.37,13.41,94.39,94.39,0,0,0-.75,11.43H268S268.19,138.45,268.68,132.72Z"/><path class="cls-77" d="M270.7,113.2l3.21-6.38c4.28,0,19.84.06,25.9,0,7.06-.08,12.1,1.67,16.23,7.18s8.58,22.78,8.58,22.78h.3s-3.93-15.62-8.25-22.9a18,18,0,0,0-9.12-7.45h0l36.2.76v-1.49L301,104.94c-.38,0-.74,0-1.07,0-4.08.11-25.06,0-25.06,0l.78-32.14s1-18.84,1.13-23.26a59.48,59.48,0,0,1,1-8.55c3.52-2.4,9.67-2.23,14.78-2.16,6.67.08,35.48,2,41.67,2.54s8.26,6.81,8.26,6.81L345,50.61s2.43,7.45,4,14.38,3,17.16,3,17.16l1.28,2.1a1.92,1.92,0,0,1,.6,1.12,3.78,3.78,0,0,1-.45,1.38l.75,9.59h.56l.15,2.44h-.56l0,1.5h-.29l-.06.9-1-1.59h-9.17l.86,1.39,9.29.2a39.79,39.79,0,0,1,.7,5.27c.22,3.11.22,6.19.22,6.19l-.47,1.39.22,3.14-1.76.19v3.8l-.77-1.55h-8.41l.44,3.09h8.35a7.41,7.41,0,0,1,1.76.56l0,.07a31,31,0,0,1,.16,5.19c-.09,3.61-.09,11.4-.09,11.4a32.25,32.25,0,0,0,1.54-3.2c.22-.76.74-1.76,1.66-1.64s.5,2.14-.31,4-1.32,3.17-3.65,3.39-8.94.26-8.94.26H324.94l-.23-1.88h-4.12l-.71-3.93s-2.36-9.4-5.09-14.76-6.67-10.71-14.57-10.82H287.67c-1.95,0-5.21,1.42-6.29,1.94,0,0-2.73,5.63-4,8.25h-4.29l3.9-8.36Zm76.17-29-1.37-2.59s-56.07-4-56.57-4-2.69.1-2.64-3.19.17-29.4.17-29.4l-2-1.67s-.7,29.1-.6,31.27-.76,4.76,4.31,5.35S346.87,84.15,346.87,84.15Z"/><path class="cls-78" d="M270.7,113.2l3.21-6.38c4.28,0,19.84.06,25.9,0,7.06-.08,12.1,1.67,16.23,7.18s8.58,22.78,8.58,22.78h.3s-3.93-15.62-8.25-22.9a18,18,0,0,0-9.12-7.45h0l36.2.76v-1.49L301,104.94c-.38,0-.74,0-1.07,0-4.08.11-25.06,0-25.06,0l.78-32.14s1-18.84,1.13-23.26a59.48,59.48,0,0,1,1-8.55c3.52-2.4,9.67-2.23,14.78-2.16,6.67.08,35.48,2,41.67,2.54s8.26,6.81,8.26,6.81L345,50.61s2.43,7.45,4,14.38,3,17.16,3,17.16l1.28,2.1a1.92,1.92,0,0,1,.6,1.12,3.78,3.78,0,0,1-.45,1.38l.75,9.59h.56l.15,2.44h-.56l0,1.5h-.29l-.06.9-1-1.59h-9.17l.86,1.39,9.29.2a39.79,39.79,0,0,1,.7,5.27c.22,3.11.22,6.19.22,6.19l-.47,1.39.22,3.14-1.76.19v3.8l-.77-1.55h-8.41l.44,3.09h8.35a7.41,7.41,0,0,1,1.76.56l0,.07a31,31,0,0,1,.16,5.19c-.09,3.61-.09,11.4-.09,11.4a32.25,32.25,0,0,0,1.54-3.2c.22-.76.74-1.76,1.66-1.64s.5,2.14-.31,4-1.32,3.17-3.65,3.39-8.94.26-8.94.26H324.94l-.23-1.88h-4.12l-.71-3.93s-2.36-9.4-5.09-14.76-6.67-10.71-14.57-10.82H287.67c-1.95,0-5.21,1.42-6.29,1.94,0,0-2.73,5.63-4,8.25h-4.29l3.9-8.36Zm76.17-29-1.37-2.59s-56.07-4-56.57-4-2.69.1-2.64-3.19.17-29.4.17-29.4l-2-1.67s-.7,29.1-.6,31.27-.76,4.76,4.31,5.35S346.87,84.15,346.87,84.15Z"/><path class="cls-79" d="M270.06,122.6h6.87a69.15,69.15,0,0,0-3.27,13.19,94.39,94.39,0,0,0-.75,11.43H268s.15-8.77.64-14.5A95.83,95.83,0,0,1,270.06,122.6Z"/><path class="cls-79" d="M270.06,122.6h6.87a69.15,69.15,0,0,0-3.27,13.19,94.39,94.39,0,0,0-.75,11.43H268s.15-8.77.64-14.5A95.83,95.83,0,0,1,270.06,122.6Z"/><path class="cls-70" d="M276.78,122.27c.83-1.79,3.84-8,4.29-9l-4.11,0,.07-.15H270.7l.28-.56h11l.05.06a16.82,16.82,0,0,1,5.59-1.6h12.55c8.22.11,12.23,5.92,14.81,11,2.72,5.32,5.09,14.72,5.11,14.82l.68,3.72,0,.27h-.26l-.71-3.93s-2.36-9.4-5.09-14.76-6.67-10.71-14.57-10.82H287.67c-1.95,0-5.21,1.42-6.29,1.94,0,0-3.45,7.12-4.35,9.07a66.77,66.77,0,0,0-3.37,13.41,94.39,94.39,0,0,0-.75,11.43l-.27-.27a95.07,95.07,0,0,1,.75-11.2A66.63,66.63,0,0,1,276.78,122.27Z"/><path class="cls-70" d="M316.67,113.87a18,18,0,0,0-9.12-7.45h0l2.49,0c1.65.88,5.33,3.09,7,6.2h26.8v1.78H317C316.9,114.25,316.79,114.06,316.67,113.87Z"/><polygon class="cls-70" points="354.51 114.45 343.88 114.45 344.74 112.72 354.95 112.64 354.48 114.03 354.51 114.45"/><path class="cls-80" d="M344.2,122.7l-.44-3.09h8.41l.77,1.55,1.37,2.1a7.41,7.41,0,0,0-1.76-.56Z"/><rect class="cls-81" x="343.76" y="114.45" width="8.41" height="5.16"/><polygon class="cls-82" points="352.17 119.61 352.17 114.45 354.51 114.44 354.7 117.17 352.94 117.36 352.94 121.16 352.17 119.61"/><polygon class="cls-77" points="344.74 100.98 344.74 112.72 343.88 114.45 343.88 99.59 344.74 100.98"/><path class="cls-83" d="M354.73,106.45c.22,3.11.22,6.19.22,6.19l-10.21.08V101l9.29.2A39.79,39.79,0,0,1,354.73,106.45Z"/><path class="cls-84" d="M352.55,122.7a7.41,7.41,0,0,1,1.76.56l0,.07a31,31,0,0,1,.16,5.19c-.08,3.06-.09,9.14-.09,10.91l-.11.6H343.88l.32-17.33Z"/><polygon class="cls-70" points="275.03 97.67 343.88 98.96 343.88 100.1 275 98.89 275.03 97.67"/><path class="cls-85" d="M284.41,43.3s-.7,29.1-.6,31.27-.76,4.76,4.31,5.35,58.75,4.23,58.75,4.23l-1.37-2.59s-56.07-4-56.57-4-2.69.1-2.64-3.19.17-29.4.17-29.4Z"/><path class="cls-70" d="M341.46,46.64A26.87,26.87,0,0,0,331.07,44c-5.81-.22-46.66-.7-46.66-.7l2,1.67,45,.47S339.5,45.79,341.46,46.64Z"/><polygon class="cls-2" points="352.94 117.36 352.94 121.16 352.17 119.61 352.17 117.03 352.94 117.36"/><rect class="cls-2" x="325.32" y="132.34" width="17.88" height="1.33"/><path class="cls-86" d="M320.33,122h23.76l.11.74-.18,9.64H323.71C322.89,129.49,321.71,125.65,320.33,122Z"/><path class="cls-87" d="M319.58,120h24.24l.27,1.95H320.33Q320,121,319.58,120Z"/><polygon class="cls-70" points="343.76 139.91 344.2 139.91 344.2 122.7 344.09 121.96 343.76 121.96 343.76 139.91"/><path class="cls-2" d="M324.72,136h19v2.77H324.82l.1-2S324.85,136.48,324.72,136Z"/><polygon class="cls-88" points="343.88 98.96 340.24 98.88 341.02 83.75 346.87 84.14 353.45 86.75 354.2 96.34 354.76 96.34 354.91 98.78 354.35 98.78 354.38 100.28 354.09 100.28 354.03 101.17 353.05 99.59 343.88 99.59 343.88 98.96"/><path class="cls-2" d="M319.88,137s0-.06,0-.17h5.08l-.1,2-.11,2.14h-4.12Z"/><path class="cls-2" d="M354.42,139.48v.44a32.25,32.25,0,0,0,1.54-3.2c.22-.76.74-1.76,1.66-1.64l.09,0c-.24.67-1.66,4.62-2.48,5.6s-3.23,1-5.73,1.08-4.71,0-4.71,0V140h9.52Z"/><path class="cls-70" d="M343.76,138.74v1.17h10.66a32.25,32.25,0,0,0,1.54-3.2c.22-.76.74-1.76,1.66-1.64s.5,2.14-.31,4-1.32,3.17-3.65,3.39-8.94.26-8.94.26H324.94l-.23-1.88.11-2.14Z"/><path class="cls-89" d="M336.91,50.89l6.3,30.5v2.75L344,99v1.14l-.12,19.51h-.24l.12-19.51V99L343,84.15V81.42L336.68,51c0-.05-1.58-5.35-7-5.41L300,45.23v66.14h-.24V45l29.87.31C335.28,45.36,336.89,50.83,336.91,50.89Z"/><path class="cls-89" d="M330.4,38.08l.21,2.62.58,3.28L331,44l-.58-3.29-.21-2.68Z"/><path class="cls-90" d="M301.72,100.1h9.2a.9.9,0,0,1,.9.9v2.71a.9.9,0,0,1-.9.9h-9.2a.91.91,0,0,1-.9-.9V101A.9.9,0,0,1,301.72,100.1Zm.78,3a.63.63,0,0,0,0-1.26.63.63,0,1,0,0,1.26Z"/><rect class="cls-91" x="303.99" y="100.79" width="6.63" height="3.16"/><path class="cls-92" d="M342.07,47.21a7.87,7.87,0,0,1-.27-.92c2.23,2.22,5.65,3,7.13,3.26.46,1.48.77,2.63.77,2.63l-2,.41-2.7-2A9.09,9.09,0,0,1,342.07,47.21Z"/><path class="cls-93" d="M346.67,44c1.46,2.25,3,8.17,3,8.17l-2,.41-2.7-2a9.09,9.09,0,0,1-2.95-3.4,24.78,24.78,0,0,1-.82-5.88S345.21,41.77,346.67,44Z"/><polygon class="cls-87" points="274.86 104.92 272.83 108.97 272.83 91.18 275.19 91.18 274.86 104.92"/><polygon class="cls-87" points="273.12 113.2 277.03 113.2 273.13 121.56 271.52 122.11 273.33 117.08 274.62 115.27 273.12 115.27 273.12 113.2"/><path class="cls-70" d="M349,132.16v-5.83a1.8,1.8,0,0,1,1.79-1.8h3.63c.06.84.1,2.15.05,4,0,1.41-.06,3.46-.07,5.44h-3.61A1.8,1.8,0,0,1,349,132.16Z"/><path class="cls-70" d="M351.05,136.34c-.15-1.47.88-1.27.88-1.27h2.5c0,1.45,0,2.77,0,3.67h-1.57C351.72,138.74,351.2,137.8,351.05,136.34Z"/><path class="cls-94" d="M350.83,124.53h1.89a2,2,0,0,1,.22.92v7.07a2.87,2.87,0,0,1-.54,1.44h-1.57a1.8,1.8,0,0,1-1.79-1.8v-5.83A1.8,1.8,0,0,1,350.83,124.53Z"/><path class="cls-2" d="M339,46.65c.83.12,2,.35,3.07.56h0a9.09,9.09,0,0,0,2.95,3.4s2.43,7.45,4,14.38,3,17.16,3,17.16l1.28,2.1a1.92,1.92,0,0,1,.6,1.12,3.78,3.78,0,0,1-.45,1.38,9,9,0,0,1-4.41-.44,22.89,22.89,0,0,1-3.86-2.65S342.84,69.6,342,65.39s-3-13.82-3.28-14.75S337.24,46.41,339,46.65Z"/><rect class="cls-89" x="269.1" y="142.54" width="3.19" height="1.39" rx="0.46"/><rect class="cls-5" x="269.1" y="142.37" width="3.19" height="1.39" rx="0.46"/><path class="cls-95" d="M272.16,143.5V143a.47.47,0,0,0-.46-.46h-2.27a.45.45,0,0,0-.3.12.46.46,0,0,1,.43-.32h2.27a.46.46,0,0,1,.46.46v.47a.47.47,0,0,1-.15.34A.59.59,0,0,0,272.16,143.5Z"/><rect class="cls-89" x="344.77" y="125.76" width="3.19" height="1.39" rx="0.46"/><rect class="cls-5" x="344.77" y="125.59" width="3.19" height="1.39" rx="0.46"/><path class="cls-95" d="M347.83,126.72v-.47a.47.47,0,0,0-.46-.46H345.1a.47.47,0,0,0-.3.12.47.47,0,0,1,.44-.32h2.26a.46.46,0,0,1,.46.46v.47a.47.47,0,0,1-.15.34A.59.59,0,0,0,347.83,126.72Z"/><path class="cls-96" d="M352,82.15s-4.06.08-4.72-2.26-2.75-13.41-3.52-17.45-2.07-9.22-2.35-10.26-.27-1.68.38-1.61,3.21,0,3.21,0,2.43,7.45,4,14.38S352,82.15,352,82.15Z"/><path class="cls-2" d="M305.31,49.42a3.15,3.15,0,0,0-3.17,3.15v21.3a3.45,3.45,0,0,0,3.16,3.39l31.07,2.09a2.3,2.3,0,0,0,2.53-2.9L334,52.79a4.11,4.11,0,0,0-3.82-3.14Z"/><path class="cls-92" d="M336.59,78.45a1.47,1.47,0,0,0,1.18-.49,1.56,1.56,0,0,0,.24-1.33L333.09,53a3.22,3.22,0,0,0-2.95-2.42l-24.84-.23A2.25,2.25,0,0,0,303,52.57v21.3a2.55,2.55,0,0,0,2.33,2.49l31.06,2.09Z"/><path class="cls-97" d="M305.3,50.32l24.84.23A3.22,3.22,0,0,1,333.09,53l1.76,8.43C328.22,60,314.58,57.3,303,56V52.57A2.25,2.25,0,0,1,305.3,50.32Z"/><path class="cls-98" d="M276.25,146.1a21.09,21.09,0,1,1,21.09,21.09A21.09,21.09,0,0,1,276.25,146.1Z"/><path class="cls-8" d="M277.89,146.1a19.46,19.46,0,1,1,19.45,19.45A19.45,19.45,0,0,1,277.89,146.1Z"/><path class="cls-99" d="M282.21,146.1a15.13,15.13,0,1,1,15.13,15.13A15.13,15.13,0,0,1,282.21,146.1Z"/><circle class="cls-100" cx="297.34" cy="146.1" r="13.74" transform="translate(145.88 440.74) rotate(-88.96)"/><path class="cls-101" d="M285.39,146.1a12,12,0,1,1,11.95,12A12,12,0,0,1,285.39,146.1Z"/><path class="cls-102" d="M286,146.1a11.31,11.31,0,1,1,11.3,11.3A11.3,11.3,0,0,1,286,146.1Z"/><path class="cls-103" d="M287,146.1a10.39,10.39,0,1,1,10.38,10.38A10.39,10.39,0,0,1,287,146.1Z"/><path class="cls-102" d="M289.78,146.1a7.57,7.57,0,1,1,7.56,7.56A7.56,7.56,0,0,1,289.78,146.1Z"/><path class="cls-104" d="M290.21,146.1a7.14,7.14,0,1,1,7.13,7.14A7.14,7.14,0,0,1,290.21,146.1Z"/><path class="cls-105" d="M292.79,146.1a4.56,4.56,0,1,1,4.55,4.55A4.56,4.56,0,0,1,292.79,146.1Z"/><path class="cls-102" d="M293.33,146.1a4,4,0,1,1,4,4A4,4,0,0,1,293.33,146.1Z"/><path class="cls-18" d="M296.21,137a1.17,1.17,0,1,0,1.13-.89A1,1,0,0,0,296.21,137Z"/><path class="cls-18" d="M296.21,155.07a1.17,1.17,0,1,0,1.13-.88A1,1,0,0,0,296.21,155.07Z"/><path class="cls-18" d="M301.74,138.07a1,1,0,0,0,.39,1.38.91.91,0,1,0-.39-1.38Z"/><path class="cls-18" d="M291.12,152.68a1.16,1.16,0,1,0,1.44-.05A1,1,0,0,0,291.12,152.68Z"/><path class="cls-18" d="M305.58,142.18a1.16,1.16,0,1,0,1.19.8A1,1,0,0,0,305.58,142.18Z"/><path class="cls-18" d="M288.41,147.76a1,1,0,0,0-.5,1.35.91.91,0,1,0,.5-1.35Z"/><path class="cls-18" d="M306.28,147.76a1.16,1.16,0,1,0,.49,1.35A1,1,0,0,0,306.28,147.76Z"/><path class="cls-18" d="M289.11,142.18a1.16,1.16,0,1,0,.49,1.35A1,1,0,0,0,289.11,142.18Z"/><path class="cls-18" d="M303.57,152.68a1,1,0,0,0-1.44-.05.91.91,0,1,0,1.44.05Z"/><path class="cls-18" d="M293,138.07a1,1,0,0,0-1.43,0,.91.91,0,1,0,1.43,0Z"/><path class="cls-106" d="M304.09,146a.89.89,0,1,1-.89-.89A.89.89,0,0,1,304.09,146Z"/><path class="cls-20" d="M303.94,146a.74.74,0,1,1-.74-.74A.74.74,0,0,1,303.94,146Z"/><path class="cls-107" d="M303.87,146a.67.67,0,1,1-.67-.67A.67.67,0,0,1,303.87,146Z"/><path class="cls-108" d="M303,142.51a.89.89,0,1,1-.89-.89A.89.89,0,0,1,303,142.51Z"/><path class="cls-20" d="M302.82,142.51a.74.74,0,1,1-.74-.74A.74.74,0,0,1,302.82,142.51Z"/><path class="cls-109" d="M302.75,142.51a.67.67,0,1,1-.67-.67A.67.67,0,0,1,302.75,142.51Z"/><path class="cls-110" d="M300,140.38a.89.89,0,1,1-.88-.89A.89.89,0,0,1,300,140.38Z"/><circle class="cls-20" cx="299.15" cy="140.38" r="0.74"/><path class="cls-111" d="M299.82,140.38a.67.67,0,1,1-.67-.67A.67.67,0,0,1,299.82,140.38Z"/><path class="cls-112" d="M296.41,140.38a.89.89,0,1,1-.89-.89A.89.89,0,0,1,296.41,140.38Z"/><path class="cls-20" d="M296.26,140.38a.74.74,0,1,1-.74-.74A.74.74,0,0,1,296.26,140.38Z"/><path class="cls-113" d="M296.19,140.38a.67.67,0,1,1-.67-.67A.67.67,0,0,1,296.19,140.38Z"/><path class="cls-114" d="M293.62,142.51a.89.89,0,1,1-.89-.89A.89.89,0,0,1,293.62,142.51Z"/><path class="cls-20" d="M293.47,142.51a.74.74,0,1,1-.74-.74A.74.74,0,0,1,293.47,142.51Z"/><path class="cls-115" d="M293.4,142.51a.67.67,0,1,1-.67-.67A.67.67,0,0,1,293.4,142.51Z"/><path class="cls-116" d="M293.47,149.41a.89.89,0,0,1-1.77,0,.89.89,0,1,1,1.77,0Z"/><path class="cls-20" d="M293.33,149.41a.74.74,0,1,1-.74-.74A.74.74,0,0,1,293.33,149.41Z"/><path class="cls-117" d="M293.26,149.41a.67.67,0,1,1-.67-.67A.67.67,0,0,1,293.26,149.41Z"/><path class="cls-118" d="M303.11,149.41a.89.89,0,1,1-.89-.89A.88.88,0,0,1,303.11,149.41Z"/><path class="cls-20" d="M303,149.41a.75.75,0,0,1-.75.74.74.74,0,0,1,0-1.48A.75.75,0,0,1,303,149.41Z"/><path class="cls-119" d="M302.89,149.41a.67.67,0,0,1-.67.67.67.67,0,0,1,0-1.34A.67.67,0,0,1,302.89,149.41Z"/><path class="cls-120" d="M296.41,151.54a.89.89,0,1,1-.89-.89A.88.88,0,0,1,296.41,151.54Z"/><path class="cls-20" d="M296.26,151.54a.74.74,0,1,1-.74-.74A.74.74,0,0,1,296.26,151.54Z"/><path class="cls-121" d="M296.19,151.54a.67.67,0,1,1-.67-.67A.67.67,0,0,1,296.19,151.54Z"/><path class="cls-122" d="M300,151.54a.89.89,0,0,1-1.77,0,.89.89,0,1,1,1.77,0Z"/><path class="cls-20" d="M299.89,151.54a.74.74,0,1,1-.74-.74A.74.74,0,0,1,299.89,151.54Z"/><path class="cls-123" d="M299.82,151.54a.67.67,0,1,1-.67-.67A.67.67,0,0,1,299.82,151.54Z"/><path class="cls-124" d="M292.35,146a.89.89,0,1,1-.88-.89A.88.88,0,0,1,292.35,146Z"/><path class="cls-20" d="M292.21,146a.74.74,0,0,1-.74.74.74.74,0,1,1,0-1.48A.74.74,0,0,1,292.21,146Z"/><path class="cls-125" d="M292.14,146a.67.67,0,1,1-.67-.67A.68.68,0,0,1,292.14,146Z"/><rect class="cls-126" x="349.04" y="125.95" width="3.52" height="6.39"/><rect class="cls-127" x="349.04" y="127.15" width="2.9" height="4.22"/><path class="cls-128" d="M350.83,124.53h1.89a2,2,0,0,1,.22.92v7.07a2.87,2.87,0,0,1-.54,1.44h-1.57a1.8,1.8,0,0,1-1.79-1.8v-5.83A1.8,1.8,0,0,1,350.83,124.53Z"/><path class="cls-2" d="M335.22,84.69a.86.86,0,0,1-.68-.68c-.07-.57-.73-3.83-.73-3.83h-1.43s0,5.7.13,6.54.26,1.25,1.12,1.4a4.44,4.44,0,0,0,1.59,0Z"/><path class="cls-2" d="M334.28,50.17V48.79H333a2.51,2.51,0,0,0-.91,1.87c-.16,1.41-.7,5.08-.7,5.08h1.45s.53-4.06.66-4.74A1.12,1.12,0,0,1,334.28,50.17Z"/><rect class="cls-2" x="328.54" y="55.28" width="6.15" height="25.16" rx="1.8"/><rect class="cls-129" x="329.76" y="55.28" width="6.15" height="25.16" rx="1.8"/><rect class="cls-76" width="264.38" height="117.73"/><rect class="cls-76" x="2.5" width="259.19" height="106.79"/><rect class="cls-130" x="2.59" y="5.22" width="259.19" height="100.95"/><rect class="cls-77" y="1.79" width="264.38" height="3.42"/><rect class="cls-77" x="2.59" y="108.36" width="259.19" height="2.82"/><rect class="cls-87" x="2.59" y="106.17" width="259.19" height="0.37"/><rect class="cls-77" x="2.59" y="114.91" width="259.19" height="2.82"/><rect class="cls-131" x="2.5" y="111.18" width="259.19" height="3.71"/><rect class="cls-131" x="2.5" y="113.67" width="259.19" height="1.23"/><rect class="cls-131" y="5.22" width="2.59" height="112.51"/><rect class="cls-131" x="261.79" y="5.22" width="2.6" height="112.51"/><rect class="cls-132" x="241.38" y="117.73" width="1.69" height="19.9"/><rect class="cls-133" x="180.6" y="117.73" width="1.69" height="21.01"/><rect class="cls-134" x="166.75" y="124.59" width="86.64" height="6.23"/><rect class="cls-135" x="166.75" y="129.34" width="86.64" height="0.16"/><rect class="cls-136" x="166.75" y="126.29" width="86.64" height="3.04"/><rect class="cls-137" x="166.75" y="135.84" width="86.64" height="6.23"/><rect class="cls-138" x="166.75" y="140.59" width="86.64" height="0.16"/><rect class="cls-139" x="166.75" y="137.54" width="86.64" height="3.04"/><rect class="cls-140" x="248.56" y="113.32" width="3.06" height="1.65"/><rect class="cls-141" x="248.56" y="99.59" width="3.06" height="5.22"/><rect class="cls-142" x="248.85" y="100.8" width="2.41" height="13.65"/><rect class="cls-143" x="248.85" y="109" width="2.41" height="5.45"/><rect class="cls-144" x="248.85" y="104.8" width="2.41" height="2.83"/><rect class="cls-140" x="222.73" y="113.32" width="3.06" height="1.65"/><rect class="cls-145" x="222.73" y="99.59" width="3.06" height="5.22"/><rect class="cls-146" x="223.02" y="100.8" width="2.41" height="13.65"/><rect class="cls-143" x="223.02" y="109" width="2.41" height="5.45"/><rect class="cls-144" x="223.02" y="104.8" width="2.41" height="2.83"/><rect class="cls-140" x="196.9" y="113.32" width="3.06" height="1.65"/><rect class="cls-147" x="196.9" y="99.59" width="3.06" height="5.22"/><rect class="cls-148" x="197.19" y="100.8" width="2.41" height="13.65"/><rect class="cls-143" x="197.19" y="109" width="2.41" height="5.45"/><rect class="cls-144" x="197.19" y="104.8" width="2.41" height="2.83"/><rect class="cls-140" x="171.07" y="113.32" width="3.06" height="1.65"/><rect class="cls-149" x="171.07" y="99.59" width="3.06" height="5.22"/><rect class="cls-150" x="171.36" y="100.8" width="2.41" height="13.65"/><rect class="cls-143" x="171.36" y="109" width="2.41" height="5.45"/><rect class="cls-144" x="171.36" y="104.8" width="2.41" height="2.83"/><rect class="cls-140" x="145.24" y="113.32" width="3.06" height="1.65"/><rect class="cls-151" x="145.24" y="99.59" width="3.06" height="5.22"/><rect class="cls-152" x="145.54" y="100.8" width="2.41" height="13.65"/><rect class="cls-143" x="145.54" y="109" width="2.41" height="5.45"/><rect class="cls-144" x="145.54" y="104.8" width="2.41" height="2.83"/><rect class="cls-140" x="119.42" y="113.32" width="3.06" height="1.65"/><rect class="cls-153" x="119.42" y="99.59" width="3.06" height="5.22"/><rect class="cls-154" x="119.71" y="100.8" width="2.41" height="13.65"/><rect class="cls-143" x="119.71" y="109" width="2.41" height="5.45"/><rect class="cls-144" x="119.71" y="104.8" width="2.41" height="2.83"/><rect class="cls-140" x="93.59" y="113.32" width="3.06" height="1.65"/><rect class="cls-155" x="93.59" y="99.59" width="3.06" height="5.22"/><rect class="cls-156" x="93.88" y="100.8" width="2.41" height="13.65"/><rect class="cls-143" x="93.88" y="109" width="2.41" height="5.45"/><rect class="cls-144" x="93.88" y="104.8" width="2.41" height="2.83"/><rect class="cls-140" x="67.76" y="113.32" width="3.06" height="1.65"/><rect class="cls-157" x="67.76" y="99.59" width="3.06" height="5.22"/><rect class="cls-158" x="68.05" y="100.8" width="2.41" height="13.65"/><rect class="cls-143" x="68.05" y="109" width="2.41" height="5.45"/><rect class="cls-144" x="68.05" y="104.8" width="2.41" height="2.83"/><rect class="cls-140" x="41.93" y="113.32" width="3.06" height="1.65"/><rect class="cls-159" x="41.93" y="99.59" width="3.06" height="5.22"/><rect class="cls-160" x="42.22" y="100.8" width="2.41" height="13.65"/><rect class="cls-143" x="42.22" y="109" width="2.41" height="5.45"/><rect class="cls-144" x="42.22" y="104.8" width="2.41" height="2.83"/><rect class="cls-140" x="16.1" y="113.32" width="3.06" height="1.65"/><rect class="cls-161" x="16.1" y="99.59" width="3.06" height="5.22"/><rect class="cls-162" x="16.4" y="100.8" width="2.41" height="13.65"/><rect class="cls-143" x="16.4" y="109" width="2.41" height="5.45"/><rect class="cls-144" x="16.4" y="104.8" width="2.41" height="2.83"/></g></g></g></svg>