<svg width="87" height="87" viewBox="0 0 87 87" fill="none" xmlns="http://www.w3.org/2000/svg">
<circle cx="43.5" cy="43.5" r="43.5" fill="black"/>
<path fill-rule="evenodd" clip-rule="evenodd" d="M43.1729 29.13L53.5897 39.5467L59.6509 33.4855L43.1729 17.0076L26.6886 33.4898L32.7498 39.551L43.1729 29.13ZM63.9313 37.7659L69.9925 43.8271L63.9313 49.8883L57.8701 43.8271L63.9313 37.7659ZM43.1729 58.5242L53.5897 48.1075L59.6595 54.1602L59.6509 54.1687L43.1729 70.6467L26.6886 54.1644L26.6864 54.1602L32.7519 48.1032L43.1729 58.5242ZM22.4146 37.768L28.4758 43.8293L22.4146 49.8905L16.3534 43.8293L22.4146 37.768ZM43.1726 35.8729L35.2237 43.8246H35.2181L35.2209 43.8302L43.1726 51.7819L51.116 43.8357L51.1271 43.8246L51.116 43.8136L49.7237 42.4212L49.0498 41.7473L43.1726 35.8729Z" fill="#F3BA2F"/>
</svg>
