<svg width="87" height="87" viewBox="0 0 87 87" fill="none" xmlns="http://www.w3.org/2000/svg">
<circle cx="43.5" cy="43.5" r="43.5" fill="#2C374B"/>
<path d="M48.8187 41.8259L52.6124 35.3467L62.8362 51.3793L62.841 54.4567L62.8074 33.2843C62.7833 32.7663 62.5109 32.2934 62.0749 32.0143L43.6692 21.3538C43.238 21.1408 42.6931 21.1424 42.2636 21.3603C42.2059 21.3893 42.1514 21.4216 42.0985 21.4555L42.0344 21.4958L24.1687 31.9207L24.0998 31.9529C24.0101 31.9949 23.9203 32.0465 23.8354 32.1079C23.4972 32.3531 23.2712 32.7146 23.1991 33.1197C23.1879 33.181 23.1798 33.2439 23.1766 33.3069L23.2055 50.5595L32.7273 35.6985C33.9262 33.7281 36.5386 33.0939 38.9635 33.1277L41.81 33.2036L25.039 60.2808L27.0152 61.4265L43.9849 33.231L51.4857 33.2036L34.5608 62.1108L41.6145 66.1952L42.4575 66.6825C42.8133 66.8278 43.2348 66.8358 43.5938 66.7051L62.2576 55.8139L58.69 57.8956L48.8203 41.8243L48.8187 41.8259ZM50.266 62.8111L43.1419 51.5536L47.4901 44.1239L56.8468 58.972L50.266 62.8111Z" fill="#2D374B"/>
<path d="M43.1418 51.5535L50.266 62.8111L56.8468 58.9719L47.4917 44.1238L43.1418 51.5535Z" fill="#28A0F0"/>
<path d="M62.8394 54.455L62.8346 51.3776L52.6108 35.345L48.8171 41.8242L58.6868 57.8956L62.2544 55.8138C62.6038 55.5282 62.817 55.107 62.8378 54.6551V54.455H62.8394Z" fill="#28A0F0"/>
<path d="M20 57.3566L25.039 60.2808L41.8068 33.2036L38.9603 33.1277C36.5354 33.0939 33.9229 33.7281 32.7241 35.6985L23.2023 50.5595L20 55.5154V57.3566Z" fill="white"/>
<path d="M51.4857 33.2036L43.9849 33.231L27.0168 61.4266L32.9469 64.8655L34.5608 62.1108L51.4857 33.2036Z" fill="white"/>
<path d="M66 33.1646C65.9375 31.5848 65.088 30.1389 63.7578 29.2981L45.1116 18.5005C43.7958 17.834 42.1514 17.8324 40.8339 18.5005C40.6784 18.5795 22.7006 29.077 22.7006 29.077C22.4522 29.1964 22.2118 29.3401 21.9874 29.503C20.7982 30.3599 20.0753 31.6913 20 33.155V55.5151L23.2039 50.5593L23.175 33.3067C23.1782 33.2437 23.1862 33.1824 23.1974 33.1211C23.2696 32.7144 23.4956 32.3529 23.8337 32.1076C23.9187 32.0463 42.2026 21.3907 42.2619 21.36C42.6915 21.1422 43.238 21.1406 43.6675 21.3536L62.0733 32.014C62.5093 32.2932 62.7817 32.7661 62.8058 33.2841V54.6566C62.7833 55.1101 62.6054 55.5297 62.256 55.8153L58.6883 57.897L56.8468 58.9718L50.266 62.8125L43.5922 66.7065C43.2332 66.8372 42.8133 66.8308 42.4559 66.6839L34.5592 62.1106L32.9469 64.8652L40.0422 68.9787C40.2762 69.1126 40.4861 69.2321 40.6576 69.3289C40.9237 69.479 41.1048 69.579 41.1689 69.6097C41.6737 69.8566 42.3982 70.0002 43.0521 70.0002C43.6515 70.0002 44.2365 69.8889 44.7894 69.671L64.1745 58.3683C65.2868 57.5001 65.9423 56.1913 66 54.7728V33.1646Z" fill="#96BEDC"/>
</svg>
