<svg width="87" height="87" viewBox="0 0 87 87" fill="none" xmlns="http://www.w3.org/2000/svg">
<circle cx="43.5" cy="43.5" r="43.5" fill="#8247E5"/>
<path d="M55.5825 35.8397C54.7194 35.3394 53.6159 35.3394 52.6397 35.8397L45.7637 39.9559L41.0948 42.5715L34.3462 46.6734C33.4831 47.1737 32.3796 47.1737 31.4034 46.6734L26.1261 43.429C25.2631 42.9288 24.6547 41.9283 24.6547 40.8135V34.5819C24.6547 33.5815 25.1499 32.5953 26.1261 31.9664L31.4034 28.8506C32.2664 28.3504 33.37 28.3504 34.3462 28.8506L39.6234 32.095C40.4865 32.5953 41.0948 33.5958 41.0948 34.7106V38.8268L45.7637 36.0827V31.8521C45.7637 30.8516 45.2685 29.8654 44.2923 29.2365L34.4735 23.3752C33.6105 22.8749 32.5069 22.8749 31.5307 23.3752L21.4714 29.3652C20.4952 29.8654 20 30.8659 20 31.8521V43.5576C20 44.5581 20.4952 45.5443 21.4714 46.1732L31.4175 52.0331C32.2806 52.5333 33.3841 52.5333 34.3603 52.0331L41.109 48.0455L45.7778 45.3013L52.5265 41.3137C53.3895 40.8135 54.4931 40.8135 55.4693 41.3137L60.7465 44.4295C61.6096 44.9297 62.2179 45.9302 62.2179 47.045V53.2766C62.2179 54.277 61.7228 55.2632 60.7465 55.8921L55.5966 59.0079C54.7336 59.5081 53.63 59.5081 52.6538 59.0079L47.3624 55.8921C46.4994 55.3918 45.891 54.3914 45.891 53.2766V49.2889L41.2222 52.0331V56.1494C41.2222 57.1498 41.7173 58.136 42.6936 58.7649L52.6397 64.6248C53.5027 65.1251 54.6063 65.1251 55.5825 64.6248L65.5286 58.7649C66.3916 58.2646 67 57.2642 67 56.1494V44.3151C67 43.3147 66.5048 42.3285 65.5286 41.6996L55.5825 35.8397Z" fill="white"/>
</svg>
