<svg width="87" height="87" viewBox="0 0 87 87" fill="none" xmlns="http://www.w3.org/2000/svg">
<circle cx="43.5" cy="43.5" r="43.5" fill="#FF0420"/>
<g clip-path="url(#clip0_217_463)">
<path d="M29.4766 56C26.6916 56 24.4112 55.3523 22.6355 54.057C20.8785 52.7432 20 50.8557 20 48.4315C20 47.9134 20.0561 47.3027 20.1682 46.5625C20.4673 44.8971 20.8972 42.8986 21.4579 40.5485C23.0467 34.1828 27.1589 31 33.7757 31C35.5701 31 37.1963 31.2961 38.6168 31.9067C40.0374 32.4804 41.1589 33.3686 41.9813 34.5529C42.8037 35.7187 43.215 37.1066 43.215 38.7165C43.215 39.1976 43.1589 39.8083 43.0467 40.5485C42.6916 42.6025 42.2804 44.6195 41.7757 46.5625C40.9533 49.7269 39.5514 52.114 37.5327 53.6869C35.5327 55.2413 32.8411 56 29.4766 56ZM29.9813 51.0037C31.2897 51.0037 32.3925 50.6151 33.3084 49.8564C34.243 49.0977 34.9159 47.9319 35.3084 46.3405C35.8505 44.1569 36.2617 42.2694 36.5421 40.641C36.6355 40.1599 36.6916 39.6603 36.6916 39.1421C36.6916 37.0326 35.5888 35.9778 33.3645 35.9778C32.0561 35.9778 30.9346 36.3664 30 37.1251C29.0841 37.8838 28.4299 39.0496 28.0374 40.641C27.6075 42.1954 27.1963 44.0829 26.7664 46.3405C26.6729 46.8031 26.6168 47.2842 26.6168 47.8024C26.5981 49.9489 27.7383 51.0037 29.9813 51.0037Z" fill="white"/>
<path d="M44.8411 55.6669C44.5794 55.6669 44.3925 55.5929 44.243 55.4263C44.1308 55.2413 44.0935 55.0377 44.1308 54.7972L48.972 32.2213C49.0093 31.9622 49.1402 31.7587 49.3645 31.5921C49.5701 31.4256 49.7944 31.3516 50.0374 31.3516H59.3645C61.9626 31.3516 64.0374 31.8882 65.6075 32.943C67.1963 34.0163 68 35.5522 68 37.5692C68 38.1428 67.9252 38.7535 67.7944 39.3826C67.215 42.0473 66.0374 44.0089 64.243 45.2857C62.486 46.5625 60.0748 47.1917 57.0093 47.1917H52.2804L50.6729 54.7972C50.6168 55.0562 50.5047 55.2598 50.2804 55.4263C50.0748 55.5929 49.8505 55.6669 49.6075 55.6669H44.8411ZM57.2523 42.3989C58.243 42.3989 59.0841 42.1399 59.8131 41.6032C60.5608 41.0666 61.0467 40.3079 61.2897 39.3086C61.3645 38.92 61.4019 38.5684 61.4019 38.2724C61.4019 37.6062 61.1963 37.0881 60.8037 36.7365C60.4112 36.3664 59.7196 36.1813 58.7664 36.1813H54.5607L53.2336 42.3989H57.2523Z" fill="white"/>
</g>
<defs>
<clipPath id="clip0_217_463">
<rect width="48" height="25" fill="white" transform="translate(20 31)"/>
</clipPath>
</defs>
</svg>
