<svg width="138" height="52" viewBox="0 0 138 52" fill="none" xmlns="http://www.w3.org/2000/svg">
<g opacity="0.9" filter="url(#filter0_b_217_823)">
<rect width="137.831" height="52" rx="26" fill="white"/>
<path d="M39.5523 26.5408C39.5329 24.3926 41.3104 23.348 41.392 23.2994C40.3852 21.8312 38.8248 21.6306 38.276 21.6146C36.9656 21.4767 35.6942 22.399 35.0264 22.399C34.3454 22.399 33.3168 21.6282 32.209 21.651C30.7831 21.6729 29.4489 22.4985 28.717 23.7807C27.2071 26.3946 28.3333 30.2362 29.7801 32.3494C30.5038 33.3839 31.3493 34.5397 32.4562 34.499C33.5392 34.4543 33.9433 33.8083 35.2503 33.8083C36.545 33.8083 36.9248 34.4989 38.0535 34.4727C39.2158 34.4543 39.9477 33.4334 40.6456 32.3892C41.4819 31.2032 41.818 30.0347 41.8311 29.9749C41.8039 29.9652 39.5742 29.1148 39.5523 26.5408ZM37.4197 20.2246C38.0025 19.4961 38.4008 18.5053 38.2901 17.5C37.4474 17.5374 36.393 18.0828 35.7859 18.7953C35.2488 19.4233 34.769 20.4519 34.8933 21.4194C35.8403 21.4903 36.8122 20.9419 37.4197 20.2246Z" fill="black"/>
<path d="M62.3947 26.322H60.2697V22.888H59.0457V26.22H56.9547V18.111H59.0457V21.069H60.2697V17.822H62.3947V26.322ZM56.2577 22.276C56.2577 24.401 54.7787 25.931 52.6707 25.931C50.5797 25.931 49.1007 24.401 49.1007 22.276C49.1007 20.151 50.5797 18.655 52.6707 18.655C54.7787 18.655 56.2577 20.151 56.2577 22.276ZM51.1237 22.276C51.1237 23.449 51.7697 24.112 52.6707 24.112C53.6227 24.112 54.2517 23.449 54.2517 22.276C54.2517 21.12 53.6227 20.474 52.6707 20.474C51.7697 20.474 51.1237 21.12 51.1237 22.276ZM62.3947 26.968V33.275H51.7527V26.968H53.9797V28.379H60.1847V26.968H62.3947ZM53.9797 30.113V31.49H60.1847V30.113H53.9797ZM76.9114 27.053C74.1744 26.509 72.2024 24.996 71.1824 23.007C70.1624 24.996 68.2074 26.526 65.4704 27.053L64.5184 25.183C68.0544 24.588 69.9924 22.072 69.9924 19.845V18.723H72.3894V19.845C72.3894 22.106 74.3274 24.588 77.8634 25.183L76.9114 27.053ZM78.3564 31.558H64.1784V29.739H78.3564V31.558ZM93.4851 31.745H79.3071V29.926H85.2741V27.325H80.9731V18.876H91.8531V20.661H83.2511V22.191H91.4961V23.925H83.2511V25.557H91.9721V27.325H87.5181V29.926H93.4851V31.745ZM107.577 33.496H105.333V25.251H102.732C102.511 28.243 100.896 30.079 98.7197 30.079C96.3907 30.079 94.6737 27.92 94.6737 24.469C94.6737 21.035 96.3907 18.893 98.7197 18.893C100.828 18.893 102.392 20.627 102.715 23.432H105.333V17.788H107.577V33.496ZM98.7197 28.039C99.8757 28.039 100.641 26.798 100.641 24.469C100.641 22.14 99.8757 20.916 98.7197 20.916C97.5637 20.916 96.8157 22.14 96.8157 24.469C96.8157 26.798 97.5637 28.039 98.7197 28.039Z" fill="black"/>
</g>
<defs>
<filter id="filter0_b_217_823" x="-40" y="-40" width="217.831" height="132" filterUnits="userSpaceOnUse" color-interpolation-filters="sRGB">
<feFlood flood-opacity="0" result="BackgroundImageFix"/>
<feGaussianBlur in="BackgroundImageFix" stdDeviation="20"/>
<feComposite in2="SourceAlpha" operator="in" result="effect1_backgroundBlur_217_823"/>
<feBlend mode="normal" in="SourceGraphic" in2="effect1_backgroundBlur_217_823" result="shape"/>
</filter>
</defs>
</svg>
