<svg width="203" height="52" viewBox="0 0 203 52" fill="none" xmlns="http://www.w3.org/2000/svg">
<g opacity="0.9" filter="url(#filter0_b_217_828)">
<rect x="0.831055" width="201.476" height="52" rx="26" fill="white"/>
<path d="M36.6843 31.4727H35.2743C35.2706 31.5406 35.267 31.6021 35.267 31.6668C35.267 32.4028 35.2634 33.1393 35.267 33.8753C35.267 34.3313 35.1042 34.6941 34.7024 34.9203C34.0275 35.2976 33.2177 34.7909 33.2005 33.9793C33.1861 33.3401 33.1965 32.6973 33.1965 32.0581V31.4655C32.973 31.4655 32.7667 31.4546 32.5645 31.4691C31.847 31.5121 31.3069 30.9556 31.3109 30.2015C31.3141 28.4956 31.3109 26.7896 31.3109 25.0837C31.3109 24.4658 31.3141 23.8519 31.3073 23.2339C31.3073 23.0978 31.339 23.0476 31.4847 23.0476C34.4785 23.0512 37.4724 23.0512 40.4667 23.0476C40.5943 23.0476 40.6404 23.0797 40.6404 23.2163C40.6368 25.5578 40.6368 27.8957 40.6368 30.2372C40.6368 30.9411 40.1075 31.5084 39.4009 31.4691C39.195 31.4582 38.9892 31.4655 38.7653 31.4655C38.7617 31.541 38.7549 31.6057 38.7549 31.6704V33.897C38.7549 34.3602 38.5739 34.7267 38.1577 34.9384C37.5117 35.2686 36.7268 34.8054 36.6947 34.0513C36.6631 33.2686 36.6843 32.4856 36.6807 31.6989C36.6843 31.6233 36.6843 31.5555 36.6843 31.4727ZM40.6381 22.6666H31.3073C31.3924 20.8644 32.2021 19.533 33.7013 18.6138C33.5661 18.3478 33.4385 18.0922 33.3068 17.8334C33.2037 17.6289 33.101 17.4249 32.9906 17.2241C32.9377 17.1259 32.916 17.0345 33.0228 16.9725C33.1259 16.9142 33.1788 16.9906 33.2254 17.082C33.4417 17.5086 33.662 17.928 33.8823 18.355C33.9035 18.3953 33.9284 18.4351 33.9605 18.4862C35.3032 17.8809 36.6459 17.8773 38.0093 18.4898C38.1161 18.2817 38.2265 18.0781 38.3328 17.8701L38.7381 17.082C38.7843 16.9942 38.8449 16.9069 38.9372 16.9798C38.9833 17.016 39.001 17.1517 38.9725 17.2096C38.7843 17.6072 38.5784 17.9976 38.3758 18.388C38.3405 18.4572 38.3048 18.5265 38.2622 18.6174C39.328 19.2417 40.0668 20.1419 40.4427 21.3353C40.5784 21.7619 40.6562 22.2034 40.6386 22.6666H40.6381ZM38.5355 20.4084C38.5355 20.1641 38.3681 19.9854 38.1446 19.9781C37.9207 19.9745 37.7397 20.1568 37.7361 20.3943C37.7325 20.6422 37.903 20.839 38.1306 20.839C38.3717 20.8426 38.5355 20.664 38.5355 20.4084ZM33.8325 20.839C34.0601 20.8354 34.227 20.649 34.227 20.3939C34.2234 20.1568 34.0492 19.9745 33.8253 19.9781C33.6054 19.9781 33.4349 20.1641 33.4313 20.4047C33.4276 20.6603 33.5982 20.8426 33.8325 20.839ZM43.3036 26.3015V28.6109C43.3036 29.0552 43.1032 29.3954 42.7128 29.5994C42.0785 29.9323 41.3303 29.5062 41.2262 28.7652C41.2154 28.6824 41.2118 28.6001 41.2118 28.5141V24.074C41.2118 23.6985 41.3086 23.3651 41.6022 23.1145C41.9102 22.8566 42.2581 22.7816 42.6372 22.939C43.0136 23.0964 43.2248 23.3936 43.2932 23.7913C43.3072 23.8845 43.3072 23.9813 43.3072 24.0776C43.3072 24.8227 43.3072 25.5637 43.3036 26.3015ZM30.9264 26.2902V28.5503C30.9264 29.0027 30.7545 29.3682 30.3533 29.5908C29.6941 29.9527 28.8848 29.4759 28.8382 28.701C28.8242 28.4748 28.8351 28.2454 28.8351 28.0192V23.9831C28.8351 23.499 29.0997 23.0865 29.501 22.9286C30.1492 22.6739 30.8902 23.1294 30.9119 23.8288C30.9368 24.6467 30.9192 25.4651 30.9192 26.2866C30.9192 26.2902 30.9228 26.2902 30.9264 26.2902Z" fill="black"/>
<path d="M58.2407 27.172V33.462H55.9627V27.172H50.1147V25.37H59.9747C60.3657 23.381 60.3997 21.868 60.3997 20.508H51.7297V18.706H62.5927V20.117C62.5927 21.596 62.5927 23.177 62.2017 25.37H64.2587V27.172H58.2407ZM79.4044 25.081H65.2264V23.313H75.2054C75.4604 22.021 75.5114 21.069 75.5284 20.202H66.9774V18.417H77.7384V19.488C77.7384 20.508 77.7384 21.749 77.4494 23.313H79.4044V25.081ZM78.0954 31.609V33.343H66.8244V28.906H75.4604V27.886H66.8074V26.152H77.7044V30.555H69.0684V31.609H78.0954ZM81.5961 19.896V18.23H93.2411V19.896H91.2521V21.902H93.1221V23.568H81.6981V21.902H83.5851V19.896H81.5961ZM85.8121 19.896V21.902H89.0251V19.896H85.8121ZM94.4991 26.135H80.3551V24.367H94.4991V26.135ZM93.1901 31.728V33.343H81.9871V29.382H90.5721V28.617H81.9701V27.002H92.7821V30.878H84.2141V31.728H93.1901ZM108.914 33.445H106.789V17.788H108.914V33.445ZM105.684 18.077V32.731H103.61V24.962H102.063V23.126H103.61V18.077H105.684ZM98.0847 27.971C99.5807 27.92 100.958 27.852 102.539 27.597L102.726 29.399C100.703 29.756 98.9687 29.807 97.0137 29.807H95.9087V23.568H99.2577V21.12H95.8917V19.335H101.434V25.336H98.0847V27.971ZM123.583 33.496H121.339V17.788H123.583V33.496ZM115.168 18.893C117.531 18.893 119.282 21.035 119.282 24.469C119.282 27.92 117.531 30.079 115.168 30.079C112.805 30.079 111.054 27.92 111.054 24.469C111.054 21.035 112.805 18.893 115.168 18.893ZM115.168 20.916C114.012 20.916 113.213 22.14 113.213 24.469C113.213 26.798 114.012 28.039 115.168 28.039C116.324 28.039 117.123 26.798 117.123 24.469C117.123 22.14 116.324 20.916 115.168 20.916ZM141.816 27.053C139.079 26.509 137.107 24.996 136.087 23.007C135.067 24.996 133.112 26.526 130.375 27.053L129.423 25.183C132.959 24.588 134.897 22.072 134.897 19.845V18.723H137.294V19.845C137.294 22.106 139.232 24.588 142.768 25.183L141.816 27.053ZM143.261 31.558H129.083V29.739H143.261V31.558ZM158.389 31.745H144.211V29.926H150.178V27.325H145.877V18.876H156.757V20.661H148.155V22.191H156.4V23.925H148.155V25.557H156.876V27.325H152.422V29.926H158.389V31.745ZM172.481 33.496H170.237V25.251H167.636C167.415 28.243 165.8 30.079 163.624 30.079C161.295 30.079 159.578 27.92 159.578 24.469C159.578 21.035 161.295 18.893 163.624 18.893C165.732 18.893 167.296 20.627 167.619 23.432H170.237V17.788H172.481V33.496ZM163.624 28.039C164.78 28.039 165.545 26.798 165.545 24.469C165.545 22.14 164.78 20.916 163.624 20.916C162.468 20.916 161.72 22.14 161.72 24.469C161.72 26.798 162.468 28.039 163.624 28.039Z" fill="black"/>
</g>
<defs>
<filter id="filter0_b_217_828" x="-39.1689" y="-40" width="281.476" height="132" filterUnits="userSpaceOnUse" color-interpolation-filters="sRGB">
<feFlood flood-opacity="0" result="BackgroundImageFix"/>
<feGaussianBlur in="BackgroundImageFix" stdDeviation="20"/>
<feComposite in2="SourceAlpha" operator="in" result="effect1_backgroundBlur_217_828"/>
<feBlend mode="normal" in="SourceGraphic" in2="effect1_backgroundBlur_217_828" result="shape"/>
</filter>
</defs>
</svg>
