<svg width="100" height="100" viewBox="0 0 100 100" fill="none" xmlns="http://www.w3.org/2000/svg">
<circle cx="50" cy="50" r="49" stroke="#A7ACCB" stroke-width="2"/>
<path d="M42.5768 67.8908C41.0849 67.8666 39.6051 67.5755 38.2102 67.0539C37.0094 66.6051 35.9178 65.8895 35.0202 64.9798C34.0984 64.0822 33.3949 62.9906 32.9461 61.7898C32.4245 60.3949 32.1456 58.9151 32.1092 57.4232C32.0243 55.5067 32 54.8881 32 50C32 45.1119 32.0243 44.4933 32.1092 42.5768C32.1334 41.0849 32.4245 39.6051 32.9461 38.2102C33.3949 37.0094 34.1105 35.9178 35.0202 35.0202C35.9178 34.1105 37.0094 33.3949 38.2102 32.9461C39.6051 32.4245 41.0849 32.1334 42.5768 32.1092C44.4933 32.0243 45.1119 32 50 32C54.8881 32 55.5067 32.0243 57.4232 32.1092C58.9151 32.1334 60.3949 32.4245 61.7898 32.9461C62.9906 33.3949 64.0822 34.1105 64.9798 35.0202C65.9016 35.9178 66.6051 37.0094 67.0539 38.2102C67.5755 39.6051 67.8666 41.0849 67.8908 42.5768C67.9757 44.4933 68 45.1119 68 50C68 54.8881 67.9757 55.5067 67.8908 57.4232C67.8544 58.9151 67.5755 60.3949 67.0539 61.7898C66.6051 62.9906 65.8895 64.0822 64.9798 64.9798C64.0822 65.9016 62.9906 66.6051 61.7898 67.0539C60.3949 67.5755 58.9151 67.8544 57.4232 67.8908C55.5067 67.9757 54.8881 68 50 68C45.1119 68 44.4933 67.9757 42.5768 67.8908ZM42.7224 35.3477C41.5822 35.3598 40.4542 35.566 39.3747 35.9663C38.5984 36.2574 37.8827 36.7183 37.3005 37.3127C36.7062 37.8949 36.2453 38.5984 35.9542 39.3868C35.5539 40.4542 35.3477 41.5943 35.3356 42.7345C35.2507 44.6388 35.2264 45.1968 35.2264 50.0121C35.2264 54.8275 35.2507 55.3854 35.3356 57.2898C35.3477 58.4299 35.5539 59.558 35.9542 60.6375C36.2453 61.4137 36.7062 62.1294 37.3005 62.7116C37.8827 63.3059 38.5863 63.7668 39.3747 64.058C40.442 64.4582 41.5822 64.6644 42.7224 64.6766C44.6267 64.7615 45.1846 64.7857 50 64.7857C54.8154 64.7857 55.3733 64.7736 57.2776 64.6766C58.4178 64.6644 59.5458 64.4582 60.6253 64.058C61.4137 63.7668 62.1173 63.3059 62.6995 62.7116C63.2938 62.1294 63.7547 61.4259 64.0458 60.6375C64.4461 59.5701 64.6523 58.4299 64.6644 57.2898C64.7493 55.3854 64.7736 54.8275 64.7736 50.0121C64.7736 45.1968 64.7615 44.6388 64.6644 42.7345C64.6523 41.5943 64.4461 40.4663 64.0458 39.3868C63.7547 38.6105 63.2938 37.8949 62.6995 37.3127C62.1173 36.7183 61.4137 36.2574 60.6253 35.9663C59.558 35.566 58.4178 35.3598 57.2776 35.3477C55.3854 35.2628 54.8154 35.2385 50 35.2385C45.1846 35.2385 44.6267 35.2507 42.7224 35.3477ZM41.0728 50C41.0728 45.0633 45.0755 41.0728 50 41.0606C54.9367 41.0606 58.9272 45.0633 58.9272 49.9879C58.9272 54.9245 54.9245 58.9151 50 58.9272C45.0633 58.9394 41.0728 54.9367 41.0728 50ZM44.2022 50C44.2022 53.2022 46.7978 55.7978 50 55.7978C53.2022 55.7978 55.7978 53.2022 55.7978 50C55.7978 46.7978 53.2022 44.2022 50 44.2022C46.7978 44.2022 44.2022 46.7978 44.2022 50ZM57.3261 40.442C57.3261 39.2049 58.3329 38.2102 59.5701 38.2102C60.8073 38.2102 61.814 39.217 61.814 40.442C61.814 41.6792 60.8194 42.6739 59.5822 42.6739C58.3329 42.6739 57.3261 41.6671 57.3261 40.442C57.3261 40.434 57.3261 40.434 57.3261 40.442Z" fill="#A7ACCB"/>
</svg>
