<?xml version="1.0" encoding="utf-8"?>
<!-- Generator: Adobe Illustrator 24.2.0, SVG Export Plug-In . SVG Version: 6.00 Build 0)  -->
<svg version="1.1" id="Layer_1" xmlns="http://www.w3.org/2000/svg" xmlns:xlink="http://www.w3.org/1999/xlink" x="0px" y="0px"
	 viewBox="0 0 150 30" style="enable-background:new 0 0 150 30;" xml:space="preserve">
<style type="text/css">
	.st0{fill-rule:evenodd;clip-rule:evenodd;fill:#B1A1FF;}
	.st1{fill:#191C24;}
</style>
<path class="st0" d="M120.6,15.2c0-7.8,6.4-14.2,14.2-14.2S149,7.4,149,15.2c0,7.8-6.4,14.2-14.2,14.2S120.6,23.1,120.6,15.2z
	 M133,15.2c0,1,0.8,1.8,1.8,1.8c1,0,1.8-0.8,1.8-1.8s-0.8-1.8-1.8-1.8C133.8,13.4,133,14.2,133,15.2z M54.3,4.8L53.6,4
	c-1.1-1.8-3-3-5.2-3H48c-3.3,0-6.1,2.7-6.1,6.1v13.7c0.2-0.6,0.6-1.1,1-1.6L54.3,4.8L54.3,4.8z M12.7,4l0.7,0.8L2,19.1
	c-0.4,0.5-0.7,1.1-1,1.6V7.1C1,3.7,3.7,1,7.1,1h0.4C9.7,1,11.7,2.2,12.7,4z M23.7,2.3L24,2.6c2.6,2.1,3,5.9,1,8.5L12.1,27.2
	c-1.2,1.5-2.9,2.2-4.7,2.3c0,0-0.1,0-0.1,0c0,0-0.1,0-0.1,0h0h0h0l0,0c-1.3,0-2.6-0.5-3.7-1.3l-0.3-0.3c-2.6-2.1-3-5.9-1-8.5
	L15.2,3.3C17.3,0.7,21.1,0.3,23.7,2.3z M22,15.7l-8,10l1.2,1.5c2.1,2.6,5.9,3,8.5,1l0.3-0.3c2.6-2.1,3-5.9,1-8.5L22,15.7L22,15.7z
	 M33.6,1h1.1c3.6,0,6.5,2.9,6.5,6.5v1.1c0,3.6-2.9,6.5-6.5,6.5h-1.1c-3.6,0-6.5-2.9-6.5-6.5V7.5C27.1,3.9,30,1,33.6,1z M34.6,15.5
	h-1.1c-3.6,0-6.5,2.9-6.5,6.5V23c0,3.6,2.9,6.5,6.5,6.5h1.1c3.6,0,6.5-2.9,6.5-6.5V22C41.1,18.4,38.2,15.5,34.6,15.5z M64.6,2.3
	l0.3,0.3v0c2.6,2.1,3,5.9,1,8.5L53,27.2c-1.2,1.5-2.9,2.2-4.7,2.3c0,0-0.1,0-0.1,0c0,0-0.1,0-0.1,0l0,0c-1.3,0-2.6-0.5-3.7-1.3
	l-0.3-0.3c-2.6-2.1-3-5.9-1-8.5L56.1,3.3C58.2,0.7,62,0.3,64.6,2.3z M54.9,25.7l8-10l0,0l3,3.8c2.1,2.6,1.6,6.4-1,8.5l-0.3,0.3
	c-2.6,2.1-6.4,1.6-8.5-1L54.9,25.7z M74.5,1h1.1C79.1,1,82,3.9,82,7.5v1.1c0,3.6-2.9,6.5-6.5,6.5h-1.1c-3.6,0-6.5-2.9-6.5-6.5V7.5
	C68,3.9,70.9,1,74.5,1z M75.5,15.5h-1.1c-3.6,0-6.5,2.9-6.5,6.5V23c0,3.6,2.9,6.5,6.5,6.5h1.1c3.6,0,6.5-2.9,6.5-6.5V22
	C82,18.4,79.1,15.5,75.5,15.5z M111.6,1H90.9c-4.5,0-8.3,3.7-8.3,8.3v1.5c0,0.3,0,0.5,0,0.8v11.8c0,3.3,2.7,6,6,6c3.3,0,6-2.7,6-6
	v-7.8c0-0.1,0.1-0.3,0.3-0.3c0.1,0,0.3,0.1,0.3,0.3v7.8c0,3.3,2.7,6,6,6c3.3,0,6-2.7,6-6v-7.8c0-0.1,0.1-0.3,0.3-0.3
	c0.1,0,0.3,0.1,0.3,0.3v7.8c0,3.3,2.7,6,6,6c3.3,0,6-2.7,6-6V10.7V9.3C119.9,4.8,116.2,1,111.6,1z"/>
<path class="st1" d="M53.6,4l-0.3,0.2l0,0l0,0L53.6,4z M54.3,4.8L54,5l0.1,0.1h0.1V4.8z M41.9,20.8h-0.3l0.6,0.1L41.9,20.8z
	 M42.9,19.1l-0.2-0.2l0,0L42.9,19.1z M54.3,4.8L54.5,5l0.4-0.5h-0.6V4.8z M13.4,4.8L13.6,5l0.1-0.2l-0.1-0.2L13.4,4.8z M12.7,4
	l-0.3,0.2l0,0l0,0L12.7,4z M2,19.1l-0.2-0.2l0,0L2,19.1z M1,20.8H0.7l0.6,0.1L1,20.8z M24,2.6l0.2-0.2l0,0L24,2.6z M23.7,2.3
	l-0.2,0.2l0,0L23.7,2.3z M25,11.1l-0.2-0.2l0,0L25,11.1z M12.1,27.2l0.2,0.2h0L12.1,27.2z M7.4,29.5l0-0.3l0,0L7.4,29.5z M7.3,29.5
	l0-0.3h0V29.5z M7.3,29.5l0,0.3h0V29.5z M7.2,29.5l0-0.3h0L7.2,29.5z M3.6,28.2L3.8,28l0,0L3.6,28.2z M3.3,27.9l-0.2,0.2l0,0
	L3.3,27.9z M2.3,19.4l0.2,0.2h0L2.3,19.4z M15.2,3.3l0.2,0.2v0L15.2,3.3z M14,25.7l-0.2-0.2l-0.1,0.2l0.1,0.2L14,25.7z M22,15.7
	l0.2-0.2l-0.2-0.2l-0.2,0.3L22,15.7z M15.2,27.2l0.2-0.2v0L15.2,27.2z M23.7,28.2L23.5,28l0,0L23.7,28.2z M24,27.9l0.2,0.2l0,0
	L24,27.9z M25,19.4l0.2-0.2l0,0L25,19.4z M22,15.7l0.2-0.2l0,0l0,0L22,15.7z M64.9,2.6h0.3V2.5l-0.1-0.1L64.9,2.6z M64.6,2.3
	l-0.2,0.2l0,0L64.6,2.3z M64.9,2.6h-0.3v0.1l0.1,0.1L64.9,2.6z M65.9,11.1l-0.2-0.2l0,0L65.9,11.1z M53,27.2l0.2,0.2l0,0L53,27.2z
	 M48.4,29.5l0-0.3l0,0L48.4,29.5z M48.2,29.5l0-0.3h0L48.2,29.5z M48.2,29.5l0-0.3l0,0L48.2,29.5z M44.5,28.2l0.2-0.2l0,0L44.5,28.2
	z M44.2,27.9L44,28.2l0,0L44.2,27.9z M43.2,19.4l0.2,0.2v0L43.2,19.4z M56.1,3.3l0.2,0.2v0L56.1,3.3z M62.9,15.7l0.2-0.2l-0.2-0.2
	l-0.2,0.3L62.9,15.7z M54.9,25.7l-0.2-0.2l-0.1,0.2l0.1,0.2L54.9,25.7z M62.9,15.7l0.2-0.2l0,0l0,0L62.9,15.7z M65.9,19.4l0.2-0.2v0
	L65.9,19.4z M64.9,27.9l0.2,0.2l0,0L64.9,27.9z M64.6,28.2L64.4,28l0,0L64.6,28.2z M56.1,27.2l0.2-0.2v0L56.1,27.2z M82.7,11.6H83v0
	l0,0L82.7,11.6z M134.8,0.7c-8,0-14.5,6.5-14.5,14.5h0.6c0-7.7,6.2-13.9,13.9-13.9V0.7z M149.3,15.2c0-8-6.5-14.5-14.5-14.5v0.6
	c7.7,0,13.9,6.2,13.9,13.9H149.3z M134.8,29.7c8,0,14.5-6.5,14.5-14.5h-0.6c0,7.7-6.2,13.9-13.9,13.9V29.7z M120.3,15.2
	c0,8,6.5,14.5,14.5,14.5v-0.6c-7.7,0-13.9-6.2-13.9-13.9H120.3z M134.8,16.7c-0.8,0-1.5-0.7-1.5-1.5h-0.6c0,1.1,0.9,2.1,2.1,2.1
	V16.7z M136.3,15.2c0,0.8-0.7,1.5-1.5,1.5v0.6c1.1,0,2.1-0.9,2.1-2.1H136.3z M134.8,13.7c0.8,0,1.5,0.7,1.5,1.5h0.6
	c0-1.1-0.9-2.1-2.1-2.1V13.7z M133.3,15.2c0-0.8,0.7-1.5,1.5-1.5v-0.6c-1.1,0-2.1,0.9-2.1,2.1H133.3z M53.4,4.2L54,5l0.5-0.4
	l-0.7-0.8L53.4,4.2z M48.4,1.3c2.1,0,4,1.2,5,2.9l0.5-0.3c-1.1-1.9-3.2-3.2-5.5-3.2V1.3z M48,1.3h0.4V0.7H48V1.3z M42.2,7.1
	c0-3.2,2.6-5.8,5.8-5.8V0.7c-3.5,0-6.4,2.9-6.4,6.4H42.2z M42.2,20.8V7.1h-0.6v13.7H42.2z M42.6,18.9c-0.4,0.5-0.8,1.1-1,1.7
	l0.6,0.2c0.2-0.6,0.5-1.1,0.9-1.6L42.6,18.9z M54,4.7L42.6,18.9l0.5,0.4L54.5,5L54,4.7z M54.3,5.1L54.3,5.1l0-0.6h0V5.1z M13.6,4.7
	l-0.7-0.8l-0.5,0.4L13.1,5L13.6,4.7z M2.2,19.3L13.6,5l-0.5-0.4L1.7,18.9L2.2,19.3z M1.3,20.9c0.2-0.6,0.5-1.1,0.9-1.6l-0.5-0.4
	c-0.4,0.5-0.8,1.1-1,1.7L1.3,20.9z M0.7,7.1v13.7h0.6V7.1H0.7z M7.1,0.7c-3.5,0-6.4,2.9-6.4,6.4h0.6c0-3.2,2.6-5.8,5.8-5.8V0.7z
	 M7.5,0.7H7.1v0.6h0.4V0.7z M13,3.9C11.9,2,9.8,0.7,7.5,0.7v0.6c2.1,0,4,1.2,5,2.9L13,3.9z M24.2,2.4l-0.3-0.3l-0.4,0.5l0.3,0.3
	L24.2,2.4z M25.2,11.3c2.2-2.7,1.7-6.8-1-8.9l-0.4,0.5c2.5,2,2.9,5.6,0.9,8.1L25.2,11.3z M12.3,27.4l12.9-16.1l-0.5-0.4L11.9,27
	L12.3,27.4z M7.4,29.8c1.8,0,3.7-0.8,4.9-2.4L11.9,27c-1.1,1.4-2.8,2.1-4.4,2.2L7.4,29.8z M7.4,29.8C7.4,29.8,7.4,29.8,7.4,29.8
	l0.1-0.6c0,0,0,0-0.1,0V29.8z M7.3,29.8C7.3,29.8,7.3,29.8,7.3,29.8l0.1-0.6c0,0,0,0-0.1,0L7.3,29.8z M7.3,29.8L7.3,29.8l0-0.6h0
	V29.8z M7.3,29.8L7.3,29.8l0-0.6h0V29.8z M7.3,29.8L7.3,29.8l0-0.6h0V29.8z M7.2,29.8L7.2,29.8l0.1-0.6l0,0L7.2,29.8z M3.4,28.4
	c1.1,0.9,2.5,1.4,3.8,1.4l0-0.6c-1.2,0-2.4-0.4-3.5-1.2L3.4,28.4z M3.1,28.2l0.3,0.3L3.8,28l-0.3-0.3L3.1,28.2z M2.1,19.2
	c-2.2,2.7-1.7,6.8,1,8.9l0.4-0.5c-2.5-2-2.9-5.6-0.9-8.1L2.1,19.2z M14.9,3.1L2.1,19.2l0.5,0.4L15.4,3.5L14.9,3.1z M23.9,2.1
	c-2.7-2.2-6.8-1.7-8.9,1l0.5,0.4c2-2.5,5.6-2.9,8.1-0.9L23.9,2.1z M14.2,25.9l8-10l-0.5-0.4l-8,10L14.2,25.9z M15.4,27l-1.2-1.5
	l-0.5,0.4l1.2,1.5L15.4,27z M23.5,28c-2.5,2-6.1,1.6-8.1-0.9l-0.5,0.4c2.2,2.7,6.2,3.2,8.9,1L23.5,28z M23.8,27.7L23.5,28l0.4,0.5
	l0.3-0.3L23.8,27.7z M24.7,19.6c2,2.5,1.6,6.1-0.9,8.1l0.4,0.5c2.7-2.2,3.2-6.2,1-8.9L24.7,19.6z M21.7,15.8l3,3.8l0.5-0.4l-3-3.8
	L21.7,15.8z M21.8,15.9L21.8,15.9l0.4-0.4l0,0L21.8,15.9z M34.6,0.7h-1.1v0.6h1.1V0.7z M41.4,7.5c0-3.7-3-6.8-6.8-6.8v0.6
	c3.4,0,6.2,2.8,6.2,6.2H41.4z M41.4,8.6V7.5h-0.6v1.1H41.4z M34.6,15.4c3.7,0,6.8-3,6.8-6.8h-0.6c0,3.4-2.8,6.2-6.2,6.2V15.4z
	 M33.6,15.4h1.1v-0.6h-1.1V15.4z M26.8,8.6c0,3.7,3,6.8,6.8,6.8v-0.6c-3.4,0-6.2-2.8-6.2-6.2H26.8z M26.8,7.5v1.1h0.6V7.5H26.8z
	 M33.6,0.7c-3.7,0-6.8,3-6.8,6.8h0.6c0-3.4,2.8-6.2,6.2-6.2V0.7z M33.6,15.8h1.1v-0.6h-1.1V15.8z M27.4,22c0-3.4,2.8-6.2,6.2-6.2
	v-0.6c-3.7,0-6.8,3-6.8,6.8H27.4z M27.4,23V22h-0.6V23H27.4z M33.6,29.2c-3.4,0-6.2-2.8-6.2-6.2h-0.6c0,3.7,3,6.8,6.8,6.8V29.2z
	 M34.6,29.2h-1.1v0.6h1.1V29.2z M40.8,23c0,3.4-2.8,6.2-6.2,6.2v0.6c3.7,0,6.8-3,6.8-6.8H40.8z M40.8,22V23h0.6V22H40.8z M34.6,15.8
	c3.4,0,6.2,2.8,6.2,6.2h0.6c0-3.7-3-6.8-6.8-6.8V15.8z M65.1,2.4l-0.3-0.3l-0.4,0.5l0.3,0.3L65.1,2.4z M65.2,2.6L65.2,2.6l-0.6,0v0
	H65.2z M66.1,11.3c2.2-2.7,1.7-6.8-1-8.9l-0.4,0.5c2.5,2,2.9,5.6,0.9,8.1L66.1,11.3z M53.3,27.4l12.9-16.1l-0.5-0.4L52.8,27
	L53.3,27.4z M48.4,29.8c1.8,0,3.7-0.8,4.9-2.4L52.8,27c-1.1,1.4-2.8,2.1-4.4,2.2L48.4,29.8z M48.3,29.8
	C48.3,29.8,48.3,29.8,48.3,29.8l0.1-0.6c0,0,0,0-0.1,0V29.8z M48.2,29.8C48.2,29.8,48.2,29.8,48.2,29.8l0.1-0.6c0,0,0,0-0.1,0
	L48.2,29.8z M48.2,29.8L48.2,29.8l0.1-0.6l0,0L48.2,29.8z M44.3,28.4c1.1,0.9,2.5,1.4,3.8,1.4l0-0.6c-1.2,0-2.4-0.4-3.5-1.2
	L44.3,28.4z M44,28.2l0.3,0.3l0.4-0.5l-0.3-0.3L44,28.2z M43,19.2c-2.2,2.7-1.7,6.8,1,8.9l0.4-0.5c-2.5-2-2.9-5.6-0.9-8.1L43,19.2z
	 M55.9,3.1L43,19.2l0.5,0.4L56.3,3.5L55.9,3.1z M64.8,2.1c-2.7-2.2-6.8-1.7-8.9,1l0.5,0.4c2-2.5,5.6-2.9,8.1-0.9L64.8,2.1z
	 M62.6,15.5l-8,10l0.5,0.4l8-10L62.6,15.5z M63.1,15.4L63.1,15.4l-0.4,0.4l0,0L63.1,15.4z M66.1,19.2l-3-3.8l-0.5,0.4l3,3.8
	L66.1,19.2z M65.1,28.2c2.7-2.2,3.2-6.2,1-8.9l-0.5,0.4c2,2.5,1.6,6.1-0.9,8.1L65.1,28.2z M64.8,28.4l0.3-0.3l-0.4-0.5L64.4,28
	L64.8,28.4z M55.9,27.4c2.2,2.7,6.2,3.2,8.9,1L64.4,28c-2.5,2-6.1,1.6-8.1-0.9L55.9,27.4z M54.6,25.9l1.2,1.5l0.5-0.4l-1.2-1.5
	L54.6,25.9z M75.5,0.7h-1.1v0.6h1.1V0.7z M82.3,7.5c0-3.7-3-6.8-6.8-6.8v0.6c3.4,0,6.2,2.8,6.2,6.2H82.3z M82.3,8.6V7.5h-0.6v1.1
	H82.3z M75.5,15.4c3.7,0,6.8-3,6.8-6.8h-0.6c0,3.4-2.8,6.2-6.2,6.2V15.4z M74.5,15.4h1.1v-0.6h-1.1V15.4z M67.7,8.6
	c0,3.7,3,6.8,6.8,6.8v-0.6c-3.4,0-6.2-2.8-6.2-6.2H67.7z M67.7,7.5v1.1h0.6V7.5H67.7z M74.5,0.7c-3.7,0-6.8,3-6.8,6.8h0.6
	c0-3.4,2.8-6.2,6.2-6.2V0.7z M74.5,15.8h1.1v-0.6h-1.1V15.8z M68.3,22c0-3.4,2.8-6.2,6.2-6.2v-0.6c-3.7,0-6.8,3-6.8,6.8H68.3z
	 M68.3,23V22h-0.6V23H68.3z M74.5,29.2c-3.4,0-6.2-2.8-6.2-6.2h-0.6c0,3.7,3,6.8,6.8,6.8V29.2z M75.5,29.2h-1.1v0.6h1.1V29.2z
	 M81.7,23c0,3.4-2.8,6.2-6.2,6.2v0.6c3.7,0,6.8-3,6.8-6.8H81.7z M81.7,22V23h0.6V22H81.7z M75.5,15.8c3.4,0,6.2,2.8,6.2,6.2h0.6
	c0-3.7-3-6.8-6.8-6.8V15.8z M90.9,1.3h20.7V0.7H90.9V1.3z M82.9,9.3c0-4.4,3.6-8,8-8V0.7c-4.7,0-8.6,3.9-8.6,8.6H82.9z M82.9,10.9
	V9.3h-0.6v1.5H82.9z M83,11.6c0-0.2,0-0.5,0-0.7h-0.6c0,0.3,0,0.5,0,0.8L83,11.6z M83,23.4V11.6h-0.6v11.8H83z M88.7,29.1
	c-3.1,0-5.7-2.6-5.7-5.7h-0.6c0,3.5,2.8,6.3,6.3,6.3V29.1z M94.4,23.4c0,3.2-2.6,5.7-5.7,5.7v0.6c3.5,0,6.3-2.8,6.3-6.3H94.4z
	 M94.4,15.5v7.8H95v-7.8H94.4z M95,15c-0.3,0-0.6,0.3-0.6,0.6H95c0,0,0,0,0,0c0,0,0,0,0,0V15z M95.6,15.5c0-0.3-0.3-0.6-0.6-0.6v0.6
	c0,0,0,0,0,0c0,0,0,0,0,0H95.6z M95.6,23.4v-7.8H95v7.8H95.6z M101.3,29.1c-3.1,0-5.7-2.6-5.7-5.7H95c0,3.5,2.8,6.3,6.3,6.3V29.1z
	 M107,23.4c0,3.2-2.6,5.7-5.7,5.7v0.6c3.5,0,6.3-2.8,6.3-6.3H107z M107,15.5v7.8h0.6v-7.8H107z M107.6,15c-0.3,0-0.6,0.3-0.6,0.6
	h0.6c0,0,0,0,0,0c0,0,0,0,0,0V15z M108.1,15.5c0-0.3-0.3-0.6-0.6-0.6v0.6c0,0,0,0,0,0c0,0,0,0,0,0H108.1z M108.1,23.4v-7.8h-0.6v7.8
	H108.1z M113.9,29.1c-3.1,0-5.7-2.6-5.7-5.7h-0.6c0,3.5,2.8,6.3,6.3,6.3V29.1z M119.6,23.4c0,3.2-2.6,5.7-5.7,5.7v0.6
	c3.5,0,6.3-2.8,6.3-6.3H119.6z M119.6,10.7v12.7h0.6V10.7H119.6z M119.6,9.3v1.4h0.6V9.3H119.6z M111.6,1.3c4.4,0,8,3.6,8,8h0.6
	c0-4.7-3.9-8.6-8.6-8.6V1.3z"/>
</svg>
