<svg width="150" height="30" viewBox="0 0 150 30" fill="none" xmlns="http://www.w3.org/2000/svg">
<path fill-rule="evenodd" clip-rule="evenodd" d="M120.584 15.2057C120.584 7.36014 126.945 1 134.792 1C142.639 1 149 7.36014 149 15.2057C149 23.0513 142.639 29.4114 134.792 29.4114C126.945 29.4114 120.584 23.0513 120.584 15.2057ZM133.016 15.2057C133.016 16.1862 133.811 16.9814 134.792 16.9814C135.773 16.9814 136.568 16.1862 136.568 15.2057C136.568 14.2252 135.773 13.43 134.792 13.43C133.811 13.43 133.016 14.2252 133.016 15.2057ZM54.2705 4.83891L53.618 4.02131C52.564 2.22166 50.6096 1.00491 48.3842 1.00491H47.9719C44.6384 1.00491 41.9103 3.73179 41.9103 7.0655V20.7616C42.1443 20.1787 42.464 19.6275 42.8655 19.1241L54.2713 4.83891H54.2705ZM12.7092 4.02149L13.3617 4.83909L1.95594 19.1243C1.55441 19.6277 1.23473 20.1789 1.00076 20.7618V7.06568C1.00076 3.73275 3.72885 1.0051 7.06232 1.0051H7.47466C9.70083 1.0051 11.6552 2.22185 12.7092 4.02149ZM23.6999 2.34658L24.0227 2.60367C26.6288 4.6828 27.0589 8.51602 24.9786 11.1209L12.115 27.2328C10.939 28.7051 9.20315 29.4825 7.44492 29.5042C7.41944 29.5049 7.39395 29.5049 7.36847 29.5049C7.34218 29.5049 7.31555 29.5042 7.28903 29.5036H7.28894H7.28885H7.28876L7.24956 29.5026C5.96235 29.4779 4.67436 29.0479 3.59641 28.1878L3.27364 27.9307C0.667559 25.8516 0.237459 22.0184 2.31769 19.4135L15.1813 3.30237C17.2608 0.69671 21.0946 0.266679 23.6999 2.34658ZM21.9741 15.6508L13.9543 25.6959L15.1821 27.2331C17.2623 29.838 21.0954 30.268 23.7007 28.1889L24.0234 27.9318C26.6288 25.8519 27.0589 22.0194 24.9794 19.4145L21.9749 15.6516L21.9741 15.6508ZM33.569 1.02888H34.6361C38.2141 1.02888 41.1147 3.92895 41.1147 7.50637V8.57334C41.1147 12.1508 38.2141 15.0508 34.6361 15.0508H33.569C29.991 15.0508 27.0905 12.1508 27.0905 8.57334V7.50637C27.0905 3.92895 29.991 1.02888 33.569 1.02888ZM34.6361 15.4821H33.569C29.991 15.4821 27.0905 18.3822 27.0905 21.9596V23.0265C27.0905 26.604 29.991 29.504 33.569 29.504H34.6361C38.2141 29.504 41.1147 26.604 41.1147 23.0265V21.9596C41.1147 18.3822 38.2141 15.4821 34.6361 15.4821ZM64.6087 2.34636L64.9315 2.60346V2.60423C67.5376 4.68336 67.9677 8.51658 65.8874 11.1215L53.0238 27.2334C51.8478 28.7057 50.1119 29.4831 48.3537 29.5047C48.3282 29.5055 48.3027 29.5055 48.2773 29.5055C48.2509 29.5055 48.2242 29.5048 48.1975 29.5041L48.1583 29.5032C46.8711 29.4785 45.5832 29.0484 44.5052 28.1884L44.1824 27.9313C41.5764 25.8522 41.1462 22.0189 43.2265 19.414L56.0901 3.30216C58.1696 0.696494 62.0034 0.266463 64.6087 2.34636ZM54.8631 25.6959L62.8829 15.6508L62.8837 15.6516L65.8882 19.4145C67.9676 22.0194 67.5375 25.8519 64.9322 27.9318L64.6095 28.1889C62.0042 30.268 58.1711 29.838 56.0909 27.2331L54.8631 25.6959ZM74.4778 1.02888H75.5449C79.1201 1.02888 82.0235 3.93101 82.0235 7.50637V8.57334C82.0235 12.1479 79.1209 15.0508 75.5449 15.0508H74.4778C70.9019 15.0508 67.9993 12.1487 67.9993 8.57334V7.50637C67.9993 3.93179 70.9019 1.02888 74.4778 1.02888ZM75.5449 15.4821H74.4778C70.9019 15.4821 67.9993 18.385 67.9993 21.9596V23.0265C67.9993 26.6019 70.9019 29.504 74.4778 29.504H75.5449C79.1209 29.504 82.0235 26.6011 82.0235 23.0265V21.9596C82.0235 18.3842 79.1201 15.4821 75.5449 15.4821ZM111.622 1.02888H90.9034C86.3561 1.02888 82.6357 4.75325 82.6357 9.30602V10.8524C82.6357 11.1072 82.6481 11.3581 82.6705 11.6075V23.3812C82.6705 26.698 85.3808 29.4109 88.6934 29.4109C92.0061 29.4109 94.7164 26.6972 94.7164 23.3812V15.5349C94.7164 15.3859 94.8384 15.2647 94.9866 15.2647C95.1349 15.2647 95.2569 15.3867 95.2569 15.5349V23.3812C95.2569 26.698 97.9672 29.4109 101.28 29.4109C104.592 29.4109 107.303 26.6972 107.303 23.3812V15.5349C107.303 15.3859 107.425 15.2647 107.573 15.2647C107.721 15.2647 107.843 15.3867 107.843 15.5349V23.3812C107.843 26.698 110.554 29.4109 113.866 29.4109C117.179 29.4109 119.889 26.6972 119.889 23.3812V10.661V9.30602C119.889 4.75325 116.169 1.02888 111.622 1.02888Z" fill="white"/>
<path d="M53.618 4.02131L53.3591 4.17292L53.37 4.19156L53.3835 4.20844L53.618 4.02131ZM54.2705 4.83891L54.036 5.02604L54.1261 5.13891H54.2705V4.83891ZM41.9103 20.7616H41.6103L42.1887 20.8734L41.9103 20.7616ZM42.8655 19.1241L42.6311 18.9369L42.631 18.937L42.8655 19.1241ZM54.2713 4.83891L54.5057 5.02609L54.8947 4.53891H54.2713V4.83891ZM13.3617 4.83909L13.5961 5.02628L13.7456 4.83914L13.5962 4.65196L13.3617 4.83909ZM12.7092 4.02149L12.4503 4.17311L12.4613 4.19174L12.4747 4.20862L12.7092 4.02149ZM1.95594 19.1243L1.7215 18.9371L1.72142 18.9372L1.95594 19.1243ZM1.00076 20.7618H0.700764L1.27917 20.8736L1.00076 20.7618ZM24.0227 2.60367L24.2098 2.36916L24.2096 2.36901L24.0227 2.60367ZM23.6999 2.34658L23.5128 2.58103L23.513 2.58124L23.6999 2.34658ZM24.9786 11.1209L24.7442 10.9337L24.7442 10.9337L24.9786 11.1209ZM12.115 27.2328L12.3494 27.42L12.3495 27.42L12.115 27.2328ZM7.44492 29.5042L7.44123 29.2041L7.43583 29.2043L7.44492 29.5042ZM7.28903 29.5036L7.29682 29.2036H7.28903V29.5036ZM7.28876 29.5036L7.2816 29.8036H7.28876V29.5036ZM7.24956 29.5026L7.25671 29.2027L7.25531 29.2027L7.24956 29.5026ZM3.59641 28.1878L3.78351 27.9533L3.78332 27.9532L3.59641 28.1878ZM3.27364 27.9307L3.08655 28.1652L3.08673 28.1654L3.27364 27.9307ZM2.31769 19.4135L2.55211 19.6007L2.55213 19.6007L2.31769 19.4135ZM15.1813 3.30237L15.4158 3.48956L15.4158 3.4895L15.1813 3.30237ZM13.9543 25.6959L13.7199 25.5087L13.5704 25.696L13.7199 25.8831L13.9543 25.6959ZM21.9741 15.6508L22.1861 15.4385L21.9489 15.2016L21.7397 15.4636L21.9741 15.6508ZM15.1821 27.2331L15.4165 27.0459L15.4165 27.0458L15.1821 27.2331ZM23.7007 28.1889L23.5138 27.9542L23.5136 27.9544L23.7007 28.1889ZM24.0234 27.9318L24.2104 28.1664L24.2106 28.1662L24.0234 27.9318ZM24.9794 19.4145L25.2139 19.2274L25.2138 19.2273L24.9794 19.4145ZM21.9749 15.6516L22.2093 15.4644L22.1988 15.4512L22.1869 15.4393L21.9749 15.6516ZM64.9315 2.60346H65.2315V2.45888L65.1184 2.3688L64.9315 2.60346ZM64.6087 2.34636L64.4215 2.58081L64.4218 2.58102L64.6087 2.34636ZM64.9315 2.60423H64.6315V2.74866L64.7444 2.83874L64.9315 2.60423ZM65.8874 11.1215L65.653 10.9343L65.653 10.9343L65.8874 11.1215ZM53.0238 27.2334L53.2582 27.4206L53.2583 27.4205L53.0238 27.2334ZM48.3537 29.5047L48.35 29.2047L48.3446 29.2049L48.3537 29.5047ZM48.1975 29.5041L48.2053 29.2042L48.2047 29.2042L48.1975 29.5041ZM48.1583 29.5032L48.1655 29.2033L48.1641 29.2032L48.1583 29.5032ZM44.5052 28.1884L44.6923 27.9539L44.6921 27.9537L44.5052 28.1884ZM44.1824 27.9313L43.9953 28.1658L43.9955 28.1659L44.1824 27.9313ZM43.2265 19.414L43.4609 19.6013L43.4609 19.6012L43.2265 19.414ZM56.0901 3.30216L56.3246 3.48934L56.3246 3.48929L56.0901 3.30216ZM62.8829 15.6508L63.0952 15.4388L62.8579 15.2012L62.6484 15.4636L62.8829 15.6508ZM54.8631 25.6959L54.6287 25.5087L54.4792 25.696L54.6287 25.8831L54.8631 25.6959ZM62.8837 15.6516L63.1181 15.4644L63.1077 15.4513L63.0959 15.4396L62.8837 15.6516ZM65.8882 19.4145L66.1226 19.2274L66.1226 19.2273L65.8882 19.4145ZM64.9322 27.9318L65.1191 28.1664L65.1194 28.1662L64.9322 27.9318ZM64.6095 28.1889L64.4226 27.9542L64.4223 27.9544L64.6095 28.1889ZM56.0909 27.2331L56.3253 27.0459L56.3253 27.0458L56.0909 27.2331ZM82.6705 11.6075H82.9705V11.5941L82.9693 11.5807L82.6705 11.6075ZM134.792 0.7C126.78 0.7 120.284 7.19441 120.284 15.2057H120.884C120.884 7.52587 127.111 1.3 134.792 1.3V0.7ZM149.3 15.2057C149.3 7.19441 142.804 0.7 134.792 0.7V1.3C142.473 1.3 148.7 7.52587 148.7 15.2057H149.3ZM134.792 29.7114C142.804 29.7114 149.3 23.217 149.3 15.2057H148.7C148.7 22.8855 142.473 29.1114 134.792 29.1114V29.7114ZM120.284 15.2057C120.284 23.217 126.78 29.7114 134.792 29.7114V29.1114C127.111 29.1114 120.884 22.8855 120.884 15.2057H120.284ZM134.792 16.6814C133.977 16.6814 133.316 16.0205 133.316 15.2057H132.716C132.716 16.3519 133.646 17.2814 134.792 17.2814V16.6814ZM136.268 15.2057C136.268 16.0205 135.607 16.6814 134.792 16.6814V17.2814C135.938 17.2814 136.868 16.3519 136.868 15.2057H136.268ZM134.792 13.73C135.607 13.73 136.268 14.3909 136.268 15.2057H136.868C136.868 14.0595 135.938 13.13 134.792 13.13V13.73ZM133.316 15.2057C133.316 14.3909 133.977 13.73 134.792 13.73V13.13C133.646 13.13 132.716 14.0595 132.716 15.2057H133.316ZM53.3835 4.20844L54.036 5.02604L54.505 4.65178L53.8525 3.83418L53.3835 4.20844ZM48.3842 1.30491C50.4977 1.30491 52.3562 2.46047 53.3591 4.17292L53.8769 3.86969C52.7718 1.98286 50.7215 0.704914 48.3842 0.704914V1.30491ZM47.9719 1.30491H48.3842V0.704914H47.9719V1.30491ZM42.2103 7.0655C42.2103 3.89755 44.804 1.30491 47.9719 1.30491V0.704914C44.4728 0.704914 41.6103 3.56603 41.6103 7.0655H42.2103ZM42.2103 20.7616V7.0655H41.6103V20.7616H42.2103ZM42.631 18.937C42.2112 19.4633 41.8767 20.0399 41.6319 20.6499L42.1887 20.8734C42.4118 20.3176 42.7167 19.7917 43.1 19.3112L42.631 18.937ZM54.0368 4.65172L42.6311 18.9369L43.0999 19.3113L54.5057 5.02609L54.0368 4.65172ZM54.2705 5.13891H54.2713V4.53891H54.2705V5.13891ZM13.5962 4.65196L12.9437 3.83436L12.4747 4.20862L13.1272 5.02622L13.5962 4.65196ZM2.19038 19.3115L13.5961 5.02628L13.1273 4.65191L1.7215 18.9371L2.19038 19.3115ZM1.27917 20.8736C1.50227 20.3178 1.80718 19.7919 2.19047 19.3114L1.72142 18.9372C1.30164 19.4635 0.967191 20.0401 0.722355 20.6501L1.27917 20.8736ZM0.700764 7.06568V20.7618H1.30076V7.06568H0.700764ZM7.06232 0.7051C3.56321 0.7051 0.700764 3.56702 0.700764 7.06568H1.30076C1.30076 3.89848 3.89449 1.3051 7.06232 1.3051V0.7051ZM7.47466 0.7051H7.06232V1.3051H7.47466V0.7051ZM12.9681 3.86988C11.863 1.98302 9.81268 0.7051 7.47466 0.7051V1.3051C9.58899 1.3051 11.4474 2.46067 12.4503 4.17311L12.9681 3.86988ZM24.2096 2.36901L23.8868 2.11192L23.513 2.58124L23.8358 2.83833L24.2096 2.36901ZM25.2131 11.3081C27.3967 8.57372 26.9454 4.55165 24.2098 2.36916L23.8356 2.83818C26.3121 4.81395 26.721 8.45833 24.7442 10.9337L25.2131 11.3081ZM12.3495 27.42L25.2131 11.3081L24.7442 10.9337L11.8806 27.0456L12.3495 27.42ZM7.44861 29.8041C9.29213 29.7815 11.1145 28.9661 12.3494 27.42L11.8806 27.0456C10.7635 28.4441 9.11418 29.1836 7.44123 29.2042L7.44861 29.8041ZM7.36847 29.8049C7.3932 29.8049 7.42323 29.805 7.45401 29.804L7.43583 29.2043C7.41565 29.2049 7.39471 29.2049 7.36847 29.2049V29.8049ZM7.28124 29.8035C7.30707 29.8041 7.33762 29.8049 7.36847 29.8049V29.2049C7.34674 29.2049 7.32403 29.2044 7.29681 29.2037L7.28124 29.8035ZM7.28894 29.8036H7.28903V29.2036H7.28894V29.8036ZM7.28885 29.8036H7.28894V29.2036H7.28885V29.8036ZM7.28876 29.8036H7.28885V29.2036H7.28876V29.8036ZM7.24241 29.8025L7.28161 29.8035L7.29591 29.2036L7.25671 29.2027L7.24241 29.8025ZM3.40931 28.4223C4.5411 29.3254 5.89351 29.7767 7.2438 29.8026L7.25531 29.2027C6.03118 29.1792 4.80762 28.7704 3.78351 27.9533L3.40931 28.4223ZM3.08673 28.1654L3.4095 28.4225L3.78332 27.9532L3.46055 27.6961L3.08673 28.1654ZM2.08327 19.2263C-0.100389 21.9607 0.350903 25.9827 3.08655 28.1652L3.46074 27.6962C0.984215 25.7205 0.575307 22.0761 2.55211 19.6007L2.08327 19.2263ZM14.9469 3.11519L2.08325 19.2263L2.55213 19.6007L15.4158 3.48956L14.9469 3.11519ZM23.8871 2.11213C21.1523 -0.071143 17.1297 0.380046 14.9468 3.11524L15.4158 3.4895C17.3919 1.01337 21.0369 0.6045 23.5128 2.58103L23.8871 2.11213ZM14.1888 25.8831L22.2085 15.838L21.7397 15.4636L13.7199 25.5087L14.1888 25.8831ZM15.4165 27.0458L14.1887 25.5087L13.7199 25.8831L14.9477 27.4203L15.4165 27.0458ZM23.5136 27.9544C21.0377 29.9302 17.3934 29.5213 15.4165 27.0459L14.9476 27.4203C17.1312 30.1546 21.153 30.6058 23.8878 28.4233L23.5136 27.9544ZM23.8365 27.6971L23.5138 27.9542L23.8876 28.4235L24.2104 28.1664L23.8365 27.6971ZM24.7449 19.6017C26.721 22.0771 26.3121 25.7208 23.8363 27.6973L24.2106 28.1662C26.9454 25.983 27.3967 21.9618 25.2139 19.2274L24.7449 19.6017ZM21.7404 15.8387L24.745 19.6017L25.2138 19.2273L22.2093 15.4644L21.7404 15.8387ZM21.7621 15.8631L21.7629 15.8638L22.1869 15.4393L22.1861 15.4385L21.7621 15.8631ZM34.6361 0.728882H33.569V1.32888H34.6361V0.728882ZM41.4147 7.50637C41.4147 3.76322 38.3798 0.728882 34.6361 0.728882V1.32888C38.0485 1.32888 40.8147 4.09468 40.8147 7.50637H41.4147ZM41.4147 8.57334V7.50637H40.8147V8.57334H41.4147ZM34.6361 15.3508C38.3798 15.3508 41.4147 12.3165 41.4147 8.57334H40.8147C40.8147 11.985 38.0485 14.7508 34.6361 14.7508V15.3508ZM33.569 15.3508H34.6361V14.7508H33.569V15.3508ZM26.7905 8.57334C26.7905 12.3165 29.8254 15.3508 33.569 15.3508V14.7508C30.1566 14.7508 27.3905 11.985 27.3905 8.57334H26.7905ZM26.7905 7.50637V8.57334H27.3905V7.50637H26.7905ZM33.569 0.728882C29.8254 0.728882 26.7905 3.76322 26.7905 7.50637H27.3905C27.3905 4.09468 30.1566 1.32888 33.569 1.32888V0.728882ZM33.569 15.7821H34.6361V15.1821H33.569V15.7821ZM27.3905 21.9596C27.3905 18.5479 30.1566 15.7821 33.569 15.7821V15.1821C29.8254 15.1821 26.7905 18.2164 26.7905 21.9596H27.3905ZM27.3905 23.0265V21.9596H26.7905V23.0265H27.3905ZM33.569 29.204C30.1566 29.204 27.3905 26.4382 27.3905 23.0265H26.7905C26.7905 26.7697 29.8254 29.804 33.569 29.804V29.204ZM34.6361 29.204H33.569V29.804H34.6361V29.204ZM40.8147 23.0265C40.8147 26.4382 38.0485 29.204 34.6361 29.204V29.804C38.3798 29.804 41.4147 26.7697 41.4147 23.0265H40.8147ZM40.8147 21.9596V23.0265H41.4147V21.9596H40.8147ZM34.6361 15.7821C38.0485 15.7821 40.8147 18.5479 40.8147 21.9596H41.4147C41.4147 18.2164 38.3798 15.1821 34.6361 15.1821V15.7821ZM65.1184 2.3688L64.7956 2.11171L64.4218 2.58102L64.7446 2.83811L65.1184 2.3688ZM65.2315 2.60423V2.60346H64.6315V2.60423H65.2315ZM66.1218 11.3087C68.3055 8.57427 67.8542 4.55221 65.1186 2.36971L64.7444 2.83874C67.2209 4.8145 67.6298 8.45888 65.653 10.9343L66.1218 11.3087ZM53.2583 27.4205L66.1219 11.3087L65.653 10.9343L52.7894 27.0462L53.2583 27.4205ZM48.3574 29.8047C50.2009 29.782 52.0232 28.9667 53.2582 27.4206L52.7894 27.0461C51.6723 28.4446 50.023 29.1842 48.35 29.2048L48.3574 29.8047ZM48.2773 29.8055C48.302 29.8055 48.332 29.8055 48.3628 29.8046L48.3446 29.2049C48.3244 29.2055 48.3035 29.2055 48.2773 29.2055V29.8055ZM48.1898 29.804C48.2157 29.8047 48.2463 29.8055 48.2773 29.8055V29.2055C48.2554 29.2055 48.2326 29.2049 48.2053 29.2042L48.1898 29.804ZM48.1512 29.8031L48.1904 29.804L48.2047 29.2042L48.1655 29.2033L48.1512 29.8031ZM44.3181 28.4229C45.4499 29.3259 46.8023 29.7772 48.1526 29.8031L48.1641 29.2032C46.94 29.1797 45.7164 28.771 44.6923 27.9539L44.3181 28.4229ZM43.9955 28.1659L44.3183 28.423L44.6921 27.9537L44.3693 27.6966L43.9955 28.1659ZM42.9921 19.2268C40.8084 21.9612 41.2597 25.9833 43.9953 28.1658L44.3695 27.6968C41.893 25.721 41.4841 22.0766 43.4609 19.6013L42.9921 19.2268ZM55.8557 3.11498L42.992 19.2269L43.4609 19.6012L56.3246 3.48934L55.8557 3.11498ZM64.7959 2.11191C62.0611 -0.0713588 58.0385 0.379831 55.8556 3.11503L56.3246 3.48929C58.3007 1.01316 61.9457 0.604285 64.4215 2.58081L64.7959 2.11191ZM62.6484 15.4636L54.6287 25.5087L55.0976 25.8831L63.1173 15.838L62.6484 15.4636ZM63.0959 15.4396L63.0952 15.4388L62.6706 15.8628L62.6714 15.8636L63.0959 15.4396ZM66.1226 19.2273L63.1181 15.4644L62.6492 15.8387L65.6537 19.6017L66.1226 19.2273ZM65.1194 28.1662C67.8542 25.983 68.3055 21.9618 66.1226 19.2274L65.6537 19.6017C67.6298 22.0771 67.2209 25.7208 64.7451 27.6973L65.1194 28.1662ZM64.7964 28.4235L65.1191 28.1664L64.7453 27.6971L64.4226 27.9542L64.7964 28.4235ZM55.8564 27.4203C58.04 30.1546 62.0618 30.6058 64.7966 28.4233L64.4223 27.9544C61.9465 29.9302 58.3022 29.5213 56.3253 27.0459L55.8564 27.4203ZM54.6287 25.8831L55.8565 27.4203L56.3253 27.0458L55.0975 25.5087L54.6287 25.8831ZM75.5449 0.728882H74.4778V1.32888H75.5449V0.728882ZM82.3235 7.50637C82.3235 3.76526 79.2857 0.728882 75.5449 0.728882V1.32888C78.9545 1.32888 81.7235 4.09677 81.7235 7.50637H82.3235ZM82.3235 8.57334V7.50637H81.7235V8.57334H82.3235ZM75.5449 15.3508C79.2865 15.3508 82.3235 12.3136 82.3235 8.57334H81.7235C81.7235 11.9822 78.9552 14.7508 75.5449 14.7508V15.3508ZM74.4778 15.3508H75.5449V14.7508H74.4778V15.3508ZM67.6993 8.57334C67.6993 12.3144 70.7362 15.3508 74.4778 15.3508V14.7508C71.0675 14.7508 68.2993 11.983 68.2993 8.57334H67.6993ZM67.6993 7.50637V8.57334H68.2993V7.50637H67.6993ZM74.4778 0.728882C70.7362 0.728882 67.6993 3.76608 67.6993 7.50637H68.2993C68.2993 4.09749 71.0675 1.32888 74.4778 1.32888V0.728882ZM74.4778 15.7821H75.5449V15.1821H74.4778V15.7821ZM68.2993 21.9596C68.2993 18.5507 71.0675 15.7821 74.4778 15.7821V15.1821C70.7362 15.1821 67.6993 18.2193 67.6993 21.9596H68.2993ZM68.2993 23.0265V21.9596H67.6993V23.0265H68.2993ZM74.4778 29.204C71.0675 29.204 68.2993 26.4362 68.2993 23.0265H67.6993C67.6993 26.7676 70.7362 29.804 74.4778 29.804V29.204ZM75.5449 29.204H74.4778V29.804H75.5449V29.204ZM81.7235 23.0265C81.7235 26.4354 78.9552 29.204 75.5449 29.204V29.804C79.2865 29.804 82.3235 26.7668 82.3235 23.0265H81.7235ZM81.7235 21.9596V23.0265H82.3235V21.9596H81.7235ZM75.5449 15.7821C78.9545 15.7821 81.7235 18.55 81.7235 21.9596H82.3235C82.3235 18.2185 79.2857 15.1821 75.5449 15.1821V15.7821ZM90.9034 1.32888H111.622V0.728882H90.9034V1.32888ZM82.9357 9.30602C82.9357 4.91861 86.5221 1.32888 90.9034 1.32888V0.728882C86.1901 0.728882 82.3357 4.58788 82.3357 9.30602H82.9357ZM82.9357 10.8524V9.30602H82.3357V10.8524H82.9357ZM82.9693 11.5807C82.9476 11.3394 82.9357 11.0975 82.9357 10.8524H82.3357C82.3357 11.117 82.3486 11.3769 82.3717 11.6343L82.9693 11.5807ZM82.9705 23.3812V11.6075H82.3705V23.3812H82.9705ZM88.6934 29.1109C85.5468 29.1109 82.9705 26.5326 82.9705 23.3812H82.3705C82.3705 26.8633 85.2148 29.7109 88.6934 29.7109V29.1109ZM94.4164 23.3812C94.4164 26.5318 91.84 29.1109 88.6934 29.1109V29.7109C92.1721 29.7109 95.0164 26.8625 95.0164 23.3812H94.4164ZM94.4164 15.5349V23.3812H95.0164V15.5349H94.4164ZM94.9866 14.9647C94.6733 14.9647 94.4164 15.2196 94.4164 15.5349H95.0164C95.0164 15.544 95.0124 15.5518 95.0078 15.5563C95.0034 15.5607 94.9958 15.5647 94.9866 15.5647V14.9647ZM95.5569 15.5349C95.5569 15.2209 95.3005 14.9647 94.9866 14.9647V15.5647C94.9769 15.5647 94.9694 15.5605 94.9653 15.5564C94.9611 15.5522 94.9569 15.5447 94.9569 15.5349H95.5569ZM95.5569 23.3812V15.5349H94.9569V23.3812H95.5569ZM101.28 29.1109C98.1332 29.1109 95.5569 26.5326 95.5569 23.3812H94.9569C94.9569 26.8633 97.8012 29.7109 101.28 29.7109V29.1109ZM107.003 23.3812C107.003 26.5318 104.426 29.1109 101.28 29.1109V29.7109C104.758 29.7109 107.603 26.8625 107.603 23.3812H107.003ZM107.003 15.5349V23.3812H107.603V15.5349H107.003ZM107.573 14.9647C107.26 14.9647 107.003 15.2196 107.003 15.5349H107.603C107.603 15.544 107.599 15.5518 107.594 15.5563C107.59 15.5607 107.582 15.5647 107.573 15.5647V14.9647ZM108.143 15.5349C108.143 15.221 107.887 14.9647 107.573 14.9647V15.5647C107.563 15.5647 107.556 15.5605 107.552 15.5564C107.548 15.5522 107.543 15.5447 107.543 15.5349H108.143ZM108.143 23.3812V15.5349H107.543V23.3812H108.143ZM113.866 29.1109C110.72 29.1109 108.143 26.5326 108.143 23.3812H107.543C107.543 26.8633 110.388 29.7109 113.866 29.7109V29.1109ZM119.589 23.3812C119.589 26.5318 117.013 29.1109 113.866 29.1109V29.7109C117.345 29.7109 120.189 26.8625 120.189 23.3812H119.589ZM119.589 10.661V23.3812H120.189V10.661H119.589ZM119.589 9.30602V10.661H120.189V9.30602H119.589ZM111.622 1.32888C116.003 1.32888 119.589 4.91861 119.589 9.30602H120.189C120.189 4.58788 116.335 0.728882 111.622 0.728882V1.32888Z" fill="#191C24"/>
</svg>
