<svg width="100" height="100" viewBox="0 0 100 100" fill="none" xmlns="http://www.w3.org/2000/svg">
<circle cx="50" cy="50" r="49" stroke="#A7ACCB" stroke-width="2"/>
<path d="M28.5393 49.9774C32.2141 47.945 36.3361 46.2273 40.1663 44.5096C46.781 41.7123 53.3956 38.9383 60.1152 36.3776C61.4276 35.9297 63.7627 35.5051 64 37.4594C63.8698 40.206 63.37 42.9525 63.0026 45.6716C62.1101 51.693 61.0602 57.6889 60.0354 63.6828C59.6931 65.6899 57.2006 66.7209 55.6005 65.4258C51.7682 62.8377 47.9359 60.2496 44.1561 57.6087C42.9235 56.341 44.0763 54.5198 45.1808 53.6198C48.3307 50.5035 51.6632 47.8351 54.6576 44.5603C55.4724 42.606 53.0827 44.2434 52.2952 44.7441C47.9905 47.7294 43.7907 50.8986 39.2235 53.5395C36.9136 54.8325 34.1837 53.7233 31.8739 53.0113C29.7992 52.1662 26.7544 51.2958 28.5393 49.9753V49.9774Z" fill="#A7ACCB"/>
</svg>
