<svg xmlns="http://www.w3.org/2000/svg" xmlns:xlink="http://www.w3.org/1999/xlink" viewBox="0 0 1030.15 545.01"><defs><style>.cls-1{fill:none;}.cls-2{opacity:0.5;}.cls-3{fill:#454542;}.cls-4{opacity:0.4;}.cls-5{clip-path:url(#clip-path);}</style><clipPath id="clip-path"><rect class="cls-1" x="836.6" y="137.14" width="193.55" height="213.76"/></clipPath></defs><title>a5-bg</title><g id="레이어_2" data-name="레이어 2"><g id="레이어_1-2" data-name="레이어 1"><g class="cls-2"><path class="cls-3" d="M196.72,161l47.49,48.31a.87.87,0,0,0,1.25-1.22L198,159.73a.88.88,0,0,0-1.25,1.23Z"/><path class="cls-3" d="M173.38,137.22l15.14,15.41a.88.88,0,0,0,1.26-1.23L174.63,136A.88.88,0,0,0,173.38,137.22Z"/><path class="cls-3" d="M172.59,202.69l65.32,18.13a.88.88,0,0,0,.47-1.69L173.06,201a.87.87,0,0,0-.47,1.68Z"/><path class="cls-3" d="M140.5,193.79l20.84,5.78a.88.88,0,0,0,.46-1.69L141,192.1A.88.88,0,0,0,140.5,193.79Z"/><path class="cls-3" d="M172.6,250.88,238.24,234a.87.87,0,0,0-.44-1.69l-65.64,16.92a.87.87,0,0,0,.44,1.69Z"/><path class="cls-3" d="M140.35,259.2l20.93-5.4a.88.88,0,0,0-.43-1.7l-20.94,5.4A.88.88,0,0,0,140.35,259.2Z"/><path class="cls-3" d="M196.73,292.62l48.38-47.43a.88.88,0,0,0-1.23-1.25L195.5,291.37A.88.88,0,0,0,196.73,292.62Z"/><path class="cls-3" d="M173,315.92l15.43-15.13a.87.87,0,0,0-1.22-1.25l-15.44,15.13A.88.88,0,0,0,173,315.92Z"/><path class="cls-3" d="M238.53,316.7l18.15-65.23A.88.88,0,0,0,255,251l-18.15,65.23A.88.88,0,0,0,238.53,316.7Z"/><path class="cls-3" d="M229.61,348.76,235.4,328a.88.88,0,0,0-1.69-.46l-5.79,20.8A.88.88,0,0,0,229.61,348.76Z"/><path class="cls-3" d="M286.78,316.7l-16.94-65.56a.88.88,0,0,0-1.7.44l16.95,65.55A.87.87,0,0,0,286.78,316.7Z"/><path class="cls-3" d="M295.1,348.91,289.7,328a.88.88,0,0,0-1.7.44l5.41,20.91A.87.87,0,0,0,295.1,348.91Z"/><path class="cls-3" d="M328.56,292.59l-47.49-48.31a.88.88,0,0,0-1.25,1.23l47.49,48.31A.88.88,0,0,0,328.56,292.59Z"/><path class="cls-3" d="M351.9,316.34l-15.14-15.41a.88.88,0,0,0-1.26,1.23l15.15,15.41A.88.88,0,0,0,351.9,316.34Z"/><path class="cls-3" d="M352.68,250.86l-65.32-18.12a.87.87,0,0,0-.46,1.68l65.32,18.13A.88.88,0,0,0,352.68,250.86Z"/><path class="cls-3" d="M384.78,259.77,363.94,254a.87.87,0,0,0-.46,1.68l20.84,5.78A.87.87,0,0,0,384.78,259.77Z"/><path class="cls-3" d="M352.68,202.67,287,219.59a.87.87,0,0,0,.44,1.69l65.64-16.92A.87.87,0,0,0,352.68,202.67Z"/><path class="cls-3" d="M384.93,194.36,364,199.76a.87.87,0,0,0,.43,1.69l20.94-5.4a.87.87,0,0,0-.44-1.69Z"/><path class="cls-3" d="M328.55,160.94l-48.38,47.43a.88.88,0,0,0,1.23,1.25l48.38-47.43A.88.88,0,0,0,328.55,160.94Z"/><path class="cls-3" d="M352.32,137.64l-15.43,15.13a.87.87,0,0,0,1.22,1.25l15.44-15.13A.88.88,0,0,0,352.32,137.64Z"/><path class="cls-3" d="M286.75,136.85,268.6,202.08a.88.88,0,0,0,1.69.47l18.15-65.23a.88.88,0,0,0-1.69-.47Z"/><path class="cls-3" d="M295.67,104.8l-5.79,20.81a.88.88,0,0,0,1.69.46l5.79-20.81A.88.88,0,0,0,295.67,104.8Z"/><path class="cls-3" d="M238.5,136.86l16.94,65.55a.87.87,0,0,0,1.69-.43l-16.94-65.55A.87.87,0,0,0,238.5,136.86Z"/><path class="cls-3" d="M230.17,104.64l5.41,20.91a.88.88,0,0,0,1.7-.43l-5.41-20.91a.88.88,0,0,0-1.7.43Z"/></g><g class="cls-2"><path class="cls-3" d="M218.51,227.25l24.55.23a.88.88,0,0,0,0-1.76l-24.55-.23A.88.88,0,0,0,218.51,227.25Z"/><path class="cls-3" d="M172.35,226.82l36.81.34a.88.88,0,0,0,0-1.75l-36.82-.34a.88.88,0,0,0,0,1.75Z"/><path class="cls-3" d="M156,226.67l8.18.07a.88.88,0,0,0,0-1.75l-8.19-.08A.88.88,0,0,0,156,226.67Z"/><path class="cls-3" d="M224.65,249.21,246,237.15a.88.88,0,0,0-.87-1.52l-21.37,12.06A.87.87,0,0,0,224.65,249.21Z"/><path class="cls-3" d="M184.46,271.9l32.06-18.09a.88.88,0,0,0-.87-1.52L183.6,270.37a.88.88,0,0,0,.86,1.53Z"/><path class="cls-3" d="M170.21,279.94l7.13-4a.88.88,0,0,0-.86-1.53l-7.13,4A.87.87,0,0,0,170.21,279.94Z"/><path class="cls-3" d="M241,265.18l12.47-21.11a.88.88,0,0,0-1.51-.89l-12.47,21.11A.88.88,0,0,0,241,265.18Z"/><path class="cls-3" d="M217.52,304.89l18.71-31.67a.88.88,0,0,0-1.51-.89L216,304A.88.88,0,0,0,217.52,304.89Z"/><path class="cls-3" d="M209.22,319l4.15-7a.88.88,0,0,0-1.51-.89l-4.16,7A.88.88,0,0,0,209.22,319Z"/><path class="cls-3" d="M263.11,270.85l.22-24.52a.88.88,0,0,0-1.75,0l-.23,24.51A.88.88,0,0,0,263.11,270.85Z"/><path class="cls-3" d="M262.68,317l.34-36.77a.88.88,0,0,0-1.75,0l-.35,36.77a.88.88,0,0,0,1.76,0Z"/><path class="cls-3" d="M262.53,333.3l.07-8.18a.88.88,0,0,0-1.75,0l-.08,8.17A.88.88,0,0,0,262.53,333.3Z"/><path class="cls-3" d="M285.11,264.71,273,243.37a.88.88,0,0,0-1.53.86l12.08,21.34A.88.88,0,0,0,285.11,264.71Z"/><path class="cls-3" d="M307.83,304.85l-18.12-32a.88.88,0,0,0-1.52.87l18.11,32a.88.88,0,0,0,1.53-.87Z"/><path class="cls-3" d="M315.87,319.08l-4-7.11a.88.88,0,0,0-1.53.86l4,7.11A.87.87,0,0,0,315.87,319.08Z"/><path class="cls-3" d="M301.09,248.41,280,236a.88.88,0,0,0-.89,1.51l21.14,12.46A.88.88,0,0,0,301.09,248.41Z"/><path class="cls-3" d="M340.86,271.83l-31.71-18.68a.88.88,0,0,0-.9,1.51L340,273.34A.88.88,0,0,0,340.86,271.83Z"/><path class="cls-3" d="M355,280.13l-7-4.14a.88.88,0,0,0-.89,1.51l7,4.14A.88.88,0,0,0,355,280.13Z"/><path class="cls-3" d="M306.77,226.31l-24.55-.23a.88.88,0,0,0,0,1.75l24.55.23A.88.88,0,0,0,306.77,226.31Z"/><path class="cls-3" d="M352.93,226.74l-36.81-.35a.88.88,0,0,0,0,1.76l36.82.34A.88.88,0,0,0,352.93,226.74Z"/><path class="cls-3" d="M369.3,226.89l-8.19-.08a.88.88,0,0,0,0,1.76l8.18.07A.88.88,0,0,0,369.3,226.89Z"/><path class="cls-3" d="M300.63,204.33,279.25,216.4a.88.88,0,0,0,.87,1.52l21.37-12.06A.88.88,0,0,0,300.63,204.33Z"/><path class="cls-3" d="M340.82,181.66l-32.06,18.08a.88.88,0,0,0,.87,1.53l32.05-18.09A.87.87,0,0,0,340.82,181.66Z"/><path class="cls-3" d="M355.06,173.61l-7.12,4a.88.88,0,0,0,.86,1.53l7.13-4A.88.88,0,0,0,355.06,173.61Z"/><path class="cls-3" d="M284.3,188.37l-12.47,21.12a.88.88,0,0,0,1.51.89l12.47-21.11a.88.88,0,0,0-1.51-.9Z"/><path class="cls-3" d="M307.75,148.66,289,180.34a.88.88,0,0,0,1.51.89l18.71-31.67A.88.88,0,0,0,307.75,148.66Z"/><path class="cls-3" d="M316.06,134.59l-4.15,7a.88.88,0,0,0,1.51.89l4.16-7A.88.88,0,0,0,316.06,134.59Z"/><path class="cls-3" d="M262.17,182.71l-.23,24.51a.88.88,0,0,0,1.76,0l.23-24.52a.88.88,0,0,0-1.76,0Z"/><path class="cls-3" d="M262.6,136.6l-.34,36.77a.88.88,0,0,0,1.75,0l.35-36.76A.88.88,0,0,0,262.6,136.6Z"/><path class="cls-3" d="M262.75,120.26l-.08,8.17a.88.88,0,0,0,1.76,0l.07-8.17A.88.88,0,0,0,262.75,120.26Z"/><path class="cls-3" d="M240.17,188.85l12.08,21.34a.88.88,0,0,0,1.53-.86L241.7,188a.88.88,0,0,0-1.53.86Z"/><path class="cls-3" d="M217.45,148.7l18.12,32a.87.87,0,0,0,1.52-.86l-18.11-32a.88.88,0,0,0-1.53.86Z"/><path class="cls-3" d="M209.41,134.47l4,7.12a.88.88,0,0,0,1.53-.86l-4-7.12A.87.87,0,0,0,209.41,134.47Z"/><path class="cls-3" d="M224.19,205.15l21.14,12.45a.88.88,0,0,0,.89-1.51l-21.14-12.45A.88.88,0,0,0,224.19,205.15Z"/><path class="cls-3" d="M184.42,181.73l31.71,18.68a.88.88,0,0,0,.9-1.51l-31.72-18.68a.88.88,0,0,0-.89,1.51Z"/><path class="cls-3" d="M170.32,173.42l7.05,4.15a.88.88,0,0,0,.89-1.51l-7-4.15A.88.88,0,0,0,170.32,173.42Z"/></g><path class="cls-3" d="M270,316.44l-84.81,54.67a1.47,1.47,0,0,0,1.57,2.49l84.8-54.67A1.47,1.47,0,0,0,270,316.44Z"/><path class="cls-3" d="M186,374.62a2.06,2.06,0,0,1-.93-.23,2.43,2.43,0,0,1-1.29-2,2.13,2.13,0,0,1,1-1.92l84.81-54.68a2.11,2.11,0,0,1,3,.68,2.17,2.17,0,0,1-.63,3.09l-84.8,54.67a2.14,2.14,0,0,1-1.19.37Zm84.43-57.54-84.8,54.68a.59.59,0,0,0-.32.56.94.94,0,0,0,.45.72.58.58,0,0,0,.6-.06l84.8-54.67a.69.69,0,0,0,.18-1,.62.62,0,0,0-.91-.23Z"/><path class="cls-3" d="M296,299.68l-11.14,7.18a1.47,1.47,0,0,0,1.56,2.49l11.14-7.18A1.47,1.47,0,0,0,296,299.68Z"/><path class="cls-3" d="M285.62,310.37a2.24,2.24,0,0,1-1.83-1.05,2.18,2.18,0,0,1,.63-3.1L295.56,299a2.08,2.08,0,0,1,2.12-.14,2.41,2.41,0,0,1,1.28,2,2.12,2.12,0,0,1-1,1.92L286.81,310a2.2,2.2,0,0,1-1.2.38Zm11.13-10.17a.57.57,0,0,0-.35.12l-11.14,7.18a.67.67,0,0,0-.18,1,.62.62,0,0,0,.91.23l11.14-7.18a.59.59,0,0,0,.31-.56.89.89,0,0,0-.45-.72.53.53,0,0,0-.24-.06Z"/><path class="cls-3" d="M159,259.69l3.93,101.37a1.46,1.46,0,0,0,2.92-.14l-3.93-101.37A1.46,1.46,0,0,0,159,259.69Z"/><path class="cls-3" d="M164.32,363.19a2.13,2.13,0,0,1-2.21-2.1l-3.93-101.37a2.18,2.18,0,0,1,2.16-2.29,2.14,2.14,0,0,1,2.29,2.1l3.94,101.37a2.18,2.18,0,0,1-2.16,2.29Zm-4.61-103.53L163.64,361a.64.64,0,0,0,.72.63.66.66,0,0,0,.69-.71l-3.94-101.37a.62.62,0,0,0-.71-.63.66.66,0,0,0-.69.7Z"/><path class="cls-3" d="M157.74,228.61l.52,13.32a1.46,1.46,0,0,0,2.92-.13l-.52-13.33A1.46,1.46,0,0,0,157.74,228.61Z"/><path class="cls-3" d="M159.7,244.06a2.13,2.13,0,0,1-2.21-2.1L157,228.64a2.17,2.17,0,0,1,2.15-2.29,2.15,2.15,0,0,1,2.3,2.1l.52,13.32a2.18,2.18,0,0,1-2.16,2.29Zm-1.2-15.47.52,13.32a.62.62,0,0,0,.72.63.66.66,0,0,0,.69-.7l-.52-13.32a.63.63,0,0,0-.72-.63A.66.66,0,0,0,158.5,228.59Z"/><path class="cls-3" d="M54.27,328.93,143,375.62a1.48,1.48,0,0,0,1.37-2.63L55.63,326.3a1.48,1.48,0,0,0-1.36,2.63Z"/><path class="cls-3" d="M143.68,376.56a2.2,2.2,0,0,1-1-.27L53.92,329.6a2.18,2.18,0,0,1-.89-3,2.13,2.13,0,0,1,3-1l88.74,46.69a2.11,2.11,0,0,1,1.17,1.81,2.45,2.45,0,0,1-1.12,2.12,2,2,0,0,1-1.09.32Zm-89.05-48.3L143.36,375a.56.56,0,0,0,.61,0,.93.93,0,0,0,.4-.77.57.57,0,0,0-.35-.51L55.28,327a.64.64,0,0,0-.89.33.67.67,0,0,0,.24,1Z"/><path class="cls-3" d="M27.06,314.61l11.66,6.14a1.48,1.48,0,0,0,1.37-2.63L28.43,312a1.48,1.48,0,0,0-1.37,2.63Z"/><path class="cls-3" d="M39.4,321.69a2.21,2.21,0,0,1-1-.27L26.7,315.29a2.18,2.18,0,0,1-.88-3,2.14,2.14,0,0,1,3-1l11.66,6.13a2.18,2.18,0,0,1,.89,3A2.24,2.24,0,0,1,39.4,321.69Zm-12-7.75,11.66,6.13a.64.64,0,0,0,.9-.32.68.68,0,0,0-.25-1l-11.66-6.14a.64.64,0,0,0-.89.33.67.67,0,0,0,.24,1Z"/><path class="cls-3" d="M60.62,454.92l84.8-54.68a1.47,1.47,0,0,0-1.56-2.49L59.05,452.42a1.48,1.48,0,0,0,1.57,2.5Z"/><path class="cls-3" d="M59.84,455.92a1.94,1.94,0,0,1-.93-.23,2.41,2.41,0,0,1-1.28-2,2.13,2.13,0,0,1,1-1.93l84.81-54.67a2.08,2.08,0,0,1,2.12-.13,2.39,2.39,0,0,1,1.28,2,2.12,2.12,0,0,1-1,1.92L61,455.56a2.18,2.18,0,0,1-1.19.36Zm84.8-57.66a.65.65,0,0,0-.36.12L59.47,453.06a.59.59,0,0,0-.31.56.94.94,0,0,0,.45.72.58.58,0,0,0,.6-.06L145,399.6a.58.58,0,0,0,.31-.56.89.89,0,0,0-.45-.72.49.49,0,0,0-.23-.06Z"/><path class="cls-3" d="M34.62,471.68l11.14-7.19A1.47,1.47,0,0,0,44.2,462l-11.14,7.18A1.47,1.47,0,0,0,34.62,471.68Z"/><path class="cls-3" d="M33.84,472.68a1.94,1.94,0,0,1-.93-.23,2.38,2.38,0,0,1-1.27-2,2.13,2.13,0,0,1,1-1.93l11.14-7.18a2.08,2.08,0,0,1,2.12-.14,2.43,2.43,0,0,1,1.29,2,2.13,2.13,0,0,1-1,1.92L35,472.32a2.2,2.2,0,0,1-1.19.36ZM45,462.52a.64.64,0,0,0-.35.12l-11.14,7.18a.61.61,0,0,0-.32.57.92.92,0,0,0,.45.71.57.57,0,0,0,.61-.06l11.14-7.18a.61.61,0,0,0,.31-.56.94.94,0,0,0-.45-.72.53.53,0,0,0-.24-.06Z"/><path class="cls-3" d="M171.65,511.67,167.72,410.3a1.47,1.47,0,0,0-2.93.14l3.94,101.37a1.46,1.46,0,0,0,2.92-.14Z"/><path class="cls-3" d="M170.16,513.93a2.12,2.12,0,0,1-2.2-2.1L164,410.46a2.18,2.18,0,0,1,2.16-2.29,2.12,2.12,0,0,1,2.29,2.1l3.94,101.37a2.18,2.18,0,0,1-2.16,2.29ZM166.27,409.7h0a.66.66,0,0,0-.69.71l3.93,101.37a.64.64,0,0,0,.72.63.66.66,0,0,0,.69-.71L167,410.33a.62.62,0,0,0-.68-.63Z"/><path class="cls-3" d="M172.86,542.74l-.52-13.32a1.47,1.47,0,0,0-2.93.14l.52,13.32A1.47,1.47,0,0,0,172.86,542.74Z"/><path class="cls-3" d="M171.37,545a2.31,2.31,0,0,1-1.09-.27,2.13,2.13,0,0,1-1.12-1.84l-.52-13.32a2.18,2.18,0,0,1,2.16-2.29,2.12,2.12,0,0,1,2.29,2.1l.52,13.32a2.15,2.15,0,0,1-1,1.94A2.45,2.45,0,0,1,171.37,545Zm-.48-16.18h0a.65.65,0,0,0-.68.7l.52,13.33a.55.55,0,0,0,.3.54.87.87,0,0,0,.83,0,.61.61,0,0,0,.27-.59l-.52-13.32a.62.62,0,0,0-.68-.63Z"/><path class="cls-3" d="M276.33,442.43l-88.74-46.7a1.48,1.48,0,0,0-1.36,2.63L275,445.06A1.48,1.48,0,0,0,276.33,442.43Z"/><path class="cls-3" d="M275.64,446a2.31,2.31,0,0,1-1-.26L185.88,399a2.1,2.1,0,0,1-1.17-1.81,2.45,2.45,0,0,1,1.11-2.12,2.11,2.11,0,0,1,2.13-.05l88.74,46.7a2.1,2.1,0,0,1,1.17,1.8,2.45,2.45,0,0,1-1.12,2.12,2,2,0,0,1-1.09.32Zm-88.72-49.67a.57.57,0,0,0-.28.08.94.94,0,0,0-.41.77.57.57,0,0,0,.36.51l88.73,46.7a.56.56,0,0,0,.61,0,.93.93,0,0,0,.4-.77.56.56,0,0,0-.35-.51l-88.74-46.7a.68.68,0,0,0-.32-.09Z"/><path class="cls-3" d="M303.53,456.75l-11.65-6.14a1.48,1.48,0,0,0-1.37,2.63l11.66,6.14A1.48,1.48,0,0,0,303.53,456.75Z"/><path class="cls-3" d="M302.85,460.31a2.25,2.25,0,0,1-1-.26l-11.66-6.14a2.17,2.17,0,0,1-.89-3,2.14,2.14,0,0,1,3-1l11.66,6.14a2.1,2.1,0,0,1,1.17,1.8A2.44,2.44,0,0,1,304,460a2,2,0,0,1-1.1.32Zm-11.65-9.12a.72.72,0,0,0-.58.42.66.66,0,0,0,.25.95l11.66,6.14a.54.54,0,0,0,.6,0,.94.94,0,0,0,.4-.77.54.54,0,0,0-.35-.51l-11.66-6.14A.68.68,0,0,0,291.2,451.19Z"/><path class="cls-3" d="M183.85,295.87,170.5,355.68a1.46,1.46,0,0,0,2.85.63l13.36-59.8A1.47,1.47,0,0,0,183.85,295.87Z"/><path class="cls-3" d="M172,358.19a2.35,2.35,0,0,1-1.6-.61,2.1,2.1,0,0,1-.62-2.07L183.1,295.7a2.23,2.23,0,0,1,4.35,1l-13.36,59.81a2.1,2.1,0,0,1-1.43,1.61,2.26,2.26,0,0,1-.69.11ZM184.6,296l-13.35,59.8a.59.59,0,0,0,.16.62.88.88,0,0,0,.8.18.59.59,0,0,0,.4-.49L186,296.35a.65.65,0,0,0-.54-.81.64.64,0,0,0-.83.5Z"/><path class="cls-3" d="M188.81,273.69l-2.05,9.17a1.46,1.46,0,0,0,2.86.63l2-9.17A1.46,1.46,0,0,0,188.81,273.69Z"/><path class="cls-3" d="M188.23,285.37a2.39,2.39,0,0,1-1.6-.61,2.13,2.13,0,0,1-.62-2.07l2.05-9.17a2.1,2.1,0,0,1,1.43-1.61,2.37,2.37,0,0,1,2.29.51,2.08,2.08,0,0,1,.62,2.07l-2,9.17a2.13,2.13,0,0,1-1.45,1.61,2.25,2.25,0,0,1-.68.11Zm2-12a.78.78,0,0,0-.22,0,.59.59,0,0,0-.4.49L187.51,283a.59.59,0,0,0,.16.61.86.86,0,0,0,.8.18.62.62,0,0,0,.41-.49l2-9.16a.61.61,0,0,0-.16-.62.84.84,0,0,0-.57-.21Z"/><path class="cls-3" d="M196.82,237.83l-2,9.17a1.46,1.46,0,0,0,2.86.63l2-9.17A1.46,1.46,0,0,0,196.82,237.83Z"/><path class="cls-3" d="M196.24,249.51a2.39,2.39,0,0,1-1.6-.61,2.13,2.13,0,0,1-.62-2.07l2-9.17a2.1,2.1,0,0,1,1.44-1.61,2.36,2.36,0,0,1,2.29.51,2.1,2.1,0,0,1,.62,2.07l-2,9.17a2.1,2.1,0,0,1-1.43,1.61,2.31,2.31,0,0,1-.69.11ZM197.56,238l-2.05,9.16a.61.61,0,0,0,.16.62.89.89,0,0,0,.8.18.6.6,0,0,0,.41-.49l2-9.17a.59.59,0,0,0-.16-.61.86.86,0,0,0-.8-.18A.59.59,0,0,0,197.56,238Z"/><path class="cls-3" d="M97.83,325l44.42,41.28c1.39,1.29,3.38-.9,2-2.18L99.81,322.8C98.43,321.52,96.44,323.7,97.83,325Z"/><path class="cls-3" d="M143.18,367.44a2,2,0,0,1-1.44-.6L97.31,325.56a2.09,2.09,0,0,1-.66-2.06,2.43,2.43,0,0,1,1.62-1.75,2.09,2.09,0,0,1,2.07.51l44.43,41.28a2.19,2.19,0,0,1,.07,3.15,2.32,2.32,0,0,1-1.65.75Zm-44.3-44.26-.17,0a.92.92,0,0,0-.58.63.63.63,0,0,0,.21.61l44.43,41.28a.63.63,0,0,0,.94-.08.67.67,0,0,0,0-1L99.28,323.36a.56.56,0,0,0-.41-.19Z"/><path class="cls-3" d="M81.34,309.68,88.15,316c1.38,1.29,3.38-.9,2-2.19l-6.81-6.33C81.94,306.2,80,308.39,81.34,309.68Z"/><path class="cls-3" d="M89.08,317.16a2.06,2.06,0,0,1-1.45-.6l-6.81-6.33a2.1,2.1,0,0,1-.65-2.06,2.42,2.42,0,0,1,1.61-1.74,2.08,2.08,0,0,1,2.07.5l6.81,6.32a2.18,2.18,0,0,1,.06,3.15,2.26,2.26,0,0,1-1.65.75Zm-6.68-9.3-.17,0a.94.94,0,0,0-.58.63.62.62,0,0,0,.21.61l6.81,6.33a.63.63,0,0,0,.94-.08.68.68,0,0,0,0-1L82.81,308a.6.6,0,0,0-.42-.19Z"/><path class="cls-3" d="M54.7,284.92l6.81,6.33c1.38,1.29,3.38-.9,2-2.19l-6.81-6.33C55.3,281.45,53.31,283.63,54.7,284.92Z"/><path class="cls-3" d="M62.44,292.41a2.06,2.06,0,0,1-1.45-.6l-6.81-6.33a2.19,2.19,0,0,1-.07-3.15,2.12,2.12,0,0,1,3.1-.15L64,288.51a2.18,2.18,0,0,1,.07,3.15,2.3,2.3,0,0,1-1.65.75Zm-7.22-8L62,290.69a.62.62,0,0,0,.94-.07.68.68,0,0,0,0-1l-6.81-6.33a.63.63,0,0,0-.94.08A.67.67,0,0,0,55.22,284.37Z"/><path class="cls-3" d="M79.26,414.8l57.79-18.51a1.48,1.48,0,0,0-.87-2.82L78.39,412a1.48,1.48,0,0,0,.87,2.82Z"/><path class="cls-3" d="M78.78,415.64a2.15,2.15,0,0,1-2-1.57,2.19,2.19,0,0,1,1.4-2.83L136,392.72a2.12,2.12,0,0,1,2.74,1.45,2.21,2.21,0,0,1-1.41,2.83L79.5,415.51a2.34,2.34,0,0,1-.72.11Zm57.87-21.5a1.11,1.11,0,0,0-.23,0L78.64,412.7a.67.67,0,0,0-.41.91.62.62,0,0,0,.81.47l57.79-18.52a.69.69,0,0,0,.42-.91.67.67,0,0,0-.59-.5Z"/><path class="cls-3" d="M57.82,421.67l8.86-2.84a1.48,1.48,0,0,0-.87-2.82L57,418.85A1.48,1.48,0,0,0,57.82,421.67Z"/><path class="cls-3" d="M57.34,422.51a2.16,2.16,0,0,1-2-1.57,2.19,2.19,0,0,1,1.41-2.83l8.85-2.84a2.13,2.13,0,0,1,2.74,1.45,2.17,2.17,0,0,1-1.4,2.82l-8.86,2.84a2.34,2.34,0,0,1-.72.11Zm8.94-5.82a1,1,0,0,0-.23,0l-8.86,2.84a.66.66,0,0,0-.41.9.62.62,0,0,0,.82.47l8.85-2.84a.67.67,0,0,0,.41-.91A.64.64,0,0,0,66.28,416.69Z"/><path class="cls-3" d="M23.18,432.77,32,429.94a1.48,1.48,0,0,0-.87-2.83L22.31,430A1.48,1.48,0,0,0,23.18,432.77Z"/><path class="cls-3" d="M22.69,433.61a2.26,2.26,0,0,1-.61-4.39l8.85-2.84a2.1,2.1,0,0,1,2.09.42,2.41,2.41,0,0,1,.72,2.27,2.1,2.1,0,0,1-1.47,1.59l-8.86,2.84a2.34,2.34,0,0,1-.72.11Zm9-5.82a1,1,0,0,0-.24,0l-8.86,2.84a.67.67,0,0,0-.41.91A.63.63,0,0,0,23,432l8.85-2.84a.58.58,0,0,0,.45-.45.9.9,0,0,0-.26-.82.5.5,0,0,0-.35-.14Z"/><path class="cls-3" d="M146.74,475.48l13.35-59.8a1.46,1.46,0,0,0-2.85-.64l-13.36,59.81A1.46,1.46,0,0,0,146.74,475.48Z"/><path class="cls-3" d="M145.34,477.36a2.84,2.84,0,0,1-.51-.05,2.16,2.16,0,0,1-1.7-2.62l13.36-59.81a2.22,2.22,0,0,1,4.34,1l-13.35,59.81a2.13,2.13,0,0,1-2.15,1.71Zm13.27-62.67a.6.6,0,0,0-.63.52L144.63,475a.63.63,0,0,0,.53.8.64.64,0,0,0,.83-.5l13.35-59.8a.64.64,0,0,0-.54-.81l-.2,0Z"/><path class="cls-3" d="M141.78,497.67l2.05-9.17a1.46,1.46,0,0,0-2.86-.63l-2,9.17A1.46,1.46,0,0,0,141.78,497.67Z"/><path class="cls-3" d="M140.38,499.54a2.26,2.26,0,0,1-.51-.05,2.15,2.15,0,0,1-1.69-2.62l2-9.17a2.23,2.23,0,0,1,4.35,1l-2,9.17a2.12,2.12,0,0,1-2.14,1.71Zm2-12a.6.6,0,0,0-.63.52l-2.05,9.17a.64.64,0,0,0,.54.8.62.62,0,0,0,.82-.5l2.05-9.16a.64.64,0,0,0-.54-.81l-.19,0Z"/><path class="cls-3" d="M133.77,533.52l2-9.16a1.47,1.47,0,0,0-2.86-.64l-2,9.17A1.46,1.46,0,0,0,133.77,533.52Z"/><path class="cls-3" d="M132.37,535.41a2.07,2.07,0,0,1-.5-.06,2.15,2.15,0,0,1-1.69-2.62l2-9.17a2.23,2.23,0,0,1,4.35,1l-2,9.17a2.13,2.13,0,0,1-2.15,1.71Zm2-12a.6.6,0,0,0-.63.52l-2.05,9.17a.66.66,0,0,0,.55.81.64.64,0,0,0,.82-.51l2.05-9.16a.64.64,0,0,0-.54-.81l-.2,0Z"/><path class="cls-3" d="M232.77,446.36l-44.43-41.28c-1.38-1.29-3.37.9-2,2.19l44.43,41.28C232.17,449.84,234.16,447.65,232.77,446.36Z"/><path class="cls-3" d="M231.71,449.71a2.08,2.08,0,0,1-1.44-.6l-44.43-41.29a2.18,2.18,0,0,1-.07-3.15,2.13,2.13,0,0,1,3.1-.15L233.3,445.8a2.19,2.19,0,0,1,.07,3.15A2.31,2.31,0,0,1,231.71,449.71ZM187.4,405.45a.78.78,0,0,0-.52.26.67.67,0,0,0,0,1L231.3,448a.62.62,0,0,0,.94-.07.67.67,0,0,0,0-1l-44.43-41.29a.62.62,0,0,0-.42-.18Z"/><path class="cls-3" d="M249.26,461.68l-6.82-6.33c-1.38-1.29-3.37.9-2,2.19l6.81,6.33C248.65,465.16,250.64,463,249.26,461.68Z"/><path class="cls-3" d="M248.19,465a2.1,2.1,0,0,1-1.45-.6l-6.81-6.33a2.11,2.11,0,0,1-.65-2.06,2.43,2.43,0,0,1,1.61-1.75,2.07,2.07,0,0,1,2.07.51l6.81,6.32a2.18,2.18,0,0,1,.07,3.15,2.27,2.27,0,0,1-1.65.76Zm-6.68-9.3a.47.47,0,0,0-.16,0,.93.93,0,0,0-.59.63.61.61,0,0,0,.21.6l6.81,6.33a.62.62,0,0,0,.94-.07.68.68,0,0,0,0-1l-6.81-6.33a.64.64,0,0,0-.41-.19Z"/><path class="cls-3" d="M275.89,486.43l-6.81-6.33c-1.38-1.29-3.37.9-2,2.19l6.81,6.33C275.29,489.91,277.28,487.72,275.89,486.43Z"/><path class="cls-3" d="M274.83,489.78a2.08,2.08,0,0,1-1.44-.6l-6.81-6.33a2.11,2.11,0,0,1-.66-2.06,2.45,2.45,0,0,1,1.62-1.75,2.08,2.08,0,0,1,2.06.5l6.81,6.33a2.16,2.16,0,0,1,.07,3.14,2.27,2.27,0,0,1-1.65.76Zm-6.67-9.31-.17,0a.9.9,0,0,0-.58.63.61.61,0,0,0,.21.6l6.81,6.33a.62.62,0,0,0,.94-.07.68.68,0,0,0,0-1l-6.82-6.33a.56.56,0,0,0-.41-.19Z"/><path class="cls-3" d="M251.33,356.56l-57.78,18.51a1.48,1.48,0,0,0,.87,2.82l57.78-18.51a1.48,1.48,0,0,0-.87-2.82Z"/><path class="cls-3" d="M193.94,378.74a2,2,0,0,1-1.38-.53,2.41,2.41,0,0,1-.72-2.27,2.12,2.12,0,0,1,1.47-1.59l57.79-18.52a2.12,2.12,0,0,1,2.74,1.45,2.21,2.21,0,0,1-1.41,2.83l-57.78,18.51a2.22,2.22,0,0,1-.7.11Zm57.62-21.46-57.78,18.53a.59.59,0,0,0-.45.45.9.9,0,0,0,.26.82.56.56,0,0,0,.58.1L252,358.66a.68.68,0,0,0,.42-.9.62.62,0,0,0-.82-.47Z"/><path class="cls-3" d="M272.76,349.69l-8.85,2.84a1.48,1.48,0,0,0,.87,2.82l8.85-2.84A1.48,1.48,0,0,0,272.76,349.69Z"/><path class="cls-3" d="M264.31,356.19a2,2,0,0,1-1.38-.54,2.43,2.43,0,0,1-.73-2.27,2.16,2.16,0,0,1,1.48-1.59l8.86-2.83a2.13,2.13,0,0,1,2.74,1.45,2.2,2.2,0,0,1-1.41,2.83L265,356.07a2.15,2.15,0,0,1-.7.12Zm8.69-5.78-8.86,2.84a.59.59,0,0,0-.44.46.91.91,0,0,0,.25.81.54.54,0,0,0,.59.1l8.86-2.83a.67.67,0,0,0,.41-.91.63.63,0,0,0-.82-.47Z"/><path class="cls-3" d="M307.41,338.59l-8.85,2.83a1.48,1.48,0,0,0,.87,2.83l8.85-2.84A1.48,1.48,0,0,0,307.41,338.59Z"/><path class="cls-3" d="M299,345.08a2,2,0,0,1-1.38-.53,2.43,2.43,0,0,1-.73-2.27,2.15,2.15,0,0,1,1.47-1.59l8.86-2.83a2,2,0,0,1,2.08.42,2.42,2.42,0,0,1,.73,2.27,2.13,2.13,0,0,1-1.48,1.58L299.66,345a2.23,2.23,0,0,1-.71.11Zm8.93-5.81-.23,0-8.86,2.84a.58.58,0,0,0-.44.46.87.87,0,0,0,.26.81.53.53,0,0,0,.58.1l8.86-2.83a.59.59,0,0,0,.44-.46.89.89,0,0,0-.25-.82.51.51,0,0,0-.35-.13Z"/><path class="cls-3" d="M240.28,400.86,205.06,393a1.48,1.48,0,0,0-.65,2.89l35.22,7.84A1.48,1.48,0,0,0,240.28,400.86Z"/><path class="cls-3" d="M240,404.55a2.22,2.22,0,0,1-.51-.06l-35.21-7.85a2.08,2.08,0,0,1-1.59-1.42,2.44,2.44,0,0,1,.52-2.34,2.08,2.08,0,0,1,2-.62l35.22,7.85a2.05,2.05,0,0,1,1.58,1.42,2.43,2.43,0,0,1-.51,2.34,2,2,0,0,1-1.54.67Zm-35.26-10.82a.52.52,0,0,0-.41.19.9.9,0,0,0-.19.85.59.59,0,0,0,.46.4L239.79,403a.57.57,0,0,0,.59-.16,1,1,0,0,0,.19-.85.57.57,0,0,0-.47-.4l-35.21-7.84-.18,0Z"/><path class="cls-3" d="M265,406.37,249.79,403a1.48,1.48,0,0,0-.65,2.89l15.23,3.39a1.48,1.48,0,0,0,.65-2.89Z"/><path class="cls-3" d="M264.72,410.06a1.86,1.86,0,0,1-.51-.06L249,406.61a2.07,2.07,0,0,1-1.59-1.43,2.46,2.46,0,0,1,.52-2.34,2.09,2.09,0,0,1,2.05-.61l15.23,3.39a2.13,2.13,0,0,1,1.63,2.66,2.2,2.2,0,0,1-2.1,1.78Zm-15.27-6.36a.55.55,0,0,0-.41.18.94.94,0,0,0-.19.86.57.57,0,0,0,.47.39l15.23,3.39a.66.66,0,0,0,.79-.56.64.64,0,0,0-.47-.85l-15.23-3.39-.18,0Z"/><path class="cls-3" d="M316.42,417.82l-27.6-6.15a1.48,1.48,0,0,0-.65,2.89l27.6,6.15A1.48,1.48,0,0,0,316.42,417.82Z"/><path class="cls-3" d="M316.12,421.52a2.22,2.22,0,0,1-.51-.06L288,415.31a2.14,2.14,0,0,1-1.63-2.66,2.17,2.17,0,0,1,2.61-1.72l27.6,6.15a2.09,2.09,0,0,1,1.59,1.43,2.44,2.44,0,0,1-.52,2.34A2,2,0,0,1,316.12,421.52Zm-27.64-9.12c-.47,0-.6.48-.62.58a.63.63,0,0,0,.47.84l27.6,6.15a.58.58,0,0,0,.59-.16.9.9,0,0,0,.19-.85.56.56,0,0,0-.46-.4l-27.6-6.15-.18,0Z"/><path class="cls-3" d="M216.18,327.48l-24.51,27c-1.28,1.41.87,3.41,2.15,2l24.51-27C219.61,328.07,217.46,326.07,216.18,327.48Z"/><path class="cls-3" d="M192.82,357.7a2.29,2.29,0,0,1-1.53-.61,2.18,2.18,0,0,1-.18-3.15l24.5-27a2.11,2.11,0,0,1,2-.69,2.41,2.41,0,0,1,1.74,1.59,2.12,2.12,0,0,1-.49,2.12l-24.51,27a2.09,2.09,0,0,1-1.57.74Zm24.38-29.95a.62.62,0,0,0-.45.23l-24.51,27a.68.68,0,0,0,.08,1,.62.62,0,0,0,.94,0l24.51-27a.61.61,0,0,0,.16-.63.92.92,0,0,0-.61-.56h-.12Z"/><path class="cls-3" d="M233.4,308.51l-10.59,11.67c-1.28,1.41.87,3.41,2.15,2l10.6-11.67A1.47,1.47,0,0,0,233.4,308.51Z"/><path class="cls-3" d="M223.94,323.43a2.3,2.3,0,0,1-.45-.05,2.38,2.38,0,0,1-1.74-1.58,2.14,2.14,0,0,1,.49-2.12L232.84,308a2.12,2.12,0,0,1,3.1-.12,2.19,2.19,0,0,1,.18,3.15l-10.6,11.66a2.11,2.11,0,0,1-1.58.74Zm10.49-14.63a.64.64,0,0,0-.46.23l-10.6,11.67a.58.58,0,0,0-.16.62.89.89,0,0,0,.61.57.56.56,0,0,0,.57-.22L235,310a.67.67,0,0,0-.07-1,.74.74,0,0,0-.48-.21Z"/><path class="cls-3" d="M269.18,269.13,250,290.28c-1.28,1.41.87,3.41,2.15,2l19.21-21.15C272.6,269.72,270.46,267.72,269.18,269.13Z"/><path class="cls-3" d="M251.11,293.52a2.31,2.31,0,0,1-1.53-.61,2.19,2.19,0,0,1-.18-3.15l19.21-21.15a2.1,2.1,0,0,1,2-.68,2.36,2.36,0,0,1,1.74,1.58,2.12,2.12,0,0,1-.48,2.12l-19.21,21.15a2.13,2.13,0,0,1-1.58.74Zm19.09-24.11a.62.62,0,0,0-.45.23l-19.21,21.15a.68.68,0,0,0,.07,1,.63.63,0,0,0,.94,0l19.21-21.15a.56.56,0,0,0,.16-.62.87.87,0,0,0-.61-.57h-.11Z"/><path class="cls-3" d="M141.2,312.3l10.71,34.83a1.47,1.47,0,0,0,2.79-.9L144,311.4a1.47,1.47,0,0,0-2.8.89Z"/><path class="cls-3" d="M153.23,348.88a2.21,2.21,0,0,1-.51-.05,2.08,2.08,0,0,1-1.54-1.48l-10.7-34.83a2.18,2.18,0,0,1,1.5-2.77,2.13,2.13,0,0,1,2.75,1.43L155.43,346a2.14,2.14,0,0,1-.45,2.12,2.45,2.45,0,0,1-1.75.76Zm-11.3-36.81,10.71,34.83a.56.56,0,0,0,.43.44.87.87,0,0,0,.79-.25.59.59,0,0,0,.11-.64l-10.7-34.83a.62.62,0,0,0-.84-.42A.68.68,0,0,0,141.93,312.07Z"/><path class="cls-3" d="M133.68,287.82l4.63,15.06a1.46,1.46,0,0,0,2.79-.89l-4.63-15.06A1.46,1.46,0,0,0,133.68,287.82Z"/><path class="cls-3" d="M139.63,304.64a2.21,2.21,0,0,1-.51-.05,2.1,2.1,0,0,1-1.54-1.48L133,288.05a2.18,2.18,0,0,1,.46-2.13,2.39,2.39,0,0,1,2.26-.69,2.1,2.1,0,0,1,1.54,1.48l4.62,15.06a2.14,2.14,0,0,1-.45,2.12,2.43,2.43,0,0,1-1.75.76Zm-5.22-17L139,302.66a.57.57,0,0,0,.43.44.87.87,0,0,0,.79-.25.61.61,0,0,0,.12-.64l-4.63-15.06a.57.57,0,0,0-.43-.44.87.87,0,0,0-.79.25A.61.61,0,0,0,134.41,287.6Z"/><path class="cls-3" d="M118.06,237l8.39,27.3a1.46,1.46,0,0,0,2.79-.89l-8.39-27.3A1.46,1.46,0,0,0,118.06,237Z"/><path class="cls-3" d="M127.76,266a2.07,2.07,0,0,1-2-1.53l-8.39-27.3a2.17,2.17,0,0,1,1.51-2.76,2.12,2.12,0,0,1,2.75,1.42l8.39,27.3a2.18,2.18,0,0,1-1.51,2.77A2.39,2.39,0,0,1,127.76,266Zm-9-29.28,8.39,27.3a.63.63,0,0,0,.84.42.67.67,0,0,0,.5-.86l-8.39-27.3a.63.63,0,0,0-.84-.42A.67.67,0,0,0,118.79,236.76Z"/><path class="cls-3" d="M90.32,370.5l35.21,7.84a1.48,1.48,0,0,0,.65-2.89L91,367.61a1.48,1.48,0,0,0-.65,2.89Z"/><path class="cls-3" d="M125.88,379.15a1.89,1.89,0,0,1-.51-.07l-35.21-7.84a2.11,2.11,0,0,1-1.59-1.43,2.46,2.46,0,0,1,.52-2.34,2.12,2.12,0,0,1,2-.62l35.21,7.85a2.13,2.13,0,0,1,1.63,2.66,2.2,2.2,0,0,1-2.1,1.78ZM90.63,368.33a.58.58,0,0,0-.42.18.93.93,0,0,0-.19.85.56.56,0,0,0,.47.4l35.21,7.85a.69.69,0,0,0,.8-.57.66.66,0,0,0-.48-.85l-35.21-7.84a.55.55,0,0,0-.18,0Z"/><path class="cls-3" d="M65.57,365l15.24,3.39a1.48,1.48,0,0,0,.65-2.89L66.22,362.1A1.48,1.48,0,0,0,65.57,365Z"/><path class="cls-3" d="M81.15,369.18a2.29,2.29,0,0,1-.51-.06l-15.23-3.39a2.24,2.24,0,0,1,1-4.38l15.24,3.39a2.14,2.14,0,0,1,1.63,2.66A2.2,2.2,0,0,1,81.15,369.18Zm-15.41-4.94L81,367.63a.67.67,0,0,0,.8-.56.65.65,0,0,0-.47-.85l-15.24-3.39a.66.66,0,0,0-.79.56A.64.64,0,0,0,65.74,364.24Z"/><path class="cls-3" d="M14.17,353.53l27.61,6.15a1.48,1.48,0,0,0,.64-2.89l-27.6-6.15a1.48,1.48,0,0,0-.65,2.89Z"/><path class="cls-3" d="M42.12,360.49a3,3,0,0,1-.51-.06L14,354.28a2.14,2.14,0,0,1-1.64-2.66A2.17,2.17,0,0,1,15,349.9l27.6,6.15a2.07,2.07,0,0,1,1.59,1.43,2.44,2.44,0,0,1-.52,2.34A2,2,0,0,1,42.12,360.49Zm-27.64-9.12c-.47,0-.6.48-.62.58a.64.64,0,0,0,.47.84l27.61,6.15a.57.57,0,0,0,.58-.16.9.9,0,0,0,.19-.85.55.55,0,0,0-.46-.4l-27.6-6.15-.18,0Z"/><path class="cls-3" d="M114.41,443.88l24.51-27a1.47,1.47,0,0,0-2.16-2l-24.5,27C111,443.29,113.13,445.29,114.41,443.88Z"/><path class="cls-3" d="M113.41,445.12a2.27,2.27,0,0,1-1.53-.61,2.18,2.18,0,0,1-.18-3.14l24.51-27a2.13,2.13,0,0,1,3.1-.12,2.19,2.19,0,0,1,.18,3.15l-24.51,27a2.08,2.08,0,0,1-1.57.73Zm24.39-29.95a.62.62,0,0,0-.46.23l-24.51,27a.67.67,0,0,0,.07,1,.62.62,0,0,0,.94,0l24.51-27a.67.67,0,0,0-.07-1,.77.77,0,0,0-.48-.21Z"/><path class="cls-3" d="M97.18,462.84l10.6-11.67c1.28-1.41-.87-3.41-2.15-2L95,460.84C93.76,462.25,95.9,464.25,97.18,462.84Z"/><path class="cls-3" d="M96.17,464.09a2.12,2.12,0,0,1-.44,0A2.36,2.36,0,0,1,94,462.46a2.12,2.12,0,0,1,.48-2.12l10.6-11.67a2.13,2.13,0,0,1,3.1-.12,2.18,2.18,0,0,1,.18,3.15L97.76,463.36a2.14,2.14,0,0,1-1.58.74Zm10.49-14.63a.64.64,0,0,0-.46.22L95.6,461.35a.61.61,0,0,0-.16.63.92.92,0,0,0,.61.56.56.56,0,0,0,.58-.22l10.59-11.67a.67.67,0,0,0-.07-1,.74.74,0,0,0-.48-.21Z"/><path class="cls-3" d="M61.41,502.22l19.21-21.15a1.47,1.47,0,0,0-2.15-2L59.26,500.22C58,501.63,60.13,503.63,61.41,502.22Z"/><path class="cls-3" d="M60.41,503.47a2.29,2.29,0,0,1-1.53-.61,2.19,2.19,0,0,1-.19-3.15l19.22-21.15a2.12,2.12,0,0,1,3.09-.12,2.18,2.18,0,0,1,.18,3.15L62,502.74a2.08,2.08,0,0,1-1.57.73Zm19.08-24.11a.61.61,0,0,0-.45.23L59.82,500.74a.68.68,0,0,0,.08,1,.62.62,0,0,0,.94,0l19.21-21.15a.66.66,0,0,0-.08-1,.74.74,0,0,0-.48-.21Z"/><path class="cls-3" d="M189.39,459.06l-10.71-34.83a1.46,1.46,0,0,0-2.79.89L186.59,460a1.47,1.47,0,0,0,2.8-.9Z"/><path class="cls-3" d="M187.91,461.72a2.05,2.05,0,0,1-2-1.54l-10.71-34.83a2.14,2.14,0,0,1,.46-2.12,2.38,2.38,0,0,1,2.25-.7,2.09,2.09,0,0,1,1.55,1.48l10.7,34.83a2.18,2.18,0,0,1-1.5,2.77,2.45,2.45,0,0,1-.71.11ZM177.37,424a.87.87,0,0,0-.63.27.61.61,0,0,0-.12.64l10.71,34.83a.62.62,0,0,0,.84.42.67.67,0,0,0,.49-.87L178,424.46a.58.58,0,0,0-.43-.44.44.44,0,0,0-.16,0Z"/><path class="cls-3" d="M196.91,483.53l-4.63-15.06a1.47,1.47,0,0,0-2.79.9l4.62,15.06A1.47,1.47,0,0,0,196.91,483.53Z"/><path class="cls-3" d="M195.43,486.19a2.05,2.05,0,0,1-2-1.54l-4.63-15.06a2.17,2.17,0,0,1,1.51-2.76,2.11,2.11,0,0,1,2.74,1.42l4.63,15.06a2.18,2.18,0,0,1-1.5,2.77,2.45,2.45,0,0,1-.71.11ZM191,468.24a1.23,1.23,0,0,0-.26,0,.68.68,0,0,0-.5.87l4.63,15.06a.63.63,0,0,0,.84.42.67.67,0,0,0,.49-.87l-4.62-15.06a.58.58,0,0,0-.58-.45Z"/><path class="cls-3" d="M212.54,534.37l-8.39-27.3a1.47,1.47,0,0,0-2.8.9l8.39,27.3A1.47,1.47,0,0,0,212.54,534.37Z"/><path class="cls-3" d="M211.06,537a2,2,0,0,1-2-1.53l-8.39-27.3a2.18,2.18,0,0,1,1.5-2.77,2.13,2.13,0,0,1,2.75,1.43l8.39,27.3a2.18,2.18,0,0,1-1.5,2.77A2.83,2.83,0,0,1,211.06,537Zm-8.22-30.19a1.18,1.18,0,0,0-.26,0,.68.68,0,0,0-.5.87l8.4,27.3a.63.63,0,0,0,.84.42.67.67,0,0,0,.49-.86l-8.39-27.3a.58.58,0,0,0-.58-.46Z"/><path class="cls-3" d="M139.94,347.94l8.07,12.9a1.48,1.48,0,0,0,2.48-1.6l-8.07-12.89A1.47,1.47,0,0,0,139.94,347.94Z"/><path class="cls-3" d="M149.14,362.27a2,2,0,0,1-1.78-1l-8.07-12.89a2.19,2.19,0,0,1,.75-3.07,2.12,2.12,0,0,1,3,.67l8.07,12.89a2.18,2.18,0,0,1-.74,3.07A2.52,2.52,0,0,1,149.14,362.27Zm-8.56-14.73,8.07,12.89a.61.61,0,0,0,.92.18.67.67,0,0,0,.26-1l-8.07-12.89a.62.62,0,0,0-.93-.18.68.68,0,0,0-.26,1Z"/><path class="cls-3" d="M103.77,290.15l28.64,45.76a1.47,1.47,0,0,0,2.48-1.59l-28.64-45.76A1.47,1.47,0,0,0,103.77,290.15Z"/><path class="cls-3" d="M133.55,337.35a2.1,2.1,0,0,1-1.79-1l-28.64-45.76a2.19,2.19,0,0,1,.75-3.07,2.13,2.13,0,0,1,3,.67l28.64,45.75a2.14,2.14,0,0,1,.09,2.17,2.42,2.42,0,0,1-2,1.27Zm-29.14-47.6,28.64,45.76a.56.56,0,0,0,.52.31.89.89,0,0,0,.71-.45.6.6,0,0,0,0-.64L105.6,289a.62.62,0,0,0-.92-.17.67.67,0,0,0-.26,1Z"/><path class="cls-3" d="M77,247.31l13.8,22a1.47,1.47,0,0,0,2.47-1.59l-13.8-22A1.47,1.47,0,0,0,77,247.31Z"/><path class="cls-3" d="M91.89,270.79a2,2,0,0,1-1.78-1l-13.8-22a2.18,2.18,0,0,1,.75-3.06,2.11,2.11,0,0,1,3,.66l13.8,22a2.19,2.19,0,0,1-.75,3.07,2.38,2.38,0,0,1-1.24.36ZM77.6,246.91l13.8,22a.62.62,0,0,0,.92.17.68.68,0,0,0,.26-1l-13.8-22a.63.63,0,0,0-.92-.18.67.67,0,0,0-.26,1Z"/><path class="cls-3" d="M120.19,389.23l15.12-.69a1.48,1.48,0,0,0-.12-3l-15.12.69A1.48,1.48,0,0,0,120.19,389.23Z"/><path class="cls-3" d="M120.1,390a2.12,2.12,0,0,1-2.14-2.12,2.19,2.19,0,0,1,2.08-2.36l15.12-.69a2.13,2.13,0,0,1,2.27,2.12,2.19,2.19,0,0,1-2.09,2.36l-15.11.69Zm15.17-3.66h-.05l-15.12.7a.66.66,0,0,0-.62.76.64.64,0,0,0,.62.68h.05l15.12-.7a.66.66,0,0,0,.62-.76.62.62,0,0,0-.62-.67Z"/><path class="cls-3" d="M52.46,392.35l53.63-2.47a1.48,1.48,0,0,0-.12-3l-53.63,2.47A1.48,1.48,0,0,0,52.46,392.35Z"/><path class="cls-3" d="M52.37,393.11A2.12,2.12,0,0,1,50.23,391a2.18,2.18,0,0,1,2.08-2.36l53.63-2.47a2.14,2.14,0,0,1,2.27,2.13,2.18,2.18,0,0,1-2.09,2.35L52.5,393.11Zm53.69-5.42h0l-53.63,2.47a.67.67,0,0,0-.63.76.62.62,0,0,0,.68.67l53.63-2.47a.66.66,0,0,0,.62-.76.63.63,0,0,0-.62-.68Z"/><path class="cls-3" d="M2.24,394.66l25.84-1.19a1.48,1.48,0,0,0-.12-3L2.13,391.7a1.48,1.48,0,0,0,.11,3Z"/><path class="cls-3" d="M2.15,395.43A2.13,2.13,0,0,1,0,393.3a2.19,2.19,0,0,1,2.09-2.36l25.83-1.19a2.15,2.15,0,0,1,2.27,2.13,2.18,2.18,0,0,1-2.08,2.36L2.27,395.43ZM28,391.27H28L2.16,392.46a.67.67,0,0,0-.63.76.6.6,0,0,0,.67.67L28,392.7a.67.67,0,0,0,.63-.76.64.64,0,0,0-.63-.68Z"/><path class="cls-3" d="M145.55,427l7-13.59A1.46,1.46,0,0,0,150,412l-7,13.59A1.46,1.46,0,0,0,145.55,427Z"/><path class="cls-3" d="M144.34,428.51a2.41,2.41,0,0,1-1.09-.27,2.18,2.18,0,0,1-1-3l7-13.58a2.14,2.14,0,0,1,3-.93,2.18,2.18,0,0,1,1,3l-7,13.59a2.09,2.09,0,0,1-1.89,1.19ZM151.21,412a.59.59,0,0,0-.54.37l-7,13.59a.67.67,0,0,0,.32.93.64.64,0,0,0,.92-.27l7-13.59a.66.66,0,0,0-.33-.93.75.75,0,0,0-.37-.1Z"/><path class="cls-3" d="M114,487.87l25-48.22a1.46,1.46,0,0,0-2.59-1.36l-25,48.22A1.46,1.46,0,0,0,114,487.87Z"/><path class="cls-3" d="M112.76,489.41a2.41,2.41,0,0,1-2-1.08,2.11,2.11,0,0,1-.06-2.17l25-48.22a2.14,2.14,0,0,1,3-.92,2.18,2.18,0,0,1,1,3l-25,48.23a2.12,2.12,0,0,1-1.79,1.19h-.1Zm24.84-51.14a.58.58,0,0,0-.54.37l-25,48.22a.63.63,0,0,0,0,.65.89.89,0,0,0,.72.38.6.6,0,0,0,.51-.37l25-48.23a.66.66,0,0,0-.32-.93.78.78,0,0,0-.37-.1Z"/><path class="cls-3" d="M90.58,533l12-23.24a1.46,1.46,0,0,0-2.59-1.36L88,531.66A1.47,1.47,0,0,0,90.58,533Z"/><path class="cls-3" d="M89.36,534.57a2.4,2.4,0,0,1-2-1.09,2.11,2.11,0,0,1-.07-2.16l12-23.23a2.08,2.08,0,0,1,1.79-1.19,2.36,2.36,0,0,1,2.08,1.08,2.09,2.09,0,0,1,.07,2.16l-12,23.24a2.12,2.12,0,0,1-1.79,1.19Zm11.88-26.16h0a.6.6,0,0,0-.51.37L88.66,532a.59.59,0,0,0,0,.65.82.82,0,0,0,.72.38.58.58,0,0,0,.5-.36l12.05-23.24a.63.63,0,0,0,0-.65.91.91,0,0,0-.7-.38Z"/><path class="cls-3" d="M190.65,423.41l-8.07-12.89a1.47,1.47,0,0,0-2.48,1.59L188.17,425A1.47,1.47,0,0,0,190.65,423.41Z"/><path class="cls-3" d="M189.32,426.44a2.1,2.1,0,0,1-1.79-1l-8.07-12.9a2.12,2.12,0,0,1-.1-2.16,2.43,2.43,0,0,1,2-1.27,2.1,2.1,0,0,1,1.86,1L191.3,423a2.1,2.1,0,0,1,.1,2.16,2.38,2.38,0,0,1-2,1.26h-.07Zm-7.88-15.83h0a.84.84,0,0,0-.71.45.6.6,0,0,0,0,.64l8.07,12.89a.57.57,0,0,0,.52.31.84.84,0,0,0,.71-.45.62.62,0,0,0,0-.64l-8.07-12.89A.57.57,0,0,0,181.44,410.61Z"/><path class="cls-3" d="M226.82,481.2l-28.64-45.76a1.47,1.47,0,0,0-2.47,1.6l28.64,45.75A1.47,1.47,0,0,0,226.82,481.2Z"/><path class="cls-3" d="M225.49,484.23a2.08,2.08,0,0,1-1.79-1l-28.64-45.76a2.1,2.1,0,0,1-.1-2.17,2.37,2.37,0,0,1,2-1.25,2.07,2.07,0,0,1,1.86,1l28.64,45.76a2.1,2.1,0,0,1,.1,2.16,2.41,2.41,0,0,1-2,1.27ZM197,435.54h0a.9.9,0,0,0-.71.45.62.62,0,0,0,0,.64L225,482.39a.56.56,0,0,0,.52.31.9.9,0,0,0,.71-.45.6.6,0,0,0-.05-.64l-28.64-45.76a.58.58,0,0,0-.49-.31Z"/><path class="cls-3" d="M253.64,524l-13.8-22a1.47,1.47,0,0,0-2.47,1.59l13.79,22.05A1.48,1.48,0,0,0,253.64,524Z"/><path class="cls-3" d="M252.29,527.07a2.05,2.05,0,0,1-1.78-1l-13.79-22a2.1,2.1,0,0,1-.1-2.17,2.4,2.4,0,0,1,2-1.26,2.09,2.09,0,0,1,1.86,1l13.8,22a2.19,2.19,0,0,1-.75,3.07A2.52,2.52,0,0,1,252.29,527.07Zm-13.59-25h0a.9.9,0,0,0-.71.45.62.62,0,0,0,0,.64l13.79,22.05a.62.62,0,0,0,.92.17.67.67,0,0,0,.26-1l-13.8-22a.56.56,0,0,0-.49-.31Z"/><path class="cls-3" d="M210.4,382.12l-15.12.69a1.48,1.48,0,0,0,.12,3l15.11-.69A1.48,1.48,0,0,0,210.4,382.12Z"/><path class="cls-3" d="M195.31,386.54a2.12,2.12,0,0,1-2.14-2.13,2.17,2.17,0,0,1,2.08-2.35l15.12-.7a2.14,2.14,0,0,1,2.27,2.13,2.19,2.19,0,0,1-2.09,2.36l-15.12.69Zm15.12-3.66-15.12.7a.66.66,0,0,0-.62.76.63.63,0,0,0,.62.68h.05l15.12-.7a.66.66,0,0,0,.62-.76A.62.62,0,0,0,210.43,382.88Z"/><path class="cls-3" d="M278.14,379l-53.63,2.47a1.48,1.48,0,0,0,.11,3L278.25,382A1.48,1.48,0,0,0,278.14,379Z"/><path class="cls-3" d="M224.53,385.2a2.12,2.12,0,0,1-2.14-2.14,2.17,2.17,0,0,1,2.08-2.35l53.63-2.47a2.14,2.14,0,0,1,2.27,2.13,2.19,2.19,0,0,1-2.09,2.35l-53.63,2.47h-.12Zm53.64-5.43-53.63,2.47a.67.67,0,0,0-.63.76.64.64,0,0,0,.64.68h0l53.63-2.47a.67.67,0,0,0,.63-.76c0-.17-.05-.73-.67-.68Z"/><path class="cls-3" d="M328.36,376.7l-25.84,1.19a1.48,1.48,0,0,0,.11,3l25.84-1.19a1.48,1.48,0,0,0-.11-3Z"/><path class="cls-3" d="M302.54,381.61a2.12,2.12,0,0,1-2.14-2.13,2.18,2.18,0,0,1,2.08-2.36l25.84-1.18a2.13,2.13,0,0,1,2.27,2.12,2.19,2.19,0,0,1-2.09,2.36l-25.84,1.19Zm25.85-4.15-25.84,1.19a.67.67,0,0,0-.63.76.62.62,0,0,0,.67.67l25.84-1.19a.67.67,0,0,0,.63-.76.6.6,0,0,0-.67-.67Z"/><path class="cls-3" d="M185.05,344.39,178,358a1.46,1.46,0,0,0,2.59,1.36l7-13.58A1.47,1.47,0,0,0,185.05,344.39Z"/><path class="cls-3" d="M179.38,360.88a2.41,2.41,0,0,1-2-1.08,2.12,2.12,0,0,1-.07-2.16l7.05-13.59a2.1,2.1,0,0,1,1.79-1.19,2.38,2.38,0,0,1,2.09,1.08,2.13,2.13,0,0,1,.07,2.17l-7,13.58a2.1,2.1,0,0,1-1.8,1.19Zm6.88-16.5h0a.55.55,0,0,0-.5.36l-7,13.59a.63.63,0,0,0,0,.65.87.87,0,0,0,.73.38.6.6,0,0,0,.51-.37l7-13.59a.61.61,0,0,0,0-.64A.91.91,0,0,0,186.26,344.38Z"/><path class="cls-3" d="M216.61,283.48l-25,48.22a1.47,1.47,0,0,0,2.59,1.37l25-48.22A1.47,1.47,0,0,0,216.61,283.48Z"/><path class="cls-3" d="M193,334.62a2.37,2.37,0,0,1-2-1.09,2.09,2.09,0,0,1-.07-2.16l25-48.23a2.13,2.13,0,0,1,3-.92,2.18,2.18,0,0,1,1,3l-25,48.22a2.13,2.13,0,0,1-1.8,1.19H193Zm24.3-50.78-25,48.23a.59.59,0,0,0,0,.65.84.84,0,0,0,.72.38.6.6,0,0,0,.51-.37l25-48.23a.66.66,0,0,0-.32-.93A.63.63,0,0,0,217.29,283.84Z"/><path class="cls-3" d="M240,238.33l-12,23.23a1.46,1.46,0,0,0,2.58,1.36l12-23.23A1.46,1.46,0,0,0,240,238.33Z"/><path class="cls-3" d="M229.35,264.46a2.39,2.39,0,0,1-2-1.08,2.09,2.09,0,0,1-.06-2.16l12-23.24a2.12,2.12,0,0,1,1.79-1.19,2.4,2.4,0,0,1,2.09,1.09,2.09,2.09,0,0,1,.06,2.16l-12,23.24a2.09,2.09,0,0,1-1.79,1.18Zm11.35-25.78-12,23.23a.59.59,0,0,0,0,.65.8.8,0,0,0,.72.38.57.57,0,0,0,.5-.37l12.05-23.23a.63.63,0,0,0,0-.65.88.88,0,0,0-.73-.38.6.6,0,0,0-.51.37Z"/><g class="cls-4"><path class="cls-3" d="M189.6,70.19a1.41,1.41,0,0,0,.52,1.3,1.29,1.29,0,0,0,.79.28,1.49,1.49,0,0,0,.51-.1l30-12a1.34,1.34,0,0,0-1-2.49l-30,12a1.3,1.3,0,0,0-.82,1Z"/><path class="cls-3" d="M246.22,47.6a1.25,1.25,0,0,0-1.29-.17l-14.32,5.71a1.27,1.27,0,0,0-.82,1,1.42,1.42,0,0,0,.52,1.3,1.29,1.29,0,0,0,.8.27,1.27,1.27,0,0,0,.5-.1l14.32-5.71a1.27,1.27,0,0,0,.81-1,1.42,1.42,0,0,0-.52-1.3Z"/><path class="cls-3" d="M176.34,57.24a1.36,1.36,0,0,0,.56.11,1.28,1.28,0,0,0,1.19-.8l12.73-29.64a1.34,1.34,0,0,0-2.46-1.06L175.63,55.49a1.3,1.3,0,0,0,.71,1.74Z"/><path class="cls-3" d="M193.4,17.52a1.35,1.35,0,0,0,.55.11,1.29,1.29,0,0,0,1.2-.8l6.08-14.16a1.3,1.3,0,0,0-.71-1.74,1.31,1.31,0,0,0-1.76.68l-6.07,14.16a1.29,1.29,0,0,0,.71,1.74Z"/><path class="cls-3" d="M155.47,56.26a1.3,1.3,0,0,0,1.22.83,1.37,1.37,0,0,0,.52-.1,1.31,1.31,0,0,0,.76-1.73L146,25.31a1.35,1.35,0,0,0-2.5,1l12,30Z"/><path class="cls-3" d="M139.41,16.13a1.3,1.3,0,0,0,1.22.83,1.46,1.46,0,0,0,.53-.1,1.31,1.31,0,0,0,.75-1.73L136.19.83a1.25,1.25,0,0,0-1-.82,1.42,1.42,0,0,0-1.3.52,1.3,1.3,0,0,0-.17,1.3l5.71,14.3Z"/><path class="cls-3" d="M142.31,71.16a1.3,1.3,0,0,0,.77-.26,1.42,1.42,0,0,0,.55-1.28,1.28,1.28,0,0,0-.8-1L113.16,55.87a1.34,1.34,0,0,0-1.06,2.46L141.77,71A1.32,1.32,0,0,0,142.31,71.16Z"/><path class="cls-3" d="M87.83,47.94,102,54a1.49,1.49,0,0,0,.54.11,1.35,1.35,0,0,0,.52-2.58L88.89,45.47a1.29,1.29,0,0,0-1.3.15A1.42,1.42,0,0,0,87,46.9a1.29,1.29,0,0,0,.79,1Z"/><path class="cls-3" d="M143.37,90.15a1.42,1.42,0,0,0-.52-1.3,1.27,1.27,0,0,0-1.3-.17l-30,12a1.35,1.35,0,0,0,.49,2.59,1.36,1.36,0,0,0,.51-.1l30-12a1.27,1.27,0,0,0,.82-1Z"/><path class="cls-3" d="M103.18,106.18a1.4,1.4,0,0,0-.52-1.29,1.3,1.3,0,0,0-1.3-.18L87,110.42a1.29,1.29,0,0,0-.81,1,1.4,1.4,0,0,0,.52,1.29,1.29,1.29,0,0,0,.79.28,1.24,1.24,0,0,0,.5-.1l14.32-5.71a1.28,1.28,0,0,0,.82-1Z"/><path class="cls-3" d="M156.63,103.1a1.31,1.31,0,0,0-1.75.69l-12.73,29.63a1.29,1.29,0,0,0,.14,1.3,1.41,1.41,0,0,0,1.13.56h.16a1.29,1.29,0,0,0,1-.79l12.73-29.63a1.31,1.31,0,0,0-.72-1.75Z"/><path class="cls-3" d="M139.57,142.82a1.32,1.32,0,0,0-1.76.69l-6.08,14.15a1.29,1.29,0,0,0,.15,1.3,1.39,1.39,0,0,0,1.13.56h.16a1.29,1.29,0,0,0,1-.79l6.08-14.15a1.31,1.31,0,0,0-.71-1.75Z"/><path class="cls-3" d="M177.5,104.07a1.35,1.35,0,0,0-2.5,1L187,135a1.29,1.29,0,0,0,1,.82l.19,0a1.4,1.4,0,0,0,1.1-.54,1.3,1.3,0,0,0,.18-1.29l-12-30Z"/><path class="cls-3" d="M193.56,144.21a1.33,1.33,0,0,0-1-.82,1.45,1.45,0,0,0-1.29.52,1.3,1.3,0,0,0-.18,1.3l5.72,14.3a1.3,1.3,0,0,0,1.21.83,1.26,1.26,0,0,0,.53-.11,1.31,1.31,0,0,0,.76-1.73l-5.72-14.3Z"/><path class="cls-3" d="M191.2,89.3a1.34,1.34,0,0,0-1.06,2.46l29.67,12.71a1.4,1.4,0,0,0,.53.11,1.27,1.27,0,0,0,.77-.25,1.42,1.42,0,0,0,.55-1.28,1.29,1.29,0,0,0-.79-1L191.2,89.3Z"/><path class="cls-3" d="M245.14,112.41,231,106.34a1.34,1.34,0,0,0-1.06,2.47l14.17,6.07a1.45,1.45,0,0,0,.54.11,1.35,1.35,0,0,0,.52-2.58Z"/><path class="cls-3" d="M199.71,58.26a1.35,1.35,0,0,0,.7,2.49,1.34,1.34,0,0,0,.71-.2l16.11-9.87a1.34,1.34,0,0,0-1.4-2.29l-16.12,9.86Z"/><path class="cls-3" d="M226.1,44.51a1.28,1.28,0,0,0,.61.15,1.38,1.38,0,0,0,.7-.2l7.69-4.7a1.32,1.32,0,0,0,.43-1.84,1.3,1.3,0,0,0-1.84-.45L226,42.17a1.29,1.29,0,0,0-.64,1.15,1.43,1.43,0,0,0,.74,1.19Z"/><path class="cls-3" d="M175.8,42.85a1.27,1.27,0,0,0,1.28-1l4.41-18.36a1.27,1.27,0,0,0-.36-1.26,1.42,1.42,0,0,0-1.36-.33,1.3,1.3,0,0,0-.89,1l-4.41,18.36a1.27,1.27,0,0,0,.36,1.26,1.46,1.46,0,0,0,1,.38Z"/><path class="cls-3" d="M183,12.91a1.32,1.32,0,0,0,.39-.06,1.28,1.28,0,0,0,.89-1l2.11-8.75A1.32,1.32,0,0,0,186,1.88a1.48,1.48,0,0,0-1.36-.33,1.26,1.26,0,0,0-.89,1l-2.11,8.76a1.28,1.28,0,0,0,.36,1.26A1.46,1.46,0,0,0,183,12.91Z"/><path class="cls-3" d="M145.65,47.62a1.36,1.36,0,0,0,1.18-2L137,29.48a1.35,1.35,0,0,0-2.3,1.41L144.53,47a1.28,1.28,0,0,0,1.12.64Z"/><path class="cls-3" d="M128.43,20.73a1.28,1.28,0,0,0,1.11.63h0a1.39,1.39,0,0,0,1.19-.73,1.28,1.28,0,0,0,0-1.31L126,11.64a1.32,1.32,0,0,0-1.84-.43,1.3,1.3,0,0,0-.46,1.83l4.71,7.68Z"/><path class="cls-3" d="M109.09,67.79l18.38,4.41a2,2,0,0,0,.33,0,1.35,1.35,0,0,0,.3-2.66l-18.39-4.4a1.34,1.34,0,0,0-.62,2.61Z"/><path class="cls-3" d="M89.35,60.3a1.27,1.27,0,0,0-1.26.36A1.42,1.42,0,0,0,87.76,62a1.28,1.28,0,0,0,1,.89L97.49,65a1.24,1.24,0,0,0,.33,0,1.35,1.35,0,0,0,.3-2.66l-8.77-2.1Z"/><path class="cls-3" d="M117.13,112l16.12-9.87a1.34,1.34,0,0,0-1.4-2.29l-16.12,9.87a1.35,1.35,0,0,0,.7,2.49,1.29,1.29,0,0,0,.7-.2Z"/><path class="cls-3" d="M106.87,115.84a1.32,1.32,0,0,0-1.32,0l-7.69,4.71a1.31,1.31,0,0,0-.42,1.84,1.32,1.32,0,0,0,1.13.65,1.41,1.41,0,0,0,.7-.2l7.69-4.71a1.27,1.27,0,0,0,.63-1.14,1.41,1.41,0,0,0-.73-1.19Z"/><path class="cls-3" d="M156.78,117.55a1.29,1.29,0,0,0-.9,1l-4.41,18.36a1.3,1.3,0,0,0,1,1.6,1.37,1.37,0,0,0,.34,0,1.29,1.29,0,0,0,1.28-1l4.41-18.36a1.28,1.28,0,0,0-.36-1.26,1.43,1.43,0,0,0-1.36-.32Z"/><path class="cls-3" d="M149.58,147.49a1.3,1.3,0,0,0-.89,1l-2.11,8.75a1.32,1.32,0,0,0,.36,1.26,1.41,1.41,0,0,0,1,.38,1.29,1.29,0,0,0,1.29-1l2.1-8.76a1.27,1.27,0,0,0-.36-1.26,1.41,1.41,0,0,0-1.36-.33Z"/><path class="cls-3" d="M197.12,131.5a1.4,1.4,0,0,0,.73-.21,1.31,1.31,0,0,0,.45-1.83l-9.88-16.1a1.32,1.32,0,0,0-1.84-.43,1.29,1.29,0,0,0-.45,1.83l9.88,16.1a1.3,1.3,0,0,0,1.11.64Z"/><path class="cls-3" d="M204.54,139.61a1.35,1.35,0,0,0-2.3,1.41l4.72,7.67a1.28,1.28,0,0,0,1.11.64,1.34,1.34,0,0,0,.73-.21,1.31,1.31,0,0,0,.45-1.83l-4.71-7.68Z"/><path class="cls-3" d="M223.88,92.55,205.5,88.14a1.35,1.35,0,0,0-.63,2.62l18.39,4.41a1.23,1.23,0,0,0,.33,0,1.35,1.35,0,0,0,.29-2.65Z"/><path class="cls-3" d="M233.88,96.33a1.28,1.28,0,0,0,1,1.61l8.76,2.11a1.84,1.84,0,0,0,.33,0,1.35,1.35,0,0,0,.3-2.65l-8.77-2.1a1.3,1.3,0,0,0-1.6,1Z"/><path class="cls-3" d="M208,75.62a.68.68,0,0,0,.2,0l8.35-1.19a1.34,1.34,0,0,0-.38-2.66l-8.35,1.19a1.35,1.35,0,0,0,.17,2.68Z"/><path class="cls-3" d="M221.4,72.38a1.31,1.31,0,0,0,1.3,1.15h.2l14.11-2a1.31,1.31,0,0,0,1-.8,1.43,1.43,0,0,0-.2-1.38,1.31,1.31,0,0,0-1.22-.48l-14.11,2a1.31,1.31,0,0,0-1.13,1.52Z"/><path class="cls-3" d="M191.71,48a1.29,1.29,0,0,0,1-.54l5.07-6.73a1.35,1.35,0,0,0-2.16-1.62l-5.06,6.74a1.3,1.3,0,0,0,.28,1.86,1.42,1.42,0,0,0,.83.29Z"/><path class="cls-3" d="M199.34,35.31a1.44,1.44,0,0,0,1.12.84h.15a1.29,1.29,0,0,0,1-.54l8.56-11.38a1.35,1.35,0,0,0-2.16-1.62L199.5,34a1.26,1.26,0,0,0-.16,1.29Z"/><path class="cls-3" d="M161.91,38.5l-1.19-8.34a1.35,1.35,0,0,0-2.67.38l1.19,8.34a1.33,1.33,0,0,0,.8,1,1.58,1.58,0,0,0,.52.09,1.38,1.38,0,0,0,.87-.29,1.32,1.32,0,0,0,.48-1.22Z"/><path class="cls-3" d="M155.15,10.12l2,14.09a1.32,1.32,0,0,0,1.31,1.13,1.4,1.4,0,0,0,.87-.29,1.29,1.29,0,0,0,.48-1.22l-2-14.09a1.35,1.35,0,0,0-2.67.38Z"/><path class="cls-3" d="M132.12,56.08a1.33,1.33,0,0,0,.8.27,1.27,1.27,0,0,0,.5-.1,1.42,1.42,0,0,0,.84-1.12,1.28,1.28,0,0,0-.53-1.19L127,48.88A1.35,1.35,0,0,0,125.37,51l6.75,5.06Z"/><path class="cls-3" d="M108.87,38.63l11.4,8.55a1.29,1.29,0,0,0,1.87-.28,1.31,1.31,0,0,0-.26-1.87l-11.4-8.55a1.34,1.34,0,0,0-1.61,2.15Z"/><path class="cls-3" d="M124.75,84.74l-8.35,1.19a1.33,1.33,0,0,0-1,.8,1.42,1.42,0,0,0,.2,1.38,1.29,1.29,0,0,0,1,.5.62.62,0,0,0,.19,0l8.36-1.19a1.3,1.3,0,0,0,.93-.58,1.37,1.37,0,0,0,.19-.93,1.32,1.32,0,0,0-1.51-1.15Z"/><path class="cls-3" d="M111.57,88a1.32,1.32,0,0,0-1.51-1.15l-14.1,2a1.3,1.3,0,0,0-1,.8,1.38,1.38,0,0,0,.2,1.38,1.29,1.29,0,0,0,1,.49.71.71,0,0,0,.2,0l14.11-2A1.31,1.31,0,0,0,111.57,88Z"/><path class="cls-3" d="M141.42,112.35a1.26,1.26,0,0,0-1.2.52l-5.07,6.73a1.28,1.28,0,0,0-.16,1.3,1.42,1.42,0,0,0,1.11.84h.16a1.29,1.29,0,0,0,1.05-.54l5.06-6.73a1.3,1.3,0,0,0,.17-1.3,1.42,1.42,0,0,0-1.12-.83Z"/><path class="cls-3" d="M133.18,124.47a1.31,1.31,0,0,0-1.87.25l-8.56,11.38a1.3,1.3,0,0,0-.17,1.3,1.42,1.42,0,0,0,1.11.84h.16a1.29,1.29,0,0,0,1.05-.54l8.56-11.38a1.31,1.31,0,0,0-.28-1.87Z"/><path class="cls-3" d="M173.77,131.31a1.31,1.31,0,0,0,1.14-1.5l-1.19-8.35a1.34,1.34,0,0,0-2.66.39l1.19,8.34a1.29,1.29,0,0,0,1.3,1.13h.22Z"/><path class="cls-3" d="M177.82,150.23l-2-14.09a1.28,1.28,0,0,0-.8-1,1.4,1.4,0,0,0-1.38.2,1.29,1.29,0,0,0-.48,1.22l2,14.09a1.28,1.28,0,0,0,1.3,1.13h.21a1.31,1.31,0,0,0,1.15-1.5Z"/><path class="cls-3" d="M200.84,104.26a1.35,1.35,0,0,0-1.62,2.15l6.74,5.06a1.4,1.4,0,0,0,.8.27,1.24,1.24,0,0,0,.5-.1,1.44,1.44,0,0,0,.84-1.12,1.29,1.29,0,0,0-.53-1.19l-6.74-5.06Z"/><path class="cls-3" d="M224.1,121.7l-11.39-8.55a1.32,1.32,0,0,0-1.88.29,1.3,1.3,0,0,0,.26,1.86l11.4,8.55a1.31,1.31,0,0,0,.79.28,1.1,1.1,0,0,0,.5-.11,1.42,1.42,0,0,0,.84-1.11,1.26,1.26,0,0,0-.52-1.2Z"/><path class="cls-3" d="M220.06,84.4a1.28,1.28,0,0,0,1.1-.59,1.43,1.43,0,0,0,.07-1.39,1.31,1.31,0,0,0-1.11-.7l-27.31-1.35a1.32,1.32,0,0,0-1.17.58,1.43,1.43,0,0,0-.07,1.4,1.3,1.3,0,0,0,1.11.7L220,84.4Z"/><path class="cls-3" d="M231.39,85a1.35,1.35,0,0,0,.06-2.7L225.93,82a1.31,1.31,0,0,0-1.17.59,1.41,1.41,0,0,0-.07,1.39,1.31,1.31,0,0,0,1.11.7l5.52.28h.07Z"/><path class="cls-3" d="M184.84,63.29a1.36,1.36,0,0,0,1,.45,1.29,1.29,0,0,0,.89-.35L207,45.06a1.29,1.29,0,0,0,.08-1.88,1.32,1.32,0,0,0-1.89-.11L184.92,61.4a1.31,1.31,0,0,0-.08,1.89Z"/><path class="cls-3" d="M209.42,41.05a1.31,1.31,0,0,0,1.89.11l4.09-3.71a1.29,1.29,0,0,0,.08-1.88,1.31,1.31,0,0,0-1.89-.11l-4.09,3.71A1.29,1.29,0,0,0,209.42,41.05Z"/><path class="cls-3" d="M169.37,25.24a1.43,1.43,0,0,0-1.4-.06,1.28,1.28,0,0,0-.7,1.1l-1.35,27.28a1.29,1.29,0,0,0,1.27,1.38h.08a1.29,1.29,0,0,0,1.33-1.25L170,26.41a1.32,1.32,0,0,0-.59-1.17Z"/><path class="cls-3" d="M169.93,13.93a1.41,1.41,0,0,0-1.39-.07,1.31,1.31,0,0,0-.71,1.11l-.27,5.51a1.31,1.31,0,0,0,1.27,1.39h.08a1.31,1.31,0,0,0,1.34-1.26l.27-5.51a1.31,1.31,0,0,0-.59-1.17Z"/><path class="cls-3" d="M148.17,61.84a1.45,1.45,0,0,0,1-.94,1.27,1.27,0,0,0-.29-1.28L130.57,39.38a1.35,1.35,0,0,0-2,1.81l18.36,20.24a1.33,1.33,0,0,0,1,.44l.27,0Z"/><path class="cls-3" d="M124.67,36.89a1.3,1.3,0,0,0,1,.44,1.33,1.33,0,0,0,.91-.37,1.29,1.29,0,0,0,.11-1.88L123,31a1.3,1.3,0,0,0-1.24-.41,1.45,1.45,0,0,0-1,.94,1.25,1.25,0,0,0,.29,1.27l3.71,4.09Z"/><path class="cls-3" d="M139.15,80.41a1.28,1.28,0,0,0,1.1-.59,1.43,1.43,0,0,0,.07-1.39,1.31,1.31,0,0,0-1.11-.7L111.9,76.38a1.33,1.33,0,0,0-1.17.59,1.41,1.41,0,0,0-.07,1.39,1.3,1.3,0,0,0,1.11.7l27.31,1.35Z"/><path class="cls-3" d="M99.18,77.1a1.31,1.31,0,0,0,1.26,1.41l5.52.27H106a1.28,1.28,0,0,0,1.1-.59,1.41,1.41,0,0,0,.06-1.39,1.28,1.28,0,0,0-1.1-.7l-5.52-.28a1.3,1.3,0,0,0-1.39,1.28Z"/><path class="cls-3" d="M147.37,98.13a1.42,1.42,0,0,0-.94-1,1.25,1.25,0,0,0-1.27.29l-20.27,18.33a1.29,1.29,0,0,0-.07,1.88,1.3,1.3,0,0,0,1.88.11L147,99.38a1.31,1.31,0,0,0,.41-1.25Z"/><path class="cls-3" d="M122.46,119.73a1.3,1.3,0,0,0-1.88-.11l-4.09,3.71a1.29,1.29,0,0,0-.08,1.88,1.31,1.31,0,0,0,1.89.11l4.09-3.71A1.3,1.3,0,0,0,122.46,119.73Z"/><path class="cls-3" d="M165.37,106.05A1.41,1.41,0,0,0,164,106a1.29,1.29,0,0,0-.71,1.1l-1.35,27.28a1.32,1.32,0,0,0,.59,1.17,1.49,1.49,0,0,0,.76.22,1.34,1.34,0,0,0,1.34-1.26L166,107.21A1.27,1.27,0,0,0,165.37,106.05Z"/><path class="cls-3" d="M163.05,138.9a1.3,1.3,0,0,0-1.41,1.26l-.27,5.51a1.28,1.28,0,0,0,.58,1.17,1.41,1.41,0,0,0,.77.22,1.36,1.36,0,0,0,.63-.15,1.3,1.3,0,0,0,.7-1.11l.28-5.51a1.31,1.31,0,0,0-1.28-1.39Z"/><path class="cls-3" d="M202.57,121.8a1.42,1.42,0,0,0,1-.94,1.27,1.27,0,0,0-.29-1.28L185,99.34a1.31,1.31,0,0,0-1.25-.41,1.44,1.44,0,0,0-1,.94,1.27,1.27,0,0,0,.29,1.28l18.35,20.24a1.33,1.33,0,0,0,1,.44l.28,0Z"/><path class="cls-3" d="M207.22,123.89a1.35,1.35,0,0,0-2,1.81l3.71,4.08a1.31,1.31,0,0,0,1,.45,1.42,1.42,0,0,0,.92-.37,1.3,1.3,0,0,0,.1-1.88l-3.71-4.09Z"/></g><g class="cls-5"><path class="cls-3" d="M932.56,169.38v31a.82.82,0,0,0,1.63,0v-31A.82.82,0,0,0,932.56,169.38Z"/><path class="cls-3" d="M933.37,202.17a1.76,1.76,0,0,1-1.82-1.79v-31a1.82,1.82,0,0,1,3.64,0v31A1.76,1.76,0,0,1,933.37,202.17Z"/><path class="cls-3" d="M932.56,138.93v14.14a.82.82,0,0,0,1.63,0V138.93A.82.82,0,0,0,932.56,138.93Z"/><path class="cls-3" d="M933.37,154.86a1.76,1.76,0,0,1-1.82-1.79V138.93a1.82,1.82,0,0,1,3.64,0v14.14A1.76,1.76,0,0,1,933.37,154.86Z"/><path class="cls-3" d="M868.33,207.41l26.84,15.5a.82.82,0,0,0,.82-1.41L869.15,206a.82.82,0,0,0-.82,1.41Z"/><path class="cls-3" d="M895.58,224a1.79,1.79,0,0,1-.91-.25l-26.85-15.5a1.75,1.75,0,0,1-.9-1.52,1.92,1.92,0,0,1,1-1.64,1.75,1.75,0,0,1,1.77,0l26.84,15.5a1.76,1.76,0,0,1,.9,1.52,1.92,1.92,0,0,1-1,1.64,1.76,1.76,0,0,1-.86.23Zm-26.75-17.48-.5.87Z"/><path class="cls-3" d="M842,192.18l12.25,7.07a.82.82,0,0,0,.82-1.41l-12.25-7.07a.82.82,0,0,0-.82,1.41Z"/><path class="cls-3" d="M854.61,200.37a1.79,1.79,0,0,1-.91-.25l-12.25-7.07a1.82,1.82,0,0,1,1.82-3.15L855.52,197a1.77,1.77,0,0,1,.64,2.47A1.79,1.79,0,0,1,854.61,200.37Z"/><path class="cls-3" d="M869.14,282.05,896,266.55a.82.82,0,0,0-.82-1.41l-26.84,15.5a.82.82,0,0,0,.82,1.41Z"/><path class="cls-3" d="M868.73,283.16a1.76,1.76,0,0,1-.86-.23,1.93,1.93,0,0,1-1-1.64,1.75,1.75,0,0,1,.9-1.52l26.84-15.5a1.78,1.78,0,0,1,1.77,0,1.93,1.93,0,0,1,1,1.64,1.73,1.73,0,0,1-.9,1.52l-26.84,15.5a1.89,1.89,0,0,1-.91.25Zm.09-1.66.32.55Zm-.18-.32.18.32Z"/><path class="cls-3" d="M842.77,297.27,855,290.2a.82.82,0,0,0-.82-1.41L842,295.86a.82.82,0,0,0,.82,1.41Z"/><path class="cls-3" d="M842.36,298.39a1.8,1.8,0,0,1-1.55-.93,1.77,1.77,0,0,1,.64-2.47l12.25-7.07a1.78,1.78,0,0,1,1.77,0,1.93,1.93,0,0,1,.95,1.64,1.75,1.75,0,0,1-.9,1.52l-12.25,7.07a1.79,1.79,0,0,1-.91.25Z"/><path class="cls-3" d="M934.19,318.66v-31a.82.82,0,0,0-1.63,0v31A.82.82,0,0,0,934.19,318.66Z"/><path class="cls-3" d="M933.37,320.45a1.76,1.76,0,0,1-1.82-1.79v-31a1.82,1.82,0,0,1,3.64,0v31A1.76,1.76,0,0,1,933.37,320.45Z"/><path class="cls-3" d="M934.19,349.11V335a.82.82,0,0,0-1.63,0v14.14a.82.82,0,0,0,1.63,0Z"/><path class="cls-3" d="M933.37,350.9a1.76,1.76,0,0,1-1.82-1.79V335a1.82,1.82,0,0,1,3.64,0v14.14a1.76,1.76,0,0,1-1.82,1.79Z"/><path class="cls-3" d="M998.42,280.63l-26.84-15.5a.82.82,0,0,0-.82,1.41L997.6,282A.82.82,0,0,0,998.42,280.63Z"/><path class="cls-3" d="M998,283.16a1.79,1.79,0,0,1-.91-.25l-26.84-15.5a1.82,1.82,0,0,1,1.82-3.15l26.84,15.5a1.75,1.75,0,0,1,.9,1.52,1.92,1.92,0,0,1-1,1.64,1.76,1.76,0,0,1-.86.23Zm-.09-1.66.5-.87Z"/><path class="cls-3" d="M1024.79,295.86l-12.25-7.07a.82.82,0,0,0-.82,1.41l12.25,7.07A.82.82,0,0,0,1024.79,295.86Z"/><path class="cls-3" d="M1024.39,298.39a1.81,1.81,0,0,1-.91-.25l-12.25-7.07a1.82,1.82,0,0,1,1.82-3.15L1025.3,295a1.77,1.77,0,0,1,.64,2.47A1.79,1.79,0,0,1,1024.39,298.39Z"/><path class="cls-3" d="M997.6,206l-26.84,15.5a.82.82,0,0,0,.82,1.41l26.84-15.5A.82.82,0,0,0,997.6,206Z"/><path class="cls-3" d="M971.17,224a1.79,1.79,0,0,1-1.55-.93,1.77,1.77,0,0,1,.64-2.47l26.84-15.5a1.78,1.78,0,0,1,1.77,0,1.93,1.93,0,0,1,1,1.64,1.75,1.75,0,0,1-.9,1.52l-26.84,15.5a1.79,1.79,0,0,1-.91.25Zm26.75-17.48.18.32Zm-.32-.55.32.55Z"/><path class="cls-3" d="M1024,190.77l-12.25,7.07a.82.82,0,0,0,.82,1.41l12.25-7.07A.82.82,0,0,0,1024,190.77Z"/><path class="cls-3" d="M1012.14,200.37a1.8,1.8,0,0,1-1.55-.93,1.77,1.77,0,0,1,.64-2.47l12.25-7.07a1.82,1.82,0,0,1,1.82,3.15l-12.25,7.07A1.79,1.79,0,0,1,1012.14,200.37Z"/><path class="cls-3" d="M904.26,279.52l8.79-10.37a.82.82,0,0,0-1.24-1.06L903,278.46a.82.82,0,0,0,1.24,1.06Z"/><path class="cls-3" d="M903.68,280.81a1.86,1.86,0,0,1-1.19-.45,1.76,1.76,0,0,1-.23-2.54l8.79-10.37a1.82,1.82,0,0,1,2.77,2.35L905,280.17a1.77,1.77,0,0,1-1.35.64Zm-.18-1.94.76.65Z"/><path class="cls-3" d="M871.55,318.09,897.93,287a.82.82,0,0,0-1.24-1.06L870.31,317a.82.82,0,0,0,1.24,1.06Z"/><path class="cls-3" d="M871,319.38a1.86,1.86,0,0,1-1.19-.45,1.76,1.76,0,0,1-.23-2.54l26.38-31.1a1.72,1.72,0,0,1,1.66-.61A1.92,1.92,0,0,1,899,285.9a1.76,1.76,0,0,1-.33,1.74l-26.38,31.11a1.74,1.74,0,0,1-1.35.64Z"/><path class="cls-3" d="M949.63,286.94l-4.58-12.8a.82.82,0,0,0-1.54.55l4.58,12.8A.82.82,0,0,0,949.63,286.94Z"/><path class="cls-3" d="M948.82,289a1.23,1.23,0,0,1-.33,0,1.74,1.74,0,0,1-1.34-1.16L942.57,275A1.82,1.82,0,0,1,946,273.8l4.58,12.8a1.74,1.74,0,0,1-.3,1.74A1.93,1.93,0,0,1,948.82,289Zm-.13-1.73.94-.34Z"/><path class="cls-3" d="M966.68,334.56l-13.75-38.4a.82.82,0,0,0-1.54.55l13.75,38.4A.82.82,0,0,0,966.68,334.56Z"/><path class="cls-3" d="M965.86,336.63a1.23,1.23,0,0,1-.33,0,1.74,1.74,0,0,1-1.34-1.16L950.44,297a1.74,1.74,0,0,1,.3-1.74,1.91,1.91,0,0,1,1.78-.64,1.74,1.74,0,0,1,1.34,1.16l13.75,38.4a1.74,1.74,0,0,1-.3,1.74A1.93,1.93,0,0,1,965.86,336.63Zm-.13-1.73.94-.34Z"/><path class="cls-3" d="M978.74,251.36l-13.38-2.43a.82.82,0,0,0-.29,1.61L978.45,253A.82.82,0,0,0,978.74,251.36Z"/><path class="cls-3" d="M978.61,254a1.31,1.31,0,0,1-.34,0l-13.38-2.43a1.82,1.82,0,0,1,.65-3.58l13.38,2.43a1.82,1.82,0,0,1-.31,3.61Z"/><path class="cls-3" d="M1028.5,260.4l-40.13-7.29a.82.82,0,0,0-.29,1.61l40.13,7.29A.82.82,0,0,0,1028.5,260.4Z"/><path class="cls-3" d="M1028.37,263a1.31,1.31,0,0,1-.34,0l-40.13-7.3a1.82,1.82,0,0,1,.65-3.58l40.13,7.3a1.82,1.82,0,0,1-.31,3.61Z"/><path class="cls-3" d="M962.48,208.36l-8.79,10.37a.82.82,0,0,0,1.24,1.06l8.79-10.37a.82.82,0,0,0-1.24-1.06Z"/><path class="cls-3" d="M954.35,221.07a1.86,1.86,0,0,1-1.19-.45,1.76,1.76,0,0,1-.23-2.54l8.79-10.37a1.82,1.82,0,0,1,2.77,2.35l-8.79,10.37a1.77,1.77,0,0,1-1.35.64Z"/><path class="cls-3" d="M995.19,169.79,968.81,200.9a.82.82,0,0,0,1.24,1.06l26.38-31.11a.82.82,0,0,0-1.24-1.06Z"/><path class="cls-3" d="M969.47,203.24a1.86,1.86,0,0,1-1.19-.45,1.76,1.76,0,0,1-.23-2.54l26.38-31.1a1.82,1.82,0,0,1,2.77,2.35l-26.38,31.11a1.74,1.74,0,0,1-1.35.64Zm26.21-33,.28.24Zm-.48-.41.48.41Z"/><path class="cls-3" d="M917.11,200.94l4.58,12.8a.82.82,0,0,0,1.54-.55l-4.58-12.8A.82.82,0,0,0,917.11,200.94Z"/><path class="cls-3" d="M922.42,215.26a1.23,1.23,0,0,1-.33,0,1.74,1.74,0,0,1-1.34-1.16l-4.58-12.8a1.82,1.82,0,0,1,3.42-1.22l4.58,12.8a1.74,1.74,0,0,1-.3,1.74,1.94,1.94,0,0,1-1.46.67Zm-4.36-14.66-.94.34Z"/><path class="cls-3" d="M900.07,153.32l13.75,38.4a.82.82,0,0,0,1.54-.55l-13.75-38.4a.82.82,0,0,0-1.54.55Z"/><path class="cls-3" d="M914.53,193.25a1.74,1.74,0,0,1-1.66-1.19l-13.75-38.4a1.74,1.74,0,0,1,.3-1.74,2,2,0,0,1,1.78-.64,1.74,1.74,0,0,1,1.34,1.16l13.75,38.4a1.75,1.75,0,0,1-1.11,2.29A1.91,1.91,0,0,1,914.53,193.25Zm-13.87-40.14-.59.21Zm0,0L901,153Z"/><path class="cls-3" d="M888,236.52,901.38,239a.82.82,0,0,0,.29-1.61l-13.38-2.43a.82.82,0,0,0-.29,1.61Z"/><path class="cls-3" d="M901.54,240a1.34,1.34,0,0,1-.34,0l-13.38-2.43a1.76,1.76,0,0,1-1.36-1.13,1.93,1.93,0,0,1,.34-1.86,1.74,1.74,0,0,1,1.67-.58l13.38,2.43a1.76,1.76,0,0,1,1.36,1.13,1.93,1.93,0,0,1-.34,1.86A1.76,1.76,0,0,1,901.54,240Zm-13.36-4.43-.18,1Z"/><path class="cls-3" d="M838.24,227.48l40.13,7.29a.82.82,0,0,0,.29-1.61l-40.12-7.29a.82.82,0,0,0-.29,1.61Z"/><path class="cls-3" d="M878.53,235.79a1.34,1.34,0,0,1-.34,0l-40.12-7.3a1.76,1.76,0,0,1-1.36-1.13,1.93,1.93,0,0,1,.34-1.86,1.74,1.74,0,0,1,1.67-.58l40.13,7.29a1.76,1.76,0,0,1,1.36,1.13,1.93,1.93,0,0,1-.34,1.86,1.74,1.74,0,0,1-1.33.61Zm-40.11-9.3-.18,1Z"/><path class="cls-3" d="M884.44,186.67,911,218.38a.82.82,0,0,0,1.25-1l-26.51-31.71a.82.82,0,0,0-1.25,1Z"/><path class="cls-3" d="M911.54,219.68a1.76,1.76,0,0,1-1.36-.65l-26.51-31.71a1.82,1.82,0,0,1,2.79-2.33L913,216.7a1.74,1.74,0,0,1,.32,1.74,1.92,1.92,0,0,1-1.45,1.21l-.3,0Z"/><path class="cls-3" d="M872.93,172.9l5.93,7.09a.82.82,0,0,0,1.25-1.05l-5.93-7.09a.82.82,0,0,0-1.25,1.05Z"/><path class="cls-3" d="M879.45,181.29a1.76,1.76,0,0,1-1.36-.65l-5.93-7.09a1.82,1.82,0,0,1,2.79-2.33l5.93,7.09a1.74,1.74,0,0,1,.32,1.74,1.92,1.92,0,0,1-1.45,1.21,1.53,1.53,0,0,1-.3,0Zm-6-8.79-.48.41Zm0,0,.28-.24Z"/><path class="cls-3" d="M859.31,257.68l40.72-7.1a.82.82,0,0,0-.28-1.61L859,256.07A.82.82,0,0,0,859.31,257.68Z"/><path class="cls-3" d="M859.15,258.7a1.82,1.82,0,0,1-.29-3.61l40.72-7.1a1.82,1.82,0,0,1,.62,3.58l-40.72,7.1-.33,0Zm0-2,.17,1Z"/><path class="cls-3" d="M841.63,260.76l9.11-1.59a.82.82,0,0,0-.28-1.61l-9.11,1.59a.82.82,0,0,0,.28,1.61Z"/><path class="cls-3" d="M841.48,261.78a1.82,1.82,0,0,1-.29-3.61l9.11-1.59a1.82,1.82,0,0,1,.62,3.58l-9.11,1.59-.33,0Zm0-2,.17,1-.11-.62-.06-.36Z"/><path class="cls-3" d="M908.24,315l14.21-38.81a.82.82,0,0,0-1.53-.56l-14.21,38.81a.82.82,0,0,0,1.53.56Z"/><path class="cls-3" d="M907.52,316.47a1.91,1.91,0,0,1-1.46-.68,1.76,1.76,0,0,1-.29-1.74L920,275.24a1.76,1.76,0,0,1,1.35-1.15,1.91,1.91,0,0,1,1.78.65,1.76,1.76,0,0,1,.29,1.74l-14.21,38.81a1.76,1.76,0,0,1-1.35,1.15,1.63,1.63,0,0,1-.31,0Zm-.22-1.86.94.34-.59-.22-.35-.13Z"/><path class="cls-3" d="M902.07,331.8l3.18-8.68a.82.82,0,0,0-1.53-.56l-3.18,8.68A.82.82,0,0,0,902.07,331.8Z"/><path class="cls-3" d="M901.35,333.32a1.91,1.91,0,0,1-1.46-.68,1.76,1.76,0,0,1-.29-1.74l3.18-8.68a1.76,1.76,0,0,1,1.35-1.15,1.92,1.92,0,0,1,1.78.65,1.76,1.76,0,0,1,.29,1.74L903,332.14a1.76,1.76,0,0,1-1.35,1.15,1.63,1.63,0,0,1-.31,0Zm-.22-1.86.94.34Z"/><path class="cls-3" d="M982.3,301.21,955.79,269.5a.82.82,0,0,0-1.25,1.05l26.51,31.71A.82.82,0,0,0,982.3,301.21Z"/><path class="cls-3" d="M981.64,303.54a1.76,1.76,0,0,1-1.36-.65l-26.51-31.71a1.82,1.82,0,0,1,2.79-2.33l26.51,31.71a1.74,1.74,0,0,1,.32,1.74,1.92,1.92,0,0,1-1.45,1.21l-.3,0Zm-.1-1.69.77-.64-.48.4-.28.24Z"/><path class="cls-3" d="M993.81,315l-5.93-7.09a.82.82,0,0,0-1.25,1.05l5.93,7.09A.82.82,0,0,0,993.81,315Z"/><path class="cls-3" d="M993.15,317.31a1.74,1.74,0,0,1-1.35-.65l-5.93-7.09a1.82,1.82,0,0,1,2.79-2.33l5.93,7.09a1.74,1.74,0,0,1,.32,1.74,1.92,1.92,0,0,1-1.45,1.21,1.53,1.53,0,0,1-.3,0Zm-.1-1.69.77-.64Z"/><path class="cls-3" d="M1007.43,230.2l-40.72,7.1a.82.82,0,0,0,.28,1.61l40.72-7.1A.82.82,0,0,0,1007.43,230.2Z"/><path class="cls-3" d="M966.84,239.92a1.68,1.68,0,0,1-1.1-.39,1.9,1.9,0,0,1-.64-1.12,1.85,1.85,0,0,1,.22-1.27,1.78,1.78,0,0,1,1.23-.83l40.72-7.1a1.82,1.82,0,0,1,.62,3.58l-40.72,7.1A1.84,1.84,0,0,1,966.84,239.92Zm40.6-9.72.17,1Z"/><path class="cls-3" d="M1025.11,227.12l-9.11,1.59a.82.82,0,0,0,.28,1.61l9.11-1.59a.82.82,0,0,0-.28-1.61Z"/><path class="cls-3" d="M1016.13,231.32a1.74,1.74,0,0,1-1.34-.62,1.93,1.93,0,0,1-.33-1.86,1.76,1.76,0,0,1,1.37-1.12l9.11-1.59a1.77,1.77,0,0,1,1.67.59,1.92,1.92,0,0,1,.32,1.86,1.76,1.76,0,0,1-1.37,1.12l-9.11,1.59a1.84,1.84,0,0,1-.33,0Zm9.09-3.59.06.36Zm-.11-.62.11.62Z"/><path class="cls-3" d="M958.5,172.93l-14.21,38.81a.82.82,0,0,0,1.53.56L960,173.49a.82.82,0,0,0-1.53-.56Z"/><path class="cls-3" d="M945.11,213.82a2,2,0,0,1-.67-.12,1.76,1.76,0,0,1-1.09-2.3l14.21-38.81a1.82,1.82,0,0,1,3.41,1.25l-14.21,38.81a1.74,1.74,0,0,1-1.65,1.18Zm13.39-40.89.94.34Z"/><path class="cls-3" d="M964.67,156.08l-3.18,8.68a.82.82,0,0,0,1.53.56l3.18-8.68A.82.82,0,0,0,964.67,156.08Z"/><path class="cls-3" d="M962.31,166.84a1.92,1.92,0,0,1-.66-.12,1.76,1.76,0,0,1-1.09-2.3l3.18-8.68a1.82,1.82,0,0,1,3.41,1.25L964,165.67a1.74,1.74,0,0,1-1.65,1.18Zm3-10.54.35.13Zm-.59-.22.59.22Z"/></g></g></g></svg>