<svg xmlns="http://www.w3.org/2000/svg" xmlns:xlink="http://www.w3.org/1999/xlink" viewBox="0 0 879.53 378.75"><defs><style>.cls-1{fill:none;stroke:#212121;stroke-width:3px;}.cls-2{fill:#2f2d3d;}.cls-3{fill:url(#무제_그라디언트_5);}.cls-4{fill:#fff;}.cls-5{fill:#212121;}.cls-6{fill:#ececec;}</style><linearGradient id="무제_그라디언트_5" x1="50.5" y1="-2247.29" x2="846.79" y2="-2247.29" gradientTransform="matrix(1, 0, 0, -1, -0.02, -2060.85)" gradientUnits="userSpaceOnUse"><stop offset="0" stop-color="#ff2929"/><stop offset="1" stop-color="#fe3b3b"/></linearGradient></defs><title>a9-2</title><g id="레이어_2" data-name="레이어 2"><g id="레이어_1-2" data-name="레이어 1"><rect class="cls-1" x="143.27" y="100.32" width="734.77" height="242.32" rx="31.5"/><rect class="cls-1" x="1.5" y="26.23" width="734.77" height="251.18" rx="31.5"/><circle class="cls-2" cx="743.77" cy="6.01" r="6.01"/><circle class="cls-2" cx="765.79" cy="6.01" r="6.01"/><circle class="cls-2" cx="787.8" cy="6.01" r="6.01"/><circle class="cls-2" cx="809.81" cy="6.01" r="6.01"/><circle class="cls-2" cx="831.82" cy="6.01" r="6.01"/><circle class="cls-2" cx="47.71" cy="372.75" r="6.01"/><circle class="cls-2" cx="69.72" cy="372.75" r="6.01"/><circle class="cls-2" cx="91.74" cy="372.75" r="6.01"/><circle class="cls-2" cx="113.75" cy="372.75" r="6.01"/><circle class="cls-2" cx="135.76" cy="372.75" r="6.01"/><rect class="cls-3" x="32.77" y="58.26" width="814" height="256.35" rx="33"/><path class="cls-4" d="M250.31,190H238.09l-15.4,9.81v11.45l14.28-9h.35v50h13ZM328,181.86H317.11v78.32H328Zm-65.5,56.2L264,247c13.94,0,32.41-.13,49.58-3.1l-.78-8.09c-6.28.82-12.87,1.34-19.45,1.64v-6.24c8.61-1.59,14.2-6.93,14.2-14.25,0-8.73-8.09-14.71-19.71-14.71s-19.49,6-19.45,14.71c0,7.36,5.55,12.7,14.12,14.25v6.63C275.36,238,268.52,238,262.54,238.06Zm1.55-38.9h47.59v-8.61H293.44V182.2H282.51v8.35H264.09ZM278.8,217c0-4,3.71-6.32,9-6.37,5.51.05,9.21,2.33,9.21,6.37s-3.7,6.37-9.21,6.37C282.51,223.34,278.76,221.1,278.8,217Zm151.49,8.7h-71.7v8.78H388.8v25.64h10.85V234.45h30.64ZM367,217.23h54.65V185.64H367Zm10.84-8.61V194.34h32.88v14.28Zm128.68,33.83H489v-12h11.1v-8.87h-46v-8.69h44.15v-26H443v8.78h44.41v8.44H443.11v26.34h10.07v12H434.85v9h71.7Zm-42.7,0v-12h14.38v12Zm71.62-36.75v-1.81h12.3v-8.78H535.38V184.53H525.14v10.58H512.48v8.78h12.66v1.81c-.09,12.09-4.26,24.87-15.58,31.41l6.28,8.27c7.1-4.13,11.79-11.15,14.5-19.46,2.76,7.62,7.45,14,14.51,17.56l6-8C539.73,229.5,535.47,217.58,535.47,205.7Zm7.74,14.8h9.21v36.07h10.33V183.15H552.42v28.4h-9.21Zm25.13,39.68h10.42V181.86H568.34Zm84.87-78.32H642.28v23H632.12v8.95h10.16V229.2h10.93Zm-65.84,15.58H633.5v-8.78H615.94v-7.49H605.1v7.49H587.37Zm4.3,16.61c0,8.56,7.87,14.16,18.85,14.2s18.76-5.64,18.76-14.2c0-8.18-7.74-14-18.76-14S591.67,205.87,591.67,214.05Zm8.86,45.27h52.68V232.55H600.53Zm1.73-45.27c-.09-3.7,3.14-5.81,8.26-5.77s8.26,2.07,8.26,5.77c0,4-3.27,6.07-8.26,6.11S602.17,218,602.26,214.05Zm9.29,36.49v-9.38h30.9v9.38Z"/><path class="cls-5" d="M239.27,98.74h401a30.51,30.51,0,0,1,30.5,30.5h0a30.5,30.5,0,0,1-30.5,30.5h-401a30.49,30.49,0,0,1-30.5-30.5h0A30.5,30.5,0,0,1,239.27,98.74Z"/><path class="cls-6" d="M309.74,114.58h-4.18v30.28h4.18V129.49h4.45V126h-4.45Zm-22.61,6h9.76v4.94h-9.72v12.35h2.55a73.94,73.94,0,0,0,14.08-1l-.36-3.38a70.12,70.12,0,0,1-12.06.89v-5.47h9.73V117.11h-14Zm53.46-6h-4.28v30.28h4.28Zm-24.4,12.88c0,6.65,3.35,10.8,8,10.8s7.93-4.15,7.93-10.8-3.38-10.75-7.93-10.75S316.17,120.87,316.19,127.46Zm4.08,0c0-4.48,1.56-6.93,3.92-6.93S328,123,328,127.46s-1.56,7-3.85,6.94S320.25,132,320.27,127.46Zm52.06,10.23H344.67v3.45h27.66Zm-24.73-5.05h21.64V116.51H365v5H351.85v-5H347.6Zm4.25-3.32v-4.51H365v4.51Zm45.95-10.75v-2.2h-4.52v2.2c0,4.38-4,9.13-10.69,10.32l1.83,3.52a15.75,15.75,0,0,0,11.14-7.88c2,3.86,5.86,6.84,11.14,7.88l1.86-3.52C401.72,127.73,397.78,123,397.8,118.57Zm-15.91,22.51h27.66v-3.49H381.89Zm54-10.89H418.85v-3.46H435v-3.32H418.85v-3.18h16.83v-3.42H414.53v16.73h21.39Zm-24.64,11.09h27.66v-3.46H411.28ZM466,114.58h-4.22v30.28H466Zm-23.74,6h10.06v4.88h-10v12.38H445a82.14,82.14,0,0,0,15-1.06l-.37-3.42a79.05,79.05,0,0,1-12.95,1v-5.54h10V117.11H442.26Zm44.09-3.86H471.58v13.62h14.77Zm-11.72,22.18c0,3.76,4,6,10.46,6s10.36-2.19,10.36-6-4-6-10.36-5.94S474.63,135.1,474.63,138.85Zm1.13-11.95v-6.84h6.37v6.84Zm3.15,11.95c0-1.81,2.1-2.64,6.18-2.62s6.14.81,6.14,2.62-2.17,2.66-6.14,2.66S478.91,140.61,478.91,138.85Zm12.19-6.47h4.25V114.61H491.1Zm32.67-14.91H509.33v3.39h10.21a21.38,21.38,0,0,1-.72,4l-11.05.66.53,3.59,9.16-.82c-1.82,3.39-4.94,6.21-9.92,8.69l2.22,3.25C521.18,134.69,523.74,126.77,523.77,117.47Zm4.62,27.33h4.28V114.58h-4.28Zm34.06-30.19h-4.31v20.33H552v3.18h6.15v6.68h4.31Zm-25.93,15.31.53,3.45c2.14,0,4.53,0,7-.09V143.9h4.28V133.06a75.25,75.25,0,0,0,8.07-.95l-.23-3.08A157.84,157.84,0,0,1,536.52,129.92Zm2.13-7.9c0,3.72,3.23,6.17,7.77,6.17s7.75-2.45,7.77-6.17-3.31-6.19-7.77-6.21S538.63,118.38,538.65,122Zm4,0c0-1.84,1.53-3,3.79-3s3.71,1.15,3.75,3-1.58,3-3.75,3S542.61,123.91,542.63,122Zm48,6.54h-17.2v-8h17v-3.42H569.29V132h21.39ZM566,141.11H593.7v-3.49H566Z"/></g></g></svg>