<?xml version="1.0" encoding="utf-8"?>
<!-- Generator: Adobe Illustrator 24.2.0, SVG Export Plug-In . SVG Version: 6.00 Build 0)  -->
<svg version="1.1" id="Layer_1" xmlns="http://www.w3.org/2000/svg" xmlns:xlink="http://www.w3.org/1999/xlink" x="0px" y="0px"
	 viewBox="0 0 1024 788.6" style="enable-background:new 0 0 1024 788.6;" xml:space="preserve">
<style type="text/css">
	.st0{fill:none;stroke:#FFFFFF;stroke-width:40;stroke-miterlimit:10;}
</style>
<g>
	<path class="st0" d="M661.5,342L639,365l-29.8,30.5L559.1,447l-30.6,31.3l-29.8,30.5L395.4,614.7L259.4,754c-0.1,0.1-0.4,0-0.3-0.2
		l56.6-139.1L384,446.9H149.6c-0.2,0-0.2-0.2-0.1-0.3l102.4-104.9L415.5,174l136-139.3c0.1-0.1,0.4,0,0.3,0.2L495.2,174l-68.3,167.7
		h234.5C661.5,341.7,661.6,341.9,661.5,342L661.5,342z"/>
	<path class="st0" d="M849.6,205.7v377.2c0,17.5-14.2,31.7-31.7,31.7H395.4l103.3-105.8l29.8-30.5l30.6-31.3l50.1-51.4L639,365
		l22.5-23c0.1-0.1,0-0.3-0.1-0.3H426.9L495.2,174h322.7C835.4,174,849.6,188.2,849.6,205.7L849.6,205.7z"/>
	<path class="st0" d="M849.6,462.3h52c11,0,20-9,20-20v-96c0-11-9-20-20-20h-52V462.3z"/>
	<path class="st0" d="M102.5,174h169.1"/>
	<path class="st0" d="M158.9,309.8h-56.4"/>
	<path class="st0" d="M261,614.7H102.5"/>
</g>
</svg>
