<?xml version="1.0" encoding="utf-8"?>
<!-- Generator: Adobe Illustrator 24.2.0, SVG Export Plug-In . SVG Version: 6.00 Build 0)  -->
<svg version="1.1" id="svg1590" xmlns:svg="http://www.w3.org/2000/svg"
	 xmlns="http://www.w3.org/2000/svg" xmlns:xlink="http://www.w3.org/1999/xlink" x="0px" y="0px" viewBox="0 0 682.7 466.7"
	 style="enable-background:new 0 0 682.7 466.7;" xml:space="preserve">
<style type="text/css">
	.st0{fill:none;stroke:#FFFFFF;stroke-width:20;stroke-linecap:round;stroke-linejoin:round;stroke-miterlimit:13.3333;}
	.st1{clip-path:url(#SVGID_2_);}
</style>
<g id="g1596" transform="matrix(1.3333333,0,0,-1.3333333,0,682.66667)">
	<g id="g1598" transform="translate(316,365.314)">
		<path id="path1600" class="st0" d="M0,81v47.7"/>
	</g>
	<g id="g1602" transform="translate(316,98.9585)">
		<path id="path1604" class="st0" d="M0,81v236.4"/>
	</g>
	<g id="g1606" transform="translate(256,198.6919)">
		<path id="path1608" class="st0" d="M0,81v114.6"/>
	</g>
	<g id="g1610" transform="translate(346,178.4971)">
		<path id="path1612" class="st0" d="M0,81v155"/>
	</g>
	<g id="g1614" transform="translate(406,206.0547)">
		<path id="path1616" class="st0" d="M0,81V66.3"/>
	</g>
	<g id="g1618" transform="translate(406,320.6504)">
		<path id="path1620" class="st0" d="M0,81V-3.6"/>
	</g>
	<g id="g1622" transform="translate(436,293.3794)">
		<path id="path1624" class="st0" d="M0,81V6.2"/>
	</g>
	<g id="g1626" transform="translate(466,293.3794)">
		<path id="path1628" class="st0" d="M0,81V6.2"/>
	</g>
	<g id="g1630" transform="translate(106,194.4673)">
		<path id="path1632" class="st0" d="M0,81V17"/>
	</g>
	<g id="g1634" transform="translate(106,381.5454)">
		<path id="path1636" class="st0" d="M0,81V-76.1"/>
	</g>
	<g id="g1638" transform="translate(286,390.0742)">
		<path id="path1640" class="st0" d="M0,81v-268.1"/>
	</g>
	<g id="g1642" transform="translate(226,150.7891)">
		<path id="path1644" class="st0" d="M0,81v210.4"/>
	</g>
	<g id="g1646" transform="translate(166,159.6094)">
		<path id="path1648" class="st0" d="M0,81v192.8"/>
	</g>
	<g id="g1650" transform="translate(196,308.0161)">
		<path id="path1652" class="st0" d="M0,81V-23"/>
	</g>
	<g id="g1654" transform="translate(76,206.9404)">
		<path id="path1656" class="st0" d="M0,81v98.1"/>
	</g>
	<g id="g1658" transform="translate(46,293.9424)">
		<path id="path1660" class="st0" d="M0,81V5.1"/>
	</g>
	<g id="g1662" transform="translate(376,309.1411)">
		<path id="path1664" class="st0" d="M0,81V-25.3"/>
	</g>
	<g id="g1666" transform="translate(136,415.1367)">
		<path id="path1668" class="st0" d="M0,81v-318.3"/>
	</g>
	<g id="g1670">
		<g>
			<defs>
				<rect id="SVGID_1_" x="-85.3" y="-4.3" width="682.7" height="682.7"/>
			</defs>
			<clipPath id="SVGID_2_">
				<use xlink:href="#SVGID_1_"  style="overflow:visible;"/>
			</clipPath>
			<g id="g1672" class="st1">
				<g id="g1678" transform="translate(228.6147,256)">
					<path id="path1680" class="st0" d="M0,81h275.9"/>
				</g>
				<g id="g1682" transform="translate(7.5,256)">
					<path id="path1684" class="st0" d="M0,81h185.1"/>
				</g>
			</g>
			<use xlink:href="#SVGID_1_"  style="overflow:visible;fill:none;stroke:#FFFFFF;stroke-miterlimit:10;"/>
		</g>
	</g>
</g>
</svg>
