<?xml version="1.0" encoding="utf-8"?>
<!-- Generator: Adobe Illustrator 24.2.0, SVG Export Plug-In . SVG Version: 6.00 Build 0)  -->
<svg version="1.1" id="svg9" xmlns:svg="http://www.w3.org/2000/svg"
	 xmlns="http://www.w3.org/2000/svg" xmlns:xlink="http://www.w3.org/1999/xlink" x="0px" y="0px" viewBox="0 0 682.7 682.7"
	 style="enable-background:new 0 0 682.7 682.7;" xml:space="preserve">
<style type="text/css">
	.st0{clip-path:url(#SVGID_2_);}
	.st1{fill:none;stroke:#FFFFFF;stroke-width:26.6667;stroke-linecap:round;stroke-linejoin:round;stroke-miterlimit:13.3333;}
</style>
<g id="g15" transform="matrix(1.3333333,0,0,-1.3333333,0,682.66667)">
	<g id="g17">
		<g>
			<defs>
				<rect id="SVGID_1_" x="-85.3" y="-85.3" width="682.7" height="682.7"/>
			</defs>
			<clipPath id="SVGID_2_">
				<use xlink:href="#SVGID_1_"  style="overflow:visible;"/>
			</clipPath>
			<g id="g19" class="st0">
				<g id="g25" transform="translate(255.9921,502)">
					<path id="path27" class="st1" d="M0,0l208-65.2v-175C208-363.1,120.7-468.8,0-492l0,0l0,0c-120.7,23.2-208,128.9-208,251.8v175
						L0,0"/>
				</g>
				<g id="g29" transform="translate(384.6779,168.0953)">
					<path id="path31" class="st1" d="M0,0c14.9,28.2,23.3,60.1,23.3,93.7v133.9l-152,47.6l-152-47.6V93.7
						c0-92.3,63.3-172.4,152-194.5c25.9,6.4,49.6,17.8,70.2,33"/>
				</g>
				<g id="g33" transform="translate(237.8359,190.7437)">
					<path id="path35" class="st1" d="M0,0l-67,67l33.9,33.9l33-33l69.4,69.4l33.9-33.9L0,0z"/>
				</g>
				<g id="g37" transform="translate(359.2185,130.8982)">
					<path id="path39" class="st1" d="M0,0L0,0"/>
				</g>
			</g>
			<use xlink:href="#SVGID_1_"  style="overflow:visible;fill:none;stroke:#FFFFFF;stroke-miterlimit:10;"/>
		</g>
	</g>
</g>
</svg>
