<svg xmlns="http://www.w3.org/2000/svg" width="134.9" height="147.1" viewBox="0 0 134.9 147.1">
  <defs>
    <style>
      .cls-1 {
        fill: #fff;
        stroke: #000;
        stroke-linecap: round;
        stroke-linejoin: round;
        stroke-width: 0;
      }
    </style>
  </defs>
  <g id="Layer_2" data-name="Layer 2">
    <g id="레이어_1" data-name="레이어 1">
      <g>
        <path class="cls-1" d="M82.5,32.4H94.7V0H82.5A72.9,72.9,0,0,0,32.2,20h0V0H0V147.1H32.2V127h0a73,73,0,0,0,50.3,20.1H94.7v-10H82.5A63.6,63.6,0,0,1,22.2,93.5h0v13.3h0v8.7h0v21.6H10V10H22.2V31.6h0V42.5h0v11h0A63.6,63.6,0,0,1,82.5,10h2.2V22.4H82.5A51.2,51.2,0,0,0,31.4,73.5h0a51.1,51.1,0,0,0,51.1,51.1H94.7V91.4H82.5A17.9,17.9,0,0,1,64.7,73.5h0A17.8,17.8,0,0,1,82.5,55.7H94.7v-10H82.5A27.9,27.9,0,0,0,54.7,73.5h0a27.8,27.8,0,0,0,27.8,27.8h2.2v13.4H82.5A41.2,41.2,0,0,1,41.4,73.5h0A41.2,41.2,0,0,1,82.5,32.4"/>
        <path class="cls-1" d="M134.1,65.2H124v-3h0a6.4,6.4,0,0,0-.5-3h0a2.7,2.7,0,0,0-2-.7h0a2.7,2.7,0,0,0-2.2.9h0a4.5,4.5,0,0,0-.6,2.6h0a5.8,5.8,0,0,0,.8,3.4h0a27.4,27.4,0,0,0,3.9,2.7h0l.4.3h0a39.6,39.6,0,0,1,6.2,4.4h0a29.6,29.6,0,0,1,3,3.5h0a9.8,9.8,0,0,1,1.4,3.1h0a17.9,17.9,0,0,1,.5,5h0c0,3.9-1,6.8-3.1,8.7h0c-2.1,1.9-5.3,2.9-9.6,2.9h0c-4.8,0-8.2-1.2-10.3-3.5h0c-2-2.1-3-5.4-3-9.7h0V80.1h9.9v5.1h0a6,6,0,0,0,.6,3.2h0a2.9,2.9,0,0,0,2.3.8h0a2.7,2.7,0,0,0,2.4-1h0a4.1,4.1,0,0,0,.8-2.7h0a10,10,0,0,0-.4-3.2h0a4.2,4.2,0,0,0-.8-2h0l-2.1-1.8h0a23.6,23.6,0,0,0-3.6-2.6h0l-2.1-1.5h0a22.1,22.1,0,0,1-5.4-4.2h0a10.5,10.5,0,0,1-1.9-6.7h0c0-4.1,1-7.1,2.9-9h0c2-1.8,5.2-2.7,9.5-2.7h0c4.8,0,8.1.9,10.1,2.7h0c2,1.8,3,4.9,3,9.2h0v1.5"/>
      </g>
    </g>
  </g>
</svg>
