<?xml version="1.0" encoding="utf-8"?>
<!-- Generator: Adobe Illustrator 24.2.0, SVG Export Plug-In . SVG Version: 6.00 Build 0)  -->
<svg version="1.1" id="_25_Bucket_truck" xmlns="http://www.w3.org/2000/svg" xmlns:xlink="http://www.w3.org/1999/xlink" x="0px"
	 y="0px" viewBox="0 0 512 378" style="enable-background:new 0 0 512 378;" xml:space="preserve">
<style type="text/css">
	.st0{fill:#FFFFFF;}
</style>
<path class="st0" d="M493.8,210.2L444.9,198l-25.5-38.3c-4.5-6.7-11.9-10.7-20-10.7H328c-4.4,0-8,3.6-8,8v56h-80v-24
	c0-4.4-3.6-8-8-8h-18.5l-18-48H448c13.2,0,24-10.8,24-24V77c0-13.2-10.8-24-24-24H111.5l0.5-7.4c0.2-2.2-0.6-4.4-2.1-6
	s-3.6-2.6-5.8-2.6H8c-2.2,0-4.3,0.9-5.8,2.6c-1.5,1.6-2.3,3.8-2.1,6l8,112c0.3,4.2,3.8,7.4,8,7.4h32v80h-8c-4.4,0-8,3.6-8,8v32
	c0,4.4,3.6,8,8,8h40v8c0,4.4,3.6,8,8,8h56.8c3.7,18.2,19.9,32,39.2,32s35.5-13.8,39.2-32h161.6c3.7,18.2,19.9,32,39.2,32
	s35.5-13.8,39.2-32H504c4.4,0,8-3.6,8-8v-67.5C512,222.5,504.5,212.9,493.8,210.2L493.8,210.2z M208,197L208,197h16v16h-72v-16h16
	l0,0l0,0H208L208,197L208,197z M196.5,181h-22.9l-18-48h22.9L196.5,181z M152,117v-16h272v8c0,2.8,0.5,5.5,1.4,8H152z M440,77
	c0-4.4,3.6-8,8-8s8,3.6,8,8v32c0,4.4-3.6,8-8,8s-8-3.6-8-8V77z M110.3,69h315.1c-0.9,2.5-1.4,5.2-1.4,8v8H109.2L110.3,69L110.3,69z
	 M23.4,149l-6.9-96h78.8l-6.9,96H23.4z M80,277H48v-16h32V277z M80,221v24H64v-80h32c4.2,0,7.7-3.2,8-7.4l4-56.6h28v24
	c0,1,0.2,1.9,0.5,2.8l19.9,53.2H144c-4.4,0-8,3.6-8,8v24H88C83.6,213,80,216.6,80,221L80,221z M184,325c-13.2,0-24-10.8-24-24
	s10.8-24,24-24s24,10.8,24,24S197.2,325,184,325z M320,293h-96.8c-3.7-18.2-19.9-32-39.2-32s-35.5,13.8-39.2,32H96v-64h224V293z
	 M399.4,165c2.7,0,5.2,1.3,6.7,3.6l19,28.4h-35.3l-10.7-32H399.4z M424,325c-13.2,0-24-10.8-24-24s10.8-24,24-24s24,10.8,24,24
	S437.2,325,424,325z M496,245h-8c-4.4,0-8,3.6-8,8s3.6,8,8,8h8v32h-32.8c-3.7-18.2-19.9-32-39.2-32s-35.5,13.8-39.2,32H336V165h26.2
	l14.2,42.5c1.1,3.3,4.1,5.5,7.6,5.5h55l50.9,12.7c3.6,0.9,6.1,4.1,6.1,7.8L496,245L496,245z"/>
<path class="st0" d="M64,93H48c-4.4,0-8,3.6-8,8s3.6,8,8,8h16c4.4,0,8-3.6,8-8S68.4,93,64,93z"/>
<circle class="st0" cx="424" cy="301" r="8"/>
<circle class="st0" cx="184" cy="301" r="8"/>
</svg>
