<?xml version="1.0" encoding="utf-8"?>
<!-- Generator: Adobe Illustrator 24.2.0, SVG Export Plug-In . SVG Version: 6.00 Build 0)  -->
<svg version="1.1" id="Layer_1" xmlns="http://www.w3.org/2000/svg" xmlns:xlink="http://www.w3.org/1999/xlink" x="0px" y="0px"
	 viewBox="0 0 685.4 1275.2" style="enable-background:new 0 0 685.4 1275.2;" xml:space="preserve">
<style type="text/css">
	.st0{fill:#EEEEEE;stroke:#FFFFFF;stroke-width:3.03;stroke-miterlimit:10;}
	.st1{opacity:0.1;fill:#00008B;stroke:#000049;stroke-width:1.53;stroke-miterlimit:10;enable-background:new    ;}
	.st2{fill:#00008B;}
</style>
<g>
	<g>
		<path class="st0" d="M318.3,779.6c0,0-0.4-3.5-0.7-5s-3-3.2-3-3.2l-8.2-4.9c-2.8-1.5-8.7-3.5-11.8-3.5s-6.1,7.6-7.6,9.2
			s-6.4,2-10.8,2s-7.4,0.8-10.5-1s-7.6-4.1-9.9-3.8s-5.9,2.8-6.4,2s-6.4-1.8-11,2.1s-7.2,1-10,1s-4.1-3.6-3.8-5.1s0.5-6.4-0.8-8.7
			s-4.9-3.1-4.9-4.9s1.6-3.6,2.6-5.1s-1-9-6.1-10.8s-4.1,3.9-4.4,5.7s-7.9,7.1-10.7,5.3s-7.5-11.7-8.5-13s-8.4-4.6-9.4-3.3
			s-5.4,3.6-6.7,2.5s-8.2-1.2-9.2,2.6s0.8,8.2-1.3,9.2s-1.8,4.1-1,10.2s-7.2,3.1-12.8,5.9s-17.6,6.7-22,6.2s-3.3-9-3.1-11.6
			s-0.7-11.7-2.5-11.7s-14.8,4.1-20.5,5.7c0,0-2.7,3.5-1.9,5.8s2.3,5.9,1.3,6.1s-4.9-0.7-4.9-3s-2-5.5-2-5.5s-4.9,1.1-5.9,4.2
			s0.7,6.1,0,9.7s-1.6,5.9-3.9,6.4c-1.4,0.3-2.6,1.1-3.3,2.3c0,0,6.4,1.3,5.6,3.3s-6.6,2.3-8.1,2.3s-4.7-1.8-4.9,0s5.9,8.5,6.6,8
			s5.2-1.8,6.9,0s0.8,7.6,0.8,8.6s3,8.5,5.3,10.3c2.2,1.5,4.6,2.7,7.2,3.6c1.1,0.2,3.5,5.8,1.8,8.8s-7.5,8.7-7.5,8.7s-3.9-1-5.1,0
			s-7.5,6.2-7.5,8s0.7,4,4.5,2.1s3.4-5,6.6-2.9s5.8,5.9,4.4,6.6s-5.8,1.1-5.8,5.7v18.9l-3.5,2.2c0,0-4.3-2.6-5.3-3.8
			s-4.3-6.1-5.3-6.1s-5.6,4.4-5.6,5.6s5.2,4.3,7.8,5.5s5.5,4.4,5.5,6.1s-0.9,5.7,1.2,5.7s13.6-6.4,16.3-7.7s5.1,0,5.8,2.9
			s1.6,11.6,3.8,4.8s0-13.2-1.4-13.7s1.7-3.2,2.2-4.6s2.6-2.9,1.2-7s-1.5-5.6-1.2-7.8s3.8-6.8,3.8-6.8s0.3,5.9,0.3,7.5s-1.2,6.3,1,7
			s4.8-0.7,6.2-0.9s3.2,3.9,2.5,5.1s-4.2,4.6-3.7,8.2s1,9.5,3.9,8.4s5-4.6,7.2-3.8s4.1,7.3,2.4,8.7s-5.2-0.5-6.2,1s2.9,6.2-1.2,6
			s-4.4-5-5.1-6.3s-2.9-6.3-4.3-3.1s-4.6,7.5-4.6,9.4s-0.6,3.2-1.8,3.2s-4.3,0.4-5.2,0s-5.1-2.9-6.6-2.5s-5.5,1.8-2.9,3.4
			s10.7,2.4,12.8,3.7s5.8,5.8,6.1,7.9s0,3,2.8,4.2s1.8,3.8,3.5,5s6.7,1.2,7.5,2.2s-2.2,5.8-6.4,3.8s-6.2-4-7.7-4s-2.9,2.4-5.5,1.7
			s-7.8-1.3-10.2-3.9c-1.9-1.9-3.1-4.3-3.4-7c0-1.7-3.3-3.9-4.3-4.2s-4.1,3.7-4.1,4.9s3.4,5.1,5.1,6.1s6.4,7,8.1,6.9
			s4.4,0.5,3.9,2.5s-5.1,4.8-6,5s-9.9-6-12.9-6.3s-7.9-7-7.9-7.5s-1.2-4.6-0.7-8.1s0.9-7.5-0.6-9.8c-1.8-2.4-3.7-4.7-5.7-6.9
			c-1.2,0.6-2.1,1.5-2.7,2.6c-1,1.9-2.6,5.8-2.7,7.8s-1.6,7,0,12s4.1,5.8,5.4,10.4s-0.8,5.4,4.8,7.6s11.4,7.4,13,7.4s6.9,2.9,9.3,0
			s2.4-4.8,6.2-4.5s4.7,1.1,6.5,0s8.3,0.2,8.3,0.2s-0.5,4.6-2.2,6.3c-1.8,2-4.2,3.3-6.8,3.8c-3.4,0.7-7.4,4.9-8.2,6.1
			s-2.2,5.8-1,8.2s3.7,3.9,6.8,6.5s3.7,5.9,0.7,7.6s-4.5,2.1-4.3,5s-0.3,4.9,2.6,4.1s4.7-0.2,5.4,2.5s0.2,6.4-0.2,9.3s4,3,6.2,0
			s4.2-4.1,6.3-2.8s3.7,1.6,3.7-1.2v-10.9c0-3.2-4.4-4.9,5.3-10s6.5-3.6,9.8-5.2s7.8,0.2,4.9-4.6s-4.3-5.8-2.1-5.9s8.4,0.7,8.9,0.7
			s-1.2-3.5-3.6-8.1s-1.8-6.6,0.2-6.3s4.1,1.4,4.1-1c-0.2-2.4-0.1-4.9,0.2-7.3c0.5-3.9,0.1-7.7,1.3-8.6s4.1,0.9,4.6,4.5
			s2.9,9.2,2.6,11.4s0.2,7.7-0.5,11.4s-2.1,6.5-0.5,7.7s6.8,2.9,8.2,1.9s2,0.5,3.5,2.5s4.1-1.3,6-2.5s5.6,0,7.7-0.2
			s-0.4-2.7,2.4-5.1s3.2-0.7,4.1-3.9s-0.4-8.4,0.8-11.3s3.9-6.6,4.6-8s0.7-6.1-0.2-7.8s-4.2-3.6-2.5-4.3s6,0.8,10.4-0.7
			s7.8-4.6,10.6-7.3s4.6-7,6.1-7.2s6.1,2.9,8.7,2.2s4.9-5.8,5.4-8.7s1.4-8.7,3.3-9.8s4.4-1.1,5.6,2.5s3.6,6,5.3,4.4
			c1.7-1.6,1-2.5,3.9-2.5s3.3,2.4,4.3,4.8s2.4,3.1,1.7,6.8s-2.7,8.2-4.8,9s-6.8,2.2-6.5-1.3c0.3-3.5,0.7-6.7,0.7-6.7s-3.7-4.3-4.9-1
			s-0.9,6.1-0.7,9.7s2,9.4,0.3,12.4s-5.8,6-6.3,6s-4.4,5.6-4.6-1.4c-0.2-2.9-0.2-5.9,0-8.8c0,0-1-3.8-2.5,1s-1.4,7.2-1.9,7.7
			s0.7-0.9-3.4,0.8s-5.8,6.3-5.7,7.7s0.9,6.5,4.8,5.6s7.9-2,10.1-2s9.2,2.9,10.4,3.7s4.1,3.4,4.1,5s0.8,3.7,2.4,4.1s5.1,1.5,7.8-0.7
			c2.1-1.6,4.5-2.9,7-3.8c1-0.3,3.8-3.5,6.5-4.9s3.7-7.5,3.7-7.5c-2.6-0.4-5.1-1.1-7.6-1.9c-4.3-1.3-4.6-3.1-2.6-4.1s6.8-1.5,8-2.2
			s6.7-2,8.7-1s1.4,2.4,5,1.3s1.8-8.6,0-10.4s-8.2-1.1-8.7-5.9s-4.8-2.2-8.1-7s-4.6-3.8-3.7-8.2s3.6-5.1,4.1-7.7s1.2-3.7-0.2-4.2
			s-3.2-1.7-5.4-0.5s-5.7,1.8-5.2-0.2s4.1-2.4,6.5-3.4s3.1-2.4,1.4-5.4s-7-4.2-3.8-5.9s8.6-0.1,12.1-0.1s4.3,2.2,7.2-1.8
			s7.3-8.5,8-8.8s0.7,3.4,1.7,6.4s5.1,1.8,5.1,5.1s-2.2,2.1-2.3,5.1s4.7,6.7,4.7,6.7s4.6,3.8,4.3,9.2s-3.1,3.5-3.3,7.9
			c0.1,3.3,0.3,6.6,0.7,9.9c0,1.2,3.4,4.9,5.8,4.9s5.8,4.8,4.6-2.2s-2.9-10.9-1.2-12.4s4.3-5.7,7.9-5.7s7.7,3.4,9.5,2.8
			s7.4-2.5,7.4-6.4s0.1-7.4,1.3-9.3s2.2-9.6,1.7-12.3s-3.4-5.1-5.9-2.4s-4.1,2.6-5,2.6s-4.4,0.8-5.8,2.7s-2,4.3-4.8,3.1
			c-2.6-1-4.8-2.7-6.4-5c-2.1-2.7-7.5-7-8-10.5s-1.1-4.8,0.1-7.7l2.8-6.7c0,0,1.7,1.4,3.2,5.3s0.5,6.7,5.6,4.4s7.4-5.5,8.9-6.1
			s6.8-2.5,6.8-2.5c-0.8-2.2-1.2-4.6-1.2-6.9c0-3.5-1.4-5.3,1.2-5.1s4.8,4.6,6.8,3.8s4.3-2.9,4.5-3.6s0.6-2.8,0.6-2.8
			s-1.7-4.3-2.8-5.2s-3.9-2.5-5.5-3.7s-2.8-2-3.5-4.2s-1.7-5.9-1.7-5.9c-0.4-0.8-1-1.6-1.8-2.1c-1.9-1.3-3.6-2.7-5.2-4.3
			c-1.7-2-3.2-4-4.6-6.2c-0.7-1.3-1.9-3.7-1.8-4.2c0.1-0.6,0.2-1.1,0.4-1.7c0-0.6,0.1-3.5,0-5.6s-0.3-4.7-0.7-5.7
			c-0.5-1.3-1.2-2.6-2.1-3.7l-2.5-3.1L318.3,779.6z"/>
		<path class="st0" d="M59.8,946c0,0,4,5.2,6.2,3.4c2.2-1.8,2.1-5.5,2.1-6.6s-4.6-4.2-4.1-5.5s0-2.7,2.9-2.6s7.5,2.4,7.6,4
			s0.7,4.2,1.8,4.2c1.2-0.2,2.5,0,3.6,0.6c1.7,0.9,6.5,4.1,7.3,6.3s0.8,7,0,8.4s-0.8,6.4-1.3,8.2s-2,7.2-3.8,8s-1.3-1.4-4.6-2.1
			s-3.8,3-3.7,3.3s2.9,5.7,1.6,6.6s-3.3,1.6-4.1-0.7s-0.4-3.8-2.4-3s-4.6,2.5-7,3.8s-2,2.5-5.8,2.9s-9.1,1.7-10-1.5
			c-0.7-2.1-0.9-4.3-0.7-6.5c0.1-1.4-0.7-1.1-3.2-2.2s-3.2-1.3-3.6-2.8s-2.4-4-1.4-6.2c0.9-1.9,2.6-3.3,4.6-3.9c2-0.8,4.3-0.9,5.7-4
			s2.9-6.8,3.6-7.1s1.2-1.4,3.7-1.3s3.6,0.2,4-0.4C59.2,948.2,59.6,947.1,59.8,946z"/>
		<path class="st0" d="M138,979.9c0.3-0.3,2.3-2.7,4.4-3.1s6.8,2.9,7.3,3.1s2.6,6.2,3,7.8s3.2,8.1,5.7,6.7s2.3-3.3,5.8-4.1
			s7.9,0.2,8.4-0.2s-0.5-2.7,2.2-3s6.5,1.5,7.9,2.1s1.4,4.5,0.8,5.4s-4.4,0.2-6.5,1.6s-8,1.1-8.6,1.1s-5.1,1-6.4,2.2
			s-3.2,2.2-8.6,0.9s-6.7-4-6.7-4.8s-2.3-0.4-3.6-1.9s-2.2-2.2-2.6-4.8c-0.6-2.3-1.4-4.6-2.5-6.7L138,979.9z"/>
		<path class="st0" d="M158,978.7c0,0,1.7-5.4,2.9-5.7c1.2-0.6,2.3-1.4,3.1-2.5c0.3-0.4,3.1-3,4.6-3.4s6.6,0.4,6.6,2.5
			s2.5,4.1,3.8,4.4s3.6-1.2,4.9,0.4c1,1.4,2.6,2.3,4.4,2.4c1.7-0.1,3.3-0.6,4.8-1.5c0.5-0.4,4.6-1.1,4.6,0.3s-2.1,7.2-3.1,8
			s-6.5,3.4-8.6,2.1s-4.3-5.6-5.1-6.4s-4.2-2.7-5.7-2.5s-6.8,2.8-9.2,3.7s-2.3,4.2-3.1,4.1s-1.8-4.1-2.7-4.5
			C159.4,979.7,158.7,979.2,158,978.7z"/>
		<path class="st0" d="M223.9,959.8c0,0,2.9-4.8,3.3-4.9s2.2,3.3,3.9,3.3s1.6-0.8,4-1.9s7.5-2.5,9.3-2.1s5.7,2.4,4.8,4.3
			s-2.8,7.6-3.6,8.5s-0.3,2.9-4.7,1.6s-5.9-0.5-8.2,0.4s-6,1.1-6.8-1c-0.6-1.6-1-3.3-1.1-5C224.7,961.9,224.4,960.8,223.9,959.8z"/>
		<path class="st0" d="M208,963.6c0,0,3.2-3.2,4.4-2.7s5.6,5,5.6,5s-0.1,3.5,0,3.8s0.3,4.1-1,4.1s-2.6-0.2-3.3-2s-2-5-2.6-5.6
			C210.1,965.3,209.1,964.4,208,963.6z"/>
		<path class="st0" d="M111.6,1031.3c0,0,4.1-5.5,6.7-5.3s5,0.9,5.7,0.9s-1.4-3.8-1.5-5.6s-1.9-6.1,0.5-7s5.6,0.2,7.5,1.7
			s5.5,3.4,5.7,4.5s-3.9,1.8-4.3,4s-4.4,1.5-4.4,1.9s3.9,3.3,4.4,3.8s-1.7,1.8-3.4,2.2s-3.8-0.1-4.6,2.2s-1.2,4.2-4.4,4.2
			s-7-0.4-7-3.2C112.6,1034.1,112.3,1032.6,111.6,1031.3z"/>
		<path class="st0" d="M138,1025.4c0,0,0.9-3.7,2-4.1s3.3,0.8,4.5,2.8c1.2,2-1.7,3.7-1.9,5.1s1.8,5.4,2.2,6.7s0.1,5.6-2.1,5.2
			s-6.8-2.8-6.5-4.7s1.4-4.1,1.8-5.8C138.2,1028.9,138.2,1027.1,138,1025.4z"/>
		<path class="st0" d="M345.6,909.1c0,0-1.1-3.8-1.4-4.6c-0.2-1,0.4-2.1,1.4-2.4c1.1-0.3,4.6,0.4,5.8,1.8s0.2,3.7,0,4.6
			s-1.2,4.3-1.2,4.5c0.8,1.5,1.8,3,2.8,4.4c0.2,0.3-0.2,5.5,0,6.3s-0.3,2.9,0.4,4.4s0.9,4.2,0,4.4s-7-1.6-7.3-1.8
			c-1.5-1.2-3.1-2.2-4.8-3c-2.1-1-3,0.4-2.9-2.7s2-7.3,3.6-8.8s3.1-1.6,3.6-3.1C345.9,911.8,345.9,910.4,345.6,909.1z"/>
		<path class="st0" d="M334.6,945.1c0,0,3.4-2.9,4.7-3s6.6,1.4,6.9,3s3.4,6.3,5.5,7.2s6.7,0.9,5.6,2.9s-2.1,4.7-4.5,3.3
			s-6.1-3.8-8.2-5.4s-2.6-1.1-5.8-3.1s-3.6-3.8-3.6-3.8L334.6,945.1z"/>
		<path class="st0" d="M286.6,954.1c0,0,2.6-1.4,2.5-3.1s-3-4.1-1.2-5.9s3.6-3.9,4.7-2.2s-0.8,5.8,1.3,7.2s6.4,1.7,6,3.6
			s-2.9,3.3-4.5,3.4s-6.8-0.3-7.2-0.9L286.6,954.1z"/>
		<path class="st0" d="M287.8,964.4c0,0,1.3-5.1,2.7-4.7s3.8,2.6,4.8,2.2c1.2-0.7,2.5-1.2,3.8-1.5c1.1-0.1,3.1,1.9,3.1,2.5
			s1.6,0.8,1.8,1.5s1.3,3.5,0.6,4.9c-0.6,1.2-1.8,2-3.2,2.1c-1.2,0.3-1.5,1.1-2.8,1.1s-4.5-0.7-4.4-2.4s1-4.2,0.7-4.4
			c-0.7-0.3-1.4-0.5-2.2-0.6c-0.7-0.1-1.5-0.2-2.2-0.3C289.6,964.7,288.7,964.6,287.8,964.4z"/>
	</g>
	<path class="st0" d="M449.5,6.1c0,0,3.4-6.9,7.5-3.8s4.6,6.7,7.1,10s1,7.7,2.6,12s4.6,8.7,6.6,11.5s0.3,5.4,0,6.7s0,5.3,2.1,6.6
		c0,0,9,11,9.9,14.6s3.2,8.5,4.6,11.4s3.5,7.5,5.4,11.3s4.6,11.2,3.6,12.4s0.7,3.4,2.2,4.4s2.6,4,2.6,6.2s0,4.9,1.5,6.8
		s10.6,9.6,10.6,13.5s4.6,6.9,6.1,8.9s3.3,6.4,5.4,10.5s7.4,7.2,11,13.6s8.4,12.5,6.9,14.8s3.3,2.8,6.1,5.6s15.4,14.9,20,20.5
		s13,13.3,13.8,19.2s-3.8,6.4-1.3,10.7s9.2,11.8,11,13.6s4.4,4.8,4.4,8.9s2,10.8,3.8,13.1s6.6,1.8,7.7,8.7s1.2,5.1,4.6,7.9
		s7.6,7.2,8.4,10.7s-0.5,8.7,3.1,11.5s8.9,7.2,10.5,10s3.6,4.6,3,10.5s-0.5,13.3,2.3,17.4c2.4,3.7,4.3,7.6,5.7,11.8
		c0.5,1.5,3,3.8,5.1,5.3s0,6.2,0,13.1s-1,22.2-0.8,26.1s3.9,10.7,6.2,16.6s4.3,12,4.8,15.3c0.5,4.6,0,9.2-1.3,13.6
		c-1.2,3.6-8.1,16.9-10.7,18.4s-5.4,1.8-8.7,2.3s-6.4,2.1-9,0s-5.3-5.9-3.8-7.9c1.9-2.7,2-6.1,0.5-9c-1.8-3.3-4.1-9.2-3.3-11.5
		s5.4-4.1,5.6-7.4s-1-5.4-1.5-7.9s0-6.4-1.5-6.7s-5.7,2.1-9.3,2.1s-8.9-3.4-10.7-4.6s-2.3-2.8-4.3-5.9c-1.5-2.4-3.7-4.3-6.2-5.6
		c-2.3-1.3-7.4-6.2-6.9-10.5s-3.1-8,2.1-10s8.9-1,12.5-1s7.9-6.2,3.1-9.2s-6.9-5.1-10.8-3.4s-4.3,5.9-11.5,3.6s-11.2-3.6-13.5-3.6
		s-5.7-1.2-8.5-0.5s-5.1,3.4-7.9,4.6s-1.8-4.6-3.9-8.4s-2.5-8.4-10.7-7.7s-13.8,2.8-14.6,5.6s2.3,4.9,1.3,9.5
		c-1.1,4.3-5.6,6.9-9.9,5.8c-0.7-0.2-1.5-0.5-2.1-0.9c-5.4-3.1-3.6-7.2-9-8.2c-4.7-0.9-9.5-1.3-14.3-1.3c-1.8,0.3-5.9-7.4-12-7.4
		s-8.5,4.3-13.6,1.5s-6.6-8.2-7.4-10.5s-4.6,0.8-10.7,1.6s-9.7-0.3-9.7-3.9s3.3-3.5,5.1-6.4s3.8-8.4,1-8.1s-3.3,1.7-6.1,1.5
		s-3.4-2.6-5.9-3.6s-11.8-4.1-13.6-0.5s-0.8,5.1-5.4,4.3s-6.9-2.5-8.4-1.2s-5.4,4.3-7.7,5.9s-7.4-3.4-7.1-5.7s0-7.4-7.5-6.9
		s-11.2,3.3-11.5,9s11.3,10.7,0,11.7s-15.8,0.8-15.8,0.8s-6.2-3.3-5.9-6.4s-5.1-2.3-5.9-1.8s-30.2,4.9-30.9,4.9s21.2-39.9,25.8-49.6
		s6.1-8,6.1-14.6s0.8-10.5,3.4-13.6s6.9-7.9,6.9-7.9s-7.4-9.2-14.6-10.2s-13.1-2.6-15.4-4.6s-6.6-7.2-9.9-7.2s-8.2,2.6-11.5,2
		s-1.6-5.3,0-8.7s4.1-10.2,1.5-11.2s-7.9-1-7.2-2.6s6.4-3.5,6.4-6.1s-5.3-8.7-3.3-13.8s3.1-8.5,6.9-9.7s7.4,0.5,8.7-3.9
		s2.6-14,1.8-14.8s-7.4-3.1-9-5.4s-3-7.9-3.8-8.9s-5.4-0.3-10.2-0.3s-6.9-3.8-6.9-5.9s-0.3-16.1-1.8-19.1s-3.6-1.3-8.7-1.3
		s-7.7,0-11.5,1.8s-13.6-2.1-11.5-7.2s3.5-7.2,2.8-8.9s-8.5-0.6-10.3,1s-5.6-2.1-5.6-3.1s-5.3-2.3-5.6,0.5s0.3,5.9,0,7.7
		s2,4.1-2.1,3.3s-21.7-8.9-21.9-12.5s-3.6-9.7-4.4-10.5s-11.2-4.6-8.9-7.9s15-8.7,19.1-14.1s2.6-7.9,9.2-6.9s17.4-3.8,17.4-3.8
		s3.4-3.1,6.4-1.1s13.8,4.6,16.9,2.6s6.9-6.7,10-5.6c3.1,1.1,11.5,5.3,13.3,7.4s5.1,3.1,7.7,0.2s8.4-6.9,10.7-6.4s7.4,3.6,11.8,3.4
		s13.3-2.6,14.5-3.4s4.9-3,9-1s4.3,4.4,8.4,5.6s8.7,0,12.1-1.5s11.2,2.6,16.8,2.3s8-3.6,11.8-0.8s4.6,5.7,9.2,2.1s8.2-7.4,12.3-8.2
		s8.2-5.1,12.5-10s13.1-8.4,15.4-15.3s0.5-9.2,3-12.5s3.4-4.9,2.6-8.2s-1.8-3.4-2.1-6.7S449.5,6.1,449.5,6.1z"/>
	<path class="st0" d="M315.8,347.1c0.8,0,30.2-4.4,30.9-4.9s6.2-1.3,5.9,1.8s5.9,6.4,5.9,6.4s4.6,0.3,15.9-0.8s-0.3-6.1,0-11.7
		s4.1-8.5,11.5-9s7.7,4.6,7.4,6.9s4.9,7.2,7.2,5.7s6.1-4.6,7.6-5.9s3.9,0.5,8.5,1.3s3.6-0.8,5.3-4.4s11-0.5,13.6,0.5
		s3.1,3.3,5.9,3.6s3.3-1.3,6.1-1.5s0.8,5.3-1,8.1s-5.1,2.9-5.1,6.4s3.6,4.6,9.7,3.9s10-3.9,10.7-1.6s2.3,7.7,7.5,10.5
		s7.4-1.5,13.5-1.5s10.2,7.7,12,7.4c4.8,0,9.7,0.4,14.4,1.3c1.1,0.2,2.1,0.7,3,1.4c0.7,0.9,1.3,1.8,1.9,2.7
		c0.3,0.6-7.5,4.5-10.1,5.8s-10.8,11.9-15.2,12.9s-13,8.6-13.5,9.1s-4.9,5.6-5.3,9s-0.3,5.5,1.7,7.7s1.1,6,0.5,6.5s-2.2,5.4-3.5,5.8
		c-3.5,0.6-6.9,1.6-10.1,3c-3.9,1.9-9,4-9.7,2.6s-3.3-9.9-7.5-12.1s-4.4-0.9-5.1-3.3s-3.8-3.4-5-0.3s0.9,8.4-1.5,9.6
		c-2.7,1.5-5.9,1.6-8.7,0.3c-2.9-1.5-5.6-3.6-8.7-4.6s-0.9,1.2-2.7,4.6s-2.6,6.3-5.7,3.7s-4.9,0.9-4.9,1.6s-2.2,6.5-2.2,7
		s3.4,6.6,3.4,8.8s1,4.5-2.4,4.3s-7.2-2.7-8.9-2.9c-1.6-0.1-3.1-0.1-4.7,0c0,0-4-1.7-5.8,1s-5.7,5-7.7,5.8l-5.6,2.4
		c0,0,0.6,6.5-1.4,9.1s-2.6,5.2-5.1,6.3s-5.5,0.8-7,2.2s-0.5,7.1,2.2,7.5c2.1,0.2,4.2,0.2,6.3,0c1.8,2.6,3.8,5.1,6,7.5
		c2.4,2.4,6,3.6,3.9,5.6s-6.5,3.4-6.5,6.1s-0.1,18-1,19.1s0.7,4.5,1.4,6s2,8.9,0.7,10.4s-6,3.1-5.8,8s3,7.7,5.1,6.5l6.6-3.7
		c0,0,6.5,6.3,7.4,6.9c1.4,1.2,3.3,1.6,5.1,1.1c2-0.7,8.7-1.1,8.7-1.1s3.9,3.5,4.6,6s3.2,4.1,0.7,6s-6.4-0.4-7.7,0s-5.6,1.7-4.4,5.8
		c1,3.2,1.3,6.5,0.8,9.8c-0.4,1.6-4.6,5.4-4.7,6.9s-0.3,5-0.3,5.5s-1.9,5.9-5.6,7.1s-4.4,0.7-6.3,2.8s-3.8,3.8-5.2,3.9s-4-1.5-5-2.1
		s-7.3-1.2-8.6,2.1s-3.6,4.6-6,3.6s-5.6-5.2-8.6-5.5s-5.6-2.3-9.6-3.3s-7.6-6-8-6.7s-9.7-17.5-9.1-21.3s1.8-3.2,1.8-6.7
		s-1.9-5.2-6.6-8.4s-6.8-5.4-8.2-4.3s-3.4,2.5-4.5,1.6s0.1-16.9,2.2-21.3s2.5-8.7,5.2-11.5s5-3.4,6.3-4.4s-0.5-5.9-2.7-6.3
		s-3.5,2.6-5.9,2.5s-3.1-7.5-6.8-9s-7.9,0.5-7.9,0.5s-6.1,0.8-7.7-2.9s-4.5-5.3-5-6.5s0.7-5.9,1.7-8.2s2.8-9.5-0.4-9.6
		s-17.4-2.2-19.8-1.4s-5.9,2.4-6.3,0.2s2.3-6.5,2.3-8.9s-2.8-2.1-0.2-6.2s8.2-16.8,12.5-20.2c4.3-3.4,8.3-7.8,8.4-10.4
		s-1.4-14.6-4-18.3s-8-7.2-8.9-8.9c-0.6-1.5-0.9-3.1-0.9-4.7c1.1-0.1,2.2-0.2,3.3-0.5l5-1.4c1.5,0,3-0.2,4.5-0.6
		c2.6-0.5,5.9-1.3,6.8-2.1s1.1-0.6,1.8-3.3s1.4-5.6,2-6.4c1.1-1.3,2.3-2.4,3.6-3.5l4.5-3.9c1-1.2,1.9-2.5,2.5-4
		c1.4-2.8,2.2-4.2,2.8-4.4s0.9-0.5,2.5,0.5c1,0.7,2.1,1.1,3.2,1.4c1,0,2.1-0.4,2.9-1c0.9-0.5,1.7-1.3,2.2-2.2
		c0.3-0.4,2.2-4.1,2.5-4.9s3.7-7.8,3.9-8.4s1.9-4.1,2.1-4.4c0.3-0.4,0.7-0.7,1.1-0.9c1-0.2,2-0.5,2.9-0.8c1.4-0.7,2.5-1.9,3.1-3.3
		c0.7-1.9,1-2.2,0.3-3.5L315.8,347.1"/>
	<path class="st0" d="M368.9,609.4c1.9-2,2.5-1.6,6.2-2.8s5.7-6.5,5.7-7s0.1-4,0.2-5.5s4.4-5.4,4.8-6.9c0.5-3.3,0.2-6.7-0.8-9.9
		c-1.3-4.1,3-5.4,4.3-5.8s5.1,1.9,7.7,0s0-3.4-0.7-5.9s-4.6-6-4.6-6s-6.6,0.3-8.7,1c-1.8,0.5-3.6,0.1-5.1-1l-7.3-7l-6.7,3.7
		c-2,1.2-4.9-1.5-5.1-6.4s4.4-6.5,5.8-8s0-8.9-0.7-10.5s-2.2-4.7-1.3-5.9s1-16.4,1-19.1s4.4-4.1,6.5-6.2s-1.6-3.2-4-5.6
		c-2.1-2.4-4.1-4.9-5.9-7.5c-2.1,0.2-4.2,0.2-6.3,0c-2.8-0.3-3.8-6.1-2.3-7.5s4.5-1.2,7-2.2s3.1-3.8,5.2-6.3s1.3-9,1.3-9l5.6-2.4
		c2.1-0.9,5.8-3.1,7.7-5.8s5.8-1.1,5.8-1.1s3.1-0.1,4.8,0s5.4,2.8,8.9,2.9s2.3-2,2.3-4.2s-3.4-8.4-3.4-8.9s2.3-6.3,2.3-7
		c0.2-1.5,1.6-2.6,3.1-2.5c0.7,0.1,1.3,0.4,1.8,1c3.1,2.5,3.7-0.4,5.6-3.8s-0.3-5.6,2.8-4.6s5.7,3.1,8.6,4.6s6.4,0.9,8.7-0.3
		s0.4-6.5,1.6-9.6s4.2-2,4.9,0.4s0.9,1,5.1,3.2s6.9,10.8,7.5,12.1s5.8-0.6,9.8-2.5c3.2-1.4,6.6-2.4,10-3.1c1.4-0.3,3.1-5.3,3.6-5.8
		s1.5-4.3-0.5-6.5s-2.1-4.2-1.7-7.6s4.8-8.6,5.3-9.1s9-8,13.4-9s12.7-11.7,15.3-13s10.4-5.1,10-5.8l1.2,1.7c0.6,0.7,1.4,1.4,2.2,1.9
		c1.1,0.8,2.4,1.3,3.8,1.6c1.3,0.2,2.7,0.1,3.9-0.4c1.3-0.7,3.8-2.2,4.4-3.9c0.9-2,1-4.2,0.3-6.3c-0.9-2.5-1.2-3.6-1.1-4.3
		c0.3-1.3,1.1-2.4,2.3-3c1.8-0.9,3.7-1.6,5.6-2.1l5.8-1c1.7-0.2,3.3-0.1,5,0.1c1.3,0.2,2.4,0.8,3.4,1.6c1,1.2,1.8,2.5,2.4,3.9
		c0.8,1.3,1.4,2.7,1.8,4.2c0.2,0.9,0.5,2.8,0.7,3.5c0.1,0.9,0.4,1.7,0.8,2.5c0.3,0.3,0.8,0.5,1.2,0.3c1.1-0.5,2.3-1.2,3.3-1.9
		c1.2-0.9,2.5-1.7,3.8-2.4c1.1-0.5,2.4-0.7,3.6-0.6l4,0.5l3.5,0.4l5.4,1.3l5.6,1.8c0.1,0,3.1,0.9,3.7,0.9c1.1,0.2,2.2,0.1,3.2-0.3
		c0.9-0.4,1.7-0.9,2.4-1.5c1-1,2.3-1.9,3.6-2.5c1.2-0.5,2.5-0.7,3.8-0.3c1.2,0.5,2.4,1.1,3.5,1.8c1.4,0.8,2.7,1.7,4,2.7
		c0.7,0.7,1.1,1.6,1.2,2.6c0,0.7-0.1,1.4-0.3,2c-0.4,0.7-0.8,1.4-1.3,2c-0.5,0.5-1,0.9-1.5,1.3c-0.8,0.4-1.7,0.6-2.6,0.6l-5.2-0.3
		c-1.5,0-3,0.2-4.4,0.5c-1.4,0.4-3.5,1-4.2,1.8c-0.7,0.7-1.1,1.6-1,2.6s0.6,3.1,0.6,4c0.1,0.7,0.2,1.4,0.1,2.1
		c-0.1,0.8,0,1.5,0.1,2.3c0.4,1.1,0.8,2.1,1.4,3.1l2.2,2.8c0.9,0.8,1.8,1.6,2.8,2.3l3,1.9c0.8,0.7,1.5,1.4,2.2,2.2
		c0.9,1.1,1.7,2.3,2.4,3.5c0.5,0.7,1.3,2.1,1.7,2.6c0.9,1.1,2,2,3.3,2.7c1.8,1,4.4,2.3,5.4,2.7c1,0.3,2,0.6,3.1,0.7
		c1.2,0,2.4-0.1,3.6-0.4l4.5-1.3c0.6-0.3,1.2-0.3,1.8-0.2c0.3,0.1,0.8,0,0.9,1.8s0.2,2.8,0.4,4s0.9,3.4,1.1,4.3c0.3,1,0.4,2,0.5,3
		c0.1,1.3-0.1,2.5-0.8,3.6c-0.8,0.9-3.6,3.4-4,3.9c-0.6,0.7-1,1.6-1,2.5c0.1,1.5,0.4,2.9,0.9,4.3c0.8,2.1,1.9,4.4,2.5,5.9
		c0.7,1.2,1.1,2.5,1.1,3.9c0.1,1.2-0.1,2.5-0.6,3.6c-0.4,0.9-1.3,2.1-1.3,2.6c0,1.1,0.3,2.1,0.8,3c0.8,1.2,1.7,2.3,2.8,3.3
		c0.8,0.7,1.9,1.7,3.3,1.6c1.6-0.1,3.2-0.3,4.7-0.7l5.8-1c1.1-0.2,2.2-0.6,3.3-1c0.3-0.1,1.7,1,1.9,3.9s0.3,5.8,1.8,8.4
		s5.4,10.4,5,14.1s-3.1,7-3,12.4c0,5.5-0.9,11-2.8,16.2c-1.6,4.9-4.3,8-4.7,11.4s-1.9,7-1.8,11.3s-1.3,14.6-0.2,20.4
		s2.1,7.2,3.5,12.2s3.5,11.8,4.4,12.1s-0.1,2.1-2.1,4.4s-5.3,6.5-5.5,8.8s-2.3,3.3-3.7,4.6s-4.8,0.5-4.8,2.6
		c-0.1,1.9,1.4,3.5,3.3,3.7c1.5,0,3.2-3.2,6-3.8s6.1,3.3,7.4,3.8s2.4,4.3,6.3,0s5.6-7.4,9.1-10.5c2.3-1.9,4.1-4.3,5.3-7
		c0.9-2,5.2-4.3,6-2.8s1.3,5.3,2,7.9s-3,14.3-6.3,19s-4.1,6.3-3.6,9.5s0.5,19.3-1.9,24.9s-3.8,3.2-3.8,8s-1.3,12.4-2.5,19.7
		s-3.7,9.9-4.1,11.5s-0.7,4.7-3.2,4.7c-3.8-0.3-7.5-1.1-11-2.4c-2.8-1.2-9,0.6-13.8,1.4s-6.7,1.5-7.6-3.7s-6-7.6-9.2-8.1
		s-3.1-2.5-6.6-2.7s-10.3,3.6-14,5s-6.8,3.1-5.9,6.2s1.4,4.3,0.1,5.7s-6.8,2.2-8.4,3.2s-5.9,6.1-8,5.4s-2.9-2.3-7.8-3.3
		s-9.6-0.3-10.4,0.1s-1.8,1.8-3.5,4.6s-5,3.3-6.6,3.4s-7.5,2.9-9.4,4.8s-5-0.7-8.8-1.8s-12.4-3.3-16.4-2.2s-7.1,0.5-8.9-2
		s-10.1-8.9-9.6-14s-1-6.1-2.5-6.6s0.9-4.5,1.7-8.1s0.5-5.6,2.7-6.8s6.4-2.3,8.2-0.7s2.7,5.3,6.9,5.8c4.2,0.5,11.9-4.2,11.8-9.2
		s-5.7-8.1-1.1-12.1s5.3-1.5,5.3-4.4s-3.7-5.7-0.3-8.8s7.4-6,7.4-6s-0.7-9.8-2.3-13.9s-1.1-6.4-1.6-10.6s-1.6-7.5-4.4-8.4
		s-9.6-0.9-11.1,0.2s-1.4,2.8-6,2.9s-14.3,0.5-15.2,1.8s-1.1,8.2-1.2,12s-0.2,8.6-2.8,11.3s-7.3,4.8-7.8,1.6s2.3-7.1-0.1-8
		s-4.9-0.1-7.7,2.4s-8.2,7.4-7.9,12.2s3.4,3.5,6.9,5.1s11,5.5,6.8,7.9s-8.1,3.3-9.5,4.5s-2.6,4.2-2.8,6s0.2,5.5,2.3,7.4
		s6.9,6.3,5.1,8.2s-7,0-8.6,0s-6.4-1.5-6.4,0.8s3.1,7.3,5.7,9s3.7,4.4,2.9,5.7c-0.9,2-1.5,4.2-1.8,6.4c0,0.7-1.5,1.4-3.8-0.5
		s-6.9-5.8-11.3-5.9s-9.1,1.8-12.6,2.1s-10.8,0.4-9-7.1s6.7-9,2.8-14.5s-6.6-9.6-10.7-11.9c-2.9-1.4-4.8-4.4-4.8-7.6
		c-0.1-2.5-6-3.1-12.1-3.4c-4.4-0.3-8.6-2.4-11.4-5.8c-0.7-1.3-7.7-1.8-7.7-1.8l-2.6-5.7c0,0-6.7,0.4-6.7-3.4
		c-0.1-2.9,0.2-5.8,0.8-8.7c0.5-2.1,0-9.7-2.6-13.7S368.9,609.4,368.9,609.4z"/>
	<path class="st0" d="M658.5,698c-3.8-0.3-7.5-1.1-11-2.4c-2.8-1.2-9.1,0.6-13.8,1.4s-6.8,1.5-7.7-3.7s-6-7.6-9.2-8.1
		s-3.1-2.5-6.5-2.7s-10.4,3.6-14.1,5s-6.8,3.1-5.9,6.2s1.4,4.3,0.1,5.7s-6.7,2.2-8.4,3.2c0,0-1.4,4.4-3.5,6.5s-3.7,3.2-3.9,4.2
		s1.2,4.5,4,5.9s7,1.6,12.1,5.9s9.2,5,10.6,9.2s3.2,7.8,5.6,7.8s6.5-2.8,7.9-1.8s1.6,4.1,1.7,7.6s-1.4,6.5,0,6.8s7-0.6,8.3-0.7
		s5.1,3.5,5.3,5.3s2.4,7,4,5.7s5.7-4.1,6.6-4.6s3.3,1,3.2-1.5s-2.1-4.9-1.6-7.6s1.3-6.7,1.1-7.6s-4.3-9.6-5.7-12.2s-0.7-4.2-0.7-4.2
		s5.3,4.5,7,4.2s4.9-1.5,3.3-4.2s-3.6-6.5-3.6-8.5s-0.6-4.4-0.2-4.7s6,3.1,7.5,5.5s0.7,4.2,3,8.3s3.2,1.2,3.8-1.6s3.1-5.5,3.1-7.3
		s-0.2-9,0.9-11s1.2-3.2,0.6-5.1S658.5,698,658.5,698z"/>
	<path class="st0" d="M490.1,691c-1.4-0.5,0.9-4.5,1.7-8.1s0.5-5.6,2.7-6.7s6.4-2.3,8.2-0.8s2.7,5.4,6.9,5.9
		c4.2,0.5,11.9-4.2,11.7-9.2s-5.6-8.2-1-12.2s5.3-1.5,5.3-4.3s-3.7-5.8-0.3-8.8s7.4-6.1,7.4-6.1s-0.7-9.8-2.3-13.9
		s-1.1-6.4-1.6-10.6s-1.6-7.4-4.4-8.3s-9.6-0.9-11.1,0.1s-1.4,2.8-6,2.9s-14.3,0.6-15.2,1.8s-1.1,8.2-1.2,12.1s-0.2,8.5-2.8,11.2
		s-7.3,4.9-7.8,1.7s2.3-7.2-0.1-8.1s-4.9-0.1-7.7,2.4s-8.2,7.5-7.9,12.2s3.4,3.6,6.9,5.1s11,5.5,6.7,7.9s-8,3.4-9.4,4.5
		s-2.6,4.2-2.8,6s0.2,5.5,2.3,7.4s6.9,6.3,5.1,8.2s-7,0-8.6,0s-6.4-1.5-6.4,0.8s3.1,7.3,5.7,9.1s3.7,4.3,2.9,5.6
		c-0.9,2-1.5,4.2-1.8,6.4c0,0,1.2,2,3,1.8s5.4-2.6,7.5-4.1s3.3-2.3,4.8-1.1s3,1.8,4.5,1.2s3.4-1.3,3.5-3.9s0.3-3.9,0.9-4.4
		s0.3-1.5,0.5-2.1C490,692.1,490.1,691.5,490.1,691z"/>
	<path class="st0" d="M315.7,347c-0.8,0,21.2-39.9,25.8-49.6s6.2-7.9,6.2-14.6s0.8-10.5,3.3-13.5l6.9-8c0,0-7.4-9.2-14.6-10.2
		s-13-2.5-15.3-4.6s-6.7-7.2-10-7.2s-8.2,2.6-11.5,2.1s-1.5-5.4,0-8.7s4.1-10.2,1.5-11.3s-7.9-1-7.1-2.5s6.4-3.6,6.4-6.2
		s-5.4-8.6-3.3-13.8s3-8.4,6.9-9.7s7.4,0.5,8.7-3.8s2.5-14.1,1.7-14.9s-7.4-3-8.9-5.3s-3.1-8-3.8-9s-5.4-0.2-10.3-0.2
		c-3.5,0.2-6.5-2.4-6.9-5.9c0-2.1-0.2-16.1-1.8-19.2s-3.6-1.3-8.7-1.3s-7.6,0-11.5,1.8s-13.5-2-11.5-7.1s3.6-7.2,2.8-9
		s-8.4-0.5-10.2,1s-5.6-2-5.6-3s-5.4-2.3-5.7,0.5s0.3,5.9,0,7.6s2.1,4.1-2,3.4s-21.7-9-22-12.6s-3.6-9.7-4.3-10.5s-11.3-4.6-9-7.9
		c0,0-5.9,7.2-4.3,11.1s-2.2,9.8-2.2,9.8s-12.4,8.8-14,12s-1.1,6.4-1.6,8s-9,9.8-12.6,15.3s-7.2,5.3-11,5.3s-6.9,0.1-7.8,1.8
		s0.7,11.3,0,13s-1.5,35.5-1.4,43.1s-1.1,7.9,8.7,15.2s23.2,15,24.6,15.9s2.4,1.9,5.4,1.4s7.9-8.1,7.8-8.7s-2.1-1.9,1.5-1.6
		s7.5,0,7.7-0.6s-3.6-3.3,0-8.2s5.6-6.6,8-6.8s9.7,0.8,10.3,0.6s3.9,4.2,3.9,8.4s2.1,7.3,2.8,7.5s0.3,4.1-0.4,9.2s0.3,6.7,2.6,6.3
		s2.9-6.3,6.5-3.3s1.1,8.4-0.5,10.7s0.3,6.9,0.7,7.3s-3.2,7.8-7.1,9.5s-5.2-1.3-8.2,1.6s-5.7,3.8-6.4,3s-3.2-6-3.2-6
		s-4.4-2.1-6.5,0.1s-11.1,8.1-13,7.2s-6.9-2.6-6.8-5.5s-4.3-4.9-7.2-5.8s-3.3-3.8-3.3-7s-5.7-5.9-6.9-8.8s-4.3-7.2-2.4-8.7
		s3.3-2.2-1.8-5.9s-18.2-14-21.6-19.8s0-6.7,0-11.4s1.3-11.9-2.5-11.5s-1,3.2-6.1,4.6s-6.5,0-10.1-1.2s-6.6-2-6.8-0.5
		s-0.7,21,2.7,26.1s3.5,13.5,9.5,14.6c3.6,0.6,7.2,1.6,10.6,3c0,0,0.6,7.1,3.3,7.2s11,0.9,12.3,1.7s5.7,9,5.7,13.4s4.4,8.8,5.7,9.6
		s-1.3,10.5-4.2,12.1s-4.5,2.6-3.9,5.3s1.9,11.5,2.1,12.5s1.5,3.7,6.5,3.8s5.6,1.2,6,1.8s5.6,3,6.4,3.9s2.2,4.6-0.1,4.7
		s-8.5-5-9.1-4.5s-1.7,8-3.2,9.9s-3,5.6-4.5,2.5s-4.6-6.6-5.4-6.7s-9.6-1.7-10.6,0s0.4,7.8,1.9,8.8s-1.6,2-3.4,5.2s-5.4,6.9-2.4,6.9
		s7-0.4,7-0.4s-3.6,1.5-4.1,3.9s-2.7,5.1,0.8,4.6s6.4-5.1,9.4-6.9s3.9-2.8,7.5-3.3s7.8-1.6,9.4,0s3.9,3-0.5,7.1s-10.2,5.1-10.4,5.5
		c-0.2,2.1-0.1,4.3,0.2,6.4s0.1,4.3-0.5,6.3c-0.6,1.3-1.7,3.2,0.2,5.2s6.3,5,9,3.2c3.2-2.3,5.8-5.2,7.8-8.6c2.4-3.9,2.1-6.1,3.4-5.2
		s3,4.6,3,6.4s1.6,4.9,1.6,5.2s-11.5,3.2-13.5,4.9s-5.7,3.7-5.5,4.6s16.3,14.7,16.9,15.2s3,0.9,6,0s8.9-3.3,9.7-8.9s1.9-8.2,2.4-8.6
		s2.8-4.5,5.8-3.2s8.4,4.7,6.1,6.9s-8.2,1.4-9.1,2.3s-1.5,1.5-1.4,5.1s-3.8,9.2-4.1,9.9s0.5,3.2,1.9,4.5s7.2,2.3,11.6,0
		s8.9-5.3,11.7-6.4s9-0.8,10.8,0.6s9.4,5.9,11.3,7.1s4.9,1.3,7.6,1.1c2.5-0.4,4.9-1,7.3-1.8c0,0,11-0.8,12.3-4.1s1.6-6.4,2.5-8.2
		s7.6-6.4,9.2-8.7s3.1-7.8,5.1-7.4s3.6,2.6,5.7,2s3.9-2,4.9-4c1.2-2.2,6.7-14.2,7.7-16.4s2.5-0.9,4.8-2.4c1.6-1.2,2.8-2.9,3.2-4.9
		C317.5,349.8,315.7,347,315.7,347z"/>
	<path class="st0" d="M185.7,245.7c2.9-0.5,7.9-8.1,7.8-8.7s-2.1-1.9,1.5-1.6s7.6,0,7.7-0.6s-3.6-3.3,0-8.2s5.6-6.6,8-6.8
		s9.8,0.8,10.3,0.6s3.9,4.2,3.9,8.4s2.1,7.3,2.8,7.5s0.3,4.1-0.3,9.2s0.2,6.7,2.5,6.3s3-6.3,6.5-3.3s1.1,8.4-0.5,10.7
		s0.3,6.9,0.7,7.3s-3.2,7.8-7.1,9.5s-5.2-1.3-8.1,1.6s-5.8,3.8-6.4,3c-1.2-1.9-2.2-3.9-3.2-6c0,0-4.5-2.1-6.6,0.1s-11.1,8.1-13,7.2
		s-6.9-2.6-6.8-5.5s-4.3-4.9-7.1-5.8s-3.4-3.8-3.4-7s-5.7-5.9-6.9-8.8s-4.3-7.2-2.4-8.7c0,0,0.9-1.3,1.4-1.3s3-0.1,3.9,0.3
		c2.1,1.3,4.1,2.9,5.8,4.7c0.9,1.1,4.4,3.2,5.2,3.7s1.8,1.5,3,0.8s1.7-3.4,1.3-5.1C185.9,248,185.8,246.9,185.7,245.7z"/>
	<g>
		<path class="st0" d="M465.2,705.2c0,0.7-1.5,1.4-3.8-0.5s-6.9-5.8-11.3-5.9s-9.1,1.8-12.6,2.1s-10.8,0.4-9-7.1s6.7-9,2.8-14.5
			s-6.6-9.6-10.7-11.9s-4.6-5.2-4.7-7.6s-6.1-3.1-12.2-3.4c-4.4-0.3-8.6-2.4-11.4-5.8c-0.7-1.3-7.6-1.8-7.6-1.8l-2.7-5.7
			c0,0-6.7,0.4-6.7-3.4c0,0,0-2.5,0.1-3.1s-1.9,0.7-2.8,1.3s-4.7,9.4-8.7,11.9s-6.7,2-8.2,2.5s-0.8,1.8-2.6,1.8s-5.8,0.2-5.9,0.4
			s-0.9,7.2-4.5,9.9s-6.6,2.6-7,7.6s-0.5,10-1,11.2s-5.3,9.4-6.7,13.1s-1.7,12.3-3.2,14.2s-2.4,6.2-2.1,7.1s4.5,3.4,4.7,4.7
			s3.3,11.4,3.3,14.2s-0.3,4.2,1.1,6.8s2.8,7,0.5,9.8s-6.7,6.3-7,9s1.4,6.1-0.9,8.9s-6.3,6.9-6,8.6s4.3,5,5.1,7.5s1,10,0.8,11.7
			s-1.8,1.5,3.3,8.8s8.7,7.3,9.6,9.5s1,5.3,2.8,8.1s6.8,3.8,8.8,7s4.9,12.9,6.1,15.7s3.7-0.4,5.7,0.3s3,3.3,4.4,2.9s6.6-1.5,7.6-6.9
			s1.3-11.4,2.2-11.7s4.3,2.8,4.8,4.7s4.7,5.2,5.9,5.5s5.9-0.1,4.6-4.5s-3.4-8.6-1.1-10.2s4.9-1.6,5.7-1.9s4.1-5.8,5.7-4.6
			s-1,10.1-1.2,14.5s0.7,9.9,0.1,12.1s-3.4,4.8,0.8,6.9s9.9,1.8,11.3,2.3s0.9,2.5,2.5,4.7s4.5,0.1,7.3-0.6s7,1.4,7.1-3.1
			s4.2-7.1,6.8-6.2s5.4,4.6,6.5,6.1c0.9,1,2.5,1.2,3.5,0.3c0,0,0.1,0,0.1-0.1c0.6-0.8,2.7-6.3,4-6.3s6.1,3,6,5.2s-2.6,3.6-2.1,5.7
			s4.5,5.7,6.1,4.2s4.6,0.8,6.4,1.9s7.5,2.7,8.6,0.5s2-7-1-7.1s-4.7-5.2-4.1-6.9s1.5-7.5,2-8.5s-2.9-3.4-3.6-3.6s2.6-2.2,3.5-2.4
			s7.5-1.3,8.1-1.8s5.4-2.6,4-4.2s-6.1-6.4-5.7-7.4s-4.6,1.7-6.2,2.9c-1.9,1.2-4.1,1.9-6.3,2.3c-1.1,0.1-4.9,5.7-5.9,4.7
			s-3.8-6.6-2.3-7.9s17.8-3.5,18.5-6.9s0.2-6.4,2.8-6.5s3.3-0.5,6.5,0.1s4.8-2.2,5.6-2.4s3.2,1.5,4.1,3.6s4.2,3.2,3.8,4.6
			s0,3.8,3.6,3.6c2.6-0.1,4.7-2.3,4.6-5c0-0.3-0.1-0.6-0.1-0.9c-1-4.2-2.5-8.2-4.4-12.1c-2-3.8-4.6-3.9-5.1-8.3s2.8-10.6,4.5-10.4
			s1.8,4.3,2.2,6s-0.6,10.4,3.9,11.3s7.2-1.4,7.6,0.9s-0.7,5.9,1.5,5.5s3.7-4.6,4.7-3s-0.4,5.9,3,6.9s8.3,0.1,9.5-1.3
			s3.9-0.6,4.6,0.3s4.7,4.4,6.3,3.6s5.2-0.6,4.3-5.1s-1.7-8.8-0.7-11s-0.3-5.6,0.3-8.2s2.9-3.3,6.3-5.8s2.9-5.5,5.5-6
			s8.6,2.7,14.4,0.5s7.6-3.5,11.8-5.8s6.2-1.9,9.5-3.4s6.1-2.8,6.2-6.5s-0.6-7.1,1.2-7.5s6,1.2,7.8,1.1c2.1-0.2,3.8-1.8,4.1-3.9
			c0.1-1.4,0.4-2.8,0.8-4.1c0,0,0.3-1.9,0.4-2.8c0.2-1.6,0.2-3.2,0.1-4.8c-0.2-2.1-0.3-3.8-0.7-4.5s-0.9-1.4-1.6-1.4
			c-1.2,0.2-2.3,0.5-3.4,1c-2,0.7-3.2,1.2-3.9,1c-0.6-0.1-1.2-0.3-1.7-0.7c-0.8-0.7-1.5-1.6-2-2.6c-0.5-1.1-1-2.2-1.4-3.3
			c-0.6-2.2-2-4.2-3.9-5.4l-3.5-2.3c-1.2-0.8-2.3-1.6-3.4-2.5c-1.1-0.9-2.3-1.8-3.5-2.5s-2.5-1.3-3.8-1.8l-3.9-1.3
			c-0.9-0.4-1.8-0.9-2.6-1.5c-0.7-0.7-1.3-1.5-1.8-2.4c-0.5-0.7-0.7-1.5-0.8-2.3c0.2-0.6,0.5-1.1,1-1.5c0.7-0.7,2-1.8,2.3-2.2
			c0.7-0.7,1.4-1.4,1.9-2.3c0.6-0.8,1.1-1.8,1.5-2.7c0-0.5-0.5-1.1-0.9-0.8l-3.1,2.8c-0.8,0.5-2.3,1.6-3.2,1.2l-3.4-1.9
			c-1.7-0.8-3.5-1.3-5.4-1.6c-1.9-0.4-3.9-0.5-5.9-0.3c-1.1,0.1-2.2,0.3-3.3,0.5c-0.9,0.5-1.7,1.3-2.2,2.2c-0.7,1.3-1.5,2.5-2.4,3.7
			c-0.8,0.7-1.8,1.3-2.8,1.6c-1.3,0.4-3.9,0.8-4.4,1s-2.8,1.1-3.9,1.7l-3.4,2.2c-0.5,0.4-1.1,1.1-1.8,1.1c-1,0.1-1.9-0.1-2.8-0.5
			c-1-0.4-2.8-1.3-3.9-1.6l-6.1-1.7l-5.2-0.9c-1.4-0.2-2.7-0.2-4.1-0.2c-1.2,0.1-2.4,0.5-3.2,0.6c-1,0.3-2,0.3-3,0.2s-2-0.4-2.9-0.9
			c-0.7-0.4-1.4-1.1-1.8-1.8c-0.7-0.9-1.5-1.8-2.4-2.5l-2.8-3c-0.8-0.7-1.5-1.6-2.1-2.5c-0.7-0.9-1.2-1.8-1.7-2.8
			c-0.4-0.8-0.5-1.7-0.5-2.6c0-0.9,0.1-2,0.1-2.4c0-0.8-0.1-1.7-0.4-2.5c-0.2-0.6-2.3-0.9-2.4-0.7c-0.1,0.8-0.3,1.6-0.6,2.3
			c-0.5,0.9-0.7,2-0.7,3c-0.1,2-0.3,3.3-1.1,4c-1,0.8-2.1,1.3-3.3,1.5c-1,0.1-1.9-0.2-2.7-0.7l-1.7-1.1c-0.5-0.2-1.2-0.2-1.7,0
			l-2.4,1.5l-2.4,1.6l-2.2,1.4c-0.8,0.4-1.6,0.7-2.4,1c-0.5,0.2-1.1,0.2-1.6,0l-1.4-1L465.2,705.2"/>
		<path class="st0" d="M486.2,860c0,0,2.6-2.4,6.2,0s7,1.9,9,1.9s2.6-6,2-7.4s-4.9-4.6-2.3-6.8s3.2-1.4,6.3-1.2s5.6-1,6.8-4.2
			s1.5-7.9,2.2-9.1s8-1.9,8.7,0s-2.9,4.6-3.4,7s-0.9,6.3,0.7,8.2s2.9,5.6,2,7.8s-2.9,5.7-3,8.6s1.3,3.9,2.5,2.5s5.3-4.9,6.5-4.8
			s2,5.3,0,6.5s-3.6,1.4-4.1,5.1s0.5,8.7,1,8.9s2.6,8.4,0.2,7.3s-1.5-3.5-7-5.2s-6.6,0.8-6.5,2.2s-2.9,1.7-2.9,3.1s-2.4,3.2,0.2,4.7
			s8.2,0.2,7,3.1s-8.8,3.1-9.4,3.6s4.8,6.3,0,6.6s-14.3,1.5-12.8-1.9s3.4-7.8,3.4-7.8c0.5-1.8,0.8-3.6,0.9-5.5
			c0-2.2-2.9-2.2-4.5-3.9s0.6-2,2.4-4.6s2.9-3.2,2.3-7.7s-5-3.2-5.2-2.7s-4.1,1.9-4.7,5.1s-5.5,3.6-6.9-0.5s-4.1-5.9-3.9-8.2
			s0.2-4.1,1.9-6.1C483.2,863,484.6,861.4,486.2,860z"/>
		<path class="st0" d="M453.3,880.3c0,0-0.8-3.9,1.7-4.1s4.8-1.2,6.2,0s-1.7,2.7,3.2,1.7s9.6,2.4,9.6,2.4s1.3,2.2,0,3.9
			s-4.5,2.4-4.1,6.5s-3.3,8.7-5,3.7s-5.3-7.3-5.6-8.3c-0.2-1.1-0.3-2.3-0.2-3.4c0,0-0.2-0.9-1.7-0.9l-4.2,0.2L453.3,880.3z"/>
		<path class="st0" d="M477.4,887.3c0,0,0.1-3.3,1.3-3.3s3.3-0.8,4.3,2.1c1,2.5,2.9,4.4,5.4,5.4c1.4,0.4,4.6,1.2,4.8,1.7
			s-0.5,4.3-2.7,3.4s-4.6-2.9-5.2-1.7s0.3,3.3,0,3.8s-5.4,1.9-5.4,1.9s-1.2,4.2-2.5,5.1s-6.2,2.9-4.1-1.4s4.2-4.9,4.6-6.6
			c0.3-1.5,0.4-3,0.3-4.5c-0.2-1-0.5-2.1-1-3L477.4,887.3z"/>
		<path class="st0" d="M422.8,875.6c0,0,1.4-5,2.6-4.9s4.9,2.2,7.1,4s3.8,2.3,5.3,4s3.1,4.3,1.5,4.3s-2.9-0.2-3,0.9s-5-1.1-4.9-2.1
			c-0.1-1.6-0.7-3.1-1.6-4.3c-0.7-0.6-1.5-1.5-3.1-1c-1.3,0.3-2.6,0.5-3.9,0.4V875.6z"/>
		<path class="st0" d="M433.4,920.2c0,0,3.6-1.4,4.4-0.7s1,3.6,3.4,3.2s2.7-1.8,4.6-1.7s2.9,3.3,1.7,4s-3.6,0.6-4.2,0.8
			s-4.5-1.9-5.5,0s-2.2,1.4-2.9,0c-0.5-0.9-1-1.8-1.5-2.6V920.2z"/>
		<path class="st0" d="M364.3,859.5c0,0-0.3-5.8,2.6-6s8.2,0,9.2,1.7s2.9,5.1,0,7.3s-3.4,3.5-3.4,5s2.5,5.3,2.2,7s0,0.7,1.9,3
			s0.6,6.9,4.2,6.7c2.7-0.1,5.2-1.5,6.5-3.9c1-1.7,2.2-2.7,0-4.7s-4.9-2.8-2.7-6.1s1.8-5.6,4-7.3s4.8-4.3,5.4-4.3s2.3,2.9,1.7,4.1
			s-1.9,2.6-1.4,4.5s4.3,0.7,4.3,0.7s5.8,0.8,5.9,1.7s-1.7,2.3-1.7,3.7s2.7,4.9,2.7,4.9s-3.9-0.5-4.4,1.6s-1.7,3.4-0.7,7
			s1.9,6.6,1.6,9.3s-3.6,4.3-3.6,5.5s4.4,1.9,3.7,4.3s-3.2,3.8-5.4,1.7s-7-2.2-8.4-1.9s-4.9,3.8-5.8-0.7s-2-5.8-1.2-8.9
			s3.8-1.8,0.9-3s-6.2-3.1-7-0.9s-0.2,5.3,0,6.3s1,3.8-1.2,4s-2.2,2-6.5-0.7s-8.7-5.5-7-7s2.4-4.6,1.6-6.1s-2.1-5.5-4.3-8.6
			s-4.3-1.8-3.2-5.9s2.7-4.3,3.7-5.8s-0.3-3.6,1-4.6s1.4-0.6,3.4-0.4S364.3,859.5,364.3,859.5z"/>
	</g>
	<path class="st0" d="M318.4,779.6c-0.3-1.6,3.7-5.7,6-8.5s0.7-6.3,0.9-9s4.7-6.1,7-8.9s0.9-7.3-0.5-9.9s-1.1-4-1.1-6.8
		s-3.2-12.9-3.3-14.2s-4.3-3.8-4.7-4.7s0.6-5.1,2.1-7s1.8-10.5,3.2-14.2s6.3-11.9,6.7-13.1s0.6-6.2,1-11.2s3.4-4.9,7-7.6
		s4.3-9.7,4.5-9.9c2-0.3,3.9-0.4,5.9-0.4c1.8-0.1,1.2-1.4,2.6-1.9s4.3,0,8.2-2.5s7.9-11.2,8.7-11.9l1.2-0.8c0.4-0.3,0.8-0.5,1.3-0.6
		c0.3-0.1,0.3-0.6,0.3-1.1s0.2-2.1,0.4-3c0.2-1,0.4-1.9,0.4-2.9c0.1-1.2,0-2.5-0.1-3.7c-0.2-1.1-0.5-3.1-0.8-4.3s-1.3-3.2-1.6-4
		s-1.3-2-2.1-3.3l-1.9-3.3l-0.8-1.5l-1,1c-0.7,0.8-1.5,1.5-2.4,2.1c-0.8,0.5-1.6,1-2.3,0.8c-1-0.2-1.9-0.6-2.8-1.1
		c-0.7-0.6-1.6-1-2.5-1.3c-1.2-0.2-2.3-0.2-3.5-0.1c-1.1,0.2-2.3,0.3-3,1c-0.6,0.5-1.1,1.2-1.4,1.9c-0.3,0.8-0.8,1.5-1.4,2.2
		s-1.4,1.2-2.3,1.3c-0.8,0.2-1.6,0.1-2.3-0.3c-0.9-0.5-1.7-1.1-2.5-1.8l-2.6-2.1c-0.8-0.6-1.6-1-2.5-1.4c-0.7-0.2-2.4-0.4-3.2-0.7
		l-2.9-1.2l-2.4-1l-2.4-0.7c-0.7-0.3-1.4-0.6-2-1l-2.5-1.9l-0.9-1c-1.8,1.8-3.7,3.4-5.8,4.9c-4.2,3.1-11.1,5.2-13.7,5.1
		s-2.4,1-3.8,1.4s-4.2-1-6-2.3s-5.8,0.5-6.9-0.8s2.4-2.8,2.5-4s-2-2.6-2.8-2.6s-7.1-3.1-8.2-4.6c-2-2.5-3.6-5.3-4.7-8.3
		c-1.7-4.9-2.8-8.3-5.1-8.8s-6.9-0.2-7.7,0.9s-2.3,5.7-6.6,7.2s-10.3,1.3-12.1,1.4s-1.6,3.4-6.6,3.5s-9.6-0.9-10.4-3.1
		s0.7-7.3,0.8-8.3s-0.9-7.5-2.7-7.5s-12.4,3.6-14.2,4.8s-12.1,4.8-16.5,5.4s-5.5,1.7-6.4,2.9s-4.1,5.8-4.4,6.1s-9.1,6.1-12.7,7.2
		s-7.7,5.7-7.9,6.1c-3.3,1.3-6.7,2.4-10.1,3.3c-3.9,1-10,0.5-12.1,1s-6.6,5-6.6,5.8s1.5,1.4,1.5,4.4c0.2,3.2,1,6.4,2.2,9.4
		c0.5,0.9,14.1,1.3,19.6,1c4.9-0.5,9.7-1.4,14.4-2.8c0.4-0.3,3.9-1.9,4.7-0.9s-1.7,3.6-3,4.6s-3.3,5-4.2,6.1s-1.6-1.5-7.5-0.6
		s-6.6,3.1-7.8,3.6s-2.1,0.1-1.9,1.1s7.4,4.8,9.2,5.8c2,0.9,4.1,1.6,6.2,2.1c0,0,3.3,0.2,3.3,2.2s-1.5,6.3-2.3,6.8s-4.4,0.5-5.9-1.7
		s-6.8-5.2-10.5-3.5s-7,2.3-8.8,1.4s-3.8-2.3-4.6-1.4s1.3,4.9,0.8,7.1s-2.2,9.1-5.4,11.7s-6.9,5.2-9,5.2s-0.6-0.3-3.9,2.8
		s-3.9,6.3-6.8,6.5s-2.9,4-3.3,5.4c-0.6,2.4,0.3,5,2.3,6.5c2.7,1.8,4.4,5,5.9,4.6s3.4-4.1,9.7-2.9c6.3,1.2,13.4-1,13.4-1
		s2.3,0.2,2.8,1.1s3.1,4.2,3.6,6.5s5.2,9.2,1.3,7.6s-4.1-4.6-5.3-6.5s-1.2-4.9-4.8-2.3s-3.4,3.8-4.6,5.1s-3,1.5-5.4,0.6
		s-5.6,0.3-5.6,0.3s0.1,0.5-1.9,1.1s-4.3,1.7-4.3,1.7s-6.2,7.7-8.5,11.5s-3.4,9.7-4.4,11.8s-5.1,2.3-5.6,4.8s2.8,7.6,8.4,6
		s18.7-5.7,20.5-5.7s2.8,9.2,2.5,11.7s-1.2,11,3.1,11.6s16.4-3.4,22-6.2s13.6,0.3,12.8-5.9s-1-9.2,1-10.2s0.3-5.4,1.3-9.2
		s7.9-3.6,9.2-2.6s5.6-1.2,6.7-2.5s8.4,2,9.4,3.3s5.7,11.3,8.5,13s10.5-3.5,10.7-5.3s-0.8-7.4,4.4-5.7s7.1,9.3,6.1,10.8
		s-2.6,3.3-2.6,5.1s3.6,2.6,4.9,4.9s1,7.1,0.8,8.7s1,5.1,3.8,5.1s5.4,2.8,10-1s10.5-2.9,11-2.1s4.1-1.8,6.4-2s6.9,2,9.9,3.8
		s6.2,1,10.5,1s9.2-0.5,10.8-2s4.6-9.2,7.6-9.2s9,2,11.8,3.5l8.2,4.9c0,0,2.6,1.8,3,3.2S318.4,779.6,318.4,779.6z"/>
	<g>
		<path class="st0" d="M548.7,814.2c-0.8-4.5-1.7-8.9-0.7-11.1s-0.3-5.6,0.3-8.2s2.9-3.3,6.3-5.8s2.9-5.5,5.5-6s8.6,2.7,14.4,0.5
			s7.6-3.5,11.8-5.8s6.2-1.9,9.5-3.4s6.1-2.8,6.2-6.5s-0.6-7.1,1.2-7.5s6,1.2,7.8,1.1c2.1-0.2,3.8-1.8,4.1-3.9c0,0,0.2-1.6,0.3-2.1
			s0.5-1.4,0.6-1.2s0.3,0.5,1.8,0.4l5.2-0.5c0.7-0.2,1.5-0.2,2.2-0.1c0.8,0.4,1.5,0.8,2.2,1.4l2.1,2.3c0.2,0.5,0.4,1.3,0.7,2.2
			c0.3,1,0.6,1.9,1.1,2.8c0.4,0.7,0.8,1.3,1.3,1.9c0.5,0.6,1.1,1.7-0.5,2.5s-4.8,0.8-5.4,2.5s0.2,4.8-0.8,5.9s-4.5,3.8-4.5,5
			s1.7,2.8,1.1,4.5s-4.3,3.4-4.5,5.1c0,1.4,0.2,2.8,0.6,4.1c0,0,0.6,4.3-1.5,5.8s-2,3.4-4.3,4.6s-5.1,0.6-7.4,0.3s-5.6-0.1-6.5,1
			s-2.9,3.3-0.8,4.8s4.6,5.3,3.6,6.6s-2.2,1.4-5.7-1.5s-5.9-4.4-6.4-4.4s-5.8,5.3-6.9,5.9s-1.4,5.9-2.7,7.6s-3-2.4-3.6-3
			s-2.6,3.6-4.3,4.1s-3.9-7.5-3.7-8.1s2-6.3,3.1-10.9s1.6-8.5,3.7-11s4.9-7.1,2.3-7.7s-13.3-0.8-15.6,1.2s-4.7,8.3-5,9.3
			s-1.4,11.6-2.1,14.1s0.5,4.4-2.1,5s-4.1-0.9-4-1.5C548.8,815.7,548.8,815,548.7,814.2z"/>
		<path class="st0" d="M539.6,829.4c0,0,1.9-4,4-4.3s3.6-1.3,5.5-1.4s3.4,0.9,2.3,2.8s-1.8,5.6-2,6.1s-2,4.4-1.8,6.4
			s-0.3,3.8-1.9,3.2s-3-3.5-2.4-4.8c0.4-1.3,0.2-2.8-0.5-4L539.6,829.4z"/>
		<path class="st0" d="M559.6,818.5c0,0-0.6-8.7-0.5-12.6s0-9.3,2.5-11.3s4.2-3.5,7-3.6s5.3-2,4.7,0.6s-3.2,6.2-4.2,8.5
			s-1.4,6.5-2.9,8.8s-1.5,3.5-1.8,6.8s0,4.4-1.5,4.7S559.6,818.5,559.6,818.5z"/>
		<path class="st0" d="M584.8,822c0.3,0.3,5.3,2,5.5,3.4s2.8,4.2,3.9,3.8s1.4-3.9,0.7-5.5s-1.5-5.1-2.9-5.5s-2.1-1.4-3.8-0.8
			s-2.3,0.6-2.9,2C584.9,820.2,584.8,821.1,584.8,822z"/>
	</g>
	<path class="st0" d="M4.4,1234.1c0,0,10.6-4.8,14.8-9.6s1.2-5.1,5.3-9.5s6.4-7.2,10.7-8.6s10.1-3.7,15.2-4s16.5-4.1,21.3-6.4
		c4.1-1.7,8.3-3.2,12.6-4.4c0,0,13-6.3,19.5-6.8s13.3-1.2,18.4-1.2s2.7-5,11.1-1.7s9.4,6.8,11.4,7.3s4.8-1.9,6.8,0.4
		s6.5,4.6,6.2,7.1s-2.6,6.7,0,9.1s3.7,8.1,1.8,11.4s-9.3,12.6-11.2,16.9s1.3,7.3-2.9,10.4s-10.8,3.7-14,4.2s-7.5,5-12.1,5.7
		s-14.2,1.2-16.5,1.3s0,7.5-8.6,7.5s-14-0.1-16.5,0s-4.6,4.5-10.9,2.1s-5.6-4-10.4-4c-4.2,0.1-8.4,0.7-12.5,1.8
		c-1.7,0.5-10.5-1.6-11.1-1.2s-4.7,1.5-4.9,4.9s-2.4,8.2-4.1,6.5s-6.8-8-10.2-11.4s-6.8-5-9.2-8.6s-3.4-4.6-2.6-8.7
		S4.4,1234.1,4.4,1234.1z"/>
	<path class="st0" d="M166.9,793.7c0,0,3.5,0.6,4.6,0s4.7,1.7,7,1.7s3-0.8,6.1-1.9s8.3,0.3,11.4,1.9s7.5,6.1,7.2,8.5
		s-2.9,8.9-4.6,10.6s-6.7,4.2-9.7,3s-5.5-4.4-8.6-5.1c-2.4-0.5-4.8-1.5-6.8-2.9c-1.5-1.2-5.1-4.6-5.6-6.5s-0.5-4.9-1-5.8
		S166.9,793.7,166.9,793.7z"/>
	<g>
		<path class="st0" d="M320.1,604.1c-1.8,1.8-3.7,3.4-5.8,4.9c-4.2,3.1-11.1,5.2-13.7,5.1s-2.4,1-3.8,1.4s-4.2-1-6-2.3
			s-5.8,0.5-6.9-0.8s2.4-2.8,2.5-4s-2-2.6-2.8-2.6s-7.2-3.1-8.2-4.6s-3.1-3.5-4.7-8.3s-2.8-8.3-5.1-8.8s-6.9-0.2-7.7,0.9
			s-2.3,5.7-6.7,7.2s-10.2,1.3-12,1.4s-1.6,3.4-6.6,3.5s-9.6-0.9-10.4-3.1s0.7-7.3,0.8-8.3s-0.9-7.5-2.7-7.5s-12.4,3.6-14.2,4.8
			s-12.1,4.8-16.5,5.4s-5.5,1.7-6.4,2.9s0.4-5.3,2.9-7.4s2.4-2.9,5.7-4.6s6.8-4.9,4.4-5.4s-5.1,1.5-6.5,2l-7.3,2.3
			c0,0-3.3,2.5-3.9,5s0.5,10.5-1.2,11.5c-3.8,1.8-7.7,3.1-11.8,4.1c-1.9,0.1-7.3,1.7-8.9,3.5s2.4,5.3-2.2,5.8s-9.2,1.7-10.2,0.6
			s0-4-0.7-7s-4.3-5.8-4.6-8.9s-8.5-10.9-10.6-12.6s-4.9-2.9-9.2-2.9s-6,0.7-6,0.2c0.6-2.4,2-4.4,4.1-5.7c2.8-1.3,6.5-0.5,7.9-1.9
			s1.3-6.8-2.2-8s-4.3-10.4-3.6-11s4.1-7.9,3.9-9.1s-6.8,0.2-8-1c-1.4-1.8-1-4.4,0.7-5.8c0.3-0.2,0.6-0.4,1-0.5
			c3.2-1.6,6-4.3,4.9-5.1s-7.3-6.5-8.7-8.7s-3.4-4.5,0-6.5s7.2-5,14.5-8.4c7.3-3.4,5.3-8.7,4.1-8.7s-7.6,0.7-10,2.8s-6,7-8.2,7.5
			s-4.6-2.1-4.6-5.7s-1.5-7.1,2.9-7.1s6.1-0.7,7.8,0s1.9-2.1,0.4-3.1s-9.1-3.7-10.4-3.7s-4.3-2.9-5-8.2s0.7-7.9,3.9-6.5
			s6.4,4.9,7,3.1s0.5-10.6-1.8-12.8s-6.2-4.3-3.5-5.5s2.8-4.8,1.2-5.8s-4.4-5.6-3.9-7.3s-1.3-7.3-3-6.3s-6,10.2-6.5,12.3
			s-4.6,9.3-6.5,10.5s-4.4,4.1-4.4,4.6s0.3-6.4,1.2-13.8s-0.7-12.3-3.3-12.3s-6.3,4.8-7.7,6.9s-4.6,3-3.2,5.6s5.3,7.3,3.8,8.9
			s-7.2,1.7-8.7-2.4s-0.6-6.8,0-10.3s-1.9-7.3-4.8-4.4s-7.2,6.7-10.2,7.5s-11.3-2.2-5.8-3.6s8.8-1,8-5.1s-3.3-6.8-4.6-7
			s-4.6,2.8-5.3,4.1s-1.9,5.8-3.6,1s-7.2-2.2-3.2-5.9s6.6-7.5,10.4-8s8.7,0.5,9.2-0.9s-1.2-4.8-2.4-6.3c-1.1-1.5-1-3.6,0.3-4.9
			c1.2-1.6-1.5-4.8-1.5-6.2s0.8-9,3.2-6.8s2.6,10.9,5.7,8c3.1-2.9,3.2-6.5,3.9-9.2s1.8-7,3.9-4.8s6.1,7.7,6,8.2s-5.3,8.7-4.5,11.1
			s-2.2,4.8-3.2,6s-3.2,7,0,7s8.7-2.6,10.9-1.9s-4.4-7.4-2.6-10.8s9.1-3,10.8-2.7s3.1-1,3.1-4.3s0.6-4.7,3.4-5.4s2.5-3.4-0.2-7
			s-3.2-0.3-7.3-3.8s-5.2,0.2-4.1-3.4s2.2-4.1,4.4-5.3s1.7-4.6,4.1-5.1s8.2-0.6,7.3,1.4s-4.2,5.3-2.7,7.5s4.4,1.9,4.9,1.9
			s2.8,4.7,2.8,5.8s-2.2,5.9-2.6,7.5s-1.3,10.7-0.2,12.1s4.1,1.5,4.7-0.9s-0.6-13.8,1.5-15.1s3.6-4.3,3.6-5.7s0-3.4,1-3.4
			s4.6,7.9,4.9,10.1s4.8,7.6,5.3,5.8s0.5-8.9-0.7-11.6s-4.6-4.6-3.2-8s-1-5.8-1.5-5.8s-6,2.5-6.3,1.2s0-1.4,2-3.1s4.5-3.4,2.6-5.3
			s-6.4-6-4-6.5s6.2,2.9,7.7,4.5s6,2.5,6.3,4.9s1.9,7.7,3.6,9s5.6,3.1,4.6,4.8s-0.7,6.8,0.3,7.5s3.1-2,5.5-4.2s4.4-1.1,4.8-3.3
			s-2.6-6.3-1.4-7.7s3.6,1.9,7,4s6,0.5,7.8-0.5s4.5,3.7,4.6,4.7s4.8,4.3,4.8,5.5s1.6,7,1.6,8.3s0.6,4.8,0.8,6.7s-1.2,4.8-1.2,5.3
			s2.6,1,3.4,3.7s3.6,3.3,1.9,6.5s-4.9,5.8-1.9,6.7s7.4-2.8,6.4-6.2s-2.1-6.8-1.1-6.8s5.8,2,8.4,2.4s5.6-3.8,2.5-4.1s-7.1-0.5-9-2.4
			s-2.2-5.8-0.8-7.3s4.5-2.6,6.6-2.6s2.5,0.9,5.1-1s2.4-2.1,3.6-2.2s5.8-0.3,5.8-0.3c0.2,0.6,0.5,1.1,1,1.5c0.8,0.8,1.9,1.3,3,1.4
			l3.1,0.3c1.5-0.1,2.9-0.3,4.3-0.7l5-2.6l4.7-2.7l3.5-1.7c1.4-0.5,2.8-0.7,4.3-0.7c1.7,0,3.3,0.2,4.9,0.6c1.2,0.5,2.3,1.2,3.3,1.9
			l4.9,3.1l4.6,2.7c1.2,0.6,2.5,1,3.9,1.2c0.9,0.1,1.8,0.1,2.7,0c0,1,0.1,2.1,0.3,3.1c0.2,1.4,0.9,2.7,2.1,3.5
			c1.4,1.1,2.8,2.3,4,3.6c1.1,0.9,2.1,2,3,3.1c0.8,1.3,1.4,2.6,1.9,4c0.4,1.3,1.3,5.1,1.5,6.2s0.7,4.7,0.8,5.8s0.4,3-0.3,4.4
			c-1.3,2.1-2.8,4-4.5,5.8c-1.9,1.7-4.5,3.8-5,4.4s-3.2,4.4-3.5,5s-2.6,4.5-3.1,5.5l-2.8,5.4c-0.9,1.5-1.8,3.1-2.5,4.7
			c-0.3,0.6-0.2,1.3,0.1,1.9c0.6,0.7,0.9,1.5,1,2.4c-0.1,1.1-0.4,2.2-0.8,3.2c-0.6,1.6-1.1,3.3-1.5,5c0,0.7,0.2,1.8,1,1.8
			s0.6,1.1-0.2,1.5s-5.1,1.9-7.9,2.9c-3.7,1.3-7.2,2.9-10.6,4.8c-3.9,2.1-8.9,3.2-9.7,5.9s-1.9,4.9-0.1,5.8s7.8,1.4,12.4,1.4
			s7.3-1.1,11.6-2.1s8.5-1.1,10.7,0.7s4,0.3,5.9,0.6c1.9,0.3,3.5,0.2,4.1,1.6s0.6,6-0.9,7.2s-2.3,3,0.7,5.5s4.6,3.6,4.7,4.5
			s-1.5,6.9-1.6,9.1s2.1,3.7,3.7,4.5c2.2,1.2,4.3,2.7,6.2,4.4c2.1,2,2.6,3.5,5.5,3.9s3.1,0.2,6-1s3.8-5.9,4.1-9.7s2.4-6.3,2.9-8.3
			s2.8-7.9,2.8-7.9c0.7,0.5,1.7,0.5,2.5,0.1c1.3-0.8,3.6-2.3,4.3-2.1c1.1,0.5,2,1.4,2.4,2.5c0.5,1.3,1,3.3,0.3,3.8
			c-1.9,1-3.7,2.2-5.4,3.5c-0.9,0.9-2.3,1.9-3.7,5.9s-3.3,8.2-3.9,11.8s-0.9,7.8-1,9.1s-0.3,5.3,0,6.1s0.7,1.4,1.7,1
			c1-0.5,2-1.1,2.9-1.7c0.5-0.3,1.1-0.8,2.6,0.2l5.2,3.6c0.9,0.6,4.2,3.1,4.7,3.6s2.1,2,2.3,3.4c0.2,1.2,0.3,2.4,0.1,3.6
			c-0.6,1.3-1.1,2.6-1.5,4c-0.2,1.3-0.1,2.7,0.3,4l2.9,7.2c0.5,1.1,2.9,5.9,3.6,7.2S320.1,604.1,320.1,604.1z"/>
		<path class="st0" d="M75.8,477.6c0,0,2.7-3.7,4.4-4.6s3.7-2,5-1.4c1.6,0.8,2.6,2.4,2.6,4.2c-0.1,2-1.5,2.2-2.5,2.4
			s-1.6,2.2-0.7,3.8s3.6,5.8,4.2,7.6c0.7,1.8,1.6,3.6,2.5,5.3c0.9,1.6,2.7,2.9,3.1,6.2s1.1,5.8,1.1,7.8s1.8,5.4,1.8,5.4
			c-0.4,1-0.9,2.1-1.5,3c-0.6,0.8-5.2-1.8-6.7-1.8s-4.3-0.9-4.2-2.6s-2.9-3.5-3.1-5s1.1-3.2,1.2-4.7s-2.8-5.5-3.3-7.5
			S78,489.3,78,487s1.1-4.5-0.7-5.5s-1.2-0.9-1.5-1.8C75.6,479,75.6,478.3,75.8,477.6z"/>
	</g>
	<g>
		<path class="st0" d="M84.2,196.4c0,0,6.2-6.6,8-8.1s6.6-2.1,8.2,0s6.4,8.1,8.1,8.1s4.1,0.6,4.6,3.1s-1,16.4,0,18.4
			s3.4,10,3.5,13.8s0.9,9.2-1.7,10s-6.9-5.6-8.9-5.1s-1.8,5.8-4.6,5.2s-10.8-2.9-12-4.7s0-6.4,2.8-6.4s3.6-4.3,2-7.4
			s-1.8-8.4-4.8-8.9s-7.2-0.6-5.2-5.7s-0.5-10.5-0.5-10.5L84.2,196.4z"/>
		<path class="st0" d="M56.1,199.6c0.5,0,2.6,0.8,3.3-3.2s-0.1-6.1,2.2-6.9s8.5,0.5,9.3,1.6s3.5,1,6.1,1.1s4.4,2.1,3.2,3.9
			s-6.2,4.4-7.1,4.4s-6-1.5-7.1,0s-3.1,2.2-4,2.7s-3.6-0.9-4.1-1.4S56.1,199.6,56.1,199.6z"/>
		<path class="st0" d="M68.9,213.6c0,0,3.1,1.5,4-0.8s-0.5-6.1,1.4-6.9s5.1,3.6,5,5.8s3.3,5.7,4.9,6.6s4.8,1.8,4.8,3.3s-2.5,5.3-4,6
			s-3.5-2.4-4.4-3.9s-2.9-1.6-5.3-2.6c-2-0.9-3.7-2.4-4.9-4.3C70.1,216,68.9,213.6,68.9,213.6z"/>
		<path class="st0" d="M112.5,255.7c0,0,8.8,4,9.2,4.6s-4.6,6.2-4.6,7.2s5.5,3.1,8.6,2.1c3.1-1,4.2-4.7,6.1-4.7s7.7,2.3,8.1,3
			s3.3,4.8,4.7,2.8s-2.7-6.7-3.3-8.5s1-3.1,1.9-4.2s-0.4-6.7-0.4-6.7s7.8,0.6,9.7,1s3.3,0.7,4.8,3.8s3.2,7.1,3.4,8.7s1,5.9,2.5,7.7
			s3.5,3.3,3.6,4.1s-1.9,2.3-3.6,4.1s-3.4,5.5-8.9,6.7s-8.7,0.2-8.5-1.7s-2.7-1-4.8-2.4c-2.3-1.9-4.1-4.4-5.2-7.2
			c-0.7-2-4.4-3.2-8.2-2.5s-14.7-0.2-15.7-0.8s-3.2-4.5-1.6-7.7s1.6-5.5,1.4-6.5C111.8,257.6,112.1,256.6,112.5,255.7z"/>
		<path class="st0" d="M96.1,255.4c0,0,2.1-3.1,4.2-2.7s3.5-0.2,4.4,0s2.2,7.4,0,7.8s-6.4-1.9-7.4-1.8S96.1,255.4,96.1,255.4z"/>
		<path class="st0" d="M84.8,271.1c0,0,4.9,2.8,6.5,2.8s-0.4-4.4,3.8-1.4s6.7,6.6,5.2,7.6s-4.5,2-6.2,0s-3.2-2.5-5.1-3.1
			s-4.5-2.5-4.2-3.2C84.9,272.9,84.9,272,84.8,271.1z"/>
		<path class="st0" d="M119,311.7c0,0,4,1.6,5.4,2.9s3.8,1.4,6.8,3.2s7.4,9.2,5.1,9.7s-4.6,2.1-6.3,2.7s-5.9-0.2-6.4,1.4
			s-3.2,4.5-4.6,2.7s-0.4-3-0.6-5.4s-2.7-6.6-2.8-7.6s4.1-0.2,4.3,1.1s2.8,3.5,2.8,0.9s-1-5.4-2-6.4s-2.2-2.4-2.2-2.9
			C118.6,313.2,118.8,312.5,119,311.7z"/>
		<path class="st0" d="M98.3,317c0,0,2.4-6.2,4.9-5.3s7.5,5.6,6.5,7.5s-1.4,0.8-2.3,3s-1,3.5-2.1,4.3s-6.9,0.5-7-2
			c-0.1-1.8-0.4-3.6-0.9-5.3L98.3,317z"/>
	</g>
	<path class="st0" d="M295.5,520.9c0,0-2.3,5.8-2.8,7.9s-2.5,4.6-2.9,8.3s-1.3,8.5-4.1,9.7s-3.1,1.3-6,1s-3.4-2-5.5-3.9
		c-1.9-1.7-3.9-3.2-6.2-4.4c-1.6-0.8-3.8-2.2-3.7-4.5s1.7-8.2,1.6-9.1s-1.8-2-4.7-4.5s-2.2-4.3-0.7-5.5s1.5-5.8,0.9-7.2
		s-2.1-1.3-4-1.6s-3.8,1.1-6-0.6s-6.4-1.6-10.7-0.7s-7.1,2-11.6,2.1s-10.6-0.6-12.3-1.4s-0.7-3.1,0-5.8s5.8-3.8,9.7-5.9
		c3.4-1.9,6.9-3.5,10.6-4.8c2.9-1,7.1-2.5,7.9-2.9s0.4-1.5,1.1-1.6l5.1-1.4c2.3,0,4.7,0.1,7,0.3l7.6,0.8l4.2,0.4
		c1.2,0,2.1,0.9,2.1,2.1c0,0.1,0,0.1,0,0.2c0,2.2-0.3,4.4-1.1,6.5c-0.8,2-1.4,4-1.9,6.1c-0.1,1.2-0.4,2.6,0.2,3.3l2.7,2.9
		c0.6,0.8,1.2,1.6,1.7,2.4c0.3,0.9,0.7,1.7,1.4,2.3c1.1,0.8,2.4,1.2,3.7,1.4c1.2,0.2,2.4,0.1,3.6-0.3c1.7-0.6,3.4-0.8,5.2-0.7
		c1.1,0,2.2,0.4,3.1,1.2c0.9,1,1.7,2.1,2.3,3.3l1.6,3.4L295.5,520.9z"/>
</g>
<ellipse transform="matrix(0.9397 -0.342 0.342 0.9397 -406.6766 103.4969)" class="st1" cx="90.2" cy="1205" rx="30.6" ry="30.6"/>
<ellipse transform="matrix(0.749 -0.6626 0.6626 0.749 -775.9559 362.2347)" class="st2" cx="90.1" cy="1205.2" rx="11.7" ry="11.7"/>
<ellipse transform="matrix(0.807 -0.5906 0.5906 0.807 -9.2045 362.6143)" class="st1" cx="550.1" cy="195.4" rx="30.6" ry="30.6"/>
<path class="st2" d="M552.4,207c-6.3,1.3-12.5-2.9-13.7-9.2c-1.3-6.3,2.9-12.5,9.2-13.7s12.5,2.8,13.7,9.2
	c1.3,6.3-2.7,12.4-8.9,13.7C552.6,207,552.5,207,552.4,207z"/>
<g>
	<circle class="st1" cx="208.7" cy="256.3" r="69.7"/>
	
		<ellipse transform="matrix(0.9627 -0.2706 0.2706 0.9627 -61.5349 66.0615)" class="st2" cx="208.8" cy="256.2" rx="11.7" ry="11.7"/>
</g>
<ellipse transform="matrix(0.7071 -0.7071 0.7071 0.7071 -512.3587 364.9084)" class="st1" cx="184.3" cy="800.9" rx="69.7" ry="69.7"/>
<ellipse transform="matrix(0.9537 -0.3007 0.3007 0.9537 -232.2978 92.5143)" class="st2" cx="184.4" cy="800.9" rx="11.7" ry="11.7"/>
<ellipse class="st1" cx="480.5" cy="493.1" rx="30.6" ry="30.6"/>
<circle class="st2" cx="480.5" cy="493.6" r="11.7"/>
<ellipse transform="matrix(0.3827 -0.9239 0.9239 0.3827 -293.2312 868.1442)" class="st1" cx="503" cy="653.5" rx="30.6" ry="30.6"/>
<circle class="st2" cx="503.2" cy="653.8" r="11.7"/>
<circle class="st1" cx="325.1" cy="411.8" r="30.6"/>
<circle class="st2" cx="325" cy="412" r="11.7"/>
<ellipse transform="matrix(0.8941 -0.4478 0.4478 0.8941 -209.1265 180.9924)" class="st1" cx="278.2" cy="532.8" rx="30.6" ry="30.6"/>
<circle class="st2" cx="278.3" cy="533.1" r="11.7"/>
<circle class="st1" cx="401.5" cy="207.5" r="30.6"/>
<ellipse transform="matrix(0.549 -0.8358 0.8358 0.549 7.4609 429.4024)" class="st2" cx="401.6" cy="207.8" rx="11.7" ry="11.7"/>
<ellipse transform="matrix(0.3272 -0.9449 0.9449 0.3272 -443.7619 943.4303)" class="st1" cx="440.7" cy="783.4" rx="30.6" ry="30.6"/>
<circle class="st2" cx="440.2" cy="784.2" r="11.7"/>
<ellipse transform="matrix(0.4741 -0.8805 0.8805 0.4741 -449.9492 584.8295)" class="st1" cx="264.6" cy="669.1" rx="30.6" ry="30.6"/>
<circle class="st2" cx="264.7" cy="669.3" r="11.7"/>
<circle class="st1" cx="594.3" cy="786.9" r="30.6"/>
<circle class="st2" cx="594.2" cy="787.6" r="11.7"/>
</svg>
