<svg xmlns="http://www.w3.org/2000/svg" viewBox="0 0 1442.11 1863.11"><defs><style>.cls-1{fill:#fff;}</style></defs><title>logo-w</title><g id="레이어_2" data-name="레이어 2"><g id="레이어_1-2" data-name="레이어 1"><path class="cls-1" d="M478.49,1029c-13.56-44.09-27.67-88.8-41.32-132-20.2-64-41-129.91-60.51-195.38l196.06-.07-13.8-93-209.49.13q-15.56-53.48-31-107c171-.48,339.35-.15,468.08.18l12.5,0,1-20.28c.94-19.61,1.84-38.12,3.75-57.35l1.44-14.4-640.43.16,234.11,635.88H483.7Z"/><path class="cls-1" d="M953.31,1045.84l2.41-10c35.79-148,64.12-276.79,89.11-390.4C1063.3,561.48,1079.24,489,1094.42,426l3.89-16.18-127.89,0-1.9,10.84c-18.44,105.15-35.92,212-52.81,315.42-15.78,96.49-32.1,196.29-49.15,294.39l-2.67,15.34Z"/><path class="cls-1" d="M1150.22,419.18c-53.29,178.25-149.49,511.9-177.7,609.92l-4.82,16.73,75.78,0,233.9-636-124.37,0Z"/><path class="cls-1" d="M773.44,915.66c-2.43,28.63-12,38.78-36.7,38.78h-.65c-4.75,0-7.13,0-11.87,0h-.8c-28.8,0-34.84-14.51-36.37-43.08L676.89,721.14h-95L607.58,935.7c7,57.24,44.26,102.5,90.52,110.07l55.76.11,1.12-.08a108.83,108.83,0,0,0,11.67-2.24l-.13,2.32h73.85l38.9-324.74H783.74Z"/><path class="cls-1" d="M558.49,1517.14a72,72,0,0,1,49.63,134.8l64.54,175.31a51,51,0,0,0,96.93,1.33h0l103.1-280.31a72,72,0,0,1,49.69-135.1l97.73-265.77-597.73.11Z"/><path class="cls-1" d="M851.25,100.26v37.81q12-.24,17.75-4.68t5.72-14q0-10.34-5.54-14.59T851.25,100.26Z"/><path class="cls-1" d="M611.58,101.46q-19.35,0-19.35,46.21,0,29.78,4.9,39.74t14.21,10q10,0,15.4-10t5.36-39Q632.1,101.47,611.58,101.46Z"/><path class="cls-1" d="M1241.16,106.14q-4.26,33.26-11.92,68.06h24.42q-8-35.76-12-68.06Z"/><path class="cls-1" d="M721.07.14,0,.28,108.81,295.8l1224.6-.22L1442.11,0ZM227.62,103.86H191.05v29.29h32.2V166.4h-32.2v63.38H155.31V69.53h72.31Zm114.25,70.82q0,21.49-5.54,34.45t-16.34,19q-10.78,6.06-30.14,6.06-28.55,0-40.22-14.88T238,169V69.53h36.69V182.37q0,7.92,4.12,12.54a14.15,14.15,0,0,0,11.09,4.62q7.2,0,11.39-4.92t4.18-13.56V69.53h36.45Zm84.3,55.1H362.11V69.53h35.75V192.69h28.31Zm76.15,0H438.27V69.53H474V192.69h28.31ZM655.4,211.47q-14.92,22.28-42.52,22.27-28.56,0-43.53-22.27t-15-64.27q0-38.77,15-60.44t41.93-21.67q28.67,0,43.82,21.73t15.16,62.05Q670.32,189.21,655.4,211.47ZM757.09,103.86H720.53v29.29h32.2V166.4h-32.2v63.38H684.78V69.53h72.31Zm140,51.68q-14.34,13.26-39.7,13.26h-6.13v61H815.51V69.53h44.23q23.35,0,37.51,13.57t14.16,35.77Q911.41,142.27,897.08,155.54Zm66.3,74.24H927.64V69.53h35.74Zm216.36,0H971.47l54.38-125.92H979.26V69.53h101.68l-54.85,126h50v31.92l53.39-123.63H1082.9V69.53h101.68l-54.85,126h50Zm86.78,0-6-26.77h-37.75l-6.25,26.77h-36.45l41.76-160.25h40.11l41.75,160.25Z"/><polygon points="1075.11 229.78 1076.11 229.78 1076.11 227.49 1075.11 229.78"/></g></g></svg>