<?xml version="1.0" encoding="UTF-8"?>
<svg id="Layer_2" data-name="Layer 2" xmlns="http://www.w3.org/2000/svg" viewBox="0 0 293.1977896498 39.3486502306">
  <defs>
    <style>
      .cls-1 {
        fill: #fff;
      }
    </style>
  </defs>
  <g id="Layer_1-2" data-name="Layer 1">
    <g>
      <g>
        <path class="cls-1" d="M11.7884407547,37.0379972484l4.0021849655,2.3106529822v-18.2330855004l-5.8934720443-3.4026206063v16.0491502523c0,1.351389757.7209939558,2.6002079937,1.8912870789,3.2759028721Z"/>
        <path class="cls-1" d="M0,11.9986727579v16.04925003c0,1.3513897569.7209939558,2.6001082159,1.8912909424,3.2758030944l4.0025802128,2.3109523155V15.4015926975L0,11.9986727579Z"/>
        <path class="cls-1" d="M19.7940080185,39.3486502306l13.8993386413-8.0249243482c1.1702931231-.6756948785,1.8912870789-1.9244133375,1.8912870789-3.2758030944v-4.6216052978l-15.7906257202,9.1167921946v6.8055405458Z"/>
        <path class="cls-1" d="M35.5846337387,16.6203778334v-4.6217050755l-15.7906257202,9.1168919723v6.8054407681l13.8992388636-8.0247247928c1.1703929008-.6756948785,1.8913868566-1.9245131152,1.8913868566-3.2759028721Z"/>
        <path class="cls-1" d="M2.0016412603,8.5316955071l15.7906257202,9.1167921946,5.8944742359-3.403119495L9.7871986054,6.2205436361c-1.1702931231-.6756948785-2.6122810346-.6756948785-3.7826739355,0l-4.0028834096,2.311151871Z"/>
        <path class="cls-1" d="M33.5829924784,8.5316955071L19.6836581501.5067711588c-1.1703929304-.6756948785-2.6122853477-.6756948785-3.7826782485,0l-4.0022847432,2.31075276,15.7907254979,9.1167921946,5.8935718221-3.4026206063Z"/>
      </g>
      <g>
        <g>
          <path class="cls-1" d="M109.5834049769,18.0233526837h6.0851385005v4.0299232792h-6.0851385005v8.2607989337h7.6563385865v4.0299232792h-12.0883726439V6.1360318875h12.0883726439v4.0299232792h-7.6563385865v7.8573975171Z"/>
          <path class="cls-1" d="M123.1225393894,13.9127092101v20.4312889658h-3.9902116365V6.1360318875h5.5615115003l4.5535567617,16.8839906315V6.1360318875h3.9493027628v28.2079662884h-4.5536565394l-5.5205028488-20.4312889658Z"/>
          <path class="cls-1" d="M134.2824801542,6.1360318875h13.7005813814v4.0299232792h-4.6343767318v24.1780430092h-4.4319276955V10.1659551667h-4.6342769541v-4.0299232792Z"/>
          <path class="cls-1" d="M153.5417792592,18.0233526837h6.0851529329v4.0299232792h-6.0851529329v8.2607989337h7.6563451706v4.0299232792h-12.0882728662V6.1360318875h12.0882728662v4.0299232792h-7.6563451706v7.8573975171Z"/>
          <path class="cls-1" d="M171.9983745995,34.3439981759v-7.8985059473c0-2.6186668762-.8861342778-3.5868103207-2.9017444218-3.5868103207h-1.5315883229v11.485316268h-4.4319197586V6.1360318875h6.6895907021c4.5933680803,0,6.5679695728,2.1359421535,6.5679695728,6.4872495443v2.2165625702c0,2.9018361121-.9271347685,4.79571746-2.901736261,5.7228522519,2.216662292.9258376813,2.9413480242,3.0617798348,2.9413480242,6.0045248216v7.7767771003h-4.4319195347ZM167.5650418547,10.1659551667v8.6642003504h1.7326404708c1.6532173891,0,2.6596754616-.7261824166,2.6596754616-2.9824565287v-2.7800074873c0-2.0157099727-.6850739691-2.9017363343-2.2562740551-2.9017363343h-2.1360418773Z"/>
          <path class="cls-1" d="M177.2344029481,6.1360318875h13.7005813814v4.0299232792h-4.6343767318v24.1780430092h-4.4319276955V10.1659551667h-4.6342769541v-4.0299232792Z"/>
          <path class="cls-1" d="M204.8776265104,34.3439981759h-4.4730361248l-.7656943837-5.1183986822h-5.4411795448l-.7643972731,5.1183986822h-4.0709318289l4.5139449986-28.2079662884h6.4872493804l4.5140447763,28.2079662884ZM194.7624584707,25.3980254781h4.2719839769l-2.1359420996-14.2653237554-2.1360418773,14.2653237554Z"/>
          <path class="cls-1" d="M206.124748494,6.1360318875h4.4319276955v28.2079662884h-4.4319276955V6.1360318875Z"/>
          <path class="cls-1" d="M216.9235936145,13.9127092101v20.4312889658h-3.9903114143V6.1360318875h5.5615208358l4.553647204,16.8839906315V6.1360318875h3.949202985v28.2079662884h-4.5536471042l-5.5204125063-20.4312889658Z"/>
          <path class="cls-1" d="M238.7619477664,26.1638196589l3.0220682165-20.0277877714h6.165865277v28.2079662884h-4.1912637845V14.1151582515l-3.063076868,20.2288399244h-4.1899666738l-3.3051376675-19.9471673547v19.9471673547h-3.8684827926V6.1360318875h6.165865277l3.264129016,20.0277877714Z"/>
          <path class="cls-1" d="M254.798126507,18.0233526837h6.0852552686v4.0299232792h-6.0852552686v8.2607989337h7.6564449484v4.0299232792h-12.0883726439V6.1360318875h12.0883726439v4.0299232792h-7.6564449484v7.8573975171Z"/>
          <path class="cls-1" d="M268.3373672814,13.9127092101v20.4312889658h-3.9902116365V6.1360318875h5.5614117226l4.5536565394,16.8839906315V6.1360318875h3.949202985v28.2079662884h-4.5536565394l-5.5204030711-20.4312889658Z"/>
          <path class="cls-1" d="M279.4972082684,6.1360318875h13.7005813814v4.0299232792h-4.6342769541v24.1780430092h-4.431916702V10.1659551667h-4.6343877254v-4.0299232792Z"/>
        </g>
        <g>
          <polygon class="cls-1" points="43.5280394699 12.1478404843 49.3475812706 12.1478404843 49.3475812706 34.3445968423 55.3599833197 34.3445968423 55.3599833197 12.1478404843 61.2062604926 12.1478404843 61.2062604926 6.135433221 43.5280394699 6.135433221 43.5280394699 12.1478404843"/>
          <polygon class="cls-1" points="62.9524707361 12.1478404843 68.7721072522 12.1478404843 68.7721072522 34.3445968423 74.7837161417 34.3445968423 74.7837161417 12.1478404843 80.6298993895 12.1478404843 80.6298993895 6.135433221 62.9524707361 6.135433221 62.9524707361 12.1478404843"/>
          <polygon class="cls-1" points="96.9541306154 12.1478404843 96.9541306154 6.135433221 82.3762035582 6.135433221 82.3762035582 34.3445968423 88.3821251165 34.3445968423 88.3821251165 23.9545408639 94.9069907052 23.9545408639 94.9069907052 17.9421336006 88.3821251165 17.9421336006 88.3821251165 12.1478404843 96.9541306154 12.1478404843"/>
        </g>
      </g>
    </g>
  </g>
</svg>