<?xml version="1.0" encoding="UTF-8"?>
<svg id="Layer_2" data-name="Layer 2" xmlns="http://www.w3.org/2000/svg" viewBox="0 0 83.5315168303 17.4911827398">
  <defs>
    <style>
      .cls-1 {
        fill: #fff;
      }
    </style>
  </defs>
  <g id="Layer_1-2" data-name="Layer 1">
    <g>
      <path class="cls-1" d="M6.6695412731,13.6814047124c1.3495978608-.0000000784,2.5331475853-.1712600117,3.5506491735-.513688364,1.0171358436-.3423369161,1.8682235623-.8187191837,2.5530802838-1.429146803.6848567215-.6103361831,1.2007393654-1.339813629,1.5483794209-2.1884323378.3472743108-.8485272726.5210027454-1.7839188552.5210024314-2.8062661838-.0000003079-1.002322817-.1638542047-1.9178727405-.4913788182-2.7466497707-.3275246134-.8285941579-.8262176995-1.5383213416-1.4960792581-2.1289072428-.6700444309-.5904030289-1.5185722243-1.04950377-2.5457662522-1.3770279149C9.2822342261.1637619506,8.0688762074-.0000000813,6.6695370705,0L0,.0000003872l.0000053729,17.4911823526,3.4835351829-.0000002023-.0000011703-3.8097776402,3.1860018876-.000000185ZM3.4835360198,2.7243395693l3.1860018876-.000000185c.793848823-.0000000461,1.4862035261.0918932207,2.0766983647.275405492.5904948386.1837865797,1.0793126819.4492256261,1.46645353.7965000114.3871408481.3475486938.6773593794.7692520916.8708384663,1.2653845019.1936619593.4964067187.2904015988,1.0570016037.2904017909,1.6822418356.0000001952.6352982058-.099299308,1.210980063-.2977156372,1.7269541355-.1987820738.5161569447-.4939378938.9553246767-.8858332047,1.3175031959-.3922610555.3624528276-.8834560716.6427045834-1.4739507928.8411210118-.5904947211.1986907368-1.272791387.2978075374-2.0468899974.2978075824l-3.1860018876.000000185-.0000025198-8.2029177664Z"/>
      <path class="cls-1" d="M21.1097803108,10.7783982987c.2084743565-.3573323939.4489513892-.659985986.722071151-.9081436488.2728454534-.2479747905.5806195418-.436607537.9229565204-.5657153673.3424284149-.128924958.7369754661-.1935703223,1.1835497176-.1935703482.3074998378-.0000000178.6003698969.0274308031.8783358687.0819267182.2777830995.0545873513.4912865635.0818353046.6401446473.0818352959.1388915414-.0000000081.2505350944-.0320940949.3350220951-.0967394411.0842126922-.064462474.1462978155-.1809521025.1860724973-.3498346302l.2232863849-2.4118107175c-.228407597-.1488580004-.4863490652-.2605014957-.7740987133-.3349304858-.2880239566-.0744289901-.5955238058-.1116434757-.9230481647-.1116434567-.9429812153.0000000548-1.7518254855.2754057143-2.4266242467.8262169785-.6749816335.5508112643-1.2504806514,1.3078109877-1.7268627984,2.2703591173l-.1935709789-1.9800493047c-.0497413706-.30749969-.1390745745-.5233803791-.2679996115-.6475506312-.1291079093-.1239873798-.3623615966-.1861639322-.6996696257-.1861639126l-1.8609089202.000000108.0000034523,11.238597161,3.2007231109-.0000001858-.0000016871-5.4921109288c.1786661349-.456357717.3722363805-.8634313627.5806193009-1.2206723204Z"/>
      <path class="cls-1" d="M30.116609764,14.0981692149l9.7512102888-.0000005662c.2877496252-.0000000167.486166087-.0841212645.5954322576-.2530037962.1090832983-.1686996594.1637620255-.5010699819.163761873-.9974767118-.0000003323-1.0816893746-.1613854678-2.0469805511-.4837896619-2.8955992209-.3226785026-.8485272337-.771813187-1.5654778743-1.3473126173-2.1512176662-.5756823026-.5854654835-1.260539348-1.0294792733-2.0544797002-1.3324071138-.7941232244-.302562096-1.6575550189-.4540717072-2.5903868194-.454071653-1.1216474904.0000000651-2.1265309322.1961306145-3.0146503254.5881173397-.8883022655.3921695975-1.6427419357.9255165662-2.2628618294,1.6003152146-.6203942022.6750729568-1.0967764011,1.4690128695-1.4291465965,2.3820026103-.3326445038.9132640492-.4987837219,1.8957452364-.4987833988,2.9476264339.0000004055,1.3201547921.1861648047,2.4862397006.5583103252,3.4985290337.0580277275.1578644688.1208101342.3103113468.1858327262.4601980131l3.4130836144-.0000001982c-.2311964569-.3335361164-.4265613801-.7168134877-.5842660471-1.1524609025-.2284077448-.6300863334-.3623619624-1.3770280417-.4019540891-2.2405508166ZM31.4713265869,9.3342555176c.6648321837-.6647406771,1.5780965418-.9973853578,2.7393358935-.9973854252.5754078142-.0000000334,1.0841586906.0967393587,1.5258868846.2903096125.4415453216.1934788177.8114047093.4614780825,1.1091209821.8039063584.2977162728.3423368398.5233808624.7442900381.6773595135,1.2058595949.1537957787.4614781207.2307851866.9601707493.2307853512,1.496169322l-7.547872914.0000004382c.1786659062-1.2007392215.600369233-2.1337534792,1.265384289-2.7988599008Z"/>
      <path class="cls-1" d="M53.2660537133,15.1328590765c-.2183497052-.4316699398-.5060994432-.7987859703-.8634320863-1.1016224001-.3572412069-.3026535574-.7643151118-.5583089431-1.2207645336-.7666918485-.4566322942-.2084743415-.9229568146-.39198662-1.3993393061-.5508111438-.4764739276-.1586416515-.943072746-.3075910743-1.3994307103-.4466653959-.4566322728-.1388914494-.8634318386-.2951557657-1.2207644421-.4689758211-.3573326034-.1734543109-.6452651643-.379551323-.8634319377-.6177424194-.218441082-.2382825326-.3275245235-.5359985536-.3275246333-.8932394992-.0000000823-.2679992863.059524787-.518534276.1785746079-.7518792773.1191412572-.233070693.2903097038-.4366075201.5136882124-.6103361732.2232870724-.1735457808.4961325609-.3074997217.8187193376-.4019532589.3224039045-.0941792289.6822966528-.1414517271,1.0794039367-.1414517501.4861661129-.0000000282.910429955.0521185392,1.2727915265.1563557021.3621786991.1041457269.6774506472.2209096419.9453586632.3498345645.2679994523.1291077948.5010702839.2455974063.6997611121.3498345788.1984165197.1042371725.3819289277.1563557539.5508115327.1563557441.1488580838-.0000000086.2728455204-.029808193.3721451821-.089333117.0991167893-.0596163601.1884498965-.1586416901.2679993211-.2978074791l.7145733074-1.1611474099c-.565715754-.5657152808-1.2653854597-1.0123807174-2.0991005532-1.3399048736s-1.7617922635-.4912862045-2.7839572015-.4912861452c-.9032064816.0000000524-1.6997069161.1217015828-2.3894098675.3647388467-.6898858236.2433115723-1.2705053981.5732131498-1.7417672873.9900704772-.4715361977.4167658913-.8287771637.8983599894-1.0719057706,1.4440508056-.2433114791.5459651245-.3647385353,1.121646983-.3647383494,1.7268627033.0000002043.665106383.1090837274,1.2282614788.327524878,1.6897395958.218166842.461478117.5084768004.8537390821.8709298751,1.1761428426.3621787662.3225866327.774098791.5880256836,1.2356686383.7964085887.4614784112.2084743413.9304545806.3921694919,1.406837072.5508111434.4763824915.1589159599.9453586503.3077739464,1.40683704.4466653955.4614783898.1390743214.8732155095.2977159767,1.23566854.4763821465.362178722.1786661698.6523971893.392169508.8708382743.6401442699.2182582127.2481576342.3275245327.5657152947.3275246516.9527644175.0000000231.075251932-.0041717294.1491551813-.0116351844.2220069154l2.9334951909-.0000001703c.0369458489-.2547867682.0555758878-.517322747.0555758048-.7877222317-.000000189-.6152736942-.1092665723-1.1388369472-.3275248414-1.5705983232Z"/>
      <path class="cls-1" d="M66.2624250912,15.1328583219c-.2183497052-.4316699398-.5060994432-.7987859703-.8634320863-1.1016224001-.3572412069-.3026535574-.7643151118-.5583089431-1.2207645336-.7666918485-.4566322942-.2084743415-.9229568146-.39198662-1.3993393061-.5508111438-.4764739276-.1586416515-.943072746-.3075910743-1.3994307103-.4466653959-.4566322728-.1388914494-.8634318386-.2951557657-1.2207644421-.4689758211-.3573326034-.1734543109-.6452651643-.379551323-.8634319377-.6177424194-.218441082-.2382825326-.3275245235-.5359985536-.3275246333-.8932394992-.0000000823-.2679992863.059524787-.5185342759.1785746079-.7518792773.1191412572-.233070693.2903097038-.4366075201.5136882124-.6103361732.2232870724-.1735457808.4961325609-.3074997217.8187193376-.4019532589.3224039045-.0941792289.6822966528-.1414517271,1.0794039367-.1414517501.4861661129-.0000000282.910429955.0521185392,1.2727915265.1563557022.3621786991.1041457269.6774506472.2209096419.9453586632.3498345645.2679994523.1291077948.5010702839.2455974063.6997611121.3498345788.1984165197.1042371725.3819289277.1563557539.5508115327.1563557441.1488580838-.0000000086.2728455204-.029808193.3721451821-.0893331171.0991167893-.0596163601.1884498965-.1586416902.2679993211-.297807479l.7145733074-1.1611474099c-.565715754-.5657152808-1.2653854597-1.0123807174-2.0991005532-1.3399048735s-1.7617922635-.4912862046-2.7839572015-.4912861452c-.9032064816.0000000525-1.6997069161.1217015829-2.3894098675.3647388467-.6898858236.2433115722-1.2705053981.5732131498-1.7417672873.9900704772-.4715361977.4167658913-.8287771637.8983599894-1.0719057706,1.4440508056-.2433114791.5459651245-.3647385353,1.121646983-.3647383494,1.7268627033.0000002043.665106383.1090837274,1.2282614788.3275248779,1.6897395958.218166842.461478117.5084768004.8537390821.8709298751,1.1761428426.3621787662.3225866327.774098791.5880256836,1.2356686383.7964085887.4614784111.2084743413.9304545806.3921694919,1.406837072.5508111434.4763824915.1589159599.9453586503.3077739464,1.40683704.4466653955.4614783898.1390743214.8732155095.2977159767,1.23566854.4763821465.362178722.1786661698.6523971893.392169508.8708382743.64014427.2182582127.2481576342.3275245327.5657152947.3275246516.9527644175.0000000231.075251932-.0041717294.1491551813-.0116351844.2220069154l2.9335009057-.0000001703c.0369401342-.2547867682.0555701731-.517322747.05557009-.7877222317-.000000189-.6152736942-.1092665723-1.1388369472-.3275248414-1.5705983232Z"/>
      <path class="cls-1" d="M83.5315168303,13.8302582633c-.0000003688-1.2007392111-.1738208593-2.2826114479-.5210957265-3.2454338381-.3475491757-.9625480818-.8411218698-1.7813585646-1.4812666993-2.4564314482-.6401448295-.6747985752-1.4143350361-1.1958015782-2.3223877475-1.563100445-.9081441475-.3671159945-1.9230856847-.5509025496-3.0444588665-.5509024845-1.1314311605.0000000657-2.1512187017.1837867389-3.0593626237.5509028388-.9081439219.3672989723-1.684802585.8883020652-2.3298845531,1.5631007151-.6452648403.6750729583-1.1413972441,1.4938834985-1.4886715199,2.4564316206-.3475485842.9628224306-.5210941015,2.0446946875-.5210937326,3.2454338987.0000003689,1.2009220834.1735465508,2.2828857563.5210957265,3.2454338382.0511814394.1418860061.106626089.2797488223.1642766355.4154857486l3.4236102034-.0000001988c-.5454170261-.8968054955-.8188344049-2.1114887-.8188348763-3.6460154904-.0000005243-1.7069296066.3372156638-3.0244327706,1.0122886176-3.9526009283.6747986454-.9278938493,1.7069299833-1.3919322504,3.0965768863-1.3919323311,1.3696223819-.0000000795,2.3894101221.4640382025,3.0592717843,1.3919319737.6699530985.9281680796,1.004975628,2.2456712046,1.0049761524,3.9526008112.0000004714,1.5345267903-.2716331558,2.7492100265-.8129692919,3.6460155851l3.4326395251-.0000001993c.0575704565-.1357369329.1129693033-.2735997556.1641963736-.4154857676.3472742758-.9625481222.5210941015-2.0445118153.5210937326-3.2454338987Z"/>
    </g>
  </g>
</svg>