<?xml version="1.0" encoding="UTF-8"?>
<svg id="Layer_2" data-name="Layer 2" xmlns="http://www.w3.org/2000/svg" viewBox="0 0 53.6663618323 24.4687029985">
  <defs>
    <style>
      .cls-1 {
        fill: #fff;
      }
    </style>
  </defs>
  <g id="Layer_1-2" data-name="Layer 1">
    <path class="cls-1" d="M26.6186064517,22.2609958884c-.1046960008.1068620537-.2315249835.1894637983-.3715852193.2420144628-.1400240918.052519684-.2898973994.0737025974-.439027175.0620281142h-1.1373275302v-2.2632852187h1.1033212736c.1548121147-.0059224379.3092189014.0190852757.4542540883.0735322047.144999043.0544804911.2777143197.1372836089.3903645626.2436396479.1892959873.2321019953.2927088793.5224395758.2927088793.8219486737,0,.2995078071-.103412892.5898466785-.2927088793.8219473829M27.0463309094,20.2133994569c-.3252590526-.2965310978-.7535927934-.4541185486-1.1935003308-.4390607372h-1.7562739293v4.6824668695h.5632486327v-1.3511910499h1.1935003308c.4398713935.01502554.8682051343-.1425283485,1.1935003308-.4390607372.1484172243-.1480093144.2633677689-.3261058528.3371710529-.5223027453.0737697218-.196165912.1046650203-.4058986991.0905534049-.615023494v-.1689921454c.0162079623-.2110533307-.0136365812-.4230541482-.0874734274-.6213848223-.0738704084-.1983642363-.1899723948-.3782511891-.3402510304-.5272789873M32.8683920486,22.8577447629l.7979232999-2.3643281028.8893544855,2.3648031371-1.6872777855-.0004750342ZM33.3527643413,19.7838471499l-1.6108024338,4.6729584392h.5967488746l.3715516571-1.0811211673h2.0494578429l.4053901027,1.0924574467h.6080877357l-1.8124157495-4.6729920014h-.6084595016l.0004414721-.0113027172ZM19.0969166364,22.3063048621c.025853223.2130502817.0050085133.4291469788-.0611128988.6332955317-.0661214121.2041511346-.1759291946.3914850239-.3217750378.5489020819-.1143412616.1210769375-.2522018822.2175501986-.4051538764.2834689467s-.3177475734.0999275863-.4843025866.0999275863c-.166556304,0-.3313518833-.0340088383-.4843038775-.0999275863-.152918432-.065918748-.290811324-.1623920092-.4051538764-.2834689467-.1450003338-.1579927789-.2542323955-.3453602304-.3203189545-.5493409723-.0660542877-.2040143041-.087406303-.4198399218-.062568982-.6328566414v-2.5224577122h-.5627761802v2.7811913154c-.014786732.2437751876.0216579476.4878885789.1069317599.7167079325.0853073744.2288193537.2175850517.437232888.3883353402.6118441207.1728505079.1798856619.3812304801.3218408713.6118763921.4168606309.2306807651.0950197596.4785841036.1409741604.7279783784.1350181602.246617648.0063613283.491882481-.0382712381.7204307554-.1311249447.2285818365-.0928227262.4355070163-.231865769.6078153655-.4084029558.1723083492-.1765397685.3063441696-.3867450081.3936149329-.6174928976.0873043255-.2307478895.1260170356-.4770299154.1136984163-.7234100463v-2.7811913154h-.5632150705v2.5224577122ZM1.9366071949,22.6103474391h1.2949966274c.0111229658.3453602304-.1142199213.6811784683-.3488965248.9348028716-.2638085955.2523025688-.6145831514.3934445402-.9796311636.3941906537-.1765446092-.0021324907-.3509370422-.0390173516-.5132017409-.1086253602-.1622645373-.0695718647-.3092135766-.1704805-.4324449493-.2969015729-.144996542-.1579953606-.2542456267-.3453602304-.3203162518-.5493409722-.0660705444-.2040168858-.0874094091-.4198399218-.0625648271-.6328566414v-.4734749036c-.024844582-.2130167196-.0035057173-.4288423373.0625648271-.6328230792.0660706251-.2040155949.1753197098-.3913817555.3203162518-.5493758253.259311341-.2521670291.6065837295-.3935465176.9683018225-.3941893629.2540460284-.0040610265.5052360425.0539731855.7317778457.1689908546.1893389082.1181660618.3506223965.2761936938.4725980911.463086111.0271831253.0346181214.0498685927.0725175934.0675155344.1128193448l.4617226465-.2138622289c-.0228074531-.039252287-.0416219722-.0807054801-.0561728007-.1236805899-.1462857017-.2934524112-.3726750228-.5394607761-.6529497513-.7095695102-.3136939693-.171461549-.6671215528-.2569728784-1.0244915657-.2478710672-.2613822742-.0077141432-.5216444098.0371895024-.7653492458.1320065979-.243704836.0947822425-.4658812939.2375829612-.6533491496.419873484-.165140923.1689585832-.2942324903.3696902457-.3794440794.5900506334-.085211584.2203590968-.1247652785.4557088807-.1162609618.6918370494v1.0022770986c-.0122092128.243470546.0254178989.4869075299.1105770293.7153551176.085158785.2284475877.2160567008.4370986392.3846745591.6131607917.1839316823.1808692927.4023317469.3228916264.6422263048.4177100128.2398944772.0948158047.496397162.14042942.7542704111.1342049222.2577987022.0061573734.5142134477-.0394898042.7540268431-.1343081905.2398133954-.0947822425.4581390746-.2368045762.6420163797-.4176067445.169577225-.1754193073.3011429963-.3839361099.3864513389-.6125515087.0853080199-.2285818365.1224968769-.4723260436.1092659465-.7159644007v-.4730695755h-1.8577760348l-.0004534124.4957059904ZM10.6971047013,22.1712867019c-.1126495975.106356039-.2453319574.1891953007-.3903658535.2436409388-.145033896.0544482198-.2994413281.0794546426-.4542540883.0735322047h-1.1259576885v-2.1867065987h1.1259576885c.1566399639-.0069370491.3130437016.017562068.4600403411.0720425592.1470302017.0544469289.2816081807.1378257676.3959158801.2451292934.1926451079.2125094139.2972752751.4902934398.292706943.7770785903.0029780001.1431724847-.0223330643.2855330222-.0745132537.4188911442-.0521801894.1333271415-.1301787487.2550779048-.2295299688.3582197175M9.9313294736,19.7747789009h-1.7671384016v4.6820266883h.563215716v-1.4413701072h1.2048359648c.1128193448,0,.2365347877-.0113362794.3489139513-.0226389967l.6388791205,1.4640091038h.634344996l-.7544389482-1.6312082531c.1213125183-.0657147931.2347411462-.1450661674.3380507699-.2365334969.1484172243-.1480118961.2633690597-.3261058528.3371710529-.5222717648.0737697218-.1961968925.1046650203-.4059322613.0905534049-.6150557653v-.0906205293c.0141116154-.2091247949-.0167836831-.4188253106-.0905534049-.615023494-.0738019931-.1961981834-.1887538286-.37429214-.3371710529-.522270474-.1612082961-.1508207943-.3506727398-.2682755956-.5574288177-.3455641853-.2067902855-.0772872988-.4268111786-.1129200313-.6474071472-.1048328313M16.1711664591,2.8269746781h-2.2873105925l-.5519136442.5509861656c-.0113027172.0113156258-.9347680185.9456434631-1.936603645,1.936617199-.5194280136-.7672306655-1.2191508898-1.3952817803-2.0378169219-1.8291649023-.8186653867-.4338527869-1.7312687974-.6602524348-2.6577792231-.6593456099h-2.2859574548L0,7.2498282274v8.7505182371h3.7608284493v-7.1836726076l2.2202755785-2.229310588h.9120954596c.4566570129,0,.8946347236.1814101605,1.2175257046.5043017869.3229251886.3229251886.5043359945.7608693372.5043359945,1.2175257046v7.6911557041h3.7608281265v-7.1836726076l2.1957761386-2.229310588h1.5990608262c.4566563675,0,.894600516.1814101605,1.2174921424.5043017869.3229251886.3229251886.5043353491.7608693372.5043353491,1.2175257046v7.6911557041h3.7608281265v-7.6902417795c0-.719991865-.1418183788-1.4329447034-.4173356652-2.0981172281-.2755508485-.6652060869-.6793841813-1.2696039166-1.1884918175-1.77871123-.5091076362-.5091408757-1.1135383826-.9129751766-1.7787115528-1.1885056942-.6652054415-.2755301949-1.3781247177-.4173424421-2.0981165827-.4173424421M29.187289644,9.211811352v-2.6135861926h5.6739485565v-3.7608281265h-5.6753039531V0h-3.7608281265v9.2108980728c.0142458642,1.8013486131.7369123786,3.5246993124,2.0117623257,4.7974167687,1.2748473653,1.2727510185,2.9994179216,1.9925402194,4.8007994515,2.0038080836h3.5697068718v-3.7726381494h-3.5457150602c-.8079377449.0015232077-1.5839010374-.3157170602-2.1593998742-.8828240554-.575532399-.5671076406-.9041425084-1.3383315628-.9144977389-2.1462370364M49.8948718837,9.7283291353l-2.4881777946,2.4885179346c-.0906902354.0113349886-.1813753074.0113349886-.2720655428.0226377058h-2.8939086827v-5.6521215069h2.8939086827c.7393804914.0067001774,1.4466135559.3049565016,1.9673956753.8299681039.5207821194.5250451645.8131502132,1.234377803.8138266207,1.9738944795,0,.1128186993-.011163305.2265513233-.0226725589.3380172077M47.1346285462,2.8260675305h-8.5352012158v3.7608555572h1.8804308444v13.1747265377h3.7608616887v-3.7608629796h4.6843282809l.3942216342-.3941893629,3.9419013741-3.9421040382c.3647850007-.9899249171.4859290626-2.0531451672.3526045028-3.0997501906-.1329889378-1.0465714612-.5163828891-2.0456672502-1.1173631829-2.9127564413-.6009802938-.8670559516-1.4019500091-1.5765573692-2.3352270913-2.0684743806-.9332770822-.4918966804-1.9714592835-.7517087921-3.0265568351-.7574447016Z"/>
  </g>
</svg>