<?xml version="1.0" encoding="UTF-8"?>
<svg id="Layer_2" data-name="Layer 2" xmlns="http://www.w3.org/2000/svg" viewBox="0 0 53.0999093077 29.270906484">
  <defs>
    <style>
      .cls-1 {
        fill: #fff;
      }
    </style>
  </defs>
  <g id="Layer_1-2" data-name="Layer 1">
    <g>
      <g>
        <polygon class="cls-1" points="15.1882330776 .2980889632 0 .2980889632 0 3.5843076161 5.5771969618 3.5843076161 5.5771969618 17.7268171438 9.6110431587 17.7268171438 9.6110431587 3.5843076161 15.1882330776 3.5843076161 15.1882330776 .2980889632"/>
        <path class="cls-1" d="M21.5359680003,4.1324109941c.8636234145-.4645680397,1.8516518721-.6971513809,2.9640853727-.6971513809,1.7597003186,0,3.2621813787.6556830333,4.5074290947,1.966443414l2.589067272-2.389543106c-.8461923411-.9790135994-1.8919158911-1.7260425004-3.1371706499-2.2404880601-1.245247716-.5144526026-2.6317329055-.771671861-4.1588498828-.771671861-1.8258116263,0-3.4689174313.3864345734-4.9305287867,1.1587050774-1.4604070267.7710732181-2.6010894306,1.8414397281-3.4232444974,3.2116981729-.8209507382,1.3690541161-1.2308239429,2.9160037814-1.2308239429,4.6420462818,0,1.7260495432.4098732047,3.2741964944,1.2308239429,4.6444549392.8221550669,1.3690611589,1.9550269413,2.4394206261,3.3992072232,3.2116981729,1.4435745962.7710661752,3.0704606993,1.1563034628,4.880038538,1.1563034628,1.2608828607,0,2.5145467919-.1911149936,3.7598015508-.5721406521,1.245247716-.3810327014,2.340257186-.9285303935,3.2862116101-1.6419085192v-7.0724590925h-3.6852740279v5.103614064c-.9297276794.4988245008-1.9748525864.7476345868-3.1347619925.7476345868-1.0962067558,0-2.0722200977-.2361892846-2.9280259399-.7091735395-.8546085564-.4723785691-1.5229123911-1.1322661886-2.0049044613-1.9784585297-.4807947844-.8473966698-.7211886552-1.8107821674-.7211886552-2.8895648926,0-1.0962067558.2403938708-2.0674027829.7211886552-2.9136021668.4819920702-.8461923411,1.1545004912-1.5012696886,2.016919577-1.9664363712Z"/>
        <path class="cls-1" d="M42.0277407508,14.5896464938c-1.0787756824,0-2.0409638941-.2361892846-2.8871562352-.7091735395-.846199384-.4723785691-1.5066856464-1.1322661886-1.9808671871-1.9784585297-.4729772121-.8473966698-.7091664966-1.8107821674-.7091664966-2.8895648926,0-1.0781770395.2361892846-2.0409638941.7091664966-2.8871562352.4741815408-.8473966698,1.1346678032-1.5078829322,1.9808671871-1.9808671871.8461923411-.4723785691,1.8083805528-.7091664966,2.8871562352-.7091664966,1.7434735738,0,3.2044792435.6803189504,4.3824254088,2.0409638941l2.589067272-2.3895360631c-.8287683105-.9952403441-1.8534548438-1.7578973469-3.0746723284-2.2885766943-1.2200061131-.5318766332-2.584257-.7981107498-4.0939429039-.7981107498-1.7933581368,0-3.4082220814.3864345734-4.8439861481,1.1587050774-1.4363697525.7710732181-2.5650299978,1.8414397281-3.3871850647,3.2116981729-.8209507382,1.3690541161-1.2308239429,2.9160037814-1.2308239429,4.6420462818,0,1.7260495432.4098732047,3.2741964944,1.2308239429,4.6444549392.8221550669,1.3690611589,1.9508153122,2.4394206261,3.3871850647,3.2116981729,1.4357640667.7710661752,3.0416131531,1.1563034628,4.8175402165,1.1563034628,1.5108902326,0,2.8805500344-.2656354737,4.1083737198-.7957091352,1.2290209713-.5318766332,2.2579191336-1.3035484942,3.0866874441-2.3150155831l-2.589067272-2.3919447206c-1.1779461653,1.3786746601-2.6389518349,2.0674098257-4.3824254088,2.0674098257Z"/>
      </g>
      <g>
        <path class="cls-1" d="M2.7414113326,22.1962500198H.7244847127c-.0498775201,0-.0769220946.0234386313-.0817323666.069717251l-.0288475462.4687726259c-.0018029716.0180297164.0030073003.0330521324.0144237731.0456729339.0126208015.0132194444.0318548466.0192340451.0576950924.0192340451.0252416029,0,.0456729339-.0174310735.060096707-.0528918633.0384680902-.1262080146.0913529106-.2217655115.1586615041-.2860668046.0685129222-.0637096931.1622674474-.0961631826.2812635755-.0961631826h.3053078926c.0606953499,0,.0913458677.0324534895.0913458677.0961631826v2.0457671232c0,.0432713193-.0162267447.0781334662-.0480745484.1033750691-.0306505178.0258402459-.069118608.0408626619-.1153901848.0456729339l-.1346242299.0072118866c-.0288475462,0-.0432713193.0162267447-.0432713193.0480815913,0,.0144237731.004810272.0264388888.0144237731.0360594328.0108178298.0096135011.0228399884.0144237731.0360594328.0144237731l.4519472382-.0144237731.4110775334.0144237731c.0126208015,0,.0246359171-.004810272.0360594328-.0144237731.0108178298-.009620544.0168253877-.0216356597.0168253877-.0360594328,0-.0318548466-.0156281018-.0480815913-.0456729339-.0480815913l-.1057766837-.0072118866c-.0450742909-.004810272-.0835353383-.019832688-.1153901848-.0456729339-.0324534895-.0252416029-.0480815913-.0601037498-.0480815913-.1033750691v-2.0457671232c0-.0637096931.0300518749-.0961631826.0913529106-.0961631826h.3053008497c.1165945135,0,.20914471.0312562036.2764603464.0937545252.0673085935.0625053644.1226020714.1586615041.1658733907.2884754621.0144237731.0354607898.0342564611.0528918633.060096707.0528918633.0252416029,0,.0438699622-.0054089149.0552934778-.0168324305.0126208015-.0126208015.0174240306-.0288475462.0144237731-.0480745484l-.0360594328-.4519472382c-.004810272-.0576950924-.0330591753-.0865426386-.0841410241-.0865426386Z"/>
        <path class="cls-1" d="M3.8319626735,22.8837808568c-.2776576322,0-.5012261153.088951296-.6707054493.2668398024-.1700779769.1778955492-.2548176439.4080772759-.2548176439.6899394944,0,.2806649326.0823310096.5090366448.2476057573.6851292224.1664720336.1748882489.3918434884.2620295304.6755157213.2620295304.2836651901,0,.5078323161-.0865426386.6731070639-.2596279159.164669062-.1742825631.2476057573-.4044642898.2476057573-.6899324515,0-.2848695188-.0835353383-.5150512455-.2500073719-.6899394944-.1670777194-.1760925776-.3894418738-.2644381879-.6683038347-.2644381879ZM4.2766980251,24.4463586239c-.0979661542.1334199012-.2500144147.1995312089-.4567575102.1995312089-.1105799128,0-.2067360526-.0270445746-.2884754621-.0817394095-.0817323666-.0558921208-.1436320452-.1286096292-.1851003929-.2187582111-.0769291375-.1712823056-.1153901848-.3690105428-.1153901848-.5937763118,0-.2163565965.0492788771-.3906462025.1490409602-.5240661037.0991634401-.1346242299.2500144147-.2019328234.4519472382-.2019328234.1165945135,0,.2151522678.0282489033.2956873486.0841410241.0817323666.0546877921.1430334023.1274053005.1851074358.2187582111.075119123.1682750052.1129815274.3629959422.1129815274.5841628107s-.0498775201.3990553749-.1490409602.5336796048Z"/>
        <path class="cls-1" d="M7.8406729103,22.9102267884l-.2596279159.0144237731-.269241417-.0144237731c-.0336578182,0-.0504832059.0144237731-.0504832059.0432713193s.0144237731.0456729339.0432713193.0504832059l.064906979.0072118866c.0751261659.0084162153.1129885703.0408697047.1129885703.0985647972,0,.0084091724-.0024086574.0216356597-.0072118866.0408626619l-.353382441,1.1154408009c-.0018029716.0114164727-.0066132436.0168253877-.0144237731.0168253877-.0066132436,0-.0132264872-.0030002575-.0192340451-.0096135011l-.5240661037-1.2909276927c-.0114164728-.0300518749-.0420669906-.0456729339-.0913458677-.0456729339-.0480815913,0-.0787321091.015621059-.0913529106.0456729339l-.5120439452,1.2933293073c-.0036059433.0162267448-.0090148582.0240443171-.0168253877.0240443171-.0066132436,0-.0120221585-.0054089149-.0168324305-.0168324305l-.3317467814-1.1322661886c-.0036059433-.0078105295-.0048032291-.0192270022-.0048032291-.0336507753,0-.0625053644.0432713193-.0973604684.1298139579-.1057766837l.0745204801-.0072118866c.0318478037-.004810272.0480815913-.0216356597.0480815913-.0504832059s-.0210370167-.0432713193-.0625053644-.0432713193l-.348572169.0144237731-.353382441-.0144237731c-.0336578182,0-.0504832059.0144237731-.0504832059.0432713193s.0126137586.0456729339.0384610473.0504832059l.069717251.0120221585c.075119123.0114164728.1250036859.0540891491.1490409602.1274053005l.5144526026,1.6106593584c.0096135011.0222343026.0294461891.0336507753.060096707.0336507753.0300448321,0,.0504832059-.0114164728.060096707-.0336507753l.5360882622-1.3774703314c.0060075578-.0222413454.0180297164-.0336578182.0360594328-.0336578182.0060075578,0,.0132194444.0066132436.0216356597.0192340451l.562527151,1.3918941045c.0096135011.0222343026.0288475462.0336507753.0576950924.0336507753.0300448321,0,.0510818488-.0114164728.0624983215-.0336507753l.5192558317-1.5986371999c.0270445746-.0817323666.0781334662-.1280109863.153858275-.139427459l.0697102081-.0120221585c.0252416029-.004810272.0384680902-.0216356597.0384680902-.0504832059s-.0156281018-.0432713193-.0456799767-.0432713193Z"/>
        <path class="cls-1" d="M8.9243504218,22.8837808568c-.2325833413,0-.4327131931.0931558822-.6009881983.278861961-.1670777194.1863047216-.2500144147.403267004-.2500144147.6514714042,0,.3065051785.0841410241.5451031204.2524160293.716385426.169479334.1718809485.4038656469.2572192584.7019616529.2572192584.2385908991,0,.4255013065-.0679072365.5601184936-.204334438.0348621469-.0336578182.0390667331-.0637026503.0120221585-.0913529106-.0276432175-.0270445746-.0564907637-.0288475462-.0865426386-.0048032291-.0931558822.0757248088-.2367879275.1129815274-.4303115785.1129815274-.1923122795,0-.3509737836-.064906979-.4759845124-.1947209369-.1250036859-.1298139579-.1899106649-.3058994927-.1947209369-.5288693328,0-.0414683477.0144237731-.0625053644.0432713193-.0625053644h1.050533822c.1298139579,0,.1947209369-.0727175084.1947209369-.2187582111,0-.2031371521-.0715202226-.3726164861-.213954982-.5072336732-.1430334023-.1358285586-.3305424527-.2043414809-.562527151-.2043414809ZM9.2609074752,23.6602629898h-.8029210218c-.0306505178,0-.0456799767-.0192340451-.0456799767-.0576950924,0-.1502452889.04928592-.2842708759.149048003-.4014640323.0991634401-.1165874707.2193638969-.1754868918.3605943276-.1754868918.1424347594,0,.2530146722.0504832059.3317467814.1514496176.079929395.1009664117.1202004568.2247728118.1202004568.3702078287,0,.0757248088-.0378624044.1129885703-.1129885703.1129885703Z"/>
        <path class="cls-1" d="M11.2526770064,22.9102267884c-.040264019-.0174310735-.0985647972-.0264459316-.1754868918-.0264459316-.0769291375,0-.1646761048.0288475462-.2620365733.0865426386-.0979591114.0576950924-.1748882489.1220034284-.2307803696.1923193223-.0132194444.0144237731-.0240372742.0216356596-.0336507753.0216356596-.009620544,0-.0144237731-.0060075578-.0144237731-.0192340451v-.1971225514c0-.0558921208-.0192340451-.0841410241-.0576950924-.0841410241h-.0072118866l-.4735828978.0601037498c-.0324534895.0048032291-.0480815913.0234386313-.0480815913.055286435,0,.0306505179.0156281018.0456799767.0480815913.0456799767h.1226020714c.0462786197,0,.079929395.0096135011.1009664117.0288475462.0204313309.0180297164.0312491608.0504832059.0312491608.0985577543v1.3341990121c0,.0432713193-.0162267447.0781334662-.0480745484.1033750691-.0324534895.0258402459-.0721188655.0408626619-.1202004568.0456729339l-.1009664117.0072118866c-.0306505178.0036059433-.0456729339.0210370167-.0456729339.0528848204,0,.0306505178.0180297164.0456799767.055286435.0456799767l.3942521458-.0144237731.4807947844.0144237731c.0366580757,0,.055286435-.0150294589.055286435-.0456799767,0-.0318478037-.015621059-.0492788772-.0456729339-.0528848204l-.149048003-.0096135011c-.1286096292-.009620544-.1923122795-.0583007782-.1923122795-.1466463884v-.7884972487c0-.1905163507.0372567186-.3371556963.1129815274-.4399250797.0751261659-.1021707404.1664790765-.1538512321.274051689-.1538512321.1087839841,0,.1971295943.0420669906.2644381878.1250036859.0318548466.0372637615.0576950924.0552934779.0769291375.0552934779.0336507753,0,.0504832059-.0180297164.0504832059-.0552934779v-.2812635755c0-.0204313309-.0210370167-.039665376-.0625053644-.0576950924Z"/>
        <path class="cls-1" d="M14.8322940792,23.5592965781l-.3605943276.0144237731-.4952185575-.0144237731c-.0324534895,0-.0480815913.0168253877-.0480815913.0504832059,0,.0324534895.0132264872.0480815913.0408697047.0480815913l.1971225515.0096135011c.1087839841.004810272.1634717761.0540891491.1634717761.1466393456v.4519472382c0,.0817323666-.0625053644.1604644758-.1875090503.2355906416-.1250036859.0739218372-.2782562752.1105799128-.4591591247.1105799128-.1814944496,0-.3473678403-.0607023928-.4976201721-.1826987784-.1490409602-.1232077572-.2638325021-.2794606039-.3437618971-.4687726258-.0805350808-.1905163507-.1202004568-.3876389021-.1202004568-.5913746972,0-.3107168075.0889442532-.567337423.2668398024-.7692702465.1790928351-.2019328234.4194937487-.3028992352.7211886552-.3028992352.1634717761,0,.3041035639.0468772626.423099692.139427459.1183904423.0913529106.2001298518.218765254.2452041428.3822299872.0108178298.0480815913.0372567186.0721188655.0793307521.0721188655.0174240306,0,.0312491608-.0072118866.0408626619-.0216356597.0108178298-.015621059.0168324305-.0324534895.0168324305-.0504832059v-.4158807626c0-.0528918633-.0835423811-.1069810124-.2500144147-.1634717761-.1652747478-.0558921208-.3503751407-.0841410241-.5553152645-.0841410241-.3960551174,0-.7181813548.1250107288-.9663927979.3750181007-.2470071144.248810086-.3702078287.5619285081-.3702078287.9399539091,0,.3768210723.1177917994.6911367802.353382441.9423484808.2355835988.2500144147.5420887772.3750181007.9207128212.3750181007.2241741689,0,.4188951058-.0444686052.5841628107-.1346171871.0528918633-.0300518749.088951296-.0456799767.1081782983-.0456799767.0913529106,0,.1562598896.044475648.1947209369.1322226153.0156281018.0318478037.0372637615.0480745484.064906979.0480745484.0414683477,0,.0601037498-.0228329455.0552934778-.0673085935l-.0216356597-.204334438v-.7019616529c0-.079929395.0480815913-.1286096292.144237731-.1466393456l.0625053644-.0096135011c.0288475462-.0030073004.0432713193-.0216356597.0432713193-.0552934778,0-.0288475462-.0168324305-.0432713193-.0504832059-.0432713193Z"/>
        <path class="cls-1" d="M16.343071626,22.9102267884c-.0402710618-.0174310735-.0985647972-.0264459316-.1754939347-.0264459316-.0769220946,0-.164669062.0288475462-.2620295304.0865426386-.0979591114.0576950924-.1748882489.1220034284-.2307803697.1923193223-.0132194444.0144237731-.0240372742.0216356596-.0336578182.0216356596-.0096135011,0-.0144237731-.0060075578-.0144237731-.0192340451v-.1971225514c0-.0558921208-.0192270022-.0841410241-.0576950924-.0841410241h-.0072118866l-.473575855.0601037498c-.0324534895.0048032291-.0480815913.0234386313-.0480815913.055286435,0,.0306505179.0156281018.0456799767.0480815913.0456799767h.1226020714c.0462715768,0,.079929395.0096135011.1009664117.0288475462.0204313309.0180297164.0312491608.0504832059.0312491608.0985577543v1.3341990121c0,.0432713193-.0162267447.0781334662-.0480815913.1033750691-.0324534895.0258402459-.0721188655.0408626619-.120193414.0456729339l-.1009664117.0072118866c-.0306505178.0036059433-.0456799767.0210370167-.0456799767.0528848204,0,.0306505178.0180297164.0456799767.0552934778.0456799767l.3942521458-.0144237731.4807877415.0144237731c.0366651185,0,.0552934778-.0150294589.0552934778-.0456799767,0-.0318478037-.0156281018-.0492788772-.0456729339-.0528848204l-.149048003-.0096135011c-.1286096292-.009620544-.1923193223-.0583007782-.1923193223-.1466463884v-.7884972487c0-.1905163507.0372637615-.3371556963.1129885703-.4399250797.0751261659-.1021707404.1664720336-.1538512321.274051689-.1538512321.1087769412,0,.1971225515.0420669906.2644381878.1250036859.0318478037.0372637615.0576950924.0552934779.0769220946.0552934779.0336578182,0,.0504832059-.0180297164.0504832059-.0552934779v-.2812635755c0-.0204313309-.0210299739-.039665376-.0624983215-.0576950924Z"/>
        <path class="cls-1" d="M17.5508795091,22.8837808568c-.2776576322,0-.5012261153.088951296-.6707054493.2668398024-.1700779769.1778955492-.2548176439.4080772759-.2548176439.6899394944,0,.2806649326.0823380524.5090366448.2476057573.6851292224.1664790765.1748882489.3918505312.2620295304.6755157213.2620295304s.507839359-.0865426386.6731070639-.2596279159c.1646761048-.1742825631.2476128002-.4044642898.2476128002-.6899324515,0-.2848695188-.0835423811-.5150512455-.2500144147-.6899394944-.1670777194-.1760925776-.3894418738-.2644381879-.6683038347-.2644381879ZM17.9956148607,24.4463586239c-.0979591114.1334199012-.2500144147.1995312089-.4567504673.1995312089-.1105869557,0-.2067430954-.0270445746-.2884754621-.0817394095-.0817394095-.0558921208-.1436390881-.1286096292-.1851074358-.2187582111-.0769291375-.1712823056-.1153901848-.3690105428-.1153901848-.5937763118,0-.2163565965.0492788771-.3906462025.149048003-.5240661037.0991634401-.1346242299.2500073719-.2019328234.4519401953-.2019328234.1165945135,0,.2151593107.0282489033.2956873486.0841410241.0817394095.0546877921.1430404452.1274053005.1851074358.2187582111.0751261659.1682750052.1129885703.3629959422.1129885703.5841628107s-.0498845629.3990553749-.149048003.5336796048Z"/>
        <path class="cls-1" d="M20.8480216347,24.674737379c-.0673156364,0-.1262080147-.0228399884-.1754939347-.069717251-.0480745484-.0480815913-.0721188655-.1111855986-.0721188655-.1899106649v-1.3366076695c0-.0366580757.004810272-.0673085935.0144237731-.0913458677.009620544-.0240443171.0144237731-.0384680902.0144237731-.0432713193,0-.039665376-.0240372742-.0601037498-.0721188655-.0601037498h-.0192270022l-.5096423306.0480815913c-.0336578182.004810272-.0504832059.0216356597-.0504832059.0504832059,0,.0144237731.004810272.0264459316.0144237731.0360594328.0108178298.0096135011.0228399884.0144237731.0360594328.0144237731h.1610631187c.0432713193,0,.0751261659.0108178298.0961631826.0312491608.0204313309.0192340451.0312491608.0528918633.0312491608.1009664117v.9303333652c0,.1382301732-.0504832059.2614308875-.1514496176.3702148716-.1009664117.1093755841-.2253714547.1634647333-.3726164861.1634647333-.1460407027,0-.2662341166-.0420669906-.3605943276-.1274053005-.0931488394-.0865426386-.139427459-.2049401238-.139427459-.3557910984v-1.0673592096c0-.0366580757.0054089149-.0673085935.0168253877-.0913458677.0126208015-.0240443171.0192340451-.0384680902.0192340451-.0432713193,0-.039665376-.0240372742-.0601037498-.0721188655-.0601037498h-.0192340451l-.4807877415.0480815913c-.0336578182.004810272-.0504832059.0216356597-.0504832059.0504832059,0,.0144237731.0048032291.0264459316.0144237731.0360594328.0108178298.0096135011.0228329455.0144237731.0360594328.0144237731h.1250036859c.0432713193,0,.0751261659.0108178298.0961561397.0312491608.0204383738.0192340451.0312562036.0528918633.0312562036.1009664117v.9231214786c0,.2229698402.0624983215.3954564745.1875090503.5168542171.1262080147.1220034285.2944830199.1826987784.5048320586.1826987784.2115463246,0,.3996540178-.0727175085.5649287656-.2187582111.0204313309-.0192340451.0366580757-.0288475462.0480815913-.0288475462.0108178298,0,.0216356597.0060075578.0312491608.0168253877.004810272.0084162153.0102191869.0168324305.0168253877.0264459316.0078175723.0096135011.0156281018.0180297164.0240443171.0240372742.1057696408.1202004568.2307803697.1802971638.3750181007.1802971638.0943531681,0,.1418290736-.0234386313.1418290736-.0697102081,0-.0288475462-.0186283593-.0432713193-.055286435-.0432713193Z"/>
        <path class="cls-1" d="M22.0882055358,22.8837808568c-.0787321091,0-.1556612466.0132264872-.2307803696.0384680902-.0757248088.0258402459-.1316169296.0504832059-.1682820481.0745204801-.035453747.0228399884-.0637026503.0426726764-.0841339812.060096707-.0210370167.0162267447-.0312562036.009620544-.0312562036-.0192270022v-.0697172509c0-.0558921208-.0192270022-.0841410241-.0576950924-.0841410241h-.0096135011l-.4735828978.0601037498c-.0306505178.0048032291-.0456729339.0234386313-.0456729339.055286435,0,.0306505179.015022416.0456799767.0456729339.0456799767h.1250107288c.0462715768,0,.079929395.0096135011.1009664117.0288475462.0204313309.0180297164.0312491608.0504832059.0312491608.0985577543v2.4280041533c0,.0432713193-.0162267447.0775277804-.0480815913.1033680263-.0324534895.0252416029-.0721188655.0408697047-.120193414.0456799767l-.1033750691.0072118866c-.0288475462.0011972859-.0432713193.0180297164-.0432713193.0504832059,0,.0318478037.0180297164.0480745484.0552934778.0480745484l.3942521458-.0144237731.3461705545.0144237731c.034855104,0,.0528848204-.0162267447.0528848204-.0480745484,0-.0324534895-.0144237731-.04928592-.0432713193-.0504832059l-.0625053644-.0072118866c-.0961561397-.0132264872-.144237731-.0625053644-.144237731-.149048003v-.9327349797c0-.0174310735.0036059433-.029453232.0120221585-.0360594328.0078105295-.0078175723.0180297164-.0072118866.0312491608.0024016146.1376315303.1027693834.3004976206.1538512321.4880066709.1538512321.2548176439,0,.4711742404-.0877399245.6490697896-.264431145.1778955492-.1760925776.2668398024-.4074715902.2668398024-.6947497664,0-.2866724904-.0853383099-.5156498884-.2548176439-.687530837-.1682820481-.1712823056-.3942521458-.2572263013-.6779173358-.2572263013ZM22.5305322301,24.4631840116c-.1141858561.1220034285-.2680441311.1827058212-.4615607393.1827058212-.1238064001,0-.2373936133-.0438770051-.3413602825-.1322226153-.1027693834-.0895428961-.153858275-.1929179653-.153858275-.3101111217v-.7332037708c0-.1039737121.0420740335-.2025385092.1274123434-.2956873486.0865426386-.094360211.2163565965-.1418361165.3894418738-.1418361165.1742896059,0,.3203303086.0811337237.4375234651.2428025282.1165874707.1604644758.1754868918.3864345734.1754868918.6779173358,0,.2181595682-.0576950924.3882375451-.1730852772.5096352877Z"/>
        <path class="cls-1" d="M26.2299976167,24.3574143707c-.004810272.0018029716-.0288475462.0180297164-.0721188655.0480745484-.0432713193.0288475462-.0793307521.0498845629-.1081782983.0625053644-.0276502604.0132194444-.0811337237.034855104-.1610701616.064906979-.0787250663.0306505178-.1965239085.0456729339-.353382441.0456729339-.2758546606,0-.5060293445-.1226020714-.6899324515-.3678062141-.1827058212-.2452041428-.274051689-.5240590608-.274051689-.83657884,0-.313717065.0865426386-.5721406521.2596279159-.7740734756.1742825631-.2019328234.4092745618-.3028992352.7043562246-.3028992352.1616688045,0,.3017019493.0468772626.4206980774.139427459.120193414.0913529106.2019328234.218765254.2452041428.3822299872.0126208015.0480815913.0390596902.0721188655.0793307521.0721188655.0174240306,0,.0318478037-.0072118866.0432713193-.0216356597.0108178298-.015621059.0168253877-.0324534895.0168253877-.0504832059v-.4158807626c0-.0528918633-.0835353383-.1069810124-.2500144147-.1634717761-.1670706765-.0558921208-.3521781123-.0841410241-.5553152645-.0841410241-.3942451029,0-.7115681112.124405043-.9519690248.3726164861-.2403938708.2470071144-.3605943276.5601255365-.3605943276.9399468663,0,.378624044.1177988422.6935454377.353382441.9447571382.2355906416.2500144147.5420958201.3750181007.920719864.3750181007.2193638969,0,.4074715902-.0420669906.5649287656-.1274053005.0877469673-.0462786197.173690963-.1159958706.2572263013-.20914471.0192340451-.0192340451.0288475462-.0366651185.0288475462-.0528918633,0-.0174240306-.0090148582-.034855104-.0264459316-.0528848204-.0180297164-.0192340451-.0480745484-.015022416-.0913458677.0120221585Z"/>
        <path class="cls-1" d="M27.6369282229,22.8837808568c-.2776576322,0-.5012261153.088951296-.6707054493.2668398024-.1700779769.1778955492-.2548176439.4080772759-.2548176439.6899394944,0,.2806649326.0823310096.5090366448.2476057573.6851292224.1664720336.1748882489.3918434883.2620295304.6755157213.2620295304.2836651901,0,.5078323161-.0865426386.6731070639-.2596279159.164669062-.1742825631.2476057573-.4044642898.2476057573-.6899324515,0-.2848695188-.0835353383-.5150512455-.2500073719-.6899394944-.1670777194-.1760925776-.3894418738-.2644381879-.6683038347-.2644381879ZM28.0816635745,24.4463586239c-.0979661542.1334199012-.2500144147.1995312089-.4567575102.1995312089-.1105799128,0-.2067360526-.0270445746-.2884754621-.0817394095-.0817323666-.0558921208-.1436320452-.1286096292-.1851003929-.2187582111-.0769291375-.1712823056-.1153901848-.3690105428-.1153901848-.5937763118,0-.2163565965.0492788772-.3906462025.1490409602-.5240661037.0991634401-.1346242299.2500144147-.2019328234.4519472382-.2019328234.1165945135,0,.2151522678.0282489033.2956873486.0841410241.0817323666.0546877921.1430334023.1274053005.1851074358.2187582111.075119123.1682750052.1129815274.3629959422.1129815274.5841628107s-.0498775201.3990553749-.1490409602.5336796048Z"/>
        <path class="cls-1" d="M31.9413258083,24.6627152205l-.0985577543-.0072118866c-.0498845629-.004810272-.0925572393-.019832688-.1274123434-.0456729339-.0354607898-.0252416029-.0528848204-.0601037498-.0528848204-.1033750691v-.9399468663c0-.2211668685-.0522861775-.3900405167-.1562598896-.5072336732-.104572355-.1165945135-.2500144147-.1754939347-.4375234651-.1754939347-.2229627973,0-.408668876.1009664117-.557716879.3028992352-.0096135011.0180297164-.0186283593.0264459316-.0264459316.0264459316-.0066062008,0-.0132194444-.0072118866-.0192270022-.0216356597-.0516875346-.1105799128-.1196018139-.188713379-.2043414809-.2355906416-.0835353383-.0480745484-.1911149936-.0721188655-.3221262374-.0721188655-.1748952917,0-.3359584104.0805350808-.483196399.2404009136-.0144237731.0144237731-.0264459316.0216356597-.0360594328.0216356597-.0084162153,0-.0120221585-.0054089149-.0120221585-.0168324305v-.1610631187c0-.0558921208-.0192340451-.0841410241-.0576950924-.0841410241h-.0072118866l-.4735828978.0601037498c-.0324534895.0048032291-.0480745484.0234386313-.0480745484.055286435,0,.0306505179.015621059.0456799767.0480745484.0456799767h.1226020714c.0462786197,0,.0799364379.0096135011.1009664117.0288475462.0204313309.0180297164.0312562036.0504832059.0312562036.0985577543v1.3341990121c0,.0432713193-.0162267447.0781334662-.0480815913.1033750691-.0324534895.0258402459-.0721188655.0408626619-.1202004568.0456729339l-.1009664117.0072118866c-.0306505178.0036059433-.0456729339.0210370167-.0456729339.0528848204,0,.0306505178.0180297164.0456799767.0552934778.0456799767l.3942451029-.0144237731.3461705545.0144237731c.0366580757,0,.0552934778-.0150294589.0552934778-.0456799767,0-.0318478037-.0156281018-.0492788772-.0456729339-.0528848204l-.0601037498-.0072118866c-.0979591114-.0108178298-.1466393456-.0607023928-.1466393456-.149048003v-.9086977055c0-.1298139579.0468772626-.2512117006.1418361165-.3653975567.0943531681-.1153901848.2001228089-.1730852772.3173230083-.1730852772.2578249442,0,.3870332164.1526469034.3870332164.4567504673v.9904300721c0,.0883456102-.044475648.1382301732-.1322155725.149048003l-.0552934778.0072118866c-.0288475462.004810272-.0432713193.0228399884-.0432713193.0528848204,0,.0306505178.0180297164.0456799767.0552934778.0456799767l.3197246228-.0144237731.3221332803.0144237731c.0300518749,0,.0456729339-.0150294589.0456729339-.0456799767,0-.0318478037-.0132194444-.0492788772-.0384610473-.0528848204l-.0625053644-.0072118866c-.0853383099-.0096135011-.1274053005-.0613010357-.1274053005-.1562598896v-.9014858189c0-.1232007143.0444686052-.2434011711.1346171871-.3605943276.089549939-.1183904423.1953266227-.1778885064.3173230083-.1778885064.2596279159,0,.3894418738.1526469034.3894418738.4567504673v.9904300721c0,.0853453528-.0450742909.1346242299-.1346171871.149048003l-.0480815913.0072118866c-.0288475462.0036059433-.0432713193.0210370167-.0432713193.0528848204,0,.0306505178.0180297164.0456799767.0552934778.0456799767l.3317467814-.0144237731.3894418738.0144237731c.0366580757,0,.055286435-.0150294589.055286435-.0456799767,0-.0318478037-.0144237731-.0492788772-.0432713193-.0528848204Z"/>
        <path class="cls-1" d="M35.2243963038,24.6627152205l-.0985647972-.0072118866c-.0498845629-.004810272-.0925501965-.019832688-.1274123434-.0456729339-.035453747-.0252416029-.0528848204-.0601037498-.0528848204-.1033750691v-.9399468663c0-.2211668685-.0522861775-.3900405167-.1562598896-.5072336732-.104572355-.1165945135-.2500073719-.1754939347-.4375164222-.1754939347-.2229698402,0-.4086759189.1009664117-.5577239219.3028992352-.0096135011.0180297164-.0186283593.0264459316-.0264388888.0264459316-.0066132436,0-.0132264872-.0072118866-.0192340451-.0216356597-.0516875346-.1105799128-.119594771-.188713379-.204334438-.2355906416-.0835423811-.0480745484-.1911149936-.0721188655-.3221332803-.0721188655-.1748882489,0-.3359513676.0805350808-.483196399.2404009136-.0144237731.0144237731-.0264459316.0216356597-.0360594328.0216356597-.0084162153,0-.0120221585-.0054089149-.0120221585-.0168324305v-.1610631187c0-.0558921208-.0192270022-.0841410241-.0576950924-.0841410241h-.0072118866l-.473575855.0601037498c-.0324534895.0048032291-.0480815913.0234386313-.0480815913.055286435,0,.0306505179.0156281018.0456799767.0480815913.0456799767h.1226020714c.0462715768,0,.079929395.0096135011.1009664117.0288475462.0204313309.0180297164.0312491608.0504832059.0312491608.0985577543v1.3341990121c0,.0432713193-.0162267447.0781334662-.0480815913.1033750691-.0324534895.0258402459-.0721188655.0408626619-.120193414.0456729339l-.1009664117.0072118866c-.0306505178.0036059433-.0456799767.0210370167-.0456799767.0528848204,0,.0306505178.0180297164.0456799767.0552934778.0456799767l.3942521458-.0144237731.3461705545.0144237731c.0366580757,0,.055286435-.0150294589.055286435-.0456799767,0-.0318478037-.015621059-.0492788772-.0456729339-.0528848204l-.060096707-.0072118866c-.0979661542-.0108178298-.1466463885-.0607023928-.1466463885-.149048003v-.9086977055c0-.1298139579.0468772626-.2512117006.1418361165-.3653975567.0943531681-.1153901848.2001298518-.1730852772.3173230083-.1730852772.2578249442,0,.3870402592.1526469034.3870402592.4567504673v.9904300721c0,.0883456102-.044475648.1382301732-.1322226154.149048003l-.055286435.0072118866c-.0288475462.004810272-.0432713193.0228399884-.0432713193.0528848204,0,.0306505178.0180297164.0456799767.055286435.0456799767l.3197316657-.0144237731.3221262374.0144237731c.0300518749,0,.0456799767-.0150294589.0456799767-.0456799767,0-.0318478037-.0132264872-.0492788772-.0384680902-.0528848204l-.0624983215-.0072118866c-.0853453528-.0096135011-.1274123434-.0613010357-.1274123434-.1562598896v-.9014858189c0-.1232007143.044475648-.2434011711.1346242299-.3605943276.0895428961-.1183904423.1953195798-.1778885064.3173230083-.1778885064.2596279159,0,.3894418738.1526469034.3894418738.4567504673v.9904300721c0,.0853453528-.0450742909.1346242299-.1346242299.149048003l-.0480815913.0072118866c-.0288475462.0036059433-.0432713193.0210370167-.0432713193.0528848204,0,.0306505178.0180297164.0456799767.0552934778.0456799767l.3317467814-.0144237731.3894418738.0144237731c.0366580757,0,.0552934778-.0150294589.0552934778-.0456799767,0-.0318478037-.0144237731-.0492788772-.0432713193-.0528848204Z"/>
        <path class="cls-1" d="M37.5002042966,24.674737379c-.0673156364,0-.1262080147-.0228399884-.1754939347-.069717251-.0480745484-.0480815913-.0721188655-.1111855986-.0721188655-.1899106649v-1.3366076695c0-.0366580757.004810272-.0673085935.0144237731-.0913458677.009620544-.0240443171.0144237731-.0384680902.0144237731-.0432713193,0-.039665376-.0240372742-.0601037498-.0721188655-.0601037498h-.0192270022l-.5096423306.0480815913c-.0336578182.004810272-.0504832059.0216356597-.0504832059.0504832059,0,.0144237731.004810272.0264459316.0144237731.0360594328.0108178298.0096135011.0228399884.0144237731.0360594328.0144237731h.1610631187c.0432713193,0,.0751261659.0108178298.0961631826.0312491608.0204313309.0192340451.0312491608.0528918633.0312491608.1009664117v.9303333652c0,.1382301732-.0504832059.2614308875-.1514496176.3702148716-.1009664117.1093755841-.2253714547.1634647333-.3726164861.1634647333-.1460407027,0-.2662411595-.0420669906-.3605943276-.1274053005-.0931558822-.0865426386-.139427459-.2049401238-.139427459-.3557910984v-1.0673592096c0-.0366580757.0054089149-.0673085935.0168253877-.0913458677.0126208015-.0240443171.0192340451-.0384680902.0192340451-.0432713193,0-.039665376-.0240372742-.0601037498-.0721188655-.0601037498h-.0192340451l-.4807877415.0480815913c-.0336578182.004810272-.0504832059.0216356597-.0504832059.0504832059,0,.0144237731.0048032291.0264459316.0144237731.0360594328.0108178298.0096135011.0228329455.0144237731.0360594328.0144237731h.1250036859c.0432713193,0,.075119123.0108178298.0961561397.0312491608.0204313309.0192340451.0312562036.0528918633.0312562036.1009664117v.9231214786c0,.2229698402.0624983215.3954564745.1875090503.5168542171.1262080147.1220034285.2944830199.1826987784.5048320586.1826987784.2115463246,0,.3996540178-.0727175085.5649287656-.2187582111.0204313309-.0192340451.0366580757-.0288475462.0480815913-.0288475462.010810787,0,.0216356597.0060075578.0312491608.0168253877.004810272.0084162153.0102191869.0168324305.0168253877.0264459316.0078175723.0096135011.0156281018.0180297164.0240443171.0240372742.1057696408.1202004568.2307803696.1802971638.3750181007.1802971638.0943531681,0,.1418290736-.0234386313.1418290736-.0697102081,0-.0288475462-.0186283593-.0432713193-.055286435-.0432713193Z"/>
        <path class="cls-1" d="M39.8437997972,24.6627152205l-.0985577543-.0072118866c-.0480815913-.004810272-.0901556248-.019832688-.1250107288-.0456729339-.035453747-.0252416029-.0528848204-.0601037498-.0528848204-.1033750691v-.9231214786c0-.2259700977-.0613010357-.3990553749-.1826987784-.5192558317-.1220034285-.1201934139-.2968916773-.1802971638-.5240661037-.1802971638-.2259700977,0-.4098732047.088951296-.5505049925.2668398024-.0144237731.0144237731-.0264459316.0216356596-.0360594328.0216356596-.0084162153,0-.0120221585-.0054089149-.0120221585-.0168253877v-.1875090503c0-.0558921208-.0192340451-.0841410241-.0576950924-.0841410241h-.0072118866l-.4735828978.0601037498c-.0324534895.0048032291-.0480745484.0234386313-.0480745484.055286435,0,.0306505179.015621059.0456799767.0480745484.0456799767h.1226020714c.0462786197,0,.0799364379.0096135011.1009664117.0288475462.0204313309.0180297164.0312562036.0504832059.0312562036.0985577543v1.3341990121c0,.0432713193-.0162267447.0781334662-.0480815913.1033750691-.0324534895.0258402459-.0721188655.0408626619-.1202004568.0456729339l-.1009664117.0072118866c-.0306505178.0036059433-.0456729339.0210370167-.0456729339.0528848204,0,.0306505178.0180297164.0456799767.0552934778.0456799767l.3942451029-.0144237731.3461705545.0144237731c.0366580757,0,.0552934778-.0150294589.0552934778-.0456799767,0-.0318478037-.0156281018-.0492788772-.0456729339-.0528848204l-.0601037498-.0072118866c-.0979591114-.0108178298-.1466393456-.0607023928-.1466393456-.149048003v-.901485819c0-.1183904423.0528848204-.2385908991.1586615041-.3605943276.1057766837-.1232007143.2331819842-.1851003929.3822299872-.1851003929s.2656354737.0420669906.3509808265.1250036859c.084739667.0817323666.1274053005.1983268802.1274053005.348572169v.9736046845c0,.0853453528-.0450742909.1346242299-.1346171871.149048003l-.0456799767.0072118866c-.0306505178.0036059433-.0456729339.0210370167-.0456729339.0528848204,0,.0306505178.0180297164.0456799767.0552934778.0456799767l.3317467814-.0144237731.3894418738.0144237731c.0366580757,0,.055286435-.0150294589.055286435-.0456799767,0-.0318478037-.0144237731-.0492788772-.0432713193-.0528848204Z"/>
        <path class="cls-1" d="M40.8007692512,24.6627152205l-.0601037498-.0072118866c-.0979591114-.0108178298-.1466393456-.0607023928-.1466393456-.149048003v-1.5385334501c0-.0607023928-.0216356597-.0889442532-.064906979-.0841410241l-.4735828978.0601037498c-.0324534895.0048032291-.0480745484.0234386313-.0480745484.055286435,0,.0306505179.015621059.0456799767.0480745484.0456799767h.1226020714c.0462786197,0,.0799364379.0096135011.1009664117.0288475462.0204313309.0180297164.0312562036.0504832059.0312562036.0985577543v1.3341990121c0,.0432713193-.0162267447.0781334662-.0480815913.1033750691-.0324534895.0258402459-.0721188655.0408626619-.1202004568.0456729339l-.1009664117.0072118866c-.0306505178.0036059433-.0456729339.0210370167-.0456729339.0528848204,0,.0306505178.0180297164.0456799767.0552934778.0456799767l.3942451029-.0144237731.3461705545.0144237731c.0366580757,0,.0552934778-.0150294589.0552934778-.0456799767,0-.0318478037-.0156281018-.0492788772-.0456729339-.0528848204Z"/>
        <path class="cls-1" d="M40.418539264,22.3813574556c.0480745484,0,.0889442532-.0150294589.1226020714-.0456799767.034855104-.0318478037.0528848204-.0721188655.0528848204-.1201934139,0-.04928592-.0180297164-.089549939-.0528848204-.1202004568-.0336578182-.0318548465-.0745275229-.0480815913-.1226020714-.0480815913-.0480815913,0-.088951296.0162267447-.1226020714.0480815913-.0324534895.0306505179-.0480815913.0709145368-.0480815913.1202004568,0,.0480745484.0156281018.0883456102.0480815913.1201934139.0336507753.0306505178.0745204801.0456799767.1226020714.0456799767Z"/>
        <path class="cls-1" d="M42.6482940086,24.4728045556c-.0144237731,0-.0300518749.0066062008-.0456729339.0192270022-.1153901848.0721188655-.2638325021.1081782983-.4447353516.1081782983-.1796985209,0-.338360025-.0685129222-.4759845124-.2067360526-.1382231303-.1376315303-.2067360526-.3467762403-.2067360526-.62743413,0-.2223711973.0564907637-.4014640323.1706766198-.5360882622.1153901848-.1358215158.2632338591-.204334438.4447353516-.204334438.1262080147,0,.2307803697.039665376.3125127363.1177917994.0829366953.0769291375.1430334023.1827058212.1802971638.3173230083.009620544.0420740334.0288475462.0625053644.0576950924.0625053644.034855104,0,.0528918633-.020431331.0528918633-.0625053644v-.3173230083c0-.0624983215-.0601037498-.1207990997-.1802971638-.1754868918-.1189961281-.0558921208-.2668398024-.0841410241-.4447353516-.0841410241-.2566276584,0-.4729842549.0907542677-.6490697896.2716500744-.1766912205.1815014925-.2644381878.3966537603-.2644381878.6466681751,0,.3191259799.0877469673.5637244369.2644381878.7332037708.1760855347.1682820481.3954494316.2524160293.6586832908.2524160293.2644381878,0,.462765068-.0673085935.5961849692-.2019328234.0192340451-.0192270022.0288475462-.0372567186.0288475462-.055286435,0-.0192340451-.0060075578-.0336578182-.0168253877-.0432713193-.0114235156-.009620544-.0240443171-.0144237731-.0384680902-.0144237731Z"/>
        <path class="cls-1" d="M44.6598610135,24.6819492656c-.0673085935,0-.1262080147-.0240443171-.1754868918-.0721188655-.0498845629-.04928592-.0745275229-.1129885703-.0745275229-.1899177078v-.9736046845c0-.164669062-.0492788771-.2992932919-.1466393456-.4038656469-.0979591114-.1057696409-.2668398024-.1586615041-.5072336732-.1586615041-.2404009136,0-.4249026636.0498845629-.5529136499.149048003-.0276502604.0210370167-.0408697047.0516875346-.0408697047.0913529106v.2740516889c0,.0372567186.0156281018.055286435.0480815913.055286435.0336578182,0,.0540891491-.0180297164.0625053644-.055286435.0240372742-.1214047855.079929395-.2163565965.1682750053-.2836722329.0895428961-.0685129222.188713379-.1033680263.2980889632-.1033680263.1105869557,0,.1995312089.0300518749.2668398024.0889442532.0673156364.0576950924.1009664117.1364272016.1009664117.2355906416v.3365570534c0,.0306505178-.0162267447.0474759055-.0480745484.0504832059-.0240443171.0048032291-.0697172509.0138180873-.1370258445.0264388888-.2854752046.0432713193-.4946199146.1033750691-.62743413.1802971638-.1508509747.0913529106-.2259771405.2229698402-.2259771405.3942521458,0,.1364272016.0516875346.2476057573.1562598896.3341483959.1039737121.0865426386.2259700977.1298139579.3654045996.1298139579.1953195798,0,.3726094433-.0606953499.5312709474-.1826987784.0174310735-.0144237731.0300518749-.0216356596.0384680902-.0216356596.0078105295,0,.0204313309.0084162153.0384610473.0240372742.1039737121.1202004568.2313790126.1802971638.3822299872.1802971638.0877469673,0,.1322155725-.0204313309.1322155725-.060096707,0-.0300518749-.0180297164-.0456729339-.0528848204-.0456729339ZM44.0997354771,24.3886635315c0,.0162267447-.0144237731.040264019-.0432713193.0721188655-.0276432175.0306505179-.0721188655.0618996786-.1346171871.0937545252-.0613010357.0306505179-.1322226154.0456729339-.213954982.0456729339s-.1556612466-.0276432175-.2211668685-.0841339812c-.0661113077-.0576950924-.0985577543-.1358285586-.0985577543-.2355906416,0-.2127506533.2175538824-.3467691974.6538730188-.4014640323h.009620544c.0318478037,0,.0480745484.0186354022.0480745484.0552934778v.4543488528Z"/>
        <path class="cls-1" d="M46.0242175434,24.5329012625l-.1177917994.0432713193c-.0769291375.0288475462-.1556542038.0432713193-.2355906416.0432713193-.1778885064,0-.2668398024-.1141858561-.2668398024-.3437689399v-1.1298575312c0-.0252416029.009620544-.0384680902.0288475462-.0384680902h.5529136499c.0252416029,0,.0408697047-.0144237731.0456729339-.0432713193l.009620544-.0961561397c.0078105295-.0288475462-.004810272-.0432713193-.0384680902-.0432713193h-.5432931059c-.0306505178,0-.0492788771-.0156281018-.0552934778-.0480815913l-.120193414-.5120439452c-.0132264872-.0366580757-.0360594328-.055286435-.0697172509-.055286435-.0432713193,0-.0667099506.0234386313-.069717251.0697102081l-.0312491608.5048320586c0,.0276502604-.0114164728.0408697047-.0336578182.0408697047h-.2187582111c-.0240372742,0-.0384610473.0144237731-.0432713193.0432713193l-.0120221585.0961561397c-.0018029716.0114235156.0024086574.0216356597.0120221585.0312562036.0096135011.0084091724.019832688.0120151157.0312491608.0120151157h.2235684831c.0318548466,0,.0480815913.0132264872.0480815913.0384680902v1.0937980984c0,.1971295943.0372637615.338360025.1129885703.423099692.0769220946.0835353383.204334438.1250036859.3822299872.1250036859.0991634401,0,.1977211944-.0246359172.2956873486-.0721188655.0991634401-.0492788772.1490409602-.0973604684.1490409602-.144237731,0-.0252416029-.0120151157-.0384610473-.0360594328-.0384610473Z"/>
        <path class="cls-1" d="M46.5583478911,22.3813574556c.0480745484,0,.0889442532-.0150294589.1226020714-.0456799767.034855104-.0318478037.0528848204-.0721188655.0528848204-.1201934139,0-.04928592-.0180297164-.089549939-.0528848204-.1202004568-.0336578182-.0318548465-.0745275229-.0480815913-.1226020714-.0480815913-.0480815913,0-.088951296.0162267447-.1226020714.0480815913-.0324534895.0306505179-.0480815913.0709145368-.0480815913.1202004568,0,.0480745484.0156281018.0883456102.0480815913.1201934139.0336507753.0306505178.0745204801.0456799767.1226020714.0456799767Z"/>
        <path class="cls-1" d="M46.9405778783,24.6627152205l-.0601037498-.0072118866c-.0979591114-.0108178298-.1466393456-.0607023928-.1466393456-.149048003v-1.5385334501c0-.0607023928-.0216356597-.0889442532-.064906979-.0841410241l-.4735828978.0601037498c-.0324534895.0048032291-.0480745484.0234386313-.0480745484.055286435,0,.0306505179.015621059.0456799767.0480745484.0456799767h.1226020714c.0462786197,0,.0799364379.0096135011.1009664117.0288475462.0204313309.0180297164.0312562036.0504832059.0312562036.0985577543v1.3341990121c0,.0432713193-.0162267447.0781334662-.0480815913.1033750691-.0324534895.0258402459-.0721188655.0408626619-.1202004568.0456729339l-.1009664117.0072118866c-.0306505178.0036059433-.0456729339.0210370167-.0456729339.0528848204,0,.0306505178.0180297164.0456799767.0552934778.0456799767l.3942451029-.0144237731.3461705545.0144237731c.0366580757,0,.0552934778-.0150294589.0552934778-.0456799767,0-.0318478037-.0156281018-.0492788772-.0456729339-.0528848204Z"/>
        <path class="cls-1" d="M48.2207722555,22.8837808568c-.2776576322,0-.5012331582.088951296-.6707054493.2668398024-.1700850197.1778955492-.2548246867.4080772759-.2548246867.6899394944,0,.2806649326.0823380524.5090366448.2476128002.6851292224.1664720336.1748882489.3918434883.2620295304.6755086784.2620295304.2836722329,0,.507839359-.0865426386.6731141067-.2596279159.164669062-.1742825631.2476057573-.4044642898.2476057573-.6899324515,0-.2848695188-.0835353383-.5150512455-.2500144147-.6899394944-.1670706765-.1760925776-.3894418738-.2644381879-.6682967919-.2644381879ZM48.6655005643,24.4463586239c-.0979591114.1334199012-.2500073719.1995312089-.4567504673.1995312089-.1105799128,0-.2067430954-.0270445746-.2884754621-.0817394095-.0817323666-.0558921208-.1436390881-.1286096292-.1851074358-.2187582111-.0769220946-.1712823056-.1153901848-.3690105428-.1153901848-.5937763118,0-.2163565965.04928592-.3906462025.149048003-.5240661037.0991634401-.1346242299.2500144147-.2019328234.4519472382-.2019328234.1165874707,0,.2151522678.0282489033.2956873486.0841410241.0817323666.0546877921.1430334023.1274053005.1851003929.2187582111.0751261659.1682750052.1129885703.3629959422.1129885703.5841628107s-.0498845629.3990553749-.149048003.5336796048Z"/>
        <path class="cls-1" d="M51.5732008162,24.6627152205l-.0985577543-.0072118866c-.0480815913-.004810272-.0901556248-.019832688-.1250107288-.0456729339-.035453747-.0252416029-.0528848204-.0601037498-.0528848204-.1033750691v-.9231214786c0-.2259700977-.0613010357-.3990553749-.1826987784-.5192558317-.1220034284-.1201934139-.2968916773-.1802971638-.5240661037-.1802971638-.2259700977,0-.4098732047.088951296-.5505049925.2668398024-.0144237731.0144237731-.0264459316.0216356596-.0360594328.0216356596-.0084162153,0-.0120221585-.0054089149-.0120221585-.0168253877v-.1875090503c0-.0558921208-.0192340451-.0841410241-.0576950924-.0841410241h-.0072118866l-.4735828978.0601037498c-.0324534895.0048032291-.0480745484.0234386313-.0480745484.055286435,0,.0306505179.015621059.0456799767.0480745484.0456799767h.1226020714c.0462786197,0,.0799364379.0096135011.1009664117.0288475462.0204313309.0180297164.0312562036.0504832059.0312562036.0985577543v1.3341990121c0,.0432713193-.0162267447.0781334662-.0480815913.1033750691-.0324534895.0258402459-.0721188655.0408626619-.1202004568.0456729339l-.1009664117.0072118866c-.0306505178.0036059433-.0456729339.0210370167-.0456729339.0528848204,0,.0306505178.0180297164.0456799767.0552934778.0456799767l.3942451029-.0144237731.3461705545.0144237731c.0366580757,0,.0552934778-.0150294589.0552934778-.0456799767,0-.0318478037-.0156281018-.0492788772-.0456729339-.0528848204l-.0601037498-.0072118866c-.0979591114-.0108178298-.1466393456-.0607023928-.1466393456-.149048003v-.901485819c0-.1183904423.0528848204-.2385908991.1586615041-.3605943276.1057766837-.1232007143.2331819842-.1851003929.3822299872-.1851003929s.2656354737.0420669906.3509808265.1250036859c.084739667.0817323666.1274053005.1983268802.1274053005.348572169v.9736046845c0,.0853453528-.0450742909.1346242299-.1346171871.149048003l-.0456799767.0072118866c-.0306505178.0036059433-.0456729339.0210370167-.0456729339.0528848204,0,.0306505178.0180297164.0456799767.0552934778.0456799767l.3317467814-.0144237731.3894418738.0144237731c.0366580757,0,.055286435-.0150294589.055286435-.0456799767,0-.0318478037-.0144237731-.0492788772-.0432713193-.0528848204Z"/>
        <path class="cls-1" d="M52.998942896,23.9944113857c-.0673085935-.0817323666-.1484423172-.1472379885-.2428025282-.1971225514-.094951811-.0492788772-.1899106649-.0967618255-.2860668046-.1418361165-.0961631826-.0444686052-.1778955492-.0973604684-.2452041428-.1586615041-.0661113077-.0606953499-.0985647972-.1304126008-.0985647972-.20914471,0-.0781264234.0324534895-.1418290736.0985647972-.1899106649.0655056219-.0480815913.1454350169-.0721188655.2403938708-.0721188655.2079403813,0,.3449662258.1129885703.4110775334.3389586679.0096135011.045074291.0312491608.0673085935.064906979.0673085935.034855104,0,.0528848204-.0222343026.0528848204-.0673085935v-.2788619609c0-.0492788772-.0522861775-.094951811-.1562528467-.1370258445-.104572355-.0432713193-.2199625398-.064906979-.3461705545-.064906979-.1911149936,0-.343170297.04928592-.4567575102.1466463885-.1141858561.0979591114-.1706766198.2205611827-.1706766198.3678062141,0,.099762083.0324534895.1875090503.0985577543.264431145.0655126647.0769291375.1448434168.1394345019.2379922562.1875090503.094360211.0480815913.1881147361.0949588539.2812635755.1394345019.0925572393.0432713193.1718879914.094951811.2379922562.1538512321.0655126647.059498064.0985647972.1310182866.0985647972.213954982,0,.0817323666-.0354607898.1508439318-.1057766837.2067360526-.0709145368.0546948349-.1604644758.0817394095-.269241417.0817394095-.2403938708,0-.398456732-.1256093717-.4735828978-.3774267581-.0132194444-.0432713193-.0360594328-.064906979-.0697102081-.064906979-.0324534895,0-.0480815913.0216356597-.0480815913.064906979v.3173230083c0,.0516875346.0582937353.0979661542.1754868918.1394345019.1165945135.0414683477.2632338591.0624983215.4399250796.0624983215.1760925776,0,.3251405806-.0462715768.4471369662-.139427459.1232077572-.0943531681.1851074358-.2187582111.1851074358-.3726164861,0-.1057696408-.0336578182-.199524166-.1009664117-.2812635755Z"/>
      </g>
      <g>
        <path class="cls-1" d="M10.2554857906,28.7492419949h.2884754621v.1851074358c-.0739218372.0516875346-.1634647333.0769291375-.269241417.0769291375-.0576950924,0-.1105799128-.009620544-.1586615041-.0288475462-.0480815913-.0204383738-.0901485819-.04928592-.1250036859-.0865426386-.0354607898-.0384680902-.0625053644-.0823380524-.0817394095-.1322226154-.0192270022-.0492788771-.0288475462-.1039666692-.0288475462-.1634647333v-.004810272c0-.0540891491.009620544-.1057766837.0288475462-.1538512321.0192340451-.04928592.0456799767-.0925572393.0793307521-.1298139579.0348621469-.0366651185.0751261659-.0655126647.1202004568-.0865426386.044475648-.0222413455.0925501965-.0336578182.144237731-.0336578182.0384610473,0,.0727175084.0036059433.1033680263.0096135011.0300518749.0066132436.0583007782.0156281018.0841410241.0264459316.0270445746.0114164728.0528848204.0252416029.0769291375.0408697047.0252416029.0162267447.0510818488.034855104.0769220946.055286435l.1802971638-.2187582111c-.0336507753-.0270445746-.0691115652-.0516875346-.1057696409-.0745204801-.0354607898-.0222413454-.0739218372-.0408697048-.1153901848-.0552934779-.0402710618-.0156281018-.0841410241-.0276432175-.1322226154-.0360594328-.0468772626-.0078105295-.099762083-.0120221585-.1586615041-.0120221585-.099762083,0-.1911149936.0180297164-.274051689.0528918633-.0817323666.035453747-.1532525892.0841339812-.2139479391.1466393456-.0613010357.0613010357-.1081782983.1322155725-.1418361165.213954982-.0336578182.0805280379-.0504832059.1670706765-.0504832059.2596279159v.0024016146c0,.0979591114.0168253877.1875090503.0504832059.269241417.0336578182.0805350808.079929395.1508509747.139427459.2115533674.0588994211.059498064.1304196437.1057696408.213954982.139427459.084739667.0318548466.1778955492.0480815913.2788619609.0480815913.1183904423,0,.2235684831-.0204383738.3149143508-.0601037498.0925572393-.039665376.1730852772-.0877399245.2404009136-.144237731v-.5649287656h-.5649358084v.2476057573Z"/>
        <polygon class="cls-1" points="11.6599020966 27.9511312451 11.3738282491 27.9511312451 11.3738282491 29.2492708244 12.3065702716 29.2492708244 12.3065702716 28.9896429085 11.6599020966 28.9896429085 11.6599020966 27.9511312451"/>
        <path class="cls-1" d="M13.8545129799,28.1242165223c-.0613010357-.0607023928-.134025587-.1087839841-.2187582111-.144237731-.0835423811-.0348621469-.1748952917-.0528918633-.274051689-.0528918633-.1009664117,0-.194122294.0180297164-.2788619609.0528918633-.0835353383.035453747-.1562598896.0841339812-.2187582111.1466393456-.0613080785.0613010357-.109382627.1322155725-.144237731.213954982-.0336578182.0805280379-.0504832059.1670706765-.0504832059.2596279159v.0024016146c0,.0931558822.0168253877.1802971638.0504832059.2620295304.0336507753.0805350808.0805280379.1508509747.1418290736.2115533674.0625053644.059498064.1352228728.1069739696.218765254.1418290736.084739667.0348621469.1766912205.0528918633.2764533035.0528918633.1009664117,0,.1935166082-.0180297164.2788619609-.0528918633.0847326241-.034855104.1574571754-.0829366953.2187582111-.144237731.0607023928-.0606953499.1081782983-.1310112438.1418361165-.2115463246.034855104-.0817323666.0528848204-.168880691.0528848204-.2620295304v-.004810272c0-.0925501965-.0168253877-.1790928351-.0504832059-.2596279159-.0336578182-.0817323666-.0817323666-.1520482605-.144237731-.2115463246ZM13.7511449536,28.6026026493c0,.0564907637-.009620544.109382627-.0288475462.1586615041-.0192340451.0480815913-.0456799767.0907472248-.0793307521.1274123434-.0336578182.0372567186-.0757318516.0667099506-.1250107288.0889442532-.0480745484.0210370167-.1003677688.0312491608-.1562528467.0312491608-.0576950924,0-.1105869557-.010212144-.1586615041-.0312491608-.0480815913-.0222343026-.0901485819-.0516875346-.1250107288-.0889442532-.035453747-.0384680902-.0624983215-.0817394095-.0817323666-.1298139579-.0192340451-.04928592-.0288475462-.1021707404-.0288475462-.1586615041v-.004810272c0-.0540891491.0096135011-.1057766837.0288475462-.1538512321.0192340451-.04928592.0456729339-.0925572393.0793307521-.1298139579.034855104-.0384680902.0757248088-.0679142793.1226020714-.088951296.0480815913-.0204313309.1009664117-.0312491608.1586615041-.0312491608s.1105799128.0114164727.1586615041.0336578182c.0480815913.0210299739.0895428961.0498775201.1250036859.0865426386.0348621469.0372567186.0625053644.0805280379.0817394095.1298139579.0192270022.0498775201.0288475462.1027693834.0288475462.1586615041v.0024016146Z"/>
        <path class="cls-1" d="M15.4439451645,28.5689448311c.0240372742-.0108178298.0456729339-.0252416029.064906979-.0432713193.0204313309-.0174240306.0390667331-.0372567186.0552934778-.060096707.015621059-.0222343026.0276432175-.0480815913.0360594328-.0769291375.0096135011-.0288475462.0144237731-.0613010357.0144237731-.0985577543v-.004810272c0-.0865426386-.0300518749-.1598658328-.088951296-.2211668685-.0769220946-.075119123-.1899106649-.1129815274-.3389586679-.1129815274h-.6033898129v1.2981395793h.617813586c.0721188655,0,.1376315303-.0072118866.1971295943-.0216356597.0606953499-.0156281018.1129815274-.0384680902.1562528467-.0673156364.0432713193-.0300448321.0757248088-.0673085935.0985647972-.1105799128.0222343026-.044475648.0336578182-.0967618255.0336578182-.1562598896v-.0048032291c0-.0865426386-.0216356597-.153858275-.064906979-.2019328234-.0432713193-.04928592-.1027693834-.0889512961-.1778955492-.1177988422ZM14.8621839683,28.201138617h.2812635755c.0607023928,0,.1069810124.0114235156.1394345019.0336578182.0318478037.0228399884.0480745484.0552934778.0480745484.0985647972v.0048032291c0,.0480815913-.0186283593.0835423811-.055286435.1057766837-.0372637615.0210370167-.0877469673.0312491608-.1514496176.0312491608h-.2620365733v-.274051689ZM15.4030754597,28.8574202932c0,.0480815913-.0186283593.0841410241-.055286435.1081782983-.0354607898.0228399884-.0841410241.0336578182-.1466463885.0336578182h-.3389586679v-.2860738475h.3293451668c.0733231942,0,.1274123434.0132264872.1610631187.0384680902.0336578182.0258402459.0504832059.060096707.0504832059.1033680263v.0024016146Z"/>
        <path class="cls-1" d="M16.6467314898,27.9415107011l-.5553152645,1.3077601233h.2908770766l.1177917994-.2908841195h.5505120353l.1177917994.2908841195h.2980889632l-.5553152645-1.3077601233h-.264431145ZM16.6034601705,28.7059706756l.1706766198-.4206910346.1730852772.4206910346h-.3437618971Z"/>
        <polygon class="cls-1" points="18.2329662168 27.9511312451 17.9468923693 27.9511312451 17.9468923693 29.2492708244 18.879627349 29.2492708244 18.879627349 28.9896429085 18.2329662168 28.9896429085 18.2329662168 27.9511312451"/>
        <path class="cls-1" d="M21.0414607715,28.6074129213c-.0354607898-.0300518749-.0787321091-.0558921208-.1298139579-.0769291375-.0516875346-.0222343026-.1099812699-.0414683477-.1754939347-.0576950924-.0564907637-.0156281018-.1027693834-.0294461891-.139427459-.0408697047-.0354607898-.0108178298-.0637026503-.0222343026-.0841410241-.0336507753-.0210299739-.0126208015-.035453747-.0264459316-.0432713193-.0408697047-.0084091724-.0156281018-.0120151157-.0342564611-.0120151157-.0552934778v-.0048032291c0-.0318548466.0132194444-.0583007782.0408626619-.0793307521.0270445746-.0222413454.0685129222-.0336578182.1250107288-.0336578182.0558921208,0,.1111785558.0114164727.1658733907.0336578182.0558921208.0228329455.1135872132.0540891491.1730852772.0937545252l.1466393456-.213954982c-.0661113077-.0540891491-.1388288161-.0949588539-.2187582111-.1226020714-.0805350808-.0288475462-.1676763623-.0432713193-.2620365733-.0432713193-.0673085935,0-.1292082721.0096135011-.1851003929.0288475462-.0564978066.0180297164-.104572355.044475648-.144237731.0793307521-.0402710618.0336578182-.0715202226.0745204801-.0937545252.1226020714-.0228399884.0480815913-.0336578182.1021707404-.0336578182.1610631187v.0024086574c0,.0643012932.0102191869.1177917994.0312491608.1610631187.0204383738.0432713193.04928592.0805350808.0865426386.1105799128.0366651185.0288475462.0817394095.0528918633.1346242299.0721188655.0540891491.0192340451.1141858561.0378624044.1802971638.0552934778.0528848204.0132194444.0961561397.0258402458.1298139579.0384610473.034855104.0114235156.0625053644.0234386313.0817323666.0360594328.0192340451.0132264872.0318548466.0264459316.0384680902.0408697047.0060075578.0144237731.0096135011.0306505179.0096135011.0480815913v.0048032291c0,.0384680902-.0168253877.069118608-.0504832059.0913529106-.0324534895.0210370167-.0781264234.0312491608-.1370258445.0312491608-.0739218372,0-.1418361165-.0144237731-.204334438-.0432713193-.0625053644-.0288475462-.1238064001-.0673085935-.1827058212-.1153901848l-.1682750052.2019328234c.0769291375.0709215797.1622674474.1238064001.2572263013.1586615041.0961561397.0330591753.1935166082.0504832059.2932786912.0504832059.0703158939,0,.1346242299-.0090148582.1923193223-.0264388888.0588994211-.0192340451.109382627-.0456799767.1514496176-.0793307521.0414683477-.0336578182.0733231942-.0751261659.0961561397-.1250107288.0240443171-.0510818488.0360594328-.1087769412.0360594328-.1730852772v-.0024016146c0-.0576950924-.0090148582-.1063753266-.0264388888-.1466393456-.0180297164-.0414683477-.044475648-.0775277804-.0793307521-.1081782983Z"/>
        <path class="cls-1" d="M22.8035979189,28.1242165223c-.0613010357-.0607023928-.1340185441-.1087839841-.2187582111-.144237731-.0835423811-.0348621469-.1748882489-.0528918633-.274051689-.0528918633-.1009664117,0-.194122294.0180297164-.2788619609.0528918633-.0835353383.035453747-.1562598896.0841339812-.2187582111.1466393456-.0613010357.0613010357-.109382627.1322155725-.144237731.213954982-.0336578182.0805280379-.0504832059.1670706765-.0504832059.2596279159v.0024016146c0,.0931558822.0168253877.1802971638.0504832059.2620295304.0336507753.0805350808.0805280379.1508509747.1418290736.2115533674.0625053644.059498064.1352228728.1069739696.218765254.1418290736.084739667.0348621469.1766912205.0528918633.2764533035.0528918633.1009664117,0,.1935166082-.0180297164.2788619609-.0528918633.084739667-.034855104.1574571754-.0829366953.2187582111-.144237731.0607023928-.0606953499.1081782983-.1310112438.1418361165-.2115463246.034855104-.0817323666.0528848204-.168880691.0528848204-.2620295304v-.004810272c0-.0925501965-.0168253877-.1790928351-.0504832059-.2596279159-.0336578182-.0817323666-.0817323666-.1520482605-.144237731-.2115463246ZM22.7002298926,28.6026026493c0,.0564907637-.009620544.109382627-.0288475462.1586615041-.0192340451.0480815913-.0456799767.0907472248-.0793307521.1274123434-.0336578182.0372567186-.0757248088.0667099506-.1250107288.0889442532-.0480745484.0210370167-.1003607259.0312491608-.1562528467.0312491608-.0576950924,0-.1105869557-.010212144-.1586615041-.0312491608-.0480815913-.0222343026-.0901485819-.0516875346-.1250107288-.0889442532-.035453747-.0384680902-.0624983215-.0817394095-.0817323666-.1298139579-.0192340451-.04928592-.0288475462-.1021707404-.0288475462-.1586615041v-.004810272c0-.0540891491.0096135011-.1057766837.0288475462-.1538512321.0192340451-.04928592.0456729339-.0925572393.0793307521-.1298139579.034855104-.0384680902.0757248088-.0679142793.1226020714-.088951296.0480815913-.0204313309.1009664117-.0312491608.1586615041-.0312491608s.1105799128.0114164727.1586615041.0336578182c.0480815913.0210299739.089549939.0498775201.1250036859.0865426386.0348621469.0372567186.0625053644.0805280379.0817394095.1298139579.0192270022.0498775201.0288475462.1027693834.0288475462.1586615041v.0024016146Z"/>
        <path class="cls-1" d="M24.3569706707,28.6939555599c0,.104572355-.0252416029.1826987783-.0745204801.2355835988-.0480815913.0516875346-.1165945135.0769291375-.2043414809.0769291375-.0883456103,0-.1574571754-.0264459317-.2067360526-.0793307521-.0498845629-.0540891491-.0745275229-.1352228728-.0745275229-.2428025282v-.7332037708h-.2860668046v.7404156574c0,.1923193223.0492788772.3365570534.1490409602.4327131931.1009664117.0961631826.238597942.144237731.4134861909.144237731.0865426386,0,.164669062-.0126208015.2355835988-.0360594328.0703158939-.0240372742.1304196437-.060096707.1802971638-.1081782983.04928592-.0492788771.0871483244-.1105799128.1129885703-.1826987784.0270445746-.0733231942.0408697047-.1592601471.0408697047-.2572263013v-.7332037708h-.2860738475v.7428243148Z"/>
        <polygon class="cls-1" points="26.0868374429 28.7492419949 25.4762287006 27.9511312451 25.2141991702 27.9511312451 25.2141991702 29.2492708244 25.4954627457 29.2492708244 25.4954627457 28.4223054855 26.1252984903 29.2492708244 26.3681010184 29.2492708244 26.3681010184 27.9511312451 26.0868374429 27.9511312451 26.0868374429 28.7492419949"/>
        <path class="cls-1" d="M27.9639492466,28.136231638c-.0613010357-.0576950924-.134025587-.1021636976-.2187582111-.1346171871-.0853453528-.0336578182-.1778955492-.0504832059-.2788619609-.0504832059h-.5072336732v1.2981395793h.5072336732c.1009664117,0,.1935166082-.0168324305.2788619609-.0504832059.0847326241-.0336578182.1574571754-.0793307521.2187582111-.1370258445.0606953499-.0576950924.1081782983-.1256093717.1418361165-.2043414809.0336507753-.079929395.0504832059-.1658733907.0504832059-.2572192584v-.004810272c0-.0913529106-.0168324305-.1760925776-.0504832059-.2548176439-.0336578182-.0781334662-.0811407666-.1466463884-.1418361165-.2043414809ZM27.8557709483,28.6026026493c0,.0594980641-.0096135011.1123828845-.0288475462.1586615041-.0180297164.0468772626-.044475648.0877469673-.0793307521.1226020714-.0336578182.0354607898-.0745204801.0625053644-.1226020714.0817323666-.0480815913.0180297164-.1009664117.0264459316-.1586615041.0264459316h-.2211668685v-.7836940196h.2211668685c.0576950924,0,.1105799128.009620544.1586615041.0288475462.0480815913.0192340451.0889442532.0468772626.1226020714.0817394095.034855104.0336507753.0613010357.0745204801.0793307521.1226020714.0192340451.0480745484.0288475462.1009664117.0288475462.1586615041v.0024016146Z"/>
        <polygon class="cls-1" points="29.810530261 27.9511312451 29.5244634563 27.9511312451 29.5244634563 29.2492708244 30.457198436 29.2492708244 30.457198436 28.9896429085 29.810530261 28.9896429085 29.810530261 27.9511312451"/>
        <path class="cls-1" d="M32.0051411443,28.1242165223c-.0613010357-.0607023928-.134025587-.1087839841-.2187582111-.144237731-.0835423811-.0348621469-.1748952917-.0528918633-.274051689-.0528918633-.1009664117,0-.194122294.0180297164-.2788619609.0528918633-.0835353383.035453747-.1562598896.0841339812-.2187582111.1466393456-.0613080785.0613010357-.109382627.1322155725-.144237731.213954982-.0336578182.0805280379-.0504832059.1670706765-.0504832059.2596279159v.0024016146c0,.0931558822.0168253877.1802971638.0504832059.2620295304.0336507753.0805350808.0805280379.1508509747.1418290736.2115533674.0625053644.059498064.1352228728.1069739696.218765254.1418290736.084739667.0348621469.1766912205.0528918633.2764533035.0528918633.1009664117,0,.1935166082-.0180297164.2788619609-.0528918633.0847326241-.034855104.1574571754-.0829366953.2187582111-.144237731.0607023928-.0606953499.1081782983-.1310112438.1418361165-.2115463246.034855104-.0817323666.0528848204-.168880691.0528848204-.2620295304v-.004810272c0-.0925501965-.0168253877-.1790928351-.0504832059-.2596279159-.0336578182-.0817323666-.0817323666-.1520482605-.144237731-.2115463246ZM31.901773118,28.6026026493c0,.0564907637-.009620544.109382627-.0288475462.1586615041-.0192340451.0480815913-.0456799767.0907472248-.0793307521.1274123434-.0336578182.0372567186-.0757318517.0667099506-.1250107288.0889442532-.0480745484.0210370167-.1003677688.0312491608-.1562528467.0312491608-.0576950924,0-.1105869557-.010212144-.1586615041-.0312491608-.0480815913-.0222343026-.0901485819-.0516875346-.1250107288-.0889442532-.035453747-.0384680902-.0624983215-.0817394095-.0817323666-.1298139579-.0192340451-.04928592-.0288475462-.1021707404-.0288475462-.1586615041v-.004810272c0-.0540891491.0096135011-.1057766837.0288475462-.1538512321.0192340451-.04928592.0456729339-.0925572393.0793307521-.1298139579.034855104-.0384680902.0757248088-.0679142793.1226020714-.088951296.0480815913-.0204313309.1009664117-.0312491608.1586615041-.0312491608s.1105799128.0114164727.1586615041.0336578182c.0480815913.0210299739.0895428961.0498775201.1250036859.0865426386.0348621469.0372567186.0625053644.0805280379.0817394095.1298139579.0192270022.0498775201.0288475462.1027693834.0288475462.1586615041v.0024016146Z"/>
        <path class="cls-1" d="M33.539279851,28.9680072489c-.0516875346.0276432175-.1141858561.0408626619-.1875090503.0408626619-.0564907637,0-.1075796553-.010212144-.1538512322-.0312491608-.0468772626-.0222343026-.0865426386-.0516875346-.1202004568-.0889442532-.0324534895-.0384680902-.0576950924-.0817394095-.0769220946-.1298139579-.0180367592-.04928592-.0264459316-.1021707404-.0264459316-.1586615041v-.004810272c0-.0540891491.0084091724-.1057766837.0264459316-.1538512321.0192270022-.04928592.0456729339-.0925572393.0793307521-.1298139579.0336507753-.0384680902.0733161514-.0679142793.120193414-.088951296.0462786197-.0204313309.0967618255-.0312491608.1514496176-.0312491608.0655056219,0,.1238064001.0132194444.1754939347.0384610473.0528848204.0258472887.1045653121.0619067215.1562528467.1081782983l.1827058212-.20914471c-.0306505178-.0300448321-.0637096931-.0576950924-.0985647972-.0817323666-.0336578182-.0252416029-.0715202226-.0462786197-.1129885703-.0625053644-.040264019-.0174240306-.0853383099-.0312491608-.1346171871-.0408626619-.0498845629-.0108178298-.1051780408-.0168324305-.1658733907-.0168324305-.1009664117,0-.193523651.0180297164-.2764603464.0528918633-.0817323666.035453747-.1526539463.0841339812-.2115463246.1466393456-.0594980641.0613010357-.1057766837.1322155725-.139427459.213954982-.0336578182.0805280379-.0504832059.1670706765-.0504832059.2596279159v.0024016146c0,.0931558822.0168253877.1802971638.0504832059.2620295304.0336507753.0817394095.079929395.1532525892.139427459.213954982.0588923783.059498064.1298139579.1069739696.2115463246.1418361165.0817394095.0330521324.169479334.0504832059.2644381878.0504832059.0625053644,0,.1189961281-.0060146007.1706836627-.0168324305.0510818488-.0090148582.0973604684-.0240372742.139427459-.0432713193.0432713193-.0204313309.0823310096-.0456729339.1177917994-.0745204801.0366580757-.0288475462.0721188655-.0607023928.1057766837-.0961561397l-.1826987784-.1851074358c-.0516875346.0480815913-.1027764262.0859439957-.153858275.1129885703Z"/>
        <path class="cls-1" d="M34.8270593862,27.9415107011l-.5553152645,1.3077601233h.2908770766l.1177917994-.2908841195h.5505120353l.1177917994.2908841195h.2980889632l-.5553152645-1.3077601233h-.264431145ZM34.7837880669,28.7059706756l.1706766198-.4206910346.1730852772.4206910346h-.3437618971Z"/>
        <polygon class="cls-1" points="36.4132941133 27.9511312451 36.1272202658 27.9511312451 36.1272202658 29.2492708244 37.0599552455 29.2492708244 37.0599552455 28.9896429085 36.4132941133 28.9896429085 36.4132941133 27.9511312451"/>
        <path class="cls-1" d="M39.221781625,28.6074129213c-.035453747-.0300518749-.0787250663-.0558921208-.1298139579-.0769291375-.0516804917-.0222343026-.1099812699-.0414683477-.1754868918-.0576950924-.0564907637-.0156281018-.1027693834-.0294461891-.139427459-.0408697047-.0354607898-.0108178298-.0637096931-.0222343026-.0841410241-.0336507753-.0210370167-.0126208015-.0354607898-.0264459316-.0432713193-.0408697047-.0084162153-.0156281018-.0120221585-.0342564611-.0120221585-.0552934778v-.0048032291c0-.0318548466.0132264872-.0583007782.0408697047-.0793307521.0270445746-.0222413454.0685129222-.0336578182.1250036859-.0336578182.0558921208,0,.1111855986.0114164727.1658733907.0336578182.0558921208.0228329455.1135872132.0540891491.1730852772.0937545252l.1466463885-.213954982c-.0661113077-.0540891491-.1388288161-.0949588539-.218765254-.1226020714-.0805280379-.0288475462-.1676763623-.0432713193-.2620295304-.0432713193-.0673085935,0-.129215315.0096135011-.1851074358.0288475462-.0564907637.0180297164-.104572355.044475648-.144237731.0793307521-.040264019.0336578182-.0715131797.0745204801-.0937545252.1226020714-.0228329455.0480815913-.0336507753.1021707404-.0336507753.1610631187v.0024086574c0,.0643012932.010212144.1177917994.0312491608.1610631187.0204313309.0432713193.0492788772.0805350808.0865426386.1105799128.0366580757.0288475462.0817323666.0528918633.1346242299.0721188655.0540891491.0192340451.1141858561.0378624044.1802971638.0552934778.0528848204.0132194444.0961561397.0258402458.1298139579.0384610473.034855104.0114235156.0624983215.0234386313.0817323666.0360594328.0192340451.0132264872.0318548466.0264459316.0384610473.0408697047.0060146007.0144237731.009620544.0306505179.009620544.0480815913v.0048032291c0,.0384680902-.0168324305.069118608-.0504832059.0913529106-.0324534895.0210370167-.0781334662.0312491608-.1370258445.0312491608-.0739218372,0-.1418361165-.0144237731-.2043414809-.0432713193-.0624983215-.0288475462-.1237993572-.0673085935-.1826987784-.1153901848l-.1682750052.2019328234c.0769220946.0709215797.1622674474.1238064001.2572192584.1586615041.0961631826.0330591753.193523651.0504832059.293285734.0504832059.0703158939,0,.1346242299-.0090148582.1923193223-.0264388888.0588923783-.0192340451.1093755841-.0456799767.1514496176-.0793307521.0414683477-.0336578182.0733161514-.0751261659.0961561397-.1250107288.0240372742-.0510818488.0360594328-.1087769412.0360594328-.1730852772v-.0024016146c0-.0576950924-.0090148582-.1063753266-.0264459316-.1466393456-.0180297164-.0414683477-.0444686052-.0775277804-.0793307521-.1081782983Z"/>
        <path class="cls-1" d="M40.9839258153,28.1242165223c-.0613010357-.0607023928-.134025587-.1087839841-.2187582111-.144237731-.0835423811-.0348621469-.1748952917-.0528918633-.274051689-.0528918633-.1009664117,0-.194122294.0180297164-.2788619609.0528918633-.0835353383.035453747-.1562598896.0841339812-.2187582111.1466393456-.0613080785.0613010357-.109382627.1322155725-.144237731.213954982-.0336578182.0805280379-.0504832059.1670706765-.0504832059.2596279159v.0024016146c0,.0931558822.0168253877.1802971638.0504832059.2620295304.0336507753.0805350808.0805280379.1508509747.1418290736.2115533674.0625053644.059498064.1352228728.1069739696.218765254.1418290736.084739667.0348621469.1766912205.0528918633.2764533035.0528918633.1009664117,0,.1935166082-.0180297164.2788619609-.0528918633.0847326241-.034855104.1574571754-.0829366953.2187582111-.144237731.0607023928-.0606953499.1081782983-.1310112438.1418361165-.2115463246.034855104-.0817323666.0528848204-.168880691.0528848204-.2620295304v-.004810272c0-.0925501965-.0168253877-.1790928351-.0504832059-.2596279159-.0336578182-.0817323666-.0817323666-.1520482605-.144237731-.2115463246ZM40.880557789,28.6026026493c0,.0564907637-.009620544.109382627-.0288475462.1586615041-.0192340451.0480815913-.0456799767.0907472248-.0793307521.1274123434-.0336578182.0372567186-.0757318516.0667099506-.1250107288.0889442532-.0480745484.0210370167-.1003677688.0312491608-.1562528467.0312491608-.0576950924,0-.1105869557-.010212144-.1586615041-.0312491608-.0480815913-.0222343026-.0901485819-.0516875346-.1250107288-.0889442532-.035453747-.0384680902-.0624983215-.0817394095-.0817323666-.1298139579-.0192340451-.04928592-.0288475462-.1021707404-.0288475462-.1586615041v-.004810272c0-.0540891491.0096135011-.1057766837.0288475462-.1538512321.0192340451-.04928592.0456729339-.0925572393.0793307521-.1298139579.034855104-.0384680902.0757248088-.0679142793.1226020714-.088951296.0480815913-.0204313309.1009664117-.0312491608.1586615041-.0312491608s.1105799128.0114164727.1586615041.0336578182c.0480815913.0210299739.0895428961.0498775201.1250036859.0865426386.0348621469.0372567186.0625053644.0805280379.0817394095.1298139579.0192270022.0498775201.0288475462.1027693834.0288475462.1586615041v.0024016146Z"/>
        <path class="cls-1" d="M42.5372985671,28.6939555599c0,.104572355-.0252416029.1826987783-.0745204801.2355835988-.0480815913.0516875346-.1165945135.0769291375-.2043414809.0769291375-.0883456103,0-.1574571754-.0264459317-.2067360526-.0793307521-.0498845629-.0540891491-.0745275229-.1352228728-.0745275229-.2428025282v-.7332037708h-.2860668046v.7404156574c0,.1923193223.0492788771.3365570534.1490409602.4327131931.1009664117.0961631826.238597942.144237731.4134861909.144237731.0865426386,0,.164669062-.0126208015.2355835988-.0360594328.0703158939-.0240372742.1304126009-.060096707.1802971638-.1081782983.04928592-.0492788771.0871412815-.1105799128.1129885703-.1826987784.0270445746-.0733231942.0408697047-.1592601471.0408697047-.2572263013v-.7332037708h-.2860738475v.7428243148Z"/>
        <polygon class="cls-1" points="43.6805938713 28.9896429085 43.6805938713 27.9511312451 43.3945270666 27.9511312451 43.3945270666 29.2492708244 44.3272620463 29.2492708244 44.3272620463 28.9896429085 43.6805938713 28.9896429085"/>
      </g>
    </g>
  </g>
</svg>