<?xml version="1.0" encoding="UTF-8"?>
<svg id="Layer_2" data-name="Layer 2" xmlns="http://www.w3.org/2000/svg" viewBox="0 0 63.5793457031 20.4291992188">
  <defs>
    <style>
      .cls-1 {
        fill: #fff;
      }
    </style>
  </defs>
  <g id="Layer_1-2" data-name="Layer 1">
    <g>
      <path class="cls-1" d="M61.7219238281,1.9704589844c-.5640258789-.5874023438-1.2228393555-1.0588378906-1.9574584961-1.3994140625-.792175293-.3688964844-1.6422729492-.5571289062-2.5397338867-.5593261719l-4.9609375.0003662109c-1.0107421875.0008544922-1.9713134766.3590087891-2.706237793,1.0095214844-.1820678711.1624755859-.34765625.3405761719-.4947509766.5328369141l-.1151123047-.1411132812c-.768371582-.9248046875-1.836730957-1.4133300781-3.0892333984-1.4133300781-1.0587768555,0-1.9713745117.3266601562-2.6970214844.9891357422l-1.3973999023,1.2425537109c-.2068481445-.4125976562-.4829711914-.7874755859-.819152832-1.1064453125-.6324462891-.5981445312-1.4311523438-.9680175781-2.3109741211-1.0708007812-.1012573242-.0170898438-.2095947266-.0278320312-.4566040039-.0378417969-.1213989258-.0034179688-.2545166016-.0045166016-.4210205078-.0045166016-1.0825805664.0008544922-2.0942993164.4173583984-2.8486938477,1.1729736328-.0994262695.0999755859-.1934814453.2067871094-.2826538086.3216552734-.1578979492-.1966552734-.3352661133-.3773193359-.5309448242-.5413818359-.7380371094-.6198730469-1.6506347656-.9495849609-2.6416015625-.9532470703h-5.8438720703c-1.0402832031.0006103516-1.9993896484.2176513672-2.8511962891.6453857422-.7377319336.3715820312-1.3818359375.8481445312-1.9157714844,1.4167480469-.0838623047-.0903320312-.1676635742-.1746826172-.2518310547-.2541503906-.5987548828-.5654296875-1.2927246094-1.0107421875-2.0639648438-1.3247070312-.7885131836-.3204345703-1.6215209961-.4829101562-2.475769043-.4832763672l-4.6412963867.0003662109c-.852355957,0-1.6837768555.1618652344-2.4722900391.4816894531-.7496948242.3061523438-1.4199829102.7333984375-1.994140625,1.2717285156-.4784545898-.4073486328-1.0827026367-.6330566406-1.7244873047-.6330566406h-2.5354003906C1.2033081055,1.1328125,0,2.3442382812,0,3.8330078125v12.7631835938c0,1.4887695312,1.2033081055,2.7001953125,2.6823730469,2.7001953125h2.5354003906c.6373901367,0,1.2388916016-.2232666016,1.7157592773-.6259765625.5191650391.49609375,1.1086425781.8984375,1.7559204102,1.1994628906.7990112305.3706054688,1.6541137695.5583496094,2.5419921875.5583496094l4.9597167969.0006103516c1.0120849609-.0014648438,1.9735107422-.3607177734,2.7088012695-1.0115966797.2936401367-.26171875.5418701172-.5612792969.7410888672-.8913574219.1995239258.3310546875.4492797852.6313476562.7442016602.8928222656.7471923828.6611328125,1.6845092773,1.0104980469,2.7100830078,1.0101318359h7.3028564453c1.6328125-.0006103516,3.0682983398-.5358886719,4.1815185547-1.5560302734.1021728516.1381835938.2098999023.2639160156.3238525391.3786621094.7568969727.7585449219,1.7694702148,1.1765136719,2.8508300781,1.1767578125l.4157714844.0009765625c1.0355224609-.0025634766,2.0205688477-.3979492188,2.7747192383-1.11328125.3454589844-.3288574219.6380004883-.7708740234.8538208008-1.2844238281l1.5131835938,1.3197021484.1011962891.0783691406.1452026367.1118164062.0922851562.0655517578c.7082519531.5434570312,1.4713745117.8186035156,2.2905273438.8186035156.3944091797,0,.7949829102-.0615234375,1.1940307617-.1838378906.4618530273-.1440429688.8865966797-.3645019531,1.3153686523-.69921875l.3240966797-.2739257812c.3473510742.2501220703.7420654297.5087890625,1.1547241211.6766357422.7875366211.3199462891,1.6196899414.4827880859,2.4763183594.4836425781h4.6383056641c.8529052734-.0006103516,1.684387207-.1624755859,2.4722900391-.4813232422.7893676758-.3212890625,1.4921264648-.7785644531,2.0880737305-1.3591308594.57421875-.5598144531,1.0419921875-1.2172851562,1.3902587891-1.9544677734.3872680664-.8206787109.5841674805-1.7064208984.584777832-2.6333007812v-7.4395751953c-.0006103516-.8869628906-.1761474609-1.7465820312-.5200805664-2.5534667969-.322265625-.7639160156-.7727050781-1.4497070312-1.3373413086-2.037109375ZM63.0704345703,14.0004882812c-.0006103516.8505859375-.1810913086,1.6625976562-.5355834961,2.4135742188-.322265625.6813964844-.7537841797,1.2885742188-1.2850341797,1.8061523438-.5479125977.5340576172-1.1940307617.9547119141-1.924621582,1.251953125-.7271728516.2944335938-1.4943237305.4437255859-2.2815551758.4443359375,0,0-2.0682373047-.0001220703-3.443359375-.0001220703-.6875610352,0-1.2017822266,0-1.1974487305.0001220703-.7872314453-.0008544922-1.5549926758-.1508789062-2.2831420898-.4464111328-.4881591797-.1986083984-.9649047852-.5526123047-1.3806762695-.8625488281-.0408935547.0406494141-.0786132812.0831298828-.1213378906.1221923828l-.4946899414.4206542969c-.3637695312.2834472656-.7318725586.4750976562-1.1383056641.6016845703-.3479614258.1065673828-.7033691406.1610107422-1.0441894531.1610107422-.7064819336,0-1.3677368164-.2416992188-1.9865722656-.7176513672-.022277832-.0159912109-.1015014648-.0728759766-.1065063477-.0760498047-.0064697266-.0051269531-.1231689453-.095703125-.1231689453-.095703125l-.1021728516-.0788574219s-1.0968017578-.9571533203-2.0654907227-1.8035888672c-.158203125.6481933594-.466796875,1.3319091797-.9608764648,1.8017578125-.6594238281.6260986328-1.5184936523.9715576172-2.4267578125.9737548828l-.4129638672-.0008544922c-.9473266602-.0002441406-1.8320922852-.3646240234-2.493347168-1.0274658203-.2473144531-.2493896484-.4383544922-.5383300781-.5980834961-.8430175781-.0482788086.0554199219-.092590332.1137695312-.1423950195.1674804688-1.0494384766,1.1138916016-2.4756469727,1.7030029297-4.1240234375,1.7036132812h-7.302734375c-.9011230469,0-1.7211914062-.3048095703-2.3740234375-.8828125-.5724487305-.5075683594-.9423828125-1.1781005859-1.080078125-1.9331054688-.1379394531.7512207031-.5059814453,1.4223632812-1.0788574219,1.9326171875-.6414794922.568359375-1.4822387695.8818359375-2.372253418.8833007812l-4.958984375-.0006103516c-.8135375977,0-1.5963745117-.171875-2.3284912109-.5115966797-.6760864258-.3142089844-1.2829589844-.7487792969-1.8041992188-1.2902832031-.0561523438-.0583496094-.110534668-.1184082031-.1643676758-.1790771484-.3974609375.5157470703-1.0173950195.8489990234-1.7164916992.8489990234h-2.5352783203c-1.200378418,0-2.1734619141-.9790039062-2.1734619141-2.1877441406V3.8330078125c0-1.2084960938.9730834961-2.1881103516,2.1734619141-2.1881103516h2.5352783203c.7012329102,0,1.3231201172.3358154297,1.7203369141.8548583984.0861816406-.0949707031.1737670898-.1882324219.2659912109-.2779541016.5474853516-.5338134766,1.1942749023-.9552001953,1.9237060547-1.2528076172.7265625-.2947998047,1.4944458008-.4444580078,2.2821044922-.4444580078l4.6400756836-.0001220703c.7885131836.0002441406,1.5569458008.1501464844,2.2855834961.4460449219.7125854492.2900390625,1.3536376953.7015380859,1.9058227539,1.2233886719.2191772461.2065429688.4147949219.4321289062.598449707.6677246094.1094970703-.1411132812.2260131836-.2783203125.3487548828-.4104003906.4967651367-.5356445312,1.1005859375-.9847412109,1.7969360352-1.3354492188.7797851562-.3917236328,1.6618041992-.5906982422,2.6235961914-.5913085938h5.8433837891c.8696289062.0034179688,1.671081543.2930908203,2.3153076172.8344726562.3696289062.3093261719.6572265625.68359375.8618774414,1.1014404297.1658935547-.3316650391.3702392578-.6441650391.6373901367-.9124755859.6578369141-.6589355469,1.5416870117-1.0225830078,2.4899291992-1.0234375.1770629883,0,.3148193359.0014648438.4417724609.0056152344.1761474609.0069580078.2730102539.0161132812.3630981445.0318603516.7544555664.0853271484,1.4671020508.4000244141,2.0348510742.9366455078.4655761719.4426269531.7900390625.9938964844.957824707,1.6032714844.5187988281-.4609375,1.9440917969-1.7290039062,1.9440917969-1.7290039062.6615600586-.615234375,1.4825439453-.8605957031,2.3599243164-.8605957031,1.0388793945,0,1.9976806641.3854980469,2.6991577148,1.2299804688l.1427001953.1750488281c.0337524414.0416259766.0541992188.0806884766.085144043.1213378906.1192016602.1235351562.2203979492.2709960938.3154296875.4213867188.1913452148-.3950195312.4559936523-.7531738281.7940673828-1.0549316406.6411132812-.5668945312,1.481628418-.8798828125,2.3692016602-.8807373047l4.9608764648-.0001220703c.819152832.0012207031,1.5993041992.173828125,2.3258666992.5118408203.6779785156.3145751953,1.285949707.7496337891,1.8051147461,1.2904052734.520690918.5415039062.9376831055,1.1770019531,1.2348632812,1.8815917969.3176269531.744140625.4789428711,1.5355224609.4792480469,2.3533935547,0,0,.0003051758,7.4385986328.0003051758,7.4390869141Z"/>
      <path class="cls-1" d="M4.9779663086,11.8444824219c-.0600585938-.0627441406-.131652832-.1145019531-.211730957-.15234375-.083190918-.0395507812-.1730957031-.05859375-.2670288086-.05859375h-1.3533935547c-.0940551758,0-.1845703125.0180664062-.2695922852.0544433594-.0843505859.0360107422-.1595458984.0852050781-.2221069336.1461181641-.0619506836.0611572266-.112121582.1326904297-.1499023438.2120361328-.0363769531.0808105469-.0551147461.1677246094-.0551147461.2590332031v.9122314453c0,.0670166016.0206298828.1240234375.0606079102.1695556641.0405883789.0473632812.1002197266.0732421875.1693115234.0732421875h.0588378906c.0698242188,0,.1281738281-.0258789062.1706542969-.0740966797.0393676758-.0446777344.0600585938-.1016845703.0600585938-.1687011719v-.7496337891c0-.0954589844.0217895508-.166015625.0650024414-.2075195312.044921875-.0437011719.1055908203-.064453125.1861572266-.064453125h.3489990234v1.306640625c0,.1024169922.0317382812.1927490234.0927734375.2702636719.0670776367.0834960938.1712036133.1246337891.3107910156.1246337891h.5256347656c.0946655273,0,.1840820312-.0189208984.2665405273-.0548095703.0805664062-.0373535156.1534423828-.0895996094.2147827148-.154296875.0607910156-.0654296875.1079101562-.1412353516.1431274414-.2264404297.033996582-.0859375.0514526367-.1763916016.0514526367-.2692871094v-.8538818359c0-.0938720703-.0174560547-.1842041016-.0514526367-.2702636719-.0352172852-.0852050781-.0830688477-.1611328125-.1444091797-.2238769531ZM4.6545410156,13.1208496094c0,.0588378906-.0194702148.1086425781-.0619506836.1516113281-.0405883789.0415039062-.0897827148.0629882812-.1511230469.0629882812h-.3750610352v-1.1396484375h.3750610352c.061340332,0,.110534668.0207519531.1511230469.0627441406.0424804688.0422363281.0619506836.0920410156.0619506836.1506347656v.7116699219Z"/>
      <path class="cls-1" d="M4.932434082,8.990234375H1.6079101562c-.0686645508,0-.1279907227.0257568359-.173034668.0740966797-.0451049805.0479736328-.0686645508.1058349609-.0686645508.1695556641v.0759277344c0,.0676269531.0248413086.1271972656.0692138672.1729736328.0462646484.0462646484.1055908203.0703125.1724853516.0703125h.8664550781c-.0152587891.0587158203-.0252685547.1198730469-.0252685547.1810302734v.8416748047c0,.0947265625.0169677734.1859130859.051574707.2702636719.034362793.0860595703.0829467773.1608886719.1442871094.2244873047.0596313477.0629882812.1317749023.1137695312.2119140625.1541748047.0824584961.0379638672.1724853516.0587158203.2671508789.0587158203h1.3642578125c.0928344727,0,.1826782227-.0189208984.2655639648-.052734375.0839233398-.0344238281.1567993164-.0843505859.2188720703-.1453857422.0606689453-.0621337891.1098022461-.1342773438.1461791992-.2186279297.036315918-.0834960938.0549316406-.173828125.0549316406-.2674560547v-.8885498047c0-.0886230469-.0181884766-.1748046875-.0514526367-.25390625.0316772461-.0419921875.0514526367-.0903320312.0514526367-.1469726562v-.0759277344c0-.0645751953-.0233764648-.123046875-.0677490234-.1695556641-.044921875-.0483398438-.1057128906-.0740966797-.1736450195-.0740966797ZM4.6545410156,10.5052490234c0,.0621337891-.020690918.1119384766-.0625610352.1531982422-.0429077148.0413818359-.0940551758.0620117188-.1564941406.0620117188h-1.2477416992c-.0626831055,0-.1129150391-.0206298828-.1555175781-.0645751953-.0430297852-.0421142578-.063659668-.0936279297-.063659668-.1557617188v-.6905517578c0-.0617675781.0206298828-.1125488281.0631103516-.1555175781.0431518555-.0432128906.0933837891-.0637207031.1560668945-.0637207031h1.2477416992c.0618286133,0,.1128540039.0205078125.1553344727.0637207031.0430297852.04296875.0637207031.09375.0637207031.1555175781v.6956787109Z"/>
      <path class="cls-1" d="M4.932434082,7.7757568359h-2.239440918c-.0685424805,0-.1286010742.0257568359-.1741333008.0740966797-.0444946289.0473632812-.0680541992.1049804688-.0680541992.1687011719v.0766601562c0,.0678710938.0235595703.1271972656.0690917969.1730957031.0455322266.0462646484.1052856445.0693359375.1730957031.0693359375h2.239440918c.0673217773,0,.1275024414-.0230712891.1724853516-.0684814453.0447998047-.0457763672.0689086914-.1060791016.0689086914-.1739501953v-.0766601562c0-.0637207031-.0233764648-.1223144531-.0677490234-.1687011719-.044921875-.0483398438-.1057128906-.0740966797-.1736450195-.0740966797Z"/>
      <path class="cls-1" d="M4.932434082,14.9965820312h-1.7022705078c-.0036010742,0-.0054931641,0-.0078125.0009765625-.0838012695-.0009765625-.1445922852-.021484375-.1887817383-.0656738281-.0432128906-.041015625-.0650024414-.1108398438-.0650024414-.2080078125v-.7490234375c0-.0672607422-.020690918-.1237792969-.0600585938-.1687011719-.0424804688-.048828125-.1008300781-.0732421875-.1706542969-.0732421875h-.0588378906c-.0690917969,0-.1287231445.0251464844-.1700439453.0732421875-.0392456055.044921875-.0598754883.1014404297-.0598754883.1687011719v.9125976562c0,.0886230469.018737793.1728515625.0532226562.2521972656-.0314331055.0361328125-.0532226562.0791015625-.0532226562.1323242188v.0826416016c0,.0483398438.0181274414.0938720703.0545043945.1361083984.0386962891.0446777344.0922241211.0681152344.1548461914.0681152344h2.2739868164c.0679321289,0,.1275024414-.0241699219.1724853516-.0698242188.0447998047-.0456542969.0689086914-.1049804688.0689086914-.1745605469v-.0750732422c0-.0635986328-.0233764648-.1224365234-.0677490234-.1685791016-.044921875-.0483398438-.1057128906-.07421875-.1736450195-.07421875Z"/>
      <path class="cls-1" d="M4.9727172852,5.0729980469c-.0615234375-.0603027344-.1343994141-.109375-.2168579102-.1463623047-.0837402344-.0369873047-.1741943359-.0559082031-.267578125-.0559082031h-1.3642578125c-.0941162109,0-.182800293.0189208984-.2659912109.0567626953-.0812988281.0361328125-.1534423828.0886230469-.214050293.1540527344-.0606689453.0645751953-.1089477539.1411132812-.1433105469.2255859375-.0346069336.0852050781-.051574707.1765136719-.051574707.2692871094v.8444824219c0,.0930175781.0169677734.1833496094.051574707.26953125.034362793.0852050781.0829467773.1610107422.1442871094.224609375.0596313477.0620117188.1317749023.1145019531.2119140625.15234375.0824584961.0388183594.1724853516.0593261719.2671508789.0593261719h1.3642578125c.0928344727,0,.1826782227-.0170898438.2655639648-.0533447266.0839233398-.0335693359.1567993164-.0833740234.2188720703-.1446533203.0606689453-.0610351562.1098022461-.1342773438.1461791992-.2170410156.036315918-.0841064453.0549316406-.1755371094.0549316406-.2700195312v-.8865966797c0-.0947265625-.0186157227-.1842041016-.0555419922-.2669677734-.0357666016-.080078125-.0848999023-.1520996094-.1455688477-.2150878906ZM4.6545410156,6.349609375c0,.0617675781-.020690918.1110839844-.0625610352.15234375-.0429077148.0415039062-.0940551758.0620117188-.1564941406.0620117188h-1.2477416992c-.0626831055,0-.1129150391-.0205078125-.1555175781-.0639648438-.0430297852-.0428466797-.063659668-.09375-.063659668-.1547851562v-.6911621094c0-.0629882812.0206298828-.1137695312.0631103516-.1567382812.0431518555-.04296875.0933837891-.0635986328.1560668945-.0635986328h1.2477416992c.0618286133,0,.1128540039.0206298828.1553344727.0635986328.0430297852.04296875.0637207031.09375.0637207031.1567382812v.6955566406Z"/>
      <path class="cls-1" d="M47.4078369141,15.0784912109c-.0197753906-.0179443359-4.2454833984-3.6241455078-5.7243041992-4.9219970703l5.3190917969-4.7269287109c.4794921875-.4085693359.5829467773-.8560791016.5838623047-1.1578369141,0-.3203125-.1220092773-.6296386719-.3519897461-.8959960938.0117797852.0141601562-.2544555664-.3137207031-.2544555664-.3137207031-.3959960938-.4755859375-.8355712891-.5747070312-1.1364746094-.5743408203-.3671264648-.0004882812-.6928100586.1253662109-.9398803711.3642578125.0133056641-.0124511719-3.5071411133,3.1187744141-5.2692260742,4.6853027344l.0003051758-3.4725341797c-.0006103516-.4216308594-.1569824219-.791015625-.4522705078-1.0712890625-.2866821289-.271484375-.6405029297-.4143066406-1.0244140625-.4143066406-.0006103516-.0002441406-.4147949219-.0004882812-.4147949219-.0004882812-.4105224609.0003662109-.774597168.1477050781-1.0516357422.4261474609-.2783203125.2789306641-.4250488281.6446533203-.4256591797,1.0589599609v12.3156738281c-.0006103516.4128417969.1452026367.7791748047.4234619141,1.0588378906.2780151367.2788085938.6414794922.4267578125,1.0516357422.4270019531l.4154663086.0004882812c.3857421875-.0010986328.7401733398-.1440429688,1.0252685547-.4143066406.2962646484-.2813720703.452331543-.6519775391.452331543-1.072265625,0,.0004882812,0-2.2121582031.0003051758-3.6475830078l5.3197021484,4.6472167969.0260009766.0230712891.0291137695.0190429688c.0631713867.0441894531.1241455078.0874023438.1838989258.1331787109.2652587891.2056884766.5018310547.3039550781.7398681641.3028564453.1513671875.0003662109.3098754883-.0234375.4658813477-.0715332031.1684570312-.0528564453.319519043-.1312255859.4538574219-.2353515625.0207519531-.0173339844.4049072266-.3446044922.4049072266-.3446044922.3551025391-.3233642578.5349731445-.712890625.534362793-1.1375732422,0-.2297363281-.044921875-.4385986328-.1371459961-.6251220703-.0842285156-.1663818359-.1600952148-.2786865234-.2470703125-.3642578125Z"/>
      <path class="cls-1" d="M59.8765869141,3.7578125c-.3442993164-.3591308594-.7457885742-.6466064453-1.1940307617-.8547363281-.4597167969-.2147216797-.9547729492-.3232421875-1.47265625-.3232421875h-4.9597167969c-.3959350586.0002441406-.7500610352.1276855469-1.0234375.3698730469-.2959594727.2639160156-.4513549805.6286621094-.4513549805,1.0556640625.0003051758-.0012207031.0003051758.3256835938.0003051758.3256835938.0006103516.4299316406.1560058594.7944335938.4501342773,1.0549316406.2777099609.2463378906.6219482422.3713378906,1.0250244141.3712158203-.0006713867,0,4.0699462891.0003662109,4.0699462891.0003662109.4798583984.0002441406.8240966797.1040039062,1.0216064453.3098144531.2055053711.2133789062.305847168.5114746094.305847168.9112548828,0,0-.0003051758,1.0594482422-.0003051758,1.7552490234h-6.9418945312c-.5897216797.0002441406-1.1163330078.1844482422-1.5661621094.5477294922-.4887695312.3931884766-.7370605469,1.0096435547-.7364501953,1.8310546875l-.0006103516,2.8865966797c0,.5375976562.1068115234,1.0502929688.3179321289,1.5229492188.2089233398.4663085938.5021362305.8800048828.8726806641,1.2303466797.3684082031.3475341797.7971191406.6221923828,1.2751464844.8170166016.4844360352.1970214844.9959106445.2961425781,1.5209350586.2967529297.0003051758,0,4.6389770508.0006103516,4.6389770508.0006103516.5253295898-.0006103516,1.0367431641-.0998535156,1.5209350586-.2960205078.4829101562-.1968994141.9091796875-.4735107422,1.2686157227-.8236083984.3541259766-.3454589844.6436157227-.7531738281.8605957031-1.2127685547.2241210938-.4735107422.3374633789-.9891357422.3380737305-1.5329589844,0-.0003662109.0003051758-7.4370117188.0003051758-7.4370117188-.0003051758-.5360107422-.1058959961-1.0550537109-.3142089844-1.54296875-.2021484375-.4783935547-.4801635742-.9044189453-.8262329102-1.2637939453ZM57.6479492188,13.6772460938c0,.2946777344-.092590332.5229492188-.2928466797.7189941406-.2049560547.1997070312-.4315795898.2933349609-.711730957.2927246094l-3.8668823242-.0004882812c-.2801513672.0004882812-.5064697266-.0930175781-.7123413086-.2934570312-.1990356445-.1944580078-.2925415039-.4233398438-.2925415039-.7192382812,0,.0006103516,0-1.1644287109,0-1.9025878906l5.8766479492.0007324219-.0003051758,1.9033203125Z"/>
      <path class="cls-1" d="M33.0086669922,9.4792480469c-.6395874023-.5361328125-1.3828735352-.8074951172-2.2106933594-.8077392578l-4.7600708008-.0006103516c-.525390625.0002441406-.7041625977-.2119140625-.7631835938-.2806396484-.1834106445-.2183837891-.2728271484-.4185791016-.2728271484-.6116943359l.0002441406-1.1003417969c-.0002441406-.3868408203.1409301758-.5693359375.2478637695-.6729736328.1712646484-.1654052734.4567871094-.2497558594.8480834961-.2496337891h5.3546142578c.3752441406.0002441406.7108154297-.1203613281.9959106445-.3583984375.3145141602-.263671875.4798583984-.6322021484.4798583984-1.06640625l.0003051758-.3262939453c-.0006103516-.4356689453-.1659545898-.8039550781-.4782714844-1.0653076172-.2845458984-.2391357422-.6303100586-.3605957031-1.0275268555-.3608398438-.0003051758,0-5.8280639648-.0003662109-5.8280639648-.0003662109-.6422119141.0003662109-1.2182617188.1264648438-1.7129516602.3752441406-.4767456055.2401123047-.8861694336.5424804688-1.2171630859.8994140625-.3330078125.3577880859-.5915527344.7598876953-.766418457,1.1932373047-.1758422852.4360351562-.2652587891.8463134766-.2652587891,1.2199707031,0,.0004882812-.0002441406,1.8452148438-.0002441406,1.8452148438.0005493164.5201416016.1019287109,1.0119628906.3021850586,1.4622802734.1996459961.4473876953.4618530273.8302001953.780090332,1.1380615234.318359375.3087158203.6935424805.5541992188,1.1137084961.7307128906.4244995117.1774902344.8590087891.2685546875,1.290222168.2681884766l4.848815918.0006103516c.2211914062,0,.3233642578.0393066406.3564453125.0556640625.0789794922.0400390625.1377563477.0864257812.1820068359.1441650391.05078125.0660400391.0845336914.1343994141.1030883789.2054443359.0272216797.1008300781.0405273438.1938476562.0396118164.2781982422v1.1905517578c0,.1193847656-.0160522461.2607421875-.047668457.4202880859-.0263061523.1339111328-.0711669922.2526855469-.1362304688.3642578125-.0596923828.1019287109-.1343994141.1854248047-.2295532227.2576904297-.051574707.0394287109-.1464233398.0603027344-.2671508789.0606689453-.0005493164,0-6.8898925781-.0008544922-6.8898925781-.0008544922-.3980712891-.0003662109-.7531738281.1286621094-1.0267333984.3725585938-.2936401367.2595214844-.4499511719.6242675781-.4495239258,1.0521240234l-.0004272461.3267822266c.0001220703.4287109375.1563110352.7937011719.4515991211,1.0549316406.2783203125.2465820312.6232910156.3708496094,1.0255126953.3706054688l7.3037719727.0012207031c1.0903930664,0,1.9807128906-.3580322266,2.6450805664-1.0637207031.6575317383-.6962890625.9903564453-1.66015625.9909667969-2.8640136719l-.0003051758-1.9943847656c-.0003051758-1.0726318359-.3399658203-1.9017333984-1.0098266602-2.4638671875Z"/>
      <path class="cls-1" d="M18.83203125,3.6909179688c-.3676757812-.3469238281-.7962646484-.6220703125-1.2753295898-.8168945312-.4838256836-.1966552734-.9960327148-.2965087891-1.5216064453-.2965087891l-4.6384887695-.0006103516c-.5242919922.0002441406-1.0358886719.099609375-1.5204467773.2957763672-.4829711914.1968994141-.909362793.4741210938-1.2681884766.8236083984-.354675293.3458251953-.6446533203.7541503906-.8609008789,1.2126464844-.2239990234.4750976562-.3380126953.9907226562-.3378295898,1.533203125l-.0006103516,7.4367675781c-.0001220703.5341796875.1052856445,1.0537109375.3135375977,1.5427246094.2040405273.4807128906.4816894531.9060058594.8266601562,1.2651367188.3450927734.3583984375.7465820312.6457519531,1.1942749023.8544921875.4612426758.2138671875.9567871094.3221435547,1.4725952148.3220214844l4.9595947266.0007324219c.3970336914-.0007324219.751159668-.1281738281,1.0242919922-.3706054688.2947387695-.2624511719.4499511719-.6264648438.4501953125-1.0551757812v-.3259277344c.0001831055-.4274902344-.1552734375-.7917480469-.4489135742-1.0539550781-.278503418-.2458496094-.6224365234-.3717041016-1.0250244141-.3720703125h-4.071105957c-.4797973633,0-.8237304688-.1040039062-1.0215454102-.3095703125-.2056274414-.2142333984-.3055419922-.5122070312-.3055419922-.9117431641,0,0,.0001831055-1.0592041016.0001831055-1.7554931641l6.9417724609.0002441406c.5901489258-.0004882812,1.1167602539-.1848144531,1.5651245117-.5478515625.489074707-.3928222656.7376098633-1.0092773438.7376098633-1.8303222656v-2.8869628906c.0004272461-.5375976562-.1061401367-1.0498046875-.3176269531-1.5231933594-.2080688477-.4663085938-.5021362305-.8798828125-.8726806641-1.23046875ZM16.6539306641,8.6702880859l-5.8760986328-.0002441406-.0001831055-1.9034423828c0-.2956542969.0930786133-.5236816406.2930908203-.7192382812.2051391602-.1994628906.430847168-.29296875.711730957-.29296875l3.8669433594.0003662109c.2805786133,0,.5064086914.0933837891.7121582031.2935791016.1994018555.1953125.2923583984.4237060547.2929077148.7194824219,0-.0002441406-.0003051758,1.1644287109-.0005493164,1.9024658203Z"/>
    </g>
  </g>
</svg>