<?xml version="1.0" encoding="UTF-8"?>
<svg id="Layer_2" data-name="Layer 2" xmlns="http://www.w3.org/2000/svg" viewBox="0 0 53.68516213 24.468147032">
  <defs>
    <style>
      .cls-1 {
        fill: #fff;
      }
    </style>
  </defs>
  <g id="Layer_1-2" data-name="Layer 1">
    <g>
      <g>
        <path class="cls-1" d="M0,6.9045746877c0-2.437795151,1.20114664-3.6566927266,3.6034399199-3.6566927266,2.4082102584,0,3.6123153876,1.2188975755,3.6123153876,3.6566927266v2.3431234947h-2.5117573826v-2.3431234947c0-.7810411649-.3638941791-1.1745202366-1.0916825373-1.1804372151h-.0177509356c-.7218713797,0-1.0828070695.3934790717-1.0828070695,1.1804372151v1.5798332654c0,.7751241864.7839996542,1.7247992391,2.3519989625,2.8490251583,1.5679993083,1.1183089406,2.3519989625,2.4585045759,2.3519989625,4.0205869056v2.2011160102c0,2.4437121296-1.20114664,3.6655681943-3.6034399199,3.6655681943-2.4082102584-.0059169785-3.6123153876-1.2277730433-3.6123153876-3.6655681943v-2.3431234947h2.5117573826v2.3431234947c0,.7869581434.3668526684,1.1804372151,1.1005580051,1.1804372151.7277883582,0,1.0916825373-.3934790717,1.0916825373-1.1804372151v-1.9881047834c0-.8402109501-.7839996542-1.8224293847-2.3519989625-2.9466553039-1.5679993083-1.1183089406-2.3519989625-2.4792140007-2.3519989625-4.0827151801v-1.633086072Z"/>
        <path class="cls-1" d="M14.9433292571,3.5230214625v2.4762555114h-2.3519989625v14.9374122786h-2.5117573826V5.9992769739h-2.3519989625v-2.4762555114h7.2157553075Z"/>
        <path class="cls-1" d="M22.75817864,17.5551360272c0,2.437795151-1.2041051292,3.6596512158-3.6123153876,3.6655681943-2.4022932799,0-3.6034399199-1.2218560648-3.6034399199-3.6655681943V3.5230214625h2.5117573826v14.0321145647c0,.7869581434.3638941791,1.1804372151,1.0916825373,1.1804372151.7337053367,0,1.1005580051-.3934790717,1.1005580051-1.1804372151V3.5230214625h2.5117573826v14.0321145647Z"/>
        <path class="cls-1" d="M24.0687893826,3.5230214625h3.8697039533c2.2307009028.0059169785,3.3460513542,1.2277730433,3.3460513542,3.6655681943v10.0914068692c0,2.4318781725-1.1686032581,3.650775748-3.5058097742,3.6566927266h-3.7099455333V3.5230214625ZM26.5805467651,5.9992769739v12.4611567672h1.1005580051c.7277883582,0,1.0916825373-.3934790717,1.0916825373-1.1804372151V7.1885896568c0-.7928751219-.3638941791-1.1893126829-1.0916825373-1.1893126829h-1.1005580051Z"/>
        <path class="cls-1" d="M32.5492988491,3.5230214625h2.5117573826v17.41366779h-2.5117573826V3.5230214625Z"/>
        <path class="cls-1" d="M43.5430449429,17.5551360272c0,2.437795151-1.2041051292,3.6596512158-3.6123153876,3.6655681943-2.4022932799,0-3.6034399199-1.2218560648-3.6034399199-3.6655681943V6.9045746877c0-2.437795151,1.20114664-3.6566927266,3.6034399199-3.6566927266,2.4082102584,0,3.6123153876,1.2188975755,3.6123153876,3.6566927266v10.6505613395ZM41.0312875603,6.9045746877c0-.7810411649-.3638941791-1.1745202366-1.0916825373-1.1804372151h-.0177509356c-.7218713797,0-1.0828070695.3934790717-1.0828070695,1.1804372151v10.6505613395c0,.7869581434.3638941791,1.1804372151,1.0916825373,1.1804372151.7337053367,0,1.1005580051-.3934790717,1.1005580051-1.1804372151V6.9045746877Z"/>
      </g>
      <rect class="cls-1" width="53.6851615657" height="1.1005580051"/>
      <rect class="cls-1" y="23.3675890269" width="53.6851615657" height="1.1005580051"/>
      <path class="cls-1" d="M53.68516213,17.5551317609V6.9045707369c0-2.4377946397-1.2041082918-3.6566919596-3.6123188881-3.6566919596-2.4022889976,0-3.6034394838,1.2188973199-3.6034394838,3.6566919596v10.6505610239c0,2.4437162384,1.2011504862,3.6655713639,3.6034394838,3.6655713639.1922334145-.0004730094.375916735-.0095739497.5528042876-.0255425075l.6408858225.7905064789h2.4186287779l-1.1739255023-1.4479895427c.7821958834-.5994585817,1.1739255023-1.5932094154,1.1739255023-2.9825457927ZM48.9811615004,6.9045707369c0-.7869559147.3609361082-1.1804338721,1.0828083247-1.1804338721h.0177528211c.7277878277.0059156112,1.0916817416.3993935686,1.0916817416,1.1804338721v10.6505610239c0,.7869619022-.3668517195,1.1804398595-1.1005611458,1.1804398595-.7277878277,0-1.0916817416-.3934779574-1.0916817416-1.1804398595V6.9045707369Z"/>
    </g>
  </g>
</svg>