<?xml version="1.0" encoding="UTF-8"?>
<svg id="Layer_2" data-name="Layer 2" xmlns="http://www.w3.org/2000/svg" viewBox="0 0 143.0298609979 45.9580936583">
  <defs>
    <style>
      .cls-1 {
        fill: #fff;
      }
    </style>
  </defs>
  <g id="Layer_1-2" data-name="Layer 1">
    <g>
      <path class="cls-1" d="M138.8513531876,4.4327992294c-1.268848274-1.3214366182-2.750933359-2.3819911111-4.4035529701-3.1481607215-1.7820995291-.8298797715-3.6945028145-1.2533326529-5.7134558522-1.2582756826l-11.1602627111.0008238383c-2.2737936823.0019222894-4.4347215187.8076361376-6.0880276617,2.2710475546-.4095849368.3655095883-.7820971506.7661696103-1.1130055307,1.1986847129l-.258959836-.3174523547c-1.7285500402-2.0804662967-4.1319609469-3.1794665765-6.9496252074-3.1794665765-2.3818538047,0-4.4348588251.7348637553-6.0672943981,2.2251872231l-3.1436296108,2.7952833203c-.4653313279-.9281911408-1.086505399-1.7715269377-1.8427889499-2.4890900889-1.422768728-1.3456025415-3.21956004-2.1776792151-5.1988315333-2.408903162-.2277912874-.0384457869-.471510115-.0626117101-1.0271890421-.0851299567-.2731023934-.0076891574-.572567612-.0101606722-.9471394215-.0101606722-2.4354032936.0019222894-4.711393878.9389010386-6.4085007568,2.6387540451-.2236720959.2249078533-.4352612302.4651940215-.635865854.723604632-.3552116097-.4424011621-.7542239551-.8488280522-1.1944282151-1.2179076064-1.6603087685-1.3944836133-3.7133137889-2.1362126877-5.9426202034-2.1444510706h-13.1465368299c-2.3402499711.0013730638-4.4978824543.4896345574-6.4141303185,1.4518776809-1.6596222366.8359212523-3.1086164835,1.9080094812-4.3097727113,3.1871557339-.1886589686-.203213445-.3771806307-.3929708647-.5665261312-.5717437737-1.3469756053-1.2720063208-2.9081491661-2.2737936823-4.6431526063-2.9800977101C39.9021956899.3935200902,38.0282381914.0280105019,36.106498072.0271866636l-10.4411891897.0008238383c-1.9174836216,0-3.7878711542.3641365245-5.5617323004,1.083621965-1.6865342874.688728811-3.1944329721,1.6498734835-4.4860741055,2.8609157708-1.0763447268-.916382792-2.4356779064-1.4241417918-3.8794545108-1.4241417918h-5.7037070991C2.7069953168,2.5484064458,0,5.2736635114,0,8.6228407758v28.7124121067c0,3.3491772644,2.7069953168,6.07443433,6.0343408665,6.07443433h5.7037070991c1.4338905449,0,2.7870449374-.5022667445,3.8598196982-1.4082142515,1.1679280834,1.1160262711,2.4940331186,2.0211499398,3.9501672974,2.6983450147,1.7974778439.8337243502,3.7211402526,1.2560787805,5.7185361884,1.2560787805l11.1575165834.0013730638c2.2768144227-.0032953532,4.4396645485-.8114807163,6.0937945298-2.2757159716.6605810027-.5887697651,1.2190060574-1.2626694869,1.6671740876-2.0052223995.448854562.7447498148,1.0107122763,1.4202972131,1.674176713,2.0085177527,1.6809047257,1.4873027274,3.7895188307,2.2732444567,6.0966779638,2.2724206184h16.42870858c3.6732203254-.0013730638,6.9025291185-1.205550032,9.4068602157-3.5004888971.2298508831.3108616483.4721966469.5937127948.7285476617.8518487925,1.7027364404,1.7064437128,3.9806493142,2.6467178152,6.4133064802,2.6472670407l.9353310727.0021969021c2.3295400733-.005766868,4.5455277688-.8952376092,6.2420854221-2.5044684037.7771541209-.739806785,1.4352636087-1.7341796019,1.9207789747-2.8894754982l3.4040998171,2.9688385868.227653981.1763013942.3266518823.2515452914.2076072493.147467054c1.5933032542,1.2225760234,3.3100449456,1.8415531925,5.1528338954,1.8415531925.8872738391,0,1.7884156227-.1384048328,2.6861247468-.4135668219,1.0389973909-.324043061,1.9945125017-.819993712,2.9590898337-1.5729819097l.7290968872-.6162310414c.7814106187.5626815525,1.6693709897,1.1445859985,2.5976994369,1.5221785484,1.7716642441.7197600533,3.6436994533,1.0860934799,5.5707945216,1.0880157692h10.434461177c1.918719379-.0013730638,3.789244218-.3655095883,5.5617323004-1.0827981267,1.7757834356-.7227807937,3.3567291154-1.751480206,4.6973886271-3.0575385095,1.2917784398-1.2593741337,2.3440945497-2.7384384782,3.1275647642-4.3968249574.8712089924-1.8462216094,1.31415938-3.8388118218,1.3155324438-5.9239465355V14.7598868158c-.0013730638-1.99533634-.3962662178-3.929159421-1.1699876791-5.7443497881-.7249776958-1.7185266744-1.7382987933-3.26130118-3.0085201312-4.5827377983ZM141.8850003867,31.4958870782c-.0013730638,1.9135017365-.4073880347,3.7402258397-1.2048635001,5.4296435611-.7249776958,1.5328884462-1.695733815,2.8988123322-2.890848562,4.0631704496-1.2325993892,1.2014308406-2.6861247468,2.1477464238-4.3296821367,2.8164285031-1.6358682325.6623659857-3.3616721451.9982173955-5.1326498573.9995904594,0,0-4.652764053-.0002746128-7.7462768345-.0002746128-1.5467563908,0-2.7035626572,0-2.6938139041.0002746128-1.7709777122-.0019222893-3.4981546886-.3394213758-5.1362198232-1.0042588763-1.0981764415-.4467949663-2.1706765896-1.2431719806-3.1060076622-1.9404137873-.0919952758.0914460503-.1768506197.187011292-.272965087.2748873763l-1.1128682243.9463155832c-.8183460354.637650837-1.6464408239,1.0687928758-2.5607640202,1.3535663116-.7827836825.2397369426-1.5823187436.3622142351-2.3490375795.3622142351-1.5893213691,0-3.0768987093-.5437332718-4.4690481142-1.614448437-.0501168293-.035974272-.2283405129-.1639438198-.2395996362-.1710837517-.0145544765-.0115337361-.2770842784-.2152964066-.2770842784-.2152964066l-.2298508831-.1773998453s-2.4673956806-2.1532386791-4.6465852658-4.0574035816c-.3558981416,1.4581937745-1.0501192079,2.9962998632-2.1616143684,4.0532843902-1.4834581488,1.4084888643-3.4160454723,2.1856429852-5.4593017396,2.1905860149l-.9290149791-.0019222894c-2.1311323516-.0005492255-4.1215256619-.8202683247-5.6091030021-2.3114156309-.556365459-.561033876-.9861344339-1.2110422873-1.3454652351-1.8964757452-.108609348.1246741947-.2082937812.2559390957-.3203357887.3767687116-2.3608459283,2.5058414675-5.5692841514,3.8311226644-9.2775176041,3.8324957282h-16.4284339672c-2.0271914206,0-3.8720399662-.6857080706-5.3406690257-1.9859995061-1.2877965547-1.1418398709-2.1200105347-2.6502877811-2.429773732-4.3487677237-.3103124228,1.689966947-1.138269905,3.199787921-2.4270276043,4.3476692727-1.4430900725,1.2785970271-3.3344854815,1.983802604-5.3366871406,1.9870979571l-11.1558689068-.0013730638c-1.8301567627,0-3.5912484155-.3866547711-5.2382384649-1.1509020921-1.520942791-.7068532534-2.886180145-1.6844746917-4.0587766454-2.9026569108-.1263218712-.131264901-.2486618574-.2663743807-.3697660861-.4028569242-.8941391581,1.160238926-2.2887600779,1.9099317705-3.8614673748,1.9099317705h-5.7034324864c-2.7004046105,0-4.8894802552-2.2023943637-4.8894802552-4.9216099485V8.6228407758c0-2.7186663592,2.1890756447-4.9224337868,4.8894802552-4.9224337868h5.7034324864c1.5775130203,0,2.9765277442.7554597125,3.8701176768,1.9231131832.1938766111-.2136487301.3909112689-.4234528814.5983812118-.6252932626,1.2316382446-1.200881615,2.6866739723-2.1488448749,4.3276225409-2.8183507924,1.6344951687-.663189824,3.3619467579-.9998650721,5.1338856147-.9998650721l10.438443062-.0002746128c1.7738611462.0005492255,3.5025484928.3377736992,5.1417120785,1.0034350381,1.6030520073.6524799262,3.0451809351,1.5781995522,4.2873917711,2.7521691164.493067217.464644796.9331341706.972129183,1.3462890734,1.5021318167.2463276489-.3174523547.5084455317-.6261171009.7845686655-.9232481111,1.1175366413-1.2050008065,2.4759086763-2.2153011636,4.042437186-3.0042636333,1.7542263336-.8812323583,3.7384408567-1.3288511629,5.9021148208-1.3302242267h13.1454383788c1.9563413276.0076891574,3.7593114267.6593452453,5.2085802864,1.8772528517.8315274481.6958687429,1.478515119,1.5378314759,1.9389034171,2.4778309656.3731987457-.7461228786.8329005119-1.4491315533,1.4338905449-2.0527304076,1.4798881828-1.4823596977,3.4682218974-2.3004311204,5.6014138447-2.3023534097.3983258135,0,.7082263172.0032953532.9938235913.0126321871.3962662178.0156529275.6141714457.0362488848.8168356652.0716739313,1.6972441852.1919543217,3.3004334988.8999060262,4.5776574622,2.1071037348,1.0473730802.9957458807,1.7772938058,2.2358971209,2.1547490493,3.6067640366,1.1671042451-1.0369377952,4.3734828724-3.8896151831,4.3734828724-3.8896151831,1.4882638721-1.3840483283,3.3351720134-1.9360199831,5.3089512515-1.9360199831,2.3370919243,0,4.4940378757.8672271073,6.0721001214,2.7669982056l.3210223206.3937947029c.0759304291.0936429524.121928067.1815190367.1915424026.272965087.2681593636.2779081167.4958133446.6096403351.709599381.9479632598.4304555069-.8886469029,1.0258159783-1.6943607512,1.786356027-2.3732035027,1.4422662342-1.275301674,3.3331124177-1.9794087997,5.3298218216-1.9813310891l11.1601254047-.0002746128c1.8427889499.0027461276,3.5978391218.3910485753,5.2323342905,1.1514513176,1.5251992888.7076770917,2.8929081577,1.686396981,4.0608362411,2.9029315236,1.171360743,1.2181822191,2.1094379433,2.6478162662,2.7779827162,4.2328811375.7145424108,1.6740394067,1.0774431778,3.4543539528,1.0781297097,5.2942594687,0,0,.0006865319,16.734077973.0006865319,16.7351764241Z"/>
      <path class="cls-1" d="M11.1985711916,26.6456764482c-.1351094797-.1411509605-.2961698655-.2575867722-.4763158384-.3427167289-.1871485984-.0889745354-.3894008987-.1318141265-.6007154203-.1318141265h-3.0446317096c-.2115891343,0-.4152144985.040642689-.6064822883.1224772925-.1897574196.0810107653-.358918882.191679709-.4996579233.328711478-.1393659775.1375809946-.2522318233.298504074-.3372244737.4770023703-.0818346035.1817936495-.1239876627.3773179371-.1239876627.5827282843v2.0521811821c0,.1507624072.046409557.2790065678.1363452371.3814371286.0913087439.1065497523.2254570789.1647676581.3808879031.1647676581h.132363352c.1570785008,0,.2883434017-.0582179059.3839086435-.1666899475.0885626162-.1005082715.1351094797-.228752432.1351094797-.3795148393v-1.686396981c0-.2147471811.0490183783-.3734733584.1462312966-.466841698.101057497-.0983113693.2375400405-.1449955392.4187844644-.1449955392h.785117891v2.9394550211c0,.2304001086.0713993185.4336135537.2087057003.6079926585.1508997136.1878351303.3851444009.2803796316.699164096.2803796316h1.1824825599c.2129621981,0,.4141160475-.0425649784.5996169692-.1233011308.1812444239-.0840315057.3451882438-.2015657685.4831811575-.3471105331.1367571562-.1471924413.242757683-.3177269675.3219834653-.5094066764.0764796547-.1933273855.1157492798-.3968154433.1157492798-.6057957564v-1.9209162811c0-.2111772152-.0392696252-.4143906602-.1157492798-.6079926585-.0792257823-.1916797089-.1868739856-.3624888479-.3248668993-.5036398084ZM10.4709846745,29.517027504c0,.132363352-.0438007358.2444053596-.1393659775.3410690523-.0913087439.0933683396-.2019776876.141700186-.3399706013.141700186h-.843747716v-2.5637847606h.843747716c.1379929137,0,.2486618574.0466841698.3399706013.1411509605.0955652417.0950160162.1393659775.2070580237.1393659775.3388721502v1.6009924116Z"/>
      <path class="cls-1" d="M11.0961406308,20.2246808106H3.6171993216c-.1544696795,0-.2879314826.0579432931-.3892635923.1666899475-.1014694161.1079228161-.1544696795.238089266-.1544696795.3814371286v.1708091389c0,.152135471.0558836974.2861464996.1557054369.389126286.1040782374.1040782374.2375400405.1581769518.3880278349.1581769518h1.9492013957c-.0343265954.1320887393-.0568448421.2696697338-.0568448421.4072507284v1.8934550047c0,.2130995045.0381711741.4182352389.1160238926.6079926585.0773034929.1936019983.1865993728.3619396224.3245922865.5050128722.134148335.141700186.2964444783.2559390957.4767277575.3468359204.1855009218.0854045695.3880278349.1320887393.6009900331.1320887393h3.0690722455c.2088430067,0,.4109580007-.0425649784.5974200671-.1186327138.1887962749-.0774407993.3527400948-.1897574196.4923806851-.3270638014.1364825435-.1397778967.2470141808-.3020740399.3288487844-.4918314595.0816972972-.1878351303.1235757436-.3910485753.1235757436-.601676565v-1.9989063059c0-.1993688664-.0409173018-.3932454774-.1157492798-.5711945482.0712620121-.0944667907.1157492798-.203213445.1157492798-.3306337673v-.1708091389c0-.1452701519-.0525883442-.2768096657-.1524100838-.3814371286-.101057497-.1087466544-.2378146532-.1666899475-.3906366562-.1666899475ZM10.4709846745,23.6328998192c0,.1397778966-.0465468634.2518199042-.1407390413.3446390183-.0965263864.0930937268-.2115891343.1395032839-.3520535629.1395032839h-2.8069543627c-.1410136541,0-.2540168063-.0464095571-.3498566608-.1452701519-.0968009992-.0947414034-.1432105562-.2106279896-.1432105562-.3504058863v-1.5534844035c0-.1389540584.046409557-.253192968.1419747988-.3498566608.0970756119-.0972129183.2100787641-.1433478626.3510924182-.1433478626h2.8069543627c.1390913647,0,.2538794999.0461349443.3494447416.1433478626.0968009992.0966636928.1433478626.2109026024.1433478626.3498566608v1.5650181395Z"/>
      <path class="cls-1" d="M11.0961406308,17.492558426h-5.0379084539c-.1541950667,0-.2893045464.0579432931-.3917351072.1666899475-.1000963523.1065497523-.1530966157.2361669767-.1530966157.3795148392v.1724568155c0,.1526846965.0530002634.2861464997.1554308242.3894008987.1024305608.1040782374.2368535086.1559800497.3894008987.1559800497h5.0379084539c.1514489391,0,.2868330315-.0519018123.3880278349-.1540577604.1007828842-.1029797863.155018905-.2386384915.155018905-.3913231881v-.1724568155c0-.1433478626-.0525883442-.2751619891-.1524100838-.3795148392-.101057497-.1087466544-.2378146532-.1666899475-.3906366562-.1666899475Z"/>
      <path class="cls-1" d="M11.0961406308,33.7367272288h-3.8294749878c-.0081010765,0-.0123575744,0-.0175752169.0021969021-.1885216622-.0021969021-.3252788184-.0483318464-.4246886388-.1477416668-.0972129183-.0922698885-.1462312966-.2493483893-.1462312966-.4679401491v-1.6850239172c0-.1513116327-.0465468634-.2784573423-.1351094797-.3795148393-.0955652417-.1098451054-.2268301427-.1647676581-.3839086435-.1647676581h-.132363352c-.1554308242,0-.2895791592.0565702293-.3825355796.1647676581-.0882880035.101057497-.1346975605.2282032065-.1346975605.3795148393v2.0530050204c0,.1993688663.0421530592.3888516732.1197311649.5673499695-.0707127866.081285378-.1197311649.1779490708-.1197311649.2976802357v.1859128409c0,.1087466544.0407799954.2111772152.1226145989.3061932314.0870522461.1005082715.2074699429.1532339221.3483462906.1532339221h5.115623866c.1528220029,0,.2868330315-.0543733272.3880278349-.1570785008.1007828842-.1027051736.155018905-.2361669767.155018905-.3926962519v-.1688868496c0-.1430732498-.0525883442-.2754366018-.1524100838-.3792402265-.101057497-.1087466544-.2378146532-.1669645602-.3906366562-.1669645602Z"/>
      <path class="cls-1" d="M11.1867628427,11.412357228c-.1384048328-.1356587052-.3023486527-.2460530362-.4878495745-.3292607035-.1883843558-.0832076674-.3918724136-.1257726457-.6019511777-.1257726457h-3.0690722455c-.2117264407,0-.4112326134.0425649784-.5983812118.1276949351-.1828921005.081285378-.3451882438.1993688663-.4815334809.3465613076-.1364825435.1452701519-.2450918915.3174523547-.3223953844.5074843871-.0778527185.191679709-.1160238926.3970900561-.1160238926.6057957564v1.8997710983c0,.2092549258.0381711741.4124683709.1160238926.6063449819.0773034929.191679709.1865993728.3622142351.3245922865.505287485.134148335.1395032839.2964444783.2575867722.4767277575.3427167289.1855009218.0873268588.3880278349.1334618031.6009900331.1334618031h3.0690722455c.2088430067,0,.4109580007-.0384457869.5974200671-.1200057777.1887962749-.07551851.3527400948-.1875605175.4923806851-.3254161248.1364825435-.1373063818.2470141808-.3020740399.3288487844-.4882614936.0816972972-.1892081941.1235757436-.394893154.1235757436-.607443433v-1.9945125018c0-.2130995045-.0418784464-.4143906602-.1249488074-.6005781139-.0804615397-.1801459729-.1909931771-.3421675034-.3274757205-.4838676894ZM10.4709846745,14.2842575093c0,.1389540584-.0465468634.2498976149-.1407390413.3427167289-.0965263864.0933683396-.2115891343.1395032839-.3520535629.1395032839h-2.8069543627c-.1410136541,0-.2540168063-.0461349443-.3498566608-.1438970881-.0968009992-.09638908-.1432105562-.2109026024-.1432105562-.3482089842v-1.5548574673c0-.141700186.046409557-.2559390957.1419747988-.3526027884.0970756119-.0966636928.2100787641-.1430732498.3510924182-.1430732498h2.8069543627c.1390913647,0,.2538794999.0464095571.3494447416.1430732498.0968009992.0966636928.1433478626.2109026024.1433478626.3526027884v1.5647435267Z"/>
      <path class="cls-1" d="M106.6499859198,33.9209923932c-.0444872677-.0403680763-9.5507573038-8.1529783373-12.877553628-11.0726612395l11.9659765593-10.6338300433c1.0786789353-.9191289196,1.3114132524-1.9258593108,1.3134728481-2.6047020623,0-.7205838916-.2744754572-1.4164526345-.7918459037-2.0156576845.0265001317.0318550806-.5724303056-.7057548024-.5724303056-.7057548024-.890843805-1.0698913268-1.8797243666-1.2928768908-2.5566448287-1.2920530525-.8258978864-.0010984511-1.5585647396.2820273082-2.114380973.8194444865.0299327912-.0280105019-7.8897620035,7.0160814962-11.8537972454,10.5401870909l.0006865319-7.811909285c-.0013730638-.9485124853-.3531520139-1.7794907079-1.017440289-2.410001613-.6449280752-.6107387862-1.4408931704-.9320357195-2.3045503118-.9320357195-.0013730638-.0005492255-.9331341706-.0010984511-.9331341706-.0010984511-.9235227239.0008238383-1.7425552912.3322814439-2.3657889581.9586731576-.6261171009.6274901648-.9562016427,1.4502300044-.9575747065,2.3822657239v27.7056817155c-.0013730638.9287403663.3266518823,1.7528532698.9526316768,2.3819911111.625430569.627215552,1.4430900725.9600462214,2.3657889581.9605954469l.9346445408.0010984511c.8677763328-.0024715149,1.6651144918-.324043061,2.3064726011-.9320357195.6664851772-.63298242,1.0175775954-1.4667067702,1.0175775954-2.4121985151,0,.0010984511,0-4.9765325013.0006865319-8.205703988l11.9673496232,10.4545079087.0584925186.0519018123.0654951441.0428395911c.1421121051.0994098204.2792811805.1966227387.4137041283.2996025251.5967335352.4627225066,1.128933071.6837857813,1.6644279599.6813142664.3405198268.0008238383.6971045003-.0527256506,1.0480596121-.1609230794.3789656137-.1189073266.7187989086-.2952087208,1.0210102549-.5294534081.0466841698-.0389950124.9108905367-.7752318315.9108905367-.7752318315.7988485292-.7274492107,1.2034904363-1.6037385392,1.2021173725-2.5591163436,0-.516821221-.101057497-.9866836595-.3085274399-1.4062919622-.1894828069-.3742971967-.3601546394-.6269409392-.5558162334-.8194444865Z"/>
      <path class="cls-1" d="M134.7000320409,8.4536793134c-.7745452996-.8079107504-1.677746679-1.4546238086-2.6861247468-1.9228385704-1.0341916676-.4830438511-2.1478837302-.7271745979-3.3129283796-.7271745979h-11.1575165834c-.8907064986.0005492255-1.6873581257.2872449507-2.3023534097.8320766736-.6657986452.5937127948-1.0153806933,1.4142557323-1.0153806933,2.3748511793.0006865319-.0027461276.0006865319.7326668532.0006865319.7326668532.0013730638.9671861532.3509551118,1.7871798652,1.0126345656,2.3732035027.6247440371.5541685569,1.3991520303.8353720267,2.3059233756.835097414-.0015103702,0,9.1558641498.0008238383,9.1558641498.0008238383,1.0795027736.0005492255,1.8539107668.2339700746,2.2982342182.6969671939.4623105875.4800231107.6880422791,1.1506274793.6880422791,2.04998428,0,0-.0006865319,2.3833641749-.0006865319,3.9486569272h-15.6166786381c-1.3266542608.0005492255-2.5113337228.4149398857-3.5232817565,1.2321874701-1.0995495053.8845277114-1.6581118664,2.2713221674-1.6567388026,4.1191914534l-.0013730638,6.4937680199c0,1.2093946107.2402861681,2.3627682177.7152289427,3.4260688382.4699997448,1.0490207568,1.1296196029,1.9796834125,1.9632066467,2.7678220439.8287813204.7818225378,1.793221346,1.3997012559,2.8686049281,1.8379832265,1.0898007522.4432250004,2.2404282315.6662105644,3.4215377276.6675836282.0006865319,0,10.4359715472.0013730638,10.4359715472.0013730638,1.181796028-.0013730638,2.3322862009-.2246332406,3.4215377276-.6659359516,1.0863680926-.4429503876,2.045315863-1.0652229098,2.8539131453-1.8528123157.7966516271-.7771541209,1.4478957959-1.6943607512,1.9360199831-2.728277806.5041890339-1.0652229099.7591669849-2.2251872231.7605400487-3.4485870848,0-.0008238383.0006865319-16.7305080071.0006865319-16.7305080071-.0006865319-1.2058246448-.2382265724-2.3734781154-.7068532534-3.4711053314-.4547587365-1.0762074204-1.0801893055-2.0346059652-1.8587164902-2.8430659411ZM129.6864268166,30.7687124803c0,.6629152113-.2082937812,1.1764410791-.6587960198,1.6174691774-.46107483.4492664812-.9708934256.6598944708-1.6011297179.658521407l-8.6990458177-.0010984511c-.6302362924.0010984511-1.139368356-.2092549258-1.6025027818-.6601690836-.447756111-.4374581323-.6581094879-.952357064-.6581094879-1.6180184029,0,.0013730638,0-2.6195311516,0-4.2801145328l13.2202703569.0016476766-.0006865319,4.2817622094Z"/>
      <path class="cls-1" d="M74.2572135559,21.3247795415c-1.4388335747-1.2060992576-3.110950692-1.816563431-4.9732371481-1.8171126565l-10.7083874086-.0013730638c-1.1819333344.0005492255-1.5841037266-.4767277575-1.7168789978-.6313347434-.4126056773-.491282234-.6137595266-.9416471662-.6137595266-1.3760845582l.0005492255-2.4753594507c-.0005492255-.8702478477.3170404355-1.2807939292.5576012164-1.5139401655.3852817073-.3721002946,1.0276009612-.5618577142,1.9078721748-.5615831015h12.0458888735c.8441596352.0005492255,1.5990701222-.2707681849,2.2404282315-.8062630738.7075397853-.5931635693,1.0795027736-1.4222195025,1.0795027736-2.3990171025l.0006865319-.734039917c-.0013730638-.9800929531-.3733360521-1.8085996608-1.0759328076-2.3965455876-.6401223519-.5379664038-1.4179630046-.8112061036-2.3115529373-.8117553291-.0006865319,0-13.110974477-.0008238383-13.110974477-.0008238383-1.4447377491.0008238383-2.7406353803.2844988231-3.8535036046.8441596352-1.0725001481.5401633059-1.9935513571,1.2203791213-2.7381638655,2.0233468419-.749143619.80489001-1.3307734522,1.7094644532-1.724156236,2.6843397638-.3955796859.9809167914-.5967335352,1.9038902897-.5967335352,2.744479959,0,.0010984511-.0005492255,4.151046534-.0005492255,4.151046534.0012357574,1.1701249855.2293016576,2.2765398099.6798038962,3.2895862947.4491291748,1.0064557785,1.0389973909,1.867641405,1.7549128655,2.5602147947.7161900874.694495679,1.5602124162,1.2467419465,2.5054295483,1.6438320027.9549658853.3992869582,1.9324500172.6041480798,2.9025196044.6033242415l10.9080308877.0013730638c.4975983276,0,.7274492107.0884253099.8018692696.1252234202.177674458.0900729865.3099005037.1944258366.4094476305.3243176738.1142389096.1485655051.1901693388.3023486527.2319104788.4621732811.0612386463.2268301427.0911714375.4360850685.0891118418.6258424882v2.678298283c0,.2685712828-.0361115784.5865728629-.1072362842.9454917449-.0591790505.3012502016-.1600992412.5684484206-.3064678441.8194444865-.1342856414.2293016576-.3023486527.4171367879-.5164093019.5797075439-.1160238926.0886999226-.3293980099.1356587052-.6009900331.1364825435-.0012357574,0-15.4996936008-.0019222893-15.4996936008-.0019222893-.895512222-.0008238383-1.6943607512.2894418528-2.3097679543.8381181544-.6605810027.5838267353-1.0122226465,1.4043696728-1.0112615018,2.3668874091l-.0009611447.735138368c.0002746128.9644400256.3516416437,1.7855321887,1.0159299188,2.3732035027.6261171009.5547177824,1.4021727707.8342735757,2.3070218267.8337243502l16.4307681757.0027461276c2.4529785105,0,4.4558667015-.8054392355,5.9504466672-2.3929756216,1.4792016509-1.5663912033,2.2279333508-3.7347335844,2.2293064146-6.4429646587l-.0006865319-4.486623331c-.0006865319-2.4130223534-.7647965465-4.2781922435-2.2717340865-5.5427840197Z"/>
      <path class="cls-1" d="M42.3650602599,8.303191519c-.8271336438-.780449474-1.7912990567-1.3994266431-2.8690168473-1.8377086138-1.0884276884-.4424011621-2.2407028443-.6670344027-3.4230480978-.6670344027l-10.4348730961-.0013730638c-1.1794618195.0005492255-2.3303639116.2240840151-3.4204392765.6653867261-1.086505399.4429503877-2.0457277821,1.0665959737-2.8529520006,1.8528123157-.7978873845.7779779592-1.4502300044,1.6965576533-1.936706515,2.7280031932-.5039144211,1.0687928758-.7604027423,2.228757189-.7599908231,3.4491363103l-.0013730638,16.7299587816c-.0002746128,1.2017054533.2368535086,2.3704573751.7053428832,3.4705561059.4590152343,1.0814250629,1.083621965,2.0381759311,1.8596776348,2.8460866815.7763302826.8062630738,1.6795316619,1.4527015192,2.6866739723,1.9222893449,1.0376243271.4811215618,2.1524148408.724703083,3.3127910732.7244284703l11.1572419707.0016476766c.8931780135-.0016476766,1.6898296406-.2883434018,2.304275699-.8337243502.6630525176-.5904174416,1.0122226465-1.4093127026,1.012771872-2.3737527282v-.7332160787c.0004119191-.961693898-.3493074352-1.7811383844-1.009888438-2.3710066005-.6265290201-.5530701058-1.4002504814-.8361958651-2.3059233756-.8370197033h-9.1584729711c-1.0793654672,0-1.8530869285-.2339700746-2.2980969118-.6964179684-.4625852002-.4819454001-.6873557472-1.1522751559-.6873557472-2.0510827311,0,0,.0004119191-2.3828149494.0004119191-3.9492061527l15.6164040253.0005492255c1.3276154054-.0010984511,2.5122948674-.415763724,3.520947548-1.2324620829,1.1002360372-.8837038731,1.6593476238-2.2704983291,1.6593476238-4.1175437768v-6.4945918582c.0009611447-1.2093946107-.2387757979-2.3616697666-.7145424108-3.4266180637-.4680774555-1.0490207568-1.1296196029-1.9794087997-1.9632066467-2.7680966567ZM37.4651447197,19.5049207574l-13.2190345995-.0005492255-.0004119191-4.2820368222c0-.6651121133.2093922322-1.1780887557.6593452453-1.6180184029.4614867492-.4487172557.969245749-.6590706326,1.6011297179-.6590706326l8.699183124.0008238383c.631197437,0,1.1392310496.2100787641,1.6020908626.6604436964.4485799493.4393804217.6576975687.9531809023.6589333262,1.6185676284,0-.0005492255-.0006865319,2.6195311516-.0012357574,4.2798399201Z"/>
    </g>
  </g>
</svg>