<?xml version="1.0" encoding="UTF-8"?>
<svg id="Layer_2" data-name="Layer 2" xmlns="http://www.w3.org/2000/svg" viewBox="0 0 74.7176917911 34.3119117428">
  <defs>
    <style>
      .cls-1 {
        fill: #fff;
      }

      .cls-2 {
        fill: none;
        stroke: #fff;
        stroke-linecap: round;
        stroke-miterlimit: 10;
        stroke-width: .2971021815px;
      }
    </style>
  </defs>
  <g id="Layer_1-2" data-name="Layer 1">
    <g>
      <g>
        <path class="cls-1" d="M58.8546072096,25.4044522319c-.6791070095,0-1.2766847401-.0926883142-1.792733192-.2778372071-.5160484518-.1851488929-.9460129166-.4299644647-1.2898933942-.73421898s-.6044097931-.6504123471-.7806770048-1.0387012308c-.1762672117-.3878334128-.264628553-.7891032152-.264628553-1.2038094071,0-.3352265318.0947379329-.602132439.2846692696-.800489986.1894758658-.198357547.4254097564-.2976501882.7078016718-.2976501882.2555191364,0,.480521727.1038473495.6745523011.3108588424.1940305741.2074669636.2910458612.5490700871.2910458612,1.0252648412,0,.229557299.0309720165.494185852.0929160496.7938856589.0614885622.2999275424.1739898576.5820917224.3370484152.8467202754s.3839619108.4896311436.6617991179.6747800366.6326489847.2778372071,1.0648908036.2778372071c.5907456682,0,1.1045167659-.1036196141,1.5413132931-.3108588424.4363410564-.2072392282.7957075423-.5028397977,1.0780994577-.8865739731.2823919154-.3835064399.4941858519-.842165567.6353818096-1.3757496459.1407404869-.5335840789.2113384657-1.1222801283.2113384657-1.7663158837,0-.5379110518-.0947379329-1.0428004682-.2842137987-1.5148959849-.1899313366-.4716400458-.4545598896-.8840688835-.7938856589-1.2370587778-.3397812401-.3525344234-.7456057508-.6326489847-1.2170180612-.8398882129-.472323252-.2072392282-.9856388789-.3110865778-1.5413132931-.3110865778-.1503053743,0-.3065318695.0066043271-.4700458979.0198129812-.1630585576.0134363895-.3283944694.0421310519-.4960077353.0860839871v-.4233601377l5.2128636641-3.056209278h-.7806770048c-.2468651906,0-.5092163894.0022773542-.7870535965.0066043271-.2778372071.0045547083-.591201139.006604327-.939636325.006604327h-1.2238501237c-.5907456682,0-1.0758221035.0289223978-1.455229306.0860839871-.3794072025.0573893247-.6836617178.1368689848-.9127635459.2382112448-.229557299.10134226-.4012698024.2204478823-.5160484519.3570891317-.1147786495.1368689848-.2072392282.2844415341-.2778372071.4431731189h-.1320865411v-2.8576239955h.1056692329c.1061247037.1058969683.2204478823.1764949471.3438804776.2117939366s.3397812401.0528346164.6485904638.0528346164h6.8926400899v1.4420206519l-5.2124081933,2.9767296179c.864028167-.0528346164,1.6401504635.0111590354,2.3283668896.1919809554.6877609552.18082192,1.2698526776.456381773,1.7462751672.8269072942.4764224895.3702977858.8421655671.828956913,1.0981401742,1.3757496459.2555191364.5470204684.3835064399,1.1644111802.3835064399,1.8523998709,0,.8200752317-.1211552411,1.5324316119-.3634657234,2.1366136696-.2427659531.6041820577-.5889237849,1.1047445013-1.0389289662,1.5014595953-.4495497105.3969428295-.9920154705.6945930177-1.6269418094.8931783002-.6353818096.198357547-1.3495600731.2976501882-2.1434457321.2976501882Z"/>
        <path class="cls-1" d="M70.0209301095,25.4044522319c-.7232876801,0-1.3737000272-.18082192-1.9512370412-.5424657601-.5779924849-.36164384-1.0699009827-.8533246024-1.4752700226-1.4750422871-.4058245107-.6219454201-.7146337343-1.3495600731-.9264276708-2.1830716944-.2113384657-.8335116213-.3174631694-1.726462186-.3174631694-2.6790794296s.1061247037-1.8455678084.3174631694-2.6790794296c.2117939365-.8335116213.5206031602-1.5611262743.9264276708-2.1830716944.4053690399-.6217176847.8972775376-1.1133984471,1.4752700226-1.4750422871.5775370141-.3616438401,1.2279493612-.5424657601,1.9512370412-.5424657601.7319416259,0,1.3846313271.18082192,1.9580691037.5424657601.5729823058.36164384,1.0626134494.8533246024,1.4684379601,1.4750422871.4058245107.6219454201.7146337343,1.3495600731.9259722,2.1830716944.2117939366.8335116213.3179186402,1.726462186.3179186402,2.6790794296s-.1061247037,1.8455678084-.3179186402,2.6790794296c-.2113384657.8335116213-.5201476893,1.5611262742-.9259722,2.1830716944-.4058245107.6217176847-.8954556543,1.1133984471-1.4684379601,1.4750422871-.5734377766.36164384-1.2261274778.5424657601-1.9580691037.5424657601ZM66.9383035233,18.5247930606c0,.8995548918.0769745705,1.7442255484.2313791823,2.5335564991.1544046118.789558686.3684759025,1.4773196413.6417584013,2.063966072s.5975777307,1.0473551765.9724302248,1.382353973c.3748524942.3354542672.7824988882.5028397977,1.2238501237.5028397977.4408957647,0,.8508195128-.1673855305,1.2302267153-.5028397977.3794072025-.3349987964.7078016718-.7957075423.9856388789-1.382353973s.494185852-1.274407386.6485904638-2.063966072c.153949141-.7893309506.2313791823-1.6340016072.2313791823-2.5335564991s-.0774300413-1.743997813-.2313791823-2.5335564991c-.1544046118-.7893309506-.3707532567-1.4773196413-.6485904638-2.063966072-.2778372071-.5864186953-.6062316764-1.0471274411-.9856388789-1.3825817084-.3794072025-.3349987964-.7893309506-.5026120623-1.2302267153-.5026120623-.4413512355,0-.8489976295.1676132659-1.2238501237.5026120623-.3748524942.3354542672-.699147726.7961630131-.9724302248,1.3825817084-.2732824988.5866464307-.4873537895,1.2746351214-.6417584013,2.063966072-.1544046118.789558686-.2313791823,1.6340016073-.2313791823,2.5335564991Z"/>
      </g>
      <line class="cls-2" x1="50.9484736035" y1="11.192127624" x2="50.9484736035" y2="34.163360652"/>
      <g>
        <g>
          <polygon class="cls-1" points="45.3627626477 12.759062971 45.3627626477 11.192154637 39.8737078399 11.192154637 39.8737078399 19.0230395784 45.3627626477 19.0230395784 45.3627626477 17.4567406992 41.7380301246 17.4567406992 41.7380301246 15.8745959947 45.0440177784 15.8745959947 45.0440177784 14.3082971154 41.7380301246 14.3082971154 41.7380301246 12.759062971 45.3627626477 12.759062971"/>
          <path class="cls-1" d="M36.1054487074,14.272948736c-.805089813-.2340306497-1.500477759-.435760194-1.500477759-.9812222551,0-.5104184091.6417559221-.56557407.9175342267-.56557407.5786773486,0,1.4281811814.2746736678,2.1759441507.6841511228l.9592818817-1.3859383444.0150459158-.0323011053-.044794929-.0295585586c-.8069181775-.530530418-1.9142975797-.8471421954-2.9622551372-.8471421954-1.8503048239,0-3.0457504471.9190578638-3.0457504471,2.3415254063,0,1.6254159965,1.4282573633,2.0233899919,2.5758607833,2.3433537707.8209356383.2285455563,1.5300363177.4266183718,1.5300363177.9921924418,0,.429056191-.3943172665.6752759371-1.0820870273.6752759371-.782463803,0-1.8096998967-.4219712788-2.558529412-1.0352732792l-.9342561433,1.3603031512-.0085323674.017483735.0368720164.0310821957c.9126585882.7746170722,2.1995224339,1.2365838233,3.4425055329,1.2365838233,1.8701121054,0,3.0786610072-.9361225986,3.0786610072-2.3847966983.0063992756-1.6644211048-1.4361802759-2.0837260187-2.5950586101-2.4201450776Z"/>
          <polygon class="cls-1" points="24.9100684496 11.192154637 22.6761118185 11.192154637 20.6091458072 14.2455232693 19.4200994596 14.2455232693 19.4200994596 11.192154637 17.5557771749 11.192154637 17.5557771749 19.0224301236 19.4200994596 19.0224301236 19.4200994596 15.9696709461 20.435146457 15.9696709461 22.4052091524 18.994395202 22.4237975243 19.0224301236 24.655925791 19.0224301236 22.1428388538 15.221260431 24.9100684496 11.192154637"/>
          <path class="cls-1" d="M28.9090062302,14.272948736c-.805089813-.2340306497-1.500477759-.435760194-1.500477759-.9812222551,0-.5104184091.6417559221-.56557407.9175342267-.56557407.5781059847,0,1.4264289988.2741784857,2.1736206042.6829703041l.9680808856-1.3986607137.0085704584-.0183979173-.044794929-.0295585586c-.8069181775-.530530418-1.9142975797-.8471421954-2.9622551372-.8471421954-1.8503048239,0-3.0457504471.9190578638-3.0457504471,2.3415254063,0,1.6254159965,1.4282573632,2.0233899919,2.5758607833,2.3433537707.8209356383.2285455563,1.5300363177.4266183718,1.5300363177.9921924418,0,.429056191-.3943172665.6752759371-1.0820870273.6752759371-.7831494396,0-1.8115663521-.4226950064-2.5605482311-1.036911189l-.9244667753,1.3460190539-.0163029164.0334057421.0368720164.0310821957c.9126585882.7746170722,2.199522434,1.2365838233,3.4425055329,1.2365838233,1.8701121055,0,3.0786610072-.9361225986,3.0786610072-2.3847966983.0063992756-1.6644211048-1.4361802759-2.0837260187-2.5950586101-2.4201450776Z"/>
          <path class="cls-1" d="M12.2356924969,15.6409847879l-.0000007317-.0000007843c-.4002508219-.4289739678-1.0761303476-.4414763773-1.4919721607-.0275983785l-5.7099912334,5.5938961381c-.3973258799.3954495072-.4091153233,1.0348549584-.0266372515,1.4446825955l.0456233632.0488857179.0000007317.0000007842c.4002497496.4289729127,1.0761285276.4414724378,1.491965772.027591974l5.7099721937-5.5939133195c.3973115577-.3954419524.4091112144-1.0348246579.0266608021-1.4446569331l-.0456214855-.0488877945Z"/>
          <path class="cls-1" d="M7.3257754241.3300483095l-.0000007317-.0000007843c-.4002508219-.4289739678-1.0761303476-.4414763773-1.4919721606-.0275983785l-2.7469927786,2.7262792798c-.3973258799.3954495073-.4091153234,1.0348549584-.0266372515,1.4446825955l.0456233632.0488857179.0000007317.0000007843c.4002497496.4289729126,1.0761285276.4414724378,1.491965772.027591974l2.7469737388-2.7262964612c.3973115577-.3954419524.4091112144-1.0348246579.0266608021-1.4446569331l-.0456214855-.0488877945Z"/>
          <path class="cls-1" d="M17.2293314276.5112686085l-.0000007317-.0000007843c-.4002508219-.4289739678-1.0761303476-.4414763773-1.4919721607-.0275983785L5.0345025729,11.1694220568c-.3973258799.3954495073-.4091153233,1.0348549584-.0266372515,1.4446825955l.0456233632.0488857179.0000007317.0000007842c.4002497496.4289729127,1.0761285276.4414724378,1.491965772.027591974L17.248292111,2.0048133361c.3973115577-.3954419524.4091112144-1.0348246579.0266608021-1.4446569331l-.0456214855-.0488877945Z"/>
          <path class="cls-1" d="M12.3303824829.3669268652l-.0000007317-.0000007843c-.4002508219-.4289739678-1.0761303476-.4414763773-1.4919721606-.0275983785L.3059226132,10.8547113285c-.3973258799.3954495072-.4091153233,1.0348549584-.0266372515,1.4446825955l.0456233632.0488857179.0000007317.0000007842c.4002497496.4289729126,1.0761285276.4414724378,1.491965772.027591974L12.3493431663,1.8604715928c.3973115577-.3954419524.4091112144-1.0348246579.0266608021-1.4446569331l-.0456214854-.0488877945Z"/>
          <path class="cls-1" d="M17.2399714178,5.5439193067l-.0000007317-.0000007843c-.4002508219-.4289739678-1.0761303476-.4414763773-1.4919721607-.0275983785l-11.4942938206,11.4771904693c-.3973258799.3954495073-.4091153233,1.0348549584-.0266372515,1.4446825956l.0456233632.0488857179.0000007317.0000007843c.4002497496.4289729127,1.0761285276.4414724378,1.491965772.027591974l11.4942747808-11.4772076507c.3973115577-.3954419524.4091112144-1.0348246579.0266608021-1.4446569331l-.0456214855-.0488877945Z"/>
          <path class="cls-1" d="M12.3422414835,20.5300356911l-.0000007317-.0000007842c-.4002508219-.4289739678-1.0761303476-.4414763773-1.4919721606-.0275983785l-2.2997688099,2.2790553112c-.3973258799.3954495073-.4091153233,1.0348549584-.0266372515,1.4446825955l.0456233632.0488857179.0000007317.0000007843c.4002497496.4289729126,1.0761285276.4414724378,1.491965772.027591974l2.2997497701-2.2790724925c.3973115577-.3954419524.4091112144-1.0348246579.0266608021-1.4446569331l-.0456214855-.0488877946Z"/>
        </g>
        <g>
          <path class="cls-1" d="M17.5660184733,23.2115091078h.3234870742v1.0125696374h.265637196l.7469324414-1.0125696374h.3699243914l-.8441359783,1.1455850036.8941151248,1.1562104915h-.4021943915l-.7504742707-.9838414665h-.2798045131v.9838414665h-.3234870742v-2.3017954951Z"/>
          <path class="cls-1" d="M20.9244597035,25.2439288093c-.1326218297.1902749396-.340802684.3124680498-.6032915873.3124680498-.4667343917,0-.8331169539-.3842884768-.8331169539-.9049373809,0-.5100234163.352215245-.9013955516.8331169539-.9013955516.2624889033,0,.4706697576.1149126833.6032915873.3016457936v-.2585535374h.3195517083v1.7201484201h-.3195517083v-.2693757935ZM20.9244597035,24.6514594782c0-.3376543913-.2333671959-.6032915873-.5564607335-.6032915873s-.5603960993.265637196-.5603960993.6032915873c0,.3339157937.2373025617.6068334166.5603960993.6068334166s.5564607335-.2729176228.5564607335-.6068334166Z"/>
          <path class="cls-1" d="M21.6619472668,23.7931561828h.2872817082v-.4273807331h.3160098791v.4273807331h.488378904v.2837398789h-.4848370747v.9084792102c0,.1831912811.0826426832.2729176228.2369090251.2729176228.0861845125,0,.1723690249-.0322700001.222741708-.0897263418l.1471826834.2406476227c-.0787073173.0789040856-.222741708.1471826834-.4128198794.1471826834-.3230935376,0-.5171070748-.1902749396-.5171070748-.560199331v-.9193014663h-.2837398789v-.2837398789Z"/>
          <path class="cls-1" d="M23.0739565395,24.6514594782c0-.4992011601.3844852451-.9013955516.8764059784-.9013955516.4954625625,0,.8795542711.4021943915.8795542711.9013955516s-.3840917085.9049373809-.8795542711.9049373809c-.4919207333,0-.8764059784-.4057362208-.8764059784-.9049373809ZM24.5103650807,24.6514594782c0-.3376543913-.2333671959-.6032915873-.5564607335-.6032915873s-.5603960993.265637196-.5603960993.6032915873c0,.3339157937.2373025617.6068334166.5603960993.6068334166s.5564607335-.2729176228.5564607335-.6068334166Z"/>
          <path class="cls-1" d="M27.779079969,23.7931561828l-.5529189042,1.7201484201h-.3911753671l-.4202970745-1.3144121993-.4167552452,1.3144121993h-.3624471963l-.5529189042-1.7201484201h.340802684l.3986525622,1.3645881141.4309225623-1.3645881141h.3486734157l.4344643916,1.3683267117.4021943915-1.3683267117h.340802684Z"/>
          <path class="cls-1" d="M28.1470366775,23.2976936202c0-.1078290247.0901198783-.1975553665.1975553665-.1975553665.1078290247,0,.1975553665.0897263418.1975553665.1975553665,0,.1076322564-.0897263417.1975553665-.1975553665.1975553665-.1074354881,0-.1975553665-.08992311-.1975553665-.1975553665ZM28.5063355811,25.5133046029h-.3195517083v-1.7201484201h.3195517083v1.7201484201Z"/>
          <path class="cls-1" d="M29.8837136342,24.0481678909c-.3411962206,0-.5784987823.265637196-.5784987823.6032915873,0,.3339157937.2373025617.6068334166.5745634165.6068334166.1869298786,0,.3486734157-.0609981709.463586099-.1759108542l.1648918298.2333671959c-.136163659.1471826834-.37700805.2406476227-.6391034167.2406476227-.5025462211,0-.8834896369-.4057362208-.8834896369-.9049373809s.3844852451-.9013955516.8870314662-.9013955516c.2766562204,0,.5029397577.0934649393.6465806118.2406476227l-.1833880494.2262835373c-.1149126833-.1078290247-.265637196-.1688271957-.452173538-.1688271957Z"/>
          <path class="cls-1" d="M30.7774352224,24.6514594782c0-.4992011601.3628407329-.9013955516.8512196368-.9013955516.4812952454,0,.8476778076.3842884768.8476778076.8691255515,0,.0430922562-.0039353659.0897263418-.0110190244.1149126833h-1.3643913458c.0358118294.3087294522.2620953667.5385548188.5887307336.5385548188.1940135372,0,.3663825621-.0753622563.4812952454-.1902749396l.1688271957.2190031104c-.1400990248.150921281-.3844852451.2550117081-.6607479289.2550117081-.5241907334,0-.9015923199-.4057362208-.9015923199-.9049373809ZM31.1080059552,24.5221827095h1.0412978082c-.0503726831-.3195517083-.247534513-.4992011601-.5171070748-.4992011601-.2801980497,0-.4773598796.2119194519-.5241907334.4992011601Z"/>
          <path class="cls-1" d="M18.6938943305,28.0575186353c-.1042871955-.1471826834-.3234870742-.2729176228-.5710215872-.2729176228-.2766562204,0-.4490252453.1221931101-.4490252453.3087294522,0,.506481587,1.2856840285.2766562204,1.2856840285,1.0954090888,0,.4057362208-.3305707328.6786538436-.8441359783.6786538436-.4305290257,0-.7107270754-.1688271957-.8689287832-.3913721354l.2333671959-.2190031104c.1546598785.2010971958.3774015866.3051876229.6394969532.3051876229.316009879,0,.4954625625-.1365571955.4954625625-.3520184767,0-.560199331-1.2856840285-.3124680498-1.2856840285-1.1060345767,0-.3697276231.3266353669-.6247393312.804388783-.6247393312.3592989036,0,.6501224411.1580049395.7902214659.3553635377l-.2298253666.222741708Z"/>
          <path class="cls-1" d="M19.7761199437,28.1041527208v.262292135c.1330153663-.1869298786.3411962206-.3053843912.599749758-.3053843912.4667343917,0,.8366587831.3842884768.8366587831.9049373809,0,.5100234162-.3557570743.9013955516-.8366587831.9013955516-.2585535374,0-.4667343917-.111370854-.599749758-.2943653668v.9551132957h-.3195517083v-2.4239886052h.3195517083ZM19.7761199437,28.9659978455c0,.3376543913.2333671959.6032915873.5600025627.6032915873.3234870742,0,.5568542701-.265637196.5568542701-.6032915873,0-.3339157937-.2333671959-.6068334166-.5568542701-.6068334166-.3266353669,0-.5600025627.2729176228-.5600025627.6068334166Z"/>
          <path class="cls-1" d="M21.5934719007,28.9624560162c0-.4992011601.3628407329-.9013955516.8512196368-.9013955516.4812952454,0,.847284271.3842884768.847284271.8691255515,0,.0430922562-.0035418293.0897263418-.0106254878.1149126833h-1.3643913458c.0358118294.3087294522.2620953667.5385548188.5887307336.5385548188.1940135372,0,.3663825621-.0753622563.4812952454-.1902749396l.1688271957.2190031105c-.1400990248.150921281-.3844852451.2550117081-.6607479289.2550117081-.52458427,0-.9015923199-.4057362208-.9015923199-.9049373809ZM21.9240426334,28.8331792475h1.0412978082c-.0503726831-.3195517083-.2479280496-.4992011601-.5171070748-.4992011601-.2801980497,0-.4777534161.2119194519-.5241907334.4992011601Z"/>
          <path class="cls-1" d="M24.5508993491,28.3591644289c-.3411962206,0-.5781052457.2658339643-.5781052457.6032915873,0,.3339157937.2369090251.6068334165.5745634165.6068334165.1865363421,0,.3482798792-.0609981709.4631925624-.1759108542l.1648918298.2333671959c-.136163659.1473794517-.37700805.2406476227-.6391034167.2406476227-.5025462211,0-.8834896369-.4057362208-.8834896369-.9049373809s.3844852451-.9013955516.8870314662-.9013955516c.2766562204,0,.5029397577.0934649393.6465806118.2406476227l-.1833880494.2262835373c-.1149126833-.1078290247-.265637196-.1688271957-.452173538-.1688271957Z"/>
          <path class="cls-1" d="M25.5473339864,27.6086901583c0-.1078290247.0901198783-.1975553665.1975553665-.1975553665.1078290247,0,.1975553665.0897263417.1975553665.1975553665,0,.1076322564-.0897263418.1973585982-.1975553665.1973585982-.1074354881,0-.1975553665-.0897263418-.1975553665-.1973585982ZM25.90663289,29.8243011409h-.3195517083v-1.7201484201h.3195517083v1.7201484201Z"/>
          <path class="cls-1" d="M27.8294526521,29.5549253474c-.1326218297.1904717079-.340802684.3124680498-.6032915873.3124680498-.4667343917,0-.8331169539-.3842884768-.8331169539-.9049373809,0-.509826648.352215245-.9013955516.8331169539-.9013955516.2624889033,0,.4706697576.1149126833.6032915873.3016457936v-.2585535374h.3195517083v1.7201484201h-.3195517083v-.2693757935ZM27.8294526521,28.9624560162c0-.337457623-.2333671959-.6032915873-.5564607335-.6032915873s-.5603960993.2658339643-.5603960993.6032915873c0,.3339157937.2373025617.6068334165.5603960993.6068334165s.5564607335-.2729176228.5564607335-.6068334165Z"/>
          <path class="cls-1" d="M28.7581989965,27.3536784502h.3195517083v2.4706226907h-.3195517083v-2.4706226907Z"/>
          <path class="cls-1" d="M17.4223776192,31.8335021838h1.4615948827v.3051876229h-1.1381078085v.6894760997h.9944669544v.3051876229h-.9944669544v.6967565266h1.1381078085v.3051876229h-1.4615948827v-2.3017954951Z"/>
          <path class="cls-1" d="M20.1000005545,32.670160967c-.3411962206,0-.5781052457.265637196-.5781052457.6032915873,0,.3339157937.2369090251.6068334165.5745634165.6068334165.1865363421,0,.3482798792-.0609981709.4631925624-.1759108542l.1648918298.2333671959c-.136163659.1471826834-.37700805.2406476227-.6391034167.2406476227-.5025462211,0-.8834896369-.4057362208-.8834896369-.9049373809s.3844852451-.9013955516.8870314662-.9013955516c.2766562204,0,.5029397577.0934649393.6465806118.2406476227l-.1833880494.2262835373c-.1149126833-.1078290247-.265637196-.1688271957-.452173538-.1688271957Z"/>
          <path class="cls-1" d="M20.9937221427,33.2734525543c0-.4992011601.3844852451-.9013955516.8764059784-.9013955516.4954625625,0,.8795542711.4021943915.8795542711.9013955516s-.3840917085.9049373809-.8795542711.9049373809c-.4919207333,0-.8764059784-.4057362208-.8764059784-.9049373809ZM22.4301306838,33.2734525543c0-.3376543913-.2333671959-.6032915873-.5564607335-.6032915873s-.5603960993.265637196-.5603960993.6032915873c0,.3339157937.2373025617.6068334165.5603960993.6068334165s.5564607335-.2729176228.5564607335-.6068334165Z"/>
          <path class="cls-1" d="M23.5639095899,34.1352976789h-.3195517083v-1.7201484201h.3195517083v.2119194519c.1078290247-.1615467688.2908235375-.2550117081.5171070748-.2550117081.4057362208,0,.6678315875.2764594521.6678315875.711120612v1.0521200643h-.3195517083v-1.0019441495c0-.2837398789-.1652853664-.4631925624-.4344643916-.4631925624s-.4309225623.1794526835-.4309225623.4631925624v1.0019441495Z"/>
          <path class="cls-1" d="M25.2136149609,33.2734525543c0-.4992011601.3844852451-.9013955516.8764059784-.9013955516.4954625625,0,.8799478077.4021943915.8799478077.9013955516s-.3844852451.9049373809-.8799478077.9049373809c-.4919207333,0-.8764059784-.4057362208-.8764059784-.9049373809ZM26.6500235021,33.2734525543c0-.3376543913-.2333671959-.6032915873-.5564607335-.6032915873s-.5600025627.265637196-.5600025627.6032915873c0,.3339157937.2369090251.6068334165.5600025627.6068334165s.5564607335-.2729176228.5564607335-.6068334165Z"/>
          <path class="cls-1" d="M27.7838024081,34.1352976789h-.3195517083v-1.7201484201h.3195517083v.2154612812c.1038936589-.1580049395.2762626838-.2585535374.4954625625-.2585535374.2695725618,0,.470276221.1292767687.5745634165.3484766475.093268171-.2010971958.2837398789-.3484766475.5603960993-.3484766475.3986525622,0,.6568125631.2693757935.6568125631.711120612v1.0521200643h-.3195517083v-1.0019441495c0-.2837398789-.154266342-.4631925624-.4092780501-.4631925624-.2585535374,0-.4163617086.1794526835-.4163617086.4631925624v1.0019441495h-.3160098791v-1.0019441495c0-.2837398789-.1582017078-.4631925624-.4132134159-.4631925624-.2585535374,0-.4128198794.1794526835-.4128198794.4631925624v1.0019441495Z"/>
          <path class="cls-1" d="M30.6200205878,31.9196866963c0-.1078290247.0901198783-.1975553665.1975553665-.1975553665.1078290247,0,.1975553665.0897263418.1975553665.1975553665,0,.1076322564-.0897263417.1975553665-.1975553665.1975553665-.1074354881,0-.1975553665-.08992311-.1975553665-.1975553665ZM30.9793194914,34.1352976789h-.3195517083v-1.7201484201h.3195517083v1.7201484201Z"/>
          <path class="cls-1" d="M32.3570910811,32.670160967c-.3411962206,0-.5781052457.265637196-.5781052457.6032915873,0,.3339157937.2369090251.6068334165.5745634165.6068334165.1865363421,0,.3482798792-.0609981709.4631925624-.1759108542l.1648918298.2333671959c-.136163659.1471826834-.37700805.2406476227-.6391034167.2406476227-.5025462211,0-.8834896369-.4057362208-.8834896369-.9049373809s.3844852451-.9013955516.8870314662-.9013955516c.2766562204,0,.5029397577.0934649393.6465806118.2406476227l-.1833880494.2262835373c-.1149126833-.1078290247-.265637196-.1688271957-.452173538-.1688271957Z"/>
          <path class="cls-1" d="M35.2739842611,32.1386898068h-1.2821421992v-.3051876229h1.6985039078v.3051876229l-1.2998513456,1.6914202493h1.3144121993v.3051876229h-1.7311674445v-.3051876229l1.3002448822-1.6914202493Z"/>
          <path class="cls-1" d="M36.0063558487,33.2734525543c0-.4992011601.3844852451-.9013955516.8764059784-.9013955516.4954625625,0,.8795542711.4021943915.8795542711.9013955516s-.3840917085.9049373809-.8795542711.9049373809c-.4919207333,0-.8764059784-.4057362208-.8764059784-.9049373809ZM37.4427643899,33.2734525543c0-.3376543913-.2333671959-.6032915873-.5564607335-.6032915873s-.5603960993.265637196-.5603960993.6032915873c0,.3339157937.2373025617.6068334165.5603960993.6068334165s.5564607335-.2729176228.5564607335-.6068334165Z"/>
          <path class="cls-1" d="M38.5765432959,34.1352976789h-.3195517083v-1.7201484201h.3195517083v.2119194519c.1078290247-.1615467688.2908235375-.2550117081.5171070748-.2550117081.4057362208,0,.6678315875.2764594521.6678315875.711120612v1.0521200643h-.3195517083v-1.0019441495c0-.2837398789-.1652853664-.4631925624-.4344643916-.4631925624s-.4309225623.1794526835-.4309225623.4631925624v1.0019441495Z"/>
          <path class="cls-1" d="M40.2329387889,33.2734525543c0-.4992011601.3628407329-.9013955516.8512196368-.9013955516.4812952454,0,.847284271.3842884768.847284271.8691255515,0,.0430922562-.0035418293.0897263418-.0106254878.1149126833h-1.3643913458c.0358118294.3087294522.2620953667.5385548188.5887307336.5385548188.1940135372,0,.3663825621-.0753622563.4812952454-.1902749396l.1688271957.2190031105c-.1400990248.150921281-.3844852451.2550117081-.6607479289.2550117081-.52458427,0-.9015923199-.4057362208-.9015923199-.9049373809ZM40.5635095217,33.1441757856h1.0412978082c-.0503726831-.3195517083-.2479280496-.4992011601-.5171070748-.4992011601-.2801980497,0-.4777534161.2119194519-.5241907334.4992011601Z"/>
        </g>
      </g>
      <g>
        <path class="cls-1" d="M57.319439297,27.3486845752v.0531274392c-.1239640248.0177091464-.211329147.0564725002-.2624889033.1162900613-.0507662197.0598175612-.0684753661.1519051224-.0531274392.2758691472.0153479269.1241607931.0609981709.2890526229.136163659.4950690259.0755590246.2060164031.1794526835.4641764039.3124680498.7742832342.0621787807.1507245127.1196351223.2857075619.1727625615.4053426842s.1031065857.2349413422.1495439029.345525123c.0464373172.1107805491.0940552442.2215610983.1428537809.3323416474s.1019259759.2304156715.1593823176.358905367c.106648415-.2526504886.2062131714-.4873950625.2990878058-.70443049.093268171-.2170354275.1861428055-.4385965258.2794109765-.6646832948.1282929272-.309910062.2223481714-.570234514.2821657326-.7807765878.0598175612-.2103453055.08185561-.3821240256.0665076831-.5151393919-.0153479269-.132818598-.0676882929-.2325801227-.1562340249-.2988910375-.088545732-.0665076831-.2148709763-.1131417687-.3785821963-.1397054882v-.0531274392h1.4486081753v.0531274392c-.088545732.0222348171-.1660724396.0564725002-.2325801227.1031065857-.0665076831.0464373172-.1330153663.1217995735-.1991295128.2258900007-.0665076831.1040904272-.140886098.2459603666-.222741708.4254130501-.0822491466.1794526835-.1829945128.4153778672-.3026296351.707775551-.1684336591.4120328062-.3565441475.8561388442-.5647250018,1.332318114-.2081808543.4763760381-.4143940257.9560971372-.617852441,1.4387697606-.0621787807.1463956102-.1275058541.3024328668-.1963747567.4687020747-.0684753661.1660724395-.1404925614.3309642693-.216051586.495069026-.075165488.1639079883-.1558404883.3199452449-.2424185374.4685053064-.0861845125.1483632932-.177091464.2801980497-.2723273179.3953075013-.095235854.1153062199-.1971618299.2071970129-.3057779278.2758691472s-.2270706105.1031065857-.3557570743.1031065857c-.1326218297,0-.2491086593-.0344344513-.3486734157-.1031065857s-.1495439029-.1739431713-.1495439029-.3156163425c0-.0665076831.0133802439-.1229801833.0397471952-.1694175005.0267604879-.0466340855.0598175612-.0832329881.099958293-.1097967077.0397471952-.0265637196.0830362198-.0464373172.129473537-.0598175612.0464373172-.0131834757.0897263417-.0198735976.129473537-.0198735976.0487985367,0,.0873651222.0009838415.1164868296.003345061.0287281708.0021644512.0574563416.0055095122.0861845125.0100351829.0287281708.0043289025.0633593904.0076739634.1031065857.0098384147s.0928746344.003345061.1593823176.003345061c.1062548784,0,.216051586-.0643432319.3289965864-.1926361592.1129450004-.1286864638.2203804885-.2815754277.3223064644-.4586668917.1019259759-.1772882323.1928329274-.355560306.2727208545-.5350129895.0794943905-.1794526835.1393119517-.3223064644.1794526835-.4285613428-.195194147-.4563056722-.3899947573-.9082824419-.5851889043-1.3557335409-.1948006104-.447451099-.3718920743-.8661740271-.5316679285-1.2559720162-.1192415857-.2923976839-.2203804885-.5283228675-.3022360985-.707775551s-.1562340249-.321322623-.222741708-.4254130501c-.0661141465-.1040904272-.1326218297-.1794526835-.1991295128-.2258900007-.0665076831-.0466340855-.1440343907-.0808717686-.2325801227-.1031065857v-.0531274392h1.7343157372Z"/>
        <path class="cls-1" d="M61.6455869936,31.6350850765c-.2613082935,0-.5049074406-.0531274392-.7307974413-.1593823176s-.4230518306-.2557987813-.5914854897-.4486317087c-.1684336591-.1926361592-.3002684156-.4252162818-.3955042695-.6977403681s-.1428537809-.574956953-.1428537809-.9071018321c0-.3323416474.047617927-.6335939044.1428537809-.9039535394.095235854-.2701628667.2270706105-.5017591479.3955042695-.6943953071.1684336591-.1928329274.365595489-.3421800621.5914854897-.4486317087.2258900007-.1062548784.4694891478-.1593823176.7307974413-.1593823176.2617018301,0,.5029397577.0586369514.724500856.1761076225.2215610983.1172739028.4088845135.2790174399.5615767091.485033843s.2624889033.4498123185.3289965864.7309942096c.0665076831.2813786594.075165488.5838115262.0267604879.9071018321h-2.7712846429c.0086578049.2880687814.0574563416.5495738432.1460020736.7843184171.088545732.2349413422.2014907323.4352514648.3388350011.6013239043.1373442687.1662692078.2935782936.2935782936.4687020747.3821240256.1747302445.0887425003.3510346353.1330153663.5281260992.1330153663.1995230494,0,.3679567085-.0454534758.5053009772-.136163659.1373442687-.0909069515.2502892691-.1894878665.3388350011-.2957427448.1019259759-.1284896955.1861428055-.2725240862.2526504886-.4321031721l.1593823176.0731978051c-.088545732.1772882323-.183781586.3299804279-.2857075619.4584701234-.1019259759.1286864638-.2172321958.2337607324-.345525123.3156163425-.1286864638.0820523783-.2727208545.1418699395-.4321031721.1794526835s-.3411962206.0564725002-.5450481725.0564725002ZM62.5361602891,29.3490310449c.0401407318-.2347445739.045650244-.4685053064.0165285366-.701085429-.0287281708-.2325801227-.0842168295-.4429254282-.1660724396-.6314294532-.08185561-.1881104884-.1861428055-.3409994523-.3120745132-.4584701234-.1263252443-.1172739028-.2691790252-.1761076225-.4289548794-.1761076225-.1550534151,0-.299874879.047617927-.4352514648.1428537809-.1349830492.0954326223-.2534375618.2292350617-.3553635377.4019976232-.1019259759.1729593298-.1829945128.3799595744-.2428120739.6213942703-.0598175612.2416314642-.0916940247.5084492699-.0960229271.8008469537h2.0200232991Z"/>
        <path class="cls-1" d="M63.7128346831,30.4322404996c0-.2258900007.0432890245-.4307257941.129473537-.6147041483.0865780491-.183781586.2007036592-.348870184.3423768304-.495069026s.3057779278-.2735079277.4919207333-.3821240256c.1857492689-.1084193296.3785821963-.1993262811.5781052457-.2725240862.1991295128-.0730010368.399833172-.1284896955.6013239043-.1660724395s.3888141476-.0564725002.5615767091-.0564725002v-.0332538416c0-.1682368908-.0255798781-.3167969522-.0763460978-.4452866478-.0511597563-.1284896955-.1231769516-.2359251837-.216051586-.3223064644s-.2026713421-.1517083541-.3289965864-.1959812201-.2648501228-.0665076831-.4151810989-.0665076831c-.1373442687,0-.2451732935.0210542074-.3223064644.0631626221-.0775267076.0421084148-.140886098.095235854-.1896846347.1593823176-.0487985367.0643432319-.088545732.1330153663-.1196351223.2060164031-.0310893903.0731978051-.0641464636.1418699395-.0995647564.2060164031-.0354182928.0643432319-.08185561.1174706711-.1397054882.1595790859-.0574563416.0421084148-.1393119517.0631626222-.24556683.0631626222-.106648415,0-.188504025-.0320732318-.2459603666-.0964164637-.0578498782-.0641464636-.0865780491-.1404925614-.0865780491-.2292350617,0-.1064516467.0444696343-.2014907324.1330153663-.2857075619s.2038519519-.1572178663.345525123-.219396647c.1416731712-.0619820124.3002684156-.1095999394.4753921966-.1428537809.1747302445-.0332538416.3510346353-.0497823782.5281260992-.0497823782.2613082935,0,.4993979284.0275475611.7142689047.0830362198s.3990460988.1428537809.5517382944.2624889033.2715402448.2725240862.3557570743.4584701234c.0838232929.1861428055.1259317077.4077039037.1259317077.6646832948v1.2959159797c0,.2258900007.0055095122.4263968916.0169220732.6013239043.0110190244.175123781.0354182928.3234870742.0728042685.4452866477.0377795123.1219963418.0897263417.2182160373.1562340249.2890526229.0665076831.0710333539.1550534151.1153062199.2660307325.1330153663v.0531274392h-.6713734168c-.177091464,0-.3144357327-.0564725002-.4120328062-.1694175005s-.1526921956-.2603244521-.1660724395-.4419415868c-.2215610983.2392702447-.4565024405.4230518306-.70443049.5515415261-.2483215862.1284896955-.5493770749.1926361591-.9039535394.1926361591-.1593823176,0-.306565001-.0287281708-.4419415868-.0863812808-.1349830492-.0574563416-.2514698788-.13950872-.3486734157-.2457635983-.0975970735-.1064516467-.1739431713-.2337607325-.22943183-.3821240256s-.0830362198-.31128744-.0830362198-.4885756723ZM64.4570123684,30.3458592188c0,.0975970735.0121996342.2026713421.0365989026.3158131108.0243992684.1129450004.0641464636.2170354275.1196351223.3122712815s.1286864638.175123781.2191998787.2392702447c.0909069515.0641464636.2030648787.0964164637.3356867084.0964164637.2746885375,0,.5127781724-.0665076831.7146624413-.1995230494.2014907323-.132818598.3797628061-.2945621351.5348162212-.485033843v-2.0137267137c-.2923976839.0045256707-.5592154896.0554886587-.8008469538.1528889639-.2416314642.0975970735-.4486317087.2258900007-.6213942703.3854690866-.1727625615.1593823176-.3057779278.3421800621-.3986525622.5481964651s-.1397054882.4220679891-.1397054882.6479579899Z"/>
        <path class="cls-1" d="M67.6733868907,31.5022664786v-.0531274392c.1109773174-.0177091464.1995230494-.0619820124.2660307325-.1330153663.0665076831-.0708365856.1184545126-.167056281.1562340249-.2890526229.0373859757-.1217995736.0617852441-.2701628667.0728042685-.4452866477.0110190244-.1749270128.0169220732-.3754339036.0169220732-.6013239043v-.2658339643c0-.1019259759.0007870732-.2048357933.0031482927-.3091229888.0023612195-.1040904272.0035418293-.2048357933.0035418293-.3024328668v-.2325801227c0-.2258900007-.0059030488-.4262001233-.0169220732-.6013239043-.0110190244-.1749270127-.0354182928-.3244709157-.0728042685-.4486317087-.0377795123-.1239640248-.0897263417-.2203804885-.1562340249-.2890526229s-.1550534151-.1119611589-.2660307325-.1296703053v-.0531274392h1.2427885405v.70443049c.0621787807-.1062548784.1385248785-.2093614641.22943183-.3089262205.0905134149-.0997615247.1971618299-.1894878664.3187646352-.2691790252.1219963418-.0798879271.2557987813-.1428537809.4021943915-.1894878665.1463956102-.0464373172.3057779278-.0696559758.4785404893-.0696559758.1861428055,0,.3565441475.0330570733.5115975626.0995647564s.263669513.1461988419.3258482937.2392702447v.9104468931h-.0531274392c-.1243575614-.2790174399-.2825592692-.488378904-.4753921966-.6280843922-.1928329274-.13950872-.4084909769-.2091646958-.6477612216-.2091646958-.1019259759,0-.2129032934.0165285366-.3325384157.0497823782s-.2337607324.0863812808-.3419832938.1593823176c-.1086160979.0731978051-.2018842689.1652853664-.2794109765.2758691472-.0775267076.1107805491-.122783415.2437959154-.136163659.3988493305,0,.1593823176.0011806098.3177807937.0035418293.47499866.0019676829.1574146346.0031482927.3024328668.0031482927.4354482331v.5582316481c0,.2258900007.0055095122.4263968916.0165285366.6013239043.0110190244.175123781.0354182928.3234870742.0731978051.4452866477.0377795123.1219963418.0897263417.2182160373.1562340249.2890526229.0665076831.0710333539.1550534151.1153062199.265637196.1330153663v.0531274392h-1.7677663471Z"/>
        <path class="cls-1" d="M74.1663470332,30.6715107442c0-.1593823176-.0401407318-.2900364643-.1196351223-.3919624403-.0798879271-.1019259759-.1849621957-.1849621957-.3156163425-.2493054276-.1310476833-.0641464636-.2794109765-.1184545126-.445483416-.1627273786s-.3356867084-.0887425003-.5084492699-.1330153663-.3419832938-.095235854-.5080557333-.1528889639c-.1664659761-.0574563417-.3148292693-.1349830492-.445483416-.2325801227-.1306541468-.0974003052-.2357284154-.2203804885-.3156163425-.3687437817s-.1196351223-.3356867084-.1196351223-.5615767091c0-.1461988419.0287281708-.2914138424.0865780491-.4352514648.0574563416-.1440343907.1491503663-.2725240862.2754756106-.3854690866.1263252443-.1131417687.2892493912-.2050325616.4887724406-.2758691472.1991295128-.0708365856.4383997575-.1062548784.7174171974-.1062548784.2392702447,0,.4486317087.0177091464.6280843922.0531274392s.3289965864.0753622563.4486317087.1196351223c.1463956102.0487985367.270359635.1062548784.3722856109.1727625615v.9104468931h-.0531274392c-.0842168295-.2036551836-.1928329274-.3854690866-.3258482937-.5450481724-.1153062199-.1371475004-.2613082935-.2624889033-.4383997575-.3754339036-.1774850006-.1129450004-.3923559769-.1694175005-.6446129289-.1694175005-.3191581717,0-.5741698799.0653270734-.7642480512.1959812201-.1908652445.130850915-.2861010985.2890526229-.2861010985.4751954283,0,.1639079883.040927805.2981039644.1231769516.4019976232.08185561.1042871955.1881104884.191849086.3187646352.2626856716s.2813786594.129473537.452173538.1761076225c.170401342.0464373172.3431639035.0940552442.5182876846.1428537809s.3478863426.1029098174.5182876846.1627273786.3211258547.1385248785.4517800014.2359251837c.1306541468.0975970735.2373025617.219396647.3191581717.365595489s.122783415.3278159767.122783415.5448514042c0,.1772882323-.0373859757.3445412816-.1129450004.5017591479-.075165488.1574146346-.1837815859.2947589034-.3254547571.4120328062-.1420667078.1174706711-.3156163425.2093614641-.5218295138.2758691472-.2058196348.0665076831-.4395803672.0995647564-.7008886608.0995647564-.3057779278,0-.5596090262-.0210542074-.7610997585-.0629658538-.2014907323-.0423051831-.3620536597-.0897263418-.481688782-.1430505492-.1420667078-.0619820124-.2502892691-.1304573785-.3258482937-.2060164031v-1.1229566499h.0531274392c.0798879271.2569793911.188504025.485033843.3258482937.6843601241.0574563416.0842168295.1251446345.1674498176.2026713421.2493054276.0775267076.0820523783.1648918298.1550534151.2624889033.2191998787.0972035369.0643432319.2058196348.1164868296.3254547571.1562340249.1196351223.0399439635.2526504886.0598175612.3990460988.0598175612.2258900007,0,.4096715867-.0308926221.5513447578-.0930714027.1416731712-.0619820124.2550117081-.136163659.3392285377-.2225449397.0838232929-.0863812808.1416731712-.1749270128.1727625615-.2658339643.0306958538-.0907101832.0464373172-.1629241469.0464373172-.216051586Z"/>
      </g>
    </g>
  </g>
</svg>