<?xml version="1.0" encoding="UTF-8"?>
<svg id="Layer_2" data-name="Layer 2" xmlns="http://www.w3.org/2000/svg" viewBox="0 0 168.0869935476 76.9978884883">
  <defs>
    <style>
      .cls-1 {
        fill: #fff;
      }

      .cls-2 {
        fill: none;
        stroke: #fff;
        stroke-linecap: round;
        stroke-miterlimit: 10;
        stroke-width: .2860880439px;
      }
    </style>
  </defs>
  <g id="Layer_1-2" data-name="Layer 1">
    <g>
      <g>
        <path class="cls-1" d="M132.4009581285,57.150560945c-1.5277379799,0-2.8720654309-.2085142045-4.0329823533-.6250302936-1.1609169223-.4165160891-2.1281769176-.9672599953-2.9017799859-1.6517193987s-1.3596970485-1.4631856709-1.7562326609-2.3366911221c-.3965356125-.8724808114-.5953157386-1.7751884977-.5953157386-2.7081230588,0-.7541349116.2131250837-1.3545738494.6403998909-1.8008044934.4262501674-.446230644.957013597-.669602126,1.5922902889-.669602126.5748229421,0,1.0809950159.2336178802,1.5174915816.6993166809.4364965657.4667234405.6547448485,1.2352033097.6547448485,2.3064642472,0,.5164184721.0696755081,1.1117342107.2090265244,1.7859472159.1383263764.6747253251.3914124134,1.309489697.7582334709,1.9048054356.3668210575.5953157386.8637713729,1.1014878125,1.4888016665,1.5180039015.6250302936.4165160891,1.4232247176.6250302936,2.3956079121.6250302936,1.3289578537,0,2.4847515769-.2331055603,3.4673811696-.6993166809.9816049529-.4662111206,1.7900457752-1.1312023674,2.425322467-1.9944614204.6352766918-.8627467331,1.1117342107-1.8945590374,1.4293725566-3.094924593.3166137061-1.2003655556.475432879-2.5247125301.475432879-3.9735532434,0-1.210099634-.2131250837-2.3459128805-.6393752511-3.4079520597-.4272748072-1.0610145393-1.0225905459-1.9888259014-1.7859472159-2.7829217661-.7643813098-.7930712249-1.6773353944-1.4232247177-2.7378376138-1.8894358383-1.0625514991-.4662111206-2.2173205824-.6998290008-3.4673811696-.6998290008-.3381311424,0-.6895826026.0148572775-1.0574282999.0445718324-.3668210575.0302268748-.7387653142.0947791838-1.11583277.193656927v-.9524027178l11.7270028031-6.8753332293h-1.7562326609c-.5553547854,0-1.1455473249.0051231991-1.7705776185.0148572775-.6250302936.0102463982-1.3299824935.0148572775-2.1138319601.0148572775h-2.7532072112c-1.3289578537,0-2.4201992679.0650646289-3.2737242426.193656927-.8535249747.129104618-1.5379843781.3079042676-2.0533782103.5358866288-.5164184721.2279823612-.9027076863.4959256755-1.1609169223.8033176232-.258209236.3079042676-.4662111206.639887571-.6250302936.9969745502h-.2971455494v-6.4285902653h.2377164395c.2387410794.2382287594.4959256756.3970479324.7736030683.4764575189s.7643813098.1188582198,1.4590871115.1188582198h15.5058744796v3.2440096876l-11.7259781633,6.6965335797c1.943741749-.1188582198,3.6897280117.0251036757,5.2379587881.4318856864,1.5472061365.4067820107,2.8566958336,1.0266891052,3.928469091,1.8602336032,1.0717732575.8330321781,1.8945590374,1.8648444824,2.4704066193,3.094924593.5748229421,1.2305924305.8627467331,2.619491714.8627467331,4.1672101704,0,1.8448640059-.2725541936,3.447400693-.8176625808,4.8065854215-.546133027,1.3591847286-1.3248592944,2.4852638968-2.337203442,3.3777251848-1.0113195078.892973608-2.23166554,1.5625757339-3.6600134568,2.0093186979-1.4293725566.446230644-3.036007803.6696021259-4.8219550189.6696021259Z"/>
        <path class="cls-1" d="M157.521028091,57.150560945c-1.6271280429,0-3.0903137138-.4067820107-4.3895570125-1.2203460322-1.3002679386-.8135640214-2.4068789501-1.9196627131-3.3188083949-3.318296075-.9129540845-1.3991456817-1.6076598862-3.036007803-2.0841174051-4.9110986837-.4754328791-1.8750908807-.7141739584-3.8838972586-.7141739584-6.0269314537s.2387410793-4.151840573.7141739584-6.0269314537c.4764575189-1.8750908807,1.1711633206-3.511953002,2.0841174051-4.9110986838.9119294447-1.3986333618,2.0185404563-2.5047320535,3.3188083949-3.3182960749,1.2992432988-.8135640215,2.7624289696-1.2203460322,4.3895570125-1.2203460322,1.6465961996,0,3.1149050696.4067820107,4.4049266099,1.2203460322,1.2889969005.8135640214,2.3904847129,1.9196627131,3.3034387975,3.3182960749.9129540845,1.3991456818,1.6076598862,3.036007803,2.0830927653,4.9110986838.4764575189,1.8750908807.7151985982,3.8838972586.7151985982,6.0269314537s-.2387410793,4.151840573-.7151985982,6.0269314537c-.475432879,1.8750908807-1.1701386807,3.511953002-2.0830927653,4.9110986837-.9129540845,1.3986333619-2.014441897,2.5047320535-3.3034387975,3.318296075-1.2900215403.8135640215-2.7583304103,1.2203460322-4.4049266099,1.2203460322ZM150.5862657519,41.6738887004c0,2.0236636554.1731641305,3.9238582118.5205170314,5.6995590294.3473529009,1.7762131376.8289336189,3.3234192741,1.4437175142,4.6431553694.6147838953,1.3197360953,1.3443274511,2.3561592788,2.1876060275,3.1097818705.8432785764.7546472315,1.7603312203,1.1312023674,2.7532072112,1.1312023674.9918513511,0,1.9140271941-.3765551359,2.7675521687-1.1312023674.8535249747-.7536225917,1.5922902889-1.7900457752,2.2173205824-3.1097818705.6250302936-1.3197360953,1.1117342107-2.8669422318,1.4590871115-4.6431553694.346328261-1.7757008176.5205170314-3.675895374.5205170314-5.6995590294s-.1741887703-3.9233458919-.5205170314-5.6995590295c-.3473529008-1.7757008176-.834056818-3.3234192741-1.4590871115-4.6431553694-.6250302936-1.3192237753-1.3637956078-2.3556469589-2.2173205824-3.1102941904-.8535249747-.7536225917-1.7757008176-1.1306900475-2.7675521687-1.1306900475-.9928759909,0-1.9099286348.3770674558-2.7532072112,1.1306900475-.8432785764.7546472315-1.5728221322,1.791070415-2.1876060275,3.1102941904-.6147838953,1.3197360953-1.0963646133,2.8674545517-1.4437175142,4.6431553694-.3473529008,1.7762131375-.5205170314,3.6758953741-.5205170314,5.6995590295Z"/>
      </g>
      <line class="cls-2" x1="114.6151005011" y1="25.1781209862" x2="114.6151005011" y2="76.8548444663"/>
      <g>
        <g>
          <polygon class="cls-1" points="102.0493300807 28.7031422395 102.0493300807 25.1781817552 89.701000014 25.1781817552 89.701000014 42.7947578977 102.0493300807 42.7947578977 102.0493300807 39.2711684599 93.8950311775 39.2711684599 93.8950311775 35.7119318138 101.3322727749 35.7119318138 101.3322727749 32.188342376 93.8950311775 32.188342376 93.8950311775 28.7031422395 102.0493300807 28.7031422395"/>
          <path class="cls-1" d="M81.2238196662,32.1088216805c-1.811152392-.526481846-3.3755164186-.9802982288-3.3755164186-2.2073848229,0-1.1482514218,1.443711937-1.2723311277,2.0641104664-1.2723311277,1.3018086269,0,3.2128760306.6179135077,4.8950643636,1.5390853573l2.1580271498-3.1178453719.0338477098-.0726654631-.1007719158-.066495754c-1.8152655314-1.1934959555-4.3064569743-1.9057545987-6.6639713861-1.9057545987-4.1624970946,0-6.8518047531,2.0675380826-6.8518047531,5.2675605525,0,3.6565809458,3.2130474115,4.5518742932,5.7947279217,5.271673692,1.8467996003.5141424277,3.4420121726.9597325317,3.4420121726,2.2320636594,0,.9652167176-.8870670686,1.519119493-2.4342930143,1.519119493-1.7602522916,0-4.0711511233-.9492783024-5.7557387876-2.3289795071l-2.101728554,3.0601757297-.0191946506.0393318957.0829483117.0699233702c2.0531420946,1.7426000683,4.9481067241,2.7818532954,7.7443560075,2.7818532954,4.207056105,0,6.9258412627-2.1059273838,6.9258412627-5.3649048522.014395988-3.7443279201-3.2308710156-4.6876078941-5.8379158857-5.4444255476Z"/>
          <polygon class="cls-1" points="56.0383814648 25.1781817552 51.0128106149 25.1781817552 46.3629064989 32.0471245892 43.6879948284 32.0471245892 43.6879948284 25.1781817552 39.4939636649 25.1781817552 39.4939636649 42.7933868512 43.6879948284 42.7933868512 43.6879948284 35.9258150637 45.9714727306 35.9258150637 50.4033804573 42.7303187134 50.4451973748 42.7933868512 55.4666550852 42.7933868512 49.8131449503 34.2421699938 56.0383814648 25.1781817552"/>
          <path class="cls-1" d="M65.034502903,32.1088216805c-1.8111523919-.526481846-3.3755164186-.9802982288-3.3755164186-2.2073848229,0-1.1482514218,1.443711937-1.2723311277,2.0641104664-1.2723311277,1.3005232708,0,3.208934272.6167995324,4.889837249,1.5364289548l2.1778216333-3.1464659671.019280341-.0413884654-.1007719158-.066495754c-1.8152655314-1.1934959555-4.3064569744-1.9057545987-6.6639713862-1.9057545987-4.1624970946,0-6.851804753,2.0675380826-6.851804753,5.2675605525,0,3.6565809458,3.2130474114,4.5518742932,5.7947279217,5.271673692,1.8467996003.5141424277,3.4420121726.9597325317,3.4420121726,2.2320636594,0,.9652167176-.8870670686,1.519119493-2.4342930143,1.519119493-1.7617947189,0-4.0753499531-.95090642-5.7602803791-2.3326641944l-2.07970612,3.0280418279-.0366754932.0751504848.0829483117.0699233702c2.0531420946,1.7426000683,4.9481067241,2.7818532954,7.7443560075,2.7818532954,4.207056105,0,6.9258412627-2.1059273838,6.9258412627-5.3649048522.014395988-3.7443279201-3.2308710156-4.6876078941-5.8379158857-5.4444255476Z"/>
          <path class="cls-1" d="M27.5257534926,35.1863935583l-.0000016461-.0000017643c-.9004153595-.9650317459-2.4208927025-.9931575135-3.3563819884-.0620860784l-12.8453547827,12.5841840338c-.8938353288.8896141888-.9203571881,2.3280384411-.0599239003,3.24999807l.1026355843.1099746681.0000016461.0000017643c.9004129473.9650293722,2.420888608.993148651,3.3563676163.0620716706l12.8453119504-12.5842226855c.8938031092-.8895971931.9203479444-2.3279702762.0599768805-3.2499403389l-.1026313601-.1099793397Z"/>
          <path class="cls-1" d="M16.4802677508.7424858389l-.0000016462-.0000017643c-.9004153595-.9650317459-2.4208927024-.9931575134-3.3563819884-.0620860783l-6.1797112086,6.1331135469c-.8938353288.8896141889-.9203571881,2.3280384411-.0599239003,3.24999807l.1026355843.1099746681.0000016461.0000017643c.9004129473.9650293722,2.420888608.993148651,3.3563676163.0620716706l6.1796683763-6.1331521987c.8938031092-.8895971931.9203479444-2.3279702762.0599768805-3.2499403389l-.1026313601-.1099793397Z"/>
          <path class="cls-1" d="M38.75958225,1.1501640541l-.0000016461-.0000017643c-.9004153595-.9650317459-2.4208927024-.9931575134-3.3563819884-.0620860783L11.3257567413,25.1270419119c-.8938353288.8896141888-.9203571881,2.3280384411-.0599239003,3.24999807l.1026355843.1099746681.0000016462.0000017643c.9004129472.9650293722,2.420888608.993148651,3.3563676163.0620716706L38.8022367296,4.5100837327c.8938031092-.8895971932.9203479444-2.3279702762.0599768805-3.2499403389l-.1026313601-.1099793397Z"/>
          <path class="cls-1" d="M27.7387707137.8254488614l-.0000016461-.0000017643c-.9004153595-.9650317459-2.4208927024-.9931575134-3.3563819884-.0620860783L.6882120028,24.4190599214c-.8938353288.8896141888-.9203571881,2.3280384411-.0599239003,3.24999807l.1026355843.1099746681.0000016461.0000017642c.9004129473.9650293722,2.420888608.993148651,3.3563676162.0620716706L27.7814251932,4.1853685401c.8938031092-.8895971932.9203479444-2.3279702762.0599768805-3.249940339l-.1026313601-.1099793397Z"/>
          <path class="cls-1" d="M38.7835182672,12.4717547665l-.0000016461-.0000017643c-.9004153595-.965031746-2.4208927025-.9931575135-3.3563819884-.0620860784l-25.8578824497,25.819406276c-.8938353288.8896141889-.9203571881,2.3280384411-.0599239004,3.24999807l.1026355843.1099746681.0000016462.0000017643c.9004129472.9650293722,2.420888608.9931486509,3.3563676162.0620716706l25.8578396174-25.8194449277c.8938031092-.8895971932.9203479444-2.3279702762.0599768805-3.249940339l-.1026313601-.1099793396Z"/>
          <path class="cls-1" d="M27.7654490506,46.1849381857l-.0000016461-.0000017642c-.9004153595-.965031746-2.4208927024-.9931575135-3.3563819884-.0620860784l-5.1736237542,5.1270260925c-.8938353288.8896141888-.9203571881,2.3280384411-.0599239003,3.24999807l.1026355843.1099746681.0000016462.0000017643c.9004129472.9650293722,2.420888608.993148651,3.3563676162.0620716707l5.1735809218-5.1270647442c.8938031093-.8895971932.9203479444-2.3279702762.0599768805-3.2499403389l-.1026313601-.1099793397Z"/>
        </g>
        <g>
          <path class="cls-1" d="M39.5170027741,52.217255219h.7277255018v2.2779047642h.5975848099l1.6803199543-2.2779047642h.8321921797l-1.8989917292,2.5771398245,2.0114262045,2.6010432169h-.9047876677l-1.6882877518-2.2132770736h-.6294559997v2.2132770736h-.7277255018v-5.1781830415Z"/>
          <path class="cls-1" d="M47.0722453927,56.7894429977c-.2983497495.428047786-.7666791783.7029367986-1.3571815016.7029367986-1.0499786437,0-1.8742030259-.8645060249-1.8742030259-2.0357722523,0-1.147362835.7923531924-2.0278044549,1.8742030259-2.0278044549.5905023232,0,1.058831752.2585107622,1.3571815016.6785907508v-.5816492149h.7188723935v3.8696936356h-.7188723935v-.6059952628ZM47.0722453927,55.456607544c0-.7595966917-.5249893219-1.3571815015-1.2518295129-1.3571815015s-1.2606826211.5975848099-1.2606826211,1.3571815015c0,.7511862388.5338424302,1.365149299,1.2606826211,1.365149299s1.2518295129-.6139630602,1.2518295129-1.365149299Z"/>
          <path class="cls-1" d="M48.731317887,53.5257446249h.6462769055v-.9614475608h.7109045961v.9614475608h1.0986707394v.638309108h-1.0907029419v2.0437400498c0,.4121121911.1859152742.6139630602.5329571193.6139630602.1938830717,0,.3877661433-.072595488.5010859295-.2018508691l.3311062502.5413675722c-.1770621659.1775048213-.5010859295.3311062502-.9286910601.3311062502-.726840191,0-1.1632984299-.428047786-1.1632984299-1.2602399657v-2.0680860976h-.638309108v-.638309108Z"/>
          <path class="cls-1" d="M51.9078131431,55.456607544c0-1.1230167871.8649486804-2.0278044549,1.9715872172-2.0278044549,1.1146063343,0,1.9786697038.9047876677,1.9786697038,2.0278044549s-.8640633695,2.0357722523-1.9786697038,2.0357722523c-1.1066385368,0-1.9715872172-.9127554652-1.9715872172-2.0357722523ZM55.1391976706,55.456607544c0-.7595966917-.5249893219-1.3571815015-1.2518295128-1.3571815015s-1.2606826211.5975848099-1.2606826211,1.3571815015c0,.7511862388.5338424302,1.365149299,1.2606826211,1.365149299s1.2518295128-.6139630602,1.2518295128-1.365149299Z"/>
          <path class="cls-1" d="M62.4925894201,53.5257446249l-1.2438617154,3.8696936356h-.8799989645l-.9455119659-2.9569381704-.9375441684,2.9569381704h-.8153712739l-1.2438617154-3.8696936356h.7666791783l.8968198702,3.0698153011.9694153583-3.0698153011h.7843853949l.9773831557,3.078225754.9047876677-3.078225754h.7666791783Z"/>
          <path class="cls-1" d="M63.3203550456,52.4111382907c0-.2425751673.2027361799-.4444260364.4444260364-.4444260364.2425751673,0,.4444260364.2018508691.4444260364.4444260364,0,.2421325119-.2018508691.4444260364-.4444260364.4444260364-.2416898564,0-.4444260364-.2022935245-.4444260364-.4444260364ZM64.1286438329,57.3954382605h-.7188723935v-3.8696936356h.7188723935v3.8696936356Z"/>
          <path class="cls-1" d="M67.227231736,54.0994260424c-.7675644891,0-1.3014069193.5975848099-1.3014069193,1.3571815015,0,.7511862388.5338424302,1.365149299,1.292553811,1.365149299.420522644,0,.7843853949-.1372231786,1.0428961571-.3957339408l.3709452375.5249893219c-.306317547.3311062502-.8481277746.5413675722-1.437744787.5413675722-1.1305419292,0-1.9875228121-.9127554652-1.9875228121-2.0357722523s.8649486804-2.0278044549,1.9954906096-2.0278044549c.6223735131,0,1.13142724.210261322,1.4545656928.5413675722l-.4125548465.5090537269c-.2585107622-.2425751673-.5975848099-.3797983458-1.017222143-.3797983458Z"/>
          <path class="cls-1" d="M69.2377726297,55.456607544c0-1.1230167871.8162565848-2.0278044549,1.9149273241-2.0278044549,1.0827351444,0,1.9069595266.864506025,1.9069595266,1.9552089669,0,.0969415358-.0088531083.2018508691-.0247887032.2585107622h-3.0693726457c.0805632855.6945263457.5896170124,1.2115478701,1.3244250009,1.2115478701.4364582389,0,.8242243822-.1695370239,1.0827351444-.4280477861l.3797983458.4926754766c-.3151706553.3395167031-.8649486804.5736814175-1.4864368827.5736814175-1.1792340248,0-2.0282471103-.9127554652-2.0282471103-2.0357722523ZM69.9814337264,55.1657829365h2.3425324547c-.1133197862-.7188723935-.5568605117-1.1230167872-1.1632984299-1.1230167872-.6303413106,0-1.0738820361.4767398817-1.1792340248,1.1230167872Z"/>
          <path class="cls-1" d="M42.0543036113,63.1189727729c-.2346073698-.3311062502-.7277255018-.6139630602-1.2845860135-.6139630602-.6223735131,0-1.0101396564.2748890125-1.0101396564.6945263457,0,1.1393950375,2.8923104798.6223735131,2.8923104798,2.4642626938,0,.9127554652-.7436610967,1.5267185254-1.8989917292,1.5267185254-.9685300474,0-1.598871358-.3797983458-1.9547663114-.8804416199l.5249893219-.4926754766c.347927156.4523938339.8490130854.6865585483,1.4386300979.6865585483.7109045961,0,1.1146063343-.3072028578,1.1146063343-.7919105369,0-1.2602399657-2.8923104798-.7029367986-2.8923104798-2.4881660862,0-.8317495243.7348079884-1.4054309418,1.8095753354-1.4054309418.8082887873,0,1.4625334903.355452298,1.7777041455.799435679l-.5170215244.5010859295Z"/>
          <path class="cls-1" d="M44.4889083923,63.2238821062v.5900596678c.2992350604-.420522644.7675644891-.6870012036,1.3492137041-.6870012036,1.0499786437,0,1.8821708234.864506025,1.8821708234,2.0357722523,0,1.147362835-.8003209898,2.0278044548-1.8821708234,2.0278044548-.5816492149,0-1.0499786437-.2505429647-1.3492137041-.6622125004v2.1486493831h-.7188723935v-5.453072054h.7188723935ZM44.4889083923,65.1627128227c0,.7595966917.5249893219,1.3571815015,1.2597973103,1.3571815015.7277255018,0,1.2527148237-.5975848099,1.2527148237-1.3571815015,0-.7511862388-.5249893219-1.365149299-1.2527148237-1.365149299-.7348079884,0-1.2597973103.6139630602-1.2597973103,1.365149299Z"/>
          <path class="cls-1" d="M48.5772738027,65.1547450253c0-1.1230167872.8162565848-2.0278044549,1.9149273241-2.0278044549,1.0827351444,0,1.9060742158.864506025,1.9060742158,1.9552089668,0,.0969415358-.0079677975.2018508691-.0239033924.2585107622h-3.0693726457c.0805632855.6945263457.5896170124,1.2115478701,1.3244250009,1.2115478701.4364582389,0,.8242243822-.1695370238,1.0827351444-.4280477861l.3797983458.4926754766c-.3151706553.3395167031-.8649486804.5736814175-1.4864368827.5736814175-1.1801193357,0-2.0282471103-.9127554652-2.0282471103-2.0357722523ZM49.3209348995,64.8639204178h2.3425324547c-.1133197862-.7188723935-.5577458226-1.1230167871-1.1632984299-1.1230167871-.6303413106,0-1.074767347.4767398816-1.1792340248,1.1230167871Z"/>
          <path class="cls-1" d="M55.2303846861,63.7975635237c-.7675644891,0-1.3005216085.5980274653-1.3005216085,1.3571815016,0,.7511862388.5329571193,1.365149299,1.292553811,1.365149299.4196373332,0,.7835000841-.1372231786,1.0420108463-.3957339408l.3709452375.5249893219c-.306317547.3315489056-.8481277746.5413675722-1.437744787.5413675722-1.1305419292,0-1.9875228121-.9127554652-1.9875228121-2.0357722523s.8649486804-2.0278044549,1.9954906096-2.0278044549c.6223735131,0,1.13142724.210261322,1.4545656928.5413675722l-.4125548465.5090537269c-.2585107622-.2425751673-.5975848099-.3797983458-1.017222143-.3797983458Z"/>
          <path class="cls-1" d="M57.4719917062,62.1092757719c0-.2425751673.2027361799-.4444260363.4444260364-.4444260363.2425751673,0,.4444260364.2018508691.4444260364.4444260363,0,.2421325119-.2018508691.443983381-.4444260364.443983381-.2416898564,0-.4444260364-.2018508691-.4444260364-.443983381ZM58.2802804935,67.0935757417h-.7188723935v-3.8696936355h.7188723935v3.8696936355Z"/>
          <path class="cls-1" d="M62.6059092063,66.487580479c-.2983497495.4284904415-.7666791783.7029367986-1.3571815016.7029367986-1.0499786437,0-1.874203026-.864506025-1.874203026-2.0357722523,0-1.1469201796.7923531924-2.0278044549,1.874203026-2.0278044549.5905023232,0,1.058831752.2585107622,1.3571815016.6785907508v-.581649215h.7188723935v3.8696936355h-.7188723935v-.6059952628ZM62.6059092063,65.1547450253c0-.7591540363-.5249893219-1.3571815016-1.2518295128-1.3571815016s-1.2606826211.5980274653-1.2606826211,1.3571815016c0,.7511862388.5338424302,1.365149299,1.2606826211,1.365149299s1.2518295128-.6139630602,1.2518295128-1.365149299Z"/>
          <path class="cls-1" d="M64.6952427638,61.5355943544h.7188723935v5.5579813873h-.7188723935v-5.5579813873Z"/>
          <path class="cls-1" d="M39.1938643213,71.6135301815h3.2880444206v.6865585483h-2.5603189188v1.5510645732h2.237180466v.6865585482h-2.237180466v1.5674428236h2.5603189188v.6865585482h-3.2880444206v-5.1781830415Z"/>
          <path class="cls-1" d="M45.2175192049,73.4957010049c-.7675644891,0-1.3005216085.5975848099-1.3005216085,1.3571815016,0,.7511862388.5329571193,1.365149299,1.292553811,1.365149299.4196373332,0,.7835000841-.1372231785,1.0420108463-.3957339407l.3709452375.5249893219c-.306317547.3311062502-.8481277746.5413675722-1.437744787.5413675722-1.1305419292,0-1.9875228121-.9127554652-1.9875228121-2.0357722523s.8649486804-2.0278044549,1.9954906096-2.0278044549c.6223735131,0,1.13142724.210261322,1.4545656928.5413675722l-.4125548465.5090537269c-.2585107622-.2425751673-.5975848099-.3797983458-1.017222143-.3797983458Z"/>
          <path class="cls-1" d="M47.2280600986,74.8528825065c0-1.1230167872.8649486804-2.0278044549,1.9715872172-2.0278044549,1.1146063343,0,1.9786697038.9047876677,1.9786697038,2.0278044549s-.8640633695,2.0357722523-1.9786697038,2.0357722523c-1.1066385368,0-1.9715872172-.9127554652-1.9715872172-2.0357722523ZM50.4594446261,74.8528825065c0-.7595966917-.5249893219-1.3571815016-1.2518295128-1.3571815016s-1.2606826211.5975848099-1.2606826211,1.3571815016c0,.7511862388.5338424302,1.365149299,1.2606826211,1.365149299s1.2518295128-.6139630602,1.2518295128-1.365149299Z"/>
          <path class="cls-1" d="M53.0100251258,76.791713223h-.7188723935v-3.8696936356h.7188723935v.4767398817c.2425751673-.3634200955.654244703-.5736814175,1.1632984299-.5736814175.9127554652,0,1.5023724776.6219308577,1.5023724776,1.5997566688v2.3668785025h-.7188723935v-2.2540013718c0-.638309108-.3718305484-1.0420108463-.9773831557-1.0420108463s-.9694153583.4037017382-.9694153583,1.0420108463v2.2540013718Z"/>
          <path class="cls-1" d="M56.7212481229,74.8528825065c0-1.1230167872.8649486804-2.0278044549,1.9715872172-2.0278044549,1.1146063343,0,1.9795550147.9047876677,1.9795550147,2.0278044549s-.8649486804,2.0357722523-1.9795550147,2.0357722523c-1.1066385368,0-1.9715872172-.9127554652-1.9715872172-2.0357722523ZM59.9526326504,74.8528825065c0-.7595966917-.5249893219-1.3571815016-1.2518295128-1.3571815016s-1.2597973103.5975848099-1.2597973103,1.3571815016c0,.7511862388.5329571193,1.365149299,1.2597973103,1.365149299s1.2518295128-.6139630602,1.2518295128-1.365149299Z"/>
          <path class="cls-1" d="M62.50321315,76.791713223h-.7188723935v-3.8696936356h.7188723935v.4847076791c.233722059-.355452298.6214882023-.581649215,1.1146063343-.581649215.6064379182,0,1.0579464412.2908246075,1.292553811.7839427395.2098186666-.4523938339.638309108-.7839427395,1.2606826211-.7839427395.8968198702,0,1.4775837744.6059952628,1.4775837744,1.5997566688v2.3668785025h-.7188723935v-2.2540013718c0-.638309108-.3470418452-1.0420108463-.9207232626-1.0420108463-.581649215,0-.9366588576.4037017382-.9366588576,1.0420108463v2.2540013718h-.7109045961v-2.2540013718c0-.638309108-.3558949534-1.0420108463-.9295763709-1.0420108463-.581649215,0-.9286910601.4037017382-.9286910601,1.0420108463v2.2540013718Z"/>
          <path class="cls-1" d="M68.8836482979,71.8074132532c0-.2425751673.2027361799-.4444260364.4444260364-.4444260364.2425751673,0,.4444260364.2018508691.4444260364.4444260364,0,.2421325118-.2018508691.4444260364-.4444260364.4444260364-.2416898564,0-.4444260364-.2022935245-.4444260364-.4444260364ZM69.6919370852,76.791713223h-.7188723935v-3.8696936356h.7188723935v3.8696936356Z"/>
          <path class="cls-1" d="M72.7914102991,73.4957010049c-.7675644891,0-1.3005216085.5975848099-1.3005216085,1.3571815016,0,.7511862388.5329571193,1.365149299,1.292553811,1.365149299.4196373332,0,.7835000841-.1372231785,1.0420108463-.3957339407l.3709452375.5249893219c-.306317547.3311062502-.8481277746.5413675722-1.437744787.5413675722-1.1305419292,0-1.9875228121-.9127554652-1.9875228121-2.0357722523s.8649486804-2.0278044549,1.9954906096-2.0278044549c.6223735131,0,1.13142724.210261322,1.4545656928.5413675722l-.4125548465.5090537269c-.2585107622-.2425751673-.5975848099-.3797983458-1.017222143-.3797983458Z"/>
          <path class="cls-1" d="M79.353334167,72.3000887298h-2.8843426824v-.6865585483h3.8210015399v.6865585483l-2.9241816697,3.805065945h2.9569381704v.6865585482h-3.8944823388v-.6865585482l2.9250669805-3.805065945Z"/>
          <path class="cls-1" d="M81.0008976207,74.8528825065c0-1.1230167872.8649486804-2.0278044549,1.9715872172-2.0278044549,1.1146063343,0,1.9786697038.9047876677,1.9786697038,2.0278044549s-.8640633696,2.0357722523-1.9786697038,2.0357722523c-1.1066385368,0-1.9715872172-.9127554652-1.9715872172-2.0357722523ZM84.2322821482,74.8528825065c0-.7595966917-.5249893219-1.3571815016-1.2518295128-1.3571815016s-1.2606826211.5975848099-1.2606826211,1.3571815016c0,.7511862388.5338424302,1.365149299,1.2606826211,1.365149299s1.2518295128-.6139630602,1.2518295128-1.365149299Z"/>
          <path class="cls-1" d="M86.7828626478,76.791713223h-.7188723935v-3.8696936356h.7188723935v.4767398817c.2425751673-.3634200955.654244703-.5736814175,1.1632984299-.5736814175.9127554652,0,1.5023724776.6219308577,1.5023724776,1.5997566688v2.3668785025h-.7188723935v-2.2540013718c0-.638309108-.3718305484-1.0420108463-.9773831557-1.0420108463s-.9694153583.4037017382-.9694153583,1.0420108463v2.2540013718Z"/>
          <path class="cls-1" d="M90.509135929,74.8528825065c0-1.1230167872.8162565848-2.0278044549,1.9149273241-2.0278044549,1.0827351444,0,1.9060742158.864506025,1.9060742158,1.9552089669,0,.0969415358-.0079677975.2018508691-.0239033924.2585107622h-3.0693726457c.0805632855.6945263457.5896170124,1.2115478701,1.3244250009,1.2115478701.4364582389,0,.8242243822-.1695370238,1.0827351444-.428047786l.3797983458.4926754766c-.3151706553.3395167031-.8649486804.5736814175-1.4864368827.5736814175-1.1801193357,0-2.0282471103-.9127554652-2.0282471103-2.0357722523ZM91.2527970257,74.562057899h2.3425324547c-.1133197862-.7188723935-.5577458226-1.1230167872-1.1632984299-1.1230167872-.6303413106,0-1.074767347.4767398817-1.1792340248,1.1230167872Z"/>
        </g>
      </g>
      <g>
        <path class="cls-1" d="M128.9474017774,61.5243599947v.119516962c-.2788729113.0398389873-.4754119154.127042104-.5905023232.2616093501-.114205097.1345672461-.1540440843.3417299802-.119516962.6206028915.0345271223.2793155667.1372231786.6502608042.306317547,1.1137210234.1699796793.4634602192.4037017382,1.0442241234.7029367986,1.741849057.1398791111.3390740477.2691344922.6427356622.3886514541.9118701543s.2319514373.5285305652.3364181152.7773029083c.1044666779.2492149985.2115892882.498429997.3213678311.7476449955s.2292955048.5183494906.3585508859.8074034765c.2399192348-.5683695525.4639028746-1.0964574623.6728362304-1.5847063847.2098186666-.4882489224.4187520223-.9866789194.6285706889-1.4952899909.2886113304-.6971822782.5002006186-1.2828153919.6347678647-1.7564566857.1345672461-.4731986383.1841446525-.8596368154.1496175302-1.1588718757-.0345271224-.2987924049-.1522734627-.5232187002-.3514683993-.672393575-.1991949366-.1496175302-.4833797129-.2545268635-.8516690179-.3142853444v-.119516962h3.2588291632v.119516962c-.1991949366.0500200619-.37360117.127042104-.5232187002.2319514373-.1496175302.1044666779-.2992350604.2740037017-.4479672797.5081684161-.1496175302.2341647144-.3169412769.5533192684-.5010859295.9570210066-.1850299634.4037017382-.4116695357.9344455805-.6808040278,1.5922315268-.378913035.9269204384-.8020916115,1.9259937095-1.2704210403,2.9972198131-.4683294288,1.071668759-.9322323034,2.1508626602-1.3899380022,3.2366963925-.1398791111.3293356286-.2868407087.6803613725-.4417701039,1.0544051979-.1540440843.37360117-.3160559661.7445464076-.4860356454,1.1137210235-.1690943684.3687319605-.3505830885.7197577043-.5453514709,1.0539625425-.1938830717.3337621827-.3983898733.6303413106-.612635094.8892947282-.2142452207.259396073-.4435407256.4661161517-.6878865145.6206028914s-.5108243486.2319514373-.8003209898.2319514373c-.2983497495,0-.560401755-.0774646976-.7843853949-.2319514373s-.3364181152-.3913073866-.3364181152-.7100192852c0-.1496175302.0301005682-.2766596342.0894163938-.3811263121.0602011364-.1049093333.1345672461-.1872432404.2248689507-.2470017214.0894163938-.059758481.186800585-.1044666779.2912672629-.1345672461.1044666779-.0296579128.2018508691-.0447081969.2912672629-.0447081969.1097785429,0,.1965390041.0022132771.2620520055.007525142.0646276905.0048692095.1292553811.0123943516.1938830716.0225754261.0646276906.0097384191.1425350435.0172635612.2319514373.0221327707s.2089333557.0075251421.3585508859.0075251421c.239033924,0,.4860356454-.1447483206.7401198534-.433359651.2540842081-.2894966412.4957740645-.6334398985.7250695693-1.0318297717.2292955048-.3988325287.4338023064-.7998783344.6135204048-1.2035800726.1788327875-.4037017382.3134000336-.7250695693.4037017382-.9641034933-.4391141714-1.0265179067-.877343032-2.0432973944-1.3164572034-3.0498958075-.4382288606-1.0065984131-.8366187338-1.9485691356-1.1960549306-2.8254695122-.2682491813-.6577859463-.4957740645-1.1885297885-.679918717-1.5922315268s-.3514683993-.7228562923-.5010859295-.9570210066c-.1487322193-.2341647144-.2983497495-.4037017382-.4479672797-.5081684161-.1496175302-.1049093333-.3240237636-.1819313755-.5232187002-.2319514373v-.119516962h3.9015648254Z"/>
        <path class="cls-1" d="M138.6796237256,71.1671655491c-.5878463908,0-1.1358537942-.119516962-1.6440222103-.3585508859s-.9517091417-.5754520391-1.3306221767-1.0092543456c-.378913035-.433359651-.6754921629-.9565783512-.8897373836-1.5696561006s-.3213678311-1.2934391219-.3213678311-2.0406414619c0-.7476449954.1071226104-1.4253504354.3213678311-2.0335589752.2142452207-.6077658844.5108243486-1.1287713076.8897373836-1.5621309586.378913035-.4338023064.8224537606-.7697777662,1.3306221767-1.0092543456.5081684161-.2390339239,1.0561758195-.3585508859,1.6440222103-.3585508859.5887317016,0,1.13142724.1319113136,1.629857237.3961765962.498429997.2638226272.9198379518.6276853781,1.2633385536,1.0911455973s.5905023233,1.0119102781.7401198534,1.6444648657c.1496175302.6329972431.1690943684,1.3133586155.0602011364,2.0406414619h-6.234358861c.0194768382.6480475272.1292553811,1.2363365733.3284503177,1.7644244831.1991949366.5285305652.4532791447.9791537774.7622526242,1.3527549474.3089734795.3740438254.6604418788.6604418788,1.0544051979.8596368154.3930780083.199637592.7896972599.2992350603,1.1880871331.2992350603.4488525905,0,.8277656255-.1022534008,1.136739105-.306317547.3089734795-.2045068016.5630576875-.4262771644.7622526242-.6653110883.2292955048-.2890539858.4187520223-.6130777494.5683695525-.9720712907l.3585508859.1646678143c-.1991949366.3988325287-.4134401574.7423331305-.6427356622,1.0313871163-.2292955048.2894966412-.4886915779.5258746327-.7773029083.7100192852-.2894966412.1845873079-.6135204048.319154554-.9720712907.4037017382-.3585508859.0845471842-.7675644891.127042104-1.2261554988.127042104ZM140.6830821327,66.0243949408c.0903017046-.5280879097.1026960562-1.0539625425.0371830548-1.5771812427-.0646276905-.5232187002-.1894565175-.9964173385-.37360117-1.4204812259-.1841446525-.4231785765-.4187520223-.7671218337-.7020514878-1.0313871163-.2841847763-.2638226272-.6055526073-.3961765962-.9649888041-.3961765962-.3488124668,0-.674606852.1071226104-.9791537774.3213678311-.3036616145.2146878762-.5701401742.5156935582-.799435679.9043450123-.2292955048.3890941095-.4116695357.8547676058-.5462367818,1.3979057997-.1345672461.5435808493-.2062774233,1.1438215917-.2160158424,1.8016075379h4.5443004876Z"/>
        <path class="cls-1" d="M143.3301615128,68.4612129989c0-.5081684161.0973841912-.9689727028.2912672629-1.3828555156.1947683825-.4134401574.451508523-.7848280503.7702204216-1.1137210235s.6878865145-.6152910265,1.1066385368-.8596368154c.4178667115-.2439031335.8516690179-.4484099351,1.3005216085-.6130777494.4479672797-.1642251589.8994758027-.2890539858,1.3527549474-.37360117s.8746870995-.127042104,1.2633385536-.127042104v-.0748087651c0-.3784703796-.0575452039-.7126752177-.1717503009-1.0017292035-.1150904078-.2890539858-.2771022896-.5307438423-.4860356454-.7250695693s-.4559350772-.3412873248-.7401198534-.4408847931-.5958141882-.1496175302-.9340029251-.1496175302c-.3089734795,0-.5515486468.0473641294-.7250695693.1420923881-.1744062334.0947282588-.3169412769.2142452207-.4267198198.3585508859-.1097785428.1447483206-.1991949366.2992350604-.2691344922.4634602192-.0699395555.1646678143-.1443056652.319154554-.2239836398.4634602192-.0796779747.1447483206-.1841446525.2642652826-.3142853445.3589935414-.1292553811.0947282587-.3134000336.1420923881-.5524339576.1420923881-.2399192348,0-.4240638873-.0721528326-.5533192684-.2169011532-.1301406919-.1443056652-.1947683825-.3160559661-.1947683825-.5156935581,0-.2394765794.1000401237-.4532791447.2992350604-.6427356622s.4585910097-.3536816763.7773029083-.4935607874c.3187118986-.1394364556.6754921629-.246559066,1.069455482-.3213678311.3930780083-.0748087651.7896972599-.1119918199,1.1880871331-.1119918199.5878463908,0,1.1234594426.0619717581,1.6068391555.186800585s.8977051811.3213678311,1.2412057829.5905023232.6108644723.6130777494.8003209898,1.0313871163c.1885712067.4187520223.2832994654.9171820193.2832994654,1.495289991v2.9153285614c0,.5081684161.0123943516.9592342837.0380683657,1.3527549474.0247887032.3939633191.0796779746.7277255018.1637825034,1.0017292035.0849898396.2744463571.2018508691.490904855.3514683993.6502608043.1496175302.1597986047.3488124668.259396073.5984701207.2992350603v.1195169619h-1.510340275c-.3983898733,0-.7073633527-.127042104-.9269204384-.3811263121s-.3435006018-.5856331137-.37360117-.9942040615c-.498429997.5382689843-1.0269605622.9517091417-1.5847063847,1.2407631275-.5586311334.2890539858-1.2358939179.433359651-2.0335589753.433359651-.3585508859,0-.6896571361-.0646276905-.9942040615-.194325727-.3036616145-.1292553811-.56571362-.3138426891-.7843853949-.552876613-.2195570857-.2394765794-.3913073866-.5258746327-.5161362136-.8596368154s-.186800585-.7002808661-.186800585-1.0991133948ZM145.0042842913,68.2668872718c0,.2195570857.0274446357.4559350771.0823339071.7104619406.0548892714.254084208.1443056652.4882489224.2691344922.7024941432s.2894966412.3939633191.493118132.5382689843c.2045068016.1443056652.456820388.2169011532.7551701375.2169011532.617946959,0,1.1535600108-.1496175302,1.6077244663-.4488525905.4532791447-.298792405.8543249504-.6626551559,1.2031374172-1.0911455973v-4.5301355143c-.6577859463.0101810745-1.2580266887.1248288269-1.8016075379.3439432572-.5435808493.2195570857-1.0092543456.5081684161-1.3979057997.8671619574-.3886514541.3585508859-.6878865145.7697777662-.8968198702,1.2332379854s-.3142853444.9494958646-.3142853444,1.4576642807Z"/>
        <path class="cls-1" d="M152.2399297004,70.8683731441v-.1195169619c.2496576539-.0398389874.4488525905-.1394364556.5984701207-.2992350603.1496175302-.1593559493.2664785597-.3758144471.3514683993-.6502608043.0841045288-.2740037017.1389938002-.6077658844.1637825034-1.0017292035.0247887032-.3935206637.0380683657-.8445865313.0380683657-1.3527549474v-.5980274653c0-.2292955048.0017706217-.4608042867.0070824866-.6954116565.005311865-.2341647144.0079677975-.4608042867.0079677975-.6803613724v-.5232187002c0-.5081684161-.0132796624-.9587916283-.0380683657-1.3527549474-.0247887032-.3935206637-.0796779747-.7299387789-.1637825034-1.0092543456-.0849898396-.2788729113-.2018508691-.4957740645-.3514683993-.6502608042s-.3488124668-.251870931-.5984701207-.2917099183v-.119516962h2.7958115994v1.5847063847c.1398791111-.239033924.311629412-.4709853613.5161362136-.6949690011.2036214908-.2244262953.4435407256-.4262771644.7171017719-.6055526074.2744463571-.1797180984.5754520391-.3213678311.9047876677-.4262771644.3293356286-.1044666779.6878865145-.1567000168,1.0765379686-.1567000168.4187520223,0,.8020916115.0743661097,1.1509040783.2239836399s.5931582557.3288929731.7330373668.5382689843v2.0481666039h-.119516962c-.2797582221-.6276853781-.6356531756-1.0986707394-1.069455482-1.4129560838-.4338023064-.3138426891-.918952641-.4705427059-1.4572216253-.4705427059-.2292955048,0-.4789531587.0371830549-.7480876509.1119918199s-.5258746327.1943257271-.7693351108.3585508859c-.2443457889.1646678143-.4541644555.3718305484-.6285706889.6206028914-.1744062334.2492149985-.2762169788.5484500589-.306317547.8972625257,0,.3585508859.0026559325.7148884948.0079677975,1.0685701712.0044265542.3541243318.0070824866.6803613724.0070824866.9795964328v1.2558134116c0,.5081684161.0123943516.9592342837.0371830548,1.3527549474.0247887032.3939633191.0796779747.7277255018.1646678143,1.0017292035.0849898396.2744463571.2018508691.490904855.3514683993.6502608043.1496175302.1597986047.3488124668.259396073.5975848099.2992350603v.1195169619h-3.9768162459Z"/>
        <path class="cls-1" d="M166.8466730756,68.9994819832c0-.3585508859-.0903017046-.6524740813-.2691344922-.8817695862-.1797180984-.2292955048-.4160960898-.4160960898-.7100192852-.5608444105-.2948085062-.1443056652-.6285706889-.2664785597-1.002171859-.366076028s-.7551701375-.199637592-1.1438215917-.2992350603c-.3886514541-.0995974683-.7693351108-.2142452207-1.1429362808-.3439432572-.3744864809-.1292553811-.7082486636-.3036616145-1.0021718589-.5232187002-.2939231954-.2191144303-.5303011868-.4957740645-.7100192852-.8295362472s-.2691344921-.7551701375-.2691344921-1.2633385536c0-.3288929732.0646276905-.6555726692.1947683825-.9791537774.1292553811-.3240237636.3355328044-.6130777494.6197175806-.8671619575.2841847763-.2545268635.6507034597-.4612469421,1.0995560502-.6206028914.4479672797-.1593559493.986236264-.239033924,1.6139216421-.239033924.5382689843,0,1.0092543456.0398389873,1.4129560838.119516962s.7401198534.1695370238,1.0092543456.2691344922c.3293356286.1097785429.6082085398.2390339239.8375040447.3886514541v2.0481666039h-.119516962c-.1894565175-.4581483542-.4338023064-.8671619574-.7330373668-1.2261554988-.259396073-.3085308241-.5878463908-.5905023232-.986236264-.8445865313-.3992751841-.2540842081-.882654897-.3811263121-1.4501391386-.3811263121-.7179870827,0-1.2916685002.1469615977-1.7192736308.4408847931-.4293757523.2943658508-.643620973.6502608042-.643620973,1.0690128266,0,.3687319605.0920723263.6706229533.2771022896.9043450123.1841446525.2346073698.4231785765.4315890294.7171017719.5909449787s.6329972431.2912672629,1.017222143.3961765961c.3833395891.1044666779.7719910433.2115892883,1.1659543624.3213678311.3939633191.1097785429.7826147732.2315087819,1.1659543624.366076028s.7224136368.311629412,1.0163368322.5307438422c.2939231954.2195570857.5338424302.4935607874.7179870827.8224537606s.2762169788.7374639209.2762169788,1.2257128434c0,.3988325287-.0841045288.7750896312-.2540842081,1.1287713076-.1690943684.3541243318-.4134401574.6630978113-.732152056.9269204384-.3195972094.2642652826-.7100192852.4709853613-1.1739221599.6206028915-.4630175638.1496175302-.9888921965.2239836398-1.5767385873.2239836398-.6878865145,0-1.2589119995-.0473641294-1.7121911442-.1416497327-.4532791447-.0951709142-.8144859631-.2018508691-1.0836204552-.3218104865-.3195972094-.1394364556-.5630576875-.29348054-.7330373668-.4634602192v-2.5262344519h.119516962c.1797180984.5781079716.4240638873,1.0911455973.7330373668,1.5395555324.1292553811.1894565175.2815288438.3766997579.4559350772.5608444105.1744062334.1845873079.3709452375.3488124668.5905023232.493118132.2186717749.1447483206.4630175638.2620520055.732152056.3514683993.2691344922.0898590492.5683695525.1345672461.8977051811.1345672461.5081684161,0,.9216085735-.0694969001,1.2403204721-.2093760112.3187118986-.1394364556.5736814175-.306317547.763137935-.5006432741.1885712067-.1943257271.3187118986-.3935206637.3886514541-.5980274653.0690542447-.2040641462.1044666779-.3665186834.1044666779-.4860356454Z"/>
      </g>
    </g>
  </g>
</svg>