<?xml version="1.0" encoding="UTF-8"?>
<svg id="Layer_2" data-name="Layer 2" xmlns="http://www.w3.org/2000/svg" viewBox="0 0 130.3316908615 17.4911827398">
  <defs>
    <style>
      .cls-1 {
        fill: #fff;
      }
    </style>
  </defs>
  <g id="Layer_1-2" data-name="Layer 1">
    <g>
      <g>
        <path class="cls-1" d="M5.2401739386,16.4640559305l1.7790431992,1.0271268093v-8.1049344394l-2.6197543218-1.512526058v7.1341359421c0,.6007170526.3204947809,1.1558392197.8407111226,1.456197746Z"/>
        <path class="cls-1" d="M0,5.3336258452v7.1341802951c0,.6007170526.3204947809,1.1557948667.8407128401,1.456153393l1.7792188937,1.0272598683V6.8462849622l-2.6199317338-1.512659117Z"/>
        <path class="cls-1" d="M8.798792573,17.4911827398l6.1785060151-3.5672232065c.5202163417-.3003585263.8407111226-.8554363404.8407111226-1.456153393v-2.0543866776l-7.0192171378,4.0525781022v3.0251851749Z"/>
        <path class="cls-1" d="M15.8180097108,7.3880568758v-2.0544310306l-7.0192171378,4.0526224552v3.0251408219l6.1784616621-3.5671345005c.5202606947-.3003585263.8407554756-.8554806934.8407554756-1.456197746Z"/>
        <path class="cls-1" d="M.8897655411,3.7924921013l7.0192171378,4.0525781022,2.620199814-1.512747823-6.1785966833-3.5671788535c-.5202163417-.3003585263-1.1612059036-.3003585263-1.6814665983,0l-1.7793536702,1.0273485743Z"/>
        <path class="cls-1" d="M14.9282441697,3.7924921013L8.7497400717.2252688947c-.5202607079-.3003585263-1.1612078208-.3003585263-1.6814685155,0l-1.7790875522,1.0271711623,7.0192614908,4.0525781022,2.6197986748-1.512526058Z"/>
      </g>
      <g>
        <g>
          <path class="cls-1" d="M48.7117944444,8.0117044302h2.7049535088v1.7913733785h-2.7049535088v3.6720737021h3.4033802062v1.7913733785h-5.3734990578V2.7275765347h5.3734990578v1.7913733785h-3.4033802062v3.492754517Z"/>
          <path class="cls-1" d="M54.7301832014,6.1844494734v9.082075416h-1.7737208391V2.7275765347h2.4721918895l2.0241378794,7.5052375058V2.7275765347h1.755536109v12.5389483547h-2.0241822324l-2.4539628063-9.082075416Z"/>
          <path class="cls-1" d="M59.6909775905,2.7275765347h6.0901548383v1.7913733785h-2.0600638097v10.7475749762h-1.9700715719V4.5189499132h-2.0600194567v-1.7913733785Z"/>
          <path class="cls-1" d="M68.2520824343,8.0117044302h2.7049599243v1.7913733785h-2.7049599243v3.6720737021h3.4033831329v1.7913733785h-5.3734547048V2.7275765347h5.3734547048v1.7913733785h-3.4033831329v3.492754517Z"/>
          <path class="cls-1" d="M76.4563710175,15.2665248894v-3.5110279536c0-1.164044525-.3939026242-1.5944016988-1.2898775854-1.5944016988h-.6808185562v5.1054296524h-1.9700680438V2.7275765347h2.9736433839c2.0418347266,0,2.9195806045.9494647036,2.9195806045,2.8836991001v.9853019288c0,1.2899183433-.4121280797,2.1317826652-1.2898739577,2.5439107554.985346257.4115515011,1.3074820989,1.3610162047,1.3074820989,2.6691192787v3.4569172917h-1.9700679443ZM74.4856748759,4.5189499132v3.8513928873h.770189852c.7348848637,0,1.1822735787-.3228011451,1.1822735787-1.3257555685v-1.2357633285c0-.8960193368-.3045277008-1.2898739903-1.0029543981-1.2898739903h-.9495090326Z"/>
          <path class="cls-1" d="M78.783879792,2.7275765347h6.0901548383v1.7913733785h-2.0600638097v10.7475749762h-1.9700715719V4.5189499132h-2.0600194567v-1.7913733785Z"/>
          <path class="cls-1" d="M91.0717898477,15.2665248894h-1.9883450081l-.3403649251-2.2752202721h-2.418702171l-.3397883361,2.2752202721h-1.8096024164l2.0065297382-12.5389483547h2.8836990272l2.0065740912,12.5389483547ZM86.5754157258,11.2898791258h1.8989737123l-.9494646796-6.3411929808-.9495090326,6.3411929808Z"/>
          <path class="cls-1" d="M91.6261579997,2.7275765347h1.9700715719v12.5389483547h-1.9700715719V2.7275765347Z"/>
          <path class="cls-1" d="M96.4264388803,6.1844494734v9.082075416h-1.7737651921V2.7275765347h2.4721960392l2.0241780826,7.5052375058V2.7275765347h1.755491756v12.5389483547h-2.0241780383l-2.4539226474-9.082075416Z"/>
          <path class="cls-1" d="M106.1339800785,11.6302884125l1.3433636762-8.9027118778h2.7408380129v12.5389483547h-1.8630921349V6.2744417135l-1.3615927594,8.9920831759h-1.8625155459l-1.4691931384-8.8668746526v8.8668746526h-1.7196101786V2.7275765347h2.7408380129l1.4509640552,8.9027118778Z"/>
          <path class="cls-1" d="M113.2623499503,8.0117044302h2.7050054144v1.7913733785h-2.7050054144v3.6720737021h3.4034274859v1.7913733785h-5.3734990578V2.7275765347h5.3734990578v1.7913733785h-3.4034274859v3.492754517Z"/>
          <path class="cls-1" d="M119.280785987,6.1844494734v9.082075416h-1.7737208391V2.7275765347h2.4721475365l2.0241822324,7.5052375058V2.7275765347h1.755491756v12.5389483547h-2.0241822324l-2.4539184533-9.082075416Z"/>
          <path class="cls-1" d="M124.2415360231,2.7275765347h6.0901548383v1.7913733785h-2.0600194567v10.7475749762h-1.9700666851V4.5189499132h-2.0600686966v-1.7913733785Z"/>
        </g>
        <g>
          <polygon class="cls-1" points="19.3489964258 5.3999335825 21.9358874247 5.3999335825 21.9358874247 15.2667910074 24.6085082726 15.2667910074 24.6085082726 5.3999335825 27.2072836253 5.3999335825 27.2072836253 2.7273104167 19.3489964258 2.7273104167 19.3489964258 5.3999335825"/>
          <polygon class="cls-1" points="27.9835054853 5.3999335825 30.5704385868 5.3999335825 30.5704385868 15.2667910074 33.2427068611 15.2667910074 33.2427068611 5.3999335825 35.8414404623 5.3999335825 35.8414404623 2.7273104167 27.9835054853 2.7273104167 27.9835054853 5.3999335825"/>
          <polygon class="cls-1" points="43.0978548447 5.3999335825 43.0978548447 2.7273104167 36.6177040738 2.7273104167 36.6177040738 15.2667910074 39.287444227 15.2667910074 39.287444227 10.6482242528 42.1878643354 10.6482242528 42.1878643354 7.975601087 39.287444227 7.975601087 39.287444227 5.3999335825 43.0978548447 5.3999335825"/>
        </g>
      </g>
    </g>
  </g>
</svg>