<svg xmlns="http://www.w3.org/2000/svg" width="325.47809" height="238.0632" viewBox="0 0 325.47809 238.0632">
  <defs>
    <style>
      .cls-1 {
        fill: #231815;
      }

      .cls-2 {
        fill: #d14131;
      }

      .cls-3 {
        fill: #37a7ca;
      }

      .cls-4 {
        fill: #0b768b;
      }

      .cls-5 {
        fill: #ef983f;
      }
    </style>
  </defs>
  <title>logo-p</title>
  <g id="Layer_2" data-name="Layer 2">
    <g id="레이어_1" data-name="레이어 1">
      <g>
        <polygon class="cls-1" points="180.525 16.515 158.597 16.515 158.597 0 134.338 0 134.338 16.515 111.894 16.515 111.894 36.293 180.525 36.293 180.525 16.515"/>
        <polygon class="cls-1" points="232.907 33.849 213.55 33.849 213.55 15.972 190.851 15.972 190.851 73.669 213.55 73.669 213.55 53.876 232.907 53.876 232.907 33.849"/>
        <polygon class="cls-1" points="59.001 117.808 36.295 117.808 36.295 159.126 101.596 159.126 101.596 139.101 59.001 139.101 59.001 117.808"/>
        <rect class="cls-1" x="78.8964" y="45.1521" width="22.6992" height="81.2988"/>
        <rect class="cls-1" x="3.654" y="50.6169" width="65.2749" height="19.2255"/>
        <polygon class="cls-2" points="36.335 72.368 0 108.707 72.674 108.707 36.335 72.368"/>
        <polygon class="cls-1" points="213.555 223.333 198.795 238.063 186.795 226.063 181.245 219.164 175.365 226.393 163.635 238.063 151.905 226.393 146.025 219.164 140.475 226.063 128.475 238.063 113.715 223.333 146.055 190.993 163.635 208.543 181.215 190.993 213.555 223.333"/>
        <g>
          <g>
            <g>
              <path class="cls-1" d="M179.2443,75.8961a32.777,32.777,0,1,0-32.7573,32.7576h44.3436v16.9236h22.70789V86.4702H177.4653A32.631,32.631,0,0,0,179.2443,75.8961ZM146.487,86.4702a10.57455,10.57455,0,1,1,10.5738-10.5741A10.604,10.604,0,0,1,146.487,86.4702Z"/>
              <rect class="cls-1" x="190.8393" y="136.4508" width="22.6992" height="48.7839"/>
              <path class="cls-3" d="M179.2434,152.4774a32.77651,32.77651,0,1,0-32.7564,32.7573A32.76122,32.76122,0,0,0,179.2434,152.4774Z"/>
              <polygon class="cls-1" points="226.044 165.197 226.044 185.235 247.189 185.235 247.189 205.973 269.884 205.973 269.884 185.235 285.975 185.235 285.975 205.973 308.671 205.973 308.671 185.235 325.478 185.235 325.478 165.197 226.044 165.197"/>
            </g>
            <polygon class="cls-4" points="275.759 97.723 232.409 141.072 247.696 156.317 269.715 134.332 275.802 126.849 281.523 133.975 303.865 156.317 319.108 141.072 275.759 97.723"/>
          </g>
          <rect class="cls-5" x="258.93363" y="57.10264" width="33.65093" height="33.65093" transform="translate(28.49291 216.64417) rotate(-45)"/>
        </g>
      </g>
    </g>
  </g>
</svg>
