<svg xmlns="http://www.w3.org/2000/svg" width="512.92896" height="32.24883" viewBox="0 0 512.92896 32.24883">
  <defs>
    <style>
      .cls-1 {
        fill: #00758e;
      }

      .cls-2 {
        fill: #f5a32d;
      }

      .cls-3 {
        fill: #1e313b;
      }

      .cls-4 {
        fill: #fccb3e;
      }

      .cls-5 {
        fill: #fff;
      }

      .cls-6 {
        fill: #979791;
      }

      .cls-7 {
        fill: #d7063b;
      }

      .cls-8 {
        fill: #8c6faf;
      }

      .cls-9 {
        fill: #e35722;
      }

      .cls-10 {
        fill: #f39a00;
      }

      .cls-11 {
        fill: #007cb9;
      }

      .cls-12 {
        fill: #6aadb2;
      }
    </style>
  </defs>
  <title>logo-f-m</title>
  <g id="Layer_2" data-name="Layer 2">
    <g id="레이어_1" data-name="레이어 1">
      <g>
        <g>
          <g>
            <path class="cls-1" d="M2.71045,23.55886l2.97939,7.8537,22.2443-8.4386a109.46649,109.46649,0,0,1-10.4228-5.03Z"/>
            <path class="cls-1" d="M121.96523,31.41256l2.9796-7.8537-14.801-5.6149a109.44323,109.44323,0,0,1-10.4228,5.03Z"/>
            <path class="cls-1" d="M63.82764,9.35746l23.81589,9.0349a92.83727,92.83727,0,0,0,11.8445-4.4908L63.82764.37336l-35.6604,13.5282a92.82592,92.82592,0,0,0,11.8444,4.4907Z"/>
          </g>
          <g>
            <path class="cls-2" d="M126.80113,1.73076a4.20009,4.20009,0,0,0-5.88468-.8072A114.101,114.101,0,0,1,99.488,13.90156l10.6558,4.0424a128.17538,128.17538,0,0,0,15.8499-10.3287A4.2,4.2,0,0,0,126.80113,1.73076Z"/>
            <path class="cls-2" d="M6.73884.92356a4.19991,4.19991,0,1,0-5.0772,6.6917A128.166,128.166,0,0,0,17.51134,17.944l10.6559-4.0424A114.10615,114.10615,0,0,1,6.73884.92356Z"/>
            <path class="cls-2" d="M63.82764,21.95786a82.20325,82.20325,0,0,1-23.816-3.5656L27.93414,22.974a92.5138,92.5138,0,0,0,35.8935,7.3839A92.51253,92.51253,0,0,0,99.721,22.974l-12.0775-4.5816A82.20473,82.20473,0,0,1,63.82764,21.95786Z"/>
          </g>
          <g>
            <path class="cls-3" d="M28.16734,13.90156,17.51145,17.944a109.45354,109.45354,0,0,0,10.42279,5.03l12.0774-4.5817A92.819,92.819,0,0,1,28.16734,13.90156Z"/>
            <path class="cls-3" d="M87.64363,18.39236l12.0775,4.5816a109.44167,109.44167,0,0,0,10.4227-5.03l-10.6557-4.0424A92.84864,92.84864,0,0,1,87.64363,18.39236Z"/>
          </g>
        </g>
        <g>
          <g>
            <g>
              <path d="M342.701,17.45733l-5.91309-7.1967V4.44713h5.57419V2.38653h-14.1094v2.0606h5.57421v4.8203a2.64739,2.64739,0,0,1-.74121,1.9248c-.7226.8638-1.5146,1.8496-2.3457,2.8838-1.1425,1.4228-2.3222,2.8911-3.5122,4.2847l1.4156,1.1372,6.663-6.1763,5.8653,5.3799Z"/>
              <polygon points="350.809 1.417 347.848 1.417 347.848 22.969 350.809 22.186 350.809 1.417"/>
              <polygon points="335.368 21.913 332.407 21.913 332.407 31.521 351.26 31.521 351.26 29.461 335.368 29.461 335.368 21.913"/>
            </g>
            <path d="M367.701,19.369h8.4482v-2.0606h-16.5498v-5.5215h14.8613a1.13394,1.13394,0,0,0,.9961-1.0654V3.867a.52911.52911,0,0,0-.208-.4419L374.18053,2.39c-.125-.125-.1592-.1421-.4121-.1421h-16.7833v2.0605h15.51081v5.418H359.19223a.80174.80174,0,0,0-.5625.2583l-1.46879,1.1543a1.97578,1.97578,0,0,0-.52241,1.6606V19.369H364.74v5.9375h-11.0097V27.367h24.9804v-2.0605H367.701Z"/>
            <g>
              <path d="M386.54763,22.25183l-.1376.1064c-1.5538,1.2002-2.7706,2.8257-2.7706,3.7012v2.1465c0,1.5732,2.77151,4.0078,4.56251,4.0078h8.55179c1.8027,0,5.3574-3.2793,5.3574-4.9424v-2.1816c0-1.0352-1.19819-2.5269-2.7285-3.396l-.17969-.1021v-4.5771H405.366v-2.0606h-24.9805v2.0606h6.1621Zm2.961-5.2373h6.7334V21.117h-6.7334Zm.666,6.0937h6.1982a2.8059,2.8059,0,0,1,2.8819,2.6397v1.039c0,1.3477-2.5362,3.4356-3.8174,3.4356h-5.7119c-1.6289,0-3.22849-1.3247-3.22849-2.6739v-1.0048C386.49694,25.25963,388.79963,23.10823,390.17463,23.10823Z"/>
              <path d="M396.407,11.99493c1.8662,0,5.7041-3.0932,5.7041-4.5966V5.21663c0-1.5654-3.0869-3.6269-4.90819-3.6269h-7.85841c-1.8662,0-5.7051,3.0932-5.7051,4.5966V8.368c0,1.5654,3.087,3.6269,4.9082,3.6269Zm-9.91009-4.2851V6.67073c0-1.3584,2.72849-3.0889,4.02439-3.0889h5.5049c1.5869,0,3.2285.858,3.2285,2.293v1.0391c0,1.3584-2.7285,3.0888-4.0244,3.0888h-5.5049C388.13853,10.00273,386.49694,9.14483,386.49694,7.70983Z"/>
            </g>
            <g>
              <polygon points="428.836 1.417 425.875 1.417 425.875 17.811 428.836 17.811 428.836 10.644 433.406 10.644 433.406 8.584 428.836 8.584 428.836 1.417"/>
              <path d="M413.117,20.45883h-2.961v11.4434h16.4717c.2041,0,.24121-.0235.4883-.1778l1.582-1.2036c.04691-.0381.1377-.1992.1377-.7915v-9.2705h-2.9609v2.9434H413.117Zm12.7578,5.0039v4.3789H413.117v-4.3789Z"/>
              <polygon points="415.284 0.167 412.441 0.167 412.441 3.806 406.209 3.806 406.209 5.866 422.292 5.866 422.292 3.806 415.285 3.806 415.284 0.167"/>
              <path d="M421.14923,13.73423v-2.666c0-1.3477-2.8096-3.3506-4.2851-3.3506h-4.8467c-1.5489,0-4.8731,2.6875-4.8731,3.9394v2.6661c0,1.2334,2.7227,3.3837,4.2842,3.3837h4.8477C417.86994,17.70683,421.14923,15.03353,421.14923,13.73423Zm-8.61229,1.9473c-1.45411,0-2.43161-.7691-2.43161-1.9131v-1.419c0-1.2661,2.122-2.6054,3.2627-2.6054h2.4228c1.4336,0,2.3975.7412,2.3975,1.8437v1.4541c0,1.2412-2.1289,2.6397-3.2627,2.6397Z"/>
            </g>
            <g>
              <polygon points="449.294 12.843 446.333 12.843 446.333 24.752 442.3 24.752 442.3 12.843 439.339 12.843 439.339 24.752 434.388 24.752 434.388 26.813 459.368 26.813 459.368 24.752 449.294 24.752 449.294 12.843"/>
              <path d="M453.325,15.52573l-.3184,4.3286h2.0899l.8935-3.0015a9.76348,9.76348,0,0,0,.29691-2.2182v-9.21a1.09692,1.09692,0,0,0-.209-.7895l-1.456-1.4903a.39754.39754,0,0,0-.36921-.1352h-16.957v2.0605H453.326Z"/>
            </g>
            <g>
              <path d="M477.06423,12.68733c1.86629,0,5.70419-3.0932,5.70419-4.5967v-2.874c0-1.5654-3.087-3.6269-4.9083-3.6269h-7.85839c-1.8662,0-5.705,3.0932-5.705,4.5966v2.8741c0,1.5654,3.0869,3.6269,4.90821,3.6269Zm-9.9101-4.2851V6.67073c0-1.3584,2.7285-3.0889,4.0244-3.0889h5.5049c1.58689,0,3.22851.858,3.22851,2.293v1.7315c0,1.3584-2.72851,3.0888-4.02441,3.0888h-5.5049C468.79573,10.69513,467.15413,9.83723,467.15413,8.40223Z"/>
              <path d="M467.20494,21.84363H463.951v2.0615h15.85639v7.8584h2.961v-7.9541a1.09953,1.09953,0,0,0-.2061-.7871l-1.0703-1.0352a.49033.49033,0,0,0-.377-.1435h-1.2549v-4.1368h6.1631v-2.0605H461.04283v2.0605h6.16211Zm2.96089-4.1368h6.7334v4.1368h-6.7334Z"/>
            </g>
            <g>
              <polygon points="495.643 23.99 492.682 23.99 492.682 31.868 512.678 31.868 512.678 29.807 495.643 29.807 495.643 23.99"/>
              <path d="M493.95594,12.02913h6.54288c1.4473,0,4.4238-2.6499,4.4238-3.9385V4.87093c0-1.2212-2.4589-3.3506-3.8691-3.3506h-6.5439c-1.4053,0-4.4239,2.6636-4.4239,3.9043v3.1856C490.08572,9.85633,492.54472,12.02913,493.95594,12.02913Zm-1.18562-5.7392c0-1.0762,1.9609-2.7432,2.9512-2.7432h4.2236a2.43048,2.43048,0,0,1,2.294,2.1894v1.5235c0,1-1.876,2.7431-2.95118,2.7431h-4.18952a2.54133,2.54133,0,0,1-2.3281-2.2236Z"/>
              <polygon points="509.198 24.804 512.159 24.021 512.159 1.417 509.198 1.417 509.198 19.247 501.962 19.247 501.962 21.308 509.198 21.308 509.198 24.804"/>
              <path d="M494.76052,22.033l2.961-.7817v-4.6177h4.959a5.47894,5.47894,0,0,0,2.3056-.4839l2.0293-.9097-.5088-1.456-2.0341.5679a4.40556,4.40556,0,0,1-1.5499.2212h-14.8095v2.0605h6.6474Z"/>
            </g>
            <g>
              <path class="cls-4" d="M377.56159,28.45667a2.12671,2.12671,0,1,1,2.127-2.12647A2.12868,2.12868,0,0,1,377.56159,28.45667Z"/>
              <path class="cls-5" d="M377.562,24.345a1.98511,1.98511,0,1,1-1.98511,1.98511A1.98507,1.98507,0,0,1,377.562,24.345m0-.28345a2.26856,2.26856,0,1,0,2.26856,2.26856,2.27109,2.27109,0,0,0-2.26856-2.26856Z"/>
            </g>
            <g>
              <path class="cls-6" d="M403.80378,18.26331a2.12671,2.12671,0,1,1,2.12695-2.12647A2.12868,2.12868,0,0,1,403.80378,18.26331Z"/>
              <path class="cls-5" d="M403.80421,14.15173a1.98511,1.98511,0,1,1-1.98511,1.98511,1.98508,1.98508,0,0,1,1.98511-1.98511m0-.28344a2.26856,2.26856,0,1,0,2.26855,2.26855,2.27109,2.27109,0,0,0-2.26855-2.26855Z"/>
            </g>
            <g>
              <path class="cls-7" d="M458.32038,27.8717a2.12671,2.12671,0,1,1,2.127-2.12646A2.12888,2.12888,0,0,1,458.32038,27.8717Z"/>
              <path class="cls-5" d="M458.3202,23.76a1.98511,1.98511,0,1,1-1.985,1.98511,1.98507,1.98507,0,0,1,1.985-1.98511m0-.28345a2.26856,2.26856,0,1,0,2.26855,2.26856,2.271,2.271,0,0,0-2.26855-2.26856Z"/>
            </g>
            <g>
              <path class="cls-8" d="M510.66023,4.39514a2.12671,2.12671,0,1,1,2.127-2.12646A2.12889,2.12889,0,0,1,510.66023,4.39514Z"/>
              <path class="cls-5" d="M510.66041.28345a1.98508,1.98508,0,1,1-1.98511,1.9851,1.98515,1.98515,0,0,1,1.98511-1.9851m0-.28345A2.26853,2.26853,0,1,0,512.929,2.26855,2.27108,2.27108,0,0,0,510.66041,0Z"/>
            </g>
          </g>
          <g>
            <g>
              <path d="M140.83673,17.70683h11.0098v3.7559h-2.0508c-1.813,0-5.7051,3.3726-5.7051,4.9434v1.7998c0,1.5356,3.0274,4.0078,4.9082,4.0078h7.8594c1.86571,0,5.7041-3.3257,5.7041-4.9424v-1.835c0-1.6377-3.1748-3.9736-4.9082-3.9736h-2.8467v-3.7559h11.0098v-2.0605h-24.9805Zm15.9873,5.7481a2.772,2.772,0,0,1,2.88191,2.6396v.6924c0,1.3477-2.53621,3.4356-3.81741,3.4356h-5.7119c-1.6294,0-3.2286-1.3247-3.2286-2.6739v-.6582c0-1.2841,2.3028-3.4355,3.6778-3.4355Z"/>
              <path d="M153.32743,8.869l8.6831,4.4624,1.2232-1.2969-8.6236-5.6026.0997-.8081h7.8525V3.56333h-7.5371l-.0037-2.9075-3.175-.0051v2.9126h-7.7559v2.0605h7.8765l-.17819.4786a3.04779,3.04779,0,0,1-1.39161,1.3891c-2.107,1.3501-4.6831,3.0127-7.0132,4.5415l1.2241,1.2988Z"/>
            </g>
            <g>
              <path d="M186.14433,19.69713h-8.5176c-1.8256,0-5.4267,3.0962-5.4267,4.666v3.8428c0,1.5493,2.9204,4.0429,4.7344,4.0429h8.51751c1.82619,0,5.42779-3.1186,5.42779-4.7002v-3.8779C190.87973,22.11113,188.00323,19.69713,186.14433,19.69713Zm1.7744,7.124c0,1.4102-2.7939,3.3672-4.0244,3.3672h-5.6787c-1.3833,0-3.05469-1.1314-3.05469-2.5361v-2.5625c0-1.3955,2.794-3.3321,4.02439-3.3321h5.7129c1.4258,0,3.0205,1.0552,3.0205,2.4668Z"/>
              <polygon points="187.919 17.465 190.88 17.465 190.88 1.417 187.919 1.417 187.919 8.618 182.275 8.618 182.275 10.679 187.919 10.679 187.919 17.465"/>
              <path d="M181.47394,17.46323l1.55809-1.273-6.4306-6.9721.289-2.9361h5.541V4.22153h-5.3696l-.0001-3.7442-3.1654.0015v3.7427h-5.5742V6.282h5.5742v2.1202a2.40993,2.40993,0,0,1-.7085,1.8574c-1.77689,1.9746-4.1494,4.5137-6.0557,6.5537l-.0649.0693,1.417,1.1382,6.895-5.6821Z"/>
            </g>
            <g>
              <path d="M215.59553,1.41683h-2.9609v9.4624l-6.0923,2.7964a4.00207,4.00207,0,0,1-1.7407.3437h-7.209V2.03993h-2.961v14.04h10.3438a5.33827,5.33827,0,0,0,2.4258-.4756l5.2334-2.8091v4.3579h2.9609v-7.374h4.5703V7.71763h-4.5703Z"/>
              <path d="M212.513,31.63123l2.5591-2.0401a1.97527,1.97527,0,0,0,.5234-1.6616v-7.8857h-18.6797v11.8584h14.8799A1.29682,1.29682,0,0,0,212.513,31.63123Zm-2.3794-1.7896h-10.2559v-7.7373h12.7569v5.6172a1.27164,1.27164,0,0,1-.4854,1.0469l-.7388.6699A1.86656,1.86656,0,0,1,210.13363,29.84163Z"/>
            </g>
            <polygon points="235.118 17.915 243.22 17.915 243.22 15.854 227.363 15.854 227.363 4.655 242.874 4.655 242.874 2.594 224.402 2.594 224.402 17.915 232.157 17.915 232.157 24.752 221.147 24.752 221.147 26.813 246.128 26.813 246.128 24.752 235.118 24.752 235.118 17.915"/>
            <g>
              <path d="M266.74,15.52573l-.3178,4.3286h2.0888l.8946-3.0015a9.79414,9.79414,0,0,0,.29631-2.2182v-9.21a1.10014,1.10014,0,0,0-.20891-.7895l-1.4556-1.4903a.39874.39874,0,0,0-.3696-.1352h-16.9571v2.0605H266.741Z"/>
              <polygon points="262.709 12.843 259.748 12.843 259.748 24.752 255.715 24.752 255.715 12.843 252.754 12.843 252.754 24.752 247.803 24.752 247.803 26.813 272.783 26.813 272.783 24.752 262.709 24.752 262.709 12.843"/>
            </g>
            <g>
              <path d="M274.45783,17.70683h6.16211v4.1368H277.366v2.0615h15.8565v7.8584h2.9609v-7.9541a1.09244,1.09244,0,0,0-.2066-.7871l-1.0703-1.0352a.48912.48912,0,0,0-.3764-.1435h-1.2549v-4.1368h6.1631v-2.0605h-24.9805Zm9.12311,0h6.73329v4.1368h-6.73329Z"/>
              <path d="M290.47933,12.68733c1.8657,0,5.7041-3.0932,5.7041-4.5967v-2.874c0-1.5654-3.0874-3.6269-4.9082-3.6269h-7.8584c-1.8662,0-5.7051,3.0932-5.7051,4.5966v2.8741c0,1.5654,3.0874,3.6269,4.90821,3.6269Zm-9.9102-4.2851V6.67073c0-1.3584,2.7281-3.0889,4.0244-3.0889h5.5049c1.5869,0,3.22851.858,3.22851,2.293v1.7315c0,1.3584-2.728,3.0888-4.02441,3.0888h-5.5049C282.21073,10.69513,280.56913,9.83723,280.56913,8.40223Z"/>
            </g>
            <g>
              <path d="M302.10533,18.02083l6.895-5.6821,6.0947,5.1245,1.5581-1.273-6.4306-6.9721.289-2.9361h5.541V4.22153h-5.36959l.00049-3.7431-3.166.0004v3.7427h-5.5742V6.282h5.5742v2.1202a2.41,2.41,0,0,1-.70849,1.8574l-.00591.0063c-1.771,1.9683-4.1435,4.5074-6.0498,6.5474l-.0649.0693Z"/>
              <polygon points="321.54 17.465 324.501 17.465 324.501 1.417 321.54 1.417 321.54 8.618 315.896 8.618 315.896 10.679 321.54 10.679 321.54 17.465"/>
              <path d="M324.50083,27.54863v-3.8779c0-1.5596-2.8765-3.9736-4.7354-3.9736h-8.5176c-1.8256,0-5.4267,3.0962-5.4267,4.666v3.8428c0,1.5493,2.9204,4.0429,4.7344,4.0429h8.5175C320.89923,32.24883,324.50083,29.13023,324.50083,27.54863Zm-12.6641,2.6397c-1.3833,0-3.0547-1.1314-3.0547-2.5361v-2.5625c0-1.3955,2.794-3.3321,4.0244-3.3321h5.7129c1.4258,0,3.0205,1.0552,3.0205,2.4668v2.5967c0,1.4102-2.79389,3.3672-4.0244,3.3672Z"/>
            </g>
            <g>
              <path class="cls-9" d="M189.3946,4.53772a2.12671,2.12671,0,1,1,2.127-2.12647A2.12888,2.12888,0,0,1,189.3946,4.53772Z"/>
              <path class="cls-5" d="M189.39472.426a1.985,1.985,0,1,1-1.98507,1.9851A1.985,1.985,0,0,1,189.39472.426m0-.28345a2.2685,2.2685,0,1,0,2.26859,2.26855A2.2711,2.2711,0,0,0,189.39472.14258Z"/>
            </g>
            <g>
              <path class="cls-10" d="M244.82234,27.89221a2.12671,2.12671,0,1,1,2.126-2.12695A2.1293,2.1293,0,0,1,244.82234,27.89221Z"/>
              <path class="cls-5" d="M244.82194,23.78021a1.98511,1.98511,0,1,1-1.98511,1.98511,1.98515,1.98515,0,0,1,1.98511-1.98511m0-.28344a2.26855,2.26855,0,1,0,2.26855,2.26855,2.27111,2.27111,0,0,0-2.26855-2.26855Z"/>
            </g>
            <g>
              <path class="cls-11" d="M322.99421,4.8551a2.12671,2.12671,0,1,1,2.12695-2.12646A2.12888,2.12888,0,0,1,322.99421,4.8551Z"/>
              <path class="cls-5" d="M322.99443.74335a1.98508,1.98508,0,1,1-1.98511,1.9851,1.98514,1.98514,0,0,1,1.98511-1.9851m0-.28345A2.26853,2.26853,0,1,0,325.263,2.72845,2.27113,2.27113,0,0,0,322.99443.4599Z"/>
            </g>
            <g>
              <path class="cls-12" d="M164.72468,18.799a2.12671,2.12671,0,1,1,2.12695-2.12646A2.12868,2.12868,0,0,1,164.72468,18.799Z"/>
              <path class="cls-5" d="M164.72514,14.68732a1.985,1.985,0,1,1-1.98511,1.9851,1.98505,1.98505,0,0,1,1.98511-1.9851m0-.28345a2.2685,2.2685,0,1,0,2.26858,2.26855,2.27113,2.27113,0,0,0-2.26858-2.26855Z"/>
            </g>
          </g>
        </g>
      </g>
    </g>
  </g>
</svg>
