<svg xmlns="http://www.w3.org/2000/svg" viewBox="0 0 185.7011 115.3988"><defs><style>.cls-1{fill:#00758e;}.cls-2{fill:#f5a32d;}.cls-3{fill:#1f313b;}.cls-4{fill:#fccb3e;}.cls-5{fill:#fff;}.cls-6{fill:#979791;}.cls-7{fill:#d7083b;}.cls-8{fill:#8c6faf;}.cls-9{fill:#e35723;}.cls-10{fill:#f39a00;}.cls-11{fill:#007cb9;}.cls-12{fill:#6aaeb2;}</style></defs><g id="Layer_2" data-name="Layer 2"><g id="레이어_1" data-name="레이어 1"><path class="cls-1" d="M31.6076,23.49l2.9794,7.8536,22.2443-8.4386a109.4665,109.4665,0,0,1-10.4228-5.03Z"/><path class="cls-1" d="M150.8624,31.3433l2.98-7.8536-14.801-5.615a109.4432,109.4432,0,0,1-10.4228,5.03Z"/><path class="cls-1" d="M92.7248,9.2882l23.8159,9.0349a92.8373,92.8373,0,0,0,11.8445-4.4908L92.7248.3041l-35.66,13.5282A92.8259,92.8259,0,0,0,68.9088,18.323Z"/><path class="cls-2" d="M155.6983,1.6615a4.2,4.2,0,0,0-5.8847-.8071,114.1,114.1,0,0,1-21.4284,12.9779l10.6558,4.0424a128.1629,128.1629,0,0,0,15.85-10.3286A4.2,4.2,0,0,0,155.6983,1.6615Z"/><path class="cls-2" d="M35.636.8544a4.2,4.2,0,1,0-5.0772,6.6917,128.1535,128.1535,0,0,0,15.85,10.3286l10.6559-4.0424A114.1,114.1,0,0,1,35.636.8544Z"/><path class="cls-2" d="M92.7248,21.8886a82.2033,82.2033,0,0,1-23.816-3.5656L56.8313,22.9047a92.5138,92.5138,0,0,0,35.8935,7.3839,92.5126,92.5126,0,0,0,35.8934-7.3839l-12.0775-4.5816A82.2048,82.2048,0,0,1,92.7248,21.8886Z"/><path class="cls-3" d="M57.0645,13.8323,46.4086,17.8747a109.4549,109.4549,0,0,0,10.4228,5.03L68.9088,18.323A92.8189,92.8189,0,0,1,57.0645,13.8323Z"/><path class="cls-3" d="M116.5408,18.3231l12.0775,4.5816a109.4417,109.4417,0,0,0,10.4227-5.03l-10.6557-4.0424A92.8486,92.8486,0,0,1,116.5408,18.3231Z"/><path d="M15.4731,100.6425,9.56,93.4457V87.6322h5.5742v-2.06H1.0249v2.06H6.5991v4.82a2.648,2.648,0,0,1-.7412,1.9248c-.7227.8637-1.5147,1.85-2.3457,2.8837C2.37,98.684,1.19,100.1523,0,101.5458l1.4155,1.1372,6.6631-6.1762,5.8652,5.38Z"/><polygon points="23.581 84.602 20.621 84.602 20.621 106.154 23.581 105.371 23.581 84.602"/><polygon points="8.14 105.098 5.179 105.098 5.179 114.707 24.032 114.707 24.032 112.646 8.14 112.646 8.14 105.098"/><path d="M40.4731,102.5541h8.4483v-2.0605h-16.55V94.9721H47.2329a1.1341,1.1341,0,0,0,.9961-1.0654V87.0522a.5293.5293,0,0,0-.208-.4419l-1.0684-1.0352c-.125-.125-.1592-.1421-.4121-.1421H29.7573v2.0606H45.268v5.4179H31.9643a.8025.8025,0,0,0-.5625.2583l-1.4687,1.1543a1.9761,1.9761,0,0,0-.5225,1.6607v6.5693h8.1016v5.9375h-11.01v2.0606H51.4829v-2.0606h-11.01Z"/><path d="M59.32,105.4369l-.1377.1065c-1.5537,1.2-2.77,2.8257-2.77,3.7011v2.1465c0,1.5733,2.7715,4.0078,4.5625,4.0078h8.5517c1.8028,0,5.3575-3.2793,5.3575-4.9423v-2.1817c0-1.0351-1.1983-2.5268-2.7285-3.396l-.18-.102V100.2h6.1631V98.1391h-24.98V100.2H59.32ZM62.2807,100.2h6.7334v4.1026H62.2807Zm.666,6.0938H69.145a2.8058,2.8058,0,0,1,2.8818,2.64v1.0391c0,1.3476-2.5361,3.4355-3.8174,3.4355H62.4975c-1.6289,0-3.2285-1.3247-3.2285-2.6738v-1.0049C59.269,108.4447,61.5717,106.2934,62.9467,106.2934Z"/><path d="M69.1792,95.18c1.8662,0,5.7041-3.0933,5.7041-4.5967V88.4018c0-1.5655-3.0869-3.627-4.9082-3.627H62.1167c-1.8662,0-5.7051,3.0933-5.7051,4.5967v2.1816c0,1.5655,3.0869,3.627,4.9082,3.627Zm-9.91-4.2852v-1.039c0-1.3584,2.7285-3.0889,4.0244-3.0889h5.5049c1.5869,0,3.2285.8579,3.2285,2.293v1.039c0,1.3584-2.7285,3.0889-4.0244,3.0889H62.4975C60.9106,93.1879,59.269,92.33,59.269,90.8949Z"/><polygon points="101.608 84.602 98.647 84.602 98.647 100.997 101.608 100.997 101.608 93.83 106.178 93.83 106.178 91.769 101.608 91.769 101.608 84.602"/><path d="M85.8891,103.644H82.9282v11.4433H99.4c.2041,0,.2412-.0234.4883-.1777l1.582-1.2036c.0469-.0381.1377-.1992.1377-.7915v-9.27h-2.961v2.9433H85.8891Zm12.7578,5.0039v4.3789H85.8891v-4.3789Z"/><polygon points="88.056 83.352 85.213 83.352 85.213 86.991 78.981 86.991 78.981 89.051 95.064 89.051 95.064 86.991 88.057 86.991 88.056 83.352"/><path d="M93.9214,96.9194V94.2533c0-1.3476-2.81-3.35-4.2852-3.35H84.79c-1.5488,0-4.873,2.6875-4.873,3.9394v2.666c0,1.2334,2.7226,3.3838,4.2842,3.3838h4.8476C90.6421,100.892,93.9214,98.2187,93.9214,96.9194ZM85.309,98.8666c-1.4541,0-2.4316-.769-2.4316-1.9131V95.5346c0-1.2661,2.1221-2.6055,3.2627-2.6055H88.563c1.4335,0,2.3974.7412,2.3974,1.8438V96.227c0,1.2412-2.1289,2.64-3.2627,2.64Z"/><polygon points="122.066 96.028 119.105 96.028 119.105 107.937 115.072 107.937 115.072 96.028 112.111 96.028 112.111 107.937 107.16 107.937 107.16 109.999 132.14 109.999 132.14 107.937 122.066 107.937 122.066 96.028"/><path d="M126.0971,98.7109l-.3183,4.3286h2.09l.8936-3.0015a9.7649,9.7649,0,0,0,.2968-2.2183V88.61a1.0979,1.0979,0,0,0-.2089-.79l-1.4561-1.49a.3973.3973,0,0,0-.3691-.1353H110.0678v2.0606h16.03Z"/><path d="M149.8364,95.8725c1.8662,0,5.7041-3.0933,5.7041-4.5967v-2.874c0-1.5655-3.0869-3.627-4.9082-3.627h-7.8584c-1.8662,0-5.7051,3.0933-5.7051,4.5967v2.874c0,1.5655,3.0869,3.627,4.9082,3.627Zm-9.91-4.2852V89.8559c0-1.3584,2.7286-3.0889,4.0245-3.0889h5.5048c1.5869,0,3.2285.8579,3.2285,2.293v1.7314c0,1.3584-2.7285,3.0889-4.0244,3.0889h-5.5048C141.5678,93.88,139.9262,93.0224,139.9262,91.5873Z"/><path d="M139.977,105.0287h-3.2539V107.09H152.58v7.8583h2.9609v-7.9541a1.0992,1.0992,0,0,0-.2061-.7871l-1.07-1.0351a.49.49,0,0,0-.3769-.1436h-1.2549V100.892h6.1631v-2.06H133.8149v2.06h6.1621Zm2.961-4.1367h6.7334v4.1367H142.938Z"/><polygon points="168.415 107.175 165.455 107.175 165.455 115.053 185.45 115.053 185.45 112.993 168.415 112.993 168.415 107.175"/><path d="M166.728,95.2143h6.543c1.4472,0,4.4238-2.65,4.4238-3.9385v-3.22c0-1.2212-2.459-3.3506-3.8691-3.3506h-6.544c-1.4053,0-4.4238,2.6636-4.4238,3.9043v3.1855C162.8579,93.0414,165.3169,95.2143,166.728,95.2143Zm-1.1856-5.7393c0-1.0762,1.961-2.7431,2.9512-2.7431h4.2237a2.43,2.43,0,0,1,2.2939,2.1894v1.5234c0,1-1.876,2.7432-2.9512,2.7432h-4.1894a2.5414,2.5414,0,0,1-2.3282-2.2236Z"/><polygon points="181.97 107.989 184.931 107.206 184.931 84.602 181.97 84.602 181.97 102.432 174.734 102.432 174.734 104.494 181.97 104.494 181.97 107.989"/><path d="M167.5327,105.2182l2.9609-.7818V99.8188h4.959a5.48,5.48,0,0,0,2.3057-.4839l2.0293-.91-.5088-1.456-2.0342.5678a4.4027,4.4027,0,0,1-1.55.2212h-14.81v2.0606h6.6475Z"/><path class="cls-4" d="M50.3342,111.6417a2.1265,2.1265,0,1,1,2.1264-2.126A2.1287,2.1287,0,0,1,50.3342,111.6417Z"/><path class="cls-5" d="M50.3342,107.53a1.9851,1.9851,0,1,1-1.9851,1.9852,1.9852,1.9852,0,0,1,1.9851-1.9852m0-.2834a2.2686,2.2686,0,1,0,2.2685,2.2686,2.2712,2.2712,0,0,0-2.2685-2.2686Z"/><path class="cls-6" d="M76.5763,101.4484a2.1265,2.1265,0,1,1,2.127-2.126A2.1287,2.1287,0,0,1,76.5763,101.4484Z"/><path class="cls-5" d="M76.5764,97.3369a1.9851,1.9851,0,1,1-1.9851,1.985,1.9851,1.9851,0,0,1,1.9851-1.985m0-.2834a2.2685,2.2685,0,1,0,2.2686,2.2684,2.2711,2.2711,0,0,0-2.2686-2.2684Z"/><path class="cls-7" d="M131.0925,111.0568a2.1265,2.1265,0,1,1,2.1269-2.126A2.1292,2.1292,0,0,1,131.0925,111.0568Z"/><path class="cls-5" d="M131.0924,106.9453a1.985,1.985,0,1,1-1.9851,1.985,1.985,1.985,0,0,1,1.9851-1.985m0-.2835a2.2685,2.2685,0,1,0,2.2686,2.2685,2.2712,2.2712,0,0,0-2.2686-2.2685Z"/><path class="cls-8" d="M183.4323,87.58a2.1265,2.1265,0,1,1,2.127-2.126A2.1291,2.1291,0,0,1,183.4323,87.58Z"/><path class="cls-5" d="M183.4325,83.4686a1.9851,1.9851,0,1,1-1.9851,1.9852,1.9851,1.9851,0,0,1,1.9851-1.9852m0-.2834a2.2686,2.2686,0,1,0,2.2686,2.2686,2.2712,2.2712,0,0,0-2.2686-2.2686Z"/><path d="M.6534,63.5128h11.01v3.7558H9.6124c-1.813,0-5.7051,3.3726-5.7051,4.9434v1.8c0,1.5356,3.0274,4.0078,4.9082,4.0078h7.8594c1.8657,0,5.7041-3.3257,5.7041-4.9424V71.2423c0-1.6377-3.1748-3.9737-4.9082-3.9737H14.6241V63.5128h11.01V61.4522H.6534Zm15.9873,5.748a2.772,2.772,0,0,1,2.8819,2.64v.6924c0,1.3476-2.5362,3.4355-3.8174,3.4355H9.9933c-1.6294,0-3.2285-1.3247-3.2285-2.6738v-.6582c0-1.2842,2.3027-3.4356,3.6777-3.4356Z"/><path d="M13.1442,54.6749l8.6831,4.4624L23.05,57.84l-8.6235-5.6025.1-.8081H22.379V49.3692H14.8419l-.0037-2.9075-3.175-.0051v2.9126H3.9073V51.43h7.8765l-.1782.4785a3.0472,3.0472,0,0,1-1.3916,1.3891c-2.107,1.35-4.6831,3.0127-7.0132,4.5416l1.2241,1.2988Z"/><path d="M45.9611,65.503H37.4435c-1.8257,0-5.4268,3.0962-5.4268,4.666v3.8428c0,1.5493,2.92,4.043,4.7344,4.043h8.5176c1.8261,0,5.4277-3.1187,5.4277-4.7v-3.878C50.6964,67.9171,47.82,65.503,45.9611,65.503Zm1.7744,7.124c0,1.41-2.794,3.3672-4.0244,3.3672H38.0323c-1.3833,0-3.0546-1.1313-3.0546-2.5361V70.8956c0-1.3955,2.7939-3.332,4.0244-3.332H44.715c1.4257,0,3.02,1.0551,3.02,2.4668Z"/><polygon points="47.735 63.271 50.696 63.271 50.696 47.223 47.735 47.223 47.735 54.424 42.092 54.424 42.092 56.485 47.735 56.485 47.735 63.271"/><path d="M41.2906,63.2691l1.5581-1.2729L36.4181,55.024l.289-2.936h5.5411V50.0274h-5.37V46.2833l-3.1654.0015v3.7426H28.1388V52.088H33.713v2.12a2.41,2.41,0,0,1-.7085,1.8574c-1.7768,1.9746-4.1494,4.5137-6.0557,6.5537l-.0649.0694,1.417,1.1381,6.895-5.6821Z"/><path d="M75.4122,47.2227H72.4513v9.4624L66.359,59.4815a4.0008,4.0008,0,0,1-1.7407.3438h-7.209v-11.98H54.4484v14.04H64.7921a5.338,5.338,0,0,0,2.4258-.4756l5.2334-2.809v4.3579h2.9609V55.585h4.57V53.5235h-4.57Z"/><path d="M72.33,77.4371l2.5591-2.04a1.9755,1.9755,0,0,0,.5234-1.6617V65.85h-18.68V77.7081h14.88A1.2963,1.2963,0,0,0,72.33,77.4371Zm-2.3794-1.79H59.6945V67.91H72.4513v5.6172a1.2716,1.2716,0,0,1-.4854,1.0469l-.7387.67A1.8664,1.8664,0,0,1,69.95,75.6475Z"/><polygon points="94.935 63.721 103.036 63.721 103.036 61.66 87.18 61.66 87.18 50.461 102.69 50.461 102.69 48.4 84.219 48.4 84.219 63.721 91.974 63.721 91.974 70.558 80.964 70.558 80.964 72.619 105.944 72.619 105.944 70.558 94.935 70.558 94.935 63.721"/><path d="M126.5568,61.3316l-.3179,4.3286h2.0889l.8945-3.0014a9.7947,9.7947,0,0,0,.2964-2.2183v-9.21a1.1,1.1,0,0,0-.209-.79l-1.4556-1.49a.3986.3986,0,0,0-.37-.1353h-16.957v2.0606h16.03Z"/><polygon points="122.525 58.649 119.565 58.649 119.565 70.558 115.531 70.558 115.531 58.649 112.57 58.649 112.57 70.558 107.619 70.558 107.619 72.619 132.6 72.619 132.6 70.558 122.525 70.558 122.525 58.649"/><path d="M134.2745,63.5128h6.1621V67.65h-3.2539V69.711h15.8565v7.8584H156V69.6153a1.0934,1.0934,0,0,0-.2065-.7871l-1.07-1.0351a.4894.4894,0,0,0-.3765-.1436h-1.2549V63.5128h6.1631V61.4522H134.2745Zm9.1231,0h6.7334V67.65h-6.7334Z"/><path d="M150.296,58.4932c1.8657,0,5.7041-3.0932,5.7041-4.5966V51.0225c0-1.5654-3.0874-3.6269-4.9082-3.6269h-7.8584c-1.8662,0-5.7051,3.0933-5.7051,4.5967v2.874c0,1.5654,3.0874,3.6269,4.9082,3.6269Zm-9.91-4.2851V52.4766c0-1.3584,2.728-3.0888,4.0244-3.0888h5.5049c1.5869,0,3.2285.8579,3.2285,2.2929v1.7315c0,1.3584-2.7281,3.0889-4.0244,3.0889h-5.5049C142.0275,56.5011,140.3859,55.6432,140.3859,54.2081Z"/><path d="M161.922,63.8267l6.895-5.6821,6.0947,5.1245,1.5581-1.2729-6.4306-6.9722.289-2.936h5.5411V50.0274H170.5l.0006-3.743-3.1661,0v3.7426H161.76V52.088h5.5742v2.12a2.41,2.41,0,0,1-.7085,1.8574l-.0059.0064c-1.771,1.9682-4.1435,4.5073-6.05,6.5473l-.0649.0694Z"/><polygon points="181.357 63.271 184.317 63.271 184.317 47.223 181.357 47.223 181.357 54.424 175.713 54.424 175.713 56.485 181.357 56.485 181.357 63.271"/><path d="M184.3175,73.3546v-3.878c0-1.5595-2.8765-3.9736-4.7354-3.9736h-8.5175c-1.8257,0-5.4268,3.0962-5.4268,4.666v3.8428c0,1.5493,2.92,4.043,4.7344,4.043H178.89C180.7159,78.0548,184.3175,74.9361,184.3175,73.3546Zm-12.6641,2.64c-1.3833,0-3.0547-1.1313-3.0547-2.5361V70.8956c0-1.3955,2.794-3.332,4.0245-3.332h5.7129c1.4257,0,3.02,1.0551,3.02,2.4668V72.627c0,1.41-2.794,3.3672-4.0245,3.3672Z"/><path class="cls-9" d="M49.2116,50.3439a2.127,2.127,0,1,1,2.1265-2.127A2.1293,2.1293,0,0,1,49.2116,50.3439Z"/><path class="cls-5" d="M49.2115,46.232a1.9851,1.9851,0,1,1-1.9851,1.985,1.985,1.985,0,0,1,1.9851-1.985m0-.2835A2.2686,2.2686,0,1,0,51.48,48.217a2.2711,2.2711,0,0,0-2.2685-2.2685Z"/><path class="cls-10" d="M104.6384,73.6984a2.127,2.127,0,1,1,2.1269-2.127A2.1291,2.1291,0,0,1,104.6384,73.6984Z"/><path class="cls-5" d="M104.6386,69.5862a1.9851,1.9851,0,1,1-1.9851,1.985,1.9851,1.9851,0,0,1,1.9851-1.985m0-.2835a2.2686,2.2686,0,1,0,2.2686,2.2685,2.2712,2.2712,0,0,0-2.2686-2.2685Z"/><circle class="cls-11" cx="182.8112" cy="48.5343" r="2.127"/><path class="cls-5" d="M182.8111,46.5494a1.985,1.985,0,1,1-1.9851,1.985,1.985,1.985,0,0,1,1.9851-1.985m0-.2835a2.2685,2.2685,0,1,0,2.2686,2.2685,2.2712,2.2712,0,0,0-2.2686-2.2685Z"/><path class="cls-12" d="M24.5417,64.6046a2.1265,2.1265,0,1,1,2.1269-2.126A2.1287,2.1287,0,0,1,24.5417,64.6046Z"/><path class="cls-5" d="M24.5419,60.4932a1.9851,1.9851,0,1,1-1.9851,1.9852,1.9852,1.9852,0,0,1,1.9851-1.9852m0-.2834A2.2686,2.2686,0,1,0,26.81,62.4784,2.2712,2.2712,0,0,0,24.5419,60.21Z"/></g></g></svg>