<svg xmlns="http://www.w3.org/2000/svg" viewBox="0 0 521.2254 159.006"><defs><style>.cls-1{fill:#fff;}.cls-2{fill:#ef983f;}.cls-3{fill:#d14232;}.cls-4{fill:#0d778b;}</style></defs><g id="Layer_2" data-name="Layer 2"><g id="레이어_1" data-name="레이어 1"><path class="cls-1" d="M246.7326,106.16a32.777,32.777,0,1,0-32.7573,32.7576h44.3436v16.9236h22.7079V116.7345H244.9536A32.631,32.631,0,0,0,246.7326,106.16Zm-32.7573,10.5741A10.5746,10.5746,0,1,1,224.5491,106.16,10.604,10.604,0,0,1,213.9753,116.7345Z"/><polygon class="cls-1" points="248.013 46.779 226.086 46.779 226.086 30.264 201.827 30.264 201.827 46.779 179.383 46.779 179.383 66.558 248.013 66.558 248.013 46.779"/><polygon class="cls-1" points="300.395 64.114 281.038 64.114 281.038 46.236 258.339 46.236 258.339 103.933 281.038 103.933 281.038 84.14 300.395 84.14 300.395 64.114"/><rect class="cls-1" x="386.5866" y="46.236" width="22.6992" height="59.9529"/><path class="cls-2" d="M374.9907,73.4316a32.7765,32.7765,0,1,0-32.7564,32.7573A32.7612,32.7612,0,0,0,374.9907,73.4316Z"/><polygon class="cls-1" points="126.49 114.523 103.783 114.523 103.783 155.842 169.084 155.842 169.084 135.816 126.49 135.816 126.49 114.523"/><rect class="cls-1" x="146.3847" y="41.8674" width="22.6992" height="81.2988"/><polygon class="cls-1" points="421.791 115.066 421.791 135.103 442.936 135.103 442.936 155.842 465.631 155.842 465.631 135.103 481.722 135.103 481.722 155.842 504.418 155.842 504.418 135.103 521.225 135.103 521.225 115.066 421.791 115.066"/><rect class="cls-1" x="71.1423" y="47.3322" width="65.2749" height="19.2255"/><polygon class="cls-3" points="103.823 69.083 67.488 105.422 140.162 105.422 103.823 69.083"/><polygon class="cls-1" points="409.291 144.276 394.531 159.006 382.531 147.006 376.981 140.106 371.101 147.336 359.371 159.006 347.641 147.336 341.761 140.106 336.211 147.006 324.211 159.006 309.451 144.276 341.791 111.936 359.371 129.486 376.951 111.936 409.291 144.276"/><polygon class="cls-1" points="471.506 47.591 428.157 90.941 443.443 106.186 465.462 84.201 471.549 76.718 477.27 83.844 499.612 106.186 514.856 90.941 471.506 47.591"/><rect class="cls-4" x="454.6827" y="6.9693" width="33.6509" height="33.6509" transform="translate(121.2761 340.376) rotate(-45)"/><path class="cls-1" d="M5.4657,65.3508a30.1665,30.1665,0,0,0,5.4042-.5082,38.6873,38.6873,0,0,0,5.69-1.518c3.54-1.23,6.0231-2.9946,7.3941-5.2533,1.34,2.2221,3.8253,3.9879,7.3977,5.2533A33.5864,33.5864,0,0,0,42.27,65.3508h.1245l4.5468-4.0578-.8247-.0186a25.9082,25.9082,0,0,1-4.9584-.5835,22.4952,22.4952,0,0,1-4.8426-1.6932,14.7868,14.7868,0,0,1-6.5079-5.0487H42.7131V48.6324H28.4157V46.18q0-1.0687-.0291-1.902a6.2253,6.2253,0,0,1-.0024-.71l.0315-.0327v-.4575h-9.039v5.5545H4.9626V53.949H17.9859a14.8,14.8,0,0,1-6.5073,5.0487L11.4711,59a24.3609,24.3609,0,0,1-9.8538,2.2743l-.8241.0174,4.548,4.059Z"/><path class="cls-1" d="M32.8764,67.4763H15.39c-2.8443,0-5.4069-.0192-7.6212-.0585H0v5.3766H19.6731v2.63a15.8526,15.8526,0,0,0-5.8365,2.6919,9.6563,9.6563,0,0,0-4.3248,7.94,9.5042,9.5042,0,0,0,4.32,7.878A13.85,13.85,0,0,0,18.58,96.3534a20.6907,20.6907,0,0,0,5.6118.7215,20.3678,20.3678,0,0,0,5.5833-.7215,13.2532,13.2532,0,0,0,4.6473-2.41,9.3292,9.3292,0,0,0,.0111-15.8241,14.8517,14.8517,0,0,0-5.84-2.7213V72.7944H48.2664V67.4178H40.4928C38.283,67.4571,35.721,67.4763,32.8764,67.4763Zm-2.63,18.58a5.8508,5.8508,0,0,1-1.8027,4.2672,5.5253,5.5253,0,0,1-4.2519,1.7874,6.1592,6.1592,0,0,1-4.311-1.7874,6.079,6.079,0,0,1-1.7442-4.2672,6.2149,6.2149,0,0,1,1.7469-4.27,5.5854,5.5854,0,0,1,4.3083-1.9629,5.3206,5.3206,0,0,1,4.26,1.9731A5.8442,5.8442,0,0,1,30.2466,86.0565Z"/><path class="cls-1" d="M6.5307,149.9634a5.497,5.497,0,0,0,1.7646,4.3512,6.4008,6.4008,0,0,0,4.35,1.527H40.9134V134.2191H6.5307Zm8.9208-10.3677h16.54V150.525h-16.54Z"/><path class="cls-1" d="M41.5041,104.3271h-8.98v18.5046a15.744,15.744,0,0,1-3.4161.8757,30.2817,30.2817,0,0,1-4.6473.3507H9.6027V104.6217H.8v18.9345a5.8985,5.8985,0,0,0,1.533,4.15,5.7243,5.7243,0,0,0,4.4046,1.67H24.0459a20.2131,20.2131,0,0,0,8.4777-1.8366V131.03h8.9805V118.5063h8.27v-5.3178h-8.27Z"/></g></g></svg>