<?xml version="1.0" encoding="utf-8"?>
<!-- Generator: Adobe Illustrator 24.2.0, SVG Export Plug-In . SVG Version: 6.00 Build 0)  -->
<svg version="1.1" id="Layer_1" xmlns="http://www.w3.org/2000/svg" xmlns:xlink="http://www.w3.org/1999/xlink" x="0px" y="0px"
	 viewBox="0 0 36 16" style="enable-background:new 0 0 36 16;" xml:space="preserve">
<style type="text/css">
	.st0{fill:#E5F9EE;}
	.st1{fill:none;}
	.st2{fill:#03C75A;}
</style>
<path class="st0" d="M12,1h23c0.6,0,1,0.4,1,1v11c0,0.6-0.4,1-1,1H12V1z"/>
<path class="st1" d="M12.1,13.1V2.8H0.9v10.3C0.9,13.1,12.1,13.1,12.1,13.1z"/>
<path class="st2" d="M9,0C8.8,0,8.6,0.2,8.6,0.5V1h-4V0.5C4.5,0.2,4.3,0,4,0S3.5,0.2,3.5,0.5V1H1C0.4,1,0,1.4,0,2v11
	c0,0.6,0.4,1,1,1h11c0.6,0,1-0.4,1-1V2c0-0.6-0.4-1-1-1H9.5V0.5C9.5,0.2,9.3,0,9,0z M12.1,2.8v10.3H0.9V2.8
	C0.9,2.8,12.1,2.8,12.1,2.8z M5.4,7.7l2.2,2.9h1.8V5.2H7.6v2.9L5.4,5.2H3.6v5.5h1.8C5.4,10.7,5.4,7.7,5.4,7.7z M20.2,6
	c0.1,0.3,0.1,0.7,0.1,1.1c0,0.3,0,0.7-0.1,0.9h0.9V6H20.2z M18.4,9.3c0.6,0,1-0.9,1-2.2s-0.3-2.3-1-2.3c-0.6,0-1,1-1,2.3
	S17.7,9.3,18.4,9.3z M23.9,3.1v9h-1v-9H23.9z M21.1,11.7V8.8H20c-0.3,0.8-0.8,1.4-1.7,1.4c-1.3,0-1.9-1.5-1.9-3.2s0.6-3.1,1.9-3.1
	c0.8,0,1.3,0.5,1.6,1.3h1.2V3.3h1v8.4C22.1,11.7,21.1,11.7,21.1,11.7z M26.9,7c0.8,0,1.3-0.6,1.3-1.3s-0.5-1.3-1.3-1.3
	S25.6,5,25.6,5.7C25.6,6.5,26.1,7,26.9,7z M25.7,9.7V8.8h5.9v3.3h-1V9.7H25.7z M31.5,6.3h1.3v0.8h-1.3v1.2h-1V3.1h1v1.1h1.3V5h-1.3
	C31.5,5,31.5,6.3,31.5,6.3z M26.9,3.6c1.3,0,2.3,0.9,2.3,2.1c0,1.3-1,2.1-2.3,2.1S24.6,7,24.6,5.7C24.6,4.5,25.6,3.6,26.9,3.6z"/>
</svg>
