<svg xmlns="http://www.w3.org/2000/svg" viewBox="0 0 438.71 122.93"><defs><style>.cls-1{fill:#222;}</style></defs><title>logo</title><g id="레이어_2" data-name="레이어 2"><g id="레이어_1-2" data-name="레이어 1"><path class="cls-1" d="M29.24,99.16H67.53v22.57H0V1.71H29.24Z"/><path class="cls-1" d="M98.73,115.06a58.67,58.67,0,0,1-22.39-22A61.36,61.36,0,0,1,68,61.38a60.94,60.94,0,0,1,8.3-31.63A59,59,0,0,1,98.73,7.86a65.2,65.2,0,0,1,62.07,0A57.76,57.76,0,0,1,183,29.75a61.89,61.89,0,0,1,8.12,31.63,61.88,61.88,0,0,1-8.2,31.71,58.26,58.26,0,0,1-22.23,22,62.1,62.1,0,0,1-30.94,7.87A62.61,62.61,0,0,1,98.73,115.06Zm54-28.38q8.64-9.57,8.64-25.3,0-15.9-8.64-25.39t-23-9.49q-14.54,0-23.17,9.4T98,61.38q0,15.9,8.64,25.39t23.17,9.49Q144.13,96.26,152.76,86.68Z"/><path class="cls-1" d="M278.51,39.67a21.89,21.89,0,0,0-9.32-9.15,30.43,30.43,0,0,0-14.27-3.16q-14.21,0-22.74,9.31t-8.55,24.88q0,16.59,9,25.9t24.71,9.32q10.77,0,18.21-5.47t10.86-15.73H249.27V54h63.61V81.21a57.5,57.5,0,0,1-11,20.35,58.12,58.12,0,0,1-19.75,15.21,61,61,0,0,1-27,5.82q-17.79,0-31.72-7.78a55.4,55.4,0,0,1-21.71-21.63q-7.78-13.84-7.78-31.63t7.78-31.72A55.4,55.4,0,0,1,223.29,8.12Q237.14.35,254.92.34q21.54,0,36.33,10.43t19.57,28.9Z"/><path class="cls-1" d="M346.3,115.06a58.77,58.77,0,0,1-22.4-22,61.35,61.35,0,0,1-8.29-31.71,60.94,60.94,0,0,1,8.29-31.63A59.06,59.06,0,0,1,346.3,7.86a65.18,65.18,0,0,1,62.06,0,57.79,57.79,0,0,1,22.23,21.89,62,62,0,0,1,8.12,31.63,61.88,61.88,0,0,1-8.21,31.71,58.3,58.3,0,0,1-22.22,22,65,65,0,0,1-62,0Zm54-28.38Q409,77.11,409,61.38q0-15.9-8.63-25.39t-23-9.49q-14.54,0-23.17,9.4t-8.63,25.48q0,15.9,8.63,25.39t23.17,9.49Q391.68,96.26,400.33,86.68Z"/></g></g></svg>