<?xml version="1.0" encoding="utf-8"?>
<!-- Generator: Adobe Illustrator 24.2.0, SVG Export Plug-In . SVG Version: 6.00 Build 0)  -->
<svg version="1.1" id="Layer_1" xmlns="http://www.w3.org/2000/svg" xmlns:xlink="http://www.w3.org/1999/xlink" x="0px" y="0px"
	 viewBox="0 0 236.4 111.1" style="enable-background:new 0 0 236.4 111.1;" xml:space="preserve">
<style type="text/css">
	.st0{fill:#F5A32D;}
	.st1{fill:#00758E;}
	.st2{fill:#1E313B;}
	.st3{fill:#231815;}
	.st4{fill:#44B5AE;}
	.st5{fill:#FFFFFF;}
	.st6{fill:#9671AE;}
	.st7{fill:#EA5933;}
	.st8{fill:#F9C000;}
	.st9{fill:#007DB8;}
	.st10{fill:#F4E849;}
	.st11{fill:#909385;}
	.st12{fill:#E11D2D;}
</style>
<g>
	<path class="st0" d="M48.3,27.7l3.5,9.3L78.1,27c-4.2-1.8-8.3-3.7-12.3-5.9L48.3,27.7z"/>
	<path class="st0" d="M188.7,36.9l3.5-9.3L174.8,21c-4,2.2-8.1,4.2-12.3,5.9L188.7,36.9z"/>
	<path class="st0" d="M120.3,10.9l28,10.6c4.8-1.4,9.4-3.2,13.9-5.3l-42-15.9l-42,15.9c4.5,2.1,9.2,3.9,13.9,5.3L120.3,10.9z"/>
	<path class="st1" d="M194.4,2c-1.6-2.2-4.7-2.6-6.9-1c0,0,0,0,0,0c-7.8,6-16.3,11.1-25.2,15.3l12.6,4.8c6.5-3.6,12.7-7.7,18.7-12.2
		C195.6,7.2,196.1,4.1,194.4,2C194.4,2,194.4,2,194.4,2"/>
	<path class="st1" d="M53.1,1c-2.2-1.7-5.3-1.2-6.9,0.9c-1.7,2.2-1.2,5.3,0.9,6.9C53,13.4,59.2,17.5,65.7,21l12.5-4.8
		C69.3,12.1,60.9,7,53.1,1"/>
	<path class="st1" d="M120.3,25.8c-9.5,0-18.9-1.4-28-4.2L78,27c13.4,5.7,27.7,8.6,42.3,8.7c14.5,0,28.9-3,42.3-8.7l-14.2-5.4
		C139.2,24.4,129.8,25.8,120.3,25.8"/>
	<path class="st2" d="M78.3,16.3L65.7,21c4,2.2,8.1,4.2,12.3,5.9l14.2-5.4C87.5,20.1,82.8,18.4,78.3,16.3"/>
	<path class="st2" d="M148.3,21.6l14.2,5.4c4.2-1.8,8.3-3.7,12.3-5.9l-12.5-4.8C157.7,18.4,153.1,20.1,148.3,21.6"/>
</g>
<g>
	<path class="st3" d="M4.2,62.1h6.4v1.5c-1.4,0.3-2.4,1.5-2.5,3c0,1.9,1.6,3.1,3.4,3.1s3.4-1.3,3.4-3.1c0-1.5-1-2.7-2.5-3v-1.5h6.4
		v-1.6H4.2V62.1z M13.1,66.5c0,0.9-0.7,1.6-1.6,1.7c-0.9,0-1.6-0.7-1.7-1.6s0.7-1.6,1.6-1.7c0,0,0,0,0,0
		C12.4,64.9,13.1,65.6,13.1,66.5C13.1,66.5,13.1,66.5,13.1,66.5"/>
	<path class="st3" d="M7.1,57.9l1.1,1.2l3.4-2.5l3.4,2.5c0.4-0.4,0.7-0.8,1.1-1.2l-3.5-3v-0.8h3.1v-1.6h-3.1v-1.5h-1.9v1.5H7.5v1.6
		h3.1v0.8L7.1,57.9z"/>
	<path class="st3" d="M29.6,60.8c-1.1-1-2.2-2.5-3.3-3.5v-2.5h2.9v-1.6h-3v-2.2h-1.9v2.2h-3.1v1.6h3.1v2.5l-3.4,3.6l1.1,1.1l3.4-3.3
		l3.2,3.2L29.6,60.8z"/>
	<path class="st3" d="M111.6,60.8c-1.1-1-2.2-2.5-3.3-3.5v-2.5h3v-1.6h-3v-2.2h-1.9v2.2h-3.1v1.6h3.1v2.5l-3.4,3.6l1.1,1.2l3.4-3.3
		l3.1,3.2L111.6,60.8z"/>
	<path class="st3" d="M30.2,63.4c-1.8,0-3.4,1.3-3.4,3.1s1.6,3.1,3.4,3.1s3.4-1.3,3.4-3.1S32.1,63.4,30.2,63.4 M30.2,68.1
		c-0.9,0-1.6-0.7-1.6-1.6c0-0.9,0.7-1.6,1.6-1.6c0.9,0,1.6,0.7,1.6,1.6C31.8,67.4,31.1,68.1,30.2,68.1
		C30.2,68.1,30.2,68.1,30.2,68.1"/>
	<polygon class="st3" points="33.3,50.9 33.3,55.7 30.1,55.7 30.1,57.3 33.3,57.3 33.3,62.1 35.2,62.1 35.2,50.9 	"/>
	<path class="st3" d="M112.1,63.4c-1.8,0-3.4,1.3-3.4,3.1s1.6,3.1,3.4,3.1s3.4-1.3,3.4-3.1S113.9,63.4,112.1,63.4 M112.1,68.1
		c-0.9,0-1.6-0.7-1.6-1.6c0-0.9,0.7-1.6,1.6-1.6c0.9,0,1.6,0.7,1.6,1.6C113.7,67.4,113,68.1,112.1,68.1
		C112.1,68.1,112.1,68.1,112.1,68.1"/>
	<polygon class="st3" points="115.3,50.9 115.3,55.7 112.1,55.7 112.1,57.3 115.3,57.3 115.3,62.1 117.2,62.1 117.2,50.9 	"/>
	<polygon class="st3" points="45.8,58.9 40.6,58.9 40.6,52.4 38.7,52.4 38.7,60.5 45.8,60.5 	"/>
	<path class="st3" d="M42.6,69.6h7.5v-6.3h-7.5V69.6z M44.4,64.9h3.8v3.3h-3.8V64.9z"/>
	<polygon class="st3" points="50.2,55.7 50.2,50.9 48.3,50.9 48.3,57.2 48.3,58.9 48.3,62.1 50.2,62.1 50.2,62.1 50.2,57.3 
		52.9,57.3 52.9,55.7 	"/>
	<polygon class="st3" points="62.3,59.1 65.6,59.1 65.6,57.5 59,57.5 59,54.1 65.5,54.1 65.5,52.4 57.1,52.4 57.1,59.1 60.4,59.1 
		60.4,61.7 54,61.7 54,63.3 68.7,63.3 68.7,61.7 62.3,61.7 	"/>
	<polygon class="st3" points="78.8,57.3 77.1,57.3 77.1,61.8 75.8,61.8 75.8,57.3 74.1,57.3 74.1,61.8 70.1,61.8 70.1,63.3 
		84.8,63.3 84.8,61.8 78.8,61.8 	"/>
	<polygon class="st3" points="79.8,59.1 81.7,59.1 81.7,52.4 73.1,52.4 73.1,54.1 79.8,54.1 	"/>
	<polygon class="st3" points="195.2,57.2 193.5,57.2 193.5,61.8 192.2,61.8 192.2,57.2 190.5,57.2 190.5,61.8 186.5,61.8 
		186.5,63.3 201.2,63.3 201.2,61.8 195.2,61.8 	"/>
	<polygon class="st3" points="196.2,59.1 198.1,59.1 198.1,52.4 189.5,52.4 189.5,54 196.2,54 	"/>
	<path class="st3" d="M86.2,60.5h4.6v2.9h-1.5V65h6.4v4.4h1.9v-6.1h-1.3v-2.9h4.6v-1.6H86.2V60.5z M92.5,60.5h2v2.9h-2V60.5z"/>
	<path class="st3" d="M97,54.4c0-1.9-1.6-3.5-3.5-3.5S90,52.5,90,54.4c0,1.9,1.6,3.5,3.5,3.5c1.9,0,3.5-1.5,3.5-3.4
		C97,54.5,97,54.5,97,54.4 M91.7,54.4c-0.1-1,0.7-1.8,1.6-1.9c1-0.1,1.8,0.7,1.9,1.6c0.1,1-0.7,1.8-1.6,1.9c0,0-0.1,0-0.1,0
		C92.6,56.1,91.8,55.4,91.7,54.4C91.7,54.4,91.7,54.4,91.7,54.4"/>
	<path class="st3" d="M202.5,60.5h4.6v2.9h-1.5V65h6.4v4.4h1.9v-6.1h-1.3v-2.9h4.6v-1.6h-14.7V60.5z M208.9,60.5h2v2.9h-2V60.5z"/>
	<path class="st3" d="M213.4,54.4c0-1.9-1.6-3.5-3.5-3.5c-1.9,0-3.5,1.6-3.5,3.5c0,1.9,1.6,3.5,3.5,3.5c0,0,0,0,0,0
		c1.9,0,3.4-1.5,3.5-3.4C213.4,54.5,213.4,54.5,213.4,54.4 M208.1,54.4c-0.1-1,0.7-1.8,1.6-1.9c1-0.1,1.8,0.7,1.9,1.6
		c0.1,1-0.7,1.8-1.6,1.9c0,0-0.1,0-0.1,0C209,56.1,208.2,55.4,208.1,54.4C208.1,54.5,208.1,54.4,208.1,54.4"/>
	<path class="st3" d="M228,54.4c0-1.9-1.6-3.5-3.5-3.5s-3.5,1.6-3.5,3.5c0,1.9,1.6,3.5,3.5,3.5c1.9,0,3.5-1.5,3.5-3.4
		C228,54.5,228,54.5,228,54.4 M222.7,54.4c-0.1-1,0.7-1.8,1.6-1.9c1-0.1,1.8,0.7,1.9,1.6c0.1,1-0.7,1.8-1.6,1.9c0,0-0.1,0-0.1,0
		C223.6,56.1,222.8,55.4,222.7,54.4C222.7,54.4,222.7,54.4,222.7,54.4"/>
	<path class="st3" d="M163.3,54.4c0-1.9-1.6-3.5-3.5-3.5c-1.9,0-3.5,1.6-3.5,3.5c0,1.9,1.6,3.5,3.5,3.5c0,0,0,0,0,0
		c1.9,0,3.4-1.5,3.5-3.4C163.3,54.5,163.3,54.4,163.3,54.4 M158,54.4c-0.1-1,0.7-1.8,1.6-1.9c1-0.1,1.8,0.7,1.9,1.6
		c0.1,1-0.7,1.8-1.6,1.9c0,0-0.1,0-0.1,0C158.9,56.1,158.1,55.4,158,54.4C158,54.4,158,54.4,158,54.4"/>
	<path class="st3" d="M176.7,58.8c0-1.8-1.4-3.2-3.2-3.2c-1.8,0-3.2,1.4-3.2,3.2c0,1.8,1.4,3.2,3.2,3.2l0,0c1.7,0,3.2-1.4,3.2-3.1
		C176.7,58.9,176.7,58.9,176.7,58.8 M171.9,58.8c-0.1-0.9,0.6-1.7,1.5-1.8c0.9-0.1,1.7,0.6,1.8,1.5c0.1,0.9-0.6,1.7-1.5,1.8
		c0,0-0.1,0-0.1,0C172.7,60.4,171.9,59.7,171.9,58.8C171.9,58.9,171.9,58.8,171.9,58.8"/>
	<path class="st3" d="M128.9,60.8l-3.3-3.3V54h2.8v-1.6h-7.7V54h2.9v3.4l-3.4,3.4l1.1,1.1l3.4-3c1,1,2.1,2,3.2,3L128.9,60.8z"/>
	<polygon class="st3" points="128,63.4 126.1,63.4 126.1,69.6 134.2,69.6 134.2,68 128,68 	"/>
	<polygon class="st3" points="144.7,60.2 148,60.2 148,58.6 141.3,58.6 141.3,57 147.7,57 147.7,52.4 139.5,52.4 139.5,53.9 
		145.8,53.9 145.8,55.5 139.5,55.5 139.5,60.2 142.8,60.2 142.8,61.8 136.4,61.8 136.4,63.4 151.1,63.4 151.1,61.8 144.7,61.8 	"/>
	<polygon class="st3" points="229.8,58.9 219.1,58.9 219.1,60.5 222.4,60.5 222.4,64.1 224.4,64.1 224.4,60.5 229.8,60.5 	"/>
	<polygon class="st3" points="228.1,67.9 228.1,63.4 226.2,63.4 226.2,69.6 234.3,69.6 234.3,67.9 	"/>
	<polyline class="st3" points="134,52.1 134,50.9 132.2,50.9 132.2,53.1 132.2,53.1 132.2,62.1 134,62.1 134,52.1 134,52.1 	"/>
	<polygon class="st3" points="167.2,60.7 167.2,59.1 152.4,59.1 152.4,60.7 156.9,60.7 156.9,64.8 158.6,63.6 158.6,60.7 161,60.7 
		161,63.6 162.7,64.7 162.7,60.7 	"/>
	<path class="st3" d="M162.7,64.7l-1.7-1.1c-0.4-0.2-0.8-0.2-1.2-0.2c-0.4,0-0.8,0.1-1.2,0.2l-1.7,1.1c-0.3,0.5-0.5,1.2-0.5,1.8
		c0,1.8,1.7,3.1,3.5,3.1c1.8,0.1,3.3-1.3,3.4-3.1c0,0,0-0.1,0-0.1C163.2,65.9,163.1,65.3,162.7,64.7 M159.9,68
		c-0.8,0-1.5-0.6-1.5-1.5c0-0.8,0.6-1.5,1.5-1.5c0.8,0,1.5,0.6,1.5,1.5S160.7,68,159.9,68"/>
	<polygon class="st3" points="178.2,53.1 174.5,53.1 174.5,50.9 172.6,50.9 172.6,53.1 168.8,53.1 168.8,54.6 170.8,54.6 
		176.3,54.6 178.2,54.6 	"/>
	<polygon class="st3" points="182.6,55.7 182.6,50.9 180.7,50.9 180.7,62.1 182.6,62.1 182.6,57.3 185.4,57.3 185.4,55.7 	"/>
	<path class="st3" d="M180.7,63.4v0.3l0,0V65h-4v-1.4l0,0v-0.2h-1.9v6.3h7.8v-6.3H180.7z M180.7,68.1h-4v-1.6h4V68.1z"/>
	<polygon class="st3" points="234.1,62.1 234.1,56.3 234.1,52.1 234.1,50.9 232.2,50.9 232.2,51.2 232.2,55.5 232.2,55.7 
		229.4,55.7 229.4,57.3 232.2,57.3 232.2,62.1 	"/>
	<path class="st4" d="M4,62.8c-0.9,0-1.6-0.7-1.6-1.6c0-0.9,0.7-1.6,1.6-1.6s1.6,0.7,1.6,1.6C5.6,62.1,4.9,62.8,4,62.8
		C4,62.8,4,62.8,4,62.8"/>
	<path class="st5" d="M4,59.7c0.8,0,1.5,0.7,1.5,1.5c0,0.8-0.7,1.5-1.5,1.5S2.5,62,2.5,61.2c0,0,0,0,0,0C2.5,60.4,3.2,59.7,4,59.7
		C4,59.7,4,59.7,4,59.7 M4,59.5c-0.9,0-1.7,0.7-1.7,1.7c0,0.9,0.7,1.7,1.7,1.7s1.7-0.7,1.7-1.7c0,0,0,0,0,0C5.7,60.3,5,59.5,4,59.5"
		/>
	<path class="st6" d="M234.4,70.3c-0.9,0-1.6-0.7-1.6-1.6c0-0.9,0.7-1.6,1.6-1.6c0.9,0,1.6,0.7,1.6,1.6S235.3,70.3,234.4,70.3
		L234.4,70.3"/>
	<path class="st5" d="M234.4,67.3c0.8,0,1.5,0.7,1.5,1.5c0,0.8-0.7,1.5-1.5,1.5c-0.8,0-1.5-0.7-1.5-1.5c0,0,0,0,0,0
		C232.9,67.9,233.6,67.3,234.4,67.3 M234.4,67.1c-0.9,0-1.7,0.8-1.7,1.7c0,0.9,0.8,1.7,1.7,1.7c0.9,0,1.7-0.8,1.7-1.7c0,0,0,0,0,0
		C236.1,67.8,235.4,67.1,234.4,67.1"/>
	<path class="st7" d="M49.3,63.1c-0.9,0-1.6-0.7-1.6-1.6c0-0.9,0.7-1.6,1.6-1.6c0.9,0,1.6,0.7,1.6,1.6c0,0,0,0,0,0
		C50.9,62.4,50.2,63.2,49.3,63.1C49.3,63.2,49.3,63.2,49.3,63.1"/>
	<path class="st5" d="M49.3,60c0.8,0,1.5,0.7,1.5,1.5c0,0.8-0.7,1.5-1.5,1.5c-0.8,0-1.5-0.7-1.5-1.5C47.8,60.7,48.4,60.1,49.3,60
		 M49.3,59.9c-0.9,0-1.7,0.8-1.7,1.7c0,0.9,0.8,1.7,1.7,1.7s1.7-0.8,1.7-1.7C51,60.6,50.2,59.9,49.3,59.9L49.3,59.9"/>
	<path class="st8" d="M53.7,64.1c-0.9,0-1.6-0.7-1.6-1.6c0-0.9,0.7-1.6,1.6-1.6c0.9,0,1.6,0.7,1.6,1.6
		C55.3,63.4,54.5,64.1,53.7,64.1C53.7,64.1,53.7,64.1,53.7,64.1"/>
	<path class="st5" d="M53.7,61c0.8,0,1.5,0.7,1.5,1.5S54.5,64,53.7,64c-0.8,0-1.5-0.7-1.5-1.5c0,0,0,0,0,0
		C52.2,61.7,52.8,61,53.7,61 M53.7,60.8c-0.9,0-1.7,0.8-1.7,1.7s0.8,1.7,1.7,1.7s1.7-0.8,1.7-1.7S54.6,60.8,53.7,60.8L53.7,60.8"/>
	<path class="st9" d="M72.1,54.9c-0.9,0-1.6-0.7-1.6-1.6c0-0.9,0.7-1.6,1.6-1.6c0.9,0,1.6,0.7,1.6,1.6C73.7,54.2,73,54.9,72.1,54.9
		C72.1,54.9,72.1,54.9,72.1,54.9"/>
	<path class="st5" d="M72.1,51.8c0.8,0,1.5,0.7,1.5,1.5s-0.7,1.5-1.5,1.5s-1.5-0.7-1.5-1.5C70.6,52.4,71.3,51.8,72.1,51.8
		 M72.1,51.6c-0.9,0-1.7,0.8-1.7,1.7s0.8,1.7,1.7,1.7s1.7-0.8,1.7-1.7S73,51.6,72.1,51.6L72.1,51.6"/>
	<path class="st10" d="M134.4,70.4c-0.9,0-1.6-0.7-1.6-1.6c0-0.9,0.7-1.6,1.6-1.6c0.9,0,1.6,0.7,1.6,1.6l0,0
		C136,69.7,135.3,70.4,134.4,70.4"/>
	<path class="st5" d="M134.4,67.3c0.8,0,1.5,0.7,1.5,1.5c0,0.8-0.7,1.5-1.5,1.5c-0.8,0-1.5-0.7-1.5-1.5l0,0
		C132.9,68,133.6,67.3,134.4,67.3 M134.4,67.1c-0.9,0-1.7,0.8-1.7,1.7s0.8,1.7,1.7,1.7s1.7-0.8,1.7-1.7c0,0,0,0,0,0
		C136.1,67.9,135.4,67.1,134.4,67.1"/>
	<path class="st11" d="M151.1,64.1c-0.9,0-1.6-0.7-1.6-1.6c0-0.9,0.7-1.6,1.6-1.6c0.9,0,1.6,0.7,1.6,1.6l0,0
		C152.6,63.4,151.9,64.1,151.1,64.1"/>
	<path class="st5" d="M151.1,61c0.8,0,1.5,0.7,1.5,1.5c0,0.8-0.7,1.5-1.5,1.5c-0.8,0-1.5-0.7-1.5-1.5c0,0,0,0,0,0
		C149.6,61.7,150.2,61,151.1,61 M151.1,60.8c-0.9,0-1.7,0.7-1.7,1.7s0.7,1.7,1.7,1.7s1.7-0.7,1.7-1.7c0,0,0,0,0,0
		C152.7,61.6,152,60.8,151.1,60.8"/>
	<path class="st12" d="M186.2,64.2c-0.9,0-1.6-0.7-1.6-1.6c0-0.9,0.7-1.6,1.6-1.6c0.9,0,1.6,0.7,1.6,1.6
		C187.8,63.5,187.1,64.2,186.2,64.2"/>
	<path class="st5" d="M186.2,61.1c0.8,0,1.5,0.7,1.5,1.5c0,0.8-0.7,1.5-1.5,1.5c-0.8,0-1.5-0.7-1.5-1.5l0,0
		C184.7,61.7,185.4,61.1,186.2,61.1 M186.2,60.9c-0.9,0-1.7,0.8-1.7,1.7c0,0.9,0.8,1.7,1.7,1.7c0.9,0,1.7-0.8,1.7-1.7c0,0,0,0,0,0
		C187.9,61.7,187.1,60.9,186.2,60.9"/>
</g>
<g>
	<path class="st3" d="M12,100.4v-2.5H0.8v-3.6h26.7v3.6H16.5v2.5h3c1.3,0,2.4,0.1,3.3,0.4c0.9,0.3,1.6,0.6,2.2,1
		c0.6,0.4,1,1,1.2,1.6c0.3,0.6,0.4,1.3,0.4,2c0,0.7-0.1,1.4-0.4,2c-0.3,0.6-0.7,1.1-1.2,1.6c-0.6,0.4-1.3,0.8-2.2,1
		c-0.9,0.2-2,0.4-3.3,0.4H9c-1.3,0-2.4-0.1-3.3-0.4c-0.9-0.2-1.7-0.6-2.2-1c-0.6-0.4-1-1-1.2-1.6c-0.3-0.6-0.4-1.3-0.4-2
		c0-0.7,0.1-1.4,0.4-2c0.3-0.6,0.7-1.2,1.2-1.6c0.6-0.4,1.3-0.8,2.2-1c0.9-0.3,2-0.4,3.3-0.4H12z M2.5,81.5h9.4v-2.2h4.6v2.2h9.4
		v3.5h-9.2v0.2c0,0.3,0.1,0.6,0.3,0.8c0.2,0.2,0.5,0.4,1,0.5c1.5,0.5,2.9,1,4.4,1.5c1.5,0.5,3,0.9,4.6,1.3l-1.2,3.5
		c-1.8-0.5-3.6-1-5.2-1.5c-1.7-0.5-3.4-1.1-5-1.6c-0.3-0.1-0.6-0.2-0.8-0.3c-0.2-0.1-0.3-0.2-0.4-0.4c-0.1,0.2-0.2,0.3-0.3,0.4
		c-0.1,0.1-0.4,0.2-0.7,0.3C9.7,91,6.2,92.1,2.8,93l-1.2-3.6c1.5-0.4,3-0.8,4.5-1.3c1.5-0.5,3-1,4.5-1.5c0.8-0.3,1.1-0.7,1.1-1.3
		v-0.2H2.5V81.5z M19.5,106.9c0.9,0,1.5-0.1,1.9-0.4c0.3-0.3,0.5-0.6,0.5-1c0-0.4-0.2-0.8-0.5-1.1c-0.3-0.3-1-0.4-1.9-0.4H8.9
		c-0.9,0-1.5,0.1-1.9,0.4s-0.5,0.6-0.5,1.1c0,0.4,0.2,0.8,0.5,1c0.3,0.3,1,0.4,1.9,0.4H19.5z"/>
	<path class="st3" d="M35.9,95.4c-0.7,0-1.3-0.1-1.7-0.2c-0.4-0.2-0.8-0.4-1.2-0.8L31.9,93c-0.3-0.4-0.6-0.8-0.8-1.1
		c-0.2-0.4-0.2-0.9-0.2-1.6V81h4.6v8.9c0,0.2,0,0.3,0.1,0.4c0,0.1,0.1,0.2,0.2,0.3l0.7,0.8c0.2,0.2,0.4,0.3,0.7,0.3h10.4v3.8H35.9z
		 M53.6,98c0.5,0,0.9,0.1,1.2,0.4c0.3,0.3,0.4,0.7,0.4,1.2v9.4c0,0.5-0.1,0.9-0.4,1.2c-0.3,0.3-0.7,0.4-1.2,0.4H34.3
		c-0.5,0-0.9-0.1-1.2-0.4c-0.3-0.3-0.5-0.7-0.5-1.2v-9.4c0-0.5,0.2-0.9,0.5-1.2c0.3-0.3,0.7-0.4,1.2-0.4H53.6z M50.8,106.8v-5H37v5
		H50.8z M55.2,80.5V86h4v3.8h-4v6.5h-4.4V80.5H55.2z"/>
	<path class="st3" d="M71.6,85v2.1c0,0.6,0.1,1.1,0.2,1.5c0.1,0.4,0.3,0.8,0.7,1.1c0.4,0.4,0.8,0.8,1.3,1.3c0.5,0.5,1,0.9,1.6,1.4
		c0.6,0.5,1.1,1,1.7,1.4c0.6,0.5,1.1,0.9,1.6,1.3l-2.4,3.1c-0.6-0.4-1.1-0.8-1.7-1.3s-1.2-1-1.7-1.5c-0.6-0.5-1.1-1-1.6-1.5
		c-0.5-0.5-0.9-0.9-1.3-1.3c-0.1-0.1-0.2-0.3-0.3-0.4c-0.1-0.1-0.2-0.3-0.2-0.5c0,0.2-0.1,0.3-0.2,0.5c-0.1,0.1-0.2,0.3-0.3,0.4
		c-0.4,0.4-0.8,0.8-1.3,1.4c-0.5,0.5-1.1,1-1.6,1.5c-0.6,0.5-1.2,1-1.8,1.5c-0.6,0.5-1.2,1-1.7,1.4l-2.6-3c0.5-0.4,1.1-0.9,1.7-1.4
		c0.6-0.5,1.1-1,1.7-1.5c0.5-0.5,1.1-1,1.6-1.5c0.5-0.5,0.9-0.9,1.3-1.3c0.3-0.4,0.6-0.7,0.7-1.1c0.1-0.4,0.2-0.9,0.2-1.5V85h-6.3
		v-3.8h17.2V85H71.6z M87,106.8v3.9H67.8c-0.7,0-1.3-0.1-1.6-0.2s-0.7-0.4-1-0.8l-0.9-0.9c-0.2-0.2-0.3-0.4-0.5-0.6
		c-0.1-0.2-0.2-0.4-0.3-0.6c-0.1-0.2-0.1-0.4-0.2-0.7c0-0.3-0.1-0.6-0.1-1v-5.9h4.4v5.4c0,0.3,0.1,0.6,0.2,0.8l0.5,0.6
		c0.1,0.1,0.2,0.1,0.3,0.2c0.1,0,0.2,0.1,0.4,0.1H87z M86.4,80.5v22.1h-4.4V80.5H86.4z"/>
	<path class="st3" d="M96.2,92.6v2.9c0,0.1,0,0.2,0,0.3c0,0.1,0.1,0.1,0.2,0.2l0.3,0.3c0.1,0.1,0.2,0.1,0.2,0.2c0.1,0,0.1,0,0.2,0
		h19.3v3.8h-10.3v5.2h11.1v3.9H90.5v-3.9h11.2v-5.2h-6.3c-0.6,0-1-0.1-1.3-0.2c-0.3-0.1-0.6-0.4-0.9-0.7l-0.6-0.6
		c-0.3-0.3-0.5-0.7-0.7-1s-0.2-0.7-0.2-1.4v-6.4c0-0.8,0.4-1.1,1.3-1.1h17.7c0.3,0,0.5-0.2,0.5-0.5v-3.3H91.9v-3.8h22.6
		c0.8,0,1.3,0.4,1.3,1.2v7.6c0,1.7-0.8,2.5-2.5,2.5H96.2z"/>
	<path class="st3" d="M131.4,85v2.1c0,0.6,0.1,1.1,0.2,1.5c0.1,0.4,0.3,0.8,0.7,1.1c0.4,0.4,0.8,0.8,1.3,1.3c0.5,0.5,1,0.9,1.6,1.4
		c0.6,0.5,1.1,1,1.7,1.4c0.6,0.5,1.1,0.9,1.6,1.3l-2.4,3.1c-0.6-0.4-1.1-0.8-1.7-1.3c-0.6-0.5-1.2-1-1.7-1.5c-0.6-0.5-1.1-1-1.6-1.5
		c-0.5-0.5-0.9-0.9-1.3-1.3c-0.1-0.1-0.2-0.3-0.3-0.4c-0.1-0.1-0.2-0.3-0.2-0.5c0,0.2-0.1,0.3-0.2,0.5c-0.1,0.1-0.2,0.3-0.3,0.4
		c-0.4,0.4-0.8,0.8-1.3,1.4c-0.5,0.5-1.1,1-1.6,1.5c-0.6,0.5-1.2,1-1.8,1.5c-0.6,0.5-1.2,1-1.7,1.4l-2.6-3c0.5-0.4,1.1-0.9,1.7-1.4
		c0.6-0.5,1.1-1,1.7-1.5c0.5-0.5,1.1-1,1.6-1.5c0.5-0.5,0.9-0.9,1.3-1.3c0.3-0.4,0.6-0.7,0.7-1.1c0.1-0.4,0.2-0.9,0.2-1.5V85h-6.3
		v-3.8h17.2V85H131.4z M146.8,106.8v3.9h-19.3c-0.7,0-1.3-0.1-1.6-0.2c-0.3-0.2-0.7-0.4-1-0.8l-0.9-0.9c-0.2-0.2-0.3-0.4-0.5-0.6
		c-0.1-0.2-0.2-0.4-0.3-0.6c-0.1-0.2-0.1-0.4-0.2-0.7c0-0.3-0.1-0.6-0.1-1v-5.9h4.4v5.4c0,0.3,0.1,0.6,0.2,0.8l0.5,0.6
		c0.1,0.1,0.2,0.1,0.3,0.2c0.1,0,0.2,0.1,0.4,0.1H146.8z M146.2,80.5v22.1h-4.4V80.5H146.2z"/>
	<path class="st3" d="M149.4,86.1v-3.7h7.2v-2.9h4.5v2.9h7v3.7H149.4z M166.6,93c0,0.7-0.1,1.4-0.4,2.1c-0.3,0.7-0.7,1.3-1.3,1.8
		c-0.6,0.5-1.3,0.9-2.1,1.2c-0.9,0.3-1.9,0.5-3.1,0.5h-1.9c-1.2,0-2.2-0.2-3.1-0.5c-0.9-0.3-1.6-0.7-2.1-1.2s-1-1.1-1.3-1.8
		c-0.3-0.7-0.4-1.4-0.4-2.1c0-0.7,0.1-1.4,0.4-2.1s0.7-1.3,1.3-1.8c0.6-0.5,1.3-0.9,2.1-1.2c0.9-0.3,1.9-0.5,3.1-0.5h1.9
		c1.2,0,2.2,0.2,3.1,0.5c0.9,0.3,1.6,0.7,2.1,1.2c0.6,0.5,1,1.1,1.3,1.8S166.6,92.3,166.6,93z M174.8,110.9h-4.5v-6.6h-17.5v-3.6
		h20.7c0.8,0,1.3,0.4,1.3,1.3V110.9z M159.8,95c0.8,0,1.4-0.2,1.8-0.6c0.4-0.4,0.6-0.9,0.6-1.4c0-0.6-0.2-1-0.6-1.4
		c-0.4-0.4-1-0.6-1.8-0.6h-1.9c-0.8,0-1.4,0.2-1.8,0.6c-0.4,0.4-0.6,0.8-0.6,1.4c0,0.6,0.2,1,0.6,1.4c0.4,0.4,1,0.6,1.8,0.6H159.8z
		 M174.8,80.5v7.2h4v3.9h-4v7.4h-4.5V80.5H174.8z"/>
	<path class="st3" d="M190,89.6c0.7,0.9,1.4,1.8,2.3,2.8c0.8,1,1.7,1.9,2.6,2.8l-2.7,2.8c-0.8-0.9-1.7-1.8-2.5-2.8
		c-0.8-1-1.6-2-2.3-2.9c-0.1-0.1-0.2-0.2-0.2-0.3c0-0.1-0.1-0.2-0.1-0.4c0,0.1-0.1,0.3-0.1,0.4c0,0.1-0.1,0.2-0.2,0.3
		c-0.7,0.9-1.4,1.9-2.3,3c-0.9,1.1-1.7,2.1-2.6,3.1l-3-2.6c0.8-0.9,1.7-1.9,2.6-3c0.9-1.1,1.7-2.2,2.5-3.2c0.3-0.5,0.6-0.9,0.7-1.3
		c0.1-0.4,0.2-0.9,0.2-1.6v-5.3h4.3v5.3c0,0.7,0.1,1.2,0.2,1.6C189.4,88.7,189.7,89.1,190,89.6z M207.5,106.8v3.9h-20.1
		c-0.7,0-1.3-0.1-1.6-0.2c-0.3-0.2-0.7-0.4-1-0.8l-1-1c-0.2-0.2-0.3-0.4-0.5-0.6c-0.1-0.2-0.2-0.4-0.3-0.6c-0.1-0.2-0.1-0.4-0.2-0.7
		c0-0.3-0.1-0.6-0.1-1v-5.8h4.4v5.2c0,0.3,0.1,0.6,0.3,0.8l0.6,0.7c0.1,0.1,0.2,0.1,0.3,0.2c0.1,0,0.2,0.1,0.4,0.1H207.5z
		 M200.4,80.7v21.7h-4.2V89.2h-4.1v-3.7h4.1v-4.9H200.4z M206.8,80.5v22.1h-4.3V80.5H206.8z"/>
	<path class="st3" d="M216.3,107.9c-0.7,0-1.2-0.1-1.6-0.2c-0.4-0.1-0.8-0.5-1.3-1l-1.6-1.8c-0.2-0.2-0.4-0.4-0.5-0.6
		c-0.1-0.2-0.2-0.4-0.3-0.6c-0.1-0.2-0.1-0.5-0.2-0.7c0-0.3,0-0.6,0-1V82.6c0-0.9,0.4-1.3,1.2-1.3h14.1v3.8h-10.8v7h9.4v3.8h-9.4
		v5.7c0,0.3,0.1,0.6,0.4,0.9l1.1,1.3c0.3,0.2,0.5,0.3,0.8,0.3h9.9v3.9H216.3z M235.9,80.5v29.8h-4.4V95.5h-4.8v-3.8h4.8V80.5H235.9z
		"/>
</g>
</svg>
