<svg xmlns="http://www.w3.org/2000/svg" viewBox="0 0 573.1 38.41"><defs><style>.cls-1{fill:#f5a32d;}.cls-2{fill:#00758e;}.cls-3{fill:#1e313b;}.cls-4{fill:#231815;}.cls-5{fill:#44b5ae;}.cls-6{fill:#fff;}.cls-7{fill:#9671ae;}.cls-8{fill:#ea5933;}.cls-9{fill:#f9c000;}.cls-10{fill:#007db8;}.cls-11{fill:#f4e849;}.cls-12{fill:#909385;}.cls-13{fill:#e11d2d;}</style></defs><title>logo</title><g id="Layer_2" data-name="Layer 2"><g id="Layer_1-2" data-name="Layer 1"><path class="cls-1" d="M1.93,22.18l2.13,5.6,15.85-6a76.59,76.59,0,0,1-7.43-3.59Z"/><path class="cls-1" d="M86.91,27.78,89,22.18l-10.54-4a77.73,77.73,0,0,1-7.43,3.59Z"/><path class="cls-1" d="M45.48,12.06l17,6.44a65.32,65.32,0,0,0,8.44-3.2L45.48,5.66,20.07,15.3a65.87,65.87,0,0,0,8.44,3.2Z"/><path class="cls-2" d="M90.36,6.63a3,3,0,0,0-4.2-.58A80.81,80.81,0,0,1,70.89,15.3l7.6,2.88a91,91,0,0,0,11.29-7.36,3,3,0,0,0,.58-4.19"/><path class="cls-2" d="M4.8,6.05a3,3,0,0,0-3.62,4.77,91.83,91.83,0,0,0,11.3,7.36l7.59-2.88A80.81,80.81,0,0,1,4.8,6.05"/><path class="cls-2" d="M45.48,21a58.57,58.57,0,0,1-17-2.54l-8.6,3.27A66,66,0,0,0,45.48,27a66,66,0,0,0,25.58-5.26L62.45,18.5a58.52,58.52,0,0,1-17,2.54"/><path class="cls-3" d="M20.07,15.3l-7.59,2.88a76.59,76.59,0,0,0,7.43,3.59l8.6-3.27a65.87,65.87,0,0,1-8.44-3.2"/><path class="cls-3" d="M62.45,18.5l8.61,3.27a77.73,77.73,0,0,0,7.43-3.59l-7.6-2.88a65.32,65.32,0,0,1-8.44,3.2"/><path class="cls-4" d="M117.88,22h12.58v2.9a6,6,0,0,0-4.81,5.84c0,3.65,3.16,6.08,6.69,6.08S139,34.34,139,30.69a6,6,0,0,0-4.8-5.84V22H146.8V18.81H117.88Zm17.65,8.74a3.19,3.19,0,1,1-3.19-3.1,3.12,3.12,0,0,1,3.19,3.1"/><path class="cls-4" d="M123.58,13.63l2.15,2.4,6.61-4.94,6.62,5c.72-.79,1.38-1.61,2.11-2.4l-6.84-5.84V6.19h6.07V3h-6.11V.07H130.5V3h-6.12V6.19h6.08V7.83Z"/><path class="cls-4" d="M167.87,19.49c-2.2-2-4.31-4.92-6.46-7V7.62h5.76V4.48h-5.8V.07h-3.81V4.48h-6.08V7.62h6v4.91l-6.69,7.07,2.08,2.32,6.57-6.41,6.15,6.21Z"/><path class="cls-4" d="M328.79,19.49c-2.2-2-4.31-4.92-6.46-7V7.62h5.76V4.48h-5.8V.07h-3.81V4.48h-6.07V7.62h6v4.91l-6.69,7.07,2.08,2.32,6.58-6.41,6.15,6.21Z"/><path class="cls-4" d="M169,24.53c-3.54,0-6.69,2.43-6.69,6.12s3.15,6.12,6.69,6.12,6.69-2.43,6.69-6.12-3.12-6.12-6.69-6.12m0,9.26a3.12,3.12,0,1,1,3.15-3.14A3.12,3.12,0,0,1,169,33.79"/><polygon class="cls-4" points="175.17 0.06 175.17 9.39 168.83 9.39 168.83 12.57 175.17 12.57 175.17 21.89 178.86 21.89 178.86 0.06 175.17 0.06"/><path class="cls-4" d="M329.63,24.53c-3.53,0-6.69,2.43-6.69,6.12s3.16,6.12,6.69,6.12,6.7-2.43,6.7-6.12-3.12-6.12-6.7-6.12m0,9.26a3.12,3.12,0,1,1,3.16-3.14,3.12,3.12,0,0,1-3.16,3.14"/><polygon class="cls-4" points="336.1 0.06 336.1 9.39 329.75 9.39 329.75 12.57 336.1 12.57 336.1 21.89 339.79 21.89 339.79 0.06 336.1 0.06"/><polygon class="cls-4" points="199.54 15.61 189.35 15.61 189.35 2.97 185.62 2.97 185.62 18.78 199.54 18.78 199.54 15.61"/><path class="cls-4" d="M193.35,36.77h14.73V24.45H193.35ZM197,27.39h7.47v6.44H197Z"/><polygon class="cls-4" points="208.19 9.39 208.2 0.06 204.47 0.06 204.47 12.42 204.47 15.6 204.47 21.89 208.16 21.89 208.19 21.89 208.19 12.53 213.54 12.53 213.54 9.39 208.19 9.39"/><polygon class="cls-4" points="232.07 16.06 238.56 16.06 238.56 12.96 225.43 12.96 225.43 6.18 238.26 6.18 238.26 2.97 221.74 2.97 221.74 16.06 228.25 16.06 228.25 21.23 215.68 21.23 215.68 24.36 244.6 24.36 244.6 21.23 232.07 21.23 232.07 16.06"/><polygon class="cls-4" points="264.31 12.53 261.05 12.53 261.05 21.28 258.55 21.28 258.55 12.53 255.24 12.53 255.24 21.28 247.24 21.28 247.24 24.41 276.17 24.41 276.17 21.28 264.31 21.28 264.31 12.53"/><polygon class="cls-4" points="266.42 16.06 270.11 16.06 270.11 2.97 253.18 2.97 253.18 6.22 266.42 6.22 266.42 16.06"/><polygon class="cls-4" points="492.7 12.39 489.44 12.39 489.44 21.28 486.94 21.28 486.94 12.39 483.63 12.39 483.63 21.28 475.63 21.28 475.63 24.42 504.56 24.42 504.56 21.28 492.7 21.28 492.7 12.39"/><polygon class="cls-4" points="494.81 16.06 498.5 16.06 498.5 2.88 481.57 2.88 481.57 6.14 494.81 6.14 494.81 16.06"/><path class="cls-4" d="M278.8,18.8h9.08v5.67h-3v3.18h12.57v8.76h3.66V24.47h-2.46V18.8h9.08V15.66H278.8Zm12.54,0h3.85v5.67h-3.85Z"/><path class="cls-4" d="M300.1,6.89a6.83,6.83,0,1,0-13.66,0,6.83,6.83,0,1,0,13.66,0m-10.34,0a3.49,3.49,0,0,1,7,0,3.49,3.49,0,0,1-7,0"/><path class="cls-4" d="M507.2,18.8h9.08v5.67h-3v3.18h12.57v8.76h3.66V24.47H527V18.8h9.08V15.66H507.2Zm12.54,0h3.84v5.67h-3.84Z"/><path class="cls-4" d="M528.49,6.89a6.83,6.83,0,0,0-13.66,0,6.83,6.83,0,0,0,13.66,0m-10.33,0a3.49,3.49,0,0,1,7,0,3.49,3.49,0,0,1-7,0"/><path class="cls-4" d="M557.17,6.89a6.83,6.83,0,1,0-13.66,0,6.83,6.83,0,1,0,13.66,0m-10.34,0a3.49,3.49,0,0,1,7,0,3.5,3.5,0,0,1-7,0"/><path class="cls-4" d="M430.19,6.83a6.83,6.83,0,1,0-13.66,0,6.83,6.83,0,1,0,13.66,0m-10.33,0a3.49,3.49,0,0,1,7,0,3.49,3.49,0,0,1-7,0"/><path class="cls-4" d="M456.57,15.54a6.33,6.33,0,0,0-12.65,0,6.33,6.33,0,1,0,12.65,0m-9.57,0a3.23,3.23,0,0,1,6.45,0,3.23,3.23,0,0,1-6.45,0"/><path class="cls-4" d="M362.66,19.37l-6.47-6.55V6.11h5.47V3H346.54v3.1h5.77v6.71l-6.77,6.71,2.12,2.23,6.57-6c2,1.93,4.16,3.85,6.2,5.81Z"/><polygon class="cls-4" points="360.92 24.47 357.12 24.47 357.12 36.77 373.08 36.77 373.08 33.59 360.92 33.59 360.92 24.47"/><polygon class="cls-4" points="393.72 18.22 400.19 18.22 400.19 15.12 387.08 15.12 387.08 12.02 399.57 12.02 399.57 2.83 383.39 2.83 383.39 5.93 395.83 5.93 395.83 9.08 383.39 9.08 383.39 18.22 389.91 18.22 389.91 21.34 377.33 21.34 377.33 24.47 406.26 24.47 406.26 21.34 393.72 21.34 393.72 18.22"/><polygon class="cls-4" points="560.76 15.67 539.65 15.67 539.65 18.81 546.23 18.81 546.23 25.98 550.03 25.98 550.03 18.81 560.76 18.81 560.76 15.67"/><polygon class="cls-4" points="557.37 33.4 557.37 24.47 553.55 24.47 553.55 36.62 569.49 36.62 569.49 33.4 557.37 33.4"/><polyline class="cls-4" points="372.76 2.4 372.76 0.06 369.08 0.06 369.08 4.3 369.08 4.31 369.08 21.89 372.77 21.89 372.77 2.4 372.76 2.4"/><polygon class="cls-4" points="437.83 19.2 437.83 16.06 408.88 16.06 408.88 19.2 417.62 19.2 417.62 27.19 421.05 24.95 421.05 19.2 425.59 19.2 425.59 24.95 429.1 27.15 429.1 19.2 437.83 19.2"/><path class="cls-4" d="M429.09,27.13,425.65,25a5.68,5.68,0,0,0-2.3-.49A5.15,5.15,0,0,0,421,25l-3.36,2.22a7.51,7.51,0,0,0-1,3.5c0,3.55,3.24,6.05,6.76,6.05,3.73,0,6.77-2.58,6.77-6.25a7,7,0,0,0-1-3.36m-5.58,6.47a2.95,2.95,0,1,1-.19-5.89,2.79,2.79,0,0,1,3,3,2.8,2.8,0,0,1-2.81,2.87"/><polygon class="cls-4" points="459.42 4.25 452.15 4.25 452.15 0.05 448.35 0.05 448.35 4.25 441.07 4.25 441.07 7.31 444.88 7.31 455.61 7.31 459.42 7.31 459.42 4.25"/><polygon class="cls-4" points="468.11 9.39 468.09 0.06 464.42 0.06 464.42 21.89 468.11 21.89 468.11 12.53 473.5 12.53 473.5 9.39 468.11 9.39"/><path class="cls-4" d="M464.42,24.47v.64h0v2.55h-7.95V25h0v-.48h-3.69V36.76h15.33V24.47Zm0,9.23h-7.95V30.52h7.95Z"/><polygon class="cls-4" points="569.22 21.89 569.21 10.53 569.21 2.41 569.21 0.06 565.49 0.06 565.49 0.58 565.49 8.91 565.49 9.39 559.99 9.39 559.99 12.53 565.49 12.53 565.49 21.89 569.22 21.89"/><path class="cls-5" d="M117.66,23.34a3.12,3.12,0,1,1,3.12-3.12,3.12,3.12,0,0,1-3.12,3.12"/><path class="cls-6" d="M117.66,17.28a2.94,2.94,0,1,1-2.94,2.94,2.94,2.94,0,0,1,2.94-2.94m0-.36a3.3,3.3,0,1,0,3.29,3.3,3.3,3.3,0,0,0-3.29-3.3"/><path class="cls-7" d="M569.8,38.13A3.12,3.12,0,1,1,572.92,35a3.12,3.12,0,0,1-3.12,3.12"/><path class="cls-6" d="M569.8,32.07A2.94,2.94,0,1,1,566.86,35a2.93,2.93,0,0,1,2.94-2.94m0-.36a3.3,3.3,0,1,0,3.3,3.3,3.29,3.29,0,0,0-3.3-3.3"/><path class="cls-8" d="M206.43,24a3.12,3.12,0,1,1,3.12-3.12A3.12,3.12,0,0,1,206.43,24"/><path class="cls-6" d="M206.43,17.92a2.94,2.94,0,1,1-2.94,2.94,2.94,2.94,0,0,1,2.94-2.94m0-.35a3.3,3.3,0,1,0,3.3,3.29,3.3,3.3,0,0,0-3.3-3.29"/><path class="cls-9" d="M215.08,25.88a3.12,3.12,0,1,1,3.12-3.11,3.12,3.12,0,0,1-3.12,3.11"/><path class="cls-6" d="M215.08,19.82a2.95,2.95,0,1,1-2.94,2.95,2.95,2.95,0,0,1,2.94-2.95m0-.35a3.3,3.3,0,1,0,3.29,3.3,3.3,3.3,0,0,0-3.29-3.3"/><path class="cls-10" d="M251.25,7.76a3.12,3.12,0,1,1,3.12-3.12,3.12,3.12,0,0,1-3.12,3.12"/><path class="cls-6" d="M251.25,1.7a2.94,2.94,0,1,1-2.94,2.94,2.94,2.94,0,0,1,2.94-2.94m0-.35a3.3,3.3,0,1,0,3.29,3.29,3.3,3.3,0,0,0-3.29-3.29"/><path class="cls-11" d="M373.55,38.24a3.12,3.12,0,1,1,3.12-3.12,3.12,3.12,0,0,1-3.12,3.12"/><path class="cls-6" d="M373.55,32.18a2.94,2.94,0,1,1-2.94,2.94,2.93,2.93,0,0,1,2.94-2.94m0-.36a3.3,3.3,0,1,0,3.3,3.3,3.29,3.29,0,0,0-3.3-3.3"/><path class="cls-12" d="M406.17,25.85a3.12,3.12,0,1,1,3.12-3.12,3.12,3.12,0,0,1-3.12,3.12"/><path class="cls-6" d="M406.17,19.79a2.94,2.94,0,1,1-2.94,2.94,2.93,2.93,0,0,1,2.94-2.94m0-.36a3.3,3.3,0,1,0,3.29,3.3,3.29,3.29,0,0,0-3.29-3.3"/><path class="cls-13" d="M475.13,26a3.12,3.12,0,1,1,3.11-3.12A3.12,3.12,0,0,1,475.13,26"/><path class="cls-6" d="M475.13,20a2.95,2.95,0,1,1-2.95,2.95A2.95,2.95,0,0,1,475.13,20m0-.35a3.3,3.3,0,1,0,3.29,3.3,3.3,3.3,0,0,0-3.29-3.3"/></g></g></svg>