<?xml version="1.0" encoding="utf-8"?>
<!-- Generator: Adobe Illustrator 24.2.0, SVG Export Plug-In . SVG Version: 6.00 Build 0)  -->
<svg version="1.1" id="Layer_1" xmlns="http://www.w3.org/2000/svg" xmlns:xlink="http://www.w3.org/1999/xlink" x="0px" y="0px"
	 viewBox="0 0 270.9 38.3" style="enable-background:new 0 0 270.9 38.3;" xml:space="preserve">
<style type="text/css">
	.st0{fill:#F5A32D;}
	.st1{fill:#00758E;}
	.st2{fill:#1E313B;}
	.st3{fill:#231815;}
	.st4{fill:#44B5AE;}
	.st5{fill:#FFFFFF;}
	.st6{fill:#9671AE;}
	.st7{fill:#EA5933;}
	.st8{fill:#F9C000;}
	.st9{fill:#007DB8;}
	.st10{fill:#F4E849;}
	.st11{fill:#909385;}
	.st12{fill:#E11D2D;}
</style>
<g>
	<path class="st0" d="M2.2,25.2l2.3,6.1l17.3-6.6c-2.8-1.2-5.5-2.4-8.1-3.9L2.2,25.2z"/>
	<path class="st0" d="M94.7,31.3l2.3-6.1l-11.5-4.3c-2.6,1.4-5.3,2.8-8.1,3.9L94.7,31.3z"/>
	<path class="st0" d="M49.7,14.1l18.4,7c3.2-0.9,6.2-2.1,9.2-3.5L49.6,7.1L21.9,17.6c3,1.4,6.1,2.6,9.2,3.5L49.7,14.1z"/>
	<path class="st1" d="M98.5,8.3c-1.1-1.4-3.1-1.7-4.5-0.7l0,0c-5.1,4-10.7,7.3-16.6,10.1l8.3,3.2c4.3-2.4,8.4-5.1,12.3-8
		C99.3,11.7,99.6,9.7,98.5,8.3L98.5,8.3"/>
	<path class="st1" d="M5.4,7.6C4,6.5,1.9,6.8,0.9,8.2c-1.1,1.4-0.8,3.5,0.6,4.5c3.9,3,8,5.7,12.3,8l8.2-3.2
		C16.1,14.9,10.5,11.6,5.4,7.6"/>
	<path class="st1" d="M49.7,23.9c-6.3,0-12.4-0.9-18.4-2.8l-9.4,3.6c8.8,3.8,18.2,5.7,27.9,5.7c9.6,0,19-2,27.9-5.7l-9.4-3.6
		C62.1,23,55.9,23.9,49.7,23.9"/>
	<path class="st2" d="M22,17.7l-8.3,3.1c2.6,1.4,5.3,2.8,8.1,3.9l9.4-3.6C28.1,20.2,25,19.1,22,17.7"/>
	<path class="st2" d="M68.1,21.2l9.4,3.6c2.8-1.2,5.5-2.4,8.1-3.9l-8.2-3.2C74.3,19.1,71.3,20.2,68.1,21.2"/>
</g>
<g>
	<path class="st3" d="M108,7.3h3.6v0.9c-0.8,0.2-1.4,0.9-1.4,1.7c0,1.1,0.9,1.8,1.9,1.8c1,0,1.9-0.7,1.9-1.8c0-0.9-0.6-1.5-1.4-1.7
		V7.3h3.6V6.4H108V7.3z M113.1,9.8c0,0.5-0.4,0.9-0.9,1c-0.5,0-0.9-0.4-1-0.9c-0.1-0.5,0.4-0.9,0.9-1l0,0
		C112.7,8.9,113.1,9.3,113.1,9.8L113.1,9.8"/>
	<path class="st3" d="M109.7,4.9l0.6,0.7l1.9-1.4l1.9,1.4c0.2-0.2,0.4-0.5,0.6-0.7l-2-1.7V2.7h1.8V1.8h-1.8V0.9h-1.1v0.9h-1.8v0.9
		h1.8v0.5L109.7,4.9z"/>
	<path class="st3" d="M122.5,6.5c-0.6-0.6-1.3-1.4-1.9-2V3.1h1.7V2.2h-1.7V0.9h-1.1v1.3h-1.8v0.9h1.8v1.4l-1.9,2.1l0.6,0.6l1.9-1.9
		l1.8,1.8L122.5,6.5z"/>
	<path class="st3" d="M169.3,6.5c-0.6-0.6-1.3-1.4-1.9-2V3.1h1.7V2.2h-1.7V0.9h-1.1v1.3h-1.8v0.9h1.8v1.4l-1.9,2.1l0.6,0.7l1.9-1.9
		l1.8,1.8L169.3,6.5z"/>
	<path class="st3" d="M122.9,8c-1,0-1.9,0.7-1.9,1.8s0.9,1.8,1.9,1.8c1,0,1.9-0.7,1.9-1.8S123.9,8,122.9,8 M122.9,10.7
		c-0.5,0-0.9-0.4-0.9-0.9s0.4-0.9,0.9-0.9c0.5,0,0.9,0.4,0.9,0.9S123.4,10.7,122.9,10.7L122.9,10.7"/>
	<polygon class="st3" points="124.6,0.9 124.6,3.6 122.8,3.6 122.8,4.5 124.6,4.5 124.6,7.3 125.7,7.3 125.7,0.9 	"/>
	<path class="st3" d="M169.5,8c-1,0-1.9,0.7-1.9,1.8s0.9,1.8,1.9,1.8c1,0,1.9-0.7,1.9-1.8S170.6,8,169.5,8 M169.5,10.7
		c-0.5,0-0.9-0.4-0.9-0.9s0.4-0.9,0.9-0.9s0.9,0.4,0.9,0.9S170.1,10.7,169.5,10.7L169.5,10.7"/>
	<polygon class="st3" points="171.4,0.9 171.4,3.6 169.5,3.6 169.5,4.5 171.4,4.5 171.4,7.3 172.5,7.3 172.5,0.9 	"/>
	<polygon class="st3" points="131.8,5.4 128.8,5.4 128.8,1.7 127.7,1.7 127.7,6.4 131.8,6.4 	"/>
	<path class="st3" d="M129.9,11.5h4.3V8h-4.3V11.5z M131,8.9h2.2v1.9H131V8.9z"/>
	<polygon class="st3" points="134.3,3.6 134.3,0.9 133.2,0.9 133.2,4.5 133.2,5.4 133.2,7.3 134.3,7.3 134.3,7.3 134.3,4.5 
		135.8,4.5 135.8,3.6 	"/>
	<polygon class="st3" points="141.2,5.6 143,5.6 143,4.7 139.3,4.7 139.3,2.7 143,2.7 143,1.7 138.2,1.7 138.2,5.6 140.1,5.6 
		140.1,7 136.4,7 136.4,8 144.8,8 144.8,7 141.2,7 	"/>
	<polygon class="st3" points="150.6,4.5 149.6,4.5 149.6,7.1 148.9,7.1 148.9,4.5 147.9,4.5 147.9,7.1 145.6,7.1 145.6,8 154,8 
		154,7.1 150.6,7.1 	"/>
	<polygon class="st3" points="151.1,5.6 152.2,5.6 152.2,1.7 147.3,1.7 147.3,2.7 151.1,2.7 	"/>
	<polygon class="st3" points="216.9,4.5 215.9,4.5 215.9,7.1 215.2,7.1 215.2,4.5 214.2,4.5 214.2,7.1 211.9,7.1 211.9,8 220.3,8 
		220.3,7.1 216.9,7.1 	"/>
	<polygon class="st3" points="217.5,5.6 218.6,5.6 218.6,1.7 213.7,1.7 213.7,2.7 217.5,2.7 	"/>
	<path class="st3" d="M154.8,6.4h2.6V8h-0.9v0.9h3.6v2.5h1.1V8h-0.7V6.3h2.6V5.4h-8.4V6.4z M158.4,6.4h1.1V8h-1.1V6.4z"/>
	<path class="st3" d="M160.9,2.9c0-1.1-0.9-2-2-2s-2,0.9-2,2s0.9,2,2,2S160.9,4,160.9,2.9C160.9,2.9,160.9,2.9,160.9,2.9 M157.9,2.9
		c-0.1-0.6,0.4-1,0.9-1.1c0.6-0.1,1,0.4,1.1,0.9c0.1,0.6-0.4,1-0.9,1.1h-0.1C158.4,3.9,158,3.5,157.9,2.9L157.9,2.9"/>
	<path class="st3" d="M221.1,6.4h2.6V8h-0.9v0.9h3.6v2.5h1.1V8h-0.7V6.3h2.6V5.4h-8.4V6.4z M224.7,6.4h1.1V8h-1.1V6.4z"/>
	<path class="st3" d="M227.3,2.9c0-1.1-0.9-2-2-2c-1.1,0-2,0.9-2,2s0.9,2,2,2l0,0C226.4,4.9,227.2,4,227.3,2.9
		C227.3,2.9,227.3,2.9,227.3,2.9 M224.3,2.9c-0.1-0.6,0.4-1,0.9-1.1c0.6-0.1,1,0.4,1.1,0.9c0.1,0.6-0.4,1-0.9,1.1h-0.1
		C224.8,3.9,224.3,3.5,224.3,2.9C224.3,2.9,224.3,2.9,224.3,2.9"/>
	<path class="st3" d="M235.6,2.9c0-1.1-0.9-2-2-2c-1.1,0-2,0.9-2,2s0.9,2,2,2C234.7,4.9,235.6,4,235.6,2.9
		C235.6,2.9,235.6,2.9,235.6,2.9 M232.6,2.9c-0.1-0.6,0.4-1,0.9-1.1c0.6-0.1,1,0.4,1.1,0.9c0.1,0.6-0.4,1-0.9,1.1h-0.1
		C233.1,3.9,232.6,3.5,232.6,2.9L232.6,2.9"/>
	<path class="st3" d="M198.7,2.9c0-1.1-0.9-2-2-2s-2,0.9-2,2s0.9,2,2,2l0,0C197.8,4.9,198.7,4,198.7,2.9L198.7,2.9 M195.7,2.9
		c-0.1-0.6,0.4-1,0.9-1.1c0.6-0.1,1,0.4,1.1,0.9c0.1,0.6-0.4,1-0.9,1.1h-0.1C196.2,3.9,195.8,3.5,195.7,2.9L195.7,2.9"/>
	<path class="st3" d="M206.4,5.4c0-1-0.8-1.8-1.8-1.8s-1.8,0.8-1.8,1.8s0.8,1.8,1.8,1.8l0,0C205.5,7.2,206.4,6.4,206.4,5.4
		C206.4,5.4,206.4,5.4,206.4,5.4 M203.6,5.4c-0.1-0.5,0.3-1,0.9-1c0.5-0.1,1,0.3,1,0.9s-0.3,1-0.9,1h-0.1
		C204.1,6.3,203.6,5.9,203.6,5.4C203.6,5.4,203.6,5.4,203.6,5.4"/>
	<path class="st3" d="M179.1,6.5l-1.9-1.9v-2h1.6V1.7h-4.4v0.9h1.7v1.9l-1.9,1.9l0.6,0.6l1.9-1.7c0.6,0.6,1.2,1.1,1.8,1.7L179.1,6.5
		z"/>
	<polygon class="st3" points="178.6,8 177.5,8 177.5,11.5 182.1,11.5 182.1,10.6 178.6,10.6 	"/>
	<polygon class="st3" points="188.1,6.2 190,6.2 190,5.3 186.2,5.3 186.2,4.4 189.8,4.4 189.8,1.7 185.2,1.7 185.2,2.6 188.8,2.6 
		188.8,3.5 185.2,3.5 185.2,6.2 187,6.2 187,7.1 183.4,7.1 183.4,8 191.8,8 191.8,7.1 188.1,7.1 	"/>
	<polygon class="st3" points="236.6,5.4 230.5,5.4 230.5,6.4 232.4,6.4 232.4,8.4 233.5,8.4 233.5,6.4 236.6,6.4 	"/>
	<polygon class="st3" points="235.7,10.6 235.7,8 234.6,8 234.6,11.5 239.2,11.5 239.2,10.6 	"/>
	<polyline class="st3" points="182,1.6 182,0.9 181,0.9 181,2.1 181,2.1 181,7.3 182,7.3 182,1.6 182,1.6 	"/>
	<polygon class="st3" points="200.9,6.5 200.9,5.6 192.5,5.6 192.5,6.5 195.1,6.5 195.1,8.8 196,8.1 196,6.5 197.4,6.5 197.4,8.1 
		198.4,8.8 198.4,6.5 	"/>
	<path class="st3" d="M198.4,8.8l-1-0.6C197.2,8,197,8,196.7,8c-0.2,0-0.5,0.1-0.7,0.1l-1,0.6c-0.2,0.3-0.3,0.7-0.3,1
		c0,1,1,1.8,2,1.8c1,0.1,1.9-0.7,1.9-1.8V9.7C198.7,9.4,198.6,9.1,198.4,8.8 M196.8,10.6c-0.5,0-0.9-0.3-0.9-0.9
		c0-0.5,0.3-0.9,0.9-0.9c0.5,0,0.9,0.3,0.9,0.9S197.2,10.6,196.8,10.6"/>
	<polygon class="st3" points="207.2,2.1 205.1,2.1 205.1,0.9 204,0.9 204,2.1 201.9,2.1 201.9,3 203,3 206.1,3 207.2,3 	"/>
	<polygon class="st3" points="209.7,3.6 209.7,0.9 208.6,0.9 208.6,7.3 209.7,7.3 209.7,4.5 211.3,4.5 211.3,3.6 	"/>
	<path class="st3" d="M208.6,8v0.2l0,0v0.7h-2.3V8.1l0,0V8h-1.1v3.6h4.4V8C209.7,8,208.6,8,208.6,8z M208.6,10.7h-2.3V9.8h2.3V10.7z
		"/>
	<polygon class="st3" points="239.1,7.3 239.1,4 239.1,1.6 239.1,0.9 238,0.9 238,1.1 238,3.5 238,3.6 236.4,3.6 236.4,4.5 238,4.5 
		238,7.3 	"/>
	<path class="st4" d="M107.9,7.7c-0.5,0-0.9-0.4-0.9-0.9c0-0.5,0.4-0.9,0.9-0.9s0.9,0.4,0.9,0.9S108.4,7.7,107.9,7.7L107.9,7.7"/>
	<path class="st5" d="M107.9,5.9c0.5,0,0.9,0.4,0.9,0.9s-0.4,0.9-0.9,0.9s-0.9-0.4-0.9-0.9l0,0C107.1,6.3,107.5,5.9,107.9,5.9
		L107.9,5.9 M107.9,5.8c-0.5,0-1,0.4-1,1c0,0.5,0.4,1,1,1s1-0.4,1-1l0,0C108.9,6.2,108.5,5.8,107.9,5.8"/>
	<path class="st6" d="M239.2,11.9c-0.5,0-0.9-0.4-0.9-0.9c0-0.5,0.4-0.9,0.9-0.9c0.5,0,0.9,0.4,0.9,0.9
		C240.2,11.5,239.8,11.9,239.2,11.9L239.2,11.9"/>
	<path class="st5" d="M239.2,10.2c0.5,0,0.9,0.4,0.9,0.9c0,0.5-0.4,0.9-0.9,0.9c-0.5,0-0.9-0.4-0.9-0.9l0,0
		C238.4,10.6,238.8,10.2,239.2,10.2 M239.2,10.1c-0.5,0-1,0.5-1,1c0,0.5,0.5,1,1,1c0.5,0,1-0.5,1-1l0,0
		C240.2,10.5,239.8,10.1,239.2,10.1"/>
	<path class="st7" d="M133.8,7.8c-0.5,0-0.9-0.4-0.9-0.9c0-0.5,0.4-0.9,0.9-0.9c0.5,0,0.9,0.4,0.9,0.9l0,0
		C134.7,7.4,134.3,7.9,133.8,7.8C133.8,7.9,133.8,7.9,133.8,7.8"/>
	<path class="st5" d="M133.8,6.1c0.5,0,0.9,0.4,0.9,0.9s-0.4,0.9-0.9,0.9c-0.5,0-0.9-0.4-0.9-0.9S133.2,6.1,133.8,6.1 M133.8,6
		c-0.5,0-1,0.5-1,1s0.5,1,1,1c0.5,0,1-0.5,1-1C134.7,6.4,134.3,6,133.8,6L133.8,6"/>
	<path class="st8" d="M136.3,8.4c-0.5,0-0.9-0.4-0.9-0.9c0-0.5,0.4-0.9,0.9-0.9s0.9,0.4,0.9,0.9C137.2,8,136.7,8.4,136.3,8.4
		L136.3,8.4"/>
	<path class="st5" d="M136.3,6.6c0.5,0,0.9,0.4,0.9,0.9s-0.4,0.9-0.9,0.9c-0.5,0-0.9-0.4-0.9-0.9l0,0C135.4,7,135.7,6.6,136.3,6.6
		 M136.3,6.5c-0.5,0-1,0.5-1,1s0.5,1,1,1s1-0.5,1-1C137.2,7,136.8,6.5,136.3,6.5L136.3,6.5"/>
	<path class="st9" d="M146.7,3.2c-0.5,0-0.9-0.4-0.9-0.9c0-0.5,0.4-0.9,0.9-0.9c0.5,0,0.9,0.4,0.9,0.9S147.3,3.2,146.7,3.2
		L146.7,3.2"/>
	<path class="st5" d="M146.7,1.4c0.5,0,0.9,0.4,0.9,0.9s-0.4,0.9-0.9,0.9c-0.5,0-0.9-0.4-0.9-0.9C145.9,1.7,146.3,1.4,146.7,1.4
		 M146.7,1.3c-0.5,0-1,0.5-1,1s0.5,1,1,1c0.5,0,1-0.5,1-1S147.3,1.3,146.7,1.3L146.7,1.3"/>
	<path class="st10" d="M182.3,12c-0.5,0-0.9-0.4-0.9-0.9c0-0.5,0.4-0.9,0.9-0.9c0.5,0,0.9,0.4,0.9,0.9l0,0
		C183.2,11.6,182.8,12,182.3,12"/>
	<path class="st5" d="M182.3,10.2c0.5,0,0.9,0.4,0.9,0.9c0,0.5-0.4,0.9-0.9,0.9s-0.9-0.4-0.9-0.9l0,0
		C181.4,10.6,181.8,10.2,182.3,10.2 M182.3,10.1c-0.5,0-1,0.5-1,1s0.5,1,1,1s1-0.5,1-1l0,0C183.2,10.6,182.8,10.1,182.3,10.1"/>
	<path class="st11" d="M191.8,8.4c-0.5,0-0.9-0.4-0.9-0.9c0-0.5,0.4-0.9,0.9-0.9s0.9,0.4,0.9,0.9l0,0C192.6,8,192.2,8.4,191.8,8.4"
		/>
	<path class="st5" d="M191.8,6.6c0.5,0,0.9,0.4,0.9,0.9s-0.4,0.9-0.9,0.9s-0.9-0.4-0.9-0.9l0,0C190.9,7,191.3,6.6,191.8,6.6
		 M191.8,6.5c-0.5,0-1,0.4-1,1s0.4,1,1,1s1-0.4,1-1l0,0C192.7,7,192.3,6.5,191.8,6.5"/>
	<path class="st12" d="M211.8,8.5c-0.5,0-0.9-0.4-0.9-0.9c0-0.5,0.4-0.9,0.9-0.9s0.9,0.4,0.9,0.9C212.7,8.1,212.3,8.5,211.8,8.5"/>
	<path class="st5" d="M211.8,6.7c0.5,0,0.9,0.4,0.9,0.9c0,0.5-0.4,0.9-0.9,0.9c-0.5,0-0.9-0.4-0.9-0.9l0,0
		C210.9,7,211.3,6.7,211.8,6.7 M211.8,6.6c-0.5,0-1,0.5-1,1s0.5,1,1,1c0.5,0,1-0.5,1-1l0,0C212.7,7,212.3,6.6,211.8,6.6"/>
</g>
<g>
	<path class="st3" d="M114.4,30.3v-1.7h-7.8V26h18.6v2.5h-7.7v1.7h2.1c0.9,0,1.7,0.1,2.3,0.3c0.6,0.2,1.1,0.4,1.5,0.7
		c0.4,0.3,0.7,0.7,0.8,1.1c0.2,0.4,0.3,0.9,0.3,1.4c0,0.5-0.1,1-0.3,1.4c-0.2,0.4-0.5,0.8-0.8,1.1c-0.4,0.3-0.9,0.6-1.5,0.7
		c-0.6,0.1-1.4,0.3-2.3,0.3h-7.3c-0.9,0-1.7-0.1-2.3-0.3c-0.6-0.1-1.2-0.4-1.5-0.7c-0.4-0.3-0.7-0.7-0.8-1.1
		c-0.2-0.4-0.3-0.9-0.3-1.4c0-0.5,0.1-1,0.3-1.4c0.2-0.4,0.5-0.8,0.8-1.1c0.4-0.3,0.9-0.6,1.5-0.7c0.6-0.2,1.4-0.3,2.3-0.3H114.4z
		 M107.8,17.1h6.5v-1.5h3.2v1.5h6.5v2.4h-6.4v0.1c0,0.2,0.1,0.4,0.2,0.6c0.1,0.1,0.3,0.3,0.7,0.3c1,0.3,2,0.7,3.1,1
		c1,0.3,2.1,0.6,3.2,0.9L124,25c-1.3-0.3-2.5-0.7-3.6-1c-1.2-0.3-2.4-0.8-3.5-1.1c-0.2-0.1-0.4-0.1-0.6-0.2
		c-0.1-0.1-0.2-0.1-0.3-0.3c-0.1,0.1-0.1,0.2-0.2,0.3c-0.1,0.1-0.3,0.1-0.5,0.2c-2.6,0.9-5,1.7-7.4,2.3l-0.8-2.5
		c1-0.3,2.1-0.6,3.1-0.9s2.1-0.7,3.1-1c0.6-0.2,0.8-0.5,0.8-0.9v-0.1h-6.4V17.1z M119.7,34.8c0.6,0,1-0.1,1.3-0.3
		c0.2-0.2,0.3-0.4,0.3-0.7s-0.1-0.6-0.3-0.8c-0.2-0.2-0.7-0.3-1.3-0.3h-7.4c-0.6,0-1,0.1-1.3,0.3s-0.3,0.4-0.3,0.8
		c0,0.3,0.1,0.6,0.3,0.7c0.2,0.2,0.7,0.3,1.3,0.3H119.7z"/>
	<path class="st3" d="M131.1,26.8c-0.5,0-0.9-0.1-1.2-0.1c-0.3-0.1-0.6-0.3-0.8-0.6l-0.8-1c-0.2-0.3-0.4-0.6-0.6-0.8
		c-0.1-0.3-0.1-0.6-0.1-1.1v-6.5h3.2V23c0,0.1,0,0.2,0.1,0.3c0,0.1,0.1,0.1,0.1,0.2l0.5,0.6c0.1,0.1,0.3,0.2,0.5,0.2h7.2v2.6
		L131.1,26.8L131.1,26.8z M143.4,28.6c0.3,0,0.6,0.1,0.8,0.3c0.2,0.2,0.3,0.5,0.3,0.8v6.5c0,0.3-0.1,0.6-0.3,0.8
		c-0.2,0.2-0.5,0.3-0.8,0.3H130c-0.3,0-0.6-0.1-0.8-0.3c-0.2-0.2-0.3-0.5-0.3-0.8v-6.5c0-0.3,0.1-0.6,0.3-0.8
		c0.2-0.2,0.5-0.3,0.8-0.3H143.4z M141.5,34.7v-3.5h-9.6v3.5H141.5z M144.5,16.4v3.8h2.8v2.6h-2.8v4.5h-3.1v-11H144.5z"/>
	<path class="st3" d="M155.9,19.6V21c0,0.4,0.1,0.8,0.1,1c0.1,0.3,0.2,0.6,0.5,0.8c0.3,0.3,0.6,0.6,0.9,0.9s0.7,0.6,1.1,1
		c0.4,0.3,0.8,0.7,1.2,1c0.4,0.3,0.8,0.6,1.1,0.9l-1.7,2.2c-0.4-0.3-0.8-0.6-1.2-0.9s-0.8-0.7-1.2-1c-0.4-0.3-0.8-0.7-1.1-1
		s-0.6-0.6-0.9-0.9c-0.1-0.1-0.1-0.2-0.2-0.3c-0.1-0.1-0.1-0.2-0.1-0.3c0,0.1-0.1,0.2-0.1,0.3c-0.1,0.1-0.1,0.2-0.2,0.3
		c-0.3,0.3-0.6,0.6-0.9,1c-0.3,0.3-0.8,0.7-1.1,1c-0.4,0.3-0.8,0.7-1.3,1s-0.8,0.7-1.2,1l-1.8-2.1c0.3-0.3,0.8-0.6,1.2-1
		s0.8-0.7,1.2-1c0.3-0.3,0.8-0.7,1.1-1c0.3-0.3,0.6-0.6,0.9-0.9c0.2-0.3,0.4-0.5,0.5-0.8c0.1-0.3,0.1-0.6,0.1-1v-1.5h-4.4v-2.6h12
		v2.6H155.9z M166.7,34.7v2.7h-13.4c-0.5,0-0.9-0.1-1.1-0.1c-0.2-0.1-0.5-0.3-0.7-0.6l-0.6-0.6c-0.1-0.1-0.2-0.3-0.3-0.4
		c-0.1-0.1-0.1-0.3-0.2-0.4c-0.1-0.1-0.1-0.3-0.1-0.5c0-0.2-0.1-0.4-0.1-0.7V30h3.1v3.8c0,0.2,0.1,0.4,0.1,0.6l0.3,0.4
		c0.1,0.1,0.1,0.1,0.2,0.1c0.1,0,0.1,0.1,0.3,0.1h12.5V34.7z M166.2,16.4v15.4h-3.1V16.4H166.2z"/>
	<path class="st3" d="M173.1,24.8v2c0,0.1,0,0.1,0,0.2c0,0.1,0.1,0.1,0.1,0.1l0.2,0.2c0.1,0.1,0.1,0.1,0.1,0.1c0.1,0,0.1,0,0.1,0
		h13.4v2.6h-7.2v3.6h7.7v2.7h-18.6v-2.7h7.8v-3.6h-4.4c-0.4,0-0.7-0.1-0.9-0.1s-0.4-0.3-0.6-0.5l-0.4-0.4c-0.2-0.2-0.3-0.5-0.5-0.7
		c-0.1-0.2-0.1-0.5-0.1-1V23c0-0.6,0.3-0.8,0.9-0.8h12.3c0.2,0,0.3-0.1,0.3-0.3v-2.3h-13.4V17h15.7c0.6,0,0.9,0.3,0.9,0.8v5.3
		c0,1.2-0.6,1.7-1.7,1.7H173.1z"/>
	<path class="st3" d="M197.6,19.6V21c0,0.4,0.1,0.8,0.1,1c0.1,0.3,0.2,0.6,0.5,0.8c0.3,0.3,0.6,0.6,0.9,0.9c0.3,0.3,0.7,0.6,1.1,1
		s0.8,0.7,1.2,1c0.4,0.3,0.8,0.6,1.1,0.9l-1.7,2.2c-0.4-0.3-0.8-0.6-1.2-0.9s-0.8-0.7-1.2-1c-0.4-0.3-0.8-0.7-1.1-1
		s-0.6-0.6-0.9-0.9c-0.1-0.1-0.1-0.2-0.2-0.3c-0.1-0.1-0.1-0.2-0.1-0.3c0,0.1-0.1,0.2-0.1,0.3c-0.1,0.1-0.1,0.2-0.2,0.3
		c-0.3,0.3-0.6,0.6-0.9,1c-0.3,0.3-0.8,0.7-1.1,1c-0.4,0.3-0.8,0.7-1.3,1c-0.4,0.3-0.8,0.7-1.2,1l-1.8-2.1c0.3-0.3,0.8-0.6,1.2-1
		s0.8-0.7,1.2-1c0.3-0.3,0.8-0.7,1.1-1s0.6-0.6,0.9-0.9c0.2-0.3,0.4-0.5,0.5-0.8c0.1-0.3,0.1-0.6,0.1-1v-1.5h-4.4v-2.6h12v2.6H197.6
		z M208.3,34.7v2.7h-13.4c-0.5,0-0.9-0.1-1.1-0.1c-0.2-0.1-0.5-0.3-0.7-0.6l-0.6-0.6c-0.1-0.1-0.2-0.3-0.3-0.4
		c-0.1-0.1-0.1-0.3-0.2-0.4c-0.1-0.1-0.1-0.3-0.1-0.5c0-0.2-0.1-0.4-0.1-0.7V30h3.1v3.8c0,0.2,0.1,0.4,0.1,0.6l0.3,0.4
		c0.1,0.1,0.1,0.1,0.2,0.1c0.1,0,0.1,0.1,0.3,0.1h12.6V34.7z M207.9,16.4v15.4h-3.1V16.4H207.9z"/>
	<path class="st3" d="M210.1,20.3v-2.6h5v-2h3.1v2h4.9v2.6H210.1z M222.1,25.1c0,0.5-0.1,1-0.3,1.5c-0.2,0.5-0.5,0.9-0.9,1.3
		s-0.9,0.6-1.5,0.8c-0.6,0.2-1.3,0.3-2.2,0.3h-1.3c-0.8,0-1.5-0.1-2.2-0.3c-0.6-0.2-1.1-0.5-1.5-0.8c-0.3-0.3-0.7-0.8-0.9-1.3
		c-0.2-0.5-0.3-1-0.3-1.5c0-0.5,0.1-1,0.3-1.5c0.2-0.5,0.5-0.9,0.9-1.3s0.9-0.6,1.5-0.8c0.6-0.2,1.3-0.3,2.2-0.3h1.3
		c0.8,0,1.5,0.1,2.2,0.3c0.6,0.2,1.1,0.5,1.5,0.8c0.4,0.3,0.7,0.8,0.9,1.3C222,24.1,222.1,24.6,222.1,25.1z M227.8,37.6h-3.1V33
		h-12.2v-2.5h14.4c0.6,0,0.9,0.3,0.9,0.9V37.6z M217.3,26.5c0.6,0,1-0.1,1.3-0.4c0.3-0.3,0.4-0.6,0.4-1c0-0.4-0.1-0.7-0.4-1
		c-0.3-0.3-0.7-0.4-1.3-0.4H216c-0.6,0-1,0.1-1.3,0.4c-0.3,0.3-0.4,0.6-0.4,1c0,0.4,0.1,0.7,0.4,1c0.3,0.3,0.7,0.4,1.3,0.4H217.3z
		 M227.8,16.4v5h2.8v2.7h-2.8v5.2h-3.1V16.4H227.8z"/>
	<path class="st3" d="M238.4,22.8c0.5,0.6,1,1.3,1.6,1.9c0.6,0.7,1.2,1.3,1.8,1.9l-1.9,1.9c-0.6-0.6-1.2-1.3-1.7-1.9
		c-0.6-0.7-1.1-1.4-1.6-2c-0.1-0.1-0.1-0.1-0.1-0.2c0-0.1-0.1-0.1-0.1-0.3c0,0.1-0.1,0.2-0.1,0.3c0,0.1-0.1,0.1-0.1,0.2
		c-0.5,0.6-1,1.3-1.6,2.1s-1.2,1.5-1.8,2.2l-2.1-1.8c0.6-0.6,1.2-1.3,1.8-2.1s1.2-1.5,1.7-2.2c0.2-0.3,0.4-0.6,0.5-0.9
		c0.1-0.3,0.1-0.6,0.1-1.1V17h3v3.7c0,0.5,0.1,0.8,0.1,1.1C237.9,22.1,238.1,22.4,238.4,22.8z M250.5,34.7v2.7h-14
		c-0.5,0-0.9-0.1-1.1-0.1c-0.2-0.1-0.5-0.3-0.7-0.6L234,36c-0.1-0.1-0.2-0.3-0.3-0.4c-0.1-0.1-0.1-0.3-0.2-0.4
		c-0.1-0.1-0.1-0.3-0.1-0.5c0-0.2-0.1-0.4-0.1-0.7v-4h3.1v3.6c0,0.2,0.1,0.4,0.2,0.6l0.4,0.5c0.1,0.1,0.1,0.1,0.2,0.1
		c0.1,0,0.1,0.1,0.3,0.1h13.1V34.7z M245.6,16.6v15.1h-2.9v-9.2h-2.9v-2.6h2.9v-3.4L245.6,16.6L245.6,16.6z M250.1,16.4v15.4h-3
		V16.4H250.1z"/>
	<path class="st3" d="M256.7,35.5c-0.5,0-0.8-0.1-1.1-0.1c-0.3-0.1-0.6-0.3-0.9-0.7l-1.1-1.3c-0.1-0.1-0.3-0.3-0.3-0.4
		c-0.1-0.1-0.1-0.3-0.2-0.4c-0.1-0.1-0.1-0.3-0.1-0.5c0-0.2,0-0.4,0-0.7V17.9c0-0.6,0.3-0.9,0.8-0.9h9.8v2.6H256v4.9h6.5v2.6H256v4
		c0,0.2,0.1,0.4,0.3,0.6l0.8,0.9c0.2,0.1,0.3,0.2,0.6,0.2h6.9v2.7L256.7,35.5L256.7,35.5z M270.3,16.4v20.7h-3.1V26.9h-3.3v-2.6h3.3
		v-7.8H270.3z"/>
</g>
</svg>
