<svg xmlns="http://www.w3.org/2000/svg" viewBox="0 0 369.07 109.08"><defs><style>.cls-1{fill:#f5a32d;}.cls-2{fill:#00758e;}.cls-3{fill:#1e313b;}.cls-4{fill:#231815;}.cls-5{fill:#44b5ae;}.cls-6{fill:#fff;}.cls-7{fill:#9671ae;}.cls-8{fill:#ea5933;}.cls-9{fill:#f9c000;}.cls-10{fill:#007db8;}.cls-11{fill:#f4e849;}.cls-12{fill:#909385;}.cls-13{fill:#e11d2d;}</style></defs><title>logo-v</title><g id="Layer_2" data-name="Layer 2"><g id="Layer_1-2" data-name="Layer 1"><path class="cls-1" d="M95.57,34.59,100,46.16l32.76-12.43a159.7,159.7,0,0,1-15.35-7.41Z"/><path class="cls-1" d="M271.17,46.16l4.39-11.57-21.79-8.27a159.7,159.7,0,0,1-15.35,7.41Z"/><path class="cls-1" d="M185.56,13.68,220.63,27a136.93,136.93,0,0,0,17.44-6.61L185.56.45,133.05,20.37A137.5,137.5,0,0,0,150.49,27Z"/><path class="cls-2" d="M278.29,2.45a6.17,6.17,0,0,0-8.66-1.19,167.85,167.85,0,0,1-31.56,19.11l15.7,5.95A188,188,0,0,0,277.1,11.11a6.18,6.18,0,0,0,1.19-8.66"/><path class="cls-2" d="M101.5,1.26A6.18,6.18,0,1,0,94,11.11a188,188,0,0,0,23.34,15.21l15.69-5.95A167.78,167.78,0,0,1,101.5,1.26"/><path class="cls-2" d="M185.56,32.23A121.16,121.16,0,0,1,150.49,27l-17.78,6.75A136.14,136.14,0,0,0,185.56,44.6a136.15,136.15,0,0,0,52.86-10.87L220.63,27a121.11,121.11,0,0,1-35.07,5.25"/><path class="cls-3" d="M133.05,20.37l-15.69,5.95a159.7,159.7,0,0,0,15.35,7.41L150.49,27a136.93,136.93,0,0,1-17.44-6.61"/><path class="cls-3" d="M220.63,27l17.78,6.75a159.7,159.7,0,0,0,15.35-7.41l-15.69-5.95A136.36,136.36,0,0,1,220.63,27"/><path class="cls-4" d="M2.83,95.83H13v2.34a4.8,4.8,0,0,0-3.87,4.7c0,2.93,2.54,4.89,5.38,4.89s5.39-2,5.39-4.89A4.8,4.8,0,0,0,16,98.17V95.83H26.1V93.31H2.83Zm14.2,7a2.57,2.57,0,1,1-2.57-2.49A2.52,2.52,0,0,1,17,102.87"/><path class="cls-4" d="M7.41,89.15l1.73,1.92,5.32-4,5.33,4c.58-.63,1.11-1.29,1.7-1.92L16,84.48V83.15h4.89V80.6H16V78.23H13V80.6H8.06v2.55H13v1.33Z"/><path class="cls-4" d="M43.05,93.86c-1.77-1.65-3.47-4-5.2-5.6v-4h4.63V81.78H37.82V78.23H34.75v3.55H29.86v2.53h4.86v4L29.33,94,31,95.81l5.29-5.16,5,5Z"/><path class="cls-4" d="M172.52,93.86c-1.77-1.65-3.47-4-5.2-5.6v-4H172V81.78h-4.67V78.23h-3.07v3.55h-4.89v2.53h4.86v4L158.81,94l1.67,1.86,5.29-5.16,4.95,5Z"/><path class="cls-4" d="M44,97.92c-2.85,0-5.38,2-5.38,4.92s2.53,4.92,5.38,4.92,5.38-2,5.38-4.92-2.5-4.92-5.38-4.92m0,7.44a2.51,2.51,0,1,1,2.54-2.52A2.51,2.51,0,0,1,44,105.36"/><polygon class="cls-4" points="48.92 78.23 48.92 85.73 43.82 85.73 43.82 88.29 48.92 88.29 48.92 95.79 51.89 95.79 51.89 78.23 48.92 78.23"/><path class="cls-4" d="M173.19,97.92c-2.84,0-5.38,2-5.38,4.92s2.54,4.92,5.38,4.92,5.39-2,5.39-4.92-2.51-4.92-5.39-4.92m0,7.44a2.51,2.51,0,1,1,2.54-2.52,2.5,2.5,0,0,1-2.54,2.52"/><polygon class="cls-4" points="178.39 78.23 178.39 85.73 173.29 85.73 173.29 88.29 178.39 88.29 178.39 95.79 181.36 95.79 181.36 78.23 178.39 78.23"/><polygon class="cls-4" points="68.53 90.73 60.33 90.73 60.33 80.56 57.33 80.56 57.33 93.29 68.53 93.29 68.53 90.73"/><path class="cls-4" d="M63.55,107.76H75.4V97.85H63.55Zm2.9-7.55h6v5.18h-6Z"/><polygon class="cls-4" points="75.49 85.73 75.49 78.23 72.49 78.23 72.49 88.17 72.49 90.72 72.49 95.79 75.46 95.79 75.49 95.79 75.49 88.26 79.79 88.26 79.79 85.73 75.49 85.73"/><polygon class="cls-4" points="94.7 91.1 99.92 91.1 99.92 88.61 89.36 88.61 89.36 83.15 99.68 83.15 99.68 80.56 86.39 80.56 86.39 91.1 91.63 91.1 91.63 95.25 81.52 95.25 81.52 97.78 104.78 97.78 104.78 95.25 94.7 95.25 94.7 91.1"/><polygon class="cls-4" points="120.64 88.26 118.01 88.26 118.01 95.3 116 95.3 116 88.26 113.34 88.26 113.34 95.3 106.91 95.3 106.91 97.82 130.18 97.82 130.18 95.3 120.64 95.3 120.64 88.26"/><polygon class="cls-4" points="122.34 91.1 125.31 91.1 125.31 80.56 111.69 80.56 111.69 83.18 122.34 83.18 122.34 91.1"/><polygon class="cls-4" points="304.39 88.15 301.76 88.15 301.76 95.3 299.75 95.3 299.75 88.15 297.09 88.15 297.09 95.3 290.66 95.3 290.66 97.82 313.93 97.82 313.93 95.3 304.39 95.3 304.39 88.15"/><polygon class="cls-4" points="306.09 91.1 309.06 91.1 309.06 80.5 295.44 80.5 295.44 83.12 306.09 83.12 306.09 91.1"/><path class="cls-4" d="M132.3,93.3h7.3v4.57h-2.41v2.55H147.3v7h2.95v-9.6h-2V93.3h7.31V90.78H132.3Zm10.09,0h3.09v4.57h-3.09Z"/><path class="cls-4" d="M149.43,83.72a5.5,5.5,0,1,0-5.5,5.5,5.41,5.41,0,0,0,5.5-5.5m-8.31,0a2.81,2.81,0,1,1,2.81,2.59,2.67,2.67,0,0,1-2.81-2.59"/><path class="cls-4" d="M316.05,93.3h7.31v4.57h-2.42v2.55h10.12v7H334v-9.6h-2V93.3h7.3V90.78H316.05Zm10.09,0h3.09v4.57h-3.09Z"/><path class="cls-4" d="M333.18,83.72a5.5,5.5,0,1,0-5.49,5.5,5.4,5.4,0,0,0,5.49-5.5m-8.31,0a2.81,2.81,0,1,1,2.82,2.59,2.67,2.67,0,0,1-2.82-2.59"/><path class="cls-4" d="M356.26,83.72a5.5,5.5,0,1,0-5.5,5.5,5.41,5.41,0,0,0,5.5-5.5m-8.32,0a2.81,2.81,0,1,1,2.82,2.59,2.68,2.68,0,0,1-2.82-2.59"/><path class="cls-4" d="M254.09,83.67a5.5,5.5,0,1,0-5.49,5.5,5.4,5.4,0,0,0,5.49-5.5m-8.31,0a2.81,2.81,0,1,1,2.82,2.59,2.68,2.68,0,0,1-2.82-2.59"/><path class="cls-4" d="M275.32,90.68a5.09,5.09,0,1,0-5.09,5.09,5,5,0,0,0,5.09-5.09m-7.7,0a2.6,2.6,0,1,1,2.61,2.4,2.48,2.48,0,0,1-2.61-2.4"/><path class="cls-4" d="M199.76,93.76l-5.2-5.26V83.09H199V80.6H186.8v2.49h4.64V88.5L186,93.89l1.71,1.8,5.29-4.8c1.63,1.55,3.34,3.09,5,4.67Z"/><polygon class="cls-4" points="198.37 97.87 195.31 97.87 195.31 107.76 208.15 107.76 208.15 105.2 198.37 105.2 198.37 97.87"/><polygon class="cls-4" points="224.75 92.83 229.96 92.83 229.96 90.34 219.42 90.34 219.42 87.84 229.47 87.84 229.47 80.46 216.45 80.46 216.45 82.95 226.45 82.95 226.45 85.48 216.45 85.48 216.45 92.83 221.69 92.83 221.69 95.34 211.57 95.34 211.57 97.87 234.84 97.87 234.84 95.34 224.75 95.34 224.75 92.83"/><polygon class="cls-4" points="359.14 90.79 342.16 90.79 342.16 93.31 347.45 93.31 347.45 99.08 350.51 99.08 350.51 93.31 359.14 93.31 359.14 90.79"/><polygon class="cls-4" points="356.42 105.05 356.42 97.87 353.35 97.87 353.35 107.64 366.17 107.64 366.17 105.05 356.42 105.05"/><polyline class="cls-4" points="207.89 80.11 207.89 78.23 204.93 78.23 204.93 81.64 204.93 81.64 204.93 95.79 207.9 95.79 207.9 80.11 207.89 80.11"/><polygon class="cls-4" points="260.25 93.63 260.25 91.1 236.95 91.1 236.95 93.63 243.98 93.63 243.98 100.05 246.74 98.25 246.74 93.63 250.4 93.63 250.4 98.25 253.22 100.02 253.22 93.63 260.25 93.63"/><path class="cls-4" d="M253.21,100l-2.76-1.75a4.84,4.84,0,0,0-1.85-.39,4.22,4.22,0,0,0-1.91.39L244,100.05a6.14,6.14,0,0,0-.83,2.82c0,2.86,2.61,4.87,5.45,4.87a5.15,5.15,0,0,0,5.44-5,5.67,5.67,0,0,0-.83-2.7m-4.49,5.2a2.37,2.37,0,1,1-.15-4.74,2.37,2.37,0,0,1,.15,4.74"/><polygon class="cls-4" points="277.62 81.6 271.76 81.6 271.76 78.22 268.7 78.22 268.7 81.6 262.85 81.6 262.85 84.06 265.92 84.06 274.55 84.06 277.62 84.06 277.62 81.6"/><polygon class="cls-4" points="284.61 85.73 284.59 78.23 281.63 78.23 281.64 95.79 284.61 95.79 284.61 88.26 288.94 88.26 288.94 85.73 284.61 85.73"/><path class="cls-4" d="M281.64,97.87v.51h0v2.05h-6.39V98.26h0v-.39h-3v9.88H284.6V97.87Zm0,7.42h-6.39v-2.56h6.39Z"/><polygon class="cls-4" points="365.95 95.78 365.94 86.65 365.94 80.12 365.94 78.23 362.95 78.23 362.95 78.65 362.95 85.35 362.95 85.73 358.53 85.73 358.53 88.26 362.95 88.26 362.95 95.78 365.95 95.78"/><path class="cls-5" d="M2.65,97a2.51,2.51,0,1,1,2.51-2.51A2.51,2.51,0,0,1,2.65,97"/><path class="cls-6" d="M2.65,92.08A2.37,2.37,0,1,1,.28,94.45a2.37,2.37,0,0,1,2.37-2.37m0-.29A2.66,2.66,0,1,0,5.3,94.45a2.66,2.66,0,0,0-2.65-2.66"/><path class="cls-7" d="M366.42,108.85a2.51,2.51,0,1,1,2.51-2.51,2.51,2.51,0,0,1-2.51,2.51"/><path class="cls-6" d="M366.42,104a2.37,2.37,0,1,1-2.37,2.36,2.37,2.37,0,0,1,2.37-2.36m0-.29a2.65,2.65,0,1,0,2.65,2.65,2.65,2.65,0,0,0-2.65-2.65"/><path class="cls-8" d="M74.07,97.47A2.51,2.51,0,1,1,76.58,95a2.51,2.51,0,0,1-2.51,2.51"/><path class="cls-6" d="M74.07,92.59A2.37,2.37,0,1,1,71.71,95a2.38,2.38,0,0,1,2.36-2.37m0-.28A2.65,2.65,0,1,0,76.72,95a2.65,2.65,0,0,0-2.65-2.65"/><path class="cls-9" d="M81,99a2.51,2.51,0,1,1,2.51-2.51A2.51,2.51,0,0,1,81,99"/><path class="cls-6" d="M81,94.13a2.37,2.37,0,1,1-2.37,2.36A2.37,2.37,0,0,1,81,94.13m0-.29a2.65,2.65,0,1,0,2.65,2.65A2.65,2.65,0,0,0,81,93.84"/><path class="cls-10" d="M110.13,84.42a2.51,2.51,0,1,1,2.51-2.51,2.51,2.51,0,0,1-2.51,2.51"/><path class="cls-6" d="M110.13,79.54a2.37,2.37,0,1,1-2.37,2.37,2.38,2.38,0,0,1,2.37-2.37m0-.28a2.65,2.65,0,1,0,2.65,2.65,2.65,2.65,0,0,0-2.65-2.65"/><path class="cls-11" d="M208.53,108.94a2.51,2.51,0,1,1,2.51-2.51,2.51,2.51,0,0,1-2.51,2.51"/><path class="cls-6" d="M208.53,104.06a2.37,2.37,0,1,1-2.37,2.37,2.37,2.37,0,0,1,2.37-2.37m0-.28a2.65,2.65,0,1,0,2.65,2.65,2.65,2.65,0,0,0-2.65-2.65"/><path class="cls-12" d="M234.77,99a2.51,2.51,0,1,1,2.51-2.51A2.51,2.51,0,0,1,234.77,99"/><path class="cls-6" d="M234.77,94.1a2.37,2.37,0,1,1-2.37,2.36,2.37,2.37,0,0,1,2.37-2.36m0-.29a2.66,2.66,0,1,0,2.65,2.65,2.65,2.65,0,0,0-2.65-2.65"/><path class="cls-13" d="M290.25,99.11a2.51,2.51,0,1,1,2.51-2.51,2.52,2.52,0,0,1-2.51,2.51"/><path class="cls-6" d="M290.25,94.23a2.37,2.37,0,1,1-2.37,2.37,2.37,2.37,0,0,1,2.37-2.37m0-.28a2.65,2.65,0,1,0,2.65,2.65A2.65,2.65,0,0,0,290.25,94"/></g></g></svg>