<svg xmlns="http://www.w3.org/2000/svg" viewBox="0 0 1813.75 1459.4"><defs><style>.cls-1{fill:#ceaa90;}.cls-2{fill:#f6f4e7;}.cls-3{fill:#ffa761;}.cls-4{fill:#ffd1d3;}.cls-5{fill:#ffbacb;}.cls-6{fill:#6c6b6a;}.cls-7{fill:#a59c96;}.cls-8{fill:#ff787a;}.cls-9{fill:#a37e70;}.cls-10{fill:#3e2100;}</style></defs><g id="Layer_2" data-name="Layer 2"><g id="Layer_1-2" data-name="Layer 1"><path class="cls-1" d="M786.93,1436.65c-.56-13-1.68-25.9-3-38.81l-25-.12q1.53,30.84,3,61.68h24.67C787.53,1451.88,787.26,1444.15,786.93,1436.65Z"/><path class="cls-2" d="M1380.29,877.17q7-6.37,13.47-13.22a250.48,250.48,0,0,0,24.2-29.69c6.46-9.34,13.57-19.6,15.43-31a92.69,92.69,0,0,1-17.93-9.68c-22.55,17.82-45,35.84-67.5,53.66a323.11,323.11,0,0,0,22.28,24.92c2.19,2.18,5.25,4.34,7,6.82.19.26.33.44.47.61A16.86,16.86,0,0,0,1380.29,877.17Z"/><path class="cls-1" d="M716.25,1397.51,693,1397.4l-141-.68c-3.54,20.77-6,41.69-7.53,62.68h200q-1.5-30.89-3-61.77Z"/><path class="cls-3" d="M1206.76,399.18c1.85-8.25,11.83-7.64,15.61-2.17,1-1.45,2.05-2.88,3.14-4.26-.68-1.42-1.41-2.81-2-4.28-1.85-4.52,2-9.41,6.09-10.73a8.91,8.91,0,0,1,6.72.88A7.63,7.63,0,0,1,1238,380c1-.84,2.07-1.61,3.12-2.4a8.5,8.5,0,0,1,.38-7.17c11-22.12,39.2-25.56,59.53-15.21,21.74,11.08,33.09,33.67,45.21,53.58a149.94,149.94,0,0,0,39.6,42.9c32.07,23.45,75.58,37.59,112.39,16.36,9.75-5.63,18.52,9.45,8.8,15.06a95.85,95.85,0,0,1-16.18,7.38q0,7-.39,14a48.35,48.35,0,0,1,24,11.05c4.12-51.87-1.52-106.2-29-151.14-28.52-46.61-77.79-73.28-130.8-81.67-48.28-7.64-103.84-2.69-146.83,21.91-73.85,42.25-112.45,135.59-93.62,217.83a49.18,49.18,0,0,1,23.23-10.93A203.31,203.31,0,0,0,1206.76,399.18Z"/><path class="cls-3" d="M1473,648c-1.38.82-2.78,1.58-4.17,2.34a154.9,154.9,0,0,1-66.87,68.88q1.39,17.5,2.78,35c11.36,23.82,34.24,36.32,60.06,39.39a136.86,136.86,0,0,0,38.87-1.06,146.62,146.62,0,0,0,17.92-4.22c.93-.28,4.35-1.22,7.62-2.32a35.14,35.14,0,0,1-13.88-20.29c-4.14-16.08.91-33.06,1-49.33C1516.47,687.51,1504.58,654.12,1473,648Z"/><path class="cls-1" d="M1569.67,1335.31c-38.91,12-79.87,17.62-120.08,23.26-48.27,6.78-96.7,13.76-145.36,17-21.48,1.41-43.16,2.25-64.66.7-12-.87-25-2.14-36.46-6.62a775,775,0,0,0-21.95,87.26c-.16.84-.3,1.68-.46,2.52h526.39c-29.17-49.49-61.73-97.08-99.29-140.49C1596.17,1327.05,1580.61,1331.94,1569.67,1335.31Z"/><path class="cls-4" d="M1240.32,383.83a.06.06,0,0,0,0,0l.07.14c.27.56.51,1.12.78,1.67.54,1.11,1.1,2.2,1.7,3.27a66,66,0,0,0,3.58,5.72l.9,1.25c.08.12.17.23.25.34.68.82,1.34,1.65,2,2.45a67.18,67.18,0,0,0,4.7,4.85c.9.84,1.82,1.66,2.76,2.45.39.33.8.64,1.19,1,1.88,1.38,3.79,2.7,5.79,3.89a64.12,64.12,0,0,0,6,3.17c.25.12,2.17,1,.93.44s.39.15.66.26c1.14.45,2.3.86,3.47,1.25a8.92,8.92,0,0,1,6.09,10.72c-1,4.43-6.4,7.54-10.73,6.1a76.79,76.79,0,0,1-45-40.06c-1.09,1.38-2.13,2.81-3.14,4.26a8.43,8.43,0,0,1,1.21,6.81,218.61,218.61,0,0,1-69.08,116c1.61,14.26,4.32,28.35,5.74,42.63,1.31,13.25,2,26.58,4,39.75a141.49,141.49,0,0,0,13.07,42.13,6.54,6.54,0,0,1,1.72,3.36A135.19,135.19,0,0,0,1189.14,664c30,41.17,79.19,59.49,128.84,59.77,24.27-1.13,48.67-6.09,70.56-16.9C1416.58,693,1440,670,1453.6,642a7,7,0,0,1,1.52-3.34,129.29,129.29,0,0,0,6.27-16.77c6.18-21,6-43,7.2-64.75,1.16-20.9,4.14-41.49,4.73-62.39a106.47,106.47,0,0,1-31.33,0c-38.36-5.64-74.62-29.71-98.6-59.66-13.93-17.39-22-39.38-37.94-55.08-12.86-12.64-38.64-21.45-48.94-.78-3.72,7.48-13,4.5-15.43-1.63-1,.79-2.11,1.56-3.12,2.4A11.64,11.64,0,0,1,1240.32,383.83Zm13.3,172.34a8.72,8.72,0,0,1-15.06,0,38.37,38.37,0,0,1-6-22.55,43.15,43.15,0,0,1,.94-6.87,12.72,12.72,0,0,1,2.63-5.41l.28-.36,1.74-2.21a7.22,7.22,0,0,1,.77-1l.35-.45a6.34,6.34,0,0,1,3.08-2,7.8,7.8,0,0,1,1.08-.29l.49-.11a8.39,8.39,0,0,1,.86-.1c.21,0,.44-.06.65-.07a4.21,4.21,0,0,1,.51,0l.33,0a6.72,6.72,0,0,1,1.32.21.9.9,0,0,1,.16,0c.14,0,.25.1.38.15.31.11.61.21.91.35a7.44,7.44,0,0,1,.78.44,10,10,0,0,1,.86.58.1.1,0,0,1,0,0,9.66,9.66,0,0,1,.87.68,7,7,0,0,1,1.25,1.63,1.34,1.34,0,0,1,.11.14C1260.75,529.54,1260.87,545.45,1253.62,556.17ZM1370,524a12.83,12.83,0,0,1,2.63-5.41l.28-.36,1.74-2.22a8.76,8.76,0,0,1,.76-1l.36-.45a6.34,6.34,0,0,1,3.08-2,8.06,8.06,0,0,1,1.07-.29l.5-.11a8.08,8.08,0,0,1,.86-.1c.21,0,.44-.06.65-.07a4.21,4.21,0,0,1,.51,0l.33,0a7.32,7.32,0,0,1,1.31.22.86.86,0,0,1,.17,0,2.5,2.5,0,0,1,.38.15,7.75,7.75,0,0,1,.91.35c.27.13.53.28.78.43s.58.38.86.59l0,0c.3.23.6.44.87.69a7,7,0,0,1,1.25,1.63l.11.13c7.78,10.44,7.9,26.35.65,37.07a9,9,0,0,1-7.54,4.32,8.88,8.88,0,0,1-7.52-4.32,38.3,38.3,0,0,1-6-22.55A43.15,43.15,0,0,1,1370,524Zm-54.89,58.61c11.24,0,11.22,17.44,0,17.44S1303.89,582.58,1315.11,582.58Zm7,64.46c14.19-2,26.73-10.11,36.58-20.17,7.87-8,20.19,4.3,12.34,12.33-13.19,13.47-30,23.1-48.92,25.28-17.74,2-36.37-3.94-49-16.7-7.89-8,4.44-20.33,12.34-12.33C1294.93,645,1308.92,648.94,1322.13,647Z"/><circle class="cls-5" cx="1195.27" cy="626.48" r="38.68" transform="translate(-92.9 1028.68) rotate(-45)"/><circle class="cls-5" cx="1434.94" cy="609.57" r="38.68" transform="translate(-10.74 1193.19) rotate(-45)"/><path class="cls-2" d="M1763.58,200.47c-13.57-7.27-27.5-13.95-41.58-20.12a344.7,344.7,0,0,0-40.81-15.18c-9.71-2.84-19.8-5.35-30-5.47q-4.4,12.12-8.8,24.25c39,7.84,78.68,21.72,110.49,46Q1758.15,215.2,1763.58,200.47Z"/><path class="cls-4" d="M1680.81,103.06c1.65,4.09,4.31,8.22,3.28,12.75-.77,3.41-2.82,6.89-4.15,10.12q-3.76,9.19-7.54,18.38c19.24,3.9,38.36,12.35,55.28,19.63q6.88,3,13.71,6.09,1.58-7.54,3.16-15.09c.52-2.47.74-5.29,1.6-7.67,2.18-6,10.16-10.49,14.62-15,16-16,29.1-36.23,34.06-58.47,1.66-7.48,2.51-15.92,0-23.32-2.92-8.45-11.74-12.45-19.11-16.56-15.83-8.82-59.94-26.83-66.58,2.61-6.39,28.28,26.14,43.78,46.63,53.37,10.17,4.76,1.3,19.79-8.8,15.06-16.3-7.63-33-15.92-44.4-30.36-10-12.71-14.73-30.81-9.12-46.41a41,41,0,0,1,2.49-5.6c-1.35-.85-2.75-1.69-4.16-2.43-7-3.68-11-3.44-15.69,3.38-12.42,18.25-7.85,44.11-1.27,63.48C1676.6,92.46,1678.67,97.78,1680.81,103.06Z"/><path class="cls-1" d="M929.53,1398.54,810.4,1398l-9,0c1.67,15.75,3,31.6,3.2,47.41a139.77,139.77,0,0,1-.48,14.07H991.87A488,488,0,0,0,976,1398.76Z"/><path class="cls-2" d="M1587,1212.07c-7.47-62-10.46-124.6-13.49-186.93-2.84-58.5-4.94-117-7.07-175.55a12.09,12.09,0,0,1,.75-5.78c13-43.74,25.6-87.57,38.23-131.4,26.09-90.52,52.1-181.07,79.41-271.24,19.65-64.89,39.75-129.75,62-193.83-30.86-25.65-71.37-39.19-110.4-46.86q-30.83,85-61.64,170-20.08,55.41-40.18,110.8a9.18,9.18,0,0,1-1.54,2.68,393.18,393.18,0,0,1-3.33,52.36,9.37,9.37,0,0,1-.59,2.26,69.4,69.4,0,0,1,1.68,32.14c-4.3,25-20.17,47.94-40.12,64.67,21,9.56,35.31,30.94,40.25,53.38,3.59,16.34,3.07,32.86,1.24,49.37-1.16,10.45-3.92,34.9,12.34,35.79,4.52.25,9,3.83,8.72,8.72-.88,17.3-23.47,22.13-37.29,25.24a157.39,157.39,0,0,1-47.89,3.54,126.42,126.42,0,0,1-18.12-2.9c-3,13.22-10.18,24.94-18,36.1a277.74,277.74,0,0,1-31.12,37.07c-5.1,5.08-11,12.3-18,14.75A14.08,14.08,0,0,1,1372,896a179.2,179.2,0,0,0-5.9,18.67c-.14.59-.35,2-.47,2.92a172.5,172.5,0,0,0-1.22,20.83c0,61.31,27.07,120.61,65.35,167.68a419.21,419.21,0,0,0,52.19,53.22q8.08,7,16.47,13.55c4.94,3.89,11.67,6.94,12.43,13.76a78.53,78.53,0,0,1,0,8.12l.39,68.16c0,4.51-4,9-8.72,8.72l-69.37-4c-7.65-.43-15.54-.36-23.15-1.32-5.53-.7-7-3.18-10-7.13a285.08,285.08,0,0,1-22.56-35.84c-25.15-46.19-42.73-96.36-55.44-147.55-2.51,32.52-6.11,65-12.22,97.08-5.4,28.23-12.37,57.9-27.08,82.92-15.29,26-46.17,48.11-76.93,48.84-.85,0-1.68-.05-2.53-.06,0,.35-.08.71-.12,1.07-1,8.78-1.77,17.57-2.54,26.36-.42,4.8-1.06,9.62-1,14.44,0-.78.45,1,.69,1.29,1.81,2.2,5.47,4.37,9.65,5.84a93.41,93.41,0,0,0,19.06,4.21c43.17,5.55,88.5.06,131.44-5,43.8-5.11,87.66-10.89,131.15-18.19,18.87-3.17,37.7-6.72,56.26-11.4,14.33-3.61,29-7.63,42.18-14.46,4.63-2.39,8.87-4.91,12.4-8.43a10.14,10.14,0,0,0,2.92-3.83c-.18.37,1-3.61.89-2.37,1-11.23-5.85-19.17-9.48-28.9C1590.56,1248.59,1589.1,1229.58,1587,1212.07Z"/><path class="cls-2" d="M192.72,303.45q-9.45-11.93-18.49-24.15-18.34,11.58-35.92,24.34c-14.56,10.57-29.57,21.79-43,34.42a8.87,8.87,0,0,1-3.14,3.1,183,183,0,0,0-15.39,16.91c6.51,7.76,12.79,15.77,19,23.83,13.47-16.2,30.54-29.7,47-42.58C158.83,326.71,175.38,314.38,192.72,303.45Z"/><path class="cls-6" d="M553.54,1358q-.06,10.65-.1,21.31l45.8.22,108.33.52q0-10.65.1-21.31L595,1358.18Z"/><path class="cls-4" d="M88.14,321.39c12.21-11,25.32-21,38.42-30.66,11.15-8.18,22.53-16.13,34.17-23.64.31-18.35.51-36.7.41-55-.06-10.73,1.67-25.59-5.49-34.57-10-12.52-14.05,14.17-14.17,19.72a8.83,8.83,0,0,1-11,8.41c-11.3-2.68-20.41-11.37-28.34-19.36-7.44-7.5-14.41-17.22-23.72-22.5-17.68-10-42.09-1-52.53,15.37-12,18.74-10.57,44.26-.55,63.54C33.75,258.9,45.42,273.76,57,287.83,66.5,299.32,76.52,311.7,88.14,321.39Zm12.21-93.14a8.91,8.91,0,0,1,10.73-6.09,8.79,8.79,0,0,1,6.09,10.72,65.66,65.66,0,0,0-2.06,8c-.13.71-.24,1.41-.36,2.12v.12c-.13,1.32-.27,2.65-.34,4a63.72,63.72,0,0,0,.11,8.29c0,.61.1,1.22.16,1.83,0,.31.07.61.11.92.08.67,0,.4-.11-.8-.17,1.18.52,3.07.76,4.23a8.93,8.93,0,0,1-6.09,10.73c-4.29,1.39-9.78-1.62-10.72-6.09A74,74,0,0,1,100.35,228.25Z"/><path class="cls-4" d="M847.59,654.55a141.92,141.92,0,0,0,50.61-46.24c13.78-21,19.59-44.23,22.85-68.91,2.68-20.27,6.52-40.16,8.43-59.26,1.2-11.95,2-24,3.43-35.92-65.66-16.35-129.79-43.08-173.28-97.05a9.21,9.21,0,0,1-1.63-3,36.76,36.76,0,0,0-12.16.14,12.25,12.25,0,0,1,0,3.58c-2.09,15.44,4.35,31.06,12.91,43.56,9.64,14.06,23,25.33,35.81,36.34,3.6,3.07,3.14,9.19,0,12.33-3.51,3.51-8.75,3.06-12.33,0s-7-6-10.45-9.12A128.38,128.38,0,0,1,687,379.33c-5.66,8.42-11.71,16.6-18,24.55C652.79,424.27,634.5,443.2,613.72,459c.56,13.29,1.89,26.52,2.13,39.83s-.07,26.39.69,39.57c1.32,23.24,7.84,45.28,20.17,65.1,26.65,42.85,73.38,65.31,122.6,69.57C789.72,674.12,820.63,669.28,847.59,654.55ZM826.78,483.42c.54-3.74,1.56-7.59,4.17-10.42l3-3.29a7.62,7.62,0,0,1,3.08-2,8.29,8.29,0,0,1,6.21.15l.28.11c.27.12.52.25.78.39a9.6,9.6,0,0,1,2,1.36,7.61,7.61,0,0,1,2,2.92,32.36,32.36,0,0,1,4.18,17.82,33.12,33.12,0,0,1-2,9.85,36.32,36.32,0,0,1-5.81,10c-1.68,2.1-4.83,2.74-7.32,2.4A8.38,8.38,0,0,1,831,508.5,40,40,0,0,1,826.78,483.42ZM767.85,532.1c11.24,0,11.22,17.44,0,17.44S756.63,532.1,767.85,532.1ZM708.41,502c-1.68,2.1-4.83,2.74-7.32,2.4a8.4,8.4,0,0,1-6.37-4.16,40.06,40.06,0,0,1-4.21-25.08c.54-3.74,1.57-7.59,4.17-10.42,1-1.09,2-2.19,3.05-3.29a7.52,7.52,0,0,1,3.07-2,8.29,8.29,0,0,1,6.21.15l.28.11c.27.12.52.25.78.39a9.6,9.6,0,0,1,2,1.36,7.61,7.61,0,0,1,2,2.92,32.46,32.46,0,0,1,4.19,17.82,33.45,33.45,0,0,1-2,9.85A36.32,36.32,0,0,1,708.41,502Zm7.88,79c-.91-5.33,2.28-11.23,8.41-11l11.85.38L818.84,573a8.39,8.39,0,0,1,5.74,2.36,7.79,7.79,0,0,1,2.67,8.68,90.58,90.58,0,0,1-9.81,21.83c-6.93,11.37-16.42,21.25-28.9,26.36a48,48,0,0,1-42.77-3.89C730,618.34,719.42,599.17,716.29,581Z"/><circle class="cls-5" cx="647.04" cy="565.12" r="38.68"/><circle class="cls-5" cx="887.3" cy="565.12" r="38.68"/><path class="cls-2" d="M670.65,755.67c.08.5.16,1,.25,1.52,1,5.18,2.36,10.27,3.91,15.32,3.75,12.25,8.38,24.23,13.2,36.1,5.34,13.13,11.07,26.13,17,39q21.4-10,42.83-19.86c-18.75-26.66-37.59-53.32-57.31-79.28l-20,6.15c0,.33,0,.66.07,1Z"/><path class="cls-7" d="M725.11,1358.81q0,10.65-.1,21.3l76.71.37q.06-10.65.1-21.31l-57.55-.27Z"/><path class="cls-8" d="M805.15,592.1c.36-.69.67-1.42,1-2.12l-69.89-2.25c.36,1,.74,2,1.14,3,.05.14.09.22.12.3s0,0,0,.09c.27.61.54,1.21.83,1.82,4.47,9.54,9.86,17,18.71,21.71a30.81,30.81,0,0,0,29.83-1.12C794.92,608.69,800.46,601.07,805.15,592.1Z"/><path class="cls-6" d="M903.85,1359.66l-84.59-.4q0,10.65-.1,21.3l16.64.08,139.62.67q0-10.49.1-21c-5.37,0-10.79-.36-16-.39Z"/><path class="cls-4" d="M1377.83,879.65c1,1.25.71.09,0,0Z"/><path class="cls-2" d="M1109,875.43c-12.76-14.56-25.93-28.81-40.33-41.76a194.06,194.06,0,0,0-78.18-43.33C953.62,780,915,775.56,877.08,770.53a91.13,91.13,0,0,1-4,11.53c-5.16,13-11.6,25.49-18.3,37.77q-14.14,25.9-30,50.87c-2.46,3.89-7.83,5.7-11.93,3.13-6.74-4.22-13.51-8.4-20.26-12.61q-3.06,8-6.11,15.94c-1.34,3.51-2.45,9.66-4.81,12.72,1,2.75.82,6.82,1.19,9.65q1.23,9.71,2.47,19.41l32.43,254.79,6.45,50.7c1,8.21,2.73,16.61,3.17,24.88.21,3.91-1.58,6.56-4.32,9.15-6.37,6-13.12,11.74-19.67,17.6l-38.58,34.53c-3.48,3.11-8.9,3.49-12.33,0l-37.4-38.18-20.85-21.29c-3-3.09-6-5.65-5.89-10.42.14-7.27,1.62-14.75,2.41-22q2.44-22.32,4.88-44.65l13.83-126.42q6.48-59.21,12.95-118.4l3.81-34.75c.27-2.48,1-5.37.86-7.86-.05-.8-.45-1-.51-1.44-.77-5.24-3.87-11-5.64-16l-3-8.45c-4.27,2-8.54,3.94-12.8,5.93-4,1.85-9.78,1.4-11.93-3.13-3.28-6.91-6.43-13.9-9.53-20.89-11.08-25-23.23-51-29-77.83a78.34,78.34,0,0,1-1.48-8.86c-13.1-2.24-25.53-8.92-36.79-15.68-16.62-10-32.13-21.84-47.18-34-40.28-32.57-77.52-68.92-113.83-105.8-41.56-42.21-81.75-85.77-121.14-130Q281.5,411.2,230.78,350.13c-9.07-10.94-18.15-21.91-27.12-33a542.69,542.69,0,0,0-48.58,34.49c-9.88,7.74-19.58,15.72-28.86,24.17-4,3.59-7.83,7.28-11.55,11.11-1.75,1.81-3.46,3.64-5.12,5.53-.64.74-1.28,1.49-1.91,2.24s-.86,1-1,1.24c1.35,1.74,2.69,3.49,4,5.21l73.68,93.2,93.51,118.32L374.59,735l83.29,105.38,46.71,59.08c-.09-1.28-.17-2.57-.26-3.86q-.58-8.49-1.2-17c-.11-1.57-.24-3.15-.37-4.73a8.6,8.6,0,0,1-.39-2.31,12.22,12.22,0,0,1,.33-3.3c1.68-6.09,10.07-8.81,14.6-3.88,2.24,2.45,2.49,4.94,2.78,8,1,10.26,1.51,20.56,2.22,30.83q.59,8.51,1.2,17c.11,1.58.24,3.16.37,4.74a8.59,8.59,0,0,1,.39,2.3c0,.24,0,.48,0,.72a102.55,102.55,0,0,1,.67,10.67q3.6,62.65,7.06,125.3c2.88,52.1,5.74,104.2,8.19,156.32.75,15.76,1.56,31.54,1.91,47.32.26,11.46-.91,22.77-2.22,34.13-.88,7.58-2.11,15.67-.74,23.26,1.17,6.45,4.57,11.24,9.11,15.49l51.21.24,117,.56h0l94.15.46h0l25.4.12,145,.69c7.43-7.08,10.13-15.07,9.75-26-.44-13-2.9-25.75-3-38.74-.1-8.6.46-17.23.89-25.82,3.16-63.94,7.52-127.83,11.66-191.71q4.25-65.32,8.64-130.63c.76-11.16,18.2-11.21,17.44,0q-.22,3.43-.46,6.87-3.11,46.32-6.12,92.66,2.73,2.22,5.44,4.46l37.87,31.1q-1.77-8.23-3.34-16.5c-7.92-42.12-15.12-94.38,10.16-132.29C1080.38,900.37,1093.87,887,1109,875.43Z"/><path class="cls-2" d="M1231.12,1280.13c25.14-13.13,38.72-32.18,48-58.28,10.26-28.85,15.67-59.46,19.74-89.72,4.46-33.17,7-66.61,8.55-100q1.3-27.45,1.82-55c-34.45-17-74.7-17.89-112.5-16.15q-17.68,98-34.66,196.09c-1.9,11.06-18.7,6.34-16.82-4.63q6.21-36.3,12.61-72.57,15.69-89.14,31.91-178.2c.69-3.75,4.86-6.35,8.41-6.4.72,0,1.43,0,2.15,0-6.93-13.55-11.57-29.33-14-43.91-6.47,2.95-12.89,6-19.21,9.22a364.71,364.71,0,0,0-39.42,23,9.52,9.52,0,0,1-3.05,2.1c-24,16.95-44.7,38.49-51.21,66.92-9.78,42.75,2,89.57,11.86,131.23,0,.22.11.44.16.66a8.07,8.07,0,0,1,.42,1.76c7.42,31.3,14.57,62.54,25.73,92.78s25.42,61.7,47.9,85.28c9.11,9.56,20,18,32.92,21.4C1205.59,1289.14,1219.18,1286.36,1231.12,1280.13Z"/><path class="cls-3" d="M1220,776.22c5.47-5,12.22-6.63,19.2-7.19l1.65-42.81c-32.37-14-60.29-38.62-77.06-69.77-2.55-1.25-5.07-2.59-7.57-4-25.85,11.47-32.44,43.7-29.63,69.78,1.83,16.91,9.48,33.78,6.68,50.95a36.21,36.21,0,0,1-10.91,20.65c.65.14,1.25.27,1.7.39,5.09,1.34,10.25,2.47,15.44,3.31a134.63,134.63,0,0,0,26.38,1.45c15.27-.61,30.17-3.92,45-7.14A32.12,32.12,0,0,1,1220,776.22Z"/><path class="cls-4" d="M1220,894.68a8.52,8.52,0,0,1,.46.9,607.71,607.71,0,0,1,75,8.18q3-4,5.71-8.11A144.16,144.16,0,0,0,1316.59,865c6.23-17.58,12.85-43.24-1.49-58.67-11.21-12.07-29.2-16.64-44.95-18.8a160.51,160.51,0,0,0-23.6-1.37c-5.89.07-12.84-.51-16.52,5-3.42,5.08-3.51,12.18-3.29,18.07a65.87,65.87,0,0,0,.66,7.43c.18,1,.34,2,.57,3,1.17,5.23-2.49,11.37-8.41,11-5.37-.3-13.76-.33-16.42,5.56-2.3,5.09.37,13.1,1.59,18.13C1208,868.08,1212.41,882.71,1220,894.68Z"/><path class="cls-2" d="M1203.1,925.45c-1.08,6-2.14,11.94-3.22,17.9,36.93-1.46,75.26.33,109.52,14.73,0-11.44,0-22.87-.25-34.29-34.08-6.27-69.07-10.95-103.74-11.1Z"/><path class="cls-4" d="M1489.31,522c-1.37,17.4-3.26,34.77-4.08,52.21-.76,16.27-2.13,32.4-6,48,15.45-12.87,27.94-29.87,33.19-48.9C1518.28,552,1511.22,526.94,1489.31,522Z"/><path class="cls-4" d="M1390.21,791.47q-2.57-32.19-5.11-64.37c-21.12,8.52-43.94,13-67.12,14.12a208.47,208.47,0,0,1-59.93-8.68q-.71,18.21-1.4,36.42a187.7,187.7,0,0,1,20.07,2.06c20.24,3.19,42,10.73,54.64,27.76,6.88,9.25,9.54,20.35,9.63,31.82Q1365.62,811.06,1390.21,791.47Z"/><path class="cls-8" d="M1357.76,884.19q-11.25-11.31-21.38-23.62c-1.38,4.75-3,9.32-4.66,13.59a166.81,166.81,0,0,1-17.22,33c1.86.34,3.72.66,5.57,1,3.79.71,6.31,4.83,6.41,8.4,0,.85,0,1.71,0,2.56,1.07,30.33.71,60.88-.53,91.34a857.27,857.27,0,0,0,23.08,97.35c11.54,38,26,75.43,45.38,110.21,5,9,10.39,17.89,16.29,26.37,1.12,1.61,2.29,3.18,3.46,4.76l79.61,4.54-.36-62.86c-33.45-25.73-64-54.94-88.91-89.12-29.89-41-50.6-88.8-56.2-139.4a200.15,200.15,0,0,1-.65-40.21C1348.94,908.74,1353.47,896.82,1357.76,884.19Z"/><path class="cls-4" d="M598.19,490.77c-.33-8.78-1.12-17.52-1.65-26.28-7.79,1.35-14.8,5.14-19.61,12-7.64,10.95-8.54,25.45-5.56,38.1,4.55,19.33,16.28,36.95,31.25,50.51a209.73,209.73,0,0,1-4-38.7C598.41,514.54,598.64,502.65,598.19,490.77Z"/><path class="cls-4" d="M946.35,485.44c-.22,2-.4,4-.65,6-1.33,10.85-3.79,21.52-5.22,32.37-1.9,14.35-3.39,28.77-6.36,43A144.35,144.35,0,0,1,929,585.05c16.52-11.68,30.58-28,37.06-46.4C973.3,518,968.61,491.53,946.35,485.44Z"/><path class="cls-2" d="M774.42,829.36q8.67,5.37,17.33,10.79a8.8,8.8,0,0,1,4,2.47q9.35,5.82,18.72,11.65c7.45-12,14.69-24.21,21.6-36.56,6.32-11.3,12.47-22.75,17.8-34.56a112.48,112.48,0,0,0,5.23-13.51c.35-1.15.59-2.33.87-3.49L841,757.68C818.25,781,796.29,805.18,774.42,829.36Z"/><path class="cls-9" d="M771.81,431c-11.11-10-21.63-20.59-29.73-33.22-10.48-16.35-15.64-35.2-13-54.53.64-4.7,6.67-7.21,10.73-6.09a8.21,8.21,0,0,1,6.06,7.15,36.76,36.76,0,0,1,12.16-.14c-2.63-8.15,7.71-17.05,14-9.3C817.38,391.2,885.39,416,954.1,431.34c10.79,2.41,6.42,18.69-4.14,16.87,0,.45-.09.89-.13,1.34q-.66,6.79-1.28,13.6c-.15,1.65-.31,3.31-.46,5a50.06,50.06,0,0,1,21.59,10.43c11.18-49.13,15-103-6-149.62C933.72,262.7,862.54,233.8,794.57,224.65c-38.71-5.21-82.08-7.72-116,15.44a95.6,95.6,0,0,0-30.43,34.79c-3.32,6.34-5.32,10.33-7,18.07A8.48,8.48,0,0,1,635,299a46.52,46.52,0,0,0-7.24,2c-.86.3-1.7.63-2.55.95l-.55.21-.42.19c-2,.89-3.89,1.81-5.79,2.82a92.86,92.86,0,0,0-41.78,46.18c-13.9,32.77-11.22,70.06-3.56,104.42a50,50,0,0,1,28.3-9.26c20.39-15,38.15-33.75,53.94-53.38C670,375,683.48,355,693.25,333.69a167.78,167.78,0,0,1-40.18-24.16c-3.78-3.07-2.93-9.14,0-12.33,3.41-3.71,8.8-2.87,12.33,0l2.09,1.67,1.79,1.36c1.71,1.27,3.44,2.49,5.19,3.68q5.26,3.58,10.82,6.7t11.33,5.79l2.9,1.3.41.17,1.18.48c2,.8,3.95,1.54,5.95,2.26,4.13,1.19,7.9,6.34,6.09,10.73a7.13,7.13,0,0,1-1,2.17A274.38,274.38,0,0,1,687,379.33,128.38,128.38,0,0,0,771.81,431Z"/><path class="cls-4" d="M831.59,680a200.26,200.26,0,0,1-72.28,10.46A215.43,215.43,0,0,1,704.85,679c-1.22,18.92-.18,38-2.1,56.87,20.38,26.63,39.76,54.06,59,81.5,22.48-24.87,45.05-49.71,68.49-73.66C830.45,722.47,831.33,701.26,831.59,680Z"/><path class="cls-8" d="M777.51,851.82c-5.74-3.56-11.45-7.15-17.2-10.7q-13.24,6.11-26.47,12.28,4.3,12.26,8.63,24.5c.94,2.67,2.09,5.24,2.14,8.09a45.76,45.76,0,0,1-.61,5.58L741,919l-21.27,194.46q-6.83,62.43-13.66,124.86l53,54.1,50.61-45.29q-3.28-25.85-6.58-51.71L774.93,974.11,765.24,898c-.53-4.11-1.73-8.42-.54-12.46C768.07,874.11,773,863,777.51,851.82Z"/><path class="cls-4" d="M1152.53,629a212.7,212.7,0,0,1-7.25-39.06c-1.21-11.82-1.92-23.69-3.35-35.5-1-8.33-2.4-16.6-3.6-24.9a8.15,8.15,0,0,1-1.08-.19c-21.15,6.26-26.55,31.74-19.88,52.4C1123.41,600.45,1136.6,616.8,1152.53,629Z"/><path class="cls-10" d="M712,464.37a7.61,7.61,0,0,0-2-2.92,9.6,9.6,0,0,0-2-1.36c-.26-.14-.51-.27-.78-.39l-.28-.11a8.29,8.29,0,0,0-6.21-.15,7.52,7.52,0,0,0-3.07,2c-1,1.1-2,2.2-3.05,3.29-2.6,2.83-3.63,6.68-4.17,10.42a40.06,40.06,0,0,0,4.21,25.08,8.4,8.4,0,0,0,6.37,4.16c2.49.34,5.64-.3,7.32-2.4a36.32,36.32,0,0,0,5.81-10,33.45,33.45,0,0,0,2-9.85A32.46,32.46,0,0,0,712,464.37Z"/><path class="cls-10" d="M837.36,512.66c2.49.34,5.64-.3,7.32-2.4a36.32,36.32,0,0,0,5.81-10,33.12,33.12,0,0,0,2-9.85,32.36,32.36,0,0,0-4.18-17.82,7.61,7.61,0,0,0-2-2.92,9.6,9.6,0,0,0-2-1.36c-.26-.14-.51-.27-.78-.39l-.28-.11a8.29,8.29,0,0,0-6.21-.15,7.62,7.62,0,0,0-3.08,2L831,473c-2.61,2.83-3.63,6.68-4.17,10.42A40,40,0,0,0,831,508.5,8.38,8.38,0,0,0,837.36,512.66Z"/><path class="cls-10" d="M767.85,549.54c11.22,0,11.24-17.44,0-17.44S756.61,549.54,767.85,549.54Z"/><path class="cls-10" d="M788.54,632.18c12.48-5.11,22-15,28.9-26.36A90.58,90.58,0,0,0,827.25,584a7.79,7.79,0,0,0-2.67-8.68,8.39,8.39,0,0,0-5.74-2.36l-82.29-2.65-11.85-.38c-6.13-.19-9.32,5.71-8.41,11,3.13,18.21,13.67,37.38,29.48,47.33A48,48,0,0,0,788.54,632.18ZM757.11,614.7C748.26,610,742.87,602.53,738.4,593c-.29-.61-.56-1.21-.83-1.82,0,0,0,0,0-.09s-.07-.16-.12-.3c-.4-1-.78-2-1.14-3L806.17,590c-.35.7-.66,1.43-1,2.12-4.69,9-10.23,16.59-18.21,21.48A30.81,30.81,0,0,1,757.11,614.7Z"/><path class="cls-10" d="M771.81,431c3.45,3.09,7,6.12,10.45,9.12s8.82,3.51,12.33,0c3.14-3.14,3.6-9.26,0-12.33-12.85-11-26.17-22.28-35.81-36.34-8.56-12.5-15-28.12-12.91-43.56a12.25,12.25,0,0,0,0-3.58,8.21,8.21,0,0,0-6.06-7.15c-4.06-1.12-10.09,1.39-10.73,6.09-2.61,19.33,2.55,38.18,13,54.53C750.18,410.37,760.7,421,771.81,431Z"/><path class="cls-10" d="M36.12,289.46C48,304.78,60.78,320.57,75.66,333.39a198.7,198.7,0,0,0-17.53,20.38c-2.47,3.35-.88,7.74,1.36,10.57l44.9,56.8,107.35,135.8L342,721.7,454.11,863.57l36.95,46.75c5.27,6.66,10.25,14,15.95,20.37q2.64,45.67,5.19,91.34,4.84,86.39,9.28,172.78c1,20.76,2.08,41.52,2.83,62.29.19,5.3.41,10.61.4,15.92-.05,18.27-5.72,36.91-2.68,55.1,1.33,8,6.52,19.67,14.09,25.79q-.09,17-.17,34.06a9.25,9.25,0,0,0,.13,1.28,6.47,6.47,0,0,0-.87,2.21c-3.86,22.51-6.55,45.19-8.25,67.94H544.4c1.57-21,4-41.91,7.53-62.68l141,.68,23.28.11,25.2.12q1.51,30.88,3,61.77h17.49q-1.5-30.84-3-61.68l25,.12c1.34,12.91,2.46,25.85,3,38.81.33,7.5.6,15.23-.35,22.75h17.57a139.77,139.77,0,0,0,.48-14.07c-.19-15.81-1.53-31.66-3.2-47.41l9,0,119.13.58,46.43.22a488,488,0,0,1,15.91,60.64h17.62a490.13,490.13,0,0,0-17.15-66.68,8.68,8.68,0,0,0,.48-2.64q.07-17,.16-33.92c7.85-6.19,13.19-18.33,14.49-26.57,2.84-18-2.44-36.41-2.3-54.52.12-14.5,1.18-29,2-43.52,3.05-55.09,6.63-110.16,10.2-165.22.34-5.26.7-10.51,1-15.77l44.42,36.47,6.67,5.48c1.64,6.89,3.3,13.78,4.93,20.68,3.61,15.32,7.29,30.56,12,45.62,10.51,33.89,24,68.15,44.41,97.42,13.67,19.62,32.25,38.8,55.41,45.7-1.28,10.84-2.27,21.71-3.21,32.58-.63,7.3-1.88,14.53,1.87,21.22a23.9,23.9,0,0,0,3.05,4.14c-10.74,32.49-18.65,65.85-25,99.53h17.78c.16-.84.3-1.68.46-2.52a775,775,0,0,1,21.95-87.26c11.47,4.48,24.45,5.75,36.46,6.62,21.5,1.55,43.18.71,64.66-.7,48.66-3.21,97.09-10.19,145.36-17,40.21-5.64,81.17-11.28,120.08-23.26,10.94-3.37,26.5-8.26,38.13-16.4,37.56,43.41,70.12,91,99.29,140.49h20.19q-12.67-21.8-26.18-43.1c-24.47-38.44-51.3-75.46-81.15-109.92a26.75,26.75,0,0,0,3.8-13.8,54.9,54.9,0,0,0-7.61-27.55c-.66-1.06-1.34-2.1-2-3.17l-.18-.35c-.15-.41-.57-1.42-.65-1.66a160.93,160.93,0,0,1-5.21-22.21c-10.18-58.45-12.19-118.79-15.39-177.92-3.5-64.78-6-129.61-8.28-194.43q-.29-8.16-.58-16.31c24.53-82.79,48.05-165.88,72.13-248.8,26.28-90.44,52.93-180.8,81.81-270.44,14.17-44,28.86-87.76,44.93-131.06,1.31-3.51-.85-8.1-4-9.85-7-3.87-14-7.53-21.17-11.07q2-9.7,4.07-19.4l1-4.84a4.17,4.17,0,0,0,1.55-.65c6.37-3.78,12.2-11.35,17-16.94,16.75-19.68,30.52-44.28,32.43-70.51.7-9.49-.69-19.75-5.77-28-7.5-12.12-23.5-19.36-36-24.81-18.72-8.15-46-13.84-63.76-2.94-9.3-6.73-21.09-12.32-31.91-8.43-23,8.28-26.85,43.51-24.41,63.84,1.53,12.76,5.37,24.92,10,36.86,1,2.62,1.91,7,3.68,9.16.32,1.55.64,2.3.95,2.29-.49,1.2-1,2.4-1.48,3.6l-10.32,25.17a79.16,79.16,0,0,0-9.5.27,9.19,9.19,0,0,0-8.41,6.4l-40.17,110.8-64,176.53c-.77,2.11-1.53,4.23-2.3,6.34-3.48-24.89-10.25-49.21-21.39-71.93-25.56-52.16-74.28-87.28-130.14-100.89-52.37-12.76-113.28-10.49-163,11.41-44.59,19.64-80.16,57.45-101,101.09-23.47,49.09-29.92,106.41-13.44,158.64-4.81,12-5.2,25.76-2.55,38.3,5.18,24.42,21.5,46.53,41.67,62.44-17.6,12-28.26,32.52-31,54-2.08,16.32,0,32.79,3.6,48.75,2.69,11.9,9.3,36.42-8.86,39.54-5,.85-6.81,6.47-6.09,10.73,1.93,11.46,14.56,14.7,24.14,17.06a161.65,161.65,0,0,0,35,4.78c17.64.38,34.94-2.85,52.12-6.49.06,1.27.15,2.52.27,3.77-6.71,1-13.13,3.66-17.86,8.75a22.91,22.91,0,0,0-5.37,9.83c-21.12,9.15-43,19.79-63,33-23-26.4-47.51-52.53-77.7-70.59-28.58-17.08-61.09-25-93.6-30.58-26.58-4.6-53.37-8-80.1-11.72-7.62-4.17-16-7.39-24.1-10.8.23-22.91,1.26-45.8,1.36-68.71a154.18,154.18,0,0,0,53.15-41,158.7,158.7,0,0,0,14-19.95c30.82-14,59.27-40.72,68.23-74,3.5-13.05,3.47-27.7-1.49-40.44,13.47-52,20-109.19,2.23-160.95C972.09,298.32,946,267,911.8,245.62,880.58,226.13,844.44,215,808.3,209.2c-41.7-6.75-87.81-10.78-126.69,8.84-25.18,12.7-48.1,37.46-56.05,65.33-14.53,3.95-28.43,13.52-39,23.53C563.28,329,552.26,360.16,550,391.63c-1.94,27.16,2.42,54.56,9.21,80.83-6.22,12-7.92,26.05-6,39.45,4.8,33.82,29.78,64.4,58.64,81.69A159.86,159.86,0,0,0,688,672c-2,19.86-.73,39.9-2.32,59.78l-23.45,7.21c-.33.11-.57.28-.88.39l-2.33-.05c-.48,0-.95-.08-1.43-.13l-.46-.09a75.08,75.08,0,0,1-7.8-2c-6.28-2.06-9.51-3.65-16.29-7.31-15.26-8.25-29.49-18.48-43.15-29.14C550.66,670,514.6,635.18,479.48,600c-41.19-41.27-80.94-84-119.89-127.34Q305.83,412.8,254.18,351.08q-20-23.85-39.49-48.06c-9.72-12.1-17.84-22.31-26.35-33.71-1.52-2-3-4.06-4.49-6.11a10.56,10.56,0,0,0-5.46-4c.52-21.55,1.16-43.26-.13-64.7-1-16.22-8.71-38.08-28.41-37.47-15,.47-21.83,13.69-24.44,27.06-6.07-4.31-11.32-10.48-16.06-15.44-8-8.37-15.74-17.4-26.57-22.12-21.8-9.49-48.94-2.45-65,14.68C-.85,181.13-3.84,211.61,4.17,236.82,10.41,256.45,23.64,273.42,36.12,289.46ZM707.57,1380l-108.33-.52-45.8-.22q0-10.65.1-21.31l41.47.2,112.66.54Q707.63,1369.37,707.57,1380Zm94.15.45-76.71-.37q0-10.65.1-21.3l19.16.09,57.55.27Q801.77,1369.84,801.72,1380.48Zm173.7.83-139.62-.67-16.64-.08q0-10.65.1-21.3l84.59.4,55.63.27c5.25,0,10.67.35,16,.39Q975.48,1370.82,975.42,1381.31ZM1676,23.58c4.64-6.82,8.73-7.06,15.69-3.38,1.41.74,2.81,1.58,4.16,2.43a41,41,0,0,0-2.49,5.6c-5.61,15.6-.89,33.7,9.12,46.41,11.37,14.44,28.1,22.73,44.4,30.36,10.1,4.73,19-10.3,8.8-15.06-20.49-9.59-53-25.09-46.63-53.37,6.64-29.44,50.75-11.43,66.58-2.61,7.37,4.11,16.19,8.11,19.11,16.56,2.56,7.4,1.71,15.84,0,23.32-5,22.24-18.11,42.51-34.06,58.47-4.46,4.47-12.44,9-14.62,15-.86,2.38-1.08,5.2-1.6,7.67q-1.59,7.55-3.16,15.09-6.83-3.12-13.71-6.09c-16.92-7.28-36-15.73-55.28-19.63q3.76-9.18,7.54-18.38c1.33-3.23,3.38-6.71,4.15-10.12,1-4.53-1.63-8.66-3.28-12.75-2.14-5.28-4.21-10.6-6-16C1668.19,67.69,1663.62,41.83,1676,23.58ZM1651.22,159.7c10.17.12,20.26,2.63,30,5.47A344.7,344.7,0,0,1,1722,180.35c14.08,6.17,28,12.85,41.58,20.12q-5.43,14.73-10.67,29.52c-31.81-24.32-71.45-38.2-110.49-46Q1646.81,171.82,1651.22,159.7ZM1529.74,536.3a393.18,393.18,0,0,0,3.33-52.36,9.18,9.18,0,0,0,1.54-2.68q20.09-55.39,40.18-110.8,30.81-85,61.64-170c39,7.67,79.54,21.21,110.4,46.86-22.25,64.08-42.35,128.94-62,193.83-27.31,90.17-53.32,180.72-79.41,271.24-12.63,43.83-25.27,87.66-38.23,131.4a12.09,12.09,0,0,0-.75,5.78c2.13,58.52,4.23,117,7.07,175.55,3,62.33,6,124.94,13.49,186.93,2.1,17.51,3.56,36.52,9.79,53.19,3.63,9.73,10.53,17.67,9.48,28.9.12-1.24-1.07,2.74-.89,2.37a10.14,10.14,0,0,1-2.92,3.83c-3.53,3.52-7.77,6-12.4,8.43-13.18,6.83-27.85,10.85-42.18,14.46-18.56,4.68-37.39,8.23-56.26,11.4-43.49,7.3-87.35,13.08-131.15,18.19-42.94,5-88.27,10.5-131.44,5a93.41,93.41,0,0,1-19.06-4.21c-4.18-1.47-7.84-3.64-9.65-5.84-.24-.29-.7-2.07-.69-1.29-.05-4.82.59-9.64,1-14.44.77-8.79,1.59-17.58,2.54-26.36,0-.36.09-.72.12-1.07.85,0,1.68.08,2.53.06,30.76-.73,61.64-22.84,76.93-48.84,14.71-25,21.68-54.69,27.08-82.92,6.11-32,9.71-64.56,12.22-97.08,12.71,51.19,30.29,101.36,55.44,147.55a285.08,285.08,0,0,0,22.56,35.84c3,4,4.48,6.43,10,7.13,7.61,1,15.5.89,23.15,1.32l69.37,4c4.69.27,8.75-4.21,8.72-8.72l-.39-68.16a78.53,78.53,0,0,0,0-8.12c-.76-6.82-7.49-9.87-12.43-13.76q-8.39-6.6-16.47-13.55a419.21,419.21,0,0,1-52.19-53.22c-38.28-47.07-65.33-106.37-65.35-167.68a172.5,172.5,0,0,1,1.22-20.83c.12-.88.33-2.33.47-2.92A179.2,179.2,0,0,1,1372,896a14.08,14.08,0,0,0,10.82.46c7-2.45,12.87-9.67,18-14.75a277.74,277.74,0,0,0,31.12-37.07c7.84-11.16,15.07-22.88,18-36.1a126.42,126.42,0,0,0,18.12,2.9,157.39,157.39,0,0,0,47.89-3.54c13.82-3.11,36.41-7.94,37.29-25.24.25-4.89-4.2-8.47-8.72-8.72-16.26-.89-13.5-25.34-12.34-35.79,1.83-16.51,2.35-33-1.24-49.37-4.94-22.44-19.29-43.82-40.25-53.38,20-16.73,35.82-39.7,40.12-64.67a69.4,69.4,0,0,0-1.68-32.14A9.37,9.37,0,0,0,1529.74,536.3Zm-13.45,180.12c-.1,16.27-5.15,33.25-1,49.33A35.14,35.14,0,0,0,1529.16,786c-3.27,1.1-6.69,2-7.62,2.32a146.62,146.62,0,0,1-17.92,4.22,136.86,136.86,0,0,1-38.87,1.06c-25.82-3.07-48.7-15.57-60.06-39.39q-1.38-17.5-2.78-35a154.9,154.9,0,0,0,66.87-68.88c1.39-.76,2.79-1.52,4.17-2.34C1504.58,654.12,1516.47,687.51,1516.29,716.42Zm-37.1-94.18c3.91-15.65,5.28-31.78,6-48,.82-17.44,2.71-34.81,4.08-52.21,21.91,5,29,30,23.07,51.36C1507.13,592.37,1494.64,609.37,1479.19,622.24Zm-63.73,171.29a92.69,92.69,0,0,0,17.93,9.68c-1.86,11.45-9,21.71-15.43,31a250.48,250.48,0,0,1-24.2,29.69q-6.49,6.85-13.47,13.22a16.86,16.86,0,0,1-2.55,2.37c-.14-.17-.28-.35-.47-.61-1.78-2.48-4.84-4.64-7-6.82A323.11,323.11,0,0,1,1348,847.19C1370.51,829.37,1392.91,811.35,1415.46,793.53Zm-37.63,86.12c.71.09,1,1.25,0,0Zm-36.84-49c-.09-11.47-2.75-22.57-9.63-31.82-12.67-17-34.4-24.57-54.64-27.76a187.7,187.7,0,0,0-20.07-2.06q.7-18.21,1.4-36.42a208.47,208.47,0,0,0,59.93,8.68c23.18-1.07,46-5.6,67.12-14.12q2.55,32.19,5.11,64.37Q1365.61,811,1341,830.6Zm-9.27,43.56c1.68-4.27,3.28-8.84,4.66-13.59q10.13,12.31,21.38,23.62c-4.29,12.63-8.82,24.55-10.06,37.88a200.15,200.15,0,0,0,.65,40.21c5.6,50.6,26.31,98.43,56.2,139.4,25,34.18,55.46,63.39,88.91,89.12l.36,62.86-79.61-4.54c-1.17-1.58-2.34-3.15-3.46-4.76-5.9-8.48-11.26-17.34-16.29-26.37-19.38-34.78-33.84-72.17-45.38-110.21a857.27,857.27,0,0,1-23.08-97.35c1.24-30.46,1.6-61,.53-91.34,0-.85,0-1.71,0-2.56-.1-3.57-2.62-7.69-6.41-8.4-1.85-.36-3.71-.68-5.57-1A166.81,166.81,0,0,0,1331.72,874.16ZM1207.81,304.58c43-24.6,98.55-29.55,146.83-21.91,53,8.39,102.28,35.06,130.8,81.67,27.5,44.94,33.14,99.27,29,151.14a48.35,48.35,0,0,0-24-11.05q.35-7,.39-14a95.85,95.85,0,0,0,16.18-7.38c9.72-5.61,1-20.69-8.8-15.06-36.81,21.23-80.32,7.09-112.39-16.36a149.94,149.94,0,0,1-39.6-42.9c-12.12-19.91-23.47-42.5-45.21-53.58-20.33-10.35-48.52-6.91-59.53,15.21a8.5,8.5,0,0,0-.38,7.17c2.46,6.13,11.71,9.11,15.43,1.63,10.3-20.67,36.08-11.86,48.94.78,16,15.7,24,37.69,37.94,55.08,24,29.95,60.24,54,98.6,59.66a106.47,106.47,0,0,0,31.33,0c-.59,20.9-3.57,41.49-4.73,62.39-1.2,21.71-1,43.71-7.2,64.75a129.29,129.29,0,0,1-6.27,16.77,7,7,0,0,0-1.52,3.34c-13.62,28-37,51-65.06,64.9-21.89,10.81-46.29,15.77-70.56,16.9-49.65-.28-98.84-18.6-128.84-59.77A135.19,135.19,0,0,1,1179,647.67a6.54,6.54,0,0,0-1.72-3.36,141.49,141.49,0,0,1-13.07-42.13c-2-13.17-2.64-26.5-4-39.75-1.42-14.28-4.13-28.37-5.74-42.63a218.61,218.61,0,0,0,69.08-116,8.43,8.43,0,0,0-1.21-6.81c-3.78-5.47-13.76-6.08-15.61,2.17a203.31,203.31,0,0,1-69.34,112.3,49.18,49.18,0,0,0-23.23,10.93C1095.36,440.17,1134,346.83,1207.81,304.58Zm-90.44,277.15c-6.67-20.66-1.27-46.14,19.88-52.4a8.15,8.15,0,0,0,1.08.19c1.2,8.3,2.6,16.57,3.6,24.9,1.43,11.81,2.14,23.68,3.35,35.5a212.7,212.7,0,0,0,7.25,39.06C1136.6,616.8,1123.41,600.45,1117.37,581.73Zm48.51,217.21a134.63,134.63,0,0,1-26.38-1.45c-5.19-.84-10.35-2-15.44-3.31-.45-.12-1-.25-1.7-.39a36.21,36.21,0,0,0,10.91-20.65c2.8-17.17-4.85-34-6.68-50.95-2.81-26.08,3.78-58.31,29.63-69.78,2.5,1.45,5,2.79,7.57,4,16.77,31.15,44.69,55.73,77.06,69.77L1239.2,769c-7,.56-13.73,2.2-19.2,7.19a32.12,32.12,0,0,0-9.07,15.58C1196.05,795,1181.15,798.33,1165.88,798.94Zm37.26,37.32c2.66-5.89,11-5.86,16.42-5.56,5.92.33,9.58-5.81,8.41-11-.23-1-.39-2-.57-3a65.87,65.87,0,0,1-.66-7.43c-.22-5.89-.13-13,3.29-18.07,3.68-5.48,10.63-4.9,16.52-5a160.51,160.51,0,0,1,23.6,1.37c15.75,2.16,33.74,6.73,44.95,18.8,14.34,15.43,7.72,41.09,1.49,58.67a144.16,144.16,0,0,1-15.45,30.64q-2.72,4.15-5.71,8.11a607.71,607.71,0,0,0-75-8.18,8.52,8.52,0,0,0-.46-.9c-7.61-12-12-26.6-15.29-40.29C1203.51,849.36,1200.84,841.35,1203.14,836.26ZM1309.4,958.08c-34.26-14.4-72.59-16.19-109.52-14.73,1.08-6,2.14-11.93,3.22-17.9l2.31-12.76c34.67.15,69.66,4.83,103.74,11.1C1309.39,935.21,1309.45,946.64,1309.4,958.08ZM1124.62,885.6a9.52,9.52,0,0,0,3.05-2.1,364.71,364.71,0,0,1,39.42-23c6.32-3.25,12.74-6.27,19.21-9.22,2.45,14.58,7.09,30.36,14,43.91-.72,0-1.43,0-2.15,0-3.55,0-7.72,2.65-8.41,6.4q-16.21,89.05-31.91,178.2-6.37,36.27-12.61,72.57c-1.88,11,14.92,15.69,16.82,4.63q16.8-98.13,34.66-196.09c37.8-1.74,78-.82,112.5,16.15q-.48,27.52-1.82,55c-1.59,33.43-4.09,66.87-8.55,100-4.07,30.26-9.48,60.87-19.74,89.72-9.27,26.1-22.85,45.15-48,58.28-11.94,6.23-25.53,9-38.72,5.5-13-3.44-23.81-11.84-32.92-21.4-22.48-23.58-36.75-55.06-47.9-85.28s-18.31-61.48-25.73-92.78a8.07,8.07,0,0,0-.42-1.76c0-.22-.11-.44-.16-.66-9.9-41.66-21.64-88.48-11.86-131.23C1079.92,924.09,1100.63,902.55,1124.62,885.6ZM859.94,766.15c-.28,1.16-.52,2.34-.87,3.49a112.48,112.48,0,0,1-5.23,13.51c-5.33,11.81-11.48,23.26-17.8,34.56-6.91,12.35-14.15,24.53-21.6,36.56q-9.36-5.85-18.72-11.65a8.8,8.8,0,0,0-4-2.47q-8.67-5.4-17.33-10.79c21.87-24.18,43.83-48.34,66.6-71.68ZM765.24,898l9.69,76.13,28.17,221.26q3.28,25.86,6.58,51.71l-50.61,45.29-53-54.1q6.82-62.43,13.66-124.86L741,919l3-27.38a45.76,45.76,0,0,0,.61-5.58c-.05-2.85-1.2-5.42-2.14-8.09q-4.32-12.24-8.63-24.5,13.23-6.15,26.47-12.28c5.75,3.55,11.46,7.14,17.2,10.7-4.51,11.13-9.44,22.29-12.81,33.7C763.51,889.56,764.71,893.87,765.24,898ZM702.75,735.85c1.92-18.88.88-38,2.1-56.87a215.43,215.43,0,0,0,54.46,11.52A200.26,200.26,0,0,0,831.59,680c-.26,21.22-1.14,42.43-1.3,63.65-23.44,23.95-46,48.79-68.49,73.66C742.51,789.91,723.13,762.48,702.75,735.85ZM966,538.65c-6.48,18.35-20.54,34.72-37.06,46.4a144.35,144.35,0,0,0,5.15-18.31c3-14.18,4.46-28.6,6.36-43,1.43-10.85,3.89-21.52,5.22-32.37.25-2,.43-4,.65-6C968.61,491.53,973.3,518,966,538.65Zm-394.66-24c-3-12.65-2.08-27.15,5.56-38.1,4.81-6.88,11.82-10.67,19.61-12,.53,8.76,1.32,17.5,1.65,26.28.45,11.88.22,23.77.47,35.65a209.73,209.73,0,0,0,4,38.7C587.65,551.56,575.92,533.94,571.37,514.61Zm65.34,88.88c-12.33-19.82-18.85-41.86-20.17-65.1-.76-13.18-.45-26.38-.69-39.57s-1.57-26.54-2.13-39.83c20.78-15.79,39.07-34.72,55.29-55.11,6.32-7.95,12.37-16.13,18-24.55a274.38,274.38,0,0,0,25.15-45.82,7.13,7.13,0,0,0,1-2.17c1.81-4.39-2-9.54-6.09-10.73-2-.72-4-1.46-5.95-2.26l-1.18-.48-.41-.17-2.9-1.3q-5.79-2.65-11.33-5.79t-10.82-6.7c-1.75-1.19-3.48-2.41-5.19-3.68l-1.79-1.36-2.09-1.67c-3.53-2.87-8.92-3.71-12.33,0-2.93,3.19-3.78,9.26,0,12.33a167.78,167.78,0,0,0,40.18,24.16C683.48,355,670,375,655.37,393.18c-15.79,19.63-33.55,38.41-53.94,53.38a50,50,0,0,0-28.3,9.26c-7.66-34.36-10.34-71.65,3.56-104.42a92.86,92.86,0,0,1,41.78-46.18c1.9-1,3.83-1.93,5.79-2.82l.42-.19.55-.21c.85-.32,1.69-.65,2.55-.95a46.52,46.52,0,0,1,7.24-2,8.48,8.48,0,0,0,6.09-6.09c1.69-7.74,3.69-11.73,7-18.07a95.6,95.6,0,0,1,30.43-34.79c33.94-23.16,77.31-20.65,116-15.44,68,9.15,139.15,38,169.06,104.28,21,46.63,17.23,100.49,6,149.62a50.06,50.06,0,0,0-21.59-10.43c.15-1.66.31-3.32.46-5q.63-6.79,1.28-13.6c0-.45.09-.89.13-1.34,10.56,1.82,14.93-14.46,4.14-16.87C885.39,416,817.38,391.2,772,334.83c-6.25-7.75-16.59,1.15-14,9.3a9.21,9.21,0,0,0,1.63,3c43.49,54,107.62,80.7,173.28,97.05-1.38,11.94-2.23,24-3.43,35.92-1.91,19.1-5.75,39-8.43,59.26-3.26,24.68-9.07,47.88-22.85,68.91a141.92,141.92,0,0,1-50.61,46.24c-27,14.73-57.87,19.57-88.28,18.51C710.09,668.8,663.36,646.34,636.71,603.49Zm53.85,145c19.72,26,38.56,52.62,57.31,79.28q-21.43,9.88-42.83,19.86c-6-12.87-11.69-25.87-17-39-4.82-11.87-9.45-23.85-13.2-36.1-1.55-5-2.87-10.14-3.91-15.32-.09-.51-.17-1-.25-1.52v-.07c0-.32,0-.65-.07-1ZM230.78,350.13q50.64,61.1,103.49,120.33c39.39,44.25,79.58,87.81,121.14,130,36.31,36.88,73.55,73.23,113.83,105.8,15,12.18,30.56,24,47.18,34,11.26,6.76,23.69,13.44,36.79,15.68a78.34,78.34,0,0,0,1.48,8.86c5.8,26.85,17.95,52.83,29,77.83,3.1,7,6.25,14,9.53,20.89,2.15,4.53,8,5,11.93,3.13,4.26-2,8.53-4,12.8-5.93l3,8.45c1.77,5,4.87,10.76,5.64,16,.06.43.46.64.51,1.44.15,2.49-.59,5.38-.86,7.86l-3.81,34.75q-6.46,59.19-12.95,118.4l-13.83,126.42q-2.45,22.32-4.88,44.65c-.79,7.22-2.27,14.7-2.41,22-.09,4.77,2.86,7.33,5.89,10.42l20.85,21.29,37.4,38.18c3.43,3.49,8.85,3.11,12.33,0l38.58-34.53c6.55-5.86,13.3-11.56,19.67-17.6,2.74-2.59,4.53-5.24,4.32-9.15-.44-8.27-2.12-16.67-3.17-24.88l-6.45-50.7L785.35,918.94q-1.25-9.71-2.47-19.41c-.37-2.83-.17-6.9-1.19-9.65,2.36-3.06,3.47-9.21,4.81-12.72q3.06-8,6.11-15.94c6.75,4.21,13.52,8.39,20.26,12.61,4.1,2.57,9.47.76,11.93-3.13q15.83-24.91,30-50.87c6.7-12.28,13.14-24.76,18.3-37.77a91.13,91.13,0,0,0,4-11.53c38,5,76.54,9.42,113.41,19.81a194.06,194.06,0,0,1,78.18,43.33c14.4,13,27.57,27.2,40.33,41.76-15.13,11.59-28.62,24.94-39.08,40.6-25.28,37.91-18.08,90.17-10.16,132.29q1.56,8.27,3.34,16.5l-37.87-31.1q-2.72-2.23-5.44-4.46,3-46.34,6.12-92.66.24-3.44.46-6.87c.76-11.21-16.68-11.16-17.44,0q-4.41,65.29-8.64,130.63c-4.14,63.88-8.5,127.77-11.66,191.71-.43,8.59-1,17.22-.89,25.82.14,13,2.6,25.78,3,38.74.38,10.89-2.32,18.88-9.75,26l-145-.69-25.4-.12h0l-94.15-.46h0l-117-.56-51.21-.24c-4.54-4.25-7.94-9-9.11-15.49-1.37-7.59-.14-15.68.74-23.26,1.31-11.36,2.48-22.67,2.22-34.13-.35-15.78-1.16-31.56-1.91-47.32-2.45-52.12-5.31-104.22-8.19-156.32q-3.45-62.65-7.06-125.3a102.55,102.55,0,0,0-.67-10.67c0-.24,0-.48,0-.72a8.59,8.59,0,0,0-.39-2.3c-.13-1.58-.26-3.16-.37-4.74q-.63-8.49-1.2-17c-.71-10.27-1.26-20.57-2.22-30.83-.29-3.09-.54-5.58-2.78-8-4.53-4.93-12.92-2.21-14.6,3.88a12.22,12.22,0,0,0-.33,3.3,8.6,8.6,0,0,0,.39,2.31c.13,1.58.26,3.16.37,4.73q.63,8.5,1.2,17c.09,1.29.17,2.58.26,3.86l-46.71-59.08L374.59,735,277.86,612.67,184.35,494.35l-73.68-93.2c-1.36-1.72-2.7-3.47-4-5.21.16-.21.28-.35,1-1.24s1.27-1.5,1.91-2.24c1.66-1.89,3.37-3.72,5.12-5.53,3.72-3.83,7.6-7.52,11.55-11.11,9.28-8.45,19-16.43,28.86-24.17a542.69,542.69,0,0,1,48.58-34.49C212.63,328.22,221.71,339.19,230.78,350.13ZM174.23,279.3q9,12.22,18.49,24.15c-17.34,10.93-33.89,23.26-50,35.87-16.44,12.88-33.51,26.38-47,42.58-6.2-8.06-12.48-16.07-19-23.83a183,183,0,0,1,15.39-16.91,8.87,8.87,0,0,0,3.14-3.1c13.43-12.63,28.44-23.85,43-34.42Q155.86,290.9,174.23,279.3ZM25.85,179.11c10.44-16.37,34.85-25.41,52.53-15.37,9.31,5.28,16.28,15,23.72,22.5,7.93,8,17,16.68,28.34,19.36a8.83,8.83,0,0,0,11-8.41c.12-5.55,4.2-32.24,14.17-19.72,7.16,9,5.43,23.84,5.49,34.57.1,18.35-.1,36.7-.41,55-11.64,7.51-23,15.46-34.17,23.64-13.1,9.62-26.21,19.68-38.42,30.66C76.52,311.7,66.5,299.32,57,287.83,45.42,273.76,33.75,258.9,25.3,242.65,15.28,223.37,13.88,197.85,25.85,179.11Z"/><path class="cls-10" d="M109.34,272.33a8.93,8.93,0,0,0,6.09-10.73c-.24-1.16-.93-3.05-.76-4.23.16,1.2.19,1.47.11.8,0-.31-.07-.61-.11-.92-.06-.61-.12-1.22-.16-1.83a63.72,63.72,0,0,1-.11-8.29c.07-1.33.21-2.66.34-4V243c.12-.71.23-1.41.36-2.12a65.66,65.66,0,0,1,2.06-8,8.79,8.79,0,0,0-6.09-10.72,8.91,8.91,0,0,0-10.73,6.09,74,74,0,0,0-1.73,38C99.56,270.71,105.05,273.72,109.34,272.33Z"/><path class="cls-10" d="M1252.86,519a7,7,0,0,0-1.25-1.63,9.66,9.66,0,0,0-.87-.68.1.1,0,0,0,0,0,10,10,0,0,0-.86-.58,7.44,7.44,0,0,0-.78-.44c-.3-.14-.6-.24-.91-.35-.13,0-.24-.11-.38-.15a.9.9,0,0,0-.16,0,6.72,6.72,0,0,0-1.32-.21l-.33,0a4.21,4.21,0,0,0-.51,0c-.21,0-.44.05-.65.07a8.39,8.39,0,0,0-.86.1l-.49.11a7.8,7.8,0,0,0-1.08.29,6.34,6.34,0,0,0-3.08,2l-.35.45a7.22,7.22,0,0,0-.77,1l-1.74,2.21-.28.36a12.72,12.72,0,0,0-2.63,5.41,43.15,43.15,0,0,0-.94,6.87,38.37,38.37,0,0,0,6,22.55,8.72,8.72,0,0,0,15.06,0c7.25-10.72,7.13-26.63-.65-37.06A1.34,1.34,0,0,0,1252.86,519Z"/><path class="cls-10" d="M1382.57,557.71a9,9,0,0,0,7.54-4.32c7.25-10.72,7.13-26.63-.65-37.07l-.11-.13a7,7,0,0,0-1.25-1.63c-.27-.25-.57-.46-.87-.69l0,0c-.28-.21-.56-.4-.86-.59s-.51-.3-.78-.43a7.75,7.75,0,0,0-.91-.35,2.5,2.5,0,0,0-.38-.15.86.86,0,0,0-.17,0,7.32,7.32,0,0,0-1.31-.22l-.33,0a4.21,4.21,0,0,0-.51,0c-.21,0-.44,0-.65.07a8.08,8.08,0,0,0-.86.1l-.5.11a8.06,8.06,0,0,0-1.07.29,6.34,6.34,0,0,0-3.08,2l-.36.45a8.76,8.76,0,0,0-.76,1l-1.74,2.22-.28.36A12.83,12.83,0,0,0,1370,524a43.15,43.15,0,0,0-.94,6.87,38.3,38.3,0,0,0,6,22.55A8.88,8.88,0,0,0,1382.57,557.71Z"/><path class="cls-10" d="M1315.11,600c11.22,0,11.24-17.44,0-17.44S1303.87,600,1315.11,600Z"/><path class="cls-10" d="M1273.14,647.78c12.62,12.76,31.25,18.75,49,16.7,18.89-2.18,35.73-11.81,48.92-25.28,7.85-8-4.47-20.37-12.34-12.33-9.85,10.06-22.39,18.14-36.58,20.17-13.21,1.9-27.2-2-36.65-11.59C1277.58,627.45,1265.25,639.78,1273.14,647.78Z"/><path class="cls-10" d="M1225.51,392.75a76.79,76.79,0,0,0,45,40.06c4.33,1.44,9.72-1.67,10.73-6.1a8.92,8.92,0,0,0-6.09-10.72c-1.17-.39-2.33-.8-3.47-1.25-.27-.11-1.88-.85-.66-.26s-.68-.32-.93-.44a64.12,64.12,0,0,1-6-3.17c-2-1.19-3.91-2.51-5.79-3.89-.39-.33-.8-.64-1.19-1-.94-.79-1.86-1.61-2.76-2.45a67.18,67.18,0,0,1-4.7-4.85c-.7-.8-1.36-1.63-2-2.45-.08-.11-.17-.22-.25-.34l-.9-1.25a66,66,0,0,1-3.58-5.72c-.6-1.07-1.16-2.16-1.7-3.27-.27-.55-.51-1.11-.78-1.67l-.07-.14a.06.06,0,0,1,0,0A11.64,11.64,0,0,0,1238,380a7.63,7.63,0,0,0-1.65-1.33,8.91,8.91,0,0,0-6.72-.88c-4.06,1.32-7.94,6.21-6.09,10.73C1224.1,389.94,1224.83,391.33,1225.51,392.75Z"/></g></g></svg>