<?xml version="1.0" encoding="UTF-8"?>
<svg id="Layer_2" data-name="Layer 2" xmlns="http://www.w3.org/2000/svg" viewBox="0 0 327.68 145.25">
  <defs>
    <style>
      .cls-1 {
        fill: #fff;
      }

      .cls-2 {
        fill: #204f8b;
      }
    </style>
  </defs>
  <g id="_·_ÀÌ_î_1" data-name="·¹ÀÌ¾î 1">
    <g>
      <path class="cls-2" d="M327.66,12.91s.53-6.85-3.79-10.39c-3.24-2.65-7.64-3.25-13.38-1.62l-140.85,38.26c-.68.24-3.12.65-5.78.68-2.67-.03-5.12-.44-5.79-.68L17.2.9C11.44-.73,7.05-.12,3.81,2.52-.51,6.06.03,12.95.02,12.91v125.45c0,2.08-.23,4.1,1.2,5.62,1.32,1.25,3.2,1.27,5.69,1.27h313.89c2.49,0,4.36-.02,5.68-1.27,1.44-1.52,1.2-3.54,1.2-5.62V12.91Z"/>
      <polygon class="cls-1" points="106.82 58.14 116.23 58.14 116.23 46.55 95.62 46.55 72.4 88.67 49.18 46.55 28.47 46.55 28.47 58.14 37.9 58.14 35.49 110.61 26.5 110.61 26.5 122.23 57.34 122.23 57.34 110.61 48.24 110.61 49.75 71.61 71.36 109.57 73.08 109.57 94.72 71.61 96.21 110.61 87.13 110.61 87.13 122.23 118.2 122.23 118.2 110.61 109.24 110.61 106.82 58.14"/>
      <g>
        <path class="cls-1" d="M170.56,90.39c0-5.06-1.28-9.43-3.9-12.66-3.59-4.38-9.49-6.8-18.09-6.8-13.67,0-20.01,6.59-20.01,12.79,0,4.13,2.87,6.77,6.65,6.77s6.82-2.74,6.82-6.55c0-.69-.25-1.86-.47-2.49,1.16-.49,2.73-.86,4.93-.86,4.5,0,7.83,1.05,9.9,3.67,1.27,1.63,1.95,3.93,1.95,6.92v4.04c-2.79-.71-7.57-1.37-12.76-1.37-11.96,0-20.22,5.73-20.22,15.14s7.67,14.16,16.3,14.16c6.79,0,12.89-3.03,16.9-6.44v5.5h19.47v-10.37h-7.46v-21.46ZM158.34,109.57c-3.79,2.75-8.16,4.49-12.66,4.49s-7.46-2.2-7.46-6.21c0-4.58,3.69-7.33,9.78-7.33,3.89,0,7.48.47,10.34,1.14v7.92Z"/>
        <path class="cls-1" d="M208.5,70.93c-15.51,0-25.51,11.99-25.51,26.22,0,15.63,11.37,26.01,27.83,26.01,7.34,0,13.78-1.5,19.09-4.62l1.01-11.25c-5.86,3.31-12.19,5.26-18.27,5.26-8.41,0-14.83-3.42-16.57-11.25h36.35c.31-1.71.55-4.26.55-6.18,0-13.38-8.4-24.2-24.49-24.2M195.97,92.58c1.38-8.31,6.9-11.52,12.42-11.52,7.37,0,11.85,4.61,12.08,11.52h-24.5Z"/>
        <path class="cls-1" d="M252.9,64.14c4.48,0,8.51-3.69,8.51-8.28s-3.81-8.28-8.28-8.28-8.52,3.67-8.52,8.28,3.8,8.28,8.29,8.28"/>
      </g>
      <polygon class="cls-1" points="260.5 71.85 240.26 71.85 240.26 82.44 247.97 82.44 247.97 111.86 240.26 111.86 240.26 122.23 267.95 122.23 267.95 111.86 260.5 111.86 260.5 71.85"/>
      <polygon class="cls-1" points="295 40.92 274.64 40.92 274.64 51.51 282.47 51.51 282.47 111.86 274.64 111.86 274.64 122.23 302.49 122.23 302.49 111.86 295 111.86 295 40.92"/>
    </g>
  </g>
</svg>