<?xml version="1.0" encoding="utf-8"?>
<!-- Generator: Adobe Illustrator 22.0.1, SVG Export Plug-In . SVG Version: 6.00 Build 0)  -->
<svg version="1.1" id="Layer_1" xmlns="http://www.w3.org/2000/svg" xmlns:xlink="http://www.w3.org/1999/xlink" x="0px" y="0px"
	 viewBox="0 0 1431.8 1038.6" style="enable-background:new 0 0 1431.8 1038.6;" xml:space="preserve">
<style type="text/css">
	.st0{fill:#FFFFFF;}
</style>
<title>Asset 6</title>
<g id="Layer_2_1_">
	<g id="Layer_1-2">
		<g>
			<path class="st0" d="M1413.2,575.8c-100.2,0-159.3,44.5-216.4,87.6c-56.1,42.3-109.2,82.3-201.8,82.3c-10.3,0-18.6,8.3-18.6,18.6
				c0,10.3,8.3,18.6,18.6,18.6c105.1,0,165.6-45.6,224.2-89.8c54.7-41.2,106.3-80.1,194-80.1c10.3,0,18.6-8.4,18.6-18.6
				C1431.8,584.1,1423.4,575.8,1413.2,575.8 M1413.2,502.7c-100.2,0-159.3,44.5-216.4,87.6c-56.1,42.3-109.2,82.3-201.8,82.3
				c-10.3,0-18.6,8.4-18.6,18.7c0,10.3,8.3,18.6,18.6,18.6c105.1,0,165.6-45.6,224.2-89.8c54.7-41.2,106.3-80.1,194-80.1
				c10.3,0,18.6-8.4,18.6-18.7C1431.8,511,1423.4,502.7,1413.2,502.7"/>
			<path class="st0" d="M577.3,817.2H318.7l297.3-346.4c40.9-46.7,64.3-105.9,64.3-162.5C680.2,134.3,539.8,3,353.6,3
				C167.4,3,26.9,134.3,26.9,308.4c0.1,63.1,51.2,114.2,114.2,114.2c60.3,0,109.4-47,114.2-109.4c4.1-55.6,45.4-95.9,98.2-95.9
				c55.1,0,98.2,43.1,98.2,98.2c0,24.7-7.7,45.7-23.6,64.2L27.5,849.7C9.2,870.6,0,894.3,0,920.2c0,58.5,45.8,104.3,104.3,104.3h473
				c56.8,0,102.9-46.8,102.9-104.3C680.2,863.3,634.1,817.3,577.3,817.2"/>
			<path class="st0" d="M1315.2,691.6c-1-7.7-5.6-11.4-14.6-7.3c-24.4,13.4-47.3,30.4-69.3,47c-58.3,44-124.4,93.8-236.2,93.8
				c-3.2-0.1-6.4-0.4-9.5-1.1c-52.9-2.7-92.8-44.8-92.8-97.9c0-55,43.1-98.1,98.9-98.1h0.1l3.4-0.3c85.8,0,133.9-36.2,189.7-78.2
				c12.6-9.5,39.4-28.8,39.4-28.8c3.6-2.5,4.6-7.4,2.1-11.1c-0.3-0.5-0.7-0.9-1-1.2c-1.8-1.8-3.7-3.6-5.5-5.3
				c-31.6-29.6-70.1-53.2-112.2-68.9c-8.2-3-16.5-6-25.4-8.5l170.8-240.8c16.3-25.8,26-45.1,26-71.8c0-58.6-52-110-111.4-110
				c-32.5,0.2-63.3,14.7-84,39.7L743.9,521.3c-48.4,71.3-79.8,128.9-79.8,204.9c0,172.3,146.5,312.5,326.6,312.5
				c180.1,0,326.6-140.2,326.6-312.5C1317.4,714.6,1316.6,703.1,1315.2,691.6"/>
		</g>
	</g>
</g>
</svg>
