<svg xmlns="http://www.w3.org/2000/svg" xmlns:xlink="http://www.w3.org/1999/xlink" width="1082.5323" height="325.5803" viewBox="0 0 1082.5323 325.5803">
  <defs>
    <style>
      .cls-1 {
        opacity: 0.5;
        fill: url(#Ñóïåðìÿãêàÿ_åðíàÿ_âèíüåòêà);
      }

      .cls-2 {
        fill: #fff;
      }
    </style>
    <radialGradient id="Ñóïåðìÿãêàÿ_åðíàÿ_âèíüåòêà" data-name="Ñóïåðìÿãêàÿ ÷åðíàÿ âèíüåòêà" cx="541.26615" cy="162.79015" r="399.66841" gradientUnits="userSpaceOnUse">
      <stop offset="0.57444" stop-color="#161412"/>
      <stop offset="0.79771" stop-color="#161412"/>
      <stop offset="1" stop-color="#161412"/>
    </radialGradient>
  </defs>
  <title>Asset 3</title>
  <g id="Layer_2" data-name="Layer 2">
    <g id="Ñëîé_1" data-name="Ñëîé 1">
      <g>
        <path class="cls-1" d="M32.5,0H1050.0323a32.5,32.5,0,0,1,32.5,32.5V293.0803a32.5,32.5,0,0,1-32.5,32.5H32.4999A32.4999,32.4999,0,0,1,0,293.0804V32.5A32.5,32.5,0,0,1,32.5,0Z"/>
        <path class="cls-2" d="M306.1091,168.03239c-5.208-26.4742,17.8104-40.6085,19.4913-41.6014a43.32152,43.32152,0,0,0-11.7661-10.8456c-13.7634-8.5772-30.5189-9.3751-40.4924-4.9868q-.14955.06585-.2979.1306a38.16057,38.16057,0,0,1-30.5215-.0001q-.14835-.06465-.2979-.1305c-9.9735-4.3883-26.729-3.5904-40.4925,4.9868s-27.1279,27.9258-20.3459,65.0273,31.5163,59.6416,31.5163,59.6416a26.7947,26.7947,0,0,0,27.3274,3.3909c9.7242-4.2387,14.1499-4.9712,16.1018-4.9243q1.4517.03465,2.9032,0c1.9518-.0469,6.3775.6856,16.1017,4.9243a26.79492,26.79492,0,0,0,27.3275-3.3909s17.3304-15.7977,26.9554-42.7071C321.3475,193.72909,309.5181,185.36149,306.1091,168.03239Z"/>
        <path class="cls-2" d="M253.4078,109.19669s-4.3593-36.9733,37.2962-43.5929l-.1676,4.9602a40.09415,40.09415,0,0,1-37.1286,38.6327Z"/>
        <g>
          <path class="cls-2" d="M539.29561,153.88417a29.7858,29.7858,0,0,0-4.19675-10.07586,21.46625,21.46625,0,0,0-7.67008-6.98592,23.43309,23.43309,0,0,0-11.29949-2.56417,23.73505,23.73505,0,0,0-5.74841.67856,22.0899,22.0899,0,0,0-5.309,2.10807,32.73764,32.73764,0,0,0-5.03108,3.47358q-.99283.82166-2.03569,1.77429v-8.0345H487.579V219.1306h11.04918V192.41291q.74651.65913,1.46565,1.2376a29.14921,29.14921,0,0,0,4.46349,2.99792,19.92185,19.92185,0,0,0,4.71109,1.81881,21.68408,21.68408,0,0,0,5.11158.5841,25.45786,25.45786,0,0,0,11.2272-2.40291,22.97847,22.97847,0,0,0,8.30149-6.808,30.48029,30.48029,0,0,0,4.992-10.49294,51.37079,51.37079,0,0,0,1.65747-13.53809A54.26576,54.26576,0,0,0,539.29561,153.88417Zm-11.0298,21.33066a24.849,24.849,0,0,1-2.64467,7.16683,14.48878,14.48878,0,0,1-4.47483,4.89741,11.03926,11.03926,0,0,1-6.39083,1.78267,13.40815,13.40815,0,0,1-7.92318-2.70038,45.53241,45.53241,0,0,1-8.20414-7.89262v-23.333a49.95915,49.95915,0,0,1,4.55246-4.96987,31.24754,31.24754,0,0,1,4.42472-3.51523,15.31394,15.31394,0,0,1,3.93518-1.84937,14.02407,14.02407,0,0,1,3.90191-.55354,11.09368,11.09368,0,0,1,6.43814,1.73815,13.20979,13.20979,0,0,1,4.17432,4.84746,24.93384,24.93384,0,0,1,2.35271,7.31412,52.8454,52.8454,0,0,1,.726,8.84944A39.723,39.723,0,0,1,528.26581,175.21483Z"/>
          <path class="cls-2" d="M605.78523,153.88417a29.85065,29.85065,0,0,0-4.19947-10.07586,21.4365,21.4365,0,0,0-7.66745-6.98592,23.433,23.433,0,0,0-11.29941-2.56417,23.75982,23.75982,0,0,0-5.75128.67856,22.137,22.137,0,0,0-5.309,2.10807,32.849,32.849,0,0,0-5.02819,3.47358q-.99284.82166-2.03857,1.77429v-8.0345H554.06572V219.1306h11.05189V192.41291c.49783.43942.98449.85387,1.46294,1.2376a29.30626,29.30626,0,0,0,4.46637,2.99792,19.85469,19.85469,0,0,0,4.7083,1.81881,21.70736,21.70736,0,0,0,5.11437.5841,25.46678,25.46678,0,0,0,11.2272-2.40291,23.00188,23.00188,0,0,0,8.30149-6.808,30.47863,30.47863,0,0,0,4.99188-10.49294,51.48052,51.48052,0,0,0,1.65764-13.53809A54.4173,54.4173,0,0,0,605.78523,153.88417Zm-11.03259,21.33066a24.85171,24.85171,0,0,1-2.64476,7.16683,14.45187,14.45187,0,0,1-4.47195,4.89741,11.03992,11.03992,0,0,1-6.39092,1.78267,13.40893,13.40893,0,0,1-7.92326-2.70038,45.44937,45.44937,0,0,1-8.20414-7.89262v-23.333a49.29115,49.29115,0,0,1,4.55262-4.96987,30.92592,30.92592,0,0,1,4.42472-3.51523,15.27019,15.27019,0,0,1,3.93518-1.84937,13.99443,13.99443,0,0,1,3.90174-.55354,11.08434,11.08434,0,0,1,6.43544,1.73815,13.15945,13.15945,0,0,1,4.17441,4.84746,24.938,24.938,0,0,1,2.3555,7.31412,52.8584,52.8584,0,0,1,.72309,8.84944A39.72354,39.72354,0,0,1,594.75264,175.21483Z"/>
          <path class="cls-2" d="M794.77222,142.9265a23.3309,23.3309,0,0,0-8.96507-6.46786,31.999,31.999,0,0,0-12.28475-2.20034,31.46791,31.46791,0,0,0-12.85885,2.46868,25.50739,25.50739,0,0,0-9.30655,6.96028,29.55039,29.55039,0,0,0-5.52925,10.47762,44.82218,44.82218,0,0,0-1.7957,12.958,45.98539,45.98539,0,0,0,1.73111,13.07615,27.46368,27.46368,0,0,0,5.35842,10.12691,23.89759,23.89759,0,0,0,8.98217,6.4891,31.60042,31.60042,0,0,0,12.29372,2.23513,30.963,30.963,0,0,0,12.80485-2.50347,25.65738,25.65738,0,0,0,9.30241-7.02436,30.28009,30.28009,0,0,0,5.55345-10.495,44.11508,44.11508,0,0,0,1.8294-12.9667,44.97574,44.97574,0,0,0-1.76506-13.02265A28.08791,28.08791,0,0,0,794.77222,142.9265ZM790.39889,166.748A36.4447,36.4447,0,0,1,789.331,175.796a20.07149,20.07149,0,0,1-3.17382,6.94047,14.53791,14.53791,0,0,1-5.37121,4.44783,20.62257,20.62257,0,0,1-16.296-.10294,13.85841,13.85841,0,0,1-5.20638-4.645,20.58177,20.58177,0,0,1-2.86494-7.09741,42.90288,42.90288,0,0,1-.89764-8.90344,36.17814,36.17814,0,0,1,1.06762-8.98556,20.41769,20.41769,0,0,1,3.179-6.97839,14.41728,14.41728,0,0,1,5.36629-4.47229,17.94928,17.94928,0,0,1,7.951-1.62674,17.67362,17.67362,0,0,1,8.3345,1.75524,14.019,14.019,0,0,1,5.21257,4.70661,20.911,20.911,0,0,1,2.86968,7.10664A42.14928,42.14928,0,0,1,790.39889,166.748Z"/>
        </g>
        <path class="cls-2" d="M449.46453,116.07006H436.324l-27.385,82.85506H420.1494l6.09607-23.74635h32.936l6.31582,23.74635h11.34953ZM429.7579,165.18917,442.50908,128.824l13.06261,36.36522Z"/>
        <path class="cls-2" d="M693.61117,165.32486a22.21836,22.21836,0,0,0-4.69331-6.59551,31.33746,31.33746,0,0,0-6.46515-4.77559c-2.29684-1.28543-4.66919-2.50382-7.05153-3.62113-2.33265-1.0942-4.65853-2.20474-6.91355-3.30114a33.73373,33.73373,0,0,1-5.78235-3.52632,15.47436,15.47436,0,0,1-3.86526-4.25033,10.494,10.494,0,0,1-1.36415-5.501,11.49983,11.49983,0,0,1,.78158-4.21478,9.17945,9.17945,0,0,1,2.27864-3.37826,11.24536,11.24536,0,0,1,3.93611-2.331,17.1199,17.1199,0,0,1,5.8185-.89112,20.98765,20.98765,0,0,1,6.15313.82569,27.73989,27.73989,0,0,1,4.74893,1.90109c1.36449.72267,2.50762,1.37965,3.39705,1.953l4.57-9.546a12.31293,12.31293,0,0,0-2.87475-1.88459,30.0736,30.0736,0,0,0-4.45621-1.86469,40.41519,40.41519,0,0,0-5.20114-1.34173,29.61335,29.61335,0,0,0-5.52468-.53169,32.57042,32.57042,0,0,0-9.95743,1.46108,23.177,23.177,0,0,0-7.95789,4.30985,19.67346,19.67346,0,0,0-5.227,6.94368,22.00354,22.00354,0,0,0-1.84869,9.152,21.45957,21.45957,0,0,0,1.79274,9.07215,22.37608,22.37608,0,0,0,4.65725,6.6248,31.8,31.8,0,0,0,6.39286,4.80472c2.2822,1.31015,4.64989,2.54233,7.03739,3.66209,2.331,1.09336,4.64448,2.20314,6.87639,3.29785a34.35948,34.35948,0,0,1,5.72851,3.50024,15.27047,15.27047,0,0,1,3.83166,4.21723,10.49493,10.49493,0,0,1,1.3639,5.501,13.8656,13.8656,0,0,1-1.12172,5.72513,11.49989,11.49989,0,0,1-3.10585,4.13732,14.50731,14.50731,0,0,1-4.89428,2.63384,20.93293,20.93293,0,0,1-6.44238.94327,26.18913,26.18913,0,0,1-7.6826-1.01251,37.60235,37.60235,0,0,1-5.77973-2.26044,35.27605,35.27605,0,0,1-3.91791-2.25249l-2.28,11.44171a34.772,34.772,0,0,0,4.78245,2.14743,44.656,44.656,0,0,0,6.38448,1.79359,37.6508,37.6508,0,0,0,7.681.75687,35.786,35.786,0,0,0,11.05612-1.65045,26.17938,26.17938,0,0,0,8.92215-4.87116,22.36666,22.36666,0,0,0,5.91221-7.84615,24.84409,24.84409,0,0,0,2.09994-10.37333A21.08041,21.08041,0,0,0,693.61117,165.32486Z"/>
        <path class="cls-2" d="M731.73341,188.06548a15.97918,15.97918,0,0,1-1.93368.61482,9.21682,9.21682,0,0,1-2.26942.25556c-3.40763,0-4.5605-1.38862-5.13113-2.43338-1.07625-1.97009-1.62192-4.97927-1.62192-8.944V145.18474h13.44541V135.258H720.77726V123.19312l-11.05172,4.87108V135.258h-5.99677v9.92679h5.99677v33.37348a37.48385,37.48385,0,0,0,.89383,8.67234,16.04568,16.04568,0,0,0,3.07919,6.5046,13.18655,13.18655,0,0,0,5.56158,3.94559,21.84214,21.84214,0,0,0,7.77048,1.24437,23.595,23.595,0,0,0,2.77588-.16888,24.2195,24.2195,0,0,0,2.70232-.47337,13.61824,13.61824,0,0,0,2.41628-.79682l-1.7047-10.06155C732.8227,187.61412,732.32225,187.82972,731.73341,188.06548Z"/>
        <path class="cls-2" d="M840.03115,134.26372c-.15864-.00271-.31152-.0055-.459-.0055a17.10246,17.10246,0,0,0-4.08543.48953,13.86859,13.86859,0,0,0-4.21055,1.89661,24.11117,24.11117,0,0,0-4.26609,3.67937q-.66751.70917-1.37668,1.56012v-7.62563H814.95705v64.6669h11.05189V157.20478c1.4433-2.29438,2.781-4.269,3.9797-5.868a27.57754,27.57754,0,0,1,3.50972-3.95752,11.68739,11.68739,0,0,1,2.93122-2.00514,6.2501,6.2501,0,0,1,2.58076-.56462c.256,0,.523.01117.84279.03344l1.93826.14187V134.311Z"/>
        <path class="cls-2" d="M895.35358,185.00534c-.2504.10158-.51578.217-.80351.35155-.92879.43485-2.14362.93023-3.6102,1.47285a39.71713,39.71713,0,0,1-5.16669,1.46082,31.34727,31.34727,0,0,1-6.673.6453,22.26939,22.26939,0,0,1-8.66438-1.47987,13.60434,13.60434,0,0,1-5.47228-4.10745,17.12842,17.12842,0,0,1-3.07191-6.59145,36.77709,36.77709,0,0,1-.94707-7.26417h36.71491a5.77963,5.77963,0,0,0,3.359-1.17758,5.2342,5.2342,0,0,0,1.94808-4.567v-1.49976a38.54278,38.54278,0,0,0-1.41173-10.49032,24.99525,24.99525,0,0,0-4.58335-8.98657,22.63118,22.63118,0,0,0-8.03839-6.21585,27.19694,27.19694,0,0,0-11.64487-2.2976,28.81018,28.81018,0,0,0-11.49665,2.24164,24.66,24.66,0,0,0-8.92892,6.53745,29.40922,29.40922,0,0,0-5.63363,10.28038,43.65579,43.65579,0,0,0-1.93148,13.43025,46.18693,46.18693,0,0,0,1.86359,13.72526,27.39983,27.39983,0,0,0,5.59553,10.19437,23.6915,23.6915,0,0,0,9.19084,6.291,33.84267,33.84267,0,0,0,12.27789,2.09148,44.15063,44.15063,0,0,0,7.78782-.65342,59.06081,59.06081,0,0,0,6.28781-1.45245c1.1593-.34487,2.16986-.68661,3.05252-1.03232Zm-33.16481-30.07606a17.02236,17.02236,0,0,1,3.07622-5.5113,14.4755,14.4755,0,0,1,11.52323-5.1705c4.98883,0,8.64712,1.44779,11.184,4.42607,2.28431,2.68167,3.51971,6.40353,3.68216,11.07991H861.076A24.26542,24.26542,0,0,1,862.18877,154.92928Z"/>
      </g>
    </g>
  </g>
</svg>
