<svg xmlns="http://www.w3.org/2000/svg" xmlns:xlink="http://www.w3.org/1999/xlink" width="1082.53231" height="325.5803" viewBox="0 0 1082.53231 325.5803">
  <defs>
    <style>
      .cls-1 {
        opacity: 0.5;
        fill: url(#Ñóïåðìÿãêàÿ_åðíàÿ_âèíüåòêà);
      }

      .cls-2 {
        fill: #00f076;
      }

      .cls-3 {
        fill: #f73448;
      }

      .cls-4 {
        fill: #ffca00;
      }

      .cls-5 {
        fill: #00d2ff;
      }

      .cls-6 {
        fill: #fff;
      }
    </style>
    <radialGradient id="Ñóïåðìÿãêàÿ_åðíàÿ_âèíüåòêà" data-name="Ñóïåðìÿãêàÿ ÷åðíàÿ âèíüåòêà" cx="541.26615" cy="162.79015" r="399.66841" gradientUnits="userSpaceOnUse">
      <stop offset="0.57444" stop-color="#161412"/>
      <stop offset="0.79771" stop-color="#161412"/>
      <stop offset="1" stop-color="#161412"/>
    </radialGradient>
  </defs>
  <title>Asset 1</title>
  <g id="Layer_2" data-name="Layer 2">
    <g id="Ñëîé_1" data-name="Ñëîé 1">
      <g>
        <path class="cls-1" d="M32.50294,0H1050.02947a32.50284,32.50284,0,0,1,32.50284,32.50284V293.07736a32.50294,32.50294,0,0,1-32.50294,32.50294H32.50294A32.50294,32.50294,0,0,1,0,293.07736V32.50294A32.50294,32.50294,0,0,1,32.50294,0Z"/>
        <g>
          <g>
            <path class="cls-2" d="M277.6396,128.20229l-29.13869,28.9423-85.54321-87.093a14.40649,14.40649,0,0,1,14.8291-.1089Z"/>
            <path class="cls-3" d="M278.3544,196.96239l-100.5676,58.6729a14.48357,14.48357,0,0,1-17.4041-2.0733l88.1156-87.093Z"/>
            <path class="cls-4" d="M312.07669,175.34469l-28.83209,16.8212-.228.1343-29.8535-30.4934,29.1387-28.9423.2256.1318,29.54929,17.2395A14.53534,14.53534,0,0,1,312.07669,175.34469Z"/>
            <path class="cls-5" d="M155.7205,248.89979c-.0609-.0557-.1217-.1166-.1825-.1773a14.3266,14.3266,0,0,1-4.2732-10.3052V87.16049a14.38789,14.38789,0,0,1,6.8102-12.3123c.0735-.0457.147-.0913.2205-.1344l85.5432,87.093Z"/>
          </g>
          <g>
            <g>
              <path class="cls-6" d="M457.83789,147.192h-41.8302v11.5887h29.3306a30.40567,30.40567,0,1,1-8.758-30.3707l8.1994-8.1995a41.98245,41.98245,0,1,0,13.2127,30.5727C457.99239,149.57315,457.93829,148.376,457.83789,147.192Z"/>
              <path class="cls-6" d="M490.87939,138.511a27.02513,27.02513,0,1,0,26.8488,27.0245A26.937,26.937,0,0,0,490.87939,138.511Zm0,43.3162c-8.1156,0-14.6947-7.1025-14.6947-15.8639s6.5791-15.8638,14.6947-15.8638,14.6947,7.1025,14.6947,15.8638S498.99509,181.82715,490.87939,181.82715Z"/>
              <path class="cls-6" d="M550.61519,138.511a27.02513,27.02513,0,1,0,26.8487,27.0245A26.93709,26.93709,0,0,0,550.61519,138.511Zm0,43.3162c-8.1157,0-14.6947-7.1025-14.6947-15.8639s6.579-15.8638,14.6947-15.8638,14.6946,7.1025,14.6946,15.8638S558.73079,181.82715,550.61519,181.82715Z"/>
              <rect class="cls-6" x="639.25429" y="108.79845" width="11.5885" height="84.8318"/>
              <path class="cls-6" d="M698.48728,172.47115a15.82518,15.82518,0,0,1-26.7115,2.7602l39.3659-15.4169-.6088-2.0487c-.22487-.7578-.4806-1.5031-.7595-2.2152a27.38468,27.38468,0,1,0-.75237,21.7077l1.026-2.1667-10.58163-4.6258Zm-3.6374-18.7L668.523,164.08165a15.82644,15.82644,0,0,1,26.32687-10.3105Z"/>
              <path class="cls-6" d="M621.62729,138.511v4.7619a22.57915,22.57915,0,0,0-13.7941-4.7619c-13.4376,0-24.3309,12.0993-24.3309,27.0245s10.8933,27.0246,24.3309,27.0246a22.57915,22.57915,0,0,0,13.7941-4.7619v5.8321c0,3.3358-2.40428,12.6088-13.3377,12.6088-10.93358,0-14.0112-9.7741-14.0112-9.7741l-10.5047,4.8933s3.9504,15.4237,25.5572,15.4237c11.7036,0,17.7363-6.7927,20.8076-13.0195a30.71291,30.71291,0,0,0,3.07752-13.5967V138.511Zm-13.7941,43.3162c-7.3545,0-13.3167-7.1025-13.3167-15.8639s5.9622-15.8638,13.3167-15.8638c7.3547,0,13.31682,7.1025,13.31682,15.8638S615.18789,181.82715,607.83319,181.82715Z"/>
            </g>
            <g>
              <rect class="cls-6" x="751.29328" y="108.79845" width="11.5886" height="84.8318"/>
              <path class="cls-6" d="M779.10391,108.79835V120.387c8.1156,0,14.6946,7.1026,14.6946,15.8638,0,8.7615-6.579,15.8639-14.6946,15.8639v10.7329a27.02518,27.02518,0,0,0,0-54.0492Z"/>
              <rect class="cls-6" x="759.64028" y="108.79835" width="19.46362" height="11.5886"/>
              <rect class="cls-6" x="759.64028" y="152.11515" width="19.46362" height="10.7324"/>
            </g>
            <rect class="cls-6" x="811.98301" y="108.79845" width="11.5885" height="84.8318"/>
            <path class="cls-6" d="M861.44571,186.22115l1.422-1.5256v8.1133h9.7538v-35.0115a27.37535,27.37535,0,0,0-1.1646-8.4558,12.66216,12.66216,0,0,0-3.5993-5.6406,15.8584,15.8584,0,0,0-6.3853-3.275,40.48375,40.48375,0,0,0-15.7521-.5852,40.91354,40.91354,0,0,0-5.5046,1.3154,32.3078,32.3078,0,0,0-3.886,1.4957l.618,9.1765c.7133-.3584,1.5193-.7386,2.4089-1.1364a36.32375,36.32375,0,0,1,4.906-1.7393,23.60844,23.60844,0,0,1,6.3875-.7982,16.07924,16.07924,0,0,1,4.652.5843,7.16708,7.16708,0,0,1,3.2093,1.9246,7.5551,7.5551,0,0,1,1.7254,3.2215,16.458,16.458,0,0,1,.4941,4.2411v3.78h-5.5881a58.36538,58.36538,0,0,0-11.29.9702,24.12542,24.12542,0,0,0-7.9743,2.9337,12.84484,12.84484,0,0,0-4.6933,4.892,14.88447,14.88447,0,0,0-1.5753,7.0391,16.13741,16.13741,0,0,0,1.2442,6.57,12.80472,12.80472,0,0,0,3.4758,4.6629,15.3635,15.3635,0,0,0,5.3593,2.8583,23.27378,23.27378,0,0,0,6.9064.9767,19.26172,19.26172,0,0,0,8.2266-1.7306A21.502,21.502,0,0,0,861.44571,186.22115Zm-6.0684-3.1211a10.95992,10.95992,0,0,1-5.7684,1.5988,8.5884,8.5884,0,0,1-5.9471-1.9648,6.97618,6.97618,0,0,1-2.2162-5.4314,8.02679,8.02679,0,0,1,.7689-3.567,6.93379,6.93379,0,0,1,2.4459-2.7052,11.78161,11.78161,0,0,1,4.1228-1.5997,29.19221,29.19221,0,0,1,5.8664-.5108h6.0812v9.4607l-.2061.2329A23.06554,23.06554,0,0,1,855.37731,183.10005Z"/>
            <polygon class="cls-6" points="918.639 139.422 910.169 159.005 904.962 171.05 901.434 162.892 891.282 139.422 878.66 139.422 895.123 177.489 898.792 185.978 889.235 209.33 901.864 209.33 910.173 188.202 916.484 173.605 931.268 139.422 918.639 139.422"/>
          </g>
        </g>
      </g>
    </g>
  </g>
</svg>
