<?xml version="1.0" encoding="utf-8"?>
<!-- Generator: Adobe Illustrator 22.0.1, SVG Export Plug-In . SVG Version: 6.00 Build 0)  -->
<svg version="1.1" id="Layer_1" xmlns="http://www.w3.org/2000/svg" xmlns:xlink="http://www.w3.org/1999/xlink" x="0px" y="0px"
	 viewBox="0 0 1431.8 1546.2" style="enable-background:new 0 0 1431.8 1546.2;" xml:space="preserve">
<style type="text/css">
	.st0{fill:#FF6155;}
</style>
<title>Asset 6</title>
<g id="Layer_2_1_">
	<g id="Layer_1-2">
		<g>
			<path class="st0" d="M1413.2,1083.3c-100.2,0-159.3,44.5-216.4,87.6c-56.1,42.3-109.2,82.3-201.8,82.3
				c-10.3,0-18.6,8.3-18.6,18.6c0,10.3,8.3,18.6,18.6,18.6c105.1,0,165.6-45.6,224.2-89.8c54.7-41.2,106.3-80.1,194-80.1
				c10.3,0,18.6-8.4,18.6-18.6C1431.8,1091.7,1423.4,1083.3,1413.2,1083.3 M1413.2,1010.3c-100.2,0-159.3,44.5-216.4,87.6
				c-56.1,42.3-109.2,82.3-201.8,82.3c-10.3,0-18.6,8.4-18.6,18.7c0,10.3,8.3,18.6,18.6,18.6c105.1,0,165.6-45.6,224.2-89.8
				c54.7-41.2,106.3-80.1,194-80.1c10.3,0,18.6-8.4,18.6-18.7C1431.8,1018.6,1423.4,1010.3,1413.2,1010.3"/>
			<path class="st0" d="M296.3,160c-1.6,0.1-3.2,0.2-4.8,0.5h-90.9c-23.2,0-42,18.8-42,42c0,23.2,18.8,42,42,42c0,0,0,0,0.1,0h53.7
				v74.2c-6.5,2.2-13.2,3.8-20,4.9c-8.3,1.4-16.7,2-25.1,2c-40.4,0-63.5-10.1-84.3-30.3c-20.8-20.2-31.2-52.8-31.2-92.4
				c0-22.5,3-41.8,8.9-58c5.9-16.2,14.3-29.5,25.1-40c11.1-10.6,24.5-18.5,39.2-23.2c15.2-4.9,32.4-7.4,51.4-7.4
				c22.2,0,44.4,2.6,66,7.7c19.3,4.8,38.9-7,43.7-26.4c0.2-0.8,0.4-1.5,0.5-2.3c3.3-18.4-7.7-36.3-25.6-41.6
				C275.6,3.9,244.4,0,209.2,0c-33.2,0-62.7,4.9-88.6,14.6C94.7,24.3,72.8,38,54.8,55.7c-17.9,17.7-31.5,39.1-40.9,64
				c-9.3,24.9-14,52.7-14,83.1c0,28.6,4.6,57.3,14,80.7c8.9,22.8,22.7,43.4,40.3,60.3c17.5,16.8,38.9,29.8,64,39.1
				c25.1,9.3,46.2,14,78.3,14c26.6,0.1,53.1-2.5,79.2-7.8c2.3-0.5,4.6-1,6.9-1.5c33-7.3,55.7-37.2,55.7-71V202
				C338.3,178.8,319.5,160,296.3,160C296.3,160,296.3,160,296.3,160"/>
			<path class="st0" d="M614.8,313.7H469l-13.6,42.7c-7.4,23.4-32.5,36.4-55.9,28.9c-23.4-7.4-36.4-32.5-28.9-55.9
				c0.2-0.7,0.5-1.4,0.7-2L472.8,55c14.3-38.3,56.9-57.8,95.2-43.5c20.1,7.5,36,23.4,43.5,43.5L713,327.3
				c8.6,23.1-3.1,48.8-26.2,57.4c-23.1,8.6-48.8-3.1-57.4-26.2c-0.2-0.6-0.4-1.2-0.6-1.8L614.8,313.7z M493,239.5h97.7l-41.4-137
				c-1.2-4-5.4-6.2-9.4-5c-2.4,0.7-4.3,2.6-5,5L493,239.5z"/>
			<path class="st0" d="M1003.2,54.1L1003.2,54.1c0,20.5-16.6,37.1-37.1,37.1c0,0,0,0,0,0h-83.7v249.3c0,25.9-21,46.9-46.9,46.9
				c-25.9,0-46.9-21-46.9-46.9c0,0,0,0,0,0V91.3h-83.7c-20.5,0-37.1-16.6-37.1-37.1S684.4,17,704.9,17H966
				C986.5,17,1003.2,33.6,1003.2,54.1"/>
			<path class="st0" d="M1032.3,52c0-19.3,15.7-35,35-35c0,0,0,0,0,0h211.3c20.5,0,37.1,16.6,37.1,37.1v0
				c0,20.5-16.6,37.1-37.1,37.1h-146.7c-3.2,0-5.9,2.6-5.9,5.9c0,0,0,0,0,0v62c0,3.2,2.6,5.9,5.9,5.9c0,0,0,0,0,0h139.9
				c20.5,0,37.1,16.6,37.1,37.1s-16.6,37.1-37.1,37.1h-139.9c-3.2,0-5.9,2.6-5.9,5.9c0,0,0,0,0,0v62c0,3.2,2.6,5.9,5.9,5.9
				c0,0,0,0,0,0h148.4c20.5,0,37.1,16.6,37.1,37.1s-16.6,37.1-37.1,37.1h-213.1c-19.3,0-35-15.7-35-35c0,0,0,0,0,0L1032.3,52z"/>
			<path class="st0" d="M577.3,1324.8H318.7l297.3-346.4c40.9-46.7,64.3-105.9,64.3-162.5c0-174.1-140.4-305.4-326.6-305.4
				C167.4,510.6,26.9,641.9,26.9,816C27,879,78.1,930.1,141.2,930.2c60.3,0,109.4-47,114.2-109.4c4.1-55.6,45.4-95.9,98.2-95.9
				c55.1,0,98.2,43.1,98.2,98.2c0,24.7-7.7,45.7-23.6,64.2L27.5,1357.3C9.2,1378.1,0,1401.8,0,1427.7c0,58.5,45.8,104.3,104.3,104.3
				h473c56.8,0,102.9-46.8,102.9-104.3C680.2,1370.9,634.1,1324.9,577.3,1324.8"/>
			<path class="st0" d="M1315.2,1199.2c-1-7.7-5.6-11.4-14.6-7.3c-24.4,13.4-47.3,30.4-69.3,47c-58.3,44-124.4,93.8-236.2,93.8
				c-3.2-0.1-6.4-0.4-9.5-1.1c-52.9-2.7-92.8-44.8-92.8-97.9c0-55,43.1-98.1,98.9-98.1h0.1l3.4-0.3c85.8,0,133.9-36.2,189.7-78.2
				c12.6-9.5,39.4-28.8,39.4-28.8c3.6-2.5,4.6-7.4,2.1-11.1c-0.3-0.5-0.7-0.9-1-1.2c-1.8-1.8-3.7-3.6-5.5-5.3
				c-31.6-29.6-70.1-53.2-112.2-68.9c-8.2-3-16.5-6-25.4-8.5l170.8-240.8c16.3-25.8,26-45.1,26-71.8c0-58.6-52-110-111.4-110
				c-32.5,0.2-63.3,14.7-84,39.7l-339.5,478.6c-48.4,71.3-79.8,128.9-79.8,204.9c0,172.3,146.5,312.5,326.6,312.5
				c180.1,0,326.6-140.2,326.6-312.5C1317.4,1222.2,1316.6,1210.6,1315.2,1199.2"/>
		</g>
	</g>
</g>
</svg>
