<?xml version="1.0" encoding="utf-8"?>
<!-- Generator: Adobe Illustrator 22.0.1, SVG Export Plug-In . SVG Version: 6.00 Build 0)  -->
<svg version="1.1" id="Layer_1" xmlns="http://www.w3.org/2000/svg" xmlns:xlink="http://www.w3.org/1999/xlink" x="0px" y="0px"
	 viewBox="0 0 711.6 146" style="enable-background:new 0 0 711.6 146;" xml:space="preserve">
<style type="text/css">
	.st0{fill:#FF6155;}
</style>
<title>logo</title>
<g id="Layer_2_1_">
	<g id="Layer_1-2">
		<g>
			<path class="st0" d="M709.1,81.6c-13.2,0-20.9,5.9-28.5,11.5c-7.4,5.6-14.4,10.8-26.5,10.8c-1.4,0-2.4,1.1-2.4,2.5
				c0,1.4,1.1,2.4,2.4,2.4c13.8,0,21.8-6,29.5-11.8c7.2-5.4,14-10.5,25.5-10.5c1.4,0,2.5-1.1,2.5-2.4
				C711.6,82.7,710.5,81.6,709.1,81.6C709.1,81.6,709.1,81.6,709.1,81.6 M709.1,72c-13.2,0-20.9,5.9-28.5,11.5
				c-7.4,5.6-14.4,10.8-26.5,10.8c-1.4,0-2.5,1.1-2.4,2.5c0,1.4,1.1,2.4,2.4,2.4c13.8,0,21.8-6,29.5-11.8c7.2-5.4,14-10.5,25.5-10.5
				c1.4,0,2.5-1.1,2.5-2.4C711.6,73.1,710.5,72,709.1,72C709.1,72,709.1,72,709.1,72"/>
			<path class="st0" d="M587.1,114.8h-34.5l39.6-46.2c5.3-6,8.4-13.7,8.6-21.7c0-23.2-18.7-40.7-43.6-40.7
				c-24.8,0-43.6,17.5-43.6,40.7c0,8.4,6.8,15.2,15.2,15.2c8.2,0,14.9-6.4,15.2-14.6c0.5-7.4,6.1-12.8,13.1-12.8
				c7.2-0.1,13,5.7,13.1,12.8c0,0.1,0,0.2,0,0.3c0.1,3.1-1.1,6.2-3.1,8.6l-53.4,62.7c-2.3,2.6-3.7,5.9-3.7,9.4
				c-0.1,7.6,6,13.8,13.6,13.9c0.1,0,0.2,0,0.3,0h63.1c7.6-0.1,13.8-6.3,13.7-13.9C600.7,121,594.6,114.9,587.1,114.8"/>
			<path class="st0" d="M696.2,96.8c-0.1-1-0.7-1.5-1.9-1c-3.2,1.8-6.2,3.9-9.1,6.2c-7.7,5.8-16.4,12.3-31.1,12.3
				c-0.4,0-0.8-0.1-1.3-0.1c-7.1-0.4-12.6-6.5-12.2-13.6c0.4-6.9,6.1-12.3,13-12.2h0l0.4,0c11.3,0,17.6-4.8,25-10.3
				c1.7-1.3,5.2-3.8,5.2-3.8c0.5-0.3,0.6-1,0.3-1.5c0-0.1-0.1-0.1-0.1-0.2c-0.2-0.2-0.5-0.5-0.7-0.7c-4.3-4-9.3-7-14.8-9.1
				c-1.1-0.4-2.2-0.8-3.3-1.1l22.5-31.7c2.1-3.4,3.4-5.9,3.4-9.4c0-7.7-6.8-14.5-14.7-14.5c-4.3,0-8.3,1.9-11.1,5.2l-44.7,62.9
				c-6.4,9.4-10.5,17-10.5,26.9c0,22.7,19.3,41.1,43,41.1c23.7,0,43-18.4,43-41.1C696.5,99.8,696.4,98.3,696.2,96.8"/>
			<path class="st0" d="M108.9,58.8c-0.6,0-1.2,0.1-1.8,0.2H73.7c-8.5,0-15.4,6.9-15.4,15.4s6.9,15.4,15.4,15.4h19.7v27.3
				c-2.4,0.8-4.9,1.4-7.4,1.8c-3.1,0.5-6.1,0.7-9.2,0.7c-14.8,0-23.3-3.7-31-11.1c-7.6-7.4-11.5-19.4-11.5-34
				c0-8.3,1.1-15.4,3.3-21.3c1.9-5.5,5.1-10.6,9.2-14.7c4.1-3.9,9-6.8,14.4-8.5c6.1-1.9,12.5-2.8,18.9-2.7c8.2,0,16.3,0.9,24.2,2.8
				c7.1,1.8,14.3-2.6,16-9.7c0.1-0.3,0.1-0.6,0.2-0.9c1.2-6.8-2.8-13.4-9.4-15.3C101.3,1.4,89.8,0,76.9,0c-12.2,0-23,1.8-32.6,5.4
				c-9,3.3-17.3,8.4-24.2,15.1C13.5,27.1,8.4,35.2,5.1,44C1.6,53.8-0.1,64.2,0,74.6c0,10.5,1.7,21.1,5.1,29.7
				c3.3,8.4,8.3,15.9,14.8,22.2c6.8,6.4,14.8,11.3,23.5,14.4c9.2,3.6,18.9,5.3,28.8,5.1c9.8,0,19.5-0.9,29.1-2.9
				c0.9-0.2,1.7-0.4,2.5-0.5c12.1-2.8,20.6-13.7,20.5-26.1V74.3C124.4,65.7,117.4,58.8,108.9,58.8"/>
			<path class="st0" d="M226,115.3h-53.6l-5,15.7c-2.7,8.6-11.9,13.4-20.5,10.6c-8.6-2.7-13.4-11.9-10.6-20.5
				c0.1-0.3,0.2-0.5,0.3-0.8l37.3-100.2c5.2-14.1,20.9-21.3,35-16c7.4,2.8,13.2,8.6,16,16l37.3,100.1c3.2,8.5-1.2,17.9-9.6,21.1
				c-8.5,3.2-17.9-1.2-21.1-9.6c-0.1-0.2-0.2-0.4-0.2-0.6L226,115.3z M181.3,88h35.9L202,37.7c-0.4-1.5-2-2.3-3.4-1.8
				c-0.9,0.3-1.6,1-1.8,1.8L181.3,88z"/>
			<path class="st0" d="M368.8,19.9L368.8,19.9c0,7.5-6.1,13.7-13.7,13.7c0,0,0,0,0,0h-30.8v91.7c0,9.5-7.7,17.2-17.2,17.2
				c-9.5,0-17.2-7.7-17.2-17.2V33.6h-30.8c-7.5,0-13.7-6.1-13.7-13.6c0-7.5,6.1-13.7,13.6-13.7c0,0,0,0,0,0h96
				C362.7,6.2,368.8,12.4,368.8,19.9C368.8,19.9,368.8,19.9,368.8,19.9"/>
			<path class="st0" d="M379.5,19.1c0-7.1,5.8-12.9,12.9-12.9c0,0,0,0,0,0H470c7.5,0,13.7,6.1,13.7,13.6c0,7.5-6.1,13.7-13.6,13.7
				c0,0,0,0,0,0h-53.9c-1.2,0-2.2,1-2.2,2.2v22.8c0,1.2,1,2.2,2.2,2.2c0,0,0,0,0,0h51.4c7.5,0,13.7,6.1,13.7,13.7
				c0,7.5-6.1,13.7-13.7,13.7c0,0,0,0,0,0h-51.4c-1.2,0-2.2,1-2.2,2.2V113c0,1.2,1,2.2,2.2,2.2c0,0,0,0,0,0h54.6
				c7.5,0,13.6,6.1,13.6,13.7c0,7.5-6.1,13.6-13.6,13.6h-78.3c-7.1,0-12.9-5.8-12.9-12.9c0,0,0,0,0,0V19.1z"/>
		</g>
	</g>
</g>
</svg>
