<svg xmlns="http://www.w3.org/2000/svg" width="711.58475" height="145.95727" viewBox="0 0 711.58475 145.95727">
  <defs>
    <style>
      .cls-1 {
        fill: #fff;
      }
    </style>
  </defs>
  <title>logo-w</title>
  <g id="Layer_2" data-name="Layer 2">
    <g id="Layer_1-2" data-name="Layer 1">
      <g>
        <path class="cls-1" d="M709.13287,81.57009c-13.17534,0-20.9464,5.85845-28.46373,11.52173-7.38251,5.56569-14.35515,10.82092-26.53336,10.82092a2.45108,2.45108,0,0,0,0,4.90215c13.81933,0,21.78379-6.00218,29.48565-11.80738,7.18738-5.41668,13.97722-10.53527,25.51144-10.53527a2.45108,2.45108,0,1,0,0-4.90215m0-9.60737c-13.17534,0-20.9464,5.85845-28.46373,11.52173-7.38251,5.56572-14.35515,10.82092-26.53336,10.82092a2.45107,2.45107,0,0,0,0,4.90214c13.81933,0,21.78379-6.00214,29.48565-11.80737,7.18738-5.41666,13.97722-10.53527,25.51144-10.53527a2.45108,2.45108,0,1,0,0-4.90215"/>
        <path class="cls-1" d="M587.06865,114.81506H552.578l39.63755-46.18627a33.6284,33.6284,0,0,0,8.57478-21.66311c0-23.21378-18.72679-40.72172-43.555-40.72172-24.83019,0-43.55514,17.50794-43.55514,40.72172a15.23494,15.23494,0,0,0,30.456.64757c.54827-7.41264,6.05369-12.79383,13.0991-12.79383a12.95059,12.95059,0,0,1,13.09012,13.0919,12.645,12.645,0,0,1-3.144,8.5588l-53.43037,62.67581a13.96952,13.96952,0,0,0-3.66191,9.3909,13.76314,13.76314,0,0,0,13.91334,13.90981h63.06615a13.81611,13.81611,0,0,0,0-27.63158"/>
        <path class="cls-1" d="M696.24818,96.80823c-.13309-1.01838-.74168-1.501-1.92506-.95982a77.32083,77.32083,0,0,0-9.11948,6.18667c-7.66991,5.78214-16.36359,12.33607-31.06646,12.33607a6.36276,6.36276,0,0,1-1.25431-.1437,12.90181,12.90181,0,0,1,.80015-25.78462h.01245l.44171-.04434c11.28938,0,17.61445-4.76554,24.95072-10.29044,1.66072-1.25437,5.18781-3.79147,5.18781-3.79147a1.04858,1.04858,0,0,0,.1384-1.62164c-.2377-.236-.48254-.4684-.72922-.699A44.38979,44.38979,0,0,0,668.927,62.92969c-1.07694-.39921-2.16633-.79133-3.339-1.116l22.4632-31.66435c2.1451-3.394,3.42248-5.92586,3.42248-9.43879,0-7.70719-6.84485-14.46693-14.65143-14.46693a14.46374,14.46374,0,0,0-11.05157,5.21973L621.11913,74.40705c-6.36232,9.37138-10.49442,16.95082-10.49442,26.94318,0,22.66021,19.26965,41.09784,42.9589,41.09784,23.69109,0,42.959-18.43763,42.959-41.09784a39.29132,39.29132,0,0,0-.29443-4.542"/>
        <path class="cls-1" d="M108.91887,58.81331a15.35486,15.35486,0,0,0-1.76891.17744H73.74511a15.44362,15.44362,0,1,0,0,30.88724H93.47433v27.29269a42.61123,42.61123,0,0,1-7.35766,1.78663,56.11153,56.11153,0,0,1-9.24542.74162c-14.84656,0-23.34153-3.71164-30.97419-11.135-7.6344-7.42507-11.45073-19.4134-11.45073-33.9779q0-12.39379,3.25215-21.32248a38.55564,38.55564,0,0,1,9.24362-14.71,36.90234,36.90234,0,0,1,14.39771-8.51089,61.27713,61.27713,0,0,1,18.906-2.73051,103.15713,103.15713,0,0,1,24.24635,2.84227,13.25466,13.25466,0,0,0,16.22872-10.537,13.427,13.427,0,0,0-9.42637-15.2866Q96.32193.00088,76.89611,0,58.6102,0,44.318,5.36343A67.50609,67.50609,0,0,0,20.16216,20.485,64.31131,64.31131,0,0,0,5.13632,44.01994,86.71268,86.71268,0,0,0,0,74.58608C0,85.093,1.7068,95.64063,5.13632,104.2562a62.10421,62.10421,0,0,0,14.81647,22.167,67.569,67.569,0,0,0,23.52779,14.38886,75.05807,75.05807,0,0,0,28.77062,5.1452,145.351,145.351,0,0,0,29.09885-2.85824q1.28013-.26084,2.51761-.53582a26.54278,26.54278,0,0,0,20.4957-26.10042v-42.205a15.44484,15.44484,0,0,0-15.44449-15.44452"/>
        <path class="cls-1" d="M226.00806,115.34451H172.43042l-4.99262,15.7053a16.35034,16.35034,0,1,1-30.905-10.65766l37.2886-100.15248a27.21426,27.21426,0,0,1,51.0068-.00354l37.2762,100.09213a16.3975,16.3975,0,1,1-30.95828,10.79963ZM181.2554,88.03228h35.92773L201.95149,37.68193a2.76142,2.76142,0,0,0-5.28355-.00885Z"/>
        <path class="cls-1" d="M368.79808,19.90062h0a13.656,13.656,0,0,1-13.65614,13.65612H324.36818v91.65931a17.232,17.232,0,0,1-34.464,0V33.55674H259.1305a13.65611,13.65611,0,1,1,0-27.31221h96.01144a13.656,13.656,0,0,1,13.65614,13.65609"/>
        <path class="cls-1" d="M379.48753,19.10328A12.85938,12.85938,0,0,1,392.347,6.24382h77.69626a13.65611,13.65611,0,1,1,0,27.31221H416.11248a2.1633,2.1633,0,0,0-2.16275,2.16275V58.52627a2.16219,2.16219,0,0,0,2.16275,2.16278h51.41846a13.6561,13.6561,0,1,1,0,27.3122H416.11248a2.16332,2.16332,0,0,0-2.16275,2.16276v22.80751a2.16217,2.16217,0,0,0,2.16275,2.16275h54.55885a13.65611,13.65611,0,0,1,0,27.31221H392.347a12.85787,12.85787,0,0,1-12.85946-12.8577Z"/>
      </g>
    </g>
  </g>
</svg>
