<?xml version="1.0" encoding="utf-8"?>
<!-- Generator: Adobe Illustrator 24.2.0, SVG Export Plug-In . SVG Version: 6.00 Build 0)  -->
<svg version="1.1" id="Layer_1" xmlns="http://www.w3.org/2000/svg" xmlns:xlink="http://www.w3.org/1999/xlink" x="0px" y="0px"
	 viewBox="0 0 512 512" style="enable-background:new 0 0 512 512;" xml:space="preserve">
<style type="text/css">
	.st0{enable-background:new    ;}
	.st1{fill:#FFFFFF;}
	.st2{fill:#FCCE0E;}
	.st3{fill:#FF6155;}
</style>
<g id="_x33_8_Send">
	<g>
		<g>
			<g>
				<g class="st0">
					<g>
						<g>
							<path class="st1" d="M457,304.6v32.5c-0.1,5.2-3.6,10.5-10.5,14.5L270.1,454.3c-13.9,8.1-36.5,8.1-50.5,0L42.1,351.8
								c-7-4.1-10.6-9.4-10.6-14.7l0.1-32.5c0,5.3,3.5,10.7,10.6,14.7l177.5,102.5c14,8.1,36.5,8.1,50.5,0l176.5-102.5
								C453.6,315.2,457,309.9,457,304.6L457,304.6z"/>
						</g>
					</g>
					<g>
						<g>
							<path class="st1" d="M446.5,289.9c14,8.1,14,21.2,0.1,29.3L270.2,421.7c-13.9,8.1-36.5,8.1-50.5,0L42.2,319.2
								c-14-8.1-14.1-21.1-0.2-29.2l176.5-102.5c13.9-8.1,36.5-8.1,50.5,0L446.5,289.9z"/>
						</g>
					</g>
				</g>
			</g>
			<g>
				<g class="st0">
					<g>
						<g>
							<path class="st1" d="M457,304.6v32.5c-0.1,5.2-3.6,10.5-10.5,14.5L270.1,454.3c-13.9,8.1-36.5,8.1-50.5,0L42.1,351.8
								c-7-4.1-10.6-9.4-10.6-14.7l0.1-32.5c0,5.3,3.5,10.7,10.6,14.7l177.5,102.5c14,8.1,36.5,8.1,50.5,0l176.5-102.5
								C453.6,315.2,457,309.9,457,304.6L457,304.6z"/>
						</g>
					</g>
					<g>
						<g>
							<path class="st1" d="M446.5,289.9c14,8.1,14,21.2,0.1,29.3L270.2,421.7c-13.9,8.1-36.5,8.1-50.5,0L42.2,319.2
								c-14-8.1-14.1-21.1-0.2-29.2l176.5-102.5c13.9-8.1,36.5-8.1,50.5,0L446.5,289.9z"/>
						</g>
					</g>
				</g>
			</g>
			<path class="st2" d="M480.5,51.7l-433,110.5l122.4,69.9L480.5,51.7z"/>
			<path class="st2" d="M480.5,51.7L340.7,330.8l-121.8-70.5L480.5,51.7z"/>
			<path class="st1" d="M218.9,260.3l-21.4,93.6l70.1-65.4L218.9,260.3z"/>
			<path class="st1" d="M197.5,353.9l-27.6-121.8L480.5,51.7L218.9,260.3L197.5,353.9z"/>
			<g>
				<g class="st0">
					<g>
						<g>
							<path class="st1" d="M457,304.7v32.5c-0.1,5.2-3.6,10.5-10.5,14.5L270.1,454.3c-13.9,8.1-36.5,8.1-50.5,0L42.1,351.8
								c-7-4.1-10.6-9.4-10.6-14.7l0.1-32.5c0,5.3,3.5,10.7,10.6,14.7l177.5,102.5c14,8.1,36.5,8.1,50.5,0l176.5-102.5
								C453.6,315.2,457,309.9,457,304.7L457,304.7z"/>
						</g>
					</g>
					<g>
						<g>
							<path class="st1" d="M446.5,290c14,8.1,14,21.2,0.1,29.3L270.2,421.8c-13.9,8.1-36.5,8.1-50.5,0L42.2,319.3
								c-14-8.1-14.1-21.1-0.2-29.2l176.5-102.5c13.9-8.1,36.5-8.1,50.5,0L446.5,290z"/>
						</g>
					</g>
				</g>
			</g>
			<g>
				<g class="st0">
					<g>
						<g>
							<path class="st1" d="M457,304.7v32.5c-0.1,5.2-3.6,10.5-10.5,14.5L270.1,454.3c-13.9,8.1-36.5,8.1-50.5,0L42.1,351.8
								c-7-4.1-10.6-9.4-10.6-14.7l0.1-32.5c0,5.3,3.5,10.7,10.6,14.7l177.5,102.5c14,8.1,36.5,8.1,50.5,0l176.5-102.5
								C453.6,315.2,457,309.9,457,304.7L457,304.7z"/>
						</g>
					</g>
					<g>
						<g>
							<path class="st1" d="M446.5,290c14,8.1,14,21.2,0.1,29.3L270.2,421.8c-13.9,8.1-36.5,8.1-50.5,0L42.2,319.3
								c-14-8.1-14.1-21.1-0.2-29.2l176.5-102.5c13.9-8.1,36.5-8.1,50.5,0L446.5,290z"/>
						</g>
					</g>
				</g>
			</g>
			<path class="st3" d="M480.5,51.7l-433,110.5l122.4,69.9L480.5,51.7z"/>
			<path class="st3" d="M480.5,51.7L340.7,330.8l-121.8-70.5L480.5,51.7z"/>
			<g>
				<path class="st1" d="M218.9,260.4L197.5,354l70.2-65.4L218.9,260.4z"/>
				<path class="st1" d="M197.5,354l-27.6-121.8L480.5,51.7L218.9,260.4L197.5,354z"/>
			</g>
		</g>
		<g>
			<path d="M479.8,49l-433,110.5c-1.1,0.3-1.9,1.2-2.1,2.4c-0.2,1.1,0.4,2.3,1.4,2.8L150,224L40.6,287.6C33,292,28.8,298,28.8,304.5
				h0L28.7,337c0,6.6,4.3,12.7,12,17.2l177.5,102.5c14.8,8.5,38.7,8.5,53.3,0L448,354.2c7.6-4.4,11.8-10.4,11.9-17v-32.4
				c0-0.1,0-0.1,0-0.2c0-6.6-4.2-12.6-11.9-17.1L384,250.6c0.4-0.8,99.4-198.6,99-197.8C484,50.7,481.8,48.5,479.8,49z M54.9,163.2
				L461.6,59.4c-96.7,56.2-194.1,112.7-291.8,169.4L54.9,163.2z M217.2,258.1c-0.3,0.2-0.9,1.2-1,1.6l-18.7,81.5l-24.4-107.7
				c95.3-55.4,177.6-103.2,275.8-160.2L217.2,258.1z M220.8,264.7c2.3,1.4,44.7,25.9,42.1,24.4l-60.7,56.5L220.8,264.7z
				 M454.2,337.1c-0.1,4.4-3.4,8.8-9,12.1L268.7,451.8c-13.1,7.6-34.4,7.6-47.6,0L43.5,349.4c-5.8-3.4-9.2-7.9-9.2-12.3l0-20.2
				c1.2,1.2,4.8,3.9,6.4,4.8l177.6,102.5c14.4,8.3,38.2,8.7,53.3,0l176.5-102.5c2.4-1.4,5.4-3.9,6.2-4.7V337.1z M445.1,292.4
				c12.3,7.1,11.9,17.5,0.1,24.4L268.8,419.3c-13.4,7.8-34.9,7.4-47.6,0L43.6,316.7c-11.5-6.5-12.8-17-0.2-24.3l112.2-65.2l11.8,6.7
				l27.4,120.6c0.4,1.7,2.7,3.1,4.6,1.5c0,0,0.1,0,0.1,0l68.6-64l71.3,41.2c1.4,0.8,3.2,0.3,3.9-1.2l38.3-76.4L445.1,292.4z
				 M339.5,326.8c-44.1-25.5-86.7-50.1-115.6-66.9L472.3,61.9L339.5,326.8z"/>
		</g>
	</g>
</g>
<g id="Layer_1_1_">
</g>
</svg>
