<?xml version="1.0" encoding="utf-8"?>
<!-- Generator: Adobe Illustrator 24.2.0, SVG Export Plug-In . SVG Version: 6.00 Build 0)  -->
<svg version="1.1" id="Layer_1" xmlns="http://www.w3.org/2000/svg" xmlns:xlink="http://www.w3.org/1999/xlink" x="0px" y="0px"
	 viewBox="0 0 512 512" style="enable-background:new 0 0 512 512;" xml:space="preserve">
<style type="text/css">
	.st0{fill:#FFFFFF;}
	.st1{fill:#FCCE0E;}
	.st2{fill:#FF6155;}
</style>
<g id="_x31_2_Physics">
	<g>
		<g>
			<path class="st0" d="M468.7,326.4v32.5c-0.1,5.2-3.6,10.5-10.5,14.5L281.8,476c-13.9,8.1-36.5,8.1-50.5,0L53.8,373.5
				c-7-4.1-10.6-9.4-10.6-14.7l0.1-32.5c0,5.3,3.5,10.7,10.6,14.7l177.5,102.5c14,8.1,36.5,8.1,50.5,0l176.5-102.5
				C465.3,336.9,468.7,331.6,468.7,326.4L468.7,326.4z"/>
			<path class="st0" d="M458.2,311.7c14,8.1,14,21.2,0.1,29.3L281.9,443.5c-13.9,8.1-36.5,8.1-50.5,0L53.9,340.9
				c-14-8.1-14.1-21.1-0.2-29.2l176.5-102.5c13.9-8.1,36.5-8.1,50.5,0L458.2,311.7z"/>
			<g>
				<path class="st1" d="M400.6,44c0,7.7-6.3,14-14,14c-7.7,0-14-6.3-14-14c0-7.7,6.3-14,14-14C394.4,30,400.6,36.2,400.6,44z"/>
				<path class="st1" d="M148,193.3c0,7.7-6.3,14-14,14c-7.7,0-14-6.3-14-14c0-7.7,6.3-14,14-14C141.7,179.4,148,185.6,148,193.3z"
					/>
				<path class="st1" d="M400.6,203.7c0,7.7-6.3,14-14,14c-7.7,0-14-6.3-14-14c0-7.7,6.3-14,14-14
					C394.4,189.7,400.6,195.9,400.6,203.7z"/>
				<path class="st1" d="M273.6,368c0,7.7-6.3,14-14,14c-7.7,0-14-6.3-14-14c0-7.7,6.3-14,14-14C267.4,354,273.6,360.3,273.6,368z"
					/>
				<path class="st1" d="M161.9,299.1c0,7.7-6.3,14-14,14c-7.7,0-14-6.3-14-14c0-7.7,6.3-14,14-14
					C155.7,285.1,161.9,291.3,161.9,299.1z"/>
				<path class="st1" d="M224.8,210.7c0,10.4-8.5,18.9-18.9,18.9c-10.4,0-18.9-8.5-18.9-18.9c0-10.5,8.5-18.9,18.9-18.9
					C216.4,191.8,224.8,200.2,224.8,210.7z"/>
				<path class="st1" d="M287,200.7c0,13.5-11,24.5-24.5,24.5c-13.5,0-24.5-11-24.5-24.5c0-13.5,11-24.5,24.5-24.5
					C276,176.2,287,187.1,287,200.7z"/>
			</g>
			<path class="st0" d="M468.7,326.4V359c-0.1,5.2-3.6,10.5-10.5,14.5L281.8,476c-13.9,8.1-36.5,8.1-50.5,0L53.8,373.6
				c-7-4.1-10.6-9.4-10.6-14.7l0.1-32.5c0,5.3,3.5,10.7,10.6,14.7l177.5,102.5c14,8.1,36.5,8.1,50.5,0L458.4,341
				C465.3,336.9,468.7,331.7,468.7,326.4L468.7,326.4z"/>
			<path class="st0" d="M458.2,311.7c14,8.1,14,21.2,0.1,29.3L281.9,443.5c-13.9,8.1-36.5,8.1-50.5,0L53.9,341
				c-14-8.1-14.1-21.1-0.2-29.2l176.5-102.5c13.9-8.1,36.5-8.1,50.5,0L458.2,311.7z"/>
			<path class="st2" d="M400.6,44c0,7.7-6.3,14-14,14c-7.7,0-14-6.3-14-14c0-7.7,6.3-14,14-14C394.4,30,400.6,36.3,400.6,44z"/>
			<path class="st2" d="M148,193.4c0,7.7-6.3,14-14,14c-7.7,0-14-6.3-14-14c0-7.7,6.3-14,14-14C141.7,179.4,148,185.7,148,193.4z"/>
			<path class="st2" d="M400.6,203.7c0,7.7-6.3,14-14,14c-7.7,0-14-6.3-14-14c0-7.7,6.3-14,14-14C394.4,189.7,400.6,196,400.6,203.7
				z"/>
			<path class="st2" d="M273.6,368.1c0,7.7-6.3,14-14,14c-7.7,0-14-6.3-14-14c0-7.7,6.3-14,14-14
				C267.4,354.1,273.6,360.3,273.6,368.1z"/>
			<path class="st2" d="M162,299.1c0,7.7-6.3,14-14,14c-7.7,0-14-6.3-14-14c0-7.7,6.3-14,14-14C155.7,285.1,162,291.4,162,299.1z"/>
			<path class="st2" d="M224.8,210.7c0,10.4-8.5,18.9-18.9,18.9c-10.4,0-18.9-8.5-18.9-18.9c0-10.5,8.5-18.9,18.9-18.9
				C216.4,191.8,224.8,200.3,224.8,210.7z"/>
			<path class="st2" d="M287,200.7c0,13.5-11,24.5-24.5,24.5c-13.5,0-24.5-11-24.5-24.5c0-13.5,11-24.5,24.5-24.5
				C276,176.3,287,187.2,287,200.7z"/>
		</g>
		<g>
			<path d="M52.4,376l177.5,102.5c14.8,8.5,38.7,8.5,53.3,0l176.5-102.5c7.6-4.4,11.8-10.4,11.9-17c0-8.2,0-24.5,0-32.6
				c0-6.6-4.2-12.6-11.9-17.1l-104.2-60.1c12.7-7,24.7-16.1,32.2-28.7c8.8-0.6,15.7-7.8,15.7-16.7c0-7.1-4.5-13.2-10.7-15.6
				c-4.8-18.4-20.9-31.1-37.8-39.7c21.7-36,36.5-68.5,38.4-89.1c5.9-2.6,10-8.5,10-15.3c0-9.3-7.5-16.8-16.8-16.8
				c-7.2,0-13.3,4.6-15.7,10.9c-20.1,5.6-47.3,28.9-62.7,43.1c-6.4-26-15.7-44.2-27.1-50.7c-6.5-3.8-13.6-3.6-20.6,0.4
				c-19.4,11.2-36,51.8-45.3,104.7c-27.4,6.2-59.7,19-75.8,42.1c-1.8-0.6-3.6-1-5.6-1c-9.3,0-16.8,7.5-16.8,16.8
				c0,8.4,6.2,15.3,14.2,16.5c2.8,16,14.5,28.1,28.2,37L52.3,309.3c-7.6,4.4-11.8,10.4-11.8,16.9c0,4.1-0.1,34.2-0.1,32.5
				C40.4,365.4,44.7,371.5,52.4,376L52.4,376z M397.8,203.7c0,6.2-5,11.2-11.2,11.2c-6.2,0-11.2-5-11.2-11.2c0-6.2,5-11.2,11.2-11.2
				C392.8,192.5,397.8,197.5,397.8,203.7z M386.6,186.9c-9.2,0-16.7,7.5-16.7,16.8c0,7.4,4.9,13.7,11.5,15.9
				c-7.9,11.9-19.2,19.7-31.7,26.2l-34.6-20c0.6-6.5,1.1-13.1,1.5-19.9c12.9-17.7,24.9-35.5,35.5-52.7
				C366.7,160.5,381.2,171.5,386.6,186.9L386.6,186.9z M259.6,351.2c-7.7,0-14.2,5.3-16.1,12.4c-9.1-7.6-16.7-24.5-22-47.9
				c13.6-12.9,28-27.9,42.6-44.4c13.6-0.3,26.9-1.8,39.6-4.2c-7.2,40.1-18.7,72.6-32,89.2C268.6,353.2,264.3,351.2,259.6,351.2z
				 M270.8,368c0,6.2-5,11.2-11.2,11.2c-6.2,0-11.2-5-11.2-11.2s5-11.2,11.2-11.2C265.8,356.9,270.8,361.9,270.8,368z M144.4,315.5
				c1.1,0.2,2.3,0.4,3.5,0.4c9.3,0,16.8-7.5,16.8-16.8c0-5.5-2.7-10.3-6.7-13.3c4.9-9.5,10.6-19.6,17.1-30.4
				c10,4.5,21.4,8.2,33.7,10.9c1.3,17.6,3.5,33.6,6.5,47.6c-17.7,16.5-33.9,29.3-47.4,37.1c-8.5,4.9-23.6,12.1-28.8,4.8
				C134.7,349.8,136.7,335.5,144.4,315.5L144.4,315.5z M136.8,299.1c0-6.2,5-11.2,11.2-11.2c6.2,0,11.2,5,11.2,11.2
				c0,6.2-5,11.2-11.2,11.2C141.8,310.2,136.8,305.2,136.8,299.1z M170.7,247l4.9-2.9c-0.9,1.4-1.7,2.7-2.5,4.1
				C172.3,247.8,171.5,247.4,170.7,247L170.7,247z M262.5,228c9.7,0,18.2-5.1,23-12.8l11.9,6.9c-11.2,14.5-22.9,28.8-35.9,43.6
				c-16.1,0.2-30.5-0.7-47.4-4c-0.6-9.8-1-20-1-30.6c7.4-2.6,12.9-9,14.2-17c3.1-1.7,4.4-3,9.4-4.8C240.4,220.1,250.5,228,262.5,228
				L262.5,228z M240.8,200.7c0-11.9,9.7-21.7,21.7-21.7c12,0,21.7,9.7,21.7,21.7s-9.7,21.7-21.7,21.7
				C250.6,222.3,240.8,212.6,240.8,200.7z M205.9,226.7c-8.9,0-16.1-7.2-16.1-16.1s7.2-16.1,16.1-16.1c8.9,0,16.1,7.2,16.1,16.1
				S214.8,226.7,205.9,226.7z M198.3,230.9c4.1,1.6,6.6,1.5,9.2,1.3c0.1,9.8,0.4,19.2,0.9,28.3c-11.1-2.5-21.3-5.8-30.3-9.9
				c2.5-4.1,5.1-8.2,7.8-12.5L198.3,230.9z M214.5,267.5c13.5,2.6,26.7,3.9,41.9,4c-12.5,14-24.7,26.7-36.3,37.9
				C217.6,296.8,215.7,282.8,214.5,267.5L214.5,267.5z M269.1,265.6c12.8-14.8,23.1-27.5,33.2-40.7l6.7,3.9
				c-1.1,11.2-2.6,22-4.3,32.4C293.3,263.5,281.3,265.1,269.1,265.6z M305.8,220.4c1.5-2,3.1-4,4.6-6c-0.2,2.8-0.5,5.5-0.7,8.2
				L305.8,220.4z M300.9,217.6l-12.8-7.4c1.1-3,1.8-6.1,1.8-9.5c0-15-12.3-27.3-27.3-27.3c-15,0-27.3,12.2-27.3,27.3
				c0,1.1,0.2,2.1,0.3,3.2c-5.6,1.7-7.1,3.1-8.2,3.7c-0.9-6.3-4.5-11.7-9.6-15.1c14.8-19.9,29.4-38,45.9-56.9
				c16.1-0.2,30.6,0.7,47.3,4c1.3,20.3,1.5,40.8,0.1,64.5C307.7,208.5,304.3,213,300.9,217.6L300.9,217.6z M314.4,231.9l29.2,16.9
				c-10,4.6-21.2,8.2-33,11C312.2,250.8,313.4,241.5,314.4,231.9L314.4,231.9z M316.6,140.8c11.1,2.5,21.4,5.9,30.4,9.9
				c-8.7,14.2-18.7,29.2-30,45C317.8,177,317.8,160.5,316.6,140.8z M386.6,32.8c6.2,0,11.2,5,11.2,11.2s-5,11.2-11.2,11.2
				c-6.2,0-11.2-5-11.2-11.2S380.5,32.8,386.6,32.8z M369.9,44.3c0.2,9,7.7,16.9,17.8,16.3c-2.4,18-15.4,48.2-37.7,85.3
				c-10-4.6-21.4-8.3-33.7-11c-1.3-17.5-3.5-33.6-6.5-47.5C324.7,73.4,350.5,51.1,369.9,44.3L369.9,44.3z M310.5,133.8
				c-14.9-2.8-27.5-3.8-41.9-3.9c12.4-14,24.7-26.7,36.3-37.9C307.4,104.5,309.3,118.5,310.5,133.8z M263.4,35.7
				c5.2-3,10.1-3.1,14.9-0.4c10.5,6.1,19.2,24.3,25.2,50.3c-13.6,12.9-28,27.8-42.6,44.4c-13.5,0.3-26.9,1.7-39.6,4.2
				C230.4,84.3,245.8,45.8,263.4,35.7z M220.4,140.2c11.5-2.4,23.4-3.9,35.7-4.5c-17.1,19.8-28.2,33.9-41.3,51.5
				C216,170.9,217.9,155,220.4,140.2L220.4,140.2z M122.8,193.3c0-6.2,5-11.2,11.2-11.2c6.2,0,11.2,5,11.2,11.2s-5,11.2-11.2,11.2
				C127.8,204.5,122.8,199.5,122.8,193.3z M137.1,209.8c7.8-1.5,13.7-8.3,13.7-16.5c0-5.2-2.4-9.8-6.2-12.9
				c15-21.1,44.6-33,69.8-38.9c-2.4,15.1-4.3,31.2-5.5,47.8c-1-0.1-2-0.3-3-0.3c-12,0-21.7,9.7-21.7,21.7c0,5,1.7,9.5,4.6,13.2
				c-2.2,3.3-4.4,6.6-6.5,9.9l-17.1,10C152.2,235.9,140.1,224.6,137.1,209.8L137.1,209.8z M55.1,314.2l110-63.9
				c1.6,0.9,3.3,1.8,5,2.7c-6.3,10.4-12,20.6-17,30.2c-1.6-0.5-3.4-0.9-5.2-0.9c-9.3,0-16.8,7.5-16.8,16.8c0,6.1,3.3,11.4,8.1,14.3
				c-8.2,21.1-10.7,37.6-4.8,45.8c7.8,10.9,24.7,3.5,36.2-3.2c13.3-7.7,29-20,46.1-35.7c6.2,25.4,15.3,43.3,26.3,50.2
				c1.2,8.1,8.1,14.4,16.6,14.4c9.3,0,16.8-7.5,16.8-16.8c0-2.5-0.6-4.9-1.6-7c14.8-17.5,27.2-52.2,34.8-95.2
				c14.5-3.2,28-7.9,39.9-13.7l107.3,61.9c12.3,7.1,11.9,17.5,0.1,24.4L280.5,441c-12.7,7.4-34.5,7.6-47.6,0L55.3,338.5
				C43.4,331.7,42.9,321.3,55.1,314.2z M46.1,338.6c1.4,1.5,5.1,4.1,6.4,4.8L230,445.9c14.3,8.3,38.2,8.8,53.3,0l176.5-102.5
				c2.2-1.3,5.1-3.6,6.2-4.7v20.2c-0.1,4.4-3.4,8.8-9,12.1L280.4,473.6c-13.1,7.6-34.4,7.6-47.6,0L55.2,371.1
				c-5.8-3.4-9.2-7.9-9.2-12.3L46.1,338.6z"/>
		</g>
	</g>
</g>
<g id="Layer_1_1_">
</g>
</svg>
