<?xml version="1.0" encoding="utf-8"?>
<!-- Generator: Adobe Illustrator 24.2.0, SVG Export Plug-In . SVG Version: 6.00 Build 0)  -->
<svg version="1.1" id="Layer_1" xmlns="http://www.w3.org/2000/svg" xmlns:xlink="http://www.w3.org/1999/xlink" x="0px" y="0px"
	 viewBox="0 0 512 512" style="enable-background:new 0 0 512 512;" xml:space="preserve">
<style type="text/css">
	.st0{fill:#FFFFFF;}
	.st1{fill:#FF6155;}
</style>
<g id="_x33_0_Mail">
	<g>
		<g>
			<g>
				<path class="st0" d="M468.7,326.8v32.5c-0.1,5.2-3.6,10.5-10.5,14.5L281.8,476.4c-13.9,8.1-36.5,8.1-50.5,0L53.8,373.9
					c-7-4.1-10.6-9.4-10.6-14.7l0.1-32.5c0,5.3,3.5,10.7,10.6,14.7l177.5,102.5c14,8.1,36.5,8.1,50.5,0l176.5-102.5
					C465.3,337.3,468.7,332,468.7,326.8L468.7,326.8z"/>
				<path class="st0" d="M458.2,312c14,8.1,14,21.2,0.1,29.3L281.9,443.9c-13.9,8.1-36.5,8.1-50.5,0L53.9,341.3
					c-14-8.1-14.1-21.1-0.2-29.2l176.5-102.5c13.9-8.1,36.5-8.1,50.5,0L458.2,312z"/>
				<path class="st0" d="M386.4,250.9c0,14.3-10,31.7-22.5,38.9l-171.2,98.9c-12.4,7.1-22.6,1.4-22.6-12.9l-0.5-151L264,46.9
					c5.4-9.9,18-21.9,26.9-15.5L386,99.9L386.4,250.9z"/>
				<path class="st0" d="M341.2,37.2c9.9-5.7,18-1.1,18,10.3l0.6,209.1l-163,94.1l-0.6-209.1c0-11.4,8-25.3,18-31.1L341.2,37.2z"/>
				<path class="st0" d="M288.3,215.3l10.6,3.8l87.5,31.8c0,14.3-10,31.7-22.4,38.9l-171.2,98.9c-12.4,7.2-22.6,1.4-22.6-12.9
					l87-132.6l10.5-16C272.1,220.5,280.9,212.6,288.3,215.3L288.3,215.3z"/>
			</g>
			<path class="st1" d="M386,99.9l0.4,151l-87.5-31.8L386,99.9z"/>
			<path class="st1" d="M170.1,375.8l-0.4-151l87.5,18.4L170.1,375.8z"/>
		</g>
		<g>
			<path d="M40.5,326.6l-0.1,32.5c0,6.6,4.3,12.7,12,17.2l177.5,102.5c14.8,8.5,38.7,8.5,53.3,0l176.5-102.5
				c7.6-4.4,11.8-10.4,11.9-17c0-8.2,0-24.5,0-32.6c0-6.6-4.2-12.6-11.9-17.1L385.9,267c2.1-5.3,3.4-10.9,3.4-16.1c0,0,0,0,0,0
				l-0.5-151c0-0.9-0.7-1.9-1.2-2.3l-25.5-18.4l-0.1-31.7c0-13.5-10.3-19.6-22.2-12.8l-21.9,12.6l-25.4-18.3
				c-10.3-7.5-24.4,4.3-31,16.4l-26.3,49.6l-22.4,12.9c-10.9,6.3-19.4,21-19.4,33.5l0.1,32.1l-26.4,49.7c-0.2,0.4-0.3,0.9-0.3,1.3
				l0.1,18.3L52.3,309.7C43.9,314.6,40.5,321.1,40.5,326.6L40.5,326.6z M465.9,359.3c-0.1,4.4-3.4,8.8-9,12.1L280.4,474
				c-13.1,7.6-34.4,7.6-47.6,0L55.2,371.5c-5.8-3.4-9.2-7.9-9.2-12.3l0-20.2c1.1,1.1,4.8,3.9,6.4,4.8L230,446.3
				c14.4,8.3,38.2,8.7,53.3,0l176.5-102.5c2.4-1.4,5.4-3.9,6.2-4.7L465.9,359.3L465.9,359.3z M382,100.5l-19.7,27l-0.1-41.3
				L382,100.5z M383.2,108.5l0.4,138.4c-19.3-7-59.1-21.5-80.2-29.1L383.2,108.5z M383.5,252.8c-0.9,13.8-10.6,28.6-20.9,34.5
				l-43.9,25.4l-127.3,73.5c-9.4,5.4-17.9,2.6-18.3-9.7c15.9-24.1,72-109.6,97.1-147.8c3.6-5.4,11.4-12.9,17.3-10.8l10.6,3.8
				c0,0,0,0,0,0L383.5,252.8z M266.5,48.2c4.3-8,15.6-19.7,22.7-14.5l23.3,16.8l-68.2,39.4L266.5,48.2z M215.6,113l127-73.3
				c7.9-4.6,13.7-1.5,13.8,7.9l0.2,87.7l-58.8,80.5l-8.6-3.1c-8.9-3.2-18.7,5-23.9,13l-9.5,14.4l-56.5-11.9l-0.2-86.5
				C199.1,131.1,206.5,118.3,215.6,113L215.6,113z M193.6,185.7l0.1,41.3l-19.8-4.2L193.6,185.7z M252.5,245.1l-79.6,121.3
				c-0.5-186-0.4-125.7-0.4-138.1L252.5,245.1z M166.9,249.6c0,13-0.1-46.9,0.4,126.2c0,16.1,12.2,23.7,26.8,15.3l126.5-73.1
				l44.7-25.8c6.1-3.5,13.3-10.8,18.1-20.1l73.3,42.3c12.4,7.1,11.8,17.6,0.1,24.4L280.5,441.4c-13,7.6-34.8,7.4-47.6,0L55.3,338.9
				c-11.7-6.6-12.6-17.1-0.2-24.3L166.9,249.6z"/>
		</g>
	</g>
</g>
<g id="Layer_1_1_">
</g>
</svg>
