<?xml version="1.0" encoding="utf-8"?>
<!-- Generator: Adobe Illustrator 24.2.0, SVG Export Plug-In . SVG Version: 6.00 Build 0)  -->
<svg version="1.1" id="Layer_1" xmlns="http://www.w3.org/2000/svg" xmlns:xlink="http://www.w3.org/1999/xlink" x="0px" y="0px"
	 viewBox="0 0 512 512" style="enable-background:new 0 0 512 512;" xml:space="preserve">
<style type="text/css">
	.st0{fill:#FFFFFF;}
	.st1{fill:#FCCE0E;}
	.st2{fill:#FF6155;}
</style>
<g id="_x34_9_Video_Chat">
	<g>
		<g>
			<g>
				<g>
					<path class="st0" d="M468.7,326.9v32.5c-0.1,5.2-3.6,10.5-10.5,14.5L281.8,476.5c-13.9,8.1-36.5,8.1-50.5,0L53.8,374.1
						c-7-4.1-10.6-9.4-10.6-14.7l0.1-32.5c0,5.3,3.5,10.7,10.6,14.7L231.4,444c14,8.1,36.5,8.1,50.5,0l176.5-102.5
						C465.3,337.5,468.7,332.2,468.7,326.9L468.7,326.9z"/>
				</g>
			</g>
			<g>
				<g>
					<path class="st0" d="M458.2,312.2c14,8.1,14,21.2,0.1,29.3L281.9,444c-13.9,8.1-36.5,8.1-50.5,0L53.9,341.5
						c-14-8.1-14.1-21.1-0.2-29.2l176.5-102.5c13.9-8.1,36.5-8.1,50.5,0L458.2,312.2z"/>
				</g>
			</g>
			<path class="st1" d="M257,325.8l-42.2,5.6c1.1,0.6,1.6,2.1,1.4,4l-5.1,37.9c-0.3,2.1,0.3,3.4,1.3,4l24.4,14.3
				c22.3-15.6,17.3-47.5,21.6-61.8C258.6,327.9,258.1,326.4,257,325.8L257,325.8z"/>
			<path class="st1" d="M355.7,37.4c-28.4-16.5-63.7-5-91.3,13c-59.4,38.8-106.8,122.2-109.1,192c-1.3,40.1,12,68.2,34.1,81.1
				l24.4,14.3c47.8-41,81.5-90.7,28.8-109c-66-23,19.2-57.9,78.6-96.7c2.6-1.7,5.7-6.9,7.8-4.8c36.5,36.7,31.8-57.6,51-75.5
				L355.7,37.4z"/>
			<path class="st0" d="M414.3,130.6c-1.4,72.7-52.9,162-117,199c-14.9,8.6-17.3,7.3-20.1,11.2L243,388.7c-3.5,4.9-8.2,4.1-7.5-1.1
				l5.1-37.9c0.3-2.5-0.6-4.2-2.4-4.4c-36.2-3.4-60.1-35.5-58.4-88.7c2.3-69.8,49.6-153.2,109.1-192
				C358.6,19.2,415.9,50.9,414.3,130.6z"/>
			<path class="st1" d="M281.9,135.7l63.4,16.1c6.5,1.6,6.5,12.5,0.1,21.6l-63.1,89.1c-7.8,11-18.5,10.6-18.5-0.2l-0.3-105.1
				C263.4,146.7,273.9,133.6,281.9,135.7L281.9,135.7z"/>
			<g>
				<g>
					<path class="st0" d="M468.7,327v32.5c-0.1,5.2-3.6,10.5-10.5,14.5L281.8,476.6c-13.9,8.1-36.5,8.1-50.5,0L53.8,374.1
						c-7-4.1-10.6-9.4-10.6-14.7l0.1-32.5c0,5.3,3.5,10.7,10.6,14.7l177.5,102.5c14,8.1,36.5,8.1,50.5,0l176.5-102.5
						C465.3,337.5,468.7,332.2,468.7,327L468.7,327z"/>
				</g>
			</g>
			<g>
				<g>
					<path class="st0" d="M458.2,312.3c14,8.1,14,21.2,0.1,29.3L281.9,444.1c-13.9,8.1-36.5,8.1-50.5,0L53.9,341.6
						c-14-8.1-14.1-21.1-0.2-29.2l176.5-102.5c13.9-8.1,36.5-8.1,50.5,0L458.2,312.3z"/>
				</g>
			</g>
			<path class="st2" d="M257,325.9l-42.2,5.6c1.1,0.6,1.6,2.1,1.4,4l-5.1,37.9c-0.3,2.1,0.3,3.4,1.3,4l24.4,14.3
				c22.3-15.6,17.3-47.5,21.6-61.8C258.6,327.9,258.1,326.5,257,325.9L257,325.9z"/>
			<path class="st2" d="M355.7,37.5c-28.4-16.5-63.7-5-91.3,13c-59.4,38.8-106.8,122.2-109.1,192c-1.3,40.1,12,68.2,34.1,81
				l24.4,14.3c47.8-41,81.5-90.7,28.8-109c-66-23,19.2-57.9,78.6-96.7c2.6-1.7,5.7-6.9,7.8-4.8c36.5,36.7,31.8-57.6,51-75.5
				L355.7,37.5z"/>
			<path class="st0" d="M414.3,130.7c-1.4,72.7-52.9,162-117,199c-14.9,8.6-17.3,7.3-20.1,11.2L243,388.7c-3.5,4.9-8.2,4.1-7.5-1.1
				l5.1-37.9c0.3-2.5-0.6-4.2-2.4-4.4c-36.2-3.4-60.1-35.5-58.4-88.7c2.3-69.8,49.6-153.2,109.1-192
				C358.6,19.2,415.9,51,414.3,130.7L414.3,130.7z"/>
			<path class="st2" d="M281.9,135.7l63.4,16.1c6.5,1.6,6.5,12.5,0.1,21.6l-63.1,89.1c-7.8,11-18.5,10.6-18.5-0.2l-0.3-105.1
				C263.4,146.7,273.9,133.7,281.9,135.7L281.9,135.7z"/>
		</g>
		<g>
			<path d="M459.6,309.8l-87-50.2c26.4-39.6,43.6-86.6,44.5-128.9c1.3-65.2-34.7-80.2-35.6-81.4L357.1,35c0,0,0,0,0,0
				c-29.5-17.1-65.6-5.6-94.3,13.1c-60.6,39.5-108,123-110.3,194.3c-0.1,3.2,0,6.2,0.1,9.2L52.3,309.8c-7.6,4.4-11.8,10.4-11.8,16.9
				h0v0v0l-0.1,32.5c0,6.6,4.3,12.7,12,17.2L229.9,479c14.8,8.5,38.7,8.5,53.3,0l176.5-102.5c7.6-4.4,11.8-10.4,11.9-17
				c0-8.2,0-24.5,0-32.6C471.6,320.3,467.3,314.2,459.6,309.8L459.6,309.8z M411.5,130.6c-1.4,73.3-53,160.7-115.6,196.6
				c-14.7,8.5-17.6,7.3-21,12L240.7,387c-1.2,1.6-1.6,1.6-2.4,2.1c-0.1-0.2-0.1-0.6,0-1.2l5.1-37.9c0.6-4.5-1.9-7.2-4.9-7.5
				c-36.1-3.4-57.5-36.3-55.9-85.8C184.8,188.3,232.1,105,290.3,67C357.5,23.3,413.1,52.1,411.5,130.6L411.5,130.6z M237.7,349.3
				l-4.9,36.7l-18.9-11c0,0-0.2-0.4-0.1-1.3l4.1-30.7c6,2.7,12.6,4.4,19.7,5C237.7,348.1,237.8,348.5,237.7,349.3L237.7,349.3z
				 M265.9,52.8c26.7-17.4,60.9-28.9,88.4-12.9l2.8,1.6c-24.5-2.7-49.3,7.4-69.9,20.8c-60.6,39.5-108,123-110.3,194.3
				c-0.9,27.4,5,49.9,16.3,65.8l-2.3-1.4c-22.3-13-34-40.9-32.7-78.5C160.4,174.1,207.7,90.7,265.9,52.8L265.9,52.8z M465.9,359.4
				c-0.1,4.4-3.4,8.8-9.1,12.1L280.4,474.1c-13.1,7.6-34.4,7.6-47.6,0L55.2,371.6c-5.8-3.4-9.2-7.9-9.2-12.3l0-20.2
				c1.1,1.1,4.8,3.9,6.4,4.8L230,446.5c14.6,8.4,38.1,8.8,53.3,0l176.5-102.5c2.4-1.4,5.4-3.9,6.2-4.7L465.9,359.4z M456.9,339
				L280.5,441.6c-13.2,7.7-34.6,7.5-47.6,0L55.3,339c-12.1-6.9-12.2-17.3-0.2-24.3l97.7-56.8c2.1,31.9,14.3,55.8,35.2,67.9
				c0.5,0.3,24.1,14.1,24.6,14.4l-4.4,32.7c-0.6,4.4,1.7,6.3,2.7,6.8c26.8,15.6,25.2,15,27.1,15c2.9,0,5.5-2.1,7.2-4.4l34.3-47.9
				c2.2-3,4-1.6,19.2-10.4c28.3-16.5,52.2-41.2,70.8-67.9l87.4,50.4C469.1,321.8,468.8,332.2,456.9,339L456.9,339z"/>
			<path d="M346,149l-63.4-16.1c-10.2-2.6-22,12.3-21.9,24.2l0.3,105.1c0,13.3,14,15.4,23.6,1.8l63.1-89.1
				C354.4,165.5,355.5,151.4,346,149L346,149z M343.1,171.7L280,260.9c-2.4,3.4-7.9,8.5-11.4,6.5c-1.3-0.7-2-2.5-2-5l-0.3-105.1
				c0-9.4,9.5-20.1,14.9-18.8l63.4,16.1C349.1,155.6,347.8,165.1,343.1,171.7L343.1,171.7z"/>
		</g>
	</g>
</g>
<g id="Layer_1_1_">
</g>
</svg>
