<?xml version="1.0" encoding="utf-8"?>
<!-- Generator: Adobe Illustrator 24.2.0, SVG Export Plug-In . SVG Version: 6.00 Build 0)  -->
<svg version="1.1" id="Layer_1" xmlns="http://www.w3.org/2000/svg" xmlns:xlink="http://www.w3.org/1999/xlink" x="0px" y="0px"
	 viewBox="0 0 512 512" style="enable-background:new 0 0 512 512;" xml:space="preserve">
<style type="text/css">
	.st0{fill:#FFFFFF;}
	.st1{fill:#FCCE0E;}
	.st2{fill:#FF6155;}
</style>
<g id="_x34_8_Card_Box">
	<g>
		<g>
			<g>
				<path class="st0" d="M468.7,326.2v32.5c-0.1,5.2-3.6,10.5-10.5,14.5L281.8,475.9c-13.9,8.1-36.5,8.1-50.5,0L53.8,373.4
					c-7-4.1-10.6-9.4-10.6-14.7l0.1-32.5c0,5.3,3.5,10.7,10.6,14.7l177.5,102.5c14,8.1,36.5,8.1,50.5,0l176.5-102.5
					C465.2,336.8,468.7,331.5,468.7,326.2L468.7,326.2z"/>
			</g>
			<g>
				<path class="st0" d="M458.2,311.5c14,8.1,14,21.2,0.1,29.3L281.9,443.3c-13.9,8.1-36.5,8.1-50.5,0L53.9,340.8
					c-14-8.1-14.1-21.1-0.2-29.2L230.2,209c13.9-8.1,36.5-8.1,50.5,0L458.2,311.5z"/>
			</g>
			<path class="st1" d="M250.4,157l53.2-74.2l150.9,83.3l-51.2,75.6L250.4,157z"/>
			<g>
				<path class="st0" d="M250.4,157l-63-67.2L43.5,169.6l64.4,64.4L250.4,157z"/>
				<path class="st0" d="M250.4,157l-142.5,77l153.4,84l142.1-76.4L250.4,157z"/>
				<path class="st0" d="M251.4,181.9l-97.6,52.8l97.7,53.5L251.4,181.9L251.4,181.9z"/>
				<path class="st0" d="M251.4,182v106.3l8.8,4.8l97.3-52.3L251.4,182z"/>
				<path class="st0" d="M403.3,241.6l78.5,7.1L343.2,327l-81.9-8.9L403.3,241.6z"/>
				<path class="st0" d="M107.9,234c0,0-80.4-16.8-77.7-14.7S182,300.7,182,300.7l79.3,17.3L107.9,234z"/>
				<path class="st0" d="M261.3,318c-24.7,35.7-24.5-82.8,0,97.3l140.2-75.1v-46.1L343.2,327L261.3,318z"/>
			</g>
			<path class="st1" d="M104,259.1V336l157.3,79.3V318L182,300.7L104,259.1z"/>
			<path class="st1" d="M294.6,223.8l0,22.5c0,5.7-3.8,11.4-11.2,15.7c-15,8.7-39.5,8.7-54.7,0c-7.6-4.4-11.4-10.2-11.4-15.9l0-22.5
				c0,5.8,3.8,11.5,11.4,15.9c15.1,8.7,39.6,8.7,54.7,0C290.9,235.2,294.6,229.5,294.6,223.8z"/>
			<path class="st0" d="M283.2,207.9c15.1,8.7,15.2,22.9,0.2,31.7s-39.5,8.7-54.7,0c-15.1-8.7-15.2-22.9-0.2-31.6
				C243.6,199.2,268.1,199.2,283.2,207.9z"/>
			<path class="st0" d="M260.4,30.2c-46.8-2.4-85.6,34.8-85.6,81c0,27.1,13.3,51.1,33.6,65.8c13.2,9.6,21,24.7,22.4,40.9
				c0,20.2,50.5,20.2,50.5,0c1.5-16.2,9.4-31.4,22.6-41.1c20.7-15.1,33.9-39.8,33.3-67.6C336.2,67.4,302.3,32.4,260.4,30.2
				L260.4,30.2z"/>
			<g>
				<path class="st0" d="M468.7,326.3v32.5c-0.1,5.2-3.6,10.5-10.5,14.5L281.8,475.9c-13.9,8.1-36.5,8.1-50.5,0L53.8,373.4
					c-7-4.1-10.6-9.4-10.6-14.7l0.1-32.5c0,5.3,3.5,10.7,10.6,14.7l177.5,102.5c14,8.1,36.5,8.1,50.5,0l176.5-102.5
					C465.3,336.8,468.7,331.5,468.7,326.3L468.7,326.3z"/>
			</g>
			<g>
				<path class="st0" d="M458.2,311.6c14,8.1,14,21.2,0.1,29.3L281.9,443.4c-13.9,8.1-36.5,8.1-50.5,0L53.9,340.9
					c-14-8.1-14.1-21.1-0.2-29.2l176.5-102.5c13.9-8.1,36.5-8.1,50.5,0L458.2,311.6z"/>
			</g>
			<path class="st2" d="M250.4,157l53.2-74.2l150.9,83.3l-51.2,75.6L250.4,157z"/>
			<path class="st0" d="M250.4,157l-63-67.2L43.5,169.6l64.4,64.4L250.4,157z"/>
			<path class="st0" d="M250.4,157l-142.5,77l153.4,84l142.1-76.4L250.4,157z"/>
			<path class="st0" d="M251.4,182l-97.6,52.8l97.7,53.5L251.4,182L251.4,182z"/>
			<path class="st0" d="M251.4,182v106.3l8.8,4.8l97.3-52.3L251.4,182z"/>
			<path class="st0" d="M403.4,241.7l78.5,7.1L343.2,327l-81.9-8.9L403.4,241.7z"/>
			<path class="st0" d="M107.9,234c0,0-80.4-16.8-77.7-14.7S182,300.8,182,300.8l79.3,17.3L107.9,234z"/>
			<path class="st0" d="M261.3,318.1c-24.7,35.7-24.5-82.8,0,97.3l140.2-75.1v-46.1L343.2,327L261.3,318.1z"/>
			<path class="st2" d="M104,259.2v76.9l157.3,79.3v-97.3L182,300.8L104,259.2z"/>
			<path class="st2" d="M294.7,223.9l0,22.5c0,5.7-3.8,11.4-11.2,15.7c-15,8.7-39.5,8.7-54.7,0c-7.6-4.4-11.4-10.2-11.4-15.9l0-22.5
				c0,5.8,3.8,11.5,11.4,15.9c15.1,8.7,39.6,8.7,54.7,0C290.9,235.3,294.6,229.6,294.7,223.9L294.7,223.9z"/>
			<path class="st0" d="M283.2,207.9c15.1,8.7,15.2,22.9,0.2,31.7s-39.5,8.7-54.7,0c-15.1-8.7-15.2-22.9-0.2-31.6
				C243.7,199.2,268.1,199.2,283.2,207.9z"/>
			<path class="st0" d="M260.4,30.3c-46.8-2.4-85.6,34.8-85.6,81c0,27.1,13.3,51.1,33.6,65.8c13.2,9.6,21,24.7,22.4,40.9
				c0,20.2,50.5,20.2,50.5,0c1.5-16.2,9.4-31.4,22.6-41.1c20.7-15.1,33.9-39.8,33.3-67.6C336.2,67.4,302.3,32.4,260.4,30.3
				L260.4,30.3z"/>
		</g>
		<g>
			<path d="M482.1,245.9l-73.8-6.6l48.5-71.6c0.9-1.4,0.4-3.3-1-4L339,99.1c-5.7-38.9-38.4-69.6-78.5-71.6
				c-43.6-2.2-78.9,28.2-86.8,66.7l-131.6,73c-1.7,0.9-1.9,3.2-0.6,4.5l57.7,57.8c-70.1-14.6-70.5-13.8-71.7-11.3
				c-0.6,1.2-0.2,2.7,0.8,3.5c1.4,1.1,36.3,19.9,72.8,39.3v19.9l-48.9,28.4c-7.6,4.4-11.8,10.4-11.8,16.9h0v0v0l-0.1,32.5
				c0,6.6,4.3,12.7,12,17.2l177.5,102.5c14.8,8.5,38.7,8.5,53.3,0l176.5-102.5c7.6-4.4,11.8-10.4,11.9-17c0-8.2,0-24.5,0-32.6
				c0-6.6-4.2-12.6-11.9-17.1l-39.1-22.6l62.7-35.4C485.7,249.8,484.9,246.1,482.1,245.9L482.1,245.9z M339.7,105.9L450.5,167
				l-48,70.9l-100.6-55.7c1.2-1.1,2.4-2.1,3.7-3c22.2-16.3,35.1-42.4,34.5-69.9C340,108.1,339.8,107,339.7,105.9z M261.3,314.8
				L113.8,234l96.2-52c4.3,3.7,8,8.2,10.9,13.2c-41.2,23.9-65.2,33.2-69.5,38.4c-1.2,1.4-0.9,2.6,1,3.6c1.1,0.6-12-6.6,106.5,58.4
				c0.9,0.5,1.9,0.5,2.7,0l97.3-52.3c0.9-0.5,1.5-1.4,1.5-2.5s-0.5-2-1.5-2.5l-69.9-38.7c2.2-4.9,5.1-9.3,8.6-13.3l73.1,40.5
				l26.7,14.8L261.3,314.8z M264.1,321.2l78.8,8.6c0.5,0.1,1.1,0,1.7-0.3l54.1-30.5v39.6l-134.6,72.1L264.1,321.2z M254.2,271.2
				c12.9,0.3,23.3-2.5,30.6-6.8c8.1-4.7,12.6-11.2,12.6-18.1l0-22.5c0,0,0,0,0,0v0c0,0,0,0,0,0c0,0,0,0,0,0
				c0-6.5-4.1-12.5-11.1-17.1c0.2-0.6,0.4-1.2,0.6-1.8l64.7,35.8l-91.4,49.2l-6-3.3L254.2,271.2z M230.1,259.6
				c-6.5-3.7-10-8.5-10-13.5l0-9.6c0.9,1,4.2,3.8,7.2,5.5c15.9,9.2,41.7,9.2,57.5,0c2.9-1.7,6.1-4.5,7-5.4l0,9.7
				c0,4.9-3.5,9.6-9.8,13.3C267.7,267.9,244.5,267.8,230.1,259.6L230.1,259.6z M291.8,223.8c0,3.7-2.7,9.2-9.8,13.3
				c-14.2,8.3-37.5,8.3-51.8,0c-4.9-2.8-10-8-10-13.4c0-4.1,2.6-8,7-11.4c0.3,1.9,0.6,3.8,0.8,5.7c0,24,56.1,23.8,56.1,0.3
				c0.2-1.9,0.5-3.8,0.8-5.7C289.3,215.9,291.8,219.7,291.8,223.8L291.8,223.8z M214.6,223.4c-0.1,1.1,0,10.5-0.1,22.7
				c0,7.1,4.5,13.6,12.8,18.4c6,3.5,13.5,5.6,21.3,6.5v12.6l-89-48.7l63.8-34.5c0.9,2,1.7,4.1,2.3,6.2
				C218.7,211,214.7,216.9,214.6,223.4z M260.2,33c40.6,2.1,73.2,35.6,74.1,76.4c0.6,25.7-11.4,50.1-32.1,65.2
				c-13.5,9.9-22.1,25.6-23.8,43.3c0,16.2-44.8,16.4-44.8-0.2c-1.4-17.5-10-33.2-23.5-42.9c-20.3-14.7-32.5-38.5-32.5-63.5
				C177.6,66.5,215,30.7,260.2,33z M48.1,170.2l124.5-69.1c-0.4,3.3-0.7,6.7-0.7,10.1c0,26.2,12.5,51,33.3,66.9l-96.9,52.4
				L48.1,170.2z M44.9,224.2c16.4,3.1,43.2,8.5,62.1,12.4l135.9,74.4L182.9,298l-77.3-41.2C81.6,244,58.6,231.7,44.9,224.2z
				 M258.5,320.3v90.4l-151.7-76.5v-70.4c28.7,15.3,57.3,30.6,70.6,37.6c2.9,1.5,3.2,1.8,4,2L258.5,320.3z M465.9,358.7
				c-0.1,4.4-3.4,8.8-9.1,12.1L280.4,473.4c-13.1,7.6-34.4,7.6-47.6,0L55.2,371c-5.8-3.4-9.2-7.9-9.2-12.3l0-20.2
				c1.5,1.5,5.2,4.1,6.4,4.8L230,445.8c14.5,8.4,38.3,8.7,53.3,0l176.5-102.5c2.4-1.4,5.4-3.9,6.2-4.7L465.9,358.7z M456.8,314
				c12.4,7.2,11.8,17.5,0.1,24.4L280.5,440.9c-13.3,7.7-34.7,7.5-47.6,0L55.3,338.3c-11.7-6.6-12.6-17.1-0.2-24.3l46.1-26.8V336
				c0,1.1,0.6,2,1.5,2.5L260,417.8l0,0c0.9,0.4,1.8,0.4,2.6,0l140.2-75.1c0.9-0.5,1.5-1.4,1.5-2.5v-44.5l10.5-6L456.8,314z
				 M342.6,324.1l-72-7.8l133.3-71.7l68.7,6.2C451.9,262.4,343.4,323.6,342.6,324.1L342.6,324.1z"/>
		</g>
	</g>
</g>
<g id="Layer_1_1_">
</g>
</svg>
