<svg xmlns="http://www.w3.org/2000/svg" width="818.16249" height="207.49135" viewBox="0 0 818.16249 207.49135">
  <defs>
    <style>
      .cls-1 {
        fill: #ff6155;
      }
    </style>
  </defs>
  <title>wave_1</title>
  <g id="Layer_2" data-name="Layer 2">
    <g id="Layer_1-2" data-name="Layer 1">
      <path class="cls-1" d="M751.85727,148.86691c-142.47311-67.921-256.70749-44.631-367.192-22.14353C276.1417,148.85059,173.65059,169.73351,41.96007,106.9529a29.36285,29.36285,0,0,0-25.27135,53.01c149.43687,71.2408,266.50378,47.39367,379.71518,24.32272,105.6453-21.52181,205.45527-41.8695,330.18136,17.591A29.36284,29.36284,0,1,0,751.947,148.9097l-.09042-.04311M801.38407,44.97628C658.911-22.94469,544.67658.34531,434.192,22.83275,325.66834,44.9603,223.17739,65.84289,91.48687,3.06228A29.36272,29.36272,0,0,0,66.2156,56.07207c149.43687,71.2408,266.50358,47.39408,379.71514,24.3228C551.57593,58.87331,651.386,38.52537,776.1121,97.98584A29.36284,29.36284,0,1,0,801.47387,45.019l-.09042-.04311"/>
    </g>
  </g>
</svg>
