<?xml version="1.0" encoding="utf-8"?>
<!-- Generator: Adobe Illustrator 24.0.1, SVG Export Plug-In . SVG Version: 6.00 Build 0)  -->
<svg version="1.1" id="Layer_1" xmlns="http://www.w3.org/2000/svg" xmlns:xlink="http://www.w3.org/1999/xlink" x="0px" y="0px"
	 viewBox="0 0 512 512" style="enable-background:new 0 0 512 512;" xml:space="preserve">
<style type="text/css">
	.st0{fill:#BA8130;}
</style>
<path class="st0" d="M116.7,288.9c-16.4-2.4-32.8-4-49.3-4.7c-7.2-0.4-16.8,3.3-18.4,21.6c-0.3,4.6,0.1,9.2,1.3,13.7
	c2.2,9.5,10.1,16.7,19.8,18l70.6,9.9c0.4,0.1,0.7,0.1,1.1,0.1c4.4,0,8-3.6,8-8c0-1.3-0.3-2.6-0.9-3.7
	C125.5,291.6,119.6,289.7,116.7,288.9z M72.2,321.6c-3.2-0.5-5.7-2.9-6.5-6c-0.7-2.7-1.1-5.6-0.9-8.4c0-2.4,0.6-4.8,1.6-7h0.2
	c18.2,1.1,38.8,2.8,44.3,3.8c6,8,11.4,16.5,16.1,25.4L72.2,321.6z"/>
<path class="st0" d="M444.6,284.2c-16.5,0.7-33,2.3-49.3,4.7c-2.9,0.9-8.8,2.7-32.1,46.9c-2.1,3.9-0.6,8.7,3.3,10.8
	c1.2,0.6,2.4,0.9,3.7,0.9c0.4,0,0.7,0,1.1-0.1l70.6-9.9c9.7-1.4,17.5-8.5,19.8-18c1.2-4.5,1.6-9.1,1.3-13.7
	C461.4,287.5,451.8,283.7,444.6,284.2z M446.2,315.6c-0.7,3.1-3.3,5.5-6.5,6l-54.8,7.7c4.7-8.9,10.1-17.4,16.1-25.4
	c5.7-1,26.2-2.6,44.4-3.8c1.2,2.2,1.8,4.6,1.7,7.1C447.3,310,447,312.9,446.2,315.6L446.2,315.6z"/>
<path class="st0" d="M366.7,296.3c-1.6-2.3-4.4-3.6-7.3-3.4c-0.7,0.1-74.2,6.4-103.5,6.4s-102.7-6.4-103.5-6.4
	c-4.4-0.4-8.3,2.9-8.7,7.3c-0.1,1.4,0.1,2.8,0.7,4.1l21.1,44.7c1.3,2.6,3.9,4.4,6.8,4.6l83.5,4.8l83.6-4.8c2.9-0.2,5.5-1.9,6.8-4.6
	l21.1-44.7C368.7,301.7,368.4,298.6,366.7,296.3z M333.9,337.9l-77.9,4.5l-77.9-4.5L165,310c23,1.9,68.7,5.3,91,5.3s68-3.5,91.1-5.3
	L333.9,337.9z"/>
<path class="st0" d="M302,53.3l11.8,4.4c7.8,2.9,14,9.1,16.9,16.9l4.4,11.8c1.6,4.1,6.2,6.2,10.3,4.6c2.1-0.8,3.8-2.5,4.6-4.6
	l4.4-11.8c2.9-7.8,9.1-13.9,16.9-16.9l11.8-4.4c4.1-1.6,6.2-6.2,4.6-10.3c-0.8-2.1-2.5-3.8-4.6-4.6L371.3,34l0,0
	c-7.8-2.9-14-9.1-16.9-16.9L350,5.2c-1.6-4.1-6.2-6.2-10.3-4.6c-2.1,0.8-3.8,2.5-4.6,4.6L330.7,17c-2.9,7.8-9.1,14-16.9,16.9
	L302,38.3c-4.1,1.6-6.2,6.2-4.6,10.3C298.2,50.7,299.9,52.4,302,53.3L302,53.3z M342.6,29.2c4,6.9,9.7,12.7,16.6,16.6
	c-6.9,4-12.7,9.7-16.6,16.6c-4-6.9-9.7-12.7-16.6-16.6C332.9,41.8,338.6,36.1,342.6,29.2z"/>
<path class="st0" d="M391.9,102.9l8.9,3.3c5.4,2,9.6,6.3,11.7,11.7l3.3,8.9c1.5,4.1,6.2,6.2,10.3,4.7c2.2-0.8,3.9-2.5,4.7-4.7
	l3.3-8.9c2-5.4,6.3-9.6,11.7-11.7l8.9-3.3c4.1-1.6,6.2-6.2,4.6-10.3c-0.8-2.1-2.5-3.8-4.6-4.6l-8.9-3.4l0,0
	c-5.4-2-9.6-6.3-11.6-11.6l-3.4-8.9c-1.5-4.1-6.2-6.2-10.3-4.7c-2.2,0.8-3.9,2.5-4.7,4.7l-3.3,8.9c-2,5.4-6.3,9.6-11.7,11.7
	l-8.9,3.3c-4.1,1.6-6.2,6.2-4.6,10.3C388.1,100.4,389.8,102.1,391.9,102.9L391.9,102.9z M423.4,86.4c2.4,3.5,5.5,6.6,9,9
	c-3.5,2.4-6.5,5.5-9,9c-2.4-3.5-5.5-6.5-9-9C417.9,93,420.9,89.9,423.4,86.4z"/>
<path class="st0" d="M441.9,53.3l8.9,3.3c5.4,2,9.6,6.3,11.7,11.6l3.3,8.9c1.5,4.1,6.2,6.2,10.3,4.7c2.2-0.8,3.9-2.5,4.7-4.7
	l3.3-8.9c2-5.4,6.3-9.6,11.6-11.7l8.9-3.3c4.1-1.6,6.2-6.2,4.6-10.3c-0.8-2.1-2.5-3.8-4.6-4.6l-8.9-3.4l0,0
	c-5.4-2-9.6-6.3-11.6-11.6l-3.3-8.9c-1.5-4.1-6.2-6.2-10.3-4.7c-2.2,0.8-3.9,2.5-4.7,4.7l-3.3,8.9c-2,5.4-6.3,9.6-11.7,11.6
	l-8.9,3.4c-4.1,1.6-6.2,6.2-4.6,10.3C438.1,50.8,439.8,52.4,441.9,53.3L441.9,53.3z M473.3,36.8c2.4,3.5,5.5,6.5,9,9
	c-3.5,2.4-6.5,5.5-9,9c-2.4-3.5-5.5-6.5-9-9C467.9,43.3,470.9,40.3,473.3,36.8z"/>
<path class="st0" d="M488.7,452c-4.4,0-8,3.6-8,8v33.2c0,1.6-1.3,2.8-2.8,2.8h-41.6c-1.6,0-2.8-1.3-2.8-2.8v-13.7c0-4.4-3.6-8-8-8
	s-8,3.6-8,8v13.7c0,10.4,8.4,18.8,18.8,18.8h41.6c10.4,0,18.8-8.4,18.8-18.8V460C496.7,455.5,493.1,452,488.7,452L488.7,452z"/>
<path class="st0" d="M86,471.5c-4.4,0-8,3.6-8,8v13.7c0,1.6-1.3,2.8-2.8,2.8H33.6c-1.6,0-2.8-1.3-2.8-2.8V460c0-4.4-3.6-8-8-8
	s-8,3.6-8,8v33.2c0,10.4,8.4,18.8,18.8,18.8h41.6c10.4,0,18.8-8.4,18.8-18.8v-13.7C94,475.1,90.4,471.5,86,471.5z"/>
<path class="st0" d="M495.2,201.1l-26.7-4.6c-8-1.5-16,2.8-19.2,10.3l-1.4,3.2L429,165.4c-8.7-20.8-27.5-35.6-49.8-39.1
	c-40.8-6.2-82-9.2-123.2-9c-41.3-0.2-82.5,2.8-123.2,9c-22.3,3.5-41.1,18.3-49.8,39.1L64,210l-1.3-3.1c-3.2-7.5-11.1-11.9-19.2-10.4
	l-26.7,4.6c-8.9,1.5-15.5,9.2-15.5,18.3v5.2c0,8.7,6,16.2,14.5,18.1l25.3,5.7l-11.2,17.1C20.2,280.3,15,297.6,15,315.3v91
	c0,34.3,23.9,56.5,60.9,56.5h360c37,0,60.9-22.2,60.9-56.5v-91c0-17.7-5.2-35-14.9-49.8l-11.2-17.1l25.2-5.7
	c8.5-1.9,14.6-9.4,14.6-18.1v-5.2C510.7,210.4,504.2,202.6,495.2,201.1z M19.3,227.1c-1.2-0.3-2-1.3-2-2.5v-5.2
	c0-1.3,0.9-2.3,2.1-2.5l26.8-4.6c0.8-0.1,1.5,0.3,1.8,1.1l6.5,14.8l-4,6.1L19.3,227.1z M480.9,381.5H51.3c-4.4,0-8,3.6-8,8
	s3.6,8,8,8h429.6v8.9c0,25.4-16.8,40.5-44.9,40.5H76c-28.1,0-44.9-15.2-44.9-40.5v-91c0-14.6,4.2-28.9,12.3-41l25.2-38.5h349
	c4.4,0,8-3.6,8-8s-3.6-8-8-8H77.3l20.4-48.1c6.5-15.7,20.8-26.9,37.6-29.5c40-6.1,80.3-9.1,120.7-8.9c40.4-0.2,80.8,2.8,120.7,8.8
	c16.8,2.7,31,13.8,37.6,29.6l23.4,55.1c0.2,0.4,0.4,0.9,0.7,1.3l30.3,46.3c8,12.2,12.3,26.5,12.3,41v66H480.9z M494.7,224.6
	c0,1.2-0.9,2.3-2,2.5l-31.2,7l-4-6.1l6.6-14.9c0.3-0.7,1-1,1.7-0.9l26.7,4.6c1.2,0.2,2.2,1.2,2.1,2.5L494.7,224.6z"/>
</svg>
