<?xml version="1.0" encoding="utf-8"?>
<!-- Generator: Adobe Illustrator 24.0.1, SVG Export Plug-In . SVG Version: 6.00 Build 0)  -->
<svg version="1.1" id="Layer_1" xmlns="http://www.w3.org/2000/svg" xmlns:xlink="http://www.w3.org/1999/xlink" x="0px" y="0px"
	 viewBox="0 0 388 388" style="enable-background:new 0 0 388 388;" xml:space="preserve">
<style type="text/css">
	.st0{fill:#BA8130;}
</style>
<path class="st0" d="M108,225.7c4.3,0,8.5-1.3,12.2-3.8l98.5-68.2c9.5-6.6,12.1-19.4,5.9-29.2c-3.1-4.9-7.9-8.3-13.5-9.5
	c-5.6-1.3-11.4-0.2-16.3,2.9L94,182.7c-4.9,3.1-8.2,8-9.4,13.7c-1.2,5.7-0.1,11.5,3.2,16.3l2.3,3.4c3.2,4.8,8.1,8.1,13.9,9.2
	C105.3,225.6,106.6,225.7,108,225.7z M101.4,208.6l-2.3-3.4c-1.2-1.8-1.6-3.9-1.2-6s1.7-3.9,3.4-5l100.8-64.8
	c1.3-0.8,2.8-1.3,4.3-1.3c0.6,0,1.1,0.1,1.7,0.2c2.1,0.5,3.8,1.7,5,3.5c2.3,3.6,1.3,8.3-2.2,10.7l-98.5,68.2c-1.8,1.2-3.9,1.7-6,1.3
	C104.4,211.5,102.6,210.3,101.4,208.6z"/>
<path class="st0" d="M374.4,253c0-29.1-41.4-86-54.5-103.2V96.9c0-13.2-8.8-24.4-20.8-28.1v-24c0-13.5-11-24.5-24.5-24.5h-39.9
	c-13.5,0-24.5,11-24.5,24.5v22.6h-3.9c-5.9,0-11.6,1.7-16.5,5.1l-126,84.9c-14.4,9.7-23,25.9-23,43.3V343
	c0,24.9,20.2,45.1,45.1,45.1H275c24.9,0,45.1-20.2,45.1-45.1v-27.3C350.6,311.3,374.4,284.9,374.4,253z M223.8,44.8
	c0-6,4.9-10.9,10.9-10.9h39.9c6,0,10.9,4.9,10.9,10.9v22.6h-61.7V44.8z M274.8,374.4h-189c-17.3,0-31.4-14.1-31.4-31.4V200.7
	c0-12.9,6.4-24.8,17-32l126-84.9c2.6-1.8,5.7-2.7,8.9-2.7h84.1c8.8,0,16,7.2,16,16V145c-0.2,0.2-0.4,0.2-0.6,0.4
	c-5.9,7.6-57.9,75.1-57.9,107.7c0,33.3,25.8,60.6,58.5,63V343C306.3,360.3,292.2,374.4,274.8,374.4z M311.1,302.7
	c-27.4,0-49.7-22.3-49.7-49.7c0-21.2,32.1-68.7,49.7-92.3c17.6,23.6,49.7,71,49.7,92.3C360.8,280.4,338.5,302.7,311.1,302.7z"/>
<path class="st0" d="M100,98.4c13.7,0,24.8-11.1,24.8-24.8c0-11.4-14.8-31.3-19.4-37.1c-2.6-3.3-8.2-3.3-10.7,0
	c-4.6,5.8-19.4,25.7-19.4,37.1C75.2,87.3,86.3,98.4,100,98.4z M100,52.2c6,8.7,11.1,17.9,11.1,21.4c0,6.1-5,11.1-11.1,11.1
	s-11.1-5-11.1-11.1C88.9,70.1,94,60.9,100,52.2z"/>
<path class="st0" d="M63.5,39.6c0-11.4-14.8-31.3-19.4-37.1c-2.6-3.3-8.2-3.3-10.7,0C28.8,8.3,14,28.2,14,39.6
	c0,13.7,11.1,24.8,24.8,24.8S63.5,53.2,63.5,39.6z M38.7,50.7c-6.1,0-11.1-5-11.1-11.1c0-3.5,5.1-12.7,11.1-21.4
	c6,8.7,11.1,17.9,11.1,21.4C49.9,45.7,44.9,50.7,38.7,50.7z"/>
<path class="st0" d="M340.3,241.6c-3.8,0-6.8,3.1-6.8,6.8c0,13.1-10.7,23.8-23.8,23.8c-3.8,0-6.8,3-6.8,6.8s3,6.8,6.8,6.8
	c20.7,0,37.5-16.8,37.5-37.5C347.1,244.6,344.1,241.6,340.3,241.6z"/>
<path class="st0" d="M251.8,326.7h-143c-3.8,0-6.8,3-6.8,6.8s3,6.8,6.8,6.8h143c3.8,0,6.8-3.1,6.8-6.8
	C258.6,329.8,255.6,326.7,251.8,326.7z"/>
</svg>
