<?xml version="1.0" encoding="utf-8"?>
<!-- Generator: Adobe Illustrator 24.0.1, SVG Export Plug-In . SVG Version: 6.00 Build 0)  -->
<svg version="1.1"
	 id="Layer_1" image-rendering="optimizeQuality" text-rendering="geometricPrecision" shape-rendering="geometricPrecision"
	 xmlns="http://www.w3.org/2000/svg" xmlns:xlink="http://www.w3.org/1999/xlink" x="0px" y="0px" viewBox="0 0 512 512"
	 style="enable-background:new 0 0 512 512;" xml:space="preserve">
<style type="text/css">
	.st0{fill:#BA8130;}
</style>
<g id="Layer_x0020_1">
	<path class="st0" d="M25.4,226.7c-15.8,0-15.8-24,0-24h76.1c5.8,0,10.7,4.2,11.8,9.7l29.5,106.9l35.5-177.7
		c2.5-12.5,20.7-13.3,23.6,0.3l28.4,114.7l18.9-29.7c5.2-8.2,17.5-7,21.1,1.9l33.8,81.6l65.5-173.5c3.9-10.4,19.1-10.4,22.7,0.9
		l24.9,74.3h69.3c15.8,0,15.8,24,0,24h-77.9c-5,0-9.7-3.2-11.4-8.2l-17.1-51.1L315.9,347c-3.7,9.9-18,10.5-22.2,0.3L257,259
		l-21.2,33.3c-5.9,9.9-19.6,7.1-22.1-3l-22.3-90.5l-34.9,174.4c-2.5,12.3-19.9,13-23.3,0.9L92.4,226.7H25.4z"/>
</g>
</svg>
