<?xml version="1.0" encoding="utf-8"?>
<!-- Generator: Adobe Illustrator 24.0.1, SVG Export Plug-In . SVG Version: 6.00 Build 0)  -->
<svg version="1.1" id="Leafs" xmlns="http://www.w3.org/2000/svg" xmlns:xlink="http://www.w3.org/1999/xlink" x="0px" y="0px"
	 viewBox="0 0 512 512" style="enable-background:new 0 0 512 512;" xml:space="preserve">
<style type="text/css">
	.st0{fill:#BA8130;}
</style>
<path class="st0" d="M422.2,134.3L422.2,134.3c-1.6-10.3-10.6-18-21-18c-0.1,0-0.2,0-0.2,0c-64.6,0.7-126.9,23.7-176.4,65
	c-1.5-18.1-6.7-35.8-15.3-52c-11.7-22.1-29.2-40.5-50.7-53.3l0,0c-8.7-5.2-19.5-3.7-26.2,3.5l0,0c-32.2,34.3-49.5,79-48.7,126
	c0.7,45.3,18.1,87.9,49.2,120.6c-2.9,11.2-5.1,22.5-6.6,34.1c-0.6,4.8,2.7,9.1,7.5,9.8c0.4,0.1,0.8,0.1,1.1,0.1c4.3,0,8-3.2,8.6-7.6
	c1.6-12,3.9-23.8,7.1-35.2c0.4-0.8,0.6-1.5,0.7-2.4c31.4-110,132.9-189.9,250-191.1l0,0c0,0,0,0,0.1,0c1.8,0,3.6,1.5,3.9,3.3l0,0
	c6.5,40.7,6.7,82,0.6,122.7c-0.1,0.3-0.2,0.6-0.3,0.9c-12,51.7-45.6,95.8-92.3,121c-41.1,22.3-89,28.2-133.9,16.8
	c15.2-10,29.7-20.9,43.6-32.9c36.6-31.5,67.4-68.7,91.4-110.5c2.4-4.1,1-9.5-3.2-11.9c-4.1-2.4-9.5-1-11.9,3.2
	c-35.1,60.7-85.4,111.4-145,147.1c-0.3,0.1-0.5,0.3-0.7,0.4c-19.1,11.4-39.2,21.2-60.1,29.4c-4.5,1.7-6.7,6.8-4.9,11.3
	c1.3,3.4,4.6,5.5,8.1,5.5c1.1,0,2.2-0.2,3.2-0.6c20.7-8.1,40.6-17.7,59.6-28.8c21.2,7.2,43.2,10.8,65.2,10.8
	c33.5,0,66.8-8.2,96.8-24.6c50.5-27.3,87-75,100.5-130.7c0.3-0.7,0.6-1.5,0.7-2.3C429.2,221,429,177.4,422.2,134.3z M171.1,240.6
	c-0.1-9.3-0.5-18-1.2-26.3c-1.6-17.7-4.6-36.4-9.2-57.1c-1-4.7-5.7-7.6-10.4-6.6s-7.6,5.7-6.6,10.4c4.5,20,7.4,37.9,8.9,54.8
	c1.4,16.2,1.6,34.1,0.4,56.1c-5.5,11.2-10.3,22.7-14.3,34.6C86.1,244,87.9,152.2,144.9,91.4l0,0c1.1-1.2,3.1-1.4,4.7-0.5l0,0
	c37.3,22.2,59.3,62.5,57.9,105.7C193.8,210.1,181.6,224.9,171.1,240.6z"/>
</svg>
