<?xml version="1.0" encoding="utf-8"?>
<!-- Generator: Adobe Illustrator 24.0.1, SVG Export Plug-In . SVG Version: 6.00 Build 0)  -->
<svg version="1.1" id="Layer_1" xmlns="http://www.w3.org/2000/svg" xmlns:xlink="http://www.w3.org/1999/xlink" x="0px" y="0px"
	 viewBox="0 0 512 512" style="enable-background:new 0 0 512 512;" xml:space="preserve">
<style type="text/css">
	.st0{fill:#BA8130;}
</style>
<g id="Layer_2_1_">
	<path class="st0" d="M336.1,33.3L146.6,138.7h-69c-25.2,0-45.6,20.4-45.6,45.6v143.4c0,25.2,20.4,45.6,45.6,45.6h68.9l189.6,105.3
		c5.1,2.9,11.6,1,14.5-4.1c0.9-1.6,1.3-3.4,1.3-5.2V42.7c0-5.9-4.8-10.7-10.7-10.7C339.5,32,337.7,32.5,336.1,33.3z M138.7,352H77.6
		c-13.4,0-24.3-10.9-24.3-24.3V184.3c0-13.4,10.9-24.3,24.3-24.3h61.1V352z M330.7,451.2L160,356.4V155.6l170.7-94.8V451.2z"/>
	<path class="st0" d="M441.7,256l35.1-35.1c4.2-4.2,4.2-10.9,0-15.1c-4.2-4.2-10.9-4.2-15.1,0l-35.1,35.1l-35.1-35.1
		c-4.2-4.2-10.9-4.2-15.1,0s-4.2,10.9,0,15.1l35.1,35.1l-35.1,35.1c-4.2,4.2-4.2,10.9,0,15.1s10.9,4.2,15.1,0l35.1-35.1l35.1,35.1
		c4.2,4.2,10.9,4.2,15.1,0s4.2-10.9,0-15.1L441.7,256z"/>
</g>
</svg>
