<svg xmlns="http://www.w3.org/2000/svg" xmlns:xlink="http://www.w3.org/1999/xlink" viewBox="0 0 881.64 881.63"><defs><style>.cls-1{fill:url(#linear-gradient);}.cls-2{fill:url(#linear-gradient-2);}.cls-3{fill:url(#linear-gradient-3);}.cls-4{fill:url(#linear-gradient-4);}.cls-5{fill:url(#linear-gradient-5);}</style><linearGradient id="linear-gradient" x1="326.93" y1="637.39" x2="553.93" y2="244.23" gradientUnits="userSpaceOnUse"><stop offset="0" stop-color="#e8b218"/><stop offset="0" stop-color="#ecac1a"/><stop offset="0.32" stop-color="#e7ba1e"/><stop offset="0.68" stop-color="#ffe864"/><stop offset="1" stop-color="#f5c635"/></linearGradient><linearGradient id="linear-gradient-2" x1="360.68" y1="276.91" x2="550.47" y2="605.62" gradientUnits="userSpaceOnUse"><stop offset="0" stop-color="#ecb71a"/><stop offset="0" stop-color="#dda517"/><stop offset="0.32" stop-color="#b57a11"/><stop offset="0.68" stop-color="#fdd649"/><stop offset="1" stop-color="#eccb34"/></linearGradient><linearGradient id="linear-gradient-3" x1="0" y1="440.82" x2="881.64" y2="440.82" xlink:href="#linear-gradient"/><linearGradient id="linear-gradient-4" x1="-3303.8" y1="1950.86" x2="-2686.63" y2="1950.86" gradientTransform="translate(-297.65 3938.22) rotate(135)" xlink:href="#linear-gradient"/><linearGradient id="linear-gradient-5" x1="146.51" y1="440.82" x2="735.13" y2="440.82" xlink:href="#linear-gradient"/></defs><g id="Layer_2" data-name="Layer 2"><g id="레이어_1" data-name="레이어 1"><path class="cls-1" d="M572.8,255.13V291.9H547.06v39.22H492.57l17.72-70.89.55-2.21.73-2.89Zm-239,334.6H308.06V626.5h62.51V568.89H333.8ZM547.06,392.4H477.25L445.38,519.87l-4.95,19.79-4.95-19.79L388.29,331.12l-17.72-70.89v0L370,258l-.73-2.89H308.06V291.9H333.8V507.61h36.77v-95.8l1.89,7.55L424.24,626.5h32.38L508.4,419.36l1.89-7.55V626.5H572.8V589.73H547.06Z"/><path class="cls-2" d="M385,519.87l9.19,36.77H308.06a62.58,62.58,0,0,1-62.51-62.51h36.77a25.77,25.77,0,0,0,25.74,25.74H385Zm-63.41-88.25H282.32V380.14h39.22V343.37h-76v125h76Zm237.78,36.77h39.22v51.48H559.32v36.77h76v-125h-76Zm-124.07,0h10.37l9.19-36.77H426.05Zm51.47,88.25H498V519.87h-2.12ZM672.06,387A44.42,44.42,0,0,0,661.34,381c-2.26-.78-4.61-2.2-5.52-4.3-3.64-.17-7.34.13-9.88-.43-4.14-.92-7.52-7.2-7.52-7.2,4.76,1.22,5.6-.08,9.2,3.06a13.5,13.5,0,0,0,7.84,3.22c-.13-1.11.16-2.23.13-3.35-.11-4.27-4.46-7-8.27-8.91-9.69-4.89-15.55-5.14-25.24-10-5.73-2.89-15.33-10.45-20.42-14.38S594.71,325,592.54,319c-3.85,9.82-1.19,20.74,4.29,29.19a62.24,62.24,0,0,0-24-4.81H404l9.2,36.77H568.4l16.48,7a10,10,0,0,1,5,4.24c2.33,4.59-1.78,10.33-6.76,11.65s-10.2-.41-15.06-2.1c8.68,10.88,21.19,8.6,35.1,8.11,31.4-1.11,38.39,12.53,39.05,20.18a2.3,2.3,0,0,0,3.55,1.71c8.75-5.67,15.27-14.81,18.54-25-.95,2-7.74,7.45-15.32,5.35-4.74-1.31-7.28-6.41-10.32-10.28a17.15,17.15,0,0,0-3.87-3.09,63.91,63.91,0,0,0-1.54-8c19.13,2.64,47.45,8.34,36.64,18.22,4.35-1.1,5-5.5,8.12-8.59C681.87,395.77,676.1,390.56,672.06,387Z"/><path class="cls-3" d="M752.52,752.51V630A361.73,361.73,0,0,0,795,527.42l86.62-86.6L795,354.2a362.15,362.15,0,0,0-42.5-102.52V129.11H630a362.09,362.09,0,0,0-102.51-42.5L440.82,0,354.2,86.61a362.27,362.27,0,0,0-102.52,42.5H129.12V251.68A361.81,361.81,0,0,0,86.62,354.2L0,440.82l86.62,86.6A361.85,361.85,0,0,0,129.12,630V752.51H251.68A362,362,0,0,0,354.2,795l86.62,86.62L527.44,795A361.85,361.85,0,0,0,630,752.51ZM564.05,738.3l-43.8,43.8a355,355,0,0,1-158.86,0l-43.8-43.8H255.74A353.22,353.22,0,0,1,143.33,625.91V564l-43.8-43.8a351.58,351.58,0,0,1,0-158.86l43.8-43.8V255.73a353,353,0,0,1,112.4-112.41h61.86l43.79-43.8a355.34,355.34,0,0,1,158.87,0l43.8,43.8H625.9A353.18,353.18,0,0,1,738.31,255.73v61.85l43.79,43.8a351.21,351.21,0,0,1,0,158.86L738.31,564v61.87A353.22,353.22,0,0,1,625.9,738.3Z"/><path class="cls-4" d="M222.61,222.61c120.32-120.32,316.09-120.32,436.41,0S779.34,538.7,659,659s-316.09,120.32-436.41,0S102.29,342.93,222.61,222.61Zm432.1,432.1c117.95-117.94,117.95-309.85,0-427.79s-309.86-117.94-427.8,0-117.94,309.85,0,427.79S536.77,772.66,654.71,654.71ZM251.49,251.49c104.4-104.39,274.26-104.39,378.65,0s104.39,274.26,0,378.65-274.25,104.39-378.64,0S147.1,355.89,251.49,251.49ZM625.83,625.83c102-102,102-268,0-370s-268-102-370,0-102,268,0,370S523.82,727.85,625.83,625.83Z"/><path class="cls-5" d="M440.82,146.51a9.19,9.19,0,1,1-9.19,9.19A9.19,9.19,0,0,1,440.82,146.51Zm-150.52,52a9.19,9.19,0,1,0,3.36-12.55A9.19,9.19,0,0,0,290.3,198.49Zm-101,107.73a9.19,9.19,0,1,0-3.36-12.56A9.2,9.2,0,0,0,189.3,306.22ZM155.7,450a9.2,9.2,0,1,0-9.19-9.19A9.2,9.2,0,0,0,155.7,450Zm42.79,141.33A9.19,9.19,0,1,0,185.94,588,9.19,9.19,0,0,0,198.49,591.34Zm107.73,101a9.19,9.19,0,1,0-12.56,3.37A9.18,9.18,0,0,0,306.22,692.33ZM450,725.94a9.19,9.19,0,1,0-9.19,9.19A9.2,9.2,0,0,0,450,725.94Zm141.33-42.8A9.19,9.19,0,1,0,588,695.7,9.2,9.2,0,0,0,591.34,683.14Zm101-107.72A9.19,9.19,0,1,0,695.7,588,9.18,9.18,0,0,0,692.33,575.42Zm33.61-143.8a9.2,9.2,0,1,0,9.19,9.2A9.19,9.19,0,0,0,725.94,431.62ZM683.14,290.3a9.19,9.19,0,1,0,12.56,3.36A9.19,9.19,0,0,0,683.14,290.3Zm-107.72-101A9.19,9.19,0,1,0,588,185.94,9.2,9.2,0,0,0,575.42,189.3Z"/></g></g></svg>