<svg xmlns="http://www.w3.org/2000/svg" viewBox="0 0 2528.04 661.34"><defs><style>.cls-1{fill:#fff;}</style></defs><g id="Layer_2" data-name="Layer 2"><g id="Layer_1-2" data-name="Layer 1"><path class="cls-1" d="M34.56,0H315.9L293.6,180.86h-201L80.38,281.34H0ZM105.1,80.38l-2.41,20.1H223.26l2.41-20.1Z"/><path class="cls-1" d="M336,0h80.38L391.66,201h201l-9.85,80.38H301.44Z"/><path class="cls-1" d="M637.44,0H918.77L884.21,281.34H803.83l12.26-100.48H695.51L683.25,281.34H602.87ZM708,80.38l-2.41,20.1H826.13l2.42-20.1Z"/><path class="cls-1" d="M1020.06,157.35,931.84,56.87l7-56.87h56.87l73.55,83.8,94-83.8h113.74L1100.44,157.35l-15.27,124h-80.39Z"/><path class="cls-1" d="M1623.73,0l-9.85,80.38h-201l-2.41,20.1h201l-10,80.38h-201l-2.41,20.1h201l-9.84,80.38H1307.83L1342.39,0Z"/><path class="cls-1" d="M1643.83,0h281.34L1890.6,281.34h-80.38l12.26-100.48H1701.9l-12.25,100.48h-80.39Zm70.53,80.38-2.41,20.1h120.58l2.41-20.1Z"/><path class="cls-1" d="M2015.8,80.38l-24.72,201H1910.7L1945.26,0H2226.6l-22.3,180.86h-67.12l88.22,100.48H2111.65l-88.22-100.48,10-80.38H2134l2.41-20.1Z"/><path class="cls-1" d="M2310.2,137.25l-17.68,144.09h-80.39L2246.7,0h56.87L2430,144.09,2447.65,0H2528l-34.57,281.34H2436.6Z"/><path class="cls-1" d="M466.62,380l-9.85,80.38H255.82l-2.41,20.1h201l-10,80.38h-201L241,581h201l-9.84,80.38H150.72L185.28,380Z"/><path class="cls-1" d="M486.72,380H768.06L733.49,661.34H653.11l12.26-100.48H544.79L532.54,661.34H452.15Zm70.53,80.38-2.41,20.1H675.42l2.41-20.1Z"/><path class="cls-1" d="M1069.49,380l-9.84,80.38h-201l-2.41,20.1h201l-22.3,180.86H753.59L763.43,581h201l2.41-20.1H765.85L788.15,380Z"/><path class="cls-1" d="M1170.77,537.35l-88.22-100.48,7-56.87h56.87L1220,463.8l94-83.8H1427.8L1251.16,537.35l-15.28,124H1155.5Z"/><path class="cls-1" d="M1774.45,380l-9.85,80.38H1563.65l-2.42,20.1h201l-10,80.38h-201l-12.26,100.48h-80.39L1493.11,380Z"/><path class="cls-1" d="M1794.54,380h80.39l-24.72,201h120.57l24.72-201h80.38l-34.56,281.34H1760Z"/><path class="cls-1" d="M2159.48,517.25,2141.8,661.34h-80.38L2096,380h56.87l126.4,144.09L2296.94,380h80.38l-34.56,281.34h-56.88Z"/></g></g></svg>