<svg xmlns="http://www.w3.org/2000/svg" viewBox="0 0 453.88 161.46"><path d="M164.64,47.24A54.93,54.93,0,0,0,125.36,63.8a57.05,57.05,0,0,0,0,79.59A54.87,54.87,0,0,0,164.61,160h0a54.93,54.93,0,0,0,39.26-16.57,57.05,57.05,0,0,0,0-79.59A54.86,54.86,0,0,0,164.64,47.24Zm25.4,82.6a35.42,35.42,0,0,1-50.85,0,37.67,37.67,0,0,1,0-52.43,35.4,35.4,0,0,1,50.84,0,37.66,37.66,0,0,1,0,52.44ZM57.4,64.06A37.43,37.43,0,0,1,86.16,77.57,9.7,9.7,0,1,0,101,65.07a56.75,56.75,0,0,0-84.24-3.26,59.07,59.07,0,0,0,0,82.4,56.78,56.78,0,0,0,40.64,17.18h0A56.93,56.93,0,0,0,101,141a9.69,9.69,0,1,0-14.82-12.5,37.37,37.37,0,0,1-55.57,2.14,39.67,39.67,0,0,1,0-55.25A37.34,37.34,0,0,1,57.4,64.06ZM453.64,11.83a9.7,9.7,0,0,0-18.93-4.26c-2.81,12.57-9.12,30.1-18.83,47.87A201.36,201.36,0,0,1,394,87.87L359.85,50.45a9.7,9.7,0,1,0-14.33,13.07L380.64,102c-1.28,1.21-2.54,2.43-3.86,3.58-28.2,24.83-58.33,36.51-82,36.44-16.15-.05-28.94-5.16-37.72-14.64a31.19,31.19,0,0,1-7.47-14.74l70.36,0s4.06-.22,6.93-.65a14.49,14.49,0,0,0,5-1.56,13.29,13.29,0,0,0,6.43-7.53,18,18,0,0,0,1.1-6.36,17.26,17.26,0,0,0-.2-2.77,55.25,55.25,0,0,0-54.4-46.57h-.29a56,56,0,0,0-55.41,55.91v.17c.17,13.94,4.37,27.18,13.68,37.24,12.95,14.06,31.59,20.88,51.77,20.88h.2c29.83-.06,63.71-14,94.77-41.26,1.41-1.25,2.75-2.55,4.12-3.83L430.76,157a9.7,9.7,0,0,0,14.34-13.07l-38-41.63A220.08,220.08,0,0,0,432.9,64.74C443.48,45.34,450.32,26.51,453.64,11.83ZM284.75,66.66h.16A35.8,35.8,0,0,1,319.34,93.3l-69.39,0A36.42,36.42,0,0,1,284.75,66.66Z" style="fill:#ec008c"></path></svg>