<svg xmlns="http://www.w3.org/2000/svg" viewBox="0 0 1750.79 290.11"><defs><style>.cls-1{fill:#222;}</style></defs><g id="Layer_2" data-name="Layer 2"><g id="Layer_1-2" data-name="Layer 1"><path class="cls-1" d="M95.53,186.5,82.89,290.11H0L35.64,0h82.89L105.89,103.61H230.22L242.86,0h82.89L290.11,290.11H207.22L219.86,186.5Z"/><path class="cls-1" d="M346.47,0H636.58L600.94,290.11H518.05L530.69,186.5H406.36L393.72,290.11H310.83ZM419.2,82.89l-2.48,20.72H541.05l2.49-20.72Z"/><path class="cls-1" d="M722.78,141.53,704.55,290.11H621.66L657.3,0h58.64L846.28,148.58,864.52,0h82.89L911.77,290.11H853.12Z"/><path class="cls-1" d="M932.49,290.11l10.15-82.89h207.22L1175.35,0h82.89l-35.65,290.11Z"/><path class="cls-1" d="M1326.2,290.11h-82.88L1279,0h82.88Z"/><path class="cls-1" d="M1448.05,141.53l-18.24,148.58h-82.89L1382.57,0h58.64l130.34,148.58L1589.79,0h82.88L1637,290.11h-58.64Z"/><path class="cls-1" d="M1750.79,207.22l-10.15,82.89h-82.89l10.16-82.89Z"/></g></g></svg>