<svg xmlns="http://www.w3.org/2000/svg" xmlns:xlink="http://www.w3.org/1999/xlink" viewBox="0 0 1467.06 913.97"><defs><style>.cls-1,.cls-3{fill:none;}.cls-2{fill:#212121;}.cls-3{stroke:#333;stroke-width:4px;}.cls-4{fill:#0e0e0e;fill-rule:evenodd;}.cls-5{fill:#e9e9e9;opacity:0.9;isolation:isolate;}.cls-6{clip-path:url(#clip-path);}.cls-7{fill:#7a655b;}.cls-8{fill:#e79191;}.cls-9{fill:#f8d8eb;}.cls-10{fill:#b63737;}.cls-11{fill:#8a512a;}.cls-12{fill:#b56b37;}.cls-13{fill:#47362f;}.cls-14{fill:#ebb5a6;}.cls-15{fill:#62543e;}.cls-16{fill:#70554a;}.cls-17{fill:#fff;}.cls-18{fill:#ff856b;}.cls-19{fill:#52493a;}.cls-20{fill:#3d2317;}.cls-21{fill:#767676;}</style><clipPath id="clip-path"><rect class="cls-1" x="449.53" y="372.19" width="567.99" height="541.77"/></clipPath></defs><g id="Layer_2" data-name="Layer 2"><g id="Layer_1-2" data-name="Layer 1"><rect class="cls-2" y="183.5" width="1467.06" height="710.25" rx="110.69"/><path class="cls-3" d="M33,219.89V766"/><path class="cls-3" d="M70.87,219.89V766"/><path class="cls-3" d="M108.74,219.89V766"/><path class="cls-3" d="M146.61,219.89V766"/><path class="cls-3" d="M184.47,219.89V766"/><path class="cls-3" d="M222.34,219.89V766"/><path class="cls-3" d="M260.2,219.89V766"/><path class="cls-3" d="M298.07,219.89V766"/><path class="cls-3" d="M335.94,219.89V766"/><path class="cls-3" d="M373.8,219.89V766"/><path class="cls-3" d="M411.67,219.89V766"/><path class="cls-3" d="M449.53,219.89V766"/><path class="cls-3" d="M487.4,219.89V766"/><path class="cls-3" d="M525.26,219.89V766"/><path class="cls-3" d="M563.13,219.89V766"/><path class="cls-3" d="M601,219.89V766"/><path class="cls-3" d="M638.86,219.89V766"/><path class="cls-3" d="M676.73,219.89V766"/><path class="cls-3" d="M714.59,219.89V766"/><path class="cls-3" d="M752.46,219.89V766"/><path class="cls-3" d="M790.33,219.89V766"/><path class="cls-3" d="M828.19,219.89V766"/><path class="cls-3" d="M866.06,219.89V766"/><path class="cls-3" d="M903.92,219.89V766"/><path class="cls-3" d="M941.79,219.89V766"/><path class="cls-3" d="M979.66,219.89V766"/><path class="cls-3" d="M1017.52,219.89V766"/><path class="cls-3" d="M1055.39,219.89V766"/><path class="cls-3" d="M1093.25,219.89V766"/><path class="cls-3" d="M1131.12,219.89V766"/><path class="cls-3" d="M1169,219.89V766"/><path class="cls-3" d="M1206.85,219.89V766"/><path class="cls-3" d="M1244.72,219.89V766"/><path class="cls-3" d="M1282.58,219.89V766"/><path class="cls-3" d="M1320.45,219.89V766"/><path class="cls-3" d="M1358.32,219.89V766"/><path class="cls-3" d="M1396.18,219.89V766"/><path class="cls-3" d="M1434.05,219.89V766"/><path class="cls-4" d="M56.8,0A56.8,56.8,0,0,0,0,56.8V266.06a56.8,56.8,0,0,0,56.8,56.8H1098.36a56.46,56.46,0,0,0,112.81,0h199.09a56.8,56.8,0,0,0,56.8-56.8V56.8A56.8,56.8,0,0,0,1410.26,0ZM1124.33,402.79A30.78,30.78,0,1,1,1093.55,372,30.79,30.79,0,0,1,1124.33,402.79Zm-94,62.66a19.55,19.55,0,1,0-19.54-19.55A19.55,19.55,0,0,0,1030.31,465.45Z"/><path class="cls-5" d="M351,109.77H323.21v5h21.64A89.49,89.49,0,0,1,343.4,133l6.23.51A102.93,102.93,0,0,0,351,114.72Zm-31.44,30.8h35.71v-5H319.55Zm56.21-31.65H357.84v4.9h11.82v3.29H357.84v13.14h3.37a115.33,115.33,0,0,0,17.58-.9l-.51-4.9a93,93,0,0,1-14.3.89v-3.58h11.78Zm-12.59,36h27.35V140H369.28v-7.13h-6.11Zm14.43-24.19h5.88v14.55h6.11V106.4h-6.11v9.17H377.6Zm49.77-14.33h-5.89v39.16h5.89Zm-33,30.63h2.77a66.71,66.71,0,0,0,13.95-1l-.42-5a52.7,52.7,0,0,1-10.29,1V115.57h9.05v-4.91H394.39Zm12.37-11.56h6.53v18.39H419V107h-5.67v13.49h-6.53Zm28.78,16.42a3.84,3.84,0,1,0,0-7.68,3.84,3.84,0,1,0,0,7.68Zm11.88,0a3.84,3.84,0,1,0,0-7.68,3.84,3.84,0,1,0,0,7.68Zm11.89,0a3.84,3.84,0,1,0,0-7.68,3.84,3.84,0,1,0,0,7.68Zm46.89-35.49H500v13.48h-6.48v5H500v20.82h6.19Zm-34,27.17,3.66,4.87c4.55-2.22,7.49-6.4,9.14-11.5,1.66,4.76,4.56,8.62,9.08,10.69l3.59-4.82c-6.89-3-9.58-10.18-9.56-17.16V115H496v-4.9h-22V115h7.85v.64C481.77,123,479.09,130.42,472.2,133.53Zm69.44-16.85H520.22v-8.92h-6.1v13.7h27.52Zm-31.88,13.4h35.8v-4.82h-35.8Zm4,14.59h28.16v-4.91h-22V133h-6.15ZM566.17,109c-6.08,0-10.54,5.42-10.49,14s4.41,14.12,10.49,14.12,10.41-5.42,10.46-14.12S572.17,109,566.17,109Zm-4.52,14c0-5.59,1.79-8.47,4.52-8.45s4.55,2.86,4.57,8.45-1.82,8.53-4.57,8.53S561.61,128.73,561.65,123Zm18.86,22.48h6.14V125.94h5.55v-5.08h-5.55v-14.5h-6.14Zm44.87-39.16h-6.15v23.55h6.15Zm-32.86,18.3,3.16,4.74a15.37,15.37,0,0,0,9.41-8,14.61,14.61,0,0,0,9,7.34l3.16-4.73c-6.28-1.9-8.86-6.34-9.11-10.58h7.48v-4.91H594.14v4.91h7.7C601.59,117.92,598.9,122.65,592.52,124.66Zm5.8,11.73h20.91v9.13h6.15v-14H598.32ZM670,108.57H642.23v4.87h21.59a62.63,62.63,0,0,1-1,11.73H638.26v5h14.55v15.45H659V130.12h15v-5h-5a70.47,70.47,0,0,0,1-13Zm40.9,16.56h-14.8v-3.07h11.05v-4.87H685.56v-4.43h21.16v-4.83h-27.3v14.13h10.45v3.07H675.15V130h35.71Zm-31.74,12h21.46v8.41h6.06V132.34H679.12Zm47.76-20.56v-1.54h7.6v-5H712.67v5h8v1.54c0,6.4-2.79,13.63-9.6,16.76l3.55,4.87c4.5-2.09,7.57-6.23,9.28-11.18,1.72,4.46,4.67,8.21,9,10.15l3.41-4.82C729.59,129.33,726.84,122.46,726.88,116.6ZM737,145.52h6.15V126.11h5.54V121H743.1V106.36H737Zm43-39.16h-6.14v39H780V126.11h5.25v-5H780Zm-31.7,27.81,3.46,4.7c13.29-6.53,17.66-16.66,17.66-28.59H750.63v5h12.52C762.09,123.83,757.26,129.65,748.28,134.17Zm61.79-23.63h-6.79l-7.63,4.78v6.31l7-4.27h.17v24.07h7.3Zm18.54,31.31c8,0,12.95-5.71,12.92-15.87s-4.9-15.87-12.92-15.87-12.93,5.74-12.93,15.87S820.59,141.85,828.61,141.85ZM823.14,126c0-6.74,2.2-10,5.47-10s5.46,3.24,5.46,10-2.18,9.94-5.46,9.94S823.12,132.83,823.14,126Zm34.38,15.87c8,0,12.94-5.71,12.92-15.87s-4.9-15.87-12.92-15.87-12.93,5.74-12.93,15.87S849.49,141.85,857.52,141.85ZM852.05,126c0-6.74,2.2-10,5.47-10s5.46,3.24,5.46,10-2.18,9.94-5.46,9.94S852,132.83,852.05,126Zm34.37,15.87c8,0,13-5.71,12.93-15.87s-4.91-15.87-12.93-15.87-12.93,5.74-12.93,15.87S878.4,141.85,886.42,141.85ZM881,126c0-6.74,2.2-10,5.46-10s5.46,3.24,5.46,10-2.17,9.94-5.46,9.94S880.94,132.83,881,126Zm53.66-19.62h-6.1v5.54h-6.7v-2.69H903V127.3h18.78v-2.68h6.7v4.6h6.1Zm-27,31.53c0,4.88,5.16,7.68,13.52,7.63s13.63-2.75,13.65-7.63-5.18-7.71-13.65-7.68S907.57,133,907.57,137.89Zm1.57-15.45V114h6.66v8.4Zm4.53,15.45c0-2.14,2.54-3,7.42-3s7.51.89,7.55,3-2.56,3-7.55,3S913.67,139.91,913.67,137.89Zm8.15-18.22v-3h6.7v3Zm49.43-13.31h-6.19v39.25h6.19ZM939.37,123c0,8.7,4.46,14.12,10.5,14.12s10.39-5.42,10.41-14.12-4.46-14-10.41-14S939.37,114.46,939.37,123Zm6,0c0-5.59,1.77-8.47,4.52-8.45s4.46,2.86,4.48,8.45-1.81,8.53-4.48,8.53S945.31,128.73,945.35,123Zm70-16.64h-6.14v28.37h6.14V122.44h5.08v-5h-5.08Zm-31.06,12.46c0,5.78,4.8,10,10.88,10s10.8-4.24,10.8-10-4.76-10-10.8-10S984.22,113,984.26,118.86Zm5.38,26h27V140H995.78v-8.2h-6.14Zm.64-26a4.84,4.84,0,1,1,4.86,4.69A4.54,4.54,0,0,1,990.28,118.86Zm30.23,14.25.81,4.95c4.91,0,12.84-.17,19.07-1.37l-.3-4.39c-1.94.23-4.09.38-6.31.51v-6h5.59v-4.91H1028.1v-7.25H1039v-4.91h-16.89v17.07h5.84V133Zm21.12,10.71h5.72V126.66h2.47v18.86h5.85V106.36h-5.85v15.31h-2.47V107h-5.72Zm31.43-29.14v-5.42h-6.23v5.42c0,7.42-2.63,15-9.65,18.09l3.84,5c4.42-2.15,7.28-6.08,8.92-10.92,1.6,4.54,4.35,8.17,8.62,10.2l3.71-4.91C1075.51,129.31,1073.06,122.14,1073.06,114.68Zm4.82,8.61H1085v22.32h6.06V106.36H1085v12h-7.16Zm22.25,18.56a3.84,3.84,0,1,0,0-7.68,3.84,3.84,0,1,0,0,7.68Zm11.88,0a3.84,3.84,0,1,0,0-7.68,3.84,3.84,0,1,0,0,7.68Zm11.89,0a3.84,3.84,0,1,0,0-7.68,3.84,3.84,0,1,0,0,7.68ZM285.39,177H282.7V214.7h2.69V194.57h6.49v-2.35h-6.49Zm-27.52,5.89h14.34v8.53H258v14h2.94a95.15,95.15,0,0,0,18.47-1.41l-.29-2.26a90.76,90.76,0,0,1-18.18,1.36h-.26v-9.42H274.9V180.61h-17ZM324.2,177h-2.69V214.7h2.69Zm-29.4,16c0,7.94,3.95,13,9.51,13s9.52-5.07,9.52-13-4-13-9.52-13S294.8,185.11,294.8,193Zm2.6,0c0-6.29,2.84-10.6,6.91-10.62s6.9,4.33,6.87,10.62-2.79,10.62-6.87,10.62S297.4,199.32,297.4,193Zm67.27,14.17H330.19v2.26h34.48Zm-30.29-8h25.94V179.8h-2.65v7.3H337.11v-7.3h-2.73Zm2.73-2.18v-7.72h20.56V197Zm58.07-14.29v-3H392.4v3c0,6.8-8.12,12.41-14,13.56l1.28,2.31c5.33-1.34,11.77-5.44,14.16-11.2,2.39,5.78,8.88,9.88,14.17,11.2l1.32-2.31C403.37,195.18,395.18,189.49,395.18,182.75Zm-18.43,26.62h34.47v-2.26H376.75Zm67.3-11.73H420.93v-6.57h21.89v-2.22H420.93V182.7h22.65v-2.26H418.2V199.9h25.85Zm-30.42,12h34.48v-2.31H413.63ZM481.45,177h-2.64V214.7h2.64Zm-28.76,5.89h14.68v8.49H452.74v14.08h3.11a118.57,118.57,0,0,0,19.25-1.41l-.26-2.3a113.59,113.59,0,0,1-19,1.4h-.34v-9.51h14.55V180.61H452.69Zm54.13-3.07H489.41v16.21h17.41ZM492,193.8V182.06h12.21V193.8Zm1.28,13.61c0,4.52,4.8,7.12,12.68,7.12s12.58-2.6,12.58-7.12-4.84-7.1-12.58-7.13S493.29,202.91,493.29,207.41Zm2.69,0c0-3,3.84-4.93,10-4.95,6,0,9.92,1.9,9.94,4.95s-3.95,4.93-9.94,5C499.82,212.34,496,210.44,496,207.41Zm19.67-7.72h2.69V177h-2.69Zm52.78,7.68H552.52v-9.43h-2.69v9.43H534v2.3h34.47ZM535.75,197l1.15,2.17c5.29-1.17,11.89-5,14.27-10.47,2.37,5.42,9,9.19,14.36,10.35l1.15-2.18c-5.86-1-14.16-6.19-14.16-12.42V183h13v-2.35H536.82V183h12.93v1.49C549.75,190.68,541.49,196,535.75,197Zm66.11-20h-2.68v11.82H590.3v2.3h8.88V205h2.68Zm-30.38,21.16,1.2,2.18c10.58-3.54,17.69-10.88,17.71-20.4h-17v2.26h14.06C586.76,189.47,580.4,195.18,571.48,198.19Zm6.75,15.58h24.61V211.5H581v-9.43h-2.73Zm73.64-6.4H636v-9.43h-2.69v9.43H617.4v2.3h34.47ZM619.19,197l1.15,2.17c5.29-1.17,11.88-5,14.27-10.47,2.37,5.42,9,9.19,14.36,10.35l1.15-2.18c-5.86-1-14.16-6.19-14.16-12.42V183h13v-2.35H620.26V183h12.92v1.49C633.18,190.68,624.93,196,619.19,197Zm47.3-7.6v-3.5h8.79v-2.21h-8.75v-6.06h-2.69v6.06H655v2.21h8.87v3.5A18.29,18.29,0,0,1,654,205.19l1.62,2.05a20,20,0,0,0,9.58-12.12,19.25,19.25,0,0,0,9.19,11.44l1.62-2.1A17.66,17.66,0,0,1,666.49,189.4Zm14.08,25.26h2.68V195.08h6.49v-2.35h-6.49V177h-2.68ZM730.15,177h-2.69v27.9h2.69V191H736v-2.3h-5.8Zm-28.46,11.9c0,5.44,4.16,9.22,9.77,9.22s9.71-3.78,9.73-9.22-4.16-9.13-9.73-9.13S701.67,183.51,701.69,188.89Zm2.64,0c0-3.88,3.08-6.76,7.13-6.78a6.81,6.81,0,1,1-7.13,6.78Zm2.52,24.88H732V211.5H709.5V202h-2.65Zm30.4-9.86.43,2.35A134.72,134.72,0,0,0,757.35,205l-.17-2c-2.5.3-5.4.52-8.32.64v-7.8h6.82v-2.27H742V183.26h13.31V181h-16v14.85h6.87v7.91C743,203.87,739.77,203.91,737.25,203.91ZM759,212.57h2.52V195.16h5.25v19.5h2.6V177h-2.6v15.91h-5.25v-15H759Zm50.07-5.2h-8.87V196.83c3.22-1.65,5.16-4.31,5.16-7.68,0-5.78-5.63-9.56-13.65-9.6s-13.61,3.82-13.61,9.6c0,3.41,2,6.12,5.29,7.74v10.48h-8.79v2.3h34.47Zm-28.41-18.22c0-4.4,4.63-7.36,11.05-7.34s11.09,2.94,11.09,7.34-4.69,7.31-11.09,7.29S780.67,193.46,780.67,189.15ZM786,207.37v-9.48a22.63,22.63,0,0,0,11.48,0v9.5Zm29.17,4.18a2.26,2.26,0,0,0,2.26-2.26,2.31,2.31,0,0,0-2.26-2.31,2.34,2.34,0,0,0-2.31,2.31A2.29,2.29,0,0,0,815.21,211.55Zm48-31.15H849.43v-4.05h-2.65v4.05h-14v2.22h30.42ZM831,200.8h34.31v-2.22H849.43v-3.44c6.85-.19,10.71-2,10.71-5.4,0-3.56-4.38-5.44-12.08-5.46S836,186.18,836,189.74c0,3.35,3.9,5.23,10.79,5.4v3.44H831Zm3.67,5.5h23.3v8.36h2.69V204.17h-26Zm4.14-16.56c0-2.15,3.46-3.45,9.3-3.45s9.33,1.3,9.35,3.45-3.5,3.44-9.35,3.42S838.74,191.94,838.76,189.74Zm42-2.09V180.4h-2.69v7.25c0,7.07-5.12,14.25-10.41,16.77l1.75,2.26c4.31-2.24,8.32-7.21,10-13a21.42,21.42,0,0,0,10,12.35l1.66-2.13C886,201.41,880.79,194.48,880.81,187.65Zm15.23,27h2.69V177H896Zm35.68-13.82c-7.71,0-12.36,2.5-12.33,6.83s4.62,6.87,12.33,6.91S944,212.08,944,207.71,939.4,200.86,931.72,200.88Zm-15.58-4.27h17.33V179.33h-2.65v6.11h-12v-6.11h-2.65Zm2.65-2.26v-6.74h12v6.74ZM922,207.71c0-2.88,3.73-4.63,9.69-4.65s9.68,1.77,9.68,4.65-3.73,4.67-9.68,4.65S922,210.59,922,207.71Zm19-7.9h2.69V189.06h5.8v-2.34h-5.8V177H941ZM955.93,179h-2.69v17.11H970.1v-7.25h9.51v8.74h2.69V177h-2.69v9.47H970.1V179h-2.69v6.19H955.93Zm0,14.85v-6.49h11.48v6.49Zm2.43,20.31h23.9V199.47h-2.65v5H961v-5h-2.65Zm2.65-2.26v-5.21h18.6v5.21Zm58-34.82h-2.69V214.7h2.69Zm-29.4,16c0,7.94,4,13,9.51,13s9.52-5.07,9.52-13-4-13-9.52-13S989.66,185.11,989.66,193Zm2.6,0c0-6.29,2.84-10.6,6.91-10.62s6.9,4.33,6.87,10.62-2.79,10.62-6.87,10.62S992.26,199.32,992.26,193Zm54.87,9.6v-2.35h-2.6v2.35c0,3.58-3.13,7.7-7.85,9.47l1.41,2.05a13.72,13.72,0,0,0,7.68-7.23,12.18,12.18,0,0,0,7.17,7.53,13.36,13.36,0,0,0,7-7.64,13.11,13.11,0,0,0,7.86,7.34l1.36-2.05c-4.8-1.66-7.87-5.61-7.85-9.47v-2.35h-2.65v2.35c0,2.94-2.06,6.91-5.8,9.15A10.58,10.58,0,0,1,1047.13,202.63ZM1035.7,188c0,5.16,4,8.66,9.73,8.66s9.7-3.5,9.73-8.66-4.06-8.73-9.73-8.71S1035.68,182.83,1035.7,188Zm2.6,0c0-3.69,3-6.42,7.13-6.4s7.1,2.71,7.12,6.4-3,6.4-7.12,6.4S1038.3,191.75,1038.3,188ZM1063,198.62h2.69V177H1063Zm25.75-20.91c-8.27,0-13.18,2.33-13.18,6.53s4.91,6.61,13.18,6.61,13.19-2.34,13.19-6.61S1097,177.71,1088.71,177.71Zm-17.11,18.18h34.31v-2.22H1071.6Zm4.23,5.72h23v3.84H1076v8.74h26.62V212h-24v-4.43h22.83v-8.07h-25.56Zm2.47-17.37c0-2.75,4-4.44,10.41-4.44s10.46,1.69,10.46,4.44-4,4.5-10.46,4.52S1078.3,187.1,1078.3,184.24Zm59.85-7.21h-2.65v37.63h2.65V195.08h6v-2.26h-6Zm-29.62,27.39,2.22,1.54c6.87-7.17,9.18-16.26,9.22-24.79H1109.6v2.3h7.83A31.53,31.53,0,0,1,1108.53,204.42Zm10.88,2.56,2.27,1.5c7.12-8.22,8.57-18.95,8.62-27.31h-9.18v2.3h6.62C1127.48,191.11,1125.6,200.18,1119.41,207Zm60.44.39H1171V196.83c3.22-1.65,5.16-4.31,5.16-7.68,0-5.78-5.63-9.56-13.65-9.6s-13.61,3.82-13.61,9.6c0,3.41,2,6.12,5.29,7.74v10.48h-8.79v2.3h34.47Zm-28.41-18.22c0-4.4,4.63-7.36,11-7.34s11.09,2.94,11.09,7.34-4.69,7.31-11.09,7.29S1151.44,193.46,1151.44,189.15Zm5.37,18.22v-9.48a22.63,22.63,0,0,0,11.48,0v9.5Zm31.56-5.59v.72h2.94v-.72c.06-3.37,1-4.91,3.71-6.66s4.27-4,4.27-7.13c0-4.6-3.46-8-8.53-8-4.82,0-8.6,3.15-8.75,8.15h3.07a5.47,5.47,0,0,1,5.68-5.55,5.24,5.24,0,0,1,5.59,5.25c0,2.34-1.26,4-3.42,5.37C1190,195.14,1188.43,196.87,1188.37,201.78Zm-.73,7.51a2.29,2.29,0,0,0,2.31,2.26,2.27,2.27,0,0,0,2.26-2.26,2.29,2.29,0,1,0-4.57,0Z"/><g class="cls-6"><path class="cls-7" d="M979.58,853.11c-.78,2.37-1.5,4.58-2.27,6.76a9.73,9.73,0,0,1-.91,1.93.87.87,0,0,1-1.16.38,1,1,0,0,1-.63-1.07,5.33,5.33,0,0,1,.28-1c5.66-17.32,10.15-35,15.15-52.49,1.76-6.18,3.45-12.38,5.82-18.37a45.48,45.48,0,0,1,2.79-5.8,9.21,9.21,0,0,1,2.26-2.63c2.06-1.6,4.25-1,5.11,1.43a12.58,12.58,0,0,1,.46,5.82,65.83,65.83,0,0,1-4.69,16.44c-3.93,9.68-8,19.3-12,29q-3.79,9.15-7,18.54c-.75,2.18-.88,2.2-3.14,1.13Z"/><path class="cls-8" d="M1017.42,861.77a10.45,10.45,0,0,0-7.89-9.13c-2.87-.8-5.66-.33-8.69.38-.22-1.79-.35-3.3-.61-4.78-.65-3.71-2.63-6.15-6.46-7a34,34,0,0,0-6.65-.64c-11.44-.17-22.89-.21-34.33-.28-1.77,0-1.77,0-2,2.1a3.09,3.09,0,0,1-.77,1.38,28.15,28.15,0,0,0-3.38,7,64.3,64.3,0,0,0-2.75,11.45,209.79,209.79,0,0,0-2,28.33c-.12,6.26.09,12.52-.3,18.78a4.41,4.41,0,0,1-1.38,3.61h4c7.77.09,15.55.15,23.32.28,9.47.16,18.94.06,28.41.45a29.41,29.41,0,0,0,6.15-.3c1.87-.31,3.41-1.49,3.37-2.6-.07-1.81-1.57-2.25-2.92-2.68a62,62,0,0,0-7.85-1.69,46,46,0,0,1-7.63-1.61c.93-2.21,1.87-4.22,2.63-6.3a7.24,7.24,0,0,1,3.11-3.81,76.88,76.88,0,0,0,14.67-12.06c3.56-3.81,6.77-7.87,8.73-12.77a16.41,16.41,0,0,0,1.23-8.13Zm-10.25,5.13a13.79,13.79,0,0,1-2.71,4.58,39.31,39.31,0,0,1-8.07,7.23c.33-1.27.72-2.54,1-3.83.77-3.56,1.59-7.13,2.22-10.71a2.7,2.7,0,0,1,1.95-2.52c1.7-.52,3.42-1.47,5,0s1.17,3.41.58,5.23Z"/><path class="cls-9" d="M769.57,894.59c-23.23,1.09-46.47.48-69.71.53a114.78,114.78,0,0,1-16.24-1h-.27a308.92,308.92,0,0,0-31.33-.43,157.43,157.43,0,0,0-16.12,1.82c-4,.59-8.11,1-12.18,1.38a99.84,99.84,0,0,1-16.3.32c-4.61-.34-9.25-.09-13.85-.84a13.29,13.29,0,0,0-6.38.26,2.52,2.52,0,0,1-1.05.14c-2.79-.43-5.16.8-7.25,2.26-5.12,3.6-10.56,3.75-16.34,2.24a42.8,42.8,0,0,0-14.25-1.7c-3.8.3-7.64.15-11.42.87a52.25,52.25,0,0,1-6.38.51c-3.54.25-7.11.63-10.66.62a70.13,70.13,0,0,1-19.24-2.47c-3.91-1.11-8-1.39-11.92-2.73a46.9,46.9,0,0,1-15.39-9,64.19,64.19,0,0,1-12.36-14,71.16,71.16,0,0,1-9.72-23.62,68.07,68.07,0,0,1-1.64-14.29c0-3.67-.09-7.35,0-11,.11-3.29.51-6.55.91-9.82q.57-4.64,1.16-9.25c.74-5.83,1.79-11.59,2.91-17.35q2.52-12.94,5.26-25.86c1.73-8.17,3.56-16.33,5.41-24.48,1.59-7,3.24-14,5.2-21a210,210,0,0,1,8.66-25.29c2.69-6.34,5.68-12.54,8.88-18.62a154.1,154.1,0,0,1,11.54-18.64c3.18-4.41,6.11-9,9.3-13.4,4.43-6.13,9-12.13,13.91-17.94a66,66,0,0,1,16.16-13.86,48.12,48.12,0,0,1,20-7.11c6.3-.72,12.63-1.48,18.92-.9a133.45,133.45,0,0,0,17.65.3c5.62-.24,11.26-.09,16.85-.5a138.89,138.89,0,0,0,29.56-5.4,7.76,7.76,0,0,1,1.27-.4,5.44,5.44,0,0,0,5-4,16,16,0,0,1,7.64-9.29,13,13,0,0,1,8.45-1.3,53.78,53.78,0,0,0,10,1.19c7.33-.07,14.67-.14,22,0a40.71,40.71,0,0,1,14.53,3.12c6.66,2.7,10.67,7.83,13.06,14.41a31.45,31.45,0,0,1,1.15,3.84c.35,1.59.85,1.8,2.52,1.45a17.36,17.36,0,0,1,6.1,0c3.08.42,6.16.79,9.23,1.3a183.63,183.63,0,0,1,19,4.07,170.81,170.81,0,0,1,21.8,7.24c3.45,1.48,6.71,3.32,10,5.1,4.56,2.46,9.27,4.61,13.86,7a66.75,66.75,0,0,1,21.36,17.52c6.05,7.49,10.46,15.91,14.42,24.64,4.5,9.92,8,20.23,12,30.34,2.25,5.63,4.95,11.08,6.67,16.92,1.56,5.3,3.33,10.53,4.64,15.91,1,4,3.13,7.59,5.24,11.09,6.05,10,12.91,19.47,19.55,29.08,6.24,9,12.37,18.13,17.95,27.57a201.78,201.78,0,0,1,17.22,36.24,153.27,153.27,0,0,1,6,23.25,84.41,84.41,0,0,1,1.62,17.52c-.09,2.57,1.13,4.85,2,7.17,1.73,4.73,3.07,9.43,1.87,14.57-.33,1.44-.33,3-.73,4.46-.75,2.77-2.92,4-5.23,2.44-3.4-2.31-7.29-2.1-11-2.77-4.7-.88-9.51-1.15-14.27-1.68-.27,0-.53,0-.8,0q-12.84-.69-25.7-.55c-4.38,0-8.79.29-13.15-.07-6.69-.54-13.39-.14-20.06-.54-6.22-.38-12.47-.42-18.65-1.12-2.82-.31-5.71,0-8.48-.8-2.2-.66-2.23-.67-1.12-2.71.63-1.14.4-1.58-.92-1.72a7.12,7.12,0,0,0-.8,0c-11.43-.18-22.85-.64-34.29-.65-4.44,0-8.89-.51-13.36-.47Z"/><path class="cls-10" d="M696,684c.28,10.84.15,21.67-.05,32.5-.11,5.73-.2,11.46-.24,17.19q-.13,26.33-1.22,52.62c-.89,20.94-2.9,41.76-7.92,62.18a225.28,225.28,0,0,1-9.23,29.7,11.18,11.18,0,0,1-1.61,3.08c-1.17,1.41-2.48,1.4-3.51-.13a17.46,17.46,0,0,1-1.43-2.87,56,56,0,0,0-12.45-18.3c-3.69-3.52-8-5.74-13.15-5.89-.82-2.52.22-4.95.52-7.37,5.63-44.33,14.07-88.2,22.17-132.11a250,250,0,0,1,7.87-30.68c1.07-3.36,1.53-3.54,4.7-1.67a18.39,18.39,0,0,0,10.68,3C692.83,685.09,694.2,683.83,696,684Z"/><path class="cls-10" d="M643.4,854.12c-1.67.28-3.35.52-5,.85-4.31.85-5.82-.24-6-4.64a74.72,74.72,0,0,1,.72-14.18c3.58-25.75,9.87-50.9,16.66-75.94,5.74-21.16,12.38-42,19.6-62.73a5.6,5.6,0,0,1,1.06-2.42c1,1,.52,2.21.24,3.31-6.75,27.06-10.47,54.7-15.52,82.08-2.9,15.76-5.7,31.55-7.81,47.45-.91,6.83-1.79,13.67-2.53,20.53a13.9,13.9,0,0,1-1.35,5.69Z"/><path class="cls-10" d="M676.74,677.29a56.45,56.45,0,0,1-5.13-17.14c-.76-4.81-3.26-8.47-6.42-11.76-1.05-1.1-1.13-2.36-1.68-3.52-.13-.25,0-.89.15-1,1.58-.77,2.11-2.62,3.62-3.45a4.28,4.28,0,0,1,5,.21,7,7,0,0,1,1.55,1.47c2.84,4.1,6.94,6.92,10.44,10.35,4.11,4,9.18,5.33,14.76,5a10.37,10.37,0,0,0,4.78-1.62,31.55,31.55,0,0,0,5.44-4.33c.52-.49,1-1,1.57-1.46,2.46-2.1,4.11-2.31,5.63-.72,1.95,2,2.24,5.44.56,7.34a12.41,12.41,0,0,1-2.22,1.93,17.82,17.82,0,0,0-6.17,7.6,45.76,45.76,0,0,1-6.9,11.14,29.28,29.28,0,0,1-5.61,5.34c-6.91,3.64-12.64.69-18.17-3.3-.69-.5-1.49-1-1.21-2.14Z"/><path class="cls-11" d="M676.74,677.29A21.63,21.63,0,0,0,688,683.6a7,7,0,0,0,5.67-.87,1.93,1.93,0,0,1,2.45,0c-.06.42-.11.83-.17,1.25-2.74,2.58-6.07,2.3-9.34,1.7a19.94,19.94,0,0,1-6.86-3,6,6,0,0,0-2.5-1.3c-1.39,4.69-2.9,9.34-4.15,14.06-3.89,14.67-6.73,29.56-9.25,44.53-2.14,12.66-4.55,25.28-6.75,37.94-2.09,12-4,24.1-6.1,36.15-1.54,9.07-2.58,18.2-3.83,27.3-.58,4.23-.76,8.54-2,12.67a1.57,1.57,0,0,1-1.74.07,4.12,4.12,0,0,1-.07-1.82c.83-6.18,1.53-12.38,2.37-18.57.92-6.8,1.87-13.6,2.94-20.37,1.27-8,2.66-16,4-24,1.24-7.2,2.53-14.39,3.8-21.59,1.41-8,2.85-16,4.22-24,2.69-15.73,5.47-31.44,9.49-46.89a11.5,11.5,0,0,0,.19-1.86l0,0c.54-.41.09-1.16.53-1.61.05-.18.09-.36.14-.54s.15-.68.38-1c.94-3,1.88-6.07,2.83-9.11a17.6,17.6,0,0,0,.85-3.87,1.65,1.65,0,0,1,1.65-1.72Z"/><path class="cls-12" d="M670.89,693.5c.07.62.08,1.22-.53,1.61A1.8,1.8,0,0,1,670.89,693.5Z"/><path class="cls-12" d="M671.41,692a.82.82,0,0,1-.38,1A.89.89,0,0,1,671.41,692Z"/><path class="cls-11" d="M690.18,690.87a65.53,65.53,0,0,0-.29,13.8c.4,6.52.2,13,.37,19.55a19.12,19.12,0,0,1-.06,2.14,1,1,0,0,1-1.07,1,1,1,0,0,1-1-1,5.51,5.51,0,0,1-.05-.81c-.1-4.19-.54-8.37-.48-12.57.1-6.08.06-12.16,0-18.23a38.54,38.54,0,0,1,.42-4.8c.09-.74.18-1.53,1.11-1.51s1,.83,1,1.57c0,.27,0,.54,0,.91Z"/><path class="cls-11" d="M685.17,677.72c.21,1.32,0,1.94-.7,2.11s-1-.42-1.28-1.05c-.64-1.69-.49-3.5-.86-5.25-.76-3.55-1.25-7.16-1.86-10.75-.05-.26-.18-.51-.22-.76-.17-.89,0-1.67,1-1.8.88-.11,1.26.55,1.41,1.3.36,1.82.73,3.65,1,5.49.56,3.78,1.06,7.56,1.5,10.71Z"/><path class="cls-13" d="M772.37,479.71a22.63,22.63,0,0,1-1.9,4.81,10,10,0,0,1-7.34,5.29,7.06,7.06,0,0,1-3.15-.22c-2.3-.68-3-2.12-2.08-4.3a7.17,7.17,0,0,1,.48-1c2.56-4.41,1.21-8.08-1.53-11.34a17.94,17.94,0,0,0-6-4.37c-3.55-1.7-7.3-2.9-11-4.27a97.62,97.62,0,0,1-18.76-9.11,54.47,54.47,0,0,1-19.24-20.87c-.29-.55-.61-1.09-.93-1.62,0-.07-.14-.08-.43-.23a42,42,0,0,0-5.78,10.91,87.36,87.36,0,0,0-3.44,12.68c-1.62,8.21-6.4,13.77-13.68,17.48a59.11,59.11,0,0,1-6.35,2.84c-2.73,1-4,2.9-4.39,5.81-.52,4.18-.21,8.41-.91,12.57a28.12,28.12,0,0,1-.6,2.87c-.25.91-.74,1.66-1.82,1.69a2,2,0,0,1-2-1.56,24.5,24.5,0,0,1-1.06-3.31c-.79-3.49-1.5-7-2.27-10.49-.63-2.9-1.87-5.4-4.66-6.84a2.68,2.68,0,0,1-1.36-3.18A26.46,26.46,0,0,0,650,458.82a48,48,0,0,1-1.89-34.58c2.6-8.24,7.4-14.94,15.31-18.83,8.34-4.1,16.55-3.75,24.32,1.71.28.2.59.37,1,.59a72.48,72.48,0,0,1,5.57-9.21c7.36-10.1,16.45-18.08,28-23a36.83,36.83,0,0,1,31.6.59,63.67,63.67,0,0,1,12.67,8c4.68,3.75,9.13,7.77,13.44,11.93a177.25,177.25,0,0,0,31,23.77,77.39,77.39,0,0,1,15.73,12,40.41,40.41,0,0,1,5,6.26,22.11,22.11,0,0,1-3,28.28c-1.49,1.51-3.15,2.87-4.84,4.4a9.76,9.76,0,0,0,1.39.44c6.21,1,9.75,6.59,10.22,12.2A21.76,21.76,0,0,1,834,493.56,33.49,33.49,0,0,1,824.9,506c-3.09,2.71-6.3,5.3-9.38,8a173.67,173.67,0,0,0-16.29,16.71,43.46,43.46,0,0,1-5,5.25c-2.72,2.26-4.64,1.55-5.19-1.9-.47-3.05.28-6.05.47-9.08a126.81,126.81,0,0,1,2.62-17.21,10.5,10.5,0,0,0-3.63-10.61L784.86,494a60,60,0,0,1-11-12.46,4.72,4.72,0,0,0-1.54-1.85Z"/><path class="cls-14" d="M791.27,518.19c.88-.26,1.43-1,2.32-1.31,2-.63,3.82-.13,4.79,1.71a8,8,0,0,1,1,4.92c-.47,3.17-.92,6.35-1.56,9.5-.69,3.41-1,6.87-1.43,10.32-.21,1.68-.8,3.28-.91,5a12.06,12.06,0,0,0,5-4.36,18.06,18.06,0,0,0,2.61-12.06,81.06,81.06,0,0,0-4.25-17.1,49.92,49.92,0,0,1-1.9-8.06,9.72,9.72,0,0,1,.8-6,3.42,3.42,0,0,1,5.57-1.13,9.56,9.56,0,0,1,2.44,3.49c1.1,2.43,2.17,4.87,3.26,7.34,1.1,0,1.75-1.49,3-.82a4.4,4.4,0,0,1,1.94,2.49c3.2,8.63,6.19,17.24,6.15,26.7,0,5.61.3,11.25.47,16.88.17,5.29-1.83,9.77-4.66,14a79.52,79.52,0,0,1-9.07,10.58c-4.46,4.64-9.15,9.06-13.33,14a45.49,45.49,0,0,0-5.51,7.57,5.13,5.13,0,0,0-.4,4.33c1.92,6.13,3.64,12.32,5.5,18.47,1.82,6,1,11.82-.85,17.62a139.2,139.2,0,0,1-12.71,28,35,35,0,0,1-9.17,10.05c-1.92,1.47-3,1.26-3.88-1-1.38-3.39-2-7-2.9-10.56-2.53-10-4.26-20.22-6-30.42-1-6.15-2.1-12.29-3.3-18.41a29.64,29.64,0,0,0-1.91-5.85,33.15,33.15,0,0,1-.41-25.55,2.18,2.18,0,0,0,.06-.56c-.71-.16-1.13.41-1.56.73-6.26,4.61-13.47,6.83-20.93,8.42-2,.43-4,.7-6.06,1-2.38.39-2.37.38-2.91,2.86-1,4.79-2.14,9.57-3.17,14.36A42.32,42.32,0,0,1,711.31,630c-4.65,7-9.29,14-14.35,20.72a13.88,13.88,0,0,1-2.57,2.73c-3.29,2.5-5.78,2.9-9.06-.78a29.93,29.93,0,0,1-3.9-6.09c-1.8-3.39-3.62-6.77-5.43-10.17-2.82-5.3-6.58-10-9.72-15.09a32,32,0,0,1-4.86-16.47c-.19-8.16,1.73-15.93,3.52-23.75.9-3.91,1.78-7.82,2.74-11.71a2.52,2.52,0,0,0-.23-2.26c-3.77-5.76-5.7-12.28-7.47-18.84a120.81,120.81,0,0,1-3.93-24.51c-.16-2.76-.37-5.52-.44-8.29a2.53,2.53,0,0,0-2.78-2.82,18.59,18.59,0,0,1-9.66-2.71c-3.63-2.21-5.67-5.65-7-9.53a23.11,23.11,0,0,1,.22-16.75,15.68,15.68,0,0,1,8.24-8.42,12,12,0,0,1,6.58-.63,5.91,5.91,0,0,1,4,2.5c2.17,2.77,3,6,3.66,9.38s1.2,6.68,2.69,9.78c.2.41.35.82.89,1,1-.67,1-1.83,1.18-2.82.47-2.91.83-5.83,1.13-8.75a24.87,24.87,0,0,1,1.16-5.21,8.67,8.67,0,0,1,4.79-5.49c2.27-1,4.59-2,6.83-3.1,4.6-2.27,8.46-5.4,10.67-10.14,1.44-3.08,2-6.45,2.89-9.73a73.16,73.16,0,0,1,6.65-17.76,17.72,17.72,0,0,1,1.78-2.67c.76-.91,1.51-.83,2.16.17a12.49,12.49,0,0,1,.83,1.68c3.26,7.08,8.54,12.53,14.39,17.44,7.78,6.54,16.9,10.6,26.34,14.05a76.5,76.5,0,0,1,11,4.85c5.1,2.84,8.67,10.26,5,16.37-.35.59-.93,1.3-.4,2a2.53,2.53,0,0,0,2.45.74c3.52-.39,5.78-2.6,7.58-5.39a18.85,18.85,0,0,0,2.1-4.33c.34-1,1-1.12,1.82-.41a5.79,5.79,0,0,1,1,1.28c3.45,6,8.51,10.54,13.8,14.83,4.18,3.4,5.68,7.73,5.09,13-.39,3.43-1.47,6.75-1.44,10.26Z"/><path class="cls-15" d="M545.35,809.38a62.82,62.82,0,0,1,18.3,14.41c5.21,6,11.65,8.57,19.36,8.79a57.58,57.58,0,0,1,13.25,1.78,26.55,26.55,0,0,1,9.23,4.15c3.89,2.92,6,6.65,4.67,11.64a1.93,1.93,0,0,0,1.28,2.51,19.17,19.17,0,0,1,3,1.78,12.72,12.72,0,0,1,2.11,2c.64.77,1.25,1.8.25,2.6s-1.57-.18-2.11-.94a12,12,0,0,0-4.46-3.35c-2.83-1.56-3.06-2-2.42-5.09.84-4-.68-7-3.89-9.27-3.58-2.54-7.69-3.7-11.94-4.49-4.76-.88-9.61-.82-14.39-1.47a22.13,22.13,0,0,1-13.4-6.7,110.35,110.35,0,0,0-12.42-11.44c-8-6.15-17.2-8.85-27.16-9.46a82.14,82.14,0,0,0-33.42,4.93l-.76.27a1.09,1.09,0,0,1-1.54-.63,1.06,1.06,0,0,1,.59-1.34,5.7,5.7,0,0,1,1-.45c15.49-5.75,31.25-7.19,47.38-3.14.95.23,1.87.59,2.8.91s1.68.58,2.56.89a20.79,20.79,0,0,0,2.49-5.66,85.18,85.18,0,0,0,3.76-23.51c.24-6.63.06-13.25,0-19.88a199.78,199.78,0,0,1,3-36.07c2.26-13.59,4.63-27.16,6-40.89.93-9.55,1.43-19.11-.29-28.63a66.88,66.88,0,0,0-5-16.11,13.76,13.76,0,0,1-.85-2.24A1.12,1.12,0,0,1,553,634a1,1,0,0,1,1.19.37,9.21,9.21,0,0,1,.93,1.62c5.25,11.28,7.11,23.21,6.48,35.55-.83,15.94-3.26,31.67-6,47.37-2.6,14.84-4.26,29.75-3.59,44.88a152.08,152.08,0,0,1-.48,22.28C550.65,794.13,549.07,802,545.35,809.38Z"/><path class="cls-15" d="M760.77,689c.62,1.15,1,1.94,1.47,2.71a35.91,35.91,0,0,1,4.49,13.11c.52,3.26.82,6.58,2.52,9.54.44.77.49,1.63-.48,2s-1.3-.33-1.7-.92a12.26,12.26,0,0,1-1.66-4.23c-.3-1.4-.62-2.8-.81-4.22a38.73,38.73,0,0,0-5.33-15.62c-3.57-5.7-4.76-12.06-5-18.7a95,95,0,0,1,2.66-24.75c.06-.27.11-.53.19-.78.25-.92.63-1.77,1.76-1.67s1.14,1,1.31,1.8c1.68,7.42,3.76,14.74,4.87,22.28.59,4,1.57,7.9,4.39,11.06,1,1.14.59,2.37-.19,3.45-2,2.79-4.49,4.81-8.47,4.89Z"/><path class="cls-15" d="M714,649.9a8.79,8.79,0,0,0-2.46,2.13,61.81,61.81,0,0,1-8.35,6.71,18,18,0,0,1-2.09,1.2,1.07,1.07,0,0,1-1.59-.45,1.09,1.09,0,0,1,.42-1.4,5.16,5.16,0,0,1,.67-.44,54.93,54.93,0,0,0,11.1-9.24c.79-.84,1.66-1.62,2.52-2.4a3.7,3.7,0,0,1,1.86-1c.83-.12,1.73-.18,2.08.75s-.32,1.44-1.22,1.6a1.93,1.93,0,0,0-1.2.78c2.81,3,3.78,7,4.79,10.86.59,2.25,1.1,4.52,1.73,6.76a6.55,6.55,0,0,0,1.56,3.18,5.19,5.19,0,0,0,1.57-3.07,37.82,37.82,0,0,0,1.13-9.3c.15-10.21-.58-20.39-.91-30.59-.15-4.55-.13-9.12-.69-13.66A30.31,30.31,0,0,0,724,607c-.26-.83-.24-1.72.73-2s1.43.54,1.67,1.35a41.37,41.37,0,0,1,1.32,10.08q.75,17.56,1.35,35.14a59.9,59.9,0,0,1-1,13.63,13.2,13.2,0,0,1-1.6,4.52c-1.54,2.47-3.74,2.49-5.25,0a15.69,15.69,0,0,1-1.69-4.5c-.78-3.12-1.44-6.28-2.32-9.37C716.64,653.71,716,651.45,714,649.9Z"/><path class="cls-15" d="M645.82,652.89a195.34,195.34,0,0,0,.77-23.58c-.18-5.73-.82-11.43-.83-17.17a97.59,97.59,0,0,1,.69-13.67c0-.36.09-.72.13-1.07.09-.85.32-1.76,1.35-1.62s.94,1.14.84,1.94a113.76,113.76,0,0,0-.34,21.2c.36,5.53.78,11.07.78,16.63,0,6.19-.68,12.34-1,18.51a16.79,16.79,0,0,0,.32,5.61c.5,1.71,1.39,2.12,3,1.35a11.07,11.07,0,0,0,3.47-2.92,40.57,40.57,0,0,0,4.91-7.68c1.51-2.84,2.9-5.76,4.58-8.5,3-4.95,6.17-5.16,9.91-.72,1.38,1.64,2.59,3.43,3.85,5.17.46.64.63,1.36-.13,1.88s-1.38.14-1.86-.48c-1.14-1.49-2.21-3-3.38-4.51-2.92-3.65-4.26-3.57-6.63.52-1.69,2.94-3.18,6-4.79,9a33.41,33.41,0,0,1-5.67,8.11,11.73,11.73,0,0,1-3.21,2.4c-3.15,1.49-5.75.26-6.52-3.12a14.07,14.07,0,0,1-.28-2.67c0-1.43,0-2.87,0-4.61Z"/><path class="cls-16" d="M728.93,410.57a30.34,30.34,0,0,0-17.1,5.46,18.81,18.81,0,0,1-1.78,1.17.9.9,0,0,1-1.2-.23,1,1,0,0,1,0-1.25,7.18,7.18,0,0,1,1.37-1.27c10.46-7.05,21.38-8.77,32.83-2.55,7.74,4.2,13.85,10.36,19.49,17a98.49,98.49,0,0,1,20.71,42c.23,1,.9,2.43-.45,2.82-1.66.47-1.61-1.31-1.9-2.29-1.81-6.28-3.35-12.64-6.13-18.59-6.51-13.92-15.4-26-27.63-35.41A32.5,32.5,0,0,0,734,411a28,28,0,0,0-5.08-.46Z"/><path class="cls-17" d="M707.64,558a10.44,10.44,0,0,1,4.43.88c3.93,1.57,6,4,6.33,9.32.17,3.16-2,5.49-5.14,5.14a36.4,36.4,0,0,1-13.35-3.7c-3.7-2-4-5.11-.95-8.09a11.48,11.48,0,0,1,8.68-3.55Z"/><path class="cls-15" d="M794.65,624a3.59,3.59,0,0,1,2.56,1.51,32.81,32.81,0,0,1,5.06,8.17c2.3,5.07,3.68,10.45,5.21,15.77,1.16,4,2.46,8,3.9,12,2,5.41,5.75,8.19,11.46,8.51a47.58,47.58,0,0,1,5.31.68,24.42,24.42,0,0,1,15,8.59c4.21,4.93,7.26,10.61,10.5,16.17.38.65.59,1.43-.15,1.92s-1.52.06-2-.69c-.61-1-1.22-2-1.77-3a117.68,117.68,0,0,0-6.27-10,24.23,24.23,0,0,0-19-11,39,39,0,0,1-6.08-.95,11.42,11.42,0,0,1-7.5-5.61,43.32,43.32,0,0,1-3.88-9.4c-1.84-6-3.58-12-5.42-18a34.16,34.16,0,0,0-3.49-7.81c-1.12-1.83-2.12-3.76-4-4.91a1,1,0,0,1-.46-1.38,1.06,1.06,0,0,1,1-.55Z"/><path class="cls-13" d="M716.26,488.45a37.42,37.42,0,0,1-16.08-4.25,11.47,11.47,0,0,1-4.4-3.84,2.26,2.26,0,0,1-.3-2.52,2.37,2.37,0,0,1,2.35-1,12.6,12.6,0,0,1,1.82.41,82.88,82.88,0,0,0,20.11,2.87,11.42,11.42,0,0,1,3.18.45c2.81.81,3.41,3.58,1.25,5.59A7.62,7.62,0,0,1,720.1,488C718.69,488.28,717.26,488.35,716.26,488.45Z"/><path class="cls-13" d="M774.77,520.85h-.26c-5.35-.45-14.79-5.49-17.5-13-.91-2.55-.6-4.69.9-5.64,2.06-1.31,3.75-.17,5.39,1a21.15,21.15,0,0,1,3.48,3.34,52.68,52.68,0,0,0,9.61,8.9,5.35,5.35,0,0,1,.81.7c.78.82,1.92,1.52,1.42,2.91s-1.81,1.58-3,1.82a4.37,4.37,0,0,1-.81,0Z"/><path class="cls-18" d="M753.53,588.08a1,1,0,0,1-1-1.28,8.39,8.39,0,0,1,.82-2,51.89,51.89,0,0,1,13.58-16.07c1.79-1.48,3.62-2.92,5.49-4.3a19.23,19.23,0,0,0,7.78-12.38c1.13-5.79,2.42-11.55,3.77-17.29a61.09,61.09,0,0,1,4.79-13.06,11.9,11.9,0,0,1,1.1-1.82,1,1,0,0,1,1.4-.31,1,1,0,0,1,.37,1.4c-.11.24-.2.5-.32.74-3.56,6.91-5.33,14.38-6.85,21.93-.69,3.41-1.45,6.82-2.17,10.22a19.22,19.22,0,0,1-7,11.41c-2,1.56-3.94,3.09-5.89,4.65-5.7,4.57-10.65,9.79-14,16.36-.39.77-.7,1.7-1.82,1.76Z"/><path class="cls-16" d="M818.39,463.45c-.16,1.79-.34,4-.54,6.24a9.76,9.76,0,0,1-.19,1.32c-.21.82-.51,1.67-1.57,1.4-.84-.21-1-1-.81-1.75a45.33,45.33,0,0,0,.5-5.33c1.24-11-3.4-20.14-13.07-25.51-5-2.79-10.49-4.5-16-6.08-3.43-1-6.89-1.85-10.34-2.77-.6-.16-1.21-.32-1.8-.53a1.07,1.07,0,0,1-.85-1.2c.11-.81.75-.9,1.41-.85a5.24,5.24,0,0,1,.79.15c7.95,2,16,3.83,23.58,7,5.34,2.26,10.1,5.32,13.64,10.06,3.85,5.16,5.28,11,5.22,17.82Z"/><path class="cls-16" d="M739.64,385.5a43.84,43.84,0,0,1,17,3.78,82,82,0,0,1,8.45,4.06,12.47,12.47,0,0,1,1.37.83,1.09,1.09,0,0,1,.48,1.39,1.1,1.1,0,0,1-1.58.55,29.26,29.26,0,0,1-2.64-1.29c-5.51-2.8-11.11-5.45-17.28-6.39-10.11-1.52-19.14.83-26.7,8-.6.57-1.06,1.64-2.18,1-.76-.41-.53-1.43.73-2.7A30.86,30.86,0,0,1,734.68,386a21.45,21.45,0,0,1,5-.49Z"/><path class="cls-18" d="M816.42,538.06a29.1,29.1,0,0,1-5.95,21.14,7.73,7.73,0,0,1-.86,1,1,1,0,0,1-1.22.19,1.11,1.11,0,0,1-.62-1.34,5.31,5.31,0,0,1,.75-1.41c5.17-6.64,6.18-14.25,5.32-22.34a87.46,87.46,0,0,0-3-16.84,26,26,0,0,0-1.88-4.72,1,1,0,0,1,.21-1.42,1.11,1.11,0,0,1,1.64.31,10,10,0,0,1,1.54,3.1,75,75,0,0,1,4,20.71c0,.53,0,1.07.08,1.6Z"/><path class="cls-16" d="M681.36,418.9a35.74,35.74,0,0,1,7,.88c.51.15,1,.32,1.51.52s1.19.66,1,1.38c-.25.89-1,.92-1.75.64a21.08,21.08,0,0,0-8.45-1,23.79,23.79,0,0,0-18.14,9c-1,1.24-2,2.56-2.93,3.84-.52.68-1.17,1.29-2,.66s-.4-1.3,0-1.93c4.68-7.21,10.81-12.33,19.61-13.57C678.6,419.11,680,419,681.36,418.9Z"/><path class="cls-19" d="M965.09,906.39c4.29,0,8.57,0,12.86,0,2.4,0,4.82.25,7.19-.43.73-.21,1.5-.12,1.73.76s-.37,1.33-1.08,1.61a7.91,7.91,0,0,1-2.9.41c-3.83,0-7.67,0-11.51,0-7.59-.08-15.17-.2-22.76-.31a6.77,6.77,0,0,1-2.64-.34,1,1,0,0,1,.13-1.81,9.37,9.37,0,0,1,1.59-.1h17.4v.25Z"/><path class="cls-18" d="M719.18,544c-2.36.07-4.46-1-6.53-2-.69-.35-1.16-.92-.69-1.74s1-.56,1.64-.29a22.59,22.59,0,0,0,3.73,1.47,5.57,5.57,0,0,0,6.68-2.6,17.53,17.53,0,0,0,1.92-4.42c1.33-4.36,2.6-8.74,4-13.09.29-.94.3-2.31,1.84-2.24.92,0,1.13,1,.54,3q-2,6.81-4.18,13.58a16.34,16.34,0,0,1-2.28,4.83,7.57,7.57,0,0,1-6.63,3.5Z"/><path class="cls-15" d="M781.93,711.73c-.69-.1-1-.59-.75-1.31a1.86,1.86,0,0,1,.63-.82C789,703.72,794,696.15,798.3,688c.62-1.19,1.23-2.38,1.86-3.56a2.46,2.46,0,0,1,1-1.19,1,1,0,0,1,1.54.9,3,3,0,0,1-.44,1.52c-4.24,8.76-9.39,16.88-16.53,23.59-.78.74-1.65,1.37-2.5,2a1.91,1.91,0,0,1-1.34.43Z"/><path class="cls-15" d="M516.34,728.34c.95-.06,1.3.58,1.66,1.21a56.51,56.51,0,0,0,6.21,8.39,81.56,81.56,0,0,0,13.19,12.13,18.15,18.15,0,0,1,1.83,1.56,1,1,0,0,1,.17,1.44,1.12,1.12,0,0,1-1.65.3c-.22-.14-.46-.26-.68-.42a77.14,77.14,0,0,1-20.48-21.32,10.59,10.59,0,0,1-1-1.89,1,1,0,0,1,.73-1.4Z"/><path class="cls-20" d="M707.77,511.23a19.34,19.34,0,0,1-14.7-8.06,2.44,2.44,0,0,1-.57-2.71,1.19,1.19,0,0,1,2.12-.3,2.28,2.28,0,0,1,.26.46c2.55,5.26,7.33,6.63,12.56,7.16a33.47,33.47,0,0,0,3.47,0,1.37,1.37,0,0,1,1.56,1.13c.16.84-.36,1.32-1,1.68A8,8,0,0,1,707.77,511.23Z"/><path class="cls-18" d="M648.29,484.15c3.87-.23,6.6,3.73,5.72,7.61-.32,1.41-1.21,2-3,2.15-1.1.1-2.57-.44-3.12.9s.67,2.29,1.31,3.32c.52.83,1.15,1.59,1.62,2.45a1.09,1.09,0,0,1-1.66,1.33c-1.78-1.89-3.61-3.79-3.84-6.56a3.31,3.31,0,0,1,2.56-3.63,15.57,15.57,0,0,1,1.57-.32c.8-.18,2,.51,2.31-.7a3.39,3.39,0,0,0-.82-3,3.05,3.05,0,0,0-4-.88c-.72.34-1.43,1.1-2,0s.3-1.65,1.07-2.15A4.27,4.27,0,0,1,648.29,484.15Z"/><path class="cls-15" d="M575.92,680.72c-.35,1.21-.78,2.76-1.24,4.28a58.92,58.92,0,0,1-8.6,17.11,4.68,4.68,0,0,1-1.42,1.58,1,1,0,0,1-1.24-.07.93.93,0,0,1-.24-1.21,14.66,14.66,0,0,1,.86-1.35,59,59,0,0,0,9.06-19.52,14.21,14.21,0,0,1,.55-1.79c.23-.59.59-1.11,1.35-1s1,.66.93,2Z"/><path class="cls-20" d="M758.2,534.43a18.93,18.93,0,0,1-13.6-7.08,3.08,3.08,0,0,1-.86-2.19,1.15,1.15,0,0,1,.67-1.07,1.18,1.18,0,0,1,1.25.18,2.38,2.38,0,0,1,.51.62c3.12,4.34,7.55,6.07,12.69,6.37.8,0,1.61,0,2.41,0s1.63.31,1.73,1.32-.65,1.16-1.34,1.42A11.77,11.77,0,0,1,758.2,534.43Z"/><path class="cls-16" d="M661.28,465.58c-.76,0-1.26-.14-1.42-.75a1,1,0,0,1,.72-1.26,5.11,5.11,0,0,1,.76-.23,36.66,36.66,0,0,0,15.81-9.66c.76-.75,1.53-1.49,2.35-2.18a1.09,1.09,0,0,1,1.67.05,1.19,1.19,0,0,1,0,1.48,2.2,2.2,0,0,1-.33.41c-5.28,5.49-11.24,9.88-18.69,12a8.74,8.74,0,0,1-.89.17Z"/><path class="cls-18" d="M728.11,493.46c-.94,0-1.56-.11-1.66-.9s.39-1.07,1.08-1.27a29.44,29.44,0,0,0,3.55-1.16,12.43,12.43,0,0,0,6.49-6.1c.42-.84.8-2.15,2-1.55,1.43.69.51,1.85,0,2.75-2.24,4.48-6.08,6.87-10.75,8.12A3.73,3.73,0,0,1,728.11,493.46Z"/><path class="cls-16" d="M810,500.52a8.37,8.37,0,0,1-2.87-.26,1,1,0,0,1-.57-1.1.9.9,0,0,1,.68-.73,2.69,2.69,0,0,1,.8-.09,34.29,34.29,0,0,0,12.44-2.66c.88-.33,2-1,2.49.37.38,1.1-.72,1.46-1.56,1.79A38.4,38.4,0,0,1,810,500.52Z"/><path class="cls-18" d="M795.34,551.42a24,24,0,0,1-2.38,5.84,1,1,0,0,1-1.35.53,1,1,0,0,1-.64-1.32q1.15-3.13,2.44-6.22a1,1,0,0,1,1.32-.55c.72.32.67,1,.6,1.72Z"/><path class="cls-19" d="M995.44,883.59c.82,0,1.25.5,1.09,1.19a18.12,18.12,0,0,1-2.64,6,.86.86,0,0,1-1.18.25,1,1,0,0,1-.58-1.09,11.78,11.78,0,0,1,.68-2c.49-1.14,1-2.26,1.52-3.4a1.48,1.48,0,0,1,1.11-1Z"/><path class="cls-19" d="M1001.89,859.78a18.72,18.72,0,0,1-.24,2.35,1,1,0,0,1-1.21.79,1,1,0,0,1-.85-.9,13.14,13.14,0,0,1,.26-4.24,1,1,0,0,1,1.21-.8.93.93,0,0,1,.82.91c0,.62,0,1.24,0,1.88Z"/><path class="cls-14" d="M672.8,885.83c.26,2.23-.39,4.41-.61,6.63-.28,2.68-1.93,4.25-4.61,4.88-3,.68-6,1.09-8.94,1.56a190,190,0,0,1-22.37,1.81c-5.23.19-10.53.17-15.69,1.41a33.9,33.9,0,0,0-7.08,2.38,8.35,8.35,0,0,1-6.74.41,94.58,94.58,0,0,1-21.18-10.19A13.29,13.29,0,0,1,579.64,883a24.85,24.85,0,0,1,3.51-12.23c3-5.14,7.57-8.28,12.91-10.39a41.06,41.06,0,0,1,14.07-2.87,98,98,0,0,0,17.45-2.29,125.1,125.1,0,0,1,14.75-2.37c5.23-.44,9.86,1.48,13.92,4.62,7.27,5.61,12.16,13,15.43,21.51a15.26,15.26,0,0,1,1.12,6.84Z"/><path class="cls-18" d="M718.4,610.87a53.83,53.83,0,0,1-20.8-6.44,72.57,72.57,0,0,1-27.89-27.14c-1.14-1.92-2.22-3.87-3.33-5.81-.09-.15-.2-.3-.29-.45a2.1,2.1,0,0,1,0-2.51c.31-.44,2.94,0,3.37.49,1.46,1.68,2.87,3.42,4.38,5.07,7.83,8.51,16.71,15.59,27.5,20a61.15,61.15,0,0,0,17.09,4c4,.4,4.15.45,3.85,4.55-.14,1.91.41,4.11-1.39,5.66a.77.77,0,0,0-.16.46,2.08,2.08,0,0,1-2.31,2.08Z"/><path class="cls-17" d="M787.21,531c-3.25-2-6.48-4.12-9.81-6a8.34,8.34,0,0,1-2.85-2.32,29.93,29.93,0,0,0-9.15-8.56A38.06,38.06,0,0,0,739,509.85a3.34,3.34,0,0,1-3.5-1.11,14,14,0,0,0-8.61-4.53,2.43,2.43,0,0,1-2.09-1.74c-3.4-8.23-9.8-13.32-17.85-16.41-7-2.67-14-2.3-21,.23a15.47,15.47,0,0,1-9.68.66c-4.22-1.17-8.52-2-12.79-3-1.13-.26-2.27-.47-3.42-.62-.64-.08-1.3.07-1.4.89a1.06,1.06,0,0,0,.91,1.15c.77.22,1.56.37,2.35.56,5.47,1.28,11,2.55,16.43,3.88,2.28.55,2.38.83,1.64,3.12a33.58,33.58,0,0,0-1.52,10.42,27.42,27.42,0,0,0,3,12.83c4.35,8.82,16.25,14.28,26.32,10.09a26,26,0,0,0,10.66-8.34,47.12,47.12,0,0,0,5.64-10c.8-1.78.93-1.86,2.82-1.49a13.7,13.7,0,0,1,7.31,4.24,1.88,1.88,0,0,1,.39,2.56,41.84,41.84,0,0,0-4.31,13.49c-1,7.38,1,13.63,6.91,18.39a30.88,30.88,0,0,0,4.93,3.25c9.63,5.07,21.12,3.72,28.62-5.89a24.63,24.63,0,0,0,5-10.58c.62-3.28,2.61-4.4,5.38-2.06a17.64,17.64,0,0,0,5,3.07,1.09,1.09,0,0,0,1.58-.52,1,1,0,0,0-.54-1.37Zm-65-24.8c-1.8,4-3.65,8-6.55,11.35a23,23,0,0,1-7.78,6.05c-9.52,4.44-21-.29-25.08-10.3-2.66-6.52-2.4-13.11-.5-19.71a7.63,7.63,0,0,1,5.84-5.7,37.24,37.24,0,0,1,8.5-1.36c11.14.84,19.95,5.49,25.43,15.64a4.17,4.17,0,0,1,.14,4Zm51.94,21.54c-1,10.08-8,19.06-17.34,20.84-1.13.21-2.3.26-3.38.38A24.37,24.37,0,0,1,735.61,540c-2.62-3.09-3.41-6.92-3.21-10.83a40.33,40.33,0,0,1,4.07-14.93,3.83,3.83,0,0,1,3.26-2.4c13.39-1.53,25.09,1.31,33.42,12.92A4.09,4.09,0,0,1,774.12,527.73Z"/><path class="cls-15" d="M593.6,851.29a9.4,9.4,0,0,1,1.24.09.85.85,0,0,1,.71.71.88.88,0,0,1-.53,1.09,10.41,10.41,0,0,1-1.81.45c-13.4,2.27-24.31,8.5-31.91,20-1,1.57-2,3.19-3,4.77-.48.75-1,1.73-2.07,1.18s-.54-1.55-.11-2.33c5-9.28,11.92-16.7,21.56-21.29a46.63,46.63,0,0,1,15.93-4.69Z"/><path class="cls-18" d="M643.83,860c.56.11,1.19.2,1.79.36a50.58,50.58,0,0,1,19.65,10,25,25,0,0,1,5.9,6.9,17.38,17.38,0,0,1,.82,1.68,1.12,1.12,0,0,1-.5,1.6,1.21,1.21,0,0,1-1.61-.54,8.9,8.9,0,0,1-.68-1.15,23.47,23.47,0,0,0-6.11-7.05,49.33,49.33,0,0,0-18.25-9.27c-.51-.15-1.06-.2-1.56-.37-.71-.24-1.38-.63-1.07-1.54.25-.72.94-.69,1.62-.62Z"/><path class="cls-18" d="M631.42,869.86c7,1.06,13.81,2.89,19.16,8,5,4.79,10.07,9.62,15.24,14.29a8.91,8.91,0,0,1,1.53,1.83,1.06,1.06,0,0,1-.26,1.45,1.18,1.18,0,0,1-1.48,0,2.63,2.63,0,0,1-.39-.35c-4-4.15-8.73-7.42-12.5-11.73a32.75,32.75,0,0,0-20.57-11c-.53-.08-1.06-.19-1.58-.3s-1.22-.44-1.14-1.22.71-.92,1.38-.92Z"/><path class="cls-18" d="M623.7,880.42A23.8,23.8,0,0,1,639.79,886c3.51,2.89,7.37,5.36,10.56,8.64.25.26.53.49.78.74.66.65,1.38,1.41.5,2.26s-1.67.13-2.3-.53c-3.35-3.52-7.44-6.13-11.14-9.21a22.44,22.44,0,0,0-15.37-5.22c-1.16,0-2.32,0-3.48,0-.68,0-1.26-.26-1.32-1-.08-1,.65-1.2,1.4-1.22,1.42,0,2.85,0,4.28,0Z"/><path class="cls-21" d="M756.48,912.24c-9.79,0-18.92.24-28,0-23.51-.73-47,0-70.54-.59-14.84-.37-29.67-.22-44.51-.35a4.26,4.26,0,0,1-1.83-.23c-2.56-1.26-3.77-2.44-1.06-4.9,1.46-1.31,2.92-2.51,5.14-2.5a15.67,15.67,0,0,0,3.86-1c6.47-1.68,13.08-2.62,19.66-3.75q8.28-1.42,16.61-2.59a101.28,101.28,0,0,0,10.53-1.71c.77-.2,1.55-.42,2.31-.66a4.24,4.24,0,0,0,3.06-3.69c1.47-8.6,2.92-17.21,4.43-25.82,1.32-7.46,2.75-14.89,4.06-22.35,1.54-8.69,3-17.39,4.52-26.08,1.5-8.51,3.1-17,4.61-25.52,1.34-7.54,2.61-15.1,4-22.65,1.73-9.74,3.57-19.46,5.19-29.21a45.84,45.84,0,0,0,.92-7.9,12.53,12.53,0,0,1,2.74-7.45,20.6,20.6,0,0,1,9.35-7.38,4,4,0,0,1,2.1-.25c3.9.73,7.84.3,11.76.41,3.76.11,7.53-.12,11.27.11,9.56.6,19.13.1,28.67.61,8.59.46,17.17,0,25.72.51,8.94.55,17.89,0,26.8.55,8.67.52,17.35,0,26,.53,8.84.55,17.7,0,26.52.54s17.71,0,26.53.54,17.88,0,26.8.55c8.57.53,17.16.06,25.72.52,4.37.24,8.74.23,13.1.41a8.65,8.65,0,0,1,8,10.43c-.79,4.29-1.26,8.64-1.86,13-.62,4.5-1.2,9-1.82,13.52s-1.29,9.17-1.95,13.76-1.29,9-1.92,13.5-1.21,8.83-1.83,13.25c-.65,4.58-1.33,9.17-2,13.75s-1.19,9-1.81,13.53-1.28,8.81-1.9,13.23-1.23,9-1.85,13.51q-.88,6.5-1.79,13-1,7-2,14c-.81,5.82-1.64,11.65-2.44,17.47-.64,4.59-1.29,9.19-1.84,13.79-.3,2.51-1,3.25-3.58,3.26-5.81,0-11.64.21-17.44-.1-13.67-.72-27.35-.22-41-.41-7.87-.12-15.75.16-23.61-.11-22.71-.77-45.42,0-68.12-.6-12-.33-24,0-35.26-.43Z"/></g></g></g></svg>