<svg xmlns="http://www.w3.org/2000/svg" viewBox="0 0 4244 1770.64"><defs><style>.cls-1{opacity:0.35;}.cls-2,.cls-3{fill:#9b2ec1;}.cls-2{fill-rule:evenodd;}.cls-3{opacity:0.3;isolation:isolate;}</style></defs><g id="Layer_2" data-name="Layer 2"><g id="Ñëîé_1" data-name="Ñëîé 1"><g class="cls-1"><path class="cls-2" d="M1541.09,944.4c0-481.78,388-873.07,865.73-873.07s865.74,391.29,865.74,873.07H3115.15c0-394.47-317.17-714.33-708.33-714.33S1698.5,549.93,1698.5,944.4Zm865.73-555.58c-304.58,0-550.92,248.42-550.92,555.58h157.41c0-219.06,176.29-396.84,393.51-396.84s393.52,177.78,393.52,396.84h157.41C2957.75,637.24,2711.4,388.82,2406.82,388.82Zm78.7,737.34c69.27-31,118.06-100,118.06-181.76,0-109.53-88.15-198.43-196.76-198.43s-196.75,88.9-196.75,198.43c0,81,48.79,150.8,118,181.76v261.91l-268.38,270.66,111,111.91,236.11-238.11,236.12,238.11,111-111.91-268.38-270.66Z"/></g><path class="cls-3" d="M1167.39,1104.45l-29.92-27.24C1031.19,980.85,961,917.3,961,839.3c0-63.56,49.93-113.49,113.48-113.49,35.91,0,70.37,16.71,92.87,43.12,22.48-26.41,56.94-43.12,92.85-43.12,63.55,0,113.5,49.93,113.5,113.49,0,78-70.17,141.55-176.43,238.12Z"/><path class="cls-3" d="M3904.22,1070.6,3855,1025.74C3680,867.06,3564.42,762.41,3564.42,634c0-104.65,82.24-186.88,186.9-186.88,59.11,0,115.86,27.52,152.9,71,37-43.49,93.77-71,152.9-71C4161.77,447.09,4244,529.32,4244,634c0,128.44-115.53,233.09-290.52,392.11Z"/><path class="cls-3" d="M376.27,909l-54.56-49.66C127.93,683.65,0,567.76,0,425.53,0,309.64,91.06,218.58,207,218.58c65.47,0,128.31,30.48,169.32,78.64,41-48.16,103.85-78.64,169.32-78.64,115.89,0,206.95,91.06,206.95,206.95,0,142.23-127.93,258.12-321.71,434.21Z"/><path class="cls-3" d="M3325,327l-25.83-23.52C3207.43,220.26,3146.84,165.37,3146.84,98c0-54.88,43.13-98,98-98,31,0,60.78,14.43,80.19,37.25C3344.47,14.43,3374.23,0,3405.24,0c54.88,0,98,43.13,98,98,0,67.36-60.59,122.25-152.37,205.65Z"/></g></g></svg>