<svg xmlns="http://www.w3.org/2000/svg" viewBox="0 0 2900.41 2108.1"><defs><style>.cls-1{opacity:0.5;}.cls-2{fill:#ff4b2b;}</style></defs><g id="Layer_2" data-name="Layer 2"><g id="Ñëîé_1" data-name="Ñëîé 1"><g class="cls-1"><path class="cls-2" d="M2711.3,799.56,2283.81,714.8,2536.42,246c53-97.68-11.28-218.6-128.51-241.85-58.62-11.62-120,1.41-166.64,35.23L1521.81,563.71l-404.24-80.15L917.18,1494.17l404.25,80.16,101.06,20,953,189c107.12,21.24,213.53-28,253.58-118.82L2884.74,1085C2936.88,965.08,2853.8,827.82,2711.3,799.56ZM1341.47,1473.27l-303.19-60.12,160.31-808.49,303.19,60.11Zm1448.64-430.16-255.66,579.52c-19.72,46.5-78.27,71.66-138.92,59.63l-953-189,172.53-870.15,687.37-500.22c23.41-17.41,55.13-23.73,85.44-17.72,26.28,5.21,48.33,21.14,57.66,42.95,5.07,11.5,9.95,29.28-.32,49.3l-252.6,468.78-66.28,122.36,136.44,27,427.48,84.76c41.44,8.22,77.46,33.21,94.88,67.13C2795.26,985.32,2803.39,1013.19,2790.11,1043.11Z"/></g><g class="cls-1"><path class="cls-2" d="M465.45,1052.47,340.6,1110,318.3,943.51c-4.55-34.75-43.35-53.73-77.59-38-17.11,7.89-30.38,22.58-36,39.85l-86.63,267.08L0,1266.86,136,1562,254,1507.63,283.52,1494l278.33-128.2c31.28-14.41,49.33-46.7,42.74-77.29l-42-195.31C553.69,1053,507.06,1033.3,465.45,1052.47Z"/></g><g class="cls-1"><path class="cls-2" d="M969,1948.14l-70.4-37.63,69.24-68.69c14.49-14.29,9.67-38.91-9.63-49.22a39.33,39.33,0,0,0-31.07-2.71l-154,53.54-66.56-35.59-89,166.41,66.56,35.59,16.65,8.9,156.92,83.89c17.64,9.43,38.91,6.46,50.76-7.31l75.68-87.93C999.69,1989.16,992.45,1960.68,969,1948.14Z"/></g></g></g></svg>