<svg xmlns="http://www.w3.org/2000/svg" xmlns:xlink="http://www.w3.org/1999/xlink" viewBox="0 0 940.64 866.4"><defs><style>.cls-1{fill:none;}.cls-2{opacity:0.9;}.cls-3{clip-path:url(#clip-path);}.cls-4{fill:#c4c4cb;}.cls-5,.cls-6,.cls-7{fill:#4b4545;isolation:isolate;}.cls-5{opacity:0.5;}.cls-6{opacity:0.7;}.cls-7{opacity:0.4;}.cls-8{fill:#323232;}.cls-9{fill:#ff3d4a;}.cls-10{fill:#a78b8b;}.cls-11{fill:#4f4f50;}.cls-12{fill:#2e2d2d;}.cls-13{fill:#f8f8f8;}.cls-14{fill:#393939;}.cls-15{fill:#5e5c68;}.cls-16{fill:#1e1c1c;}.cls-17{fill-rule:evenodd;fill:url(#radial-gradient);}.cls-18{fill:#bf3c3c;}.cls-19{fill:#d38f6a;}.cls-20{fill:#c1865f;}.cls-21{fill:#9e653b;}.cls-22{fill:#2e303e;}.cls-23{fill:#504d5c;}</style><clipPath id="clip-path" transform="translate(0.69 -12.07)"><rect class="cls-1" width="953.64" height="878.13"/></clipPath><radialGradient id="radial-gradient" cx="773.2" cy="-264.74" r="1.98" gradientTransform="matrix(0, 33.04, 197.64, 0, 52730.71, -24725.99)" gradientUnits="userSpaceOnUse"><stop offset="0" stop-color="#1e1e1e"/><stop offset="1" stop-color="#484848" stop-opacity="0"/></radialGradient></defs><g id="Layer_2" data-name="Layer 2"><g id="Layer_1-2" data-name="Layer 1"><g class="cls-2"><g class="cls-3"><path class="cls-4" d="M132.58,525.32c-73.49,0-133.27-60.09-133.27-134S59.09,257.42,132.58,257.42s133.27,60.09,133.27,134a133.32,133.32,0,0,1-39.18,94.86l5.48,29.39-27.31-11.69A132.18,132.18,0,0,1,132.58,525.32Z" transform="translate(0.69 -12.07)"/><path class="cls-5" d="M100.47,477.31c46.71,9,92-21.8,101-68.74s-21.69-92.48-68.4-101.52-92,21.8-101,68.74S53.77,468.27,100.47,477.31Zm32.2-168.1c45.52,8.81,75.42,53.2,66.66,98.94s-52.93,75.81-98.45,67S25.46,422,34.23,376.2,87.16,300.4,132.67,309.21Z" transform="translate(0.69 -12.07)"/><path class="cls-6" d="M154.36,407.3c-22.59-.55-43.13-18-66.07-11.06-8.53,2.57-16.09,8.74-16.91,18.18-1,12,8.31,21.74,18,27.06a108.87,108.87,0,0,0,15.88,6.77c6.4,2.31,12.82,4.6,19.34,6.56,11.84,3.55,24.31,6.08,36.72,4.79,10-1.05,20.06-4.52,27.92-11a37.47,37.47,0,0,0,13.43-25.94c1.71-20.7-10.67-40.2-27.45-51.18-10-6.55-21.33-10.73-32.86-13.63a223.1,223.1,0,0,0-32.66-5.67c-9.26-.89-19.09-.95-27.95,2.3s-15.87,10.47-17.54,20.07c-1.73,9.93,1.82,20.45,8,28.21,7.07,8.9,17.92,14.2,28.57,17.38a139.46,139.46,0,0,0,35.12,5.7c11.63.36,23.54-1.52,33.38-8.11,8.71-5.83,14.83-15,15.13-25.74.28-10.27-4.2-20.31-10.81-28-7.74-9-18.75-14.37-30-17.43a134.72,134.72,0,0,0-34.67-4.47c-8.95,0-19.66,1.25-25.53,8.93-7.21,9.45-2.54,22.52,4.59,30.46a78.19,78.19,0,0,0,13.34,11.21,162.91,162.91,0,0,0,16,10.36c9.42,5.1,21.2,8.13,31.23,2.79,10.76-5.72,11.73-18.52,10.19-29.35-1.6-11.26-4.54-23.61-11.59-32.75-6.35-8.23-17.55-14.09-27.83-10-7.67,3.08-12.55,10.89-14.33,18.72-4.82,21.07,12.9,37.19,29.72,46.06,10.18,5.38,22.94,11.24,34.61,7.61,10.18-3.18,17.11-13.24,12.18-23.67-5.38-11.37-18.53-14.63-29.65-17.31l-19.33-4.65c-6-1.43-11.89-3.14-17.92-4.19-4.41-.76-9.55-1.23-13.67,1-5,2.7-6.14,8.66-4.38,13.76,1.93,5.59,6.88,9.27,11.84,12,5.25,2.93,10.76,5.44,16.22,7.94q18.11,8.29,37,14.81c8.6,3,20.78,7.31,28.74.54,8.52-7.25,4.38-20.81-.84-28.7a54.07,54.07,0,0,0-22.88-19.26c-9.11-4.08-19.55-5.6-29.31-3.16A37,37,0,0,0,116,370c-10.67,14.93-10.67,37.49,6.16,48,8.38,5.21,19.53,6.32,27.81.3,7.3-5.31,11.76-15.43,8.8-24.31-3.33-10-13.86-15-23.17-18-11.85-3.78-24.25-6.27-36.47-8.48q-9.72-1.75-19.53-3c-5.5-.7-11.12-1.61-16.68-1.38-4.29.18-9.12.93-12.5,3.82-3.66,3.13-4.16,8.2-2,12.36,2.29,4.4,6.54,7.74,10.65,10.34C64.4,393,70,396,75.57,398.93a304.86,304.86,0,0,0,34.63,15.51c6.22,2.33,12.52,4.51,18.89,6.38,4.1,1.2,8.76,2.19,13,1.07,5.29-1.41,7.17-6.64,5-11.47-2.35-5.18-7.18-8.75-11.58-12.07a184.61,184.61,0,0,0-31.73-19.28c-5.5-2.63-11.15-5-16.88-7.06-5.16-1.87-10.61-4-16.11-4.48-5.26-.49-11.06,1.5-12.21,7.31-1,5,1.62,10.31,4.27,14.35,3.28,5,7.74,9.21,12,13.38q6.72,6.62,13.94,12.7c8.24,6.93,16.89,14,26.82,18.34,8,3.51,18.17,5.75,25.93.46,9.13-6.23,9-17.93,5.63-27.37-3.74-10.45-11.14-19-19.17-26.37a111.28,111.28,0,0,0-28.76-19.19c-9-4.16-18.71-7.42-28.76-7.08-8.86.3-18.07,3.84-21.48,12.74-4.35,11.37,2.58,23.2,10.7,30.74,9,8.37,19.92,15,30.27,21.57,11,6.94,22.27,13.44,33.83,19.36,9.44,4.83,20.38,9.68,31.22,7.81s18.44-11.2,21-21.62c2.85-11.72-.31-24-4.51-35a129,129,0,0,0-15.2-28.39,131.3,131.3,0,0,0-21.4-23.58c-7.62-6.58-16.08-12.68-25.3-16.78-8.26-3.68-17.78-6.07-26.83-4.51a22.81,22.81,0,0,0-18.87,18.93C61.93,346.46,66.16,358,71,367.79A192.63,192.63,0,0,0,88.22,395.9a199.4,199.4,0,0,0,46.34,45.33,191.49,191.49,0,0,0,28.1,16.33c10.16,4.81,22.47,9.8,33.33,4.15,7.64-4,12.19-12,14.33-20.15,2.42-9.19,2-18.65-.26-27.82-5.37-21.85-19.24-40.57-35.56-55.54a258.36,258.36,0,0,0-29.07-22.54c-10.15-6.92-20.41-14.12-31.28-19.86-10.39-5.48-22.72-9.34-34-4.23-8.51,3.85-14.35,11.83-17.82,20.3-7.64,18.62-4.57,40.44,2.71,58.65,7.83,19.55,20.89,36.71,35.56,51.59,15.19,15.39,33.5,31.24,55.21,35.75,10.42,2.16,21.49,1,30.69-4.61,8.31-5.1,14.44-13.18,18.06-22.19,8.16-20.26,1.78-42.6-10.49-59.69-13.92-19.36-34.83-32-55.41-43.08C117.69,337,93.26,326.1,69.4,334.69c-9.72,3.5-18.15,10.21-22.53,19.75-4.67,10.16-4.41,22.11-1.12,32.64,6.93,22.21,26.93,37.38,45.42,49.73a302.19,302.19,0,0,0,32.64,18.95,247.61,247.61,0,0,0,35.81,15c11.16,3.51,23.29,5.43,34.61,1.48,8.65-3,15.9-9,21.42-16.26,11.79-15.54,15.49-35.9,12.56-55a89.3,89.3,0,0,0-27.12-51.38A76.08,76.08,0,0,0,148.33,329c-19.18.22-38.51,7.19-52.83,20.15a70.2,70.2,0,0,0-22.71,49.17c-.82,18.35,4.81,37.21,16.75,51.27,14.93,17.58,38.31,24.59,59.94,29.56,16.94,3.9,38.84,6.83,53.35-5.24,17.93-14.93,11.41-41.77.91-59C182.48,380,141.28,363.8,104,352.88c-10.76-3.15-22.71-7.5-34-5.23-10.18,2-19.11,10.45-17,21.57,2,10.33,11,18.13,18.7,24.4A254.29,254.29,0,0,0,102,414.69a258.06,258.06,0,0,0,66.79,27.79q8.91,2.31,18,4a88,88,0,0,0,16,1.89c4.66,0,9.55-.69,13.59-3.19A16.52,16.52,0,0,0,224,432.21c1-11.68-7.07-20.87-15.83-27.32-10.12-7.45-21.35-13.67-32.35-19.69a452.84,452.84,0,0,0-69.2-30.63q-18.15-6.29-36.79-11-9.39-2.37-18.86-4.33a65.64,65.64,0,0,0-15-1.78c-4.5.12-9.16,1-12.8,3.85-4.36,3.38-6.14,8.73-5.59,14.12C18.74,366.75,27,376.12,34.43,384a211.76,211.76,0,0,0,55.63,42.35c9.9,5.22,20.39,10.15,31.17,13.18,9.48,2.66,21.11,3.45,28-5.05,6.55-8.11,4.94-20.23,1.89-29.41-3.31-10-9.14-19.37-15.4-27.76A129.19,129.19,0,0,0,113.22,354a125.58,125.58,0,0,0-13.73-9.61c-4.48-2.71-9.32-5.72-14.36-7.23-2.11-.63-4.53-1.06-6.63-.21-2.66,1.07-3.69,3.73-3.33,6.43.74,5.57,5.28,10.13,8.89,14.05a136.06,136.06,0,0,0,24.88,21.19,137.77,137.77,0,0,0,60.8,22.17l-1.14,1.74a97.58,97.58,0,0,0-57.72-34.16c-5-.92-10.73-2-15.84-1-2.54.52-5,1.81-6.08,4.29-1.3,2.92-.11,6.2,1.41,8.78,2.85,4.83,7.53,8.58,11.77,12.14a143.58,143.58,0,0,0,52.68,27.95l-1.14,1.73a134.36,134.36,0,0,0-54.1-38.42l1.42-1.64a52.41,52.41,0,0,0,32.89,26.93c-.31.65-.63,1.31-.95,1.95a18.17,18.17,0,0,0-13.19-5.95l1-1.5A41.78,41.78,0,0,0,134,421.41l-1.85.93c-.35-3.77-3.74-6.16-7.27-6.65-4.37-.6-8.07,2.05-10,5.85-4.68,9.12.66,18.92,5.17,26.88.71,1.26-1.15,2.53-1.86,1.27-5.31-9.38-11.6-22.15-3.48-32a11.49,11.49,0,0,1,11.89-4c4,1.05,7.4,4.1,7.8,8.42a1.13,1.13,0,0,1-1.85.94,43.86,43.86,0,0,1-14-18.69,1.12,1.12,0,0,1,1-1.49,20.36,20.36,0,0,1,14.84,6.5c.68.74.24,2.28-.95,2a54.62,54.62,0,0,1-34.32-27.89,1.14,1.14,0,0,1,1.43-1.64,136.47,136.47,0,0,1,55,39.18,1.13,1.13,0,0,1-1.13,1.73,146.1,146.1,0,0,1-52.83-27.7c-4.79-3.95-10.1-8.16-13.24-13.64-2.43-4.25-3.33-9.74.55-13.45,3.6-3.44,9.15-3.37,13.75-3a97.75,97.75,0,0,1,35.47,10.21,99.65,99.65,0,0,1,32.35,26.05c.68.83-.26,1.84-1.13,1.74a140.18,140.18,0,0,1-67.4-26.57,137,137,0,0,1-14.16-12C83.6,360.39,79.09,356,76,351.09c-2.45-3.84-4.68-9.47-1.65-13.62,2.87-3.94,8-3.63,12.15-2.24,5.36,1.8,10.47,4.9,15.26,7.87a132,132,0,0,1,14.1,10.1,130.83,130.83,0,0,1,23.43,25.13c6.53,9.17,12.62,19.47,15.29,30.52,2.28,9.46,2.46,21-4.83,28.46-7.66,7.78-19.16,7.15-28.88,4.42-11.72-3.29-23.09-8.68-33.77-14.46a214,214,0,0,1-58.73-46.7C21.37,372.68,14,361.92,15.4,350.8c1.34-10.7,11.3-15.53,21-15.62a74.26,74.26,0,0,1,15.83,2q10.29,2.16,20.48,4.79,20.1,5.2,39.68,12.23a452,452,0,0,1,75.43,35.17c5.87,3.42,11.71,6.94,17.37,10.7a65.65,65.65,0,0,1,13.35,11.07c6.85,7.84,10.83,20.09,5.09,29.72-5.42,9.08-16.58,10.29-26.13,9.43-12.42-1.11-24.91-4.25-36.86-7.75A261,261,0,0,1,88.84,409Q80.73,403.57,73,397.54a101.83,101.83,0,0,1-13.29-11.87c-6.52-7.28-12-17.31-7.88-27.18,4.29-10.29,16.33-14.17,26.58-13.62,6.47.35,12.76,2.05,19,3.78q8,2.22,15.93,4.7c20.87,6.59,41.55,14.81,59.76,27.18,17.51,11.89,33.27,28.58,40.09,49.07,3.48,10.46,4.59,22.3.57,32.78A33.71,33.71,0,0,1,193,481.92c-9.34,3.22-19.55,3.19-29.26,2.05a185,185,0,0,1-33.89-7.77c-12.1-3.83-23.94-9-33.83-17.14A68,68,0,0,1,78.2,436.14,79.16,79.16,0,0,1,74,378.69c12.63-40.11,59.47-60.6,98.46-48.46,40.12,12.49,66.33,58.69,57.27,99.85-4.13,18.74-16,37.7-34.74,44.25-12,4.16-24.79,2.14-36.56-1.65a259,259,0,0,1-37.84-16.06A302.72,302.72,0,0,1,85.1,435.33c-10.13-7-20-14.72-28-24.14C49.58,402.4,44,392.11,41.92,380.63c-2-11-.47-22.88,5.81-32.3,6-9,15.69-14.75,26-17.31,11.84-2.95,24.06-1.76,35.65,1.79,13.37,4.09,25.82,10.85,38,17.7,11.37,6.4,22.5,13.41,32.36,22,17.09,14.91,30.94,36.07,30.8,59.54-.13,20.67-12.7,41.95-33.3,47.56-23.08,6.29-46.24-7.72-63.29-22.07-17.42-14.67-33.3-32.28-44.35-52.32-10.36-18.79-16.77-41.28-12.7-62.8,1.81-9.49,5.8-19,12.6-26a31.51,31.51,0,0,1,28.56-9c12.93,2.29,24.17,10.26,35,17.28A404.12,404.12,0,0,1,166.06,348C185,363.18,201.94,382.13,210,405.47c3.34,9.69,5.15,19.94,3.8,30.18-1.19,9-4.67,18.25-11.53,24.39-8.37,7.5-19.49,7.49-29.67,4.06-11.29-3.81-22.09-9.89-32.12-16.28a201.76,201.76,0,0,1-51.28-47,194.93,194.93,0,0,1-19.13-30.16c-5.27-10.29-9.86-21.92-8.68-33.72,1-10.09,7.47-18.77,17.19-21.84,9-2.84,18.84-1.15,27.5,2,10.11,3.65,19.3,9.9,27.59,16.67a134,134,0,0,1,23.22,24.54,131.62,131.62,0,0,1,16.56,30.28c4.41,11.41,7.69,24.27,4.72,36.46-2.5,10.31-9.55,19.85-20,22.79-11.14,3.13-22.81-1.22-32.78-6.1a383,383,0,0,1-35.68-20.19Q80.89,416,72.38,410.12c-5.31-3.69-10.66-7.42-15.3-11.95-8-7.82-14.14-19.36-10.68-30.8,2.77-9.14,11.12-14.1,20.14-15.28,10.11-1.33,20.17,1.36,29.46,5.18a113.28,113.28,0,0,1,31.74,19.82c8.5,7.52,16.44,16.29,20.78,26.94,3.7,9.1,5,20.59-2,28.51-6.46,7.35-16.46,8-25.34,5.49-10.65-3-19.66-9.64-28.24-16.42-10.34-8.17-20.65-17.18-29.15-27.32-5.52-6.59-12.11-19-3.83-26.16,3.79-3.27,9-3.34,13.72-2.47,6,1.11,11.9,3.4,17.57,5.58a186.2,186.2,0,0,1,36.11,18.64,122.14,122.14,0,0,1,15.41,11.46c3.52,3.24,7.2,7.63,7.48,12.66a9.76,9.76,0,0,1-6.46,9.67c-4.26,1.59-9.22.9-13.51-.2-13.08-3.37-26-8.58-38.28-14.08C80,404,67.78,398.12,56.81,390.76c-7.14-4.79-16-14-10-23.06,5.15-7.85,16.87-7.32,25-6.45a391.48,391.48,0,0,1,43.32,7.12c11.49,2.55,24.17,4.86,34.3,11.21,8.09,5.07,13.71,13.4,12.34,23.27-1.27,9.21-8.07,17.71-16.93,20.56-9.89,3.18-21-.25-28.48-7.15a31.92,31.92,0,0,1-10-25.06c.82-18.84,15-35.67,33.57-38.79,20.39-3.43,42.61,8.39,52.76,26.22,4.73,8.31,7.64,21,0,28.56-7.45,7.42-19.09,5-28,2.06a392.53,392.53,0,0,1-39.53-15.5c-6.2-2.81-12.5-5.61-18.42-9-4.59-2.64-9-6-11.45-10.88-2.13-4.3-2.68-9.78-.16-14.05,2.33-4,6.62-5.85,11-6.25,5.27-.46,10.49.83,15.58,2.05l21.48,5.17c12,2.88,26.6,4.7,35.59,14.07,7.13,7.43,9.23,18.68,1.87,26.76-8.23,9-21.07,9.06-31.9,5.53a92.66,92.66,0,0,1-30.2-16.52c-7.82-6.56-14.63-15.47-16.3-25.8a33.81,33.81,0,0,1,6-25c5.4-7.39,14.23-11.18,23.25-9.14,11.42,2.59,19.34,12.24,23.6,22.7A97.09,97.09,0,0,1,160,371.13a60.6,60.6,0,0,1,1.35,17.4c-.52,5.6-2.47,11.18-6.45,15.26a24,24,0,0,1-12.78,6.55c-12.19,2.33-23.64-3.41-33.54-10S87,386.71,81.18,375.82c-4.93-9.21-5.35-21.4,2.88-28.86,7.28-6.61,18.13-7.41,27.47-7.08,23.48.81,51,5.3,66,25.47,6.32,8.48,10.15,19.28,8.81,29.95-1.36,10.83-8.4,19.81-17.54,25.34-10.58,6.4-23.06,8-35.2,7.3a138.9,138.9,0,0,1-36.43-6.62c-10.93-3.68-21.67-9.7-28.38-19.39-5.74-8.27-8.77-19.06-6.57-29.05,2.1-9.62,9.2-16.89,18.21-20.36,9.37-3.6,19.83-3.53,29.67-2.58a214.64,214.64,0,0,1,35.65,6.45c12,3.27,23.69,8,33.81,15.36,16.8,12.2,28.49,33.78,24.8,55C200.51,449,179.16,461,158.17,462.08c-13.58.71-27-2.71-39.83-6.92-6.46-2.13-12.9-4.38-19.25-6.83a69.34,69.34,0,0,1-16.85-8.79c-8.16-6.12-14.53-16.31-12.88-26.89,1.39-8.91,8.41-15.13,16.56-18,9.34-3.31,19.33-2.75,28.75-.12,13.12,3.67,25.68,10.18,39.53,10.51,1.43,0,1.62,2.29.17,2.25Z" transform="translate(0.69 -12.07)"/><path class="cls-5" d="M50.2,358.34c-12.62,46.09,14.41,93.91,60.26,106.6s93.43-14.49,106.06-60.57-14.41-93.91-60.27-106.6S62.83,312.25,50.2,358.34Zm164.21,45.45c-12.31,44.91-58.68,71.4-103.37,59s-71-59-58.73-103.89,58.67-71.4,103.36-59S226.71,358.86,214.41,403.79Z" transform="translate(0.69 -12.07)"/><path class="cls-7" d="M132.57,417.45c2.31-22.59,21.2-41.8,16.14-65.33-1.88-8.75-7.41-16.82-16.71-18.37-11.78-2-22.21,6.62-28.24,15.88a110.81,110.81,0,0,0-8,15.38c-2.79,6.23-5.57,12.48-8,18.87-4.45,11.59-7.94,23.88-7.63,36.41.25,10.14,2.9,20.46,8.72,28.85a37.23,37.23,0,0,0,24.68,15.48c20.4,3.34,40.71-7.54,52.92-23.48,7.27-9.51,12.31-20.54,16.08-31.87A222.34,222.34,0,0,0,190.73,377c1.61-9.21,2.44-19.06-.08-28.18s-9.14-16.73-18.53-19.16c-9.72-2.51-20.43.23-28.62,5.8C134.12,341.85,128,352.3,124,362.73a141.7,141.7,0,0,0-8.4,34.74c-1.27,11.62-.33,23.7,5.43,34.08,5.1,9.19,13.74,16,24.34,17.18,10.17,1.09,20.48-2.62,28.6-8.64,9.52-7,15.73-17.66,19.65-28.71A137.27,137.27,0,0,0,200.79,377c.72-9,.29-19.81-6.86-26.28-8.81-8-22.14-4.32-30.57,2.21a77.27,77.27,0,0,0-12.16,12.49,161.92,161.92,0,0,0-11.53,15.17c-5.8,9-9.72,20.6-5.22,31.07,4.84,11.24,17.46,13.21,28.32,12.51,11.28-.72,23.77-2.69,33.39-9,8.66-5.73,15.35-16.48,12.06-27.1-2.46-7.94-9.81-13.43-17.44-15.83-20.53-6.47-37.91,10-48,26.16-6.12,9.78-12.94,22.12-10.25,34.09,2.35,10.45,11.8,18.18,22.52,14.06,11.7-4.5,16-17.42,19.49-28.36q3.08-9.5,6.13-19c1.89-5.85,4-11.67,5.56-17.62,1.11-4.37,2-9.49.12-13.78-2.28-5.27-8.11-6.84-13.3-5.47-5.69,1.5-9.74,6.17-12.87,10.93-3.31,5-6.23,10.35-9.14,15.62q-9.64,17.49-17.58,35.86c-3.62,8.39-8.88,20.25-2.79,28.76,6.52,9.1,20.29,6,28.54,1.4a54.14,54.14,0,0,0,20.89-21.42c4.76-8.81,7.08-19.14,5.44-29.11A37.3,37.3,0,0,0,172.56,382c-14-11.86-36.36-13.62-48.06,2.42-5.83,8-7.8,19.07-2.48,27.84,4.69,7.73,14.39,13,23.42,10.73,10.21-2.56,16-12.72,19.66-21.81,4.68-11.58,8.13-23.8,11.27-35.88q2.5-9.6,4.52-19.33c1.14-5.46,2.47-11,2.67-16.61.16-4.31-.2-9.2-2.8-12.82-2.82-3.91-7.81-4.82-12.1-3-4.55,1.95-8.19,5.95-11.09,9.86-3.77,5.08-7.21,10.43-10.55,15.8a310.31,310.31,0,0,0-18.09,33.49c-2.81,6-5.45,12.19-7.81,18.43-1.51,4-2.86,8.6-2.07,12.92,1,5.41,6,7.7,11,5.88,5.32-1.94,9.24-6.5,12.88-10.65A185.06,185.06,0,0,0,164.51,369q4.58-8,8.34-16.37c2.26-5,4.77-10.31,5.71-15.79.89-5.23-.63-11.19-6.3-12.8-4.87-1.39-10.36.82-14.57,3.15-5.21,2.9-9.74,7-14.21,11q-7.09,6.22-13.69,13c-7.52,7.71-15.21,15.82-20.3,25.43-4.1,7.74-7.13,17.76-2.48,26,5.46,9.63,17.08,10.43,26.7,7.78,10.66-2.93,19.68-9.67,27.66-17.15a111.61,111.61,0,0,0,21.29-27.31c4.84-8.71,8.83-18.17,9.28-28.26.39-8.9-2.4-18.4-11-22.52-10.93-5.26-23.21.76-31.32,8.31-9,8.38-16.47,18.78-23.76,28.64-7.75,10.46-15.08,21.26-21.86,32.38C98.51,393.42,92.85,404,93.84,415s9.67,19.35,19.81,22.71c11.4,3.77,23.82,1.57,35-1.78a128,128,0,0,0,29.35-13,131.45,131.45,0,0,0,25.06-19.58c7.12-7.12,13.83-15.12,18.63-24,4.29-8,7.41-17.34,6.56-26.53A22.82,22.82,0,0,0,211,332.39c-10.86-2.76-22.66.58-32.73,4.69a192,192,0,0,0-29.23,15A199.64,199.64,0,0,0,100.45,395a194.63,194.63,0,0,0-18.4,26.87c-5.57,9.81-11.49,21.75-6.73,33.08,3.35,8,11,13.15,18.87,15.93,8.92,3.16,18.33,3.47,27.6,1.93,22.09-3.67,41.76-16.1,57.87-31.28a258.92,258.92,0,0,0,24.64-27.37c7.66-9.62,15.61-19.34,22.15-29.78,6.25-10,11.05-22,6.87-33.78-3.15-8.82-10.61-15.3-18.75-19.45-17.86-9.11-39.75-7.75-58.38-1.87-20,6.31-38,18.06-53.95,31.59-16.46,14-33.62,31.12-39.79,52.52-3,10.28-2.7,21.45,2.17,31.1C69,453.2,76.56,460,85.21,464.31c19.45,9.75,42.12,5.12,60-5.85,20.29-12.42,34.45-32.39,47.07-52.13,12.83-20.1,25.56-43.72,18.91-68.3-2.71-10-8.7-19-17.82-24.12-9.71-5.48-21.58-6.15-32.29-3.68-22.57,5.2-39.19,24-52.88,41.61a303.46,303.46,0,0,0-21.35,31.22,248.76,248.76,0,0,0-17.67,34.7C64.85,428.67,62,440.67,65,452.32c2.32,8.9,7.69,16.64,14.45,22.73,14.49,13,34.4,18.34,53.53,16.9a88.53,88.53,0,0,0,53.09-23.14,76.82,76.82,0,0,0,24.55-51.26c1.29-19.23-4.12-39.15-15.84-54.51a69.64,69.64,0,0,0-47-26.61c-18.14-2.26-37.28,1.9-52.17,12.77-18.61,13.58-27.39,36.46-34,57.73-5.19,16.68-9.81,38.4,1,53.88,13.4,19.14,40.53,14.7,58.45,5.53,36.3-18.56,55.62-58.57,69.38-95.11,4-10.53,9.22-22.17,7.86-33.69-1.23-10.36-8.88-20-20.07-18.68-10.41,1.2-18.85,9.54-25.67,16.82a257.11,257.11,0,0,0-23.28,28.76,261,261,0,0,0-32.8,64.75q-3,8.74-5.34,17.69a88.62,88.62,0,0,0-3.12,15.89c-.35,4.67-.06,9.62,2.09,13.86a16.45,16.45,0,0,0,12.23,8.7c11.5,1.94,21.25-5.45,28.33-13.72,8.19-9.55,15.24-20.31,22.08-30.87a458,458,0,0,0,35.8-66.94q7.65-17.7,13.78-36,3.09-9.21,5.78-18.55a67.3,67.3,0,0,0,3-14.92c.23-4.52-.3-9.26-2.82-13.14-3-4.63-8.18-6.83-13.57-6.71-11.31.27-21.24,7.83-29.66,14.64a212.8,212.8,0,0,0-46.37,52.43c-5.94,9.5-11.66,19.63-15.51,30.2-3.38,9.29-5.08,20.88,2.82,28.43,7.53,7.19,19.67,6.53,29,4.2,10.18-2.53,19.93-7.64,28.75-13.26a129,129,0,0,0,24.86-20.7,126.94,126.94,0,0,0,10.61-13c3-4.28,6.4-8.89,8.29-13.82.79-2.06,1.41-4.46.73-6.64-.85-2.75-3.41-4-6.12-3.84-5.58.31-10.46,4.49-14.63,7.81a137.07,137.07,0,0,0-23,23.27,139.34,139.34,0,0,0-26.75,59.19l-1.63-1.28a98.21,98.21,0,0,0,38.4-55.16c1.3-5,2.84-10.59,2.21-15.79-.31-2.59-1.4-5.13-3.77-6.43-2.79-1.53-6.15-.6-8.82.72-5,2.48-9.11,6.88-13,10.85a142.27,142.27,0,0,0-12.08,14.19,145.28,145.28,0,0,0-19.76,36.4l-1.64-1.27a134.91,134.91,0,0,0,42.35-51.21l1.51,1.56a52.55,52.55,0,0,0-29.29,30.84l-1.86-1.1A18.38,18.38,0,0,0,137.36,383l1.41,1.08a41.53,41.53,0,0,0-18.63,12l-.78-1.93c3.77-.06,6.4-3.26,7.16-6.77.94-4.32-1.4-8.24-5-10.49-8.68-5.41-18.82-.82-27.08,3.07-1.3.61-2.42-1.34-1.11-2,9.72-4.59,22.88-9.89,32-1a11.64,11.64,0,0,1,3,12.23c-1.37,4-4.64,7.1-9,7.16a1.14,1.14,0,0,1-.78-1.93,43.67,43.67,0,0,1,19.62-12.52,1.13,1.13,0,0,1,1.41,1.08A20.61,20.61,0,0,1,132,397.31c-.79.63-2.28.05-1.87-1.11A54.68,54.68,0,0,1,160.47,364a1.13,1.13,0,0,1,1.51,1.55,136.93,136.93,0,0,1-43.16,52,1.13,1.13,0,0,1-1.63-1.28,147,147,0,0,1,31.62-50.76c4.29-4.49,8.88-9.49,14.56-12.19,4.4-2.11,9.92-2.58,13.3,1.61,3.12,3.87,2.62,9.42,1.86,14a98.79,98.79,0,0,1-12.91,34.73,99.82,99.82,0,0,1-28.38,30.38c-.87.61-1.79-.41-1.63-1.28a141.6,141.6,0,0,1,31.63-65.44,137.71,137.71,0,0,1,13-13.24c4.35-3.87,9-8.05,14.18-10.81,4-2.15,9.75-3.94,13.63-.58,3.68,3.19,3,8.31,1.28,12.34-2.21,5.23-5.69,10.11-9,14.68a130.67,130.67,0,0,1-37.88,34.85c-9.6,5.82-20.3,11.11-31.47,12.92-9.56,1.55-21,.82-27.85-7.07-7.12-8.28-5.58-19.76-2.12-29.28,4.18-11.48,10.42-22.45,17-32.71a214.56,214.56,0,0,1,50.93-55.19c8.38-6.34,19.61-12.88,30.55-10.61,10.5,2.18,14.5,12.54,13.84,22.3a75,75,0,0,1-3.23,15.7q-2.94,10.16-6.35,20.15-6.74,19.74-15.24,38.8a457.19,457.19,0,0,1-40.8,72.83c-3.85,5.62-7.8,11.19-12,16.57a65.77,65.77,0,0,1-12,12.51c-8.31,6.25-20.77,9.28-29.87,2.76-8.58-6.13-8.91-17.42-7.31-26.91C88.56,445,92.66,432.72,97.06,421A263.46,263.46,0,0,1,136,351.66q6-7.71,12.61-14.94a100.56,100.56,0,0,1,12.81-12.38c7.73-6,18.11-10.67,27.57-5.77,9.87,5.1,12.78,17.47,11.43,27.7-.85,6.45-3,12.61-5.23,18.71q-2.84,7.83-5.91,15.58c-8.17,20.41-18,40.48-31.65,57.75-13.16,16.61-30.95,31.1-51.8,36.32-10.66,2.67-22.49,2.85-32.57-2a33.8,33.8,0,0,1-17.75-22.36c-2.47-9.62-1.63-19.84.26-29.48A187.09,187.09,0,0,1,66.1,387.44c4.74-11.81,10.82-23.28,19.65-32.55a67.52,67.52,0,0,1,24.12-16,78,78,0,0,1,57.32.29C206,355,222.63,403.5,207.54,441.62,192,480.84,144.12,503.48,104,491.18c-18.27-5.61-36.14-18.95-41.16-38.29-3.2-12.31-.19-25,4.5-36.5a260.77,260.77,0,0,1,18.9-36.66,304.1,304.1,0,0,1,23.89-33.89c7.79-9.59,16.16-18.84,26.15-26.18,9.3-6.83,20-11.67,31.49-12.8,11.07-1.09,22.74,1.33,31.59,8.35,8.45,6.71,13.39,16.88,15.13,27.42,2,12.1-.14,24.25-4.57,35.58-5.11,13.08-12.79,25-20.53,36.66-7.25,10.89-15.08,21.5-24.39,30.7-16.12,15.95-38.2,28.18-61.46,26.19C83.06,470,62.93,455.74,59,434.67,54.55,411,70.27,388.93,85.84,373c15.91-16.3,34.62-30.84,55.37-40.34,19.44-8.91,42.25-13.58,63.28-7.8,9.28,2.55,18.41,7.3,24.79,14.66A31.89,31.89,0,0,1,236,368.82c-3.29,12.78-12.08,23.41-19.89,33.69-8.17,10.74-16.47,21.41-25.67,31.29-16.55,17.77-36.68,33.27-60.45,39.51-9.87,2.58-20.19,3.59-30.23,1.43C91,472.85,82,468.63,76.46,461.28c-6.79-9-5.9-20.12-1.7-30,4.65-11,11.53-21.36,18.66-30.9A201.57,201.57,0,0,1,144,352.62a195.09,195.09,0,0,1,31.42-16.81c10.61-4.47,22.51-8.16,34.12-6.05a25.05,25.05,0,0,1,20.32,18.93c2.11,9.21-.34,19-4.11,27.41-4.41,9.85-11.32,18.56-18.69,26.33a133.22,133.22,0,0,1-26.17,21.35A130.59,130.59,0,0,1,149.58,438c-11.66,3.52-24.68,5.8-36.54,1.87-10-3.32-18.93-11.12-21-21.86-2.24-11.41,3-22.77,8.61-32.37a389,389,0,0,1,22.82-34.17q6.16-8.36,12.7-16.41c4.07-5,8.2-10.1,13.06-14.39,8.37-7.4,20.31-12.65,31.38-8.29,8.85,3.49,13.12,12.25,13.58,21.38.52,10.23-2.92,20.11-7.45,29.11a113.7,113.7,0,0,1-22.14,30.25c-8.12,7.93-17.44,15.2-28.35,18.71-9.32,3-20.82,3.4-28.13-4.19-6.79-7.05-6.67-17.13-3.46-25.82,3.85-10.43,11.1-18.94,18.51-27,8.92-9.71,18.66-19.35,29.38-27.06,7-5,19.82-10.65,26.25-1.8,2.94,4.07,2.6,9.33,1.37,13.95-1.57,5.92-4.31,11.65-6.91,17.17a187.26,187.26,0,0,1-21.32,34.72,122.65,122.65,0,0,1-12.57,14.54c-3.49,3.28-8.14,6.61-13.15,6.51a9.71,9.71,0,0,1-9.08-7.24c-1.24-4.39-.17-9.31,1.26-13.52,4.36-12.84,10.54-25.33,16.95-37.25,6.27-11.63,13.08-23.44,21.24-33.85,5.31-6.78,15.11-14.94,23.66-8.24,7.38,5.77,5.94,17.47,4.44,25.53a398.18,398.18,0,0,1-10.45,42.85c-3.44,11.31-6.72,23.84-13.82,33.49-5.66,7.7-14.36,12.69-24,10.54a25.71,25.71,0,0,1-19.07-18.58c-2.38-10.15,1.89-21,9.32-28a31.58,31.58,0,0,1,25.64-8.09c18.63,2.3,34.21,17.81,35.85,36.68,1.8,20.71-11.66,42-30.14,50.81-8.62,4.09-21.39,6-28.33-2.22-6.78-8-3.44-19.53.15-28.21a394.49,394.49,0,0,1,18.47-38.38c3.27-6,6.55-12.1,10.38-17.75,3-4.4,6.67-8.6,11.68-10.63,4.44-1.79,9.92-1.92,14,.94,3.75,2.65,5.28,7.09,5.32,11.55,0,5.32-1.64,10.45-3.25,15.45l-6.81,21.12c-3.8,11.78-6.75,26.28-16.74,34.55-7.93,6.57-19.25,7.79-26.69-.22-8.31-9-7.34-21.81-3-32.39a93.16,93.16,0,0,1,18.75-29c7.12-7.33,16.49-13.45,26.87-14.32a33.45,33.45,0,0,1,24.3,7.93c6.9,6,10,15.13,7.23,24-3.45,11.24-13.66,18.42-24.36,21.87a96.18,96.18,0,0,1-18,3.58,60.11,60.11,0,0,1-17.36,0c-5.52-1-10.9-3.35-14.63-7.66a24.19,24.19,0,0,1-5.49-13.32c-1.36-12.39,5.23-23.43,12.5-32.83s15.25-20.55,26.51-25.53c9.52-4.22,21.64-3.68,28.4,5.15,6,7.81,5.92,18.74,4.87,28.07-2.64,23.47-9.26,50.69-30.44,64.16-8.91,5.67-19.92,8.66-30.39,6.48-10.64-2.21-19-10-23.76-19.56-5.52-11.11-6.09-23.73-4.49-35.85a141,141,0,0,1,9.43-36c4.5-10.66,11.32-21,21.45-26.92,8.65-5.1,19.6-7.29,29.33-4.31,9.38,2.87,16,10.54,18.77,19.86,2.83,9.66,2,20.14.23,29.92a217.41,217.41,0,0,1-9.19,35.22c-4.18,11.76-9.8,23.11-17.88,32.67-13.42,15.88-35.73,25.9-56.46,20.55-21.75-5.62-32-28-31.46-49.09.37-13.66,4.81-26.86,10-39.35,2.62-6.31,5.35-12.6,8.28-18.77a70,70,0,0,1,10-16.19c6.71-7.69,17.32-13.28,27.68-10.79,8.73,2.09,14.34,9.61,16.58,18,2.56,9.63,1.21,19.59-2.14,28.82-4.66,12.86-12.1,24.93-13.52,38.79-.15,1.42-2.39,1.44-2.24,0Z" transform="translate(0.69 -12.07)"/><path class="cls-8" d="M204.24,320.41c-55,0-99.76-45-99.76-100.27s44.76-100.26,99.76-100.26S304,164.86,304,220.14a99.81,99.81,0,0,1-29.33,71l4.11,22-20.44-8.74a99,99,0,0,1-54.09,16Z" transform="translate(0.69 -12.07)"/><path class="cls-9" d="M720.57,344.35c91-6.42,159.85-86.08,153.4-177.58S788.2,6.06,697.17,12.48,537.33,98.56,543.78,190.06a165.52,165.52,0,0,0,56.83,114.08L596.38,341l32.81-16.87a164.2,164.2,0,0,0,91.38,20.19Z" transform="translate(0.69 -12.07)"/><path class="cls-10" d="M340.41,211c-46.26-5-79.77-47-74.71-93.45s46.82-80.21,93.07-75.18,79.76,47,74.7,93.45a84.4,84.4,0,0,1-31.16,57l1.44,18.87-16.39-9.22A83.82,83.82,0,0,1,340.41,211Z" transform="translate(0.69 -12.07)"/><path class="cls-11" d="M304.68,87.14a33.75,33.75,0,0,1,17.55,1.79l15.8,24-5.48,7.27L352.11,144l-9.31,10L357.23,183l.16.63s-66.6-16.34-77-57.82c-3.65-14.54,3.58-31.63,17-36.75a39.07,39.07,0,0,1,7.28-1.92Z" transform="translate(0.69 -12.07)"/><path class="cls-11" d="M363,186.65l-5.44-26.86L370.13,149l-14.44-26.15,11.21-9.95-9.23-25.7a33.55,33.55,0,0,1,16.59-9.41,37.41,37.41,0,0,1,6.89-1c14.49-.75,28,12.26,30.31,27.17,6.6,42.26-48.31,83.3-48.31,83.3Z" transform="translate(0.69 -12.07)"/><path class="cls-10" d="M483.88,77.27A51.86,51.86,0,0,1,580,61.93a34.49,34.49,0,0,1,18-5.06,34.86,34.86,0,0,1,34.77,34.95,35.39,35.39,0,0,1-.61,6.47c1.17-.11,2.35-.16,3.54-.16a40.84,40.84,0,0,1,0,81.67H494.17A51.81,51.81,0,0,1,483.88,77.28Z" transform="translate(0.69 -12.07)"/><path class="cls-12" d="M497.47,91l19.68,29.27h-8.63l13.75,24.93-22.11-29.27h8.63Z" transform="translate(0.69 -12.07)"/><path class="cls-12" d="M579.79,91l19.68,29.27h-8.63l13.75,24.93-22.11-29.27h8.63Z" transform="translate(0.69 -12.07)"/><path class="cls-13" d="M531,71.89l33.54,49.86h-14.7l23.43,42.48-37.67-49.86h14.7Z" transform="translate(0.69 -12.07)"/><path class="cls-14" d="M622.53,145.3a60,60,0,0,1,110.93-19.55,39.91,39.91,0,0,1,20.74-6.19,40.41,40.41,0,0,1,40.28,47.26c1.35-.13,2.71-.22,4.09-.24a47.24,47.24,0,0,1,1.51,94.47h-1v0l-161.33,2.6v0l-1.45.05a59.93,59.93,0,0,1-13.8-118.4Z" transform="translate(0.69 -12.07)"/><path class="cls-12" d="M671,158.78l26.85,38.59-11.49.19,18.86,32.93L675.12,192l11.5-.19Z" transform="translate(0.69 -12.07)"/><path class="cls-12" d="M780.74,157,807.6,195.6l-11.5.18L815,228.72l-30.09-38.54,11.49-.18Z" transform="translate(0.69 -12.07)"/><path class="cls-13" d="M715.26,132.64,761,198.39l-19.6.31,32.14,56.12-51.28-65.66,19.6-.32Z" transform="translate(0.69 -12.07)"/><path class="cls-15" d="M513.53,203.77a41.37,41.37,0,0,1,76.7-12.25,27.51,27.51,0,0,1,14.38-4,27.81,27.81,0,0,1,27.74,27.88,28.3,28.3,0,0,1-.48,5.16q1.39-.12,2.82-.12a32.58,32.58,0,0,1,0,65.16h-112v0l-1,0a41.34,41.34,0,0,1-8.21-81.8Z" transform="translate(0.69 -12.07)"/><path class="cls-16" d="M524.37,214.69,540.07,238h-6.89l11,19.89-17.63-23.35h6.88Z" transform="translate(0.69 -12.07)"/><path class="cls-16" d="M590,214.69,605.75,238h-6.89l11,19.89L592.2,234.58h6.88Z" transform="translate(0.69 -12.07)"/><path class="cls-13" d="M551.1,199.48l26.76,39.78H566.13l18.69,33.89-30.05-39.79h11.72Z" transform="translate(0.69 -12.07)"/><path class="cls-10" d="M795,471.34c49.13,24.74,109.33,4.69,134.2-44.69s5.12-109.69-44-134.43S775.86,287.53,751,336.91a99.76,99.76,0,0,0-5.73,76.61l-13.57,17.81,22.2,1.38A98.88,98.88,0,0,0,795,471.33Z" transform="translate(0.69 -12.07)"/><path class="cls-11" d="M791,404.79a10,10,0,0,1,.15-5,25.55,25.55,0,0,1,4.36-11,39.85,39.85,0,0,1,7.64-8,56.93,56.93,0,0,1,9.08-5.87l8.55-4.44q9.75-4.56,13.56-9.12t3.7-8.18a4.68,4.68,0,0,0-1.7-3.72,7.07,7.07,0,0,0-3.56-1.43,13.59,13.59,0,0,0-5.68.64,34.53,34.53,0,0,0-5.83,2.56c-2,1.07-4,2.31-6.07,3.7s-4.18,2.77-6.3,4.12A18.28,18.28,0,0,1,797.79,362a27.33,27.33,0,0,1-12.3-3.47,8.82,8.82,0,0,1-2.46-1.81,4.23,4.23,0,0,1-1.11-2.41,6.22,6.22,0,0,1,.78-3.34,24.59,24.59,0,0,1,3.21-4.68,59.51,59.51,0,0,1,15.84-13.86,42.14,42.14,0,0,1,18.47-5.88,36.35,36.35,0,0,1,20.51,4.15,33.31,33.31,0,0,1,7.46,5.44,32.75,32.75,0,0,1,5.18,6.44,34.33,34.33,0,0,1,5.32,12.23,25.88,25.88,0,0,1,0,10.49A23.66,23.66,0,0,1,855,373.9a37.72,37.72,0,0,1-5.69,6.48,33.47,33.47,0,0,1-6.59,4.59c-2.4,1.28-4.88,2.5-7.43,3.69s-5.09,2.38-7.61,3.6a42,42,0,0,0-7.06,4.35,28.05,28.05,0,0,0-5.82,6,25,25,0,0,0-3.81,8.6c-.08,1.57-.69,2.47-1.83,2.72a8.41,8.41,0,0,1-4.23-.38,29.64,29.64,0,0,1-5.43-2.31q-2.94-1.54-5.38-2.92A7.34,7.34,0,0,1,791,404.8Zm-6.84,15.11a9.9,9.9,0,0,1,4-2.94,13.29,13.29,0,0,1,5.71-.94,20.69,20.69,0,0,1,7.06,1.61,20.19,20.19,0,0,1,4.61,2.53,11.82,11.82,0,0,1,2.73,2.83,8.39,8.39,0,0,1,1.23,2.92,9.62,9.62,0,0,1,.12,2.93l-.19,1.85a3,3,0,0,1-.4,1.44,9.66,9.66,0,0,1-5.36,5.15q-4,1.82-10,.31a25.29,25.29,0,0,1-4.94-1.75,13.14,13.14,0,0,1-3.9-2.83,10.32,10.32,0,0,1-2.31-3.91,10,10,0,0,1-.15-5,9,9,0,0,1,1.86-4.21Z" transform="translate(0.69 -12.07)"/><path class="cls-11" d="M847.09,426.14a10.34,10.34,0,0,1,3.76-3.45,12.18,12.18,0,0,1,5.52-1.41,17.47,17.47,0,0,1,7,1.42,14.6,14.6,0,0,1,5.12,3.08,11.15,11.15,0,0,1,2.67,4,9.48,9.48,0,0,1,.62,4,10.06,10.06,0,0,1-.79,3.39,11.56,11.56,0,0,1-1.68,2.5,13.82,13.82,0,0,1-2.86,2.55,14.65,14.65,0,0,1-3.9,1.83,12.19,12.19,0,0,1-4.92.41,14.79,14.79,0,0,1-9.45-4.1q-3.69-3.62-2.83-9.49a11.91,11.91,0,0,1,1.79-4.71Zm58-83.66a8.75,8.75,0,0,1-.89,5.55q-4.15,8.88-8.26,18t-7.95,18q-3.84,8.9-7.12,17.19t-5.89,15.46c-.58,1.67-1.33,2.67-2.22,3s-2.27.14-4.08-.55a47.9,47.9,0,0,1-6.13-2.2,37.72,37.72,0,0,1-5.32-2.85,8.46,8.46,0,0,1-3.39-3.65c-.48-1.25-.4-3,.26-5.37q1.73-7,4.51-16.47t6.06-19.42q3.27-9.94,6.64-19.66t6.27-17.34c.92-2.47,2-3.92,3.36-4.37s3.24-.07,5.75,1.11a59.84,59.84,0,0,1,7.71,3.67,41.44,41.44,0,0,1,7.08,4.84c2,1.79,3.24,3.46,3.61,5Z" transform="translate(0.69 -12.07)"/><path class="cls-17" d="M203.26,821.58c-13.32-4.53-20.66-9.49-20.66-14.69,0-21.35,123.92-38.67,276.78-38.67s276.78,17.32,276.78,38.67c0,17.63-84.46,32.51-199.93,37.16,1.58,1.42,2.4,2.88,2.4,4.35,0,16.61-103.4,30.07-230.94,30.07S76.75,865,76.75,848.4C76.75,836.69,128.19,826.54,203.26,821.58Z" transform="translate(0.69 -12.07)"/><path class="cls-18" d="M669.16,701.35l6.12,92.33a1.13,1.13,0,0,1-.87,1.18,22,22,0,0,1-5.25.5,14.67,14.67,0,0,1-5.4-.75,1.14,1.14,0,0,1-.66-.79l-20.66-89.74,26.71-2.73Z" transform="translate(0.69 -12.07)"/><path class="cls-18" d="M537.58,722.54l-8.86,119.58a1.5,1.5,0,0,1-.78,1.21c-1,.5-3.06,1.2-7.26,1.2s-6.42-.88-7.35-1.46a1.51,1.51,0,0,1-.67-1.13c-.75-9.45-9.68-121.14-9-121.14s33.88,1.74,33.88,1.74Z" transform="translate(0.69 -12.07)"/><path class="cls-12" d="M489.88,743.13c0,.24-2,27.1-2.39,30.62a.72.72,0,0,1-.55.63,25.77,25.77,0,0,1-5.42.49,30.41,30.41,0,0,1-5.44-.5.73.73,0,0,1-.58-.69l-.58-31.08,15,.53Z" transform="translate(0.69 -12.07)"/><path class="cls-12" d="M339.54,699.59c-.16.65-30.47,89.21-32.64,95.55a.93.93,0,0,1-.49.54,18.78,18.78,0,0,1-7.34,1.19c-4.14,0-6.06-.56-6.89-1a.91.91,0,0,1-.49-1l20-104Z" transform="translate(0.69 -12.07)"/><path class="cls-10" d="M702.85,686.62c7.64-16.51,26-52.37,31.95-126.86,5.44-68.05,4.88-91.87,4.67-96.43-1.15-25.25-18.43-30.52-24.05-31.53-99.07-17.73-219.79-6.75-219.79-6.75-23,.73-38.56,16.34-48,26.89-10.05,11.24-22.21,30-25.45,32.61-9.76,8-49.64,10.13-116.55,15.41-16.82,1.32-28,1.25-38.54,6.11-14.72,6.81-14.91,21.58-15.7,28.32-5.51,47,12.12,129.79,26.08,159.52,1.95,4.15,10.3,12.18,17.55,14.21,73.48,20.54,135.47,30.2,216.31,40,4.81.58,22.25,1.91,31.08-.12,66.42-15.27,104.56-29.68,140.08-41.81,2.22-.76,13.55-4.91,20.33-19.57Z" transform="translate(0.69 -12.07)"/><path class="cls-4" d="M251.45,535.3c.29-2.42,1.84-13.47,2.3-15.18A24.22,24.22,0,0,1,266.82,506c10.51-4.86,21.72-4.79,38.54-6.11,64.89-5.12,104.35-7.25,115.58-14.7,0,.14,0,.29,0,.43a59.13,59.13,0,0,1-19.62,10.65c-18,6-36.43,5.33-62.42,8.57-25.79,3.2-37.13,4.71-44.1,14.44-4.75,6.64-4.73,14.81-3.77,23.1l0,.3c1.26,5.78,1.93,11.94,2.89,17.88,6.86,42.8,15.93,83.8,17.42,84.62,53,29.14,125.83,32.52,182.78,30.94a21.5,21.5,0,0,0,14.5-6.4c10.76-10.9,20.69-35.73,33.27-63.76,7.89-17.56,16.66-46.77,29.37-63.79,5.86-7.86,20.12-10.86,34.57-12.19,20.9-1.92,30.24-3.44,63.51-5,19.78-.92,60.72-4.28,68.8-12.11-.72,12.76-1.78,28.51-3.33,47.83-6,74.49-24.3,110.35-31.94,126.85-6.79,14.66-18.12,18.81-20.34,19.57-35.51,12.13-73.65,26.54-140.08,41.81-8.83,2-26.26.7-31.08.12-80.83-9.8-142.83-19.45-216.3-40-7.25-2-15.61-10.06-17.56-14.22-13.95-29.72-31.58-112.49-26.08-159.51Z" transform="translate(0.69 -12.07)"/><path class="cls-4" d="M541.1,607.4s-18.07-.95-53.39-3.11c-102.08-6.27-146.9-14.21-157-16.67-3.81-.93-24-6.09-31.57,3.9a13.05,13.05,0,0,0-2.57,8c.19,9,4.05,30.12,6.8,35.68,6.35,12.8,23.93,19.59,46.76,26C405.5,676.88,475,678.5,492.87,676.41c7.29-.85,12.06-3.14,12.81-3.71C520,662,541.1,607.4,541.1,607.4Z" transform="translate(0.69 -12.07)"/><path class="cls-10" d="M585.2,662.39c8.13-28.22,14.65-65.32,17.21-91.22.36-3.67,2.8-16.72,7.63-23.47,7.07-9.89,18.6-11.42,44.8-14.68,15.66-1.94,28.59-2.49,40.35-3.89,0,.76,0,1.52,0,2.28,0,65.78-47.57,120.39-110,131Z" transform="translate(0.69 -12.07)"/><path class="cls-10" d="M330.65,587.62a69.4,69.4,0,0,0-11.2-2.44,37.21,37.21,0,0,0-11.58.17,18.59,18.59,0,0,0-5.64,2l-.34.19-.32.21-.65.42c-.21.14-.41.31-.61.47s-.41.32-.6.5a12.8,12.8,0,0,0-1.1,1.11c-.17.2-.35.39-.52.6l-.47.63a14.23,14.23,0,0,0-2.33,5.8,12.11,12.11,0,0,0-.17,1.58c0,.26,0,.54,0,.79v.74c0,1,.06,2,.11,2.93.12,1.95.3,3.87.51,5.8.11,1,.22,1.92.35,2.87l.18,1.44.21,1.43c.54,3.82,1.21,7.62,2,11.43.2,1,.43,1.89.64,2.85l.36,1.43.19.71.2.72.21.72a6.59,6.59,0,0,0,.22.72c.16.49.32,1,.5,1.46l.32.77a5.53,5.53,0,0,0,.33.74l.35.7c.12.24.24.47.37.69a28.39,28.39,0,0,0,3.62,5,36,36,0,0,0,4.44,4.21,58.16,58.16,0,0,0,10.08,6.38A107.62,107.62,0,0,0,331,658.11q5.44,2.05,11,3.76c3.67,1.16,7.34,2.23,11,3.26s7.43,2,11.16,2.85c.93.23,1.87.44,2.81.66l2.81.63c.93.21,1.87.4,2.81.6l2.81.6c7.52,1.52,15.07,2.82,22.64,4s15.17,2,22.78,2.82,15.24,1.37,22.88,1.81,15.28.72,22.93.79,15.31,0,23.05-.65l1.46-.13,1.47-.17c.48,0,1-.13,1.48-.2s1-.16,1.47-.25A42.2,42.2,0,0,0,501.4,677c1-.31,1.91-.66,2.86-1.06l.71-.31.35-.17.36-.18.37-.2.19-.1.2-.12.21-.13a2.68,2.68,0,0,0,.28-.18l.1-.08.08-.06.16-.13c.42-.33.81-.69,1.2-1s.75-.72,1.09-1.1c.71-.74,1.37-1.5,2-2.28,1.25-1.55,2.39-3.15,3.48-4.78s2.1-3.27,3.08-4.95c2-3.34,3.76-6.75,5.47-10.19,3.43-6.88,6.52-13.9,9.43-21s5.61-14.25,8.09-21.49c-1.56,3.49-3.13,7-4.76,10.43s-3.25,6.91-4.91,10.34c-3.35,6.86-6.81,13.65-10.55,20.27-1.86,3.3-3.79,6.56-5.84,9.73a80,80,0,0,1-6.61,9c-.61.68-1.22,1.34-1.86,2-.31.32-.64.59-1,.89s-.65.55-1,.79l-.12.09-.07.05,0,0h0l-.1.06-.11.05-.13.07-.27.12-.28.13-.3.12a6.25,6.25,0,0,1-.6.24c-.82.32-1.67.6-2.53.85a40.82,40.82,0,0,1-5.27,1.13l-1.35.18c-.45,0-.89.11-1.35.14l-1.37.11-1.39.09c-3.71.21-7.49.24-11.25.23s-7.55-.08-11.33-.2c-7.56-.26-15.12-.63-22.67-1.2s-15.1-1.2-22.62-2-15-1.75-22.52-2.87-14.93-2.36-22.34-3.82-14.78-3.11-22.07-5c-3.64-.94-7.3-2-10.91-3s-7.2-2.19-10.72-3.44a108.48,108.48,0,0,1-10.31-4.2,53.3,53.3,0,0,1-9.37-5.55,28.22,28.22,0,0,1-7.17-7.67,6.22,6.22,0,0,1-.32-.56l-.32-.57a4.77,4.77,0,0,1-.27-.56l-.25-.55c-.16-.39-.31-.82-.47-1.23-.09-.21-.15-.42-.23-.64l-.21-.65-.21-.66-.2-.67-.4-1.34c-.24-.9-.5-1.8-.72-2.72-.93-3.65-1.72-7.36-2.43-11.08s-1.33-7.47-1.76-11.2c-.09-.93-.2-1.86-.25-2.78l-.05-.7c0-.23,0-.43,0-.65a10.81,10.81,0,0,1,.07-1.27,12,12,0,0,1,1.65-4.85,11.66,11.66,0,0,1,3.64-3.66,17.4,17.4,0,0,1,5-2.12,37.15,37.15,0,0,1,11.12-.92c1.89.09,3.77.28,5.65.53S328.78,587.24,330.65,587.62Z" transform="translate(0.69 -12.07)"/><path class="cls-19" d="M372.27,362.29c2.45,6.29.27,9.25,1.23,20.67,2.49,29.67,25.1,52.83,32.6,83.93,3.39,14-.69,33.46-11.23,37.95a14.48,14.48,0,0,1-9.52.3c-4.2-1.17-12.15-5.22-19-26.84-5.08-15.94-4-24-6.45-57.08-1.37-18.63-2.06-27.94-3.38-36.41-3.32-21.23-5.83-32.82-6.85-37.12a2.31,2.31,0,0,1,1.32-2.37c4.34-2.83,16.78,5.39,21.29,17Z" transform="translate(0.69 -12.07)"/><path class="cls-20" d="M385.07,508.16c-3,2-7.17,2.64-15.59,4-3.53.55-6.32,1.21-11.8,1.7-3.53.31-9,.92-16.7,2.33-3,.55-3.74,1.16-5.88,2.76-3,2.25-6.85,5.56-6.41,7.9.23,1.17,3.51,5,4.55,7.62a3.86,3.86,0,0,1,.28,2.66c-.07.22-.84,2.13-1.78,2.55a3.92,3.92,0,0,1-3.36-.24,14,14,0,0,1-5.65-4.76,23.71,23.71,0,0,1-4.21-10.15,12.6,12.6,0,0,1-2.36-4.11c-.74-2,.24-5.31.24-5.31a7,7,0,0,1-.76-1.43c-1.06-3.2,3.39-10.11,3.39-10.11a13.82,13.82,0,0,1-.21-2c-.06-2.57,1.7-4.6,4.23-7,6.78-6.3,11.91-9.08,16.12-10.65a31.41,31.41,0,0,1,7.64-1.35c4-.17,7.09,0,12.13-.4,10.87-.79,12-2.47,23-1.64,8.13.6,9.42,2.61,10.11,3.38,4.65,5.18,1.07,18.9-7,24.32Z" transform="translate(0.69 -12.07)"/><path class="cls-21" d="M330.53,508.91c-.39.11-.77.25-1.15.39-.18.08-.37.15-.55.24l-.54.27c-.35.2-.72.37-1.06.6s-.67.45-1,.69a18.88,18.88,0,0,0-3.45,3.41,19.46,19.46,0,0,0-2.46,4.17c-.08.18-.15.37-.23.56l-.21.57c-.13.38-.25.77-.36,1.16a10.75,10.75,0,0,0-.4,2.4c.92-1.34,1.76-2.62,2.63-3.89s1.75-2.48,2.68-3.68,1.89-2.33,2.9-3.48,2.1-2.2,3.19-3.41Z" transform="translate(0.69 -12.07)"/><path class="cls-21" d="M327.62,502.93a15.26,15.26,0,0,0-3.53,1.86,20.07,20.07,0,0,0-3,2.59,17.51,17.51,0,0,0-2.4,3.22,13.24,13.24,0,0,0-1.49,3.72c1-.94,1.83-1.91,2.69-2.85s1.7-1.86,2.57-2.78l2.6-2.78c.44-.47.87-.94,1.31-1.43S327.22,503.48,327.62,502.93Z" transform="translate(0.69 -12.07)"/><path class="cls-21" d="M320,503c.66-.48,1.22-.94,1.78-1.42s1.08-1,1.59-1.47,1-1,1.49-1.59a13,13,0,0,0,1.36-1.87,6.31,6.31,0,0,0-2.2.85,8.66,8.66,0,0,0-1.82,1.42,8.51,8.51,0,0,0-1.43,1.83,7.52,7.52,0,0,0-.51,1.07A4,4,0,0,0,320,503Z" transform="translate(0.69 -12.07)"/><path class="cls-19" d="M334.36,741.56a251.16,251.16,0,0,1,4.06-34.26H294.37c1.88,34.46,1.64,60.32-.21,66.69-2.93,10.08-5.77,13.84-10.43,17-7.57,5.08-12,8.31-12.91,11.93-1.5,6,10.43,13.38,23.34,17,18,5.06,41.16-2.2,45.17-15,1.63-5.2-.66-8.89-3-16.47C332.53,776,333.14,764.49,334.36,741.56Z" transform="translate(0.69 -12.07)"/><path class="cls-13" d="M337.66,788.63c-3.14-.07-2.22,7.8-9,8.12-14.19.67-21.39-8.11-26.9-11.2-11.18-6.27-13.45-3.81-14.11-3.3a6.94,6.94,0,0,0-1.53,2.2c-10,12.83-32.22,26.81-43.05,31.19-7.42,3-11.13,4.51-15.08,4.83-3.43.29-6.61,0-10.93,1.76a18.49,18.49,0,0,0-6.55,4.17c-3.87,3.94-6.27,10.35-3.51,14.29,6.19,8.81,22.74,11.39,27.88,12a92.16,92.16,0,0,0,27.64-.84c7.09-1.22,10.45-2.91,24-7,11.23-3.4,32.28-5.06,46.81-7.25,1.31-.2,8.53.28,11.8-6.36,2.08-4.24.38-8-.66-13.63a118.86,118.86,0,0,1-1.65-16.06,45,45,0,0,0-2.06-9.46c-.72-1.73-1.54-3.44-3.19-3.47Z" transform="translate(0.69 -12.07)"/><path class="cls-22" d="M342.49,821c-11,1.65-21.86,3.66-32.61,6.17l-16.15,3.93L285.65,833l-8.1,1.89-8.11,1.85c-2.71.6-5.41,1.21-8.13,1.79l-1,.22-.51.11-.59.11c-.21,0-.38,0-.56.07l-.52.06-1.06.1c-1.41.18-2.82.23-4.22.31-.71,0-1.41,0-2.11,0l-2.12,0-2.11-.07c-.71,0-1.41,0-2.11-.11a80.79,80.79,0,0,1-16.58-2.76,60.1,60.1,0,0,1-7.92-2.81,33.46,33.46,0,0,1-7.25-4.17l1.83,1,1.88.87c1.27.53,2.55,1,3.87,1.45l1,.33,1,.29c.66.18,1.31.39,2,.56l2,.49c.67.17,1.34.28,2,.42,1.33.3,2.69.5,4.05.73.67.11,1.35.18,2,.28s1.36.19,2,.24l2.05.2c.68.08,1.36.1,2,.15s1.36.1,2.05.12l2.05.06c.68,0,1.36,0,2,0l2.05,0,2-.09c.68,0,1.36,0,2-.12,1.36-.13,2.72-.22,4.06-.42l1-.12.51-.07c.16,0,.35,0,.48-.07l.92-.21,1-.24,8.09-1.91,8.1-1.89,8.1-1.85,8.13-1.8c2.71-.59,5.41-1.19,8.13-1.75s5.44-1.13,8.18-1.65A209.93,209.93,0,0,1,342.51,821Z" transform="translate(0.69 -12.07)"/><path class="cls-22" d="M531.93,544c-4.26-19.83-41-25.39-69.5-29.93-45.17-7.19-129.5-.76-156.67,9a31.18,31.18,0,0,0-10.28,6.06c-5,4.52-9.36,12.66-11.26,19.82-3.05,11.57-3.29,24.16-3.09,31.48.11,3.88.13,17.6.13,17.6l-3,162.57s3.07,1.4,29.29,4c29,2.86,38.22,0,38.22,0l2.11-91a223.07,223.07,0,0,0,5.28-32.06c2-22.57,1.58-32.07,0-42.31,3.56,1,6.62,1.61,9,2.09,15.85,3.24,28.06,2.38,43.69,1,91.15-8.08,102.74-16.75,109.2-23,3.72-3.57,20.31-19.48,16.88-35.42Z" transform="translate(0.69 -12.07)"/><path class="cls-19" d="M482.11,725.1c-.21-3.37-.36-6.13-.45-8.87H440.79c5.89,31-.57,49.92-.62,55.66-.14,14,4.45,16.33,6.39,18.72,7.06,8.67,39.4,1.92,45.29-14.47.77-2.14,8.9-8.79-1.42-25.52-1.49-2.41-7.08-5.73-8.31-25.53Z" transform="translate(0.69 -12.07)"/><path class="cls-13" d="M487.32,743.78c-2.34,1.37,1.71,6.8-1.68,12.9a13.64,13.64,0,0,1-6.72,5.57c-6.77,3.12-14.08,1.07-19.66-.51a128.23,128.23,0,0,0-17-3.71,5.15,5.15,0,0,0-3.19.34c-3.18,1.56-3.53,6.81-3.7,8.78,0,0-.74,8.63-5,22.13-1.73,5.42-6.12,19.17-16,22.63-2.4.84-5.83.67-10.08,3.57a18.93,18.93,0,0,0-5.71,5.57c-.64,1-3.86,8.32-1.37,13.31,1.2,2.41,3.51,3.74,7.73,5.23a68,68,0,0,0,20.86,4c9.91-.19,18.84-1,28.56-5.38,5.25-2.35,12-8.88,25-22.46,12-12.52,15.18-17.72,25.54-30.4a21.65,21.65,0,0,0,4.37-7.09,15.34,15.34,0,0,0,1-7.45c-.43-3.33-1.91-5.07-5.38-10.12-6.12-8.9-7-9.35-11.26-13.91C492,745,488.85,742.88,487.32,743.78Z" transform="translate(0.69 -12.07)"/><path class="cls-22" d="M400.5,825.88a93.23,93.23,0,0,0,15.93,2.56,79.33,79.33,0,0,0,8,.2l2-.07,2-.11c1.34-.09,2.68-.19,4-.33s2.64-.3,3.94-.52,2.6-.46,3.88-.76a49.8,49.8,0,0,0,7.49-2.38,50.48,50.48,0,0,0,13.37-8.18c2-1.67,4-3.5,5.93-5.35,1-.93,1.92-1.88,2.88-2.83s1.88-1.91,2.81-2.88c3.71-3.9,7.31-7.92,10.86-12,7.07-8.18,13.92-16.57,20.74-25a295.48,295.48,0,0,1-18.83,26.63c-1.69,2.13-3.39,4.26-5.15,6.33s-3.55,4.14-5.4,6.16c-.92,1-1.85,2-2.8,3s-1.91,1.95-2.89,2.92c-1.94,1.93-4,3.8-6.09,5.57a55.42,55.42,0,0,1-6.78,4.87,46.38,46.38,0,0,1-7.52,3.69,52.77,52.77,0,0,1-16.25,3.33c-1.37.07-2.73.11-4.09.14h-2.06l-2.06-.05a79.74,79.74,0,0,1-8.17-.75,72.59,72.59,0,0,1-15.75-4.18Z" transform="translate(0.69 -12.07)"/><path class="cls-22" d="M611.91,535.87c-.8-5.5-1.78-12.16-2.35-20.61L609.4,513c-6.36,4.3-13.25,8.25-25.64,9.48a13.09,13.09,0,0,1-4.3-.36c-11.4-2.9-23.73-3.3-36.82-3.34-4.58,0-4.66.14-40.21,3.4-16.95,1.56-33.79,4.44-50.79,5.11-15.74.62-27.8.18-40.64,8.08-10.31,6.35-14,13.71-14.81,15.32-5.25,10.83-1.36,30.37-.85,33.6a203.5,203.5,0,0,0,11.41,41.63c2.05,5.31,9.85,29.2,11.51,38.14,6.67,35.86,6.94,76,6.94,76s12.54,7.28,39.29,2.69c14.28-2.45,21.77-9.07,21.77-9.07s-3.61-51.89-3.3-57.93c1.14-22.35,1.72-33.53.42-46-.65-6.31-1.26-12.11-2.28-17.75l5.25-.11c45.08-1,93.23,1.67,117.24-17.45,10.62-8.45,12.4-21.91,11.78-32C615,556.68,612.73,541.6,611.91,535.87Z" transform="translate(0.69 -12.07)"/><path class="cls-22" d="M542.22,444.28A151.83,151.83,0,0,0,548.67,428c1.87-5.51,3.53-11.09,5-16.7l1.08-4.19c.08-.34.17-.74.25-1l.33-1c.23-.7.44-1.41.64-2.12q1.25-4.25,2.08-8.58c.56-2.89,1-5.78,1.29-8.71a78,78,0,0,0,.44-8.78c-1.72,5.61-3.25,11.18-5,16.67-.86,2.74-1.73,5.47-2.68,8.17l-.71,2-.37,1.05c-.17.45-.24.76-.35,1.12l-1.14,4.23c-1.48,5.6-2.87,11.23-4.13,16.89s-2.43,11.36-3.26,17.17Z" transform="translate(0.69 -12.07)"/><path class="cls-22" d="M502.47,354.87a87.45,87.45,0,0,0-2.86,9.11c-.8,3.07-1.49,6.16-2.14,9.26-.32,1.56-.62,3.12-.89,4.7s-.49,3.2-.64,4.82-.22,3.13-.4,4.67-.33,3.09-.52,4.64l-1.12,9.36-1,9.38c-.67,6.25-1.47,12.47-2.21,18.8a102.34,102.34,0,0,0,5.49-18.26c.67-3.11,1.22-6.24,1.73-9.36.25-1.56.48-3.12.71-4.69s.43-3.14.63-4.72.35-3.17.47-4.77.2-3.25.24-4.79c.12-3,.5-6.13.81-9.26.67-6.29,1.18-12.55,1.72-18.89Z" transform="translate(0.69 -12.07)"/><path class="cls-22" d="M402.8,376.35a240.26,240.26,0,0,0,10.59,26.12q6,12.76,12.93,25t14.55,24.1c5.09,7.89,10.39,15.63,16,23.12-4.63-8.17-9.39-16.23-14.1-24.32s-9.37-16.2-13.95-24.35-9.08-16.34-13.43-24.61-8.55-16.63-12.63-25.1Z" transform="translate(0.69 -12.07)"/><path class="cls-19" d="M420.23,352.92c7.77,5.18,10.43,13.34,12.32,19.4,3,9.75,5.45,23.37,3.93,36.5-.48,4.22-7.32,58.94-34,89.46-2.73,3.13-6.53,5.94-11.88,5.76-3.72-.13-6.39-3.07-7.26-4-7-7.72-5.07-22.47-1.4-40.12,6.11-29.4,9.27-29.7,13.08-52.38,3-18.11,4.55-27.16,4.41-34.65-.23-12-2.25-19.52,2.18-23,4.74-3.68,13.69-.26,18.59,3Z" transform="translate(0.69 -12.07)"/><path class="cls-23" d="M402.8,376.35C426.33,434.53,475.6,502,479,507c20.73,29.81,96.58,30.77,120,20.5,5.08-2.23,12.09-5,10.26-15.2C595.41,435.07,578.19,348,546.91,323.14c-6.8-5.39-18.25-8.74-23.53-9.21a270,270,0,0,0-57.5,1.35c-30.7,4.62-44.85,12.8-53.18,18.17a41.7,41.7,0,0,0-6.06,5.13,26.63,26.63,0,0,0-7.85,20.21,66.26,66.26,0,0,0,4,17.56Z" transform="translate(0.69 -12.07)"/><path class="cls-20" d="M539.42,322.79c10.13,2.57,15,12.59,16.63,16a41.4,41.4,0,0,1,3.69,20.8c-1.41,27.44-8.25,44.9-8.5,45.84-14.53,55.36-27.06,92.14-42.86,109.56-3.8,4.19-8.28,8.38-13.3,7.8-10.19-1.18-15.14-21.11-15.89-24.14-.89-3.58-4.19-12.27-.74-25.26,3.58-13.48,6.38-17.82,12.19-37.14,4.29-14.25,5.86-25.83,7.39-37.14,2.59-19.12.7-11.93,3-26.15,3-18.79,6.07-38.29,20.33-46.8,1.56-.93,9.33-5.56,18.1-3.34Z" transform="translate(0.69 -12.07)"/><path class="cls-23" d="M433,436.83A238.64,238.64,0,0,0,438.24,409c1.85-16-2.19-31.37-4-37.23s-4.57-14.72-13-20.35c-3.4-2.26-9.16-4.9-14.25-4.9a10.19,10.19,0,0,0-6.4,2c-4.06,3.15-3.72,8.66-3.24,16.29.15,2.41.32,5.14.37,8.11.14,7.33-1.37,16.35-4.39,34.32-.77,4.6-1.57,8.62-2.45,12.26l-.28,1.14.93.7A89.43,89.43,0,0,0,431,438.15l1.58.24.39-1.56Z" transform="translate(0.69 -12.07)"/><path class="cls-23" d="M537.19,445.62c1.14,0,2.3,0,3.42-.08l1.25-.06.36-1.2c3.31-11,6.82-23.54,10.73-38.44,0-.06.08-.24.18-.51,4.57-13.2,7.54-29.42,8.38-45.68A43,43,0,0,0,557.64,338c-1.69-3.5-6.86-14.14-17.78-16.91a21.71,21.71,0,0,0-5.29-.65,27.63,27.63,0,0,0-14.15,4.19c-15,8.92-18.12,28.81-21.17,48A93,93,0,0,0,497.88,384c-.13,2.34-.3,5.26-1.59,14.85a243.11,243.11,0,0,1-5.63,30.77l-.32,1.25,1.08.7c14,9.07,30.31,14.06,45.77,14.06Z" transform="translate(0.69 -12.07)"/><path class="cls-22" d="M430.51,348.05l59.8.28,0,3-59.8.28Z" transform="translate(0.69 -12.07)"/><path class="cls-22" d="M426.65,351.65l-28.8.14a8.08,8.08,0,0,1,2.33-3.39l.18-.49,26.27.12,0,3.63Z" transform="translate(0.69 -12.07)"/><path class="cls-22" d="M556,348.64l10.24,0c.38.76.77,1.53,1.16,2.32l-11.41.05v-2.41Z" transform="translate(0.69 -12.07)"/><path class="cls-22" d="M492.31,348.34l59.8.27,0,2.46-59.81.27Z" transform="translate(0.69 -12.07)"/><path class="cls-22" d="M555.69,411.15l32.52-.15c.34,1.26.66,2.52,1,3.8l-33.52-.16,0-3.48Z" transform="translate(0.69 -12.07)"/><path class="cls-22" d="M427,414l-35-.16c.13-.64.26-1.29.39-2l34.6-.16Z" transform="translate(0.69 -12.07)"/><path class="cls-22" d="M430.21,411.74l59.81-.28v2.87l-59.81-.28Z" transform="translate(0.69 -12.07)"/><path class="cls-22" d="M492.6,411.45l59.8-.28,0,3.46-59.8-.28Z" transform="translate(0.69 -12.07)"/><path class="cls-22" d="M555.39,474.74l47,.22c.12.66.25,1.32.38,2l-47.38.22v-2.42Z" transform="translate(0.69 -12.07)"/><path class="cls-22" d="M492.89,474.45l59.8.28,0,2.44-59.8.29Z" transform="translate(0.69 -12.07)"/><path class="cls-22" d="M489.71,477.47l-30.72.14-2.2-3.33,32.93.15,0,3Z" transform="translate(0.69 -12.07)"/><path class="cls-22" d="M430.49,351.63l-.28,60.11v2.31l-.1,23.6c-1-.17-2-.35-3.05-.56l-.1-23v-2.28l-.28-60.11,0-3.62-.1-22.52c1.29-.57,2.65-1.14,4.09-1.71l-.11,24.25,0,3.58Z" transform="translate(0.69 -12.07)"/><path class="cls-22" d="M492.32,351.34l.28,60.11,0,2.9.27,60.1,0,3L493.1,519c-1.24-.72-2.43-1.46-3.58-2.24l.18-39.26,0-3,.28-60.11v-2.87l.28-60.11v-3l.17-35.49,1.67-.06.17,35.56v3Z" transform="translate(0.69 -12.07)"/><path class="cls-22" d="M556,351.05l-.28,60.1v3.49l-.28,60.1v2.42L555.13,533,553,532.9l-.26-55.73v-2.44l-.27-60.11,0-3.45-.27-60.1v-2.46l-.1-21.05q2.06,2.19,4,4.76L556,348.63V351Z" transform="translate(0.69 -12.07)"/><path class="cls-21" d="M381.54,411.32a131.76,131.76,0,0,0,5.85,14.11c2.18,4.59,4.47,9.11,6.71,13.64s4.44,9.07,6.46,13.68,3.87,9.32,5.55,14.13A75.5,75.5,0,0,0,402.33,452,129.47,129.47,0,0,0,396.27,438c-2.26-4.56-4.7-9-7.19-13.43s-5-8.81-7.53-13.23Z" transform="translate(0.69 -12.07)"/><path class="cls-20" d="M485.87,475.84c-2.6-.39-4.43-.61-18.36,1.83-12.15,2.13-13.87,2.64-18,3.24-9.53,1.39-14.66,1.4-24.56.84-30.28-1.74-45.19-2-52.71-.93-3.36.48-4.39,1.14-4.79,1.41-5.47,3.78-5.87,15.19-.57,20.25,1.55,1.48,2.6,1.87,10.19,3.19,11.63,2,26.57,7.17,35.55,9.41,12.62,3.14,67.34,14.21,84.49,7.32,9.75-3.92,10.92-22.38,5.37-32.93-3.24-6.15-8.54-12.39-16.64-13.63Z" transform="translate(0.69 -12.07)"/><path class="cls-20" d="M478.45,473.36c3.58-13.48,6.38-17.82,12.2-37.14.44-1.48.85-2.93,1.24-4.36,13.94,8.88,30,13.77,45.3,13.77.93,0,1.87,0,2.8-.06-10.17,33.36-20,56.59-31.61,69.39-3.8,4.19-8.28,8.38-13.3,7.8-10.19-1.18-15.14-21.11-15.89-24.14-.89-3.58-4.19-12.27-.74-25.26Z" transform="translate(0.69 -12.07)"/><path class="cls-19" d="M380.46,344.8c.17,2.76-.62,6.07-2.2,12.68a45.56,45.56,0,0,1-2.87,8.5c-1.6,3.52-2.41,5.28-3.9,6.14-3.76,2.17-10.12-.82-13.66-4.57-5.13-5.46-4.74-13-4.55-16.61.48-9.2,5.07-23.44,12.75-23.92,6.61-.42,13.94,9.48,14.44,17.78Z" transform="translate(0.69 -12.07)"/><path class="cls-19" d="M437.18,299.91c7.21,10,8.58,22.91,8.69,24.16A52.6,52.6,0,0,1,443.59,345c-1.34,4.19-4.76,15-14.2,22.55-2.57,2.06-7.18,5.64-12.62,4.87a12.14,12.14,0,0,1-4.23-1.5c-7.92-4.3-13.09-11.45-17.19-12.48a2.71,2.71,0,0,0-1.77.2c-2.23,1.12-4.27,4.83-8.27,3.78a3.65,3.65,0,0,1-2.39-2.05c-2.82-5.23-4-11.52-5.77-17-.94-2.91-1.62-4-5-7.83-7.74-8.77-12.37-7.91-19.51-15.77-3.53-3.89-7.88-8.68-7.37-14.4.6-6.67,7.51-11,11.05-13.16,20.09-12.25,63.32-16.73,80.85,7.69Z" transform="translate(0.69 -12.07)"/><path class="cls-23" d="M389.35,334.59a4.85,4.85,0,0,0,.71,1.05,7,7,0,0,0,.91.89,7.55,7.55,0,0,0,2.26,1.29,7.74,7.74,0,0,0,2.67.47c.23,0,.46,0,.68,0l.34,0,.33-.05a12,12,0,0,0,1.29-.29,9,9,0,0,0,2.43-1.14,8,8,0,0,0,3.15-4.19,7.69,7.69,0,0,0,.29-1.24,6.57,6.57,0,0,0,.08-1.26c-.56.64-1.05,1.25-1.58,1.81a12.83,12.83,0,0,1-1.6,1.47,10.46,10.46,0,0,1-3.58,1.82c-.32.1-.66.18-1,.27l-.25.06-.25,0-.48.08a9.69,9.69,0,0,1-2,.06,16,16,0,0,1-4.38-1.08Z" transform="translate(0.69 -12.07)"/><path class="cls-23" d="M379,333.5a24.8,24.8,0,0,0,3.38-1.12c1-.42,2.06-.87,3-1.33a21.7,21.7,0,0,0,2.82-1.59l1.38-.9a15.44,15.44,0,0,1,1.44-.79,47.56,47.56,0,0,1,6.11-2.53,49,49,0,0,1,6.54-1.69l0-.41a34.3,34.3,0,0,0-6.94.12c-1.17.13-2.33.32-3.48.56s-2.29.57-3.42.93-2.27.7-3.4,1.12a12.09,12.09,0,0,0-3.13,1.72,16.22,16.22,0,0,0-2.63,2.48,11.89,11.89,0,0,0-2,3.13l.26.31Z" transform="translate(0.69 -12.07)"/><path class="cls-19" d="M433.08,354.56c2,2.36,7.55,5.68,13,8.1a23.82,23.82,0,0,0,19.72-.77c14.14-6.82,17.58-22.7,17.92-24.09.78-3.19,2.25-10.64-1.27-15.8a22.94,22.94,0,0,0-6.35-5.83C452.28,302.28,451.51,287,437.29,280c-12.65-6.24-27.34,1-34.31,13.56-9.69,17.51,12.38,39.92,30.1,61Z" transform="translate(0.69 -12.07)"/><path class="cls-22" d="M423.17,293.93c-13.77-11.83-40.49-31.47-39.59-33.27,2.57-5.13,6.44-7,10.45-10.38a31.59,31.59,0,0,1,12.51-6.43c4.66-1.39,8.42-1.09,12.06-.81,9.58.75,5.8-6.76,8-5.54,5.58,3.17,19.63,9.23,27.07,32.36,4.18,13,2.9,31.07,6.89,32.82,4.16,1.82,3.07,5,.75,6-7.56,3.2-26-4.38-38.11-14.78Z" transform="translate(0.69 -12.07)"/><path class="cls-21" d="M444.81,317.81a95,95,0,0,1,.18,13.27A63.22,63.22,0,0,1,443,344a56.45,56.45,0,0,1-4.72,12.2,43.43,43.43,0,0,1-3.51,5.54c-.66.88-1.36,1.72-2.09,2.55s-1.5,1.62-2.3,2.4a32.25,32.25,0,0,0,2.67-2c.85-.73,1.65-1.52,2.43-2.33a35.34,35.34,0,0,0,4.12-5.38,46.11,46.11,0,0,0,5.34-12.43,48.05,48.05,0,0,0,1.75-13.43,54.1,54.1,0,0,0-.47-6.73,44.65,44.65,0,0,0-1.35-6.58Z" transform="translate(0.69 -12.07)"/><path class="cls-22" d="M396.4,290.88c1.43-2.1,1.77-3.82,2.92-3.66,6,.87,15.78,4.41,23.47,16.8a5.23,5.23,0,0,0,5.12,2.65c1.49-.18,3.33-1.48,3.38-3a10.27,10.27,0,0,0-.26-3c-.64-2.12.39-4.52,1.8-6.3.14-.17.29-.34.45-.5a36.16,36.16,0,0,0,8.85-36.32c-3.76-12.6-10.6-20.52-22.85-22.16-3.54-.48-6.59,1.14-8.43.69-3.08-.74-1.59-1.74-8.1-3.55-7.67-2.12-29,5.2-44.7,23.15a85.22,85.22,0,0,0-16.52,31.38c-3.88,14.33,4.8,26.85,6,27,.84.13.41-6.23,5.87-4.35,10.42,3.57,24-2.67,32.26-8,4.52-2.92,7.1-5.6,10.7-10.86Z" transform="translate(0.69 -12.07)"/><path class="cls-19" d="M437.06,312c2.17,3.51,3.15,5.18,5.22,5.73a5.72,5.72,0,0,0,4.89-1c1.3-1,1.89-2.55,2.33-6.13.61-4.95,1.06-8.61-.24-13.64s-3.14-8.19-6.22-9.76c-3.3-1.68-6.64-.62-9.27,1.69-4.93,4.35-2.87,12.31-2.41,13.88C431.66,303.83,431.58,303.16,437.06,312Z" transform="translate(0.69 -12.07)"/><path class="cls-20" d="M345.66,323.52c-.49-2.23-1.73-2.48-2.58-3.89-1-1.71-.47-3.11-.26-10.12.18-6.14-.18-8.21,1.2-9s3.08.24,3.27.35a6.2,6.2,0,0,1,3.07,4.5,44.46,44.46,0,0,1,.81,10.84s6.26-5.77,8.83-7a5.25,5.25,0,0,1,5.36.29,5.09,5.09,0,0,1,2.06,3.37c.16,1.25-.71,2-.34,2.42s1.64-.68,3.35-.35a4,4,0,0,1,2.24,1.39,5.33,5.33,0,0,1,1,3.8c0,.78-.2,2.72-2.24,5.62-1.76,2.51-2.27,2-4.3,4.5-1.87,2.3-1.32,2.59-4.65,7.95-1,1.61-1.59,2.46-1.37,2.68.48.49,4.35-2.66,4.9-3.11a78,78,0,0,0,7.4-6.4,4.45,4.45,0,0,1,2.5-1.55,3.87,3.87,0,0,1,2.67.6,4.33,4.33,0,0,1,1.63,3.11c.06.47.24,2.46-2.24,5.8-1.5,2-2.06,2-4.9,4.75-2.56,2.51-4,3.9-5.25,6.23-.77,1.39-.83,1.93-2.15,4.32a15.29,15.29,0,0,1-2.5,3.81c-.56.53-2.86,2.7-5.5,2.16-2-.41-3.14-2.13-4-3.37-1.38-2.08-.72-2.61-2.06-5.1-1.57-2.89-2.58-3.56-2.95-5.77a21.93,21.93,0,0,1,0-5.49c.27-1.91-.31-1.92-1.46-6.73-1.23-5.1-1.62-5.61-1.55-7.61A10.33,10.33,0,0,0,345.66,323.52Z" transform="translate(0.69 -12.07)"/><path class="cls-21" d="M366,316a24.33,24.33,0,0,0-2.71,1.84c-.86.65-1.68,1.35-2.49,2.07a49,49,0,0,0-4.5,4.61,30.91,30.91,0,0,0-2,2.6,17.25,17.25,0,0,0-1.64,2.94,18.59,18.59,0,0,0-1.08,3.15,15.08,15.08,0,0,0-.46,3.28c1.19-1.86,2.28-3.65,3.48-5.33.6-.85,1.19-1.64,1.84-2.42s1.34-1.57,2-2.37c1.36-1.6,2.71-3.25,4-5A46.43,46.43,0,0,0,366,316Z" transform="translate(0.69 -12.07)"/><path class="cls-23" d="M451.64,527.28c-5.83.6-11.68,1-17.42,1.93a69.59,69.59,0,0,0-16.64,4.54c-1.32.55-2.62,1.17-3.9,1.81-.64.32-1.27.66-1.91,1s-1.23.69-1.83,1.06a33.59,33.59,0,0,0-6.56,5.23,28.2,28.2,0,0,0-4.86,6.74c-.32.62-.6,1.22-.92,1.93a16.4,16.4,0,0,0-.76,1.88,26.61,26.61,0,0,0-1,4,48.73,48.73,0,0,0-.71,8.49,86.45,86.45,0,0,0,.42,8.64c.26,2.89.67,5.76,1.11,8.65l.66,4.36c.23,1.44.46,2.88.73,4.32a265.25,265.25,0,0,0,8.75,34,171.46,171.46,0,0,1-11.25-33.53c-.33-1.45-.62-2.9-.92-4.35-.15-.73-.27-1.46-.4-2.19l-.4-2.16c-.56-2.9-1-5.86-1.36-8.82a64.19,64.19,0,0,1,.16-18,30.26,30.26,0,0,1,1.18-4.51,23.27,23.27,0,0,1,.9-2.21c.3-.62.63-1.35,1-2a31,31,0,0,1,5.52-7.42,34.53,34.53,0,0,1,7.29-5.53c.67-.38,1.34-.73,2-1.08s1.34-.66,2-1c1.37-.62,2.75-1.2,4.15-1.71a59.85,59.85,0,0,1,8.59-2.5,77.18,77.18,0,0,1,8.79-1.26,172.66,172.66,0,0,1,17.61-.34Z" transform="translate(0.69 -12.07)"/><path class="cls-4" d="M542.21,606c7.89-17.56,16.65-46.77,29.36-63.79,5.87-7.86,20.13-10.87,34.58-12.19,20.9-1.92,30.23-3.45,63.5-5,6.71-.31,15.85-.9,25.32-1.86.16,2.72.25,5.46.25,8.22,0,73.36-59.17,132.83-132.16,132.83a121.21,121.21,0,0,1-42.76-7.74C527.71,643.7,533.4,625.65,542.21,606Z" transform="translate(0.69 -12.07)"/><path class="cls-10" d="M537.1,749.8c8.19-11.52,24.31-27.51,40.1-64.25,11.7-27.19,21.85-80.42,25.21-114.38.36-3.67,2.8-16.73,7.63-23.48,7.07-9.89,18.6-11.41,44.8-14.67,26.43-3.28,45.12-2.6,63.45-8.7a60.23,60.23,0,0,0,19.93-10.82c-.73,12.66-1.78,28.23-3.3,47.28C729,635.27,710.61,671.13,703,687.63c-6.78,14.66-18.12,18.81-20.33,19.57C647.12,719.33,609,733.74,542.56,749a39.25,39.25,0,0,1-5.46.79Z" transform="translate(0.69 -12.07)"/><path class="cls-18" d="M239.83,171.76A12.53,12.53,0,0,0,228.76,166c-8.06.35-37.86,9.73-37.86,9.73s-29.79,9.38-36.59,13.71a12.49,12.49,0,0,0-5.77,11.08c.34,8.05,5.22,23.56,5.22,23.56s4.88,15.5,9.22,22.3a12.46,12.46,0,0,0,11.07,5.77c8.06-.34,37.85-9.72,37.85-9.72s29.8-9.38,36.6-13.71a12.49,12.49,0,0,0,5.77-11.08c-.34-8-5.23-23.56-5.23-23.56S244.15,178.57,239.83,171.76Z" transform="translate(0.69 -12.07)"/><path class="cls-13" d="M196.37,226.36l20.25-22.08-29.25-6.5Z" transform="translate(0.69 -12.07)"/><path class="cls-13" d="M182.7,250.49l-11-2.31,6.66-12a4.38,4.38,0,0,0-3.25-6.28,5.52,5.52,0,0,0-4.31.86l-18.73,13.33-10.41-2.19-5.46,26,10.41,2.18,2.6.55,24.55,5.15a5.81,5.81,0,0,0,6.58-3l6.77-14.89C188.48,254.83,186.37,251.26,182.7,250.49Zm-35.55,17-7.81-1.64L143.71,245l7.81,1.64Zm37.52-10.69-6.77,14.88a3.13,3.13,0,0,1-3.6,1.5L149.75,268l4.7-22.41,17.89-12.72a2.83,2.83,0,0,1,2.21-.43,2,2,0,0,1,1.48,1.12,1.43,1.43,0,0,1,0,1.28l-6.66,12L167.6,250l3.52.73,11,2.31a3.5,3.5,0,0,1,2.43,1.77A2.13,2.13,0,0,1,184.67,256.8Z" transform="translate(0.69 -12.07)"/></g></g></g></g></svg>