<svg xmlns="http://www.w3.org/2000/svg" viewBox="0 0 505.45 377.71"><defs><style>.cls-1{opacity:0.1;}.cls-2,.cls-3{fill:#353535;}.cls-2{fill-rule:evenodd;}</style></defs><g id="Layer_2" data-name="Layer 2"><g id="Layer_1-2" data-name="Layer 1"><g class="cls-1"><path class="cls-2" d="M166.44,91.83a129.85,129.85,0,0,0,0,194.06l-26.13,29.39a169.17,169.17,0,0,1,0-252.84ZM339,285.89a129.85,129.85,0,0,0,0-194.06l26.14-29.39a169.19,169.19,0,0,1,0,252.84ZM110.92,348.33a213.41,213.41,0,0,1,0-318.94L84.78,0a252.74,252.74,0,0,0,0,377.71Zm309.75,29.38-26.13-29.38a213.41,213.41,0,0,0,0-318.94L420.67,0a252.74,252.74,0,0,1,0,377.71Z"/><circle class="cls-3" cx="252.73" cy="188.86" r="59.51"/></g></g></g></svg>