<svg xmlns="http://www.w3.org/2000/svg" xmlns:xlink="http://www.w3.org/1999/xlink" viewBox="0 0 806.9 443.98"><defs><style>.cls-1,.cls-11,.cls-12,.cls-16,.cls-22,.cls-7,.cls-8{fill:none;}.cls-2{clip-path:url(#clip-path);}.cls-3{fill:#8a8a8a;opacity:0.1;isolation:isolate;}.cls-4{fill:#fff;}.cls-5{fill:#e65e77;}.cls-6{fill:#b54b4b;}.cls-11,.cls-7,.cls-8{stroke:#fff;}.cls-11,.cls-12,.cls-16,.cls-22,.cls-7{stroke-linecap:round;stroke-linejoin:round;}.cls-7{stroke-width:0.98px;}.cls-8{stroke-miterlimit:10;}.cls-9{fill:#f6d6c8;}.cls-10{fill:#f98b61;}.cls-11{stroke-width:2.41px;}.cls-12{stroke:#000;stroke-width:1.04px;}.cls-13{fill:#db8d65;}.cls-14{fill:#321c1a;}.cls-15{fill:#e58862;}.cls-16{stroke:#321c1a;}.cls-17{fill:#ededed;}.cls-18{fill:#ed8aa2;}.cls-19{fill:#fca2ab;}.cls-20{fill:#773a23;}.cls-21{fill:#312220;}.cls-22{stroke:#312220;stroke-width:1.01px;}.cls-23{fill:#fcb4bf;}.cls-24{fill:#efa3b2;}.cls-25{fill:#1a1a1a;}.cls-26{fill:#191919;}.cls-27{fill:#313131;}</style><clipPath id="clip-path" transform="translate(0.01 0)"><rect class="cls-1" width="807" height="444"/></clipPath></defs><g id="Layer_2" data-name="Layer 2"><g id="Layer_1-2" data-name="Layer 1"><g class="cls-2"><path class="cls-3" d="M88,434.8S-21.23,356.38,33.52,272c52.21-80.5,139,5.8,256.11-121.84S544.81,51.1,582,154.5c43.34,120.46,134.47,76,182.9,129,55.28,60.51-5,129.4-43,151.29H88Z" transform="translate(0.01 0)"/><path class="cls-4" d="M549.77,3.81A4.52,4.52,0,1,0,546,9,4.52,4.52,0,0,0,549.77,3.81Z" transform="translate(0.01 0)"/><path class="cls-4" d="M9,384a4.52,4.52,0,1,0-3.76,5.16A4.52,4.52,0,0,0,9,384Z" transform="translate(0.01 0)"/><path class="cls-4" d="M225.28,82.79A4.51,4.51,0,1,0,221.53,88,4.51,4.51,0,0,0,225.28,82.79Z" transform="translate(0.01 0)"/><path class="cls-5" d="M305.69,9.59H219.07a2.63,2.63,0,1,1,0-5.26h86.62a2.63,2.63,0,0,1,0,5.26Z" transform="translate(0.01 0)"/><path class="cls-6" d="M709.76,50.06H702a3.69,3.69,0,0,0-3.69,3.68V61A3.69,3.69,0,0,0,702,64.69h7.75A3.69,3.69,0,0,0,713.45,61V53.74A3.69,3.69,0,0,0,709.76,50.06Z" transform="translate(0.01 0)"/><path class="cls-7" d="M769.11,211.38a8.18,8.18,0,1,1-8.18-8.27A8.22,8.22,0,0,1,769.11,211.38Z" transform="translate(0.01 0)"/><path class="cls-7" d="M38.69,201a8.43,8.43,0,1,1-8.43-8.54A8.49,8.49,0,0,1,38.69,201Z" transform="translate(0.01 0)"/><path class="cls-7" d="M519.25,102.36H623.8" transform="translate(0.01 0)"/><path class="cls-7" d="M236.83,158.64h66" transform="translate(0.01 0)"/><path class="cls-7" d="M760.63,344.76H806.4" transform="translate(0.01 0)"/><path class="cls-5" d="M773,123.33H683.8a3.1,3.1,0,0,0-3.1,3.1v26.39a3.1,3.1,0,0,0,3.1,3.11H773a3.11,3.11,0,0,0,3.11-3.11V126.43A3.1,3.1,0,0,0,773,123.33Z" transform="translate(0.01 0)"/><path class="cls-8" d="M695.61,134.51H755" transform="translate(0.01 0)"/><path class="cls-8" d="M695.61,143.25h18.21" transform="translate(0.01 0)"/><path class="cls-5" d="M692.62,152.37V164.6L708,152.37Z" transform="translate(0.01 0)"/><path class="cls-6" d="M371.51,20H448a9.78,9.78,0,0,1,9.78,9.77V101a9.78,9.78,0,0,1-9.78,9.77H374.63a12.9,12.9,0,0,1-12.9-12.89V29.76A9.79,9.79,0,0,1,371.51,20Z" transform="translate(0.01 0)"/><path class="cls-9" d="M409.74,35.58a1.5,1.5,0,0,0-1.5,1.49v6a1.5,1.5,0,0,0,3,0v-6A1.49,1.49,0,0,0,409.74,35.58Zm-21.16,8.76a1.44,1.44,0,0,0-1.05.44,1.48,1.48,0,0,0,0,2.1l4.23,4.22a1.48,1.48,0,0,0,2.1-2.1l-4.22-4.22a1.44,1.44,0,0,0-1.05-.44Zm42.31,0a1.44,1.44,0,0,0-1,.44L425.62,49a1.49,1.49,0,0,0,2.11,2.1L432,46.88a1.47,1.47,0,0,0,0-2.1,1.44,1.44,0,0,0-1-.44ZM379.81,65.47a1.5,1.5,0,0,0,0,3h6a1.5,1.5,0,0,0,0-3Zm53.86,0a1.5,1.5,0,0,0,0,3h6a1.5,1.5,0,0,0,0-3Z" transform="translate(0.01 0)"/><path class="cls-4" d="M420,55a15.51,15.51,0,0,0-25.61,9.87,15.1,15.1,0,0,0,5.41,13.41,5.27,5.27,0,0,1,1.89,4.08V89a4,4,0,0,0,3.94,3.84h8.21a4,4,0,0,0,4-3.84V82.62a5.41,5.41,0,0,1,1.76-4.08A15.43,15.43,0,0,0,421.7,56.8,15.89,15.89,0,0,0,420,55Zm-2.37,21.38a8.45,8.45,0,0,0-2.76,5h-3.7V73.86h2.61a1.43,1.43,0,0,0,0-2.85h-8.11a1.43,1.43,0,1,0,0,2.85h2.65v7.58h-3.75a8.87,8.87,0,0,0-2.9-5.26,12.11,12.11,0,0,1-4.46-11A12.6,12.6,0,1,1,419.13,75a12.16,12.16,0,0,1-1.52,1.44Z" transform="translate(0.01 0)"/><path class="cls-10" d="M121.53,64.07H61.33a6.14,6.14,0,0,0-6.14,6.14v52.67A6.13,6.13,0,0,0,61.33,129h60.2a6.13,6.13,0,0,0,6.14-6.13V70.21A6.14,6.14,0,0,0,121.53,64.07Z" transform="translate(0.01 0)"/><path class="cls-6" d="M72.58,66.77A17,17,0,1,0,53.09,80.84,17,17,0,0,0,72.58,66.77Z" transform="translate(0.01 0)"/><path class="cls-11" d="M48.21,64.93l6.37,4.64L62.16,60" transform="translate(0.01 0)"/><path class="cls-4" d="M106.61,92.48l-2.53-.43a12.47,12.47,0,0,0-1.3-3.13l1.47-2.09a1.91,1.91,0,0,0-.21-2.47l-1.51-1.51a1.91,1.91,0,0,0-2.48-.17L98,84.15a13,13,0,0,0-3.13-1.3l-.44-2.57a2,2,0,0,0-1.86-1.61H90.36a1.94,1.94,0,0,0-1.92,1.61L88,82.79a12.47,12.47,0,0,0-3.13,1.3l-2.09-1.4a1.92,1.92,0,0,0-2.47.22l-1.51,1.51a1.92,1.92,0,0,0-.22,2.47L80.06,89a13.62,13.62,0,0,0-1.3,3.13l-2.51.44a1.93,1.93,0,0,0-1.61,1.91v2.12a1.92,1.92,0,0,0,1.61,1.91l2.51.44a12.7,12.7,0,0,0,1.3,3.14l-1.47,2.1a1.92,1.92,0,0,0,.22,2.47l1.51,1.5a1.92,1.92,0,0,0,2.47.22l2.1-1.47a13,13,0,0,0,3.13,1.3l.44,2.51a1.93,1.93,0,0,0,1.91,1.61h2.17a1.93,1.93,0,0,0,1.91-1.61l.44-2.51a12.79,12.79,0,0,0,3.13-1.3l2,1.44a1.93,1.93,0,0,0,2.47-.22l1.51-1.51a1.93,1.93,0,0,0,.22-2.47L102.79,102a13,13,0,0,0,1.31-3.14l2.52-.43a1.94,1.94,0,0,0,1.61-1.91V94.41a1.94,1.94,0,0,0-1.61-1.9Zm-15.19,8.73a5.76,5.76,0,1,1,5.76-5.76v0A5.76,5.76,0,0,1,91.42,101.21Z" transform="translate(0.01 0)"/><path class="cls-6" d="M579.82,348.17l-20.89,91.21h63.29L626,352.83Z" transform="translate(0.01 0)"/><path class="cls-6" d="M656.93,342.35s20.79,34,16.12,95.71l-65,1.3,3-86.68,45.84-10.34Z" transform="translate(0.01 0)"/><path class="cls-12" d="M608.09,439.38l.52-39.21-17.67-7.32" transform="translate(0.01 0)"/><path class="cls-4" d="M564.29,240.49c-7.68,12.42-24.38,41.82-33.11,74.48A19,19,0,0,0,567,327.13l31.21-69.24a19.14,19.14,0,0,0-34-17.39Z" transform="translate(0.01 0)"/><path class="cls-13" d="M490.92,293.76s-42.69-21.25-43.57,15.51l29.14,5.56Z" transform="translate(0.01 0)"/><path class="cls-4" d="M553.87,303.63,484.09,288.2l-7.61,26.64,68,24.67c13.89,3.12,26.59-9.65,22.65-22.77-1.8-6-6.88-11.81-13.29-13.11Z" transform="translate(0.01 0)"/><path class="cls-4" d="M619,226.33l34,1.27,17.81,45.74L664,349.47s-44.13,23.86-88.25,3.45l1-121.06L598,228.43Z" transform="translate(0.01 0)"/><path class="cls-12" d="M576.82,266.7l-.73,40.06" transform="translate(0.01 0)"/><path class="cls-13" d="M678.7,388.87a17,17,0,1,0-23.5-5A16.94,16.94,0,0,0,678.7,388.87Z" transform="translate(0.01 0)"/><path class="cls-13" d="M652.94,370.7s-6-4.95,1.13-10.36,19.21-8.5,29.62,5.05L653,370.7Z" transform="translate(0.01 0)"/><path class="cls-4" d="M709.68,289.47l-47.39,62.68,28.34,21.66,52.76-61.69c8.77-11,.71-26.26-13.29-28C723.67,283.27,713.59,284.32,709.68,289.47Z" transform="translate(0.01 0)"/><path class="cls-4" d="M663.13,229.92c15,7.4,47.75,27,76.11,53.42,8.64,8,10.71,20.35,2.87,29.17a21.77,21.77,0,0,1-28.93,3.26l-72.46-48.34a21.92,21.92,0,0,1,22.4-37.51Z" transform="translate(0.01 0)"/><path class="cls-12" d="M669.67,286.74l-20.42-13.63" transform="translate(0.01 0)"/><path class="cls-14" d="M597.23,181.14a9.27,9.27,0,0,1-8.55,9.91c-5,.31-10.29-3.67-10.58-8.84a9.29,9.29,0,0,1,8.55-9.92C591.67,172,596.94,176,597.23,181.14Z" transform="translate(0.01 0)"/><path class="cls-15" d="M601.8,205.62l-.23,22.4c-.1,7.87,4.56,12.1,12.06,12.1,6.41,0,13.48-3,13.28-10l-1.28-35.26Z" transform="translate(0.01 0)"/><path class="cls-14" d="M601.52,223.15s21.64-14.82,21.39-17.68c-.57-6.69-21.13-2.15-21.13-2.15Z" transform="translate(0.01 0)"/><path class="cls-15" d="M608.47,212.21c-12.81-.1-23.27-10.62-23.54-21.41l-.42-22.59c-.33-13.53,9.8-24.89,22.9-25.68,13.41-.82,30.93,9.7,31.72,23.53l-3.57,17.5C635.68,199.4,623.8,211.29,608.47,212.21Z" transform="translate(0.01 0)"/><path class="cls-14" d="M633.17,182l-3.4-5.43A21.75,21.75,0,0,1,631,164.93c1.27-2.71,1.13-7-3.56-10.45-6.9-5.11-21-8.84-33.45-3.81a14.31,14.31,0,0,0-7.87,7.64,13.85,13.85,0,0,0-1.22,4.73l.06-3.38c.22-12.81,10.83-22,23.66-21.69,4.49.11,9.62-.36,15.29.65,14.37,2.55,25.35,16,21,29.87l-4.51,9.32L633.18,182Z" transform="translate(0.01 0)"/><path class="cls-15" d="M649.23,183.28c.3,5.12-4.48,9.49-9.44,9.78a9.1,9.1,0,0,1-9.51-8.72c-.29-5.13,5.46-9.46,10.43-9.76S649,178.15,649.23,183.28Z" transform="translate(0.01 0)"/><path class="cls-16" d="M636.3,187.13s1.07-7.13,7.87-6" transform="translate(0.01 0)"/><path class="cls-14" d="M627.43,154.48s-3.6-2.08-10,.63c-13.23,5.63-29.07,1.25-27.16-5.09L607,144.94l19.32,2.49,1.09,7.06Z" transform="translate(0.01 0)"/><path class="cls-16" d="M598.51,182l-.73,4.58,3.17.16" transform="translate(0.01 0)"/><path class="cls-14" d="M593.91,177.7a2.21,2.21,0,1,1-2.25-2.22A2.25,2.25,0,0,1,593.91,177.7Z" transform="translate(0.01 0)"/><path class="cls-14" d="M614.14,177.29a2.21,2.21,0,1,1-2.25-2.23A2.26,2.26,0,0,1,614.14,177.29Z" transform="translate(0.01 0)"/><path class="cls-4" d="M596.21,191.28l18.08-.11a11.16,11.16,0,0,1-10.14,6.57C597.91,197.84,596.21,191.28,596.21,191.28Z" transform="translate(0.01 0)"/><path class="cls-14" d="M596,168.9a15.49,15.49,0,0,1-2.4.19c-.76,0-1.55,0-2.18,0a37.22,37.22,0,0,0-4.41.95h0a.55.55,0,0,1-.67-.41.56.56,0,0,1,.15-.51,8.19,8.19,0,0,1,2.09-1.57,7.9,7.9,0,0,1,2.61-.9,7.76,7.76,0,0,1,2.7.13,6.71,6.71,0,0,1,2.43,1,.57.57,0,0,1,.12.8.62.62,0,0,1-.35.23H596Z" transform="translate(0.01 0)"/><path class="cls-14" d="M607.41,167.45a12.26,12.26,0,0,1,3.74-1.1,14.15,14.15,0,0,1,3.9,0,13.9,13.9,0,0,1,3.81,1.21,16.21,16.21,0,0,1,3.33,2.1.62.62,0,0,1,.1.85.52.52,0,0,1-.58.22h0a46.49,46.49,0,0,0-6.93-1.69c-1.11-.11-2.33-.1-3.51-.16s-2.42-.08-3.65-.26h0a.63.63,0,0,1-.48-.71.56.56,0,0,1,.33-.47Z" transform="translate(0.01 0)"/><path class="cls-17" d="M626.92,223.58l-16.16,16.56,13,7.93,13.41-21" transform="translate(0.01 0)"/><path class="cls-17" d="M610.76,240.14l-11.7,5.41-4.14-16.61,6.6-4.5Z" transform="translate(0.01 0)"/><path class="cls-6" d="M610.76,240.14l-7.92,3.67,6.9,10.05,8.94-8.91Z" transform="translate(0.01 0)"/><path class="cls-6" d="M612.12,247.4s.9,45.52,6.56,86.61l-15.84,14.15-10.39-14.25A415.56,415.56,0,0,1,608.61,247Z" transform="translate(0.01 0)"/><path class="cls-10" d="M196,347.39l-59.62-8.81,34.19,102.63c20.58-.57,41.18-1.57,61.65-1.59Z" transform="translate(0.01 0)"/><path class="cls-10" d="M126.66,347.39l-8.66,12c-11,15.27-17.1,24.73-17.44,43.54l-.3,36.44c22.19,2.43,44.56,2.48,66.92,1.91l7.07-102.72Z" transform="translate(0.01 0)"/><path class="cls-12" d="M167.52,436.41l2.06-37.3,17-14.73" transform="translate(0.01 0)"/><path class="cls-6" d="M187.21,241.62A18.08,18.08,0,0,1,211,240.34L268.54,288a18.11,18.11,0,1,1-22.42,28.44l-57.49-47.72a18,18,0,0,1-1.44-27.08Z" transform="translate(0.01 0)"/><path class="cls-18" d="M282.2,212.67l13-6.38a2.69,2.69,0,0,1,3.19,4.23l-5.53,6.06-10.64-3.91Z" transform="translate(0.01 0)"/><path class="cls-19" d="M268.46,233,271,219.86a8.75,8.75,0,0,1,9.17-7.25c10.47,1,22.19-.25,41.49-5.16a2.18,2.18,0,0,1,2.74,2.11,6.74,6.74,0,0,1-2.79,5.49c-5.76,4.17-16.32,11.82-33.52,11.21l-3.46,12.26L268.46,233Z" transform="translate(0.01 0)"/><path class="cls-6" d="M262.31,231.3l-24.83,62.32,38,12.75,15.32-69.74Z" transform="translate(0.01 0)"/><path class="cls-6" d="M133.71,237l-25.41,3.61-5.11,26.93,23.47,79.83H196l9.69-82.74-5.64-28.23-16.8-.83Z" transform="translate(0.01 0)"/><path class="cls-12" d="M200.52,303.6l5.18-34.86" transform="translate(0.01 0)"/><path class="cls-4" d="M180.91,306.51l-60.66-20L95.09,362.84l60.67,20Z" transform="translate(0.01 0)"/><path class="cls-19" d="M172,356.37a17.09,17.09,0,1,1-.89-24.13A17.11,17.11,0,0,1,172,356.37Z" transform="translate(0.01 0)"/><path class="cls-6" d="M149.07,330.2,86,312.2l-1.7,39.07L148,359.59Z" transform="translate(0.01 0)"/><path class="cls-6" d="M119.44,242.56a18,18,0,0,1,9,22l-25.88,74.5A18.11,18.11,0,1,1,68.3,327.24l26-74.46a18.06,18.06,0,0,1,25.15-10.21Z" transform="translate(0.01 0)"/><path class="cls-12" d="M127.48,267.27,114.3,305.35" transform="translate(0.01 0)"/><path class="cls-20" d="M142.65,171.4s-29.47-1.52-34.42,18.75S104.91,218.66,95,226.93c0,0,37.84,15.76,41.14-14.21a26.9,26.9,0,0,0-.35-7.7c-1.15-6.42-3.14-21.38,2.54-24.1Z" transform="translate(0.01 0)"/><path class="cls-4" d="M140.52,185.5a10.74,10.74,0,1,0-14-5.92A10.74,10.74,0,0,0,140.52,185.5Z" transform="translate(0.01 0)"/><path class="cls-20" d="M160.59,198.62c17.95,0,32.5-13,32.5-29s-14.55-29-32.5-29-32.5,13-32.5,29S142.64,198.62,160.59,198.62Z" transform="translate(0.01 0)"/><path class="cls-18" d="M179.17,186.62a9.33,9.33,0,0,0,8.57,10c5,.3,10.33-3.69,10.62-8.87a9.32,9.32,0,0,0-8.57-10C184.76,177.45,179.46,181.44,179.17,186.62Z" transform="translate(0.01 0)"/><path class="cls-19" d="M174.59,211.19l.23,22.48c.1,7.9-4.57,12.16-12.11,12.16-6.43,0-13.53-3-13.31-10l1.29-35.4,23.91,10.76Z" transform="translate(0.01 0)"/><path class="cls-21" d="M174.82,225.11l-24.47-15.53c.57-6.71,24.26-.69,24.26-.69Z" transform="translate(0.01 0)"/><path class="cls-19" d="M167.57,215.5c12.85-.1,24.37-8.12,24.37-23.26V173.67c.33-13.58-9.84-25-23-25.78-13.45-.81-31.05,9.74-31.83,23.62l3.58,17.56c-.12,15.9,11.48,25.5,26.86,26.44Z" transform="translate(0.01 0)"/><path class="cls-22" d="M177.88,187.48l.74,4.61-3.18.15" transform="translate(0.01 0)"/><path class="cls-21" d="M182.5,183.19a2.22,2.22,0,1,0,2.26-2.22A2.26,2.26,0,0,0,182.5,183.19Z" transform="translate(0.01 0)"/><path class="cls-21" d="M162.21,182.77a2.21,2.21,0,1,0,2.25-2.23A2.25,2.25,0,0,0,162.21,182.77Z" transform="translate(0.01 0)"/><path class="cls-4" d="M180.19,196.81,162,196.7a11.2,11.2,0,0,0,10.17,6.59C178.49,203.39,180.19,196.81,180.19,196.81Z" transform="translate(0.01 0)"/><path class="cls-21" d="M180.4,174.33a15.54,15.54,0,0,0,2.4.2c.75,0,1.54,0,2.19,0a36.53,36.53,0,0,1,4.43,1h0a.55.55,0,0,0,.67-.41.59.59,0,0,0-.15-.51,8,8,0,0,0-2.1-1.58,7.26,7.26,0,0,0-5.33-.77,6.78,6.78,0,0,0-2.43,1,.58.58,0,0,0-.13.81.61.61,0,0,0,.36.23Z" transform="translate(0.01 0)"/><path class="cls-21" d="M169,172.89a11.86,11.86,0,0,0-3.75-1.1,14.29,14.29,0,0,0-3.92,0,14,14,0,0,0-3.82,1.21,16.23,16.23,0,0,0-3.35,2.11.63.63,0,0,0-.09.85.52.52,0,0,0,.58.22h0a48.43,48.43,0,0,1,7-1.69c1.12-.11,2.33-.09,3.52-.16s2.42-.08,3.67-.26h0a.64.64,0,0,0,.49-.71.67.67,0,0,0-.33-.49Z" transform="translate(0.01 0)"/><path class="cls-19" d="M183.56,235.66A202.48,202.48,0,0,0,134,237.09l4.07,3.57A37,37,0,0,0,164.78,250c.6,0,1.2-.1,1.78-.16a20.3,20.3,0,0,0,17-14.2Z" transform="translate(0.01 0)"/><path class="cls-20" d="M143.11,187.48s7.93-9.93,6.46-25.86c0,0,29,8,47-1.72,0,0-16.14-27.54-46.2-17-23.38,8.21-19.42,28.73-19.42,28.73l12.19,15.81Z" transform="translate(0.01 0)"/><path class="cls-19" d="M127,188.78c-.29,5.13,4.5,9.51,9.48,9.82a9.14,9.14,0,0,0,9.55-8.76c.29-5.14-5.48-9.49-10.46-9.8s-8.27,3.59-8.57,8.72Z" transform="translate(0.01 0)"/><path class="cls-22" d="M140,192.65s-1.07-7.16-7.89-6" transform="translate(0.01 0)"/><path class="cls-23" d="M392.06,360.54l-40.61,66.72a19.56,19.56,0,0,1-33.34-20.46l35-61.17Z" transform="translate(0.01 0)"/><path class="cls-10" d="M360.27,319.81l-26,43.42,47.1,15.94,20.78-29.83a25.61,25.61,0,1,0-41.84-29.53Z" transform="translate(0.01 0)"/><path class="cls-10" d="M425.84,303.14l42.35,1.95s10.22,2,14.89,33.91c5.61,38.46,7.05,105,7.05,105l-112.48-1.64L375.46,328.6,379,308.8l23.36-4.09,23.47-1.58Z" transform="translate(0.01 0)"/><path class="cls-12" d="M376.48,376.25V348.17" transform="translate(0.01 0)"/><path class="cls-23" d="M417.17,415.58l93-19.79c9.57-1.65,18.65,7.32,20.27,16.88A17.51,17.51,0,0,1,513.2,433.1h-96V415.58Z" transform="translate(0.01 0)"/><path class="cls-23" d="M417.17,415.58s-31.2-15.1-41.37,0a21.59,21.59,0,0,0-1.48,17.51h42.85Z" transform="translate(0.01 0)"/><path class="cls-23" d="M457.61,357.09,497.9,424a19.56,19.56,0,0,0,33.43-20.3l-34.75-61.33-39,14.73Z" transform="translate(0.01 0)"/><path class="cls-10" d="M489.59,316.5l25.84,43.55-47.18,15.72-20.63-29.94a25.61,25.61,0,1,1,42-29.32Z" transform="translate(0.01 0)"/><path class="cls-12" d="M453.12,352.83l15.13,22.94" transform="translate(0.01 0)"/><path class="cls-23" d="M427.64,264.46l3.22,35.78a8.11,8.11,0,0,1-2.62,6.72l-22.36,20.49-4.15-20.19-1.34-43.68,27.24.89Z" transform="translate(0.01 0)"/><path d="M425.47,259.91s1.66,19.5-24.09,35.23L401,277.78l24.52-17.88Z" transform="translate(0.01 0)"/><path class="cls-24" d="M391.2,252.12a9.11,9.11,0,1,1-9.26-9.19A9.3,9.3,0,0,1,391.2,252.12Z" transform="translate(0.01 0)"/><path class="cls-23" d="M399.61,284.29c-12.8-.61-21.7-11.35-21.53-22.16l.46-22.58c.21-13.53,10.78-24.49,23.9-24.77,13.44-.28,26.86,10.66,27.09,24.52L429,256.89C428.46,272.73,415,284,399.61,284.29Z" transform="translate(0.01 0)"/><path class="cls-12" d="M391.32,253.7l-.68,4.61,3.15.27" transform="translate(0.01 0)"/><path d="M387.12,249.29A2.2,2.2,0,1,1,385,247,2.25,2.25,0,0,1,387.12,249.29Z" transform="translate(0.01 0)"/><path d="M406.42,249.6a2.2,2.2,0,1,1-2.15-2.31A2.24,2.24,0,0,1,406.42,249.6Z" transform="translate(0.01 0)"/><path class="cls-4" d="M388.32,263.08l14.08.56s-.28,5.71-7,5.6S388.32,263.08,388.32,263.08Z" transform="translate(0.01 0)"/><path d="M387.81,239.84a15.54,15.54,0,0,1-2.4.2c-.75,0-1.55,0-2.19,0a36.13,36.13,0,0,0-4.43,1h0a.55.55,0,0,1-.67-.41.56.56,0,0,1,.15-.51,8,8,0,0,1,2.1-1.58,7.25,7.25,0,0,1,5.32-.77,6.82,6.82,0,0,1,2.44,1.05.57.57,0,0,1,.12.81.59.59,0,0,1-.35.23Z" transform="translate(0.01 0)"/><path d="M399.25,238.4a11.86,11.86,0,0,1,3.75-1.1,14.29,14.29,0,0,1,3.92,0,13.49,13.49,0,0,1,3.81,1.22,15.72,15.72,0,0,1,3.35,2.11.64.64,0,0,1,.1.86.54.54,0,0,1-.58.22h0a46.79,46.79,0,0,0-6.95-1.7c-1.12-.11-2.33-.09-3.52-.15s-2.43-.09-3.67-.27h0a.63.63,0,0,1-.49-.71A.59.59,0,0,1,399.25,238.4Z" transform="translate(0.01 0)"/><path class="cls-5" d="M425.5,253.42l-5.35-.87L422.44,241s-12.75-10.14-2.59-18l8.68-.08c11.18,1.65,19.27,13,14.86,24.12-1.22,3.08-4.19,6.51-6.62,10.32l-11.25-3.94Z" transform="translate(0.01 0)"/><path class="cls-23" d="M440.82,257.27a9.2,9.2,0,0,1-8.84,9.48,9.3,9.3,0,1,1,8.84-9.48Z" transform="translate(0.01 0)"/><path class="cls-12" d="M428.67,261.42s-1.17-7.16,6.26-6.21" transform="translate(0.01 0)"/><path class="cls-5" d="M419.14,230.24s-34.4-17.65-40.42,6.56c0,0-6.39-5.24-.64-11,0,0-10.43-11,2.7-19.15,12.9-8,44.71-5.24,53.84,18.33l-15.47,5.26Z" transform="translate(0.01 0)"/><path class="cls-25" d="M354.34,432.85,332.79,337a5,5,0,0,0-4.35-2.59l-137.4,0a3.68,3.68,0,0,0-3.29,5.34l19.49,93.11Z" transform="translate(0.01 0)"/><path class="cls-26" d="M427.65,421.24H337v11.6h90.64a5.81,5.81,0,1,0,0-11.62Z" transform="translate(0.01 0)"/><path class="cls-27" d="M801.41,432.94H9.38v10.91h792Z" transform="translate(0.01 0)"/><rect class="cls-1" x="125.79" y="291.7" width="29.67" height="41.47" transform="translate(-197.84 365.65) rotate(-74.7)"/><rect class="cls-1" x="617.34" y="258.01" width="31.6" height="27.83" transform="translate(339.39 895.23) rotate(-88.01)"/></g></g></g></svg>