<svg xmlns="http://www.w3.org/2000/svg" viewBox="0 0 1113.62 250.46"><defs><style>.cls-1,.cls-2{fill:#fff;}.cls-2{fill-rule:evenodd;}</style></defs><g id="Layer_2" data-name="Layer 2"><g id="Layer_1-2" data-name="Layer 1"><path class="cls-1" d="M433,163.42,393.3,8.47h34.64l13.92,70.24q5.33,26,7.83,44.26h1q1.74-13.12,7.83-44L473,8.47h34.64l-40.2,155v74.33H433V163.42Z"/><path class="cls-1" d="M518,232.84q-10.49-7.65-14.93-23.78t-4.43-42.91V141.83q0-27,5.07-43.44c3.37-10.91,8.64-18.9,15.8-23.9S536.09,67,547.73,67c11.47,0,20.64,2.55,27.57,7.64s12,13.09,15.17,23.91,4.8,25.29,4.8,43.31v24.32q0,26.81-4.69,43T575.42,233q-10.49,7.51-28.44,7.52C534.63,240.51,525,237.93,518,232.84Zm39.18-26.24c1.92-5.47,2.91-14.37,2.91-26.77V127.65c0-12-1-20.83-2.91-26.36S551.84,93,547,93c-4.72,0-8.07,2.77-10,8.34s-2.91,14.34-2.91,26.36v52.18q0,18.6,2.8,26.77c1.86,5.48,5.2,8.21,10.1,8.21S555.24,212.08,557.19,206.6Z"/><path class="cls-1" d="M708,237.78h-27.3l-3-20.51h-.76q-11.13,23.22-33.39,23.22-15.4,0-22.76-10.91t-7.34-34.17V70.25h34.91v123c0,7.49.75,12.8,2.27,16a7.81,7.81,0,0,0,7.59,4.78,14.72,14.72,0,0,0,8.74-3,18.49,18.49,0,0,0,6.2-7.64V70.22H708Z"/><path class="cls-1" d="M802.78,38.81H768.13v199H734v-199H699.35V8.49H802.78Z"/><path class="cls-1" d="M887,237.78H859.65l-3-20.51h-.75q-11.14,23.22-33.4,23.22-15.42,0-22.76-10.91t-7.34-34.17V70.25h34.9v123c0,7.49.76,12.8,2.28,16a7.81,7.81,0,0,0,7.59,4.78,14.72,14.72,0,0,0,8.74-3,18.49,18.49,0,0,0,6.2-7.64V70.22H887Z"/><path class="cls-1" d="M1002.48,97q-3.19-15.86-10.24-23t-19.48-7.11a30.53,30.53,0,0,0-18,5.88,38.87,38.87,0,0,0-12.9,15.45h-.26V0H908V237.75h28.82l3.56-15.85h.75a31.31,31.31,0,0,0,12.14,13.4,34,34,0,0,0,18,4.9q17.68,0,26.06-17.61t8.35-55.08V141C1005.65,122.27,1004.58,107.58,1002.48,97Zm-32,68.36a227.76,227.76,0,0,1-1.4,28.69c-.93,6.92-2.48,11.86-4.69,14.75a10.48,10.48,0,0,1-8.85,4.37,15.05,15.05,0,0,1-8-2.2,15.93,15.93,0,0,1-5.94-6.54v-95.1a24,24,0,0,1,6.09-11.2c2.85-2.92,6-4.37,9.34-4.37a9.22,9.22,0,0,1,8.21,4.5c2,3,3.29,8,4,15.16s1.14,17.21,1.14,30.33v21.61Z"/><path class="cls-1" d="M1055.16,175q0,16.13.88,24.19c.58,5.37,1.8,9.28,3.67,11.76s4.71,3.68,8.58,3.68c5.21,0,8.82-2.2,10.74-6.57s3-11.67,3.18-21.87l30.1,1.92a55,55,0,0,1,.25,6q0,23.22-11.75,34.7t-33.24,11.48q-25.82,0-36.16-17.49t-10.36-54.11V139.48q0-37.69,10.74-55.08T1068.59,67q17.94,0,27.56,7.11c6.41,4.75,10.91,12.11,13.54,22.15s3.93,23.88,3.93,41.55v28.69h-58.46Zm4.43-79c-1.78,2.36-2.94,6.23-3.55,11.61s-.88,13.52-.88,24.47v12h25.53v-12a220.32,220.32,0,0,0-1-24.47c-.66-5.57-1.89-9.47-3.66-11.77s-4.52-3.43-8.21-3.43S1061.33,93.71,1059.59,96.07Z"/><path class="cls-2" d="M287.16,13.86c13.88,4,24.79,15.8,28.51,30.8,6.71,27.16,6.74,83.86,6.74,83.86s0,56.7-6.74,83.86c-3.72,15-14.63,26.78-28.51,30.8-25.13,7.28-126,7.28-126,7.28s-100.82,0-125.95-7.28c-13.89-4-24.79-15.8-28.51-30.8C0,185.22,0,128.52,0,128.52s0-56.7,6.74-83.86c3.72-15,14.62-26.78,28.51-30.8,25.13-7.28,126-7.28,126-7.28S262,6.58,287.16,13.86ZM212.69,128.53l-83.76,52.25V76.27Z"/></g></g></svg>