<svg xmlns="http://www.w3.org/2000/svg" xmlns:xlink="http://www.w3.org/1999/xlink" width="205.79581" height="169.6885" viewBox="0 0 205.79581 169.6885">
  <defs>
    <style>
      .cls-1 {
        fill: none;
      }

      .cls-2 {
        isolation: isolate;
      }

      .cls-3 {
        fill: #e79034;
      }

      .cls-4 {
        fill: #231815;
      }

      .cls-5 {
        fill: #fff;
      }

      .cls-6 {
        fill: #6a3906;
      }

      .cls-7 {
        fill: #fbd598;
      }

      .cls-8 {
        opacity: 0.16;
      }

      .cls-21, .cls-27, .cls-8 {
        mix-blend-mode: multiply;
      }

      .cls-9 {
        fill: #732a2c;
      }

      .cls-10 {
        clip-path: url(#clip-path);
      }

      .cls-11 {
        fill: #283a5a;
      }

      .cls-12 {
        fill: #070001;
      }

      .cls-13 {
        opacity: 0.35;
      }

      .cls-14 {
        clip-path: url(#clip-path-2);
      }

      .cls-15 {
        fill: #ad615a;
      }

      .cls-16 {
        fill: #5c1418;
      }

      .cls-17 {
        fill: #865c3a;
      }

      .cls-18 {
        mix-blend-mode: darken;
      }

      .cls-19 {
        fill: #bdbdbd;
      }

      .cls-20 {
        fill: #f9c79a;
      }

      .cls-21 {
        opacity: 0.48;
      }

      .cls-22 {
        fill: #37291b;
      }

      .cls-23 {
        fill: #4c3c3a;
      }

      .cls-24 {
        opacity: 0.43;
      }

      .cls-25 {
        fill: #fde4c1;
      }

      .cls-26 {
        fill: #ab642d;
      }

      .cls-27 {
        opacity: 0.36;
      }

      .cls-28 {
        fill: #afafb0;
      }
    </style>
    <clipPath id="clip-path">
      <path class="cls-1" d="M106.7334,52.8272c-1.997,9.1762-8.6758,13.2939-15.1103,11.9453-3.8203-.7998-11.2041-5.6255-9.7549-14.8687,1.4482-9.2471,7.9434-16.1514,14.5137-15.4136C102.9502,35.2217,109.3516,40.7524,106.7334,52.8272Z"/>
    </clipPath>
    <clipPath id="clip-path-2">
      <path class="cls-1" d="M77.81351,52.791c.22069,8.0352-4.74411,12.8169-10.66111,13.0049-3.5142.1128-11.0078-2.3979-11.7193-10.3765-.7133-7.9838,3.4903-15.0415,9.3999-15.768C70.7354,38.9273,77.52251,42.2197,77.81351,52.791Z"/>
    </clipPath>
  </defs>
  <title>Asset 1</title>
  <g class="cls-2">
    <g id="Layer_2" data-name="Layer 2">
      <g id="레이어_1" data-name="레이어 1">
        <g>
          <path d="M28.1743,156.2451l127.1783.0005a3.10349,3.10349,0,0,1,2.2168-.0234c1.1132-2.0557,1.6855-3.7051,5.289-3.9131,1.9746.1738,1.1016-1.3618,2.5576-2.0283l-.3564-.2818c8.1504-2.8916,1.6162-9.6474,9.2266-12.4096-.8672-1.6739,1.6445-1.2134,2.2031-2.3096.541.0102,1.0801-.1177,1.2519.2983,2.19831-2.0312,1.5079-3.5654,1.5518-5.914a6.3388,6.3388,0,0,1,2.5322-.6446c3.1114-2.8457-.6172-5.5405,1.9571-8.5356-1.9473-1.834,3.4755-3.1143.44921-4.9663.72849-.4028-.33791-1.1133.39159-1.6509l1.4541-.9414c.0185-.9673-1.9649-.5884-1.4082-1.6851,2.18751-1.3427-2.0996-3.0796.6269-4.6899l-.4609-4.292c2.5254-.2295.39451-1.7905,2.2041-2.3105-.5107-1.668-5.8877-2.7344-4.2227-5.3316l-3.4111-.4756c-2.6504-2.5385,7.9004-8.7036-2.00979-7.917-3.92281-2.1455,1.69729-4.3916-2.40041-6.6806-.6904-1.3955,1.8819-4.3882-2.0751-4.3247-1.0557-1.5376-3.9366-1.316-5.1622-3.1358,1.30771-2.601-1.1728-4.8589-2.3916-6.9546-1.96969-.4516-4.8212-2.0239-7.01169-.5439-1.60351-.7217.04489-2.3486-2.10251-2.9424-1.083.2564-1.9932.792-3.0596-.0557l.0274-1.3823c-2.167.3736-1.5664-2.793-3.7539-1.4497-1.5625-2.9326-6.0879-1.7734-8.1963-4.4385-2.6534-2.3989-6.8975,3.1895-6.458-1.0869l-.3282-1.6645-.54489.2646L130.208,49.1353l-.9121.6748c-1.4297-.5796-.6777-2.2251-2.48139-1.9825-3.76561-.7607-4.21781,4.0718-7.38671.4156-2.7198,1.0566-5.1827-2.0279-7.73729-.1411a2.00705,2.00705,0,0,1-3.08211,1.3266c-3.0566-.3335-2.6465-2.9521-3.8808-4.3579-1.8047.2427-4.3096-.4941-5.9492.8574-1.6153-.3047-1.58989-1.8261-3.5723-1.7246l-3.4219.2139.52931.4219c-2.35161.79-4.87891,1.1572-7.01561-.1275-2.1553-.1782-2.2119,2.7237-4.3457,1.5786a5.572,5.572,0,0,1-3.7979.8975c-1.5595-3.208-5.0224-.7837-7.3584-1.1045-.5468.4053-.7412,1.2324-1.8222,1.2109,1.4863-2.4594-4.3086-.4936-4.26419-2.9809-3.59571-.0654-2.229,3.6919-5.63771,3.2143-1.8096.5205-.0605,3.3174-3.0996,2.292l-.88869-.706c-.57031,1.6474-1.84811,2.5898-3.84231,3.5219-2.1928,1.7579-6.6128-2.6103-6.145,1.2696-1.4692,1.6313-4.0595-.0572-5.69869.8803.35009.5611-.55861.959-.92191,1.3663a3.80233,3.80233,0,0,0-4.3257.1953c-3.1035,2.4326-8.8755,3.0161-8.4013,6.7588-1.3042,2.3256-4.3643,2.2685-5.1289,4.602l-1.8204,1.3521c1.39021,2.6518-5.062,1.2871-3.5039,4.4946-4.3261.4736-.7812,3.4443-3.5083,4.9116.6538,3.4702-6.22359,5.6909-4.4961,9.5952-1.4428.2486-1.8286,1.4878-2.2036,2.3076,1.5943,1.4151-1.3056,2.4664-.9726,3.854C.9527,94.5991.9229,96.1177,0,97.2075l.357.2823c2.5268-.3667,1.8452-2.4532,4.019-3.2442,1.2461.7168.14451,1.9395,1.749,2.7988a.75339.75339,0,0,1,.7276-.4013c.8935.4316.3364,1.1113.5097,1.6679-1.851,2.5913-1.73779,6.1875-3.5722,8.229,1.35741,4.4473-1.4219,8.8199,1.021,13.0123-2.0064,1.4838-.0664,3.5908-.0982,5.2514.0132-.6924-.3305-1.665.4009-2.3428,1.05471,1.4009,2.1011,3.356,2.9893,4.064,1.10841-1.6387.6059-3.8608,1.3588-5.6435l-1.23139-1.2652c1.46919-1.7734,4.17039-1.8594,4.39209-4.2065,1.3506,5.0029.3476,10.5127,2.2266,15.9389,1.1386-3.2959-1.8228-8.4663,1.1254-12.2812l1.6177,9.98,1.2866-1.3589c1.0694.4355.875,1.2641.8599,2.0918,1.4492-.6651-1.0239-3.0606.4316-4.0005.6724,2.6362,3.855,5.7373,2.0147,8.0547,1.7646,1.8286.4502,4.708,2.0351,6.6733a1.01891,1.01891,0,0,1,.5586-1.0952c2.47171,2.5322,3.313,5.7271,4.8868,8.3838-1.2832,1.2192-2.68509-.8804-4.3169-.3584l.0131-.6895-1.6157-.0293c.503,1.9458,3.1695,3.6529,2.9575,5.4444a12.7866,12.7866,0,0,1-3.8847-4.0806c-.3579-.144-.7207.1255-.9029.2617a7.78833,7.78833,0,0,1,2.6109,4.7481l-.3638.1338ZM24.46,127.5171l-.0269,1.3828-.3579-.0083.0244-1.3804Zm1.2119,2.373-.0225,1.2413-.35789-.0044.024-1.2437Zm3.0137,2.6812-.3574-.2827.0517-2.7642Zm3.8774,4.3584a1.45862,1.45862,0,0,1-.8701-1.6753l.3613.0059-.0171.9672c2.691,1.523,1.6783,3.6324,2.2823,5.1661a3.30586,3.30586,0,0,1,.312.5503,2.05,2.05,0,0,1-.312-.5503C33.2969,139.897,30.9336,138.3765,32.563,136.9297Z"/>
          <g>
            <g>
              <path class="cls-3" d="M48.4898,122.5762s-9.1411-4.7139-16.3325,6.4253C24.9683,140.1387,5.669,136.71,5.2891,158.772H30.0772L43.003,143.1377Z"/>
              <path class="cls-4" d="M30.0772,160.5391H5.2891a1.7699,1.7699,0,0,1-1.7622-1.7964c.2563-14.9575,8.8525-19.1753,16.4375-22.9014,4.2734-2.0967,8.3086-4.0791,10.7119-7.7969,4.3867-6.7973,10.2563-8.2251,13.5586-8.2251a10.86067,10.86067,0,0,1,5.14061,1.2266,1.76673,1.76673,0,0,1,.81939,1.9829L44.709,143.5913a1.80876,1.80876,0,0,1-.3022.6152L31.482,159.8438A1.76619,1.76619,0,0,1,30.0772,160.5391ZM7.1348,157.0064H29.2041l12.1817-14.6641,4.9926-18.7022a8.11308,8.11308,0,0,0-2.1435-.292c-3.48239,0-7.8032,2.2872-10.5933,6.6094-2.9355,4.5425-7.6035,6.8379-12.122,9.0557C14.5484,142.4341,7.9483,145.6743,7.1348,157.0064Z"/>
            </g>
            <g>
              <path class="cls-5" d="M57.3662,34.2993c-3.0151-1.0268-8.7002-.5337-10.4995-4.166-1.8003-3.6309-2.7007-15.4648-5.1015-14.7925-2.3994.6734-12.6035,21.249,1.9497,27.2979,0,0,13.5517,6.4336,15.7568-1.7471C59.9204,39.2256,60.9859,35.5273,57.3662,34.2993Z"/>
              <path class="cls-4" d="M53.2188,46.8086h0c-4.6138,0-9.6709-2.2988-10.21929-2.5552-6.02241-2.52-10.10841-7.8032-9.68011-14.8808.4218-6.9527,5.4116-15.0157,7.9697-15.73a2.40951,2.40951,0,0,1,.66941-.0952c2.78469,0,3.63239,3.9799,4.80029,9.4853a35.12206,35.12206,0,0,0,1.6895,6.3174c.8701,1.7559,3.5044,2.1631,6.05321,2.5557a20.95435,20.95435,0,0,1,3.43209.7177c3.39991,1.1578,4.4995,4.0625,3.2647,8.6392l-.0235.0874C60.2266,44.8716,57.4004,46.8086,53.2188,46.8086ZM41.7906,17.7534c-1.6192,2.3355-5.565,8.8374-4.8785,14.709.4732,4.0811,3.6587,6.9585,7.481,8.5464l.0781.0366c.0484.0215,4.7705,2.2334,8.7476,2.2334h0c3.3496,0,4.1919-1.522,4.5483-2.8467l.0239-.0903c.75351-2.7983.5157-3.8613-.9912-4.373a18.7619,18.7619,0,0,0-2.8379-.5723c-3.1132-.4824-6.9907-1.0801-8.6762-4.4785a35.08434,35.08434,0,0,1-1.9771-7.1519A52.82977,52.82977,0,0,0,41.7906,17.7534Z"/>
            </g>
            <g>
              <g>
                <path class="cls-3" d="M57.1743,39.7412s-26.6035,3.1138-30.975,3.9849c-4.3731.8681,9.15421,22.8052,29.3349,10.7275C75.71,42.3804,57.1743,39.7412,57.1743,39.7412Z"/>
                <path class="cls-4" d="M43.6763,59.8408h-.0039c-10.96389-.0029-19.58889-9.2285-20.083-14.2544-.2236-2.2734,1.081-3.3569,2.26511-3.5918,4.38719-.872,30.06009-3.8774,31.10739-4.0053a1.8472,1.8472,0,0,1,.4624.0039c.8423.1211,8.2574,1.3061,9.1963,5.9614.7237,3.6064-2.5097,7.4248-10.1816,12.0161A24.88688,24.88688,0,0,1,43.6763,59.8408ZM27.1109,45.3501a10.34349,10.34349,0,0,0,2.32761,4.4087A19.82741,19.82741,0,0,0,43.6753,56.3086h.001a21.38752,21.38752,0,0,0,10.94821-3.3662c8.44489-5.0552,8.66609-7.6216,8.53229-8.2891-.3062-1.539-3.6851-2.749-6.0122-3.1318C54.6333,41.8306,32.3736,44.4356,27.1109,45.3501Z"/>
              </g>
              <path class="cls-6" d="M60.1314,45.2832s-22.81889,2.8237-27.1011,2.6284c0,0,10.4497,15.3872,23.6924,2.8257l-3.0181-.8774,3.3111-.4868-2.2393-2.044,3.2124.2905Z"/>
            </g>
            <g>
              <path class="cls-3" d="M161.4248,38.3696c-4.3476-.3281-25.0078-.3979-33.8066-.4131a26.98893,26.98893,0,0,0-4.2158-6.8432,20.1578,20.1578,0,0,0-10.7403-6.0835,40.81557,40.81557,0,0,0-14.1064-.375c-5.66019.685-10.9648,3.0395-16.4307,4.5259a26.669,26.669,0,0,1-13.5566.2192,16.02013,16.02013,0,0,0-10.4385.8389C53.666,32.294,50.375,39.334,52.1016,44.1797a.38593.38593,0,0,0-.1607.2344,17.33515,17.33515,0,0,0,.0625,6.6225,84.79742,84.79742,0,0,1,.9004,9.0376c.2676,6.4727-.1215,13.0069-.288,19.479-.32129,12.5557-1.1412,25.7974-5.836,37.5943-.0039.0088-.0024.0161-.00629.0239,0,0-15.82671,27.5913-18.62991,41.6006H137.8428c5.3164-46.603-.2539-78.4214-.2539-78.4214a162.23818,162.23818,0,0,0-4.0781-22.4185C156.4326,63.812,166.5772,38.7583,161.4248,38.3696Z"/>
              <path class="cls-4" d="M137.8428,160.5391H28.1436a1.76551,1.76551,0,0,1-1.731-2.1109c2.752-13.7685,17.5117-39.6709,18.7398-41.9658,4.6948-11.8354,5.4038-25.2778,5.6977-36.9531.042-1.6665.0996-3.3335.1577-5.0059.1622-4.7246.32871-9.6113.1338-14.3564a84.08744,84.08744,0,0,0-.8857-8.8545,18.866,18.866,0,0,1-.04-7.2481c-1.4327-5.4697,2.0029-13.0293,7.1787-15.4091a17.794,17.794,0,0,1,11.5752-.9546,24.68105,24.68105,0,0,0,12.6894-.2027c1.81931-.4951,3.6709-1.1035,5.4609-1.6933a58.51538,58.51538,0,0,1,11.2237-2.8819,56.2987,56.2987,0,0,1,6.7763-.4438,34.63472,34.63472,0,0,1,7.9463.8545,21.86915,21.86915,0,0,1,11.66611,6.6416,27.29385,27.29385,0,0,1,4.01459,6.2378c9.27541.0185,28.5801.0981,32.8086.417,1.4219.1084,3.05081,1.2509,2.9404,4.1172-.2529,6.7426-9.0224,19.8632-24.1904,19.8632h-.002a27.64587,27.64587,0,0,1-4.4267-.3632,157.64819,157.64819,0,0,1,3.4639,19.8862c.2792,1.668,5.4248,33.5488.2519,78.8608A1.76,1.76,0,0,1,137.8428,160.5391Zm-107.48-3.5327H136.2647c4.9277-44.9766-.3574-76.0376-.4131-76.3492-.0088-.0415-.0127-.083-.0176-.1255a160.78251,160.78251,0,0,0-4.0361-22.1767,1.76414,1.76414,0,0,1,2.1504-2.1323,25.66667,25.66667,0,0,0,6.3554.8379c11.0362,0,16.8819-8.0528,18.4082-10.521,2.044-3.3013,2.3575-5.6416,2.2461-6.4322-4.93749-.3037-24.8564-.3711-33.3457-.3862A1.76858,1.76858,0,0,1,126,38.6694a24.9553,24.9553,0,0,0-3.9326-6.3984,18.3599,18.3599,0,0,0-9.8125-5.5225,31.1741,31.1741,0,0,0-7.1348-.7597,52.87217,52.87217,0,0,0-6.3544.4194,55.0611,55.0611,0,0,0-10.5411,2.7285c-1.8349.605-3.7334,1.2305-5.6357,1.7476a28.16952,28.16952,0,0,1-14.418.2348,14.3,14.3,0,0,0-9.2993.7237c-3.81,1.7514-6.479,7.897-5.1089,11.7441a1.76093,1.76093,0,0,1-.1694,1.541,16.46214,16.46214,0,0,0,.15621,5.6509,87.176,87.176,0,0,1,.92089,9.2232c.1993,4.8798.0313,9.8315-.1347,14.6225-.0567,1.6592-.1133,3.3203-.1577,4.9741-.3003,11.9712-1.0342,25.7705-5.918,38.0977-.0049.0185-.0117.0356-.0176.0542a1.98639,1.98639,0,0,1-.1123.2588C48.19,118.2686,33.9976,142.8994,30.3628,157.0064Z"/>
            </g>
            <path class="cls-7" d="M72.6338,42.044s3.3008,4.3491,13.8496.1601c10.5469-4.1865,3.9463-.644,3.9463-.644L84.7119,62.0942l-2.0918,4.8306-14.0937-.7236Z"/>
            <path class="cls-7" d="M95.5928,72.8062s7.4863-3.2642,11.043-5.9234c3.417-2.5566,13.1445-1.0405,14.17771,14.0664,1.99809,29.1743-4.57911,76.4234-4.57911,76.4234H44.4571s9.8525-44.7408,12.7085-52.0708C60.02151,97.9712,69.71,97.6177,69.71,97.6177Z"/>
            <g class="cls-8">
              <path class="cls-9" d="M109.56551,52.4849c-1.878,8.3305-8.01571,15.1528-14.67481,13.8388-3.95219-.7822-11.2256-8.1875-9.90819-16.5844C86.2959,41.335,92.8662,35.1401,99.6534,35.9004,106.4424,36.6572,112.0362,41.5215,109.56551,52.4849Z"/>
            </g>
            <g class="cls-10">
              <path class="cls-5" d="M106.7334,52.8272c-1.997,9.1762-8.6758,13.2939-15.1103,11.9453-3.8203-.7998-11.2041-5.6255-9.7549-14.8687,1.4482-9.2471,7.9434-16.1514,14.5137-15.4136C102.9502,35.2217,109.3516,40.7524,106.7334,52.8272Z"/>
              <g>
                <path class="cls-11" d="M108.3174,51.4507c-.62889,6.8974-4.7187,12.2192-10.2412,12.1787-5.5156-.0425-9.876-5.5591-9.7344-12.3281.13771-6.7661,4.72371-12.2227,10.2393-12.1797C104.0967,39.1611,109.0401,43.4941,108.3174,51.4507Z"/>
                <path class="cls-12" d="M107.6729,53.1406c-.0918,4.3994-2.9551,7.9439-6.3985,7.918-3.4433-.0215-6.164-3.6118-6.0742-8.0068.0879-4.3965,2.9532-7.9439,6.3946-7.9165C105.042,45.1582,107.7647,48.7471,107.6729,53.1406Z"/>
                <g class="cls-13">
                  <path class="cls-5" d="M100.23251,53.6773c-.01081.6611-2.13771,1.1865-4.74521,1.1665-2.6113-.0215-4.7187-.5767-4.7031-1.2373.0137-.6641,2.1387-1.1895,4.7481-1.1695C98.1446,52.4536,100.2451,53.0098,100.23251,53.6773Z"/>
                </g>
              </g>
            </g>
            <g class="cls-8">
              <path class="cls-9" d="M79.3018,52.1436c.1445,7.3071-3.7676,14.2285-9.877,14.4917-3.623.1513-11.57129-4.5245-12.2177-11.773-.6509-7.2558,3.77141-13.7422,9.8725-14.4902C73.1846,39.6226,79.1182,42.5283,79.3018,52.1436Z"/>
            </g>
            <g class="cls-14">
              <path class="cls-5" d="M77.81351,52.791c.22069,8.0352-4.74411,12.8169-10.66111,13.0049-3.5142.1128-11.0078-2.3979-11.7193-10.3765-.7133-7.9838,3.4903-15.0415,9.3999-15.768C70.7354,38.9273,77.52251,42.2197,77.81351,52.791Z"/>
              <g>
                <path class="cls-11" d="M78.9229,53.5547c-.4356,6.0723-3.8613,10.7349-8.56839,10.6665-4.70411-.0669-8.49021-4.9526-8.46091-10.9155.0312-5.9585,3.8667-10.7373,8.5742-10.6685C75.167,42.7056,79.3506,47.6167,78.9229,53.5547Z"/>
                <path class="cls-12" d="M78.39651,55.042c-.02051,3.8726-2.416,6.9785-5.34861,6.9355-2.9375-.0385-5.3028-3.2182-5.2861-7.0893.0195-3.8711,2.4169-6.9785,5.3505-6.9356C76.0518,47.9922,78.417,51.169,78.39651,55.042Z"/>
                <g class="cls-13">
                  <path class="cls-5" d="M72.06351,55.4678c-.00291.5854-1.81051,1.0327-4.03321,1.0005-2.2256-.0332-4.0264-.5347-4.0234-1.1158.0029-.5869,1.8081-1.0371,4.0332-1.0024C70.2657,54.3784,72.0664,54.8823,72.06351,55.4678Z"/>
                </g>
              </g>
            </g>
            <path class="cls-12" d="M84.92,35.8008s10.6601-14.9277,21.3261-6.8482l2.7608-9.1914S92.3838,12.8755,84.92,35.8008Z"/>
            <path class="cls-12" d="M74.8623,41.2705s-8.3056-7.8198-15.1381-2.3813l-2.1426-7.1387S68.9698,25.9702,74.8623,41.2705Z"/>
            <g>
              <path class="cls-15" d="M104.6299,78.9219s6.6621-4.0347,8.168-5.9297a.79558.79558,0,0,1,.6308.9219s-.541,37.7441-14.3007,43.434c0,0-13.5606,5.3672-22.9844,2.4756-9.4263-2.8911-6.1387-11.435-7.5303-15.7182-1.3926-4.2842-.8574-11.0308-.8574-11.0308l2.249-2.7847Z"/>
              <path class="cls-16" d="M102.39751,103.2114l.76069,5.9756c7.94631-11.1006,9.6172-35.8056,9.6172-35.8056a53.58487,53.58487,0,0,1-4.29,4.4956c-.2207,5.6206-2.4238,19.9585-2.4238,19.9585-6.7207,8.3085-30.3028,9.4082-30.3028,9.4082l-.1201-6.1094.5264-5.9668-7.0674,1.4448,1.0859,3.4014s.1162,11.7407,7.1494,14.0268l.1387-5.5737S92.7412,108.7153,102.39751,103.2114Z"/>
              <path class="cls-5" d="M75.7588,107.2437s23.5821-1.0997,30.3028-9.4082c0,0,2.2031-14.3379,2.4238-19.9585-1.63089,1.4785-3.5742,2.9292-7.41989,5.7724L96.0186,91.1055l-19.8535,4.062-.5264,5.9668Z"/>
              <path class="cls-5" d="M96.8643,114.1606a12.14334,12.14334,0,0,0,6.2939-4.9736l-.76069-5.9756c-9.65631,5.5039-24.92581,5.2554-24.92581,5.2554l-.1387,5.5737a15.5253,15.5253,0,0,0,1.6641.5528C83.85651,115.5205,87.4834,116.8359,96.8643,114.1606Z"/>
            </g>
            <path class="cls-17" d="M107.7432,73.334s7.2949-.9595,7.1992,6.5259c0,0,2.6387-12.6763-7.876-6.4077Z"/>
            <g>
              <path class="cls-5" d="M114.3682,25.3027c3.3555-1.269,9.6699-.6616,11.6699-5.163,2.002-4.5,3.002-19.1729,5.6709-18.3389,2.6651.8325,14.0049,26.3428-2.1689,33.8452,0,0-15.0567,7.9775-17.5078-2.1655C111.5342,31.4126,110.3467,26.8262,114.3682,25.3027Z"/>
              <path class="cls-4" d="M118.98051,40.3936c-4.57521,0-7.65331-2.3091-8.666-6.5l-.02051-.1065c-.4883-2.0005-1.9619-8.084,3.4502-10.1348a21.09378,21.09378,0,0,1,3.8115-.8886c2.8672-.4956,5.832-1.0069,6.8721-3.3404a47.85819,47.85819,0,0,0,1.9131-7.9628C127.6553,4.5591,127.52151,0,130.4844,0a2.49229,2.49229,0,0,1,.74611.1157c3,.937,8.01369,10.9322,8.52829,18.7637.5821,8.8525-2.6777,15.1982-9.4355,18.3501C129.72951,37.5391,124.1143,40.3936,118.98051,40.3936ZM131.6436,4.231a63.26072,63.26072,0,0,0-1.834,7.8911,47.12991,47.12991,0,0,1-2.1572,8.7353c-1.8076,4.0586-6.0694,4.7935-9.4981,5.3843a18.98462,18.98462,0,0,0-3.1592.7119c-2.0781.7896-2.0292,2.8804-1.2714,6.0029l.0263.107c.6328,2.6289,2.2451,3.7973,5.23051,3.7973,4.44239,0,9.68259-2.7451,9.73339-2.7734l.0859-.043c4.3164-2.0034,6.7969-5.6489,7.3672-10.8398C137.0196,15.4439,133.4893,7.0151,131.6436,4.231Z"/>
            </g>
            <path class="cls-6" d="M122.1162,40.7627s26.211,3.3955,31.3594,3.1606c0,0-11.3496,18.4883-27.2637,3.3941l3.628-1.0527-3.9766-.5865,2.6895-2.456-3.86329.3486Z"/>
            <g class="cls-18">
              <path class="cls-19" d="M67.7178,118.9834a7.91679,7.91679,0,0,0,6.5908,7.8062,20.52949,20.52949,0,0,1-.5205,4.8554,38.6655,38.6655,0,0,0,3.2237-4.4966l-1.3731,7.0782s3.3936-4.9849,3.8272-6.8618l.72261,3.5385,1.39449-3.8188s1.7149,4.6133,1.4229,5.6235c0,0,1.51661-4.2617,1.80861-5.416a25.995,25.995,0,0,1,.64739,4.1177l2.4571-3.8286.8672,2.6713,2.3105-3.0312.7949,5.4868s1.084-4.4062,1.29891-5.1992c0,0,8.25579-1.5713,11.582-7.708,0,0-6.48541,5.6372-18.23241,6.4341C86.5401,126.2349,69.6201,128.3745,67.7178,118.9834Z"/>
            </g>
            <g>
              <g>
                <g>
                  <path class="cls-20" d="M106.1866,79.29a17.78053,17.78053,0,0,0-5.3399-10.8901c.0274-.6992.0137-1.3843-.0234-2.0098a6.49251,6.49251,0,0,0-2.9141-5.289,7.605,7.605,0,0,0-7.8203.0171,23.90417,23.90417,0,0,0-2.3965-.5454,28.34415,28.34415,0,0,0-5.1084-.1851,89.00629,89.00629,0,0,0-10.3808,1.1768,42.07446,42.07446,0,0,1-10.1075.3618,39.5793,39.5793,0,0,0-8.61519-.1641,13.61906,13.61906,0,0,0-7.42291-1.5566c-2.93109.1347-8.1157,1.3291-8.8149,4.665-.4209,2.0039.4966,3.9566,1.5684,5.5962.52241.8018.75.668.1591,1.4033a6.62666,6.62666,0,0,0-.8344,1.48,12.62168,12.62168,0,0,0-.876,4.2207c-.396,5.6519,1.9258,12.0347,5.0478,16.8648a15.50829,15.50829,0,0,0,2.5313,4.1181c2.1323,2.4942,5.064,3.8159,8.102,4.8716,7.5411,2.623,15.6959,2.4541,23.5298,1.6152,9.6475-1.0327,23.3291-2.5107,28.0244-12.521a21.72377,21.72377,0,0,0,1.52541-6.1845A28.54215,28.54215,0,0,0,106.1866,79.29Z"/>
                  <path class="cls-4" d="M67.2657,107.7085h0a45.20034,45.20034,0,0,1-15.0215-2.2827c-3.0381-1.0576-6.4864-2.5376-9.01369-5.4966C42.0713,98.5737,40.125,97.061,39.4219,95.4258a30.66165,30.66165,0,0,1-4.27439-18.0039,14.62735,14.62735,0,0,1,1.05129-4.9351,12.08561,12.08561,0,0,1,.6123-1.2104c-.7642-1.211-2.2593-3.8921-1.6402-6.8404.919-4.3969,6.8501-6.1674,10.793-6.3471.2979-.0127.6055-.0186.916-.0186a15.75521,15.75521,0,0,1,7.0327,1.5098c.7984-.0786,1.6333-.1187,2.5337-.1187,1.7979,0,3.5884.1568,5.3169.3086l.5171.0464a39.65221,39.65221,0,0,0,9.5977-.3462A90.21823,90.21823,0,0,1,82.5039,58.27c.5889-.0215,1.1748-.0346,1.7627-.0346a26.14851,26.14851,0,0,1,3.7325.2392,18.4502,18.4502,0,0,1,1.81541.3843,9.86708,9.86708,0,0,1,4.251-.9507,9.29007,9.29007,0,0,1,4.97459,1.4009,8.65329,8.65329,0,0,1,3.89841,6.9556c.02639.4321.041.8662.041,1.2919A19.79562,19.79562,0,0,1,108.294,79.0698a31.20435,31.20435,0,0,1-.1729,7.564,23.81755,23.81755,0,0,1-1.7099,6.7876c-5.209,11.1035-19.9571,12.6802-29.7159,13.7256A88.58586,88.58586,0,0,1,67.2657,107.7085ZM46.8799,62.3062q-.36765,0-.7251.0185c-1.8179.0791-6.3852.8096-6.8398,2.9805-.2227,1.0635,1.18651,2.3345,2.2763,4.0049.07821.1225.149.2094.2007.2797a2.60615,2.60615,0,0,1-.16549,3.6075,5.06979,5.06979,0,0,0-.55271,1.0161c-.4688,1.0527-1.6192,2.3623-1.7002,3.5054-.3877,5.5532,2,11.3725,4.7133,15.5659a2.02112,2.02112,0,0,1,.1749.3349,13.42246,13.42246,0,0,0,2.1889,3.5581c1.8677,2.1846,4.5571,3.3326,7.1841,4.2471a41.08547,41.08547,0,0,0,13.6309,2.0474h0a84.09288,84.09288,0,0,0,8.9775-.5376c9.3457-.9995,22.1387-2.3687,26.332-11.315a19.93932,19.93932,0,0,0,1.3496-5.5825,26.66211,26.66211,0,0,0,.1534-6.5254,15.66967,15.66967,0,0,0-4.7178-9.602,2.11446,2.11446,0,0,1-.63189-1.5977,17.52375,17.52375,0,0,0-.01661-1.7939,4.51264,4.51264,0,0,0-1.9316-3.6265,5.07475,5.07475,0,0,0-2.71479-.7466,5.58593,5.58593,0,0,0-2.875.7842,2.12766,2.12766,0,0,1-1.61331.2437l-.541-.1382a15.65843,15.65843,0,0,0-1.6446-.3662,22.00537,22.00537,0,0,0-3.125-.1973c-.539,0-1.0742.0117-1.6084.0322a88.21057,88.21057,0,0,0-10.1338,1.1524,43.83825,43.83825,0,0,1-10.6113.3798l-.5215-.0454c-1.7119-.1508-3.3286-.2924-4.9453-.2924a20.33405,20.33405,0,0,0-2.6894.163,2.08888,2.08888,0,0,1-1.3672-.2851A10.95407,10.95407,0,0,0,46.8799,62.3062Z"/>
                </g>
                <g class="cls-21">
                  <path class="cls-22" d="M95.35451,66.9248a.21086.21086,0,0,0-.14061-.104c-3.2188-.8252-5.7168,1.7163-7.1602,4.3145-1.2851,2.3154-2.6171,6.625.17681,8.3569,1.52439.9468,3.56149.4272,5.00489-.3853a9.302,9.302,0,0,0,3.7178-4.5019C97.8409,72.4785,97.9639,67.9131,95.35451,66.9248Z"/>
                </g>
                <g class="cls-21">
                  <path class="cls-22" d="M42.8828,67.2861c-.2988-.0039-.373.4092-.1406.4961a13.94649,13.94649,0,0,0,1.0767,7.5191c.8305,1.8315,2.3887,3.1845,4.3271,1.9482C52.4966,74.4771,46.54251,67.3301,42.8828,67.2861Z"/>
                </g>
                <path class="cls-23" d="M92.876,78.9663c-2.1523,2.1441-5.0869.2788-5.8017-2.124a7.77518,7.77518,0,0,1,3.1943-5.9126,6.06386,6.06386,0,0,1,1.207-.6675,4.01014,4.01014,0,0,1,.8233-.2598c.9931-.2236.0625,1.0723-.0118,1.1739-.3447.4741-1.1142,1.4472-.7783,2.0942.4942.957,1.6602.9082,2.1992,1.8643A3.30391,3.30391,0,0,1,92.876,78.9663Z"/>
                <path class="cls-23" d="M45.1724,69.6939a.17026.17026,0,0,0-.0591.0019.20184.20184,0,0,0-.2549.147c-.2402.8633.2979,1.4834.5117,2.3144.3248,1.2315-.5854,2.5684-.3295,3.8775.3193,1.6279,1.9277,1.8872,3.0727.9585C50.8907,74.7334,47.9966,70.1704,45.1724,69.6939Z"/>
              </g>
              <g class="cls-24">
                <path class="cls-25" d="M58.33351,74.0962a2.22436,2.22436,0,1,1-2.22461-2.2246A2.22422,2.22422,0,0,1,58.33351,74.0962Z"/>
                <path class="cls-25" d="M64.2979,70.2529a1.61815,1.61815,0,1,1-1.6182-1.6152A1.61812,1.61812,0,0,1,64.2979,70.2529Z"/>
                <path class="cls-25" d="M65.0142,80.1953a1.61745,1.61745,0,1,1-1.61669-1.6147A1.61648,1.61648,0,0,1,65.0142,80.1953Z"/>
                <path class="cls-25" d="M67.96,77.9219a1.01151,1.01151,0,1,1-1.0112-1.0064A1.01614,1.01614,0,0,1,67.96,77.9219Z"/>
                <path class="cls-25" d="M68.8418,72.5483a1.2837,1.2837,0,1,1-1.2837-1.2822A1.282,1.282,0,0,1,68.8418,72.5483Z"/>
                <path class="cls-25" d="M59.8267,79.2554a1.3916,1.3916,0,1,1-1.395-1.3911A1.39638,1.39638,0,0,1,59.8267,79.2554Z"/>
                <path class="cls-25" d="M63.2578,75.3086a1.3894,1.3894,0,1,1-1.3847-1.3877A1.3887,1.3887,0,0,1,63.2578,75.3086Z"/>
              </g>
            </g>
            <g>
              <path class="cls-3" d="M136.8516,149.3701s12.2207,13.8008,25.1084,10.6577c12.8828-3.1391,22.6367-35.1259,22.6367-35.1259l-16.86719-9.71s-.17091,1.2388-.501,3.1807c-.20311,1.2221-.47751,2.7304-.80761,4.3803-1.2968,3.9478-4.9668,14.4659-8.7519,19.2476-2.2481-.2246-4.8086-4.0322-7.6348-13.9561-8.0576-28.3164-18.123-18.4082-19.4053-17.1782"/>
              <path class="cls-4" d="M158.0127,162.2656c-11.94719,0-22.0117-11.1919-22.4824-11.7231l2.6426-2.3428c.168.188,11.7109,12.9575,23.3672,10.1133,9.2978-2.2661,17.875-23.1465,20.9463-32.5889l-13.4063-7.7173c-.0342.209-.0713.4302-.1103.6607-.252,1.4868-.5235,2.9765-.8164,4.4302a1.31083,1.31083,0,0,1-.0547.206c-1.41019,4.2979-5.1211,14.8311-9.045,19.791a1.76856,1.76856,0,0,1-1.5576.6612c-3.4355-.3433-6.2588-5.0396-9.1582-15.23-4.1513-14.586-8.5928-17.7969-10.8711-18.4102-1.82029-.4922-3.7002.1817-5.5908,2.002l-2.4717-2.5235c3.5723-3.4321,6.8516-3.4643,8.9825-2.8886,5.3291,1.4394,9.8173,8.4536,13.34471,20.8545,2.42869,8.5317,4.34369,11.3256,5.35149,12.2382,3.3672-5.0151,6.6114-14.4067,7.6309-17.497.2725-1.3848.5391-2.8062.7754-4.2237.3183-1.8886.49021-3.1152.49221-3.1269a1.7633,1.7633,0,0,1,2.62789-1.2886l16.87011,9.7105a1.77008,1.77008,0,0,1,.80859,2.0454c-.4121,1.3447-10.2051,32.9848-23.9101,36.3247A18.29823,18.29823,0,0,1,158.0127,162.2656Zm-21.1611-12.8955,1.3193-1.1704h.002Z"/>
            </g>
            <g>
              <path class="cls-26" d="M43.4131,153.8047c-.499-3.0552-2.4375-6.6011-5.8745-7.7358-3.2124-1.0586-7.3032.2421-10.2573,1.4126a30.32874,30.32874,0,0,0-7.61279,4.0825c-1.26271.6557-2.88871,1.6411-2.94731,3.1279-.0674,1.6885,1.1411,2.9941,2.292,4.1724,3.4009,3.4882,7.3325,7.8281,12.4092,9.041a.46537.46537,0,0,0,.5557-.2891,49.12363,49.12363,0,0,0,1.7959-6.499c2.6269,1.5234,5.8144,3.6455,8.8686,4.4434a.45426.45426,0,0,0,.5542-.294A36.01333,36.01333,0,0,0,43.4131,153.8047Z"/>
              <path class="cls-4" d="M31.542,169.6885a2.30677,2.30677,0,0,1-.5317-.0645c-5.2402-1.2549-9.3125-5.457-12.5855-8.83l-.6767-.6988c-1.1499-1.1767-2.8921-2.9614-2.7915-5.4756.1006-2.5415,2.625-3.957,3.7553-4.5483a32.90146,32.90146,0,0,1,7.919-4.231,23.50538,23.50538,0,0,1,8.2573-1.9277,10.29027,10.29027,0,0,1,3.2031.4795c4.8355,1.5986,6.6944,6.876,7.0635,9.1294a37.73532,37.73532,0,0,1-.2148,12.0283,2.17853,2.17853,0,0,1-2.189,1.7891h0a2.13359,2.13359,0,0,1-.5517-.0694,24.7278,24.7278,0,0,1-6.9942-3.1123c-.0967-.0683-.1909-.1308-.2847-.1982a35.86411,35.86411,0,0,1-1.2973,4.2881A2.22323,2.22323,0,0,1,31.542,169.6885Zm3.3462-22.2451a20.37637,20.37637,0,0,0-6.957,1.6762,29.31785,29.31785,0,0,0-7.1675,3.8321,2.4196,2.4196,0,0,1-.28219.1816c-1.77931.919-1.98831,1.4463-1.99711,1.6304-.0356.9165.7896,1.8403,1.792,2.8711l.68211.7036c2.83449,2.9199,6.01269,6.1977,9.76759,7.5239.4697-1.4394.8115-2.9267,1.1743-4.478l.1568-.667a1.76118,1.76118,0,0,1,2.6015-1.1279c.9033.5244,1.7417,1.1005,2.5523,1.6606a31.73886,31.73886,0,0,0,4.47851,2.1045,32.5658,32.5658,0,0,0-.01911-9.2651c-.457-2.8135-2.2255-5.5303-4.6855-6.3413A6.68583,6.68583,0,0,0,34.8882,147.4434Z"/>
            </g>
            <g>
              <g>
                <path class="cls-26" d="M202.18069,112.7192a6.37048,6.37048,0,0,0-1.958-1.7749,6.01382,6.01382,0,0,0,.7207-1.0039l.1055-.2451a19.90691,19.90691,0,0,0,.4961-7.436c-.4903-2.9693-4.06159-8.6758-8.43559-9.0943a5.263,5.263,0,0,0-2.8057.504,20.0526,20.0526,0,0,0-3.6894,2.4516c.5244-1.7934,1.5527-5.3071,2.1084-7.0727,3.1006-9.8497-2.044-16.4747-2.044-16.4747A15.67422,15.67422,0,0,0,175.751,65.5s-8.8008-1.2368-7.39749,8.0689c1.40429,9.3071,3.67089,19.8955,1.503,26.5644-2.166,6.6719-3.43751,7.4238-3.627,9.3726,0,0-2.39161,6.2754,2.48829,15.2797,4.7295,8.7295,14.1992,11.8707,24.8535,3.252a7.18909,7.18909,0,0,0,1.0235-.8579c.2929-.2564.5625-.5015.8193-.7368a8.93961,8.93961,0,0,0,5.29589-1.0025l.2109-.1782a14.18971,14.18971,0,0,0,2.9375-5.1509A9.82514,9.82514,0,0,0,202.18069,112.7192Z"/>
                <path class="cls-4" d="M181.293,134.8984c-5.7842,0-10.9336-3.3774-14.125-9.2724-4.72949-8.7202-3.0928-15.1748-2.6689-16.5039a9.08761,9.08761,0,0,1,1.0625-2.9854,45.60021,45.60021,0,0,0,2.6152-6.5473c1.7168-5.2852.3828-13.5625-.9092-21.5664-.2275-1.4156-.45209-2.8145-.6592-4.19-.4824-3.2012.0528-5.7349,1.5996-7.5298a8.61834,8.61834,0,0,1,6.5577-2.6225,10.45789,10.45789,0,0,1,1.1826.063,17.41885,17.41885,0,0,1,12.1855,7.8232c.625.8442,5.4688,7.8525,2.2754,18.0107-.2021.6329-.4629,1.5035-.7461,2.4424a6.99532,6.99532,0,0,1,3.6113-.6103c5.52149.5259,9.45319,7.1577,10.00979,10.5625a21.4257,21.4257,0,0,1-.5351,8.1904,1.64773,1.64773,0,0,1-.0743.209l-.06728.1684a8.67285,8.67285,0,0,1,.99508,1.1333,11.61085,11.61085,0,0,1,1.96192,8.8912,15.64177,15.64177,0,0,1-3.34772,5.8945,2.08141,2.08141,0,0,1-.1562.1523l-.211.1768a1.92492,1.92492,0,0,1-.1767.1309,9.59315,9.59315,0,0,1-5.29589,1.3188h0c-.10449,0-.2051-.001-.3106-.0039-.0888.0796-.1787.1582-.2724.2417a9.45665,9.45665,0,0,1-1.1621.977C190.1494,133.0669,185.6612,134.8984,181.293,134.8984Zm-6.5273-67.6879a5.20282,5.20282,0,0,0-3.8799,1.395c-.8438.9809-1.1084,2.5625-.7891,4.7016.208,1.3619.4307,2.753.6553,4.1534,1.3584,8.416,2.7637,17.123.7842,23.2197a49.3985,49.3985,0,0,1-2.8008,6.9995,5.78733,5.78733,0,0,0-.7471,1.9941,1.61936,1.61936,0,0,1-.1084.4615c-.0781.2163-1.9941,5.7177,2.39261,13.811,2.58979,4.7871,6.50589,7.4224,11.02049,7.4224,3.5547,0,7.31251-1.5811,11.1689-4.7022.0372-.0264.0694-.0537.1065-.0806a5.66134,5.66134,0,0,0,.78811-.6635c.02539-.0259.05079-.0489.08009-.0747.2793-.2437.5351-.4771.7783-.7032a1.74821,1.74821,0,0,1,1.3047-.4633c.2822.0161.5673.0268.8574.0268a6.48146,6.48146,0,0,0,3.28419-.6958l.0214-.0166a12.27768,12.27768,0,0,0,2.4708-4.3369,8.11587,8.11587,0,0,0-1.3985-5.8945,4.54106,4.54106,0,0,0-1.4101-1.2871,1.76695,1.76695,0,0,1-.4434-2.7061,4.46081,4.46081,0,0,0,.457-.6177l.0137-.0298a17.74471,17.74471,0,0,0,.4268-6.5815c-.4073-2.4834-3.51079-7.2974-6.85838-7.6177a3.46172,3.46172,0,0,0-1.87111.3374,18.49369,18.49369,0,0,0-3.3457,2.2315,1.76537,1.76537,0,0,1-2.8028-1.8687c.5567-1.9043,1.5713-5.3638,2.1192-7.1103,2.791-8.8623-1.7071-14.8008-1.7539-14.8609a1.14026,1.14026,0,0,1-.0938-.1352,13.82026,13.82026,0,0,0-9.6084-6.2622c-.0244-.001-.0576-.0054-.0801-.0078h0A6.38966,6.38966,0,0,0,174.7657,67.2105Z"/>
              </g>
              <path class="cls-4" d="M183.2823,118.6001a9.82717,9.82717,0,0,1-2.5362-.2988,5.0674,5.0674,0,0,1-3.501-2.8159c-2.7207-6.0821,6.9561-19.1016,8.9258-21.6485a1.76515,1.76515,0,1,1,2.793,2.1592c-4.3555,5.6426-9.8711,14.9722-8.4941,18.0474a1.59041,1.59041,0,0,0,1.1953.8496c4.2138,1.1386,14.4726-3.1914,17.52541-5.3819a1.76385,1.76385,0,1,1,2.05658,2.8662C198.88769,114.0752,189.667,118.6001,183.2823,118.6001Z"/>
              <path class="cls-4" d="M197.6358,128.3315c-2.15429.0035-10.8399-.2329-13.3672-3.9091-2.46-3.5855.4551-7.5088,2.33691-9.0835a1.766,1.766,0,0,1,2.27049,2.7055c-.06049.0494-2.9492,2.5498-1.6924,4.3789,1.1358,1.6568,6.9971,2.4146,10.6104,2.378h.0058a1.76512,1.76512,0,0,1,.01371,3.5302Z"/>
            </g>
            <g class="cls-27">
              <path class="cls-28" d="M133.35551,6.2632S139.7979,33.1006,113.4971,34.355l2.1465,3.9375,7.33591-.5381L135.6826,31.313l1.9668-6.4399.7178-5.7266L135.8623,8.4121Z"/>
            </g>
            <g class="cls-27">
              <path class="cls-28" d="M36.4273,24.2388s-1.1074,8.1455,5.0766,11.0107c6.18361,2.8677,10.0298,1.2066,10.0298,1.2066v3.2436l-9.8784,1.8101S30.2417,32.3843,36.4273,24.2388Z"/>
            </g>
          </g>
        </g>
      </g>
    </g>
  </g>
</svg>
