<svg xmlns="http://www.w3.org/2000/svg" width="1719.7" height="492.9" viewBox="0 0 1719.7 492.9">
  <defs>
    <style>
      .cls-1 {
        fill: #fff;
      }
    </style>
  </defs>
  <g id="Layer_2" data-name="Layer 2">
    <g id="레이어_1" data-name="레이어 1">
      <g>
        <g>
          <path class="cls-1" d="M646.7,247.1c-6.5,0-10.6-2.7-10.6-9.3V140.2c0-6.7,4.1-9.3,10.6-9.3h41.4c23.4,0,34.6,8.8,34.6,26.7v5.9c0,10.7-3.1,19.7-12.3,22.7,10,3.3,14.8,11.4,14.8,25.6v8.4c0,17.8-13.7,26.9-37.1,26.9Zm41.9-68.8c12.3,0,17.8-5.3,17.8-13.6v-5.2c0-8.1-6.2-13.6-17.9-13.6H652.3v32.4Zm-.1,53.8c13.3,0,20.4-6.6,20.4-15.2v-7.2c0-11.8-7.1-15.4-20.3-15.4H652.3v37.8Z"/>
          <path class="cls-1" d="M811.5,166.1v75.1c0,5.1-2.2,7.4-8.1,7.4s-8-2.3-8-7.4v-.9c-3.9,5-12.7,8.3-22.7,8.3-20.8,0-32.4-9-32.4-34.8V166.1c0-4.9,2.5-7.4,8.3-7.4s8,2.5,8,7.4v46.1c0,16.9,8.2,20.9,19.4,20.9s17.2-4.1,19.4-14.9V166.1c0-4.9,2.3-7.4,8-7.4S811.5,161.2,811.5,166.1Z"/>
          <path class="cls-1" d="M904,194.9v17.6c0,27.1-14.7,36.1-33.4,36.1-12.4,0-21.3-3.3-25.2-8.3v.9c0,5-2.3,7.4-7.9,7.4s-8.2-2.4-8.2-7.4V135.4c0-5.1,2.2-7.4,8.2-7.4s7.9,2.3,7.9,7.4v31.7c3.9-5.1,12.8-8.4,25.2-8.4C889.3,158.7,904,167.8,904,194.9Zm-16.1,1.6c0-16.9-8.8-22.4-21.3-22.4s-21.2,6-21.2,23.6v11.9c0,15.9,8.8,23.6,21.2,23.6s21.3-5.5,21.3-22.4Z"/>
          <path class="cls-1" d="M993.9,194.9v17.6c0,27.1-14.7,36.1-33.5,36.1-12.3,0-21.3-3.3-25.1-8.3v.9c0,5-2.4,7.4-8,7.4s-8.1-2.4-8.1-7.4V135.4c0-5.1,2.2-7.4,8.1-7.4s8,2.3,8,7.4v31.7c3.8-5.1,12.8-8.4,25.1-8.4C979.2,158.7,993.9,167.8,993.9,194.9Zm-16.1,1.6c0-16.9-8.8-22.4-21.3-22.4s-21.2,6-21.2,23.6v11.9c0,15.9,8.8,23.6,21.2,23.6s21.3-5.5,21.3-22.4Z"/>
          <path class="cls-1" d="M1009,241.2V135.4c0-5.1,2.5-7.4,8.1-7.4s8.1,2.3,8.1,7.4V241.2c0,5-2.5,7.4-8.1,7.4S1009,246.2,1009,241.2Z"/>
          <path class="cls-1" d="M1040.4,194.6c0-19.1,11.6-35.9,38.5-35.9,21.6,0,36,13,36,34.2v8.8c0,5.9-2.6,7.9-7.8,7.9h-50.7v.4c0,13.7,5.3,22.8,21.5,23.1,11.3.1,19.5-4.1,19.5-10.2v-1.2c0-4.6,4.6-5.4,8.4-5.4s7.7,1.5,7.7,6.5v.4c0,16.1-15.1,25.4-36.4,25.4-25.5,0-36.7-16.5-36.7-35.3Zm16.3.1h43.2v-4.1c0-8.8-7.4-16.4-21-16.4s-21.9,8.8-22.2,20Z"/>
          <path class="cls-1" d="M1165.4,247.1c-6.5,0-10.6-2.7-10.6-9.3V140.2c0-6.7,4.1-9.3,10.6-9.3h41.4c23.4,0,34.7,8.8,34.7,26.7v5.9c0,10.7-3.2,19.7-12.4,22.7,10,3.3,14.8,11.4,14.8,25.6v8.4c0,17.8-13.7,26.9-37.1,26.9Zm42-68.8c12.2,0,17.7-5.3,17.7-13.6v-5.2c0-8.1-6.2-13.6-17.9-13.6H1171v32.4Zm-.2,53.8c13.4,0,20.4-6.6,20.4-15.2v-7.2c0-11.8-7-15.4-20.2-15.4H1171v37.8Z"/>
          <path class="cls-1" d="M1330.2,166.1v75.1c0,5.1-2.2,7.4-8.1,7.4s-8-2.3-8-7.4v-.9c-3.9,5-12.7,8.3-22.7,8.3-20.8,0-32.3-9-32.3-34.8V166.1c0-4.9,2.4-7.4,8.2-7.4s8,2.5,8,7.4v46.1c0,16.9,8.3,20.9,19.4,20.9s17.2-4.1,19.4-14.9V166.1c0-4.9,2.3-7.4,8-7.4S1330.2,161.2,1330.2,166.1Z"/>
          <path class="cls-1" d="M1343.4,220.9c0-4.2,3.8-6.1,8-6.1s8.1,1.8,8.1,6.1v2.8c0,5.8,7.4,10.2,20.6,10.2,9.8,0,19.1-3.6,20.5-8.8,1.9-7.5-5.5-9.3-15.3-12.4l-19.9-6.2c-13.5-4.1-20.4-12.1-20.1-24.3.3-15,12.1-23.5,34-23.5s34.7,9.2,34.7,21.7v2.8c0,3.9-3.2,6.1-8,6.1s-8.1-1.9-8.1-5.9v-1.8c0-5.3-9.9-8.2-18.7-8.2s-17.4,2.5-17.8,8.2,3.3,8.4,10.7,10.8l24.9,7.8c12,3.7,20.9,11.7,19.8,24.2s-11.6,24.2-36.4,24.2-37-10.3-37-23.8Z"/>
          <path class="cls-1" d="M1471.2,231.7c4.8,0,7.3,2.4,7.3,7.7s-2.5,7.6-7.3,7.6h-7.9c-16.3,0-25.5-7.7-25.5-23V175.3H1432c-4.7,0-6.8-2.2-6.8-7.7s2.1-7.6,6.8-7.6h5.8V147.7c0-5,2.3-7.5,8.1-7.5s8.1,2.5,8.1,7.5V160h15.8c4.7,0,6.7,2.2,6.7,7.6s-2,7.7-6.7,7.7H1454v48.2c0,6,4.4,8.2,9.3,8.2Z"/>
          <path class="cls-1" d="M1485.3,194.6c0-19.1,11.7-35.9,38.6-35.9,21.6,0,36,13,36,34.2v8.8c0,5.9-2.6,7.9-7.8,7.9h-50.7v.4c0,13.7,5.3,22.8,21.5,23.1,11.3.1,19.5-4.1,19.5-10.2v-1.2c0-4.6,4.6-5.4,8.4-5.4s7.7,1.5,7.7,6.5v.4c0,16.1-15.1,25.4-36.4,25.4-25.5,0-36.8-16.5-36.8-35.3Zm16.4.1h43.2v-4.1c0-8.8-7.4-16.4-21-16.4s-21.9,8.8-22.2,20Z"/>
          <path class="cls-1" d="M1613.8,158.7c4.1.1,5.9,2.2,5.9,7.5s-1.8,7.6-5.9,7.9h-3.3c-10.3,0-20.1,3.7-20.8,13.3v53.4c0,5.1-2.4,7.7-7.9,7.7s-8.2-2.6-8.2-7.7V166.2c0-5,2.4-7.5,8.2-7.5s7.9,2.5,7.9,7.5v.2c4.3-4.7,13.1-7.7,20.8-7.7Z"/>
          <path class="cls-1" d="M1622.5,220.9c0-4.2,3.8-6.1,8-6.1s8.1,1.8,8.1,6.1v2.8c0,5.8,7.4,10.2,20.6,10.2,9.8,0,19.1-3.6,20.5-8.8,1.9-7.5-5.5-9.3-15.3-12.4l-19.9-6.2c-13.5-4.1-20.4-12.1-20.1-24.3.3-15,12.1-23.5,34-23.5s34.7,9.2,34.7,21.7v2.8c0,3.9-3.2,6.1-8,6.1s-8.1-1.9-8.1-5.9v-1.8c0-5.3-9.9-8.2-18.7-8.2s-17.4,2.5-17.8,8.2,3.3,8.4,10.7,10.8l24.9,7.8c12,3.7,20.9,11.7,19.8,24.2s-11.6,24.2-36.4,24.2-37-10.3-37-23.8Z"/>
          <path class="cls-1" d="M995.6,291.4v66c0,3.1-1.7,4.5-5.1,4.5s-5.1-1.4-5.1-4.5V326H972.6v29.1c0,3.2-1.5,4.7-4.6,4.7H933.6c-3.2,0-4.7-1.5-4.7-4.7V292.9c0-3.3,2-4.8,5.1-4.8s5.1,1.5,5.1,4.8v20.8h23.3V292.9c0-3.3,2-4.8,5.1-4.8s5.1,1.5,5.1,4.8v23.4h12.8V291.4q0-4.5,5.1-4.5T995.6,291.4Zm-56.5,59.1h23.3V322.8H939.1Z"/>
          <path class="cls-1" d="M1076.2,317.9c3,0,4.2,1.5,4.2,4.7s-1.2,4.5-4.2,4.5h-64.9c-2.9,0-4.2-1.3-4.2-4.5s1.3-4.7,4.2-4.7Zm-3,36c3,0,4.2,1.2,4.2,4s-1.2,4.1-4.2,4.1h-56.9c-3.2,0-4.6-1.4-4.6-4.6V346.5c0-3.2,1.4-4.6,4.6-4.6h49.5v-3.6h-50c-2.9,0-4.1-1.3-4.1-4s1.2-4,4.1-4H1071c3.4,0,4.8,1.5,4.8,4.7v9.7c0,3.2-1.5,5.5-4.7,5.5h-49.4v3.7Zm-56-39.2c-3.5,0-4.9-1.4-4.9-4.9V292.7c0-3.3,1.5-4.7,4.9-4.7s4.9,1.4,4.9,4.7v2.2h43.2v-2.2c0-3.3,1.6-4.7,4.8-4.7s5,1.4,5,4.7v17.1c0,3.5-1.4,4.9-4.9,4.9Zm48.1-11.4h-43.2v2.8h43.2Z"/>
          <path class="cls-1" d="M1156.1,291.4v66c0,3.1-1.7,4.5-5,4.5s-5.2-1.4-5.2-4.5V326h-12.8v29.1c0,3.2-1.5,4.7-4.6,4.7h-34.4c-3.2,0-4.6-1.5-4.6-4.7V292.9c0-3.3,1.9-4.8,5-4.8s5.1,1.5,5.1,4.8v20.8h23.3V292.9c0-3.3,2-4.8,5.1-4.8s5.1,1.5,5.1,4.8v23.4h12.8V291.4c0-3,1.7-4.5,5.2-4.5S1156.1,288.4,1156.1,291.4Zm-56.5,59.1h23.3V322.8h-23.3Z"/>
          <path class="cls-1" d="M1236.7,350.5c3,0,4.2,1.5,4.2,4.7s-1.2,4.6-4.2,4.6h-64.9c-2.9,0-4.2-1.4-4.2-4.6s1.3-4.7,4.2-4.7ZM1179,332.9c-3.2,1.8-5,2.1-7.3-1s-2.1-5.6.7-7.1l26.7-15.2V292.1c0-2.9,1.7-4.4,5.2-4.4s5.1,1.5,5.1,4.4v17.5l26.7,15.2c2.8,1.5,2.9,4,.7,7.1s-4.1,2.8-7.3,1l-25.2-14.6Z"/>
          <path class="cls-1" d="M1291.6,350.5c2.9,0,4.1,1.4,4.1,4.5s-1.2,4.6-4.1,4.6h-36.2c-3.2,0-4.5-1.5-4.5-4.5V293.8c0-3.2,1.3-4.6,4.5-4.6h33.8c2.9,0,4.1,1.4,4.1,4.5s-1.2,4.6-4.1,4.6h-28.1V319h24c2.9,0,4.1,1.5,4.1,4.6s-1.2,4.4-4.1,4.4h-24v22.5Zm25-59.1v66c0,3.1-1.7,4.5-5,4.5s-5.1-1.4-5.1-4.5V325.5h-8.1c-3.4,0-5-2-5-5s1.6-4.8,5-4.8h8.1V291.4q0-4.5,5.1-4.5C1314.9,286.9,1316.6,288.4,1316.6,291.4Z"/>
          <path class="cls-1" d="M1397.2,350.5c3,0,4.2,1.5,4.2,4.7s-1.2,4.6-4.2,4.6h-64.9c-2.9,0-4.2-1.4-4.2-4.6s1.3-4.7,4.2-4.7Zm-56.8-14.3c-3.6,1.9-5.2,2.4-7.8-.5s-2.7-6,0-7.5l27-14.2V299.6h-22.9c-2.9,0-4.1-1.7-4.1-4.9s1.2-4.9,4.1-4.9h56c3,0,4.2,1.7,4.2,4.9s-1.2,4.9-4.2,4.9h-22.8V314l27.1,14.2c2.6,1.5,2.5,4.5-.1,7.5s-4.2,2.4-7.7.5l-24.4-13.3Z"/>
          <path class="cls-1" d="M1712.5,32.2H594.8a7.2,7.2,0,0,1,0-14.3H1712.5a7.2,7.2,0,1,1,0,14.3Z"/>
          <path class="cls-1" d="M1712.5,67.9H594.8a7.2,7.2,0,0,1,0-14.3H1712.5a7.2,7.2,0,1,1,0,14.3Z"/>
          <path class="cls-1" d="M1712.5,442.9H594.8a7.2,7.2,0,0,1,0-14.3H1712.5a7.2,7.2,0,1,1,0,14.3Z"/>
          <path class="cls-1" d="M1712.5,475H594.8a7.2,7.2,0,0,1,0-14.3H1712.5a7.2,7.2,0,1,1,0,14.3Z"/>
        </g>
        <g>
          <path class="cls-1" d="M532.2,143.1c5.7-10.2-6.2-13.6-6.2-13.6,1.5-7.9-7.7-10.9-7.7-10.9,2-9.8-6.9-12-6.9-12,1.4-6.6-5.5-8-5.5-8,.4-5.8-6.3-8.1-6.3-8.1,1.4-4.8-2.1-10.8-2.1-10.8-6.2-8.6-15.8-5.2-15.8-5.2a9.1,9.1,0,0,0-1.8-10.1c-4.4-4.5-10.6-2.7-10.6-2.7,1.7-8.9-9.3-8-9.3-8,1.6-3.4-1.6-9.5-1.6-9.5-3.2-5.9-13.2-4.9-13.2-4.9a7.9,7.9,0,0,1-6.1-4C436.8,22.7,424.9,23,424.9,23c-.1-10.9-13.3-12.1-13.3-12.1-4.1-9.5-15.4-5.6-15.4-5.6C395.4.9,388.5.2,388.5.2,375.4-1,371.2,4.3,371.2,4.3c-1.9-2-6.2-2.8-6.2-2.8-8.9-1.7-13.2,6-13.2,6-5-.5-10.7,4.3-10.7,4.3-8,7.9-2.3,17.4-2.3,17.4-2.5,1.5-3,3-3,3a8.1,8.1,0,0,0-.1,4.6L511.4,182.3c1.7-1.5,2.6-5.2,2.6-5.2,4.3,6.2,8.3,2,8.3,2,2.7-2.6,1.6-11,1.6-11s3.2,5.1,7,2.9c6-3.5,1.4-10.7,1.4-10.7,2.7-.3,5.8-6.8,5.8-6.8C540.8,144.8,532.2,143.1,532.2,143.1Z"/>
          <path class="cls-1" d="M306.7,257.7l115.8-140L407,104.9,289,247.5A42.7,42.7,0,0,1,306.7,257.7Z"/>
          <path class="cls-1" d="M303.2,261.9c-6.7-6.3-13.2-8.9-18-9.8l-69.9,84.5a100.9,100.9,0,0,0,12.1,17Z"/>
          <path class="cls-1" d="M185.3,374.5l-1-.4L103.2,472l15.6,12.9,83.7-101.3A108.6,108.6,0,0,0,185.3,374.5Z"/>
          <path class="cls-1" d="M100.5,164.4a3.6,3.6,0,0,1-.2,1.1A5.2,5.2,0,0,0,100.5,164.4Z"/>
          <path class="cls-1" d="M330.8,297.3a42.9,42.9,0,0,1,1.3,4.4c6.6,2.7,34.3,14.5,44.9,27.6a2.7,2.7,0,1,1-4.2,3.4c-8.9-11-32.1-21.5-40.7-25.1l15,123.7a62,62,0,0,0,11.3-1.9,108.2,108.2,0,0,0,19-6.8c.8-.5,9.7-6.1,18.1-11.6a64.5,64.5,0,0,0,10.3-16.6c41.2-118.8-58.6-189.1-58.6-189.1a53.8,53.8,0,0,0-5.3-3.2,35.9,35.9,0,0,1-9.4-10.7c-6.5,14.2-6.8,63.6-6.8,63.6h0Z"/>
          <path class="cls-1" d="M207.8,322.2c19.7,42.2,36.9,43,37.1,43a2.5,2.5,0,0,1,2.5,1.9,98.4,98.4,0,0,0,18.5,30.1c18.1,20.3,42.2,31.8,71.6,34.1a61.4,61.4,0,0,0,20.9-1.9,106.8,106.8,0,0,0,11.5-3.6l6-92.3a2.5,2.5,0,0,1-3.1-.8c-10.9-13.5-43.7-26.3-44-26.5a2.7,2.7,0,0,1-1.7-2c-1.9-10.5-12.6-27.4-12.7-27.6a.1.1,0,0,1-.1-.1c-15.6-27.5-35.3-25-36.6-24.8-13.9,3-15.8,12-15.9,12.4a2.8,2.8,0,0,1-3.1,2.2c-8.1-1.2-17.4,4.6-17.5,4.7h-.1c-13.5,7.9-9.8,19.5-9.8,19.6a2.4,2.4,0,0,1-.3,2.3,2.5,2.5,0,0,1-1.9,1.2c-9.2,1.2-15.6,4.5-19.1,9.8C205.2,311.4,207.4,320.9,207.8,322.2Z"/>
          <path class="cls-1" d="M139.8,463.9a2.8,2.8,0,0,1,3.6.7c1.1.9,6.3,2.9,10.6,4.1,7.2.8,13-.5,17.2-4,6.2-5.1,6.9-13.3,6.9-13.4l.2-2.2,2.1-.3c23.1-3.6,24.7-22.1,24.8-22.9v-2l2.1-.4c7.7-1.5,12.5-5.4,14-11.5a17.3,17.3,0,0,0-4-15.7c-5.4-6-15.3-14.7-32.1-21.8-25.9-10.9-37.6,2.1-38.1,2.7l-1.7,1.9-2-1.5c-25.1-19.9-74.8-22-75.3-22a.1.1,0,0,0-.1-.1l-6.7,91.3,55.7,3.1c18.2-2.1,20.5,10.9,20.5,10.9a7,7,0,0,0,1.6,3.6Z"/>
          <path class="cls-1" d="M193,372h.1c2.4,1.1,4.7,2.4,6.9,3.6h0l4.1,2.5h0l1.9,1.2,17.9-21.6A106.4,106.4,0,0,1,211.6,341l-23.7,28.7Z"/>
          <line class="cls-1" x1="377.4" y1="422.6" x2="380" y2="427.3"/>
          <g>
            <path class="cls-1" d="M277.7,251.7a29.1,29.1,0,0,0-8.6,3.3h24.5C285.1,250.7,278.5,251.6,277.7,251.7Z"/>
            <path class="cls-1" d="M276.6,246.4h.1c.7-.1,12.4-2,25.5,7.6,1.5-32.3,21-88.8,21-88.8s.5,1.4.7,2.2a162.4,162.4,0,0,1-2.3-33.8c0-.3.1-.6.1-1a94.3,94.3,0,0,0-12.8-47.4c13.7-2.9,23.8-13.6,23.8-26.4,0-15-14-27.2-31.4-27.2-13,0-24.2,6.9-29,16.7a117.9,117.9,0,0,0-120.8-.1c-4.8-9.8-15.9-16.6-28.9-16.6-17.4,0-31.4,12.2-31.4,27.2,0,12.7,10,23.3,23.5,26.4a94,94,0,0,0-12.8,47.4c0,2.2.2,4.4.3,6.6h-.1a102.1,102.1,0,0,1-1.5,25.1c.1.3,17.3,46.9,24.6,90.8H260.7C263.7,251.6,268.6,248.1,276.6,246.4ZM293.8,65.8c8.9-12.8,25.4-17.2,26.1-17.4a2.7,2.7,0,0,1,3.3,2,2.6,2.6,0,0,1-2,3.2,54.9,54.9,0,0,0-8.9,3.7,20,20,0,0,1,8,5.6,2.8,2.8,0,0,1-.4,3.8,2.7,2.7,0,0,1-1.7.6,2.5,2.5,0,0,1-2.1-1c-.2-.2-5-5.9-11.3-4.3a33.4,33.4,0,0,0-6.6,6.9,2.5,2.5,0,0,1-2.2,1.2,2.7,2.7,0,0,1-1.5-.5A2.7,2.7,0,0,1,293.8,65.8ZM134.3,69.6a3,3,0,0,1-1.5.5,2.8,2.8,0,0,1-2.3-1.2A30.6,30.6,0,0,0,124,62c-6.4-1.6-11.1,4.1-11.3,4.3a2.5,2.5,0,0,1-2.1,1,2.7,2.7,0,0,1-1.7-.6,2.6,2.6,0,0,1-.4-3.8,20,20,0,0,1,8-5.6,53.7,53.7,0,0,0-9-3.7,2.6,2.6,0,0,1-1.9-3.3,2.7,2.7,0,0,1,3.3-1.9c.7.2,17.1,4.6,26.1,17.4A2.8,2.8,0,0,1,134.3,69.6Zm80.6,26.6a1.8,1.8,0,0,1,3.6,0v12.7a1.8,1.8,0,0,1-3.6,0Zm3.9,33.4c1.5.2,1.8,2.1,1.5,3.3a13.5,13.5,0,0,1-3.4,5.8,5.8,5.8,0,0,1-3.6,1,4.9,4.9,0,0,1-3.9-1.3,11.5,11.5,0,0,1-3.2-5.9,2.4,2.4,0,0,1,1.6-2.9A40.5,40.5,0,0,1,218.8,129.6ZM205.9,85.4a1.8,1.8,0,0,1,3.6,0v21.3a1.8,1.8,0,0,1-3.6,0Zm-28,34.5h3.7a2.8,2.8,0,1,0,0-5.6h-3.7v-1.6a9.5,9.5,0,0,1,1.8-5.5l-17.9-7.8a2.3,2.3,0,0,1-1.1-3,2.2,2.2,0,0,1,2.9-1.2l34,14.9a2.2,2.2,0,0,1,1.2,3,2.3,2.3,0,0,1-2.1,1.3v5.6a9.4,9.4,0,1,1-18.8,0Zm59.8,43.5c-.3.5-7.7,12.1-24.4,12.1s-22.9-12.5-23.2-13a2.7,2.7,0,0,1,1.4-3.6,2.7,2.7,0,0,1,3.5,1.3c.3.4,5,9.9,18.3,9.9s19.5-9.2,19.8-9.5a2.6,2.6,0,0,1,3.7-.9A2.7,2.7,0,0,1,237.7,163.4Zm.2-34.1a9.4,9.4,0,0,1-9.4-9.4h3.7a2.8,2.8,0,1,0,0-5.6h-3.1A2.3,2.3,0,0,1,227,113a2.2,2.2,0,0,1,1.2-3l34-14.9a2.2,2.2,0,0,1,2.9,1.2,2.3,2.3,0,0,1-1.1,3l-18.3,8a9.5,9.5,0,0,1,1.6,5.3v7.3A9.4,9.4,0,0,1,237.9,129.3Z"/>
          </g>
          <g>
            <path class="cls-1" d="M55,448.4h.1a13.4,13.4,0,0,1,3,.7h0l2.3.7c5.1,1.5,14,4,23.7,6.1l23.3-192c-1.6-20-5.5-52.8-14.4-72.9-13.7,36.1-38.3,68.9-47.6,80.5a15.6,15.6,0,0,1-1.6,2c-1.2,1.6-2.1,2.6-2.1,2.6h.2A215.2,215.2,0,0,0,1.8,357.2s-11.9,48.6,25.5,79.1C35.6,442.8,49,446.8,55,448.4Z"/>
            <path class="cls-1" d="M377.4,428.6a114.6,114.6,0,0,1-17.6,6,62.9,62.9,0,0,1-12,2.1l6.7,55.4H79.7l3.7-30.8c-10.1-2.1-19.2-4.8-24.5-6.3l-2-.6c.3,12.5,1.1,25.3,2.7,38.5h315A458.9,458.9,0,0,0,377.4,428.6Z"/>
          </g>
          <path class="cls-1" d="M55,448.4h.1a13.4,13.4,0,0,1,3,.7h0l2.3.7c9.6,2.8,32.2,9.4,49.1,9.2h0a2.8,2.8,0,0,1,1.3.4l8.1-9.8L68.3,407.7,45.4,428.1l4.5,18.8Z"/>
          <path class="cls-1" d="M338.5,44.8a25.8,25.8,0,0,0-2,5.1,21.7,21.7,0,0,0,7.6,22.3L482,183.3a21.2,21.2,0,0,0,17.6,4.5,17.2,17.2,0,0,0,7.6-3.4Z"/>
        </g>
      </g>
    </g>
  </g>
</svg>
