<?xml version="1.0" encoding="utf-8"?>
<!-- Generator: Adobe Illustrator 24.2.0, SVG Export Plug-In . SVG Version: 6.00 Build 0)  -->
<svg version="1.1" id="Layer_1" xmlns="http://www.w3.org/2000/svg" xmlns:xlink="http://www.w3.org/1999/xlink" x="0px" y="0px"
	 viewBox="0 0 307.9 89.8" style="enable-background:new 0 0 307.9 89.8;" xml:space="preserve">
<style type="text/css">
	.st0{fill:#FFFFFF;}
	.st1{fill:#231916;}
	.st2{fill:#4D3421;}
	.st3{fill:#252626;}
</style>
<g id="Layer_2_1_">
	<g id="레이어_1">
		<g>
			<path class="st0" d="M61.8,8.5c0,0-1.3-0.6-0.9-2c0.1-0.2,0.3-0.4,0.5-0.6c0,0-1-1.7,0.4-3.1c0,0,1-0.9,1.9-0.8
				c0,0,0.8-1.4,2.4-1.1c0,0,0.8,0.1,1.1,0.5c0,0,0.8-0.9,3.1-0.7c0,0,1.2,0.1,1.4,0.9c0,0,2-0.7,2.7,1c0,0,2.4,0.2,2.4,2.2
				c0,0,2.1-0.1,2.6,2.2c0.2,0.4,0.6,0.7,1.1,0.7c0,0,1.8-0.2,2.4,0.9c0,0,0.6,1.1,0.3,1.7c0,0,2-0.2,1.7,1.4c0,0,1.1-0.3,1.9,0.5
				c0.5,0.5,0.6,1.2,0.3,1.8c0,0,1.7-0.6,2.8,0.9c0,0,0.6,1.1,0.4,1.9c0,0,1.2,0.4,1.1,1.4c0,0,1.2,0.2,1,1.4c0,0,1.6,0.4,1.2,2.2
				c0,0,1.6,0.6,1.4,2c0,0,2.2,0.6,1.1,2.4c0,0,1.6,0.3,1.1,1.9c0,0-0.6,1.2-1.1,1.2c0,0,0.8,1.3-0.2,1.9c-0.7,0.4-1.2-0.5-1.2-0.5
				s0.2,1.5-0.3,2c0,0-0.7,0.7-1.5-0.4c0,0-0.4,1.4-1,1l-3-0.6L63,12.1L61.8,8.5z"/>
			<path class="st1" d="M92.1,34.1c-0.2,0-0.3-0.1-0.4-0.1l-2.9-0.6l-0.2-0.1L62.7,12.5c-0.1-0.1-0.1-0.1-0.2-0.2l-1.2-3.4
				c-0.6-0.4-1.4-1.2-1-2.5l0,0c0.1-0.2,0.2-0.4,0.4-0.5c-0.5-1.1-0.2-2.4,0.7-3.3l0,0c0.1-0.1,1-0.8,2-0.9c0.6-0.8,1.7-1.3,2.7-1.1
				c0.4,0.1,0.7,0.2,1,0.4c0.5-0.3,1.4-0.8,3.2-0.6l0,0c0.1,0,1.2,0.1,1.6,0.8c0.9-0.2,2.1-0.1,2.8,1.1C75.7,2.4,77,3,77.3,4.4
				c0.9,0.1,2.2,0.8,2.6,2.5c0.2,0.2,0.4,0.4,0.7,0.4c0.3,0,2.1-0.1,2.8,1.1l0,0c0.2,0.5,0.4,1,0.4,1.5c0.4,0.1,0.9,0.2,1.3,0.6
				c0.2,0.2,0.3,0.5,0.4,0.8c0.7,0,1.3,0.2,1.7,0.7c0.4,0.4,0.6,1,0.6,1.6c1-0.1,2,0.4,2.6,1.3c0,0,0,0,0,0c0.1,0.1,0.6,1,0.5,1.9
				c0.5,0.3,1,0.7,1.1,1.4c0.6,0.2,1,0.8,1,1.5c0.8,0.4,1.3,1.3,1.2,2.2c0.6,0.3,1.4,1,1.4,1.9c0.4,0.2,1,0.5,1.2,1.2
				c0.2,0.4,0.2,0.9,0,1.3c0.3,0.1,0.6,0.4,0.7,0.7c0.3,0.5,0.3,1,0.1,1.6v0.1c-0.2,0.5-0.5,0.9-0.9,1.2c0.2,0.4,0.2,0.8,0.1,1.2
				c-0.1,0.4-0.4,0.8-0.7,1c-0.3,0.2-0.7,0.2-1,0.1c0,0.5-0.2,1-0.5,1.3c-0.3,0.3-0.7,0.4-1,0.4c-0.2,0-0.4-0.1-0.6-0.2
				c-0.1,0.3-0.4,0.5-0.6,0.6C92.3,34.1,92.2,34.1,92.1,34.1z M89.1,32.4L92,33l0.1,0.1c0.1-0.2,0.2-0.4,0.3-0.6
				c0-0.2,0.2-0.3,0.4-0.4c0.2,0,0.4,0,0.5,0.2c0.2,0.2,0.3,0.4,0.5,0.4c0.1,0,0.2,0,0.3-0.1c0.2-0.2,0.2-1,0.2-1.6
				c0-0.2,0.1-0.4,0.3-0.5c0.2-0.1,0.5,0,0.6,0.2c0,0,0.3,0.5,0.6,0.4c0.1-0.1,0.3-0.2,0.3-0.4c0-0.3,0-0.6-0.2-0.9
				c-0.1-0.1-0.1-0.3,0-0.5c0.1-0.1,0.2-0.2,0.4-0.3c0.2-0.1,0.5-0.5,0.7-0.9c0.1-0.2,0.1-0.5-0.1-0.7c-0.2-0.2-0.4-0.4-0.7-0.4
				c-0.2,0-0.3-0.1-0.3-0.3c-0.1-0.1-0.1-0.3,0-0.4c0.2-0.4,0.3-0.7,0.2-1c-0.1-0.3-0.8-0.7-1-0.8c-0.2-0.1-0.4-0.3-0.4-0.6
				c0.2-1-1-1.4-1-1.4c-0.2-0.1-0.4-0.3-0.3-0.6c0.2-1.3-0.8-1.6-0.9-1.6c-0.3-0.1-0.4-0.3-0.4-0.6c0.1-0.7-0.4-0.8-0.6-0.9
				c-0.2-0.1-0.4-0.3-0.4-0.5c0.1-0.7-0.8-1-0.8-1c-0.2-0.1-0.4-0.3-0.3-0.5c0,0,0,0,0,0c0.1-0.5-0.2-1.2-0.3-1.5
				c-0.5-0.7-1.4-1-2.3-0.7c-0.2,0.1-0.4,0-0.5-0.1c-0.1-0.1-0.2-0.4-0.1-0.5c0.2-0.4,0.1-0.9-0.2-1.3c-0.6-0.6-1.4-0.4-1.4-0.4
				c-0.2,0-0.3,0-0.5-0.1c-0.1-0.1-0.2-0.3-0.1-0.4c0.1-0.4-0.1-0.5-0.1-0.6c0-0.1-0.9-0.3-1.1-0.3c-0.2,0-0.3-0.1-0.4-0.2
				c-0.1-0.1-0.1-0.3,0-0.5c0.1-0.2-0.1-0.9-0.3-1.2c-0.2-0.4-1.5-0.7-1.9-0.6h-0.1c-0.6-0.1-1.2-0.4-1.5-1l-0.1-0.1
				c-0.3-1.8-1.9-1.8-2.1-1.8c-0.3,0-0.5-0.2-0.5-0.5c0,0,0,0,0,0c0-1.5-1.9-1.7-1.9-1.7c-0.2,0-0.3-0.1-0.4-0.3
				c-0.5-1.2-2-0.8-2.2-0.7c-0.1,0-0.3,0-0.4-0.1c-0.1-0.1-0.2-0.2-0.2-0.3c-0.1-0.3-0.7-0.5-1-0.5c-1.9-0.2-2.6,0.5-2.7,0.6
				C67.4,2,67.1,2,66.9,1.9c0,0,0,0-0.1-0.1c-0.2-0.2-0.6-0.3-0.9-0.4c-1.2-0.2-1.8,0.8-1.9,0.8c-0.1,0.2-0.3,0.3-0.5,0.2
				c-0.6-0.1-1.3,0.4-1.6,0.7c-1.1,1.1-0.3,2.4-0.3,2.5c0.1,0.2,0.1,0.5-0.2,0.7c-0.1,0.1-0.2,0.2-0.3,0.3C61,7.6,61.9,8,62,8
				c0.1,0.1,0.2,0.2,0.2,0.3l1.2,3.5L89.1,32.4z"/>
			<path class="st0" d="M62.9,37.6c-0.3-0.2-0.6-0.4-0.9-0.6c-4-3-3.7-11.1-3.6-12.3v-0.2c0-3-0.8-5.9-2.3-8.5
				c2.5-0.5,4.3-2.5,4.3-4.7c0-2.7-2.5-4.9-5.7-4.9c-2.3,0-4.4,1.2-5.2,3c-6.7-4-15-4-21.7,0c-0.9-1.7-2.9-3-5.2-3
				c-3.1,0-5.7,2.2-5.7,4.9c0,2.3,1.8,4.2,4.2,4.7c-1.5,2.6-2.3,5.5-2.3,8.5c0,0.4,0,0.8,0.1,1.2v0c0.7,9.4-7.7,20.7-10.2,23.8
				l-0.3,0.4L8,50.3h0c-3.4,4.3-5.9,9.3-7.2,14.6c0,0-3.1,12.7,9.9,17c0,2.5,0.2,4.9,0.5,7.3h56.6c0.4-4,0.6-8,0.5-12
				c3.7-2,5.1-5.7,5.1-5.7C80.8,50.2,62.9,37.6,62.9,37.6z"/>
			<path class="st2" d="M59,46.6c0,0,0.1-9.1,1.3-11.5c0,0-1.2-3.1-1.7-4.6c0,0-3.8,10.9-3.8,16.6l1.7,2.4L59,46.6z"/>
			<polygon class="st2" points="64.2,89.1 59,46.6 20,46.6 14.8,89.1 			"/>
			<path class="st1" d="M38.8,32.3c-3,0-4.1-2.2-4.2-2.4c-0.1-0.2,0-0.5,0.2-0.6c0.2-0.1,0.5,0,0.6,0.2c0.1,0.1,0.9,1.8,3.3,1.8
				c2.4,0,3.5-1.6,3.5-1.7c0.1-0.3,0.4-0.4,0.7-0.3c0.3,0.1,0.4,0.4,0.3,0.7c0,0.1-0.1,0.1-0.1,0.1C43.1,30.2,41.8,32.3,38.8,32.3z"
				/>
			<path class="st1" d="M53.7,13.3c-0.1,0-0.2,0-0.3-0.1c-0.2-0.2-0.3-0.5-0.1-0.7c1.6-2.3,4.6-3.1,4.7-3.1c0.2-0.1,0.5,0.1,0.6,0.3
				c0,0,0,0,0,0c0.1,0.3-0.1,0.5-0.3,0.6c-0.1,0-2.7,0.7-4.1,2.7C54,13.2,53.8,13.3,53.7,13.3z"/>
			<path class="st1" d="M57.6,12.8c-0.1,0-0.3-0.1-0.4-0.2c0-0.1-0.9-1.1-2.1-0.7c-0.3,0.1-0.5-0.1-0.6-0.3
				c-0.1-0.3,0.1-0.5,0.3-0.6c0,0,0,0,0,0c1.8-0.6,3.1,1,3.2,1.1c0.2,0.2,0.2,0.5,0,0.7C57.9,12.8,57.8,12.8,57.6,12.8z"/>
			<path class="st1" d="M41.8,21.1c-0.1,0-0.1,0-0.2,0h-0.1v0.1h0.7c0.3,0,0.5,0.2,0.5,0.5l0,0c0,0.3-0.2,0.5-0.5,0.5h-0.7
				c0,0.9,0.8,1.7,1.7,1.7c0.9,0,1.7-0.8,1.7-1.7l0,0V21c0-0.4-0.1-0.7-0.3-1L41.8,21.1z"/>
			<path class="st1" d="M35.8,21.2c-0.1,0-0.1,0-0.2,0l-2.8-1.2c-0.2,0.3-0.4,0.7-0.4,1.1v0.3h0.7c0.3,0,0.5,0.2,0.5,0.5
				c0,0,0,0,0,0c0,0.3-0.2,0.5-0.5,0.5c0,0,0,0,0,0h-0.7c0,0.9,0.7,1.7,1.7,1.7c0,0,0,0,0,0l0,0c0.9,0,1.7-0.8,1.7-1.7V21.2z"/>
			<path class="st1" d="M41.6,21.3c-0.2,0-0.3-0.1-0.4-0.2c-0.1-0.2,0-0.4,0.2-0.5c0,0,0,0,0,0l6.1-2.7c0.2-0.1,0.4,0,0.5,0.2
				c0.1,0.2,0,0.4-0.2,0.5c0,0,0,0,0,0l-6.1,2.7L41.6,21.3z"/>
			<path class="st1" d="M35.8,21.3l-0.2,0l-6.1-2.7c-0.2-0.1-0.3-0.3-0.2-0.5c0,0,0,0,0,0c0.1-0.2,0.3-0.3,0.5-0.2l6.1,2.7
				c0.2,0.1,0.3,0.3,0.2,0.5C36.1,21.2,36,21.3,35.8,21.3z"/>
			<path class="st1" d="M37.8,20.2c-0.2,0-0.3-0.1-0.3-0.3l0,0v-3.8c0-0.2,0.1-0.3,0.3-0.3s0.3,0.1,0.3,0.3v3.8
				C38.1,20.1,38,20.2,37.8,20.2z"/>
			<path class="st1" d="M39.4,20.6c-0.2,0-0.3-0.1-0.3-0.3v0V18c0-0.2,0.1-0.3,0.3-0.3s0.3,0.1,0.3,0.3l0,0v2.3
				C39.7,20.5,39.6,20.6,39.4,20.6L39.4,20.6z"/>
			<path class="st0" d="M9.7,82c0,0,9.8,2,10.1,2l2-2.5L12.8,74l-4.1,3.7L9.7,82z"/>
			<path class="st1" d="M20.1,84.2c-3.2,0-7.2-1.2-9-1.7l-0.8-0.2c-0.3,0-0.4-0.2-0.4-0.5c0,0,0,0,0,0c0-0.3,0.3-0.5,0.6-0.4
				l0.9,0.3c1.7,0.5,5.8,1.7,8.8,1.7h0c0.3,0,0.5,0.2,0.5,0.5l0,0c0,0.3-0.2,0.5-0.5,0.5H20.1z"/>
			<path class="st2" d="M20,51.2c0,0-0.4-10.7-2.8-16.2c0,0,1.2-3.9,1.4-4.8c0,0,4.5,12.2,5,21H20z"/>
			<path class="st1" d="M24.3,13.3c-0.2,0-0.3-0.1-0.4-0.2c-1.4-2-4.1-2.7-4.1-2.7c-0.3-0.1-0.4-0.3-0.4-0.6s0.3-0.4,0.6-0.4l0,0
				c0.1,0,3.1,0.8,4.7,3.1c0.2,0.2,0.1,0.5-0.1,0.7c0,0,0,0,0,0C24.5,13.3,24.4,13.3,24.3,13.3z"/>
			<path class="st1" d="M20.4,12.8c-0.1,0-0.2,0-0.3-0.1c-0.2-0.2-0.2-0.5-0.1-0.7c0.1-0.1,1.3-1.6,3.2-1.1c0.2,0.1,0.4,0.3,0.3,0.6
				c0,0,0,0,0,0c-0.1,0.3-0.4,0.4-0.6,0.3c-1.2-0.4-2.1,0.7-2.1,0.7C20.6,12.8,20.5,12.8,20.4,12.8z"/>
			<path class="st1" d="M37.5,24.5c0.1,0.4,0.3,0.8,0.6,1.1c0.2,0.2,0.4,0.2,0.7,0.2c0.2,0,0.5,0,0.6-0.2c0.3-0.3,0.5-0.6,0.6-1
				c0.1-0.2,0-0.6-0.3-0.6c-0.7-0.1-1.3-0.1-2,0C37.6,24.1,37.5,24.3,37.5,24.5z"/>
			<path class="st1" d="M68.2,89.8H10.8l-0.1-0.4c-0.3-2.3-0.5-4.7-0.5-7c-6.7-2.4-9-7-9.8-10.4c-0.5-2.3-0.5-4.8-0.1-7.1
				C1.7,59.4,4.2,54.4,7.6,50L8,49.6l0.1-0.2l0.2-0.2c2.6-3.2,10.8-14.3,10.1-23.5l-0.1-1.2l0.1,0.1v-0.1c0-2.9,0.7-5.7,2.1-8.2
				c-2.4-0.8-4-2.8-4-5c0-3,2.7-5.4,6.1-5.4c2.2,0,4.3,1.1,5.4,2.8c3.2-1.8,6.9-2.8,10.6-2.8c3.7,0,7.4,1,10.7,2.8
				c1.1-1.7,3.1-2.8,5.4-2.8c3.4,0,6.1,2.4,6.1,5.4c0,2.3-1.6,4.3-4,5c1.4,2.5,2.1,5.3,2.1,8.2c0,0,0,0.1,0,0.1v0.1l0,0
				c0,0.9-0.3,9,3.4,11.9c0.3,0.2,0.7,0.4,1,0.6c0.2,0.2,4.6,3.3,8.2,9.1c2.1,3.3,3.4,7,4,10.9c0.7,4.7,0.2,9.6-1.5,14.6h0
				c-1,2.4-2.8,4.4-5.1,5.8c0.1,4.1-0.1,8.3-0.5,11.8L68.2,89.8z M11.6,88.8h55.7c0.4-3.8,0.6-7.7,0.4-11.5V77l0.3-0.1
				c3.4-1.9,4.8-5.2,4.9-5.4c3.8-10.8,0.7-19.4-2.4-24.6C67,41.2,62.6,38,62.6,38l0,0c-0.3-0.2-0.6-0.4-0.9-0.5h-0.1
				c-4.1-3.1-3.9-11.1-3.8-12.7v-0.2c0-2.9-0.8-5.8-2.2-8.3l-0.3-0.6l0.6-0.1c2.3-0.5,3.9-2.2,3.9-4.3c0-2.4-2.3-4.4-5.2-4.4
				c-2.1,0-4,1.1-4.8,2.7l-0.2,0.5l-0.4-0.3c-3.2-1.9-6.9-2.9-10.6-2.9c-3.7,0-7.4,1-10.6,2.9l-0.4,0.3l-0.2-0.5
				c-0.8-1.6-2.7-2.7-4.7-2.7c-2.9,0-5.2,2-5.2,4.4c0,2,1.6,3.7,3.9,4.3l0.7,0.1l-0.3,0.6c-1.5,2.5-2.2,5.4-2.2,8.3
				c0,0.3,0,0.6,0.1,0.9c0,0.1,0,0.2,0,0.2l0.1,1.2l-0.1-0.1c0,9.2-7.8,19.8-10.3,23L8.9,50l-0.1,0.2l-0.4,0.4
				C5,54.9,2.6,59.8,1.3,65c-0.4,2.2-0.4,4.5,0.1,6.7c1.1,4.7,4.3,8,9.5,9.8l0.3,0.1V82C11.2,84.3,11.4,86.6,11.6,88.8z"/>
			
				<rect x="4.9" y="51.9" transform="matrix(0.6374 -0.7705 0.7705 0.6374 -24.0799 56.2247)" class="st1" width="85.6" height="3.6"/>
			<path class="st0" d="M21.8,88.3c-0.1,0-0.2,0-0.3-0.1l-2.8-2.3c-0.1-0.1-0.2-0.2-0.2-0.3c0-0.1,0-0.3,0.1-0.4l54.6-66
				c0.2-0.2,0.4-0.2,0.6-0.1c0,0,0,0,0,0l2.8,2.3c0.1,0.1,0.2,0.2,0.2,0.3c0,0.1,0,0.3-0.1,0.4l-54.6,66
				C22.1,88.3,22,88.3,21.8,88.3z M19.7,85.5l2,1.7l54-65.2l-2.1-1.7L19.7,85.5z"/>
			<path class="st1" d="M61.6,8.3c-0.3,0.4-0.5,0.9-0.6,1.4c-0.4,1.5,0.2,3.1,1.4,4l24.8,20c0.9,0.7,2,1,3.2,0.8
				c0.7-0.1,1.3-0.5,1.7-1L61.6,8.3z"/>
			<path class="st0" d="M12.8,64.1c0,0,9.1,0.4,13.8,4.1c0,0,2.3-2.8,7.4-0.6c3.2,1.3,5,3,5.9,4c0.8,0.9,1.1,2.1,0.8,3.2
				c-0.3,1-1,2.1-2.9,2.4c0,0-0.3,3.9-4.9,4.6c0,0-0.9,3.6-5,3.2c0,0-2.6-0.1-2.7-1.6c0,0-0.4-2.3-3.7-2l-10-0.6L12.8,64.1z"/>
			<path class="st0" d="M68,60.2c-2.1-2.6-8.1-4.9-8.1-4.9c-0.4-2-2.4-5.1-2.4-5.1c-3-5.4-7.1-4.7-7.1-4.7c-2.9,0.6-3.3,2.6-3.3,2.6
				c-1.7-0.2-3.5,0.9-3.5,0.9c-2.8,1.6-2,4.1-2,4.1c-5.7,0.7-4.2,5.7-4.2,5.7c3.8,8.1,7.1,8,7.1,8s4,11.2,18.4,11.7l3.8-0.2L68,60.2
				z"/>
			<path class="st1" d="M28.9,86L28,85.9h-0.1c-1.4-0.4-2.3-0.8-2.5-1.1c-0.2-0.2-0.1-0.5,0.1-0.7c0.2-0.2,0.5-0.1,0.7,0.1l0,0
				c0.2,0.2,1.1,0.5,1.9,0.7c1.3,0.1,2.3-0.1,3.1-0.7c1.1-0.9,1.2-2.4,1.2-2.4l0-0.4l0.4-0.1c4.1-0.6,4.4-4,4.5-4.1v-0.4l0.4-0.1
				c1.4-0.3,2.2-1,2.5-2.1c0.2-1,0-2.1-0.7-2.8c-0.9-1.1-2.7-2.7-5.8-3.9c-4.6-2-6.7,0.4-6.8,0.5l-0.3,0.4l-0.4-0.3
				c-4.5-3.6-13.4-4-13.5-4c-0.3,0-0.5-0.2-0.5-0.5c0-0.3,0.2-0.5,0.5-0.5c0.4,0,8.9,0.4,13.8,3.9c0.9-0.7,3.3-2.2,7.6-0.4
				c3.2,1.3,5.1,3,6.1,4.2c0.9,1,1.3,2.4,0.9,3.7c-0.2,1-1,2.2-2.9,2.7c-0.1,0.7-0.4,1.3-0.7,1.9c-0.6,1-1.8,2.2-4.2,2.7
				c-0.2,1.1-0.7,2-1.5,2.7C31.1,85.6,30.1,86,28.9,86z"/>
			<path class="st1" d="M62,79.2c-0.3,0-0.6,0-1,0c-6.9-0.5-11.2-3.8-13.5-6.5c-1.4-1.6-2.6-3.4-3.4-5.4c-1-0.2-4-1.4-7.2-8.3l0-0.1
				c0-0.1-0.7-2.3,0.5-4.1c0.7-1.1,1.9-1.8,3.6-2.1c-0.1-0.9,0-2.8,2.3-4.1c0.1-0.1,1.7-1.1,3.4-1c0.3-0.7,1.1-2.1,3.5-2.6l0,0
				c0.2,0,4.4-0.7,7.6,4.9c0.1,0.2,1.9,3,2.4,5c1.2,0.5,6.2,2.6,8.1,5c0.2,0.2,0.1,0.5-0.1,0.7c-0.2,0.2-0.5,0.1-0.7-0.1
				c-2-2.4-7.8-4.7-7.9-4.8c-0.2-0.1-0.3-0.2-0.3-0.4c-0.3-1.9-2.3-4.9-2.3-5h0c-2.8-4.9-6.3-4.5-6.6-4.5c-2.5,0.5-2.8,2.2-2.9,2.2
				c-0.1,0.3-0.3,0.4-0.6,0.4c-1.5-0.2-3.1,0.8-3.2,0.8l0,0C41.4,50.9,42,52.9,42,53c0,0.1,0,0.3-0.1,0.4c-0.1,0.1-0.2,0.2-0.4,0.2
				c-1.6,0.2-2.8,0.8-3.4,1.7c-0.9,1.3-0.5,3-0.4,3.3c3.5,7.6,6.6,7.7,6.7,7.7c0.2,0,0.4,0.1,0.5,0.3c0.8,2,1.9,3.8,3.3,5.4
				c3.2,3.7,7.6,5.7,12.9,6.1c1.3,0.1,2.5,0,3.7-0.4c1.5-0.4,3.4-1,4.4-1.9c0.2-0.1,0.5-0.1,0.7,0.2c0.1,0.2,0.1,0.4-0.1,0.6
				c-1.2,0.9-3.3,1.6-4.8,2.1C64.1,79.1,63.1,79.2,62,79.2z"/>
			<path class="st3" d="M116.4,47.6c-1.1,0-1.9-0.5-1.9-1.7V28.6c0-1.2,0.7-1.7,1.9-1.7h7.4c4.2,0,6.2,1.6,6.2,4.8v1.1
				c0,1.9-0.6,3.5-2.2,4c1.8,0.6,2.7,2,2.7,4.6v1.5c0,3.2-2.5,4.8-6.6,4.8L116.4,47.6z M123.9,35.4c2.2,0,3.2-0.9,3.2-2.4V32
				c0-1.4-1.1-2.4-3.2-2.4h-6.5v5.8H123.9z M123.9,44.9c2.4,0,3.6-1.2,3.6-2.7V41c0-2.1-1.2-2.7-3.6-2.7h-6.5v6.7H123.9z"/>
			<path class="st3" d="M145.8,33.2v13.4c0,0.9-0.4,1.3-1.4,1.3c-1.1,0-1.4-0.4-1.4-1.3v-0.2c-0.7,0.9-2.2,1.5-4,1.5
				c-3.7,0-5.8-1.6-5.8-6.2v-8.5c0-0.9,0.4-1.3,1.5-1.3s1.4,0.4,1.4,1.3v8.2c0,3,1.5,3.7,3.5,3.7c2,0,3.1-0.7,3.5-2.7v-9.3
				c0-0.9,0.4-1.3,1.4-1.3S145.8,32.3,145.8,33.2z"/>
			<path class="st3" d="M162.3,38.3v3.1c0,4.8-2.6,6.4-6,6.4c-2.2,0-3.8-0.6-4.5-1.5v0.2c0,0.9-0.4,1.3-1.4,1.3
				c-1,0-1.4-0.4-1.4-1.3V27.7c0-0.9,0.4-1.3,1.4-1.3c1.1,0,1.4,0.4,1.4,1.3v5.7c0.7-0.9,2.3-1.5,4.5-1.5
				C159.7,31.9,162.3,33.5,162.3,38.3z M159.4,38.6c0-3-1.6-4-3.8-4c-2.2,0-3.8,1.1-3.8,4.2v2.1c0,2.8,1.6,4.2,3.8,4.2s3.8-1,3.8-4
				V38.6z"/>
			<path class="st3" d="M178.3,38.3v3.1c0,4.8-2.6,6.4-6,6.4c-2.2,0-3.8-0.6-4.5-1.5v0.2c0,0.9-0.4,1.3-1.4,1.3
				c-1,0-1.4-0.4-1.4-1.3V27.7c0-0.9,0.4-1.3,1.4-1.3c1.1,0,1.4,0.4,1.4,1.3v5.7c0.7-0.9,2.3-1.5,4.5-1.5
				C175.7,31.9,178.3,33.5,178.3,38.3z M175.5,38.6c0-3-1.6-4-3.8-4c-2.2,0-3.8,1.1-3.8,4.2v2.1c0,2.8,1.6,4.2,3.8,4.2
				c2.2,0,3.8-1,3.8-4V38.6z"/>
			<path class="st3" d="M181,46.6V27.7c0-0.9,0.4-1.3,1.5-1.3c1,0,1.4,0.4,1.4,1.3v18.9c0,0.9-0.4,1.3-1.4,1.3
				C181.5,47.9,181,47.5,181,46.6z"/>
			<path class="st3" d="M186.6,38.3c0-3.4,2.1-6.4,6.9-6.4c3.9,0,6.4,2.3,6.4,6.1v1.6c0,1.1-0.5,1.4-1.4,1.4h-9V41
				c0,2.4,0.9,4.1,3.8,4.1c2,0,3.5-0.7,3.5-1.8v-0.2c0-0.8,0.8-1,1.5-1s1.4,0.3,1.4,1.2v0.1c0,2.9-2.7,4.5-6.5,4.5
				c-4.5,0-6.5-2.9-6.5-6.3V38.3z M189.6,38.3h7.7v-0.7c0-1.6-1.3-2.9-3.8-2.9S189.6,36.2,189.6,38.3L189.6,38.3z"/>
			<path class="st3" d="M208.9,47.6c-1.2,0-1.9-0.5-1.9-1.7V28.6c0-1.2,0.7-1.7,1.9-1.7h7.4c4.2,0,6.2,1.6,6.2,4.8v1.1
				c0,1.9-0.6,3.5-2.2,4c1.8,0.6,2.7,2,2.7,4.6v1.5c0,3.2-2.5,4.8-6.6,4.8L208.9,47.6z M216.4,35.4c2.2,0,3.2-0.9,3.2-2.4V32
				c0-1.4-1.1-2.4-3.2-2.4h-6.5v5.8H216.4z M216.4,44.9c2.4,0,3.6-1.2,3.6-2.7V41c0-2.1-1.2-2.7-3.6-2.7h-6.5v6.7H216.4z"/>
			<path class="st3" d="M238.3,33.2v13.4c0,0.9-0.4,1.3-1.4,1.3s-1.4-0.4-1.4-1.3v-0.2c-0.7,0.9-2.2,1.5-4,1.5
				c-3.7,0-5.8-1.6-5.8-6.2v-8.5c0-0.9,0.4-1.3,1.5-1.3c1,0,1.4,0.4,1.4,1.3v8.2c0,3,1.5,3.7,3.5,3.7c1.7,0,3-0.7,3.4-2.7v-9.3
				c0-0.9,0.4-1.3,1.4-1.3C237.9,31.9,238.3,32.3,238.3,33.2z"/>
			<path class="st3" d="M240.7,43c0-0.7,0.7-1.1,1.4-1.1s1.4,0.3,1.4,1.1v0.5c0,1,1.3,1.8,3.7,1.8c1.7,0,3.4-0.6,3.7-1.6
				c0.3-1.4-1-1.7-2.7-2.2l-3.6-1.1c-2.4-0.7-3.6-2.2-3.6-4.3c0-2.7,2.2-4.2,6-4.2c3.9,0,6.2,1.6,6.2,3.9v0.5c0,0.7-0.6,1.1-1.4,1.1
				c-0.9,0-1.4-0.3-1.4-1.1v-0.3c0-0.9-1.8-1.5-3.3-1.5c-1.6,0-3.1,0.4-3.2,1.5s0.6,1.5,1.9,1.9l4.4,1.4c2.1,0.7,3.7,2.1,3.5,4.3
				c-0.2,2.2-2.1,4.3-6.5,4.3c-4.4,0-6.6-1.8-6.6-4.2V43z"/>
			<path class="st3" d="M263.5,44.9c0.9,0,1.3,0.4,1.3,1.4s-0.4,1.4-1.3,1.4h-1.4c-2.9,0-4.6-1.4-4.6-4.1v-8.7h-1
				c-0.8,0-1.2-0.4-1.2-1.4c0-1,0.4-1.4,1.2-1.4h1v-2.2c0-0.9,0.4-1.3,1.4-1.3s1.4,0.4,1.4,1.3v2.2h2.8c0.8,0,1.2,0.4,1.2,1.4
				s-0.4,1.4-1.2,1.4h-2.8v8.6c0,1.1,0.8,1.5,1.7,1.5H263.5z"/>
			<path class="st3" d="M266,38.3c0-3.4,2.1-6.4,6.9-6.4c3.9,0,6.4,2.3,6.4,6.1v1.6c0,1.1-0.5,1.4-1.4,1.4h-9V41
				c0,2.4,0.9,4.1,3.8,4.1c2,0,3.5-0.7,3.5-1.8v-0.2c0-0.8,0.8-1,1.5-1s1.4,0.3,1.4,1.2v0.1c0,2.9-2.7,4.5-6.5,4.5
				c-4.5,0-6.5-2.9-6.5-6.3V38.3z M268.9,38.3h7.7v-0.7c0-1.6-1.3-2.9-3.8-2.9S269,36.2,268.9,38.3L268.9,38.3z"/>
			<path class="st3" d="M288.9,31.9c0.7,0,1.1,0.4,1.1,1.3s-0.3,1.4-1.1,1.4h-0.6c-1.8,0-3.6,0.7-3.7,2.4v9.5c0,0.9-0.4,1.4-1.4,1.4
				c-1,0-1.4-0.5-1.4-1.4V33.2c0-0.9,0.4-1.3,1.4-1.3s1.4,0.4,1.4,1.3v0c0.8-0.8,2.3-1.4,3.7-1.4H288.9z"/>
			<path class="st3" d="M290.4,43c0-0.7,0.7-1.1,1.4-1.1c0.7,0,1.4,0.3,1.4,1.1v0.5c0,1,1.3,1.8,3.7,1.8c1.7,0,3.4-0.6,3.7-1.6
				c0.3-1.4-1-1.7-2.7-2.2l-3.6-1.1c-2.4-0.7-3.6-2.2-3.6-4.3c0-2.7,2.2-4.2,6-4.2s6.2,1.6,6.2,3.9v0.5c0,0.7-0.6,1.1-1.4,1.1
				s-1.4-0.3-1.4-1.1v-0.3c0-0.9-1.8-1.5-3.3-1.5c-1.6,0-3.1,0.4-3.2,1.5s0.6,1.5,1.9,1.9l4.4,1.4c2.1,0.7,3.7,2.1,3.5,4.3
				c-0.2,2.2-2.1,4.3-6.5,4.3s-6.6-1.8-6.6-4.2V43z"/>
			<path class="st3" d="M178.7,55.5v11.8c0,0.6-0.3,0.8-0.9,0.8s-0.9-0.2-0.9-0.8v-5.6h-2.3v5.2c0,0.6-0.2,0.8-0.8,0.8h-6.1
				c-0.6,0-0.8-0.3-0.8-0.8V55.8c0-0.6,0.3-0.9,0.9-0.9c0.6,0,0.9,0.3,0.9,0.9v3.7h4.2v-3.7c0-0.6,0.3-0.9,0.9-0.9
				c0.6,0,0.9,0.3,0.9,0.9V60h2.3v-4.4c0-0.5,0.3-0.8,0.9-0.8C178.4,54.7,178.7,55,178.7,55.5z M168.6,66.1h4.2v-4.9h-4.2V66.1z"/>
			<path class="st3" d="M193,60.3c0.5,0,0.7,0.3,0.7,0.8c0,0.6-0.2,0.8-0.7,0.8h-11.6c-0.5,0-0.7-0.2-0.7-0.8c0-0.6,0.2-0.8,0.7-0.8
				H193z M192.5,66.7c0.5,0,0.7,0.2,0.7,0.7c0,0.5-0.2,0.7-0.7,0.7h-10.2c-0.6,0-0.8-0.2-0.8-0.8v-1.9c0-0.6,0.2-0.8,0.8-0.8h8.8
				v-0.6h-8.9c-0.5,0-0.7-0.2-0.7-0.7c0-0.5,0.2-0.7,0.7-0.7h9.8c0.6,0,0.9,0.3,0.9,0.8V65c0,0.6-0.2,1-0.8,1h-8.8v0.7H192.5z
				 M182.5,59.7c-0.6,0-0.9-0.2-0.9-0.9v-3c0-0.6,0.3-0.8,0.9-0.8c0.6,0,0.9,0.2,0.9,0.8v0.4h7.7v-0.4c0-0.6,0.3-0.8,0.9-0.8
				s0.9,0.2,0.9,0.8v3c0,0.6-0.2,0.9-0.9,0.9H182.5z M191.1,57.6h-7.7v0.5h7.7V57.6z"/>
			<path class="st3" d="M207.3,55.5v11.8c0,0.6-0.3,0.8-0.9,0.8s-0.9-0.2-0.9-0.8v-5.6h-2.3v5.2c0,0.6-0.2,0.8-0.8,0.8h-6.1
				c-0.6,0-0.8-0.3-0.8-0.8V55.8c0-0.6,0.3-0.9,0.9-0.9s0.9,0.3,0.9,0.9v3.7h4.2v-3.7c0-0.6,0.3-0.9,0.9-0.9s0.9,0.3,0.9,0.9V60h2.3
				v-4.4c0-0.5,0.3-0.8,0.9-0.8C207,54.7,207.3,55,207.3,55.5z M197.2,66.1h4.2v-4.9h-4.2V66.1z"/>
			<path class="st3" d="M221.7,66c0.5,0,0.7,0.3,0.7,0.9c0,0.6-0.2,0.8-0.7,0.8h-11.6c-0.5,0-0.7-0.2-0.7-0.8c0-0.6,0.2-0.9,0.7-0.9
				H221.7z M211.4,62.9c-0.6,0.3-0.9,0.4-1.3-0.2c-0.4-0.6-0.4-1,0.1-1.3l4.8-2.7v-3.1c0-0.5,0.3-0.8,0.9-0.8s0.9,0.3,0.9,0.8v3.1
				l4.8,2.7c0.5,0.3,0.5,0.7,0.1,1.3s-0.7,0.5-1.3,0.2l-4.5-2.6L211.4,62.9z"/>
			<path class="st3" d="M231.4,66c0.5,0,0.7,0.3,0.7,0.8c0,0.6-0.2,0.8-0.7,0.8H225c-0.6,0-0.8-0.3-0.8-0.8V56
				c0-0.6,0.2-0.8,0.8-0.8h6c0.5,0,0.7,0.2,0.7,0.8s-0.2,0.8-0.7,0.8h-5v3.7h4.3c0.5,0,0.7,0.3,0.7,0.8s-0.2,0.8-0.7,0.8H226v4
				H231.4z M235.9,55.5v11.8c0,0.6-0.3,0.8-0.9,0.8s-0.9-0.2-0.9-0.8v-5.7h-1.4c-0.6,0-0.9-0.4-0.9-0.9s0.3-0.9,0.9-0.9h1.4v-4.3
				c0-0.5,0.3-0.8,0.9-0.8C235.6,54.7,235.9,55,235.9,55.5L235.9,55.5z"/>
			<path class="st3" d="M250.3,66c0.5,0,0.7,0.3,0.7,0.9c0,0.6-0.2,0.8-0.7,0.8h-11.6c-0.5,0-0.7-0.2-0.7-0.8c0-0.6,0.2-0.9,0.7-0.9
				H250.3z M240.1,63.5c-0.6,0.3-0.9,0.4-1.4-0.1s-0.5-1.1,0-1.3l4.8-2.5V57h-4.1c-0.5,0-0.7-0.3-0.7-0.9s0.2-0.9,0.7-0.9h10
				c0.5,0,0.7,0.3,0.7,0.9S250,57,249.5,57h-4.1v2.6l4.8,2.5c0.5,0.3,0.4,0.8,0,1.3c-0.4,0.5-0.7,0.4-1.4,0.1l-4.4-2.4L240.1,63.5z"
				/>
			<path class="st3" d="M306.5,9.3H107.2c-0.7-0.1-1.2-0.7-1.1-1.4c0.1-0.6,0.5-1.1,1.1-1.1h199.3c0.7,0.1,1.2,0.7,1.1,1.4
				C307.6,8.8,307.1,9.2,306.5,9.3z"/>
			<path class="st3" d="M306.5,15.7H107.2c-0.7-0.1-1.2-0.7-1.1-1.4c0.1-0.6,0.5-1.1,1.1-1.1h199.3c0.7,0.1,1.2,0.7,1.1,1.4
				C307.6,15.1,307.1,15.6,306.5,15.7z"/>
			<path class="st3" d="M306.5,82.5H107.2c-0.7-0.1-1.2-0.7-1.1-1.4c0.1-0.6,0.5-1.1,1.1-1.1h199.3c0.7,0.1,1.2,0.7,1.1,1.4
				C307.6,82,307.1,82.5,306.5,82.5z"/>
			<path class="st3" d="M306.5,88.3H107.2c-0.7-0.1-1.2-0.7-1.1-1.4c0.1-0.6,0.5-1.1,1.1-1.1h199.3c0.7,0.1,1.2,0.7,1.1,1.4
				C307.6,87.7,307.1,88.2,306.5,88.3z"/>
		</g>
	</g>
</g>
</svg>
