<svg xmlns="http://www.w3.org/2000/svg" width="1082" height="990.9" viewBox="0 0 1082 990.9">
  <defs>
    <style>
      .cls-1 {
        fill: #fff;
      }

      .cls-2 {
        fill: #231916;
      }

      .cls-3 {
        fill: #4d3421;
      }
    </style>
  </defs>
  <g id="Layer_2" data-name="Layer 2">
    <g id="레이어_1" data-name="레이어 1">
      <g>
        <path class="cls-1" d="M683.7,91.4s-14.7-7-10.4-22c0,0,1-3,5.9-6,0,0-11.3-18.9,4.5-34.5,0,0,11.5-9.5,21.3-8.6,0,0,8.5-15.3,26.3-11.9,0,0,8.5,1.5,12.4,5.5,0,0,8.3-10.5,34.3-8.2,0,0,13.7,1.6,15.4,10.2,0,0,22.4-7.6,30.5,11.2,0,0,26.4,2.4,26.5,23.9,0,0,23.6-.4,28.3,24.6a15.4,15.4,0,0,0,12.1,7.9s19.9-1.9,26.3,9.8c0,0,6.3,12.2,3,18.9,0,0,22-1.8,18.6,15.9,0,0,12.3-3.7,21.1,5.4s3.6,20.1,3.6,20.1,19-6.8,31.4,10.4c0,0,7,11.9,4.1,21.3,0,0,13.4,4.5,12.7,16.1,0,0,13.5,2.8,10.9,16,0,0,17.6,4.3,13.7,23.8,0,0,18.2,6,15.2,21.7,0,0,23.8,6.7,12.4,27,0,0,17,3.5,11.8,20.7,0,0-6.2,13-11.7,13.5,0,0,9.2,14.4-2.8,21.4-7.4,4.3-13.8-5.9-13.8-5.9s2.2,16.8-3.2,22c0,0-8,8.3-16.5-4.1,0,0-3.8,15.7-10.7,10.7l-33.1-6.6L697.3,131.1Z"/>
        <path class="cls-2" d="M1019.6,374.6a10.1,10.1,0,0,1-4.7-1.3l-32.1-6.4a5.5,5.5,0,0,1-2.3-1.1L694,135.3a5.1,5.1,0,0,1-1.7-2.4l-13-37.8c-6.5-4-15.2-13.4-11.2-27.1v-.3a15,15,0,0,1,4.3-5.9c-3.6-9.2-5.1-24.4,7.4-36.7l.4-.4c1.2-1,11.3-9.1,21.8-9.8C707,8.5,717.5.3,732.3,3.1A38.6,38.6,0,0,1,743.4,7c5.2-3.6,15.9-8.3,35.1-6.7a.1.1,0,0,0,.1.1c1.5.1,12.8,1.6,17.9,9.2,9.6-1.8,23.7-.6,31,12.6,10.1,1.8,25.1,8.4,27.8,23.8,10.2,1.6,24.6,8.6,28.5,27.7a10.3,10.3,0,0,0,7.1,4.4c4-.3,23.5-.8,30.9,12.6.1.1.1.1.1.2.9,1.7,4.4,9,4.5,16.1,4.5.6,10.2,2.2,14,6.5a15.3,15.3,0,0,1,3.8,8.5,26,26,0,0,1,19.5,7.7,22.5,22.5,0,0,1,6.7,17.2,32.8,32.8,0,0,1,28.8,13.9c.1.2.1.3.2.4s6.2,11,5.5,20.9c5.1,2.8,10.7,7.9,11.9,15.4,5.6,2.4,11.3,7.8,11.4,16.2,6.9,3.3,14.8,10.8,13.9,24.1,6.8,3.6,14.9,10.7,15,21.5,4.4,2,10.8,6,13.8,13.1a20.9,20.9,0,0,1,.2,14.6,21.8,21.8,0,0,1,8.3,7.6c2.9,4.9,3.4,10.8,1.4,17.5l-.3.8c-1.6,3.3-5,9.7-9.5,13.5a22.9,22.9,0,0,1,1.2,13,17,17,0,0,1-8.3,10.7,12.5,12.5,0,0,1-10.9,1.1c-.4,5.3-1.7,10.9-5.1,14.2a15.1,15.1,0,0,1-11.4,4.3,15.2,15.2,0,0,1-6.9-2.5c-1.6,2.9-3.9,5.7-7,6.8A8,8,0,0,1,1019.6,374.6Zm-33.4-18,31.8,6.3,1.3.5a23.2,23.2,0,0,0,3.1-7.2,5.4,5.4,0,0,1,9.7-1.7c1.8,2.7,3.7,4.3,5.2,4.4a4.3,4.3,0,0,0,3-1.1c2-2,2.5-10.8,1.7-17.5a5.4,5.4,0,0,1,9.9-3.5s3.8,5.6,6.5,4a6.4,6.4,0,0,0,3.3-3.9c.9-3.6-1.4-8.4-2.4-9.9a5.8,5.8,0,0,1-.2-5.3,5.2,5.2,0,0,1,4.1-2.9c1.7-.8,5.1-5.6,7.4-10.2s.8-6.3-.4-8.4c-2.3-3.8-7.4-5-7.5-5a5.5,5.5,0,0,1-3.6-7.9c2.4-4.2,3-7.9,1.8-10.8-2-4.8-8.6-7.7-11-8.4a5.4,5.4,0,0,1-3.8-6.2c2-10.8-11-15.4-11.6-15.6a5.6,5.6,0,0,1-3.6-6.2c2.8-14-8.4-17.2-9.7-17.5a5.5,5.5,0,0,1-4-6.3c1.5-7.2-4.8-9.2-6.8-9.6a5.5,5.5,0,0,1-4.2-5.7c.5-7.3-8.9-10.6-9-10.6a5.5,5.5,0,0,1-3.4-6.7c1.7-5.6-1.9-13.8-3.5-16.8-9.9-13.4-24.9-8.3-25.1-8.3a5.3,5.3,0,0,1-5.8-1.4,5.5,5.5,0,0,1-.8-6,12.9,12.9,0,0,0-2.6-14c-6.4-6.5-15.4-4.1-15.8-4a5.3,5.3,0,0,1-5.1-1.2,5.2,5.2,0,0,1-1.7-5c.8-4.3-.6-5.8-1-6.3-2.7-3.1-9.6-3.3-11.8-3.2a5.2,5.2,0,0,1-4.9-2.3,5.5,5.5,0,0,1-.4-5.4c1.3-2.7-.8-9.8-2.9-14-4-6.9-16.6-7.4-21.1-7a2,2,0,0,1-1.1,0c-9.5-1.1-14.8-7.4-16.4-10.9a3.8,3.8,0,0,1-.4-1.3c-3.7-19.8-21-20.2-22.9-20.2a5.3,5.3,0,0,1-5.5-5.3c-.1-16.5-20.7-18.5-21.6-18.6a5.4,5.4,0,0,1-4.4-3.3c-5.9-13.7-22-8.8-23.9-8.2a5.3,5.3,0,0,1-4.4-.4,5.6,5.6,0,0,1-2.6-3.6c-.7-3.6-7.6-5.5-10.7-5.9-21.3-1.9-29,5.6-29.6,6.2a5.3,5.3,0,0,1-8,.4c-1.8-1.9-6.7-3.5-9.5-4-13.6-2.6-20.3,8.7-20.6,9.2a5.4,5.4,0,0,1-5.2,2.7c-6.1-.5-14.5,5.1-17.2,7.3-12.4,12.4-3.8,27.1-3.4,27.8A5.3,5.3,0,0,1,682,68a10.4,10.4,0,0,0-3.6,3.3C675.8,81.2,685,86,686,86.5a6,6,0,0,1,2.8,3.1l13.1,38.3ZM678.5,70.9h0v0Z"/>
        <path class="cls-1" d="M695.8,413.7a74.8,74.8,0,0,0-10.5-6.3c-43.7-32.8-40.9-122.5-40.2-136.3,0-.7.1-1.3.1-2a187.1,187.1,0,0,0-25.6-94.2c27.3-5.9,47.5-27.2,47.5-52.5,0-29.9-28-54.1-62.5-54.1-25.9,0-48.2,13.7-57.6,33.2-34.5-21-75.9-33.2-120.4-33.2a232.2,232.2,0,0,0-119.9,32.8c-9.5-19.3-31.7-32.8-57.5-32.8-34.5,0-62.5,24.2-62.5,54.1,0,25.2,19.9,46.3,46.9,52.3A187.8,187.8,0,0,0,208,269.1c0,4.4.4,8.7.7,13.1l-.3-.3c8.2,103.7-85.5,229.4-112.6,263.5-1.1,1.2-2.1,2.6-3.2,3.9l-4.3,5.2.4-.2A429.4,429.4,0,0,0,9,715.8S-25.3,856,118.4,904.5c.5,26.2,2.2,53.2,5.5,81H750.4c4.8-40,6.7-87.7,5.4-133.2,41.3-22.1,56.6-62.5,56.6-62.5C894.3,553.5,695.8,413.7,695.8,413.7Z"/>
        <path class="cls-3" d="M653,512.5s.7-100.7,14.1-127.4c0,0-13.6-34.2-18.9-51.3,0,0-41.6,120.6-42,183.4l18.6,26.9Z"/>
        <polygon class="cls-3" points="710.4 984.1 653.1 512.5 221.2 512.5 163.8 984.1 710.4 984.1"/>
        <path class="cls-2" d="M429.6,354.4c-33.6,0-45.6-24.8-46.1-25.9a5.5,5.5,0,0,1,2.7-7.1,5.3,5.3,0,0,1,7.1,2.6c.4.9,9.8,19.7,36.3,19.7s38.8-18.2,39.3-19a5.4,5.4,0,0,1,7.4-1.7,5.4,5.4,0,0,1,1.8,7.4C477.4,331.3,462.8,354.4,429.6,354.4Z"/>
        <path class="cls-2" d="M594.1,144.7a5.9,5.9,0,0,1-3.1-.9,5.4,5.4,0,0,1-1.3-7.5c17.8-25.6,50.5-34.3,51.9-34.6a5.2,5.2,0,0,1,6.5,3.8,5.4,5.4,0,0,1-3.8,6.6c-.5.1-30.4,8.1-45.8,30.3A5.3,5.3,0,0,1,594.1,144.7Z"/>
        <path class="cls-2" d="M638.2,139.3a5.5,5.5,0,0,1-4.2-2c-.5-.6-10.3-12.4-23.3-8.3a5.4,5.4,0,0,1-3.3-10.3c20.1-6.3,34.4,11.1,35,11.8a5.4,5.4,0,0,1-.9,7.6A5,5,0,0,1,638.2,139.3Z"/>
        <path class="cls-2" d="M463.1,231.2a5.2,5.2,0,0,1-2.1.4h-1.2v.9h7.4a5.7,5.7,0,0,1,5.6,5.7,5.6,5.6,0,0,1-5.6,5.6h-7.4a18.8,18.8,0,1,0,37.5,0V229.4a19,19,0,0,0-3.9-11.5Z"/>
        <path class="cls-2" d="M396.7,231.6a5.4,5.4,0,0,1-2.2-.4l-31.1-13.7a18.6,18.6,0,0,0-4.2,11.9v3h7.3a5.8,5.8,0,0,1,5.7,5.7,5.7,5.7,0,0,1-5.7,5.6h-7.3a18.8,18.8,0,0,0,18.7,18.8h0a18.8,18.8,0,0,0,18.8-18.8V231.6Z"/>
        <path class="cls-2" d="M461,232.7a4.4,4.4,0,0,1-4.1-2.6,4.5,4.5,0,0,1,2.3-6l67.6-29.5a4.5,4.5,0,0,1,3.6,8.2l-67.6,29.6Z"/>
        <path class="cls-2" d="M396.7,232.7l-1.8-.3-67.7-29.6a4.5,4.5,0,0,1-2.3-5.9,4.5,4.5,0,0,1,5.9-2.3l67.7,29.5a4.5,4.5,0,0,1-1.8,8.6Z"/>
        <path class="cls-2" d="M418.5,221.1a3.6,3.6,0,0,1-3.6-3.6V175.3a3.6,3.6,0,1,1,7.2,0v42.2A3.6,3.6,0,0,1,418.5,221.1Z"/>
        <path class="cls-2" d="M436.4,225.6a3.6,3.6,0,0,1-3.6-3.6V196.7a3.6,3.6,0,0,1,7.2,0V222A3.6,3.6,0,0,1,436.4,225.6Z"/>
        <path class="cls-1" d="M107.2,904.7s108.8,22.4,112,22.1l22.7-27.3L141.3,816.2,95.6,856.8Z"/>
        <path class="cls-2" d="M222.1,929.1c-35,0-80.2-13.3-99.6-18.9-3.9-1.2-8-2.4-8.9-2.5A5.4,5.4,0,0,1,115,897c1.4.2,3.8.9,10.5,2.8,19.2,5.6,64.1,18.7,97.6,18.5h.1a5.5,5.5,0,0,1,5.4,5.3,5.4,5.4,0,0,1-5.4,5.4Z"/>
        <path class="cls-3" d="M221.2,564.5s-3.9-118.6-30.9-179.4c0,0,13.6-42.7,15.1-53.2,0,0,49.8,134.6,55,232.6Z"/>
        <path class="cls-2" d="M269.4,144.7a5.3,5.3,0,0,1-4.4-2.3c-15.5-22.2-45.4-30.2-45.7-30.3a5.5,5.5,0,0,1-3.9-6.6,5.3,5.3,0,0,1,6.6-3.8c1.3.3,34.1,9,51.8,34.6a5.4,5.4,0,0,1-1.3,7.5A5.6,5.6,0,0,1,269.4,144.7Z"/>
        <path class="cls-2" d="M225.3,139.3a5.4,5.4,0,0,1-3.3-1.2,5.5,5.5,0,0,1-.9-7.6c.6-.7,14.9-18.1,35-11.8a5.4,5.4,0,1,1-3.3,10.3c-13-4.1-22.9,7.8-23.3,8.3A5.3,5.3,0,0,1,225.3,139.3Z"/>
        <path class="cls-2" d="M415.5,268.9c.6,4.1,3.4,8.8,6.2,11.8s5,2.4,7.9,2.4,5.2-.3,7.1-1.9,5.7-7.6,6.8-11.5c.7-2.3,0-6.2-3-6.6a79.6,79.6,0,0,0-21.8,0C416.1,263.8,415.2,266.4,415.5,268.9Z"/>
        <path class="cls-2" d="M755.2,990.9h-636l-.6-4.7c-3.1-25.4-4.9-50.9-5.5-77.8-73.8-26.3-99.8-77-108.5-115.3C-5,751.2,3.4,716,3.7,714.5A437.5,437.5,0,0,1,84.5,551l3.9-5.1a18.3,18.3,0,0,0,1.3-1.6l1.9-2.4c28.1-35.2,119.5-158.4,111.5-259.5L202,269.1l.6.5v-.5a193,193,0,0,1,23-91c-26.4-8.5-44.3-30.6-44.3-55.7,0-32.8,30.5-59.5,67.9-59.5,25,0,47.7,11.9,59.5,30.8A237.6,237.6,0,0,1,426.6,62.9c42.1,0,82.9,10.7,118.3,31.1,11.8-19.1,34.6-31.1,59.7-31.1,37.5,0,67.9,26.7,67.9,59.5,0,25.3-18.1,47.5-44.8,55.9a193.3,193.3,0,0,1,22.9,90.8c0,.5-.1,1-.1,1.5a.9.9,0,0,1-.1.5v.3c-.5,10.1-3.8,99.8,37.8,131.4a101.6,101.6,0,0,1,10.8,6.5c2.7,1.9,51.2,36.8,90.5,101,23.2,38.1,38.2,78.5,44.6,120.2,8,52.1,2.4,106.3-16.6,161.1h0c-.7,1.7-15.8,40.7-56.2,63.7,1.1,45.4-.8,91.7-5.5,130.8ZM128.7,980.1H745.6c4.4-38.4,6.1-83.6,4.8-127.7v-3.3l3-1.6c38.2-20.4,53.4-57.9,54.1-59.6,41.6-120,8.2-214.1-27.1-272-38.4-62.8-87.1-97.5-87.6-97.8h-.1a76.5,76.5,0,0,0-9.8-5.9l-.4-.2-.3-.2c-45.4-34-43.3-123-42.4-140.8a4.9,4.9,0,0,1,.1-1.2v-.6A183,183,0,0,0,615,177.6l-3.7-6.5,7.2-1.5c25.5-5.4,43.2-24.9,43.2-47.2,0-26.9-25.6-48.8-57.1-48.8-23.2,0-43.9,11.9-52.8,30.2l-2.6,5.3-5-3a229,229,0,0,0-234.7-.3l-5,3-2.6-5.3c-9-18.1-29.6-29.9-52.7-29.9-31.5,0-57.1,21.9-57.1,48.8,0,22.1,17.6,41.5,42.7,47.1l7.2,1.6-3.7,6.3a183.1,183.1,0,0,0-24.9,91.7c0,3.3.2,6.6.5,10,.1.9.1,1.8.2,2.7l.9,13.1-.7-.6C214.7,396.6,127.6,514,100,548.7L98.2,551l-1.4,1.6-3.8,5A425.2,425.2,0,0,0,14.2,717.1c-.1.3-8.2,34.6,1,74C27.3,843.5,62.6,880,120.1,899.4l3.6,1.2v3.8C124.3,930.7,125.9,955.5,128.7,980.1Z"/>
        <rect class="cls-2" x="508.2" y="118" width="40.1" height="947.58" transform="translate(498.5 -200.9) rotate(39.6)"/>
        <path class="cls-1" d="M241.6,975a5.4,5.4,0,0,1-3.4-1.2l-30.9-25.5a5.4,5.4,0,0,1-1.9-3.7,5.1,5.1,0,0,1,1.2-3.9l604-730.1a5.4,5.4,0,0,1,7.6-.8l30.9,25.6A5.2,5.2,0,0,1,851,239a5.8,5.8,0,0,1-1.2,4l-604,730.1A5.4,5.4,0,0,1,241.6,975Zm-23.3-31.6,22.6,18.7L838.1,240.2l-22.6-18.6Z"/>
        <path class="cls-2" d="M681.4,89.5a49,49,0,0,0-6.7,15,43.1,43.1,0,0,0,15,44.6L964,370a42.6,42.6,0,0,0,35,8.9,32.4,32.4,0,0,0,19.3-11.1Z"/>
        <path class="cls-1" d="M141.3,707.1S242.1,711,294.1,752c0,0,25.8-30.5,81.9-6.8,35,14.7,55.4,33.1,65.7,44.8,8.7,9.9,12.5,23.3,9.3,36-2.9,11.1-11.1,22.8-32.2,26.8,0,0-2.8,42.5-53.8,50.4,0,0-10.5,39.9-55.6,35.7,0,0-28.3-.6-30.2-17.1,0,0-4.7-25.9-40.9-21.7L127.5,894Z"/>
        <path class="cls-1" d="M753.2,663.7c-22.8-28.4-89.8-54.4-89.8-54.4-3.9-22-25.9-56.7-25.9-56.7-33.9-59.8-78.6-52-78.6-52-32,6.9-35.9,29-35.9,29-18.4-2.6-38.6,10.1-38.6,10.1-30.9,18.1-21.8,45.3-21.8,45.3-63.5,7.9-46.7,63-46.7,63,41.7,89.8,78.7,89,78.7,89S539,861,698.1,866.3l42.2-2.5Z"/>
        <path class="cls-2" d="M319.7,948.6a81.4,81.4,0,0,1-9.7-.6h-.9c-15.9-4.5-25.1-8.7-27.5-12.5a5.4,5.4,0,0,1,9-6c2.1,1.8,12.6,5.6,21.1,8,14.4,1.7,25.9-1,34.2-7.8,12.4-10.1,13.7-26.6,13.7-26.8l.4-4.2,4.2-.7c45.8-7.1,49.1-43.9,49.3-45.5l.3-4.1,4-.8c15.4-2.9,24.8-10.6,27.9-22.9,2.7-10.6-.3-22.2-8-31-10.6-12.1-30.3-29.4-63.7-43.5-51.6-21.6-74.8,4.3-75.8,5.4l-3.4,3.9-4-3.2c-50-39.4-148.7-43.7-149.7-43.7a5.5,5.5,0,0,1-5.2-5.6,5.4,5.4,0,0,1,5.6-5.2c4.1.2,98.7,4.3,152.2,43.2,9.4-8,36.7-24.8,84.4-4.7,35.4,14.9,56.3,33.4,67.7,46.3s13.9,26.7,10.4,40.8c-2.8,10.8-10.7,24.6-32.6,30a65.1,65.1,0,0,1-8,20.6c-6.7,11-20.1,24.9-45.8,30-1.3,6.8-5.3,20.3-17,29.9C344.2,945,333.1,948.6,319.7,948.6Zm-28.9-18.8Z"/>
        <path class="cls-2" d="M686.3,874.3c-3.5,0-7-.1-10.5-.4-76.8-6-123.9-42.4-150-71.8-23.2-26.3-34.1-51.4-37.4-60.2-11.3-2.3-44.4-15.6-79.7-91.6l-.3-.7c-.3-1-7.5-25.4,5.7-45.7,7.9-12.2,21.3-20.1,39.9-23.4-1-10.2.4-30.7,25.4-45.4,1.6-1,19.3-11.8,37.5-11.2,3.1-7.8,12.5-22.9,38.7-28.5h.2c1.9-.3,48.7-7.8,84,54.6,1.6,2.5,20.9,33.2,26.1,55.5,13.1,5.3,68.2,28.8,89.3,54.9a5.5,5.5,0,0,1-.8,7.6,5.4,5.4,0,0,1-7.6-.8c-21.7-26.9-86.9-52.5-87.6-52.7a5.5,5.5,0,0,1-3.3-4.1c-3.7-20.8-25-54.4-25.2-54.8l-.2-.2c-31-54.8-70.2-49.8-72.8-49.4-27.7,6-31.5,23.9-31.7,24.7a5.3,5.3,0,0,1-6,4.3c-16.2-2.3-34.8,9.2-34.9,9.4h-.2c-26.8,15.8-19.5,38.8-19.5,39a5.7,5.7,0,0,1-.5,4.6,5.6,5.6,0,0,1-3.9,2.4c-18.2,2.3-30.9,8.8-37.9,19.4-9.7,14.9-5.2,33.8-4.4,36.4,39.1,84,73.3,85.5,73.6,85.5a5.4,5.4,0,0,1,5.2,3.8c.1.3,9.8,29.6,36.7,59.9,35.9,40.4,83.9,63.3,142.4,67.8a121.7,121.7,0,0,0,41.6-3.8c16-4.2,37.6-11.3,49.1-20.7a5.4,5.4,0,1,1,6.8,8.4c-13,10.6-36.1,18.2-53.2,22.7A130.5,130.5,0,0,1,686.3,874.3Z"/>
      </g>
    </g>
  </g>
</svg>
