<?xml version="1.0" encoding="UTF-8"?>
<svg id="Layer_2" data-name="Layer 2" xmlns="http://www.w3.org/2000/svg" viewBox="0 0 187.9148190196 39.3486502306">
  <defs>
    <style>
      .cls-1 {
        fill: #fff;
      }
    </style>
  </defs>
  <g id="Layer_1-2" data-name="Layer 1">
    <g>
      <path class="cls-1" d="M15.0039851884,30.7780678242c3.0360928112-.0000001763,5.6986391256-.3852712764,7.9876389434-1.1556076031,2.2881770284-.7701306294,4.2028075859-1.8418134027,5.7434802776-3.2150483198,1.5406726918-1.3730292199,2.7012166078-3.0140819318,3.4832773268-4.923158136.7812379297-1.9088705068,1.1720622387-4.0131533766,1.1720615322-6.3130543065-.0000006927-2.2548532326-.3686109674-4.3144997555-1.1054194297-6.1789395686-.7368084621-1.8640284186-1.8586822718-3.4606503925-3.3656214289-4.7892488298-1.5073505516-1.3281870428-3.4162222299-2.3609928142-5.7270264292-3.0978002224S18.1519679008-.0000001828,15.003975734,0L0,.0000008711l.0000120871,39.3486493595,7.8366574472-.000000455-.0000026327-8.5705815353,7.1673182868-.0000004162ZM7.8366593298,6.1287499204l7.1673182868-.0000004161c1.7858643487-.0000001037,3.343404708.2067255401,4.6717982884.6195598397,1.3283935806.4134513914,2.42805177,1.0105904385,3.2989745684,1.7918285358.8709227986.7818551891,1.5238064628,1.730530859,1.9590623876,2.8466441014.4356673196,1.1167303341.6532954979,2.377860149.65329593,3.7844179308.000000439,1.4291844791-.2233864797,2.7242543655-.6697493617,3.8850039619-.4471856712,1.1611609909-1.1111763972,2.1491249117-1.9927949673,2.9638917622-.8824413593.8153839423-1.9874473026,1.4458460716-3.315840619,1.8922091769-1.3283933163.4469801971-2.8633068357.669956103-4.6047405578.6699562041l-7.1673182868.0000004161-.0000056685-18.4535115129Z"/>
      <path class="cls-1" d="M47.4891477753,24.2473840112c.4689896995-.8038648724,1.0099735075-1.4847227947,1.6243913054-2.0429851615.6138007059-.5578509722,1.3061778386-.9822044351,2.0763086088-1.2726489939.7703364677-.2900331644,1.6579204664-.4354611703,2.662546299-.4354612286.691760171-.0000000401,1.3506087858.061709096,1.975928752.1843046195.6249085716.1228012208,1.1052118909.1840989728,1.4400871684.1840989533.312454267-.0000000182.5636107029-.0721997668.753675005-.2176277321.1894472101-.1450165709.3291156268-.4070748729.4185938552-.7869976952l.5023112497-5.4256763397c-.5138320705-.3348750899-1.0941043577-.586031396-1.7414339536-.7534689183-.647946688-.1674375223-1.3397068847-.251156262-2.0765147742-.2511562193-2.1213567183.0000001232-3.9409552412.6195603398-5.4590012662,1.8586806499-1.5184574196,1.2391203102-2.8131159855,2.9420879015-3.8847984875,5.1074628935l-.4354626475-4.4543738802c-.1118995681-.6917598385-.3128660233-1.1774110294-.6028993655-1.4567478753-.2904447367-.2789254515-.8151787066-.4187995496-1.5739962121-.4187995055l-4.1863523641.000000243.0000077663,25.2826601466,7.2004355593-.0000004181-.0000037953-12.3552052013c.4019322966-1.0266349881.8373932946-1.9423991615,1.3061772968-2.7460583367Z"/>
      <path class="cls-1" d="M67.7511613346,31.715632818l21.9365933502-.0000012737c.6473295445-.0000000376,1.0936927249-.1892415317,1.3395009354-.569164363.2453968159-.3795114368.3684035985-1.1272209405.3684032555-2.2439512999-.0000007475-2.4333984439-.3630572283-4.60494427-1.088346653-6.5140203865-.7259065166-1.9088704193-1.7362923704-3.5217424823-3.0309518641-4.8394389778-1.2950708883-1.3170794038-2.8357443086-2.3159451506-4.621814564-2.9974200296-1.7864816498-.6806520899-3.7288817827-1.0214923171-5.8274060957-1.0214921952-2.5232893303.0000001465-4.7839030155.4412208747-6.781841056,1.323045093-1.998349435.8822356127-3.6955578595,2.0820677588-5.0905967865,3.6001135301-1.3956560189,1.5186628631-2.4673386373,3.3047321297-3.2150478552,5.3586191944-.7483263098,2.0545041565-1.1220777066,4.264721108-1.1220769797,6.631062249.0000009123,2.9698568667.4188015124,5.5931138461,1.2559904058,7.8703880302.1305407866.3551362911.2717778314.6980850196.4180544594,1.035274225l7.6781676429-.0000004458c-.5201059671-.7503321062-.9596043216-1.61256352-1.3143811183-2.5926080375-.5138324031-1.4174597062-.8151795296-3.0978005076-.9042470766-5.0404053126ZM70.798769905,20.9986003228c1.4956249356-1.4954190798,3.5501297869-2.2437457873,6.1624860676-2.243745939,1.2944533917-.0000000752,2.4389534857.2176275468,3.4326774928.6530885631.9933126124.4352553191,1.8253585578,1.0381539047,2.4951093495,1.8084900596.6697507917.7701304577,1.1774121167,1.6743755304,1.5238067646,2.7127352182.3459832531,1.0381539906.5191807621,2.1600267711.5191811325,3.3658240389l-16.9799044294.0000009859c.4019317822-2.7012162841,1.3506072923-4.8001510578,2.8466436224-6.2963929267Z"/>
      <path class="cls-1" d="M119.82879305,34.0432998527c-.491205558-.9710966793-1.1385353562-1.7969710924-1.9424007895-2.4782403312-.8036597358-.6808578442-1.7194244921-1.2559872965-2.746265782-1.724771265-1.0272526847-.4689896658-2.0763092706-.8818239816-3.1479925475-1.2391200392-1.0718889741-.3568846631-2.1215626282-.6919654191-3.1481981728-1.0048308737-1.0272526366-.3124540601-1.9424002321-.6639906038-2.7462655763-1.0550210256-.8038653439-.3902076328-1.4516064255-.8538491922-1.9424004551-1.3896904947-.4914111217-.5360469998-.7368082599-1.205797225-.7368085068-2.0094563729-.0000001852-.6028986339.1339086132-1.1665091012.4017263951-1.6914484936.2680234794-.5243223007.6530887684-.9822043971,1.1556072621-1.3730291975.5023127964-.3904134059,1.1161135811-.6917599098,1.8418137488-.9042452091.7252887731-.2118682076,1.5349134901-.3182137318,2.4282570592-.3182137837,1.093692783-.0000000635,2.0481284995.1172473125,2.8633071495.3517421278.8147672552.2342891181,1.5240117813.4969644627,2.126705091.7869975474.6028990072.2904444792,1.1272216199.5525027427,1.5742020225.7869975795.4463633105.2344948368.8591979178.3517422442,1.2391209139.3517422221.3348752775-.0000000194.6138008567-.0670573385.8371881321-.2009662599.2229758807-.1341146186.4239421183-.3568847499.6028987122-.6699559718l1.6075239482-2.6121494457c-1.272649864-1.2726487995-2.8466462561-2.2774797646-4.7221948735-3.0142871981-1.8755486174-.7368074334-3.9633767816-1.1052110834-6.2628674006-1.1052109499-2.0318783732.000000118-3.8237078608.2737832591-5.3752827657.8205266344-1.5519862994.547360467-2.8581642117,1.2895162137-3.9183280394,2.2272900289-1.0607809198.937568118-1.8644401137,2.0209755698-2.4113889767,3.2485767777-.5473602576,1.2282182996-.8205259338,2.5232881889-.8205255156,3.8847982735.0000004596,1.4962417819.2453977813,2.7631311181.7368090572,3.8012851003.4907941839,1.0381539822,1.1438835251,1.9205951382,1.9592680232,2.6458835873.8147674062.7256998436,1.7414341285,1.3228389008,2.7797944697,1.7916228687,1.0381546439.4689896652,2.093176453.8822353751,3.1648597297,1.2391200382,1.0716832769.3575017548,2.1267050619.6923768133,3.1648596578,1.0048308727,1.038154596.3128654539,1.9644098498.6697501254,2.7797942486,1.0716825007.8147673067.4019323753,1.4676508271.8822354115,1.9590619555,1.4400863195.4909997338.5582623026.7368082805,1.2726488306.7368085479,2.1433652814.000000052.1692888351-.0093848383.3355436364-.0261748337.4994329197l6.5992722127-.0000003832c.0831144074-.5731753864.12502506-1.1637836121.1250248731-1.7720817988-.0000004252-1.3841367818-.2458091142-2.5619592096-.7368089749-3.5332615862Z"/>
      <path class="cls-1" d="M149.0657908692,34.0432981551c-.491205558-.9710966793-1.1385353562-1.7969710925-1.9424007895-2.4782403312-.8036597358-.6808578442-1.7194244921-1.2559872965-2.746265782-1.7247712651-1.0272526846-.4689896658-2.0763092706-.8818239816-3.1479925475-1.2391200392-1.0718889741-.356884663-2.1215626282-.6919654191-3.1481981728-1.0048308737-1.0272526366-.3124540601-1.9424002322-.6639906037-2.7462655763-1.0550210256-.8038653439-.3902076328-1.4516064255-.8538491922-1.9424004551-1.3896904947-.4914111217-.5360469998-.7368082599-1.205797225-.7368085068-2.009456373-.0000001852-.6028986339.1339086132-1.1665091012.4017263951-1.6914484936.2680234794-.5243223007.6530887684-.9822043971,1.1556072621-1.3730291975.5023127964-.3904134059,1.1161135811-.6917599098,1.8418137487-.9042452091.7252887731-.2118682075,1.5349134901-.3182137318,2.4282570592-.3182137837,1.093692783-.0000000635,2.0481284995.1172473125,2.8633071495.3517421279.8147672553.2342891182,1.5240117813.4969644627,2.126705091.7869975474.6028990072.2904444792,1.1272216199.5525027427,1.5742020225.7869975794.4463633105.2344948368.8591979178.3517422442,1.2391209139.3517422222.3348752775-.0000000194.6138008567-.0670573385.8371881321-.2009662599.2229758807-.1341146186.4239421183-.3568847499.6028987122-.6699559717l1.6075239482-2.6121494458c-1.272649864-1.2726487994-2.8466462561-2.2774797646-4.7221948735-3.014287198s-3.9633767816-1.1052110834-6.2628674006-1.1052109499c-2.0318783732.000000118-3.8237078608.2737832591-5.3752827657.8205266344-1.5519862994.547360467-2.8581642117,1.2895162137-3.9183280394,2.2272900289-1.0607809198.937568118-1.8644401137,2.0209755699-2.4113889767,3.2485767777-.5473602576,1.2282182996-.8205259338,2.5232881889-.8205255156,3.8847982734.0000004596,1.496241782.2453977813,2.7631311182.7368090572,3.8012851003.4907941839,1.0381539822,1.1438835251,1.9205951382,1.9592680232,2.6458835873.8147674062.7256998437,1.7414341285,1.3228389008,2.7797944698,1.7916228687,1.0381546439.4689896652,2.093176453.8822353752,3.1648597297,1.2391200382,1.0716832769.3575017548,2.1267050619.6923768133,3.1648596578,1.0048308727,1.038154596.312865454,1.9644098498.6697501255,2.7797942486,1.0716825007.8147673067.4019323753,1.4676508271.8822354115,1.9590619555,1.4400863195.4909997338.5582623026.7368082805,1.2726488306.7368085479,2.1433652814.000000052.1692888351-.0093848383.3355436363-.0261748337.4994329197l6.5992850688-.0000003832c.0831015513-.5731753864.1250122039-1.1637836121.125012017-1.7720817988-.0000004252-1.3841367818-.2458091142-2.5619592096-.7368089749-3.5332615862Z"/>
      <path class="cls-1" d="M187.9148190196,31.1129329044c-.0000008298-2.7012162608-.3910322301-5.1350260764-1.1722714115-7.3010180525-.7818562732-2.1653748844-1.892211107-4.0073936757-3.3322986854-5.5260563741-1.4400875782-1.5180456067-3.1817273577-2.6901084247-5.2245079441-3.5163941513-2.0429862835-.8258743321-4.3262269393-1.2393256681-6.8488991775-1.2393255216-2.5452989462.0000001477-4.8394413072.4134517495-6.8824270834,1.2393263188-2.042985776.8262859638-3.7901786639,1.9983489844-5.241372966,3.516394759-1.4516056967,1.5186628663-2.5677189244,3.360681787-3.3489567753,5.526056762-.7818549427,2.1659920669-1.1722677558,4.5998019279-1.172266926,7.3010181887.0000008299,2.7016276553.3904151382,5.1356431682,1.1722714115,7.3010180526.1151391869.3191906979.2398690097.6293307163.3695612794.9346882734l7.7018485498-.0000004472c-1.2269852822-2.0174785372-1.8420726073-4.7500635926-1.8420736677-8.2021776572-.0000011796-3.8399562257.7586097181-6.8038479162,2.2772725743-8.8918807689,1.5180457644-2.0874157609,3.8399570733-3.1313294293,6.9661453216-3.1313296108,3.0811405297-.0000001789,5.3752833384,1.0439132215,6.8822227286,3.1313288068,1.5071450877,2.088032677,2.26082107,5.0519242797,2.2608222495,8.8918805054.0000010604,3.4521140646-.6110734876,6.1846991912-1.8288782864,8.2021778703l7.7221611626-.0000004483c.129512097-.3053575722.2541388806-.6154976051.36938072-.9346883164.7812378509-2.1653749751,1.1722677559-4.5993905334,1.172266926-7.3010181887Z"/>
    </g>
  </g>
</svg>