<?xml version="1.0" encoding="UTF-8"?>
<svg id="Layer_2" xmlns="http://www.w3.org/2000/svg" version="1.1" viewBox="0 0 661.1 72.7">
  <!-- Generator: Adobe Illustrator 29.0.0, SVG Export Plug-In . SVG Version: 2.1.0 Build 186)  -->
  <defs>
    <style>
      .st0 {
        fill: #fff;
      }
    </style>
  </defs>
  <g>
    <path class="st0" d="M249.2,20.3V7.4h6.6v31.4h-6.6v-12.7h-13.4v11.2h-28.4V9.9h6.6v8.5h15.2v-8.5h6.6v10.4h13.4ZM213.9,65.2v-23.2h6.6v6.2h28.4v-6.2h6.6v23.2h-41.7,0ZM229.2,23.8h-15.2v8.1h15.2v-8.1ZM249,53.7h-28.4v6h28.4v-6Z"/>
    <path class="st0" d="M297.8,45.4v20.5h-6.8v-20.5h-25.8v-5.6h58.5v5.6h-25.8ZM273.1,33V10h42.7v23h-42.7ZM309.1,15.6h-29.4v11.8h29.4v-11.8Z"/>
    <path class="st0" d="M374.1,20.3V7.4h6.6v31.4h-6.6v-12.7h-13.4v11.2h-28.4V9.9h6.6v8.5h15.2v-8.5h6.6v10.4h13.4ZM338.8,65.2v-23.2h6.6v6.2h28.4v-6.2h6.6v23.2h-41.7,0ZM354.1,23.8h-15.2v8.1h15.2v-8.1ZM373.9,53.7h-28.4v6h28.4v-6Z"/>
    <path class="st0" d="M420.8,34.8c-3,2.9-6.9,4.3-11.7,4.3s-8.6-1.5-11.6-4.3c-3-2.9-4.5-6.4-4.5-10.5s1.5-7.6,4.5-10.6c3-2.9,6.9-4.4,11.6-4.4s8.6,1.5,11.7,4.4c3,2.9,4.5,6.5,4.5,10.6s-1.5,7.6-4.5,10.5ZM416.1,17.8c-1.6-1.8-3.9-2.7-6.9-2.7s-5.3.9-6.9,2.7c-1.6,1.8-2.4,4-2.4,6.5s.8,4.6,2.4,6.4,3.9,2.7,6.9,2.7,5.3-.9,6.9-2.7c1.6-1.8,2.4-3.9,2.4-6.4s-.8-4.7-2.4-6.5ZM402.1,64.6v-18.5h6.8v13h36.6v5.6h-43.4ZM437.6,49.7V7.4h6.6v42.3h-6.6Z"/>
    <path class="st0" d="M513.2,51.8c-3.8.4-8,.7-12.6.7-3.6,0-8.4.1-14.5.1V14.1h28.6v5.7h-21.9v27.2c4.5,0,8,0,10.6,0,3,0,6.3-.3,10.1-.7,3.7-.3,6-.6,6.9-.8v5.5c-.8.1-3.2.4-7,.9h0ZM531.4,7.4v23.4h8.8v5.8h-8.8v29.2h-6.6V7.4h6.6Z"/>
    <path class="st0" d="M580.8,54.3c-2.6-1.7-5.4-4.1-8.5-7.2s-5.1-6.2-6-9.2c-1.2,3.9-3.4,7.4-6.4,10.6-3,3.1-6.1,5.7-9.1,7.6l-5.5-4.5c6.7-3.8,11.3-8.2,13.7-13.1s3.6-9.8,3.6-14.6v-4.4h-13.2v-5.8h33.9v5.8h-13.3v4.4c0,4.7,1.2,9.3,3.5,13.8,2.3,4.5,6.3,8.4,11.9,11.5l-4.6,5.1h0ZM592.6,65.9V7.4h6.6v58.5s-6.6,0-6.6,0Z"/>
    <path class="st0" d="M641.9,36.6c-4.5.4-8.5.6-11.9.6v10.2h-6.6v-10.1h-14.4v-5.5h18.5c4,0,8.8-.2,14.4-.7,5.6-.5,9.1-.9,10.5-1.2v5.5c-2.4.4-5.9.8-10.5,1.2h0ZM640.9,10c2.6,2.1,3.9,4.6,3.9,7.5s-1.3,5.4-4,7.5c-2.6,2.1-6.5,3.1-11.6,3.1s-9-1-11.6-3.2c-2.6-2.1-4-4.6-4-7.5s1.3-5.3,4-7.4c2.7-2.1,6.5-3.2,11.6-3.2s9.1,1,11.7,3.2h0ZM618.6,64.6v-14.8h6.6v9.2h37.4v5.6h-44ZM622.3,13.8c-1.4,1.3-2.1,2.5-2.1,3.7s.7,2.2,2.2,3.5,3.8,1.9,7,1.9,5.6-.6,7-1.9,2.1-2.4,2.1-3.5-.7-2.4-2.2-3.6c-1.4-1.3-3.8-1.9-7.1-1.9s-5.6.6-7,1.9h0ZM654.5,52.3v-6.4h-13.8v-5.3h13.8V7.4h6.6v44.9s-6.6,0-6.6,0Z"/>
  </g>
  <path class="st0" d="M176.5,1c-4.7,0-8.4,3.8-8.4,8.5.1,10.4.2,27.5-.1,35.9-.3,7.1-6.1,14.6-13.7,14-6.2-.5-11.6-6.2-12-12.4-.2-3.5-.2-25.5-.2-37.9,0-4.7-3.8-8.4-8.4-8.4h-.5c-4.6,0-8.4,3.8-8.4,8.4v7.5c0,3.8,0,7.7,0,11.4,0,5.4,0,11.1,0,16.7,0,1.9-.1,3.8-.6,5.7-.9,2.2-2.2,4.3-3.9,5.9-3.7,2.8-9.2,3.6-13.4,1.7-2.2-1.2-4.1-3-5.4-5.2-1-1.6-1.8-3.9-1.9-5.8-.2-3.5-.2-25.5-.2-37.9,0-4.7-3.8-8.4-8.4-8.4h-.5c-4.7,0-8.4,3.8-8.4,8.4v7.5c0,3.8,0,7.7,0,11.4,0,5.4,0,11.1,0,16.7,0,3.4-.3,7.1-2.6,9.8-4.2,4.9-11.1,3.8-16.1-.5-.6-.5-1.2-1-1.7-1.5,1.7-4,2.7-8.5,2.7-13.1v-5.8c0-18.5-15-33.5-33.5-33.5H0v72.7h30.3c8.9,0,16.9-3.5,22.9-9.1,1,.9,2.3,1.9,3.1,2.5,4.8,3.4,9.2,6.4,21.2,6.4s7.3-.8,10.5-2.5c.8-.4,7.3-5.1,7.3-5.1,0,0,10.5,5.4,16.1,6.9,2.9.8,6.1,1,9.2.7,3.6,0,7.2-.8,10.3-2.5.8-.4,7.3-5.1,7.3-5.1,0,0,10.5,5.4,16.1,6.9,13.2,3.4,30.4-4.5,30.4-19.6V9.4c0-4.7-3.8-8.4-8.4-8.4ZM46.7,38.9c0,12.3-3.8,22.4-16.1,22.4h-12.7V11.5h12.7c12.2,0,16.1,10,16.1,22.4v5Z"/>
</svg>