<svg xmlns="http://www.w3.org/2000/svg" viewBox="0 0 926.04407 198.59371"><defs><style>.cls-1{fill:#fff;}.cls-2{fill:#e74e1b;}.cls-3{fill:#379dd5;}</style></defs><g id="Layer_2" data-name="Layer 2"><g id="로고"><g id="로고원본"><path class="cls-1" d="M186.83639,51.73043A99.43746,99.43746,0,0,0,107.1055.01524l-1.5338,19.83182a79.54649,79.54649,0,0,1,63.78173,41.37022Z"/><path class="cls-1" d="M91.97057,0A99.43722,99.43722,0,0,0,19.21183,157.90714L35.25971,146.1549A79.54637,79.54637,0,0,1,93.46424,19.83475Z"/><path class="cls-2" d="M179.46566,158.1757a99.43706,99.43706,0,0,0,14.096-91.08805l-18.8282,6.415a79.54536,79.54536,0,0,1-11.2761,72.86706Z"/><path class="cls-2" d="M133.1835,192.69227a99.437,99.437,0,0,0,36.33176-22.98849l-14.01815-14.112a79.54355,79.54355,0,0,1-29.064,18.3903Z"/><path class="cls-2" d="M76.59971,195.93693a99.46538,99.46538,0,0,0,43.9467.39055l-4.22263-19.43754a79.54863,79.54863,0,0,1-35.15559-.31324Z"/><path class="cls-3" d="M30.39885,170.721A99.43949,99.43949,0,0,0,63.5603,191.89621l7.1768-18.55134A79.54139,79.54139,0,0,1,44.20917,156.4057Z"/><path class="cls-1" d="M335.88747,58.1539H280.03138l-4.47627,28.22h51.37983l-4.08708,25.30067H271.46808L266.408,143.59229h57.0238l-4.087,26.07916H227.87306l21.99213-137.5967H339.9745Zm69.32735-26.07915q24.1347,0,36.1994,8.17406,12.07,8.17406,12.06649,26.663a92.49758,92.49758,0,0,1-.77849,9.34178Q449.199,100.581,434.60249,113.2315q-14.40013,12.65016-41.45415,12.65033H377.18948l-7.00633,43.78962H335.73532l21.9921-137.5967Zm12.845,46.51429a31.13294,31.13294,0,0,0,.38925-3.8924q0-7.20114-4.67092-11.09336-4.67092-4.087-13.03957-4.087H387.699l-6.22789,38.9241h13.03962q9.53815,0,15.76421-5.06014Q416.69744,88.12546,418.05979,78.589Zm54.37343-46.51429H506.6864l-21.79746,137.5967H450.44111Zm90.80283,140.71062q-16.34812,0-28.60918-6.8117a46.64408,46.64408,0,0,1-18.68362-19.46206q-6.42243-12.65016-6.42243-29.77694a89.31783,89.31783,0,0,1,1.36232-15.76426q3.31206-21.40808,14.0127-37.75638A75.12757,75.12757,0,0,1,551.36422,38.108a69.26694,69.26694,0,0,1,34.44783-8.95254q16.34812,0,28.41459,6.81172a45.11507,45.11507,0,0,1,18.68356,19.462q6.61884,12.65016,6.61708,29.77694a88.98211,88.98211,0,0,1-1.36232,15.76426q-3.30678,21.40809-14.0127,37.75638a76.28218,76.28218,0,0,1-26.663,25.30066A69.3668,69.3668,0,0,1,563.23605,172.78537Zm4.087-27.24686q13.62521,0,23.15983-11.87185,9.53817-11.87205,13.23422-32.69625a79.32386,79.32386,0,0,0,1.36232-14.40192q0-14.20747-6.22783-22.18674-6.02972-7.97926-17.1266-7.97943-13.61994,0-23.35448,11.87185-9.53289,11.872-13.03957,32.69624a80.65909,80.65909,0,0,0-1.36232,14.59653q0,14.20749,6.03319,22.18674Q556.23329,145.5387,567.32308,145.53851ZM791.8833,169.67145H760.35476L774.36752,81.703h-2.33546q-1.948,4.47609-11.4827,24.91142-4.86724,10.50951-12.06638,26.27377-7.20286,15.76425-16.54281,36.78328H702.16326q-7.78658-55.272-12.06649-88.55234h-2.9193l-14.0127,88.55234H642.22013l21.79751-137.5967h49.43361l2.33546,22.576Q718.706,81.50837,720.263,98.82958q1.5552,17.32105,1.94617,35.0317h1.94621q6.22611-17.71065,13.42881-35.42094,7.39385-17.71065,18.09967-42.42727l10.31492-23.93832h47.68205ZM921.957,58.1539h-55.8561l-4.47622,28.22H913.0045l-4.087,25.30067H857.5377l-5.06022,31.91775h57.02389l-4.087,26.07916H813.94268l21.9921-137.5967h90.10929Z"/></g></g></g></svg>