<svg xmlns="http://www.w3.org/2000/svg" viewBox="0 0 788.23934 787.12501"><defs><style>.cls-1{fill:#172346;}.cls-2{fill:#e74e1b;}.cls-3{fill:#379dd5;}</style></defs><g id="Layer_2" data-name="Layer 2"><g id="로고"><path class="cls-1" d="M740.525,205.03325A394.11977,394.11977,0,0,0,424.512.06042L418.43282,78.6637A315.282,315.282,0,0,1,671.23133,242.63433Z"/><path class="cls-1" d="M364.52482,0A394.11884,394.11884,0,0,0,76.146,625.864l63.6057-46.57993A315.28156,315.28156,0,0,1,370.445,78.61492Z"/><path class="cls-2" d="M711.31111,626.92849a394.11829,394.11829,0,0,0,55.86947-361.027l-74.62544,25.4257a315.27778,315.27778,0,0,1-44.69276,288.80819Z"/><path class="cls-2" d="M527.872,763.73467A394.11828,394.11828,0,0,0,671.87277,672.62l-55.56089-55.933a315.26955,315.26955,0,0,1-115.19507,72.88985Z"/><path class="cls-2" d="M303.60251,776.59488A394.23025,394.23025,0,0,0,477.785,778.14281l-16.73635-77.04056a315.29062,315.29062,0,0,1-139.339-1.24153Z"/><path class="cls-3" d="M120.48568,676.65185a394.12792,394.12792,0,0,0,131.4352,83.92767l28.44521-73.52813a315.26235,315.26235,0,0,1-105.1433-67.1383Z"/></g></g></svg>