<?xml version="1.0" encoding="UTF-8"?>
<svg id="Layer_2" data-name="Layer 2" xmlns="http://www.w3.org/2000/svg" viewBox="0 0 633 120.53">
  <defs>
    <style>
      .cls-1 {
        fill: #814718;
      }
    </style>
  </defs>
  <g id="Layer_1-2" data-name="Layer 1">
    <g>
      <path class="cls-1" d="M0,1.19h.21c-.14-.09-.21-.09-.21,0Z"/>
      <path class="cls-1" d="M.24,72.33h-.24c0,.1.08.1.24,0Z"/>
      <path class="cls-1" d="M56.02,6.17c-5.19-3.32-12.7-4.98-22.52-4.98H.21c.1.07.25.18.43.36.43.4.8,1.11,1.12,2.13.32,1.03.48,2.57.48,4.62v56.91c0,2.06-.16,3.62-.48,4.68-.32,1.07-.69,1.78-1.12,2.13-.17.14-.3.24-.4.3h33.27c9.75,0,17.22-1.72,22.41-5.16,5.19-3.44,8.66-7.73,10.4-12.86,1.74-5.14,2.61-10.95,2.61-17.43,0-6.88-.85-12.88-2.56-18.02-1.71-5.14-5.16-9.37-10.35-12.69ZM56.98,37.7c0,8.85-1.97,15.24-5.92,19.15-3.95,3.91-10.44,5.87-19.47,5.87h-13.13c-1.57,0-2.6-.06-3.09-.18-.5-.12-.82-.39-.96-.83-.14-.43-.21-1.28-.21-2.55V14.23c0-1.19.07-1.97.21-2.37.14-.39.46-.65.96-.77.5-.12,1.53-.18,3.09-.18h13.13c6.47,0,11.52.79,15.15,2.37,3.63,1.58,6.24,4.13,7.84,7.65,1.6,3.52,2.4,8.4,2.4,14.64v2.13Z"/>
      <path class="cls-1" d="M87.77,69.9c-.32,1.07-.69,1.78-1.12,2.13-.17.14-.3.24-.4.3h62.08v-3.68l2.13-10.67c0,.16-.55.63-1.65,1.42-1.1.79-2.76,1.54-4.96,2.25-2.21.71-4.98,1.07-8.32,1.07h-31.05c-1.57,0-2.6-.06-3.09-.18-.5-.12-.82-.39-.96-.83-.14-.43-.21-1.32-.21-2.67v-14.7c0-1.26.07-2.11.21-2.55.14-.43.46-.71.96-.83.5-.12,1.53-.18,3.09-.18h30.41c0-1.42.16-3,.48-4.74.32-1.74.64-3.26.96-4.56.32-1.3.55-2.15.69-2.55,0,.08-.55.32-1.65.71-1.1.4-2.76.77-4.96,1.13-2.21.36-4.98.53-8.32.53h-17.61c-1.57,0-2.6-.06-3.09-.18-.5-.12-.82-.39-.96-.83-.14-.43-.21-1.28-.21-2.55v-13.52c0-1.19.07-2.02.21-2.49.14-.47.5-.77,1.07-.89.57-.12,1.6-.18,3.09-.18h18.03c5.12,0,9.59.32,13.39.95,3.8.63,6.79,1.32,8.96,2.07,2.17.75,3.25,1.17,3.25,1.24l-2.13-11.38V1.19h-59.87c.1.07.25.18.43.36.43.4.8,1.11,1.12,2.13.32,1.03.48,2.57.48,4.62v56.91c0,2.06-.16,3.62-.48,4.68Z"/>
      <path class="cls-1" d="M86.01,1.19h.21c-.14-.09-.21-.09-.21,0Z"/>
      <path class="cls-1" d="M86.25,72.33h-.24c0,.1.08.1.24,0Z"/>
      <path class="cls-1" d="M229,53.36c0-4.66-1-8.46-2.99-11.38-1.99-2.92-5.23-5.24-9.71-6.94-4.48-1.7-10.64-3.06-18.46-4.09-7.97-1.03-13.73-2.39-17.29-4.09-3.56-1.7-5.34-4.41-5.34-8.12,0-3.08,1.35-5.39,4.06-6.94,2.7-1.54,7.26-2.31,13.66-2.31s12.11.53,16.91,1.6c4.8,1.07,8.61,2.21,11.42,3.44,2.81,1.23,4.21,1.92,4.21,2.07l-3.2-10.67v-2.37c0-.08-1.35-.43-4.05-1.07-2.7-.63-6.35-1.2-10.94-1.72-4.59-.51-9.91-.77-15.95-.77-9.25,0-16.24,1.8-20.97,5.39-4.73,3.6-7.1,8.28-7.1,14.05,0,4.43.96,8.04,2.88,10.85,1.92,2.81,5,5.06,9.23,6.76,4.23,1.7,9.91,3.06,17.02,4.09,5.98.79,10.69,1.64,14.14,2.55,3.45.91,6.06,2.12,7.84,3.62,1.78,1.5,2.67,3.48,2.67,5.93s-.59,4.33-1.76,5.87c-1.17,1.54-3.29,2.75-6.35,3.62-3.06.87-7.4,1.3-13.02,1.3-7.97,0-14.44-.67-19.42-2.02-4.98-1.34-8.61-2.79-10.88-4.33-2.28-1.54-3.41-2.47-3.41-2.79l2.13,12.69v2.37c0,.08,1.53.44,4.59,1.07,3.06.63,7.06,1.21,12.01,1.72,4.94.51,10.58.77,16.91.77,10.1,0,17.82-1.78,23.16-5.34,5.34-3.56,8-8.5,8-14.82Z"/>
      <path class="cls-1" d="M259.68,3.62c.32-1.07.69-1.78,1.12-2.13.17-.14.3-.24.4-.3h-15.99c.1.07.25.18.43.36.43.4.8,1.11,1.12,2.13.32,1.03.48,2.57.48,4.62v56.91c0,2.06-.16,3.62-.48,4.68-.32,1.07-.69,1.78-1.12,2.13-.17.14-.3.24-.4.3h15.95c-.1-.06-.23-.16-.4-.3-.43-.36-.8-1.07-1.12-2.13-.32-1.07-.48-2.63-.48-4.68V8.42c0-2.13.16-3.73.48-4.8Z"/>
      <path class="cls-1" d="M261.44,72.33h-.24c.16.1.24.1.24,0Z"/>
      <path class="cls-1" d="M261.2,1.19h.24c0-.1-.08-.1-.24,0Z"/>
      <path class="cls-1" d="M245.01,1.19h.21c-.14-.09-.21-.09-.21,0Z"/>
      <path class="cls-1" d="M245.25,72.33h-.24c0,.1.08.1.24,0Z"/>
      <path class="cls-1" d="M347.55,72.33h-.22c.15.1.22.1.22,0Z"/>
      <path class="cls-1" d="M345.9,37.35c.32-1.03.68-1.74,1.07-2.13.17-.17.3-.29.4-.36h-33.42v2.37l-1.07,9.37c0-.08.5-.34,1.49-.77,1-.43,2.52-.83,4.59-1.19,2.06-.36,4.73-.53,8-.53h3.41c1.21,0,1.99.06,2.35.18.36.12.59.38.69.77.11.4.16,1.27.16,2.61v3.08c0,3.95-1.53,7.13-4.59,9.54-3.06,2.41-8,3.62-14.83,3.62-8.25,0-14.26-2.27-18.03-6.82-3.77-4.54-5.66-11.24-5.66-20.1s2.06-15.16,6.19-20.1c4.13-4.94,10.35-7.41,18.67-7.41,5.62,0,10.49.53,14.62,1.6,4.12,1.07,7.36,2.21,9.71,3.44,2.35,1.23,3.52,1.92,3.52,2.07l-2.13-10.67v-2.37c0-.08-1.05-.43-3.15-1.07-2.1-.63-5.07-1.2-8.91-1.72-3.84-.51-8.47-.77-13.87-.77-12.45,0-21.66,3.3-27.64,9.9-5.98,6.6-8.96,15.63-8.96,27.09,0,12.17,2.74,21.3,8.22,27.39,5.48,6.09,13.16,9.13,23.05,9.13,6.69,0,11.84-.65,15.47-1.96,3.63-1.3,6.4-3.14,8.32-5.51l.21.24-.21,3.32v2.73h13.76c-.09-.06-.21-.16-.37-.3-.39-.36-.75-1.07-1.07-2.13s-.48-2.63-.48-4.68v-23.24c0-2.05.16-3.6.48-4.62Z"/>
      <path class="cls-1" d="M347.36,34.86h.19c0-.09-.06-.09-.19,0Z"/>
      <path class="cls-1" d="M417.13,1.19h.21c-.14-.09-.21-.09-.21,0Z"/>
      <path class="cls-1" d="M364.63,1.19h.21c-.14-.09-.21-.09-.21,0Z"/>
      <path class="cls-1" d="M364.87,72.33h-.24c0,.1.08.1.24,0Z"/>
      <path class="cls-1" d="M381.06,72.33h-.24c.16.1.24.1.24,0Z"/>
      <path class="cls-1" d="M432.92,72.03c-.43-.36-.8-1.07-1.12-2.13-.32-1.07-.48-2.63-.48-4.68V8.42c0-2.13.16-3.73.48-4.8.32-1.07.69-1.78,1.12-2.13.17-.14.3-.24.4-.3h-15.99c.1.07.25.18.43.36.43.4.8,1.11,1.12,2.13.32,1.03.48,2.57.48,4.62v44.46h-.21c-3.2-4.19-9.28-12.11-18.25-23.77-8.96-11.66-14.16-18.48-15.58-20.45-1.85-2.61-3.01-4.41-3.47-5.39-.46-.99-.69-1.64-.69-1.96h-16.33c.1.07.25.18.43.36.43.4.8,1.11,1.12,2.13.32,1.03.48,2.57.48,4.62v56.91c0,2.06-.16,3.62-.48,4.68-.32,1.07-.69,1.78-1.12,2.13-.17.14-.3.24-.4.3h15.95c-.1-.06-.23-.16-.4-.3-.43-.36-.8-1.07-1.12-2.13s-.48-2.63-.48-4.68V15.77h.32l36.17,49.21c1.85,2.53,3.02,4.33,3.52,5.39.5,1.07.75,1.72.75,1.96h13.74c-.1-.06-.23-.16-.4-.3Z"/>
      <path class="cls-1" d="M433.56,72.33h-.24c.16.1.24.1.24,0Z"/>
      <path class="cls-1" d="M433.32,1.19h.24c0-.1-.08-.1-.24,0Z"/>
      <path class="cls-1" d="M519.57,0h-3.31c-11.88,0-20.63,3.16-26.25,9.49-5.62,6.32-8.43,15.3-8.43,26.91,0,24.74,11.56,37.11,34.68,37.11h3.31c22.76,0,34.15-12.37,34.15-37.11,0-11.62-2.77-20.59-8.32-26.91-5.55-6.32-14.16-9.49-25.82-9.49ZM539.31,52.64c-1.64,4.03-4.15,6.92-7.52,8.66-3.38,1.74-7.81,2.61-13.29,2.61h-1.17c-8.18,0-14.19-2.09-18.03-6.28-3.84-4.19-5.76-11.26-5.76-21.22s1.9-16.54,5.71-20.69c3.81-4.15,9.83-6.22,18.09-6.22h1.17c8.04,0,13.93,2.04,17.66,6.11,3.73,4.07,5.6,11.01,5.6,20.81,0,6.8-.82,12.21-2.45,16.24Z"/>
      <path class="cls-1" d="M571.03,72.33h-.24c0,.1.08.1.24,0Z"/>
      <path class="cls-1" d="M630.87,3.56V1.19h-59.87c.1.07.25.18.43.36.43.4.8,1.11,1.12,2.13.32,1.03.48,2.57.48,4.62v56.91c0,2.06-.16,3.62-.48,4.68s-.69,1.78-1.12,2.13c-.17.14-.3.24-.4.3h15.95c-.1-.06-.23-.16-.4-.3-.43-.36-.8-1.05-1.12-2.07-.32-1.03-.48-2.61-.48-4.74v-20.87c0-1.26.07-2.11.21-2.55.14-.43.46-.71.96-.83.5-.12,1.53-.18,3.09-.18h30.41c0-1.42.16-3,.48-4.74.32-1.74.64-3.26.96-4.56.32-1.3.55-2.15.69-2.55,0,.08-.55.32-1.65.71-1.1.4-2.76.77-4.96,1.13-2.21.36-4.98.53-8.32.53h-17.61c-1.57,0-2.6-.06-3.09-.18-.5-.12-.82-.39-.96-.83-.14-.43-.21-1.28-.21-2.55v-13.52c0-1.19.07-2.02.21-2.49.14-.47.5-.77,1.07-.89.57-.12,1.6-.18,3.09-.18h18.03c5.12,0,9.59.32,13.39.95,3.81.63,6.79,1.32,8.96,2.07,2.17.75,3.25,1.17,3.25,1.24l-2.13-11.38Z"/>
      <path class="cls-1" d="M587.22,72.33h-.24c.16.1.24.1.24,0Z"/>
      <path class="cls-1" d="M570.79,1.19h.21c-.14-.09-.21-.09-.21,0Z"/>
      <path class="cls-1" d="M90.62,100.52s-.07.01-.09.02h-4.24s-.04-.02-.09-.02c-.04,0-.12.02-.16.08-.04.06-.04.1-.04.13v.19h.18s.03.03.05.05h0c.07.07.17.23.25.49.08.24.12.65.12,1.2v15.43c0,.55-.04.96-.12,1.21h0c-.08.27-.18.44-.24.49h0s-.03.03-.05.04h-.2v.19s0,.09.05.14c.05.06.12.07.16.07.04,0,.07-.01.09-.02h4.24s.05.02.09.02c.04,0,.12-.02.16-.07.04-.05.05-.1.05-.14v-.19h-.2s-.03-.02-.05-.04h0c-.06-.05-.16-.21-.24-.49v-.05s0,.05,0,.05c-.08-.26-.12-.67-.12-1.21v-15.4c0-.57.04-.99.12-1.25h0c.08-.27.18-.44.24-.49h0s.03-.02.05-.04h.2v-.19s0-.08-.05-.14c-.04-.06-.12-.08-.16-.07Z"/>
      <path class="cls-1" d="M127.26,100.52s-.07.01-.09.02h-4.24s-.04-.02-.09-.02c-.04,0-.12.02-.16.08-.04.06-.04.1-.04.13v.19h.18s.03.03.05.05c.07.07.17.23.25.5.08.24.12.65.12,1.2v11.57c-.92-1.21-2.47-3.23-4.66-6.07-2.43-3.16-3.84-5.01-4.22-5.54h0c-.5-.7-.81-1.19-.92-1.43h0c-.06-.13-.11-.24-.13-.32-.01-.04-.02-.07-.03-.1v-.04s0-.19,0-.19h-4.58s-.04-.02-.09-.02c-.04,0-.12.02-.16.08-.04.06-.04.1-.04.13v.19h.18s.03.03.05.05c.07.07.17.23.25.49.08.24.12.65.12,1.2v15.43c0,.55-.04.96-.12,1.21-.08.27-.18.44-.24.49h0s-.03.02-.05.04h-.2v.19s0,.08.05.14c.05.06.12.07.16.07.04,0,.07-.01.09-.02h4.24s.05.02.09.02c.04,0,.12-.02.16-.07.04-.05.05-.1.05-.14v-.19h-.2s-.03-.02-.05-.04h0c-.06-.05-.16-.21-.24-.49-.08-.26-.12-.67-.12-1.21v-12.94l9.55,12.99c.5.68.81,1.17.93,1.43h0c.07.14.12.26.15.34.02.04.03.07.03.09v.02s0,0,0,0v.19h3.87s.05.02.09.02c.04,0,.12-.02.16-.07.04-.05.05-.1.05-.14v-.19h-.2s-.03-.02-.05-.04c-.06-.05-.16-.21-.24-.49l-.18.06.18-.06c-.08-.26-.12-.67-.12-1.21v-15.4c0-.57.04-.99.12-1.25.08-.27.18-.44.24-.49h0s.03-.03.05-.04h.2v-.19s0-.08-.05-.14c-.04-.06-.12-.08-.16-.07ZM126.98,100.66s0,0,0,0h0s0,0,0,0Z"/>
      <path class="cls-1" d="M161.85,104.42l-.58-3.07v-.82h-17.11v.82l-.58,3.07h0s0,.02,0,.04l.27.03.03.02.06.04h0s.05-.05.12-.1c.07-.05.16-.11.27-.18.27-.18.71-.36,1.29-.52.57-.16,1.31-.25,2.2-.25h2.11c.42,0,.7.02.79.04.04.01.07.02.08.04l.04.06c.03.07.05.3.05.63v13.83c0,.55-.04.96-.12,1.21-.08.27-.18.44-.24.49h0s-.03.02-.05.04h-.2v.19s0,.08.05.14c.05.06.12.07.16.07.04,0,.07-.01.09-.02h4.24s.05.02.09.02c.04,0,.12-.02.16-.07.04-.05.05-.1.05-.14v-.19h-.2s-.03-.02-.05-.04c-.06-.05-.16-.21-.24-.49-.08-.26-.12-.67-.12-1.21v-13.83c0-.33.02-.56.05-.63l.04-.06s.05-.03.1-.04c.11-.03.39-.04.81-.04h2.08c.89,0,1.63.09,2.2.25.59.17,1.02.35,1.29.52.15.09.26.17.32.22l.06.05h0s.08-.06.08-.06l.28-.03s0-.02,0-.03h0Z"/>
      <path class="cls-1" d="M195.54,116.1l-.03-.02-.05-.04s-.04.04-.11.1c-.07.06-.16.13-.28.21-.27.2-.71.4-1.29.58-.57.18-1.31.28-2.2.28h-8.42c-.42,0-.7-.02-.79-.04-.04-.01-.07-.02-.09-.04l-.04-.06s-.03-.11-.03-.22c0-.11-.01-.26-.01-.44v-3.99c0-.33.02-.56.05-.63l.04-.06s.04-.03.09-.04c.1-.02.38-.04.79-.04h8.44v-.19c0-.37.04-.79.13-1.25.09-.47.17-.88.26-1.23.08-.34.15-.57.18-.66,0,0,0,0,0,0,0,0,0,0,0,0h0s.01-.04.01-.07v-1.1l-.35.97s-.05.02-.08.04c-.07.03-.16.06-.27.1-.28.1-.72.2-1.31.3-.58.09-1.33.14-2.23.14h-4.78c-.42,0-.7-.02-.79-.04-.04-.01-.07-.02-.09-.04l-.04-.06c-.03-.07-.05-.3-.05-.63v-3.67c0-.31.02-.53.05-.62l.04-.06s.05-.03.1-.04c.12-.03.4-.04.8-.04h4.89c1.38,0,2.58.09,3.6.25,1.03.17,1.83.36,2.4.55.29.1.51.18.66.24.07.03.12.05.15.06h.02s0,0,0,0l.09-.13.22-.02s0-.02,0-.03h0s-.58-3.07-.58-3.07v-.82h-16.38s-.04-.02-.09-.02c-.04,0-.12.02-.16.08-.04.06-.04.1-.04.13v.19h.18s.03.03.05.05c.07.07.17.23.25.49.08.24.12.65.12,1.2v15.43c0,.55-.04.96-.12,1.21-.08.27-.18.44-.24.49h0s-.03.03-.05.04h-.2v.19s0,.08.05.14c.05.06.12.07.16.07.04,0,.07-.01.09-.02h16.98v-1.17l.57-2.88h0s0-.02,0-.04l-.28-.03Z"/>
      <path class="cls-1" d="M231.74,119.72c-.17-.09-.42-.3-.72-.62-.29-.31-.61-.79-.96-1.42h0s0,0,0,0h0c-1.56-2.8-3.34-4.62-5.36-5.41,1.37-.29,2.43-.91,3.14-1.86.8-1.05,1.2-2.28,1.2-3.67,0-2.02-.53-3.59-1.62-4.64-1.1-1.06-2.95-1.56-5.52-1.57h-9.39s-.04-.02-.09-.02c-.04,0-.12.02-.16.08-.04.06-.04.1-.04.13v.19h.18s.03.03.05.05c.07.07.17.23.25.49.08.24.12.65.12,1.2v15.43c0,.55-.04.96-.12,1.21-.08.27-.18.44-.23.49l-.04.03h-.19v.19s0,.08.04.13c.04.06.12.08.16.08.04,0,.07-.01.09-.02h4.21s.05.02.09.02c.04,0,.12-.02.16-.07.04-.05.05-.1.05-.14v-.19h-.2s-.03-.02-.05-.04c-.06-.05-.16-.21-.24-.49-.08-.26-.12-.67-.12-1.21v-4.21c0-.31.02-.53.05-.6l.04-.06s.06-.04.12-.06c.12-.03.39-.06.79-.06h.32c2.17,0,3.93.47,5.3,1.4,1.38.93,2.38,2.2,3.02,3.82.15.44.22.75.22.9,0,.21-.05.34-.1.41-.08.1-.15.15-.2.16v.04s.01,0,.01,0v-.04c-.06.02-.09.03-.12.03h-.03s0,0,0,0h0v.38h6.03s.02,0,.04,0c.03,0,.06,0,.11-.03.05-.03.1-.1.09-.17v-.19h-.19s-.12-.05-.22-.11ZM224.37,109.29c-.72.56-1.83.86-3.35.86h-3.56c-.44,0-.73-.01-.84-.03h0s-.07-.02-.08-.03l-.03-.04h0s-.02-.1-.03-.19c0-.1-.01-.23-.01-.38v-5.31c0-.29.02-.49.05-.55l.03-.04s.04-.02.08-.03c.11-.02.4-.03.84-.03h3.85c1.5,0,2.57.27,3.2.76.31.25.55.57.71.97.16.41.24.9.24,1.48,0,1.16-.36,1.99-1.08,2.55Z"/>
      <path class="cls-1" d="M252.89,100.52s-.07.01-.09.02h-4.24s-.04-.02-.09-.02c-.04,0-.12.02-.16.08-.04.06-.04.1-.04.13v.19h.18s.03.03.05.05c.07.07.17.23.25.49.08.24.12.65.12,1.2v15.43c0,.55-.04.96-.12,1.21-.08.27-.18.44-.24.49-.02.02-.03.03-.05.04h-.2v.19s0,.08.05.14c.05.06.12.07.16.07.04,0,.07-.01.09-.02h4.24s.05.02.09.02c.04,0,.12-.02.16-.07.04-.05.05-.1.05-.14v-.19h-.2s-.03-.02-.05-.04c-.06-.05-.16-.21-.24-.49l-.18.06.18-.06c-.08-.26-.12-.67-.12-1.21v-15.4c0-.57.04-.99.12-1.25.08-.27.18-.44.24-.49.02-.02.03-.02.05-.04h.2v-.19s0-.08-.05-.14c-.04-.06-.12-.08-.16-.07Z"/>
      <path class="cls-1" d="M287.86,102.98l.14-.13c-1.55-1.77-3.95-2.64-7.15-2.64h-.9c-3.25,0-5.69.87-7.26,2.64-1.56,1.76-2.34,4.25-2.33,7.43,0,3.38.79,5.95,2.4,7.68,1.61,1.73,4.03,2.58,7.19,2.58h.9c3.12,0,5.5-.85,7.09-2.58,1.59-1.73,2.37-4.3,2.37-7.68,0-3.18-.76-5.67-2.31-7.43l-.14.13ZM286.04,114.61c-.43,1.06-1.08,1.8-1.95,2.25-.88.45-2.05.69-3.51.69h-.32c-2.19,0-3.76-.56-4.75-1.64-.99-1.08-1.51-2.95-1.51-5.63,0-2.59.52-4.41,1.5-5.48.98-1.07,2.55-1.63,4.76-1.63h.32c2.15,0,3.68.54,4.65,1.59.96,1.04,1.47,2.88,1.47,5.51,0,1.83-.22,3.27-.65,4.33Z"/>
      <polygon class="cls-1" points="325.42 117.67 325.42 117.68 325.42 117.68 325.42 117.67"/>
      <path class="cls-1" d="M327.1,119.72c-.17-.09-.42-.3-.72-.62-.29-.31-.61-.79-.96-1.42h0c-1.56-2.81-3.34-4.63-5.36-5.41,1.37-.29,2.43-.91,3.14-1.86.8-1.05,1.2-2.28,1.2-3.67,0-2.02-.53-3.59-1.62-4.64-1.1-1.06-2.95-1.56-5.52-1.57h-9.39s-.04-.02-.09-.02c-.04,0-.12.02-.16.08-.04.06-.04.1-.04.13v.19h.18s.03.03.05.05c.07.07.17.23.25.49.08.24.12.65.12,1.2v15.43c0,.55-.04.96-.12,1.21-.08.27-.18.44-.23.49l-.04.03h-.19v.19s0,.08.04.13c.04.06.12.08.16.08.04,0,.07-.01.09-.02h4.21s.05.02.09.02c.04,0,.12-.02.16-.07.04-.05.05-.1.05-.14v-.19h-.2s-.03-.02-.05-.04c-.06-.05-.16-.21-.24-.49-.08-.26-.12-.67-.12-1.21v-4.21c0-.31.02-.53.05-.6l.04-.06s.06-.04.12-.06c.12-.03.39-.06.79-.06h.32c2.17,0,3.93.47,5.3,1.4,1.38.93,2.38,2.2,3.02,3.82.15.44.22.75.22.9,0,.21-.05.34-.1.41-.08.1-.15.15-.2.16v.04s.01,0,.01,0v-.04c-.06.02-.09.03-.12.03h-.03s0,0,0,0h0v.38h6.03s.02,0,.04,0c.03,0,.06,0,.11-.03.05-.03.1-.1.09-.17v-.19h-.19s-.12-.05-.22-.11ZM319.72,109.29c-.72.56-1.83.86-3.35.86h-3.56c-.44,0-.73-.01-.84-.03-.05,0-.07-.02-.08-.03l-.03-.04s-.02-.1-.03-.19c0-.1-.01-.23-.01-.38v-5.31c0-.29.02-.49.05-.55l.03-.04s.04-.02.08-.03c.11-.02.4-.03.84-.03h3.85c1.5,0,2.57.27,3.19.76.31.25.55.57.71.97.16.41.24.9.24,1.48,0,1.16-.36,1.99-1.08,2.55Z"/>
      <path class="cls-1" d="M379.38,109.73c-1.24-.47-2.92-.84-5.05-1.12-2.15-.28-3.7-.65-4.63-1.09l-.08.17.08-.17c-.46-.22-.79-.5-1.01-.83-.22-.33-.33-.73-.33-1.2,0-.39.08-.72.25-1,.16-.28.41-.52.75-.71.68-.39,1.89-.6,3.61-.6,1.74,0,3.26.14,4.54.43,1.3.29,2.32.6,3.06.92.38.17.66.3.85.39.09.05.16.08.2.11h0s.36,1.2.36,1.2v-1.31s0-.04-.01-.05h0s-.86-2.87-.86-2.87v-.61c0-.07-.03-.11-.05-.13-.03-.04-.05-.04-.06-.05-.05-.02-.08-.03-.14-.05-.17-.05-.5-.13-1-.25-.75-.17-1.74-.33-2.99-.47-1.25-.14-2.7-.21-4.35-.21-2.53,0-4.47.49-5.8,1.5-1.33,1-2,2.35-2,3.96,0,1.23.27,2.25.82,3.05.55.8,1.42,1.43,2.59,1.9,1.17.47,2.72.84,4.66,1.12h0c1.62.21,2.89.44,3.81.69.92.24,1.6.56,2.05.94.44.38.65.84.66,1.46,0,.61-.15,1.1-.44,1.48-.28.37-.81.68-1.62.91-.8.23-1.96.35-3.48.35-2.15,0-3.89-.18-5.22-.54-1.34-.36-2.31-.75-2.89-1.15-.31-.21-.53-.37-.68-.49-.07-.06-.13-.11-.15-.14l-.02-.03-.05.03-.32.03s0,.02,0,.03h0s.58,3.43.58,3.43v.63c0,.08.04.12.06.14.04.03.05.04.07.05.05.02.08.03.15.05.19.05.56.13,1.13.25.84.17,1.93.33,3.27.47,1.35.14,2.88.21,4.61.21,2.76,0,4.89-.48,6.39-1.48.75-.5,1.31-1.1,1.69-1.8.38-.7.57-1.5.57-2.38,0-1.29-.28-2.36-.84-3.2-.57-.83-1.48-1.48-2.72-1.95Z"/>
      <path class="cls-1" d="M416.75,104.42l-.58-3.07v-.82h-17.11v.82l-.58,3.07h0s0,.02,0,.04l.27.03.03.02.06.04h0s.05-.05.12-.1c.07-.05.16-.11.27-.18.27-.18.71-.36,1.29-.52.57-.16,1.31-.25,2.2-.25h2.11c.42,0,.7.02.79.04.04.01.07.02.08.04l.04.06c.03.07.05.3.05.63v13.83c0,.55-.04.96-.12,1.21-.08.27-.18.44-.24.49-.02.02-.03.03-.05.04h-.2v.19s0,.09.05.14c.05.06.12.07.16.07.04,0,.07-.01.09-.02h4.24s.05.02.09.02c.04,0,.12-.02.16-.07.04-.05.05-.1.05-.14v-.19h-.2s-.03-.02-.05-.04c-.06-.05-.16-.21-.24-.49-.08-.26-.12-.67-.12-1.21v-13.83c0-.33.02-.56.05-.63l.04-.06s.05-.03.1-.04c.11-.03.39-.04.81-.04h2.08c.89,0,1.63.09,2.2.25.59.17,1.02.35,1.29.52.15.09.26.17.32.22l.06.05h0s.08-.06.08-.06l.28-.03s0-.02,0-.03h0Z"/>
      <path class="cls-1" d="M451.13,100.52s-.07,0-.09.02h-4.19s-.05-.02-.09-.02c-.04,0-.13.02-.17.08-.04.06-.04.1-.04.13v.19h.19s.02.02.04.03c.06.05.16.21.24.48.08.24.12.65.12,1.2v9c0,2.19-.43,3.71-1.24,4.58-.81.88-2.04,1.34-3.72,1.34h-.32c-1.68,0-2.93-.46-3.78-1.37-.85-.9-1.29-2.41-1.29-4.55v-9c0-.53.04-.92.12-1.18.08-.27.18-.44.23-.49h0s.04-.03.04-.03h.19v-.19s0-.08-.04-.13c-.04-.06-.12-.08-.16-.08-.04,0-.07.01-.09.02h-4.18s-.05-.02-.09-.02c-.04,0-.13.02-.17.08-.04.06-.04.1-.04.13v.19h.19s.02.02.04.03c.06.05.15.21.23.48.08.24.12.65.12,1.2v9.07c0,2.82.7,5.01,2.14,6.55,1.44,1.54,3.63,2.3,6.54,2.3h.29c2.85,0,5.02-.76,6.48-2.31,1.45-1.55,2.17-3.73,2.16-6.53v-9.04c0-.55.04-.95.12-1.2.08-.26.17-.44.24-.5.02-.02.03-.03.04-.04h.17v-.19s0-.07-.04-.12c-.03-.06-.12-.09-.17-.09Z"/>
      <path class="cls-1" d="M484.09,101.92l-.1.16.1-.16c-1.46-.93-3.53-1.38-6.21-1.38h-8.99s-.04-.02-.09-.02c-.04,0-.12.02-.16.08-.04.06-.04.1-.04.13v.19h.18s.03.03.05.05c.07.07.17.23.25.5.08.24.12.65.12,1.2v15.43c0,.55-.04.96-.12,1.21-.08.27-.18.44-.24.49-.02.02-.03.03-.05.04h-.2v.19s0,.09.05.14c.05.06.12.07.16.07.04,0,.07-.01.09-.02h8.98c2.66,0,4.73-.47,6.18-1.43,1.44-.95,2.41-2.15,2.9-3.59.48-1.42.72-3.01.72-4.79,0-1.88-.23-3.53-.7-4.95-.48-1.44-1.45-2.62-2.89-3.54ZM484.06,110.63c0,2.38-.53,4.05-1.55,5.06-1.01,1.01-2.72,1.54-5.15,1.54h-3.56c-.42,0-.7-.02-.79-.04-.04-.01-.07-.03-.09-.04l-.04-.06h0c-.03-.07-.05-.3-.05-.63v-12.19c0-.16,0-.29.01-.38,0-.1.02-.17.03-.19l.03-.05s.04-.03.09-.04c.1-.02.38-.04.79-.04h3.56c1.74,0,3.09.21,4.03.63.94.41,1.61,1.06,2.03,1.98.42.91.63,2.21.63,3.89v.58Z"/>
      <path class="cls-1" d="M509.58,100.52s-.07.01-.09.02h-4.24s-.04-.02-.09-.02c-.04,0-.12.02-.16.08-.04.06-.04.1-.04.13v.19h.18s.03.03.05.05c.07.07.17.23.25.5.08.24.12.65.12,1.2v15.43c0,.55-.04.96-.12,1.21-.08.27-.18.44-.24.49-.02.02-.03.03-.05.04h-.2v.19s0,.09.05.14c.05.06.12.07.16.07.04,0,.07-.01.09-.02h4.24s.05.02.09.02c.04,0,.12-.02.16-.07.04-.05.05-.1.05-.14v-.19h-.2s-.03-.02-.05-.04c-.06-.05-.16-.21-.24-.49l-.18.06.18-.06c-.08-.26-.12-.67-.12-1.21v-15.4c0-.57.04-.99.12-1.25.08-.27.18-.44.24-.49.02-.02.03-.02.05-.04h.2v-.19s0-.08-.05-.14c-.04-.06-.12-.08-.16-.07Z"/>
      <path class="cls-1" d="M537.56,100.21h-.9c-3.25,0-5.69.87-7.26,2.64-1.56,1.76-2.34,4.25-2.33,7.43,0,3.38.79,5.95,2.4,7.68,1.61,1.73,4.03,2.58,7.19,2.58h.9c3.12,0,5.5-.85,7.09-2.58,1.59-1.73,2.37-4.3,2.37-7.68,0-3.18-.76-5.67-2.3-7.43-1.55-1.77-3.95-2.64-7.15-2.64ZM542.73,114.61c-.43,1.06-1.08,1.8-1.95,2.25-.88.45-2.05.69-3.51.69h-.32c-2.19,0-3.76-.56-4.75-1.64-.99-1.08-1.51-2.95-1.51-5.63,0-2.59.52-4.41,1.5-5.48.98-1.07,2.55-1.63,4.76-1.63h.32c2.15,0,3.68.54,4.65,1.59.96,1.04,1.47,2.88,1.47,5.51,0,1.83-.22,3.27-.65,4.33Z"/>
    </g>
  </g>
</svg>