<?xml version="1.0" encoding="UTF-8"?>
<svg id="Layer_2" data-name="Layer 2" xmlns="http://www.w3.org/2000/svg" viewBox="0 0 194.77 136.18">
  <defs>
    <style>
      .cls-1 {
        fill: #0b704c;
      }
    </style>
  </defs>
  <g id="Layer_1-2" data-name="Layer 1">
    <g>
      <g>
        <path d="M3.69,125.79c0,3.66,2.98,6.64,6.64,6.64h6.65v-3.96h-6.65v-3.69h10.34v11.34h-10.34c-5.7,0-10.34-4.64-10.34-10.34s4.63-10.34,10.34-10.34h10.34v3.69h-10.34c-3.66,0-6.64,2.98-6.64,6.65Z"/>
        <path d="M39.58,132.49l1.89,3.69h-4.14l-1.89-3.69-1.98-3.87-.09-.18c-.65-1.06-1.8-1.77-3.13-1.77h-3.69v9.51h-3.69v-20.68h13.05c1.54,0,2.92.62,3.93,1.62,1,1.01,1.62,2.39,1.62,3.93,0,2.24-1.33,4.2-3.25,5.08-.5.24-1.03.38-1.59.44l2.95,5.91ZM35.92,122.98c.27,0,.53-.06.77-.18.68-.29,1.12-.97,1.12-1.71,0-.68-.36-1.15-.56-1.36-.24-.24-.68-.53-1.33-.53h-9.36v3.81l9.36-.03Z"/>
        <path d="M47.41,121.03v1.92h13.29v3.7h-13.29v3.9c0,1.03.86,1.89,1.89,1.89h15.09v3.69h-15.09c-3.07,0-5.55-2.51-5.55-5.58v-9.51c0-3.07,2.48-5.58,5.55-5.58h15.09v3.69h-15.09c-1.04,0-1.89.86-1.89,1.89Z"/>
        <path d="M70.3,121.03v1.92h13.29v3.7h-13.29v3.9c0,1.03.86,1.89,1.89,1.89h15.09v3.69h-15.09c-3.07,0-5.55-2.51-5.55-5.58v-9.51c0-3.07,2.48-5.58,5.55-5.58h15.09v3.69h-15.09c-1.03,0-1.89.86-1.89,1.89Z"/>
        <path d="M110.18,115.48v20.68l-3.69-2.84-13.29-10.25v13.09h-3.69v-20.62l3.69,2.84,13.29,10.25v-13.17l3.69.03Z"/>
        <path d="M143.08,132.46v3.69h-10.49c-1.03,0-2.01-.24-2.89-.68-1.3-.65-2.36-1.71-2.98-3.01-.44-.89-.68-1.86-.68-2.9v-14.09h3.69v14.44c.18,1.3,1.21,2.33,2.51,2.51l10.84.03Z"/>
        <path d="M145.3,136.13v-20.68h3.69v20.68h-3.69Z"/>
        <path d="M171.88,115.48v20.68l-3.69-2.84-13.29-10.25v13.09h-3.69v-20.62l3.69,2.84,13.29,10.25v-13.17l3.69.03Z"/>
        <path d="M177.79,121.03v1.92h13.29v3.7h-13.29v3.9c0,1.03.86,1.89,1.89,1.89h15.09v3.69h-15.09c-3.07,0-5.55-2.51-5.55-5.58v-9.51c0-3.07,2.48-5.58,5.55-5.58h15.09v3.69h-15.09c-1.03,0-1.89.86-1.89,1.89Z"/>
      </g>
      <g>
        <g>
          <path class="cls-1" d="M107.78,47.78h7.02v2.19h-9.3v-12.95h2.28v10.76Z"/>
          <path class="cls-1" d="M117.82,37.02h2.4v12.95h-2.4v-12.95Z"/>
          <path class="cls-1" d="M126.01,41.49v8.48h-2.31v-12.95h2.31l4.4,8.55v-8.55h2.27v12.95h-2.27l-4.4-8.48Z"/>
          <path class="cls-1" d="M138.41,47.78h6.45v2.19h-8.9v-12.95h8.9v2.19h-6.45v3.2h6.45v2.16h-6.45v3.21Z"/>
        </g>
        <polygon class="cls-1" points="144.91 52.31 102.54 52.31 102.54 52.3 89.85 52.3 89.85 61.16 101.1 61.16 101.1 61.17 135.1 61.17 98.49 97.79 55.86 55.16 98.49 12.54 119.44 33.49 131.98 33.49 98.49 0 43.32 55.16 98.49 110.33 133.99 74.83 133.93 74.77 144.91 63.85 144.91 52.31"/>
      </g>
    </g>
  </g>
</svg>