<?xml version="1.0" encoding="UTF-8"?>
<svg id="Layer_2" data-name="Layer 2" xmlns="http://www.w3.org/2000/svg" viewBox="0 0 515.56 445.6">
  <defs>
    <style>
      .cls-1, .cls-2 {
        fill: #231916;
      }

      .cls-2 {
        fill-rule: evenodd;
      }
    </style>
  </defs>
  <g id="_레이어_1" data-name="레이어 1">
    <g>
      <g>
        <path class="cls-2" d="M241.47,318.67l-36.37,1.01c-.14,0-.25.09-.25.2,0,.1.11.19.25.19l36.37,1.03s.08,0,.12-.02l3.21-1.02c.1-.03.16-.09.16-.18s-.06-.15-.16-.18l-3.21-1.03s-.07-.01-.12,0h0ZM274.1,318.67l36.36,1.01c.14,0,.26.09.26.2,0,.1-.11.19-.26.19l-36.36,1.03s-.07,0-.12-.02l-3.21-1.02c-.1-.03-.16-.09-.16-.18s.07-.15.16-.18l3.21-1.03s.07-.01.12,0h0Z"/>
        <path class="cls-1" d="M333.28,140.38h-3.49c-1.25,0-2.27-1.01-2.27-2.27v-.72c0-.49.17-.96.49-1.33,10.23-11.61,8.41-34.38,5.92-40.39-.91-2.19-5.89-2.72-8.01-2.72s-7.1.53-8,2.72c-2.49,6.01-4.31,28.79,5.92,40.39.32.37.49.84.49,1.33v.72c0,1.25-1.01,2.27-2.27,2.27h-3.49c-.34,0-.62.28-.62.62v.56c0,.09.07.17.17.17h15.6c.09,0,.17-.08.17-.17v-.56c0-.34-.28-.62-.63-.62h0Z"/>
        <path class="cls-1" d="M196.97,140.38h-3.49c-1.25,0-2.26-1.01-2.26-2.27v-.72c0-.49.17-.96.49-1.33,10.23-11.61,8.41-34.38,5.92-40.39-.9-2.19-5.89-2.72-8-2.72s-7.1.53-8.01,2.72c-2.49,6.01-4.31,28.79,5.93,40.39.32.37.49.84.49,1.33v.72c0,1.25-1.01,2.27-2.27,2.27h-3.49c-.35,0-.63.28-.63.62v.56c0,.09.08.17.17.17h15.6c.09,0,.17-.08.17-.17v-.56c0-.34-.28-.62-.62-.62h0Z"/>
        <path class="cls-1" d="M225.91,49.93c3.54,1.81,5.83,5.72,5.21,10.09-.6,4.22-4,7.61-8.21,8.21-4.36.63-8.28-1.67-10.09-5.21-.06-.12-.24-.06-.21.07,1.33,4.98,6.08,8.57,11.58,8.06,5.18-.48,9.38-4.68,9.85-9.86.51-5.49-3.08-10.24-8.05-11.57-.13-.04-.2.15-.08.2h0Z"/>
        <path class="cls-1" d="M263.35,53.58c-2.09-.33-3.94-.31-5.57,0-8.25,1.52-10.99,10.28-11.19,18.3,0,.14-.2.16-.23.02-1.32-6.28-.19-12.12.55-14.07.02-.05-.05-.1-.09-.06-2.04,2.2-3.06,7.82-3.06,12.07,0,.27,0,.52.01.77-.38-.52-.73-1.06-1.06-1.61-1.49-2.56-2.35-5.52-2.36-8.68-.03-9.6,7.77-17.43,17.37-17.46h.05c10.58.03,15.95,12.33,5.57,10.71h0ZM265.25,79.01v57.91c0,.69-.56,1.25-1.24,1.25h-12.45c-.69,0-1.25-.56-1.25-1.25v-67.35c0-3.88,3.16-7.47,7.04-7.69,3.51-.2,6.52,2.03,7.54,5.15.07.2-.19.35-.33.2-2.84-2.99-7.79-3.17-10.26.16,3.57-1.62,10.96,1.09,10.96,8.62v3.01h0ZM230.79,71.44c-2.18,1.49-4.8,2.37-7.63,2.37s-5.42-.87-7.59-2.34c-3.58-2.44-5.94-6.54-5.94-11.19,0-7.46,6.07-13.53,13.53-13.53s13.53,6.07,13.53,13.53c0,4.63-2.34,8.72-5.9,11.16h0ZM292.41,46.75c7.46,0,13.53,6.07,13.53,13.53,0,4.65-2.36,8.75-5.94,11.19-2.16,1.47-4.78,2.34-7.59,2.34s-5.45-.88-7.63-2.37c-3.56-2.44-5.9-6.53-5.9-11.16,0-7.46,6.07-13.53,13.53-13.53h0ZM289.6,43.34c-1.14.17-2.24.45-3.25.83-3.35,1.26-6.26,3.58-8.25,6.56-.25.38-1.56,2.1-1.4,2.54-2.8-7.51-9.93-12.91-18.34-13.15-.21,0-.42-.02-.63-.02-.18,0-.35,0-.53.02-8.41.24-15.54,5.64-18.33,13.15.14-.38-1-1.91-1.22-2.25-.5-.78-1.06-1.51-1.67-2.2-1.2-1.35-2.62-2.5-4.18-3.41-6.73-3.92-15.76-2.59-21.09,3-3.04,3.18-4.75,7.48-4.75,11.87,0,6.78,3.92,12.63,9.62,15.43,1.03.51,2.11.93,3.24,1.22v3.71c0,.8.52,1.5,1.37,2.01l1.16,6.95c.04.26.26.44.52.44h2.61c.26,0,.48-.19.52-.44l1.16-6.95c.84-.5,1.37-1.21,1.37-2.01v-3.71c3.29-.86,6.19-2.66,8.4-5.1,5.29,1.34,9.21,6.11,9.21,11.82v32.85c0,4.58-3.48,8.35-7.93,8.8-.52.06-.91.49-.91,1.01v11.87h-25.49c-.86,0-1.64.54-1.93,1.35l-.81,2.22h99.48l-.81-2.22c-.3-.81-1.06-1.35-1.93-1.35h-25.49v-11.87c0-.52-.4-.95-.91-1.01-4.46-.45-7.93-4.22-7.93-8.8v-32.85c0-5.71,3.92-10.48,9.21-11.82,2.21,2.44,5.11,4.25,8.4,5.1v3.71c0,.8.53,1.5,1.37,2.01l1.16,6.95c.04.26.26.44.52.44h2.61c.26,0,.48-.19.52-.44l1.16-6.95c.84-.5,1.37-1.21,1.37-2.01v-3.71c1.13-.3,2.21-.71,3.24-1.22,5.7-2.81,9.62-8.66,9.62-15.43s-4.42-13.35-10.92-16.02c-2.66-1.1-6.03-1.38-9.09-.91Z"/>
        <path class="cls-1" d="M293.43,71.16c5.17-.48,9.38-4.68,9.85-9.86.51-5.49-3.08-10.24-8.05-11.57-.13-.04-.2.15-.08.2,3.54,1.81,5.84,5.72,5.21,10.09-.6,4.22-4,7.61-8.22,8.21-4.36.63-8.27-1.67-10.08-5.21-.06-.12-.24-.06-.2.07,1.33,4.98,6.08,8.57,11.57,8.06h0Z"/>
        <polygon class="cls-2" points="121.75 293.1 393.81 293.1 393.81 295.26 121.75 295.26 121.75 293.1 121.75 293.1"/>
        <polygon class="cls-2" points="121.75 150.99 393.81 150.99 393.81 153.16 121.75 153.16 121.75 150.99 121.75 150.99"/>
        <path class="cls-2" d="M263.82,317.49c-.73-.24-1.09-1.26-1.76-2.35-.58-.93-2.05-1.81-3.49-1.11-.31.15-.63-.17-.61-.59.1-1.8.61-1.91.84-2.58.02-.04,0-.09-.02-.12-.52-.39-1.47-.39-1.99,0-.03.02-.04.07-.02.12.23.67.74.78.84,2.58.01.43-.31.74-.62.59-1.43-.7-2.91.18-3.48,1.11-.67,1.08-1.03,2.1-1.76,2.35.18.26.45.45.77.59-.19,1.1.05,3.64-.43,4.26.15.07.51.14.97.06.52.93.74,2.16.49,2.64.26.07.69-.07.91-.27.4.8,1.74,1.43,1.86,2.08.07-.11.14-.23.2-.37.21.24.64.64.61.98.07-.06.17-.14.28-.25.04.12.15.33.36.5.2-.17.31-.38.36-.5.11.11.21.19.28.25-.04-.34.4-.74.61-.98.06.14.13.26.2.37.12-.65,1.47-1.28,1.86-2.08.22.2.66.33.91.27-.25-.48-.03-1.71.49-2.64.46.08.82,0,.97-.06-.48-.62-.23-3.16-.43-4.26.32-.14.59-.33.77-.59h0Z"/>
        <path class="cls-1" d="M185.78,238.56c0,1.54.83,2.37,2.36,2.37h11.76v-16.37h-14.12v14.01Z"/>
        <path class="cls-1" d="M305.52,239.03c0,1.54.83,2.36,2.36,2.36h22.99v-4.85h-25.35v2.48Z"/>
        <path class="cls-1" d="M249.2,234.18h20.74c1.96,0,3.54,1.59,3.54,3.54v.71c0,1.96-1.59,3.55-3.55,3.55h-20.74c-1.96,0-3.55-1.59-3.55-3.55v-.71c0-1.96,1.59-3.55,3.55-3.55Z"/>
        <path class="cls-1" d="M130.4,205.17h7.15c1.96,0,3.55,1.59,3.55,3.55v29.55c0,1.96-1.59,3.55-3.55,3.55h-7.15c-1.96,0-3.55-1.59-3.55-3.55v-29.55c0-1.96,1.59-3.55,3.55-3.55Z"/>
        <rect class="cls-1" x="303.39" y="213.15" width="13.06" height="8.04" rx="3.01" ry="3.01"/>
        <path class="cls-1" d="M487.67,190.05l-3.92-2.68c-.39-.27-.62-.71-.62-1.18v-17.48c-4.14,3-9.16,4.63-14.42,4.63H46.85c-5.26,0-10.27-1.63-14.42-4.64v17.49c0,.48-.24.91-.62,1.18l-3.92,2.68c-10.94,7.48-17.47,19.85-17.47,33.08s6.54,25.59,17.47,33.08l3.92,2.68c.38.27.62.71.62,1.18v17.48c4.14-3.03,9.07-4.62,14.42-4.62h421.86c5.26,0,10.28,1.62,14.42,4.63v-17.49c0-.47.23-.91.62-1.18l3.91-2.68c10.94-7.49,17.48-19.85,17.48-33.08s-6.53-25.6-17.47-33.08ZM33.05,226.83c-2.05,0-3.7-1.66-3.7-3.71s1.66-3.69,3.7-3.69,3.7,1.65,3.7,3.69-1.66,3.71-3.7,3.71ZM412.85,201.5h47.99v14.72h-37.11v5.14h37.41v4.85h-42.84c-3.43,0-5.32-2.19-5.32-5.44v-8.98h37.11v-5.67h-37.23v-4.61ZM353.57,206.23v-4.55h49.88v4.55h-4.49v18.62h-11.35v-18.62h-11.05c-2.48,0-4.14,1.06-5.14,3.37l-6.68,15.25h-11.58l8.1-18.62h-7.68ZM235.13,201.68h50.71v4.55h-4.49v13.65h-11.35v-13.65h-13.18c-1.83,0-3.07.83-3.78,2.48l-4.96,11.17h-11.58l6.32-13.65h-7.68v-4.55ZM97.77,246.06h-9.4v-21.57l-5.2.06v21.04h-8.98v-39.54h-1.89c-1.06,0-1.83.53-2.01,1.54l-6.68,38h-9.04l6.91-39.48v-.12h-5.32v-4.49h29.96v4.49h-2.96v13.18l5.2-.06v-18.2h9.4v45.15ZM109.82,246.06h-9.57v-45.15h9.57v45.15ZM151.91,236.02c0,6.5-3.55,10.05-10.05,10.05h-15.84c-6.5,0-10.05-3.54-10.05-10.05v-25.06c0-6.5,3.55-10.05,10.05-10.05h15.84c6.5,0,10.05,3.55,10.05,10.05v25.06ZM167.98,246.06h-10.76v-45.15h10.76v45.15ZM210.66,245.59h-28.54c-4.61,0-7.09-2.48-7.09-7.39v-36.7h10.76v18.26h14.12v-18.26h10.76v44.09ZM227.32,246.06h-10.76v-45.15h10.76v45.15ZM275.2,246.36h-31.32c-6.15,0-9.46-2.9-9.46-8.27s3.31-8.27,9.46-8.27h31.32c6.15,0,9.46,2.9,9.46,8.27s-3.31,8.27-9.46,8.27ZM286.37,227.21h-53.66v-4.49h22.04v-6.5h10.87v6.5h20.74v4.49ZM291.99,202.45h12.53v-3.66h10.76v3.66h12.53v4.55h-35.81v-4.55ZM292.46,218.82v-3.31c0-3.84,2.78-6.62,6.62-6.62h21.63c3.84,0,6.62,2.78,6.62,6.62v3.31c0,3.84-2.78,6.62-6.62,6.62h-21.63c-3.84,0-6.62-2.78-6.62-6.62ZM341.63,246.06h-39.77c-4.61,0-7.09-2.48-7.09-7.39v-10.46h10.76v3.78h25.35v-3.78h10.76v17.85ZM347.78,215.51h-6.15v9.93h-10.76v-24.52h10.76v9.81h6.15v4.79ZM404.57,233.18h-20.92v12.88h-11.82v-12.88h-20.92v-4.49h53.66v4.49ZM463.68,233.65h-9.34v12.41h-11.23v-12.41h-11.23l-5.14,12.53h-11.23l5.14-12.53h-10.64v-4.49h53.66v4.49ZM482.51,226.83c-2.04,0-3.7-1.66-3.7-3.71s1.66-3.69,3.7-3.69,3.7,1.65,3.7,3.69-1.66,3.71-3.7,3.71Z"/>
        <path class="cls-1" d="M493.55,181.45v-14.54c0-8.34-3.87-13.09-10.78-15.17-1.83,6.33-6.89,11.18-14.06,11.18H46.85c-7.17,0-12.24-4.84-14.06-11.18-6.91,2.08-10.78,6.83-10.78,15.17v14.54C8.72,190.54,0,205.81,0,223.12s8.72,32.59,22.01,41.68v14.54c0,8.34,3.87,13.1,10.78,15.18,1.82-6.33,6.89-11.18,14.06-11.18h421.86c7.17,0,12.24,4.84,14.06,11.18,6.91-2.08,10.78-6.84,10.78-15.18v-14.54c13.29-9.08,22.01-24.36,22.01-41.68s-8.72-32.58-22.01-41.68ZM489.28,258.57l-3.29,2.25v18.53c0,.46-.02.9-.04,1.31-.04.55-.38,1.04-.9,1.24-.17.07-.35.1-.53.1-.36,0-.71-.13-.98-.39-4.04-3.81-9.17-5.82-14.84-5.82H46.85c-5.66,0-10.79,2.01-14.84,5.82-.4.38-.99.49-1.5.29-.52-.21-.87-.69-.91-1.24-.02-.41-.04-.85-.04-1.31v-18.53l-3.29-2.25c-11.72-8.02-18.71-21.26-18.71-35.44s6.99-27.42,18.71-35.44l3.29-2.25v-18.53c0-.46.01-.9.04-1.31.04-.55.39-1.04.9-1.24.52-.2,1.1-.09,1.51.29,4.04,3.81,9.18,5.82,14.84,5.82h421.86c5.66,0,10.8-2.01,14.84-5.82.41-.38,1-.49,1.51-.29.52.21.87.69.9,1.24.02.4.04.84.04,1.3v18.53l3.29,2.25c11.72,8.02,18.72,21.27,18.72,35.44s-6.99,27.42-18.72,35.44Z"/>
        <g>
          <path class="cls-1" d="M197.89,358.74h-2.34c-1.34,0-2.3.97-2.3,2.3v1.13c0,1.23.6,2.03,1.81,2.24l7.27,1.19c1.34.23,1.99,1.11,1.99,2.47v.68c0,3.04-1.44,4.11-4.11,4.11h-6.47c-2.67,0-4.11-1.44-4.11-4.11v-.64h3.8v.84c0,1.34.96,2.3,2.3,2.3h2.51c1.34,0,2.3-.96,2.3-2.3v-.68c0-.66-.55-1.09-1.11-1.17l-7.37-1.19c-1.58-.25-2.61-1.36-2.61-2.98v-1.68c0-2.67,1.44-4.11,4.11-4.11h6.31c2.67,0,4.11,1.44,4.11,4.31v1.44h-3.78v-1.85c0-1.33-.97-2.3-2.3-2.3Z"/>
          <path class="cls-1" d="M217.77,359.07h-3.74v11.85h3.92v1.85h-11.58v-1.85h3.92v-11.85h-3.74v-1.85h11.21v1.85Z"/>
          <path class="cls-1" d="M234.66,357.24l-.04,15.53h-4.68c-.92,0-1.68-.53-1.97-1.42l-3.92-12.14h-.8l-.04,13.56h-3.08l.04-13.43c0-1.21.88-2.1,2.1-2.1h2.46c.92,0,1.7.55,1.99,1.42l4.03,12.41h.8l.04-13.82h3.08Z"/>
          <path class="cls-1" d="M248,372.85h-6.7c-2.67,0-4.11-1.44-4.11-4.11v-7.5c0-2.67,1.44-4.11,4.11-4.11h6.61c2.67,0,4.11,1.44,4.11,4.11v.86h-3.78v-1.07c0-1.33-.96-2.3-2.3-2.3h-2.65c-1.34,0-2.3.97-2.3,2.3v7.91c0,1.34.96,2.3,2.3,2.3h2.73c1.33,0,2.3-.96,2.3-2.3v-.82h3.78v.62c0,2.67-1.44,4.11-4.11,4.11Z"/>
          <path class="cls-1" d="M255.6,357.22h11.42v1.85h-9.12v5.26h8.73v1.85h-8.73v4.74h9.16v1.85h-12.9v-14.11c0-.92.51-1.44,1.44-1.44Z"/>
          <path class="cls-1" d="M279.56,371.27h2.01v1.64h-9.53v-1.64h3.72v-12.4h-3.04v-1.64h6.84v14.05Z"/>
          <path class="cls-1" d="M289.58,371.43h.84c1.31,0,2.3-.92,2.3-2.3v-2.79h-5.46c-2.49,0-4.01-1.81-4.05-3.7l-.02-.96v-.06l.02-.9c.04-1.89,1.56-3.7,4.05-3.7h5.18c2.49,0,3.86,1.85,4.05,3.7l.02,8.11v.1c0,2.69-1.44,4.11-4.11,4.11h-4.79c-2.67,0-4.11-1.42-4.11-4.11v-.37h3.78v.57c0,1.38.99,2.3,2.3,2.3ZM289.28,364.78h3.45v-3.86c0-1.36-.94-2.3-2.3-2.3h-1.15c-1.36,0-2.3.94-2.3,2.3v1.56c0,1.36.94,2.3,2.3,2.3Z"/>
          <path class="cls-1" d="M308.16,372.91h-3.8l3.12-14.13h-5.01c-.37,0-.62.18-.7.53l-.68,2.98h-3.51l.84-3.49c.25-1.03.96-1.58,2.05-1.58h11.15l-3.47,15.69Z"/>
          <path class="cls-1" d="M323.07,372.91h-3.8l3.12-14.13h-5.01c-.37,0-.62.18-.7.53l-.68,2.98h-3.51l.84-3.49c.25-1.03.96-1.58,2.05-1.58h11.15l-3.47,15.69Z"/>
        </g>
        <g>
          <path class="cls-1" d="M155.09,335.31l.02-.03h-1.67v-1.23h10.59v1.23h-.89v1.33h1.78v-2.72h2.94v6.55h-2.94v-2.52h-1.78v2.52h-2.85v-5.14h-1.88c-.29,0-.45.15-.55.42l-1.79,4.72h-2.85l1.86-5.12ZM157.85,343.05v-.81h-3.77v-1.15h6.53v3.02h-3.77v.94h3.81v1.18h-5.61c-.63,0-.97-.34-.97-.97v-2.22h3.77ZM161.55,341.13h6.35v4.98h-6.35v-4.98ZM165.61,344.96v-2.68h-1.76v2.68h1.76Z"/>
          <path class="cls-1" d="M184.33,340.19v1.24h-14.9v-1.24h14.9ZM170.04,336.37c0-1.68.9-2.59,2.59-2.59h8.5c1.7,0,2.6.91,2.6,2.59v.55c0,1.68-.91,2.59-2.59,2.59h-8.52c-1.68,0-2.59-.91-2.59-2.59v-.55ZM170.4,342.05h12.96v4.19h-11.02c-1.26,0-1.94-.68-1.94-1.94v-2.25ZM174.62,338.3h4.54c1.05,0,1.62-.57,1.62-1.62v-.08c0-1.05-.57-1.62-1.62-1.62h-4.54c-1.05,0-1.62.57-1.62,1.62v.08c0,1.05.57,1.62,1.62,1.62ZM174,344.99h6.4v-1.7h-7.05v1.05c0,.42.23.65.65.65Z"/>
          <path class="cls-1" d="M186.63,333.37h1.76c.29,0,.52.23.5.52l-.34,8.76c0,.19-.13.32-.32.32h-1.44c-.19,0-.32-.13-.32-.32l-.34-8.76c-.02-.29.21-.52.5-.52ZM186.54,343.92h1.96c.21,0,.32.11.32.32v1.68c0,.21-.11.32-.32.32h-1.96c-.21,0-.32-.11-.32-.32v-1.68c0-.21.11-.32.32-.32Z"/>
          <path class="cls-1" d="M194.25,336.63c0-1.78.97-2.75,2.75-2.75h4.28c1.07,0,1.84.35,2.3,1.02h1.96v-1.02h2.94v6.34h-2.94v-.99h-1.96c-.44.66-1.23,1.02-2.3,1.02h-4.28c-1.78,0-2.75-.95-2.75-2.75v-.87ZM205.53,342.94v-.78l-10.86.02v-1.2l13.81-.02v3.12l-10.86.02v.87l10.89-.02v1.28l-12.87.02c-.63,0-.97-.34-.97-.97v-2.33l10.86-.02ZM198.19,339.09h1.91c.63,0,.97-.34.97-.97v-2.1c0-.63-.34-.97-.97-.97h-1.91c-.63,0-.97.34-.97.97v2.1c0,.63.34.97.97.97ZM205.53,337.93v-1.71h-1.52c.02.13.02.27.02.42v.87c0,.15,0,.29-.02.42h1.52Z"/>
          <path class="cls-1" d="M211.88,335.31l.02-.03h-1.67v-1.23h10.59v1.23h-.89v1.46h1.78v-2.85h2.94v7.18h-2.94v-3.02h-1.78v3.01h-2.85v-5.76h-1.88c-.29,0-.45.15-.55.42l-1.79,5.33h-2.85l1.86-5.74ZM213.15,341.79h9.23c1.68,0,2.59.79,2.59,2.26s-.9,2.26-2.59,2.26h-9.23c-1.68,0-2.59-.79-2.59-2.26s.9-2.26,2.59-2.26ZM213.56,343.96v.19c0,.63.34.97.97.97h6.47c.63,0,.97-.34.97-.97v-.19c0-.63-.34-.97-.97-.97h-6.47c-.63,0-.97.34-.97.97Z"/>
          <path class="cls-1" d="M227.25,333.37h1.76c.29,0,.52.23.5.52l-.34,8.76c0,.19-.13.32-.32.32h-1.44c-.19,0-.32-.13-.32-.32l-.34-8.76c-.02-.29.21-.52.5-.52ZM227.15,343.92h1.96c.21,0,.32.11.32.32v1.68c0,.21-.11.32-.32.32h-1.96c-.21,0-.32-.11-.32-.32v-1.68c0-.21.11-.32.32-.32Z"/>
          <path class="cls-1" d="M235.82,335.74v-.02h-1.15v-1.23h3.38v-.86h2.81v.86h3.49v1.23h-.71v5.29h-2.94v-5.29h-1.54c-.29,0-.45.14-.55.42l-1.62,4.87h-2.92l1.75-5.27ZM237.23,341.79h8.44c1.68,0,2.59.79,2.59,2.26s-.91,2.26-2.59,2.26h-8.44c-1.68,0-2.59-.79-2.59-2.26s.91-2.26,2.59-2.26ZM238.75,345.12h5.38c.63,0,.97-.34.97-.97v-.19c0-.63-.34-.97-.97-.97h-5.38c-.63,0-.97.34-.97.97v.19c0,.63.34.97.97.97ZM247.96,333.89v2.99h1.68v1.31h-1.68v2.85h-2.94v-7.14h2.94Z"/>
          <path class="cls-1" d="M251.04,336.63c0-1.78.97-2.75,2.75-2.75h4.28c1.71,0,2.67.89,2.75,2.54h1.5v-2.54h2.94v6.74h-2.94v-2.89h-1.5v.06c0,1.79-.97,2.75-2.75,2.75h-4.28c-1.78,0-2.75-.95-2.75-2.75v-1.16ZM265.26,341.35v4.88h-11.82c-1.26,0-1.94-.68-1.94-2.02v-2.86h2.94v.89h7.87v-.89h2.94ZM254.98,339.38h1.91c.63,0,.97-.34.97-.97v-2.39c0-.63-.34-.97-.97-.97h-1.91c-.63,0-.97.34-.97.97v2.39c0,.63.34.97.97.97ZM255.1,344.96h7.23v-1.47h-7.87v.82c0,.42.23.65.65.65Z"/>
          <path class="cls-1" d="M268.66,335.31l.02-.03h-1.67v-1.23h10.65v1.23h-.89v1.88h1.71v-3.26h2.94v8.81h-2.94v-4.24h-1.71v3.18h-2.84v-6.35h-1.94c-.29,0-.47.15-.55.42l-1.79,5.93h-2.85l1.86-6.34ZM270.7,342.32v2.68h10.78v1.23h-12.75c-.63,0-.97-.34-.97-.97v-2.94h2.94Z"/>
          <path class="cls-1" d="M282.97,340.38h14.68v1.23h-5.75v2.02h-2.97v-2.02h-5.95v-1.23ZM296.81,334.05v5.5h-11.35c-1.26,0-1.94-.68-1.94-1.94v-3.56h13.29ZM283.78,342.55h2.94v2.46h10.3v1.23h-12.27c-.63,0-.97-.34-.97-.97v-2.72ZM287.11,338.31h6.76v-3.04h-7.4v2.39c0,.42.23.65.65.65Z"/>
          <path class="cls-1" d="M313.82,341.48v1.23h-5.72v3.52h-3.23v-3.52h-5.72v-1.23h14.68ZM301.97,335.34h-2.1v-1.24h13.64v1.24h-1.23v5.09h-3.1v-5.09h-3.02c-.68,0-1.13.29-1.41.92l-1.83,4.17h-3.17l2.21-5.09Z"/>
          <path class="cls-1" d="M315.31,341.61h14.68v1.23h-2.55v3.39h-3.07v-3.39h-3.07l-1.41,3.43h-3.07l1.41-3.43h-2.91v-1.23ZM326.27,336.86v-1.55h-10.18v-1.26h13.13v4.02h-10.15v1.41h10.23v1.33h-11.72c-.94,0-1.45-.6-1.45-1.49v-2.46h10.15Z"/>
          <path class="cls-1" d="M331.74,344.86h3.81l.02-2.28h-.74c-1.78,0-2.75-.97-2.75-2.75v-.94c0-1.78.97-2.75,2.75-2.75h4.41c1.78,0,2.75.97,2.75,2.75v.94c0,1.78-.97,2.75-2.75,2.75h-.73l-.02,2.28h3.83v1.23h-10.59v-1.23ZM331.92,334.3h3.65v-1h2.94v1h3.65v1.24h-10.25v-1.24ZM335.04,338.28l.02,2.17c0,.63.34.97.97.97h2.04c.63,0,.97-.34.97-.97l-.02-2.17c0-.63-.32-.97-.97-.97h-2.04c-.61,0-.97.34-.97.97ZM343.17,333.89h2.94v12.35h-2.94v-12.35Z"/>
          <path class="cls-1" d="M349.17,335.29c.16-.84.76-1.24,1.62-1.24h6.27v12.06h-2.94v-10.83h-1.6c-.29,0-.5.15-.55.42l-1.94,10.41h-2.93l2.07-10.81ZM361.15,333.89v5.19h1.81v1.31h-1.81v5.85h-2.94v-12.35h2.94Z"/>
        </g>
        <g>
          <path class="cls-1" d="M97.44,130.26c.95-2.53-.35-5.43-2.27-6.7l-3.85,10.26c2.28.31,5.17-1.02,6.12-3.55h0Z"/>
          <path class="cls-1" d="M86.96,126.32c-.95,2.53-.35,5.17,2.27,6.7l3.85-10.25c-2.98-.57-5.17,1.02-6.12,3.55h0Z"/>
          <path class="cls-1" d="M97.44,321.08c.95-2.53-.35-5.43-2.27-6.7l-3.85,10.26c2.28.31,5.17-1.02,6.12-3.55h0Z"/>
          <path class="cls-1" d="M86.96,317.14c-.95,2.53-.35,5.17,2.27,6.7l3.85-10.25c-2.98-.57-5.17,1.02-6.12,3.55h0Z"/>
        </g>
        <g>
          <path class="cls-1" d="M428.71,130.26c.95-2.53-.35-5.43-2.27-6.7l-3.85,10.26c2.28.31,5.17-1.02,6.12-3.55h0Z"/>
          <path class="cls-1" d="M418.22,126.32c-.95,2.53-.35,5.17,2.27,6.7l3.85-10.25c-2.98-.57-5.17,1.02-6.12,3.55h0Z"/>
          <path class="cls-1" d="M428.71,321.08c.95-2.53-.35-5.43-2.27-6.7l-3.85,10.26c2.28.31,5.17-1.02,6.12-3.55h0Z"/>
          <path class="cls-1" d="M418.22,317.14c-.95,2.53-.35,5.17,2.27,6.7l3.85-10.25c-2.98-.57-5.17,1.02-6.12,3.55h0Z"/>
        </g>
      </g>
      <g>
        <path class="cls-1" d="M453.26,315.26c0,12.59-6.77,24.32-17.67,30.61l-160.14,92.46c-10.9,6.29-24.44,6.29-35.34,0l-160.14-92.46c-10.9-6.29-17.67-18.02-17.67-30.61v-22.15h-2.56v22.15c0,13.5,7.26,26.08,18.95,32.83l160.14,92.46c5.85,3.37,12.4,5.06,18.95,5.06s13.11-1.69,18.95-5.06l160.14-92.46c11.69-6.75,18.95-19.33,18.95-32.83v-22.15h-2.56v22.15Z"/>
        <path class="cls-1" d="M62.3,130.34c0-12.59,6.77-24.32,17.67-30.61L240.11,7.28c5.45-3.15,11.56-4.72,17.67-4.72s12.22,1.57,17.67,4.72l160.14,92.46c10.9,6.29,17.67,18.02,17.67,30.61v22.81h2.56v-22.81c0-13.5-7.26-26.08-18.95-32.83L276.73,5.06c-11.69-6.75-26.21-6.75-37.9,0L78.69,97.52c-11.69,6.75-18.95,19.33-18.95,32.83v22.81h2.56v-22.81Z"/>
        <path class="cls-1" d="M441.06,310.63c0,11.09-5.97,21.43-15.57,26.97l-152.13,87.83c-9.61,5.55-21.54,5.55-31.15,0l-152.13-87.83c-9.61-5.55-15.57-15.88-15.57-26.97v-17.53h-7.29v17.53c0,13.69,7.36,26.45,19.22,33.29l152.13,87.83c5.93,3.42,12.57,5.13,19.22,5.13s13.29-1.71,19.22-5.13l152.13-87.83c11.86-6.84,19.22-19.6,19.22-33.29v-17.53h-7.29v17.53Z"/>
        <path class="cls-1" d="M74.5,134.97c0-11.09,5.97-21.43,15.57-26.97L242.21,20.16c4.8-2.77,10.19-4.16,15.57-4.16s10.77,1.39,15.57,4.16l152.13,87.83c9.61,5.55,15.57,15.88,15.57,26.97v18.19h7.29v-18.19c0-13.69-7.36-26.45-19.22-33.29L277,13.84c-11.85-6.84-26.58-6.85-38.44,0L86.43,101.68c-11.86,6.84-19.22,19.6-19.22,33.29v18.19h7.29v-18.19Z"/>
      </g>
    </g>
  </g>
</svg>