<?xml version="1.0" encoding="UTF-8"?>
<svg id="Layer_2" data-name="Layer 2" xmlns="http://www.w3.org/2000/svg" viewBox="0 0 1435.75 1106.95">
  <defs>
    <style>
      .cls-1 {
        fill: #231916;
      }
    </style>
  </defs>
  <g id="_레이어_1" data-name="레이어 1">
    <g>
      <path class="cls-1" d="M156.42,293.11c-41.58-40.98-84.03-82.83-126.67-124.85,1.37-.25,3.78-1.04,6.19-1.09,59.36-1.16,118.74-2.48,178.12-3.23,15.67-.2,24.95-9.12,33.06-20.56,30.2-42.52,60.35-85.07,90.53-127.6,2.87-4.03,5.86-7.96,11.61-15.78,4.9,16.06,9.71,28.76,12.59,41.89,7.98,36.26,15.27,72.68,22.57,109.08,1.92,9.62,8.59,12.05,16.78,12.65,26.2,1.95,52.4,4.2,78.64,5.51,76.97,3.84,153.99,7.2,230.95,11.15,3.44.19,6.67,4.26,9.99,6.51-3.68,2.35-7.34,6.64-11.06,6.71-32.64.53-65.3.32-97.96.32-75.73-.03-151.48-.07-227.21-.11-26.16-.03-26.64-.16-31.78-26.25-6.2-31.5-11.91-63.09-18.45-97.93-13.21,19.89-25,37.35-36.5,55.03-12.59,19.38-25.23,38.75-37.19,58.51-4.8,7.94-10.5,10.95-19.82,10.86-45.76-.44-91.53-.2-139.81-.2,3.8,4.31,6.06,7.28,8.72,9.83,24.61,23.48,49.28,46.92,73.98,70.32,16.77,15.87,17.33,18.97,5.26,38.03-32.96,52.08-66.02,104.09-99.01,156.16-.92,1.44-1.61,3.03-3.98,7.51,9.26-1.88,16.22-2.52,22.65-4.74,96.38-33.19,194.43-38.38,293.1-13.81,35.67,8.88,69.58,24.92,104.25,37.83,1.32.48,2.11,2.39,2.92,5.78-172.76-61.15-337.96-36.54-502.23,41.57,3.76-8.67,5.87-15.75,9.6-21.82,45.28-73.74,90.78-147.33,140.14-227.28"/>
      <path class="cls-1" d="M674.55,323.3c20.08-3.95,30.88-13.87,33.31-28.76,1.68-10.29,1.31-20.33-10.05-25.08-2.75-1.15-9.56.36-10.02,1.95-4.8,16.54-8.67,33.36-13.25,51.89M670.35,403.61h-68.44c2.64-3.91,3.76-7.35,5.28-7.55,13.5-1.69,17.12-11.58,20.02-22.57,7.31-27.55,14.82-55.04,22.3-82.54q5.38-19.8-11.17-35.79c11.9,0,21.01-.07,30.14.01,14.03.12,28.08.04,42.1.6,15.87.64,29.64,11.93,32.54,25.91,3.31,16.09-4.3,32.66-18.48,40.19-15.69,8.32-17.45,12.58-12.07,29.15.97,3.01,1.97,6.03,3.11,8.98,5.64,14.78,3.2,34.34,25.79,38.78-8.36,6.3-41.94,8.72-46.74,4.2-2.01-1.89-2.63-5.46-3.47-8.38-5.56-19.41-11.02-38.85-16.52-58.28-1.31-.07-2.6-.15-3.9-.21-4.66,16.45-9.71,32.8-13.5,49.45-.59,2.55,4.43,6.63,7.26,9.6,1.99,2.09,4.7,3.5,7.07,5.22-.44,1.07-.89,2.15-1.33,3.23"/>
      <path class="cls-1" d="M231.99,402.73c3.55-16.76,7.44-35.06,11.33-53.37,1.24-.29,2.47-.57,3.71-.87,1.76,3.79,3.44,7.63,5.3,11.37,4.38,8.75,7.38,18.7,13.58,25.89,9.58,11.14,20.53,11.49,29.87,3.75,9.26-7.68,11.74-21.18,4.58-31.92-5.51-8.24-12.86-15.21-18.84-23.16-5.14-6.8-10.85-13.66-13.9-21.44-6.12-15.62-8.76-32.04,4.03-46.02,13.03-14.23,29.64-17.7,48.41-14.45,10.99,1.91,22.25,2.31,36.17,3.67,1.63,14.74-6.56,30.84-13.18,48.45-1.64-3.58-3.13-7.23-4.96-10.71-3.68-7.04-6.58-14.81-11.58-20.77-5.82-6.94-15.67-11.57-22.61-4.46-5.3,5.43-7.74,15.66-7.6,23.69.11,5.71,6.16,11.65,10.34,16.88,6.22,7.78,13.43,14.75,19.66,22.53,13.73,17.13,15.46,37.9,5.15,55.8-7.6,13.19-30.82,22.18-49.16,19.88-15.78-1.99-31.67-3.03-50.28-4.74"/>
      <path class="cls-1" d="M416.78,268.41c-18.89,1.63-29.44,14.73-40.35,27.28-1.33-.49-2.68-.97-4.02-1.47,2.92-11.69,5.56-23.47,9.08-34.98.6-1.93,5.03-3.79,7.71-3.82,34.3-.25,68.6-.16,104.68-.16-3.32,13.77-6.06,25.97-9.36,38.02-.51,1.91-3.54,3.12-5.4,4.64-1.33-2.05-3.17-3.96-3.9-6.22-1.61-5.1-1.33-11.39-4.34-15.26-2.83-3.63-8.79-6.08-13.55-6.42-2.21-.15-6.07,5.62-7.12,9.28-9.19,32.19-17.97,64.5-26.72,96.81-2.16,7.95-5.04,16.36,7.02,19.54,1.55.4,3.83,4.11,3.47,4.62-1.39,1.89-3.7,4.35-5.7,4.38-18.56.32-37.14.32-55.7-.04-1.89-.04-3.74-2.99-5.59-4.59,1.81-1.56,3.63-3.12,5.47-4.67,4.58-3.87,11.85-6.9,13.31-11.71,11.1-36.33,21.09-73,31.31-109.59.44-1.57-.16-3.43-.31-5.66"/>
      <path class="cls-1" d="M527.78,344.81c30.67,2.55,32.91-.53,26.2-34.03-8.72,11.34-16.78,21.81-26.2,34.03M495.29,391.57c3.74,2.52,7.59,5.12,11.45,7.74-.19,1.09-.36,2.2-.53,3.3h-45.2c50.03-45.34,81.15-103.4,127.52-153.77,1,9.23,2.29,15.14,2.16,21.01-.8,35.77-1.99,71.53-2.88,107.31-.21,8.91-2.65,19.25,12.85,21.97-21.74,7.94-41.91,4.82-61.89,5.32-1.47-2.28-2.95-4.56-4.43-6.84,3.01-.88,7.22-.8,8.83-2.81,4.7-5.82,9.67-12.01,12.13-18.92,3.55-10.01,1.08-16.9-12.03-18.05-25.67-2.24-39.46,6.7-47.97,33.75"/>
      <g>
        <path class="cls-1" d="M1106.22,342.63l-4.62,46.83h-110.4l-6.6,66.9h-58.99l6.6-66.9h-110.4l4.62-46.83h279.78ZM1046.59,330.47c-6.63-28.27-34.25-50.47-71.51-48.95-32.33,28.88-83.68,46.83-140.49,49.26l4.53-45.92c59.15-4.56,104.62-31.01,110.53-62.94h-98.54l4.56-46.22h254.25l-4.56,46.22h-96.4c-1,7-2.91,13.99-5.35,20.38,51.97.3,101.67,29.79,100.47,88.17h-57.48Z"/>
        <path class="cls-1" d="M1322.24,174.19l-14.71,148.99h-168.79l14.71-148.99h53.2l-2.97,30.11h62.95l2.97-30.11h52.63ZM1336.93,339.61c42.27,0,62.4,24.01,59.04,58.06-3.36,34.06-28.23,58.08-70.51,58.08h-125.3c-42.87,0-62.31-24.93-59.04-58.08,3.3-33.45,27.63-58.06,70.51-58.06h125.3ZM1196.16,280.62h62.95l3.54-35.89h-62.95l-3.54,35.89ZM1314.71,416.83c13.99,0,21.43-7.61,22.58-19.16,1.13-11.55-4.78-19.46-18.77-19.46h-96.09c-13.69,0-21.47,7.91-22.6,19.46-1.15,11.56,5.11,19.16,18.8,19.16h96.09ZM1408.39,222.53h27.36l-4.91,49.88h-27.36l-5.71,57.77h-57.79l15.69-159.03h57.79l-5.07,51.38Z"/>
      </g>
    </g>
    <g>
      <path class="cls-1" d="M1331.73,726.32l12.52,3.76c1.91.51,3.54,1.25,4.87,2.26,1.07,1,1.94,2.44,2.62,4.32.67,1.88.74,4.32.21,7.32l-30.13,170.92h-29.35l22.03-124.94-64.4-8.27-20.31,115.16c-.26,1.51-.82,3.26-1.68,5.27-.86,2.01-2.14,3.95-3.85,5.83-1.71,1.88-3.81,3.51-6.32,4.89-2.51,1.38-5.51,2.06-9.02,2.06h-12.05l25.28-143.39h116.67l6.24-35.37h-204.74l-6.24,35.37h21.83l-25.28,143.39h-23.71l-6.24,35.38h214.89l-11.42,64.73h70.76l54.15-307.09-95.74,9.38-1.59,9.02ZM783.59,934.47l1.36,9.41,23.06,1.5c3.42.51,6.21,1.38,8.38,2.64,2.17,1.27,3.73,2.64,4.72,4.14.99,1.51,1.68,2.96,2.06,4.33.38,1.38.65,2.32.82,2.82,13.92-5.01,28.68-11.85,44.27-20.5,15.57-8.67,30.47-19.89,44.7-33.68,7.9-7.78,14.83-15.8,20.8-24.09,5.98-8.27,11.5-16.81,16.56-25.59h46.67l-28.14,159.57h70.37l54.16-307.09-95.37,9.41-1.59,9.03,12.5,3.76c1.92.51,3.55,1.27,4.88,2.26,1.07,1,1.94,2.45,2.62,4.33.67,1.88.73,4.33.21,7.33l-12.95,73.4h-38.38c1.94-6.81,3.59-13.99,4.93-21.56l10.19-57.85h-160.69l-6.71,38h94.08c-1.12,7.79-2.6,15.44-4.42,22.97-1.83,7.52-4.01,14.93-6.54,22.2h-91.08l-6.64,37.64h80.17c-1.75,2.75-3.59,5.39-5.53,7.9-1.94,2.52-3.88,4.89-5.78,7.15-5.32,6.03-10.58,11.67-15.78,16.94-5.19,5.27-10.92,10.35-17.17,15.24-6.26,4.89-13.23,9.54-20.91,13.92-7.67,4.38-16.39,8.72-26.18,12.99l-3.65,1.5Z"/>
      <path class="cls-1" d="M146.49,863.25c-40.68-40.09-82.2-81.03-123.91-122.14,1.34-.25,3.69-1.02,6.06-1.07,58.07-1.14,116.16-2.43,174.25-3.16,15.33-.2,24.4-8.93,32.34-20.11,29.55-41.59,59.04-83.22,88.56-124.83,2.81-3.94,5.73-7.79,11.35-15.44,4.79,15.71,9.5,28.14,12.32,40.98,7.8,35.47,14.94,71.1,22.08,106.71,1.88,9.41,8.4,11.78,16.42,12.37,25.63,1.91,51.26,4.11,76.93,5.39,75.3,3.76,150.64,7.05,225.93,10.91,3.37.18,6.53,4.16,9.77,6.37-3.6,2.3-7.18,6.5-10.82,6.56-31.93.52-63.88.31-95.83.31-74.09-.03-148.19-.07-222.28-.1-25.59-.03-26.06-.16-31.09-25.68-6.07-30.81-11.65-61.72-18.05-95.8-12.92,19.46-24.46,36.54-35.71,53.83-12.32,18.96-24.68,37.91-36.38,57.24-4.7,7.77-10.27,10.71-19.39,10.62-44.76-.43-89.54-.2-136.77-.2,3.72,4.22,5.92,7.13,8.53,9.62,24.08,22.97,48.21,45.9,72.38,68.79,16.4,15.53,16.95,18.56,5.14,37.21-32.25,50.95-64.59,101.83-96.86,152.77-.9,1.41-1.58,2.96-3.89,7.35,9.06-1.84,15.87-2.47,22.16-4.63,94.29-32.47,190.21-37.55,286.73-13.51,34.9,8.69,68.07,24.38,101.99,37.01,1.29.47,2.06,2.34,2.86,5.65-169-59.82-330.62-35.75-491.32,40.67,3.68-8.48,5.74-15.41,9.4-21.35,44.29-72.14,88.81-144.13,137.09-222.34"/>
      <path class="cls-1" d="M653.37,892.79c19.64-3.86,30.21-13.57,32.59-28.14,1.64-10.06,1.28-19.89-9.83-24.53-2.69-1.12-9.36.35-9.8,1.91-4.7,16.18-8.48,32.64-12.96,50.77M649.26,971.35h-66.95c2.58-3.82,3.68-7.19,5.17-7.39,13.21-1.66,16.74-11.33,19.59-22.08,7.15-26.95,14.5-53.85,21.82-80.74q5.26-19.37-10.92-35.01c11.64,0,20.55-.07,29.48.01,13.73.12,27.47.04,41.19.59,15.53.63,29,11.67,31.83,25.34,3.24,15.74-4.2,31.95-18.07,39.32-15.35,8.14-17.07,12.31-11.81,28.52.95,2.95,1.93,5.9,3.04,8.78,5.52,14.46,3.13,33.59,25.23,37.94-8.18,6.16-41.03,8.53-45.73,4.11-1.97-1.85-2.57-5.34-3.39-8.2-5.44-18.99-10.78-38-16.16-57.02-1.28-.07-2.54-.14-3.81-.21-4.55,16.09-9.5,32.09-13.21,48.38-.57,2.49,4.33,6.49,7.1,9.4,1.94,2.05,4.59,3.42,6.92,5.1-.43,1.04-.87,2.1-1.31,3.16"/>
      <path class="cls-1" d="M220.42,970.5c3.47-16.39,7.28-34.3,11.08-52.21,1.21-.29,2.41-.56,3.63-.85,1.72,3.71,3.37,7.46,5.18,11.12,4.28,8.56,7.22,18.3,13.29,25.33,9.37,10.9,20.08,11.24,29.22,3.67,9.06-7.52,11.48-20.72,4.48-31.23-5.39-8.07-12.58-14.88-18.43-22.66-5.02-6.66-10.61-13.36-13.6-20.97-5.99-15.28-8.57-31.35,3.94-45.02,12.75-13.92,29-17.32,47.36-14.13,10.75,1.87,21.77,2.26,35.38,3.59,1.59,14.42-6.42,30.17-12.89,47.4-1.61-3.5-3.07-7.07-4.85-10.48-3.6-6.89-6.43-14.49-11.33-20.32-5.69-6.79-15.33-11.31-22.12-4.36-5.18,5.31-7.57,15.32-7.44,23.18.1,5.59,6.03,11.39,10.11,16.51,6.08,7.61,13.14,14.43,19.24,22.04,13.43,16.76,15.13,37.08,5.04,54.59-7.44,12.91-30.15,21.7-48.09,19.45-15.44-1.94-30.98-2.96-49.19-4.63"/>
      <path class="cls-1" d="M401.2,839.09c-18.48,1.59-28.8,14.41-39.48,26.69-1.31-.48-2.62-.95-3.93-1.44,2.86-11.43,5.44-22.96,8.89-34.22.59-1.89,4.92-3.71,7.54-3.73,33.55-.25,67.11-.16,102.41-.16-3.25,13.47-5.92,25.41-9.16,37.19-.5,1.87-3.46,3.05-5.29,4.54-1.31-2.01-3.11-3.88-3.81-6.08-1.58-4.99-1.31-11.15-4.24-14.93-2.77-3.55-8.6-5.95-13.26-6.28-2.17-.14-5.94,5.49-6.97,9.08-8.99,31.49-17.58,63.1-26.14,94.71-2.11,7.78-4.93,16,6.86,19.12,1.51.39,3.75,4.02,3.39,4.52-1.36,1.85-3.61,4.25-5.57,4.28-18.15.31-36.33.31-54.49-.04-1.85-.04-3.65-2.92-5.47-4.49,1.77-1.53,3.55-3.05,5.35-4.57,4.48-3.78,11.59-6.75,13.02-11.46,10.86-35.54,20.63-71.41,30.63-107.21.43-1.54-.16-3.35-.3-5.53"/>
      <path class="cls-1" d="M509.79,913.83c30,2.49,32.2-.52,25.63-33.29-8.53,11.09-16.42,21.34-25.63,33.29M478,959.58c3.65,2.47,7.43,5.01,11.2,7.57-.18,1.07-.35,2.15-.52,3.22h-44.21c48.94-44.36,79.39-101.15,124.75-150.43.98,9.03,2.24,14.81,2.11,20.55-.78,34.99-1.94,69.98-2.82,104.98-.21,8.72-2.6,18.83,12.57,21.49-21.27,7.77-41,4.71-60.54,5.21-1.44-2.23-2.88-4.46-4.33-6.69,2.95-.86,7.06-.78,8.64-2.75,4.59-5.69,9.46-11.75,11.86-18.51,3.47-9.79,1.06-16.53-11.77-17.66-25.11-2.19-38.6,6.55-46.93,33.02"/>
    </g>
  </g>
</svg>