<svg xmlns="http://www.w3.org/2000/svg" width="752.87944" height="637.41793" viewBox="0 0 752.87944 637.41793">
  <defs>
    <style>
      .cls-1 {
        fill: #89b0e8;
      }

      .cls-2 {
        fill: #deefff;
      }

      .cls-3 {
        fill: #3b80c4;
      }

      .cls-4 {
        fill: #679ad6;
      }

      .cls-5 {
        fill: #c5eaff;
      }

      .cls-6 {
        fill: #99e5ff;
      }

      .cls-7 {
        fill: #fff;
      }

      .cls-8 {
        fill: #4ad3f4;
      }

      .cls-9 {
        fill: #4e8ac6;
      }

      .cls-10 {
        fill: #a8cbf4;
      }

      .cls-11 {
        fill: #96c1ea;
      }

      .cls-12 {
        fill: #c5e2ff;
      }

      .cls-13 {
        fill: #1dbc81;
      }

      .cls-14 {
        fill: #2dcf99;
      }
    </style>
  </defs>
  <title>Asset 1</title>
  <g id="Layer_2" data-name="Layer 2">
    <g id="Layer_1-2" data-name="Layer 1">
      <g>
        <g>
          <g>
            <path class="cls-1" d="M750.02911,438.27335a22.524,22.524,0,0,0-8.8563-8.8011l-409.5526-227.4938a22.75706,22.75706,0,0,0-22.1292.0157L11.67841,367.97185a22.60384,22.60384,0,0,0-8.1051,7.577H0v12.8957h.0184a22.50575,22.50575,0,0,0,11.7,19.3063l408.8963,226.8106a22.75738,22.75738,0,0,0,22.064.0074l298.4688-165.2945a22.49213,22.49213,0,0,0,11.6941-18.7133h.0378v-12.2877Z"/>
            <path class="cls-2" d="M11.71851,396.37235l408.8962,226.8105a22.75738,22.75738,0,0,0,22.064.0074l298.4688-165.2945a22.75709,22.75709,0,0,0,.0253-39.8021L331.62031,190.6a22.75725,22.75725,0,0,0-22.1293.0156L11.67851,356.59325A22.75716,22.75716,0,0,0,11.71851,396.37235Z"/>
          </g>
          <g>
            <g>
              <g>
                <path class="cls-1" d="M313.086,337.84845h.0013v-15.2322h-4.2745v3.5405l-86.5508-40.5823a7.96,7.96,0,0,0-7.7222,0l-95.5496,45.5738v-2.3132h-6.2925v15.4556h.0032a3.93812,3.93812,0,0,0,2.0419,3.601l88.8037,49.2585a7.96016,7.96016,0,0,0,7.7223,0l99.7969-55.3563A3.95135,3.95135,0,0,0,313.086,337.84845Z"/>
                <path class="cls-3" d="M114.74281,332.50505l88.8037,49.2585a7.96016,7.96016,0,0,0,7.7223,0l99.7969-55.3564a3.98,3.98,0,0,0,0-6.9609l-88.8037-49.2584a7.96016,7.96016,0,0,0-7.7223,0l-99.7969,55.3563A3.98,3.98,0,0,0,114.74281,332.50505Z"/>
                <path class="cls-4" d="M294.93731,326.33305l-1.4556.8095-81.9451,45.4582a6.64909,6.64909,0,0,1-6.4537,0l-72.7659-40.3635-1.4481-.8021a3.32785,3.32785,0,0,1,0-5.8224l83.4007-46.2604a6.64909,6.64909,0,0,1,6.4537,0l74.214,41.1657A3.32158,3.32158,0,0,1,294.93731,326.33305Z"/>
                <path class="cls-2" d="M293.48171,327.14255l-81.9451,45.4582a6.64909,6.64909,0,0,1-6.4537,0l-72.7659-40.3635,81.9526-45.4583a6.64909,6.64909,0,0,1,6.4537,0Z"/>
              </g>
              <path class="cls-1" d="M306.39661,150.63045v168.1382h-.0075a3.67316,3.67316,0,0,1-1.9012,3.0746l-93.1073,51.6446a7.40046,7.40046,0,0,1-7.2038,0l-82.8585-45.9558a3.68894,3.68894,0,0,1-1.9013-3.4237V156.26725l88.3618-2.6662Z"/>
              <path class="cls-4" d="M306.39661,272.15935v46.6093h-.0075a3.67316,3.67316,0,0,1-1.9012,3.0746l-93.1073,51.6446a7.40357,7.40357,0,0,1-3.6018.9357v-50.1295Z"/>
              <g>
                <path class="cls-3" d="M306.36931,276.00205h.0012v-14.2109h-3.9878v3.3031l-80.7475-37.8612a7.42626,7.42626,0,0,0-7.2045,0l-89.1428,42.518v-2.1581h-5.8706v14.4193h.003a3.67373,3.67373,0,0,0,1.905,3.3596l82.8493,45.9556a7.42574,7.42574,0,0,0,7.2045,0l93.1054-51.6446A3.6862,3.6862,0,0,0,306.36931,276.00205Z"/>
                <path class="cls-3" d="M121.32531,271.017l82.8493,45.9556a7.42626,7.42626,0,0,0,7.2045,0l93.1054-51.6446a3.71319,3.71319,0,0,0,0-6.4942l-82.8493-45.9556a7.42626,7.42626,0,0,0-7.2045,0l-93.1054,51.6446A3.71319,3.71319,0,0,0,121.32531,271.017Z"/>
              </g>
              <path class="cls-1" d="M306.39661,68.93785v193.3886h-.0075a3.67331,3.67331,0,0,1-1.9012,3.0747l-93.1073,51.6445a7.39977,7.39977,0,0,1-7.2038,0l-82.8585-45.9558a3.68879,3.68879,0,0,1-1.9013-3.4236V74.57465l88.3618-2.6662Z"/>
              <path class="cls-4" d="M306.39661,68.93785v193.3886h-.0075a3.67331,3.67331,0,0,1-1.9012,3.0747l-93.1073,51.6445a7.40368,7.40368,0,0,1-3.6018.9358V71.90845Z"/>
              <g>
                <path class="cls-3" d="M313.086,68.65975h.0013V53.42755h-4.2745v3.5405L222.262,16.38575a7.96,7.96,0,0,0-7.7222,0l-95.5496,45.5738v-2.3132h-6.2925V75.102h.0032a3.93812,3.93812,0,0,0,2.0419,3.601l88.8037,49.2585a7.96016,7.96016,0,0,0,7.7223,0l99.7969-55.3563A3.95135,3.95135,0,0,0,313.086,68.65975Z"/>
                <path class="cls-1" d="M114.74281,63.31635l88.8037,49.2585a7.96016,7.96016,0,0,0,7.7223,0l99.7969-55.3563a3.98,3.98,0,0,0,0-6.9609L222.262.99915a7.96016,7.96016,0,0,0-7.7223,0l-99.7969,55.3563A3.98,3.98,0,0,0,114.74281,63.31635Z"/>
                <path class="cls-4" d="M294.93731,57.14435l-1.4556.8095-81.9451,45.4582a6.64909,6.64909,0,0,1-6.4537,0L132.317,63.04855l-1.4481-.8021a3.32785,3.32785,0,0,1,0-5.8224l83.4007-46.2604a6.64961,6.64961,0,0,1,6.4537,0l74.214,41.1657A3.32158,3.32158,0,0,1,294.93731,57.14435Z"/>
                <path class="cls-2" d="M293.48171,57.95385l-81.9451,45.4582a6.64909,6.64909,0,0,1-6.4537,0L132.317,63.04855l81.9526-45.4583a6.64961,6.64961,0,0,1,6.4537,0Z"/>
              </g>
              <polygon class="cls-5" points="199.008 284.948 199.008 307.191 173.735 293.169 173.735 270.927 175.963 272.159 199.008 284.948"/>
              <polygon class="cls-6" points="199.008 284.948 199.008 307.191 173.735 293.169 175.963 292.426 175.963 272.159 199.008 284.948"/>
              <polygon class="cls-7" points="199.008 284.948 199.008 305.215 175.963 292.426 175.963 272.159 199.008 284.948"/>
              <polygon class="cls-5" points="148.366 105.076 148.366 131.069 127.208 119.335 127.208 93.342 129.436 94.574 146.881 104.251 148.366 105.076"/>
              <polygon class="cls-6" points="148.366 105.076 148.366 131.069 127.208 119.335 129.436 118.592 129.436 94.574 146.881 104.251 148.366 105.076"/>
              <polygon class="cls-7" points="148.366 105.076 148.366 129.093 129.436 118.592 129.436 94.574 146.881 104.251 148.366 105.076"/>
              <polygon class="cls-5" points="199.008 133.17 199.008 159.164 173.735 145.142 173.735 119.149 175.963 120.382 199.008 133.17"/>
              <polygon class="cls-6" points="199.008 133.17 199.008 159.164 173.735 145.142 175.963 144.399 175.963 120.382 199.008 133.17"/>
              <polygon class="cls-7" points="199.008 133.17 199.008 157.188 175.963 144.399 175.963 120.382 199.008 133.17"/>
              <polygon class="cls-5" points="148.366 134.284 148.366 161.718 127.208 149.984 127.208 122.55 129.436 123.783 148.366 134.284"/>
              <polygon class="cls-6" points="148.366 134.284 148.366 161.718 127.208 149.984 129.436 149.242 129.436 123.783 148.366 134.284"/>
              <polygon class="cls-7" points="148.366 134.284 148.366 159.743 129.436 149.242 129.436 123.783 148.366 134.284"/>
              <polygon class="cls-5" points="171.507 147.118 171.507 174.552 150.594 162.951 150.594 135.517 152.822 136.75 171.507 147.118"/>
              <polygon class="cls-6" points="171.507 147.118 171.507 174.552 150.594 162.951 152.822 162.209 152.822 136.75 171.507 147.118"/>
              <polygon class="cls-7" points="171.507 147.118 171.507 172.576 152.822 162.209 152.822 136.75 171.507 147.118"/>
              <polygon class="cls-1" points="199.008 220.448 199.008 223.656 173.735 209.635 171.507 208.402 150.594 196.802 148.366 195.569 127.208 183.835 127.208 180.626 148.366 192.36 150.594 193.593 171.507 205.194 173.735 206.426 199.008 220.448"/>
              <polygon class="cls-5" points="171.507 269.694 171.507 291.936 150.594 280.336 150.594 258.093 152.822 259.326 171.507 269.694"/>
              <polygon class="cls-6" points="171.507 269.694 171.507 291.936 150.594 280.336 152.822 279.593 152.822 259.326 171.507 269.694"/>
              <polygon class="cls-7" points="171.507 269.694 171.507 289.961 152.822 279.593 152.822 259.326 171.507 269.694"/>
              <polygon class="cls-5" points="148.366 256.853 148.366 279.103 127.208 267.369 127.208 245.119 129.436 246.352 148.366 256.853"/>
              <polygon class="cls-6" points="148.366 256.853 148.366 279.103 127.208 267.369 129.436 266.626 129.436 246.352 148.366 256.853"/>
              <polygon class="cls-7" points="148.366 256.853 148.366 277.128 129.436 266.626 129.436 246.352 148.366 256.853"/>
              <polygon class="cls-5" points="199.008 254.298 199.008 281.732 173.735 267.711 173.735 240.277 175.963 241.51 199.008 254.298"/>
              <polygon class="cls-6" points="199.008 254.298 199.008 281.732 173.735 267.711 175.963 266.968 175.963 241.51 199.008 254.298"/>
              <polygon class="cls-7" points="199.008 254.298 199.008 279.757 175.963 266.968 175.963 241.51 199.008 254.298"/>
              <polygon class="cls-5" points="171.507 239.044 171.507 266.478 150.594 254.878 150.594 227.444 152.822 228.677 171.507 239.044"/>
              <polygon class="cls-6" points="171.507 239.044 171.507 266.478 150.594 254.878 152.822 254.135 152.822 228.677 171.507 239.044"/>
              <polygon class="cls-7" points="171.507 239.044 171.507 264.502 152.822 254.135 152.822 228.677 171.507 239.044"/>
              <polygon class="cls-5" points="148.366 226.211 148.366 253.645 127.208 241.911 127.208 214.477 129.436 215.71 148.366 226.211"/>
              <polygon class="cls-6" points="148.366 226.211 148.366 253.645 127.208 241.911 129.436 241.168 129.436 215.71 148.366 226.211"/>
              <polygon class="cls-7" points="148.366 226.211 148.366 251.669 129.436 241.168 129.436 215.71 148.366 226.211"/>
              <polygon class="cls-5" points="199.008 223.656 199.008 251.09 173.735 237.069 173.735 209.635 175.963 210.868 199.008 223.656"/>
              <polygon class="cls-6" points="199.008 223.656 199.008 251.09 173.735 237.069 175.963 236.326 175.963 210.868 199.008 223.656"/>
              <polygon class="cls-7" points="199.008 223.656 199.008 249.115 175.963 236.326 175.963 210.868 199.008 223.656"/>
              <polygon class="cls-5" points="171.507 208.402 171.507 235.836 150.594 224.235 150.594 196.802 152.822 198.034 171.507 208.402"/>
              <polygon class="cls-6" points="171.507 208.402 171.507 235.836 150.594 224.235 152.822 223.493 152.822 198.034 171.507 208.402"/>
              <polygon class="cls-7" points="171.507 208.402 171.507 233.86 152.822 223.493 152.822 198.034 171.507 208.402"/>
              <polygon class="cls-5" points="148.366 195.569 148.366 223.003 127.208 211.269 127.208 183.835 129.436 185.068 148.366 195.569"/>
              <polygon class="cls-6" points="148.366 195.569 148.366 223.003 127.208 211.269 129.436 210.526 129.436 185.068 148.366 195.569"/>
              <polygon class="cls-7" points="148.366 195.569 148.366 221.027 129.436 210.526 129.436 185.068 148.366 195.569"/>
              <polygon class="cls-5" points="199.008 193.014 199.008 220.448 173.735 206.426 173.735 178.993 175.963 180.225 199.008 193.014"/>
              <polygon class="cls-6" points="199.008 193.014 199.008 220.448 173.735 206.426 175.963 205.684 175.963 180.225 199.008 193.014"/>
              <polygon class="cls-7" points="199.008 193.014 199.008 218.472 175.963 205.684 175.963 180.225 199.008 193.014"/>
              <polygon class="cls-5" points="171.507 177.76 171.507 205.194 150.594 193.593 150.594 166.159 152.822 167.392 171.507 177.76"/>
              <polygon class="cls-6" points="171.507 177.76 171.507 205.194 150.594 193.593 152.822 192.851 152.822 167.392 171.507 177.76"/>
              <polygon class="cls-7" points="171.507 177.76 171.507 203.218 152.822 192.851 152.822 167.392 171.507 177.76"/>
              <polygon class="cls-5" points="148.366 164.927 148.366 192.36 127.208 180.626 127.208 153.193 129.436 154.425 148.366 164.927"/>
              <polygon class="cls-6" points="148.366 164.927 148.366 192.36 127.208 180.626 129.436 179.884 129.436 154.425 148.366 164.927"/>
              <polygon class="cls-7" points="148.366 164.927 148.366 190.385 129.436 179.884 129.436 154.425 148.366 164.927"/>
              <polygon class="cls-5" points="199.008 162.372 199.008 189.806 173.735 175.784 173.735 148.35 175.963 149.583 199.008 162.372"/>
              <polygon class="cls-6" points="199.008 162.372 199.008 189.806 173.735 175.784 175.963 175.042 175.963 149.583 199.008 162.372"/>
              <polygon class="cls-7" points="199.008 162.372 199.008 187.83 175.963 175.042 175.963 149.583 199.008 162.372"/>
              <polygon class="cls-5" points="171.507 117.916 171.507 143.909 150.594 132.309 150.594 106.316 152.822 107.549 171.507 117.916"/>
              <polygon class="cls-6" points="171.507 117.916 171.507 143.909 150.594 132.309 152.822 131.566 152.822 107.549 171.507 117.916"/>
              <polygon class="cls-7" points="171.507 117.916 171.507 141.934 152.822 131.566 152.822 107.549 171.507 117.916"/>
              <polygon class="cls-1" points="199.008 159.164 199.008 162.372 173.735 148.35 171.507 147.118 150.594 135.517 148.366 134.284 127.208 122.55 127.208 119.335 148.366 131.069 150.594 132.309 171.507 143.909 173.735 145.142 199.008 159.164"/>
              <polygon class="cls-1" points="199.008 189.806 199.008 193.014 173.735 178.993 171.507 177.76 150.594 166.159 148.366 164.927 127.208 153.193 127.208 149.984 148.366 161.718 150.594 162.951 171.507 174.552 173.735 175.784 199.008 189.806"/>
              <polygon class="cls-1" points="199.008 251.09 199.008 254.298 173.735 240.277 171.507 239.044 150.594 227.444 148.366 226.211 127.208 214.477 127.208 211.269 148.366 223.003 150.594 224.235 171.507 235.836 173.735 237.069 199.008 251.09"/>
              <polygon class="cls-1" points="199.008 281.732 199.008 284.948 173.735 270.927 171.507 269.694 150.594 258.093 148.366 256.853 127.208 245.119 127.208 241.911 148.366 253.645 150.594 254.878 171.507 266.478 173.735 267.711 199.008 281.732"/>
              <rect class="cls-1" x="148.36601" y="103.00365" width="2.2279" height="182.0111"/>
              <rect class="cls-1" x="171.50721" y="113.14835" width="2.228" height="182.0185"/>
              <polygon class="cls-6" points="236.082 122.64 236.082 148.098 217.077 158.644 217.077 133.185 233.854 123.872 236.082 122.64"/>
              <polygon class="cls-8" points="233.854 147.355 236.082 148.098 217.077 158.644 217.077 133.185 233.854 123.872 233.854 147.355"/>
              <polygon class="cls-5" points="233.854 123.872 233.854 147.355 217.077 156.668 217.077 133.185 233.854 123.872"/>
              <polygon class="cls-6" points="257.738 110.631 257.738 136.089 238.31 146.865 238.31 121.407 255.51 111.864 257.738 110.631"/>
              <polygon class="cls-8" points="255.51 135.346 257.738 136.089 238.31 146.865 238.31 121.407 255.51 111.864 255.51 135.346"/>
              <polygon class="cls-5" points="255.51 111.864 255.51 135.346 238.31 144.89 238.31 121.407 255.51 111.864"/>
              <polygon class="cls-6" points="279.394 98.615 279.394 124.073 259.965 134.856 259.965 109.398 277.166 99.855 279.394 98.615"/>
              <polygon class="cls-8" points="277.166 123.33 279.394 124.073 259.965 134.856 259.965 109.398 277.166 99.855 277.166 123.33"/>
              <polygon class="cls-5" points="277.166 99.855 277.166 123.33 259.965 132.873 259.965 109.398 277.166 99.855"/>
              <polygon class="cls-6" points="299.133 87.668 299.133 113.126 281.621 122.84 281.621 97.382 296.905 88.901 299.133 87.668"/>
              <polygon class="cls-8" points="296.905 112.383 299.133 113.126 281.621 122.84 281.621 97.382 296.905 88.901 296.905 112.383"/>
              <polygon class="cls-5" points="296.905 88.901 296.905 112.383 281.621 120.865 281.621 97.382 296.905 88.901"/>
              <polygon class="cls-6" points="299.133 115.681 299.133 143.768 281.621 153.482 281.621 125.395 296.905 116.914 299.133 115.681"/>
              <polygon class="cls-8" points="296.905 143.026 299.133 143.768 281.621 153.482 281.621 125.395 296.905 116.914 296.905 143.026"/>
              <polygon class="cls-5" points="296.905 116.914 296.905 143.026 281.621 151.507 281.621 125.395 296.905 116.914"/>
              <polygon class="cls-6" points="279.394 126.628 279.394 154.715 259.965 165.498 259.965 137.411 277.166 127.868 279.394 126.628"/>
              <polygon class="cls-8" points="277.166 153.972 279.394 154.715 259.965 165.498 259.965 137.411 277.166 127.868 277.166 153.972"/>
              <polygon class="cls-5" points="277.166 127.868 277.166 153.972 259.965 163.516 259.965 137.411 277.166 127.868"/>
              <polygon class="cls-6" points="236.082 273.221 236.082 295.91 217.077 306.448 217.077 283.767 233.854 274.454 236.082 273.221"/>
              <polygon class="cls-6" points="257.738 261.213 257.738 283.893 238.31 294.669 238.31 271.989 255.51 262.445 257.738 261.213"/>
              <polygon class="cls-6" points="279.394 249.196 279.394 271.885 259.965 282.661 259.965 259.98 277.166 250.436 279.394 249.196"/>
              <polygon class="cls-6" points="299.133 238.249 299.133 260.938 281.621 270.652 281.621 247.963 296.905 239.482 299.133 238.249"/>
              <polygon class="cls-8" points="233.854 295.167 236.082 295.91 217.077 306.448 217.077 283.767 233.854 274.454 233.854 295.167"/>
              <polygon class="cls-8" points="255.51 283.151 257.738 283.893 238.31 294.669 238.31 271.989 255.51 262.445 255.51 283.151"/>
              <polygon class="cls-8" points="277.166 271.142 279.394 271.885 259.965 282.661 259.965 259.98 277.166 250.436 277.166 271.142"/>
              <polygon class="cls-8" points="296.905 260.195 299.133 260.938 281.621 270.652 281.621 247.963 296.905 239.482 296.905 260.195"/>
              <polygon class="cls-5" points="233.854 274.454 233.854 295.167 217.077 304.472 217.077 283.767 233.854 274.454"/>
              <polygon class="cls-5" points="255.51 262.445 255.51 283.151 238.31 292.694 238.31 271.989 255.51 262.445"/>
              <polygon class="cls-5" points="277.166 250.436 277.166 271.142 259.965 280.685 259.965 259.98 277.166 250.436"/>
              <polygon class="cls-5" points="296.905 239.482 296.905 260.195 281.621 268.676 281.621 247.963 296.905 239.482"/>
              <polygon class="cls-6" points="299.133 207.607 299.133 235.695 281.621 245.409 281.621 217.321 296.905 208.84 299.133 207.607"/>
              <polygon class="cls-6" points="279.394 218.554 279.394 246.642 259.965 257.425 259.965 229.338 277.166 219.794 279.394 218.554"/>
              <polygon class="cls-6" points="257.738 230.57 257.738 258.658 238.31 269.434 238.31 241.346 255.51 231.803 257.738 230.57"/>
              <polygon class="cls-6" points="236.082 242.579 236.082 270.667 217.077 281.212 217.077 253.125 233.854 243.812 236.082 242.579"/>
              <polygon class="cls-8" points="296.905 234.952 299.133 235.695 281.621 245.409 281.621 217.321 296.905 208.84 296.905 234.952"/>
              <polygon class="cls-8" points="277.166 245.899 279.394 246.642 259.965 257.425 259.965 229.338 277.166 219.794 277.166 245.899"/>
              <polygon class="cls-8" points="255.51 257.915 257.738 258.658 238.31 269.434 238.31 241.346 255.51 231.803 255.51 257.915"/>
              <polygon class="cls-8" points="233.854 269.924 236.082 270.667 217.077 281.212 217.077 253.125 233.854 243.812 233.854 269.924"/>
              <polygon class="cls-5" points="296.905 208.84 296.905 234.952 281.621 243.433 281.621 217.321 296.905 208.84"/>
              <polygon class="cls-5" points="277.166 219.794 277.166 245.899 259.965 255.442 259.965 229.338 277.166 219.794"/>
              <polygon class="cls-5" points="255.51 231.803 255.51 257.915 238.31 267.458 238.31 241.346 255.51 231.803"/>
              <polygon class="cls-5" points="233.854 243.812 233.854 269.924 217.077 279.237 217.077 253.125 233.854 243.812"/>
              <polygon class="cls-6" points="236.082 211.937 236.082 240.024 217.077 250.57 217.077 222.483 233.854 213.17 236.082 211.937"/>
              <polygon class="cls-6" points="257.738 199.928 257.738 228.016 238.31 238.792 238.31 210.704 255.51 201.161 257.738 199.928"/>
              <polygon class="cls-6" points="279.394 187.912 279.394 215.999 259.965 226.783 259.965 198.695 277.166 189.152 279.394 187.912"/>
              <polygon class="cls-6" points="299.133 176.965 299.133 205.053 281.621 214.767 281.621 186.679 296.905 178.198 299.133 176.965"/>
              <polygon class="cls-8" points="233.854 239.282 236.082 240.024 217.077 250.57 217.077 222.483 233.854 213.17 233.854 239.282"/>
              <polygon class="cls-8" points="255.51 227.273 257.738 228.016 238.31 238.792 238.31 210.704 255.51 201.161 255.51 227.273"/>
              <polygon class="cls-8" points="277.166 215.257 279.394 215.999 259.965 226.783 259.965 198.695 277.166 189.152 277.166 215.257"/>
              <polygon class="cls-8" points="296.905 204.31 299.133 205.053 281.621 214.767 281.621 186.679 296.905 178.198 296.905 204.31"/>
              <polygon class="cls-5" points="233.854 213.17 233.854 239.282 217.077 248.595 217.077 222.483 233.854 213.17"/>
              <polygon class="cls-5" points="255.51 201.161 255.51 227.273 238.31 236.816 238.31 210.704 255.51 201.161"/>
              <polygon class="cls-5" points="277.166 189.152 277.166 215.257 259.965 224.8 259.965 198.695 277.166 189.152"/>
              <polygon class="cls-5" points="296.905 178.198 296.905 204.31 281.621 212.791 281.621 186.679 296.905 178.198"/>
              <polygon class="cls-6" points="299.133 146.323 299.133 174.41 281.621 184.124 281.621 156.037 296.905 147.556 299.133 146.323"/>
              <polygon class="cls-6" points="279.394 157.27 279.394 185.357 259.965 196.141 259.965 168.053 277.166 158.51 279.394 157.27"/>
              <polygon class="cls-6" points="257.738 169.286 257.738 197.373 238.31 208.149 238.31 180.062 255.51 170.519 257.738 169.286"/>
              <polygon class="cls-6" points="236.082 181.295 236.082 209.382 217.077 219.928 217.077 191.841 233.854 182.528 236.082 181.295"/>
              <polygon class="cls-8" points="296.905 173.668 299.133 174.41 281.621 184.124 281.621 156.037 296.905 147.556 296.905 173.668"/>
              <polygon class="cls-8" points="277.166 184.615 279.394 185.357 259.965 196.141 259.965 168.053 277.166 158.51 277.166 184.615"/>
              <polygon class="cls-8" points="255.51 196.631 257.738 197.373 238.31 208.149 238.31 180.062 255.51 170.519 255.51 196.631"/>
              <polygon class="cls-8" points="233.854 208.64 236.082 209.382 217.077 219.928 217.077 191.841 233.854 182.528 233.854 208.64"/>
              <polygon class="cls-5" points="296.905 147.556 296.905 173.668 281.621 182.149 281.621 156.037 296.905 147.556"/>
              <polygon class="cls-5" points="277.166 158.51 277.166 184.615 259.965 194.158 259.965 168.053 277.166 158.51"/>
              <polygon class="cls-5" points="255.51 170.519 255.51 196.631 238.31 206.174 238.31 180.062 255.51 170.519"/>
              <polygon class="cls-5" points="233.854 182.528 233.854 208.64 217.077 217.953 217.077 191.841 233.854 182.528"/>
              <polygon class="cls-6" points="236.082 150.653 236.082 178.74 217.077 189.286 217.077 161.198 233.854 151.886 236.082 150.653"/>
              <polygon class="cls-8" points="233.854 177.997 236.082 178.74 217.077 189.286 217.077 161.198 233.854 151.886 233.854 177.997"/>
              <polygon class="cls-5" points="233.854 151.886 233.854 177.997 217.077 187.31 217.077 161.198 233.854 151.886"/>
              <polygon class="cls-6" points="257.738 138.644 257.738 166.731 238.31 177.507 238.31 149.42 255.51 139.877 257.738 138.644"/>
              <polygon class="cls-8" points="255.51 165.989 257.738 166.731 238.31 177.507 238.31 149.42 255.51 139.877 255.51 165.989"/>
              <polygon class="cls-5" points="255.51 139.877 255.51 165.989 238.31 175.532 238.31 149.42 255.51 139.877"/>
              <g>
                <rect class="cls-4" x="279.39351" y="90.11105" width="2.2279" height="183.645"/>
                <rect class="cls-4" x="257.73751" y="103.85025" width="2.2279" height="183.645"/>
                <rect class="cls-4" x="236.08151" y="117.58945" width="2.228" height="183.645"/>
              </g>
              <g>
                <polygon class="cls-4" points="304.02 112.97 299.133 115.681 281.621 125.395 279.394 126.628 259.965 137.411 257.738 138.644 238.31 149.42 236.082 150.653 217.077 161.198 214.76 162.483 213.676 160.53 217.077 158.644 236.082 148.098 238.31 146.865 257.738 136.089 259.965 134.856 279.394 124.073 281.621 122.84 299.133 113.126 302.936 111.017 304.02 112.97"/>
                <polygon class="cls-4" points="304.02 143.612 299.133 146.323 281.621 156.037 279.394 157.27 259.965 168.053 257.738 169.286 238.31 180.062 236.082 181.295 217.077 191.841 214.76 193.125 213.676 191.172 217.077 189.286 236.082 178.74 238.31 177.507 257.738 166.731 259.965 165.498 279.394 154.715 281.621 153.482 299.133 143.768 302.936 141.659 304.02 143.612"/>
                <polygon class="cls-4" points="304.02 174.254 299.133 176.965 281.621 186.679 279.394 187.912 259.965 198.695 257.738 199.928 238.31 210.704 236.082 211.937 217.077 222.483 214.76 223.768 213.676 221.814 217.077 219.928 236.082 209.382 238.31 208.149 257.738 197.373 259.965 196.141 279.394 185.357 281.621 184.124 299.133 174.41 302.936 172.301 304.02 174.254"/>
                <polygon class="cls-4" points="304.02 204.897 299.133 207.607 281.621 217.321 279.394 218.554 259.965 229.338 257.738 230.57 238.31 241.346 236.082 242.579 217.077 253.125 214.76 254.41 213.676 252.457 217.077 250.57 236.082 240.024 238.31 238.792 257.738 228.016 259.965 226.783 279.394 215.999 281.621 214.767 299.133 205.053 302.936 202.943 304.02 204.897"/>
                <polygon class="cls-4" points="304.02 235.539 299.133 238.249 281.621 247.963 279.394 249.196 259.965 259.98 257.738 261.213 238.31 271.989 236.082 273.221 217.077 283.767 214.76 285.052 213.676 283.099 217.077 281.212 236.082 270.667 238.31 269.434 257.738 258.658 259.965 257.425 279.394 246.642 281.621 245.409 299.133 235.695 302.936 233.586 304.02 235.539"/>
              </g>
              <polygon class="cls-5" points="156.491 322.393 156.491 345.482 155.934 345.17 155.934 322.081 156.491 322.393"/>
              <g>
                <polygon class="cls-4" points="156.491 347.049 154.59 345.995 152.764 344.981 138.206 336.904 135.978 335.672 135.978 309.441 152.832 318.789 154.59 319.764 156.491 320.818 156.491 347.049"/>
                <polygon class="cls-5" points="155.236 321.724 155.236 344.754 153.572 343.826 151.968 342.935 139.187 335.85 137.234 334.766 137.234 311.736 138.719 312.56 152.027 319.942 153.572 320.796 155.236 321.724"/>
                <polygon class="cls-6" points="155.236 321.724 155.236 344.754 153.572 343.826 151.968 342.935 139.187 335.85 137.234 334.766 138.719 334.023 138.719 312.56 152.027 319.942 153.572 320.796 155.236 321.724"/>
                <polygon class="cls-7" points="155.236 321.724 155.236 343.18 155.057 343.083 153.453 342.192 140.672 335.107 138.719 334.023 138.719 312.56 152.027 319.942 153.572 320.796 155.236 321.724"/>
                <polygon class="cls-4" points="156.491 320.818 156.491 347.049 154.59 345.995 154.59 319.764 156.491 320.818"/>
                <path class="cls-3" d="M152.59391,333.24875a.18353.18353,0,0,1-.09-.0232l-.8191-.454a.1858.1858,0,0,1-.0958-.1625v-3.9519a.18533.18533,0,0,1,.2756-.1624l.8192.454a.18569.18569,0,0,1-.1799.3249l-.5435-.301v3.5269l.7234.4011a.18566.18566,0,0,1-.0899.3481Z"/>
              </g>
              <g>
                <g>
                  <polygon class="cls-4" points="177.003 332.196 177.003 358.427 156.491 347.049 154.59 345.995 154.59 319.764 156.491 320.818 177.003 332.196"/>
                  <polygon class="cls-5" points="175.659 333.02 175.659 356.11 157.605 346.099 156.491 345.482 156.491 322.393 157.605 323.009 158.162 323.321 175.659 333.02"/>
                  <polygon class="cls-6" points="175.659 333.02 175.659 356.11 157.605 346.099 156.491 345.482 157.976 344.739 157.976 326.615 157.976 323.217 175.659 333.02"/>
                  <polygon class="cls-7" points="175.659 333.02 175.659 354.543 159.09 345.356 157.976 344.739 157.976 323.217 158.162 323.321 175.659 333.02"/>
                </g>
                <path class="cls-3" d="M160.26561,336.59075a.18343.18343,0,0,1-.0899-.0232l-.8192-.454a.18583.18583,0,0,1-.0957-.1625v-3.9519a.18542.18542,0,0,1,.2756-.1625l.8191.454a.18571.18571,0,1,1-.1798.325l-.5436-.301v3.5269l.7234.401a.1857.1857,0,0,1-.0899.3482Z"/>
              </g>
              <g>
                <polygon class="cls-9" points="258.852 347.158 260.753 346.103 262.579 345.09 277.136 337.013 279.364 335.78 279.364 309.549 262.51 318.898 260.753 319.872 258.852 320.927 258.852 347.158"/>
                <polygon class="cls-6" points="260.107 321.833 260.107 344.863 261.77 343.935 263.374 343.043 276.156 335.958 278.109 334.874 278.109 311.844 276.623 312.669 263.315 320.051 261.77 320.905 260.107 321.833"/>
                <polygon class="cls-8" points="260.107 321.833 260.107 344.863 261.77 343.935 263.374 343.043 276.156 335.958 278.109 334.874 276.623 334.131 276.623 312.669 263.315 320.051 261.77 320.905 260.107 321.833"/>
                <polygon class="cls-5" points="260.107 321.833 260.107 343.289 260.285 343.192 261.889 342.301 274.67 335.216 276.623 334.131 276.623 312.669 263.315 320.051 261.77 320.905 260.107 321.833"/>
                <polygon class="cls-4" points="258.852 320.927 258.852 347.158 260.753 346.103 260.753 319.872 258.852 320.927"/>
                <path class="cls-3" d="M262.74821,333.35735a.18245.18245,0,0,0,.09-.0232l.8192-.454a.18555.18555,0,0,0,.0957-.1624v-3.952a.18542.18542,0,0,0-.2756-.1624l-.8192.454a.18569.18569,0,0,0,.1799.3249l.5436-.301v3.5269l-.7235.4011a.18566.18566,0,0,0,.0899.3481Z"/>
              </g>
              <g>
                <g>
                  <polygon class="cls-9" points="238.339 332.305 238.339 358.535 258.852 347.158 260.753 346.103 260.753 319.872 258.852 320.927 238.339 332.305"/>
                  <polygon class="cls-6" points="239.683 333.129 239.683 356.218 257.738 346.207 258.852 345.591 258.852 322.501 257.738 323.118 257.181 323.43 239.683 333.129"/>
                  <polygon class="cls-8" points="239.683 333.129 239.683 356.218 257.738 346.207 258.852 345.591 257.366 344.848 257.366 326.723 257.366 323.326 239.683 333.129"/>
                  <polygon class="cls-5" points="239.683 333.129 239.683 354.651 256.252 345.464 257.366 344.848 257.366 323.326 257.181 323.43 239.683 333.129"/>
                </g>
                <path class="cls-3" d="M255.07651,336.69935a.18288.18288,0,0,0,.0899-.0232l.8192-.454a.1858.1858,0,0,0,.0958-.1625v-3.9519a.18533.18533,0,0,0-.2756-.1624l-.8192.454a.18567.18567,0,0,0,.1798.3249l.5436-.301v3.5269l-.7234.4011a.18566.18566,0,0,0,.0899.3481Z"/>
              </g>
            </g>
            <g>
              <path class="cls-1" d="M523.97551,276.30045v155.4907h-.0148a7.32843,7.32843,0,0,1-3.8099,6.2978l-118.0235,65.4655a7.40046,7.40046,0,0,1-7.2038,0L235.868,415.33385a7.331,7.331,0,0,1-3.8098-6.3646h-.0148V253.36715h125.0564v52.8996a7.4,7.4,0,0,1,4.003.9061l37.4226,20.7573,8.6892,4.8199v-56.4496Z"/>
              <path class="cls-4" d="M523.97551,276.30045v155.4907h-.0148a7.32843,7.32843,0,0,1-3.8099,6.2978l-118.0235,65.4655a7.40367,7.40367,0,0,1-3.6019.9357v-176.56l8.6892,4.8199v-56.4496Z"/>
              <path class="cls-10" d="M235.87061,260.03465l159.0505,88.2236a7.42665,7.42665,0,0,0,7.2047,0l118.0243-65.4669a7.42657,7.42657,0,0,0,0-12.9888L361.09971,181.579a7.42665,7.42665,0,0,0-7.2047,0l-118.0244,65.4669A7.42664,7.42664,0,0,0,235.87061,260.03465Z"/>
              <path class="cls-4" d="M499.97281,279.54585l-.8392.4679-98.811,54.8083a3.73887,3.73887,0,0,1-3.6018,0l-139.8355-77.5708-.8392-.4605a3.71816,3.71816,0,0,1,0-6.4983l99.6501-55.2761a3.69971,3.69971,0,0,1,3.6019,0l140.6747,78.0313A3.71284,3.71284,0,0,1,499.97281,279.54585Z"/>
              <path class="cls-2" d="M499.13361,280.01375l-98.811,54.8083a3.73887,3.73887,0,0,1-3.6018,0l-139.8355-77.5708,98.8109-54.8083a3.69971,3.69971,0,0,1,3.6019,0Z"/>
              <path class="cls-10" d="M355.41771,464.30585v33.2786a.23075.23075,0,0,1-.1189.2079l-2.8146,1.5596a.2103.2103,0,0,1-.1114.0297.21836.21836,0,0,1-.1188-.0297l-2.8073-1.5596a.238.238,0,0,1-.1263-.2079v-33.2786Z"/>
              <path class="cls-11" d="M355.41771,464.30585v33.2786a.23075.23075,0,0,1-.1189.2079l-2.8146,1.5596a.2103.2103,0,0,1-.1114.0297v-35.0758Z"/>
              <path class="cls-10" d="M211.826,384.50405v33.2786a.23053.23053,0,0,1-.1189.2079l-2.8147,1.5596a.20916.20916,0,0,1-.1114.0297.21772.21772,0,0,1-.1188-.0297l-2.8073-1.5596a.23789.23789,0,0,1-.1262-.2079v-33.2786Z"/>
              <polygon class="cls-3" points="268.23 433.102 319.513 461.548 319.513 444.228 268.319 415.831 268.23 433.102"/>
              <path class="cls-11" d="M211.826,384.50405v33.2786a.23053.23053,0,0,1-.1189.2079l-2.8147,1.5596a.20916.20916,0,0,1-.1114.0297v-35.0758Z"/>
              <path class="cls-4" d="M390.579,442.34325v3.1131l-158.5802-87.9628-24.6031,13.647h-9.0305v7.1958a3.6764,3.6764,0,0,0,1.9121,3.2472l157.0702,87.1252a7.42684,7.42684,0,0,0,7.2048,0l33.9731-18.8446v-7.5209Z"/>
              <path class="cls-10" d="M364.55231,461.28215l33.9731-18.8446L231.99881,350.067l-31.7215,17.5956a3.71336,3.71336,0,0,0,0,6.4944l157.0703,87.1252A7.42665,7.42665,0,0,0,364.55231,461.28215Z"/>
              <g>
                <polygon class="cls-5" points="269.168 294.676 269.168 320.67 248.01 308.935 248.01 282.942 250.238 284.175 267.683 293.852 269.168 294.676"/>
                <polygon class="cls-6" points="269.168 294.676 269.168 320.67 248.01 308.935 250.238 308.193 250.238 284.175 267.683 293.852 269.168 294.676"/>
                <polygon class="cls-7" points="269.168 294.676 269.168 318.694 250.238 308.193 250.238 284.175 267.683 293.852 269.168 294.676"/>
                <polygon class="cls-5" points="305.233 314.682 305.233 340.675 284.075 328.941 284.075 302.948 286.303 304.181 303.748 313.857 305.233 314.682"/>
                <polygon class="cls-6" points="305.233 314.682 305.233 340.675 284.075 328.941 286.303 328.198 286.303 304.181 303.748 313.857 305.233 314.682"/>
                <polygon class="cls-7" points="305.233 314.682 305.233 338.699 286.303 328.198 286.303 304.181 303.748 313.857 305.233 314.682"/>
                <polygon class="cls-5" points="341.299 334.687 341.299 360.68 320.14 348.946 320.14 322.953 322.368 324.186 339.813 333.863 341.299 334.687"/>
                <polygon class="cls-6" points="341.299 334.687 341.299 360.68 320.14 348.946 322.368 348.204 322.368 324.186 339.813 333.863 341.299 334.687"/>
                <polygon class="cls-7" points="341.299 334.687 341.299 358.705 322.368 348.204 322.368 324.186 339.813 333.863 341.299 334.687"/>
                <polygon class="cls-5" points="377.364 354.693 377.364 380.686 356.206 368.952 356.206 342.959 358.434 344.191 375.879 353.868 377.364 354.693"/>
                <polygon class="cls-6" points="377.364 354.693 377.364 380.686 356.206 368.952 358.434 368.209 358.434 344.191 375.879 353.868 377.364 354.693"/>
                <polygon class="cls-7" points="377.364 354.693 377.364 378.71 358.434 368.209 358.434 344.191 375.879 353.868 377.364 354.693"/>
              </g>
              <g>
                <polygon class="cls-5" points="269.168 332.145 269.168 358.139 248.01 346.404 248.01 320.411 250.238 321.644 267.683 331.321 269.168 332.145"/>
                <polygon class="cls-6" points="269.168 332.145 269.168 358.139 248.01 346.404 250.238 345.662 250.238 321.644 267.683 331.321 269.168 332.145"/>
                <polygon class="cls-7" points="269.168 332.145 269.168 356.163 250.238 345.662 250.238 321.644 267.683 331.321 269.168 332.145"/>
                <polygon class="cls-5" points="305.233 352.151 305.233 378.144 284.075 366.41 284.075 340.417 286.303 341.65 303.748 351.326 305.233 352.151"/>
                <polygon class="cls-6" points="305.233 352.151 305.233 378.144 284.075 366.41 286.303 365.667 286.303 341.65 303.748 351.326 305.233 352.151"/>
                <polygon class="cls-7" points="305.233 352.151 305.233 376.168 286.303 365.667 286.303 341.65 303.748 351.326 305.233 352.151"/>
                <polygon class="cls-5" points="341.299 372.156 341.299 398.149 320.14 386.415 320.14 360.422 322.368 361.655 339.813 371.332 341.299 372.156"/>
                <polygon class="cls-6" points="341.299 372.156 341.299 398.149 320.14 386.415 322.368 385.673 322.368 361.655 339.813 371.332 341.299 372.156"/>
                <polygon class="cls-7" points="341.299 372.156 341.299 396.174 322.368 385.673 322.368 361.655 339.813 371.332 341.299 372.156"/>
                <polygon class="cls-5" points="377.364 392.162 377.364 418.155 356.206 406.421 356.206 380.428 358.434 381.66 375.879 391.337 377.364 392.162"/>
                <polygon class="cls-6" points="377.364 392.162 377.364 418.155 356.206 406.421 358.434 405.678 358.434 381.66 375.879 391.337 377.364 392.162"/>
                <polygon class="cls-7" points="377.364 392.162 377.364 416.179 358.434 405.678 358.434 381.66 375.879 391.337 377.364 392.162"/>
              </g>
              <g>
                <path class="cls-1" d="M361.10641,264.89235v14.8309h-.0222a1.45591,1.45591,0,0,1-.7427,1.1437l-17.4525,9.6769a1.437,1.437,0,0,1-.9357.1708,1.35778,1.35778,0,0,1-.505-.1708l-48.065-26.6244a1.488,1.488,0,0,1-.7649-1.2922v-14.6675h19.2571v3.535a1.30589,1.30589,0,0,1,.401.1486l29.6768,16.4424,4.9906,2.7627v-5.9561Z"/>
                <path class="cls-4" d="M361.10641,264.89235v14.8309h-.0222a1.45591,1.45591,0,0,1-.7427,1.1437l-17.4525,9.6769a1.437,1.437,0,0,1-.9357.1708v-22.6289l4.9906,2.7627v-5.9561Z"/>
                <path class="cls-10" d="M293.38491,246.66135l17.451-9.6798a1.48515,1.48515,0,0,1,1.4409,0l48.0614,26.6293a1.48535,1.48535,0,0,1,0,2.5978l-17.4509,9.6798a1.48534,1.48534,0,0,1-1.441,0l-48.0614-26.6293A1.48542,1.48542,0,0,1,293.38491,246.66135Z"/>
              </g>
              <polygon class="cls-10" points="295.768 255.907 336.738 278.601 336.738 281.993 295.768 259.296 295.768 255.907"/>
            </g>
            <g>
              <g>
                <path class="cls-1" d="M614.84941,504.99015h.0013V489.758h-4.2745v3.5405l-86.5508-40.5822a7.95944,7.95944,0,0,0-7.7222,0L420.75361,498.29v-2.3132h-6.2925v15.4556h.0032a3.93827,3.93827,0,0,0,2.0419,3.6011l88.8037,49.2584a7.95963,7.95963,0,0,0,7.7223,0l99.7969-55.3563A3.95127,3.95127,0,0,0,614.84941,504.99015Z"/>
                <path class="cls-3" d="M416.50621,499.64675l88.8037,49.2585a7.96016,7.96016,0,0,0,7.7223,0l99.7969-55.3563a3.98,3.98,0,0,0,0-6.9609l-88.8037-49.2585a7.96,7.96,0,0,0-7.7222,0l-99.797,55.3563A3.98,3.98,0,0,0,416.50621,499.64675Z"/>
                <path class="cls-4" d="M596.70071,493.47475l-1.4556.8096L513.3,539.74255a6.64961,6.64961,0,0,1-6.4537,0l-72.7658-40.3636-1.4482-.8021a3.32785,3.32785,0,0,1,0-5.8224l83.4007-46.2603a6.64909,6.64909,0,0,1,6.4537,0l74.214,41.1656A3.32158,3.32158,0,0,1,596.70071,493.47475Z"/>
                <path class="cls-2" d="M595.24511,494.28435,513.3,539.74255a6.64961,6.64961,0,0,1-6.4537,0l-72.7658-40.3636,81.9525-45.4582a6.64909,6.64909,0,0,1,6.4537,0Z"/>
              </g>
              <path class="cls-1" d="M608.16,317.77215v168.1382h-.0075a3.67331,3.67331,0,0,1-1.9012,3.0747l-93.1072,51.6445a7.39977,7.39977,0,0,1-7.2038,0l-82.8586-45.9558a3.68862,3.68862,0,0,1-1.9012-3.4236V323.409l88.3617-2.6662Z"/>
              <path class="cls-4" d="M608.16,439.30105v46.6093h-.0075a3.67331,3.67331,0,0,1-1.9012,3.0747l-93.1072,51.6445a7.40434,7.40434,0,0,1-3.6019.9358v-50.1296Z"/>
              <g>
                <path class="cls-3" d="M608.13271,443.14375h.0012v-14.2109h-3.9878v3.3031l-80.7475-37.8612a7.42607,7.42607,0,0,0-7.2044,0l-89.1429,42.518v-2.1581h-5.8706V449.154h.003a3.67411,3.67411,0,0,0,1.905,3.3596l82.8493,45.9557a7.42626,7.42626,0,0,0,7.2045,0l93.1054-51.6446A3.68643,3.68643,0,0,0,608.13271,443.14375Z"/>
                <path class="cls-3" d="M423.08871,438.15865l82.8493,45.9556a7.42626,7.42626,0,0,0,7.2045,0l93.1054-51.6446a3.71319,3.71319,0,0,0,0-6.4942l-82.8493-45.9556a7.42626,7.42626,0,0,0-7.2045,0l-93.1054,51.6446A3.71319,3.71319,0,0,0,423.08871,438.15865Z"/>
              </g>
              <path class="cls-1" d="M608.16,236.07955v193.3887h-.0075a3.67329,3.67329,0,0,1-1.9012,3.0746l-93.1072,51.6446a7.40046,7.40046,0,0,1-7.2038,0l-82.8586-45.9559a3.68852,3.68852,0,0,1-1.9012-3.4236V241.71635l88.3617-2.6662Z"/>
              <path class="cls-4" d="M608.16,236.07955v193.3887h-.0075a3.67329,3.67329,0,0,1-1.9012,3.0746l-93.1072,51.6446a7.40423,7.40423,0,0,1-3.6019.9357v-246.073Z"/>
              <g>
                <path class="cls-3" d="M614.84941,235.80145h.0013v-15.2322h-4.2745v3.5405l-86.5508-40.5822a7.95944,7.95944,0,0,0-7.7222,0l-95.5496,45.5737v-2.3132h-6.2925v15.4556h.0032a3.93827,3.93827,0,0,0,2.0419,3.6011l88.8037,49.2584a7.95963,7.95963,0,0,0,7.7223,0l99.7969-55.3562A3.95141,3.95141,0,0,0,614.84941,235.80145Z"/>
                <path class="cls-1" d="M416.50621,230.45805l88.8037,49.2585a7.96016,7.96016,0,0,0,7.7223,0l99.7969-55.3563a3.98,3.98,0,0,0,0-6.9609l-88.8037-49.2585a7.96,7.96,0,0,0-7.7222,0l-99.797,55.3563A3.98,3.98,0,0,0,416.50621,230.45805Z"/>
                <path class="cls-4" d="M596.70071,224.28605l-1.4556.8096L513.3,270.55385a6.64961,6.64961,0,0,1-6.4537,0l-72.7658-40.3636-1.4482-.8021a3.32785,3.32785,0,0,1,0-5.8224l83.4007-46.2603a6.64909,6.64909,0,0,1,6.4537,0l74.214,41.1657A3.32149,3.32149,0,0,1,596.70071,224.28605Z"/>
                <path class="cls-2" d="M595.24511,225.09565,513.3,270.55385a6.64961,6.64961,0,0,1-6.4537,0l-72.7658-40.3636L516.033,184.732a6.64909,6.64909,0,0,1,6.4537,0Z"/>
              </g>
              <polygon class="cls-5" points="500.771 452.09 500.771 474.332 475.499 460.311 475.499 438.068 477.727 439.301 500.771 452.09"/>
              <polygon class="cls-6" points="500.771 452.09 500.771 474.332 475.499 460.311 477.727 459.568 477.727 439.301 500.771 452.09"/>
              <polygon class="cls-7" points="500.771 452.09 500.771 472.357 477.727 459.568 477.727 439.301 500.771 452.09"/>
              <polygon class="cls-5" points="450.129 272.217 450.129 298.211 428.971 286.476 428.971 260.483 431.199 261.716 448.644 271.393 450.129 272.217"/>
              <polygon class="cls-6" points="450.129 272.217 450.129 298.211 428.971 286.476 431.199 285.734 431.199 261.716 448.644 271.393 450.129 272.217"/>
              <polygon class="cls-7" points="450.129 272.217 450.129 296.235 431.199 285.734 431.199 261.716 448.644 271.393 450.129 272.217"/>
              <polygon class="cls-5" points="500.771 300.312 500.771 326.305 475.499 312.284 475.499 286.291 477.727 287.524 500.771 300.312"/>
              <polygon class="cls-6" points="500.771 300.312 500.771 326.305 475.499 312.284 477.727 311.541 477.727 287.524 500.771 300.312"/>
              <polygon class="cls-7" points="500.771 300.312 500.771 324.33 477.727 311.541 477.727 287.524 500.771 300.312"/>
              <polygon class="cls-5" points="450.129 301.426 450.129 328.86 428.971 317.126 428.971 289.692 431.199 290.925 450.129 301.426"/>
              <polygon class="cls-6" points="450.129 301.426 450.129 328.86 428.971 317.126 431.199 316.383 431.199 290.925 450.129 301.426"/>
              <polygon class="cls-7" points="450.129 301.426 450.129 326.885 431.199 316.383 431.199 290.925 450.129 301.426"/>
              <polygon class="cls-5" points="473.271 314.259 473.271 341.693 452.357 330.093 452.357 302.659 454.585 303.892 473.271 314.259"/>
              <polygon class="cls-6" points="473.271 314.259 473.271 341.693 452.357 330.093 454.585 329.35 454.585 303.892 473.271 314.259"/>
              <polygon class="cls-7" points="473.271 314.259 473.271 339.718 454.585 329.35 454.585 303.892 473.271 314.259"/>
              <polygon class="cls-1" points="500.771 387.59 500.771 390.798 475.499 376.776 473.271 375.544 452.357 363.943 450.129 362.711 428.971 350.976 428.971 347.768 450.129 359.502 452.357 360.735 473.271 372.335 475.499 373.568 500.771 387.59"/>
              <polygon class="cls-5" points="473.271 436.835 473.271 459.078 452.357 447.478 452.357 425.235 454.585 426.468 473.271 436.835"/>
              <polygon class="cls-6" points="473.271 436.835 473.271 459.078 452.357 447.478 454.585 446.735 454.585 426.468 473.271 436.835"/>
              <polygon class="cls-7" points="473.271 436.835 473.271 457.103 454.585 446.735 454.585 426.468 473.271 436.835"/>
              <polygon class="cls-5" points="450.129 423.995 450.129 446.245 428.971 434.511 428.971 412.261 431.199 413.494 450.129 423.995"/>
              <polygon class="cls-6" points="450.129 423.995 450.129 446.245 428.971 434.511 431.199 433.768 431.199 413.494 450.129 423.995"/>
              <polygon class="cls-7" points="450.129 423.995 450.129 444.269 431.199 433.768 431.199 413.494 450.129 423.995"/>
              <polygon class="cls-5" points="500.771 421.44 500.771 448.874 475.499 434.853 475.499 407.419 477.727 408.651 500.771 421.44"/>
              <polygon class="cls-6" points="500.771 421.44 500.771 448.874 475.499 434.853 477.727 434.11 477.727 408.651 500.771 421.44"/>
              <polygon class="cls-7" points="500.771 421.44 500.771 446.898 477.727 434.11 477.727 408.651 500.771 421.44"/>
              <polygon class="cls-5" points="473.271 406.186 473.271 433.62 452.357 422.019 452.357 394.585 454.585 395.818 473.271 406.186"/>
              <polygon class="cls-6" points="473.271 406.186 473.271 433.62 452.357 422.019 454.585 421.277 454.585 395.818 473.271 406.186"/>
              <polygon class="cls-7" points="473.271 406.186 473.271 431.644 454.585 421.277 454.585 395.818 473.271 406.186"/>
              <polygon class="cls-5" points="450.129 393.353 450.129 420.787 428.971 409.053 428.971 381.619 431.199 382.851 450.129 393.353"/>
              <polygon class="cls-6" points="450.129 393.353 450.129 420.787 428.971 409.053 431.199 408.31 431.199 382.851 450.129 393.353"/>
              <polygon class="cls-7" points="450.129 393.353 450.129 418.811 431.199 408.31 431.199 382.851 450.129 393.353"/>
              <polygon class="cls-5" points="500.771 390.798 500.771 418.232 475.499 404.21 475.499 376.776 477.727 378.009 500.771 390.798"/>
              <polygon class="cls-6" points="500.771 390.798 500.771 418.232 475.499 404.21 477.727 403.468 477.727 378.009 500.771 390.798"/>
              <polygon class="cls-7" points="500.771 390.798 500.771 416.256 477.727 403.468 477.727 378.009 500.771 390.798"/>
              <polygon class="cls-5" points="473.271 375.544 473.271 402.978 452.357 391.377 452.357 363.943 454.585 365.176 473.271 375.544"/>
              <polygon class="cls-6" points="473.271 375.544 473.271 402.978 452.357 391.377 454.585 390.635 454.585 365.176 473.271 375.544"/>
              <polygon class="cls-7" points="473.271 375.544 473.271 401.002 454.585 390.635 454.585 365.176 473.271 375.544"/>
              <polygon class="cls-5" points="450.129 362.711 450.129 390.144 428.971 378.41 428.971 350.976 431.199 352.209 450.129 362.711"/>
              <polygon class="cls-6" points="450.129 362.711 450.129 390.144 428.971 378.41 431.199 377.668 431.199 352.209 450.129 362.711"/>
              <polygon class="cls-7" points="450.129 362.711 450.129 388.169 431.199 377.668 431.199 352.209 450.129 362.711"/>
              <polygon class="cls-5" points="500.771 360.156 500.771 387.59 475.499 373.568 475.499 346.134 477.727 347.367 500.771 360.156"/>
              <polygon class="cls-6" points="500.771 360.156 500.771 387.59 475.499 373.568 477.727 372.826 477.727 347.367 500.771 360.156"/>
              <polygon class="cls-7" points="500.771 360.156 500.771 385.614 477.727 372.826 477.727 347.367 500.771 360.156"/>
              <polygon class="cls-5" points="473.271 344.902 473.271 372.335 452.357 360.735 452.357 333.301 454.585 334.534 473.271 344.902"/>
              <polygon class="cls-6" points="473.271 344.902 473.271 372.335 452.357 360.735 454.585 359.992 454.585 334.534 473.271 344.902"/>
              <polygon class="cls-7" points="473.271 344.902 473.271 370.36 454.585 359.992 454.585 334.534 473.271 344.902"/>
              <polygon class="cls-5" points="450.129 332.068 450.129 359.502 428.971 347.768 428.971 320.334 431.199 321.567 450.129 332.068"/>
              <polygon class="cls-6" points="450.129 332.068 450.129 359.502 428.971 347.768 431.199 347.026 431.199 321.567 450.129 332.068"/>
              <polygon class="cls-7" points="450.129 332.068 450.129 357.527 431.199 347.026 431.199 321.567 450.129 332.068"/>
              <polygon class="cls-5" points="500.771 329.514 500.771 356.947 475.499 342.926 475.499 315.492 477.727 316.725 500.771 329.514"/>
              <polygon class="cls-6" points="500.771 329.514 500.771 356.947 475.499 342.926 477.727 342.183 477.727 316.725 500.771 329.514"/>
              <polygon class="cls-7" points="500.771 329.514 500.771 354.972 477.727 342.183 477.727 316.725 500.771 329.514"/>
              <polygon class="cls-5" points="473.271 285.058 473.271 311.051 452.357 299.451 452.357 273.458 454.585 274.69 473.271 285.058"/>
              <polygon class="cls-6" points="473.271 285.058 473.271 311.051 452.357 299.451 454.585 298.708 454.585 274.69 473.271 285.058"/>
              <polygon class="cls-7" points="473.271 285.058 473.271 309.076 454.585 298.708 454.585 274.69 473.271 285.058"/>
              <polygon class="cls-1" points="500.771 326.305 500.771 329.514 475.499 315.492 473.271 314.259 452.357 302.659 450.129 301.426 428.971 289.692 428.971 286.476 450.129 298.211 452.357 299.451 473.271 311.051 475.499 312.284 500.771 326.305"/>
              <polygon class="cls-1" points="500.771 356.947 500.771 360.156 475.499 346.134 473.271 344.902 452.357 333.301 450.129 332.068 428.971 320.334 428.971 317.126 450.129 328.86 452.357 330.093 473.271 341.693 475.499 342.926 500.771 356.947"/>
              <polygon class="cls-1" points="500.771 418.232 500.771 421.44 475.499 407.419 473.271 406.186 452.357 394.585 450.129 393.353 428.971 381.619 428.971 378.41 450.129 390.144 452.357 391.377 473.271 402.978 475.499 404.21 500.771 418.232"/>
              <polygon class="cls-1" points="500.771 448.874 500.771 452.09 475.499 438.068 473.271 436.835 452.357 425.235 450.129 423.995 428.971 412.261 428.971 409.053 450.129 420.787 452.357 422.019 473.271 433.62 475.499 434.853 500.771 448.874"/>
              <rect class="cls-1" x="450.12941" y="270.14535" width="2.228" height="182.0111"/>
              <rect class="cls-1" x="473.27061" y="280.29015" width="2.228" height="182.0185"/>
              <polygon class="cls-6" points="537.845 289.781 537.845 315.24 518.84 325.785 518.84 300.327 535.617 291.014 537.845 289.781"/>
              <polygon class="cls-8" points="535.617 314.497 537.845 315.24 518.84 325.785 518.84 300.327 535.617 291.014 535.617 314.497"/>
              <polygon class="cls-5" points="535.617 291.014 535.617 314.497 518.84 323.81 518.84 300.327 535.617 291.014"/>
              <polygon class="cls-6" points="559.501 277.772 559.501 303.231 540.073 314.007 540.073 288.548 557.273 279.005 559.501 277.772"/>
              <polygon class="cls-8" points="557.273 302.488 559.501 303.231 540.073 314.007 540.073 288.548 557.273 279.005 557.273 302.488"/>
              <polygon class="cls-5" points="557.273 279.005 557.273 302.488 540.073 312.031 540.073 288.548 557.273 279.005"/>
              <polygon class="cls-6" points="581.157 265.756 581.157 291.215 561.729 301.998 561.729 276.54 578.929 266.996 581.157 265.756"/>
              <polygon class="cls-8" points="578.929 290.472 581.157 291.215 561.729 301.998 561.729 276.54 578.929 266.996 578.929 290.472"/>
              <polygon class="cls-5" points="578.929 266.996 578.929 290.472 561.729 300.015 561.729 276.54 578.929 266.996"/>
              <polygon class="cls-6" points="600.897 254.809 600.897 280.268 583.385 289.982 583.385 264.523 598.669 256.042 600.897 254.809"/>
              <polygon class="cls-8" points="598.669 279.525 600.897 280.268 583.385 289.982 583.385 264.523 598.669 256.042 598.669 279.525"/>
              <polygon class="cls-5" points="598.669 256.042 598.669 279.525 583.385 288.006 583.385 264.523 598.669 256.042"/>
              <polygon class="cls-6" points="600.897 282.823 600.897 310.91 583.385 320.624 583.385 292.537 598.669 284.055 600.897 282.823"/>
              <polygon class="cls-8" points="598.669 310.167 600.897 310.91 583.385 320.624 583.385 292.537 598.669 284.055 598.669 310.167"/>
              <polygon class="cls-5" points="598.669 284.055 598.669 310.167 583.385 318.648 583.385 292.537 598.669 284.055"/>
              <polygon class="cls-6" points="581.157 293.769 581.157 321.857 561.729 332.64 561.729 304.553 578.929 295.01 581.157 293.769"/>
              <polygon class="cls-8" points="578.929 321.114 581.157 321.857 561.729 332.64 561.729 304.553 578.929 295.01 578.929 321.114"/>
              <polygon class="cls-5" points="578.929 295.01 578.929 321.114 561.729 330.657 561.729 304.553 578.929 295.01"/>
              <polygon class="cls-6" points="537.845 440.363 537.845 463.051 518.84 473.59 518.84 450.909 535.617 441.596 537.845 440.363"/>
              <polygon class="cls-6" points="559.501 428.354 559.501 451.035 540.073 461.811 540.073 439.13 557.273 429.587 559.501 428.354"/>
              <polygon class="cls-6" points="581.157 416.338 581.157 439.026 561.729 449.802 561.729 427.121 578.929 417.578 581.157 416.338"/>
              <polygon class="cls-6" points="600.897 405.391 600.897 428.079 583.385 437.793 583.385 415.105 598.669 406.624 600.897 405.391"/>
              <polygon class="cls-8" points="535.617 462.309 537.845 463.051 518.84 473.59 518.84 450.909 535.617 441.596 535.617 462.309"/>
              <polygon class="cls-8" points="557.273 450.292 559.501 451.035 540.073 461.811 540.073 439.13 557.273 429.587 557.273 450.292"/>
              <polygon class="cls-8" points="578.929 438.284 581.157 439.026 561.729 449.802 561.729 427.121 578.929 417.578 578.929 438.284"/>
              <polygon class="cls-8" points="598.669 427.337 600.897 428.079 583.385 437.793 583.385 415.105 598.669 406.624 598.669 427.337"/>
              <polygon class="cls-5" points="535.617 441.596 535.617 462.309 518.84 471.614 518.84 450.909 535.617 441.596"/>
              <polygon class="cls-5" points="557.273 429.587 557.273 450.292 540.073 459.836 540.073 439.13 557.273 429.587"/>
              <polygon class="cls-5" points="578.929 417.578 578.929 438.284 561.729 447.827 561.729 427.121 578.929 417.578"/>
              <polygon class="cls-5" points="598.669 406.624 598.669 427.337 583.385 435.818 583.385 415.105 598.669 406.624"/>
              <polygon class="cls-6" points="600.897 374.749 600.897 402.836 583.385 412.55 583.385 384.463 598.669 375.982 600.897 374.749"/>
              <polygon class="cls-6" points="581.157 385.696 581.157 413.783 561.729 424.567 561.729 396.479 578.929 386.936 581.157 385.696"/>
              <polygon class="cls-6" points="559.501 397.712 559.501 425.799 540.073 436.575 540.073 408.488 557.273 398.945 559.501 397.712"/>
              <polygon class="cls-6" points="537.845 409.721 537.845 437.808 518.84 448.354 518.84 420.267 535.617 410.954 537.845 409.721"/>
              <polygon class="cls-8" points="598.669 402.094 600.897 402.836 583.385 412.55 583.385 384.463 598.669 375.982 598.669 402.094"/>
              <polygon class="cls-8" points="578.929 413.041 581.157 413.783 561.729 424.567 561.729 396.479 578.929 386.936 578.929 413.041"/>
              <polygon class="cls-8" points="557.273 425.057 559.501 425.799 540.073 436.575 540.073 408.488 557.273 398.945 557.273 425.057"/>
              <polygon class="cls-8" points="535.617 437.066 537.845 437.808 518.84 448.354 518.84 420.267 535.617 410.954 535.617 437.066"/>
              <polygon class="cls-5" points="598.669 375.982 598.669 402.094 583.385 410.575 583.385 384.463 598.669 375.982"/>
              <polygon class="cls-5" points="578.929 386.936 578.929 413.041 561.729 422.584 561.729 396.479 578.929 386.936"/>
              <polygon class="cls-5" points="557.273 398.945 557.273 425.057 540.073 434.6 540.073 408.488 557.273 398.945"/>
              <polygon class="cls-5" points="535.617 410.954 535.617 437.066 518.84 446.379 518.84 420.267 535.617 410.954"/>
              <polygon class="cls-6" points="537.845 379.079 537.845 407.166 518.84 417.712 518.84 389.624 535.617 380.312 537.845 379.079"/>
              <polygon class="cls-6" points="559.501 367.07 559.501 395.157 540.073 405.933 540.073 377.846 557.273 368.303 559.501 367.07"/>
              <polygon class="cls-6" points="581.157 355.054 581.157 383.141 561.729 393.925 561.729 365.837 578.929 356.294 581.157 355.054"/>
              <polygon class="cls-6" points="600.897 344.107 600.897 372.194 583.385 381.908 583.385 353.821 598.669 345.34 600.897 344.107"/>
              <polygon class="cls-8" points="535.617 406.423 537.845 407.166 518.84 417.712 518.84 389.624 535.617 380.312 535.617 406.423"/>
              <polygon class="cls-8" points="557.273 394.415 559.501 395.157 540.073 405.933 540.073 377.846 557.273 368.303 557.273 394.415"/>
              <polygon class="cls-8" points="578.929 382.398 581.157 383.141 561.729 393.925 561.729 365.837 578.929 356.294 578.929 382.398"/>
              <polygon class="cls-8" points="598.669 371.452 600.897 372.194 583.385 381.908 583.385 353.821 598.669 345.34 598.669 371.452"/>
              <polygon class="cls-5" points="535.617 380.312 535.617 406.423 518.84 415.736 518.84 389.624 535.617 380.312"/>
              <polygon class="cls-5" points="557.273 368.303 557.273 394.415 540.073 403.958 540.073 377.846 557.273 368.303"/>
              <polygon class="cls-5" points="578.929 356.294 578.929 382.398 561.729 391.942 561.729 365.837 578.929 356.294"/>
              <polygon class="cls-5" points="598.669 345.34 598.669 371.452 583.385 379.933 583.385 353.821 598.669 345.34"/>
              <polygon class="cls-6" points="600.897 313.465 600.897 341.552 583.385 351.266 583.385 323.179 598.669 314.698 600.897 313.465"/>
              <polygon class="cls-6" points="581.157 324.412 581.157 352.499 561.729 363.282 561.729 335.195 578.929 325.652 581.157 324.412"/>
              <polygon class="cls-6" points="559.501 336.428 559.501 364.515 540.073 375.291 540.073 347.204 557.273 337.661 559.501 336.428"/>
              <polygon class="cls-6" points="537.845 348.437 537.845 376.524 518.84 387.07 518.84 358.982 535.617 349.669 537.845 348.437"/>
              <polygon class="cls-8" points="598.669 340.809 600.897 341.552 583.385 351.266 583.385 323.179 598.669 314.698 598.669 340.809"/>
              <polygon class="cls-8" points="578.929 351.756 581.157 352.499 561.729 363.282 561.729 335.195 578.929 325.652 578.929 351.756"/>
              <polygon class="cls-8" points="557.273 363.773 559.501 364.515 540.073 375.291 540.073 347.204 557.273 337.661 557.273 363.773"/>
              <polygon class="cls-8" points="535.617 375.781 537.845 376.524 518.84 387.07 518.84 358.982 535.617 349.669 535.617 375.781"/>
              <polygon class="cls-5" points="598.669 314.698 598.669 340.809 583.385 349.291 583.385 323.179 598.669 314.698"/>
              <polygon class="cls-5" points="578.929 325.652 578.929 351.756 561.729 361.299 561.729 335.195 578.929 325.652"/>
              <polygon class="cls-5" points="557.273 337.661 557.273 363.773 540.073 373.316 540.073 347.204 557.273 337.661"/>
              <polygon class="cls-5" points="535.617 349.669 535.617 375.781 518.84 385.094 518.84 358.982 535.617 349.669"/>
              <polygon class="cls-6" points="537.845 317.794 537.845 345.882 518.84 356.428 518.84 328.34 535.617 319.027 537.845 317.794"/>
              <polygon class="cls-8" points="535.617 345.139 537.845 345.882 518.84 356.428 518.84 328.34 535.617 319.027 535.617 345.139"/>
              <polygon class="cls-5" points="535.617 319.027 535.617 345.139 518.84 354.452 518.84 328.34 535.617 319.027"/>
              <polygon class="cls-6" points="559.501 305.786 559.501 333.873 540.073 344.649 540.073 316.562 557.273 307.018 559.501 305.786"/>
              <polygon class="cls-8" points="557.273 333.13 559.501 333.873 540.073 344.649 540.073 316.562 557.273 307.018 557.273 333.13"/>
              <polygon class="cls-5" points="557.273 307.018 557.273 333.13 540.073 342.674 540.073 316.562 557.273 307.018"/>
              <g>
                <rect class="cls-4" x="581.15691" y="257.25275" width="2.228" height="183.645"/>
                <rect class="cls-4" x="559.50091" y="270.99195" width="2.228" height="183.645"/>
                <rect class="cls-4" x="537.84491" y="284.73125" width="2.228" height="183.6449"/>
              </g>
              <g>
                <polygon class="cls-4" points="605.784 280.112 600.897 282.823 583.385 292.537 581.157 293.769 561.729 304.553 559.501 305.786 540.073 316.562 537.845 317.794 518.84 328.34 516.523 329.625 515.439 327.672 518.84 325.785 537.845 315.24 540.073 314.007 559.501 303.231 561.729 301.998 581.157 291.215 583.385 289.982 600.897 280.268 604.699 278.159 605.784 280.112"/>
                <polygon class="cls-4" points="605.784 310.754 600.897 313.465 583.385 323.179 581.157 324.412 561.729 335.195 559.501 336.428 540.073 347.204 537.845 348.437 518.84 358.982 516.523 360.267 515.439 358.314 518.84 356.428 537.845 345.882 540.073 344.649 559.501 333.873 561.729 332.64 581.157 321.857 583.385 320.624 600.897 310.91 604.699 308.801 605.784 310.754"/>
                <polygon class="cls-4" points="605.784 341.396 600.897 344.107 583.385 353.821 581.157 355.054 561.729 365.837 559.501 367.07 540.073 377.846 537.845 379.079 518.84 389.624 516.523 390.909 515.439 388.956 518.84 387.07 537.845 376.524 540.073 375.291 559.501 364.515 561.729 363.282 581.157 352.499 583.385 351.266 600.897 341.552 604.699 339.443 605.784 341.396"/>
                <polygon class="cls-4" points="605.784 372.038 600.897 374.749 583.385 384.463 581.157 385.696 561.729 396.479 559.501 397.712 540.073 408.488 537.845 409.721 518.84 420.267 516.523 421.551 515.439 419.598 518.84 417.712 537.845 407.166 540.073 405.933 559.501 395.157 561.729 393.925 581.157 383.141 583.385 381.908 600.897 372.194 604.699 370.085 605.784 372.038"/>
                <polygon class="cls-4" points="605.784 402.68 600.897 405.391 583.385 415.105 581.157 416.338 561.729 427.121 559.501 428.354 540.073 439.13 537.845 440.363 518.84 450.909 516.523 452.194 515.439 450.24 518.84 448.354 537.845 437.808 540.073 436.575 559.501 425.799 561.729 424.567 581.157 413.783 583.385 412.55 600.897 402.836 604.699 400.727 605.784 402.68"/>
              </g>
              <polygon class="cls-5" points="458.254 489.535 458.254 512.624 457.697 512.312 457.697 489.223 458.254 489.535"/>
              <g>
                <polygon class="cls-4" points="458.254 514.191 456.353 513.136 454.527 512.123 439.97 504.046 437.742 502.813 437.742 476.583 454.596 485.931 456.353 486.906 458.254 487.96 458.254 514.191"/>
                <polygon class="cls-5" points="456.999 488.866 456.999 511.896 455.335 510.968 453.731 510.077 440.95 502.992 438.997 501.907 438.997 478.877 440.482 479.702 453.791 487.084 455.335 487.938 456.999 488.866"/>
                <polygon class="cls-6" points="456.999 488.866 456.999 511.896 455.335 510.968 453.731 510.077 440.95 502.992 438.997 501.907 440.482 501.165 440.482 479.702 453.791 487.084 455.335 487.938 456.999 488.866"/>
                <polygon class="cls-7" points="456.999 488.866 456.999 510.322 456.821 510.225 455.217 509.334 442.435 502.249 440.482 501.165 440.482 479.702 453.791 487.084 455.335 487.938 456.999 488.866"/>
                <polygon class="cls-4" points="458.254 487.96 458.254 514.191 456.353 513.136 456.353 486.906 458.254 487.96"/>
                <path class="cls-3" d="M454.35731,500.39045a.18182.18182,0,0,1-.0899-.0232l-.8192-.454a.18555.18555,0,0,1-.0957-.1624v-3.952a.18537.18537,0,0,1,.2756-.1624l.8191.454a.18567.18567,0,1,1-.1798.3249l-.5436-.301v3.5269l.7234.4011a.18563.18563,0,0,1-.0899.3481Z"/>
              </g>
              <g>
                <g>
                  <polygon class="cls-4" points="478.766 499.338 478.766 525.568 458.254 514.191 456.353 513.136 456.353 486.906 458.254 487.96 478.766 499.338"/>
                  <polygon class="cls-5" points="477.422 500.162 477.422 523.251 459.368 513.24 458.254 512.624 458.254 489.535 459.368 490.151 459.925 490.463 477.422 500.162"/>
                  <polygon class="cls-6" points="477.422 500.162 477.422 523.251 459.368 513.24 458.254 512.624 459.739 511.881 459.739 493.757 459.739 490.359 477.422 500.162"/>
                  <polygon class="cls-7" points="477.422 500.162 477.422 521.684 460.853 512.498 459.739 511.881 459.739 490.359 459.925 490.463 477.422 500.162"/>
                </g>
                <path class="cls-3" d="M462.029,503.73245a.18343.18343,0,0,1-.0899-.0232l-.8192-.454a.18571.18571,0,0,1-.0957-.1625v-3.9519a.18533.18533,0,0,1,.2756-.1624l.8192.454a.18569.18569,0,0,1-.1799.3249l-.5436-.301v3.5269l.7235.4011a.18566.18566,0,0,1-.09.3481Z"/>
              </g>
              <g>
                <polygon class="cls-9" points="560.615 514.3 562.516 513.245 564.342 512.232 578.899 504.155 581.127 502.922 581.127 476.691 564.273 486.039 562.516 487.014 560.615 488.069 560.615 514.3"/>
                <polygon class="cls-6" points="561.87 488.975 561.87 512.005 563.534 511.076 565.138 510.185 577.919 503.1 579.872 502.016 579.872 478.986 578.387 479.81 565.078 487.192 563.534 488.046 561.87 488.975"/>
                <polygon class="cls-8" points="561.87 488.975 561.87 512.005 563.534 511.076 565.138 510.185 577.919 503.1 579.872 502.016 578.387 501.273 578.387 479.81 565.078 487.192 563.534 488.046 561.87 488.975"/>
                <polygon class="cls-5" points="561.87 488.975 561.87 510.43 562.048 510.334 563.652 509.442 576.434 502.358 578.387 501.273 578.387 479.81 565.078 487.192 563.534 488.046 561.87 488.975"/>
                <polygon class="cls-4" points="560.615 488.069 560.615 514.3 562.516 513.245 562.516 487.014 560.615 488.069"/>
                <path class="cls-3" d="M564.51171,500.49915a.18343.18343,0,0,0,.0899-.0232l.8192-.4541a.18555.18555,0,0,0,.0957-.1624v-3.9519a.18542.18542,0,0,0-.2756-.1625l-.8192.454a.18569.18569,0,0,0,.1799.3249l.5436-.3009V499.75l-.7235.401a.18573.18573,0,0,0,.09.3482Z"/>
              </g>
              <g>
                <g>
                  <polygon class="cls-9" points="540.103 499.446 540.103 525.677 560.615 514.3 562.516 513.245 562.516 487.014 560.615 488.069 540.103 499.446"/>
                  <polygon class="cls-6" points="541.447 500.271 541.447 523.36 559.501 513.349 560.615 512.732 560.615 489.643 559.501 490.26 558.944 490.572 541.447 500.271"/>
                  <polygon class="cls-8" points="541.447 500.271 541.447 523.36 559.501 513.349 560.615 512.732 559.13 511.99 559.13 493.865 559.13 490.468 541.447 500.271"/>
                  <polygon class="cls-5" points="541.447 500.271 541.447 521.793 558.016 512.606 559.13 511.99 559.13 490.468 558.944 490.572 541.447 500.271"/>
                </g>
                <path class="cls-3" d="M556.83991,503.84105a.18245.18245,0,0,0,.09-.0232l.8191-.454a.18565.18565,0,0,0,.0958-.1624v-3.952a.18542.18542,0,0,0-.2756-.1624l-.8192.454a.18569.18569,0,1,0,.1799.3249l.5435-.301v3.5269l-.7234.4011a.18566.18566,0,0,0,.0899.3481Z"/>
              </g>
            </g>
          </g>
        </g>
        <path class="cls-12" d="M289.87881,491.03485l41.2585-22.9381-78.1572-43.2618-40.0186,22.4132a1.00341,1.00341,0,0,0,.0043,1.7534l75.9395,42.0342A1.0037,1.0037,0,0,0,289.87881,491.03485Z"/>
        <path class="cls-13" d="M414.70041,593.81055h-.0001a17.5733,17.5733,0,0,1-16.15-24.5014l12.1109-28.2315a4.3951,4.3951,0,0,1,8.0783,0l12.1109,28.2315A17.5733,17.5733,0,0,1,414.70041,593.81055Z"/>
        <path class="cls-14" d="M434.34051,605.97035h-.0001a17.57337,17.57337,0,0,1-16.15-24.5015l12.1109-28.2315a4.39522,4.39522,0,0,1,8.0784,0l12.1108,28.2315A17.57334,17.57334,0,0,1,434.34051,605.97035Z"/>
        <path class="cls-13" d="M693.65961,435.72035h-.0001a17.57326,17.57326,0,0,1-16.15-24.5014l12.1108-28.2315a4.39517,4.39517,0,0,1,8.0784,0l12.1109,28.2315A17.5733,17.5733,0,0,1,693.65961,435.72035Z"/>
        <path class="cls-14" d="M713.29971,447.88015h-.0001a17.57337,17.57337,0,0,1-16.15-24.5015l12.1109-28.2315a4.3951,4.3951,0,0,1,8.0783,0l12.1109,28.2315A17.57337,17.57337,0,0,1,713.29971,447.88015Z"/>
        <path class="cls-13" d="M41.08241,388.68505h-.0001a17.5733,17.5733,0,0,1-16.15-24.5014l12.1109-28.2315a4.3951,4.3951,0,0,1,8.0783,0l12.1109,28.2315A17.5733,17.5733,0,0,1,41.08241,388.68505Z"/>
        <path class="cls-14" d="M60.72251,400.84485h-.0001a17.57337,17.57337,0,0,1-16.15-24.5015l12.1109-28.2315a4.39517,4.39517,0,0,1,8.0784,0l12.1108,28.2315A17.57334,17.57334,0,0,1,60.72251,400.84485Z"/>
        <g>
          <path class="cls-3" d="M153.256,434.064a1.31415,1.31415,0,0,1-.3612.2909l-17.46,9.6834a1.46249,1.46249,0,0,1-1.435,0l-48.0653-26.6316a1.76588,1.76588,0,0,1-.3712-.291,1.4922,1.4922,0,0,1,.3712-2.3079l17.45-9.6733a1.48111,1.48111,0,0,1,1.445,0l48.0653,26.6315A1.47358,1.47358,0,0,1,153.256,434.064Z"/>
          <path class="cls-1" d="M153.256,434.064a1.31415,1.31415,0,0,1-.3612.2909l-17.46,9.6834a1.46249,1.46249,0,0,1-1.435,0l-48.0653-26.6316a1.76588,1.76588,0,0,1-.3712-.291,1.22389,1.22389,0,0,1,.3712-.301l17.45-9.6733a1.48111,1.48111,0,0,1,1.445,0l48.0653,26.6315A1.31287,1.31287,0,0,1,153.256,434.064Z"/>
        </g>
        <g>
          <path class="cls-3" d="M375.79561,557.94955a1.31591,1.31591,0,0,1-.3612.291l-17.4601,9.6833a1.46179,1.46179,0,0,1-1.4349,0l-48.0653-26.6316a1.76864,1.76864,0,0,1-.3713-.2909,1.49239,1.49239,0,0,1,.3713-2.308l17.45-9.6732a1.48111,1.48111,0,0,1,1.445,0l48.0653,26.6315A1.47348,1.47348,0,0,1,375.79561,557.94955Z"/>
          <path class="cls-1" d="M375.79561,557.94955a1.31591,1.31591,0,0,1-.3612.291l-17.4601,9.6833a1.46179,1.46179,0,0,1-1.4349,0l-48.0653-26.6316a1.76864,1.76864,0,0,1-.3713-.2909,1.2246,1.2246,0,0,1,.3713-.3011l17.45-9.6732a1.48111,1.48111,0,0,1,1.445,0l48.0653,26.6315A1.31591,1.31591,0,0,1,375.79561,557.94955Z"/>
        </g>
      </g>
    </g>
  </g>
</svg>
