<?xml version="1.0" encoding="UTF-8"?>
<svg id="Layer_1" xmlns="http://www.w3.org/2000/svg" version="1.1" xmlns:xlink="http://www.w3.org/1999/xlink" viewBox="0 0 1082.5 325.6">
  <!-- Generator: Adobe Illustrator 29.0.0, SVG Export Plug-In . SVG Version: 2.1.0 Build 186)  -->
  <defs>
    <style>
      .st0 {
        fill: #fff;
      }

      .st1 {
        fill: url(#radial-gradient);
        isolation: isolate;
        opacity: 0;
      }
    </style>
    <radialGradient id="radial-gradient" cx="541.2" cy="394.8" fx="541.2" fy="394.8" r="399.7" gradientTransform="translate(0 -232)" gradientUnits="userSpaceOnUse">
      <stop offset=".6" stop-color="#161412"/>
      <stop offset=".8" stop-color="#161412"/>
      <stop offset="1" stop-color="#161412"/>
    </radialGradient>
  </defs>
  <path class="st1" d="M32.5,0h1017.5c17.9,0,32.5,14.6,32.5,32.5v260.6c0,17.9-14.6,32.5-32.5,32.5H32.5c-17.9,0-32.5-14.6-32.5-32.5V32.5C0,14.6,14.6,0,32.5,0Z"/>
  <path class="st0" d="M306.1,168c-5.2-26.5,17.8-40.6,19.5-41.6-3.2-4.3-7.2-8-11.8-10.8-13.8-8.6-30.5-9.4-40.5-5,0,0-.2,0-.3,0-9.7,4.2-20.8,4.2-30.5,0,0,0-.2,0-.3,0-10-4.4-26.7-3.6-40.5,5s-27.1,27.9-20.3,65,31.5,59.6,31.5,59.6c7.8,6.1,18.3,7.4,27.3,3.4,9.7-4.2,14.1-5,16.1-4.9h2.9c2,0,6.4.7,16.1,4.9,9,4,19.5,2.7,27.3-3.4,0,0,17.3-15.8,27-42.7-8.3-3.8-20.1-12.2-23.5-29.5h0Z"/>
  <path class="st0" d="M253.4,109.2s-4.4-37,37.3-43.6l-.2,5c-.7,20.5-16.7,37.1-37.1,38.6h0Z"/>
  <path class="st0" d="M539.3,153.9c-.8-3.6-2.2-7-4.2-10.1-1.9-2.9-4.6-5.3-7.7-7-3.5-1.8-7.4-2.7-11.3-2.6-1.9,0-3.9.2-5.7.7-1.9.5-3.6,1.2-5.3,2.1-1.8,1-3.5,2.2-5,3.5-.7.5-1.3,1.1-2,1.8v-8h-10.4v84.9h11v-26.7c.5.4,1,.9,1.5,1.2,1.4,1.1,2.9,2.1,4.5,3,1.5.8,3.1,1.4,4.7,1.8,1.7.4,3.4.6,5.1.6,3.9,0,7.7-.8,11.2-2.4,3.3-1.6,6.1-3.9,8.3-6.8,2.3-3.1,4-6.7,5-10.5,1.2-4.4,1.7-9,1.7-13.5s-.4-8-1.3-11.9h-.1ZM528.3,175.2c-.5,2.5-1.4,4.9-2.6,7.2-1.1,2-2.6,3.6-4.5,4.9-1.9,1.2-4.1,1.9-6.4,1.8-2.9,0-5.6-1-7.9-2.7-3.1-2.3-5.8-4.9-8.2-7.9v-23.3c1.4-1.8,2.9-3.4,4.6-5,1.4-1.3,2.8-2.5,4.4-3.5,1.2-.8,2.5-1.4,3.9-1.8,1.3-.4,2.6-.6,3.9-.6,2.3,0,4.5.5,6.4,1.7,1.8,1.2,3.2,2.9,4.2,4.8,1.2,2.3,2,4.8,2.4,7.3.5,2.9.7,5.9.7,8.8s-.3,5.5-.9,8.2h0Z"/>
  <path class="st0" d="M605.8,153.9c-.8-3.6-2.2-7-4.2-10.1-1.9-2.9-4.6-5.3-7.7-7-3.5-1.8-7.4-2.7-11.3-2.6-1.9,0-3.9.2-5.8.7-1.9.5-3.6,1.2-5.3,2.1-1.8,1-3.5,2.2-5,3.5-.7.5-1.3,1.1-2,1.8v-8h-10.4v84.9h11.1v-26.7c.5.4,1,.9,1.5,1.2,1.4,1.1,2.9,2.1,4.5,3,1.5.8,3.1,1.4,4.7,1.8,1.7.4,3.4.6,5.1.6,3.9,0,7.7-.8,11.2-2.4,3.3-1.6,6.1-3.9,8.3-6.8,2.3-3.1,4-6.7,5-10.5,1.2-4.4,1.7-9,1.7-13.5s-.4-8-1.3-11.9h0ZM594.8,175.2c-.5,2.5-1.4,4.9-2.6,7.2-1.1,2-2.6,3.6-4.5,4.9-1.9,1.2-4.1,1.9-6.4,1.8-2.9,0-5.6-1-7.9-2.7-3.1-2.3-5.8-4.9-8.2-7.9v-23.3c1.4-1.8,2.9-3.4,4.6-5,1.4-1.3,2.8-2.5,4.4-3.5,1.2-.8,2.5-1.4,3.9-1.8,1.3-.4,2.6-.6,3.9-.6,2.3,0,4.5.5,6.4,1.7,1.8,1.2,3.2,2.9,4.2,4.8,1.2,2.3,2,4.8,2.4,7.3.5,2.9.7,5.9.7,8.8s-.3,5.5-.9,8.2h0Z"/>
  <path class="st0" d="M794.8,142.9c-2.4-2.8-5.5-5.1-9-6.5-3.9-1.5-8.1-2.3-12.3-2.2-4.4,0-8.8.8-12.9,2.5-3.6,1.6-6.8,4-9.3,7-2.5,3.1-4.4,6.6-5.5,10.5-1.2,4.2-1.8,8.6-1.8,13s.5,8.8,1.7,13.1c1.1,3.7,2.9,7.2,5.4,10.1,2.4,2.8,5.5,5.1,9,6.5,3.9,1.6,8.1,2.3,12.3,2.2,4.4,0,8.8-.8,12.8-2.5,3.6-1.6,6.8-4,9.3-7,2.5-3.1,4.4-6.7,5.6-10.5,1.3-4.2,1.9-8.6,1.8-13,0-4.4-.5-8.8-1.8-13-1.1-3.7-2.9-7.1-5.4-10.1h.1ZM790.4,166.7c0,3-.3,6.1-1.1,9-.6,2.5-1.7,4.9-3.2,6.9-1.4,1.9-3.2,3.4-5.4,4.4-5.2,2.2-11.1,2.2-16.3-.1-2.1-1.1-3.9-2.7-5.2-4.6-1.4-2.2-2.4-4.6-2.9-7.1-.6-2.9-.9-5.9-.9-8.9s.3-6,1.1-9c.6-2.5,1.7-4.9,3.2-7,1.4-1.9,3.2-3.4,5.4-4.5,2.5-1.1,5.2-1.7,8-1.6,2.9-.1,5.7.5,8.3,1.8,2.1,1.1,3.9,2.7,5.2,4.7,1.4,2.2,2.4,4.6,2.9,7.1.6,2.9.9,5.8.9,8.8h0Z"/>
  <path class="st0" d="M449.5,116.1h-13.1l-27.4,82.9h11.2l6.1-23.7h32.9l6.3,23.7h11.3l-27.4-82.9h.1ZM429.8,165.2l12.8-36.4,13.1,36.4h-25.9Z"/>
  <path class="st0" d="M693.6,165.3c-1.1-2.5-2.7-4.7-4.7-6.6-1.9-1.9-4.1-3.5-6.5-4.8-2.3-1.3-4.7-2.5-7.1-3.6-2.3-1.1-4.7-2.2-6.9-3.3s-4-2.2-5.8-3.5c-1.5-1.2-2.9-2.6-3.9-4.3s-1.4-3.6-1.4-5.5.3-2.9.8-4.2,1.3-2.4,2.3-3.4c1.1-1,2.5-1.8,3.9-2.3,1.9-.6,3.8-.9,5.8-.9s4.2.2,6.2.8c1.6.5,3.2,1.1,4.7,1.9,1.4.7,2.5,1.4,3.4,2l4.6-9.5c-.9-.8-1.8-1.4-2.9-1.9-1.4-.7-2.9-1.4-4.5-1.9-1.7-.6-3.4-1-5.2-1.3s-3.7-.5-5.5-.5c-3.4,0-6.7.5-10,1.5-2.9.9-5.6,2.4-8,4.3-2.2,1.9-4,4.3-5.2,6.9-1.3,2.9-1.9,6-1.8,9.2,0,3.1.5,6.2,1.8,9.1,1.1,2.5,2.7,4.7,4.7,6.6,1.9,1.9,4.1,3.5,6.4,4.8,2.3,1.3,4.6,2.5,7,3.7,2.3,1.1,4.6,2.2,6.9,3.3,2,1,3.9,2.1,5.7,3.5,1.5,1.2,2.8,2.6,3.8,4.2,1,1.7,1.4,3.6,1.4,5.5s-.3,3.9-1.1,5.7c-.7,1.6-1.8,3-3.1,4.1-1.4,1.2-3.1,2.1-4.9,2.6-2.1.6-4.3,1-6.4.9-2.6,0-5.2-.3-7.7-1-2-.6-3.9-1.3-5.8-2.3-1.4-.7-2.7-1.4-3.9-2.3l-2.3,11.4c1.5.8,3.1,1.6,4.8,2.1,2.1.8,4.2,1.4,6.4,1.8,2.5.5,5.1.8,7.7.8,3.7,0,7.5-.5,11.1-1.7,3.3-1,6.3-2.7,8.9-4.9,2.5-2.1,4.5-4.8,5.9-7.8,1.4-3.3,2.2-6.8,2.1-10.4,0-3.1-.5-6.2-1.8-9v.2Z"/>
  <path class="st0" d="M731.7,188.1c-.6.2-1.3.5-1.9.6-.7.2-1.5.3-2.3.3-3.4,0-4.6-1.4-5.1-2.4-1.1-2-1.6-5-1.6-8.9v-32.4h13.4v-9.9h-13.4v-12.1l-11.1,4.9v7.2h-6v9.9h6v33.4c0,2.9.3,5.8.9,8.7.5,2.4,1.6,4.6,3.1,6.5,1.5,1.8,3.4,3.1,5.6,3.9,2.5.9,5.1,1.3,7.8,1.2.9,0,1.9,0,2.8-.2.9-.1,1.8-.3,2.7-.5.8-.2,1.6-.5,2.4-.8l-1.7-10.1c-.4.2-.9.4-1.5.6h-.1Z"/>
  <path class="st0" d="M840,134.3h-.5c-1.4,0-2.7.2-4.1.5-1.5.4-2.9,1-4.2,1.9-1.6,1.1-3,2.3-4.3,3.7-.4.5-.9,1-1.4,1.6v-7.6h-10.7v64.7h11.1v-41.7c1.4-2.3,2.8-4.3,4-5.9,1-1.4,2.2-2.8,3.5-4,.9-.8,1.9-1.5,2.9-2s1.7-.6,2.6-.6h2.7c0,.1,0-10.5,0-10.5h-1.8.2Z"/>
  <path class="st0" d="M895.4,185c-.3.1-.5.2-.8.4-.9.4-2.1.9-3.6,1.5-1.7.6-3.4,1.1-5.2,1.5-2.2.5-4.4.7-6.7.6-3,0-5.9-.4-8.7-1.5-2.1-.9-4-2.3-5.5-4.1-1.5-2-2.5-4.2-3.1-6.6-.6-2.4-.9-4.8-.9-7.3h36.7c1.2,0,2.4-.4,3.4-1.2,1.4-1.1,2.1-2.8,1.9-4.6v-1.5c0-3.5-.5-7.1-1.4-10.5-.9-3.3-2.5-6.3-4.6-9-2.2-2.7-4.9-4.8-8-6.2-3.7-1.6-7.6-2.4-11.6-2.3-3.9,0-7.9.7-11.5,2.2-3.4,1.5-6.5,3.7-8.9,6.5-2.5,3-4.5,6.5-5.6,10.3-1.3,4.3-2,8.9-1.9,13.4,0,4.6.6,9.3,1.9,13.7,1.1,3.8,3,7.2,5.6,10.2,2.5,2.8,5.7,5,9.2,6.3,3.9,1.5,8.1,2.2,12.3,2.1,2.6,0,5.2-.2,7.8-.7,2.1-.4,4.2-.9,6.3-1.5,1.2-.3,2.2-.7,3.1-1v-10.9l-.2.2ZM862.2,154.9c.7-2,1.7-3.9,3.1-5.5,2.8-3.4,7.1-5.3,11.5-5.2,5,0,8.6,1.4,11.2,4.4,2.3,2.7,3.5,6.4,3.7,11.1h-30.6c.2-1.6.6-3.3,1.1-4.8Z"/>
</svg>