<?xml version="1.0" encoding="UTF-8"?>
<svg id="Layer_1" xmlns="http://www.w3.org/2000/svg" version="1.1" xmlns:xlink="http://www.w3.org/1999/xlink" viewBox="0 0 1082.5 325.6">
  <!-- Generator: Adobe Illustrator 29.0.0, SVG Export Plug-In . SVG Version: 2.1.0 Build 186)  -->
  <defs>
    <style>
      .st0 {
        fill: #00f076;
      }

      .st1 {
        fill: #fff;
      }

      .st2 {
        fill: #ffca00;
      }

      .st3 {
        fill: #00d2ff;
      }

      .st4 {
        fill: url(#radial-gradient);
        isolation: isolate;
        opacity: 0;
      }

      .st5 {
        fill: #f73448;
      }
    </style>
    <radialGradient id="radial-gradient" cx="541.2" cy="394.8" fx="541.2" fy="394.8" r="399.7" gradientTransform="translate(0 -232)" gradientUnits="userSpaceOnUse">
      <stop offset=".6" stop-color="#161412"/>
      <stop offset=".8" stop-color="#161412"/>
      <stop offset="1" stop-color="#161412"/>
    </radialGradient>
  </defs>
  <path class="st4" d="M32.5,0h1017.5c18,0,32.5,14.6,32.5,32.5v260.6c0,18-14.6,32.5-32.5,32.5H32.5c-17.9,0-32.5-14.6-32.5-32.5V32.5C0,14.6,14.6,0,32.5,0h0Z"/>
  <g>
    <path class="st0" d="M277.6,128.2l-29.1,28.9-85.5-87.1c4.5-2.8,10.2-2.8,14.8,0l99.9,58.3h-.1Z"/>
    <path class="st5" d="M278.4,197l-100.6,58.7c-5.6,3.3-12.7,2.4-17.4-2.1l88.1-87.1,29.9,30.5Z"/>
    <path class="st2" d="M312.1,175.3l-28.8,16.8h-.2c0,.1-29.9-30.4-29.9-30.4l29.1-28.9h.2c0,.1,29.5,17.4,29.5,17.4,7,4,9.4,12.9,5.3,19.8-1.3,2.2-3.1,4-5.3,5.3h0Z"/>
    <path class="st3" d="M155.7,248.9l-.2-.2c-2.8-2.7-4.3-6.4-4.3-10.3V87.2c0-5,2.6-9.7,6.8-12.3,0,0,.1,0,.2,0l85.5,87.1-88.1,87.1h0Z"/>
  </g>
  <g>
    <g>
      <path class="st1" d="M457.8,147.2h-41.8v11.6h29.3c-4.4,16.2-21.1,25.8-37.3,21.3s-25.8-21.1-21.3-37.3c4.4-16.2,21.1-25.8,37.3-21.3,4.7,1.3,9,3.7,12.6,7l8.2-8.2c-16.9-15.9-43.5-15.1-59.3,1.8-15.8,16.9-15.1,43.5,1.8,59.3,16.9,15.9,43.5,15.1,59.3-1.8,7.3-7.8,11.4-18.1,11.4-28.8s0-2.4-.2-3.6Z"/>
      <path class="st1" d="M490.9,138.5c-14.9,0-27.1,11.9-27.2,26.8s11.9,27.1,26.8,27.2c14.9,0,27.1-11.9,27.2-26.8v-.2c0-14.9-12-27-26.8-27h0ZM490.9,181.8c-8.1,0-14.7-7.1-14.7-15.9s6.6-15.9,14.7-15.9,14.7,7.1,14.7,15.9-6.6,15.9-14.7,15.9h0Z"/>
      <path class="st1" d="M550.6,138.5c-14.9,0-27.1,11.9-27.2,26.8s11.9,27.1,26.8,27.2c14.9,0,27.1-11.9,27.2-26.8v-.2c0-14.9-12-27-26.8-27ZM550.6,181.8c-8.1,0-14.7-7.1-14.7-15.9s6.6-15.9,14.7-15.9,14.7,7.1,14.7,15.9-6.6,15.9-14.7,15.9h0Z"/>
      <rect class="st1" x="639.3" y="108.8" width="11.6" height="84.8"/>
      <path class="st1" d="M698.5,172.5c-3.8,7.9-13.3,11.1-21.2,7.3-2.2-1.1-4.1-2.6-5.5-4.5l39.4-15.4-.6-2c-.2-.8-.5-1.5-.8-2.2-5.5-14.1-21.4-21-35.5-15.5s-21,21.4-15.5,35.5,21.4,21,35.5,15.5c6.5-2.5,11.8-7.5,14.8-13.8l1-2.2-10.6-4.6-1,2h0ZM694.8,153.8l-26.3,10.3c.8-8.7,8.5-15.1,17.2-14.3,3.4.3,6.6,1.7,9.1,4h0Z"/>
      <path class="st1" d="M621.6,138.5v4.8c-3.9-3.1-8.8-4.7-13.8-4.8-13.4,0-24.3,12.1-24.3,27s10.9,27,24.3,27,9.8-1.7,13.8-4.8v5.8c0,3.3-2.4,12.6-13.3,12.6s-14-9.8-14-9.8l-10.5,4.9s4,15.4,25.6,15.4,17.7-6.8,20.8-13c2.1-4.2,3.1-8.9,3.1-13.6v-51.7h-11.6v.2ZM607.8,181.8c-7.4,0-13.3-7.1-13.3-15.9s6-15.9,13.3-15.9,13.3,7.1,13.3,15.9-6,15.9-13.3,15.9h0Z"/>
    </g>
    <g>
      <rect class="st1" x="751.3" y="108.8" width="11.6" height="84.8"/>
      <path class="st1" d="M779.1,108.8v11.6c8.1,0,14.7,7.1,14.7,15.9s-6.6,15.9-14.7,15.9v10.7c14.9,0,26.9-12.3,26.8-27.2,0-14.8-12.1-26.7-26.8-26.8h0Z"/>
      <rect class="st1" x="759.6" y="108.8" width="19.5" height="11.6"/>
      <rect class="st1" x="759.6" y="152.1" width="19.5" height="10.7"/>
    </g>
    <rect class="st1" x="812" y="108.8" width="11.6" height="84.8"/>
    <path class="st1" d="M861.4,186.2l1.4-1.5v8.1h9.8v-35c0-2.9-.3-5.7-1.2-8.5-.7-2.2-1.9-4.1-3.6-5.6-1.9-1.6-4-2.7-6.4-3.3-5.2-1.2-10.5-1.4-15.8-.6-1.9.3-3.7.8-5.5,1.3-1.3.4-2.6.9-3.9,1.5l.6,9.2c.7-.4,1.5-.7,2.4-1.1,1.6-.7,3.2-1.3,4.9-1.7,2.1-.6,4.2-.8,6.4-.8s3.1.2,4.7.6,2.3,1,3.2,1.9c.8.9,1.4,2,1.7,3.2.3,1.4.5,2.8.5,4.2v3.8h-5.6c-3.8,0-7.6.3-11.3,1-2.8.5-5.5,1.5-8,2.9-2,1.2-3.6,2.9-4.7,4.9-1.1,2.2-1.6,4.6-1.6,7s.4,4.5,1.2,6.6c.8,1.8,2,3.4,3.5,4.7,1.6,1.3,3.4,2.3,5.4,2.9,2.2.7,4.6,1,6.9,1s5.6-.6,8.2-1.7c2.5-1.2,4.7-2.8,6.6-4.9h.2ZM855.4,183.1c-1.7,1.1-3.7,1.6-5.8,1.6-2.2.1-4.3-.6-5.9-2-1.5-1.4-2.3-3.4-2.2-5.4,0-1.2.2-2.5.8-3.6s1.4-2,2.4-2.7c1.3-.8,2.7-1.3,4.1-1.6,1.9-.4,3.9-.5,5.9-.5h6.1v9.5l-.2.2c-1.5,1.7-3.2,3.3-5.1,4.5h0Z"/>
    <polygon class="st1" points="918.6 139.4 910.2 159 905 171.1 901.4 162.9 891.3 139.4 878.7 139.4 895.1 177.5 898.8 186 889.2 209.3 901.9 209.3 910.2 188.2 916.5 173.6 931.3 139.4 918.6 139.4"/>
  </g>
</svg>