<?xml version="1.0" encoding="utf-8"?>
<!-- Generator: Adobe Illustrator 22.0.1, SVG Export Plug-In . SVG Version: 6.00 Build 0)  -->
<svg version="1.1" id="Layer_1" xmlns="http://www.w3.org/2000/svg" xmlns:xlink="http://www.w3.org/1999/xlink" x="0px" y="0px"
	 viewBox="0 0 802.5 205.3" style="enable-background:new 0 0 802.5 205.3;" xml:space="preserve">
<style type="text/css">
	.st0{fill:#FFFFFF;}
</style>
<title>Asset 4</title>
<path class="st0" d="M466.8,124.8H305v-19.4h68.5V94.5h-48.2v-76h122.7v19.1h-97.8v9.9h93.7v17.9h-93.7v10.1h99.4v19.1h-51.1v10.9
	h68.4V124.8z M447.6,162c-0.2,19.1-22.6,29.2-61.6,29.2c-39.7,0-62-10.1-62-29.2c0-18.7,22.4-29.2,62-29
	C425,132.8,447.4,143.3,447.6,162 M348.8,162c-0.2,7.6,11.7,10.9,37.1,10.9c24.9,0,36.6-3.3,36.8-10.9c-0.2-7.4-11.9-10.7-36.8-10.7
	C360.4,151.3,348.6,154.6,348.8,162"/>
<path class="st0" d="M561.5,60.7h-84.2V41h29.9V18.5h24.7V41h29.6V60.7z M595.9,183.4h-23.1v-51.1h-20
	c-6.2,13.4-18.6,21.8-33.8,21.8c-21.8,0-37.9-17.5-37.7-42.6c-0.2-25.1,15.9-42.6,37.7-42.6c22.2,0,38.1,17.5,38.1,42.6v1.4h15.8
	V91.6h-19.4V71.4h19.4V17.1h23.1L595.9,183.4z M502.8,111.4c0,13.6,6.4,21.6,16.1,21.6c9.9,0,16.5-8,16.7-21.6
	c-0.2-14-6.8-21.6-16.7-21.6C509.2,89.8,502.8,97.4,502.8,111.4 M630.9,191.1h-23.7v-177h23.7V191.1z"/>
<path class="st0" d="M798.8,143.7h-24.7v-42h-40.4c-9,9.4-21.6,14.7-34.6,14.6c-26.8,0-47.3-19.4-47.1-45.7
	c-0.2-26.6,20.2-45.9,47.1-46.1c13,0,25.5,5.2,34.6,14.6h40.4V14.4h24.7V143.7z M675.5,70.6c-0.2,14.8,9.7,23.7,23.5,23.7
	c13,0,23.1-8.9,23.1-23.7c0-15-10.1-23.9-23.1-23.9C685.2,46.7,675.3,55.6,675.5,70.6 M803,188H681.3v-57.4h24.9v37.5H803V188z
	 M745.7,70.6c0,3.8-0.5,7.6-1.4,11.3h29.8V58.9h-29.8C745.2,62.7,745.7,66.6,745.7,70.6"/>
<path class="st0" d="M126.6,63.9c0,3.1-0.2,5.6-0.4,5.6c-0.2,0-0.4-2.5-0.4-5.6s0.2-5.6,0.4-5.6C126.5,58.2,126.6,60.8,126.6,63.9"
	/>
<path class="st0" d="M126.3,58.3c-0.2,0-0.4,2.5-0.4,5.6c0,3.1,0.2,5.6,0.4,5.6s0.4-2.5,0.4-5.6C126.6,60.8,126.5,58.3,126.3,58.3"
	/>
<path class="st0" d="M9.9,195.4L9.9,195.4c-13.2-13.2-13.2-34.6,0-47.9L115.5,42c13.2-13.2,34.6-13.2,47.9,0
	c13.2,13.2,13.2,34.6,0,47.9L57.8,195.4C44.6,208.6,23.1,208.6,9.9,195.4"/>
<path class="st0" d="M116.6,163.3L116.6,163.3c-13.2-13.2-13.2-34.6,0-47.9L222.2,9.9c13.2-13.2,34.6-13.2,47.9,0
	c13.2,13.2,13.2,34.6,0,47.9L164.5,163.3C151.3,176.6,129.9,176.6,116.6,163.3"/>
</svg>
