<?xml version="1.0" encoding="utf-8"?>
<!-- Generator: Adobe Illustrator 22.0.1, SVG Export Plug-In . SVG Version: 6.00 Build 0)  -->
<svg version="1.1" id="Layer_1" xmlns="http://www.w3.org/2000/svg" xmlns:xlink="http://www.w3.org/1999/xlink" x="0px" y="0px"
	 viewBox="0 0 1198.7 879.1" style="enable-background:new 0 0 1198.7 879.1;" xml:space="preserve">
<style type="text/css">
	.st0{fill:#0073FF;}
</style>
<title>Asset 5</title>
<g id="Layer_2_1_">
	<g id="Layer_1-2">
		<g>
			<path class="st0" d="M42.4,836.6L42.4,836.6c-56.6-56.6-56.6-148.3,0-204.9l452-452c56.6-56.6,148.3-56.7,204.9-0.1
				s56.7,148.3,0.1,204.9c0,0-0.1,0.1-0.1,0.1l-452,452C190.8,893.2,99,893.2,42.4,836.6"/>
			<path class="st0" d="M499.4,699.3L499.4,699.3c-56.6-56.6-56.6-148.3,0-204.9l452-452c56.6-56.6,148.3-56.6,204.9,0
				s56.6,148.3,0,204.9l0,0l-452,452C647.7,755.9,556,755.9,499.4,699.3"/>
		</g>
	</g>
</g>
</svg>
