<?xml version="1.0" encoding="utf-8"?>
<!-- Generator: Adobe Illustrator 27.0.0, SVG Export Plug-In . SVG Version: 6.00 Build 0)  -->
<svg version="1.1" id="Layer_1" xmlns="http://www.w3.org/2000/svg" xmlns:xlink="http://www.w3.org/1999/xlink" x="0px" y="0px"
	 viewBox="0 0 833.1 181.02" style="enable-background:new 0 0 833.1 181.02;" xml:space="preserve">
<style type="text/css">
	.st0{fill:#3D51FF;}
	.st1{fill:#456DFF;}
	.st2{fill:#041071;}
	.st3{clip-path:url(#SVGID_00000068636520176285006740000010726673906893942685_);}
	.st4{fill-rule:evenodd;clip-rule:evenodd;}
	.st5{fill:#567FFF;}
	.st6{fill:#FFFFFF;stroke:#FFFFFF;stroke-miterlimit:10;}
	.st7{fill:#FF4BDE;}
	.st8{fill:#FFFF54;}
	.st9{fill:#2637B6;}
	.st10{fill:#FFFFFF;stroke:#000000;stroke-width:4.5;stroke-linecap:round;stroke-linejoin:round;stroke-miterlimit:10;}
	.st11{fill:none;stroke:#000000;stroke-width:4.5;stroke-linecap:round;stroke-linejoin:round;stroke-miterlimit:10;}
	.st12{fill:#FFFFFF;}
	.st13{fill:#3D50F4;}
	.st14{stroke:#000000;stroke-width:4.5;stroke-linecap:round;stroke-linejoin:round;stroke-miterlimit:10;}
	.st15{fill:#F8DD4C;stroke:#F8DD4C;stroke-width:4.5;stroke-miterlimit:10.0002;}
	.st16{fill-rule:evenodd;clip-rule:evenodd;fill:#3D50F4;}
	.st17{fill:#F8DD4C;stroke:#000000;stroke-width:4.5;stroke-miterlimit:10;}
	.st18{fill:#666666;}
	.st19{fill:#CACACA;}
	.st20{fill:#456DFF;stroke:#2637B6;stroke-width:2.5;stroke-miterlimit:10;}
	.st21{fill:none;stroke:#2637B6;stroke-width:2.5;stroke-linecap:round;stroke-linejoin:round;stroke-miterlimit:10;}
	.st22{fill:none;stroke:#2637B6;stroke-width:2.5;stroke-miterlimit:10;}
	.st23{fill:none;stroke:#2637B6;stroke-width:2.5;stroke-linecap:round;stroke-miterlimit:10;}
	.st24{fill:#FFFFFF;stroke:#000000;stroke-width:2.5;stroke-miterlimit:10;}
	.st25{fill:#FFFFFF;stroke:#000000;stroke-width:2.5;stroke-linecap:round;stroke-linejoin:round;stroke-miterlimit:10;}
	.st26{stroke:#000000;stroke-width:2.5;stroke-linecap:round;stroke-linejoin:round;stroke-miterlimit:10;}
	.st27{fill:#B3B3B3;stroke:#B3B3B3;stroke-width:2.5;stroke-miterlimit:10;}
	.st28{fill:#3D51FF;stroke:#3D51FF;stroke-width:2.5;stroke-linecap:round;stroke-linejoin:round;stroke-miterlimit:10;}
	.st29{fill:none;stroke:#000000;stroke-width:2.5;stroke-linecap:round;stroke-linejoin:round;stroke-miterlimit:10;}
	.st30{fill:#B2E3FF;}
	.st31{fill:#808080;}
	.st32{fill-rule:evenodd;clip-rule:evenodd;fill:#CACACA;}
	.st33{fill:#FFE100;stroke:#FFE100;stroke-width:2.5;stroke-miterlimit:10;}
	.st34{fill:#808080;stroke:#000000;stroke-width:2.5;stroke-linecap:round;stroke-linejoin:round;stroke-miterlimit:10;}
	.st35{fill:#B2E3FF;stroke:#000000;stroke-width:2.5;stroke-linecap:round;stroke-linejoin:round;stroke-miterlimit:10;}
	.st36{fill:#3C59F4;}
	.st37{fill:#CCCCCC;}
	.st38{fill:#F2F2F2;}
	.st39{fill:#F2F2F2;stroke:#000000;stroke-width:2.5;stroke-linecap:round;stroke-linejoin:round;stroke-miterlimit:10;}
	.st40{stroke:#000000;stroke-width:2.5;stroke-miterlimit:10;}
	.st41{fill:#3C59F4;stroke:#3C59F4;stroke-width:2.5;stroke-miterlimit:10;}
	.st42{fill:#C9C9C9;}
	.st43{fill:#FFE200;stroke:#000000;stroke-width:2.5;stroke-linecap:round;stroke-linejoin:round;stroke-miterlimit:10;}
	.st44{fill-rule:evenodd;clip-rule:evenodd;fill:#C9C9C9;}
	.st45{fill:#FADF4C;stroke:#FADF4C;stroke-width:2.5;stroke-miterlimit:10;}
	.st46{fill:#FFE100;}
	.st47{fill:#FFED67;}
	.st48{fill:#FFC600;}
	.st49{fill:#FAAD00;}
	.st50{fill:#FFFFFF;stroke:#000000;stroke-width:2.5;stroke-linecap:round;stroke-miterlimit:10;}
	.st51{fill:none;stroke:#000000;stroke-width:2.5;stroke-linecap:round;stroke-miterlimit:10;}
	.st52{fill:none;}
	.st53{fill:none;stroke:#E6E6E6;stroke-width:2.5;stroke-linecap:round;stroke-linejoin:round;stroke-miterlimit:10;}
	.st54{fill:#D5E9FF;}
	.st55{fill:#FFFF4F;}
	.st56{fill:#FFFFFF;stroke:#000000;stroke-width:6;stroke-linecap:round;stroke-linejoin:round;stroke-miterlimit:10;}
	.st57{fill:none;stroke:#000000;stroke-width:6;stroke-linecap:round;stroke-linejoin:round;stroke-miterlimit:10;}
	.st58{stroke:#000000;stroke-width:6;stroke-linecap:round;stroke-linejoin:round;stroke-miterlimit:10;}
	.st59{fill:#F8DD4C;stroke:#F8DD4C;stroke-width:10.0002;stroke-miterlimit:10.0002;}
	.st60{fill:#F8DD4C;stroke:#000000;stroke-width:6;stroke-miterlimit:10;}
	.st61{fill:#3C59F5;stroke:#3C59F5;stroke-width:0.75;stroke-miterlimit:10;}
	.st62{fill:#3C59F5;}
	.st63{fill:#18BF1B;stroke:#000000;stroke-width:5;stroke-linecap:round;stroke-linejoin:round;stroke-miterlimit:10;}
	.st64{fill:#13DEDE;}
	.st65{clip-path:url(#SVGID_00000148638502406339135500000000468684668476552333_);fill:#FFFFFF;}
	.st66{clip-path:url(#SVGID_00000134225786276212126460000017897446118805500833_);}
	.st67{fill:#3C53F4;}
	.st68{stroke:#000000;stroke-width:1.2;stroke-linecap:round;stroke-linejoin:round;stroke-miterlimit:10;}
	.st69{fill:#FDCB05;stroke:#FDCB05;stroke-width:1.2;stroke-miterlimit:10;}
	.st70{fill:none;stroke:#000000;stroke-width:1.2;stroke-linecap:round;stroke-linejoin:round;stroke-miterlimit:10;}
	.st71{stroke:#000000;stroke-linecap:round;stroke-linejoin:round;stroke-miterlimit:10;}
	.st72{fill:#FDCB05;stroke:#FDCB05;stroke-miterlimit:10;}
	.st73{fill:none;stroke:#000000;stroke-linecap:round;stroke-linejoin:round;stroke-miterlimit:10;}
	.st74{fill:#195426;}
	.st75{clip-path:url(#SVGID_00000034797782315783678080000002792008229375917467_);}
	.st76{fill:none;stroke:#197426;stroke-miterlimit:10;}
	.st77{fill:#139368;}
	.st78{fill:#196C26;}
	.st79{fill:#3A7A63;}
	.st80{filter:url(#Adobe_OpacityMaskFilter);}
	.st81{mask:url(#SVGID_00000084522932047614823210000005890740019761016510_);}
	.st82{fill:#FCFCFC;}
	.st83{fill:none;stroke:#000000;stroke-width:5;stroke-linecap:round;stroke-linejoin:round;stroke-miterlimit:10;}
	.st84{fill:#FFFFFF;stroke:#000000;stroke-linecap:round;stroke-linejoin:round;stroke-miterlimit:10;}
	.st85{fill:#F8DD4C;stroke:#F8DD4C;stroke-width:2;stroke-miterlimit:10.0002;}
	.st86{fill:#F8DD4C;stroke:#000000;stroke-miterlimit:10;}
	.st87{fill:#FFFFFF;stroke:#000000;stroke-width:1.3;stroke-linecap:round;stroke-linejoin:round;stroke-miterlimit:10;}
	.st88{fill:none;stroke:#000000;stroke-width:1.3;stroke-linecap:round;stroke-linejoin:round;stroke-miterlimit:10;}
	.st89{stroke:#000000;stroke-width:1.3;stroke-linecap:round;stroke-linejoin:round;stroke-miterlimit:10;}
	.st90{fill:#F8DD4C;stroke:#F8DD4C;stroke-width:1.3;stroke-miterlimit:10.0002;}
	.st91{fill:#F8DD4C;stroke:#000000;stroke-width:1.3;stroke-miterlimit:10;}
	.st92{stroke:#000000;stroke-width:4;stroke-linecap:round;stroke-linejoin:round;stroke-miterlimit:10;}
	.st93{fill:#9ABEF5;}
	.st94{fill:#3D51FF;stroke:#3D51FF;stroke-width:4;stroke-linecap:round;stroke-linejoin:round;stroke-miterlimit:10;}
	.st95{fill:#FFFFFF;stroke:#000000;stroke-width:4;stroke-linecap:round;stroke-linejoin:round;stroke-miterlimit:10;}
	.st96{fill:none;stroke:#000000;stroke-width:4;stroke-linecap:round;stroke-linejoin:round;stroke-miterlimit:10;}
	.st97{fill:#B1C5FF;}
	.st98{fill:#FFE100;stroke:#FFE100;stroke-width:4;stroke-miterlimit:10;}
	.st99{fill:#808080;stroke:#000000;stroke-width:4;stroke-linecap:round;stroke-linejoin:round;stroke-miterlimit:10;}
	.st100{fill:#B1C5FF;stroke:#000000;stroke-width:4;stroke-linecap:round;stroke-linejoin:round;stroke-miterlimit:10;}
	.st101{clip-path:url(#SVGID_00000110472533893455178050000001578131099955579827_);}
	.st102{fill:#F8DD4C;stroke:#F8DD4C;stroke-width:2.5;stroke-miterlimit:10.0002;}
	.st103{fill:#F8DD4C;stroke:#000000;stroke-width:2.5;stroke-miterlimit:10;}
	.st104{fill:none;stroke:#000000;stroke-width:2.2;stroke-linecap:round;stroke-linejoin:round;stroke-miterlimit:10;}
	.st105{fill:#0DB068;}
	.st106{fill:#0DB668;}
	.st107{fill:none;stroke:#31664D;stroke-width:2.475;stroke-miterlimit:10;}
	.st108{fill:url(#);stroke:#000000;stroke-width:3;stroke-linecap:round;stroke-miterlimit:10;}
	.st109{fill:none;stroke:#FFFFFF;stroke-width:2;stroke-linecap:round;stroke-miterlimit:10;}
	.st110{fill:#E6E6E6;stroke:#000000;stroke-width:3;stroke-miterlimit:10;}
	.st111{fill:none;stroke:#000000;stroke-width:3;stroke-linecap:round;stroke-miterlimit:10;}
	.st112{fill:none;stroke:#31664D;stroke-width:3.6;stroke-miterlimit:10;}
	.st113{clip-path:url(#SVGID_00000071527754361494180070000009516099137606580413_);}
	.st114{clip-path:url(#SVGID_00000034085716591765191580000009911509961117285506_);}
	.st115{fill:#242C3C;}
	.st116{fill:#ECECEC;}
	.st117{fill:#E2E9FF;}
	.st118{clip-path:url(#SVGID_00000089554540056176786970000010489811035249890747_);fill:#242C3C;}
	.st119{fill:#FF762F;}
	.st120{fill:none;stroke:#EE752F;stroke-width:3;stroke-miterlimit:10;}
	.st121{fill:#3C59F5;stroke:#3C59F5;stroke-width:1.2;stroke-miterlimit:10;}
	.st122{fill:#D95734;}
	.st123{fill:#B3B3B3;}
	.st124{fill:none;stroke:#A09FA0;stroke-width:3;stroke-miterlimit:10;}
	.st125{fill:#685841;}
	.st126{fill:#9A7B5C;}
	.st127{fill:none;stroke:#766041;stroke-width:3;stroke-miterlimit:10;}
	.st128{fill:#D29400;}
	.st129{fill:#FFC800;}
	.st130{fill:none;stroke:#D29400;stroke-width:3;stroke-miterlimit:10;}
	.st131{fill:#FAFAFA;}
	.st132{fill:none;stroke:#CCCCCC;stroke-width:3;stroke-miterlimit:10;}
	.st133{fill:url(#SVGID_00000137109097417096463120000017067833922692135583_);}
	.st134{clip-path:url(#SVGID_00000128469694329402008580000013379597196445145506_);}
	.st135{opacity:0.3;}
	.st136{opacity:0;}
	.st137{opacity:0.0909;}
	.st138{opacity:0.1818;}
	.st139{opacity:0.2727;}
	.st140{opacity:0.3636;}
	.st141{opacity:0.4545;}
	.st142{opacity:0.5455;}
	.st143{opacity:0.6364;}
	.st144{opacity:0.7273;}
	.st145{opacity:0.8182;}
	.st146{opacity:0.9091;}
	.st147{fill:url(#SVGID_00000182503806246044895570000015999567308148560020_);}
	.st148{fill:#494949;}
	.st149{fill:url(#SVGID_00000018944125149481755330000015194348815705581704_);}
	.st150{opacity:0.7;}
	.st151{fill:url(#SVGID_00000003785635609074822430000009706618225334942128_);}
	.st152{fill:url(#SVGID_00000070815210002425257080000010098684262057628821_);}
	.st153{fill:url(#SVGID_00000025408837547250730370000000638836196132515220_);}
	.st154{fill:url(#SVGID_00000173137923300504969100000001233853826056147368_);}
	.st155{fill:url(#SVGID_00000098927073195850445780000004334501141869384635_);}
	.st156{fill:url(#SVGID_00000125598428451461203540000011969693889007905940_);}
	.st157{fill:url(#SVGID_00000003097868997144719860000001244548199988651955_);}
	.st158{fill:url(#SVGID_00000021839041446281470530000008792116521193344912_);}
	.st159{opacity:0.78;clip-path:url(#SVGID_00000128469694329402008580000013379597196445145506_);}
	.st160{opacity:0;fill:#FFFFFF;}
	.st161{opacity:0.0909;fill:#FFFFFF;}
	.st162{opacity:0.1818;fill:#FFFFFF;}
	.st163{opacity:0.2727;fill:#FFFFFF;}
	.st164{opacity:0.3636;fill:#FFFFFF;}
	.st165{opacity:0.4545;fill:#FFFFFF;}
	.st166{opacity:0.5455;fill:#FFFFFF;}
	.st167{opacity:0.6364;fill:#FFFFFF;}
	.st168{opacity:0.7273;fill:#FFFFFF;}
	.st169{opacity:0.8182;fill:#FFFFFF;}
	.st170{opacity:0.9091;fill:#FFFFFF;}
	.st171{fill:#FFFFFF;stroke:#000000;stroke-width:7;stroke-linecap:round;stroke-linejoin:round;stroke-miterlimit:10;}
	.st172{fill:none;stroke:#000000;stroke-width:7;stroke-linecap:round;stroke-linejoin:round;stroke-miterlimit:10;}
	.st173{stroke:#000000;stroke-width:7;stroke-linecap:round;stroke-linejoin:round;stroke-miterlimit:10;}
	.st174{fill:#F8DD4C;stroke:#000000;stroke-width:7;stroke-miterlimit:10;}
	.st175{clip-path:url(#SVGID_00000060752021608263056250000007197371935948562086_);}
	.st176{opacity:0.6;}
	.st177{fill:#EFEFEF;stroke:#EFEFEF;stroke-width:1.5;stroke-linecap:round;stroke-linejoin:round;stroke-miterlimit:10;}
	.st178{fill:#79A3FF;stroke:#000000;stroke-width:7;stroke-linecap:round;stroke-linejoin:round;stroke-miterlimit:10;}
	.st179{clip-path:url(#SVGID_00000039104084682153135630000007024663555744118194_);}
	.st180{clip-path:url(#SVGID_00000136369997243972665440000014368162474318121364_);fill:#242C3C;}
	.st181{fill:none;stroke:#FFFFFF;stroke-width:5;stroke-miterlimit:10;}
	.st182{fill:url(#SVGID_00000108308037677994122380000016148173558914939010_);}
	.st183{clip-path:url(#SVGID_00000062159617408491447620000016151901616769091516_);}
	.st184{fill:url(#SVGID_00000131335860055412300990000008544249389341793954_);}
	.st185{fill:url(#SVGID_00000003102575185969752410000001639252352123778711_);}
	.st186{fill:url(#SVGID_00000007399106781616426550000002925739039770614656_);}
	.st187{fill:url(#SVGID_00000170253365640363602520000004971544419733565569_);}
	.st188{fill:url(#SVGID_00000097481284809207657590000014707342249078346397_);}
	.st189{fill:url(#SVGID_00000132086238046656872800000008650922969006165158_);}
	.st190{fill:url(#SVGID_00000138573632620792847240000011127345641879071415_);}
	.st191{fill:url(#SVGID_00000152251578692099413850000002055429818244283794_);}
	.st192{fill:url(#SVGID_00000164486735119763938230000001649928847318491274_);}
	.st193{fill:url(#SVGID_00000074444058613388661220000011817172998611482556_);}
	.st194{opacity:0.78;clip-path:url(#SVGID_00000062159617408491447620000016151901616769091516_);}
	.st195{clip-path:url(#SVGID_00000116938955856652292480000012225019886170060980_);}
	.st196{fill:#2D37E1;stroke:#000000;stroke-width:4;stroke-miterlimit:10;}
	.st197{fill:#041071;stroke:#000000;stroke-width:4;stroke-linecap:round;stroke-linejoin:round;stroke-miterlimit:10;}
	.st198{fill:#041071;stroke:#000000;stroke-width:4;stroke-miterlimit:10;}
	.st199{fill:#3D51FF;stroke:#000000;stroke-width:5;stroke-miterlimit:10;}
	.st200{fill:#CCCCCC;stroke:#CCCCCC;stroke-width:4;stroke-miterlimit:10;}
	.st201{fill:#F4F4F4;}
	.st202{fill:#F4F4F4;stroke:#CCCCCC;stroke-width:4;stroke-miterlimit:10;}
	.st203{fill:none;stroke:#CCCCCC;stroke-width:4;stroke-linecap:round;stroke-linejoin:round;stroke-miterlimit:10;}
	.st204{fill:none;stroke:#CCCCCC;stroke-width:4;stroke-miterlimit:10;}
	.st205{fill:none;stroke:#CCCCCC;stroke-width:4;stroke-linecap:round;stroke-miterlimit:10;}
	.st206{fill:#FFFFFF;stroke:#000000;stroke-width:4;stroke-miterlimit:10;}
	.st207{fill:#B3B3B3;stroke:#B3B3B3;stroke-width:4;stroke-miterlimit:10;}
	.st208{fill:#F2F2F2;stroke:#000000;stroke-width:4;stroke-linecap:round;stroke-linejoin:round;stroke-miterlimit:10;}
	.st209{stroke:#000000;stroke-width:4;stroke-miterlimit:10;}
	.st210{fill:#3C59F4;stroke:#3C59F4;stroke-width:4;stroke-miterlimit:10;}
	.st211{fill:#FFE200;stroke:#000000;stroke-width:4;stroke-linecap:round;stroke-linejoin:round;stroke-miterlimit:10;}
	.st212{fill:#FADF4C;stroke:#FADF4C;stroke-width:4;stroke-miterlimit:10;}
	.st213{fill:#FFFFFF;stroke:#000000;stroke-width:4;stroke-linecap:round;stroke-miterlimit:10;}
	.st214{fill:none;stroke:#000000;stroke-width:4;stroke-linecap:round;stroke-miterlimit:10;}
	.st215{clip-path:url(#SVGID_00000065038226485454077880000015325615487749163909_);fill:#FFFFFF;}
	.st216{fill:none;stroke:#FFFFFF;stroke-width:3;stroke-linecap:round;stroke-miterlimit:10;}
	.st217{fill:#E6E6E6;stroke:#000000;stroke-width:4;stroke-miterlimit:10;}
	.st218{fill:none;stroke:#000000;stroke-width:3;stroke-linecap:round;stroke-linejoin:round;stroke-miterlimit:10;}
	.st219{clip-path:url(#SVGID_00000098920472981726523460000008346505470697732507_);}
	.st220{clip-path:url(#SVGID_00000144309016180825696510000000282077548954703006_);fill:#FFFFFF;}
	.st221{fill:url(#SVGID_00000031916462498454939160000012389824929032842142_);}
	.st222{clip-path:url(#SVGID_00000079483551375636727830000003192924921972967090_);}
	.st223{fill:url(#SVGID_00000143615339707286764140000000100535346092088219_);}
	.st224{fill:url(#SVGID_00000016791187250134094770000000630612446734069684_);}
	.st225{fill:url(#SVGID_00000144318345453090305090000013732686716157327490_);}
	.st226{fill:url(#SVGID_00000034056162788507171270000006309807261222253442_);}
	.st227{fill:url(#SVGID_00000068640771229110464580000003565770009881718459_);}
	.st228{fill:url(#SVGID_00000089558612439877731060000013992899821419687564_);}
	.st229{fill:url(#SVGID_00000025404905874232007450000009654342391868889483_);}
	.st230{fill:url(#SVGID_00000025432783126415220190000004343389863826927035_);}
	.st231{fill:url(#SVGID_00000167354636476508943160000011472029087556915387_);}
	.st232{fill:url(#SVGID_00000077290107560902897820000008533188327399728265_);}
	.st233{opacity:0.78;clip-path:url(#SVGID_00000079483551375636727830000003192924921972967090_);}
	.st234{fill:none;stroke:#A09FA0;stroke-width:2;stroke-miterlimit:10;}
	.st235{fill:none;stroke:#766041;stroke-width:2;stroke-miterlimit:10;}
	.st236{fill:none;stroke:#D29400;stroke-width:2;stroke-miterlimit:10;}
	.st237{fill:none;stroke:#CCCCCC;stroke-width:2;stroke-miterlimit:10;}
	.st238{clip-path:url(#SVGID_00000151538989517694719940000010146340342698460288_);}
	.st239{clip-path:url(#SVGID_00000058564537936007775420000006759710882492795805_);fill:#FFFFFF;}
	.st240{fill:url(#SVGID_00000165220158113373128100000011999509612307789703_);}
	.st241{clip-path:url(#SVGID_00000024694138645231199180000013078544753976025258_);}
	.st242{fill:url(#SVGID_00000037658089904058095140000002901264072053205658_);}
	.st243{fill:url(#SVGID_00000142885318140228892050000010714109126063362455_);}
	.st244{fill:url(#SVGID_00000007425078657027487760000011887567650533707651_);}
	.st245{fill:url(#SVGID_00000175302246794082554860000001186617185572392586_);}
	.st246{fill:url(#SVGID_00000140701689843752679250000001377538637677319317_);}
	.st247{fill:url(#SVGID_00000058579439333132464850000017940323014666229927_);}
	.st248{fill:url(#SVGID_00000110442557929278689660000013625938906278559383_);}
	.st249{fill:url(#SVGID_00000104706755546949530240000004584649376097801622_);}
	.st250{fill:url(#SVGID_00000155867645812059275980000013488638563073429664_);}
	.st251{fill:url(#SVGID_00000120539920429048033790000017088451255211332745_);}
	.st252{opacity:0.78;clip-path:url(#SVGID_00000024694138645231199180000013078544753976025258_);}
	.st253{clip-path:url(#SVGID_00000110439751386079532190000016904653223187936133_);}
	.st254{fill:#FF4BDE;stroke:#000000;stroke-width:5;stroke-miterlimit:10;}
	.st255{clip-path:url(#SVGID_00000176734306768905950970000014323796463850195081_);fill:#FFFFFF;}
	.st256{clip-path:url(#SVGID_00000166667290078062673900000011428593718177250203_);}
	.st257{fill:#FFFFFF;stroke:#000000;stroke-width:5;stroke-linecap:round;stroke-linejoin:round;stroke-miterlimit:10;}
	.st258{stroke:#000000;stroke-width:5;stroke-linecap:round;stroke-linejoin:round;stroke-miterlimit:10;}
	.st259{fill:#F8DD4C;stroke:#000000;stroke-width:5;stroke-miterlimit:10;}
	.st260{fill:#18BF1B;stroke:#000000;stroke-width:3;stroke-linecap:round;stroke-linejoin:round;stroke-miterlimit:10;}
	.st261{fill:#242C3C;stroke:#242C3C;stroke-width:0.25;stroke-miterlimit:10;}
</style>
<g>
	<g>
		<g>
			<path class="st121" d="M795.01,73.72c-1.17-2.37-3.29-4.1-5.81-4.74l-10.92-2.76l-2.51-10.94c-0.62-2.64-2.35-4.85-4.75-6.04
				c-2.32-1.16-5-1.23-7.36-0.19l-11.39,5.01c0,0-0.01,0-0.01,0l-6.11-6.42c-0.03-0.03-0.06-0.06-0.09-0.08
				c-2.45-2.13-5.4-3.1-8.31-2.73c-2.72,0.35-5.16,1.84-6.71,4.09l-5.43,7.93c-5.69,1.82-10.9,4.53-15.31,8.02
				c-5.52,4.38-8.44,11.28-8.45,19.97c0,4.75,0.85,8.77,1.33,10.65c-2.56,1.16-8.62,4.78-10.13,13.5c-0.54,3.12-0.42,6.62,0.35,10.4
				c0.05,0.27,1.41,6.63,6.84,12.33c9.05,9.5,22.07,9.51,31.39,7.85c0.12-0.02,7.08-1.23,16.65-3.55c7.18-1.74,15.83-4.1,24.17-7.06
				c18.85-6.68,21.54-21.52,20.15-29.23c-0.03-0.19-0.6-3.29-2.01-7.78l4.63-10.62C796.27,78.9,796.2,76.12,795.01,73.72z
				 M771.61,126.58c-19.25,6.82-40.19,10.46-40.41,10.5c-12.64,2.26-22.41-0.11-29.05-7.02c-4.97-5.17-6.26-11.12-6.28-11.18
				c-0.54-2.66-0.73-5.14-0.57-7.43c0.05-0.7,0.13-1.37,0.24-2.03c0.43-2.48,1.28-4.48,2.31-6.08c2.83-4.43,6.99-5.82,7.23-5.9
				c0.66-0.21,1.03-0.92,0.83-1.58c-0.02-0.05-1.54-5.01-1.52-11.09c0.02-7.97,2.54-14,7.5-17.92c3.95-3.13,8.36-5.46,12.97-7.1
				c0.79-0.28,1.58-0.54,2.39-0.78c0.22-0.07,0.44-0.14,0.66-0.2c8-2.28,16.43-2.57,24.08-1.31c0.01,0,0.02,0,0.03,0
				c0.93,0.15,1.84,0.32,2.75,0.52c2.31,0.51,4.53,1.15,6.62,1.94c2.67,1,5.14,2.21,7.32,3.61c0.81,0.52,1.6,1.08,2.36,1.68
				c4.41,3.44,7.88,7.94,10.58,12.56c2.43,4.15,4.24,8.39,5.54,12.06c0.25,0.7,0.48,1.38,0.7,2.03c0.29,0.9,0.56,1.74,0.79,2.53
				c1.01,3.45,1.43,5.72,1.45,5.8C791.36,107.11,788.87,120.47,771.61,126.58z"/>
			<path class="st121" d="M766.12,88.75c-0.7,0.03-1.24,0.62-1.2,1.32c0.11,2.43-1.51,3.71-2.48,4.26c-0.18,0.1-0.37,0.19-0.56,0.28
				c-0.4,0.17-0.81,0.31-1.23,0.41c-0.44,0.1-0.88,0.16-1.33,0.17c-1.28,0.05-2.54-0.26-3.53-0.92c-0.29-0.19-0.64-0.26-0.98-0.18
				c-0.33,0.09-0.63,0.29-0.81,0.58c-0.39,0.65-0.93,1.3-1.61,1.95c-0.02,0.02-0.04,0.04-0.07,0.06
				c-3.55,3.34-10.74,6.58-19.41,8.65c-8.93,2.12-17.56,2.56-24.12,1.32c-0.48-0.09-0.94-0.19-1.4-0.3c-0.6-0.14-1.19-0.3-1.75-0.47
				c-0.45-0.14-0.89-0.29-1.32-0.45c-0.65-0.25-1.38,0.08-1.63,0.73c-0.25,0.65,0.08,1.38,0.73,1.63c0.9,0.34,1.85,0.64,2.84,0.89
				c0.4,0.1,0.81,0.2,1.22,0.29c0.4,0.09,0.81,0.17,1.22,0.25c0,0.01,0,0.02,0,0.04c0.01,0.12,0.02,0.24,0.07,0.36
				c0.49,1.36,1.12,2.68,1.87,3.92c0.22,0.37,0.69,1.15,1.56,1.47c0.47,0.18,1.01,0.2,1.56,0.07c0.11-0.03,0.22-0.06,0.33-0.1
				c1.06-0.37,1.81-1.15,2.46-1.92c0.77-0.92,1.47-1.89,2.11-2.9c0.06-0.1,0.1-0.2,0.13-0.3c4.93-0.16,10.08-0.9,14.96-2.08
				c4.45-1.08,8.66-2.52,12.25-4.18c0.05,0.04,0.1,0.08,0.15,0.11c1.02,0.62,2.09,1.18,3.18,1.65c0.93,0.41,1.94,0.76,3.06,0.62
				c0.13-0.02,0.26-0.04,0.38-0.07c0.53-0.13,0.98-0.38,1.32-0.74c0.63-0.68,0.71-1.58,0.74-2.02c0.1-1.31-0.15-3.55-0.33-5.1
				c0.35-0.35,0.67-0.71,0.96-1.07c1.72,0.78,3.75,0.96,5.67,0.53c0.51-0.12,1.02-0.27,1.51-0.48c0.35-0.14,0.69-0.31,1.02-0.49
				c0.13-0.07,0.26-0.15,0.38-0.23c2.27-1.44,3.49-3.73,3.37-6.34C767.4,89.25,766.81,88.71,766.12,88.75z M714.64,111.43
				c-0.42,0.5-0.88,0.99-1.36,1.16c-0.08,0.03-0.13,0.04-0.16,0.04c-0.05-0.04-0.14-0.15-0.29-0.41c-0.51-0.84-0.95-1.72-1.32-2.62
				c1.4,0.15,2.84,0.24,4.32,0.27C715.45,110.41,715.06,110.93,714.64,111.43z M752.34,102.94c-0.02,0.3-0.05,0.43-0.08,0.49
				c-0.03,0.01-0.08,0.03-0.16,0.04c-0.51,0.06-1.14-0.17-1.74-0.43c-0.56-0.24-1.11-0.52-1.65-0.81c1.29-0.71,2.46-1.44,3.49-2.2
				C752.31,101.12,752.39,102.25,752.34,102.94z"/>
			<path class="st121" d="M711.78,95.68c0.21-0.05,0.42-0.16,0.59-0.33c3.19-3.14,8.05-4.46,12.36-3.37
				c0.68,0.17,1.36-0.24,1.53-0.91c0.17-0.68-0.24-1.36-0.91-1.53c-5.15-1.3-10.94,0.27-14.75,4.01c-0.5,0.49-0.5,1.29-0.02,1.79
				C710.91,95.67,711.36,95.78,711.78,95.68z"/>
			<path class="st121" d="M733.21,90.44c0.21-0.05,0.42-0.16,0.59-0.33c3.19-3.14,8.05-4.46,12.36-3.37
				c0.68,0.17,1.36-0.24,1.53-0.91c0.17-0.68-0.24-1.36-0.91-1.53c-5.15-1.3-10.94,0.27-14.75,4.01c-0.5,0.49-0.5,1.29-0.02,1.79
				C732.33,90.43,732.79,90.54,733.21,90.44z"/>
		</g>
		<g>
			<path class="st61" d="M679.86,52.48c0.31-0.32,0.57-0.6,0.77-0.84c0.2-0.24,0.42-0.46,0.65-0.67c0.59-0.51,1.18-0.72,1.77-0.62
				c0.59,0.09,1.09,0.48,1.5,1.16c0.2,0.32,0.37,0.67,0.52,1.03c0.15,0.37,0.32,0.76,0.51,1.17c0.37-0.04,0.73-0.08,1.11-0.13
				c0.37-0.05,0.75-0.08,1.12-0.1c0.35-0.01,0.64,0.08,0.88,0.27c0.24,0.19,0.39,0.43,0.46,0.72c0.16,0.64-0.11,1.12-0.78,1.45
				c-0.27,0.14-0.54,0.27-0.83,0.37c-0.29,0.11-0.61,0.23-0.95,0.38c0.08,0.38,0.17,0.75,0.24,1.13c0.08,0.37,0.15,0.75,0.21,1.14
				c0.03,0.21,0.05,0.42,0.06,0.65c0.01,0.22-0.03,0.43-0.12,0.62c-0.07,0.16-0.19,0.32-0.36,0.47c-0.17,0.15-0.35,0.27-0.53,0.35
				c-0.26,0.11-0.51,0.12-0.76,0.03c-0.24-0.09-0.43-0.26-0.56-0.52c-0.14-0.27-0.25-0.54-0.33-0.83c-0.08-0.29-0.16-0.58-0.25-0.87
				c-0.22-0.66-0.43-1.31-0.65-1.97c-0.22-0.66-0.44-1.31-0.67-1.95c-0.03-0.07-0.08-0.14-0.17-0.19c-0.09-0.05-0.2-0.14-0.32-0.26
				c-0.44,0.4-0.8,0.86-1.06,1.38c-0.27,0.52-0.54,1.04-0.81,1.55c-0.21,0.37-0.41,0.75-0.59,1.15c-0.18,0.4-0.38,0.78-0.59,1.15
				c-0.21,0.33-0.49,0.54-0.84,0.62c-0.36,0.08-0.68,0.03-0.96-0.14c-0.26-0.15-0.43-0.38-0.54-0.67c-0.1-0.3-0.09-0.6,0.03-0.92
				c0.2-0.52,0.42-1.05,0.64-1.57c0.22-0.52,0.46-1.08,0.72-1.69c-0.17-0.14-0.35-0.28-0.54-0.44c-0.19-0.16-0.37-0.31-0.55-0.47
				c-0.2-0.17-0.42-0.33-0.64-0.48s-0.39-0.32-0.49-0.54c-0.11-0.2-0.17-0.44-0.2-0.71c-0.02-0.27,0-0.51,0.09-0.72
				c0.1-0.26,0.28-0.42,0.54-0.5c0.26-0.08,0.52-0.08,0.79,0.01c0.41,0.12,0.81,0.28,1.21,0.46
				C678.97,52.12,679.4,52.3,679.86,52.48z M687.73,46.09c0.32-0.25,0.63-0.5,0.93-0.75c0.3-0.24,0.6-0.48,0.9-0.71
				c0.24-0.16,0.49-0.23,0.75-0.2c0.26,0.02,0.49,0.12,0.69,0.3c0.23,0.19,0.36,0.41,0.41,0.66c0.04,0.25,0.01,0.49-0.1,0.74
				c-0.13,0.27-0.27,0.54-0.44,0.81c-0.16,0.27-0.34,0.57-0.52,0.9c0.27,0.28,0.53,0.54,0.8,0.78c0.27,0.25,0.52,0.52,0.76,0.81
				c0.18,0.21,0.27,0.45,0.28,0.71c0.01,0.26-0.06,0.51-0.22,0.75c-0.16,0.23-0.36,0.39-0.6,0.47s-0.5,0.09-0.78,0.01
				c-0.43-0.12-0.81-0.3-1.14-0.54c-0.93-0.64-1.85-1.29-2.77-1.93c-0.92-0.64-1.84-1.29-2.75-1.95c-0.13-0.11-0.26-0.22-0.39-0.33
				c-0.12-0.11-0.24-0.24-0.35-0.39c-0.17-0.23-0.26-0.46-0.29-0.71c-0.02-0.24,0.05-0.48,0.23-0.72c0.38-0.5,0.83-0.65,1.37-0.43
				c0.32,0.14,0.63,0.3,0.91,0.48c0.29,0.18,0.58,0.35,0.89,0.51c0.24,0.12,0.47,0.24,0.69,0.36
				C687.24,45.83,687.48,45.96,687.73,46.09z M692.9,54.51c0.14-0.21,0.31-0.46,0.49-0.77c0.19-0.31,0.41-0.61,0.65-0.92
				c0.5-0.59,1.03-0.96,1.6-1.11c0.57-0.15,1.19-0.03,1.84,0.35c0.74,0.44,1.46,0.92,2.16,1.42c0.7,0.5,1.37,1.04,2.01,1.6
				c0.61,0.55,0.94,1.08,0.98,1.61c0.04,0.53-0.15,1.14-0.57,1.84c-0.34,0.56-0.68,1.11-1.02,1.65c-0.34,0.54-0.7,1.08-1.08,1.61
				c-0.41,0.58-0.79,0.93-1.16,1.06c-0.36,0.13-0.85,0.04-1.47-0.28c-1.83-0.93-3.61-1.97-5.36-3.11c-0.5-0.32-0.78-0.71-0.83-1.16
				c-0.05-0.45,0.08-0.97,0.39-1.55c0.18-0.35,0.38-0.7,0.6-1.04C692.38,55.37,692.63,54.97,692.9,54.51z M699.61,57.18
				c-0.56-0.6-1.1-1.11-1.62-1.53c-0.52-0.42-1.13-0.7-1.82-0.85c-0.3,0.36-0.54,0.65-0.71,0.87c-0.17,0.21-0.31,0.42-0.41,0.6
				c-0.1,0.19-0.19,0.39-0.26,0.62c-0.08,0.22-0.17,0.52-0.29,0.89c0.25,0.22,0.5,0.45,0.76,0.67c0.26,0.22,0.53,0.41,0.81,0.58
				c0.29,0.16,0.59,0.3,0.91,0.4c0.32,0.1,0.67,0.14,1.05,0.11L699.61,57.18z"/>
			<path class="st61" d="M696.87,35.76c0.16,0.27,0.37,0.6,0.61,0.99c0.24,0.38,0.49,0.77,0.73,1.16c0.6,0.92,1.19,1.82,1.77,2.71
				c0.58,0.89,1.17,1.79,1.77,2.71c0.12,0.18,0.25,0.38,0.37,0.6c0.12,0.22,0.19,0.44,0.2,0.66c0.02,0.21-0.01,0.44-0.09,0.69
				c-0.08,0.25-0.21,0.42-0.37,0.52c-0.16,0.1-0.37,0.16-0.63,0.16c-0.26,0-0.48-0.04-0.67-0.12c-0.22-0.1-0.41-0.25-0.59-0.45
				c-0.18-0.2-0.34-0.4-0.49-0.61c-0.74-1.1-1.47-2.2-2.18-3.29c-0.71-1.09-1.42-2.19-2.13-3.3c-0.15-0.22-0.3-0.43-0.43-0.64
				c-0.13-0.21-0.27-0.42-0.42-0.65c-0.28-0.42-0.41-0.82-0.41-1.2c0.01-0.38,0.16-0.67,0.44-0.89c0.3-0.23,0.63-0.3,0.98-0.23
				c0.36,0.08,0.71,0.3,1.07,0.68c0.05,0.04,0.11,0.09,0.16,0.16C696.62,35.49,696.73,35.6,696.87,35.76z M706.47,49.8
				c0.18,0.2,0.31,0.41,0.38,0.65c0.08,0.24,0.11,0.48,0.1,0.72c-0.01,0.24-0.07,0.48-0.17,0.71c-0.1,0.23-0.24,0.41-0.43,0.56
				c-0.38,0.3-0.82,0.43-1.31,0.38c-0.49-0.05-0.91-0.26-1.24-0.64c-0.18-0.2-0.31-0.41-0.4-0.65c-0.09-0.24-0.13-0.47-0.11-0.7
				c0.01-0.23,0.07-0.46,0.18-0.68c0.11-0.22,0.26-0.42,0.47-0.58c0.17-0.16,0.37-0.27,0.6-0.34c0.23-0.07,0.45-0.09,0.69-0.07
				c0.23,0.02,0.46,0.09,0.67,0.2C706.11,49.46,706.3,49.61,706.47,49.8z"/>
			<path class="st61" d="M710.03,31.76c0.06,0.53,0.12,1.02,0.18,1.45c0.06,0.44,0.1,0.86,0.12,1.28c0,0.35-0.09,0.64-0.27,0.88
				c-0.19,0.24-0.43,0.39-0.73,0.45c-0.33,0.08-0.65,0.03-0.97-0.16c-0.32-0.19-0.53-0.47-0.63-0.84c-0.13-0.5-0.25-1-0.35-1.5
				c-0.1-0.5-0.2-1.01-0.31-1.52c-0.13-0.64-0.28-1.26-0.43-1.88c-0.15-0.62-0.29-1.24-0.42-1.86c-0.25-0.12-0.49-0.17-0.71-0.18
				c-0.22,0-0.43,0.03-0.63,0.09c-0.2,0.06-0.39,0.14-0.59,0.25c-0.19,0.11-0.38,0.21-0.56,0.3c-0.38,0.19-0.75,0.39-1.13,0.6
				c-0.38,0.2-0.76,0.39-1.15,0.55c-0.21,0.07-0.43,0.12-0.65,0.15c-0.22,0.03-0.43,0.01-0.62-0.05c-0.18-0.05-0.37-0.15-0.55-0.3
				c-0.18-0.15-0.3-0.31-0.35-0.48c-0.05-0.17-0.05-0.38,0-0.65c0.05-0.26,0.13-0.43,0.25-0.51c0.47-0.28,0.94-0.57,1.41-0.87
				c0.47-0.3,0.95-0.59,1.43-0.86c0.49-0.27,0.99-0.51,1.51-0.71c0.52-0.21,1.07-0.35,1.64-0.43c0.79-0.11,1.42-0.04,1.89,0.2
				c0.47,0.24,0.87,0.73,1.22,1.47c0.13,0.29,0.25,0.56,0.35,0.84c0.11,0.27,0.2,0.53,0.3,0.79c0.18,0.19,0.38,0.32,0.59,0.4
				c0.21,0.08,0.42,0.13,0.63,0.15c0.21,0.02,0.43,0.03,0.65,0.02c0.22-0.01,0.43,0,0.63,0.02c0.32,0.03,0.59,0.12,0.83,0.27
				c0.24,0.15,0.4,0.4,0.49,0.74c0.08,0.33,0.02,0.65-0.18,0.95c-0.2,0.31-0.49,0.51-0.86,0.61c-0.29,0.08-0.6,0.14-0.91,0.18
				C710.82,31.65,710.45,31.7,710.03,31.76z M719.46,38.9c0.32,0.08,0.62,0.11,0.9,0.09c0.28-0.02,0.55-0.07,0.8-0.15
				s0.49-0.17,0.72-0.28s0.46-0.22,0.69-0.34c0.43-0.2,0.85-0.41,1.28-0.63c0.42-0.22,0.85-0.42,1.29-0.61
				c0.26-0.12,0.51-0.14,0.74-0.07c0.24,0.07,0.45,0.21,0.65,0.41c0.19,0.2,0.28,0.47,0.27,0.8c-0.01,0.33-0.13,0.62-0.36,0.86
				c-0.12,0.13-0.25,0.25-0.37,0.36c-0.12,0.11-0.26,0.2-0.41,0.28c-0.62,0.34-1.23,0.66-1.84,0.96c-0.61,0.3-1.23,0.6-1.88,0.9
				c-0.19,0.1-0.4,0.17-0.6,0.22c-0.21,0.04-0.41,0.09-0.62,0.12c-0.7,0.11-1.34,0.08-1.92-0.09c-0.58-0.18-1.09-0.56-1.52-1.15
				c-0.48-0.65-0.75-1.33-0.83-2.02c-0.07-0.69,0.1-1.39,0.53-2.11c0.2-0.33,0.43-0.64,0.7-0.92c0.27-0.28,0.53-0.57,0.78-0.88
				c0.14-0.16,0.3-0.32,0.46-0.46c0.16-0.15,0.3-0.31,0.4-0.48c0.06-0.08,0.1-0.2,0.11-0.36c0.01-0.15-0.02-0.27-0.09-0.34
				c-0.09-0.11-0.22-0.22-0.39-0.33c-0.17-0.11-0.31-0.14-0.41-0.11c-0.47,0.17-0.94,0.37-1.41,0.59c-0.47,0.22-0.93,0.45-1.39,0.69
				c-0.2,0.09-0.38,0.2-0.53,0.35c-0.15,0.15-0.33,0.27-0.53,0.35c-0.26,0.12-0.51,0.15-0.77,0.1c-0.25-0.05-0.46-0.19-0.61-0.42
				c-0.1-0.16-0.17-0.36-0.21-0.59c-0.04-0.23-0.03-0.43,0.03-0.58c0.11-0.27,0.26-0.53,0.45-0.79c0.19-0.26,0.41-0.46,0.65-0.6
				c0.63-0.38,1.27-0.74,1.92-1.08c0.64-0.34,1.3-0.64,1.98-0.9c0.75-0.28,1.4-0.33,1.93-0.13c0.53,0.19,0.99,0.63,1.38,1.31
				c0.42,0.72,0.73,1.31,0.93,1.79c0.2,0.48,0.28,0.91,0.23,1.3c-0.05,0.39-0.22,0.77-0.52,1.14c-0.3,0.38-0.75,0.8-1.35,1.29
				c-0.5,0.4-0.9,0.84-1.19,1.33c-0.08,0.15-0.11,0.33-0.08,0.54C719.45,38.5,719.47,38.71,719.46,38.9z M714.99,21.78
				c0.55-0.2,1.06-0.38,1.52-0.54c0.46-0.17,0.92-0.32,1.37-0.47c0.21-0.07,0.42-0.13,0.63-0.18c0.21-0.05,0.42-0.06,0.62-0.04
				c0.15,0.01,0.31,0.07,0.49,0.17c0.18,0.1,0.29,0.21,0.33,0.33c0.07,0.17,0.11,0.38,0.12,0.61c0.01,0.24-0.04,0.43-0.14,0.58
				c-0.12,0.21-0.29,0.38-0.5,0.54c-0.21,0.15-0.43,0.29-0.64,0.42c-0.31,0.18-0.63,0.34-0.96,0.47c-0.33,0.13-0.69,0.29-1.1,0.46
				c0.11,0.38,0.22,0.75,0.34,1.1c0.12,0.35,0.22,0.71,0.3,1.07c0.07,0.32,0.03,0.62-0.13,0.91c-0.16,0.29-0.37,0.48-0.62,0.56
				c-0.56,0.18-1.02,0.05-1.39-0.39c-1.5-1.69-2.63-3.61-3.39-5.76c-0.09-0.27-0.11-0.53-0.08-0.78c0.02-0.27,0.08-0.52,0.19-0.73
				c0.11-0.21,0.31-0.37,0.62-0.47c0.54-0.17,0.99-0.02,1.35,0.47c0.16,0.25,0.33,0.5,0.5,0.76
				C714.58,21.13,714.77,21.44,714.99,21.78z"/>
			<path class="st61" d="M732.31,29.7c-0.54,0.07-1.06,0.03-1.56-0.12c-0.49-0.15-0.94-0.37-1.33-0.67
				c-0.39-0.3-0.71-0.65-0.96-1.07c-0.24-0.42-0.37-0.87-0.39-1.36c-0.01-0.49,0.06-0.98,0.23-1.49c0.17-0.5,0.42-0.96,0.74-1.37
				c0.32-0.41,0.7-0.76,1.16-1.04c0.45-0.28,0.94-0.45,1.48-0.5c1.2-0.12,2.2,0.07,3.01,0.58c0.81,0.51,1.29,1.29,1.44,2.33
				c0.06,0.5,0.02,1.03-0.14,1.58c-0.16,0.56-0.41,1.07-0.75,1.53c-0.34,0.46-0.76,0.85-1.26,1.16
				C733.48,29.57,732.92,29.71,732.31,29.7z M729.63,17.77c-0.01-0.28-0.01-0.57-0.03-0.85c-0.01-0.28-0.01-0.56,0-0.83
				c0.02-0.35,0.1-0.67,0.23-0.95c0.14-0.29,0.39-0.49,0.75-0.62c0.26-0.08,0.52-0.03,0.8,0.16c0.28,0.19,0.5,0.48,0.68,0.88
				c0.06,0.12,0.11,0.25,0.13,0.39c0.03,0.14,0.06,0.28,0.11,0.41c0.06,0.12,0.13,0.24,0.19,0.38c0.06,0.13,0.13,0.28,0.2,0.45
				c0.47,0,0.94-0.01,1.41-0.03c0.46-0.02,0.93-0.01,1.39,0.02c0.29,0.01,0.54,0.11,0.76,0.29c0.22,0.18,0.35,0.43,0.39,0.74
				c0.03,0.34-0.05,0.61-0.23,0.81c-0.18,0.2-0.4,0.36-0.67,0.49c-0.12,0.05-0.25,0.08-0.4,0.11c-0.15,0.03-0.28,0.06-0.4,0.09
				c-0.98,0.21-1.96,0.4-2.92,0.58c-0.96,0.18-1.93,0.37-2.9,0.58c-1.53,0.28-2.33,0.03-2.39-0.73c-0.04-0.28-0.01-0.51,0.09-0.7
				c0.09-0.19,0.22-0.34,0.38-0.45c0.16-0.12,0.34-0.22,0.53-0.31c0.19-0.09,0.38-0.18,0.56-0.28c0.21-0.12,0.42-0.23,0.63-0.32
				S729.38,17.88,729.63,17.77z M733.41,25.6c0-0.25-0.13-0.46-0.39-0.61c-0.26-0.16-0.57-0.23-0.93-0.21
				c-0.41,0.02-0.72,0.14-0.95,0.36c-0.23,0.22-0.33,0.5-0.32,0.85c0.01,0.32,0.12,0.57,0.33,0.78c0.21,0.2,0.47,0.3,0.78,0.29
				c0.41-0.02,0.76-0.17,1.04-0.45C733.27,26.31,733.41,25.98,733.41,25.6z M740.45,30.19c0.11,0.08,0.21,0.16,0.33,0.24
				c0.11,0.08,0.24,0.15,0.37,0.21c0.13,0.06,0.27,0.1,0.42,0.12c0.14,0.02,0.33,0.06,0.56,0.11c0.18-0.43,0.35-0.87,0.52-1.3
				c0.17-0.43,0.35-0.87,0.54-1.3c0.1-0.2,0.21-0.41,0.32-0.62c0.11-0.21,0.26-0.4,0.42-0.56c0.11-0.11,0.26-0.19,0.45-0.25
				c0.19-0.06,0.37-0.07,0.55-0.05c0.15,0.04,0.29,0.13,0.42,0.27c0.14,0.13,0.26,0.27,0.37,0.41c0.07,0.07,0.12,0.15,0.14,0.25
				c0.02,0.1,0.02,0.19,0,0.27c-0.11,0.36-0.15,0.69-0.11,0.99c0.04,0.29,0.12,0.57,0.26,0.83c0.14,0.26,0.3,0.5,0.51,0.72
				c0.2,0.22,0.42,0.43,0.65,0.64c0.27,0.28,0.55,0.54,0.84,0.79c0.28,0.25,0.53,0.52,0.75,0.83c0.12,0.16,0.19,0.37,0.21,0.62
				c0.02,0.26,0,0.48-0.07,0.66c-0.13,0.32-0.34,0.5-0.63,0.55c-0.29,0.05-0.57,0.04-0.85-0.03c-0.21-0.07-0.42-0.17-0.62-0.31
				s-0.39-0.28-0.59-0.41c-0.28-0.19-0.54-0.38-0.8-0.57c-0.25-0.2-0.55-0.41-0.87-0.63c-0.22,0.49-0.43,0.95-0.61,1.41
				c-0.19,0.45-0.39,0.89-0.6,1.31c-0.14,0.26-0.33,0.46-0.57,0.61c-0.24,0.15-0.51,0.16-0.81,0.02c-0.18-0.07-0.37-0.2-0.57-0.4
				c-0.2-0.2-0.29-0.38-0.28-0.56c-0.01-0.6-0.16-1.09-0.43-1.46c-0.27-0.38-0.77-0.61-1.49-0.71c-0.18,0.31-0.38,0.64-0.59,0.99
				c-0.22,0.35-0.44,0.69-0.66,1.02c-0.19,0.26-0.4,0.45-0.65,0.56c-0.25,0.11-0.52,0.09-0.82-0.06c-0.29-0.14-0.49-0.34-0.62-0.59
				c-0.13-0.26-0.15-0.54-0.06-0.83c0.31-1.03,0.66-2.05,1.05-3.06c0.39-1.01,0.9-1.97,1.52-2.89c0.06-0.12,0.16-0.21,0.28-0.29
				c0.12-0.07,0.24-0.15,0.36-0.25c0.15-0.08,0.31-0.13,0.48-0.13c0.17-0.01,0.33,0.03,0.49,0.1c0.15,0.08,0.28,0.18,0.39,0.3
				c0.11,0.13,0.18,0.28,0.2,0.45c0.01,0.17-0.01,0.35-0.05,0.53c-0.04,0.18-0.06,0.37-0.07,0.58c-0.02,0.13-0.02,0.26-0.01,0.4
				C740.43,29.86,740.44,30.01,740.45,30.19z M745.63,26.08c-0.56-0.15-0.95-0.36-1.2-0.64c-0.24-0.28-0.41-0.58-0.51-0.92
				c-0.1-0.33-0.17-0.68-0.22-1.04c-0.05-0.36-0.14-0.69-0.3-1c-0.27,0-0.55,0-0.85-0.01c-0.3-0.01-0.65,0-1.04,0.02
				c-0.02,0.46-0.02,0.88,0.01,1.24c0.02,0.37,0,0.73-0.08,1.09c-0.04,0.18-0.15,0.37-0.32,0.56c-0.17,0.2-0.36,0.33-0.55,0.4
				c-0.28,0.15-0.54,0.16-0.79,0.03c-0.25-0.13-0.46-0.33-0.63-0.61c-0.04-0.07-0.09-0.15-0.15-0.24c-0.06-0.09-0.09-0.18-0.11-0.27
				c-0.13-1.03-0.26-2.05-0.4-3.09c-0.13-1.03-0.23-2.07-0.3-3.1c-0.04-0.55,0.04-0.97,0.23-1.26c0.19-0.29,0.46-0.48,0.79-0.55
				c0.35-0.08,0.65,0.02,0.88,0.29c0.23,0.27,0.43,0.73,0.59,1.37c0.05,0.18,0.1,0.37,0.14,0.57c0.04,0.2,0.09,0.44,0.14,0.72
				c0.36,0,0.72,0.01,1.08,0.01c0.36,0.01,0.76,0.02,1.22,0.02c0.05-0.43,0.09-0.83,0.12-1.2c0.02-0.37,0.08-0.73,0.16-1.09
				c0.05-0.32,0.18-0.58,0.39-0.76c0.21-0.18,0.47-0.28,0.78-0.29c0.31-0.01,0.58,0.08,0.79,0.27c0.21,0.19,0.34,0.44,0.38,0.77
				c0.12,1.17,0.24,2.34,0.36,3.52c0.12,1.18,0.21,2.35,0.27,3.53c0,0.27-0.1,0.54-0.32,0.82
				C745.97,25.53,745.78,25.81,745.63,26.08z"/>
			<path class="st61" d="M768.46,27.41l-4.59-0.99c-0.46,1.25-0.92,2.23-1.37,2.95c-0.45,0.72-0.96,1.25-1.51,1.6
				c-0.56,0.35-1.19,0.54-1.9,0.57c-0.71,0.04-1.56,0-2.55-0.12c-0.69-0.08-1.32-0.31-1.9-0.66c-0.58-0.36-1.08-0.8-1.51-1.32
				c-0.42-0.52-0.76-1.1-0.99-1.74c-0.24-0.64-0.36-1.28-0.36-1.94c0.02-1.6,0.5-2.94,1.42-4.03c0.92-1.09,2.2-1.8,3.82-2.12
				c0.67-0.13,1.33-0.11,1.98,0.06c0.65,0.17,1.27,0.46,1.86,0.89c0.59,0.43,1.13,0.98,1.62,1.65c0.49,0.67,0.9,1.43,1.25,2.29
				c0.4-0.07,0.8-0.15,1.19-0.24c0.39-0.08,0.8-0.12,1.21-0.11c0.42-0.01,0.84,0.03,1.26,0.12c0.42,0.08,0.87,0.16,1.36,0.23
				c0.17-0.43,0.33-0.85,0.48-1.26c0.14-0.41,0.3-0.8,0.46-1.19c0.14-0.29,0.36-0.49,0.66-0.6c0.3-0.11,0.59-0.11,0.87-0.01
				c0.28,0.11,0.48,0.27,0.59,0.48c0.11,0.21,0.18,0.45,0.2,0.73c0.03,0.15,0.03,0.32-0.01,0.5c-0.22,1.33-0.45,2.65-0.67,3.95
				c-0.23,1.31-0.47,2.62-0.74,3.94c-0.06,0.37-0.18,0.73-0.34,1.09c-0.17,0.36-0.35,0.7-0.55,1.02c-0.09,0.12-0.26,0.22-0.5,0.3
				c-0.24,0.08-0.45,0.1-0.62,0.08c-0.17-0.04-0.34-0.14-0.52-0.3c-0.18-0.17-0.29-0.34-0.34-0.51c-0.07-0.29-0.09-0.58-0.08-0.87
				c0.02-0.29,0.05-0.59,0.09-0.88c0.09-0.56,0.2-1.12,0.33-1.68C768.19,28.73,768.32,28.1,768.46,27.41z M758.36,22.51
				c-0.48-0.09-0.93-0.09-1.35,0c-0.42,0.09-0.8,0.24-1.14,0.48c-0.34,0.23-0.62,0.53-0.85,0.89s-0.38,0.77-0.45,1.24
				c-0.07,0.42-0.06,0.82,0.05,1.21c0.11,0.39,0.28,0.75,0.51,1.07c0.23,0.32,0.53,0.6,0.88,0.84c0.35,0.24,0.74,0.4,1.17,0.49
				c0.96,0.22,1.75,0.13,2.38-0.28c0.63-0.41,1.03-1.09,1.2-2.05c0.19-1.02,0.06-1.88-0.37-2.58
				C759.96,23.12,759.29,22.68,758.36,22.51z"/>
			<path class="st61" d="M774.27,37.46c0.21-0.51,0.4-0.98,0.56-1.4c0.17-0.42,0.35-0.82,0.53-1.2c0.1-0.23,0.2-0.47,0.32-0.71
				c0.11-0.24,0.26-0.44,0.45-0.61c0.13-0.13,0.3-0.23,0.51-0.3c0.21-0.07,0.42-0.1,0.6-0.08c0.29,0.03,0.53,0.14,0.71,0.34
				c0.18,0.2,0.27,0.44,0.26,0.7c-0.02,0.38-0.08,0.76-0.18,1.13c-0.1,0.37-0.21,0.74-0.33,1.1c-0.06,0.2-0.14,0.4-0.24,0.6
				c-0.1,0.2-0.18,0.4-0.25,0.6c-0.07,0.2-0.13,0.42-0.16,0.65c-0.04,0.23-0.02,0.48,0.04,0.75l1.42,0.82
				c0.22-0.16,0.42-0.35,0.59-0.55c0.17-0.21,0.33-0.42,0.47-0.64c0.14-0.22,0.27-0.44,0.4-0.67c0.13-0.22,0.27-0.44,0.42-0.64
				c0.18-0.24,0.35-0.49,0.51-0.74c0.16-0.25,0.35-0.48,0.56-0.68c0.2-0.19,0.42-0.31,0.67-0.36c0.24-0.05,0.5,0.01,0.76,0.18
				c0.24,0.14,0.42,0.33,0.53,0.55c0.11,0.23,0.14,0.48,0.07,0.75c-0.19,0.65-0.45,1.28-0.77,1.89c-0.21,0.42-0.44,0.84-0.68,1.25
				c-0.25,0.41-0.5,0.84-0.76,1.29c0.28,0.27,0.56,0.53,0.85,0.78c0.29,0.25,0.56,0.52,0.81,0.81c0.19,0.2,0.3,0.43,0.32,0.69
				c0.02,0.26-0.04,0.51-0.18,0.75c-0.14,0.24-0.33,0.41-0.57,0.5c-0.24,0.09-0.5,0.1-0.78,0.05c-0.35-0.06-0.66-0.17-0.95-0.33
				c-1.5-0.87-2.99-1.74-4.47-2.59c-1.48-0.86-2.96-1.73-4.46-2.61c-0.19-0.11-0.37-0.23-0.54-0.36c-0.17-0.13-0.33-0.27-0.48-0.41
				c-0.25-0.23-0.39-0.51-0.44-0.83c-0.05-0.32-0.02-0.6,0.1-0.84c0.13-0.23,0.35-0.4,0.64-0.5c0.29-0.1,0.61-0.1,0.95,0.01
				c0.34,0.11,0.67,0.23,1,0.38C773.43,37.14,773.82,37.29,774.27,37.46z M785.45,24.63c0.1,0.08,0.25,0.17,0.46,0.29
				c0.2,0.12,0.4,0.27,0.58,0.45c0.77,0.73,1.32,1.54,1.66,2.41c0.34,0.87,0.34,1.85,0.02,2.93c-0.15,0.51-0.38,0.99-0.7,1.44
				c-0.32,0.45-0.69,0.85-1.12,1.2c-0.43,0.35-0.89,0.63-1.39,0.85c-0.5,0.22-1,0.34-1.51,0.38c-2.21,0.13-4.01-0.7-5.39-2.5
				c-0.33-0.43-0.58-0.88-0.74-1.37c-0.16-0.48-0.21-0.99-0.13-1.53c0.09-0.49,0.19-0.99,0.31-1.5c0.12-0.51,0.3-0.98,0.54-1.42
				C779.7,23.22,782.17,22.68,785.45,24.63z M784.17,27.04c-0.81-0.49-1.51-0.68-2.12-0.59c-0.61,0.09-1.1,0.44-1.48,1.03
				c-0.3,0.46-0.5,0.93-0.6,1.42c-0.1,0.49,0.01,0.98,0.34,1.47c0.7,1.02,1.66,1.5,2.89,1.43c0.55-0.04,0.99-0.22,1.31-0.53
				c0.32-0.31,0.61-0.68,0.84-1.13c0.22-0.45,0.28-0.87,0.17-1.26c-0.11-0.39-0.3-0.76-0.58-1.13c-0.14-0.17-0.28-0.31-0.44-0.43
				C784.34,27.21,784.23,27.11,784.17,27.04z"/>
		</g>
		<polygon class="st61" points="756.46,147.23 760.49,152.05 766.75,151.46 763.41,156.79 765.9,162.56 759.8,161.03 755.08,165.18 
			754.66,158.91 749.25,155.7 755.08,153.36 		"/>
		<polygon class="st61" points="780.14,136.43 780.9,142.67 776.19,146.84 782.36,148.05 784.86,153.81 787.92,148.32 
			794.17,147.72 789.89,143.12 791.26,136.98 785.56,139.63 		"/>
		<polygon class="st61" points="798.92,119.5 801.62,125.18 798.47,130.62 804.7,129.81 808.91,134.49 810.06,128.31 815.81,125.75 
			810.28,122.75 809.63,116.49 805.07,120.82 		"/>
		<polygon class="st61" points="729.95,148.59 732.13,154.49 738.22,156.03 733.29,159.93 733.7,166.2 728.47,162.72 722.64,165.05 
			724.34,159 720.31,154.17 726.59,153.91 		"/>
		<polygon class="st61" points="705.5,142.13 705.7,148.42 710.99,151.81 705.08,153.94 703.48,160.03 699.63,155.06 693.35,155.42 
			696.88,150.22 694.6,144.36 700.64,146.11 		"/>
		<path class="st62" d="M830.53,69.2c-11.75-48.5-60.77-78.4-109.26-66.65c-23.46,5.68-43.32,20.19-55.92,40.85
			c-12.6,20.66-16.41,44.96-10.73,68.41c9.22,38.04,41.36,64.64,78.2,68.67c10.12,1.11,20.61,0.51,31.07-2.02
			c23.46-5.68,43.32-20.19,55.92-40.85C832.4,116.96,836.21,92.66,830.53,69.2z M762.76,173.85c-45.96,11.13-92.4-17.2-103.53-63.15
			c-5.38-22.23-1.77-45.25,10.17-64.83c11.94-19.58,30.76-33.32,52.99-38.71c45.95-11.13,92.4,17.2,103.53,63.15
			C837.05,116.28,808.72,162.72,762.76,173.85z"/>
	</g>
	<g>
		<g>
			<path class="st261" d="M29.12,69.67c4.48,1.19,6.09,4.69,4.13,8.96c-0.91,2.03-2.31,3.92-3.71,6.23c1.4,1.68,2.94,3.36,4.27,5.11
				c1.19,1.68,0.98,3.64-0.21,4.97c-1.33,1.47-2.94,1.61-4.9,0.49c-1.61-0.84-2.94-1.96-4.83-3.15c-1.61,1.68-3.15,3.29-4.83,4.9
				c-0.91,0.84-2.03,1.75-3.22,1.96c-1.05,0.21-2.45-0.21-3.5-0.84c-1.4-0.91-1.82-2.59-0.98-4.06c0.84-1.61,2.1-2.87,3.22-4.27
				c2.52-3.29,5.04-6.51,7.49-9.81c0.28-0.35,0.07-0.91,0.28-1.96c-3.43-0.84-6.93-0.07-10.37,0.28c-2.52,0.21-5.11,0.7-7.63,0.91
				c-2.31,0.07-4.13-1.68-4.2-3.64c-0.07-1.75,1.12-3.43,3.08-3.92c3.29-0.77,6.44-1.33,10.3-2.1c0.07-1.33,0.21-2.8,0.42-4.2
				c0.21-1.61-0.14-3.29,0.63-4.48c0.63-1.19,2.03-2.38,3.36-2.66c1.61-0.35,2.94,0.84,3.43,2.45c0.77,2.45,1.05,4.97,1.68,7.84
				C25.62,69.18,27.37,69.18,29.12,69.67z M45.86,104.27c4.55,0.49,7.35,2.73,7.63,7.21c0.28,5.11,0.14,10.29-0.49,15.34
				c-0.63,4.83-3.01,6.51-7.84,6.79c-3.92,0.21-7.63,0.35-11.56,0.28c-4.2-0.07-5.81-1.05-6.3-5.18
				c-0.77-6.09-1.19-12.19-1.26-18.42c-0.07-3.57,2.03-5.25,5.95-5.6c2.31-0.28,4.62-0.21,7.77-0.42
				C41.24,104.27,43.55,104.06,45.86,104.27z M44.39,125.28c1.12-4.76,1.75-8.54,0.14-12.47c-5.67-0.56-5.6-0.49-10.16,0.84
				c-0.56,3.85-1.19,8.12,1.54,11.63H44.39z M51.96,77.44c2.31,0.77,4.48,1.33,6.65,2.1c1.61,0.63,2.38,2.1,2.17,3.71
				c-0.21,1.75-1.33,2.8-2.94,3.08c-1.75,0.28-3.57,0.28-5.81,0.49c-0.49,2.24-0.7,4.34-1.33,6.51c-0.49,1.61-1.82,2.59-3.5,2.59
				c-1.68,0-2.94-0.98-3.5-2.59c-0.42-1.26-0.63-2.52-0.56-3.71c0.07-6.72,0.14-13.38,0.35-20.1c0.07-1.05,0.21-1.96,0.56-3.01
				c0.56-1.61,1.68-2.59,3.43-2.52c1.89,0.07,3.01,0.98,3.36,2.66c0.35,2.03,0.35,4.06,0.56,6.09L51.96,77.44z"/>
			<path class="st261" d="M89.99,109.1c-5.53,3.01-10.79,2.59-16.04-0.7c-2.66-1.75-4.48-4.2-5.46-7.21
				c-1.89-6.16,0.84-15.55,5.95-19.54c3.71-2.87,8.05-3.01,12.47-1.96c6.23,1.54,11.28,8.47,11.49,15.2
				C98.18,100.97,95.66,105.95,89.99,109.1z M78.92,101.6c2.38,1.54,4.76,1.61,7.14,0.14c5.25-3.22,5.25-9.88,0.21-13.24
				c-3.15-2.03-6.65-1.19-8.4,2.17c-0.77,1.61-1.26,3.29-1.61,4.13C75.98,98.17,76.68,100.2,78.92,101.6z M112.68,75.2
				c0.91-2.24,4.76-2.31,5.67-0.07c0.84,1.75,1.33,3.71,1.4,5.88c0.21,5.88,0.07,11.77,0.28,17.72c0,3.08,0.28,6.16,0.21,9.25
				c-0.07,1.75-0.42,3.57-0.91,5.32c-0.49,1.61-1.82,2.52-3.57,2.31c-1.68-0.07-2.94-1.05-3.29-2.73c-0.35-1.47-0.28-2.94-0.49-4.55
				c-0.21-1.96-0.21-3.99-0.42-6.3c-2.17-0.21-3.92-0.21-5.67-0.42c-2.52-0.35-4.13-1.89-4.13-3.78c0-1.89,1.4-3.22,4.13-3.85
				c1.47-0.35,3.08-0.42,4.48-0.91c0.49-0.21,0.7-1.12,1.33-2.45l-7.14-0.56c-2.17-0.28-3.57-1.54-3.78-3.22
				c-0.21-1.75,0.77-3.57,2.66-4.2c2.45-0.77,4.9-1.19,7.91-1.82C111.84,78.63,111.91,76.81,112.68,75.2z"/>
			<path class="st261" d="M139.51,69.11c0.28-1.68,2.31-3.22,3.78-2.66c1.19,0.49,2.38,1.54,2.87,2.66
				c0.91,2.31,1.33,4.83,1.89,7.56c2.73,0.35,5.11,0.49,7.56,1.26c1.05,0.35,1.96,1.96,2.17,3.08c0.21,0.77-0.77,2.17-1.61,2.66
				c-1.75,0.84-3.71,1.26-5.6,1.54c-5.67,0.56-11.28-0.14-16.88,1.54c-0.77,0.21-1.68,0.07-2.45-0.21c-1.89-0.35-3.29-1.26-3.5-3.22
				c-0.21-1.96,1.05-3.29,2.73-3.85c2.59-0.91,5.39-1.33,8.54-2.1C139.23,74.08,139.23,71.56,139.51,69.11z M145.6,120.66
				c-6.93,0.35-13.17-6.16-13.17-12.89c0-8.05,6.79-16.32,13.31-16.11c8.4,0.35,14.99,7,14.99,15.34
				C160.24,115.47,155.69,120.17,145.6,120.66z M140.77,106.37c-0.07,3.08,1.26,5.18,3.71,5.95c3.15,1.05,6.51-0.49,7.84-3.22
				s0.49-5.74-2.1-7.42c-1.61-1.05-3.5-1.61-5.39-2.38C141.68,101.47,140.77,103.64,140.77,106.37z M182.3,83.75
				c0.21-1.75,1.54-2.94,3.43-3.15c2.03-0.07,3.22,1.12,3.71,2.8c0.35,0.91,0.56,2.03,0.56,3.36l-0.7,23.6
				c-0.07,1.12-0.21,2.52-0.84,3.15c-0.84,1.05-2.31,2.17-3.36,1.96c-1.12-0.07-2.59-1.54-2.8-2.59c-0.49-2.17-0.21-4.48-0.42-6.72
				c-0.07-1.19-0.14-2.24-0.35-3.85c-1.68-0.28-3.57-0.7-5.18-0.98c-0.49,0.91-0.98,1.33-0.98,1.82c-0.21,2.87-0.07,5.6-0.28,8.47
				c-0.21,2.24-1.82,3.92-3.5,4.13c-1.61,0.21-3.64-1.54-4.13-3.5c-0.28-0.84-0.42-1.68-0.42-2.52c-0.21-7.92-0.56-15.76-0.63-23.67
				c-0.07-1.61,0.49-3.29,1.26-4.76c0.63-1.33,2.1-2.1,3.5-1.33c1.05,0.35,2.03,1.4,2.24,2.24c0.49,1.89,0.28,3.92,0.49,5.81
				c0.35,5.39,0.98,5.67,7.7,4.55C181.81,89.28,181.81,86.48,182.3,83.75z"/>
			<path class="st261" d="M252.9,118.62c-0.07,2.03-0.14,4.2-0.91,6.09c-0.35,0.91-1.89,1.82-2.94,1.89
				c-1.05,0.07-2.66-0.77-3.15-1.68c-0.77-1.47-0.91-3.36-1.12-5.11c-0.21-4.13-0.14-8.05-0.21-12.26
				c-3.71-1.68-6.93-0.77-10.3-1.12c-2.31-0.21-4.62-0.14-6.86-0.63c-1.61-0.28-2.73-1.54-2.73-3.29s0.91-2.87,2.66-3.36
				c1.47-0.35,2.94-0.56,4.55-0.63l28.51-0.63c2.31,0,4.62,0.42,6.79,0.98c1.61,0.49,2.52,1.75,2.52,3.5s-1.12,2.94-2.73,3.29
				c-1.96,0.49-4.06,0.42-6.09,0.63c-2.45,0.21-5.18-0.63-7.98,1.05C252.9,111.06,252.97,114.77,252.9,118.62z M235.81,68.13
				c-2.31-0.07-4.62,0.07-6.86-0.42c-1.05-0.21-2.17-1.47-2.38-2.52c-0.21-1.05,0.42-2.52,1.19-3.29c0.84-0.84,2.24-1.47,3.43-1.47
				c6.16,0,12.33,0.14,18.49,0.35c1.19,0.07,2.45,0.7,3.57,1.26c2.17,1.12,3.29,3.64,2.38,5.88c-0.84,2.17-2.17,4.06-3.29,6.09
				c1.33,3.08,3.64,5.11,5.32,7.63c1.05,1.47,1.96,3.01,2.73,4.62c0.84,1.89,0.07,3.92-1.4,4.69c-1.61,0.77-3.15,0.63-4.34-0.42
				c-1.19-0.91-2.1-2.24-3.15-3.43l-3.5-3.99c-0.07-0.14-0.35-0.28-0.84-0.42c-0.49,0.35-1.12,0.77-1.61,1.26
				c-0.77,0.77-1.19,1.68-1.82,2.52c-3.64,4.76-5.53,5.81-7.84,4.2c-2.52-1.68-2.17-4.76,0.91-8.75c2.24-2.8,4.13-5.88,6.02-8.89
				c0.63-1.05,1.05-2.24,1.61-3.57C241.42,67.78,238.55,68.34,235.81,68.13z"/>
			<path class="st261" d="M284.84,104.97c-0.28,1.33-0.63,2.52-1.26,3.64c-0.77,1.47-2.31,2.17-3.92,1.61
				c-1.05-0.49-2.17-1.47-2.52-2.52c-0.49-1.4-0.49-3.08-0.28-4.55c1.61-11.28,5.11-21.92,9.31-32.57c1.12-2.87,3.29-4.13,5.25-3.57
				c2.24,0.77,3.15,2.94,2.1,6.51c-0.77,2.73-1.54,5.39-2.59,8.12c-0.91,2.31-0.49,4.48,1.12,6.44c2.31,2.8,4.69,5.53,6.86,8.33
				c1.33,1.61,2.38,3.22,3.43,5.11c1.05,1.75,0.42,3.85-1.19,4.76c-1.47,0.91-3.01,0.91-4.34-0.21c-1.68-1.61-3.08-3.43-4.76-5.04
				c-1.68-1.54-2.38-3.85-5.53-4.27C285.96,99.5,285.47,102.24,284.84,104.97z M321.05,70.16c0.56-2.59,2.17-3.85,4.2-3.64
				c1.75,0.14,2.87,1.4,3.22,3.71c0.07,0.14,0.07,0.35,0.07,0.7c0.77,12.68,1.4,25.07,0.28,37.75c-0.21,1.47-0.14,3.08-0.91,4.41
				c-0.56,1.05-1.89,1.89-2.94,1.96c-1.05,0-2.59-0.84-3.08-1.75c-0.77-1.61-0.84-3.29-1.05-5.18c-0.21-2.73-0.07-5.53-0.07-8.82
				h-6.51c-2.24-0.07-4.55,0.07-6.86-0.14c-1.61-0.21-2.73-1.33-3.01-3.01c-0.28-1.75,0.91-3.57,2.87-4.06
				c1.47-0.35,2.94-0.42,4.55-0.63c2.03-0.21,4.06-0.28,6.09-0.63c2.52-0.42,2.8-1.12,2.24-5.32c-2.8-1.12-6.02-0.35-8.96-0.7
				c-2.03-0.28-3.99-0.7-5.88-1.54c-0.84-0.49-1.61-2.17-1.4-3.22c0.21-1.05,1.26-2.31,2.31-2.59c1.68-0.56,3.43-0.42,5.32-0.49
				c2.8-0.21,5.53-0.21,8.69-0.28C320.56,73.66,320.7,71.91,321.05,70.16z"/>
			<path class="st261" d="M356.56,93.34c1.68,1.61,3.64,2.87,5.32,4.48c2.66,2.52,3.22,4.76,1.75,6.65
				c-1.54,2.03-3.78,1.96-6.79-0.28c-3.08-2.45-5.95-4.83-9.52-7.56c-0.77,1.68-1.47,2.87-1.96,4.2c-0.63,1.68-0.91,3.5-1.68,5.11
				c-0.77,1.61-2.24,2.03-3.92,1.75c-1.75-0.21-2.87-1.4-3.08-3.01c-0.28-1.47-0.21-3.08,0.28-4.48c2.03-6.51,2.94-13.59,5.95-19.89
				c1.33-2.45,1.61-5.39,2.38-8.12c0.35-1.19,0.63-2.45,1.19-3.64c0.77-1.89,2.66-2.87,4.34-2.38c1.68,0.49,3.29,2.1,3.08,3.99
				c-0.07,1.75-0.42,3.5-0.91,5.25c-0.91,3.57-1.82,6.86-3.15,11.35C352.29,89.07,354.32,91.17,356.56,93.34z M379.47,72.26
				c0.07-1.96,1.61-3.43,3.36-3.64c1.68-0.21,3.43,1.05,3.92,3.01c0.49,1.96,1.05,3.99,1.05,6.02c0.14,10.02,0.21,20.03,0.21,30.05
				c0,1.47-0.28,3.01-0.77,4.48c-0.56,2.17-1.89,3.29-3.78,3.29c-1.96,0-3.64-1.61-3.85-4.06c-0.21-1.75,0.07-3.5,0.14-5.39
				c0.21-3.92,0.35-7.63,0.42-11.49c0.07-1.05-0.21-2.03-0.42-2.94c-2.31-1.75-4.41-0.84-6.79-1.05c-2.52-0.21-5.11-0.07-7.63-0.42
				c-1.89-0.21-3.22-2.1-3.15-3.85c0.07-1.75,1.33-3.15,3.5-3.36c4.41-0.49,8.69-0.77,13.73-1.26
				C379.4,77.79,379.26,75.06,379.47,72.26z"/>
			<path class="st261" d="M428.36,74.71c-1.47-0.21-2.94-0.28-4.27-0.77c-2.17-0.77-2.24-4.27-0.42-5.53
				c0.49-0.28,0.77-0.63,1.26-0.7c5.53-1.47,10.86-1.26,15.97,0.77c3.36,1.33,4.9,3.5,3.85,6.93c-1.75,6.16-3.85,12.05-6.02,18.14
				c-0.35,0.91-1.05,1.54-1.82,2.31c-1.68,1.47-4.9,0.42-5.25-1.89c-0.21-1.47-0.14-2.87,0.35-4.27l3.22-9.81
				c0.49-1.33,0.42-2.8,0.63-4.13C433.19,74.22,430.81,75.06,428.36,74.71z M449.93,126.19c-2.52,0-4.97,0.14-7.42-0.07
				c-3.92-0.21-6.02-1.96-6.37-5.88c-0.49-5.11-0.35-10.23-0.14-15.48c0.07-2.45,1.75-4.06,4.2-4.55c5.6-1.05,11.21-1.4,16.88-0.49
				c4.13,0.7,6.23,3.01,6.16,7c-0.07,4.76-0.35,9.25-0.84,14.01c-0.35,3.64-2.17,5.11-5.88,5.32c-2.17,0.07-4.41,0-6.58,0V126.19z
				 M453.92,117.36c1.12-5.11,1.12-5.04,0.21-9.74c-3.29-0.56-6.58-0.84-9.95,0.49c-1.05,3.15-0.77,5.95-0.14,9.38
				C447.9,118.27,450.91,118.41,453.92,117.36z M465.83,92.78c-0.28,1.89-1.61,3.29-3.22,3.5c-1.75,0.28-3.71-1.26-4.2-3.29
				c-0.21-0.77-0.28-1.4-0.28-2.17c0-7.21,0-14.22,0.07-21.29c0-0.91,0.21-1.89,0.56-2.87c0.56-1.47,1.61-2.45,3.29-2.45
				c1.61,0,2.87,0.84,3.22,2.45c0.35,1.89,0.42,3.85,0.63,5.81c0.21,1.4,0.21,2.8,0.42,4.48c2.45,0.35,4.48,0.56,6.65,1.05
				c1.89,0.35,3.15,1.96,3.15,3.57c0,1.61-1.26,3.22-3.15,3.57c-2.17,0.35-4.27,0.56-6.72,0.84
				C466.04,88.51,466.04,90.61,465.83,92.78z"/>
			<path class="st261" d="M491.74,104.48c-0.56,1.4-0.84,2.94-1.61,4.27c-0.77,1.61-2.17,2.1-3.85,1.89
				c-1.75-0.28-2.87-1.4-3.08-3.01c-0.21-1.75,0.07-3.57,0.56-5.25c3.01-11,7.07-21.43,11.49-31.87c1.33-3.29,3.57-4.69,5.74-3.64
				c1.96,0.91,2.59,2.87,1.82,6.02c-0.56,2.24-1.4,4.41-2.17,6.58c-0.63,1.89-1.4,3.78-2.24,6.02l4.69,3.99
				c3.15,2.59,6.51,5.04,9.59,7.77c1.12,0.91,2.03,2.31,2.66,3.64c0.77,1.61,0.21,3.22-1.26,4.06c-1.05,0.56-2.59,0.91-3.5,0.42
				c-2.03-1.05-3.78-2.59-5.67-3.99c-3.01-2.31-5.6-5.11-9.46-6.44C493.28,97.96,492.86,101.32,491.74,104.48z M532.23,107.42
				c0.07,1.89,0.21,3.71-0.35,5.32c-0.28,1.05-1.68,2.03-2.73,2.24c-1.05,0.21-2.59-0.49-3.22-1.33c-0.91-1.12-1.54-2.8-1.61-4.2
				c-0.49-11.14-0.84-22.06-1.12-33.2c0-1.19,0.42-2.52,0.98-3.64c0.77-1.61,2.1-2.52,3.71-1.96c1.05,0.35,2.24,1.47,2.52,2.52
				c0.56,1.68,0.35,3.57,0.56,5.32l0.7,8.89l7.14,0.56c2.03,0.21,4.13,0.07,6.16,0.35c2.52,0.49,4.13,2.17,3.92,4.06
				c-0.21,1.68-1.47,2.94-3.64,3.43c-1.47,0.28-3.01,0.42-4.55,0.42c-2.59,0.07-5.11,0-8.4,0
				C531.39,100.41,532.02,103.85,532.23,107.42z"/>
			<path class="st261" d="M568.16,69.11c0.28-1.68,2.31-3.22,3.78-2.66c1.19,0.49,2.38,1.54,2.87,2.66
				c0.91,2.31,1.33,4.83,1.89,7.56c2.73,0.35,5.11,0.49,7.56,1.26c1.05,0.35,1.96,1.96,2.17,3.08c0.21,0.77-0.77,2.17-1.61,2.66
				c-1.75,0.84-3.71,1.26-5.6,1.54c-5.67,0.56-11.28-0.14-16.88,1.54c-0.77,0.21-1.68,0.07-2.45-0.21c-1.89-0.35-3.29-1.26-3.5-3.22
				c-0.21-1.96,1.05-3.29,2.73-3.85c2.59-0.91,5.39-1.33,8.54-2.1C567.88,74.08,567.88,71.56,568.16,69.11z M574.25,120.66
				c-6.93,0.35-13.17-6.16-13.17-12.89c0-8.05,6.79-16.32,13.31-16.11c8.4,0.35,14.99,7,14.99,15.34
				C588.89,115.47,584.34,120.17,574.25,120.66z M569.42,106.37c-0.07,3.08,1.26,5.18,3.71,5.95c3.15,1.05,6.51-0.49,7.84-3.22
				s0.49-5.74-2.1-7.42c-1.61-1.05-3.5-1.61-5.39-2.38C570.33,101.47,569.42,103.64,569.42,106.37z M610.95,83.75
				c0.21-1.75,1.54-2.94,3.43-3.15c2.03-0.07,3.22,1.12,3.71,2.8c0.35,0.91,0.56,2.03,0.56,3.36l-0.7,23.6
				c-0.07,1.12-0.21,2.52-0.84,3.15c-0.84,1.05-2.31,2.17-3.36,1.96c-1.12-0.07-2.59-1.54-2.8-2.59c-0.49-2.17-0.21-4.48-0.42-6.72
				c-0.07-1.19-0.14-2.24-0.35-3.85c-1.68-0.28-3.57-0.7-5.18-0.98c-0.49,0.91-0.98,1.33-0.98,1.82c-0.21,2.87-0.07,5.6-0.28,8.47
				c-0.21,2.24-1.82,3.92-3.5,4.13c-1.61,0.21-3.64-1.54-4.13-3.5c-0.28-0.84-0.42-1.68-0.42-2.52c-0.21-7.92-0.56-15.76-0.63-23.67
				c-0.07-1.61,0.49-3.29,1.26-4.76c0.63-1.33,2.1-2.1,3.5-1.33c1.05,0.35,2.03,1.4,2.24,2.24c0.49,1.89,0.28,3.92,0.49,5.81
				c0.35,5.39,0.98,5.67,7.7,4.55C610.46,89.28,610.46,86.48,610.95,83.75z"/>
			<path class="st261" d="M635.19,106.58c-0.21-1.47-0.49-3.15,0-4.55c0.28-1.05,1.26-2.17,2.31-2.66c1.61-0.77,3.29-0.14,4.06,1.26
				c1.05,2.03,1.54,4.27,2.03,6.51c0.56,2.45,0.07,5.18,2.31,7.63h4.9c1.33-3.08,0.77-6.23,1.12-9.25c0.21-1.75,0.14-3.57,0.63-5.25
				c0.49-1.61,1.54-2.66,3.43-2.59c1.68,0,3.01,0.84,3.5,2.45c0.49,1.96,0.77,3.99,0.84,6.02c0.21,2.8,0.07,5.6,0.07,8.68
				c2.24,0.56,4.48,0.84,6.65,1.61c1.61,0.49,2.52,1.82,2.52,3.5c0,1.68-1.05,2.87-2.66,3.43c-0.98,0.35-1.96,0.56-2.94,0.56
				c-10.37,0-20.45,0-30.82-0.07c-1.33,0-2.59-0.21-3.78-0.49c-1.96-0.49-3.29-2.17-3.36-3.78c0-1.61,1.33-3.15,3.36-3.64
				s4.06-0.56,6.86-1.05C635.75,111.62,635.4,109.1,635.19,106.58z M649.69,65.47c6.16,1.47,10.72,4.76,12.33,11.28
				c1.47,6.09-1.33,13.66-6.37,17.02c-5.53,3.64-11.42,4.2-17.65,1.61c-3.01-1.19-5.39-3.15-6.58-6.16c-1.05-2.8-2.1-5.81-2.17-8.83
				c-0.28-10.29,5.25-15.41,16.67-15.27C646.67,65.18,648.21,65.12,649.69,65.47z M637.57,79.75c-0.21,3.29,0.49,6.23,3.64,7.84
				c3.29,1.61,6.51,1.4,9.6-0.63c2.73-1.89,3.15-4.48,3.08-7.49c-0.21-3.01-2.1-4.48-4.62-5.53c-1.19-0.49-2.52-0.49-3.08-0.7
				C640.58,73.17,637.78,75.55,637.57,79.75z"/>
			<path class="st261" d="M681.69,130.04c-2.87-0.21-5.11-2.66-5.11-5.67c0-3.15,2.38-5.74,5.53-5.53c2.87,0,5.11,2.59,5.11,5.6
				C687.23,127.45,684.57,130.25,681.69,130.04z M692.76,81.64l-3.01,19.05c-0.21,1.33-0.42,2.87-1.26,3.92
				c-0.77,1.05-2.31,1.96-3.43,1.75s-2.45-1.4-2.94-2.52c-0.56-1.33-0.49-3.01-0.28-4.48c1.12-7.84,2.31-15.41,3.64-23.18
				c0.21-1.61,0.42-2.94,0.7-4.55c0.49-3.01,2.1-4.76,4.27-4.55c2.24,0.21,3.57,2.03,3.64,5.11c0.07,0.35,0,0.7,0,2.03L692.76,81.64
				z"/>
		</g>
	</g>
</g>
</svg>
