<svg xmlns="http://www.w3.org/2000/svg" xmlns:xlink="http://www.w3.org/1999/xlink" viewBox="0 0 456.37 175.28"><defs><style>.cls-1{fill:none;}.cls-2{clip-path:url(#clip-path);}.cls-3{fill:#fff;}</style><clipPath id="clip-path" transform="translate(0 0)"><rect class="cls-1" width="456.37" height="175.28"/></clipPath></defs><title>logo-w</title><g id="레이어_2" data-name="레이어 2"><g id="work"><g id="LOGO_BL"><g class="cls-2"><polygon class="cls-3" points="37.24 0 29.35 37.1 50.69 37.1 19.82 81.86 74.97 81.86 95.92 44.02 98.85 81.86 154 81.86 142.18 37.1 163.55 37.1 171.6 0 37.24 0"/><path class="cls-3" d="M58.47,142.53,62.18,125l94.38.14-3.73,17.52ZM17.61,92.41,0,175.28H197.19l17.6-82.87Z" transform="translate(0 0)"/><polygon class="cls-3" points="182.88 0 165.48 81.86 217.04 81.86 234.52 0 182.88 0"/><polygon class="cls-3" points="266.18 0 208.59 175.28 248.88 175.28 306.68 0 266.18 0"/><polygon class="cls-3" points="318.14 0 260.33 175.28 299.27 175.28 328.69 70.27 313.33 175.28 349.87 175.28 372.29 0 318.14 0"/><polygon class="cls-3" points="394.6 0 357.51 175.28 409.14 175.28 422.39 112.29 446.42 112.29 456.37 65.68 432.33 65.68 446.21 0 394.6 0"/></g></g></g></g></svg>