<?xml version="1.0" encoding="utf-8"?>
<!-- Generator: Adobe Illustrator 27.0.0, SVG Export Plug-In . SVG Version: 6.00 Build 0)  -->
<svg version="1.1" id="Layer_1" xmlns="http://www.w3.org/2000/svg" xmlns:xlink="http://www.w3.org/1999/xlink" x="0px" y="0px"
	 viewBox="0 0 891.55 846.76" style="enable-background:new 0 0 891.55 846.76;" xml:space="preserve">
<style type="text/css">
	.st0{fill:#3D51FF;}
	.st1{fill:#456DFF;}
	.st2{fill:#041071;}
	.st3{clip-path:url(#SVGID_00000063627395653524023260000014689575491506224305_);}
	.st4{fill-rule:evenodd;clip-rule:evenodd;}
	.st5{fill:#567FFF;}
	.st6{fill:#FFFFFF;stroke:#FFFFFF;stroke-miterlimit:10;}
	.st7{fill:#FF4BDE;}
	.st8{fill:#FFFF54;}
	.st9{fill:#2637B6;}
	.st10{fill:#FFFFFF;stroke:#000000;stroke-width:4.5;stroke-linecap:round;stroke-linejoin:round;stroke-miterlimit:10;}
	.st11{fill:none;stroke:#000000;stroke-width:4.5;stroke-linecap:round;stroke-linejoin:round;stroke-miterlimit:10;}
	.st12{fill:#FFFFFF;}
	.st13{fill:#3D50F4;}
	.st14{stroke:#000000;stroke-width:4.5;stroke-linecap:round;stroke-linejoin:round;stroke-miterlimit:10;}
	.st15{fill:#F8DD4C;stroke:#F8DD4C;stroke-width:4.5;stroke-miterlimit:10.0002;}
	.st16{fill-rule:evenodd;clip-rule:evenodd;fill:#3D50F4;}
	.st17{fill:#F8DD4C;stroke:#000000;stroke-width:4.5;stroke-miterlimit:10;}
	.st18{fill:#666666;}
	.st19{fill:#CACACA;}
	.st20{fill:#456DFF;stroke:#2637B6;stroke-width:2.5;stroke-miterlimit:10;}
	.st21{fill:none;stroke:#2637B6;stroke-width:2.5;stroke-linecap:round;stroke-linejoin:round;stroke-miterlimit:10;}
	.st22{fill:none;stroke:#2637B6;stroke-width:2.5;stroke-miterlimit:10;}
	.st23{fill:none;stroke:#2637B6;stroke-width:2.5;stroke-linecap:round;stroke-miterlimit:10;}
	.st24{fill:#FFFFFF;stroke:#000000;stroke-width:2.5;stroke-miterlimit:10;}
	.st25{fill:#FFFFFF;stroke:#000000;stroke-width:2.5;stroke-linecap:round;stroke-linejoin:round;stroke-miterlimit:10;}
	.st26{stroke:#000000;stroke-width:2.5;stroke-linecap:round;stroke-linejoin:round;stroke-miterlimit:10;}
	.st27{fill:#B3B3B3;stroke:#B3B3B3;stroke-width:2.5;stroke-miterlimit:10;}
	.st28{fill:#3D51FF;stroke:#3D51FF;stroke-width:2.5;stroke-linecap:round;stroke-linejoin:round;stroke-miterlimit:10;}
	.st29{fill:none;stroke:#000000;stroke-width:2.5;stroke-linecap:round;stroke-linejoin:round;stroke-miterlimit:10;}
	.st30{fill:#B2E3FF;}
	.st31{fill:#808080;}
	.st32{fill-rule:evenodd;clip-rule:evenodd;fill:#CACACA;}
	.st33{fill:#FFE100;stroke:#FFE100;stroke-width:2.5;stroke-miterlimit:10;}
	.st34{fill:#808080;stroke:#000000;stroke-width:2.5;stroke-linecap:round;stroke-linejoin:round;stroke-miterlimit:10;}
	.st35{fill:#B2E3FF;stroke:#000000;stroke-width:2.5;stroke-linecap:round;stroke-linejoin:round;stroke-miterlimit:10;}
	.st36{fill:#3C59F4;}
	.st37{fill:#CCCCCC;}
	.st38{fill:#F2F2F2;}
	.st39{fill:#F2F2F2;stroke:#000000;stroke-width:2.5;stroke-linecap:round;stroke-linejoin:round;stroke-miterlimit:10;}
	.st40{stroke:#000000;stroke-width:2.5;stroke-miterlimit:10;}
	.st41{fill:#3C59F4;stroke:#3C59F4;stroke-width:2.5;stroke-miterlimit:10;}
	.st42{fill:#C9C9C9;}
	.st43{fill:#FFE200;stroke:#000000;stroke-width:2.5;stroke-linecap:round;stroke-linejoin:round;stroke-miterlimit:10;}
	.st44{fill-rule:evenodd;clip-rule:evenodd;fill:#C9C9C9;}
	.st45{fill:#FADF4C;stroke:#FADF4C;stroke-width:2.5;stroke-miterlimit:10;}
	.st46{fill:#FFE100;}
	.st47{fill:#FFED67;}
	.st48{fill:#FFC600;}
	.st49{fill:#FAAD00;}
	.st50{fill:#FFFFFF;stroke:#000000;stroke-width:2.5;stroke-linecap:round;stroke-miterlimit:10;}
	.st51{fill:none;stroke:#000000;stroke-width:2.5;stroke-linecap:round;stroke-miterlimit:10;}
	.st52{fill:none;}
	.st53{fill:none;stroke:#E6E6E6;stroke-width:2.5;stroke-linecap:round;stroke-linejoin:round;stroke-miterlimit:10;}
	.st54{fill:#D5E9FF;}
	.st55{fill:#FFFF4F;}
	.st56{fill:#FFFFFF;stroke:#000000;stroke-width:6;stroke-linecap:round;stroke-linejoin:round;stroke-miterlimit:10;}
	.st57{fill:none;stroke:#000000;stroke-width:6;stroke-linecap:round;stroke-linejoin:round;stroke-miterlimit:10;}
	.st58{stroke:#000000;stroke-width:6;stroke-linecap:round;stroke-linejoin:round;stroke-miterlimit:10;}
	.st59{fill:#F8DD4C;stroke:#F8DD4C;stroke-width:10.0002;stroke-miterlimit:10.0002;}
	.st60{fill:#F8DD4C;stroke:#000000;stroke-width:6;stroke-miterlimit:10;}
	.st61{fill:#3C59F5;stroke:#3C59F5;stroke-width:0.75;stroke-miterlimit:10;}
	.st62{fill:#3C59F5;}
	.st63{fill:#18BF1B;stroke:#000000;stroke-width:5;stroke-linecap:round;stroke-linejoin:round;stroke-miterlimit:10;}
	.st64{fill:#13DEDE;}
	.st65{clip-path:url(#SVGID_00000031207706054763717450000000580576103350333861_);fill:#FFFFFF;}
	.st66{clip-path:url(#SVGID_00000023988965120962968710000016262325587760762534_);}
	.st67{fill:#3C53F4;}
	.st68{stroke:#000000;stroke-width:1.2;stroke-linecap:round;stroke-linejoin:round;stroke-miterlimit:10;}
	.st69{fill:#FDCB05;stroke:#FDCB05;stroke-width:1.2;stroke-miterlimit:10;}
	.st70{fill:none;stroke:#000000;stroke-width:1.2;stroke-linecap:round;stroke-linejoin:round;stroke-miterlimit:10;}
	.st71{stroke:#000000;stroke-linecap:round;stroke-linejoin:round;stroke-miterlimit:10;}
	.st72{fill:#FDCB05;stroke:#FDCB05;stroke-miterlimit:10;}
	.st73{fill:none;stroke:#000000;stroke-linecap:round;stroke-linejoin:round;stroke-miterlimit:10;}
	.st74{fill:#195426;}
	.st75{clip-path:url(#SVGID_00000010294431381971192800000014868117990335616162_);}
	.st76{fill:none;stroke:#197426;stroke-miterlimit:10;}
	.st77{fill:#139368;}
	.st78{fill:#196C26;}
	.st79{fill:#3A7A63;}
	.st80{filter:url(#Adobe_OpacityMaskFilter);}
	.st81{mask:url(#SVGID_00000027599093355348835770000008702946397154041480_);}
	.st82{fill:#FCFCFC;}
	.st83{fill:none;stroke:#000000;stroke-width:5;stroke-linecap:round;stroke-linejoin:round;stroke-miterlimit:10;}
	.st84{fill:#FFFFFF;stroke:#000000;stroke-linecap:round;stroke-linejoin:round;stroke-miterlimit:10;}
	.st85{fill:#F8DD4C;stroke:#F8DD4C;stroke-width:2;stroke-miterlimit:10.0002;}
	.st86{fill:#F8DD4C;stroke:#000000;stroke-miterlimit:10;}
	.st87{fill:#FFFFFF;stroke:#000000;stroke-width:1.3;stroke-linecap:round;stroke-linejoin:round;stroke-miterlimit:10;}
	.st88{fill:none;stroke:#000000;stroke-width:1.3;stroke-linecap:round;stroke-linejoin:round;stroke-miterlimit:10;}
	.st89{stroke:#000000;stroke-width:1.3;stroke-linecap:round;stroke-linejoin:round;stroke-miterlimit:10;}
	.st90{fill:#F8DD4C;stroke:#F8DD4C;stroke-width:1.3;stroke-miterlimit:10.0002;}
	.st91{fill:#F8DD4C;stroke:#000000;stroke-width:1.3;stroke-miterlimit:10;}
	.st92{stroke:#000000;stroke-width:4;stroke-linecap:round;stroke-linejoin:round;stroke-miterlimit:10;}
	.st93{fill:#9ABEF5;}
	.st94{fill:#3D51FF;stroke:#3D51FF;stroke-width:4;stroke-linecap:round;stroke-linejoin:round;stroke-miterlimit:10;}
	.st95{fill:#FFFFFF;stroke:#000000;stroke-width:4;stroke-linecap:round;stroke-linejoin:round;stroke-miterlimit:10;}
	.st96{fill:none;stroke:#000000;stroke-width:4;stroke-linecap:round;stroke-linejoin:round;stroke-miterlimit:10;}
	.st97{fill:#B1C5FF;}
	.st98{fill:#FFE100;stroke:#FFE100;stroke-width:4;stroke-miterlimit:10;}
	.st99{fill:#808080;stroke:#000000;stroke-width:4;stroke-linecap:round;stroke-linejoin:round;stroke-miterlimit:10;}
	.st100{fill:#B1C5FF;stroke:#000000;stroke-width:4;stroke-linecap:round;stroke-linejoin:round;stroke-miterlimit:10;}
	.st101{clip-path:url(#SVGID_00000041995671565314734860000009413258092687218097_);}
	.st102{fill:#F8DD4C;stroke:#F8DD4C;stroke-width:2.5;stroke-miterlimit:10.0002;}
	.st103{fill:#F8DD4C;stroke:#000000;stroke-width:2.5;stroke-miterlimit:10;}
	.st104{fill:none;stroke:#000000;stroke-width:2.2;stroke-linecap:round;stroke-linejoin:round;stroke-miterlimit:10;}
	.st105{fill:#0DB068;}
	.st106{fill:#0DB668;}
	.st107{fill:none;stroke:#31664D;stroke-width:2.475;stroke-miterlimit:10;}
	.st108{fill:url(#);stroke:#000000;stroke-width:3;stroke-linecap:round;stroke-miterlimit:10;}
	.st109{fill:none;stroke:#FFFFFF;stroke-width:2;stroke-linecap:round;stroke-miterlimit:10;}
	.st110{fill:#E6E6E6;stroke:#000000;stroke-width:3;stroke-miterlimit:10;}
	.st111{fill:none;stroke:#000000;stroke-width:3;stroke-linecap:round;stroke-miterlimit:10;}
	.st112{fill:none;stroke:#31664D;stroke-width:3.6;stroke-miterlimit:10;}
	.st113{fill:#FFFFFF;stroke:#000000;stroke-width:7;stroke-linecap:round;stroke-linejoin:round;stroke-miterlimit:10;}
	.st114{fill:none;stroke:#000000;stroke-width:7;stroke-linecap:round;stroke-linejoin:round;stroke-miterlimit:10;}
	.st115{stroke:#000000;stroke-width:7;stroke-linecap:round;stroke-linejoin:round;stroke-miterlimit:10;}
	.st116{fill:#F8DD4C;stroke:#000000;stroke-width:7;stroke-miterlimit:10;}
	.st117{clip-path:url(#SVGID_00000145760918022818888190000016130214549871235476_);}
	.st118{opacity:0.6;}
	.st119{fill:#EFEFEF;stroke:#EFEFEF;stroke-width:1.5;stroke-linecap:round;stroke-linejoin:round;stroke-miterlimit:10;}
	.st120{opacity:0.7;}
	.st121{fill:#79A3FF;stroke:#000000;stroke-width:7;stroke-linecap:round;stroke-linejoin:round;stroke-miterlimit:10;}
	.st122{clip-path:url(#SVGID_00000160892630901851010410000008883560185252206246_);}
	.st123{fill:#242C3C;}
	.st124{fill:#ECECEC;}
	.st125{fill:#E2E9FF;}
	.st126{clip-path:url(#SVGID_00000156549211091638595670000016426226856977763741_);fill:#242C3C;}
	.st127{fill:#FF762F;}
	.st128{fill:none;stroke:#EE752F;stroke-width:3;stroke-miterlimit:10;}
	.st129{fill:none;stroke:#FFFFFF;stroke-width:5;stroke-miterlimit:10;}
	.st130{fill:#D95734;}
	.st131{fill:#B3B3B3;}
	.st132{fill:none;stroke:#A09FA0;stroke-width:3;stroke-miterlimit:10;}
	.st133{fill:#685841;}
	.st134{fill:#9A7B5C;}
	.st135{fill:none;stroke:#766041;stroke-width:3;stroke-miterlimit:10;}
	.st136{fill:#D29400;}
	.st137{fill:#FFC800;}
	.st138{fill:none;stroke:#D29400;stroke-width:3;stroke-miterlimit:10;}
	.st139{fill:#FAFAFA;}
	.st140{fill:none;stroke:#CCCCCC;stroke-width:3;stroke-miterlimit:10;}
	.st141{fill:url(#SVGID_00000180341664411189247870000013296697250276643465_);}
	.st142{clip-path:url(#SVGID_00000056414094264420950620000009290776701189397142_);}
	.st143{opacity:0.3;}
	.st144{opacity:0;}
	.st145{opacity:0.0909;}
	.st146{opacity:0.1818;}
	.st147{opacity:0.2727;}
	.st148{opacity:0.3636;}
	.st149{opacity:0.4545;}
	.st150{opacity:0.5455;}
	.st151{opacity:0.6364;}
	.st152{opacity:0.7273;}
	.st153{opacity:0.8182;}
	.st154{opacity:0.9091;}
	.st155{fill:url(#SVGID_00000126292822048614999390000013656768808251883908_);}
	.st156{fill:#494949;}
	.st157{fill:url(#SVGID_00000011029470414366740400000005814733921674986140_);}
	.st158{fill:url(#SVGID_00000175318931606339397890000017393851443821392531_);}
	.st159{fill:url(#SVGID_00000081635647491228118120000012326777577156951183_);}
	.st160{fill:url(#SVGID_00000154406406884131441190000013809258867559492253_);}
	.st161{fill:url(#SVGID_00000161603233790426756870000007764614329386554797_);}
	.st162{fill:url(#SVGID_00000049935053134709640470000008909533217298141578_);}
	.st163{fill:url(#SVGID_00000011030030242518876950000009942337156894835841_);}
	.st164{fill:url(#SVGID_00000019661919588360611320000001717922436252666755_);}
	.st165{fill:url(#SVGID_00000013179654331736195540000012065847968789314220_);}
	.st166{opacity:0.78;clip-path:url(#SVGID_00000056414094264420950620000009290776701189397142_);}
	.st167{opacity:0;fill:#FFFFFF;}
	.st168{opacity:0.0909;fill:#FFFFFF;}
	.st169{opacity:0.1818;fill:#FFFFFF;}
	.st170{opacity:0.2727;fill:#FFFFFF;}
	.st171{opacity:0.3636;fill:#FFFFFF;}
	.st172{opacity:0.4545;fill:#FFFFFF;}
	.st173{opacity:0.5455;fill:#FFFFFF;}
	.st174{opacity:0.6364;fill:#FFFFFF;}
	.st175{opacity:0.7273;fill:#FFFFFF;}
	.st176{opacity:0.8182;fill:#FFFFFF;}
	.st177{opacity:0.9091;fill:#FFFFFF;}
	.st178{clip-path:url(#SVGID_00000176042960084913123280000003484128210611116940_);}
	.st179{fill:#2D37E1;stroke:#000000;stroke-width:4;stroke-miterlimit:10;}
	.st180{fill:#041071;stroke:#000000;stroke-width:4;stroke-linecap:round;stroke-linejoin:round;stroke-miterlimit:10;}
	.st181{fill:#041071;stroke:#000000;stroke-width:4;stroke-miterlimit:10;}
	.st182{fill:#3D51FF;stroke:#000000;stroke-width:5;stroke-miterlimit:10;}
	.st183{fill:#CCCCCC;stroke:#CCCCCC;stroke-width:4;stroke-miterlimit:10;}
	.st184{fill:#F4F4F4;}
	.st185{fill:#F4F4F4;stroke:#CCCCCC;stroke-width:4;stroke-miterlimit:10;}
	.st186{fill:none;stroke:#CCCCCC;stroke-width:4;stroke-linecap:round;stroke-linejoin:round;stroke-miterlimit:10;}
	.st187{fill:none;stroke:#CCCCCC;stroke-width:4;stroke-miterlimit:10;}
	.st188{fill:none;stroke:#CCCCCC;stroke-width:4;stroke-linecap:round;stroke-miterlimit:10;}
	.st189{fill:#FFFFFF;stroke:#000000;stroke-width:4;stroke-miterlimit:10;}
	.st190{fill:#B3B3B3;stroke:#B3B3B3;stroke-width:4;stroke-miterlimit:10;}
	.st191{fill:#F2F2F2;stroke:#000000;stroke-width:4;stroke-linecap:round;stroke-linejoin:round;stroke-miterlimit:10;}
	.st192{stroke:#000000;stroke-width:4;stroke-miterlimit:10;}
	.st193{fill:#3C59F4;stroke:#3C59F4;stroke-width:4;stroke-miterlimit:10;}
	.st194{fill:#FFE200;stroke:#000000;stroke-width:4;stroke-linecap:round;stroke-linejoin:round;stroke-miterlimit:10;}
	.st195{fill:#FADF4C;stroke:#FADF4C;stroke-width:4;stroke-miterlimit:10;}
	.st196{fill:#FFFFFF;stroke:#000000;stroke-width:4;stroke-linecap:round;stroke-miterlimit:10;}
	.st197{fill:none;stroke:#000000;stroke-width:4;stroke-linecap:round;stroke-miterlimit:10;}
	.st198{clip-path:url(#SVGID_00000133487882768543349880000006455941827103115935_);fill:#FFFFFF;}
	.st199{fill:none;stroke:#FFFFFF;stroke-width:3;stroke-linecap:round;stroke-miterlimit:10;}
	.st200{fill:#E6E6E6;stroke:#000000;stroke-width:4;stroke-miterlimit:10;}
	.st201{fill:none;stroke:#000000;stroke-width:3;stroke-linecap:round;stroke-linejoin:round;stroke-miterlimit:10;}
	.st202{clip-path:url(#SVGID_00000089545989686018088800000014288207538887408021_);}
	.st203{clip-path:url(#SVGID_00000163045455088740953170000011509702965766474655_);fill:#FFFFFF;}
	.st204{fill:url(#SVGID_00000080180411301551654340000004617262412225390744_);}
	.st205{clip-path:url(#SVGID_00000163051772648077132250000006384550782672516261_);}
	.st206{fill:url(#SVGID_00000056399308477157030430000018293329722428246177_);}
	.st207{fill:url(#SVGID_00000070112391613227021210000000081432379156510370_);}
	.st208{fill:url(#SVGID_00000176736230594526720790000007647044313934764436_);}
	.st209{fill:url(#SVGID_00000127736159679841602490000009307124264722384002_);}
	.st210{fill:url(#SVGID_00000023960859472859333830000000841834616860898741_);}
	.st211{fill:url(#SVGID_00000133506472278643265440000009623891282217191064_);}
	.st212{fill:url(#SVGID_00000060727272869916261900000013530924170738171581_);}
	.st213{fill:url(#SVGID_00000019654911723948954120000010137276965119009416_);}
	.st214{fill:url(#SVGID_00000174578595151839789300000003567293723061929879_);}
	.st215{fill:url(#SVGID_00000121995435268196684160000018059919380541502116_);}
	.st216{opacity:0.78;clip-path:url(#SVGID_00000163051772648077132250000006384550782672516261_);}
	.st217{fill:none;stroke:#A09FA0;stroke-width:2;stroke-miterlimit:10;}
	.st218{fill:none;stroke:#766041;stroke-width:2;stroke-miterlimit:10;}
	.st219{fill:none;stroke:#D29400;stroke-width:2;stroke-miterlimit:10;}
	.st220{fill:none;stroke:#CCCCCC;stroke-width:2;stroke-miterlimit:10;}
	.st221{clip-path:url(#SVGID_00000054963959253429655090000015780490097251464627_);}
	.st222{clip-path:url(#SVGID_00000181786491920625925240000014335136026382265496_);fill:#FFFFFF;}
	.st223{fill:url(#SVGID_00000092453106115644675210000010704546089229189803_);}
	.st224{clip-path:url(#SVGID_00000029738933871657340660000014798065292225971601_);}
	.st225{fill:url(#SVGID_00000066516315355511761910000013581193591986069417_);}
	.st226{fill:url(#SVGID_00000114047127930783006530000004055360671125347470_);}
	.st227{fill:url(#SVGID_00000170257144182703674880000012791247379248989066_);}
	.st228{fill:url(#SVGID_00000044151612190489972420000004279347229926779781_);}
	.st229{fill:url(#SVGID_00000081617975029592520880000000309217937751536792_);}
	.st230{fill:url(#SVGID_00000009553387245874845430000003161564059005351578_);}
	.st231{fill:url(#SVGID_00000069361217235214919040000018011239980950780600_);}
	.st232{fill:url(#SVGID_00000127015782642432293300000015822821736892955824_);}
	.st233{fill:url(#SVGID_00000137116080625571323100000000793027593879079065_);}
	.st234{fill:url(#SVGID_00000052796420530611767160000006875957028592928172_);}
	.st235{opacity:0.78;clip-path:url(#SVGID_00000029738933871657340660000014798065292225971601_);}
	.st236{clip-path:url(#SVGID_00000160177749836835876570000004788654149076741036_);}
	.st237{fill:#FF4BDE;stroke:#000000;stroke-width:5;stroke-miterlimit:10;}
	.st238{clip-path:url(#SVGID_00000174602344527647998080000004348625093196712369_);fill:#FFFFFF;}
	.st239{clip-path:url(#SVGID_00000008854648272758328400000006535925120311376264_);}
	.st240{fill:#FFFFFF;stroke:#000000;stroke-width:5;stroke-linecap:round;stroke-linejoin:round;stroke-miterlimit:10;}
	.st241{stroke:#000000;stroke-width:5;stroke-linecap:round;stroke-linejoin:round;stroke-miterlimit:10;}
	.st242{fill:#F8DD4C;stroke:#000000;stroke-width:5;stroke-miterlimit:10;}
	.st243{fill:#18BF1B;stroke:#000000;stroke-width:3;stroke-linecap:round;stroke-linejoin:round;stroke-miterlimit:10;}
</style>
<g>
	<g>
		<path class="st9" d="M90.09,654.92c0.58,17.55,39.69,32.35,114.31,32.35c45.01,0,73.84-5.52,110.77-9.29
			c76.2-7.79,147.41,10.22,223.31,0.8c12.95-1.61,34.16-11.9,40.41-20.97c5.25-7.61,2.7-17.53-4.16-24.3
			c-6.86-6.77-17.28-10.78-27.88-13.07c-35.77-7.7-73.39,2.13-110.4,3.91c-27.4,1.32-54.41-11.33-81.83-12.42
			C275.13,608.77,89.22,628.15,90.09,654.92z"/>
		<path class="st113" d="M212.91,487.58c-14.71,39.45-47.31,71.84-86.86,86.3c-5.94,2.17-12.15,4.03-17.21,7.83
			c-5.06,3.81-8.79,10.17-7.43,16.35c1.09,4.93,5.08,8.64,9.07,11.73c30.93,23.95,71.88,29.44,110.72,34.11"/>
		<path class="st114" d="M212.91,487.58c-14.71,39.45-47.31,71.84-86.86,86.3c-5.94,2.17-12.15,4.03-17.21,7.83
			c-5.06,3.81-8.79,10.17-7.43,16.35c1.09,4.93,5.08,8.64,9.07,11.73c30.93,23.95,71.88,29.44,110.72,34.11"/>
		<g>
			<path class="st12" d="M192.73,608.13c0.2,8.57,1.2,17.24,4.31,25.23c5.49,14.08,17.76,25.34,32.25,29.61
				c14.5,4.27,30.91,1.45,43.15-7.41c4.79-3.47,8.92-7.76,13.33-11.7c33.79-30.2,85.86-38.02,127.04-19.09
				c11.46,5.27,22.02,12.37,33.62,17.32c11.6,4.95,24.85,7.67,36.81,3.65c12.34-4.14,21.54-14.96,26.76-26.88
				c5.23-11.93,7.03-25.03,8.78-37.93c1.53-11.22,3.04-22.45,4.57-33.67c-98.63,0.23-197.26,0.96-295.88,2.19
				c-2.88,0.03-5.83,0.08-8.53,1.07c-2.29,0.84-4.3,2.31-6.27,3.76c-9.6,7.09-14.52,9.56-16.98,21.45
				C193.46,586.46,192.73,597.2,192.73,608.13z"/>
			<path class="st13" d="M192.73,573.93c108.35-21.28,219.44-25.19,329.84-22.69c-0.19-31.28,0.85-51.62,3.11-82.82
				c0.13-1.79,0.28-3.65,1.18-5.21c1.38-2.4,4.17-3.52,6.71-4.62c14.13-6.07,26.56-16.03,35.57-28.5
				c-16.17-7.49-32.35-15-48.52-22.49c-8.46-3.92-16.98-7.87-26.05-10c-12.19-2.86-24.9-2.34-37.34-3.74
				c-11.57-1.3-22.94-4.26-34.56-4.97c-15.37-0.93-30.67,2.11-46,3.67c-23.84,2.42-47.89,1.27-71.8,2.82
				c-23.91,1.55-48.28,6.06-68.65,18.66c-6.24,3.86-12.32,8.83-14.74,15.75c-1.9,5.43-10.13,4.98-12.87,9.45
				c-3.22,5.25-6.81,49.59-9.07,63.44C198.38,509.71,192.77,573.92,192.73,573.93z"/>
			<path class="st114" d="M524.42,463.66c16.59-7.51,31.68-17.91,43.35-33.37"/>
		</g>
		<g>
			<path class="st115" d="M181.85,77.31l-60.32,2.61c-22.77,0.99-38.9,22.87-33.62,45.62l15.13,63.87"/>
			<path class="st115" d="M307.32,35.31L259.97,8.68c-20.07-11.29-48.07-4.4-59.66,23.29l-17.69,56.57"/>
			<path class="st115" d="M103.07,180.68l-46.2,39.35c-17.45,14.85-17.3,42.39,0.3,57.4l49.65,41.96"/>
			<path class="st12" d="M479.15,152.78c0,0-20.6-134.9-143-123.27C278.38,35,224.09,41.06,156.04,106.56
				c-90.51,87.11-46.11,248.27-46.11,248.27c28.53,99.2,89.98,95.65,239.22,63.03c149.23-32.62,184.08-45.77,214.26-82.7
				s6.02-117.05,6.02-117.05C547.94,141.39,479.15,152.78,479.15,152.78z"/>
			
				<ellipse transform="matrix(0.9801 -0.1986 0.1986 0.9801 -49.3125 44.8037)" class="st59" cx="198.7" cy="268.23" rx="34.59" ry="28.38"/>
			
				<ellipse transform="matrix(0.9801 -0.1986 0.1986 0.9801 -29.1809 106.8018)" class="st59" cx="517.84" cy="198.87" rx="29.02" ry="23.8"/>
			<path class="st114" d="M479.15,152.78c0,0,43.35-6.77,73.09,34.1c7.93,10.91,14.91,25.2,19.83,43.93c0,0,21.52,67.4-8.66,104.34
				c-21.39,26.18-45.13,40.41-110.28,58.09c0,0-117.35,34.8-217.61,45.26c-8.94,0.93-17.93,1.33-26.91,0.74
				c-62.65-4.17-86.96-43.7-98.67-84.42c0,0-36.1-125.06,15.23-210.35c45.62-75.8,159.39-132.14,260.99-110.23
				C463.25,50.88,479.15,152.78,479.15,152.78"/>
			<path class="st113" d="M378.73,193.03c-2.36-5.14-4.24-10.88-5.49-17.04c-5.29-26.11,2.89-49.81,18.27-52.93
				c15.38-3.12,32.14,15.53,37.42,41.64c1.28,6.33,1.77,12.52,1.56,18.3"/>
			<path class="st113" d="M271.11,225.67c-2.36-5.14-4.24-10.88-5.49-17.04c-5.29-26.11,2.89-49.81,18.27-52.93
				c15.38-3.12,32.14,15.53,37.42,41.64c0.64,3.17,1.09,6.29,1.34,9.36"/>
			<path class="st114" d="M284.66,121.21c8.34,0.23,16.54,3.92,22.23,10.02"/>
			<path class="st114" d="M346.12,124.08c4.05-10.22,9.64-19.83,16.54-28.39"/>
			<path class="st114" d="M427.8,212.8c3.86,4.7,7.71,9.4,11.58,14.1c1.33,1.61,3.08,3.35,4.73,2.45c0.84-0.45,1.42-1.5,1.93-2.49
				c2.38-4.6,4.54-9.4,6.47-14.36"/>
			<path class="st114" d="M333.64,313.09c14.48-5.83,27.27-15.02,41.88-20.56c27.97-10.62,60.7-7.25,87.29-20.66
				c8.44-4.25,15.97-10.41,20.41-18.34c17.03-30.47-15.2-43.9-41.69-43.53c-49.35,0.69-112.21,16.84-151.62,48.39
				C252.25,288.53,292.01,329.85,333.64,313.09z"/>
			<path class="st114" d="M288.7,261.34c4.64,4.26,10.14,7.59,16.06,9.73c2.55-2.97,3.77-6.83,4.72-10.63
				c1.26-5.03,2.14-10.15,2.63-15.3"/>
		</g>
		<path class="st114" d="M208.6,439.25c-12.28,57.35-16.23,104.75-15.39,170.46c0.21,16.29,5.38,40.32,23.6,50.59
			c13.56,7.63,37.55,8.55,57.04-6.9c11.18-8.87,41.66-41.85,89.7-41.85c54.12,0,62.18,27.3,88.89,35.23
			c18.1,5.38,37.35-0.43,48.25-13.54c10.9-13.11,14.66-30.49,17.29-47.46c6.64-42.85,9.25-97.71,1.85-156.82"/>
		<g>
			<g>
				<g>
					<path class="st16" d="M1.23,684.5c0.09-0.19-0.22-0.22-0.03-0.46c0.14,0.13,0.16-0.03,0.19-0.05c0.14,0.12,0.14,0.36,0.21,0.56
						C1.46,684.61,1.37,684.58,1.23,684.5z"/>
					<path class="st16" d="M1.08,686.06c0.09-0.21-0.21-0.24-0.03-0.51c0.13,0.14,0.16-0.03,0.19-0.07c0.14,0.14,0.14,0.4,0.19,0.63
						C1.31,686.18,1.22,686.14,1.08,686.06z"/>
					<path class="st16" d="M0.32,685.64c-0.09,0.13-0.19-0.06-0.32-0.04c-0.01-0.19,0.08-0.25,0.25-0.2
						C0.33,685.43,0.23,685.61,0.32,685.64z"/>
					<path class="st16" d="M1.42,685.11c0.12-0.03,0.18,0.16,0.27,0.22C1.57,685.35,1.5,685.23,1.42,685.11z"/>
					<path class="st16" d="M1,685.1c0.08-0.06,0.11,0.02,0.14,0.08c0.04-0.01,0.03-0.03,0.02-0.06c0.14-0.03,0.05,0.14,0.04,0.19
						C1.11,685.32,0.98,685.18,1,685.1z"/>
					<path class="st16" d="M0.87,685.2c-0.08-0.01-0.09-0.07-0.18-0.07c-0.01-0.22,0.17-0.17,0.21-0.21
						C1,684.96,0.91,685.17,0.87,685.2z"/>
					<path class="st16" d="M0.52,686.05c-0.12-0.04-0.05-0.23-0.1-0.34C0.54,685.77,0.52,685.91,0.52,686.05z"/>
					<path class="st16" d="M0.91,686.28c-0.1,0.01-0.08-0.08-0.08-0.15c-0.03-0.01-0.05,0.01-0.05,0.04
						c-0.13-0.06,0.04-0.15,0.07-0.18C0.96,686.04,0.98,686.23,0.91,686.28z"/>
					<path class="st16" d="M0.79,686.01c-0.14-0.01-0.25-0.07-0.3-0.21c0-0.41,0.19-0.32,0.36-0.3
						C0.83,685.67,0.81,685.84,0.79,686.01z"/>
					<path class="st16" d="M0.35,685.42c0.03-0.08-0.03-0.09-0.08-0.1c-0.01-0.11,0.1-0.09,0.08-0.22c0.13,0.05,0.14,0.06,0.27,0.03
						C0.68,685.31,0.61,685.52,0.35,685.42z"/>
					<path class="st16" d="M0.35,685.09c0.09-0.08-0.15-0.92,0.3-0.91c-0.16-0.2,0.03-0.44,0.32-0.37c0.2,0.27-0.21,0.45,0.11,0.6
						C1,684.8,0.81,685.03,0.35,685.09z"/>
					<path class="st16" d="M1.54,684.9c-0.32,0.09-0.54-0.27-0.73-0.42C0.99,684.51,1.23,684.84,1.54,684.9z"/>
				</g>
			</g>
		</g>
		<g>
			<path class="st116" d="M482.22,447.62c1.35-6.44-1.15-16.86-8.35-21.54c-6.47-4.2-14.67-5.41-21.39-3.79
				c-12.69,3.08-19.83,16.73-23.02,24.02c-9.18,20.99,3.39,32.23,9.97,34.51c6.19,2.14,23.86,7.75,35.67-14.65
				C478.12,460.46,480.89,453.97,482.22,447.62z M461.36,457.31c-4.27,10.15-9.8,11.43-15,8.74c-7.16-3.7-0.52-14.89,0-15.91
				c6.09-11.94,10.9-12.7,14.2-11.99C465.92,439.3,466.9,444.13,461.36,457.31z"/>
			<path class="st116" d="M458.88,442.14L458.88,442.14c-4.61-2.46-6.35-8.19-3.89-12.8l14.25-26.7c2.46-4.61,8.19-6.35,12.8-3.89
				l0,0c4.61,2.46,6.35,8.19,3.89,12.8l-14.25,26.7C469.22,442.86,463.49,444.6,458.88,442.14z"/>
			<path class="st116" d="M426.12,508.22c5.32-3.86,10.48-13.27,8.27-21.57c-1.98-7.46-7.24-13.86-13.31-17.16
				c-11.47-6.23-25.93-0.91-33.19,2.35c-20.9,9.39-19.12,26.17-15.77,32.27c3.15,5.74,12.49,21.76,36.28,13.09
				C414.46,514.99,420.87,512.03,426.12,508.22z M404.15,501.39c-9.97,4.66-14.93,1.9-16.98-3.59c-2.82-7.55,9.6-11.38,10.68-11.8
				c12.54-4.76,16.6-2.1,18.58,0.65C419.62,491.11,417.1,495.35,404.15,501.39z"/>
			<path class="st116" d="M345.13,516.4c6.57-0.3,16.05-5.32,18.77-13.46c2.45-7.32,1.59-15.56-1.67-21.65
				c-6.15-11.52-21.15-15.03-29-16.3c-22.61-3.65-30.36,11.32-30.93,18.27c-0.54,6.53-1.55,25.05,23.09,30.89
				C331.67,515.64,338.66,516.69,345.13,516.4z M330.54,498.61c-10.9-1.6-13.51-6.64-12.2-12.34c1.8-7.86,14.29-4.22,15.41-3.97
				c13.09,2.93,15.02,7.38,15.15,10.76C349.12,498.53,344.68,500.69,330.54,498.61z"/>
			<path class="st116" d="M412.53,490.64L412.53,490.64c-3.19-4.13-2.44-10.07,1.7-13.27l23.94-18.51
				c4.13-3.19,10.07-2.44,13.27,1.7l0,0c3.19,4.13,2.44,10.07-1.7,13.27l-23.94,18.51C421.66,495.53,415.72,494.77,412.53,490.64z"
				/>
			<path class="st116" d="M347.04,495.15L347.04,495.15c0.36-5.21,4.87-9.14,10.08-8.79l30.19,2.07c5.21,0.36,9.14,4.87,8.79,10.08
				l0,0c-0.36,5.21-4.87,9.14-10.08,8.79l-30.19-2.07C350.62,504.88,346.69,500.36,347.04,495.15z"/>
		</g>
		<g>
			<path class="st18" d="M627.21,439.25c5.49,3.23,10.98,6.46,16.47,9.69c0.32,0.19,0.68,0.38,1.09,0.29
				c0.54-0.13,15.45-10.22,15.82-10.74c6.53-9.07,6.7-12.18,3.43-18.89c-4.71-3.22-10.16-6.95-17.08-10.92"/>
			<path class="st18" d="M442.74,402.13c16,9.54,66.2,22.53,94.29-32.81c8.9-17.54,15.63-45.36,7.2-61.27
				c-20.38-38.44-52.17-55-92.25-41.58c-30.84,10.32-51.75,47.58-47.44,78.46C407.68,367.55,416.21,386.32,442.74,402.13z"/>
			<path class="st114" d="M433.05,394.94c-2.72-7.36,6.9-41.79,24.68-72.91c8.94-15.64,32.72-47.19,49.09-53.83"/>
			<path class="st114" d="M442.74,402.13c16,9.54,66.2,22.53,94.29-32.81c8.9-17.54,14.77-39.33,7.2-61.27
				c-13.22-38.33-52.17-55-92.25-41.58c-30.84,10.32-51.75,47.58-47.44,78.46C407.68,367.55,416.21,386.32,442.74,402.13z"/>
			<path class="st114" d="M627.21,439.25c5.49,3.23,18.29,8.68,18.93,8.75c10.15,1.25,23.71-19.04,17.89-28.41
				c-4.71-3.22-10.16-6.95-17.08-10.92"/>
			<path class="st114" d="M459.14,408.47c-2.48-6.2,6.51-47.41,27.2-76.9c2.49-3.54,26.22-37.38,42.14-43.37"/>
			<path class="st19" d="M650.09,401.78c-5.93,8.47-21.65,35.5-27.58,43.97c-39.95-12.12-77.72-31.04-116.51-46.14
				c4.6-29.66,20.66-58.08,43.83-77.58C594.05,358.06,628.88,384.86,650.09,401.78"/>
			<path class="st114" d="M650.09,401.78c-5.93,8.47-21.65,35.5-27.58,43.97c-39.95-12.12-77.72-31.04-116.51-46.14
				c4.6-29.66,17.54-58.08,40.71-77.58C590.92,358.06,628.88,384.86,650.09,401.78"/>
			<path class="st113" d="M572.24,320.95c-9.91,3.08-15.15,14.76-13.98,25.07s5.78,22.5,12.37,30.52
				c9.05,11.02,22.48,18.53,36.75,18.41c5.41-0.05,36.34-4.79,32.2-30.14C635.24,338.18,599.5,312.48,572.24,320.95z"/>
			<path class="st114" d="M649.85,431.77c10.98,6.81,22.13,13.76,30.77,23.38c8.64,9.62,14.58,22.45,13.02,35.28
				c-2.21,18.24-18.22,31.36-33.68,41.27c-17.69,11.33-36.33,21.19-55.66,29.41c-11.48,4.88-23.36,9.28-33.41,16.68
				c-10.04,7.4-18.23,18.51-18.7,30.97c-0.63,16.51,12.58,31.01,27.88,37.25c15.3,6.24,32.36,5.99,48.88,5.65
				c39.44-0.8,100.56,8.88,140.4,7.8c5.69-0.15,51.03-1.31,49.8-13.37c-1.6-15.7-37.91-19.94-69.6-17.72
				c-39.23,2.74-43.8,22.92-40.76,28.42c9.19,16.62,46.43,18.88,64.37,21.76c30.96,4.96,159.04,46.21,99.13,164.72"/>
		</g>
		<g>
			<path class="st13" d="M232.43,442.37c-1.57,1.63-3.15,3.3-4.08,5.28c-0.95,1.99-1.19,4.18-1.33,6.34
				c-0.58,8.66,0.23,17.35,1.18,26c1.81,16.38,4.14,32.71,7,48.99c0.25,1.41,0.58,2.95,1.81,3.88c1.97,1.5,4.98,0.64,7.29-0.37
				c24.57-10.78,38.28-19.61,61.04-33.09c1.74-1.03,7.03-13.65,8.13-15.22c0.84-1.2,1.18-2.61,1.46-4c4-19.61-1.23-39.84-8.55-58.78
				c-2.84-7.34-6.24-14.96-12.19-20.86c-3.08-3.06-6.43-6.32-10.52-4.84c-3.21,1.17-6.75,5.27-9.34,7.39
				C259.44,415.32,245.55,428.67,232.43,442.37z"/>
			<path class="st12" d="M304.55,492.99c0.76,1.58,1.85,3.39,3.62,3.59c1.36,0.15,2.53-0.76,3.51-1.63
				c19.06-16.94,32.19-40,37.01-65.02c1.88-9.76,2.48-20.14-1.02-29.75c-3.5-9.6-11.82-18.27-22.1-20.05
				c-6.42-1.11-12.87,0.47-18.86,2.57c-9.71,3.39-18.78,8.33-26.81,14.47c-9.39,7.21-6.07,13.27-2.9,24.18
				C284.13,445.83,293.35,469.82,304.55,492.99z"/>
			<path class="st114" d="M246.34,533.52c27.24-14.74,49.6-24.93,68.15-42.71c21.23-20.36,42.53-38.74,36.15-82.26
				c-1.69-11.55-6.05-24.28-18.2-28.95c-24.57-9.44-49.48,12.08-63.17,25.07c-11.56,10.98-22.34,23.15-39.71,33.67"/>
		</g>
	</g>
</g>
<path class="st63" d="M872.61,441.49c-11.8-5.13-22.98-4.15-35.69-2.21c0,0-0.88,53.79-1.27,74.57
	c-10.87,3.57-22.76,11.45-28.61,21.28c-2.31,3.88-4.1,8.32-3.54,12.8c0.99,7.92,9.46,13.38,17.44,13.12
	c7.98-0.25,15.21-4.94,20.84-10.6c5.13-5.16,9.41-11.44,10.87-18.57c1.46-7.13,0.27-14.07-5.07-19.01
	c-0.16-19.53,1.14-40.03,1.23-61.65c2.71,0.17,5.39,0.55,8,1.28c6.64,1.84,12.92,6.26,15.28,12.74c1.8,4.94,1.13,10.5-0.75,15.41
	c-1.89,4.9-4.91,9.28-7.9,13.59c5.78,1.23,11.84-1.86,15.54-6.47c3.7-4.6,5.42-10.48,6.52-16.28
	C886.69,465.21,887.59,448,872.61,441.49z"/>
<g>
	<path class="st64" d="M745.11,440.45c-1.46,0-2.88-0.16-4.23-0.46c-4.52-1.03-7.93-3.75-9.88-7.85c-2.06-4.45-1.43-9.18,1.66-12.66
		c2.29-2.59,5.65-4.07,9.22-4.07c1.36,0,2.72,0.21,4.03,0.64c2.72,0.92,5.14,2.78,6.83,5.23c1.05,1.52,1.81,3.2,2.27,4.98
		c5.23-5.07,10.67-24.07,10.48-33.78c0-0.12,0-0.24-0.01-0.35c-7.45,3.41-15.99,5.26-24.44,5.26c-1.68,0-3.38-0.07-5.04-0.22
		c-11.22-0.95-21.24-5.71-27.49-13.04c-9.25-10.58-11.79-26.12-7.15-43.71c3.77-15.03,13.05-27.07,21.89-36.92
		c-6.5-16.15-8.93-31.06-7.45-45.56c1.84-16.15,11.32-29.03,24.74-33.63c1.79-0.6,5.34-1.58,9.32-1.58c5.13,0,9.39,1.57,12.65,4.68
		c12.38,11.79,6.6,36.13-1.21,48.87c-2.46,4.13-5.64,8.35-9.69,12.88c-2.74,3.06-5.63,6.06-8.43,8.97
		c-2.32,2.42-4.68,4.87-6.96,7.35c1.62,4.06,3.55,8.28,5.85,12.78c2.89-1.51,5.88-2.73,8.94-3.63c3.72-1.13,8.01-1.73,12.38-1.73
		c7.65,0,14.83,1.75,20.22,4.94c6.15,3.63,13.5,11.51,15.7,22.73c1.45,7.4,1.07,18.99-8.95,32.16c-4.34,5.7-9.34,10.32-15.27,14.1
		c0.23,1.81,0.38,3.62,0.44,5.41c0.29,13.02-6.4,35.6-14.34,42.45c-3.16,2.55-7.31,4.46-11.46,5.31
		C748.15,440.29,746.6,440.45,745.11,440.45L745.11,440.45z M728.35,314.82c-2.99,3.99-5.33,7.8-7.11,11.59
		c-9.35,18.91-4.96,37.21,3.53,46.98c5.67,6.52,12.67,9.69,21.41,9.69c4.08,0,8.57-0.72,13.33-2.15c1.25-0.37,2.48-0.98,3.76-1.65
		c-2.39-7.81-6.4-15.23-10.07-21.54c-2.28-3.87-4.73-7.89-7.1-11.77c-2.24-3.67-4.5-7.38-6.71-11.1c-0.51,0.5-0.99,1.03-1.48,1.57
		c-0.41,0.46-0.83,0.91-1.25,1.35c-4.8,4.92-3.51,12-2.81,15.8c0.37,2.03,0.59,3.26-0.25,4.37c-0.45,0.59-1.13,0.98-1.88,1.05
		c-0.08,0.01-0.17,0.01-0.24,0.01c-2.74,0-4.71-5.03-5.64-8.03c-1.61-5.19-3.96-17.83,7.33-26.96
		C731.39,320.79,729.79,317.75,728.35,314.82z M748.36,329.74c1.01,1.75,2.12,3.64,3.39,5.76c1.69,2.94,3.46,5.89,5.18,8.74
		c5.71,9.5,11.6,19.3,15.19,29.94c3.48-2.49,6.07-5.22,7.87-8.28c3.84-6.59,3.61-21.45-5.49-30.66c-3.3-3.34-7.54-5.69-11.94-6.64
		c-1.6-0.36-3.26-0.54-4.95-0.54C754.55,328.08,751.45,328.64,748.36,329.74z M747.39,240.81c-0.5,0-1.05,0.06-1.64,0.18
		c-2.51,0.51-5.41,2.47-8.16,5.53c-7.2,8-8.37,20.42-8.09,29.43c0.19,5.79,1.1,11.67,2.78,17.85c0.02-0.03,0.21-0.22,0.21-0.22
		c1.42-1.49,2.83-2.97,4.23-4.45c7.71-8.54,12.12-15.61,14.27-22.89c1.77-5.85,3.56-18.79-0.09-23.71
		C750.03,241.35,748.91,240.81,747.39,240.81z"/>
	<path d="M749.85,225.2c3.67,0,7.71,0.92,10.92,3.99c11.67,11.11,5.33,34.42-1.62,45.76c-2.39,4.01-5.48,8.11-9.42,12.52
		c-2.72,3.04-5.61,6.04-8.4,8.94c-2.68,2.79-5.4,5.61-8.02,8.52c2.22,5.77,4.87,11.36,7.71,16.75c3.41-2.01,6.99-3.58,10.68-4.67
		c3.57-1.08,7.59-1.63,11.67-1.63c6.8,0,13.74,1.52,18.95,4.59c11.79,6.97,23.92,27.72,6.03,51.22
		c-3.95,5.19-9.05,10.17-15.87,14.28c-0.04,0.02-0.08,0.04-0.11,0.07c0.35,2.21,0.57,4.46,0.64,6.76
		c0.28,12.13-6.09,34.11-13.48,40.47c-2.54,2.05-6.3,3.93-10.32,4.75c-1.35,0.28-2.74,0.43-4.11,0.43c-1.24,0-2.47-0.12-3.67-0.4
		c-3.74-0.85-6.57-3.1-8.18-6.49c-1.62-3.5-1.14-7.21,1.27-9.93c1.85-2.09,4.54-3.23,7.35-3.23c1.08,0,2.18,0.17,3.26,0.52
		c2.19,0.74,4.15,2.26,5.55,4.27c1.29,1.88,2.08,4.07,2.27,6.33c0.05,0.53-0.02,1.07-0.2,1.56c1.25-0.56,2.41-1.25,3.4-2.01
		c6.17-5.16,12.05-25.81,11.84-36.16c-0.03-1.42-0.12-2.82-0.28-4.22c-7.84,4.3-17.22,6.67-26.67,6.67c-1.61,0-3.22-0.07-4.82-0.21
		c-9.29-0.79-19.27-4.5-25.81-12.17c-9.31-10.65-10.72-25.99-6.63-41.45c3.66-14.6,12.57-26.25,22.38-37.05
		c-6.01-14.46-9.53-29.58-7.87-45.81c1.72-15.16,10.56-27.23,23.06-31.52C743.19,226.03,746.36,225.2,749.85,225.2 M731.11,298.65
		c1.06-1.12,2.13-2.24,3.19-3.36c1.42-1.49,2.84-2.98,4.24-4.47c8-8.86,12.58-16.24,14.85-23.89c2.33-7.69,5.14-28.63-6-28.63
		c-0.66,0-1.37,0.07-2.14,0.23c-3.49,0.71-6.87,3.36-9.52,6.31c-7.75,8.62-9.03,21.71-8.73,31.18
		C727.25,283.78,728.78,291.34,731.11,298.65 M746.18,385.57c4.12,0,8.78-0.67,14.05-2.25c2.1-0.63,4.04-1.77,6.01-2.76
		c-2.27-8.48-6.47-16.51-10.88-24.08c-2.3-3.91-4.76-7.94-7.14-11.83c-2.74-4.49-5.49-9-8.16-13.56c-2.3,1.51-3.61,3.32-5.2,4.94
		c-7.83,8.03-2.1,20.36-3.38,20.48c0,0-0.01,0-0.01,0c-1.31,0-11.96-20.18,4.93-31.79c-2.69-4.81-5.25-9.67-7.55-14.61
		c-3.84,4.71-7.29,9.72-9.88,15.23c-6.78,13.7-9.1,34.73,3.91,49.68C727.62,380.47,734.85,385.57,746.18,385.57 M770.72,378.1
		c4.63-2.81,8.7-6.28,11.42-10.93c4.23-7.25,4.19-23.5-5.87-33.69c-3.93-3.98-8.66-6.35-13.2-7.32c-1.78-0.4-3.61-0.59-5.48-0.59
		c-4.21,0-8.58,1-12.83,2.93c1.6,2.83,3.23,5.59,4.83,8.28c1.67,2.92,3.45,5.88,5.18,8.75C761.01,355.9,767.4,366.52,770.72,378.1
		 M749.85,220.2v5V220.2c-4.11,0-7.76,0.93-10.09,1.7c-14.39,4.94-24.51,18.61-26.45,35.7c0,0.02,0,0.04-0.01,0.06
		c-1.48,14.47,0.82,29.32,7.04,45.3c-8.72,9.86-17.66,21.84-21.42,36.82c-4.85,18.4-2.12,34.72,7.69,45.97
		c6.68,7.82,17.31,12.88,29.17,13.89c1.72,0.15,3.49,0.23,5.24,0.23c7.45,0,14.97-1.38,21.82-3.96c-0.7,8.05-3.97,19.19-7.26,25.21
		c-0.25-0.43-0.51-0.85-0.79-1.26c-2.01-2.9-4.87-5.09-8.06-6.17c-0.02-0.01-0.05-0.02-0.07-0.02c-1.56-0.5-3.17-0.76-4.8-0.76
		c-4.28,0-8.32,1.79-11.09,4.91c-3.71,4.19-4.5,10.07-2.07,15.35c0.01,0.02,0.02,0.03,0.02,0.05c2.26,4.75,6.37,8.02,11.58,9.22
		c1.52,0.35,3.13,0.52,4.78,0.52c1.66,0,3.38-0.18,5.11-0.53c4.52-0.92,9.06-3.02,12.46-5.76c0.04-0.03,0.08-0.07,0.13-0.11
		c9.23-7.95,15.49-32.03,15.21-44.38c-0.04-1.38-0.14-2.76-0.28-4.13c5.57-3.76,10.47-8.4,14.6-13.83
		c10.58-13.9,10.96-26.25,9.41-34.15c-2.36-12.03-10.26-20.49-16.88-24.4c-5.77-3.41-13.41-5.29-21.49-5.29
		c-4.61,0-9.15,0.64-13.12,1.84c-2.39,0.71-4.76,1.6-7.07,2.68c-1.52-3.09-2.87-6.04-4.06-8.91c1.92-2.07,3.89-4.11,5.8-6.11
		c0,0,0.03-0.04,0.03-0.04c2.81-2.93,5.72-5.95,8.49-9.04c4.16-4.65,7.42-8.99,9.98-13.27c8.46-13.84,14.3-39.09,0.78-51.96
		C760.54,222.06,755.57,220.2,749.85,220.2L749.85,220.2z M733.63,288.75c-0.95-4.41-1.49-8.68-1.63-12.9
		c-0.27-8.54,0.81-20.28,7.45-27.67c2.36-2.62,4.83-4.35,6.8-4.75c0.42-0.09,0.81-0.13,1.14-0.13c0,0,0,0,0,0
		c0.83,0,1.14,0.23,1.5,0.7c2.49,3.35,1.89,14.3-0.29,21.48c-2.05,6.92-6.28,13.68-13.74,21.95
		C734.45,287.88,734.04,288.32,733.63,288.75L733.63,288.75z M746.18,380.57c-7.97,0-14.35-2.89-19.52-8.83
		c-11.03-12.69-9.56-31.33-3.2-44.18c0.01-0.03,0.03-0.06,0.04-0.09c1.21-2.57,2.69-5.17,4.48-7.83c0.65,1.25,1.32,2.53,2.03,3.83
		c-7.49,7.1-9.95,17.36-6.57,28.25c3.04,9.79,6.79,9.79,8.03,9.79c0.16,0,0.32-0.01,0.48-0.02c1.44-0.14,2.76-0.87,3.64-2.03
		c1.51-1.99,1.13-4.1,0.72-6.33c-0.85-4.65-1.45-9.92,2.14-13.61c0.17-0.18,0.34-0.35,0.5-0.52c1.67,2.78,3.35,5.53,5,8.23
		c2.38,3.9,4.83,7.91,7.12,11.79c3.26,5.61,6.81,12.13,9.17,18.97c-0.49,0.22-0.97,0.4-1.43,0.54
		C754.26,379.89,750.02,380.57,746.18,380.57L746.18,380.57z M752.12,331.23c1.84-0.44,3.67-0.66,5.48-0.66
		c1.51,0,2.98,0.16,4.39,0.47c3.97,0.85,7.77,2.96,10.73,5.96c8.77,8.87,7.98,22.72,5.11,27.65c-1.13,1.93-2.63,3.72-4.53,5.42
		c-3.69-9.6-9.03-18.47-14.22-27.11c-1.72-2.86-3.49-5.8-5.13-8.66c-0.01-0.03-0.03-0.05-0.05-0.08
		C753.27,333.17,752.68,332.18,752.12,331.23L752.12,331.23z"/>
</g>
</svg>
