<?xml version="1.0" encoding="utf-8"?>
<!-- Generator: Adobe Illustrator 27.0.0, SVG Export Plug-In . SVG Version: 6.00 Build 0)  -->
<svg version="1.1" id="Layer_1" xmlns="http://www.w3.org/2000/svg" xmlns:xlink="http://www.w3.org/1999/xlink" x="0px" y="0px"
	 viewBox="0 0 89 86.96" style="enable-background:new 0 0 89 86.96;" xml:space="preserve">
<style type="text/css">
	.st0{fill:#D95734;}
	.st1{fill:#B3B3B3;}
	.st2{fill:#CCCCCC;}
	.st3{fill:none;stroke:#A09FA0;stroke-width:3;stroke-miterlimit:10;}
	.st4{fill:#898F8E;}
	.st5{fill:#685841;}
	.st6{fill:#9A7B5C;}
	.st7{fill:none;stroke:#766041;stroke-width:3;stroke-miterlimit:10;}
	.st8{fill:#655841;}
	.st9{fill:#D29400;}
	.st10{fill:#FFC800;}
	.st11{fill:none;stroke:#D29400;stroke-width:3;stroke-miterlimit:10;}
	.st12{fill:#FAFAFA;}
	.st13{fill:none;stroke:#CCCCCC;stroke-width:3;stroke-miterlimit:10;}
</style>
<g>
	<polygon class="st0" points="16.04,86.96 12.07,75.55 0,75.2 15.44,52.99 31.48,64.75 	"/>
	<polygon class="st0" points="72.96,86.96 76.93,75.55 89,75.2 73.17,52.99 57.13,64.75 	"/>
	<circle class="st1" cx="45.76" cy="35.22" r="35.22"/>
	<circle class="st2" cx="42.66" cy="34.65" r="34.65"/>
	<circle class="st3" cx="42.66" cy="34.65" r="26.75"/>
	<g>
		<path class="st4" d="M34.62,44.82l4.96-5.23c3.6-3.79,6.48-7.01,6.48-10.26c0-3.14-1.71-4.36-5-4.36c-1.82,0-3.94,0.87-5.38,1.74
			l-0.76-3.45c1.74-1.02,4.39-1.97,7.38-1.97c5.68,0,8.6,2.73,8.6,7.42c0,4.62-3.94,8.75-7.12,12.04l-3.07,3.14h10.42v3.64H34.62
			V44.82z"/>
	</g>
</g>
</svg>
