<?xml version="1.0" encoding="utf-8"?>
<!-- Generator: Adobe Illustrator 27.0.0, SVG Export Plug-In . SVG Version: 6.00 Build 0)  -->
<svg version="1.1" id="Layer_1" xmlns="http://www.w3.org/2000/svg" xmlns:xlink="http://www.w3.org/1999/xlink" x="0px" y="0px"
	 viewBox="0 0 330.49 172.21" style="enable-background:new 0 0 330.49 172.21;" xml:space="preserve">
<style type="text/css">
	.st0{fill:#13DEDE;}
</style>
<g>
	<path class="st0" d="M80.93,56.1h-0.57v2.84c0.12,14.77,0.5,29.86,1.14,45.27c0.12,2.65,0.22,5.27,0.28,7.86
		c0.06,2.59,0.22,5.21,0.47,7.86v0.76c0.25,2.53,0.44,5.11,0.57,7.77c0.12,2.65,0.25,5.11,0.38,7.39v10.04
		c-0.51,5.43-3.79,8.65-9.85,9.66c-2.65,0.38-5.02-0.19-7.1-1.7c-2.08-1.52-3.5-3.41-4.26-5.68c-0.63-1.89-1.17-4.1-1.61-6.63
		c-0.44-2.52-0.66-5.05-0.66-7.58c-0.38-4.92-0.66-10.13-0.85-15.63c-0.19-5.49-0.35-10.83-0.47-16v-3.6c0-0.63-0.03-1.26-0.09-1.89
		c-0.07-0.63-0.09-1.33-0.09-2.08c-0.13-1.64-0.22-3.57-0.28-5.78c-0.07-2.21-0.09-4.2-0.09-5.97c0-1.01-0.03-1.99-0.09-2.94
		c-0.07-0.95-0.09-1.92-0.09-2.94l-0.38-17.24c0-0.38-0.07-0.82-0.19-1.33l-4.17,0.38l-8.52,0.95l-7.58,0.95
		c-2.27,0.38-4.73,0.7-7.39,0.95c-2.65,0.25-5.11,0.51-7.39,0.76c-2.53,0.13-5.05,0.13-7.58,0c-2.53-0.12-4.86-0.38-7.01-0.76
		C4.92,61.15,3,59.6,1.67,57.14c-1.33-2.46-1.86-5.02-1.61-7.67c0.5-2.9,1.7-5.05,3.6-6.44c1.89-1.39,4.17-2.15,6.82-2.27
		c1.26-0.12,2.49-0.25,3.69-0.38c1.2-0.12,2.49-0.31,3.88-0.57l8.9-0.95l3.41-0.38h-0.19c4.8-0.63,9.69-1.26,14.68-1.89
		c4.99-0.63,9.88-1.45,14.68-2.46c5.43-0.76,10.89-1.26,16.38-1.52c5.49-0.25,11.08-0.38,16.76-0.38h17.24
		c1.77,0,3.6,0.16,5.49,0.47c1.89,0.32,3.6,0.79,5.11,1.42h-0.19c2.52,0.63,4.48,2.02,5.87,4.17c1.39,2.15,1.96,4.61,1.7,7.39
		c-0.25,2.53-1.36,4.71-3.31,6.53c-1.96,1.83-4.52,2.81-7.67,2.94H92.68c-2.4,0-4.99,0.19-7.77,0.57L80.93,56.1z"/>
	<path class="st0" d="M172.98,22.58c0,1.89-0.41,3.76-1.23,5.59c-0.82,1.83-1.89,3.44-3.22,4.83c-1.33,1.39-2.91,2.53-4.74,3.41
		c-1.83,0.89-3.69,1.33-5.59,1.33s-3.69-0.41-5.4-1.23c-1.7-0.82-3.22-1.89-4.55-3.22c-1.33-1.33-2.34-2.9-3.03-4.73
		c-0.7-1.83-1.04-3.69-1.04-5.59c0-1.89,0.44-3.76,1.33-5.59c0.88-1.83,2.02-3.41,3.41-4.73c1.39-1.33,3-2.37,4.83-3.13
		c1.83-0.76,3.76-1.14,5.78-1.14c3.91,0.13,7.13,1.52,9.66,4.17C171.72,15.19,172.98,18.54,172.98,22.58z M173.93,103.83
		c0.38,4.8,0.66,9.82,0.85,15.06c0.19,5.24,0.41,10.51,0.66,15.81c0.12,3.41-0.19,6.82-0.95,10.23c-0.88,2.52-2.27,4.45-4.17,5.78
		c-1.89,1.33-4.17,1.92-6.82,1.8c-5.05-0.63-8.14-3.28-9.28-7.95v0.19c-1.01-3.15-1.58-6.56-1.7-10.23
		c-0.25-10.98-0.47-21.94-0.66-32.86c-0.19-10.92-0.41-21.88-0.66-32.86c0-2.02,0.19-3.98,0.57-5.87
		c1.39-6.69,4.92-10.16,10.61-10.42c2.65,0,4.95,0.85,6.91,2.56c1.96,1.7,3.25,4.14,3.88,7.29c0.38,1.77,0.6,3.66,0.66,5.68
		c0.06,2.02,0.09,3.92,0.09,5.68V103.83z"/>
	<path class="st0" d="M214.84,155.54c0,1.51-0.03,2.94-0.09,4.26c-0.07,1.33-0.22,2.56-0.47,3.69c-0.63,2.65-2.05,4.8-4.26,6.44
		c-2.21,1.64-4.45,2.4-6.72,2.27c-5.3-0.25-8.78-2.84-10.42-7.77v0.19c-1.01-2.15-1.52-4.42-1.52-6.82c0-1.26-0.03-2.46-0.09-3.6
		c-0.07-1.14-0.09-2.34-0.09-3.6c-0.13-4.17-0.25-8.33-0.38-12.5c-0.13-4.17-0.19-8.33-0.19-12.5c0-1.77,0-3.5,0-5.21
		c0-1.7,0.06-3.44,0.19-5.21c0.25-8.21,0.63-16.51,1.14-24.91c0.5-8.4,1.14-16.63,1.89-24.72c0.25-3.41,0.72-6.25,1.42-8.52
		c0.69-2.27,1.73-4.07,3.13-5.4c1.39-1.33,3.25-2.24,5.59-2.75c2.33-0.5,5.21-0.76,8.62-0.76c3.79-0.12,7.67-0.06,11.65,0.19
		c3.98,0.25,7.92,0.63,11.84,1.14c2.15,0.25,4.32,0.7,6.53,1.33c2.21,0.63,4.2,1.52,5.97,2.65c5.3,2.91,9.28,6.5,11.93,10.8
		c2.65,4.29,3.98,8.84,3.98,13.64c0,3.66-0.79,7.26-2.37,10.8c-1.58,3.54-3.88,6.82-6.91,9.85c-4.42,4.42-9.31,8.08-14.68,10.99
		c-5.37,2.91-11.08,5.43-17.14,7.58l-5.3,1.52l-3.22,1.33V155.54z M211.99,95.87l2.08-0.57v2.46L211.99,95.87z M214.46,91.52
		c0,0.63-0.03,1.26-0.09,1.89c-0.07,0.63-0.16,1.26-0.28,1.89c5.05-1.26,9.5-2.9,13.35-4.92c3.85-2.02,7.42-4.48,10.7-7.39
		c1.01-1.01,1.8-1.89,2.37-2.65s0.85-1.52,0.85-2.27c0-1.77-1.58-3.28-4.73-4.55h0.19c-2.27-0.76-4.8-1.33-7.58-1.7
		c-2.78-0.38-5.62-0.69-8.52-0.95c-0.38,0-0.76-0.03-1.14-0.09c-0.38-0.06-0.7-0.09-0.95-0.09c-1.01-0.12-1.7,0.19-2.08,0.95
		c-0.38,0.76-0.63,1.7-0.76,2.84c-0.25,2.65-0.47,5.4-0.66,8.24C214.93,85.55,214.71,88.49,214.46,91.52z"/>
	<path class="st0" d="M311.81,155.16c0,2.15-0.41,4.13-1.23,5.97c-0.82,1.83-1.93,3.44-3.31,4.83c-1.39,1.39-3,2.49-4.83,3.31
		c-1.83,0.82-3.69,1.17-5.59,1.04c-3.92-0.25-7.2-1.86-9.85-4.83c-2.65-2.97-3.98-6.47-3.98-10.51c0-2.15,0.38-4.17,1.14-6.06
		c0.76-1.89,1.8-3.5,3.12-4.83c1.33-1.33,2.9-2.37,4.74-3.12c1.83-0.76,3.82-1.07,5.97-0.95c1.89,0,3.69,0.41,5.4,1.23
		c1.7,0.82,3.19,1.93,4.45,3.31c1.26,1.39,2.24,3,2.94,4.83C311.46,151.21,311.81,153.13,311.81,155.16z M330.37,19.36
		c-0.51,2.53-1.07,5.59-1.7,9.19c-0.63,3.6-1.26,7.23-1.89,10.89c-1.39,8.71-2.75,17.3-4.07,25.76c-1.33,8.46-2.68,17.05-4.07,25.76
		c-0.25,1.77-0.6,3.63-1.04,5.59c-0.44,1.96-1.23,3.63-2.37,5.02c-1.01,1.39-2.43,2.59-4.26,3.6c-1.83,1.01-3.5,1.39-5.02,1.14
		c-1.52-0.25-3.06-1.07-4.64-2.46c-1.58-1.39-2.68-2.84-3.31-4.36c-0.76-1.77-1.14-3.72-1.14-5.87c0-2.15,0.12-4.23,0.38-6.25
		c1.52-10.61,3.09-21.09,4.74-31.44c1.64-10.35,3.34-20.77,5.11-31.25c0.25-2.15,0.54-4.2,0.85-6.16c0.31-1.96,0.66-4.01,1.04-6.16
		c0.63-4.04,1.99-7.16,4.07-9.38c2.08-2.21,4.58-3.19,7.48-2.94c3.03,0.25,5.4,1.58,7.1,3.98c1.7,2.4,2.62,5.68,2.75,9.85
		c0.12,0.51,0.16,1.11,0.09,1.8C330.4,16.36,330.37,17.59,330.37,19.36z"/>
</g>
</svg>
