<svg xmlns="http://www.w3.org/2000/svg" viewBox="0 0 26.8 30.25"><g id="Layer_2" data-name="Layer 2"><g id="Layer_1-2" data-name="Layer 1"><path d="M0,30.25V10.15L13.4,0,26.8,10.15v20.1ZM1.1,10.7V29.1a20.39,20.39,0,0,1,5.55-3.58,16.92,16.92,0,0,1,6.6-1.22A18,18,0,0,1,20,25.58,19,19,0,0,1,25.7,29.1V10.7L13.4,1.35Zm12.3,8.7a4.51,4.51,0,0,1-4.55-4.55A4.54,4.54,0,0,1,13.4,10.3,4.52,4.52,0,0,1,18,14.85,4.52,4.52,0,0,1,13.4,19.4Zm0-1.1a3.3,3.3,0,0,0,2.45-1,3.37,3.37,0,0,0,1-2.43A3.41,3.41,0,0,0,13.4,11.4a3.33,3.33,0,0,0-2.42,1,3.27,3.27,0,0,0-1,2.45A3.5,3.5,0,0,0,13.4,18.3ZM2.5,29.15H24.05a16.8,16.8,0,0,0-5-2.8,17.56,17.56,0,0,0-5.78-1,17.06,17.06,0,0,0-5.75,1A17.94,17.94,0,0,0,2.5,29.15Z"/></g></g></svg>