<svg xmlns="http://www.w3.org/2000/svg" viewBox="0 0 912.28 127.88"><defs><style>.cls-1{fill:#fff;}</style></defs><g id="Layer_2" data-name="Layer 2"><g id="레이어_1" data-name="레이어 1"><path class="cls-1" d="M651.2,70.9c7.23-2.74,22.27-8.49,22.27-30.85,0-9.61-3.21-18.76-8.8-25.11C654.49,3.81,639.84,3.63,628.09,3.46H577.43v114h26.51V76h19.82l22.76,41.51H675.6l-26.2-45.9ZM629,56.69h-25.1V22.91h25.48c5.34.17,17.73.51,17.73,16.64,0,10.85-6.11,16.61-18.11,17.14"/><path class="cls-1" d="M326.09,98.34l.86-1.21c4.34-7.32,10.92-18.43,10.92-37.65,0-16.08-5.32-30.89-15-41.71C312.46,6.14,298,0,281,0c-16.55,0-30.68,6-40.9,17.46-9.66,10.84-15,25.94-15,42.52,0,8.7,1.6,30.57,16.71,45.48,9.79,9.61,24.5,15.33,39.35,15.33,11.79,0,19-3.45,28.16-7.84l.89-.42.8.6c14.19,10.82,18.34,12.55,29.88,14.75l7.43-18.42c-10.69-1.95-14.8-4.35-21.14-10.12Zm-44.26.19c-18.47,0-30.4-15.2-30.4-38.71,0-17.4,7.37-36.4,28-37.55.71,0,1.17-.05,1.61-.05,4.83,0,16.81,1.23,24,12.6C307.5,38.65,311.7,48.3,311.7,60c0,17.78-7.82,38.55-29.87,38.55"/><path class="cls-1" d="M197.3,53.47c-6.65-2.38-23.38-5.45-34.81-6.85-5.09-.68-15.62-2.12-15.62-12,0-6.47,6.37-13.34,18.2-13.34a41.91,41.91,0,0,1,19.21,5.26,51.4,51.4,0,0,1,11,8.89L214.45,21.5C205,12.87,190.72.67,165.55.67c-6.62,0-19.3,1-29.89,8-10,6.61-15.1,16.6-15.1,29.71,0,10.27,4.12,18.25,12.28,23.71,6.74,4.5,14.4,6.12,17.67,6.81,6.09,1.3,12.44,2.13,18.58,2.93l.43.06c8.27,1.13,20.73,2.84,20.73,13,0,8.35-9.57,14.66-22.28,14.66a47.63,47.63,0,0,1-22.61-5.76,35.62,35.62,0,0,1-10.71-8.58L114.77,98c7.09,8.27,20.07,22.17,50.62,22.17,19.36,0,33.56-5.15,42.2-15.27a37.53,37.53,0,0,0,8.83-24c0-13.07-6.8-22.81-19.12-27.44"/><path class="cls-1" d="M424.59,74.65c-.18,9.64-.42,23.72-20.8,23.72-5.43,0-15.19-1.09-19.48-8.44-2.14-4-2.3-9-2.3-15.12V3.46H355.35V67.23c-.15,15-.37,35.43,21.33,46.76,7.16,3.8,17.18,6.15,26.14,6.15,4.87,0,29.75-1,41.77-20.57,6.17-10.26,6.34-21.5,6.49-32.36V3.46H424.59Z"/><path class="cls-1" d="M496.83,3.46l-41.73,114,25.78-.26L495.5,71.81c1.24-4,3.57-10.9,6.05-18.18l7.8-23.52,2.61,0,.24,1.47,14.08,40.21,15,45.72h25.3l-41.41-114Z"/><polygon class="cls-1" points="773.61 23.75 773.61 3.46 691.12 3.46 691.12 117.49 773.34 117.49 773.34 96.88 717.62 96.88 717.62 69.78 773.6 69.78 773.6 49.99 717.62 49.99 717.62 23.75 773.61 23.75"/><path class="cls-1" d="M66.55,59.47a3.55,3.55,0,0,1-3.69-1.32l-4.93-6.43H29.21l46.46,65.75h29.5L81.52,83.55a2.72,2.72,0,0,1-.35-1.3A2.65,2.65,0,0,1,82.52,80L83,79.7a42.51,42.51,0,0,0,7.94-6.3,44.92,44.92,0,0,0,9.13-13.48,38,38,0,0,0,2.53-7.9c.18-.82.34-1.68.45-2.55a55.05,55.05,0,0,0,.41-6.23,52.63,52.63,0,0,0-.4-6c-.12-1-.28-1.82-.45-2.64a36.51,36.51,0,0,0-2.54-7.94,45.08,45.08,0,0,0-9.13-13.49A42.33,42.33,0,0,0,77.65,4,39.29,39.29,0,0,0,61.59.67H0V117.49H24.39l0-89.38a2.39,2.39,0,0,1,2.5-2.49H56.37a35.05,35.05,0,0,1,8.77,1A18.34,18.34,0,0,1,73.2,30.7a16.17,16.17,0,0,1,5.6,12.36,16.51,16.51,0,0,1-5.6,12.81,17.72,17.72,0,0,1-6.65,3.6"/><polygon class="cls-1" points="798.29 3.52 798.29 50.89 864.84 50.89 864.84 117.51 912.28 117.51 912.28 3.52 798.29 3.52"/><rect class="cls-1" x="798.29" y="61.81" width="55.69" height="55.7"/></g></g></svg>