<?xml version="1.0" encoding="UTF-8"?>
<svg id="Layer_2" data-name="Layer 2" xmlns="http://www.w3.org/2000/svg" viewBox="0 0 418.29 405.9">
  <g id="Layer_1-2" data-name="Layer 1">
    <g>
      <path d="M368.14,259.67c16.74-72.64-50.52-136.64-122.24-116.32,15.85-16.66,31.71-33.32,47.56-49.98,71.72-20.33,138.98,43.68,122.24,116.32-15.86,16.66-31.71,33.32-47.56,49.99Z"/>
      <path d="M240.62,369.12c71.16-22.21,92.48-112.58,38.73-164.24,22.38,5.28,44.77,10.56,67.16,15.84,53.74,51.66,32.43,142.02-38.73,164.23-22.39-5.28-44.77-10.55-67.16-15.84Z"/>
      <path d="M81.78,314.26c55.09,50.23,143.86,23.02,161.34-49.45,6.74,21.99,13.48,43.98,20.21,65.98-17.48,72.46-106.25,99.67-161.33,49.44-6.74-21.99-13.48-43.98-20.22-65.97Z"/>
      <path d="M48.99,149.45c-15.57,72.9,52.72,135.82,124.11,114.33-15.59,16.91-31.17,33.83-46.76,50.75C54.95,336.01-13.33,273.1,2.24,200.2c15.58-16.92,31.16-33.84,46.75-50.75Z"/>
      <path d="M174.72,37.96c-70.79,23.36-90.65,114.05-36.08,164.85-22.47-4.92-44.94-9.84-67.41-14.76C16.67,137.26,36.52,46.57,107.31,23.21c22.47,4.92,44.94,9.83,67.4,14.75Z"/>
      <path d="M334.42,90.25c-55.89-49.33-144.21-20.7-160.52,52.05-7.08-21.88-14.18-43.76-21.27-65.65C168.94,3.91,257.25-24.72,313.14,24.61c7.1,21.88,14.19,43.76,21.28,65.64Z"/>
    </g>
  </g>
</svg>