<?xml version="1.0" encoding="UTF-8"?>
<svg id="Layer_2" data-name="Layer 2" xmlns="http://www.w3.org/2000/svg" viewBox="0 0 436.94 427.6">
  <g id="Layer_1-2" data-name="Layer 1">
    <g>
      <path d="M218.2,210.84c19.22-8.1,88.22-86.44,79.17-138.94-14.78-105.9-152.05-86.62-152.05,4.53,0,79.65,72.88,134.41,72.88,134.41Z"/>
      <path d="M218.2,216.76s-72.88,54.76-72.88,134.41c0,91.14,137.28,110.43,152.05,4.53,9.05-52.5-59.95-130.83-79.17-138.94Z"/>
      <path d="M360.52,140.33c-79.65,0-134.42,72.89-134.42,72.89,8.11,19.22,86.44,88.22,138.94,79.17,105.9-14.78,86.62-152.06-4.53-152.06Z"/>
      <path d="M210.84,211.85s-54.76-72.88-134.41-72.88c-91.14,0-110.43,137.28-4.53,152.05,52.5,9.05,130.84-59.95,138.94-79.17Z"/>
    </g>
  </g>
</svg>