<?xml version="1.0" encoding="UTF-8"?>
<svg id="Layer_2" data-name="Layer 2" xmlns="http://www.w3.org/2000/svg" viewBox="0 0 138.3 138.3">
  <g id="Layer_6" data-name="Layer 6">
    <g>
      <path d="M56.33,124.72c-.14-7.64,5.94-13.94,13.57-14.08,7.64-.14,13.94,5.94,14.08,13.57.14,7.64-5.94,13.94-13.57,14.08-7.64.14-13.94-5.94-14.08-13.57Z"/>
      <path d="M20.79,99.38c5.3-5.5,14.06-5.66,19.56-.36s5.66,14.06.36,19.56c-5.3,5.5-14.06,5.66-19.56.36-5.5-5.3-5.66-14.06-.36-19.56Z"/>
      <circle cx="13.83" cy="70.16" r="13.83" transform="translate(-1.51 .31) rotate(-1.23)"/>
      <path d="M38.92,20.79c5.5,5.3,5.66,14.06.36,19.56s-14.06,5.66-19.56.36-5.66-14.06-.36-19.56c5.3-5.5,14.06-5.66,19.56-.36Z"/>
      <path d="M81.97,13.58c.14,7.64-5.94,13.94-13.57,14.08-7.64.14-13.94-5.94-14.08-13.57C54.17,6.45,60.25.14,67.88,0c7.64-.14,13.94,5.94,14.08,13.57Z"/>
      <path d="M117.51,38.92c-5.3,5.5-14.06,5.66-19.56.36s-5.66-14.06-.36-19.56c5.3-5.5,14.06-5.66,19.56-.36,5.5,5.3,5.66,14.06.36,19.56Z"/>
      <circle cx="124.47" cy="68.14" r="13.83" transform="translate(-1.24 2.32) rotate(-1.06)"/>
      <path d="M99.38,117.51c-5.5-5.3-5.66-14.06-.36-19.56,5.3-5.5,14.06-5.66,19.56-.36,5.5,5.3,5.66,14.06.36,19.56-5.3,5.5-14.06,5.66-19.56.36Z"/>
    </g>
  </g>
</svg>