<?xml version="1.0" encoding="UTF-8"?>
<svg id="Layer_2" data-name="Layer 2" xmlns="http://www.w3.org/2000/svg" viewBox="0 0 134.68 138.86">
  <g id="Layer_7" data-name="Layer 7">
    <g>
      <path d="M14.76,69.43c0-13.74,5.05-26.27,13.41-35.87v71.73c-8.35-9.59-13.41-22.13-13.41-35.86Z"/>
      <path d="M29.21,108.6h76.25c-9.84,9.59-23.29,15.5-38.12,15.5s-28.28-5.91-38.13-15.5Z"/>
      <path d="M67.34,14.76c14.83,0,28.29,5.9,38.13,15.5H29.2c9.85-9.6,23.3-15.5,38.14-15.5Z"/>
      <path d="M119.92,69.43c0,13.71-5.05,26.26-13.41,35.85V33.57c8.35,9.6,13.41,22.13,13.41,35.86Z"/>
      <path d="M110.15,14.76H24.53C36.33,5.52,51.19,0,67.34,0s31.01,5.52,42.81,14.76Z"/>
      <path d="M14.76,26.62v85.62C5.52,100.44,0,85.57,0,69.43s5.52-31.01,14.76-42.81Z"/>
      <path d="M110.15,124.1c-11.79,9.25-26.67,14.76-42.81,14.76s-31.01-5.52-42.81-14.76h85.62Z"/>
      <path d="M119.92,112.24V26.62c9.25,11.79,14.76,26.66,14.76,42.81s-5.52,31.01-14.76,42.81Z"/>
      <circle cx="67.34" cy="69.43" r="39.17" transform="translate(-21.78 31.83) rotate(-23)"/>
    </g>
  </g>
</svg>