<?xml version="1.0" encoding="UTF-8"?>
<svg id="Layer_2" data-name="Layer 2" xmlns="http://www.w3.org/2000/svg" viewBox="0 0 119.4550299833 65.8486437599">
  <defs>
    <style>
      .cls-1 {
        fill: #fff;
      }
    </style>
  </defs>
  <g id="Layer_1-2" data-name="Layer 1">
    <g>
      <g>
        <polygon class="cls-1" points="34.1678707428 .6705892062 0 .6705892062 0 8.0633579103 12.5466171031 8.0633579103 12.5466171031 39.8787399268 21.6212694835 39.8787399268 21.6212694835 8.0633579103 34.1678707428 8.0633579103 34.1678707428 .6705892062"/>
        <path class="cls-1" d="M48.4479114322,9.2963864842c1.9428312068-1.045105158,4.1655274517-1.5683310988,6.6680887347-1.5683310988,3.9586706844,0,7.3386937848,1.4750427528,10.1400376136,4.4237656908l5.8244376053-5.3755825028c-1.9036177801-2.2024161697-4.2561065064-3.8829531222-7.0574661791-5.0402641339-2.8013438288-1.1573268555-5.9204193988-1.7359744394-9.3558641423-1.7359744394-4.1073965173,0-7.8037729474.8693339435-11.0918544255,2.6066551067-3.2853721868,1.7346277157-5.8514829868,4.142553929-7.7010258476,7.2251253635-1.8468335694,3.0798621432-2.7688957085,6.5599230522-2.7688957085,10.4428761745,0,3.882968966.9220621391,7.3657233225,2.7688957085,10.448294757,1.8495428607,3.0798779871,4.3980828768,5.4877883565,7.6469509282,7.2251253635,3.2475054838,1.7346118719,6.9073936224,2.6012523679,10.9782701605,2.6012523679,2.8365170843,0,5.6567942646-.4299375948,8.4581539373-1.2871034932,2.8013438289-.8571817421,5.264707529-2.0888477484,7.3927528603-3.6936829827v-15.9104002995h-8.2904947529v11.4812318699c-2.0915411959,1.1221694438-4.4426831985,1.6818995201-7.0520475965,1.6818995201-2.4660571476,0-4.6617238548-.5313379709-6.5869684338-1.5953764804-1.9225511315-1.0626759419-3.4259859897-2.5471774485-4.5102887305-4.4507952286-1.0816092934-1.9063270714-1.6224060182-4.0735858294-1.6224060182-6.5004453941,0-2.4660571476.5407967248-4.6508866896,1.6224060182-6.5545203135,1.0843027409-1.9036177801,2.5971963528-3.3772979653,4.5373182683-4.423749847Z"/>
        <path class="cls-1" d="M94.5467722444,32.8212737477c-2.4268437209,0-4.5914090314-.5313379709-6.4950268115-1.5953764804-1.9036336239-1.0626759419-3.3894818542-2.5471774485-4.4562138112-4.4507952286-1.0640226657-1.9063270714-1.5953606366-4.0735858294-1.5953606366-6.5004453941,0-2.4254969972.5313379709-4.5914090315,1.5953606366-6.4950268115,1.066731957-1.9063270714,2.5525801873-3.3921753017,4.4562138112-4.4562138112,1.9036177801-1.0626759419,4.0681830906-1.5953606366,6.4950268115-1.5953606366,3.9221665489,0,7.2088854595,1.5304643959,9.8588258517,4.5914090314l5.8244376053-5.375566659c-1.8644201972-2.238920305-4.1695834667-3.9546146693-6.91686822-5.1484456602-2.7445596182-1.1965244384-5.8136162839-1.7954520976-9.2098476006-1.7954520976-4.0343882465,0-7.6672310034.8693339435-10.8971657034,2.6066551067-3.2312972675,1.7346277157-5.7703626859,4.142553929-7.6199055466,7.2251253635-1.8468335694,3.0798621432-2.7688957085,6.5599230522-2.7688957085,10.4428761745,0,3.882968966.9220621391,7.3657233225,2.7688957085,10.448294757,1.8495428607,3.0798779871,4.3886082792,5.4877883565,7.6199055466,7.2251253635,3.2299346999,1.7346118719,6.8424973817,2.6012523679,10.8376722014,2.6012523679,3.3989406081,0,6.4801653189-.5975809354,9.2423115648-1.7900493588,2.7648396934-1.1965244384,5.0794775606-2.9324988779,6.9438977578-5.2079233183l-5.8244376053-5.3809852416c-2.6499403922,3.101504786-5.9366593028,4.6509025334-9.8588258517,4.6509025334Z"/>
      </g>
      <g>
        <path class="cls-1" d="M6.1671550328,49.933300192H1.6298209207c-.1122058537,0-.1730460794.0527281956-.1838674008.1568378631l-.0648962407,1.0545639118c-.004056015.0405601505.0067653063.0743549946.0324481204.1027470999.0283921053.0297388291.0716615471.0432694418.1297924815.0432694418.0567842106,0,.1027470999-.0392134267.1351952202-.1189870039.0865388835-.2839210532.2055100436-.4988898506.356929324-.6435438247.1541285717-.1433230941.3650413541-.216331365.6327383471-.216331365h.6868291102c.136541944,0,.2054941998.0730082708.2054941998.216331365v4.602214509c0,.0973443611-.0365041354.1757712145-.1081498387.2325554251-.0689522558.0581309344-.1554911393.0919257785-.2595849629.1027470999l-.3028544047.0162240602c-.0648962407,0-.0973443611.0365041354-.0973443611.1081656825,0,.0324481204.0108213214.0594776581.0324481204.0811203009.0243360903.021626799.0513814718.0324481204.0811203009.0324481204l1.0167130527-.0324481204.9247714304.0324481204c.0283921053,0,.0554216431-.0108213214.0811203009-.0324481204.0243360903-.0216426428.0378508592-.0486721805.0378508592-.0811203009,0-.071661547-.0351574117-.1081656825-.1027470999-.1081656825l-.2379581639-.0162240602c-.1014003761-.0108213214-.1879234158-.0446161655-.2595849629-.1027470999-.0730082708-.0567842106-.1081656825-.1352110641-.1081656825-.2325554251v-4.602214509c0-.1433230941.067605532-.216331365.2055100436-.216331365h.6868132664c.2622942542,0,.4704977453.0703148233.6219328695.2109127824.1514192804.1406138028.2758090231.356929324.3731533842.6489624073.0324481204.0797735772.0770642859.1189870039.1351952202.1189870039.0567842106,0,.0986910848-.0121680451.1243897427-.037866703.0283921053-.0283921053.0391975829-.0648962407.0324481204-.1081498387l-.0811203009-1.0167130527c-.0108213214-.1297924815-.0743708384-.1946887222-.1892859834-.1946887222Z"/>
        <path class="cls-1" d="M8.620489602,51.4799886481c-.624626317,0-1.1275721826.2001073048-1.5088375969.6002902267-.382612138.4001987658-.5732448452.9180219678-.5732448452,1.5521070387,0,.6313916233.1852141245,1.1451429666.557020785,1.5412857173.3745001079.3934334594.8815019886.5894689053,1.5196589183.5894689053.6381410859,0,1.1424336753-.1946887222,1.5142403357-.5840661665.3704440929-.3920708919.557020785-.9098940939.557020785-1.5520911949,0-.6408503771-.1879234158-1.1586735792-.5624235238-1.5521070386-.3758626755-.3961427507-.8760992498-.5948874879-1.5034348581-.5948874879ZM9.6209785945,54.9952069688c-.22038738.3001451133-.5624393676.4488709463-1.0275343741.4488709463-.2487636415,0-.4650791627-.0608402257-.6489624073-.1838832446-.1838674008-.1257364664-.3231186361-.289323792-.4164069821-.4921245443-.1730619232-.3853214293-.2595849629-.8301363606-.2595849629-1.3357756737,0-.4867218054.11085913-.8788085411.3352866812-1.1789536545.2230808275-.3028544046.5624393676-.4542736851,1.0167130527-.4542736851.2622942542,0,.4840125142.0635495169.6651864675.1892859834.1838674008.1230271751.3217719123.2866145007.4164228259.4921245443.1689900644.378556123.2541663803.8166057479.2541663803,1.3141488747s-.1122058537.8977260488-.3352866812,1.2005804535Z"/>
        <path class="cls-1" d="M17.6385954289,51.5394821501l-.5840661665.0324481204-.6056929655-.0324481204c-.0757175621,0-.1135684213.0324481204-.1135684213.0973443611s.0324481204.1027470999.0973443611.1135684213l.1460165416.0162240602c.1690059082.0189333515.2541822241.0919416223.2541822241.2217341038,0,.0189175077-.0054185826.0486721805-.0162240602.0919257785l-.7949789489,2.5093265894c-.004056015.025682814-.0148773364.0378508592-.0324481204.0378508592-.0148773364,0-.0297546729-.0067494625-.0432694418-.021626799l-1.1789536545-2.9041067725c-.025682814-.067605532-.0946350698-.1027470999-.2054941998-.1027470999-.1081656825,0-.1771179383.0351415679-.2055100436.1027470999l-1.1519082729,2.9095095113c-.0081120301.0365041354-.0202800752.0540907632-.0378508592.0540907632-.0148773364,0-.0270453816-.0121680451-.037866703-.037866703l-.7463067684-2.5471774485c-.0081120301-.0175707839-.0108054776-.043253598-.0108054776-.0757017183,0-.1406138028.0973443611-.2190248124.2920330833-.2379581639l.1676433406-.0162240602c.0716457033-.0108213214.1081656825-.0486721805.1081656825-.1135684213s-.0473254568-.0973443611-.1406138028-.0973443611l-.7841576275.0324481204-.7949789489-.0324481204c-.0757175621,0-.1135684213.0324481204-.1135684213.0973443611s.0283762615.1027470999.0865230397.1135684213l.156837863.0270453816c.1689900644.025682814.2812117619.1216804514.3352866812.2866145007l1.1573268555,3.6233840031c.021626799.0500189043.0662429645.0757017183.1351952202.0757017183.0675896882,0,.1135684213-.025682814.1351952202-.0757017183l1.2059990361-3.0987954947c.0135147689-.0500347481.0405601504-.0757175621.0811203009-.0757175621.0135147689,0,.0297388291.0148773364.0486721805.0432694418l1.2654766942,3.1312436151c.021626799.0500189043.0648962407.0757017183.1297924815.0757017183.0675896882,0,.114915145-.025682814.140597959-.0757017183l1.1681323331-3.5963386216c.0608402257-.1838674008.1757712145-.2879770682.3461238464-.3136598822l.1568220192-.0270453816c.0567842106-.0108213214.0865388835-.0486721805.0865388835-.1135684213s-.0351574117-.0973443611-.1027629437-.0973443611Z"/>
        <path class="cls-1" d="M20.0764664407,51.4799886481c-.5232259409,0-.9734436109.2095660586-1.3519997339.6273356083-.3758626755.4191162734-.5624393676.9072006464-.5624393676,1.4655681552,0,.6895225577.1892859834,1.2262791113.5678421064,1.6116005406.3812654143.3866681531.9085473702.5786475839,1.5791524202.5786475839.5367407097,0,.9572195507-.1527660042,1.2600581116-.4596764239.0784268534-.0757175621.0878856073-.1433072503.0270453816-.2055100436-.0621869494-.0608402257-.1270831902-.0648962407-.1946887222-.0108054776-.2095660586.1703526319-.5326846947.2541663803-.9680408721.2541663803-.4326310423,0-.7895603663-.1460165416-1.070787972-.4380496249-.2812117619-.2920330833-.4272283035-.6881599902-.4380496249-1.1897591321,0-.093288346.0324481204-.1406138028.0973443611-.1406138028h2.3633100478c.2920330833,0,.4380496249-.1635873256.4380496249-.4921245443,0-.4569829764-.1608938781-.8382483906-.4813190667-1.1410869515-.3217719123-.305563696-.7435974771-.4596922677-1.2654766942-.4596922677ZM20.8335945304,53.226784409h-1.806273419c-.0689522558,0-.1027629437-.0432694418-.1027629437-.1297924814,0-.3379959725.1108749738-.6395036535.335302525-.9031446314.2230808275-.2622784104.4934871118-.3947801831.8112030091-.3947801831.3204251886,0,.5691888301.1135684213.7463067684.3407052638.1798113857.2271368425.2704062843.505655157.2704062843.8328298081,0,.1703526319-.085176316.2541822241-.2541822241.2541822241Z"/>
        <path class="cls-1" d="M25.3143345576,51.5394821501c-.0905790547-.0392134267-.2217341038-.0594935019-.3947801832-.0594935019-.1730619232,0-.3704599367.0648962407-.5894847491.1946887222-.2203715362.1297924814-.3934334594.2744622993-.5191699258.4326468861-.0297388291.0324481204-.0540749193.0486721805-.0757017183.0486721805-.0216426428,0-.0324481204-.0135147689-.0324481204-.0432694418v-.4434523637c0-.1257364664-.0432694418-.1892859834-.1297924815-.1892859834h-.0162240602l-1.0653852332.1352110641c-.0730082708.0108054776-.1081656825.0527281956-.1081656825.1243738988,0,.0689522558.0351574117.1027629437.1081656825.1027629437h.2758090231c.1041096674,0,.1798113857.021626799.2271368425.0648962407.0459628892.0405601505.0702989795.1135684213.0702989795.2217182599v3.0014511337c0,.0973443611-.0365041354.1757712145-.1081498387.2325554251-.0730082708.0581309344-.1622406018.0919257785-.2704062843.1027470999l-.2271368425.0162240602c-.0689522558.0081120301-.1027470999.0473254568-.1027470999.1189711601,0,.0689522558.0405601504.1027629437.1243738989.1027629437l.8869205712-.0324481204,1.0816092934.0324481204c.0824670247,0,.1243738988-.0338106879.1243738988-.1027629437,0-.0716457033-.0351415678-.11085913-.1027470999-.1189711601l-.335302525-.021626799c-.289323792-.0216426428-.4326310423-.131155049-.4326310423-.3298997862v-1.7738252986c0-.4285908711.0838137484-.7584748135.2541663803-.9896676711.1690059082-.2298461338.3745159517-.3461080026.6165142869-.3461080026.2447234703,0,.4434682075.0946350698.5948874879.2812117618.0716615471.0838295922.1297924815.1243897427.1730619232.1243897427.0757017183,0,.1135684213-.0405601504.1135684213-.1243897427v-.6327383471c0-.0459628893-.0473254568-.089232331-.1406138029-.1297924815Z"/>
        <path class="cls-1" d="M33.3671404913,52.9996475664l-.8112030091.0324481204-1.1140574137-.0324481204c-.0730082708,0-.1081656825.0378508592-.1081656825.1135684213,0,.0730082708.0297546729.1081656825.0919416223.1081656825l.4434523637.021626799c.2447234703.0108213214.3677506454.1216804513.3677506454.3298839424v1.0167130527c0,.1838674008-.1406138028.360985339-.4218255647.5299912472-.2812117619.1662966169-.6259730407.2487636415-1.0329371128.2487636415-.408294952,0-.7814483362-.1365577878-1.1194601525-.4110042433-.3352866812-.2771715907-.5935249204-.6286823321-.7733363061-1.0545639118-.1811739533-.4285908711-.2704062843-.8720432348-.2704062843-1.3303729349,0-.6989971554.200091461-1.2762980156.6002902267-1.7305717007.4028922132-.4542736851.9437047818-.6814105276,1.6224060182-.6814105276.3677506454,0,.6841198189.1054563912.9518168119.3136598822.2663344254.2055100436.45021767.492140388.5516180462.8598751897.0243360903.1081656825.0838137484.1622406018.178464662.1622406018.0391975829,0,.0702989795-.0162240602.0919257785-.0486721805.0243360903-.0351415679.037866703-.0730082708.037866703-.1135684213v-.9355769079c0-.1189870039-.1879392596-.2406674552-.5624393676-.3677506454-.3718066604-.1257364664-.7882136426-.1892859834-1.249252634-.1892859834-.8909765862,0-1.6156407118.2812276057-2.1740240644.8436511295-.5556740612.5597300763-.8328298081,1.2641299704-.8328298081,2.1145464062,0,.8477071445.2649877017,1.5548004861.7949789489,2.1199333012.5299754034.5624393676,1.2194979611.8436511295,2.0712611207.8436511295.5043084332,0,.9423580581-.1000378086,1.3141488747-.3028385609.1189870039-.067605532.2001073048-.1027629437.2433609027-.1027629437.2055100436,0,.3515265852.1000536524.4380496249.2974516659.0351574117.0716457033.0838295922.1081498387.1460165416.1081498387.093288346,0,.1352110641-.051365628.1243897427-.1514192804l-.0486721805-.4596764239v-1.5791524202c0-.1798113857.1081656825-.289323792.3244812036-.3298839424l.1406138028-.021626799c.0648962407-.0067653063.0973443611-.0486721805.0973443611-.1243897426,0-.0648962407-.037866703-.0973443611-.1135684213-.0973443611Z"/>
        <path class="cls-1" d="M36.7658275985,51.5394821501c-.0905948986-.0392134267-.2217341038-.0594935019-.394796027-.0594935019-.1730460794,0-.3704440929.0648962407-.5894689053.1946887222-.2203715362.1297924814-.3934334594.2744622993-.5191699258.4326468861-.0297388291.0324481204-.0540749193.0486721805-.0757175621.0486721805-.021626799,0-.0324481204-.0135147689-.0324481204-.0432694418v-.4434523637c0-.1257364664-.0432535979-.1892859834-.1297924815-.1892859834h-.0162240602l-1.0653693894.1352110641c-.0730082708.0108054776-.1081656825.0527281956-.1081656825.1243738988,0,.0689522558.0351574117.1027629437.1081656825.1027629437h.2758090231c.1040938236,0,.1798113857.021626799.2271368425.0648962407.0459628892.0405601505.0702989795.1135684213.0702989795.2217182599v3.0014511337c0,.0973443611-.0365041354.1757712145-.1081656825.2325554251-.0730082708.0581309344-.1622406018.0919257785-.2703904405.1027470999l-.2271368425.0162240602c-.0689522558.0081120301-.1027629437.0473254568-.1027629437.1189711601,0,.0689522558.0405601505.1027629437.1243897427.1027629437l.8869205712-.0324481204,1.0815934496.0324481204c.0824828685,0,.1243897427-.0338106879.1243897427-.1027629437,0-.0716457033-.0351574117-.11085913-.1027470999-.1189711601l-.335302525-.021626799c-.289323792-.0216426428-.4326468861-.131155049-.4326468861-.3298997862v-1.7738252986c0-.4285908711.0838295922-.7584748135.2541822241-.9896676711.1690059082-.2298461338.3745001079-.3461080026.6165142869-.3461080026.2447076265,0,.4434523637.0946350698.5948874879.2812117618.0716457033.0838295922.1297924815.1243897427.1730460794.1243897427.0757175621,0,.1135684213-.0405601504.1135684213-.1243897427v-.6327383471c0-.0459628893-.047309613-.089232331-.140597959-.1297924815Z"/>
        <path class="cls-1" d="M39.4829457399,51.4799886481c-.624626317,0-1.1275721826.2001073048-1.5088375969.6002902267-.382612138.4001987658-.5732448452.9180219678-.5732448452,1.5521070387,0,.6313916233.1852299683,1.1451429666.557020785,1.5412857173.3745159517.3934334594.8815178324.5894689053,1.5196589183.5894689053s1.1424495191-.1946887222,1.5142403357-.5840661665c.3704599367-.3920708919.5570366288-.9098940939.5570366288-1.5520911949,0-.6408503771-.1879392596-1.1586735792-.5624393676-1.5521070386-.3758626755-.3961427507-.8760992498-.5948874879-1.5034348581-.5948874879ZM40.4834347323,54.9952069688c-.2203715362.3001451133-.5624393676.4488709463-1.0275185302.4488709463-.2487794853,0-.4650950065-.0608402257-.6489624073-.1838832446-.1838832446-.1257364664-.3231344799-.289323792-.4164228259-.4921245443-.1730619232-.3853214293-.2595849629-.8301363606-.2595849629-1.3357756737,0-.4867218054.11085913-.8788085411.335302525-1.1789536545.2230808275-.3028544046.5624235238-.4542736851,1.0166972088-.4542736851.2622942542,0,.484028358.0635495169.6651864675.1892859834.1838832446.1230271751.3217877561.2866145007.4164228259.4921245443.1690059082.378556123.2541822241.8166057479.2541822241,1.3141488747s-.1122216975.8977260488-.335302525,1.2005804535Z"/>
        <path class="cls-1" d="M46.9002881914,55.5089741558c-.1514351242,0-.2839210532-.0513814718-.394796027-.156837863-.1081498387-.1081656825-.1622406018-.2501262091-.1622406018-.4272283035v-3.0068697162c0-.0824670246.0108213214-.1514192804.0324481204-.2054941997.0216426428-.0540907632.0324481204-.0865388835.0324481204-.0973443611,0-.089232331-.0540749193-.1352110641-.1622406018-.1352110641h-.0432535979l-1.1465055341.1081656825c-.0757175621.0108213214-.1135684213.0486721805-.1135684213.1135684213,0,.0324481204.0108213214.0594935019.0324481204.0811203009.0243360903.021626799.0513814718.0324481204.0811203009.0324481204h.3623320628c.0973443611,0,.1690059082.0243360903.216331365.0702989795.0459628892.0432694418.0702989795.1189870039.0702989795.2271368425v2.0929037635c0,.3109664347-.1135684213.5881221816-.3407052638.8328456519-.2271368425.2460543502-.5070018807.3677348016-.8382483907.3677348016-.3285372187,0-.5989276592-.0946350698-.8112030091-.2866145007-.2095502148-.1946887222-.3136598822-.4610389914-.3136598822-.8003975315v-2.4011609069c0-.0824670246.0121680451-.1514192804.0378508591-.2054941997.0283921053-.0540907632.0432694417-.0865388835.0432694417-.0973443611,0-.089232331-.0540749193-.1352110641-.1622406018-.1352110641h-.0432694418l-1.0815934496.1081656825c-.0757175621.0108213214-.1135684213.0486721805-.1135684213.1135684213,0,.0324481204.0108054776.0594935019.0324481204.0811203009.0243360903.021626799.051365628.0324481204.0811203009.0324481204h.2812117619c.0973443611,0,.1690059082.0243360903.2163155212.0702989795.0459787331.0432694418.0703148233.1189870039.0703148233.2271368425v2.0766797033c0,.5015991419.140597959.8896298625.4218255647,1.1627295943.2839210532.2744622994.6624771762.4110042433,1.1356842127.4110042433.4759004841,0,.8990727725-.1635873256,1.270879433-.4921245443.0459628892-.0432694418.0824670247-.0648962407.1081656825-.0648962407.0243360903,0,.0486721806.0135147689.0702989795.0378508592.0108213214.0189333515.0229893665.0378667029.0378508592.0594935019.0175866277.021626799.0351574117.0405601505.0540907632.0540749193.2379423201.2704062843.5191699258.4056015045.8436511294.4056015045.2122595061,0,.319062621-.0527281956.319062621-.1568220192,0-.0648962407-.0419068742-.0973443611-.1243738989-.0973443611Z"/>
        <path class="cls-1" d="M49.6902403217,51.4799886481c-.1771179383,0-.3501798615.0297546729-.5191699258.0865388835-.1703526319.0581309344-.2960890983.1135684213-.3785719668.1676433406-.0797577334.0513814719-.1433072503.0959976373-.1892701396.1351952202-.0473254568.0365041354-.0703148233.0216426428-.0703148233-.0432535979v-.156837863c0-.1257364664-.0432535979-.1892859834-.1297924815-.1892859834h-.021626799l-1.0653852332.1352110641c-.0689522558.0108054776-.1027470999.0527281956-.1027470999.1243738988,0,.0689522558.0337948441.1027629437.1027470999.1027629437h.2812276057c.1040938236,0,.1798113857.021626799.2271368425.0648962407.0459628892.0405601505.0702989795.1135684213.0702989795.2217182599v5.4621055425c0,.0973443611-.0365041354.174408647-.1081656825.2325395813-.0730082708.0567842106-.1622406018.0919416223-.2703904405.1027629437l-.2325554251.0162240602c-.0648962407.0026934475-.0973443611.0405601505-.0973443611.1135684213,0,.0716457033.0405601505.1081498387.1243897427.1081498387l.8869205712-.0324481204.7787548887.0324481204c.0784110096,0,.1189711601-.0365041354.1189711601-.1081498387,0-.0730082708-.0324481204-.1108749738-.0973443611-.1135684213l-.1406138028-.0162240602c-.2163155212-.0297546729-.3244812036-.1406138028-.3244812036-.335302525v-2.0983065022c0-.0392134267.0081120301-.0662588083.0270453816-.0811203009.0175707839-.0175866277.0405601505-.0162240602.0702989795.0054027388.309619711.2311928576.6760077888.3461080026,1.0978333536.3461080026.5732448452,0,1.0599666506-.1973821697,1.4601654164-.5948716441.4001987658-.3961427507.6002902267-.9166594003.6002902267-1.56292836,0-.6449063923-.1919794309-1.160020303-.5732448452-1.5466884561-.3785719668-.3853214293-.8869205712-.5786634277-1.5250616571-.5786634277ZM50.6853107316,55.0330578279c-.2568756716.2744622994-.602999518.4110200872-1.0383398516.4110200872-.2785183144,0-.5340472623-.0987069286-.7679335673-.2974516659-.2311928576-.2014381847-.3461238464-.4339936099-.3461238464-.6976345878v-1.6494355559c0-.2339021489.0946509136-.4556362527.2866303445-.6651864675.1946887222-.2122753499.4867218055-.3190784648.8760992498-.3190784648.3920867357,0,.7206239543.182520677.9842649323.5462153074.2622784104.360985339.3947801831.8693339435.3947801831,1.5250616571,0,.4907778205-.1297924815.8733899585-.3893774444,1.1464896903Z"/>
        <path class="cls-1" d="M59.0077307591,54.7951155078c-.0108213214.0040560151-.0648962407.0405601505-.1622406018.1081498387-.0973443611.0648962407-.178464662.1122216975-.2433609027.1406138028-.0622027932.0297388291-.182520677.0784110096-.3623479066.1460165416-.1771020944.0689522557-.44210564.1027470999-.7949789489.1027470999-.620570302,0-1.1383776602-.2758090231-1.5520911948-.8274270693-.4110200871-.5516180462-.6165142869-1.1789378107-.6165142869-1.8819909811,0-.7057466179.1946887222-1.2871034932.5840661665-1.7413771783.3920708919-.4542736851.9207154153-.6814105276,1.5845393152-.6814105276.3636946303,0,.6787170801.1054563912.9464140732.3136598822.2703904405.2055100436.4542736851.492140388.5516180462.8598751897.0283921053.1081656825.0878697634.1622406018.178464662.1622406018.0391975829,0,.0716457033-.0162240602.0973443611-.0486721805.0243360903-.0351415679.0378508592-.0730082708.0378508592-.1135684213v-.9355769079c0-.1189870039-.1879234158-.2406674552-.5624393676-.3677506454-.3758468317-.1257364664-.7922696576-.1892859834-1.249252634-.1892859834-.8869047274,0-1.6007633754.2798650382-2.141575944.8382483907-.5407967248.5556740612-.8112030091,1.2600739554-.8112030091,2.1145305624,0,.8517631595.2650035455,1.5602190687.7949789489,2.1253518838.5299912472.5624393676,1.2195138049.8436511295,2.0712769645.8436511295.4934871118,0,.9166594003-.0946350698,1.270879433-.2866145007.1973980135-.1041096674.3907400119-.2609475305.5786634278-.4704977453.0432694418-.0432694418.0648962407-.0824828685.0648962407-.1189870039,0-.0391975829-.0202800752-.0784110096-.0594935019-.1189711601-.0405601505-.0432694417-.1081498387-.0337948441-.2054941998.0270453816Z"/>
        <path class="cls-1" d="M62.172800906,51.4799886481c-.624626317,0-1.1275721826.2001073048-1.5088375969.6002902267-.382612138.4001987658-.5732448451.9180219678-.5732448451,1.5521070387,0,.6313916233.1852141245,1.1451429666.557020785,1.5412857173.3745001079.3934334594.8815019886.5894689053,1.5196589183.5894689053.6381410859,0,1.1424336753-.1946887222,1.5142403357-.5840661665.3704440929-.3920708919.557020785-.9098940939.557020785-1.5520911949,0-.6408503771-.1879234158-1.1586735792-.5624235238-1.5521070386-.3758626755-.3961427507-.8760992498-.5948874879-1.5034348581-.5948874879ZM63.1732898984,54.9952069688c-.22038738.3001451133-.5624393676.4488709463-1.0275343741.4488709463-.2487636415,0-.4650791627-.0608402257-.6489624073-.1838832446-.1838674008-.1257364664-.3231186361-.289323792-.4164069821-.4921245443-.1730619232-.3853214293-.2595849629-.8301363606-.2595849629-1.3357756737,0-.4867218054.11085913-.8788085411.3352866812-1.1789536545.2230808275-.3028544046.5624393676-.4542736851,1.0167130527-.4542736851.2622942542,0,.4840125141.0635495169.6651864674.1892859834.1838674008.1230271751.3217719123.2866145007.4164228259.4921245443.1689900644.378556123.2541663803.8166057479.2541663803,1.3141488747s-.1122058537.8977260488-.3352866812,1.2005804535Z"/>
        <path class="cls-1" d="M71.8560932003,55.4819287742l-.2217182599-.0162240602c-.1122216975-.0108213214-.2082193349-.0446161655-.2866303445-.1027470999-.0797735772-.0567842106-.1189711601-.1352110641-.1189711601-.2325554251v-2.1145305624c0-.4975431269-.1176244363-.8774459736-.3515265852-1.1410869515-.2352488726-.2622942542-.5624393676-.394796027-.9842649323-.394796027-.5015832981,0-.9193528478.2271368425-1.2546553728.6814105276-.021626799.0405601505-.0419068742.0594935019-.0594935019.0594935019-.0148614926,0-.0297388291-.0162240602-.0432535979-.0486721806-.1162777126-.2487636415-.2690595606-.424534856-.4596922677-.5299912472-.1879234158-.1081498387-.4299375948-.1622406018-.7246641256-.1622406018-.3934493032,0-.755781366.1811739533-1.0870120322.5408125686-.0324481204.0324481204-.0594935019.0486721805-.0811203009.0486721805-.0189333515,0-.0270453816-.0121680451-.0270453816-.037866703v-.3623320628c0-.1257364664-.0432694418-.1892859834-.1297924815-.1892859834h-.0162240602l-1.0653852332.1352110641c-.0730082708.0108054776-.1081498387.0527281956-.1081498387.1243738988,0,.0689522558.0351415679.1027629437.1081498387.1027629437h.2758090231c.1041096674,0,.1798272296.021626799.2271368425.0648962407.0459628892.0405601505.0703148233.1135684213.0703148233.2217182599v3.0014511337c0,.0973443611-.0365041354.1757712145-.1081656825.2325554251-.0730082708.0581309344-.1622406018.0919257785-.2704062843.1027470999l-.2271368425.0162240602c-.0689522558.0081120301-.1027470999.0473254568-.1027470999.1189711601,0,.0689522558.0405601505.1027629437.1243897427.1027629437l.8869047274-.0324481204.7787548887.0324481204c.0824670247,0,.1243897427-.0338106879.1243897427-.1027629437,0-.0716457033-.0351574117-.11085913-.1027470999-.1189711601l-.1352110641-.0162240602c-.2203715362-.0243360903-.3298839424-.1365577878-.3298839424-.335302525v-2.0442315829c0-.2920330833.1054563912-.5651328151.3190784648-.8220084867.2122595061-.2595849629.4502018262-.3893774444.713858648-.3893774444.5800101515,0,.8706806672.3433987113.8706806672,1.0275185302v2.2280989837c0,.1987447372-.1000536524.3109664347-.2974358221.335302525l-.1243897427.0162240602c-.0648962407.0108213214-.0973443611.0513814719-.0973443611.1189711601,0,.0689522558.0405601505.1027629437.1243897427.1027629437l.7192613868-.0324481204.7246799694.0324481204c.067605532,0,.1027470999-.0338106879.1027470999-.1027629437,0-.0716457033-.0297388291-.11085913-.0865230397-.1189711601l-.1406138028-.0162240602c-.1919794309-.021626799-.2866145007-.1379045115-.2866145007-.3515265852v-2.0280075227c0-.2771557469.1000378086-.5475620311.3028385609-.8112030091.2014540285-.2663344254.4394121925-.4001829219.713858648-.4001829219.5840661665,0,.8760992498.3433987113.8760992498,1.0275185302v2.2280989837c0,.1919952747-.1014003761.3028544046-.3028385609.335302525l-.1081656825.0162240602c-.0648962407.0081120301-.0973443611.0473254568-.0973443611.1189711601,0,.0689522558.0405601505.1027629437.1243897427.1027629437l.7463067684-.0324481204.8760992498.0324481204c.0824670247,0,.1243738989-.0338106879.1243738989-.1027629437,0-.0716457033-.0324481204-.11085913-.0973443611-.1189711601Z"/>
        <path class="cls-1" d="M79.2417797219,55.4819287742l-.2217341038-.0162240602c-.1122216975-.0108213214-.2082034911-.0446161655-.2866303445-.1027470999-.0797577334-.0567842106-.1189711601-.1352110641-.1189711601-.2325554251v-2.1145305624c0-.4975431269-.1176244363-.8774459736-.3515265852-1.1410869515-.2352488726-.2622942542-.5624235238-.394796027-.9842490885-.394796027-.5015991419,0-.9193686916.2271368425-1.2546712166.6814105276-.021626799.0405601505-.0419068742.0594935019-.0594776581.0594935019-.0148773364,0-.0297546729-.0162240602-.0432694418-.0486721806-.1162777126-.2487636415-.2690437167-.424534856-.4596764239-.5299912472-.1879392596-.1081498387-.4299375948-.1622406018-.7246799694-.1622406018-.3934334594,0-.7557655222.1811739533-1.0870120322.5408125686-.0324481204.0324481204-.0594935019.0486721805-.0811203009.0486721805-.0189333515,0-.0270453816-.0121680451-.0270453816-.037866703v-.3623320628c0-.1257364664-.0432535979-.1892859834-.1297924815-.1892859834h-.0162240602l-1.0653693894.1352110641c-.0730082708.0108054776-.1081656825.0527281956-.1081656825.1243738988,0,.0689522558.0351574117.1027629437.1081656825.1027629437h.2758090231c.1040938236,0,.1798113857.021626799.2271368425.0648962407.0459628892.0405601505.0702989795.1135684213.0702989795.2217182599v3.0014511337c0,.0973443611-.0365041354.1757712145-.1081656825.2325554251-.0730082708.0581309344-.1622406018.0919257785-.2703904405.1027470999l-.2271368425.0162240602c-.0689522558.0081120301-.1027629437.0473254568-.1027629437.1189711601,0,.0689522558.0405601505.1027629437.1243897427.1027629437l.8869205712-.0324481204.7787548887.0324481204c.0824670247,0,.1243738989-.0338106879.1243738989-.1027629437,0-.0716457033-.0351415679-.11085913-.1027470999-.1189711601l-.1351952202-.0162240602c-.22038738-.0243360903-.3298997862-.1365577878-.3298997862-.335302525v-2.0442315829c0-.2920330833.1054563912-.5651328151.3190784648-.8220084867.2122595061-.2595849629.45021767-.3893774444.713858648-.3893774444.5800101515,0,.870696511.3433987113.870696511,1.0275185302v2.2280989837c0,.1987447372-.1000536524.3109664347-.2974516659.335302525l-.1243738989.0162240602c-.0648962407.0108213214-.0973443611.0513814719-.0973443611.1189711601,0,.0689522558.0405601505.1027629437.1243738989.1027629437l.7192772306-.0324481204.7246641256.0324481204c.067605532,0,.1027629437-.0338106879.1027629437-.1027629437,0-.0716457033-.0297546729-.11085913-.0865388835-.1189711601l-.140597959-.0162240602c-.1919952747-.021626799-.2866303445-.1379045115-.2866303445-.3515265852v-2.0280075227c0-.2771557469.1000536524-.5475620311.3028544047-.8112030091.2014381847-.2663344254.4393963486-.4001829219.713858648-.4001829219.5840661665,0,.8760992498.3433987113.8760992498,1.0275185302v2.2280989837c0,.1919952747-.1014003761.3028544046-.3028544047.335302525l-.1081656825.0162240602c-.0648962407.0081120301-.0973443611.0473254568-.0973443611.1189711601,0,.0689522558.0405601505.1027629437.1243897427.1027629437l.7463067684-.0324481204.8760992498.0324481204c.0824670247,0,.1243897427-.0338106879.1243897427-.1027629437,0-.0716457033-.0324481204-.11085913-.0973443611-.1189711601Z"/>
        <path class="cls-1" d="M84.3615005568,55.5089741558c-.1514351242,0-.2839210532-.0513814718-.394796027-.156837863-.1081498387-.1081656825-.1622406018-.2501262091-.1622406018-.4272283035v-3.0068697162c0-.0824670246.0108213214-.1514192804.0324481204-.2054941997.0216426428-.0540907632.0324481204-.0865388835.0324481204-.0973443611,0-.089232331-.0540749193-.1352110641-.1622406018-.1352110641h-.0432535979l-1.1465055341.1081656825c-.0757175621.0108213214-.1135684213.0486721805-.1135684213.1135684213,0,.0324481204.0108213214.0594935019.0324481204.0811203009.0243360903.021626799.0513814718.0324481204.0811203009.0324481204h.3623320628c.0973443611,0,.1690059082.0243360903.216331365.0702989795.0459628892.0432694418.0702989795.1189870039.0702989795.2271368425v2.0929037635c0,.3109664347-.1135684213.5881221816-.3407052638.8328456519-.2271368425.2460543502-.5070018807.3677348016-.8382483907.3677348016-.3285372187,0-.598943503-.0946350698-.8112030091-.2866145007-.2095660586-.1946887222-.3136598822-.4610389914-.3136598822-.8003975315v-2.4011609069c0-.0824670246.0121680451-.1514192804.0378508592-.2054941997.0283921053-.0540907632.0432694418-.0865388835.0432694418-.0973443611,0-.089232331-.0540749193-.1352110641-.1622406018-.1352110641h-.0432694418l-1.0815934496.1081656825c-.0757175621.0108213214-.1135684213.0486721805-.1135684213.1135684213,0,.0324481204.0108054776.0594935019.0324481204.0811203009.0243360903.021626799.051365628.0324481204.0811203009.0324481204h.2812117619c.0973443611,0,.1689900644.0243360903.2163155212.0702989795.0459628892.0432694418.0703148233.1189870039.0703148233.2271368425v2.0766797033c0,.5015991419.140597959.8896298625.4218255647,1.1627295943.2839210532.2744622994.6624771762.4110042433,1.1356842127.4110042433.4759004841,0,.8990727725-.1635873256,1.270879433-.4921245443.0459628892-.0432694418.0824670247-.0648962407.1081656825-.0648962407.0243202465,0,.0486721805.0135147689.0702989795.0378508592.0108213214.0189333515.0229893665.0378667029.0378508592.0594935019.0175866277.021626799.0351574117.0405601505.0540907632.0540749193.2379423201.2704062843.5191699258.4056015045.8436511294.4056015045.2122595061,0,.319062621-.0527281956.319062621-.1568220192,0-.0648962407-.0419068742-.0973443611-.1243738989-.0973443611Z"/>
        <path class="cls-1" d="M89.6337180511,55.4819287742l-.22171826-.0162240602c-.1081656825-.0108213214-.2028165961-.0446161655-.2812276057-.1027470999-.0797577334-.0567842106-.1189711601-.1352110641-.1189711601-.2325554251v-2.0766797033c0-.5083486044-.1379045115-.8977260488-.4110042433-1.1681323331-.2744622993-.2703904405-.6678957588-.4056015045-1.1789536545-.4056015045-.5083486044,0-.9220621391.2001073048-1.2384313126.6002902267-.0324481204.0324481204-.0594935019.0486721805-.0811203009.0486721805-.0189333515,0-.0270453816-.0121680451-.0270453816-.0378508592v-.4218255647c0-.1257364664-.0432694418-.1892859834-.1297924815-.1892859834h-.0162240602l-1.0653852332.1352110641c-.0730082708.0108054776-.1081498387.0527281956-.1081498387.1243738988,0,.0689522558.0351415679.1027629437.1081498387.1027629437h.2758090231c.1041096674,0,.1798272296.021626799.2271368425.0648962407.0459628892.0405601505.0703148233.1135684213.0703148233.2217182599v3.0014511337c0,.0973443611-.0365041354.1757712145-.1081656825.2325554251-.0730082708.0581309344-.1622406018.0919257785-.2704062843.1027470999l-.2271368425.0162240602c-.0689522558.0081120301-.1027470999.0473254568-.1027470999.1189711601,0,.0689522558.0405601505.1027629437.1243897427.1027629437l.8869047274-.0324481204.7787548887.0324481204c.0824670247,0,.1243897427-.0338106879.1243897427-.1027629437,0-.0716457033-.0351574117-.11085913-.1027470999-.1189711601l-.1352110641-.0162240602c-.2203715362-.0243360903-.3298839424-.1365577878-.3298839424-.335302525v-2.0280075227c0-.2663344255.1189711601-.5367407097.356929324-.8112030091.2379581639-.2771557468.5245726646-.4164069821.8598751896-.4164069821s.5975809354.0946350698.7895762101.2812117619c.1906327071.1838674008.2866145007.446161655.2866145007.7841576275v2.1902481246c0,.1919952747-.1014003761.3028544046-.3028385609.335302525l-.1027629437.0162240602c-.0689522558.0081120301-.1027470999.0473254568-.1027470999.1189711601,0,.0689522558.0405601505.1027629437.1243897427.1027629437l.7463067684-.0324481204.8760992498.0324481204c.0824670247,0,.1243738989-.0338106879.1243738989-.1027629437,0-.0716457033-.0324481204-.11085913-.0973443611-.1189711601Z"/>
        <path class="cls-1" d="M91.7865430994,55.4819287742l-.1352110641-.0162240602c-.2203715362-.0243360903-.3298839424-.1365577878-.3298839424-.335302525v-3.4611275575c0-.1365577878-.0486721805-.200091461-.1460165416-.1892859834l-1.0653852332.1352110641c-.0730082708.0108054776-.1081498387.0527281956-.1081498387.1243738988,0,.0689522558.0351415679.1027629437.1081498387.1027629437h.2758090231c.1041096674,0,.1798272296.021626799.2271368425.0648962407.0459628892.0405601505.0703148233.1135684213.0703148233.2217182599v3.0014511337c0,.0973443611-.0365041354.1757712145-.1081656825.2325554251-.0730082708.0581309344-.1622406018.0919257785-.2704062843.1027470999l-.2271368425.0162240602c-.0689522558.0081120301-.1027470999.0473254568-.1027470999.1189711601,0,.0689522558.0405601505.1027629437.1243897427.1027629437l.8869047274-.0324481204.7787548887.0324481204c.0824670247,0,.1243897427-.0338106879.1243897427-.1027629437,0-.0716457033-.0351574117-.11085913-.1027470999-.1189711601Z"/>
        <path class="cls-1" d="M90.9266679097,50.349723018c.1081498387,0,.200091461-.0338106879.2758090231-.1027629437.0784110096-.0716457033.1189711601-.1622406018.1189711601-.2703904405,0-.1108749738-.0405601505-.2014540285-.1189711601-.2704062843-.0757175621-.071661547-.1676591844-.1081656825-.2758090231-.1081656825-.1081656825,0-.2001073048.0365041354-.2758090231.1081656825-.0730082708.0689522558-.1081656825.1595313105-.1081656825.2704062843,0,.1081498387.0351574117.1987447372.1081656825.2703904405.0757017183.0689522558.1676433406.1027629437.2758090231.1027629437Z"/>
        <path class="cls-1" d="M95.9427860791,55.0547004707c-.0324481204,0-.067605532.0148614926-.1027470999.0432535979-.2595849629.1622406018-.5935249204.2433609027-1.0004889925.2433609027-.4042547808,0-.7611841048-.1541285717-1.070787972-.4650791627-.310950591-.309619711-.4650791627-.7801174563-.4650791627-1.4114932358,0-.5002524181.1270831902-.9031446314.3839588618-1.2059990361.2595849629-.3055478521.5921781966-.4596764239,1.0004889925-.4596764239.2839210532,0,.5191699258.089232331.7030373266.2649877017.1865766921.1730619232.3217719123.4110200871.4056015045.713858648.0216426428.0946509136.0648962407.1406138028.1297924814.1406138028.0784110096,0,.1189870039-.0459628893.1189870039-.1406138028v-.713858648c0-.140597959-.1352110641-.271753008-.4056015045-.3947801831-.267696993-.1257364664-.6002902267-.1892859834-1.0004889925-.1892859834-.577316704,0-1.0640385095.2041633198-1.4601654164.6111115481-.3974894744.4083107959-.5948874879.89232331-.5948874879,1.4547626776,0,.717914663.1973980135,1.2681701417.5948874879,1.649435556.3961269069.3785719668.8896140187.5678421064,1.4817922153.5678421064.5948874879,0,1.0410491429-.1514192804,1.3411942563-.4542736851.0432694418-.0432535979.0648962407-.0838137484.0648962407-.1243738988,0-.0432694418-.0135147689-.0757175621-.0378508592-.0973443611-.0256986578-.0216426428-.0540907631-.0324481204-.0865388835-.0324481204Z"/>
        <path class="cls-1" d="M100.4680630527,55.525198216c-.1514192804,0-.2839210532-.0540907632-.3947801832-.1622406018-.1122216975-.1108749738-.1676591844-.2541822241-.1676591844-.4272441473v-2.1902481245c0-.3704440929-.11085913-.6732984976-.3298839424-.9085473702-.2203715362-.2379423201-.6002902267-.356929324-1.1410869515-.356929324-.5408125686,0-.955872827.1122216975-1.2438498952.335302525-.0622027932.0473254568-.0919416223.1162777126-.0919416223.2055100436v.6165142869c0,.0838137484.0351574117.1243738989.1081656825.1243738989.0757175621,0,.1216804514-.0405601505.1406138028-.1243738989.0540749193-.2731155756.1798113857-.4867218054.378556123-.6381569297.2014381847-.1541285717.424534856-.2325395813.6705892062-.2325395813.2487794853,0,.4488709463.067605532.6002902267.200091461.1514351242.1297924814.2271368425.3069104197.2271368425.5299912472v.7571280898c0,.0689522558-.0365041354.1068031149-.1081498387.1135684213-.0540907631.0108054776-.156837863.0310855528-.3082571435.0594776581-.6422129447.0973443611-1.11271069.2325554251-1.4114932358.4056015046-.3393585401.2055100436-.5083644482.5015991419-.5083644482.8869205712,0,.3069104197.1162777126.557020785.3515265852.7517095072.2339021489.1946887222.5083486044.2920330833.8220243305.2920330833.4393963487,0,.8382325469-.136541944,1.1951618709-.4110042433.0392134267-.0324481204.067605532-.0486721805.0865388835-.0486721805.0175707839,0,.0459628892.0189333515.0865230397.0540749193.2339021489.2704062843.5205166496.4056015045.8598751896.4056015045.1973980135,0,.2974358221-.0459628893.2974358221-.1351952202,0-.067605532-.0405601505-.1027470999-.1189711601-.1027470999ZM99.2079890973,54.8654144873c0,.0365041354-.0324481204.0905790547-.0973443611.1622406018-.0621869494.0689522558-.1622406018.1392512353-.3028385609.2109127824-.1379045116.0689522558-.2974516659.1027470999-.4813190667.1027470999s-.3501798615-.0621869494-.4975431268-.1892701396c-.1487258329-.1297924814-.2217182599-.305563696-.2217182599-.5299912472,0-.4786097753.489415253-.7801016125,1.4709708939-.9031446314h.0216426428c.0716457033,0,.1081498387.041922718.1081498387.1243897427v1.0221157915Z"/>
        <path class="cls-1" d="M103.5373573755,55.189895691l-.2649877017.0973443611c-.1730619232.0648962407-.3501640176.0973443611-.5299912472.0973443611-.4001829219,0-.6002902267-.2568756716-.6002902267-.77335215v-2.5417588659c0-.0567842106.0216426428-.0865388835.0648962407-.0865388835h1.2438498952c.0567842106,0,.0919416223-.0324481204.1027470999-.0973443611l.0216426428-.2163155211c.0175707839-.0648962407-.0108213214-.0973443611-.0865388835-.0973443611h-1.2222072524c-.0689522558,0-.11085913-.0351574117-.1243897427-.1081656825l-.2703904405-1.1519082729c-.0297546729-.0824670247-.0811203009-.1243738989-.156837863-.1243738989-.0973443611,0-.1500725567.0527281956-.156837863.1568220192l-.0702989795,1.1356842127c0,.0622027932-.025682814.0919416223-.0757175621.0919416223h-.4921245442c-.0540749193,0-.0865230397.0324481204-.0973443611.0973443611l-.0270453816.2163155211c-.004056015.0256986578.0054185826.0486721806.0270453816.0703148233.021626799.0189175077.0446161655.0270295378.0702989795.0270295378h.5029458656c.0716615471,0,.1081656825.0297546729.1081656825.0865388835v2.460638565c0,.4434682075.0838295922.7611841048.2541822241.9518168119.1730460794.1879234158.4596764239.2812117619.8598751896.2812117619.2230808275,0,.4447990874-.0554216431.6651864675-.1622406018.2230808275-.11085913.3352866812-.2190248124.3352866812-.3244812036,0-.0567842106-.0270295378-.0865230397-.0811203009-.0865230397Z"/>
        <path class="cls-1" d="M104.7389518327,50.349723018c.1081498387,0,.200091461-.0338106879.2758090231-.1027629437.0784110096-.0716457033.1189711601-.1622406018.1189711601-.2703904405,0-.1108749738-.0405601505-.2014540285-.1189711601-.2704062843-.0757175621-.071661547-.1676591844-.1081656825-.2758090231-.1081656825-.1081656825,0-.2001073048.0365041354-.2758090231.1081656825-.0730082708.0689522558-.1081656825.1595313105-.1081656825.2704062843,0,.1081498387.0351574117.1987447372.1081656825.2703904405.0757017183.0689522558.1676433406.1027629437.2758090231.1027629437Z"/>
        <path class="cls-1" d="M105.5988270224,55.4819287742l-.1352110641-.0162240602c-.2203715362-.0243360903-.3298839424-.1365577878-.3298839424-.335302525v-3.4611275575c0-.1365577878-.0486721805-.200091461-.1460165416-.1892859834l-1.0653852332.1352110641c-.0730082708.0108054776-.1081498387.0527281956-.1081498387.1243738988,0,.0689522558.0351415679.1027629437.1081498387.1027629437h.2758090231c.1041096674,0,.1798272296.021626799.2271368425.0648962407.0459628892.0405601505.0703148233.1135684213.0703148233.2217182599v3.0014511337c0,.0973443611-.0365041354.1757712145-.1081656825.2325554251-.0730082708.0581309344-.1622406018.0919257785-.2704062843.1027470999l-.2271368425.0162240602c-.0689522558.0081120301-.1027470999.0473254568-.1027470999.1189711601,0,.0689522558.0405601505.1027629437.1243897427.1027629437l.8869047274-.0324481204.7787548887.0324481204c.0824670246,0,.1243897427-.0338106879.1243897427-.1027629437,0-.0716457033-.0351574117-.11085913-.1027470999-.1189711601Z"/>
        <path class="cls-1" d="M108.4787878303,51.4799886481c-.624626317,0-1.1275880264.2001073048-1.5088375969.6002902267-.3826279818.4001987658-.573260689.9180219678-.573260689,1.5521070387,0,.6313916233.1852299683,1.1451429666.5570366288,1.5412857173.3745001079.3934334594.8815019886.5894689053,1.5196430745.5894689053.6381569297,0,1.1424495191-.1946887222,1.5142561795-.5840661665.3704440929-.3920708919.557020785-.9098940939.557020785-1.5520911949,0-.6408503771-.1879234158-1.1586735792-.5624393676-1.5521070386-.3758468317-.3961427507-.8760992498-.5948874879-1.5034190143-.5948874879ZM109.479260979,54.9952069688c-.2203715362.3001451133-.5624235238.4488709463-1.0275185302.4488709463-.2487636415,0-.4650950065-.0608402257-.6489624073-.1838832446-.1838674008-.1257364664-.3231344799-.289323792-.4164228259-.4921245443-.1730460794-.3853214293-.2595849629-.8301363606-.2595849629-1.3357756737,0-.4867218054.1108749738-.8788085411.335302525-1.1789536545.2230808275-.3028544046.5624393676-.4542736851,1.0167130527-.4542736851.2622784104,0,.4840125142.0635495169.6651864675.1892859834.1838674008.1230271751.3217719123.2866145007.4164069821.4921245443.1690059082.378556123.2541822241.8166057479.2541822241,1.3141488747s-.1122216975.8977260488-.335302525,1.2005804535Z"/>
        <path class="cls-1" d="M116.0205041807,55.4819287742l-.2217182599-.0162240602c-.1081656825-.0108213214-.2028165961-.0446161655-.2812276057-.1027470999-.0797577334-.0567842106-.1189711601-.1352110641-.1189711601-.2325554251v-2.0766797033c0-.5083486044-.1379045115-.8977260488-.4110042433-1.1681323331-.2744622993-.2703904405-.6678957588-.4056015045-1.1789536545-.4056015045-.5083486044,0-.9220621391.2001073048-1.2384313126.6002902267-.0324481204.0324481204-.0594935019.0486721805-.0811203009.0486721805-.0189333515,0-.0270453816-.0121680451-.0270453816-.0378508592v-.4218255647c0-.1257364664-.0432694418-.1892859834-.1297924815-.1892859834h-.0162240602l-1.0653852332.1352110641c-.0730082708.0108054776-.1081498387.0527281956-.1081498387.1243738988,0,.0689522558.0351415678.1027629437.1081498387.1027629437h.2758090231c.1041096674,0,.1798272296.021626799.2271368425.0648962407.0459628892.0405601505.0703148233.1135684213.0703148233.2217182599v3.0014511337c0,.0973443611-.0365041354.1757712145-.1081656825.2325554251-.0730082708.0581309344-.1622406018.0919257785-.2704062843.1027470999l-.2271368425.0162240602c-.0689522558.0081120301-.1027470999.0473254568-.1027470999.1189711601,0,.0689522558.0405601505.1027629437.1243897427.1027629437l.8869047274-.0324481204.7787548887.0324481204c.0824670247,0,.1243897427-.0338106879.1243897427-.1027629437,0-.0716457033-.0351574117-.11085913-.1027470999-.1189711601l-.1352110641-.0162240602c-.2203715362-.0243360903-.3298839424-.1365577878-.3298839424-.335302525v-2.0280075227c0-.2663344255.1189711601-.5367407097.356929324-.8112030091.2379581639-.2771557468.5245726646-.4164069821.8598751896-.4164069821s.5975809354.0946350698.7895762101.2812117619c.1906327071.1838674008.2866145007.446161655.2866145007.7841576275v2.1902481246c0,.1919952747-.1014003761.3028544046-.3028385609.335302525l-.1027629437.0162240602c-.0689522558.0081120301-.1027470999.0473254568-.1027470999.1189711601,0,.0689522558.0405601505.1027629437.1243897427.1027629437l.7463067684-.0324481204.8760992498.0324481204c.0824670247,0,.1243738989-.0338106879.1243738989-.1027629437,0-.0716457033-.0324481204-.11085913-.0973443611-.1189711601Z"/>
        <path class="cls-1" d="M119.2278931407,53.9784939161c-.1514192804-.1838674008-.3339399575-.3312306662-.5462153074-.4434523637-.2136062298-.11085913-.4272283035-.2176780887-.6435438247-.3190784648-.216331365-.1000378086-.4001987658-.2190248125-.5516180462-.356929324-.1487258329-.136541944-.2217341038-.293379807-.2217341038-.4704977453,0-.1757553707.0730082708-.319062621.2217341038-.4272283035.1473632654-.1081656825.3271746511-.1622406018.5407967248-.1622406018.467788454,0,.7760455974.2541822241.9247714304.7625308285.021626799.1014003761.0702989795.1514192804.1460165416.1514192804.0784110096,0,.1189711601-.0500189043.1189711601-.1514192804v-.6273356083c0-.11085913-.1176244363-.2136062299-.3515107414-.3082571435-.2352488726-.0973443611-.4948338355-.1460165416-.7787548887-.1460165416-.4299375948,0-.7720054262.1108749738-1.0275343741.3298997862-.2568756716.2203715362-.3839588618.4961805593-.3839588618.8274270692,0,.2244275513.0730082708.4218255647.2217182599.5948716441.1473791092.1730619232.3258437712.313675726.535393986.4218255647.2122753499.1081656825.4231881323.2136220737.6327383471.313675726.2082193349.0973443611.3866839969.2136062299.535393986.3461080026.1473791092.1338484965.2217341038.2947423746.2217341038.4813190666,0,.1838674008-.0797735772.3393426963-.2379581639.4650791627-.1595313105.1230430189-.360985339.1838832446-.6056929655.1838832446-.5407967248,0-.896379325-.2825743294-1.0653852332-.849069712-.0297388291-.0973443611-.0811203009-.1460165416-.1568220192-.1460165416-.0730082708,0-.1081656825.0486721805-.1081656825.1460165416v.713858648c0,.1162777126.1311392052.22038738.3947801832.3136757261.2622942542.093288346.5921781966.140597959.9896676711.140597959.3961427507,0,.7314452757-.1040938236,1.0058917313-.3136598822.2771715906-.2122595061.4164228259-.4921245442.4164228259-.8382483907,0-.2379423201-.0757175621-.4488551025-.2271368425-.6327383471Z"/>
      </g>
      <g>
        <path class="cls-1" d="M23.0710255175,64.6750928442h.6489624073v.4164228259c-.1662966169.1162777126-.3677348016.1730619232-.6056929655.1730619232-.1297924815,0-.2487636415-.0216426428-.356929324-.0648962407-.1081656825-.0459787331-.2028007523-.1108749738-.2812117619-.1946887222-.0797735772-.0865388835-.1406138028-.1852299684-.1838832446-.2974516659-.0432535979-.11085913-.0648962407-.2338863051-.0648962407-.3677348016v-.0108213214c0-.1216804514.0216426428-.2379581639.0648962407-.3461080026.0432694418-.1108749738.1027629437-.2082193349.178464662-.2920330833.0784268534-.0824828684.1690059082-.1473791092.2704062843-.1946887222.1000536524-.0500347481.2082034911-.0757175621.3244812036-.0757175621.0865230397,0,.1635873256.0081120301.2325395813.021626799.067605532.0148773364.131155049.0351574117.1892859834.0594935019.0608402257.025682814.1189711601.0567842106.1730619232.0919416223.0567842106.0365041354.114915145.0784110096.1730460794.1243738989l.4056015045-.4921245443c-.0757017183-.0608402257-.1554752955-.1162777126-.2379423201-.1676433406-.0797735772-.0500347481-.1662966169-.0919416223-.2595849629-.1243897427-.0905948986-.0351574117-.1892859834-.0621869494-.2974516659-.0811203009-.1054563912-.0175707839-.2244275512-.0270453816-.356929324-.0270453816-.2244275512,0-.4299375948.0405601505-.6165142869.1189870039-.1838674008.0797577334-.3447612789.1892701396-.4813032229.3298839424-.1379045115.1379045115-.2433609027.2974358221-.3190784648.4813190667-.0757175621.1811581095-.1135684213.3758468317-.1135684213.5840661665v.0054027388c0,.2203715362.0378508592.4218255647.1135684213.6056929655.0757175621.1811739533.1798113857.3393585401.3136598822.4759163279.1325017728.1338484965.2933956508.2379423201.4813190667.3136598822.1906327071.0716615471.4001987658.1081656825.6273356083.1081656825.2663344254,0,.5029458656-.0459787331.7084400654-.135211064.2082193349-.089232331.3893774444-.1973821697.5408125686-.3244812036v-1.270879433h-1.2708952768v.557020785Z"/>
        <polygon class="cls-1" points="26.2304394246 62.8796407467 25.5868797561 62.8796407467 25.5868797561 65.7999715794 27.6852021021 65.7999715794 27.6852021021 65.2159054128 26.2304394246 65.2159054128 26.2304394246 62.8796407467"/>
        <path class="cls-1" d="M31.1674969882,63.269018191c-.1379045115-.1365577878-.3015076809-.2447234703-.4921245442-.3244812036-.1879392596-.0784268534-.3934493032-.1189870039-.6165142869-.1189870039-.2271368425,0-.4367029012.0405601505-.6273356083.1189870039-.1879234158.0797577334-.3515265852.1892701396-.4921245442.3298839424-.1379203554.1379045115-.246070194.2974358221-.3244812036.4813190667-.0757175621.1811581095-.1135684213.3758468317-.1135684213.5840661665v.0054027388c0,.2095660586.0378508592.4056015045.1135684213.5894689053.0757017183.1811739533.1811581095.3393585401.319062621.4759163279.1406138028.1338484965.3042011284.2406516114.4921403881.319062621.1906327071.0784268534.3974894744.1189870039.6219170257.1189870039.2271368425,0,.4353403336-.0405601504.6273356083-.1189870039.1906168633-.0784110096.3542200327-.1865766921.4921245442-.3244812036.1365577878-.136541944.2433609027-.2947265308.3190784648-.475900484.0784110096-.1838674008.1189711601-.3799186905.1189711601-.5894689053v-.0108213214c0-.2082034911-.0378508591-.4028922132-.1135684213-.5840661665-.0757175621-.1838674008-.1838674008-.3420519876-.3244812036-.4759004841ZM30.9349574068,64.3452089018c0,.1270831901-.0216426428.246070194-.0648962407.356929324-.0432694417.1081656825-.1027629437.204147476-.178464662.2866303445-.0757175621.0838137484-.1703684757.1500725567-.2812276057.200091461-.1081498387.0473254568-.2257901188.0702989795-.3515107414.0702989795-.1297924815,0-.2487794853-.0229735227-.356929324-.0702989795-.1081656825-.0500189043-.2028007523-.1162777126-.2812276057-.200091461-.0797577334-.0865388835-.140597959-.1838832446-.1838674008-.2920330833-.0432694418-.1108749738-.0648962407-.2298461338-.0648962407-.356929324v-.0108213214c0-.1216804514.021626799-.2379581639.0648962407-.3461080026.0432694418-.1108749738.1027470999-.2082193349.178464662-.2920330833.0784110096-.0865388835.1703526319-.152781848.2758090231-.2001073048.1081656825-.0459628892.2271368425-.0702989795.356929324-.0702989795s.2487636415.025682814.356929324.0757175621c.1081656825.047309613.2014381847.1122058537.2812117619.1946887222.0784268534.0838137484.1406138028.1811581095.1838832446.2920330833.0432535979.1122058537.0648962407.2311928576.0648962407.356929324v.0054027388Z"/>
        <path class="cls-1" d="M34.7431277517,64.2694913397c.0540749193-.0243360903.1027470999-.0567842106.1460165416-.0973443611.0459628892-.0391975829.0878856073-.0838137484.1243897427-.1351952202.0351415678-.0500189043.0621869494-.1081656825.0811203009-.1730619232.021626799-.0648962407.0324481204-.1379045116.0324481204-.22171826v-.0108213214c0-.1946887222-.067605532-.3596386153-.2001073048-.4975431268-.1730460794-.1689900644-.4272283035-.2541663803-.7625308285-.2541663803h-1.3574024727v2.9203308327h1.389850593c.1622406018,0,.309619711-.0162240602.4434682075-.0486721806.136541944-.0351574117.2541663803-.0865388835.3515107414-.1514351242.0973443611-.0675896882.1703526319-.1514192804.2217341038-.2487636415.0500189043-.1000536524.0757175621-.2176780887.0757175621-.3515265852v-.0108054776c0-.1946887222-.0486721805-.3461238464-.1460165416-.4542736851-.0973443611-.1108749738-.2311928576-.2001073048-.4001987658-.2650035455ZM33.4343816157,63.4420642704h.6327383471c.1365577878,0,.2406674552.0256986578.3136757261.0757175621.0716457033.0513814719.1081498387.1243897427.1081498387.2217341038v.0108054776c0,.1081656825-.0419068742.1879392596-.1243738989.2379581639-.0838295922.0473254568-.1973980135.0702989795-.3407052638.0702989795h-.5894847491v-.6165142869ZM34.6511861294,64.918453747c0,.1081656825-.0419068742.1892859834-.1243738989.2433609027-.0797735772.0513814719-.1892859834.0757175621-.3298997862.0757175621h-.7625308285v-.6435596685h.7409040296c.1649498931,0,.2866303445.0297546729.3623320628.0865388835.0757175621.0581309344.1135684213.1351952203.1135684213.2325395814v.0054027388Z"/>
        <path class="cls-1" d="M37.4489492574,62.8579981039l-1.249252634,2.9419734755h.6543651461l.2649877017-.6543809899h1.2384471564l.2649877017.6543809899h.6705892062l-1.249252634-2.9419734755h-.5948716441ZM37.3516048963,64.5777484831l.3839588618-.9463982293.3893774444.9463982293h-.7733363061Z"/>
        <polygon class="cls-1" points="41.0173869317 62.8796407467 40.3738272633 62.8796407467 40.3738272633 65.7999715794 42.4721337655 65.7999715794 42.4721337655 65.2159054128 41.0173869317 65.2159054128 41.0173869317 62.8796407467"/>
        <path class="cls-1" d="M47.3354542431,64.3560302232c-.0797735772-.067605532-.1771179383-.1257364664-.2920330833-.1730619232-.1162777126-.0500189043-.2474169178-.0932883461-.394796027-.1297924815-.1270831902-.0351574117-.2311928576-.0662429645-.3136598823-.0919416223-.0797735772-.0243360903-.1433072503-.0500189043-.1892859834-.0757017183-.047309613-.0283921053-.0797577334-.0594935019-.0973443611-.0919416223-.0189175077-.0351574117-.0270295378-.0770642859-.0270295378-.1243897427v-.0108054776c0-.0716615471.0297388291-.131155049.0919257785-.178464662.0608402257-.0500347481.1541285717-.0757175621.2812276057-.0757175621.1257364664,0,.2501103653.025682814.3731533842.0757175621.1257364664.0513656281.2555289479.1216804514.3893774444.2109127824l.3298839424-.4813190666c-.1487258329-.1216804514-.3123131585-.2136220737-.4921245442-.2758090231-.1811739533-.0648962407-.3772093992-.0973443611-.5894847491-.0973443611-.1514192804,0-.2906705157.021626799-.4164069821.0648962407-.127099034.0405601505-.2352488726.1000536524-.3244812036.178464662-.0905948986.0757175621-.1608938781.1676433406-.2109127824.2758090231-.0513814718.1081656825-.0757175621.2298461339-.0757175621.3623320628v.0054185826c0,.1446539741.0229893665.2649877017.0702989795.3623320628.0459787331.0973443611.1108749738.1811739533.1946887222.2487636415.0824828685.0648962407.1838832446.1189870039.3028544047.1622406018.1216804514.0432694418.2568756716.085176316.4056015045.1243897427.1189711601.0297388291.2163155212.0581309344.2920330833.0865230397.0784110096.0256986578.1406138028.0527281956.1838674008.0811203009.0432694418.0297546729.0716615471.0594935019.0865388835.0919416223.0135147689.0324481204.021626799.0689522558.021626799.1081656825v.0108054776c0,.0865388835-.0378508592.1554911393-.1135684213.2055100436-.0730082708.0473254568-.1757553707.0702989795-.3082571435.0702989795-.1662966169,0-.3190784648-.0324481204-.4596764239-.0973443611-.1406138028-.0648962407-.2785183144-.1514192804-.4110200872-.2595849629l-.378556123.4542736851c.1730619232.1595471543.3650413541.2785183144.5786634277.356929324.2163155212.0743708384.4353403336.1135684213.6597678849.1135684213.1581845868,0,.3028544047-.0202800752.4326468861-.0594776581.1325017728-.0432694418.246070194-.1027629437.3407052638-.178464662.093288346-.0757175621.1649498931-.1690059082.2163155212-.2812276057.0540907631-.114915145.0811203009-.2447076265.0811203009-.3893774444v-.0054027388c0-.1297924815-.0202800752-.2393048877-.0594776581-.3298839425-.0405601505-.093288346-.1000536524-.174408647-.178464662-.2433609027Z"/>
        <path class="cls-1" d="M51.2996068853,63.269018191c-.1379045115-.1365577878-.3014918371-.2447234703-.4921245442-.3244812036-.1879392596-.0784268534-.3934334594-.1189870039-.6165142869-.1189870039-.2271368425,0-.4367029012.0405601505-.6273356083.1189870039-.1879234158.0797577334-.3515265852.1892701396-.4921245442.3298839424-.1379045115.1379045115-.246070194.2974358221-.3244812036.4813190667-.0757175621.1811581095-.1135684213.3758468317-.1135684213.5840661665v.0054027388c0,.2095660586.0378508592.4056015045.1135684213.5894689053.0757017183.1811739533.1811581095.3393585401.319062621.4759163279.1406138028.1338484965.3042011284.2406516114.4921403881.319062621.1906327071.0784268534.3974894744.1189870039.6219170257.1189870039.2271368425,0,.4353403336-.0405601504.6273356083-.1189870039.1906327071-.0784110096.3542200327-.1865766921.4921245442-.3244812036.1365577878-.136541944.2433609027-.2947265308.3190784648-.475900484.0784110096-.1838674008.1189711601-.3799186905.1189711601-.5894689053v-.0108213214c0-.2082034911-.0378508591-.4028922132-.1135684213-.5840661665-.0757175621-.1838674008-.1838674008-.3420519876-.3244812036-.4759004841ZM51.0670673039,64.3452089018c0,.1270831901-.0216426428.246070194-.0648962407.356929324-.0432694418.1081656825-.1027629437.204147476-.178464662.2866303445-.0757175621.0838137484-.1703526319.1500725567-.2812276057.200091461-.1081498387.0473254568-.225774275.0702989795-.3515107414.0702989795-.1297924815,0-.2487794853-.0229735227-.356929324-.0702989795-.1081656825-.0500189043-.2028007523-.1162777126-.2812276057-.200091461-.0797577334-.0865388835-.140597959-.1838832446-.1838674008-.2920330833-.0432694418-.1108749738-.0648962407-.2298461338-.0648962407-.356929324v-.0108213214c0-.1216804514.021626799-.2379581639.0648962407-.3461080026.0432694418-.1108749738.1027470999-.2082193349.178464662-.2920330833.0784110096-.0865388835.1703526319-.152781848.2758090231-.2001073048.1081656825-.0459628892.2271368425-.0702989795.356929324-.0702989795s.2487636415.025682814.356929324.0757175621c.1081656825.047309613.2014540285.1122058537.2812117619.1946887222.0784268534.0838137484.1406138028.1811581095.1838832446.2920330833.043253598.1122058537.0648962407.2311928576.0648962407.356929324v.0054027388Z"/>
        <path class="cls-1" d="M54.7941173479,64.5507189454c0,.2352488726-.0567842106.4110042433-.1676433406.5299754034-.1081656825.1162777126-.2622942542.1730619232-.4596922677.1730619232-.1987447372,0-.3542200327-.059493502-.4650791627-.178464662-.1122216975-.1216804514-.1676591844-.3042011284-.1676591844-.5462153074v-1.6494355559h-.6435438247v1.6656596161c0,.4326468861.11085913.7571280898.3352866812.9734436109.2271368425.2163313649.5367565536.3244812036.930190013.3244812036.1946887222,0,.3704440929-.0283921053.5299754034-.0811203009.1581845868-.0540749193.2933956508-.1351952202.4056015045-.2433609027.1108749738-.11085913.1960512897-.2487636415.2541822241-.4110042433.0608402257-.1649498931.0919416223-.3582760478.0919416223-.5786634278v-1.6494355559h-.6435596685v1.6710781987Z"/>
        <polygon class="cls-1" points="58.6856736583 64.6750928442 57.3120312816 62.8796407467 56.7225623763 62.8796407467 56.7225623763 65.7999715794 57.3553007234 65.7999715794 57.3553007234 63.9396073973 58.772196698 65.7999715794 59.3184120053 65.7999715794 59.3184120053 62.8796407467 58.6856736583 62.8796407467 58.6856736583 64.6750928442"/>
        <path class="cls-1" d="M62.9084764786,63.2960477288c-.1379045116-.1297924814-.3015076809-.22983029-.4921245442-.3028385609-.1919952747-.0757175621-.4001987658-.1135684213-.6273356083-.1135684213h-1.1410869515v2.9203308327h1.1410869515c.2271368425,0,.4353403336-.037866703.6273356083-.1135684213.1906168633-.0757175621.3542200327-.178464662.4921245442-.3082571434.136541944-.1297924814.2433609027-.2825743295.3190784648-.4596922677.0757017183-.1798113857.1135684213-.3731533842.1135684213-.5786475839v-.0108213214c0-.2055100436-.037866703-.3961427507-.1135684213-.5732448451-.0757175621-.1757712145-.1825365209-.3298997862-.3190784648-.4596922677ZM62.6651155759,64.3452089018c0,.1338484965-.021626799.2528196566-.0648962407.356929324-.0405601505.1054563912-.1000536524.1973980135-.178464662.2758090231-.0757175621.0797735771-.1676433406.1406138028-.2758090231.1838674008-.1081656825.0405601505-.2271368425.059493502-.356929324.059493502h-.4975431268v-1.763019821h.4975431268c.1297924815,0,.2487636415.0216426428.356929324.0648962407.1081656825.0432694418.200091461.1054563912.2758090231.1838832446.0784110096.0757017183.1379045115.1676433406.178464662.2758090231.0432694418.1081498387.0648962407.2271368425.0648962407.356929324v.0054027388Z"/>
        <polygon class="cls-1" points="67.062596388 62.8796407467 66.4190525633 62.8796407467 66.4190525633 65.7999715794 68.5173590656 65.7999715794 68.5173590656 65.2159054128 67.062596388 65.2159054128 67.062596388 62.8796407467"/>
        <path class="cls-1" d="M71.9996539516,63.269018191c-.1379045115-.1365577878-.3015076809-.2447234703-.4921245442-.3244812036-.1879392596-.0784268534-.3934493032-.1189870039-.6165142869-.1189870039-.2271368425,0-.4367029012.0405601505-.6273356083.1189870039-.1879234158.0797577334-.3515265852.1892701396-.4921245442.3298839424-.1379203554.1379045115-.246070194.2974358221-.3244812036.4813190667-.0757175621.1811581095-.1135684213.3758468317-.1135684213.5840661665v.0054027388c0,.2095660586.0378508592.4056015045.1135684213.5894689053.0757017183.1811739533.1811581095.3393585401.319062621.4759163279.1406138028.1338484965.3042011284.2406516114.4921403881.319062621.1906327071.0784268534.3974894744.1189870039.6219170257.1189870039.2271368425,0,.4353403336-.0405601504.6273356083-.1189870039.1906168633-.0784110096.3542200327-.1865766921.4921245442-.3244812036.1365577878-.136541944.2433609027-.2947265308.3190784648-.475900484.0784110096-.1838674008.1189711601-.3799186905.1189711601-.5894689053v-.0108213214c0-.2082034911-.0378508591-.4028922132-.1135684213-.5840661665-.0757175621-.1838674008-.1838674008-.3420519876-.3244812036-.4759004841ZM71.7671143702,64.3452089018c0,.1270831901-.0216426428.246070194-.0648962407.356929324-.0432694418.1081656825-.1027629437.204147476-.178464662.2866303445-.0757175621.0838137484-.1703684757.1500725567-.2812276057.200091461-.1081498387.0473254568-.2257901188.0702989795-.3515107414.0702989795-.1297924815,0-.2487794853-.0229735227-.356929324-.0702989795-.1081656825-.0500189043-.2028007523-.1162777126-.2812276057-.200091461-.0797577334-.0865388835-.140597959-.1838832446-.1838674008-.2920330833-.0432694418-.1108749738-.0648962407-.2298461338-.0648962407-.356929324v-.0108213214c0-.1216804514.021626799-.2379581639.0648962407-.3461080026.0432694418-.1108749738.1027470999-.2082193349.178464662-.2920330833.0784110096-.0865388835.1703526319-.152781848.2758090231-.2001073048.1081656825-.0459628892.2271368425-.0702989795.356929324-.0702989795s.2487636415.025682814.356929324.0757175621c.1081656825.047309613.2014381847.1122058537.2812117619.1946887222.0784268534.0838137484.1406138028.1811581095.1838832446.2920330833.0432535979.1122058537.0648962407.2311928576.0648962407.356929324v.0054027388Z"/>
        <path class="cls-1" d="M75.4508949724,65.1672332323c-.1162777126.0621869494-.2568756716.0919257785-.4218255647.0919257785-.1270831902,0-.242014179-.0229735227-.3461080026-.0702989795-.1054563912-.0500189043-.1946887222-.1162777126-.2704062843-.200091461-.0730082708-.0865388835-.1297924815-.1838832446-.1730460794-.2920330833-.0405759943-.1108749738-.0594935019-.2298461338-.0594935019-.356929324v-.0108213214c0-.1216804514.0189175077-.2379581639.0594935019-.3461080026.0432535979-.1108749738.1027470999-.2082193349.178464662-.2920330833.0757017183-.0865388835.1649340493-.152781848.2703904405-.2001073048.1041096674-.0459628892.2176780887-.0702989795.3407052638-.0702989795.1473632654,0,.2785183144.0297388291.394796027.0865230397.1189711601.0581467782.2352330288.1392670791.3515107414.2433609028l.4110200871-.4704977453c-.0689522558-.0675896882-.1433230941-.1297924814-.2217341037-.1838674008-.0757175621-.0567842106-.1608938781-.1041096675-.2541822241-.1406138028-.0905790547-.0391975829-.1919794309-.0702989795-.3028385608-.0919257785-.1122216975-.0243360903-.2366114402-.0378667029-.3731533842-.0378667029-.2271368425,0-.4353561774.0405601505-.6219328695.1189870039-.1838674008.0797577334-.3434145551.1892701396-.4759004841.3298839424-.1338484965.1379045115-.2379581639.2974358221-.3136598822.4813190667-.0757175621.1811581095-.1135684213.3758468317-.1135684213.5840661665v.0054027388c0,.2095660586.0378508592.4056015045.1135684213.5894689053.0757017183.1838832446.1798113857.3447612788.3136598822.4813190667.1324859289.1338484965.2920330833.2406516114.4759004841.3190784648.1838832446.0743549946.3812654143.1135684213.5948874879.1135684213.1406138028,0,.267696993-.0135306127.3839747056-.037866703.114915145-.0202800752.2190248125-.0540749193.3136598822-.0973443611.0973443611-.0459628893.1852141245-.1027470999.2649877017-.1676433406.0824670247-.0648962407.1622406018-.1365577878.2379581639-.2163155212l-.4110042433-.4164228259c-.1162777126.1081656825-.2312087014.1933419984-.3461238464.2541822241Z"/>
        <path class="cls-1" d="M78.3479195624,62.8579981039l-1.249252634,2.9419734755h.6543651461l.2649877017-.6543809899h1.2384471564l.2649877017.6543809899h.6705892062l-1.249252634-2.9419734755h-.5948716441ZM78.2505752013,64.5777484831l.3839588618-.9463982293.3893774444.9463982293h-.7733363061Z"/>
        <polygon class="cls-1" points="81.9163572367 62.8796407467 81.2727975683 62.8796407467 81.2727975683 65.7999715794 83.3711040705 65.7999715794 83.3711040705 65.2159054128 81.9163572367 65.2159054128 81.9163572367 62.8796407467"/>
        <path class="cls-1" d="M88.2344087043,64.3560302232c-.0797577334-.067605532-.1771020944-.1257364664-.2920330833-.1730619232-.1162618688-.0500189043-.2474169178-.0932883461-.3947801832-.1297924815-.1270831902-.0351574117-.2311928576-.0662429645-.3136598822-.0919416223-.0797735772-.0243360903-.1433230941-.0500189043-.1892859834-.0757017183-.0473254568-.0283921053-.0797735772-.0594935019-.0973443611-.0919416223-.0189333515-.0351574117-.0270453816-.0770642859-.0270453816-.1243897427v-.0108054776c0-.0716615471.0297546729-.131155049.0919416223-.178464662.0608402257-.0500347481.1541285717-.0757175621.2812117619-.0757175621.1257364664,0,.2501262091.025682814.3731533842.0757175621.1257364664.0513656281.2555289479.1216804514.3893774444.2109127824l.3298997862-.4813190666c-.1487258329-.1216804514-.3123131585-.2136220737-.492140388-.2758090231-.1811581095-.0648962407-.3772093992-.0973443611-.5894689053-.0973443611-.1514192804,0-.2906863595.021626799-.4164228259.0648962407-.1270831902.0405601505-.2352488726.1000536524-.3244812036.178464662-.0905790547.0757175621-.1608780343.1676433406-.2109127824.2758090231-.051365628.1081656825-.0757017183.2298461339-.0757017183.3623320628v.0054185826c0,.1446539741.0229735227.2649877017.0702989795.3623320628.0459628892.0973443611.11085913.1811739533.1946887222.2487636415.0824670247.0648962407.1838674008.1189870039.3028544047.1622406018.1216804514.0432694418.2568756716.085176316.4056015045.1243897427.1189711601.0297388291.2163155212.0581309344.2920330833.0865230397.0784110096.0256986578.140597959.0527281956.1838674008.0811203009.0432694418.0297546729.0716615471.0594935019.0865230397.0919416223.0135306127.0324481204.0216426428.0689522558.0216426428.1081656825v.0108054776c0,.0865388835-.037866703.1554911393-.1135684213.2055100436-.0730082708.0473254568-.1757712145.0702989795-.3082571434.0702989795-.1662966169,0-.3190784648-.0324481204-.4596922677-.0973443611-.140597959-.0648962407-.2785024706-.1514192804-.4110042433-.2595849629l-.378556123.4542736851c.1730460794.1595471543.3650413541.2785183144.5786475839.356929324.216331365.0743708384.4353561774.1135684213.6597837287.1135684213.1581845868,0,.3028544047-.0202800752.4326468861-.0594776581.1324859289-.0432694418.2460543502-.1027629437.3407052638-.178464662.093288346-.0757175621.1649340493-.1690059082.2163155212-.2812276057.0540749193-.114915145.0811203009-.2447076265.0811203009-.3893774444v-.0054027388c0-.1297924815-.0202800752-.2393048877-.0594935019-.3298839425-.0405601504-.093288346-.1000378086-.174408647-.178464662-.2433609027Z"/>
        <path class="cls-1" d="M92.1985771903,63.269018191c-.1379045115-.1365577878-.3015076809-.2447234703-.4921245442-.3244812036-.1879392596-.0784268534-.3934493032-.1189870039-.6165142869-.1189870039-.2271368425,0-.4367029012.0405601505-.6273356083.1189870039-.1879234158.0797577334-.3515265852.1892701396-.4921245442.3298839424-.1379203554.1379045115-.246070194.2974358221-.3244812036.4813190667-.0757175621.1811581095-.1135684213.3758468317-.1135684213.5840661665v.0054027388c0,.2095660586.0378508592.4056015045.1135684213.5894689053.0757017183.1811739533.1811581095.3393585401.319062621.4759163279.1406138029.1338484965.3042011284.2406516114.4921403881.319062621.1906327071.0784268534.3974894744.1189870039.6219170257.1189870039.2271368425,0,.4353403336-.0405601504.6273356083-.1189870039.1906168633-.0784110096.3542200327-.1865766921.4921245442-.3244812036.1365577878-.136541944.2433609027-.2947265308.3190784648-.475900484.0784110096-.1838674008.1189711601-.3799186905.1189711601-.5894689053v-.0108213214c0-.2082034911-.0378508592-.4028922132-.1135684213-.5840661665-.0757175621-.1838674008-.1838674008-.3420519876-.3244812036-.4759004841ZM91.9660376089,64.3452089018c0,.1270831901-.0216426428.246070194-.0648962407.356929324-.0432694418.1081656825-.1027629437.204147476-.178464662.2866303445-.0757175621.0838137484-.1703684757.1500725567-.2812276057.200091461-.1081498387.0473254568-.2257901188.0702989795-.3515107414.0702989795-.1297924815,0-.2487794853-.0229735227-.356929324-.0702989795-.1081656825-.0500189043-.2028007523-.1162777126-.2812276057-.200091461-.0797577334-.0865388835-.140597959-.1838832446-.1838674008-.2920330833-.0432694418-.1108749738-.0648962407-.2298461338-.0648962407-.356929324v-.0108213214c0-.1216804514.021626799-.2379581639.0648962407-.3461080026.0432694418-.1108749738.1027470999-.2082193349.178464662-.2920330833.0784110096-.0865388835.1703526319-.152781848.2758090231-.2001073048.1081656825-.0459628892.2271368425-.0702989795.356929324-.0702989795s.2487636415.025682814.356929324.0757175621c.1081656825.047309613.2014381847.1122058537.2812117619.1946887222.0784268534.0838137484.1406138028.1811581095.1838832446.2920330833.0432535979.1122058537.0648962407.2311928576.0648962407.356929324v.0054027388Z"/>
        <path class="cls-1" d="M95.6930876529,64.5507189454c0,.2352488726-.0567842106.4110042433-.1676433406.5299754034-.1081656825.1162777126-.2622942542.1730619232-.4596922677.1730619232-.1987447372,0-.3542200327-.059493502-.4650791627-.178464662-.1122216975-.1216804514-.1676591844-.3042011284-.1676591844-.5462153074v-1.6494355559h-.6435438247v1.6656596161c0,.4326468861.11085913.7571280898.3352866812.9734436109.2271368425.2163313649.5367565536.3244812036.930190013.3244812036.1946887222,0,.3704440929-.0283921053.5299754034-.0811203009.1581845868-.0540749193.293379807-.1351952202.4056015046-.2433609027.1108749738-.11085913.1960354459-.2487636415.2541822241-.4110042433.0608402257-.1649498931.0919416223-.3582760478.0919416223-.5786634278v-1.6494355559h-.6435596685v1.6710781987Z"/>
        <polygon class="cls-1" points="98.2650765059 65.2159054128 98.2650765059 62.8796407467 97.6215326813 62.8796407467 97.6215326813 65.7999715794 99.7198391835 65.7999715794 99.7198391835 65.2159054128 98.2650765059 65.2159054128"/>
      </g>
    </g>
  </g>
</svg>