<?xml version="1.0" encoding="UTF-8"?>
<svg id="Layer_2" data-name="Layer 2" xmlns="http://www.w3.org/2000/svg" viewBox="0 0 120.7293373069 55.0454734942">
  <defs>
    <style>
      .cls-1 {
        fill: #fff;
      }
    </style>
  </defs>
  <g id="Layer_1-2" data-name="Layer 1">
    <path class="cls-1" d="M59.8819559817,50.0789542952c-.2355270297.2403998425-.5208450299.42622302-.8359284242.5444424535-.315002084.118149739-.6521612369.165803409-.9876477199.1395401676h-2.558563583v-5.0915492547h2.4820621642c.3482696308-.0133232808.6956274241.0429347661,1.0219026066.1654200888.3261938721.1225608252.6247538428.3088370174.8781749563.5480985152.4258455077.5221430915.6584860202,1.1752945722.6584860202,1.8490785529,0,.6737810768-.2326405125,1.3269354615-.6584860202,1.849075649M60.8441767951,45.4726245236c-.7317117936-.6670845891-1.6953032672-1.0215976928-2.6849314747-.9877232223h-3.950962584v10.5338074505h1.2670997595v-3.0396768937h2.6849314747c.9895468972.0338018719,1.9531383708-.3206357293,2.6849314747-.9877232224.3338835076-.3329658623.5924794438-.7336167788.7585093601-1.1749867545.1659544139-.4413002811.2354573351-.9131209809.2037114533-1.3835739246v-.3801694215c.0364618818-.4747914313-.0306772316-.9517143553-.1967826504-1.3978845453-.1661809213-.4462456924-.4273671727-.850924375-.7654381631-1.1861814466M73.9416471489,51.4214171287l1.7950304052-5.3188581317,2.0007165383,5.3199267819-3.7957469435-.0010686502ZM75.0313045043,44.5062917298l-3.6237058695,10.512417022h1.3424628334l.8358529218-2.4321201889h4.6105172544l.9119768282,2.4576225978h1.3679710502l-4.0772607811-10.5124925244h-1.3688073852l.0009931478-.0254269064ZM42.960953778,50.1808826204c.0581601281.4792838279.0112672906.9654209563-.1374812735,1.4246792079-.1487485641.4592640594-.3957751998.8806955769-.7238740571,1.2348253605-.257225276.2723780396-.5673603551.4894069658-.911445407.6376996113s-.7148137616.2247998721-1.0895005426.2247998721c-.374689685,0-.7454183946-.0765072267-1.0895034466-.2247998721-.3440095495-.1482926454-.6542172271-.3653215717-.911445407-.6376996113-.3261967761-.3554249411-.5719282541-.7769319612-.7205984118-1.2358127004-.1485975592-.4589562417-.1966316455-.9444835425-.1407569188-1.423691868v-5.6745908906h-1.2660369171v6.2566451865c-.0332646429.548403429.0487223202,1.0975676904.2405566553,1.6123260602.1919098376.5147583698.4894853723.983611242.8736099612,1.3764215182.3888493008.4046757786.8576266705.7240221581,1.3764941167.937781247.5189458526.2137590888,1.0766360845.3171393844,1.6376803681.3037406012.5547979068.0143106207,1.1065524835-.0860960395,1.6207010257-.2949823155.5142240447-.2088165814.9797286731-.5216116703,1.3673583187-.9187546263.3876296456-.3971487638.6891603478-.870032306.8854870794-1.3891291635.1964022341-.5190968575.2834914214-1.0731397397.2557791135-1.6274033213v-6.2566451865h-1.267024257v5.6745908906ZM4.3566453041,50.8648652416h2.913260361c.0250225327.7769319611-.2569523056,1.5323979912-.7848873072,2.1029584891-.5934711396.5675868625-1.3825833177.8851037592-2.2038054593.886782237-.3971596536-.0047973103-.7894777117-.0877745173-1.1545128823-.2443666258-.3650348075-.1565107981-.6956154454-.3835176653-.9728401623-.6679180202-.3261882458-.355430749-.5719580195-.7769319611-.7205923317-1.2358127003-.1486341307-.4589620496-.1966386331-.9444835425-.1407475718-1.423691868v-1.0651422864c-.0558910613-.4792083255-.007886559-.9647356263.1407475718-1.4236163655.1486343122-.4589591456.3944040859-.8804632616.7205923317-1.2358911068.583353991-.5672819487,1.3645875961-.8853331705,2.1783186591-.8867793331.5715089976-.009135798,1.136593026.1214195764,1.6462277551.3801665175.4259420637.2658296529.7887698762.6213330004,1.0631697846,1.0417713702.0611519132.0778778867.1121857704.1631375912.1518848203.2538015297l1.0387040826-.4811104067c-.0513082796-.0883030345-.093633944-.1815572883-.1263678917-.2782352884-.3290883752-.6601586901-.8383800763-1.2135859368-1.4688938859-1.5962672671-.7056946612-.3857246603-1.5007751639-.5780933206-2.3047246651-.5576176334-.5880128197-.0173539508-1.1735057446.083662537-1.7217509088.2969657071-.5482451642.2132247637-1.0480594912.5344732245-1.4697923833.944559045-.3715056045.380093919-.6619135779.831665439-.853607934,1.3273942842-.1916943447.4957259412-.2806754339,1.025175348-.261543887,1.5563758311v2.2547503833c-.027466184.5477180989.0571808109,1.0953606954.2487571547,1.6092827302.1915755667.5139220348.4860471516.9833092322.8653745663,1.3793835379.4137778183.4068885815.9050966663.726385966,1.4447701229.93969204.5396732752.2133002662,1.1167088353.3159139214,1.6968276546.3019111184.5799511168.0138517981,1.1567888459-.0888373597,1.6962797173-.3021434337.5394908714-.2132247637,1.0306423797-.5327221482,1.4442978695-.9394597248.3814856327-.3946281431.6774596439-.8637133306.8693716595-1.3780128778.1919112895-.5142240447.2755723746-1.062557779.2458077065-1.6106533903v-1.064230449h-4.179304538l-.0010200092,1.1151539564ZM24.0645036777,49.8771420192c-.2534196615.2392614977-.5519055817.4256190003-.8781778602.548101419-.3262722785.1224882267-.6736315239.1787433696-1.0219026066.1654200888h-2.5329856717v-4.9192758654h2.5329856717c.3523816111-.0156057783.704231801.0395081158,1.0349195216.162068941.3307632231.1224853227.6335135805.3100566726.8906633541.551449663.4333797823.4780670766.668758711,1.1029777322.6584816642,1.7481375676.0066993916.3220847958-.0502410813.6423430128-.1676270839.942349146-.1173860025.2999364386-.2928537268.5738303354-.5163569893.8058610202M22.3417944684,44.4858915451h-3.9754036025v10.5328172067h1.267025709v-3.2425462042h2.7104324316c.2538015297,0,.5321152245-.0255024089.7849265104-.0509293153l1.4372402042,3.2934755195h1.4270401118l-1.6972068004-3.6696113671c.2729080088-.1478338227.5280801986-.326344877.7604883958-.5321123205.3338835076-.3329716702.5924823477-.7336167788.7585093601-1.1749170599.1659544139-.4413699757.2354573351-.9131964834.2037114533-1.3836465231v-.2038624583c.0317458818-.4704529437-.0377570394-.942201045-.2037114533-1.3835739246-.1660270124-.4413728796-.4246258525-.8420179882-.7585093601-1.174914156-.3626586579-.3392906455-.7888831298-.603520227-1.254007342-.7773907838-.4652011666-.1738676528-.9601662753-.2540280371-1.4564250897-.2358348475M36.3791049632,6.35964071h-5.1455974025l-1.2416002545,1.239513773c-.0254269064.0254559458-2.1028800827,2.1273457847-4.3566373182,4.3566678096-1.1685196781-1.7259834027-2.7426356841-3.1388646247-4.5843295154-4.1149401401-1.8416923793-.9760072728-3.894710345-1.4853222054-5.9790139179-1.483282187h-5.1425533465L0,16.3094148289v19.6854087326h8.4604640766v-16.1605893103l4.9947935742-5.0151189825h2.0518752649c1.0273082926,0,2.0125951085.4081053328,2.7389796226,1.1344912988.7264614685.7264614685,1.1345682532,1.711672782,1.1345682532,2.7389796226v17.3022373714h8.4604633506v-16.1605893103l4.9396789541-5.0151189825h3.5972916231c1.0273068406,0,2.0125181541.4081053328,2.7389041201,1.1344912988.7264614685.7264614685,1.1345668013,1.711672782,1.1345668013,2.7389796226v17.3022373714h8.4604633506v-17.3001813812c0-1.6197136858-.3190385618-3.223592182-.9388498972-4.7199827581-.6198868379-1.4964660786-1.5283615134-2.8561362138-2.6736641841-4.0014381585-1.1453026707-1.1453774472-2.5050468564-2.0538543006-4.0014388845-2.6736954014-1.4964646266-.6198403748-3.1002676203-.9388651429-4.7199813062-.9388651429M65.6605369955,20.7231465289v-5.8795960496h12.7642721762V6.3830871288h-12.7673213141V0h-8.4604633506v20.7210919907c.0320478916,4.0523638439,1.657778543,7.9292614155,4.5257163725,10.7924019347,2.8679320217,2.8632160217,6.7475738174,4.4824737888,10.8000117118,4.5078222888h8.0305116705v-8.4870315058h-7.9765390251c-1.8175591786.0034266502-3.5631877413-.7102458626-4.8578458999-1.9860255013-1.294733661-1.2757810908-2.0339840851-3.0107478346-2.0572794989-4.8282344146M112.2448888253,21.8851192723l-5.5974738363,5.5982390247c-.2040192711.025499505-.4080269264.025499505-.6120461975.0509264114h-6.5102173049v-12.7151694397h6.5102173049c1.663330878.0150729052,3.2543420121.6860386113,4.4259079242,1.8671192858,1.1715659121,1.1811561769,1.8292852919,2.7768905709,1.8308069569,4.4405278146,0,.2538000778-.0251132808.5096561457-.0510048178.7604128934M106.0353687915,6.3575999655h-19.2010255845v8.4605250594h4.2302694265v29.6382305374h8.4605388531v-8.460541757h10.5379949333l.8868519316-.8867793331,8.8678107548-8.8682666735c.8206304636-2.226962573,1.0931595081-4.6188123615.7932288774-6.973284075-.2991756061-2.3543962109-1.1616692816-4.6019898319-2.5136512332-6.5526177458-1.3519819517-1.9505531374-3.1538656573-3.5466672216-5.2533916883-4.6532973856-2.099526031-1.1065844269-4.4350495301-1.6910649654-6.8086262707-1.7039686268Z"/>
  </g>
</svg>