<svg xmlns="http://www.w3.org/2000/svg" width="567.75494" height="255.56131" viewBox="0 0 567.75494 255.56131">
  <defs>
    <style>
      .cls-1 {
        fill: #fff;
      }
    </style>
  </defs>
  <title>logo-w</title>
  <g id="Layer_2" data-name="Layer 2">
    <g id="Layer_1-2" data-name="Layer 1">
      <g>
        <path class="cls-1" d="M38.733,116.53321a37.45631,37.45631,0,0,0-27.35493,11.37616A37.5695,37.5695,0,0,0,0,155.368v36.40073a2.33261,2.33261,0,0,0,2.33228,2.33229H15.905a2.333,2.333,0,0,0,2.33427-2.33229V155.368a19.90954,19.90954,0,0,1,5.99928-14.59824A19.58579,19.58579,0,0,1,38.733,134.77053a19.58891,19.58891,0,0,1,14.49446,5.99927,19.75167,19.75167,0,0,1,6.103,14.59824v36.40073a2.33262,2.33262,0,0,0,2.33228,2.33229H75.23551a2.33262,2.33262,0,0,0,2.33228-2.33229V155.368a37.58177,37.58177,0,0,0-11.37611-27.45867A37.5819,37.5819,0,0,0,38.733,116.53321"/>
        <path class="cls-1" d="M245.03474,255.56131a38.84067,38.84067,0,0,0,38.733-38.83671V197.51767a2.33132,2.33132,0,0,0-2.33226-2.3323H267.86273a2.33132,2.33132,0,0,0-2.33226,2.3323V216.7246a19.90809,19.90809,0,0,1-6.00127,14.60018,20.59751,20.59751,0,0,1-35.092-14.60018v.63041a2.33,2.33,0,0,0-2.3323-2.33229h-13.5727A2.33006,2.33006,0,0,0,206.2,217.355v-.63041a38.84047,38.84047,0,0,0,38.83479,38.83671"/>
        <path class="cls-1" d="M126.01258,116.53406a38.84069,38.84069,0,0,0-38.733,38.83276,38.84093,38.84093,0,0,0,38.733,38.733,38.84072,38.84072,0,0,0,38.83479-38.733,38.84049,38.84049,0,0,0-38.83479-38.83276m14.49448,53.32919a20.50909,20.50909,0,0,1-28.98894,0,19.58141,19.58141,0,0,1-6.00128-14.49643,19.89586,19.89586,0,0,1,6.00128-14.59617,20.59753,20.59753,0,0,1,35.092,14.59617,19.40994,19.40994,0,0,1-6.09306,14.48249l-.01.01394"/>
        <path class="cls-1" d="M244.93276,116.53406a38.84069,38.84069,0,0,0-38.733,38.83276,38.76048,38.76048,0,0,0,66.19166,27.35693,38.70152,38.70152,0,0,0,0-54.81359,37.5818,37.5818,0,0,0-27.45866-11.3761m14.49448,53.32919A20.49575,20.49575,0,0,1,224.437,155.36682a19.90367,19.90367,0,0,1,6.00128-14.59617,20.53441,20.53441,0,1,1,29.00091,29.07866c-.002.004-.008.008-.012.01394"/>
        <path class="cls-1" d="M333.18677,116.53321A38.84087,38.84087,0,0,0,294.45971,155.368v36.40073a2.33264,2.33264,0,0,0,2.3323,2.33229h13.57072a2.3326,2.3326,0,0,0,2.33227-2.33229V155.368a19.91183,19.91183,0,0,1,6.00328-14.59824,19.585,19.585,0,0,1,14.48849-5.99927,2.33132,2.33132,0,0,0,2.33226-2.33229V118.8655a2.33132,2.33132,0,0,0-2.33226-2.33229"/>
        <path class="cls-1" d="M380.20149,116.53345a38.8407,38.8407,0,0,0-38.73108,38.83477,38.55957,38.55957,0,0,0,59.32852,32.66191v3.63513a2.33,2.33,0,0,0,2.33229,2.33223h13.5767a2.33,2.33,0,0,0,2.33229-2.33223v-36.297a38.8473,38.8473,0,0,0-38.83872-38.83477m0,18.23727a20.49057,20.49057,0,0,1,20.59744,20.5975,19.578,19.578,0,0,1-5.9933,14.48651,19.91821,19.91821,0,0,1-14.60414,6.00724,20.4829,20.4829,0,0,1-20.49181-20.49375A19.90945,19.90945,0,0,1,365.709,140.77a19.58448,19.58448,0,0,1,14.49248-5.99932"/>
        <path class="cls-1" d="M506.23326,116.53321a30.046,30.046,0,0,0-22.30535,9.23736,29.76861,29.76861,0,0,0-22.2195-9.23736,31.28951,31.28951,0,0,0-31.32718,31.32918v43.90638a2.33264,2.33264,0,0,0,2.3323,2.33229H446.2862a2.33135,2.33135,0,0,0,2.3323-2.33229V147.86239a13.0919,13.0919,0,0,1,26.18377,0v43.90638a2.33264,2.33264,0,0,0,2.3323,2.33229H490.7073a2.33263,2.33263,0,0,0,2.3323-2.33229V147.86239a12.49223,12.49223,0,0,1,3.82259-9.23334,12.83774,12.83774,0,0,1,9.37107-3.85852,13.11255,13.11255,0,0,1,13.08985,13.09186v43.90638a2.33263,2.33263,0,0,0,2.33229,2.33229h13.57274a2.33263,2.33263,0,0,0,2.33229-2.33229V147.86239a31.47145,31.47145,0,0,0-31.32717-31.32918"/>
        <path class="cls-1" d="M191.93555,82.14975H178.36281a2.33132,2.33132,0,0,0-2.33226,2.3323V191.769a2.33256,2.33256,0,0,0,2.33226,2.33229h13.57274a2.33256,2.33256,0,0,0,2.33226-2.33229V84.48205a2.33132,2.33132,0,0,0-2.33226-2.3323"/>
        <path class="cls-1" d="M460.88145,105.24826c-11.26242,0-21.50731-6.20877-27.40484-16.61124a4.98912,4.98912,0,1,1,8.67873-4.9239c4.10395,7.23622,11.10479,11.55565,18.72611,11.55565s14.62211-4.31943,18.72807-11.55565a4.98862,4.98862,0,1,1,8.67873,4.92189c-5.89954,10.40253-16.14443,16.61325-27.4068,16.61325"/>
        <path class="cls-1" d="M439.10685,68.405h0a6.26677,6.26677,0,0,1-6.26668-6.2646V54.23182a6.26564,6.26564,0,0,1,12.53128,0v7.90859a6.265,6.265,0,0,1-6.2646,6.2646"/>
        <path class="cls-1" d="M480.967,68.405h0a6.265,6.265,0,0,0,6.2646-6.2646V54.23182a6.26564,6.26564,0,0,0-12.53128,0v7.90859A6.26677,6.26677,0,0,0,480.967,68.405"/>
        <path class="cls-1" d="M567.721,105.47336a106.85857,106.85857,0,0,0-213.708,1.17515,2.51348,2.51348,0,0,0,2.51781,2.52378h13.18167a2.51823,2.51823,0,0,0,2.51982-2.51184,88.64324,88.64324,0,0,1,177.28329-.51869v85.626a2.33172,2.33172,0,0,0,2.33424,2.33229h13.57274a2.33263,2.33263,0,0,0,2.33229-2.33229V105.641c0-.05986-.02995-.10972-.03391-.16762"/>
      </g>
    </g>
  </g>
</svg>
