<svg xmlns="http://www.w3.org/2000/svg" viewBox="0 0 30.38 30.46"><defs><style>.cls-1{fill:#fff;}</style></defs><g id="Layer_2" data-name="Layer 2"><g id="Layer_1-2" data-name="Layer 1"><g id="calls"><path class="cls-1" d="M21.2,30.46h-.05c-4.9,0-10.3-2.54-14.45-6.67S.05,14.26,0,9.36A5.53,5.53,0,0,1,3.24,4.22l1.15-.51a1.19,1.19,0,0,1,1.52.6l4,9.09a1.15,1.15,0,0,1-.59,1.52l-1.16.51c-.12.06-.24.1-.37.15a31,31,0,0,0,3.26,3.83,31,31,0,0,0,3.84,3.25,2.87,2.87,0,0,1,.15-.37l.5-1.16a1.19,1.19,0,0,1,1.53-.59l9.1,4a1.15,1.15,0,0,1,.59,1.52l-.5,1.15A5.51,5.51,0,0,1,21.2,30.46ZM4.68,5.22l-.84.37A4,4,0,0,0,1.49,9.34c.05,4.52,2.39,9.53,6.27,13.39s8.88,6.2,13.4,6.24h0a4,4,0,0,0,3.71-2.36l.37-.84L16.79,22l-.37.85a4.21,4.21,0,0,0-.3,1.09.74.74,0,0,1-1.15.53,32.15,32.15,0,0,1-5-4A32.28,32.28,0,0,1,6,15.52a.77.77,0,0,1-.06-.72.74.74,0,0,1,.59-.43,4.1,4.1,0,0,0,1.09-.3l.85-.38Z"/></g><path class="cls-1" d="M29,16.44a1.09,1.09,0,0,1-.25,0,.75.75,0,0,1-.45-1A10.52,10.52,0,0,0,25.8,4.52,10.42,10.42,0,0,0,14.86,2.13a.75.75,0,1,1-.51-1.4,11.93,11.93,0,0,1,16,11.17,11.74,11.74,0,0,1-.68,4A.74.74,0,0,1,29,16.44Z"/><path class="cls-1" d="M24.49,16.81a.69.69,0,0,1-.25,0,.75.75,0,0,1-.46-1,6.86,6.86,0,0,0,.41-2.43A7.19,7.19,0,0,0,17,6.21h0a7.23,7.23,0,0,0-2.43.43A.75.75,0,1,1,14,5.24,8.92,8.92,0,0,1,17,4.71a8.71,8.71,0,0,1,8.74,8.66,8.86,8.86,0,0,1-.5,2.94A.75.75,0,0,1,24.49,16.81Z"/><path class="cls-1" d="M20.42,16.76a.69.69,0,0,1-.24-.05.74.74,0,0,1-.46-1A4.06,4.06,0,0,0,20,14.42a4,4,0,0,0-4-4h0a4.07,4.07,0,0,0-1.34.24.75.75,0,1,1-.51-1.4A5.49,5.49,0,0,1,16,9a5.46,5.46,0,0,1,5.49,5.44,5.53,5.53,0,0,1-.31,1.85A.76.76,0,0,1,20.42,16.76Z"/></g></g></svg>