<svg xmlns="http://www.w3.org/2000/svg" width="12457.22363" height="941.76563" viewBox="0 0 12457.22363 941.76563">
  <defs>
    <style>
      .cls-1 {
        fill: #231815;
      }

      .cls-2 {
        fill: #fff;
      }
    </style>
  </defs>
  <title>Asset 1</title>
  <g id="Layer_2" data-name="Layer 2">
    <g id="Layer_1-2" data-name="Layer 1">
      <g id="Layer_2-2" data-name="Layer 2">
        <g id="Layer_1-2-2" data-name="Layer 1-2">
          <g>
            <path class="cls-1" d="M36,929.1875V48.59375H170.60938L555.5625,691.42188H485.10938L863.76563,48.59375H998.375l2.51563,880.59375h-157.25V291.375h31.45312L555.5625,829.8125H481.32813L154.25,291.375H192V929.1875Z"/>
            <path class="cls-1" d="M1650.23706,941.76563q-101.90643,0-189.32812-33.96875-87.4455-33.96094-151.59375-95.60938a434.06962,434.06962,0,0,1-99.375-144.03125q-35.22657-82.40625-35.21875-179.26562,0-98.10937,35.21875-180.51563a427.51832,427.51832,0,0,1,99.375-143.42187q64.14843-61.00782,150.95312-94.98439Q1547.08063,36.00783,1650.23706,36q101.90607,0,188.70313,33.34375,86.78887,33.35157,150.32812,94.35938,63.51545,61.00781,98.75,144.03125,35.22657,83.03906,35.23438,181.15625,0,98.13281-35.23438,180.53125a439.12141,439.12141,0,0,1-98.75,144.03125q-63.53925,61.64063-150.32812,94.98437Q1752.12749,941.7422,1650.23706,941.76563Zm0-143.40625q66.65607,0,122.65625-22.64063a290.37113,290.37113,0,0,0,97.5-64.15625q41.50762-41.5078,64.78125-98.125,23.24982-56.625,23.26563-124.54687-.0002-67.92187-22.64063-124.54688-22.6408-56.60156-64.78125-98.125a297.11741,297.11741,0,0,0-98.125-64.15625q-55.99238-22.64062-122.65625-22.64062-66.67988,0-123.92187,22.64062-57.23457,22.64063-98.75,64.79688a314.35816,314.35816,0,0,0-65.40625,98.125q-23.90625,55.96875-23.90625,123.90625,0,66.67968,23.90625,123.28125,23.90625,56.625,65.40625,98.75,41.50762,42.14063,98.75,64.79687Q1583.54937,798.35938,1650.23706,798.35938Z"/>
            <path class="cls-1" d="M2159.93018,929.1875,2556.21143,48.59375h161.01562L3114.7583,929.1875H2942.41455L2602.7583,135.39063h65.40625L2327.2583,929.1875Zm182.42187-203.79687,45.28125-128.3125h474.26563l44.03125,128.3125Z"/>
            <path class="cls-1" d="M3360.24707,929.1875V186.96875H3068.3877V48.59375h747.25v138.375H3523.77832V929.1875Z"/>
            <path class="cls-1" d="M4285.07129,929.1875V48.59375H4927.915v138.375H4448.61816V790.8125h496.90625v138.375ZM4436.04,549.26563V414.67188h437.78125V549.26563Z"/>
            <path class="cls-1" d="M5011.11426,929.1875l371.10937-512V541.71875L5027.458,48.59375h186.1875l264.1875,363.5625-76.75,1.25,260.40625-364.8125h177.375L5487.89551,532.92188v-118.25L5860.25488,929.1875h-187.4375L5396.05176,541.71875h74.21875L5197.28613,929.1875Z"/>
            <path class="cls-1" d="M5964.84375,929.1875V48.59375h362.3125q116.97657,0,200.64063,37.10938,83.64843,37.125,128.9375,107.5625,45.28125,70.45313,45.29687,168.5625,0,96.89063-45.29687,166.6875-45.28125,69.82031-128.9375,108.1875-83.67187,38.39063-200.64063,38.375H6056.6875l71.70313-75.48438V929.1875Zm163.54688-311.98437L6056.6875,536.6875h262.92188q108.1875,0,162.90625-45.90625,54.70313-45.91406,54.71875-128.95312,0-83.01562-54.71875-128.9375-54.72657-45.91407-162.90625-45.92188H6056.6875l71.70313-80.51562Z"/>
            <path class="cls-1" d="M6865.75586,929.1875V48.59375h642.84375v138.375H7029.30273V790.8125H7526.209v138.375Zm150.96875-379.92187V414.67188h437.78125V549.26563Z"/>
            <path class="cls-1" d="M7710.0293,929.1875V48.59375h361.04687q176.10938,0,276.125,83.65625Q8447.209,215.92188,8447.2168,361.82813q0,96.89063-45.29688,166.0625-45.28125,69.1875-128.9375,106.9375-83.67187,37.73438-200.64062,37.73437H7801.87305l71.70312-72.96875V929.1875Zm163.54687-311.98437-71.70312-79.25h262.92187q108.1875,0,162.90625-46.54688,54.70313-46.54687,54.71875-129.57812,0-83.01562-54.71875-128.9375-54.72656-45.91407-162.90625-45.92188H7801.87305l71.70312-80.51562Zm412.625,311.98437L8063.5293,609.65625h174.85937L8462.31055,929.1875Z"/>
            <path class="cls-1" d="M8629.79492,929.1875V48.59375H8793.3418V929.1875Z"/>
            <path class="cls-1" d="M9029.91016,929.1875V48.59375h642.84375v138.375H9193.457V790.8125h496.90625v138.375Zm150.96875-379.92187V414.67188h437.78125V549.26563Z"/>
            <path class="cls-1" d="M9874.18359,929.1875V48.59375H10008.793l552.26562,679.3125h-66.67187V48.59375h161.01562V929.1875H10520.793l-551-679.3125h66.67187V929.1875Z"/>
            <path class="cls-1" d="M11300.957,941.76563q-101.90625,0-187.4375-33.32813-85.54687-33.32812-149.07812-94.98437a440.47956,440.47956,0,0,1-98.75-143.40625q-35.22657-81.77344-35.21875-181.15625,0-99.375,35.21875-181.15625a436.019,436.019,0,0,1,99.375-143.40625q64.14843-61.64062,149.70312-94.98439Q11200.31641,36.01563,11302.22266,36q108.1875,0,197.5,37.125,89.29688,37.125,150.95312,110.0625l-105.67187,99.39063q-49.07812-51.5625-108.1875-77.35938-59.13282-25.78125-127.04688-25.79687-69.21093,0-126.4375,22.64062-57.23437,22.64063-99.375,64.15625-42.14062,41.53125-66.04687,98.125-23.90625,56.625-23.90625,124.54688t23.90625,124.54687q23.90625,56.625,66.04687,98.125,42.14063,41.50782,99.375,64.15625,57.23438,22.64063,126.4375,22.64063,67.92188,0,127.04688-25.78125,59.10938-25.78125,108.1875-78.64063l105.67187,99.39063q-61.64062,72.96093-150.95312,110.70312Q11410.40234,941.76563,11300.957,941.76563Z"/>
            <path class="cls-1" d="M11796.77051,929.1875V48.59375h642.84375v138.375h-479.29688V790.8125h496.90625v138.375Zm150.96875-379.92187V414.67188h437.78125V549.26563Z"/>
          </g>
        </g>
      </g>
      <g id="Layer_2-3" data-name="Layer 2">
        <g id="Layer_1-2-3" data-name="Layer 1-2">
          <g>
            <path class="cls-2" d="M0,893.1875V12.59375H134.60938L519.5625,655.42188H449.10938L827.76563,12.59375H962.375l2.51563,880.59375h-157.25V255.375h31.45312L519.5625,793.8125H445.32813L118.25,255.375H156V893.1875Z"/>
            <path class="cls-2" d="M1614.23706,905.76563q-101.90643,0-189.32812-33.96875-87.4455-33.96094-151.59375-95.60938a434.06962,434.06962,0,0,1-99.375-144.03125q-35.22657-82.40625-35.21875-179.26562,0-98.10937,35.21875-180.51563a427.51832,427.51832,0,0,1,99.375-143.42187q64.14843-61.00782,150.95312-94.98439Q1511.08063.00783,1614.23706,0q101.90607,0,188.70313,33.34375,86.78887,33.35157,150.32812,94.35938,63.51545,61.00781,98.75,144.03125,35.22657,83.03906,35.23438,181.15625,0,98.13281-35.23438,180.53125a439.12141,439.12141,0,0,1-98.75,144.03125q-63.53925,61.64063-150.32812,94.98437Q1716.12749,905.7422,1614.23706,905.76563Zm0-143.40625q66.65607,0,122.65625-22.64063a290.37113,290.37113,0,0,0,97.5-64.15625q41.50762-41.5078,64.78125-98.125,23.24982-56.625,23.26563-124.54687-.0002-67.92187-22.64063-124.54688-22.6408-56.60156-64.78125-98.125a297.11741,297.11741,0,0,0-98.125-64.15625q-55.99238-22.64062-122.65625-22.64062-66.67988,0-123.92187,22.64062-57.23457,22.64063-98.75,64.79688a314.35816,314.35816,0,0,0-65.40625,98.125q-23.90625,55.96875-23.90625,123.90625,0,66.67968,23.90625,123.28125,23.90625,56.625,65.40625,98.75,41.50762,42.14063,98.75,64.79687Q1547.54937,762.35938,1614.23706,762.35938Z"/>
            <path class="cls-2" d="M2123.93018,893.1875,2520.21143,12.59375h161.01562L3078.7583,893.1875H2906.41455L2566.7583,99.39063h65.40625L2291.2583,893.1875Zm182.42187-203.79687,45.28125-128.3125h474.26563l44.03125,128.3125Z"/>
            <path class="cls-2" d="M3324.24707,893.1875V150.96875H3032.3877V12.59375h747.25v138.375H3487.77832V893.1875Z"/>
            <path class="cls-2" d="M4249.07129,893.1875V12.59375H4891.915v138.375H4412.61816V754.8125h496.90625v138.375ZM4400.04,513.26563V378.67188h437.78125V513.26563Z"/>
            <path class="cls-2" d="M4975.11426,893.1875l371.10937-512V505.71875L4991.458,12.59375h186.1875l264.1875,363.5625-76.75,1.25,260.40625-364.8125h177.375L5451.89551,496.92188v-118.25L5824.25488,893.1875h-187.4375L5360.05176,505.71875h74.21875L5161.28613,893.1875Z"/>
            <path class="cls-2" d="M5928.84375,893.1875V12.59375h362.3125q116.97657,0,200.64063,37.10938,83.64843,37.125,128.9375,107.5625,45.28125,70.45313,45.29687,168.5625,0,96.89063-45.29687,166.6875-45.28125,69.82031-128.9375,108.1875-83.67187,38.39063-200.64063,38.375H6020.6875l71.70313-75.48438V893.1875Zm163.54688-311.98437L6020.6875,500.6875h262.92188q108.1875,0,162.90625-45.90625,54.70313-45.91406,54.71875-128.95312,0-83.01562-54.71875-128.9375-54.72657-45.91407-162.90625-45.92188H6020.6875l71.70313-80.51562Z"/>
            <path class="cls-2" d="M6829.75586,893.1875V12.59375h642.84375v138.375H6993.30273V754.8125H7490.209v138.375Zm150.96875-379.92187V378.67188h437.78125V513.26563Z"/>
            <path class="cls-2" d="M7674.0293,893.1875V12.59375h361.04687q176.10938,0,276.125,83.65625Q8411.209,179.92188,8411.2168,325.82813q0,96.89063-45.29688,166.0625-45.28125,69.1875-128.9375,106.9375-83.67187,37.73438-200.64062,37.73437H7765.87305l71.70312-72.96875V893.1875Zm163.54687-311.98437-71.70312-79.25h262.92187q108.1875,0,162.90625-46.54688,54.70313-46.54687,54.71875-129.57812,0-83.01562-54.71875-128.9375-54.72656-45.91407-162.90625-45.92188H7765.87305l71.70312-80.51562Zm412.625,311.98437L8027.5293,573.65625h174.85937L8426.31055,893.1875Z"/>
            <path class="cls-2" d="M8593.79492,893.1875V12.59375H8757.3418V893.1875Z"/>
            <path class="cls-2" d="M8993.91016,893.1875V12.59375h642.84375v138.375H9157.457V754.8125h496.90625v138.375Zm150.96875-379.92187V378.67188h437.78125V513.26563Z"/>
            <path class="cls-2" d="M9838.18359,893.1875V12.59375H9972.793l552.26562,679.3125h-66.67187V12.59375h161.01562V893.1875H10484.793l-551-679.3125h66.67187V893.1875Z"/>
            <path class="cls-2" d="M11264.957,905.76563q-101.90625,0-187.4375-33.32813-85.54687-33.32812-149.07812-94.98437a440.47956,440.47956,0,0,1-98.75-143.40625q-35.22657-81.77344-35.21875-181.15625,0-99.375,35.21875-181.15625a436.019,436.019,0,0,1,99.375-143.40625q64.14843-61.64062,149.70312-94.98439Q11164.31641.01563,11266.22266,0q108.1875,0,197.5,37.125,89.29688,37.125,150.95312,110.0625l-105.67187,99.39063q-49.07812-51.5625-108.1875-77.35938-59.13282-25.78125-127.04688-25.79687-69.21093,0-126.4375,22.64062-57.23437,22.64063-99.375,64.15625-42.14062,41.53125-66.04687,98.125-23.90625,56.625-23.90625,124.54688t23.90625,124.54687q23.90625,56.625,66.04687,98.125,42.14063,41.50782,99.375,64.15625,57.23438,22.64063,126.4375,22.64063,67.92188,0,127.04688-25.78125,59.10938-25.78125,108.1875-78.64063l105.67187,99.39063q-61.64062,72.96093-150.95312,110.70312Q11374.40234,905.76563,11264.957,905.76563Z"/>
            <path class="cls-2" d="M11760.77051,893.1875V12.59375h642.84375v138.375h-479.29688V754.8125h496.90625v138.375Zm150.96875-379.92187V378.67188h437.78125V513.26563Z"/>
          </g>
        </g>
      </g>
    </g>
  </g>
</svg>
