<svg xmlns="http://www.w3.org/2000/svg" width="12421.22363" height="905.76563" viewBox="0 0 12421.22363 905.76563">
  <defs>
    <style>
      .cls-1 {
        fill: #fff;
      }
    </style>
  </defs>
  <title>Asset 1</title>
  <g id="Layer_2" data-name="Layer 2">
    <g id="Layer_1-2" data-name="Layer 1">
      <g>
        <path class="cls-1" d="M0,893.1875V12.59375H134.60938L519.5625,655.42188H449.10938L827.76563,12.59375H962.375l2.51563,880.59375h-157.25V255.375h31.45312L519.5625,793.8125H445.32813L118.25,255.375H156V893.1875Z"/>
        <path class="cls-1" d="M1614.23706,905.76563q-101.90625,0-189.32812-33.96875-87.44532-33.96094-151.59375-95.60938a434.06951,434.06951,0,0,1-99.375-144.03125q-35.22657-82.40625-35.21875-179.26562,0-98.10937,35.21875-180.51563a427.5189,427.5189,0,0,1,99.375-143.42187q64.14843-61.00782,150.95312-94.98438Q1511.08081.00782,1614.23706,0q101.90625,0,188.70313,33.34375,86.78905,33.35157,150.32812,94.35938,63.51563,61.00781,98.75,144.03125,35.22657,83.03906,35.23438,181.15625,0,98.13281-35.23438,180.53125a439.1223,439.1223,0,0,1-98.75,144.03125q-63.53905,61.64063-150.32812,94.98437Q1716.12769,905.7422,1614.23706,905.76563Zm0-143.40625q66.65625,0,122.65625-22.64063a290.37106,290.37106,0,0,0,97.5-64.15625q41.50782-41.5078,64.78125-98.125,23.25-56.625,23.26563-124.54687,0-67.92187-22.64063-124.54688-22.64062-56.60156-64.78125-98.125a297.11807,297.11807,0,0,0-98.125-64.15625q-55.99218-22.64062-122.65625-22.64062-66.67968,0-123.92187,22.64062-57.23437,22.64063-98.75,64.79688a314.35777,314.35777,0,0,0-65.40625,98.125q-23.90625,55.96875-23.90625,123.90625,0,66.67968,23.90625,123.28125,23.90625,56.625,65.40625,98.75,41.5078,42.14063,98.75,64.79687Q1547.54957,762.35938,1614.23706,762.35938Z"/>
        <path class="cls-1" d="M2123.93018,893.1875,2520.21143,12.59375h161.01562L3078.7583,893.1875H2906.41455L2566.7583,99.39063h65.40625L2291.2583,893.1875Zm182.42187-203.79687,45.28125-128.3125h474.26563l44.03125,128.3125Z"/>
        <path class="cls-1" d="M3324.24707,893.1875V150.96875H3032.3877V12.59375h747.25v138.375H3487.77832V893.1875Z"/>
        <path class="cls-1" d="M4249.07129,893.1875V12.59375H4891.915v138.375H4412.61816V754.8125h496.90625v138.375ZM4400.04,513.26563V378.67188h437.78125V513.26563Z"/>
        <path class="cls-1" d="M4975.11426,893.1875l371.10937-512V505.71875L4991.458,12.59375h186.1875l264.1875,363.5625-76.75,1.25,260.40625-364.8125h177.375L5451.89551,496.92188v-118.25L5824.25488,893.1875h-187.4375L5360.05176,505.71875h74.21875L5161.28613,893.1875Z"/>
        <path class="cls-1" d="M5928.84375,893.1875V12.59375h362.3125q116.97657,0,200.64063,37.10938,83.64843,37.125,128.9375,107.5625,45.28125,70.45313,45.29687,168.5625,0,96.89063-45.29687,166.6875-45.28125,69.82031-128.9375,108.1875-83.67187,38.39063-200.64063,38.375H6020.6875l71.70313-75.48438V893.1875Zm163.54688-311.98437L6020.6875,500.6875h262.92188q108.1875,0,162.90625-45.90625,54.70313-45.91406,54.71875-128.95312,0-83.01562-54.71875-128.9375-54.72657-45.91407-162.90625-45.92188H6020.6875l71.70313-80.51562Z"/>
        <path class="cls-1" d="M6829.75586,893.1875V12.59375h642.84375v138.375H6993.30273V754.8125H7490.209v138.375Zm150.96875-379.92187V378.67188h437.78125V513.26563Z"/>
        <path class="cls-1" d="M7674.0293,893.1875V12.59375h361.04687q176.10938,0,276.125,83.65625Q8411.209,179.92188,8411.2168,325.82813q0,96.89063-45.29688,166.0625-45.28125,69.1875-128.9375,106.9375-83.67187,37.73438-200.64062,37.73437H7765.87305l71.70312-72.96875V893.1875Zm163.54687-311.98437-71.70312-79.25h262.92187q108.1875,0,162.90625-46.54688,54.70313-46.54687,54.71875-129.57812,0-83.01562-54.71875-128.9375-54.72656-45.91407-162.90625-45.92188H7765.87305l71.70312-80.51562Zm412.625,311.98437L8027.5293,573.65625h174.85937L8426.31055,893.1875Z"/>
        <path class="cls-1" d="M8593.79492,893.1875V12.59375H8757.3418V893.1875Z"/>
        <path class="cls-1" d="M8993.91016,893.1875V12.59375h642.84375v138.375H9157.457V754.8125h496.90625v138.375Zm150.96875-379.92187V378.67188h437.78125V513.26563Z"/>
        <path class="cls-1" d="M9838.18359,893.1875V12.59375H9972.793l552.26562,679.3125h-66.67187V12.59375h161.01562V893.1875H10484.793l-551-679.3125h66.67187V893.1875Z"/>
        <path class="cls-1" d="M11264.957,905.76563q-101.90625,0-187.4375-33.32813-85.54687-33.32812-149.07812-94.98437a440.48023,440.48023,0,0,1-98.75-143.40625q-35.22657-81.77344-35.21875-181.15625,0-99.375,35.21875-181.15625a436.01589,436.01589,0,0,1,99.375-143.40625q64.14843-61.64062,149.70312-94.98438Q11164.31641.01563,11266.22266,0q108.1875,0,197.5,37.125,89.29688,37.125,150.95312,110.0625l-105.67187,99.39063q-49.07812-51.5625-108.1875-77.35938-59.13282-25.78125-127.04688-25.79687-69.21093,0-126.4375,22.64062-57.23437,22.64063-99.375,64.15625-42.14062,41.53125-66.04687,98.125-23.90625,56.625-23.90625,124.54688t23.90625,124.54687q23.90625,56.625,66.04687,98.125,42.14063,41.50782,99.375,64.15625,57.23438,22.64063,126.4375,22.64063,67.92188,0,127.04688-25.78125,59.10938-25.78125,108.1875-78.64063l105.67187,99.39063q-61.64062,72.96093-150.95312,110.70312Q11374.40234,905.76563,11264.957,905.76563Z"/>
        <path class="cls-1" d="M11760.77051,893.1875V12.59375h642.84375v138.375h-479.29688V754.8125h496.90625v138.375Zm150.96875-379.92187V378.67188h437.78125V513.26563Z"/>
      </g>
    </g>
  </g>
</svg>
