<?xml version="1.0" encoding="utf-8"?>
<!-- Generator: Adobe Illustrator 24.2.0, SVG Export Plug-In . SVG Version: 6.00 Build 0)  -->
<svg version="1.1" id="Capa_1" xmlns="http://www.w3.org/2000/svg" xmlns:xlink="http://www.w3.org/1999/xlink" x="0px" y="0px"
	 viewBox="0 0 512 512" style="enable-background:new 0 0 512 512;" xml:space="preserve">
<style type="text/css">
	.st0{fill:#CD0000;}
	.st1{fill:#FF637B;}
	.st2{fill:#00CA7D;}
	.st3{fill:#32FCA5;}
	.st4{fill:#FFCCBD;}
	.st5{fill:#FFBDA9;}
	.st6{fill:#0066B2;}
	.st7{fill:#004692;}
</style>
<g>
	<g>
		<circle class="st0" cx="105" cy="105.5" r="105"/>
		<path class="st1" d="M126.2,105.5l19.6-19.6c5.9-5.9,5.9-15.4,0-21.2c-5.9-5.9-15.4-5.9-21.2,0L105,84.3L85.4,64.6
			c-5.9-5.9-15.4-5.9-21.2,0c-5.9,5.9-5.9,15.4,0,21.2l19.6,19.6l-19.6,19.6c-5.9,5.9-5.9,15.4,0,21.2c5.9,5.9,15.4,5.9,21.2,0
			l19.6-19.6l19.6,19.6c5.9,5.9,15.4,5.9,21.2,0c5.9-5.9,5.9-15.4,0-21.2L126.2,105.5z"/>
	</g>
	<g>
		<circle class="st2" cx="407" cy="105" r="105"/>
		<path class="st3" d="M448.6,74.4c-5.9-5.9-15.4-5.9-21.2,0L397,104.8l-8.4-8.4c-5.9-5.9-15.4-5.9-21.2,0s-5.9,15.4,0,21.2l19,19
			c5.9,5.9,15.4,5.9,21.2,0l41-41C454.5,89.7,454.5,80.3,448.6,74.4L448.6,74.4z"/>
	</g>
	<g>
		<path class="st4" d="M231.5,492h178l10-10c0,0,0-158,0-155.4c0-16.6-12.4-30.7-28.9-32.7L287.5,281v-99c0-18.2-14.8-33-33-33
			s-33,14.8-33,33v178l-31.2-26.2c-13.9-11.7-35.9-10.7-48.7,2.1c-12.9,12.9-12,33,1.9,44.6l78,65.4l0,36L231.5,492z"/>
	</g>
	<g>
		<path class="st5" d="M419.5,326.6V482l-10,10H256V149c17.5,0.8,31.5,15.2,31.5,33v99l103.1,12.8
			C407.1,295.9,419.5,309.9,419.5,326.6z"/>
	</g>
	<path class="st6" d="M419.5,482v20c0,5.5-4.5,10-10,10h-178c-5.5,0-10-4.5-10-10v-20H419.5z"/>
	<path class="st7" d="M419.5,482v20c0,5.5-4.5,10-10,10H256v-30H419.5z"/>
</g>
</svg>
