<svg xmlns="http://www.w3.org/2000/svg" viewBox="0 0 1343.79 198.32"><defs><style>.cls-1{fill:#ee322e;}.cls-2{fill:#2256a6;}</style></defs><g id="Layer_2" data-name="Layer 2"><g id="katman_1" data-name="katman 1"><path class="cls-1" d="M204.05,162.87A10,10,0,0,1,194,152q1.24-14.73,1.88-25.37,1.57-25.54,3.37-70,1.28-30.95,1.27-43.6h0a10,10,0,0,1,10.11-9.95q9.51.1,14,.11,2.94,0,12-.11a10,10,0,0,1,10.05,10.52l-4.35,76.89-2.2,62.72a10,10,0,0,1-10,9.6l-13-.13Q213.8,162.76,204.05,162.87Zm44.52-79a10,10,0,0,1,.36-10.33l20.19-30.68,19-29.75L291.07,8a10,10,0,0,1,8.75-4.94q14.78.16,20.62.17l5.56,0a10,10,0,0,1,8.23,15.72l-33,46.51-4.93,7.46a9.93,9.93,0,0,0-.38,10.36l4.79,8.54,34.41,55.85a10,10,0,0,1-8.56,15.17l-7.8-.07q-7,0-22.08.16a9.94,9.94,0,0,1-9.06-5.53Q274.57,130.72,248.57,83.86Z"/><path class="cls-1" d="M345.29,162.88a8.1,8.1,0,0,1-8.15-9l1.78-14.49,7.2-82.15,3.1-46.53a8.09,8.09,0,0,1,8.16-7.53q16.26.17,26.33.16,8.44,0,24.27-.16a8.13,8.13,0,0,1,8.09,6.81c.56,3.43,1.06,6.24,1.5,8.41q1.05,5.2,5.2,20.39T429.43,65c.38,1.65.79,3.57,1.25,5.75a8.07,8.07,0,0,0,15.6.78l.08-.26Q450.59,58,456.93,41.14t8-22.09q1.18-3.64,3-10a8.14,8.14,0,0,1,7.9-5.9q14.34.15,28.21.16,8.93,0,23.22-.14a8.12,8.12,0,0,1,8.18,8.52q-1.83,34-2.46,59.23-1.51,55.56-1.52,76.41c0,1.67,0,4.11.08,7.34a8.12,8.12,0,0,1-8.18,8.25q-9-.12-13.34-.12-5.84,0-13.36.1a8.09,8.09,0,0,1-8.2-8.5q.78-13.49,1.79-41.58,1.43-39.67,1.43-50.68,0-4.82-.24-13.36L476.09,96.45l-20.21,61a8.13,8.13,0,0,1-7.82,5.53q-10.47-.15-15-.15-5.57,0-15.68.14a8.12,8.12,0,0,1-8-6.3l-13-58.06-8.45-34.33q-.48-2-1.06-4.93T384.94,49l-3,32.46L378.09,148l-.17,7a8.09,8.09,0,0,1-8.2,7.87q-9.39-.12-12.61-.12C354.44,162.78,350.51,162.81,345.29,162.88Z"/><path class="cls-1" d="M538.24,149.27q-.22-3.15-.47-6.11A14.43,14.43,0,0,1,555.7,128c1.09.29,2.15.55,3.19.78a84.69,84.69,0,0,0,18,2.29q10.2,0,16.26-3t6-8.85a12.05,12.05,0,0,0-.59-3.81,15.21,15.21,0,0,0-2.23-4.1,31.5,31.5,0,0,0-4.69-5L569.63,87.07q-7.75-6.55-10.8-9.49a70.87,70.87,0,0,1-9.69-11.13,38.38,38.38,0,0,1-5-10.49,39.43,39.43,0,0,1-1.59-11.31,40.31,40.31,0,0,1,2.52-14,42.75,42.75,0,0,1,7.56-12.83A43.45,43.45,0,0,1,565.94,7.5a59.59,59.59,0,0,1,17.81-5.92A119.38,119.38,0,0,1,603.32,0a210.23,210.23,0,0,1,31.46,2.54A14.51,14.51,0,0,1,647,16c.07,1.18.15,2.33.23,3.44.05.69.1,1.45.17,2.28A14.55,14.55,0,0,1,630,37l-.18,0a84,84,0,0,0-15.35-1.7q-9.15,0-15.18,3.4t-6,8.44a11.76,11.76,0,0,0,.94,4.57,21.13,21.13,0,0,0,3.52,5.21,62,62,0,0,0,6.79,6.57q4.23,3.57,13.25,10.6l8.43,6.68a105.2,105.2,0,0,1,8.09,7.39,80.79,80.79,0,0,1,7.5,8.55,47.79,47.79,0,0,1,4.86,7.73,32.9,32.9,0,0,1,2.52,7.09,34.19,34.19,0,0,1,.82,7.68A43,43,0,0,1,630.63,155a59.87,59.87,0,0,1-20.33,8.61,107.65,107.65,0,0,1-23.38,2.46q-15.13,0-36.58-3.49A14.53,14.53,0,0,1,538.24,149.27Z"/><path class="cls-2" d="M156.38,107.18c6.46-25.54-18.35-46.57-38.82-46.57A36.45,36.45,0,0,0,88.44,75.53C84.12,80.84,69,103.44,65.78,107.37a36.87,36.87,0,0,1-24.8,10C20.5,117.38,1.09,99.9,1.09,72,1.09,72,0,82.8,0,86.33c0,46.18,35.6,81,79.8,80.57,38.83-.21,67.94-28.29,76.58-59.72"/><path class="cls-1" d="M1.09,72.2A80.59,80.59,0,0,1,79.8,7.94c43.14,0,78.73,35.57,78.73,79.6,0,6.86-1.08,13.33-2.15,19.83v-.19c6.46-25.54-18.35-46.57-38.82-46.57A36.45,36.45,0,0,0,88.44,75.53C84.12,80.84,69,103.44,65.78,107.37a36.87,36.87,0,0,1-24.8,10C20.5,117.38,1.09,99.9,1.09,72v.19"/><path class="cls-2" d="M656.74,160.8l5.87-11.55,36.57-78.1,3.89-8.74q1.7-3.84,4.74-11.06,12.44.16,18.16.16,10,0,18.46-.16l10.31,33.44,21,64.3,4.09,11.71q-12.24-.17-14.86-.16-5.94,0-17.48.16-3.11-13.23-9-31.11H702.93q-6.15,14.12-12.72,31.11c-8.78-.11-14.15-.16-16.14-.16Q668.7,160.64,656.74,160.8Zm54.73-54.45h22q-8.17-28.25-9-31.13Q719.81,87,716.56,94.51Z"/><path class="cls-2" d="M858.29,160.8q-8.07-.17-13.44-.16-6.66,0-13.37.16l-.08-11a47.29,47.29,0,0,1-4.31,5.42,22.78,22.78,0,0,1-3.86,3.16,25.11,25.11,0,0,1-4.66,2.37,29.77,29.77,0,0,1-5.94,1.56,40.67,40.67,0,0,1-6.82.56,36.84,36.84,0,0,1-10.57-1.48,21.81,21.81,0,0,1-8.76-5,18,18,0,0,1-5.16-8A35.55,35.55,0,0,1,779.94,138c0-1,.07-2.46.21-4.49l1.13-18.2q.5-10,.92-22.22.27-7.46.28-14.11,8.76.16,14.92.16t13.71-.16l-2.19,30.55q-.49,7-.53,9.5c0,1.69,0,2.82,0,3.41q0,8.42,3,11.39a9.87,9.87,0,0,0,7.19,3,10.58,10.58,0,0,0,3.4-.56,13.39,13.39,0,0,0,3.27-1.6,12.23,12.23,0,0,0,2.48-2.41,15.89,15.89,0,0,0,2.12-3.68,26.4,26.4,0,0,0,1.7-5.7,94.89,94.89,0,0,0,1.21-10.74q.27-4.74.76-16.36l.55-16.76q9.12.16,15,.16c4.37,0,8.78,0,13.2-.16q-1.62,20.37-2.53,38.73T858.29,160.8Z"/><path class="cls-2" d="M919.61,137.23q-1.27,6.74-2.19,13.15l-1.56,9.78a96,96,0,0,1-10.92,2.24,62.54,62.54,0,0,1-7.6.48,44,44,0,0,1-10.67-1.16,16.36,16.36,0,0,1-7.78-4.25,15.91,15.91,0,0,1-4.24-7.09,31,31,0,0,1-1.13-8.5c0-.54,0-1.49.07-2.85s.21-4.4.49-9.1l1.54-27.74h-11q.35-5.53.63-14.6l.21-7.45h11.72q.42-3.69,1.05-16.12l12.11-2.81q3.31-.72,14.15-3.69Q904,68,903.77,80.14H919.9q-.57,16.67-.57,22H903.06l-.85,20c-.09,3-.14,4.92-.14,5.77a23.69,23.69,0,0,0,.74,6.42,6,6,0,0,0,2.62,3.69,7.89,7.89,0,0,0,4.14,1.12,23,23,0,0,0,3.53-.28A54.37,54.37,0,0,0,919.61,137.23Z"/><path class="cls-2" d="M963.49,76.85a47.52,47.52,0,0,1,16.86,3A37.05,37.05,0,0,1,994,88.67a35.85,35.85,0,0,1,8.24,13.39,50,50,0,0,1,2.65,16.48,55.44,55.44,0,0,1-2.37,16.32,41.46,41.46,0,0,1-8,14.51,34.6,34.6,0,0,1-14.39,10.15,52.16,52.16,0,0,1-35.74.4,36,36,0,0,1-13.82-8.66,36.69,36.69,0,0,1-8.34-13.63,49.76,49.76,0,0,1-2.8-16.68,51.17,51.17,0,0,1,2.72-16.68A39.59,39.59,0,0,1,930.79,90a39.16,39.16,0,0,1,14.6-9.74A49,49,0,0,1,963.49,76.85Zm-.5,23.57a13.09,13.09,0,0,0-8.06,2.65,16,16,0,0,0-5.33,7.74,32.8,32.8,0,0,0-1.81,11.1q0,8.82,3.89,13.51a12.15,12.15,0,0,0,9.76,4.69,12.87,12.87,0,0,0,8-2.68,16.36,16.36,0,0,0,5.34-7.94,34.53,34.53,0,0,0,1.8-11.27,27,27,0,0,0-1.41-9,13.35,13.35,0,0,0-4.64-6.41A12.17,12.17,0,0,0,963,100.42Z"/><path class="cls-2" d="M1006,198.32q1.35-16.42,2.26-32.79,1.62-28,2.22-46.95t.61-37.56q14.34-2.49,22.48-3.33a158.11,158.11,0,0,1,16.26-.84,69.2,69.2,0,0,1,18.74,2.4,27.3,27.3,0,0,1,13.75,8.5,40.7,40.7,0,0,1,7.82,14.52,59.21,59.21,0,0,1,2.61,17.64,62.74,62.74,0,0,1-2.12,16.31,45.56,45.56,0,0,1-6.5,14.24,29.08,29.08,0,0,1-10.06,9.38,26.43,26.43,0,0,1-12.68,3,37.26,37.26,0,0,1-19.75-5.89,64.88,64.88,0,0,1-5.54-4.29l-.79,22.37q-.49,15.41-.5,23.25-8.2-.15-14.08-.16Q1015.65,198.16,1006,198.32Zm32.59-96.86c-.37,2.41-.64,4.37-.78,5.9s-.28,3.58-.42,6.17-.22,4.67-.22,6.22a29.31,29.31,0,0,0,1.81,11,15.85,15.85,0,0,0,5,6.9,11.16,11.16,0,0,0,6.89,2.44,11.41,11.41,0,0,0,7.15-2.52,16.9,16.9,0,0,0,5.16-7.58,32.08,32.08,0,0,0,1.91-11.39q0-8.58-4-13.79t-11.63-5.21A38,38,0,0,0,1038.61,101.46Z"/><path class="cls-2" d="M1102.64,102.27c.9-5.3,1.46-8.94,1.7-11s.61-5.14,1.13-9.42q20.35-5.06,35-5.05A52.14,52.14,0,0,1,1155.74,79a21.91,21.91,0,0,1,10.82,6.86q3.89,4.73,3.89,13.55,0,4.49-1.06,20.21t-1.62,41.21q-6.93-.17-13.79-.16-6.66,0-14.15.16,1-8.82,2.14-36.4-2.68,1.44-4.2,2.08c-1,.43-2.79,1.07-5.32,1.93s-4.53,1.57-6,2.16a13.81,13.81,0,0,0-3.74,2.24,8.71,8.71,0,0,0-2.26,2.81,7.47,7.47,0,0,0-.67,3.21,6.36,6.36,0,0,0,1.91,4.65q1.9,1.92,6.08,1.92a19.2,19.2,0,0,0,3.18-.28,25.71,25.71,0,0,0,4.67-1.4q-2.06,6.18-4.88,18a63.42,63.42,0,0,1-11.52,1.12q-8.77,0-14.6-2.76a19.17,19.17,0,0,1-9-8.94,27,27,0,0,1-3.15-12.35,23.82,23.82,0,0,1,1.17-7.38,25.34,25.34,0,0,1,3.64-7,26.16,26.16,0,0,1,5.79-5.9,38.25,38.25,0,0,1,9.08-4.61,109,109,0,0,1,14.6-4.09c2.45-.53,4.7-1.11,6.75-1.72a27.52,27.52,0,0,0,4.38-1.6,7.27,7.27,0,0,0,2.12-1.61,5.71,5.71,0,0,0,1.16-1.92,6.27,6.27,0,0,0,.36-2.13,5.47,5.47,0,0,0-2.26-4.69q-2.27-1.63-6.65-1.64Q1120.52,94.49,1102.64,102.27Z"/><path class="cls-2" d="M1176.35,160.8l2.19-35.6.71-20.45c0-3.69.07-7.46.07-11.3s0-8.74-.14-14.52q8.55.16,13.57.16,5.88,0,13.51-.16L1206,88a55.26,55.26,0,0,1,4.53-5.25,23.63,23.63,0,0,1,4-3.13,18.11,18.11,0,0,1,4.74-2.08,19.55,19.55,0,0,1,5.17-.68,23,23,0,0,1,5.65.8q.08,8.75.36,14.43l.49,12.35a23.38,23.38,0,0,0-7.27-1.28,17.52,17.52,0,0,0-7.31,1.4,15.29,15.29,0,0,0-5.44,4.25,21.56,21.56,0,0,0-3.78,7.1q-1.41,4.25-2,13.47t-.57,21.09c0,2.78.1,6.22.29,10.34q-6.87-.17-13.8-.16T1176.35,160.8Z"/><path class="cls-2" d="M1284,137.23q-1.27,6.74-2.19,13.15l-1.56,9.78a96,96,0,0,1-10.92,2.24,62.66,62.66,0,0,1-7.6.48,44.17,44.17,0,0,1-10.68-1.16,16.33,16.33,0,0,1-7.77-4.25,15.91,15.91,0,0,1-4.24-7.09,31,31,0,0,1-1.14-8.5c0-.54,0-1.49.07-2.85s.22-4.4.5-9.1l1.54-27.74h-11q.35-5.53.63-14.6l.21-7.45h11.72q.42-3.69,1-16.12l12.11-2.81q3.32-.72,14.15-3.69-.49,10.51-.71,22.62h16.12q-.55,16.67-.56,22h-16.27l-.85,20c-.1,3-.14,4.92-.14,5.77a23.69,23.69,0,0,0,.74,6.42,6,6,0,0,0,2.62,3.69,7.89,7.89,0,0,0,4.14,1.12,23,23,0,0,0,3.53-.28A54.37,54.37,0,0,0,1284,137.23Z"/><path class="cls-2" d="M1285.25,159.28q-.29-3.54-.57-7.42c-.19-2.59-.49-6.16-.92-10.71l-.56-5.77a102.28,102.28,0,0,0,11.77,4.53,31.87,31.87,0,0,0,9.1,1.49,18,18,0,0,0,5.61-.73,6.14,6.14,0,0,0,3.14-2.08,4.74,4.74,0,0,0,1-2.81,4.92,4.92,0,0,0-.74-2.52,16.06,16.06,0,0,0-3.35-3.41q-5.79-4.81-10.19-8.74a46.9,46.9,0,0,1-6.63-7,23.54,23.54,0,0,1-3.38-6.57,23,23,0,0,1-1.16-7.3,24.38,24.38,0,0,1,3.35-12.43,19.37,19.37,0,0,1,9.9-8.38,43.35,43.35,0,0,1,16-2.6q9.82,0,25.09,2.88l1.14,22.46a40.07,40.07,0,0,0-16.48-3.85q-5.58,0-8.09,1.3a4.23,4.23,0,0,0-2.51,4,4.94,4.94,0,0,0,.28,1.68,5.48,5.48,0,0,0,1,1.69,14.25,14.25,0,0,0,1.83,1.8q1.1.93,5.34,4.29t6.65,5.53a38.6,38.6,0,0,1,6,6.54,24.13,24.13,0,0,1,3.18,6.41,23.39,23.39,0,0,1,1.1,7.18,22.57,22.57,0,0,1-2.44,10.46,20.88,20.88,0,0,1-7.35,8,31.64,31.64,0,0,1-10.64,4.45,55.49,55.49,0,0,1-11.81,1.24,81.78,81.78,0,0,1-10.29-.8A134.54,134.54,0,0,1,1285.25,159.28Z"/></g></g></svg>