<svg xmlns="http://www.w3.org/2000/svg" viewBox="0 0 26.06 31.67"><defs><style>.cls-1{fill:#272525;}</style></defs><g id="Layer_2" data-name="Layer 2"><g id="Layer_1-2" data-name="Layer 1"><path class="cls-1" d="M19.05,31.51h0a.56.56,0,0,0,.4-.17l6.33-6A.58.58,0,0,0,26,25a.6.6,0,0,0,.1-.35V2.5A2.5,2.5,0,0,0,23.57,0H2.5A2.5,2.5,0,0,0,0,2.5V29.17a2.5,2.5,0,0,0,2.5,2.5H18.6A.71.71,0,0,0,19.05,31.51Zm.59-2v-2.3a1.72,1.72,0,0,1,1.72-1.71h2.53Zm-1.73.73H2.5a1.11,1.11,0,0,1-1.11-1.11V2.5A1.11,1.11,0,0,1,2.5,1.39H23.57A1.11,1.11,0,0,1,24.68,2.5V23.9H21.44a3.54,3.54,0,0,0-3.53,3.53Z"/><path class="cls-1" d="M5.4,9.22H20.67a.69.69,0,0,0,.69-.7V7.28a.69.69,0,0,0-.69-.69H5.4a.69.69,0,0,0-.7.69V8.52A.7.7,0,0,0,5.4,9.22Zm.14-1.8h15v1h-15Z"/><path class="cls-1" d="M5.4,13.56H20.67a.69.69,0,0,0,.69-.69V11.63a.69.69,0,0,0-.69-.7H5.4a.7.7,0,0,0-.7.7v1.24A.69.69,0,0,0,5.4,13.56Zm.14-1.79h15v1h-15Z"/><path class="cls-1" d="M21.36,17.22V16a.69.69,0,0,0-.69-.69H5.4a.69.69,0,0,0-.7.69v1.25a.69.69,0,0,0,.7.69H20.67A.69.69,0,0,0,21.36,17.22Zm-.83-.14h-15v-1h15Z"/></g></g></svg>