<svg xmlns="http://www.w3.org/2000/svg" viewBox="0 0 28.37 28.43"><defs><style>.cls-1{fill:#272525;}</style></defs><g id="Layer_2" data-name="Layer 2"><g id="Layer_1-2" data-name="Layer 1"><path class="cls-1" d="M15.69.07a.51.51,0,0,0-.39.16.53.53,0,0,0-.16.38l-.07,10.67a.55.55,0,0,0,.33.5.52.52,0,0,0,.21,0,.56.56,0,0,0,.39-.17l7.53-7.76a.54.54,0,0,0,0-.77A12.14,12.14,0,0,0,15.69.07Zm.47,9.87.05-8.76a11.11,11.11,0,0,1,6.15,2.37Z"/><path class="cls-1" d="M26.5,20.25l-12-6.36V.55A.53.53,0,0,0,14,0h-.29C6,0,0,6.24,0,14.21A14.24,14.24,0,0,0,14.21,28.43c5.31,0,10.58-3.15,12.53-7.48A.54.54,0,0,0,26.5,20.25Zm-12.29,7.1A13.15,13.15,0,0,1,1.08,14.21c0-7.27,5.39-13,12.33-13.13V14.21a.55.55,0,0,0,.28.48L25.54,21C23.6,24.69,18.93,27.35,14.21,27.35Z"/><path class="cls-1" d="M26.32,6.62a13.14,13.14,0,0,0-1-1.32.4.4,0,0,0-.21-.12A.31.31,0,0,0,25.06,5c-.17-.2-.33-.36-.47-.51a.31.31,0,0,0-.26-.1.33.33,0,0,0-.25.1L23,5.54a.38.38,0,0,0-.09.15l-.12.37a.36.36,0,0,0-.38.08l-2,2a.32.32,0,0,0-.08.14l-.12.37a.36.36,0,0,0-.38.09l-2,2a.29.29,0,0,0-.08.14l-.12.38a.36.36,0,0,0-.38.08L15.75,13a.35.35,0,0,0-.1.31.38.38,0,0,0,.19.26l.91.49a.33.33,0,0,0,.17,0h0a.38.38,0,0,0,.14.14l1.14.61a.35.35,0,0,0,.17,0h0a.32.32,0,0,0,.14.14l1.14.61a.37.37,0,0,0,.17,0h0a.4.4,0,0,0,.14.15l1.14.61a.38.38,0,0,0,.17,0h0a.34.34,0,0,0,.14.15l1.15.61a.33.33,0,0,0,.17,0h0a.38.38,0,0,0,.14.14l1.15.61a.34.34,0,0,0,.17,0h0a.5.5,0,0,0,.14.15l1.15.61a.33.33,0,0,0,.17,0h0A.29.29,0,0,0,26,19l.67.36a.33.33,0,0,0,.17,0,.18.18,0,0,0,.1,0,.37.37,0,0,0,.22-.17,12.58,12.58,0,0,0,1.23-5.78c0-.21,0-.43,0-.66a.35.35,0,0,0-.27-.33l.16-.49a.3.3,0,0,0,0-.16,11.78,11.78,0,0,0-.6-2.46.36.36,0,0,0-.25-.23l0-.11a.39.39,0,0,0,0-.24,12.79,12.79,0,0,0-.84-1.7.37.37,0,0,0-.22-.17A.37.37,0,0,0,26.32,6.62Zm-9.61,6.61-.11-.06.19-.2Zm1.48.79-.5-.26.8-2.53.85-.88Zm1.48.8-.5-.27L21,8.61l.86-.89Zm1.48.79-.5-.27L23.59,6l.74-.76.06.07Zm1.48.79-.5-.26,3.09-9.85c.14.19.28.38.41.58Zm4,2.16-.08,0,.94-3A11.12,11.12,0,0,1,26.66,18.56Zm.87-6.74L25.59,18l-.49-.27,2.21-7A11.45,11.45,0,0,1,27.53,11.82ZM26.37,8.16c.12.24.24.5.34.75l-2.6,8.29-.49-.27Z"/></g></g></svg>