<svg xmlns="http://www.w3.org/2000/svg" viewBox="0 0 28.17 32.22"><defs><style>.cls-1{fill:#272525;}</style></defs><g id="Layer_2" data-name="Layer 2"><g id="Layer_1-2" data-name="Layer 1"><path class="cls-1" d="M24.35,4.05a1.38,1.38,0,0,0,.8.25A1.37,1.37,0,0,0,26,1.82,1.37,1.37,0,0,0,24,2.13h0A1.38,1.38,0,0,0,24.35,4.05Zm.71-1.18a.12.12,0,0,1,.16,0,.11.11,0,0,1,0,.16.1.1,0,0,1-.15,0A.11.11,0,0,1,25.06,2.87Z"/><path class="cls-1" d="M.18,27.32a.62.62,0,0,0,.92.53c.39-.19,1.43-.92,1.88-.78s.46.54.76.85a1.86,1.86,0,0,0,1.34.71c.38,0,.81-.17,1.18-.11,1.06.17.82.59,1.25,1.14a1.53,1.53,0,0,0,1.39.61c.54,0,.71-.21,1.25.05s.53.58.89,1.06a1.83,1.83,0,0,0,1.22.82c1.26.19,2.31-1,3.13-1.79a.49.49,0,0,0,.14-.19l.05,0,1.52-2.42a.56.56,0,0,0,.07-.18v0l4.68-8.28a.61.61,0,0,0,.05-.12v0a.69.69,0,0,0,0-.13v0l.14-6.37,5.71-7.94a.54.54,0,0,0,.07-.13c0-.11,1-2.62-.75-4l0,0L27,.55l0,0-.06,0a.1.1,0,0,0-.05,0C25-.8,23,.94,22.87,1l-.1.11-5.72,8-5.44,2.48a.55.55,0,0,0-.31.18L5.83,17.53a.45.45,0,0,0-.13.11L2.8,21a.58.58,0,0,0-.18.17l-2,2.78a.81.81,0,0,0-.16.16,1.82,1.82,0,0,0-.15.27l0,.07h0A4.8,4.8,0,0,0,.18,27.32ZM17.72,10.16A.62.62,0,0,0,18,10l2.31-3.22,3.46-4.81a3.38,3.38,0,0,1,1-.54,2.12,2.12,0,0,1,.36-.1l.19,0a1.43,1.43,0,0,1,.94.25l0,0h0l0,0a1.72,1.72,0,0,1,.27.27,1.61,1.61,0,0,1,.17.28,2.13,2.13,0,0,1,.15.82h0c0,.11,0,.23,0,.33a2.68,2.68,0,0,1-.09.46c0,.13-.06.24-.08.3L22.47,10,21,12.1a.55.55,0,0,0-.12.35l-.12,5.37-5.13-3.68L13,12.3ZM11.84,13l8.65,6.21-1.77,3.12L17,25.45h0a2.56,2.56,0,0,0-.11-.24L16.71,25c-.09-.13-.18-.25-.28-.37s-.21-.22-.32-.32a4.82,4.82,0,0,0-2-1.05,7.6,7.6,0,0,0-.88-.18h-.7a1.67,1.67,0,0,1-.62-.2.85.85,0,0,1-.19-.14,1.1,1.1,0,0,1-.2-.23,1.89,1.89,0,0,1-.25-.85,1.36,1.36,0,0,1,0-.21v-.27h0s0,0,0-.07a2.7,2.7,0,0,0,.07-.35v0s0-.08,0-.12,0-.09,0-.14a5.26,5.26,0,0,0,.05-1.15,2.75,2.75,0,0,0-.06-.44A1.91,1.91,0,0,0,11,18a1.27,1.27,0,0,0-.27-.23,1.15,1.15,0,0,0-.66-.17,1.27,1.27,0,0,0-.34.05,4.06,4.06,0,0,0-1.46.84l-.14.12L8,18.71a1.76,1.76,0,0,1-.42.17l-.15,0-.13,0H7.17l-.1,0c-.1-.05-.2-.24-.24-.61ZM1.51,24.72l.08,0L3.53,22a.43.43,0,0,0,.1-.09l2.22-2.55a1.47,1.47,0,0,0,.63.63,2.6,2.6,0,0,0,2.35-.34l.06-.05c.73-.63,1.07-.72,1.16-.73a4.12,4.12,0,0,1-.07,2S10,21,10,21a3.16,3.16,0,0,0,.9,2.63,3.06,3.06,0,0,0,2.23.65,3.6,3.6,0,0,1,2.55,1.34,2.26,2.26,0,0,1,.33,1.6l-1.44,2.3h0c-.6.56-1.61,1.87-2.54,1.06-.41-.36-.43-1.08-.91-1.45a1.82,1.82,0,0,0-1.26-.32,1.35,1.35,0,0,1-.93,0c-.39.07-.6-.07-.65-.42-.23-.23-.22-.49-.48-.72a1.88,1.88,0,0,0-1.3-.41,7,7,0,0,1-1,.11c-1.33-.22-.64-.56-1.23-1-1-.78-1.9-.47-2.91,0l-.06,0a.11.11,0,0,1,0-.05A2.23,2.23,0,0,1,1.51,24.72Z"/></g></g></svg>