<svg xmlns="http://www.w3.org/2000/svg" viewBox="0 0 803.33 286.74"><defs><style>.cls-1{fill:#fff;}</style></defs><g id="Layer_2" data-name="Layer 2"><g id="Layer_1-2" data-name="Layer 1"><path class="cls-1" d="M140.29,31a4.74,4.74,0,0,0-1.41.24,4.83,4.83,0,0,0-3.44,4.61c0,.07,0,.14,0,.21a4.85,4.85,0,0,0,4.83,4.64,5.49,5.49,0,0,0,.72-.07,4.74,4.74,0,0,0,1.86-.69,4.69,4.69,0,0,0,2-2.64,4.65,4.65,0,0,0,.25-1.45,4.94,4.94,0,0,0-.38-1.89A4.85,4.85,0,0,0,140.29,31Z"/><path class="cls-1" d="M84.42,37a5.42,5.42,0,0,0,.06-.58c0-.09,0-.17,0-.26a4.84,4.84,0,1,0-7.39,4.36,4.78,4.78,0,0,0,2.57.75,4.5,4.5,0,0,0,1-.1,4.84,4.84,0,0,0,3-1.94A4.77,4.77,0,0,0,84.42,37Z"/><path class="cls-1" d="M209.14,33.84a4.85,4.85,0,0,0-4.85,4.85,4.34,4.34,0,0,0,.06.63,4.81,4.81,0,0,0,1.35,2.78s.1.09.15.14a4.86,4.86,0,0,0,2.69,1.24,3.93,3.93,0,0,0,.6.06,4.88,4.88,0,0,0,4.71-3.73,5.12,5.12,0,0,0,.14-1.12A4.86,4.86,0,0,0,209.14,33.84Z"/><path class="cls-1" d="M650.3,36.7a4.75,4.75,0,0,0-1.42-.24,4.88,4.88,0,0,0-4.48,3,4.94,4.94,0,0,0-.38,1.89,4.71,4.71,0,0,0,.25,1.46,4.84,4.84,0,0,0,1.3,2.09,6.24,6.24,0,0,0,.72.55,4.69,4.69,0,0,0,1.87.69,4.29,4.29,0,0,0,.72.08,4.85,4.85,0,0,0,4.84-4.66,1.36,1.36,0,0,0,0-.21A4.81,4.81,0,0,0,652.43,38,4.74,4.74,0,0,0,650.3,36.7Z"/><path class="cls-1" d="M577,38.39a4.86,4.86,0,0,0-.16,9.71H577a4.89,4.89,0,0,0,4.63-3.45,4.74,4.74,0,0,0,.24-1.41A5,5,0,0,0,577,38.39Z"/><path class="cls-1" d="M690.12,47.31a4.86,4.86,0,0,0,0,9.72,4.53,4.53,0,0,0,.91-.09l.18-.06.87-.27a4.06,4.06,0,0,0,.74-.4,4.86,4.86,0,0,0-2.7-8.9Z"/><polygon class="cls-1" points="401.66 0 401.66 0 401.66 0 401.66 0"/><path class="cls-1" d="M293.41,246.6l-2-3-7.35,4.92-1.37-2,7.35-4.93-2-3,1.81-1.22,5.36,8Z"/><path class="cls-1" d="M293.55,252.09a6,6,0,1,1,.25,8.3A5.71,5.71,0,0,1,293.55,252.09Zm6.78,6.58a3.49,3.49,0,1,0-5,.13A3.42,3.42,0,0,0,300.33,258.67Z"/><path class="cls-1" d="M317.19,267.87l-2.3-1.42a3.22,3.22,0,0,0-1.67-2.71,3.41,3.41,0,0,0-4.83,1.17,3.44,3.44,0,0,0,1.1,4.88,3.13,3.13,0,0,0,3.82-.16l-2.87-1.77,1.09-1.77,5.11,3.14-.34.56a5.88,5.88,0,1,1-1.94-8A5.6,5.6,0,0,1,317.19,267.87Z"/><path class="cls-1" d="M323.49,267l7.66,2.92-.77,2L325,269.89l-.8,2.1,4.92,1.88-.76,2L323.46,274l-.85,2.21,5.48,2.09-.77,2-7.77-3Z"/><path class="cls-1" d="M344.46,275.3l-3.51-.72-1.77,8.67-2.41-.49,1.77-8.67-3.51-.72.43-2.13,9.44,1.92Z"/><path class="cls-1" d="M359.32,274l-.37,11-2.46-.09.15-4.47-4.87-.17-.15,4.48-2.46-.08.37-11,2.46.08-.15,4.37,4.87.17.15-4.37Z"/><path class="cls-1" d="M364.6,273.71l8.14-1,.27,2.12-5.69.73.28,2.23,5.22-.67.27,2.12-5.22.67.31,2.35,5.81-.75.27,2.12L366,284.65Z"/><path class="cls-1" d="M387.19,280.34l-3-2.73-1.88.56,1,3.33-2.36.7-3.12-10.58,4.25-1.25c2.69-.8,4.68.17,5.33,2.36a3.45,3.45,0,0,1-1,3.73l3.57,3.07Zm-5.53-4.26,1.79-.53c1.25-.37,1.84-1.12,1.55-2.12s-1.21-1.31-2.45-.94l-1.79.53Z"/><path class="cls-1" d="M405.23,269.2l4,1.43c2.7,1,3.75,3,2.93,5.32s-2.95,3.26-5.65,2.29l-1.67-.59-1,2.76-2.31-.83Zm1.9,7c1.29.46,2.28.12,2.7-1s-.16-2-1.44-2.48l-1.57-.56-1.26,3.52Z"/><path class="cls-1" d="M416.56,278.72a6,6,0,1,1,4.92,6.7A5.72,5.72,0,0,1,416.56,278.72Zm9.32,1.57a3.49,3.49,0,1,0-4,2.94A3.42,3.42,0,0,0,425.88,280.29Z"/><path class="cls-1" d="M433.55,281.06a5.68,5.68,0,0,1,5.79-5.9,5.28,5.28,0,0,1,5.58,4.06l-2.49,0a2.83,2.83,0,0,0-3-1.84,3.53,3.53,0,0,0,.12,7.06,3.09,3.09,0,0,0,3-2.09l2.49-.05a5.49,5.49,0,0,1-5.54,4.4A5.67,5.67,0,0,1,433.55,281.06Z"/><path class="cls-1" d="M459.25,272.86l2.14,10.82-2.41.48-.87-4.39-4.78,1,.87,4.39-2.41.48-2.15-10.82,2.41-.48.85,4.29,4.78-.95-.85-4.29Z"/><path class="cls-1" d="M473.81,277.2l-4,1.55.06,2.28-2.37.92,0-11.83,2.39-.93,8,8.72-2.56,1Zm-1.48-1.72-2.69-3.08.11,4.09Z"/><path class="cls-1" d="M479.76,270.85a5.67,5.67,0,0,1,2-8,5.27,5.27,0,0,1,6.87.63l-2.11,1.31a2.86,2.86,0,0,0-3.52-.05,3.53,3.53,0,0,0,3.71,6,3.08,3.08,0,0,0,1.54-3.35l2.12-1.31a5.49,5.49,0,0,1-2.51,6.61A5.68,5.68,0,0,1,479.76,270.85Z"/><path class="cls-1" d="M497.41,250.55l7.55,8-1.79,1.69L500.1,257l-3.54,3.33,3.07,3.26-1.79,1.69-7.56-8,1.79-1.69,3,3.18,3.54-3.34-3-3.18Z"/><path class="cls-1" d="M511.87,246.13l-2.42,3.53,1.33,1.85-1.44,2.09-6.68-9.75,1.44-2.11,11.52,2.7-1.55,2.26Zm-2.2-.58-3.95-1,2.4,3.31Z"/><path class="cls-1" d="M515.7,109a58.72,58.72,0,0,0-57-48.53,58.72,58.72,0,0,0-112.87-3.7,58.75,58.75,0,0,0-38.49,105.62,59.51,59.51,0,0,0-3.57,15.35,58.73,58.73,0,0,0,92.44,53.43,59,59,0,0,0,39.16,13.31,58.73,58.73,0,0,0,54.29-75.88A58.81,58.81,0,0,0,515.7,109ZM397.84,210.15c-.47-.68-.92-1.36-1.36-2.06l-.21-.37a42.55,42.55,0,0,1,1.63-46.41c.55-.78,1.12-1.55,1.72-2.3s1.21-1.43,1.85-2.12a42.7,42.7,0,0,1,16-10.81,47.88,47.88,0,0,0,48,20.3,45.89,45.89,0,0,0,4.6-1,42.54,42.54,0,0,1-70.49,47.06C398.94,211.66,398.38,210.92,397.84,210.15ZM340.6,72.88A42.37,42.37,0,0,1,353,74.38q0,.89,0,1.77a48,48,0,0,0,31.12,43.45,42.38,42.38,0,0,1-2.94,11.88,41.44,41.44,0,0,1-3.46,6.69,47.88,47.88,0,0,0-54.14,15.68,42.54,42.54,0,0,1,17-81Zm18-2.35a42.54,42.54,0,0,1,84.84,2.69c0,.07,0,.14,0,.21,0,.88,0,1.75,0,2.61s-.09,1.94-.19,2.89a42.63,42.63,0,0,1-28.52,36c-.91.32-1.84.59-2.78.84s-1.81.46-2.74.64a42.42,42.42,0,0,1-19.48-.68c-.91-.25-1.8-.53-2.68-.83s-1.85-.68-2.75-1.07a42.58,42.58,0,0,1-25.88-37.59c0-.09,0-.18,0-.27,0-.89,0-1.77,0-2.65S358.53,71.46,358.62,70.53Zm-33.09,89.95c.49-.78,1-1.55,1.56-2.3s1.16-1.52,1.78-2.26a42.61,42.61,0,0,1,5.47-5.44,42.17,42.17,0,0,1,25.74-9.74,44.09,44.09,0,0,1,5.38.17,43.09,43.09,0,0,1,9,1.84c.92.29,1.82.61,2.71,1s1.72.7,2.56,1.1a42.31,42.31,0,0,1,14.55,11.35c.14.16.26.33.39.5a48,48,0,0,0-2.73,54.26c.26.41.53.82.8,1.22a43.85,43.85,0,0,1-4.14,3.91,42.53,42.53,0,0,1-63-55.57Zm146.84-1.61c-.87.34-1.75.64-2.65.92s-1.83.54-2.78.76-1.63.37-2.46.52a42.57,42.57,0,0,1-41.63-16.67c-.57-.77-1.12-1.56-1.63-2.38s-1-1.58-1.42-2.39a42.49,42.49,0,0,1-5.22-19A48.06,48.06,0,0,0,448.8,77.46c.3-.06.6-.13.91-.18a42.54,42.54,0,0,1,22.66,81.59Z"/><path class="cls-1" d="M317.47,136.72a2.7,2.7,0,1,0,3.25,4.3c.92-.69,22.53-17.46,24-58.18a2.7,2.7,0,1,0-5.39-.19C338,120.63,317.69,136.55,317.47,136.72Z"/><path class="cls-1" d="M324.51,100.45a1.93,1.93,0,0,0,.77,2.21,1.93,1.93,0,0,0,2.34-.16,18,18,0,0,0,5.55-11.16,1.93,1.93,0,0,0-3.85-.29,12,12,0,0,1-1.22,4.38c-.37-2.13-.88-4-1.06-4.67a1.93,1.93,0,0,0-3.71,1C324.23,95,324.94,99.18,324.51,100.45Z"/><path class="cls-1" d="M314,122.68c.57-.33,2.27-1.33,4-2.6a12.11,12.11,0,0,1-2.19,4,1.92,1.92,0,0,0,.24,2.71,1.86,1.86,0,0,0,1.29.45,1.93,1.93,0,0,0,1.42-.68,18,18,0,0,0,3.84-11.87A1.93,1.93,0,0,0,319,114c-.58,1.2-4,3.71-6.89,5.35a1.93,1.93,0,1,0,1.92,3.34Z"/><path class="cls-1" d="M331.39,170c32.8,19.13,37.27,44.5,37.32,44.81a2.69,2.69,0,0,0,2.74,2.27l.34,0A2.7,2.7,0,0,0,374,214c-.18-1.14-4.74-28.1-39.93-48.63a2.7,2.7,0,1,0-2.72,4.66Z"/><path class="cls-1" d="M336.14,179.51a1.93,1.93,0,0,0-2.07,3.25,12.08,12.08,0,0,1,3.28,3.15,46.24,46.24,0,0,0-4.61-1.27,1.93,1.93,0,0,0-.83,3.76c3.22.71,7.26,2.08,8.17,3a1.91,1.91,0,0,0,1.46.6,1.85,1.85,0,0,0,.85-.22,2,2,0,0,0,1-2.14A18,18,0,0,0,336.14,179.51Z"/><path class="cls-1" d="M351.75,199.83a1.93,1.93,0,0,0-2.35,2.89c.78,1.08,1.36,5.3,1.45,8.59a1.93,1.93,0,0,0,2,1.87h0a1.92,1.92,0,0,0,1.86-2,45,45,0,0,0-.38-4.77,12.14,12.14,0,0,1,2.48,3.82,1.93,1.93,0,1,0,3.58-1.42A17.94,17.94,0,0,0,351.75,199.83Z"/><path class="cls-1" d="M411.62,214.17a2.72,2.72,0,0,0,1.75.57,2.67,2.67,0,0,0,2-1C438.78,184,464.38,183,464.94,183h0a2.7,2.7,0,0,0-.12-5.39c-1.15.05-28.48.79-53.69,32.81A2.7,2.7,0,0,0,411.62,214.17Z"/><path class="cls-1" d="M436.56,204.59a17.91,17.91,0,0,0-11.08,5.73,1.93,1.93,0,0,0,2.93,2.51A12.19,12.19,0,0,1,432,210c-1,1.94-1.67,3.78-1.9,4.39a1.93,1.93,0,0,0,1.14,2.48,1.84,1.84,0,0,0,.73.12,1.91,1.91,0,0,0,1.74-1.26c1.15-3.08,3.06-6.89,4.15-7.66a1.93,1.93,0,0,0,.69-2.24A1.89,1.89,0,0,0,436.56,204.59Z"/><path class="cls-1" d="M459.44,196.33c-.65-.07-2.61-.27-4.78-.28a12.23,12.23,0,0,1,4.13-1.93,1.93,1.93,0,0,0-.92-3.74,17.82,17.82,0,0,0-10.1,7.31,1.92,1.92,0,0,0,1.69,2.94,1.91,1.91,0,0,0,.84-.22c1.18-.62,5.44-.62,8.71-.25a1.93,1.93,0,0,0,.43-3.83Z"/><path class="cls-1" d="M466.35,88.16a2.69,2.69,0,0,0-5-1.9c-.41,1.07-9.76,26.77,10.71,62a2.7,2.7,0,0,0,3.68,1,2.7,2.7,0,0,0,1-3.69C457.63,112.76,466.22,88.52,466.35,88.16Z"/><path class="cls-1" d="M479.71,122.61a1.93,1.93,0,0,0-3.72-.08,17.89,17.89,0,0,0,1.25,12.4,1.92,1.92,0,0,0,1.76,1,2,2,0,0,0,.85-.22,1.93,1.93,0,0,0,.8-2.61,12,12,0,0,1-1.3-4.36,46.28,46.28,0,0,0,3.38,3.38,1.93,1.93,0,1,0,2.58-2.86C482.87,127.09,480,123.91,479.71,122.61Z"/><path class="cls-1" d="M475.31,110.34a2.09,2.09,0,0,0,.65-.13,1.93,1.93,0,0,0,1.21-2c-.14-1.33,1.44-5.28,3-8.19a1.93,1.93,0,1,0-3.4-1.81,45.36,45.36,0,0,0-2,4.34,12.11,12.11,0,0,1-.27-4.55,1.93,1.93,0,0,0-3.82-.53,17.85,17.85,0,0,0,3.07,12.09A1.91,1.91,0,0,0,475.31,110.34Z"/><path class="cls-1" d="M369,65.81c.67.37,11.48,6.19,29.72,5.64a96.84,96.84,0,0,0,33.18-7.32,2.7,2.7,0,1,0-2-5c-35.28,14.17-58.05,2.09-58.28,2A2.7,2.7,0,0,0,369,65.81Z"/><path class="cls-1" d="M407,56.49a18.6,18.6,0,0,0,7.67,1.43,15.51,15.51,0,0,0,4.79-.88,1.93,1.93,0,0,0-1.3-3.63,12.21,12.21,0,0,1-4.51.65,43.77,43.77,0,0,0,3.84-2.86,1.92,1.92,0,1,0-2.46-3c-2.53,2.1-6.09,4.46-7.41,4.58a1.93,1.93,0,0,0-.62,3.67Z"/><path class="cls-1" d="M381.42,58.18a15.81,15.81,0,0,0,4.84.6,18.75,18.75,0,0,0,7.57-1.89,1.93,1.93,0,0,0-.84-3.63c-1.33,0-5-2.18-7.68-4.12a1.92,1.92,0,0,0-2.28,3.1,47.72,47.72,0,0,0,4,2.63,12.18,12.18,0,0,1-4.53-.39,1.93,1.93,0,0,0-1.08,3.7Z"/><path class="cls-1" d="M703.49,67l-2.41-8a22,22,0,0,0-6.41-.08C696,61.36,698.77,65.36,703.49,67Z"/><path class="cls-1" d="M797.36,118.14a18.58,18.58,0,0,0-3-2.18V102.3A18.16,18.16,0,0,0,775.8,83.74H760.41A18.64,18.64,0,0,0,748.32,88a18.46,18.46,0,0,0-13.9-6h-.1a29.14,29.14,0,0,0,3.53-2.66l6.7-5.54a9.41,9.41,0,0,0-12-14.49l-.32.27L729.46,57A9.59,9.59,0,0,0,727,55.31l1.78-3.08a9.43,9.43,0,0,0-3.32-12.81L720,36.19A9.41,9.41,0,0,0,708,50.42h0A9.28,9.28,0,0,0,705.49,49a15.72,15.72,0,0,0-15.37-12.5,15.47,15.47,0,0,0-5.7,1.11,9.32,9.32,0,0,0-5.94-2.54,10,10,0,0,0-2.25.16L672,30.73a9.44,9.44,0,0,0-11.2-1.9l-1.49.78a15.72,15.72,0,0,0-18.11-2l-5-3.41A9.39,9.39,0,0,0,622.94,27l-3.28,5.23a9.46,9.46,0,0,0-10,4.7,9.41,9.41,0,0,0,3.69,12.78h0l5.22,2.88a9.57,9.57,0,0,0,6.82.92,9.36,9.36,0,0,0-2.8,9.45l1.29,4.78a9.3,9.3,0,0,0-6.67-4.4l-3-.43V59.79a9.45,9.45,0,0,0-.68-3.51c-5.18-12.85-14.08-18.36-21.36-20.7l2.12-7.48a9.42,9.42,0,0,0-4.21-10.61l-.6-.36a9.41,9.41,0,0,0-18.16-4.71l-2,5.83A9.46,9.46,0,0,0,572,28.38a15.71,15.71,0,0,0-3.2,28.26V57l-2.24,1.11a9.37,9.37,0,0,0-5.23,8.43V71a9.42,9.42,0,0,0,5.13,8.38,9.36,9.36,0,0,0,3.5,3.31l3.44,1.88H525.84c-.58,0-1.14,0-1.7.09a74.82,74.82,0,0,0-53.68-39.18A75.29,75.29,0,0,0,401.67,0h0V4.79a70.88,70.88,0,0,1,64.38,42.6,4.78,4.78,0,0,0,3.6,2.84,70,70,0,0,1,50.24,36.66,4.77,4.77,0,0,0,4.24,2.59l.43,0c.42,0,.85-.07,1.28-.07h73.73a13.4,13.4,0,0,1,9.5,3.83,4.78,4.78,0,0,0,3.36,1.38,4.44,4.44,0,0,0,.63,0l.74-.11a4.85,4.85,0,0,1,.68-.09,4.78,4.78,0,0,0,3.73-2,13,13,0,0,1,6.17-4.68,9.29,9.29,0,0,0,7.19.4l3.57-1.28h.3a9,9,0,0,0,.61,2.17,9.38,9.38,0,0,0,8.67,5.76,9.27,9.27,0,0,0,3.63-.73l6.79-2.84h0l.05,0a4.79,4.79,0,0,0,6.64.47,13.84,13.84,0,0,1,9-3.13H676a9.36,9.36,0,0,0,5.75,2h5.4a9.51,9.51,0,0,0,4.3-1,13.08,13.08,0,0,1,5.35,3.7,4.77,4.77,0,0,0,3.62,1.66,5,5,0,0,0,1-.11,14.71,14.71,0,0,1,2.63-.34,4.82,4.82,0,0,0,3.74-2c.12-.18.25-.34.38-.51h1.5a9.44,9.44,0,0,0,7.56-3.8,3.52,3.52,0,0,1,1.87-1.25h15.34a13.67,13.67,0,0,1,10.34,4.4,4.77,4.77,0,0,0,6.63.47,13.84,13.84,0,0,1,9-3.13H775.8a13.33,13.33,0,0,1,13.79,13.77V116A4.76,4.76,0,0,0,792,120.1a13,13,0,0,1,2.18,1.6,13.47,13.47,0,0,1,4.39,10.17v12.52A13.52,13.52,0,0,1,792,156.45a4.79,4.79,0,0,0-2.36,4.13V178.9a13.34,13.34,0,0,1-13.79,13.79H760.41a14.74,14.74,0,0,1-3.9-.51,4.82,4.82,0,0,0-1.25-.16,5.1,5.1,0,0,0-.86.08,14.33,14.33,0,0,1-2.46.22,16.87,16.87,0,0,1-9.57-3.21l-.56-.38a4.81,4.81,0,0,0-2.71-.84A4.75,4.75,0,0,0,736,189a14.75,14.75,0,0,1-9.47,3.4,16.29,16.29,0,0,1-9.36-3.06l-10.94-7.47a4.81,4.81,0,0,0-2.7-.84,5,5,0,0,0-1.44.22,4.78,4.78,0,0,0-3,2.88,13.32,13.32,0,0,1-12.84,8.56H670.86a14.81,14.81,0,0,1-3.91-.51,4.69,4.69,0,0,0-1.24-.16,5,5,0,0,0-.86.08,14.36,14.36,0,0,1-2.47.22,16.92,16.92,0,0,1-9.57-3.21l-.56-.38a4.77,4.77,0,0,0-5.76.27,14.75,14.75,0,0,1-9.47,3.4,16.34,16.34,0,0,1-9.37-3.06l-8.45-5.77a4.76,4.76,0,0,0-2.7-.84,5,5,0,0,0-1.15.14,4.8,4.8,0,0,0-3.09,2.42,13.41,13.41,0,0,1-12.17,7.05H525.32A13.35,13.35,0,0,1,512.55,184a4.79,4.79,0,0,0-4.45-3,4.58,4.58,0,0,0-.9.09,4.79,4.79,0,0,0-3.89,4.7,70.36,70.36,0,0,1-1.82,16.18,69.85,69.85,0,0,1-65.79,53.68c-.71,0-1.42,0-2.13,0A70.16,70.16,0,0,1,398,246a4.8,4.8,0,0,0-2.43-.66,4.73,4.73,0,0,0-2.14.5,69.08,69.08,0,0,1-29,7.28c-.69,0-1.39,0-2.08,0A69.83,69.83,0,0,1,292.57,189a4.79,4.79,0,0,0-8.78-2.25,13.47,13.47,0,0,1-11.52,5.95H262.7a15.11,15.11,0,0,1-3.78-.47,4.47,4.47,0,0,0-1.21-.16,4.33,4.33,0,0,0-.8.07,15.22,15.22,0,0,1-2.55.21H244.8a14.91,14.91,0,0,1-4.66-.73,4.76,4.76,0,0,0-1.5-.24,4.85,4.85,0,0,0-1.5.24,14.73,14.73,0,0,1-4.61.73H221.06a14.39,14.39,0,0,1-4.48-.69,5,5,0,0,0-1.47-.23,4.89,4.89,0,0,0-1.46.23,14.7,14.7,0,0,1-4.5.69H197.58a14,14,0,0,1-7.35-2,4.75,4.75,0,0,0-5,0,14.29,14.29,0,0,1-7.45,2h-46.7a15,15,0,0,1-2.52-.21,5.27,5.27,0,0,0-.79-.07,5.07,5.07,0,0,0-1,.11,14.71,14.71,0,0,1-3.22.34H108a14.1,14.1,0,0,1-7.29-1.94,4.82,4.82,0,0,0-5,.05,14.26,14.26,0,0,1-7.5,2.07H72.83A13.58,13.58,0,0,1,62.25,188a4.8,4.8,0,0,0-3.65-1.69,4.49,4.49,0,0,0-.73.06l-37.6,5.75a15,15,0,0,1-2.3.18,13,13,0,0,1-8.6-3.14,13.46,13.46,0,0,1-4.58-10.43V103.17A13.33,13.33,0,0,1,18.57,89.39H60.74a14.87,14.87,0,0,1,3.55.42,4.87,4.87,0,0,0,1.14.14,4.76,4.76,0,0,0,1.82-.36,14.51,14.51,0,0,1,5.58-1.06H88.21a13.78,13.78,0,0,1,8.46,2.72,11.8,11.8,0,0,1,1.1.91,4.81,4.81,0,0,0,4.52,1.14,14.73,14.73,0,0,1,3.83-.52h.67A4.79,4.79,0,0,0,110.55,91a13.51,13.51,0,0,1,10.88-5h15.38a13.75,13.75,0,0,1,9.43,3.5,13.17,13.17,0,0,1,1.11,1.13A4.77,4.77,0,0,0,151,92.22a4.84,4.84,0,0,0,2.88-1,14,14,0,0,1,8.5-2.73h15.4a14.18,14.18,0,0,1,7,1.77,4.79,4.79,0,0,0,4.21.23,14.67,14.67,0,0,1,5.72-1.14h17.91c.39,0,.78,0,1.16.06a14.34,14.34,0,0,1,1.76.22,5.22,5.22,0,0,0,1.82,0,14.83,14.83,0,0,1,2.92-.28h15.3a14.88,14.88,0,0,1,2.41.19,4.52,4.52,0,0,0,.74.06,4.62,4.62,0,0,0,1.47-.24,14.86,14.86,0,0,1,4.6-.7h9.56a16.24,16.24,0,0,1,2.88.26,4.48,4.48,0,0,0,.89.09,5.07,5.07,0,0,0,1.09-.13,15.4,15.4,0,0,1,3.48-.39h9.57a16.74,16.74,0,0,1,2.06.15,4.44,4.44,0,0,0,.63,0A4.78,4.78,0,0,0,279.3,86a69.77,69.77,0,0,1,56.25-40.13,4.81,4.81,0,0,0,3.79-2.61A69.9,69.9,0,0,1,399.62,4.82q1,0,2,0V0c-.73,0-1.45,0-2.18,0a74.88,74.88,0,0,0-64.41,41A74.63,74.63,0,0,0,275,83.94a19.8,19.8,0,0,0-2.69-.2H262.7a20,20,0,0,0-4.57.52,20.17,20.17,0,0,0-3.77-.35H244.8a19.64,19.64,0,0,0-6.07.94,20.29,20.29,0,0,0-3.15-.25H232c0-.08,0-.15,0-.23l1.13-5.75a9.4,9.4,0,0,0-5.68-10.52l-11-4.46V52.53c.47-.26.93-.53,1.37-.83l.57,6.23a9.34,9.34,0,0,0,9.36,8.56H236a9.4,9.4,0,0,0,.37-18.8l-.6-6.66a9.46,9.46,0,0,0-8.87-8.54l-3.49-.18a15.66,15.66,0,0,0-27.15-2.59V28.61a9.41,9.41,0,0,0-9.4-9.4h-4.66A9.41,9.41,0,0,0,173,26.79a9.31,9.31,0,0,0-3.57,0l-3.27-5.22a9.41,9.41,0,0,0-13.25-2.77l-5,3.41a15.72,15.72,0,0,0-18.07,2l-1.47-.77a9.47,9.47,0,0,0-11.19,1.9L113,29.74a10.29,10.29,0,0,0-2.23-.16,9.32,9.32,0,0,0-6.12,2.71,9.28,9.28,0,0,0-3.17-4.45A9.4,9.4,0,0,0,94,26.09l-2.14.42a15.65,15.65,0,0,0-6.62-4.79,61.55,61.55,0,0,0-.71-8.89c-.87-4.57-3.59-8-7.49-9.44A12.23,12.23,0,0,0,65.24,5.63,9.4,9.4,0,0,0,66.36,21c.07,1.64.14,3.82.2,6.71a15.67,15.67,0,0,0,6.77,23,28.72,28.72,0,0,0,3.85,8l.16.28,3.23,5.24-5.21,7a9.37,9.37,0,0,0,1.11,12.5H72.83a19.43,19.43,0,0,0-7.4,1.42,20,20,0,0,0-4.69-.56H18.57A18.16,18.16,0,0,0,0,103.17v75.56a18.23,18.23,0,0,0,6.24,14.06A17.78,17.78,0,0,0,18,197.08a19.25,19.25,0,0,0,3-.23L58.6,191.1a18.39,18.39,0,0,0,14.23,6.38H88.21a19,19,0,0,0,10-2.78,19,19,0,0,0,9.72,2.6h15.56a19.7,19.7,0,0,0,4.25-.45,20,20,0,0,0,3.31.28h46.7a19,19,0,0,0,9.95-2.75,18.61,18.61,0,0,0,9.86,2.75h11.57a19.77,19.77,0,0,0,6-.92,19.44,19.44,0,0,0,5.95.92h11.47a19.41,19.41,0,0,0,6.11-1,19.63,19.63,0,0,0,6.16,1h9.56a20.37,20.37,0,0,0,3.35-.28,19.83,19.83,0,0,0,5,.63h9.57a18.25,18.25,0,0,0,15.52-8.11,74.64,74.64,0,0,0,74.53,68.53l2.22,0a74.24,74.24,0,0,0,31-7.79,74.91,74.91,0,0,0,38,10.35c.76,0,1.51,0,2.27,0a74.3,74.3,0,0,0,72.26-74.65,18.1,18.1,0,0,0,17.22,11.38h74.77a18.17,18.17,0,0,0,16.41-9.61L625,193.3A21.13,21.13,0,0,0,637,197.19a19.64,19.64,0,0,0,12.53-4.51l.56.38a21.59,21.59,0,0,0,12.27,4.05,18.5,18.5,0,0,0,3.33-.3,20.07,20.07,0,0,0,5.15.67h15.39a18.11,18.11,0,0,0,17.32-11.66l10.93,7.48a21.15,21.15,0,0,0,12.07,3.89,19.58,19.58,0,0,0,12.53-4.51l.56.38a21.62,21.62,0,0,0,12.28,4.05,18.39,18.39,0,0,0,3.32-.3,20.13,20.13,0,0,0,5.15.67H775.8a18.17,18.17,0,0,0,18.57-18.58V160.58a18.32,18.32,0,0,0,9-16.19V131.87A18.19,18.19,0,0,0,797.36,118.14ZM681.71,79.67h3.83l-1.61-16.21a1.35,1.35,0,0,1,.11-.71A10.42,10.42,0,0,1,687,59.2a7.7,7.7,0,1,1,9.89-3.26,27.11,27.11,0,0,1,5.58.45,1.42,1.42,0,0,1,1.12,1l3.13,10.32.55,0L718.66,48l-4.22-2.51a1.43,1.43,0,1,1,1.46-2.45l5.42,3.23a1.43,1.43,0,0,1,.51,1.94L710.62,67.57a30.06,30.06,0,0,0,11.65-4.89,1.43,1.43,0,0,1,1.75.15l7.89,7.38,5.73-4.75a1.42,1.42,0,1,1,1.82,2.19l-6.7,5.55a1.42,1.42,0,0,1-.91.33,1.39,1.39,0,0,1-1-.39l-8-7.47c-5.55,3.43-10.68,5.08-15.32,4.94L711,82a1.42,1.42,0,0,1-.22,1.26,1.41,1.41,0,0,1-1.14.57h-4a1.43,1.43,0,0,1,0-2.85h2.1l-3.26-10.78a17.53,17.53,0,0,1-1.76-.47c-6.2-2.09-9.53-7.36-10.88-10.06a9.69,9.69,0,0,0-5,3.9L688.53,81a1.41,1.41,0,0,1-.36,1.09,1.43,1.43,0,0,1-1.06.47h-5.4a1.43,1.43,0,1,1,0-2.85ZM624.35,45.1a1.41,1.41,0,0,1-1.21.66,1.37,1.37,0,0,1-.68-.17l-5.26-2.9a1.42,1.42,0,1,1,1.37-2.49l4.08,2.24,7.05-11.22a1.45,1.45,0,0,1,.91-.64,1.47,1.47,0,0,1,1.1.21l10.32,7a7.69,7.69,0,0,1,14.45,2.28l8-4.18a1.42,1.42,0,0,1,1.69.29l8.66,9.21,2.21-2A1.43,1.43,0,0,1,679,45.5l-3.25,3a1.42,1.42,0,0,1-1,.38,1.46,1.46,0,0,1-1-.45l-8.87-9.45L656.3,43.4a7.71,7.71,0,0,1-8.78,5.51,7.71,7.71,0,0,0,.05,2.1c1,5.12,7.5,9.25,7.56,9.3a1.42,1.42,0,0,1,.3,2.17l-8.82,9.63,6.1,9.6a1.46,1.46,0,0,1,.16,1.19,1.58,1.58,0,0,1-.81.89l-6.79,2.84a1.35,1.35,0,0,1-.55.11,1.42,1.42,0,0,1-.55-2.73l4.1-1.72,1.13-.48-5.78-9.1a1.4,1.4,0,0,1,.15-1.72l8.46-9.24a23.32,23.32,0,0,1-5.91-6.3l-13,5.83,4,14.84a1.43,1.43,0,0,1-.89,1.71l-7.6,2.73a1.41,1.41,0,0,1-.49.09,1.43,1.43,0,0,1-.48-2.77l6.37-2.29-4-14.74a1.4,1.4,0,0,1,.79-1.66l14-6.33a9.89,9.89,0,0,1-.36-1.32,11,11,0,0,1,0-3.7,7.7,7.7,0,0,1-3.61-6.52c0-.21,0-.42,0-.62L631.33,34ZM573.18,73.79a1.43,1.43,0,0,1,1.94-.57l6.3,3.45,19.92-20.62a22.25,22.25,0,0,0-16.81-11.2,7.77,7.77,0,0,1-4.94,5.65V62.83a1.43,1.43,0,0,1-.79,1.28l-6.68,3.31V71a1.43,1.43,0,1,1-2.85,0V66.54a1.44,1.44,0,0,1,.79-1.28L576.74,62V51a7.71,7.71,0,1,1,3.89-14.49l2.91-10.25-6.11-3.67a1.44,1.44,0,0,1-.61-1.69l2-5.82a1.43,1.43,0,0,1,2.7.94l-1.64,4.72,6.05,3.64a1.43,1.43,0,0,1,.64,1.61l-3.52,12.43s0,.06,0,.09a7.58,7.58,0,0,1,1.58,3.6c6.56.79,16.3,4.27,21.5,17.2a1.4,1.4,0,0,1,.11.53v10l9.88,1.41a1.41,1.41,0,0,1,1,.69,1.44,1.44,0,0,1,.1,1.23l-3.49,9a1.42,1.42,0,0,1-1.33.91,1.52,1.52,0,0,1-.51-.09,1.43,1.43,0,0,1-.81-1.85l2.83-7.32-9.33-1.33A1.42,1.42,0,0,1,603.35,71v-11c-.2-.47-.4-.93-.61-1.37l-20,20.73a1.45,1.45,0,0,1-1,.43,1.53,1.53,0,0,1-.69-.17l-7.25-4A1.42,1.42,0,0,1,573.18,73.79Zm97.68,9.95a18.77,18.77,0,0,0-11.39,3.71,9.15,9.15,0,0,0,1-2.17,9.37,9.37,0,0,0-1-7.85L656.62,73l4.68-5.11a9.4,9.4,0,0,0-1.88-14.31l-.42-.28a15.77,15.77,0,0,0,3.44-4.09l.76-.39L668,53.88a9.44,9.44,0,0,0,7.16,2.79A15.9,15.9,0,0,0,676.54,60a9.51,9.51,0,0,0-.55,4.24l.87,8.79a9.41,9.41,0,0,0-4.56,8.06,9.26,9.26,0,0,0,.39,2.64ZM182.24,27.19h4.66a1.42,1.42,0,0,1,1.42,1.42v9.88l13.15.68c0-.16,0-.32,0-.48a7.69,7.69,0,0,1,15.38,0,8.94,8.94,0,0,1-.11,1.27l9.8.5a1.44,1.44,0,0,1,1.35,1.29l1.25,13.92H236a1.42,1.42,0,0,1,0,2.84h-8.22a1.41,1.41,0,0,1-1.41-1.29l-1.26-14-9.49-.49a7.67,7.67,0,0,1-6.52,3.63,5.88,5.88,0,0,1-.6,0V69l15.94,6.48a1.42,1.42,0,0,1,.86,1.59l-1.13,5.75A1.41,1.41,0,0,1,222.82,84a1.24,1.24,0,0,1-.27,0,1.42,1.42,0,0,1-1.12-1.67l.9-4.6-15.75-6.4A1.43,1.43,0,0,1,205.7,70v-9l-8.62,1.22,2.53,16.93a1.44,1.44,0,0,1-.33,1.14,1.42,1.42,0,0,1-1.07.49h-6.85a1.42,1.42,0,0,1,0-2.84h5.2l-2.5-16.72a1.45,1.45,0,0,1,.27-1.06,1.49,1.49,0,0,1,.94-.56L205.7,58V45.56a7.71,7.71,0,0,1-3.47-3.51l-15.41-.8a1.43,1.43,0,0,1-1.35-1.42V30h-3.23a1.42,1.42,0,0,1,0-2.84Zm-6.51,17a9.46,9.46,0,0,0,2.19-1.72,9.4,9.4,0,0,0,8.49,6.73l11.3.58v1.3l-3.62.51a9.4,9.4,0,0,0-7.92,10.69l1.26,8.42a9.38,9.38,0,0,0-3.78,13.9,19.77,19.77,0,0,0-5.88-.89H163.26c2.86-1.9,5.53-4.68,6.32-6.9a9.4,9.4,0,0,0-5.1-11.8l2.06-7.63A9.36,9.36,0,0,0,163.81,48a9.64,9.64,0,0,0,6.69-.93ZM110.16,38a1.41,1.41,0,0,1,2-.09l2.21,2L123,30.75a1.43,1.43,0,0,1,1.69-.29l8,4.18a7.68,7.68,0,0,1,14.42-2.28l10.29-7a1.45,1.45,0,0,1,1.09-.22,1.4,1.4,0,0,1,.91.64l7,11.2,4.07-2.24a1.42,1.42,0,1,1,1.37,2.48l-5.24,2.89a1.42,1.42,0,0,1-1.89-.48l-7-11.09L148,35.23q0,.32,0,.63a7.67,7.67,0,0,1-3.6,6.5,10.89,10.89,0,0,1,0,3.69,11.64,11.64,0,0,1-.35,1.32l14,6.31a1.41,1.41,0,0,1,.79,1.66l-4,14.7,6.35,2.29a1.42,1.42,0,0,1-.48,2.75,1.31,1.31,0,0,1-.48-.08l-7.59-2.73a1.43,1.43,0,0,1-.89-1.71l4-14.79L142.85,50a23.56,23.56,0,0,1-5.9,6.29l8.44,9.21a1.42,1.42,0,0,1,.15,1.72l-5.77,9.08L145,78.43a1.41,1.41,0,0,1,.76,1.86,1.4,1.4,0,0,1-1.31.87,1.27,1.27,0,0,1-.54-.11l-6.78-2.84a1.4,1.4,0,0,1-.8-.88,1.43,1.43,0,0,1,.15-1.19l6.09-9.58-8.8-9.6a1.42,1.42,0,0,1-.36-1.15,1.45,1.45,0,0,1,.66-1c.06,0,6.58-4.16,7.54-9.27a7.65,7.65,0,0,0,.05-2.09,8.7,8.7,0,0,1-1.36.12,7.7,7.7,0,0,1-7.4-5.61l-8.55-4.46-8.86,9.43a1.43,1.43,0,0,1-2,.07l-3.24-3A1.41,1.41,0,0,1,110.16,38Zm-4.74,18.85.64-.43a9.38,9.38,0,0,0,3.86-6.33,9.7,9.7,0,0,0,11.38-1.74l4.72-5,.73.39a16.09,16.09,0,0,0,3.41,4.06l-.34.23a9.4,9.4,0,0,0-1.94,14.32l4.66,5.1-2.83,4.45a9.44,9.44,0,0,0-1,7.84,8.87,8.87,0,0,0,.58,1.39h-7.86a19.38,19.38,0,0,0-6.85,1.22,10.16,10.16,0,0,0,.9-3.93,9.41,9.41,0,0,0-9.4-9.4h-.66ZM80.34,44c-.24,0-.47,0-.71,0a7.68,7.68,0,0,1-5-13.48c-.09-6-.29-13.41-.73-15.73-.17-.92-.45-1.25-.56-1.29a2,2,0,0,0-1.25.48,1.42,1.42,0,1,1-1.79-2.2c.21-.17,2.1-1.65,4-.95,1.23.45,2,1.6,2.38,3.43.44,2.31.65,8.88.76,14.69a7.68,7.68,0,0,1,9.86,6.54l8.24-1.63A1.42,1.42,0,0,1,97.2,35.2l1,11.59a2.14,2.14,0,0,0,.53,1.3c.06,0,.41,0,1.13-.49a1.42,1.42,0,1,1,1.64,2.32,4.83,4.83,0,0,1-2.72,1,3,3,0,0,1-1.24-.27c-1.86-.85-2.15-3.34-2.17-3.62L94.5,37,87,38.5a7.68,7.68,0,0,1-3.8,4.67c-.17,2.9.62,6.94,4.42,11.47l8.53.81a1.42,1.42,0,0,1,1.28,1.42V77h8.64a1.42,1.42,0,0,1,0,2.84H96a1.43,1.43,0,0,1-1.42-1.42V58.16l-5.4-.52L93.13,64a1.45,1.45,0,0,1-.07,1.6L84.92,76.53,90.12,80a1.42,1.42,0,0,1-.79,2.6,1.43,1.43,0,0,1-.79-.24L82.1,78.06a1.39,1.39,0,0,1-.61-.94A1.38,1.38,0,0,1,81.75,76L90.2,64.69l-6.06-9.85a2,2,0,0,1-.1-.21A18.43,18.43,0,0,1,80.34,44Z"/><path class="cls-1" d="M97.17,128.22H90.82V102.3a2.3,2.3,0,0,0-2.61-2.6H72.82a2.3,2.3,0,0,0-2.6,2.6v76.6a2.3,2.3,0,0,0,2.6,2.61H88.21a2.31,2.31,0,0,0,2.61-2.61V146.82h6.35a2.31,2.31,0,0,0,2.61-2.61V130.82A2.3,2.3,0,0,0,97.17,128.22Z"/><path class="cls-1" d="M64,155.34l-27.47,4.17v-41.9H60.74a2.08,2.08,0,0,0,2.35-2.35V102.91a2.08,2.08,0,0,0-2.35-2.35H18.57A2.31,2.31,0,0,0,16,103.17v75.56c0,1.74.87,2.61,2.61,2.35l45.47-7c1.74-.26,2.52-1.3,2.52-3.22V157.6C66.56,156,65.69,155.08,64,155.34Z"/><path class="cls-1" d="M137.42,120.13a2.31,2.31,0,0,0-2.61,2.61v12.43a2.28,2.28,0,0,1-2.61,2.52h-3.73a2.31,2.31,0,0,0-2.61,2.61v6.61a2.31,2.31,0,0,0,2.61,2.61h8.95c11.91,0,16.17-4.52,16.17-13.13v-3.13C153.59,124.65,149.33,120.13,137.42,120.13Z"/><path class="cls-1" d="M152.12,117a2.07,2.07,0,0,0,2.34-2.35V106.3a2.07,2.07,0,0,0-2.34-2.34h-12.7V99.7a2.31,2.31,0,0,0-2.61-2.61H121.42a2.3,2.3,0,0,0-2.6,2.61V104h-12.7a2.08,2.08,0,0,0-2.35,2.34v8.35c0,1.57.61,2.35,2.18,2.35Z"/><path class="cls-1" d="M177.77,153.69H108a2.31,2.31,0,0,0-2.61,2.61v22.43a2.31,2.31,0,0,0,2.61,2.61h15.56a2.31,2.31,0,0,0,2.61-2.61V165h33.65v4.87H131c-1.57,0-2.44.7-2.44,2.26v6.43c0,1.83.7,2.61,2.52,2.61h46.7a2.3,2.3,0,0,0,2.6-2.61V156.3A2.3,2.3,0,0,0,177.77,153.69Z"/><path class="cls-1" d="M186.72,117.69h-6.35V102.3a2.3,2.3,0,0,0-2.6-2.6h-15.4a2.3,2.3,0,0,0-2.6,2.6V148a2.3,2.3,0,0,0,2.6,2.6h15.4a2.3,2.3,0,0,0,2.6-2.6V135h6.35a2.31,2.31,0,0,0,2.61-2.61V120.3A2.31,2.31,0,0,0,186.72,117.69Z"/><path class="cls-1" d="M120.81,149.52a2.31,2.31,0,0,0,2.61-2.61V134.47A2.28,2.28,0,0,1,126,132h3.74a2.31,2.31,0,0,0,2.61-2.61v-6.6a2.31,2.31,0,0,0-2.61-2.61h-9c-11.91,0-16.17,4.52-16.17,13.13v3.13C104.64,145,108.9,149.52,120.81,149.52Z"/><path class="cls-1" d="M254.36,99.87H244.8a2.31,2.31,0,0,0-2.61,2.61V131h-4.61l.43-9.31c.09-1.65.18-3.13.18-5V103.17a2.31,2.31,0,0,0-2.61-2.61h-15.3a2.31,2.31,0,0,0-2.61,2.61v13.57a2.31,2.31,0,0,0,2.61,2.61h1.13l-2.7,59.2c-.09,1.74.61,2.61,2.35,2.61h11.47a2.55,2.55,0,0,0,2.88-2.61l1.3-29.3h5.48v29.3a2.31,2.31,0,0,0,2.61,2.61h9.56a2.31,2.31,0,0,0,2.61-2.61V102.48A2.31,2.31,0,0,0,254.36,99.87Z"/><path class="cls-1" d="M212.62,100.56H194.71a2.3,2.3,0,0,0-2.6,2.61v13.57a2.3,2.3,0,0,0,2.6,2.61h3.65l-3.12,59.2c-.09,1.74.61,2.61,2.34,2.61h11.57a2.54,2.54,0,0,0,2.87-2.61l3-56.86c.09-1.39.17-3.13.17-5V103.17A2.31,2.31,0,0,0,212.62,100.56Z"/><rect class="cls-1" x="260.1" y="99.7" width="14.78" height="81.82" rx="2.61"/><path class="cls-1" d="M602.7,167.25v11.3a2.31,2.31,0,0,1-2.61,2.61H525.32a2.31,2.31,0,0,1-2.61-2.61v-11.3a2.31,2.31,0,0,1,2.61-2.61h27v-8.86a2.3,2.3,0,0,1,2.6-2.61h15.48a2.31,2.31,0,0,1,2.61,2.61v8.86h27A2.31,2.31,0,0,1,602.7,167.25Zm-79.12-52.86V102.83a2,2,0,0,1,2.26-2.27h73.73a2,2,0,0,1,2.26,2.27v11.56a2,2,0,0,1-2.26,2.26H525.84A2,2,0,0,1,523.58,114.39Zm0,33.47V136.74a2,2,0,0,1,2.26-2.27h10.69l-.78-12.08c-.08-1.74.87-2.61,2.61-2.61h15.13c1.74,0,2.52.87,2.61,2.61l.69,12.08h11.48l.7-12.08c.08-1.74.86-2.61,2.6-2.61H586.7c1.74,0,2.7.87,2.61,2.61l-.78,12.08h11a2,2,0,0,1,2.26,2.27v11.12a2,2,0,0,1-2.26,2.26H525.84A2,2,0,0,1,523.58,147.86Z"/><path class="cls-1" d="M640.69,177.68c-.43,3.48-3.74,4.53-6.61,2.53L613.74,166.3a3.5,3.5,0,0,1-1.91-3.57V146a1.55,1.55,0,0,1,2.6-1.3l9.13,6.17L627,122.48H614.87c-1.57,0-2.18-.79-2.18-2.35V107.87a2.07,2.07,0,0,1,2.35-2.35h11.83v-5a2.3,2.3,0,0,1,2.6-2.6h15.39a2.3,2.3,0,0,1,2.61,2.6v5H660a2.07,2.07,0,0,1,2.35,2.35v12.26a2.08,2.08,0,0,1-2.35,2.35H647.47ZM665,162.56v15c0,3.74-2.61,4.52-5.74,2.35l-13.48-9.22a3.38,3.38,0,0,1-1.39-3.56L646.43,151c.26-2,1.74-2.17,3.57-1l12.69,8.69C664.43,160,665,160.73,665,162.56Zm32.86-30.69v12.52a2.5,2.5,0,0,1-2.6,2.87h-6.35V178.9a2.31,2.31,0,0,1-2.61,2.61H670.86a2.31,2.31,0,0,1-2.61-2.61V102.3a2.3,2.3,0,0,1,2.61-2.6h15.39a2.3,2.3,0,0,1,2.61,2.6v27.22h6.35A2.12,2.12,0,0,1,697.81,131.87Z"/><path class="cls-1" d="M730.24,177.68c-.43,3.48-3.74,4.53-6.6,2.53L703.29,166.3a3.5,3.5,0,0,1-1.91-3.57V146a1.55,1.55,0,0,1,2.6-1.3l9.14,6.17,3.38-28.34H704.42c-1.56,0-2.17-.79-2.17-2.35V107.87a2.07,2.07,0,0,1,2.34-2.35h11.83v-5A2.3,2.3,0,0,1,719,98h15.39a2.3,2.3,0,0,1,2.61,2.6v5h12.52a2.07,2.07,0,0,1,2.34,2.35v12.26a2.08,2.08,0,0,1-2.34,2.35H737Zm24.26-15.12v15c0,3.74-2.61,4.52-5.74,2.35l-13.47-9.22a3.36,3.36,0,0,1-1.39-3.56L736,151c.26-2,1.74-2.17,3.57-1l12.69,8.69C754,160,754.5,160.73,754.5,162.56Zm32.87-30.69v12.52a2.51,2.51,0,0,1-2.61,2.87h-6.35V178.9a2.31,2.31,0,0,1-2.61,2.61H760.41a2.3,2.3,0,0,1-2.6-2.61V102.3a2.29,2.29,0,0,1,2.6-2.6H775.8a2.3,2.3,0,0,1,2.61,2.6v27.22h6.35A2.13,2.13,0,0,1,787.37,131.87Z"/></g></g></svg>