<svg xmlns="http://www.w3.org/2000/svg" viewBox="0 0 732.04 732.04"><defs><style>.cls-1{fill:#e62f53;}</style></defs><g id="Layer_2" data-name="Layer 2"><g id="Layer_1-2" data-name="Layer 1"><polygon class="cls-1" points="155.31 557.56 141.57 541.86 138.03 544.97 143.14 550.81 128.72 563.43 132.23 567.44 146.65 554.82 151.76 560.67 155.31 557.56"/><path class="cls-1" d="M152.69,572.2c-4.95,5.28-4.58,12.9.83,18s13,4.94,18-.34,4.58-12.89-.83-18S157.64,566.92,152.69,572.2Zm14.92,14a7.56,7.56,0,1,1-.23-10.82A7.41,7.41,0,0,1,167.61,586.19Z"/><path class="cls-1" d="M197.41,594.19c-5.91-4.39-13.43-3.37-17.76,2.44s-3.13,13.32,2.78,17.71a12.28,12.28,0,0,0,17.66-2.51l.83-1.13L190.5,603l-2.69,3.62,5.85,4.36c-1.85,1.55-5.28,1.85-8.27-.38a7.7,7.7,0,0,1,9.19-12.36,6.94,6.94,0,0,1,3.09,6.17l4.7,3.51C204,603.44,202.42,597.92,197.41,594.19Z"/><polygon class="cls-1" points="203.97 628.48 219.5 637.6 221.84 633.61 210.91 627.19 213.5 622.77 223.32 628.53 225.66 624.54 215.84 618.78 218.3 614.59 229.01 620.87 231.35 616.88 216.05 607.9 203.97 628.48"/><polygon class="cls-1" points="238.05 625.81 245.09 629.05 237.11 646.44 241.95 648.66 249.94 631.27 256.98 634.51 258.95 630.23 240.02 621.53 238.05 625.81"/><polygon class="cls-1" points="280.47 647.94 270.47 644.61 273.45 635.64 268.39 633.96 260.87 656.6 265.93 658.28 268.98 649.09 278.98 652.41 275.93 661.61 280.98 663.29 288.51 640.65 283.45 638.96 280.47 647.94"/><polygon class="cls-1" points="294.63 666.87 312.26 670.63 313.23 666.1 300.81 663.45 301.88 658.44 313.04 660.81 314 656.28 302.85 653.9 303.86 649.15 316.02 651.73 316.98 647.2 299.61 643.5 294.63 666.87"/><path class="cls-1" d="M337.47,650l-9.55-1-2.49,23.74,5.3.56.79-7.49,4.22.44,3.81,8,6.15.64-4.61-9.1a7.44,7.44,0,0,0,5.08-6.63C346.69,654.17,343.5,650.6,337.47,650Zm3.4,8.57c-.23,2.24-2.05,3.26-4.84,3l-4-.42.72-6.87,4,.42C339.54,654.92,341.11,656.3,340.87,658.54Z"/><path class="cls-1" d="M383.26,650.84l-9.16.56,1.46,23.86,5.32-.33-.38-6.35,3.83-.23c6.21-.38,9.63-4.06,9.3-9.38S389.47,650.46,383.26,650.84Zm.55,12.81-3.6.22-.5-8.08,3.61-.22c2.95-.18,4.82,1.08,5,3.72S386.76,663.47,383.81,663.65Z"/><path class="cls-1" d="M414.54,646.53c-7.3,1.31-11.75,7.48-10.49,14.6s7.59,11.38,14.89,10.08,11.75-7.48,10.48-14.6S421.83,645.23,414.54,646.53Zm3.55,20a7.73,7.73,0,1,1,6.08-8.93A7.42,7.42,0,0,1,418.09,666.48Z"/><path class="cls-1" d="M459.49,651.38c.25,2.19-1.78,5.18-5.06,6.19a7.65,7.65,0,0,1-4.5-14.62c3.27-1,6.13,0,7.34,2l5.15-1.59c-2.41-4.53-7.78-7-14.05-5.08-7,2.17-10.65,8.83-8.51,15.76s8.88,10.38,15.9,8.21c6.33-1.95,9.6-7.68,8.88-12.49Z"/><polygon class="cls-1" points="484.18 625.15 488.03 633.79 478.41 638.08 474.56 629.45 469.69 631.61 479.4 653.41 484.27 651.24 480.32 642.39 489.95 638.1 493.89 646.95 498.76 644.78 489.05 622.99 484.18 625.15"/><path class="cls-1" d="M505.58,614l4.1,25.27,4.75-2.79-.91-4.83,8-4.69,3.78,3.15,5.13-3-20.06-15.9Zm12.17,9.8-5.15,3L511,618.15Z"/><path class="cls-1" d="M549.34,603c1,2,0,5.47-2.71,7.51a7.65,7.65,0,0,1-9.1-12.29c2.76-2,5.79-2,7.59-.52l4.34-3.2c-3.78-3.48-9.66-4-14.93-.14-5.91,4.38-7.11,11.86-2.81,17.67s11.82,6.85,17.73,2.48c5.32-3.94,6.49-10.42,4.22-14.72Z"/><polygon class="cls-1" points="564.23 570.07 570.65 577.02 562.9 584.18 556.48 577.23 552.57 580.85 568.77 598.39 572.69 594.77 566.11 587.65 573.85 580.49 580.44 587.62 584.36 584 568.15 566.45 564.23 570.07"/><path class="cls-1" d="M584.75,548.45l-3.66,4.15,11.78,22.73,3.64-4.14-2.36-4.31,6.12-6.94,4.57,1.81,3.94-4.47Zm7,14.14-4.26-7.74,8.21,3.26Z"/><path class="cls-1" d="M183.41,201.44a1.44,1.44,0,0,0,2.47.13l21.79-24a2,2,0,0,0,0-2.88l-5.92-7.28a1.39,1.39,0,0,0-2.38-.12l-13.19,14.5-18.63-22.94,13.23-10.75a1.46,1.46,0,0,0,.24-2.32L175.49,139a1.46,1.46,0,0,0-2.33-.24l-23.08,18.74a1.63,1.63,0,0,0-.27,2.59Z"/><path class="cls-1" d="M213.18,177.41a1.62,1.62,0,0,0,2.59.27l8.42-6.84a1.63,1.63,0,0,0,.27-2.59L210.2,150.69l3.47-2.82a1.63,1.63,0,0,0,.27-2.59L208,138a1.62,1.62,0,0,0-2.58-.27l-3.47,2.82L190.4,126.32a1.61,1.61,0,0,0-2.58-.26l-8.43,6.84a1.62,1.62,0,0,0-.26,2.59Z"/><path class="cls-1" d="M266.84,122.5a1.62,1.62,0,0,0,2.43.94l9.92-4.42a1.63,1.63,0,0,0,.93-2.43l-3.75-8.4,4.09-1.82a1.63,1.63,0,0,0,.93-2.43l-3.46-7.79a1.63,1.63,0,0,0-2.43-.93l-4.09,1.83L267,87.13a1.63,1.63,0,0,0-2.43-.93l-9.91,4.41a1.64,1.64,0,0,0-.93,2.44Z"/><path class="cls-1" d="M246.12,123.75l-2.41,1.07a1.63,1.63,0,0,0-.93,2.43l1.89,4.26a1.63,1.63,0,0,0,2.43.93l5.77-2.57c7.67-3.42,9.12-7.55,6.65-13.1l-.9-2c-2.47-5.54-6.51-7.23-14.18-3.81a1.63,1.63,0,0,0-.93,2.43l3.57,8A1.61,1.61,0,0,1,246.12,123.75Z"/><path class="cls-1" d="M239.51,113.13l-5.77,2.57c-7.67,3.43-9.12,7.56-6.65,13.1l.9,2c2.47,5.55,6.51,7.23,14.18,3.82a1.63,1.63,0,0,0,.94-2.43l-3.57-8a1.61,1.61,0,0,1,1-2.38l2.41-1.07a1.63,1.63,0,0,0,.94-2.43l-1.9-4.25A1.64,1.64,0,0,0,239.51,113.13Z"/><path class="cls-1" d="M221.19,117.07c.45,1,1.07,1.34,2.08.88L253,104.71a1.48,1.48,0,0,0,.84-2.19l-2.4-5.38a1.46,1.46,0,0,0-2.19-.83L241.09,100l-1.23-2.75a1.63,1.63,0,0,0-2.43-.93l-9.91,4.42a1.63,1.63,0,0,0-.93,2.43l1.22,2.74-8.18,3.65a1.45,1.45,0,0,0-.83,2.18Z"/><path class="cls-1" d="M280.06,121l-45,20a1.63,1.63,0,0,0-.93,2.43l6.44,14.45a1.63,1.63,0,0,0,2.43.93l10-4.47a1.61,1.61,0,0,0,.93-2.42L250,143.08l21.68-9.65,1.39,3.13-18.53,8.26a1.47,1.47,0,0,0-.92,2.16l1.85,4.15c.51,1.17,1.19,1.47,2.36,1l30.08-13.4a1.64,1.64,0,0,0,.94-2.43l-6.39-14.34A1.63,1.63,0,0,0,280.06,121Z"/><path class="cls-1" d="M354.91,126.08l6.68-.94a1.64,1.64,0,0,0,1.56-2.09l-7.61-53.48A1.62,1.62,0,0,0,353.45,68l-6.67.94A1.62,1.62,0,0,0,345.22,71l7.61,53.48A1.62,1.62,0,0,0,354.91,126.08Z"/><path class="cls-1" d="M319.11,86.9l.79-.11,4,41.6c.11,1.23.69,1.76,1.9,1.59l8-1.14a1.78,1.78,0,0,0,1.74-2.11l-2-20.58,3.82-.55,2.92,20.46a1.62,1.62,0,0,0,2.08,1.56l6.67-1a1.63,1.63,0,0,0,1.57-2.08l-7.56-53.11A1.63,1.63,0,0,0,341,69.91l-6.68,1a1.62,1.62,0,0,0-1.56,2.07l2.83,19.92-3.21.45-.62-6.54c-.11-1.16-.19-2.2-.38-3.47L330,73.83a1.63,1.63,0,0,0-2.08-1.56l-10.69,1.52a1.62,1.62,0,0,0-1.56,2.08L317,85.34A1.62,1.62,0,0,0,319.11,86.9Z"/><path class="cls-1" d="M301.26,89.44l2.55-.36,3.7,41.64c.11,1.23.68,1.77,1.9,1.6l8.07-1.16a1.78,1.78,0,0,0,1.74-2.1l-3.52-40c-.08-1-.19-2.21-.37-3.48L314,76.11a1.62,1.62,0,0,0-2.08-1.56l-12.5,1.78a1.63,1.63,0,0,0-1.57,2.08l1.35,9.47A1.63,1.63,0,0,0,301.26,89.44Z"/><path class="cls-1" d="M382.65,103.32l51.54,7A1.42,1.42,0,0,0,436,109l1.06-7.78a1.42,1.42,0,0,0-1.36-1.79l-7.73-1,1.7-8.37a1.61,1.61,0,0,0-1.57-2.08L417.5,86.45c-1.21-.16-1.84.38-2.07,1.58l-1.63,8.38-8-1.09.67-8.51c.1-1.23-.36-1.91-1.58-2.07L394.29,83.3a1.61,1.61,0,0,0-2.08,1.57l-.6,8.52-7.47-1a1.43,1.43,0,0,0-1.8,1.36l-1.06,7.78A1.43,1.43,0,0,0,382.65,103.32Z"/><path class="cls-1" d="M379.33,125l52.27,7.12a1.63,1.63,0,0,0,2.07-1.58l1.08-7.9a1.63,1.63,0,0,0-1.58-2.07L414.27,118l.84-6.2a1.62,1.62,0,0,0-1.57-2.07l-10.82-1.48a1.63,1.63,0,0,0-2.07,1.58l-.85,6.2-18.9-2.57a1.62,1.62,0,0,0-2.07,1.57l-1.07,7.91A1.61,1.61,0,0,0,379.33,125Z"/><path class="cls-1" d="M385.83,79.92l51.54,7a1.43,1.43,0,0,0,1.8-1.37l1.09-8.08a1.42,1.42,0,0,0-1.36-1.79l-51.54-7a1.44,1.44,0,0,0-1.8,1.37l-1.09,8.08A1.42,1.42,0,0,0,385.83,79.92Z"/><path class="cls-1" d="M462.47,142c1.29,2.1,3.72,2.36,5,.24l20-33.75,8.08,3.54a1.47,1.47,0,0,0,2.19-.85l3.46-7.92a1.47,1.47,0,0,0-.85-2.18l-8.09-3.54,1.4-3.2a1.62,1.62,0,0,0-.95-2.42l-9.94-4.35a1.62,1.62,0,0,0-2.42,1l-1.4,3.2-7.63-3.35a1.47,1.47,0,0,0-2.18.86l-3.47,7.91c-.44,1-.27,1.69.74,2.14l7.8,3.41L464,120.06l-4.15-6.56a1.09,1.09,0,0,0-2.05.1L453,124.44a2.46,2.46,0,0,0,.23,2.84Z"/><path class="cls-1" d="M485.86,153.26l9.94,4.35a1.63,1.63,0,0,0,2.42-1l8.95-20.44,4.1,1.79a1.75,1.75,0,0,0,2.49-1.11l3.54-8.09a1.5,1.5,0,0,0-1-2.25l-4.1-1.8,7.69-17.58a1.62,1.62,0,0,0-.94-2.42L509,100.41a1.63,1.63,0,0,0-2.43,1l-21.65,49.47A1.63,1.63,0,0,0,485.86,153.26Z"/><path class="cls-1" d="M487,136.23l-5.74-9.2c-.84-1.3-1.84-1.61-2.58-.39l-5.92,9.86a2.39,2.39,0,0,0-.11,2.69l6.1,9.76c1.41,2.29,3.32,2.52,4.38.11l4.25-9.72C487.91,138.16,487.8,137.51,487,136.23Z"/><path class="cls-1" d="M544.87,193.08l8.46,6.79a1.63,1.63,0,0,0,2.59-.29l14-17.4,3.49,2.8a1.76,1.76,0,0,0,2.7-.43l5.52-6.88a1.5,1.5,0,0,0-.4-2.44l-3.48-2.8,12-15a1.62,1.62,0,0,0-.28-2.58l-8.46-6.8a1.63,1.63,0,0,0-2.59.29l-33.79,42.12A1.63,1.63,0,0,0,544.87,193.08Z"/><path class="cls-1" d="M550.42,177l-3.14-10.39c-.47-1.47-1.36-2-2.39-1l-8.28,8a2.41,2.41,0,0,0-.81,2.58l3.35,11c.76,2.58,2.54,3.3,4.19,1.24l6.64-8.27C550.79,179,550.84,178.38,550.42,177Z"/><path class="cls-1" d="M520.16,159.51l5.06,16.63c.69,2.37,3,3.25,4.75,1.53l28.08-27.37,6.88,5.52a1.47,1.47,0,0,0,2.34-.26l5.4-6.74a1.46,1.46,0,0,0-.25-2.32L565.53,141l2.19-2.72a1.63,1.63,0,0,0-.29-2.59L559,128.87a1.63,1.63,0,0,0-2.59.28l-2.18,2.73-6.51-5.22a1.46,1.46,0,0,0-2.32.26L540,133.66c-.69.86-.7,1.56.16,2.25l6.65,5.33L532.4,155.33l-2.3-7.42a1.1,1.1,0,0,0-2-.43l-7.41,9.23A2.46,2.46,0,0,0,520.16,159.51Z"/><path class="cls-1" d="M531.15,450.9a107.25,107.25,0,0,0-50.56-199A107.2,107.2,0,0,0,274.82,238.9a107.27,107.27,0,0,0-76.06,190.65A107.23,107.23,0,0,0,357.16,560a107.8,107.8,0,0,0,70.73,26.45A107.23,107.23,0,0,0,531.15,450.9ZM362.7,521.74c-.81-1.24-1.6-2.51-2.35-3.82-.14-.23-.25-.46-.38-.69a77.81,77.81,0,0,1,5.54-84.57q1.58-2.1,3.29-4.09t3.48-3.79A77.38,77.38,0,0,1,402,405.9a87.37,87.37,0,0,0,86.45,39.69c2.87-.42,5.69-1,8.45-1.66a77.67,77.67,0,0,1-131.23,82C364.64,524.57,363.65,523.18,362.7,521.74Zm-63.88-257a77.66,77.66,0,0,1,154.68,9.58c0,.13,0,.25,0,.38,0,1.61-.07,3.19-.16,4.78-.11,1.77-.29,3.52-.51,5.26a77.88,77.88,0,0,1-54,64.17c-1.68.52-3.39,1-5.12,1.37s-3.34.74-5,1a77.24,77.24,0,0,1-35.47-2.3c-1.66-.51-3.28-1.07-4.89-1.68s-3.3-1.33-4.91-2.07a77.75,77.75,0,0,1-45.21-70.06c0-.17,0-.33,0-.49,0-1.62.06-3.23.16-4.84S298.6,266.47,298.82,264.78ZM501.55,432.27c-1.6.56-3.23,1.06-4.88,1.52s-3.38.89-5.11,1.24c-1.49.31-3,.59-4.54.81A77.74,77.74,0,0,1,412,403.12q-1.48-2.16-2.84-4.41c-.88-1.46-1.69-3-2.47-4.48A77.25,77.25,0,0,1,399,370.15a80.3,80.3,0,0,1-.81-10.78,87.72,87.72,0,0,0,64.83-77c.56-.09,1.12-.2,1.68-.28a78.87,78.87,0,0,1,11.34-.83,77.68,77.68,0,0,1,25.53,151ZM342.74,355.75A77.58,77.58,0,0,1,330,389.29a88.1,88.1,0,0,0-21.35-5.45,87.34,87.34,0,0,0-78.32,31.08,77.65,77.65,0,0,1,58.06-143.43c0,1.08-.08,2.16-.08,3.25A87.64,87.64,0,0,0,342.74,355.75ZM233.47,427.12c.95-1.39,1.93-2.77,3-4.11s2.21-2.71,3.38-4a77.57,77.57,0,0,1,67.6-25.37,78.6,78.6,0,0,1,16.24,3.84q2.47.87,4.89,1.9c1.56.67,3.1,1.38,4.61,2.16A77.21,77.21,0,0,1,359.09,423c.25.31.47.64.71,1a87.66,87.66,0,0,0-8,98.85c.44.77.9,1.53,1.37,2.29a82.27,82.27,0,0,1-7.74,6.9,77.67,77.67,0,0,1-112-104.9Z"/><path class="cls-1" d="M268.12,281.25a4.91,4.91,0,0,0-5.24,4.59c-4.54,69.24-42.4,97.19-42.82,97.49a4.92,4.92,0,0,0,5.71,8c1.72-1.21,42.07-30.63,46.94-104.86A4.93,4.93,0,0,0,268.12,281.25Z"/><path class="cls-1" d="M234.92,317.51a3.52,3.52,0,0,0,5.55,3.92c.38-.32,9.46-8,10.74-20.07a3.51,3.51,0,1,0-7-.74,22.13,22.13,0,0,1-2.49,7.93,85.58,85.58,0,0,0-1.67-8.57,3.52,3.52,0,1,0-6.82,1.71C234.7,307.52,235.76,315.22,234.92,317.51Z"/><path class="cls-1" d="M218.09,365.13a3.55,3.55,0,0,0,2.34.89,3.51,3.51,0,0,0,2.62-1.17c8.12-9.09,7.69-20.94,7.67-21.44a3.52,3.52,0,0,0-6.63-1.48c-1.13,2.15-7.55,6.54-12.86,9.37a3.52,3.52,0,0,0,3.32,6.21c1-.57,4.21-2.3,7.48-4.52a22.27,22.27,0,0,1-4.22,7.17A3.52,3.52,0,0,0,218.09,365.13Z"/><path class="cls-1" d="M243.64,444.82c58.83,36.73,65.57,83.29,65.64,83.83a4.93,4.93,0,0,0,4.88,4.3,4.3,4.3,0,0,0,.62,0,4.92,4.92,0,0,0,4.28-5.49c-.26-2.09-7.1-51.55-70.2-90.95a4.92,4.92,0,1,0-5.22,8.35Z"/><path class="cls-1" d="M243.58,478.43c5.83,1.48,13.13,4.19,14.74,6a3.52,3.52,0,0,0,6.08-3c-.1-.49-2.54-12.1-12.61-19a3.52,3.52,0,0,0-4,5.81,22.23,22.23,0,0,1,5.82,5.94c-3.7-1.37-7.18-2.28-8.35-2.58a3.52,3.52,0,0,0-1.72,6.82Z"/><path class="cls-1" d="M279.15,500.38a3.52,3.52,0,0,0-4.44,5.14c1.36,2,2.19,9.75,2.18,15.76a3.53,3.53,0,0,0,3.51,3.53h0a3.52,3.52,0,0,0,3.52-3.51,86.31,86.31,0,0,0-.45-8.73,22.28,22.28,0,0,1,4.33,7.11,3.52,3.52,0,0,0,6.61-2.41C290.25,505.82,279.6,500.6,279.15,500.38Z"/><path class="cls-1" d="M390.79,531a4.89,4.89,0,0,0,3.78-1.77c44.29-52.89,91.06-53.4,92.1-53.4h.07a4.93,4.93,0,0,0,.08-9.85c-2.13,0-52-.1-99.8,56.93a4.92,4.92,0,0,0,3.77,8.09Z"/><path class="cls-1" d="M433.67,513.73c-.5,0-12.33.84-20.52,9.86a3.52,3.52,0,0,0,5.21,4.73,22,22,0,0,1,6.69-4.94c-1.87,3.48-3.26,6.8-3.72,7.91a3.52,3.52,0,0,0,1.94,4.58,3.41,3.41,0,0,0,1.32.26,3.51,3.51,0,0,0,3.26-2.2c2.27-5.57,6-12.41,8-13.76a3.52,3.52,0,0,0-2.16-6.44Z"/><path class="cls-1" d="M475.89,499.92a84.56,84.56,0,0,0-8.7-.77,22,22,0,0,1,7.63-3.3,3.52,3.52,0,0,0-1.46-6.88c-11.92,2.54-18.57,12.36-18.85,12.78a3.5,3.5,0,0,0,.29,4.26,3.47,3.47,0,0,0,2.64,1.2,3.51,3.51,0,0,0,1.55-.35c2.18-1.07,10-.82,15.91,0a3.52,3.52,0,1,0,1-7Z"/><path class="cls-1" d="M494.45,302.89a4.92,4.92,0,0,0-9.1-3.76c-.81,1.94-19.29,48.33,16.13,113.75a4.92,4.92,0,1,0,8.66-4.69C477.15,347.26,494.21,303.47,494.45,302.89Z"/><path class="cls-1" d="M516.94,366.5a3.53,3.53,0,0,0-3.26-2.78,3.49,3.49,0,0,0-3.52,2.42c-.16.47-3.77,11.77,1.59,22.71a3.54,3.54,0,0,0,3.16,2,3.59,3.59,0,0,0,1.55-.36,3.51,3.51,0,0,0,1.61-4.71,22.25,22.25,0,0,1-2.13-8,87.16,87.16,0,0,0,6,6.37,3.52,3.52,0,0,0,4.86-5.09C522.45,374.84,517.45,368.88,516.94,366.5Z"/><path class="cls-1" d="M509.59,343.86a3.75,3.75,0,0,0,1.18-.2,3.52,3.52,0,0,0,2.32-3.59c-.18-2.42,2.92-9.56,5.9-14.79a3.52,3.52,0,0,0-6.11-3.48,84.12,84.12,0,0,0-3.93,7.8,22.21,22.21,0,0,1-.25-8.31,3.51,3.51,0,1,0-6.93-1.17c-2,12,4.64,21.81,4.93,22.23A3.53,3.53,0,0,0,509.59,343.86Z"/><path class="cls-1" d="M318,256.74c1.19.71,20.61,11.92,53.92,11.92,16.93,0,37.44-2.89,61-11.53a4.93,4.93,0,0,0-3.4-9.25c-65,23.88-105.91.71-106.47.39a4.92,4.92,0,0,0-5,8.47Z"/><path class="cls-1" d="M387.85,241.82a33.77,33.77,0,0,0,13.92,3,28.65,28.65,0,0,0,8.79-1.35,3.52,3.52,0,0,0-2.16-6.7,22.25,22.25,0,0,1-8.26.95,86.57,86.57,0,0,0,7.16-5,3.52,3.52,0,0,0-4.33-5.54c-4.74,3.7-11.36,7.79-13.78,7.95a3.52,3.52,0,0,0-1.34,6.66Z"/><path class="cls-1" d="M341.11,243.51a28.59,28.59,0,0,0,8.78,1.35,33.77,33.77,0,0,0,13.92-3,3.52,3.52,0,0,0-1.33-6.66c-2.43-.16-9-4.25-13.78-7.95a3.52,3.52,0,1,0-4.33,5.54,83.09,83.09,0,0,0,7.16,5,22,22,0,0,1-8.26-.95,3.52,3.52,0,1,0-2.16,6.7Z"/><path class="cls-1" d="M366,0C164.2,0,0,164.2,0,366S164.2,732,366,732s366-164.2,366-366S567.84,0,366,0Zm0,697.87C182.74,697.87,34.17,549.3,34.17,366S182.74,34.17,366,34.17,697.87,182.74,697.87,366,549.3,697.87,366,697.87Z"/></g></g></svg>