<?xml version="1.0" encoding="utf-8"?>
<!-- Generator: Adobe Illustrator 27.2.0, SVG Export Plug-In . SVG Version: 6.00 Build 0)  -->
<svg version="1.1" id="Layer_1" xmlns="http://www.w3.org/2000/svg" xmlns:xlink="http://www.w3.org/1999/xlink" x="0px" y="0px"
	 viewBox="0 0 640.01 610.84" style="enable-background:new 0 0 640.01 610.84;" xml:space="preserve">
<style type="text/css">
	.st0{fill:#3142EE;}
	.st1{fill:#2034E5;}
	.st2{fill:url(#SVGID_1_);}
	.st3{clip-path:url(#SVGID_00000031183151498051729830000004643296883205488524_);}
	.st4{opacity:0.5;}
	.st5{fill:#6C82FF;}
	.st6{fill:#8098FF;}
	.st7{fill:#FFFFFF;}
	.st8{fill:#F4F4F4;}
	.st9{fill:#CCCCCC;stroke:#CCCCCC;stroke-width:3;stroke-miterlimit:10;}
	.st10{fill:#F4F4F4;stroke:#CCCCCC;stroke-width:3;stroke-miterlimit:10;}
	.st11{fill:none;stroke:#CCCCCC;stroke-width:3;stroke-linecap:round;stroke-linejoin:round;stroke-miterlimit:10;}
	.st12{fill:none;stroke:#CCCCCC;stroke-width:3;stroke-miterlimit:10;}
	.st13{fill:none;stroke:#CCCCCC;stroke-width:3;stroke-linecap:round;stroke-miterlimit:10;}
	.st14{clip-path:url(#SVGID_00000145753175047811140920000016510905065833106585_);fill:#FFFFFF;}
	.st15{fill:#F2F2FF;}
	.st16{fill:#C875EC;}
	.st17{fill:#252B3A;}
	.st18{fill:#02166C;}
	.st19{fill:none;stroke:#49B9FF;stroke-miterlimit:10;}
	.st20{fill:none;stroke:#FF64BD;stroke-miterlimit:10;}
	.st21{fill:#FF7B00;}
	.st22{fill:#3B51FF;}
	.st23{fill:#3C59F5;}
	.st24{fill:#FFFFFF;stroke:#000000;stroke-width:7;stroke-miterlimit:10;}
	.st25{fill:#3C4FF5;}
	.st26{stroke:#000000;stroke-width:7;stroke-linecap:round;stroke-linejoin:round;stroke-miterlimit:10;}
	.st27{fill:none;stroke:#000000;stroke-width:7;stroke-linecap:round;stroke-linejoin:round;stroke-miterlimit:10;}
	.st28{fill:#FFDF00;stroke:#FFDF00;stroke-width:7;stroke-miterlimit:10;}
	.st29{fill:#FFDF00;}
	.st30{fill:#FFDF00;stroke:#000000;stroke-width:7;stroke-miterlimit:10;}
	.st31{fill:#3C4FF5;stroke:#000000;stroke-width:7;stroke-linejoin:round;stroke-miterlimit:10;}
	.st32{fill:#FFDF00;stroke:#000000;stroke-width:7;stroke-linecap:round;stroke-linejoin:round;stroke-miterlimit:10;}
	.st33{fill:#FFFFFF;stroke:#000000;stroke-width:7;stroke-linecap:round;stroke-linejoin:round;stroke-miterlimit:10;}
	.st34{fill:none;stroke:#000000;stroke-width:6;stroke-linecap:round;stroke-linejoin:round;stroke-miterlimit:10;}
	.st35{opacity:0.5;fill:#FFFFFF;}
	.st36{fill:#CCCCCC;}
	.st37{fill:#FFFFFF;stroke:#000000;stroke-width:4;stroke-linecap:round;stroke-linejoin:round;stroke-miterlimit:10;}
	.st38{fill:#FFFFFF;stroke:#1D1D1B;stroke-width:4;stroke-linecap:round;stroke-linejoin:round;stroke-miterlimit:10;}
	.st39{fill:#CBCBCB;}
	.st40{fill:none;stroke:#000000;stroke-width:4;stroke-linecap:round;stroke-linejoin:round;stroke-miterlimit:10;}
	.st41{fill:none;stroke:#1D1D1B;stroke-width:4;stroke-linecap:round;stroke-linejoin:round;stroke-miterlimit:10;}
	.st42{fill:#1D1D1B;stroke:#1D1D1B;stroke-width:4;stroke-linecap:round;stroke-linejoin:round;stroke-miterlimit:10;}
	.st43{fill:#FFEB3B;stroke:#FFEB3B;stroke-width:4;stroke-miterlimit:10;}
	.st44{fill:none;stroke:#B22D2D;stroke-width:4;stroke-miterlimit:10;}
	.st45{fill:#1D1D1B;}
	.st46{fill:none;stroke:#FFFFFF;stroke-width:4;stroke-linecap:round;stroke-linejoin:round;stroke-miterlimit:10;}
	.st47{fill:#3B51FF;stroke:#1D1D1B;stroke-width:4;stroke-linecap:round;stroke-linejoin:round;stroke-miterlimit:10;}
	.st48{clip-path:url(#SVGID_00000103985697336152454270000004219055427392646807_);fill:#FFFFFF;}
	.st49{fill:#56B982;}
	.st50{fill:none;stroke:#000000;stroke-width:3.6;stroke-linecap:round;stroke-linejoin:round;stroke-miterlimit:10;}
	.st51{fill:#C3F8D5;}
	.st52{stroke:#000000;stroke-width:3.6;stroke-linecap:round;stroke-linejoin:round;stroke-miterlimit:10;}
	.st53{fill:#C9C9C9;stroke:#000000;stroke-width:3.6;stroke-linecap:round;stroke-linejoin:round;stroke-miterlimit:10;}
	.st54{fill:#FFEB3B;stroke:#1D1D1B;stroke-width:4;stroke-linecap:round;stroke-linejoin:round;stroke-miterlimit:10;}
	.st55{fill:#FF0000;stroke:#1D1D1B;stroke-width:4;stroke-linecap:round;stroke-linejoin:round;stroke-miterlimit:10;}
	.st56{fill:#303ED3;stroke:#000000;stroke-width:5;stroke-miterlimit:10;}
	.st57{fill:#041071;stroke:#000000;stroke-width:4;stroke-linecap:round;stroke-linejoin:round;stroke-miterlimit:10;}
	.st58{fill:#041071;stroke:#000000;stroke-width:4;stroke-miterlimit:10;}
	.st59{fill:#3B51FF;stroke:#000000;stroke-width:5;stroke-miterlimit:10;}
	.st60{fill:#C062EC;}
	.st61{fill:#FFFFFF;stroke:#000000;stroke-width:2;stroke-miterlimit:10;}
	.st62{clip-path:url(#SVGID_00000160164524026099058440000010977291255767794333_);}
	.st63{fill:#B8FF00;}
	.st64{clip-path:url(#SVGID_00000065067685849061515480000003449255142580057252_);fill:#FFFFFF;}
	.st65{fill:#FBE04B;}
	.st66{fill:#EE772F;}
	.st67{fill:#DFFFC2;}
	.st68{fill:#A6FF00;}
	.st69{fill:#FF9500;}
	.st70{fill:#49B9FF;}
	.st71{fill:#FF64BD;}
	.st72{fill:#140D71;}
	.st73{fill:#969696;}
</style>
<path class="st7" d="M607.95,610.84H32.06C14.36,610.84,0,596.48,0,578.77V32.06C0,14.36,14.36,0,32.06,0h575.88
	c17.71,0,32.06,14.36,32.06,32.06v546.71C640.01,596.48,625.65,610.84,607.95,610.84z"/>
<g>
	<rect x="0" y="191.8" class="st70" width="640.01" height="1"/>
	<rect x="0" y="97.91" class="st70" width="640.01" height="1"/>
	<rect x="0" y="92.56" class="st70" width="640.01" height="1"/>
	<rect x="0" y="379.58" class="st70" width="640.01" height="1"/>
	<rect x="0" y="285.69" class="st70" width="640.01" height="1"/>
	<rect x="0" y="567.36" class="st70" width="640.01" height="1"/>
	<rect x="0" y="473.47" class="st70" width="640.01" height="1"/>
	<rect x="81.33" y="0" class="st71" width="1" height="610.84"/>
	<g>
		<path d="M149.56,120.39v7.81h-13.69v3.07c0,0.51-0.06,1.02-0.06,1.47c-0.06,0.51-0.13,0.96-0.19,1.41l14.91,8.64l-4.8,6.78
			l-13.89-8c-3.46,3.84-9.02,6.59-16.57,8.26l-4.29-7.04c2.3-0.51,4.42-1.09,6.27-1.73c1.79-0.64,3.39-1.41,4.67-2.3
			s2.24-1.92,2.94-3.2c0.64-1.22,0.96-2.69,0.96-4.35v-3.01h-13.05v-7.81H149.56z M164.92,153.09v21.44h-48.64v-21.44H164.92z
			 M126.33,160.84v5.95h28.54v-5.95H126.33z M164.92,119.75v30.46h-10.05v-30.46H164.92z"/>
		<path d="M189.94,143.69v1.34c-0.06,0.45-0.06,0.9-0.06,1.34l8.45,6.46c0.51-2.56,0.77-5.63,0.77-9.22v-23.36h9.41v23.42
			c0,5.63-0.7,10.37-2.11,14.21l9.92,7.94l-5.5,6.91l-8.7-7.3c-1.15,1.34-2.37,2.69-3.78,3.97c-1.47,1.28-3.07,2.56-4.86,3.84
			l-5.5-6.27c1.41-0.9,2.75-1.86,3.9-2.88c1.09-0.9,2.05-1.92,2.94-3.07l-6.53-5.18c-1.02,3.07-2.56,5.89-4.61,8.38
			c-2.18,2.5-5.05,4.86-8.64,7.04l-5.38-6.91c1.86-0.9,3.46-1.98,4.86-3.26c1.34-1.22,2.5-2.69,3.39-4.35
			c0.9-1.6,1.54-3.52,1.98-5.7c0.38-2.11,0.64-4.61,0.64-7.42v-23.36h9.41V143.69z M229.55,139.78h5.57v7.81h-5.57v25.66h-10.05
			v-53.5h10.05V139.78z"/>
		<path d="M149.56,214.39v7.81h-13.69v3.07c0,0.51-0.06,1.02-0.06,1.47c-0.06,0.51-0.13,0.96-0.19,1.41l14.91,8.64l-4.8,6.78
			l-13.89-8c-3.46,3.84-9.02,6.59-16.57,8.26l-4.29-7.04c2.3-0.51,4.42-1.09,6.27-1.73c1.79-0.64,3.39-1.41,4.67-2.3
			s2.24-1.92,2.94-3.2c0.64-1.22,0.96-2.69,0.96-4.35v-3.01h-13.05v-7.81H149.56z M164.92,247.09v21.44h-48.64v-21.44H164.92z
			 M126.33,254.84v5.95h28.54v-5.95H126.33z M164.92,213.75v30.46h-10.05v-30.46H164.92z"/>
		<path d="M189.94,237.69v1.34c-0.06,0.45-0.06,0.9-0.06,1.34l8.45,6.46c0.51-2.56,0.77-5.63,0.77-9.22v-23.36h9.41v23.42
			c0,5.63-0.7,10.37-2.11,14.21l9.92,7.94l-5.5,6.91l-8.7-7.3c-1.15,1.34-2.37,2.69-3.78,3.97c-1.47,1.28-3.07,2.56-4.86,3.84
			l-5.5-6.27c1.41-0.9,2.75-1.86,3.9-2.88c1.09-0.9,2.05-1.92,2.94-3.07l-6.53-5.18c-1.02,3.07-2.56,5.89-4.61,8.38
			c-2.18,2.5-5.05,4.86-8.64,7.04l-5.38-6.91c1.86-0.9,3.46-1.98,4.86-3.26c1.34-1.22,2.5-2.69,3.39-4.35
			c0.9-1.6,1.54-3.52,1.98-5.7c0.38-2.11,0.64-4.61,0.64-7.42v-23.36h9.41V237.69z M229.55,233.78h5.57v7.81h-5.57v25.66h-10.05
			v-53.5h10.05V233.78z"/>
		<path d="M257.33,232.89c0-3.01,0.64-5.7,1.92-8c1.22-2.3,2.94-4.22,5.18-5.82c2.18-1.54,4.74-2.75,7.68-3.58
			c2.94-0.77,6.08-1.15,9.41-1.15c3.33,0,6.46,0.38,9.41,1.15c2.94,0.83,5.5,2.05,7.74,3.58c2.18,1.6,3.9,3.52,5.18,5.82
			c1.28,2.3,1.92,4.99,1.92,8c0,2.69-0.51,5.06-1.47,7.1c-1.02,2.11-2.37,3.9-4.03,5.44c-1.73,1.54-3.78,2.82-6.08,3.71
			c-2.37,1.02-4.93,1.66-7.62,1.98v8.32h21.69v7.81h-53.44v-7.81h21.69v-8.32c-2.82-0.32-5.31-0.96-7.62-1.98
			c-2.37-0.9-4.42-2.18-6.08-3.71c-1.79-1.54-3.14-3.33-4.03-5.44C257.78,237.94,257.33,235.58,257.33,232.89z M267.38,232.89
			c0,3.46,1.22,6.08,3.78,7.94c2.43,1.92,5.89,2.82,10.37,2.82c4.35,0,7.87-0.9,10.43-2.82c2.5-1.86,3.78-4.48,3.78-7.94
			c0-3.39-1.28-6.02-3.78-7.94c-2.56-1.86-6.08-2.82-10.43-2.82c-4.48,0-7.93,0.96-10.37,2.82
			C268.6,226.87,267.38,229.5,267.38,232.89z"/>
		<path d="M349.04,215.03v7.81h-23.17v35.97h23.81v7.81h-33.85v-51.58H349.04z M367.15,267.25h-10.05v-25.21l-15.1,5.18v-8
			l15.1-5.18v-20.29h10.05V267.25z"/>
		<path d="M149.56,308.39v7.81h-13.69v3.07c0,0.51-0.06,1.02-0.06,1.47c-0.06,0.51-0.13,0.96-0.19,1.41l14.91,8.64l-4.8,6.78
			l-13.89-8c-3.46,3.84-9.02,6.59-16.57,8.26l-4.29-7.04c2.3-0.51,4.42-1.09,6.27-1.73c1.79-0.64,3.39-1.41,4.67-2.3
			s2.24-1.92,2.94-3.2c0.64-1.22,0.96-2.69,0.96-4.35v-3.01h-13.05v-7.81H149.56z M164.92,341.09v21.44h-48.64v-21.44H164.92z
			 M126.33,348.84v5.95h28.54v-5.95H126.33z M164.92,307.75v30.46h-10.05v-30.46H164.92z"/>
		<path d="M189.94,331.69v1.34c-0.06,0.45-0.06,0.9-0.06,1.34l8.45,6.46c0.51-2.56,0.77-5.63,0.77-9.22v-23.36h9.41v23.42
			c0,5.63-0.7,10.37-2.11,14.21l9.92,7.94l-5.5,6.91l-8.7-7.3c-1.15,1.34-2.37,2.69-3.78,3.97c-1.47,1.28-3.07,2.56-4.86,3.84
			l-5.5-6.27c1.41-0.9,2.75-1.86,3.9-2.88c1.09-0.9,2.05-1.92,2.94-3.07l-6.53-5.18c-1.02,3.07-2.56,5.89-4.61,8.38
			c-2.18,2.5-5.05,4.86-8.64,7.04l-5.38-6.91c1.86-0.9,3.46-1.98,4.86-3.26c1.34-1.22,2.5-2.69,3.39-4.35
			c0.9-1.6,1.54-3.52,1.98-5.7c0.38-2.11,0.64-4.61,0.64-7.42v-23.36h9.41V331.69z M229.55,327.78h5.57v7.81h-5.57v25.66h-10.05
			v-53.5h10.05V327.78z"/>
		<path d="M267.57,332.01v-3.52c-4.03-0.45-7.17-1.54-9.34-3.33c-2.3-1.66-3.39-3.97-3.39-6.85c0-1.66,0.38-3.2,1.22-4.54
			c0.77-1.28,1.98-2.37,3.52-3.26c1.54-0.9,3.39-1.54,5.57-2.05c2.18-0.38,4.61-0.64,7.3-0.64c2.69,0,5.12,0.26,7.3,0.64
			c2.18,0.51,4.03,1.15,5.57,2.05s2.69,1.98,3.58,3.26c0.77,1.34,1.22,2.88,1.22,4.54c0,2.82-1.15,5.12-3.33,6.78
			c-2.24,1.73-5.31,2.82-9.15,3.33v3.58h14.27v7.81h-38.65v-7.81H267.57z M299.19,344.04c0,1.41-0.13,2.69-0.32,3.84
			c-0.26,1.22-0.51,2.37-0.9,3.46l11.46,3.39l-4.03,7.17l-11.58-3.78c-3.2,3.39-7.74,5.76-13.5,7.17l-4.16-6.53
			c1.47-0.38,2.82-0.83,4.03-1.28c1.15-0.51,2.24-1.02,3.26-1.54l-9.21-2.88c-1.66,2.05-3.84,3.71-6.4,5.06
			c-2.69,1.28-5.57,2.3-8.64,3.07l-3.9-7.36c3.97-0.7,7.04-1.86,9.22-3.39c2.18-1.47,3.26-3.58,3.26-6.4v-1.09h9.6v1.09
			c0,0.83-0.06,1.6-0.19,2.24l11.52,3.71c0.58-1.6,0.9-3.58,0.9-5.95v-1.09h9.6V344.04z M264.88,318.31c0,0.51,0.19,0.96,0.64,1.28
			c0.38,0.38,0.9,0.64,1.6,0.83c0.64,0.26,1.47,0.38,2.43,0.45c0.9,0.13,1.86,0.13,2.88,0.13s1.98-0.06,2.94-0.19
			c0.9-0.06,1.73-0.19,2.5-0.45c0.64-0.19,1.21-0.45,1.66-0.83c0.38-0.32,0.58-0.7,0.58-1.22c0-0.45-0.19-0.83-0.58-1.22
			c-0.45-0.32-1.02-0.64-1.66-0.9c-0.77-0.19-1.6-0.38-2.5-0.51c-0.96-0.06-1.92-0.13-2.94-0.13c-2.05,0-3.84,0.26-5.31,0.64
			C265.59,316.65,264.88,317.35,264.88,318.31z M305.72,327.53v12.54h-10.05v-32.32h10.05v11.97h5.57v7.81H305.72z"/>
		<path d="M367.15,361.25h-10.05v-24.89l-8.19,2.82c-0.32,4.1-1.02,7.49-2.11,10.24c-1.15,2.82-2.5,5.06-4.1,6.85
			c-1.66,1.73-3.39,3.01-5.31,3.84c-1.98,0.77-3.97,1.15-5.89,1.15c-2.18,0-4.35-0.51-6.4-1.41c-2.18-0.96-4.03-2.43-5.7-4.48
			c-1.66-2.05-3.01-4.8-3.97-8.19c-1.02-3.33-1.54-7.49-1.54-12.35s0.51-8.96,1.54-12.35c0.96-3.33,2.3-6.02,3.97-8.13
			c1.66-2.05,3.52-3.58,5.7-4.54c2.05-0.9,4.22-1.41,6.4-1.41c1.98,0,3.97,0.45,5.95,1.22c1.92,0.83,3.71,2.11,5.38,3.9
			c1.6,1.86,2.94,4.22,4.1,7.1c1.09,2.94,1.79,6.46,2.05,10.56l8.13-2.82v-20.61h10.05V361.25z M323.89,334.82
			c0,3.65,0.19,6.66,0.64,9.02c0.38,2.43,0.96,4.29,1.73,5.7c0.71,1.47,1.54,2.5,2.43,3.01c0.9,0.64,1.79,0.9,2.82,0.9
			c0.9,0,1.86-0.26,2.75-0.9c0.9-0.51,1.66-1.54,2.43-2.94c0.64-1.41,1.22-3.33,1.73-5.76c0.38-2.37,0.64-5.38,0.64-9.09
			c0-3.58-0.26-6.59-0.64-9.02c-0.51-2.37-1.09-4.29-1.73-5.7c-0.77-1.41-1.54-2.37-2.43-3.01c-0.9-0.51-1.86-0.83-2.75-0.83
			c-1.02,0-1.92,0.32-2.82,0.83c-0.9,0.64-1.73,1.6-2.43,3.01c-0.77,1.47-1.34,3.39-1.73,5.76
			C324.08,328.23,323.89,331.24,323.89,334.82z"/>
		<path d="M375.16,353.45h8.9V340.2c-2.05-1.54-3.58-3.39-4.67-5.63c-1.15-2.18-1.73-4.74-1.73-7.68c0-3.01,0.64-5.7,1.92-8
			c1.22-2.3,2.94-4.22,5.18-5.82c2.18-1.54,4.74-2.75,7.68-3.58c2.94-0.77,6.08-1.15,9.41-1.15c3.33,0,6.46,0.38,9.41,1.15
			c2.94,0.83,5.5,2.05,7.74,3.58c2.18,1.6,3.9,3.52,5.18,5.82c1.28,2.3,1.92,4.99,1.92,8c0,2.88-0.58,5.44-1.66,7.62
			c-1.15,2.24-2.75,4.16-4.74,5.7v13.25h8.89v7.81h-53.44V353.45z M387.7,326.89c0,3.46,1.22,6.08,3.78,7.94
			c2.43,1.92,5.89,2.82,10.37,2.82c4.35,0,7.87-0.9,10.43-2.82c2.5-1.86,3.78-4.48,3.78-7.94c0-3.39-1.28-6.02-3.78-7.94
			c-2.56-1.86-6.08-2.82-10.43-2.82c-4.48,0-7.93,0.96-10.37,2.82C388.92,320.87,387.7,323.5,387.7,326.89z M401.84,345.45
			c-2.75,0-5.31-0.26-7.74-0.77v8.77h15.55v-8.77C407.09,345.19,404.53,345.45,401.84,345.45z"/>
		<path d="M149.56,402.39v7.81h-13.69v3.07c0,0.51-0.06,1.02-0.06,1.47c-0.06,0.51-0.13,0.96-0.19,1.41l14.91,8.64l-4.8,6.78
			l-13.89-8c-3.46,3.84-9.02,6.59-16.57,8.26l-4.29-7.04c2.3-0.51,4.42-1.09,6.27-1.73c1.79-0.64,3.39-1.41,4.67-2.3
			s2.24-1.92,2.94-3.2c0.64-1.22,0.96-2.69,0.96-4.35v-3.01h-13.05v-7.81H149.56z M164.92,435.09v21.44h-48.64v-21.44H164.92z
			 M126.33,442.84v5.95h28.54v-5.95H126.33z M164.92,401.75v30.46h-10.05v-30.46H164.92z"/>
		<path d="M189.94,425.69v1.34c-0.06,0.45-0.06,0.9-0.06,1.34l8.45,6.46c0.51-2.56,0.77-5.63,0.77-9.22v-23.36h9.41v23.42
			c0,5.63-0.7,10.37-2.11,14.21l9.92,7.94l-5.5,6.91l-8.7-7.3c-1.15,1.34-2.37,2.69-3.78,3.97c-1.47,1.28-3.07,2.56-4.86,3.84
			l-5.5-6.27c1.41-0.9,2.75-1.86,3.9-2.88c1.09-0.9,2.05-1.92,2.94-3.07l-6.53-5.18c-1.02,3.07-2.56,5.89-4.61,8.38
			c-2.18,2.5-5.05,4.86-8.64,7.04l-5.38-6.91c1.86-0.9,3.46-1.98,4.86-3.26c1.34-1.22,2.5-2.69,3.39-4.35
			c0.9-1.6,1.54-3.52,1.98-5.7c0.38-2.11,0.64-4.61,0.64-7.42v-23.36h9.41V425.69z M229.55,421.78h5.57v7.81h-5.57v25.66h-10.05
			v-53.5h10.05V421.78z"/>
		<path d="M259.19,425.69c0,1.79-0.06,3.39-0.19,4.93c-0.19,1.6-0.45,3.14-0.7,4.61l12.93,12.16l-5.57,6.78l-10.75-10.11
			c-1.41,2.24-3.14,4.16-5.18,5.95c-2.18,1.66-4.74,3.07-7.74,4.22l-4.42-7.42c2.05-0.9,3.84-1.86,5.31-3.01
			c1.41-1.09,2.62-2.5,3.58-4.16c0.9-1.6,1.6-3.52,2.05-5.82c0.38-2.24,0.64-4.99,0.64-8.19v-23.36h10.05V425.69z M273.84,455.25
			v-28.93l-9.02,3.14v-8.64l9.02-3.14v-15.93h9.22v53.5H273.84z M297.01,455.25h-9.28v-53.5h9.28V455.25z"/>
		<path d="M304.12,447.45h8.9V434.2c-2.05-1.54-3.58-3.39-4.67-5.63c-1.15-2.18-1.73-4.74-1.73-7.68c0-3.01,0.64-5.7,1.92-8
			c1.22-2.3,2.94-4.22,5.18-5.82c2.18-1.54,4.74-2.75,7.68-3.58c2.94-0.77,6.08-1.15,9.41-1.15s6.46,0.38,9.41,1.15
			c2.94,0.83,5.5,2.05,7.74,3.58c2.18,1.6,3.9,3.52,5.18,5.82c1.28,2.3,1.92,4.99,1.92,8c0,2.88-0.58,5.44-1.66,7.62
			c-1.15,2.24-2.75,4.16-4.74,5.7v13.25h8.9v7.81h-53.44V447.45z M316.66,420.89c0,3.46,1.21,6.08,3.78,7.94
			c2.43,1.92,5.89,2.82,10.37,2.82c4.35,0,7.87-0.9,10.43-2.82c2.5-1.86,3.78-4.48,3.78-7.94c0-3.39-1.28-6.02-3.78-7.94
			c-2.56-1.86-6.08-2.82-10.43-2.82c-4.48,0-7.94,0.96-10.37,2.82C317.88,414.87,316.66,417.5,316.66,420.89z M330.8,439.45
			c-2.75,0-5.31-0.26-7.74-0.77v8.77h15.55v-8.77C336.05,439.19,333.49,439.45,330.8,439.45z"/>
		<path d="M148.15,522.82c0,4.86-0.51,9.02-1.54,12.35c-1.09,3.39-2.43,6.14-4.1,8.19c-1.73,2.05-3.65,3.52-5.82,4.48
			c-2.24,0.9-4.48,1.41-6.78,1.41c-2.37,0-4.61-0.51-6.78-1.41c-2.24-0.96-4.16-2.43-5.82-4.48c-1.73-2.05-3.07-4.8-4.1-8.19
			c-1.02-3.33-1.54-7.49-1.54-12.35s0.51-8.96,1.54-12.35c1.02-3.33,2.37-6.02,4.1-8.13c1.66-2.05,3.58-3.58,5.82-4.54
			c2.18-0.9,4.42-1.41,6.78-1.41c2.3,0,4.54,0.51,6.78,1.41c2.18,0.96,4.1,2.5,5.82,4.54c1.66,2.11,3.01,4.8,4.1,8.13
			C147.64,513.86,148.15,517.96,148.15,522.82z M121.66,522.82c0,3.65,0.19,6.66,0.7,9.02c0.38,2.43,1.02,4.29,1.79,5.7
			c0.71,1.47,1.6,2.5,2.62,3.01c0.96,0.64,1.98,0.9,3.13,0.9c1.02,0,2.11-0.26,3.14-0.9c0.96-0.51,1.86-1.54,2.62-2.94
			c0.7-1.41,1.28-3.33,1.79-5.76c0.38-2.37,0.64-5.38,0.64-9.09c0-3.58-0.26-6.59-0.64-9.02c-0.51-2.37-1.09-4.29-1.79-5.7
			c-0.77-1.41-1.66-2.37-2.62-3.01c-1.02-0.51-2.11-0.83-3.14-0.83c-1.15,0-2.18,0.32-3.13,0.83c-1.02,0.64-1.92,1.6-2.62,3.01
			c-0.77,1.47-1.41,3.39-1.79,5.76C121.85,516.23,121.66,519.24,121.66,522.82z M164.92,549.25h-10.05v-53.5h10.05V549.25z"/>
		<path d="M195.38,519.69c0,3.2-0.32,6.21-0.96,9.02l15.68,12.03l-4.93,7.42l-14.14-11.01c-1.66,2.5-3.71,4.67-6.21,6.46
			c-2.56,1.79-5.7,3.33-9.41,4.61l-4.42-7.42c2.56-0.9,4.74-1.86,6.59-3.01c1.79-1.09,3.26-2.5,4.42-4.16
			c1.15-1.6,1.98-3.52,2.56-5.82c0.51-2.24,0.77-4.99,0.77-8.19v-23.36h10.05V519.69z M223.16,515.78h5.57v7.81h-5.57v25.66h-10.05
			v-53.5h10.05V515.78z"/>
		<path d="M254.9,497.67h13.05v7.81H231.8v-7.81h13.05V493h10.05V497.67z M249.85,507.72c5.5,0,9.66,0.7,12.48,2.11
			c2.69,1.47,4.1,3.52,4.1,6.21c0,5.5-5.57,8.26-16.57,8.26c-11.01,0-16.45-2.75-16.45-8.26c0-2.69,1.34-4.74,4.16-6.21
			C240.25,508.42,244.34,507.72,249.85,507.72z M273.27,535.81v-2.94H236.6v-5.89h46.72v14.72h-36.67v2.94h37.31v5.89H236.6v-14.72
			H273.27z M249.85,513.86c-1.79,0-3.33,0.13-4.54,0.38c-1.28,0.32-1.86,0.9-1.86,1.79c0,0.9,0.58,1.47,1.86,1.73
			c1.22,0.32,2.75,0.45,4.54,0.45c0.83,0,1.66,0,2.5-0.13c0.77,0,1.41-0.13,2.05-0.32c0.58-0.13,1.09-0.38,1.47-0.7
			c0.32-0.26,0.51-0.58,0.51-1.02c0-0.38-0.19-0.77-0.51-1.09c-0.38-0.26-0.9-0.51-1.47-0.7c-0.64-0.13-1.34-0.19-2.11-0.32
			C251.45,513.93,250.61,513.86,249.85,513.86z M283.31,514.25v9.85h-10.05v-28.35h10.05v10.69h5.57v7.81H283.31z"/>
		<path d="M323.12,500.23v7.81h-6.4v32.77h6.4v7.81h-15.61v-48.38H323.12z M341.04,497.03v7.81h-6.4v35.97h7.04v7.81h-16.25v-51.58
			H341.04z M345.2,549.25v-53.5h9.22v22.4l4.99-1.73v-20.67h9.28v53.5h-9.28v-24.19l-4.99,1.73v22.46H345.2z"/>
		<path d="M427.31,496.39v7.81h-13.69v3.07c0,0.51-0.06,1.02-0.06,1.47c-0.06,0.51-0.13,0.96-0.19,1.41l14.91,8.64l-4.8,6.78
			l-13.89-8c-3.46,3.84-9.02,6.59-16.57,8.26l-4.29-7.04c2.3-0.51,4.42-1.09,6.27-1.73c1.79-0.64,3.39-1.41,4.67-2.3
			s2.24-1.92,2.94-3.2c0.64-1.22,0.96-2.69,0.96-4.35v-3.01h-13.05v-7.81H427.31z M442.67,529.09v21.44h-48.64v-21.44H442.67z
			 M404.08,536.84v5.95h28.54v-5.95H404.08z M442.67,495.75v30.46h-10.05v-30.46H442.67z"/>
		<path d="M467.7,519.69v1.34c-0.06,0.45-0.06,0.9-0.06,1.34l8.45,6.46c0.51-2.56,0.77-5.63,0.77-9.22v-23.36h9.41v23.42
			c0,5.63-0.7,10.37-2.11,14.21l9.92,7.94l-5.5,6.91l-8.7-7.3c-1.15,1.34-2.37,2.69-3.78,3.97c-1.47,1.28-3.07,2.56-4.86,3.84
			l-5.5-6.27c1.41-0.9,2.75-1.86,3.9-2.88c1.09-0.9,2.05-1.92,2.94-3.07l-6.53-5.18c-1.02,3.07-2.56,5.89-4.61,8.38
			c-2.18,2.5-5.05,4.86-8.64,7.04l-5.38-6.91c1.86-0.9,3.46-1.98,4.86-3.26c1.34-1.22,2.5-2.69,3.39-4.35
			c0.9-1.6,1.54-3.52,1.98-5.7c0.38-2.11,0.64-4.61,0.64-7.42v-23.36h9.41V519.69z M507.31,515.78h5.57v7.81h-5.57v25.66h-10.05
			v-53.5h10.05V515.78z"/>
	</g>
	<g>
		<g>
			<path class="st72" d="M35.17,133.75h9.6v31.07h-4v-27.79h-5.6V133.75z"/>
			<path class="st72" d="M30.35,257.83v-2.76l10.44-9.56c0.76-0.68,1.56-1.4,2.36-2.2c0.8-0.76,1.52-1.56,2.2-2.44
				c0.64-0.8,1.16-1.68,1.6-2.56c0.4-0.88,0.6-1.76,0.6-2.72c0-2.12-0.6-3.72-1.76-4.76c-1.2-1-2.84-1.52-4.96-1.52
				c-0.96,0-1.84,0.2-2.64,0.52c-0.8,0.4-1.52,0.88-2.16,1.48c-0.68,0.64-1.24,1.32-1.72,2.12c-0.52,0.84-0.92,1.68-1.2,2.56
				l-3.4-1.76c0.88-2.56,2.28-4.6,4.28-6.08c1.92-1.44,4.4-2.16,7.4-2.16c3.12,0,5.64,0.84,7.48,2.48c1.8,1.68,2.68,4.12,2.68,7.24
				c0,1.04-0.24,2.08-0.68,3.12c-0.48,1.08-1.04,2.12-1.72,3.12c-0.72,1.04-1.52,2-2.4,2.92c-0.88,0.96-1.76,1.8-2.64,2.6
				l-7.68,7.04h16.36v3.32H30.35z"/>
			<path class="st72" d="M29.77,325.95c0.4-1.04,0.92-2.04,1.64-2.92c0.68-0.84,1.48-1.56,2.44-2.2c0.88-0.56,1.88-1.04,3-1.36
				c1.08-0.32,2.24-0.48,3.44-0.48c1.76,0,3.32,0.24,4.72,0.64c1.36,0.48,2.56,1.08,3.52,1.84c0.92,0.8,1.64,1.68,2.16,2.72
				c0.48,1.08,0.72,2.2,0.72,3.4c0,0.84-0.12,1.64-0.32,2.4c-0.24,0.8-0.56,1.52-0.96,2.16c-0.44,0.68-0.96,1.24-1.56,1.72
				c-0.64,0.48-1.32,0.84-2.04,1.08c0.72,0.2,1.44,0.52,2.16,0.92c0.68,0.44,1.28,0.96,1.84,1.6c0.52,0.64,0.96,1.4,1.28,2.2
				c0.32,0.88,0.48,1.8,0.48,2.76c0,1.68-0.36,3.08-1,4.24c-0.68,1.16-1.56,2.12-2.64,2.88c-1.12,0.72-2.4,1.24-3.84,1.6
				c-1.48,0.32-3,0.48-4.56,0.48c-1.2,0-2.36-0.16-3.48-0.4c-1.12-0.28-2.2-0.68-3.16-1.24c-1-0.56-1.88-1.28-2.64-2.12
				c-0.8-0.88-1.48-1.84-2-3l3.6-1.68c0.56,1.64,1.52,2.92,2.96,3.8c1.36,0.88,2.92,1.36,4.68,1.36c1,0,2-0.12,2.96-0.32
				c0.96-0.24,1.8-0.56,2.6-1c0.72-0.48,1.36-1.08,1.84-1.8c0.44-0.72,0.68-1.6,0.68-2.64s-0.24-1.96-0.68-2.72
				c-0.48-0.72-1.08-1.32-1.8-1.8c-0.76-0.44-1.6-0.76-2.56-1c-0.96-0.2-1.96-0.32-2.96-0.32h-2.88v-3.28h2.88
				c0.96,0,1.92-0.12,2.8-0.36c0.84-0.2,1.6-0.56,2.24-1.04c0.64-0.44,1.12-1,1.52-1.72c0.36-0.64,0.56-1.44,0.56-2.4
				s-0.2-1.84-0.6-2.56s-0.96-1.28-1.6-1.76c-0.68-0.44-1.44-0.8-2.32-1.04c-0.92-0.2-1.84-0.32-2.8-0.32
				c-0.72,0-1.44,0.16-2.12,0.4c-0.72,0.28-1.36,0.64-1.92,1.12c-0.64,0.48-1.16,1.04-1.6,1.68c-0.48,0.64-0.88,1.36-1.16,2.08
				L29.77,325.95z"/>
			<path class="st72" d="M29.03,437.07v-3.28l14.88-21.04h4.52v21.04h4.48v3.28h-4.48v6.76h-4v-6.76H29.03z M44.43,418.15
				l-11.04,15.64h11.04V418.15z"/>
			<path class="st72" d="M32.93,528.51c0.68,1.84,1.68,3.28,2.96,4.32c1.24,1.04,2.84,1.56,4.84,1.56c1.12,0,2.2-0.2,3.16-0.6
				c0.92-0.44,1.72-1,2.44-1.68c0.64-0.64,1.16-1.44,1.56-2.36c0.36-0.88,0.56-1.8,0.56-2.76c0-1.12-0.2-2.12-0.56-3.04
				c-0.4-0.88-0.92-1.68-1.6-2.36c-0.72-0.64-1.56-1.16-2.52-1.56c-1-0.32-2.12-0.52-3.36-0.52c-1.28,0-2.4,0.36-3.36,1.04
				c-0.96,0.72-1.84,1.6-2.6,2.72h-4.12v-17.52h20.44v3.32H34.33v9.8c2-1.76,4.4-2.68,7.24-2.68c1.52,0,2.96,0.28,4.32,0.76
				c1.32,0.56,2.48,1.28,3.48,2.2c0.96,0.96,1.72,2.08,2.28,3.36c0.52,1.36,0.8,2.8,0.8,4.4c0,1.44-0.28,2.8-0.76,4.08
				c-0.52,1.32-1.28,2.44-2.24,3.48c-1,0.96-2.24,1.76-3.68,2.36c-1.48,0.56-3.16,0.88-5.08,0.88c-3.04,0-5.52-0.72-7.4-2.08
				c-1.92-1.4-3.32-3.24-4.12-5.64L32.93,528.51z"/>
		</g>
	</g>
	<g>
		<path class="st73" d="M131.36,43.09v4.58h15.38v4.16h-35.96v-4.16h15.37v-4.58h-10.54V29.57h5.21v9.41h21.55v4.12H131.36z
			 M142.11,55.19v13.57h-5.21v-9.41h-21.88v-4.16H142.11z"/>
		<path class="st73" d="M148.58,51.54v-4.2h35.96v4.2H148.58z M166.55,29.78c8.95,0,13.91,3.23,13.91,7.65
			c0,4.45-4.96,7.73-13.86,7.73c-8.95,0-13.9-3.28-13.9-7.73C152.69,33.01,157.65,29.78,166.55,29.78z M153.15,68.21V54.69h26.8
			v13.53H153.15z M166.55,41.12c5.25,0,8.53-1.47,8.53-3.7c0-2.18-3.11-3.61-8.53-3.61c-5.38,0-8.48,1.43-8.48,3.61
			C158.07,39.65,161.18,41.12,166.55,41.12z M174.75,58.68h-16.38v5.5h16.38V58.68z"/>
		<path class="st73" d="M203.68,55.02c4.07,0.13,8.86-0.25,11.51-0.92l0.5,4.12c-2.98,0.8-8.82,1.09-13.44,1.09h-3.78V33.64h15.04
			v4.16c-3.28,0-6.51-0.04-9.83-0.04V55.02z M226.16,68.72V48.76h-3.53v18.11h-4.92V29.61h4.92v15h3.53V28.89h5v39.82H226.16z"/>
		<path class="st73" d="M255.6,45.99v4.12h15.46v4.16H235.1v-4.16h15.29v-4.12h-10.67V30.11h5.21v4.16h16.34v-4.24h5.21v15.96H255.6
			z M239.88,67.54V56.62h5.21v6.81h21.8v4.12H239.88z M261.27,38.3h-16.34v3.57h16.34V38.3z"/>
	</g>
</g>
</svg>
