<?xml version="1.0" encoding="utf-8"?>
<!-- Generator: Adobe Illustrator 27.2.0, SVG Export Plug-In . SVG Version: 6.00 Build 0)  -->
<svg version="1.1" id="Layer_1" xmlns="http://www.w3.org/2000/svg" xmlns:xlink="http://www.w3.org/1999/xlink" x="0px" y="0px"
	 viewBox="0 0 194.2 93.75" style="enable-background:new 0 0 194.2 93.75;" xml:space="preserve">
<style type="text/css">
	.st0{fill:#3142EE;}
	.st1{fill:#2034E5;}
	.st2{fill:url(#SVGID_1_);}
	.st3{clip-path:url(#SVGID_00000138541533988790992110000016547646648112698037_);}
	.st4{opacity:0.5;}
	.st5{fill:#6C82FF;}
	.st6{fill:#8098FF;}
	.st7{fill:#FFFFFF;}
	.st8{fill:#F4F4F4;}
	.st9{fill:#CCCCCC;stroke:#CCCCCC;stroke-width:3;stroke-miterlimit:10;}
	.st10{fill:#F4F4F4;stroke:#CCCCCC;stroke-width:3;stroke-miterlimit:10;}
	.st11{fill:none;stroke:#CCCCCC;stroke-width:3;stroke-linecap:round;stroke-linejoin:round;stroke-miterlimit:10;}
	.st12{fill:none;stroke:#CCCCCC;stroke-width:3;stroke-miterlimit:10;}
	.st13{fill:none;stroke:#CCCCCC;stroke-width:3;stroke-linecap:round;stroke-miterlimit:10;}
	.st14{clip-path:url(#SVGID_00000153687037151406450260000006642629380263680686_);fill:#FFFFFF;}
	.st15{fill:#F2F2FF;}
	.st16{fill:#C875EC;}
	.st17{fill:#252B3A;}
	.st18{fill:#02166C;}
	.st19{fill:none;stroke:#49B9FF;stroke-miterlimit:10;}
	.st20{fill:none;stroke:#FF64BD;stroke-miterlimit:10;}
	.st21{fill:#FF7B00;}
	.st22{fill:#3B51FF;}
	.st23{fill:#3C59F5;}
	.st24{fill:#FFFFFF;stroke:#000000;stroke-width:7;stroke-miterlimit:10;}
	.st25{fill:#3C4FF5;}
	.st26{stroke:#000000;stroke-width:7;stroke-linecap:round;stroke-linejoin:round;stroke-miterlimit:10;}
	.st27{fill:none;stroke:#000000;stroke-width:7;stroke-linecap:round;stroke-linejoin:round;stroke-miterlimit:10;}
	.st28{fill:#FFDF00;stroke:#FFDF00;stroke-width:7;stroke-miterlimit:10;}
	.st29{fill:#FFDF00;}
	.st30{fill:#FFDF00;stroke:#000000;stroke-width:7;stroke-miterlimit:10;}
	.st31{fill:#3C4FF5;stroke:#000000;stroke-width:7;stroke-linejoin:round;stroke-miterlimit:10;}
	.st32{fill:#FFDF00;stroke:#000000;stroke-width:7;stroke-linecap:round;stroke-linejoin:round;stroke-miterlimit:10;}
	.st33{fill:#FFFFFF;stroke:#000000;stroke-width:7;stroke-linecap:round;stroke-linejoin:round;stroke-miterlimit:10;}
	.st34{fill:none;stroke:#000000;stroke-width:6;stroke-linecap:round;stroke-linejoin:round;stroke-miterlimit:10;}
	.st35{opacity:0.5;fill:#FFFFFF;}
	.st36{fill:#CCCCCC;}
	.st37{fill:#FFFFFF;stroke:#000000;stroke-width:4;stroke-linecap:round;stroke-linejoin:round;stroke-miterlimit:10;}
	.st38{fill:#FFFFFF;stroke:#1D1D1B;stroke-width:4;stroke-linecap:round;stroke-linejoin:round;stroke-miterlimit:10;}
	.st39{fill:#CBCBCB;}
	.st40{fill:none;stroke:#000000;stroke-width:4;stroke-linecap:round;stroke-linejoin:round;stroke-miterlimit:10;}
	.st41{fill:none;stroke:#1D1D1B;stroke-width:4;stroke-linecap:round;stroke-linejoin:round;stroke-miterlimit:10;}
	.st42{fill:#1D1D1B;stroke:#1D1D1B;stroke-width:4;stroke-linecap:round;stroke-linejoin:round;stroke-miterlimit:10;}
	.st43{fill:#FFEB3B;stroke:#FFEB3B;stroke-width:4;stroke-miterlimit:10;}
	.st44{fill:none;stroke:#B22D2D;stroke-width:4;stroke-miterlimit:10;}
	.st45{fill:#1D1D1B;}
	.st46{fill:none;stroke:#FFFFFF;stroke-width:4;stroke-linecap:round;stroke-linejoin:round;stroke-miterlimit:10;}
	.st47{fill:#3B51FF;stroke:#1D1D1B;stroke-width:4;stroke-linecap:round;stroke-linejoin:round;stroke-miterlimit:10;}
	.st48{clip-path:url(#SVGID_00000116211954135908773190000005899896953210995621_);fill:#FFFFFF;}
	.st49{fill:#56B982;}
	.st50{fill:none;stroke:#000000;stroke-width:3.6;stroke-linecap:round;stroke-linejoin:round;stroke-miterlimit:10;}
	.st51{fill:#C3F8D5;}
	.st52{stroke:#000000;stroke-width:3.6;stroke-linecap:round;stroke-linejoin:round;stroke-miterlimit:10;}
	.st53{fill:#C9C9C9;stroke:#000000;stroke-width:3.6;stroke-linecap:round;stroke-linejoin:round;stroke-miterlimit:10;}
	.st54{fill:#FFEB3B;stroke:#1D1D1B;stroke-width:4;stroke-linecap:round;stroke-linejoin:round;stroke-miterlimit:10;}
	.st55{fill:#FF0000;stroke:#1D1D1B;stroke-width:4;stroke-linecap:round;stroke-linejoin:round;stroke-miterlimit:10;}
	.st56{fill:#303ED3;stroke:#000000;stroke-width:5;stroke-miterlimit:10;}
	.st57{fill:#041071;stroke:#000000;stroke-width:4;stroke-linecap:round;stroke-linejoin:round;stroke-miterlimit:10;}
	.st58{fill:#041071;stroke:#000000;stroke-width:4;stroke-miterlimit:10;}
	.st59{fill:#3B51FF;stroke:#000000;stroke-width:5;stroke-miterlimit:10;}
	.st60{fill:#303ED3;}
	.st61{fill:#041071;}
	.st62{fill:#C062EC;}
	.st63{fill:#FFEB3B;}
	.st64{fill:#B22D2D;}
	.st65{clip-path:url(#SVGID_00000044176960735100072730000010965136066212859574_);fill:#FFFFFF;}
	.st66{fill:#C9C9C9;}
	.st67{fill:#FF0000;}
	.st68{fill:#FFFFFF;stroke:#000000;stroke-width:2;stroke-miterlimit:10;}
	.st69{clip-path:url(#SVGID_00000033342513007581356550000014785109987818883493_);}
	.st70{fill:#B8FF00;}
	.st71{clip-path:url(#SVGID_00000121981294267466777650000000453478002513698486_);fill:#FFFFFF;}
	.st72{fill:#FBE04B;}
	.st73{fill:#EE772F;}
	.st74{fill:#DFFFC2;}
	.st75{fill:#A6FF00;}
	.st76{fill:#FF9500;}
	.st77{fill:#49B9FF;}
	.st78{fill:#FF64BD;}
	.st79{fill:#140D71;}
	.st80{fill:#969696;}
</style>
<g>
	<path class="st5" d="M13.48,37.91c-2.91-0.74-5.04-1.92-6.41-3.55c-1.37-1.62-2.37-3.63-2.99-6.02c-0.63-2.56-0.94-5.09-0.94-7.56
		c0-2.48,0.51-4.94,1.54-7.39c0.4-0.91,0.91-1.64,1.54-2.18c0.63-0.54,1.42-0.87,2.39-0.98c0.91-0.11,1.82,0.23,2.74,1.03
		c0.91,0.8,1.45,1.74,1.62,2.82c0.11,0.74,0.16,1.48,0.13,2.22c-0.03,0.74-0.04,1.48-0.04,2.22c0.06,1.48,0.07,2.96,0.04,4.44
		c-0.03,1.48,0.3,2.91,0.98,4.27c0.8,0.46,1.59,0.77,2.39,0.94c0.8,0.17,1.61,0.29,2.44,0.34c0.83,0.06,1.65,0.07,2.48,0.04
		c0.83-0.03,1.64-0.01,2.44,0.04c1.31,0.12,2.63,0.21,3.97,0.3c1.34,0.09,2.66,0.27,3.97,0.56c0.97,0.17,1.76,0.58,2.39,1.24
		c0.62,0.66,0.88,1.47,0.77,2.44c-0.11,0.63-0.41,1.28-0.9,1.97c-0.48,0.68-0.98,1.14-1.5,1.37c-1.48,0.63-3.02,1.13-4.61,1.5
		c-1.6,0.37-3.25,0.78-4.96,1.24v7.52c1.42,0.17,2.78,0.31,4.06,0.43c1.28,0.11,2.58,0.29,3.89,0.51c1.03,0.17,2.05,0.36,3.08,0.56
		c1.03,0.2,1.99,0.53,2.91,0.98c0.51,0.29,0.97,0.8,1.37,1.54c0.4,0.74,0.57,1.42,0.51,2.05c-0.11,0.63-0.43,1.23-0.94,1.79
		c-0.51,0.57-1.05,1.08-1.62,1.54c-0.29,0.29-0.67,0.44-1.15,0.47c-0.48,0.03-0.96,0.04-1.41,0.04c-4.5-0.06-8.99-0.09-13.46-0.09
		c-4.47,0-8.96-0.06-13.46-0.17c-1.54-0.11-2.94-0.51-4.19-1.2c-0.8-0.46-1.47-1.04-2.01-1.75c-0.54-0.71-0.67-1.58-0.38-2.61
		c0.63-1.82,1.97-2.88,4.02-3.16c1.31-0.11,2.63-0.24,3.97-0.38c1.34-0.14,2.8-0.27,4.4-0.38c0.11-1.42,0.24-2.82,0.38-4.19
		C13.07,41.33,13.25,39.74,13.48,37.91z M31.51,78.33c0,1.2,0.01,2.39,0.04,3.59c0.03,1.2-0.01,2.39-0.13,3.59
		c-0.11,1.03-0.61,1.92-1.5,2.69c-0.88,0.77-1.81,1.15-2.78,1.15c-1.03,0.06-1.97-0.29-2.82-1.03s-1.31-1.68-1.37-2.82
		c-0.11-1.82-0.16-3.62-0.13-5.38c0.03-1.77-0.02-3.56-0.13-5.38c-0.17-3.08-1.82-4.84-4.96-5.3c-1.48-0.17-2.98-0.27-4.49-0.3
		c-1.51-0.03-3.01-0.13-4.49-0.3c-1.48-0.17-2.69-0.67-3.63-1.5c-0.94-0.83-1.44-1.72-1.5-2.69c-0.06-0.51,0.06-1.04,0.34-1.58
		c0.28-0.54,0.68-1.03,1.2-1.45c0.51-0.43,1.12-0.78,1.84-1.07c0.71-0.28,1.47-0.43,2.26-0.43c1.82-0.06,3.63-0.09,5.43-0.09
		s3.57,0.14,5.34,0.43c3.82,0.63,6.67,2.04,8.55,4.23c1.88,2.19,2.91,5.26,3.08,9.19v4.44H31.51z"/>
	<path class="st5" d="M71.68,52.95c-2.56,0-5.08,0.01-7.56,0.04c-2.48,0.03-4.97,0.01-7.48-0.04c-1.08,0-2.18-0.03-3.29-0.09
		c-1.11-0.06-2.18-0.26-3.21-0.6c-0.57-0.23-1.13-0.68-1.67-1.37c-0.54-0.68-0.87-1.34-0.98-1.97c-0.11-0.63,0.03-1.34,0.43-2.14
		s0.86-1.34,1.37-1.62c1.14-0.57,2.31-1.03,3.5-1.37c1.2-0.34,2.42-0.54,3.68-0.6c5.98-0.11,11.92-0.16,17.82-0.13
		c5.9,0.03,11.84,0.07,17.82,0.13c1.14,0,2.33,0.29,3.59,0.85c0.91,0.46,1.64,1.04,2.18,1.75c0.54,0.71,0.75,1.61,0.64,2.69
		c-0.29,2.17-1.45,3.48-3.5,3.93c-1.2,0.23-2.42,0.41-3.67,0.55c-1.25,0.14-2.51,0.24-3.76,0.3c-2.68,0.11-5.33,0.14-7.95,0.08
		c-2.62-0.06-5.27-0.08-7.95-0.08V52.95z M70.23,33.55c-3.02,0.06-5.74-0.47-8.16-1.58c-2.42-1.11-4.43-2.63-6.03-4.57
		c-1.6-1.94-2.69-4.2-3.29-6.79s-0.53-5.34,0.21-8.25c0.46-1.76,1.14-3.32,2.05-4.66c0.91-1.34,2.16-2.49,3.76-3.46
		c1.77-1.08,3.55-1.98,5.34-2.69c1.79-0.71,3.62-1.18,5.47-1.41c1.85-0.23,3.72-0.17,5.6,0.17C77.06,0.65,79,1.33,81,2.36
		c4.16,2.22,6.67,5.58,7.52,10.08c0.68,3.76,0.37,7.46-0.94,11.11c-1.25,3.48-3.35,6.04-6.28,7.69
		C78.36,32.9,74.67,33.67,70.23,33.55z M91.08,75.26c-0.06,3.65-0.23,6.55-0.51,8.72c-0.29,2.17-0.91,3.86-1.88,5.08
		c-0.97,1.22-2.36,2.12-4.19,2.69c-1.82,0.57-4.3,1.05-7.44,1.45c-1.88,0.28-3.76,0.46-5.64,0.51c-1.88,0.06-3.76,0.03-5.64-0.09
		c-1.71-0.06-3.19-0.55-4.44-1.5c-1.25-0.94-2.02-2.26-2.31-3.97c-0.57-3.25-1.04-6.5-1.41-9.74c-0.37-3.25-0.7-6.5-0.98-9.74
		c-0.11-1.54,0.3-2.85,1.24-3.93c0.94-1.08,2.15-1.85,3.63-2.31c3.87-1.08,7.72-1.62,11.54-1.62c3.82,0,7.66,0.66,11.54,1.97
		c3.25,1.14,5.18,3.39,5.81,6.75c0.28,1.25,0.46,2.42,0.51,3.5C90.97,74.12,91.02,74.86,91.08,75.26z M72.02,23.64
		c0.28-0.11,0.68-0.2,1.2-0.26c0.51-0.06,1.08-0.23,1.71-0.51c1.37-0.51,2.39-1.48,3.08-2.91c0.68-1.42,0.88-3.05,0.6-4.87
		c-0.23-1.25-0.8-2.29-1.71-3.12c-0.91-0.83-2.08-1.35-3.5-1.58c-3.31-0.4-6.24,0.46-8.8,2.56c-0.51,0.46-0.93,1.07-1.24,1.84
		c-0.31,0.77-0.5,1.5-0.55,2.18c-0.06,2.05,0.71,3.67,2.31,4.87C66.69,23.04,69,23.64,72.02,23.64z M80.31,72.61
		c-1.65-0.4-2.95-0.71-3.89-0.94c-0.94-0.23-1.79-0.35-2.56-0.38c-0.77-0.03-1.6,0.03-2.48,0.17c-0.88,0.14-2.04,0.36-3.46,0.64
		c-0.63,3.25-0.81,5.73-0.55,7.44c0.26,1.71,0.87,2.89,1.84,3.55c0.97,0.65,2.25,0.87,3.85,0.64c1.59-0.23,3.45-0.68,5.55-1.37
		c0.28-0.12,0.54-0.3,0.77-0.56c0.23-0.26,0.54-0.56,0.94-0.9V72.61z"/>
	<path class="st5" d="M116.12,20.48v5.81c0.46,0.23,0.81,0.43,1.07,0.6c0.26,0.17,0.53,0.26,0.81,0.26
		c3.02,0.06,6.01,0.07,8.97,0.04c2.96-0.03,5.92,0.01,8.89,0.13c0.8,0,1.59,0.09,2.39,0.26c0.8,0.17,1.51,0.43,2.14,0.77
		c0.46,0.29,0.87,0.73,1.24,1.32s0.56,1.15,0.56,1.67c0,0.51-0.17,1.08-0.51,1.71c-0.34,0.63-0.74,1.03-1.2,1.2
		c-1.94,0.74-4.05,1.17-6.32,1.28c-2.17,0.11-4.36,0.14-6.58,0.08c-2.22-0.06-4.42-0.06-6.58,0c-0.74,0.06-1.47,0.17-2.18,0.34
		c-0.71,0.17-1.44,0.31-2.18,0.43c0.17,1.42,0.37,2.58,0.6,3.46c0.23,0.88,0.51,1.57,0.85,2.05c0.34,0.48,0.78,0.81,1.33,0.98
		c0.54,0.17,1.24,0.26,2.09,0.26c1.88,0,3.76-0.07,5.64-0.21c1.88-0.14,3.76-0.21,5.64-0.21c1.94,0,3.46,0.41,4.57,1.24
		c1.11,0.83,1.61,1.87,1.5,3.12c-0.11,1.14-0.6,2.04-1.45,2.69c-0.85,0.66-2.22,1.1-4.1,1.32c-2,0.23-4.02,0.46-6.07,0.68
		c-2.05,0.23-4.07,0.31-6.07,0.26c-7.98-0.17-12.34-4.13-13.08-11.88c-0.34-3.42-0.6-6.85-0.77-10.3c-0.17-3.45-0.2-6.88-0.09-10.3
		c0.06-1.54,0.24-2.82,0.56-3.85c0.31-1.03,0.77-1.84,1.37-2.44c0.6-0.6,1.41-1.04,2.44-1.32c1.03-0.28,2.31-0.46,3.85-0.51
		c3.59-0.11,7.18-0.1,10.77,0.04c3.59,0.14,7.18,0.3,10.77,0.47c0.97,0.06,1.81,0.46,2.52,1.2c0.71,0.74,0.98,1.62,0.81,2.65
		c-0.12,0.63-0.43,1.27-0.94,1.92c-0.51,0.66-1.08,1.15-1.71,1.5c-0.85,0.46-1.74,0.77-2.65,0.94c-0.91,0.17-1.84,0.26-2.78,0.26
		c-0.94,0-1.88-0.07-2.82-0.21c-0.94-0.14-1.87-0.27-2.78-0.38c-0.85-0.11-1.71-0.24-2.56-0.38c-0.85-0.14-1.72-0.23-2.61-0.26
		c-0.88-0.03-1.77,0.04-2.65,0.21C117.93,19.54,117.03,19.91,116.12,20.48z M139.28,63.55h11.28c0.28-0.97,0.48-1.92,0.6-2.86
		c0.11-0.94,0.4-1.78,0.86-2.52c0.34-0.57,0.87-1.11,1.58-1.62s1.35-0.74,1.92-0.68c0.63,0.06,1.31,0.36,2.05,0.9
		c0.74,0.54,1.17,1.1,1.28,1.67c0.74,3.08,1.25,6.17,1.54,9.27c0.29,3.11,0.11,6.25-0.51,9.44c-0.23,1.08-0.46,2.17-0.68,3.25
		c-0.23,1.08-0.54,2.11-0.94,3.08c-0.46,1.25-1.15,2.26-2.09,3.03s-2.12,1.21-3.55,1.32c-2.22,0.11-4.43,0.21-6.62,0.3
		c-2.19,0.08-4.4,0.1-6.62,0.04c-1.77,0-3.28-0.44-4.53-1.32c-1.25-0.88-2.11-2.15-2.56-3.8c-0.4-1.54-0.8-3.06-1.2-4.57
		c-0.4-1.51-0.73-3.03-0.98-4.57c-0.26-1.54-0.41-3.09-0.47-4.66c-0.06-1.57,0.06-3.15,0.34-4.74c0.11-0.8,0.31-1.55,0.6-2.26
		c0.28-0.71,0.63-1.41,1.03-2.09c0.57-1.03,1.39-1.55,2.48-1.58c1.08-0.03,2.08,0.44,2.99,1.41c0.46,0.46,0.83,0.98,1.11,1.58
		C138.45,62.14,138.82,62.81,139.28,63.55z M139.96,72.61c-0.17,2.05-0.24,3.42-0.21,4.1c0.03,0.68,0.27,1.14,0.73,1.37
		c1.08,0.63,2.19,1.03,3.33,1.2c0.46,0.11,0.93,0.13,1.41,0.04c0.48-0.09,0.95-0.16,1.41-0.21c0.97-0.11,1.89-0.3,2.78-0.56
		c0.88-0.26,1.44-0.95,1.67-2.09c0.11-0.68,0.1-1.41-0.04-2.18c-0.14-0.77-0.27-1.64-0.38-2.61c-2,0.17-3.86,0.34-5.6,0.51
		C143.31,72.35,141.62,72.5,139.96,72.61z M163.38,27.66c0,1.88,0,3.76,0,5.64c0,1.88-0.03,3.73-0.08,5.56c0,0.8-0.04,1.6-0.13,2.39
		c-0.09,0.8-0.33,1.51-0.73,2.14c-0.34,0.57-0.87,1.04-1.58,1.41c-0.71,0.37-1.41,0.61-2.09,0.73c-0.46,0.06-0.98-0.13-1.58-0.56
		c-0.6-0.43-1.04-0.87-1.32-1.32c-0.34-0.46-0.57-1.01-0.68-1.67c-0.12-0.65-0.17-1.29-0.17-1.92c0.11-3.59,0.24-7.16,0.38-10.73
		c0.14-3.56,0.33-7.14,0.56-10.73c0.05-0.74,0.17-1.51,0.34-2.31c0.17-0.8,0.46-1.51,0.85-2.14c0.4-0.57,0.93-1.11,1.58-1.62
		c0.65-0.51,1.27-0.74,1.84-0.68c0.63,0.12,1.24,0.47,1.84,1.07c0.6,0.6,1.01,1.21,1.24,1.84c0.28,0.8,0.44,1.68,0.47,2.65
		c0.03,0.97,0.04,1.91,0.04,2.82c0,1.25-0.04,2.49-0.13,3.72c-0.09,1.23-0.16,2.46-0.21,3.72H163.38z"/>
	<path class="st5" d="M185.77,84.57c0,0.97-0.19,1.87-0.56,2.69c-0.37,0.83-0.87,1.55-1.5,2.18c-0.63,0.63-1.35,1.12-2.18,1.5
		c-0.83,0.37-1.67,0.53-2.52,0.47c-1.77-0.12-3.25-0.84-4.44-2.18c-1.2-1.34-1.79-2.92-1.79-4.74c0-0.97,0.17-1.88,0.51-2.73
		s0.81-1.58,1.41-2.18c0.6-0.6,1.31-1.07,2.14-1.41c0.82-0.34,1.72-0.48,2.69-0.43c0.86,0,1.67,0.19,2.44,0.56
		c0.77,0.37,1.44,0.87,2.01,1.5c0.57,0.63,1.01,1.35,1.33,2.18C185.61,82.79,185.77,83.66,185.77,84.57z M194.15,23.3
		c-0.23,1.14-0.48,2.52-0.77,4.15c-0.29,1.62-0.57,3.26-0.86,4.91c-0.63,3.93-1.24,7.81-1.84,11.62c-0.6,3.82-1.21,7.69-1.84,11.62
		c-0.12,0.8-0.27,1.64-0.47,2.52c-0.2,0.88-0.56,1.64-1.07,2.26c-0.46,0.63-1.1,1.17-1.92,1.62c-0.83,0.46-1.58,0.63-2.26,0.51
		c-0.68-0.11-1.38-0.48-2.09-1.11c-0.71-0.63-1.21-1.28-1.5-1.97c-0.34-0.8-0.51-1.68-0.51-2.65c0-0.97,0.06-1.91,0.17-2.82
		c0.68-4.79,1.4-9.51,2.14-14.19c0.74-4.67,1.51-9.37,2.31-14.1c0.11-0.97,0.24-1.89,0.38-2.78c0.14-0.88,0.3-1.81,0.47-2.78
		c0.29-1.82,0.9-3.23,1.84-4.23c0.94-1,2.06-1.44,3.38-1.32c1.37,0.11,2.44,0.71,3.21,1.79c0.77,1.08,1.18,2.56,1.24,4.44
		c0.06,0.23,0.07,0.5,0.04,0.81C194.16,21.94,194.15,22.5,194.15,23.3z"/>
</g>
</svg>
