<?xml version="1.0" encoding="UTF-8"?><svg id="Layer_1" xmlns="http://www.w3.org/2000/svg" xmlns:xlink="http://www.w3.org/1999/xlink" viewBox="0 0 1158.15 725.57"><defs><style>.cls-1{fill:none;}.cls-2{clip-path:url(#clippath);}.cls-3{fill:#f4f4f4;}.cls-4{fill:#fff;}.cls-5{fill:#ffeb3b;}.cls-6{fill:red;}.cls-7{fill:#b22d2d;}.cls-8{fill:#ccc;}.cls-9{fill:#c9c9c9;}.cls-10{fill:#cbcbcb;}.cls-11{fill:#c3f8d5;}.cls-12{fill:#1d1d1b;}.cls-13{fill:#3b51ff;}.cls-14{fill:#56b982;}</style><clipPath id="clippath"><rect class="cls-1" x="666.19" y="274.52" width="20.51" height="7.88" transform="translate(-32.73 99.06) rotate(-8.18)"/></clipPath></defs><path class="cls-3" d="m1114.12,339.72c-1.47-5.03-3.18-10.69-7.1-14.4-8.19-7.75-21.95-9.08-32.57-10.49-8.42-1.12-13.84,13.73-7.51,18.07-.02.04-.04.07-.06.11-2.02,4.32-1.65,9.57,2.59,12.24,11.43,7.2,22.53,14.87,33.29,23.03,6.46,4.9,14-2.92,13.91-9.72-.09-6.35-.77-12.74-2.56-18.85Z"/><path class="cls-3" d="m1081.65,275.48c-2.46-12.27-8.06-22.56-17.34-28.72-9.88-6.56-21.6-6.74-32.49-5-11.06,1.77-22.95,4.82-29.98,16.29-7.95,12.97-3.4,27.04-.42,41.05,3,14.12,5.02,29.92,15.38,39.12,8.54,7.59,19.07,10.25,28.1,16.73,1.23.88,2.46,1.07,3.62.78,7.85,4.09,16.45,2.14,23.34-5.22,8.85-9.45,11.85-23.44,12.09-37.23.22-12.35.12-25.75-2.3-37.8Z"/><path class="cls-8" d="m1112.04,604.12c38.72-5.75,47.15-17.29,44.01-24.18-3.29-7.21-15.55-10.38-26.44-11.89-23.49-3.25-47.65-3.37-71.63-3.48-38-.17-76-.34-114.01-.51-26.07-.12-192.29-5.15-184,31.16,3.27,14.32,187.93,4.51,215.03,5.89,35.14,1.79,85.1,10.71,137.03,3Z"/><path class="cls-8" d="m1067.21,608.7c-22.67,0-44.1-1.99-62.77-3.72-10.58-.98-20.58-1.91-29.51-2.36-7.33-.37-26.32.08-50.36.65-32.31.77-72.51,1.73-105.4,1.21-51.84-.83-59.75-4.97-60.65-8.91-.9-3.93,0-7.59,2.64-10.87,19.59-24.24,136.55-22.71,174.99-22.21,3.28.04,5.93.08,7.84.09l114.01.51c23.67.11,48.15.21,71.83,3.49,15.43,2.14,24.71,6.42,27.6,12.75,1.13,2.49.96,5.22-.5,7.91-4.47,8.24-20.33,14.76-44.65,18.37h0c-15.25,2.27-30.41,3.09-45.05,3.1Zm-99.98-9.22c3.3,0,5.96.04,7.86.14,9,.46,19.02,1.39,29.64,2.37,30.56,2.83,68.6,6.36,107.1.64l.22,1.48-.22-1.48c32.71-4.86,40.59-13.39,42.46-16.84,1.01-1.85,1.14-3.61.4-5.23-2.4-5.25-11.14-9.06-25.28-11.02-23.48-3.25-47.85-3.36-71.43-3.46l-114.01-.51c-1.91,0-4.57-.04-7.86-.09-18.56-.24-57.19-.75-93.54,1.76-30.66,2.12-69.26,7.19-79.07,19.33-2.07,2.56-2.74,5.28-2.05,8.31.3,1.33,5.37,5.74,57.78,6.58,32.83.52,73-.44,105.28-1.21,17.95-.43,33.09-.79,42.73-.79Z"/><path class="cls-8" d="m341.89,607.67c10.27-.01,20.98-.1,30.14-3.36,9.16-3.26,16.15-10.74,13.11-17.63-3.19-7.21-15.05-10.38-25.59-11.89-22.74-3.25-46.12-3.37-69.33-3.48-36.78-.17-73.56-.34-110.34-.51-25.23-.12-186.11-5.15-178.09,31.16,3.16,14.32,181.86,5.92,208.12,5.89,43.99-.06,87.99-.12,131.98-.19Z"/><path class="cls-8" d="m85.67,611.83c-4.91,0-9.75-.02-14.49-.07-60.73-.63-69.9-5.14-70.86-9.47-.89-4.02.04-7.76,2.76-11.1,19.54-24,132.2-22.48,169.23-21.97,3.17.04,5.73.08,7.57.09l110.34.51c22.91.11,46.6.21,69.53,3.49,14.95,2.14,23.95,6.44,26.75,12.76,1.16,2.61,1.13,5.48-.08,8.28-2.01,4.68-7.34,9.04-13.9,11.37-9.6,3.42-20.78,3.43-30.64,3.45l-131.98.19c-4.78,0-14.88.3-27.66.67-25.58.74-62.59,1.81-96.58,1.81Zm60.31-39.82c-18.5,0-41.63.37-63.9,1.95-43.02,3.04-68.82,9.48-76.68,19.13-2.14,2.63-2.85,5.43-2.15,8.55.33,1.51,6.22,6.48,67.96,7.12,37.5.39,81.7-.89,110.95-1.74,12.81-.37,22.92-.66,27.75-.67l131.98-.19c9.62-.01,20.52-.03,29.64-3.27,5.8-2.06,10.46-5.79,12.15-9.73.88-2.04.91-4.02.09-5.88-2.32-5.25-10.76-9.05-24.43-11.01-22.72-3.25-46.31-3.36-69.12-3.46l-110.34-.51c-1.85,0-4.42-.04-7.6-.09-6.53-.09-15.64-.21-26.28-.21Z"/><path class="cls-8" d="m183.41,656.11c11.78.04,23.56.08,35.34.13,7.51.03,15.36-.01,21.99-2.83,6.63-2.82,11.43-9.38,8.55-14.93-6.41-12.36-37.41-11.83-50.94-13.68s-28.95-7.1-42.88-5.99c-11.73.94-23.21,7.7-23.96,18.16-1.39,19.34,35.4,19.09,51.91,19.14Z"/><path class="cls-8" d="m220.82,657.74c-.7,0-1.4,0-2.09,0l-36.28-.13c-13.78-.04-39.42-.12-48.83-10.27-2.69-2.9-3.91-6.43-3.62-10.48.83-11.57,13.38-18.59,25.34-19.55,9.53-.77,19.6,1.36,29.34,3.4,4.84,1.02,9.42,1.98,13.86,2.59,2.71.37,6.24.66,9.98.96,15.44,1.24,36.6,2.94,42.09,13.52,1.21,2.33,1.35,4.95.4,7.58-1.39,3.86-5.11,7.47-9.7,9.42-6.41,2.72-13.77,2.95-20.5,2.95Zm-61.37-37.59c-1.3,0-2.59.05-3.87.15-10.69.86-21.88,6.89-22.59,16.77-.23,3.23.69,5.92,2.83,8.22,8.53,9.19,33.32,9.27,46.64,9.31l36.28.13c6.98.03,14.9.05,21.4-2.71,3.85-1.63,6.93-4.58,8.05-7.68.66-1.85.58-3.59-.24-5.18-4.73-9.11-24.92-10.73-39.67-11.91-3.78-.3-7.36-.59-10.15-.97-4.55-.62-9.17-1.6-14.07-2.63-8.19-1.72-16.63-3.5-24.62-3.5Z"/><path class="cls-3" d="m1040.88,348.29c4.31-2.21,7-7.86,5.96-12.52-1.52-6.79-4.33-13.09-8.1-18.86-.4-1.03-1.04-1.94-1.85-2.66-1.83-2.52-3.84-4.94-6.01-7.23-7.22-7.62-16.66-15.26-26.54-19.24-8.56-3.45-17.44-3.24-26.09-1.3-.12-.97-.37-1.92-.78-2.83-9.32-21.12-30.55-38.1-54.54-39.23-20.32-.95-40.81,9.54-51.77,26.26-20.61-13.43-45.54-21.91-70.1-14.33-12.85,3.97-24.74,11.63-32.16,22.84-8.29,12.53-11.23,26.98-13.4,41.52-2.38,16-4.05,32.09-4.82,48.24-.61,12.78-.82,25.99,2.49,38.47,3.35,12.64,10.21,23.17,21.49,30.32,10.68,6.76,23.84,9.34,33.63,17.48,21.23,17.65,23.76,47.02,26.54,72.28.87,7.93,1.8,15.87,3.32,23.71,1.34,6.9,3.13,13.89,7.6,19.55,9.09,11.51,26.65,9.56,39.78,9.85,32.95.73,65.9,1.45,98.84,2.18,8.43.19,16.86.37,25.29.56,7.22.16,15,.87,21.32-3.22,7.35-4.76,9.55-12.65,10.42-20.77.83-7.79,1.2-15.64,1.33-23.47.53-31.95-3.53-63.73-5.6-95.56-1.97-30.37-2.05-60.86-.23-91.25,1.28.13,2.65-.11,3.98-.8Z"/><path class="cls-3" d="m390.57,430.46c-5.18-22.29-16.65-42.42-29.24-61.37-2.02-3.04-4.07-6.05-6.13-9.06,4.8-3.29,7.94-11.73,3.53-16.11-16.15-16.05-28.91-36.3-50.08-46.56-10.06-4.87-21.61-7.27-32.72-5.22-10.99,2.03-20.47,8.78-27.2,17.43-3.84,4.94-6.85,10.51-9.12,16.38-8.79-8.19-18.05-15.88-27.81-22.91-10.22-7.35-21.14-14.05-33.89-15.89-25.44-3.68-48.36,15.43-58.02,37.29-.49,1.11-.94,2.23-1.38,3.35-5.03,1.18-7.56,6.44-8.05,11.06-5.38,50.85-7.83,102-7.27,153.12.28,25.69,1.31,51.36,3.1,76.99.43,6.22.24,13.06,1.59,19.15,1.37,6.18,6.02,8.92,12.08,8.94,13.26.06,26.52,0,39.78-.01,52.27-.02,104.55-.04,156.82-.05,13,0,26.01,0,39.01-.01,5.76,0,12.33.8,17.94-.73,6.84-1.87,11.61-7.21,13.41-13.94,1.61-6.04,1.28-12.85,1.65-19.05.39-6.51.77-13.03,1.16-19.54.76-12.77,1.51-25.55,2.27-38.32,1.47-24.82,4.29-50.41-1.41-74.92Z"/><path class="cls-3" d="m994.17,482.87c1.52-1.69,2.79-3.47,3.94-5.43,10.36-17.69,3.9-38.56-7.06-54.16-3.51-4.99-7.36-9.72-11.29-14.38-1.46-1.73-2.93-3.57-5.05-4.52-2.8-1.26-6.33-.76-9.3-.76-13.43,0-26.86,0-40.28.01.22-.82.26-1.68.07-2.52-.5-2.17-2.76-3.48-4.81-2.24-16.77,10.14-28.92,26.51-34.33,45.3-2.58,8.96-3.99,19.34-2.27,28.6,1.93,10.42,13.07,13.02,22.49,13.63-1.07,16.53-2.14,33.06-3.21,49.59-1.01,15.66-.15,33.37-7.96,47.51-1.05,1.91-.8,6.37,2.27,6.36,24.68-.09,49.36-.18,74.04-.28,4.89-.02,11.21,1.01,15.79-1.1,4.13-1.9,6.26-6.1,6.93-10.41.84-5.33.46-10.96.49-16.34.04-6.54,0-13.08-.08-19.61-.17-12.07-.56-24.13-1.17-36.19-.3-6.03-.66-12.05-1.08-18.07,0,0,.13-3.09-.27-2.96.55-.69,1.71-1.56,2.15-2.04Z"/><path class="cls-3" d="m896.42,367.24c-1.31,18.98,7.76,36.58,24.65,44.71,6.06,2.92,12.64,4.55,19.23,5.82,6.51,1.25,40.38,2.01,51.83-33.53,12.14-37.69-23.64-59.56-41.27-61.45-39.14-4.2-53.48,30.68-54.43,44.44Z"/><path class="cls-8" d="m945.94,419.71c-2.56,0-4.61-.21-5.93-.46-5.99-1.15-13-2.76-19.59-5.94-17.11-8.25-26.88-25.94-25.49-46.17.49-7.18,5.08-23.82,18.89-35.4,10.12-8.49,22.64-12,37.19-10.43,11.51,1.24,28.75,10.25,38.02,24.53,7.45,11.47,9.02,24.92,4.52,38.87-6.24,19.36-19.03,27.82-28.66,31.5-7.12,2.72-13.98,3.5-18.95,3.5Zm-1.49-95.76c-11.07,0-20.7,3.38-28.71,10.09-12.1,10.14-17.29,25.47-17.83,33.31h0c-1.31,18.98,7.81,35.56,23.8,43.26,6.28,3.03,13.06,4.58,18.86,5.7.37.07,37.87,5.5,50.12-32.51,4.27-13.25,2.86-25.47-4.18-36.32-8.77-13.5-25-22.02-35.83-23.18-2.13-.23-4.21-.34-6.24-.34Z"/><path class="cls-8" d="m915.58,488.85c-10.55,0-27.57-1.16-33.65-14.36-5.33-11.55-.02-32.92,5.45-44.4,3.58-7.52,14.61-22.57,20.42-25.54.74-.38,1.64-.09,2.02.65.38.74.09,1.64-.65,2.02-4.73,2.42-15.41,16.47-19.07,24.16-5.07,10.64-10.3,31.3-5.43,41.85,5.98,12.98,24.42,12.71,34.31,12.58,1.42-.02,2.64-.04,3.63,0,5.16.12,9.08-1.19,12.04-4.07,6.56-6.37,6.57-18.96,6.58-26.49,0-1.18,0-2.25.03-3.16.08-3.09-.33-7.12-1.45-9.16-1.02-1.85-3.37-3.43-5.39-2.74-2.16.73-2.67,1.9-3.51,3.84-.57,1.31-1.21,2.79-2.49,4.34-3.84,4.67-10.64,6.87-17.75,5.75-.82-.13-1.38-.9-1.25-1.71.13-.82.9-1.38,1.71-1.25,6.06.95,11.79-.84,14.96-4.69,1.01-1.22,1.54-2.45,2.05-3.63.92-2.13,1.88-4.34,5.3-5.5,3.68-1.23,7.37,1.21,8.98,4.14,1.92,3.49,1.85,9.52,1.82,10.69-.02.88-.03,1.92-.03,3.08-.01,8-.03,21.38-7.49,28.63-3.52,3.42-8.29,5.08-14.21,4.92-.93-.02-2.12,0-3.51.01-1.03.01-2.19.03-3.42.03Z"/><path class="cls-8" d="m969.94,488.85c-1.24,0-2.39-.02-3.42-.03-1.39-.02-2.58-.04-3.51-.01-5.92.16-10.69-1.49-14.21-4.92-7.47-7.25-7.48-20.64-7.49-28.63,0-1.15,0-2.19-.03-3.08-.03-1.17-.1-7.2,1.82-10.69,1.61-2.93,5.3-5.38,8.98-4.14,3.42,1.15,4.38,3.36,5.3,5.5.51,1.18,1.04,2.4,2.05,3.63,3.17,3.85,8.9,5.65,14.96,4.69.81-.13,1.59.43,1.71,1.25.13.82-.43,1.59-1.25,1.71-7.1,1.12-13.91-1.08-17.75-5.75-1.27-1.55-1.92-3.03-2.48-4.34-.84-1.94-1.35-3.12-3.51-3.84-2.03-.69-4.38.89-5.39,2.74-1.12,2.04-1.54,6.07-1.45,9.16.03.91.03,1.97.03,3.16,0,7.52.03,20.11,6.58,26.49,2.96,2.88,6.91,4.2,12.04,4.07.99-.03,2.21-.01,3.63,0,9.89.13,28.33.39,34.31-12.58,4.87-10.55-.36-31.21-5.43-41.85-3.81-8-14.06-20.69-18.6-23.01-.74-.38-1.03-1.28-.65-2.02.38-.74,1.28-1.03,2.02-.65,5.56,2.85,16.12,16.37,19.94,24.39,5.47,11.48,10.77,32.84,5.45,44.4-6.08,13.2-23.1,14.36-33.65,14.36Z"/><path class="cls-8" d="m908.86,591.68c-2.61,0-5.18-.03-7.66-.09-2.35-.06-6.72-.17-8.38-4.33-.48-1.2-.62-2.57-.41-3.97.39-2.61,1.62-4.74,2.81-6.79.67-1.15,1.29-2.24,1.76-3.39,2.17-5.27,6.08-56.53,5.46-86.44l3-.06c.6,28.96-3.17,81.51-5.69,87.65-.55,1.33-1.26,2.56-1.94,3.75-1.09,1.9-2.13,3.69-2.44,5.74-.13.88-.05,1.71.22,2.41.79,1.97,2.53,2.37,5.67,2.45,11.78.3,25.38-.13,37.33-1.17,1.21-.11,2.37-.46,3.43-1.05l1.46,2.62c-1.43.8-2.99,1.27-4.63,1.42-9.53.83-20.11,1.27-30,1.27Z"/><path class="cls-8" d="m956.89,591.68c-2.61,0-5.18-.03-7.66-.09-2.35-.06-6.71-.17-8.38-4.33-.48-1.19-.62-2.57-.41-3.97.37-2.44,1.53-4.42,2.64-6.32.75-1.28,1.46-2.49,1.89-3.77.69-2.04.71-4.33.73-6.54.14-15.72.16-31.7.05-47.5,0-.83.66-1.5,1.49-1.51h.01c.82,0,1.49.67,1.5,1.49.11,15.82.09,31.81-.05,47.55-.02,2.33-.04,4.98-.89,7.48-.54,1.58-1.35,2.97-2.15,4.33-1.02,1.74-1.98,3.38-2.26,5.25-.13.88-.05,1.71.23,2.41.79,1.97,2.53,2.37,5.67,2.45,11.78.3,25.38-.13,37.33-1.17,4.33-.38,7.71-3.94,7.86-8.28.64-18.2-1.29-76.14-2.67-94.9-.06-.83.56-1.54,1.39-1.61.81-.06,1.54.56,1.61,1.39,1.38,18.82,3.31,76.95,2.67,95.23-.21,5.86-4.76,10.66-10.6,11.17-9.53.83-20.12,1.27-30,1.27Z"/><path class="cls-3" d="m23.06,484.91c-.4-.13-.27,2.97-.27,2.96-.41,6.02-.77,12.05-1.08,18.07-.61,12.05-1,24.12-1.17,36.19-.09,6.54-.12,13.08-.08,19.61.03,5.38-.35,11.01.49,16.34.68,4.31,2.8,8.51,6.93,10.41,4.58,2.1,10.9,1.08,15.79,1.1,24.68.09,49.36.18,74.04.28,3.07.01,3.33-4.46,2.27-6.36-7.81-14.14-6.94-31.85-7.96-47.51-1.07-16.53-2.14-33.06-3.21-49.59,9.42-.61,20.56-3.21,22.49-13.63,1.71-9.26.31-19.64-2.27-28.6-5.41-18.8-17.56-35.16-34.33-45.3-2.05-1.24-4.31.07-4.81,2.24-.19.84-.15,1.7.07,2.52-13.43,0-26.86,0-40.28-.01-2.97,0-6.5-.5-9.3.76-2.12.95-3.59,2.79-5.05,4.52-3.93,4.66-7.78,9.39-11.29,14.38-10.96,15.6-17.42,36.47-7.06,54.16,1.15,1.96,2.42,3.74,3.94,5.43.43.48,1.59,1.35,2.15,2.04Z"/><path class="cls-3" d="m118.67,367.24c1.31,18.98-7.76,36.58-24.65,44.71-6.06,2.92-12.64,4.55-19.23,5.82-6.51,1.25-40.38,2.01-51.83-33.53-12.14-37.69,23.64-59.56,41.27-61.45,39.14-4.2,53.48,30.68,54.43,44.44Z"/><path class="cls-8" d="m69.15,419.71c-4.97,0-11.83-.78-18.95-3.5-9.63-3.68-22.42-12.14-28.66-31.5-4.5-13.96-2.93-27.4,4.52-38.87,9.28-14.28,26.51-23.29,38.02-24.53,14.56-1.57,27.07,1.95,37.19,10.43,13.81,11.58,18.4,28.22,18.89,35.4h0c1.39,20.23-8.38,37.92-25.49,46.17-6.59,3.18-13.6,4.79-19.59,5.94-1.32.26-3.38.46-5.93.46Zm1.49-95.76c-2.03,0-4.11.11-6.24.34-10.82,1.16-27.06,9.68-35.83,23.18-7.04,10.84-8.45,23.06-4.18,36.32,12.24,38.01,49.75,32.58,50.12,32.51,5.8-1.12,12.58-2.67,18.86-5.7,15.99-7.7,25.11-24.28,23.8-43.26h0c-.54-7.83-5.73-23.17-17.83-33.31-8-6.71-17.64-10.09-28.71-10.09Z"/><path class="cls-8" d="m99.5,488.85c-1.24,0-2.39-.02-3.42-.03-1.38-.02-2.58-.04-3.51-.01-5.93.16-10.69-1.49-14.21-4.92-7.46-7.25-7.48-20.64-7.49-28.63,0-1.15,0-2.19-.03-3.08-.03-1.17-.1-7.19,1.82-10.69,1.61-2.93,5.3-5.38,8.98-4.14,3.42,1.15,4.38,3.36,5.3,5.5.51,1.18,1.04,2.4,2.05,3.63,3.17,3.85,8.9,5.64,14.96,4.69.81-.13,1.59.43,1.71,1.25.13.82-.43,1.59-1.25,1.71-7.11,1.12-13.91-1.08-17.75-5.75-1.28-1.55-1.92-3.03-2.49-4.34-.84-1.94-1.35-3.12-3.51-3.84-2.02-.69-4.38.89-5.4,2.74-1.12,2.04-1.54,6.07-1.45,9.16.03.91.03,1.97.03,3.16,0,7.52.03,20.11,6.58,26.49,2.96,2.88,6.92,4.2,12.04,4.07.99-.03,2.21-.01,3.63,0,9.91.13,28.33.39,34.31-12.58,4.87-10.55-.36-31.21-5.43-41.85-3.66-7.69-14.34-21.74-19.07-24.16-.74-.38-1.03-1.28-.65-2.02.38-.74,1.28-1.03,2.02-.65,5.81,2.97,16.83,18.02,20.42,25.54,5.47,11.48,10.77,32.84,5.45,44.4-6.08,13.2-23.1,14.36-33.65,14.36Z"/><path class="cls-8" d="m45.14,488.85c-10.55,0-27.57-1.16-33.65-14.36-5.33-11.55-.02-32.92,5.45-44.4,3.82-8.02,14.37-21.54,19.94-24.39.74-.38,1.64-.09,2.02.65.38.74.09,1.64-.65,2.02-4.53,2.32-14.79,15.01-18.6,23.01-5.07,10.64-10.3,31.3-5.43,41.85,5.98,12.98,24.41,12.72,34.31,12.58,1.42-.02,2.64-.04,3.63,0,5.15.12,9.08-1.19,12.04-4.07,6.56-6.37,6.58-18.96,6.58-26.49,0-1.18,0-2.25.03-3.16.08-3.09-.33-7.12-1.45-9.16-1.02-1.85-3.36-3.42-5.4-2.74-2.16.73-2.67,1.9-3.51,3.84-.57,1.31-1.21,2.79-2.48,4.34-3.84,4.67-10.64,6.87-17.75,5.75-.82-.13-1.38-.9-1.25-1.71.13-.82.9-1.38,1.71-1.25,6.06.95,11.8-.84,14.97-4.69,1.01-1.22,1.54-2.45,2.05-3.63.92-2.13,1.88-4.34,5.3-5.49,3.68-1.24,7.37,1.21,8.98,4.14,1.92,3.5,1.85,9.52,1.82,10.69-.02.88-.03,1.92-.03,3.08-.01,8-.03,21.38-7.49,28.63-3.52,3.42-8.3,5.08-14.21,4.92-.93-.02-2.12,0-3.51.01-1.03.01-2.19.03-3.42.03Z"/><path class="cls-8" d="m106.22,591.68c-9.89,0-20.47-.44-30-1.27-1.64-.14-3.19-.62-4.63-1.42l1.46-2.62c1.06.59,2.22.94,3.43,1.05,11.95,1.04,25.55,1.46,37.33,1.17,3.14-.08,4.88-.48,5.67-2.45.28-.7.36-1.53.23-2.41-.31-2.05-1.34-3.85-2.44-5.74-.68-1.19-1.39-2.41-1.94-3.75-2.52-6.13-6.28-58.68-5.69-87.65l3,.06c-.62,29.91,3.29,81.17,5.46,86.44.47,1.15,1.1,2.24,1.76,3.39,1.19,2.06,2.41,4.18,2.81,6.79.21,1.4.07,2.77-.41,3.97-1.67,4.17-6.04,4.28-8.38,4.33-2.48.06-5.05.09-7.66.09Z"/><path class="cls-8" d="m58.19,591.68c-9.89,0-20.47-.44-30-1.27-5.84-.51-10.39-5.31-10.6-11.17-.64-18.29,1.29-76.42,2.67-95.23.06-.83.78-1.45,1.61-1.39.83.06,1.45.78,1.39,1.61-1.38,18.76-3.31,76.69-2.67,94.9.15,4.35,3.53,7.91,7.86,8.28,11.95,1.04,25.55,1.46,37.33,1.17,3.14-.08,4.88-.48,5.67-2.45.28-.7.36-1.53.23-2.41-.28-1.87-1.25-3.51-2.26-5.25-.79-1.35-1.61-2.75-2.15-4.33-.85-2.5-.87-5.15-.89-7.48-.14-15.8-.16-31.79-.05-47.55,0-.82.68-1.49,1.5-1.49h.01c.83,0,1.5.68,1.49,1.51-.11,15.74-.09,31.72.05,47.5.02,2.21.04,4.5.73,6.54.44,1.29,1.15,2.5,1.9,3.77,1.12,1.91,2.27,3.88,2.64,6.32.21,1.4.07,2.78-.41,3.97-1.67,4.17-6.04,4.28-8.38,4.33-2.48.06-5.05.09-7.66.09Z"/><path class="cls-3" d="m865.8,567.84c-3.69-12.3-9.76-23.71-11.38-36.59-1.5-11.9-1.29-24.18-1.23-36.3,8.5-5.74,8.88-17.8,9.07-27.2.27-13.37-2.89-25.53-12.96-34.87-4.49-4.16-9.71-6.88-15.8-7.72-6.24-.86-12.58.18-18.79.7-12.26,1.02-24.88.14-35.81-5.86,1.5-1.7,2.51-4.28,1.36-6.42-1.1-2.05-3.83-2.14-5.41-.55-13.79,13.9-23.86,31.06-28.92,50.01-2.04,7.63-4.4,18.15,1.94,24.49,2.96,2.97,7.18,3.95,11.18,4.58,1.73.27,3.47.53,5.21.78-.34,2.32-.25,4.8-.35,6.92-.52,10.1-1.04,20.21-1.56,30.31-.51,9.85-1.01,19.7-1.52,29.56-.49,9.51-.08,19.8-3.93,28.7-.8,1.84-.98,6.49,2.27,6.36,9.38-.36,18.76-.73,28.14-1.09,7.69-.3,17.69,1.02,20.38-8.24,3.67-12.63,1.23-26.16,3.07-39.05,1.63,3.14,3.46,6.19,5.29,9.26.91,5.6,2.43,11.07,4.59,16.33.59,1.45,1.41,2.87,1.86,4.37.46,1.52.66.84-.43,2.09-1.94,2.23-3.62,4.15-3.83,7.28-.34,5.23,3.99,9.12,9.01,9.2,5.85.09,12.23-2.85,17.64-4.82,5.7-2.08,12.13-4.05,17.21-7.4,5.52-3.64,5.44-9.09,3.71-14.84Z"/><path class="cls-3" d="m760.67,385.26c-1.36,19.37,6.22,48.49,44.71,52.72,38.64,4.24,53.03-24.21,54.1-41.17,2.85-45.44-24.74-54.33-43.12-55.78-44.46-3.5-54.71,30.18-55.69,44.23Z"/><path class="cls-8" d="m813.03,439.91c-2.53,0-5.13-.15-7.81-.44-17.66-1.94-30.58-9.12-38.4-21.36-7.81-12.21-8.14-25.89-7.65-32.95.72-10.31,5.51-24.78,16.78-34.49,10.1-8.7,23.74-12.45,40.53-11.13,21.84,1.72,47.29,13.06,44.5,57.37-.59,9.44-5.22,22.88-16.43,32.3-8.46,7.12-19.04,10.71-31.52,10.71Zm-2.95-97.63c-13.15,0-23.95,3.57-32.17,10.66-10.57,9.11-15.06,22.72-15.74,32.43h0c-.47,6.69-.16,19.64,7.18,31.13,7.31,11.43,19.49,18.16,36.2,19.99,15.08,1.66,27.55-1.57,37.08-9.58,10.48-8.82,14.81-21.38,15.36-30.2,1.45-23.11-4.61-51.27-41.74-54.19-2.11-.17-4.16-.25-6.17-.25Z"/><path class="cls-8" d="m772.47,495.73c-6.99,0-13.17-.83-14.57-1.03-10.01-1.44-15.08-7.93-15.06-19.29.01-11.71,2.68-23.48,7.72-34.05,3.51-7.37,9.08-15.52,15.28-22.35.56-.61,1.5-.66,2.12-.1s.66,1.5.1,2.12c-6.01,6.63-11.41,14.51-14.8,21.63-4.84,10.17-7.41,21.5-7.43,32.76-.02,14.52,9.4,15.87,12.49,16.32,11.74,1.69,30.47,1.85,33.96-4.65,3.95-7.37,4.5-16.19,4.75-25.33.08-2.92-.08-5.27-1.14-7.19-.94-1.71-3.12-3.18-4.99-2.54-1.88.63-2.65,2.77-3.55,5.23-.68,1.86-1.38,3.78-2.66,5.34-3.9,4.74-10.78,3.85-16.33,2.55-.81-.19-1.31-1-1.12-1.8s.99-1.31,1.8-1.12c4.71,1.1,10.48,1.92,13.33-1.53.96-1.17,1.54-2.77,2.16-4.46,1.01-2.79,2.17-5.96,5.41-7.05,3.52-1.19,7.04,1.15,8.57,3.94,1.47,2.67,1.59,5.77,1.51,8.72-.26,9.52-.85,18.72-5.11,26.67-3.14,5.86-13.46,7.24-22.46,7.24Z"/><path class="cls-8" d="m833.2,498.75c-.69,0-1.31-.01-1.85-.03-12.94-.42-30.09-2.69-29.67-17.52.18-6.52.91-18.26,3.7-23.62,2.05-3.93,5.64-5.92,9.37-5.19,4.84.95,6.09,4.39,7.19,7.43,1.4,3.88,2.62,7.23,10.86,7.23.83,0,1.5.67,1.5,1.5s-.67,1.5-1.5,1.5c-10.35,0-12.2-5.11-13.68-9.21-1.03-2.84-1.77-4.89-4.95-5.51-2.82-.55-5.02,1.52-6.13,3.64-1.81,3.47-3.07,11.82-3.37,22.32-.1,3.71-.38,13.56,26.77,14.44,4,.13,17.6.01,24.8-6.96,3.11-3.01,4.69-7.01,4.68-11.88,0-18.38-1.89-36.62-15.52-45.53-.69-.45-.89-1.38-.44-2.08.45-.69,1.38-.89,2.08-.44,14.82,9.68,16.87,28.81,16.88,48.04,0,5.71-1.88,10.43-5.6,14.03-7.05,6.83-18.84,7.83-25.13,7.83Z"/><path class="cls-8" d="m772.44,596.86c-3.3,0-6.62-.04-9.93-.12-2.35-.06-6.71-.17-8.38-4.33-.48-1.19-.62-2.57-.41-3.97.37-2.44,1.53-4.42,2.64-6.32.75-1.28,1.46-2.48,1.9-3.77.67-2.39,5.47-52.35,4.86-81.95-.02-.83.64-1.51,1.47-1.53.78-.03,1.51.64,1.53,1.47.61,29.38-4.12,80.33-5.02,82.97-.54,1.58-1.35,2.97-2.15,4.33-1.02,1.74-1.98,3.38-2.26,5.25-.13.88-.05,1.71.23,2.41.79,1.97,2.53,2.37,5.67,2.45,12.85.32,25.99,0,37-.89,4.2-.34,7.5-3.78,7.67-8,.33-7.88.38-15.12.42-22.11.07-9.86.13-19.18.91-30,.05-.76.67-1.36,1.43-1.39.8-.03,1.43.51,1.55,1.26,1.92,12.1,2.58,14.07,4.53,19.89.54,1.61,1.17,3.5,1.96,5.96.25.79.79,2.12,1.42,3.65,2.96,7.28,5.28,13.54,3.57,16.37-1.85,3.06-3.09,8.75-1.87,11.22,1.02,2.06,4.12,4.01,8.5,3.44,15.39-2.01,36.74-9.33,36.8-17.82.02-3.89-1.24-6.85-2.58-9.98l-.22-.52c-.58-1.37-1.23-2.73-1.91-4.18-2.51-5.33-5.36-11.38-7.44-21.91-2.71-13.72-3.88-21.88-3.71-42.4,0-.82.68-1.49,1.5-1.49h.01c.83,0,1.49.68,1.49,1.51-.17,20.24.98,28.28,3.65,41.79,2.01,10.17,4.78,16.03,7.21,21.21.69,1.47,1.35,2.86,1.95,4.28l.22.51c1.4,3.27,2.85,6.66,2.83,11.18-.08,12.76-29.21,19.44-39.41,20.78-5.88.77-10.05-2-11.58-5.08-1.92-3.88-.08-10.68,1.99-14.11,1.07-1.77-2.46-10.43-3.79-13.69-.68-1.66-1.21-2.98-1.5-3.88-.78-2.45-1.41-4.32-1.94-5.92-.98-2.91-1.65-4.92-2.32-7.73-.18,5.75-.22,11.29-.25,17.02-.05,7.03-.1,14.29-.42,22.22-.24,5.73-4.72,10.4-10.43,10.87-8.28.68-17.75,1.03-27.39,1.03Z"/><path class="cls-3" d="m1114.04,492.69c10.27-5.34,8.58-15.54,8.77-24.94.27-13.37-2.89-25.53-12.96-34.87-4.49-4.16-9.71-6.88-15.8-7.72-6.24-.86-12.58.18-18.79.7-12.26,1.02-24.88.14-35.81-5.86,1.5-1.7,2.51-4.28,1.36-6.42-1.1-2.05-3.83-2.14-5.41-.55-13.79,13.9-23.86,31.06-28.92,50.01-2.04,7.63-4.4,18.15,1.94,24.49,2.96,2.97,7.18,3.95,11.18,4.58,1.73.27,3.47.53,5.21.78-.34,2.32-.25,4.8-.35,6.92-.52,10.1-1.04,20.21-1.56,30.31-.51,9.85-1.01,19.7-1.52,29.56-.49,9.51-.08,19.8-3.93,28.7-.8,1.84-.98,6.49,2.27,6.36,9.38-.36,18.76-.73,28.14-1.09,7.69-.3,17.69,1.02,20.38-8.24,1.06-3.64,1.6-7.36,1.89-11.12-.16-.81-.13-1.65.15-2.4.43-8.5-.17-17.15,1.02-25.53.24.46.49.91.73,1.36.13-.51.32-.98.54-1.45-.71,7.26-1.18,14.54-1.3,21.83-.07,4.31-6.93,11.74-6.32,16.65-.28,3.4-3.71,8.13-.59,9.42,2.89,2.38,17.93.08,22.02.49,1.35.33,2.71.63,4.08.9,4.92.98,11.34-2.81,16.16-1.24,19.15,6.25,11.21-40.89,10.93-46.44-.66-13.19-3.55-50.71-3.53-55.2Z"/><path class="cls-3" d="m1021.23,385.26c-1.36,19.37,6.22,48.49,44.71,52.72,38.64,4.24,53.03-24.21,54.1-41.17,2.85-45.44-24.74-54.33-43.12-55.78-44.46-3.5-54.71,30.18-55.69,44.23Z"/><path class="cls-8" d="m1073.59,439.91c-2.53,0-5.13-.15-7.81-.44-17.66-1.94-30.58-9.12-38.4-21.36-7.81-12.21-8.14-25.89-7.65-32.95.72-10.31,5.51-24.79,16.78-34.49,10.1-8.71,23.75-12.45,40.53-11.13,21.84,1.72,47.29,13.06,44.5,57.37-.59,9.44-5.22,22.88-16.42,32.3-8.46,7.12-19.04,10.71-31.53,10.71Zm-52.36-54.65l1.5.1c-.47,6.69-.16,19.64,7.18,31.13,7.31,11.43,19.49,18.16,36.2,19.99,15.08,1.66,27.55-1.57,37.08-9.58,10.48-8.82,14.81-21.38,15.36-30.2,1.45-23.11-4.61-51.27-41.74-54.19-15.96-1.25-28.86,2.25-38.33,10.41-10.57,9.11-15.06,22.72-15.74,32.43l-1.5-.1Z"/><path class="cls-8" d="m1033.03,495.73c-6.99,0-13.17-.83-14.57-1.03-10.01-1.44-15.08-7.93-15.06-19.29.01-11.71,2.68-23.48,7.72-34.05,3.51-7.37,9.08-15.52,15.29-22.35.56-.61,1.5-.66,2.12-.1s.66,1.5.1,2.12c-6.01,6.63-11.41,14.51-14.8,21.63-4.84,10.17-7.41,21.5-7.43,32.76-.02,14.52,9.4,15.87,12.49,16.32,11.74,1.69,30.48,1.85,33.96-4.65,3.94-7.37,4.5-16.19,4.75-25.33.08-2.92-.08-5.27-1.14-7.19-.94-1.71-3.12-3.18-4.99-2.54-1.88.63-2.65,2.77-3.55,5.23-.68,1.86-1.38,3.78-2.66,5.34-3.9,4.73-10.77,3.85-16.33,2.55-.81-.19-1.31-1-1.12-1.8s.99-1.31,1.8-1.12c4.71,1.1,10.48,1.92,13.33-1.53.96-1.17,1.54-2.77,2.16-4.46,1.01-2.79,2.17-5.96,5.41-7.05,3.51-1.19,7.04,1.15,8.57,3.94,1.47,2.67,1.59,5.77,1.51,8.72-.26,9.52-.85,18.72-5.11,26.67-3.14,5.86-13.46,7.24-22.46,7.24Z"/><path class="cls-8" d="m1093.75,498.75c-.69,0-1.31-.01-1.85-.03-12.94-.42-30.09-2.69-29.67-17.52.18-6.52.91-18.26,3.7-23.62,2.05-3.93,5.64-5.92,9.37-5.19,4.84.95,6.09,4.39,7.19,7.43,1.4,3.88,2.62,7.23,10.86,7.23.83,0,1.5.67,1.5,1.5s-.67,1.5-1.5,1.5c-10.35,0-12.2-5.11-13.68-9.21-1.03-2.84-1.77-4.89-4.95-5.51-2.82-.55-5.03,1.52-6.13,3.64-1.81,3.47-3.07,11.82-3.37,22.32-.1,3.71-.38,13.56,26.77,14.44,4,.13,17.6.01,24.8-6.96,3.11-3.01,4.69-7.01,4.68-11.88,0-18.38-1.89-36.62-15.52-45.53-.69-.45-.89-1.38-.44-2.08.46-.69,1.38-.89,2.08-.44,14.83,9.68,16.87,28.81,16.88,48.04,0,5.71-1.88,10.43-5.6,14.03-7.05,6.83-18.84,7.83-25.13,7.83Z"/><path class="cls-8" d="m1033,596.86c-3.3,0-6.62-.04-9.93-.12-2.35-.06-6.71-.17-8.38-4.33-.48-1.19-.62-2.57-.41-3.97.37-2.44,1.53-4.42,2.64-6.32.75-1.28,1.46-2.49,1.89-3.77.67-2.39,5.47-52.35,4.86-81.95-.02-.83.64-1.51,1.47-1.53.83-.03,1.51.64,1.53,1.47.61,29.39-4.12,80.33-5.02,82.97-.54,1.58-1.35,2.97-2.15,4.33-1.02,1.74-1.98,3.38-2.26,5.25-.13.88-.05,1.71.23,2.41.79,1.97,2.53,2.37,5.67,2.45,12.85.32,25.99,0,37-.89.82-.06,1.55.55,1.62,1.37.07.83-.55,1.55-1.37,1.62-8.28.68-17.75,1.03-27.39,1.03Z"/><path class="cls-8" d="m1079.96,596.86c-3.8,0-7.38-.04-10.52-.12-2.35-.06-6.71-.17-8.38-4.33-.48-1.19-.62-2.57-.41-3.97.37-2.44,1.53-4.42,2.64-6.32.75-1.28,1.46-2.48,1.9-3.77.19-.55,4.6-13.94,3.95-45.47-.02-.83.64-1.51,1.47-1.53h.03c.81,0,1.48.65,1.5,1.47.66,32.04-3.92,45.92-4.11,46.49-.54,1.58-1.35,2.97-2.15,4.33-1.02,1.74-1.98,3.38-2.26,5.25-.13.88-.05,1.71.23,2.41.79,1.97,2.53,2.37,5.67,2.45,11.17.28,27.96.12,40.3-.89,4.2-.34,7.5-3.78,7.67-8,.45-10.83-1.24-34.32-2.73-55.04-1.08-15.02-2.1-29.22-2.21-37.09-.01-.83.65-1.51,1.48-1.52h.02c.82,0,1.49.66,1.5,1.48.11,7.79,1.13,21.94,2.21,36.92,1.5,20.8,3.19,44.38,2.74,55.38-.24,5.73-4.72,10.4-10.43,10.87-8.97.73-20.27,1.03-30.09,1.03Z"/><path class="cls-3" d="m256.61,582.37c5.08,3.35,11.52,5.32,17.21,7.4,5.4,1.97,11.79,4.91,17.64,4.82,5.02-.08,9.35-3.97,9.01-9.2-.21-3.13-1.89-5.05-3.83-7.28-1.09-1.25-.89-.56-.43-2.09.45-1.5,1.27-2.92,1.86-4.37,2.15-5.27,3.68-10.73,4.59-16.33,1.83-3.07,3.65-6.12,5.29-9.26,1.84,12.89-.6,26.42,3.07,39.05,2.69,9.26,12.69,7.94,20.38,8.24,9.38.36,18.76.73,28.14,1.09,3.25.13,3.07-4.52,2.27-6.36-3.85-8.9-3.44-19.19-3.93-28.7-.51-9.85-1.01-19.7-1.52-29.56-.52-10.1-1.04-20.21-1.56-30.31-.11-2.11-.01-4.59-.35-6.92,1.74-.25,3.47-.5,5.21-.78,4-.63,8.22-1.61,11.18-4.58,6.34-6.35,3.98-16.86,1.94-24.49-5.06-18.95-15.13-36.11-28.92-50.01-1.58-1.59-4.31-1.5-5.41.55-1.15,2.14-.14,4.73,1.36,6.42-10.92,6.01-23.55,6.88-35.81,5.86-6.22-.52-12.56-1.56-18.79-.7-6.09.84-11.31,3.56-15.8,7.72-10.07,9.34-13.23,21.5-12.96,34.87.19,9.4.58,21.45,9.07,27.2.06,12.12.26,24.4-1.23,36.3-1.62,12.88-7.7,24.29-11.38,36.59-1.72,5.75-1.81,11.2,3.71,14.84Z"/><path class="cls-3" d="m358.03,384.95c1.36,19.37-6.22,48.49-44.71,52.72-38.64,4.24-53.03-24.21-54.1-41.17-2.85-45.44,24.74-54.33,43.12-55.78,44.46-3.5,54.71,30.18,55.69,44.23Z"/><path class="cls-8" d="m305.67,439.6c-12.48,0-23.06-3.59-31.52-10.7-11.21-9.43-15.83-22.87-16.43-32.3-2.78-44.3,22.66-55.65,44.5-57.37,16.79-1.32,30.42,2.42,40.53,11.13,11.27,9.71,16.06,24.18,16.78,34.49h0c1.66,23.63-9.57,50.31-46.05,54.31-2.68.29-5.29.44-7.81.44Zm2.95-97.63c-2,0-4.06.08-6.17.25-20.5,1.61-44.37,12.32-41.74,54.19.55,8.82,4.88,21.38,15.36,30.2,9.52,8.01,21.99,11.23,37.08,9.58,16.71-1.83,28.89-8.56,36.2-19.99,7.34-11.49,7.65-24.43,7.18-31.13h0c-.68-9.71-5.17-23.32-15.74-32.43-8.22-7.08-19.03-10.66-32.17-10.66Z"/><path class="cls-8" d="m346.23,495.42c-9,0-19.32-1.38-22.46-7.24-4.25-7.95-4.84-17.15-5.11-26.67-.08-2.95.04-6.05,1.51-8.72,1.54-2.79,5.06-5.13,8.58-3.94,3.25,1.09,4.39,4.26,5.41,7.05.62,1.7,1.2,3.3,2.16,4.46,2.85,3.46,8.62,2.64,13.33,1.53.8-.19,1.61.31,1.8,1.12.19.81-.31,1.61-1.12,1.8-5.56,1.3-12.43,2.19-16.33-2.55-1.29-1.56-1.99-3.49-2.66-5.35-.9-2.47-1.67-4.6-3.55-5.23-1.87-.63-4.04.83-4.99,2.54-1.18,2.14-1.2,4.83-1.14,7.19.25,9.14.81,17.96,4.75,25.33,3.48,6.5,22.21,6.34,33.96,4.65,12.51-1.8,12.5-12.73,12.49-16.32-.01-11.26-2.58-22.59-7.43-32.76-3.39-7.11-8.78-15-14.8-21.63-.56-.61-.51-1.56.1-2.12.61-.56,1.56-.51,2.12.1,6.2,6.84,11.78,14.98,15.29,22.35,5.03,10.57,7.7,22.34,7.72,34.05.01,11.36-5.05,17.85-15.06,19.29-1.4.2-7.59,1.03-14.57,1.03Z"/><path class="cls-8" d="m285.5,498.44c-6.29,0-18.08-1-25.13-7.83-3.72-3.6-5.6-8.32-5.6-14.03,0-19.23,2.05-38.36,16.88-48.04.69-.45,1.62-.26,2.08.44s.26,1.62-.44,2.08c-13.63,8.9-15.51,27.14-15.52,45.53,0,4.87,1.58,8.86,4.68,11.87,7.2,6.97,20.79,7.08,24.8,6.96,27.16-.88,26.88-10.73,26.78-14.44-.3-10.5-1.55-18.84-3.37-22.32-1.11-2.12-3.29-4.19-6.13-3.64-3.18.62-3.92,2.67-4.95,5.51-1.48,4.1-3.33,9.21-13.68,9.21-.83,0-1.5-.67-1.5-1.5s.67-1.5,1.5-1.5c8.24,0,9.46-3.35,10.86-7.23,1.1-3.04,2.35-6.49,7.19-7.43,3.71-.73,7.31,1.26,9.37,5.19,2.8,5.36,3.52,17.1,3.7,23.62.42,14.83-16.74,17.1-29.68,17.52-.54.02-1.17.03-1.85.03Z"/><path class="cls-8" d="m346.26,596.55c-9.64,0-19.11-.35-27.39-1.03-5.71-.47-10.19-5.14-10.43-10.87-.33-7.93-.38-15.19-.42-22.22-.04-5.73-.08-11.27-.25-17.03-.67,2.81-1.34,4.81-2.32,7.73-.54,1.59-1.17,3.47-1.94,5.92-.29.9-.82,2.22-1.5,3.88-1.33,3.26-4.85,11.92-3.78,13.68,2.07,3.42,3.91,10.23,1.99,14.11-1.53,3.08-5.7,5.85-11.58,5.08-10.2-1.33-39.33-8.01-39.41-20.78-.03-4.52,1.42-7.91,2.83-11.18l.22-.51c.61-1.42,1.26-2.81,1.95-4.28,2.44-5.18,5.2-11.04,7.21-21.21,2.67-13.52,3.83-21.55,3.65-41.79,0-.83.66-1.51,1.49-1.51h.01c.82,0,1.49.66,1.5,1.49.18,20.52-.99,28.67-3.71,42.4-2.08,10.53-4.93,16.57-7.44,21.91-.68,1.44-1.32,2.81-1.91,4.18l-.22.52c-1.34,3.13-2.61,6.09-2.58,9.98.05,8.5,21.4,15.81,36.8,17.82,4.39.57,7.48-1.38,8.5-3.44,1.22-2.47-.02-8.16-1.87-11.22-1.71-2.83.61-9.08,3.57-16.37.63-1.54,1.17-2.87,1.42-3.66.78-2.47,1.42-4.36,1.96-5.97,1.95-5.83,2.61-7.79,4.53-19.89.12-.75.76-1.29,1.55-1.26.76.03,1.38.63,1.43,1.39.78,10.82.84,20.14.91,30,.05,7,.1,14.23.42,22.11.17,4.22,3.47,7.66,7.67,8,11.01.9,24.15,1.22,37,.89,3.14-.08,4.88-.48,5.67-2.45.28-.7.36-1.53.23-2.41-.28-1.87-1.25-3.51-2.26-5.25-.79-1.35-1.61-2.75-2.15-4.33-.9-2.64-5.62-53.59-5.02-82.97.02-.83.67-1.48,1.53-1.47.83.02,1.49.7,1.47,1.53-.61,29.6,4.19,79.55,4.87,81.97.43,1.26,1.14,2.47,1.89,3.75,1.12,1.91,2.27,3.88,2.64,6.32.21,1.4.07,2.78-.41,3.97-1.67,4.17-6.04,4.28-8.38,4.33-3.3.08-6.62.12-9.93.12Z"/><path class="cls-3" d="m147.18,630.27c.59,4.86,1.81,10.99,6.78,13.24,2.53,1.14,5.51.81,8.2.78,2.99-.03,5.99-.06,8.98-.1,4.84-.05,9.69-.11,14.53-.16.09.93.2,1.87.34,2.82.36,2.46,2.6,4.32,4.97,4.45,11.36.65,22.75.12,33.98-1.73,4.02-.66,8.72-1.29,11.56-4.55,2.77-3.18,2.4-7.81.61-11.36-1.08-2.14-2.72-3.9-4.51-5.46-1.24-1.09-3.1-2.12-3.9-3.63-.96-1.81-.8-4.38-.94-6.34-.18-2.55-.35-5.1-.52-7.64-.69-10.19-1.39-20.38-2.08-30.57-.38-5.6-.76-11.21-1.14-16.82-.17-2.55-.35-5.1-.52-7.64-.1-1.48-.88-4.26,0-5.5,1.04-1.44,3.91-1.76,5.55-2.33,1.92-.68,3.81-1.44,5.67-2.27,3.72-1.67,7.29-3.67,10.67-5.94,6.63-4.45,12.87-9.84,17.59-16.33,4.64-6.38,6.14-15.59,0-21.66-5.28-5.21-12.88-4.12-19.18-1.58-6.85,2.76-13.51,7.12-16.72,13.97-.09,0-.18.02-.27.03-.88.07-1.78,0-2.65.1-.16.02-1.47-.18-1.26.09-.9-.83-1.83-3.58-2.39-4.53-3.84-6.56-8.38-12.49-13.54-18.07-1.33-1.44-3.61-1.47-4.89-.16-15.23.03-30.39-1.08-45.46-3.35-1.72-.26-3.58.71-3.79,2.63-1.59,14.65-2.55,29.35-3.04,44.07-.44,13.08-.53,26.18-.51,39.27.02,12.8.21,25.41-1.42,38.13-.77,6.01-1.45,12.08-.71,18.13Z"/><path class="cls-8" d="m190.88,652.77c-1.31,0-3.35-.13-4.62-1.69-.95-1.17-1.02-2.66-1.07-3.65-.46-9.68-.93-23.38-1.39-36.64-.46-13.24-.93-26.93-1.39-36.6-.04-.83.6-1.53,1.43-1.57.85-.02,1.53.6,1.57,1.43.46,9.68.93,23.38,1.39,36.64.46,13.24.93,26.93,1.39,36.6.03.63.07,1.5.4,1.9.43.53,1.52.58,2.65.58l29.36-.33c3.96-.04,8.45-.09,12.15-1.83,3.23-1.52,6.21-4.99,5.65-8.68-.42-2.8-2.64-4.93-4.98-7.19-1.71-1.65-3.48-3.35-4.71-5.45-1.72-2.93-2.18-6.18-2.57-9.81-2.01-18.75-3.01-46.84-2.33-65.35.03-.83.73-1.46,1.55-1.44.83.03,1.47.73,1.44,1.55-.68,18.38.31,46.29,2.31,64.92.35,3.29.76,6.2,2.18,8.62,1.02,1.75,2.57,3.23,4.2,4.81,2.6,2.5,5.29,5.09,5.87,8.9.81,5.39-3.24,9.92-7.35,11.85-4.3,2.02-9.13,2.07-13.39,2.12l-29.36.33c-.12,0-.26,0-.4,0Z"/><path class="cls-8" d="m186.51,644.92s-.05,0-.08,0c-3.89-.2-9.69-.14-15.3-.09-5.64.05-11.48.11-15.46-.09-2.22-.11-5.26-.26-7.56-2.05-3.47-2.7-3.59-7.48-3.26-11.79.15-1.9.32-3.85.5-5.85.58-6.61,1.18-13.44,1.16-20.68-.16-52.52.25-97.62,6.81-117.51.26-.79,1.11-1.21,1.89-.96.79.26,1.21,1.11.96,1.89-6.43,19.47-6.82,64.31-6.66,116.56.02,7.38-.61,14.59-1.17,20.95-.17,1.99-.35,3.94-.49,5.82-.27,3.52-.24,7.37,2.11,9.19,1.43,1.12,3.5,1.3,5.86,1.42,3.89.19,9.68.14,15.28.09,5.65-.05,11.5-.11,15.48.09.83.04,1.46.75,1.42,1.57-.04.8-.7,1.42-1.5,1.42Z"/><path class="cls-8" d="m216.29,552.91c-13.3,0-20.98-11.26-27.82-21.29l-.7-1.03c-.47-.68-.29-1.62.39-2.08.68-.47,1.62-.29,2.08.39l.7,1.03c7.59,11.13,14.76,21.64,28.39,19.76,14.88-2.06,25.06-9.3,35.76-19.54,6.24-5.97,9.65-11.94,10.12-17.73.32-3.95-1.15-8.36-3.75-11.24-1.28-1.42-3.43-3.11-6.4-3.17-.13,0-.26,0-.4,0-10.51,0-18.63,8.08-24.04,13.44-1.95,1.94-3.49,3.46-4.78,4.26-.4.25-.88.29-1.32.13-.44-.17-.77-.52-.9-.97-1.01-3.35-3.75-7.44-6.4-11.39-2.07-3.09-4.03-6.01-5.23-8.64-.34-.75-.01-1.64.74-1.99.75-.34,1.64-.01,1.99.74,1.1,2.41,2.99,5.23,4.99,8.22,2.29,3.41,4.64,6.93,6.04,10.18.8-.72,1.74-1.65,2.76-2.67,5.4-5.37,14.41-14.32,26.16-14.32.15,0,.3,0,.45,0,3.2.06,6.16,1.5,8.57,4.16,3.18,3.52,4.91,8.69,4.52,13.49-.54,6.55-4.25,13.16-11.04,19.66-11.12,10.64-21.75,18.17-37.43,20.34-1.2.17-2.35.25-3.47.25Z"/><path class="cls-3" d="m238.03,449.5c1.31,18.98-7.76,36.58-24.65,44.71-6.06,2.92-12.64,4.55-19.23,5.82-6.51,1.25-40.38,2.01-51.83-33.53-12.14-37.69,23.64-59.56,41.27-61.45,39.14-4.2,53.48,30.68,54.43,44.44Z"/><path class="cls-8" d="m188.51,501.97c-4.97,0-11.83-.78-18.95-3.5-9.63-3.68-22.42-12.14-28.66-31.5-4.5-13.96-2.93-27.4,4.52-38.87,9.28-14.28,26.51-23.29,38.02-24.53,14.56-1.56,27.07,1.95,37.19,10.43,13.81,11.58,18.4,28.22,18.89,35.4h0c1.39,20.23-8.38,37.92-25.49,46.17-6.59,3.17-13.6,4.78-19.59,5.94-1.32.25-3.38.46-5.93.46Zm1.49-95.76c-2.03,0-4.11.11-6.24.34-10.82,1.16-27.06,9.68-35.83,23.18-7.04,10.84-8.45,23.06-4.18,36.32,12.24,38.01,49.74,32.58,50.12,32.51,5.8-1.12,12.58-2.67,18.86-5.7,15.99-7.7,25.11-24.28,23.8-43.26h0c-.54-7.83-5.73-23.17-17.83-33.31-8-6.71-17.64-10.09-28.71-10.09Z"/><path class="cls-8" d="m148.24,391.93c-.68,0-1.3-.47-1.46-1.16-3.13-13.37,1.52-28.9,11.85-39.57,9.33-9.64,23.27-15.72,38.24-16.7,12.76-.84,29.17,1.14,42.9,24.03.43.71.2,1.63-.51,2.06-.71.43-1.63.2-2.06-.51-12.82-21.37-27.48-23.4-40.13-22.58-14.24.93-27.46,6.69-36.28,15.8-9.64,9.96-13.99,24.4-11.09,36.8.19.81-.31,1.61-1.12,1.8-.11.03-.23.04-.34.04Z"/><path class="cls-8" d="m825.47,323.11c-.07,0-.14,0-.21-.01-.82-.12-1.39-.88-1.27-1.7,1.6-11.28,7.74-21.95,16.83-29.28,8.89-7.17,20.29-11.03,32-10.9,10.4.12,20.17,3.46,27.5,9.41,8.07,6.54,12.94,16.21,13.05,25.87,0,.83-.66,1.51-1.48,1.52h-.02c-.82,0-1.49-.66-1.5-1.48-.1-8.78-4.56-17.59-11.94-23.57-6.81-5.52-15.92-8.62-25.65-8.74-.18,0-.37,0-.55,0-10.71,0-21.44,3.72-29.53,10.24-8.51,6.86-14.25,16.83-15.74,27.36-.11.75-.75,1.29-1.48,1.29Z"/><path class="cls-8" d="m883.09,289.83c-.13,0-.27-.02-.4-.05-.8-.22-1.27-1.05-1.05-1.84,3.48-12.62,12.04-23.51,23.49-29.87,11.45-6.36,25.22-7.87,37.77-4.14,10.69,3.17,18.68,10.07,21.39,18.46.25.79-.18,1.63-.97,1.89-.79.25-1.63-.18-1.89-.97-2.4-7.45-9.65-13.62-19.38-16.51-11.79-3.5-24.71-2.08-35.46,3.88-10.75,5.97-18.79,16.19-22.05,28.04-.18.67-.79,1.1-1.45,1.1Z"/><path class="cls-8" d="m1032.93,314.74c-.68,0-1.3-.47-1.46-1.16-3.78-16.28-20.09-29.23-38.77-30.79-33.45-2.81-49.42,21.5-50.49,27.97-.13.82-.91,1.37-1.72,1.24-.82-.13-1.37-.91-1.24-1.72,1.15-7.02,18.19-33.44,53.7-30.47,19.94,1.67,37.37,15.6,41.44,33.11.19.81-.31,1.61-1.12,1.8-.11.03-.23.04-.34.04Z"/><path class="cls-8" d="m238.49,332.84s-.03,0-.05,0c-.83-.03-1.48-.72-1.45-1.55.69-20.73,18.71-39.97,41.04-43.81,22.27-3.83,46.73,8.06,55.66,27.08.35.75.03,1.64-.72,2-.75.35-1.64.03-2-.72-8.39-17.86-31.42-29.01-52.44-25.4-20.97,3.61-37.9,21.6-38.55,40.96-.03.81-.69,1.45-1.5,1.45Z"/><path class="cls-8" d="m119.44,330.49s-.05,0-.08,0c-.83-.04-1.46-.75-1.42-1.58,1.24-23.13,20.2-43.58,43.16-46.56,22.96-2.99,46.52,11.96,53.62,34,.25.79-.18,1.63-.97,1.89-.79.25-1.63-.18-1.89-.97-6.56-20.37-29.16-34.69-50.37-31.95-21.22,2.75-39.41,22.38-40.55,43.74-.04.8-.71,1.42-1.5,1.42Z"/><path class="cls-8" d="m992.71,275.91c-.07,0-.14,0-.21-.01-.82-.11-1.39-.87-1.28-1.69,1.72-12.38,11.23-23.93,24.23-29.43,20.88-8.83,36.58-5.01,46.07-.24,13.11,6.58,22.15,18.94,24.3,27.74.2.8-.3,1.62-1.1,1.81-.81.2-1.62-.3-1.81-1.1-1.61-6.58-8.99-18.87-22.74-25.77-12.8-6.43-27.86-6.32-43.55.32-12.05,5.1-20.85,15.72-22.43,27.08-.1.75-.75,1.29-1.48,1.29Z"/><path class="cls-8" d="m893.08,585.19h-30.82c-.83,0-1.5-.67-1.5-1.5s.67-1.5,1.5-1.5h30.82c.83,0,1.5.67,1.5,1.5s-.67,1.5-1.5,1.5Z"/><path class="cls-8" d="m270.56,597.39h-42.38c-.83,0-1.5-.67-1.5-1.5s.67-1.5,1.5-1.5h42.38c.83,0,1.5.67,1.5,1.5s-.67,1.5-1.5,1.5Z"/><path class="cls-8" d="m135.08,598.67h-22.48c-.83,0-1.5-.67-1.5-1.5s.67-1.5,1.5-1.5h22.48c2.68,0,5.32-.39,8.11-.8,1.49-.22,3.03-.45,4.56-.6.8-.08,1.56.51,1.65,1.34.08.82-.51,1.56-1.34,1.65-1.47.15-2.98.37-4.44.59-2.77.41-5.64.83-8.54.83Z"/><path d="m216.93,159.32c0,1.6,0,3.2.02,4.79s0,3.19-.02,4.79c0,.42,0,.82-.02,1.23-.02.4-.08.81-.2,1.22-.15.51-.41.91-.78,1.2-.37.3-.83.48-1.36.54-.62.03-1.14-.11-1.54-.42-.4-.31-.71-.75-.91-1.31-.12-.33-.2-.68-.25-1.05s-.07-.74-.07-1.09c-.15-6.15-.24-12.3-.27-18.45,0-.54.05-1.06.16-1.58.1-.52.24-1.03.42-1.54.21-.53.54-.94.98-1.2.45-.27.96-.37,1.56-.31.59.06,1.06.28,1.4.67s.56.88.65,1.47c.06.45.09.89.09,1.34v1.34c.03,1.43.04,2.82.02,4.19-.02,1.37-.02,2.76-.02,4.19h.13Z"/><path d="m239.89,158.87c-.24,1.22-.46,2.42-.67,3.61-.21,1.19-.48,2.38-.8,3.57-.71,2.47-1.95,4.32-3.7,5.57-1.75,1.25-3.8,1.77-6.15,1.56-1.37-.12-2.55-.45-3.54-1-1-.55-1.83-1.23-2.5-2.05-.67-.82-1.19-1.73-1.56-2.74-.37-1.01-.62-2.04-.74-3.07-.15-1.19-.16-2.36-.04-3.5.12-1.14.34-2.26.67-3.34.33-1.08.74-2.15,1.23-3.19.49-1.04,1.05-2.05,1.67-3.03.54-.89,1.26-1.63,2.18-2.21.92-.58,1.91-.99,2.96-1.25,1.05-.25,2.13-.32,3.23-.2,1.1.12,2.11.43,3.03.94,1.46.83,2.49,1.92,3.1,3.25.61,1.34,1.03,2.78,1.27,4.32.06.45.07.89.04,1.34-.03.45-.04.91-.04,1.38.06,0,.12,0,.18.02.06.02.12.02.18.02Zm-5.35-.04c-.15-.68-.27-1.38-.36-2.07-.09-.7-.25-1.36-.49-1.98-.42-1.1-1.1-1.75-2.05-1.96-.95-.21-1.84.11-2.67.94-1.49,1.51-2.52,3.19-3.1,5.04-.58,1.84-.65,3.83-.2,5.97.24,1.07.69,1.88,1.36,2.43.67.55,1.46.82,2.38.82.86.03,1.66-.25,2.38-.82.73-.58,1.23-1.36,1.49-2.34.27-.98.49-1.98.67-2.99.18-1.01.37-2.02.58-3.03Z"/><path d="m262.8,158.87c-.24,1.22-.46,2.42-.67,3.61-.21,1.19-.48,2.38-.8,3.57-.71,2.47-1.95,4.32-3.7,5.57-1.75,1.25-3.8,1.77-6.15,1.56-1.37-.12-2.55-.45-3.54-1-1-.55-1.83-1.23-2.5-2.05-.67-.82-1.19-1.73-1.56-2.74-.37-1.01-.62-2.04-.74-3.07-.15-1.19-.16-2.36-.04-3.5.12-1.14.34-2.26.67-3.34.33-1.08.73-2.15,1.22-3.19.49-1.04,1.05-2.05,1.67-3.03.54-.89,1.26-1.63,2.18-2.21.92-.58,1.91-.99,2.96-1.25,1.05-.25,2.13-.32,3.23-.2,1.1.12,2.11.43,3.03.94,1.46.83,2.49,1.92,3.1,3.25.61,1.34,1.03,2.78,1.27,4.32.06.45.07.89.04,1.34-.03.45-.04.91-.04,1.38.06,0,.12,0,.18.02.06.02.12.02.18.02Zm-5.35-.04c-.15-.68-.27-1.38-.36-2.07s-.25-1.36-.49-1.98c-.42-1.1-1.1-1.75-2.05-1.96-.95-.21-1.84.11-2.67.94-1.49,1.51-2.52,3.19-3.1,5.04-.58,1.84-.65,3.83-.2,5.97.24,1.07.69,1.88,1.36,2.43.67.55,1.46.82,2.38.82.86.03,1.66-.25,2.38-.82.73-.58,1.22-1.36,1.49-2.34s.49-1.98.67-2.99.37-2.02.58-3.03Z"/><path d="m281.34,148.58v5.39c-.06,1.72-.91,2.81-2.54,3.25-1.78.57-3.55.81-5.3.74-1.75-.07-3.52-.41-5.3-1-.68-.24-1.21-.62-1.58-1.16-.37-.54-.57-1.14-.6-1.83-.06-1.96-.09-3.93-.09-5.91s.04-3.94.13-5.9c.03-.83.31-1.49.85-1.96.53-.48,1.22-.74,2.05-.8,1.49-.06,2.96-.09,4.43-.09s2.95.03,4.43.09c2.26.09,3.46,1.35,3.61,3.79.06.89.08,1.79.07,2.7-.02.91-.02,1.8-.02,2.7h-.13Zm-10.03-4.37c-.6,1.49-.89,2.93-.89,4.32s.24,2.82.71,4.28h5.26c-.06-.77-.06-1.53,0-2.27s.1-1.48.11-2.21c.02-.73-.02-1.46-.11-2.18-.09-.73-.28-1.46-.58-2.21-.77.06-1.52.11-2.25.13s-1.48.07-2.25.13Zm12.08,28.48c1.52,0,2.87,0,4.06-.02,1.19-.01,2.35,0,3.48.02.51,0,1,0,1.49-.02.49-.01.97.04,1.45.16.51.09.94.32,1.29.69.36.37.5.82.45,1.36-.06.33-.21.66-.47,1-.25.34-.53.63-.83.87-.24.18-.52.31-.85.4-.33.09-.65.15-.98.18-1.66.06-3.31.12-4.92.18-1.62.06-3.25.06-4.88,0-1.25-.06-2.26-.44-3.03-1.14-.77-.7-1.14-1.66-1.11-2.88.03-1.78.15-3.56.36-5.35.21-1.78.42-3.56.62-5.35.03-.21.13-.42.31-.65.18-.22.39-.41.62-.56.24-.15.47-.25.71-.29.24-.04.45-.02.62.07.33.18.65.42.98.71.33.3.51.61.54.94.12.8.16,1.61.13,2.43-.03.82-.04,1.64-.04,2.47v4.77Zm12.57-26.65c.95.06,1.8.11,2.56.16s1.49.1,2.21.16c.5.06,1,.1,1.49.13s.94.15,1.36.36c.33.15.62.39.87.73.25.34.45.68.6,1,.15.42.04.86-.31,1.34-.36.48-.77.76-1.25.85-.42.09-.82.15-1.2.18s-.79.06-1.2.09c-.83.06-1.66.09-2.47.09s-1.66.02-2.52.04c-.06.77-.11,1.49-.16,2.14-.04.65-.13,1.29-.25,1.92-.12.53-.37.94-.76,1.22-.39.28-.85.44-1.38.47-.56.03-1.02-.11-1.36-.42-.34-.31-.62-.72-.83-1.23-.06-.15-.1-.3-.13-.47s-.04-.32-.04-.47v-6.88c0-2.27.02-4.57.04-6.89,0-.24.06-.46.18-.67s.24-.43.36-.67c.12-.27.3-.48.56-.62s.53-.23.82-.24c.3-.02.58.03.85.13s.49.28.67.51c.24.33.45.67.62,1.03.18.36.3.74.36,1.16.12.71.19,1.46.2,2.23.01.77.05,1.65.11,2.63Z"/><path d="m322.12,159.41v1.74c0,.56-.02,1.11-.04,1.65-.03.51-.04,1.01-.04,1.52s-.09.96-.27,1.38c-.15.33-.39.63-.71.91-.33.28-.67.47-1.03.56-.51.15-.97.1-1.4-.16-.43-.25-.75-.63-.96-1.14-.21-.5-.37-1.04-.47-1.6s-.21-1.13-.33-1.69c-.09-.42-.16-.83-.22-1.25-.06-.42-.15-.91-.27-1.47-.65,0-1.29,0-1.92.02-.62.02-1.25,0-1.87-.02h-1.52c-.5,0-.97-.07-1.38-.22-.33-.15-.62-.39-.89-.74s-.43-.68-.49-1c-.06-.33,0-.69.2-1.09.19-.4.42-.72.69-.96.27-.27.6-.47,1-.6s.79-.23,1.18-.29c2.38-.24,4.74-.45,7.09-.62s4.71-.37,7.09-.58c.15,0,.3.01.47.04.16.03.32.08.47.13.5.15.93.36,1.27.65.34.28.54.72.6,1.31.06.54-.02,1.01-.25,1.43s-.59.73-1.09.94c-.45.15-.91.27-1.38.36-.48.09-.95.19-1.43.31-.33.06-.65.12-.96.2s-.69.17-1.14.29Zm-11.5-16.85c.12-.36.26-.89.42-1.61.16-.71.41-1.44.74-2.18.53-1.25,1.28-2.2,2.23-2.85.95-.65,2.14-.94,3.56-.85.8.06,1.61.13,2.43.22.82.09,1.61.25,2.38.49,1.28.45,2.36,1.09,3.25,1.94.89.85,1.54,1.8,1.96,2.88.42,1.07.58,2.22.49,3.45-.09,1.23-.46,2.45-1.11,3.63-.45.83-1.03,1.55-1.76,2.16-.73.61-1.55,1.09-2.45,1.45-.91.36-1.86.57-2.87.64-1.01.08-2.04,0-3.08-.24-2.05-.51-3.61-1.51-4.68-3.01-1.07-1.5-1.57-3.54-1.51-6.13Zm8.33,3.97c1.13.06,2.02-.17,2.67-.69.65-.52.98-1.25.98-2.21.03-.95-.32-1.73-1.05-2.34-.73-.61-1.7-.93-2.92-.96-.83,0-1.51.3-2.03.89-.52.6-.78,1.38-.78,2.36,0,.86.28,1.55.85,2.07.56.52,1.32.81,2.27.87Zm9.81,27.99c1.01.6,2.04.88,3.1.87,1.05-.01,2.1,0,3.14.02.74.03,1.48.04,2.21.04s1.46.04,2.21.13c1.1.21,1.68.89,1.74,2.05.03.56-.08,1.06-.33,1.49-.25.43-.63.71-1.14.82-2.35.51-4.69.77-7.02.8-2.33.03-4.64-.42-6.93-1.34-.42-.18-.79-.47-1.14-.89s-.6-.83-.78-1.25c-.45-1.1-.68-2.21-.71-3.34-.03-1.13.12-2.26.45-3.39.09-.33.31-.63.67-.91.36-.28.7-.48,1.03-.6.54-.18,1.03-.14,1.47.11s.76.63.94,1.13c.24.69.44,1.38.6,2.1.16.71.33,1.43.51,2.14Zm5.88-16.09c.15-1.01.25-1.9.31-2.68.06-.77.16-1.51.31-2.23.12-.56.44-1.05.96-1.45.52-.4,1.03-.59,1.54-.56.51.06.98.3,1.43.73.45.43.68.96.71,1.58.06,1.99.09,3.97.09,5.93v5.88c0,.24-.05.47-.16.69-.1.22-.21.45-.33.69-.21.42-.49.73-.85.94-.36.21-.73.32-1.12.33-.39.02-.77-.07-1.14-.24-.37-.18-.66-.48-.87-.89-.24-.42-.42-.87-.56-1.36s-.29-.99-.47-1.49c-.8-.36-1.6-.46-2.41-.31-.8.15-1.6.24-2.41.27-2.38.09-3.6-.68-3.65-2.32,0-.68.24-1.23.73-1.65s1.27-.74,2.34-.98c.86-.18,1.74-.33,2.63-.47.89-.13,1.86-.27,2.9-.42Z"/><path d="m332.98,239.8c-.27,0-.55-.06-.82-.18l-1.06-.47c-8.52-3.78-28.46-12.65-39.03-34.28-.49-.99-.07-2.19.92-2.67,1-.49,2.19-.07,2.67.92,9.93,20.33,28.25,28.47,37.06,32.38l1.08.48c1.01.45,1.46,1.63,1.01,2.64-.33.74-1.06,1.18-1.83,1.18Z"/><path d="m319.63,248.53c-.76,0-1.49-.44-1.83-1.18-.45-1.01,0-2.19,1.01-2.64l15.25-6.83-6.83-14.15c-.48-1-.06-2.19.93-2.67.99-.48,2.19-.06,2.67.93l7.72,16c.24.49.26,1.05.08,1.55s-.57.92-1.06,1.14l-17.13,7.68c-.27.12-.54.18-.82.18Z"/><path d="m765.44,12.11c0,1.24-.2,2.4-.61,3.47-.41,1.07-.97,2-1.68,2.8-.72.8-1.57,1.42-2.56,1.87s-2.06.68-3.22.71c-1.14.03-2.23-.18-3.29-.63s-2-1.05-2.82-1.83c-.83-.77-1.49-1.66-1.99-2.68-.5-1.01-.76-2.08-.79-3.18-.05-1.14.16-2.26.65-3.39.49-1.12,1.12-2.14,1.91-3.04.78-.91,1.68-1.64,2.68-2.19,1-.55,2.01-.83,3.04-.83,1.22.03,2.35.27,3.41.73,1.05.46,1.97,1.1,2.74,1.91.77.81,1.39,1.75,1.85,2.82s.69,2.22.69,3.47Zm-4.79-.08c-.03-.51-.14-1.01-.35-1.48-.2-.47-.47-.89-.79-1.24-.32-.35-.7-.62-1.12-.81-.42-.19-.87-.28-1.36-.28s-.96.13-1.42.38c-.46.26-.85.59-1.18.99s-.58.87-.77,1.4c-.19.53-.27,1.06-.24,1.6.03.49.16.95.39,1.38.23.43.53.81.89,1.14.37.33.78.58,1.24.75.46.18.93.25,1.42.22.95-.05,1.74-.47,2.39-1.24.65-.77.95-1.71.89-2.82Zm14.48,17.97c.05-.51.1-1.01.14-1.5.04-.49.09-.97.14-1.46-.51-.27-1.02-.45-1.52-.55-.5-.09-.99-.15-1.48-.16-.49-.01-.97,0-1.46.02-.49.03-.96.03-1.42,0-.84-.05-1.66-.08-2.47-.08s-1.62-.04-2.43-.12c-.46-.05-.84-.24-1.16-.57-.31-.33-.52-.73-.63-1.22-.08-.49.04-.97.37-1.44.32-.47.76-.78,1.3-.91.22-.05.43-.11.65-.16.22-.05.43-.08.65-.08,1.7.03,3.41.03,5.13.02,1.72-.01,3.43.05,5.13.18,1.65.13,2.8.59,3.45,1.36.65.77.96,1.97.93,3.59-.03.76-.08,1.5-.16,2.23s-.19,1.46-.32,2.19c-.33,2.14-1.61,3.37-3.85,3.69-1.11.19-2.2.39-3.29.59-1.08.2-2.16.44-3.25.71-.65.16-1.14.47-1.46.93-.32.46-.38,1.11-.16,1.95.41.19.82.3,1.26.34.43.04.86.04,1.28,0,.42-.04.84-.1,1.28-.18s.87-.12,1.3-.12c.59-.05,1.19-.11,1.78-.16.59-.05,1.18-.07,1.75-.04.27.03.52.11.75.24.23.13.44.3.63.51.19.2.33.43.43.67s.14.49.14.73c0,.49-.13.91-.39,1.28-.26.37-.62.62-1.08.75-3.49,1.11-7.02,1.42-10.59.93-1.33-.19-2.35-.76-3.06-1.72-.72-.96-.99-2.09-.83-3.39.16-1.11.37-2.08.63-2.9s.62-1.54,1.08-2.13,1.03-1.08,1.7-1.46c.68-.38,1.5-.69,2.47-.93,1.08-.24,2.16-.5,3.25-.77,1.08-.27,2.22-.55,3.41-.85Zm2.72-22.72c.87.05,1.64.09,2.33.1s1.36.06,2.01.14c.78.08,1.49.3,2.11.65.38.24.68.56.91.95.23.39.28.83.14,1.32-.27,1-.91,1.54-1.91,1.62-.87.05-1.74.09-2.64.1s-1.83.05-2.8.1c-.05.7-.1,1.35-.14,1.95-.04.6-.1,1.18-.18,1.75-.08.54-.34,1.01-.79,1.4-.45.39-.9.57-1.36.55-.46,0-.91-.18-1.36-.55s-.74-.8-.87-1.32c-.11-.57-.19-1.16-.24-1.79l-.37-8.88c-.05-.43-.05-.88,0-1.34.08-.73.3-1.33.65-1.81.35-.47.8-.78,1.34-.91.57-.13,1.08.02,1.54.47.46.45.8,1.13,1.01,2.05.14.51.24,1.04.3,1.58.07.54.17,1.16.3,1.87Z"/><path d="m793.03,20.27c1.38-.16,2.66-.32,3.83-.49,1.18-.16,2.36-.3,3.55-.41.97-.08,1.97.03,3,.32.22.08.42.26.61.55s.3.55.33.79c.03.27-.05.53-.22.79-.18.26-.33.51-.47.75-.05.05-.11.12-.16.18-.05.07-.11.1-.16.1-1.78.3-3.54.64-5.27,1.01s-3.49.59-5.27.65c-1.46.05-2.58-.39-3.37-1.34s-1.15-2.18-1.09-3.69c.03-1.14.13-2.14.3-3.02s.48-1.65.91-2.31c.43-.66,1.03-1.24,1.78-1.72.76-.49,1.72-.89,2.88-1.22l3.69-1.06c.05-.41.11-.84.18-1.32.07-.47.13-.95.18-1.44-.49-.16-.97-.27-1.44-.33-.47-.05-.94-.08-1.4-.08s-.92,0-1.38.02c-.46.01-.91,0-1.34-.02-.51-.05-1.03-.07-1.56-.06s-1.04-.06-1.52-.22c-.3-.08-.58-.28-.83-.61-.26-.32-.41-.63-.47-.93-.05-.3.02-.63.22-.99s.44-.63.71-.79c.35-.22.75-.38,1.2-.49s.89-.18,1.32-.2c1.22-.05,2.41-.09,3.57-.1,1.16-.01,2.35,0,3.57.06,1.03.05,1.85.35,2.47.89.62.54.99,1.33,1.1,2.35.08.81.12,1.63.12,2.45s-.01,1.64-.04,2.45c-.03.6-.09,1.09-.18,1.48-.09.39-.26.73-.51,1.01s-.56.51-.95.69c-.39.18-.89.33-1.48.47-.57.14-1.15.25-1.74.34s-1.18.21-1.74.34c-.68.16-1.21.34-1.6.53-.39.19-.69.45-.89.79-.2.34-.32.8-.37,1.4-.04.6-.06,1.39-.06,2.39Zm10.47,11.56c0-.54-.01-1.06-.04-1.56-.03-.5-.01-1.02.04-1.56.08-1.19.45-2.16,1.1-2.92.65-.76,1.57-1.16,2.76-1.22,1.27-.05,2.53-.01,3.77.12,1.24.14,2.5.27,3.77.41.54.08.99.32,1.36.73.37.41.6.88.71,1.42.16.7.3,1.43.41,2.17.11.74.16,1.48.16,2.21s-.05,1.47-.16,2.21c-.11.74-.23,1.48-.37,2.21-.19,1.19-.64,2.13-1.34,2.82s-1.62,1.09-2.76,1.2c-1.43.16-2.93.18-4.5.04-3.11-.24-4.79-1.96-5.03-5.15-.03-.51-.03-1.03-.02-1.54s.02-1.04.02-1.58h.12Zm8.8,3.77c.13-.35.26-.66.38-.93.12-.27.21-.55.26-.85.16-.92.27-1.73.33-2.43.05-.7-.05-1.27-.33-1.7-.27-.43-.74-.73-1.4-.89-.66-.16-1.64-.17-2.94-.04-.14.03-.27.09-.41.2-.14.11-.32.24-.57.41-.05.49-.12.99-.18,1.5-.07.51-.1,1.03-.1,1.56s.06,1.06.18,1.6c.12.54.34,1.07.67,1.58h4.1Zm-1.75-25.44c0-.84,0-1.66-.02-2.47-.01-.81,0-1.64.06-2.47.03-.27.08-.55.16-.83s.19-.56.32-.83c.08-.19.22-.34.43-.47.2-.12.42-.2.65-.24.23-.04.45-.03.67.02.22.05.41.16.57.33.22.22.43.44.63.67.2.23.32.48.34.75.13,2.03.26,4.04.37,6.02.11,1.99.22,4,.32,6.02,0,.11-.03.24-.08.41-.14.46-.34.85-.61,1.18s-.68.5-1.22.53c-.51.03-.94-.11-1.28-.41s-.57-.66-.71-1.1c-.14-.43-.23-.87-.28-1.3-.05-.43-.1-.88-.12-1.34-.05-.76-.07-1.51-.06-2.25.01-.74.02-1.48.02-2.21h-.16Z"/><path d="m831.89,25.13c-1.22,0-2.41,0-3.59.02-1.18.01-2.36,0-3.55-.02-.51,0-1.03-.01-1.56-.04-.53-.03-1.03-.12-1.52-.28-.27-.11-.53-.32-.79-.65-.26-.33-.41-.64-.47-.93-.05-.3.01-.63.2-1.01s.41-.64.65-.77c.54-.27,1.09-.49,1.66-.65s1.15-.26,1.74-.28c2.84-.05,5.66-.07,8.46-.06,2.8.01,5.62.03,8.46.06.54,0,1.11.14,1.7.41.43.22.78.49,1.03.83.26.34.36.76.3,1.28-.14,1.03-.69,1.65-1.66,1.87-.57.11-1.15.2-1.74.26-.6.07-1.19.12-1.79.14-1.27.05-2.53.07-3.77.04-1.25-.03-2.5-.04-3.77-.04v-.16Zm-.69-9.21c-1.43.03-2.72-.22-3.87-.75s-2.1-1.25-2.86-2.17c-.76-.92-1.28-1.99-1.56-3.22s-.25-2.54.1-3.92c.22-.84.54-1.58.97-2.21.43-.63,1.03-1.18,1.79-1.64.84-.51,1.68-.94,2.54-1.28.85-.34,1.72-.56,2.6-.67.88-.11,1.76-.08,2.66.08.89.16,1.81.49,2.76.97,1.97,1.05,3.16,2.65,3.57,4.79.32,1.79.17,3.54-.45,5.27-.6,1.65-1.59,2.87-2.98,3.65-1.39.78-3.14,1.15-5.25,1.09Zm9.9,19.8c-.03,1.73-.11,3.11-.24,4.14-.14,1.03-.43,1.83-.89,2.41-.46.58-1.12,1.01-1.99,1.28-.87.27-2.04.5-3.53.69-.89.13-1.78.22-2.68.24s-1.79.01-2.68-.04c-.81-.03-1.51-.26-2.11-.71s-.96-1.08-1.1-1.89c-.27-1.54-.49-3.08-.67-4.62-.18-1.54-.33-3.08-.47-4.62-.05-.73.14-1.35.59-1.87.45-.51,1.02-.88,1.72-1.09,1.84-.51,3.66-.77,5.48-.77s3.64.31,5.48.93c1.54.54,2.46,1.61,2.76,3.2.13.6.22,1.15.24,1.66.03.51.05.87.08,1.05Zm-9.05-24.5c.14-.05.33-.09.57-.12.24-.03.51-.11.81-.24.65-.24,1.14-.7,1.46-1.38.33-.68.42-1.45.28-2.31-.11-.59-.38-1.09-.81-1.48-.43-.39-.99-.64-1.66-.75-1.57-.19-2.96.22-4.18,1.22-.24.22-.44.51-.59.87s-.24.71-.26,1.03c-.03.97.34,1.75,1.1,2.31.76.57,1.85.85,3.29.85Zm3.94,23.24c-.79-.19-1.4-.34-1.85-.45-.45-.11-.85-.17-1.22-.18-.37-.01-.76.01-1.18.08-.42.07-.97.17-1.64.3-.3,1.54-.39,2.72-.26,3.53.12.81.41,1.37.87,1.68.46.31,1.07.41,1.83.3.76-.11,1.64-.32,2.64-.65.13-.05.26-.14.37-.26.11-.12.26-.26.45-.43v-3.93Z"/><path d="m860.9,17.14c-1.62-.35-3.12-.51-4.5-.47-1.38.04-2.73.06-4.06.06-.59,0-1.19,0-1.79-.02-.59-.01-1.18-.09-1.74-.22-.3-.08-.57-.29-.81-.63-.24-.34-.39-.66-.45-.95-.05-.3.01-.62.2-.97s.39-.65.61-.89c.19-.22.43-.37.71-.47.28-.09.57-.17.87-.22,2.03-.3,4.04-.47,6.02-.51,1.99-.04,3.98.13,5.98.51,1.65.3,2.78.92,3.39,1.87.61.95.75,2.26.43,3.94-.05.3-.14.58-.24.85-.3.7-.36,1.35-.18,1.95.18.6.52,1.16,1.03,1.7.46.49.93.97,1.4,1.44.47.47.94.95,1.4,1.44.24.3.49.58.75.83.26.26.49.53.71.83.32.46.45.97.38,1.52-.07.55-.29.99-.67,1.32-.38.32-.78.52-1.2.59-.42.07-.85-.02-1.28-.26-.38-.22-.74-.45-1.1-.71-.35-.26-.7-.53-1.05-.83-.41-.32-.81-.67-1.22-1.03-.41-.37-.88-.78-1.42-1.24-.22.62-.41,1.18-.57,1.66-.16.49-.31.96-.45,1.42-.14.35-.25.71-.34,1.07-.1.37-.25.68-.47.95-.22.24-.5.45-.85.63-.35.18-.69.28-1.01.3-.49.03-.92-.1-1.3-.39-.38-.28-.6-.66-.65-1.12-.08-.65-.11-1.31-.08-1.99.03-.68.12-1.33.28-1.95.3-1.14.66-2.26,1.1-3.37.43-1.11.84-2.23,1.22-3.37.16-.49.31-.99.45-1.5.13-.51.3-1.11.49-1.79Zm13.06,5.88c-.78-.05-1.48-.09-2.09-.1s-1.21-.05-1.81-.1c-1-.08-1.62-.62-1.87-1.62-.11-.51-.05-.97.16-1.36.22-.39.53-.68.93-.87.62-.27,1.26-.49,1.93-.65.66-.16,1.36-.35,2.09-.57.14-.51.26-1.05.37-1.6s.26-1.1.45-1.64c.33-.89,1.03-1.37,2.11-1.42.54,0,1.03.17,1.46.51.43.34.66.79.69,1.36.13,2.25.23,4.48.28,6.69.05,2.22.11,4.44.16,6.65.03.62-.16,1.12-.55,1.5-.39.38-.85.59-1.36.65-.57.05-1.09-.11-1.56-.51-.47-.39-.76-.93-.87-1.6-.14-.81-.23-1.64-.28-2.49-.05-.85-.14-1.79-.24-2.82Zm12.82-3.37c-.11,1.16-.22,2.42-.33,3.77-.11,1.35-.24,2.73-.41,4.14-.05.51-.16,1.02-.3,1.52-.15.5-.33.98-.55,1.44-.19.43-.49.76-.89.99-.41.23-.84.25-1.3.06-.3-.14-.57-.34-.83-.61-.26-.27-.47-.55-.63-.85-.14-.24-.22-.52-.24-.83-.03-.31-.03-.62,0-.91.13-2.14.27-4.27.41-6.41.13-2.14.27-4.29.41-6.45.03-.3.07-.59.14-.87.07-.28.16-.56.26-.83.35-.97,1.01-1.46,1.99-1.46.49,0,.91.14,1.26.43s.58.66.69,1.12c.14.57.21,1.14.22,1.72.01.58.05,1.17.1,1.76.03.3.03.62.02.95s-.02.78-.02,1.32Z"/><path d="m904.34,16.17c.54.41,1.05.79,1.54,1.14.49.35.96.7,1.42,1.06.3.22.6.43.91.63.31.2.61.43.91.67.46.38.74.83.83,1.34.09.51.03,1-.18,1.46-.27.51-.69.86-1.26,1.03-.57.18-1.19.14-1.87-.1-.35-.13-.68-.3-.99-.49-.31-.19-.63-.37-.95-.53-.38-.22-.77-.43-1.18-.63-.41-.2-.85-.44-1.34-.71-.22.57-.42,1.1-.61,1.58-.19.49-.39.97-.61,1.46-.14.32-.26.66-.39,1.01-.12.35-.28.69-.47,1.01-.54.84-1.31,1.19-2.31,1.05-.46-.05-.9-.3-1.32-.73-.42-.43-.63-.91-.63-1.42,0-.38.03-.75.1-1.12s.17-.71.3-1.04c.49-1.35.99-2.68,1.5-3.97.51-1.3,1.03-2.61,1.54-3.94.13-.41.26-.82.36-1.24.11-.42.23-.84.37-1.28-.46-.3-.93-.52-1.42-.67-.49-.15-.97-.26-1.44-.34-.47-.08-.95-.13-1.44-.16-.49-.03-.96-.08-1.42-.16-.59-.08-1.18-.18-1.76-.3-.58-.12-1.14-.29-1.68-.51-.43-.16-.76-.44-.97-.83-.22-.39-.28-.85-.2-1.36.11-.49.32-.88.63-1.18.31-.3.71-.46,1.2-.49,1.79-.11,3.56-.08,5.33.08s3.51.55,5.21,1.18c2.22.81,3.21,2.45,2.96,4.91-.05.54-.15,1.08-.28,1.62-.14.54-.27,1.19-.41,1.95Zm12.17,21.66c.16-1.05.24-1.92.22-2.6-.01-.68-.18-1.22-.51-1.62-.33-.41-.83-.69-1.52-.85s-1.6-.26-2.74-.28c-.76-.03-1.51-.03-2.25,0-.74.03-1.48.01-2.21-.04-.76-.03-1.36-.22-1.81-.57-.45-.35-.71-.81-.79-1.38-.05-.54.11-1.04.49-1.5s.92-.76,1.62-.89c1.62-.3,3.25-.43,4.87-.41,1.62.03,3.25.24,4.87.65,3.19.79,4.79,2.8,4.79,6.04.03,1.19-.02,2.37-.14,3.55-.12,1.18-.26,2.36-.43,3.55-.08.59-.33,1.05-.75,1.38-.42.32-.89.47-1.4.45-.54-.03-1.01-.21-1.4-.55-.39-.34-.63-.81-.71-1.4-.08-.68-.13-1.33-.14-1.95-.01-.62-.03-1.15-.06-1.58Zm3.61-25.35c.7.08,1.33.15,1.87.2.54.05,1.07.12,1.58.2.38.05.74.14,1.1.26.35.12.69.25,1.01.38.54.24.93.61,1.18,1.1.24.49.3.97.16,1.46-.14.49-.39.85-.77,1.08-.38.23-.8.36-1.26.39-.51.03-1.03,0-1.54-.06-.51-.07-1.03-.1-1.54-.1-.3.03-.59.07-.87.14s-.6.14-.95.22c-.08.7-.16,1.39-.22,2.05-.07.66-.17,1.32-.3,1.97-.11.57-.37,1.03-.79,1.38-.42.35-.87.54-1.36.57-.51,0-.97-.18-1.38-.53s-.68-.81-.81-1.38c-.05-.13-.1-.28-.14-.43-.04-.15-.05-.29-.02-.43.05-2.24.11-4.48.18-6.69.07-2.22.16-4.45.26-6.69,0-.22.04-.43.12-.63.08-.2.19-.4.32-.59.27-.38.6-.69.99-.93.39-.24.82-.27,1.28-.08.3.14.59.34.89.61.3.27.49.55.57.85.13.49.19.99.16,1.52-.03.53-.01,1.06.04,1.6.03.35.06.72.1,1.12.04.39.09.87.14,1.44Z"/><path d="m818.62,104.29c-.68,0-1.34-.35-1.72-.97-.57-.95-.26-2.18.69-2.74,2.77-1.65,27.08-16.92,27.37-43,.01-1.1.91-1.98,2-1.98h.02c1.1.01,1.99.92,1.98,2.02-.31,28.26-26.35,44.62-29.32,46.39-.32.19-.67.28-1.02.28Z"/><path d="m818.62,104.29c-.51,0-1.01-.2-1.38-.56-.4-.38-.62-.91-.62-1.46l.11-17.35c0-1.1.9-1.99,2-1.99h.01c1.11,0,2,.91,1.99,2.01l-.09,15.24,17.05-.81c1.11-.07,2.04.8,2.09,1.9.05,1.1-.8,2.04-1.9,2.09l-19.15.91s-.06,0-.1,0Z"/><path class="cls-8" d="m363.37,691.49c-3.11,17.23.19,25.46,14.3,29.2,15.3,4.05,42,2.86,51.87,3.14,96.24,2.8,192.58,2.22,288.77-1.73,17.2-.71,50.95,1.04,49.85-15.8-1.73-26.29-13.02-35.18-37.35-43.21-14.52-4.79-15.48-4.28-30.79-4.63-54.77-1.24-109.3-8.96-164.08-8.37-41.55.45-83.2,7.72-124.7,6.89-8.15-.16-7.29,4.53-14.93,5.98-13.39,2.55-31.08,18.31-32.93,28.53Z"/><path class="cls-4" d="m369.06,435.79s288.35-6.16,382.18,0c.82,101.33,1.7,165.34,2.52,266.68-97.33-1.03-280.29,1.03-377.62,0-2.81-26.78-7.08-266.68-7.08-266.68Z"/><path d="m447.78,704.77c-26.65,0-51.15-.08-71.66-.29-1.02-.01-1.86-.78-1.97-1.79-2.78-26.56-6.91-257.05-7.09-266.85-.02-1.1.86-2.01,1.96-2.04,2.88-.06,289.51-6.09,382.35,0,1.04.07,1.86.93,1.87,1.98.41,50.72.84,92.79,1.26,133.47.42,40.61.85,82.59,1.26,133.21,0,.54-.21,1.05-.59,1.43-.38.38-.87.58-1.43.58-48.65-.52-119.89-.25-188.78,0-39.88.15-80.56.29-117.18.29Zm-69.81-4.28c48.6.49,118.93.23,186.98-.02,67.95-.25,138.18-.51,186.8-.02-.4-49.7-.83-91.1-1.24-131.16-.41-40.19-.84-81.73-1.24-131.62-90.38-5.62-352.57-.44-378.16.08.41,22.72,4.24,230.67,6.87,262.74Z"/><polygon class="cls-4" points="370.32 435.79 418.66 373.67 698.66 373.67 752.5 435.79 370.32 435.79"/><path d="m752.5,437.79h-382.18c-.76,0-1.46-.44-1.8-1.12-.33-.69-.25-1.5.22-2.11l48.34-62.12c.38-.49.96-.77,1.58-.77h280c.58,0,1.13.25,1.51.69l53.84,62.12c.51.59.63,1.43.31,2.14-.33.71-1.04,1.17-1.82,1.17Zm-378.09-4h373.71l-50.37-58.12h-278.11l-45.23,58.12Z"/><path class="cls-4" d="m773.69,141.87c-9.94-4.42-42.4-14.35-64.91,2.05-4.9,3.57-8.64,8.64-11.41,14-4.99,9.63-7.04,20.94-4.74,31.54,1.73,8,6.07,15.5,12.25,20.79-1.37,3.9-2.05,6.78-6.69,15.93,12.35-1.58,18.56-2.27,27.58-7.49,4.94.83,7.51.65,12.53.7,7.96.08,16-.09,23.77-1.84,3.46-.78,6.86-1.87,9.98-3.54,6.85-3.67,12.01-9.99,15.39-16.99,3.38-7,6.25-14.58,6.29-22.35.07-12.92-4.95-26.09-20.04-32.8Z"/><path class="cls-12" d="m698.2,228.18c-.64,0-1.26-.31-1.63-.85-.43-.6-.49-1.4-.15-2.06,3.85-7.61,4.93-10.81,5.97-13.9.06-.17.12-.34.17-.52-5.92-5.46-10.12-12.86-11.88-20.98-2.31-10.64-.56-22.32,4.92-32.89,3.28-6.34,7.33-11.28,12.01-14.7,21.57-15.72,53.2-8.35,66.9-2.26,13.78,6.12,21.32,18.43,21.23,34.64-.05,8.75-3.5,17-6.49,23.21-2.72,5.64-7.75,13.33-16.25,17.88-2.97,1.59-6.4,2.81-10.49,3.73-8,1.8-16.38,1.97-24.23,1.89-.93,0-1.77-.01-2.56-.01-3.33,0-5.79-.01-9.57-.6-8.83,4.98-15.3,5.8-26.83,7.27l-.88.11c-.08.01-.17.02-.25.02Zm41.7-91.34c-10.36,0-21.09,2.24-29.94,8.69-4.18,3.05-7.82,7.52-10.82,13.3-5.05,9.75-6.67,20.47-4.56,30.2,1.68,7.73,5.8,14.73,11.6,19.69.63.54.86,1.4.59,2.18-.21.6-.4,1.17-.6,1.74-.92,2.72-1.86,5.53-4.53,11.07,9.83-1.28,15.39-2.28,23.13-6.76.4-.23.87-.32,1.33-.24,3.86.65,6.16.65,9.62.66.8,0,1.65,0,2.59.01,8.8.1,16.13-.18,23.31-1.79,3.73-.84,6.83-1.94,9.48-3.36,7.54-4.04,12.07-10.98,14.53-16.09,2.81-5.83,6.05-13.54,6.09-21.49.06-10.27-3.17-23.99-18.86-30.96h0c-7.26-3.23-19.81-6.85-32.98-6.85Z"/><path class="cls-10" d="m514.1,425c44.46-.04,82.78-.79,124.17-1.44,27.18-.42,45.09-6.12,44.97-13.26-.3-17.69-83.44-16.89-149.62-15.15-21.2.56-88.77,3.67-88.84,16-.09,14.14,52.51,13.86,69.32,13.85Z"/><path class="cls-4" d="m494.68,343.16c-5.84,3.42-12.72,4.65-19.48,5.05-6.76.39-13.55,0-20.3.44-1.06.07-2.15.17-3.07.68-1.93,1.07-2.53,3.59-2.43,5.79.31,6.45,4.84,11.84,9.36,16.44,3.02,3.07,6.22,6.09,10.1,7.96,3.28,1.59,6.91,2.28,10.5,2.96,3.07.58,6.22,1.15,9.3.62,1.8-.31,3.51-1,5.19-1.7,4.81-2.02,9.51-4.28,14.09-6.77,1.83-.99,3.73-2.11,4.73-3.94.91-1.67.93-3.66.91-5.56-.03-3.4-.09-6.81-.19-10.21-.08-2.78-.18-5.59-.84-8.3-.46-1.87-1.18-3.66-1.9-5.45-1.08-2.69-2.99-8.13-6.28-5.95-3.47,2.3-6,5.79-9.7,7.95Z"/><path d="m483.21,385.57c-.14,0-.27-.01-.41-.04-9.7-2.04-17.25-5.28-23.11-9.92-7.34-5.82-11.85-14.17-12.06-22.32-.03-1.24.05-2.85.95-4.22,1.79-2.7,4.91-2.25,7.19-1.91.66.1,1.27.19,1.83.21,18.62.86,31.68-.79,43.36-11.79.81-.76,2.07-.72,2.83.08.76.8.72,2.07-.08,2.83-12.66,11.92-27.1,13.76-46.29,12.87-.75-.04-1.5-.15-2.22-.25-1.74-.26-2.91-.38-3.26.16-.29.44-.31,1.26-.29,1.91.18,6.98,4.12,14.19,10.54,19.29,5.35,4.25,12.37,7.24,21.44,9.14,1.08.23,1.77,1.29,1.55,2.37-.2.94-1.03,1.59-1.96,1.59Z"/><path class="cls-4" d="m502.58,338.8c-1.1,10.58-5.67,20.04-6.75,22.6-3.26,7.75-7.73,13.98-12.2,21.01-4.48,7.03-6.38,17.56-.53,23.35,4.01,3.97,10.11,4.16,15.57,3.71,10.78-.88,21.53-3.12,31.57-7.32,19.84-8.28,32.37-19.95,45.69-21.83,13.32-1.89,18.16,5.71,28.25,18.09,10.32,12.65,25.66,7.9,30.58,4.99,11.92-7.07,13.53-33.14,10.88-65.52"/><path d="m494.91,411.65c-4.61,0-9.58-.87-13.21-4.46-6.53-6.46-4.82-17.89.24-25.85.85-1.34,1.7-2.65,2.55-3.94,3.56-5.48,6.93-10.65,9.5-16.77.12-.27.27-.63.46-1.05,1.55-3.54,5.19-11.82,6.15-20.98.11-1.1,1.1-1.91,2.2-1.78,1.1.11,1.9,1.1,1.78,2.2-1.02,9.79-4.83,18.47-6.46,22.18-.18.4-.32.73-.43.99-2.71,6.45-6.17,11.77-9.83,17.4-.84,1.29-1.68,2.58-2.53,3.91-4.1,6.44-5.77,15.94-.81,20.86,3.55,3.51,9.35,3.52,14,3.14,11.37-.93,21.79-3.34,30.96-7.17,8.36-3.49,15.51-7.65,21.82-11.32,8.77-5.1,16.34-9.51,24.36-10.64,13.37-1.9,19.09,5.19,27.75,15.92.75.93,1.53,1.89,2.33,2.88,9.49,11.63,23.76,7.05,28.01,4.53,9.57-5.67,12.9-27.08,9.91-63.64-.09-1.1.73-2.07,1.83-2.16,1.11-.09,2.07.73,2.16,1.83,3.21,39.29-.55,60.7-11.86,67.4-5.02,2.97-21.88,8.36-33.15-5.45-.81-1-1.59-1.97-2.35-2.9-8.62-10.68-12.94-16.05-24.07-14.47-7.24,1.03-14.5,5.25-22.91,10.14-6.42,3.74-13.7,7.97-22.29,11.56-9.56,3.99-20.39,6.5-32.18,7.46-1.25.1-2.58.18-3.93.18Z"/><path class="cls-4" d="m573.8,303.26c4.81,5.58,9.64,11.18,15.23,15.99,7.87-11.74,15.4-24.3,17.22-38.32-.12.96-26.3,1.66-28.91,1.8-4.97.26-9.94.5-14.91.72-1.88.08-4.8-.62-4.44,1.48.26,1.52,3.72,4.31,4.76,5.52,3.68,4.27,7.37,8.54,11.05,12.81Z"/><path class="cls-13" d="m527.13,288.13c-2.48.09-4.97.15-7.45.18-1.84.87-1.58,3.5-2.15,5.67-2.36,9.11-11.58,27.2-19.04,32.94.53,3.36-.35,15.67-1.41,24.34-.52,4.25,2.7,8.04,6.98,8.19,8.08.28,19.08.57,19.35,1.09.98,1.88,3.52,2.14,5.64,2.16,17.1.13,34.53.21,50.84-4.93,3.15-.99,6.28-2.2,8.96-4.12,2.68-1.92,4.91-4.63,5.72-7.84.62-2.49.36-5.11.09-7.66-.49-4.69-.98-9.38-1.48-14.07-.1-.97-.21-1.96-.56-2.87-.44-1.14-1.25-2.09-2.06-3.01-6.04-6.9-12.65-13.29-19.75-19.09-4.02-3.28-8.24-6.43-11.35-10.58-.41-.55-.82-1.13-1.43-1.43-.6-.3-1.3-.29-1.97-.27-5.34.15-10.79.43-16.31.72-3.86.25-7.72.47-11.59.59-.31,0-.67,0-1.05-.02Z"/><path class="cls-13" d="m592.42,312.86c-2.47,7.75-.68,16.06,1.64,23.88.89,3.01,1.88,6.04,3.73,8.69,1.85,2.65,4.7,4.9,8.13,5.55,1.79.34,3.63.23,5.45.11,8.92-.6,23.4-1.43,32.23-2.71.66-.1,1.41-.25,1.72-.77.24-.41,3.08-1.19,2.98-1.64-.85-3.82-3.41-31.78-4.48-34.07-1.06-2.28-13.1-13.17-14.03-16.54-1.61-5.8-4.14-9.38-5.74-15.19-2.69.64-5.42,1.15-8.17,1.55-1.99.29-5.89-.04-7.56.9-2.47,1.39-2.48,6.53-3.6,8.91-3.48,7.39-9.8,13.54-12.29,21.34Z"/><path class="cls-12" d="m591.33,319.22c-.48,0-.96-.18-1.32-.5-14.95-13.19-31.23-29.01-31.39-29.17-.79-.77-.81-2.04-.04-2.83.77-.79,2.04-.81,2.83-.04.16.15,15.07,14.65,29.41,27.41,3.47-6.15,13.33-24,15.57-32.01.3-1.06,1.4-1.69,2.46-1.39,1.06.3,1.69,1.4,1.39,2.46-2.85,10.21-16.59,34.06-17.17,35.07-.3.52-.82.88-1.41.97-.11.02-.22.03-.32.03Z"/><path class="cls-12" d="m608.92,353.49c-6.61,0-14.12-4.14-16.31-13.79-.25-1.08.43-2.15,1.51-2.39,1.08-.25,2.15.43,2.39,1.51,1.84,8.08,8.12,11.16,13.55,10.62,9.88-.98,29.8-3.17,36.06-3.85-.84-10.84-1.94-22.17-4.1-32.55-3.12-2.47-16.58-14.06-19.16-31.82-.16-1.09.6-2.11,1.69-2.27,1.1-.15,2.11.6,2.27,1.69,2.62,18.05,18.03,29.53,18.19,29.65.4.29.67.72.77,1.2,2.43,11.42,3.59,23.92,4.47,35.73.08,1.07-.7,2.02-1.77,2.14-.26.03-26.25,2.91-38.03,4.07-.5.05-1.01.07-1.52.07Z"/><path class="cls-12" d="m538.83,346.06c-1.05,0-1.93-.81-1.99-1.88-.07-1.1.77-2.05,1.87-2.12,5.61-.35,16.38-1.23,25.53-3.12,1.08-.22,2.14.47,2.36,1.55.22,1.08-.47,2.14-1.55,2.36-9.38,1.94-20.37,2.83-26.09,3.19-.04,0-.08,0-.13,0Z"/><path class="cls-12" d="m618.17,336.71c-1,0-1.86-.74-1.98-1.76-.13-1.1.65-2.09,1.74-2.23,1.67-.21,4.42-.4,7.59-.62,4.84-.34,10.86-.77,13.38-1.31,1.08-.23,2.14.45,2.38,1.53.23,1.08-.45,2.14-1.53,2.38-2.79.6-8.71,1.02-13.94,1.39-2.99.21-5.82.41-7.39.6-.08,0-.17.01-.25.01Z"/><path class="cls-12" d="m549.34,332.45c-4.95,0-9.02-1.59-12.12-4.75-4.38-4.45-5.48-10.94-5.33-13.39.06-.99.83-1.78,1.82-1.87,9.52-.86,19.19-1.66,28.76-2.38,1.09-.09,2.05.74,2.14,1.83.2,2.43.48,10.76-4.2,16.06-2.45,2.78-5.81,4.28-10,4.47-.36.02-.71.02-1.07.02Zm-13.34-16.2c.34,2.29,1.45,5.98,4.08,8.65,2.49,2.53,5.9,3.71,10.16,3.53,3.1-.14,5.45-1.16,7.18-3.12,2.82-3.2,3.28-8.22,3.28-11.1-8.22.63-16.51,1.31-24.69,2.04Z"/><path class="cls-12" d="m638.8,275.78c-.89,0-1.71-.6-1.94-1.51-.27-1.07.38-2.16,1.45-2.43,4.75-1.21,10.86-2.91,16.78-4.55,5.94-1.65,12.08-3.36,16.87-4.57,2.3-.58,6.58-1.67,9.81.63,3.37,2.41,3.67,7.26,2.01,10.56-.5.99-1.7,1.39-2.68.89-.99-.5-1.39-1.7-.89-2.68.89-1.76.79-4.4-.76-5.51-1.58-1.13-4.18-.59-6.5,0-4.75,1.21-10.86,2.91-16.78,4.55-5.94,1.65-12.08,3.36-16.87,4.57-.17.04-.33.06-.49.06Z"/><path class="cls-12" d="m540.39,364.21c-3.7,0-7.51-.12-11.41-.39-9.81-.68-19.98-1.57-26.79-2.2-4.71-.43-8.25-4.62-7.91-9.34.98-13.48,2.2-25.44,2.22-25.56.05-.49.28-.94.64-1.27,7.16-6.59,18.46-25.88,20.2-36.59.18-1.09,1.21-1.83,2.29-1.65,1.09.18,1.83,1.21,1.65,2.29-1.89,11.65-13.06,30.75-20.88,38.36-.28,2.8-1.29,13.2-2.13,24.71-.19,2.56,1.74,4.83,4.29,5.07,6.78.62,16.92,1.51,26.7,2.19,25.67,1.78,47.64-2.96,56.15-6.58,5.6-2.38,7.13-8.71,6.7-13.85-1.1-13.17-2.65-22.94-2.66-23.03-.17-1.09.57-2.12,1.66-2.29,1.08-.18,2.12.57,2.29,1.66.02.1,1.59,10.01,2.7,23.33.54,6.53-1.57,14.64-9.12,17.86-7.55,3.21-25.2,7.28-46.58,7.28Z"/><path class="cls-12" d="m643.81,313.89c-.82,0-1.58-.5-1.88-1.32-.38-1.04.16-2.19,1.19-2.56.21-.08,20.86-7.68,45.06-23.06.93-.59,2.17-.32,2.76.62.59.93.32,2.17-.62,2.76-24.58,15.62-45.62,23.37-45.83,23.44-.23.08-.46.12-.68.12Z"/><path class="cls-12" d="m506,133.73l-25.96-3.36c-9.8-1.27-18.31,6.88-17.75,16.99l1.72,28.4"/><path class="cls-12" d="m464.01,177.76c-1.05,0-1.93-.82-1.99-1.88l-1.72-28.4c-.31-5.52,1.8-10.8,5.79-14.51,3.85-3.58,9.03-5.25,14.21-4.58l25.96,3.36c1.1.14,1.87,1.15,1.73,2.24-.14,1.1-1.15,1.87-2.24,1.73l-25.96-3.36c-3.99-.52-7.99.78-10.97,3.55-3.12,2.9-4.76,7.03-4.52,11.35l1.72,28.4c.07,1.1-.77,2.05-1.88,2.12-.04,0-.08,0-.12,0Z"/><path class="cls-12" d="m562.71,125.11l-18.25-14.89c-7.73-6.31-20.2-5.45-27.21,5.52l-11.76,22.85"/><path class="cls-12" d="m505.49,140.59c-.31,0-.62-.07-.91-.22-.98-.5-1.37-1.71-.86-2.69l11.76-22.85c.03-.06.06-.11.09-.16,3.57-5.59,8.8-9.19,14.71-10.14,5.51-.88,11.14.63,15.45,4.15l18.25,14.89c.86.7.98,1.96.29,2.81-.7.86-1.96.98-2.81.29l-18.25-14.89c-3.43-2.8-7.91-4-12.29-3.3-4.75.76-8.98,3.69-11.93,8.26l-11.71,22.76c-.35.69-1.05,1.08-1.78,1.08Z"/><path class="cls-12" d="m464.68,172.03l-22.66,13.37c-8.55,5.05-10.54,16.82-4.14,24.54l18.09,21.61"/><path class="cls-12" d="m455.98,233.56c-.57,0-1.14-.24-1.53-.72l-18.09-21.61c-3.46-4.17-4.9-9.63-3.96-14.99.92-5.29,4.06-9.87,8.61-12.55l22.66-13.37c.95-.56,2.18-.25,2.74.71s.25,2.18-.71,2.74l-22.66,13.37c-3.54,2.09-5.99,5.66-6.71,9.8-.73,4.21.39,8.49,3.09,11.74l18.09,21.6c.71.85.6,2.11-.25,2.82-.38.31-.83.47-1.28.47Z"/><path class="cls-4" d="m661.09,222.65c-3.48-34.36-33.71-34.6-33.71-34.6,0,0,1.22-59.15-51.92-63.27-25.08-1.94-48.72-3.39-82.65,19.53-45.13,30.48-38.13,102.61-38.13,102.61,1.8,16.61,10.61,30.33,25.82,37.59,14.73,7.03,31.13,8.38,47.56,8.16,2.32-.03,4.65-.09,6.97-.17.36.02.7.03.99.02,3.62-.12,7.23-.32,10.84-.55,1.77-.12,3.55-.22,5.32-.36,66.03-5.1,79.21-4.7,94.88-18.2,19.4-16.71,14.04-50.76,14.04-50.76Z"/><ellipse class="cls-5" cx="502.63" cy="214.89" rx="18.47" ry="12.76" transform="translate(-6.08 14.82) rotate(-1.68)"/><path class="cls-5" d="m502.22,229.65c-10.88,0-19.79-6.2-20.05-14.12-.11-3.14,1.12-6.18,3.55-8.77,3.69-3.94,9.83-6.42,16.41-6.62,11.29-.36,20.68,5.97,20.96,14.1.11,3.14-1.12,6.18-3.55,8.78-3.69,3.94-9.83,6.42-16.41,6.62-.3,0-.6.01-.9.01Zm.84-25.53c-.27,0-.53,0-.8.01-5.55.17-10.64,2.18-13.62,5.36-1.69,1.8-2.55,3.85-2.48,5.9.2,5.93,7.76,10.53,16.84,10.24,5.55-.17,10.64-2.18,13.62-5.36,1.69-1.8,2.55-3.85,2.48-5.9-.2-5.76-7.31-10.25-16.03-10.25Z"/><ellipse class="cls-5" cx="640.74" cy="208.92" rx="12.58" ry="9.39" transform="translate(-5.85 18.87) rotate(-1.68)"/><path class="cls-5" d="m640.52,220.31c-7.77,0-14.15-4.81-14.35-10.92-.09-2.58.89-5.04,2.84-7.12,2.68-2.86,6.82-4.58,11.35-4.73,8.04-.23,14.74,4.64,14.95,10.91.09,2.58-.9,5.04-2.84,7.12-2.68,2.86-6.82,4.58-11.35,4.73-.2,0-.4,0-.6,0Zm.43-18.78c-.15,0-.31,0-.46,0-3.43.11-6.63,1.4-8.56,3.46-.84.9-1.82,2.36-1.76,4.25.14,4.07,5.01,7.23,10.83,7.05,3.43-.11,6.63-1.4,8.56-3.46.84-.9,1.83-2.36,1.76-4.25-.13-3.9-4.83-7.06-10.36-7.06Z"/><path class="cls-12" d="m516.1,294.6c-.96,0-1.5,0-1.56,0-18.3-.82-33.66-6.33-44.52-15.93-10.51-9.3-16.65-22.23-17.75-37.37-.23-2.01-5.5-51.49,23.01-84.39,12.65-14.6,32.55-26.15,54.61-31.69,23.4-5.88,47.3-4.65,67.31,3.45,13.55,5.48,23.41,17.54,28.52,34.87,2.94,9.98,3.52,18.91,3.63,22.68,5.32.65,20.15,3.96,28.5,20.96,2.91,5.91,4.72,12.96,5.4,20.95.03.27.71,7.42-.45,16.48-1.56,12.14-5.76,21.88-12.15,28.15-7.06,6.93-14.67,12.11-28.85,14.83-35.12,6.74-95.28,7.04-105.72,7.04Zm43.1-169.11c-32.52,0-64.18,14.74-80.9,34.03-27.37,31.59-22.1,80.91-22.05,81.4,2.15,29.59,23.97,48.13,58.38,49.68.6,0,68.45.32,106.42-6.96,13.19-2.53,20.25-7.33,26.8-13.75,13.97-13.71,11.44-41.13,11.41-41.41-.64-7.52-2.32-14.09-5.01-19.55-8.99-18.28-26.2-18.86-26.93-18.88-1.1-.02-1.98-.93-1.96-2.03,0-.43.37-43.49-29.67-55.64-11.78-4.77-24.2-6.88-36.5-6.88Z"/><path class="cls-7" d="m575.39,186.82c-3.62,0-7.23-.04-10.82-.11l.09-4c7.53.16,15.18.15,22.76-.03l.09,4c-4.03.1-8.08.14-12.12.14Z"/><path class="cls-12" d="m585.65,173.61c-3.25.24-5.66,3.18-5.17,6.41.82,5.43,2.31,10.72,5.91,14.73,5.69,6.33,15.28,7.66,23.65,6.12,2.8-.51,5.57-1.31,8.07-2.67,7.84-4.26,11.62-13.79,10.7-22.72-.32-3.08-3.07-5.31-6.15-5.02-12.38,1.2-24.62,2.25-37.02,3.15Z"/><path class="cls-4" d="m619.38,187.5c-.37,0-.74-.1-1.07-.31l-12.26-7.75c-.93-.59-1.21-1.83-.62-2.76.59-.93,1.82-1.21,2.76-.62l12.26,7.75c.93.59,1.21,1.83.62,2.76-.38.6-1.03.93-1.69.93Z"/><path class="cls-4" d="m609.41,194.03c-.37,0-.73-.1-1.07-.31l-16.59-10.49c-.93-.59-1.21-1.83-.62-2.76.59-.93,1.82-1.21,2.76-.62l16.59,10.49c.93.59,1.21,1.83.62,2.76-.38.6-1.03.93-1.69.93Z"/><path class="cls-12" d="m526.79,175.07c-3.26.02-5.86,2.79-5.59,6.04.45,5.47,1.57,10.85,4.9,15.09,5.25,6.7,14.72,8.67,23.18,7.71,2.83-.32,5.65-.93,8.23-2.11,8.11-3.72,12.53-12.97,12.22-21.95-.11-3.09-2.7-5.51-5.79-5.42-12.43.35-24.72.58-37.15.64Z"/><path class="cls-4" d="m559.63,191.22c-.41,0-.82-.12-1.18-.39l-11.71-8.56c-.89-.65-1.09-1.9-.44-2.79.65-.89,1.9-1.09,2.79-.44l11.71,8.56c.89.65,1.09,1.9.43,2.79-.39.54-1,.82-1.62.82Z"/><path class="cls-4" d="m549.25,197.07c-.41,0-.82-.12-1.18-.39l-15.85-11.58c-.89-.65-1.09-1.9-.43-2.79.65-.89,1.9-1.09,2.79-.43l15.85,11.58c.89.65,1.09,1.9.43,2.79-.39.54-1,.82-1.62.82Z"/><path class="cls-7" d="m545.15,206.15c-8.72,0-16.24-3.12-20.62-8.71-3.95-5.04-4.92-11.28-5.32-16.16-.17-2.09.54-4.17,1.96-5.72,1.44-1.57,3.48-2.47,5.61-2.49h0c11.96-.06,24.1-.27,37.1-.64,4.22-.1,7.7,3.18,7.85,7.35.36,10.42-5.01,20-13.38,23.83-2.49,1.14-5.38,1.89-8.84,2.28-1.48.17-2.93.25-4.36.25Zm-18.35-29.08h0c-1.02,0-2,.44-2.68,1.19-.68.74-1.01,1.7-.93,2.69.53,6.42,1.91,10.75,4.48,14.02,4.24,5.4,12.23,8,21.38,6.95,3.04-.35,5.53-.98,7.63-1.95,6.92-3.17,11.36-11.23,11.05-20.06-.07-1.95-1.69-3.49-3.63-3.49-.03,0-.07,0-.1,0-13.03.37-25.2.58-37.19.64Z"/><path class="cls-7" d="m603.71,203.19c-8.08,0-15.1-2.78-19.45-7.86-4.16-4.86-5.39-11.06-6-15.92-.26-2.08.36-4.19,1.72-5.8,1.37-1.63,3.38-2.62,5.5-2.72h0c11.94-.57,24.05-1.29,37.04-2.21,4.17-.29,7.83,2.85,8.16,7.01.81,10.39-4.16,20.19-12.36,24.38-2.44,1.25-5.3,2.12-8.74,2.66-2,.32-3.96.47-5.86.47Zm-18.04-28.31h0c-1.02.05-1.98.52-2.63,1.3-.65.77-.93,1.74-.81,2.72.8,6.4,2.37,10.66,5.07,13.82,4.46,5.22,12.55,7.47,21.65,6.04,3.02-.47,5.48-1.22,7.54-2.27,6.78-3.46,10.87-11.71,10.19-20.51-.15-1.98-1.9-3.46-3.88-3.33-13.01.92-25.16,1.65-37.13,2.22Z"/><path class="cls-12" d="m527.9,230.53c-.22,0-.46-.02-.71-.08-.85-.2-1.4-.74-1.66-1-2.68-2.64-4.41-8.53-5.02-10.94-.27-1.07.37-2.16,1.44-2.43,1.08-.28,2.16.37,2.43,1.44,1.03,4.03,2.5,7.47,3.79,8.91,3.83-1.32,7.11-3.94,9.03-7.2.56-.95,1.78-1.27,2.74-.71.95.56,1.27,1.79.71,2.74-2.44,4.14-6.6,7.44-11.42,9.04-.27.09-.74.25-1.33.25Z"/><path class="cls-12" d="m565.41,221.28c-30.27,0-50.65-5.05-54.96-6.22-1.07-.29-1.7-1.39-1.41-2.45.29-1.07,1.39-1.7,2.45-1.41,4.95,1.34,31.61,7.93,70.34,5.58,26.57-1.61,46.63-8.19,57.41-11.72l.12-.04c1.05-.35,2.18.23,2.52,1.28.34,1.05-.23,2.18-1.28,2.52l-.12.04c-10.95,3.59-31.33,10.27-58.41,11.91-5.83.35-11.41.51-16.68.51Z"/><path class="cls-12" d="m622.56,225.91c-.55,0-1-.15-1.25-.23-3.71-1.24-8.7-5.24-10.88-8.05-.67-.87-.51-2.13.36-2.8.87-.68,2.13-.51,2.8.36,1.68,2.18,5.83,5.5,8.66,6.59,2.27-2.52,3.54-7.34,3.58-10.72.01-1.1.91-1.98,2-1.98h.03c1.1.01,1.99.92,1.98,2.02-.05,4.26-1.63,10.37-4.98,13.74-.25.25-.82.82-1.71,1.01-.2.04-.4.06-.59.06Z"/><path class="cls-13" d="m701.58,305.38c.09,1.71.13,3.53-.81,4.93-.76,1.12-2.04,1.79-3.28,2.38-9.38,4.53-19.39,6.44-29.74,8.57-1.3.27-2.73.5-3.94-.13-1.01-.53-1.88-1.46-2.18-2.52-3.79-13.57-4.63-19.58-5.94-30.55-1.39-11.62-3.77-25.05-4.88-37.45-.12-1.36-.22-2.83.5-3.97.79-1.25,2.36-1.77,3.82-2.18,8.08-2.27,16.4-3.71,24.72-5.16,3.13-.54,6.49-1.07,9.49.2,5.24,2.21,6.35,22.11,7.52,28.04,2.47,12.53,4.05,25.19,4.71,37.84Z"/><path class="cls-12" d="m665.63,323.54c-.91,0-1.84-.16-2.74-.63-1.56-.81-2.75-2.22-3.18-3.76-3.86-13.78-4.71-20.06-6-30.85-.54-4.55-1.23-9.3-1.96-14.33-1.11-7.67-2.25-15.6-2.93-23.18-.12-1.38-.31-3.46.8-5.21,1.16-1.84,3.18-2.53,4.97-3.04,8.18-2.29,16.69-3.77,24.92-5.2,2.94-.51,6.96-1.21,10.61.33,4.75,2,6.39,12.01,7.91,23.91.3,2.32.55,4.32.8,5.58,2.48,12.6,4.08,25.43,4.75,38.13h0c.09,1.64.22,4.13-1.14,6.15-1.02,1.51-2.57,2.34-4.07,3.07-9.13,4.41-18.61,6.35-28.64,8.41l-1.57.32c-.79.16-1.65.31-2.53.31Zm19.4-82.82c-1.66,0-3.35.29-4.83.55-8.13,1.41-16.53,2.87-24.52,5.11-1.08.3-2.27.68-2.67,1.32-.39.61-.28,1.83-.2,2.72.67,7.47,1.8,15.35,2.9,22.96.73,5.06,1.42,9.83,1.97,14.43,1.3,10.88,2.09,16.72,5.88,30.25.13.47.6.99,1.17,1.29.61.32,1.63.15,2.62-.05l1.57-.32c9.78-2,19.02-3.9,27.7-8.09,1.05-.51,2.03-1.02,2.49-1.7.57-.84.55-2.23.47-3.7h0c-.66-12.51-2.23-25.15-4.68-37.56-.27-1.39-.54-3.46-.84-5.85-.74-5.82-2.48-19.46-5.49-20.73-1.09-.46-2.31-.62-3.54-.62Z"/><path class="cls-12" d="m679.89,244.42c-.13.29-.26.59-.49.81-.3.28-.74.37-1.15.46-3.97.83-7.95,1.62-11.95,2.36-.6.11-1.21.22-1.81.07-.63-.16-1.17-.59-1.66-1.02-1.12-.98-2.16-2.05-3.1-3.19,4.41-.9,8.86-1.65,13.34-2.25,2.16-.29,4.61-2.35,6.81-2.36,2.62-.01.76,3.41.03,5.12Z"/><g id="LOGO_WH"><g id="__1"><g class="cls-2"><polygon class="cls-4" points="667.4 275.79 667.28 277.49 668.23 277.35 667.14 279.54 669.6 279.19 670.29 277.37 670.66 279.03 673.11 278.68 672.3 276.77 673.25 276.63 673.37 274.93 667.4 275.79"/><path class="cls-4" d="m669.25,281.99l.05-.8,4.2-.6-.05.8-4.2.6Zm-2.14-1.97l-.25,3.8,8.77-1.26.25-3.8-8.77,1.26Z"/><polygon class="cls-4" points="673.88 274.85 673.62 278.61 675.92 278.28 676.17 274.52 673.88 274.85"/><polygon class="cls-4" points="677.58 274.32 676.14 282.49 677.93 282.23 679.38 274.06 677.58 274.32"/><polygon class="cls-4" points="679.89 273.99 678.44 282.16 680.17 281.91 680.81 277.05 680.8 281.82 682.43 281.59 682.3 273.64 679.89 273.99"/><polygon class="cls-4" points="683.3 273.5 682.77 281.54 685.06 281.21 685.25 278.32 686.32 278.17 686.46 276.03 685.39 276.18 685.59 273.17 683.3 273.5"/></g></g></g><path class="cls-4" d="m704.58,257.24c-4.1-1.72-9.5.67-12.2,4.26-2.7,3.59-3.31,7.99-3.55,12.18-.23,4.14-.18,8.34,1.06,12.24,1.24,3.9,3.77,7.51,7.64,9.5,3.87,1.99,9.16,2.12,13.11-.28,1.26-.76,2.38-1.8,2.92-3.06.49-1.15.45-2.4.38-3.59-.43-6.81-1.53-27.95-9.37-31.24Z"/><path class="cls-12" d="m703.9,298.91c-2.52,0-5.05-.57-7.28-1.72-4.04-2.08-7.1-5.87-8.63-10.67-1.41-4.44-1.38-9.04-1.16-12.96.24-4.29.9-9.22,3.95-13.27,3.09-4.11,9.38-7.07,14.57-4.9h0c7.78,3.26,9.73,19.01,10.55,32.38l.04.58c.09,1.43.12,2.96-.53,4.5-.65,1.52-1.93,2.9-3.72,3.99-2.27,1.38-5.01,2.07-7.78,2.07Zm-2.29-40.24c-2.83,0-5.95,1.79-7.64,4.03-2.4,3.18-2.93,7.21-3.15,11.09-.2,3.55-.24,7.7.97,11.52,1.2,3.78,3.56,6.74,6.65,8.33,3.5,1.8,7.98,1.72,11.16-.21,1.05-.64,1.8-1.4,2.12-2.13.32-.74.29-1.69.22-2.68l-.04-.58c-1.08-17.4-3.81-27.14-8.11-28.94-.69-.29-1.43-.42-2.19-.42Z"/><path class="cls-4" d="m652.37,292.11c1.49.76,3.19,1.27,4.84,1,2.2-.35,4.01-2.06,4.96-4.07s1.17-4.29,1.15-6.52c-.04-7.13-6.76-20.19-15.48-13.53-7.92,6.04-2.96,19.33,4.53,23.12Z"/><path class="cls-12" d="m656.31,295.18c-1.52,0-3.15-.43-4.84-1.29,0,0,0,0,0,0-5.07-2.57-9.01-8.68-9.58-14.88-.44-4.82,1.24-8.94,4.75-11.62,4.05-3.09,7.55-2.44,9.77-1.35,5.78,2.84,8.9,11.38,8.93,16.46.01,1.93-.12,4.79-1.35,7.39-1.34,2.82-3.75,4.76-6.45,5.19-.4.06-.8.1-1.22.1Zm-3.04-4.86c1.39.7,2.61.98,3.62.81,1.38-.22,2.71-1.35,3.47-2.96.68-1.43.98-3.17.96-5.65-.03-4.45-2.96-11.05-6.69-12.89-1.78-.87-3.6-.57-5.58.94-3.04,2.32-3.41,5.67-3.19,8.07.44,4.74,3.62,9.76,7.41,11.67h0Z"/><path class="cls-14" d="m371.96,288.01c-.21,20.94-.42,42.85-1.61,60.33-.09,1.32,6.66,20.07,59.51,10.24,39.09-7.27,64.29-8.43,89.4-3.15-2.53-22.46-6.82-44.72-12.84-66.55-26.38,1.78-52.74,4.11-79.03,6.96-6.52.71-13.09,1.45-19.61.97-6.35-.47-12.47-2.1-18.39-4.06-.85-.28-17.46-4.48-17.42-4.74Z"/><path d="m400.87,362.9c-12.07,0-22.92-1.78-28.65-7.04-3.75-3.45-3.71-6.97-3.67-7.64,1.18-17.29,1.4-38.86,1.6-59.74-.03-.2-.02-.43.02-.7.12-.94.95-1.63,1.91-1.56.28.02.55.1.78.24,1.24.44,8.48,2.33,12.42,3.35,3.22.84,4.37,1.14,4.67,1.24,4.81,1.58,11.19,3.47,17.96,3.97,6.21.46,12.63-.24,18.85-.92l.43-.05c26.2-2.85,52.81-5.19,79.11-6.97.86-.06,1.63.49,1.86,1.32,6.02,21.86,10.36,44.34,12.89,66.83.06.57-.15,1.14-.58,1.53-.43.39-1.02.55-1.58.43-24.35-5.12-48.02-3.05-88.76,3.17-9.21,1.41-19.62,2.54-29.26,2.54Zm-27.13-72.44c-.2,20.32-.45,41.14-1.59,58,0,.09-.13,2.32,2.51,4.75,4.17,3.84,16.86,9.41,54.92,3.59,39.83-6.09,63.57-8.23,87.6-3.63-2.49-20.99-6.56-41.97-12.11-62.4-25.76,1.76-51.83,4.07-77.49,6.86l-.43.05c-6.38.69-12.97,1.41-19.5.93-7.16-.53-13.82-2.49-18.82-4.14-.28-.09-2.3-.62-4.45-1.17-2.59-.68-5.82-1.52-8.4-2.21-.86-.23-1.6-.43-2.24-.61Zm0-2.76c.02.1.03.21.02.32v.03c0-.12,0-.24-.02-.35Z"/><path class="cls-14" d="m378.82,283c-.21,20.94-.42,42.85-1.61,60.33-.09,1.32,21.55,17.4,59.51,10.24,39.07-7.37,64.29-8.43,89.4-3.15-2.53-22.46-6.82-44.72-12.84-66.55-26.38,1.78-52.74,4.11-79.03,6.96-6.52.71-13.09,1.45-19.61.97-6.35-.47-12.47-2.1-18.39-4.06-.85-.28-17.46-4.48-17.42-4.74Z"/><path d="m411.33,355.94c-20.91,0-30.04-5.71-33.45-8.79-1.17-1.06-2.55-2.61-2.46-3.93,1.17-17.28,1.39-38.83,1.6-59.69-.03-.22-.02-.46.02-.76.12-.94.98-1.63,1.91-1.56.28.02.54.1.78.24,1.25.44,8.49,2.33,12.44,3.36,3.2.83,4.35,1.13,4.65,1.23,7.14,2.35,12.68,3.58,17.96,3.97,6.2.46,12.62-.24,18.84-.92l.45-.05c26.23-2.85,52.84-5.19,79.11-6.97.84-.05,1.63.49,1.86,1.32,6.02,21.86,10.36,44.34,12.89,66.83.06.57-.15,1.14-.58,1.53-.43.39-1.02.55-1.58.43-25.1-5.28-42.85-6.26-87.85,1.3-10.47,1.76-19.25,2.46-26.57,2.46Zm-32.29-12.88c1.1,1.51,12.33,14.59,58.26,6.87,44.11-7.41,62.43-6.7,86.75-1.78-2.49-20.99-6.56-41.96-12.11-62.39-25.74,1.76-51.8,4.07-77.49,6.86l-.45.05c-6.37.69-12.96,1.41-19.49.93-7.16-.53-13.82-2.49-18.82-4.14-.27-.09-2.29-.61-4.43-1.17-2.59-.67-5.83-1.52-8.41-2.21-.87-.23-1.61-.43-2.25-.61-.2,20.15-.44,40.81-1.56,57.6Zm1.56-60.36c.02.11.03.22.03.33v.03c0-.12,0-.24-.03-.36Z"/><path class="cls-14" d="m521.44,269.73c-24.59.41-44.2,5.11-68.57,8.42-24.37,3.32-45.84,4.25-69.39-2.87.76,21.46.44,42.32-1.1,63.74,1.52,1.98,4.13,2.75,6.56,3.32,4.47,1.05,8.95,2.09,13.49,2.81,24.28,3.87,45.15-1.24,69.42-5.17,4.87-.79,25.99-4.29,56.59,4.22-.62-.78.24-51.96-7.01-74.48Z"/><path class="cls-11" d="m505.45,280.02c-.54,4.48,3.61,12.93,9.63,13.62,1.04,11.23,1.31,19.92,1.39,31.19-3.39-.01-7.29,3.01-8,7.71-15.51-4.02-26.87-1.55-42.6,1.48-23.55,4.54-42.97,6.46-66.72,3.14.23-5.11-4.27-7.81-7.59-8.89,1.14-10.25.55-21.25,1.69-31.5,6.83-.18,8.95-5.97,7.93-9.4,29.55,3.49,51.81-.69,80.59-5.44,7.39-1.22,16.29-3.16,23.68-1.92Z"/><path d="m422.62,340.63c-7.58,0-15.39-.51-23.7-1.67-.92-.13-1.59-.94-1.55-1.86.2-4.47-4.38-6.45-6.35-7.1-.81-.26-1.33-1.06-1.23-1.91.56-5.05.7-10.42.83-15.6.14-5.26.28-10.7.85-15.9.1-.89.84-1.58,1.74-1.6,2.35-.06,4.19-.92,5.32-2.48,1.13-1.56,1.28-3.44.93-4.61-.17-.58-.04-1.21.35-1.67.39-.46.99-.71,1.59-.63,27.72,3.27,48.82-.24,75.54-4.68l4.55-.75c.99-.16,2.01-.34,3.04-.52,6.81-1.18,14.53-2.52,21.23-1.4.95.16,1.6,1.04,1.49,1.99-.23,1.91.74,5.48,2.98,8.33,1.07,1.36,2.82,3.03,5.07,3.29.85.1,1.51.77,1.59,1.62,1.06,11.49,1.32,20.2,1.4,31.35,0,.48-.19.94-.53,1.28-.34.34-.8.53-1.27.53,0,0-.02,0-.02,0-2.54,0-5.63,2.48-6.19,6.18-.08.5-.36.95-.79,1.23s-.95.37-1.44.24c-14.52-3.77-25.22-1.7-40.03,1.17l-1.78.34c-14.98,2.89-28.85,4.83-43.6,4.83Zm-21.72-5.04c23.35,3.06,42.78.89,64.65-3.33l1.78-.34c14.12-2.73,25.39-4.91,39.83-1.56,1.27-3.89,4.39-6.41,7.51-7.13-.09-9.87-.35-17.93-1.25-28.11-2.2-.63-4.26-2.11-6.02-4.34-2.13-2.7-3.55-6.25-3.76-9.2-5.78-.61-12.51.56-18.5,1.6-1.05.18-2.07.36-3.07.53l-4.54.75c-26.28,4.37-47.18,7.84-74.3,4.96-.06,1.81-.67,3.66-1.79,5.19-1.5,2.08-3.79,3.4-6.54,3.83-.44,4.62-.56,9.45-.68,14.13-.12,4.79-.25,9.73-.71,14.51,4.27,1.77,6.91,4.83,7.39,8.51Z"/><ellipse cx="392.88" cy="287.67" rx="2.35" ry="2.35"/><ellipse cx="514.46" cy="281.53" rx="2.35" ry="2.35"/><ellipse cx="390.89" cy="335.8" rx="2.35" ry="2.35"/><ellipse cx="517.91" cy="333.43" rx="2.35" ry="2.35"/><path d="m413.47,300.84l-4.4-.67c-1.66-.25-3.14,1.1-3.08,2.83l.18,4.85"/><path d="m406.17,309.64c-.96,0-1.76-.76-1.8-1.73l-.18-4.85c-.05-1.38.51-2.69,1.53-3.6,1-.88,2.32-1.28,3.62-1.07l4.4.67c.98.15,1.66,1.07,1.51,2.05-.15.98-1.07,1.65-2.05,1.51l-4.4-.67c-.34-.05-.57.11-.69.21-.22.19-.33.48-.33.78l.18,4.84c.04.99-.74,1.83-1.73,1.87-.02,0-.05,0-.07,0Z"/><path d="m423.14,299.59l-3.04-2.61c-1.29-1.11-3.41-1.01-4.65.84l-2.09,3.85"/><path d="m413.36,303.46c-.29,0-.58-.07-.86-.22-.87-.47-1.2-1.57-.72-2.44l2.09-3.85s.06-.1.09-.14c.86-1.29,2.13-2.11,3.56-2.3,1.36-.18,2.72.22,3.76,1.1l3.04,2.61c.75.65.84,1.78.2,2.54-.65.76-1.78.84-2.54.2l-3.04-2.61c-.25-.22-.59-.32-.93-.27-.38.05-.73.29-1.01.68l-2.04,3.77c-.33.6-.94.94-1.58.94Z"/><path d="m406.3,307.2l-3.9,2.19c-1.47.83-1.86,2.83-.8,4.17l2.99,3.75"/><path d="m404.59,319.11c-.53,0-1.05-.23-1.41-.68l-2.99-3.75c-.84-1.06-1.17-2.43-.91-3.76.26-1.32,1.07-2.44,2.23-3.09l3.9-2.19c.87-.49,1.96-.18,2.45.69.49.87.18,1.96-.69,2.45l-3.9,2.19c-.32.18-.43.49-.46.65-.06.29.01.6.19.83l2.99,3.75c.62.78.49,1.91-.29,2.53-.33.26-.73.39-1.12.39Z"/><path class="cls-11" d="m433.89,310.56s-.48-9.73-9.5-10.64c-4.26-.43-7.35-1.11-13.21,2.66-7.79,5.02-6.88,17.34-6.88,17.34.65,7.6,5.14,8.22,16.4,7.99,11.26-.23,13.97-.68,16.68-2.93,2.71-2.25,2.11-8.4,2.11-8.4-.46-5.87-5.6-6.03-5.6-6.03Z"/><path d="m418.71,329.85c-2.18,0-4.49-.07-6.68-.27-.83-.08-1.57-.2-2.26-.38-4.4-1.18-6.85-4.25-7.26-9.12-.04-.42-.83-10.43,4.56-16.39,4.54-5.02,13.79-8.29,21.97-4.46,4.84,2.27,6.16,7.31,6.51,9.83,2.39.75,5.4,3.04,5.74,8.38.06.54.6,6.15-2.76,8.94-2.35,1.95-4.74,2.68-9.83,3.04-.23.02-4.73.44-9.99.44Zm2.74-28.68c-4.64,0-9.12,2.07-11.71,4.93-4.33,4.79-3.65,13.58-3.64,13.67.29,3.38,1.67,5.16,4.6,5.95.48.13,1.02.22,1.65.28,7.15.65,15.96-.16,16.05-.17,4.81-.34,6.3-.96,7.83-2.23,1.58-1.31,1.6-4.75,1.47-5.85-.31-5-3.55-5.36-3.91-5.39-.93-.06-1.69-.83-1.7-1.77h0c0-.06-.18-6.05-4.57-8.11-1.95-.91-4.02-1.31-6.06-1.31Z"/><ellipse cx="418.31" cy="311.2" rx="1.57" ry="2.53" transform="translate(-1.57 2.12) rotate(-.29)"/><ellipse cx="426.83" cy="311.15" rx="1.57" ry="2.53" transform="translate(-1.57 2.17) rotate(-.29)"/><path d="m478.05,315.88c-.07,0-.14,0-.22-.01-.99-.12-1.69-1.02-1.57-2,.5-4.17.72-8.4.64-12.57-.02-.99.77-1.81,1.77-1.83h.03c.98,0,1.78.78,1.8,1.77.08,4.34-.14,8.74-.67,13.07-.11.91-.89,1.58-1.79,1.58Z"/><path d="m487.28,315.43c-.88,0-1.79-.26-2.58-.76-1.06-.68-1.9-1.74-2.48-3.15h0c-1.08-2.62-.77-7.37,1.28-9.82,1.24-1.49,2.98-2.08,4.9-1.66,1.73.38,3.03,1.48,3.76,3.18,1.28,2.99.5,7.39-.96,9.76-.35.56-.91,1.37-1.81,1.9-.63.37-1.36.55-2.11.55Zm-.06-11.92c-.38,0-.67.16-.96.5-1.18,1.42-1.28,4.78-.72,6.14h0c.2.49.56,1.15,1.09,1.49.35.22.76.24.94.14.15-.09.34-.31.56-.67.93-1.51,1.45-4.73.71-6.46-.34-.8-.83-1-1.21-1.08-.15-.03-.29-.05-.41-.05Z"/><path d="m498.34,314.43c-1.29,0-2.54-.52-3.55-1.48-1.28-1.22-2.04-2.99-2.03-4.75,0-2.27,1.04-4.58,3.16-7.06,2.01-2.35,3.82-2.16,4.73-1.84.45.16.8.48,1,.88,1.5.58,2.45,2.25,2.59,4.66.1,1.78.14,3.68-.55,5.5-.89,2.36-2.88,3.96-5.08,4.08-.09,0-.18,0-.26,0Zm.87-11.5c-.15.12-.33.3-.55.55-1.54,1.8-2.29,3.35-2.29,4.73,0,.76.36,1.59.91,2.12.25.24.66.51,1.13.49.83-.05,1.59-.92,1.91-1.76.44-1.17.41-2.57.32-4.03-.05-.82-.23-1.32-.35-1.5-.43-.07-.81-.29-1.08-.61Z"/><path d="m420.15,348.32c-5.86,0-11.83-.41-18-1.39-4.59-.73-9.16-1.8-13.58-2.83-2.89-.68-5.79-1.62-7.61-3.98-.27-.35-.4-.79-.37-1.23,1.51-21.07,1.86-41.85,1.09-63.54-.02-.58.24-1.14.7-1.49.46-.36,1.06-.46,1.62-.3,23,6.95,44.07,6.15,68.62,2.8,7.22-.98,14.06-2.09,20.67-3.17,15.79-2.56,30.7-4.98,48.11-5.27h.03c.78,0,1.47.5,1.71,1.25,5.66,17.59,6.45,52.52,6.78,67.43.07,3.26.14,6.35.23,7.07.16.51.08,1.07-.22,1.53-.43.65-1.23.94-1.98.74-13.7-3.81-34.5-7.63-55.73-4.19-3.85.62-7.54,1.26-11.16,1.89-13.78,2.39-27.03,4.68-40.91,4.68Zm-35.92-9.93c1.26,1.21,3.28,1.76,5.12,2.19,4.39,1.03,8.9,2.08,13.36,2.79,20.21,3.22,38.44.06,57.73-3.29,3.64-.63,7.33-1.27,11.11-1.88,20.72-3.36,40.88-.07,54.9,3.6-.04-1.18-.08-2.82-.13-5.12-.33-14.4-1.07-47.64-6.22-65.13-16.58.39-31,2.73-46.24,5.2-6.64,1.08-13.5,2.19-20.76,3.18-24.17,3.29-45.06,4.15-67.75-2.22.66,20.67.29,40.55-1.13,60.68Zm145.62,4.7s0,0,0,0c0,0,0,0,0,0Zm0,0s0,0,0,0c0,0,0,0,0,0Z"/><path class="cls-9" d="m446.52,339.41c.15,1.05.31,2.11.21,3.16-.12,1.28-.6,2.5-1.08,3.69-1.59,3.96-3.17,7.92-4.76,11.88,5.92.56,11.89.44,17.78-.35.62-.08,1.26-.18,1.79-.52.75-.48,1.13-1.36,1.49-2.18,1.86-4.35,3.97-8.59,6.32-12.7.53-.93,1.08-1.88,1.26-2.94.14-.83.04-1.67-.06-2.5-2.31-19.55-4.62-39.1-6.93-58.65-5.78.19-11.56.38-17.34.57-6.39.21-5.09-.07-4.15,6.43,1.67,11.48,5.07,54.09,5.48,54.09Z"/><path d="m448.25,360.29c-2.52,0-5.04-.12-7.54-.35-.57-.05-1.07-.37-1.37-.85-.3-.48-.35-1.08-.13-1.61l4.76-11.88c.42-1.06.86-2.16.96-3.19.08-.84-.06-1.76-.2-2.73h0c-.12-.47-.19-1.01-.25-1.56-.12-.98-.26-2.4-.44-4.15-.34-3.47-.78-8.26-1.26-13.53-1.17-12.73-2.62-28.58-3.53-34.86-.16-1.09-.33-1.99-.47-2.73-.37-1.98-.62-3.29.28-4.41.96-1.19,2.36-1.24,5.42-1.33l17.98-.59c.96-.04,1.74.66,1.85,1.59l6.94,58.65c.11.91.23,1.93.04,3.01-.23,1.35-.87,2.47-1.44,3.47-2.34,4.1-4.43,8.31-6.26,12.58-.4.93-.94,2.2-2.17,2.98-.89.57-1.87.7-2.52.79-3.53.47-7.09.71-10.65.71Zm-4.79-3.75c4.99.31,10.01.14,14.96-.53.33-.04.84-.11,1.05-.25.3-.19.58-.85.8-1.37,1.88-4.4,4.04-8.73,6.41-12.88.5-.87.93-1.63,1.05-2.35.1-.58.02-1.27-.07-2l-6.74-57-16.33.54c-.95.03-1.92.06-2.52.12.05.38.15.88.24,1.35.15.78.33,1.72.49,2.88.93,6.37,2.38,22.27,3.55,35.05.78,8.49,1.58,17.26,1.83,18.67.04.12.08.24.1.37.16,1.08.34,2.31.22,3.58-.14,1.56-.71,2.96-1.2,4.2l-3.85,9.61Zm3.06-18.93c.35,0,.67.1.95.27-.26-.16-.58-.27-.95-.27Z"/><path class="cls-4" d="m425.72,276.68c.22,3.7,2.61,16.59,22.92,14.69,2.87-.27,5.74-.44,8.56-1.06,3.5-.77,7.09-1.7,9.89-3.94,3.28-2.61,5.05-6.73,5.74-10.87.48-2.92.38-6.2-1.54-8.45-2.39-2.78-6.58-2.93-10.25-2.75-7.15.36-36.02.63-35.32,12.37Z"/><path class="cls-12" d="m444.74,293.56c-6.41,0-11.5-1.59-15.17-4.74-4.87-4.18-5.71-9.8-5.84-12.02h0c-.14-2.36.63-4.48,2.28-6.31,5.58-6.17,19.85-7.55,33.07-8.09.72-.03,1.35-.05,1.86-.08,4.22-.22,8.94.03,11.87,3.44,2.01,2.34,2.7,5.83,2,10.08-.86,5.16-3.15,9.46-6.47,12.1-3.14,2.5-7.01,3.51-10.71,4.33-2.44.54-4.9.75-7.28.96l-1.53.14c-1.42.13-2.78.2-4.09.2Zm-17.02-17c.1,1.71.74,6.04,4.45,9.22,3.57,3.06,9.05,4.27,16.29,3.59l1.55-.14c2.35-.21,4.58-.4,6.76-.88,3.24-.71,6.61-1.58,9.07-3.55,2.54-2.03,4.32-5.45,5.01-9.63.35-2.12.45-5.03-1.09-6.82-1.81-2.1-5.38-2.22-8.63-2.05-.53.03-1.17.05-1.9.08-6.86.28-25.07,1.03-30.27,6.78-.92,1.02-1.33,2.13-1.25,3.39h0Z"/><path class="cls-5" d="m713.98,198.2c17.65.83,35.35.53,52.96-.91.6-11.81.77-23.65.51-35.47-16.27-.01-32.53,0-48.8-.04-4.24,0-6.92-1.02-7.64,3.89-.43,2.94.31,6.15.6,9.07.2,2,1.85,23.44,2.36,23.46Z"/><path class="cls-12" d="m733.33,200.65c-6.5,0-12.98-.15-19.44-.46-1.82-.09-2.03-1.72-2.31-3.97-.16-1.27-.35-3.09-.57-5.42-.4-4.21-.82-9.21-1.09-12.52-.14-1.7-.24-2.94-.29-3.35-.08-.75-.18-1.52-.29-2.3-.33-2.37-.66-4.83-.3-7.27.87-5.93,4.74-5.77,7.86-5.65.55.02,1.14.05,1.77.05,10.92.02,21.85.03,32.77.03h16.02c1.09,0,1.97.88,2,1.96.26,11.83.09,23.81-.51,35.62-.05,1-.83,1.81-1.83,1.89-11.19.91-22.5,1.37-33.78,1.37Zm-17.71-4.38c16.42.71,33.03.43,49.42-.84.5-10.49.65-21.11.46-31.62h-14.06c-10.93-.01-21.85-.02-32.78-.04-.68,0-1.32-.03-1.92-.05-3.19-.13-3.39-.14-3.74,2.23-.28,1.88.02,4.05.31,6.14.11.83.23,1.64.31,2.44.04.42.15,1.68.29,3.42.35,4.26,1.22,14.62,1.71,18.32Z"/><path class="cls-12" d="m739.55,184.71c-.09,0-.17,0-.26,0-1.21-.08-2.18-.67-2.88-1.11-8.94-5.48-17.68-11.85-25.97-18.95-.84-.72-.94-1.98-.22-2.82.72-.84,1.98-.94,2.82-.22,8.13,6.96,16.7,13.21,25.46,18.58.29.18.83.51,1.05.53,0,0,.01,0,.02,0,.3,0,1.05-.52,1.42-.76,7.94-5.42,15.96-11.05,23.84-16.75.9-.65,2.14-.45,2.79.45.65.9.45,2.15-.45,2.79-7.91,5.72-15.96,11.38-23.93,16.81-.86.59-2.14,1.46-3.68,1.46Z"/><path class="cls-12" d="m715.11,199.37c-.4,0-.81-.12-1.17-.38-.9-.65-1.1-1.89-.46-2.79,4.74-6.59,10.04-12.98,15.76-18.97.76-.8,2.03-.83,2.83-.07.8.76.83,2.03.07,2.83-5.59,5.86-10.78,12.11-15.41,18.55-.39.54-1,.83-1.63.83Z"/><path class="cls-12" d="m765.31,197.95c-.56,0-1.11-.23-1.5-.68-5.41-6.17-11.28-12.15-17.45-17.79-.82-.74-.87-2.01-.13-2.83.74-.81,2.01-.87,2.83-.13,6.28,5.74,12.26,11.83,17.76,18.1.73.83.65,2.09-.19,2.82-.38.33-.85.5-1.32.5Z"/><circle class="cls-6" cx="766" cy="161.68" r="8.55"/><path class="cls-12" d="m766,172.23c-5.82,0-10.55-4.73-10.55-10.54s4.73-10.55,10.55-10.55,10.54,4.73,10.54,10.55-4.73,10.54-10.54,10.54Zm0-17.09c-3.61,0-6.55,2.94-6.55,6.55s2.94,6.54,6.55,6.54,6.54-2.94,6.54-6.54-2.94-6.55-6.54-6.55Z"/><path d="m844.3,295.63c-2.01,0-3.75-.65-5.12-1.93-1.26-1.18-1.93-2.64-1.93-4.22-.01-3.04,2.38-5.46,2.86-5.92,2.51-2.38,5.84-3.63,9.1-3.56.17-2.17.34-4.75.51-7.27.17-2.53.34-5.13.51-7.33-3.74-.16-8.17-.1-12.15-.04-.85.01-1.68.02-2.48.03-.41,5.43-1.07,10.88-1.97,16.24-.02.14-.06.27-.11.4.53,1.25.51,2.85-.11,4.53-1.21,3.29-3.72,5.94-6.7,7.06-3.48,1.32-7.45.51-9.87-2.03-2.72-2.85-2.89-7.46-.39-10.28.75-.84,6.11-4.42,13.59-2.61.79-5.11,1.35-10.28,1.69-15.43.07-1.05.94-1.86,1.99-1.87,1.33,0,2.78-.03,4.3-.05,4.81-.07,10.25-.14,14.52.17.54.04,1.03.29,1.38.7.35.41.51.94.46,1.48-.23,2.45-.46,5.93-.68,9.29-.2,3.07-.41,6.24-.62,8.68,1.49,2.37,2.09,6.43,1.17,8.69-.8,1.97-4.3,4.26-7.63,5-.8.18-1.57.26-2.31.26Zm4.59-11.63c-2.14,0-4.37.89-6.03,2.46-.62.59-1.62,1.93-1.61,3,0,.3.07.76.67,1.32.78.73,1.88.99,3.3.79,2.69-.39,5.03-2.2,5.36-2.75.38-.94-.04-3.45-.72-4.75-.31-.04-.63-.06-.96-.06Zm-29.5.04c-1.03,1.25-.87,3.51.36,4.79,1.28,1.34,3.61,1.78,5.55,1.05,1.91-.72,3.54-2.48,4.36-4.71.34-.91.24-1.5.17-1.6-.34-.26-.57-.6-.69-.98-5.56-1.36-9.34,1.15-9.75,1.44Z"/><path d="m851.37,274.69h-18.02c-1.1,0-2-.9-2-2s.9-2,2-2h18.02c1.1,0,2,.9,2,2s-.9,2-2,2Z"/><path d="m688.97,127.39c-1.76,0-3.49-.5-4.92-1.51-3.18-2.24-4.25-6.68-2.36-9.89.55-.95,5.03-5.46,12.61-5.15-.22-5.06-.67-10.16-1.34-15.18-.14-1.04.55-2.01,1.58-2.22,4.92-1.01,8.93-.25,11.58,2.19,3,2.77,4.12,7.52,3.32,14.13-.13,1.1-1.14,1.87-2.23,1.74-1.1-.13-1.88-1.13-1.74-2.23.63-5.19-.08-8.89-2.06-10.71-1.62-1.5-4.05-1.71-6.23-1.49.64,5.29,1.05,10.64,1.21,15.93,0,.14,0,.27-.03.41.75,1.11,1.04,2.66.77,4.4-.54,3.42-2.45,6.47-5.12,8.13-1.54.97-3.3,1.45-5.03,1.45Zm-3.88-9.3c-.74,1.4-.16,3.52,1.26,4.52,1.48,1.04,3.81,1.02,5.53-.06,1.7-1.06,2.93-3.07,3.29-5.36.13-.85-.03-1.44-.14-1.55-.38-.18-.67-.46-.86-.8-5.61-.21-8.74,2.9-9.08,3.26Zm.05-.09s0,0,0,.01c0,0,0,0,0-.01Z"/><path class="cls-5" d="m314.96,299.12c-1.98,10.36-8.36,18.6-16.56,21.5,8.2,2.9,14.58,11.14,16.56,21.5,1.98-10.36,8.36-18.6,16.56-21.5-8.2-2.9-14.58-11.14-16.56-21.5Z"/><path class="cls-12" d="m314.96,344.12c-.96,0-1.78-.68-1.96-1.62-1.84-9.65-7.69-17.31-15.26-19.99-.8-.28-1.33-1.04-1.33-1.89s.53-1.6,1.33-1.89c7.57-2.68,13.42-10.33,15.26-19.99.18-.94,1-1.62,1.96-1.62s1.78.68,1.96,1.62c1.84,9.65,7.69,17.31,15.26,19.99.8.28,1.33,1.04,1.33,1.89s-.53,1.6-1.33,1.89c-7.57,2.68-13.42,10.33-15.26,19.99-.18.94-1,1.62-1.96,1.62Zm-11.87-23.5c5.16,3.05,9.34,8.14,11.87,14.4,2.52-6.26,6.7-11.35,11.87-14.4-5.16-3.05-9.34-8.14-11.87-14.4-2.52,6.26-6.7,11.35-11.87,14.4Z"/><path class="cls-5" d="m342.83,365.36c-1.35,5.7-5.71,10.22-11.31,11.82,5.6,1.59,9.96,6.12,11.31,11.82,1.35-5.7,5.71-10.22,11.31-11.82-5.6-1.59-9.96-6.12-11.31-11.82Z"/><path class="cls-12" d="m342.83,390.99c-.93,0-1.73-.64-1.95-1.54-1.18-4.98-4.98-8.95-9.91-10.35-.86-.24-1.45-1.03-1.45-1.92s.59-1.68,1.45-1.92c4.93-1.4,8.73-5.37,9.91-10.35.21-.9,1.02-1.54,1.95-1.54s1.73.64,1.95,1.54c1.18,4.98,4.98,8.95,9.91,10.35.86.25,1.45,1.03,1.45,1.92s-.59,1.68-1.45,1.92c-4.93,1.4-8.73,5.37-9.91,10.35-.21.9-1.02,1.54-1.95,1.54Zm-6.34-13.82c2.62,1.59,4.81,3.81,6.34,6.46,1.53-2.65,3.71-4.88,6.34-6.46-2.62-1.59-4.81-3.81-6.34-6.46-1.53,2.65-3.71,4.88-6.34,6.46Z"/><path d="m675.83,212.33c-.81,0-1.57-.49-1.87-1.29-2.01-5.32-3.92-10.74-5.69-16.13-.34-1.05.23-2.18,1.28-2.52,1.05-.35,2.18.23,2.52,1.28,1.75,5.33,3.64,10.7,5.63,15.96.39,1.03-.13,2.19-1.16,2.58-.23.09-.47.13-.71.13Z"/><path d="m681.98,201.45c-.94,0-1.77-.66-1.96-1.62l-4.53-23.17c-.21-1.08.5-2.13,1.58-2.35,1.08-.21,2.13.49,2.35,1.58l4.53,23.17c.21,1.08-.5,2.13-1.58,2.35-.13.03-.26.04-.39.04Z"/><path d="m736.31,246.95c-.89,0-1.71-.6-1.94-1.51-.27-1.07.38-2.16,1.45-2.43,7.45-1.89,15.12-2.6,22.79-2.11,1.1.07,1.94,1.02,1.87,2.12s-.99,1.95-2.12,1.87c-7.25-.46-14.51.21-21.56,2-.17.04-.33.06-.49.06Z"/><path d="m771.76,264.47c-.22,0-.44-.04-.65-.11-11.67-4.02-23.83-6.69-36.12-7.92-1.1-.11-1.9-1.09-1.79-2.19.11-1.1,1.09-1.9,2.19-1.79,12.6,1.26,25.06,3.99,37.02,8.12,1.04.36,1.6,1.5,1.24,2.54-.29.83-1.06,1.35-1.89,1.35Z"/><path d="m424.2,518.78h22.04v58.22h-11.69v-49.19h-10.36v-9.03Z"/><path d="m456.75,547.85c0-4.66.52-8.88,1.63-12.72,1.04-3.7,2.66-6.95,4.81-9.62,2.07-2.59,4.59-4.59,7.69-6.07,3.03-1.33,6.51-2.07,10.5-2.07s7.32.74,10.43,2.07c2.96,1.48,5.55,3.48,7.69,6.07,2.07,2.66,3.7,5.92,4.88,9.62,1.04,3.85,1.63,8.06,1.63,12.72s-.52,8.95-1.55,12.65c-1.04,3.85-2.59,7.03-4.66,9.69-2.07,2.66-4.66,4.66-7.69,6.14-3.11,1.41-6.73,2.15-10.73,2.15s-7.47-.74-10.5-2.15c-3.11-1.48-5.62-3.48-7.69-6.14-2.15-2.66-3.77-5.84-4.81-9.69-1.11-3.7-1.63-7.92-1.63-12.65Zm11.69,0c0,3.85.3,7.18,1.04,9.84.67,2.74,1.63,4.96,2.81,6.66,1.18,1.78,2.52,3.11,4.14,3.85,1.48.81,3.18,1.26,4.96,1.26s3.48-.44,5.1-1.26c1.55-.74,2.96-2.07,4.14-3.85,1.18-1.7,2.07-3.92,2.81-6.66.59-2.66.96-5.99.96-9.84s-.37-7.03-.96-9.76c-.74-2.66-1.63-4.88-2.81-6.66-1.18-1.7-2.59-2.96-4.14-3.85-1.63-.74-3.33-1.18-5.1-1.18s-3.48.44-4.96,1.18c-1.63.89-2.96,2.14-4.14,3.85-1.18,1.78-2.15,4-2.81,6.66-.74,2.74-1.04,5.99-1.04,9.76Z"/><path d="m510.98,547.85c0-4.66.52-8.88,1.63-12.72,1.04-3.7,2.66-6.95,4.81-9.62,2.07-2.59,4.59-4.59,7.69-6.07,3.03-1.33,6.51-2.07,10.5-2.07s7.32.74,10.43,2.07c2.96,1.48,5.55,3.48,7.69,6.07,2.07,2.66,3.7,5.92,4.88,9.62,1.04,3.85,1.63,8.06,1.63,12.72s-.52,8.95-1.55,12.65c-1.04,3.85-2.59,7.03-4.66,9.69-2.07,2.66-4.66,4.66-7.69,6.14-3.11,1.41-6.73,2.15-10.73,2.15s-7.47-.74-10.5-2.15c-3.11-1.48-5.62-3.48-7.69-6.14-2.15-2.66-3.77-5.84-4.81-9.69-1.11-3.7-1.63-7.92-1.63-12.65Zm11.69,0c0,3.85.3,7.18,1.04,9.84.67,2.74,1.63,4.96,2.81,6.66,1.18,1.78,2.52,3.11,4.14,3.85,1.48.81,3.18,1.26,4.96,1.26s3.48-.44,5.1-1.26c1.55-.74,2.96-2.07,4.14-3.85,1.18-1.7,2.07-3.92,2.81-6.66.59-2.66.96-5.99.96-9.84s-.37-7.03-.96-9.76c-.74-2.66-1.63-4.88-2.81-6.66-1.18-1.7-2.59-2.96-4.14-3.85-1.63-.74-3.33-1.18-5.1-1.18s-3.48.44-4.96,1.18c-1.63.89-2.96,2.14-4.14,3.85-1.18,1.78-2.14,4-2.81,6.66-.74,2.74-1.04,5.99-1.04,9.76Z"/><path d="m604.93,515.97v36.32h-36.17v-36.32h36.17Zm-21.45,41.5v12.13h43.13v8.95h-54.74v-21.08h11.61Zm9.84-14.2v-18.27h-12.95v18.27h12.95Zm32.55-6.66v22.78h-11.61v-44.16h11.61v12.35h6.44v9.02h-6.44Z"/><path d="m652.79,564.65v-7.92h-17.31v-9.02h46.16v9.02h-17.24v7.92h-11.61Zm-16.2-35.14c0-4.44,1.85-7.99,5.55-10.5,3.7-2.44,8.88-3.7,15.53-3.7,5.25,0,9.62.81,13.09,2.37,3.4,1.63,5.7,3.85,7.03,6.81l8.21-1.85v-7.4h11.61v48.53h-11.61v-31.88l-7.84,1.78c-1.04,3.25-3.33,5.77-6.88,7.47-3.55,1.78-8.14,2.59-13.61,2.59-6.66,0-11.84-1.26-15.53-3.77-3.7-2.44-5.55-5.92-5.55-10.43Zm13.98,30.92v9.17h47.79v8.95h-59.4v-18.12h11.61Zm-2.37-30.92c0,.89.22,1.63.81,2.22.52.74,1.26,1.26,2.14,1.7.89.44,1.85.81,3.03.96,1.11.3,2.29.37,3.48.37s2.37-.07,3.55-.37c1.11-.22,2.15-.59,3.11-1.04.89-.44,1.55-.96,2.14-1.63.52-.59.81-1.33.81-2.22,0-1.63-.89-2.88-2.66-3.85-1.85-.89-4.14-1.41-6.95-1.41s-5.03.44-6.81,1.33-2.66,2.22-2.66,3.92Z"/><path d="m503.41,629.72c0-4.18.76-8.02,2.37-11.49,1.57-3.42,3.84-6.55,6.83-9.3h7.5c-1.33,1.28-2.56,2.71-3.7,4.27-1.14,1.61-2.14,3.28-2.9,5.03-.85,1.8-1.47,3.66-1.9,5.55-.47,1.99-.71,3.94-.71,5.93s.24,3.99.71,5.89c.43,1.99,1.04,3.85,1.9,5.6.76,1.8,1.76,3.47,2.9,5.08,1.14,1.57,2.37,2.99,3.7,4.27h-7.5c-2.94-2.75-5.22-5.89-6.79-9.35-1.61-3.46-2.42-7.31-2.42-11.49Z"/><path d="m524.3,619.04c.47-1.33,1.14-2.56,2.04-3.66.85-1.04,1.9-1.95,3.13-2.71,1.14-.71,2.47-1.28,3.94-1.71,1.42-.38,2.9-.57,4.51-.57,2.09,0,3.99.29,5.74.81,1.71.57,3.18,1.33,4.41,2.28,1.23,1,2.18,2.14,2.9,3.42.66,1.33,1.04,2.75,1.04,4.27,0,1.95-.48,3.66-1.33,5.13-.95,1.52-2.28,2.56-4.08,3.18,1.8.62,3.32,1.66,4.6,3.08,1.23,1.52,1.85,3.37,1.85,5.55,0,1.8-.38,3.37-1.09,4.79-.76,1.42-1.8,2.61-3.13,3.66-1.38.95-2.99,1.71-4.84,2.28-1.9.48-3.94.76-6.12.76-1.61,0-3.13-.19-4.56-.47-1.52-.38-2.85-.85-4.08-1.52-1.28-.71-2.42-1.57-3.37-2.61-1-1.04-1.8-2.28-2.37-3.75l6.31-3.04c.24.85.62,1.66,1.19,2.33.52.71,1.14,1.28,1.9,1.76.67.47,1.42.85,2.28,1.09.81.29,1.66.43,2.52.43,2.28,0,4.13-.47,5.65-1.42,1.47-.9,2.23-2.33,2.23-4.23,0-1.04-.24-1.9-.62-2.61-.47-.67-1.04-1.23-1.76-1.71-.76-.38-1.57-.71-2.52-.9-.95-.19-1.95-.28-2.99-.28h-3.61v-5.79h3.61c.86,0,1.71-.09,2.56-.28.81-.14,1.52-.43,2.18-.85.62-.38,1.14-.9,1.52-1.57.38-.62.57-1.42.57-2.42,0-1.76-.66-3.13-1.99-4.13-1.33-.95-3.04-1.42-5.03-1.42-1.61,0-3.09.57-4.32,1.61-1.28,1.09-2.23,2.47-2.85,4.08l-6.03-2.85Z"/><path d="m581.74,609.49v21.41h-23.21v-21.41h23.21Zm-3.13,41.11c-2.99,0-5.65-.19-7.97-.52-2.37-.38-4.32-.9-5.93-1.61-1.66-.76-2.9-1.66-3.75-2.71-.85-1.09-1.28-2.33-1.28-3.84,0-1.42.43-2.71,1.28-3.85.85-1.04,2.09-1.95,3.75-2.71,1.61-.66,3.56-1.19,5.93-1.57,2.33-.33,4.98-.52,7.97-.52s5.6.19,7.97.52c2.33.38,4.32.9,5.98,1.57,1.61.76,2.85,1.66,3.7,2.71.86,1.14,1.28,2.42,1.28,3.85,0,1.52-.43,2.75-1.28,3.84-.85,1.04-2.09,1.95-3.7,2.71-1.66.71-3.66,1.23-5.98,1.61-2.37.33-5.03.52-7.97.52Zm-4.32-25.49v-9.83h-8.31v9.83h8.31Zm4.32,19.7c3.61,0,6.46-.24,8.5-.67,1.99-.47,2.99-1.19,2.99-2.23s-1-1.76-2.99-2.23c-2.04-.43-4.89-.67-8.5-.67s-6.46.24-8.45.67c-2.04.47-3.04,1.19-3.04,2.23s1,1.76,3.04,2.23c1.99.43,4.79.67,8.45.67Zm17.99-35.79v23.5h-7.45v-5.98l-5.98,1.09v-5.65l5.98-1.19v-2.99l-5.98,1.14v-5.65l5.98-1.19v-3.09h7.45Z"/><path d="m617.96,629.72c0,4.18-.81,8.02-2.37,11.49-1.62,3.47-3.89,6.6-6.84,9.35h-7.5c1.33-1.28,2.56-2.71,3.7-4.27,1.14-1.61,2.09-3.28,2.94-5.08.76-1.76,1.42-3.61,1.9-5.6.43-1.9.67-3.89.67-5.89s-.24-3.94-.67-5.93c-.47-1.9-1.14-3.75-1.9-5.55-.85-1.76-1.8-3.42-2.94-5.03-1.14-1.57-2.37-2.99-3.7-4.27h7.5c2.94,2.75,5.22,5.89,6.84,9.3,1.57,3.47,2.37,7.31,2.37,11.49Z"/></svg>