<?xml version="1.0" encoding="utf-8"?>
<!-- Generator: Adobe Illustrator 27.2.0, SVG Export Plug-In . SVG Version: 6.00 Build 0)  -->
<svg version="1.1" id="Layer_1" xmlns="http://www.w3.org/2000/svg" xmlns:xlink="http://www.w3.org/1999/xlink" x="0px" y="0px"
	 viewBox="0 0 989.06 287.18" style="enable-background:new 0 0 989.06 287.18;" xml:space="preserve">
<style type="text/css">
	.st0{fill:#3142EE;}
	.st1{fill:#2034E5;}
	.st2{fill:url(#SVGID_1_);}
	.st3{clip-path:url(#SVGID_00000068671191996535126550000007780470459074357643_);}
	.st4{opacity:0.5;}
	.st5{fill:#6C82FF;}
	.st6{fill:#8098FF;}
	.st7{fill:#FFFFFF;}
	.st8{fill:#F4F4F4;}
	.st9{fill:#CCCCCC;stroke:#CCCCCC;stroke-width:3;stroke-miterlimit:10;}
	.st10{fill:#F4F4F4;stroke:#CCCCCC;stroke-width:3;stroke-miterlimit:10;}
	.st11{fill:none;stroke:#CCCCCC;stroke-width:3;stroke-linecap:round;stroke-linejoin:round;stroke-miterlimit:10;}
	.st12{fill:none;stroke:#CCCCCC;stroke-width:3;stroke-miterlimit:10;}
	.st13{fill:none;stroke:#CCCCCC;stroke-width:3;stroke-linecap:round;stroke-miterlimit:10;}
	.st14{clip-path:url(#SVGID_00000148618981295008643630000005399278187526708150_);fill:#FFFFFF;}
	.st15{fill:#F2F2FF;}
	.st16{fill:#C875EC;}
	.st17{fill:#252B3A;}
	.st18{fill:#02166C;}
	.st19{fill:none;stroke:#49B9FF;stroke-miterlimit:10;}
	.st20{fill:none;stroke:#FF64BD;stroke-miterlimit:10;}
	.st21{fill:#FF7B00;}
	.st22{fill:#3B51FF;}
	.st23{fill:#3C59F5;}
	.st24{fill:#FFFFFF;stroke:#000000;stroke-width:7;stroke-miterlimit:10;}
	.st25{fill:#3C4FF5;}
	.st26{stroke:#000000;stroke-width:7;stroke-linecap:round;stroke-linejoin:round;stroke-miterlimit:10;}
	.st27{fill:none;stroke:#000000;stroke-width:7;stroke-linecap:round;stroke-linejoin:round;stroke-miterlimit:10;}
	.st28{fill:#FFDF00;stroke:#FFDF00;stroke-width:7;stroke-miterlimit:10;}
	.st29{fill:#FFDF00;}
	.st30{fill:#FFDF00;stroke:#000000;stroke-width:7;stroke-miterlimit:10;}
	.st31{fill:#3C4FF5;stroke:#000000;stroke-width:7;stroke-linejoin:round;stroke-miterlimit:10;}
	.st32{fill:#FFDF00;stroke:#000000;stroke-width:7;stroke-linecap:round;stroke-linejoin:round;stroke-miterlimit:10;}
	.st33{fill:#FFFFFF;stroke:#000000;stroke-width:7;stroke-linecap:round;stroke-linejoin:round;stroke-miterlimit:10;}
	.st34{fill:none;stroke:#000000;stroke-width:6;stroke-linecap:round;stroke-linejoin:round;stroke-miterlimit:10;}
	.st35{opacity:0.5;fill:#FFFFFF;}
	.st36{fill:#CCCCCC;}
	.st37{fill:#FFFFFF;stroke:#000000;stroke-width:4;stroke-linecap:round;stroke-linejoin:round;stroke-miterlimit:10;}
	.st38{fill:#FFFFFF;stroke:#1D1D1B;stroke-width:4;stroke-linecap:round;stroke-linejoin:round;stroke-miterlimit:10;}
	.st39{fill:#CBCBCB;}
	.st40{fill:none;stroke:#000000;stroke-width:4;stroke-linecap:round;stroke-linejoin:round;stroke-miterlimit:10;}
	.st41{fill:none;stroke:#1D1D1B;stroke-width:4;stroke-linecap:round;stroke-linejoin:round;stroke-miterlimit:10;}
	.st42{fill:#1D1D1B;stroke:#1D1D1B;stroke-width:4;stroke-linecap:round;stroke-linejoin:round;stroke-miterlimit:10;}
	.st43{fill:#FFEB3B;stroke:#FFEB3B;stroke-width:4;stroke-miterlimit:10;}
	.st44{fill:none;stroke:#B22D2D;stroke-width:4;stroke-miterlimit:10;}
	.st45{fill:#1D1D1B;}
	.st46{fill:none;stroke:#FFFFFF;stroke-width:4;stroke-linecap:round;stroke-linejoin:round;stroke-miterlimit:10;}
	.st47{fill:#3B51FF;stroke:#1D1D1B;stroke-width:4;stroke-linecap:round;stroke-linejoin:round;stroke-miterlimit:10;}
	.st48{clip-path:url(#SVGID_00000076563566451937471680000004258539886339932569_);fill:#FFFFFF;}
	.st49{fill:#56B982;}
	.st50{fill:none;stroke:#000000;stroke-width:3.6;stroke-linecap:round;stroke-linejoin:round;stroke-miterlimit:10;}
	.st51{fill:#C3F8D5;}
	.st52{stroke:#000000;stroke-width:3.6;stroke-linecap:round;stroke-linejoin:round;stroke-miterlimit:10;}
	.st53{fill:#C9C9C9;stroke:#000000;stroke-width:3.6;stroke-linecap:round;stroke-linejoin:round;stroke-miterlimit:10;}
	.st54{fill:#FFEB3B;stroke:#1D1D1B;stroke-width:4;stroke-linecap:round;stroke-linejoin:round;stroke-miterlimit:10;}
	.st55{fill:#FF0000;stroke:#1D1D1B;stroke-width:4;stroke-linecap:round;stroke-linejoin:round;stroke-miterlimit:10;}
	.st56{fill:#303ED3;stroke:#000000;stroke-width:5;stroke-miterlimit:10;}
	.st57{fill:#041071;stroke:#000000;stroke-width:4;stroke-linecap:round;stroke-linejoin:round;stroke-miterlimit:10;}
	.st58{fill:#041071;stroke:#000000;stroke-width:4;stroke-miterlimit:10;}
	.st59{fill:#3B51FF;stroke:#000000;stroke-width:5;stroke-miterlimit:10;}
	.st60{fill:#303ED3;}
	.st61{fill:#041071;}
	.st62{fill:#C062EC;}
	.st63{fill:#FFEB3B;}
	.st64{fill:#B22D2D;}
	.st65{clip-path:url(#SVGID_00000183937915301085273070000000473008930824795818_);fill:#FFFFFF;}
	.st66{fill:#C9C9C9;}
	.st67{fill:#FF0000;}
	.st68{fill:#FFFFFF;stroke:#000000;stroke-width:2;stroke-miterlimit:10;}
	.st69{clip-path:url(#SVGID_00000054228436163323393830000015879525783225026207_);}
	.st70{fill:#B8FF00;}
	.st71{clip-path:url(#SVGID_00000047060263998832904880000010611834750597692316_);fill:#FFFFFF;}
	.st72{fill:#FBE04B;}
	.st73{fill:#EE772F;}
	.st74{fill:#DFFFC2;}
	.st75{fill:#A6FF00;}
	.st76{fill:#FF9500;}
	.st77{fill:#49B9FF;}
	.st78{fill:#FF64BD;}
	.st79{fill:#140D71;}
	.st80{fill:#969696;}
</style>
<g>
	<g>
		<g>
			<path class="st60" d="M0.64,158.49c24.58,6.54,57.21,26.16,81.78,32.7C64.56,214.05,49,253.82,43.19,282.85
				c50.31-23.29,110.08-48.11,175.88-55.92c-13.1-44.85-19.02-88.29-31.04-133.1C79.98,111.75,4.77,159.58,0.64,158.49z"/>
			<path d="M39.77,287.18l0.97-4.83c5.37-26.86,19.82-65.56,37.5-89.77c-11.67-3.56-24.91-9.61-37.74-15.48
				C26.53,170.72,12.08,164.12,0,160.9l1.29-4.83c-0.36-0.1-0.62-0.06-0.62-0.06c1.18-0.19,6.65-2.9,12.44-5.77
				c27.19-13.47,90.85-45,174.51-58.88l2.24-0.37l0.59,2.19c5.52,20.58,9.82,41.16,13.97,61.07c4.9,23.48,9.97,47.75,17.05,71.98
				l0.83,2.84l-2.93,0.35c-64.92,7.71-124.96,32.49-175.12,55.71L39.77,287.18z M8.27,158.19c10.8,3.63,22.71,9.08,34.31,14.38
				c13.97,6.39,28.41,12.99,40.5,16.21l3.66,0.97l-2.33,2.98c-17.16,21.95-31.53,58.67-37.71,85.75
				c21.24-9.76,48.5-21.72,77.83-31.76c32.23-11.04,62.14-18.22,91.34-21.92c-6.71-23.47-11.6-46.87-16.33-69.53
				c-4-19.13-8.12-38.89-13.33-58.6c-81.82,13.94-144.13,44.81-170.87,58.05C12.42,156.16,10.11,157.3,8.27,158.19z"/>
		</g>
		<g>
			<path class="st61" d="M211.4,187.96c0,0-29.49,10.96-34.53,15.56c0,0,23.65,13.6,42.2,23.41L211.4,187.96z"/>
			<path d="M219.07,228.93c-0.32,0-0.64-0.08-0.93-0.23c-18.37-9.71-42.03-23.31-42.26-23.44c-0.55-0.32-0.92-0.88-0.99-1.52
				s0.17-1.27,0.64-1.7c5.18-4.72,32.13-14.82,35.18-15.95c0.55-0.21,1.16-0.16,1.67,0.13c0.51,0.29,0.87,0.78,0.99,1.36l7.67,38.96
				c0.15,0.76-0.15,1.53-0.77,1.99C219.91,228.79,219.49,228.93,219.07,228.93z M180.61,203.36c6.21,3.54,21.85,12.42,35.68,19.83
				l-6.4-32.52C201.93,193.69,186.98,199.66,180.61,203.36z"/>
		</g>
		<g>
			<path class="st60" d="M988.32,148.11c-24.31,7.49-56.15,28.35-80.46,35.84c18.74,22.15,35.82,61.29,42.75,90.08
				c-51.17-21.33-111.86-43.82-177.91-49.09c11.36-45.32,15.6-88.96,25.88-134.2C907.25,104.47,984.24,149.36,988.32,148.11z"/>
			<path d="M954.19,278.22l-4.54-1.89c-90.92-37.9-140.57-45.99-177.14-48.91l-2.94-0.24l0.72-2.86
				c6.14-24.48,10.27-48.94,14.26-72.59c3.39-20.05,6.89-40.79,11.61-61.56l0.5-2.21l2.25,0.28c84.13,10.64,148.96,39.7,176.65,52.1
				c5.9,2.64,11.47,5.14,12.66,5.29c0,0-0.25-0.03-0.62,0.08l1.47,4.78h0c0,0-0.01,0-0.01,0c-11.95,3.68-26.12,10.84-39.83,17.76
				c-12.6,6.36-25.59,12.92-37.12,16.92c18.6,23.5,34.53,61.62,40.93,88.25L954.19,278.22z M775.83,222.68
				c62.8,5.51,121.46,26.6,171.12,47.11c-7.23-26.83-23-62.96-41-84.24l-2.44-2.89l3.62-1.11c11.95-3.68,26.13-10.84,39.84-17.76
				c11.38-5.75,23.08-11.65,33.73-15.69c-1.88-0.81-4.22-1.86-7.19-3.19c-27.23-12.21-90.68-40.64-172.98-51.42
				c-4.44,19.9-7.8,39.8-11.05,59.07C785.61,175.39,781.63,198.97,775.83,222.68z"/>
		</g>
		<g>
			<path class="st61" d="M778.86,185.69c0,0,29.89,9.82,35.11,14.21c0,0-23.11,14.5-41.27,25.02L778.86,185.69z"/>
			<path d="M770.08,228.76l7.17-45.7l2.24,0.73c3.1,1.02,30.41,10.07,35.77,14.58l2.1,1.77l-2.32,1.46
				c-0.23,0.15-23.35,14.64-41.33,25.06L770.08,228.76z M780.47,188.34l-5.14,32.74c13.53-7.94,28.82-17.41,34.89-21.19
				C803.71,196.44,788.55,191.05,780.47,188.34z"/>
		</g>
		<g>
			<path class="st22" d="M176.87,203.52c20.63-21.63,209.48-63.24,312.37-62.58s235.17,14.47,330.21,56.33
				c7.18-29.57,40.86-129,19.46-138.35C718.77,6.43,598.45,0.58,476.35,2.93C312.32,6.1,185.84,48.43,154.55,61.35
				C143.71,65.87,175.05,190.65,176.87,203.52z"/>
			<path d="M175.11,208.98l-0.72-5.11c-0.4-2.85-2.44-11.97-5.01-23.52c-4.59-20.61-10.88-48.83-15.14-73.06
				c-7.33-41.72-4.18-46.78-0.65-48.25c46-19.01,172.64-55.71,322.71-58.61c50.26-0.97,116.42-1,182.38,7.45
				c66.3,8.49,125.58,24.44,181.23,48.75c17.97,7.85,4.63,60.7-11.9,118.86c-2.59,9.1-4.82,16.97-6.13,22.37l-0.7,2.9l-2.73-1.2
				c-112.3-49.46-267.64-55.72-329.22-56.12c-46.41-0.32-116.15,8.25-186.51,22.88c-64.84,13.48-114.68,29.12-124.04,38.93
				L175.11,208.98z M155.67,63.59c-0.87,1.14-2.79,7.69,3.88,45c4.23,23.65,10.29,50.83,14.71,70.67c1.89,8.47,3.41,15.29,4.3,19.67
				c12.87-8.77,50.54-22.42,123.13-37.51c70.68-14.69,140.75-23.27,187.56-22.98c61.39,0.4,215.57,6.61,328.49,55.36
				c1.35-5.23,3.28-12.02,5.46-19.67c5.67-19.96,13.44-47.29,17.48-70.1c5.95-33.6,0.82-41.25-2.77-42.82
				C782.7,37.09,723.87,21.27,658.05,12.84C592.42,4.44,526.5,4.47,476.4,5.43C327.25,8.31,201.5,44.7,155.67,63.59z M155.73,63.52
				L155.73,63.52L155.73,63.52z"/>
		</g>
	</g>
	<g>
		<g>
			<path class="st7" d="M277.05,68.93c0.65,2.76,1.31,5.51,1.96,8.27c-7.39,1.75-14.75,3.59-22.11,5.51
				c3.3,12.62,6.61,25.24,9.91,37.86c7.29-1.91,14.6-3.73,21.92-5.46c0.65,2.76,1.3,5.51,1.95,8.27
				c-10.57,2.5-21.11,5.18-31.62,8.06c-4.94-18.05-9.87-36.09-14.81-54.14C255.15,74.32,266.08,71.53,277.05,68.93z M294.3,123.25
				c-4.39-18.9-8.78-37.81-13.16-56.71c3.53-0.82,7.05-1.62,10.59-2.4c1.77,8.02,3.54,16.05,5.31,24.07
				c1.95-1.17,3.9-2.33,5.86-3.48c-1.57-7.33-3.13-14.67-4.7-22c3.56-0.76,7.12-1.5,10.69-2.22c3.84,19.02,7.68,38.05,11.53,57.07
				c-3.36,0.68-6.71,1.37-10.06,2.09c-1.83-8.58-3.66-17.16-5.5-25.74c-1.94,1.15-3.88,2.31-5.8,3.47c1.74,7.87,3.47,15.73,5.2,23.6
				C300.93,121.73,297.61,122.48,294.3,123.25z"/>
			<path class="st7" d="M354.36,53.14c1.59,10.35,3.18,20.7,4.77,31.04c-11.71,1.8-23.39,3.82-35.04,6.06
				c-1.98-10.28-3.95-20.56-5.93-30.84C330.2,57.09,342.27,55,354.36,53.14z M357.88,113.63c-4.17,0.67-7.97,1.02-11.33,1.11
				c-3.43,0.03-6.42-0.22-8.83-0.84c-2.57-0.67-4.55-1.64-6.03-2.92c-1.55-1.34-2.45-3.01-2.87-5.2c-0.39-2.05-0.18-4.01,0.78-5.89
				c0.92-1.73,2.45-3.36,4.67-4.9c2.1-1.37,4.89-2.65,8.22-3.79c3.27-1.06,7.08-1.98,11.37-2.67c4.29-0.69,8.2-1,11.71-1.02
				c3.45,0.05,6.42,0.41,8.98,1.04c2.44,0.79,4.4,1.86,5.88,3.21c1.43,1.5,2.31,3.28,2.58,5.35c0.29,2.21-0.11,4.09-1.1,5.83
				c-1.06,1.69-2.64,3.23-4.73,4.65c-2.24,1.36-4.92,2.52-8.12,3.55C365.78,112.12,362.06,112.97,357.88,113.63z M346.47,77.6
				c-0.79-4.74-1.57-9.48-2.36-14.22c-4.28,0.71-8.56,1.45-12.84,2.22c0.85,4.73,1.7,9.46,2.55,14.19
				C338.03,79.03,342.25,78.31,346.47,77.6z M356.54,105.25c4.98-0.8,8.87-1.73,11.6-2.77c2.71-1.1,3.98-2.33,3.76-3.85
				c-0.22-1.52-1.78-2.35-4.72-2.62c-2.93-0.2-6.96,0.05-11.99,0.85c-5.1,0.82-8.94,1.83-11.66,2.93c-2.71,1.18-3.94,2.46-3.67,3.97
				c0.27,1.51,1.86,2.29,4.78,2.48C347.57,106.37,351.49,106.06,356.54,105.25z M377.83,68.71c0.63,4.76,1.26,9.53,1.88,14.29
				c-3.76,0.5-7.52,1.01-11.28,1.55c-1.61-11.17-3.21-22.33-4.82-33.5c3.89-0.56,7.78-1.1,11.68-1.61
				c0.48,3.61,0.95,7.23,1.43,10.84c2.13-0.28,4.27-0.56,6.4-0.82c0.35,2.81,0.7,5.62,1.05,8.43
				C382.06,68.16,379.94,68.44,377.83,68.71z"/>
			<path class="st7" d="M435.09,91.87c0.21,2.8,0.41,5.6,0.62,8.4c-14.65,1.08-29.29,2.51-43.89,4.29
				c-0.34-2.79-0.68-5.58-1.02-8.36C405.54,94.41,420.3,92.96,435.09,91.87z M388.68,67.84c-0.39-3.25-0.23-6.22,0.65-8.91
				c0.81-2.62,2.11-4.95,3.91-6.97c1.74-1.88,3.83-3.44,6.41-4.7c2.45-1.1,5.23-1.88,8.22-2.17c2.91-0.29,5.73-0.06,8.48,0.53
				c2.7,0.74,5.12,1.86,7.27,3.36c2.08,1.65,3.74,3.68,5.11,6.09c1.31,2.48,2.12,5.36,2.36,8.62c0.25,3.26-0.12,6.15-1.02,8.74
				c-0.96,2.66-2.24,4.93-3.97,6.74c-1.8,1.96-3.91,3.47-6.35,4.53c-2.49,1.2-5.11,1.86-7.9,2.14c-2.86,0.28-5.62,0.15-8.16-0.56
				c-2.67-0.56-4.96-1.63-7.04-3.22c-2.13-1.44-3.9-3.41-5.28-5.84C389.93,73.86,389.07,71.09,388.68,67.84z M411.04,77.45
				c1.3-0.13,2.58-0.53,3.74-1.27c1.11-0.66,2.04-1.59,2.81-2.78c0.78-1.12,1.32-2.43,1.69-4c0.31-1.43,0.47-3.05,0.31-4.78
				c-0.15-1.73-0.59-3.3-1.16-4.79c-0.64-1.41-1.42-2.6-2.4-3.63c-0.98-0.96-2.09-1.7-3.33-2.21c-1.31-0.44-2.67-0.59-4-0.46
				c-1.48,0.15-2.77,0.63-3.91,1.3c-1.19,0.75-2.14,1.69-2.84,2.82c-0.77,1.2-1.3,2.52-1.58,4.02c-0.35,1.58-0.4,3.2-0.22,4.86
				c0.19,1.8,0.58,3.37,1.24,4.7c0.6,1.48,1.46,2.65,2.44,3.59c0.91,1.02,2.01,1.68,3.29,2.11
				C408.34,77.43,409.6,77.59,411.04,77.45z M451.02,100.74c-3.68,0.21-7.37,0.44-11.05,0.7c-1.34-19.36-2.68-38.72-4.02-58.08
				c3.91-0.27,7.83-0.52,11.74-0.74C448.79,61.99,449.91,81.36,451.02,100.74z"/>
			<path class="st7" d="M476.17,81.18c20-0.59,40.02-0.55,60.01,0.13c-0.1,2.83-0.19,5.66-0.29,8.49
				c-8.05-0.27-16.09-0.44-24.14-0.51c-0.03,4.04-0.07,8.08-0.1,12.12c-3.68-0.03-7.36-0.04-11.04-0.02
				c-0.02-4.04-0.03-8.08-0.05-12.12c-8.05,0.03-16.1,0.16-24.15,0.4C476.34,86.84,476.25,84.01,476.17,81.18z M478.37,58.47
				c-0.08-2.92,0.59-5.45,2.03-7.57c1.36-2.12,3.33-3.84,5.91-5.28c2.51-1.3,5.49-2.32,8.92-3.05c3.43-0.59,7.1-0.95,10.99-0.94
				c3.89,0.01,7.56,0.39,10.99,0.99c3.43,0.74,6.4,1.77,8.98,3.09c2.5,1.45,4.47,3.18,5.89,5.31c1.42,2.13,2.08,4.66,1.99,7.58
				c-0.09,2.92-0.9,5.41-2.42,7.45c-1.52,2.05-3.53,3.74-6.03,4.93c-2.57,1.33-5.49,2.25-8.83,2.77c-3.34,0.65-6.89,0.9-10.65,0.89
				c-3.76-0.01-7.3-0.27-10.64-0.94c-3.34-0.53-6.25-1.46-8.74-2.81c-2.57-1.21-4.57-2.9-6.01-4.96
				C479.25,63.88,478.45,61.4,478.37,58.47z M489.92,58.23c0.04,2.65,1.46,4.64,4.4,5.94c2.79,1.37,6.74,1.96,11.84,1.97
				c4.96,0.01,8.98-0.57,11.93-1.92c2.87-1.28,4.38-3.27,4.43-5.92c0.05-2.65-1.38-4.63-4.26-6.06c-2.94-1.37-7.02-2.11-12.07-2.12
				c-5.19-0.01-9.2,0.72-12,2.07C491.26,53.62,489.89,55.59,489.92,58.23z"/>
			<path class="st7" d="M544.32,67.33c20.3,0.85,40.57,2.34,60.79,4.48c-0.3,2.82-0.6,5.63-0.89,8.45
				c-20.05-2.12-40.14-3.6-60.26-4.44C544.08,72.99,544.2,70.16,544.32,67.33z M546.98,56.64c4.75-0.49,8.7-1.12,11.87-1.98
				c3.08-0.8,5.58-1.69,7.52-2.76c1.85-1,3.2-2.16,4.03-3.43c0.76-1.2,1.21-2.43,1.3-3.75c0.05-0.69,0.1-1.39,0.14-2.08
				c3.94,0.27,7.88,0.57,11.82,0.88c-0.06,0.69-0.11,1.39-0.17,2.08c-0.17,2.08-0.85,4.05-1.97,5.92
				c7.35,2.94,14.65,5.95,21.88,9.05c-1.6,2.33-3.19,4.67-4.77,7.01c-7.95-3.35-15.97-6.6-24.06-9.75
				c-2.78,1.61-6.12,2.92-10.09,3.99c-4.05,1.14-8.79,1.99-14.25,2.49C549.16,61.76,548.08,59.2,546.98,56.64z M572.17,104.51
				c-4.21-0.31-7.98-0.77-11.19-1.38c-3.34-0.62-6.05-1.47-8.25-2.42c-2.27-1.1-3.98-2.36-5.04-3.88c-1.2-1.59-1.69-3.42-1.59-5.58
				c0.09-2.09,0.75-3.87,2.1-5.34c1.22-1.41,3.06-2.5,5.48-3.35c2.34-0.78,5.19-1.32,8.66-1.53c3.33-0.15,7.23-0.09,11.54,0.22
				c4.31,0.32,8.1,0.84,11.52,1.48c3.27,0.7,6.08,1.66,8.35,2.78c2.2,1.19,3.79,2.54,4.93,4.12c0.99,1.64,1.44,3.51,1.23,5.59
				c-0.22,2.15-1.05,3.88-2.33,5.29c-1.42,1.33-3.22,2.34-5.56,3.09c-2.4,0.61-5.26,1.05-8.53,1.18
				C580.11,104.91,576.37,104.82,572.17,104.51z M572.79,96.04c5.37,0.4,9.44,0.46,12.02,0.27c2.52-0.27,3.87-0.98,3.98-2.16
				c0.11-1.18-1.1-2.13-3.54-2.83c-2.53-0.64-6.56-1.26-11.98-1.66c-5.49-0.4-9.5-0.38-12.02-0.11c-2.6,0.33-3.92,1.09-3.99,2.28
				c-0.07,1.18,1.16,2.09,3.69,2.73C563.4,95.11,567.34,95.63,572.79,96.04z"/>
			<path class="st7" d="M657.93,63.64c-0.26,1.65-0.75,3.27-1.39,4.93c4.91,4.12,9.76,8.27,14.55,12.47
				c-2.37,2.03-4.72,4.08-7.06,6.13c-4.28-3.74-8.61-7.45-12.98-11.14c-2.21,1.77-4.77,3.14-7.88,4.24
				c-3.11,1.09-6.88,1.82-11.16,2.08c-1.26-2.75-2.54-5.49-3.83-8.24c5.8-0.37,10.11-1.52,13.06-3.48c2.8-1.92,4.57-4.82,5.17-8.82
				c0.51-3.47,1.02-6.94,1.53-10.4c3.89,0.57,7.78,1.17,11.66,1.79C659.04,56.67,658.48,60.16,657.93,63.64z M654.83,114.36
				c-4.17-0.69-7.89-1.56-11.09-2.54c-3.26-1.06-6.01-2.24-8.1-3.59c-2.22-1.44-3.79-3-4.78-4.68c-1.05-1.76-1.37-3.63-1.07-5.84
				c0.28-2.07,1.1-3.86,2.61-5.34c1.42-1.35,3.38-2.42,5.97-3.17c2.43-0.64,5.46-0.97,8.98-0.99c3.43,0.03,7.34,0.36,11.63,1.07
				c4.29,0.71,8.1,1.65,11.43,2.74c3.25,1.14,5.97,2.42,8.2,3.83c2.07,1.52,3.59,3.16,4.57,4.91c0.88,1.87,1.16,3.84,0.76,5.89
				c-0.43,2.19-1.41,3.84-2.9,5.18c-1.55,1.26-3.54,2.23-5.97,2.91c-2.56,0.58-5.48,0.82-8.84,0.79
				C662.8,115.42,659,115.05,654.83,114.36z M656.21,105.98c4.98,0.82,8.97,1.17,11.88,1.05c2.93-0.18,4.52-0.95,4.8-2.46
				c0.28-1.51-0.95-2.8-3.65-3.99c-2.71-1.12-6.62-2.16-11.65-2.99c-5.1-0.84-9.06-1.1-11.99-0.91c-2.94,0.26-4.51,1.09-4.73,2.6
				c-0.23,1.52,1.04,2.75,3.75,3.87C647.34,104.2,651.16,105.14,656.21,105.98z M688.01,78.08c-0.91,4.72-1.83,9.43-2.74,14.15
				c-3.73-0.72-7.47-1.42-11.21-2.1c2.01-11.1,4.03-22.2,6.04-33.3c3.87,0.7,7.74,1.43,11.61,2.18c-0.69,3.58-1.39,7.16-2.08,10.73
				c2.12,0.41,4.24,0.83,6.35,1.25c-0.56,2.78-1.11,5.55-1.67,8.33C692.21,78.9,690.11,78.48,688.01,78.08z"/>
			<path class="st7" d="M697.64,87.96c19.96,4.11,39.82,8.87,59.54,14.26c-0.75,2.73-1.49,5.46-2.24,8.19
				c-7.94-2.17-15.9-4.24-23.88-6.2c-0.29,1.19-0.59,2.39-0.88,3.58c6.8,1.67,13.58,3.42,20.35,5.24c-1.75,6.5-3.5,13-5.26,19.5
				c-16.84-4.54-33.77-8.59-50.78-12.16c1.38-6.59,2.77-13.18,4.15-19.77c6.84,1.44,13.67,2.95,20.48,4.54
				c0.28-1.2,0.56-2.4,0.84-3.59c-8-1.86-16.01-3.62-24.04-5.28C696.5,93.5,697.07,90.73,697.64,87.96z M706.62,62.65
				c18.09,3.8,36.1,8.11,54.01,12.94c-0.74,2.73-1.47,5.47-2.21,8.2c-2.62-0.71-5.25-1.4-7.88-2.09c-0.53,2.04-1.07,4.09-1.6,6.13
				c2.61,0.68,5.22,1.37,7.83,2.08c-0.74,2.73-1.47,5.47-2.21,8.2c-17.49-4.71-35.07-8.92-52.74-12.63
				c0.58-2.77,1.16-5.54,1.75-8.31c2.66,0.56,5.32,1.13,7.97,1.71c0.45-2.06,0.9-4.13,1.35-6.19c-2.67-0.58-5.35-1.16-8.03-1.72
				C705.46,68.19,706.04,65.42,706.62,62.65z M708.04,110.69c-0.3,1.36-0.6,2.72-0.91,4.08c9.83,2.19,19.63,4.53,29.4,7.04
				c0.35-1.35,0.69-2.7,1.04-4.05C727.76,115.25,717.91,112.89,708.04,110.69z M722.91,81.43c4.92,1.14,9.83,2.31,14.73,3.53
				c0.51-2.05,1.02-4.1,1.52-6.15c-4.93-1.22-9.88-2.41-14.82-3.55C723.86,77.32,723.38,79.37,722.91,81.43z"/>
		</g>
	</g>
</g>
</svg>
