<svg xmlns="http://www.w3.org/2000/svg" xmlns:xlink="http://www.w3.org/1999/xlink" viewBox="0 0 119.45 45.88"><defs><style>.cls-1{fill:none;}.cls-2{clip-path:url(#clip-path);}.cls-3{fill:#242c3c;}</style><clipPath id="clip-path" transform="translate(0 0)"><rect class="cls-1" width="119.45" height="45.88"/></clipPath></defs><title>logo-f</title><g id="레이어_2" data-name="레이어 2"><g id="Layer_1" data-name="Layer 1"><g id="LOGO_BK"><g class="cls-2"><polygon class="cls-3" points="9.75 0 7.68 9.71 13.27 9.71 5.19 21.43 19.62 21.43 25.11 11.52 25.88 21.43 40.31 21.43 37.22 9.71 42.81 9.71 44.92 0 9.75 0"/><path class="cls-3" d="M15.31,37.31l1-4.59,24.7,0-1,4.58ZM4.61,24.19,0,45.88H51.61l4.61-21.69Z" transform="translate(0 0)"/><polygon class="cls-3" points="47.87 0 43.31 21.43 56.81 21.43 61.39 0 47.87 0"/><polygon class="cls-3" points="69.67 0 54.6 45.88 65.14 45.88 80.27 0 69.67 0"/><polygon class="cls-3" points="83.27 0 68.14 45.88 78.33 45.88 86.03 18.39 82.01 45.88 91.58 45.88 97.45 0 83.27 0"/><polygon class="cls-3" points="103.29 0 93.58 45.88 107.09 45.88 110.56 29.39 116.85 29.39 119.45 17.19 113.16 17.19 116.8 0 103.29 0"/></g></g></g></g></svg>