<?xml version="1.0" encoding="utf-8"?>
<!-- Generator: Adobe Illustrator 27.2.0, SVG Export Plug-In . SVG Version: 6.00 Build 0)  -->
<svg version="1.1" id="Layer_1" xmlns="http://www.w3.org/2000/svg" xmlns:xlink="http://www.w3.org/1999/xlink" x="0px" y="0px"
	 viewBox="0 0 873.11 783.58" style="enable-background:new 0 0 873.11 783.58;" xml:space="preserve">
<style type="text/css">
	.st0{fill:#3142EE;}
	.st1{fill:#2034E5;}
	.st2{fill:url(#SVGID_1_);}
	.st3{clip-path:url(#SVGID_00000052083741611611255950000006743614488218562956_);}
	.st4{opacity:0.5;}
	.st5{fill:#6C82FF;}
	.st6{fill:#8098FF;}
	.st7{fill:#FFFFFF;}
	.st8{fill:#F4F4F4;}
	.st9{fill:#CCCCCC;stroke:#CCCCCC;stroke-width:3;stroke-miterlimit:10;}
	.st10{fill:#F4F4F4;stroke:#CCCCCC;stroke-width:3;stroke-miterlimit:10;}
	.st11{fill:none;stroke:#CCCCCC;stroke-width:3;stroke-linecap:round;stroke-linejoin:round;stroke-miterlimit:10;}
	.st12{fill:none;stroke:#CCCCCC;stroke-width:3;stroke-miterlimit:10;}
	.st13{fill:none;stroke:#CCCCCC;stroke-width:3;stroke-linecap:round;stroke-miterlimit:10;}
	.st14{clip-path:url(#SVGID_00000121997409941127936510000003077295370124712858_);fill:#FFFFFF;}
	.st15{fill:#F2F2FF;}
	.st16{fill:#C875EC;}
	.st17{fill:#252B3A;}
	.st18{fill:#02166C;}
	.st19{fill:none;stroke:#49B9FF;stroke-miterlimit:10;}
	.st20{fill:none;stroke:#FF64BD;stroke-miterlimit:10;}
	.st21{fill:#FF7B00;}
	.st22{fill:#3B51FF;}
	.st23{fill:#3C59F5;}
	.st24{fill:#FFFFFF;stroke:#000000;stroke-width:7;stroke-miterlimit:10;}
	.st25{fill:#3C4FF5;}
	.st26{stroke:#000000;stroke-width:7;stroke-linecap:round;stroke-linejoin:round;stroke-miterlimit:10;}
	.st27{fill:none;stroke:#000000;stroke-width:7;stroke-linecap:round;stroke-linejoin:round;stroke-miterlimit:10;}
	.st28{fill:#FFDF00;stroke:#FFDF00;stroke-width:7;stroke-miterlimit:10;}
	.st29{fill:#FFDF00;}
	.st30{fill:#FFDF00;stroke:#000000;stroke-width:7;stroke-miterlimit:10;}
	.st31{fill:#3C4FF5;stroke:#000000;stroke-width:7;stroke-linejoin:round;stroke-miterlimit:10;}
	.st32{fill:#FFDF00;stroke:#000000;stroke-width:7;stroke-linecap:round;stroke-linejoin:round;stroke-miterlimit:10;}
	.st33{fill:#FFFFFF;stroke:#000000;stroke-width:7;stroke-linecap:round;stroke-linejoin:round;stroke-miterlimit:10;}
	.st34{fill:none;stroke:#000000;stroke-width:6;stroke-linecap:round;stroke-linejoin:round;stroke-miterlimit:10;}
	.st35{opacity:0.5;fill:#FFFFFF;}
	.st36{fill:#CCCCCC;}
	.st37{fill:#FFFFFF;stroke:#000000;stroke-width:4;stroke-linecap:round;stroke-linejoin:round;stroke-miterlimit:10;}
	.st38{fill:#FFFFFF;stroke:#1D1D1B;stroke-width:4;stroke-linecap:round;stroke-linejoin:round;stroke-miterlimit:10;}
	.st39{fill:#CBCBCB;}
	.st40{fill:none;stroke:#000000;stroke-width:4;stroke-linecap:round;stroke-linejoin:round;stroke-miterlimit:10;}
	.st41{fill:none;stroke:#1D1D1B;stroke-width:4;stroke-linecap:round;stroke-linejoin:round;stroke-miterlimit:10;}
	.st42{fill:#1D1D1B;stroke:#1D1D1B;stroke-width:4;stroke-linecap:round;stroke-linejoin:round;stroke-miterlimit:10;}
	.st43{fill:#FFEB3B;stroke:#FFEB3B;stroke-width:4;stroke-miterlimit:10;}
	.st44{fill:none;stroke:#B22D2D;stroke-width:4;stroke-miterlimit:10;}
	.st45{fill:#1D1D1B;}
	.st46{fill:none;stroke:#FFFFFF;stroke-width:4;stroke-linecap:round;stroke-linejoin:round;stroke-miterlimit:10;}
	.st47{fill:#3B51FF;stroke:#1D1D1B;stroke-width:4;stroke-linecap:round;stroke-linejoin:round;stroke-miterlimit:10;}
	.st48{clip-path:url(#SVGID_00000105397132000908777130000001061744774744166024_);fill:#FFFFFF;}
	.st49{fill:#56B982;}
	.st50{fill:none;stroke:#000000;stroke-width:3.6;stroke-linecap:round;stroke-linejoin:round;stroke-miterlimit:10;}
	.st51{fill:#C3F8D5;}
	.st52{stroke:#000000;stroke-width:3.6;stroke-linecap:round;stroke-linejoin:round;stroke-miterlimit:10;}
	.st53{fill:#C9C9C9;stroke:#000000;stroke-width:3.6;stroke-linecap:round;stroke-linejoin:round;stroke-miterlimit:10;}
	.st54{fill:#FFEB3B;stroke:#1D1D1B;stroke-width:4;stroke-linecap:round;stroke-linejoin:round;stroke-miterlimit:10;}
	.st55{fill:#FF0000;stroke:#1D1D1B;stroke-width:4;stroke-linecap:round;stroke-linejoin:round;stroke-miterlimit:10;}
	.st56{fill:#303ED3;stroke:#000000;stroke-width:5;stroke-miterlimit:10;}
	.st57{fill:#041071;stroke:#000000;stroke-width:4;stroke-linecap:round;stroke-linejoin:round;stroke-miterlimit:10;}
	.st58{fill:#041071;stroke:#000000;stroke-width:4;stroke-miterlimit:10;}
	.st59{fill:#3B51FF;stroke:#000000;stroke-width:5;stroke-miterlimit:10;}
	.st60{fill:#C062EC;}
	.st61{fill:#FFFFFF;stroke:#000000;stroke-width:2;stroke-miterlimit:10;}
	.st62{clip-path:url(#SVGID_00000097484046350278569600000009792611350732427424_);}
	.st63{fill:#B8FF00;}
	.st64{clip-path:url(#SVGID_00000044147255629755049120000017711166883953479347_);fill:#FFFFFF;}
	.st65{fill:#FBE04B;}
	.st66{fill:#EE772F;}
	.st67{fill:#DFFFC2;}
	.st68{fill:#A6FF00;}
	.st69{fill:#FF9500;}
</style>
<g>
	<g>
		<g>
			<path class="st7" d="M18.08,594.51c-1.5,0.7-17.53,6.88-13.55,20.47c3.97,13.54,17.83,22.21,31.04,27.19
				c39.77,15.01,81.1,17.62,122.27,12.56c2-0.25,4.08-0.53,5.75-1.65c1.95-1.3,3.05-3.52,3.9-5.7c5-12.87,3.86-27.2,2.44-40.93
				c-3.21-31.25-7.87-63.61-25.17-89.82c-1.44-2.18-3.1-4.43-5.55-5.37c-2.15-0.83-5.38-1.86-6.81-0.06
				c-4.67,5.88-13.66,16.09-33.35,34.11C78.65,563.98,42.9,582.89,18.08,594.51z"/>
			<path d="M120.9,660.55c-30.93,0-59.93-5.05-86.57-15.1c-12.58-4.75-28.54-13.71-33.16-29.48c-2.95-10.07,2.57-19,15.16-24.51
				l0.26-0.12c16.61-7.78,57.68-28.1,80.1-48.62c15.07-13.8,26.16-25.14,32.97-33.7c3.16-3.98,8.92-1.76,10.81-1.03
				c3.28,1.26,5.4,3.97,7.21,6.7c17.85,27.04,22.5,59.97,25.73,91.39c1.53,14.88,2.48,29.33-2.66,42.56
				c-0.94,2.43-2.39,5.46-5.22,7.34c-2.43,1.62-5.23,1.96-7.27,2.22C145.53,659.77,133.06,660.55,120.9,660.55z M134.88,513.7
				c-7.14,8.93-18.09,20.12-33.47,34.19c-22.3,20.41-60.86,39.96-81.85,49.79l0,0c-0.1,0.04-0.24,0.11-0.43,0.19
				c-6.46,2.83-13.65,7.92-11.25,16.12c4.01,13.69,19.84,21.48,28.91,24.9c36.56,13.8,76.01,17.84,120.61,12.36
				c1.81-0.22,3.27-0.44,4.24-1.09c1.2-0.8,2.01-2.59,2.58-4.06c4.58-11.79,3.72-24.78,2.22-39.31
				c-3.14-30.55-7.63-62.54-24.61-88.25c-1.08-1.64-2.37-3.45-3.88-4.03C136.13,513.82,135.26,513.7,134.88,513.7z"/>
		</g>
		<path class="st25" d="M52.85,711.17c-8.35,3.33-17.14,7.57-21.37,15.57c-5.84,11.05-0.3,25.48,9.34,33.34
			c9.65,7.86,22.3,10.65,34.51,12.77c57.27,9.95,115.68,10.69,173.79,10.69c55.55,0,132.72-16.46,153.35-21.88
			c72.79-19.09,125.67,23.13,200.85,21.88c42.75-0.71,43.58-87.53-2.31-82.37c-83.96,9.43-159.25,16.09-170.75,15.52
			c-53.21-2.64-79.53-21.28-101.88-22.4C238.02,689.77,139.12,676.8,52.85,711.17z"/>
		<g>
			<path class="st7" d="M114.01,669.28c0.23,7.73-1.09,15.42-1.33,23.14c-0.25,7.73,0.7,15.83,4.97,22.27
				c2.58,3.89,6.23,6.96,10.05,9.65c18.44,12.99,42.2,18.16,64.36,14.01c17.43-3.27,33.63-12.07,46.6-24.16
				c12.97-12.09,22.77-27.38,29.37-43.84c8.7-1.12,17.74-1.67,26.45-0.63c1.95,9.2,3.9,18.39,5.85,27.59
				c0.86,4.08,1.78,8.28,4.19,11.69c1.87,2.65,4.53,4.64,7.21,6.47c13.38,9.14,29.59,15.64,45.6,13.13
				c8.42-1.32,16.25-5.03,23.93-8.74c4.66-2.25,9.54-4.71,12.33-9.06c1.68-2.63,2.44-5.73,3.16-8.77
				c9.27-39.41,15.32-79.59,18.07-119.98c0.54-7.92,0.94-15.96-0.75-23.72c-4.23-0.1-8.48,0.39-12.58,1.45
				c-5.13-35.84-17.34-70.06-34.8-101.78c-1.04-1.9-2.15-3.83-3.82-5.2c-1.87-1.54-4.3-2.23-6.7-2.59
				c-9.42-1.41-18.87,1.76-27.85,4.96c-16.65,5.93-33.21,12.12-49.67,18.55c-31.73,12.39-63.58,25.97-90.08,47.37
				c-24.44,19.74-43.37,45.34-61.59,70.93c-10.42,14.64-21.23,31.71-17.45,49.28C111.52,650.6,113.72,659.76,114.01,669.28z"/>
			<g>
				<g>
					<g>
						<path d="M134.94,131.77l-52.62-1.74c-19.87-0.66-35.34,17.3-32.26,37.43L58.97,224"/>
						<path d="M58.97,227.5c-1.69,0-3.18-1.23-3.45-2.96l-8.91-56.54c-1.66-10.83,1.51-21.66,8.68-29.73
							c6.92-7.8,16.83-12.08,27.16-11.74l52.62,1.74c1.93,0.06,3.45,1.68,3.38,3.61c-0.06,1.93-1.68,3.46-3.61,3.38l-52.62-1.74
							c-8.25-0.28-16.15,3.15-21.69,9.39c-5.78,6.51-8.33,15.27-6.99,24.01l8.91,56.52c0.3,1.91-1,3.7-2.91,4
							C59.33,227.49,59.15,227.5,58.97,227.5z"/>
					</g>
					<g>
						<path d="M246.82,103.6l-39.4-26.3c-16.7-11.15-41.5-7.02-53.42,16.28l-19.14,48.01"/>
						<path d="M134.86,145.09c-0.43,0-0.87-0.08-1.29-0.25c-1.8-0.72-2.67-2.75-1.96-4.55l19.14-48.01c0.04-0.1,0.08-0.2,0.13-0.3
							c6.01-11.74,15.66-19.86,27.17-22.86c10.72-2.79,22.12-0.87,31.3,5.26l39.4,26.3c1.61,1.07,2.04,3.25,0.97,4.85
							c-1.07,1.61-3.25,2.04-4.85,0.97l-39.4-26.3c-7.52-5.02-16.88-6.59-25.65-4.31c-9.51,2.48-17.54,9.27-22.63,19.13
							l-19.08,47.85C137.57,144.25,136.26,145.09,134.86,145.09z"/>
					</g>
					<g>
						<path d="M59.58,216.41l-42.79,31.14c-16.16,11.76-17.86,35.7-3.56,49.93l40.38,39.78"/>
						<path d="M53.61,340.76c-0.89,0-1.77-0.33-2.46-1.01l-40.38-39.78c-7.61-7.56-11.49-18.07-10.66-28.84
							c0.82-10.62,6.14-20.25,14.62-26.41l42.79-31.14c1.56-1.14,3.75-0.79,4.89,0.77s0.79,3.75-0.77,4.89l-42.79,31.14
							c-6.81,4.96-11.1,12.72-11.76,21.29c-0.67,8.72,2.47,17.22,8.61,23.33l40.37,39.77c1.38,1.36,1.39,3.57,0.04,4.95
							C55.42,340.41,54.52,340.76,53.61,340.76z"/>
					</g>
				</g>
				<path class="st7" d="M388.41,217.15c0,0-15.58-110.84-116.14-116.68c-50.51-2.93-98.2,2.59-161.72,55.01
					c-65.97,54.44-63.42,153.6-59.13,194.45c1.65,15.7,6.24,31,14.1,44.69c26.98,47,75.85,64.74,192.24,44.35
					c131.2-22.98,163.09-27.56,191.79-57.66c28.7-30.11,13.02-101.37,13.02-101.37C448.98,211.82,388.41,217.15,388.41,217.15z"/>
				<path d="M342.88,348.01c-1.49,0-2.88-0.96-3.34-2.46c-7.7-24.82-9.79-47.49-6.2-67.38c1.69-9.34,7.69-33.33,26.93-54.25
					c1.31-1.42,3.52-1.51,4.95-0.21c1.42,1.31,1.52,3.52,0.21,4.95c-18,19.56-23.61,42.01-25.19,50.75
					c-3.39,18.77-1.37,40.33,5.99,64.07c0.57,1.85-0.46,3.81-2.31,4.38C343.57,347.96,343.22,348.01,342.88,348.01z"/>
				<g>
					
						<ellipse transform="matrix(0.9969 -0.0788 0.0788 0.9969 -22.081 14.691)" class="st29" cx="175.2" cy="287.26" rx="50.52" ry="30.94"/>
					<path class="st29" d="M171.08,321.87c-11.59,0-22.54-2.37-31.36-6.86c-11.1-5.65-17.62-13.99-18.38-23.49
						c-0.75-9.5,4.38-18.76,14.46-26.08c9.57-6.95,22.59-11.39,36.68-12.51c14.08-1.11,27.65,1.23,38.19,6.59
						c11.1,5.65,17.62,13.99,18.38,23.49s-4.38,18.76-14.46,26.08c-9.57,6.95-22.59,11.39-36.68,12.5
						C175.62,321.78,173.34,321.87,171.08,321.87z M179.34,259.66c-2.08,0-4.18,0.08-6.31,0.25c-12.82,1.01-24.58,4.99-33.11,11.19
						c-8.03,5.83-12.15,12.89-11.59,19.87c0.55,6.98,5.73,13.3,14.57,17.8c9.4,4.79,21.64,6.87,34.46,5.85
						c12.82-1.01,24.58-4.99,33.11-11.19c8.03-5.83,12.15-12.89,11.59-19.87v0c-0.55-6.98-5.73-13.3-14.57-17.8
						C199.65,261.77,189.83,259.66,179.34,259.66z"/>
				</g>
				<path class="st29" d="M465.72,301.1c-1.27-12.52-3.16-21.15-3.16-21.15c-4.09-20.51-12.44-34.36-22.12-43.7
					c-23.1,4.23-39.87,19.81-38.52,36.93c1.49,18.8,24.25,32.34,50.84,30.23C457.3,303.05,461.64,302.25,465.72,301.1z"/>
				<path d="M169.21,452.3c-36.18,0-62.2-13.37-78.22-25.3c-21.04-15.67-36.15-37.31-40.44-57.91c-0.56-2.1-7.21-27.83-7.36-63
					c-0.14-33.27,5.84-81.4,35.15-121.74c23.59-32.46,61.02-59.65,102.7-74.6c32.68-11.72,82.74-21.32,135.71-0.54
					c27.06,10.61,48.63,32.61,62.4,63.6c8.05,18.12,11.23,34.17,12.28,40.78c10.14,0.15,40.99,3.42,61.23,36.23
					c6.91,11.2,11.88,24.87,14.77,40.64c0.33,1.42,3.63,16.09,3.6,34.5c-0.04,25.48-6.6,45.8-18.96,58.77
					c-22.14,23.23-45.88,33.55-101.63,44.2c-0.85,0.17-87.48,16.92-168.3,23.81C177.7,452.12,173.39,452.3,169.21,452.3z
					 M251.67,104.01c-26.5,0-50.14,5.83-68.26,12.33c-40.39,14.48-76.62,40.77-99.4,72.12c-28.15,38.75-33.93,85.23-33.82,117.4
					c0.12,35.06,7.07,61.24,7.14,61.51c0.02,0.07,0.03,0.14,0.05,0.2c3.87,18.72,18.35,39.34,37.78,53.81
					c16.9,12.59,45.61,26.86,86.38,23.38c80.44-6.86,166.71-23.54,167.57-23.71c59.99-11.46,79.36-22.72,97.88-42.15
					c27.04-28.36,13.73-86.34,13.59-86.92c-0.01-0.06-0.03-0.12-0.04-0.18c-2.73-14.94-7.39-27.83-13.85-38.3
					c-21.69-35.15-56.57-32.97-58.04-32.86c-1.87,0.14-3.54-1.23-3.75-3.1c-0.02-0.2-2.32-19.79-12.26-42.08
					c-13.19-29.59-32.86-49.69-58.48-59.74C292.51,107.22,271.31,104.01,251.67,104.01z"/>
				<path d="M265.08,190.83c-1.33,0-2.61-0.77-3.19-2.06c-0.58-1.28-1.35-2.47-2.29-3.53c-1.28-1.44-1.16-3.66,0.29-4.94
					c1.44-1.28,3.65-1.16,4.94,0.29c1.41,1.58,2.57,3.37,3.44,5.29c0.8,1.76,0.02,3.83-1.75,4.63
					C266.05,190.73,265.56,190.83,265.08,190.83z"/>
				<path d="M290.3,183.55c-0.24,0-0.48-0.02-0.73-0.08c-1.89-0.4-3.1-2.26-2.7-4.15l1.02-4.83c0.4-1.89,2.26-3.1,4.15-2.7
					c1.89,0.4,3.1,2.26,2.7,4.15l-1.02,4.84C293.37,182.43,291.92,183.55,290.3,183.55z"/>
				<ellipse transform="matrix(0.975 -0.2223 0.2223 0.975 -46.3875 60.3603)" cx="244.94" cy="236.24" rx="12.72" ry="17.82"/>
				<ellipse transform="matrix(0.975 -0.2223 0.2223 0.975 -39.8836 79.2521)" cx="332.11" cy="216.8" rx="12.72" ry="17.82"/>
			</g>
			<path class="st7" d="M376.54,199.13c-2.3,2.95-4.47,6.33-4.45,10.07c0.03,6.3,5.91,10.72,10.79,14.72
				c7.94,6.52,14.96,15.53,14.91,25.81c-0.01,2.79-0.43,5.96,1.45,8.02c2.54,2.78,7.92,1.84,9.81,5.1
				c2.34,4.04-21.5,6.03-20.6,10.61c0.55,2.83,0.63,10.88,3.22,12.14c5.22,2.54,16.15,6.88,21.37,9.43
				c1.68,0.82,8.02,4.84,9.84,5.28c2.07,0.5,9.53,2.11,11.66,2.06c6.71-0.14,19.58,3.31,25.97,1.27
				c6.38-2.04,18.39-10.24,22.99-15.11c3.45-3.65-0.96-17.63,2.42-21.35c3.52-3.88,7.68-7.13,11.31-10.91
				c5.91-6.17,10.41-13.99,11.32-22.48c0.91-8.5-2.19-17.63-8.99-22.82c-3.5-2.67-7.75-4.18-12.05-5.07
				c-6.04-1.25-12.33-1.32-18.4-0.22c-0.95,0.17-1.97,0.37-2.87,0c-1.2-0.49-1.79-1.79-2.4-2.93c-1.71-3.23-4.3-5.94-7.25-8.08
				c-12.17-8.83-29.26-7.5-43.07-1.57c-1.07,0.46-2.14,0.94-3.29,1.1c-1.57,0.21-3.15-0.2-4.7-0.55c-5.85-1.29-11.66-1.33-17.59-0.7
				c-2.24,0.24-4.09-0.11-6.11,1.06C379.71,195.23,378.03,197.22,376.54,199.13z"/>
			<path d="M509.12,237.37c-0.08,0-0.17,0-0.25-0.01c-1.93-0.14-3.38-1.81-3.24-3.74c0.56-7.73-1.09-13.73-4.91-17.82
				c-4.64-4.98-12.7-7.51-23.97-7.51c0,0,0,0-0.01,0c-6.98,0-15.57,2.09-18.76,7.94c-2.48,4.54,0.56,8.69,3.92,10.86
				c1.62,1.05,2.09,3.22,1.04,4.84c-1.05,1.62-3.22,2.09-4.84,1.04c-7.5-4.85-10.08-13.11-6.27-20.09
				c3.96-7.25,13.27-11.59,24.91-11.59c0,0,0,0,0.01,0c13.29,0,23.08,3.28,29.09,9.74c5.19,5.57,7.46,13.34,6.76,23.09
				C512.48,235.96,510.94,237.37,509.12,237.37z"/>
			<g>
				<g>
					<path class="st29" d="M485.44,267.38c0.13-4.9-1.04-20.25-0.91-25.15c0.02-0.57,0.04-1.16,0.32-1.65
						c0.45-0.8,1.43-1.1,2.23-1.55c2.51-1.4,3.57-4.93,2.23-7.47c-0.98-1.87-2.98-3.05-5.05-3.52s-4.21-0.32-6.32-0.13
						c-3.72,0.34-21.42,0.44-20.22,9.31c0.45,3.34,3.62,4.7,6.25,5.25c2.13,0.45,3.73,2.23,3.87,4.41
						c0.27,4.06,1.14,17.88,0.8,23.02"/>
					<path d="M472.13,270.13l-6.98-0.46c0.26-3.91-0.24-14.21-0.8-22.55c-0.04-0.59-0.49-1.09-1.1-1.21c-7.07-1.48-8.67-5.77-9-8.2
						c-0.34-2.55,0.32-4.92,1.91-6.86c4.38-5.33,14.96-5.99,20.04-6.3c0.58-0.04,1.07-0.07,1.42-0.1c2.35-0.22,4.87-0.38,7.42,0.2
						c3.31,0.75,5.99,2.69,7.37,5.31c2.23,4.25,0.57,9.82-3.62,12.16c-0.24,0.13-0.49,0.26-0.74,0.38c0,0-0.01,0-0.01,0.01
						c-0.05,2.38,0.21,7.34,0.46,12.14c0.27,5.28,0.53,10.27,0.46,12.86l-7-0.19c0.06-2.31-0.2-7.4-0.45-12.31
						c-0.27-5.27-0.53-10.25-0.46-12.84c0.02-0.75,0.05-2.02,0.77-3.28c0.88-1.56,2.31-2.25,3.16-2.67
						c0.14-0.07,0.28-0.14,0.42-0.21c0.85-0.47,1.28-1.93,0.83-2.79c-0.41-0.78-1.45-1.45-2.72-1.73c-1.55-0.35-3.35-0.23-5.22-0.05
						c-0.4,0.04-0.96,0.07-1.62,0.11c-3.12,0.19-12.63,0.79-15.07,3.76c-0.3,0.37-0.48,0.76-0.38,1.49c0.18,1.32,2,1.97,3.5,2.29
						c3.67,0.77,6.4,3.89,6.65,7.6C471.69,251.97,472.48,264.93,472.13,270.13z M487.53,242.74L487.53,242.74L487.53,242.74z"/>
				</g>
				<g>
					<path class="st29" d="M444.87,260.26c0.12-4.9-1.79-26.65-1.67-31.55c0.01-0.57,0.03-1.16,0.31-1.65
						c0.45-0.8,1.43-1.11,2.23-1.56c2.51-1.41,3.55-4.93,2.21-7.48c-0.99-1.87-2.99-3.04-5.05-3.51c-2.07-0.46-4.21-0.31-6.32-0.11
						c-3.72,0.35-21.42,0.49-20.2,9.36c0.46,3.34,3.63,4.69,6.26,5.23c2.13,0.44,3.73,2.22,3.88,4.4c0.28,4.06,0.91,21.07,0.58,26.2
						"/>
					<path d="M448.37,260.35l-7-0.17c0.06-2.29-0.39-8.98-0.83-15.44c-0.47-6.94-0.91-13.49-0.84-16.1
						c0.02-0.76,0.05-2.02,0.76-3.29c0.88-1.56,2.3-2.26,3.15-2.67c0.14-0.07,0.28-0.14,0.42-0.21c0.85-0.47,1.28-1.93,0.83-2.79
						c-0.41-0.78-1.46-1.44-2.73-1.73c-1.55-0.35-3.36-0.22-5.22-0.04c-0.4,0.04-0.96,0.07-1.63,0.12
						c-3.12,0.2-12.63,0.82-15.06,3.79c-0.3,0.37-0.48,0.76-0.38,1.49c0.18,1.32,2,1.97,3.5,2.28c3.67,0.76,6.41,3.88,6.67,7.58
						c0.28,4.02,0.93,21.22,0.58,26.67l-6.99-0.45c0.31-4.87-0.3-21.76-0.57-25.73c-0.04-0.59-0.49-1.09-1.1-1.21
						c-7.07-1.46-8.69-5.75-9.02-8.18c-0.35-2.55,0.31-4.92,1.89-6.87c4.36-5.34,14.94-6.02,20.03-6.35
						c0.58-0.04,1.07-0.07,1.42-0.1c2.36-0.22,4.87-0.39,7.42,0.18c3.31,0.74,6,2.67,7.38,5.29c2.24,4.25,0.6,9.82-3.6,12.17
						c-0.24,0.13-0.49,0.26-0.74,0.38c0,0-0.01,0-0.01,0.01c-0.03,2.42,0.41,8.97,0.83,15.31
						C447.99,251.2,448.43,257.74,448.37,260.35z"/>
				</g>
				<g>
					<path class="st29" d="M407.13,262.47c-0.1-4.9-2.2-24.19-2.3-29.09c-0.01-0.57-0.02-1.16,0.24-1.66
						c0.42-0.82,1.38-1.17,2.16-1.65c2.45-1.52,3.33-5.09,1.88-7.57c-1.07-1.83-3.12-2.91-5.21-3.28s-4.22-0.12-6.32,0.17
						c-3.7,0.52-21.37,1.44-19.77,10.25c0.6,3.31,3.84,4.52,6.49,4.95c2.15,0.35,3.83,2.06,4.08,4.22
						c0.46,4.05,1.07,18.65,0.97,23.8"/>
					<path d="M392.84,262.67l-7-0.14c0.1-4.9-0.49-19.29-0.95-23.33c-0.07-0.59-0.54-1.06-1.15-1.16c-7.13-1.15-8.93-5.36-9.37-7.78
						c-0.46-2.53,0.09-4.93,1.59-6.94c4.12-5.53,14.66-6.68,19.73-7.23c0.58-0.06,1.06-0.12,1.41-0.16
						c2.34-0.33,4.85-0.61,7.42-0.15c3.34,0.6,6.11,2.4,7.61,4.96c2.43,4.15,1.03,9.79-3.05,12.32c-0.23,0.15-0.48,0.28-0.73,0.42
						c0,0-0.01,0-0.01,0.01c0.07,2.43,0.61,8.39,1.13,14.16c0.57,6.28,1.11,12.21,1.16,14.78l-7,0.14c-0.05-2.32-0.6-8.4-1.14-14.28
						c-0.57-6.29-1.11-12.23-1.16-14.8c-0.02-0.75-0.04-2.02,0.61-3.32c0.81-1.6,2.2-2.36,3.03-2.81c0.14-0.08,0.28-0.15,0.41-0.23
						c0.82-0.51,1.19-1.99,0.7-2.82c-0.45-0.76-1.52-1.38-2.8-1.61c-1.56-0.28-3.36-0.07-5.22,0.19c-0.4,0.06-0.95,0.12-1.62,0.19
						c-3.11,0.34-12.58,1.38-14.88,4.46c-0.28,0.38-0.44,0.78-0.31,1.5c0.24,1.31,2.09,1.88,3.6,2.12c3.7,0.59,6.58,3.59,7,7.28
						C392.34,242.73,392.94,257.46,392.84,262.67z"/>
				</g>
				<path class="st29" d="M559.79,185.54c-6.6,17.88-26.52,28.78-41.11,41.03c-3.65,3.07-69.84,28.12-192.63,34.72
					c-1.63-3.9-2.26-4.5-5.46-7.27c-3.2-2.77-20.95,2.93-22.25,8.04c-1.3,5.11-1.48,7.84-0.35,12.99c0.84,3.8,1.87,7.55,3.11,11.24
					c1.84,5.51,4.4,11.22,9.33,14.3c4.36,2.72,10.23,2.82,14.68,0.25c4.45-2.57,7.3-7.7,7.12-12.84
					c56.92-7.6,109.32-12.38,166.73-11.26c12.6,0.25,29.28,4.37,40.39,10.32c19.72,10.57,29.47,25.21,46.55,39.68
					c5.41,4.58,12.81,12.06,19.16,8.92c2.21-1.1,9.72-4.47,11.22-6.43c7.72-10.06,8.33-20.73,8.96-33.39
					c1.91-38.28-4.82-77.37-19.79-112.66c-1.55-3.66-7.97-8.81-10.86-11.56c-5.62-5.34-14.76-5.94-21.68-2.46
					C565.99,172.64,562.48,178.26,559.79,185.54z"/>
				<path d="M317.29,306.89c-9.36,0-16.77-6.17-19.97-16.73c-2.01-6.66-5.73-27.3,3.29-34.62c5.29-4.29,11.32-5.75,16.97-4.12
					c5.28,1.52,9.77,5.7,11.45,10.64c0.62,1.83-0.36,3.82-2.19,4.44c-1.83,0.62-3.82-0.36-4.44-2.19c-0.79-2.33-3.19-5.13-6.76-6.17
					c-3.44-1-7.11-0.02-10.62,2.83c-4.52,3.66-3.61,18.53-1,27.15c1.4,4.62,5.13,12.28,14.17,11.73c2.92-0.18,9-3.67,10.48-11.29
					c0.37-1.9,2.19-3.14,4.1-2.77c1.9,0.37,3.14,2.21,2.77,4.1c-1.95,10.08-10.14,16.53-16.92,16.94
					C318.18,306.88,317.73,306.89,317.29,306.89z"/>
				<path d="M603.37,339.03c-7.56,0-14.67-3.53-20.15-10.04c-1.25-1.48-1.05-3.69,0.42-4.93c1.48-1.25,3.69-1.06,4.93,0.42
					c3.08,3.66,8.3,7.93,15.75,7.52c11.14-0.62,14.52-22.81,14.76-35.83c1.07-57.51-14.07-118.6-31.76-128.18
					c-11.77-6.37-19.53,5.26-26.46,17.72c-0.54,0.97-1.03,1.86-1.48,2.63c-24.59,42.3-58.86,51.17-83.88,57.64l-2,0.52
					c-24.58,6.39-119.76,19.52-147.33,21.51c-1.83,0.5-3.19,1.11-3.89,2.34c-0.93,1.64-0.84,4.53,0.28,8.36
					c0.54,1.86-0.53,3.8-2.39,4.34c-1.86,0.54-3.8-0.53-4.34-2.39c-1.7-5.85-1.58-10.36,0.36-13.77c2.34-4.12,6.67-5.25,8.51-5.73
					c0.21-0.05,0.42-0.09,0.64-0.1c26.93-1.89,121.98-14.98,146.4-21.32l2.01-0.52c23.83-6.16,56.47-14.61,79.58-54.38
					c0.43-0.74,0.91-1.59,1.42-2.52c5.54-9.96,17.06-30.67,35.91-20.47c22.46,12.16,36.45,79.34,35.43,134.47
					c-0.13,6.94-1.76,41.6-21.38,42.69C604.26,339.02,603.81,339.03,603.37,339.03z"/>
				<path d="M582.79,325.91c-1.05,0-2.1-0.47-2.79-1.38c-15.06-19.75-48.53-41.67-78.46-44.18c-12.44-1.04-96.96,5.18-142.36,8.53
					c-16.67,1.23-28.72,2.12-33.02,2.35c-1.94,0.12-3.58-1.37-3.69-3.3c-0.11-1.93,1.37-3.58,3.3-3.69
					c4.24-0.23,16.88-1.17,32.89-2.35c48.79-3.6,130.45-9.62,143.46-8.53c33.07,2.77,67.67,26.24,83.44,46.91
					c1.17,1.54,0.88,3.73-0.66,4.91C584.28,325.67,583.53,325.91,582.79,325.91z"/>
				<path d="M585.9,330.24c-1.01,0-2.02-0.44-2.71-1.28c-12.66-15.42-20.18-48.28-23-73.89c-2.83-25.66-2.46-57.86,7.04-71.3
					c1.12-1.58,3.3-1.95,4.88-0.84c1.58,1.12,1.95,3.3,0.84,4.88c-6.9,9.76-9.18,35.85-5.8,66.49
					c3.41,30.92,11.83,58.48,21.46,70.21c1.23,1.49,1.01,3.7-0.49,4.93C587.47,329.98,586.68,330.24,585.9,330.24z"/>
			</g>
			<g>
				<path class="st25" d="M385.22,461.17c16.4-4.14,33.16-8.43,47.25-17.79c18.46-12.27,30.65-32.3,37.57-53.35
					c6.92-21.05,9.07-53.28,11.17-75.34c0.68-7.09,0.74-15.29-0.39-22.32c-21.8,11.41-47.92,14.33-71.44,7.11
					c-2.51,6.06-3.34,12.65-4.67,19.06c-7.5,36.22-30.59,76.91-53.05,106.3C363.06,436.4,373.81,449.61,385.22,461.17z"/>
				<path d="M385.22,464.67c-0.92,0-1.83-0.37-2.49-1.04c-5.76-5.84-11.43-12.17-16.9-18.29c-5.42-6.06-11.02-12.32-16.67-18.04
					c-1.23-1.24-1.35-3.2-0.29-4.58c26.36-34.49,45.95-73.7,52.4-104.88c0.3-1.45,0.57-2.9,0.85-4.36
					c0.96-5.08,1.95-10.33,4.02-15.34c0.69-1.67,2.53-2.54,4.26-2.01c22.31,6.85,47.38,4.34,68.79-6.86c1-0.52,2.19-0.53,3.19-0.03
					c1.01,0.5,1.71,1.46,1.89,2.57c1.07,6.63,1.22,14.87,0.42,23.21c-0.28,2.89-0.55,5.95-0.84,9.14
					c-1.94,21.51-4.36,48.29-10.49,66.96c-5.61,17.09-16.93,40.54-38.95,55.17c-14.75,9.8-32.59,14.3-48.33,18.27
					C385.79,464.64,385.51,464.67,385.22,464.67z M356.26,424.55c5.03,5.22,9.98,10.75,14.78,16.12
					c4.97,5.56,10.1,11.29,15.27,16.62c15.33-3.88,31.03-8.06,44.22-16.82c20.36-13.53,30.91-35.49,36.18-51.53
					c5.88-17.91,8.26-44.25,10.17-65.4c0.29-3.2,0.57-6.28,0.84-9.18c0.56-5.84,0.62-11.6,0.21-16.67
					c-20.96,9.66-44.73,11.84-66.39,6.05c-1.12,3.49-1.81,7.18-2.54,11.03c-0.28,1.5-0.56,2.99-0.87,4.48
					C401.62,350.68,382.3,389.85,356.26,424.55z"/>
			</g>
			<path class="st21" d="M335.89,570.32c-0.16,1.06-0.33,2.18,0.06,3.19c0.3,0.79,0.91,1.42,1.5,2.02
				c6.48,6.61,12.95,13.22,19.43,19.83c5.45-5.87,10.9-11.74,16.35-17.61c1.18-1.27,2.39-2.59,2.96-4.23
				c0.72-2.05,0.34-4.29-0.05-6.43c-5.97-33.02-11.93-66.04-17.9-99.06c-4.08,2.84-8.27,5.53-12.54,8.07
				c-2.59,1.54-9.89,3.99-11.2,6.51c-1.3,2.48,0.99,10.69,1.26,13.62c0.47,5.04,0.91,10.09,1.28,15.14
				C338.47,531,338.84,550.82,335.89,570.32z"/>
			<path class="st25" d="M376.89,479.75c2.37,7.56,3.55,15.46,5.91,23.03c1.35,4.31,3.07,8.49,4.69,12.71
				c5.23,13.62,9.33,27.67,12.26,41.96c4.17-0.62,8.41-0.81,12.62-0.55c0.68,6.35,1.35,12.7,2.03,19.05
				c0.21,1.97,0.63,4.26,2.41,5.13c1.07,0.53,2.34,0.36,3.51,0.18c2-0.3,4.05-0.62,5.81-1.62c2.85-1.63,11.69-8.68,12.18-11.92
				c0.49-3.25,1.01-7.37,0.47-10.61c-7.02-42.44-25.59-82.47-47.52-119.48c4.21-2.89-20.52,18.6-21.91,20.8
				c-2.16,3.42,0.82,5.89,2.59,9.32C373.94,471.6,375.59,475.62,376.89,479.75z"/>
			<path d="M413.75,587.34c-1.4,0-2.72-0.84-3.26-2.22c-0.71-1.8,0.18-3.83,1.98-4.54c7.08-2.78,23.65-9.28,22.85-16.2
				c-0.02-0.2-0.08-0.72-1.12-1.43c-5.44-3.71-22.1-3.17-33.36-0.21c-1.87,0.49-3.76-0.61-4.27-2.47c-1.63-6-3.15-11.72-4.61-17.23
				c-7.86-29.61-14.07-53.01-27.21-81.83c-0.8-1.76-0.03-3.83,1.73-4.64c1.76-0.8,3.83-0.03,4.64,1.73
				c13.39,29.36,19.67,53.01,27.61,82.94c1.19,4.49,2.42,9.13,3.72,13.94c11.23-2.31,28.23-3.12,35.7,1.99
				c3.03,2.07,3.92,4.63,4.12,6.41c1.42,12.26-16.53,19.31-27.24,23.51C414.61,587.26,414.18,587.34,413.75,587.34z"/>
			<path d="M438.8,567.48c-1.93,0-3.5-1.57-3.5-3.5c0-15.51-20.65-87.41-45.46-124.4c-1.08-1.61-0.65-3.78,0.96-4.86
				c1.6-1.08,3.78-0.65,4.86,0.96c25.96,38.71,46.65,111.74,46.65,128.3C442.3,565.91,440.73,567.48,438.8,567.48z"/>
			<path d="M174.65,742.6c-1.58,0-3.19-0.03-4.83-0.08c-12.99-0.42-23.17-2.37-32.06-6.14c-11.3-4.8-20.11-12.7-24.81-22.24
				c-4.41-8.97-4.73-24.24-0.96-45.38c0.34-1.9,2.16-3.17,4.06-2.83c1.9,0.34,3.17,2.16,2.83,4.06
				c-4.37,24.47-2.22,35.83,0.35,41.06c3.95,8.03,11.5,14.74,21.26,18.88c8.06,3.42,17.45,5.2,29.55,5.59
				c1.56,0.05,3.1,0.08,4.61,0.08c37.16,0,56.72-15.02,65.22-24.22c11.56-12.53,25.62-38.57,30.1-64.11
				c0.33-1.9,2.15-3.18,4.05-2.84c1.9,0.33,3.18,2.15,2.84,4.05c-4.71,26.86-19.59,54.36-31.85,67.64
				C235.73,726.19,214.47,742.6,174.65,742.6z"/>
			<path d="M279.35,672.87c-3.21,0-6.41-0.06-9.61-0.18c-1.93-0.07-3.44-1.69-3.37-3.63c0.07-1.93,1.7-3.43,3.63-3.37
				c15.47,0.57,31.08-0.28,46.4-2.53c1.91-0.28,3.69,1.04,3.97,2.95c0.28,1.91-1.04,3.69-2.96,3.97
				C304.85,671.95,292.08,672.87,279.35,672.87z"/>
			<path d="M347.77,731.48c-12.68,0-24.42-2.79-30.82-6.26c-18.82-10.18-22.65-35.29-24.95-50.29c-0.26-1.69-0.5-3.26-0.74-4.67
				c-0.33-1.91,0.96-3.71,2.86-4.04c1.91-0.32,3.71,0.96,4.04,2.86c0.25,1.44,0.49,3.05,0.76,4.79c2.1,13.71,5.6,36.66,21.36,45.19
				c7.6,4.11,30.8,8.99,49.99,1.64c11.34-4.35,19.1-12.2,23.08-23.34c6.2-17.38,20.18-83.88,16.39-137.8
				c-0.14-1.93,1.32-3.6,3.25-3.74c1.94-0.14,3.6,1.32,3.74,3.25c3.91,55.71-10.23,122.27-16.78,140.65
				c-4.69,13.15-13.83,22.41-27.16,27.52C364.87,730.27,356.11,731.48,347.77,731.48z"/>
			<path d="M357.21,600.08c-0.97,0-1.91-0.41-2.57-1.12l-22.55-24.4c-0.72-0.78-1.05-1.84-0.89-2.89c6-40.07,0.05-87.59-0.01-88.06
				c-0.25-1.92,1.11-3.67,3.03-3.92c1.91-0.24,3.67,1.11,3.92,3.03c0.06,0.48,5.98,47.64,0.23,88.32L357,591.19l15.78-20.02
				c-1.42-10.77-10.5-78.11-18.65-102.07c-0.62-1.83,0.36-3.82,2.19-4.44c1.83-0.62,3.82,0.36,4.44,2.19
				c9.05,26.61,18.75,101.7,19.16,104.89c0.12,0.93-0.14,1.87-0.72,2.61l-19.23,24.4c-0.63,0.8-1.59,1.29-2.61,1.33
				C357.31,600.08,357.26,600.08,357.21,600.08z"/>
			<g>
				<path class="st29" d="M486.55,274.66c-2.11-0.06-4.2,0.34-6.22,1.23c-3.78,1.66-6.11,5.5-5.94,9.62
					c0.22,5.13,0.17,10.56-0.25,15.33c-0.3,3.41-0.94,7.15-3.72,9.4c-2.16,1.74-5.14,2.18-7.95,2.52
					c-14.85,1.81-29.79,2.91-44.74,3.29c-5.09,0.13-11.1-0.27-13.74-4.32c-0.97-1.48-1.3-3.25-1.61-4.97
					c-0.78-4.28-1.73-10.11-2.6-15.24c-0.61-3.56-2.32-9.25-9.1-8.55c-6.62,0.68-8.95,6.12-9.02,9.04c-0.2,7.84,1.6,17.4,2.45,22.85
					c0.78,5,2.67,9.79,5.73,13.81c5.44,7.14,11.24,7.77,19.16,7.86c18.75,0.21,37.51-0.87,56.11-3.22
					c8.05-1.02,16.68-2.58,22.32-8.42c4.78-4.94,6.48-12.05,7.49-18.85c1.11-7.47,0.14-15.96-0.5-23.86
					C494.08,278.03,490.7,274.78,486.55,274.66z"/>
				<path d="M413.58,340.04c-1.54,0-3.08-0.01-4.62-0.03c-8.5-0.1-15.5-0.84-21.9-9.24c-3.3-4.33-5.51-9.65-6.41-15.39
					c-0.12-0.76-0.26-1.6-0.4-2.51c-0.9-5.54-2.26-13.91-2.08-20.97c0.11-4.33,3.51-11.54,12.16-12.44
					c9.74-1.01,12.27,7.67,12.91,11.45c0.27,1.6,0.55,3.27,0.83,4.94c0.6,3.61,1.23,7.34,1.76,10.26c0.25,1.36,0.51,2.77,1.11,3.69
					c1.72,2.65,6.94,2.83,10.71,2.73c14.78-0.38,29.73-1.47,44.41-3.26c2.47-0.3,4.8-0.66,6.17-1.77c1.72-1.39,2.18-4.17,2.43-6.98
					c0.38-4.35,0.47-9.63,0.24-14.88c-0.24-5.55,2.99-10.77,8.03-12.97c2.48-1.09,5.08-1.6,7.72-1.52c0,0,0,0,0,0
					c5.93,0.18,10.77,4.79,11.25,10.73c0.08,0.94,0.16,1.9,0.24,2.86c0.62,7.29,1.27,14.83,0.23,21.8c-1.04,7.03-2.86,15-8.43,20.76
					c-6.47,6.69-15.98,8.39-24.39,9.46C448.38,338.94,430.92,340.04,413.58,340.04z M391.89,286.39c-0.28,0-0.56,0.02-0.84,0.05
					c-4.7,0.49-5.85,4.34-5.88,5.65c-0.16,6.41,1.08,14.07,2,19.67c0.15,0.92,0.29,1.78,0.41,2.55c0.71,4.59,2.46,8.82,5.06,12.22
					c4.36,5.72,8.54,6.39,16.41,6.48c18.53,0.21,37.25-0.87,55.63-3.2c7.23-0.92,15.35-2.32,20.24-7.38
					c4.19-4.34,5.66-10.99,6.54-16.93c0.92-6.16,0.31-13.29-0.28-20.18c-0.08-0.97-0.17-1.93-0.24-2.88
					c-0.19-2.38-2.12-4.23-4.49-4.3c-1.6-0.05-3.19,0.27-4.71,0.93c-2.42,1.06-3.96,3.58-3.84,6.26c0.24,5.62,0.15,11.08-0.26,15.79
					c-0.36,4.14-1.24,8.78-5.01,11.81c-3.05,2.46-7.06,2.95-9.72,3.27c-14.9,1.82-30.07,2.93-45.08,3.31
					c-5.91,0.15-13.16-0.39-16.76-5.91c-1.36-2.09-1.78-4.4-2.12-6.25c-0.54-2.98-1.17-6.73-1.78-10.37
					c-0.28-1.66-0.56-3.33-0.83-4.92C395.51,287.23,393.7,286.39,391.89,286.39z"/>
			</g>
			<path d="M381.48,226.03c-0.11,0-0.23-0.01-0.34-0.02c-10.81-1.05-14-10.35-14.18-15.13c-0.16-4.24,1.6-8.75,4.96-12.69
				c5.4-6.34,12.82-8.98,18.1-10.07c9.92-2.05,22.56,1.97,26.71,3.29c0.17-0.12,0.36-0.25,0.53-0.37c2.76-1.94,7.9-5.54,16.25-6.61
				c7.5-0.97,14.96,0.62,20.99,4.46c2.06,1.32,4.1,3.01,6.43,5.33c2.48,2.48,5.15,5.56,6.09,9.61c0.44,1.88-0.74,3.76-2.62,4.2
				c-1.88,0.44-3.76-0.74-4.2-2.62c-0.54-2.32-2.43-4.45-4.22-6.23c-1.96-1.95-3.62-3.35-5.25-4.38
				c-4.58-2.92-10.53-4.17-16.33-3.42c-6.63,0.85-10.7,3.7-13.12,5.4c-1.61,1.13-2.9,2.02-4.58,1.86c-0.51-0.05-0.91-0.18-2.08-0.55
				c-3.72-1.19-15.04-4.79-23.17-3.11c-4.2,0.87-10.08,2.92-14.19,7.75c-1.29,1.51-3.42,4.54-3.29,7.89
				c0.01,0.31,0.38,7.69,7.87,8.43c1.92,0.19,3.33,1.9,3.14,3.82C384.78,224.68,383.26,226.03,381.48,226.03z"/>
			<path d="M427.61,218.48c-0.08,0-0.16,0-0.24-0.01c-11.65-0.79-15.93-8.06-16.06-14.6c-0.2-10.09,8.54-14.6,8.91-14.79
				c1.73-0.87,3.83-0.17,4.7,1.55c0.87,1.72,0.18,3.81-1.53,4.69c-0.26,0.14-5.19,2.81-5.08,8.41c0.06,3.24,1.77,7.22,9.54,7.75
				c1.93,0.13,3.39,1.8,3.26,3.73C430.98,217.07,429.44,218.48,427.61,218.48z"/>
			<g>
				<path class="st7" d="M408.49,381.83c6.47-10.5,13.94-22.75,19.91-33.54c16.71-30.15,1.2-50.67-4.27-55
					c-7.59-6.02-31.42-19.86-52.17-5c-21.38,15.31-37.86,46.76-44.6,70.06"/>
				<path d="M408.48,385.33c-0.63,0-1.26-0.17-1.83-0.52c-1.65-1.01-2.16-3.17-1.14-4.82c6.87-11.15,14.02-22.91,19.83-33.4
					c15.05-27.16,2.28-46.08-3.38-50.56c-1.06-0.84-26.26-20.43-47.95-4.9c-20.41,14.61-36.74,45.59-43.28,68.19
					c-0.54,1.86-2.48,2.92-4.33,2.39c-1.86-0.54-2.93-2.48-2.39-4.33c7.09-24.52,24.05-56.27,45.92-71.93
					c20.7-14.83,45.18-3.77,56.38,5.1c6.87,5.44,22.55,28.04,5.16,59.44c-5.88,10.61-13.08,22.45-20,33.67
					C410.8,384.74,409.66,385.33,408.48,385.33z"/>
			</g>
			<g>
				<path class="st7" d="M395.77,425.96l-81.54-62.98l11.85-17.85l92.02,42.03C418.1,387.15,408.08,408.1,395.77,425.96"/>
				<path d="M395.77,429.46c-0.77,0-1.52-0.25-2.14-0.73l-81.54-62.98c-1.45-1.12-1.79-3.18-0.78-4.71l11.85-17.85
					c0.95-1.43,2.81-1.96,4.37-1.25l92.02,42.03c0.85,0.39,1.52,1.11,1.84,1.99s0.27,1.86-0.13,2.7
					c-0.41,0.87-10.28,21.4-22.61,39.28c-0.55,0.79-1.39,1.32-2.34,1.47C396.13,429.45,395.95,429.46,395.77,429.46z M318.94,362.2
					l76.01,58.71c8.32-12.55,15.38-26.06,18.41-32.07l-86.02-39.28L318.94,362.2z"/>
			</g>
			<g>
				<path class="st25" d="M134.4,443.79c-8.38,47.8-23.1,89.82-38.04,135.99c-10.87,33.59-28.71,66.78-41.27,99.77
					c7.44,3.47,16.15,1.61,24.14-0.3c12.74-3.05,25.61-6.15,37.33-12.02c6.68-3.34,12.89-7.54,18.93-11.92
					c22.6-16.41,43.4-36.01,57.4-60.17c5.15-2.12,9.71-4.39,15.17-5.51c30.08-6.16,60.15-12.31,90.23-18.47
					c8.49-23.89,11.57-50.6,9.36-75.86c24.89-12.08,49.85-26.35,70.08-45.23c14.87-13.88,11.05-4.87,21.64-22.72
					c-23.84-26.89-57.47-51.42-88.44-68.64c-8.57,8.42-11.27,13.19-19.84,21.6c-2.09,2.06-4.24,4.15-6.86,5.47
					c-3.54,1.78-7.62,2.02-11.56,2.48c-6.67,0.79-13.24,2.34-19.56,4.62c-4,1.44-7.93,3.18-12.1,4.02
					c-3.82,0.77-7.74,0.76-11.63,0.93c-10.26,0.46-20.43,2.21-30.5,4.24c-7.23,1.45-15.63,8.76-22.53,11.36
					C170.64,415.6,135.01,440.29,134.4,443.79z"/>
				<path d="M69.8,684.76c-6.05,0-11.58-0.81-16.34-2.46c-0.94-0.33-1.7-1.04-2.08-1.96c-0.38-0.92-0.36-1.96,0.07-2.85
					c2.72-5.71,66.72-140.84,79.49-234.18c0.13-0.95,0.65-1.81,1.42-2.37c2.57-1.85,5.45-4.08,8.49-6.44
					c20.32-15.76,51.03-39.57,102.74-41.21c1.93-0.08,3.55,1.46,3.61,3.39c0.06,1.93-1.46,3.55-3.39,3.61
					c-49.44,1.57-79.07,24.54-98.67,39.74c-2.63,2.04-5.14,3.99-7.48,5.71c-12.31,86.8-67.3,207.77-78.13,231
					c15.04,3.29,37.69-1.59,59.27-12.99c29.19-15.42,54.31-41.23,70.74-72.69c0.57-1.09,1.67-1.8,2.9-1.87
					c8.1-0.48,86.94-17.43,102.73-22.02c10.92-20.16,10.39-46.21,9.93-69.25c-0.04-1.93,1.5-3.53,3.43-3.57c0.02,0,0.05,0,0.07,0
					c1.9,0,3.46,1.52,3.5,3.43c0.49,24.4,1.04,52.06-11.52,74.06c-0.43,0.76-1.13,1.33-1.96,1.59
					c-9.97,3.23-87.66,20.32-103.74,22.52c-17.09,31.96-42.88,58.19-72.8,73.99C103.8,679.6,85.11,684.76,69.8,684.76z"/>
				<path d="M220.85,415.18c-0.97,0-1.93-0.4-2.62-1.18c-1.28-1.45-1.15-3.66,0.29-4.94c3.59-3.18,7.48-6.17,11.58-8.86
					c13.89-9.14,31.43-14.88,55.2-18.06c1.91-0.26,3.68,1.09,3.93,3.01c0.26,1.92-1.09,3.68-3,3.93
					c-22.69,3.03-39.3,8.42-52.28,16.97c-3.82,2.51-7.45,5.29-10.78,8.25C222.51,414.89,221.68,415.18,220.85,415.18z"/>
				<path d="M235.51,520.58c-1.75,0-3.27-1.32-3.47-3.1c-0.22-1.92,1.16-3.66,3.08-3.88c50.59-5.81,128.17-42.67,160.22-86.63
					c-8.65-10.36-73.98-58.44-85.77-64.76c-2.48,2.7-7.95,9.41-12.49,14.97c-10.4,12.76-15.18,18.5-17.21,19.83
					c-1.61,1.06-3.79,0.61-4.85-1c-1.05-1.6-0.62-3.75,0.97-4.82c1.71-1.31,9.77-11.2,15.66-18.43
					c12.84-15.76,14.28-17.25,15.89-17.85c1.81-0.67,2.82-1.05,17.26,8.76c7.89,5.36,18.09,12.65,28.72,20.52
					c19.86,14.71,42.84,32.71,47.81,39.14c1.78,2.3,2.08,4.33,0.88,6.03c-15.23,21.74-42.29,43.44-76.19,61.11
					c-30.39,15.84-64.08,27.08-90.12,30.07C235.78,520.57,235.65,520.58,235.51,520.58z"/>
			</g>
			<g>
				<path class="st7" d="M309.64,324.52c4.99,2.38,14.22,1.51,19.22-3.02"/>
				<path d="M316.34,329.32c-3.07,0-5.96-0.57-8.21-1.64c-1.75-0.83-2.48-2.92-1.65-4.67c0.83-1.75,2.92-2.48,4.67-1.65
					c3.75,1.79,11.44,1.1,15.36-2.45c1.43-1.3,3.65-1.19,4.94,0.24c1.3,1.43,1.19,3.65-0.24,4.94
					C327.24,327.69,321.53,329.32,316.34,329.32z"/>
			</g>
			<g>
				<path class="st7" d="M204.96,242.61c94.82,3.3,101.82,63.94,91.28,104.86"/>
				<path d="M296.24,350.97c-0.29,0-0.58-0.04-0.88-0.11c-1.87-0.48-3-2.39-2.52-4.26c9.46-36.72-1.74-59.07-9.25-69.12
					c-14.59-19.51-41.08-30.06-78.76-31.37c-1.93-0.07-3.44-1.69-3.38-3.62s1.68-3.45,3.62-3.38c39.9,1.39,68.21,12.89,84.12,34.18
					c8.26,11.05,20.61,35.5,10.42,75.05C299.22,349.93,297.8,350.97,296.24,350.97z"/>
			</g>
		</g>
		<path d="M649.38,426.51c-0.64,0-1.29-0.18-1.87-0.54c-40.58-25.75-84.79-44.73-131.4-56.43c-1.88-0.47-3.01-2.37-2.54-4.25
			c0.47-1.88,2.38-3.01,4.25-2.54c47.34,11.88,92.24,31.16,133.45,57.31c1.63,1.04,2.12,3.2,1.08,4.83
			C651.67,425.94,650.54,426.51,649.38,426.51z"/>
		<path d="M603.32,427.13c-0.62,0-1.25-0.17-1.82-0.52c-29.07-17.8-60.74-30.92-94.13-39.01c-1.88-0.46-3.03-2.35-2.58-4.23
			c0.46-1.88,2.35-3.03,4.23-2.58c34.1,8.26,66.44,21.67,96.13,39.84c1.65,1.01,2.17,3.16,1.16,4.81
			C605.64,426.53,604.49,427.13,603.32,427.13z"/>
		<path d="M601.26,153.52c-1.39,0-2.7-0.83-3.25-2.2c-0.72-1.79,0.15-3.83,1.95-4.55c27.4-10.97,54.07-24.34,79.25-39.74
			c1.65-1.01,3.8-0.49,4.81,1.16c1.01,1.65,0.49,3.8-1.16,4.81c-25.52,15.6-52.54,29.15-80.3,40.27
			C602.13,153.44,601.69,153.52,601.26,153.52z"/>
		<g>
			<path d="M590.77,570.88c-3.55,0-6.62-1.15-9.02-3.39c-2.19-2.05-3.35-4.58-3.36-7.32c-0.02-5.35,4.23-9.65,5.08-10.45
				c4.69-4.45,10.97-6.74,17.03-6.37c0.34-4.15,0.67-9.21,0.99-14.13c0.33-4.99,0.67-10.12,1.01-14.35
				c-7.12-0.34-15.66-0.22-23.31-0.11c-1.8,0.02-3.55,0.05-5.22,0.07c-0.75,10.25-1.99,20.56-3.69,30.68
				c-0.05,0.31-0.15,0.6-0.29,0.87c1.04,2.2,1.05,5.09-0.08,8.15c-2.18,5.92-6.67,10.66-12.01,12.68
				c-6.11,2.31-13.31,0.83-17.52-3.59c-4.71-4.94-5.03-13.23-0.7-18.1c1.36-1.53,11.31-8.16,25.24-4.43
				c1.52-9.73,2.62-19.62,3.25-29.43c0.1-1.57,1.4-2.8,2.98-2.81c2.46-0.01,5.15-0.05,7.96-0.09c8.9-0.12,18.98-0.26,26.87,0.31
				c0.8,0.06,1.55,0.44,2.07,1.06c0.52,0.62,0.77,1.42,0.7,2.22c-0.43,4.56-0.86,11.02-1.27,17.27c-0.38,5.78-0.77,11.75-1.17,16.28
				c2.75,4.16,3.9,11.57,2.24,15.67c-1.39,3.41-7.76,7.55-13.65,8.84C593.46,570.72,592.08,570.88,590.77,570.88z M599.27,549.32
				c-4.14,0-8.47,1.71-11.67,4.75c-0.9,0.85-3.22,3.59-3.21,6.08c0,0.69,0.16,1.74,1.46,2.95c1.69,1.58,4.08,2.11,7.12,1.57
				c4.9-0.86,9.43-4.21,10.03-5.4c0.85-2.11-0.01-7.27-1.51-9.79C600.76,549.37,600.02,549.32,599.27,549.32z M544.09,549.59
				c-2.21,2.61-1.93,7.19,0.64,9.89c2.6,2.73,7.14,3.6,11.06,2.12c3.73-1.41,6.91-4.83,8.5-9.14c0.68-1.85,0.58-3.39,0.09-3.76
				c-0.62-0.47-1-1.13-1.14-1.84C552.08,543.9,544.69,549.14,544.09,549.59z M544.17,549.5C544.17,549.5,544.17,549.5,544.17,549.5
				C544.17,549.5,544.17,549.5,544.17,549.5z"/>
			<path d="M603.86,532.06h-33.41c-1.66,0-3-1.34-3-3s1.34-3,3-3h33.41c1.66,0,3,1.34,3,3S605.52,532.06,603.86,532.06z"/>
		</g>
		<path d="M828.06,57.83c-2.92,0-5.78-0.83-8.15-2.5c-5.17-3.64-6.96-11.11-3.91-16.33c0.94-1.61,8.58-9.27,21.58-8.56
			c-0.38-8.81-1.15-17.66-2.31-26.37c-0.21-1.56,0.83-3.02,2.37-3.33c8.26-1.69,14.96-0.44,19.38,3.63
			c5.02,4.63,6.88,12.61,5.53,23.74c-0.2,1.64-1.7,2.82-3.34,2.62c-1.65-0.2-2.82-1.69-2.62-3.34c1.11-9.1-0.12-15.37-3.63-18.61
			c-2.98-2.75-7.45-3.06-11.37-2.61c1.12,9.12,1.83,18.37,2.12,27.54c0.01,0.26-0.02,0.52-0.08,0.77c1.3,1.82,1.81,4.42,1.35,7.35
			c-0.9,5.72-4.09,10.8-8.54,13.59C833.86,57.03,830.93,57.83,828.06,57.83z M821.11,42.15c-1.39,2.55-0.34,6.45,2.25,8.27
			c2.66,1.87,6.81,1.83,9.88-0.09c3-1.87,5.17-5.4,5.8-9.43c0.26-1.64-0.08-2.89-0.43-3.06c-0.64-0.31-1.12-0.82-1.4-1.42
			C827.14,35.9,821.62,41.6,821.11,42.15z M821.18,42.04C821.18,42.04,821.18,42.04,821.18,42.04
			C821.18,42.04,821.18,42.04,821.18,42.04z"/>
	</g>
	<g>
		<path class="st7" d="M525.79,109.28c-2.46,10.38-10.41,18.64-20.61,21.54c10.21,2.9,18.15,11.16,20.61,21.54
			c2.46-10.38,10.41-18.64,20.61-21.54C536.19,127.92,528.25,119.66,525.79,109.28z"/>
		<path class="st7" d="M747.14,420.14c-14.59,6.69-31.72,4.9-44.6-4.51c6,14.78,3.56,31.84-6.47,44.36
			c14.59-6.69,31.72-4.9,44.6,4.51C734.67,449.72,737.1,432.66,747.14,420.14z"/>
		<circle class="st7" cx="820.4" cy="525.63" r="5.8"/>
		<circle class="st35" cx="867.31" cy="71.37" r="5.8"/>
		<circle class="st35" cx="813.61" cy="600.36" r="10.06"/>
	</g>
	<g>
		<g>
			<path class="st7" d="M634.57,189.55c3.79-1.11,7.58-2.24,11.36-3.39c3.87,13.31,6.32,27.06,7.29,41.03
				c-1.64,0.14-3.28,0.27-4.93,0.4c-0.84-12.18-2.84-24.2-5.95-35.88c-2.22,0.61-4.45,1.22-6.67,1.82
				C635.32,192.19,634.95,190.87,634.57,189.55z"/>
			<path class="st7" d="M656.57,205.25c-0.6-3.38-0.9-6.53-0.76-9.48c0.06-2.87,0.49-5.41,1.3-7.76c0.78-2.27,1.92-4.23,3.45-5.86
				c1.5-1.56,3.35-2.79,5.61-3.54c2.16-0.72,4.3-0.8,6.44-0.35c2.11,0.53,4.17,1.62,6.06,3.32c1.86,1.78,3.51,4.05,4.99,6.94
				c1.44,2.95,2.58,6.42,3.29,10.31c0.73,4.02,0.89,7.64,0.63,10.91c-0.3,3.35-1.02,6.22-2.08,8.58c-1.16,2.38-2.65,4.25-4.42,5.69
				c-1.88,1.33-3.96,2.14-6.33,2.37c-2.36,0.23-4.52-0.17-6.46-1.03c-2.01-0.97-3.75-2.35-5.26-4.17c-1.56-1.82-2.85-4.08-3.9-6.8
				C657.99,211.74,657.2,208.74,656.57,205.25z M661.42,204.28c0.56,3.12,1.26,5.76,2.26,7.91c0.96,2.27,2.02,4.09,3.22,5.44
				c1.16,1.48,2.39,2.44,3.75,3.1c1.3,0.61,2.56,0.88,3.74,0.74c1.23-0.15,2.42-0.71,3.62-1.66c1.15-1.01,2.16-2.32,3-4.19
				c0.8-1.74,1.38-3.97,1.65-6.67c0.24-2.57,0.12-5.61-0.51-9.05c-0.6-3.32-1.55-6.18-2.68-8.51c-1.16-2.26-2.47-4.08-3.84-5.48
				c-1.39-1.26-2.79-2.11-4.2-2.57c-1.44-0.39-2.73-0.42-3.91-0.06c-1.13,0.34-2.21,1.11-3.2,2.19c-1.02,1.16-1.82,2.59-2.41,4.31
				c-0.61,1.84-0.97,3.94-1.11,6.31C660.63,198.55,660.89,201.27,661.42,204.28z"/>
			<path class="st7" d="M690.45,198.04c-0.73-3.95-1.16-7.64-1.14-11.08c-0.07-3.35,0.25-6.3,0.95-9.02
				c0.67-2.63,1.72-4.88,3.18-6.74c1.43-1.78,3.23-3.16,5.47-3.98c2.14-0.78,4.3-0.84,6.48-0.28c2.15,0.65,4.29,1.93,6.27,3.91
				c1.96,2.07,3.72,4.69,5.33,8c1.57,3.4,2.85,7.38,3.7,11.84c0.87,4.61,1.14,8.76,0.98,12.51c-0.21,3.84-0.86,7.14-1.87,9.87
				c-1.1,2.75-2.55,4.92-4.3,6.6c-1.86,1.55-3.92,2.52-6.28,2.82c-2.36,0.3-4.52-0.13-6.48-1.1c-2.02-1.1-3.79-2.68-5.35-4.79
				c-1.6-2.1-2.94-4.73-4.07-7.91C692.08,205.63,691.19,202.12,690.45,198.04z M695.27,196.93c0.67,3.64,1.46,6.71,2.52,9.22
				c1.03,2.64,2.14,4.75,3.37,6.32c1.19,1.71,2.45,2.81,3.82,3.57c1.31,0.7,2.58,1,3.76,0.82c1.22-0.18,2.41-0.85,3.58-1.96
				c1.13-1.17,2.11-2.7,2.9-4.86c0.76-2.01,1.28-4.58,1.47-7.7c0.16-2.96-0.05-6.45-0.8-10.41c-0.72-3.82-1.79-7.1-3.01-9.8
				c-1.26-2.61-2.65-4.71-4.09-6.33c-1.45-1.47-2.9-2.47-4.34-3.01c-1.46-0.47-2.76-0.53-3.94-0.13c-1.13,0.38-2.17,1.24-3.11,2.48
				c-0.97,1.32-1.71,2.97-2.22,4.95c-0.53,2.13-0.8,4.56-0.83,7.32C694.26,190.24,694.62,193.41,695.27,196.93z"/>
			<path class="st7" d="M740.65,149.4c4.01,12.42,7.2,25.09,9.55,37.92c-7.66,2.06-15.33,4.04-23.02,5.93
				c-2.08-11.83-4.95-23.5-8.57-34.94C725.99,155.41,733.33,152.44,740.65,149.4z M735.03,197.61c0.76,4.89,1.39,9.8,1.89,14.72
				c9.77-1.71,19.53-3.56,29.27-5.53c0.25,2.31,0.48,4.63,0.69,6.94c-11.42,2.04-22.85,3.91-34.3,5.61
				c-0.54-6.92-1.34-13.81-2.39-20.65C731.8,198.34,733.42,197.98,735.03,197.61z M744.16,182.15c-1.69-8.28-3.75-16.49-6.16-24.59
				c-4.31,1.66-8.62,3.29-12.95,4.9c2.27,7.73,4.19,15.55,5.78,23.45C735.28,184.68,739.72,183.43,744.16,182.15z M758.21,165.19
				c2.23,8.85,4.06,17.8,5.5,26.82c-1.61,0.41-3.21,0.81-4.82,1.2c-2.55-16.14-6.38-32.04-11.49-47.56
				c1.52-0.65,3.04-1.31,4.56-1.96c1.61,4.89,3.11,9.81,4.47,14.77c1.82-0.68,3.63-1.36,5.44-2.05c0.63,2.28,1.24,4.56,1.82,6.85
				C761.87,163.91,760.04,164.55,758.21,165.19z"/>
			<path class="st7" d="M765.18,155.71c-0.7-2.53-1.08-4.9-1.04-7.17c-0.02-2.15,0.32-4.2,1.03-6.04c0.69-1.73,1.68-3.33,3.04-4.72
				c1.32-1.37,2.92-2.49,4.91-3.4c3.35-1.53,6.51-1.79,9.36-0.73c2.88,1.15,5.27,3.69,7.12,7.62c1.72-1.72,3.43-3.47,5.13-5.23
				c-1.07-3.45-2.2-6.88-3.38-10.29c1.5-0.72,3-1.44,4.49-2.16c7.04,20.28,12.22,41.13,15.5,62.3c-1.6,0.44-3.2,0.88-4.81,1.32
				c-2.26-14.74-5.46-29.32-9.57-43.66c-1.69,1.71-3.39,3.39-5.11,5.05c0.82,4.85,0.34,8.86-1.41,11.96
				c-1.78,3.21-4.48,5.39-8.11,6.61c-2.07,0.7-3.95,0.94-5.71,0.78c-1.81-0.14-3.42-0.73-4.87-1.71c-1.48-0.89-2.76-2.2-3.84-4.04
				C766.78,160.5,765.9,158.32,765.18,155.71z M784.88,194c-0.61-4.24-1.29-8.47-2.06-12.68c-3.94,1.14-7.87,2.26-11.82,3.35
				c-0.42-2.34-0.86-4.68-1.34-7.02c10.06-3.04,20.08-6.22,30.07-9.54c0.54,2.56,1.06,5.12,1.54,7.69
				c-4.55,1.4-9.12,2.77-13.68,4.12c0.79,4.27,1.49,8.56,2.11,12.86C788.1,193.2,786.49,193.6,784.88,194z M779.02,188.4
				c0.83,5.07,1.53,10.17,2.12,15.28c10.75-2.32,21.47-4.79,32.17-7.42c0.33,2.66,0.64,5.33,0.91,8
				c-12.38,2.75-24.78,5.29-37.21,7.63c-0.67-7.44-1.61-14.85-2.79-22.22C775.81,189.25,777.42,188.83,779.02,188.4z M769.87,153.91
				c0.45,1.62,1.01,2.92,1.77,3.87c0.74,1.05,1.59,1.77,2.56,2.18c0.95,0.51,1.97,0.71,3.08,0.69c1.07,0,2.19-0.22,3.36-0.64
				c1.13-0.41,2.2-0.99,3.12-1.82c0.94-0.73,1.69-1.6,2.27-2.71c0.56-1,0.9-2.22,1.03-3.66c0.1-1.33-0.07-2.87-0.53-4.49
				c-0.46-1.62-1.09-2.87-1.87-3.95c-0.81-0.97-1.7-1.7-2.68-2.19c-1-0.38-2.06-0.62-3.2-0.63c-1.11,0.08-2.27,0.38-3.36,0.85
				c-1.14,0.49-2.14,1.11-3,1.87c-0.9,0.77-1.59,1.74-2.11,2.73c-0.55,1.1-0.87,2.28-0.95,3.55
				C769.24,150.94,769.44,152.37,769.87,153.91z"/>
			<path class="st7" d="M809.81,147.61c-1.17-4.44-2-8.59-2.36-12.34c-0.4-3.73-0.37-7.03,0.01-9.98c0.37-2.83,1.08-5.32,2.21-7.35
				c1.11-1.91,2.56-3.45,4.34-4.36c1.73-0.88,3.62-1.04,5.6-0.64c1.97,0.52,4.02,1.73,6,3.57c1.97,1.97,3.88,4.59,5.75,7.93
				c1.78,3.39,3.43,7.57,4.75,12.33c1.31,4.77,2.02,9.2,2.24,13.09c0.15,4.04-0.1,7.51-0.75,10.43c-0.68,3.03-1.75,5.5-3.12,7.28
				c-1.38,2-3.02,3.18-4.88,3.77c-1.9,0.61-3.82,0.57-5.7-0.31c-1.89-0.67-3.68-2.1-5.36-4.17c-1.71-1.96-3.33-4.56-4.79-7.83
				C812.27,155.89,810.98,152.04,809.81,147.61z M848.11,182.58c0.44,2.92,0.84,5.85,1.21,8.78c-10.2,2.73-20.43,5.31-30.68,7.76
				c-0.31-2.7-0.65-5.4-1.03-8.1C827.8,188.34,837.97,185.53,848.11,182.58z M827.98,163.13c1.23-0.43,2.3-1.35,3.14-2.85
				c0.82-1.39,1.39-3.15,1.74-5.39c0.33-2.13,0.35-4.6,0.15-7.46c-0.19-2.63-0.71-5.6-1.55-8.68c-0.84-3.07-1.92-5.93-3.12-8.39
				c-1.21-2.33-2.45-4.31-3.78-5.88c-1.34-1.45-2.66-2.44-3.98-2.96c-1.36-0.5-2.65-0.45-3.82,0.11c-1.26,0.61-2.27,1.66-2.94,3.1
				c-0.69,1.56-1.11,3.33-1.29,5.41c-0.15,2.18-0.09,4.58,0.25,7.17c0.32,2.71,0.9,5.51,1.69,8.44c0.81,3.03,1.68,5.7,2.74,7.98
				c0.99,2.42,2.08,4.27,3.23,5.79c1.17,1.62,2.37,2.7,3.67,3.33C825.38,163.48,826.67,163.58,827.98,163.13z M857.62,191.48
				c-1.61,0.43-3.22,0.86-4.83,1.29c-3.62-29.79-10.59-59.11-20.85-87.41c1.47-0.78,2.95-1.56,4.42-2.34
				C846.79,131.66,853.9,161.33,857.62,191.48z"/>
			<path class="st7" d="M681.53,248.81c-5.08,0.01-10.16-0.02-15.24-0.08c-0.03,0.73-0.06,1.47-0.09,2.2
				c-0.12,2.55-0.78,4.92-1.84,7c5.72,3.05,11.38,6.28,16.97,9.69c-0.95,1.42-1.91,2.82-2.89,4.21
				c-5.57-3.53-11.21-6.88-16.92-10.04c-1.82,1.75-4.17,3.19-7.01,4.29c-2.93,1.14-6.54,1.92-10.77,2.2
				c-0.42-1.45-0.86-2.88-1.32-4.3c3.16-0.22,5.91-0.68,8.27-1.39c2.31-0.66,4.25-1.6,5.79-2.72c1.5-1.12,2.65-2.46,3.46-4
				c0.75-1.49,1.21-3.18,1.3-5.11c0.03-0.7,0.06-1.4,0.09-2.1c-5.59-0.09-11.17-0.22-16.75-0.39c0.06-1.42,0.1-2.85,0.12-4.27
				c12.3,0.11,24.61,0.01,36.93-0.28C681.63,245.41,681.59,247.11,681.53,248.81z M654.45,291.19c0.89-3.54,1.68-7.08,2.38-10.63
				c-5.72-0.98-11.43-2.01-17.12-3.08c0.28-1.41,0.55-2.83,0.79-4.24c13.08,2.15,26.21,4.08,39.38,5.78
				c-0.29,1.71-0.6,3.41-0.93,5.12c-5.76-0.87-11.5-1.79-17.25-2.75c-0.71,3.63-1.52,7.26-2.43,10.88
				C657.67,291.91,656.06,291.55,654.45,291.19z"/>
			<path class="st7" d="M687.3,258.23c0.18-2.43,0.61-4.59,1.39-6.64c0.68-1.92,1.68-3.66,2.95-5.11c1.22-1.38,2.67-2.53,4.41-3.39
				c1.69-0.85,3.62-1.34,5.75-1.44c2.08-0.1,4.01,0.21,5.73,0.96c1.68,0.75,3.15,1.87,4.36,3.3c1.16,1.5,2,3.39,2.6,5.51
				c0.5,2.26,0.73,4.69,0.53,7.41c-0.19,2.71-0.75,5.13-1.55,7.25c-0.91,2.18-2.01,3.98-3.38,5.45c-1.42,1.47-3.06,2.55-4.85,3.25
				c-1.84,0.69-3.82,0.93-5.9,0.75c-2.12-0.19-3.99-0.77-5.55-1.71c-1.62-0.95-2.9-2.19-3.9-3.71c-1.06-1.53-1.8-3.27-2.19-5.29
				C687.22,262.84,687.12,260.66,687.3,258.23z M693.32,279.66c-0.69,4.25-1.5,8.5-2.43,12.73c10.26,1.71,20.55,3.28,30.87,4.72
				c-0.43,2.03-0.88,4.06-1.35,6.08c-11.91-1.93-23.79-4.04-35.62-6.34c1.44-5.9,2.64-11.83,3.61-17.76
				C690.04,279.29,691.68,279.48,693.32,279.66z M700.08,269.98c1.28,0.09,2.51-0.11,3.65-0.59c1.14-0.41,2.17-1.12,3.07-2.12
				c0.89-0.93,1.61-2.16,2.24-3.61c0.52-1.38,0.91-3.06,1.04-4.88c0.13-1.82-0.02-3.5-0.34-4.97c-0.42-1.39-0.97-2.64-1.72-3.67
				c-0.76-0.96-1.67-1.76-2.75-2.28c-1.08-0.45-2.26-0.69-3.54-0.66c-1.29,0.03-2.49,0.33-3.58,0.81c-1.11,0.55-2.07,1.36-2.9,2.29
				c-0.83,0.99-1.53,2.17-1.99,3.48c-0.57,1.37-0.86,2.93-0.99,4.62c-0.13,1.7-0.07,3.27,0.31,4.6c0.26,1.39,0.79,2.61,1.48,3.58
				c0.68,1.03,1.54,1.83,2.57,2.37C697.64,269.54,698.79,269.89,700.08,269.98z M727.13,240.19c0.04,14.54-1.1,29.16-3.43,43.71
				c-1.65-0.15-3.29-0.3-4.94-0.46c2.31-14.29,3.44-28.65,3.42-42.92C723.83,240.41,725.48,240.3,727.13,240.19z"/>
			<path class="st7" d="M732.64,266.48c5.47,0.11,10.95,0.19,16.43,0.22c0.36-4.07,0.63-8.13,0.82-12.2
				c1.65-0.06,3.31-0.12,4.96-0.18c-0.19,4.13-0.46,8.27-0.82,12.4c6.19,0.01,12.39-0.02,18.59-0.11c-0.19,2.38-0.41,4.77-0.66,7.15
				c-13.34-0.11-26.67-0.46-39.96-1.03C732.23,270.66,732.44,268.57,732.64,266.48z M765.08,261.85c0.39-5.73,0.62-11.45,0.69-17.17
				c-9.69,0.75-19.39,1.38-29.09,1.88c0.04-2.11,0.06-4.21,0.06-6.31c11.33-0.84,22.66-1.85,33.98-3.03
				c0.1,8.15-0.13,16.33-0.67,24.51C768.39,261.78,766.73,261.82,765.08,261.85z M745.95,308.7c-2.75-0.4-5.19-1.09-7.23-1.88
				c-2.06-0.96-3.73-2.1-5.01-3.4c-1.31-1.39-2.22-3.03-2.65-4.82c-0.5-1.96-0.48-4.07-0.01-6.59c0.45-2.45,1.21-4.55,2.4-6.33
				c1.06-1.62,2.52-3,4.27-4.07c1.69-0.99,3.69-1.75,6-2.19c2.25-0.36,4.82-0.57,7.6-0.44c2.78,0.12,5.22,0.55,7.39,1.14
				c2.11,0.67,3.92,1.68,5.35,2.94c1.37,1.35,2.32,3.03,2.93,4.98c0.48,2.11,0.54,4.56,0.06,7.33c-0.5,2.85-1.39,5.14-2.59,7.12
				c-1.27,1.8-2.8,3.29-4.6,4.37c-1.83,1-3.97,1.67-6.28,2.05C751.24,309.12,748.71,309.1,745.95,308.7z M747.42,302.05
				c1.98,0.24,3.78,0.29,5.46,0.23c1.65-0.15,3.08-0.5,4.4-1.04c1.22-0.55,2.3-1.39,3.13-2.35c0.8-1.04,1.4-2.37,1.67-3.9
				c0.27-1.53,0.14-2.83-0.28-3.98c-0.48-1.06-1.23-2.05-2.21-2.79c-1.09-0.75-2.35-1.34-3.88-1.77c-1.6-0.35-3.36-0.63-5.34-0.76
				c-1.98-0.13-3.84-0.09-5.46,0.03c-1.68,0.2-3.15,0.57-4.34,1.12c-1.28,0.54-2.27,1.33-3.02,2.21c-0.81,0.96-1.32,2.1-1.58,3.5
				c-0.26,1.4-0.2,2.68,0.24,3.77c0.41,1.01,1.07,1.97,2.12,2.74c0.96,0.77,2.23,1.41,3.79,1.94
				C743.66,301.42,745.46,301.81,747.42,302.05z"/>
			<path class="st7" d="M777.7,273.54c13.35,0.04,26.71-0.16,40.08-0.58c-0.24,2.72-0.51,5.44-0.81,8.16
				c-13.38,0.13-26.75,0.02-40.09-0.31C777.18,278.38,777.46,275.96,777.7,273.54z M798.37,265.42c-5.87,0.22-10.15-0.96-12.86-3.48
				c-2.82-2.43-4.02-6.37-3.86-11.82c0.15-5.36,1.58-9.49,4.52-12.53c2.84-2.85,7.15-4.77,12.97-5.56
				c5.77-0.78,10.16,0.02,13.17,2.36c2.96,2.53,4.52,6.8,4.41,12.73c-0.11,6.03-1.81,10.62-4.9,13.53
				C808.68,263.66,804.2,265.2,798.37,265.42z M783.47,287.22c-0.78,5.52-1.7,11.04-2.76,16.54c10.2,0.89,20.42,1.64,30.65,2.26
				c-0.49,2.69-1.01,5.38-1.57,8.07c-11.88-0.98-23.73-2.15-35.54-3.49c1.71-7.83,3.13-15.7,4.25-23.58
				C780.16,287.09,781.81,287.16,783.47,287.22z M798.84,257.7c8.39-0.48,12.8-3.83,12.92-10.09c0.11-6.27-4.16-8.84-12.51-7.88
				c-8.37,0.95-12.5,4.25-12.64,10.03C786.44,255.54,790.43,258.17,798.84,257.7z"/>
			<path class="st7" d="M830.37,293.6c1.17-8.3,2.06-16.63,2.67-24.95c1.4-0.18,2.79-0.77,4.19-1.69c1.35-0.92,2.63-2.15,3.76-3.82
				c1.09-1.55,2.03-3.42,2.77-5.82c0.69-2.29,1.13-4.99,1.2-8.08c0.06-2.77-0.17-5.08-0.61-7.15c-0.49-1.85-1.14-3.46-1.94-4.61
				c-0.85-1.15-1.81-1.85-2.8-2.34c-1.09-0.36-2.19-0.52-3.27-0.36c-1.19,0.17-2.21,0.74-3.1,1.69c-0.93,1.06-1.71,2.3-2.4,3.72
				c-0.74,1.53-1.34,3.14-1.86,5.03c-0.52,1.9-0.95,3.87-1.3,5.94c-1.37-1.09-2.75-2.16-4.13-3.23c0.56-3.48,1.32-6.59,2.19-9.33
				c0.83-2.54,1.77-4.8,2.92-6.61c1.09-1.7,2.35-3.03,3.7-4.07c1.36-0.94,2.76-1.6,4.34-1.86c2.16-0.36,4.11-0.07,5.83,0.81
				c1.62,1,3.06,2.37,4.19,4.22c1.09,1.97,1.93,4.42,2.49,7.14c0.51,2.84,0.8,5.93,0.75,9.16c-0.12,7.44-1.42,13.49-3.58,17.91
				c-2.22,4.54-5.23,7.76-8.88,9.69c-0.56,6.23-1.26,12.45-2.13,18.66C833.7,293.64,832.04,293.62,830.37,293.6z M828.69,304.45
				c1.66,0.07,3.33,0.13,4.99,0.19c-0.62,3.69-1.3,7.38-2.03,11.06c-1.66-0.11-3.32-0.22-4.98-0.33
				C827.39,311.73,828.07,308.09,828.69,304.45z"/>
			<path class="st7" d="M852.46,293.64c3.04-22.85,4.08-45.82,3.17-68.64c1.64-0.29,3.28-0.59,4.92-0.89
				c0.96,23.1-0.06,46.34-3.09,69.48C855.79,293.61,854.12,293.63,852.46,293.64z M850.77,305.11c1.67,0.03,3.33,0.07,5,0.09
				c-0.63,3.9-1.31,7.8-2.05,11.7c-1.67-0.08-3.33-0.15-5-0.24C849.46,312.82,850.14,308.97,850.77,305.11z"/>
		</g>
	</g>
</g>
</svg>
