<svg xmlns="http://www.w3.org/2000/svg" viewBox="0 0 489.4 74.27"><defs><style>.cls-1{fill:#fff;}.cls-2{isolation:isolate;}</style></defs><title>p-subtitle</title><g id="레이어_2" data-name="레이어 2"><g id="Layer_1" data-name="Layer 1"><rect class="cls-1" x="1" y="1" width="487.4" height="72.27" rx="36.13"/><path d="M452.26,74.27H37.13A37.14,37.14,0,0,1,37.13,0H452.26a37.13,37.13,0,1,1,0,74.26ZM37.13,2a35.13,35.13,0,0,0,0,70.26H452.26a35.13,35.13,0,0,0,0-70.26Z"/><g class="cls-2"><g class="cls-2"><path d="M88.43,17.39v7.52H79.37v.65a10.08,10.08,0,0,1-.14,1.77l10.5,5.51-5.22,6.68-8.92-5.46a18.22,18.22,0,0,1-5.22,3.5,26.07,26.07,0,0,1-6.87,2l-4.15-7.05c1.43-.28,2.78-.62,4-1A14.94,14.94,0,0,0,66.68,30,7.57,7.57,0,0,0,68.9,28.1a4.22,4.22,0,0,0,.81-2.58v-.61H61.12V17.39ZM101,41.24v16.1H64.16V41.24ZM73.82,47.82v2.94H91.37V47.82ZM101,16.93V39.61H91.37V16.93Z"/><path d="M117.41,34.62a5.6,5.6,0,0,1,0,.6c0,.19,0,.38,0,.56L122,39.56c.06-.71.11-1.49.14-2.33s0-1.73,0-2.66V17.3h8.72V34.62q0,2.7-.21,5A27.8,27.8,0,0,1,130,44L136.26,49,131,55.85l-4.67-4.34a20.63,20.63,0,0,1-6.72,5l-4.53-5.32a19.82,19.82,0,0,0,2.53-1.61,10.13,10.13,0,0,0,1.86-1.84l-3.36-2.8a16,16,0,0,1-3.41,5.86,18.74,18.74,0,0,1-6.25,4.27l-4.9-6.54a13.68,13.68,0,0,0,3.36-1.93,8.55,8.55,0,0,0,2.19-2.71A12.93,12.93,0,0,0,108.31,40a33.69,33.69,0,0,0,.37-5.43V17.3h8.73Zm29.35-4h4.06v8h-4.06V56.41H137.1V16.93h9.66Z"/><path d="M188.16,55.94H160.67v-8h2.8v-22h-2.8v-8h27.49v8h-2.8v22h2.8Zm-15.49-8h3.5v-22h-3.5ZM200,30.6H204v8H200V56.41h-9.66V16.93H200Z"/><path d="M204.4,48.38h40.37v8H204.4ZM243,37.32v7.1H206.69V17.86h35.79V25H216.35v2.62h26.13v7.09H216.35v2.66Z"/><path d="M257.14,17.86V47.92h14.09v8H247.48V17.86Zm29.17,38.55h-9.67V37l-10,3.36V31.58l10-3.36V16.93h9.67Z"/><path d="M326.82,36.9a31.76,31.76,0,0,1-1.19,9.41,17,17,0,0,1-3.13,6,10.92,10.92,0,0,1-4.41,3.18,14.26,14.26,0,0,1-10.13,0,10.92,10.92,0,0,1-4.41-3.18,16.46,16.46,0,0,1-3.1-6,32.15,32.15,0,0,1-1.17-9.41,32.08,32.08,0,0,1,1.17-9.4,16.43,16.43,0,0,1,3.1-6A10.89,10.89,0,0,1,308,18.33a14.12,14.12,0,0,1,10.13,0,10.89,10.89,0,0,1,4.41,3.17,16.92,16.92,0,0,1,3.13,6A31.68,31.68,0,0,1,326.82,36.9Zm-17.93,0a41.68,41.68,0,0,0,.33,5.84,13.15,13.15,0,0,0,.91,3.5,3.73,3.73,0,0,0,1.33,1.7,3,3,0,0,0,1.59.44,2.94,2.94,0,0,0,1.54-.44,3.6,3.6,0,0,0,1.3-1.68,13.5,13.5,0,0,0,.91-3.5,39.22,39.22,0,0,0,.35-5.9A38.44,38.44,0,0,0,316.8,31a13.66,13.66,0,0,0-.91-3.48,3.6,3.6,0,0,0-1.3-1.68,3,3,0,0,0-1.54-.44,3.13,3.13,0,0,0-1.59.44,3.76,3.76,0,0,0-1.33,1.71,13,13,0,0,0-.91,3.5A41.52,41.52,0,0,0,308.89,36.9Zm30.62,19.51h-9.66V16.93h9.66Z"/><path d="M367.14,32.33l-2.57.56v7.89H343.15V17.39h8.35V21.5h4.72V17.39h8.35v6.68l2.57-.56V16.93h9.05V45.26h-9.05ZM354.77,43.58v5.78h33v8H345.11V43.58Zm1.45-14.52H351.5v4.16h4.72Zm22,16.2V16.93h9.1V45.26Z"/><path d="M389.68,48.38h40.37v8H389.68Zm38.55-11.06v7.1H392V17.86h35.79V25H401.63v2.62h26.13v7.09H401.63v2.66Z"/></g></g></g></g></svg>