<svg height="486pt" viewBox="0 0 486 486.4751" width="486pt" xmlns="http://www.w3.org/2000/svg" xmlns:xlink="http://www.w3.org/1999/xlink"><linearGradient id="linear0" gradientUnits="userSpaceOnUse" x1="243.488274" x2="243.488274" y1="20.963724" y2="467.282724"><stop offset="0" stop-color="#00efd1"/><stop offset="1" stop-color="#00acea"/></linearGradient><g fill="url(#linear0)"><path d="m243.488281 146.492188c-53.4375 0-96.757812 43.320312-96.757812 96.757812s43.320312 96.757812 96.757812 96.757812 96.757813-43.320312 96.757813-96.757812c-.0625-53.410156-43.34375-96.695312-96.757813-96.757812zm-49.300781 165.425781c1.519531-21.6875 19.492188-38.542969 41.230469-38.667969h16.140625c21.738281.125 39.710937 16.980469 41.230468 38.667969-29.457031 21.171875-69.144531 21.171875-98.601562 0zm49.40625-53.277344c-14.273438 0-25.847656-11.574219-25.847656-25.847656 0-14.277344 11.574218-25.847657 25.847656-25.847657 14.277344 0 25.847656 11.570313 25.847656 25.847657-.015625 14.269531-11.578125 25.832031-25.847656 25.847656zm59.925781 44.378906c-4.449219-19.113281-19.003906-34.253906-37.925781-39.460937 13.382812-9.558594 19.0625-26.664063 14.050781-42.328125-5.011719-15.664063-19.566406-26.300781-36.011719-26.316407-16.445312-.015624-31.019531 10.589844-36.0625 26.242188-5.042968 15.65625.601563 32.773438 13.964844 42.359375-18.992187 5.164063-33.617187 20.332031-38.082031 39.5-33.015625-33.128906-32.957031-86.742187.136719-119.796875 33.089844-33.054688 86.703125-33.054688 119.796875 0 33.089843 33.054688 33.152343 86.667969.132812 119.796875zm0 0"/><path d="m454.601562 211.144531c-15.410156.019531-28.636718 10.972657-31.535156 26.105469h-46.1875c-1.445312-31.386719-13.957031-61.25-35.3125-84.300781l32.730469-32.722657c13.542969 9.511719 32.101563 7.160157 42.84375-5.429687s10.144531-31.289063-1.378906-43.167969c-11.527344-11.875-30.195313-13.039062-43.105469-2.679687s-15.820312 28.835937-6.71875 42.660156l-32.890625 32.890625c-23.238281-21.105469-53.1875-33.3125-84.558594-34.464844v-46.183594c16.371094-2.574218 28.097657-17.175781 27.074219-33.714843-1.023438-16.542969-14.464844-29.585938-31.027344-30.121094-16.5625-.53125-30.8125 11.625-32.898437 28.0625-2.082031 16.441406 8.679687 31.769531 24.851562 35.386719v46.648437c-31.082031 1.617188-60.613281 14.078125-83.453125 35.214844l-32.703125-32.699219c9.597657-13.457031 7.386719-32.003906-5.105469-42.824218-12.492187-10.820313-31.167968-10.363282-43.113281 1.054687-11.949219 11.417969-13.25 30.054687-3.007812 43.023437 10.246093 12.96875 28.675781 16.015626 42.550781 7.039063l32.925781 32.921875c-21.09375 23.191406-33.320312 53.082031-34.519531 84.40625h-45.972656c-2.574219-16.371094-17.179688-28.097656-33.71875-27.074219-16.539063 1.027344-29.585938 14.464844-30.117188 31.027344s11.621094 30.8125 28.0625 32.898437c16.441406 2.085938 31.765625-8.679687 35.386719-24.851562h46.417969c1.5625 31.085938 13.972656 60.636719 35.074218 83.515625l-32.515624 32.511719c-13.542969-9.511719-32.101563-7.160156-42.84375 5.429687-10.742188 12.589844-10.144532 31.289063 1.378906 43.164063 11.527344 11.878906 30.195312 13.042968 43.105468 2.683594 12.90625-10.359376 15.816407-28.835938 6.71875-42.660157l32.660157-32.664062c23.011719 21.003906 52.664062 33.261719 83.789062 34.636719v45.960937c-16.273437 3.097656-27.519531 18.0625-25.964843 34.554687 1.554687 16.492188 15.402343 29.09375 31.964843 29.09375s30.410157-12.601562 31.964844-29.09375c1.554687-16.492187-9.691406-31.457031-25.964844-34.554687v-45.960937c31.390625-1.390626 61.277344-13.847657 84.359375-35.167969l32.539063 32.542969c-9.425781 13.609374-6.949219 32.15625 5.71875 42.816406 12.664062 10.664062 31.359375 9.941406 43.164062-1.667969 11.804688-11.609375 12.839844-30.289063 2.390625-43.132813-10.445312-12.84375-28.949218-15.628906-42.714844-6.429687l-32.636718-32.636719c21.015625-23.058594 33.257812-52.769531 34.585937-83.941406h46.171875c3.171875 16.648438 18.734375 27.960938 35.550782 25.84375 16.8125-2.121094 29.082031-16.945312 28.019531-33.859375s-15.089844-30.089844-32.035157-30.089844zm-76.050781-131.394531c7.851563-7.851562 20.582031-7.851562 28.433594 0 7.855469 7.851562 7.855469 20.582031 0 28.4375-7.851563 7.851562-20.582031 7.851562-28.433594 0-3.785156-3.765625-5.914062-8.882812-5.914062-14.21875 0-5.339844 2.128906-10.457031 5.914062-14.21875zm-155.167969-47.613281c0-11.105469 9.003907-20.105469 20.105469-20.105469 11.105469 0 20.105469 9.003906 20.105469 20.105469 0 11.105469-9 20.105469-20.105469 20.105469-11.097656-.011719-20.09375-9.007813-20.105469-20.105469zm-143.394531 76.050781c-7.851562-7.851562-7.851562-20.582031 0-28.433594 7.851563-7.851562 20.582031-7.851562 28.433594 0 7.855469 7.851563 7.855469 20.582032 0 28.433594-7.855469 7.839844-20.574219 7.839844-28.433594 0zm-47.613281 155.167969c-11.105469 0-20.105469-9-20.105469-20.105469s9.003907-20.105469 20.105469-20.105469c11.105469 0 20.105469 9.003907 20.105469 20.105469-.011719 11.101562-9.007813 20.09375-20.105469 20.105469zm76.050781 143.394531c-7.765625 7.785156-20.34375 7.890625-28.238281.234375-7.890625-7.65625-8.167969-20.234375-.621094-28.234375 7.546875-7.996094 20.117188-8.445312 28.21875-1.011719.238282.390625.523438.753907.84375 1.082031.289063.289063.609375.550782.953125.773438 6.707031 7.984375 6.207031 19.769531-1.15625 27.15625zm155.167969 47.617188c0 11.105468-9.003906 20.105468-20.109375 20.101562-11.101563 0-20.101563-9.003906-20.101563-20.105469 0-11.105469 9-20.105469 20.105469-20.105469 11.097657.011719 20.09375 9.007813 20.105469 20.105469zm143.394531-76.054688c7.851563 7.851562 7.851563 20.582031 0 28.4375-7.851562 7.851562-20.582031 7.851562-28.433593 0-7.855469-7.855469-7.855469-20.585938 0-28.4375 7.855468-7.839844 20.574218-7.839844 28.433593 0zm-163.5-13.304688c-67.125 0-121.539062-54.414062-121.539062-121.535156 0-67.125 54.414062-121.539062 121.539062-121.539062s121.539063 54.414062 121.539063 121.539062c-.078125 67.089844-54.445313 121.460938-121.539063 121.535156zm211.113281-101.652343c-11.105468 0-20.105468-9-20.105468-20.105469 0-11.101562 9-20.105469 20.105468-20.105469 11.105469 0 20.105469 9.003907 20.105469 20.105469-.011719 11.101562-9.003906 20.09375-20.105469 20.105469zm0 0"/></g></svg>