<svg height="483pt" viewBox="0 0 483 483.77252" width="483pt" xmlns="http://www.w3.org/2000/svg" xmlns:xlink="http://www.w3.org/1999/xlink"><linearGradient id="lg1"><stop offset="0" stop-color="#00efd1"/><stop offset="1" stop-color="#00acea"/></linearGradient><linearGradient id="linear0" gradientUnits="userSpaceOnUse" x1="242.38626" x2="242.38626" xlink:href="#lg1" y1="19.485518" y2="465.804518"/><linearGradient id="linear3" gradientUnits="userSpaceOnUse" x1="444.38626" x2="444.38626" xlink:href="#lg1" y1="19.485518" y2="465.804518"/><linearGradient id="linear4" gradientUnits="userSpaceOnUse" x1="39.88626" x2="39.88626" xlink:href="#lg1" y1="19.485518" y2="465.804518"/><linearGradient id="linear5" gradientUnits="userSpaceOnUse" x1="398.88626" x2="398.88626" xlink:href="#lg1" y1="19.485518" y2="465.804518"/><linearGradient id="linear6" gradientUnits="userSpaceOnUse" x1="85.88626" x2="85.88626" xlink:href="#lg1" y1="19.485518" y2="465.804518"/><g fill="url(#linear0)"><path d="m312.378906 303c13.507813-15.378906 21.542969-34.800781 22.851563-55.226562h38.15625c3.3125 0 6-2.6875 6-6 0-3.316407-2.6875-6-6-6h-38.15625c-1.320313-20.617188-9.492188-40.203126-23.21875-55.644532l27.167969-27.164062c2.339843-2.34375 2.339843-6.144532 0-8.488282-2.34375-2.339843-6.144532-2.339843-8.488282.003907l-27.195312 27.199219c-15.617188-13.675782-35.378906-21.710938-56.109375-22.8125v-38.09375c0-3.316407-2.6875-6-6-6s-6 2.683593-6 6v38.21875c-20.3125 1.523437-39.558594 9.699218-54.761719 23.257812l-27.269531-27.269531c-2.34375-2.34375-6.140625-2.34375-8.484375 0s-2.34375 6.144531 0 8.484375l27.316406 27.3125c-13.613281 15.605468-21.609375 35.316406-22.707031 55.996094h-38.09375c-3.3125 0-6 2.683593-6 6 0 3.3125 2.6875 6 6 6h38.21875c1.519531 20.257812 9.65625 39.457031 23.152343 54.640624l-27.382812 27.386719c-2.34375 2.34375-2.34375 6.144531 0 8.488281s6.140625 2.34375 8.484375 0l27.414063-27.417968c15.363281 13.445312 34.738281 21.441406 55.113281 22.746094v38.15625c0 3.3125 2.6875 6 6 6s6-2.6875 6-6v-38.15625c20.5625-1.316407 40.101562-9.449219 55.527343-23.113282l27.28125 27.28125c1.511719 1.535156 3.730469 2.144532 5.816407 1.589844 2.082031-.550781 3.710937-2.179688 4.261719-4.261719.550781-2.082031-.058594-4.300781-1.59375-5.8125zm-69.992187 19.816406c-16.890625-.0625-33.335938-5.417968-47.027344-15.316406 1.515625-20.613281 18.617187-36.605469 39.289063-36.726562h15.476562c20.671875.121093 37.773438 16.113281 39.285156 36.726562-13.6875 9.898438-30.132812 15.253906-47.023437 15.316406zm.097656-66.53125c-13.554687 0-24.542969-10.988281-24.542969-24.542968 0-13.554688 10.988282-24.542969 24.542969-24.542969s24.542969 10.988281 24.542969 24.542969c-.011719 13.546874-10.992188 24.527343-24.542969 24.542968zm-.097656-95.554687c32.664062-.019531 62.144531 19.582031 74.761719 49.714843 12.613281 30.132813 5.890624 64.894532-17.050782 88.148438-4.371094-18.039062-18.101562-32.339844-35.949218-37.441406 12.710937-9.355469 17.980468-25.8125 13.066406-40.8125-4.917969-14.996094-18.90625-25.144532-34.691406-25.160156-15.78125-.015626-29.792969 10.105468-34.738282 25.09375-4.945312 14.988281.292969 31.457031 12.988282 40.839843-17.917969 5.0625-31.714844 19.386719-36.101563 37.480469-22.9375-23.253906-29.660156-58.015625-17.046875-88.148438 12.613281-30.132812 42.09375-49.734374 74.761719-49.714843zm0 0"/><path d="m209.042969 96.773438h66.6875c1.550781-.003907 3.03125-.636719 4.101562-1.761719 1.066407-1.121094 1.628907-2.632813 1.554688-4.179688v-6.085937c0-19.015625-15.128907-34.972656-34.144531-34.972656h-.65625c11.914062-1 21.03125-12.109376 21.03125-24.578126.015624-13.898437-11.238282-25.179687-25.136719-25.195312-13.898438-.015625-25.179688 11.234375-25.195313 25.132812 0 12.46875 9.113282 23.640626 21.03125 24.640626h-.785156c-19.019531 0-34.144531 15.957031-34.144531 34.972656v6.085937c-.074219 1.546875.488281 3.058594 1.554687 4.179688 1.070313 1.125 2.550782 1.757812 4.101563 1.761719zm20.242187-71.335938c0-7.269531 5.894532-13.164062 13.167969-13.164062 7.269531 0 13.164063 5.894531 13.164063 13.164062 0 7.273438-5.894532 13.164062-13.167969 13.164062-7.265625-.007812-13.152344-5.898437-13.164063-13.164062zm-13.898437 59.308594c0-12.402344 9.742187-22.972656 22.144531-22.972656h9.710938c12.402343 0 22.144531 10.570312 22.144531 22.972656v.027344h-54zm0 0"/><path d="m247.242188 436.773438h-.65625c12.917968-2.152344 22.023437-13.851563 20.945312-26.898438-1.078125-13.050781-11.984375-23.09375-25.082031-23.09375-13.09375 0-24 10.042969-25.078125 23.09375-1.082032 13.046875 8.027344 24.746094 20.945312 26.898438h-.785156c-9.101562.007812-17.824219 3.644531-24.230469 10.101562-6.410156 6.460938-9.980469 15.210938-9.914062 24.3125v6.085938c0 3.3125 2.339843 6.5 5.65625 6.5h66.6875c3.3125 0 5.65625-3.1875 5.65625-6.5v-6.085938c.0625-9.101562-3.503907-17.851562-9.914063-24.3125-6.410156-6.457031-15.128906-10.09375-24.230468-10.101562zm-17.957032-24.894532c0-7.269531 5.894532-13.164062 13.167969-13.164062 7.269531 0 13.164063 5.894531 13.164063 13.164062 0 7.269532-5.894532 13.164063-13.164063 13.164063-7.269531-.007813-13.15625-5.898438-13.167969-13.164063zm40.101563 59.894532h-54v-.585938c-.070313-5.917969 2.234375-11.621094 6.394531-15.828125 4.160156-4.210937 9.832031-6.582031 15.75-6.585937h9.710938c5.917968.003906 11.589843 2.375 15.75 6.585937 4.160156 4.207031 6.460937 9.910156 6.394531 15.828125zm0 0"/></g><path d="m449.398438 243.773438h-.65625c12.914062-2.152344 22.023437-13.847657 20.945312-26.898438-1.082031-13.050781-11.988281-23.089844-25.082031-23.089844s-24 10.039063-25.078125 23.089844 8.027344 24.746094 20.945312 26.898438h-.785156c-9.09375-.050782-17.832031 3.53125-24.273438 9.953124-6.4375 6.417969-10.046874 15.144532-10.027343 24.238282v6.085937c-.03125 1.542969.574219 3.03125 1.671875 4.113281 1.101562 1.082032 2.597656 1.664063 4.140625 1.609376h66.6875c1.511719.042968 2.96875-.554688 4.015625-1.644532s1.585937-2.570312 1.484375-4.078125v-6.085937c.089843-9.058594-3.453125-17.777344-9.84375-24.207032-6.386719-6.425781-15.082031-10.023437-24.144531-9.984374zm-17.957032-25.113282c0-7.273437 5.894532-13.167968 13.164063-13.167968 7.273437 0 13.167969 5.894531 13.167969 13.164062 0 7.273438-5.894532 13.167969-13.167969 13.167969-7.265625-.011719-13.15625-5.898438-13.164063-13.164063zm39.945313 59.113282h-54v.191406c-.027344-5.910156 2.320312-11.585938 6.511719-15.757813 4.1875-4.171875 9.875-6.488281 15.789062-6.433593h9.710938c5.878906-.042969 11.527343 2.289062 15.664062 6.46875 4.140625 4.175781 6.417969 9.84375 6.324219 15.722656zm0 0" fill="url(#linear3)"/><path d="m79.386719 284.050781v-6.085937c.019531-9.09375-3.589844-17.820313-10.03125-24.238282-6.4375-6.421874-15.175781-10.003906-24.269531-9.953124h-.65625c12.917968-2.152344 22.023437-13.851563 20.945312-26.898438-1.082031-13.050781-11.984375-23.089844-25.078125-23.089844s-24 10.039063-25.082031 23.089844c-1.078125 13.046875 8.027344 24.746094 20.945312 26.898438h-.785156c-19.015625 0-34.988281 15.175781-34.988281 34.191406v6.085937c0 3.316407 3.1875 5.722657 6.5 5.722657h66.6875c1.542969.054687 3.039062-.527344 4.140625-1.609376 1.097656-1.082031 1.703125-2.570312 1.671875-4.113281zm-52.257813-65.390625c0-7.273437 5.894532-13.167968 13.164063-13.167968 7.273437 0 13.167969 5.894531 13.167969 13.164062 0 7.273438-5.894532 13.167969-13.164063 13.167969-7.269531-.011719-13.15625-5.898438-13.167969-13.164063zm40.257813 59.113282h-55v.191406c0-12.398438 10.585937-22.191406 22.988281-22.191406h9.710938c5.914062-.054688 11.597656 2.261718 15.789062 6.433593s6.535156 9.847657 6.511719 15.757813zm0 0" fill="url(#linear4)"/><path d="m403.898438 390.773438h-.65625c12.914062-2.152344 22.023437-13.847657 20.945312-26.898438-1.082031-13.050781-11.988281-23.089844-25.082031-23.089844s-24 10.039063-25.078125 23.089844 8.027344 24.746094 20.945312 26.898438h-.785156c-19.183594.195312-34.667969 15.730468-34.800781 34.914062v6.085938c.148437 3.371093 2.9375 6.023437 6.3125 6h66.6875c3.3125 0 6-2.6875 6-6v-6.085938c0-19.015625-15.472657-34.914062-34.488281-34.914062zm-17.957032-24.394532c0-7.269531 5.894532-13.164062 13.164063-13.164062 7.273437 0 13.167969 5.894531 13.167969 13.164062 0 7.269532-5.894532 13.164063-13.167969 13.164063-7.265625-.007813-13.15625-5.898438-13.164063-13.164063zm40.445313 59.394532h-55v-.085938c.125-12.558594 10.242187-22.726562 22.800781-22.914062h9.710938c12.398437 0 22.488281 10.511718 22.488281 22.914062zm0 0" fill="url(#linear5)"/><path d="m90.585938 390.773438h-.65625c12.917968-2.152344 22.027343-13.851563 20.945312-26.898438-1.078125-13.050781-11.984375-23.09375-25.078125-23.09375-13.097656 0-24.003906 10.042969-25.082031 23.09375-1.078125 13.046875 8.027344 24.746094 20.945312 26.898438h-.785156c-19.015625 0-34.488281 15.898437-34.488281 34.914062v6.085938c0 3.3125 2.6875 6 6 6h66.6875c3.375.023437 6.164062-2.628907 6.3125-6v-6.085938c-.132813-19.183594-15.617188-34.71875-34.800781-34.914062zm-17.957032-24.394532c0-7.269531 5.894532-13.164062 13.167969-13.164062 7.269531 0 13.164063 5.894531 13.164063 13.164062 0 7.269532-5.894532 13.164063-13.164063 13.164063-7.269531-.007813-13.160156-5.898438-13.167969-13.164063zm40.757813 59.394532h-55v-.085938c0-12.402344 10.085937-22.914062 22.488281-22.914062h9.710938c12.558593.1875 22.675781 10.355468 22.800781 22.914062zm0 0" fill="url(#linear6)"/><path d="m365.699219 142.773438h66.6875c3.3125 0 6-3.128907 6-6.441407v-6.085937c-.023438-19.035156-15.453125-34.457032-34.488281-34.472656h-.65625c12.914062-2.152344 22.023437-13.847657 20.945312-26.898438-1.082031-13.050781-11.988281-23.089844-25.082031-23.089844s-24 10.039063-25.078125 23.089844 8.027344 24.746094 20.945312 26.898438h-.785156c-19.019531 0-34.800781 15.457031-34.800781 34.472656v6.085937c.109375 3.460938 2.855469 6.257813 6.3125 6.441407zm20.242187-71.835938c0-7.269531 5.894532-13.164062 13.164063-13.164062 7.273437 0 13.167969 5.894531 13.167969 13.164062s-5.894532 13.164062-13.167969 13.164062c-7.265625-.007812-13.15625-5.898437-13.164063-13.164062zm-14.554687 59.308594c.160156-12.472656 10.328125-22.492188 22.800781-22.472656h9.710938c12.410156.003906 22.472656 10.0625 22.488281 22.472656v.527344h-55zm0 0" fill="url(#linear5)"/><path d="m52.386719 142.773438h66.6875c3.457031-.183594 6.199219-2.980469 6.3125-6.441407v-6.085937c0-19.015625-15.785157-34.472656-34.800781-34.472656h-.65625c12.917968-2.152344 22.023437-13.851563 20.945312-26.898438-1.082031-13.050781-11.984375-23.089844-25.078125-23.089844s-24 10.039063-25.082031 23.089844c-1.078125 13.046875 8.027344 24.746094 20.945312 26.898438h-.785156c-19.035156.015624-34.464844 15.4375-34.488281 34.472656v6.085937c0 3.3125 2.6875 6.441407 6 6.441407zm20.242187-71.835938c0-7.269531 5.894532-13.164062 13.167969-13.164062 7.269531 0 13.164063 5.894531 13.164063 13.164062s-5.894532 13.164062-13.164063 13.164062c-7.269531-.007812-13.160156-5.898437-13.167969-13.164062zm-14.242187 59.308594c.015625-12.410156 10.078125-22.46875 22.488281-22.472656h9.710938c12.472656-.019532 22.636718 10 22.800781 22.472656v.527344h-55zm0 0" fill="url(#linear6)"/></svg>