<svg height="480pt" viewBox="-2 0 480 480.13306" width="480pt" xmlns="http://www.w3.org/2000/svg" xmlns:xlink="http://www.w3.org/1999/xlink"><linearGradient id="a"><stop offset="0" stop-color="#00efd1"/><stop offset="1" stop-color="#00acea"/></linearGradient><linearGradient id="b" gradientUnits="userSpaceOnUse" x1="238.399573" x2="238.399573" xlink:href="#a" y1="2.777" y2="486.756"/><linearGradient id="c" gradientUnits="userSpaceOnUse" x1="367.730573" x2="367.730573" xlink:href="#a" y1="2.777" y2="486.756"/><linearGradient id="d" gradientUnits="userSpaceOnUse" x1="108.848573" x2="108.848573" xlink:href="#a" y1="2.777" y2="486.756"/><path d="m186.289062 206.351562v67.550782c0 15.363281 12.199219 28.164062 27.5625 28.164062h48.464844c15.460938-.152344 27.925782-12.703125 27.972656-28.164062v-67.53125c38-18.644532 62.859376-56.269532 62.859376-97.242188 0-60.175781-51.527344-109.128906-114.828126-109.128906-63.304687 0-114.667968 48.953125-114.667968 109.128906 0 40.882813 24.636718 78.503906 62.636718 97.222656zm16 24.714844h72v6h-72zm0 22h72v6h-72zm60.027344 33h-48.464844c-6.054687 0-11.054687-5-11.761718-11h71.988281c-.707031 6-5.707031 11-11.761719 11zm-24.027344-270.066406c54.480469 0 98.800782 41.777344 98.800782 93.128906 0 36.269532-22.742188 69.542969-58.027344 84.765625-2.917969 1.273438-4.796875 4.164063-4.773438 7.347657v13.824218h-27.574218l-.058594-84.609375c4.917969 1.429688 9.390625 4.09375 12.992188 7.734375 3.105468 3.140625 8.171874 3.167969 11.3125.058594 3.140624-3.105469 3.167968-8.171875.058593-11.3125-18.082031-18.117188-47.382812-18.285156-65.671875-.371094-3.152344 3.09375-3.203125 8.160156-.113281 11.316406 3.09375 3.152344 8.160156 3.203126 11.316406.113282 3.910157-3.839844 8.785157-6.554688 14.105469-7.863282l.058594 84.933594h-28.425782v-13.824218c-.058593-3.207032-1.996093-6.078126-4.949218-7.335938-35.054688-15.289062-57.777344-48.566406-57.777344-84.777344 0-51.351562 44.25-93.128906 98.726562-93.128906zm0 0" fill="url(#b)"/><path d="m453.378906 110.175781c-.664062-4.179687-4.46875-7.121093-8.679687-6.707031-19.15625 1.847656-33.480469 18.414062-32.542969 37.636719l1.4375 58.933593c-15.757812 1.570313-29.550781 11.261719-36.367188 25.554688l-21.535156 45.21875c-3.351562 7.011719-8.234375 13.179688-14.292968 18.050781l-4.476563 3.589844c-22.765625 18.164063-35.453125 46.136719-34.117187 75.234375l-8.800782-4.191406c-3.988281-1.898438-8.761718-.207032-10.660156 3.78125l-23.617188 49.589844c-1.898437 3.988281-.207031 8.761718 3.785157 10.660156l108.816406 51.828125c1.914063.914062 4.113281 1.027343 6.113281.316406 2-.707031 3.636719-2.183594 4.546875-4.101563l23.617188-49.585937c1.898437-3.992187.207031-8.761719-3.78125-10.664063l-4.644531-2.210937-1.160157-15.511719c-.464843-6.058594 1.445313-12.0625 5.324219-16.738281l56.351562-68.195313c.117188-.136718.222657-.277343.328126-.421874 11.617187-16.21875 17.742187-35.726563 17.480468-55.671876-.007812-.378906-.042968-.757812-.101562-1.132812zm-81.394531 351.289063-94.371094-44.945313 16.734375-35.140625 94.371094 44.945313zm74.207031-158.777344-56.179687 67.976562c-6.519531 7.859376-9.726563 17.945313-8.945313 28.128907l.476563 6.394531-61.851563-29.457031c-4.398437-26.789063 6.019532-53.863281 27.238282-70.796875l4.476562-3.585938c7.9375-6.382812 14.335938-14.464844 18.726562-23.652344l21.539063-45.222656c5.628906-11.789062 18.386719-18.421875 31.269531-16.261718l-31.484375 66.105468c-1.246093 2.585938-1.015625 5.636719.605469 8.003906 1.621094 2.367188 4.386719 3.683594 7.246094 3.449219 2.859375-.230469 5.375-1.976562 6.59375-4.570312l35.402344-74.335938c1.898437-3.988281.203124-8.761719-3.785157-10.660156-2.535156-1.207031-5.175781-2.171875-7.890625-2.886719l-1.484375-60.699218c0-.070313 0-.140626-.007812-.210938-.40625-7.875 3.832031-15.257812 10.835937-18.875l21.539063 135.835938c.09375 16.234374-4.914063 32.085937-14.320313 45.320312zm0 0" fill="url(#c)"/><path d="m193.234375 367.277344c-1.898437-3.988282-6.671875-5.679688-10.660156-3.78125l-8.800781 4.191406c1.332031-29.097656-11.351563-57.070312-34.117188-75.234375l-4.476562-3.589844c-6.054688-4.871093-10.941407-11.039062-14.289063-18.050781l-21.539063-45.21875c-6.816406-14.296875-20.609374-23.988281-36.367187-25.554688l1.4375-58.9375c.9375-19.21875-13.386719-35.789062-32.542969-37.636718-4.210937-.410156-8.015625 2.53125-8.679687 6.710937l-23.023438 145.265625c-.0625.375-.0937498.75-.1015622 1.128906-.2617188 19.949219 5.8632812 39.457032 17.4804692 55.671876.105468.144531.210937.289062.324218.425781l56.355469 68.191406c3.878906 4.675781 5.785156 10.679687 5.324219 16.738281l-1.160156 15.511719-4.644532 2.210937c-3.988281 1.902344-5.683594 6.675782-3.78125 10.664063l23.617188 49.585937c1.898437 3.992188 6.671875 5.683594 10.664062 3.785157l108.816406-51.824219c3.988282-1.902344 5.679688-6.675781 3.78125-10.664062zm-106.664063 3.386718-56.179687-67.976562c-9.40625-13.234375-14.417969-29.085938-14.320313-45.320312l21.53125-135.835938c7.003907 3.617188 11.246094 11 10.835938 18.875 0 .070312-.003906.140625-.007812.207031l-1.480469 60.703125c-2.714844.714844-5.359375 1.679688-7.894531 2.882813-3.988282 1.902343-5.683594 6.675781-3.78125 10.667969l35.398437 74.332031c1.222656 2.597656 3.738281 4.34375 6.597656 4.574219 2.859375.230468 5.621094-1.085938 7.242188-3.449219 1.625-2.367188 1.855469-5.421875.605469-8.003907l-31.480469-66.109374c12.882812-2.15625 25.640625 4.476562 31.269531 16.261718l21.539062 45.222656c4.390626 9.1875 10.789063 17.269532 18.726563 23.652344l4.476563 3.585938c21.21875 16.933594 31.636718 44.007812 27.242187 70.792968l-61.855469 29.460938.476563-6.394531c.78125-10.183594-2.425781-20.265625-8.941407-28.128907zm18.023438 90.800782-16.734375-35.140625 94.371094-44.945313 16.734375 35.140625zm0 0" fill="url(#d)"/></svg>