<svg height="472pt" viewBox="0 -37 472.89965 472" width="472pt" xmlns="http://www.w3.org/2000/svg" xmlns:xlink="http://www.w3.org/1999/xlink"><linearGradient id="lg1"><stop offset="0" stop-color="#00efd1"/><stop offset="1" stop-color="#00acea"/></linearGradient><linearGradient id="linear0" gradientUnits="userSpaceOnUse" x1="279.935826" x2="279.935826" xlink:href="#lg1" y1="-21.471175" y2="425.663825"/><linearGradient id="linear1" gradientUnits="userSpaceOnUse" x1="192.963826" x2="192.963826" xlink:href="#lg1" y1="-21.471175" y2="425.663825"/><linearGradient id="linear2" gradientUnits="userSpaceOnUse" x1="236.449826" x2="236.449826" xlink:href="#lg1" y1="-21.471175" y2="425.663825"/><path d="m420.292969 143.46875c-1.109375-1.691406-2.996094-2.710938-5.015625-2.710938-2.023438 0-3.910156 1.019532-5.019532 2.710938l-51.628906 78.722656c-1.210937 1.882813-1.3125 4.273438-.261718 6.25 1.035156 1.96875 3.058593 3.21875 5.28125 3.261719h43.769531c-6.078125 43.761719-28.011719 83.773437-61.636719 112.433594-31.820312 27.28125-71.792969 42.875-109.664062 42.875-24.699219 0-50.519532-6.683594-74.679688-19.28125-25.09375-13.109375-46.855469-31.78125-63.625-54.589844-1.234375-1.8125-3.359375-2.808594-5.539062-2.597656-2.183594.210937-4.078126 1.597656-4.9375 3.613281-.863282 2.011719-.558594 4.339844.792968 6.0625 17.859375 24.289062 41.039063 44.167969 67.761719 58.125 25.863281 13.484375 53.605469 20.613281 80.226563 20.613281 40.695312 0 83.511718-16.589843 117.476562-45.710937 36.179688-31.023438 59.648438-74.296875 65.925781-121.542969h47.386719c2.21875-.050781 4.238281-1.296875 5.277344-3.257813 1.039062-1.960937.941406-4.332031-.261719-6.199218zm-45.539063 76.234375 40.523438-61.78125 40.519531 61.78125zm0 0" fill="url(#linear0)"/><path d="m114.535156 170.964844c-1.035156-1.96875-3.058594-3.21875-5.28125-3.261719h-43.765625c6.078125-43.761719 28.011719-83.769531 61.636719-112.429687 31.820312-27.285157 71.789062-42.878907 109.660156-42.878907 24.699219 0 50.523438 6.6875 74.683594 19.285157 25.09375 13.105468 46.855469 31.777343 63.625 54.585937 1.234375 1.8125 3.355469 2.808594 5.539062 2.597656 2.179688-.210937 4.074219-1.59375 4.9375-3.609375.863282-2.015625.558594-4.339844-.796874-6.066406-17.859376-24.289062-41.035157-44.167969-67.757813-58.121094-25.863281-13.488281-53.609375-20.617187-80.230469-20.617187-40.691406 0-83.511718 16.589843-117.472656 45.714843-36.179688 31.019532-59.65625 74.292969-65.933594 121.539063h-47.386718c-2.21875.054687-4.234376 1.300781-5.277344 3.261719-1.039063 1.960937-.941406 4.328125.261718 6.195312l51.628907 78.75c1.105469 1.695313 2.988281 2.71875 5.011719 2.722656 2.023437.003907 3.910156-1.011718 5.023437-2.699218l51.632813-78.773438c1.207031-1.863281 1.308593-4.238281.261718-6.195312zm-56.910156 70.519531-40.519531-61.78125h81.039062zm0 0" fill="url(#linear1)"/><g fill="url(#linear2)"><path d="m236.449219 205.847656c31.28125 0 56.636719-25.359375 56.636719-56.636718 0-31.28125-25.355469-56.636719-56.636719-56.636719-31.277344 0-56.636719 25.355469-56.636719 56.636719.035156 31.265624 25.371094 56.601562 56.636719 56.636718zm0-101.273437c24.652343 0 44.636719 19.984375 44.636719 44.636719 0 24.652343-19.984376 44.636718-44.636719 44.636718-24.652344 0-44.636719-19.984375-44.636719-44.636718.03125-24.640626 19.996094-44.609376 44.636719-44.636719zm0 0"/><path d="m147.949219 239.992188c-11.933594 14.808593-18.457031 33.242187-18.5 52.257812v8.582031c.007812 1.582031.648437 3.089844 1.78125 4.195313 1.128906 1.101562 2.65625 1.707031 4.234375 1.675781h201.96875c1.582031.03125 3.105468-.574219 4.238281-1.675781 1.128906-1.105469 1.769531-2.613282 1.777344-4.195313v-8.582031c0-38.6875-26.519531-72.332031-64.140625-81.363281-1.675782-.394531-3.4375-.050781-4.839844.941406-22.585938 16.078125-52.878906 16.078125-75.464844 0-1.398437-.992187-3.160156-1.335937-4.832031-.945313-18.210937 4.304688-34.472656 14.546876-46.222656 29.109376zm45.953125-16.644532c25.847656 17.136719 59.457031 17.09375 85.257812-.113281 30.921875 8.695313 52.285156 36.894531 52.289063 69.015625v2.453125h-190v-2.453125c.039062-16.277344 5.625-32.054688 15.84375-44.722656 9.410156-11.652344 22.199219-20.101563 36.613281-24.179688zm0 0"/></g></svg>