<svg xmlns="http://www.w3.org/2000/svg" xmlns:xlink="http://www.w3.org/1999/xlink" viewBox="0 0 1198.66 234.91"><defs><style>.cls-1{isolation:isolate;}.cls-2{mix-blend-mode:multiply;}.cls-3{fill:url(#linear-gradient);}.cls-4{fill:url(#linear-gradient-2);}.cls-5{fill:url(#linear-gradient-3);}</style><linearGradient id="linear-gradient" x1="606.99" y1="234.91" x2="606.99" gradientUnits="userSpaceOnUse"><stop offset="0" stop-color="#fff"/><stop offset="1" stop-color="#d3d5d8"/></linearGradient><linearGradient id="linear-gradient-2" x1="599.33" y1="234.91" x2="599.33" y2="71.67" gradientUnits="userSpaceOnUse"><stop offset="0" stop-color="#fff"/><stop offset="0.72" stop-color="#bec0c4"/></linearGradient><linearGradient id="linear-gradient-3" x1="599.33" y1="234.91" x2="599.33" y2="71.67" gradientUnits="userSpaceOnUse"><stop offset="0" stop-color="#fff"/><stop offset="0.09" stop-color="#e5e6e7"/><stop offset="0.21" stop-color="#cbcdd0"/><stop offset="0.34" stop-color="#b7babe"/><stop offset="0.48" stop-color="#a9acb2"/><stop offset="0.66" stop-color="#a0a4aa"/><stop offset="0.96" stop-color="#9ea2a8"/></linearGradient></defs><title>ab-city</title><g class="cls-1"><g id="Layer_2" data-name="Layer 2"><g id="_1" data-name=" 1"><g class="cls-2"><path class="cls-3" d="M1126.66,122.56V109.4H1113v-1.78h-8.33v1.78h-3.19v26.76h-11.26v7.94h-2.92v12.2h-15.6v-4.7h-3.19V129.3h-4.61v10.81h-11.35V156.3h-19.49V144.1h-5.35V130H1027V115.55h-6.11V103.09h-9v12.46H1006V130h-7.5v9h-5.8v25H982.14V127.67h-3.6v-3h-6.93v-2.1h-7.19v2.1h-3.86V164H944.64v-9.84H931.8V142.73h-7.19v-2.62h-1.8v-4H900.72v4h-6.16v2.62h-6.17v17.55H871.62V130.92c0-9.67-8-17.62-18.33-18.6V76.08h0c-18,0-32.62,13.33-32.62,29.78v11.4a18,18,0,0,0-6.49,13.1H803.53v4.72h-3.88v19.65H784.12V99.09h-5.65V83.43l-27-41.22v26h-16V66.41h-8.33v1.78H724v68H712.72v7.94h-1.8V112.22h-6.16V91.12H695v-47h3.59v-6H690.5V9.6H665.33V38.14h-7.57v6h3.08v100h-8.72V74.59h-5.6V35.4h-8.1v19c-22.59,98.4-19.94,83.18-19.94,97.93H597.14V54.17h-4.48c-.74-5-5.45-8.9-11.16-8.9h-4.9V0h-17V45.27H554v80.82H541.41V80.55a4.7,4.7,0,0,0-4.9-4.47h-.76V61.39h-3.84V40.48h-1.29V12.58h-5.9v27.9h-7.2V61.39h-5.9V76.08h-1.53a4.69,4.69,0,0,0-4.89,4.47V145.8h-16V76.08h-8.53V67.4c-11.19,0-20.65,6.75-23.77,16h-6v80.79h-9.26V43h-3.9V37.25H421.16V52.39h-4.39V70.47h-3.9v93.75H394.5V47.54H378.32V99.28h-7.88V108c-3.22,0-6.83,28.8-6.83,48.35H360v9H346.77V115.28H323v6.37h-5.24v35.67h-7.2v8h-7.07v-8h-4.39v-7.57h-4.63V130.94c0-6.61-11-6.62-11,0v18.81h-2.44V161.1H270V127.67h-3.59v-3h-6.94v-2.1h-7.19v2.1h-3.85v39.56h-10.7c-.64-4.15-4.37-7.85-10.37-7.85,0-3.7-.69-6.92-4.78-9.21-.78-4.34-4.89-7.65-9.85-7.65h-1.86V124.16H206.2a6.08,6.08,0,0,0-6.34-5.79H183.28v39.48h-9.09V144.1h-5.34V130h-.77v-4.13H162V113.38h-9v12.46c-7,26.47-5.85,18.32-5.85,36.48h-2.41V143.76L100,143.48v3.11h-3.9v9.92H87.36v5.79H82v72.61H1132V122.56Z"/><path class="cls-4" d="M1126.57,234.91v-71a6.91,6.91,0,0,0-5.8-6.77V135.47h-1.58v-2.86H1110v2.86h-4.83v58.75h-20.5V134.91h-4v-2.3h-5.53v-4.68h-6.59v7h-6.32v55.26h-22.58v-36h-5.53v-7.54h-4V144h0c0-2.59-3.65-4.68-8.14-4.68s-8.15,2.09-8.15,4.68h0v12.63h-3.16l-3.13,32.13H990.26V125.07h-1.84v-6H986.2V108A20,20,0,0,0,966,127.93V181.3H937.1V168.72h.52V109.23H919.45V116h-9v26.5h-4.74V181.3H888.17v13.52H877.35v-63a10.14,10.14,0,0,0-7.06-9.62,9.19,9.19,0,0,0-6.11-5.85V104.42a5.4,5.4,0,0,0-10.8,0V116H846.8v19.49h-9.48v59.35h-9.57V175.89h-3V115.06H820v-3H808.29v3h-4.13v60.83H789.6V119.21h-1.83V115h-5.51v4.23H764.6v41.47a11.17,11.17,0,0,1-5.91,1.68v7h-6.51v6.56h-5.25V116.16H734.67V92.84H708.43v83H674.81V91.67h-3.42V77.9H639.3v40.78h-3.73v51.14H618.05V110.55h-3.73v-9.79h-5.23V87.18h-4.47V77.9h-4.54a12.69,12.69,0,0,0-12.77,12.6v10.26h-5.08v16.09h-3.42v7.73a10.43,10.43,0,0,0-3.94-2.37,9.21,9.21,0,0,0-6.11-5.85V104.42a5.4,5.4,0,0,0-10.8,0V116h-6.59v19.49h-9.48V184h-5.28V101h-4.48V92.77h-4V76.35h-2.2c0-2.58-3.65-4.67-8.14-4.67s-8.15,2.09-8.15,4.67h-3v25.59h-4.39v24.43h4.39v44H496.18V106.9l5.05-5L485.68,86.59l-15.55,15.33,5,5v5.15h-3.24v24.43h3.24v33.94H446.55V127.78h-6.91V108.44h-7.91a13,13,0,0,1-13.1,12.93v65.94H407.25V172.56H382l-4-48.62h-3.69V99.1H377V93.64H364.45V86.76H352.89v6.88h-5.15V99.1h1.58v73.46h-10v-40.4h-6.06V128h-14v4.15h-5.56v40.4h-8.45V119.21h-1.84V115h-5.5v4.23H280.21v41.47a11.2,11.2,0,0,1-5.91,1.68v7h-6.51v20h-4.24V168.72h.53V109.23H245.91V116h-9v26.5h-4.74v44.83H228.5V162.36a11,11,0,0,1-11.13-11h-5.61a11,11,0,0,1-11.13,11v24.95H177.88V142h-9.55v-4H151.67v4h-2.45v45.35H131.41V132.45H116v12.22H101.87V190.8H91V126.11H79.4v12.71H72.1v96.09Z"/><path class="cls-5" d="M1198.66,234.91V197c-7.61,0-13.78-4.73-13.78-10.57h-7c0,5.84-6.16,10.57-13.77,10.57v19.33h-15.54V177.28H1136.8v-3.89h-20.62v3.89h-3v39.07h-10.43v-47.9H1083.6V180.2h-17.47v36.15h-4.81v-54H1047v12.24h-9v29.83H1011.8V168h-7.5v-4H986.94v4h-6.88v36.46H968V150.58h-5.89v-2.89H947.55v2.89h-5.1v65.77H911.62V203.73h-8.06V197a16.93,16.93,0,0,1-7.32-1.62V155.47H874.38v-4.06h-6.81v4.06h-2.28v49.66H819.63V130H787.15v22.44H772v52.69H761.05V157.78c-9,0-16.22-5.57-16.22-12.45H735V164h-8.56v24.12H704.19V171.21h4V147.69h-4v-5l6.25-4.79-19.25-14.77-19.25,14.77,6.24,4.79v45.34H666.72V153.43h-2.16V130l-6.41,5.17V104l-6,4.8V78.17L630.67,95.52v30.6l-5.95,4.8v31.21L617.5,168v48.4H603.81V153.43h-4.24V137.94h-6.29v-9.88c0-6.7-7.08-12.13-15.81-12.13h-5.61v8.94h-5.54v13.07h-6.48v9.42h-4.61v40.71H540.89v-63.2h-5.06V100.43h-4.07v24.44H519v8.69h-6.19v54.51h-6.2V89.67h-5v-18H471.44V130h-4.76l-2.83-17.82H442.28V130h-7.84v36.45h-7.5V195.9H405.36V162.34h5.44V138.82h-5.44V114.19h-3.69c0-2.49-4.51-4.5-10.08-4.5s-10.08,2-10.08,4.5h-2.72V130h-5v7.94h-5.55v58H356v14.73h-8.09V171.21H336.14V152.44H328V141.31c0-2.83-3-5.12-6.69-5.12s-6.68,2.29-6.68,5.12v11.5c-3.57.81-6.4,2.93-7.56,5.63-5.08,1.28-8.74,4.94-8.74,9.26v42.93H286.06v5.72h-6.65V136.19h1.95v-5.25H275v-6.63H260.68v6.63h-15.5v5.25h3.26v23.92h-4.57l-6,56.24H222.48V198.83h-4V165.1c0-10.58-11.18-19.16-25-19.16V156.6h-2.74v5.74h-2.28v36.49H181V145.94h-22.5v6.5H147.37V178H141.5v20.88H127.15v-.25c0-3.27-3.1-6-7.17-6.51V171.21h-2v-2.76H106.61v2.76h-6v27.62H85.75V170.67H80.86v-2.22H74V164H65.86v6.72H58v28.16H45.77v17.52H42.71V189.2H35.86V182H31v-2.5h0c0-2.49-4.52-4.5-10.08-4.5s-10.08,2-10.08,4.5h0v12.17H6.85l-3.1,24.73H0v18.56Z"/></g></g></g></g></svg>