<svg xmlns="http://www.w3.org/2000/svg" viewBox="0 0 30.5 30.5"><g id="Layer_2" data-name="Layer 2"><g id="Icons"><g id="Phone"><path d="M30.41,13.56A25.55,25.55,0,0,0,16.86.07a1,1,0,0,0-1.29.57A1,1,0,0,0,16.12,2,23.56,23.56,0,0,1,28.61,14.4a1,1,0,0,0,.9.6,1,1,0,0,0,.41-.09A1,1,0,0,0,30.41,13.56Z"/><path d="M15.6,7.39a14.31,14.31,0,0,1,7.58,7.53.94.94,0,0,0,.87.58.92.92,0,0,0,.39-.09,1,1,0,0,0,.48-1.29,16.22,16.22,0,0,0-8.61-8.55,1,1,0,0,0-1.24.54A1,1,0,0,0,15.6,7.39Z"/><path d="M25.23,19.27a2.5,2.5,0,0,0-1.76-.81,2.46,2.46,0,0,0-1.75.81q-1.24,1.21-2.46,2.46a.53.53,0,0,1-.39.21.54.54,0,0,1-.28-.09c-.53-.29-1.1-.52-1.61-.84a25.62,25.62,0,0,1-6.15-5.6,14.26,14.26,0,0,1-2.2-3.52.51.51,0,0,1,.12-.65Q10,10,11.18,8.81a2.34,2.34,0,0,0,0-3.6L9.25,3.28l-2-2A2.51,2.51,0,0,0,5.5.5a2.5,2.5,0,0,0-1.75.8C2.92,2.11,2.12,3,1.28,3.75A4,4,0,0,0,0,6.45a11.35,11.35,0,0,0,.89,4.92,29.68,29.68,0,0,0,5.31,8.85A32.68,32.68,0,0,0,17.1,28.73a15.73,15.73,0,0,0,6,1.76h.39a4.31,4.31,0,0,0,3.4-1.45c.71-.79,1.5-1.51,2.25-2.26a2.35,2.35,0,0,0,0-3.58Q27.22,21.23,25.23,19.27Zm2.52,6.11-.75.74c-.52.5-1.06,1-1.57,1.59a2.29,2.29,0,0,1-1.91.79h-.28A13.72,13.72,0,0,1,18,26.94a30.92,30.92,0,0,1-10.23-8,27.92,27.92,0,0,1-5-8.26A9.34,9.34,0,0,1,2,6.61,2,2,0,0,1,2.66,5.2c.52-.5,1-1,1.52-1.51l1-1A.72.72,0,0,1,5.5,2.5a.69.69,0,0,1,.36.22c.44.43.88.87,1.31,1.31l.66.66,1,1c.31.32.63.63.95,1s.35.44,0,.78l-.33.34c-.69.7-1.37,1.38-2.09,2.08a2.51,2.51,0,0,0-.56,2.84,16.55,16.55,0,0,0,2.5,4,27.72,27.72,0,0,0,6.64,6c.4.24.79.44,1.14.61.19.09.38.18.54.27a2.59,2.59,0,0,0,1.27.35,2.51,2.51,0,0,0,1.83-.82c.79-.81,1.59-1.6,2.43-2.43a.65.65,0,0,1,.34-.23.69.69,0,0,1,.35.23q2,1.95,3.94,3.93C28.07,24.93,28.1,25,27.75,25.38Z"/></g></g></g></svg>