<svg xmlns="http://www.w3.org/2000/svg" viewBox="0 0 32 30"><g id="Layer_2" data-name="Layer 2"><g id="Icons"><g id="Chat"><path d="M28,0H4A4,4,0,0,0,0,4V19a4,4,0,0,0,4,4H7v6a1,1,0,0,0,.59.91A1,1,0,0,0,8,30a1,1,0,0,0,.66-.25L16.38,23H28a4,4,0,0,0,4-4V4A4,4,0,0,0,28,0Zm2,19a2,2,0,0,1-2,2H16a1,1,0,0,0-.66.25L9,26.8V22a1,1,0,0,0-1-1H4a2,2,0,0,1-2-2V4A2,2,0,0,1,4,2H28a2,2,0,0,1,2,2Z"/><path d="M21,13H12a1,1,0,0,0,0,2h9a1,1,0,0,0,0-2Z"/><path d="M21,8H12a1,1,0,0,0,0,2h9a1,1,0,0,0,0-2Z"/></g></g></g></svg>