<svg xmlns="http://www.w3.org/2000/svg" viewBox="0 0 32 32"><g id="Layer_2" data-name="Layer 2"><g id="Icons"><path id="Web" d="M29.17,25.07A16,16,0,1,0,2.47,7.5s-.05,0-.07.07a.47.47,0,0,0-.06.15,15.89,15.89,0,0,0,.49,17.35l0,0s0,0,0,.06A16,16,0,0,0,29,25.25a.88.88,0,0,0,.12-.15ZM28,23.21a24.34,24.34,0,0,0-6.23-2.5A45.53,45.53,0,0,0,22,16c0-1.25-.06-2.51-.16-3.73A23.89,23.89,0,0,0,28.4,9.53,13.88,13.88,0,0,1,28,23.21ZM16,30c-1.18,0-2.75-2.88-3.52-7.71A22.9,22.9,0,0,1,16,22a22.9,22.9,0,0,1,3.52.29C18.75,27.12,17.18,30,16,30Zm0-10a23.7,23.7,0,0,0-3.78.31A41.22,41.22,0,0,1,12,16c0-1.17.05-2.27.13-3.32A23.68,23.68,0,0,0,16,13a24.85,24.85,0,0,0,3.87-.32C20,13.73,20,14.83,20,16a41.22,41.22,0,0,1-.22,4.31A23.7,23.7,0,0,0,16,20ZM16,2c1.26,0,3,3.26,3.66,8.68A21.19,21.19,0,0,1,16,11a21.19,21.19,0,0,1-3.66-.32C13,5.26,14.74,2,16,2ZM27.35,7.83a21.52,21.52,0,0,1-5.72,2.43,21.6,21.6,0,0,0-2.32-7.85A14,14,0,0,1,27.35,7.83ZM12.69,2.41a21.6,21.6,0,0,0-2.32,7.85A21.52,21.52,0,0,1,4.65,7.83,14,14,0,0,1,12.69,2.41ZM3.6,9.53a23.89,23.89,0,0,0,6.56,2.74C10.06,13.5,10,14.75,10,16a45.53,45.53,0,0,0,.25,4.71A24.34,24.34,0,0,0,4,23.21,13.88,13.88,0,0,1,3.6,9.53ZM5.17,24.86a21.59,21.59,0,0,1,5.35-2.16,20.26,20.26,0,0,0,2.17,6.89A14,14,0,0,1,5.17,24.86Zm14.14,4.73a20.26,20.26,0,0,0,2.17-6.89,21.59,21.59,0,0,1,5.35,2.16A14,14,0,0,1,19.31,29.59Z"/></g></g></svg>