<?xml version="1.0" encoding="utf-8"?>
<!-- Generator: Adobe Illustrator 24.2.0, SVG Export Plug-In . SVG Version: 6.00 Build 0)  -->
<svg version="1.1" id="Layer_1" xmlns="http://www.w3.org/2000/svg" xmlns:xlink="http://www.w3.org/1999/xlink" x="0px" y="0px"
	 viewBox="0 0 228.4 135.7" style="enable-background:new 0 0 228.4 135.7;" xml:space="preserve">
<style type="text/css">
	.st0{fill:#FFFFFF;}
</style>
<g id="Layer_2_1_">
	<g id="레이어_1">
		<path class="st0" d="M183.4,47.3c-20,12-41.9,20.4-64.6,25.9V0c8.6,0,17,1.6,25,4.7v50.6h17.9V15.2
			C171.9,23.6,179.4,34.7,183.4,47.3z"/>
		<path class="st0" d="M186.6,67.8c0,20.4-9.2,39.7-25,52.6V80.4h-17.9v50.5c-8,3.2-16.4,4.8-25,4.7V86.5
			c24.4-5.6,47.5-15.8,66.7-31.1C186.2,59.5,186.6,63.6,186.6,67.8z"/>
		<path class="st0" d="M113.2,0v74.5c-21.8,4.8-43.9,7.4-66.2,7.9c-0.8-3.5-1.3-7.1-1.5-10.8h42.6V33.7c-8.2,6-13.9,14.7-16.1,24.6
			H46.1C50.8,24.9,79.4,0,113.2,0z"/>
		<path class="st0" d="M113.2,87.7v9H82.1c8,8.7,19.3,13.6,31.1,13.6v25.4c-26.3,0-50.2-15.2-61.4-39c-0.8-1.7-1.5-3.5-2.2-5.2
			C70.9,93.1,92.3,91.8,113.2,87.7z"/>
		<path class="st0" d="M0,82.8c0,0,136.9,56.4,228.4-67.4c0,0-7,4-31.5,10.6c5.1,0.5,10.3,0.7,15.5,0.4
			C212.4,26.4,155.7,106.9,0,82.8z"/>
	</g>
</g>
</svg>
