<?xml version="1.0" encoding="iso-8859-1"?>
<!-- Generator: Adobe Illustrator 19.0.0, SVG Export Plug-In . SVG Version: 6.00 Build 0)  -->
<svg version="1.1" id="Capa_1" xmlns="http://www.w3.org/2000/svg" xmlns:xlink="http://www.w3.org/1999/xlink" x="0px" y="0px"
	 viewBox="0 0 456 456" style="enable-background:new 0 0 456 456;" xml:space="preserve">
<polygon style="fill:#F9CD74;" points="251.988,304 75.988,248 75.988,56 251.988,0 427.988,56 427.988,248 "/>
<polygon style="fill:#EB9850;" points="251.988,304 251.988,112 427.988,56 427.988,248 "/>
<polygon style="fill:#F9B659;" points="251.988,112 75.988,56 251.988,0 427.988,56 "/>
<polygon style="fill:#6B968B;" points="137.324,36.488 313.324,92.488 313.324,156.488 331.988,150.552 355.988,142.912 
	370.652,138.248 370.652,74.24 194.652,18.24 "/>
<polygon style="fill:#608778;" points="313.324,92.488 313.324,156.488 331.988,150.552 355.988,142.912 370.652,138.248 
	370.652,74.24 "/>
<rect x="67.988" y="320" style="fill:#A8C4CD;" width="64" height="112"/>
<rect x="19.988" y="328" style="fill:#6B968B;" width="48" height="96"/>
<path style="fill:#F2C09A;" d="M131.988,416.968l70.744,29.376c30.689,12.5,64.98,12.877,95.936,1.056l123.584-47.12
	c11.114-4.333,16.611-16.857,12.278-27.971c-0.02-0.052-0.041-0.105-0.062-0.157l0,0c-4.161-10.85-16.329-16.272-27.178-12.112
	c-0.2,0.077-0.4,0.157-0.598,0.24l-66.888,28.4c-3.694,1.498-7.585,2.455-11.552,2.84c10.781-2.405,17.571-13.094,15.166-23.875
	c-2.032-9.11-10.096-15.603-19.43-15.645h-62.056c-7.52-0.001-14.937-1.751-21.664-5.112c-24.838-12.422-52.229-18.889-80-18.888
	h-28.28V416.968z"/>
<g>
	<path style="fill:#E9937C;" d="M240.3,346.84c6.724,3.361,14.139,5.111,21.656,5.112h62.032c11.046,0,20,8.954,20,20
		c-0.015,2.738-0.598,5.443-1.712,7.944c-3.192-7.253-10.364-11.937-18.288-11.944h-62.032c-7.517-0.001-14.932-1.751-21.656-5.112
		c-24.839-12.422-52.229-18.889-80-18.888h-28.312v-16h28.304C188.067,327.95,215.459,334.417,240.3,346.84z"/>
	<path style="fill:#E9937C;" d="M434.492,372.096L434.492,372.096c2.01,5.128,1.993,10.828-0.048,15.944
		c-4.214-10.824-16.405-16.183-27.229-11.97c-0.167,0.065-0.334,0.132-0.499,0.202l-66.88,28.4
		c-5.159,2.194-10.706,3.325-16.312,3.328h-95.536v-16.048h95.536c5.605,0,11.153-1.129,16.312-3.32l66.88-28.4
		c10.711-4.495,23.037,0.545,27.532,11.256C434.333,371.689,434.414,371.892,434.492,372.096z"/>
</g>
<g>
	<path style="fill:#EB9850;" d="M107.988,232c-4.418,0-8-3.582-8-8v-24c0-4.418,3.582-8,8-8s8,3.582,8,8v24
		C115.988,228.418,112.407,232,107.988,232z"/>
	<path style="fill:#EB9850;" d="M139.988,240c-4.418,0-8-3.582-8-8v-24c0-4.418,3.582-8,8-8s8,3.582,8,8v24
		C147.988,236.418,144.407,240,139.988,240z"/>
</g>
<g>
</g>
<g>
</g>
<g>
</g>
<g>
</g>
<g>
</g>
<g>
</g>
<g>
</g>
<g>
</g>
<g>
</g>
<g>
</g>
<g>
</g>
<g>
</g>
<g>
</g>
<g>
</g>
<g>
</g>
</svg>
