<?xml version="1.0" encoding="iso-8859-1"?>
<!-- Generator: Adobe Illustrator 19.0.0, SVG Export Plug-In . SVG Version: 6.00 Build 0)  -->
<svg version="1.1" id="Capa_1" xmlns="http://www.w3.org/2000/svg" xmlns:xlink="http://www.w3.org/1999/xlink" x="0px" y="0px"
	 viewBox="0 0 512 512" style="enable-background:new 0 0 512 512;" xml:space="preserve">
<path style="fill:#FFC06C;" d="M405.885,225.625h-64.291v-65.588c0-1.246-1.01-2.256-2.256-2.256h-67.272h-67.272
	c-1.246,0-2.256,1.01-2.256,2.256v65.588v69.844h69.528h69.528h69.528v-64.606C411.123,227.97,408.778,225.625,405.885,225.625z"/>
<g>
	<path style="fill:#EDA558;" d="M411.123,295.469h-69.528v-69.844h64.29c2.893,0,5.238,2.345,5.238,5.238L411.123,295.469
		L411.123,295.469z"/>
	<rect x="202.539" y="225.62" style="fill:#EDA558;" width="69.53" height="69.844"/>
	<path style="fill:#EDA558;" d="M341.595,225.625h-69.528v-67.844h67.272c1.246,0,2.256,1.01,2.256,2.256V225.625z"/>
</g>
<path style="fill:#CCCBCA;" d="M103.065,144.655V94.166c0-4.32-3.501-7.822-7.822-7.822s-7.822,3.502-7.822,7.822v50.489H103.065z"
	/>
<rect x="27.362" y="223.01" style="fill:#E1EFFB;" width="135.76" height="75.907"/>
<rect x="105.149" y="223.01" style="fill:#BAD5E5;" width="57.977" height="75.907"/>
<path style="fill:#FF4C4C;" d="M426.647,279.977L426.647,279.977c0,7.388-5.989,13.378-13.378,13.378H5.657
	c-3.587,0-6.275,3.296-5.534,6.806c4.117,19.488,14.124,45.303,37.567,71.483c4.41,4.925,5.399,12.035,2.55,18l-12.63,26.443
	c-2.12,4.438,1.116,9.568,6.033,9.568H436.87c2.577,0,4.923-1.489,6.019-3.822l68.471-145.756c2.072-4.41-1.146-9.477-6.019-9.477
	h-65.317C432.636,266.6,426.647,272.589,426.647,279.977z"/>
<path style="fill:#EF2929;" d="M505.341,266.6h-52.629l-74.719,159.056h58.876c2.578,0,4.923-1.489,6.019-3.822l68.471-145.756
	C513.432,271.667,510.214,266.6,505.341,266.6z"/>
<path style="fill:#E1EFFB;" d="M140.087,216.296H50.4v-72.563c0-2.107,1.708-3.815,3.815-3.815h82.057
	c2.107,0,3.815,1.708,3.815,3.815V216.296z"/>
<path style="fill:#BAD5E5;" d="M136.272,139.918H82.11v76.378h57.977v-72.563C140.087,141.626,138.38,139.918,136.272,139.918z"/>
<path style="fill:#CCCBCA;" d="M170.841,232.196H19.646c-1.361,0-2.464-1.103-2.464-2.464v-18.907c0-1.361,1.103-2.464,2.464-2.464
	h151.195c1.361,0,2.464,1.103,2.464,2.464v18.907C173.305,231.093,172.202,232.196,170.841,232.196z"/>
<path style="fill:#B9BBC1;" d="M170.841,208.361h-55.513v23.835h55.513c1.361,0,2.464-1.103,2.464-2.464v-18.907
	C173.305,209.464,172.202,208.361,170.841,208.361z"/>
<path style="fill:#33D8DD;" d="M41.541,379.438c0.653,3.384,0.247,6.964-1.302,10.207l-12.63,26.443
	c-2.12,4.438,1.116,9.568,6.033,9.568h403.227c2.577,0,4.923-1.489,6.019-3.822l19.916-42.396H41.541z"/>
<path style="fill:#0FB0C0;" d="M399.705,379.438l-21.712,46.218h58.876c0.322,0,0.641-0.023,0.954-0.069
	c0.626-0.091,1.229-0.269,1.794-0.526s1.092-0.591,1.564-0.993c0.709-0.604,1.295-1.36,1.706-2.235l19.916-42.396h-63.098V379.438z"
	/>
<g>
</g>
<g>
</g>
<g>
</g>
<g>
</g>
<g>
</g>
<g>
</g>
<g>
</g>
<g>
</g>
<g>
</g>
<g>
</g>
<g>
</g>
<g>
</g>
<g>
</g>
<g>
</g>
<g>
</g>
</svg>
