<svg height="511pt" viewBox="0 -85 511.99971 511" width="511pt" xmlns="http://www.w3.org/2000/svg"><path d="m136.507812 114.671875v136.140625h-58.503906v-131.398438c0-2.621093 2.109375-4.742187 4.710938-4.742187zm0 0" fill="#ffdb06"/><path d="m195.019531 64.804688v186.007812h-58.511719v-186.007812c0-2.621094 2.109376-4.742188 4.710938-4.742188h49.089844c2.601562 0 4.710937 2.121094 4.710937 4.742188zm0 0" fill="#6193ff"/><path d="m253.523438 119.414062v131.398438h-58.503907v-136.140625h53.792969c2.601562 0 4.710938 2.121094 4.710938 4.742187zm0 0" fill="#ffdb06"/><path d="m312.027344 171.65625v79.15625h-58.503906v-83.898438h53.792968c2.601563 0 4.710938 2.125 4.710938 4.742188zm0 0" fill="#6193ff"/><path d="m78.003906 158.523438h58.503906v15.335937h-58.503906zm0 0" fill="#ffab1e"/><path d="m136.507812 158.523438h58.511719v15.335937h-58.511719zm0 0" fill="#407bff"/><path d="m136.507812 210.410156h58.511719v15.339844h-58.511719zm0 0" fill="#407bff"/><path d="m78.003906 210.410156h58.503906v15.339844h-58.503906zm0 0" fill="#ffab1e"/><path d="m195.019531 210.410156h58.503907v15.339844h-58.503907zm0 0" fill="#ffab1e"/><path d="m312.027344 210.433594v15.292968c-.140625.019532-.273438.019532-.417969.019532h-58.082031v-15.335938h58.082031c.144531 0 .277344 0 .417969.023438zm0 0" fill="#407bff"/><path d="m195.019531 158.523438h58.503907v15.335937h-58.503907zm0 0" fill="#ffab1e"/><path d="m485.339844 169.179688h-120.050782c-6.160156 0-11.15625 4.992187-11.15625 11.152343v24.804688h142.363282v-24.804688c0-6.160156-4.992188-11.152343-11.15625-11.152343zm0 0" fill="#ff6969"/><path d="m136.507812 106.632812h58.511719v15.335938h-58.511719zm0 0" fill="#407bff"/><path d="m511.46875 217.96875s-6.964844 22.238281-14.183594 45.109375c-7.433594 23.515625-15.144531 47.695313-15.828125 49.027344l-22.898437-.214844-47.828125-.429687-25.726563-.234376-45.589844-.421874h-.011718l-27.835938-.253907-43.574218-.398437-29.757813-.277344-41.691406-.378906-31.609375-.296875-39.902344-.355469-33.328125-.308594-38.203125-.359375-20.515625-.183593-11.65625-36.921876-18.375-58.226562c-1.460937-4.632812 2.003906-9.355469 6.863281-9.355469h75.386719c6.03125 0 11.410156 3.804688 13.425781 9.488281l9.582032 27.054688c2.015624 5.6875 7.394531 9.488281 13.425781 9.488281h194.316406c5.761719 0 10.945313-3.457031 13.152344-8.773437l11.882812-28.496094c2.210938-5.304688 7.394531-8.761719 13.140625-8.761719h146.746094c7.515625 0 12.875 7.3125 10.59375 14.480469zm0 0" fill="#41739f"/><g fill="#c4daec"><path d="m425.316406 90.753906c-4.238281 0-7.671875-3.433594-7.671875-7.667968v-74.917969c0-4.234375 3.433594-7.667969 7.671875-7.667969 4.234375 0 7.667969 3.433594 7.667969 7.667969v74.917969c0 4.234374-3.433594 7.667968-7.667969 7.667968zm0 0"/><path d="m440.210938 30.488281h-29.792969c-4.234375 0-7.667969-3.433593-7.667969-7.667969 0-4.234374 3.433594-7.667968 7.667969-7.667968h29.792969c4.234374 0 7.671874 3.433594 7.671874 7.667968-.003906 4.234376-3.4375 7.667969-7.671874 7.667969zm0 0"/><path d="m451.347656 55.46875h-52.0625c-4.238281 0-7.671875-3.433594-7.671875-7.667969s3.433594-7.667969 7.671875-7.667969h52.0625c4.234375 0 7.667969 3.433594 7.667969 7.667969s-3.433594 7.667969-7.667969 7.667969zm0 0"/></g><path d="m371.773438 107.792969h107.082031v61.386719h-107.082031zm0 0" fill="#e5f4ff"/><path d="m455.066406 110.09375h23.792969v59.085938h-23.792969zm0 0" fill="#c4daec"/><path d="m458.566406 83.085938h-66.5c-14.917968 0-27.007812 12.09375-27.007812 27.007812h120.511718c0-14.914062-12.089843-27.007812-27.003906-27.007812zm0 0" fill="#ff6969"/><path d="m485.597656 169.179688h-33.996094c6.015626 0 10.894532 4.878906 10.894532 10.894531v23.414062h34v-23.414062c0-6.015625-4.878906-10.894531-10.898438-10.894531zm0 0" fill="#ff4848"/><path d="m458.558594 83.085938h-33.996094c14.917969 0 27.007812 12.09375 27.007812 27.007812h34c0-14.914062-12.09375-27.007812-27.011718-27.007812zm0 0" fill="#ff4848"/><path d="m398.988281 153.378906c-4.238281 0-7.671875-3.433594-7.671875-7.667968v-12.148438c0-4.234375 3.433594-7.667969 7.671875-7.667969 4.234375 0 7.667969 3.433594 7.667969 7.667969v12.148438c0 4.234374-3.433594 7.667968-7.667969 7.667968zm0 0" fill="#0fd9ff"/><path d="m424.246094 153.378906c-4.234375 0-7.667969-3.433594-7.667969-7.667968v-12.148438c0-4.234375 3.433594-7.667969 7.667969-7.667969 4.238281 0 7.671875 3.433594 7.671875 7.667969v12.148438c0 4.234374-3.433594 7.667968-7.671875 7.667968zm0 0" fill="#0fd9ff"/><path d="m450.109375 153.378906c-4.234375 0-7.667969-3.433594-7.667969-7.667968v-12.148438c0-4.234375 3.433594-7.667969 7.667969-7.667969 4.238281 0 7.671875 3.433594 7.671875 7.667969v12.148438c0 4.234374-3.433594 7.667968-7.671875 7.667968zm0 0" fill="#0fd9ff"/><path d="m497.285156 263.078125c-7.433594 23.515625-15.144531 47.695313-15.828125 49.027344l-22.898437-.214844c-7.667969-4.164063-11.359375-11.484375-24.296875-11.484375-12.507813 0-16.371094 6.832031-23.53125 11.054688-3.199219 1.890624-7.066407 3.261718-12.660157 3.261718-5.828124 0-9.785156-1.484375-13.066406-3.496094-6.914062-4.246093-10.863281-10.820312-23.121094-10.820312-11.875 0-15.953124 6.15625-22.46875 10.398438h-.011718c-3.414063 2.230468-7.496094 3.917968-13.710938 3.917968-6.464844 0-10.625-1.832031-14.121094-4.171875-6.289062-4.234375-10.441406-10.144531-22.070312-10.144531-11.269531 0-15.523438 5.550781-21.503906 9.742188-3.609375 2.539062-7.863282 4.570312-14.6875 4.570312-7.066406 0-11.371094-2.1875-15.074219-4.84375-5.777344-4.152344-10.082031-9.46875-21.105469-9.46875-10.6875 0-15.0625 4.988281-20.585937 9.089844-3.8125 2.820312-8.191407 5.226562-15.605469 5.226562-7.660156 0-12.074219-2.566406-16.003906-5.523437-5.335938-4.027344-9.753906-8.792969-20.1875-8.792969-10.121094 0-14.582032 4.480469-19.714844 8.4375-4.050781 3.097656-8.496094 5.878906-16.472656 5.878906-8.234375 0-12.710938-2.957031-16.855469-6.1875-4.976563-3.875-9.457031-8.128906-19.324219-8.128906-9.574218 0-14.082031 4-18.878906 7.773438l-20.515625-.1875-11.65625-36.917969c3.660156 2.585937 7.925781 4.679687 14.859375 4.679687 18.089844 0 18.089844-14.3125 36.191406-14.3125 18.089844 0 18.089844 14.3125 36.179688 14.3125 18.097656 0 18.097656-14.3125 36.1875-14.3125s18.089844 14.3125 36.191406 14.3125c18.089844 0 18.089844-14.3125 36.191406-14.3125 18.089844 0 18.089844 14.3125 36.179688 14.3125s18.089844-14.3125 36.191406-14.3125c18.089844 0 18.089844 14.3125 36.191406 14.3125 18.089844 0 18.089844-14.3125 36.191406-14.3125 18.089844 0 18.089844 14.3125 36.1875 14.3125 18.089844 0 18.089844-14.3125 36.191407-14.3125 18.101562 0 18.101562 14.3125 36.203125 14.3125 14.273437 0 17.289062-8.914062 26.820312-12.675781zm0 0" fill="#355d7c"/><path d="m0 325.246094c0 .988281.78125 1.792968 1.765625 1.847656 16.347656.898438 16.9375 14.265625 34.421875 14.265625 18.09375 0 18.09375-14.3125 36.1875-14.3125s18.09375 14.3125 36.1875 14.3125 18.09375-14.3125 36.1875-14.3125 18.09375 14.3125 36.1875 14.3125 18.09375-14.3125 36.191406-14.3125c18.089844 0 18.089844 14.3125 36.183594 14.3125s18.09375-14.3125 36.1875-14.3125 18.09375 14.3125 36.1875 14.3125c18.097656 0 18.097656-14.3125 36.191406-14.3125 18.097656 0 18.097656 14.3125 36.191406 14.3125 18.097657 0 18.097657-14.3125 36.191407-14.3125 18.097656 0 18.097656 14.3125 36.199219 14.3125 17.488281 0 18.074218-13.367187 34.425781-14.265625.988281-.054688 1.769531-.859375 1.769531-1.847656v-35.25c0-1.058594-.894531-1.917969-1.957031-1.855469-16.167969.992187-16.816407 14.257813-34.238281 14.257813-18.101563 0-18.101563-14.316407-36.199219-14.316407-18.09375 0-18.09375 14.316407-36.191407 14.316407-18.09375 0-18.09375-14.316407-36.191406-14.316407-18.09375 0-18.09375 14.316407-36.191406 14.316407-18.09375 0-18.09375-14.316407-36.1875-14.316407s-18.09375 14.316407-36.1875 14.316407c-18.089844 0-18.089844-14.316407-36.183594-14.316407-18.097656 0-18.097656 14.316407-36.191406 14.316407s-18.09375-14.316407-36.1875-14.316407-18.09375 14.316407-36.1875 14.316407-18.09375-14.316407-36.1875-14.316407-18.09375 14.316407-36.1875 14.316407c-17.417969 0-18.070312-13.265626-34.234375-14.257813-1.058594-.0625-1.953125.796875-1.953125 1.855469zm0 0" fill="#0fd9ff"/></svg>