<svg id="Layer_1" enable-background="new 0 0 512 512" height="512" viewBox="0 0 512 512" width="512" xmlns="http://www.w3.org/2000/svg"><g clip-rule="evenodd" fill-rule="evenodd"><path d="m148.616 30.865c3.866 0 7 3.134 7 7s-3.134 7-7 7h-76.511v138.927l8.813-8.813c2.733-2.733 7.165-2.733 9.898 0s2.733 7.165 0 9.898l-20.761 20.762c-2.733 2.733-7.165 2.733-9.898 0l-20.762-20.762c-2.733-2.733-2.733-7.165 0-9.898s7.165-2.733 9.898 0l8.813 8.813v-145.927c0-3.866 3.134-7 7-7z" fill="#c7e0ec"/><path d="m21 499.5c-3.866 0-7-3.134-7-7s3.134-7 7-7h470c3.866 0 7 3.134 7 7s-3.134 7-7 7z" fill="#636c77"/><g><path d="m471.071 65.459c0 3.866-3.134 7-7 7s-7-3.134-7-7v-31.401c0-3.866 3.134-7 7-7s7 3.134 7 7z" fill="#cad0d7"/><path d="m232.762 12.5h-52.556c-1.652 0-3 1.348-3 3v52.556h55.556z" fill="#fdcd56"/><path d="m177.207 58.055h55.556v45.556h-55.556z" fill="#c6ea94"/><path d="m268.318 58.056-45.556-10.001v55.556h45.556l7.202-27.187z" fill="#f76c82"/><path d="m268.318 12.5h-45.556v45.555h45.556l8.712-11.463z" fill="#66d4f1"/><path d="m474.65 65.459h-21.159c-2.754 0-5 2.246-5 5v50.982h31.159v-50.982c0-2.754-2.246-5-5-5z" fill="#e4e8eb"/><path d="m418.082 110.838h55.454l7.617 47.006-7.617 42.87h-55.454z" fill="#cad0d7"/><path d="m473.536 110.838 18.148 8.163c1.102.496 1.769 1.528 1.769 2.736v85.367h-19.918v-96.266z" fill="#a9b0bb"/><path d="m325.363 79.845-57.045-25.514v49.28l57.045 25.514z" fill="#eb5463"/><path d="m428.083 118.033-63.256-23.326v65.556l63.256 23.326z" fill="#4fc0e8"/><path d="m325.201 37.424-56.883-24.924v45.556l56.883 24.924z" fill="#4fc0e8"/><path d="m379.804 61.331-58.232-25.505v45.556l58.232 25.505z" fill="#f5b945"/><path d="m426.286 81.691-51.458-22.539v45.556l53.255 23.326v-43.595c0-1.218-.681-2.259-1.797-2.748z" fill="#eb5463"/><path d="m374.828 104.707-53.255-23.325v45.555l53.255 23.326z" fill="#afe269"/><path d="m321.771 110.607c-106.558-46.143-183.18-32.681-207.362-26.321-1.766.464-3.054 1.734-3.544 3.493-.491 1.76-.044 3.512 1.229 4.823 51.778 53.392 69.211 99.16 90.612 147.771.817 1.855 2.551 2.986 4.578 2.985l272.526-.102c2.044-.001 3.79-1.153 4.595-3.032l13.175-30.782c1.078-2.519-.083-5.451-2.593-6.548l-157.672-68.941c-1.033-.452-1.79-1.135-2.346-2.115l-10.833-19.107c-.561-.986-1.325-1.674-2.365-2.124z" fill="#636c77"/><g fill="#c7e0ec"><path d="m219.734 110.025c7.155 0 12.955 5.8 12.955 12.954s-5.8 12.954-12.955 12.954c-7.154 0-12.954-5.8-12.954-12.954s5.8-12.954 12.954-12.954z"/><path d="m289.907 128.116c5.862 0 10.614 4.752 10.614 10.613 0 5.862-4.752 10.614-10.614 10.614s-10.614-4.752-10.614-10.614c.001-5.861 4.753-10.613 10.614-10.613z"/></g></g><g><path d="m24.531 229.233h311.53c2.754 0 5 2.246 5 5v155.765h-321.529v-155.766c0-2.754 2.245-4.999 4.999-4.999z" fill="#f76c82"/><g><path d="m24.384 381.405h311.687c3.311 0 6.313 1.347 8.486 3.518s3.52 5.173 3.52 8.482v15.889c0 3.309-1.347 6.31-3.52 8.482-2.172 2.171-5.175 3.518-8.486 3.518h-311.687c-3.31 0-6.313-1.347-8.486-3.518-2.172-2.171-3.52-5.172-3.52-8.482v-15.889c0-3.309 1.347-6.31 3.52-8.482 2.173-2.171 5.176-3.518 8.486-3.518z" fill="#a9b0bb"/><path d="m320.106 414.293h119.981v41.593h-119.981z" fill="#636c77"/><path d="m395.753 314.964h63.335c4.591 0 8.536 2.145 11.031 5.996l27.392 42.28c1.439 2.221 2.111 4.493 2.111 7.139v28.341l-1.517 6.9 1.517 7.1v32.959c0 5.613-4.58 10.191-10.196 10.191h-98.675v-135.906c0-2.754 2.247-5 5.002-5z" fill="#66d4f1"/><path d="m499.621 398.72v14h-10.92c-3.868 0-7.004-3.134-7.004-7s3.136-7 7.004-7z" fill="#f4f6f8"/><path d="m412.209 363.172v-27.297c0-3.866 3.136-7 7.004-7h34.434c2.282.002 4.518 1.143 5.854 3.199l17.387 26.838c.907 1.18 1.447 2.657 1.447 4.26 0 3.866-3.136 7-7.004 7h-52.119c-3.867 0-7.003-3.134-7.003-7z" fill="#c7e0ec"/><path d="m453.436 455.869h35.99c5.616 0 10.196-4.578 10.196-10.191v-13.836h-46.185c3.373 7.573 3.373 16.454-.001 24.027z" fill="#636c77"/><path d="m436.409 414.293c16.334 0 29.576 13.235 29.576 29.562 0 16.326-13.242 29.561-29.576 29.561-16.335 0-29.576-13.235-29.576-29.561s13.242-29.562 29.576-29.562zm-368.195 0c16.334 0 29.576 13.235 29.576 29.562 0 16.326-13.242 29.561-29.576 29.561-16.335 0-29.576-13.235-29.576-29.561-.001-16.326 13.241-29.562 29.576-29.562zm76.336 0c16.334 0 29.576 13.235 29.576 29.562 0 16.326-13.242 29.561-29.576 29.561s-29.576-13.235-29.576-29.561 13.242-29.562 29.576-29.562zm175.556 0c16.335 0 29.576 13.235 29.576 29.562 0 16.326-13.242 29.561-29.576 29.561s-29.576-13.235-29.576-29.561 13.242-29.562 29.576-29.562z" fill="#424852"/><path d="m144.55 436.126c4.271 0 7.733 3.46 7.733 7.729 0 4.268-3.462 7.729-7.733 7.729-4.27 0-7.733-3.461-7.733-7.729 0-4.269 3.463-7.729 7.733-7.729zm291.859 0c4.27 0 7.733 3.46 7.733 7.729 0 4.268-3.462 7.729-7.733 7.729s-7.733-3.461-7.733-7.729c0-4.269 3.462-7.729 7.733-7.729zm-116.303 0c4.271 0 7.733 3.46 7.733 7.729 0 4.268-3.462 7.729-7.733 7.729s-7.733-3.461-7.733-7.729c.001-4.269 3.463-7.729 7.733-7.729zm-251.893 0c4.271 0 7.733 3.46 7.733 7.729 0 4.268-3.462 7.729-7.733 7.729-4.27 0-7.733-3.461-7.733-7.729.001-4.269 3.463-7.729 7.733-7.729z" fill="#e4e8eb"/></g><path d="m173.296 265.9c0-3.866 3.134-7 7-7s7 3.134 7 7v88.791c0 3.866-3.134 7-7 7s-7-3.134-7-7zm-124.058-1.36c0-3.866 3.134-7 7-7s7 3.134 7 7v88.791c0 3.866-3.134 7-7 7s-7-3.134-7-7zm41.353 0c0-3.866 3.134-7 7-7s7 3.134 7 7v88.791c0 3.866-3.134 7-7 7s-7-3.134-7-7zm41.352 1.36c0-3.866 3.134-7 7-7s7 3.134 7 7v88.791c0 3.866-3.134 7-7 7s-7-3.134-7-7zm165.412 0c0-3.866 3.134-7 7-7s7 3.134 7 7v88.791c0 3.866-3.134 7-7 7s-7-3.134-7-7zm-41.353 0c0-3.866 3.134-7 7-7s7 3.134 7 7v88.791c0 3.866-3.134 7-7 7s-7-3.134-7-7zm-41.353 0c0-3.866 3.134-7 7-7s7 3.134 7 7v88.791c0 3.866-3.134 7-7 7s-7-3.134-7-7z" fill="#eb5463"/></g></g></svg>