<?xml version="1.0" encoding="UTF-8"?>
<svg id="Layer_2" data-name="Layer 2" xmlns="http://www.w3.org/2000/svg" viewBox="0 0 117.9033 67.217">
  <defs>
    <style>
      .cls-1 {
        fill: #fff;
      }
    </style>
  </defs>
  <g id="Layer_1-2" data-name="Layer 1">
    <g>
      <g>
        <g>
          <polygon class="cls-1" points="22.7864 65.7532 21.6945 65.7532 21.6945 64.7965 21.1671 64.7965 21.1671 67.1798 21.6945 67.1798 21.6945 66.1893 22.7864 66.1893 22.7864 67.1798 23.3171 67.1798 23.3171 64.7965 22.7864 64.7965 22.7864 65.7532"/>
          <path class="cls-1" d="M24.8857,64.7965l-1.0953,2.3833h.5308l.2242-.5172h1.1268l.2243.5172h.5341l-1.1088-2.3833h-.4361ZM25.1021,65.3509h.0135l.3908.906h-.7863l.382-.906Z"/>
          <polygon class="cls-1" points="28.5029 66.3267 27.2994 64.7965 26.9073 64.7965 26.9073 67.1798 27.3975 67.1798 27.3975 65.6455 28.6009 67.1798 28.993 67.1798 28.993 64.7965 28.5029 64.7965 28.5029 66.3267"/>
          <polygon class="cls-1" points="30.2742 64.7965 29.7469 64.7965 29.7469 67.1798 31.3493 67.1798 31.3493 66.7369 30.2742 66.7369 30.2742 64.7965"/>
          <path class="cls-1" d="M32.715,64.7965l-1.0953,2.3833h.5308l.2243-.5172h1.1267l.2243.5172h.5341l-1.1088-2.3833h-.4361ZM32.9314,65.3509h.0135l.3908.906h-.7863l.382-.906Z"/>
          <rect class="cls-1" x="35.9604" y="64.7965" width=".5273" height="2.3833"/>
          <polygon class="cls-1" points="38.8372 66.3267 37.6337 64.7965 37.2416 64.7965 37.2416 67.1798 37.7318 67.1798 37.7318 65.6455 38.9352 67.1798 39.3274 67.1798 39.3274 64.7965 38.8372 64.7965 38.8372 66.3267"/>
          <polygon class="cls-1" points="41.0904 66.5094 40.3585 64.7965 39.7905 64.7965 40.8622 67.1798 41.2983 67.1798 42.37 64.7965 41.8223 64.7965 41.0904 66.5094"/>
          <polygon class="cls-1" points="42.8364 67.1798 44.4929 67.1798 44.4929 66.7708 43.3401 66.7708 43.3401 66.1758 44.4117 66.1758 44.4117 65.7634 43.3401 65.7634 43.3401 65.2055 44.4929 65.2055 44.4929 64.7965 42.8364 64.7965 42.8364 67.1798"/>
          <path class="cls-1" d="M46.2745,65.8276l-.3921-.0778c-.1196-.0248-.2029-.058-.2502-.0997-.0474-.0417-.071-.0964-.071-.164,0-.0901.0389-.1611.1166-.2129s.1899-.0778.3364-.0778c.1397,0,.2665.0186.3803.0558s.2168.093.3093.1673l.1555-.3854c-.0946-.0879-.2152-.1554-.3617-.2028-.1465-.0473-.3043-.071-.4733-.071-.1983,0-.3713.0316-.5189.0947s-.262.151-.3431.2637c-.0812.1127-.1217.2456-.1217.3989,0,.1803.0541.3245.1622.4327.1082.1082.2716.1848.4902.2299l.3989.0811c.1217.027.2056.0592.2519.0963.0462.0372.0693.0908.0693.1606,0,.0767-.0344.1398-.1032.1893-.0687.0496-.1842.0744-.3465.0744-.1036,0-.2028-.0096-.2974-.0287-.0947-.0191-.1849-.0468-.2705-.0828-.0856-.0361-.1668-.08-.2434-.1319l-.1555.4124c.1172.0834.2592.1488.426.1961.1667.0474.3459.071.5375.071.1983,0,.3702-.031.5155-.093.1454-.0619.258-.1481.3381-.2586.0799-.1104.12-.24.12-.3887,0-.1759-.0541-.3167-.1623-.4226s-.2738-.1814-.4969-.2265Z"/>
          <polygon class="cls-1" points="47.336 65.2259 48.0932 65.2259 48.0932 67.1798 48.6206 67.1798 48.6206 65.2259 49.3778 65.2259 49.3778 64.7965 47.336 64.7965 47.336 65.2259"/>
          <polygon class="cls-1" points="51.1763 66.5344 50.4021 64.7965 49.9389 64.7965 49.9389 67.1798 50.419 67.1798 50.419 65.8696 51.0207 67.1798 51.325 67.1798 51.9301 65.8562 51.9301 67.1798 52.4102 67.1798 52.4102 64.7965 51.9504 64.7965 51.1763 66.5344"/>
          <polygon class="cls-1" points="53.1708 67.1798 54.8273 67.1798 54.8273 66.7708 53.6744 66.7708 53.6744 66.1758 54.7461 66.1758 54.7461 65.7634 53.6744 65.7634 53.6744 65.2055 54.8273 65.2055 54.8273 64.7965 53.1708 64.7965 53.1708 67.1798"/>
          <polygon class="cls-1" points="57.0618 66.3267 55.8583 64.7965 55.4662 64.7965 55.4662 67.1798 55.9564 67.1798 55.9564 65.6455 57.1598 67.1798 57.552 67.1798 57.552 64.7965 57.0618 64.7965 57.0618 66.3267"/>
          <polygon class="cls-1" points="58.0996 65.2259 58.8568 65.2259 58.8568 67.1798 59.3843 67.1798 59.3843 65.2259 60.1415 65.2259 60.1415 64.7965 58.0996 64.7965 58.0996 65.2259"/>
          <polygon class="cls-1" points="62.4504 64.7965 61.9231 64.7965 61.9231 67.1798 63.5255 67.1798 63.5255 66.7369 62.4504 66.7369 62.4504 64.7965"/>
          <path class="cls-1" d="M65.7093,64.9114c-.1757-.1014-.3843-.1521-.6254-.1521s-.4496.0507-.6254.1521c-.1758.1015-.3105.244-.404.4277s-.1403.3995-.1403.6474c0,.2456.0474.4609.142.6457s.2293.3285.404.431.3826.1538.6237.1538.4497-.0513.6254-.1538c.1758-.1025.3115-.2457.4074-.4294.0957-.1836.1437-.4005.1437-.6507,0-.2456-.048-.4603-.1437-.644-.0959-.1837-.2316-.3262-.4074-.4277ZM65.547,66.5628c-.1059.1387-.2603.208-.4631.208-.2074,0-.3623-.0693-.4649-.208-.1025-.1385-.1537-.3307-.1537-.5763,0-.2479.0512-.44.1537-.5764.1026-.1364.2575-.2046.4649-.2046.2051,0,.3601.0682.4648.2046.1049.1364.1573.3285.1573.5764,0,.2456-.0531.4378-.159.5763Z"/>
          <path class="cls-1" d="M67.7004,64.7965l-1.0953,2.3833h.5308l.2243-.5172h1.1267l.2243.5172h.5341l-1.1088-2.3833h-.4361ZM67.9168,65.3509h.0135l.3908.906h-.7863l.382-.906Z"/>
          <polygon class="cls-1" points="71.3176 66.3267 70.1142 64.7965 69.7221 64.7965 69.7221 67.1798 70.2122 67.1798 70.2122 65.6455 71.4157 67.1798 71.8078 67.1798 71.8078 64.7965 71.3176 64.7965 71.3176 66.3267"/>
          <path class="cls-1" d="M75.3293,65.946c.0998-.0376.182-.0938.2461-.1691.0846-.0992.1268-.2198.1268-.3617,0-.1916-.071-.3426-.213-.453-.142-.1105-.3437-.1657-.6051-.1657h-1.0987v2.3833h1.1358c.2637,0,.4705-.0591.6204-.1774.1499-.1184.2248-.2835.2248-.4953,0-.16-.0468-.2902-.1402-.3905-.0742-.0795-.1739-.1357-.2969-.1706ZM74.2891,65.1853h.5004c.1373,0,.2388.0248.3042.0743.0653.0497.0981.1229.0981.2198,0,.0992-.0328.1735-.0981.2231-.0654.0496-.1669.0744-.3042.0744h-.5004v-.5916ZM75.1579,66.7133c-.0699.0496-.1702.0744-.3009.0744h-.5679v-.6221h.5679c.1307,0,.231.0243.3009.0727.0699.0485.1048.1279.1048.2384,0,.1081-.0349.1871-.1048.2366Z"/>
          <path class="cls-1" d="M77.9453,66.24c-.0314-.0215-.0651-.0375-.1002-.0501.0361-.0112.0708-.0242.1035-.0395.1229-.0574.2175-.1397.284-.2468.0665-.107.0997-.2349.0997-.3836,0-.2277-.0732-.4052-.2197-.5325s-.3538-.191-.622-.191h-1.0818v2.3833h.5273v-.9296h.2773c.0743,0,.1403.0107.1978.0321.0574.0214.0997.0648.1267.1301l.3685.7674h.5815l-.355-.7133c-.0496-.0991-.1122-.1746-.1876-.2265ZM77.3993,65.8715h-.4632v-.666h.4632c.1375,0,.2422.0277.3144.0829.0721.0552.1082.1381.1082.2485s-.0361.1938-.1082.2501c-.0722.0564-.1769.0845-.3144.0845Z"/>
          <path class="cls-1" d="M80.7798,64.9114c-.1757-.1014-.3842-.1521-.6253-.1521-.2412,0-.4497.0507-.6255.1521-.1758.1015-.3104.244-.4039.4277s-.1403.3995-.1403.6474c0,.2456.0473.4609.142.6457.0946.1848.2293.3285.404.431.1746.1025.3825.1538.6237.1538.2411,0,.4496-.0513.6253-.1538.1758-.1025.3116-.2457.4074-.4294.0958-.1836.1437-.4005.1437-.6507,0-.2456-.0479-.4603-.1437-.644s-.2316-.3262-.4074-.4277ZM80.6176,66.5628c-.1059.1387-.2603.208-.4631.208-.2074,0-.3623-.0693-.4649-.208-.1026-.1385-.1537-.3307-.1537-.5763,0-.2479.0511-.44.1537-.5764s.2575-.2046.4649-.2046c.2051,0,.36.0682.4648.2046s.1572.3285.1572.5764c0,.2456-.053.4378-.1589.5763Z"/>
          <polygon class="cls-1" points="84.1503 64.7965 83.5249 64.7965 82.5479 65.8343 82.5411 65.8343 82.5411 64.7965 82.0138 64.7965 82.0138 67.1798 82.5411 67.1798 82.5411 66.0913 82.5479 66.0913 83.579 67.1798 84.2247 67.1798 83.0547 65.9352 84.1503 64.7965"/>
          <polygon class="cls-1" points="84.6 67.1798 86.2564 67.1798 86.2564 66.7708 85.1036 66.7708 85.1036 66.1758 86.1753 66.1758 86.1753 65.7634 85.1036 65.7634 85.1036 65.2055 86.2564 65.2055 86.2564 64.7965 84.6 64.7965 84.6 67.1798"/>
          <path class="cls-1" d="M88.4318,66.24c-.0314-.0215-.0651-.0375-.1002-.0501.0361-.0112.0708-.0242.1035-.0395.1229-.0574.2175-.1397.284-.2468.0665-.107.0998-.2349.0998-.3836,0-.2277-.0733-.4052-.2198-.5325s-.3538-.191-.622-.191h-1.0818v2.3833h.5274v-.9296h.2772c.0744,0,.1403.0107.1978.0321.0574.0214.0997.0648.1267.1301l.3685.7674h.5815l-.355-.7133c-.0496-.0991-.1122-.1746-.1876-.2265ZM87.8858,65.8715h-.4631v-.666h.4631c.1375,0,.2423.0277.3144.0829s.1082.1381.1082.2485-.0361.1938-.1082.2501c-.0721.0564-.1769.0845-.3144.0845Z"/>
          <path class="cls-1" d="M90.3266,64.7965l-1.0953,2.3833h.5308l.2243-.5172h1.1267l.2243.5172h.5341l-1.1088-2.3833h-.4361ZM90.543,65.3509h.0135l.3908.906h-.7863l.382-.906Z"/>
          <path class="cls-1" d="M93.3961,66.2366h.524v.4698c-.0548.0164-.1099.0307-.1657.0407-.0879.0158-.1735.0237-.2569.0237-.2501,0-.4339-.0654-.551-.1961-.1172-.1307-.1758-.3223-.1758-.5747,0-.2547.0626-.4491.1876-.5831.1251-.1341.3115-.2012.5595-.2012.0879,0,.1657.0062.2333.0186.0675.0124.1329.0338.1961.0642.063.0305.1306.0716.2028.1234l.169-.409c-.0992-.0812-.2147-.1437-.3465-.1877-.1319-.0439-.2846-.0659-.4581-.0659-.2704,0-.5026.0507-.6964.1521-.1938.1015-.342.2446-.4445.4294-.1026.1848-.1538.4034-.1538.6558,0,.2457.0473.4603.1419.644.0947.1837.235.3257.421.426.1858.1003.4151.1504.6878.1504.1578,0,.315-.0164.4717-.049.1566-.0327.2946-.0783.4141-.1369v-1.1697h-.9601v.3752Z"/>
          <polygon class="cls-1" points="96.7361 65.2055 96.7361 64.7965 95.0797 64.7965 95.0797 67.1798 96.7361 67.1798 96.7361 66.7708 95.5833 66.7708 95.5833 66.1758 96.655 66.1758 96.655 65.7634 95.5833 65.7634 95.5833 65.2055 96.7361 65.2055"/>
        </g>
        <g>
          <path class="cls-1" d="M.9286,53.6716h-.9286v-1.1327h2.1124v-1.1225h1.4286v1.1225h2.1429v1.1327h-.9081c.3265.3878.5204.8776.5204,1.4184,0,1.2858-1.0817,2.3062-2.4492,2.3062-1.3674,0-2.4286-1.0204-2.4286-2.3062,0-.5408.1837-1.0306.5102-1.4184ZM3.0104,58.1004v1.8163h4.8981v1.1634H1.5715v-2.9797h1.4389ZM2.847,56.2125c.6226,0,1.041-.5,1.041-1.2143,0-.7042-.4184-1.2654-1.041-1.2654-.6224,0-1.0408.5612-1.0408,1.2654,0,.7143.4184,1.2143,1.0408,1.2143ZM7.7555,51.6409v2.5919h1.5102v1.1735h-1.5102v3.0818h-1.4185v-6.8472h1.4185Z"/>
          <path class="cls-1" d="M15.1232,57.6615v1.1429h-5.1635v-3.9695h2.9797v-1.5715h-2.9797v-1.1531h4.3777v3.8879h-2.9797v1.6633h3.7655ZM17.2457,51.6409v3.1123h1.5103v1.1838h-1.5103v5.1431h-1.4184v-9.4392h1.4184Z"/>
          <path class="cls-1" d="M21.8888,54.3553c0-1.4593,1.1939-2.5308,2.5919-2.5308,1.3572,0,2.6022,1.0715,2.6022,2.5308,0,1.4796-1.2143,2.5205-2.6022,2.5205-1.398,0-2.5919-1.0307-2.5919-2.5205ZM25.6645,54.3553c0-.7551-.4797-1.3368-1.1838-1.3368-.7143,0-1.1939.5817-1.1939,1.3368,0,.7449.4796,1.347,1.1939,1.347.7041,0,1.1838-.6021,1.1838-1.347ZM24.9909,57.9473v1.9694h4.8982v1.1634h-6.3166v-3.1328h1.4184ZM29.736,51.6409v6.8472h-1.4184v-6.8472h1.4184Z"/>
          <path class="cls-1" d="M37.4812,51.7531v9.0208h-1.3061v-4.7043h-.8776v2.6328h-3.8063v-6.5819h1.3878v2.2041h1.0612v-2.2041h1.3573v2.7552h.8776v-3.1226h1.3061ZM33.9402,57.4881v-1.9593h-1.0612v1.9593h1.0612ZM39.4303,51.6409v9.4392h-1.3572v-9.4392h1.3572Z"/>
          <path class="cls-1" d="M40.7263,58.9269h8.7759v1.1736h-8.7759v-1.1736ZM48.2777,57.2432c-1.6225-.6837-2.5919-1.3164-3.1634-1.9695-.5715.6735-1.5409,1.3266-3.1941,2.0205l-.6224-1.1225c2.5001-1.0817,3.0716-1.9389,3.0716-2.9797v-1.194h1.4592v1.194c0,1.0408.5817,1.847,3.0817,2.9287l-.6326,1.1225Z"/>
          <path class="cls-1" d="M50.2166,58.9269h8.7759v1.1736h-8.7759v-1.1736ZM52.8085,56.3146h5.1228v1.1735h-6.5616v-5.3982h6.4595v1.1735h-5.0207v.9184h4.9697v1.1531h-4.9697v.9797Z"/>
          <path class="cls-1" d="M60.0946,52.1001h4.592v4.8982h-4.592v-4.8982ZM61.5027,53.3042v2.4695h1.8063v-2.4695h-1.8063ZM62.9416,57.9371v1.9796h4.9084v1.1634h-6.3268v-3.143h1.4184ZM67.6969,51.6409v6.8472h-1.4184v-3.3063h-1.194v-1.1735h1.194v-2.3674h1.4184Z"/>
          <path class="cls-1" d="M69.197,58.9269h8.7759v1.1736h-8.7759v-1.1736ZM71.789,56.3146h5.1227v1.1735h-6.5616v-5.3982h6.4595v1.1735h-5.0206v.9184h4.9696v1.1531h-4.9696v.9797Z"/>
          <path class="cls-1" d="M85.4222,57.4983v1.2041h-3.9287v-6.4901h3.6225v1.2041h-2.1939v4.0819h2.5001ZM89.4326,51.6409v9.4392h-1.3776v-5.0105h-.6837v4.7043h-1.3368v-9.0208h1.3368v3.1226h.6837v-3.2348h1.3776Z"/>
          <path class="cls-1" d="M95.8513,61.029h-1.4287v-2.6735h-3.694v-1.1838h8.7555v1.1838h-3.6328v2.6735ZM96.9126,51.7939h1.4286v4.5105h-6.4595v-4.5105h1.4389v1.1021h3.592v-1.1021ZM96.9126,55.1308v-1.051h-3.592v1.051h3.592Z"/>
          <path class="cls-1" d="M104.6271,61.5393c-1.5613,0-2.6226-.9286-2.6226-2.0919,0-.9491.7552-1.7756,1.9185-2.0205v-.694h-3.7042v-1.1429h8.7555v1.1429h-3.6431v.694c1.1634.2449,1.9185,1.0816,1.9185,2.0205,0,1.1531-1.0613,2.0919-2.6226,2.0919ZM101.2087,53.0083v-1.1735h6.7962v1.1735h-2.6838v.0816c0,.3878.5204.6531,3.0817,1.1429l-.3776,1.0919c-1.7245-.2959-2.796-.5919-3.4184-.9796-.6123.4081-1.6838.7245-3.439,1.0306l-.3776-1.1021c2.5512-.4796,3.0716-.7857,3.0716-1.1837v-.0816h-2.6531ZM104.6271,58.5085c-.7857,0-1.1837.4898-1.1837.9389,0,.4592.398.9388,1.1837.9388.7858,0,1.194-.4796,1.194-.9388,0-.4491-.4082-.9389-1.194-.9389Z"/>
          <path class="cls-1" d="M109.6682,58.3045c2.0817-1.4899,2.5716-3.0104,2.5716-4.9288h-2.3777v-1.1634h3.7553v.8878c0,2.3777-.5919,4.3982-3.0818,6.184l-.8674-.9796ZM117.9033,51.6409v9.4392h-1.3776v-4.9186h-.8878v4.6124h-1.3368v-9.0208h1.3368v3.2246h.8878v-3.3368h1.3776Z"/>
        </g>
      </g>
      <polygon class="cls-1" points="74.0513 10.0692 59.0715 0 59.0715 12.6062 63.9387 15.877 63.9394 15.8778 63.9394 21.7512 53.9638 21.7512 53.9638 13.3094 43.8512 19.7018 43.8512 35.7439 43.852 35.7439 58.8318 45.8131 58.8318 33.2068 53.9646 29.936 53.9638 29.9352 53.9638 24.0619 63.9394 24.0619 63.9394 32.5037 74.0521 26.1113 74.0521 10.0692 74.0513 10.0692"/>
    </g>
  </g>
</svg>