<?xml version="1.0" encoding="UTF-8"?>
<svg id="Layer_2" data-name="Layer 2" xmlns="http://www.w3.org/2000/svg" viewBox="0 0 167.9152 33.6837">
  <defs>
    <style>
      .cls-1 {
        fill: #272d6f;
      }

      .cls-2 {
        fill: #1e1e1e;
      }
    </style>
  </defs>
  <g id="Layer_1-2" data-name="Layer 1">
    <g>
      <g>
        <g>
          <polygon class="cls-2" points="56.1901 24.4022 54.9075 24.4022 54.9075 23.2784 54.2881 23.2784 54.2881 26.0779 54.9075 26.0779 54.9075 24.9145 56.1901 24.9145 56.1901 26.0779 56.8135 26.0779 56.8135 23.2784 56.1901 23.2784 56.1901 24.4022"/>
          <path class="cls-2" d="M58.656,23.2784l-1.2866,2.7995h.6235l.2634-.6075h1.3234l.2636.6075h.6273l-1.3024-2.7995h-.5122ZM58.9101,23.9297h.0159l.4591,1.0642h-.9236l.4486-1.0642Z"/>
          <polygon class="cls-2" points="62.9047 25.0759 61.4911 23.2784 61.0305 23.2784 61.0305 26.0779 61.6063 26.0779 61.6063 24.2757 63.0199 26.0779 63.4805 26.0779 63.4805 23.2784 62.9047 23.2784 62.9047 25.0759"/>
          <polygon class="cls-2" points="64.9854 23.2784 64.366 23.2784 64.366 26.0779 66.2482 26.0779 66.2482 25.5577 64.9854 25.5577 64.9854 23.2784"/>
          <path class="cls-2" d="M67.8524,23.2784l-1.2866,2.7995h.6234l.2635-.6075h1.3234l.2635.6075h.6274l-1.3024-2.7995h-.5122ZM68.1065,23.9297h.0159l.459,1.0642h-.9235l.4486-1.0642Z"/>
          <rect class="cls-2" x="71.6644" y="23.2784" width=".6194" height="2.7995"/>
          <polygon class="cls-2" points="75.0435 25.0759 73.6299 23.2784 73.1693 23.2784 73.1693 26.0779 73.7451 26.0779 73.7451 24.2757 75.1586 26.0779 75.6193 26.0779 75.6193 23.2784 75.0435 23.2784 75.0435 25.0759"/>
          <polygon class="cls-2" points="77.6901 25.2904 76.8304 23.2784 76.1633 23.2784 77.4221 26.0779 77.9343 26.0779 79.1931 23.2784 78.5498 23.2784 77.6901 25.2904"/>
          <polygon class="cls-2" points="79.741 26.0779 81.6867 26.0779 81.6867 25.5974 80.3326 25.5974 80.3326 24.8986 81.5914 24.8986 81.5914 24.4141 80.3326 24.4141 80.3326 23.7589 81.6867 23.7589 81.6867 23.2784 79.741 23.2784 79.741 26.0779"/>
          <path class="cls-2" d="M83.7794,24.4896l-.4606-.0914c-.1404-.0291-.2383-.0681-.2938-.1171-.0557-.0489-.0835-.1132-.0835-.1926,0-.1058.0458-.1892.137-.2501.0913-.0609.2231-.0914.3952-.0914.1641,0,.313.0219.4467.0655.1336.0437.2547.1092.3633.1966l.1827-.4527c-.1112-.1032-.2528-.1826-.4249-.2382-.1722-.0556-.3574-.0834-.5559-.0834-.233,0-.4362.0371-.6096.1112-.1733.0741-.3077.1774-.403.3097-.0953.1324-.143.2886-.143.4685,0,.2119.0636.3813.1906.5083.1271.1271.319.2171.5758.2701l.4685.0953c.143.0317.2416.0694.2959.1131s.0814.1066.0814.1886c0,.0901-.0404.1642-.1211.2224-.0808.0582-.2165.0873-.407.0873-.1218,0-.2383-.0112-.3494-.0337-.1113-.0225-.2172-.0549-.3178-.0973-.1005-.0423-.1959-.0939-.2858-.1548l-.1827.4844c.1376.098.3044.1747.5004.2303.1958.0556.4063.0834.6314.0834.2328,0,.4348-.0364.6054-.1092.1708-.0728.3031-.174.3971-.3038.0939-.1296.141-.2819.141-.4566,0-.2065-.0635-.3719-.1906-.4964-.1271-.1244-.3216-.213-.5837-.266Z"/>
          <polygon class="cls-2" points="85.0262 23.7828 85.9156 23.7828 85.9156 26.0779 86.5351 26.0779 86.5351 23.7828 87.4246 23.7828 87.4246 23.2784 85.0262 23.2784 85.0262 23.7828"/>
          <polygon class="cls-2" points="89.5371 25.3198 88.6277 23.2784 88.0837 23.2784 88.0837 26.0779 88.6475 26.0779 88.6475 24.539 89.3544 26.0779 89.7118 26.0779 90.4226 24.5231 90.4226 26.0779 90.9865 26.0779 90.9865 23.2784 90.4464 23.2784 89.5371 25.3198"/>
          <polygon class="cls-2" points="91.8799 26.0779 93.8256 26.0779 93.8256 25.5974 92.4715 25.5974 92.4715 24.8986 93.7303 24.8986 93.7303 24.4141 92.4715 24.4141 92.4715 23.7589 93.8256 23.7589 93.8256 23.2784 91.8799 23.2784 91.8799 26.0779"/>
          <polygon class="cls-2" points="96.4503 25.0759 95.0367 23.2784 94.5761 23.2784 94.5761 26.0779 95.1518 26.0779 95.1518 24.2757 96.5654 26.0779 97.026 26.0779 97.026 23.2784 96.4503 23.2784 96.4503 25.0759"/>
          <polygon class="cls-2" points="97.6693 23.7828 98.5588 23.7828 98.5588 26.0779 99.1783 26.0779 99.1783 23.7828 100.0677 23.7828 100.0677 23.2784 97.6693 23.2784 97.6693 23.7828"/>
          <polygon class="cls-2" points="102.7798 23.2784 102.1604 23.2784 102.1604 26.0779 104.0426 26.0779 104.0426 25.5577 102.7798 25.5577 102.7798 23.2784"/>
          <path class="cls-2" d="M106.6077,23.4135c-.2064-.1192-.4514-.1787-.7346-.1787s-.5281.0595-.7346.1787c-.2065.1191-.3647.2866-.4745.5023-.1099.2158-.1648.4692-.1648.7604,0,.2886.0556.5414.1668.7585.1111.217.2693.3858.4745.5062.2051.1205.4494.1807.7326.1807s.5282-.0602.7346-.1807c.2065-.1204.3659-.2885.4785-.5043.1125-.2157.1688-.4705.1688-.7644,0-.2885-.0563-.5406-.1688-.7564-.1126-.2157-.272-.3832-.4785-.5023ZM106.4171,25.3532c-.1244.1628-.3058.2442-.544.2442-.2436,0-.4255-.0814-.546-.2442s-.1806-.3884-.1806-.677c0-.2912.0601-.5168.1806-.677s.3024-.2403.546-.2403c.2409,0,.4229.0801.546.2403s.1847.3858.1847.677c0,.2886-.0623.5142-.1867.677Z"/>
          <path class="cls-2" d="M108.9465,23.2784l-1.2866,2.7995h.6235l.2634-.6075h1.3235l.2635.6075h.6274l-1.3025-2.7995h-.5122ZM109.2006,23.9297h.0159l.4591,1.0642h-.9236l.4486-1.0642Z"/>
          <polygon class="cls-2" points="113.1953 25.0759 111.7817 23.2784 111.3211 23.2784 111.3211 26.0779 111.8969 26.0779 111.8969 24.2757 113.3105 26.0779 113.7711 26.0779 113.7711 23.2784 113.1953 23.2784 113.1953 25.0759"/>
          <path class="cls-2" d="M117.9074,24.6286c.1173-.0441.2138-.1102.2891-.1986.0993-.1165.149-.2581.149-.4249,0-.2249-.0835-.4023-.2503-.5321-.1667-.1297-.4036-.1946-.7107-.1946h-1.2905v2.7995h1.3341c.3098,0,.5527-.0695.7287-.2084.1761-.139.2641-.3329.2641-.5818,0-.1879-.055-.3408-.1648-.4586-.0871-.0934-.2042-.1595-.3487-.2005ZM116.6856,23.7351h.5878c.1613,0,.2805.0291.3573.0873.0767.0583.1152.1444.1152.2582,0,.1165-.0385.2038-.1152.262-.0768.0583-.196.0874-.3573.0874h-.5878v-.6949ZM117.7062,25.53c-.0821.0582-.2.0873-.3535.0873h-.6671v-.7306h.6671c.1535,0,.2714.0284.3535.0853.082.057.123.1503.123.28,0,.127-.041.2198-.123.278Z"/>
          <path class="cls-2" d="M120.9802,24.974c-.0369-.0253-.0765-.0441-.1177-.0589.0424-.0131.0832-.0283.1216-.0463.1443-.0675.2555-.1641.3336-.2899.0781-.1257.1171-.276.1171-.4507,0-.2673-.086-.4758-.2581-.6254-.1721-.1495-.4156-.2244-.7306-.2244h-1.2706v2.7995h.6193v-1.092h.3257c.0873,0,.1648.0126.2323.0378.0674.0252.1172.0761.1489.1528l.4328.9014h.683l-.417-.8378c-.0582-.1165-.1317-.2051-.2203-.2661ZM120.3389,24.5412h-.5441v-.7823h.5441c.1614,0,.2845.0325.3693.0973.0847.0649.127.1622.127.2919s-.0423.2277-.127.2938c-.0848.0662-.2079.0993-.3693.0993Z"/>
          <path class="cls-2" d="M124.3097,23.4135c-.2064-.1192-.4514-.1787-.7346-.1787s-.5281.0595-.7346.1787c-.2065.1191-.3647.2866-.4745.5023-.1099.2158-.1648.4692-.1648.7604,0,.2886.0556.5414.1668.7585.1111.217.2693.3858.4745.5062.2052.1205.4494.1807.7326.1807s.5282-.0602.7346-.1807c.2065-.1204.3659-.2885.4785-.5043.1125-.2157.1688-.4705.1688-.7644,0-.2885-.0563-.5406-.1688-.7564-.1126-.2157-.272-.3832-.4785-.5023ZM124.1191,25.3532c-.1244.1628-.3057.2442-.544.2442-.2436,0-.4255-.0814-.546-.2442s-.1806-.3884-.1806-.677c0-.2912.0601-.5168.1806-.677s.3024-.2403.546-.2403c.2409,0,.4229.0801.546.2403.1232.1602.1847.3858.1847.677,0,.2886-.0623.5142-.1867.677Z"/>
          <polygon class="cls-2" points="128.2687 23.2784 127.534 23.2784 126.3865 24.4975 126.3785 24.4975 126.3785 23.2784 125.7591 23.2784 125.7591 26.0779 126.3785 26.0779 126.3785 24.7993 126.3865 24.7993 127.5976 26.0779 128.356 26.0779 126.9818 24.616 128.2687 23.2784"/>
          <polygon class="cls-2" points="128.7968 26.0779 130.7425 26.0779 130.7425 25.5974 129.3884 25.5974 129.3884 24.8986 130.6472 24.8986 130.6472 24.4141 129.3884 24.4141 129.3884 23.7589 130.7425 23.7589 130.7425 23.2784 128.7968 23.2784 128.7968 26.0779"/>
          <path class="cls-2" d="M133.2978,24.974c-.0369-.0253-.0765-.0441-.1178-.0589.0425-.0131.0832-.0283.1217-.0463.1443-.0675.2554-.1641.3335-.2899.0781-.1257.1172-.276.1172-.4507,0-.2673-.086-.4758-.2581-.6254-.1722-.1495-.4156-.2244-.7307-.2244h-1.2706v2.7995h.6194v-1.092h.3257c.0873,0,.1647.0126.2323.0378.0674.0252.1171.0761.1488.1528l.4328.9014h.6831l-.417-.8378c-.0582-.1165-.1318-.2051-.2203-.2661ZM132.6565,24.5412h-.5441v-.7823h.5441c.1614,0,.2845.0325.3692.0973.0847.0649.1271.1622.1271.2919s-.0424.2277-.1271.2938c-.0847.0662-.2078.0993-.3692.0993Z"/>
          <path class="cls-2" d="M135.5234,23.2784l-1.2866,2.7995h.6235l.2634-.6075h1.3235l.2635.6075h.6274l-1.3024-2.7995h-.5123ZM135.7775,23.9297h.0159l.4591,1.0642h-.9236l.4486-1.0642Z"/>
          <path class="cls-2" d="M139.1288,24.97h.6155v.5519c-.0644.0192-.1291.036-.1946.0477-.1032.0186-.2038.0278-.3017.0278-.2938,0-.5097-.0767-.6473-.2303-.1376-.1535-.2064-.3785-.2064-.675,0-.2991.0734-.5275.2203-.685.147-.1575.3659-.2362.6572-.2362.1033,0,.1946.0073.274.0218.0794.0146.1561.0397.2303.0754.0741.0358.1535.0841.2383.145l.1985-.4805c-.1165-.0953-.2522-.1688-.407-.2204-.1549-.0516-.3343-.0774-.5381-.0774-.3176,0-.5903.0595-.818.1787-.2276.1191-.4017.2872-.5221.5043-.1205.2171-.1807.4738-.1807.7703,0,.2886.0556.5407.1668.7565.1111.2157.276.3825.4944.5003.2183.1178.4877.1767.808.1767.1852,0,.3699-.0193.5539-.0576.1841-.0383.3462-.092.4865-.1608v-1.3739h-1.1278v.4407Z"/>
          <polygon class="cls-2" points="143.0521 23.7589 143.0521 23.2784 141.1064 23.2784 141.1064 26.0779 143.0521 26.0779 143.0521 25.5974 141.698 25.5974 141.698 24.8986 142.9568 24.8986 142.9568 24.4141 141.698 24.4141 141.698 23.7589 143.0521 23.7589"/>
        </g>
        <g>
          <path class="cls-2" d="M30.5158,10.211h-1.0908v-1.3305h2.4812v-1.3184h1.6781v1.3184h2.5171v1.3305h-1.0668c.3836.4555.6114,1.0309.6114,1.6661,0,1.5103-1.2707,2.7089-2.8768,2.7089-1.6062,0-2.8527-1.1986-2.8527-2.7089,0-.6352.2157-1.2106.5993-1.6661ZM32.961,15.4131v2.1336h5.7535v1.3664h-7.4436v-3.5h1.6901ZM32.7692,13.1956c.7312,0,1.2227-.5873,1.2227-1.4263,0-.8271-.4915-1.4863-1.2227-1.4863-.7311,0-1.2226.6592-1.2226,1.4863,0,.839.4915,1.4263,1.2226,1.4263ZM38.5346,7.8258v3.0445h1.774v1.3784h-1.774v3.6199h-1.666V7.8258h1.666Z"/>
          <path class="cls-2" d="M47.1889,14.8977v1.3424h-6.0651v-4.6626h3.4999v-1.8459h-3.4999v-1.3545h5.1421v4.5668h-3.5001v1.9538h4.4231ZM49.682,7.8258v3.6558h1.774v1.3904h-1.774v6.0411h-1.6661V7.8258h1.6661Z"/>
          <path class="cls-2" d="M55.1358,11.0141c0-1.7141,1.4023-2.9726,3.0445-2.9726,1.5941,0,3.0565,1.2585,3.0565,2.9726,0,1.738-1.4264,2.9606-3.0565,2.9606-1.6422,0-3.0445-1.2106-3.0445-2.9606ZM59.5707,11.0141c0-.887-.5634-1.5702-1.3904-1.5702-.8391,0-1.4025.6832-1.4025,1.5702,0,.875.5634,1.5822,1.4025,1.5822.827,0,1.3904-.7072,1.3904-1.5822ZM58.7796,15.2333v2.3134h5.7534v1.3664h-7.4195v-3.6798h1.6661ZM64.3532,7.8258v8.0428h-1.6661V7.8258h1.6661Z"/>
          <path class="cls-2" d="M73.4508,7.9576v10.5959h-1.5343v-5.5257h-1.0307v3.0925h-4.471v-7.7312h1.6302v2.589h1.2465v-2.589h1.5943v3.2363h1.0307v-3.6678h1.5343ZM69.2915,14.6939v-2.3013h-1.2465v2.3013h1.2465ZM75.7402,7.8258v11.0873h-1.5942V7.8258h1.5942Z"/>
          <path class="cls-2" d="M77.2625,16.384h10.3082v1.3784h-10.3082v-1.3784ZM86.1324,14.4062c-1.9058-.803-3.0445-1.5462-3.7157-2.3133-.6713.7911-1.81,1.5582-3.7518,2.3733l-.7312-1.3185c2.9367-1.2706,3.6079-2.2774,3.6079-3.5v-1.4024h1.7141v1.4024c0,1.2226.6832,2.1695,3.6198,3.4401l-.7431,1.3184Z"/>
          <path class="cls-2" d="M88.4099,16.384h10.3082v1.3784h-10.3082v-1.3784ZM91.4544,13.3155h6.0172v1.3784h-7.7073v-6.3408h7.5873v1.3785h-5.8972v1.0787h5.8373v1.3545h-5.8373v1.1507Z"/>
          <path class="cls-2" d="M100.0126,8.3651h5.3939v5.7535h-5.3939v-5.7535ZM101.6666,9.7795v2.9007h2.1217v-2.9007h-2.1217ZM103.3567,15.2213v2.3254h5.7655v1.3664h-7.4315v-3.6918h1.666ZM108.9424,7.8258v8.0428h-1.6661v-3.8836h-1.4025v-1.3784h1.4025v-2.7808h1.6661Z"/>
          <path class="cls-2" d="M110.7044,16.384h10.3082v1.3784h-10.3082v-1.3784ZM113.7489,13.3155h6.0172v1.3784h-7.7072v-6.3408h7.5873v1.3785h-5.8973v1.0787h5.8374v1.3545h-5.8374v1.1507Z"/>
          <path class="cls-2" d="M129.7627,14.7059v1.4144h-4.6148v-7.6233h4.2551v1.4143h-2.577v4.7946h2.9367ZM134.4733,7.8258v11.0873h-1.6182v-5.8853h-.803v5.5257h-1.5703V7.9576h1.5703v3.6678h.803v-3.7996h1.6182Z"/>
          <path class="cls-2" d="M142.0127,18.8532h-1.6781v-3.1404h-4.339v-1.3905h10.2843v1.3905h-4.2672v3.1404ZM143.2593,8.0055h1.6781v5.298h-7.5874v-5.298h1.6901v1.2945h4.2192v-1.2945ZM143.2593,11.9251v-1.2346h-4.2192v1.2346h4.2192Z"/>
          <path class="cls-2" d="M152.3209,19.4525c-1.8339,0-3.0805-1.0908-3.0805-2.4572,0-1.1147.887-2.0856,2.2535-2.3733v-.8151h-4.351v-1.3424h10.2842v1.3424h-4.2792v.8151c1.3666.2877,2.2535,1.2705,2.2535,2.3733,0,1.3544-1.2466,2.4572-3.0805,2.4572ZM148.3055,9.4319v-1.3784h7.983v1.3784h-3.1525v.0959c0,.4555.6113.7671,3.6198,1.3425l-.4434,1.2825c-2.0257-.3476-3.2843-.6952-4.0154-1.1507-.7192.4795-1.9778.8511-4.0395,1.2106l-.4434-1.2945c2.9966-.5633,3.6079-.9229,3.6079-1.3904v-.0959h-3.1165ZM152.3209,15.8925c-.9229,0-1.3904.5754-1.3904,1.1028,0,.5394.4675,1.1027,1.3904,1.1027.923,0,1.4024-.5633,1.4024-1.1027,0-.5274-.4794-1.1028-1.4024-1.1028Z"/>
          <path class="cls-2" d="M158.2422,15.6528c2.4452-1.75,3.0206-3.5359,3.0206-5.7894h-2.7929v-1.3664h4.411v1.0428c0,2.7928-.6952,5.1661-3.6198,7.2637l-1.0189-1.1507ZM167.9152,7.8258v11.0873h-1.6182v-5.7774h-1.0428v5.4178h-1.5702V7.9576h1.5702v3.7877h1.0428v-3.9195h1.6182Z"/>
        </g>
      </g>
      <polygon class="cls-1" points="22.2044 7.4033 11.1906 0 11.1906 9.2686 14.7692 11.6734 14.7698 11.674 14.7698 15.9924 7.4353 15.9924 7.4353 9.7856 0 14.4855 0 26.2804 .0006 26.2804 11.0144 33.6837 11.0144 24.415 7.4358 22.0102 7.4353 22.0096 7.4353 17.6913 14.7698 17.6913 14.7698 23.898 22.205 19.1981 22.205 7.4033 22.2044 7.4033"/>
    </g>
  </g>
</svg>