<svg xmlns="http://www.w3.org/2000/svg" viewBox="0 0 289.8095 428.5899"><defs><style>.cls-1{fill:#6dcff6;}.cls-2{fill:#fff;}.cls-3{fill:#231f20;}.cls-4{fill:#eff9fe;}.cls-5{fill:#d4effc;}.cls-6{fill:#6b0625;}.cls-7{fill:#2a0f15;}.cls-8{fill:#f49ac1;}.cls-9{fill:#da6fab;}.cls-10{fill:#fad5e5;}.cls-11{fill:#ed1c24;}.cls-12{fill:#ffcb05;}.cls-13{fill:#fff2eb;}.cls-14{fill:#2da44a;}.cls-15{fill:#891635;}.cls-16{fill:#fee7dc;}.cls-17{fill:#ffcb0b;}</style></defs><g id="Layer_2" data-name="Layer 2"><g id="Layer_1-2" data-name="Layer 1"><path class="cls-1" d="M92.60351,334.9727s-10.666-2-14.166,9.834c-3.5,11.832-7.8321,26.166-6,31.166,1.8339,5,20.6679,17.666,27.5,18,6.8339.334,22.5-1.5,27.5-7.834,5-6.332,3.666-47.666,3.666-47.666Z"/><path class="cls-1" d="M151.74071,369.1387s23.19721-31.666,29.53121-35.332c6.33209-3.668,43.83209,7.5,47.666,14.5s1.66609,13.498-2,16.832-9.33391,15.0019-13.33391,18.834c-4,3.834-22.334,13-32.16609,11.334C171.604,393.6387,151.74071,369.1387,151.74071,369.1387Z"/><path class="cls-2" d="M98.32611,360.0606a4.23472,4.23472,0,0,1-3.07419-1.2364c-1.90431-1.9043-11.72411-5.0019-18.08891-6.5918a2.50041,2.50041,0,0,1,1.21291-4.8515c2.72029.6797,16.21389,4.1816,20.15039,7.6621,1.8311-.3145,7.0855-4.8633,11.3399-9.8574a2.5001,2.5001,0,1,1,3.8066,3.2422c-2.2812,2.6777-10.1133,11.4277-15.1391,11.6289C98.46431,360.0606,98.395,360.0606,98.32611,360.0606Z"/><path class="cls-2" d="M105.52241,385.3067a2.25423,2.25423,0,0,1-.22949-.0118,2.49873,2.49873,0,0,1-2.26321-2.7148c.1949-2.1445.0591-12.4414-.0097-16.2285a2.49992,2.49992,0,0,1,4.999-.0918c.02591,1.4219.2451,13.9687-.0098,16.7734A2.5011,2.5011,0,0,1,105.52241,385.3067Z"/><path class="cls-2" d="M158.26611,364.4199a2.4996,2.4996,0,0,1-.334-4.9765c7.9492-1.0801,17.3457-2.7422,19.7187-3.6992.5547-2.2969.1563-10.6993-.6152-17.6621a2.49973,2.49973,0,0,1,4.9688-.5528c2.14451,19.3106-.0254,21.2031-.8418,21.916-2.1192,1.8496-13.4356,3.7129-22.55669,4.9532A2.50511,2.50511,0,0,1,158.26611,364.4199Z"/><path class="cls-3" d="M101.59471,396.5098h-.001c-.6387,0-1.2349-.0137-1.7783-.041-7.50149-.3672-27.5034-13.5801-29.7251-19.6348-1.9199-5.2422,1.13961-16.4844,5.6719-31.7969l.2778-.9394c3.1377-10.6074,11.4023-11.7539,14.8101-11.7539a13.88134,13.88134,0,0,1,2.07081.1465L131.33,335.9824a2.5009,2.5009,0,0,1,2.272,2.4082c.228,7.0547,1.0952,42.5879-4.20209,49.2969C123.89061,394.666,108.80371,396.5098,101.59471,396.5098Zm-10.7446-59.166c-3.4664,0-8.0181,1.4179-10.01519,8.1718l-.27831.9415c-2.8955,9.7812-7.271,24.5625-5.772,28.6543,1.4434,3.9355,19.3042,16.0722,25.2749,16.3632.4688.0235.9829.0352,1.5342.0352,7.648,0,20.1133-2.1465,23.8814-6.9199,2.9272-3.7071,3.6142-27.1114,3.19281-43.8282l-36.291-3.3007c-.07811-.0059-.15621-.0176-.23391-.0313h.0005A8.585,8.585,0,0,0,90.85011,337.3438Z"/><path class="cls-3" d="M184.01411,398.0059a18.02158,18.02158,0,0,1-2.9941-.2344c-10.4629-1.7734-29.127-24.4746-31.2227-27.0586a2.50085,2.50085,0,0,1-.0742-3.0508c2.4063-3.2851,23.6973-32.1992,30.2949-36.0195a10.83674,10.83674,0,0,1,5.375-1.0566c11.8184,0,41.7578,9.2539,45.7364,16.5195,4.4453,8.1152,1.9433,15.834-2.5098,19.8828-1.5703,1.4277-3.8613,5.1055-6.0762,8.6621-2.5586,4.1074-4.97649,7.9883-7.2109,10.127C210.96531,389.9649,194.73481,398.0059,184.01411,398.0059Zm-29.1074-28.9531c7.69921,9.2343,20.8066,22.748,26.94921,23.789a13.05331,13.05331,0,0,0,2.15819.1641c9.3867,0,24.5801-7.6953,27.8594-10.8379,1.7812-1.707,4.1426-5.4961,6.4258-9.1621,2.5058-4.0235,4.873-7.8223,6.957-9.7168,3.002-2.7305,4.627-8.0508,1.4883-13.7813-2.42769-4.4336-28.7969-13.9218-41.3516-13.9218a6.50536,6.50536,0,0,0-2.86909.3828C178.42041,338.3457,163.90081,356.8809,154.90671,369.0528Z"/><path class="cls-2" d="M209.518,377.0567a2.49537,2.49537,0,0,1-1.5586-.5469l-19.1113-15.25a2.50014,2.50014,0,0,1,3.1191-3.9082l19.1114,15.25a2.50089,2.50089,0,0,1-1.5606,4.4551Z"/><path class="cls-1" d="M121.93751,374.8067s4.666-15.5,23.166-12.5c18.5005,3,24.0005,1.666,27.5005,4.832,3.5,3.168,15.33391,25.0019,14.5,28.668s-6.16609,20.498-11.66609,22.166c-5.5,1.666-40.33441,12.834-45.33441,5.834s-9.7285-23.7207-12.666-27.5S117.93751,383.8067,121.93751,374.8067Z"/><path class="cls-2" d="M143.29831,391.9492c-7.86039,0-17.3662-.5449-22.6938-.8984a2.4996,2.4996,0,1,1,.33-4.9883c13.7627.9102,30.0562,1.2793,32.3843.2891,1.6289-.9258,6.07811-8.8164,9.1777-15.586a2.50006,2.50006,0,0,1,4.5469,2.0801c-1.6621,3.6328-7.3926,15.6582-11.3164,17.8848C154.11761,391.6446,149.16651,391.9492,143.29831,391.9492Z"/><path class="cls-2" d="M172.90081,414.0567a2.49271,2.49271,0,0,1-1.9687-.9571c-.957-1.2187-8.5859-9.3867-13.4824-14.5781a2.50011,2.50011,0,1,1,3.6386-3.4297c1.2618,1.3379,12.375,13.1328,13.7774,14.9219a2.5,2.5,0,0,1-1.9649,4.043Z"/><path class="cls-3" d="M137.78221,428.5899c-4.9351,0-8.1118-1.0899-9.7129-3.3301-2.9536-4.1348-5.689-11.125-8.1025-17.291-1.6797-4.293-3.417-8.7305-4.503-10.1289-3.8012-4.8907-.23089-14.0938,4.1284-23.9121a21.67141,21.67141,0,0,1,20.9312-14.5079,31.25119,31.25119,0,0,1,4.981.418c7.2578,1.1777,12.5449,1.6856,16.4043,2.0547,6.4238.6172,9.6464.9258,12.373,3.3926,3.2324,2.9258,16.4629,25.7812,15.2598,31.0762-.0489.2128-5.5078,21.6171-13.3789,24.0039l-1.043.3183C168.76021,422.6406,149.40871,428.5899,137.78221,428.5899Zm2.7412-64.17a16.62132,16.62132,0,0,0-16.1953,11.1172,2.68967,2.68967,0,0,1-.106.2852c-2.1274,4.7851-7.1084,15.9941-4.8105,18.9492,1.53031,1.9707,3.1548,6.1191,5.2114,11.375,2.3071,5.8945,4.9224,12.5781,7.5147,16.207.1479.2071,1.11321,1.2364,5.6445,1.2364,7.2158,0,19.28471-2.586,35.86671-7.6836l1.06249-.3262c3.293-.998,8.4609-13.8496,9.93551-20.2441.02149-3.2969-10.41011-23.3477-13.72071-26.3438-1.4258-1.2891-3.5527-1.5508-9.4941-2.1211-3.9297-.3769-9.3086-.8945-16.729-2.0976A26.23642,26.23642,0,0,0,140.52341,364.4199Z"/><path class="cls-2" d="M142.00241,420.6465a30.50585,30.50585,0,0,1-9.0288-1.2207,2.49988,2.49988,0,0,1,1.584-4.7422,31.37679,31.37679,0,0,0,19.7417-1.4453,2.49963,2.49963,0,1,1,1.8691,4.6367A37.842,37.842,0,0,1,142.00241,420.6465Z"/><path class="cls-4" d="M2.89251,295.4727s-5.955,28.832,25.3789,38c31.3321,9.166,116.6661,10.666,139.00051,10,22.33209-.666,103.33209-10.5,110.33209-19s15.248-26.8828,6.166-36.1914l-27,11.9843-130.4986,5.7071Z"/><path class="cls-3" d="M155.43011,346.1094c-32.1201,0-100.1801-2.1387-127.8608-10.2383C-5.56689,326.1778.39161,293.3321.45551,293a2.50057,2.50057,0,0,1,2.7066-2.0117l123.1806,12.4785,129.8667-5.6797,27.9121-11.8086a2.498,2.498,0,0,1,3.1172,1.0157c7.3867,12.2949-2.9941,34.914-7.9726,39.3457-9.3125,8.2871-92.2696,19.0449-111.9199,19.6308C164.29541,346.0625,160.17621,346.1094,155.43011,346.1094ZM5.06981,296.2071c-.6343,6.955-.3814,27.7617,23.9038,34.8652,25.1704,7.3652,89.4155,10.0371,126.4565,10.0371,4.6973,0,8.7657-.0469,11.7676-.1367,23.1524-.6895,101.53521-11.9512,108.74421-18.3672,3.89249-3.4649,11.58589-21.127,7.93159-31.0938l-26.1309,11.0567a2.52607,2.52607,0,0,1-.8632.1953l-130.4986,5.707a3.17588,3.17588,0,0,1-.3613-.0097Z"/><path class="cls-4" d="M56.26951,173.1387s-10.332,47.668-14.666,53.168,77.666,5,77.666,5l88.8345-5,40.332-4.668s-13-36.834-23-62.334l-54.166-4.332h-43.0005Z"/><path class="cls-5" d="M53.07031,185.4658s-1.584,8.75,8.166,8.3331,15.168-21.3331,25.584-20.25,16.166,12.4169,23.75,12c7.582-.417,20.416-7.334,25.5-10.417,5.082-3.083,14.2485-1.583,19.2485,2.8339,5,4.4161,15.334,18.75,26.168,21.25s25.25-1.7509,31.916-13.8339a18.15614,18.15614,0,0,1,18.834-9.6661l-3.25-7.25-15.168-1.25-44.748-6.3339-35.7505-4.583-26.4688,4-39.6992,6.4169S53.98631,178.7989,53.07031,185.4658Z"/><path class="cls-4" d="M31.43751,251.6387s-12.834,22-17.6661,25c-4.8339,3-19.5019,16.834-3.8339,27,15.666,10.168,131.332,11.5,142.3325,11.168,11-.334,70.834-.6661,74.834-2.334,4-1.666,55.832-5,58.666-18s-13.666-16.2246-13.666-16.2246a143.84007,143.84007,0,0,1-17.334-36.4414l-30.33209-7.1661-30.33391,8.5-96.5005.6661Z"/><path class="cls-5" d="M16.89451,276.4317s-7.5742,9.4511-4.8242,13.9511,10.5,9.0821,24.25,11.1661,35.5097,4.8339,52.0039,5.5839c16.4961.75,43.6289.5274,50.4961.918,6.86761.3887,46.3325,1,55.2485,0,8.918-1,44.834-3.75,53.418-5.668,8.584-1.916,26.082-6.916,27.666-10.832,1.584-3.918-1-10.75-1-10.75s6.334-.2519,8.834,3.166c2.5,3.416,2.084,12.5,2.084,12.5l-19.75,9.5a292.29692,292.29692,0,0,1-29.5,6.334c-14.75,2.25-24.88289,4.0449-37.5508,5.1289-12.666,1.082-47.1992-1.0469-56.2837-1.3808-9.084-.3321-72.5-1.0821-79.5-2.9161s-36.25-1.582-44.334-4.582c-8.082-3-14.832-9.1387-15.25-11.7363-.416-2.5977-1.082-13.4317,5.168-15.8477S16.89451,276.4317,16.89451,276.4317Z"/><path class="cls-5" d="M23.90231,265.5508s8.334,11.582,20.5,5.082c12.168-6.5,22.418-17.3339,29.168-7.666,6.75,9.666,31.25,8.166,44.916,5.75,13.666-2.4179,35.8345-13.1074,47.5845-9.5957s24.332,14.1367,42.832,8.7403c18.5-5.3946,9.75-17.9786,28.834-16.6446s19.582,3.666,19.582,3.666l-2.25-10.832-18.916-5.668-45.666,5.584-40.334-5.584-61.8286,5.834-33.1719-1.084-25.332,10.918Z"/><path class="cls-3" d="M148.02192,317.3399c-23.22651,0-123.96091-1.5547-139.44531-11.6035-5.4804-3.5567-8.2339-7.9278-8.1826-12.9922.08891-8.8262,8.959-16.3047,12.0591-18.2286,3.13381-1.9472,11.9834-15.8378,16.8252-24.1367a2.49749,2.49749,0,0,1,1.8652-1.2226l66.166-7.8321a2.18793,2.18793,0,0,1,.2769-.0175l96.164-.6641,30.0118-8.4102a2.533,2.533,0,0,1,1.25-.0253l30.332,7.166a2.50339,2.50339,0,0,1,1.8086,1.6777,145.78257,145.78257,0,0,0,16.4707,34.9902c2.5898.6817,9.3086,2.9004,12.8008,8.209a13.61891,13.61891,0,0,1,1.7871,10.7559,2.50349,2.50349,0,0,1-.1934.5605c-.6269,1.2891-7.4472,12.7637-53.2207,18.1211a2.50039,2.50039,0,1,1-.582-4.9668c39.3984-4.6113,48.0293-13.7168,49.1992-15.2148a8.54149,8.54149,0,0,0-1.1601-6.4942c-3.1172-4.7617-10.5606-6.2968-10.6348-6.3125a2.5004,2.5004,0,0,1-1.55269-1.0019,144.47959,144.47959,0,0,1-17.24421-35.7832l-28.332-6.6934-29.7129,8.3262a2.48933,2.48933,0,0,1-.6563.0937l-96.3618.6641-64.7949,7.6719c-3.1948,5.4121-13.1523,21.8555-17.8745,24.7871-3.0127,1.8691-9.6358,7.998-9.6968,14.0312-.0322,3.2403,1.9541,6.1836,5.9048,8.7481,14.4463,9.375,128.1758,11.1504,140.8955,10.7637a2.50013,2.50013,0,1,1,.1504,4.998C151.65081,317.3262,150.16651,317.3399,148.02192,317.3399Z"/><path class="cls-3" d="M114.06,233.8184c-72.0137,0-73.8369-3.7578-74.8164-5.7774a3.053,3.053,0,0,1,.396-3.2812c2.8975-3.6777,10.23931-33.9395,14.1865-52.1514a2.49866,2.49866,0,0,1,1.8316-1.8935l72-18.166a2.48721,2.48721,0,0,1,.6118-.0762H171.27c.0664,0,.1328.0019.1992.0078l54.166,4.332a2.49649,2.49649,0,0,1,2.127,1.5801c9.9023,25.2471,22.9004,62.0449,23.0312,62.4141a2.50309,2.50309,0,0,1-2.0703,3.3164l-40.332,4.666c-.0489.0058-.0977.0098-.1465.0137l-88.8345,5c-.042.0019-.0835.0039-.1255.0039C119.28461,233.8067,117.33931,233.8184,114.06,233.8184Zm-69.3266-7.9903c6.1132,1.5606,28.748,2.9903,69.3266,2.9903,2.92191,0,4.7788-.0098,5.1323-.0117l88.6968-4.9922,37.1406-4.2989c-3.21679-9.0429-13.21479-36.9794-21.3535-57.8437l-52.5058-4.1992H128.58l-70.1977,17.7109C56.24651,184.9385,49.16551,216.4121,44.73341,225.8281Z"/><path class="cls-6" d="M96.60351,97.9717s-22,13.667-31.334,31.834c-9.332,18.166-23.332,50.833-4.666,53.833s13.6679-16,28-15.333c14.334.666,14.5,14,28.834,11.833,14.332-2.167,23.5-23.666,39.00041-12,15.5,11.667,15,25.667,28.16609,26.667s22-18.667,27.666-23.5c5.66791-4.833,15.00191-2.5,18.334-2.833,3.33391-.334,5.66791-24.668-12.5-46.001-18.16609-21.333-35.16609-26.5-35.16609-26.5Z"/><path class="cls-7" d="M84.40231,107.3819s1.9902,19.8886,21.75,19.5c16.6172-.3262,18-5,18-5a29.17749,29.17749,0,0,0,23.0005,5.0205c13.5-2.7705,16.25-8.0205,16.25-8.0205s7.1113,6.9248,14.75,6.25c9.3672-.8262,20-6.5,22.25-20l-15.5-6.25-51.2505-3.75S95.90231,95.6319,84.40231,107.3819Z"/><path class="cls-3" d="M185.57271,197.3418c-.38279,0-.7695-.0137-1.1582-.0439-8.5859-.6514-12.1894-6.0586-16.3594-12.3184-3.1113-4.6709-6.6386-9.9648-13.1211-14.8428a12.58707,12.58707,0,0,0-7.57809-2.9462c-4.60351,0-9.00491,3.3847-13.66551,6.9677-4.8159,3.7032-9.7959,7.5332-15.8794,8.4522a22.64946,22.64946,0,0,1-3.37209.2666c-6.52491,0-10.30811-3.3028-13.64551-6.2168-3.2881-2.8711-6.394-5.583-12.3061-5.8574-4.8897-.2276-6.6778,2.1005-9.4561,6.3388-2.7222,4.1514-6.11029,9.3184-14.688,9.3184h-.0014a26.22179,26.22179,0,0,1-4.1348-.3526c-4.4824-.7207-7.6948-2.9433-9.5483-6.6054-5.6304-11.128,3.6284-33.7881,12.38721-50.8389,9.54049-18.5693,31.31589-32.2422,32.23819-32.8144a2.497,2.497,0,0,1,1.2613-.376l86.334-2.001a2.50376,2.50376,0,0,1,.7851.1074c.7227.2198,17.9121,5.6289,36.3418,27.2715,15.1231,17.7568,16.2363,36.8379,14.7129,44.4473-.584,2.9131-1.5586,4.6797-2.9844,5.4033a11.68683,11.68683,0,0,1-5.4551,1.124c-1.1523,0-2.3222-.0937-3.455-.1836-1.0879-.0879-2.2149-.1777-3.2774-.1777a8.05279,8.05279,0,0,0-5.6562,1.7441,44.38829,44.38829,0,0,0-5.1836,6.4121C203.268,187.0987,195.82081,197.3418,185.57271,197.3418Zm-38.21679-35.1513a17.36082,17.36082,0,0,1,10.584,3.9511c7.16409,5.3916,11.10739,11.3096,14.27539,16.0655,3.8672,5.8037,6.4219,9.6376,12.5781,10.1054,8.0762.6162,14.9024-8.8027,19.8692-15.6328a45.3073,45.3073,0,0,1,5.98431-7.2764,13.16252,13.16252,0,0,1,8.90039-2.9394c1.2617,0,2.4903.0976,3.6778.1933,1.082.087,2.1035.168,3.0546.168a7.56134,7.56134,0,0,0,2.9141-.4541c1.5723-2.7441,3.6777-22.7021-12.9941-42.2783-15.9961-18.7852-31.17-24.7344-33.6446-25.6113l-85.1909,1.9736c-3.437,2.248-21.7822,14.75-29.8711,30.4932-11.4614,22.3115-15.97119,39.1855-12.373,46.2959A7.3653,7.3653,0,0,0,61,181.1709a21.23393,21.23393,0,0,0,3.3422.2891c5.878.001,7.9209-3.1153,10.5079-7.0606,2.6093-3.9785,5.853-8.9638,13.8696-8.5908,7.6543.3555,11.749,3.9307,15.3618,7.085,3.189,2.7842,5.708,4.9834,10.35741,4.9834a17.61626,17.61626,0,0,0,2.625-.21c4.80619-.7265,9.26609-4.1562,13.57859-7.4717C135.76071,166.2598,141.05271,162.1905,147.35592,162.1905Z"/><path class="cls-8" d="M125.60351,39.8057s-27.3321,7.166-26.166,41.5c0,0-16.1661,11.666-4.834,26.166,11.334,14.5,27.834,1.5,27.834,1.5s18.332,15.001,36.3325.167c0,0,17.66791,12.5,27.16791,1.5s4.66609-22.667-3.33391-27.667c0,0,8.166-26-15.834-43.166Z"/><path class="cls-9" d="M121.65231,41.8819s-12.5,2.5-8,17.5,14.8633,15.1015,29.5,11.25c17.8677-4.7012,36.2505-24.75,26.7505-25.5s-33.5005-3.25-33.5005-3.25Z"/><path class="cls-7" d="M85.26951,141.9658s-2.834,5.75,1.75,8.25c4.582,2.5,12.666-.75,16.5-3.75,3.832-3,4.709-9.4003,1.125-11.6503C101.06251,132.5655,85.26951,141.9658,85.26951,141.9658Z"/><path class="cls-7" d="M140.75392,141.211s-.69931,6.372,4.46289,7.1552c5.1626.7832,11.6489-5.0332,14.227-9.1621,2.57811-4.1299,1.2129-10.4433-2.92189-11.334C152.38521,126.9805,140.75392,141.211,140.75392,141.211Z"/><path class="cls-7" d="M177.78761,177.8614s.4511,6.3935,5.6699,6.2421c5.2207-.1523,10.5605-7.0341,12.35941-11.5576,1.79879-4.5244-.67391-10.4922-4.90041-10.6299C186.686,161.7803,177.78761,177.8614,177.78761,177.8614Z"/><path class="cls-7" d="M194.934,143.709s-3.6992,5.2344.4375,8.4219c4.1348,3.1875,12.627,1.2431,16.8829-1.1192,4.2578-2.3623,6.123-8.5468,2.93751-11.33C212.00441,136.8985,194.934,143.709,194.934,143.709Z"/><path class="cls-3" d="M141.47071,118.1885c-8.8697,0-16.02979-4.0947-19.062-6.1475-2.63679,1.711-8.2671,4.7891-14.6392,4.7891-5.9883,0-11.08059-2.6309-15.1358-7.8184-3.6215-4.6347-5.0986-9.5136-4.3896-14.5029,1.0215-7.1865,6.3477-12.4131,8.6641-14.3808-.5074-34.8389,27.7719-42.6651,28.061-42.7413a2.52762,2.52762,0,0,1,.6343-.081H166.77a2.49367,2.49367,0,0,1,1.4531.4668c21.42581,15.3242,18.59181,37.6318,17.21681,44.1191a20.62964,20.62964,0,0,1,8.02339,13.1758c.627,4.1475.1582,10.499-5.6347,17.2061a15.351,15.351,0,0,1-12.1485,5.3935h-.0019c-6.9336-.001-13.7637-3.6299-16.7695-5.4629A28.76392,28.76392,0,0,1,141.47071,118.1885Zm-19.03179-11.7148a2.491,2.491,0,0,1,1.58159.5634c.0717.0586,7.6963,6.1514,17.4502,6.1514a24.32969,24.32969,0,0,0,15.7094-5.9785,2.49981,2.49981,0,0,1,3.0332-.1123c.0762.0547,7.9961,5.5683,15.4649,5.5693h.0019a10.42472,10.42472,0,0,0,8.3653-3.6621c3.60151-4.1689,5.1484-8.7305,4.4746-13.1904a15.67587,15.67587,0,0,0-7.2422-10.7227,2.49928,2.49928,0,0,1-1.0586-2.8691c.30271-.9795,7.1406-24.0615-14.2637-39.917h-40.0029c-2.9302.8808-25.0479,8.5508-24.0166,38.915a2.50136,2.50136,0,0,1-1.0357,2.1123c-.0625.045-6.7426,4.9854-7.7099,11.9082-.50049,3.5821.6377,7.1787,3.3828,10.6914,3.0586,3.9131,6.82571,5.8975,11.1963,5.8975,6.8725,0,13.063-4.7764,13.1245-4.8252A2.50484,2.50484,0,0,1,122.43892,106.4737Z"/><path class="cls-10" d="M173.98292,80.2471a2.50339,2.50339,0,0,1-2.47271-2.8838c2.3242-14.9707-11.541-29.1562-11.6816-29.2978a2.50014,2.50014,0,0,1,3.5508-3.5206c.64451.6514,15.7793,16.1475,13.0722,33.586A2.50167,2.50167,0,0,1,173.98292,80.2471Z"/><path class="cls-11" d="M173.43792,27.4727s1.99809,8.333-1.66791,13c-3.666,4.666-6.99809,11.5-18.166,17-11.1665,5.5-22.0005,9.166-27.3345,4.333-5.332-4.833-6.9981-18.833-4.832-29.167,2.166-10.333,5.5527-26.1797,25.811-24.666Z"/><path class="cls-3" d="M133.06051,66.5537a12.18635,12.18635,0,0,1-8.4697-2.8955c-6.3374-5.7451-7.8413-20.8398-5.6001-31.5322,2.0976-10.0068,5.6079-26.7549,25.6284-26.7549.9106,0,1.8579.0371,2.8149.1084a2.50117,2.50117,0,0,1,1.3067.4873l26.1894,19.5a2.48579,2.48579,0,0,1,.9375,1.4229c.0938.3877,2.2305,9.5732-2.1328,15.1269-.6113.7783-1.2304,1.6446-1.8847,2.5615-3.28719,4.6016-7.3789,10.3291-17.1426,15.1368C145.23631,64.3809,138.35792,66.5537,133.06051,66.5537Zm11.5586-56.1826c-15.96,0-18.7197,13.167-20.7349,22.7803-2.1308,10.168-.1938,22.9424,4.0645,26.8017a7.30161,7.30161,0,0,0,5.1118,1.6006c4.44141,0,10.7998-2.0693,19.438-6.3242,8.6348-4.2519,12.166-9.1963,15.2832-13.5576.6895-.9648,1.3398-1.876,2.0215-2.7441,2.0976-2.669,1.7969-7.5401,1.373-10.0225l-24.8281-18.4854C145.76021,10.3877,145.18061,10.3711,144.61911,10.3711Z"/><path class="cls-12" d="M132.16351,29.7344a2.50145,2.50145,0,0,1-2.1069-3.8428,12.20062,12.20062,0,0,1,3.3564-3.5195,2.5,2.5,0,0,1,2.7305,4.1885,7.49957,7.49957,0,0,0-1.8682,2.0146A2.49868,2.49868,0,0,1,132.16351,29.7344Z"/><path class="cls-12" d="M143.437,36.2041a2.49995,2.49995,0,0,1-1.815-4.2187l1.79691-1.8985a2.49981,2.49981,0,1,1,3.63039,3.4375l-1.79639,1.8985A2.49566,2.49566,0,0,1,143.437,36.2041Z"/><path class="cls-12" d="M130.62061,41.9209a2.49995,2.49995,0,0,1-1.815-4.2187l1.7969-1.8985a2.5,2.5,0,0,1,3.6309,3.4375l-1.7969,1.8985A2.49175,2.49175,0,0,1,130.62061,41.9209Z"/><path class="cls-12" d="M157.186,42.4727a2.50217,2.50217,0,0,1-2.3906-3.2324l.9179-3a2.5,2.5,0,0,1,4.7813,1.4628l-.918,3A2.50223,2.50223,0,0,1,157.186,42.4727Z"/><path class="cls-12" d="M145.23341,48.8057a2.5006,2.5006,0,0,1-1.9253-4.0938,25.17976,25.17976,0,0,0,1.8051-2.375,2.50045,2.50045,0,0,1,4.2779,2.5899,27.68651,27.68651,0,0,1-2.2305,2.9717A2.496,2.496,0,0,1,145.23341,48.8057Z"/><path class="cls-12" d="M134.01751,54.8057a2.50072,2.50072,0,0,1-2.03759-3.9463l1.418-2A2.5,2.5,0,1,1,137.477,51.751l-1.418,2A2.49726,2.49726,0,0,1,134.01751,54.8057Z"/><path class="cls-10" d="M108.52441,108.7451c-3.5801.001-7.4668-.9843-9.959-4.4912-5.4526-7.6748-.2417-15.3808-.0176-15.705a2.50023,2.50023,0,0,1,4.1192,2.8349c-.1509.2236-3.419,5.1983-.0254,9.9736,3.2802,4.6172,12.63031,1.1534,12.7236,1.1172a2.49989,2.49989,0,0,1,1.8086,4.6612A26.49216,26.49216,0,0,1,108.52441,108.7451Z"/><path class="cls-10" d="M142.79151,111.2764a17.97484,17.97484,0,0,1-11.189-4.1074,2.50014,2.50014,0,0,1,3.3252-3.7344,12.41049,12.41049,0,0,0,12.1216,2.0342c5.2617-2,6.6601-4,7.4121-5.0742a3.78894,3.78894,0,0,1,2.5273-1.8926c1.1875-.1895,2.0879.3252,4.7559,1.8476,2.9004,1.6543,8.9375,5.0948,11.8574,4.6514a7.98323,7.98323,0,0,0,4.9395-3.5605,9.47187,9.47187,0,0,0,1.7832-6.9502,2.49969,2.49969,0,1,1,4.8906-1.0372,14.37282,14.37282,0,0,1-2.5625,10.8321,12.8219,12.8219,0,0,1-8.29489,5.6582c-4.28521.6553-9.80281-2.2354-15.08991-5.251-.3984-.2266-.8398-.4785-1.2383-.7002-1.1777,1.5479-3.5117,3.9863-9.2031,6.1504A16.90787,16.90787,0,0,1,142.79151,111.2764Z"/><path class="cls-13" d="M67.644,145.2871a2.5008,2.5008,0,0,1-2.3262-3.415,84.25252,84.25252,0,0,1,17.1958-26.3457,2.49978,2.49978,0,0,1,3.5127,3.5576c-.104.1035-10.4961,10.4834-16.0551,24.6182A2.50094,2.50094,0,0,1,67.644,145.2871Z"/><path class="cls-13" d="M61.55071,177.8057a2.49289,2.49289,0,0,1-1.5161-.5137c-8.5488-6.5332.6704-22.7617,1.75-24.5908a2.5,2.5,0,0,1,4.3067,2.54c-2.6997,4.5879-6.9903,15.044-3.0205,18.0782a2.50016,2.50016,0,0,1-1.5201,4.4863Z"/><path class="cls-14" d="M158.43792,9.6387S163.27,1.6397,165.77,2.9727s4.334,3.833-.83209,10.666c0,0,15.99809,10.167,11.33209,15-4.666,4.834-9.166-4-9.166-4s-.66609,8-2.66609,9-2.83391-9.833-4.66791-11c-1.83209-1.166-6.83209,8.167-9.33209,6.167s.33209-9.084,0-10.542c-.33391-1.458-9.00041,1.209-10.50041,1.709s-7.4043-4.334,5.2968-7.834c0,0-4.6562-4.667-7.9765-5.833C133.93751,5.1387,137.43751-3.3613,158.43792,9.6387Z"/><path class="cls-3" d="M164.18011,36.2041c-2.9101,0-3.7265-3.2754-4.7578-7.4219-.19139-.7656-.4511-1.8105-.7109-2.6953-.3418.3575-.68949.7383-.97849,1.0547-2.09381,2.2862-4.07031,4.4453-6.49811,4.4463h-.00189a3.74049,3.74049,0,0,1-2.35751-.8301c-2.8984-2.3193-1.9531-6.8916-1.2578-10.2343a59.38772,59.38772,0,0,0-6.8896,1.8203,3.25856,3.25856,0,0,1-1.03609.164,5.30812,5.30812,0,0,1-4.89261-4.4355c-.378-2.794,1.5005-5.1055,5.5923-6.8984a16.0736,16.0736,0,0,0-3.9624-2.5098,3.98728,3.98728,0,0,1-2.7046-4.4619C134.05511,2.2637,136.00531,0,140.413,0c4.3584,0,10.15191,2.1016,17.2437,6.25,1.9453-2.7939,4.74221-5.9277,7.498-5.9277a3.76159,3.76159,0,0,1,1.7911.4443,6.6037,6.6037,0,0,1,3.6464,4.4112c.4883,2.2109-.1972,4.7275-2.15029,7.8037,3.789,2.665,10.56439,8.0537,11.13669,12.8691a5.39852,5.39852,0,0,1-1.5098,4.5244,6.51646,6.51646,0,0,1-4.7402,2.21,7.27258,7.27258,0,0,1-4.6446-1.8877c-.7168,2.7598-1.7617,4.4941-3.1289,5.1777A3.03818,3.03818,0,0,1,164.18011,36.2041Zm2.9239-14.0644a2.49909,2.49909,0,0,1,2.2265,1.3642c.85741,1.6651,2.77741,4.0811,3.9981,4.0811a1.91068,1.91068,0,0,0,1.1426-.6826.44835.44835,0,0,0,.1425-.46c-.291-2.46-5.9453-7.4658-11.0175-10.6943a2.49844,2.49844,0,0,1-.6524-3.6172c2.918-3.8594,2.8555-5.4746,2.7656-5.877-.0293-.1338-.0898-.4131-.6601-.8017a21.25936,21.25936,0,0,0-4.4727,5.4804,2.50064,2.50064,0,0,1-3.4551.8321c-9.6972-6.003-14.7363-6.8018-16.8349-6.7637a38.91616,38.91616,0,0,1,6.7178,5.3721,2.50057,2.50057,0,0,1-1.10549,4.1758c-4.40191,1.2128-5.69631,2.3945-6.03961,2.8232,1.835-.5762,6.7603-2.04,9.4048-2.04,2.7676,0,3.4473,1.6601,3.6094,2.373a9.4583,9.4583,0,0,1-.3594,3.8223,25.1672,25.1672,0,0,0-.6308,4.457c.7148-.6406,1.59961-1.6064,2.1601-2.2188,1.9063-2.083,3.4141-3.7275,5.3692-3.7275a3.15632,3.15632,0,0,1,1.6992.4922c1.5703.999,2.1914,3.1572,3.11911,6.8691.16409-.958.29879-1.9824.38089-2.9687a2.4999,2.4999,0,0,1,2.4922-2.291Z"/><path class="cls-6" d="M61.10351,219.1406s-17.3321-4.6464-27.166,12.1778c-9.834,16.8222-15.668,23.9883,1.166,27.4883s23.334-13.334,31.834-8.834,27.5,13.3066,44.5,9.6543c17-3.6543,42.6665-15.3203,66.6665-6.8203s39.83391-13.834,52-11.5,29.66791,8.3339,30.66791,2.8339-6.334-30.0019-23-35.5019c-16.66791-5.5-45.66791,7.5-65.16791,9S81.60351,225.4746,61.10351,219.1406Z"/><path class="cls-13" d="M40.395,237.4649a2.49985,2.49985,0,0,1-2.3736-3.2871c2.6094-7.8672,13.1539-11.5801,13.6016-11.7344a2.49939,2.49939,0,0,1,1.6328,4.7246h0c-2.4028.8379-8.9712,4.0098-10.4883,8.584A2.50141,2.50141,0,0,1,40.395,237.4649Z"/><path class="cls-13" d="M38.39741,253.4317c-.0718,0-.144-.0039-.2163-.0098-3.6235-.3105-5.916-1.5918-6.813-3.8066-1.3745-3.3946,1.46-6.9043,2.042-7.5743a2.50014,2.50014,0,0,1,3.77981,3.2735,4.57187,4.57187,0,0,0-1.18461,2.4316h.0005c.0103,0,.482.5117,2.60211.6934a2.5007,2.5007,0,0,1-.21051,4.9922Z"/><path class="cls-15" d="M90.23821,138.7969s-2.9472.8975-1.4101,3.46,5.5097,2.8193,9.6094,0c4.1015-2.8194,2.8203-7.3047.7695-7.4327-2.0488-.1279-2.4336,1.1534-3.8438,1.9219A50.84,50.84,0,0,1,90.23821,138.7969Z"/><path class="cls-7" d="M49.03511,237.1211s-2.832,5.75,1.75,8.25c4.584,2.5,12.668-.75,16.5-3.75,3.834-3,4.711-9.4004,1.127-11.6504C64.83,227.7207,49.03511,237.1211,49.03511,237.1211Z"/><path class="cls-7" d="M113.31831,234.6406s-6.19139,1.6602-5.0508,6.7559c1.1426,5.0938,8.9161,9.0293,13.6973,9.9336,4.7852.9043,10.1738-2.6562,9.5039-6.834S113.31831,234.6406,113.31831,234.6406Z"/><path class="cls-7" d="M217.70551,232.4707s-1.3144,6.2754,3.7461,7.5567c5.0625,1.2812,12.0821-3.875,15.0488-7.7344s2.2266-10.2754-1.8046-11.5645C230.66651,219.4395,217.70551,232.4707,217.70551,232.4707Z"/><path class="cls-15" d="M54.90431,233.4649s-2.9473.8965-1.4102,3.459,5.50981,2.8203,9.6113,0c4.0996-2.8184,2.8184-7.3047.7676-7.4317-2.0488-.1289-2.4336,1.1524-3.8437,1.9219A50.84963,50.84963,0,0,1,54.90431,233.4649Z"/><path class="cls-16" d="M98.01751,135.749c.4219,1.0957-1.1425,2.7178-3.4941,3.6231-2.35349.9062-4.6016.7529-5.0234-.3418-.4219-1.0957,1.1425-2.7178,3.4961-3.624C95.34761,134.5,97.59571,134.6533,98.01751,135.749Z"/><path class="cls-16" d="M62.47851,230.1992c.5156,1.0547-.9043,2.8067-3.1699,3.9102s-4.5196,1.1445-5.0333.0898c-.5136-1.0566.9063-2.8046,3.1719-3.9101S61.96481,229.1446,62.47851,230.1992Z"/><path class="cls-15" d="M144.84371,136.4746s-2.2383,2.1162.2793,3.7256c2.5181,1.6104,6.188.0703,8.604-4.2793,2.416-4.3515-.7285-7.7959-2.62109-6.997-1.89261.7978-1.666,2.1171-2.58591,3.4326A50.87747,50.87747,0,0,1,144.84371,136.4746Z"/><path class="cls-15" d="M180.41651,172.8643s-1.7168,2.5596,1.0957,3.5722,6.05071-1.3007,7.4433-6.0781c1.3946-4.7773-2.4355-7.4404-4.1035-6.2431-1.6699,1.1972-1.1562,2.4336-1.7637,3.9199A50.88518,50.88518,0,0,1,180.41651,172.8643Z"/><path class="cls-15" d="M118.02341,234.9414s-2.1836-2.1718-3.7148.3965c-1.5293,2.5664.123,6.1875,4.5449,8.4649,4.4258,2.2793,7.7695-.9707,6.914-2.8379-.8574-1.8653-2.1699-1.5996-3.5117-2.4766A50.82962,50.82962,0,0,1,118.02341,234.9414Z"/><path class="cls-15" d="M178.28761,230.9043s-3.0215.6074-1.7364,3.3067c1.2813,2.6992,5.211,3.3379,9.5625.9277,4.3555-2.4102,3.5117-6.9981,1.4844-7.3242-2.0273-.3242-2.53519.914-4.0117,1.5429A51.12589,51.12589,0,0,1,178.28761,230.9043Z"/><path class="cls-15" d="M222.66841,228.6485s-2.39649,1.9375-.0097,3.7363,6.166.5469,8.90821-3.6035c2.74409-4.1524-.127-7.8282-2.07431-7.1797-1.9472.6523-1.8242,1.9844-2.8418,3.2246A50.91773,50.91773,0,0,1,222.66841,228.6485Z"/><path class="cls-15" d="M200.36181,141.3184s-3.04489.4707-1.8848,3.2256c1.1582,2.7539,5.0547,3.5703,9.5117,1.3603,4.459-2.2109,3.82421-6.832,1.8145-7.249-2.0117-.416-2.5742.7978-4.0781,1.3594A50.874,50.874,0,0,1,200.36181,141.3184Z"/><path class="cls-16" d="M150.40281,130.3916c.8809.7764.24411,2.9385-1.4238,4.8291s-3.731,2.794-4.6119,2.0186c-.8808-.7764-.2441-2.9385,1.4244-4.8291C147.45751,130.5186,149.52192,129.6153,150.40281,130.3916Z"/><path class="cls-16" d="M208.49071,138.7031c.32421,1.129-1.377,2.6075-3.80079,3.3018-2.42381.6963-4.64841.3457-4.97271-.7822s1.377-2.6065,3.8008-3.3018C205.93992,137.2246,208.16651,137.5752,208.49071,138.7031Z"/><path class="cls-16" d="M184.25041,165.3223c1.0782.4668,1.1387,2.7197.1368,5.0322-1.002,2.3145-2.6875,3.8106-3.7637,3.3438-1.0781-.4668-1.1367-2.7198-.1367-5.0323C181.48871,166.3526,183.17431,164.8565,184.25041,165.3223Z"/><path class="cls-3" d="M151.68992,128.8076c1.87109,0,4.21679,3.1875,2.03709,7.1133-1.791,3.2227-4.2676,4.9024-6.45509,4.9024a3.94439,3.94439,0,0,1-2.14891-.6231c-2.5176-1.6094-.2793-3.7256-.2793-3.7256a50.87747,50.87747,0,0,0,3.6763-4.1181c.91991-1.3155.6933-2.6348,2.58591-3.4326a1.4903,1.4903,0,0,1,.584-.1163m0-5a6.47305,6.47305,0,0,0-2.52731.5088,8.17581,8.17581,0,0,0-4.6138,4.8535c-.0498.1221-.1172.2842-.1524.3575-.43549.6035-1.91349,2.2138-3.0747,3.3974a7.78021,7.78021,0,0,0-2.3652,6.0987,7.18638,7.18638,0,0,0,3.4736,5.3896,8.96565,8.96565,0,0,0,4.84181,1.4102c4.17969,0,8.22659-2.794,10.82619-7.4746a10.50452,10.50452,0,0,0,.1856-10.4942,7.84345,7.84345,0,0,0-6.59379-4.0469Z"/><path class="cls-3" d="M185.79341,163.8301c1.8242,0,4.332,2.5195,3.1621,6.5283-1.1777,4.0352-3.6699,6.3125-6.1113,6.3125a3.9056,3.9056,0,0,1-1.332-.2344c-2.8125-1.0126-1.0957-3.5722-1.0957-3.5722a50.88518,50.88518,0,0,0,2.6718-4.8291c.6075-1.4863.0938-2.7227,1.7637-3.9199a1.58289,1.58289,0,0,1,.9414-.2852m0-5a6.57349,6.57349,0,0,0-3.8574,1.2227,8.17254,8.17254,0,0,0-3.4238,5.7509c-.0215.1299-.0508.3028-.07029.3819-.293.6894-1.377,2.5859-2.24611,3.9961a7.78414,7.78414,0,0,0-.959,6.4707,7.18144,7.18144,0,0,0,4.582,4.4882,8.90616,8.90616,0,0,0,3.0254.5303c4.873,0,9.1562-3.8916,10.9102-9.9131a10.65021,10.65021,0,0,0-1.4707-9.4775,8.27115,8.27115,0,0,0-6.4903-3.4502Z"/><path class="cls-3" d="M209.02781,138.5703a3.846,3.846,0,0,1,.7754.085c2.00971.417,2.6445,5.0381-1.8145,7.249a11.11414,11.11414,0,0,1-4.8613,1.2696c-2.2344,0-3.9473-.9581-4.6504-2.6299-1.16009-2.7549,1.8848-3.2256,1.8848-3.2256a50.874,50.874,0,0,0,5.3633-1.3037c1.291-.4815,1.8867-1.4444,3.3027-1.4444m0-5a8.34367,8.34367,0,0,0-4.7637,1.5664c-.1094.0723-.2578.168-.3281.208-.70309.25-2.832.7374-4.457,1.0518a7.77642,7.77642,0,0,0-5.41209,3.6768,7.19782,7.19782,0,0,0-.19931,6.4111,9.701,9.701,0,0,0,9.2598,5.6895,16.16359,16.16359,0,0,0,7.082-1.7901c4.2188-2.0918,6.5977-6.1426,6.0606-10.3193a7.10886,7.10886,0,0,0-5.45309-6.3047,8.83439,8.83439,0,0,0-1.78911-.1895Z"/><path class="cls-3" d="M98.92961,134.8155c.0889,0,.1812.0029.2774.0087,2.0508.128,3.332,4.6133-.7695,7.4327a10.24164,10.24164,0,0,1-5.64359,2.0195,4.40091,4.40091,0,0,1-3.96581-2.0195c-1.5371-2.5625,1.4101-3.46,1.4101-3.46a50.84,50.84,0,0,0,5.125-2.0508c1.3443-.7324,1.7564-1.9306,3.5664-1.9306m0-5a8.21431,8.21431,0,0,0-5.7011,2.3085c-.0991.087-.232.2032-.2964.253-.6611.3476-2.7007,1.1308-4.2651,1.6728a7.775,7.775,0,0,0-4.835,4.4063,7.1829,7.1829,0,0,0,.7085,6.372,9.32611,9.32611,0,0,0,8.25341,4.4483,15.12987,15.12987,0,0,0,8.47659-2.9004c3.8803-2.667,5.6626-7.0127,4.5395-11.0713a7.11043,7.11043,0,0,0-6.2915-5.4707c-.20359-.0127-.3999-.0185-.5889-.0185Z"/><path class="cls-3" d="M63.59571,229.4824c.0888,0,.1811.004.2773.0098,2.0508.127,3.332,4.6133-.7676,7.4317a10.23877,10.23877,0,0,1-5.645,2.0195,4.40383,4.40383,0,0,1-3.9663-2.0195c-1.5371-2.5625,1.4102-3.459,1.4102-3.459a50.84963,50.84963,0,0,0,5.125-2.0508c1.3442-.7324,1.7563-1.9317,3.5664-1.9317m0-5a8.21907,8.21907,0,0,0-5.7012,2.3086c-.0991.0879-.2319.2032-.2964.252a45.18712,45.18712,0,0,1-4.2646,1.6738,7.77618,7.77618,0,0,0-4.8355,4.4043,7.18948,7.18948,0,0,0,.7085,6.375,9.3282,9.3282,0,0,0,8.2539,4.4473,15.14165,15.14165,0,0,0,8.478-2.9004c3.8794-2.666,5.6607-7.0117,4.5376-11.0703a7.1091,7.1091,0,0,0-6.2915-5.4707c-.20359-.0137-.3999-.0196-.5888-.0196Z"/><path class="cls-16" d="M123.87111,240.0352c-.7969.8633-2.9454.1797-4.7969-1.5293s-2.711-3.793-1.9141-4.6563c.7949-.8632,2.9414-.1777,4.7949,1.5313S124.666,239.1739,123.87111,240.0352Z"/><path class="cls-3" d="M116.13961,234.084a3.09231,3.09231,0,0,1,1.8838.8574,50.82962,50.82962,0,0,0,4.2324,3.5469c1.3418.877,2.6543.6113,3.5117,2.4766.6475,1.414-1.1113,3.6191-3.9243,3.6191a6.51371,6.51371,0,0,1-2.9897-.7812c-4.4219-2.2774-6.0742-5.8985-4.5449-8.4649a2.132,2.132,0,0,1,1.831-1.2539m0-5a7.103,7.103,0,0,0-6.1255,3.6914,9.10832,9.10832,0,0,0-.8847,7.2442c.9521,3.3261,3.5922,6.25,7.434,8.2285a11.46826,11.46826,0,0,0,5.2798,1.3359,9.35528,9.35528,0,0,0,7.8819-4.0957,6.89426,6.89426,0,0,0,.58781-6.6074,8.18075,8.18075,0,0,0-4.996-4.461c-.12261-.0468-.28621-.1074-.36091-.1406a45.94855,45.94855,0,0,1-3.5024-2.9765,7.96979,7.96979,0,0,0-5.314-2.2188Z"/><path class="cls-16" d="M187.24851,228.2676c.2988,1.1348-1.43359,2.5762-3.8691,3.2207-2.43749.6426-4.6563.2461-4.9551-.8887-.3008-1.1347,1.43161-2.5761,3.8691-3.2207S186.94771,227.1328,187.24851,228.2676Z"/><path class="cls-16" d="M228.63721,222.9043c.791.8672-.0782,2.9473-1.9395,4.6446-1.8633,1.6992-4.0137,2.373-4.8047,1.5058s.0782-2.9453,1.9414-4.6445C225.69581,222.711,227.84621,222.0371,228.63721,222.9043Z"/><path class="cls-3" d="M186.96721,227.7617a4.15341,4.15341,0,0,1,.6309.0528c2.0273.3261,2.8711,4.914-1.4844,7.3242a10.80655,10.80655,0,0,1-5.1425,1.4961,4.59265,4.59265,0,0,1-4.42-2.4238c-1.2851-2.6993,1.7364-3.3067,1.7364-3.3067a51.12589,51.12589,0,0,0,5.2988-1.5469c1.31051-.5585,1.8574-1.5957,3.3808-1.5957m0-5a8.24862,8.24862,0,0,0-5.0605,1.7891c-.1055.0762-.25.1777-.3184.2227-.69139.2812-2.7968.8652-4.4082,1.2539a7.778,7.778,0,0,0-5.23819,3.9199,7.19493,7.19493,0,0,0,.09369,6.4141,9.5285,9.5285,0,0,0,8.9356,5.2734,15.81594,15.81594,0,0,0,7.5644-2.1211c4.1191-2.2813,6.3125-6.4356,5.5879-10.584a7.10822,7.10822,0,0,0-5.7344-6.0508,8.931,8.931,0,0,0-1.4219-.1172Z"/><path class="cls-3" d="M229.95941,221.5274c1.8926,0,4.1368,3.4257,1.60751,7.2539-1.92781,2.9179-4.36921,4.4023-6.47661,4.4023a3.97015,3.97015,0,0,1-2.4316-.7988c-2.38679-1.7988.0097-3.7363.0097-3.7363a50.91773,50.91773,0,0,0,3.9824-3.8223c1.0176-1.2402.8946-2.5723,2.8418-3.2246a1.45861,1.45861,0,0,1,.4668-.0742m0-5a6.44967,6.44967,0,0,0-2.0488.332,8.18432,8.18432,0,0,0-4.9746,4.4844c-.0586.1172-.1387.2734-.1797.3437a45.71136,45.71136,0,0,1-3.3242,3.1504,7.78158,7.78158,0,0,0-2.832,5.8985,7.1881,7.1881,0,0,0,3.04881,5.6425,8.964,8.964,0,0,0,5.44139,1.8047c3.97661,0,7.8574-2.4219,10.6484-6.6465a10.39289,10.39289,0,0,0,.8301-10.7617,7.66357,7.66357,0,0,0-6.6094-4.248Z"/><path class="cls-3" d="M183.00241,319.0352c-4.752,0-9.5332-.166-13.9102-.6016a2.49964,2.49964,0,1,1,.4961-4.9746c17.4668,1.7383,42.6485-1.0625,42.9004-1.0918a2.50027,2.50027,0,1,1,.5625,4.9688C212.25441,317.4258,197.79151,319.0352,183.00241,319.0352Z"/><path class="cls-3" d="M102.92041,262.9922c-13.8306,0-27.8379-5.8789-37.1529-10.8105a3.764,3.764,0,0,0-1.81-.4786c-1.9673,0-4.3404,1.6153-7.0879,3.4864-4.3179,2.9394-9.6914,6.5996-17.2202,6.5996a24.87162,24.87162,0,0,1-5.0547-.5352c-6.8247-1.4199-10.5225-3.5332-11.9883-6.8574-2.2358-5.0684,1.4287-11.2519,6.9751-20.6133q1.05465-1.78125,2.1978-3.7265c7.1225-12.1856,18.0068-14.0039,23.8608-14.0039a25.774,25.774,0,0,1,6.1103.6718c5.7842,1.7852,16.3482,2.6778,31.4903,2.6778,25.6504,0,58.2793-2.5977,73.959-3.8457,2-.1582,3.7519-.2969,5.2129-.4102,7.0371-.541,15.3496-2.625,24.1484-4.832,10.8301-2.7158,22.0293-5.5244,31.5723-5.5244a32.99866,32.99866,0,0,1,10.4218,1.4746c17.7969,5.874,25.96681,31.2256,24.67581,38.3232-.35741,1.9649-1.88871,4.3067-7.15821,4.3067-4.4004,0-10.5976-1.4805-17.1562-3.0489-3.1543-.7539-6.4161-1.5332-9.2832-2.084a7.27509,7.27509,0,0,0-1.3887-.1269c-3.6543,0-8.084,2.3867-13.2109,5.1484-6.9981,3.7715-15.7051,8.4629-25.9395,8.4629a35.35606,35.35606,0,0,1-11.8262-2.084,52.53073,52.53073,0,0,0-17.8105-2.8925c-12.3125,0-24.3672,3.4511-35.003,6.496-4.4643,1.2793-8.68059,2.4864-12.4917,3.3047A43.17119,43.17119,0,0,1,102.92041,262.9922Zm-38.9629-16.2891a8.81209,8.81209,0,0,1,4.1499,1.0606c8.8139,4.666,22.0088,10.2285,34.813,10.2285a38.054,38.054,0,0,0,7.9917-.8105c3.6469-.7832,7.7851-1.9688,12.166-3.2227,10.9521-3.1348,23.3657-6.6894,36.3794-6.6894a57.44512,57.44512,0,0,1,19.48041,3.1796,29.96029,29.96029,0,0,0,10.15629,1.7969c8.97271,0,16.7266-4.1777,23.5664-7.8633,5.7246-3.0839,10.668-5.748,15.584-5.748a12.342,12.342,0,0,1,2.3301.2168c2.9785.5703,6.2968,1.3633,9.5039,2.1308,5.98831,1.4317,12.1816,2.9122,15.9941,2.9122a5.37,5.37,0,0,0,2.2578-.3184c.6172-4.4688-6.0937-27.5313-21.3418-32.5625a28.50326,28.50326,0,0,0-8.8554-1.2227c-8.9258,0-19.82039,2.7315-30.3555,5.3731-9.0117,2.2598-17.5215,4.3945-24.9824,4.9668-1.4571.1133-3.2032.2519-5.1992.4101-15.7442,1.2539-48.5064,3.8614-74.3555,3.8614-15.8086,0-26.5435-.9336-32.8115-2.8535a21.612,21.612,0,0,0-4.7891-.4961c-5.8423,0-13.9751,2-19.5444,11.5273q-1.147,1.9599-2.2124,3.752c-4.4136,7.4472-7.8999,13.332-6.7022,16.0468.71781,1.627,3.5542,2.9649,8.4312,3.9805a19.92552,19.92552,0,0,0,4.0371.4297c5.9883,0,10.4604-3.0449,14.4057-5.7324C57.34371,248.8184,60.44971,246.7031,63.95751,246.7031Z"/><path class="cls-1" d="M72.729,312.3242a19.46778,19.46778,0,0,1-6.14209-1.0214,16.15241,16.15241,0,0,1-9.67191-8.3223,15.767,15.767,0,0,1-.4282-12.7031c.0146-.0371.0293-.0762.0444-.1133-4.6494-1.2402-8.13229-3.586-10.3574-6.9785a19.7018,19.7018,0,0,1-3.1797-10.959,28.80025,28.80025,0,0,1,.52881-5.4473,41.93894,41.93894,0,0,1,1.31539-5.1015c.5152-1.5899,1.1245-3.2032,1.8077-4.7891.6303-1.4707,1.3222-2.9297,2.0507-4.3223a9.87911,9.87911,0,0,1,6.4536-5.3027,10.84175,10.84175,0,0,1,6.3394.2695c.1108.0391.2207.0821.3291.127a10.3255,10.3255,0,0,1,5.085,4.4551,10.3132,10.3132,0,0,1,5.8418-1.6309,10.5788,10.5788,0,0,1,6.3076,2.1348,9.774,9.774,0,0,1,1.081.9394c.1324-.1113.2681-.2207.4073-.3262a10.54157,10.54157,0,0,1,6.9018-2.1562,11.324,11.324,0,0,1,6.0913,2.209,10.26547,10.26547,0,0,1,4.1099,7.4765c.0098.1075.0171.2168.022.3262a48.8285,48.8285,0,0,1-.1939,6.8652,58.67315,58.67315,0,0,1-1.0952,6.8965,64.68217,64.68217,0,0,1-1.855,6.666,43.49834,43.49834,0,0,1-2.7304,6.3848q-.04545.08505-.0928.1699a11.17738,11.17738,0,0,1-2.1397,2.7227,15.458,15.458,0,0,1-.3388,10.4746,16.39148,16.39148,0,0,1-3.8457,5.9063,16.62759,16.62759,0,0,1-5.5826,3.789,18.713,18.713,0,0,1-6.4213,1.3496C73.16111,312.3203,72.94481,312.3242,72.729,312.3242Zm-1.0606-15.1523a4.1201,4.1201,0,0,0,1.0606.1523l.1132-.0019a3.71167,3.71167,0,0,0,1.2735-.2442,1.15993,1.15993,0,0,0,.2261-.125L72.021,296Zm-1.0718-1.7559a2.60362,2.60362,0,0,0-.1132.2559c-.0196.0508-.0396.1035-.0601.1543a.67567.67567,0,0,0-.0693.3125.85164.85164,0,0,0,.0512.2832,1.18469,1.18469,0,0,0,.3072.377,1.33364,1.33364,0,0,0,.4887.2304q.0543.01755.107.0352c.1059.0351.2099.0664.3125.0957l.3339-1.1875Zm1.441.5293,2.3935.9414a2.295,2.295,0,0,0,.229-.2089q.1026-.10845.2095-.211a1.43605,1.43605,0,0,0,.3452-.5703,1.271,1.271,0,0,0,.0986-.3535h0a.49806.49806,0,0,0-.0263-.125,1.43584,1.43584,0,0,0-.4004-.4356,3.12615,3.12615,0,0,0-.9429-.4902,3.38774,3.38774,0,0,0-1.0107-.1543l-.1675.0039c-.0869.0039-.1704.0098-.251.0196Zm-1.4248-.5586,1.3569.5332.4346-1.5468a3.09875,3.09875,0,0,0-.8057.2148,2.47855,2.47855,0,0,0-.7861.5254A1.1548,1.1548,0,0,0,70.61281,295.3867Z"/><path class="cls-1" d="M146.12351,320.7031a19.74046,19.74046,0,0,1-2.1914-.125,15.79547,15.79547,0,0,1-6.4356-2.0468,14.53961,14.53961,0,0,1-4.747-4.4629,15.57583,15.57583,0,0,1-2.2984-5.5762,16.38974,16.38974,0,0,1-.0361-6.1758q.01605-.0879.0337-.1758a16.70131,16.70131,0,0,1,.5825-2.1171q-1.53435-.07035-3.0395-.1856c-.05079-.0039-.1011-.0098-.1514-.0137a10.01605,10.01605,0,0,1-7.1963-3.9726,10.25906,10.25906,0,0,1-2.0635-6.5606,10.027,10.027,0,0,1,2.7647-6.5175,9.67686,9.67686,0,0,1,4.13471-2.6114,16.82888,16.82888,0,0,1-.96241-7.1093c.0313-.6153.0855-1.2325.1621-1.8477a10.26015,10.26015,0,0,1-1.3745-5.9531,10.94025,10.94025,0,0,1,2.083-5.6621,10.04421,10.04421,0,0,1,6.84381-4.041c.08009-.0118.16009-.0215.24019-.0313.7613-.082,1.7149-.1699,2.8824-.252,1.0522-.0722,2.1977-.1542,3.4497-.246q1.965-.14355,4.0615-.2559c1.4009-.0742,2.7285-.1367,4.0058-.1895,1.2559-.0527,2.4258-.0976,3.4961-.1347,1.0118-.0332,1.8516-.0489,2.5254-.0489l.3203.002a9.77219,9.77219,0,0,1,7.8614,3.7695,10.55331,10.55331,0,0,1,2.25,6.2578,10.22574,10.22574,0,0,1-1.3184,5.3125,9.98172,9.98172,0,0,1,2.2695,8.4844,9.6196,9.6196,0,0,1,2.2969,1.459,10.40814,10.40814,0,0,1,3.4453,5.709,10.14011,10.14011,0,0,1-.9765,6.9687,9.83906,9.83906,0,0,1-5.9727,4.8438,16.48486,16.48486,0,0,1,.99811,8.7012c-.01961.1504-.045.3027-.07431.4531a17.33618,17.33618,0,0,1-2.539,6.2402,17.97306,17.97306,0,0,1-4.5215,4.7266c-.0547.039-.1094.0762-.1641.1133a19.01052,19.01052,0,0,1-5.9394,2.6679A18.47351,18.47351,0,0,1,146.12351,320.7031Zm-.9478-15.0917c.0674.0136.1748.0332.3208.0488l.1055.0117a3.811,3.811,0,0,0,1.41991-.082,4.18094,4.18094,0,0,0,1.21489-.4981,2.89375,2.89375,0,0,0,.6758-.7285,2.36346,2.36346,0,0,0,.3105-.6836,3.62447,3.62447,0,0,0,.0137-.5586.933.933,0,0,0-.5313-.123c-.1582-.0098-.2558-.0137-.3535-.0137a3.34739,3.34739,0,0,0-.9785.1367,3.24024,3.24024,0,0,0-1.0547.5137c-.0527.0391-.1035.0781-.1562.1152a2.842,2.842,0,0,0-.72269.7422,1.81215,1.81215,0,0,0-.28081.5918,1.37217,1.37217,0,0,0-.0029.4473C145.16111,305.5547,145.167,305.5821,145.17571,305.6114Z"/><path class="cls-1" d="M232.38911,309.8672a15.55017,15.55017,0,0,1-10.4121-3.8516c-.03509-.0292-.0683-.0605-.1035-.0917a15.62293,15.62293,0,0,1-5.1563-10.9258c-.0078-.166-.0117-.3301-.0097-.4961.0019-.1914.0078-.3809.0156-.5703q-1.579.50685-3.3984.8945a18.06945,18.06945,0,0,1-12.3301-1.3242,14.80529,14.80529,0,0,1-7.6875-10.5371c-.2813-1.336-.5039-2.7383-.668-4.1856-.166-1.4472-.2617-2.914-.28319-4.3515-.00971-.2188-.01761-.4395-.02541-.6582a10.01648,10.01648,0,0,1-1.8613-3.8438,10.21475,10.21475,0,0,1,.4746-6.457,9.91246,9.91246,0,0,1,5.8574-5.5723c.0801-.0312.1621-.0586.2422-.0859,1.1113-.3711,2.3418-.752,3.68951-1.1524,1.22459-.3613,2.42579-.7246,3.625-1.1015.07419-.0215.14839-.045.22459-.0664q1.9014-.5304,3.6308-.9942c1.3125-.3496,2.3868-.6113,3.31061-.8086a10.57778,10.57778,0,0,1,2.84759-.2265,10.1693,10.1693,0,0,1,4.1739-3.1289,10.567,10.567,0,0,1,7.0781-.2813c.1699.0527.3379.1094.5019.1699a10.61695,10.61695,0,0,1,4.709-4.2851c.1094-.0508.2207-.0996.3321-.1446a10.837,10.837,0,0,1,6.8847-.3925,10.49352,10.49352,0,0,1,6.4649,5.0429c.0429.0742.084.1504.123.2266a42.93713,42.93713,0,0,1,2.5879,6.1113,62.46008,62.46008,0,0,1,2.9961,14.0645,43.02964,43.02964,0,0,1,.1426,6.6582c-.0039.0566-.00779.1152-.0137.1719a10.59732,10.59732,0,0,1-2.3965,5.9707c.1133.1796.2227.3652.3282.5507a15.97,15.97,0,0,1,2.1601,6.7715c.0176.166.0274.3301.0332.4961a17.94516,17.94516,0,0,1-.998,6.5664,17.47971,17.47971,0,0,1-3.2539,5.627c-.07619.0879-.1543.1758-.2325.2597a19.886,19.886,0,0,1-4.9414,3.793,17.87931,17.87931,0,0,1-6.7851,2.0625C233.63131,309.834,233.00241,309.8672,232.38911,309.8672Zm-.4844-15.0976c.0743.0585.168.0976.4844.0976.1192,0,.2403-.0078.3653-.0195a2.93779,2.93779,0,0,0,1.1132-.3067,4.87034,4.87034,0,0,0,1.0801-.7832,2.50534,2.50534,0,0,0,.3809-.7031,2.83014,2.83014,0,0,0,.1562-.8652,1.67388,1.67388,0,0,0-.0722-.2989c-.0625-.0996-.086-.1367-.1446-.2402-.0117-.0215-.0234-.039-.0312-.0527a.86292.86292,0,0,0-.2715-.0938,2.39766,2.39766,0,0,0-.6582-.0527,2.77835,2.77835,0,0,0-1.8555,1.0117,3.32158,3.32158,0,0,0-.7344,1.9453A.53564.53564,0,0,0,231.90471,294.7696Z"/><path class="cls-3" d="M73.80031,280.4063c3.228-4.4961,4.6054-11.0117,4.2084-19.961a4.95821,4.95821,0,0,0-1.9531-3.8242,5.66144,5.66144,0,0,0-3.3501-1.1367,5.358,5.358,0,0,0-3.4785,1.1035,4.75385,4.75385,0,0,0-1.8267,4.043c.0289.7344.0215,1.543-.02239,2.4082-.02.4101-.04491.8418-.07421,1.291q-.72-.1377-1.4336-.252c-1.4195-.2246-2.793-.3984-4.0825-.5136a4.93283,4.93283,0,0,0-1.104.0527q.62835-1.5147,1.122-2.6601c.3242-.7559.6055-1.3614.8599-1.8477a2.63665,2.63665,0,0,0,.123-.2754,4.829,4.829,0,0,0-.1923-4.1797,5.37339,5.37339,0,0,0-2.6812-2.3711c-.03609-.0156-.0728-.0293-.1099-.0429a5.82272,5.82272,0,0,0-3.4228-.1309,4.82709,4.82709,0,0,0-3.2129,2.6934c-.6841,1.3027-1.335,2.6738-1.9321,4.0664-.6216,1.4414-1.1753,2.9082-1.6441,4.3535a37.15356,37.15356,0,0,0-1.1587,4.4922,23.828,23.828,0,0,0-.4404,4.5,14.78537,14.78537,0,0,0,2.36081,8.2285c1.66069,2.5332,4.48289,4.2539,8.38529,5.1133a19.56143,19.56143,0,0,0,4.2119.4902A12.555,12.555,0,0,0,73.80031,280.4063Zm-13.167-6.8262c1.1049.084,2.30761.2207,3.5737.4063.2861.041.5713.0859.8555.1308a7.923,7.923,0,0,1-1.376,1.6484,1.98728,1.98728,0,0,1-1.482.5176,5.62735,5.62735,0,0,1-1.4619-.2226c-1.3711-.3867-1.7055-1.0469-1.8574-1.6797a9.1421,9.1421,0,0,1-.2065-1.3945A5.35361,5.35361,0,0,0,60.63331,273.5801Z"/><path class="cls-3" d="M92.664,261.2031a5.22954,5.22954,0,0,0-2.0898-3.8886,6.24909,6.24909,0,0,0-3.4029-1.2461c-.04539-.002-.0908-.0039-.1362-.0039a5.62557,5.62557,0,0,0-3.4785,1.1562,4.705,4.705,0,0,0-1.771,4.1953,36.51951,36.51951,0,0,1-.7349,10.1329,29.80256,29.80256,0,0,1-3.3007,9.3164q-.02864.0498-.0542.0996a4.83736,4.83736,0,0,0-.354,4.123c-.0987-.0351-.1973-.0683-.29689-.1015a13.57412,13.57412,0,0,0-9.31541.3789,12.51154,12.51154,0,0,0-3.8824,2.5722,11.27958,11.27958,0,0,0-2.6938,4.1387,10.76321,10.76321,0,0,0,.2583,8.7187,11.22947,11.22947,0,0,0,2.6108,3.4375,11.11274,11.11274,0,0,0,4.104,2.3125,14.46974,14.46974,0,0,0,4.6026.7793c.1567,0,.313-.0019.4677-.0078a13.70781,13.70781,0,0,0,4.691-.9765,12.48411,12.48411,0,0,0,6.6665-6.8692,10.68925,10.68925,0,0,0,.72071-4.8027,10.24277,10.24277,0,0,0-1.37211-4.3262,11.12113,11.12113,0,0,0-1.3677-1.8594,6.42479,6.42479,0,0,0,1.291-.1484,5.26237,5.26237,0,0,0,3.5513-2.7812,38.49893,38.49893,0,0,0,2.4063-5.6309,59.76334,59.76334,0,0,0,1.7104-6.1484,53.578,53.578,0,0,0,1.002-6.3028,43.82477,43.82477,0,0,0,.1752-6.1582C92.66992,261.2754,92.66741,261.2383,92.664,261.2031ZM71.603,297.3887a1.23222,1.23222,0,0,1-.8257-.6934,1.28694,1.28694,0,0,1,.0454-1.1855,1.80779,1.80779,0,0,1,1.1558-1.1641,3.37114,3.37114,0,0,1,1.105-.207,2.53691,2.53691,0,0,1,.8085.1328,2.09715,2.09715,0,0,1,.5484.291,1.287,1.287,0,0,1,.3472.3848,1.226,1.226,0,0,1,.1562.5117,1.6413,1.6413,0,0,1-.1685.7149,1.6727,1.6727,0,0,1-1.0375,1.1093c-.0318.0117-.0635.0254-.0943.0371a2.59738,2.59738,0,0,1-1.0454.2129A3.75512,3.75512,0,0,1,71.603,297.3887Z"/><path class="cls-3" d="M163.32861,283.4805a4.92972,4.92972,0,0,0-4.01569-1.0684c-.07031.0098-.14061.0215-.20891.0371-1.8614.4219-3.70509.7852-5.49809,1.0821-.88671.1523-1.793.2929-2.709.4179l-.01751-.1562c-.0196-.1914-.0411-.3848-.06249-.582.73819-.1836,1.46089-.3887,2.15819-.6114a15.54171,15.54171,0,0,0,3.7812-1.6777,5.47374,5.47374,0,0,0,2.5391-3.3223,5.03719,5.03719,0,0,0-2.916-5.9355,4.63659,4.63659,0,0,0-3.9688.125,20.44108,20.44108,0,0,1-2.293.9199,27.155,27.155,0,0,1-2.7851.7852c-.9805.2168-1.95659.3906-2.8999.5136a13.19265,13.19265,0,0,1-1.7246.1289c-.166,0-.3247-.0058-.5122-.0175a8.76543,8.76543,0,0,1-1.75489-.2207,5.63408,5.63408,0,0,1-.01861-1.0371,17.91506,17.91506,0,0,1,.3775-2.5547q1.062-.082,2.1865-.1582c1.3848-.0918,2.727-.17,4.022-.2442q1.9248-.1083,3.5918-.1543c.9726-.0293,1.8261-.0429,2.5546-.0429h.2969a4.59494,4.59494,0,0,0,3.78131-1.793,5.32419,5.32419,0,0,0,1.09179-3.377,5.51012,5.51012,0,0,0-1.2051-3.3164,4.7891,4.7891,0,0,0-3.9453-1.8281l-.2813-.002q-.94335,0-2.3574.0469-1.5849.0528-3.4609.1328c-1.25979.0508-2.5679.1133-3.9346.1856q-2.04855.1113-3.97119.2519-1.89332.1377-3.46341.2442c-1.0923.0781-1.9843.1601-2.7768.248a5.039,5.039,0,0,0-3.4922,2.0254,5.87823,5.87823,0,0,0-1.1445,3.0918,5.31148,5.31148,0,0,0,.8745,3.3379,4.46443,4.46443,0,0,0,.8081.9258c-.0362.1719-.0713.3437-.1055.5176a20.3474,20.3474,0,0,0-.3579,2.916c-.231,3.5664.6919,6.3125,2.7422,8.1621,1.7807,1.6055,4.2842,2.5176,7.6357,2.7773l.0166.1348c.0196.1562.0386.3164.0567.4824-3.5777.1113-7.1748.0449-10.8887-.2031a5.01107,5.01107,0,0,0-4.0654,1.5098,5.11454,5.11454,0,0,0-1.4322,3.3144,5.23065,5.23065,0,0,0,1.084,3.3809,5.0183,5.0183,0,0,0,3.7134,1.9785,105.34059,105.34059,0,0,0,12.831.1719c-.288.1816-.5668.373-.8339.5742a12.84893,12.84893,0,0,0-3.1953,3.2656,11.77037,11.77037,0,0,0-1.84039,4.3438,11.41812,11.41812,0,0,0,.01709,4.2949,10.59515,10.59515,0,0,0,1.5591,3.7949,9.59453,9.59453,0,0,0,3.124,2.9277,10.80354,10.80354,0,0,0,4.418,1.3809,14.6712,14.6712,0,0,0,1.6704.0976,13.47879,13.47879,0,0,0,3.44341-.4433,14.05943,14.05943,0,0,0,4.43939-1.9961,12.95768,12.95768,0,0,0,3.2695-3.418,12.38253,12.38253,0,0,0,1.8086-4.4492c.0098-.0508.0176-.0996.0254-.1504.4824-3.6738-.3418-6.6465-2.4043-8.7871a10.33949,10.33949,0,0,0-3.541-2.5547q4.10161-.5712,8.0527-1.3847a4.91562,4.91562,0,0,0,3.4004-2.4961,5.19668,5.19668,0,0,0,.5157-3.5704A5.36263,5.36263,0,0,0,163.32861,283.4805Zm-16.8242,22.3613a2.389,2.389,0,0,1-.35549-.0293c-.37111-.0449-.41991-.1308-.42971-.1465a1.06283,1.06283,0,0,1,.05471-.8066c.02339-.0684.043-.1387.06049-.207a2.35352,2.35352,0,0,1,.8731-1.3926,1.70583,1.70583,0,0,1,1.1015-.3926,2.36967,2.36967,0,0,1,.2696.0156.87118.87118,0,0,1,.6269.3848,1.18473,1.18473,0,0,1-.0468.7363c-.01179.043-.0215.0879-.0313.1309a1.88748,1.88748,0,0,1-.8906,1.2812,2.21283,2.21283,0,0,1-1.2305.4258Z"/><path class="cls-3" d="M245.46921,291.4571a11.03487,11.03487,0,0,0-1.4961-4.7286,9.84182,9.84182,0,0,0-3.0019-3.33,10.78026,10.78026,0,0,0-2.211-1.168,5.64308,5.64308,0,0,0,1.1563.1406c.0351,0,.0703,0,.0996-.0019a5.62407,5.62407,0,0,0,3.34181-1.2129,5.29815,5.29815,0,0,0,2.01749-3.9727,38.00772,38.00772,0,0,0-.1328-5.8867,54.68244,54.68244,0,0,0-1.0039-6.541,55.39732,55.39732,0,0,0-1.7422-6.3574,38.12321,38.12321,0,0,0-2.3203-5.4727,5.46658,5.46658,0,0,0-3.4004-2.6914,5.80139,5.80139,0,0,0-3.7226.1875c-.0371.0156-.0742.0312-.11129.0488a5.57493,5.57493,0,0,0-2.60751,2.4649,4.712,4.712,0,0,0,.1309,4.5644,30.88853,30.88853,0,0,1,2.082,4.7422q-.67965.14655-1.3437.2988-.835.1905-1.6836.4102a44.97779,44.97779,0,0,0-2.0723-5.2871,5.45212,5.45212,0,0,0-3.25979-2.8242,5.58609,5.58609,0,0,0-3.75391.1211,5.37226,5.37226,0,0,0-2.75,2.5332,4.59006,4.59006,0,0,0-.5058,2.3886,6.29364,6.29364,0,0,0-.4766-.4277,4.76377,4.76377,0,0,0-4.1289-.8789c-.8457.1816-1.8437.4238-3.0605.748-1.1368.3047-2.3321.6309-3.6582,1.0039-1.2246.3848-2.4532.7559-3.7012,1.125-1.2891.3809-2.4668.7461-3.6094,1.129a4.89318,4.89318,0,0,0-2.9687,2.7753,5.171,5.171,0,0,0-.252,3.3633,5.00126,5.00126,0,0,0,1.3457,2.4199,4.36065,4.36065,0,0,0,.6211.5254c0,.1348.002.2676.0039.4004.0078.7442.0293,1.5.0606,2.1817a39.06861,39.06861,0,0,0,.25391,3.9707c.14649,1.291.34369,2.5332.58979,3.7011a9.90854,9.90854,0,0,0,5.1074,7.1485,13.15305,13.15305,0,0,0,8.9766.8672,22.37815,22.37815,0,0,0,6.2754-2.1934,30.31939,30.31939,0,0,0,4.1289-2.7305,5.941,5.941,0,0,0,1.1992-1.3457,5.18952,5.18952,0,0,0,2.3809.8614,12.86152,12.86152,0,0,0-1.6407,1.7109,13.39649,13.39649,0,0,0-2.9179,8.3262c0,.0547,0,.1094.0039.164a10.59135,10.59135,0,0,0,3.56251,7.5274,10.47658,10.47658,0,0,0,7.11519,2.6113,13.71271,13.71271,0,0,0,1.3711-.0703,12.89378,12.89378,0,0,0,4.8965-1.4785,14.7626,14.7626,0,0,0,3.6973-2.832c.0273-.0293.0527-.0567.0781-.086a12.595,12.595,0,0,0,2.332-4.0351,12.9482,12.9482,0,0,0,.7149-4.7422C245.477,291.5664,245.47311,291.5117,245.46921,291.4571Zm-11.0176-10.0118a11.82136,11.82136,0,0,0-1.6719.1211q-.703.12015-1.3691.295a5.86347,5.86347,0,0,0,.7012-2.6329c.0019-.0332.0039-.0664.0039-.1015.0058-1.4141-.0586-2.8555-.1934-4.291-.06639-.6934-.1426-1.3887-.2265-2.0782q.86417-.23145,1.7363-.4589.61815-.16125,1.2695-.3204.0732.73545.1192,1.4649a18.9027,18.9027,0,0,1,.0273,3.4297c-.0039.0351-.0059.0703-.0078.1054a4.74377,4.74377,0,0,0,1.6875,4.1621,5.67726,5.67726,0,0,0,1.2383.7598q-.375-.10545-.7617-.1875A12.58807,12.58807,0,0,0,234.45161,281.4453Zm-1.6992,10.5996a1.4979,1.4979,0,0,1,1.1328-.6777l.0703-.0039a.85278.85278,0,0,1,.2539.043,1.032,1.032,0,0,1,.3711.2109,1.61727,1.61727,0,0,1,.3692.4902,1.28237,1.28237,0,0,1,.1074.5411,2.33491,2.33491,0,0,1-.6445,1.6582,1.53819,1.53819,0,0,1-1.2032.6445.8233.8233,0,0,1-.72849-.2031,1.06966,1.06966,0,0,1-.30861-.92A2.75594,2.75594,0,0,1,232.75241,292.0449Zm-5.9844-9.998v0Zm-8.6308-16.2656a5.26537,5.26537,0,0,0,.5234-1.6387q.34275.873.6699,1.8008c.4981,1.4238.9649,2.9609,1.3809,4.541a35.70759,35.70759,0,0,1,.9668,5.6738,4.79093,4.79093,0,0,0-4.8809.7637c-.0429.0312-.084.0645-.125.0977-.5547.4648-1.0625.871-1.5469,1.2324a8.6314,8.6314,0,0,1-1.1738.7519c-.0488.0254-.0976.0528-.1445.0821a5.9264,5.9264,0,0,1-1.1817.5586,13.7413,13.7413,0,0,1-1.7011.4628,6.38841,6.38841,0,0,1-1.31639.1641h0a1.47164,1.47164,0,0,1-.64851-.0996,2.26326,2.26326,0,0,1-.625-1.3555,19.75192,19.75192,0,0,1-.3398-2.4863q-.13185-1.63185-.166-3.0898c.0019-.9414.0078-1.8321.0136-2.6875,0-.1563.002-.3125.004-.4668,1.05071-.3145,2.0546-.5957,3.05271-.8594,1.48629-.4375,2.84369-.7871,4.02929-1.0391A4.53866,4.53866,0,0,0,218.13721,265.7813Z"/><path class="cls-17" d="M81.74611,291.6055a8.88569,8.88569,0,0,0-2.3047-2.582,10.60371,10.60371,0,0,0-3.1602-1.6563,10.86951,10.86951,0,0,0-3.873-.5156,10.73779,10.73779,0,0,0-3.709.8183,10.006,10.006,0,0,0-3.11529,2.0665,8.8497,8.8497,0,0,0-2.11321,3.2773,8.26351,8.26351,0,0,0,.1894,6.6875,8.64308,8.64308,0,0,0,5.2617,4.4727,11.78233,11.78233,0,0,0,4.1875.6445,11.11984,11.11984,0,0,0,3.8262-.791,9.14953,9.14953,0,0,0,3.1328-2.1543,8.91122,8.91122,0,0,0,2.1524-3.2989,8.16958,8.16958,0,0,0,.5644-3.6816A7.73371,7.73371,0,0,0,81.74611,291.6055Zm-4.6387,5.4707a4.18739,4.18739,0,0,1-2.48049,2.543,5.49134,5.49134,0,0,1-3.74411.164,3.71941,3.71941,0,0,1-2.3262-1.9394,3.82919,3.82919,0,0,1-.0469-3.2832,4.29894,4.29894,0,0,1,2.6406-2.5742,5.32617,5.32617,0,0,1,3.5157-.0918,4.54478,4.54478,0,0,1,1.248.6484,3.78027,3.78027,0,0,1,1.0196,1.123,3.691,3.691,0,0,1,.496,1.5293A3.95991,3.95991,0,0,1,77.10741,297.0762Z"/><path class="cls-17" d="M71.76951,278.9473q4.292-5.9766,3.7441-18.3477a2.522,2.522,0,0,0-.957-1.9765,3.07062,3.07062,0,0,0-1.92969-.6387,2.8406,2.8406,0,0,0-1.89651.6016,2.23214,2.23214,0,0,0-.832,1.9472c.0312.7891.0254,1.668-.0234,2.627-.0469.959-.1192,2.0215-.211,3.1972a3.38117,3.38117,0,0,0-.08009.5098c-.01171.1426-.01951.3164-.02531.5215q-2.04795-.5127-4.0801-.8418-2.03325-.3222-3.9141-.4922a2.39077,2.39077,0,0,0-1.8613.7324,3.04794,3.04794,0,0,0-.82619,1.6446,2.573,2.573,0,0,0,.334,1.7129,1.98837,1.98837,0,0,0,1.61329.9433q1.70206.129,3.7441.4238,2.0361.29895,4.041.7383a1.7045,1.7045,0,0,1-.0996.3203,1.348,1.348,0,0,0-.08979.2559,11.3369,11.3369,0,0,1-3.03321,4.7734c-1.2949,1.2012-3.0703,1.4844-5.3242.8672a4.69228,4.69228,0,0,1-3.6133-3.5234,14.50467,14.50467,0,0,1-.002-5.875,29.1571,29.1571,0,0,1,.76171-3.1719,32.44744,32.44744,0,0,1,1.13089-3.1543c.4375-1.0547.82811-1.9805,1.168-2.7695.3398-.793.6504-1.4629.9414-2.0196a2.40627,2.40627,0,0,0-.0371-2.082,2.86146,2.86146,0,0,0-1.4493-1.2773,3.2997,3.2997,0,0,0-1.9648-.0625,2.46068,2.46068,0,0,0-1.6152,1.4336q-.96105,1.83105-1.8496,3.8945c-.5938,1.377-1.11329,2.752-1.5625,4.1367a34.40727,34.40727,0,0,0-1.0801,4.1856,21.19436,21.19436,0,0,0-.3965,4.0273,12.27465,12.27465,0,0,0,1.9512,6.8633q1.94235,2.9619,6.8359,4.043Q67.59856,284.958,71.76951,278.9473Z"/><path class="cls-17" d="M89.09371,259.3301a3.77282,3.77282,0,0,0-2.0586-.7656,3.16621,3.16621,0,0,0-1.9707.6504,2.22285,2.22285,0,0,0-.7851,2.0215,38.75964,38.75964,0,0,1-.7715,10.7753,32.14606,32.14606,0,0,1-3.58789,10.0957,2.37284,2.37284,0,0,0-.18171,2.2188,3.01943,3.01943,0,0,0,1.4825,1.4082,3.44383,3.44383,0,0,0,2.0996.1523,2.79064,2.79064,0,0,0,1.84961-1.5078,35.5914,35.5914,0,0,0,2.24409-5.2558,56.68709,56.68709,0,0,0,1.6387-5.8867,50.89712,50.89712,0,0,0,.9551-6.0059,41.1163,41.1163,0,0,0,.166-5.8066A2.7603,2.7603,0,0,0,89.09371,259.3301Z"/><path class="cls-17" d="M161.70751,285.3828a2.49309,2.49309,0,0,0-2.0508-.4941q-2.84475.64455-5.625,1.1055-2.72175.46875-5.4395.7539-.05265-1.3917-.1972-2.6875c-.0938-.8692-.2012-1.8008-.3145-2.8086a34.97471,34.97471,0,0,0,4.1465-1.0371,13.33551,13.33551,0,0,0,3.1797-1.3965,3.06767,3.06767,0,0,0,1.459-1.8028,2.54369,2.54369,0,0,0-1.4903-3.0625,2.11853,2.11853,0,0,0-1.871.084,22.47679,22.47679,0,0,1-2.5762,1.0371,29.3248,29.3248,0,0,1-3.0547.8594c-1.0488.2324-2.084.418-3.1138.5528a13.95131,13.95131,0,0,1-2.6875.1308q-2.6601-.13185-3.4668-.8633-.8115-.72945-.6758-3.084a19.218,19.218,0,0,1,.9336-4.707c1.25-.1152,2.5684-.2148,3.9571-.3086,1.3925-.0918,2.74261-.1699,4.0493-.2461,1.3086-.0722,2.52931-.125,3.65431-.1562q1.69034-.0528,2.90229-.0449a2.101,2.101,0,0,0,1.8125-.8008,2.79857,2.79857,0,0,0,.5879-1.8106,3.05073,3.05073,0,0,0-.6836-1.8437,2.37184,2.37184,0,0,0-1.9863-.8594c-.6465-.0059-1.4902.0078-2.5371.043q-1.5732.05265-3.4434.1328-1.875.0762-3.8989.1836c-1.3496.0742-2.6562.1543-3.9258.248-1.26759.0938-2.4277.1758-3.4707.2461-1.0547.0742-1.916.1543-2.6035.2285a2.56432,2.56432,0,0,0-1.81639,1.0176,3.41711,3.41711,0,0,0-.67581,1.8067,2.79246,2.79246,0,0,0,.4707,1.7832,1.96025,1.96025,0,0,0,1.627.8828c-.2071.7675-.3946,1.5703-.5606,2.416a17.93409,17.93409,0,0,0-.3164,2.5937q-.26955,4.16895,1.9219,6.1446,2.19435,1.98045,6.9043,2.1875a3.01072,3.01072,0,0,0,.6328.0683c.2207,0,.4316,0,.6328.002.0781.5644.1758,1.2969.2891,2.2031s.209,1.9629.28121,3.1738a110.82918,110.82918,0,0,1-13.707-.0898,2.58737,2.58737,0,0,0-2.12111.7148,2.61587,2.61587,0,0,0-.7656,1.7149,2.76112,2.76112,0,0,0,.59371,1.789,2.538,2.538,0,0,0,1.89649.9766,105.16789,105.16789,0,0,0,16.0664-.0488,128.14149,128.14149,0,0,0,16.01811-2.2246,2.48521,2.48521,0,0,0,1.75779-1.2286,2.67984,2.67984,0,0,0,.28521-1.871A2.89356,2.89356,0,0,0,161.70751,285.3828Z"/><path class="cls-17" d="M149.13911,295.5117a11.04611,11.04611,0,0,0-3.92819.4278,10.7211,10.7211,0,0,0-3.39261,1.6953,10.32765,10.32765,0,0,0-2.582,2.6445,9.17463,9.17463,0,0,0-1.44139,3.3731,8.87322,8.87322,0,0,0,.00779,3.3535,8.06577,8.06577,0,0,0,1.1894,2.9043,7.02915,7.02915,0,0,0,2.3125,2.1601,8.35075,8.35075,0,0,0,3.4356,1.0508,11.25585,11.25585,0,0,0,4.19771-.2793,11.51065,11.51065,0,0,0,3.60549-1.6054,10.43264,10.43264,0,0,0,2.6426-2.7637,9.83431,9.83431,0,0,0,1.4453-3.5528q.57135-4.3446-1.77339-6.7773A8.04861,8.04861,0,0,0,149.13911,295.5117Zm1.9375,9.1309a4.38312,4.38312,0,0,1-1.9531,2.8535,4.54,4.54,0,0,1-3.26559.7988,2.87018,2.87018,0,0,1-2.31691-1.4023,3.3658,3.3658,0,0,1-.1328-2.8418,4.80851,4.80851,0,0,1,1.7695-2.7676,4.22589,4.22589,0,0,1,3.145-.8886,3.38428,3.38428,0,0,1,2.2871,1.2539A3.14375,3.14375,0,0,1,151.07661,304.6426Z"/><path class="cls-17" d="M220.311,278.3477a2.55938,2.55938,0,0,0-2.0332.5879q-.89355.75-1.6387,1.3066a11.12284,11.12284,0,0,1-1.5195.9727,8.44221,8.44221,0,0,1-1.6563.7851,15.74018,15.74018,0,0,1-2.0136.5508,5.17638,5.17638,0,0,1-3.8203-.2617,4.29607,4.29607,0,0,1-1.7364-2.9375,21.77412,21.77412,0,0,1-.3886-2.8164c-.0899-1.0938-.1504-2.1895-.1758-3.3008q.00285-1.41795.0136-2.6875c.002-.8457.0352-1.6211.086-2.334,1.623-.5098,3.2109-.9765,4.7676-1.3867,1.5527-.4551,2.955-.8164,4.2168-1.0859a2.03281,2.03281,0,0,0,1.4961-1.0918,2.58228,2.58228,0,0,0,.246-1.7481,2.95539,2.95539,0,0,0-1.0332-1.5078,2.30279,2.30279,0,0,0-2.0234-.373q-1.24215.26655-2.9355.7187-1.69335.45405-3.5586.9746c-1.2383.3887-2.4805.7656-3.7403,1.1367q-1.88955.55965-3.4472,1.0762a2.45472,2.45472,0,0,0-1.5274,1.375,2.72324,2.72324,0,0,0-.1387,1.8184,2.53153,2.53153,0,0,0,.7051,1.2714,1.6963,1.6963,0,0,0,1.4043.504c-.0527.7148-.0781,1.4257-.0664,2.1445.0078.7168.0293,1.4473.0606,2.1777a36.82762,36.82762,0,0,0,.2382,3.7207c.14071,1.2442.3262,2.3946.5508,3.461a7.49179,7.49179,0,0,0,3.8184,5.4531,10.66715,10.66715,0,0,0,7.2988.6387,20.17621,20.17621,0,0,0,5.582-1.9317,27.67879,27.67879,0,0,0,3.7383-2.4629,2.8338,2.8338,0,0,0,1.1016-1.9023,2.59738,2.59738,0,0,0-.4199-1.8281A2.08794,2.08794,0,0,0,220.311,278.3477Z"/><path class="cls-17" d="M241.81881,287.9981a7.34983,7.34983,0,0,0-2.2676-2.541,8.2751,8.2751,0,0,0-3.0547-1.295,9.66525,9.66525,0,0,0-3.3007-.1308,10.32024,10.32024,0,0,0-6.6075,3.7558,10.91455,10.91455,0,0,0-2.3808,6.8067,8.11842,8.11842,0,0,0,2.7148,5.7832,8.27591,8.27591,0,0,0,6.586,1.9316,10.33712,10.33712,0,0,0,3.9511-1.1836,12.28023,12.28023,0,0,0,3.0762-2.3535,10.02337,10.02337,0,0,0,1.8711-3.2383,10.40664,10.40664,0,0,0,.57421-3.832A8.50162,8.50162,0,0,0,241.81881,287.9981Zm-5.4766,7.8984a3.97988,3.97988,0,0,1-2.8828,1.541,3.25115,3.25115,0,0,1-2.72649-.9023,3.48319,3.48319,0,0,1-1.06061-2.6719,5.25706,5.25706,0,0,1,1.0821-3.3223,3.98226,3.98226,0,0,1,2.8574-1.6582,3.30822,3.30822,0,0,1,1.3594.1407,3.58257,3.58257,0,0,1,1.2636.7187,4.07722,4.07722,0,0,1,.9395,1.2266,3.6833,3.6833,0,0,1,.3828,1.6445A4.78092,4.78092,0,0,1,236.34221,295.8965Z"/><path class="cls-17" d="M225.04151,281.418a2.70134,2.70134,0,0,0,1.8047.6328,2.85148,2.85148,0,0,0,2.7695-2.9336q.0087-1.98045-.1817-4.043-.1962-2.05665-.5156-4.1503c1.2871-.3536,2.5781-.7051,3.8828-1.043q1.9629-.5127,4.0274-.9492.3486,2.20605.4824,4.2812a21.392,21.392,0,0,1,.0273,3.8828,2.36843,2.36843,0,0,0,.752,2.0938,3.01067,3.01067,0,0,0,1.875.6816,3.18531,3.18531,0,0,0,1.8867-.7109,2.82189,2.82189,0,0,0,1.0293-2.1348,35.57092,35.57092,0,0,0-.1269-5.5019,54.95321,54.95321,0,0,0-2.6231-12.3145,35.52978,35.52978,0,0,0-2.125-5.043,2.99312,2.99312,0,0,0-1.8672-1.5156,3.31581,3.31581,0,0,0-2.1426.086,3.13033,3.13033,0,0,0-1.4628,1.3886,2.22725,2.22725,0,0,0,.123,2.1719,35.42492,35.42492,0,0,1,3.0937,7.8613q-2.0214.3663-3.9902.8203-1.98043.4512-3.94529,1.0547a42.66842,42.66842,0,0,0-2.58981-7.2265,2.94906,2.94906,0,0,0-1.7559-1.5723,3.08666,3.08666,0,0,0-2.0918.043,2.8315,2.8315,0,0,0-1.4707,1.3632,2.42094,2.42094,0,0,0,.0723,2.209c.6191,1.3516,1.1855,2.7735,1.71091,4.2676q.78509,2.24415,1.44729,4.7559a36.18255,36.18255,0,0,1,1.1484,9.4511A2.37919,2.37919,0,0,0,225.04151,281.418Z"/></g></g></svg>