<svg xmlns="http://www.w3.org/2000/svg" xmlns:xlink="http://www.w3.org/1999/xlink" viewBox="0 0 122.37 74.81"><defs><style>.cls-1{fill:url(#linear-gradient);}</style><linearGradient id="linear-gradient" x1="120.48" y1="12.61" x2="2.02" y2="72.97" gradientUnits="userSpaceOnUse"><stop offset="0" stop-color="#f4ce21"/><stop offset="0.23" stop-color="#e55927"/><stop offset="0.46" stop-color="#dc2873"/><stop offset="0.7" stop-color="#602c89"/><stop offset="1" stop-color="#1c2a53"/></linearGradient></defs><title>logo</title><g id="레이어_2" data-name="레이어 2"><g id="레이어_1-2" data-name="레이어 1"><path class="cls-1" d="M111.6,74.81H10.77A10.78,10.78,0,0,1,0,64V21.61A10.78,10.78,0,0,1,10.77,10.84H90.48a2,2,0,0,1,0,3.92H10.77a6.86,6.86,0,0,0-6.86,6.85V64a6.86,6.86,0,0,0,6.86,6.85H111.6A6.85,6.85,0,0,0,118.45,64V21.61a6.85,6.85,0,0,0-6.85-6.85,2,2,0,0,1,0-3.92,10.78,10.78,0,0,1,10.77,10.77V64A10.78,10.78,0,0,1,111.6,74.81Z"/><path d="M23.05,44.26q-2.57.09-4.92.09c-1.58,0-3.13,0-4.66,0a5.44,5.44,0,0,1-1.9-.28,2.06,2.06,0,0,1-1.15-1.21,2,2,0,0,1-.17-1.19,1.1,1.1,0,0,1,.49-.71,1.25,1.25,0,0,1,1.07-.18,1,1,0,0,1,.69.6.89.89,0,0,0,.15.26.57.57,0,0,0,.25.16,1.44,1.44,0,0,0,.44.08l.74,0c1.19,0,2.53.06,4,.06s3.07,0,4.7-.11a2.14,2.14,0,0,1,1,.21,1.08,1.08,0,0,1,.48,1,1,1,0,0,1-.39.94A2,2,0,0,1,23.05,44.26Zm-1.36-12.7a1,1,0,0,1-.27.9,1.47,1.47,0,0,1-.73.29,23.81,23.81,0,0,1-3.33.3,19.9,19.9,0,0,1-3.21-.22,1.09,1.09,0,0,1-.84-.47,1.56,1.56,0,0,1-.16-.92,1.16,1.16,0,0,1,.38-.83,1.1,1.1,0,0,1,.92-.17,25.77,25.77,0,0,0,3,.22c1,0,2,0,2.95-.1a1.74,1.74,0,0,1,.87.12C21.51,30.79,21.65,31.09,21.69,31.56Zm0,6.36a1,1,0,0,1-.27.89,1.84,1.84,0,0,1-.73.31,22.33,22.33,0,0,1-3.26.29,20.46,20.46,0,0,1-3.28-.22,1.12,1.12,0,0,1-.84-.46,1.61,1.61,0,0,1-.16-.93,1.19,1.19,0,0,1,.37-.81,1.11,1.11,0,0,1,.88-.19V35.56a5.23,5.23,0,0,1,0-.91,1.73,1.73,0,0,1,.26-.74,1,1,0,0,1,.91-.33,1,1,0,0,1,.85.33,1.15,1.15,0,0,1,.22.74c0,.31,0,.69,0,1.13V37h1.17V35.69a8.58,8.58,0,0,1,.05-1,1.62,1.62,0,0,1,.27-.74,1,1,0,0,1,.9-.33,1,1,0,0,1,.86.33,1.15,1.15,0,0,1,.22.74c0,.31,0,.68,0,1.1V37a1,1,0,0,0,.29,0,1.7,1.7,0,0,1,.83.12C21.5,37.16,21.65,37.45,21.69,37.92Z"/><path d="M26,37.24A1.89,1.89,0,0,1,26.56,36a2.58,2.58,0,0,1,1.63-.39c.43,0,.8,0,1.13,0a7.36,7.36,0,0,0,1,0l.25,0s.05-.08.07-.17a1.73,1.73,0,0,0,0-.35V34.7c0-.11,0-.18-.07-.2a.77.77,0,0,0-.24-.07,11.58,11.58,0,0,0-1.62-.06l-1.58.09a1.27,1.27,0,0,1-.85-.2,1,1,0,0,1-.34-.75,1.06,1.06,0,0,1,.29-1,1.88,1.88,0,0,1,.93-.38A11.16,11.16,0,0,1,29.16,32q.91,0,1.89.09a3.46,3.46,0,0,1,1.7.55,2.11,2.11,0,0,1,.59,1.6,7.61,7.61,0,0,1,0,1c0,.32,0,.63-.08.94a2.32,2.32,0,0,1-.45,1.27,1.75,1.75,0,0,1-1.23.44,13.46,13.46,0,0,1-1.42,0l-1.41,0q-.24,0-.24.27v.3a1.19,1.19,0,0,0,0,.28.56.56,0,0,0,.07.21.4.4,0,0,0,.25.08,11.33,11.33,0,0,0,1.61.09c.5,0,1,0,1.6-.09a1.14,1.14,0,0,1,.86.2,1.06,1.06,0,0,1,.31.73,1.18,1.18,0,0,1-.23.94,1.34,1.34,0,0,1-.89.37,8.63,8.63,0,0,1-.94.1l-.86,0q-.43,0-.93,0l-1.12-.06a3.16,3.16,0,0,1-1.7-.48,2.05,2.05,0,0,1-.61-1.59,8,8,0,0,1,0-1.08C25.92,37.84,25.94,37.53,26,37.24Zm13.23,6.09a2.29,2.29,0,0,1-.29,1.18,1.15,1.15,0,0,1-1,.41,1.11,1.11,0,0,1-1-.42,1.85,1.85,0,0,1-.23-1.07c0-1.92.07-3.76.07-5.51s0-3.53-.05-5.31a6.85,6.85,0,0,0-.1-1.28.55.55,0,0,0-.39-.43.85.85,0,0,1-.56-.68,1.51,1.51,0,0,1,.13-.9.94.94,0,0,1,.46-.48,1.45,1.45,0,0,1,.63-.13,1.92,1.92,0,0,1,.67.11,2.81,2.81,0,0,1,.58.25,2.24,2.24,0,0,1,1,1.17,5.7,5.7,0,0,1,.24,1.81v2.58c0,.93,0,1.88,0,2.85s0,2-.05,3S39.23,42.39,39.21,43.33Z"/><path d="M44.11,34.87a.87.87,0,0,0,0,.26v.4c.6,0,1.21,0,1.85,0s1.26,0,1.87-.05h.47a1.34,1.34,0,0,1,.45.1.75.75,0,0,1,.35.26.84.84,0,0,1,.15.53.82.82,0,0,1-.33.8,1.67,1.67,0,0,1-.79.25l-2.18.11-1.84,0a2.26,2.26,0,0,0,0,.27,1.31,1.31,0,0,1,0,.17.49.49,0,0,0,.1.27.67.67,0,0,0,.34.12,9.3,9.3,0,0,0,1.5.09q.77,0,1.47-.06l.6,0a1.31,1.31,0,0,1,.5.09.66.66,0,0,1,.35.29,1.3,1.3,0,0,1,.16.6.93.93,0,0,1-.28.86,1.74,1.74,0,0,1-.89.31l-1.16.11-1,0-.92,0-.94-.05a2.81,2.81,0,0,1-1.78-.59,2.5,2.5,0,0,1-.61-1.8c0-.35,0-.74,0-1.14s0-.81,0-1.21,0-.77.05-1.11,0-.62.08-.83a1.8,1.8,0,0,1,.76-1.28,3.13,3.13,0,0,1,1.44-.4c.74,0,1.45-.07,2.12-.07a15.06,15.06,0,0,1,2,.14,2.44,2.44,0,0,1,.91.34.93.93,0,0,1,.28.93,1,1,0,0,1-.4.77,2.29,2.29,0,0,1-1.23.16c-.56,0-1.1-.06-1.65-.06s-1,0-1.52,0a.28.28,0,0,0-.21.11C44.15,34.7,44.13,34.78,44.11,34.87Zm10.7,8.46a2.29,2.29,0,0,1-.29,1.18,1.15,1.15,0,0,1-1,.41,1.11,1.11,0,0,1-1-.42,1.85,1.85,0,0,1-.23-1.07c.05-1.92.07-3.76.07-5.51s0-3.53,0-5.31a6.85,6.85,0,0,0-.1-1.28.55.55,0,0,0-.39-.43.85.85,0,0,1-.56-.68,1.51,1.51,0,0,1,.13-.9.94.94,0,0,1,.46-.48,1.45,1.45,0,0,1,.63-.13,1.92,1.92,0,0,1,.67.11,2.51,2.51,0,0,1,.57.25,2.22,2.22,0,0,1,1,1.17,5.7,5.7,0,0,1,.24,1.81v2.58c0,.93,0,1.88,0,2.85s0,2,0,3S54.83,42.39,54.81,43.33Z"/><path d="M58.48,33.45a4.14,4.14,0,0,1,2.74-.89,4,4,0,0,1,1.59.3,3.42,3.42,0,0,1,1.14.83,3.06,3.06,0,0,1,.66,1.23,4.18,4.18,0,0,1,.12,1.51,5.2,5.2,0,0,1-1.17,3,3.68,3.68,0,0,1-2.92,1.11,3.26,3.26,0,0,1-2.77-1.17,4.11,4.11,0,0,1-.67-3.07A4.14,4.14,0,0,1,58.48,33.45Zm1.11,3.68a1.66,1.66,0,0,0,.12.64,1.12,1.12,0,0,0,.37.49,1,1,0,0,0,.65.2,1.13,1.13,0,0,0,.67-.19,1.58,1.58,0,0,0,.47-.46,2.57,2.57,0,0,0,.28-.63,6.1,6.1,0,0,0,.14-.72,2.05,2.05,0,0,0-.22-1.27,1,1,0,0,0-.92-.51,1.3,1.3,0,0,0-1,.39,2.57,2.57,0,0,0-.51,1.39A3.58,3.58,0,0,0,59.59,37.13Zm8.91,2.29c0-.63,0-1.21,0-1.77a12.23,12.23,0,0,0,1.54-.14c0,1.9,0,3.87-.07,5.92a1.85,1.85,0,0,0,.23,1.07,1.11,1.11,0,0,0,1,.42,1.15,1.15,0,0,0,1-.41,2.29,2.29,0,0,0,.29-1.18c0-.94,0-1.91,0-2.9s0-2,.05-3,0-1.92,0-2.85V32.05a5.7,5.7,0,0,0-.24-1.81,2.22,2.22,0,0,0-1-1.17,2.51,2.51,0,0,0-.57-.25,1.92,1.92,0,0,0-.67-.11,1.45,1.45,0,0,0-.63.13,1,1,0,0,0-.47.48,1.51,1.51,0,0,0-.12.9.85.85,0,0,0,.56.68.58.58,0,0,1,.39.43,7.9,7.9,0,0,1,.1,1.28c0,.42,0,.83,0,1.23s0,.81,0,1.23c-.28,0-.54.06-.79.07l-.72,0V33.26a5.38,5.38,0,0,0-.25-1.8,2.2,2.2,0,0,0-1-1.17,2.51,2.51,0,0,0-.57-.25,2,2,0,0,0-.67-.12,1.53,1.53,0,0,0-.64.14,1,1,0,0,0-.46.47,1.55,1.55,0,0,0-.12.91.83.83,0,0,0,.56.68.58.58,0,0,1,.39.43,7.9,7.9,0,0,1,.1,1.28c0,.89,0,1.62,0,2.19s0,1.12,0,1.64,0,1.1,0,1.7,0,1.38-.05,2.34a1.93,1.93,0,0,0,.23,1.07,1.51,1.51,0,0,0,2.06,0,2.26,2.26,0,0,0,.3-1.18C68.47,40.77,68.49,40.05,68.5,39.42Z"/><path d="M87.64,44.26q-2.55.09-4.92.09c-1.58,0-3.13,0-4.66,0a5.48,5.48,0,0,1-1.9-.28A2,2,0,0,1,75,42.84a1.91,1.91,0,0,1-.17-1.19,1.09,1.09,0,0,1,.48-.71,1.27,1.27,0,0,1,1.08-.18,1,1,0,0,1,.68.6.89.89,0,0,0,.16.26.48.48,0,0,0,.24.16,1.51,1.51,0,0,0,.44.08l.74,0c1.19,0,2.53.06,4,.06s3.06,0,4.69-.11a2.14,2.14,0,0,1,1,.21,1.06,1.06,0,0,1,.48,1,.93.93,0,0,1-.39.94A2,2,0,0,1,87.64,44.26ZM80.55,33.58a3.28,3.28,0,0,0,0,.55V35c0,.29,0,.57,0,.84s0,.45,0,.55a.49.49,0,0,0,.1.27.67.67,0,0,0,.34.12,10,10,0,0,0,1.44.09l1.41-.06a2.74,2.74,0,0,1,1.1.1c.31.11.48.42.51.94a1.11,1.11,0,0,1-.28.93,1.48,1.48,0,0,1-.89.37l-1.29.1c-.36,0-.69,0-1,0l-.85,0-.9-.05a2.78,2.78,0,0,1-1.78-.59,2.46,2.46,0,0,1-.61-1.8c0-.81,0-1.62,0-2.41A14.21,14.21,0,0,1,78,32.48a1.7,1.7,0,0,1,.74-1.27,3.21,3.21,0,0,1,1.45-.41c.75-.05,1.46-.07,2.11-.07a13.43,13.43,0,0,1,2,.15,1.77,1.77,0,0,1,1,.41,1.23,1.23,0,0,1,.19,1,1.12,1.12,0,0,1-.4.8,2,2,0,0,1-1.23.19l-1.57-.06c-.5,0-1,0-1.45,0-.12,0-.18,0-.21.11A1.84,1.84,0,0,0,80.55,33.58Z"/><path d="M13.28,60.47a1.34,1.34,0,0,1-.15.64.63.63,0,0,1-.56.22A.59.59,0,0,1,12,61.1a1,1,0,0,1-.12-.58q0-.87,0-1.59c0-.49,0-1,0-1.41s0-.89,0-1.32,0-.89,0-1.38a4,4,0,0,0-.05-.69.34.34,0,0,0-.21-.23.43.43,0,0,1-.3-.37.79.79,0,0,1,.06-.48.51.51,0,0,1,.24-.26.64.64,0,0,1,.31-.07,1,1,0,0,1,.34.06,1.38,1.38,0,0,1,.3.14,1.27,1.27,0,0,1,.55.6,4.32,4.32,0,0,1,.8-.14,6.73,6.73,0,0,1,.9,0A2.77,2.77,0,0,1,16,53.7a2.15,2.15,0,0,1,.77.69,2.39,2.39,0,0,1,.34,1,3.44,3.44,0,0,1-.08,1.18,1.85,1.85,0,0,1-.82,1.16,4.19,4.19,0,0,1-1.55.55,4.51,4.51,0,0,1-1.37,0c0,.42,0,.83,0,1.22S13.29,60.17,13.28,60.47Zm1.19-3.41a2.37,2.37,0,0,0,.87-.32.88.88,0,0,0,.38-.66,1.34,1.34,0,0,0-.19-.95,1.29,1.29,0,0,0-.93-.45,3.44,3.44,0,0,0-.7,0,5.54,5.54,0,0,0-.6.06v1.11c0,.4,0,.83,0,1.26A3.74,3.74,0,0,0,14.47,57.06Z"/><path d="M19.62,59.91a1.16,1.16,0,0,1-.17.63.59.59,0,0,1-.53.22.63.63,0,0,1-.54-.2.93.93,0,0,1-.13-.6q0-.68,0-1.47c0-.53,0-1,0-1.43a5,5,0,0,0-.08-.7A.34.34,0,0,0,18,56.1a.44.44,0,0,1-.31-.36.87.87,0,0,1,.07-.48.54.54,0,0,1,.45-.35,1.39,1.39,0,0,1,.54.07,1.59,1.59,0,0,1,.54.36,1.44,1.44,0,0,1,.29.51,2.1,2.1,0,0,1,.54-.27,2.13,2.13,0,0,1,.66-.08,2.65,2.65,0,0,1,.83.11,2.25,2.25,0,0,1,.6.31,1.92,1.92,0,0,1,.4.41,1.41,1.41,0,0,1,.19.42c0,.11.05.22.07.33a.74.74,0,0,1,0,.3.46.46,0,0,1-.15.23.62.62,0,0,1-.34.1.71.71,0,0,1-.51-.12,2.22,2.22,0,0,1-.32-.46.87.87,0,0,0-.86-.4,1.25,1.25,0,0,0-.46.09,1.79,1.79,0,0,0-.52.32c0,.51,0,1,0,1.45S19.63,59.48,19.62,59.91Z"/><path d="M24.54,58.63a.92.92,0,0,0,.38.72,1.84,1.84,0,0,0,.88.16,2,2,0,0,0,.71-.12,1.94,1.94,0,0,0,.6-.39.8.8,0,0,1,.44-.25.52.52,0,0,1,.46.15.58.58,0,0,1,.25.49.68.68,0,0,1-.23.42,3.9,3.9,0,0,1-.92.62,2.76,2.76,0,0,1-1.21.25,4,4,0,0,1-1.35-.19,2.11,2.11,0,0,1-.85-.56,2.08,2.08,0,0,1-.42-.84A4,4,0,0,1,23.2,58a2.94,2.94,0,0,1,.67-1.95,2.73,2.73,0,0,1,2-.77,3.69,3.69,0,0,1,.88.07,2.43,2.43,0,0,1,.78.32,2,2,0,0,1,.61.59,2.53,2.53,0,0,1,.34.91,1.44,1.44,0,0,1-.06,1,1.08,1.08,0,0,1-.81.41,14.09,14.09,0,0,1-1.55.13A8.23,8.23,0,0,1,24.54,58.63Zm1.28-2.15a1.47,1.47,0,0,0-.81.25,1.24,1.24,0,0,0-.44.78,12,12,0,0,0,2.68,0,1.41,1.41,0,0,0-.16-.49,1,1,0,0,0-.33-.31,1.21,1.21,0,0,0-.44-.16A2.07,2.07,0,0,0,25.82,56.48Z"/><path d="M33.19,56.89h-1.5a16,16,0,0,0,.12,1.65.78.78,0,0,0,.23.55.75.75,0,0,0,.53.17.6.6,0,0,0,.3-.07.91.91,0,0,0,.28-.3,1.87,1.87,0,0,1,.37-.45.59.59,0,0,1,.5,0c.23.07.36.19.39.35a1.29,1.29,0,0,1-.06.54,2,2,0,0,1-.63.92,1.86,1.86,0,0,1-1.18.35,4.54,4.54,0,0,1-.58,0,1.64,1.64,0,0,1-.63-.22,1.56,1.56,0,0,1-.54-.52,2,2,0,0,1-.3-1,8.14,8.14,0,0,1-.09-1c0-.31,0-.63,0-1a2.46,2.46,0,0,1-.84-.17,1,1,0,0,1-.55-.58,1.16,1.16,0,0,1-.09-.59.55.55,0,0,1,.29-.42.63.63,0,0,1,.51-.07.49.49,0,0,1,.32.29,1.1,1.1,0,0,0,.13.25.61.61,0,0,0,.23.11c0-.4,0-.79,0-1.18s0-.79.09-1.22a2.7,2.7,0,0,1,0-.28.88.88,0,0,1,.11-.24.7.7,0,0,1,.2-.18.9.9,0,0,1,.36-.06.5.5,0,0,1,.49.22,1,1,0,0,1,.09.58c0,.42-.05.82-.07,1.21s0,.8,0,1.2h.87a6.21,6.21,0,0,0,.69,0,1,1,0,0,1,.5.09.5.5,0,0,1,.21.48.66.66,0,0,1-.07.3.58.58,0,0,1-.18.17.62.62,0,0,1-.24.08A1.15,1.15,0,0,1,33.19,56.89Z"/><path d="M38.9,56.89H37.4a16,16,0,0,0,.12,1.65.79.79,0,0,0,.24.55.73.73,0,0,0,.52.17.56.56,0,0,0,.3-.07.91.91,0,0,0,.28-.3,1.87,1.87,0,0,1,.38-.45.56.56,0,0,1,.49,0c.24.07.37.19.39.35a1.29,1.29,0,0,1-.06.54,1.75,1.75,0,0,1-1.8,1.27,4.4,4.4,0,0,1-.58,0,1.64,1.64,0,0,1-.63-.22,1.41,1.41,0,0,1-.54-.52,2.13,2.13,0,0,1-.31-1c0-.33-.07-.65-.09-1s0-.63,0-1a2.4,2.4,0,0,1-.83-.17,1,1,0,0,1-.55-.58,1.17,1.17,0,0,1-.1-.59.53.53,0,0,1,.3-.42.6.6,0,0,1,.5-.07.51.51,0,0,1,.33.29.64.64,0,0,0,.13.25.56.56,0,0,0,.22.11c0-.4,0-.79,0-1.18s0-.79.09-1.22a2.74,2.74,0,0,1,0-.28.87.87,0,0,1,.1-.24.63.63,0,0,1,.21-.18.85.85,0,0,1,.35-.06.5.5,0,0,1,.49.22,1,1,0,0,1,.09.58c0,.42-.05.82-.06,1.21s0,.8,0,1.2h.87a6,6,0,0,0,.68,0,1,1,0,0,1,.5.09.5.5,0,0,1,.21.48.56.56,0,0,1-.07.3.58.58,0,0,1-.18.17.62.62,0,0,1-.24.08A1.09,1.09,0,0,1,38.9,56.89Z"/><path d="M44.18,56.17A3.24,3.24,0,0,1,44.37,55a1.24,1.24,0,0,1,.76-.66.91.91,0,0,1,.59-.08.6.6,0,0,1,.46.34.89.89,0,0,1,0,.49.45.45,0,0,1-.31.38.24.24,0,0,0-.13.08.4.4,0,0,0-.07.16,1.84,1.84,0,0,0,0,.29c0,.11,0,.25,0,.43,0,.77,0,1.54,0,2.29s0,1.51,0,2.28A2.73,2.73,0,0,1,44.94,63a2.63,2.63,0,0,1-1.85.58,3.2,3.2,0,0,1-1.46-.31,1.86,1.86,0,0,1-.93-1.09,1.37,1.37,0,0,1-.05-.63.49.49,0,0,1,.4-.4.62.62,0,0,1,.6.07,1.33,1.33,0,0,1,.33.43,1.13,1.13,0,0,0,.49.58,1.78,1.78,0,0,0,.71.12.87.87,0,0,0,.5-.13.82.82,0,0,0,.31-.33,1.33,1.33,0,0,0,.17-.46,3.07,3.07,0,0,0,.05-.53v-.69a3,3,0,0,1-1.24.23,2.64,2.64,0,0,1-1-.17,1.93,1.93,0,0,1-.67-.47,2.16,2.16,0,0,1-.42-.68,3.16,3.16,0,0,1-.17-.81c0-.4,0-.78,0-1.14a10.14,10.14,0,0,1,.06-1.1c0-.11,0-.21,0-.32a.73.73,0,0,1,.11-.27.43.43,0,0,1,.21-.19.88.88,0,0,1,.38-.05,1.17,1.17,0,0,1,.35.09.46.46,0,0,1,.17.17.53.53,0,0,1,.07.26c0,.1,0,.21,0,.32,0,.45,0,.86,0,1.24s0,.66,0,.85a1.16,1.16,0,0,0,.29.74,1.07,1.07,0,0,0,.79.26,2.92,2.92,0,0,0,.51,0,1.73,1.73,0,0,0,.51-.18V57.36C44.18,56.94,44.18,56.54,44.18,56.17Z"/><path d="M52.59,59.71a1.76,1.76,0,0,1-.57,1,1.58,1.58,0,0,1-1,.3,1,1,0,0,1-.63-.16.57.57,0,0,1-.23-.5.64.64,0,0,1,.14-.41.52.52,0,0,1,.44-.18.4.4,0,0,0,.33-.18,2.23,2.23,0,0,0,.3-.68c.09-.26.2-.61.34-1s.28-.9.44-1.41.32-1,.48-1.58l.48-1.55a.74.74,0,0,1,.3-.42.88.88,0,0,1,.49-.13,1.1,1.1,0,0,1,.56.13.79.79,0,0,1,.31.39c.33,1.07.67,2.08,1,3l1.11,3c0,.13.09.26.14.4a1.58,1.58,0,0,1,.09.42.84.84,0,0,1,0,.39.45.45,0,0,1-.27.27,1,1,0,0,1-.29.08.42.42,0,0,1-.29,0,.9.9,0,0,1-.28-.25,2.38,2.38,0,0,1-.27-.49c-.09-.21-.17-.42-.25-.63s-.15-.41-.22-.62c-.45,0-.86.06-1.24.06l-1.17,0c0,.15-.09.31-.13.46S52.63,59.58,52.59,59.71Zm2.25-2.11c-.15-.45-.29-.91-.43-1.35s-.29-.9-.45-1.36c-.15.45-.29.9-.43,1.37l-.39,1.37H54Z"/><path d="M60.11,55.44a3.82,3.82,0,0,1,.67,0,3.35,3.35,0,0,1,.71.21c0-.31,0-.62,0-.9V54a2.67,2.67,0,0,1,.15-1,1.25,1.25,0,0,1,.56-.63,2.09,2.09,0,0,1,.3-.14,1,1,0,0,1,.34-.06.78.78,0,0,1,.31.07.56.56,0,0,1,.24.26.89.89,0,0,1,.07.49.47.47,0,0,1-.31.37.32.32,0,0,0-.21.23,5.45,5.45,0,0,0-.05.69c0,.48,0,.94,0,1.37s0,.88,0,1.33,0,.91,0,1.4,0,1,0,1.6a1,1,0,0,1-.12.58.59.59,0,0,1-.55.22.74.74,0,0,1-.46-.12.61.61,0,0,1-.21-.35,3.94,3.94,0,0,1-1.44.14,2.8,2.8,0,0,1-1.89-.77A2.44,2.44,0,0,1,57.62,58a2.84,2.84,0,0,1,.16-1,2.1,2.1,0,0,1,.47-.79,2.16,2.16,0,0,1,.77-.53A3,3,0,0,1,60.11,55.44Zm.18,3.81a2.49,2.49,0,0,0,.61,0,3.83,3.83,0,0,0,.59-.1V57a2.48,2.48,0,0,0-1.29-.27,1.24,1.24,0,0,0-1,.38,1.37,1.37,0,0,0-.25.94,1.2,1.2,0,0,0,.33.84A1.64,1.64,0,0,0,60.29,59.25Z"/><path d="M65.77,56.39c.08.29.15.55.22.78s.14.46.21.68l.21.66c.07.22.15.46.24.71l.34-.85.29-.78c.1-.25.19-.5.28-.75s.19-.5.29-.76a2.58,2.58,0,0,1,.24-.52.8.8,0,0,1,.26-.26.59.59,0,0,1,.29,0,1,1,0,0,1,.3.1.5.5,0,0,1,.27.3,1,1,0,0,1,0,.4,1.58,1.58,0,0,1-.1.43c-.05.14-.1.26-.13.36-.26.67-.53,1.3-.8,1.89s-.53,1.19-.78,1.82a1.29,1.29,0,0,1-.33.46.8.8,0,0,1-.53.19.81.81,0,0,1-.52-.19,1,1,0,0,1-.29-.47c-.18-.59-.37-1.15-.58-1.69s-.4-1.09-.58-1.66a1.78,1.78,0,0,0-.32-.68.58.58,0,0,0-.37-.15.42.42,0,0,1-.4-.18.93.93,0,0,1-.09-.42.54.54,0,0,1,.23-.5,1,1,0,0,1,.58-.16,1.49,1.49,0,0,1,1,.3A2,2,0,0,1,65.77,56.39Z"/><path d="M71.09,58.63c.06.38.18.62.38.72a1.84,1.84,0,0,0,.88.16,2,2,0,0,0,.71-.12,1.79,1.79,0,0,0,.59-.39.79.79,0,0,1,.45-.25.53.53,0,0,1,.46.15.58.58,0,0,1,.25.49.7.7,0,0,1-.24.42,3.64,3.64,0,0,1-.91.62,2.8,2.8,0,0,1-1.22.25,4,4,0,0,1-1.35-.19,2.14,2.14,0,0,1-.84-.56,1.86,1.86,0,0,1-.42-.84A4.47,4.47,0,0,1,69.74,58a3,3,0,0,1,.67-1.95,2.76,2.76,0,0,1,2-.77,3.57,3.57,0,0,1,.87.07,2.39,2.39,0,0,1,.79.32,1.88,1.88,0,0,1,.6.59,2.54,2.54,0,0,1,.35.91,1.51,1.51,0,0,1-.06,1,1.08,1.08,0,0,1-.81.41,14.47,14.47,0,0,1-1.56.13A8.12,8.12,0,0,1,71.09,58.63Zm1.27-2.15a1.52,1.52,0,0,0-.81.25,1.33,1.33,0,0,0-.44.78,12,12,0,0,0,2.69,0,1.24,1.24,0,0,0-.17-.49,1,1,0,0,0-.32-.31,1.29,1.29,0,0,0-.44-.16A2.12,2.12,0,0,0,72.36,56.48Z"/><path d="M77.39,59.91a1.16,1.16,0,0,1-.16.63.6.6,0,0,1-.54.22.61.61,0,0,1-.53-.2A.92.92,0,0,1,76,60c0-.45,0-.94,0-1.47s0-1,0-1.43a4.09,4.09,0,0,0-.07-.7.38.38,0,0,0-.21-.26.42.42,0,0,1-.31-.36.87.87,0,0,1,.07-.48.52.52,0,0,1,.45-.35,1.39,1.39,0,0,1,.54.07,1.82,1.82,0,0,1,.54.36,1.41,1.41,0,0,1,.28.51,2.16,2.16,0,0,1,.55-.27,2.1,2.1,0,0,1,.65-.08,2.57,2.57,0,0,1,.83.11,2.32,2.32,0,0,1,.61.31,1.65,1.65,0,0,1,.39.41,1.23,1.23,0,0,1,.2.42c0,.11,0,.22.07.33a.74.74,0,0,1,0,.3.36.36,0,0,1-.15.23.59.59,0,0,1-.33.1.71.71,0,0,1-.51-.12,1.9,1.9,0,0,1-.32-.46.88.88,0,0,0-.86-.4,1.31,1.31,0,0,0-.47.09,2.09,2.09,0,0,0-.52.32c0,.51,0,1,0,1.45S77.41,59.48,77.39,59.91Z"/><path d="M85.12,56.89h-1.5a16,16,0,0,0,.12,1.65.78.78,0,0,0,.23.55.75.75,0,0,0,.53.17.58.58,0,0,0,.3-.07.91.91,0,0,0,.28-.3,2.14,2.14,0,0,1,.37-.45.59.59,0,0,1,.5,0c.23.07.36.19.39.35a1.29,1.29,0,0,1-.06.54,1.88,1.88,0,0,1-.63.92,1.84,1.84,0,0,1-1.18.35,4.54,4.54,0,0,1-.58,0,1.64,1.64,0,0,1-.63-.22,1.56,1.56,0,0,1-.54-.52,2.13,2.13,0,0,1-.3-1c0-.33-.07-.65-.09-1s0-.63,0-1a2.46,2.46,0,0,1-.84-.17,1,1,0,0,1-.54-.58,1.17,1.17,0,0,1-.1-.59.55.55,0,0,1,.29-.42.63.63,0,0,1,.51-.07.49.49,0,0,1,.32.29.79.79,0,0,0,.14.25.49.49,0,0,0,.22.11c0-.4,0-.79,0-1.18s0-.79.09-1.22a1.37,1.37,0,0,1,0-.28.64.64,0,0,1,.1-.24.63.63,0,0,1,.21-.18.82.82,0,0,1,.35-.06.5.5,0,0,1,.49.22,1,1,0,0,1,.09.58c0,.42,0,.82-.07,1.21s0,.8,0,1.2h.86a6.21,6.21,0,0,0,.69,0,1,1,0,0,1,.5.09.5.5,0,0,1,.21.48.56.56,0,0,1-.07.3.58.58,0,0,1-.18.17.62.62,0,0,1-.24.08A1.15,1.15,0,0,1,85.12,56.89Z"/><path d="M89.13,59.76a1.13,1.13,0,0,1-.17.64.62.62,0,0,1-.54.22.69.69,0,0,1-.57-.2.94.94,0,0,1-.14-.61c0-.44,0-.86.05-1.25s0-.8,0-1.22a3.61,3.61,0,0,0-.08-.7.34.34,0,0,0-.21-.26.44.44,0,0,1-.31-.36.89.89,0,0,1,.07-.49.53.53,0,0,1,.45-.34,1.22,1.22,0,0,1,.54.07,1.27,1.27,0,0,1,.78.68,2.7,2.7,0,0,1,.2,1.08v.8c0,.23,0,.45,0,.66s0,.41,0,.62S89.14,59.52,89.13,59.76Zm-1.83-6a.88.88,0,0,1,.23-.6.75.75,0,0,1,.62-.27.74.74,0,0,1,.62.27.93.93,0,0,1,0,1.2.76.76,0,0,1-.62.26.79.79,0,0,1-.63-.26A.92.92,0,0,1,87.3,53.77Z"/><path d="M92.75,56.38a2,2,0,0,0-.77.1.47.47,0,0,0-.25.29.21.21,0,0,0,.09.25,1.22,1.22,0,0,0,.32.18l.39.12.29.06a4.93,4.93,0,0,1,1,.29,2.44,2.44,0,0,1,.64.41,1.37,1.37,0,0,1,.32.5,1.43,1.43,0,0,1,.08.59,1.82,1.82,0,0,1-.13.57,1.23,1.23,0,0,1-.38.49,2,2,0,0,1-.74.34,5.05,5.05,0,0,1-1.22.13,3.72,3.72,0,0,1-.93-.13,1.91,1.91,0,0,1-.78-.39.9.9,0,0,1-.25-.35.54.54,0,0,1,0-.46.53.53,0,0,1,.38-.29.56.56,0,0,1,.45.1,2.73,2.73,0,0,0,.48.27,1.8,1.8,0,0,0,.65.11,3.7,3.7,0,0,0,.53,0,1,1,0,0,0,.32-.09.29.29,0,0,0,.15-.14.41.41,0,0,0-.16-.55,2.89,2.89,0,0,0-.88-.28,6.14,6.14,0,0,1-1.08-.3,2,2,0,0,1-.64-.36,1,1,0,0,1-.3-.47,2,2,0,0,1-.07-.57,1.3,1.3,0,0,1,.19-.73,1.47,1.47,0,0,1,.51-.48,2.3,2.3,0,0,1,.72-.28,4,4,0,0,1,.86-.09,1.9,1.9,0,0,0,.58-.06.48.48,0,0,0,.25-.27.6.6,0,0,1,.27-.35.76.76,0,0,1,.48,0,.6.6,0,0,1,.4.39,1,1,0,0,1-.06.57,2.83,2.83,0,0,1-.22.43.83.83,0,0,1-.32.27,1.35,1.35,0,0,1-.49.13A5,5,0,0,1,92.75,56.38Z"/><path d="M97.69,59.76a1.22,1.22,0,0,1-.17.64.65.65,0,0,1-.54.22.69.69,0,0,1-.57-.2.94.94,0,0,1-.14-.61c0-.44,0-.86,0-1.25s0-.8,0-1.22a4.67,4.67,0,0,0-.08-.7.38.38,0,0,0-.21-.26.42.42,0,0,1-.31-.36.89.89,0,0,1,.07-.49.53.53,0,0,1,.45-.34,1.22,1.22,0,0,1,.54.07,1.33,1.33,0,0,1,.78.68A2.71,2.71,0,0,1,97.74,57v1.46c0,.2,0,.41,0,.62S97.7,59.52,97.69,59.76Zm-1.83-6a.92.92,0,0,1,.22-.6.86.86,0,0,1,1.25,0,.93.93,0,0,1,0,1.2.79.79,0,0,1-.63.26.76.76,0,0,1-.62-.26A.87.87,0,0,1,95.86,53.77Z"/><path d="M104.27,59.8c0,.11,0,.21,0,.32a.68.68,0,0,1-.08.31.53.53,0,0,1-.21.21.68.68,0,0,1-.4.06.77.77,0,0,1-.35-.09.47.47,0,0,1-.19-.18.61.61,0,0,1-.08-.28,2.16,2.16,0,0,1,0-.36c0-.39,0-.73,0-1a8.41,8.41,0,0,0,0-1,1.06,1.06,0,0,0-.33-.73,1,1,0,0,0-.71-.26,3.16,3.16,0,0,0-.55,0,2.15,2.15,0,0,0-.52.18c0,.54,0,1,0,1.51s0,.92,0,1.37a1.16,1.16,0,0,1-.16.63.6.6,0,0,1-.54.22.61.61,0,0,1-.53-.2.92.92,0,0,1-.14-.6c0-.45,0-.94,0-1.47s0-1,0-1.43a5,5,0,0,0-.08-.7.38.38,0,0,0-.21-.26.42.42,0,0,1-.31-.36.79.79,0,0,1,.07-.48.53.53,0,0,1,.45-.35,1.39,1.39,0,0,1,.54.07,1.42,1.42,0,0,1,.52.34,1.81,1.81,0,0,1,.29.48,2.7,2.7,0,0,1,.61-.23,4.16,4.16,0,0,1,.79-.06,2.3,2.3,0,0,1,1,.17,1.84,1.84,0,0,1,.68.47,2.07,2.07,0,0,1,.43.68,2.8,2.8,0,0,1,.18.81c0,.4,0,.76,0,1.1A6.46,6.46,0,0,1,104.27,59.8Z"/><path d="M109.7,54.38a.91.91,0,0,1,.59-.08.6.6,0,0,1,.46.34.89.89,0,0,1,0,.49.45.45,0,0,1-.31.38.24.24,0,0,0-.13.08.4.4,0,0,0-.07.16,1.84,1.84,0,0,0,0,.29c0,.11,0,.25,0,.43,0,.77,0,1.54,0,2.29s0,1.51,0,2.28a2.73,2.73,0,0,1-.66,1.94,2.63,2.63,0,0,1-1.85.58,3.28,3.28,0,0,1-1.47-.31,1.88,1.88,0,0,1-.92-1.09,1.37,1.37,0,0,1,0-.63.49.49,0,0,1,.4-.4.62.62,0,0,1,.6.07,1.33,1.33,0,0,1,.33.43,1.13,1.13,0,0,0,.49.58,1.78,1.78,0,0,0,.71.12.87.87,0,0,0,.5-.13.82.82,0,0,0,.31-.33,1.33,1.33,0,0,0,.17-.46,3.08,3.08,0,0,0,0-.53v-.51a5,5,0,0,1-.66.1,3,3,0,0,1-.6,0,2.8,2.8,0,0,1-1.89-.77A2.44,2.44,0,0,1,105,58a2.84,2.84,0,0,1,.16-1,2.1,2.1,0,0,1,.47-.79,2.16,2.16,0,0,1,.77-.53,3,3,0,0,1,1.09-.23,3.26,3.26,0,0,1,.62,0,2.76,2.76,0,0,1,.65.18,2.12,2.12,0,0,1,.27-.77A1.29,1.29,0,0,1,109.7,54.38Zm-1,2.55a2.59,2.59,0,0,0-1.16-.2,1.24,1.24,0,0,0-1,.38,1.37,1.37,0,0,0-.25.94,1.2,1.2,0,0,0,.33.84,1.64,1.64,0,0,0,1,.36,3.64,3.64,0,0,0,1.09-.07c0-.49,0-.91,0-1.27S108.75,57.23,108.75,56.93Z"/><path d="M95.71,32.4a.23.23,0,0,1,.1.07l.08.08.24,0h.24a1,1,0,0,1,.31,0,.7.7,0,0,1,.24.13.43.43,0,0,1,.15.2.64.64,0,0,1,.05.28.44.44,0,0,1,0,.15.55.55,0,0,1-.08.15.53.53,0,0,1-.13.13.51.51,0,0,1-.18.09.51.51,0,0,1,.25.06.6.6,0,0,1,.19.16.57.57,0,0,1,.12.23.63.63,0,0,1,0,.27.8.8,0,0,1-.09.32.61.61,0,0,1-.19.2.74.74,0,0,1-.27.12,1.69,1.69,0,0,1-.33,0h-.29L96,35l-.13,0-.08,0h-.07a.14.14,0,0,1-.11-.08.21.21,0,0,1,0-.12c0-.3,0-.6,0-.9s0-.59,0-.89a1.62,1.62,0,0,0,0-.23.1.1,0,0,0-.06-.08.16.16,0,0,1-.1-.11.39.39,0,0,1,0-.15.16.16,0,0,1,.07-.07s0,0,.08,0h.09Zm.3,1.54c0,.15,0,.28,0,.39s0,.21,0,.32h.39a.74.74,0,0,0,.35-.07.29.29,0,0,0,.13-.24.41.41,0,0,0-.08-.27.47.47,0,0,0-.34-.15Zm0-1v.39a.38.38,0,0,1,0,.1v.09h.17l.17,0a.38.38,0,0,0,.23-.1.44.44,0,0,0,.09-.25.24.24,0,0,0-.06-.17.33.33,0,0,0-.23-.08h-.19Z"/><path d="M98,34.83a.37.37,0,0,1,0,.2.21.21,0,0,1-.17.07.2.2,0,0,1-.17-.07.34.34,0,0,1,0-.18c0-.18,0-.35,0-.49v-.85c0-.13,0-.27,0-.42s0-.18,0-.21a.11.11,0,0,0-.07-.08.14.14,0,0,1-.09-.11.26.26,0,0,1,0-.15s0-.07.07-.08l.1,0a.18.18,0,0,1,.1,0,.19.19,0,0,1,.09,0,.39.39,0,0,1,.17.19,1.23,1.23,0,0,1,.25,0h.28a.8.8,0,0,1,.36.1.83.83,0,0,1,.24.21.77.77,0,0,1,.11.3,1.18,1.18,0,0,1,0,.37.59.59,0,0,1-.15.28.82.82,0,0,1-.29.17l.12.23.13.23.08.12a.06.06,0,0,0,.07,0,.17.17,0,0,1,.14,0,.2.2,0,0,1,.06.15.17.17,0,0,1,0,.13.27.27,0,0,1-.16.06.3.3,0,0,1-.25-.06.69.69,0,0,1-.19-.24c0-.1-.11-.2-.17-.3s-.12-.2-.17-.3h-.16l-.16,0v.37C98,34.63,98,34.74,98,34.83Zm.36-1a.69.69,0,0,0,.27-.1.25.25,0,0,0,.12-.21.38.38,0,0,0-.06-.29A.42.42,0,0,0,98.4,33h-.21l-.19,0v.34c0,.13,0,.26,0,.39A1,1,0,0,0,98.36,33.78Z"/><path d="M100.17,34.6a.55.55,0,0,1-.18.3.45.45,0,0,1-.31.1.36.36,0,0,1-.19,0,.19.19,0,0,1-.07-.16.2.2,0,0,1,0-.13.18.18,0,0,1,.14,0,.12.12,0,0,0,.1-.06.53.53,0,0,0,.09-.21L99.9,34l.13-.43.15-.49.15-.48a.25.25,0,0,1,.09-.13.28.28,0,0,1,.15,0,.39.39,0,0,1,.17,0,.23.23,0,0,1,.1.12c.1.33.21.64.32.94s.22.6.34.91c0,0,0,.08,0,.13a.51.51,0,0,1,0,.13.25.25,0,0,1,0,.12.15.15,0,0,1-.08.08l-.09,0a.14.14,0,0,1-.09,0,.32.32,0,0,1-.09-.08,1,1,0,0,1-.08-.15l-.08-.2c0-.06,0-.12-.07-.19a2.55,2.55,0,0,1-.38,0h-.36a.57.57,0,0,0,0,.14Zm.69-.65c0-.14-.09-.28-.13-.42l-.14-.42c0,.14-.09.28-.13.42s-.09.29-.12.42h.52Z"/><path d="M102.3,34.8a.44.44,0,0,1,0,.2.19.19,0,0,1-.17.07.17.17,0,0,1-.16-.07.35.35,0,0,1,0-.18c0-.3,0-.59,0-.88s0-.57,0-.86v-.14s0-.06,0-.08a.16.16,0,0,0,0-.06l0,0a.1.1,0,0,1-.06-.05.09.09,0,0,1,0-.07.19.19,0,0,1,0-.08s0,0,0-.07l.06-.07.09,0h.09l.08,0a.56.56,0,0,1,.15.1.77.77,0,0,1,.09.13c.16.29.32.58.49.87s.33.56.49.81c0-.29,0-.58,0-.86s0-.55,0-.84a.16.16,0,0,1,.05-.14.19.19,0,0,1,.14,0,.21.21,0,0,1,.16,0,.17.17,0,0,1,.07.14,10.23,10.23,0,0,1,0,1.1l-.06,1.08a.31.31,0,0,1-.06.13.19.19,0,0,1-.14.07.24.24,0,0,1-.15,0s-.08,0-.12-.1l-.44-.65c-.15-.22-.28-.45-.4-.67v.62c0,.11,0,.21,0,.32Z"/><path d="M104.8,32.5a1,1,0,0,1,.5.09.85.85,0,0,1,.35.27,1.27,1.27,0,0,1,.21.4,1.82,1.82,0,0,1,.06.46,2.63,2.63,0,0,1,0,.49,1.26,1.26,0,0,1-.17.41.89.89,0,0,1-.32.29,1.14,1.14,0,0,1-.52.11h-.19l-.19,0a.19.19,0,0,1-.19.09c-.09,0-.14,0-.17-.07a.3.3,0,0,1,0-.18c0-.16,0-.31,0-.45v-.85c0-.14,0-.28,0-.43a1.16,1.16,0,0,0,0-.22.12.12,0,0,0-.07-.07.14.14,0,0,1-.09-.11.24.24,0,0,1,0-.15s0-.07.08-.08a.16.16,0,0,1,.1,0h.11l.1.05a.53.53,0,0,1,.12.1.45.45,0,0,1,.18-.07Zm.06,2.12a.56.56,0,0,0,.3-.08.76.76,0,0,0,.19-.21,1.4,1.4,0,0,0,.09-.29,1.73,1.73,0,0,0,0-.32,1.36,1.36,0,0,0,0-.29.82.82,0,0,0-.11-.25.7.7,0,0,0-.2-.18.59.59,0,0,0-.29-.08h-.13l-.17,0v.78c0,.27,0,.55,0,.82a.64.64,0,0,0,.17,0Z"/><path d="M104.85,13.34a3.46,3.46,0,0,1-1-2.43V3.52a.56.56,0,0,0,.22-.44V2a.56.56,0,0,0-.22-.44V1.24a.76.76,0,0,0-.76-.75H98a.76.76,0,0,0-.76.75v.33A.53.53,0,0,0,97,2V3.08a.53.53,0,0,0,.22.44v7.39a3.47,3.47,0,0,1-1,2.43A9.43,9.43,0,0,0,93.51,20V46.85A1.45,1.45,0,0,0,95,48.3h11.18a1.45,1.45,0,0,0,1.44-1.45V20A9.39,9.39,0,0,0,104.85,13.34ZM97.66,2.06l.17,0v-.8A.14.14,0,0,1,98,1.1h5.14a.15.15,0,0,1,.15.14V2l.16,0a.06.06,0,0,1,.06.06V3a.06.06,0,0,1-.06.06l-.16,0V7.53H97.83V3.05l-.17,0a.06.06,0,0,1,0-.06V2.12A.06.06,0,0,1,97.66,2.06ZM107,46.85a.83.83,0,0,1-.83.84H95a.84.84,0,0,1-.84-.84V39.53H107Zm0-7.93H94.12V28.14H107Zm0-11.38H94.12V20a8.84,8.84,0,0,1,2.55-6.28,4,4,0,0,0,1.16-2.85V8.14h5.44v2.77a4.06,4.06,0,0,0,1.15,2.85A8.8,8.8,0,0,1,107,20Z"/><path d="M106.14,48.79H95A1.94,1.94,0,0,1,93,46.85V20a9.9,9.9,0,0,1,2.87-7,3,3,0,0,0,.84-2.08V3.72a1,1,0,0,1-.22-.64V2a1,1,0,0,1,.22-.64V1.24A1.25,1.25,0,0,1,98,0h5.15a1.24,1.24,0,0,1,1.24,1.24v.13a1.05,1.05,0,0,1,.22.64V3.08a1,1,0,0,1-.22.64v7.19A3,3,0,0,0,105.2,13h0a9.9,9.9,0,0,1,2.87,7V46.85A1.94,1.94,0,0,1,106.14,48.79ZM94.61,40v6.83a.35.35,0,0,0,.35.35h11.18a.34.34,0,0,0,.34-.35V40Zm0-1.59h11.87v-9.8H94.61Zm0-11.38h11.87V20a8.35,8.35,0,0,0-2.41-5.94,4.53,4.53,0,0,1-1.29-3.19V8.63H98.32v2.28A4.5,4.5,0,0,1,97,14.1,8.37,8.37,0,0,0,94.61,20ZM98.32,7h4.46v-4a.5.5,0,0,1,.22-.41V2.45a.49.49,0,0,1-.22-.41V1.58H98.32V2a.5.5,0,0,1-.22.41v.19a.5.5,0,0,1,.22.41Zm-.66-5h0Z"/><path d="M111.32,8.63a.49.49,0,0,1-.48-.49A2.54,2.54,0,0,0,108.3,5.6a.49.49,0,0,1,0-1,2.54,2.54,0,0,0,2.54-2.54.49.49,0,1,1,1,0,2.55,2.55,0,0,0,2.55,2.54.49.49,0,1,1,0,1,2.55,2.55,0,0,0-2.55,2.54A.49.49,0,0,1,111.32,8.63Zm-1.24-3.52a3.51,3.51,0,0,1,1.24,1.24,3.62,3.62,0,0,1,1.25-1.24,3.62,3.62,0,0,1-1.25-1.24A3.51,3.51,0,0,1,110.08,5.11Z"/><path d="M92,10.13a.49.49,0,0,1-.49-.49A1.62,1.62,0,0,0,89.92,8a.49.49,0,0,1,0-1,1.62,1.62,0,0,0,1.61-1.61.49.49,0,0,1,1,0A1.61,1.61,0,0,0,94.12,7a.49.49,0,1,1,0,1,1.62,1.62,0,0,0-1.61,1.62A.49.49,0,0,1,92,10.13Zm-.59-2.6a3,3,0,0,1,.59.59,2.75,2.75,0,0,1,.59-.59A2.5,2.5,0,0,1,92,7,2.7,2.7,0,0,1,91.43,7.53Z"/><path d="M113.84,24.39a.49.49,0,0,1-.49-.49,2.54,2.54,0,0,0-2.54-2.54.49.49,0,0,1,0-1,2.54,2.54,0,0,0,2.54-2.54.49.49,0,1,1,1,0,2.55,2.55,0,0,0,2.55,2.54.49.49,0,0,1,0,1,2.55,2.55,0,0,0-2.55,2.54A.49.49,0,0,1,113.84,24.39Zm-1.24-3.52a3.51,3.51,0,0,1,1.24,1.24,3.62,3.62,0,0,1,1.25-1.24,3.62,3.62,0,0,1-1.25-1.24A3.51,3.51,0,0,1,112.6,20.87Z"/><path d="M97.73,1.1l-.12,6.82s6.27.06,6.27,0-.18-6.09-.18-6.09l-.21-1Z"/></g></g></svg>