<?xml version="1.0" encoding="utf-8"?>
<!-- Generator: Adobe Illustrator 24.2.0, SVG Export Plug-In . SVG Version: 6.00 Build 0)  -->
<svg version="1.1" id="Layer_1" xmlns="http://www.w3.org/2000/svg" xmlns:xlink="http://www.w3.org/1999/xlink" x="0px" y="0px"
	 viewBox="0 0 342.4 113" style="enable-background:new 0 0 342.4 113;" xml:space="preserve">
<style type="text/css">
	.st0{fill:#FFFFFF;}
	.st1{fill:#878787;}
	.st2{fill:#C2996C;}
</style>
<g id="Layer_2_1_">
	<g id="레이어_1">
		<path class="st0" d="M178.6,21.7h-41.5v-6.6H154V6.4h7.7v8.7h16.9V21.7z M157.9,53.5c-2.5,0.1-5-0.3-7.4-1.1
			c-1.9-0.7-3.7-1.7-5.3-3c-1.4-1.2-2.4-2.6-3.2-4.3c-0.7-1.5-1.1-3.2-1.1-4.9v-2.4c0-3.5,1.5-6.9,4.2-9.2c1.6-1.3,3.3-2.3,5.3-3
			c4.8-1.5,10-1.5,14.8,0c1.9,0.7,3.7,1.7,5.3,3c1.4,1.2,2.4,2.6,3.2,4.3c0.7,1.5,1.1,3.2,1.1,4.9v2.4c0,1.7-0.4,3.4-1.1,4.9
			c-0.7,1.6-1.8,3.1-3.2,4.3c-1.5,1.3-3.3,2.4-5.3,3C162.9,53.2,160.4,53.5,157.9,53.5z M157.9,47.3c1.4,0,2.8-0.2,4.2-0.6
			c1.1-0.4,2.1-0.9,3-1.7c0.8-0.7,1.4-1.5,1.8-2.4c0.4-0.9,0.6-1.8,0.6-2.8v-1.6c0-1-0.2-1.9-0.6-2.8c-0.4-0.9-1-1.8-1.8-2.4
			c-0.9-0.8-1.9-1.3-2.9-1.7c-2.7-0.8-5.7-0.8-8.4,0c-1.1,0.4-2.1,0.9-2.9,1.7c-0.8,0.7-1.4,1.5-1.8,2.4c-0.4,0.9-0.6,1.8-0.6,2.8
			v1.6c0,1,0.2,1.9,0.6,2.8c0.4,0.9,1,1.8,1.8,2.4c0.9,0.8,1.9,1.3,3,1.7C155.1,47.1,156.5,47.3,157.9,47.3L157.9,47.3z M156.9,71.9
			h38.4v6.7h-46.1v-20h7.8V71.9z M203.6,35.4h-10.3v24.2h-7.7V7.1h7.7v21.5h10.3V35.4z"/>
		<path class="st0" d="M207.6,57.3c4.2-2.5,7.7-4.6,10.6-6.6c2.5-1.6,4.9-3.4,7.2-5.2c1.7-1.3,3.2-2.8,4.5-4.4
			c1-1.3,1.8-2.7,2.4-4.2c0.5-1.4,0.8-2.9,1-4.4c0.1-1.5,0.2-3.2,0.2-5.1v-7H209v-6.7h32.3v13.7c0,2.4-0.1,4.6-0.2,6.4
			c-0.1,1.8-0.5,3.6-1.1,5.4c-0.7,1.8-1.6,3.5-2.7,5c-1.5,1.9-3.2,3.7-5.1,5.3c-2.7,2.2-5.4,4.3-8.3,6.2c-3.3,2.3-7.4,4.8-12.1,7.7
			L207.6,57.3z M273.9,40.6h-11.1v38.8H255V7.1h7.8v26.8h11.1V40.6z"/>
		<path class="st0" d="M309.1,8c3.3,0,6.5,0.3,9.7,1.1c2.6,0.6,5.1,1.7,7.3,3.1c1.9,1.1,3.4,2.7,4.6,4.6c1,1.7,1.6,3.6,1.6,5.5v2.4
			c0,1.8-0.4,3.5-1.3,5.1c-0.9,1.7-2.2,3.1-3.8,4.3c-1.8,1.4-3.9,2.4-6.1,3.1c-2.6,0.9-5.4,1.4-8.2,1.6v6.7h29.3V52h-66.4v-6.6h29.3
			v-6.7c-2.8-0.2-5.5-0.8-8.2-1.6c-2.2-0.7-4.2-1.8-6.1-3.1c-1.5-1.1-2.8-2.6-3.8-4.3c-0.9-1.6-1.3-3.3-1.3-5.1v-2.4
			c0-2,0.5-3.9,1.6-5.5c1.2-1.9,2.7-3.4,4.6-4.6c2.3-1.4,4.7-2.4,7.3-3.1C302.6,8.3,305.8,7.9,309.1,8z M293.3,71.9h40.9v6.7h-48.7
			V57.3h7.8L293.3,71.9z M309.1,32.5c2.2,0,4.4-0.2,6.5-0.7c1.7-0.4,3.4-1,4.9-1.8c1.2-0.6,2.3-1.5,3.1-2.6c0.7-0.9,1.1-1.9,1.1-3.1
			v-1.7c0-1.1-0.4-2.2-1.1-3.1c-0.8-1.1-1.9-2-3.1-2.6c-1.5-0.8-3.2-1.4-4.9-1.8c-4.3-0.9-8.7-0.9-13,0c-1.7,0.4-3.4,1-4.9,1.8
			c-1.2,0.6-2.3,1.5-3.1,2.6c-0.7,0.9-1.1,1.9-1.1,3.1v1.7c0,1.1,0.4,2.2,1.1,3.1c0.8,1.1,1.9,2,3.1,2.6c1.5,0.8,3.2,1.4,4.9,1.8
			C304.7,32.3,306.9,32.5,309.1,32.5z"/>
		<path class="st1" d="M137,102.6c0.8,0,1-0.1,1-0.3v-7.1c0-0.3-0.2-0.3-0.8-0.3c-0.1,0-0.2,0-0.2-0.1c0-0.2,0-0.4,0.1-0.6h2.9
			c0.2,0.2,0.2,0.5,0.1,0.7c-0.8,0-0.9,0-0.9,0.3v3h4.9v-3c0-0.3-0.1-0.3-0.8-0.3c-0.1,0-0.2,0-0.2-0.1c0-0.2,0-0.4,0.1-0.6h2.9
			c0.1,0.2,0.2,0.5,0.1,0.7c-0.7,0-0.9,0.1-0.9,0.3v7.1c0,0.3,0.2,0.3,0.9,0.3c0.1,0,0.2,0,0.2,0.1c0,0.2,0,0.4-0.1,0.6h-2.9
			c-0.1-0.2-0.2-0.5-0.1-0.8c0.6,0,0.8-0.1,0.8-0.3V99h-4.9v3.2c0,0.3,0.2,0.3,0.7,0.3c0.1,0,0.2,0,0.2,0.1c0,0.2,0,0.4-0.1,0.6
			h-2.9C137,103.1,137,102.8,137,102.6z"/>
		<path class="st1" d="M147.5,101.7c0-1.3,1-2.2,2.7-2.2h1.5v-0.4c0-1.3-0.4-1.8-1.5-1.8c-0.4,0-0.8,0.1-1.2,0.3
			c-0.2,0.3-0.3,0.6-0.3,1h-0.5c-0.2,0-0.4-0.1-0.4-0.2v-1.1c0.7-0.6,1.5-0.9,2.4-0.9c1.2-0.1,2.4,0.8,2.5,2c0,0.1,0,0.3,0,0.4v3.4
			c0,0.1,0,0.2,0.1,0.3h0.8c0.1,0.2,0.1,0.3,0.1,0.5c-0.4,0.2-0.9,0.3-1.3,0.3c-0.4,0-0.6-0.4-0.8-0.7c-0.6,0.5-1.4,0.7-2.2,0.7
			C148,103.5,147.5,102.6,147.5,101.7z M151.6,101.8v-1.5h-1.4c-1,0-1.6,0.4-1.6,1.2c0,0.7,0.4,1,1.1,1
			C150.4,102.6,151.1,102.3,151.6,101.8L151.6,101.8z"/>
		<path class="st1" d="M154.3,102.6c0.8,0,1,0,1-0.3v-4.5c0-0.3-0.1-0.3-0.2-0.3h-0.8c0-0.1-0.1-0.3-0.1-0.4c0-0.1,0.1-0.2,0.2-0.2
			c0.5-0.2,1-0.3,1.5-0.3c0.4,0,0.5,0.2,0.5,0.4v0.6c0.5-0.6,1.3-1,2.1-1.1c1.2,0,2.2,0.9,2.2,2.1c0,0.1,0,0.2,0,0.3v3.4
			c0,0.3,0.1,0.3,0.7,0.3c0.1,0,0.2,0.1,0.2,0.1c0,0.2,0,0.4-0.1,0.6h-2.8c-0.1-0.2-0.2-0.5-0.1-0.7c0.8,0,0.9,0,0.9-0.3v-3
			c0-1.3-0.4-1.8-1.3-1.8c-0.7,0.1-1.4,0.5-1.8,1.1v3.7c0,0.3,0.1,0.3,0.7,0.3c0.1,0,0.2,0.1,0.2,0.1c0,0.2,0,0.4-0.1,0.6h-2.8
			C154.2,103.1,154.2,102.9,154.3,102.6z"/>
		<path class="st1" d="M162.3,104.7c0-0.7,0.5-1.4,1.2-1.7c-0.3-0.2-0.5-0.5-0.6-0.9c0-0.5,0.3-1,0.8-1.2c-0.7-0.4-1.1-1.2-1.1-2
			c0-1.3,1.1-2.4,2.4-2.4c0.1,0,0.2,0,0.3,0c0.5,0,0.9,0.1,1.3,0.3l2.1-0.3c0.1,0,0.2,0.1,0.2,0.1c0,0.3-0.1,0.6-0.1,0.8h-1.3
			c0.4,0.4,0.5,0.9,0.5,1.4c0.1,1.3-0.9,2.4-2.2,2.4c-0.1,0-0.3,0-0.4,0c-0.3,0-0.6,0-0.9-0.1c-0.3,0.2-0.5,0.3-0.5,0.6
			c0,0.5,0.5,0.7,1.8,0.7c2.1,0,2.8,0.7,2.8,1.9c0,1.3-1.3,2.2-3.3,2.2C163.4,106.6,162.3,105.8,162.3,104.7z M167.5,104.5
			c0-0.7-0.4-1-2-1c-0.4,0-0.9,0-1.3-0.1c-0.5,0.2-0.8,0.7-0.8,1.2c0,0.7,0.7,1.2,2,1.2C166.8,105.7,167.5,105.3,167.5,104.5z
			 M166.9,98.8c0.1-0.8-0.5-1.5-1.2-1.6c-0.1,0-0.2,0-0.3,0c-0.9,0-1.6,0.7-1.7,1.5s0.7,1.6,1.5,1.7
			C166.1,100.5,166.8,99.8,166.9,98.8C166.9,98.9,166.9,98.9,166.9,98.8z"/>
		<path class="st1" d="M169.7,101.7c0-1.3,1-2.2,2.7-2.2h1.5v-0.4c0-1.3-0.4-1.8-1.5-1.8c-0.4,0-0.8,0.1-1.2,0.3
			c-0.2,0.3-0.3,0.6-0.3,1h-0.5c-0.2,0-0.4-0.1-0.4-0.2v-1.1c0.7-0.6,1.5-0.9,2.4-0.9c1.2-0.1,2.4,0.8,2.5,2c0,0.1,0,0.3,0,0.4v3.4
			c0,0.1,0,0.2,0.1,0.3h0.8c0.1,0.2,0.1,0.3,0.1,0.5c-0.4,0.2-0.9,0.3-1.3,0.3c-0.4,0-0.6-0.4-0.8-0.7c-0.6,0.5-1.4,0.7-2.2,0.7
			C170.2,103.5,169.7,102.6,169.7,101.7z M173.8,101.8v-1.5h-1.4c-1,0-1.6,0.4-1.6,1.2c0,0.7,0.4,1,1.1,1
			C172.6,102.6,173.3,102.3,173.8,101.8L173.8,101.8z"/>
		<path class="st1" d="M176.6,100c0.1-1.8,1.7-3.2,3.5-3.1s3.2,1.7,3.1,3.5c-0.1,1.7-1.6,3.1-3.3,3.1c-1.8,0.1-3.2-1.3-3.3-3
			C176.6,100.3,176.6,100.1,176.6,100z M182.1,100c0-1.6-0.9-2.6-2.1-2.6c-1.3,0-2.1,1-2.1,2.6c0,1.6,0.9,2.6,2.1,2.6
			C181.2,102.6,182.1,101.6,182.1,100z"/>
		<path class="st1" d="M184.3,102.6c0.8,0,1,0,1-0.3v-4.5c0-0.3-0.1-0.3-0.2-0.3h-0.8c0-0.1-0.1-0.3-0.1-0.4c0-0.1,0.1-0.2,0.2-0.2
			c0.5-0.2,1-0.3,1.5-0.3c0.4,0,0.5,0.2,0.5,0.4v0.6c0.5-0.6,1.3-1,2.1-1.1c1.2,0,2.2,0.9,2.2,2.1c0,0.1,0,0.2,0,0.3v3.4
			c0,0.3,0.1,0.3,0.7,0.3c0.1,0,0.2,0.1,0.2,0.1c0,0.2,0,0.4-0.1,0.6h-2.8c-0.1-0.2-0.2-0.5-0.1-0.7c0.8,0,0.9,0,0.9-0.3v-3
			c0-1.3-0.4-1.8-1.3-1.8c-0.7,0.1-1.4,0.5-1.8,1.1v3.7c0,0.3,0.1,0.3,0.7,0.3c0.1,0,0.2,0.1,0.2,0.1c0,0.2,0,0.4-0.1,0.6h-2.8
			C184.2,103.1,184.2,102.9,184.3,102.6z"/>
		<path class="st1" d="M205.3,102.7c0,0.2,0,0.4-0.1,0.6h-3c-0.1-0.2-0.2-0.5-0.1-0.7c0.7,0,0.9-0.1,0.8-0.3l-2.9-3.6l-1.1,0.9v2.7
			c0,0.3,0.2,0.3,0.7,0.3c0.1,0,0.2,0,0.2,0.1c0,0.2,0,0.4-0.1,0.6h-2.9c-0.2-0.2-0.2-0.5-0.1-0.8c0.8,0,1-0.1,1-0.3v-7.1
			c0-0.3-0.2-0.3-0.8-0.3c-0.1,0-0.2,0-0.2-0.1c0-0.2,0-0.4,0.1-0.6h2.9c0.2,0.2,0.2,0.5,0.1,0.7c-0.8,0-0.9,0-0.9,0.3v3.2l3.8-3.3
			c0.2-0.2,0.1-0.2-0.6-0.2c-0.1,0-0.2,0-0.2-0.1c0-0.2,0-0.4,0.1-0.6h2.8c0.1,0.2,0.2,0.5,0.1,0.7c-0.6,0-0.7,0.1-0.9,0.2l-3.2,2.8
			l3.4,4.4c0.2,0.2,0.2,0.3,0.9,0.3C205.2,102.6,205.3,102.6,205.3,102.7z"/>
		<path class="st1" d="M205.8,100c0.1-1.8,1.7-3.2,3.5-3.1c1.8,0.1,3.2,1.7,3.1,3.5c-0.1,1.7-1.6,3.1-3.3,3.1
			c-1.8,0.1-3.2-1.3-3.3-3C205.7,100.3,205.7,100.1,205.8,100z M211.2,100c0-1.6-0.9-2.6-2.1-2.6c-1.3,0-2.1,1-2.1,2.6
			c0,1.6,0.9,2.6,2.1,2.6C210.3,102.6,211.2,101.6,211.2,100L211.2,100z"/>
		<path class="st1" d="M213.4,102.6c0.8,0,1,0,1-0.3v-4.5c0-0.3-0.1-0.3-0.2-0.3h-0.8c0-0.1-0.1-0.3-0.1-0.4c0-0.1,0.1-0.2,0.2-0.2
			c0.5-0.2,1-0.3,1.5-0.3c0.4,0,0.5,0.2,0.5,0.4v0.8c0.3-0.7,1-1.2,1.8-1.2c0.4,0,0.9,0.1,1.2,0.4v1.5c0,0.1-0.1,0.2-0.3,0.2h-0.5
			c0-0.3,0-0.6-0.1-0.9c-0.1-0.1-0.3-0.2-0.5-0.2c-0.3,0-1.1,0.4-1.4,1.7v3.2c0,0.3,0.1,0.3,0.9,0.3c0.1,0,0.2,0,0.2,0.1
			c0,0.2,0,0.4-0.1,0.6h-3C213.4,103.1,213.3,102.9,213.4,102.6z"/>
		<path class="st1" d="M219.2,99.9c-0.2-1.7,1.1-3.2,2.8-3.4c0.1,0,0.2,0,0.3,0c1.9,0,3,1.2,3,3.3c0,0.2-0.2,0.5-0.4,0.5
			c0,0,0,0-0.1,0h-4.5c0,1.5,0.7,2.4,2.1,2.4c0.8,0,1.6-0.3,2.1-1l0.4,0.5c0.1,0.1,0.1,0.3-0.1,0.5c-0.7,0.6-1.6,0.9-2.5,0.9
			C220.3,103.5,219.2,102.2,219.2,99.9z M224.2,99.4c0.1-1-0.6-1.9-1.5-2c-0.1,0-0.2,0-0.3,0c-1,0-1.9,0.8-1.9,1.9c0,0,0,0.1,0,0.1
			H224.2z"/>
		<path class="st1" d="M226.4,101.7c0-1.3,1-2.2,2.7-2.2h1.5v-0.4c0-1.3-0.4-1.8-1.5-1.8c-0.4,0-0.8,0.1-1.2,0.3
			c-0.2,0.3-0.3,0.6-0.3,1h-0.5c-0.2,0-0.4-0.1-0.4-0.2v-1.1c0.7-0.6,1.5-0.9,2.4-0.9c1.2-0.1,2.4,0.8,2.5,2c0,0.1,0,0.3,0,0.4v3.4
			c0,0.1,0,0.2,0.1,0.3h0.8c0.1,0.2,0.1,0.3,0.1,0.5c-0.4,0.2-0.9,0.3-1.3,0.3c-0.4,0-0.6-0.4-0.8-0.7c-0.6,0.5-1.4,0.7-2.2,0.7
			C226.9,103.5,226.4,102.6,226.4,101.7z M230.5,101.8v-1.5h-1.4c-1,0-1.6,0.4-1.6,1.2c0,0.7,0.4,1,1.1,1
			C229.3,102.6,230,102.3,230.5,101.8L230.5,101.8z"/>
		<path class="st1" d="M233.2,102.6c0.8,0,1,0,1-0.3v-4.5c0-0.3-0.1-0.3-0.2-0.3h-0.8c0-0.1-0.1-0.3-0.1-0.4c0-0.1,0.1-0.2,0.2-0.2
			c0.5-0.2,1-0.3,1.5-0.3c0.4,0,0.5,0.2,0.5,0.4v0.6c0.5-0.6,1.3-1,2.1-1.1c1.2,0,2.2,0.9,2.2,2.1c0,0.1,0,0.2,0,0.3v3.4
			c0,0.3,0.1,0.3,0.7,0.3c0.1,0,0.2,0.1,0.2,0.1c0,0.2,0,0.4-0.1,0.6h-2.8c-0.1-0.2-0.2-0.5-0.1-0.7c0.8,0,0.9,0,0.9-0.3v-3
			c0-1.3-0.4-1.8-1.3-1.8c-0.7,0.1-1.4,0.5-1.8,1.1v3.7c0,0.3,0.1,0.3,0.7,0.3c0.1,0,0.2,0.1,0.2,0.1c0,0.2,0,0.4-0.1,0.6h-2.8
			C233.1,103.1,233.1,102.9,233.2,102.6z"/>
		<path class="st1" d="M245.5,102.6c0.8,0,1-0.1,1-0.3v-7.1c0-0.3-0.2-0.3-0.8-0.3c-0.1,0-0.2,0-0.2-0.1c0-0.2,0-0.4,0.1-0.6h2.3
			l3.2,8.1l3.2-8.1h2.2c0.1,0.2,0.2,0.5,0.1,0.7c-0.7,0-0.9,0.1-0.9,0.3v7.1c0,0.3,0.2,0.3,0.9,0.3c0.1,0,0.2,0,0.2,0.1
			c0,0.2,0,0.4-0.1,0.6H254c-0.1-0.2-0.2-0.5-0.1-0.8c0.6,0,0.8-0.1,0.8-0.3V96l-2.9,7.3h-1c-0.1,0-0.2,0-0.2-0.1l-2.8-7.1v6.1
			c0,0.3,0.2,0.3,0.6,0.3c0.1,0,0.2,0,0.2,0.1c0,0.2,0,0.4-0.1,0.6h-2.7C245.5,103.1,245.4,102.8,245.5,102.6z"/>
		<path class="st1" d="M257.9,99.9c-0.2-1.7,1.1-3.2,2.8-3.4c0.1,0,0.2,0,0.3,0c1.9,0,3,1.2,3,3.3c0,0.2-0.2,0.5-0.4,0.5
			c0,0,0,0-0.1,0H259c0,1.5,0.7,2.4,2.1,2.4c0.8,0,1.6-0.3,2.1-1l0.4,0.5c0.1,0.1,0.1,0.3-0.1,0.5c-0.7,0.6-1.6,0.9-2.5,0.9
			C259,103.5,257.9,102.2,257.9,99.9z M262.8,99.4c0.1-1-0.6-1.9-1.5-2c-0.1,0-0.2,0-0.3,0c-1,0-1.9,0.8-1.9,1.9c0,0,0,0.1,0,0.1
			H262.8z"/>
		<path class="st1" d="M265,100.1c0-2.4,1.2-3.7,3.2-3.7c0.5,0,1.1,0.1,1.5,0.4v-2.2c0-0.3-0.1-0.3-0.2-0.3h-0.8
			c0-0.1-0.1-0.3-0.1-0.4c0-0.1,0.1-0.2,0.2-0.2c0.5-0.2,1-0.3,1.5-0.3c0.4,0,0.5,0.2,0.5,0.4v8c0,0.2,0,0.5,0.1,0.7h0.7
			c0.1,0.2,0.1,0.4,0.1,0.6c-0.4,0.2-0.8,0.4-1.2,0.3c-0.2,0-0.6-0.5-0.7-0.9c-0.5,0.6-1.3,0.9-2,1C266.1,103.5,265,102.4,265,100.1
			z M269.7,101.5v-3.6c-0.4-0.4-1-0.5-1.6-0.5c-1.2,0-2,0.9-2,2.7c0,1.6,0.7,2.4,1.8,2.4C268.6,102.5,269.3,102.1,269.7,101.5z"/>
		<path class="st1" d="M272.5,102.6c0.8,0,1,0,1-0.3V98c0-0.3-0.1-0.3-0.2-0.3h-0.8c0-0.1-0.1-0.3-0.1-0.4c0-0.1,0.1-0.2,0.2-0.2
			c0.5-0.2,1-0.3,1.5-0.3c0.4,0,0.5,0.2,0.5,0.4v5.2c0,0.3,0.1,0.3,0.7,0.3c0.1,0,0.2,0.1,0.2,0.1c0,0.2,0,0.4-0.1,0.6h-2.8
			C272.5,103.1,272.5,102.9,272.5,102.6z M273.2,94.4c0-0.4,0.4-0.8,0.8-0.8c0.4,0,0.8,0.4,0.8,0.8s-0.4,0.8-0.8,0.8c0,0,0,0,0,0
			C273.6,95.3,273.2,94.9,273.2,94.4C273.2,94.5,273.2,94.5,273.2,94.4L273.2,94.4z"/>
		<path class="st1" d="M276.6,99.9c-0.2-1.7,1.1-3.3,2.8-3.4c0.1,0,0.2,0,0.4,0c0.9,0,1.8,0.2,2.5,0.8v1.5c0,0.1-0.1,0.2-0.3,0.2
			h-0.6c0-0.4,0-0.8-0.2-1.1c-0.4-0.3-0.9-0.4-1.3-0.4c-1.1,0-2,0.9-2,2.5c0,1.8,0.7,2.7,2.2,2.7c0.8,0,1.5-0.3,2-0.9l0.4,0.5
			c0.1,0.2,0.1,0.3-0.1,0.5c-0.7,0.6-1.5,1-2.4,0.9C277.7,103.5,276.6,102.3,276.6,99.9z"/>
		<path class="st1" d="M283.5,102.6c0.8,0,1,0,1-0.3V98c0-0.3-0.1-0.3-0.2-0.3h-0.8c0-0.1-0.1-0.3-0.1-0.4c0-0.1,0.1-0.2,0.2-0.2
			c0.5-0.2,1-0.3,1.5-0.3c0.4,0,0.5,0.2,0.5,0.4v5.2c0,0.3,0.1,0.3,0.7,0.3c0.1,0,0.2,0.1,0.2,0.1c0,0.2,0,0.4-0.1,0.6h-2.8
			C283.5,103.1,283.4,102.9,283.5,102.6z M284.2,94.4c0-0.4,0.4-0.8,0.8-0.8c0.4,0,0.8,0.4,0.8,0.8c0,0.4-0.4,0.8-0.8,0.8
			c0,0,0,0,0,0C284.5,95.3,284.2,94.9,284.2,94.4C284.2,94.5,284.2,94.5,284.2,94.4L284.2,94.4z"/>
		<path class="st1" d="M287.6,102.6c0.8,0,1,0,1-0.3v-4.5c0-0.3-0.1-0.3-0.2-0.3h-0.8c0-0.1-0.1-0.3-0.1-0.4c0-0.1,0.1-0.2,0.2-0.2
			c0.5-0.2,1-0.3,1.5-0.3c0.4,0,0.5,0.2,0.5,0.4v0.6c0.5-0.6,1.3-1,2.1-1.1c1.2,0,2.2,0.9,2.2,2.1c0,0.1,0,0.2,0,0.3v3.4
			c0,0.3,0.1,0.3,0.7,0.3c0.1,0,0.2,0.1,0.2,0.1c0,0.2,0,0.4-0.1,0.6H292c-0.1-0.2-0.2-0.5-0.1-0.7c0.8,0,0.9,0,0.9-0.3v-3
			c0-1.3-0.4-1.8-1.3-1.8c-0.7,0.1-1.4,0.5-1.8,1.1v3.7c0,0.3,0.1,0.3,0.7,0.3c0.1,0,0.2,0.1,0.2,0.1c0,0.2,0,0.4-0.1,0.6h-2.8
			C287.5,103.1,287.5,102.9,287.6,102.6z"/>
		<path class="st1" d="M295.8,99.9c-0.2-1.7,1.1-3.2,2.8-3.4c0.1,0,0.2,0,0.3,0c1.9,0,3,1.2,3,3.3c0,0.2-0.2,0.5-0.4,0.5
			c0,0,0,0-0.1,0h-4.5c0,1.5,0.7,2.4,2.1,2.4c0.8,0,1.6-0.3,2.1-1l0.4,0.5c0.1,0.1,0.1,0.3-0.1,0.5c-0.7,0.6-1.6,0.9-2.5,0.9
			C296.9,103.5,295.8,102.2,295.8,99.9z M300.7,99.4c0.1-1-0.6-1.9-1.5-2c-0.1,0-0.2,0-0.3,0c-1,0-1.9,0.8-1.9,1.9c0,0,0,0.1,0,0.1
			H300.7z"/>
		<path class="st1" d="M307,98.6c-0.1-2.4,1.7-4.5,4.2-4.7c0.1,0,0.3,0,0.4,0c1.2,0,2.3,0.4,3.2,1.2v1.6c0,0.1-0.1,0.2-0.3,0.2h-0.7
			c0.1-0.5,0-0.9-0.2-1.4c-0.6-0.5-1.3-0.7-2-0.7c-2.2,0-3.4,1.6-3.4,3.7c0,2.3,1.2,4,3.4,4c1.1,0,2.1-0.4,2.8-1.2l0.5,0.6
			c0.1,0.1,0.1,0.3-0.1,0.5c-0.9,0.8-2,1.2-3.2,1.2C308.7,103.6,307,101.6,307,98.6z"/>
		<path class="st1" d="M316,102.6c0.8,0,1,0,1-0.3v-7.6c0-0.3-0.1-0.3-0.2-0.3H316c0-0.1-0.1-0.3-0.1-0.4c0-0.1,0.1-0.2,0.2-0.2
			c0.5-0.2,1-0.3,1.5-0.3c0.4,0,0.5,0.2,0.5,0.4v8.5c0,0.3,0.1,0.3,0.7,0.3c0.1,0,0.2,0.1,0.2,0.1c0,0.2,0,0.4-0.1,0.6h-2.8
			C316,103.1,315.9,102.9,316,102.6z"/>
		<path class="st1" d="M320.1,102.6c0.8,0,1,0,1-0.3V98c0-0.3-0.1-0.3-0.2-0.3h-0.8c0-0.1-0.1-0.3-0.1-0.4c0-0.1,0.1-0.2,0.2-0.2
			c0.5-0.2,1-0.3,1.5-0.3c0.4,0,0.5,0.2,0.5,0.4v5.2c0,0.3,0.1,0.3,0.7,0.3c0.1,0,0.2,0.1,0.2,0.1c0,0.2,0,0.4-0.1,0.6h-2.8
			C320,103.1,320,102.9,320.1,102.6z M320.7,94.4c0-0.4,0.4-0.8,0.8-0.8s0.8,0.4,0.8,0.8c0,0.4-0.4,0.8-0.8,0.8c0,0,0,0,0,0
			C321.1,95.3,320.7,94.9,320.7,94.4C320.7,94.5,320.7,94.5,320.7,94.4z"/>
		<path class="st1" d="M324.1,102.6c0.8,0,1,0,1-0.3v-4.5c0-0.3-0.1-0.3-0.2-0.3h-0.8c0-0.1-0.1-0.3-0.1-0.4c0-0.1,0.1-0.2,0.2-0.2
			c0.5-0.2,1-0.3,1.5-0.3c0.4,0,0.5,0.2,0.5,0.4v0.6c0.5-0.6,1.3-1,2.1-1.1c1.2,0,2.2,0.9,2.2,2.1c0,0.1,0,0.2,0,0.3v3.4
			c0,0.3,0.1,0.3,0.7,0.3c0.1,0,0.2,0.1,0.2,0.1c0,0.2,0,0.4-0.1,0.6h-2.8c-0.1-0.2-0.2-0.5-0.1-0.7c0.8,0,0.9,0,0.9-0.3v-3
			c0-1.3-0.4-1.8-1.3-1.8c-0.7,0.1-1.4,0.5-1.8,1.1v3.7c0,0.3,0.1,0.3,0.7,0.3c0.1,0,0.2,0.1,0.2,0.1c0,0.2,0,0.4-0.1,0.6h-2.8
			C324.1,103.1,324,102.9,324.1,102.6z"/>
		<path class="st1" d="M332.5,102.6c0.8,0,1,0,1-0.3V98c0-0.3-0.1-0.3-0.2-0.3h-0.8c0-0.1-0.1-0.3-0.1-0.4c0-0.1,0.1-0.2,0.2-0.2
			c0.5-0.2,1-0.3,1.5-0.3c0.4,0,0.5,0.2,0.5,0.4v5.2c0,0.3,0.1,0.3,0.7,0.3c0.1,0,0.2,0.1,0.2,0.1c0,0.2,0,0.4-0.1,0.6h-2.8
			C332.4,103.1,332.4,102.9,332.5,102.6z M333.1,94.4c0-0.4,0.4-0.8,0.8-0.8s0.8,0.4,0.8,0.8c0,0.4-0.4,0.8-0.8,0.8c0,0,0,0,0,0
			C333.5,95.3,333.1,94.9,333.1,94.4C333.1,94.5,333.1,94.5,333.1,94.4z"/>
		<path class="st1" d="M336.5,99.9c-0.2-1.7,1.1-3.3,2.8-3.4c0.1,0,0.2,0,0.4,0c0.9,0,1.8,0.2,2.5,0.8v1.5c0,0.1-0.1,0.2-0.3,0.2
			h-0.6c0-0.4,0-0.8-0.2-1.1c-0.4-0.3-0.9-0.4-1.3-0.4c-1.1,0-2,0.9-2,2.5c0,1.8,0.7,2.7,2.2,2.7c0.8,0,1.5-0.3,2-0.9l0.4,0.5
			c0.1,0.2,0.1,0.3-0.1,0.5c-0.7,0.6-1.5,1-2.4,0.9C337.7,103.5,336.5,102.3,336.5,99.9z"/>
		<path class="st2" d="M39.2,22.7c-1.1,0-2.1-0.9-2.1-2.1V2.7c0-1.1,0.9-2.1,2.1-2.1s2.1,0.9,2.1,2.1v17.9
			C41.3,21.8,40.4,22.7,39.2,22.7z"/>
		<path class="st2" d="M108.4,22.7H4.6c-1.1,0-2.1-0.9-2.1-2.1c0-1.1,0.9-2.1,2.1-2.1h103.8c1.1,0,2.1,0.9,2.1,2.1
			C110.4,21.8,109.5,22.7,108.4,22.7z"/>
		<path class="st2" d="M76.4,86.7c-1.1,0-2.1-0.9-2.1-2.1V74.5c0-1.1,0.9-2.1,2.1-2.1c1.1,0,2.1,0.9,2.1,2.1v10.2
			C78.4,85.8,77.5,86.7,76.4,86.7z"/>
		<path class="st2" d="M108.4,86.7H3.4c-1.1,0-2.1-0.9-2.1-2s0.9-2.1,2-2.1c0,0,0,0,0,0h105c1.1,0,2.1,0.9,2.1,2
			C110.4,85.8,109.5,86.7,108.4,86.7C108.4,86.7,108.4,86.7,108.4,86.7z"/>
		<path class="st2" d="M109.7,39.4H74.5c-1.1,0-2.1-0.9-2.1-2.1V2.7c0-1.1,0.9-2.1,2.1-2.1c1.1,0,2.1,0.9,2.1,2.1c0,0,0,0,0,0v32.5
			h33.1c1.1,0,2.1,0.9,2.1,2.1C111.7,38.4,110.8,39.4,109.7,39.4z"/>
		<path class="st2" d="M54,43.3H24.5c-4.3,0-7.8-3.5-7.8-7.8c0-4.3,3.5-7.8,7.8-7.8c0,0,0,0,0,0H54c4.3,0,7.8,3.5,7.8,7.8
			S58.3,43.3,54,43.3C54,43.3,54,43.3,54,43.3z M24.5,31.8c-2,0-3.7,1.7-3.7,3.7c0,2,1.7,3.7,3.7,3.7c0,0,0,0,0,0H54
			c2,0,3.7-1.7,3.7-3.7c0-2-1.7-3.7-3.7-3.7c0,0,0,0,0,0L24.5,31.8z"/>
		<path class="st2" d="M92.4,75.2H62.9c-4.3,0-7.8-3.5-7.8-7.8s3.5-7.8,7.8-7.8c0,0,0,0,0,0h29.5c4.3,0,7.8,3.5,7.8,7.8
			C100.2,71.7,96.7,75.2,92.4,75.2z M62.9,63.7c-2,0-3.7,1.7-3.7,3.7c0,2,1.7,3.7,3.7,3.7c0,0,0,0,0,0h29.5c2,0,3.7-1.7,3.7-3.7
			c0-2-1.7-3.7-3.7-3.7H62.9z"/>
		<path class="st2" d="M109.7,54.7H52c-1.1,0-2.1-0.9-2.1-2.1V41.2c0-1.1,0.9-2.1,2.1-2.1c1.1,0,2.1,0.9,2.1,2.1c0,0,0,0,0,0v9.4
			h55.6c1.1,0,2.1,0.9,2.1,2.1S110.8,54.7,109.7,54.7z"/>
		<path class="st2" d="M99.5,102.1H52c-1.1,0-2.1-0.9-2.1-2.1V87c0-1.1,0.9-2.1,2.1-2.1c1.1,0,2.1,0.9,2.1,2.1v11h45.4
			c1.1,0,2.1,0.9,2.1,2C101.6,101.2,100.7,102.1,99.5,102.1C99.5,102.1,99.5,102.1,99.5,102.1z"/>
		<path class="st2" d="M27.7,111.1c-1.1,0-2.1-0.9-2.1-2.1V54.5h-21c-1.1,0-2.1-0.9-2.1-2.1s0.9-2.1,2.1-2.1h23.1
			c1.1,0,2.1,0.9,2.1,2.1V109C29.8,110.2,28.8,111.1,27.7,111.1z"/>
		<path class="st2" d="M40.5,112.4c-1.1,0-2.1-0.9-2.1-2.1V68c0-1.1,0.9-2.1,2.1-2.1h16.6c1.1,0,2.1,0.9,2.1,2.1
			c0,1.1-0.9,2.1-2.1,2.1l0,0H42.6v40.2C42.6,111.4,41.7,112.4,40.5,112.4z"/>
		<path class="st2" d="M88.2,113H24.8c-6.6,0-12.3-4.6-13.8-11c-6.4-1.5-11-7.2-11-13.8V24.8C0,18.2,4.6,12.5,11,11
			c1.5-6.4,7.2-11,13.8-11h63.4c6.6,0,12.3,4.6,13.8,11c6.4,1.5,11,7.2,11,13.8v63.4c0,6.6-4.6,12.3-11,13.8
			C100.5,108.5,94.8,113,88.2,113z M16.1,13.4c0,1.4-1.1,2.6-2.5,2.7c-4.5,0.4-8.1,4.1-8.1,8.7v63.4c0,4.6,3.5,8.4,8.1,8.7
			c1.4,0.1,2.4,1.2,2.5,2.5c0.3,4.6,4.1,8.1,8.7,8.1h63.4c4.6,0,8.4-3.5,8.7-8.1c0.1-1.4,1.2-2.4,2.5-2.5c4.6-0.3,8.1-4.1,8.1-8.7
			V24.8c0-4.6-3.5-8.4-8.1-8.7c-1.4-0.1-2.5-1.3-2.5-2.7c0-0.1-0.1-0.3-0.1-0.4c-0.6-4.3-4.3-7.5-8.7-7.5H24.8c-4.4,0-8,3.2-8.7,7.5
			C16.2,13.2,16.1,13.3,16.1,13.4z"/>
	</g>
</g>
</svg>
