<svg xmlns="http://www.w3.org/2000/svg" viewBox="0 0 342.37614 113.0444"><defs><style>.cls-1{fill:#1b1b1b;}.cls-2{fill:#666;}.cls-3{fill:#c2996c;}</style></defs><g id="Layer_2" data-name="Layer 2"><g id="레이어_1" data-name="레이어 1"><path class="cls-1" d="M178.6051,21.71363H137.09326v-6.5921h16.94927V6.41173h7.69122v8.7098H178.6051ZM157.88814,53.497a21.63467,21.63467,0,0,1-7.37676-1.13933,15.9724,15.9724,0,0,1-5.2567-3.02062,12.42531,12.42531,0,0,1-3.179-4.27572,11.9992,11.9992,0,0,1-1.05891-4.90688v-2.3541a12.06152,12.06152,0,0,1,4.23788-9.22046,16.46789,16.46789,0,0,1,5.2567-2.98053,24.45329,24.45329,0,0,1,14.75352,0,16.03721,16.03721,0,0,1,5.25671,3.02074,12.424,12.424,0,0,1,3.179,4.27573,12.00443,12.00443,0,0,1,1.05891,4.90452v2.3541a11.99936,11.99936,0,0,1-1.05891,4.90688,12.42392,12.42392,0,0,1-3.179,4.27572,15.99545,15.99545,0,0,1-5.25671,3.02062A21.64419,21.64419,0,0,1,157.88814,53.497Zm0-6.19971a12.5943,12.5943,0,0,0,4.16-.6288,8.64321,8.64321,0,0,0,2.98054-1.68758,6.8857,6.8857,0,0,0,1.76551-2.43215,7.00888,7.00888,0,0,0,.58859-2.7867V38.19259a7.00613,7.00613,0,0,0-.58859-2.78422,6.90462,6.90462,0,0,0-1.76551-2.43216,8.68335,8.68335,0,0,0-2.94269-1.6877,14.32923,14.32923,0,0,0-8.39559,0,8.68325,8.68325,0,0,0-2.94269,1.6877,6.90437,6.90437,0,0,0-1.76551,2.43216,7.00613,7.00613,0,0,0-.58859,2.78422V39.762a7.00888,7.00888,0,0,0,.58859,2.7867,6.88545,6.88545,0,0,0,1.76551,2.43215,8.62121,8.62121,0,0,0,2.98054,1.68758A12.58439,12.58439,0,0,0,157.88814,47.29726Zm-.943,24.6405h38.37531v6.74809H149.17834V58.67562h7.7668ZM203.638,35.36816H193.35874V59.61627h-7.69122V7.11833h7.69122V28.62007H203.638Z"/><path class="cls-1" d="M207.55917,57.3401q6.279-3.68715,10.63391-6.5519a85.91669,85.91669,0,0,0,7.21841-5.21873,30.18557,30.18557,0,0,0,4.51213-4.4342,15.43426,15.43426,0,0,0,2.43452-4.19767,16.77651,16.77651,0,0,0,.98085-4.35378q.1949-2.23709.1962-5.06287V20.53658H208.97262V13.86642h32.2513V27.599q0,3.61267-.19619,6.436a20.23846,20.23846,0,0,1-1.09664,5.37484,19.13075,19.13075,0,0,1-2.74649,5.02266,32.89247,32.89247,0,0,1-5.14092,5.25671,98.85723,98.85723,0,0,1-8.27969,6.16186q-4.98474,3.37517-12.12281,7.68874ZM273.87,40.6271H262.72566V79.4705h-7.76679V7.11833h7.76679V33.87665H273.87Z"/><path class="cls-1" d="M309.10417,7.98105A38.19893,38.19893,0,0,1,318.835,9.12037a25.98851,25.98851,0,0,1,7.339,3.05847,13.93913,13.93913,0,0,1,4.59006,4.55234,10.64932,10.64932,0,0,1,1.56944,5.53319v2.3541a10.49015,10.49015,0,0,1-1.29519,5.06051,13.41968,13.41968,0,0,1-3.76755,4.27809,21.76979,21.76979,0,0,1-6.08157,3.13888,33.6801,33.6801,0,0,1-8.16155,1.64737v6.67016H342.2986v6.592H275.90974v-6.592h29.27089V38.74332a33.67883,33.67883,0,0,1-8.16154-1.64737,21.80108,21.80108,0,0,1-6.08158-3.13888,13.43984,13.43984,0,0,1-3.76519-4.27809,10.49028,10.49028,0,0,1-1.29531-5.06051v-2.3541a10.62849,10.62849,0,0,1,1.56944-5.53319,13.89585,13.89585,0,0,1,4.59018-4.55234,25.94227,25.94227,0,0,1,7.33656-3.05847A38.22674,38.22674,0,0,1,309.10417,7.98105ZM293.25389,71.93776h40.88317v6.74809H285.48474V57.3401h7.76915Zm15.85028-39.47208a29.19435,29.19435,0,0,0,6.514-.66664,18.1084,18.1084,0,0,0,4.90452-1.80572,9.79649,9.79649,0,0,0,3.101-2.62836,5.115,5.115,0,0,0,1.09664-3.06082V22.57635a5.11344,5.11344,0,0,0-1.09664-3.05847,9.80139,9.80139,0,0,0-3.101-2.63071,18.19218,18.19218,0,0,0-4.90452-1.80349,32.15337,32.15337,0,0,0-13.02574,0,18.19065,18.19065,0,0,0-4.90452,1.80349,9.77407,9.77407,0,0,0-3.101,2.63071,5.10169,5.10169,0,0,0-1.09912,3.05847v1.72779a5.10323,5.10323,0,0,0,1.09912,3.06082,9.76918,9.76918,0,0,0,3.101,2.62836,18.10689,18.10689,0,0,0,4.90452,1.80572A29.1568,29.1568,0,0,0,309.10417,32.46568Z"/><path class="cls-2" d="M137.04776,102.5668c.83082,0,1.03689-.05419,1.03689-.33237V95.14137c0-.26374-.16445-.31793-.78757-.31793-.12466,0-.17885-.04143-.17885-.12448a1.91048,1.91048,0,0,1,.09581-.60869h2.86274a.84738.84738,0,0,1,.12466.73317c-.78939,0-.92662.02718-.92662.30351v2.973h4.85324v-2.973c0-.2619-.13724-.30351-.77478-.30351-.12281,0-.17885-.04143-.17885-.12448a1.91174,1.91174,0,0,1,.09747-.60869H146.133a.89742.89742,0,0,1,.11208.73317c-.70634,0-.92663.0688-.92663.31793v7.09306c0,.26375.19328.33237.87059.33237.12466,0,.18052.04143.18052.12447a2.02555,2.02555,0,0,1-.09747.63588h-2.87733a.96556.96556,0,0,1-.09565-.76035c.63572,0,.829-.06862.829-.34513V99.014h-4.85324v3.20769c0,.31794.1933.34513.6773.34513.12466,0,.18071.04143.18071.12447a2.026,2.026,0,0,1-.09766.63588h-2.86275A.898.898,0,0,1,137.04776,102.5668Z"/><path class="cls-2" d="M147.45338,101.68179c0-1.31319.96806-2.18563,2.68223-2.18563h1.4937v-.35937c0-1.29876-.401-1.7556-1.45224-1.7556a1.93053,1.93053,0,0,0-1.16137.30518,1.821,1.821,0,0,0-.2619.96639h-.51288c-.22043,0-.35955-.05419-.35955-.19328V97.31239a3.54513,3.54513,0,0,1,2.4059-.85783,2.261,2.261,0,0,1,2.49081,2.40591v3.41539a.87833.87833,0,0,0,.05419.33237h.8434a1.24337,1.24337,0,0,1,.08323.52564,2.87434,2.87434,0,0,1-1.32762.3468c-.374,0-.63584-.41541-.76035-.73335a3.53234,3.53234,0,0,1-2.15677.74592C147.979,103.49324,147.45338,102.62266,147.45338,101.68179Zm4.17593.083v-1.45227h-1.39623c-.95363,0-1.63279.42983-1.63279,1.24457,0,.71873.401,1.0241,1.09272,1.0241A2.6531,2.6531,0,0,0,151.62931,101.76483Z"/><path class="cls-2" d="M154.2646,102.62266c.77475,0,.95545,0,.95545-.31776V97.78218c0-.2619-.056-.34513-.19513-.34513h-.76032a2.22094,2.22094,0,0,1-.09584-.42984c0-.11023.05419-.16609.19328-.22028a5.88508,5.88508,0,0,1,1.54789-.33237c.35959,0,.457.19328.457.428v.62312a2.75392,2.75392,0,0,1,2.088-1.05111,2.16209,2.16209,0,0,1,2.21262,2.40591v3.43c0,.30517.12466.33218.74778.33218.11023,0,.19328.05419.19328.12466a1.63374,1.63374,0,0,1-.1119.57983h-2.778a.859.859,0,0,1-.11189-.70449c.76035,0,.91386,0,.91386-.31776V99.31731c0-1.30043-.35937-1.83865-1.342-1.83865A2.62328,2.62328,0,0,0,156.367,98.584v3.70652c0,.30517.09766.33218.69173.33218.11024,0,.19328.05419.19328.12466a1.66924,1.66924,0,0,1-.11005.57983H154.3748A.8656.8656,0,0,1,154.2646,102.62266Z"/><path class="cls-2" d="M162.26428,104.66919a1.90567,1.90567,0,0,1,1.17576-1.687,1.09361,1.09361,0,0,1-.55265-.89963,1.4008,1.4008,0,0,1,.82916-1.22995,2.22382,2.22382,0,0,1-1.07848-2.03378,2.39076,2.39076,0,0,1,2.68223-2.36429,2.94291,2.94291,0,0,1,1.315.27633l2.07354-.30352c.11005-.01442.24914.0542.24914.13724a4.7889,4.7889,0,0,1-.13909.84358h-1.34019a2.04258,2.04258,0,0,1,.51122,1.43952,2.34081,2.34081,0,0,1-2.66966,2.41848,3.42389,3.42389,0,0,1-.85616-.0812c-.27632.15167-.49845.33052-.49845.64846,0,.51288.484.70616,1.83883.70616,2.10242,0,2.83574.66288,2.83574,1.88026,0,1.32762-1.259,2.22706-3.347,2.21263C163.42562,106.61807,162.26428,105.8161,162.26428,104.66919Zm5.28308-.19328c0-.70616-.3738-1.0241-2.0319-1.0241a5.07052,5.07052,0,0,1-1.31488-.12466,1.29559,1.29559,0,0,0-.802,1.23181c.01443.7315.66473,1.18853,1.97774,1.18853C166.84305,105.74749,167.54736,105.27788,167.54736,104.47591Zm-.69174-5.64263a1.41734,1.41734,0,0,0-1.54789-1.57675,1.60485,1.60485,0,1,0,1.54789,1.57675Z"/><path class="cls-2" d="M169.65715,101.68179c0-1.31319.96806-2.18563,2.68223-2.18563h1.49371v-.35937c0-1.29876-.401-1.7556-1.45228-1.7556a1.93034,1.93034,0,0,0-1.16131.30518,1.82086,1.82086,0,0,0-.26192.96639h-.513c-.22031,0-.3594-.05419-.3594-.19328V97.31239a3.54514,3.54514,0,0,1,2.40591-.85783,2.261,2.261,0,0,1,2.4908,2.40591v3.41539a.87892.87892,0,0,0,.05419.33237h.8434a1.24387,1.24387,0,0,1,.083.52564,2.87339,2.87339,0,0,1-1.32743.3468c-.374,0-.63587-.41541-.76053-.73335a3.53137,3.53137,0,0,1-2.15659.74592C170.18261,103.49324,169.65715,102.62266,169.65715,101.68179Zm4.17594.083v-1.45227h-1.39624c-.95363,0-1.63279.42983-1.63279,1.24457,0,.71873.401,1.0241,1.09272,1.0241A2.65369,2.65369,0,0,0,173.83309,101.76483Z"/><path class="cls-2" d="M176.64885,99.96761a3.31232,3.31232,0,1,1,3.30535,3.52563A3.18788,3.18788,0,0,1,176.64885,99.96761Zm5.44769,0c0-1.61836-.88519-2.572-2.14234-2.572-1.25878,0-2.14382.95363-2.14382,2.572,0,1.58952.885,2.58643,2.14382,2.58643C181.21135,102.554,182.09654,101.55713,182.09654,99.96761Z"/><path class="cls-2" d="M184.27477,102.62266c.77478,0,.95363,0,.95363-.31776V97.78218c0-.2619-.05419-.34513-.19328-.34513h-.76035a2.22356,2.22356,0,0,1-.09581-.42984c0-.11023.0542-.16609.19328-.22028a5.88515,5.88515,0,0,1,1.5479-.33237c.35955,0,.457.19328.457.428v.62312a2.754,2.754,0,0,1,2.088-1.05111,2.16211,2.16211,0,0,1,2.21263,2.40591v3.43c0,.30517.12466.33218.74593.33218.11208,0,.19512.05419.19512.12466a1.62976,1.62976,0,0,1-.11208.57983h-2.77785a.85884.85884,0,0,1-.11208-.70449c.76053,0,.914,0,.914-.31776V99.31731c0-1.30043-.35953-1.83865-1.342-1.83865a2.623,2.623,0,0,0-1.81165,1.1053v3.70652c0,.30517.09751.33218.69174.33218.11023,0,.19328.05419.19328.12466a1.66924,1.66924,0,0,1-.11005.57983H184.385A.86507.86507,0,0,1,184.27477,102.62266Z"/><path class="cls-2" d="M205.27,102.69127a2.02642,2.02642,0,0,1-.09747.63588H202.131a.93158.93158,0,0,1-.09766-.74592c.66473,0,.94106-.12466.76239-.3468l-2.86293-3.63586-1.06572.93921v2.68389c0,.31794.19328.34513.67731.34513.12466,0,.1807.04143.1807.12447a2.03166,2.03166,0,0,1-.09747.63588h-2.87551a.89735.89735,0,0,1-.12466-.76035c.829,0,1.03668-.05419,1.03668-.33237V95.14137c0-.26374-.16606-.31793-.78736-.31793-.12466,0-.1807-.04143-.1807-.12448a1.91174,1.91174,0,0,1,.09747-.60869H199.669a.84141.84141,0,0,1,.12466.73317c-.78754,0-.92663.02718-.92663.30351v3.20787l3.76237-3.30368c.19328-.16609.12466-.2077-.60869-.2077-.12466,0-.18051-.04143-.18051-.12448a1.90671,1.90671,0,0,1,.09747-.60869h2.80692a.89013.89013,0,0,1,.11.73317c-.60684,0-.71874.05419-.92645.24747l-3.18087,2.80874,3.44444,4.35478c.1663.20771.23489.33237.89962.33237C205.21418,102.5668,205.27,102.60823,205.27,102.69127Z"/><path class="cls-2" d="M205.76147,99.96761a3.31224,3.31224,0,1,1,3.30534,3.52563A3.18787,3.18787,0,0,1,205.76147,99.96761Zm5.4475,0c0-1.61836-.885-2.572-2.14216-2.572-1.259,0-2.144.95363-2.144,2.572,0,1.58952.885,2.58643,2.144,2.58643C210.324,102.554,211.209,101.55713,211.209,99.96761Z"/><path class="cls-2" d="M213.3872,102.62266c.775,0,.95363,0,.95363-.33218v-4.5083c0-.2619-.05419-.34513-.19306-.34513h-.76057a2.23473,2.23473,0,0,1-.09562-.42984c0-.11023.05419-.16609.19328-.22028a5.84257,5.84257,0,0,1,1.50631-.33237c.35934,0,.457.19328.457.428v.78939a1.98547,1.98547,0,0,1,1.7556-1.21738,1.86577,1.86577,0,0,1,1.19038.401v1.46651c0,.13742-.09766.19328-.30536.19328h-.53822a2.34375,2.34375,0,0,0-.12466-.94106.72762.72762,0,0,0-.52565-.15166c-.33236,0-1.11972.42817-1.41066,1.66v3.20788c0,.31775.09766.33218.94106.33218.09581,0,.19328.04161.19328.12466a1.66924,1.66924,0,0,1-.11005.57983h-3.002A.78778.78778,0,0,1,213.3872,102.62266Z"/><path class="cls-2" d="M219.21941,99.87014a3.12739,3.12739,0,0,1,3.09764-3.41558c1.89488,0,2.9876,1.23181,2.9876,3.27816a.43686.43686,0,0,1-.47145.4696h-4.45226c.01442,1.5209.73335,2.35172,2.12939,2.35172a2.58988,2.58988,0,0,0,2.061-.95548l.428.52564c.12466.13909.08323.26375-.11005.47145a3.52516,3.52516,0,0,1-2.462.89759C220.32489,103.49324,219.21941,102.18024,219.21941,99.87014Zm4.93648-.48421a1.769,1.769,0,0,0-1.83884-1.97774,1.89691,1.89691,0,0,0-1.92169,1.97774Z"/><path class="cls-2" d="M226.363,101.68179c0-1.31319.96824-2.18563,2.68223-2.18563h1.49388v-.35937c0-1.29876-.401-1.7556-1.45227-1.7556a1.93013,1.93013,0,0,0-1.16134.30518,1.81915,1.81915,0,0,0-.26189.96639h-.51307c-.22028,0-.35937-.05419-.35937-.19328V97.31239a3.54475,3.54475,0,0,1,2.4059-.85783,2.261,2.261,0,0,1,2.49081,2.40591v3.41539a.882.882,0,0,0,.054.33237h.84359a1.24339,1.24339,0,0,1,.083.52564,2.87352,2.87352,0,0,1-1.32743.3468c-.374,0-.63588-.41541-.76054-.73335a3.53218,3.53218,0,0,1-2.15658.74592C226.88861,103.49324,226.363,102.62266,226.363,101.68179Zm4.17611.083v-1.45227h-1.39623c-.95363,0-1.63279.42983-1.63279,1.24457,0,.71873.401,1.0241,1.09272,1.0241A2.65372,2.65372,0,0,0,230.53908,101.76483Z"/><path class="cls-2" d="M233.17434,102.62266c.77481,0,.95548,0,.95548-.31776V97.78218c0-.2619-.056-.34513-.19513-.34513h-.76035a2.22281,2.22281,0,0,1-.09581-.42984c0-.11023.05419-.16609.19328-.22028a5.88384,5.88384,0,0,1,1.54789-.33237c.35941,0,.457.19328.457.428v.62312a2.75392,2.75392,0,0,1,2.088-1.05111,2.16214,2.16214,0,0,1,2.21266,2.40591v3.43c0,.30517.12462.33218.74774.33218.11005,0,.19328.05419.19328.12466a1.62976,1.62976,0,0,1-.11208.57983h-2.77786a.85892.85892,0,0,1-.11208-.70449c.76054,0,.91405,0,.91405-.31776V99.31731c0-1.30043-.35955-1.83865-1.342-1.83865a2.62292,2.62292,0,0,0-1.81164,1.1053v3.70652c0,.30517.09747.33218.69173.33218.11024,0,.19328.05419.19328.12466a1.66942,1.66942,0,0,1-.11023.57983h-2.76713A.86575.86575,0,0,1,233.17434,102.62266Z"/><path class="cls-2" d="M245.51259,102.5668c.83079,0,1.03665-.05419,1.03665-.33237V95.14137c0-.26374-.16443-.31793-.78755-.31793-.12466,0-.17881-.04143-.17881-.12448a1.963,1.963,0,0,1,.09577-.60869h2.3101l3.20787,8.07555,3.16626-8.07555h2.18563a.90387.90387,0,0,1,.11005.73317c-.70432,0-.92645.0688-.92645.31793v7.09306c0,.26375.1931.33237.87229.33237.12278,0,.17882.04143.17882.12447a2.02736,2.02736,0,0,1-.09744.63588h-2.695a.95913.95913,0,0,1-.09747-.76035c.56726,0,.76035-.06862.76035-.34513V95.985l-2.93136,7.34219h-1.03686a.22919.22919,0,0,1-.23471-.13723L247.62938,96.095v6.12666c0,.31794.19331.34513.60869.34513.12284,0,.17885.04143.17885.12447a2.026,2.026,0,0,1-.09765.63588H245.637A.89786.89786,0,0,1,245.51259,102.5668Z"/><path class="cls-2" d="M257.86521,99.87014a3.12729,3.12729,0,0,1,3.09764-3.41558c1.89469,0,2.98741,1.23181,2.98741,3.27816a.43677.43677,0,0,1-.47145.4696h-4.45226c.01442,1.5209.73335,2.35172,2.12961,2.35172a2.58979,2.58979,0,0,0,2.06075-.95548l.42817.52564c.12466.13909.08305.26375-.11023.47145a3.52514,3.52514,0,0,1-2.46192.89759C258.97051,103.49324,257.86521,102.18024,257.86521,99.87014Zm4.93629-.48421a1.76876,1.76876,0,0,0-1.83865-1.97774,1.89706,1.89706,0,0,0-1.92188,1.97774Z"/><path class="cls-2" d="M265.00879,100.14647c0-2.39148,1.1885-3.69191,3.15365-3.69191a2.95793,2.95793,0,0,1,1.53347.41541v-2.2c0-.2619-.05419-.34494-.19328-.34494h-.76053a2.25069,2.25069,0,0,1-.09563-.428c0-.11208.0542-.16627.19328-.22232a5.875,5.875,0,0,1,1.5479-.33218c.35937,0,.457.195.457.42984v7.9925a3.27214,3.27214,0,0,0,.08305.73335h.67731a1.93941,1.93941,0,0,1,.083.63569,1.97881,1.97881,0,0,1-1.2318.3468c-.2349,0-.57984-.49846-.7045-.94106a2.84511,2.84511,0,0,1-2.04632.95363C266.1431,103.49324,265.00879,102.40052,265.00879,100.14647Zm4.68712,1.39789V97.90665a2.35893,2.35893,0,0,0-1.5625-.52546c-1.20292,0-1.96331.89944-1.96331,2.73809,0,1.63112.6503,2.42033,1.77,2.42033A2.34859,2.34859,0,0,0,269.69591,101.54436Z"/><path class="cls-2" d="M272.53887,102.62266c.77478,0,.95548,0,.95548-.31776v-4.315c0-.26375-.056-.34513-.19513-.34513h-.76035a2.1608,2.1608,0,0,1-.09581-.44241c0-.09766.0542-.15351.19332-.20771a5.88333,5.88333,0,0,1,1.54786-.33236c.35955,0,.45706.19328.45706.428v5.20022c0,.31775.1102.33218.73331.33218.11009,0,.19332.05419.19332.12466a1.73475,1.73475,0,0,1-.11027.57983h-2.80874A.80551.80551,0,0,1,272.53887,102.62266Zm.63573-8.18745a.80921.80921,0,1,1,.80193.802A.77108.77108,0,0,1,273.1746,94.43521Z"/><path class="cls-2" d="M276.56129,99.87014a3.139,3.139,0,0,1,3.2223-3.41558,3.70839,3.70839,0,0,1,2.47434.77478v1.50647c-.04143.13908-.12447.19494-.31775.19494h-.63588a2.10232,2.10232,0,0,0-.20771-1.14857,1.88426,1.88426,0,0,0-1.32761-.38656c-1.14691,0-2.04632.85616-2.04632,2.47452,0,1.79888.7459,2.6839,2.18541,2.6839a2.51294,2.51294,0,0,0,2.01935-.94106l.4426.49864c.12281.15167.08119.27633-.12466.46961a3.33155,3.33155,0,0,1-2.43476.912C277.73706,103.49324,276.56129,102.29048,276.56129,99.87014Z"/><path class="cls-2" d="M283.52414,102.62266c.775,0,.95548,0,.95548-.31776v-4.315c0-.26375-.056-.34513-.19494-.34513h-.76054a2.17078,2.17078,0,0,1-.09559-.44241c0-.09766.05416-.15351.19325-.20771a5.88394,5.88394,0,0,1,1.54789-.33236c.35937,0,.45684.19328.45684.428v5.20022c0,.31775.11027.33218.73335.33218.11024,0,.19328.05419.19328.12466a1.72922,1.72922,0,0,1-.11023.57983h-2.80856A.80557.80557,0,0,1,283.52414,102.62266Zm.63588-8.18745a.80921.80921,0,1,1,.802.802A.771.771,0,0,1,284.16,94.43521Z"/><path class="cls-2" d="M287.5719,102.62266c.77478,0,.95363,0,.95363-.31776V97.78218c0-.2619-.05419-.34513-.19328-.34513h-.76035a2.22356,2.22356,0,0,1-.09581-.42984c0-.11023.0542-.16609.19328-.22028a5.88515,5.88515,0,0,1,1.5479-.33237c.35955,0,.457.19328.457.428v.62312a2.754,2.754,0,0,1,2.088-1.05111,2.16211,2.16211,0,0,1,2.21263,2.40591v3.43c0,.30517.12466.33218.74593.33218.11211,0,.19512.05419.19512.12466a1.63373,1.63373,0,0,1-.11189.57983h-2.778a.85887.85887,0,0,1-.1119-.70449c.76039,0,.9139,0,.9139-.31776V99.31731c0-1.30043-.3594-1.83865-1.34207-1.83865a2.62335,2.62335,0,0,0-1.81165,1.1053v3.70652c0,.30517.09748.33218.69174.33218.11023,0,.19328.05419.19328.12466a1.66855,1.66855,0,0,1-.11005.57983h-2.76713A.86507.86507,0,0,1,287.5719,102.62266Z"/><path class="cls-2" d="M295.78117,99.87014a3.12729,3.12729,0,0,1,3.09764-3.41558c1.89469,0,2.98741,1.23181,2.98741,3.27816a.43677.43677,0,0,1-.47145.4696h-4.45226c.01442,1.5209.73335,2.35172,2.12961,2.35172a2.58979,2.58979,0,0,0,2.06075-.95548l.42817.52564c.12466.13909.08305.26375-.11023.47145a3.52514,3.52514,0,0,1-2.46192.89759C296.88647,103.49324,295.78117,102.18024,295.78117,99.87014Zm4.93629-.48421a1.76876,1.76876,0,0,0-1.83865-1.97774,1.89706,1.89706,0,0,0-1.92188,1.97774Z"/><path class="cls-2" d="M306.98691,98.59857a4.4362,4.4362,0,0,1,4.57692-4.70158,4.9598,4.9598,0,0,1,3.20787,1.16134V96.7037c-.04161.13742-.12466.19328-.31794.19328h-.67731a2.712,2.712,0,0,0-.1807-1.35462,2.96687,2.96687,0,0,0-2.03192-.65012c-2.21263,0-3.36139,1.64537-3.36139,3.67914,0,2.32286,1.20295,4.00985,3.36139,4.00985a3.68419,3.68419,0,0,0,2.83389-1.203l.47149.55265c.12462.13909.09558.2619-.1247.4696a4.266,4.266,0,0,1-3.18068,1.176C308.71532,103.57647,306.98691,101.55713,306.98691,98.59857Z"/><path class="cls-2" d="M316.00887,102.62266c.77478,0,.95363,0,.95363-.31776v-7.635c0-.2619-.05419-.34494-.19328-.34494h-.76035a2.15073,2.15073,0,0,1-.09747-.44242c0-.09765.05586-.15184.19494-.20789a5.87813,5.87813,0,0,1,1.5479-.33218c.35955,0,.457.195.457.42984v8.51815c0,.31775.09581.33218.7315.33218.11212,0,.19513.05419.19513.12466a1.69274,1.69274,0,0,1-.11208.57983H316.1191A.805.805,0,0,1,316.00887,102.62266Z"/><path class="cls-2" d="M320.05663,102.62266c.77478,0,.95548,0,.95548-.31776v-4.315c0-.26375-.056-.34513-.19513-.34513h-.76035a2.1608,2.1608,0,0,1-.09581-.44241c0-.09766.0542-.15351.19328-.20771a5.8855,5.8855,0,0,1,1.5479-.33236c.35955,0,.457.19328.457.428v5.20022c0,.31775.11027.33218.73335.33218.11,0,.19328.05419.19328.12466a1.73468,1.73468,0,0,1-.11023.57983h-2.80874A.80551.80551,0,0,1,320.05663,102.62266Zm.63569-8.18745a.80922.80922,0,1,1,.802.802A.77112.77112,0,0,1,320.69232,94.43521Z"/><path class="cls-2" d="M324.10421,102.62266c.775,0,.95381,0,.95381-.31776V97.78218c0-.2619-.05419-.34513-.19328-.34513h-.76053a2.23486,2.23486,0,0,1-.09563-.42984c0-.11023.0542-.16609.19328-.22028a5.88357,5.88357,0,0,1,1.5479-.33237c.35937,0,.457.19328.457.428v.62312a2.754,2.754,0,0,1,2.088-1.05111,2.16211,2.16211,0,0,1,2.21263,2.40591v3.43c0,.30517.12447.33218.74593.33218.11189,0,.19512.05419.19512.12466a1.62976,1.62976,0,0,1-.11208.57983H328.5585a.85884.85884,0,0,1-.11208-.70449c.76035,0,.91386,0,.91386-.31776V99.31731c0-1.30043-.35937-1.83865-1.34185-1.83865a2.62292,2.62292,0,0,0-1.81165,1.1053v3.70652c0,.30517.09748.33218.69174.33218.11023,0,.19328.05419.19328.12466a1.66943,1.66943,0,0,1-.11024.57983h-2.76712A.86644.86644,0,0,1,324.10421,102.62266Z"/><path class="cls-2" d="M332.4779,102.62266c.77478,0,.95363,0,.95363-.31776v-4.315c0-.26375-.05419-.34513-.19328-.34513h-.76035a2.1628,2.1628,0,0,1-.09581-.44241c0-.09766.05423-.15351.19328-.20771a5.88542,5.88542,0,0,1,1.5479-.33236c.35955,0,.457.19328.457.428v5.20022c0,.31775.11024.33218.73335.33218.11024,0,.19328.05419.19328.12466a1.73468,1.73468,0,0,1-.11023.57983h-2.80856A.80509.80509,0,0,1,332.4779,102.62266Zm.63569-8.18745a.80922.80922,0,1,1,.802.802A.77007.77007,0,0,1,333.11359,94.43521Z"/><path class="cls-2" d="M336.49847,99.87014a3.1391,3.1391,0,0,1,3.2223-3.41558,3.709,3.709,0,0,1,2.47453.77478v1.50647c-.04162.13908-.12463.19494-.31794.19494h-.6357a2.10244,2.10244,0,0,0-.2077-1.14857,1.88489,1.88489,0,0,0-1.32761-.38656c-1.14692,0-2.04636.85616-2.04636,2.47452,0,1.79888.74593,2.6839,2.18544,2.6839a2.51321,2.51321,0,0,0,2.01935-.94106l.44242.49864c.123.15167.08138.27633-.12448.46961a3.33153,3.33153,0,0,1-2.43476.912C337.67442,103.49324,336.49847,102.29048,336.49847,99.87014Z"/><path class="cls-3" d="M39.23525,22.72249a2.0554,2.0554,0,0,1-2.05492-2.05492V2.73976a2.05492,2.05492,0,0,1,4.10984,0V20.66757A2.05541,2.05541,0,0,1,39.23525,22.72249Z"/><path class="cls-3" d="M108.38374,22.72249H4.60607a2.05482,2.05482,0,0,1,0-4.10964H108.38374a2.05482,2.05482,0,1,1,0,4.10964Z"/><path class="cls-3" d="M76.37012,86.74854a2.05527,2.05527,0,0,1-2.05492-2.05491V74.45013a2.05482,2.05482,0,1,1,4.10964,0v10.2435A2.05523,2.05523,0,0,1,76.37012,86.74854Z"/><path class="cls-3" d="M108.38374,86.74854H3.37934a2.05482,2.05482,0,1,1,0-4.10963h105.0044a2.05482,2.05482,0,1,1,0,4.10963Z"/><path class="cls-3" d="M109.6641,39.36879H74.47171a2.0554,2.0554,0,0,1-2.05492-2.05492V2.73976a2.05492,2.05492,0,1,1,4.10983,0V35.25915H109.6641a2.05482,2.05482,0,0,1,0,4.10964Z"/><path class="cls-3" d="M53.9604,43.30058H24.5087a7.81744,7.81744,0,1,1,0-15.63488H53.9604a7.81744,7.81744,0,1,1,0,15.63488Zm-29.4517-11.525a3.70771,3.70771,0,1,0,0,7.41541H53.9604a3.70771,3.70771,0,1,0,0-7.41541Z"/><path class="cls-3" d="M92.37683,75.22469H62.92513a7.81744,7.81744,0,1,1,0-15.63488h29.4517a7.81744,7.81744,0,0,1,0,15.63488ZM62.92513,63.69944a3.70781,3.70781,0,1,0,0,7.41561h29.4517a3.70781,3.70781,0,0,0,0-7.41561Z"/><path class="cls-3" d="M109.6641,54.73612H52.03946a2.05524,2.05524,0,0,1-2.05492-2.05472V41.24587a2.05482,2.05482,0,1,1,4.10964,0v9.38061H109.6641a2.05482,2.05482,0,0,1,0,4.10964Z"/><path class="cls-3" d="M99.50874,102.11587H52.03946a2.05523,2.05523,0,0,1-2.05492-2.05472V86.98659a2.05482,2.05482,0,0,1,4.10964,0V98.00624H99.50874a2.05482,2.05482,0,1,1,0,4.10963Z"/><path class="cls-3" d="M27.71,111.0792a2.05541,2.05541,0,0,1-2.05492-2.05492V54.53156H4.6597a2.05492,2.05492,0,0,1,0-4.10984H27.71a2.05554,2.05554,0,0,1,2.05492,2.05492v56.54764A2.05541,2.05541,0,0,1,27.71,111.0792Z"/><path class="cls-3" d="M40.51541,112.35956a2.05536,2.05536,0,0,1-2.05472-2.05492V68.04733a2.05537,2.05537,0,0,1,2.05472-2.05492H57.1619a2.05492,2.05492,0,0,1,0,4.10984H42.57033v40.20239A2.0554,2.0554,0,0,1,40.51541,112.35956Z"/><path class="cls-3" d="M88.20958,113.0444H24.83367a14.28357,14.28357,0,0,1-13.84353-10.99133A14.28026,14.28026,0,0,1,0,88.21073V24.83483a14.29494,14.29494,0,0,1,10.98874-13.8435A14.28807,14.28807,0,0,1,24.83367,0H88.20958a14.28792,14.28792,0,0,1,13.84493,10.99133,14.29326,14.29326,0,0,1,10.99013,13.8435v63.3759a14.284,14.284,0,0,1-10.99133,13.84374A14.28405,14.28405,0,0,1,88.20958,113.0444ZM16.09384,13.42083A2.73993,2.73993,0,0,1,13.56,16.12311a8.77535,8.77535,0,0,0-8.08031,8.71172v63.3759a8.76745,8.76745,0,0,0,8.10583,8.71192,2.74127,2.74127,0,0,1,2.535,2.535,8.76994,8.76994,0,0,0,8.71312,8.10723H88.20958a8.76964,8.76964,0,0,0,8.71311-8.10723,2.74164,2.74164,0,0,1,2.53521-2.535,8.76849,8.76849,0,0,0,8.107-8.71192V24.83483a8.77742,8.77742,0,0,0-8.08171-8.71172,2.73915,2.73915,0,0,1-2.53381-2.71305,2.63916,2.63916,0,0,1-.08553-.38658,8.77586,8.77586,0,0,0-8.6543-7.544H24.83367a8.77566,8.77566,0,0,0-8.6541,7.544A2.96636,2.96636,0,0,1,16.09384,13.42083Z"/></g></g></svg>