<svg xmlns="http://www.w3.org/2000/svg" viewBox="0 0 259.15587 49.4356"><defs><style>.cls-1{fill:#fff;}.cls-2{fill:#666;}.cls-3{fill:#c2996c;}</style></defs><g id="Layer_2" data-name="Layer 2"><g id="레이어_1" data-name="레이어 1"><path class="cls-1" d="M69.1899,18.8076H52.0386V16.0839h7.0029V12.4853h3.1777v3.5986h6.9707ZM60.6304,31.9394a8.939,8.939,0,0,1-3.0479-.4707,6.60049,6.60049,0,0,1-2.1719-1.248,5.13586,5.13586,0,0,1-1.3134-1.7666,4.9577,4.9577,0,0,1-.43749-2.0274v-.9726a4.98368,4.98368,0,0,1,1.75089-3.8096,6.805,6.805,0,0,1,2.1719-1.2315,10.103,10.103,0,0,1,6.0957,0,6.62575,6.62575,0,0,1,2.1719,1.2481,5.13291,5.13291,0,0,1,1.3135,1.7666,4.96006,4.96006,0,0,1,.4375,2.0264v.9726a4.95771,4.95771,0,0,1-.4375,2.0274,5.13478,5.13478,0,0,1-1.3135,1.7666,6.60973,6.60973,0,0,1-2.1719,1.248A8.942,8.942,0,0,1,60.6304,31.9394Zm0-2.5615a5.20222,5.20222,0,0,0,1.7187-.2598,3.57116,3.57116,0,0,0,1.2315-.6972,2.84736,2.84736,0,0,0,.7295-1.0049,2.89639,2.89639,0,0,0,.2431-1.1514v-.6484a2.89493,2.89493,0,0,0-.2431-1.1504,2.85539,2.85539,0,0,0-.7295-1.0049,3.58786,3.58786,0,0,0-1.21589-.6973,5.92112,5.92112,0,0,0-3.46871,0,3.58742,3.58742,0,0,0-1.2158.6973,2.854,2.854,0,0,0-.72949,1.0049,2.8949,2.8949,0,0,0-.24321,1.1504v.6484a2.89637,2.89637,0,0,0,.24321,1.1514,2.846,2.846,0,0,0,.72949,1.0049,3.56045,3.56045,0,0,0,1.2314.6972A5.1987,5.1987,0,0,0,60.6304,29.3779Zm-.38969,10.1807H76.0962v2.788H57.03171V34.0791h3.209Zm19.292-15.1094H75.2856V34.4677H72.1079V12.7773h3.1777v8.8838h4.24711Z"/><path class="cls-1" d="M81.1528,33.5273q2.59425-1.5234,4.3936-2.707a35.50162,35.50162,0,0,0,2.9824-2.1563,12.473,12.473,0,0,0,1.8643-1.832,6.37506,6.37506,0,0,0,1.0058-1.7344,6.93083,6.93083,0,0,0,.4053-1.7988q.08055-.9243.081-2.0918V18.3213H81.7368V15.5654H95.062v5.6738q0,1.49265-.081,2.6592a8.36518,8.36518,0,0,1-.4532,2.2207,7.90571,7.90571,0,0,1-1.1347,2.0752,13.58965,13.58965,0,0,1-2.1241,2.1719,40.83663,40.83663,0,0,1-3.4209,2.5459q-2.0595,1.39455-5.0088,3.1767Zm27.3975-6.9053h-4.6045V42.6709h-3.209V12.7773h3.209V23.833h4.6045Z"/><path class="cls-1" d="M123.1079,13.1338a15.78207,15.78207,0,0,1,4.0205.4707,10.734,10.734,0,0,1,3.0322,1.2636,5.7601,5.7601,0,0,1,1.8965,1.8809,4.39962,4.39962,0,0,1,.6485,2.2861v.9727a4.33484,4.33484,0,0,1-.5352,2.0908,5.5441,5.5441,0,0,1-1.5566,1.7676,8.99579,8.99579,0,0,1-2.5127,1.2968,13.91064,13.91064,0,0,1-3.3721.6807v2.7559h12.09371v2.7236H109.3931V28.5996h12.0937V25.8437a13.91045,13.91045,0,0,1-3.37209-.6807,9.00981,9.00981,0,0,1-2.51271-1.2968,5.55264,5.55264,0,0,1-1.5556-1.7676,4.33373,4.33373,0,0,1-.5352-2.0908v-.9727a4.3902,4.3902,0,0,1,.64851-2.2861,5.74166,5.74166,0,0,1,1.89639-1.8809,10.71667,10.71667,0,0,1,3.0313-1.2636A15.79264,15.79264,0,0,1,123.1079,13.1338Zm-6.5488,26.4248h16.89161v2.788H113.3491V33.5273h3.21ZM123.1079,23.25a12.06289,12.06289,0,0,0,2.6914-.2754,7.48249,7.48249,0,0,0,2.02641-.7461,4.04762,4.04762,0,0,0,1.28119-1.086,2.11285,2.11285,0,0,0,.4532-1.2646V19.164a2.11232,2.11232,0,0,0-.4532-1.2636,4.04976,4.04976,0,0,0-1.28119-1.087,7.51646,7.51646,0,0,0-2.02641-.7451,13.28393,13.28393,0,0,0-5.3818,0,7.51639,7.51639,0,0,0-2.0264.7451,4.03753,4.03753,0,0,0-1.2812,1.087,2.10717,2.10717,0,0,0-.4541,1.2636v.7139a2.1077,2.1077,0,0,0,.4541,1.2646,4.03539,4.03539,0,0,0,1.2812,1.086,7.48242,7.48242,0,0,0,2.0264.7461A12.0473,12.0473,0,0,0,123.1079,23.25Z"/><path class="cls-1" d="M163.2143,18.8076H146.063V16.0839h7.0029V12.4853h3.1777v3.5986h6.9707Zm-8.5595,13.1318a8.939,8.939,0,0,1-3.0479-.4707,6.60008,6.60008,0,0,1-2.1718-1.248,5.13478,5.13478,0,0,1-1.3135-1.7666,4.95771,4.95771,0,0,1-.4375-2.0274v-.9726a4.98339,4.98339,0,0,1,1.751-3.8096,6.80458,6.80458,0,0,1,2.1718-1.2315,10.103,10.103,0,0,1,6.0957,0,6.62575,6.62575,0,0,1,2.1719,1.2481,5.13291,5.13291,0,0,1,1.3135,1.7666,4.96006,4.96006,0,0,1,.4375,2.0264v.9726a4.95771,4.95771,0,0,1-.4375,2.0274,5.13478,5.13478,0,0,1-1.3135,1.7666,6.60973,6.60973,0,0,1-2.1719,1.248A8.942,8.942,0,0,1,154.6548,31.9394Zm0-2.5615a5.20222,5.20222,0,0,0,1.7187-.2598,3.57023,3.57023,0,0,0,1.2315-.6972,2.84612,2.84612,0,0,0,.7295-1.0049,2.89639,2.89639,0,0,0,.2431-1.1514v-.6484a2.89493,2.89493,0,0,0-.2431-1.1504,2.85415,2.85415,0,0,0-.7295-1.0049,3.58732,3.58732,0,0,0-1.2158-.6973,5.92142,5.92142,0,0,0-3.4688,0,3.58732,3.58732,0,0,0-1.2158.6973,2.85415,2.85415,0,0,0-.7295,1.0049,2.89506,2.89506,0,0,0-.2432,1.1504v.6484a2.89653,2.89653,0,0,0,.2432,1.1514,2.84612,2.84612,0,0,0,.7295,1.0049,3.56138,3.56138,0,0,0,1.2314.6972A5.19866,5.19866,0,0,0,154.6548,29.3779Zm-.3897,10.1807h15.8555v2.788H151.0561V34.0791h3.209Zm19.292-15.1094h-4.247V34.4677h-3.1778V12.7773h3.1778v8.8838h4.247Z"/><path class="cls-1" d="M176.021,28.5351V14.2363h3.1455v4.831h7.6846v-4.831h3.1445V28.5351Zm3.1455-2.7236h7.6846V21.7588h-7.6846Zm1.1025,10.7969a4.24786,4.24786,0,0,1,.6162-2.2051,5.39675,5.39675,0,0,1,1.7833-1.7832,9.90057,9.90057,0,0,1,2.8369-1.1836,16.52546,16.52546,0,0,1,7.5547,0,9.93807,9.93807,0,0,1,2.8369,1.1836,5.41623,5.41623,0,0,1,1.7832,1.7832,4.25628,4.25628,0,0,1,.61519,2.2051v1.2968a4.25279,4.25279,0,0,1-.61519,2.2041,5.41623,5.41623,0,0,1-1.7832,1.7832,9.93807,9.93807,0,0,1-2.8369,1.1836,16.52546,16.52546,0,0,1-7.5547,0,9.90057,9.90057,0,0,1-2.8369-1.1836,5.39675,5.39675,0,0,1-1.7833-1.7832,4.24438,4.24438,0,0,1-.6162-2.2041Zm14.8819.1943a2.0381,2.0381,0,0,0-.4053-1.167,3.52271,3.52271,0,0,0-1.167-1.0215,7.35871,7.35871,0,0,0-1.8486-.7138,11.01548,11.01548,0,0,0-4.8955,0,7.3214,7.3214,0,0,0-1.8477.7138,3.51684,3.51684,0,0,0-1.168,1.0215,2.03074,2.03074,0,0,0-.4052,1.167v.9072a2.036,2.036,0,0,0,.4052,1.168,3.51359,3.51359,0,0,0,1.168,1.0205,7.28756,7.28756,0,0,0,1.8477.7139,11.01548,11.01548,0,0,0,4.8955,0,7.32455,7.32455,0,0,0,1.8486-.7139,3.51944,3.51944,0,0,0,1.167-1.0205,2.04337,2.04337,0,0,0,.4053-1.168Zm7.26269-14.2988h-4.2471v8.1054H194.9888V12.7773h3.17769v6.9385h4.2471Z"/><path class="cls-1" d="M205.20071,28.5351V14.2363h3.14548v4.831h7.6846v-4.831h3.1445V28.5351Zm3.14548-2.7236h7.6846V21.7588h-7.6846Zm1.8154,10.7969a4.1429,4.1429,0,0,1,.6328-2.2217,5.5708,5.5708,0,0,1,1.8155-1.7666,10.12884,10.12884,0,0,1,2.8857-1.1836,17.08667,17.08667,0,0,1,7.6836,0,10.12884,10.12884,0,0,1,2.8857,1.1836,5.5708,5.5708,0,0,1,1.8155,1.7666,4.1429,4.1429,0,0,1,.6328,2.2217v1.2968a4.13927,4.13927,0,0,1-.6328,2.2207,5.7222,5.7222,0,0,1-1.8155,1.7832,9.54462,9.54462,0,0,1-2.8857,1.1836,17.74363,17.74363,0,0,1-7.6836,0,9.54462,9.54462,0,0,1-2.8857-1.1836,5.7222,5.7222,0,0,1-1.8155-1.7832,4.13927,4.13927,0,0,1-.6328-2.2207Zm15.20612.1943a1.963,1.963,0,0,0-.42092-1.1836,3.7607,3.7607,0,0,0-1.2002-1.0049,7.57506,7.57506,0,0,0-1.8965-.7138,11.60032,11.60032,0,0,0-5.02538,0,7.57492,7.57492,0,0,0-1.89652.7138,3.77191,3.77191,0,0,0-1.2002,1.0049,1.95656,1.95656,0,0,0-.4209,1.1836v.9072a1.95439,1.95439,0,0,0,.4209,1.1836,3.75912,3.75912,0,0,0,1.2002,1.0049,7.54015,7.54015,0,0,0,1.89652.7139,11.60032,11.60032,0,0,0,5.02538,0,7.54029,7.54029,0,0,0,1.8965-.7139,3.748,3.748,0,0,0,1.2002-1.0049,1.96078,1.96078,0,0,0,.42092-1.1836Zm-.12892-6.1934V25.9404h-4.7344V23.1845h4.7344V20.1377h-4.7344V17.3808h4.7344V12.7773h3.1445v17.832Z"/><path class="cls-1" d="M240.21829,33.1709V28.8916q-3.40437.0966-7.39258.0966v-2.788q2.69082,0,5.00878-.0166,2.31885-.0147,4.5556-.0967,2.2368-.08055,4.5391-.2276,2.30265-.1449,4.9609-.372l.22662,2.6904q-2.07423.2271-4.21492.373-2.14005.14655-4.5068.2432v4.377Zm1.9121-8.6241a10.40092,10.40092,0,0,1-3.0801-.4218,7.81424,7.81424,0,0,1-2.3174-1.1182,4.8943,4.8943,0,0,1-1.459-1.6211,3.975,3.975,0,0,1-.5029-1.9297V18.4189a3.88594,3.88594,0,0,1,.5029-1.9131,5.12213,5.12213,0,0,1,1.459-1.6211,7.59968,7.59968,0,0,1,2.3174-1.1347,11.45744,11.45744,0,0,1,6.1611,0,7.61109,7.61109,0,0,1,2.3174,1.1347,5.14621,5.14621,0,0,1,1.459,1.6211,3.89644,3.89644,0,0,1,.50292,1.9131V19.456a3.98587,3.98587,0,0,1-.50292,1.9297,4.91617,4.91617,0,0,1-1.459,1.6211,7.82625,7.82625,0,0,1-2.3174,1.1182A10.40712,10.40712,0,0,1,242.13039,24.5468ZM240.86671,39.623H257.856v2.7559H237.65671V34.3711h3.21Zm1.26368-17.7676a6.68468,6.68468,0,0,0,1.832-.2265,4.70592,4.70592,0,0,0,1.3457-.5996,2.9396,2.9396,0,0,0,.8428-.8272,1.71045,1.71045,0,0,0,.292-.9404v-.6485a1.71045,1.71045,0,0,0-.292-.9404,2.77678,2.77678,0,0,0-.8428-.8105,5.01082,5.01082,0,0,0-1.3457-.583,7.48325,7.48325,0,0,0-3.6631,0,4.99712,4.99712,0,0,0-1.3457.583,2.76534,2.76534,0,0,0-.8428.8105,1.71045,1.71045,0,0,0-.292.9404v.6485a1.71045,1.71045,0,0,0,.292.9404,2.92686,2.92686,0,0,0,.8428.8272,4.6937,4.6937,0,0,0,1.3457.5996A6.68257,6.68257,0,0,0,242.13039,21.8554ZM254.062,35.9267V33.2685h-6.32228V30.5771H254.062V12.7773h3.17772V35.9267Z"/><path class="cls-2" d="M148.1411,4.9873c.4492,0,.56061-.0293.56061-.1797V.9726c0-.1426-.08891-.1719-.42581-.1719-.0674,0-.0967-.0224-.0967-.0673a1.03276,1.03276,0,0,1,.0518-.3291h1.5478a.45816.45816,0,0,1,.0674.3964c-.4268,0-.501.0147-.501.1641V2.5722h2.624V.9648c0-.1416-.0742-.1641-.4189-.1641-.0664,0-.0967-.0224-.0967-.0673a1.03369,1.03369,0,0,1,.0527-.3291h1.5469a.48521.48521,0,0,1,.0606.3964c-.3819,0-.501.0372-.501.1719v3.835c0,.1426.1045.1797.4707.1797.0674,0,.0976.0224.0976.0673a1.09533,1.09533,0,0,1-.0527.3438h-1.55569a.52209.52209,0,0,1-.05171-.4111c.34371,0,.4482-.0371.4482-.1866V3.0664h-2.624V4.8007c0,.1719.10451.1866.3662.1866.0674,0,.0977.0224.0977.0673a1.09538,1.09538,0,0,1-.0528.3438h-1.5478A.48552.48552,0,0,1,148.1411,4.9873Z"/><path class="cls-2" d="M153.7671,4.5088c0-.71.5234-1.1817,1.4502-1.1817h.8076V3.1328c0-.7022-.2168-.9492-.78519-.9492a1.04379,1.04379,0,0,0-.62791.165.98451.98451,0,0,0-.1416.5225h-.2773c-.11919,0-.1944-.0293-.1944-.1045V2.1464a1.91676,1.91676,0,0,1,1.3008-.4638,1.22246,1.22246,0,0,1,1.3467,1.3008V4.83a.47493.47493,0,0,0,.0293.1797h.456a.67225.67225,0,0,1,.045.2842,1.55411,1.55411,0,0,1-.7178.1875c-.2022,0-.34379-.2246-.4111-.3965a1.90982,1.90982,0,0,1-1.1661.4033C154.0513,5.4882,153.7671,5.0175,153.7671,4.5088Zm2.2578.0449V3.7685H155.27c-.5156,0-.8828.2324-.8828.6729,0,.3886.2168.5537.5908.5537A1.43446,1.43446,0,0,0,156.0249,4.5537Z"/><path class="cls-2" d="M157.44971,5.0175c.41889,0,.51659,0,.51659-.1718V2.4004c0-.1416-.0303-.1866-.1055-.1866h-.41109a1.20129,1.20129,0,0,1-.05181-.2324c0-.0596.0293-.0898.1045-.1191a3.182,3.182,0,0,1,.8369-.1797c.19441,0,.2471.1045.2471.2314v.3369a1.489,1.489,0,0,1,1.1289-.5683,1.169,1.169,0,0,1,1.1963,1.3008V4.8379c0,.165.0674.1796.4043.1796.0596,0,.1045.0293.1045.0674a.8833.8833,0,0,1-.0605.3135h-1.502a.46441.46441,0,0,1-.0605-.3809c.4111,0,.4941,0,.4941-.1718V3.2304c0-.7031-.1943-.9941-.7256-.9941a1.41832,1.41832,0,0,0-.9795.5976v2.004c0,.165.0528.1796.374.1796.0596,0,.1045.0293.1045.0674a.90255.90255,0,0,1-.0595.3135h-1.4961A.46806.46806,0,0,1,157.44971,5.0175Z"/><path class="cls-2" d="M161.7749,6.124a1.03034,1.03034,0,0,1,.6357-.9121.59128.59128,0,0,1-.2988-.4864.75736.75736,0,0,1,.4483-.665,1.20234,1.20234,0,0,1-.5831-1.0996,1.29261,1.29261,0,0,1,1.4502-1.2783,1.59118,1.59118,0,0,1,.711.1494l1.1211-.1641c.0595-.0078.1347.0293.1347.0742a2.58921,2.58921,0,0,1-.0752.4561h-.7246a1.10434,1.10434,0,0,1,.2764.7783,1.26561,1.26561,0,0,1-1.4434,1.3076,1.85121,1.85121,0,0,1-.4629-.0439c-.1494.082-.2695.1787-.2695.3506,0,.2773.2617.3818.9942.3818,1.13671,0,1.5332.3584,1.5332,1.0166,0,.7178-.6807,1.2041-1.8096,1.1963C162.4028,7.1777,161.7749,6.7441,161.7749,6.124Zm2.8564-.1045c0-.3818-.2021-.5537-1.09859-.5537a2.74139,2.74139,0,0,1-.71091-.0674.70047.70047,0,0,0-.4336.666c.0078.3955.3594.6426,1.0693.6426C164.2505,6.707,164.6313,6.4531,164.6313,6.0195Zm-.374-3.0508a.76632.76632,0,0,0-.8369-.8525.775.775,0,0,0-.8301.8525.78081.78081,0,0,0,.8301.8818A.77246.77246,0,0,0,164.2573,2.9687Z"/><path class="cls-2" d="M165.772,4.5088c0-.71.5234-1.1817,1.4502-1.1817h.8076V3.1328c0-.7022-.2168-.9492-.7852-.9492a1.04373,1.04373,0,0,0-.62789.165.98451.98451,0,0,0-.14161.5225h-.27739c-.11911,0-.19431-.0293-.19431-.1045V2.1464a1.91676,1.91676,0,0,1,1.3008-.4638,1.22246,1.22246,0,0,1,1.3467,1.3008V4.83a.47512.47512,0,0,0,.0293.1797h.456a.67251.67251,0,0,1,.0449.2842,1.55365,1.55365,0,0,1-.7177.1875c-.2022,0-.3438-.2246-.4112-.3965a1.90929,1.90929,0,0,1-1.166.4033C166.0561,5.4882,165.772,5.0175,165.772,4.5088Zm2.2578.0449V3.7685h-.7549c-.5156,0-.8828.2324-.8828.6729,0,.3886.2168.5537.5908.5537A1.43477,1.43477,0,0,0,168.0298,4.5537Z"/><path class="cls-2" d="M169.5522,3.582a1.79047,1.79047,0,1,1,3.5743,0,1.79087,1.79087,0,1,1-3.5743,0Zm2.9454,0c0-.875-.4786-1.3906-1.1583-1.3906-.68059,0-1.1591.5156-1.1591,1.3906,0,.8594.47851,1.3984,1.1591,1.3984C172.019,4.9804,172.4976,4.4414,172.4976,3.582Z"/><path class="cls-2" d="M173.6753,5.0175c.4189,0,.5156,0,.5156-.1718V2.4004c0-.1416-.0293-.1866-.1045-.1866h-.4111a1.20191,1.20191,0,0,1-.0518-.2324c0-.0596.0293-.0898.1045-.1191a3.182,3.182,0,0,1,.8369-.1797c.1944,0,.2471.1045.2471.2314v.3369a1.489,1.489,0,0,1,1.1289-.5683,1.169,1.169,0,0,1,1.1963,1.3008V4.8379c0,.165.0674.1796.4033.1796.0606,0,.1055.0293.1055.0674a.88121.88121,0,0,1-.0606.3135h-1.5019a.46438.46438,0,0,1-.0606-.3809c.4112,0,.4942,0,.4942-.1718V3.2304c0-.7031-.19439-.9941-.7256-.9941a1.41814,1.41814,0,0,0-.9795.5976v2.004c0,.165.05271.1796.374.1796.0596,0,.1045.0293.1045.0674a.90255.90255,0,0,1-.0595.3135h-1.4961A.46771.46771,0,0,1,173.6753,5.0175Z"/><path class="cls-2" d="M185.0268,5.0546a1.09562,1.09562,0,0,1-.0527.3438h-1.6445a.50367.50367,0,0,1-.0528-.4033c.3594,0,.5088-.0674.4122-.1875l-1.5479-1.9658-.5762.5078V4.8007c0,.1719.1045.1866.3662.1866.0674,0,.0977.0224.0977.0673a1.09853,1.09853,0,0,1-.0527.3438h-1.5547a.48518.48518,0,0,1-.0674-.4111c.4482,0,.5605-.0293.5605-.1797V.9726c0-.1426-.08979-.1719-.4257-.1719-.0674,0-.0977-.0224-.0977-.0673a1.03369,1.03369,0,0,1,.0527-.3291h1.5547a.45492.45492,0,0,1,.0674.3964c-.4258,0-.501.0147-.501.1641V2.6992L183.5991.913c.1045-.0898.0674-.1123-.3291-.1123-.0674,0-.0976-.0224-.0976-.0673a1.03089,1.03089,0,0,1,.0527-.3291h1.51761a.48125.48125,0,0,1,.05949.3964c-.3281,0-.3886.0293-.5009.1338l-1.7198,1.5186,1.8623,2.3545c.08991.1123.127.1797.4864.1797C184.9966,4.9873,185.0268,5.0097,185.0268,5.0546Z"/><path class="cls-2" d="M185.2925,3.582a1.79042,1.79042,0,1,1,3.57421,0,1.79083,1.79083,0,1,1-3.57421,0Zm2.9453,0c0-.875-.4785-1.3906-1.1582-1.3906-.6807,0-1.1592.5156-1.1592,1.3906,0,.8594.4785,1.3984,1.1592,1.3984C187.7593,4.9804,188.2378,4.4414,188.2378,3.582Z"/><path class="cls-2" d="M189.4155,5.0175c.419,0,.5156,0,.5156-.1796V2.4004c0-.1416-.0293-.1866-.10439-.1866h-.41121a1.20818,1.20818,0,0,1-.0517-.2324c0-.0596.0293-.0898.1045-.1191a3.159,3.159,0,0,1,.81441-.1797c.19429,0,.24709.1045.24709.2314v.4268a1.07348,1.07348,0,0,1,.9492-.6582,1.0088,1.0088,0,0,1,.6436.2168v.7929c0,.0743-.0528.1045-.1651.1045h-.291a1.26718,1.26718,0,0,0-.0674-.5088.39337.39337,0,0,0-.2842-.082c-.1797,0-.6054.2315-.7627.8975V4.8379c0,.1718.0528.1796.5088.1796.0518,0,.1045.0225.1045.0674a.90255.90255,0,0,1-.0595.3135h-1.6231A.42593.42593,0,0,1,189.4155,5.0175Z"/><path class="cls-2" d="M192.5688,3.5293a1.69088,1.69088,0,0,1,1.6748-1.8467,1.55622,1.55622,0,0,1,1.6153,1.7724.2362.2362,0,0,1-.2549.2539h-2.4072c.0078.8223.3965,1.2715,1.1513,1.2715a1.40027,1.40027,0,0,0,1.1143-.5166l.2314.2842c.0674.0752.045.1426-.0595.2549a1.906,1.906,0,0,1-1.3311.4853C193.1665,5.4882,192.5688,4.7783,192.5688,3.5293Zm2.669-.2618a.95644.95644,0,0,0-.9942-1.0693,1.0256,1.0256,0,0,0-1.039,1.0693Z"/><path class="cls-2" d="M196.4311,4.5088c0-.71.5235-1.1817,1.4502-1.1817h.80769V3.1328c0-.7022-.2168-.9492-.78519-.9492a1.04357,1.04357,0,0,0-.6279.165.98361.98361,0,0,0-.1416.5225h-.2774c-.1191,0-.1943-.0293-.1943-.1045V2.1464a1.91655,1.91655,0,0,1,1.30079-.4638,1.22246,1.22246,0,0,1,1.3467,1.3008V4.83a.47685.47685,0,0,0,.0292.1797h.4561a.6722.6722,0,0,1,.0449.2842,1.55368,1.55368,0,0,1-.7177.1875c-.2022,0-.3438-.2246-.4112-.3965a1.90974,1.90974,0,0,1-1.166.4033C196.7153,5.4882,196.4311,5.0175,196.4311,4.5088Zm2.25789.0449V3.7685h-.7549c-.51559,0-.88279.2324-.88279.6729,0,.3886.2168.5537.5908.5537A1.43478,1.43478,0,0,0,198.689,4.5537Z"/><path class="cls-2" d="M200.11379,5.0175c.41892,0,.5166,0,.5166-.1718V2.4004c0-.1416-.0303-.1866-.1055-.1866h-.4111a1.20191,1.20191,0,0,1-.0518-.2324c0-.0596.0293-.0898.1045-.1191a3.18132,3.18132,0,0,1,.8369-.1797c.19432,0,.2471.1045.2471.2314v.3369a1.489,1.489,0,0,1,1.1289-.5683,1.169,1.169,0,0,1,1.19632,1.3008V4.8379c0,.165.06738.1796.40428.1796.0595,0,.1045.0293.1045.0674a.88121.88121,0,0,1-.0606.3135H202.522a.46438.46438,0,0,1-.0606-.3809c.4112,0,.4942,0,.4942-.1718V3.2304c0-.7031-.1944-.9941-.7256-.9941a1.41812,1.41812,0,0,0-.9795.5976v2.004c0,.165.0527.1796.374.1796.0596,0,.1045.0293.1045.0674a.90265.90265,0,0,1-.0596.3135h-1.4961A.46809.46809,0,0,1,200.11379,5.0175Z"/><path class="cls-2" d="M206.78471,4.9873c.44918,0,.56048-.0293.56048-.1797V.9726c0-.1426-.0889-.1719-.4258-.1719-.0674,0-.09668-.0224-.09668-.0673a1.06132,1.06132,0,0,1,.05178-.3291h1.249l1.7344,4.3662,1.7119-4.3662h1.1817a.48869.48869,0,0,1,.0595.3964c-.3808,0-.5009.0372-.5009.1719v3.835c0,.1426.1044.1797.47162.1797.06638,0,.09668.0224.09668.0673a1.09624,1.09624,0,0,1-.05268.3438h-1.45712a.51857.51857,0,0,1-.0527-.4111c.3067,0,.4111-.0371.4111-.1866V1.4287l-1.5849,3.9697h-.5606a.12392.12392,0,0,1-.1269-.0742l-1.5254-3.836V4.8007c0,.1719.10452.1866.3291.1866.06642,0,.0967.0224.0967.0673a1.09538,1.09538,0,0,1-.0528.3438H206.852A.48543.48543,0,0,1,206.78471,4.9873Z"/><path class="cls-2" d="M213.46339,3.5293a1.69083,1.69083,0,0,1,1.6748-1.8467,1.5562,1.5562,0,0,1,1.6152,1.7724.23615.23615,0,0,1-.2549.2539h-2.4072c.0078.8223.3965,1.2715,1.15142,1.2715a1.40021,1.40021,0,0,0,1.11418-.5166l.2315.2842c.0674.0752.0449.1426-.0596.2549a1.90593,1.90593,0,0,1-1.33108.4853C214.061,5.4882,213.46339,4.7783,213.46339,3.5293Zm2.6689-.2618a.95631.95631,0,0,0-.9941-1.0693,1.02568,1.02568,0,0,0-1.0391,1.0693Z"/><path class="cls-2" d="M217.32571,3.6787c0-1.293.64258-1.9961,1.70508-1.9961a1.59925,1.59925,0,0,1,.8291.2246V.7177c0-.1416-.0293-.1865-.1045-.1865h-.4112a1.21683,1.21683,0,0,1-.0517-.2314c0-.0606.0293-.0899.1045-.1202A3.17642,3.17642,0,0,1,220.23389,0c.1943,0,.2471.1054.2471.2324V4.5537a1.76911,1.76911,0,0,0,.0449.3965h.3662a1.04855,1.04855,0,0,1,.0449.3437,1.06991,1.06991,0,0,1-.666.1875c-.127,0-.3135-.2695-.3809-.5088a1.53827,1.53827,0,0,1-1.10638.5156C217.939,5.4882,217.32571,4.8974,217.32571,3.6787Zm2.53418.7558V2.4677a1.2754,1.2754,0,0,0-.8448-.2841c-.65038,0-1.0615.4863-1.0615,1.4804,0,.8819.3516,1.3086.957,1.3086A1.26983,1.26983,0,0,0,219.85989,4.4345Z"/><path class="cls-2" d="M221.397,5.0175c.4189,0,.5166,0,.5166-.1718V2.5127c0-.1426-.0303-.1866-.1055-.1866h-.4111a1.16813,1.16813,0,0,1-.0518-.2392c0-.0528.0293-.083.10452-.1123a3.18085,3.18085,0,0,1,.83688-.1797c.1944,0,.24712.1045.24712.2314V4.8379c0,.1718.05958.1796.39648.1796.05952,0,.10452.0293.10452.0674a.938.938,0,0,1-.05962.3135h-1.5186A.43552.43552,0,0,1,221.397,5.0175Zm.34372-4.4267a.43752.43752,0,0,1,.875,0,.43752.43752,0,0,1-.875,0Z"/><path class="cls-2" d="M223.57179,3.5293a1.69716,1.69716,0,0,1,1.7422-1.8467,2.005,2.005,0,0,1,1.3378.4189V2.916c-.0224.0752-.0673.1054-.1718.1054h-.3438a1.13674,1.13674,0,0,0-.1123-.621,1.01878,1.01878,0,0,0-.7178-.209c-.6201,0-1.10638.4629-1.10638,1.3379,0,.9726.40328,1.4511,1.18158,1.4511a1.35865,1.35865,0,0,0,1.0918-.5088l.2393.2696c.0664.082.0439.1494-.0674.2539a1.80125,1.80125,0,0,1-1.3164.4931C224.20749,5.4882,223.57179,4.8379,223.57179,3.5293Z"/><path class="cls-2" d="M227.33639,5.0175c.419,0,.5166,0,.5166-.1718V2.5127c0-.1426-.03028-.1866-.1054-.1866h-.4112a1.1737,1.1737,0,0,1-.05168-.2392c0-.0528.02928-.083.10448-.1123a3.18115,3.18115,0,0,1,.8369-.1797c.1943,0,.247.1045.247.2314V4.8379c0,.1718.05962.1796.3965.1796.0596,0,.1045.0293.1045.0674a.935.935,0,0,1-.0596.3135H227.396A.43555.43555,0,0,1,227.33639,5.0175Zm.3438-4.4267a.43752.43752,0,0,1,.875,0,.43752.43752,0,0,1-.875,0Z"/><path class="cls-2" d="M229.52489,5.0175c.4189,0,.5156,0,.5156-.1718V2.4004c0-.1416-.0293-.1866-.1045-.1866h-.4111a1.20191,1.20191,0,0,1-.0518-.2324c0-.0596.0293-.0898.1045-.1191a3.182,3.182,0,0,1,.8369-.1797c.1944,0,.2471.1045.2471.2314v.3369a1.489,1.489,0,0,1,1.1289-.5683,1.169,1.169,0,0,1,1.1963,1.3008V4.8379c0,.165.0674.1796.4033.1796.06062,0,.1055.0293.1055.0674a.8833.8833,0,0,1-.0605.3135h-1.502a.46437.46437,0,0,1-.0605-.3809c.41112,0,.49412,0,.49412-.1718V3.2304c0-.7031-.19432-.9941-.72562-.9941a1.41836,1.41836,0,0,0-.9795.5976v2.004c0,.165.0527.1796.374.1796.0596,0,.1045.0293.1045.0674a.90209.90209,0,0,1-.0595.3135h-1.4961A.46771.46771,0,0,1,229.52489,5.0175Z"/><path class="cls-2" d="M233.96339,3.5293a1.69083,1.69083,0,0,1,1.6748-1.8467,1.5562,1.5562,0,0,1,1.6152,1.7724.23615.23615,0,0,1-.2549.2539h-2.4072c.0078.8223.3965,1.2715,1.15142,1.2715a1.40021,1.40021,0,0,0,1.11418-.5166l.2315.2842c.0674.0752.0449.1426-.0596.2549a1.90593,1.90593,0,0,1-1.33108.4853C234.561,5.4882,233.96339,4.7783,233.96339,3.5293Zm2.6689-.2618a.95631.95631,0,0,0-.9941-1.0693,1.02568,1.02568,0,0,0-1.0391,1.0693Z"/><path class="cls-2" d="M240.022,2.8418a2.39852,2.39852,0,0,1,2.4746-2.542,2.6816,2.6816,0,0,1,1.7344.6279v.8896c-.0225.0743-.0674.1045-.1719.1045h-.3662a1.46631,1.46631,0,0,0-.0977-.7324,1.60409,1.60409,0,0,0-1.0986-.3515,1.794,1.794,0,0,0-1.8174,1.9892c0,1.2559.6504,2.168,1.8174,2.168a1.99194,1.99194,0,0,0,1.5322-.6504l.25492.2988c.06738.0752.05168.1416-.06742.2539a2.3065,2.3065,0,0,1-1.7197.6358A2.42493,2.42493,0,0,1,240.022,2.8418Z"/><path class="cls-2" d="M244.89989,5.0175c.4189,0,.5156,0,.5156-.1718V.7177c0-.1416-.0293-.1865-.1045-.1865h-.4111a1.16268,1.16268,0,0,1-.0527-.2392c0-.0528.0302-.0821.1054-.1124A3.17807,3.17807,0,0,1,245.78949,0c.1944,0,.2471.1054.2471.2324V4.8379c0,.1718.0518.1796.3955.1796.06062,0,.1055.0293.1055.0674a.91526.91526,0,0,1-.0606.3135h-1.5175A.43523.43523,0,0,1,244.89989,5.0175Z"/><path class="cls-2" d="M247.08839,5.0175c.4189,0,.5166,0,.5166-.1718V2.5127c0-.1426-.03028-.1866-.1055-.1866h-.4111a1.16813,1.16813,0,0,1-.0518-.2392c0-.0528.0293-.083.1045-.1123a3.182,3.182,0,0,1,.8369-.1797c.1944,0,.2471.1045.2471.2314V4.8379c0,.1718.05962.1796.3965.1796.0595,0,.1045.0293.1045.0674a.93793.93793,0,0,1-.0596.3135h-1.5186A.43552.43552,0,0,1,247.08839,5.0175Zm.3437-4.4267a.43752.43752,0,0,1,.875,0,.43752.43752,0,0,1-.875,0Z"/><path class="cls-2" d="M249.27679,5.0175c.419,0,.5157,0,.5157-.1718V2.4004c0-.1416-.0293-.1866-.1045-.1866h-.4112a1.20818,1.20818,0,0,1-.0517-.2324c0-.0596.0293-.0898.1045-.1191a3.18115,3.18115,0,0,1,.8369-.1797c.1943,0,.2471.1045.2471.2314v.3369a1.489,1.489,0,0,1,1.1289-.5683,1.169,1.169,0,0,1,1.1963,1.3008V4.8379c0,.165.0673.1796.4033.1796.0605,0,.1055.0293.1055.0674a.88121.88121,0,0,1-.0606.3135h-1.5019a.46438.46438,0,0,1-.0606-.3809c.4111,0,.4941,0,.4941-.1718V3.2304c0-.7031-.1943-.9941-.7255-.9941a1.41812,1.41812,0,0,0-.9795.5976v2.004c0,.165.0527.1796.374.1796.0596,0,.1045.0293.1045.0674a.90265.90265,0,0,1-.0596.3135h-1.4961A.46848.46848,0,0,1,249.27679,5.0175Z"/><path class="cls-2" d="M253.80419,5.0175c.4189,0,.5156,0,.5156-.1718V2.5127c0-.1426-.0293-.1866-.1045-.1866h-.4111a1.16947,1.16947,0,0,1-.0518-.2392c0-.0528.02932-.083.1045-.1123a3.182,3.182,0,0,1,.8369-.1797c.1944,0,.2471.1045.2471.2314V4.8379c0,.1718.0596.1796.3965.1796.0596,0,.1045.0293.1045.0674a.93793.93793,0,0,1-.0596.3135h-1.5185A.43529.43529,0,0,1,253.80419,5.0175Zm.3437-4.4267a.43752.43752,0,0,1,.875,0,.43752.43752,0,0,1-.875,0Z"/><path class="cls-2" d="M255.978,3.5293a1.69721,1.69721,0,0,1,1.7422-1.8467,2.00533,2.00533,0,0,1,1.3379.4189V2.916c-.0225.0752-.06738.1054-.1719.1054h-.3437a1.13674,1.13674,0,0,0-.1123-.621,1.01912,1.01912,0,0,0-.7178-.209c-.6201,0-1.1064.4629-1.1064,1.3379,0,.9726.4033,1.4511,1.1816,1.4511a1.35881,1.35881,0,0,0,1.0918-.5088l.2392.2696c.0665.082.044.1494-.0673.2539a1.80125,1.80125,0,0,1-1.3164.4931C256.61379,5.4882,255.978,4.8379,255.978,3.5293Z"/><path class="cls-3" d="M15.6502,13.408a.81991.81991,0,0,1-.8197-.8197V5.4372a.8197.8197,0,0,1,1.6394,0v7.1511A.8199.8199,0,0,1,15.6502,13.408Z"/><path class="cls-3" d="M43.2322,13.408H1.8373a.81965.81965,0,0,1,0-1.6393H43.2322a.81965.81965,0,0,1,0,1.6393Z"/><path class="cls-3" d="M30.4626,38.9467a.81984.81984,0,0,1-.8197-.8197V34.0411a.8196.8196,0,1,1,1.6392,0V38.127A.81973.81973,0,0,1,30.4626,38.9467Z"/><path class="cls-3" d="M43.2322,38.9467H1.348a.81965.81965,0,1,1,0-1.6393H43.2322a.81965.81965,0,0,1,0,1.6393Z"/><path class="cls-3" d="M43.7429,20.0478H29.7053a.81982.81982,0,0,1-.8197-.8196V5.4372a.8197.8197,0,0,1,1.6394,0V18.4086H43.7429a.8196.8196,0,1,1,0,1.6392Z"/><path class="cls-3" d="M21.5238,21.6162H9.7761a3.11825,3.11825,0,1,1,0-6.2365H21.5238a3.11825,3.11825,0,1,1,0,6.2365ZM9.7761,17.0191a1.4789,1.4789,0,1,0,0,2.9578H21.5238a1.4789,1.4789,0,1,0,0-2.9578Z"/><path class="cls-3" d="M36.8473,34.3501H25.0996a3.11825,3.11825,0,1,1,0-6.2365H36.8473a3.11825,3.11825,0,0,1,0,6.2365ZM25.0996,29.7529a1.479,1.479,0,1,0,0,2.9579H36.8473a1.479,1.479,0,0,0,0-2.9579Z"/><path class="cls-3" d="M43.7429,26.1776H20.7575a.8198.8198,0,0,1-.8196-.8196V20.7966a.8196.8196,0,1,1,1.6392,0v3.7417H43.7429a.81965.81965,0,0,1,0,1.6393Z"/><path class="cls-3" d="M39.6921,45.0764H20.7575a.8198.8198,0,0,1-.8196-.8196V39.0417a.8196.8196,0,0,1,1.6392,0v4.3955h18.115a.8196.8196,0,1,1,0,1.6392Z"/><path class="cls-3" d="M11.053,48.6517a.81988.81988,0,0,1-.8197-.8196V26.096H1.85871a.8197.8197,0,1,1,0-1.6394H11.053a.82.82,0,0,1,.81971.8197V47.8321A.81989.81989,0,0,1,11.053,48.6517Z"/><path class="cls-3" d="M16.1608,49.1624a.8198.8198,0,0,1-.8196-.8196V31.4872a.81988.81988,0,0,1,.8196-.8197h6.64a.81965.81965,0,0,1,0,1.6393H16.9805v16.036A.81982.81982,0,0,1,16.1608,49.1624Z"/><path class="cls-3" d="M35.1851,49.4356H9.90571A5.69734,5.69734,0,0,1,4.3838,45.0514,5.69612,5.69612,0,0,1,0,39.5299V14.2505A5.70214,5.70214,0,0,1,4.3832,8.7286,5.69932,5.69932,0,0,1,9.90571,4.3444H35.1851a5.69931,5.69931,0,0,1,5.5225,4.3842,5.70142,5.70142,0,0,1,4.3837,5.5219V39.5299a5.69755,5.69755,0,0,1-4.3842,5.522A5.69772,5.69772,0,0,1,35.1851,49.4356ZM6.4195,9.6977a1.09274,1.09274,0,0,1-1.0107,1.0779,3.50028,3.50028,0,0,0-3.223,3.4749V39.5299A3.4972,3.4972,0,0,0,5.419,43.005a1.09338,1.09338,0,0,1,1.0112,1.0111,3.4981,3.4981,0,0,0,3.47551,3.2338H35.1851a3.498,3.498,0,0,0,3.4755-3.2338,1.0934,1.0934,0,0,1,1.0112-1.0111,3.49756,3.49756,0,0,0,3.2337-3.4751V14.2505a3.50108,3.50108,0,0,0-3.2236-3.4749,1.09268,1.09268,0,0,1-1.0107-1.0822,1.06468,1.06468,0,0,1-.0341-.1542,3.50046,3.50046,0,0,0-3.452-3.0091H9.90571a3.50045,3.50045,0,0,0-3.452,3.0091A1.17045,1.17045,0,0,1,6.4195,9.6977Z"/></g></g></svg>