<svg xmlns="http://www.w3.org/2000/svg" viewBox="0 0 341.71736 113.0444"><defs><style>.cls-1{fill:#1b1b1b;}.cls-2{fill:#c2996c;}</style></defs><g id="Layer_2" data-name="Layer 2"><g id="레이어_1" data-name="레이어 1"><path class="cls-1" d="M176.6304,16.69114H137.01572v-6.291h16.17473V2.0884H160.53v8.31176H176.6304Zm-19.77,30.33076a20.64648,20.64648,0,0,1-7.03979-1.08718,15.24535,15.24535,0,0,1-5.01648-2.88253,11.8624,11.8624,0,0,1-3.03358-4.08035A11.45083,11.45083,0,0,1,140.76,34.28912V32.04268a11.51088,11.51088,0,0,1,4.044-8.7991,15.71766,15.71766,0,0,1,5.01648-2.84442,23.33514,23.33514,0,0,1,14.07935,0,15.30373,15.30373,0,0,1,5.01648,2.88276,11.85554,11.85554,0,0,1,3.03382,4.08035,11.45647,11.45647,0,0,1,1.0105,4.68041v2.24644a11.451,11.451,0,0,1-1.0105,4.68272,11.85984,11.85984,0,0,1-3.03382,4.08035,15.26672,15.26672,0,0,1-5.01648,2.88253A20.65349,20.65349,0,0,1,156.86036,47.0219Zm0-5.91634a12.01564,12.01564,0,0,0,3.96971-.60007,8.24825,8.24825,0,0,0,2.84442-1.61033,6.57657,6.57657,0,0,0,1.68494-2.321,6.68976,6.68976,0,0,0,.5615-2.65941V32.41709a6.68638,6.68638,0,0,0-.5615-2.6571,6.59513,6.59513,0,0,0-1.68494-2.321,8.287,8.287,0,0,0-2.80835-1.61056,13.676,13.676,0,0,0-8.01176,0,8.286,8.286,0,0,0-2.80815,1.61056,6.59181,6.59181,0,0,0-1.68491,2.321,6.68619,6.68619,0,0,0-.56175,2.6571v1.49762a6.68958,6.68958,0,0,0,.56175,2.65941,6.57327,6.57327,0,0,0,1.68491,2.321,8.22363,8.22363,0,0,0,2.84419,1.61033A12.00755,12.00755,0,0,0,156.86036,41.10556Zm-.90006,23.51455H192.582v6.4395h-44.0336V51.964h7.41189Zm44.55909-34.89846h-9.80964V52.86156h-7.33959V2.76284h7.33959V23.28192h9.80964Z"/><path class="cls-1" d="M207.80077,50.68951q5.992-3.51862,10.148-6.25241a81.99748,81.99748,0,0,0,6.8885-4.98045,28.80893,28.80893,0,0,0,4.306-4.2314,14.72474,14.72474,0,0,0,2.32312-4.006,16.00782,16.00782,0,0,0,.93613-4.15472q.186-2.13487.18708-4.83147V15.56792H209.14964V9.20257h30.77747V22.30745q0,3.4476-.18709,6.142a19.3212,19.3212,0,0,1-1.04676,5.1292,18.26028,18.26028,0,0,1-2.62084,4.79313,31.38893,31.38893,0,0,1-4.90607,5.01647,94.32353,94.32353,0,0,1-7.90132,5.88032q-4.75687,3.221-11.56892,7.33728ZM271.08129,34.7402h-10.6351V71.80865H253.0343V2.76284h7.41189V28.2984h10.6351Z"/><path class="cls-1" d="M310.04,3.58626a36.452,36.452,0,0,1,9.28623,1.08718A24.79288,24.79288,0,0,1,326.32975,7.592a13.30416,13.30416,0,0,1,4.38038,4.34435A10.16194,10.16194,0,0,1,332.208,17.2166v2.24666a10.01228,10.01228,0,0,1-1.23616,4.82916,12.80516,12.80516,0,0,1-3.59531,4.08266,20.77741,20.77741,0,0,1-5.80363,2.99524,32.129,32.129,0,0,1-7.7886,1.57223V39.3079h27.93308v6.29075h-63.3547V39.3079h27.933V32.94255a32.12841,32.12841,0,0,1-7.78857-1.57223,20.81,20.81,0,0,1-5.80366-2.99524,12.82489,12.82489,0,0,1-3.593-4.08266,10.0096,10.0096,0,0,1-1.23616-4.82916V17.2166a10.14,10.14,0,0,1,1.49789-5.28025A13.26139,13.26139,0,0,1,293.75232,7.592a24.75277,24.75277,0,0,1,7.00145-2.91856A36.47651,36.47651,0,0,1,310.04,3.58626ZM294.91411,64.62011H333.929v6.4395H287.49991V50.68951h7.4142ZM310.04,26.95183a27.86211,27.86211,0,0,0,6.21638-.63609,17.28318,17.28318,0,0,0,4.68045-1.72328A9.34891,9.34891,0,0,0,323.896,22.0841a4.88,4.88,0,0,0,1.04676-2.92087V17.51432a4.87879,4.87879,0,0,0-1.04676-2.91856,9.35383,9.35383,0,0,0-2.95918-2.51066,17.361,17.361,0,0,0-4.68045-1.721,30.682,30.682,0,0,0-12.43044,0,17.36076,17.36076,0,0,0-4.68042,1.721,9.32554,9.32554,0,0,0-2.95921,2.51066,4.867,4.867,0,0,0-1.04884,2.91856v1.64891a4.86823,4.86823,0,0,0,1.04884,2.92087,9.32063,9.32063,0,0,0,2.95921,2.50836,17.283,17.283,0,0,0,4.68042,1.72328A27.82606,27.82606,0,0,0,310.04,26.95183Z"/><path class="cls-1" d="M152.09551,89.234H137.01572V86.83922h6.1571v-3.164h2.7939v3.164h6.12879Zm-7.5257,11.54576a7.85945,7.85945,0,0,1-2.67977-.41385,5.80322,5.80322,0,0,1-1.9095-1.09727,4.51471,4.51471,0,0,1-1.15485-1.55323,4.35887,4.35887,0,0,1-.38466-1.78254V95.0777a4.38155,4.38155,0,0,1,1.53951-3.34948,5.98272,5.98272,0,0,1,1.9095-1.08276,8.88272,8.88272,0,0,1,5.35946,0,5.82546,5.82546,0,0,1,1.90959,1.09735,4.513,4.513,0,0,1,1.15485,1.55324,4.36086,4.36086,0,0,1,.38466,1.78165v.85513a4.35887,4.35887,0,0,1-.38466,1.78254,4.51471,4.51471,0,0,1-1.15485,1.55323,5.81159,5.81159,0,0,1-1.90959,1.09727A7.86211,7.86211,0,0,1,144.56981,100.77972Zm0-2.25213a4.57407,4.57407,0,0,0,1.51112-.22842,3.139,3.139,0,0,0,1.08276-.613,2.50241,2.50241,0,0,0,.64139-.88353,2.54648,2.54648,0,0,0,.21374-1.01234v-.57009a2.5451,2.5451,0,0,0-.21374-1.01145,2.50927,2.50927,0,0,0-.64139-.88353,3.15378,3.15378,0,0,0-1.069-.61308,5.20613,5.20613,0,0,0-3.04985,0,3.15378,3.15378,0,0,0-1.069.61308,2.5093,2.5093,0,0,0-.6414.88353,2.54538,2.54538,0,0,0-.21382,1.01145v.57009a2.54676,2.54676,0,0,0,.21382,1.01234,2.50243,2.50243,0,0,0,.6414.88353,3.13127,3.13127,0,0,0,1.08267.613A4.57093,4.57093,0,0,0,144.56981,98.52759Zm-.34263,8.95109h13.9405V109.93H141.40576v-7.269h2.82142Zm16.96194-13.28451h-3.734v8.80848h-2.794V83.932h2.794v7.81082h3.734Z"/><path class="cls-1" d="M163.35543,97.78658V85.21477H166.121v4.24752h6.75647V85.21477h2.76471V97.78658Zm2.76559-2.39465h6.75647V91.82871H166.121Zm.96935,9.49287a3.73476,3.73476,0,0,1,.54177-1.93877,4.745,4.745,0,0,1,1.56792-1.56783,8.7047,8.7047,0,0,1,2.49426-1.04064,14.5295,14.5295,0,0,1,6.64225,0,8.73779,8.73779,0,0,1,2.49427,1.04064,4.762,4.762,0,0,1,1.56782,1.56783,3.74211,3.74211,0,0,1,.5409,1.93877V106.025a3.7391,3.7391,0,0,1-.5409,1.9379,4.762,4.762,0,0,1-1.56782,1.56782,8.73779,8.73779,0,0,1-2.49427,1.04065,14.5295,14.5295,0,0,1-6.64225,0,8.7047,8.7047,0,0,1-2.49426-1.04065,4.74493,4.74493,0,0,1-1.56792-1.56782,3.73176,3.73176,0,0,1-.54177-1.9379Zm13.08448.17083a1.79194,1.79194,0,0,0-.35635-1.026,3.09724,3.09724,0,0,0-1.026-.89812,6.46936,6.46936,0,0,0-1.62533-.62759,9.685,9.685,0,0,0-4.30423,0,6.43662,6.43662,0,0,0-1.62453.62759,3.09207,3.09207,0,0,0-1.02693.89812,1.78546,1.78546,0,0,0-.35626,1.026v.79763a1.79,1.79,0,0,0,.35626,1.02693,3.08921,3.08921,0,0,0,1.02693.89725,6.4073,6.4073,0,0,0,1.62453.62767,9.685,9.685,0,0,0,4.30423,0,6.43976,6.43976,0,0,0,1.62533-.62767,3.09437,3.09437,0,0,0,1.026-.89725,1.79656,1.79656,0,0,0,.35635-1.02693Zm6.38552-12.57181h-3.73414v7.12644h-2.7939V83.932h2.7939v6.10048h3.73414Z"/><path class="cls-1" d="M189.01086,97.78658V85.21477h2.76558v4.24752h6.75646V85.21477h2.76472V97.78658Zm2.76558-2.39465h6.75646V91.82871h-6.75646Zm1.59614,9.49287a3.64251,3.64251,0,0,1,.55637-1.95337,4.8979,4.8979,0,0,1,1.59623-1.55323,8.90532,8.90532,0,0,1,2.53716-1.04064,15.023,15.023,0,0,1,6.75559,0,8.90551,8.90551,0,0,1,2.53717,1.04064,4.8981,4.8981,0,0,1,1.59623,1.55323,3.64259,3.64259,0,0,1,.55637,1.95337V106.025a3.6394,3.6394,0,0,1-.55637,1.95249,5.03117,5.03117,0,0,1-1.59623,1.56783,8.39188,8.39188,0,0,1-2.53717,1.04065,15.60077,15.60077,0,0,1-6.75559,0,8.39171,8.39171,0,0,1-2.53716-1.04065,5.031,5.031,0,0,1-1.59623-1.56783,3.63931,3.63931,0,0,1-.55637-1.95249Zm13.36954.17083a1.72585,1.72585,0,0,0-.37008-1.04064,3.30631,3.30631,0,0,0-1.05524-.88353,6.65964,6.65964,0,0,0-1.66744-.62759,10.19919,10.19919,0,0,0-4.41843,0,6.65965,6.65965,0,0,0-1.66746.62759,3.31631,3.31631,0,0,0-1.05524.88353,1.72027,1.72027,0,0,0-.37006,1.04064v.79763a1.71839,1.71839,0,0,0,.37006,1.04065,3.30519,3.30519,0,0,0,1.05524.88353,6.62952,6.62952,0,0,0,1.66746.62767,10.19919,10.19919,0,0,0,4.41843,0,6.62951,6.62951,0,0,0,1.66744-.62767,3.29526,3.29526,0,0,0,1.05524-.88353,1.724,1.724,0,0,0,.37008-1.04065Zm-.11335-5.44537v-4.105h-4.16258v-2.423h4.16258V90.40341h-4.16258V87.97948h4.16258V83.932h2.76472V99.61026Z"/><path class="cls-1" d="M219.79907,101.86248V98.1q-2.99319.08495-6.49971.08494V95.73369q2.36581,0,4.40382-.0146,2.03878-.01291,4.00538-.085,1.96665-.07081,3.99088-.20011,2.02453-.12739,4.36173-.32707l.19924,2.36546q-1.8237.19966-3.70584.32795-1.88159.12885-3.96248.21382v3.84836Zm1.68116-7.5825a9.14494,9.14494,0,0,1-2.70809-.37085,6.87061,6.87061,0,0,1-2.03751-.98315,4.30317,4.30317,0,0,1-1.28278-1.4253,3.495,3.495,0,0,1-.44216-1.69664V88.8922a3.41662,3.41662,0,0,1,.44216-1.682,4.50356,4.50356,0,0,1,1.28278-1.4253,6.68159,6.68159,0,0,1,2.03751-.99765,10.07345,10.07345,0,0,1,5.417,0,6.69163,6.69163,0,0,1,2.03751.99765,4.52475,4.52475,0,0,1,1.28278,1.4253,3.42583,3.42583,0,0,1,.44218,1.682V89.804a3.50449,3.50449,0,0,1-.44218,1.69664,4.32242,4.32242,0,0,1-1.28278,1.4253,6.88119,6.88119,0,0,1-2.03751.98315A9.15039,9.15039,0,0,1,221.48023,94.28Zm-1.11106,13.25532h14.93734v2.423H217.54687v-7.04063h2.8223Zm1.11106-15.62165a5.87713,5.87713,0,0,0,1.61073-.19915,4.13735,4.13735,0,0,0,1.18317-.52718,2.58451,2.58451,0,0,0,.741-.72729,1.50389,1.50389,0,0,0,.25673-.82682V89.063a1.50386,1.50386,0,0,0-.25673-.82682,2.4413,2.4413,0,0,0-.741-.71261A4.40572,4.40572,0,0,0,223.091,87.011a6.57944,6.57944,0,0,0-3.22067,0,4.3937,4.3937,0,0,0-1.18317.51259,2.43123,2.43123,0,0,0-.741.71261,1.50386,1.50386,0,0,0-.25673.82682v.57017a1.50389,1.50389,0,0,0,.25673.82682,2.5733,2.5733,0,0,0,.741.72729,4.12663,4.12663,0,0,0,1.18317.52718A5.87529,5.87529,0,0,0,221.48023,91.91365Zm10.49052,12.37178v-2.33714h-5.55869V99.582h5.55869V83.932h2.79392v20.35344Z"/><path class="cls-1" d="M283.88933,89.606H268.8125V87.21173h6.15594V84.0484h2.79334v3.16333h6.12755Zm-7.52426,11.54342a7.85686,7.85686,0,0,1-2.67915-.41377,5.80117,5.80117,0,0,1-1.90919-1.097,4.51356,4.51356,0,0,1-1.15463-1.55292,4.35805,4.35805,0,0,1-.38458-1.78217v-.855a4.38057,4.38057,0,0,1,1.53921-3.3488,5.98084,5.98084,0,0,1,1.90919-1.08255,8.88106,8.88106,0,0,1,5.35838,0,5.8262,5.8262,0,0,1,1.9092,1.09714,4.51284,4.51284,0,0,1,1.15453,1.55292,4.36009,4.36009,0,0,1,.38458,1.78129v.855a4.35805,4.35805,0,0,1-.38458,1.78217,4.51452,4.51452,0,0,1-1.15453,1.55292,5.81211,5.81211,0,0,1-1.9092,1.097A7.86126,7.86126,0,0,1,276.36507,101.1494Zm0-2.25167a4.57339,4.57339,0,0,0,1.5109-.22838,3.13762,3.13762,0,0,0,1.08245-.61287,2.50168,2.50168,0,0,0,.64126-.88335,2.546,2.546,0,0,0,.21379-1.01213v-.57a2.54478,2.54478,0,0,0-.21379-1.01125,2.50881,2.50881,0,0,0-.64126-.88335,3.15341,3.15341,0,0,0-1.06874-.613,5.20533,5.20533,0,0,0-3.04922,0,3.15356,3.15356,0,0,0-1.06875.613,2.50906,2.50906,0,0,0-.64126.88335,2.54482,2.54482,0,0,0-.21369,1.01125v.57a2.546,2.546,0,0,0,.21369,1.01213,2.50193,2.50193,0,0,0,.64126.88335,3.13,3.13,0,0,0,1.08255.61287A4.56917,4.56917,0,0,0,276.36507,98.89773Zm-.34248,8.94927h13.93758v2.45078H273.20174v-7.26749h2.82085Zm16.9585-13.28181h-3.73338v8.80669h-2.79334V84.30508h2.79334v7.80925h3.73338Z"/><path class="cls-1" d="M311.79121,104.42691q-1.79628.17128-3.67668.29879-1.88133.12869-3.97627.21369-2.09506.08637-4.47424.12878-2.38093.04247-5.173.043v-2.45174q2.82133,0,5.173-.02831,2.35127-.02835,4.403-.09959,2.05248-.07082,3.87676-.18548,1.82331-.11327,3.5908-.285Zm-9.03507-5.7a8.16437,8.16437,0,0,1-2.90673-.48505,7.10035,7.10035,0,0,1-2.195-1.28253,5.57118,5.57118,0,0,1-1.39671-1.82419,4.95242,4.95242,0,0,1-.48418-2.13748V91.68685a4.95281,4.95281,0,0,1,.48418-2.13757,5.58029,5.58029,0,0,1,1.39671-1.82419,7.13493,7.13493,0,0,1,2.195-1.28252,8.97121,8.97121,0,0,1,5.81426,0,7.14016,7.14016,0,0,1,2.19418,1.28252,5.59233,5.59233,0,0,1,1.39671,1.82419,4.95285,4.95285,0,0,1,.48409,2.13757v1.31083a4.95246,4.95246,0,0,1-.48409,2.13748,5.58318,5.58318,0,0,1-1.39671,1.82419,7.10551,7.10551,0,0,1-2.19418,1.28253A8.16885,8.16885,0,0,1,302.75614,98.72693Zm0-2.45174a4.82848,4.82848,0,0,0,1.66711-.285,4.7283,4.7283,0,0,0,1.36832-.75545,3.45571,3.45571,0,0,0,.91165-1.097,2.7868,2.7868,0,0,0,.328-1.31092v-.96914a2.931,2.931,0,0,0-.328-1.35373,3.26168,3.26168,0,0,0-.91165-1.09713,4.711,4.711,0,0,0-1.36832-.72706,5.31949,5.31949,0,0,0-3.3488,0,4.76117,4.76117,0,0,0-1.35373.72706,3.25161,3.25161,0,0,0-.91166,1.09713,2.93,2.93,0,0,0-.328,1.35373v.96914a2.78585,2.78585,0,0,0,.328,1.31092,3.44434,3.44434,0,0,0,.91166,1.097,4.79553,4.79553,0,0,0,3.03542,1.04043Zm10.4026,14.30766V84.30508h2.79334v26.27777Z"/><path class="cls-1" d="M326.21306,102.23194V98.47025q-2.99262.08492-6.49841.08492V96.10439q2.36536,0,4.40295-.01459,2.03837-.01291,4.00457-.085,1.96625-.07082,3.99006-.20007,2.02413-.12738,4.36085-.327l.19919,2.365q-1.82331.19964-3.70508.32788-1.8812.12883-3.96167.21379v3.84757Zm1.68082-7.581a9.14278,9.14278,0,0,1-2.70754-.37078,6.86893,6.86893,0,0,1-2.0371-.98294,4.30231,4.30231,0,0,1-1.28252-1.425,3.49425,3.49425,0,0,1-.44207-1.69629v-.91166a3.41589,3.41589,0,0,1,.44207-1.68169,4.5025,4.5025,0,0,1,1.28252-1.425,6.68063,6.68063,0,0,1,2.0371-.99745,10.07153,10.07153,0,0,1,5.41587,0,6.69067,6.69067,0,0,1,2.0371.99745,4.52369,4.52369,0,0,1,1.28252,1.425,3.42529,3.42529,0,0,1,.44207,1.68169V90.176a3.504,3.504,0,0,1-.44207,1.69629,4.32157,4.32157,0,0,1-1.28252,1.425,6.87951,6.87951,0,0,1-2.0371.98294A9.14818,9.14818,0,0,1,327.89388,94.651ZM326.783,107.90362h14.93433v2.42255H323.9613V103.287H326.783Zm1.11085-15.61849a5.87621,5.87621,0,0,0,1.61041-.19911,4.137,4.137,0,0,0,1.18293-.52707,2.584,2.584,0,0,0,.74085-.72715,1.5035,1.5035,0,0,0,.25668-.82665v-.57006a1.50355,1.50355,0,0,0-.25668-.82665,2.44073,2.44073,0,0,0-.74085-.71246,4.40509,4.40509,0,0,0-1.18293-.51249,6.57814,6.57814,0,0,0-3.22,0,4.39258,4.39258,0,0,0-1.18292.51249,2.43059,2.43059,0,0,0-.74086.71246,1.50355,1.50355,0,0,0-.25668.82665v.57006a1.5035,1.5035,0,0,0,.25668.82665,2.57266,2.57266,0,0,0,.74086.72715,4.12581,4.12581,0,0,0,1.18292.52707A5.87427,5.87427,0,0,0,327.89388,92.28513Zm10.48839,12.36928v-2.33668H332.8247V99.95188h5.55757V84.30508h2.79334v20.34933Z"/><circle class="cls-1" cx="252.05951" cy="97.31563" r="2.03952"/><path class="cls-2" d="M39.23525,22.72249a2.0554,2.0554,0,0,1-2.05492-2.05492V2.73976a2.05492,2.05492,0,0,1,4.10984,0V20.66757A2.05541,2.05541,0,0,1,39.23525,22.72249Z"/><path class="cls-2" d="M108.38374,22.72249H4.60607a2.05482,2.05482,0,0,1,0-4.10964H108.38374a2.05482,2.05482,0,1,1,0,4.10964Z"/><path class="cls-2" d="M76.37012,86.74854a2.05527,2.05527,0,0,1-2.05492-2.05491V74.45013a2.05482,2.05482,0,1,1,4.10964,0v10.2435A2.05523,2.05523,0,0,1,76.37012,86.74854Z"/><path class="cls-2" d="M108.38374,86.74854H3.37934a2.05482,2.05482,0,1,1,0-4.10963h105.0044a2.05482,2.05482,0,1,1,0,4.10963Z"/><path class="cls-2" d="M109.6641,39.36879H74.47171a2.0554,2.0554,0,0,1-2.05492-2.05492V2.73976a2.05492,2.05492,0,1,1,4.10983,0V35.25915H109.6641a2.05482,2.05482,0,0,1,0,4.10964Z"/><path class="cls-2" d="M53.9604,43.30058H24.5087a7.81744,7.81744,0,1,1,0-15.63488H53.9604a7.81744,7.81744,0,1,1,0,15.63488Zm-29.4517-11.525a3.70771,3.70771,0,1,0,0,7.41541H53.9604a3.70771,3.70771,0,1,0,0-7.41541Z"/><path class="cls-2" d="M92.37683,75.22469H62.92513a7.81744,7.81744,0,1,1,0-15.63488h29.4517a7.81744,7.81744,0,0,1,0,15.63488ZM62.92513,63.69944a3.70781,3.70781,0,1,0,0,7.41561h29.4517a3.70781,3.70781,0,0,0,0-7.41561Z"/><path class="cls-2" d="M109.6641,54.73612H52.03946a2.05524,2.05524,0,0,1-2.05492-2.05472V41.24587a2.05482,2.05482,0,1,1,4.10964,0v9.38061H109.6641a2.05482,2.05482,0,0,1,0,4.10964Z"/><path class="cls-2" d="M99.50874,102.11587H52.03946a2.05523,2.05523,0,0,1-2.05492-2.05472V86.98659a2.05482,2.05482,0,0,1,4.10964,0V98.00624H99.50874a2.05482,2.05482,0,1,1,0,4.10963Z"/><path class="cls-2" d="M27.71,111.0792a2.05541,2.05541,0,0,1-2.05492-2.05492V54.53156H4.6597a2.05492,2.05492,0,0,1,0-4.10984H27.71a2.05554,2.05554,0,0,1,2.05492,2.05492v56.54764A2.05541,2.05541,0,0,1,27.71,111.0792Z"/><path class="cls-2" d="M40.51541,112.35956a2.05536,2.05536,0,0,1-2.05472-2.05492V68.04733a2.05537,2.05537,0,0,1,2.05472-2.05492H57.1619a2.05492,2.05492,0,0,1,0,4.10984H42.57033v40.20239A2.0554,2.0554,0,0,1,40.51541,112.35956Z"/><path class="cls-2" d="M88.20958,113.0444H24.83367a14.28357,14.28357,0,0,1-13.84353-10.99133A14.28026,14.28026,0,0,1,0,88.21073V24.83483a14.29494,14.29494,0,0,1,10.98874-13.8435A14.28807,14.28807,0,0,1,24.83367,0H88.20958a14.28792,14.28792,0,0,1,13.84493,10.99133,14.29326,14.29326,0,0,1,10.99013,13.8435v63.3759a14.284,14.284,0,0,1-10.99133,13.84374A14.28405,14.28405,0,0,1,88.20958,113.0444ZM16.09384,13.42083A2.73993,2.73993,0,0,1,13.56,16.12311a8.77535,8.77535,0,0,0-8.08031,8.71172v63.3759a8.76745,8.76745,0,0,0,8.10583,8.71192,2.74127,2.74127,0,0,1,2.535,2.535,8.76994,8.76994,0,0,0,8.71312,8.10723H88.20958a8.76964,8.76964,0,0,0,8.71311-8.10723,2.74164,2.74164,0,0,1,2.53521-2.535,8.76849,8.76849,0,0,0,8.107-8.71192V24.83483a8.77742,8.77742,0,0,0-8.08171-8.71172,2.73915,2.73915,0,0,1-2.53381-2.71305,2.63916,2.63916,0,0,1-.08553-.38658,8.77586,8.77586,0,0,0-8.6543-7.544H24.83367a8.77566,8.77566,0,0,0-8.6541,7.544A2.96636,2.96636,0,0,1,16.09384,13.42083Z"/></g></g></svg>