<svg xmlns="http://www.w3.org/2000/svg" viewBox="0 0 1125.90311 1125.9021"><defs><style>.cls-1{fill:#c2996c;}</style></defs><g id="Layer_2" data-name="Layer 2"><g id="레이어_1" data-name="레이어 1"><path class="cls-1" d="M390.77539,226.312a20.47012,20.47012,0,0,1-20.46618-20.46617V27.28755a20.46618,20.46618,0,0,1,40.93235,0V205.84578A20.47012,20.47012,0,0,1,390.77539,226.312Z"/><path class="cls-1" d="M1079.48109,226.312H45.8753a20.46515,20.46515,0,1,1,0-40.9303H1079.48109a20.46515,20.46515,0,1,1,0,40.9303Z"/><path class="cls-1" d="M760.63154,863.99986a20.47012,20.47012,0,0,1-20.46617-20.46618V741.5103a20.46566,20.46566,0,1,1,40.93132,0V843.53368A20.4699,20.4699,0,0,1,760.63154,863.99986Z"/><path class="cls-1" d="M1079.48109,863.99986H33.65688a20.46567,20.46567,0,1,1,0-40.93133H1079.48109a20.46567,20.46567,0,1,1,0,40.93133Z"/><path class="cls-1" d="M1092.234,392.10606H741.7241a20.47164,20.47164,0,0,1-20.46719-20.46617V27.28755a20.46668,20.46668,0,0,1,40.93336,0V351.17474H1092.234a20.46566,20.46566,0,0,1,0,40.93132Z"/><path class="cls-1" d="M537.435,431.26688H244.1015a77.86043,77.86043,0,1,1,0-155.72086H537.435a77.86043,77.86043,0,1,1,0,155.72086ZM244.1015,316.47938a36.92809,36.92809,0,1,0,0,73.85618H537.435a36.92809,36.92809,0,1,0,0-73.85618Z"/><path class="cls-1" d="M920.0553,749.22456H626.72177a77.86043,77.86043,0,1,1,0-155.72086H920.0553a77.86043,77.86043,0,0,1,0,155.72086ZM626.72177,634.435a36.92911,36.92911,0,1,0,0,73.85822H920.0553a36.92911,36.92911,0,0,0,0-73.85822Z"/><path class="cls-1" d="M1092.234,545.16252H518.30258a20.4699,20.4699,0,0,1-20.46617-20.46515V410.80173a20.46566,20.46566,0,1,1,40.93132,0V504.2312H1092.234a20.46566,20.46566,0,0,1,0,40.93132Z"/><path class="cls-1" d="M991.08824,1017.0553H518.30258a20.46969,20.46969,0,0,1-20.46617-20.46414V866.37105a20.46566,20.46566,0,0,1,40.93132,0V976.124H991.08824a20.46567,20.46567,0,1,1,0,40.93133Z"/><path class="cls-1" d="M275.98584,1106.32881a20.47164,20.47164,0,0,1-20.46617-20.46719V543.12527H46.40981a20.46668,20.46668,0,1,1,0-40.93336h229.576A20.473,20.473,0,0,1,296.453,522.65808v563.20354A20.47186,20.47186,0,0,1,275.98584,1106.32881Z"/><path class="cls-1" d="M403.52525,1119.08072a20.471,20.471,0,0,1-20.46413-20.46617v-420.875a20.47121,20.47121,0,0,1,20.46413-20.46719H569.3214a20.46669,20.46669,0,0,1,0,40.93337h-145.329v400.4088A20.47164,20.47164,0,0,1,403.52525,1119.08072Z"/><path class="cls-1" d="M878.55077,1125.9021H247.33809c-66.34045,0-123.14319-46.58086-137.87838-109.47193C46.58289,1001.72043,0,944.90547,0,878.563V247.35132c0-66.261,46.59612-123.11569,109.44545-137.8794C124.24886,46.23571,181.39674,0,247.33809,0H878.55077C944.49314,0,1001.64,46.23571,1016.44341,109.47192c62.86562,14.74945,109.4597,71.61837,109.4597,137.8794V878.563c0,66.34248-46.58288,123.14319-109.47192,137.88144C1001.694,1079.32124,944.89326,1125.9021,878.55077,1125.9021ZM160.29119,133.66949a27.2883,27.2883,0,0,1-25.236,26.9139c-45.129,3.41171-80.479,41.5198-80.479,86.76793V878.563a87.322,87.322,0,0,0,80.73356,86.769,27.30222,27.30222,0,0,1,25.24724,25.24826,87.34791,87.34791,0,0,0,86.78117,80.7468H878.55077a87.34576,87.34576,0,0,0,86.78117-80.7468,27.30583,27.30583,0,0,1,25.24928-25.24826,87.33177,87.33177,0,0,0,80.74476-86.769V247.35132c0-45.2349-35.36121-83.35622-80.49227-86.76793a27.28051,27.28051,0,0,1-25.236-27.0208,26.47346,26.47346,0,0,1-.85217-3.85052,87.40611,87.40611,0,0,0-86.19473-75.137H247.33809a87.40407,87.40407,0,0,0-86.1927,75.137A29.48507,29.48507,0,0,1,160.29119,133.66949Z"/></g></g></svg>