<svg xmlns="http://www.w3.org/2000/svg" viewBox="0 0 38.34 25.44"><defs><style>.cls-1{fill:#272525;}</style></defs><g id="Layer_2" data-name="Layer 2"><g id="Layer_1-2" data-name="Layer 1"><path class="cls-1" d="M11.1,24.77a.68.68,0,0,0,.19.47.67.67,0,0,0,.47.2h14.7a.67.67,0,0,0,.66-.64A13.75,13.75,0,0,0,27,22.47H37.68a.66.66,0,0,0,.66-.64c0-.23.14-5.61-3.23-8.7a.65.65,0,0,0-.85,0s-4,3-7.62,0a.65.65,0,0,0-.85,0A9.87,9.87,0,0,0,23.71,16a.67.67,0,0,0-.67.08c-.16.12-4,3-7.62,0A.66.66,0,0,0,14.8,16a8.87,8.87,0,0,0-2-2.82.65.65,0,0,0-.85,0s-4,3-7.62,0a.65.65,0,0,0-.85,0A12,12,0,0,0,0,21.8a.71.71,0,0,0,.19.48.71.71,0,0,0,.47.2H11.32A14.72,14.72,0,0,0,11.1,24.77ZM26.29,14.5c3.47,2.42,7,.73,8.29,0,2,2.12,2.35,5.32,2.42,6.68H26.68a10.66,10.66,0,0,0-2-4.17A10,10,0,0,1,26.29,14.5Zm-11.22,3c3.47,2.42,7,.74,8.29,0,2,2.12,2.35,5.33,2.42,6.68H12.45A11.25,11.25,0,0,1,15.07,17.46ZM1.35,21.15A11.15,11.15,0,0,1,4,14.5c3.47,2.42,7,.73,8.28,0a8,8,0,0,1,1.53,2.46,12,12,0,0,0-2.15,4.22Z"/><path class="cls-1" d="M1.73,6.28A6.28,6.28,0,0,0,8,12.56H8a6.22,6.22,0,0,0,4.44-1.84,5.7,5.7,0,0,0,.46-.52,6.29,6.29,0,0,0,6.2,5.33h0a6.27,6.27,0,0,0,6.22-5.46,6.27,6.27,0,0,0,5,2.49h0a6.28,6.28,0,0,0,6.28-6.28,6.28,6.28,0,0,0-12.5-.82,6.25,6.25,0,0,0-9.44-.65,5.57,5.57,0,0,0-.46.51,6.28,6.28,0,0,0-12.48,1Zm25.1-3.5a4.91,4.91,0,0,1,3.5-1.45,5,5,0,0,1,5,5,5,5,0,0,1-5,5h0a5,5,0,0,1-4.95-5A4.91,4.91,0,0,1,26.83,2.78Zm-11.22,3a4.92,4.92,0,0,1,3.5-1.46,5,5,0,0,1,5,5,5,5,0,0,1-5,4.95h0a5,5,0,0,1-4.95-4.95A4.89,4.89,0,0,1,15.61,5.75ZM8,1.33a5,5,0,0,1,5,5,5,5,0,0,1-5,5H8a5,5,0,0,1-5-5A5,5,0,0,1,8,1.33Z"/></g></g></svg>