<svg xmlns="http://www.w3.org/2000/svg" viewBox="0 0 31.75 32.04"><defs><style>.cls-1{fill:#272525;}</style></defs><g id="Layer_2" data-name="Layer 2"><g id="Layer_1-2" data-name="Layer 1"><path class="cls-1" d="M30.29,16.64a1.46,1.46,0,0,0,1.46-1.47A15.19,15.19,0,0,0,16.58,0a1.46,1.46,0,1,0,0,2.92A12.27,12.27,0,0,1,28.83,15.17,1.47,1.47,0,0,0,30.29,16.64ZM16.58,2A.54.54,0,0,1,16,1.46a.54.54,0,0,1,.54-.54A14.27,14.27,0,0,1,30.83,15.17a.54.54,0,0,1-.54.54.54.54,0,0,1-.54-.54A13.19,13.19,0,0,0,16.58,2Z"/><path class="cls-1" d="M16.42,4.89a1.47,1.47,0,0,0,0,2.93,7.53,7.53,0,0,1,7.52,7.52,1.46,1.46,0,0,0,2.92,0A10.46,10.46,0,0,0,16.42,4.89Zm9,11a.54.54,0,0,1-.54-.53,8.46,8.46,0,0,0-8.44-8.45.54.54,0,1,1,0-1.07,9.53,9.53,0,0,1,9.52,9.52A.54.54,0,0,1,25.4,15.87Z"/><path class="cls-1" d="M22.15,32c.24,0,.47,0,.71,0a6.51,6.51,0,0,0,3.39-.89,5.25,5.25,0,0,0,1.21-1l.94-1a5,5,0,0,0-.36-7l-1.57-1.43a5,5,0,0,0-7,.35l-.93,1a4.72,4.72,0,0,0-.86,1.31A17.34,17.34,0,0,1,9.1,15.55a5.06,5.06,0,0,0,1.76-1.25l.93-1a5,5,0,0,0,1.28-3.59,5,5,0,0,0-1.63-3.45L9.86,4.81a5,5,0,0,0-7,.35l-.93,1c-.13.15-.25.3-.37.46A5.91,5.91,0,0,0,.14,12.1,24.78,24.78,0,0,0,22.15,32ZM2.47,7.67l.06-.07.05,0,0-.07c.09-.13.19-.25.29-.37l.93-1a3.6,3.6,0,0,1,5.08-.25l1.58,1.42a3.59,3.59,0,0,1,.25,5.08l-.93,1h0a3.53,3.53,0,0,1-1.63,1l-.28.09a.68.68,0,0,0-.44.39.66.66,0,0,0,0,.58l.13.27a18.76,18.76,0,0,0,9.91,9.1l.25.09a.68.68,0,0,0,.91-.42l.08-.25A3.52,3.52,0,0,1,19.53,23l.93-1a3.59,3.59,0,0,1,5.08-.26l1.57,1.43a3.59,3.59,0,0,1,.26,5.07l-.94,1a3.74,3.74,0,0,1-.89.72,5.37,5.37,0,0,1-3.26.67A23.39,23.39,0,0,1,1.5,11.84,4.58,4.58,0,0,1,2.47,7.67Z"/></g></g></svg>