<svg xmlns="http://www.w3.org/2000/svg" viewBox="0 0 32.91 33.17"><defs><style>.cls-1{fill:#272525;}</style></defs><g id="Layer_2" data-name="Layer 2"><g id="Layer_1-2" data-name="Layer 1"><path class="cls-1" d="M28.81,14.92a.68.68,0,0,0,.12-.22L32.71,3.37a3.53,3.53,0,0,0,.15-.46v0A2.39,2.39,0,0,0,30,.06l-.08,0-.3.1-11,3.63a2.7,2.7,0,0,0-1.37.72l-8,8-6.53-1H2.55a2.19,2.19,0,0,0-1.9.63,2.24,2.24,0,0,0,0,3.12l.05.06,2.89,2.89L2.77,19a2.83,2.83,0,0,0,0,4l.94,1-.1.18a.71.71,0,0,0,.13.81l4.13,4.13a.68.68,0,0,0,.81.13l.19-.1,1,1a2.81,2.81,0,0,0,2,.83h0a2.81,2.81,0,0,0,2-.83l.62-.63,2.93,2.93.08.07.08.08a2.21,2.21,0,0,0,1.57.65h0a2.23,2.23,0,0,0,2.14-2.88.28.28,0,0,0,0-.09l-1-6.51,8.07-8.07A2.54,2.54,0,0,0,28.81,14.92Zm-27.42-.2a.18.18,0,0,0,0-.07l-.06-.06a1.31,1.31,0,0,1,0-1.82,1.28,1.28,0,0,1,1.2-.35.41.41,0,0,0,.19,0l5.71.91-4.2,4.2ZM20.33,30.17a.5.5,0,0,0,0,.27,1.31,1.31,0,0,1-1.21,1.81h0a1.32,1.32,0,0,1-.92-.38l0-.07-.05-.06A.39.39,0,0,0,18,31.6l-2.76-2.76,4.26-4.25Zm7.3-16a1.48,1.48,0,0,1-.3.44L12.88,29.09a1.44,1.44,0,0,1-1,.43h0a1.48,1.48,0,0,1-.42-.07,1.21,1.21,0,0,1-.38-.18,1,1,0,0,1-.22-.18L9.49,27.76A.67.67,0,0,0,9,27.55a.68.68,0,0,0-.31.08l-.19.1L5.08,24.31l.09-.19a.7.7,0,0,0-.12-.81L3.75,22a1.44,1.44,0,0,1,0-2.05L18.2,5.51a1.4,1.4,0,0,1,.72-.36l.07,0L30.06,1.49l.05,0,.12-.05h0a1,1,0,0,1,1,.26,1,1,0,0,1,.28.9v0a.81.81,0,0,1-.07.22l0,.07L27.67,14.1A.36.36,0,0,0,27.63,14.19Z"/><path class="cls-1" d="M14.61,16.77A2.54,2.54,0,0,0,12.83,16h0a2.54,2.54,0,0,0-1.78.74L8,19.86a2.53,2.53,0,0,0,0,3.57l1.46,1.45a2.5,2.5,0,0,0,1.78.74h0A2.5,2.5,0,0,0,13,24.88l3.09-3.08a2.55,2.55,0,0,0,0-3.57Zm.48,4L12,23.9h0a1.11,1.11,0,0,1-.8.33h0a1.12,1.12,0,0,1-.81-.33L8.94,22.45a1.14,1.14,0,0,1,0-1.61L12,17.75a1.15,1.15,0,0,1,.8-.33h0a1.15,1.15,0,0,1,.8.33l1.46,1.46a1.15,1.15,0,0,1,.33.8A1.12,1.12,0,0,1,15.09,20.81Z"/><path class="cls-1" d="M22.22,9a4,4,0,0,0-1.88-.47h0a4,4,0,0,0,0,8h0A4,4,0,0,0,22.22,9Zm0,5.35a2.58,2.58,0,0,1-1.84.76h0a2.6,2.6,0,0,1,0-5.19h0a2.6,2.6,0,0,1,1.84,4.43Z"/></g></g></svg>