<svg xmlns="http://www.w3.org/2000/svg" viewBox="0 0 781.63 272.96"><defs><style>.cls-1{fill:#e62f53;}</style></defs><g id="Layer_2" data-name="Layer 2"><g id="Layer_1-2" data-name="Layer 1"><path class="cls-1" d="M273.35,240.75l-3.49-1.52-3.74,8.6-2.4-1,3.75-8.6L264,236.67l.92-2.11,9.36,4.08Z"/><path class="cls-1" d="M276.2,245.76a6.32,6.32,0,1,1,3.77,8A6.06,6.06,0,0,1,276.2,245.76Zm9.38,3.49a3.7,3.7,0,1,0-4.78,2.26A3.61,3.61,0,0,0,285.58,249.25Z"/><path class="cls-1" d="M305.31,253.33l-2.75-.85a3.39,3.39,0,0,0-2.43-2.34,3.77,3.77,0,0,0-2.22,7.2,3.31,3.31,0,0,0,3.88-1.17l-3.42-1.06L299,253l6.08,1.88-.2.65a6.23,6.23,0,1,1-4.12-7.7A5.93,5.93,0,0,1,305.31,253.33Z"/><path class="cls-1" d="M311.77,251.32l8.43,2.1-.54,2.2-5.91-1.47-.57,2.31,5.41,1.35-.54,2.2-5.42-1.35-.61,2.43,6,1.51-.55,2.2-8.56-2.14Z"/><path class="cls-1" d="M334.61,258.78l-3.73-.73-1.82,9.19-2.56-.51,1.83-9.19-3.73-.74.45-2.27,10,2Z"/><path class="cls-1" d="M350.4,258.87l-1.68,11.58-2.59-.38.69-4.7-5.12-.74-.68,4.7-2.59-.38,1.69-11.58,2.58.38-.66,4.59,5.11.74.67-4.59Z"/><path class="cls-1" d="M356.16,259.52l8.67.82-.22,2.26-6.06-.57-.23,2.37,5.57.52-.21,2.26-5.57-.52-.23,2.5,6.19.59-.21,2.26-8.8-.83Z"/><path class="cls-1" d="M376.61,272.73l-2.09-3.79-2.08-.1-.18,3.69-2.61-.12.55-11.7,4.71.22c3,.14,4.63,1.8,4.52,4.23a3.66,3.66,0,0,1-2.3,3.38l2.51,4.34Zm-4.06-6.2,2,.09c1.37.07,2.23-.48,2.29-1.59s-.76-1.73-2.13-1.79l-2-.1Z"/><path class="cls-1" d="M393.09,261.26l4.49-.12c3.05-.08,4.87,1.57,4.94,4.15s-1.66,4.35-4.7,4.44l-1.88,0,.08,3.11-2.61.07Zm4.55,6.16c1.45,0,2.3-.75,2.27-2.06s-.93-1.94-2.38-1.9l-1.76,0,.1,4Z"/><path class="cls-1" d="M407.14,266.64a6.32,6.32,0,1,1,6.77,5.64A6.06,6.06,0,0,1,407.14,266.64Zm10-.77a3.7,3.7,0,1,0-3.4,4.06A3.62,3.62,0,0,0,417.13,265.87Z"/><path class="cls-1" d="M424.71,265.12a6,6,0,0,1,5.37-6.92,5.57,5.57,0,0,1,6.37,3.57l-2.61.36a3,3,0,0,0-3.39-1.57,3.74,3.74,0,0,0,1,7.42,3.28,3.28,0,0,0,2.93-2.59L437,265a5.83,5.83,0,0,1-5.28,5.32A6,6,0,0,1,424.71,265.12Z"/><path class="cls-1" d="M451.23,254.88l2.2,11.5-2.57.49L450,262.2l-5.08,1,.89,4.67-2.57.49-2.2-11.5,2.57-.49.87,4.56,5.08-1-.87-4.56Z"/><path class="cls-1" d="M466.09,261.05l-4.4,1.1-.25,2.39-2.61.66,1.57-12.44,2.63-.66,7.22,10.25-2.82.7Zm-1.33-2-2.41-3.6-.43,4.3Z"/><path class="cls-1" d="M472.93,255.55a6,6,0,0,1,4.2-7.7,5.58,5.58,0,0,1,6.87,2.51l-2.53.77a3,3,0,0,0-3.59-1,3.75,3.75,0,0,0,2.19,7.17,3.28,3.28,0,0,0,2.48-3l2.52-.77a5.83,5.83,0,0,1-4.36,6.11A6,6,0,0,1,472.93,255.55Z"/><path class="cls-1" d="M497.69,241.08l4,10.95-2.45.9-1.64-4.45-4.84,1.79,1.65,4.45-2.45.9-4-11,2.44-.9,1.61,4.34,4.83-1.79-1.6-4.34Z"/><path class="cls-1" d="M513.58,244.59l-4.15,1.81.16,2.4-2.47,1.08-.52-12.52,2.48-1.09,8.83,8.91-2.67,1.16Zm-1.64-1.76-3-3.15.28,4.32Z"/><path class="cls-1" d="M139.33,28a4.55,4.55,0,0,0-1.39.24,4.78,4.78,0,0,0-3.4,4.56c0,.07,0,.14,0,.21a4.79,4.79,0,0,0,4.77,4.58,4.28,4.28,0,0,0,.72-.07,4.7,4.7,0,0,0,1.84-.68,4.14,4.14,0,0,0,.7-.55,4.67,4.67,0,0,0,1.29-2.06,4.52,4.52,0,0,0,.25-1.43,4.8,4.8,0,0,0-4.8-4.8Z"/><path class="cls-1" d="M84.09,33.85a5.42,5.42,0,0,0,.06-.58,2.6,2.6,0,0,0,0-.26,4.78,4.78,0,1,0-7.31,4.31,4.73,4.73,0,0,0,2.54.75,4.34,4.34,0,0,0,1-.1,4.76,4.76,0,0,0,2.94-1.92A4.84,4.84,0,0,0,84.09,33.85Z"/><path class="cls-1" d="M207.4,30.77a4.8,4.8,0,0,0-4.79,4.8,4.07,4.07,0,0,0,.06.61A4.79,4.79,0,0,0,204,38.94l.15.13a4.7,4.7,0,0,0,2.66,1.23,3.8,3.8,0,0,0,.59.06,4.83,4.83,0,0,0,4.66-3.69,4.94,4.94,0,0,0,.14-1.1A4.8,4.8,0,0,0,207.4,30.77Z"/><path class="cls-1" d="M619.58,32.37a4.62,4.62,0,0,0-1.4-.24,4.8,4.8,0,0,0-4.42,2.94,4.66,4.66,0,0,0-.38,1.87,4.88,4.88,0,0,0,.24,1.44,4.76,4.76,0,0,0,1.29,2.06,4.29,4.29,0,0,0,.72.55,4.81,4.81,0,0,0,1.84.69,5.51,5.51,0,0,0,.71.07,4.81,4.81,0,0,0,4.79-4.6c0-.07,0-.14,0-.21a4.77,4.77,0,0,0-3.41-4.57Z"/><path class="cls-1" d="M547.1,34a4.8,4.8,0,0,0-.16,9.6h.16a4.72,4.72,0,0,0,2.18-.54,4.82,4.82,0,0,0,2.4-2.88,4.26,4.26,0,0,0,0-2.76A4.79,4.79,0,0,0,547.1,34Z"/><path class="cls-1" d="M154.33,36.68A15,15,0,0,1,153,40l5.06,2.28a9.46,9.46,0,0,1-1.26-1.6Z"/><path class="cls-1" d="M489.42,118.31l-.17-.28c0,.22,0,.44-.07.66Z"/><path class="cls-1" d="M659,42.86a4.81,4.81,0,1,0,0,9.61,4.43,4.43,0,0,0,.9-.09l.17-.06.87-.26a5.68,5.68,0,0,0,.73-.4,4.8,4.8,0,0,0-2.67-8.8Z"/><path class="cls-1" d="M663.46,54.39c1.28,2.36,4,6.31,8.72,7.94l-2.38-7.86A21.54,21.54,0,0,0,663.46,54.39Z"/><path class="cls-1" d="M775.21,109.8a19.65,19.65,0,0,0-2.43-1.87V95.31a19.51,19.51,0,0,0-19.94-19.94H737.62A20.19,20.19,0,0,0,725.82,79a20,20,0,0,0-13.9-5.38h-4.71l5.56-4.6a9.3,9.3,0,0,0-11.86-14.33l-.32.27-2.74-2.56a9.37,9.37,0,0,0-2.48-1.66l1.76-3.05a9.31,9.31,0,0,0-3.29-12.66l-5.37-3.19a9.3,9.3,0,0,0-11.79,14.06h0a9.52,9.52,0,0,0-2.53-1.42A15.54,15.54,0,0,0,659,32.15a15.35,15.35,0,0,0-5.64,1.1,9.18,9.18,0,0,0-5.87-2.51,9.09,9.09,0,0,0-2.22.16l-4.16-4.43A9.31,9.31,0,0,0,630,24.59l-1.47.77a15.58,15.58,0,0,0-17.91-2l-5-3.37a9.28,9.28,0,0,0-13.11,2.73l-3.25,5.17a9.34,9.34,0,0,0-9.89,4.65,9.3,9.3,0,0,0,3.65,12.63h0l5.17,2.85A9.45,9.45,0,0,0,595,49a9.23,9.23,0,0,0-2.77,9.34L593.46,63a9.17,9.17,0,0,0-6.59-4.35l-3-.43v-3a9.23,9.23,0,0,0-.67-3.47c-5.12-12.7-13.92-18.16-21.12-20.47l2.1-7.39A9.32,9.32,0,0,0,560,13.38l-.6-.36a9.3,9.3,0,0,0-17.95-4.65l-2,5.76a9.35,9.35,0,0,0,2.66,10A15.52,15.52,0,0,0,539,52.08v.36l-2.21,1.1a9.25,9.25,0,0,0-5.18,8.33v4.44a9.3,9.3,0,0,0,5.08,8.28,8.93,8.93,0,0,0,1.3,1.64H492.59a58.48,58.48,0,0,0-9.68-9.09,57.57,57.57,0,0,0-32.17-11.47,58.05,58.05,0,0,0-111.43-7,58.21,58.21,0,0,0-53.94,26.72H261.32a21.33,21.33,0,0,0-4.57.49,21.17,21.17,0,0,0-3.68-.32h-9.46a21.19,21.19,0,0,0-6.14.89,22.22,22.22,0,0,0-3-.2h-3.57l.24-1.19a9.31,9.31,0,0,0-5.62-10.4L214.7,60.23v-11c.47-.26.92-.53,1.36-.83l.56,6.17a9.24,9.24,0,0,0,9.25,8.46H234a9.29,9.29,0,0,0,.37-18.58l-.59-6.59A9.35,9.35,0,0,0,225,29.44l-3.45-.18a15.48,15.48,0,0,0-26.84-2.56V25.6a9.31,9.31,0,0,0-9.3-9.3h-4.6a9.3,9.3,0,0,0-9.11,7.5,9.11,9.11,0,0,0-3.53,0l-3.24-5.16a9.31,9.31,0,0,0-13.1-2.74l-5,3.37a15.58,15.58,0,0,0-17.87,2l-1.45-.76a9.37,9.37,0,0,0-11.07,1.88l-4.14,4.41a9.48,9.48,0,0,0-2.2-.16,9.23,9.23,0,0,0-6.05,2.67A9.19,9.19,0,0,0,101,24.84a9.33,9.33,0,0,0-7.44-1.73l-2.11.42a15.38,15.38,0,0,0-6.55-4.74,61,61,0,0,0-.7-8.79c-.85-4.52-3.55-7.92-7.4-9.33A12.08,12.08,0,0,0,65.13,2.88,9.3,9.3,0,0,0,63.77,16a9.31,9.31,0,0,0,2.46,2.12c.08,1.62.14,3.78.2,6.64a15.49,15.49,0,0,0,6.7,22.73,28.33,28.33,0,0,0,3.8,7.92l.17.28,3.18,5.18-5.14,6.9a9.33,9.33,0,0,0-1.72,7.17c0,.16.07.3.1.46a20.72,20.72,0,0,0-7.38,1.33,20.78,20.78,0,0,0-4.51-.48H19.94A19.5,19.5,0,0,0,0,96.17v74.7A19.56,19.56,0,0,0,6.72,186a19.48,19.48,0,0,0,15.84,4.38l36.33-5.55A19.8,19.8,0,0,0,73.58,191H88.79a20.43,20.43,0,0,0,9.91-2.48,20.57,20.57,0,0,0,9.6,2.31h15.39a21.7,21.7,0,0,0,4.24-.41,21.48,21.48,0,0,0,3.24.24h46.17a20.49,20.49,0,0,0,9.84-2.44,20.17,20.17,0,0,0,9.75,2.44h11.43a21.13,21.13,0,0,0,5.9-.83,20.73,20.73,0,0,0,5.88.83h11.35a21.28,21.28,0,0,0,6-.87,21.6,21.6,0,0,0,6.09.87h9.46a21.35,21.35,0,0,0,3.23-.24,21.63,21.63,0,0,0,5,.58h34.83a58.11,58.11,0,0,0,87.76,31.52,58.36,58.36,0,0,0,38.29,14.33,58,58,0,0,0,56-42.92c.3-1.09.55-2.18.78-3.27H579.11a19.59,19.59,0,0,0,16.74-8.82l6.94,4.75a21.72,21.72,0,0,0,21.39,2.32,21.49,21.49,0,0,0,3.9-2.27,22,22,0,0,0,15.84,3.74,21.14,21.14,0,0,0,5.16.62H664.3a19.48,19.48,0,0,0,17.81-10.71l9.22,6.3a21.72,21.72,0,0,0,21.39,2.32,21.49,21.49,0,0,0,3.9-2.27,22,22,0,0,0,15.84,3.74,21.26,21.26,0,0,0,5.16.62h15.22a19.5,19.5,0,0,0,19.94-19.93V153.83a19.72,19.72,0,0,0,8.85-16.91V124.54A19.52,19.52,0,0,0,775.21,109.8ZM174.37,41a9,9,0,0,0,2.17-1.7A9.27,9.27,0,0,0,184.93,46l11.18.58v1.28l-3.58.51a9.29,9.29,0,0,0-7.84,10.57l1.25,8.33a9.3,9.3,0,0,0-5.41,8.37,20.81,20.81,0,0,0-3.19-.25H167.22a9,9,0,0,0,1.08-2.09,9.3,9.3,0,0,0-5.05-11.66l2-7.54a9.26,9.26,0,0,0-2.69-9.28,9.48,9.48,0,0,0,6.61-.92ZM109.54,34.9a1.4,1.4,0,0,1,2-.09l2.19,2,8.53-9.08a1.42,1.42,0,0,1,1.68-.29l7.92,4.13a7.59,7.59,0,0,1,14.25-2.25l10.18-6.92a1.39,1.39,0,0,1,2,.41l6.95,11.07,4-2.21a1.41,1.41,0,0,1,1.36,2.46L165.39,37a1.35,1.35,0,0,1-.67.18,1.4,1.4,0,0,1-1.19-.66l-6.89-11-9.73,6.62c0,.2,0,.41,0,.62a7.61,7.61,0,0,1-3.56,6.43,10.59,10.59,0,0,1,0,3.64,9.69,9.69,0,0,1-.34,1.31l13.84,6.23a1.41,1.41,0,0,1,.78,1.65l-3.92,14.53L160,68.82a1.41,1.41,0,0,1-.47,2.73,1.36,1.36,0,0,1-.48-.09l-7.49-2.69a1.4,1.4,0,0,1-.88-1.69l3.94-14.63L141.86,46.7A23,23,0,0,1,136,52.91L144.37,62a1.39,1.39,0,0,1,.15,1.7l-5.7,9,.61.25L144,74.86a1.4,1.4,0,0,1-.54,2.7,1.27,1.27,0,0,1-.54-.11l-6.7-2.81a1.38,1.38,0,0,1-.74-1.85,1.74,1.74,0,0,1,.1-.19l6-9.48-8.7-9.49a1.38,1.38,0,0,1-.36-1.14,1.4,1.4,0,0,1,.65-1c.06,0,6.51-4.12,7.45-9.17a6.79,6.79,0,0,0,0-2.07,7.34,7.34,0,0,1-1.34.12A7.6,7.6,0,0,1,132,34.82l-8.46-4.41-8.75,9.32a1.4,1.4,0,0,1-1,.45,1.37,1.37,0,0,1-.94-.37l-3.21-2.93A1.4,1.4,0,0,1,109.54,34.9Zm-4.68,18.64.63-.42a9.26,9.26,0,0,0,3.81-6.26,9.61,9.61,0,0,0,11.26-1.72l4.66-5,.73.38a15.5,15.5,0,0,0,3.37,4l-.34.23A9.3,9.3,0,0,0,127.06,59l4.61,5-2.8,4.4a9.26,9.26,0,0,0-1.39,4.39h-5.85a20.8,20.8,0,0,0-6.87,1.14,9.32,9.32,0,0,0-9.25-8.38h-.65Zm-24.8-12.7c-.24,0-.47,0-.71,0a7.6,7.6,0,0,1-5-13.34c-.08-6-.28-13.25-.72-15.55-.17-.91-.44-1.23-.56-1.27a2,2,0,0,0-1.23.48A1.4,1.4,0,1,1,70.09,9c.21-.17,2.08-1.63,4-.94,1.22.44,2,1.58,2.35,3.39.44,2.29.65,8.78.75,14.53a7.58,7.58,0,0,1,9.75,6.46l8.14-1.61a1.4,1.4,0,0,1,1.12.26,1.42,1.42,0,0,1,.56,1l1,11.47a2.1,2.1,0,0,0,.52,1.28c.06,0,.41,0,1.12-.49a1.41,1.41,0,0,1,1.62,2.3,4.75,4.75,0,0,1-2.69,1A2.89,2.89,0,0,1,97,47.41c-1.84-.84-2.13-3.3-2.15-3.58l-.82-9.92-7.4,1.47A7.66,7.66,0,0,1,82.89,40c-.16,2.87.62,6.85,4.38,11.34l8.43.8A1.4,1.4,0,0,1,97,53.54v19.9h8.54a1.41,1.41,0,0,1,0,2.81H95.57a1.41,1.41,0,0,1-1.41-1.4v-20l-5.34-.5,3.88,6.3a1.4,1.4,0,0,1-.07,1.58L84.59,73l3.58,2.39,1.56,1a1.4,1.4,0,1,1-1.56,2.33l-5-3.38-1.32-.88a1.4,1.4,0,0,1-.35-2l8.36-11.21-6-9.74a.54.54,0,0,1-.1-.2A18.17,18.17,0,0,1,80.06,40.84ZM67.39,163.14c0,1.89-.77,2.92-2.49,3.18l-45,6.87c-1.72.26-2.58-.6-2.58-2.32V96.17a2.28,2.28,0,0,1,2.58-2.58H61.63A2,2,0,0,1,64,95.91v12.21a2,2,0,0,1-2.32,2.32H37.73v41.43l27.17-4.12c1.63-.26,2.49.6,2.49,2.23Zm32.84-26.39a2.28,2.28,0,0,1-2.58,2.57H91.37v31.73a2.28,2.28,0,0,1-2.58,2.58H73.58A2.28,2.28,0,0,1,71,171.05V95.31a2.28,2.28,0,0,1,2.58-2.58H88.79a2.28,2.28,0,0,1,2.58,2.58v25.62h6.28a2.28,2.28,0,0,1,2.58,2.58Zm4-29.23V99.26a2.05,2.05,0,0,1,2.32-2.32h12.55V92.73a2.28,2.28,0,0,1,2.58-2.58h15.22a2.28,2.28,0,0,1,2.58,2.58v4.21H152a2.06,2.06,0,0,1,2.32,2.32v8.26a2.05,2.05,0,0,1-2.32,2.32H106.33C104.78,109.84,104.18,109.07,104.18,107.52Zm49.26,18.39V129c0,8.51-4.22,13-16,13h-8.86a2.28,2.28,0,0,1-2.58-2.58v-6.53a2.28,2.28,0,0,1,2.58-2.58h3.7a2.25,2.25,0,0,0,2.58-2.49v-12.3a2.28,2.28,0,0,1,2.58-2.58C149.22,112.93,153.44,117.4,153.44,125.91Zm-48.4,0c0-8.51,4.21-13,16-13h8.85a2.28,2.28,0,0,1,2.58,2.58v6.54a2.28,2.28,0,0,1-2.58,2.57h-3.69a2.26,2.26,0,0,0-2.58,2.5v12.29A2.28,2.28,0,0,1,121,142c-11.78,0-16-4.47-16-13Zm74.87,44.79a2.28,2.28,0,0,1-2.57,2.58H131.17c-1.8,0-2.49-.77-2.49-2.58v-6.36c0-1.55.86-2.24,2.41-2.24h28.45v-4.81H126.27v13.58a2.28,2.28,0,0,1-2.58,2.58H108.3a2.28,2.28,0,0,1-2.57-2.58V148.69a2.27,2.27,0,0,1,2.57-2.57h69a2.27,2.27,0,0,1,2.57,2.57Zm8.86-45.65a2.28,2.28,0,0,1-2.58,2.58h-6.28v12.9a2.28,2.28,0,0,1-2.57,2.58H162.12a2.28,2.28,0,0,1-2.58-2.58V95.31a2.28,2.28,0,0,1,2.58-2.58h15.22a2.28,2.28,0,0,1,2.57,2.58v15.22h6.28a2.28,2.28,0,0,1,2.58,2.58Zm.26-48.2a1.41,1.41,0,0,1,.8-2.57H195L192.5,57.75a1.38,1.38,0,0,1,.26-1,1.41,1.41,0,0,1,.93-.55L204,54.7V42.36a7.63,7.63,0,0,1-3.43-3.47l-15.23-.79A1.4,1.4,0,0,1,184,36.7V27h-3.2a1.41,1.41,0,1,1,0-2.81h4.6a1.41,1.41,0,0,1,1.41,1.41v9.76l13,.68c0-.16,0-.31,0-.47a7.61,7.61,0,0,1,15.21,0,8.54,8.54,0,0,1-.11,1.25l9.69.5a1.41,1.41,0,0,1,1.33,1.28l1.24,13.75H234a1.41,1.41,0,0,1,0,2.81h-8.13a1.39,1.39,0,0,1-1.39-1.28l-1.25-13.82-9.38-.48a7.6,7.6,0,0,1-6.45,3.59,5.68,5.68,0,0,1-.59,0v22.4L222.58,72a1.39,1.39,0,0,1,.84,1.57l-.53,2.71-.58,3a1.4,1.4,0,0,1-1.38,1.13,1.24,1.24,0,0,1-.27,0,1.4,1.4,0,0,1-1.11-1.64l.48-2.44.42-2.11-15.58-6.33a1.4,1.4,0,0,1-.87-1.3V57.54l-8.51,1.2L198,75.48a1.36,1.36,0,0,1-.1.75,1.17,1.17,0,0,1-.22.37,1.42,1.42,0,0,1-1.06.49h-6.77A1.45,1.45,0,0,1,189,76.85Zm25.35,32.73c0,1.81-.09,3.53-.17,4.9l-3,56.22a2.52,2.52,0,0,1-2.84,2.58H196.93c-1.72,0-2.41-.86-2.32-2.58l3.09-58.54h-3.61a2.28,2.28,0,0,1-2.58-2.58V96.17a2.28,2.28,0,0,1,2.58-2.58H211.8a2.28,2.28,0,0,1,2.58,2.58Zm41.27,61.12a2.28,2.28,0,0,1-2.58,2.58h-9.46A2.28,2.28,0,0,1,241,170.7v-29h-5.42l-1.28,29a2.52,2.52,0,0,1-2.84,2.58H220.14c-1.72,0-2.41-.86-2.32-2.58l2.66-58.54h-1.11a2.28,2.28,0,0,1-2.58-2.58V96.17a2.28,2.28,0,0,1,2.58-2.58H234.5a2.27,2.27,0,0,1,2.57,2.58v13.41c0,1.81-.08,3.27-.16,4.9l-.44,9.2H241V95.48a2.28,2.28,0,0,1,2.58-2.58h9.46a2.28,2.28,0,0,1,2.58,2.58Zm17.7.35a2.28,2.28,0,0,1-2.58,2.58h-9.45a2.28,2.28,0,0,1-2.58-2.58V95.31a2.28,2.28,0,0,1,2.58-2.58h9.45a2.28,2.28,0,0,1,2.58,2.58ZM593.93,40.67a1.39,1.39,0,0,1-1.19.66,1.37,1.37,0,0,1-.68-.17l-5.2-2.87a1.41,1.41,0,0,1,1.36-2.46l4,2.22,7-11.1a1.39,1.39,0,0,1,.9-.63,1.41,1.41,0,0,1,1.08.21l10.21,6.94a7.61,7.61,0,0,1,14.29,2.26l7.94-4.14a1.41,1.41,0,0,1,1.68.28L643.88,41l2.19-2a1.4,1.4,0,0,1,2,.09,1.42,1.42,0,0,1-.09,2L644.75,44a1.39,1.39,0,0,1-1,.37,1.37,1.37,0,0,1-1-.45L634,34.58,625.52,39a7.63,7.63,0,0,1-7.34,5.56,7.5,7.5,0,0,1-1.34-.12,7.57,7.57,0,0,0,0,2.08c1,5.06,7.41,9.15,7.48,9.19a1.4,1.4,0,0,1,.29,2.14l-8.72,9.53,4,6.27,2,3.22a1.4,1.4,0,0,1,.15,1.18,1.43,1.43,0,0,1-.79.88l-6.72,2.81a1.49,1.49,0,0,1-.54.11,1.41,1.41,0,0,1-.55-2.71L618.7,77l-2.11-3.32L613,68a1.42,1.42,0,0,1,.15-1.71l8.37-9.13a23.26,23.26,0,0,1-5.85-6.23l-12.81,5.77,3.95,14.66a1.4,1.4,0,0,1-.88,1.69l-7.52,2.71a1.5,1.5,0,0,1-.47.08,1.41,1.41,0,0,1-.48-2.73l6.3-2.27-3.93-14.57a1.4,1.4,0,0,1,.78-1.65l13.88-6.25a11.47,11.47,0,0,1-.35-1.31,10.65,10.65,0,0,1,0-3.65,7.63,7.63,0,0,1-3.57-6.45c0-.21,0-.41,0-.62l-9.76-6.64ZM503.46,95.83a2,2,0,0,1,2.24-2.24h72.9a2,2,0,0,1,2.23,2.24v11.43a2,2,0,0,1-2.23,2.23H505.7a2,2,0,0,1-2.24-2.23V95.83Zm0,35.7v-2.18a2,2,0,0,1,1.2-2,2.73,2.73,0,0,1,1-.18h10.57l-.77-12c-.09-1.72.86-2.58,2.58-2.58H533c1.72,0,2.5.86,2.58,2.58l.69,12h11.35l.69-12c.08-1.72.86-2.58,2.58-2.58h15c1.72,0,2.67.86,2.58,2.58l-.77,12H578.6a2,2,0,0,1,2.23,2.23v11a2,2,0,0,1-2.23,2.23H505.7a2,2,0,0,1-2.24-2.23ZM441.37,72.05a41.75,41.75,0,0,1,6.08-.44,42.05,42.05,0,0,1,41.59,36,41.75,41.75,0,0,1,.21,10.4l.17.28-.24.38a41.88,41.88,0,0,1-3.07,11.44A42.66,42.66,0,0,1,477,143.57a41.9,41.9,0,0,1-15.64,9.8c-.86.3-1.75.57-2.64.82s-1.82.48-2.76.67-1.63.32-2.46.44l-1,.13a42.1,42.1,0,0,1-39.61-17.84c-.54-.78-1.06-1.58-1.55-2.4s-.91-1.59-1.32-2.41a41.66,41.66,0,0,1-4.17-13,42.85,42.85,0,0,1-.43-5.84,47.49,47.49,0,0,0,35.1-41.68Zm-90.08-6.61c0-.93.15-1.85.26-2.77a42.06,42.06,0,0,1,83.77,5.19v.2c0,.87,0,1.73-.09,2.59s-.15,1.91-.27,2.85a42.2,42.2,0,0,1-29.26,34.75c-.91.28-1.84.52-2.77.74s-1.81.4-2.73.55A42.09,42.09,0,0,1,381,108.29c-.88-.27-1.76-.58-2.62-.91s-1.8-.72-2.68-1.13A42.11,42.11,0,0,1,351.2,68.33v-.27C351.2,67.18,351.23,66.31,351.29,65.44Zm-46.07,72.1a42.05,42.05,0,0,1,28.45-73.08,41.69,41.69,0,0,1,12.24,1.85c0,.58-.05,1.16-.05,1.75a47.46,47.46,0,0,0,29.46,43.86,41.75,41.75,0,0,1-6.88,18.17,47.87,47.87,0,0,0-11.56-3A47.33,47.33,0,0,0,314.47,144,41.62,41.62,0,0,1,305.22,137.54Zm71.58,69.84a42.08,42.08,0,0,1-60.64-56.8c.52-.75,1-1.5,1.62-2.23s1.19-1.47,1.83-2.18a41.17,41.17,0,0,1,5.56-5.21,41.72,41.72,0,0,1,25.73-8.86,43.13,43.13,0,0,1,5.31.33,42.43,42.43,0,0,1,8.8,2.08c.89.31,1.77.66,2.64,1s1.68.75,2.5,1.17a41.78,41.78,0,0,1,14,11.65c.13.16.25.33.38.5a47.42,47.42,0,0,0-4.32,53.54c.24.42.5.83.75,1.23A42.88,42.88,0,0,1,376.8,207.38Zm65.5,7.86a42,42,0,0,1-54.55-11.15c-.56-.74-1.09-1.5-1.6-2.27s-.87-1.37-1.28-2.07l-.2-.38a42.1,42.1,0,0,1,3-45.81c.57-.76,1.16-1.5,1.78-2.22s1.23-1.38,1.89-2a41.84,41.84,0,0,1,16.09-10.21,47.55,47.55,0,0,0,40,22c1.54,0,3.09-.08,4.66-.23.72-.07,1.45-.16,2.19-.26,1.55-.23,3.08-.53,4.57-.9a42.13,42.13,0,0,1-16.51,55.56ZM581.69,170.7a2.28,2.28,0,0,1-2.58,2.58H505.18a2.28,2.28,0,0,1-2.58-2.58V159.53a2.28,2.28,0,0,1,2.58-2.58h26.74v-8.77a2.28,2.28,0,0,1,2.58-2.58h15.3a2.28,2.28,0,0,1,2.58,2.58V157h26.73a2.28,2.28,0,0,1,2.58,2.58Zm5.18-102.31-3.28,8.47-.17.42a1.4,1.4,0,0,1-1.31.9,1.32,1.32,0,0,1-.51-.1,1.4,1.4,0,0,1-.83-1.73.32.32,0,0,1,0-.09L583.6,69l-9.23-1.32a1.41,1.41,0,0,1-1.2-1.4V55.48c-.2-.47-.4-.92-.61-1.36l-19.8,20.49a1.41,1.41,0,0,1-1,.43,1.37,1.37,0,0,1-.68-.17L543.9,71a1.41,1.41,0,1,1,1.35-2.47l6.23,3.4,19.7-20.38a22,22,0,0,0-16.62-11.07A7.65,7.65,0,0,1,549.68,46v12.2a1.42,1.42,0,0,1-.79,1.26l-6.6,3.27v3.57a1.41,1.41,0,0,1-2.82,0V61.87a1.4,1.4,0,0,1,.79-1.26l6.6-3.28V46.46a7.62,7.62,0,1,1,3.85-14.33L553.58,22l-6-3.63a1.41,1.41,0,0,1-.6-1.67l2-5.75a1.41,1.41,0,1,1,2.66.92L550,16.54l6,3.6a1.39,1.39,0,0,1,.63,1.59L553.1,34l0,.09a7.55,7.55,0,0,1,1.56,3.56c6.48.78,16.11,4.22,21.26,17a1.3,1.3,0,0,1,.1.52v9.89l9.77,1.4a1.41,1.41,0,0,1,1.12,1.9Zm25.85,103.94L592.6,158.58a3.46,3.46,0,0,1-1.89-3.52v-16.6a1.53,1.53,0,0,1,2.58-1.28l9,6.1,3.35-28H593.72c-1.54,0-2.15-.77-2.15-2.32V100.81a2.05,2.05,0,0,1,2.32-2.32h11.7v-4.9A2.28,2.28,0,0,1,608.16,91h15.22A2.28,2.28,0,0,1,626,93.59v4.9h12.38a2.05,2.05,0,0,1,2.32,2.32v12.12a2.05,2.05,0,0,1-2.32,2.32H626l-6.71,54.59C618.82,173.28,615.56,174.31,612.72,172.33Zm30.52-2.57c0,3.69-2.58,4.47-5.68,2.32L624.24,163a3.3,3.3,0,0,1-1.37-3.52l2.06-16c.26-2,1.72-2.15,3.52-.95L641,151.1c1.72,1.21,2.24,2,2.24,3.78Zm-1.9-93.49c0,.18,0,.36,0,.55A19.16,19.16,0,0,0,637.28,79a19.43,19.43,0,0,0-7.72-4.47,9.44,9.44,0,0,0-.93-1.92l-2.79-4.39,4.63-5a9.32,9.32,0,0,0,2.36-7.57,9.22,9.22,0,0,0-4.23-6.58l-.41-.28a15.59,15.59,0,0,0,3.4-4l.75-.39,4.71,5a9.33,9.33,0,0,0,7.08,2.77,15.23,15.23,0,0,0,1.4,3.3,9.56,9.56,0,0,0-.55,4.19l.87,8.69A9.3,9.3,0,0,0,641.34,76.27Zm34.39,60.65a2.48,2.48,0,0,1-2.58,2.84h-6.27v31.29a2.28,2.28,0,0,1-2.58,2.58H649.08a2.27,2.27,0,0,1-2.57-2.58V95.31a2.27,2.27,0,0,1,2.57-2.58H664.3a2.28,2.28,0,0,1,2.58,2.58v26.91h6.27a2.1,2.1,0,0,1,2.58,2.32ZM678.27,79h-4a1.41,1.41,0,0,1-1.4-1.41,1.5,1.5,0,0,1,.05-.37,1.41,1.41,0,0,1,1.35-1h2.08l-3.23-10.66a17.71,17.71,0,0,1-1.73-.47c-6.14-2.06-9.43-7.27-10.76-9.94a9.45,9.45,0,0,0-5,3.86l1.63,16.4.07.76a1.39,1.39,0,0,1-1.4,1.54h-5.34a1.41,1.41,0,0,1,0-2.81h3.79l-1.6-16a1.4,1.4,0,0,1,.12-.7,10.11,10.11,0,0,1,2.88-3.52,7.62,7.62,0,1,1,10.75-6.94,7.55,7.55,0,0,1-1,3.72,27.88,27.88,0,0,1,5.52.44,1.42,1.42,0,0,1,1.11,1L675.33,63l.54,0,11.3-19.51L683,41.07a1.41,1.41,0,1,1,1.44-2.42l5.37,3.19a1.41,1.41,0,0,1,.5,1.92L679.22,62.89a29.54,29.54,0,0,0,11.53-4.84,1.42,1.42,0,0,1,1.73.16l7.8,7.29,5.66-4.7a1.41,1.41,0,1,1,1.8,2.17l-6.62,5.49a1.44,1.44,0,0,1-.9.32,1.41,1.41,0,0,1-1-.38L691.35,61c-5.49,3.4-10.56,5-15.15,4.88l3.42,11.29A1.41,1.41,0,0,1,678.27,79Zm23,93.33-20.11-13.75a3.45,3.45,0,0,1-1.89-3.52v-16.6a1.53,1.53,0,0,1,2.57-1.28l9,6.1,3.35-28h-12c-1.54,0-2.15-.77-2.15-2.32V100.81a2.05,2.05,0,0,1,2.32-2.32h11.7v-4.9A2.28,2.28,0,0,1,696.7,91h15.22a2.28,2.28,0,0,1,2.58,2.58v4.9h12.38a2,2,0,0,1,2.32,2.32v12.12a2,2,0,0,1-2.32,2.32H714.5l-6.71,54.59C707.37,173.28,704.1,174.31,701.26,172.33Zm30.52-2.57c0,3.69-2.58,4.47-5.67,2.32L712.78,163a3.32,3.32,0,0,1-1.37-3.52l2.06-16c.26-2,1.72-2.15,3.52-.95l12.56,8.6c1.71,1.21,2.23,2,2.23,3.78Zm32.49-32.84a2.47,2.47,0,0,1-2.57,2.84h-6.28v31.29a2.28,2.28,0,0,1-2.58,2.58H737.62a2.27,2.27,0,0,1-2.57-2.58V95.31a2.27,2.27,0,0,1,2.57-2.58h15.22a2.28,2.28,0,0,1,2.58,2.58v26.91h6.28a2.1,2.1,0,0,1,2.57,2.32Z"/><path class="cls-1" d="M503.46,129.35v2.18c.46-1.4.85-2.81,1.2-4.23A2,2,0,0,0,503.46,129.35Z"/><path class="cls-1" d="M308.91,126.86a2.67,2.67,0,0,0,3.09,4.35c.93-.66,22.78-16.59,25.41-56.79a2.67,2.67,0,0,0-5.32-.35C329.63,111.57,309.13,126.7,308.91,126.86Z"/><path class="cls-1" d="M317,91.22a1.91,1.91,0,0,0,.69,2.21,1.91,1.91,0,0,0,2.32-.09,17.7,17.7,0,0,0,5.82-10.87,1.91,1.91,0,0,0-3.79-.4,12.14,12.14,0,0,1-1.35,4.3c-.29-2.12-.75-4-.9-4.64a1.91,1.91,0,0,0-3.7.92C316.83,85.81,317.41,90,317,91.22Z"/><path class="cls-1" d="M305.92,112.88c.57-.31,2.28-1.24,4.05-2.45a12,12,0,0,1-2.28,3.89,1.9,1.9,0,0,0,1.42,3.17,1.88,1.88,0,0,0,1.42-.64,17.74,17.74,0,0,0,4.15-11.6,1.91,1.91,0,0,0-3.59-.81c-.61,1.17-4.09,3.55-7,5.08a1.9,1.9,0,1,0,1.79,3.36Z"/><path class="cls-1" d="M321.68,160.16c31.85,19.89,35.5,45.09,35.54,45.39a2.66,2.66,0,0,0,2.64,2.33,1.94,1.94,0,0,0,.34,0,2.65,2.65,0,0,0,2.31-3c-.14-1.13-3.84-27.92-38-49.25a2.66,2.66,0,1,0-2.82,4.52Z"/><path class="cls-1" d="M321.64,178.36c3.16.8,7.11,2.27,8,3.25a1.89,1.89,0,0,0,1.42.64,2,2,0,0,0,.85-.2,1.91,1.91,0,0,0,1-2.08,17.8,17.8,0,0,0-6.83-10.27,1.9,1.9,0,1,0-2.14,3.15,12,12,0,0,1,3.15,3.22c-2-.74-3.89-1.24-4.52-1.4a1.9,1.9,0,1,0-.94,3.69Z"/><path class="cls-1" d="M340.9,190.25a1.89,1.89,0,0,0-2.26.47,1.91,1.91,0,0,0-.14,2.31c.74,1.09,1.19,5.28,1.18,8.54a1.91,1.91,0,0,0,1.9,1.91h0a1.9,1.9,0,0,0,1.9-1.9c0-.65,0-2.6-.24-4.73a12.08,12.08,0,0,1,2.34,3.85,1.9,1.9,0,0,0,3.58-1.3A17.7,17.7,0,0,0,340.9,190.25Z"/><path class="cls-1" d="M399.32,202.44a2.67,2.67,0,0,0,4.09,3.43C426.11,178.75,450,177.06,453,177a21.22,21.22,0,0,1-.9-5.3C446.26,172,422.33,175,399.32,202.44Z"/><path class="cls-1" d="M453.32,177a2.67,2.67,0,0,0,0-5.33c-.13,0-.57,0-1.29,0a21.22,21.22,0,0,0,.9,5.3h.35Z"/><path class="cls-1" d="M416.29,205.38a11.72,11.72,0,0,1,3.62-2.68,46.08,46.08,0,0,0-2,4.28,1.89,1.89,0,0,0,1.05,2.48,1.76,1.76,0,0,0,.71.14,1.91,1.91,0,0,0,1.77-1.18c1.22-3,3.23-6.73,4.32-7.46a1.9,1.9,0,0,0-1.17-3.48,17.69,17.69,0,0,0-11.12,5.34,1.91,1.91,0,0,0,2.83,2.56Z"/><path class="cls-1" d="M437.45,194a1.82,1.82,0,0,0,.84-.2c1.18-.57,5.39-.44,8.61,0a1.9,1.9,0,1,0,.54-3.77,46,46,0,0,0-4.71-.42,12,12,0,0,1,4.13-1.78,1.91,1.91,0,1,0-.79-3.73A17.71,17.71,0,0,0,435.86,191a1.91,1.91,0,0,0,1.59,3Z"/><path class="cls-1" d="M457.49,83.31a2.67,2.67,0,0,0-4.93-2c-.43,1-10.44,26.17,8.74,61.6a2.67,2.67,0,0,0,2.35,1.4,2.68,2.68,0,0,0,2.34-3.94C448.13,107.35,457.35,83.65,457.49,83.31Z"/><path class="cls-1" d="M469.67,117.75a1.91,1.91,0,0,0-3.68-.2,17.75,17.75,0,0,0,.87,12.3,1.9,1.9,0,0,0,1.71,1.07,1.82,1.82,0,0,0,.84-.2,1.91,1.91,0,0,0,.87-2.55,12,12,0,0,1-1.15-4.35,46.63,46.63,0,0,0,3.24,3.45,1.91,1.91,0,0,0,2.63-2.76C472.65,122.27,469.94,119,469.67,117.75Z"/><path class="cls-1" d="M465.69,105.49a2.05,2.05,0,0,0,.64-.11,1.92,1.92,0,0,0,1.26-1.94c-.11-1.31,1.57-5.18,3.19-8a1.91,1.91,0,1,0-3.31-1.89c-.32.57-1.27,2.27-2.13,4.23a12,12,0,0,1-.13-4.5,1.91,1.91,0,1,0-3.76-.64,17.75,17.75,0,0,0,2.67,12A1.94,1.94,0,0,0,465.69,105.49Z"/><path class="cls-1" d="M425.73,55.1a2.67,2.67,0,0,0-3.43-1.58c-35.28,12.95-57.43.33-57.65.21a2.66,2.66,0,1,0-2.72,4.58c.65.39,11.16,6.46,29.2,6.46a95.51,95.51,0,0,0,33-6.25A2.66,2.66,0,0,0,425.73,55.1Z"/><path class="cls-1" d="M399.77,50.24a18.37,18.37,0,0,0,7.54,1.64,15.53,15.53,0,0,0,4.75-.73,1.91,1.91,0,0,0-1.17-3.63,11.85,11.85,0,0,1-4.47.52,46.51,46.51,0,0,0,3.88-2.71,1.91,1.91,0,1,0-2.35-3c-2.56,2-6.15,4.22-7.46,4.31a1.91,1.91,0,0,0-.72,3.61Z"/><path class="cls-1" d="M374.45,51.15a15.54,15.54,0,0,0,4.76.73,18.37,18.37,0,0,0,7.54-1.64,1.91,1.91,0,0,0-.72-3.61c-1.32-.09-4.9-2.3-7.47-4.31a1.91,1.91,0,0,0-2.34,3A46.51,46.51,0,0,0,380.1,48a11.9,11.9,0,0,1-4.48-.52,1.91,1.91,0,0,0-1.17,3.63Z"/></g></g></svg>