<?xml version="1.0" encoding="UTF-8"?>
<svg id="Layer_2" xmlns="http://www.w3.org/2000/svg" version="1.1" viewBox="0 0 838.5 209.6">
  <!-- Generator: Adobe Illustrator 29.0.0, SVG Export Plug-In . SVG Version: 2.1.0 Build 186)  -->
  <defs>
    <style>
      .st0 {
        fill: #777;
      }

      .st1 {
        fill: #002994;
      }

      .st2 {
        fill: #5f9eff;
      }
    </style>
  </defs>
  <g>
    <path d="M304,82.3c0,2.5-.5,4.7-1.4,6.7-.9,2-2.2,3.8-3.8,5.4-1.6,1.6-3.5,2.9-5.8,4s-4.7,1.9-7.4,2.3v8.4h34.2c1.4,0,2.2.5,2.6,1.5s.6,2.5.6,4.5-.2,3.5-.6,4.4-1.2,1.5-2.6,1.5h-84.8v-12h36.4v-8.3c-2.8-.5-5.4-1.2-7.7-2.2s-4.4-2.3-6-3.9c-1.7-1.6-3-3.4-3.9-5.5-1-2.1-1.4-4.3-1.4-6.9s.7-5.6,2-7.9,3.2-4.3,5.5-6,5-2.9,8.2-3.8,6.5-1.3,10.1-1.3,7,.5,10.1,1.3c3.1.9,5.9,2.2,8.2,3.8s4.1,3.6,5.5,6,2,5,2,7.9h0ZM245.5,60.3v-11.4h26.1v-9.8h13.6v9.8h24.4c1.4,0,2.2.5,2.6,1.4.4.9.6,2.4.6,4.3s-.2,3.4-.6,4.3c-.4.9-1.2,1.3-2.6,1.3,0,0-64.1,0-64.1,0ZM289.9,82.3c0-2.4-1.1-4.3-3.2-5.7-2.1-1.4-5-2.2-8.5-2.2s-6.3.7-8.4,2.2-3.2,3.3-3.2,5.7,1.1,4.3,3.2,5.7c2.1,1.4,5,2.2,8.4,2.2s6.3-.7,8.5-2.2c2.1-1.4,3.2-3.3,3.2-5.7Z"/>
    <path d="M364,98.2v-11.8h12.2v-13.5h-8.6c-.7,2.7-1.6,5.3-2.8,7.7-1.2,2.4-2.6,4.8-4.2,7.2-3.3,4.6-6.7,8.7-10.2,12.5-3.5,3.8-7.2,7.1-11.2,10-1.2.8-2.2.9-3.2.5-1-.4-2.1-1.5-3.5-3.1-1.5-1.8-2.4-3.2-2.8-4.1s0-2,1.3-2.9c4.3-3.3,8-6.8,11.2-10.3,3.2-3.5,5.9-6.9,8-10.1,1.4-2.1,2.5-3.9,3.3-5.6.8-1.7,1.3-3.3,1.6-4.7.3-1.4.5-2.7.6-3.8s0-2.1,0-2.9c0-1.4-.6-2.2-1.9-2.2h-22v-12.1h24.8c1.6,0,3,.6,4.3,1.7s2.7,2.7,4.1,4.5c1.7,2.2,2.8,4.2,3.4,5.9h7.9v-18.2h13.3v82.5c0,1.1-.6,1.8-1.7,2.2-1.1.3-2.8.5-5,.5s-3.8-.2-4.9-.5c-1.2-.3-1.7-1.1-1.7-2.2v-27.2h-12.2,0ZM410.5,126.3c0,1.2-.6,1.9-1.8,2.2s-2.9.5-5.1.5-3.8-.2-5-.5c-1.2-.3-1.8-1.1-1.8-2.2V41.9h13.6v84.5h0Z"/>
    <path d="M447.3,100.1v-11.2h84.8c1.4,0,2.2.4,2.6,1.3s.6,2.3.6,4.3-.2,3.4-.6,4.2-1.2,1.3-2.6,1.3h-84.8,0ZM471,134.1c-1.2,0-2.4-.4-3.8-1.3s-2.6-1.9-3.7-3.1c-1-1-2-2.2-2.8-3.4-.8-1.2-1.2-2.3-1.2-3.3v-17.6h13.9v14.8c0,1.8.8,2.7,2.4,2.7h44.4c1.2,0,1.9.5,2.2,1.5s.5,2.4.5,4.2-.2,3.3-.5,4.2-1,1.3-2.2,1.3h-49.2ZM474.1,52v4.6h42c1.4,0,2.2.3,2.6,1,.4.7.6,2,.6,4s-.2,3.3-.6,4c-.4.7-1.2,1-2.6,1h-42v3.7c0,1,.5,1.5,1.4,1.5h42.6c1.4,0,2.2.4,2.6,1.1s.6,2.1.6,4-.2,3.3-.6,4c-.4.7-1.2,1.1-2.6,1.1h-46.8c-1.2,0-2.3-.4-3.5-1.1-1.2-.7-2.3-1.6-3.2-2.5-1.2-1.2-2.1-2.3-2.9-3.4s-1.2-2.2-1.2-3.1v-30.2h56.6c1.4,0,2.2.4,2.6,1.1.4.7.6,2.1.6,4s-.2,3.3-.6,4c-.4.7-1.2,1.1-2.6,1.1h-43,0Z"/>
    <path d="M542.5,100.1v-11.2h84.8c1.4,0,2.2.4,2.6,1.3s.6,2.3.6,4.3-.2,3.4-.6,4.2-1.2,1.3-2.6,1.3c0,0-84.8,0-84.8,0ZM566.2,134.1c-1.2,0-2.4-.4-3.8-1.3s-2.6-1.9-3.7-3.1c-1-1-2-2.2-2.8-3.4-.8-1.2-1.2-2.3-1.2-3.3v-17.6h13.9v14.8c0,1.8.8,2.7,2.3,2.7h44.4c1.2,0,1.9.5,2.2,1.5s.5,2.4.5,4.2-.2,3.3-.5,4.2-1,1.3-2.2,1.3h-49.2ZM569.3,52v4.6h42c1.4,0,2.2.3,2.6,1,.4.7.6,2,.6,4s-.2,3.3-.6,4c-.4.7-1.2,1-2.6,1h-42v3.7c0,1,.5,1.5,1.4,1.5h42.6c1.4,0,2.2.4,2.6,1.1s.6,2.1.6,4-.2,3.3-.6,4c-.4.7-1.2,1.1-2.6,1.1h-46.8c-1.2,0-2.3-.4-3.5-1.1-1.2-.7-2.3-1.6-3.2-2.5-1.2-1.2-2.1-2.3-2.9-3.4s-1.2-2.2-1.2-3.1v-30.2h56.6c1.4,0,2.2.4,2.6,1.1.4.7.6,2.1.6,4s-.2,3.3-.6,4c-.4.7-1.2,1.1-2.6,1.1h-43,0Z"/>
    <path d="M721.3,103.9c1.4,0,2.2.5,2.6,1.5.4,1,.6,2.5.6,4.5s-.2,3.5-.6,4.4c-.4,1-1.2,1.5-2.6,1.5h-58.3v-12h58.3ZM717.5,69.7c0,3.3-.7,6.3-2.1,9.2s-3.3,5.3-5.6,7.4-5.1,3.8-8.2,5-6.4,1.8-9.9,1.8-6.8-.6-9.9-1.8-5.9-2.8-8.2-5-4.2-4.6-5.6-7.4-2-5.9-2-9.2.7-6.3,2-9.2c1.4-2.8,3.2-5.3,5.6-7.4,2.3-2.1,5.1-3.8,8.2-5s6.5-1.8,9.9-1.8,6.8.6,9.9,1.8c3.1,1.2,5.8,2.8,8.2,5,2.3,2.1,4.2,4.6,5.6,7.4,1.4,2.8,2.1,5.9,2.1,9.2ZM703.5,69.7c0-1.5-.3-2.9-.9-4.3s-1.4-2.6-2.5-3.7c-1.1-1.1-2.3-1.9-3.8-2.6s-3.1-1-4.8-1-3.4.3-4.8,1-2.7,1.5-3.7,2.6-1.9,2.3-2.5,3.7c-.6,1.4-.9,2.8-.9,4.3s.3,2.9.9,4.3,1.4,2.6,2.5,3.7c1.1,1.1,2.3,1.9,3.7,2.6,1.4.7,3,1,4.8,1s3.3-.3,4.8-1c1.5-.7,2.7-1.5,3.8-2.6s1.9-2.3,2.5-3.7c.6-1.4.9-2.8.9-4.3ZM742.2,126.4c0,1.2-.6,1.9-1.8,2.3-1.2.4-3,.6-5.3.6s-3.9-.2-5.1-.6-1.8-1.1-1.8-2.3V41.9h14.1v84.6h0Z"/>
    <path d="M758.2,90.6v-10.9h56.5c1.4,0,2.2.4,2.6,1.3.4.8.6,2.3.6,4.2s-.2,3.4-.6,4.2-1.2,1.2-2.6,1.2h-23.8v10.3c0,1.2-.6,1.9-1.7,2.3s-2.8.6-5.2.6-3.9-.2-5-.6c-1.2-.4-1.7-1.2-1.7-2.3v-10.3h-19,0ZM809.7,57.5c0,2.9-.6,5.5-1.8,7.8-1.2,2.3-2.9,4.3-5,6-2.1,1.7-4.5,2.9-7.3,3.8-2.8.9-5.7,1.3-8.7,1.3s-5.9-.4-8.7-1.3c-2.8-.9-5.2-2.2-7.3-3.8s-3.7-3.7-5-6-1.8-4.9-1.8-7.8.6-5.4,1.8-7.8c1.2-2.3,2.9-4.3,5-5.9,2.1-1.6,4.5-2.9,7.3-3.8,2.8-.9,5.7-1.3,8.7-1.3s5.9.4,8.7,1.3c2.8.9,5.2,2.1,7.3,3.8,2.1,1.6,3.7,3.6,5,5.9,1.2,2.3,1.8,4.9,1.8,7.8ZM784.5,134.1c-1.2,0-2.4-.4-3.8-1.3s-2.6-1.9-3.7-3.1c-1-1-1.9-2.2-2.8-3.4s-1.2-2.3-1.2-3.3v-14.5h13.9v11.4c0,1.8.8,2.7,2.3,2.7h46.6c1.2,0,1.9.5,2.2,1.6s.5,2.5.5,4.2-.2,3.3-.5,4.3-1,1.4-2.2,1.4h-51.4ZM796.4,57.5c0-2.2-.8-4.2-2.4-5.9s-3.9-2.6-7-2.6-5.4.9-7,2.6c-1.6,1.8-2.4,3.7-2.4,5.9s.2,2.2.6,3.2,1,2,1.8,2.8c.8.8,1.8,1.5,2.9,2s2.5.7,4.1.7,2.8-.2,4-.7,2.2-1.1,3-2c.8-.8,1.4-1.8,1.8-2.8s.6-2.1.6-3.2h0ZM805.7,94.3h17.8v-53.4h13.9v69.4c0,1.4-.7,2.2-2,2.6s-3,.5-4.9.5-3.9-.2-5.1-.7-1.8-1.2-1.8-2.4v-4.5h-17.8v-11.5Z"/>
  </g>
  <path class="st2" d="M138.9,46.5l-18.3-3.5-11.6-7.9c-5.4,6.1-8.7,11.5-7.8,20.9-11.1,21,5.3,35,13.7,51.7,3.6,7.2,4.8,15.3,3.7,23.3l-.6,5.9c-3.1,19.9-10.8,29.6-10.8,29.6,2.7-1.4,15.9-14.5,19.4-34.3.2-1.1.3-2.2.4-3.2,3.3-29.1-20-40.1-21.1-57.1-.5-8,3.1-15.5,3.2-15.5-.6-3.6.3-9,1.5-9.9l7.2,4.8,16.5,3.2,13,11.9-3.1,4.9c-15.1,0-12.1,14.2-7.1,17.2,0-8.2,6.3-10.8,10.8-9.2l9.3-15-18.4-17.8h0Z"/>
  <path class="st2" d="M131.5,94.4c-6.3-8.8-11.3-15.3-8-25.6-10.4,9.6-4.4,19.6,2.6,29.5,6.4,9.1,9.6,15.4,9,26.1-1.8,19.1-10.3,34.7-10.3,34.7,2.3-1.1,13.5-12.3,16.4-29,.3-1.6.4-3.2.5-4.7,1.2-15-4.7-23.4-10.1-31h0Z"/>
  <path class="st1" d="M110.2,133.4c.7-21.8-12.2-36-21.5-56.1-10.7-23,0-43.4,0-43.4-31.1,44,4.5,65.9,7.8,99.1,0,.1,0,.3,0,.4,3,33-16.5,57.7-16.5,57.7,3.9-1.8,23.2-19.8,29-47.6.8-3.6,1.1-6.9,1.2-10.1h0Z"/>
  <path class="st1" d="M67.8,44.9c2.1,0,3.7-1.7,3.7-3.7s-1.7-3.7-3.7-3.7-3.7,1.7-3.7,3.7,1.7,3.7,3.7,3.7Z"/>
  <path class="st1" d="M58.9,60.2c2.3,0,4.1-1.8,4.1-4.1s-1.8-4.1-4.1-4.1-4.1,1.8-4.1,4.1,1.8,4.1,4.1,4.1Z"/>
  <path class="st1" d="M62.9,72.6c0-2.9-2.4-5.3-5.3-5.3s-5.3,2.4-5.3,5.3,2.4,5.3,5.3,5.3,5.3-2.4,5.3-5.3Z"/>
  <path class="st1" d="M68.8,92.1c0-3.9-3.2-7.1-7.1-7.1s-7.1,3.2-7.1,7.1,3.2,7.1,7.1,7.1,7.1-3.2,7.1-7.1Z"/>
  <path class="st1" d="M72.2,105.3c-4.8,0-8.7,3.9-8.7,8.7s3.9,8.7,8.7,8.7,8.7-3.9,8.7-8.7-3.9-8.7-8.7-8.7Z"/>
  <path class="st1" d="M72.7,168.5c-2.2,0-4,1.8-4,4s1.8,4,4,4,4-1.8,4-4-1.8-4-4-4Z"/>
  <path class="st1" d="M82.8,156.1c0-2.9-2.4-5.3-5.3-5.3s-5.3,2.4-5.3,5.3,2.4,5.3,5.3,5.3,5.3-2.4,5.3-5.3Z"/>
  <path class="st1" d="M72.2,137.2c0,3.6,2.9,6.5,6.5,6.5s6.5-2.9,6.5-6.5-2.9-6.5-6.5-6.5-6.5,2.9-6.5,6.5Z"/>
  <polygon class="st2" points="178.9 96.1 169.5 96.1 169.5 86.7 160.1 86.7 160.1 96.1 150.8 96.1 150.8 105.4 160.1 105.4 160.1 114.8 169.5 114.8 169.5 105.4 178.9 105.4 178.9 96.1"/>
  <path class="st1" d="M104.8,209.6C47,209.6,0,162.6,0,104.8S47,0,104.8,0s104.8,47,104.8,104.8-47,104.8-104.8,104.8ZM104.8,10.2C52.7,10.2,10.2,52.7,10.2,104.8s42.4,94.6,94.6,94.6,94.6-42.4,94.6-94.6S156.9,10.2,104.8,10.2Z"/>
  <polygon class="st2" points="126.4 57.4 133.2 59.3 132.1 61.9 128.3 61.4 126.4 57.4"/>
  <g>
    <path class="st0" d="M333.9,159.8v-1.5h-9.2v-3h22v3h-9.2v1.5c0,5.3,4.1,10.4,10.1,12.5l-1.9,2.9c-4.6-1.7-8.1-5.1-9.9-9.3-1.8,4.8-5.5,8.6-10.4,10.5l-1.9-2.9c6.1-2.2,10.4-7.7,10.4-13.6h0ZM343.7,177.9c8.5,0,13.7,2.8,13.7,7.6s-5.2,7.6-13.7,7.6c-8.5,0-13.7-2.8-13.7-7.6,0-4.8,5.2-7.6,13.7-7.6ZM343.7,190.2c6.3,0,10.1-1.8,10.1-4.7s-3.9-4.8-10.1-4.8-10.1,1.8-10.1,4.8c0,3,3.8,4.8,10.1,4.7ZM357.2,176.6h-3.6v-10.7h-8.2v-3h8.2v-10.7h3.6v24.4h0Z"/>
    <path class="st0" d="M392,159.8h-23.1v-2.9h9.9v-4.9h3.6v4.9h9.6v2.9ZM380.5,161.9c5.5,0,9.3,3,9.3,7.6,0,4.6-3.9,7.6-9.3,7.6-5.5,0-9.3-3-9.2-7.6,0-4.6,3.7-7.6,9.2-7.6ZM380.5,174.2c3.5,0,5.9-1.9,6-4.8,0-2.9-2.5-4.8-6-4.8-3.6,0-5.9,2-5.9,4.8,0,2.9,2.3,4.8,5.9,4.8ZM389.2,179.1c8.5,0,13.7,2.5,13.7,7s-5.2,6.9-13.7,6.9-13.8-2.6-13.8-6.9,5.2-7,13.8-7ZM389.2,190.2c6.1,0,9.9-1.5,9.9-4.1s-3.8-4.2-9.9-4.2c-6.2,0-10,1.5-10,4.2,0,2.6,3.8,4.2,10,4.1ZM391.9,170h7.1v-5h-7.1v-3h7.1v-9.9h3.6v26.5h-3.6v-5.7h-7.1v-3h0Z"/>
    <path class="st0" d="M438.6,164.5c0,5.2-3.8,8.8-9.2,9.5v7c4-.2,8.2-.6,12.1-1.1l.3,2.7c-9.4,1.8-19.4,1.8-26.8,1.8l-.5-3c3.3,0,7.2,0,11.3-.1v-7.1c-5.5-.7-9.2-4.3-9.2-9.5,0-5.7,4.6-9.6,11-9.6,6.4,0,11,3.9,11,9.6h0ZM427.6,170.9c4.3,0,7.5-2.6,7.5-6.4,0-3.8-3.1-6.4-7.5-6.4s-7.5,2.6-7.5,6.4c0,3.8,3.1,6.5,7.5,6.4ZM444.2,152.2h3.6v41h-3.6v-41Z"/>
    <path class="st0" d="M468.1,181v-12.5h3.5v12.4c4.5-.2,9.2-.5,13.4-1l.2,2.7c-8.6,1.3-18.2,1.5-25.5,1.5l-.5-3c2.7,0,5.7,0,8.8-.1h0ZM482.4,158.9c0,3.2,0,8.6-1.2,16.2l-3.6-.3c1.1-6.9,1.2-11.8,1.2-15.1h-17.2v-2.9h20.8v2.1h0ZM487.7,152.2h3.6v17.1h6.6v3.1h-6.6v20.7h-3.6v-40.9Z"/>
    <g>
      <path class="st0" d="M567.4,176.9h-37.3v-2.9h16.8v-4.1h-11.9v-16.5h27.7v2.9h-24.1v3.8h23v2.8h-23v4.1h24.3v2.9h-12.5v4.1h16.9v2.9h0ZM548.8,179.9c9,0,14,2.3,14.1,6.5,0,4.3-5.1,6.5-14.1,6.5s-14.2-2.2-14.1-6.5c0-4.3,5.1-6.6,14.1-6.5ZM548.8,190.2c6.7,0,10.4-1.2,10.5-3.7,0-2.4-3.8-3.8-10.5-3.8-6.8,0-10.5,1.4-10.5,3.8,0,2.5,3.7,3.8,10.5,3.7Z"/>
      <path class="st0" d="M612.9,174.7h-37.3v-3h37.3v3ZM591.9,157.3h-12.9v-3h30.6v3h-13c.2,4.6,7,8.2,14.2,9l-1.3,2.9c-6.7-.9-13-3.9-15.2-8.4-2.2,4.5-8.5,7.6-15.2,8.4l-1.3-2.9c7.1-.8,14-4.4,14.2-9h0ZM594.2,178.2c8.8,0,14,2.7,14.1,7.4,0,4.7-5.3,7.4-14.1,7.4s-14.2-2.6-14.1-7.4c0-4.7,5.3-7.4,14.1-7.4ZM594.2,190.1c6.5,0,10.4-1.6,10.5-4.5,0-2.9-4-4.5-10.5-4.6-6.6,0-10.5,1.7-10.5,4.6,0,2.9,3.9,4.5,10.5,4.5Z"/>
      <path class="st0" d="M648.3,179.7l.3,2.7c-9.4,1.8-19.4,1.8-26.8,1.8l-.5-3.1c7.5,0,18,0,27-1.4h0ZM645.5,164.8c0,5.7-4.6,9.6-11,9.6-6.5,0-11.1-3.9-11-9.6,0-5.7,4.6-9.6,11-9.6,6.4,0,11,3.9,11,9.6ZM634.5,171.3c4.3,0,7.5-2.6,7.5-6.4,0-3.8-3.1-6.4-7.5-6.4s-7.5,2.6-7.5,6.4c0,3.8,3.1,6.4,7.5,6.4ZM651,152.2h3.6v41h-3.6v-41Z"/>
      <path class="st0" d="M691,159.6h-24.4v-2.9h10.4v-4.6h3.6v4.6h10.4v2.9h0ZM678.8,161.7c5.9,0,9.8,2.9,9.8,7.4,0,4.4-4,7.3-9.8,7.4-5.9,0-9.9-2.9-9.8-7.4,0-4.5,3.9-7.4,9.8-7.4ZM671.7,180.1h26.8v13.1h-3.6v-10.1h-23.2v-2.9h0ZM678.8,173.6c3.8,0,6.4-1.8,6.4-4.5,0-2.8-2.6-4.6-6.4-4.6-3.9,0-6.4,1.8-6.4,4.6,0,2.7,2.5,4.5,6.4,4.5ZM694.9,152.2h3.6v11.4h6.2v3h-6.2v11.2h-3.6v-25.6h0Z"/>
      <path class="st0" d="M720.4,181v-12.5h3.5v12.4c4.5-.2,9.2-.5,13.4-1l.2,2.7c-8.6,1.3-18.2,1.5-25.5,1.5l-.5-3c2.7,0,5.7,0,8.8-.1h0ZM734.7,158.9c0,3.2,0,8.6-1.2,16.2l-3.6-.3c1.1-6.9,1.2-11.8,1.2-15.1h-17.2v-2.9h20.8v2.1h0ZM740,152.2h3.6v17.1h6.6v3.1h-6.6v20.7h-3.6v-40.9Z"/>
    </g>
    <circle class="st0" cx="514" cy="171.7" r="3.5"/>
  </g>
</svg>