<?xml version="1.0" encoding="UTF-8"?>
<svg id="Layer_2" data-name="Layer 2" xmlns="http://www.w3.org/2000/svg" viewBox="0 0 838.54 209.6">
  <defs>
    <style>
      .cls-1 {
        fill: #fff;
      }
    </style>
  </defs>
  <g id="_레이어_1" data-name="레이어 1">
    <g>
      <g>
        <path class="cls-1" d="M304.05,82.31c0,2.46-.46,4.69-1.38,6.71-.92,2.01-2.19,3.81-3.79,5.37-1.6,1.57-3.53,2.9-5.78,3.99-2.25,1.09-4.71,1.88-7.37,2.35v8.39h34.19c1.36,0,2.23.51,2.61,1.54s.56,2.52.56,4.5-.19,3.46-.56,4.45-1.25,1.49-2.61,1.49h-84.76v-11.98h36.44v-8.29c-2.8-.48-5.37-1.23-7.73-2.25s-4.37-2.34-6.04-3.94c-1.67-1.6-2.99-3.43-3.94-5.48-.96-2.05-1.43-4.33-1.43-6.86,0-2.93.67-5.58,2-7.93s3.16-4.35,5.48-5.99c2.32-1.64,5.05-2.9,8.19-3.79s6.52-1.33,10.13-1.33,6.99.45,10.14,1.33c3.14.89,5.87,2.15,8.19,3.79,2.32,1.64,4.15,3.64,5.48,5.99s2,5,2,7.93ZM245.49,60.3v-11.36h26.1v-9.83h13.62v9.83h24.36c1.36,0,2.24.46,2.61,1.38.38.92.56,2.37.56,4.35s-.19,3.41-.56,4.3c-.38.89-1.25,1.33-2.61,1.33h-64.08ZM289.92,82.31c0-2.39-1.08-4.3-3.23-5.73-2.15-1.43-4.96-2.15-8.45-2.15s-6.29.72-8.44,2.15c-2.15,1.43-3.23,3.35-3.23,5.73s1.08,4.3,3.23,5.73c2.15,1.43,4.96,2.15,8.44,2.15s6.3-.72,8.45-2.15c2.15-1.43,3.23-3.34,3.23-5.73Z"/>
        <path class="cls-1" d="M364.03,98.18v-11.77h12.18v-13.51h-8.6c-.68,2.73-1.62,5.31-2.81,7.73-1.19,2.42-2.61,4.83-4.25,7.22-3.28,4.57-6.67,8.74-10.19,12.49-3.51,3.75-7.25,7.1-11.21,10.03-1.16.75-2.22.91-3.17.46-.96-.44-2.12-1.48-3.48-3.12-1.5-1.77-2.44-3.15-2.82-4.14s.05-1.96,1.28-2.92c4.3-3.34,8.03-6.77,11.21-10.29,3.17-3.51,5.85-6.87,8.04-10.08,1.43-2.05,2.52-3.92,3.28-5.63.75-1.7,1.3-3.28,1.64-4.71.34-1.43.53-2.71.56-3.84s.05-2.1.05-2.92c0-1.43-.65-2.15-1.94-2.15h-22.01v-12.08h24.77c1.57,0,3,.58,4.3,1.74,1.3,1.16,2.66,2.66,4.09,4.5,1.71,2.18,2.83,4.16,3.38,5.94h7.88v-18.22h13.31v82.51c0,1.09-.56,1.81-1.69,2.15-1.13.34-2.78.51-4.97.51s-3.75-.17-4.91-.51c-1.16-.34-1.74-1.06-1.74-2.15v-27.23h-12.18ZM410.5,126.33c0,1.16-.6,1.91-1.79,2.25-1.19.34-2.88.51-5.07.51s-3.77-.17-4.97-.51c-1.19-.34-1.79-1.09-1.79-2.25V41.88h13.61v84.45Z"/>
        <path class="cls-1" d="M447.28,100.12v-11.16h84.76c1.36,0,2.23.44,2.61,1.33.38.89.56,2.32.56,4.3s-.19,3.4-.56,4.25-1.25,1.28-2.61,1.28h-84.76ZM471.03,134.11c-1.16,0-2.42-.44-3.79-1.33-1.37-.89-2.6-1.91-3.68-3.07-1.02-1.02-1.95-2.15-2.76-3.38-.82-1.23-1.23-2.32-1.23-3.28v-17.61h13.92v14.84c0,1.77.78,2.66,2.35,2.66h44.43c1.16,0,1.89.5,2.2,1.49.31.99.46,2.37.46,4.15,0,1.91-.15,3.31-.46,4.2-.31.89-1.04,1.33-2.2,1.33h-49.24ZM474.1,52.01v4.61h41.97c1.36,0,2.23.34,2.61,1.02.37.68.56,2.01.56,3.99s-.19,3.31-.56,3.99c-.38.68-1.25,1.02-2.61,1.02h-41.97v3.68c0,1.02.48,1.54,1.43,1.54h42.58c1.36,0,2.23.36,2.61,1.08s.56,2.07.56,4.04-.19,3.33-.56,4.04c-.38.72-1.25,1.07-2.61,1.07h-46.78c-1.16,0-2.34-.36-3.53-1.07-1.19-.72-2.27-1.55-3.23-2.51-1.16-1.16-2.13-2.3-2.92-3.43s-1.18-2.16-1.18-3.12v-30.2h56.61c1.36,0,2.23.36,2.61,1.08.37.72.56,2.06.56,4.04s-.19,3.33-.56,4.04c-.38.72-1.25,1.08-2.61,1.08h-42.99Z"/>
        <path class="cls-1" d="M542.48,100.12v-11.16h84.76c1.36,0,2.23.44,2.61,1.33.38.89.56,2.32.56,4.3s-.19,3.4-.56,4.25-1.25,1.28-2.61,1.28h-84.76ZM566.23,134.11c-1.16,0-2.42-.44-3.79-1.33-1.37-.89-2.6-1.91-3.68-3.07-1.02-1.02-1.95-2.15-2.76-3.38-.82-1.23-1.23-2.32-1.23-3.28v-17.61h13.92v14.84c0,1.77.78,2.66,2.35,2.66h44.43c1.16,0,1.89.5,2.2,1.49.31.99.46,2.37.46,4.15,0,1.91-.15,3.31-.46,4.2-.31.89-1.04,1.33-2.2,1.33h-49.24ZM569.3,52.01v4.61h41.97c1.36,0,2.23.34,2.61,1.02.37.68.56,2.01.56,3.99s-.19,3.31-.56,3.99c-.38.68-1.25,1.02-2.61,1.02h-41.97v3.68c0,1.02.48,1.54,1.43,1.54h42.58c1.36,0,2.23.36,2.61,1.08s.56,2.07.56,4.04-.19,3.33-.56,4.04c-.38.72-1.25,1.07-2.61,1.07h-46.78c-1.16,0-2.34-.36-3.53-1.07-1.19-.72-2.27-1.55-3.23-2.51-1.16-1.16-2.13-2.3-2.92-3.43s-1.18-2.16-1.18-3.12v-30.2h56.61c1.36,0,2.23.36,2.61,1.08.37.72.56,2.06.56,4.04s-.19,3.33-.56,4.04c-.38.72-1.25,1.08-2.61,1.08h-42.99Z"/>
        <path class="cls-1" d="M721.34,103.91c1.36,0,2.23.51,2.61,1.54.37,1.02.56,2.52.56,4.5s-.19,3.46-.56,4.45c-.38.99-1.25,1.48-2.61,1.48h-58.35v-11.97h58.35ZM717.45,69.72c0,3.28-.7,6.33-2.1,9.16s-3.28,5.31-5.63,7.42-5.08,3.77-8.19,4.96c-3.11,1.19-6.4,1.79-9.88,1.79s-6.79-.6-9.93-1.79c-3.14-1.19-5.89-2.85-8.24-4.96s-4.21-4.59-5.58-7.42c-1.37-2.83-2.05-5.89-2.05-9.16s.68-6.33,2.05-9.16c1.36-2.83,3.22-5.3,5.58-7.42,2.35-2.12,5.1-3.77,8.24-4.96s6.45-1.79,9.93-1.79,6.77.6,9.88,1.79c3.1,1.19,5.83,2.85,8.19,4.96,2.35,2.12,4.23,4.59,5.63,7.42,1.4,2.83,2.1,5.89,2.1,9.16ZM703.53,69.72c0-1.5-.29-2.95-.87-4.35s-1.4-2.63-2.46-3.69c-1.06-1.06-2.32-1.91-3.79-2.56s-3.06-.97-4.76-.97-3.38.32-4.81.97c-1.43.65-2.68,1.5-3.74,2.56-1.06,1.06-1.88,2.29-2.46,3.69-.58,1.4-.87,2.85-.87,4.35s.29,2.95.87,4.35c.58,1.4,1.4,2.63,2.46,3.68,1.06,1.06,2.3,1.91,3.74,2.56,1.43.65,3.04.97,4.81.97s3.29-.32,4.76-.97c1.47-.65,2.73-1.5,3.79-2.56s1.88-2.29,2.46-3.68c.58-1.4.87-2.85.87-4.35ZM742.22,126.43c0,1.16-.61,1.94-1.84,2.35-1.23.41-3.01.61-5.32.61-2.19,0-3.89-.19-5.12-.56s-1.84-1.14-1.84-2.3V41.88h14.13v84.55Z"/>
        <path class="cls-1" d="M758.19,90.6v-10.95h56.5c1.36,0,2.24.43,2.61,1.28.38.85.56,2.27.56,4.25s-.19,3.38-.56,4.2-1.25,1.23-2.61,1.23h-23.85v10.34c0,1.16-.56,1.94-1.69,2.35s-2.85.61-5.17.61c-2.18,0-3.86-.2-5.02-.61-1.16-.41-1.74-1.19-1.74-2.35v-10.34h-19.04ZM809.68,57.49c0,2.86-.61,5.45-1.84,7.76-1.23,2.31-2.88,4.31-4.96,5.97-2.08,1.67-4.5,2.94-7.27,3.83-2.76.89-5.65,1.33-8.65,1.33s-5.89-.44-8.65-1.33c-2.76-.88-5.19-2.16-7.27-3.83-2.08-1.67-3.73-3.66-4.96-5.97s-1.84-4.9-1.84-7.76.61-5.44,1.84-7.76c1.23-2.31,2.88-4.29,4.96-5.92,2.08-1.63,4.5-2.89,7.27-3.78,2.76-.89,5.65-1.33,8.65-1.33s5.89.44,8.65,1.33c2.76.88,5.19,2.14,7.27,3.78,2.08,1.63,3.74,3.61,4.96,5.92,1.23,2.32,1.84,4.9,1.84,7.76ZM784.5,134.11c-1.16,0-2.42-.44-3.79-1.33-1.37-.89-2.59-1.91-3.68-3.07-1.02-1.02-1.94-2.15-2.76-3.38s-1.23-2.32-1.23-3.28v-14.54h13.92v11.36c0,1.77.78,2.66,2.35,2.66h46.58c1.16,0,1.89.53,2.2,1.59.31,1.06.46,2.47.46,4.25,0,1.91-.15,3.34-.46,4.3-.31.96-1.04,1.43-2.2,1.43h-51.39ZM796.37,57.49c0-2.2-.8-4.17-2.41-5.92s-3.94-2.63-7.01-2.63-5.41.88-7.01,2.63c-1.6,1.75-2.41,3.72-2.41,5.92,0,1.1.2,2.16.61,3.19.41,1.03,1.01,1.96,1.79,2.78.78.83,1.76,1.48,2.92,1.96,1.16.48,2.52.72,4.09.72s2.85-.24,4.04-.72c1.19-.48,2.18-1.13,2.97-1.96.78-.82,1.38-1.75,1.79-2.78.41-1.03.61-2.09.61-3.19ZM805.68,94.29h17.81v-53.43h13.92v69.4c0,1.37-.68,2.22-2.05,2.56-1.37.34-3.01.51-4.91.51-2.19,0-3.89-.22-5.12-.67s-1.84-1.24-1.84-2.41v-4.5h-17.81v-11.46Z"/>
      </g>
      <path class="cls-1" d="M138.95,46.5l-18.28-3.46-11.56-7.91c-5.4,6.08-8.7,11.45-7.84,20.94-11.09,20.97,5.32,34.97,13.73,51.7,3.61,7.18,4.83,15.34,3.72,23.3,0,0-.62,5.88-.62,5.88-3.06,19.95-10.85,29.59-10.85,29.59,2.71-1.35,15.92-14.51,19.4-34.34.19-1.11.33-2.18.44-3.24,3.32-29.06-19.96-40.08-21.06-57.11-.52-8,3.14-15.47,3.18-15.48-.61-3.56.3-9,1.49-9.93l7.19,4.81,16.49,3.23,13.03,11.85-3.14,4.93c-15.11-.1-12.08,14.15-7.11,17.18,0-8.2,6.28-10.82,10.84-9.19l9.33-14.96-18.37-17.78Z"/>
      <path class="cls-1" d="M131.47,94.42c-6.32-8.81-11.27-15.35-8.04-25.56-10.36,9.56-4.39,19.56,2.59,29.47,6.43,9.13,9.6,15.36,8.97,26.1-1.81,19.07-10.28,34.69-10.28,34.69,2.29-1.14,13.46-12.26,16.4-29.02.29-1.65.45-3.22.52-4.73,1.19-14.98-4.71-23.38-10.14-30.95Z"/>
      <path class="cls-1" d="M110.15,133.4c.71-21.78-12.17-36.04-21.48-56.09-10.69-22.99,0-43.39,0-43.39-31.09,44.04,4.53,65.89,7.77,99.08.01.13.02.26.03.39,3.04,32.99-16.54,57.73-16.54,57.73,3.88-1.78,23.15-19.75,28.98-47.6.75-3.57,1.14-6.93,1.25-10.13Z"/>
      <path class="cls-1" d="M67.82,44.91c2.06,0,3.72-1.67,3.72-3.72s-1.67-3.72-3.72-3.72-3.72,1.67-3.72,3.72,1.67,3.72,3.72,3.72Z"/>
      <path class="cls-1" d="M58.86,60.25c2.28,0,4.14-1.85,4.14-4.14s-1.85-4.14-4.14-4.14-4.14,1.85-4.14,4.14,1.85,4.14,4.14,4.14Z"/>
      <path class="cls-1" d="M62.86,72.62c0-2.93-2.38-5.31-5.31-5.31s-5.31,2.38-5.31,5.31,2.38,5.31,5.31,5.31,5.31-2.38,5.31-5.31Z"/>
      <path class="cls-1" d="M68.85,92.06c0-3.9-3.16-7.06-7.06-7.06s-7.06,3.16-7.06,7.06,3.16,7.06,7.06,7.06,7.06-3.16,7.06-7.06Z"/>
      <path class="cls-1" d="M72.18,105.27c-4.81,0-8.71,3.9-8.71,8.71s3.9,8.71,8.71,8.71,8.71-3.9,8.71-8.71-3.9-8.71-8.71-8.71Z"/>
      <path class="cls-1" d="M72.66,168.51c-2.23,0-4.04,1.81-4.04,4.04s1.81,4.04,4.04,4.04,4.04-1.81,4.04-4.04-1.81-4.04-4.04-4.04Z"/>
      <path class="cls-1" d="M82.81,156.14c0-2.93-2.38-5.31-5.31-5.31s-5.31,2.38-5.31,5.31,2.38,5.31,5.31,5.31,5.31-2.38,5.31-5.31Z"/>
      <path class="cls-1" d="M72.23,137.22c0,3.61,2.93,6.54,6.54,6.54s6.54-2.93,6.54-6.54-2.93-6.54-6.54-6.54-6.54,2.93-6.54,6.54Z"/>
      <polygon class="cls-1" points="178.86 96.06 169.5 96.06 169.5 86.7 160.11 86.7 160.11 96.06 150.75 96.06 150.75 105.45 160.11 105.45 160.11 114.81 169.5 114.81 169.5 105.45 178.86 105.45 178.86 96.06"/>
      <path class="cls-1" d="M104.8,209.6C47.01,209.6,0,162.59,0,104.8S47.01,0,104.8,0s104.8,47.01,104.8,104.8-47.01,104.8-104.8,104.8ZM104.8,10.24C52.66,10.24,10.24,52.66,10.24,104.8s42.42,94.56,94.56,94.56,94.56-42.42,94.56-94.56S156.94,10.24,104.8,10.24Z"/>
      <polygon class="cls-1" points="126.4 57.43 133.22 59.32 132.11 61.93 128.34 61.41 126.4 57.43"/>
      <g>
        <path class="cls-1" d="M333.92,159.75v-1.52h-9.25v-3.04h22.05v3.04h-9.16v1.47c0,5.34,4.1,10.42,10.08,12.47l-1.89,2.9c-4.58-1.66-8.15-5.11-9.92-9.32-1.75,4.79-5.55,8.61-10.43,10.47l-1.89-2.9c6.08-2.19,10.4-7.73,10.4-13.58ZM343.67,177.89c8.49-.02,13.72,2.78,13.72,7.59s-5.22,7.59-13.72,7.64c-8.52-.04-13.74-2.81-13.72-7.64-.02-4.81,5.2-7.62,13.72-7.59ZM343.67,190.22c6.26.02,10.13-1.77,10.13-4.74s-3.86-4.79-10.13-4.79-10.15,1.79-10.13,4.79c-.02,2.97,3.84,4.76,10.13,4.74ZM357.25,176.59h-3.63v-10.72h-8.24v-2.99h8.24v-10.68h3.63v24.39Z"/>
        <path class="cls-1" d="M391.99,159.75h-23.15v-2.95h9.94v-4.93h3.59v4.93h9.62v2.95ZM380.52,161.87c5.48-.02,9.32,2.99,9.34,7.55-.02,4.58-3.87,7.57-9.34,7.59-5.52-.02-9.3-3.01-9.25-7.59-.04-4.56,3.73-7.57,9.25-7.55ZM380.52,174.2c3.52.02,5.94-1.91,5.98-4.79-.04-2.88-2.46-4.79-5.98-4.83-3.57.05-5.91,1.96-5.89,4.83-.02,2.88,2.33,4.81,5.89,4.79ZM389.22,179.08c8.54,0,13.72,2.53,13.72,7s-5.18,6.95-13.72,6.95-13.76-2.56-13.76-6.95,5.18-7,13.76-7ZM389.22,190.22c6.12.02,9.9-1.54,9.9-4.14s-3.77-4.17-9.9-4.19c-6.21.02-10.01,1.52-10.03,4.19.02,2.6,3.82,4.17,10.03,4.14ZM391.94,170.01h7.13v-4.97h-7.09v-2.99h7.09v-9.85h3.63v26.46h-3.63v-5.66h-7.13v-2.99Z"/>
        <path class="cls-1" d="M438.64,164.49c-.02,5.16-3.75,8.82-9.21,9.46v6.97c4.05-.21,8.19-.55,12.06-1.15l.27,2.67c-9.37,1.75-19.42,1.77-26.79,1.79l-.51-3.04c3.34,0,7.23,0,11.32-.14v-7.11c-5.48-.67-9.23-4.31-9.21-9.46-.02-5.71,4.58-9.57,11.05-9.62,6.42.04,10.98,3.91,11,9.62ZM427.64,170.94c4.33.02,7.48-2.65,7.46-6.45.02-3.84-3.13-6.44-7.46-6.44s-7.53,2.6-7.5,6.44c-.02,3.8,3.13,6.47,7.5,6.45ZM444.21,152.2h3.59v41.01h-3.59v-41.01Z"/>
        <path class="cls-1" d="M468.13,180.99v-12.54h3.54v12.43c4.53-.16,9.18-.46,13.44-.97l.18,2.72c-8.61,1.33-18.23,1.52-25.55,1.47l-.46-2.99c2.69-.02,5.68-.04,8.84-.11ZM482.39,158.88c-.02,3.24-.02,8.65-1.2,16.25l-3.63-.32c1.13-6.86,1.22-11.83,1.2-15.1h-17.17v-2.95h20.8v2.12ZM487.69,152.2h3.59v17.12h6.63v3.13h-6.63v20.67h-3.59v-40.92Z"/>
        <g>
          <path class="cls-1" d="M567.43,176.87h-37.33v-2.95h16.85v-4.05h-11.87v-16.48h27.71v2.95h-24.07v3.82h22.97v2.76h-22.97v4.05h24.3v2.9h-12.47v4.05h16.89v2.95ZM548.79,179.95c8.97-.04,14.04,2.28,14.08,6.54-.05,4.31-5.11,6.54-14.08,6.54s-14.15-2.23-14.13-6.54c-.02-4.26,5.06-6.58,14.13-6.54ZM548.79,190.22c6.7.04,10.43-1.24,10.45-3.73-.02-2.44-3.75-3.8-10.45-3.82-6.77.02-10.54,1.38-10.49,3.82-.04,2.49,3.73,3.77,10.49,3.73Z"/>
          <path class="cls-1" d="M612.89,174.66h-37.28v-2.99h37.28v2.99ZM591.9,157.31h-12.89v-2.99h30.56v2.99h-12.98c.16,4.63,6.97,8.19,14.22,9.02l-1.33,2.9c-6.7-.85-12.98-3.86-15.24-8.4-2.25,4.53-8.49,7.55-15.24,8.4l-1.29-2.9c7.13-.83,14.02-4.35,14.18-9.02ZM594.25,178.25c8.77,0,14.04,2.72,14.08,7.41-.05,4.74-5.32,7.36-14.08,7.36s-14.15-2.62-14.13-7.36c-.02-4.7,5.29-7.41,14.13-7.41ZM594.25,190.13c6.49.02,10.43-1.61,10.45-4.46-.02-2.88-3.96-4.51-10.45-4.56-6.56.05-10.49,1.68-10.45,4.56-.05,2.85,3.89,4.49,10.45,4.46Z"/>
          <path class="cls-1" d="M648.32,179.73l.27,2.67c-9.37,1.75-19.42,1.8-26.79,1.8l-.51-3.09c7.55.02,17.97-.04,27.02-1.38ZM645.46,164.81c-.02,5.71-4.58,9.6-11,9.62-6.47-.02-11.07-3.91-11.05-9.62-.02-5.68,4.58-9.59,11.05-9.62,6.42.02,10.98,3.94,11,9.62ZM634.46,171.26c4.33,0,7.48-2.62,7.46-6.45.02-3.8-3.13-6.44-7.46-6.44s-7.53,2.65-7.5,6.44c-.02,3.82,3.13,6.45,7.5,6.45ZM651.03,152.2h3.59v41.01h-3.59v-41.01Z"/>
          <path class="cls-1" d="M691.01,159.57h-24.39v-2.95h10.4v-4.6h3.59v4.6h10.4v2.95ZM678.81,161.68c5.87.04,9.8,2.9,9.85,7.41-.04,4.44-3.98,7.34-9.85,7.36-5.92-.02-9.87-2.92-9.85-7.36-.02-4.51,3.94-7.36,9.85-7.41ZM671.72,180.05h26.79v13.07h-3.59v-10.13h-23.2v-2.95ZM678.81,173.56c3.82.02,6.4-1.75,6.44-4.46-.05-2.78-2.62-4.58-6.44-4.6-3.87.02-6.42,1.82-6.4,4.6-.02,2.72,2.53,4.49,6.4,4.46ZM694.92,152.2h3.59v11.37h6.17v3.04h-6.17v11.19h-3.59v-25.59Z"/>
          <path class="cls-1" d="M720.41,180.99v-12.54h3.54v12.43c4.53-.16,9.18-.46,13.44-.97l.18,2.72c-8.61,1.33-18.23,1.52-25.55,1.47l-.46-2.99c2.69-.02,5.68-.04,8.84-.11ZM734.67,158.88c-.02,3.24-.02,8.65-1.2,16.25l-3.64-.32c1.13-6.86,1.22-11.83,1.2-15.1h-17.17v-2.95h20.8v2.12ZM739.97,152.2h3.59v17.12h6.63v3.13h-6.63v20.67h-3.59v-40.92Z"/>
        </g>
        <circle class="cls-1" cx="514" cy="171.67" r="3.45"/>
      </g>
    </g>
  </g>
</svg>