<?xml version="1.0" encoding="UTF-8"?>
<svg id="Layer_2" data-name="Layer 2" xmlns="http://www.w3.org/2000/svg" viewBox="0 0 602.18 602.18">
  <defs>
    <style>
      .cls-1 {
        fill: #fff;
      }
    </style>
  </defs>
  <g id="_레이어_1" data-name="레이어 1">
    <g>
      <path class="cls-1" d="M399.2,133.59l-52.51-9.95-33.21-22.73c-15.52,17.46-24.98,32.9-22.51,60.16-31.87,60.26,15.29,100.47,39.43,148.55,10.37,20.64,13.88,44.07,10.7,66.95,0,0-1.79,16.89-1.79,16.89-8.8,57.32-31.17,85-31.17,85,7.78-3.88,45.75-41.68,55.75-98.66.56-3.19.96-6.28,1.26-9.3,9.54-83.49-57.34-115.15-60.52-164.09-1.5-22.99,9.03-44.45,9.12-44.47-1.74-10.23.87-25.86,4.29-28.52l20.67,13.82,47.37,9.28,37.42,34.04-9.04,14.15c-43.41-.29-34.69,40.66-20.43,49.35,0-23.56,18.05-31.07,31.13-26.39l26.81-42.97-52.77-51.09Z"/>
      <path class="cls-1" d="M377.72,271.26c-18.17-25.3-32.39-44.11-23.1-73.43-29.77,27.45-12.61,56.19,7.44,84.66,18.47,26.23,27.57,44.14,25.76,74.98-5.21,54.8-29.55,99.67-29.55,99.67,6.57-3.28,38.66-35.22,47.11-83.38.83-4.74,1.31-9.25,1.49-13.58,3.41-43.03-13.53-67.18-29.15-88.92Z"/>
      <path class="cls-1" d="M316.47,383.27c2.05-62.58-34.95-103.55-61.72-161.14-30.7-66.05,0-124.66,0-124.66-89.31,126.52,13.03,189.32,22.33,284.67.04.38.05.75.09,1.13,8.75,94.79-47.53,165.86-47.53,165.86,11.16-5.12,66.51-56.75,83.26-136.76,2.15-10.25,3.28-19.91,3.58-29.1Z"/>
      <path class="cls-1" d="M194.86,129.03c5.91,0,10.7-4.79,10.7-10.7s-4.79-10.7-10.7-10.7-10.7,4.79-10.7,10.7,4.79,10.7,10.7,10.7Z"/>
      <path class="cls-1" d="M169.1,173.09c6.56,0,11.88-5.32,11.88-11.88s-5.32-11.88-11.88-11.88-11.88,5.32-11.88,11.88,5.32,11.88,11.88,11.88Z"/>
      <path class="cls-1" d="M180.59,208.64c0-8.42-6.83-15.25-15.25-15.25s-15.25,6.83-15.25,15.25,6.83,15.25,15.25,15.25,15.25-6.83,15.25-15.25Z"/>
      <path class="cls-1" d="M197.82,264.49c0-11.21-9.09-20.3-20.3-20.3s-20.3,9.09-20.3,20.3,9.09,20.3,20.3,20.3,20.3-9.09,20.3-20.3Z"/>
      <path class="cls-1" d="M207.36,302.45c-13.83,0-25.03,11.21-25.03,25.03s11.21,25.03,25.03,25.03,25.03-11.21,25.03-25.03-11.21-25.03-25.03-25.03Z"/>
      <path class="cls-1" d="M208.75,484.15c-6.4,0-11.6,5.19-11.6,11.6s5.19,11.6,11.6,11.6,11.6-5.19,11.6-11.6-5.19-11.6-11.6-11.6Z"/>
      <path class="cls-1" d="M237.91,448.59c0-8.43-6.83-15.25-15.25-15.25s-15.26,6.83-15.26,15.25,6.83,15.25,15.26,15.25,15.25-6.83,15.25-15.25Z"/>
      <path class="cls-1" d="M207.53,394.24c0,10.38,8.41,18.79,18.79,18.79s18.79-8.41,18.79-18.79-8.41-18.79-18.79-18.79-18.79,8.41-18.79,18.79Z"/>
      <polygon class="cls-1" points="513.88 275.98 486.99 275.98 486.99 249.08 459.99 249.08 459.99 275.98 433.1 275.98 433.1 302.97 459.99 302.97 459.99 329.86 486.99 329.86 486.99 302.97 513.88 302.97 513.88 275.98"/>
      <path class="cls-1" d="M301.09,602.18C135.07,602.18,0,467.11,0,301.09S135.07,0,301.09,0s301.09,135.07,301.09,301.09-135.07,301.09-301.09,301.09ZM301.09,29.42C151.29,29.42,29.42,151.29,29.42,301.09s121.87,271.67,271.67,271.67,271.67-121.87,271.67-271.67S450.89,29.42,301.09,29.42Z"/>
      <polygon class="cls-1" points="363.15 165 382.75 170.43 379.57 177.94 368.72 176.43 363.15 165"/>
    </g>
  </g>
</svg>