<?xml version="1.0" encoding="utf-8"?>
<!-- Generator: Adobe Illustrator 24.2.0, SVG Export Plug-In . SVG Version: 6.00 Build 0)  -->
<svg version="1.1" id="Layer_1" xmlns="http://www.w3.org/2000/svg" xmlns:xlink="http://www.w3.org/1999/xlink" x="0px" y="0px"
	 viewBox="0 0 1296.7 1215.1" style="enable-background:new 0 0 1296.7 1215.1;" xml:space="preserve">
<style type="text/css">
	.st0{opacity:0.3;fill:#4B4545;enable-background:new    ;}
</style>
<g id="Layer_2_1_">
	<g id="Layer_1-2">
		<path class="st0" d="M552.9,747.4C592.8,644,706.3,577.9,712.7,460.6c2.4-43.6-13.3-88.6-55.1-107.9
			c-52.9-24.4-113,2.6-153.3,38.5c-21.1,18.8-39.3,40.4-57.2,62.2c-21.2,25.8-42.3,51.6-62,78.5c-35.8,48.8-68,102.2-82.7,161.5
			c-11.8,48-12.6,100,4,147c16.6,46.9,51.4,84.1,96.3,104.6c91.7,41.9,201.3,16.8,279.2-42.6c46.5-35.4,84.3-80.9,116.6-129.3
			c30.1-45.1,56.8-92.4,79.9-141.4c19.4-41.3,35.9-86.5,35.8-132.8c-0.1-46.7-21.6-90.5-62.6-113.9c-42.5-24.3-96.5-25.2-142.1-9.4
			c-52.4,18-94.5,59.4-126.7,103.3c-34.4,47.2-62.7,98.5-84.2,152.7c-20.9,53.1-32,111.1-18.3,167.4c12.2,49.8,44.1,93.2,92.6,112.1
			c46.5,18.2,99.7,13.9,145.7-3.9c53.8-21,96.7-63,129.3-109.9c32.3-46.5,58.5-99.4,77.8-152.7c14.9-41.3,26.8-92.8,1.5-132.5
			c-31.2-48.8-98.6-48.7-146.7-28.9c-26.3,10.9-50.2,26.8-73.3,43.2c-25.2,17.9-50.7,35.8-73.7,56.6
			c-38.9,35.1-72.2,84.5-64.4,139.6c8.3,59.1,65.2,84.6,117.2,95.2c54,11.1,115.3,17.8,168.7,0.3c48.1-15.8,93.4-57.8,91.6-112.1
			c-1.4-40.5-29-75.8-61.8-96.9c-88.3-56.8-191.3-1.5-259.6,61.5c-41.4,38.2-89.3,87.5-92,147.3c-2.3,52.2,32.2,100.7,87.9,95.1
			c60.9-6.1,97.5-61.5,128.2-108.4l53.2-81.6c16.4-25.1,34-49.7,48.8-75.8c10.8-19.1,21.5-42.1,18.3-64.7
			c-3.9-27.7-29.4-42.6-55.6-42.8c-28.7-0.2-53.8,16.6-74.6,34.9c-22.1,19.4-42.6,40.7-63.1,61.8c-45.2,46.6-88.2,95.4-128.8,146.2
			c-27.8,34.8-67.8,83.9-50.1,131.8c19,51.2,87.8,54.4,132.5,43.2c47.8-11.9,91.8-38.3,125.8-74c33.7-35.4,57.9-81,63-130.1
			c4.5-43.5-7.7-86.1-32.2-121.9C736,557.8,633,520.8,557.3,581.3c-37.6,30.2-61.1,79.8-47.3,127.9c12.2,42.4,51,79.6,96.4,80.6
			c51.3,1.1,91.5-39.3,120.5-77.4c36.9-48.5,68.8-101.6,99.1-154.4c16.1-28,31.5-56.4,46.1-85.2c12.3-24.2,25.8-48.7,33.9-74.7
			c6.3-20.1,10.8-43.6,3.2-63.9c-8.2-22-30.5-32.7-53.1-29.6c-23.9,3.4-46.2,17.5-64.9,32.2c-24.2,19-47.3,39.8-69.9,60.8
			c-45.4,42.1-88.2,87-128.1,134.4c-20.9,24.9-41.3,50.4-60.4,76.7c-12.3,16.9-24.5,36.8-26.3,58.2c-2.3,26.7,18.4,43.9,44.1,41.8
			c27.5-2.3,51.9-18.8,74.3-33.6c50.6-33.5,97.7-71.9,140.6-114.8c21.2-21.1,41.2-43.2,60.3-66.3c17.1-20.8,35.7-42.4,47.1-67
			c10.9-23.5,11.4-53.5-13.2-68.4c-21.1-12.8-49.8-9.4-72.6-3.8c-28.3,6.9-54.9,20.6-81,33.3c-27.6,13.5-54.6,28-81.1,43.5
			c-45.3,26.6-91.9,55-128.2,93.6c-29.3,31.2-56.3,74.4-45,119c13.4,52.3,67,71,115.7,70.9c53.9-0.1,105.1-20.3,152.2-45.2
			c50.1-26.5,95.7-60.7,135.3-101.2c33.9-34.8,64.9-74.2,79.9-121.1c13.3-41.4,12.3-89.7-22.7-120.1
			c-44.7-38.8-110.2-26.2-158.1-1.1c-53.2,27.9-101.6,67.3-148.6,104.3c-49.9,39.3-98.3,80.7-144.5,124.4
			c-37.7,35.6-77.9,78.1-87.4,131.3c-9.5,53.4,20.7,103.5,64.1,132.3c48.8,32.4,110.1,38,167.2,36.6c52.4-1.3,104.4-9.2,154.9-23.5
			c50-14.1,98-34.3,143.1-60c42.7-24.4,84.6-53.4,118.6-89.2c30.5-32.1,57.1-72.1,65-116.5c8.5-48-12.8-94.2-55.2-118.2
			c-47.5-26.9-107.4-26.4-160.1-19.9c-53.1,6.5-105.6,17.6-156.8,33.1C612.8,491.6,517,538.7,430.6,600.3
			c-43.2,30.8-83.7,65.2-121.2,102.9c-38.8,39-82,87.6-74.1,147c5.5,41.8,34.8,76,68.4,99.2c38,26.3,81.9,39.9,127.5,44.5
			c108.7,11.1,217.2-22.1,312.6-72.9c52.9-28.2,102.8-61.8,151.1-97.2c48.4-35.4,98.3-71,142.5-111.7
			c42.3-38.9,80.3-89.5,75.7-150.2c-3.5-45.6-30.3-85.7-63.2-115.6c-72.5-65.8-177.3-87.5-272.5-83.8
			c-102.2,4-202.3,36.1-294.5,79.4c-95.5,44.8-198.2,103.3-254.7,196.1c-27.1,44.6-40.3,97.5-29.7,149.2
			c9.5,46.8,36.3,88.3,71.4,119.8c79,70.9,191.7,78.2,290,49.5c111.5-32.4,203.7-108.2,288.5-185c86.2-78.1,176.5-172.9,176.7-297.2
			c0.1-50.6-16.6-100.5-52.9-136.4c-38.7-38.2-93.7-56.6-147.2-58.8c-113-4.5-215.3,62.9-302.4,128
			c-49.3,36.9-96.2,76.8-140.5,119.5c-45.4,43.8-89.6,90.2-127.7,140.6c-34.6,45.8-63.4,98.6-64.1,157.3
			C189.6,869.7,205,913,229,950.3c51.5,80,138.3,130.5,230.2,148.3c94,18.2,194.6,3.7,279.6-40.8c85-44.5,149.9-118.8,181.3-209.8
			c30.8-88.9,30.9-189.5-4.6-276.9c-34.5-85.1-102.6-150.8-187-185.6c-82.5-33.9-177.9-38.9-262-6.9
			c-105,40.1-175.7,136.4-234.2,228.1c-45.8,71.8-95.5,168.1-64.4,254.9c38.5,107.3,172,121.2,268,101.1
			c194.7-40.8,337-204.3,448.7-358.6c32.2-44.5,71.8-92.5,80.2-148.5c7.5-50.4-16.1-105.4-70.5-113.7c-50.5-7.7-101,20.7-142.4,46.2
			c-51.3,31.6-100.3,66.8-146.5,105.5c-91,76.1-170.9,164.5-237.5,262.6c-16.9,24.9-32.8,50.4-47.8,76.5
			c-13.1,22.8-26.3,45.9-35.1,70.8c-7.6,21.5-12.7,45.2-7.9,68c5.3,25.8,22.8,45.7,46.4,56.7c51.7,23.9,107,1.6,151-28.2
			c50.8-34.5,97.8-76.1,143.5-117c92.1-82.5,177.2-172.5,254.5-269.1c39.2-49,76.2-99.6,111.1-151.8c17.5-26.3,34.5-53,51-80
			c12.8-21.2,25.3-42.8,33-66.4c6.9-21,10.5-44,3.6-65.4c-8.2-25.7-29.7-42.7-55.2-49c-53.6-13.2-110,9.6-158.4,30.8
			c-104.9,46.2-201.4,109.5-285.6,187.2c-40.2,37.1-80.1,77.4-111.8,122.2c-27.8,39.4-50.7,91.8-23.2,137.4
			c26.2,43.6,84.2,56,131.2,57.1c51.2,1.1,103.6-10.4,152.3-25.5c50.4-15.7,98.7-37.7,143.6-65.5c23.3-14.4,45.5-30.2,66.7-47.6
			c19.8-16.2,41.5-33.6,56.8-54.4c6.4-8.7,12.3-19.2,12-30.3c-0.5-14-10.9-23.1-23.9-25.9c-26.7-5.7-55,7.7-78.9,18
			c-49,21.1-95.4,47.9-138,80C673.5,649,603.8,732.9,556.9,829c-2-2.7-4-5.4-6.1-8.1C656,783.4,746.5,707.6,802.4,610.6
			c12.6-21.8,27-46.2,30.7-71.5c1.8-12.6,0-25.9-9.5-35.1c-11.2-10.8-28.1-10.7-42.4-7.9c-26.8,5.2-51.7,20.7-74.9,34.4
			c-26.1,15.4-51.2,32.6-75.1,51.3c-53.3,41.8-100.4,90.9-139.8,146l-6.1-8.1C587.6,680.8,679,616.2,750.4,533
			c1.7,3.1,3.4,6.2,5.1,9.3c-71.2,9.1-136.4,48.3-177.5,107.6l-7.4-7.6c22.7-9.8,40.3-27.7,49.1-51.1l5.2,6.9
			c-36.6,1.3-72.3,12.4-103.1,32.4c-0.4-3.4-0.8-6.7-1.2-10.1c17.8,4.6,34.3-7.1,42.4-22.7c10-19.2,4-40.6-10.1-55.8
			c-33.9-36.6-87.5-28-131.4-20.2c-6.9,1.2-9.7-9.4-2.7-10.7c51.6-9.1,120.4-17.2,151.8,36.4c11.3,19.4,11.3,42.7-1.5,61.5
			c-11.5,17-31,27.4-51.4,22.2c-4.9-1.3-5.1-7.6-1.2-10.1c32.4-20.9,69.9-32.5,108.4-33.8c3.3-0.1,6.5,3.6,5.2,6.9
			c-9.8,26.1-28.8,46.8-54.3,57.8c-4.5,2-10.8-2.7-7.4-7.6c42.6-61.5,110.1-103.2,184.2-112.6c5.5-0.7,8.9,4.9,5.1,9.3
			C685.2,625.6,592.4,690.7,488,730.3c-4.3,1.7-8.7-4.4-6.1-8.1c57-80.1,129.9-147.6,214-198.3c25.9-15.6,54-33.3,84.2-38.7
			c23.4-4.2,50,0.6,60.6,24.7c9.7,22.2,0.2,47.7-9.2,68.3c-25.3,55.1-61.6,105.2-105.4,146.9c-49.4,47.2-108.2,83.5-172.6,106.5
			c-4.9,1.7-7.9-4.3-6.1-8.1C600.1,715.7,681.4,623.1,780.4,556c25-16.9,51.1-32.2,78.2-45.6c25.4-12.6,52.8-26.2,80.6-32.7
			c21.6-5,51-6,64.9,14.8c13.2,19.7,3.3,43-9.9,59.8c-17.1,21.8-39.7,40.3-61.2,57.5c-22.1,17.7-45.3,33.9-69.5,48.5
			c-48,28.9-99.7,51.4-153.6,66.9c-52.7,15.1-109.8,26.3-164.7,20.5c-47-5-100.2-23.2-122-69.1c-22.9-48.1-1-100.2,27.6-140.5
			c34.4-48.7,77.8-92.3,121.9-132.2c91.3-82.6,196.4-148.4,310.6-194.4c47.5-19.1,108.8-35.5,157.4-10.7
			c46.7,23.8,52.2,77.6,36.5,122.7c-8.6,24.8-21.7,47.5-35.3,69.8c-17.9,29.3-36.5,58.2-55.8,86.7c-38,56.2-78.5,110.6-121.5,163
			C778.6,746.3,683,843.5,579.1,931.4C553.8,952.9,528,974,501.5,994c-22.6,17-46.3,32.9-72.7,43.4c-47.1,18.8-109.7,17-144.2-25.3
			c-32.5-39.9-19.6-93.4,0.1-136.1c25.7-55.5,60.7-108,96.4-157.4c76.2-105.4,168-198.7,272.2-276.5c25.5-19,51.7-37.1,78.5-54.1
			c24.5-15.5,49.4-30.8,76.2-41.8c44.1-18.1,98.9-26.9,137.2,8.3c39.9,36.7,37.7,98.7,18.2,145.1c-12.3,29.3-30.4,55.5-48.6,81.4
			c-15.6,22.2-31.5,44.1-47.8,65.8C802.3,732.1,730.5,814,643.9,877.7C560.6,939,458.3,984.4,353.4,982.2
			c-53.6-1.1-109.5-15.5-150.7-51.2c-37-32.1-55.6-79.4-54.8-128.1c0.7-48.4,17.8-95.5,39.1-138.4c25.2-50.8,57.5-98.6,91.6-143.7
			c37.5-49.5,80.8-95.7,134.3-128c40.8-24.6,86.9-39.2,134.1-44.5c94.6-10.5,193.8,17.1,269.4,75
			c162.3,124.2,178.4,374.1,58.4,534.1c-123.5,164.7-377.9,209.8-550.9,100.4c-78.8-49.8-145.8-135.6-144.6-233
			c0.7-62,31.2-117.9,68-166c40.7-53.2,87.5-102.3,136-148.3c49-46.5,101.1-89.5,156-128.9c49-35.2,100.2-67.9,156.7-89.6
			c52.5-20.2,108.9-29.3,164.7-19.8c53.5,9.1,105.3,35.5,137.9,79.9c31.2,42.4,41.4,96.6,36,148.5c-6.1,59.5-31.8,114-67.2,161.6
			c-40.9,55-92.3,101.4-143.7,146.2c-48.1,42-98.6,81.8-154.2,113.2c-96.4,54.4-216,83.6-322.9,44.3
			C252.4,931.2,175.9,838.2,184.4,734c9.5-116.9,111.9-200.8,205.6-255.9c95.8-56.3,202.6-100.7,312.4-118.8
			c103-17,216.3-9.6,307.9,44.6c40.4,23.9,77.2,58,97.9,100.8c22.9,47.5,20.1,100.7-6.1,146.6c-31.9,55.9-86.9,94.7-136.9,133.1
			c-52.2,40.1-105,79.6-161,114.3C703.5,961,588.9,1008.2,469,1007c-49.8-0.5-99.6-9-144.2-32c-39-20.2-75.6-51.6-92.3-93.2
			c-20.4-50.9-1.9-102.3,30.6-143.7c36.1-45.8,81.7-85.7,127.5-121.5c89.8-70.1,191.1-124.1,299.4-159.6
			c55.2-18.1,111.9-31.1,169.5-38.8c55.7-7.4,116.5-9.5,168.4,15.3c44.5,21.2,73.4,65.3,71.3,115.2c-1.9,46.1-26,88.9-54.5,123.7
			c-33.4,40.7-77.1,72.8-121.8,100c-47.1,28.6-97.7,51.1-150.5,66.9c-53.8,16.2-109.6,25.2-165.7,26.7
			c-59.4,1.6-123.6-4.4-174.4-38.1c-42.9-28.5-74.8-76.7-70.9-129.9c4.2-56.6,43.4-103.3,82.1-141.3c47.7-46.7,99-90.2,151.3-131.5
			c26.5-20.9,53.4-41.3,80.8-61c25.6-18.4,51.6-37,80-51c48.9-24.1,111.9-33.5,158.3,1.3c37.2,27.8,46,74.5,36.5,118
			c-10.7,48.9-39.6,90.9-72.5,127.5c-41,45.6-89.4,84.1-143,113.9c-48.4,26.9-101.6,49.2-157.5,51.7c-47.7,2.2-102.3-10.7-127-55.9
			c-22.9-41.9-9.4-89.2,16.9-126c31.5-44.2,76.6-74.9,121.8-103.4c54.4-34.3,112.7-67.1,173-89.7c39.2-14.7,107-24.6,125.9,25.3
			c8.6,22.9,0.3,47.2-11.4,67.4c-15,25.8-35.2,49.3-54.6,71.9c-43.2,50.5-91.8,96.1-144.9,136.1c-24.8,18.6-50.4,37.7-77.9,52.3
			c-20.7,11-46.8,20.7-70.2,13.8c-20.3-6-33.3-24.7-33.5-45.7c-0.2-22.3,11.1-44.1,23.3-62c37.1-54.8,82.1-105.7,127.6-153.6
			c44.5-46.7,91.8-93.5,143.5-132.1c33.7-25.1,90.3-50.9,121.9-8.4c27.3,36.6,5.5,89.9-11.9,125.9c-31.2,64.6-66,127.5-104.2,188.3
			c-30.7,48.8-62.2,103.6-108,139.9c-36.5,29-83.9,41.2-126.7,18.7c-40-21-67.5-66.3-65.9-111.9c1.9-50.9,35.8-96.4,79.8-119.7
			c40.8-21.7,88.7-22.5,131.1-5.1c84.7,34.7,138.2,127.7,121.6,218.6c-18.1,99.8-108.9,182.9-207.2,200.5
			c-45.8,8.2-108.4,0.9-130.5-46.8c-21.6-46.5,8.9-96.3,36.9-132.6c42.4-54.8,88.2-107.1,136.2-157c23.1-24,46.4-48.5,71.7-70.2
			c19.6-16.9,42.4-31.9,68.6-35c23.2-2.7,49.1,3.7,64.5,22.3c14.3,17.3,15.8,40.2,10.2,61.2c-6.6,25.1-21.1,47.1-35.1,68.5
			c-19.7,30.2-39.5,60.4-59.2,90.6c-33,50.6-65.5,115.1-123.2,141.2c-45.8,20.7-100.6,11.9-125.3-35.3
			c-27.6-52.9-6.5-112.1,27.6-156.3c33.9-43.9,77.7-84,125.4-112.2c42.9-25.3,94.8-42.1,144.8-32.9c41.7,7.7,80.6,33.2,104.2,68.5
			c24.8,37.1,27.5,84,3.2,122.3c-30.7,48.5-87.9,69.2-142.7,71.7c-29.8,1.3-59.7-1.9-89.1-6.2c-28-4.1-56-10.3-81.7-22.3
			c-24.7-11.6-47-29.8-59-54.8c-10.4-21.7-12.5-46.2-8.7-69.8c9.5-60.1,54.7-103.5,101-138.5c46.7-35.2,98.1-77.1,157.5-86.2
			c50.2-7.6,106.6,10.5,127.1,60.7c18.1,44.5,3.8,95.9-13.1,138.4c-42.6,107-108.7,226.7-225.7,262.9
			c-49.2,15.2-104.9,15.2-151.4-8.5c-47.2-24.1-76.6-71.3-86.7-122.6c-11.7-59.4,1.8-119.5,24.9-174.5
			c23.2-55.3,53.5-110,90.6-157.3c34.9-44.4,80.2-84.1,135.5-99.1c47.3-12.9,101.6-9.2,143.6,17.3c40.5,25.5,61.9,70.2,62.8,117.5
			c1,49.1-16.7,97.3-37.3,141.1c-25.2,53.7-54.8,105.2-88.5,154c-34.8,50-75.8,96.2-126.1,130.9c-83.5,57.5-201.4,76-292.1,24.2
			c-95.2-54.4-114.8-172.7-85-271.4c19.3-63.8,57.1-120.3,97.5-172.4c20.4-26.3,41.4-52.4,63.1-77.7c20.3-23.6,42.1-46.1,68-63.3
			c41.5-27.6,98.6-40.3,144.1-15.3c38.4,21.1,55.2,63.7,54.9,106c-0.3,48.6-19.5,93.7-47.1,132.9c-38.5,54.5-89,101.8-113.5,165.3
			C560.8,756.8,550.2,754,552.9,747.4L552.9,747.4z"/>
		<path class="st0" d="M821.1,640.7c-96.6-86.9-250.5-95.8-319.5-215c-25.6-44.3-33.2-99.7,0.3-142.1
			c42.4-53.6,119.6-57.3,180.8-41.2c32,8.4,62.6,21.3,92.8,34.6c35.8,15.7,71.6,31.5,106.5,49.2c63.4,32,125.4,70.8,172.3,125.1
			c37.9,43.9,66.3,97.9,73.8,155.8s-9.1,115.2-45.2,160.5c-73.7,92.5-201.5,124.4-314.6,103.7C701,859,637.3,831.6,577.8,798.1
			c-55.4-31.2-108.5-66.4-158.7-105.5c-42.2-32.9-83.6-71.5-107.9-119.8c-24.7-48.9-25.5-106.1,5-152.4
			c31.5-48,87.5-77.5,143.6-85.4c64.3-9,130.4,11.9,187.4,40.8c61,31,117.8,69.7,169.1,115c50.1,44.4,92.5,99.2,108,165.3
			c13.7,58.6,3.3,120.8-37.3,166.4c-38.9,43.7-96.9,67.6-154.4,73.3c-67.5,6.7-134.6-14.5-193.7-46.2
			c-58.5-31.4-114-72.9-162.4-118.3c-37.5-35.3-77.4-82.8-71.9-137.8c6.7-67.6,77.3-103.3,138.1-108.1c33.2-2.6,66.7,1.3,99.5,6.2
			c35.9,5.3,72,10.5,107.2,20c59.4,16,120.4,50,141.5,111.7c22.7,66.2-23.3,123-72,161.8c-50.6,40.3-111.2,79.9-176.3,89.9
			c-58.8,9-128.4-10.9-155.3-68.6c-20.1-43-10-94.6,13.2-134c62.2-106.3,199.3-103.2,304.2-73.6c63.6,17.9,139.9,44,174.4,105.2
			c30.2,53.3,19.8,122.4-41.4,146.1C770.7,876.1,703,837.7,646,804.9l-99-57c-30.5-17.5-61.9-34-91.3-53.4
			c-21.5-14.2-44.8-32.6-53.4-57.9c-10.6-31.1,8.1-60.2,35.4-74.3c29.9-15.5,65-11.2,96.5-3.1c33.4,8.6,66.2,20,98.8,31.1
			c72,24.7,142.8,52.8,212.3,84.4c47.6,21.7,115.5,51.7,122.3,111.2c7.3,63.6-62.9,103.5-115.6,115.6
			c-56.3,12.9-116.3,8.7-170.9-10.5c-54-19.1-103.6-54-134.9-102.6c-27.8-43.1-37.7-94.1-31-144.6c13.7-104,101.8-197.5,213.1-174.4
			c55.4,11.5,106.3,50.9,117.5,108.5c9.8,50.9-11.1,110.4-58.1,135.5c-53.1,28.4-116.7,7.5-167.2-16.9
			c-64.3-31.1-125.9-69.7-185.6-108.8c-31.7-20.8-62.8-42.3-93.5-64.6c-25.8-18.8-52.8-37.2-75.1-60.1
			c-17.2-17.7-34.5-39.8-37.3-65.1c-3.1-27.4,14.6-50.4,39.8-59.1c26.8-9.2,57.6-6.3,84.9-0.8c35.5,7,70.6,16.5,105.4,26.5
			c69.9,19.9,138.5,44.1,205.4,72.5c35.1,14.9,70,30.8,103.9,48.2c21.8,11.2,45.2,25.5,58.4,46.8c16.6,26.7,4.1,55.8-24,67.1
			c-30,12.2-64.2,7.9-95.6,4.3c-70.7-8.1-140.3-23.4-207.9-45.4C466,547,433.2,534.5,401,520.5c-28.9-12.7-59.8-25.4-84.9-45
			c-23.9-18.8-40.4-49.9-22.5-78.5c15.3-24.6,47.1-36.3,73.9-42.6c33.2-7.8,68.4-7.6,102.3-8.2c36-0.6,72,0.2,107.9,2.4
			c61.6,3.8,125.3,8.6,183.8,29.8c47.1,17.1,98.5,47.9,110.3,100.5c13.9,61.8-32.3,109.8-83.3,135.6
			c-56.4,28.5-120.6,34.6-183.2,33.5c-66.5-1.1-132.3-12.6-195.3-34c-54-18.4-107.2-43.1-147.9-84.2
			c-35.9-36.2-60.6-87.3-40.1-137.6c26.2-64.3,101.3-86,164.8-85.1c70.4,0.9,142,16.4,210.8,30.1c73.1,14.6,145.6,32.2,217.1,53.4
			c58.3,17.2,123,40.3,161.1,90.9c38.3,50.8,33.4,119.2,3.2,172.4c-33.8,59.8-95,98.2-155.4,127.1c-55.5,26.4-114,45.8-174.3,57.6
			c-59.7,11.8-120.7,16.2-181.5,13.2c-57.6-2.8-116.8-10.9-171.4-30.3c-48.9-17.4-98.1-45-129.8-87.3
			c-34.3-45.7-36.7-105.3-5.1-152.9c35.4-53.4,98.3-84.6,156.8-105.9c59-21.4,119.8-37.6,181.6-48.6
			c122.5-21.8,247.8-23.5,370.8-4.9c61.5,9.3,122.2,23.8,181.3,43.3c61.3,20.2,132.3,48.1,155.6,114.4c16.4,46.7,3.9,98-18.8,140.1
			c-25.7,47.7-64.4,85.2-109.7,114.2c-107.8,69.3-238.9,92.2-365.6,89.7c-70.3-1.4-140.3-10-209.6-21.4s-140.5-22.1-208.3-41.2
			c-64.9-18.3-131.5-51-158.9-116.8c-20.5-49.5-13.8-105.7,4.7-154.5c40.8-107.2,138.8-185.6,240.4-232.2
			c109-50.1,230.7-69.6,350.2-73.3c123.6-3.8,262.1,2.8,370.5,69.8c52,32.2,93.9,80.6,110.3,140.2c14.9,53.9,9,111.6-11.1,163.3
			c-45,116.1-158.9,183.5-277,205.8c-133.8,25.3-270.5-5-399.9-40.2c-131.6-35.9-276.4-87.2-342.6-217c-27-52.9-36-113.9-17.1-170.8
			c20.1-60.5,67.9-109,122.8-139.6C403.8,231,546.7,247.1,672.2,269c71.1,12.4,141.4,29.2,210.5,50.3
			c70.8,21.6,141.7,46.7,208.2,79.3c60.4,29.5,118.6,69.4,150.6,130.5c24.4,46.6,31.4,100.1,26.1,151.9
			c-11.4,111-75.4,209.9-162,277.3c-88.6,68.9-201.5,107.2-314,105.9s-219.8-44.6-301-123c-79.4-76.6-133-181.8-142.3-292
			c-9.1-107.3,27.2-212.2,97-293.4c68.2-79.3,165.3-135.3,270.2-146.4c131.1-13.9,256.3,49.3,366.1,114.1
			c86.1,50.8,189.1,125.1,202.7,232.4c16.7,132.6-115.4,218.1-226.6,248.1C832.4,864.7,596.7,769.3,398,667.2
			c-57.3-29.4-124.3-58.6-162.8-112.7c-34.6-48.6-39.1-118.8,13.3-156.3c48.7-34.9,116.6-32,173.5-27.3
			c70.4,5.8,140.3,16.6,209.2,32.5c135.6,31.2,266.1,81.2,387.8,148.5c30.8,17.1,61.1,35.3,90.6,54.5c25.8,16.8,51.8,34,74.3,55.3
			c19.4,18.5,37.3,40.5,44.4,66.8c8.1,29.8,0.4,60-18.4,83.9c-41.3,52.4-111.1,58.5-172.9,50.7c-71.4-9-142.7-27.6-212.2-46.1
			c-140.1-37.4-276.9-86.3-409-146.3c-67-30.4-132.6-63.7-196.8-99.8c-32.3-18.1-64.3-37-95.8-56.5c-24.7-15.3-49.2-31.4-69.8-51.9
			c-18.4-18.3-34.3-40.4-38.5-66.5c-5-31.2,8.4-60.4,31.8-80.6c49-42.3,120.2-48.4,182-51.9c134.2-7.4,268.7,7.5,398,44.1
			c61.7,17.5,124.9,38.4,181.8,68.5c50,26.4,101.8,69,97.3,131.4C901.6,567.1,847.5,610.9,799,637c-52.9,28.4-113.9,44.2-172.8,54.2
			c-61.1,10.4-123.3,13-185,7.8c-31.9-2.7-63.7-7.5-95-14.3c-29.3-6.5-61.3-13.1-88.3-26.8c-11.3-5.7-23.1-13.5-28.6-25.3
			c-6.9-14.9-0.9-30,11.2-39.8c24.8-20.1,61.6-21.2,92.1-23.1c62.5-4,125.2-0.5,186.9,10.4c123.3,21.8,240.8,72.6,340.8,148.2
			c0.7-3.9,1.3-7.8,2-11.7c-129.8,16.6-264.8-14.7-374.8-86.4c-24.7-16.1-52.7-34-70.1-58.5c-8.6-12.2-13.8-27.1-8.7-41.8
			c6-17.2,23.8-26.1,40.2-30.8c30.8-8.8,65-5.8,96.7-3.8c35.5,2.3,70.9,6.9,105.8,13.7c77.9,15.4,153.2,41.8,223.7,78.5
			c0.7-3.9,1.3-7.8,2-11.7c-127.6,13.7-257.4-5.3-376.3-54.4c-0.2,4.1-0.3,8.3-0.5,12.4c79.2-28.3,168.3-22,242.7,18.3
			c1.2-3.9,2.4-7.9,3.7-11.8c-29,1.8-56.9-7.6-78.5-27.4l-1.8,10c39-18.1,82.2-25.4,125-20.9l-4.1-11.2
			c-16.2,14.2-39.7,10.8-56.4-1.2c-20.6-14.7-25.7-40.3-19.1-63.8c16-56.3,76.7-75.8,126.6-91c7.9-2.4,5.1-15-2.8-12.6
			c-58.8,17.9-135,46-139.4,118.7c-1.6,26.3,10.8,50.6,34.2,63.5c21.1,11.6,47,12.2,65.5-4.1c4.4-3.9,1.3-10.7-4.1-11.2
			c-45-4.6-90.4,3.1-131.4,22.3c-3.5,1.6-4.8,7.3-1.8,10c24,22.1,54.9,33.6,87.5,31.6c5.7-0.3,9.8-8.5,3.7-11.8
			c-77.2-41.7-169.9-49.4-252.4-19.9c-6.1,2.2-6.7,9.8-0.5,12.4c121,49.9,252.7,68.7,382.8,54.7c5.4-0.6,6.8-9.2,2-11.7
			c-102.1-53.5-214.1-85.4-329.1-93.7c-35.4-2.6-74.1-6.1-108.6,4.2c-26.8,8-52,27.2-50.2,58c1.6,28.4,25.1,50,45.9,66.5
			c55.7,44.2,120.3,77.2,188.2,97.7c76.7,23.1,157.5,29.9,237,19.8c6-0.8,6-8.7,2-11.7c-112.2-84.8-246.4-138.4-385.6-156
			c-35.2-4.4-70.6-6.5-106-6.2c-33.3,0.3-69.2,0.6-101.6,8.7c-25.2,6.3-56.5,20.8-60.1,49.9c-3.4,27.7,19.3,46.7,42,57.3
			c29.4,13.7,62.9,21,94.6,27.6c32.5,6.8,65.4,11.4,98.5,13.8c65.6,4.8,131.6,0.9,196.1-11.6c63.1-12.2,128.8-30.9,183.1-66.1
			c46.5-30.2,92.4-77.4,90.9-137c-1.6-62.5-52.2-105.3-103.5-132.3c-61.8-32.6-130.4-55.2-197.7-73.5
			c-139.3-37.9-284.2-50.8-428-38.3c-59.9,5.3-132.7,20.7-170.3,72.4c-36.2,49.6-13.4,108.9,27,147.7c22.2,21.3,47.9,38.1,74,54.2
			c34.3,21.2,69.1,41.5,104.3,61c69.6,38.6,140.8,73.9,213.7,106c146,64.4,297.6,115.3,452.9,152.1c37.9,9,76.1,17.5,114.4,24.2
			c32.7,5.8,65.9,9.8,99.1,6.8c59.3-5.4,123.7-40.5,137.3-103c12.8-59-29.2-108.1-72.4-142.2c-56.3-44.4-120.8-80.7-184.5-113.4
			C849.8,449.6,704.3,400.8,554,374.8c-36.8-6.3-73.7-11.3-110.9-14.9c-33.9-3.2-67.9-6-101.9-3.3c-55.7,4.4-117.7,24.4-139.1,81.5
			c-22.3,59.6,12.9,123.2,58,161.4c28.4,24.1,61.3,41.9,94.1,59.3c28.1,14.9,56.4,29.4,84.9,43.4c113,55.1,231.6,102.7,356.1,123.3
			c119.7,19.8,250.7,13,359.2-45c55.4-29.6,106.3-74.3,130.4-133.6c21.6-53.2,15.9-112.5-10.7-163c-26.5-50.2-69.3-90.4-114.4-124
			c-53.3-39.7-112.5-72.6-172.1-101.6c-65.5-31.9-135.4-57.2-208.5-62.6c-55.8-4.1-111.7,5.1-163.9,24.7
			C510.9,259.5,421.8,341,373.5,441.7c-103.8,216.1,12.1,485.9,222.6,589.5c216.6,106.6,506.6,18.7,629.4-187.6
			c55.9-94,80.4-219.2,27.5-320.5c-33.8-64.5-95.3-106.7-159.3-137.5c-70.8-34-145.8-60.5-221-82.9
			c-75.9-22.5-153.3-39.9-231.6-51.9c-69.9-10.8-140.9-17.8-211.5-10.5c-65.7,6.8-129.5,27.2-182.7,66.7
			C195.7,345,155.6,400,145,463.8c-10,60.9,8,123,41.2,174.4c38,59,93.8,102.3,156.1,133.3c71.9,35.8,150.4,57,227.9,76.6
			c72.6,18.3,146.5,33.2,221.4,36.5c129.6,5.7,270.2-27.3,361.2-125.1c80.2-86.1,110.7-224,46.5-328.5
			c-72-117.2-223.6-150.6-350.9-158.4c-130.1-8-265.3,2.3-389.8,41.7C342,351.2,227.3,419,160.3,524.4
			c-29.5,46.4-50,101.7-48.8,157.4c1.3,61.9,32.5,116,84.2,150.1c63,41.5,141.2,52.9,213.8,66.5c75.9,14.2,152.1,27.5,229.1,34
			c138.4,11.8,283.3,0.2,408.1-64.8c51.8-27,99.4-62.3,133.7-110c30-41.8,51.7-94.1,47-146.6c-5.7-64.1-52.3-108-108.3-134
			c-62-28.8-131-46.2-197.8-59.3c-131.2-25.6-265.8-28.3-397.9-7.8c-67.3,10.4-133.5,26.9-197.8,49.4
			c-62.2,21.8-126.8,51.9-167.9,105.5c-35.2,45.8-42.1,107.3-13.4,158.3c26.4,47.2,74.3,79.2,122.7,100.4
			c56.5,24.8,119.3,35.2,180.4,39.9c64.5,4.9,129.4,1.5,193-10c64.9-11.7,127.9-31.9,187.5-60.1c63-29.9,126.9-70.2,162.1-132.4
			c29.8-52.6,37.6-119.9,5.2-173.5c-34.4-57-100.2-85-160.9-104.2c-74.7-23.6-151.4-41.8-228.1-57.2c-38.8-7.8-77.7-14.8-116.8-20.8
			c-36.6-5.7-73.6-11.3-110.7-10.8c-64,0.8-134.7,24.4-164.9,85.4c-24.1,48.8-8.6,102.3,24.5,142.8c37.1,45.4,89.7,74,143.5,94.8
			c67.1,25.9,138.1,40.5,210,43.2c64.9,2.4,132.4-2.6,192.1-29.6c51-23.1,101.3-65.5,103.2-125.8c1.7-55.9-37.5-98.2-84.5-122.8
			c-56.4-29.5-119.8-37.7-182.2-43.4c-75.2-6.9-153.5-10.4-228.6-1.9c-48.8,5.5-125,31-118.2,93.3c3.1,28.5,24.8,49.5,47.8,64.4
			c29.4,19.1,63,32.8,95.3,46.2c72,29.8,147,51.8,223.8,65.4c35.8,6.3,72.8,12.7,109.2,13.3c27.4,0.5,59.9-3.2,80.8-22.9
			c18-17.1,21.7-43.5,10.7-65.6c-11.6-23.4-35-40.1-57.3-52.5c-67.8-37.7-142-67-215-92.8c-71.3-25.2-145.6-49.1-220.2-61.9
			c-48.6-8.3-121.4-5.3-132,55.9c-9.1,52.9,42,96.9,79.3,125.3c67,51,136.8,98.3,209,141.5c58,34.8,120,75.3,187.2,88.9
			c53.6,10.9,109.7-1.4,142.5-47.7c30.7-43.2,35.4-105.2,9.5-152.1c-28.9-52.2-88.7-81.8-147-82.8c-54.2-1-104.7,23.6-139.8,64.2
			c-70.2,81.3-76.6,207-11.1,293.2c71.9,94.7,211,133.5,323.1,99.7c52.2-15.8,113.8-56.7,111.5-118.3c-2.2-60.2-60.4-96-109-119
			c-73.4-34.8-149.1-65.2-225.8-91.8c-36.9-12.9-74.3-26.1-112.2-35.4c-29.5-7.2-61.3-10.8-90.4-0.2c-25.7,9.4-49.4,30-55.6,57.6
			c-5.7,25.7,4.9,50.4,21.8,69.5c20.2,22.7,47.1,38,73.1,53c36.7,21.1,73.3,42.2,110,63.4c61.4,35.4,129.6,85.5,203.8,82.2
			c58.8-2.7,111.5-41,112.3-103.5c0.8-70-52.7-120.7-111.8-148.8c-58.8-28-125.8-46.6-190.8-50.8c-58.3-3.7-121.5,6.3-168.9,42.5
			c-39.5,30.2-66.7,77.5-72.6,127c-6.2,51.9,15.9,102.5,61.6,129.6c57.9,34.4,128.7,25.6,187.3-0.9c31.9-14.4,61.5-33.7,89.9-53.8
			c27.1-19.2,53.1-40.5,73.6-66.8c19.7-25.3,33.3-56.1,32.6-88.7c-0.6-28.2-11.5-54.9-27.9-77.6c-41.9-57.7-112.2-79.2-179.2-91.1
			c-67.5-12-143.6-28.5-210.5-6.4c-56.6,18.7-105.9,67.5-100.6,131c4.7,56.1,46.9,102.3,87.2,137.8C480.3,840,612.9,930,754.5,905.8
			c59.5-10.2,117.8-39.8,153.8-89.3c36.6-50.2,42.2-115.3,25.6-174.2c-19.3-68.3-65.3-124-118.7-169.2
			c-53.7-45.5-114.4-86.8-178.2-116.4c-60.1-27.9-128.5-45.3-194.4-31.7c-56.3,11.6-111.1,44.4-140.9,94.4
			c-28.8,48.2-27.5,106.3-3.3,156.3c25.1,51.9,69.1,92.9,114,127.8c54.8,42.8,113.1,80.9,174.3,114c62.9,33.8,130.3,60.4,201.4,69.9
			c117.9,15.8,251-27.5,318.3-129.8c70.7-107.4,28.4-241.6-55.2-329C997,371.9,927.5,333,857.5,299.9
			c-35.3-16.7-71.1-32.9-107.2-47.7c-33.7-13.9-68.5-25.8-104.8-30.1c-58-6.8-124.5,10.2-158.9,60.6c-29,42.4-23.9,95.9-1.1,140
			c26.1,50.7,70.1,87.7,119.8,114c69.2,36.6,147.2,59.2,206.4,112.5c6.1,5.5,15.7-3.1,9.5-8.6L821.1,640.7z"/>
	</g>
</g>
</svg>
