<svg id="Capa_1" enable-background="new 0 0 512 512" height="512" viewBox="0 0 512 512" width="512" xmlns="http://www.w3.org/2000/svg" xmlns:xlink="http://www.w3.org/1999/xlink"><linearGradient id="SVGID_1_" gradientUnits="userSpaceOnUse" x1="271.5" x2="271.5" y1="511" y2="31"><stop offset="0" stop-color="#ffe59a"/><stop offset="1" stop-color="#ffffd5"/></linearGradient><linearGradient id="SVGID_00000123424592190703884780000009637974337671391130_" gradientUnits="userSpaceOnUse" x1="256" x2="256" y1="421.002" y2="1"><stop offset="0" stop-color="#fd5900"/><stop offset="1" stop-color="#ffde00"/></linearGradient><g><g><g><path d="m106 151-45 45 30 225v75c0 8.399 6.599 15 15 15h300c8.401 0 15-6.601 15-15v-75l31-225-46-45zm361-120h-301c-8.291 0-15 6.709-15 15v60c0 8.291 6.709 15 15 15h301c8.291 0 15-6.709 15-15v-60c0-8.291-6.709-15-15-15z" fill="url(#SVGID_1_)"/></g></g><g><g><path d="m497 91h-316v-45c0-24.9-20.098-45-45-45h-121c-8.401 0-15 6.599-15 15v390c0 8.399 6.599 15 15 15h76v-225c0-8.401 6.599-15 15-15h300c8.401 0 15 6.599 15 15v225h76c8.401 0 15-6.601 15-15v-300c0-8.401-6.599-15-15-15zm-290.395 214.395c-5.859-5.859-15.352-5.859-21.211 0l-30 30c-5.859 5.859-5.859 15.352 0 21.211l30 30c5.859 5.859 15.352 5.859 21.211 0s5.859-15.352 0-21.211l-19.394-19.395 19.395-19.395c5.859-5.859 5.859-15.351-.001-21.21zm68.028-33.941c-8.115-2.109-16.187 2.856-18.179 10.913l-30 120c-2.021 8.027 2.871 16.172 10.913 18.179 7.949 2.011 16.16-2.805 18.179-10.913l30-120c2.021-8.028-2.871-16.172-10.913-18.179zm51.972 33.941c-5.859-5.859-15.352-5.859-21.211 0s-5.859 15.352 0 21.211l19.395 19.394-19.395 19.395c-5.859 5.859-5.859 15.352 0 21.211s15.352 5.859 21.211 0l30-30c5.859-5.859 5.859-15.352 0-21.211z" fill="url(#SVGID_00000123424592190703884780000009637974337671391130_)"/></g></g></g></svg>