<svg id="Capa_1" enable-background="new 0 0 512 512" height="512" viewBox="0 0 512 512" width="512" xmlns="http://www.w3.org/2000/svg" xmlns:xlink="http://www.w3.org/1999/xlink"><linearGradient id="SVGID_1_" gradientUnits="userSpaceOnUse" x1="256" x2="256" y1="422" y2="0"><stop offset="0" stop-color="#fd3a84"/><stop offset="1" stop-color="#ffa68d"/></linearGradient><linearGradient id="SVGID_00000057831803355926511110000011758084082228531606_" gradientUnits="userSpaceOnUse" x1="301" x2="301" y1="512" y2="30"><stop offset="0" stop-color="#ffc2cc"/><stop offset="1" stop-color="#fff2f4"/></linearGradient><g><g><g><path d="m466 90h-15l-242.701-60c-5.998-17.4-22.798-30-42.299-30h-120c-8.401 0-15 6.599-15 15v392c0 8.399 6.599 15 15 15h420c8.401 0 15-6.601 15-15v-302c0-8.401-6.599-15-15-15z" fill="url(#SVGID_1_)"/></g></g><g><g><path d="m436 30h-227.701c1.8 4.799 2.701 9.6 2.701 15v45h240v-45c0-8.401-6.599-15-15-15zm-180 182c-57.891 0-105 47.109-105 105 0 17.842 4.805 35.933 14.019 52.529l77.988 134.971c2.681 4.644 7.632 7.5 12.993 7.5s10.312-2.856 12.993-7.5l78.12-135.22c9.082-16.347 13.887-34.438 13.887-52.28 0-57.891-47.109-105-105-105zm0 150c-24.814 0-45-20.186-45-45s20.186-45 45-45 45 20.186 45 45-20.186 45-45 45z" fill="url(#SVGID_00000057831803355926511110000011758084082228531606_)"/></g></g></g></svg>