<svg id="Capa_1" enable-background="new 0 0 512 512" height="512" viewBox="0 0 512 512" width="512" xmlns="http://www.w3.org/2000/svg" xmlns:xlink="http://www.w3.org/1999/xlink"><linearGradient id="SVGID_1_" gradientUnits="userSpaceOnUse" x1="256" x2="256" y1="512" y2="0"><stop offset="0" stop-color="#00b59c"/><stop offset="1" stop-color="#9cffac"/></linearGradient><linearGradient id="SVGID_00000048462581144692239400000001689356245814247573_" gradientUnits="userSpaceOnUse" x1="286" x2="286" y1="512" y2="30"><stop offset="0" stop-color="#c3ffe8"/><stop offset=".9973" stop-color="#f0fff4"/></linearGradient><g><g><g><path d="m466 90h-15l-242.701-60c-5.998-17.4-22.798-30-42.299-30h-120c-8.401 0-15 6.599-15 15v392c0 8.399 6.599 15 15 15h139.286l25.714 90h90l25.714-90h139.286c8.401 0 15-6.601 15-15v-302c0-8.401-6.599-15-15-15z" fill="url(#SVGID_1_)"/></g></g><g><g><path d="m385 334.999-120-90c-5.4-3.9-12.599-3.9-17.999 0l-120 90c-3.9 2.701-6 7.2-6 12.001v150c0 8.399 6.599 15 15 15h75v-105c0-8.401 6.599-15 15-15h60c8.401 0 15 6.599 15 15v105h75c8.401 0 15-6.601 15-15v-150c-.001-4.801-2.101-9.3-6.001-12.001zm-99 27.001h-60c-8.291 0-15-6.709-15-15s6.709-15 15-15h60c8.291 0 15 6.709 15 15s-6.709 15-15 15zm150-332h-227.701c1.8 4.799 2.701 9.6 2.701 15v45h240v-45c0-8.401-6.599-15-15-15z" fill="url(#SVGID_00000048462581144692239400000001689356245814247573_)"/></g></g></g></svg>