<svg id="Capa_1" enable-background="new 0 0 511 511" height="512" viewBox="0 0 511 511" width="512" xmlns="http://www.w3.org/2000/svg" xmlns:xlink="http://www.w3.org/1999/xlink"><linearGradient id="SVGID_1_" gradientUnits="userSpaceOnUse" x1="255.5" x2="255.5" y1="436" y2="0"><stop offset="0" stop-color="#5558ff"/><stop offset="1" stop-color="#00c0ff"/></linearGradient><linearGradient id="SVGID_00000045587750240493435120000012270998387880847018_" gradientUnits="userSpaceOnUse" x1="285.5" x2="285.5" y1="511" y2="30"><stop offset="0" stop-color="#addcff"/><stop offset=".5028" stop-color="#eaf6ff"/><stop offset="1" stop-color="#eaf6ff"/></linearGradient><g><g><g><path d="m465.5 90h-15l-242.701-60c-5.998-17.4-22.798-30-42.299-30h-120c-8.401 0-15 6.599-15 15v391c0 8.399 6.599 15 15 15h167.578l6.211 6.211c5.654 5.669 13.213 8.789 21.211 8.789s15.557-3.12 21.211-8.789l6.211-6.211h197.578c8.401 0 15-6.601 15-15v-301c0-8.401-6.599-15-15-15z" fill="url(#SVGID_1_)"/></g></g><g><g><path d="m435.5 30h-227.701c1.8 4.799 2.701 9.6 2.701 15v45h240v-45c0-8.401-6.599-15-15-15zm-180 211c-74.443 0-135 60.557-135 135s60.557 135 135 135 135-60.557 135-135-60.557-135-135-135zm55.605 115.605-60 60c-2.93 2.93-6.768 4.395-10.605 4.395s-7.676-1.465-10.605-4.395l-30-30c-5.859-5.859-5.859-15.352 0-21.211s15.352-5.859 21.211 0l19.395 19.395 49.395-49.395c5.859-5.859 15.352-5.859 21.211 0s5.858 15.352-.002 21.211z" fill="url(#SVGID_00000045587750240493435120000012270998387880847018_)"/></g></g></g></svg>