<svg xmlns="http://www.w3.org/2000/svg" viewBox="0 0 1111.68 279.68"><g id="Layer_2" data-name="Layer 2"><g id="Layer_2-2" data-name="Layer 2"><g id="_2181446752736" data-name=" 2181446752736"><polygon points="146.27 0 259.68 275.38 351.18 275.38 353.14 279.68 199.94 279.68 198.18 275.38 117.51 79.35 115.56 74.61 146.27 0"/><polygon points="338.67 244.96 277.26 244.96 207.15 74.61 297.07 74.61 298.85 78.91 270.41 78.91 338.67 244.96"/><polygon points="96.81 244.96 28.43 78.91 0 78.91 0 74.61 88.17 74.61 127.53 170.37 96.81 244.96"/></g><path d="M376.38,103.45h51.9q21,0,29.36,11.22T466,153.93q0,27.9-8.38,39.19t-29.32,11.29h-51.9Zm44.95,83.61q9.87,0,14.54-5.31t4.68-27.82q0-22.5-4.68-27.82t-14.54-5.31H401.81v66.26Z"/><path d="M474.87,103.45h73.82V120.8H500.38V145h44.87v16.46H500.38v25.57h48.31v17.35H474.87Z"/><path d="M558,103.45h25.8l21.92,86.38h-.53L627,103.45h25.8l-28.94,101h-37Z"/><path d="M662,103.45h58q16.83,0,22.48,9.09t5.65,21.8q0,12.56-5.95,21.16t-23.15,8.6H687.49v40.31H662Zm49.66,45q6.29,0,8.64-3.59t2.35-10.17q0-6.66-2.35-10.28t-8.64-3.63H687.49v27.67Zm-10.7,8.9,25.28-1,23.78,48H722.42Z"/><path d="M797,103.45h9.27v94.31h46.22v6.65H797Z"/><path d="M897.94,103.23h13.54l34.77,101.18h-9.72l-10-30.06h-43.6l-10.1,30.06h-9.65Zm26.85,64.61L904.89,109h-.22l-20,58.86Z"/><path d="M955.75,103.45h48.54q12.78,0,16.86,6.58t4.08,16q0,9.79-4.12,16.45t-11,7q7.41.45,12.11,7.48t4.72,18.62q0,12.87-4.23,20.83t-16.19,8H955.75Zm44,43.23q8.82,0,12.45-5.5t3.63-14q0-7.86-2.92-12.45t-10.92-4.6H965v36.57Zm4.34,51q7.25,0,10.39-5.94t3.14-17q0-10.25-3.92-16.11t-13.43-5.87H965v44.94Z"/><path d="M1048,196.52Q1040,188,1040,166.42h9.35q0,19.68,6.55,25.84t19.93,6.17q13.23,0,19.93-5.23a16.57,16.57,0,0,0,6.69-13.69q0-10.39-7.7-14.66t-22-8.15q-17-4.48-24.83-10.06t-7.85-18.06a23.93,23.93,0,0,1,8.3-18.29q8.29-7.59,27.45-7.59,19.82,0,27.82,8.68t8,29.16h-9.42q0-19-6.7-25.09t-19.78-6.09q-13.15,0-19.89,5.23t-6.73,13.09q0,9.8,7.66,14.32t21.65,8.19q17.43,4.78,25.32,10t7.89,18.1a25.19,25.19,0,0,1-8.15,19.07q-8.16,7.71-27.6,7.71Q1055.89,205.09,1048,196.52Z"/></g></g></svg>