<svg xmlns="http://www.w3.org/2000/svg" viewBox="0 0 2035.07 399.47"><defs><style>.cls-1{fill:none;}.cls-2{fill:#f45234;}.cls-3{fill:#1e1e1c;}</style></defs><title>자산 1</title><g id="레이어_2" data-name="레이어 2"><g id="Layer_1" data-name="Layer 1"><path class="cls-1" d="M1044.09,35.06H969.32V250.9h74.77a107.92,107.92,0,1,0,0-215.84Z"/><path class="cls-2" d="M143.38,12a17.52,17.52,0,0,0-32,0L1.51,259.86a17.52,17.52,0,0,0,32,14.21L127.36,62.4l93.81,211.67a17.53,17.53,0,0,0,32.05-14.21Z"/><path class="cls-3" d="M2033.56,259.86,1923.71,12a17.52,17.52,0,0,0-32,0L1781.84,259.86a17.52,17.52,0,1,0,32,14.21L1907.69,62.4l93.83,211.67a17.52,17.52,0,0,0,32-14.21Z"/><path class="cls-3" d="M1382.17,12a17.52,17.52,0,0,0-32,0L1240.3,259.86a17.52,17.52,0,0,0,32,14.21L1366.15,62.4,1460,274.07a17.53,17.53,0,0,0,32-14.21Z"/><path class="cls-2" d="M563.7,2.74a17.39,17.39,0,0,0-19.34,4.83L357.3,220.45V17.6a17.53,17.53,0,1,0-35.05,0V267a17.53,17.53,0,0,0,30.69,11.57L540,65.65V268.47a17.53,17.53,0,0,0,35.06,0V19.14A17.53,17.53,0,0,0,563.7,2.74Z"/><path class="cls-2" d="M850.41,6.49,754.53,116.37l-96-110.31a17.52,17.52,0,0,0-26.43,23L737,149.61v119a17.53,17.53,0,1,0,35.06,0V149.64L876.84,29.53a17.53,17.53,0,1,0-26.43-23Z"/><path class="cls-3" d="M1763.51,17.53A17.52,17.52,0,0,0,1746,0h-218.1a17.53,17.53,0,0,0,0,35.06h91.51V268.59a17.53,17.53,0,1,0,35.06,0V35.06H1746A17.52,17.52,0,0,0,1763.51,17.53Z"/><path class="cls-3" d="M1044.09,0h-92.3a17.52,17.52,0,0,0-17.53,17.53v250.9A17.52,17.52,0,0,0,951.79,286h92.3c78.85,0,143-64.14,143-143S1122.94,0,1044.09,0Zm0,250.9H969.32V35.06h74.77a107.92,107.92,0,1,1,0,215.84Z"/><circle class="cls-2" cx="127.36" cy="169.24" r="21.95"/><path class="cls-2" d="M2035.07,371.12c0,15.66-249.21,28.35-556.62,28.35s-556.62-12.69-556.62-28.35,249.2-28.35,556.62-28.35S2035.07,355.47,2035.07,371.12Z"/></g></g></svg>