<svg xmlns="http://www.w3.org/2000/svg" viewBox="0 0 572.78 169.67001"><defs><style>.cls-1{fill:#ccced3;}.cls-2{fill:#fbfbfb;}.cls-3{fill:#010202;}</style></defs><g id="Layer_2" data-name="Layer 2"><g id="katman_1" data-name="katman 1"><path class="cls-1" d="M467.12.02H40.45c-1.56,0-3.09,0-4.64.01-1.3.01-2.59.03-3.9.05a55.01737,55.01737,0,0,0-8.5.75,28.28457,28.28457,0,0,0-8.06,2.66,27.51019,27.51019,0,0,0-6.87,5,26.72473,26.72473,0,0,0-5,6.88A28.01889,28.01889,0,0,0,.83,23.44a54.90056,54.90056,0,0,0-.76,8.49c-.04,1.3-.05,2.6-.07,3.91v98.03c.02,1.32.03,2.59.07,3.91a55.0114,55.0114,0,0,0,.76,8.49,28.081,28.081,0,0,0,2.65,8.08,26.29194,26.29194,0,0,0,5,6.84,26.79561,26.79561,0,0,0,6.86,5,28.74643,28.74643,0,0,0,8.06,2.68,57.61059,57.61059,0,0,0,8.5.75c1.31.03,2.6.04,3.9.04,1.55.01,3.09.01,4.64.01H532.36c1.52,0,3.07,0,4.6-.01,1.29,0,2.62-.02,3.91-.05a54.76067,54.76067,0,0,0,8.48-.75,28.5173,28.5173,0,0,0,8.09-2.68,26.62491,26.62491,0,0,0,6.86-5,27.14635,27.14635,0,0,0,5.01-6.84,28.04048,28.04048,0,0,0,2.63-8.08,58.91186,58.91186,0,0,0,.79-8.49c.02-1.32.02-2.59.02-3.91.03-1.54.03-3.07.03-4.64V40.46c0-1.55,0-3.09-.03-4.63,0-1.3,0-2.6-.02-3.91a56.3205,56.3205,0,0,0-.79-8.49,27.97789,27.97789,0,0,0-2.63-8.07A27.46232,27.46232,0,0,0,557.44,3.48,28.57741,28.57741,0,0,0,549.35.82a54.87049,54.87049,0,0,0-8.48-.75c-1.29-.02-2.62-.05-3.91-.06C535.44,0,533.89,0,532.36,0H467.12Z"/><path class="cls-2" d="M35.83,165.96c-1.29,0-2.55-.02-3.83-.04a55.35352,55.35352,0,0,1-7.93-.69,24.95277,24.95277,0,0,1-7.03-2.33,22.826,22.826,0,0,1-5.92-4.31,22.671,22.671,0,0,1-4.33-5.92,24.17277,24.17277,0,0,1-2.3-7.03,53.0095,53.0095,0,0,1-.7-7.95c-.03-.89-.07-3.87-.07-3.87V35.85s.04-2.94.07-3.79a52.76209,52.76209,0,0,1,.7-7.94A24.1148,24.1148,0,0,1,6.8,17.07a22.70963,22.70963,0,0,1,4.31-5.93A23.69168,23.69168,0,0,1,17.05,6.8a24.76226,24.76226,0,0,1,7.01-2.3,53.00819,53.00819,0,0,1,7.95-.7l3.83-.05H536.95l3.87.06a51.96217,51.96217,0,0,1,7.88.69,25.12036,25.12036,0,0,1,7.09,2.33,23.76366,23.76366,0,0,1,10.24,10.26,24.67778,24.67778,0,0,1,2.27,6.99,55.08487,55.08487,0,0,1,.74,8c.01,1.2.01,2.49.01,3.78.03,1.59.03,3.1.03,4.63v88.76c0,1.54,0,3.04-.03,4.56,0,1.38,0,2.64-.02,3.94a54.55344,54.55344,0,0,1-.72,7.86,24.25929,24.25929,0,0,1-2.29,7.08,23.9278,23.9278,0,0,1-10.25,10.22,24.57937,24.57937,0,0,1-7.07,2.33,53.94935,53.94935,0,0,1-7.93.69c-1.24.03-2.54.05-3.81.05l-4.6.01L35.83,165.96Z"/><path class="cls-3" d="M138.65,84.38a21.84185,21.84185,0,0,1,10.39-18.31,22.33766,22.33766,0,0,0-17.6-9.52c-7.41-.78-14.58,4.43-18.36,4.43-3.85,0-9.66-4.36-15.91-4.23A23.48062,23.48062,0,0,0,77.44,68.78c-8.53,14.77-2.17,36.47,6,48.41,4.09,5.85,8.87,12.37,15.12,12.14,6.12-.25,8.4-3.9,15.79-3.9,7.31,0,9.46,3.9,15.84,3.75,6.56-.1,10.7-5.87,14.64-11.77a48.37939,48.37939,0,0,0,6.7-13.64A21.07189,21.07189,0,0,1,138.65,84.38ZM126.61,48.7a21.532,21.532,0,0,0,4.92-15.4,21.86276,21.86276,0,0,0-14.15,7.32,20.42132,20.42132,0,0,0-5.04,14.82,18.1046,18.1046,0,0,0,14.27-6.74Z"/><path class="cls-3" d="M212.05,115.13H191.98l-4.83,14.23h-8.5l19.01-52.67h8.83l19.02,52.67h-8.65Zm-18-6.57h15.91l-7.85-23.1h-.22C201.9,85.46,194.05,108.56,194.05,108.56Zm72.53,1.6c0,11.93-6.39,19.6-16.03,19.6a13.02108,13.02108,0,0,1-12.08-6.72h-.18v19.02h-7.88V90.96h7.63v6.39h.14a13.62476,13.62476,0,0,1,12.23-6.79c9.74994.01,16.17,7.71,16.17,19.6Zm-8.1,0c0-7.77-4.02-12.88-10.15-12.88-6.02,0-10.07,5.22-10.07,12.89,0,7.74,4.05,12.92,10.07,12.92,6.13,0,10.15-5.08,10.15-12.93Zm50.36,0c0,11.93-6.39,19.6-16.03,19.6a13.02108,13.02108,0,0,1-12.08-6.72h-.18v19.02h-7.88V90.96h7.63v6.39h.14a13.63576,13.63576,0,0,1,12.23-6.79c9.74994.01,16.17,7.71,16.17,19.6Zm-8.1,0c0-7.77-4.02-12.88-10.15-12.88-6.02,0-10.07,5.22-10.07,12.89,0,7.74,4.05,12.92,10.07,12.92,6.13,0,10.15-5.08,10.15-12.93Zm36.03,4.53c.59,5.22,5.66,8.65,12.59,8.65,6.64,0,11.42-3.43,11.42-8.14,0-4.09-2.88-6.53-9.71-8.21l-6.83-1.64c-9.67-2.34-14.16-6.86-14.16-14.2,0-9.09,7.92-15.33,19.16-15.33,11.13,0,18.76,6.24,19.02,15.33H360.3c-.48-5.26-4.82-8.43-11.17-8.43s-10.69,3.21-10.69,7.88c0,3.73,2.78,5.91,9.57,7.59l5.8,1.43c10.81,2.55,15.29,6.9,15.29,14.6,0,9.85-7.85,16.03-20.33,16.03-11.68,0-19.57-6.03-20.08-15.55C328.7,114.69,336.77,114.69,336.77,114.69Zm49.36-32.81v9.09h7.3v6.24h-7.3v21.17c0,3.29,1.46,4.82,4.67,4.82.87-.02,1.73-.08,2.59-.18v6.2a22.212,22.212,0,0,1-4.38.37c-7.77,0-10.81-2.92-10.81-10.36V97.22h-5.59V90.98h5.59v-9.1Zm11.52,28.28c0-12.08,7.12-19.67,18.21-19.67,11.13,0,18.22,7.59,18.22,19.67,0,12.12-7.05,19.67-18.22,19.67C404.7,129.84,397.65,122.28,397.65,110.16Zm28.4,0c0-8.29-3.8-13.18-10.19-13.18-6.38,0-10.18,4.93-10.18,13.18,0,8.32,3.8,13.17,10.18,13.17,6.39.01,10.19-4.84,10.19-13.17Zm14.53-19.2h7.52v6.53h.18a9.15994,9.15994,0,0,1,9.23-6.94,12.83134,12.83134,0,0,1,2.7.29v7.37a11.17116,11.17116,0,0,0-3.54-.48,7.93955,7.93955,0,0,0-8.21,8.84v22.77h-7.89V90.96Zm55.98,27.12c-1.06,6.97-7.85,11.75-16.53,11.75-11.17,0-18.1-7.48-18.1-19.49,0-12.04,6.97-19.86,17.77-19.86,10.62,0,17.3,7.3,17.3,18.94v2.7H469.88v.48a10.005,10.005,0,0,0,10.33,10.88,8.69019,8.69019,0,0,0,8.87-5.4Zm-26.65-11.46h19.2A9.24243,9.24243,0,0,0,479.69,96.87a9.73071,9.73071,0,0,0-9.78,9.75Z"/><path class="cls-3" d="M193.07,37.05a11.1993,11.1993,0,0,1,11.91,12.57c0,8.09-4.37,12.73-11.91,12.73h-9.14V37.04h9.14Zm-5.21,21.73h4.77a7.95416,7.95416,0,0,0,8.35-9.1,7.98271,7.98271,0,0,0-8.35-9.05h-4.77Zm21.55-5.98a9.04185,9.04185,0,1,1,18,0,9.04325,9.04325,0,1,1-18,0Zm14.14,0c0-4.14-1.86-6.56-5.12-6.56-3.28,0-5.12,2.42-5.12,6.56,0,4.18,1.84,6.58,5.12,6.58C221.69,59.38,223.55,56.96,223.55,52.8Zm27.82,9.56h-3.91L243.51,48.3h-.3l-3.93,14.06h-3.87l-5.27-19.1h3.82l3.42,14.57h.28l3.92-14.57h3.62l3.92,14.57h.3l3.4-14.57h3.77Zm9.67-19.1h3.63v3.03h.28a5.7195,5.7195,0,0,1,5.7-3.4,6.21119,6.21119,0,0,1,6.61,7.1V62.35h-3.77V50.93c0-3.07-1.33-4.59-4.12-4.59a4.38153,4.38153,0,0,0-4.56,4.84V62.35h-3.77V43.26Zm22.23-7.46h3.77V62.35h-3.77Zm9,17a9.05078,9.05078,0,1,1,18.02,0,9.05163,9.05163,0,1,1-18.02,0Zm14.14,0c0-4.14-1.86-6.56-5.12-6.56-3.28,0-5.12,2.42-5.12,6.56,0,4.18,1.84,6.58,5.12,6.58C304.55,59.38,306.41,56.96,306.41,52.8Zm7.85,4.16c0-3.44,2.56-5.42,7.1-5.7l5.17-.3V49.31c0-2.02-1.33-3.15-3.91-3.15-2.1,0-3.56.77-3.98,2.12h-3.65c.38-3.28,3.47-5.38,7.8-5.38,4.79,0,7.49,2.38,7.49,6.42V62.37h-3.63V59.68h-.3a6.42652,6.42652,0,0,1-5.74,3,5.75333,5.75333,0,0,1-6.35-5.72Zm12.27-1.63v-1.6l-4.67.3c-2.63.18-3.82,1.07-3.82,2.76,0,1.72,1.49,2.72,3.54,2.72a4.50751,4.50751,0,0,0,4.95-4.18Zm8.71-2.53c0-6.04,3.1-9.86,7.93-9.86a6.30637,6.30637,0,0,1,5.86,3.35h.28V35.8h3.77V62.36h-3.61V59.34h-.3a6.61071,6.61071,0,0,1-6,3.33C338.31,62.67,335.24,58.85,335.24,52.8Zm3.89,0c0,4.05,1.91,6.49,5.1,6.49,3.18,0,5.14-2.47,5.14-6.47,0-3.98-1.99-6.49-5.14-6.49C341.07,46.33,339.13,48.78,339.13,52.8Zm29.54,0a9.04182,9.04182,0,1,1,18,0,9.04323,9.04323,0,1,1-18,0Zm14.14,0c0-4.14-1.86-6.56-5.12-6.56-3.28,0-5.12,2.42-5.12,6.56,0,4.18,1.84,6.58,5.12,6.58C380.95,59.38,382.81,56.96,382.81,52.8Zm8.93-9.54h3.63v3.03h.28a5.71951,5.71951,0,0,1,5.7-3.4,6.21113,6.21113,0,0,1,6.61,7.1V62.35h-3.77V50.93c0-3.07-1.33-4.59-4.12-4.59a4.36726,4.36726,0,0,0-4.55,4.84V62.35h-3.77V43.26Zm37.52-4.75v4.84h4.14v3.17h-4.14v9.82c0,2,.82,2.88,2.7,2.88a11.60066,11.60066,0,0,0,1.44-.09v3.14a12.82388,12.82388,0,0,1-2.05.2c-4.19,0-5.86-1.48-5.86-5.16V46.52h-3.04V43.35h3.03V38.51Zm9.28-2.71h3.74V46.32h.3a5.86924,5.86924,0,0,1,5.82-3.42,6.28281,6.28281,0,0,1,6.58,7.12V62.35h-3.77V50.94c0-3.05-1.42-4.6-4.08-4.6a4.47419,4.47419,0,0,0-4.81006,4.85V62.35h-3.77V35.8Zm38.41,21.4a7.74838,7.74838,0,0,1-8.28,5.52,8.68026,8.68026,0,0,1-8.82-9.86,8.815,8.815,0,0,1,8.81-9.98c5.31,0,8.52,3.63,8.52,9.63v1.31H463.7v.21a5.0423,5.0423,0,0,0,5.08,5.47,4.5792,4.5792,0,0,0,4.55-2.32l3.62.02ZM463.7,51.05h9.65a4.62655,4.62655,0,0,0-4.71-4.95,4.88359,4.88359,0,0,0-4.94,4.95Z"/></g></g></svg>