<?xml version="1.0" encoding="utf-8"?>
<!-- Generator: Adobe Illustrator 24.2.0, SVG Export Plug-In . SVG Version: 6.00 Build 0)  -->
<svg version="1.1" id="Layer_1" xmlns="http://www.w3.org/2000/svg" xmlns:xlink="http://www.w3.org/1999/xlink" x="0px" y="0px"
	 viewBox="0 0 572.6 169.7" style="enable-background:new 0 0 572.6 169.7;" xml:space="preserve">
<style type="text/css">
	.st0{fill:#CCCED3;}
	.st1{fill:#FBFBFB;}
	.st2{fill-rule:evenodd;clip-rule:evenodd;fill:#010202;}
	.st3{fill:none;stroke:#010202;stroke-width:0.2;}
	.st4{fill-rule:evenodd;clip-rule:evenodd;}
	.st5{fill:#FFFFFF;}
	.st6{fill-rule:evenodd;clip-rule:evenodd;fill:#FBFBFB;}
	.st7{fill-rule:evenodd;clip-rule:evenodd;fill:#FFFFFF;}
</style>
<g>
	<path class="st0" d="M467.1,0H40.4c-1.6,0-3.1,0-4.6,0c-1.3,0-2.6,0-3.9,0.1c-2.8,0-5.7,0.3-8.5,0.8c-2.8,0.5-5.5,1.4-8.1,2.7
		c-2.5,1.3-4.9,3-6.9,5c-2,2-3.7,4.3-5,6.9c-1.3,2.5-2.2,5.3-2.7,8.1c-0.5,2.8-0.7,5.6-0.8,8.5C0,33.2,0,34.5,0,35.8v98
		c0,1.3,0,2.6,0.1,3.9c0,2.8,0.3,5.7,0.8,8.5c0.5,2.8,1.4,5.5,2.6,8.1c1.3,2.5,3,4.8,5,6.8c2,2,4.3,3.7,6.9,5
		c2.5,1.3,5.3,2.2,8.1,2.7c2.8,0.5,5.7,0.7,8.5,0.8c1.3,0,2.6,0,3.9,0c1.5,0,3.1,0,4.6,0h491.9c1.5,0,3.1,0,4.6,0
		c1.3,0,2.6,0,3.9-0.1c2.8,0,5.7-0.3,8.5-0.8c2.8-0.5,5.5-1.4,8.1-2.7c2.5-1.3,4.9-3,6.9-5c2-2,3.7-4.3,5-6.8
		c1.3-2.5,2.2-5.3,2.6-8.1c0.5-2.8,0.7-5.6,0.8-8.5c0-1.3,0-2.6,0-3.9c0-1.5,0-3.1,0-4.6V40.4c0-1.5,0-3.1,0-4.6c0-1.3,0-2.6,0-3.9
		c0-2.8-0.3-5.7-0.8-8.5c-0.5-2.8-1.3-5.5-2.6-8.1c-2.6-5.1-6.8-9.3-11.9-11.9c-2.5-1.3-5.3-2.2-8.1-2.7c-2.8-0.5-5.6-0.7-8.5-0.8
		C539.6,0,538.2,0,537,0c-1.5,0-3.1,0-4.6,0L467.1,0L467.1,0z"/>
	<path class="st1" d="M35.8,165.9c-1.3,0-2.5,0-3.8,0c-2.7,0-5.3-0.3-7.9-0.7c-2.4-0.4-4.8-1.2-7-2.3c-2.2-1.1-4.2-2.6-5.9-4.3
		c-1.8-1.7-3.2-3.7-4.3-5.9c-1.1-2.2-1.9-4.6-2.3-7c-0.4-2.6-0.7-5.3-0.7-7.9c0-0.9-0.1-3.9-0.1-3.9v-98c0,0,0-2.9,0.1-3.8
		c0-2.7,0.3-5.3,0.7-7.9c0.4-2.5,1.2-4.8,2.3-7c1.1-2.2,2.6-4.2,4.3-5.9c1.7-1.7,3.7-3.2,5.9-4.3c2.2-1.1,4.6-1.9,7-2.3
		c2.6-0.4,5.3-0.7,8-0.7l3.8,0h501.1l3.9,0.1c2.6,0,5.3,0.3,7.9,0.7c2.5,0.4,4.9,1.2,7.1,2.3c4.4,2.3,8,5.9,10.2,10.3
		c1.1,2.2,1.9,4.6,2.3,7c0.4,2.6,0.7,5.3,0.7,8c0,1.2,0,2.5,0,3.8c0,1.6,0,3.1,0,4.6v88.8c0,1.5,0,3,0,4.6c0,1.4,0,2.6,0,3.9
		c0,2.6-0.3,5.3-0.7,7.9c-0.4,2.5-1.2,4.9-2.3,7.1c-2.3,4.4-5.9,8-10.3,10.2c-2.2,1.1-4.6,1.9-7.1,2.3c-2.6,0.4-5.3,0.7-7.9,0.7
		c-1.2,0-2.5,0.1-3.8,0.1l-4.6,0L35.8,165.9z"/>
</g>
<g id="Layer_2_1_">
	<g id="katman_1">
		<ellipse cx="239" cy="112.6" rx="18.1" ry="18"/>
		<ellipse cx="278.5" cy="112.6" rx="18.1" ry="18"/>
		<path class="st2" d="M201.1,43.5c0.2,3.1-1,6.2-3.2,8.5c-2.4,2.5-5.8,3.9-9.4,3.8c-7.2,0.1-13.2-5.8-13.2-13c0-0.1,0-0.2,0-0.3
			c-0.1-7.2,5.7-13.2,12.9-13.3c0.1,0,0.2,0,0.3,0c1.8,0,3.6,0.4,5.2,1.1c1.5,0.6,2.9,1.6,4,2.8l-2.2,2.2c-1.7-2-4.3-3.2-7-3
			c-5.4,0-9.9,4.4-9.9,9.8c0,0.1,0,0.2,0,0.4c-0.1,2.8,1,5.4,2.9,7.3c3.9,3.8,10.1,3.8,14.1,0c1.3-1.4,2.1-3.2,2.1-5.2h-9.2v-3.1
			h12.3C201.1,42.2,201.1,42.8,201.1,43.5"/>
		<path class="st3" d="M201.1,43.5c0.2,3.1-1,6.2-3.2,8.5c-2.4,2.5-5.8,3.9-9.4,3.8c-7.2,0.1-13.2-5.8-13.2-13c0-0.1,0-0.2,0-0.3
			c-0.1-7.2,5.7-13.2,12.9-13.3c0.1,0,0.2,0,0.3,0c1.8,0,3.6,0.4,5.2,1.1c1.5,0.6,2.9,1.6,4,2.8l-2.2,2.2c-1.7-2-4.3-3.2-7-3
			c-5.4,0-9.9,4.4-9.9,9.8c0,0.1,0,0.2,0,0.4c-0.1,2.8,1,5.4,2.9,7.3c3.9,3.8,10.1,3.8,14.1,0c1.3-1.4,2.1-3.2,2.1-5.2h-9.2v-3.1
			h12.3C201.1,42.2,201.1,42.8,201.1,43.5L201.1,43.5z"/>
		<path class="st2" d="M220.7,32.8h-11.6v8.1h10.4V44h-10.4V52h11.6v3.1h-14.9V29.7h14.9V32.8z"/>
		<path class="st3" d="M220.7,32.8h-11.6v8.1h10.4V44h-10.4V52h11.6v3.1h-14.9V29.7h14.9V32.8z"/>
		<path class="st2" d="M234.4,55.1h-3.3V32.8h-7.1v-3.1h17.5v3.1h-7.1V55.1z"/>
		<path class="st3" d="M234.4,55.1h-3.3V32.8h-7.1v-3.1h17.5v3.1h-7.1V55.1z"/>
		<path class="st2" d="M254.2,55.1h3.3V29.7h-3.3V55.1z"/>
		<path class="st3" d="M254.2,55.1h3.3V29.7h-3.3V55.1z"/>
		<path class="st2" d="M272,55.1h-3.3V32.8h-7.1v-3.1h17.5v3.1H272L272,55.1L272,55.1z"/>
		<path class="st3" d="M272,55.1h-3.3V32.8h-7.1v-3.1h17.5v3.1H272L272,55.1L272,55.1z"/>
		<path class="st2" d="M296,49.7c3.8,3.8,10,3.8,13.8,0c1.9-1.9,2.9-4.6,2.8-7.3c0.1-2.7-0.9-5.4-2.8-7.3c-3.8-3.8-10-3.8-13.8,0
			c-1.9,1.9-2.9,4.6-2.8,7.3C293,45.1,294.1,47.8,296,49.7 M312.2,51.9c-5.2,5.1-13.5,5.1-18.7,0c-2.5-2.5-3.8-5.9-3.8-9.4
			c-0.1-3.5,1.3-6.9,3.8-9.4c5.1-5.1,13.5-5.1,18.6,0c0,0,0,0,0,0c2.5,2.5,3.8,5.9,3.8,9.4C316,45.9,314.7,49.3,312.2,51.9"/>
		<path class="st3" d="M296,49.7c3.8,3.8,10,3.8,13.8,0c1.9-1.9,2.9-4.6,2.8-7.3c0.1-2.7-0.9-5.4-2.8-7.3c-3.8-3.8-10-3.8-13.8,0
			c-1.9,1.9-2.9,4.6-2.8,7.3C293,45.1,294.1,47.8,296,49.7z M312.2,51.9c-5.2,5.1-13.5,5.1-18.7,0c-2.5-2.5-3.8-5.9-3.8-9.4
			c-0.1-3.5,1.3-6.9,3.8-9.4c5.1-5.1,13.5-5.1,18.6,0c0,0,0,0,0,0c2.5,2.5,3.8,5.9,3.8,9.4C316,45.9,314.7,49.3,312.2,51.9z"/>
		<path class="st2" d="M320.5,55.1V29.7h4l12.4,19.8h0.1l-0.1-4.9V29.7h3.3v25.4h-3.4l-12.9-20.8h-0.1l0.1,4.9v15.8H320.5z"/>
		<path class="st3" d="M320.5,55.1V29.7h4l12.4,19.8h0.1l-0.1-4.9V29.7h3.3v25.4h-3.4l-12.9-20.8h-0.1l0.1,4.9v15.8H320.5z"/>
		<rect x="443" y="76.5" width="7.9" height="53"/>
		<polygon class="st4" points="514.3,95.6 505.3,118.6 505,118.6 495.6,95.6 487,95.6 501.1,127.7 493.1,145.6 501.4,145.6 
			523.1,95.6 		"/>
		<path class="st4" d="M470.4,94.4c-5.7,0-11.7,2.5-14.1,8.1l7,2.9c1.5-2.9,4.3-3.9,7.2-3.9c4.1,0,8.3,2.5,8.3,6.8v0.6
			c-2.5-1.3-5.4-2-8.3-2c-7.6,0-15.3,4.2-15.3,11.9c0,7.1,6.2,11.7,13.2,11.7c5.3,0,8.3-2.4,10.1-5.2h0.3v4.1h7.6v-20.3
			C486.5,99.7,479.5,94.4,470.4,94.4z"/>
		<path class="st4" d="M421.3,76.5h-19v53h7.9v-20.1h11c8.8,0,17.4-6.3,17.4-16.5C438.7,82.8,430,76.5,421.3,76.5z"/>
		<path class="st4" d="M327,98.6h-0.3c-2.4-2.6-5.9-4.1-9.5-4c-9,0-17.3,7.9-17.3,18.1c0,10.1,8.3,18,17.3,18
			c3.6,0.1,7.1-1.4,9.5-4.1h0.3v2.6c0,6.9-3.7,10.6-9.6,10.6c-4.1-0.1-7.6-2.6-9.1-6.4l-6.9,2.9c2.7,6.5,9,10.7,16,10.7
			c9.3,0,17.1-5.5,17.1-18.8V95.6H327V98.6z"/>
		<polygon class="st4" points="339.9,129.5 347.9,129.5 347.9,76.5 339.9,76.5 		"/>
		<path class="st4" d="M384.1,106c-1.5-4-6.1-11.5-15.4-11.5c-9.3,0-17,7.3-17,18c-0.2,9.7,7.5,17.8,17.3,18c0.2,0,0.4,0,0.6,0
			c6,0,11.7-3,15-8l-6.1-4.1c-2.1,3-4.9,5-8.9,5c-3.8,0.1-7.2-2-8.7-5.5l24.1-10C385,108,384.1,106,384.1,106z"/>
		<path class="st4" d="M192,100.1v7.7h18.3c-0.6,4.3-2,7.4-4.2,9.6c-2.7,2.7-6.8,5.6-14.1,5.6c-11.2-0.1-20.2-9.4-20.1-20.6
			c0.1-11,9.1-19.9,20.1-20.1c5.1-0.1,10.1,1.9,13.8,5.5l5.4-5.4c-5.1-5-12-7.8-19.2-7.7c-15.4,0-28.4,12.6-28.4,28s13,28,28.4,28
			c8.3,0,14.6-2.7,19.5-7.9c5.1-5.1,6.6-12.2,6.6-17.9c0-1.6-0.1-3.2-0.4-4.8L192,100.1L192,100.1z"/>
		<path class="st4" d="M94.6,84.8L43.2,33.5c-0.7,1.4-1,2.9-0.9,4.4v93.7c0,1.5,0.3,3.1,1,4.5L94.6,84.8z"/>
		<path class="st4" d="M43.4,33.2c0,0,0-0.1,0.1-0.1C43.4,33.1,43.4,33.2,43.4,33.2z"/>
		<path class="st4" d="M97.6,81.8L113.4,66L53.1,31.8c-1.4-0.9-3.1-1.4-4.8-1.4c-0.7,0-1.4,0.1-2,0.4L97.6,81.8z"/>
		<path class="st4" d="M135.7,78.7l-18.5-10.5l-16.6,16.6l16.6,16.6l18.5-10.5C141.6,87.6,141.6,82.1,135.7,78.7z"/>
		<path class="st4" d="M97.6,87.8L46.5,139c1.8,0.6,4.1,0.3,6.6-1.1l60.4-34.3L97.6,87.8z"/>
		<path class="st4" d="M43.3,136.3c0.2,0.4,0.5,0.8,0.8,1.2C43.8,137.1,43.6,136.7,43.3,136.3z"/>
		<path class="st5" d="M239,101.6c-5.5,0-10.2,4.4-10.2,10.9c0,6.4,4.7,10.9,10.2,10.9s10.2-4.5,10.2-10.9
			C249.1,106.1,244.4,101.6,239,101.6z"/>
		<path class="st5" d="M288.6,112.6c0-6.5-4.7-10.9-10.2-10.9c-5.5,0-10.2,4.4-10.2,10.9c0,6.4,4.7,10.9,10.2,10.9
			S288.6,119,288.6,112.6z"/>
		<path class="st6" d="M317.9,123.5c-5.5,0-10-4.6-10-10.9c0-6.4,4.6-11,10-11c5.4,0,9.6,4.7,9.6,11
			C327.5,118.9,323.3,123.5,317.9,123.5L317.9,123.5z"/>
		<path class="st7" d="M421.5,102h-11.3V83.9h11.3c5-0.1,9.2,3.9,9.3,8.9c0.1,5-3.9,9.2-8.9,9.3C421.7,102,421.6,102,421.5,102z"/>
		<path class="st7" d="M359.5,112c-0.3-5.5,3.8-10.2,9.2-10.5c0.1,0,0.1,0,0.2,0c3.1,0,5.8,1.6,6.7,3.8
			C375.7,105.3,359.5,112,359.5,112z"/>
		<path class="st6" d="M469.4,123.5c-2.6,0-6.2-1.3-6.2-4.5c0-4.1,4.5-5.7,8.4-5.7c2.5-0.1,5,0.5,7.2,1.8
			C478.2,119.9,474.2,123.4,469.4,123.5z"/>
	</g>
</g>
</svg>
