<svg xmlns="http://www.w3.org/2000/svg" viewBox="0 0 2560.66667 1120.48533"><defs><style>.cls-1{fill:#1e1e1e;}.cls-2{fill:#af0000;}</style></defs><g id="Layer_2" data-name="Layer 2"><g id="레이어_1" data-name="레이어 1"><path class="cls-1" d="M85.57407,1042.35269c-22.78909-5.5145-26.46865-10.06554-26.46865-18.80935,0-13.83225,13.02856-15.89959,20.79438-15.89959,14.21957,0,21.98539,5.66944,24.4352,17.841l.40185,1.98987h21.2979l-.28081-2.73063c-1.73811-16.99862-14.544-35.1592-45.26348-35.1592-26.25562,0-43.22035,13.92909-43.22035,35.48358,0,19.14342,11.426,29.37842,40.76085,36.51,24.24639,5.86794,28.68124,12.24424,28.68124,22.68742,0,11.80365-8.36133,18.03955-24.18345,18.03955-16.15135,0-25.5294-6.76362-28.68124-20.683l-.43573-1.93177H32.0703l.38249,2.81293c1.52992,11.34855,9.378,37.75427,49.03987,37.75427,34.68957,0,47.05-19.47264,47.05-37.69617C128.54266,1067.11228,123.338,1051.54676,85.57407,1042.35269Z"/><path class="cls-1" d="M251.4401,991.34716l-45.37,127.38069H227.489l13.16413-36.723h45.38451l13.5805,36.723h22.59059L274.89732,991.34716Zm28.62313,71.79023h-33.4695l2.58537-7.55279c5.93572-17.352,10.6078-31.00033,13.62892-40.48489,2.55632,7.64478,6.478,18.41719,11.98279,33.53729Z"/><polygon class="cls-1" points="405.89 1118.728 426.829 1118.728 426.829 1063.844 485.581 1063.844 485.581 1044.977 426.829 1044.977 426.829 1010.21 489.503 1010.21 489.503 991.347 405.89 991.347 405.89 1118.728"/><polygon class="cls-1" points="596.578 1061.501 657.465 1061.501 657.465 1042.634 596.578 1042.634 596.578 1010.21 660.385 1010.21 660.385 991.347 575.702 991.347 575.702 1118.728 661.009 1118.728 663.851 1099.86 596.578 1099.86 596.578 1061.501"/><path class="cls-1" d="M955.21481,1095.58533l.01452-8.82611c0-15.91411-4.69628-26.25078-14.31157-31.37313,10.44319-5.26758,16.4951-15.6333,16.4951-28.812,0-21.72879-15.72529-35.227-41.03682-35.227H866.05316v127.38069H887.109v-53.925h22.55186c20.87668,0,24.40132,6.9476,24.40132,22.52765v4.71081c-.00969,11.03869-.01937,19.75829,2.26583,25.17112l.63908,1.5154h21.08487l-1.35078-3.39391C955.118,1111.3542,955.17123,1102.97351,955.21481,1095.58533ZM887.109,1009.96285h25.97c15.01359,0,22.62932,6.0277,22.62932,17.90882,0,8.52594-2.779,18.31551-24.45942,18.31551H887.109Z"/><path class="cls-1" d="M1102.98319,989.58484c-35.91448,0-60.04467,26.304-60.04467,65.45266s23.55889,65.44783,58.6261,65.44783c41.39994,0,59.92848-33.21775,59.92848-66.14016C1161.4931,1015.60807,1137.97778,989.58484,1102.98319,989.58484Zm-.702,112.10082c-25.82473,0-37.38631-23.69445-37.38631-47.17588,0-10.82083,2.69674-46.12043,37.425-46.12043,27.4418,0,37.21685,23.86391,37.21685,46.193C1139.53675,1065.63078,1136.8497,1101.68566,1102.28117,1101.68566Z"/><path class="cls-1" d="M1282.45877,991.34716l-45.37,127.38069h21.41894l13.16412-36.723h45.38452l13.5805,36.723h22.59058L1305.916,991.34716Zm28.62313,71.79023h-33.46951l2.58538-7.55279c5.93572-17.352,10.6078-31.00033,13.62891-40.48489,2.55633,7.64478,6.478,18.41719,11.98279,33.53729Z"/><path class="cls-1" d="M1483.14025,991.34716h-46.23179v127.38069h45.67985c36.31633,0,60.71281-26.09585,60.71281-64.93462C1543.30112,1016.44082,1519.12251,991.34716,1483.14025,991.34716Zm-25.0404,18.74157h23.2684c29.48008,0,39.98137,22.75519,39.98137,44.04825,0,28.71028-14.97,45.8493-40.04431,45.8493h-23.20546Z"/><path class="cls-1" d="M1829.91494,1080.63952c-5.65975,14.61175-14.73762,21.12845-29.44135,21.12845-26.73978,0-36.26791-24.20282-36.26791-46.85635,0-22.639,9.34415-46.83213,35.56105-46.83213,15.7495,0,25.35026,6.8895,30.216,21.68522l.55677,1.70422h20.9832l-.5132-2.90976c-4.309-24.40616-23.22-38.97433-50.58917-38.97433-40.18471,0-58.171,33.058-58.171,65.81578,0,39.40038,22.59543,64.85716,57.561,64.85716,26.14911,0,44.77449-13.88552,51.10237-38.098l.81337-3.10342H1830.525Z"/><polygon class="cls-1" points="1961.551 991.347 1940.36 991.347 1940.36 1118.728 2022.773 1118.728 2025.842 1099.86 1961.551 1099.86 1961.551 991.347"/><path class="cls-1" d="M2183.44842,1067.49961c0,23.69929-8.88421,34.26836-28.80711,34.26836-13.25612,0-29.054-5.9454-29.054-34.26836V991.34716h-21.41894v76.45746c0,45.63628,31.40217,52.45316,50.11954,52.45316,33.484,0,50.46328-18.03471,50.46328-53.6006v-75.31h-21.30274Z"/><path class="cls-1" d="M2377.94727,1050.927c8.6034-5.224,13.90972-15.07652,13.90972-26.52675,0-15.97705-10.61748-33.05313-40.41227-33.05313h-49.46108v127.38069h50.60368c26.2992,0,43.293-15.04748,43.293-38.33524A31.9998,31.9998,0,0,0,2377.94727,1050.927Zm-29.606-8.67118H2322.87v-32.54477h27.98406c12.30717,0,19.65661,6.018,19.65661,16.09325C2370.51067,1033.46364,2367.99308,1042.25586,2348.3413,1042.25586Zm-25.4713,18.36393h24.65308c17.71032,0,26.69137,6.64258,26.69137,19.73892,0,17.40047-14.77636,20.00037-23.5831,20.00037H2322.87Z"/><path class="cls-1" d="M2030.18974,756.05357v-34.7041h257.80187V676.72991h-228.0555c-136.68612,0-247.88642-111.20271-247.88642-247.88641a247.31061,247.31061,0,0,1,81.32563-183.436H1486.42281a115.61478,115.61478,0,0,1-104.86758,164.43052H1013.85544V242.92869H820.504v622.1949h193.35141V412.02886l413.86138,458.05246h273.97742L1601.4116,773.91155,1441.82746,597.29006a309.34382,309.34382,0,0,0,180.74406-110.02864c28.67154,215.78464,213.865,382.8199,437.36459,382.8199h426.36463V830.41949H2149.17522v-34.7041h237.971V756.05357Z"/><path class="cls-1" d="M514.77584,330.51441H269.36829a75.62786,75.62786,0,0,1-75.42138-85.10686H.23c-.09925,3.02354-.23,6.04223-.23,9.09C0,403.02845,120.83979,523.86582,269.36829,523.86582H514.77584a75.19262,75.19262,0,1,1,0,150.38523H37.183v193.3514H514.77584c148.07824,0,268.54523-120.467,268.54523-268.54281S662.85408,330.51441,514.77584,330.51441Z"/><path class="cls-2" d="M2389.625,2.47886H2059.93611c-149.31283,0-281.52054,74.56322-361.39854,188.39368H2389.625Z"/><path class="cls-2" d="M1381.55523,0H269.36829C148.13876,0,45.38452,80.51709,11.69956,190.87254H1667.05793C1620.55744,78.93754,1510.11726,0,1381.55523,0Z"/><rect class="cls-2" x="2322.69571" y="681.68764" width="39.66183" height="39.66183"/><rect class="cls-2" x="2421.85027" y="756.05357" width="39.66183" height="39.66183"/><rect class="cls-2" x="2521.00484" y="830.41949" width="39.66183" height="39.66183"/></g></g></svg>