<?xml version="1.0" encoding="UTF-8"?>
<svg xmlns="http://www.w3.org/2000/svg" id="Layer_1" data-name="Layer 1" viewBox="0 0 64 64" width="512" height="512"><path d="M14,23a1,1,0,0,1-1-1V8a1,1,0,0,1,2,0V22A1,1,0,0,1,14,23Z"/><path d="M55.785,62H19a6.006,6.006,0,0,1-6-6V52a1,1,0,0,1,2,0v4a4,4,0,0,0,8,0,3.963,3.963,0,0,0-.412-1.77,2.852,2.852,0,0,1,.15-2.785A3.029,3.029,0,0,1,25.323,50H56a6,6,0,0,1,5.972,6.586A6.163,6.163,0,0,1,55.785,62ZM23.431,60H55.785a4.149,4.149,0,0,0,4.2-3.6A4,4,0,0,0,56,52H25.323a1.055,1.055,0,0,0-.886.5.847.847,0,0,0-.056.843A5.931,5.931,0,0,1,23.431,60Z"/><path d="M40.3,32H30a1,1,0,0,1,0-2H40.3a1,1,0,0,1,0,2Z"/><path d="M48,38H31a1,1,0,0,1,0-2H48a1,1,0,0,1,0,2Z"/><path d="M48,44H31a1,1,0,0,1,0-2H48a1,1,0,0,1,0,2Z"/><path d="M56,52a1,1,0,0,1-1-1V8a4,4,0,0,0-4-4H9A1,1,0,0,1,9,2H51a6.006,6.006,0,0,1,6,6V51A1,1,0,0,1,56,52Z"/><path d="M14,14H9a6,6,0,1,1,6-6,1,1,0,0,1-2,0,4,4,0,1,0-4,4h5a1,1,0,0,1,0,2Z"/><path d="M27,23a1,1,0,0,1-1-1V14a1,1,0,0,1,2,0v8A1,1,0,0,1,27,23Z"/><path d="M30,15H24a1,1,0,1,1,0-2h6a1,1,0,0,1,0,2Z"/><path d="M31,23a1.029,1.029,0,0,1-.351-.063,1,1,0,0,1-.586-1.289l3-8a1,1,0,0,1,1.874.7l-3,8A1,1,0,0,1,31,23Z"/><path d="M37,23a1,1,0,0,1-.937-.648l-3-8a1,1,0,0,1,1.874-.7l3,8a1,1,0,0,1-.586,1.289A1.029,1.029,0,0,1,37,23Z"/><path d="M46,23a1,1,0,0,1-.8-.4l-6-8a1,1,0,0,1,1.6-1.2l6,8A1,1,0,0,1,46,23Z"/><path d="M40,23a1,1,0,0,1-.8-1.6l6-8a1,1,0,1,1,1.6,1.2l-6,8A1,1,0,0,1,40,23Z"/><path d="M36,21H32a1,1,0,0,1,0-2h4a1,1,0,0,1,0,2Z"/><path d="M15,50A13,13,0,1,1,28,37,13.015,13.015,0,0,1,15,50Zm0-24A11,11,0,1,0,26,37,11.013,11.013,0,0,0,15,26Z"/><path d="M15,44a4,4,0,0,1-4-4,1,1,0,0,1,2,0,2,2,0,1,0,2-2,4,4,0,1,1,4-4,1,1,0,0,1-2,0,2,2,0,1,0-2,2,4,4,0,0,1,0,8Z"/><path d="M15,32a1,1,0,0,1-1-1V29a1,1,0,0,1,2,0v2A1,1,0,0,1,15,32Z"/><path d="M15,46a1,1,0,0,1-1-1V43a1,1,0,0,1,2,0v2A1,1,0,0,1,15,46Z"/></svg>
