<?xml version="1.0" encoding="UTF-8" standalone="no"?>
<!-- Created with Inkscape (http://www.inkscape.org/) -->

<svg
   version="1.1"
   id="svg1701"
   xml:space="preserve"
   width="682.66669"
   height="682.66669"
   viewBox="0 0 682.66669 682.66669"
   xmlns="http://www.w3.org/2000/svg"
   xmlns:svg="http://www.w3.org/2000/svg"><defs
     id="defs1705"><clipPath
       clipPathUnits="userSpaceOnUse"
       id="clipPath1727"><path
         d="M 0,512 H 512 V 0 H 0 Z"
         id="path1725" /></clipPath></defs><g
     id="g1707"
     transform="matrix(1.3333333,0,0,-1.3333333,0,682.66667)"><g
       id="g1709"
       transform="translate(252.9893,430.9233)"><path
         d="M 0,0 H -188.47"
         style="fill:none;stroke:#000000;stroke-width:15;stroke-linecap:round;stroke-linejoin:round;stroke-miterlimit:10;stroke-dasharray:none;stroke-opacity:1"
         id="path1711" /></g><g
       id="g1713"
       transform="translate(252.9893,379.3965)"><path
         d="M 0,0 H -188.47"
         style="fill:none;stroke:#000000;stroke-width:15;stroke-linecap:round;stroke-linejoin:round;stroke-miterlimit:10;stroke-dasharray:none;stroke-opacity:1"
         id="path1715" /></g><g
       id="g1717"
       transform="translate(158.7544,327.8691)"><path
         d="M 0,0 H -94.235"
         style="fill:none;stroke:#000000;stroke-width:15;stroke-linecap:round;stroke-linejoin:round;stroke-miterlimit:10;stroke-dasharray:none;stroke-opacity:1"
         id="path1719" /></g><g
       id="g1721"><g
         id="g1723"
         clip-path="url(#clipPath1727)"><g
           id="g1729"
           transform="translate(354.9272,272.2876)"><path
             d="m 0,0 c 0,0 -11.491,10.599 -29.205,5.263 -16.264,-4.899 -20.303,-27.153 -9.251,-35.822 6.347,-4.978 15.896,-9.07 28.766,-13.619 28.803,-10.182 18.155,-50.802 -11.144,-50.998 -11.434,-0.076 -16.78,0.65 -26.824,7.22"
             style="fill:none;stroke:#000000;stroke-width:15;stroke-linecap:round;stroke-linejoin:round;stroke-miterlimit:10;stroke-dasharray:none;stroke-opacity:1"
             id="path1731" /></g><g
           id="g1733"
           transform="translate(334.0933,292.7651)"><path
             d="M 0,0 V -130.48"
             style="fill:none;stroke:#000000;stroke-width:15;stroke-linecap:round;stroke-linejoin:round;stroke-miterlimit:10;stroke-dasharray:none;stroke-opacity:1"
             id="path1735" /></g><g
           id="g1737"
           transform="translate(304.6934,502.3364)"><path
             d="m 0,0 c 2.563,-1.168 4.933,-2.77 6.963,-4.799 l 75.413,-75.413 c 2.03,-2.03 3.631,-4.4 4.799,-6.963 H 18.936 C 8.478,-87.175 0,-78.697 0,-68.239 Z"
             style="fill:none;stroke:#000000;stroke-width:15;stroke-linecap:round;stroke-linejoin:round;stroke-miterlimit:10;stroke-dasharray:none;stroke-opacity:1"
             id="path1739" /></g><g
           id="g1741"
           transform="translate(432.8262,181.2817)"><path
             d="m 0,0 c 7.912,15.279 12.385,32.626 12.385,51.019 0,61.369 -49.749,111.118 -111.118,111.118 -61.369,0 -111.118,-49.749 -111.118,-111.118 0,-18.393 4.473,-35.74 12.385,-51.019"
             style="fill:none;stroke:#000000;stroke-width:15;stroke-linecap:round;stroke-linejoin:round;stroke-miterlimit:10;stroke-dasharray:none;stroke-opacity:1"
             id="path1743" /></g><g
           id="g1745"
           transform="translate(394.0322,361.8335)"><path
             d="m 0,0 v 43.48 c 0,6.306 -2.505,12.353 -6.963,16.811 l -75.412,75.413 c -4.459,4.458 -10.506,6.963 -16.811,6.963 h -262.409 c -13.13,0 -23.773,-10.644 -23.773,-23.774 V -330.56 c 0,-13.13 10.643,-23.773 23.773,-23.773 h 109.313"
             style="fill:none;stroke:#000000;stroke-width:15;stroke-linecap:round;stroke-linejoin:round;stroke-miterlimit:10;stroke-dasharray:none;stroke-opacity:1"
             id="path1747" /></g><g
           id="g1749"
           transform="translate(223.3105,240.9731)"><path
             d="M 0,0 H -33.015 C -47.068,0 -58.46,-11.393 -58.46,-25.446 v -182.582 c 0,-14.053 11.392,-25.445 25.445,-25.445 H 254.58 c 14.053,0 25.445,11.392 25.445,25.445 V -25.446 C 280.025,-11.393 268.633,0 254.58,0 h -33.015"
             style="fill:none;stroke:#000000;stroke-width:15;stroke-linecap:round;stroke-linejoin:round;stroke-miterlimit:10;stroke-dasharray:none;stroke-opacity:1"
             id="path1751" /></g><g
           id="g1753"
           transform="translate(168.4717,228.6138)"><path
             d="M 0,0 136.369,-96.499"
             style="fill:none;stroke:#000000;stroke-width:15;stroke-linecap:round;stroke-linejoin:round;stroke-miterlimit:10;stroke-dasharray:none;stroke-opacity:1"
             id="path1755" /></g><g
           id="g1757"
           transform="translate(363.3457,132.1152)"><path
             d="M 0,0 136.369,96.499"
             style="fill:none;stroke:#000000;stroke-width:15;stroke-linecap:round;stroke-linejoin:round;stroke-miterlimit:10;stroke-dasharray:none;stroke-opacity:1"
             id="path1759" /></g><g
           id="g1761"
           transform="translate(172.9062,14.3779)"><path
             d="m 0,0 141.759,126.504 c 11.069,9.878 27.787,9.878 38.856,0 L 322.374,0"
             style="fill:none;stroke:#000000;stroke-width:15;stroke-linecap:round;stroke-linejoin:round;stroke-miterlimit:10;stroke-dasharray:none;stroke-opacity:1"
             id="path1763" /></g></g></g></g></svg>
