<svg id="Layer_1" enable-background="new 0 0 512 512" viewBox="0 0 512 512" xmlns="http://www.w3.org/2000/svg"><path d="m498.874 202.881-31.224-12.019c-4.367-16.682-10.981-32.639-19.71-47.545l13.589-30.597c1.344-3.024.686-6.564-1.654-8.904l-40.553-40.552c-2.341-2.34-5.88-2.997-8.904-1.655l-30.608 13.595c-14.907-8.726-30.86-15.34-47.53-19.706l-12.022-31.233c-1.188-3.089-4.156-5.126-7.466-5.126h-57.349c-3.31 0-6.277 2.038-7.466 5.126l-12.023 31.233c-16.67 4.365-32.624 10.979-47.531 19.706l-30.607-13.594c-3.024-1.343-6.563-.685-8.904 1.655l-40.552 40.553c-2.34 2.34-2.998 5.879-1.655 8.904l13.592 30.604c-8.728 14.906-15.341 30.859-19.707 47.535l-31.23 12.021c-3.088 1.188-5.126 4.156-5.126 7.466v57.35c0 3.31 2.038 6.277 5.126 7.466l6.778 2.609c-1.594 6.118-2.446 12.532-2.446 19.141 0 27.751 14.964 52.063 37.24 65.322-20.921 5.902-40.355 16.568-56.769 31.412-26.022 23.533-42.4 55.624-46.117 90.362-.241 2.257.487 4.51 2.004 6.199 1.517 1.688 3.68 2.652 5.95 2.652l267.33-.001c2.27 0 4.433-.964 5.95-2.653 1.517-1.688 2.246-3.941 2.004-6.199-.916-8.558-2.604-16.955-5.012-25.104h26.52c3.31 0 6.277-2.038 7.466-5.126l12.019-31.224c16.681-4.367 32.638-10.982 47.544-19.71l30.597 13.589c3.024 1.344 6.563.686 8.904-1.654l40.552-40.553c2.34-2.34 2.998-5.879 1.655-8.904l-13.594-30.608c8.726-14.907 15.34-30.86 19.705-47.53l31.233-12.022c3.089-1.188 5.126-4.156 5.126-7.466v-57.35c.001-3.308-2.037-6.276-5.125-7.465zm-409.182 94.033c0-33.07 26.904-59.974 59.973-59.974 33.07 0 59.974 26.904 59.974 59.974 0 33.065-26.897 59.966-59.961 59.973-.005 0-.009 0-.014 0-.004 0-.009 0-.013 0-33.062-.008-59.959-26.909-59.959-59.973zm106.911-59.674c.953-47.449 39.842-85.755 87.514-85.755 48.268 0 87.537 39.269 87.537 87.537s-39.269 87.537-87.537 87.537c-21.939 0-42.672-8.042-58.808-22.708.208-2.286.33-4.597.33-6.937 0-24.185-11.373-45.75-29.036-59.674zm24.926 84.272c17.918 13.649 39.699 21.047 62.588 21.047 57.09 0 103.537-46.446 103.537-103.537s-46.446-103.537-103.537-103.537c-53.304 0-97.323 40.492-102.928 92.331-6.286-2.88-13.021-4.942-20.082-6.013 8.442-60.59 61.02-106.985 123.01-106.985 68.487 0 124.205 55.718 124.205 124.205s-55.718 124.205-124.205 124.205c-25.833 0-51.131-8.133-72.061-23.036 3.972-5.709 7.175-11.984 9.473-18.68zm-71.877 51.374h.014.013c1.253 0 2.5.025 3.745.061l20.091 63.171-23.85 26.929-23.85-26.929 20.091-63.171c1.245-.036 2.492-.061 3.746-.061zm-21.073 1.749-19.389 60.962c-.854 2.685-.233 5.62 1.635 7.729l29.7 33.534h-115.311c9.423-52.914 51.147-93.505 103.365-102.225zm30.225 102.225 29.7-33.534c1.868-2.109 2.489-5.044 1.635-7.729l-19.389-60.963c52.218 8.719 93.942 49.31 103.365 102.225zm329.196-214.656-29.986 11.542c-2.462.947-4.298 3.047-4.909 5.614-4.255 17.881-11.314 34.908-20.98 50.607-1.383 2.247-1.57 5.03-.5 7.441l13.052 29.388-32.785 32.785-29.377-13.047c-2.411-1.072-5.196-.885-7.442.5-15.696 9.667-32.727 16.727-50.62 20.984-2.566.611-4.667 2.447-5.614 4.909l-11.539 29.978h-26.822c-8.019-18.58-19.992-35.403-35.312-49.257-16.414-14.844-35.848-25.51-56.768-31.412 4.743-2.823 9.148-6.149 13.154-9.901 23.863 17.385 52.902 26.892 82.565 26.892 77.309 0 140.205-62.896 140.205-140.205s-62.896-140.205-140.205-140.205c-35.596 0-69.533 13.357-95.561 37.61-24.093 22.451-39.366 52.289-43.5 84.665-27.672 1.666-51.383 18.207-63.248 41.717l-1.573-.606v-46.363l29.983-11.541c2.461-.947 4.298-3.048 4.909-5.614 4.256-17.887 11.316-34.915 20.982-50.611 1.383-2.247 1.57-5.031.5-7.442l-13.05-29.384 32.784-32.785 29.387 13.052c2.412 1.07 5.195.884 7.441-.5 15.699-9.667 32.727-16.726 50.608-20.981 2.566-.611 4.667-2.447 5.614-4.909l11.543-29.986h46.363l11.542 29.986c.947 2.462 3.047 4.298 5.614 4.909 17.882 4.256 34.909 11.315 50.608 20.981 2.246 1.383 5.031 1.569 7.441.5l29.388-13.052 32.785 32.784-13.047 29.377c-1.071 2.411-.884 5.196.5 7.442 9.667 15.696 16.727 32.727 20.984 50.621.611 2.566 2.447 4.667 4.909 5.614l29.977 11.539zm-242.293 4.452c-1.069-4.287 1.54-8.629 5.827-9.698 4.29-1.068 8.629 1.54 9.698 5.827 2.882 11.56 14.711 15.402 23.944 15.182 8.031-.191 15.534-2.99 19.114-7.13 2.033-2.351 2.785-5.047 2.368-8.487-.685-5.644-4.003-12.537-23.748-15.778-27.333-4.488-33.708-18.592-34.244-29.634-.743-15.283 9.883-28.075 26.44-31.831.335-.076.673-.148 1.012-.215v-6.326c0-4.418 3.582-8 8-8s8 3.582 8 8v6.256c11.172 2.105 21.972 8.909 27.502 22.08 1.71 4.074-.205 8.763-4.279 10.473-4.076 1.711-8.763-.205-10.473-4.279-4.856-11.564-16.667-14.551-26.224-12.386-7.052 1.6-14.433 6.499-13.998 15.452.149 3.087.547 11.287 20.854 14.622 8.439 1.385 34.121 5.602 37.039 29.638.959 7.9-1.167 15.121-6.149 20.881-5.437 6.286-14.228 10.606-24.273 12.099v6.076c0 4.418-3.582 8-8 8s-8-3.582-8-8v-6.201c-15.195-2.646-26.916-12.605-30.41-26.621z"/></svg>