<svg xmlns="http://www.w3.org/2000/svg" viewBox="0 0 175.9904 39.2276"><defs><style>.cls-1{fill:#fff;}</style></defs><g id="Layer_2" data-name="Layer 2"><path class="cls-1" d="M67.2147,8.5207V6.2818h2.57V8.5207H75.72v2.0809H72.973a4.5164,4.5164,0,0,1,.9085,1.2849,3.4407,3.4407,0,0,1,.3331,1.4839,4.3638,4.3638,0,0,1-.3548,1.75,5.3831,5.3831,0,0,1-2.3707,2.6022,5.7888,5.7888,0,0,1-1.75.6316V21.056H77.58v1.4273a.7012.7012,0,0,1-.7012.7012H59.196V21.056h7.9754V18.3326a5.9862,5.9862,0,0,1-1.7283-.6533,5.5415,5.5415,0,0,1-1.3952-1.1183,4.9176,4.9176,0,0,1-.9085-1.4623,4.5358,4.5358,0,0,1-.3331-1.7283,3.5123,3.5123,0,0,1,.3223-1.4623,4.4351,4.4351,0,0,1,.9193-1.3065h-2.68V8.5207ZM71.69,13.37a2.44,2.44,0,0,0-.9647-2.0052A3.4862,3.4862,0,0,0,68.5,10.6016a3.7133,3.7133,0,0,0-1.2178.199,3.1492,3.1492,0,0,0-1.0189.5775,2.5557,2.5557,0,0,0-.6987.8631A2.5039,2.5039,0,0,0,65.309,13.37a2.7224,2.7224,0,0,0,.2552,1.1637,3.1756,3.1756,0,0,0,.6987.9626,3.4083,3.4083,0,0,0,1.0189.6317A3.2039,3.2039,0,0,0,68.5,16.362a3.2386,3.2386,0,0,0,1.207-.2336,3.13,3.13,0,0,0,1.0081-.6317,3.3654,3.3654,0,0,0,.71-.9626A2.61,2.61,0,0,0,71.69,13.37Z"/><path class="cls-1" d="M95.0609,18.9967H93.4621V14.943h-4.495A5.011,5.011,0,0,1,87.25,16.2279a5.0689,5.0689,0,0,1-2.1588.465,5.244,5.244,0,0,1-2.0269-.3872,5.1459,5.1459,0,0,1-1.65-1.075,4.9347,4.9347,0,0,1-1.1075-1.6051,4.8614,4.8614,0,0,1-.3981-1.96,4.811,4.811,0,0,1,.3981-1.9381,4.9669,4.9669,0,0,1,1.1075-1.6072,5.319,5.319,0,0,1,1.65-1.0838,5.1358,5.1358,0,0,1,2.0269-.4,5.0265,5.0265,0,0,1,2.2367.5105,5.1608,5.1608,0,0,1,1.75,1.3736h4.3847V6.1715h2.3924V18.2031A.7936.7936,0,0,1,95.0609,18.9967Zm-7.158-7.3309a2.826,2.826,0,0,0-.8307-2.0484,2.74,2.74,0,0,0-3.9758,0,2.9826,2.9826,0,0,0,0,4.1077,2.7688,2.7688,0,0,0,3.9758,0A2.8193,2.8193,0,0,0,87.9029,11.6658Zm7.4128,14.0214H83.8946v-6.69H86.33v4.6074h9.879v1.19A.8935.8935,0,0,1,95.3157,25.6872ZM93.4621,12.9053V10.5345H90.1179q.0681.2888.11.5776a3.5564,3.5564,0,0,1,.0454.5537,3.8565,3.8565,0,0,1-.0562.6533,4.0857,4.0857,0,0,1-.1428.5862Z"/><path class="cls-1" d="M110.7628,13.26a4.3614,4.3614,0,0,1-.2877,1.5834,4.9752,4.9752,0,0,1-.7766,1.3411,5.0938,5.0938,0,0,1-1.1832,1.0188,4.7208,4.7208,0,0,1-1.4731.5971v2.1263c.9583-.013,2.118-.0308,3.0633-.1043.9431-.0736,2.7128-.2628,2.7128-.2628V21.6c-2.1651.2694-4.9087.3628-5.655.4s-1.4882.0541-2.2258.0541l-5.583.067V20.0371l5.25-.0432V17.8005a4.6774,4.6774,0,0,1-1.4948-.5971,5.1069,5.1069,0,0,1-1.1854-1.0188,4.7222,4.7222,0,0,1-.7635-1.3411,4.4468,4.4468,0,0,1-.2769-1.5834,3.8593,3.8593,0,0,1,.2985-1.551,3.6034,3.6034,0,0,1,.8761-1.2178H99.932V8.4752h4.7394v-2.17h2.4811v2.17h4.5188v2.0161h-2.1047a4.1045,4.1045,0,0,1,.8739,1.2178A3.624,3.624,0,0,1,110.7628,13.26Zm-2.3037,0a2.6291,2.6291,0,1,0-.7744,1.8711A2.5459,2.5459,0,0,0,108.4591,13.26Zm6.6655,12.8251h-1.4827V6.1715h2.4141V25.1539A.9313.9313,0,0,1,115.1246,26.0852Z"/><path class="cls-1" d="M129.8783,12.2629H127.22a16.2032,16.2032,0,0,1-2.1264,5.2715A19.1218,19.1218,0,0,1,120.773,22.12l-1.5481-1.75a14.9585,14.9585,0,0,0,4.43-4.8736,12.8132,12.8132,0,0,0,1.5942-5.8685h-5.0941V7.5451H127.73q0,.6651-.0455,1.2849c-.03.4131-.0649.82-.11,1.2178h2.3037V6.1715h2.3038v19.09a.8459.8459,0,0,1-.8459.8459h-1.4579V17.79h-2.9632V15.553h2.9632Zm5.4445,13.844H133.91V6.1715h2.3037v19.044A.8913.8913,0,0,1,135.3228,26.1069Z"/><path class="cls-1" d="M154.8638,16.6713h-1.5956v-4.81h-3.6319v4.1674h-9.5026V6.7469h2.3924V9.6055h4.7849V6.7469h2.3253V9.7351h3.6319V6.1715h2.3925v9.703A.7968.7968,0,0,1,154.8638,16.6713Zm-7.5528-2.7255v-2.281h-4.7849v2.281Zm8.2848,11.94H143.7224v-8.04h2.4811V20.35h6.9111V17.8459h2.4812Zm-2.4595-2.0376V22.342h-6.9328v1.5066Z"/><path class="cls-1" d="M170.013,11.6658a4.7642,4.7642,0,0,1-.4088,1.96,5.1027,5.1027,0,0,1-1.1184,1.6051,5.2214,5.2214,0,0,1-3.6557,1.4622,5.2518,5.2518,0,0,1-2.0268-.3872,5.1716,5.1716,0,0,1-1.65-1.075,4.97,4.97,0,0,1-1.1075-1.6051,4.8613,4.8613,0,0,1-.398-1.96,4.8109,4.8109,0,0,1,.398-1.9381,5.0029,5.0029,0,0,1,1.1075-1.6072,5.3465,5.3465,0,0,1,1.65-1.0838,5.1434,5.1434,0,0,1,2.0268-.4,5.0837,5.0837,0,0,1,2.0053.4,5.3448,5.3448,0,0,1,1.65,1.0838,5.1369,5.1369,0,0,1,1.1184,1.6072A4.7152,4.7152,0,0,1,170.013,11.6658Zm-2.3686,0a2.826,2.826,0,0,0-.8307-2.0484,2.74,2.74,0,0,0-3.9758,0,2.9826,2.9826,0,0,0,0,4.1077,2.7688,2.7688,0,0,0,3.9758,0A2.8193,2.8193,0,0,0,167.6444,11.6658Zm7.3874,14.0214H163.6339v-6.69h2.4379v4.6074h9.7052v1.338A.7451.7451,0,0,1,175.0318,25.6872Zm-.1694-6.7728h-1.6588V6.1715h2.3924V18.1807A.7336.7336,0,0,1,174.8624,18.9144Z"/><path class="cls-1" d="M61.466,37.2218V34.3746l-2.1582-3.9819h1.4287l.8106,1.7529c.2329.5069.4053.8916.5976,1.3579h.02c.1622-.436.3545-.8613.5874-1.3579l.8208-1.7529h1.4082l-2.27,3.9516v2.8775Z"/><path class="cls-1" d="M70.0412,34.7091a2.4444,2.4444,0,0,1-2.5332,2.624,2.3853,2.3853,0,0,1-2.4722-2.543,2.4364,2.4364,0,0,1,2.5533-2.6142A2.3676,2.3676,0,0,1,70.0412,34.7091ZM66.323,34.76c0,.9521.476,1.6719,1.2255,1.6719.7095,0,1.2061-.69,1.2061-1.6924,0-.77-.3447-1.6617-1.1958-1.6617C66.6774,33.0777,66.323,33.9391,66.323,34.76Z"/><path class="cls-1" d="M76.094,35.7423c0,.5879.0205,1.0742.0405,1.48h-1.084l-.061-.74h-.03a1.8057,1.8057,0,0,1-1.5908.8511c-.8916,0-1.7119-.5371-1.7119-2.1479V32.2877h1.246v2.6851c0,.82.2632,1.3471.9219,1.3471a1.0136,1.0136,0,0,0,.9527-.6684.9084.9084,0,0,0,.0708-.3853V32.2877H76.094Z"/><path class="cls-1" d="M78.0534,33.878c0-.6684-.01-1.1547-.04-1.59h1.0742l.0508.9321h.03a1.4767,1.4767,0,0,1,1.3574-1.0439,1.2875,1.2875,0,0,1,.2939.0308v1.165a2.0216,2.0216,0,0,0-.375-.03,1.0968,1.0968,0,0,0-1.1142.9419,2.1416,2.1416,0,0,0-.03.375v2.5635H78.0534Z"/><path class="cls-1" d="M85.7683,32.2877l.8,2.5024c.1421.4356.2431.8311.3344,1.2364h.03c.0913-.4053.2026-.7905.3345-1.2364l.7905-2.5024h1.3066l-1.8842,4.9341H86.2546l-1.834-4.9341Z"/><path class="cls-1" d="M92.0642,30.91a.7.7,0,1,1-.6993-.6792A.6659.6659,0,0,1,92.0642,30.91Zm-1.3272,6.312V32.2877h1.2461v4.9341Z"/><path class="cls-1" d="M93.89,36.0665a2.6986,2.6986,0,0,0,1.2563.3653c.5474,0,.7905-.2334.7905-.5577,0-.334-.2026-.4961-.8105-.7192-.9629-.3242-1.3579-.8511-1.3579-1.439,0-.8711.7192-1.54,1.8642-1.54A2.8474,2.8474,0,0,1,96.95,32.47l-.2534.8716a2.18,2.18,0,0,0-1.0435-.2837c-.4458,0-.6889.2227-.6889.5269,0,.3139.2329.4555.8608.6889.9019.314,1.3071.77,1.3174,1.5,0,.9018-.6992,1.55-2.0064,1.55a3.183,3.183,0,0,1-1.5-.3448Z"/><path class="cls-1" d="M100.1037,30.91a.6992.6992,0,1,1-.6987-.6792A.6657.6657,0,0,1,100.1037,30.91Zm-1.3271,6.312V32.2877h1.2461v4.9341Z"/><path class="cls-1" d="M106.6716,34.7091a2.4445,2.4445,0,0,1-2.5332,2.624,2.3856,2.3856,0,0,1-2.4722-2.543,2.4363,2.4363,0,0,1,2.5532-2.6142A2.3677,2.3677,0,0,1,106.6716,34.7091Zm-3.7183.0508c0,.9521.4761,1.6719,1.2256,1.6719.71,0,1.2061-.69,1.2061-1.6924,0-.77-.3448-1.6617-1.1958-1.6617C103.3078,33.0777,102.9533,33.9391,102.9533,34.76Z"/><path class="cls-1" d="M108.3068,33.7569c0-.5673-.02-1.0439-.04-1.4692h1.084l.061.74h.03a1.8122,1.8122,0,0,1,1.5806-.8516c.8613,0,1.7529.5576,1.7529,2.1177v2.9282H111.529V34.4357c0-.7095-.2637-1.2461-.9424-1.2461a1.0455,1.0455,0,0,0-.9726.73,1.1521,1.1521,0,0,0-.0606.395v2.9077h-1.2466Z"/><path class="cls-1" d="M114.1267,38.4479a16.4025,16.4025,0,0,0,.6792-2.6748l1.3066-.1016a13.4213,13.4213,0,0,1-1.1348,2.6953Z"/><path class="cls-1" d="M125.1135,34.7091a2.4445,2.4445,0,0,1-2.5332,2.624,2.3856,2.3856,0,0,1-2.4722-2.543,2.4363,2.4363,0,0,1,2.5532-2.6142A2.3677,2.3677,0,0,1,125.1135,34.7091Zm-3.7183.0508c0,.9521.4761,1.6719,1.2256,1.6719.7095,0,1.2061-.69,1.2061-1.6924,0-.77-.3448-1.6617-1.1958-1.6617C121.75,33.0777,121.3952,33.9391,121.3952,34.76Z"/><path class="cls-1" d="M131.1662,35.7423c0,.5879.02,1.0742.0405,1.48h-1.0839l-.0606-.74h-.0307a1.8042,1.8042,0,0,1-1.59.8511c-.8916,0-1.7124-.5371-1.7124-2.1479V32.2877h1.2461v2.6851c0,.82.2637,1.3471.9219,1.3471a1.0136,1.0136,0,0,0,.9526-.6684.9008.9008,0,0,0,.0708-.3853V32.2877h1.2461Z"/><path class="cls-1" d="M133.1262,33.878c0-.6684-.01-1.1547-.0405-1.59h1.0737l.0508.9321h.03a1.4769,1.4769,0,0,1,1.3579-1.0439,1.2845,1.2845,0,0,1,.2935.0308v1.165a2.02,2.02,0,0,0-.3745-.03,1.0971,1.0971,0,0,0-1.1148.9419,2.1913,2.1913,0,0,0-.03.375v2.5635h-1.2461Z"/><path class="cls-1" d="M140.0505,33.9288c0-.6484-.02-1.1753-.0405-1.6411h1.0942l.0606.76h.02a1.9219,1.9219,0,0,1,1.6919-.8716,2.2419,2.2419,0,0,1,2.0771,2.5127,2.3489,2.3489,0,0,1-2.2495,2.6445,1.62,1.62,0,0,1-1.3877-.6582h-.02v2.5527h-1.2461Zm1.2461,1.2261a1.9051,1.9051,0,0,0,.03.3442,1.1383,1.1383,0,0,0,1.1045.8716c.7905,0,1.2563-.6587,1.2563-1.6313,0-.8711-.4253-1.5806-1.2261-1.5806a1.1814,1.1814,0,0,0-1.1245.9224,1.6817,1.6817,0,0,0-.04.3139Z"/><path class="cls-1" d="M146.5905,33.878c0-.6684-.01-1.1547-.041-1.59h1.0742l.0508.9321h.03a1.4768,1.4768,0,0,1,1.3574-1.0439,1.2859,1.2859,0,0,1,.294.0308v1.165a2.0232,2.0232,0,0,0-.375-.03,1.0969,1.0969,0,0,0-1.1143.9419,2.1416,2.1416,0,0,0-.03.375v2.5635h-1.2461Z"/><path class="cls-1" d="M155.4079,34.7091a2.4444,2.4444,0,0,1-2.5332,2.624,2.3856,2.3856,0,0,1-2.4722-2.543,2.4364,2.4364,0,0,1,2.5533-2.6142A2.3676,2.3676,0,0,1,155.4079,34.7091Zm-3.7187.0508c0,.9521.4765,1.6719,1.226,1.6719.7095,0,1.2056-.69,1.2056-1.6924,0-.77-.3442-1.6617-1.1953-1.6617C152.0441,33.0777,151.6892,33.9391,151.6892,34.76Z"/><path class="cls-1" d="M160.67,37.07a3.6051,3.6051,0,0,1-1.3979.2535,2.3779,2.3779,0,0,1-2.5435-2.523,2.5437,2.5437,0,0,1,2.7456-2.6245,3.3265,3.3265,0,0,1,1.2061.2231l-.2232.9424a2.0494,2.0494,0,0,0-.9419-.1929,1.5984,1.5984,0,0,0,0,3.1919,2.4721,2.4721,0,0,0,.9825-.1928Z"/><path class="cls-1" d="M162.9943,35.1041a1.3357,1.3357,0,0,0,1.52,1.2769,3.9678,3.9678,0,0,0,1.3677-.2232l.1826.8511a4.428,4.428,0,0,1-1.7227.3145,2.3343,2.3343,0,0,1-2.543-2.4927,2.4438,2.4438,0,0,1,2.4117-2.6548,2.1452,2.1452,0,0,1,2.1274,2.4014,3.0377,3.0377,0,0,1-.0405.5268Zm2.168-.8711a1.06,1.06,0,0,0-1.0229-1.2055,1.2185,1.2185,0,0,0-1.1451,1.2055Z"/><path class="cls-1" d="M167.9021,36.0665a2.6986,2.6986,0,0,0,1.2563.3653c.5469,0,.79-.2334.79-.5577,0-.334-.2026-.4961-.81-.7192-.9624-.3242-1.3574-.8511-1.3574-1.439,0-.8711.7192-1.54,1.8642-1.54a2.8467,2.8467,0,0,1,1.3169.2939l-.2534.8716a2.18,2.18,0,0,0-1.0434-.2837c-.4458,0-.689.2227-.689.5269,0,.3139.2329.4555.8613.6889.9019.314,1.3071.77,1.3169,1.5,0,.9018-.6987,1.55-2.0058,1.55a3.1831,3.1831,0,0,1-1.5-.3448Z"/><path class="cls-1" d="M172.738,36.0665a2.6986,2.6986,0,0,0,1.2563.3653c.5469,0,.79-.2334.79-.5577,0-.334-.2027-.4961-.8106-.7192-.9624-.3242-1.3574-.8511-1.3574-1.439,0-.8711.7193-1.54,1.8643-1.54a2.8457,2.8457,0,0,1,1.3169.2939l-.253.8716a2.18,2.18,0,0,0-1.0439-.2837c-.4458,0-.689.2227-.689.5269,0,.3139.2334.4555.8614.6889.9018.314,1.3071.77,1.3173,1.5,0,.9018-.6992,1.55-2.0063,1.55a3.1824,3.1824,0,0,1-1.5-.3448Z"/><rect class="cls-1" y="0.0002" width="8.6045" height="37.4597"/><polygon class="cls-1" points="17.971 15.471 7.281 15.471 7.281 21.12 15.242 21.12 17.971 15.471"/><polygon class="cls-1" points="18.426 0 18.426 37.46 27.465 37.46 27.465 10.343 21.989 0 18.426 0"/><polygon class="cls-1" points="56.146 0 47.281 0 41.772 10.845 46.567 18.569 56.146 0"/><polygon class="cls-1" points="32.911 0 24.77 0 36.243 22.186 36.243 37.46 44.847 37.46 44.847 21.902 32.911 0"/></g></svg>