<svg enable-background="new 0 0 512 512" height="512" viewBox="0 0 512 512" width="512" xmlns="http://www.w3.org/2000/svg" xmlns:xlink="http://www.w3.org/1999/xlink"><linearGradient id="SVGID_1_" gradientUnits="userSpaceOnUse" x1="227.119" x2="227.119" y1="281.008" y2="113.469"><stop offset="0" stop-color="#e2dec3"/><stop offset=".9944" stop-color="#fff"/></linearGradient><linearGradient id="SVGID_2_" gradientUnits="userSpaceOnUse" x1="227.117" x2="227.117" y1="181.664" y2="8.993"><stop offset="0" stop-color="#00c900"/><stop offset="1" stop-color="#07fafa"/></linearGradient><linearGradient id="SVGID_3_" gradientUnits="userSpaceOnUse" x1="445.212" x2="445.212" y1="503.005" y2="373.924"><stop offset="0" stop-color="#fe652b"/><stop offset="1" stop-color="#ffff49"/></linearGradient><g id="_x30_7_Online_Graduation"><g><path d="m342.728 113.469v146.225c-77.073 28.418-154.145 28.418-231.218 0v-146.225z" fill="url(#SVGID_1_)"/><path d="m435.614 95.291-208.496 86.373-208.497-86.298 208.497-86.373z" fill="url(#SVGID_2_)"/><path d="m493.378 422.09v32.748c0 26.601-21.565 48.166-48.166 48.166-26.601 0-48.166-21.565-48.166-48.166v-32.748c0-26.601 21.565-48.166 48.166-48.166 26.601 0 48.166 21.565 48.166 48.166z" fill="url(#SVGID_3_)"/><g fill="#1e2e49"><path d="m15.569 102.726 87.966 36.411v120.559c0 3.338 2.078 6.318 5.206 7.478 36.641 13.523 73.519 20.657 110.407 21.566v114.325c0 35.506 28.884 64.389 64.389 64.389s64.389-28.884 64.389-64.389v-41.871c0-24.62 20.037-44.656 44.656-44.656 24.627 0 44.664 20.037 44.664 44.656v5.395c-27.184 3.89-48.173 27.259-48.173 55.501v32.751c0 30.954 25.188 56.133 56.141 56.133s56.133-25.18 56.133-56.133v-32.751c0-28.242-20.982-51.611-48.166-55.501v-5.395c0-33.412-27.187-60.592-60.6-60.592s-60.592 27.18-60.592 60.592v41.871c0 26.721-21.733 48.453-48.453 48.453s-48.453-21.733-48.453-48.453v-114.326c36.894-.908 73.773-8.043 110.415-21.566 3.128-1.159 5.206-4.14 5.206-7.478v-120.606l76.94-31.876v82.18c0 4.404 3.564 7.968 7.968 7.968s7.968-3.564 7.968-7.968c0-2.466-.003-100.324-.003-94.083 0-.008.003-.015.003-.022 0-3.12-2.226-6.248-4.918-7.361l-208.495-86.294c-1.961-.809-4.14-.809-6.1 0l-208.498 86.371c-2.98 1.229-4.918 4.14-4.918 7.361 0 3.222 1.946 6.132 4.918 7.361zm469.844 319.363v32.751c0 22.169-18.029 40.198-40.198 40.198s-40.205-18.029-40.205-40.198v-32.751c0-22.169 18.037-40.198 40.205-40.198 22.169.001 40.198 18.03 40.198 40.198zm-150.644-167.988c-71.455 25.125-143.827 25.141-215.298 0v-108.368l104.595 43.294c1.961.809 4.14.809 6.1 0l104.602-43.336v108.41zm-107.653-236.485 168.509 69.743h-165.35c-4.404 0-7.968 3.564-7.968 7.968s3.564 7.968 7.968 7.968h165.183l-168.342 69.751-187.666-77.681z"/><path d="m437.247 409.445v12.987c0 4.404 3.564 7.968 7.968 7.968s7.968-3.564 7.968-7.968v-12.987c0-4.404-3.564-7.968-7.968-7.968s-7.968 3.564-7.968 7.968z"/></g></g></g></svg>