<svg enable-background="new 0 0 512 512" height="512" viewBox="0 0 512 512" width="512" xmlns="http://www.w3.org/2000/svg" xmlns:xlink="http://www.w3.org/1999/xlink"><linearGradient id="SVGID_1_" gradientUnits="userSpaceOnUse" x1="256" x2="256" y1="502.983" y2="8.971"><stop offset="0" stop-color="#e2dec3"/><stop offset=".9944" stop-color="#fff"/></linearGradient><linearGradient id="SVGID_2_" gradientUnits="userSpaceOnUse" x1="256" x2="256" y1="315.478" y2="196.476"><stop offset="0" stop-color="#f80314"/><stop offset="1" stop-color="#fed59c"/></linearGradient><g id="_x31_2_Management"><g><path d="m479.102 213.986h-37.848c-4.781-21.354-13.227-41.354-24.541-59.281l26.773-26.852c9.322-9.323 9.322-24.462 0-33.784l-25.497-25.497c-9.323-9.323-24.462-9.323-33.784 0l-26.773 26.852c-18.008-11.394-38.007-19.84-59.44-24.701v-37.848c0-13.227-10.677-23.904-23.904-23.904h-36.015c-13.227 0-23.904 10.677-23.904 23.904v37.848c-21.434 4.861-41.433 13.227-59.441 24.621l-26.772-26.772c-9.322-9.323-24.462-9.323-33.864 0l-25.418 25.497c-9.402 9.322-9.402 24.461 0 33.784l26.772 26.772c-11.394 18.008-19.84 38.007-24.621 59.361h-37.927c-13.147 0-23.904 10.757-23.904 23.904v36.015c0 13.227 10.757 23.904 23.904 23.904h37.927c4.781 21.434 13.227 41.513 24.621 59.441l-26.772 26.852c-9.402 9.322-9.402 24.462 0 33.784l25.418 25.497c9.402 9.322 24.541 9.322 33.864 0l26.772-26.772c18.008 11.314 38.007 19.76 59.441 24.621v37.848c0 13.227 10.677 23.904 23.904 23.904h36.015c13.227 0 23.904-10.677 23.904-23.904v-37.927c21.434-4.781 41.433-13.227 59.44-24.621l26.773 26.852c9.322 9.322 24.461 9.322 33.864-.08l25.418-25.418c9.322-9.322 9.322-24.462-.08-33.784l-26.773-26.852c11.395-17.928 19.761-37.927 24.621-59.361h37.848c13.227 0 23.904-10.677 23.904-23.904v-36.095c-.001-13.147-10.679-23.904-23.905-23.904zm-223.102 166.769c-68.923 0-124.778-55.855-124.778-124.778 0-68.922 55.855-124.778 124.778-124.778s124.778 55.855 124.778 124.778c-.001 68.922-55.855 124.778-124.778 124.778z" fill="url(#SVGID_1_)"/><path d="m291.345 196.476h-70.69v119.002l35.345-23.07 35.345 23.07z" fill="url(#SVGID_2_)"/><g fill="#1e2e49"><path d="m256 388.747c73.198 0 132.747-59.549 132.747-132.747 0-73.19-59.549-132.739-132.747-132.739-73.19 0-132.739 59.549-132.739 132.739 0 73.198 59.549 132.747 132.739 132.747zm0-249.55c64.413 0 116.811 52.398 116.811 116.803 0 64.413-52.398 116.811-116.811 116.811-64.405 0-116.803-52.398-116.803-116.811 0-64.405 52.398-116.803 116.803-116.803z"/><path d="m32.898 305.8h31.654c4.56 17.702 11.539 34.572 20.83 50.29l-22.316 22.379c-12.579 12.467-12.515 32.697-.031 45.069l25.452 25.53c12.465 12.372 32.704 12.364 45.108-.023l22.348-22.355c15.811 9.252 32.673 16.239 50.259 20.822v31.592c0 17.578 14.294 31.872 31.872 31.872h36.019c17.578 0 31.872-14.294 31.872-31.872v-31.646c17.601-4.536 34.463-11.524 50.266-20.83l22.348 22.418c12.411 12.419 32.658 12.372 45.131-.078l25.413-25.421c12.492-12.492 12.391-32.681-.07-45.045l-22.348-22.41c9.213-15.609 16.193-32.44 20.815-50.204h31.584c17.578 0 31.872-14.294 31.872-31.872v-36.097c0-17.578-14.294-31.872-31.872-31.872h-31.576c-4.536-17.562-11.501-34.369-20.752-50.119l22.348-22.418c12.431-12.431 12.447-32.598 0-45.045l-25.499-25.499c-12.427-12.427-32.626-12.419-45.053.008l-22.34 22.402c-15.749-9.267-32.603-16.278-50.266-20.885v-31.593c0-17.578-14.294-31.872-31.872-31.872h-36.019c-17.578 0-31.872 14.294-31.872 31.872v31.592c-17.741 4.614-34.595 11.602-50.266 20.815l-22.34-22.34c-12.388-12.388-32.627-12.403-45.139.008l-25.392 25.467c-12.636 12.522-12.458 32.746-.023 45.069l22.34 22.34c-9.291 15.772-16.278 32.611-20.822 50.196h-31.663c-17.578 0-31.872 14.294-31.872 31.872v36.011c0 17.578 14.294 31.872 31.872 31.872zm-15.936-67.883c0-8.785 7.151-15.936 15.936-15.936h37.933c3.727 0 6.964-2.591 7.773-6.225 4.505-20.122 12.434-39.241 23.577-56.842 1.992-3.151 1.541-7.26-1.097-9.898l-26.798-26.798c-6.216-6.168-6.318-16.194.031-22.495l25.39-25.468c6.264-6.209 16.418-6.233 22.62-.023l26.767 26.775c2.638 2.646 6.746 3.097 9.898 1.097 17.438-11.034 36.595-18.971 56.943-23.585 3.626-.825 6.202-4.054 6.202-7.773v-37.848c0-8.785 7.151-15.936 15.936-15.936h36.019c8.785 0 15.936 7.151 15.936 15.936v37.848c0 3.719 2.576 6.949 6.202 7.773 20.231 4.591 39.388 12.551 56.943 23.663 3.167 2.008 7.275 1.541 9.905-1.105l26.767-26.845c6.209-6.217 16.302-6.202 22.511 0l25.499 25.499c6.202 6.209 6.202 16.302-.008 22.519l-26.775 26.853c-2.63 2.638-3.081 6.739-1.097 9.882 11.104 17.578 19.009 36.673 23.507 56.772.809 3.634 4.046 6.225 7.773 6.225h37.848c8.785 0 15.936 7.151 15.936 15.936v36.097c0 8.785-7.151 15.936-15.936 15.936h-37.848c-3.719 0-6.949 2.576-7.773 6.209-4.614 20.379-12.543 39.497-23.569 56.842-2 3.144-1.556 7.26 1.082 9.898l26.806 26.884c6.271 6.223 6.253 16.297.054 22.495l-25.413 25.421c-6.264 6.241-16.403 6.279-22.589.086l-26.775-26.853c-2.63-2.638-6.754-3.105-9.898-1.105-17.632 11.15-36.782 19.087-56.919 23.577-3.642.809-6.233 4.038-6.233 7.773v37.925c0 8.785-7.151 15.936-15.936 15.936h-36.019c-8.785 0-15.936-7.151-15.936-15.936v-37.848c0-3.719-2.576-6.949-6.209-7.773-20.13-4.56-39.295-12.497-56.958-23.593-1.307-.825-2.778-1.222-4.241-1.222-2.054 0-4.101.794-5.634 2.334l-26.767 26.775c-6.209 6.209-16.348 6.186-22.589.008l-25.452-25.53c-6.226-6.178-6.306-16.215.031-22.503l26.775-26.853c2.638-2.638 3.081-6.754 1.082-9.898-11.119-17.492-19.048-36.634-23.569-56.904-.809-3.642-4.038-6.233-7.773-6.233h-37.935c-8.785 0-15.936-7.151-15.936-15.936z"/><path d="m225.015 322.148 30.985-20.223 30.985 20.223c5.266 3.438 12.325-.311 12.325-6.668v-119.006c0-4.404-3.564-7.968-7.968-7.968h-70.684c-4.404 0-7.968 3.564-7.968 7.968v119.005c0 6.326 7.017 10.112 12.325 6.669zm3.611-117.706h54.748v96.323l-23.017-15.025c-2.645-1.727-6.053-1.738-8.715 0l-23.017 15.025v-96.323z"/></g></g></g></svg>