<svg enable-background="new 0 0 512 512" height="512" viewBox="0 0 512 512" width="512" xmlns="http://www.w3.org/2000/svg" xmlns:xlink="http://www.w3.org/1999/xlink"><linearGradient id="lg1"><stop offset="0" stop-color="#e2dec3"/><stop offset=".9944" stop-color="#fff"/></linearGradient><linearGradient id="SVGID_1_" gradientUnits="userSpaceOnUse" x1="255.999" x2="255.999" xlink:href="#lg1" y1="484.901" y2="433.285"/><linearGradient id="SVGID_2_" gradientUnits="userSpaceOnUse" x1="255.999" x2="255.999" y1="433.285" y2="128.533"><stop offset="0" stop-color="#fe652b"/><stop offset="1" stop-color="#ffff49"/></linearGradient><linearGradient id="SVGID_3_" gradientUnits="userSpaceOnUse" x1="256" x2="256" y1="393.442" y2="168.371"><stop offset="0" stop-color="#1004cd"/><stop offset="1" stop-color="#0cdff8"/></linearGradient><linearGradient id="SVGID_4_" gradientUnits="userSpaceOnUse" x1="256" x2="256" xlink:href="#lg1" y1="338.245" y2="27.097"/><g id="_x30_1_E-learning"><g><path d="m503.005 433.285c0 28.506-23.109 51.616-51.615 51.616h-390.781c-28.506 0-51.615-23.109-51.615-51.615h494.011z" fill="url(#SVGID_1_)"/><path d="m465.912 433.285v-264.912c0-22.003-17.837-39.84-39.84-39.84h-340.146c-22.003 0-39.84 17.837-39.84 39.84v264.912z" fill="url(#SVGID_2_)"/><path d="m85.926 168.371h340.147v225.071h-340.147z" fill="url(#SVGID_3_)"/><path d="m365.24 58.969v247.404c0 17.602-14.269 31.872-31.872 31.872h-154.737c-17.602 0-31.872-14.269-31.872-31.872v-247.404c0-17.602 14.269-31.872 31.872-31.872h154.738c17.602 0 31.871 14.27 31.871 31.872z" fill="url(#SVGID_4_)"/><g fill="#1e2e49"><path d="m60.607 492.867h390.787c32.852 0 59.581-26.728 59.581-59.581 0-4.404-3.564-7.968-7.968-7.968h-29.117v-256.934c0-26.363-21.445-47.808-47.808-47.808h-52.873v-61.603c0-21.966-17.873-39.84-39.84-39.84h-154.737c-21.966 0-39.84 17.873-39.84 39.84v61.604h-52.865c-26.363 0-47.808 21.445-47.808 47.808v256.935h-29.125c-4.404 0-7.968 3.564-7.968 7.968 0 32.851 26.729 59.579 59.581 59.579zm118.025-146.652h154.737c21.966 0 39.84-17.873 39.84-39.84v-130.023h44.905v209.158h-324.219v-209.158h44.897v130.024c0 21.966 17.873 39.839 39.84 39.839zm-23.904-287.242c0-13.181 10.722-23.904 23.904-23.904h154.737c13.181 0 23.904 10.722 23.904 23.904v247.403c0 13.181-10.722 23.904-23.904 23.904h-154.737c-13.181 0-23.904-10.722-23.904-23.904zm-100.673 109.411c0-17.578 14.294-31.872 31.872-31.872h52.865v23.904h-52.865c-4.404 0-7.968 3.564-7.968 7.968v225.094c0 4.404 3.564 7.968 7.968 7.968h340.154c4.404 0 7.968-3.564 7.968-7.968v-225.094c0-4.404-3.564-7.968-7.968-7.968h-52.873v-23.904h52.873c17.578 0 31.872 14.294 31.872 31.872v256.935h-403.898zm440.252 272.87c-3.751 20.278-21.569 35.677-42.913 35.677h-390.787c-21.344 0-39.163-15.399-42.913-35.677 218.292.016 440.274.045 476.613 0z"/><path d="m229.163 91.599h89.289c4.404 0 7.968-3.564 7.968-7.968s-3.564-7.968-7.968-7.968h-89.289c-4.404 0-7.968 3.564-7.968 7.968s3.564 7.968 7.968 7.968z"/><path d="m193.548 91.599h3.19c4.404 0 7.968-3.564 7.968-7.968s-3.564-7.968-7.968-7.968h-3.19c-4.404 0-7.968 3.564-7.968 7.968s3.564 7.968 7.968 7.968z"/><path d="m229.163 157.622h89.289c4.404 0 7.968-3.564 7.968-7.968s-3.564-7.968-7.968-7.968h-89.289c-4.404 0-7.968 3.564-7.968 7.968 0 4.405 3.564 7.968 7.968 7.968z"/><path d="m193.548 157.622h3.19c4.404 0 7.968-3.564 7.968-7.968s-3.564-7.968-7.968-7.968h-3.19c-4.404 0-7.968 3.564-7.968 7.968 0 4.405 3.564 7.968 7.968 7.968z"/><path d="m229.163 223.654h89.289c4.404 0 7.968-3.564 7.968-7.968s-3.564-7.968-7.968-7.968h-89.289c-4.404 0-7.968 3.564-7.968 7.968s3.564 7.968 7.968 7.968z"/><path d="m193.548 223.654h3.19c4.404 0 7.968-3.564 7.968-7.968s-3.564-7.968-7.968-7.968h-3.19c-4.404 0-7.968 3.564-7.968 7.968s3.564 7.968 7.968 7.968z"/><path d="m229.163 289.677h89.289c4.404 0 7.968-3.564 7.968-7.968s-3.564-7.968-7.968-7.968h-89.289c-4.404 0-7.968 3.564-7.968 7.968s3.564 7.968 7.968 7.968z"/><path d="m193.548 289.677h3.19c4.404 0 7.968-3.564 7.968-7.968s-3.564-7.968-7.968-7.968h-3.19c-4.404 0-7.968 3.564-7.968 7.968s3.564 7.968 7.968 7.968z"/></g></g></g></svg>