<svg enable-background="new 0 0 512 512" height="512" viewBox="0 0 512 512" width="512" xmlns="http://www.w3.org/2000/svg" xmlns:xlink="http://www.w3.org/1999/xlink"><linearGradient id="SVGID_1_" gradientUnits="userSpaceOnUse" x1="255.999" x2="255.999" y1="502.985" y2="296.375"><stop offset="0" stop-color="#f80314"/><stop offset="1" stop-color="#fed59c"/></linearGradient><linearGradient id="SVGID_2_" gradientUnits="userSpaceOnUse" x1="255.999" x2="255.999" y1="340.036" y2="8.974"><stop offset="0" stop-color="#fe652b"/><stop offset="1" stop-color="#ffff49"/></linearGradient><linearGradient id="SVGID_3_" gradientUnits="userSpaceOnUse" x1="255.985" x2="255.985" y1="257.323" y2="87.159"><stop offset="0" stop-color="#e2dec3"/><stop offset=".9944" stop-color="#fff"/></linearGradient><g id="_x33_0_Medal"><g><path d="m317.365 296.375h-122.731v206.61l61.365-40.052 61.366 40.052z" fill="url(#SVGID_1_)"/><path d="m421.53 174.562c0 91.398-74.076 165.474-165.474 165.474s-165.588-74.076-165.588-165.474 74.19-165.588 165.588-165.588 165.474 74.19 165.474 165.588z" fill="url(#SVGID_2_)"/><path d="m312.514 206.708 4.956 28.858c2.606 15.173-13.319 26.746-26.946 19.583l-25.918-13.625c-5.41-2.844-11.873-2.844-17.284 0l-25.918 13.625c-13.627 7.163-29.552-4.41-26.946-19.583l4.957-28.866c1.035-6.027-.963-12.178-5.344-16.446l-20.948-20.41c-11.025-10.742-4.948-29.462 10.284-31.681l28.991-4.223c6.05-.881 11.278-4.683 13.981-10.166l12.943-26.255c6.807-13.807 26.49-13.815 33.309-.014l12.985 26.283c2.705 5.476 7.93 9.271 13.974 10.152l28.97 4.219c15.237 2.219 21.311 20.951 10.275 31.689l-20.971 20.405c-4.384 4.268-6.386 10.423-5.35 16.455z" fill="url(#SVGID_3_)"/><g fill="#1e2e49"><path d="m256.054 1.007c-95.693 0-173.552 77.859-173.552 173.552 0 70.982 42.907 132.106 104.143 158.922v169.537c0 6.296 6.981 10.125 12.325 6.668l56.989-37.225 57.083 37.233c5.283 3.439 12.318-.347 12.318-6.676v-169.51c61.231-26.802 104.136-87.944 104.136-158.95.001-95.693-77.803-173.551-173.442-173.551zm53.372 487.296-49.115-32.035c-2.646-1.727-6.062-1.72-8.707.008l-49.021 32.02v-148.757c16.855 5.47 34.817 8.462 53.472 8.462 18.619 0 36.546-2.983 53.371-8.438zm-53.372-156.238c-86.908 0-157.616-70.661-157.616-157.507 0-86.908 70.708-157.616 157.616-157.616 86.846 0 157.507 70.708 157.507 157.616 0 86.846-70.661 157.507-157.507 157.507z"/><path d="m329.711 130.276-28.969-4.217c-3.455-.506-6.435-2.677-7.983-5.797l-12.979-26.293c-9.776-19.755-37.902-19.653-47.598.023l-12.956 26.261c-1.541 3.128-4.521 5.299-7.976 5.805l-28.985 4.225c-21.757 3.159-30.457 29.917-14.706 45.263l20.947 20.41c2.506 2.443 3.649 5.953 3.058 9.4l-4.957 28.86c-3.733 21.673 19.088 38.209 38.501 27.981l25.919-13.617c3.089-1.634 6.77-1.626 9.874-.008l25.911 13.625c19.474 10.224 42.241-6.314 38.509-27.981l-4.957-28.853c-.591-3.447.552-6.964 3.058-9.4l20.97-20.402c15.767-15.343 7.09-42.122-14.681-45.285zm3.572 33.863-20.97 20.402c-6.272 6.1-9.127 14.893-7.649 23.515l4.957 28.853c1.49 8.66-7.562 15.287-15.391 11.189l-25.919-13.633c-7.734-4.046-16.971-4.054-24.69.008l-25.927 13.625c-7.786 4.102-16.877-2.512-15.383-11.189l4.957-28.86c1.478-8.614-1.377-17.399-7.633-23.499l-20.955-20.418c-6.279-6.113-2.874-16.802 5.883-18.083l28.985-4.225c8.653-1.253 16.123-6.692 19.974-14.527l12.948-26.254c3.929-7.959 15.157-7.818 19.025-.016l12.979 26.293c3.867 7.828 11.337 13.251 19.967 14.504l28.977 4.217c8.713 1.278 12.183 11.947 5.865 18.098z"/></g></g></g></svg>