<svg enable-background="new 0 0 512 512" height="512" viewBox="0 0 512 512" width="512" xmlns="http://www.w3.org/2000/svg" xmlns:xlink="http://www.w3.org/1999/xlink"><linearGradient id="SVGID_1_" gradientUnits="userSpaceOnUse" x1="255.996" x2="255.996" y1="294.47" y2="55.081"><stop offset="0" stop-color="#fe652b"/><stop offset="1" stop-color="#ffff49"/></linearGradient><linearGradient id="SVGID_2_" gradientUnits="userSpaceOnUse" x1="255.996" x2="255.996" y1="503.005" y2="396.352"><stop offset="0" stop-color="#f80314"/><stop offset="1" stop-color="#fed59c"/></linearGradient><linearGradient id="SVGID_3_" gradientUnits="userSpaceOnUse" x1="255.996" x2="255.996" y1="55.102" y2="8.993"><stop offset="0" stop-color="#e2dec3"/><stop offset=".9944" stop-color="#fff"/></linearGradient><g id="_x32_0_Award"><g><path d="m406.739 55.081-58.463 173.149c-13.367 39.588-50.496 66.24-92.28 66.24-41.784 0-78.913-26.652-92.28-66.24l-58.464-173.149z" fill="url(#SVGID_1_)"/><path d="m341.86 434.091v68.914h-171.729v-68.914c0-20.843 16.896-37.739 37.739-37.739h96.251c20.843 0 37.739 16.896 37.739 37.739z" fill="url(#SVGID_2_)"/><path d="m448.992 32.047c0 12.733-10.322 23.054-23.054 23.054h-339.885c-12.733 0-23.054-10.322-23.054-23.054 0-12.733 10.322-23.054 23.054-23.054h339.884c12.733 0 23.055 10.322 23.055 23.054z" fill="url(#SVGID_3_)"/><path d="m338.517 262.49h43.892c56.499 0 102.47-46.002 102.47-102.548v-36.735c0-19.943-16.232-36.175-36.175-36.175h-44.343l8.09-23.958h13.485c17.103 0 31.024-13.921 31.024-31.024s-13.92-31.024-31.023-31.024h-339.882c-17.103 0-31.024 13.921-31.024 31.024s13.921 31.024 31.024 31.024h13.485l8.09 23.958h-44.335c-19.943 0-36.175 16.232-36.175 36.175v36.735c0 56.546 45.971 102.548 102.47 102.548h43.882c17.992 22.706 44.836 37.395 74.555 39.632v86.259h-40.159c-25.203 0-45.707 20.503-45.707 45.707v60.95h-16.862c-4.404 0-7.968 3.564-7.968 7.968s3.564 7.968 7.968 7.968h221.39c4.404 0 7.968-3.564 7.968-7.968s-3.564-7.968-7.968-7.968h-16.862v-60.95c0-25.203-20.503-45.707-45.707-45.707h-40.159v-86.259c29.718-2.238 56.563-16.928 74.556-39.632zm-4.623 171.598v60.95h-155.795v-60.95c0-16.418 13.353-29.771 29.771-29.771h96.253c16.418 0 29.771 13.353 29.771 29.771zm114.811-331.121c11.158 0 20.239 9.081 20.239 20.239v36.735c0 47.761-38.82 86.612-86.535 86.612h-33.401c2.66-5.008 4.955-10.27 6.813-15.772l43.16-127.814zm-377.738-70.917c0-8.318 6.77-15.088 15.088-15.088h339.882c8.318 0 15.088 6.77 15.088 15.088s-6.77 15.088-15.088 15.088c-72.417-.029 101.809-.032-339.882 0-8.318-.001-15.088-6.77-15.088-15.088zm58.624 214.504c-47.714 0-86.535-38.851-86.535-86.612v-36.735c0-11.158 9.081-20.239 20.239-20.239h49.717l43.159 127.806c1.858 5.506 4.153 10.77 6.813 15.78zm41.676-20.877-54.904-162.604h279.267l-54.904 162.603c-12.286 36.385-46.337 60.826-84.729 60.826-38.401 0-72.451-24.44-84.73-60.825z" fill="#1e2e49"/></g></g></svg>