<svg xmlns="http://www.w3.org/2000/svg" viewBox="0 0 110.53 110.53"><defs><style>.cls-1{fill:#ececec;}.cls-2{fill:#fff;}.cls-3{fill:#1e120d;}.cls-4{fill:none;stroke:#1e120d;stroke-miterlimit:10;stroke-width:0.98px;}.cls-5{fill:#ffc2b0;}</style></defs><g id="Layer_2" data-name="Layer 2"><g id="OBJECTS"><circle class="cls-1" cx="55.27" cy="55.27" r="55.27"/><path class="cls-2" d="M84.21,61.28c0,2.42-2.95,5.85-6.33,4.86-2.33-.67-5.3-2.44-5.3-4.86s3.39-4.86,5.81-4.86C82.3,56.42,84.21,58.85,84.21,61.28Z"/><path class="cls-2" d="M26.33,61.28c0,2.42,2.94,5.85,6.32,4.86C35,65.47,38,63.7,38,61.28s-3.4-4.86-5.82-4.86C28.23,56.42,26.33,58.85,26.33,61.28Z"/><path class="cls-2" d="M78.38,55c.43,16.91-7.58,33.08-21.49,33.44s-24-14.09-24.38-31S41.42,27.5,55.33,27.15,77.94,38.05,78.38,55Z"/><path class="cls-3" d="M79.35,63.44c.26-.89.63-1.62.79-2.31a1.57,1.57,0,0,0,0-.91,3.18,3.18,0,0,0-.72-.92,1.58,1.58,0,0,1,1.36.5,1.75,1.75,0,0,1,.31,1.56,3,3,0,0,1-.66,1.25A3.08,3.08,0,0,1,79.35,63.44Z"/><path class="cls-3" d="M31.54,63.44a2.91,2.91,0,0,1-1.09-.83,3,3,0,0,1-.67-1.25,1.78,1.78,0,0,1,.31-1.56,1.61,1.61,0,0,1,1.37-.5,2.86,2.86,0,0,0-.72.92,1.57,1.57,0,0,0,0,.91C30.9,61.82,31.28,62.55,31.54,63.44Z"/><polyline class="cls-4" points="56.6 53.07 59.41 59.35 56.6 62.49"/><path class="cls-3" d="M46.31,55.17A1,1,0,1,1,45.38,54,1.09,1.09,0,0,1,46.31,55.17Z"/><path class="cls-3" d="M67,55.17A1,1,0,1,1,66.05,54,1.09,1.09,0,0,1,67,55.17Z"/><path class="cls-4" d="M53.28,69.39a4.19,4.19,0,0,0,4.15,3.25,3.75,3.75,0,0,0,4-3.25"/><circle class="cls-5" cx="41.77" cy="63.89" r="4.54"/><path class="cls-5" d="M74.19,63.89a4.54,4.54,0,1,1-4.54-4.54A4.53,4.53,0,0,1,74.19,63.89Z"/><path class="cls-3" d="M32.14,56.42s6.7-2.28,4.26-15.78c0,0,8.32,7.43,20.77,1.43,6.71-3.24,15.34-4.88,17.7-1.92,2.5,3.16,3.52,16.27,3.52,16.27a73.66,73.66,0,0,0,3.77-14.31c.89-6.19.37-16.53-8.65-13.8,0,0,.12-11.18-14.76-9.35-13,1.59-27.14,9.83-29.94,16.88C27.2,39.89,32.14,56.42,32.14,56.42Z"/></g></g></svg>