<svg xmlns="http://www.w3.org/2000/svg" viewBox="0 0 110.53 110.54"><defs><style>.cls-1{fill:#ececec;}.cls-2{fill:#fff;}.cls-3{fill:#1e120d;}.cls-4{fill:none;stroke:#1e120d;stroke-miterlimit:10;stroke-width:0.98px;}.cls-5{fill:#ffc2b0;}</style></defs><g id="Layer_2" data-name="Layer 2"><g id="OBJECTS"><circle class="cls-1" cx="55.27" cy="55.27" r="55.27" transform="translate(-16.53 24.38) rotate(-21.72)"/><path class="cls-2" d="M84.21,62.57c0,2.42-2.95,5.85-6.33,4.86-2.33-.67-5.3-2.44-5.3-4.86s3.39-4.86,5.81-4.86C82.3,57.71,84.21,60.14,84.21,62.57Z"/><path class="cls-2" d="M26.33,62.57c0,2.42,2.94,5.85,6.32,4.86C35,66.76,38,65,38,62.57s-3.4-4.86-5.82-4.86C28.23,57.71,26.33,60.14,26.33,62.57Z"/><path class="cls-2" d="M78.38,56.26c.43,16.91-7.58,33.08-21.49,33.44s-24-14.09-24.38-31,8.91-29.91,22.82-30.26S77.94,39.34,78.38,56.26Z"/><path class="cls-3" d="M79.35,64.73c.26-.89.63-1.62.79-2.31a1.57,1.57,0,0,0,0-.91,3.18,3.18,0,0,0-.72-.92,1.55,1.55,0,0,1,1.36.5,1.75,1.75,0,0,1,.31,1.56,3,3,0,0,1-.66,1.25A3.08,3.08,0,0,1,79.35,64.73Z"/><path class="cls-3" d="M31.54,64.73a2.91,2.91,0,0,1-1.09-.83,3,3,0,0,1-.67-1.25,1.78,1.78,0,0,1,.31-1.56,1.58,1.58,0,0,1,1.37-.5,2.86,2.86,0,0,0-.72.92,1.65,1.65,0,0,0,0,.91C30.9,63.11,31.28,63.84,31.54,64.73Z"/><polyline class="cls-4" points="58.16 54.36 58.16 60.64 55.44 60.64"/><path class="cls-3" d="M46.31,56.46a1,1,0,1,1-.93-1.19A1.09,1.09,0,0,1,46.31,56.46Z"/><path class="cls-3" d="M67,56.46a1,1,0,1,1-.94-1.19A1.09,1.09,0,0,1,67,56.46Z"/><path class="cls-4" d="M53.28,70.68a4.19,4.19,0,0,0,4.15,3.25,3.75,3.75,0,0,0,4-3.25"/><circle class="cls-5" cx="41.77" cy="65.18" r="4.54"/><path class="cls-5" d="M74.19,65.18a4.54,4.54,0,1,1-4.54-4.54A4.53,4.53,0,0,1,74.19,65.18Z"/><path class="cls-3" d="M81.6,41a37,37,0,0,0-9.29-16.08c-5.46-5.54-12.8-9.55-21.52-6.07-6.19,2.48-4.75,7-4.75,7s-6.45.49-7.81,6.71c-3.7,1.32-6.9,5.78-8,9.38-1.79,5.7-1.34,10.92,2.29,15.76,0,0,.41-9.8,3.55-16.21a29.06,29.06,0,0,1,2.23-3.59c.08.43.14.85.26,1.32,2.57,10.42,20.26-.64,26.89-3.6,3.13-1.39,8,1.31,10.07,6.32,2.33,5.59,2.79,15.82,2.79,15.82A19.24,19.24,0,0,0,81.6,41Z"/></g></g></svg>