<?xml version="1.0" encoding="UTF-8"?>
<svg id="Layer_2" data-name="Layer 2" xmlns="http://www.w3.org/2000/svg" xmlns:xlink="http://www.w3.org/1999/xlink" viewBox="0 0 295.0415 50.5801">
  <defs>
    <style>
      .cls-1 {
        fill: #00a5e1;
      }

      .cls-2 {
        fill: #0090d3;
      }

      .cls-3 {
        fill: #20c4f4;
      }

      .cls-4 {
        fill: #0087cd;
      }

      .cls-5 {
        fill: #00b6eb;
      }

      .cls-6 {
        fill: #65cdf6;
      }

      .cls-7 {
        fill: #00a7e2;
      }

      .cls-8 {
        fill: #caebfc;
      }

      .cls-9 {
        fill: #0085cc;
      }

      .cls-10 {
        fill: #ebf7fe;
      }

      .cls-11 {
        fill: #b9e5fa;
      }

      .cls-12 {
        fill: #d5effc;
      }

      .cls-13 {
        fill: #32c5f4;
      }

      .cls-14 {
        fill: #94daf8;
      }

      .cls-15 {
        fill: #f7fcfe;
      }

      .cls-16 {
        fill: #fff;
      }

      .cls-17 {
        fill: #009bda;
      }

      .cls-18 {
        fill: #12bdf0;
      }

      .cls-19 {
        fill: #00b0e7;
      }

      .cls-20 {
        fill: #ade1fa;
      }

      .cls-21 {
        fill: none;
      }

      .cls-22 {
        fill: #00b2e9;
      }

      .cls-23 {
        fill: #5dccf5;
      }

      .cls-24 {
        fill: #009ddc;
      }

      .cls-25 {
        fill: #54caf5;
      }

      .cls-26 {
        fill: #f1fafe;
      }

      .cls-27 {
        clip-path: url(#clippath-1);
      }

      .cls-28 {
        fill: #e6f5fd;
      }

      .cls-29 {
        fill: #009fdd;
      }

      .cls-30 {
        fill: #00a1de;
      }

      .cls-31 {
        fill: #8ed8f8;
      }

      .cls-32 {
        fill: #0083ca;
      }

      .cls-33 {
        fill: #a1ddf9;
      }

      .cls-34 {
        fill: #1bc0f1;
      }

      .cls-35 {
        fill: #0088ce;
      }

      .cls-36 {
        fill: #e0f3fd;
      }

      .cls-37 {
        fill: #a7dff9;
      }

      .cls-38 {
        fill: #7ad2f7;
      }

      .cls-39 {
        fill: #cfedfc;
      }

      .cls-40 {
        fill: #00b9ed;
      }

      .cls-41 {
        fill: #00abe5;
      }

      .cls-42 {
        fill: #0067ac;
      }

      .cls-43 {
        fill: #bee7fb;
      }

      .cls-44 {
        fill: #81d4f7;
      }

      .cls-45 {
        fill: #0095d7;
      }

      .cls-46 {
        fill: #0099d9;
      }

      .cls-47 {
        fill: #00ade6;
      }

      .cls-48 {
        fill: #40c7f4;
      }

      .cls-49 {
        fill: #6ccff6;
      }

      .cls-50 {
        fill: #c4e9fb;
      }

      .cls-51 {
        fill: #0097d8;
      }

      .cls-52 {
        fill: #0091d4;
      }

      .cls-53 {
        fill: #9bdcf9;
      }

      .cls-54 {
        fill: #00a9e3;
      }

      .cls-55 {
        fill: #008ed2;
      }

      .cls-56 {
        fill: #88d6f8;
      }

      .cls-57 {
        fill: #008acf;
      }

      .cls-58 {
        fill: #b3e3fa;
      }

      .cls-59 {
        fill: #03bbee;
      }

      .cls-60 {
        fill: #4ac9f5;
      }

      .cls-61 {
        fill: #00a3df;
      }

      .cls-62 {
        fill: #0093d5;
      }

      .cls-63 {
        fill: #00b4ea;
      }

      .cls-64 {
        fill: #dbf1fd;
      }

      .cls-65 {
        fill: #73d1f6;
      }

      .cls-66 {
        fill: #008cd0;
      }
    </style>
    <clipPath id="clippath-1">
      <path class="cls-21" d="M25.315379808,49.3897c13.2919996642,0,24.0732993919-10.7852,24.0732993919-24.086,0-13.3061-10.7812997276-24.0839-24.0776791999-24.0839C12.0023801444,1.2198,1.2216804167,11.9976,1.2216804167,25.3037c0,13.3062,10.7806997277,24.086,24.0936993913,24.086Z"/>
    </clipPath>
  </defs>
  <g id="Layer_1-2" data-name="Layer 1">
    <g>
      <g>
        <path class="cls-16" d="M50.5771791699,25.2881c0,13.9693-11.3295997138,25.292-25.2763993615,25.292C11.3222801615,50.5801,0,39.2574,0,25.2881,0,11.334,11.3222801615,0,25.3007798084,0c13.9467996477,0,25.2763993615,11.334,25.2763993615,25.2881Z"/>
        <path class="cls-32" d="M25.315379808,49.3897c13.2919996642,0,24.0732993919-10.7852,24.0732993919-24.0938,0-13.3081-10.7812997276-24.0932-24.0776791999-24.0932C12.0023801444,1.2027,1.2216804167,11.9878,1.2216804167,25.2959c0,13.314,10.7806997277,24.0938,24.0936993913,24.0938Z"/>
        <g class="cls-27">
          <g>
            <path class="cls-32" d="M25.5292798026,36.918c10.5980997323,0,19.6587201974,2.959,23.5634994047,7.1445,1.2860999675-2.979,2.0043999494-6.291,2.0043999494-9.7431,0-13.8335-11.4565997106-25.0191-25.5678993541-25.0191C11.4306801588,9.3003-.0308195517,20.4937-.0308195517,34.3296c0,3.4492.7241999817,6.7495,2.0126999492,9.7329,3.8911999017-4.1855,12.9672996724-7.1445,23.5473994051-7.1445Z"/>
            <path class="cls-9" d="M25.5259088351,36.9449483863c10.5708223144,0,19.6087743713,2.934761291,23.5027929565,7.0867419372,1.283693516-2.9548838717,1.9999902722-6.2403451628,1.9999902722-9.665038712,0-13.7219838743-11.4271255187-24.8526096824-25.5027832287-24.8526096824C11.4637253183,9.5140419291.0312256062,20.6522161243.0312256062,34.3763645147c0,3.4220451621.7223064334,6.6963419371,2.0080354333,9.6553258088,3.8811031281-4.1519806462,12.9340190291-7.0867419372,23.4866477956-7.0867419372Z"/>
            <path class="cls-4" d="M25.5225378674,36.9718967734c10.5435448957,0,19.5588285436,2.9105225813,23.4420865063,7.0289838726,1.2812870645-2.9307677426,1.9955805949-6.189690324,1.9955805949-9.5869774215,0-13.610467745-11.3976513258-24.6861193595-25.4376671011-24.6861193595C11.4967704788,9.727783865.0932707661,20.8107322537.0932707661,34.423129031c0,3.3948903233.7204128851,6.6431838724,2.0033709173,9.5777516151,3.8710063541-4.1184612913,12.9007383847-7.0289838726,23.4258961841-7.0289838726Z"/>
            <path class="cls-35" d="M25.5191668998,36.9988451606c10.516267477,0,19.5088827159,2.8862838716,23.3813800561,6.9712258079,1.2788806129-2.9066516135,1.9911709176-6.1390354852,1.9911709176-9.508916131,0-13.4989516158-11.3681771329-24.5196290365-25.3725509736-24.5196290365C11.5298156393,9.941525801.1553159259,20.969248383.1553159259,34.4698935472c0,3.3677354846.7185193367,6.5900258078,1.9987064012,9.5001774213,3.8609095801-4.0849419363,12.8674577403-6.9712258079,23.3651445726-6.9712258079Z"/>
            <path class="cls-57" d="M25.5157959321,37.0257935477c10.4889900583,0,19.4589368882,2.8620451619,23.3206736059,6.9134677433,1.2764741614-2.8825354844,1.9867612402-6.0883806464,1.9867612402-9.4308548406,0-13.3874354865-11.3387029401-24.3531387136-25.3074348461-24.3531387136C11.5628607998,10.1552677369.2173610858,21.1277645124.2173610858,34.5166580634c0,3.3405806458.7166257884,6.5368677432,1.9940418852,9.4226032276,3.8508128062-4.0514225814,12.8341770959-6.9134677433,23.3043929611-6.9134677433Z"/>
            <path class="cls-66" d="M25.5124249644,37.0527419349c10.4617126395,0,19.4089910606,2.8378064521,23.2599671556,6.8557096787,1.2740677098-2.8584193554,1.9823515629-6.0377258075,1.9823515629-9.3527935501,0-13.2759193572-11.3092287472-24.1866483907-25.2423187186-24.1866483907C11.5959059604,10.3690096728.2794062456,21.2862806417.2794062456,34.5634225796c0,3.313425807.7147322401,6.4837096786,1.9893773692,9.3450290339,3.8407160322-4.0179032265,12.8008964515-6.8557096787,23.2436413496-6.8557096787Z"/>
            <path class="cls-55" d="M25.5090539968,37.0796903221c10.4344352208,0,19.3590452329,2.8135677424,23.1992607054,6.797951614,1.2716612582-2.8343032263,1.9779418856-5.9870709687,1.9779418856-9.2747322596,0-13.164403228-11.2797545543-24.0201580678-25.177202591-24.0201580678C11.6289511209,10.5827516087.3414514055,21.4447967711.3414514055,34.6101870959c0,3.2862709683.7128386917,6.4305516139,1.9847128532,9.2674548402,3.8306192583-3.9843838716,12.7676158071-6.797951614,23.1828897381-6.797951614Z"/>
            <path class="cls-2" d="M25.5056830291,37.1066387092c10.4071578021,0,19.3090994052,2.7893290327,23.1385542552,6.7401935494,1.2692548067-2.8101870972,1.9735322083-5.9364161299,1.9735322083-9.1966709691,0-13.0528870987-11.2502803615-23.8536677448-25.1120864635-23.8536677448C11.6619962814,10.7964935447.4034965653,21.6033129005.4034965653,34.6569516121c0,3.2591161295.7109451434,6.3773935493,1.9800483372,9.1898806465,3.8205224843-3.9508645167,12.7343351628-6.7401935494,23.1221381266-6.7401935494Z"/>
            <path class="cls-52" d="M25.5023120614,37.1335870964c10.3798803834,0,19.2591535775,2.765090323,23.077847805,6.6824354848,1.2668483551-2.7860709681,1.969122531-5.8857612911,1.969122531-9.1186096786,0-12.9413709695-11.2208061686-23.6871774219-25.046970336-23.6871774219C11.6950414419,11.0102354806.4655417252,21.7618290298.4655417252,34.7037161283c0,3.2319612907.709051595,6.3242354847,1.9753838211,9.1123064528,3.8104257103-3.9173451618,12.7010545184-6.6824354848,23.0613865151-6.6824354848Z"/>
            <path class="cls-62" d="M25.4989410938,37.1605354835c10.3526029646,0,19.2092077498,2.7408516132,23.0171413548,6.6246774201,1.2644419036-2.761954839,1.9647128537-5.8351064523,1.9647128537-9.0405483881,0-12.8298548402-11.1913319757-23.520687099-24.9818542085-23.520687099C11.7280866025,11.2239774165.527586885,21.9203451592.527586885,34.7504806445c0,3.204806452.7071580467,6.2710774201,1.9707193051,9.0347322591,3.8003289364-3.8838258069,12.667773874-6.6246774201,23.0006349036-6.6246774201Z"/>
            <path class="cls-45" d="M25.4955701261,37.1874838707c10.3253255459,0,19.1592619222,2.7166129035,22.9564349046,6.5669193555,1.262035452-2.7378387099,1.9603031763-5.7844516135,1.9603031763-8.9624870977,0-12.7183387109-11.1618577829-23.3541967761-24.916738081-23.3541967761C11.761131763,11.4377193524.5896320449,22.0788612885.5896320449,34.7972451608c0,3.1776516132.7052644983,6.2179193554,1.9660547891,8.9571580654,3.7902321624-3.850306452,12.6344932296-6.5669193555,22.9398832921-6.5669193555Z"/>
            <path class="cls-51" d="M25.4921991585,37.2144322578c10.2980481272,0,19.1093160945,2.6923741938,22.8957284544,6.5091612909,1.2596290005-2.7137225809,1.955893499-5.7337967747,1.955893499-8.8844258072,0-12.6068225817-11.13238359-23.1877064532-24.8516219534-23.1877064532C11.7941769235,11.6514612883.6516772047,22.2373774179.6516772047,34.844009677c0,3.1504967744.70337095,6.1647612908,1.9613902731,8.8795838717,3.7801353885-3.8167870971,12.6012125852-6.5091612909,22.8791316807-6.5091612909Z"/>
            <path class="cls-46" d="M25.4888281908,37.241380645c10.2707707085,0,19.0593702668,2.668135484,22.8350220042,6.4514032262,1.2572225489-2.6896064518,1.9514838217-5.6831419358,1.9514838217-8.8063645167,0-12.4953064524-11.1029093971-23.0212161302-24.7865058259-23.0212161302C11.827222084,11.8652032243.7137223646,22.3958935472.7137223646,34.8907741932c0,3.1233419357.7014774016,6.1116032262,1.9567257571,8.802009678,3.7700386145-3.7832677422,12.5679319408-6.4514032262,22.8183800692-6.4514032262Z"/>
            <path class="cls-17" d="M25.4854572231,37.2683290321c10.2434932898,0,19.0094244391,2.6438967743,22.774315554,6.3936451616,1.2548160973-2.6654903227,1.9470741444-5.632487097,1.9470741444-8.7283032262,0-12.3837903232-11.0734352043-22.8547258073-24.7213896984-22.8547258073C11.8602672446,12.0789451602.7757675244,22.5544096766.7757675244,34.9375387094c0,3.0961870969.6995838533,6.0584451616,1.952061241,8.7244354843,3.7599418406-3.7497483873,12.5346512964-6.3936451616,22.7576284577-6.3936451616Z"/>
            <path class="cls-24" d="M25.4820862555,37.2952774193c10.216215871,0,18.9594786114,2.6196580646,22.7136091038,6.335887097,1.2524096458-2.6413741936,1.9426644671-5.5818322582,1.9426644671-8.6502419357,0-12.2722741939-11.0439610114-22.6882354844-24.6562735709-22.6882354844C11.8933124051,12.2926870961.8378126843,22.712925806.8378126843,34.9843032257c0,3.0690322581.697690305,6.0052870969,1.947396725,8.6468612906,3.7498450666-3.7162290324,12.501370652-6.335887097,22.6968768462-6.335887097Z"/>
            <path class="cls-29" d="M25.4787152878,37.3222258064c10.1889384523,0,18.9095327838,2.5954193549,22.6529026536,6.2781290323,1.2500031942-2.6172580645,1.9382547897-5.5311774194,1.9382547897-8.5721806452,0-12.1607580646-11.0144868186-22.5217451615-24.5911574434-22.5217451615C11.9263575656,12.506429032.8998578441,22.8714419353.8998578441,35.0310677419c0,3.0418774194.6957967566,5.9521290323,1.942732209,8.5692870969,3.7397482926-3.6827096775,12.4680900076-6.2781290323,22.6361252347-6.2781290323Z"/>
            <path class="cls-30" d="M25.4753443201,37.3491741936c10.1616610336,0,18.8595869561,2.5711806451,22.5921962034,6.2203709677,1.2475967427-2.5931419355,1.9338451124-5.4805225806,1.9338451124-8.4941193548,0-12.0492419354-10.9850126257-22.3552548385-24.5260413158-22.3552548385C11.9594027261,12.720170968.961903004,23.0299580647.961903004,35.0778322581c0,3.0147225806.6939032083,5.8989709677,1.938067693,8.4917129031,3.7296515187-3.6491903225,12.4348093633-6.2203709677,22.5753736232-6.2203709677Z"/>
            <path class="cls-61" d="M25.4719733525,37.3761225807c10.1343836149,0,18.8096411284,2.5469419354,22.5314897532,6.162612903,1.2451902911-2.5690258064,1.9294354351-5.4298677418,1.9294354351-8.4160580643,0-11.9377258061-10.9555384328-22.1887645156-24.4609251883-22.1887645156C11.9924478867,12.9339129039,1.0239481638,23.188474194,1.0239481638,35.1245967743c0,2.9875677419.6920096599,5.8458129031,1.933403177,8.4141387094,3.7195547447-3.6156709676,12.4015287189-6.162612903,22.5146220117-6.162612903Z"/>
            <path class="cls-1" d="M25.4686023848,37.4030709679c10.1071061961,0,18.7596953007,2.5227032257,22.470783303,6.1048548384,1.2427838396-2.5449096773,1.9250257578-5.379212903,1.9250257578-8.3379967738,0-11.8262096768-10.92606424-22.0222741927-24.3958090608-22.0222741927C12.0254930472,13.1476548398,1.0859933237,23.3469903234,1.0859933237,35.1713612906c0,2.9604129031.6901161116,5.7926548384,1.9287386609,8.3365645157,3.7094579708-3.5821516127,12.3682480745-6.1048548384,22.4538704002-6.1048548384Z"/>
            <path class="cls-7" d="M25.4652314171,37.430019355c10.0798287774,0,18.709749473,2.498464516,22.4100768528,6.0470967738,1.240377388-2.5207935482,1.9206160805-5.3285580642,1.9206160805-8.2599354833,0-11.7146935476-10.8965900471-21.8557838698-24.3306929333-21.8557838698C12.0585382077,13.3613967757,1.1480384835,23.5055064528,1.1480384835,35.2181258068c0,2.9332580643.6882225632,5.7394967738,1.9240741449,8.258990322,3.6993611968-3.5486322578,12.3349674301-6.0470967738,22.3931187887-6.0470967738Z"/>
            <path class="cls-54" d="M25.4618604495,37.4569677422c10.0525513587,0,18.6598036454,2.4742258062,22.3493704026,5.9893387091,1.2379709364-2.4966774191,1.9162064032-5.2779032253,1.9162064032-8.1818741928,0-11.6031774183-10.8671158542-21.6892935468-24.2655768058-21.6892935468C12.0915833682,13.5751387117,1.2100836434,23.6640225821,1.2100836434,35.264890323c0,2.9061032256.6863290149,5.6863387092,1.9194096289,8.1814161283,3.6892644228-3.5151129029,12.3016867857-5.9893387091,22.3323671772-5.9893387091Z"/>
            <path class="cls-41" d="M25.4584894818,37.4839161293c10.02527394,0,18.6098578177,2.4499870965,22.2886639524,5.9315806445,1.2355644849-2.47256129,1.9117967258-5.2272483865,1.9117967258-8.1038129023,0-11.4916612891-10.8376416614-21.5228032239-24.2004606782-21.5228032239C12.1246285287,13.7888806476,1.2721288032,23.8225387115,1.2721288032,35.3116548392c0,2.8789483868.6844354666,5.6331806446,1.9147451129,8.1038419346,3.6791676489-3.481593548,12.2684061413-5.9315806445,22.2716155657-5.9315806445Z"/>
            <path class="cls-47" d="M25.4551185142,37.5108645165c9.9979965213,0,18.55991199,2.4257483868,22.2279575022,5.8738225799,1.2331580333-2.448445161,1.9073870485-5.1765935477,1.9073870485-8.0257516119,0-11.3801451598-10.8081674685-21.356312901-24.1353445507-21.356312901C12.1576736893,14.0026225835,1.3341739631,23.9810548408,1.3341739631,35.3584193555c0,2.851793548.6825419182,5.5800225799,1.9100805968,8.0262677409,3.6690708749-3.4480741931,12.2351254969-5.8738225799,22.2108639542-5.8738225799Z"/>
            <path class="cls-19" d="M25.4517475465,37.5378129036c9.9707191025,0,18.5099661623,2.401509677,22.167251052,5.8160645152,1.2307515818-2.4243290319,1.9029773712-5.1259387089,1.9029773712-7.9476903214,0-11.2686290305-10.7786932756-21.1898225781-24.0702284232-21.1898225781C12.1907188498,14.2163645194,1.3962191229,24.1395709702,1.3962191229,35.4051838717c0,2.8246387093.6806483699,5.5268645153,1.9054160808,7.9486935472,3.658974101-3.4145548382,12.2018448525-5.8160645152,22.1501123427-5.8160645152Z"/>
            <path class="cls-22" d="M25.4483765788,37.5647612908c9.9434416838,0,18.4600203347,2.3772709673,22.1065446018,5.7583064506,1.2283451302-2.4002129028,1.8985676939-5.0752838701,1.8985676939-7.8696290309,0-11.1571129013-10.7492190828-21.0233322552-24.0051122957-21.0233322552C12.2237640103,14.4301064553,1.4582642828,24.2980870995,1.4582642828,35.4519483879c0,2.7974838705.6787548215,5.4737064507,1.9007515648,7.8711193535,3.648877327-3.3810354833,12.1685642081-5.7583064506,22.0893607312-5.7583064506Z"/>
            <path class="cls-63" d="M25.4450056112,37.5917096779c9.9161642651,0,18.410074507,2.3530322576,22.0458381516,5.700548386,1.2259386787-2.3760967737,1.8941580166-5.0246290313,1.8941580166-7.7915677404,0-11.045596772-10.7197448899-20.8568419322-23.9399961681-20.8568419322C12.2568091708,14.6438483913,1.5203094426,24.4566032289,1.5203094426,35.4987129041c0,2.7703290317.6768612732,5.4205483861,1.8960870488,7.7935451598,3.638780553-3.3475161284,12.1352835638-5.700548386,22.0286091197-5.700548386Z"/>
            <path class="cls-5" d="M25.4416346435,37.6186580651c9.8888868464,0,18.3601286793,2.3287935479,21.9851317014,5.6427903213,1.2235322271-2.3519806446,1.8897483393-4.9739741925,1.8897483393-7.7135064499,0-10.9340806428-10.690270697-20.6903516093-23.8748800406-20.6903516093C12.2898543314,14.8575903272,1.5823546025,24.6151193583,1.5823546025,35.5454774204c0,2.743174193.6749677248,5.3673903214,1.8914225328,7.7159709661,3.6286837791-3.3139967735,12.1020029194-5.6427903213,21.9678575083-5.6427903213Z"/>
            <path class="cls-40" d="M25.4382636758,37.6456064522c9.8616094277,0,18.3101828516,2.3045548381,21.9244252512,5.5850322567,1.2211257755-2.3278645156,1.8853386619-4.9233193536,1.8853386619-7.6354451594,0-10.8225645135-10.6607965042-20.5238612864-23.8097639131-20.5238612864C12.3228994919,15.0713322631,1.6443997623,24.7736354876,1.6443997623,35.5922419366c0,2.7160193542.6730741765,5.3142322568,1.8867580167,7.6383967724,3.6185870051-3.2804774186,12.068722275-5.5850322567,21.9071058968-5.5850322567Z"/>
            <path class="cls-59" d="M25.4348927082,37.6725548394c9.8343320089,0,18.2602370239,2.2803161284,21.863718801,5.5272741921,1.218719324-2.3037483865,1.8809289846-4.8726645148,1.8809289846-7.557383869,0-10.7110483842-10.6313223113-20.3573709635-23.7446477856-20.3573709635C12.3559446524,15.285074199,1.7064449222,24.932151617,1.7064449222,35.6390064528c0,2.6888645154.6711806282,5.2610741922,1.8820935007,7.5608225787,3.6084902312-3.2469580637,12.0354416306-5.5272741921,21.8463542853-5.5272741921Z"/>
            <path class="cls-18" d="M25.4315217405,37.6995032266c9.8070545902,0,18.2102911963,2.2560774187,21.8030123508,5.4695161274,1.2163128724-2.2796322574,1.8765193073-4.822009676,1.8765193073-7.4793225785,0-10.599532255-10.6018481185-20.1908806405-23.6795316581-20.1908806405C12.3889898129,15.498816135,1.768490082,25.0906677463,1.768490082,35.685770969c0,2.6617096767.6692870798,5.2079161276,1.8774289847,7.4832483849,3.5983934572-3.2134387087,12.0021609862-5.4695161274,21.7856026738-5.4695161274Z"/>
            <path class="cls-34" d="M25.4281507728,37.7264516137c9.7797771715,0,18.1603453686,2.231838709,21.7423059005,5.4117580628,1.2139064209-2.2555161283,1.87210963-4.7713548372,1.87210963-7.401261288,0-10.4880161257-10.5723739256-20.0243903176-23.6144155305-20.0243903176C12.4220349735,15.7125580709,1.8305352419,25.2491838757,1.8305352419,35.7325354853c0,2.6345548379.6673935315,5.1547580629,1.8727644687,7.4056741912,3.5882966832-3.1799193538,11.9688803418-5.4117580628,21.7248510623-5.4117580628Z"/>
            <path class="cls-3" d="M25.4247798053,37.7534c9.7524997536,0,18.1103995425,2.2076,21.6815994523,5.354,1.2114999694-2.2314,1.8676999528-4.7207,1.8676999528-7.3232,0-10.3765-10.5428997337-19.8579-23.5492994051-19.8579C12.4550801329,15.9263,1.8925803998,25.4077,1.8925803998,35.7793c0,2.6074.6654999832,5.1016,1.8680999528,7.3281,3.5781999096-3.1464,11.9355996985-5.354,21.6640994527-5.354Z"/>
            <path class="cls-13" d="M25.4247798053,37.814735482c9.7392674963,0,18.0861414793,2.1934838714,21.652131712,5.3191741946,1.2092902921-2.2172258069,1.8652418884-4.6896709687,1.8652418884-7.2753161305,0-10.3094645181-10.5288997344-19.7359580682-23.5173736004-19.7359580682C12.4722478739,16.122635478,1.9244287851,25.5492096732,1.9244287851,35.8536774171c0,2.5907516134.6646193381,5.0677483881,1.8652967272,7.280374195,3.573080555-3.1258322587,11.9196448606-5.3191903236,21.635054293-5.3193161301Z"/>
            <path class="cls-48" d="M25.4247798053,37.876070966c9.7260352385,0,18.0618834154,2.1793677423,21.6226639707,5.2843483881,1.2070806147-2.2030516133,1.862783824-4.6586419363,1.862783824-7.2274322594,0-10.2424290341-10.5148997348-19.6140161324-23.4854477947-19.6140161324C12.4894156155,16.3189709623,1.9562771715,25.6907193509,1.9562771715,35.9280548366c0,2.5741032263.6637386929,5.0338967751,1.8624935014,7.2326483884,3.5679612003-3.1052645167,11.9036900223-5.2843806461,21.6060091324-5.284632259Z"/>
            <path class="cls-60" d="M25.4247798053,37.93740645c9.7128029808,0,18.0376253514,2.1652516133,21.5931962295,5.2495225815,1.2048709374-2.1888774197,1.8603257595-4.627612904,1.8603257595-7.1795483883,0-10.1753935501-10.5008997351-19.4920741967-23.453521989-19.4920741967C12.506583357,16.5153064466,1.9881255578,25.8322290286,1.9881255578,36.0024322562c0,2.5574548391.6628580478,5.0000451622,1.8596902757,7.1849225819,3.5628418456-3.0846967747,11.887735184-5.2495709686,21.5769639718-5.249948388Z"/>
            <path class="cls-25" d="M25.4247798053,37.998741934c9.699570723,0,18.0133672875,2.1511354842,21.5637284882,5.214696775,1.20266126-2.1747032261,1.8578676951-4.5965838717,1.8578676951-7.1316645173,0-10.1083580661-10.4868997354-19.3701322609-23.4215961833-19.3701322609-12.9010287068,0-23.4048058611,9.2620967755-23.4048058611,19.3651677448,0,2.540806452.6619774027,4.9661935492,1.8568870499,7.1371967753,3.5577224909-3.0641290327,11.8717803456-5.2147612911,21.5479188112-5.2152645169Z"/>
            <path class="cls-23" d="M25.4247798053,38.060077418c9.6863384653,0,17.9891092235,2.1370193551,21.534260747,5.1798709685,1.2004515826-2.1605290326,1.8554096306-4.5655548394,1.8554096306-7.0837806462,0-10.0413225821-10.4728997357-19.2481903252-23.3896703776-19.2481903252-12.8838609652,0-23.3729574748,9.2072709689-23.3729574748,19.2432096801,0,2.5241580649.6610967575,4.9323419362,1.8540838242,7.0894709688,3.5526031362-3.0435612908,11.8558255073-5.1799516137,21.5188736506-5.1805806459Z"/>
            <path class="cls-6" d="M25.4247798053,38.121412902c9.6731062075,0,17.9648511595,2.1229032261,21.5047930057,5.145045162,1.1982419053-2.146354839,1.8529515661-4.5345258071,1.8529515661-7.0358967751,0-9.9742870981-10.4588997361-19.1262483895-23.3577445718-19.1262483895-12.8666932237,0-23.3411090884,9.1524451624-23.3411090884,19.1212516153,0,2.5075096777.6602161124,4.8984903232,1.8512805984,7.0417451622,3.5474837815-3.0229935488,11.839870669-5.1451419362,21.4898284899-5.1458967749Z"/>
            <path class="cls-49" d="M25.4247798053,38.182748386c9.6598739498,0,17.9405930956,2.108787097,21.4753252645,5.1102193554,1.1960322279-2.1321806454,1.8504935017-4.5034967747,1.8504935017-6.9880129041,0-9.9072516141-10.4448997364-19.0043064537-23.3258187661-19.0043064537-12.8495254821,0-23.309260702,9.0976193558-23.309260702,18.9992935505,0,2.4908612906.6593354672,4.8646387103,1.8484773727,6.9940193557,3.5423644267-3.0024258068,11.8239158306-5.1103322587,21.4607833293-5.1112129038Z"/>
            <path class="cls-65" d="M25.4247798053,38.24408387c9.646641692,0,17.9163350316,2.094670968,21.4458575232,5.0753935489,1.1938225505-2.1180064518,1.8480354372-4.4724677424,1.8480354372-6.940129033,0-9.8402161301-10.4308997367-18.882364518-23.2938929604-18.882364518-12.8323577406,0-23.2774123157,9.0427935492-23.2774123157,18.8773354858,0,2.4742129035.6584548221,4.8307870973,1.845674147,6.9462935491,3.537245072-2.9818580648,11.8079609923-5.0755225812,21.4317381687-5.0765290328Z"/>
            <path class="cls-38" d="M25.4247798053,38.305419354c9.6334094342,0,17.8920769677,2.0805548389,21.416389782,5.0405677424,1.1916128732-2.1038322583,1.8455773728-4.4414387101,1.8455773728-6.8922451619,0-9.7731806461-10.416899737-18.7604225823-23.2619671547-18.7604225823-12.8151899991,0-23.2455639293,8.9879677427-23.2455639293,18.755377421,0,2.4575645164.6575741769,4.7969354843,1.8428709212,6.8985677426,3.5321257173-2.9612903229,11.7920061539-5.0407129037,21.4026930081-5.0418451618Z"/>
            <path class="cls-44" d="M25.4247798053,38.366754838c9.6201771765,0,17.8678189037,2.0664387098,21.3869220407,5.0057419359,1.1894031958-2.0896580647,1.8431193083-4.4104096778,1.8431193083-6.8443612909,0-9.706145162-10.4028997374-18.6384806465-23.230041349-18.6384806465-12.7980222575,0-23.213715543,8.9331419361-23.213715543,18.6334193562,0,2.4409161292.6566935318,4.7630838714,1.8400676955,6.850841936,3.5270063626-2.9407225809,11.7760513156-5.0059032262,21.3736478475-5.0071612907Z"/>
            <path class="cls-56" d="M25.4247798053,38.428090322c9.6069449187,0,17.8435608398,2.0523225808,21.3574542994,4.9709161294,1.1871935184-2.0754838711,1.8406612438-4.3793806454,1.8406612438-6.7964774198,0-9.639109678-10.3888997377-18.5165387108-23.1981155433-18.5165387108-12.780854516,0-23.1818671566,8.8783161295-23.1818671566,18.5114612915,0,2.4242677421.6558128867,4.7292322584,1.8372644697,6.8031161295,3.5218870079-2.9201548389,11.7600964773-4.9710935487,21.3446026869-4.9724774197Z"/>
            <path class="cls-31" d="M25.4247798053,38.489425806c9.593712661,0,17.8193027758,2.0382064517,21.3279865582,4.9360903228,1.184983841-2.0613096775,1.8382031794-4.3483516131,1.8382031794-6.7485935487,0-9.572074194-10.374899738-18.3945967751-23.1661897376-18.3945967751-12.7636867745,0-23.1500187702,8.823490323-23.1500187702,18.3895032267,0,2.407619355.6549322415,4.6953806454,1.834461244,6.7553903229,3.5167676531-2.8995870969,11.7441416389-4.9362838712,21.3155575262-4.9377935486Z"/>
            <path class="cls-14" d="M25.4247798053,38.55076129c9.5804804032,0,17.7950447119,2.0240903227,21.2985188169,4.9012645163,1.1827741637-2.0471354839,1.8357451149-4.3173225808,1.8357451149-6.7007096777,0-9.50503871-10.3608997383-18.2726548393-23.1342639319-18.2726548393-12.7465190329,0-23.1181703839,8.7686645164-23.1181703839,18.2675451619,0,2.3909709678.6540515964,4.6615290324,1.8316580183,6.7076645164,3.5116482984-2.8790193549,11.7281868006-4.9014741937,21.2865123656-4.9031096776Z"/>
            <path class="cls-53" d="M25.4247798053,38.612096774c9.5672481454,0,17.7707866479,2.0099741936,21.2690510757,4.8664387098,1.1805644863-2.0329612904,1.8332870505-4.2862935485,1.8332870505-6.6528258066,0-9.438003226-10.3468997387-18.1507129036-23.1023381262-18.1507129036-12.7293512914,0-23.0863219975,8.7138387098-23.0863219975,18.1455870972,0,2.3743225807.6531709512,4.6276774195,1.8288547925,6.6599387098,3.5065289437-2.858451613,11.7122319622-4.8666645162,21.257467205-4.8684258066Z"/>
            <path class="cls-33" d="M25.4247798053,38.673432258c9.5540158877,0,17.746528584,1.9958580645,21.2395833344,4.8316129033,1.1783548089-2.0187870968,1.830828986-4.2552645162,1.830828986-6.6049419355,0-9.370967742-10.332899739-18.0287709679-23.0704123205-18.0287709679-12.7121835498,0-23.0544736112,8.6590129033-23.0544736112,18.0236290324,0,2.3576741936.6522903061,4.5938258065,1.8260515668,6.6122129033,3.501409589-2.837883871,11.6962771239-4.8318548387,21.2284220444-4.8337419355Z"/>
            <path class="cls-37" d="M25.4247798053,38.734767742c9.5407836299,0,17.72227052,1.9817419355,21.2101155932,4.7967870967,1.1761451316-2.0046129032,1.8283709216-4.2242354838,1.8283709216-6.5570580645,0-9.303932258-10.3188997393-17.9068290321-23.0384865147-17.9068290321-12.6950158083,0-23.0226252248,8.6041870967-23.0226252248,17.9016709676,0,2.3410258064.651409661,4.5599741935,1.823248341,6.5644870967,3.4962902343-2.817316129,11.6803222856-4.7970451613,21.1993768838-4.7990580645Z"/>
            <path class="cls-20" d="M25.4247798053,38.796103226c9.5275513722,0,17.6980124561,1.9676258064,21.1806478519,4.7619612902,1.1739354542-1.9904387096,1.8259128571-4.1932064515,1.8259128571-6.5091741934,0-9.236896774-10.3048997396-17.7848870964-23.006560709-17.7848870964-12.6778480668,0-22.9907768385,8.5493612902-22.9907768385,17.7797129028,0,2.3243774193.6505290158,4.5261225805,1.8204451153,6.5167612902,3.4911708795-2.796748387,11.6643674472-4.7622354838,21.1703317232-4.7643741934Z"/>
            <path class="cls-58" d="M25.4247798053,38.85743871c9.5143191144,0,17.6737543921,1.9535096773,21.1511801107,4.7271354837,1.1717257768-1.9762645161,1.8234547926-4.1621774192,1.8234547926-6.4612903223,0-9.16986129-10.29089974-17.6629451607-22.9746349033-17.6629451607-12.6606803252,0-22.9589284521,8.4945354836-22.9589284521,17.6577548381,0,2.3077290322.6496483707,4.4922709676,1.8176418896,6.4690354836,3.4860515248-2.7761806451,11.6484126089-4.7274258063,21.1412865626-4.7296903224Z"/>
            <path class="cls-11" d="M25.4247798053,38.918774194c9.5010868567,0,17.6494963282,1.9393935483,21.1217123694,4.6923096772,1.1695160995-1.9620903225,1.8209967282-4.1311483869,1.8209967282-6.4134064513,0-9.102825806-10.2768997403-17.5410032249-22.9427090976-17.5410032249-12.6435125837,0-22.9270800657,8.439709677-22.9270800657,17.5357967733,0,2.291080645.6487677255,4.4584193546,1.8148386638,6.4213096771,3.4809321701-2.7556129031,11.6324577705-4.6926161288,21.1122414019-4.6950064514Z"/>
            <path class="cls-43" d="M25.4247798053,38.980109678c9.4878545989,0,17.6252382642,1.9252774192,21.0922446282,4.6574838706,1.1673064221-1.9479161289,1.8185386637-4.1001193546,1.8185386637-6.3655225802,0-9.035790322-10.2628997406-17.4190612892-22.9107832919-17.4190612892-12.6263448422,0-22.8952316794,8.3848838705-22.8952316794,17.4138387085,0,2.2744322579.6478870804,4.4245677416,1.8120354381,6.3735838705,3.4758128154-2.7350451611,11.6165029322-4.6578064513,21.0831962413-4.6603225803Z"/>
            <path class="cls-50" d="M25.4247798053,39.041445162c9.4746223411,0,17.6009802002,1.9111612902,21.0627768869,4.6226580641,1.1650967447-1.9337419353,1.8160805993-4.0690903222,1.8160805993-6.3176387091,0-8.968754838-10.2488997409-17.2971193535-22.8788574862-17.2971193535-12.6091771006,0-22.863383293,8.3300580639-22.863383293,17.2918806438,0,2.2577838708.6470064353,4.3907161286,1.8092322123,6.325858064,3.4706934607-2.7144774191,11.6005480939-4.6229967738,21.0541510807-4.6256387093Z"/>
            <path class="cls-8" d="M25.4247798053,39.102780646c9.4613900834,0,17.5767221363,1.8970451611,21.0333091457,4.5878322576,1.1628870674-1.9195677417,1.8136225348-4.0380612899,1.8136225348-6.2697548381,0-8.9017193539-10.2348997413-17.1751774177-22.8469316805-17.1751774177-12.5920093591,0-22.8315349067,8.2752322573-22.8315349067,17.169922579,0,2.2411354836.6461257901,4.3568645157,1.8064289866,6.2781322574,3.4655741059-2.6939096771,11.5845932555-4.5881870963,21.0251059201-4.5909548382Z"/>
            <path class="cls-39" d="M25.4247798053,39.16411613c9.4481578256,0,17.5524640723,1.882929032,21.0038414044,4.5530064511,1.16067739-1.9053935482,1.8111644703-4.0070322576,1.8111644703-6.221870967,0-8.8346838699-10.2208997416-17.053235482-22.8150058748-17.053235482-12.5748416176,0-22.7996865203,8.2204064508-22.7996865203,17.0479645143,0,2.2244870965.645245145,4.3230129027,1.8036257608,6.2304064509,3.4604547512-2.6733419352,11.5686384172-4.5533774188,20.9960607595-4.5562709672Z"/>
            <path class="cls-12" d="M25.4247798053,39.225451614c9.4349255679,0,17.5282060084,1.868812903,20.9743736632,4.5181806446,1.1584677126-1.8912193546,1.8087064059-3.9760032253,1.8087064059-6.1739870959,0-8.7676483859-10.2068997419-16.9312935463-22.7830800691-16.9312935463-12.557673876,0-22.767838134,8.1655806442-22.767838134,16.9260064495,0,2.2078387094.6443644998,4.2891612897,1.8008225351,6.1826806443,3.4553353965-2.6527741932,11.5526835788-4.5185677413,20.9670155989-4.5215870962Z"/>
            <path class="cls-64" d="M25.4247798053,39.286787098c9.4216933101,0,17.5039479444,1.8546967739,20.9449059219,4.483354838,1.1562580353-1.877045161,1.8062483414-3.9449741929,1.8062483414-6.1261032249,0-8.7006129019-10.1928997422-16.8093516105-22.7511542633-16.8093516105-12.5405061345,0-22.7359897476,8.1107548376-22.7359897476,16.8040483847,0,2.1911903223.6434838547,4.2553096768,1.7980193094,6.1349548378,3.4502160418-2.6322064512,11.5367287405-4.4837580638,20.9379704382-4.4869032251Z"/>
            <path class="cls-36" d="M25.4247798053,39.348122582c9.4084610524,0,17.4796898805,1.8405806449,20.9154381807,4.4485290315,1.1540483579-1.8628709674,1.803790277-3.9139451606,1.803790277-6.0782193538,0-8.6335774179-10.1788997426-16.6874096748-22.7192284576-16.6874096748-12.5233383929,0-22.7041413612,8.0559290311-22.7041413612,16.6820903199,0,2.1745419351.6426032096,4.2214580638,1.7952160836,6.0872290312,3.4450966871-2.6116387092,11.5207739022-4.4489483863,20.9089252776-4.4522193541Z"/>
            <path class="cls-28" d="M25.4247798053,39.409458066c9.3952287946,0,17.4554318165,1.8264645158,20.8859704394,4.413703225,1.1518386805-1.8486967739,1.8013322125-3.8829161283,1.8013322125-6.0303354827,0-8.5665419339-10.1648997429-16.5654677391-22.6873026519-16.5654677391-12.5061706514,0-22.6722929749,8.0011032245-22.6722929749,16.5601322552,0,2.157893548.6417225644,4.1876064508,1.7924128579,6.0395032247,3.4399773323-2.5910709673,11.5048190638-4.4141387089,20.879880117-4.4175354831Z"/>
            <path class="cls-10" d="M25.4247798053,39.47079355c9.3819965368,0,17.4311737526,1.8123483867,20.8565026982,4.3788774185,1.1496290032-1.8345225803,1.798874148-3.851887096,1.798874148-5.9824516117,0-8.4995064499-10.1508997432-16.4435258033-22.6553768462-16.4435258033-12.4890029099,0-22.6404445885,7.9462774179-22.6404445885,16.4381741904,0,2.1412451609.6408419193,4.1537548378,1.7896096321,5.9917774181,3.4348579776-2.5705032253,11.4888642255-4.3793290314,20.8508349564-4.382851612Z"/>
            <path class="cls-26" d="M25.4247798053,39.532129034c9.3687642791,0,17.4069156886,1.7982322577,20.8270349569,4.3440516119,1.1474193258-1.8203483867,1.7964160836-3.8208580637,1.7964160836-5.9345677406,0-8.4324709659-10.1368997435-16.3215838676-22.6234510405-16.3215838676-12.4718351683,0-22.6085962022,7.8914516114-22.6085962022,16.3162161256,0,2.1245967737.6399612741,4.1199032249,1.7868064064,5.9440516116,3.4297386229-2.5499354833,11.4729093871-4.3445193539,20.8217897958-4.348167741Z"/>
            <path class="cls-15" d="M25.4247798053,39.593464518c9.3555320213,0,17.3826576247,1.7841161286,20.7975672157,4.3092258054,1.1452096484-1.8061741931,1.7939580191-3.7898290313,1.7939580191-5.8866838695,0-8.3654354819-10.1228997439-16.1996419319-22.5915252348-16.1996419319-12.4546674268,0-22.5767478158,7.8366258048-22.5767478158,16.1942580609,0,2.1079483866.639080629,4.0860516119,1.7840031807,5.896325805,3.4246192682-2.5293677413,11.4569545488-4.3097096764,20.7927446352-4.3134838699Z"/>
            <path class="cls-16" d="M25.4247798053,39.6548c9.342299764,0,17.3583995615,1.77,20.7680994754,4.2744,1.1429999711-1.792,1.7914999547-3.7588,1.7914999547-5.8388,0-8.2984-10.1088997446-16.0777-22.5595994301-16.0777-12.4374996858,0-22.5448994305,7.7818-22.5448994305,16.0723,0,2.0913.6381999839,4.0522,1.781199955,5.8486,3.4194999136-2.5088,11.440999711-4.2749,20.7636994755-4.2788Z"/>
          </g>
        </g>
        <path class="cls-32" d="M25.311,31.3755c-8.1718199854,0-15.7563197938,1.3897-22.0127196358,3.7402,3.7582999051,8.4122,12.1894996921,14.274,22.0170994438,14.274,9.8080997522,0,18.2304995395-5.8667,22.0038994441-14.274-6.2577998419-2.3505-13.8509996501-3.7402-22.0082792522-3.7402Z"/>
      </g>
      <g>
        <polygon class="cls-42" points="57.1337790042 32.8125 73.0697786017 32.8125 73.0697786017 46.5371 79.3051784442 46.5371 79.3051784442 32.8125 95.2406780416 32.8125 95.2406780416 28.9336 57.1337790042 28.9336 57.1337790042 32.8125"/>
        <path class="cls-42" d="M66.4608787686,22.458c1.2377999687.9527,2.7045999317,1.7149,4.3579998899,2.2691,1.6493999583.5542,3.4559999127.834,5.3681213415.834,1.8832784753,0,3.6747784301-.2798,5.3276783883-.834,1.6527999582-.5542,3.1175999212-1.3164,4.3593216117-2.2715,1.2411782469-.9868,2.2416782216-2.1445,2.9692782032-3.4414.7289999816-1.3037,1.1005999722-2.7241,1.1005999722-4.2158,0-1.4595-.3715999906-2.8658-1.1005999722-4.1719-.7275999816-1.2959-1.7280999563-2.4546-2.9716999249-3.4414-1.2392999687-.9527-2.7040999317-1.7241-4.3568998899-2.2935-1.6484999584-.5693-3.4389999131-.8559-5.3276783883-.8559-1.9145214287,0-3.723121383.2866-5.3701213414.8559-1.6513999583.5694-3.1156999213,1.3408-4.3603998898,2.2959-1.2420999686.9898-2.2347999435,2.1475-2.9466999256,3.4414-.7148999819,1.3037-1.0785999728,2.71-1.0785999728,4.1695,0,1.4917.3636999908,2.9091,1.0785999728,4.2133.7098999821,1.2994,1.7045999569,2.4571,2.9510999254,3.4463ZM68.6684787129,14.7984c0-.9053.197199995-1.7867.5887999851-2.6177.39599999-.8364.9379999763-1.5713,1.6181999591-2.1875.673299983-.6465,1.4725999628-1.1577,2.3783999399-1.5288.9047999771-.3662,1.892121403-.5488,2.933121403-.5488,1.0116784974,0,1.9848784728.1826,2.8925784499.5488.9052999771.3711,1.7074999569.8862,2.3856999397,1.5337.672399983.6113,1.2217216104,1.3486,1.6323999588,2.1875.4061999897.834.6107999846,1.7119.6107999846,2.6128,0,.9301-.2045999948,1.8261-.6107999846,2.6562-.4106783483.8403-.9599999757,1.5772-1.6381999586,2.1953-.672399983.6431-1.4745999627,1.1504-2.3774783897,1.502-1.8379215038.7178-4.0522214478.6982-5.8305214029,0-.9008999772-.3516-1.702699957-.8589-2.3808999399-1.5049-.6776999829-.6152-1.2172999692-1.3521-1.6132999592-2.187-.3915999901-.8306-.5887999851-1.7266-.5887999851-2.6616Z"/>
        <path class="cls-42" d="M129.1273771855,4.7632h-4.8534998774l.2958999925.3731c.120099997.1484.1943999951.309.2177999945.5019.1444999963.5923.2138999946,1.522.2138999946,2.7764v19.3335c0,1.2075-.7070999821,2.0195-2.1581999455,2.4741-.4794999879.1484-1.2431999686.2534-2.2538999431.312h-13.2187996661c-.7059999822,0-.9315777352-.1636-1.0048999746-.2554-.1415999964-.1865-.2137999946-.4868-.2137999946-.8877v-7.707h11.4149997116c.6884999826,0,1.149399971-.1338,1.4121225224-.4131.2607774353-.2676.3954774319-.6836.3954774319-1.2275V7.6382c0-.5439-.1444774319-.9629-.4198999894-1.2349-.2812999929-.2749-.7470999811-.4052-1.4315774425-.4052h-17.825222071v3.8735h13.4422996604v7.938h-13.8827996493l.4081999897.8477c.1679999958.4902.2519999936,1.0937.2519999936,1.7949v11.1303c0,.6963.2430999939,1.3023.7177999819,1.7969.6551999834.6831,1.7118999568,1.0298,3.1415999206,1.0298h15.597599606l2.4628999378-.0947c1.4756226303-.1538,2.5194999364-.4204,3.1640999201-.8169v12.5864h6.2333998425V6.4522c0-.7437-.3622999908-1.6446-2.1074999468-1.689Z"/>
        <path class="cls-42" d="M140.8490768894,30.7593c.1913999952.2549.3124999921.4629.3681999907.6328.2225999944.5503.3339999916,1.1958.3339999916,1.9234v9.1665c0,.8457.3007999924,1.5913.8915999775,2.2094.7431231508.7749,1.9051999519,1.1656,3.4491999129,1.1656h24.3954993837v-15.461h-29.7089992495l.2704999932.3633ZM147.7855767142,40.8863v-6.6114h16.267599589v7.7051h-15.0946996187c-.4257999892,0-.7304766846-.0996-.9032999772-.2925-.1767999955-.1977-.2695999932-.4648-.2695999932-.8012Z"/>
        <path class="cls-42" d="M170.2436761469,19.4151l.0438999989-1.148V6.9561c0-.5449-.2050999948-1.0357-.6102999846-1.4614-.4082761612-.4219-.9726999754-.6377-1.6757999577-.6377h-26.8886993207v3.8754h22.9403994205v10.4205c-.0536999986.5293-.1239999969.9106-.2030999949,1.1279-.2558999935.668-.7030763084.9927-1.3651999655.9927h-25.6191993528v3.8794h38.1083990373v-3.8794h-5.2460760274c.2431761537-.5279.416-1.146.5156761469-1.8584Z"/>
        <path class="cls-42" d="M186.9682757244,18.7329c1.2401999687.8008,2.7128999315,1.4366,4.3749998895,1.8941,1.663099958.4609,3.4745999122.6963,5.3797998641.6963,1.8759999526,0,3.6719245221-.2354,5.3349998652-.6963,1.661099958-.4575,3.1464999205-1.0933,4.4189998884-1.8941,1.2479999685-.8076,2.2499999432-1.7675,2.9784999248-2.8505.7352999814-1.0992,1.1122999719-2.2916,1.1122999719-3.5474,0-1.2236-.3769999905-2.4004-1.1122999719-3.4995-.7284999816-1.084-1.7304999563-2.044-2.9814999247-2.8448-1.2645999681-.7973-2.7499999305-1.4453-4.4110752316-1.9204-1.6641246149-.4765-3.4609245695-.7168-5.3399245221-.7168-1.9100754779,0-3.721599906.2403-5.382799864.7168-1.663999958.4751-3.1346999208,1.1231-4.3719998896,1.9204-1.2763999678.8008-2.2851999423,1.7608-3.0019999242,2.8448-.7206999818,1.0991-1.0878999725,2.2759-1.0878999725,3.4995,0,1.2607.3671999907,2.4531,1.0878999725,3.5474.7167999819,1.083,1.7255999564,2.0429,3.0019999242,2.8505ZM189.157675669,12.335c0-.6817.1943999951-1.3272.5771999854-1.9287.3885999902-.606.9286999765-1.1529,1.6005999596-1.6221.6756999829-.4707,1.4872999624-.8496,2.4120999391-1.1323.9208999767-.2813,1.9237999514-.4248,2.9754999248-.4248,1.0234999741,0,2.0079245221.1435,2.930699926.4248.9228999767.2827,1.7353999562.6616,2.413099939,1.1323.672899983.4692,1.2226999691,1.0161,1.622999959,1.6274.39559999.5962.5976999849,1.2442.5976999849,1.9234,0,.6821-.2020999949,1.3408-.5976999849,1.9507-.4051999898.6284-.950099976,1.1801-1.622999959,1.6508-.6728753429.4659-1.4853999625.8409-2.4101999391,1.106-1.8797999525.5415-4.0877998967.5269-5.9139998506,0-.9257999766-.2651-1.7333999562-.6401-2.4071999392-1.106-.6689999831-.4677-1.2099999694-1.0224-1.6005999596-1.6455-.3827999903-.6108-.5771999854-1.269-.5771999854-1.956Z"/>
        <path class="cls-42" d="M177.6713759592,26.7046h8.6630997812v5.1704c-1.1220999717.7598-2.0370999485,1.6499-2.7148999314,2.6573-.752899981,1.1113-1.1337999714,2.3134-1.1337999714,3.5722,0,1.2871.3808999904,2.5044,1.1337999714,3.6153.7421999813,1.101,1.7685999553,2.0664,3.0429999231,2.8676,1.2909999674.8291,2.8144999289,1.4839,4.5272998856,1.9453,1.701199957.4595,3.56249991.6924,5.5331998602.6924,1.938499951,0,3.7851999044-.2329,5.4863998614-.6924,1.7128999567-.4614,3.2372999182-1.1162,4.5282998856-1.9453,1.2772999677-.8012,2.3104999416-1.7666,3.0673999225-2.8676.7675999806-1.1133,1.1552999708-2.3282,1.1552999708-3.6153,0-1.2563-.3876999902-2.4585-1.1552999708-3.5747-.6845999827-.9922-1.5937999597-1.873-2.6952999319-2.6255v-5.1997h8.6649997811v-3.8799h-38.1034990374v3.8799ZM192.5736755827,26.7046h8.2997997903v2.6738c-1.3211999666-.2622-2.7108999315-.396-4.1503998952-.396-1.4461999635,0-2.8358999284.1294-4.1493998952.3882v-2.666ZM189.3637756638,36.1533c.4012999899-.6235.9755999754-1.1953,1.704099957-1.6923.710899982-.4737,1.5624999605-.8643,2.5262999362-1.1563.969824443-.2969,2.0214999489-.4473,3.128899921-.4473,1.0761999728,0,2.1123999466.1504,3.0839999221.4473.9639246.292,1.8124999542.6826,2.5214999363,1.1563.7354246637.5019,1.3194246637,1.0737,1.7354246637,1.6943.415.6206.6180752769,1.2622.6180752769,1.9492,0,.7085-.2108999947,1.3814-.6180752769,1.9922-.419.626-1.002,1.1953-1.7315246638,1.6924-.7059999822.4697-1.5546999607.8535-2.5223999363,1.1333-1.9697999502.5708-4.3095998911.5517-6.2187998429,0-.9686999755-.2798-1.818275557-.6636-2.5214999363-1.1309-.7264999816-.497-1.3026999671-1.0639-1.7059999569-1.6924-.4003999899-.6118-.5995999849-1.2812-.5995999849-1.9946,0-.6821.2010999949-1.3359.5995999849-1.9512Z"/>
        <path class="cls-42" d="M249.772,35.6011l.0439-1.1484V9.0069c0-.5425-.2051-1.0328-.6123-1.458-.4062-.4258-.9678-.6382-1.6748-.6382h-26.8916251262v3.874h22.9404251262l.003,24.5591c-.0557.5244-.126.9052-.2051,1.1255-.2578.6679-.7022.9926-1.3604.9926h-25.623025019v3.8799h38.106425019v-3.8799h-5.2431c.2412-.5273.416-1.1479.5166-1.8608Z"/>
        <path class="cls-42" d="M260.978,11.8365l.3496.6284c.1944.4897.2901,1.166.2901,2.0166v5.1982c0,.6953.2431,1.2993.7197,1.7984.6533.6831,1.7129,1.0293,3.1416,1.0293h25.0938v-3.879h-21.502c-.6689,0-.9141-.1381-1.0029-.2529-.1426-.1875-.2158-.4829-.2158-.8857v-1.7788h20.6992c.6816,0,1.1455-.1338,1.4121-.4136.2607-.2666.3916-.6826.3916-1.2266v-7.4824c0-.5488-.1182-.9438-.3711-1.2046-.252-.2641-.7197-.3882-1.4326-.3882h-27.1533v3.8745h22.7226v2.9664h-23.1426Z"/>
        <path class="cls-42" d="M288.8999,31.0357h-5.8701l.5215.4033c.1953.1592.3271.3618.4023.6387.083.2968.1367.6875.167,1.143v1.9605h-16.2685v-2.416c0-1.4292-.8125-1.7295-1.4971-1.7295h-5.7236l.5029.4033c.2187.1763.3476.4209.3974.7451.0567.3667.086.7153.086,1.0366v9.8076c0,.6963.2431,1.3018.7197,1.8008.6543.6807,1.7129,1.0279,3.1416,1.0279h24.876v-13.0918c0-.5044-.1182-.9146-.3496-1.2261-.2481-.3345-.6201-.5034-1.1055-.5034ZM267.8521,40.8863v-1.8257h16.2685v2.9194h-15.0957c-.8682,0-1.0107-.2031-1.0342-.2627-.0918-.248-.1386-.5264-.1386-.831Z"/>
        <polygon class="cls-42" points="256.9351 24.9698 256.9351 28.8433 272.8677 28.8433 272.8677 33.3599 279.1021 33.3599 279.1021 28.8433 295.0415 28.8433 295.0415 24.9698 256.9351 24.9698"/>
      </g>
    </g>
  </g>
</svg>