<svg xmlns="http://www.w3.org/2000/svg" viewBox="0 0 35.85 36.65"><g id="Layer_2" data-name="Layer 2"><g id="Layer_1-2" data-name="Layer 1"><path d="M34.75,24.7V9.45l-11.45-8-11.45,8V16.6h-1.1V9L23.3,0,35.85,9V24.7ZM24.55,11.45h1.5V10h-1.5Zm-4,0h1.5V10h-1.5Zm4,4h1.5V14h-1.5Zm-4,0h1.5V14h-1.5Zm1.95,21.2-16-4.75v2.5H0V20.5H11.65L23.75,25a3.37,3.37,0,0,1,1.5,1.1,4,4,0,0,1,.65,2.5h7.15a2.25,2.25,0,0,1,2.1,1.1,5.91,5.91,0,0,1,.65,3v-.1ZM1.1,33.3H5.3V21.6H1.1Zm21.25,2.2,12.3-3.75a2.82,2.82,0,0,0-.45-1.52,1.31,1.31,0,0,0-1.15-.58H23.5a22,22,0,0,1-2.62-.17A12.46,12.46,0,0,1,18.6,29l-4.2-1.3.6-1.15,3.6,1.3A11.36,11.36,0,0,0,21,28.4a34.56,34.56,0,0,0,3.73.15,3.56,3.56,0,0,0-.33-1.67,1.75,1.75,0,0,0-1-.88L11.55,21.6H6.45v9.1Z"/></g></g></svg>