<svg xmlns="http://www.w3.org/2000/svg" viewBox="0 0 36.15 30.9"><g id="Layer_2" data-name="Layer 2"><g id="Layer_1-2" data-name="Layer 1"><path d="M13.85,25V19h-2.5v-5.4c0-.53.38-1,1.13-1.33a7.26,7.26,0,0,1,3-.52,7.31,7.31,0,0,1,3,.52c.75.35,1.12.8,1.12,1.33V19h-2.5v6Zm1.6-14.8a2.13,2.13,0,0,1-2.1-2.1A2.13,2.13,0,0,1,15.45,6a2.09,2.09,0,0,1,1.48,3.58A2,2,0,0,1,15.45,10.15Zm0,20.75A14.9,14.9,0,0,1,4.5,26.4,14.9,14.9,0,0,1,0,15.45,15.39,15.39,0,0,1,15.45,0,15.39,15.39,0,0,1,30.9,15.45v3.7l4.45-4.5.8.75-5.8,5.8L24.6,15.4l.75-.75L29.8,19.1V15.45A13.82,13.82,0,0,0,25.6,5.3,13.82,13.82,0,0,0,15.45,1.1,13.82,13.82,0,0,0,5.3,5.3,13.82,13.82,0,0,0,1.1,15.45,13.66,13.66,0,0,0,5.25,25.6a13.89,13.89,0,0,0,10.2,4.2,13.44,13.44,0,0,0,5.17-1,16.27,16.27,0,0,0,4.43-2.73l.8.8a15.85,15.85,0,0,1-4.88,3A15.19,15.19,0,0,1,15.45,30.9Z"/></g></g></svg>