<svg xmlns="http://www.w3.org/2000/svg" viewBox="0 0 974.99 136.67"><defs><style>.cls-1{fill:#696a6d;}.cls-2{fill:#c9252c;}.cls-3{fill:#939598;}</style></defs><title>logo</title><g id="레이어_2" data-name="레이어 2"><g id="레이어_1-2" data-name="레이어 1"><path class="cls-1" d="M672.28,60.58H645.46V24.49h27.23c5.71.17,18.94.54,18.94,17.78,0,11.59-6.52,17.74-19.35,18.31M696,75.77c7.72-2.93,23.8-9.08,23.8-33,0-10.27-3.43-20-9.41-26.82C699.49,4.08,683.82,3.87,671.26,3.7H617.13V125.58h28.33V81.21h21.18L691,125.58H722L694,76.51Z"/><path class="cls-1" d="M301.2,105.31c-19.74,0-32.48-16.25-32.48-41.38,0-18.59,7.87-38.89,29.95-40.14.76,0,1.25,0,1.72,0,5.16,0,18,1.31,25.61,13.46,2.65,4.11,7.13,14.4,7.13,26.89,0,19-8.36,41.21-31.93,41.21m47.3-.21.92-1.29c4.64-7.83,11.68-19.7,11.68-40.24,0-17.19-5.69-33-16-44.58C334,6.57,318.48,0,300.3,0c-17.68,0-32.79,6.45-43.71,18.66-10.33,11.57-16,27.72-16,45.44,0,9.3,1.72,32.67,17.86,48.61,10.46,10.26,26.19,16.38,42.05,16.38,12.61,0,20.33-3.69,30.09-8.38l1-.45.84.65c15.18,11.55,19.62,13.4,31.95,15.76L372.27,117c-11.42-2.1-15.81-4.66-22.59-10.83Z"/><path class="cls-1" d="M210.87,57.15c-7.12-2.54-25-5.84-37.21-7.33C168.21,49.1,157,47.57,157,37c0-6.9,6.81-14.24,19.44-14.24A45,45,0,0,1,197,28.35a55.65,55.65,0,0,1,11.7,9.5L229.19,23C219.05,13.74,203.83.71,176.93.71,169.86.71,156.3,1.82,145,9.28,134.27,16.34,128.84,27,128.84,41c0,11,4.41,19.49,13.14,25.34,7.18,4.82,15.38,6.54,18.88,7.28,6.5,1.38,13.29,2.27,19.86,3.13l.46.07c8.83,1.2,22.15,3,22.15,13.85,0,8.93-10.24,15.67-23.81,15.67a51.05,51.05,0,0,1-24.17-6.14,38.34,38.34,0,0,1-11.44-9.18L122.66,104.7c7.58,8.84,21.46,23.69,54.1,23.69,20.69,0,35.87-5.49,45.09-16.32a40.08,40.08,0,0,0,9.45-25.6c0-14-7.27-24.38-20.43-29.32"/><path class="cls-1" d="M453.79,79.78c-.21,10.31-.46,25.35-22.25,25.35-5.8,0-16.22-1.17-20.81-9-2.28-4.21-2.46-9.55-2.46-16.13V3.7H379.78V71.86c-.17,16-.4,37.86,22.79,50,7.66,4.06,18.37,6.57,27.94,6.57,5.2,0,31.8-1.06,44.64-22,6.61-11,6.78-23,6.94-34.6V3.7h-28.3Z"/><path class="cls-1" d="M531,3.7,486.38,125.55l27.57-.27,15.61-48.52c1.33-4.32,3.82-11.67,6.47-19.44l8.34-25.15h2.78l.26,1.55,15,43,16,48.86h27L561.25,3.7Z"/><polygon class="cls-1" points="826.79 25.38 826.79 3.7 738.63 3.7 738.63 125.57 826.5 125.57 826.5 103.54 766.95 103.54 766.95 74.58 826.78 74.58 826.78 53.43 766.95 53.43 766.95 25.38 826.79 25.38"/><path class="cls-2" d="M71.13,63.56a3.85,3.85,0,0,1-3.95-1.41l-5.27-6.88H31.22l49.66,70.27h31.53L87.12,89.3a3,3,0,0,1-.37-1.39,2.83,2.83,0,0,1,1.45-2.44l.49-.29a45,45,0,0,0,8.48-6.74A48.17,48.17,0,0,0,106.93,64a40.88,40.88,0,0,0,2.7-8.45c.19-.88.37-1.8.48-2.72a58.15,58.15,0,0,0,.44-6.65,55,55,0,0,0-.43-6.45c-.12-1.07-.3-1.94-.47-2.82a39.77,39.77,0,0,0-2.72-8.49A48,48,0,0,0,97.17,14,45.29,45.29,0,0,0,83,4.27,42.19,42.19,0,0,0,65.83.71H0V125.57H26.07L26.12,30a2.56,2.56,0,0,1,2.67-2.67H60.24a36.82,36.82,0,0,1,9.38,1.1,19.51,19.51,0,0,1,8.61,4.33,17.33,17.33,0,0,1,6,13.23,17.6,17.6,0,0,1-6,13.67,18.74,18.74,0,0,1-7.1,3.86"/><polygon class="cls-2" points="853.17 3.75 853.17 54.38 924.3 54.38 924.3 125.58 974.99 125.58 974.99 3.75 853.17 3.75"/><rect class="cls-3" x="853.16" y="66.05" width="59.53" height="59.53"/></g></g></svg>