<?xml version="1.0" encoding="UTF-8"?>
<svg id="Layer_2" data-name="Layer 2" xmlns="http://www.w3.org/2000/svg" xmlns:xlink="http://www.w3.org/1999/xlink" viewBox="0 0 133.95 22.97">
  <defs>
    <style>
      .cls-1 {
        fill: #fff;
      }

      .cls-2 {
        fill: url(#_무제_그라디언트_8);
      }

      .cls-3 {
        fill: #a1a1a1;
      }

      .cls-4 {
        fill: #8bc442;
      }
    </style>
    <radialGradient id="_무제_그라디언트_8" data-name="무제 그라디언트 8" cx="10.62" cy="12.79" fx="10.62" fy="12.79" r="10.53" gradientUnits="userSpaceOnUse">
      <stop offset=".76" stop-color="#d8e6ef"/>
      <stop offset=".82" stop-color="#cadeec"/>
      <stop offset=".94" stop-color="#a8cae4"/>
      <stop offset="1" stop-color="#96c0e0"/>
    </radialGradient>
  </defs>
  <g id="_레이어_1" data-name="레이어 1">
    <g>
      <g>
        <path class="cls-3" d="M27.8.11v.51h1.16v3.15h.55V.61h1.16V.11h-2.86Z"/>
        <path class="cls-3" d="M33.73,2.46c0-.79-.53-1.37-1.29-1.37s-1.33.58-1.33,1.37.58,1.38,1.38,1.38c.54,0,.94-.27,1.15-.69l-.46-.19c-.12.26-.36.41-.69.41-.45,0-.79-.29-.85-.73h2.07c0-.06.01-.12.01-.18ZM31.67,2.17c.09-.38.38-.63.77-.63.41,0,.7.27.74.63h-1.51Z"/>
        <path class="cls-3" d="M36.01,3.34c-.5,0-.84-.36-.84-.88s.35-.89.84-.88c.31,0,.54.13.67.38l.46-.22c-.22-.41-.63-.65-1.13-.65-.78,0-1.36.59-1.36,1.37s.59,1.38,1.36,1.38c.5,0,.91-.25,1.13-.65l-.46-.22c-.12.25-.36.39-.67.38Z"/>
        <path class="cls-3" d="M39.52,1.08c-.37,0-.65.17-.79.45h-.02V.11h-.53v3.66h.53v-1.4c0-.54.31-.79.65-.78.35,0,.54.24.54.69v1.5h.52v-1.58c0-.68-.33-1.1-.91-1.1Z"/>
        <path class="cls-3" d="M42.93,1.08c-.37,0-.66.17-.79.45h-.02v-.38h-.52v2.6h.52v-1.4c0-.54.31-.79.66-.78.34,0,.54.24.54.69v1.5h.53v-1.58c0-.68-.33-1.1-.91-1.1Z"/>
        <path class="cls-3" d="M46.24,1.08c-.77,0-1.35.59-1.35,1.37s.58,1.38,1.35,1.38,1.35-.59,1.35-1.38-.58-1.37-1.35-1.37ZM46.24,3.34c-.49,0-.83-.36-.83-.88s.35-.89.83-.88c.49,0,.83.36.83.88s-.35.89-.83.88Z"/>
        <path class="cls-3" d="M48.64.11v3.66h.52V.11h-.52Z"/>
        <path class="cls-3" d="M51.56,1.08c-.77,0-1.35.59-1.35,1.37s.58,1.38,1.35,1.38,1.35-.59,1.35-1.38-.58-1.37-1.35-1.37ZM51.56,3.34c-.49,0-.83-.36-.83-.88s.34-.89.83-.88c.49,0,.83.36.83.88s-.34.89-.83.88Z"/>
        <path class="cls-3" d="M55.92,1.16v.37h-.02c-.18-.3-.45-.45-.82-.45-.73,0-1.24.58-1.24,1.34s.51,1.33,1.24,1.33c.37,0,.65-.15.82-.45h.02v.2c0,.62-.3.95-.83.94-.35,0-.58-.13-.8-.45l-.39.29c.3.42.68.64,1.2.64.83,0,1.34-.53,1.35-1.43V1.16h-.52ZM55.15,3.27c-.46,0-.78-.36-.78-.85s.32-.86.78-.86.79.35.79.86-.32.85-.79.85Z"/>
        <path class="cls-3" d="M59.5,1.16l-.73,1.98h-.03l-.8-1.98h-.55l1.1,2.6-.42,1.09h.56l1.44-3.69h-.55Z"/>
        <path class="cls-3" d="M64,.5c.09,0,.19.01.3.04V.07c-.11-.04-.23-.07-.39-.07-.51,0-.82.32-.82.87v.29h-.44v.42h.44v2.18h.52V1.58h.69v-.42h-.69v-.26c0-.27.12-.4.39-.4Z"/>
        <path class="cls-3" d="M66.44,1.08c-.78,0-1.36.59-1.36,1.37s.58,1.38,1.36,1.38,1.35-.59,1.35-1.38-.58-1.37-1.35-1.37ZM66.44,3.34c-.49,0-.83-.36-.83-.88s.34-.89.83-.88c.49,0,.83.36.83.88s-.34.89-.83.88Z"/>
        <path class="cls-3" d="M70.06,1.08c-.3,0-.55.18-.68.46h-.02v-.39h-.52v2.6h.52v-1.26c0-.57.25-.9.68-.91.09,0,.19.02.29.04v-.5c-.09-.03-.17-.05-.27-.05Z"/>
        <path class="cls-3" d="M75.58.11v1.48h-1.83V.11h-.55v3.66h.55v-1.67h1.83v1.67h.54V.11h-.54Z"/>
        <path class="cls-3" d="M79.04,1.16v1.4c0,.54-.31.79-.65.78-.35,0-.54-.24-.54-.69v-1.5h-.52v1.58c0,.68.33,1.1.91,1.1.37,0,.65-.17.79-.45h.01v.38h.53V1.16h-.53Z"/>
        <path class="cls-3" d="M83.58,1.08c-.4,0-.69.21-.79.54h-.02c-.13-.34-.39-.54-.76-.54-.34,0-.6.17-.73.45h-.02v-.38h-.52v2.6h.52v-1.4c0-.54.28-.79.59-.78.31,0,.49.24.49.69v1.5h.52v-1.4c0-.54.28-.79.59-.78.31,0,.49.24.49.69v1.5h.53v-1.58c0-.68-.32-1.1-.88-1.1Z"/>
        <path class="cls-3" d="M87.58,1.16v.39h-.02c-.17-.3-.46-.46-.83-.46-.72,0-1.24.59-1.23,1.37,0,.78.51,1.38,1.23,1.38.37,0,.65-.16.83-.46h.02v.39h.52V1.16h-.52ZM86.82,3.34c-.46,0-.79-.36-.78-.88,0-.52.32-.89.78-.88.45,0,.78.36.78.88s-.33.89-.78.88Z"/>
        <path class="cls-3" d="M90.61,1.08c-.37,0-.66.17-.79.45h-.02v-.38h-.52v2.6h.52v-1.4c0-.54.31-.79.66-.78.34,0,.54.24.54.69v1.5h.53v-1.58c0-.68-.33-1.1-.91-1.1Z"/>
        <path class="cls-3" d="M92.69,1.16v2.6h.52V1.16h-.52ZM92.95,0c-.2,0-.34.14-.33.33,0,.19.13.33.33.33.18,0,.32-.14.33-.33,0-.19-.15-.33-.33-.33Z"/>
        <path class="cls-3" d="M95.82,1.58v-.42h-.63v-.65h-.53v.65h-.44v.42h.44v1.38c0,.55.3.88.8.88.14,0,.26-.03.35-.06v-.49c-.09.03-.18.04-.26.04-.26,0-.37-.12-.37-.39v-1.35h.63Z"/>
        <path class="cls-3" d="M98.77,1.16l-.74,1.98h-.02l-.8-1.98h-.55l1.1,2.6-.42,1.09h.55l1.44-3.69h-.55Z"/>
      </g>
      <g>
        <path class="cls-4" d="M21.42,22.97s-.38-1.82-3.94-2.69c4.24-3.65,4.67-10.58.9-14.72C14.68,1.13,7.43.77,3.3,4.81l2.1,2.1c3.03-2.86,8.22-2.53,10.85.72,4.1,4.77.56,12.39-5.71,12.36,0,0-7.42,0-7.42,0,1.93,1.75,4.38,2.91,7.01,2.97h11.31Z"/>
        <path class="cls-2" d="M7.47,19.33s-4.6,0-4.93,0c-3.5-3.91-3.36-10.27.28-14.04l2.1,2.1c-.81.87-1.37,1.91-1.68,3.03-.84,3.05.13,7.05,4.23,8.91Z"/>
      </g>
      <g>
        <g>
          <path class="cls-1" d="M34.29,16.6c1.83-.58,2.98-1.98,3-3.81-.01-2.41-2.05-4.08-5.02-4.08h-4.47v13.06h2.67v-4.89h1.05l3.14,4.89h3.03l-3.39-5.17ZM32.42,14.65h-1.95v-3.5h1.95c1.36,0,2.17.66,2.18,1.75,0,1.09-.82,1.76-2.18,1.75Z"/>
          <path class="cls-1" d="M47.34,8.72v7.4c0,2.12-1.05,3.39-2.76,3.39s-2.75-1.27-2.74-3.39v-7.4h-2.67v7.4c-.01,3.55,2.16,5.91,5.41,5.91s5.42-2.36,5.43-5.91v-7.4h-2.67Z"/>
          <path class="cls-1" d="M58.67,8.72h-2.81l-5.04,13.06h2.94l.99-2.86h5.03l.98,2.86h2.94l-5.03-13.06ZM55.6,16.42l1.62-4.74h.07l1.64,4.74h-3.34Z"/>
          <path class="cls-1" d="M73.73,8.72v4.94h-5.81v-4.94h-2.67v13.06h2.67v-5.61h5.81v5.61h2.67v-13.06h-2.67Z"/>
        </g>
        <g>
          <path class="cls-1" d="M79.06,19.68l1.46-1.19c.92,1.18,1.88,1.69,3.18,1.68,1.63,0,2.64-.79,2.64-2.09,0-1.06-.66-1.62-2.56-2.15l-.63-.18c-2.46-.66-3.61-1.79-3.61-3.54,0-2.16,1.79-3.76,4.26-3.76,1.73,0,3.33.84,4.37,2.27l-1.48,1.16c-.77-1.04-1.76-1.58-2.89-1.57-1.35,0-2.28.77-2.28,1.9,0,.88.55,1.34,2.13,1.75l.63.18c2.81.78,4.04,1.96,4.04,3.92,0,2.37-1.87,3.97-4.62,3.97-1.91,0-3.44-.77-4.64-2.35Z"/>
          <path class="cls-1" d="M90.38,8.7h4.13c2.88,0,4.81,1.64,4.8,4.08,0,2.46-1.92,4.1-4.8,4.1h-2.18v4.89h-1.95v-13.07ZM94.53,15.07c1.77,0,2.81-.86,2.82-2.29,0-1.44-1.05-2.28-2.82-2.27h-2.2v4.57h2.2Z"/>
          <path class="cls-1" d="M107.95,18.27h-5.47l-1.28,3.5h-2.13l5.02-13.07h2.26l5.02,13.07h-2.15l-1.26-3.5ZM107.28,16.46l-2.02-5.58h-.09l-2.04,5.58h4.15Z"/>
          <path class="cls-1" d="M111.76,15.24c0-3.82,2.86-6.79,6.52-6.79,2.2,0,4.1,1.07,5.25,2.74l-1.61,1.05c-.82-1.18-2.13-1.94-3.65-1.93-2.54,0-4.53,2.17-4.53,4.93s2,4.94,4.53,4.93c1.52,0,2.83-.75,3.65-1.93l1.61,1.05c-1.16,1.67-3.05,2.74-5.25,2.74-3.66,0-6.52-2.97-6.52-6.79Z"/>
          <path class="cls-1" d="M125.61,8.7h8.2v1.82h-6.25v3.56h5.74v1.75h-5.74v4.12h6.39v1.82h-8.34v-13.07Z"/>
        </g>
      </g>
    </g>
  </g>
</svg>