<?xml version="1.0" encoding="UTF-8"?>
<svg id="Layer_2" data-name="Layer 2" xmlns="http://www.w3.org/2000/svg" xmlns:xlink="http://www.w3.org/1999/xlink" viewBox="0 0 89.11 71.86">
  <defs>
    <style>
      .cls-1 {
        fill: #fff;
      }

      .cls-2 {
        fill: url(#_무제_그라디언트_8);
      }

      .cls-3 {
        fill: #a1a1a1;
      }

      .cls-4 {
        fill: #8bc442;
      }
    </style>
    <radialGradient id="_무제_그라디언트_8" data-name="무제 그라디언트 8" cx="44.53" cy="23.63" fx="44.53" fy="23.63" r="23.05" gradientUnits="userSpaceOnUse">
      <stop offset=".76" stop-color="#d8e6ef"/>
      <stop offset=".82" stop-color="#cadeec"/>
      <stop offset=".94" stop-color="#a8cae4"/>
      <stop offset="1" stop-color="#96c0e0"/>
    </radialGradient>
  </defs>
  <g id="_레이어_1" data-name="레이어 1">
    <g>
      <g>
        <path class="cls-3" d="M13.86,67.72v.44h.99v2.7h.47v-2.7h.99v-.44h-2.46Z"/>
        <path class="cls-3" d="M18.95,69.74c0-.68-.46-1.18-1.11-1.18s-1.14.5-1.14,1.18.49,1.18,1.19,1.18c.47,0,.81-.23.99-.59l-.39-.16c-.11.22-.31.36-.59.36-.38,0-.68-.25-.73-.63h1.78c0-.05,0-.11,0-.15ZM17.18,69.5c.08-.33.33-.54.66-.54.35,0,.6.24.63.54h-1.3Z"/>
        <path class="cls-3" d="M20.91,70.5c-.43,0-.72-.31-.72-.76s.3-.76.72-.76c.26,0,.47.12.57.33l.4-.19c-.19-.35-.54-.56-.97-.56-.67,0-1.17.51-1.17,1.18s.5,1.18,1.17,1.18c.43,0,.78-.22.97-.56l-.4-.19c-.11.21-.31.33-.57.33Z"/>
        <path class="cls-3" d="M23.92,68.56c-.32,0-.56.15-.68.39h-.01v-1.23h-.45v3.14h.45v-1.2c0-.47.27-.68.56-.67.3,0,.46.21.47.59v1.29h.45v-1.36c0-.58-.28-.94-.78-.94Z"/>
        <path class="cls-3" d="M26.85,68.56c-.32,0-.57.15-.68.39h-.02v-.33h-.45v2.24h.45v-1.2c0-.47.27-.68.57-.67.29,0,.46.21.46.59v1.29h.45v-1.36c0-.58-.28-.94-.78-.94Z"/>
        <path class="cls-3" d="M29.69,68.56c-.66,0-1.16.51-1.16,1.18s.5,1.18,1.16,1.18,1.16-.51,1.16-1.18-.5-1.18-1.16-1.18ZM29.69,70.5c-.42,0-.72-.31-.72-.76s.3-.76.72-.76c.42,0,.71.31.71.76s-.3.76-.71.76Z"/>
        <path class="cls-3" d="M31.75,67.72v3.14h.45v-3.14h-.45Z"/>
        <path class="cls-3" d="M34.26,68.56c-.66,0-1.16.51-1.16,1.18s.5,1.18,1.16,1.18,1.16-.51,1.16-1.18-.5-1.18-1.16-1.18ZM34.26,70.5c-.42,0-.72-.31-.72-.76s.29-.76.72-.76c.42,0,.71.31.71.76s-.29.76-.71.76Z"/>
        <path class="cls-3" d="M38,68.62v.32h-.02c-.15-.25-.39-.38-.71-.38-.62,0-1.07.49-1.07,1.15s.44,1.14,1.07,1.14c.32,0,.56-.13.71-.38h.02v.17c0,.53-.26.82-.72.81-.3,0-.5-.11-.69-.38l-.34.25c.26.36.59.55,1.03.55.71,0,1.15-.45,1.16-1.22v-2.01h-.45ZM37.34,70.44c-.39,0-.67-.31-.67-.73s.28-.73.67-.73.68.3.68.73-.28.73-.68.73Z"/>
        <path class="cls-3" d="M41.07,68.62l-.63,1.7h-.02l-.69-1.7h-.47l.94,2.24-.36.94h.48l1.23-3.17h-.47Z"/>
        <path class="cls-3" d="M44.93,68.06c.08,0,.16,0,.26.04v-.41c-.09-.03-.2-.06-.34-.06-.44,0-.71.28-.71.75v.24h-.37v.36h.37v1.87h.45v-1.87h.59v-.36h-.59v-.22c0-.23.11-.34.34-.34Z"/>
        <path class="cls-3" d="M47.03,68.56c-.67,0-1.17.51-1.17,1.18s.5,1.18,1.17,1.18,1.16-.51,1.16-1.18-.5-1.18-1.16-1.18ZM47.03,70.5c-.42,0-.71-.31-.71-.76s.29-.76.71-.76c.42,0,.71.31.71.76s-.29.76-.71.76Z"/>
        <path class="cls-3" d="M50.14,68.56c-.25,0-.47.16-.59.4h-.01v-.34h-.45v2.24h.45v-1.08c0-.49.21-.77.58-.78.08,0,.16.01.25.04v-.43c-.08-.03-.15-.04-.23-.04Z"/>
        <path class="cls-3" d="M54.88,67.72v1.27h-1.57v-1.27h-.47v3.14h.47v-1.43h1.57v1.43h.47v-3.14h-.47Z"/>
        <path class="cls-3" d="M57.85,68.62v1.2c0,.47-.27.68-.56.67-.3,0-.46-.21-.47-.59v-1.29h-.45v1.36c0,.58.28.94.78.94.32,0,.56-.15.68-.39h0v.33h.45v-2.24h-.45Z"/>
        <path class="cls-3" d="M61.75,68.56c-.34,0-.59.18-.68.46h-.02c-.11-.29-.34-.46-.65-.46-.29,0-.52.15-.63.39h-.01v-.33h-.45v2.24h.45v-1.2c0-.47.24-.68.51-.67.26,0,.42.21.42.59v1.29h.45v-1.2c0-.47.24-.68.51-.67.26,0,.42.21.42.59v1.29h.45v-1.36c0-.58-.27-.94-.75-.94Z"/>
        <path class="cls-3" d="M65.18,68.62v.33h-.01c-.15-.26-.39-.39-.71-.39-.62,0-1.06.51-1.06,1.18,0,.67.44,1.18,1.06,1.18.32,0,.56-.14.71-.4h.01v.34h.45v-2.24h-.45ZM64.53,70.5c-.4,0-.68-.31-.67-.76,0-.45.27-.76.67-.76.39,0,.67.31.67.76s-.28.76-.67.76Z"/>
        <path class="cls-3" d="M67.78,68.56c-.32,0-.57.15-.68.39h-.02v-.33h-.45v2.24h.45v-1.2c0-.47.27-.68.57-.67.29,0,.46.21.46.59v1.29h.45v-1.36c0-.58-.28-.94-.78-.94Z"/>
        <path class="cls-3" d="M69.57,68.62v2.24h.45v-2.24h-.45ZM69.8,67.64c-.17,0-.29.12-.28.28,0,.16.12.28.28.28.16,0,.28-.12.28-.28,0-.16-.12-.28-.28-.28Z"/>
        <path class="cls-3" d="M72.26,68.99v-.36h-.54v-.56h-.45v.56h-.37v.36h.37v1.18c0,.47.26.75.69.75.12,0,.23-.02.3-.05v-.42c-.08.02-.16.04-.23.03-.22,0-.32-.1-.32-.34v-1.16h.54Z"/>
        <path class="cls-3" d="M74.79,68.62l-.63,1.7h-.02l-.69-1.7h-.48l.94,2.24-.36.94h.47l1.24-3.17h-.47Z"/>
      </g>
      <g>
        <path class="cls-4" d="M68.18,45.93s-.84-3.98-8.63-5.89c9.28-8,10.23-23.17,1.97-32.23C53.42-1.9,37.54-2.68,28.49,6.16l4.6,4.6c6.64-6.27,18.01-5.54,23.75,1.59,8.99,10.43,1.23,27.12-12.51,27.07,0,0-16.26,0-16.26,0,4.22,3.83,9.6,6.37,15.35,6.51h24.77Z"/>
        <path class="cls-2" d="M37.63,37.95s-10.08,0-10.8,0c-7.66-8.57-7.35-22.49.62-30.75l4.6,4.6c-1.78,1.9-3,4.19-3.68,6.64-1.83,6.68.29,15.43,9.26,19.51Z"/>
      </g>
      <g>
        <g>
          <path class="cls-1" d="M5.45,60.37c1.54-.48,2.5-1.66,2.51-3.2,0-2.02-1.72-3.42-4.21-3.42H0v10.96h2.24v-4.1h.88l2.63,4.1h2.54l-2.85-4.34ZM3.88,58.73h-1.64v-2.94h1.64c1.14,0,1.82.55,1.83,1.47,0,.92-.69,1.48-1.83,1.47Z"/>
          <path class="cls-1" d="M16.4,53.75v6.21c0,1.78-.88,2.85-2.32,2.85s-2.31-1.07-2.3-2.85v-6.21h-2.24v6.21c0,2.98,1.81,4.96,4.54,4.96s4.55-1.98,4.56-4.96v-6.21h-2.24Z"/>
          <path class="cls-1" d="M25.92,53.75h-2.36l-4.23,10.96h2.47l.83-2.4h4.22l.82,2.4h2.47l-4.22-10.96ZM23.34,60.22l1.36-3.98h.06l1.38,3.98h-2.8Z"/>
          <path class="cls-1" d="M38.56,53.75v4.15h-4.88v-4.15h-2.24v10.96h2.24v-4.71h4.88v4.71h2.24v-10.96h-2.24Z"/>
        </g>
        <g>
          <path class="cls-1" d="M43.04,62.96l1.23-1c.77.99,1.58,1.42,2.67,1.41,1.37,0,2.21-.67,2.21-1.76,0-.89-.55-1.36-2.15-1.8l-.53-.15c-2.07-.55-3.03-1.5-3.03-2.97,0-1.81,1.5-3.15,3.58-3.15,1.46,0,2.8.7,3.67,1.91l-1.24.97c-.64-.87-1.48-1.33-2.43-1.32-1.14,0-1.91.64-1.91,1.59,0,.74.46,1.12,1.79,1.47l.53.15c2.36.65,3.39,1.64,3.4,3.29,0,1.99-1.57,3.33-3.88,3.33-1.61,0-2.89-.64-3.9-1.97Z"/>
          <path class="cls-1" d="M52.53,53.74h3.47c2.42,0,4.04,1.38,4.03,3.43,0,2.06-1.61,3.44-4.03,3.44h-1.83v4.11h-1.64v-10.97ZM56.02,59.09c1.49,0,2.36-.72,2.36-1.93,0-1.2-.88-1.92-2.36-1.91h-1.85v3.83h1.85Z"/>
          <path class="cls-1" d="M67.28,61.77h-4.59l-1.08,2.94h-1.79l4.21-10.97h1.89l4.21,10.97h-1.8l-1.06-2.94ZM66.72,60.26l-1.7-4.68h-.08l-1.71,4.68h3.49Z"/>
          <path class="cls-1" d="M70.48,59.23c0-3.21,2.4-5.7,5.47-5.7,1.85,0,3.44.9,4.41,2.3l-1.35.88c-.69-.99-1.79-1.63-3.06-1.62-2.13,0-3.8,1.82-3.8,4.14s1.67,4.15,3.8,4.14c1.27,0,2.37-.63,3.06-1.62l1.35.88c-.97,1.4-2.56,2.3-4.41,2.3-3.07,0-5.47-2.49-5.47-5.7Z"/>
          <path class="cls-1" d="M82.11,53.74h6.88v1.53h-5.24v2.99h4.82v1.47h-4.82v3.46h5.37v1.53h-7v-10.97Z"/>
        </g>
      </g>
    </g>
  </g>
</svg>