<?xml version="1.0" encoding="UTF-8"?>
<svg id="Layer_2" data-name="Layer 2" xmlns="http://www.w3.org/2000/svg" xmlns:xlink="http://www.w3.org/1999/xlink" viewBox="0 0 834.54 143.12">
  <defs>
    <style>
      .cls-1 {
        fill: #727272;
      }

      .cls-2 {
        fill: url(#_무제_그라디언트_8);
      }

      .cls-3 {
        fill: #a1a1a1;
      }

      .cls-4 {
        fill: #8bc442;
      }
    </style>
    <radialGradient id="_무제_그라디언트_8" data-name="무제 그라디언트 8" cx="66.18" cy="79.66" fx="66.18" fy="79.66" r="65.58" gradientUnits="userSpaceOnUse">
      <stop offset=".76" stop-color="#d8e6ef"/>
      <stop offset=".82" stop-color="#cadeec"/>
      <stop offset=".94" stop-color="#a8cae4"/>
      <stop offset="1" stop-color="#96c0e0"/>
    </radialGradient>
  </defs>
  <g id="_레이어_1" data-name="레이어 1">
    <g>
      <g>
        <path class="cls-3" d="M173.19.66v3.17h7.21v19.61h3.41V3.83h7.21V.66h-17.83Z"/>
        <path class="cls-3" d="M210.13,15.32c0-4.94-3.31-8.57-8.04-8.57s-8.29,3.62-8.29,8.57,3.59,8.57,8.6,8.57c3.38,0,5.88-1.67,7.17-4.28l-2.85-1.18c-.77,1.6-2.23,2.58-4.28,2.58-2.79,0-4.91-1.81-5.29-4.56h12.92c.03-.38.07-.77.07-1.11ZM197.28,13.55c.56-2.37,2.37-3.9,4.81-3.9,2.58,0,4.39,1.71,4.6,3.9h-9.4Z"/>
        <path class="cls-3" d="M224.38,20.82c-3.1.03-5.26-2.26-5.26-5.5s2.16-5.54,5.26-5.5c1.92-.03,3.38.84,4.14,2.37l2.89-1.36c-1.36-2.54-3.9-4.07-7.03-4.07-4.84,0-8.5,3.69-8.5,8.57s3.66,8.57,8.5,8.57c3.13,0,5.68-1.57,7.03-4.07l-2.89-1.36c-.77,1.53-2.23,2.4-4.14,2.37Z"/>
        <path class="cls-3" d="M246.21,6.76c-2.3,0-4.07,1.08-4.91,2.82h-.11V.66h-3.27v22.77h3.27v-8.74c0-3.38,1.95-4.91,4.07-4.88,2.16-.03,3.34,1.5,3.38,4.28v9.33h3.24v-9.86c0-4.21-2.05-6.83-5.68-6.83Z"/>
        <path class="cls-3" d="M267.49,6.76c-2.33,0-4.11,1.08-4.91,2.82h-.14v-2.37h-3.24v16.23h3.24v-8.74c0-3.38,1.95-4.91,4.11-4.88,2.12-.03,3.34,1.5,3.34,4.28v9.33h3.27v-9.86c0-4.21-2.06-6.83-5.68-6.83Z"/>
        <path class="cls-3" d="M288.1,6.76c-4.81,0-8.43,3.69-8.43,8.57s3.62,8.57,8.43,8.57,8.43-3.69,8.43-8.57-3.62-8.57-8.43-8.57ZM288.1,20.82c-3.03.03-5.19-2.26-5.19-5.5s2.16-5.54,5.19-5.5c3.03-.03,5.19,2.26,5.19,5.5s-2.16,5.54-5.19,5.5Z"/>
        <path class="cls-3" d="M303.04.66v22.77h3.24V.66h-3.24Z"/>
        <path class="cls-3" d="M321.26,6.76c-4.81,0-8.43,3.69-8.43,8.57s3.62,8.57,8.43,8.57,8.39-3.69,8.39-8.57-3.62-8.57-8.39-8.57ZM321.26,20.82c-3.07.03-5.19-2.26-5.19-5.5s2.12-5.54,5.19-5.5c3.03-.03,5.15,2.26,5.15,5.5s-2.13,5.54-5.15,5.5Z"/>
        <path class="cls-3" d="M348.38,7.21v2.33h-.14c-1.12-1.85-2.82-2.79-5.12-2.79-4.53,0-7.73,3.59-7.73,8.32s3.21,8.29,7.73,8.29c2.3,0,4.04-.94,5.12-2.79h.14v1.22c-.04,3.87-1.88,5.92-5.19,5.89-2.16.03-3.62-.8-5.01-2.79l-2.44,1.81c1.88,2.65,4.25,3.97,7.49,3.97,5.16,0,8.36-3.27,8.39-8.88V7.21h-3.24ZM343.58,20.37c-2.85,0-4.87-2.23-4.87-5.29s2.02-5.33,4.87-5.33,4.91,2.19,4.91,5.33-2.02,5.29-4.91,5.29Z"/>
        <path class="cls-3" d="M370.67,7.21l-4.56,12.33h-.18l-5.01-12.33h-3.45l6.83,16.23-2.65,6.79h3.48l8.95-23.02h-3.41Z"/>
        <path class="cls-3" d="M398.7,3.13c.56,0,1.18.07,1.88.28V.42c-.66-.24-1.46-.42-2.44-.42-3.2,0-5.12,2.02-5.12,5.43v1.78h-2.72v2.65h2.72v13.58h3.24v-13.58h4.32v-2.65h-4.32v-1.6c0-1.67.77-2.47,2.44-2.47Z"/>
        <path class="cls-3" d="M413.96,6.76c-4.84,0-8.46,3.69-8.46,8.57s3.62,8.57,8.46,8.57,8.39-3.69,8.39-8.57-3.62-8.57-8.39-8.57ZM413.96,20.82c-3.06.03-5.19-2.26-5.19-5.5s2.12-5.54,5.19-5.5c3.03-.03,5.15,2.26,5.15,5.5s-2.12,5.54-5.15,5.5Z"/>
        <path class="cls-3" d="M436.49,6.76c-1.85,0-3.41,1.15-4.25,2.89h-.1v-2.44h-3.24v16.23h3.24v-7.87c0-3.55,1.53-5.61,4.21-5.64.56.03,1.18.1,1.81.28v-3.13c-.56-.21-1.08-.31-1.67-.31Z"/>
        <path class="cls-3" d="M470.89.66v9.19h-11.42V.66h-3.41v22.77h3.41v-10.38h11.42v10.38h3.38V.66h-3.38Z"/>
        <path class="cls-3" d="M492.41,7.21v8.74c0,3.38-1.95,4.91-4.07,4.88-2.16.03-3.34-1.5-3.38-4.28V7.21h-3.24v9.85c0,4.21,2.06,6.83,5.68,6.83,2.3,0,4.07-1.08,4.94-2.82h.07v2.37h3.27V7.21h-3.27Z"/>
        <path class="cls-3" d="M520.73,6.76c-2.47,0-4.28,1.29-4.94,3.34h-.14c-.8-2.12-2.44-3.34-4.74-3.34-2.13,0-3.76,1.08-4.56,2.82h-.11v-2.37h-3.24v16.23h3.24v-8.74c0-3.38,1.74-4.91,3.69-4.88,1.92-.03,3.03,1.5,3.03,4.28v9.33h3.24v-8.74c0-3.38,1.78-4.91,3.69-4.88,1.91-.03,3.03,1.5,3.03,4.28v9.33h3.27v-9.86c-.03-4.21-1.98-6.83-5.47-6.83Z"/>
        <path class="cls-3" d="M545.66,7.21v2.4h-.11c-1.08-1.88-2.85-2.86-5.15-2.86-4.49,0-7.7,3.69-7.66,8.57-.04,4.88,3.17,8.57,7.66,8.57,2.33,0,4.07-1.01,5.15-2.89h.11v2.44h3.24V7.21h-3.24ZM540.92,20.82c-2.89.03-4.91-2.26-4.87-5.5-.03-3.24,1.99-5.54,4.87-5.5,2.82-.03,4.88,2.26,4.88,5.5s-2.06,5.54-4.88,5.5Z"/>
        <path class="cls-3" d="M564.5,6.76c-2.33,0-4.11,1.08-4.91,2.82h-.14v-2.37h-3.24v16.23h3.24v-8.74c0-3.38,1.95-4.91,4.11-4.88,2.13-.03,3.34,1.5,3.34,4.28v9.33h3.27v-9.86c0-4.21-2.06-6.83-5.68-6.83Z"/>
        <path class="cls-3" d="M577.49,7.21v16.23h3.24V7.21h-3.24ZM579.13.03c-1.22,0-2.09.87-2.05,2.05-.04,1.18.83,2.05,2.05,2.05,1.15,0,2.02-.87,2.05-2.05-.03-1.18-.9-2.05-2.05-2.05Z"/>
        <path class="cls-3" d="M596.99,9.85v-2.65h-3.93V3.17h-3.27v4.04h-2.72v2.65h2.72v8.57c0,3.41,1.88,5.47,5.01,5.47.87,0,1.64-.17,2.19-.38v-3.03c-.56.17-1.15.28-1.64.24-1.6.03-2.3-.73-2.3-2.44v-8.43h3.93Z"/>
        <path class="cls-3" d="M615.34,7.21l-4.6,12.33h-.14l-5.01-12.33h-3.45l6.83,16.23-2.65,6.79h3.45l8.98-23.02h-3.41Z"/>
      </g>
      <g>
        <path class="cls-4" d="M133.47,143.12s-2.38-11.32-24.55-16.75c26.4-22.76,29.09-65.92,5.62-91.7C91.46,7.04,46.29,4.81,20.53,29.97l13.09,13.09c18.88-17.84,51.24-15.75,67.57,4.51,25.57,29.69,3.5,77.17-35.6,77.03,0,0-46.26.01-46.26.01,12.01,10.88,27.31,18.12,43.67,18.51h70.47Z"/>
        <path class="cls-2" d="M46.55,120.41s-28.67-.01-30.73,0c-21.81-24.37-20.92-63.98,1.76-87.49l13.09,13.09c-5.05,5.39-8.55,11.92-10.46,18.88-5.22,19.02.83,43.9,26.34,55.52Z"/>
      </g>
      <g>
        <g>
          <path class="cls-1" d="M213.65,103.42c11.4-3.6,18.59-12.32,18.66-23.72-.07-14.99-12.79-25.39-31.27-25.39h-27.85v81.35h16.63v-30.45h6.52l19.55,30.45h18.88l-21.12-32.23ZM201.96,91.28h-12.15v-21.8h12.15c8.48,0,13.53,4.1,13.57,10.9-.03,6.8-5.09,10.97-13.57,10.9Z"/>
          <path class="cls-1" d="M294.92,54.31v46.09c-.04,13.18-6.52,21.12-17.2,21.12s-17.13-7.94-17.06-21.12v-46.09h-16.63v46.09c-.07,22.12,13.43,36.83,33.69,36.83s33.76-14.71,33.83-36.83v-46.09h-16.63Z"/>
          <path class="cls-1" d="M365.55,54.31h-17.52l-31.38,81.35h18.34l6.16-17.84h31.34l6.09,17.84h18.31l-31.34-81.35ZM346.42,102.28l10.11-29.56h.46l10.22,29.56h-20.8Z"/>
          <path class="cls-1" d="M459.36,54.31v30.77h-36.18v-30.77h-16.63v81.35h16.63v-34.94h36.18v34.94h16.63V54.31h-16.63Z"/>
        </g>
        <g>
          <path class="cls-1" d="M492.59,122.6l9.11-7.42c5.74,7.37,11.7,10.52,19.8,10.46,10.18.06,16.42-4.95,16.42-13.05,0-6.58-4.11-10.07-15.97-13.39l-3.94-1.13c-15.35-4.1-22.5-11.14-22.5-22.05,0-13.44,11.14-23.4,26.55-23.4,10.8,0,20.75,5.23,27.22,14.17l-9.22,7.2c-4.78-6.47-10.97-9.84-18-9.79-8.44-.06-14.17,4.78-14.17,11.81,0,5.46,3.43,8.32,13.27,10.91l3.94,1.13c17.49,4.84,25.14,12.2,25.2,24.41-.06,14.8-11.64,24.75-28.8,24.75-11.92,0-21.43-4.78-28.91-14.63Z"/>
          <path class="cls-1" d="M563.07,54.21h25.76c17.94,0,29.98,10.24,29.92,25.42.06,15.3-11.98,25.54-29.92,25.54h-13.61v30.49h-12.15V54.21ZM588.94,93.92c11.02.06,17.49-5.35,17.55-14.29-.06-8.94-6.52-14.23-17.55-14.17h-13.72v28.46h13.72Z"/>
          <path class="cls-1" d="M672.53,113.83h-34.09l-7.99,21.82h-13.27l31.27-81.45h14.06l31.27,81.45h-13.39l-7.87-21.82ZM668.37,102.58l-12.6-34.76h-.56l-12.71,34.76h25.87Z"/>
          <path class="cls-1" d="M696.27,94.93c0-23.79,17.83-42.3,40.61-42.3,13.72,0,25.54,6.69,32.74,17.1l-10.01,6.52c-5.12-7.37-13.27-12.09-22.72-12.04-15.81-.06-28.24,13.5-28.24,30.71s12.43,30.77,28.24,30.71c9.45.06,17.61-4.67,22.72-12.04l10.01,6.52c-7.2,10.41-19.01,17.1-32.74,17.1-22.78,0-40.61-18.5-40.61-42.3Z"/>
          <path class="cls-1" d="M782.57,54.21h51.07v11.36h-38.92v22.16h35.77v10.91h-35.77v25.65h39.82v11.36h-51.97V54.21Z"/>
        </g>
      </g>
    </g>
  </g>
</svg>