<?xml version="1.0" encoding="UTF-8"?>
<svg id="Layer_2" data-name="Layer 2" xmlns="http://www.w3.org/2000/svg" viewBox="0 0 1193.86 291.28">
  <defs>
    <style>
      .cls-1 {
        fill: #df6535;
      }

      .cls-2 {
        fill: #717272;
      }
    </style>
  </defs>
  <g id="_레이어_1" data-name="레이어 1">
    <g>
      <polygon class="cls-1" points="47.3 0 0 0 0 90.62 47.3 43.32 47.3 0"/>
      <polygon points="243.98 0 243.98 172.05 243.98 172.85 243.98 187.47 243.98 196.93 243.98 230.37 192.94 230.37 192.94 219.58 192.94 219.25 192.94 214.71 192.94 204.81 192.94 196.93 192.94 183.14 192.94 154.19 192.94 132.71 192.94 121.18 192.94 0 145.64 0 145.64 134.6 122.23 158.01 121.24 159 121.24 0 73.94 0 73.94 223.34 73.42 223.86 47.3 197.74 47.3 62.92 0 110.22 0 178.54 0 217.34 8.22 225.56 39.98 257.31 73.42 290.76 73.94 291.28 73.94 291.28 73.95 291.28 114.78 291.28 121.24 291.28 121.24 284.82 121.24 271.68 121.24 242.94 121.24 225.89 138.13 209.01 140.91 206.22 141.23 205.91 145.64 201.5 145.64 216.52 145.64 249.96 146.54 250.86 148.7 253.02 186.96 291.28 253.86 291.28 272.52 272.62 287.32 257.82 290.07 255.07 291.28 253.86 291.28 220.42 291.28 219.4 291.28 216.52 291.28 209.28 291.28 187.14 291.28 185.4 291.28 135.61 291.28 0 243.98 0"/>
      <path d="M364.17,136.29c-.66-1.78-.74-3.19-.25-4.25.49-1.05,1.73-1.58,3.71-1.58h16.97c1.98,0,3.93.53,5.85,1.58,1.92,1.06,3.21,2.47,3.87,4.25l29.49,75.29,29.32-75.29c.66-1.78,1.95-3.19,3.87-4.25,1.92-1.05,3.87-1.58,5.85-1.58h16.97c1.98,0,3.93.53,5.85,1.58,1.92,1.06,3.21,2.47,3.87,4.25l29.49,75.29,29.33-75.29c.66-1.78,1.95-3.19,3.87-4.25,1.92-1.05,3.87-1.58,5.85-1.58h16.97c1.98,0,3.21.53,3.71,1.58.49,1.06.41,2.47-.25,4.25l-41.02,104.94c-.66,1.78-1.95,3.19-3.87,4.25-1.92,1.06-3.87,1.58-5.85,1.58h-17.63c-1.98,0-3.93-.53-5.85-1.58-1.92-1.05-3.21-2.47-3.87-4.25l-29-74.46-29.16,74.46c-.66,1.78-1.95,3.19-3.87,4.25-1.92,1.06-3.87,1.58-5.85,1.58h-17.63c-1.98,0-3.93-.53-5.85-1.58-1.92-1.05-3.21-2.47-3.87-4.25l-41.02-104.94Z"/>
      <path d="M592.36,137.13c0-2,.6-3.61,1.81-4.83,1.21-1.22,2.8-1.83,4.78-1.83h14.83c1.98,0,3.57.61,4.78,1.83,1.21,1.22,1.81,2.83,1.81,4.83v103.28c0,2-.6,3.61-1.81,4.83-1.21,1.22-2.8,1.83-4.78,1.83h-14.83c-1.98,0-3.57-.61-4.78-1.83-1.21-1.22-1.81-2.83-1.81-4.83v-103.28Z"/>
      <path d="M640.13,153.78c-1.98,0-3.57-.61-4.78-1.83-1.21-1.22-1.81-2.83-1.81-4.83v-9.99c0-2,.6-3.61,1.81-4.83,1.21-1.22,2.8-1.83,4.78-1.83h93.91c1.98,0,3.57.61,4.78,1.83,1.21,1.22,1.81,2.83,1.81,4.83v9.99c0,2-.61,3.61-1.81,4.83-1.21,1.22-2.8,1.83-4.78,1.83h-32.95v86.62c0,2-.6,3.61-1.81,4.83-1.21,1.22-2.8,1.83-4.78,1.83h-14.83c-1.98,0-3.57-.61-4.78-1.83-1.21-1.22-1.81-2.83-1.81-4.83v-86.62h-32.95Z"/>
      <path d="M753.81,137.13c0-2,.6-3.61,1.81-4.83,1.21-1.22,2.8-1.83,4.78-1.83h14.83c1.98,0,3.57.61,4.78,1.83,1.21,1.22,1.81,2.83,1.81,4.83v39.98h65.57v-39.98c0-2,.6-3.61,1.81-4.83,1.21-1.22,2.8-1.83,4.78-1.83h14.83c1.98,0,3.57.61,4.78,1.83,1.21,1.22,1.81,2.83,1.81,4.83v103.28c0,2-.6,3.61-1.81,4.83-1.21,1.22-2.8,1.83-4.78,1.83h-14.83c-1.98,0-3.57-.61-4.78-1.83-1.21-1.22-1.81-2.83-1.81-4.83v-39.98h-65.57v39.98c0,2-.61,3.61-1.81,4.83-1.21,1.22-2.8,1.83-4.78,1.83h-14.83c-1.98,0-3.57-.61-4.78-1.83-1.21-1.22-1.81-2.83-1.81-4.83v-103.28Z"/>
      <path class="cls-1" d="M1059.92,210.42c0,5.44-.88,10.44-2.64,14.99-1.76,4.56-4.2,8.41-7.33,11.58-3.13,3.16-6.92,5.64-11.37,7.41-4.45,1.78-9.42,2.67-14.91,2.67h-54.2c-5.38,0-10.33-.89-14.83-2.67-4.5-1.77-8.35-4.25-11.53-7.41-3.19-3.17-5.66-7.02-7.41-11.58-1.76-4.55-2.64-9.55-2.64-14.99v-73.29c0-2,.6-3.61,1.81-4.83,1.21-1.22,2.8-1.83,4.78-1.83h14.83c1.98,0,3.57.61,4.78,1.83,1.21,1.22,1.81,2.83,1.81,4.83v69.96c0,5,1.51,9.02,4.53,12.08,3.02,3.06,7,4.58,11.94,4.58h37.89c4.94,0,8.92-1.53,11.95-4.58,3.02-3.05,4.53-7.08,4.53-12.08v-69.96c0-2,.6-3.61,1.81-4.83,1.21-1.22,2.8-1.83,4.78-1.83h14.83c1.98,0,3.57.61,4.78,1.83,1.21,1.22,1.81,2.83,1.81,4.83v73.29Z"/>
      <path class="cls-1" d="M1172.44,165.11c-3.52,0-5.93-2.22-7.25-6.66-.55-1.77-1.46-3-2.72-3.66-1.26-.67-3.16-1-5.68-1h-38.06c-4.83,0-8.71,1.03-11.61,3.08-2.91,2.06-4.37,4.8-4.37,8.25s1.51,6.3,4.53,8.58c3.02,2.28,7,3.42,11.94,3.42h38.22c5.49,0,10.46.81,14.91,2.42,4.45,1.61,8.26,3.83,11.45,6.66,3.18,2.83,5.66,6.25,7.41,10.24,1.76,4,2.64,8.39,2.64,13.16v5.66c0,4.78-.85,9.14-2.55,13.08-1.7,3.94-4.12,7.3-7.25,10.08-3.13,2.78-6.89,4.91-11.29,6.41-4.39,1.5-9.28,2.25-14.66,2.25h-46.95c-6.04,0-11.26-.44-15.65-1.33-4.39-.89-8.05-2.42-10.96-4.58-2.91-2.17-5.14-5.05-6.67-8.66-1.54-3.61-2.53-8.08-2.97-13.41-.22-1.89.3-3.47,1.56-4.75,1.26-1.28,2.88-1.92,4.86-1.92h13.18c3.51,0,5.93,2.22,7.25,6.66.55,1.78,1.45,3,2.72,3.66,1.26.67,3.16,1,5.68,1h39.7c4.83,0,8.7-1.03,11.61-3.08,2.91-2.05,4.37-4.8,4.37-8.25s-1.51-6.3-4.53-8.58c-3.02-2.27-7-3.42-11.94-3.42h-38.22c-5.38,0-10.33-.8-14.83-2.42-4.51-1.61-8.35-3.83-11.53-6.66-3.19-2.83-5.66-6.25-7.41-10.24-1.76-4-2.64-8.38-2.64-13.16v-5.66c0-4.77.85-9.13,2.55-13.08,1.7-3.94,4.12-7.3,7.25-10.08,3.13-2.77,6.89-4.91,11.29-6.41,4.39-1.5,9.28-2.25,14.66-2.25h45.31c6.15,0,11.39.45,15.73,1.33,4.34.89,7.96,2.42,10.87,4.58,2.91,2.17,5.13,5.05,6.67,8.66,1.54,3.61,2.53,8.08,2.97,13.41.22,1.89-.3,3.47-1.56,4.75-1.26,1.28-2.88,1.92-4.86,1.92h-13.18Z"/>
      <g>
        <path class="cls-2" d="M388.56,65.95c-.58-.34-1.14-.64-1.7-.91,1.03-1.01,1.94-2.14,2.6-3.5.85-1.74,1.27-3.39,1.27-4.97,0-2.4-.53-4.54-1.58-6.42-1.05-1.88-2.53-3.34-4.44-4.38-1.9-1.03-4.03-1.55-6.39-1.55h-14.71v45.43h18.31c2.44,0,4.6-.54,6.49-1.61,1.88-1.08,3.36-2.59,4.44-4.53,1.08-1.94,1.61-4.18,1.61-6.7,0-2.03-.55-4.05-1.64-6.08-1.1-2.03-2.51-3.62-4.25-4.78ZM377.95,49.37c2.11,0,3.82.67,5.12,2.02,1.3,1.34,1.95,3.13,1.95,5.37,0,1.99-.58,3.61-1.74,4.87-1.16,1.26-2.67,1.93-4.53,2.02h-9.31v-14.27h8.5ZM386.7,82.39c-1.32,1.41-3.06,2.11-5.21,2.11h-12.04v-15.76h12.04c2.15,0,3.89.77,5.21,2.3,1.32,1.53,1.99,3.5,1.99,5.9,0,2.23-.66,4.06-1.99,5.46Z"/>
        <path class="cls-2" d="M422.2,77.55c0,1.49-.3,2.79-.9,3.91-.6,1.12-1.46,1.98-2.58,2.58-1.12.6-2.4.9-3.85.9-2.03,0-3.65-.7-4.87-2.11-1.22-1.41-1.83-3.25-1.83-5.52v-16.88h-5.9v17.19c0,2.4.52,4.54,1.55,6.42,1.03,1.88,2.46,3.35,4.28,4.41,1.82,1.06,3.89,1.58,6.21,1.58,1.61,0,3.22-.42,4.81-1.27,1.28-.68,2.26-1.61,3.07-2.68v3.64h5.96v-29.29h-5.96v17.13Z"/>
        <path class="cls-2" d="M440.19,45.84c-1.03,0-1.87.32-2.51.96-.64.64-.96,1.46-.96,2.45s.32,1.87.96,2.51c.64.64,1.48.96,2.51.96s1.81-.32,2.45-.96c.64-.64.96-1.48.96-2.51s-.32-1.81-.96-2.45c-.64-.64-1.46-.96-2.45-.96Z"/>
        <rect class="cls-2" x="437.22" y="60.42" width="5.9" height="29.23"/>
        <rect class="cls-2" x="451.8" y="45.59" width="5.9" height="44.07"/>
        <polygon class="cls-2" points="474.08 50.24 468.18 50.24 468.18 60.42 462.72 60.42 462.72 65.57 468.18 65.57 468.18 89.72 474.08 89.72 474.08 65.57 480.97 65.57 480.97 60.42 474.08 60.42 474.08 50.24"/>
        <path class="cls-2" d="M513.49,50.74c.66-.79,1.49-1.22,2.48-1.3.58-.04,1.11.03,1.58.22.48.19,1.02.57,1.65,1.15l3.17-4.28c-.79-.75-1.8-1.32-3.04-1.74-1.24-.41-2.48-.6-3.72-.56-2.61.12-4.76,1.08-6.45,2.85-1.7,1.78-2.54,3.97-2.54,6.58v6.7h-5.15v5.21h5.15v24.14h5.9v-24.14h8.19v-5.21h-8.19v-6.7c0-1.16.33-2.13.99-2.92Z"/>
        <path class="cls-2" d="M546.04,62.28c-2.13-1.28-4.56-1.92-7.29-1.92s-5.1.63-7.23,1.89c-2.13,1.26-3.8,3.02-5,5.28-1.2,2.26-1.8,4.81-1.8,7.66s.6,5.42,1.8,7.7c1.2,2.28,2.85,4.03,4.96,5.28,2.11,1.24,4.53,1.86,7.26,1.86s5.16-.64,7.29-1.92c2.13-1.28,3.8-3.05,5-5.31,1.2-2.26,1.8-4.79,1.8-7.6s-.6-5.4-1.8-7.63c-1.2-2.23-2.87-3.99-5-5.28ZM545.92,80.31c-.68,1.47-1.64,2.61-2.85,3.41-1.22.81-2.66,1.21-4.31,1.21s-2.98-.4-4.22-1.21c-1.24-.81-2.2-1.94-2.89-3.41-.68-1.47-1.02-3.18-1.02-5.12s.34-3.6,1.02-5.09c.68-1.49,1.64-2.63,2.89-3.41,1.24-.79,2.65-1.18,4.22-1.18,1.65,0,3.09.39,4.31,1.18,1.22.79,2.17,1.92,2.85,3.41.68,1.49,1.02,3.19,1.02,5.09s-.34,3.65-1.02,5.12Z"/>
        <path class="cls-2" d="M566.96,63c-.73.64-1.29,1.37-1.77,2.14v-4.72h-5.9v29.29h5.9v-14.71c0-1.61.41-3.13,1.24-4.56.83-1.43,1.95-2.58,3.38-3.44,1.43-.87,3.01-1.28,4.75-1.24v-5.52c-1.36,0-2.71.23-4.03.68-1.32.46-2.51,1.15-3.57,2.08Z"/>
        <rect class="cls-2" x="596.59" y="44.22" width="5.83" height="45.43"/>
        <path class="cls-2" d="M649.97,62c-1.74-1.01-3.72-1.52-5.96-1.52-1.82,0-3.6.5-5.34,1.49-1.74.99-3.12,2.28-4.16,3.85-.83-1.57-2.05-2.85-3.66-3.85-1.61-.99-3.31-1.49-5.09-1.49-1.53,0-3,.47-4.41,1.4-1.14.75-2.03,1.74-2.79,2.86v-4.31h-5.9v29.29h5.9v-16.57c0-1.37.3-2.62.9-3.75.6-1.14,1.41-2.05,2.42-2.73,1.01-.68,2.16-1.02,3.44-1.02,1.74,0,3.13.64,4.19,1.92,1.06,1.28,1.58,2.98,1.58,5.09v17.07h5.96v-17.44c0-1.24.27-2.37.81-3.38.54-1.01,1.31-1.81,2.33-2.39,1.01-.58,2.18-.87,3.51-.87,1.78,0,3.21.64,4.28,1.92,1.08,1.28,1.61,2.98,1.61,5.09v17.07h5.9v-17.32c0-2.32-.49-4.38-1.46-6.18-.97-1.8-2.33-3.21-4.06-4.22Z"/>
        <path class="cls-2" d="M685.59,62.31c-2.11-1.26-4.51-1.89-7.2-1.89-1.57,0-3.25.45-5.03,1.33-1.58.79-2.83,1.9-3.79,3.29v-4.62h-5.9v42.45h5.9v-17.58c.64.9,1.39,1.7,2.3,2.34,1.07.77,2.19,1.35,3.35,1.74,1.16.39,2.21.59,3.17.59,2.69,0,5.09-.62,7.2-1.86,2.11-1.24,3.76-2.99,4.97-5.24,1.2-2.25,1.8-4.81,1.8-7.66s-.6-5.4-1.8-7.63c-1.2-2.23-2.85-3.98-4.97-5.24ZM685.44,80.28c-.68,1.49-1.67,2.63-2.95,3.41-1.28.79-2.75,1.18-4.41,1.18-1.49,0-2.89-.42-4.19-1.27-1.3-.85-2.34-2.03-3.1-3.54-.77-1.51-1.15-3.15-1.15-4.93s.38-3.36,1.15-4.87c.76-1.51,1.8-2.69,3.1-3.54,1.3-.85,2.7-1.27,4.19-1.27,1.65,0,3.12.39,4.41,1.18,1.28.79,2.27,1.92,2.95,3.41.68,1.49,1.02,3.21,1.02,5.15s-.34,3.6-1.02,5.09Z"/>
        <path class="cls-2" d="M720.78,65.07c-1.07-1.41-2.32-2.51-3.76-3.28-1.64-.87-3.3-1.3-5-1.3-2.69,0-5.08.63-7.17,1.89-2.09,1.26-3.73,3.02-4.93,5.28-1.2,2.26-1.8,4.81-1.8,7.66s.6,5.34,1.8,7.57c1.2,2.23,2.84,3.98,4.93,5.24,2.09,1.26,4.48,1.89,7.17,1.89,1.12,0,2.22-.18,3.32-.53,1.1-.35,2.14-.91,3.13-1.68.83-.64,1.58-1.46,2.3-2.4v4.3h5.9v-29.29h-5.9v4.65ZM719.66,80.22c-.79,1.49-1.83,2.65-3.13,3.48-1.3.83-2.7,1.24-4.19,1.24-1.61,0-3.05-.39-4.31-1.18-1.26-.79-2.25-1.92-2.95-3.41-.7-1.49-1.06-3.17-1.06-5.03s.35-3.65,1.06-5.12c.7-1.47,1.68-2.61,2.95-3.41,1.26-.81,2.7-1.21,4.31-1.21,1.49,0,2.89.41,4.19,1.24,1.3.83,2.35,2,3.13,3.51.79,1.51,1.18,3.18,1.18,5s-.39,3.41-1.18,4.9Z"/>
        <path class="cls-2" d="M742.87,67.19c1.32-.79,2.83-1.18,4.53-1.18,1.24,0,2.5.29,3.79.87,1.28.58,2.34,1.33,3.17,2.23l4.1-3.97c-1.36-1.41-3.04-2.55-5.03-3.44-1.99-.89-3.91-1.33-5.77-1.33-2.9,0-5.46.63-7.7,1.89-2.23,1.26-3.99,3.02-5.28,5.28-1.28,2.26-1.92,4.81-1.92,7.66s.64,5.4,1.92,7.63c1.28,2.23,3.04,3.98,5.28,5.24,2.23,1.26,4.8,1.89,7.7,1.89,1.82,0,3.76-.43,5.8-1.3,2.05-.87,3.71-2.01,4.99-3.41l-4.16-3.97c-.83.91-1.88,1.65-3.17,2.23-1.28.58-2.52.87-3.72.87-1.7,0-3.21-.38-4.53-1.15-1.32-.77-2.36-1.84-3.1-3.23-.74-1.39-1.12-2.99-1.12-4.81s.37-3.36,1.12-4.75c.74-1.39,1.78-2.47,3.1-3.26Z"/>
        <polygon class="cls-2" points="780.73 60.42 773.84 60.42 773.84 50.24 767.95 50.24 767.95 60.42 762.48 60.42 762.48 65.57 767.95 65.57 767.95 89.72 773.84 89.72 773.84 65.57 780.73 65.57 780.73 60.42"/>
      </g>
    </g>
  </g>
</svg>