<?xml version="1.0" encoding="UTF-8"?>
<svg id="Layer_2" xmlns="http://www.w3.org/2000/svg" version="1.1" viewBox="0 0 1160.7 1163.1">
  <!-- Generator: Adobe Illustrator 29.0.0, SVG Export Plug-In . SVG Version: 2.1.0 Build 186)  -->
  <defs>
    <style>
      .st0 {
        fill: #eb6734;
      }

      .st0, .st1 {
        stroke: #000;
        stroke-linejoin: round;
        stroke-width: 40px;
      }

      .st1 {
        fill: #fff;
      }
    </style>
  </defs>
  <g id="_레이어_1">
    <g>
      <polygon points="243.5 68 65.6 68 65.6 408.7 243.5 230.8 243.5 68"/>
      <polygon points="982.9 68 982.9 714.8 982.9 717.8 982.9 772.8 982.9 808.3 982.9 934.1 791 934.1 791 893.5 791 892.3 791 875.2 791 838 791 808.3 791 756.5 791 647.7 791 566.9 791 523.5 791 68 613.2 68 613.2 574 525.2 662 521.5 665.7 521.5 68 343.6 68 343.6 907.7 341.7 909.6 243.5 811.4 243.5 304.5 65.6 482.3 65.6 739.2 65.6 885.1 96.5 916 215.9 1035.4 341.7 1161.1 343.6 1163.1 343.6 1163.1 343.6 1163.1 497.2 1163.1 521.5 1163.1 521.5 1138.8 521.5 1089.4 521.5 981.3 521.5 917.2 584.9 853.8 595.4 843.3 596.6 842.1 613.2 825.5 613.2 882 613.2 1007.7 616.6 1011.1 624.7 1019.2 768.5 1163.1 1020 1163.1 1090.2 1092.9 1145.8 1037.3 1156.2 1026.9 1160.7 1022.4 1160.7 896.7 1160.7 892.8 1160.7 882 1160.7 854.8 1160.7 771.5 1160.7 765 1160.7 577.8 1160.7 68 982.9 68"/>
    </g>
  </g>
  <g id="_레이어_11" data-name="_레이어_1">
    <g>
      <polygon class="st0" points="197.9 20.1 20.1 20.1 20.1 360.8 197.9 183 197.9 20.1"/>
      <polygon class="st1" points="937.4 20.1 937.4 666.9 937.4 669.9 937.4 724.9 937.4 760.5 937.4 886.2 745.5 886.2 745.5 845.6 745.5 844.4 745.5 827.3 745.5 790.1 745.5 760.5 745.5 708.6 745.5 599.8 745.5 519 745.5 475.7 745.5 20.1 567.6 20.1 567.6 526.1 479.6 614.2 475.9 617.9 475.9 20.1 298.1 20.1 298.1 859.8 296.1 861.7 197.9 763.5 197.9 256.6 20.1 434.5 20.1 691.3 20.1 837.2 51 868.1 170.4 987.5 296.1 1113.2 298.1 1115.2 298.1 1115.2 298.1 1115.2 451.6 1115.2 475.9 1115.2 475.9 1090.9 475.9 1041.5 475.9 933.4 475.9 869.4 539.4 805.9 549.9 795.4 551 794.2 567.6 777.6 567.6 834.1 567.6 959.8 571 963.2 579.2 971.4 723 1115.2 974.5 1115.2 1044.7 1045 1100.3 989.4 1110.6 979.1 1115.2 974.5 1115.2 848.8 1115.2 845 1115.2 834.1 1115.2 806.9 1115.2 723.7 1115.2 717.1 1115.2 529.9 1115.2 20.1 937.4 20.1"/>
    </g>
  </g>
</svg>