<?xml version="1.0" encoding="UTF-8"?>
<svg id="Layer_2" data-name="Layer 2" xmlns="http://www.w3.org/2000/svg" viewBox="0 0 1095.11 1095.11">
  <defs>
    <style>
      .cls-1 {
        fill: #fff;
      }

      .cls-2 {
        fill: #eb6734;
      }
    </style>
  </defs>
  <g id="_레이어_1" data-name="레이어 1">
    <g>
      <polygon class="cls-2" points="177.84 0 0 0 0 340.7 177.84 162.86 177.84 0"/>
      <polygon class="cls-1" points="917.27 0 917.27 646.83 917.27 649.83 917.27 704.8 917.27 740.37 917.27 866.09 725.39 866.09 725.39 825.54 725.39 824.3 725.39 807.23 725.39 770 725.39 740.37 725.39 688.53 725.39 579.71 725.39 498.94 725.39 455.57 725.39 0 547.55 0 547.55 506.04 459.54 594.06 455.83 597.77 455.83 0 277.99 0 277.99 839.69 276.04 841.64 177.84 743.44 177.84 236.55 0 414.38 0 671.24 0 817.1 30.91 848.01 150.29 967.39 276.04 1093.14 277.99 1095.09 277.99 1095.11 278.01 1095.11 431.53 1095.11 455.83 1095.11 455.83 1070.81 455.83 1021.42 455.83 913.35 455.83 849.27 519.31 785.79 529.78 775.32 530.96 774.13 547.55 757.54 547.55 814.03 547.55 939.75 550.94 943.14 559.07 951.27 702.91 1095.11 954.41 1095.11 1024.59 1024.94 1080.21 969.31 1090.55 958.98 1095.11 954.41 1095.11 828.69 1095.11 824.87 1095.11 814.03 1095.11 786.83 1095.11 703.58 1095.11 697.05 1095.11 509.84 1095.11 0 917.27 0"/>
    </g>
  </g>
</svg>