<?xml version="1.0" encoding="UTF-8"?>
<svg id="Layer_2" data-name="Layer 2" xmlns="http://www.w3.org/2000/svg" viewBox="0 0 1158.6 1158.59">
  <defs>
    <style>
      .cls-1 {
        fill: #eb6734;
      }
    </style>
  </defs>
  <g id="_레이어_1" data-name="레이어 1">
    <g>
      <polygon class="cls-1" points="188.15 0 0 0 0 360.45 188.15 172.3 188.15 0"/>
      <polygon points="970.45 0 970.45 684.33 970.45 687.51 970.45 745.66 970.45 783.29 970.45 916.3 767.45 916.3 767.45 873.4 767.45 872.09 767.45 854.02 767.45 814.63 767.45 783.29 767.45 728.44 767.45 613.31 767.45 527.86 767.45 481.98 767.45 0 579.3 0 579.3 535.38 486.18 628.5 482.25 632.43 482.25 0 294.1 0 294.1 888.37 292.04 890.43 188.15 786.53 188.15 250.26 0 438.4 0 710.15 0 864.47 32.7 897.17 159 1023.47 292.04 1156.51 294.1 1158.57 294.1 1158.59 294.13 1158.59 456.55 1158.59 482.25 1158.59 482.25 1132.89 482.25 1080.64 482.25 966.3 482.25 898.51 549.42 831.34 560.49 820.27 561.75 819.01 579.3 801.46 579.3 861.22 579.3 994.23 582.88 997.81 591.48 1006.41 743.66 1158.59 1009.74 1158.59 1083.98 1084.35 1142.84 1025.5 1153.77 1014.57 1158.6 1009.74 1158.6 876.73 1158.6 872.69 1158.6 861.22 1158.6 832.44 1158.6 744.36 1158.6 737.46 1158.6 539.4 1158.6 0 970.45 0"/>
    </g>
  </g>
</svg>