<svg height="496pt" viewBox="0 -28 496.00306 496" width="496pt" xmlns="http://www.w3.org/2000/svg" xmlns:xlink="http://www.w3.org/1999/xlink"><linearGradient id="a" gradientUnits="userSpaceOnUse" x1="248.002667" x2="248.002667" y1="-14.82047" y2="452.69753"><stop offset="0" stop-color="#00efd1"/><stop offset="1" stop-color="#00acea"/></linearGradient><path d="m481.792969 268.730469-31.253907-13.433594-26.289062-51.292969c-6.679688-13.160156-20.164062-21.476562-34.921875-21.535156h-46.324219v-47.976562c.027344-2.113282-.789062-4.148438-2.269531-5.652344-1.480469-1.507813-3.5-2.363282-5.613281-2.371094h-29.527344c-5.992188-63-59.757812-126.46875-137.589844-126.46875-43.726562 0-79.242187 21.46875-102.269531 45.957031l.742187-17.789062c.183594-4.414063-3.246093-8.140625-7.660156-8.324219-4.417968-.183594-8.144531 3.246094-8.328125 7.660156l-1.6875 40.414063c-.089843 2.238281.757813 4.414062 2.347657 5.996093 1.585937 1.582032 3.761718 2.425782 6.003906 2.328126l.304687-.011719c.632813.046875 1.269531.015625 1.898438-.085938l35.675781-1.585937c4.414062-.195313 7.835938-3.933594 7.640625-8.347656-.195313-4.417969-3.933594-7.835938-8.347656-7.640626l-19.152344.851563c20.066406-22.203125 52.882813-43.410156 92.832031-43.410156 34.054688-.125 66.523438 14.382812 89.148438 39.835937 17.878906 19.84375 29.515625 45.621094 32.335937 70.621094h-28.578125c-6.683594-45-45.800781-80.144531-92.90625-80.144531-47.105468 0-86.222656 35.144531-92.90625 80.144531h-67.335937c-2.097657.015625-4.101563.875-5.5625 2.382812-1.460938 1.507813-2.2500002 3.542969-2.19531275 5.640626v227.015624c0 13.046876 10.37499975 23.960938 23.42187475 23.960938h7.457031c-.097656 1-.167968 2.464844-.167968 3.800781.109375 27.421875 22.367187 49.59375 49.789062 49.605469s49.695313-22.144531 49.828125-49.570312c0-1.328126-.066406-2.832032-.171875-3.832032h228.082032c-.101563 1-.171876 2.46875-.171876 3.800782-.007812 27.507812 22.28125 49.816406 49.792969 49.828124 27.507813.011719 49.816407-22.28125 49.828125-49.789062 0-1.328125-.070312-2.832031-.171875-3.832031h15.058594c13.046875-.011719 23.425781-10.925781 23.425781-23.972657v-71.035156c.054688-9.441406-5.542968-18-14.210937-21.742187zm-92.464844-70.261719c8.769531.0625 16.769531 5.019531 20.730469 12.84375l21.621094 42.15625h-88.675782v-55zm-285.292969-102.515625c3.644532 3.402344 7.550782 6.511719 11.683594 9.300781-2.542969 8.867188-4.0625 18-4.523438 27.214844h-20.703124c1.25-13.144531 5.917968-25.734375 13.542968-36.515625zm141.476563 36.515625h-20.699219c-.457031-9.199219-1.96875-18.316406-4.5-27.175781 4.136719-2.765625 8.042969-5.863281 11.683594-9.257813 7.613281 10.753906 12.273437 23.316406 13.515625 36.433594zm-134.316407 16c.542969 9.15625 2.058594 18.226562 4.523438 27.058594-4.132812 2.789062-8.039062 5.898437-11.683594 9.304687-7.464844-10.804687-12.121094-23.304687-13.542968-36.363281zm24.144532 34.257812c7.792968-3.59375 16.125-5.871093 24.664062-6.742187v37.558594c-10.636718-7.445313-19.007812-18.003907-24.664062-30.816407zm40.664062 30.816407v-37.59375c8.550782.828125 16.902344 3.089843 24.703125 6.683593-5.65625 12.855469-14.042969 23.445313-24.703125 30.910157zm0-53.675781v-11.398438h32.765625c-.457031 6.410156-1.429687 12.777344-2.914062 19.03125-9.457031-4.191406-19.546875-6.769531-29.851563-7.632812zm0-27.398438v-11.800781c10.296875-.789063 20.386719-3.296875 29.855469-7.421875 1.554687 6.304687 2.527344 12.738281 2.910156 19.222656zm0-27.871094v-37.601562c10.664063 7.460937 19.050782 18.058594 24.707032 30.917968-7.804688 3.597657-16.15625 5.859376-24.707032 6.6875zm-16-.023437c-8.542968-.863281-16.882812-3.140625-24.675781-6.742188 5.660156-12.824219 14.03125-23.390625 24.675781-30.839843zm0 16.054687v11.839844h-32.765625c.382813-6.519531 1.367188-12.988281 2.933594-19.328125 9.460937 4.128906 19.542969 6.660156 29.832031 7.492187zm0 27.839844v11.433594c-10.300781.898437-20.382812 3.496094-29.832031 7.6875-1.570313-6.269532-2.550781-12.671875-2.933594-19.121094zm-38.539062 42.488281c3.109375 6.746094 7.011718 13.105469 11.617187 18.933594-6.796875-3.425781-13.058593-7.828125-18.585937-13.0625 2.207031-2.089844 4.53125-4.054687 6.96875-5.871094zm93.105468-.070312c2.4375 1.832031 4.765626 3.808593 6.964844 5.917969-5.53125 5.246093-11.804687 9.65625-18.613281 13.085937 4.621094-5.847656 8.535156-12.230469 11.648437-19.003906zm17.421876-6.136719c-3.636719-3.394531-7.546876-6.488281-11.683594-9.253906 2.453125-8.824219 3.960937-17.882813 4.5-27.027344h20.699218c-1.414062 13.03125-6.0625 25.5-13.515624 36.28125zm-17.421876-95.101562c-3.117187-6.773438-7.027343-13.15625-11.652343-19.007813 6.816406 3.433594 13.089843 7.847656 18.628906 13.097656-2.207031 2.109375-4.535156 4.082031-6.976563 5.914063zm-93.109374-.0625c-2.4375-1.820313-4.765626-3.78125-6.976563-5.871094 5.53125-5.242188 11.796875-9.644532 18.601563-13.074219-4.609376 5.832031-8.511719 12.191406-11.625 18.945313zm46.542968 144.574218c51.011719.027344 92.707032-40.691406 93.890625-91.691406h28.167969c-1.167969 27-13.277344 56.214844-32.910156 78.003906-22.621094 25.460938-55.089844 39.976563-89.148438 39.855469-34.292968 0-65.953125-14.214844-89.144531-40.007813-19.632813-21.832031-31.742187-50.851562-32.914063-77.851562h28.167969c1.179688 51 42.875 91.71875 93.890625 91.691406zm-87.480468 188.761719c-18.671876.003906-33.8125-15.136719-33.8125-33.808594s15.140624-33.808593 33.8125-33.808593c18.671874 0 33.808593 15.136718 33.808593 33.808593-.019531 18.664063-15.144531 33.789063-33.808593 33.808594zm0-83.316406c-19.839844-.160157-37.835938 11.617187-45.628907 29.863281h-11.46875c-4.222656 0-7.421875-3.734375-7.421875-7.960938v-219.039062h13.929688c1.171875 31 14.816406 63.851562 37.027344 88.554688 26.265624 29.210937 62.152343 45.292968 101.042968 45.292968 80.863282 0 135.742188-68.847656 138.070313-133.847656h20.929687v227h-200.851562c-7.792969-18.246094-25.789063-30.023438-45.628906-29.863281zm327.355468 83.316406c-18.671875 0-33.808594-15.136719-33.808594-33.808594s15.136719-33.808593 33.808594-33.808593c18.675782 0 33.8125 15.136718 33.8125 33.808593-.023437 18.664063-15.148437 33.789063-33.8125 33.808594zm72.125-61.414063c0 4.226563-3.203125 7.960938-7.425781 7.960938h-19.070313c-7.921874-18.140625-25.835937-29.863281-45.628906-29.863281-19.792968 0-37.707031 11.722656-45.625 29.863281h-19.25v-100h100.152344l32.324219 13.941406c2.792969 1.230469 4.574219 4.015625 4.523437 7.0625zm0 0" fill="url(#a)"/></svg>