<?xml version="1.0"?>
<svg xmlns="http://www.w3.org/2000/svg" xmlns:xlink="http://www.w3.org/1999/xlink" id="Layer_1" data-name="Layer 1" viewBox="0 0 512 512" width="512" height="512"><defs><linearGradient id="linear-gradient" x1="373.5" y1="20" x2="373.5" y2="482.973" gradientUnits="userSpaceOnUse"><stop offset="0" stop-color="#00efd1"/><stop offset="1" stop-color="#00acea"/></linearGradient><linearGradient id="linear-gradient-2" x1="373" y1="20" x2="373" y2="482.973" xlink:href="#linear-gradient"/><linearGradient id="linear-gradient-3" x1="256" y1="20" x2="256" y2="482.973" xlink:href="#linear-gradient"/></defs><title>Internet</title><path d="M417.645,355H414v-8.993a40.682,40.682,0,0,0-12.2-28.985,39.74,39.74,0,0,0-28.381-11.537A40.582,40.582,0,0,0,333,346.007V355h-3.779A8.143,8.143,0,0,0,321,362.942v70.44c0,4.418,3.8,7.618,8.221,7.618h88.424c4.418,0,8.355-3.2,8.355-7.618v-70.44A8.262,8.262,0,0,0,417.645,355ZM349,346.007A24.505,24.505,0,0,1,373.4,321.485a23.967,23.967,0,0,1,17.081,6.9A24.842,24.842,0,0,1,398,346.007V355H349ZM410,425H337V371h73Z" style="fill:url(#linear-gradient)"/><path d="M373,415.9a8,8,0,0,0,8-8V397.413a8,8,0,0,0-16,0V407.9A8,8,0,0,0,373,415.9Z" style="fill:url(#linear-gradient-2)"/><path d="M425.226,274.831a202.645,202.645,0,0,0,5.272-46c0-111.2-90.467-201.666-201.665-201.666S27.167,117.634,27.167,228.833,117.634,430.5,228.833,430.5a202.651,202.651,0,0,0,46-5.272A111.384,111.384,0,1,0,425.226,274.831Zm-51.793-12.8a111.2,111.2,0,0,0-28.373,3.751A284.853,284.853,0,0,0,347.241,237h67.066a193.812,193.812,0,0,1-4.037,31.384A110.949,110.949,0,0,0,373.433,262.033ZM83.46,344.271A185.653,185.653,0,0,1,43.351,237h67.062a270.4,270.4,0,0,0,12.358,75.551A201.135,201.135,0,0,0,83.46,344.271Zm39.314-198.952A271.361,271.361,0,0,0,110.413,221H43.351A183.473,183.473,0,0,1,83.46,113.6,201.074,201.074,0,0,0,122.774,145.319ZM374.232,113.6A183.55,183.55,0,0,1,414.314,221H347.252a270.659,270.659,0,0,0-12.3-75.451A199.377,199.377,0,0,0,374.232,113.6ZM331.25,221H237V175.16a200.576,200.576,0,0,0,83.77-21.609A256.757,256.757,0,0,1,331.25,221ZM237,159.147V45.732c36,19.222,62.8,51.527,78.591,92.448A182.178,182.178,0,0,1,237,159.147Zm-16-.035a183.95,183.95,0,0,1-78.514-21.133C158.292,97.153,185,64.923,221,45.732Zm0,16.013V221H126.416a257.121,257.121,0,0,1,10.708-67.651A199.25,199.25,0,0,0,221,175.125ZM126.415,237H221v45.537a199.354,199.354,0,0,0-83.88,21.941A255.842,255.842,0,0,1,126.415,237ZM221,298.554V411.943c-36-19.195-62.71-51.428-78.516-92.256A184.109,184.109,0,0,1,221,298.554Zm41.033,74.879a111.631,111.631,0,0,0,1.916,20.159A186.044,186.044,0,0,1,237,411.926V298.5a181.9,181.9,0,0,1,47.434,8.122A110.888,110.888,0,0,0,262.033,373.433Zm33.9-79.862A198.132,198.132,0,0,0,237,282.5V237h94.234a268.391,268.391,0,0,1-3.152,34.793A111.36,111.36,0,0,0,295.937,293.571ZM363.7,101.362a183.221,183.221,0,0,1-34.271,28.62c-13.414-33.633-34.008-61.841-60.581-82.46A185.659,185.659,0,0,1,363.7,101.362ZM188.823,47.522C162.3,68.105,141.728,96.248,128.312,129.8a185.256,185.256,0,0,1-34.318-28.466A185.664,185.664,0,0,1,188.823,47.522ZM93.994,356.329a185.2,185.2,0,0,1,34.315-28.465c13.414,33.549,33.978,61.691,60.5,82.275A185.658,185.658,0,0,1,93.994,356.329Zm279.439,112.5a95.4,95.4,0,1,1,95.4-95.4A95.508,95.508,0,0,1,373.433,468.833Z" style="fill:url(#linear-gradient-3)"/></svg>
