<?xml version="1.0"?>
<svg xmlns="http://www.w3.org/2000/svg" xmlns:xlink="http://www.w3.org/1999/xlink" id="Layer_1" data-name="Layer 1" viewBox="0 0 512 512" width="512" height="512"><defs><linearGradient id="linear-gradient" x1="416.562" y1="20.644" x2="416.562" y2="491.864" gradientUnits="userSpaceOnUse"><stop offset="0" stop-color="#00efd1"/><stop offset="1" stop-color="#00acea"/></linearGradient><linearGradient id="linear-gradient-2" x1="416.562" y1="20.644" x2="416.562" y2="491.864" xlink:href="#linear-gradient"/><linearGradient id="linear-gradient-3" x1="251" y1="20.644" x2="251" y2="491.864" xlink:href="#linear-gradient"/><linearGradient id="linear-gradient-4" x1="85.5" y1="20.644" x2="85.5" y2="491.864" xlink:href="#linear-gradient"/><linearGradient id="linear-gradient-6" x1="415.687" y1="20.644" x2="415.687" y2="491.864" xlink:href="#linear-gradient"/><linearGradient id="linear-gradient-7" x1="416.125" y1="20.644" x2="416.125" y2="491.864" xlink:href="#linear-gradient"/></defs><title>Goals</title><path d="M438.757,233.027l-30.622,28.905-13.529-13.891A8,8,0,1,0,383.145,259.2l19.023,19.533a8,8,0,0,0,11.223.236l36.349-34.31a8,8,0,0,0-10.983-11.636Z" style="fill:url(#linear-gradient)"/><path d="M416.562,190.249A65.751,65.751,0,1,0,482.313,256,65.826,65.826,0,0,0,416.562,190.249Zm0,115.5A49.751,49.751,0,1,1,466.313,256,49.807,49.807,0,0,1,416.562,305.751Z" style="fill:url(#linear-gradient-2)"/><path d="M332.407,252.983c-.09-.22-.191-.434-.3-.644-.012-.023-.021-.046-.033-.069-.116-.22-.243-.432-.378-.64-.008-.012-.015-.024-.022-.036a8.039,8.039,0,0,0-1.07-1.3l-36.614-36.614A8,8,0,0,0,282.678,225l23,23H177a8,8,0,0,0,0,16H305.682l-23,23a8,8,0,1,0,11.313,11.314L330.605,261.7a8.039,8.039,0,0,0,1.07-1.3c.007-.012.014-.024.022-.036.135-.208.262-.42.378-.64.012-.023.021-.046.033-.069.108-.21.209-.424.3-.644.006-.015.01-.031.017-.046a7.95,7.95,0,0,0,0-5.942C332.417,253.014,332.413,253,332.407,252.983Z" style="fill:url(#linear-gradient-3)"/><path d="M141,208a8,8,0,0,0-8-8H38a8,8,0,0,0-8,8v95a8,8,0,0,0,8,8h95a8,8,0,0,0,8-8Zm-16,88H46V216h79Z" style="fill:url(#linear-gradient-4)"/><path d="M329.354,419.294l-35.363-35.363a8,8,0,1,0-11.313,11.314L305.433,418H177a8,8,0,0,0,0,16H305.931l-23.253,23.253a8,8,0,1,0,11.313,11.314l36.661-36.661a7.976,7.976,0,0,0,2.34-5.742c0-.055.008-.108.008-.164A7.989,7.989,0,0,0,329.354,419.294Z" style="fill:url(#linear-gradient-3)"/><path d="M415.687,360.5a65.751,65.751,0,1,0,65.751,65.751A65.825,65.825,0,0,0,415.687,360.5Zm0,115.5a49.751,49.751,0,1,1,49.751-49.751A49.807,49.807,0,0,1,415.687,476Z" style="fill:url(#linear-gradient-6)"/><path d="M438.752,403.622a8,8,0,0,0-11.314,0l-11.313,11.314-11.314-11.314A8,8,0,1,0,393.5,414.935l11.314,11.314L393.5,437.563a8,8,0,1,0,11.314,11.313l11.314-11.314,11.313,11.314a8,8,0,1,0,11.314-11.313l-11.314-11.314,11.314-11.314A8,8,0,0,0,438.752,403.622Z" style="fill:url(#linear-gradient-7)"/><path d="M141,379a8,8,0,0,0-8-8H38a8,8,0,0,0-8,8v95a8,8,0,0,0,8,8h95a8,8,0,0,0,8-8Zm-16,87H46V387h79Z" style="fill:url(#linear-gradient-4)"/><path d="M330.652,80.094,293.991,43.433a8,8,0,0,0-11.313,11.314L305.931,78H177a8,8,0,0,0,0,16H305.433l-22.755,22.755a8,8,0,1,0,11.313,11.314l35.363-35.363A7.989,7.989,0,0,0,333,86c0-.056-.007-.109-.008-.164A7.976,7.976,0,0,0,330.652,80.094Z" style="fill:url(#linear-gradient-3)"/><path d="M415.687,151.5a65.751,65.751,0,1,0-65.751-65.751A65.826,65.826,0,0,0,415.687,151.5Zm0-115.5a49.751,49.751,0,1,1-49.751,49.751A49.807,49.807,0,0,1,415.687,36Z" style="fill:url(#linear-gradient-6)"/><path d="M393.5,108.378a8,8,0,0,0,11.314,0l11.314-11.314,11.313,11.314a8,8,0,1,0,11.314-11.313L427.438,85.751l11.314-11.314a8,8,0,1,0-11.314-11.313L416.125,74.438,404.811,63.124A8,8,0,0,0,393.5,74.437l11.314,11.314L393.5,97.065A8,8,0,0,0,393.5,108.378Z" style="fill:url(#linear-gradient-7)"/><path d="M141,38a8,8,0,0,0-8-8H38a8,8,0,0,0-8,8v95a8,8,0,0,0,8,8h95a8,8,0,0,0,8-8Zm-16,87H46V46h79Z" style="fill:url(#linear-gradient-4)"/></svg>
