<svg height="469pt" viewBox="-42 0 469 469.40675" width="469pt" xmlns="http://www.w3.org/2000/svg" xmlns:xlink="http://www.w3.org/1999/xlink"><linearGradient id="a"><stop offset="0" stop-color="#00efd1"/><stop offset="1" stop-color="#00acea"/></linearGradient><linearGradient id="b" gradientUnits="userSpaceOnUse" x1="304.523375" x2="304.523375" xlink:href="#a" y1="38.048745" y2="408.776745"/><linearGradient id="c" gradientUnits="userSpaceOnUse" x1="275.195375" x2="275.195375" xlink:href="#a" y1="38.048745" y2="408.776745"/><linearGradient id="d" gradientUnits="userSpaceOnUse" x1="247.115375" x2="247.115375" xlink:href="#a" y1="38.048745" y2="408.776745"/><linearGradient id="e" gradientUnits="userSpaceOnUse" x1="79.883375" x2="79.883375" xlink:href="#a" y1="38.048745" y2="408.776745"/><linearGradient id="f" gradientUnits="userSpaceOnUse" x1="109.211375" x2="109.211375" xlink:href="#a" y1="38.048745" y2="408.776745"/><linearGradient id="g" gradientUnits="userSpaceOnUse" x1="137.291375" x2="137.291375" xlink:href="#a" y1="38.048745" y2="408.776745"/><linearGradient id="h" gradientUnits="userSpaceOnUse" x1="82.653375" x2="82.653375" xlink:href="#a" y1="38.048745" y2="408.776745"/><linearGradient id="i" gradientUnits="userSpaceOnUse" x1="297.136375" x2="297.136375" xlink:href="#a" y1="38.048745" y2="408.776745"/><linearGradient id="j" gradientUnits="userSpaceOnUse" x1="323.151375" x2="323.151375" xlink:href="#a" y1="38.048745" y2="408.776745"/><linearGradient id="k" gradientUnits="userSpaceOnUse" x1="271.120375" x2="271.120375" xlink:href="#a" y1="38.048745" y2="408.776745"/><linearGradient id="l" gradientUnits="userSpaceOnUse" x1="192.203375" x2="192.203375" xlink:href="#a" y1="38.048745" y2="408.776745"/><linearGradient id="m" gradientUnits="userSpaceOnUse" x1="297.703375" x2="297.703375" xlink:href="#a" y1="38.048745" y2="408.776745"/><path d="m278.355469 12.40625c26.054687 20.480469 41.1875 51.84375 41.007812 84.980469.09375 33.222656-15.03125 64.65625-41.042969 85.320312-3.023437 2.410157-3.519531 6.816407-1.109374 9.835938 2.410156 3.023437 6.816406 3.519531 9.839843 1.109375 29.351563-23.3125 46.414063-58.78125 46.3125-96.265625.191407-37.433594-16.914062-72.855469-46.351562-95.980469-3.042969-2.289062-7.355469-1.726562-9.710938 1.265625s-1.886719 7.316406 1.054688 9.734375zm0 0" fill="url(#b)"/><path d="m254.910156 37.019531c18.441406 14.605469 29.199219 36.839844 29.199219 60.367188.132813 23.53125-10.625 45.800781-29.144531 60.324219-1.984375 1.539062-2.996094 4.023437-2.644532 6.507812.347657 2.488281 2.003907 4.597656 4.335938 5.527344 2.332031.933594 4.984375.542968 6.949219-1.019532 21.910156-17.167968 34.648437-43.503906 34.5-71.339843.011719-27.78125-12.679688-54.042969-34.449219-71.300781-3.019531-2.414063-7.421875-1.925782-9.839844 1.09375-2.414062 3.019531-1.925781 7.425781 1.09375 9.839843zm0 0" fill="url(#c)"/><path d="m232.742188 133.742188c-1.980469 1.558593-2.96875 4.058593-2.59375 6.550781.378906 2.488281 2.066406 4.585937 4.417968 5.488281 2.351563.898438 5.007813.46875 6.953125-1.132812 14.277344-11.398438 22.589844-28.679688 22.578125-46.949219.148438-18.339844-8.222656-35.707031-22.660156-47.015625-1.96875-1.570313-4.628906-1.960938-6.96875-1.027344-2.339844.9375-3.992188 3.058594-4.332031 5.554688-.339844 2.496093.683593 4.980468 2.6875 6.511718 10.933593 8.757813 17.292969 22.015625 17.277343 36.027344-.015624 14.011719-6.40625 27.257812-17.359374 35.992188zm0 0" fill="url(#d)"/><path d="m97.355469 193.652344c3.023437 2.410156 7.429687 1.914062 9.839843-1.109375 2.410157-3.019531 1.914063-7.425781-1.105468-9.835938-26.015625-20.664062-41.136719-52.097656-41.046875-85.320312-.179688-33.136719 14.957031-64.5 41.007812-84.980469 2.941407-2.417969 3.410157-6.742188 1.054688-9.734375-2.355469-2.992187-6.667969-3.554687-9.710938-1.265625-29.433593 23.125-46.542969 58.546875-46.351562 95.980469-.101563 37.484375 16.960937 72.953125 46.3125 96.265625zm0 0" fill="url(#e)"/><path d="m120.804688 168.726562c3.042968 2.355469 7.417968 1.8125 9.792968-1.214843 2.375-3.027344 1.859375-7.40625-1.152344-9.800781-18.515624-14.523438-29.273437-36.792969-29.140624-60.324219 0-23.285157 10.65625-45.300781 29.238281-60.398438 3-2.4375 3.457031-6.847656 1.015625-9.847656-2.4375-3-6.84375-3.457031-9.84375-1.019531-21.875 17.769531-34.410156 43.742187-34.410156 71.265625-.144532 27.835937 12.589843 54.171875 34.5 71.339843zm0 0" fill="url(#f)"/><path d="m142.886719 144.648438c3.015625 2.371093 7.378906 1.875 9.78125-1.113282 2.40625-2.988281 1.957031-7.355468-1.003907-9.792968-10.953124-8.734376-17.34375-21.980469-17.359374-35.992188-.015626-14.011719 6.34375-27.269531 17.277343-36.027344 2.003907-1.53125 3.03125-4.015625 2.6875-6.511718-.339843-2.496094-1.992187-4.617188-4.332031-5.554688-2.339844-.933594-5-.542969-6.96875 1.027344-14.4375 11.308594-22.808594 28.675781-22.664062 47.015625-.007813 18.269531 8.304687 35.550781 22.582031 46.949219zm0 0" fill="url(#g)"/><path d="m107.550781 364.40625h-18.347656v-18.179688c0-3.863281-3.132813-7-7-7s-7 3.136719-7 7v18.179688h-17.445313c-3.867187 0-7 3.132812-7 7s3.132813 7 7 7h17.445313v17.617188c0 3.863281 3.132813 7 7 7s7-3.136719 7-7v-17.617188h18.347656c3.867188 0 7-3.132812 7-7s-3.132812-7-7-7zm0 0" fill="url(#h)"/><path d="m301.582031 336.40625h-8.890625c-3.863281 0-7 3.132812-7 7s3.136719 7 7 7h8.890625c3.863281 0 7-3.132812 7-7s-3.136719-7-7-7zm0 0" fill="url(#i)"/><path d="m301.582031 388.40625h-8.890625c-3.863281 0-7 3.132812-7 7s3.136719 7 7 7h8.890625c3.863281 0 7-3.132812 7-7s-3.136719-7-7-7zm0 0" fill="url(#i)"/><path d="m327.597656 362.40625h-8.894531c-3.867187 0-7 3.132812-7 7s3.132813 7 7 7h8.890625c3.863281 0 7-3.132812 7-7s-3.136719-7-7-7zm0 0" fill="url(#j)"/><path d="m275.5625 362.40625h-8.886719c-3.863281 0-7 3.132812-7 7s3.136719 7 7 7h8.886719c3.867188 0 7-3.132812 7-7s-3.132812-7-7-7zm0 0" fill="url(#k)"/><path d="m351.601562 269.40625h-76.398437v-6.390625c-.074219-18.058594-14.757813-32.648437-32.816406-32.609375h-43.183594v-99.597656c17.125-3.589844 28.765625-19.539063 26.960937-36.9375-1.800781-17.402344-16.464843-30.628906-33.960937-30.628906s-32.160156 13.226562-33.960937 30.628906c-1.804688 17.398437 9.839843 33.347656 26.960937 36.9375v99.597656h-43.183594c-18.058593-.039062-32.738281 14.550781-32.816406 32.609375v6.390625h-76.394531c-18.042969 0-32.605469 15.011719-32.605469 33.054688v133.726562c0 18.042969 14.5625 33.21875 32.605469 33.21875h318.792968c18.039063 0 32.601563-15.175781 32.601563-33.21875v-133.726562c0-18.042969-14.5625-33.054688-32.601563-33.054688zm-179.542968-172.019531c0-11.125 9.019531-20.144531 20.144531-20.144531s20.144531 9.019531 20.144531 20.144531-9.019531 20.144531-20.144531 20.144531c-11.121094-.011719-20.132813-9.023438-20.144531-20.144531zm-48.855469 165.628906c.066406-10.332031 8.488281-18.65625 18.816406-18.609375h100.367188c10.332031-.046875 18.75 8.277344 18.816406 18.609375v6.390625h-138zm46 97.390625h46v5.054688c0 12.449218-10.550781 22.578124-23 22.578124s-23-10.128906-23-22.578124zm0-14v-24h46v24zm0-38v-25h46v25zm201 127.78125c0 10.320312-8.285156 19.21875-18.601563 19.21875h-318.792968c-10.320313 0-18.605469-8.898438-18.605469-19.21875v-133.726562c0-10.324219 8.285156-19.054688 18.605469-19.054688h122.394531v82.054688c0 20.167968 16.832031 36.578124 37 36.578124s37-16.410156 37-36.578124v-82.054688h122.398437c10.316407 0 18.601563 8.730469 18.601563 19.054688zm0 0" fill="url(#l)"/><path d="m297.703125 304.105469c-35.402344 0-64.101563 28.699219-64.101563 64.101562 0 35.402344 28.699219 64.101563 64.101563 64.101563s64.101563-28.699219 64.101563-64.101563c-.039063-35.386719-28.714844-64.0625-64.101563-64.101562zm0 114.203125c-27.667969 0-50.101563-22.433594-50.101563-50.101563s22.433594-50.101562 50.101563-50.101562 50.101563 22.433593 50.101563 50.101562c-.035157 27.652344-22.445313 50.0625-50.101563 50.09375zm0 0" fill="url(#m)"/></svg>