<svg height="488pt" viewBox="0 -27 488 487" width="488pt" xmlns="http://www.w3.org/2000/svg" xmlns:xlink="http://www.w3.org/1999/xlink"><linearGradient id="a"><stop offset="0" stop-color="#00efd1"/><stop offset="1" stop-color="#00acea"/></linearGradient><linearGradient id="b" gradientUnits="userSpaceOnUse" x1="111.448" x2="111.448" xlink:href="#a" y1="-3.5" y2="433.984"/><linearGradient id="c" gradientUnits="userSpaceOnUse" x1="181.305" x2="181.305" xlink:href="#a" y1="-3.5" y2="433.984"/><linearGradient id="d" gradientUnits="userSpaceOnUse" x1="293" x2="293" xlink:href="#a" y1="-3.5" y2="433.984"/><linearGradient id="e" gradientUnits="userSpaceOnUse" x1="246" x2="246" xlink:href="#a" y1="-3.5" y2="433.984"/><linearGradient id="f" gradientUnits="userSpaceOnUse" x1="244" x2="244" xlink:href="#a" y1="-3.5" y2="433.984"/><linearGradient id="g" gradientUnits="userSpaceOnUse" x1="439" x2="439" xlink:href="#a" y1="-3.5" y2="433.984"/><linearGradient id="h" gradientUnits="userSpaceOnUse" x1="393" x2="393" xlink:href="#a" y1="-3.5" y2="433.984"/><path d="m125.421875 196.425781c-4.421875 0-8 3.578125-8 8 .027344 2.148438-1.105469 4.152344-2.964844 5.234375-1.859375 1.085938-4.15625 1.085938-6.015625 0-1.859375-1.082031-2.992187-3.085937-2.964844-5.234375 0-4.421875-3.582031-8-8-8-4.417968 0-8 3.578125-8 8-.054687 7.882813 4.125 15.191407 10.941407 19.148438 6.820312 3.960937 15.238281 3.960937 22.058593 0 6.820313-3.957031 10.996094-11.265625 10.945313-19.148438 0-4.421875-3.582031-8-8-8zm0 0" fill="url(#b)"/><path d="m181.304688 226.398438c12.128906-.015626 21.957031-9.84375 21.972656-21.96875 0-4.421876-3.582032-8-8-8-4.417969 0-8 3.578124-8 8 0 3.296874-2.675782 5.96875-5.972656 5.96875-3.296876 0-5.96875-2.671876-5.96875-5.96875 0-4.421876-3.582032-8-8-8-4.421876 0-8 3.578124-8 8 .011718 12.125 9.839843 21.953124 21.96875 21.96875zm0 0" fill="url(#c)"/><path d="m293 192.652344c-4.417969 0-8 3.582031-8 8v34.953125c0 4.417969 3.582031 8 8 8s8-3.582031 8-8v-34.953125c0-4.417969-3.582031-8-8-8zm0 0" fill="url(#d)"/><path d="m246 192.652344c-4.417969 0-8 3.582031-8 8v34.953125c0 4.417969 3.582031 8 8 8s8-3.582031 8-8v-34.953125c0-4.417969-3.582031-8-8-8zm0 0" fill="url(#e)"/><path d="m293 130.816406c-4.417969 0-8 3.582032-8 8v34.953125c0 4.417969 3.582031 8 8 8s8-3.582031 8-8v-34.953125c0-4.417968-3.582031-8-8-8zm0 0" fill="url(#d)"/><path d="m293 66.980469c-4.417969 0-8 3.582031-8 8v34.953125c0 4.417968 3.582031 8 8 8s8-3.582032 8-8v-34.953125c0-4.417969-3.582031-8-8-8zm0 0" fill="url(#d)"/><path d="m246 66.980469c-4.417969 0-8 3.582031-8 8v34.953125c0 4.417968 3.582031 8 8 8s8-3.582032 8-8v-34.953125c0-4.417969-3.582031-8-8-8zm0 0" fill="url(#e)"/><path d="m462.839844 121.5h-104.839844v-56.757812c-.109375-13.902344-11.359375-25.144532-25.265625-25.242188h-9.734375v-13.710938c.039062-13.855468-11.105469-25.144531-24.960938-25.289062h-57.109374c-13.847657.148438-24.980469 11.441406-24.929688 25.289062v13.710938h-8.914062c-12.5.0625-23.054688 9.296875-24.785157 21.675781-2.089843-.820312-4.21875-1.53125-6.386719-2.207031l-2.074218-11.855469c-.664063-3.832031-3.996094-6.625-7.882813-6.613281h-35.667969c-3.894531 0-7.222656 2.804688-7.882812 6.640625l-2.074219 12.03125c-35.9375 11.066406-61.550781 42.855469-64.722656 80.328125h-1.609375c-4.417969 0-8 3.582031-8 8v29c0 4.417969 3.582031 8 8 8h4v35.871094c.003906 24.039062 9.441406 47.117187 26.285156 64.269531 3.640625 3.664063 7.558594 7.050781 11.714844 10.121094v15.738281h-31.953125c-35.246094 0-64.046875 29.066406-64.046875 64.3125v49.429688c.0390625 4.492187 3.636719 8.148437 8.128906 8.257812h279.988282c4.445312-.132812 7.957031-3.8125 7.882812-8.257812v-49.429688c-.054688-10.917969-2.742188-21.660156-7.839844-31.3125h61.601563c.261719 0 .523437-.015625.777343-.039062.257813.023437.519532.039062.78125.039062h128.550782c4.417968 0 8.128906-3.109375 8.128906-7.53125v-189.421875c-.074219-13.847656-11.3125-25.035156-25.160156-25.046875zm-230.839844-95.710938c-.0625-5.015624 3.914062-9.152343 8.929688-9.289062h57.109374c5.019532.132812 9.007813 4.265625 8.960938 9.289062v13.710938h-75zm-102.691406 47.472657c3.070312-.773438 5.398437-3.28125 5.933594-6.402344l1.785156-10.359375h22.191406l1.78125 10.289062c.542969 3.101563 2.875 5.585938 5.933594 6.324219 2.472656.621094 4.882812 1.371094 7.242187 2.214844l-1.347656 24.695313c-.3125 5.308593-4.699219 9.460937-10.015625 9.476562h-28.578125c-5.320313-.015625-9.707031-4.167969-10.019531-9.476562l-1.429688-24.800782c2.128906-.738281 4.304688-1.40625 6.523438-1.960937zm-22.117188 9.4375 1.050782 18.25c.808593 13.769531 12.199218 24.527343 25.992187 24.550781h28.578125c13.800781-.023438 25.195312-10.796875 25.992188-24.578125l.976562-17.878906c19.53125 12.59375 32.308594 33.347656 34.765625 56.457031h-152.847656c2.488281-23.375 15.574219-44.316406 35.492187-56.800781zm-45.191406 85.800781v-13h168v13zm12 51.871094v-35.871094h148v35.871094c0 19.863281-7.800781 38.929687-21.714844 53.101562-13.621094 14.277344-32.492187 22.355469-52.222656 22.355469s-38.601562-8.078125-52.222656-22.355469c-13.949219-14.160156-21.792969-33.222656-21.839844-53.101562zm74.109375 91.464844c12.367187.019531 24.601563-2.582032 35.890625-7.636719v10.25l-36.953125 22.902343-35.046875-22.785156v-10.464844c11.347656 5.125 23.660156 7.761719 36.109375 7.734376zm-132.109375 62.976562c0-26.421875 21.621094-48.3125 48.046875-48.3125h37.753906l37.199219 24.667969v65.332031h-123zm264 41.6875h-125v-65.21875l39.132812-24.78125h38.066407c26.421875 0 47.800781 21.890625 47.800781 48.3125zm62-89h-66.371094c-11.410156-10-26.671875-17-43.425781-17h-32.203125v-15.578125c4.1875-3.136719 8.140625-6.570313 11.824219-10.28125 16.8125-17.164063 26.210937-40.242187 26.175781-64.269531v-35.871094c2.417969 0 4.703125-1.09375 6.21875-2.972656.605469.160156 1.230469.242187 1.855469.242187 2.113281 0 4.140625-.847656 5.628906-2.351562 1.484375-1.5 2.3125-3.53125 2.296875-5.648438v-34.953125c.023438-3.371094-2.085938-6.390625-5.257812-7.53125-3.175782-1.140625-6.722657-.148437-8.847657 2.46875-3.976562-26.882812-18.894531-50.246094-41.894531-64.472656v-4.539062c.015625-5.035157 4.050781-9.140626 9.085938-9.242188h125.648437c5.070313.085938 9.167969 4.171875 9.265625 9.242188zm130 0h-114v-190h104.839844c5.015625.003906 9.09375 4.03125 9.160156 9.046875zm0 0" fill="url(#f)"/><path d="m439 269.644531c-4.417969 0-8 3.582031-8 8v34.957031c0 4.417969 3.582031 8 8 8s8-3.582031 8-8v-34.957031c0-4.417969-3.582031-8-8-8zm0 0" fill="url(#g)"/><path d="m393 269.644531c-4.417969 0-8 3.582031-8 8v34.957031c0 4.417969 3.582031 8 8 8s8-3.582031 8-8v-34.957031c0-4.417969-3.582031-8-8-8zm0 0" fill="url(#h)"/><path d="m439 209.214844c-4.417969 0-8 3.582031-8 8v34.953125c0 4.417969 3.582031 8 8 8s8-3.582031 8-8v-34.953125c0-4.417969-3.582031-8-8-8zm0 0" fill="url(#g)"/><path d="m393 209.214844c-4.417969 0-8 3.582031-8 8v34.953125c0 4.417969 3.582031 8 8 8s8-3.582031 8-8v-34.953125c0-4.417969-3.582031-8-8-8zm0 0" fill="url(#h)"/><path d="m439 148.78125c-4.417969 0-8 3.582031-8 8v34.953125c0 4.417969 3.582031 8 8 8s8-3.582031 8-8v-34.953125c0-4.417969-3.582031-8-8-8zm0 0" fill="url(#g)"/><path d="m393 148.78125c-4.417969 0-8 3.582031-8 8v34.953125c0 4.417969 3.582031 8 8 8s8-3.582031 8-8v-34.953125c0-4.417969-3.582031-8-8-8zm0 0" fill="url(#h)"/><path d="m293 255.96875c-4.417969 0-8 3.578125-8 8v34.953125c0 4.417969 3.582031 8 8 8s8-3.582031 8-8v-34.953125c0-4.421875-3.582031-8-8-8zm0 0" fill="url(#d)"/><path d="m246 255.96875c-4.417969 0-8 3.578125-8 8v34.953125c0 4.417969 3.582031 8 8 8s8-3.582031 8-8v-34.953125c0-4.421875-3.582031-8-8-8zm0 0" fill="url(#e)"/></svg>