<svg height="492pt" viewBox="0 -1 492 492" width="492pt" xmlns="http://www.w3.org/2000/svg" xmlns:xlink="http://www.w3.org/1999/xlink"><linearGradient id="a"><stop offset="0" stop-color="#00efd1"/><stop offset="1" stop-color="#00acea"/></linearGradient><linearGradient id="b" gradientUnits="userSpaceOnUse" x1="246" x2="246" xlink:href="#a" y1="27.001946" y2="463.459946"/><linearGradient id="c" gradientUnits="userSpaceOnUse" x1="246.05" x2="246.05" xlink:href="#a" y1="27.001946" y2="463.459946"/><path d="m484.546875 202.238281-46.101563-4.445312c-4.875-19.574219-12.785156-38.265625-23.445312-55.390625l29.234375-35.292969c2.621094-3.171875 2.410156-7.8125-.488281-10.734375l-48.605469-49.101562c-2.917969-2.949219-7.605469-3.179688-10.800781-.527344l-35.351563 29.3125c-17.1875-10.546875-35.878906-18.421875-55.429687-23.355469l-4.445313-45.667969c-.414062-4.0625-3.882812-7.1249998-7.964843-7.035156h-69.699219c-4.078125-.0898438-7.546875 2.96875-7.960938 7.03125l-4.445312 45.769531c-19.597657 4.804688-38.320313 12.65625-55.484375 23.265625l-35.296875-29.300781c-3.175781-2.636719-7.835938-2.429687-10.757813.480469l-49.203125 49.101562c-2.925781 2.917969-3.144531 7.582032-.507812 10.765625l29.300781 35.328125c-10.542969 17.167969-18.429688 35.828125-23.402344 55.347656l-46.234375 4.449219c-4.144531.378907-7.351562 3.800781-7.457031 7.964844v69.597656c.101562 4.164063 3.308594 7.585938 7.453125 7.964844l46.101563 4.445313c4.875 19.574218 12.785156 38.265624 23.445312 55.390624l-29.234375 35.292969c-2.636719 3.1875-2.410156 7.855469.519531 10.769531l49.207032 49.101563c2.921874 2.917969 7.582031 3.132813 10.761718.5l35.355469-29.316406c17.191406 10.546875 35.878906 18.425781 55.433594 23.359375l4.445312 45.667968c.417969 4.058594 3.882813 7.117188 7.960938 7.023438h69.699219c4.082031.09375 7.550781-2.964844 7.964843-7.027344l4.445313-45.769531c19.597656-4.804687 38.320312-12.652344 55.480468-23.265625l35.300782 29.300781c3.175781 2.636719 7.832031 2.429688 10.757812-.480469l49.199219-49.097656c2.925781-2.917968 3.144531-7.582031.507813-10.765625l-29.300782-35.328125c10.542969-17.167968 18.433594-35.832031 23.402344-55.355468l45.640625-4.445313c4.148437-.378906 7.351563-3.800781 7.453125-7.964844v-69.597656c-.101562-4.164063-3.308594-7.585937-7.453125-7.964844zm-8.546875 70.308594-44.101562 4.292969c-3.46875.332031-6.339844 2.835937-7.140626 6.226562-4.863281 21.640625-13.589843 42.226563-25.757812 60.769532-1.921875 2.929687-1.710938 6.769531.515625 9.472656l28.332031 34.183594-38.890625 38.800781-34.199219-28.351563c-2.714843-2.253906-6.582031-2.460937-9.523437-.515625-18.480469 12.242188-39.089844 20.910157-60.765625 25.550781-3.378906.640626-5.9375 3.429688-6.285156 6.847657l-4.296875 44.175781h-55.175781l-4.300782-44.171875c-.339844-3.449219-2.898437-6.269531-6.296875-6.949219-21.660156-4.769531-42.277343-13.425781-60.84375-25.558594-2.9375-1.875-6.753906-1.632812-9.429687.601563l-34.199219 28.363281-38.882813-38.796875 28.339844-34.179687c2.253906-2.722656 2.457032-6.597656.5-9.535156-12.257812-18.445313-20.953125-39.023438-25.628906-60.671876-.84375-3.425781-3.761719-5.9375-7.273438-6.257812l-44.695312-4.304688v-55.074218l44.695312-4.300782c3.472657-.324218 6.351563-2.832031 7.152344-6.226562 4.859375-21.636719 13.582032-42.222656 25.75-60.769531 1.921875-2.929688 1.710938-6.769531-.519531-9.472657l-28.328125-34.183593 38.890625-38.800781 34.199219 28.351562c2.714844 2.25 6.582031 2.460938 9.523437.515625 18.476563-12.246094 39.089844-20.914063 60.765625-25.554687 3.378906-.644532 5.933594-3.429688 6.285156-6.847657l4.296876-44.175781h55.175781l4.300781 44.175781c.34375 3.449219 2.898438 6.269531 6.300781 6.949219 21.660157 4.769531 42.273438 13.425781 60.84375 25.558594 2.9375 1.875 6.753907 1.632812 9.429688-.601563l34.160156-28.335937 38.347656 38.734375-28.378906 34.222656c-2.25 2.71875-2.453125 6.59375-.5 9.535156 12.265625 18.441407 20.960937 39.015625 25.640625 60.664063.839844 3.425781 3.761719 5.9375 7.273438 6.257812l44.699218 4.300782zm0 0" fill="url(#b)"/><path d="m246.050781 87.226562c-87.121093 0-158 70.777344-158 157.773438 0 87 70.875 157.777344 158 157.777344 87.121094 0 158-70.777344 158-157.777344 0-86.996094-70.878906-157.773438-158-157.773438zm-.050781 136c-5.492188 0-10.222656-3.878906-11.292969-9.269531-1.074219-5.386719 1.808594-10.78125 6.886719-12.886719 5.074219-2.101562 10.929688-.324218 13.980469 4.242188 3.054687 4.570312 2.453125 10.65625-1.429688 14.542969-2.15625 2.167969-5.089843 3.382812-8.144531 3.375zm48 155.195313v-101.421875h29.828125c4.523437-.164062 8.121094-3.851562 8.171875-8.375v-26.199219c4.28125-1.355469 8.179688-3.707031 11.371094-6.863281 10.746094-10.765625 10.730468-28.207031-.035156-38.949219-10.765626-10.746093-28.207032-10.730469-38.949219.035157-5.1875 5.234374-8.089844 12.308593-8.066407 19.679687 0 7.347656 2.859376 13.679687 8.058594 19.679687h.082032c3.351562 2.921876 7.285156 5.105469 11.539062 6.414063v18.578125h-29.925781c-4.417969 0-8.074219 3.203125-8.074219 7.625v114.515625c-7.890625 1.8125-15.917969 2.949219-24 3.410156v-148.496093c13.023438-3.960938 21.183594-16.867188 19.179688-30.332032-2.003907-13.46875-13.566407-23.4375-27.179688-23.4375s-25.175781 9.96875-27.179688 23.4375c-2.003906 13.464844 6.15625 26.371094 19.179688 30.332032v148.492187c-8.777344-.460937-17.484375-1.789063-26-3.96875v-113.953125c0-4.421875-3.859375-7.625-8.277344-7.625h-27.722656v-18.578125c4.332031-1.351563 8.289062-3.703125 11.542969-6.863281 8.820312-8.789063 10.632812-22.40625 4.417969-33.195313-6.214844-10.789062-18.90625-16.054687-30.933594-12.832031-12.027344 3.21875-20.386719 14.121094-20.378906 26.570312-.050782 7.292969 2.824218 14.300782 7.976562 19.457032 3.195312 3.15625 7.09375 5.507812 11.375 6.863281v26.199219c.046875 4.527344 3.644531 8.214844 8.171875 8.378906h27.828125v100.570312c-55.257812-20.714843-91.851562-73.554687-91.808594-132.570312 0-78.171875 63.628906-141.773438 141.929688-141.773438 78.296875 0 141.925781 63.601563 141.925781 141.773438-.019531 59.875-37.664063 113.28125-94.046875 133.425781zm21.6875-154.183594c-4.496094-4.496093-4.496094-11.785156 0-16.285156 4.5-4.496094 11.789062-4.496094 16.285156 0 4.5 4.5 4.5 11.789063.003906 16.285156-2.152343 2.179688-5.082031 3.40625-8.144531 3.410157-3.0625 0-5.996093-1.226563-8.144531-3.40625zm-155.660156 0c-4.496094-4.496093-4.496094-11.789062 0-16.285156s11.789062-4.496094 16.285156 0 4.496094 11.789063 0 16.285156c-2.148438 2.179688-5.082031 3.40625-8.140625 3.40625-3.0625 0-5.992187-1.222656-8.144531-3.402343zm0 0" fill="url(#c)"/></svg>