<svg height="472pt" viewBox="0 -16 472 472" width="472pt" xmlns="http://www.w3.org/2000/svg" xmlns:xlink="http://www.w3.org/1999/xlink"><linearGradient id="a"><stop offset="0" stop-color="#00efd1"/><stop offset="1" stop-color="#00acea"/></linearGradient><linearGradient id="b" gradientUnits="userSpaceOnUse" x1="235.989" x2="235.989" xlink:href="#a" y1="6.198376" y2="444.216376"/><linearGradient id="c" gradientUnits="userSpaceOnUse" x1="236" x2="236" xlink:href="#a" y1="6.198376" y2="444.216376"/><path d="m231.914062 214.824219c14.730469 14.726562 38.609376 14.726562 53.335938 0l10.648438-10.742188c2.488281 1.417969 5.308593 2.148438 8.171874 2.117188h.09375c4.351563.03125 8.527344-1.707031 11.570313-4.820313l6.757813-6.863281c6.214843-6.394531 6.160156-16.589844-.128907-22.914063l-31.898437-31.886718c-3.082032-3.078125-7.269532-4.796875-11.625-4.773438-4.359375.027344-8.523438 1.796875-11.566406 4.910156l-6.757813 6.910157c-4.144531 4.261719-5.652344 10.433593-3.9375 16.125l-5.066406 5.070312c-.410157.4375-.980469.691407-1.582031.703125-.601563.007813-1.179688-.226562-1.601563-.65625l-45.660156-45.664062-.082031-.085938c-.714844-.886718-.65625-2.167968.140624-2.984375l4.988282-4.992187c5.808594 1.859375 12.167968.320312 16.480468-3.992188l6.882813-6.882812c6.355469-6.371094 6.355469-16.6875 0-23.0625l-31.902344-31.898438c-6.367187-6.371094-16.691406-6.371094-23.0625 0l-6.882812 6.882813c-5.152344 5.171875-6.246094 13.136719-2.675781 19.503906l-10.648438 10.652344c-14.726562 14.726562-14.726562 38.605469 0 53.332031zm38.609376-58.269531 6.757812-6.789063c.4375-.417969 1.035156-.625 1.640625-.566406h.011719c.597656-.0625 1.191406.140625 1.628906.550781l31.902344 31.835938c.890625.882812.898437 2.320312.015625 3.214843l-6.757813 6.898438c-.511718.453125-1.175781.699219-1.859375.6875-.667969-.0625-1.3125-.296875-1.863281-.6875l-31.679688-31.902344c-.824218-.957031-.730468-2.394531.203126-3.242187zm-91.390626-91.332032 6.882813-6.882812c.902344-.902344 2.363281-.902344 3.261719 0l31.902344 31.898437c.898437.902344.898437 2.363281 0 3.265625l-6.882813 6.882813c-.902344.898437-2.363281.898437-3.265625 0l-31.898438-31.902344c-.902343-.898437-.902343-2.359375 0-3.261719zm-13.324218 30.15625 10.207031-10.210937 20.5 20.5-3.640625 3.640625c-6.042969 6.058594-6.382812 15.753906-.777344 22.21875.25.285156.511719.558594.722656.765625l45.65625 45.65625c6.339844 6.285156 16.566407 6.265625 22.878907-.050781l3.746093-3.742188 20.5 20.5-10.261718 10.257812c-9.257813 9.261719-24.273438 9.261719-33.53125 0l-76.011719-76.007812c-9.261719-9.261719-9.261719-24.273438 0-33.535156zm0 0" fill="url(#b)"/><path d="m464.992188 129.199219h-94.15625c-3.085938-72.230469-62.539063-129.199219-134.835938-129.199219s-131.75 56.96875-134.835938 129.199219h-94.15625c-1.839843-.046875-3.617187.652343-4.933593 1.929687-1.316407 1.28125-2.0664065 3.039063-2.074219 4.875v297.59375c0 3.867188 3.140625 6.601563 7.007812 6.601563h457.984376c3.867187 0 7.007812-2.734375 7.007812-6.601563v-297.59375c-.007812-1.835937-.757812-3.59375-2.074219-4.875-1.316406-1.277344-3.09375-1.976562-4.933593-1.929687zm-228.992188 140.726562c71.652344 0 130.4375-56.726562 134.707031-126.726562h76.976563l-211.683594 197.816406-211.714844-197.816406h77.007813c4.269531 70 63.054687 126.726562 134.707031 126.726562zm-80.96875 14.402344-141.03125 132.777344v-264.546875zm10.253906 9.378906 65.9375 61.707031c1.289063 1.226563 2.996094 1.917969 4.777344 1.9375 1.773438.011719 3.480469-.65625 4.777344-1.863281l68.453125-64.152343 138.785156 134.863281h-423.664063zm154.191406-11.730469 138.523438-129.445312v264.242188zm-83.476562-268.179687c66.808594.003906 120.964844 54.160156 120.964844 120.96875 0 66.804687-54.15625 120.964844-120.964844 120.964844s-120.964844-54.15625-120.96875-120.964844c.074219-66.777344 54.191406-120.894531 120.96875-120.96875zm0 0" fill="url(#c)"/></svg>