<svg height="440pt" viewBox="-4 0 440 440.11327" width="440pt" xmlns="http://www.w3.org/2000/svg" xmlns:xlink="http://www.w3.org/1999/xlink"><linearGradient id="a"><stop offset="0" stop-color="#00efd1"/><stop offset="1" stop-color="#00acea"/></linearGradient><linearGradient id="b" gradientUnits="userSpaceOnUse" x1="216.144181" x2="216.144181" xlink:href="#a" y1="6.037229" y2="444.055229"/><linearGradient id="c" gradientUnits="userSpaceOnUse" x1="216.179181" x2="216.179181" xlink:href="#a" y1="6.037229" y2="444.055229"/><path d="m369.160156 63.488281c-40.359375-40.726562-95.355468-63.582031-152.691406-63.4492185h-.289062v-.0390625c-83.488282-.121094-159.554688 47.921875-195.320313 123.359375-35.761719 75.4375-24.808594 164.738281 28.132813 229.292969l-33.359376 77.699218c-.925781 2.164063-.703124 4.648438.59375 6.613282 1.296876 1.964844 3.496094 3.148437 5.847657 3.148437.40625 0 .8125-.03125 1.214843-.101562l119.46875-20.964844c23.25 8.609375 47.847657 13.007813 72.640626 12.992187h.789062c87.324219.011719 166.066406-52.550781 199.539062-133.203124 33.476563-80.648438 15.101563-173.523438-46.566406-235.347657zm-10.304687 295.578125c-37.800781 37.894532-89.167969 59.125-142.691407 58.972656h-.285156c-23.902344.042969-47.609375-4.28125-69.957031-12.761718-1.179687-.445313-2.460937-.5625-3.703125-.34375l-108.597656 19.042968 29.972656-69.769531c1.050781-2.453125.617188-5.292969-1.121094-7.320312-31.1875-36.359375-48.339844-82.683594-48.34375-130.589844.011719-111.554687 90.777344-202.320313 202.332032-202.335937 111.410156.15625 201.921874 90.914062 201.769531 202.324218.074219 53.613282-21.308594 105.027344-59.375 142.78125zm0 0" fill="url(#b)"/><path d="m332.84375 196.039062h-14.664062v-16.855468c0-52.792969-44.996094-96.035156-100.5-96.402344-55.484376 0-100.5 43.242188-100.5 96.402344v16.855468h-17.667969c-4.011719.175782-7.210938 3.417969-7.332031 7.433594v82.648438c.164062 3.914062 3.417968 6.980468 7.332031 6.917968h49.777343c1.835938.011719 3.601563-.710937 4.898438-2.011718 1.296875-1.300782 2.011719-3.070313 1.992188-4.90625v-82.648438c0-3.867187-3.023438-7.433594-6.890626-7.433594h-18.109374v-16.855468c0-45.433594 38.734374-82.402344 86.453124-82.402344 47.792969.3125 86.546876 37.277344 86.546876 82.402344v16.855468h-17.578126c-4.03125.167969-7.261718 3.398438-7.421874 7.433594v82.648438c0 3.867187 3.554687 6.917968 7.421874 6.917968h13.578126v18.964844c.023437 3.472656-1.351563 6.8125-3.816407 9.261719-2.464843 2.453125-5.808593 3.8125-9.285156 3.773437h-27.589844c-3.390625-12.835937-16.03125-20.941406-29.109375-18.667968-13.078125 2.273437-22.242187 14.167968-21.105468 27.394531 1.140624 13.222656 12.203124 23.378906 25.476562 23.382813 11.300781.179687 21.316406-7.246094 24.429688-18.109376h27.898437c7.1875.035157 14.09375-2.800781 19.179687-7.875 5.089844-5.078124 7.941407-11.976562 7.921876-19.160156v-18.964844h18.664062c3.917969.0625 7.171875-3.003906 7.335938-6.917968v-82.648438c-.121094-4.015625-3.320313-7.257812-7.335938-7.433594zm-190.664062 83h-36v-69h36zm92.570312 64.25c-6.390625 0-11.570312-5.179687-11.570312-11.570312 0-6.386719 5.179687-11.566406 11.570312-11.566406 6.386719 0 11.566406 5.179687 11.566406 11.570312-.007812 6.382813-5.183594 11.558594-11.566406 11.566406zm91.429688-64.25h-33v-69h33zm0 0" fill="url(#c)"/></svg>