<svg height="442pt" viewBox="-29 0 442 442.00088" width="442pt" xmlns="http://www.w3.org/2000/svg" xmlns:xlink="http://www.w3.org/1999/xlink"><linearGradient id="lg1"><stop offset="0" stop-color="#00efd1"/><stop offset="1" stop-color="#00acea"/></linearGradient><linearGradient id="linear0" gradientUnits="userSpaceOnUse" x1="191.75144" x2="191.75144" xlink:href="#lg1" y1="-17.232559" y2="445.436441"/><linearGradient id="linear1" gradientUnits="userSpaceOnUse" x1="162.42744" x2="162.42744" xlink:href="#lg1" y1="-17.232559" y2="445.436441"/><linearGradient id="linear2" gradientUnits="userSpaceOnUse" x1="118.84144" x2="118.84144" xlink:href="#lg1" y1="-17.232559" y2="445.436441"/><path d="m321.199219 44.902344-13.410157 13.386718-54.265624-56.460937c-1.132813-1.171875-2.691407-1.83203125-4.324219-1.828125h-242.832031c-3.382813-.0390625-6.191407 2.597656-6.367188 5.972656v430.054688c.175781 3.378906 2.984375 6.011718 6.367188 5.972656h317.933593c1.558594-.003906 3.046875-.644531 4.121094-1.773438 1.074219-1.125 1.644531-2.640624 1.578125-4.199218v-296.699219l42.789062-42.699219c9.328126-9.199218 13.015626-22.6875 9.667969-35.351562-3.351562-12.664063-13.226562-22.566406-25.878906-25.949219-12.65625-3.382813-26.15625.269531-35.378906 9.574219zm-116.554688 203.296875-35.003906-35.003907 132.796875-132.601562 34.800781 34.800781zm-40.75-23.777344 29.523438 29.523437-43.152344 13.628907zm124.035157-146.421875h-32.929688v-57.125l44.199219 45.832031zm30.070312 352h-306v-418h231v72.121094c.105469 3.328125 2.871094 5.953125 6.199219 5.878906h26.714843l-119 118.875c-.683593.691406-1.191406 1.539062-1.480468 2.46875l-20.082032 63.601562c-.675781 2.136719-.109374 4.46875 1.472657 6.054688s3.917969 2.15625 6.054687 1.484375l63.582032-20.082031c.875-.296875 1.664062-.804688 2.289062-1.484375l109.25-109.566407zm46.445312-341.847656-18.726562 18.753906-34.792969-34.792969 18.757813-18.726562c9.617187-9.496094 25.097656-9.445313 34.652344.109375 9.558593 9.558594 9.605468 25.039062.109374 34.65625zm0 0" fill="url(#linear0)"/><path d="m52.820312 366c0 3.3125 2.6875 6 6 6h207.214844c3.3125 0 6-2.6875 6-6s-2.6875-6-6-6h-207.214844c-3.3125 0-6 2.6875-6 6zm0 0" fill="url(#linear1)"/><path d="m58.820312 321h120.042969c3.3125 0 6-2.6875 6-6s-2.6875-6-6-6h-120.042969c-3.3125 0-6 2.6875-6 6s2.6875 6 6 6zm0 0" fill="url(#linear2)"/></svg>