<svg height="466pt" viewBox="0 -18 466.0074 466" width="466pt" xmlns="http://www.w3.org/2000/svg" xmlns:xlink="http://www.w3.org/1999/xlink"><linearGradient id="a"><stop offset="0" stop-color="#00efd1"/><stop offset="1" stop-color="#00acea"/></linearGradient><linearGradient id="b" gradientUnits="userSpaceOnUse" x1="195.125703" x2="195.125703" xlink:href="#a" y1="-6.9963" y2="427.2297"/><linearGradient id="c" gradientUnits="userSpaceOnUse" x1="163.665703" x2="163.665703" xlink:href="#a" y1="-6.9963" y2="427.2297"/><linearGradient id="d" gradientUnits="userSpaceOnUse" x1="205.745703" x2="205.745703" xlink:href="#a" y1="-6.9963" y2="427.2297"/><linearGradient id="e" gradientUnits="userSpaceOnUse" x1="233.003703" x2="233.003703" xlink:href="#a" y1="-6.9963" y2="427.2297"/><path d="m265.902344 202.003906h-141.554688c-3.863281 0-7 3.132813-7 7 0 3.867188 3.136719 7 7 7h141.554688c3.867187 0 7-3.132812 7-7 0-3.867187-3.132813-7-7-7zm0 0" fill="url(#b)"/><path d="m265.902344 254.003906h-204.476563c-3.863281 0-7 3.132813-7 7 0 3.867188 3.136719 7 7 7h204.476563c3.867187 0 7-3.132812 7-7 0-3.867187-3.132813-7-7-7zm0 0" fill="url(#c)"/><path d="m265.902344 310.003906h-120.316406c-3.863282 0-7 3.132813-7 7 0 3.867188 3.136718 7 7 7h120.316406c3.867187 0 7-3.132812 7-7 0-3.867187-3.132813-7-7-7zm0 0" fill="url(#d)"/><path d="m436.984375 253.460938c-.621094-.597657-1.347656-1.074219-2.144531-1.410157l-29.554688-44.148437c-7.4375-11.21875-20.019531-17.945313-33.480468-17.898438h-39.800782v-32.582031c-.082031-3.996094-3.253906-7.242187-7.246094-7.417969h-107.933593l-13.464844-26.898437c14.015625-2.621094 26.921875-9.390625 37.042969-19.429688 1.320312-1.296875 2.0625-3.066406 2.066406-4.914062.003906-1.851563-.734375-3.621094-2.050781-4.921875l-41.042969-41.035156 20.402344-20.402344c2.730468-2.734375 2.730468-7.164063 0-9.898438-2.734375-2.734375-7.167969-2.734375-9.902344 0l-20.398438 20.398438-40.699218-40.785156c-1.308594-1.328126-3.089844-2.0898442-4.953125-2.11328175h-.011719c-1.871094.03124995-3.652344.80468775-4.953125 2.14453175-13.472656 13.492187-20.992187 31.808593-20.882813 50.875.007813 13.445312 3.855469 26.605468 11.082032 37.941406l-17.507813 59.039062h-104.839843c-3.867188 0-6.70703175 3.554688-6.70703175 7.417969v223.734375c-.06250005 1.808594.62109375 3.5625 1.88671875 4.855469 1.269531 1.296875 3.007813 2.015625 4.820313 1.992187h28.820312c3.363281 23.910156 23.820312 41.6875 47.964844 41.6875 24.144531 0 44.601562-17.777344 47.964844-41.6875h192.609374c3.355469 23.914063 23.816407 41.703125 47.964844 41.703125 24.152344 0 44.609375-17.789062 47.96875-41.703125h39.300782c1.808593.019532 3.546874-.699218 4.8125-1.992187 1.265624-1.292969 1.945312-3.046875 1.886718-4.855469v-62.363281c0-4.617188-2.292968-39.414063-12.136718-48.910157zm-65.179687-49.457032c8.738281-.140625 16.953124 4.15625 21.828124 11.40625l24 35.59375h-85.628906v-47zm-227.671876-186.628906 81.125 81.128906c-23.015624 17.886719-55.746093 15.84375-76.359374-4.769531-20.609376-20.613281-22.652344-53.34375-4.765626-76.359375zm-4.367187 86.773438c13.050781 12.632812 30.421875 19.820312 48.582031 20.101562l12.84375 25.753906h-75.042968zm-56.269531 311.691406c-19.023438 0-34.445313-15.421875-34.445313-34.445313 0-19.027343 15.421875-34.449219 34.445313-34.449219 19.027344 0 34.449218 15.425782 34.449218 34.449219-.023437 19.015625-15.433593 34.425781-34.449218 34.445313zm288.539062 0c-19.027344 0-34.449218-15.421875-34.449218-34.445313.003906-19.027343 15.425781-34.449219 34.449218-34.449219 19.023438 0 34.445313 15.425782 34.445313 34.449219-.019531 19.015625-15.429688 34.425781-34.445313 34.445313zm79.96875-41.835938h-32.066406c-3.578125-23.691406-23.941406-41.207031-47.902344-41.207031-23.960937 0-44.324218 17.515625-47.90625 41.207031h-192.726562c-3.582032-23.691406-23.941406-41.203125-47.902344-41.203125s-44.320312 17.511719-47.902344 41.203125h-21.59375v-210h304v94.5c-.035156 1.777344.675782 3.492188 1.957032 4.726563s3.019531 1.875 4.796874 1.773437h104.546876l14.847656 14.707032c3.761718 3.734374 7.855468 28.34375 7.855468 39.082031zm0 0" fill="url(#e)"/></svg>