<svg height="451pt" viewBox="0 0 451.93826 451" width="451pt" xmlns="http://www.w3.org/2000/svg" xmlns:xlink="http://www.w3.org/1999/xlink"><linearGradient id="a"><stop offset="0" stop-color="#00efd1"/><stop offset="1" stop-color="#00acea"/></linearGradient><linearGradient id="b" gradientUnits="userSpaceOnUse" x1="225.969" x2="225.969" xlink:href="#a" y1="12.403398" y2="450.421398"/><linearGradient id="c" gradientUnits="userSpaceOnUse" x1="286.131" x2="286.131" xlink:href="#a" y1="12.403398" y2="450.421398"/><linearGradient id="d" gradientUnits="userSpaceOnUse" x1="225.378" x2="225.378" xlink:href="#a" y1="12.403398" y2="450.421398"/><linearGradient id="e" gradientUnits="userSpaceOnUse" x1="209.822" x2="209.822" xlink:href="#a" y1="12.403398" y2="450.421398"/><path d="m449.101562 211.328125c-.125-1.992187-1.089843-3.839844-2.660156-5.074219-1.570312-1.234375-3.59375-1.738281-5.558594-1.386718l-85.496093 15.269531c-3.339844.59375-5.769531 3.5-5.769531 6.890625 0 67.929687-55.070313 123-123 123-67.929688 0-123-55.070313-123-123 0-67.933594 55.070312-123 123-123 3.433593 0 6.359374-2.492188 6.910156-5.882813l14.03125-86.726562c.316406-1.949219-.210938-3.941407-1.445313-5.484375-1.234375-1.542969-3.0625-2.492188-5.035156-2.613282l-46.035156-2.839843c-3.773438-.230469-7.046875 2.570312-7.402344 6.332031l-4.003906 42.636719c-18.335938 4.347656-35.890625 11.496093-52.050781 21.191406l-33.226563-27.394531c-2.785156-2.292969-6.851563-2.097656-9.402344.449218l-45.667969 45.667969c-2.546874 2.550781-2.742187 6.617188-.449218 9.398438l27.375 33.210937c-9.773438 16.128906-16.925782 33.699219-21.199219 52.066406l-42.640625 4c-3.605469.335938-6.3632812 3.355469-6.375 6.976563v64.421875c.015625 3.617188 2.773438 6.628906 6.375 6.964844l42.648438 4.007812c4.351562 18.332032 11.5 35.886719 21.195312 52.046875l-27.386719 33.238281c-2.292969 2.78125-2.097656 6.851563.453125 9.398438l44.019532 44.023438c2.550781 2.546874 6.617187 2.746093 9.398437.453124l33.238281-27.394531c16.15625 9.691407 33.710938 16.839844 52.046875 21.1875l4.011719 42.664063c.335938 3.605468 3.351562 6.363281 6.96875 6.375h64.421875c3.617187-.011719 6.632813-2.773438 6.96875-6.375l4-42.621094c18.367187-4.273438 35.945313-11.429688 52.070313-21.203125l33.214843 27.371094c2.785157 2.292969 6.851563 2.09375 9.402344-.453125l45.664063-45.664063c2.546874-2.550781 2.742187-6.617187.449218-9.402343l-27.390625-33.238282c9.691407-16.15625 16.839844-33.710937 21.191407-52.042968l42.632812-4.007813c3.761719-.351563 6.5625-3.628906 6.332031-7.398437zm-52.523437 43.984375c-3.058594.285156-5.574219 2.53125-6.199219 5.539062-4.191406 20.175782-12.023437 39.417969-23.109375 56.789063-1.628906 2.554687-1.429687 5.871094.5 8.210937l26.539063 32.195313-36.671875 36.671875-32.199219-26.535156c-2.351562-1.9375-5.683594-2.132813-8.246094-.480469-17.300781 11.167969-36.539062 18.996094-56.722656 23.078125-3.027344.625-5.292969 3.15625-5.578125 6.234375l-3.875 41.386719h-51.675781l-3.886719-41.386719c-.285156-3.0625-2.53125-5.578125-5.542969-6.214844-20.175781-4.191406-39.417968-12.023437-56.789062-23.109375-2.558594-1.628906-5.875-1.425781-8.214844.5l-32.199219 26.535156-35.023437-35.035156 26.535156-32.199218c1.925781-2.339844 2.128906-5.65625.5-8.210938-11.082031-17.375-18.910156-36.617188-23.101562-56.792969-.640626-3.011719-3.164063-5.257812-6.226563-5.542969l-41.390625-3.882812v-51.675781l41.386719-3.882813c3.074219-.289062 5.601562-2.550781 6.222656-5.578125 4.085937-20.183593 11.917969-39.421875 23.089844-56.722656 1.652343-2.558594 1.460937-5.894531-.476563-8.246094l-26.539062-32.191406 36.675781-36.675781 32.195313 26.539062c2.339843 1.929688 5.65625 2.128906 8.214843.5 17.367188-11.085937 36.613281-18.917968 56.789063-23.113281 3.007812-.625 5.253906-3.140625 5.542968-6.199219l3.847657-40.953125 31.558593 1.945313-11.867187 73.34375c-72.78125 3.136718-131.019531 63.328125-131.019531 136.871094 0 75.539062 61.457031 137 137 137 73.570312 0 133.785156-58.292969 136.875-131.117188l72.113281-12.878906 1.925781 31.429687zm0 0" fill="url(#b)"/><path d="m233.320312 163.425781c-12.148437 7.234375-23.355468 15.953125-33.355468 25.953125l-51.765625 51.761719c-17.316407 17.414063-17.371094 45.527344-.121094 63.007813 8.316406 8.472656 19.691406 13.25 31.566406 13.253906h.09375c11.839844.007812 23.195313-4.71875 31.53125-13.128906l51.851563-51.886719c9.9375-9.945313 18.609375-21.078125 25.816406-33.148438l10.53125-17.664062c2.570312 1.214843 5.378906 1.839843 8.222656 1.828125h.039063c5.105469.027344 10.015625-1.992188 13.625-5.605469l15.542969-15.535156c1.316406-1.3125 2.054687-3.09375 2.050781-4.953125-.003907-1.859375-.746094-3.640625-2.066407-4.949219l-14.84375-14.734375 86.835938-86.839844c.402344-.402344.757812-.855468 1.050781-1.34375l26.160157-43.511718c1.652343-2.757813 1.21875-6.285157-1.050782-8.554688-2.273437-2.273438-5.800781-2.707031-8.554687-1.050781l-43.515625 26.15625c-.488282.296875-.941406.648437-1.34375 1.050781l-86.941406 86.941406-14.878907-14.773437c-2.738281-2.71875-7.15625-2.707031-9.882812.019531l-15.191407 15.183594c-5.773437 5.800781-7.261718 14.613281-3.714843 21.988281zm19.902344 79.027344-51.855468 51.921875c-5.714844 5.773438-13.503907 9.027344-21.628907 9.027344h-.0625c-8.152343-.011719-15.957031-3.296875-21.660156-9.117188-11.832031-11.988281-11.792969-31.269531.085937-43.210937l51.761719-51.777344c9.179688-9.183594 19.464844-17.1875 30.621094-23.835937l19.738281-11.757813 28.453125 28.664063-11.753906 19.671874c-6.617187 11.074219-14.578125 21.292969-23.703125 30.414063zm137.691406-188.414063 18.691407-11.234374-11.238281 18.6875-86.265626 86.269531-7.484374-7.425781zm-126.289062 86.765626 10.257812-10.257813 31.671876 31.433594c.175781.230469.367187.449219.570312.65625.214844.210937.445312.410156.6875.59375l14.222656 14.117187-10.582031 10.546875c-.988281.980469-2.332031 1.527344-3.726563 1.507813h-.007812c-1.398438.015625-2.746094-.53125-3.734375-1.519532l-39.375-39.65625c-2.039063-2.054687-2.035156-5.375.015625-7.421874zm0 0" fill="url(#c)"/><path d="m258.257812 199.804688-75.660156 75.660156c-2.734375 2.730468-2.734375 7.164062 0 9.898437s7.167969 2.734375 9.898438 0l75.660156-75.660156c2.734375-2.734375 2.734375-7.167969 0-9.902344-2.730469-2.730469-7.164062-2.730469-9.898438 0zm0 0" fill="url(#d)"/><path d="m252.601562 184.25c-2.734374-2.734375-7.167968-2.734375-9.902343 0l-75.660157 75.660156c-2.734374 2.734375-2.734374 7.167969 0 9.898438 2.734376 2.734375 7.167969 2.734375 9.898438 0l75.664062-75.660156c2.730469-2.734376 2.730469-7.164063 0-9.898438zm0 0" fill="url(#e)"/></svg>