<svg height="500pt" viewBox="-69 0 500 500.15836" width="500pt" xmlns="http://www.w3.org/2000/svg" xmlns:xlink="http://www.w3.org/1999/xlink"><linearGradient id="a" gradientUnits="userSpaceOnUse" x1="181.299358" x2="181.299358" y1="36.158" y2="474.176"><stop offset="0" stop-color="#00efd1"/><stop offset="1" stop-color="#00acea"/></linearGradient><path d="m362.511719 307.714844c0-16.875-14.398438-30.617188-32.199219-30.628906l-14.226562-.011719v-141.625c16.78125-13.863281 26.851562-34.226563 27.695312-55.976563.839844-21.75-7.628906-42.828125-23.285156-57.949218-1.726563-1.664063-4.1875-2.332032-6.523438-1.769532-2.335937.5625-4.21875 2.277344-5 4.550782l-14 41.136718-30.238281-10.285156 15.519531-45.613281c.691406-2.03125.414063-4.265625-.75-6.0625-1.167968-1.796875-3.089844-2.964844-5.226562-3.164063-2.253906-.210937-4.609375-.316406-7-.316406-32.261719.03125-61.019532 20.34375-71.835938 50.738281-10.8125 30.398438-1.347656 64.3125 23.644532 84.710938v141.535156h-5.144532l1.769532-67.988281c0-.101563-.050782-.207032-.054688-.3125-.535156-24.273438-18.667969-44.542969-42.734375-47.761719l-13.410156-2.082031c-1.929688-.300782-3.894531.214844-5.425781 1.429687-1.53125 1.210938-2.488282 3.007813-2.636719 4.953125l-5.570313 73.007813c-.671875 8.785156-3.703125 17.230469-8.765625 24.441406-3.144531 4.648437-7.109375 8.6875-11.703125 11.914063-7.886718 5.355468-20.324218 14.371093-29.324218 25.804687v-15.78125c-.160157-4.039063-3.386719-7.277344-7.421876-7.453125h-82c-3.867187 0-6.5781245 3.585938-6.5781245 7.453125v208.707031c-.08984375 1.792969.5664065 3.546875 1.8125005 4.839844 1.242187 1.296875 2.96875 2.019531 4.765624 2h82c3.867188 0 7.425782-2.972656 7.425782-6.839844v-12.101562c37 .035156 90.839844.074218 136.710937.074218 28.035157 0 53.058594-.011718 70.316407-.054687 17.769531-.042969 31.96875-13.777344 31.96875-30.628906v-.523438c0-4.214843.148437-13.210937-3.863282-20.371093 10.03125-5.207032 16.921875-15.320313 16.921875-26.941407-.0625-7.683593-3.097656-15.046875-8.46875-20.542969 10.003907-5.167968 16.320313-15.449218 16.410157-26.710937v-.558594c.019531-8-3.203126-15.671875-8.929688-21.257812 9.132812-5.414063 15.355469-15.042969 15.355469-25.984375zm-157.71875-231.234375c.042969-33.1875 25.988281-60.566407 59.125-62.390625l-14.699219 43.183594c-1.246094 3.664062.714844 7.640624 4.375 8.882812l43.492188 14.792969c3.660156 1.246093 7.636718-.710938 8.882812-4.371094l12.320312-36.214844c7.503907 10.542969 11.515626 23.175781 11.46875 36.117188.089844 22.382812-11.800781 43.101562-31.167968 54.320312-19.371094 11.214844-43.257813 11.214844-62.628906 0-19.367188-11.21875-31.257813-31.9375-31.167969-54.320312zm28.292969 68.148437c10.65625 5.53125 22.496093 8.390625 34.5 8.335938 12.472656 0 23.5-3.019532 34.5-8.335938v132.429688l-69-.0625zm-151 341.527344h-68v-195h68zm248.117187-162h-5.105469c-.34375 0-1.011718.082031-1.011718.082031v-.046875s-.339844-.035156-.5-.035156h-32.320313c-3.867187 0-7 3.136719-7 7 0 3.867188 3.132813 7 7 7h33.589844c9.726562 1 17.230469 7.878906 17.230469 16.800781v.554688c0 9.167969-7.9375 16.644531-18.03125 16.644531h-28.847657c-3.867187 0-7 3.132812-7 7 0 3.863281 3.132813 7 7 7h20.699219c10.101562 0 18.3125 7.296875 18.3125 16.527344 0 9.167968-8.214844 16.472656-18.3125 16.472656h-19.019531c-3.867188 0-7 3.132812-7 7 0 3.863281 3.132812 7 7 7h15.160156c5.640625 0 9.039063 1.453125 9.039063 16.921875v.523437c0 9.144532-7.828126 16.601563-17.898438 16.628907-45.488281.105469-147.101562.035156-207.101562-.019531v-141.363282c5-12.898437 18.972656-27.304687 37.191406-39.6875 6.027344-4.171875 11.242187-9.402344 15.394531-15.441406 6.496094-9.277344 10.371094-20.132812 11.214844-31.429688l4.964843-65.457031 5.992188.933594c.0625.011719.121094.019531.183594.027344 17.164062 2.261719 30.128906 16.671875 30.574218 33.976562l-2.082031 75.011719c-.054687 1.890625.660157 3.71875 1.976563 5.070312 1.316406 1.355469 3.125 2.121094 5.011718 2.125l123.707032.109376c10.089844.007812 18.296875 7.371093 18.296875 16.539062s-8.214844 16.53125-18.308594 16.53125zm0 0" fill="url(#a)"/></svg>