<svg xmlns="http://www.w3.org/2000/svg" viewBox="0 0 136.33 21.72"><defs><style>.cls-1{fill:#ffb71b;fill-rule:evenodd;}.cls-2{fill:#0047ba;}.cls-3{fill:#54565a;}</style></defs><g id="Layer_2" data-name="Layer 2"><g id="레이어_1" data-name="레이어 1"><path class="cls-1" d="M12.89,0h5.25l1.94,7.05L12.89.69Zm5.53,0h1.8V3.18Zm1.8,14.86h0L17.73,21.7H12.89v-1Zm0,3.59V21.7H18.08ZM12.89,20.6V15.28l6.36-1.73Zm0-5.88V11.47l5.53.42Zm0-4.21V6.91l5.46,3.25Zm0-4.29V1.11L19,8.36Z"/><path class="cls-2" d="M10.83,21.72a10.83,10.83,0,0,1,0-21.66v6.1a4.73,4.73,0,1,0,0,9.46Z"/><path class="cls-3" d="M39.14,10.59l-1.08,1.75a6,6,0,0,1-3.77-3,6.15,6.15,0,0,1-3.84,3.27l-1.09-1.76a4.83,4.83,0,0,0,3.77-4.67V6H29.91V4.28h3.22V2.51h2.26V4.28h3.2V6H35.36v.13C35.37,8,36.54,9.8,39.14,10.59Zm-6.81,2.68h2.25v3.06h8.76v1.79h-11Zm5.73-6.19h2.66V2.42H43V14.29H40.72V8.89H38.06Z"/><path class="cls-3" d="M53.85,6.53c0,2.12-1.84,3.63-4.27,3.64s-4.31-1.52-4.31-3.64,1.84-3.66,4.31-3.65S53.84,4.4,53.85,6.53ZM49.58,8.36a1.89,1.89,0,0,0,2.11-1.83,1.87,1.87,0,0,0-2.11-1.82c-1.23,0-2.15.67-2.13,1.82S48.34,8.35,49.58,8.36Zm-1.9,2.73H58.42v4.34H49.91v1h9v1.75H47.72V13.79h8.47v-1H47.68ZM56.17,2.4h2.25v8H56.17Z"/><path class="cls-3" d="M61.76,12.9V6h-1V4.21h7.38V6h-1v6.65l1.18-.14.12,1.63a41.12,41.12,0,0,1-7.7.58l-.24-1.84Zm3.29-.09V6H63.78v6.84C64.19,12.84,64.63,12.84,65.05,12.81Zm9.4,5.59H72.31v-8H71v7.25H68.88v-15H71v5.9h1.32V2.4h2.14Z"/><path class="cls-3" d="M76.14,14.59H90.78v1.84H76.14ZM90.25,10l-1,1.86a8.18,8.18,0,0,1-5.9-4.17,8.32,8.32,0,0,1-5.89,4.17l-1-1.86c3.56-.63,5.64-3.15,5.66-5.47V3.35h2.39V4.51C84.55,6.86,86.63,9.36,90.25,10Z"/><path class="cls-3" d="M100.82,5.67H99.39v7c.66-.05,1.29-.11,1.9-.19l.13,1.62a61.23,61.23,0,0,1-9.69.65l-.25-1.83h1.83V5.67H91.89V3.88h8.93Zm-3.59,7.11V5.67H95.48v7.18C96.06,12.84,96.64,12.81,97.23,12.78ZM102.07,2.4h2.25V8.49h2.35v1.82h-2.35V18.4h-2.25Z"/><path class="cls-3" d="M111.88,3.44a4.11,4.11,0,0,1,4.37,4,4.39,4.39,0,0,1-8.75,0A4.1,4.1,0,0,1,111.88,3.44Zm0,6.14A2,2,0,0,0,114,7.47a2,2,0,0,0-2.16-2.08,2,2,0,0,0-2.18,2.08A2,2,0,0,0,111.88,9.58Zm-2,3.18h2.27v3.57h8.88v1.79H109.92Zm10.73,1.16H118.4V2.42h2.25Z"/><path class="cls-3" d="M130.86,5.64h-5v7.1a32.72,32.72,0,0,0,5.89-.48l.23,1.82a34.11,34.11,0,0,1-7.08.49h-1.31V3.81h7.3Zm-.79,2.3h4V2.4h2.24v16h-2.24V9.77h-4Z"/></g></g></svg>