<svg xmlns="http://www.w3.org/2000/svg" viewBox="0 0 105.09 21.72"><defs><style>.cls-1{fill:#ffb71b;fill-rule:evenodd;}.cls-2{fill:#0047ba;}.cls-3{fill:#54565a;}</style></defs><g id="Layer_2" data-name="Layer 2"><g id="레이어_1" data-name="레이어 1"><path class="cls-1" d="M12.89,0h5.25l1.94,7.05L12.89.69Zm5.53,0h1.8V3.18Zm1.8,14.86h0L17.73,21.7H12.89v-1Zm0,3.59V21.7H18.08ZM12.89,20.6V15.28l6.36-1.73Zm0-5.88V11.47l5.53.42Zm0-4.21V6.91l5.46,3.25Zm0-4.29V1.11L19,8.36Z"/><path class="cls-2" d="M10.83,21.72a10.83,10.83,0,0,1,0-21.66v6.1a4.73,4.73,0,1,0,0,9.46Z"/><path class="cls-3" d="M39.14,10.59l-1.08,1.74a6,6,0,0,1-3.77-3,6.15,6.15,0,0,1-3.84,3.27l-1.09-1.76a4.83,4.83,0,0,0,3.77-4.68V6H29.91V4.28h3.22V2.51h2.26V4.28h3.2V6H35.36v.12C35.37,8,36.54,9.8,39.14,10.59Zm-6.81,2.68h2.25v3.06h8.76v1.79h-11Zm5.73-6.19h2.66V2.42H43V14.29H40.72V8.89H38.06Z"/><path class="cls-3" d="M53.85,6.53c0,2.12-1.84,3.63-4.27,3.64s-4.31-1.52-4.31-3.64,1.84-3.66,4.31-3.65S53.84,4.4,53.85,6.53ZM49.58,8.36a1.89,1.89,0,0,0,2.11-1.83,1.87,1.87,0,0,0-2.11-1.82c-1.23,0-2.15.67-2.13,1.82S48.34,8.35,49.58,8.36Zm-1.9,2.73H58.42v4.34H49.91v1h9v1.75H47.72V13.79h8.47v-1H47.68ZM56.17,2.4h2.25v8H56.17Z"/><path class="cls-3" d="M64.2,3.55c1.93,0,3.25,1.79,3.49,4.78H69V2.63h2.11v15H69V10.1H67.71c-.19,3.14-1.54,5.05-3.51,5.05s-3.48-2.23-3.48-5.82S62.09,3.54,64.2,3.55Zm0,9.44c.93,0,1.47-1.2,1.46-3.66s-.53-3.67-1.46-3.67-1.42,1.22-1.4,3.67S63.31,13,64.2,13ZM74.45,18.4H72.31V2.4h2.14Z"/><path class="cls-3" d="M77,4.11h2.25V12.8a36.59,36.59,0,0,0,6.29-.62L85.75,14a35.7,35.7,0,0,1-7.43.67H77ZM89.66,18.43H87.42V9.17H83.05V7.34h4.37V2.4h2.24Z"/><path class="cls-3" d="M101.91,13.23,100.7,15a7.26,7.26,0,0,1-3.91-4.33,7.76,7.76,0,0,1-3.93,4.73l-1.29-1.77a7.46,7.46,0,0,0,4-6.86v-1H92.21V4h9V5.78H97.9v1A6.87,6.87,0,0,0,101.91,13.23Zm.91-10.83h2.27v16h-2.27Z"/></g></g></svg>