<svg xmlns="http://www.w3.org/2000/svg" xmlns:xlink="http://www.w3.org/1999/xlink" viewBox="0 0 553.14 242.89"><defs><style>.cls-1{fill:none;}.cls-2{clip-path:url(#clip-path);}.cls-3{fill:#202945;}</style><clipPath id="clip-path" transform="translate(-20.62 -22.87)"><rect class="cls-1" width="595" height="277"/></clipPath></defs><title>logo</title><g id="Layer_2" data-name="Layer 2"><g id="Layer_1-2" data-name="Layer 1"><g class="cls-2"><rect class="cls-3" x="0.38" y="150.13" width="551" height="5"/><path class="cls-3" d="M420,59.65c0-19.1,0-22.07-.25-26-.22-4.16-.29-6.16-4.41-7a24.61,24.61,0,0,0-3.76-.4,1.46,1.46,0,0,1-1.35-1.19c0-.73.61-1,1.94-1,2.84,0,6.13,0,8.83.15l5.05.26c.85,0,25.24,0,28.05-.13a21.2,21.2,0,0,0,4.77-.74c.59-.12,1.12-.6,1.7-.6.37,0,1.26.17,1,1.21a40.53,40.53,0,0,0-1,5.75c-.16,1.22-.4,6.64-.63,8.1-.1.62-.39,1.36-.88,1.36a1.45,1.45,0,0,1-1.33-1.58,8.55,8.55,0,0,0-.75-3.52c-.85-1.91-1.68-3.44-8.31-4.16-2.09-.21-13.65-.37-15-.37-.83,0-1.71,1.37-1.71,2.22l-.2,31.73c0,.89.17,1.24.77,1.24,1.58,0,15.79,0,18.64-.26s4.68-.5,5.74-1.7c.88-1,1.56-1.42,2.08-1.42.34,0,.57.29.57,1s-.57,2.81-1,6.88c-.2,2.46-.47,6.94-.47,7.81s0,2.36-.85,2.36a1.07,1.07,0,0,1-1.05-1.13,11.58,11.58,0,0,0-.47-3.79c-.51-1.66-1.44-3.76-6.23-4.29-3.29-.31-14.61-.6-16.67-.6a.78.78,0,0,0-.88.84V81.25c0,4.17-.08,18.42,0,20.94.41,8.41,2.42,9.55,13.4,9.63,3.2,0,8.55,0,11.79-1.37s4.49-3.64,5.34-8.64c.26-1.35.64-1.6,1.22-1.6.76,0,.76,1,.76,1.86A120.11,120.11,0,0,1,462.94,114c-.86,3.13-1.84,3.13-6.63,3.13-9.19,0-16-.21-20.73-.32s-7.72-.36-9.53-.36c-.29,0-2.35,0-4.92.1s-5.27.26-7.12.26c-1.34,0-2-.45-2-1.15a1.12,1.12,0,0,1,1-1,18.24,18.24,0,0,0,3.67-.49c2.06-.51,2.2-2.83,2.68-6.39.6-5.14.6-14.81.6-26.57Z" transform="translate(-20.62 -22.87)"/><path class="cls-3" d="M527,59.71c0-19,0-21.94-.21-25.84-.26-4.14-.34-6.13-4.39-6.94a24.75,24.75,0,0,0-3.77-.4,1.42,1.42,0,0,1-1.33-1.18c0-.73.57-1,2-1,2.8,0,6.1,0,8.78.15l5,.27c.85,0,25.09,0,27.91-.14a21.13,21.13,0,0,0,4.72-.73c.6-.12,1.08-.6,1.73-.6a.91.91,0,0,1,1,1.2,49.22,49.22,0,0,0-1,5.72c-.13,1.21-.37,6.6-.62,8-.11.62-.38,1.36-.82,1.36A1.41,1.41,0,0,1,564.61,38a9.52,9.52,0,0,0-.74-3.48c-.85-1.92-1.74-3.44-8.29-4.15C553.49,30.2,542,30,540.67,30c-.83,0-1.67,1.36-1.67,2.21l-.21,31.55c0,.88.11,1.23.73,1.23,1.57,0,15.75,0,18.56-.26s4.6-.5,5.74-1.69c.79-1,1.49-1.41,2-1.41.33,0,.57.28.57,1s-.57,2.8-1,6.84c-.24,2.45-.45,6.91-.45,7.77s0,2.34-.87,2.34a1.07,1.07,0,0,1-1.06-1.12,11.41,11.41,0,0,0-.47-3.76c-.47-1.64-1.38-3.75-6.14-4.27-3.33-.31-14.52-.6-16.6-.6a.75.75,0,0,0-.84.86V81.19c0,4.14-.14,18.31,0,20.81.32,8.43,2.36,9.56,13.29,9.58,3.15,0,8.54,0,11.68-1.35s4.48-3.63,5.36-8.6c.26-1.34.64-1.59,1.22-1.59.78,0,.78,1,.78,1.87a105.41,105.41,0,0,1-1.65,11.83c-.84,3.16-1.77,3.16-6.56,3.16-9.14,0-15.84-.26-20.59-.37s-7.69-.36-9.49-.36c-.25,0-2.34,0-4.89.11s-5.23.25-7,.25c-1.38,0-2-.44-2-1.14a1.14,1.14,0,0,1,1-1,18.37,18.37,0,0,0,3.63-.48c2-.47,2.21-2.78,2.64-6.35.61-5.11.61-14.73.61-26.42Z" transform="translate(-20.62 -22.87)"/><path class="cls-3" d="M376.35,114.66a33.37,33.37,0,0,1-4.78-.32c-.57-.08-1.27-.24-2-.39-3.08-1-7.25-3.07-12.19-8.27-6.1-6.48-13.08-15.4-21.25-25.84-1.38-1.9-2.82-3.78-4.35-5.72,11.05-10.2,14.85-19.29,14.85-28.43A21.44,21.44,0,0,0,338.1,29c-6.52-4.7-14.75-5.45-22.52-5.45-3.82,0-13.19.34-14.52.34-.65,0-8.39-.34-13.95-.34-1.35,0-2,.27-2,1s.77,1,1.17,1a20.72,20.72,0,0,1,4.1.5c4,1.11,4.16,2.81,4.38,6.74s.22,7.42.22,26.61V81.13s.5,21.52-.1,26.65c-.46,3.58-.61,5.49-2.48,6.36a12.63,12.63,0,0,1-3.8.52.93.93,0,0,0-1,.6.94.94,0,0,0-.13.41c0,.73.6,1,1.95,1,3.71,0,11.45-.39,11.6-.39.63,0,8.35.39,15.15.39,1.33,0,1.94-.39,1.94-1a.58.58,0,0,0-.2-.51,1.17,1.17,0,0,0-1.1-.56,44.33,44.33,0,0,1-5-.46c-3.7-.5-3.91-2.91-4.25-6.53-.63-5.15-.53-14.88-.62-26.67V78a1.09,1.09,0,0,1,1-1l10.81,1,2.44,0a2,2,0,0,1,1.57.74c2.39,3.14,8.07,11.28,13.09,18,6.86,9.14,11.47,15.2,16.63,17.94,2.48,1.41,5.4,2,9.93,2.2,1.26.07,2.66.1,4.33.1h9c2.23,0,3-.26,3-1,0-.38-.64-.94-2-1M328.63,69.93c-2.65,1.86-5.86,2.18-8.59,2.18-5.1,0-10.36-.8-12.1-1.84a1.71,1.71,0,0,1-.94-1.41V30.94a1.47,1.47,0,0,1,1.07-1.4,36.68,36.68,0,0,1,7.7-.67c12.28,0,19.85,8.67,19.85,23.17,0,8.81-3,15.13-7,17.89" transform="translate(-20.62 -22.87)"/><path class="cls-3" d="M191.13,22.87c25.26,0,44.39,17.15,44.39,45.22,0,26.93-18,49.18-45,49.18-30.75,0-43.89-25.65-43.89-47.34,0-19.42,13.52-47.06,44.53-47.06m2.45,89.44c9.7,0,29.22-6,29.22-40.82,0-28.92-15.22-44.09-32.29-44.09-18,0-31.06,13.05-31.06,39.27,0,28.07,14.61,45.64,34.13,45.64" transform="translate(-20.62 -22.87)"/><path class="cls-3" d="M34.27,104.41c-11-10.49-13.65-24.24-13.65-35.72,0-8.08,2.68-22.12,12.63-32.89,6.76-7.23,17-12.9,34.19-12.9a99.75,99.75,0,0,1,16.33,1.42,72.64,72.64,0,0,0,11.48,1.84c1.15,0,1.4.57,1.4,1.28,0,1-.25,2.41-.51,6.8-.12,4-.12,10.63-.25,12.33s-.64,2.55-1.28,2.55-1.35-.85-1.35-2.55c0-4.67-1.79-9.49-4.72-12-4-3.68-11.67-7-21.61-6.66-15.47.6-34,8.45-34,39.83,0,31.7,19,43.66,39.11,43.66,8.42,0,13.68-.71,18.14-5.67,2.43-2.69,4-7.79,4.34-10.06.26-1.28.74-1.7,1.51-1.7.51,0,1,.85,1,1.7a138.65,138.65,0,0,1-2.68,15.45c-.64,2.27-.9,2.69-2.81,3.54-4.59,2-13,2.7-20.28,2.7-16.84,0-28.2-4.4-37-12.9" transform="translate(-20.62 -22.87)"/><path class="cls-3" d="M304,230.79c0-7.3,0-8.64-.1-10.18s-.48-2.4-2.06-2.74a10.53,10.53,0,0,0-1.88-.14c-.52,0-.81-.1-.81-.43s.33-.44,1.05-.44c2.55,0,5.58.15,6.54.15,2.35,0,4.22-.15,5.86-.15,8.69,0,10.23,4.66,10.23,7.21,0,3.94-2.26,6.29-4.9,8.41,3.94,1.34,8.74,4.75,8.74,10.37,0,5.14-4,10.47-12.82,10.47-.58,0-2-.09-3.37-.14s-2.88-.15-3.6-.15c-.53,0-1.59,0-2.74.05s-2.35.1-3.31.1c-.63,0-1-.15-1-.48s.19-.39.77-.39a7.69,7.69,0,0,0,1.73-.19c1-.19,1.2-1.25,1.39-2.64.24-2,.24-5.81.24-10.23Zm6,.82c0,.39.15.48.34.53a11.48,11.48,0,0,0,2.26.14,4.86,4.86,0,0,0,3.45-.91c1.25-1,2-2.74,2-5.09,0-3.22-1.87-7.45-6-7.45a7.54,7.54,0,0,0-1.59.1c-.33.1-.43.29-.43.82Zm6.34,3.84a6.93,6.93,0,0,0-4-1.15c-.86-.05-1.34-.05-2.06-.05-.19,0-.29.1-.29.34V246c0,3.17.15,4,1.68,4.61a8.64,8.64,0,0,0,3.51.58c2.16,0,5.81-1.15,5.81-6.15a11.45,11.45,0,0,0-4.66-9.56" transform="translate(-20.62 -22.87)"/><path class="cls-3" d="M349,230.83c0-7.24,0-8.57-.1-10.1s-.47-2.38-2-2.71a9.48,9.48,0,0,0-1.86-.15c-.53,0-.81-.09-.81-.42s.33-.43,1.05-.43c1.28,0,2.66,0,3.86,0s2.33.1,3,.1c1.53,0,11,0,11.91,0a19.19,19.19,0,0,0,2.05-.28,4.45,4.45,0,0,1,.76-.19c.24,0,.29.19.29.42a30.3,30.3,0,0,0-.38,3.1c-.05.48-.14,2.57-.24,3.14-.05.24-.14.53-.48.53s-.43-.24-.43-.67a5,5,0,0,0-.28-1.71c-.34-.86-.81-1.43-3.19-1.72-.81-.09-5.81-.19-6.77-.19-.23,0-.33.14-.33.48v12c0,.33.05.52.33.52,1.05,0,6.53,0,7.62-.09s1.86-.24,2.29-.72.52-.62.76-.62.34.1.34.38-.2,1.05-.38,3.48c0,.95-.2,2.86-.2,3.19s0,.91-.42.91a.38.38,0,0,1-.43-.43,13.43,13.43,0,0,0-.19-1.72c-.24-.95-.91-1.66-2.67-1.85-.91-.1-5.62-.15-6.76-.15-.24,0-.29.19-.29.48v3.76c0,1.62-.05,6,0,7.38.1,3.29.86,4,5.71,4a11.93,11.93,0,0,0,4.48-.58c1.24-.57,1.81-1.57,2.15-3.52.09-.52.19-.71.52-.71s.38.38.38.85a37,37,0,0,1-.62,5.29c-.33,1.24-.76,1.24-2.57,1.24-3.57,0-6.19-.1-8.24-.15s-3.53-.14-4.95-.14c-.53,0-1.57,0-2.72.05s-2.33.09-3.28.09c-.62,0-1-.14-1-.47s.19-.38.76-.38a8.13,8.13,0,0,0,1.72-.19c.95-.19,1.19-1.24,1.38-2.62.24-2,.24-5.77.24-10.15Z" transform="translate(-20.62 -22.87)"/><path class="cls-3" d="M390,230.76c0-7.35,0-8.7-.1-10.25s-.58-2.47-1.64-2.71a6.66,6.66,0,0,0-1.75-.2c-.48,0-.77-.09-.77-.48s.39-.39,1.16-.39c1.84,0,4.89.15,6.29.15,1.21,0,4.07-.15,5.91-.15.62,0,1,.1,1,.39s-.29.48-.77.48a7.85,7.85,0,0,0-1.45.15c-1.31.24-1.7,1.06-1.79,2.76s-.1,2.9-.1,10.25v8.52c0,4.69,0,8.51.19,10.6.15,1.3.49,2.17,1.94,2.37a21.88,21.88,0,0,0,2.47.19c.53,0,.77.14.77.39s-.39.48-.92.48c-3.19,0-6.24-.15-7.55-.15-1.11,0-4.16.15-6.09.15-.63,0-1-.15-1-.48s.19-.39.77-.39a8.45,8.45,0,0,0,1.75-.19c1-.2,1.25-1,1.4-2.42.24-2,.24-5.86.24-10.55Z" transform="translate(-20.62 -22.87)"/><path class="cls-3" d="M422,230.72c0-7.36,0-8.72-.1-10.26s-.48-2.42-2.08-2.76a9.67,9.67,0,0,0-1.89-.15c-.53,0-.82-.1-.82-.43s.34-.44,1.07-.44c2.56,0,5.61.15,6.87.15s4.21-.15,6.1-.15c.67,0,1,.1,1,.44s-.29.43-.87.43a7,7,0,0,0-1.4.15c-1.31.24-1.7,1.06-1.79,2.76-.1,1.54-.1,2.9-.1,10.26v8.95c0,2.08.15,4.4.15,6.82a26,26,0,0,1-1.17,8.57c-1,2.95-3.58,6.29-8.22,9.15-.63.38-1.41.77-2.42,1.25a2.13,2.13,0,0,1-1,.3.39.39,0,0,1-.39-.39c0-.24.24-.44,1.07-.87a10.12,10.12,0,0,0,2.32-1.84c3.68-3.73,3.63-8.57,3.63-18.05Z" transform="translate(-20.62 -22.87)"/><path class="cls-3" d="M452,230.76c0-7.35,0-8.7-.1-10.25s-.58-2.47-1.64-2.71a7.09,7.09,0,0,0-1.74-.19c-.49,0-.78-.1-.78-.49s.39-.38,1.17-.38c1.83,0,4.88.14,6.28.14,1.21,0,4.07-.14,5.9-.14.63,0,1,.09,1,.38s-.29.49-.77.49a8.64,8.64,0,0,0-1.45.14c-1.31.24-1.7,1.07-1.79,2.76s-.1,2.9-.1,10.25v8.52c0,4.69,0,8.51.19,10.59.15,1.31.48,2.18,1.94,2.37a19.59,19.59,0,0,0,2.46.2c.54,0,.78.14.78.38s-.39.49-.92.49c-3.19,0-6.24-.15-7.55-.15-1.11,0-4.16.15-6.09.15-.63,0-1-.15-1-.49s.19-.38.78-.38a7.71,7.71,0,0,0,1.74-.2c1-.19,1.25-1,1.4-2.42.24-2,.24-5.85.24-10.54Z" transform="translate(-20.62 -22.87)"/><path class="cls-3" d="M487.9,246.67c.1,3.65.73,4.87,1.69,5.2a7.93,7.93,0,0,0,2.51.33c.53,0,.82.09.82.37s-.44.47-1.11.47c-3.13,0-5.06-.14-6-.14-.43,0-2.7.14-5.2.14-.63,0-1.06,0-1.06-.47s.29-.37.77-.37a8.69,8.69,0,0,0,2.17-.24c1.25-.37,1.44-1.73,1.49-5.81l.43-27.72c0-.94.15-1.59.63-1.59s1,.61,1.78,1.45c.58.61,7.91,8.24,14.94,15,3.28,3.19,9.79,9.93,10.61,10.68h.24l-.48-21c0-2.85-.49-3.74-1.64-4.21a8.15,8.15,0,0,0-2.56-.28c-.57,0-.77-.14-.77-.43s.53-.42,1.26-.42c2.5,0,4.81.14,5.83.14.53,0,2.36-.14,4.72-.14.62,0,1.11.05,1.11.42s-.29.43-.87.43a5.46,5.46,0,0,0-1.45.14c-1.34.37-1.73,1.36-1.78,4l-.53,29.55c0,1-.19,1.45-.63,1.45s-1.1-.51-1.63-1c-3-2.81-9.21-8.94-14.22-13.77-5.25-5.06-10.6-10.91-11.47-11.8h-.14Z" transform="translate(-20.62 -22.87)"/><path class="cls-3" d="M570,249.83c0,1.29,0,1.38-.62,1.71-3.09,1.62-7.76,2.15-11.47,2.15-11.67,0-22-5.53-22-18.67a17.81,17.81,0,0,1,8.28-15.57c4.57-2.76,8.81-3.09,12.81-3.09a57.37,57.37,0,0,1,8.43.76,29.87,29.87,0,0,0,3.76.52c.57.05.67.24.67.57a65.06,65.06,0,0,0-.33,7.81c0,.76-.15,1-.53,1s-.43-.24-.47-.62a6.78,6.78,0,0,0-1.62-4c-1.43-1.52-5.24-3.71-10.62-3.71a13.73,13.73,0,0,0-9.43,2.95c-2.67,2.24-4.38,5.81-4.38,11.67,0,10.23,6.52,17.9,16.57,17.9a10.43,10.43,0,0,0,4.05-.53A1.69,1.69,0,0,0,564,249V244.5c0-2.38,0-4.19,0-5.62,0-1.62-.47-2.38-2-2.72a10.29,10.29,0,0,0-1.86-.14c-.43,0-.72-.09-.72-.38s.34-.47,1-.47c2.48,0,5.48.14,6.91.14s4-.14,5.57-.14c.62,0,1,.09,1,.47s-.28.38-.62.38a7.94,7.94,0,0,0-1.28.14c-1.29.24-1.76,1.05-1.81,2.72,0,1.43,0,3.33,0,5.71Z" transform="translate(-20.62 -22.87)"/></g></g></g></svg>