<?xml version="1.0" encoding="utf-8"?>
<!-- Generator: Adobe Illustrator 22.0.1, SVG Export Plug-In . SVG Version: 6.00 Build 0)  -->
<svg version="1.1" id="图层_1" xmlns="http://www.w3.org/2000/svg" xmlns:xlink="http://www.w3.org/1999/xlink" x="0px" y="0px"
	 viewBox="0 0 711.5 123.4" style="enable-background:new 0 0 711.5 123.4;" xml:space="preserve">
<style type="text/css">
	.st0{fill:#FFFFFF;}
</style>
<g id="XMLID_2_">
	<path id="XMLID_37_" class="st0" d="M514.3,48c0-24.5,0-28.3-0.3-33.4c-0.3-5.4-0.4-7.9-5.7-9c-1.2-0.3-3.4-0.4-4.8-0.5
		c-0.9,0-1.7-0.9-1.7-1.5c0-0.9,0.8-1.3,2.5-1.3c3.7,0,7.9,0,11.3,0.2l6.5,0.3c1.1,0,32.4,0,36-0.2c3-0.2,4.9-0.6,6.1-0.9
		c0.8-0.2,1.4-0.8,2.2-0.8c0.5,0,1.6,0.2,1.3,1.5c-0.2,1.1-0.8,3-1.2,7.4c-0.2,1.6-0.5,8.5-0.8,10.4c-0.1,0.8-0.5,1.8-1.1,1.8
		c-0.9,0-1.7-0.8-1.7-2c0-1.1-0.1-2.6-1-4.5c-1.1-2.5-2.2-4.4-10.7-5.4c-2.7-0.3-17.5-0.5-19.3-0.5c-1.1,0-2.2,1.8-2.2,2.8
		l-0.3,40.7c0,1.1,0.2,1.6,1,1.6c2,0,20.3,0,23.9-0.3c3.8-0.3,6-0.7,7.4-2.2c1.1-1.3,2-1.8,2.7-1.8c0.4,0,0.7,0.4,0.7,1.3
		c0,0.9-0.7,3.6-1.3,8.8c-0.3,3.2-0.6,8.9-0.6,10c0,1.2,0,3-1.1,3c-0.8,0-1.3-0.7-1.3-1.4c0-1.6,0-2.8-0.6-4.9
		c-0.7-2.1-1.8-4.8-8-5.5c-4.2-0.4-18.8-0.8-21.4-0.8c-0.8,0-1.1,0.5-1.1,1.1v13.5c0,5.3-0.1,23.6,0,26.9
		c0.5,10.8,3.1,12.3,17.2,12.4c4.1,0,11,0,15.1-1.8c4-1.7,5.8-4.7,6.8-11.1c0.3-1.7,0.8-2.1,1.6-2.1c1,0,1,1.3,1,2.4
		c0,1.3-1.2,12-2,15.3c-1.1,4-2.4,4-8.5,4c-11.8,0-20.5-0.3-26.6-0.4c-6.1-0.3-9.9-0.5-12.2-0.5c-0.4,0-3,0-6.3,0.1
		c-3.2,0-6.8,0.3-9.1,0.3c-1.7,0-2.6-0.6-2.6-1.5c0-0.5,0.6-1.2,1.3-1.2c1.4,0,3.3-0.3,4.7-0.6c2.7-0.7,2.8-3.6,3.4-8.2
		c0.8-6.6,0.8-19,0.8-34.1L514.3,48L514.3,48z"/>
	<path id="XMLID_36_" class="st0" d="M652.8,48c0-24.5,0-28.3-0.3-33.4c-0.3-5.4-0.4-7.9-5.7-9c-1.2-0.3-3.5-0.4-4.9-0.5
		c-0.9,0-1.7-0.9-1.7-1.5c0-0.9,0.8-1.3,2.5-1.3c3.6,0,7.9,0,11.3,0.2l6.5,0.3c1.1,0,32.4,0,36-0.2c3-0.2,4.8-0.6,6.1-0.9
		c0.8-0.2,1.4-0.8,2.2-0.8c0.4,0,1.6,0.2,1.3,1.5c-0.2,1.1-0.8,3-1.3,7.4c-0.2,1.6-0.5,8.5-0.8,10.4c-0.1,0.8-0.5,1.8-1,1.8
		c-1,0-1.7-0.8-1.7-2c0-1.1-0.2-2.6-1-4.5c-1.1-2.5-2.3-4.5-10.7-5.4c-2.7-0.3-17.5-0.5-19.3-0.5c-1.1,0-2.2,1.8-2.2,2.9L668,53.3
		c0,1.1,0.1,1.6,1,1.6c2,0,20.3,0,24-0.3c3.8-0.3,6-0.7,7.4-2.2c1-1.3,1.9-1.8,2.6-1.8c0.4,0,0.7,0.4,0.7,1.3c0,0.9-0.7,3.6-1.3,8.8
		c-0.3,3.2-0.6,8.9-0.6,10c0,1.2,0,3-1.1,3c-0.8,0-1.4-0.7-1.4-1.4c0-1.6,0-2.8-0.6-4.9s-1.8-4.8-7.9-5.5
		c-4.3-0.4-18.8-0.8-21.4-0.8c-0.8,0-1.1,0.5-1.1,1.1v13.5c0,5.3-0.2,23.6,0,26.9c0.4,10.9,3,12.3,17.2,12.4c4.1,0,11,0,15.1-1.7
		s5.8-4.7,6.9-11.1c0.3-1.7,0.8-2.1,1.6-2.1c1,0,1,1.3,1,2.4c0,1.3-1.3,12-2.1,15.3c-1.1,4.1-2.3,4.1-8.5,4.1
		c-11.8,0-20.5-0.3-26.6-0.5c-6.1-0.3-9.9-0.5-12.2-0.5c-0.3,0-3,0-6.3,0.1c-3.1,0-6.8,0.3-9.1,0.3c-1.8,0-2.6-0.6-2.6-1.5
		c0-0.5,0.6-1.2,1.3-1.2c1.4,0,3.3-0.3,4.7-0.6c2.6-0.6,2.9-3.6,3.4-8.2c0.8-6.6,0.8-19,0.8-34.1L652.8,48L652.8,48z"/>
	<path id="XMLID_28_" class="st0" d="M459.3,118.7c-1,0-3.1,0-6.1-0.4c-0.7-0.1-1.6-0.3-2.6-0.5c-4-1.3-9.3-3.9-15.7-10.6
		c-7.8-8.3-16.8-19.8-27.3-33.2c-1.8-2.4-3.6-4.9-5.6-7.3c14.1-13.2,19-24.9,19-36.6c0-11-7-18.6-10.9-21.5c-8.4-6-19-7-29-7
		c-4.9,0-17,0.4-18.7,0.4c-0.8,0-10.8-0.4-17.9-0.4c-1.7,0-2.5,0.3-2.5,1.3c0,0.9,1,1.3,1.5,1.3c1.5,0,4,0.3,5.3,0.6
		c5.1,1.4,5.4,3.6,5.6,8.7c0.3,5.1,0.3,9.5,0.3,34.2v27.9c0,15.1,0,27.7-0.8,34.3c-0.6,4.6-0.8,7.1-3.2,8.2c-2,0.5-2.3,0.6-4.9,0.7
		c-0.8,0-1.1,0.4-1.3,0.8c-0.1,0.1-0.2,0.3-0.2,0.5c0,0.9,0.8,1.3,2.5,1.3c4.8,0,14.7-0.5,14.9-0.5c0.8,0,10.7,0.5,19.5,0.5
		c1.7,0,2.5-0.5,2.5-1.3c0-0.3,0-0.5-0.3-0.7c-0.2-0.3-0.6-0.7-1.4-0.7c-1.9,0-4.2-0.3-6.4-0.6c-4.8-0.6-5-3.7-5.5-8.4
		c-0.8-6.6-0.7-19.1-0.7-34.3v-3.8c0-0.7,0.5-1.1,1.2-1.2l13.9,0.2h2.8c0.9,0,1.4,0.3,2,1c3.1,4.1,10.5,14.7,17,23.4
		c8.9,11.9,14.9,19.8,21.6,23.4c3.2,1.8,7,2.6,12.9,2.9c1.6,0.1,3.5,0.1,5.6,0.1h11.2c2.9,0,3.9-0.3,3.9-1.3
		C461.8,119.5,461,118.8,459.3,118.7 M397.3,61.2c-3.4,2.4-7.5,2.8-11,2.8c-6.5,0-13.3-1-15.5-2.4c-0.7-0.4-1.2-1.1-1.2-1.8V11.1
		c0-0.9,0.6-1.5,1.4-1.8c1.5-0.4,5.5-0.9,9.9-0.9c15.8,0,25.5,11.1,25.5,29.8C406.2,49.6,402.4,57.7,397.3,61.2"/>
	<path id="XMLID_11_" class="st0" d="M220.5,0.7c32.5,0,57.1,22,57.1,58.1c0,34.6-23.1,63.2-57.9,63.2c-39.5,0-56.4-33-56.4-60.9
		C163.3,36.3,180.7,0.7,220.5,0.7z M223.7,115.7c12.5,0,37.6-7.6,37.6-52.5c0-37.2-19.6-56.7-41.5-56.7c-23.2,0-39.9,16.8-39.9,50.5
		C179.8,93.1,198.6,115.7,223.7,115.7z"/>
	<path id="XMLID_7_" class="st0" d="M18.9,105.5C4.8,92.1,1.4,74.4,1.4,59.6c0-10.4,3.4-28.4,16.2-42.3C26.3,8,39.4,0.7,61.6,0.7
		c5.7,0,13.9,0.5,21,1.8c5.4,1.1,10,2.2,14.8,2.4c1.5,0,1.8,0.7,1.8,1.6c0,1.3-0.3,3.1-0.7,8.8c-0.2,5.1-0.2,13.7-0.3,15.9
		c-0.2,2.4-0.8,3.3-1.6,3.3c-1,0-1.7-1.1-1.7-3.3c0-6-2.3-12.2-6.1-15.5C83.7,11,73.8,6.6,61,7.1C41,7.9,17.2,18,17.2,58.3
		c0,40.7,24.5,56.1,50.3,56.1c10.8,0,17.6-0.9,23.3-7.3c3.1-3.5,5.1-10,5.6-12.9c0.3-1.6,0.9-2.2,1.9-2.2c0.7,0,1.3,1.1,1.3,2.2
		s-2,14.6-3.4,19.9c-0.8,2.9-1.2,3.5-3.6,4.6c-5.9,2.6-16.7,3.5-26.1,3.5C44.8,122.1,30.2,116.5,18.9,105.5z"/>
</g>
</svg>
