<?xml version="1.0" encoding="UTF-8"?>
<svg id="Layer_2" xmlns="http://www.w3.org/2000/svg" version="1.1" viewBox="0 0 1510 205.3">
  <!-- Generator: Adobe Illustrator 29.0.0, SVG Export Plug-In . SVG Version: 2.1.0 Build 186)  -->
  <g>
    <path d="M687,0v205.3h-47.2V0h47.2Z"/>
    <path d="M698.8,0h47.2l12.9,80.7h1.2V0h47.2v205.3h-47.2l-12.9-88h-1.2v88h-47.2V0Z"/>
    <path d="M925.2,36.7h-7.1v132h7.1v-57.9h47.2v50.5c0,26.4-14.1,44-35.4,44h-30.6c-21.2,0-35.4-17.6-35.4-44V44c0-26.4,14.1-44,35.3-44h30.6c21.3,0,35.4,17.6,35.4,44v43.2h-47.2v-50.5h.1Z"/>
    <path d="M984.2,161.3V44c0-26.4,14.1-44,35.3-44h30.6c21.2,0,35.4,17.6,35.4,44v117.3c0,26.4-14.1,44-35.4,44h-30.6c-21.2,0-35.4-17.6-35.4-44h.1ZM1038.4,36.7h-7.1v132h7.1V36.7Z"/>
    <path d="M1174,168.7v36.7h-76.6V0h47.2v168.7h29.5,0Z"/>
    <path d="M1182.2,161.3V44c0-26.4,14.2-44,35.4-44h30.6c21.2,0,35.4,17.6,35.4,44v117.3c0,26.4-14.1,44-35.4,44h-30.6c-21.2,0-35.4-17.6-35.4-44ZM1236.5,36.7h-7.1v132h7.1V36.7Z"/>
    <path d="M1387.1,105.3c6.1,8.5,9.6,21.4,9.6,38.4v61.6h-47.2v-88h-7.1v88h-47.2V0h66c21.2,0,35.4,17.6,35.4,44v29.3c0,13.2-3.5,24.3-9.6,32h0ZM1349.7,80.7v-44h-7.1v44h7.1Z"/>
    <path d="M1408.6,138.7h47.2v30h7.1v-22c0-29.3-54.3-23.2-54.3-88v-14.7c0-26.4,14.2-44,35.4-44h30.6c21.2,0,35.4,17.6,35.4,44v22.6h-47.2v-30h-7.1v22c0,29.3,54.3,23.8,54.3,88v14.7c0,26.4-14.1,44-35.4,44h-30.6c-21.2,0-35.4-17.6-35.4-44v-22.7h0Z"/>
  </g>
  <g>
    <path d="M117.1,170.2V35.1c0-21.1,14.1-35.1,35.1-35.1h30.4c21.1,0,35.1,14.1,35.1,35.1v135.1c0,21.1-14.1,35.1-35.1,35.1h-30.4c-21.1,0-35.1-14.1-35.1-35.1h0ZM171,29.3h-7v146.8h7V29.3Z"/>
    <path d="M281,176.1h7V0h46.8v170.2c0,21.1-14,35.1-35.1,35.1h-30.4c-21.1,0-35.1-14.1-35.1-35.1V0h46.8v176.1h0Z"/>
    <path d="M351.3,0h46.8l12.9,73.5h1.2V0h46.8v205.3h-46.8l-12.9-79.4h-1.2v79.4h-46.8V0h0Z"/>
    <path d="M576.1,35.1v135.1c0,21.1-14.1,35.1-35.1,35.1h-65.6V0h65.6c21.1,0,35.1,14.1,35.1,35.1h0ZM529.3,29.3h-7v146.8h7V29.3Z"/>
    <path d="M65.6,0h-30.4c-6.4,0-12.2,1.3-17.1,3.7C6.8,9.2,0,20.5,0,35.1v32.4c0,22.1,9.8,33.8,21,41.9h0l32.9,23.9v42.8h-7v-39.4L6.1,106.9l-6.1-4.4v67.8c0,21.1,14.1,35.1,35.1,35.1h30.4c9.3,0,17.2-2.7,23.2-7.6,7.6-6.2,12-15.7,12-27.5v-32.4c0-23.6-11.4-35.4-23.7-43.5l-30.1-22.1v-11.7h0v-31.3h7v39.4l46.8,34.2V35.1C100.7,14,86.6,0,65.6,0Z"/>
  </g>
</svg>