<svg xmlns="http://www.w3.org/2000/svg" viewBox="0 0 94.0142 93.8471"><defs><style>.cls-1{fill:#fff;}</style></defs><g id="Layer_2" data-name="Layer 2"><g id="object"><path class="cls-1" d="M47.2114,93.8471A47.146,47.146,0,0,1,8.2622,20.1078a1.5,1.5,0,1,1,2.4687,1.7031A44.0019,44.0019,0,1,0,52.01,3.1547V51.1254a1.5,1.5,0,0,1-1.5,1.5H20.2007a1.5,1.5,0,1,1,0-3H49.01V1.4994A1.4993,1.4993,0,0,1,50.63.0043,47.1384,47.1384,0,0,1,80.3325,80.1654,46.6789,46.6789,0,0,1,47.2114,93.8471Z"/><path class="cls-1" d="M17.46,18.3881a5.083,5.083,0,0,1-3.6035-1.4922h0A5.0877,5.0877,0,1,1,17.46,18.3881Zm-.0283-7.1621a2.0744,2.0744,0,0,0-1.4541,3.5488h0a2.0757,2.0757,0,1,0,1.4541-3.5488Z"/></g></g></svg>