<svg xmlns="http://www.w3.org/2000/svg" viewBox="0 0 87.2353 86.6412"><defs><style>.cls-1{fill:#fff;}</style></defs><g id="Layer_2" data-name="Layer 2"><g id="object"><path class="cls-1" d="M1.5,85.0631a1.5,1.5,0,0,1-1.5-1.5V1.5A1.5,1.5,0,0,1,2.4726.358L43.6171,35.4068,84.7627.358A1.5,1.5,0,0,1,86.708,2.6422L44.59,38.5191a1.5021,1.5021,0,0,1-1.9453,0L3,4.7481v78.815A1.5,1.5,0,0,1,1.5,85.0631Z"/><path class="cls-1" d="M85.7353,84.8536a1.5,1.5,0,0,1-1.5-1.5V21.1758L44.59,54.9473a1.5,1.5,0,0,1-1.9453,0L9.3564,26.5914a1.5,1.5,0,0,1,1.9453-2.2842L43.6171,51.835,84.7627,16.7857a1.5,1.5,0,0,1,2.4726,1.1421V83.3536A1.5,1.5,0,0,1,85.7353,84.8536Z"/><path class="cls-1" d="M85.7353,84.8536H43.6171a1.5,1.5,0,1,1,0-3H85.7353a1.5,1.5,0,0,1,0,3Z"/><path class="cls-1" d="M32.8847,86.6412a4.1609,4.1609,0,1,1,4.1612-4.1607A4.1651,4.1651,0,0,1,32.8847,86.6412Zm0-5.3218a1.1609,1.1609,0,1,0,1.1612,1.1611A1.1623,1.1623,0,0,0,32.8847,81.3194Z"/></g></g></svg>