<svg xmlns="http://www.w3.org/2000/svg" viewBox="0 0 116.344 91.7178"><defs><style>.cls-1{fill:#fff;}</style></defs><g id="Layer_2" data-name="Layer 2"><g id="object"><path class="cls-1" d="M58.3991,91.7178a1.5,1.5,0,0,1-1.0917-.4717L.4089,30.8574A1.5,1.5,0,0,1,.2,29.082L14.9236,3.4375a1.5,1.5,0,0,1,1.3007-.753h7.7383a1.5,1.5,0,0,1,0,3h-6.87L3.3562,29.61l55.039,58.4151,54.5577-58.37L97.6618,5.6845H39.1433a1.5,1.5,0,0,1,0-3H98.4841a1.5,1.5,0,0,1,1.2647.6934l16.3593,25.6445a1.5,1.5,0,0,1-.1689,1.8311L59.4949,91.2422a1.5017,1.5017,0,0,1-1.0928.4756Z"/><path class="cls-1" d="M1.5,31.3291a1.5,1.5,0,0,1-.3281-2.9639L69.2741,13.039a1.5,1.5,0,0,1,.6583,2.9278L1.83,31.2929A1.5267,1.5267,0,0,1,1.5,31.3291Z"/><path class="cls-1" d="M114.8435,31.3291a1.5119,1.5119,0,0,1-.4815-.0791l-75.7-25.6446a1.5,1.5,0,0,1,.9629-2.8418l75.7,25.6446a1.5,1.5,0,0,1-.4814,2.9209Z"/><path class="cls-1" d="M31.5056,8.3691A4.1846,4.1846,0,1,1,35.69,4.1845,4.189,4.189,0,0,1,31.5056,8.3691Zm0-5.3691A1.1846,1.1846,0,1,0,32.69,4.1845,1.1857,1.1857,0,0,0,31.5056,3Z"/></g></g></svg>