<?xml version="1.0" encoding="utf-8"?>
<!-- Generator: Adobe Illustrator 24.2.0, SVG Export Plug-In . SVG Version: 6.00 Build 0)  -->
<svg version="1.1" id="Layer_1" xmlns="http://www.w3.org/2000/svg" xmlns:xlink="http://www.w3.org/1999/xlink" x="0px" y="0px"
	 viewBox="0 0 800 238" style="enable-background:new 0 0 800 238;" xml:space="preserve">
<style type="text/css">
	.st0{opacity:7.000000e-02;fill:#FFFFFF;enable-background:new    ;}
	.st1{display:none;fill:#A6A6A6;}
	.st2{display:none;}
	.st3{fill:#FFFFFF;}
	.st4{display:none;fill:url(#SVGID_1_);}
</style>
<path class="st0" d="M771.5,237.9H30.7c-16.6,0-29.6-13-29.6-29.7V29.8c0-16.7,13-29.7,29.6-29.7h740.7c16.6,0,29.6,13,29.6,29.7
	v178.4C801.1,224.9,788.1,237.9,771.5,237.9z"/>
<g transform="scale(4.00216 4.0011)">
	<path class="st1" d="M176.6,54H23.3c-3.2,0-5.8-2.6-5.8-5.8V10.9c0-3.2,2.6-5.8,5.8-5.8h153.4c3.2,0,5.8,2.6,5.8,5.8v37.4
		C182.4,51.4,179.8,54,176.6,54L176.6,54z"/>
	<path class="st2" d="M181.3,48.2c0,2.6-2.1,4.7-4.7,4.7l0,0H23.3c-2.6,0-4.7-2.1-4.7-4.7V10.9c0-2.6,2.1-4.7,4.7-4.7h153.4
		c2.6,0,4.7,2.1,4.7,4.7l0,0V48.2L181.3,48.2z"/>
	<path class="st3" d="M54.3,29.3c0-4,3.2-5.9,3.4-5.9c-1.8-2.7-4.7-3.1-5.7-3.1c-2.4-0.2-4.7,1.4-5.9,1.4s-3.1-1.4-5.2-1.4
		c-2.6,0-5,1.6-6.4,3.9c-2.8,4.8-0.7,11.9,2,15.8c1.3,1.9,2.9,4,4.9,4c2-0.1,2.7-1.2,5.1-1.2c2.4,0,3.1,1.2,5.1,1.2
		c2.1,0,3.5-1.9,4.8-3.8c1.6-2.1,2.1-4.3,2.1-4.5C58.5,35.5,54.4,34,54.3,29.3L54.3,29.3z M50.4,17.7c1.1-1.3,1.8-3.1,1.6-5
		c-1.6,0.1-3.5,1.1-4.6,2.4c-1,1.2-1.9,3.1-1.6,4.8C47.5,20,49.3,19,50.4,17.7z"/>
	
		<linearGradient id="SVGID_1_" gradientUnits="userSpaceOnUse" x1="-413.0059" y1="224.2629" x2="-413.0059" y2="253.9974" gradientTransform="matrix(380.1848 0 0 -379.7784 157157.0156 85224.2734)">
		<stop  offset="0" style="stop-color:#1A1A1A;stop-opacity:0.1"/>
		<stop  offset="0.123" style="stop-color:#212121;stop-opacity:0.151"/>
		<stop  offset="0.308" style="stop-color:#353535;stop-opacity:0.227"/>
		<stop  offset="0.532" style="stop-color:#575757;stop-opacity:0.318"/>
		<stop  offset="0.783" style="stop-color:#858585;stop-opacity:0.421"/>
		<stop  offset="1" style="stop-color:#B3B3B3;stop-opacity:0.51"/>
	</linearGradient>
	<path class="st4" d="M176.6,5.1H94.5L126.6,54h50c3.2,0,5.8-2.6,5.8-5.8V10.9C182.4,7.6,179.8,5.1,176.6,5.1z"/>
	<g>
		<path class="st3" d="M83.1,43.6h-2.8l-1.5-4.8h-5.3L72,43.6h-2.7l5.2-16.3h3.2L83.1,43.6L83.1,43.6z M78.4,36.9L77,32.6
			c-0.2-0.4-0.4-1.5-0.8-3.1h-0.1c-0.2,0.7-0.4,1.7-0.7,3.1L74,36.9H78.4z M96.5,37.6c0,2-0.6,3.5-1.6,4.7c-1,1-2.1,1.6-3.6,1.6
			c-1.6,0-2.6-0.6-3.4-1.6v6.2h-2.6V35.8c0-1.2,0-2.6-0.1-3.9h2.3l0.2,1.9h0.1c0.9-1.4,2.2-2.1,4-2.1c1.4,0,2.6,0.6,3.5,1.6
			C96.1,34.4,96.5,35.8,96.5,37.6L96.5,37.6z M93.9,37.7c0-1.2-0.2-2.1-0.7-2.8c-0.6-0.7-1.3-1.2-2.3-1.2c-0.7,0-1.2,0.2-1.7,0.7
			c-0.5,0.4-0.8,1-1,1.6C88,36.3,88,36.5,88,36.9v2c0,0.8,0.2,1.6,0.8,2.1c0.5,0.6,1.2,0.9,2.1,0.9c1,0,1.7-0.4,2.3-1.2
			C93.6,39.9,93.9,38.9,93.9,37.7z M110.1,37.6c0,2-0.6,3.5-1.6,4.7c-1,1-2.1,1.6-3.6,1.6c-1.6,0-2.6-0.6-3.4-1.6v6.2h-2.6V35.8
			c0-1.2,0-2.6-0.1-3.9h2.3l0.2,1.9h0.1c0.9-1.4,2.2-2.1,4-2.1c1.4,0,2.6,0.6,3.5,1.6C109.6,34.4,110.1,35.8,110.1,37.6L110.1,37.6z
			 M107.4,37.7c0-1.2-0.2-2.1-0.7-2.8c-0.6-0.7-1.3-1.2-2.2-1.2c-0.7,0-1.2,0.2-1.7,0.7c-0.5,0.4-0.8,1-1,1.6
			c-0.1,0.3-0.1,0.6-0.1,0.8v2c0,0.8,0.2,1.6,0.7,2.1s1.2,0.9,2.1,0.9c1,0,1.7-0.4,2.3-1.2C107.1,39.9,107.4,38.9,107.4,37.7z
			 M125.2,39.1c0,1.4-0.5,2.5-1.5,3.4c-1.1,0.9-2.6,1.4-4.5,1.4c-1.7,0-3.1-0.3-4.2-1l0.6-2.1c1.2,0.7,2.4,1,3.8,1
			c1,0,1.7-0.2,2.3-0.7c0.6-0.4,0.8-1.1,0.8-1.7s-0.2-1.2-0.7-1.6c-0.4-0.4-1.2-0.9-2.2-1.2c-2.9-1.1-4.3-2.6-4.3-4.6
			c0-1.3,0.5-2.4,1.5-3.3c1-0.8,2.3-1.3,4-1.3c1.5,0,2.7,0.2,3.7,0.7l-0.7,2.1c-0.9-0.5-2-0.7-3.1-0.7c-0.9,0-1.6,0.2-2.1,0.7
			c-0.4,0.4-0.7,0.9-0.7,1.5c0,0.7,0.2,1.2,0.7,1.6c0.4,0.4,1.2,0.8,2.4,1.2c1.4,0.6,2.4,1.2,3.1,2C124.8,37,125.2,37.9,125.2,39.1
			L125.2,39.1z M133.7,33.8h-2.9v5.7c0,1.5,0.5,2.1,1.5,2.1c0.5,0,0.8,0,1.2-0.1l0.1,2c-0.5,0.2-1.2,0.2-2.1,0.2
			c-1,0-1.8-0.3-2.4-0.9c-0.6-0.7-0.9-1.6-0.9-3.1v-5.9h-1.7v-2h1.7v-2.1l2.6-0.7v2.9h2.9L133.7,33.8L133.7,33.8z M146.7,37.7
			c0,1.8-0.5,3.3-1.6,4.5c-1.1,1.2-2.5,1.8-4.3,1.8c-1.7,0-3.1-0.6-4.1-1.7c-1-1.2-1.6-2.6-1.6-4.3c0-1.8,0.5-3.3,1.6-4.5
			c1.1-1.2,2.5-1.7,4.3-1.7c1.7,0,3.1,0.6,4.1,1.7C146.2,34.5,146.7,35.9,146.7,37.7L146.7,37.7z M144,37.7c0-1.1-0.2-2-0.7-2.8
			c-0.6-0.9-1.3-1.4-2.3-1.4c-1.1,0-1.8,0.5-2.4,1.4c-0.5,0.7-0.7,1.7-0.7,2.8s0.2,2,0.7,2.8c0.6,0.9,1.3,1.4,2.4,1.4
			c1,0,1.8-0.5,2.3-1.4C143.8,39.7,144,38.7,144,37.7L144,37.7z M155.2,34.2c-0.2-0.1-0.6-0.1-0.8-0.1c-0.9,0-1.6,0.3-2.1,1.1
			c-0.4,0.6-0.7,1.4-0.7,2.3v6.2h-2.6v-8c0-1.2,0-2.5-0.1-3.7h2.3l0.1,2.2h0.1c0.2-0.7,0.7-1.4,1.3-1.9c0.6-0.4,1.2-0.7,1.9-0.7
			c0.2,0,0.5,0,0.7,0.1L155.2,34.2L155.2,34.2z M166.8,37.2c0,0.4,0,0.8-0.1,1.2h-7.8c0,1.2,0.4,2.1,1.2,2.6
			c0.7,0.6,1.5,0.8,2.6,0.8c1.2,0,2.2-0.2,3.1-0.6l0.4,1.8c-1.1,0.5-2.4,0.7-4,0.7c-1.8,0-3.2-0.5-4.3-1.6c-1.1-1.1-1.6-2.5-1.6-4.3
			c0-1.7,0.5-3.2,1.5-4.5c1-1.2,2.4-1.9,4.1-1.9c1.6,0,3,0.7,3.9,1.9C166.5,34.5,166.8,35.7,166.8,37.2L166.8,37.2z M164.3,36.5
			c0-0.7-0.2-1.4-0.5-2c-0.4-0.7-1.2-1.1-2.1-1.1c-0.8,0-1.6,0.3-2.1,1.1c-0.4,0.6-0.7,1.2-0.7,2.1L164.3,36.5L164.3,36.5z"/>
	</g>
	<g>
		<path class="st3" d="M72.8,21.6c-0.7,0-1.3,0-1.9-0.1v-7.8c0.7-0.1,1.5-0.2,2.2-0.2c3,0,4.4,1.5,4.4,3.9
			C77.5,20.1,75.8,21.6,72.8,21.6z M73.2,14.5c-0.4,0-0.7,0-1.1,0.1v5.9c0.2,0,0.4,0,0.8,0c2,0,3.1-1.2,3.1-3.2
			C76.2,15.5,75.1,14.5,73.2,14.5z M81.8,21.7c-1.6,0-2.8-1.2-2.8-3c0-1.8,1.2-3.1,2.9-3.1c1.6,0,2.8,1.2,2.8,3
			C84.6,20.4,83.5,21.7,81.8,21.7z M81.8,16.6c-0.9,0-1.5,0.8-1.5,2.1c0,1.2,0.6,2.1,1.5,2.1c0.9,0,1.5-0.9,1.5-2.1
			C83.3,17.5,82.7,16.6,81.8,16.6L81.8,16.6z M94.2,15.7l-1.8,5.8h-1.2L90.5,19c-0.2-0.6-0.3-1.2-0.5-1.9l0,0
			c-0.1,0.7-0.2,1.2-0.5,1.9l-0.8,2.5h-1.2l-1.7-5.8h1.3l0.7,2.7c0.2,0.7,0.2,1.2,0.4,1.8l0,0c0.1-0.5,0.2-1.1,0.5-1.8l0.8-2.7h1.1
			l0.7,2.7c0.2,0.7,0.3,1.3,0.5,1.9l0,0c0.1-0.6,0.2-1.2,0.4-1.9l0.7-2.7L94.2,15.7L94.2,15.7z M100.9,21.5h-1.3v-3.3
			c0-1-0.4-1.6-1.2-1.6c-0.7,0-1.3,0.7-1.3,1.4v3.5h-1.2v-4.1c0-0.5,0-1.1-0.1-1.6h1.2l0.1,0.9l0,0c0.3-0.6,1.1-1,1.8-1
			c1.2,0,2,0.9,2,2.4L100.9,21.5L100.9,21.5z M104.4,21.5H103v-8.4h1.3V21.5z M109.1,21.7c-1.6,0-2.8-1.2-2.8-3
			c0-1.8,1.2-3.1,2.9-3.1c1.6,0,2.8,1.2,2.8,3C112,20.4,110.8,21.7,109.1,21.7z M109.1,16.6c-0.9,0-1.5,0.8-1.5,2.1
			c0,1.2,0.6,2.1,1.5,2.1c0.9,0,1.5-0.9,1.5-2.1C110.6,17.5,110.1,16.6,109.1,16.6L109.1,16.6z M117,21.5l-0.1-0.7l0,0
			c-0.4,0.5-1,0.8-1.6,0.8c-1.1,0-1.7-0.7-1.7-1.7c0-1.4,1.2-2.1,3.4-2.1v-0.1c0-0.7-0.4-1.2-1.2-1.2c-0.6,0-1.1,0.2-1.5,0.4
			l-0.2-0.8c0.5-0.3,1.2-0.5,2-0.5c1.5,0,2.2,0.8,2.2,2.4v2.1c0,0.6,0,1.1,0.1,1.4L117,21.5L117,21.5z M116.8,18.6
			c-1.4,0-2.1,0.3-2.1,1.2c0,0.6,0.3,0.9,0.9,0.9c0.7,0,1.2-0.5,1.2-1.2V18.6z M124.3,21.5l-0.1-0.9l0,0c-0.3,0.7-1,1.1-1.8,1.1
			c-1.4,0-2.4-1.2-2.4-3c0-1.8,1.1-3.1,2.6-3.1c0.7,0,1.3,0.2,1.6,0.7l0,0v-3.3h1.3v6.8c0,0.6,0,1.1,0.1,1.6L124.3,21.5L124.3,21.5z
			 M124.1,18.1c0-0.8-0.5-1.5-1.3-1.5c-1,0-1.6,0.8-1.6,2.1c0,1.2,0.6,2,1.5,2c0.8,0,1.4-0.7,1.4-1.6V18.1L124.1,18.1z M133.5,21.7
			c-1.6,0-2.8-1.2-2.8-3c0-1.8,1.2-3.1,2.9-3.1c1.6,0,2.8,1.2,2.8,3C136.4,20.4,135.2,21.7,133.5,21.7L133.5,21.7z M133.6,16.6
			c-0.9,0-1.5,0.8-1.5,2.1c0,1.2,0.6,2.1,1.5,2.1s1.5-0.9,1.5-2.1C135.1,17.5,134.5,16.6,133.6,16.6L133.6,16.6z M143.3,21.5H142
			v-3.3c0-1-0.4-1.6-1.2-1.6s-1.3,0.7-1.3,1.4v3.5h-1.3v-4.1c0-0.5,0-1.1-0.1-1.6h1.2l0.1,0.9l0,0c0.3-0.6,1.1-1,1.8-1
			c1.2,0,2,0.9,2,2.4v3.5H143.3z M151.9,16.7h-1.4v2.8c0,0.7,0.2,1.1,0.7,1.1c0.2,0,0.4,0,0.6-0.1v1c-0.2,0.1-0.6,0.2-1,0.2
			c-1,0-1.6-0.6-1.6-2v-2.9h-0.8v-1.1h0.8v-1.1l1.2-0.4v1.5h1.4L151.9,16.7L151.9,16.7z M158.6,21.5h-1.3v-3.3
			c0-1.1-0.4-1.6-1.2-1.6c-0.7,0-1.3,0.4-1.3,1.4v3.5h-1.3v-8.4h1.3v3.5l0,0c0.4-0.7,1-0.9,1.7-0.9c1.2,0,2,0.9,2,2.5L158.6,21.5
			L158.6,21.5z M165.7,18.9h-3.9c0,1.1,0.7,1.7,1.8,1.7c0.6,0,1.1-0.1,1.6-0.2l0.2,0.9c-0.6,0.2-1.2,0.3-1.9,0.3
			c-1.8,0-2.9-1.2-2.9-2.9c0-1.7,1.1-3.1,2.7-3.1c1.5,0,2.4,1.1,2.4,2.7C165.7,18.5,165.7,18.8,165.7,18.9L165.7,18.9z M164.4,18
			c0-0.9-0.4-1.5-1.2-1.5c-0.7,0-1.3,0.7-1.4,1.5H164.4L164.4,18z"/>
	</g>
</g>
</svg>
