<?xml version="1.0" encoding="utf-8"?>
<!-- Generator: Adobe Illustrator 24.2.0, SVG Export Plug-In . SVG Version: 6.00 Build 0)  -->
<svg version="1.1" id="Layer_1" xmlns="http://www.w3.org/2000/svg" xmlns:xlink="http://www.w3.org/1999/xlink" x="0px" y="0px"
	 viewBox="0 0 800 239" style="enable-background:new 0 0 800 239;" xml:space="preserve">
<style type="text/css">
	.st0{opacity:7.000000e-02;fill:#FFFFFF;enable-background:new    ;}
	.st1{display:none;fill:#A6A6A6;}
	.st2{fill:#FFFFFF;}
	.st3{fill:url(#SVGID_1_);}
	.st4{fill:url(#SVGID_2_);}
	.st5{fill:url(#SVGID_3_);}
	.st6{fill:url(#SVGID_4_);}
</style>
<path class="st0" d="M770.4,239H29.6C13,239,0,225.9,0,209.1V29.9C0,13.1,13,0,29.6,0h740.7c16.6,0,29.6,13.1,29.6,29.8v179.3
	C800,225.9,787,239,770.4,239z"/>
<path class="st1" d="M770.4,6.2c13.6,0,24.9,11.3,24.9,24.9v177.8c0,13.6-11.3,24.9-24.9,24.9H29.6c-13.6,0-24.9-11.3-24.9-24.9
	V31.1C4.7,17.5,16,6.2,29.6,6.2H770.4 M770.4,1.5H29.6C13,1.5,0,15.1,0,31.1v177.8c0,16.6,13,29.6,29.6,29.6h740.7
	c16.6,0,29.6-13,29.6-29.6V31.1C800,15.1,787,1.5,770.4,1.5z"/>
<g>
	<g>
		<path class="st2" d="M293.2,68.6c0,4.4-1.4,8-4,10.6c-3,3.2-6.9,4.7-11.7,4.7c-4.6,0-8.6-1.6-11.7-4.8c-3.2-3.2-4.9-7.1-4.9-11.9
			c0-4.7,1.6-8.6,4.9-11.9c3.2-3.2,7.1-4.8,11.7-4.8c2.3,0,4.5,0.5,6.6,1.4c2.1,0.9,3.8,2.1,5,3.6l-2.8,2.8c-2.1-2.5-5-3.8-8.7-3.8
			c-3.3,0-6.2,1.2-8.7,3.5c-2.4,2.3-3.7,5.4-3.7,9.2c0,3.8,1.3,6.8,3.7,9.2s5.3,3.5,8.7,3.5c3.6,0,6.6-1.2,8.9-3.6
			c1.5-1.5,2.4-3.7,2.7-6.5h-11.6V66H293C293.2,67.1,293.2,67.9,293.2,68.6z"/>
		<path class="st2" d="M317.7,55.3h-14.5v10.1h13.1v3.9h-13.1v10.1h14.5v4h-18.6V51.4h18.6L317.7,55.3L317.7,55.3z"/>
		<path class="st2" d="M335,83.3h-4.1v-28h-8.9v-4h21.9v4h-8.9L335,83.3L335,83.3z"/>
		<path class="st2" d="M359.8,83.3V51.4h4.1v31.9C363.8,83.3,359.8,83.3,359.8,83.3z"/>
		<path class="st2" d="M382.1,83.3H378v-28H369v-4h21.9v4h-8.8V83.3z"/>
		<path class="st2" d="M432.4,79.2c-3.2,3.2-7,4.9-11.7,4.9s-8.6-1.6-11.7-4.9c-3.2-3.2-4.7-7.2-4.7-11.8s1.5-8.6,4.7-11.8
			c3.2-3.2,7-4.9,11.7-4.9c4.6,0,8.6,1.6,11.7,4.9c3.2,3.2,4.7,7.2,4.7,11.8C437.1,72.1,435.6,75.9,432.4,79.2z M412.1,76.6
			c2.3,2.4,5.2,3.6,8.6,3.6c3.4,0,6.3-1.2,8.6-3.6c2.3-2.4,3.5-5.4,3.5-9.2c0-3.7-1.2-6.8-3.5-9.2s-5.2-3.6-8.6-3.6
			c-3.4,0-6.3,1.2-8.6,3.6s-3.5,5.4-3.5,9.2C408.6,71.1,409.7,74.1,412.1,76.6z"/>
		<path class="st2" d="M442.9,83.3V51.4h5l15.5,24.8h0.2l-0.2-6.1V51.4h4.1v31.9h-4.2l-16.2-26h-0.2l0.2,6.1v19.9
			C447,83.3,442.9,83.3,442.9,83.3z"/>
	</g>
	<path class="st2" d="M403.4,129.8c-6.3,0-12,2.4-16.1,6.5c-4.1,4-6.6,9.6-6.6,16.1c0,6.8,2.9,12.8,7.4,16.8
		c4.1,3.6,9.5,5.8,15.3,5.8c5.6,0,10.6-1.9,14.6-5.1c5-4.1,8.1-10.3,8.1-17.5c0-5.4-1.7-10.1-4.6-13.9
		C417.3,133.1,410.7,129.8,403.4,129.8z M403.4,166.2c-6.8,0-12.8-5.7-12.8-13.7c0-8.1,5.9-13.7,12.8-13.7c6.8,0,12.8,5.6,12.8,13.7
		C416.1,160.5,410.2,166.2,403.4,166.2z M353.8,129.8c-4.7,0-9,1.4-12.7,3.7c-6,4-10,10.7-10,18.9c0,6.5,2.5,12.2,6.7,16.2
		c4.1,4.1,9.8,6.4,16,6.4c5.2,0,10-1.6,13.8-4.5c5.4-4.1,8.9-10.4,8.9-18.1c0-4.3-1.1-8.3-3.1-11.6
		C369.6,134.1,362.2,129.8,353.8,129.8z M353.8,166.2c-6.8,0-12.8-5.7-12.8-13.7c0-8.1,5.9-13.7,12.8-13.7c6.8,0,12.8,5.6,12.8,13.7
		C366.6,160.5,360.8,166.2,353.8,166.2z M295,136.7v9.5h12h10.9c-0.7,5.4-2.5,9.4-5.2,12.1c-3.3,3.3-8.6,7-17.7,7
		c-14.1,0-25.2-11.3-25.2-25.5c0-14.1,11.1-25.5,25.2-25.5c7.7,0,13.1,3,17.3,6.8l6.8-6.8c-5.8-5.5-13.3-9.6-24-9.6
		c-6.6,0-12.8,1.8-18.1,5c-10.4,6.1-17.5,17.4-17.5,30.2c0,13.1,7.6,24.7,18.5,30.7c5.1,2.8,11,4.4,17.1,4.4
		c10.4,0,18.3-3.4,24.5-9.8c6.3-6.3,8.3-15.2,8.3-22.4c0-2.3-0.2-4.3-0.5-6h-16.6L295,136.7L295,136.7z M535.7,144.2
		c-1.9-5-7.7-14.4-19.4-14.4c-5,0-9.6,1.7-13.3,4.7c-4.9,4-8,10.3-8,17.9c0,12.7,9.5,22.6,22.4,22.6c10.4,0,16.4-6.3,18.8-10
		l-7.7-5.1c-2.6,3.8-6,6.2-11.2,6.2c-5,0-8.6-2.3-11-6.8l30.3-12.5L535.7,144.2z M504.9,151.8c-0.3-8.7,6.8-13.1,11.8-13.1
		c4,0,7.3,2,8.4,4.8l-10.5,4.4L504.9,151.8z M480.4,173.7h9.9v-66.5h-9.9V173.7z M464.1,134.8h-0.4c-2.3-2.6-6.5-5-11.9-5
		c-5.2,0-10.3,2.2-14.1,5.7c-4.5,4.1-7.5,10.2-7.5,17c0,7.9,4.1,14.8,9.8,18.7c3.5,2.4,7.6,3.8,11.8,3.8c5.4,0,9.6-2.4,11.9-5.1h0.4
		v3.2c0,8.6-4.6,13.2-12.1,13.2c-6,0-9.8-4.3-11.3-8l-8.6,3.6c2.5,6,9.1,13.3,20,13.3c11.6,0,21.5-6.8,21.5-23.5v-40.6h-9.5V134.8z
		 M452.7,166.2c-6.8,0-12.6-5.8-12.6-13.6c0-7.9,5.8-13.8,12.6-13.8c6.8,0,12.1,5.9,12.1,13.8C464.8,160.4,459.5,166.2,452.7,166.2z
		 M582.3,107.2h-23.8v66.5h9.9v-25.2h13.9c6.3,0,12.6-2.6,16.8-7.3c3.1-3.4,5-7.9,5-13.3c0-5.3-1.9-9.8-4.9-13.2
		C595,109.9,588.7,107.2,582.3,107.2z M582.6,139.3h-14.1v-22.8h14.1c7.4,0,11.6,6.1,11.6,11.3S590,139.3,582.6,139.3z M643.8,129.7
		c-7.2,0-14.6,3.2-17.7,10.2l8.8,3.7c1.9-3.7,5.4-4.9,9.1-4.9c5.1,0,10.4,3.1,10.4,8.6v0.7c-1.8-1-5.7-2.5-10.4-2.5
		c-4.1,0-8.2,1-11.5,2.9c-4.4,2.5-7.6,6.6-7.6,12.2c0,4.9,2.3,8.7,5.8,11.3c3,2.2,6.8,3.3,10.7,3.3c6.7,0,10.4-3,12.6-6.5h0.4v5.1
		h9.5v-15.7v-10c0-7-3.1-12.2-8-15.2C652.6,130.8,648.5,129.7,643.8,129.7z M642.6,166.1c-3.2,0-7.7-1.6-7.7-5.7
		c0-5.1,5.7-7.1,10.5-7.1c4.3,0,6.4,0.9,9.1,2.3C653.6,161.8,648.4,166.1,642.6,166.1z M698.9,131.1l-4.7,11.9l-6.7,16.8h-0.4
		l-11.8-28.8h-10.7l8.6,19.5l9.2,20.8l-10.1,22.4h10.4l19.4-44.5l7.9-18.2L698.9,131.1L698.9,131.1z M609.6,173.7h9.9v-66.5h-9.9
		V173.7z"/>
	
		<linearGradient id="SVGID_1_" gradientUnits="userSpaceOnUse" x1="-13.0885" y1="285.3655" x2="149.8087" y2="151.5317" gradientTransform="matrix(1 0 0 -1 0 240)">
		<stop  offset="0" style="stop-color:#32A071"/>
		<stop  offset="6.850000e-02" style="stop-color:#2DA771"/>
		<stop  offset="0.4762" style="stop-color:#15CF74"/>
		<stop  offset="0.8009" style="stop-color:#06E775"/>
		<stop  offset="1" style="stop-color:#00F076"/>
	</linearGradient>
	<path class="st3" d="M184.1,95.5l-79-46.4c-4.1-2.3-8.8-1-11.3,2.3l66.9,67.3L184.1,95.5z"/>
	
		<linearGradient id="SVGID_2_" gradientUnits="userSpaceOnUse" x1="207.5378" y1="122.2229" x2="85.9037" y2="121.5053" gradientTransform="matrix(1 0 0 -1 0 240)">
		<stop  offset="0" style="stop-color:#00A0FF"/>
		<stop  offset="6.574450e-03" style="stop-color:#00A1FF"/>
		<stop  offset="0.2601" style="stop-color:#00BEFF"/>
		<stop  offset="0.5122" style="stop-color:#00D2FF"/>
		<stop  offset="0.7604" style="stop-color:#00DFFF"/>
		<stop  offset="1" style="stop-color:#00E3FF"/>
	</linearGradient>
	<path class="st4" d="M92.3,180.5c0,1.9,0.5,3.5,1.5,5l67-66.7L93.9,51.4c-1,1.4-1.7,3.2-1.7,5.1L92.3,180.5L92.3,180.5z"/>
	
		<linearGradient id="SVGID_3_" gradientUnits="userSpaceOnUse" x1="224.5718" y1="118.1462" x2="114.7779" y2="126.7574" gradientTransform="matrix(1 0 0 -1 0 240)">
		<stop  offset="0" style="stop-color:#FFE000"/>
		<stop  offset="0.4087" style="stop-color:#FFBD00"/>
		<stop  offset="0.7754" style="stop-color:#FFA500"/>
		<stop  offset="1" style="stop-color:#FF9C00"/>
	</linearGradient>
	<path class="st5" d="M183.8,141.9l27.1-15.9c5.7-3.3,5.7-11.5,0-14.9l-26.7-15.7l-23.4,23.2L183.8,141.9z"/>
	
		<linearGradient id="SVGID_4_" gradientUnits="userSpaceOnUse" x1="210.3143" y1="134.8807" x2="-1.0212" y2="-5.4119" gradientTransform="matrix(1 0 0 -1 0 240)">
		<stop  offset="0" style="stop-color:#FF3A44"/>
		<stop  offset="1" style="stop-color:#C31162"/>
	</linearGradient>
	<path class="st6" d="M93.8,185.5c2.4,3.5,7.3,5,11.4,2.5l78.6-46.1l-23-23.1L93.8,185.5z"/>
</g>
</svg>
