<?xml version="1.0" encoding="UTF-8"?>
<svg id="Layer_2" data-name="Layer 2" xmlns="http://www.w3.org/2000/svg" viewBox="0 0 311.9465797266 251.1916728341">
  <defs>
    <style>
      .cls-1 {
        fill: #fff;
      }
    </style>
  </defs>
  <g id="Layer_1-2" data-name="Layer 1">
    <g>
      <g>
        <g>
          <path class="cls-1" d="M15.9024086912,104.3168854332v49.1167632453H1.8678455568v-49.1167632453h14.0345631344Z"/>
          <path class="cls-1" d="M19.4098803176,104.3168854332h14.0328636469l3.8606977147,19.2971740502h.3485647359v-19.2971740502h14.0359661231v49.1167632453h-14.0359661231l-3.8575952385-21.0509099077h-.3516672121v21.0509099077h-14.0328636469v-49.1167632453Z"/>
          <path class="cls-1" d="M86.7687850431,113.0886824733h-2.1054349251v31.5747280414h2.1054349251v-13.8395480616h14.0330046127v12.0844092154c0,6.3160991768-4.2092947049,10.52537701-10.5255328976,10.52537701h-9.1217812551c-6.3146960285,0-10.5239737555-4.2092778333-10.5239737555-10.52537701v-28.0658533377c0-6.3162550644,4.2092777269-10.5255328976,10.5239737555-10.5255328976h9.1217812551c6.3162381927,0,10.5255328976,4.2092778333,10.5255328976,10.5255328976v10.3305174703h-14.0330046127v-12.0842533278Z"/>
          <path class="cls-1" d="M104.3092613707,142.9082716685v-28.0658533377c0-6.3162550644,4.2122225253-10.5255328976,10.5239740213-10.5255328976h9.1233060869c6.3162549048,0,10.5269356204,4.2092778333,10.5269356204,10.5255328976v28.0658533377c0,6.3160991768-4.2106807156,10.52537701-10.5269356204,10.52537701h-9.1233060869c-6.311751496,0-10.5239740213-4.2092778333-10.5239740213-10.52537701ZM120.4475109763,113.0886824733h-2.1038594253v31.5747280414h2.1038594253v-31.5747280414Z"/>
          <path class="cls-1" d="M160.7941909262,144.6634105147v8.7702381638h-22.8062040654v-49.1167632453h14.0359661231v40.3465250815h8.7702379423Z"/>
          <path class="cls-1" d="M163.2495769523,142.9082716685v-28.0658533377c0-6.3162550644,4.2092777269-10.5255328976,10.5239737555-10.5255328976h9.1203615544c6.3176578935,0,10.5269549381,4.2092778333,10.5269549381,10.5255328976v28.0658533377c0,6.3160991768-4.2092970447,10.52537701-10.5269549381,10.52537701h-9.1203615544c-6.3146960285,0-10.5239737555-4.2092778333-10.5239737555-10.52537701ZM179.3879995121,113.0886824733h-2.1054183016v31.5747280414h2.1054183016v-31.5747280414Z"/>
          <path class="cls-1" d="M224.2239313685,129.5070796275c1.8252882344,2.0352689205,2.8756590708,5.1196616029,2.8756590708,9.1903553315v14.7362137196h-14.0328483705v-21.0509099077h-2.1038396645v21.0509099077h-14.034563489v-49.1167632453h19.6474336561c6.3160990172,0,10.5238178679,4.2092778333,10.5238178679,10.5255328976v7.01494343c0,3.1587510827-1.0503708364,5.8244295861-2.8756590708,7.6497178666ZM213.0667420687,123.6140594834v-10.52537701h-2.1038396645v10.52537701h2.1038396645Z"/>
          <path class="cls-1" d="M230.6070620657,137.4902411384h14.0345631344v7.1731693763h2.1052830788v-5.2626105612c0-7.0180611826-16.1398462133-5.5444553995-16.1398462133-21.0509099077v-3.507471715c0-6.3162550644,4.2108366032-10.5255328976,10.5255326318-10.5255328976h9.1203615544c6.3176578935,0,10.5269566398,4.2092778333,10.5269566398,10.5255328976v5.4164716538h-14.0330046126v-7.1702075113h-2.1052830788v5.2612075725c0,7.0163464187,16.1382876915,5.6842866052,16.1382876915,21.0509099077v3.507471715c0,6.3160991768-4.2092987463,10.52537701-10.5269566398,10.52537701h-9.1203615544c-6.3146960285,0-10.5255326318-4.2092778333-10.5255326318-10.52537701v-5.4180305301Z"/>
        </g>
        <g>
          <path class="cls-1" d="M53.3838898215,77.5982130093V16.0151158507c0-9.6090695104,6.4060303984-16.0151158507,16.0165026547-16.0151158507h13.8791431695c9.610628144,0,16.0166743224,6.4060463403,16.0166743224,16.0151158507v61.5830971586c0,9.6090695104-6.4060461784,16.0151158507-16.0166743224,16.0151158507h-13.8791431695c-9.6104722563,0-16.0165026547-6.4060463403-16.0165026547-16.0151158507ZM77.9406961674,13.3464754823h-3.1999053367v66.9205337831h3.1999053367V13.3464754823Z"/>
          <path class="cls-1" d="M128.1217030072,80.2670092654h3.2030230892V0h21.3537990368v77.5982130093c0,9.6090695104-6.4044873022,16.0151158507-16.0165184348,16.0151158507h-13.8807020457c-9.6090692677,0-16.0151154461-6.4060463403-16.0151154461-16.0151158507V0h21.3555138007v80.2670092654Z"/>
          <path class="cls-1" d="M160.1516221242,0h21.3539549244l5.8716633902,33.5067993496h.5343827882V0h21.3537990368v93.6133288601h-21.3537990368l-5.8732222665-36.175439718h-.532823912v36.175439718h-21.3539549244V0Z"/>
          <path class="cls-1" d="M262.6492963053,16.0151158507v61.5830971586c0,9.6090695104-6.4060461785,16.0151158507-16.0165184348,16.0151158507h-29.8956616043V0h29.8956616043c9.6104722563,0,16.0165184348,6.4060463403,16.0165184348,16.0151158507ZM241.2955177956,13.3464754823h-3.2014847401v66.9205337831h3.2014847401V13.3464754823Z"/>
          <path class="cls-1" d="M29.8956616043,0h-13.8807020457c-2.9213341457,0-5.5413375068.5998556071-7.782222157,1.6943426698C3.1085696968,4.2002363506,0,9.3289394361,0,16.0151158507v14.7758091781c0,10.0580258899,4.4635304479,15.4152602436,9.5845949101,19.0854786462l-.0272803349.007638494,14.9828275746,10.9015338655.0182388525,17.7155381381v1.7658950928h-3.2030230892v-17.9774293595L2.7782293034,48.7286030422l-2.7782293034-2.0277863142v30.8973962813c0,9.6090695104,6.4074491671,16.0151158507,16.0149595585,16.0151158507h13.8807020457c4.2351550732,0,7.8461360844-1.246789279,10.5620257902-3.4602377626,3.4480629866-2.8103422257,5.4545082359-7.1794048815,5.4545082359-12.5548780881v-14.7742503018c0-10.7629497608-5.203388721-16.1368640911-10.819240514-19.8513545811l-13.7436768209-10.0564670136v-5.3221596365h.0060796175v-14.247505994h3.2030230892v17.9788323482l21.3538146281,15.5887631778v-30.8989551576C45.9121956304,6.4060463403,39.5062897482,0,29.8956616043,0Z"/>
        </g>
      </g>
      <g>
        <g id="Warstwa_1-2" data-name="Warstwa 1-2">
          <path class="cls-1" d="M200.2334681384,210.2246257926c1.2361326397.768218416,2.9820860071,1.1453449827,5.2308747968,1.1453449827h15.7834227037c2.2627594004,0,4.015692745-.3771265667,5.25881069-1.1383623415,1.2431179451-.7612357747,1.8646769176-2.3395764466,1.8646769176-4.7420099852v-15.119954563c0-2.3116422185-.6564801712-3.8341134349-1.9624498799-4.5674139824-1.3059697087-.7263165742-3.0309724882-1.0894748613-5.1680177049-1.0894748613h-15.7834173754c-2.1230799341,0-3.8341121029.3631582871-5.1400871398,1.0894748613-1.2989897316.7263165742-1.9484845974,2.2487881237-1.9484845974,4.5674139824v15.1199558951c0,2.3884642598.6215589725,3.9668049317,1.8576969404,4.7350260119h.0069746489ZM206.1627242821,191.4381678261h14.4425317963v13.2203591109h-14.4425264681l-.0000053282-13.2203591109ZM311.9465584137,239.996620695v6.2435309468h-26.1124781362v-26.3918317407h25.7353462412v6.2435282827h-17.9483984853v3.8620506602c1.6272298172,0,6.7044651933-.0419011758,8.3316950105-.0419011758h5.7895873338c-1.9764098342,1.9135633987-3.9528409813,3.8341121029-5.9292508155,5.7476755016-1.5783380078,0-6.606692231.0488864812-8.1920102159.0488864812v4.2950463494h18.3255303803l-.0000213129-.0069853054ZM279.4787951012,232.7194883385c.3422106963.7263172402.5098153995,1.669130993.5098153995,2.8284465865v4.8816841233c0,2.3884629278-.6285389497,3.9528409813-1.8856275055,4.693123504s-2.9890713124,1.1104237841-5.2029389035,1.1104237841h-13.6463668306c-1.0824932191,0-2.0602228422-.0768223744-2.9401901595-.2304671233-.8799566608-.1536447489-1.6272298172-.4469636358-2.2348181789-.8659913783-.6075883618-.4260130479-1.0755025855-1.0126508218-1.4037426711-1.7669039553-.3282400856-.7542531335-.4888648116-1.7250027795-.4888648116-2.9192342434v-1.6062792293l7.4307771053-.9637643406v2.5909941578h12.9689360715v-4.6791528933h-12.7803807805c-1.0824932191,0-2.0602228422-.0768223744-2.9401901595-.2374471004-.8799566608-.1606300542-1.62024984-.4539489412-2.2278382018-.8799619891-.6006083846-.4260130479-1.0685226083-1.0196361272-1.3967626939-1.780874566-.3282400856-.7612331106-.4888648116-1.738968062-.4888648116-2.9192342434v-4.5464640605c0-1.173280876.1745953367-2.1160946288.5307659874-2.8354292277.3491906735-.7193319348.8450461186-1.285021785,1.4735850683-1.6970668862.6285389497-.4120451013,1.375812106-.6913987057,2.2557687668-.8310728438.8729766837-.1396768022,1.8297557189-.2095138712,2.8773277394-.2095138712h12.6686372074c1.0545519976,0,2.0183216664.0698370691,2.884318373.2095138712.8659967065.1396768022,1.6132592064.4190277425,2.2348181789.8240902026s1.103443807.970749646,1.4456545033,1.6900815808.5098153995,1.6621483517.5098153995,2.8214612811v1.6481804051l-7.4098265174.9218631649v-2.346561752h-12.026127647v4.3998046171h12.724508994c1.0545519976,0,2.0183216664.0698370691,2.884318373.2095165354.8659967065.1396741381,1.6132592064.4120424371,2.2418088125.81012492.6285389497.3980771546,1.1104237841.9637643406,1.4526344804,1.6900815808l-.0209505879-.0139706107ZM299.9762918968,216.1329313485h-14.1422222757l6.1527379616-5.9362414491h14.1422222757l-6.1527379616,5.9362414491ZM174.6936624936,202.8636857564h11.8794682035c1.1313797002,0,2.1370452166-.0838063477,3.0239925111-.2444337379.8869419662-.1676113634,1.6342097943-.4539476091,2.234818179-.8659927104s1.0615373029-.9637656727,1.375812106-1.6551630463c.3142694748-.6913973736.4679142237-1.557390084.4679142237-2.5979781311v-7.0047647234c0-2.3605290326-.6564801712-3.9109354763-1.9624498799-4.6582036374-1.3059750369-.7402841878-3.0239925111-1.1174101718-5.1470724452-1.1174101718h-19.6664186236v26.6572138185h7.78695042v-8.5132676602h.0069853054ZM174.6936624936,191.1518309144h9.5608423448c.5517219035,0,.970749646.1326921629,1.2431179451.3910938474s.4120424371.6425108925.4120424371,1.1523289561v2.1929176692c0,.5587052108-.1396741381.9567823654-.4120424371,1.1872481566-.2793536044.2374497645-.6913960416.3491906735-1.2431179451.3491906735h-9.5608423448v-5.2727793027ZM242.8347249742,202.8636857564h11.8794628753c1.131374372,0,2.1370452166-.0838063477,3.0239925111-.2444337379.8869472944-.1676113634,1.6342097943-.4539476091,2.234818179-.8659927104s1.0615426312-.9637656727,1.375812106-1.6551630463.4679142237-1.557390084.4679142237-2.5979781311v-7.0047647234c0-2.3605290326-.6564801712-3.9109354763-1.9624498799-4.6582036374-1.3059697087-.7402841878-3.0239925111-1.1174101718-5.147067117-1.1174101718h-19.6664212877v26.6572138185h7.7869477559v-8.5132676602h.0069906336ZM242.8347249742,191.1518309144h9.5608423448c.5517165752,0,.970749646.1326921629,1.2431179451.3910938474.2793482762.2584010184.4120424372.6425108925.4120424372,1.1523289561v2.1929176692c0,.5587052108-.1396741381.9567823654-.4120424372,1.1872481566-.2793482762.2374497645-.6914013698.3491906735-1.2431179451.3491906735h-9.5608423448v-5.2727793027ZM130.6397665152,211.2442619198h-7.7869518353v-26.3988142778h7.7869518353v10.3290599907l10.3290600948-10.3290599907h10.1265295308l-13.5765337577,13.1994070869,13.5765337577,13.1994071909h-10.1265295308l-10.3290600948-10.3290607608v10.3290607608ZM184.9878020557,246.2331663364h.2653829937c1.8926128109,1.8576969404,3.610630285,3.5338079105,5.0632647654,4.9585064977h-10.0706577442c-3.0519284043-2.9820860071-7.2701523793-7.1095223251-11.8654975928-11.6001145991l4.9934276963-4.9934276963c4.1064804019,4.0226780503,8.1501090401,7.9755137034,11.6140798816,11.3696474758v.2653883219ZM184.9878020557,219.8413372598c-8.9183274561,8.79960657-17.8296749351,17.599210476-26.7480050554,26.3918290765h-9.7354350174v-.335225391c4.3648834184-4.3159969373,8.7227815315-8.6250085692,13.0876649499-12.9410055065-6.1667085723-6.0270317701-12.3264318393-12.0540635403-18.4931377475-18.0810926463h10.1265295308c3.3871484671,3.317311398,8.2129634679,8.0383707953,13.3879718064,13.1086182019,2.7446389066-2.7167030134,5.4962631187-5.4334060267,8.2409020253-8.1501117043h10.1265295308l.0069799771.0069879695ZM244.9438396258,220.9238278148c-1.3059697087-.7193319348-3.0309724882-1.082490555-5.1680177048-1.082490555h-15.7834227037c-2.1230746059,0-3.8341174311.3631586201-5.1400871398,1.082490555-1.2989897316.7193319348-1.9484792691,2.2278355377-1.9484792691,4.5185281673v14.9732977836c0,2.3675123399.6215589725,3.924905088,1.8576969404,4.6861381987s2.9820913353,1.1383596774,5.230880125,1.1383596774h15.7834227037c2.2627594004,0,4.015692745-.3771265667,5.25881069-1.1243943949,1.2431179451-.7542531335,1.8646769176-2.3186258587,1.8646769176-4.693123504v-14.9732977837c0-2.2906899655-.6564801712-3.7991935683-1.9624498799-4.5185281673l.0069693207-.0069799771ZM239.1333123605,239.5775929524h-14.4425211398v-13.0876649499h14.4425211398v13.0876649499ZM148.504361983,239.996620695v5.9083055558c-.1117409089.1117435731-.2234818179.2234818179-.3422080322.335225391h-25.7702709573v-26.3918317407h25.7353524228v6.2435282827h-17.9484004834v3.8620506602c1.6272284851,0,6.7044618632-.0419011758,8.3316890162-.0419011758h5.7895820056c-1.9764191586,1.9135633987-3.9528383172,3.8341121029-5.9292574758,5.7476755016-1.578342004,0-6.6066875688.0488864812-8.19201288.0488864812v4.2950463494h18.3255263841v-.0069853054ZM209.8012904604,220.9447784027c-1.305975037-.7332998815-3.0239925111-1.1034438069-5.1470724452-1.1034438069h-19.6664212877v26.1334287241c.0907876569.0838076798.1745953367.1745953367.2653829937.2584030165h7.5215647622v-8.4294626446h11.8794682035c1.1313797002,0,2.1370452166-.0838076798,3.0239925111-.2444324058.8869419662-.1606300542,1.6342097943-.4469636358,2.234818179-.8590114012.6006083846-.40506246,1.0615373029-.9567843635,1.375812106-1.6411950997.3142694748-.6844160644.4679195519-1.5434221374.4679195519-2.5770288753v-6.9349269883c0-2.3395764466-.6564801712-3.8760159427-1.9624498799-4.6093158242l.0069853054.0069853054ZM203.9907578669,229.9050123628c0,.5517219035-.1396741381.9428137527-.4120424372,1.1802661814-.2793536044.2304671233-.6913960416.3491906735-1.2431179451.3491906735h-9.5608423448v-5.2238921555h9.5608423448c.5517219035,0,.970749646.1257088556,1.2431179451.384109208.2793536044.2584003524.4120424372.6355269192.4120424372,1.1383623415v2.1719637511ZM143.9090127733,195.2094268332h14.1422209437l6.1527406257,5.9362414491h-14.1422222758l-6.1527392937-5.9362414491Z"/>
        </g>
        <g>
          <rect class="cls-1" x="66.9954500236" y="196.7572904098" width="34.4355695877" height="2.8925034246" transform="translate(-115.4855832773 117.6002228375) rotate(-45)"/>
          <rect class="cls-1" x="66.9954500236" y="196.7572904098" width="34.4355695877" height="2.8925034246" transform="translate(164.8165541021 -1.4952759727) rotate(45)"/>
        </g>
      </g>
    </g>
  </g>
</svg>