<?xml version="1.0" encoding="UTF-8"?>
<svg id="Layer_2" data-name="Layer 2" xmlns="http://www.w3.org/2000/svg" viewBox="0 0 168.4862940142 98.4258">
  <defs>
    <style>
      .cls-1 {
        fill: #fff;
      }
    </style>
  </defs>
  <g id="Layer_1-2" data-name="Layer 1">
    <g>
      <g>
        <path class="cls-1" d="M10.2012,66.918v31.5078H1.1982v-31.5078h9.003Z"/>
        <path class="cls-1" d="M12.4512,66.918h9.0019l2.4766,12.3789h.2236v-12.3789h9.0038974329v31.5078h-9.0038974329l-2.4746-13.5039h-.2256v13.5039h-9.0019v-31.5078Z"/>
        <path class="cls-1" d="M55.6611,72.545h-1.3506031015v20.2548h1.3506031015v-8.8779h9.002v7.752c0,4.0517-2.7002032948,6.7519-6.752,6.7519h-5.8515030447c-4.0507998977,0-6.7509998295-2.7002-6.7509998295-6.7519v-18.0039c0-4.0518,2.7001999318-6.752,6.7509998295-6.752h5.8515030447c4.0517967052,0,6.752,2.7002,6.752,6.752v6.6269h-9.002v-7.7519Z"/>
        <path class="cls-1" d="M66.9131,91.6739v-18.0039c0-4.0518,2.7020965119-6.752,6.751-6.752h5.8524962617c4.0517998976,0,6.7528998294,2.7002,6.7528998294,6.752v18.0039c0,4.0517-2.7010999318,6.7519-6.7528998294,6.7519h-5.8524962617c-4.0489034881,0-6.751-2.7002-6.751-6.7519ZM77.2655963186,72.545h-1.3495999659v20.2548h1.3495999659v-20.2548Z"/>
        <path class="cls-1" d="M103.1474956648,92.7998v5.626h-14.6298996304v-31.5078h9.0038997725v25.8818h5.6259998579Z"/>
        <path class="cls-1" d="M104.722595625,91.6739v-18.0039c0-4.0518,2.7001999318-6.752,6.7509998295-6.752h5.8505998522c4.0526998976,0,6.7529046934,2.7002,6.7529046934,6.752v18.0039c0,4.0517-2.7002047958,6.7519-6.7529046934,6.7519h-5.8505998522c-4.0507998977,0-6.7509998295-2.7002-6.7509998295-6.7519ZM115.0751953634,72.545h-1.3505999659v20.2548h1.3505999659v-20.2548Z"/>
        <path class="cls-1" d="M143.8368946369,83.0772c1.1708999704,1.3056,1.8446999534,3.2842,1.8446999534,5.8955v9.4531h-9.0018997726v-13.5039h-1.3495948177v13.5039h-9.003v-31.5078h12.6035947608c4.0516998976,0,6.7508998295,2.7002,6.7508998295,6.752v4.5c0,2.0263-.673799983,3.7363-1.8446999534,4.9072ZM136.6796948177,79.2969v-6.7519h-1.3495948177v6.7519h1.3495948177Z"/>
        <path class="cls-1" d="M147.9315945334,88.1983h9.0029997726v4.6015h1.350505694v-3.3759c0-4.502-10.3535054666-3.5567-10.3535054666-13.5039v-2.25c0-4.0518,2.7011999318-6.752,6.7519998294-6.752h5.8505998522c4.0526998976,0,6.752905785,2.7002,6.752905785,6.752v3.4746h-9.002v-4.5996h-1.350505694v3.375c0,4.5009,10.352505694,3.6464,10.352505694,13.5039v2.25c0,4.0517-2.7002058873,6.7519-6.752905785,6.7519h-5.8505998522c-4.0507998977,0-6.7519998294-2.7002-6.7519998294-6.7519v-3.4756Z"/>
      </g>
      <g>
        <path class="cls-1" d="M34.2451,49.7783V10.2735c0-6.1641,4.1093973016-10.2735,10.2743971458-10.2735h8.9032997751c6.1650998443,0,10.2744997404,4.1094,10.2744997404,10.2735v39.5048c0,6.1641-4.1093998962,10.2735-10.2744997404,10.2735h-8.9032997751c-6.1649998443,0-10.2743971458-4.1094-10.2743971458-10.2735ZM49.9979970074,8.5616h-2.0526999481v42.9287h2.0526999481V8.5616Z"/>
        <path class="cls-1" d="M82.1884961942,51.4903h2.0546999481V0h13.698199654v49.7783c0,6.1641-4.1083998962,10.2735-10.2743997404,10.2735h-8.9042997751c-6.1640998443,0-10.2734997405-4.1094-10.2734997405-10.2735V0h13.6992996539v51.4903Z"/>
        <path class="cls-1" d="M102.7352956752,0h13.698299654l3.7665999048,21.4942h.3427999913V0h13.698199654v60.0518h-13.698199654l-3.7675999048-23.2061h-.3417999914v23.2061h-13.698299654V0Z"/>
        <path class="cls-1" d="M168.4862940142,10.2735v39.5048c0,6.1641-4.1093998962,10.2735-10.2743997404,10.2735h-19.1776995155V0h19.1776995155c6.1649998443,0,10.2743997404,4.1094,10.2743997404,10.2735ZM154.7881,8.5616h-2.0537055879v42.9287h2.0537055879V8.5616Z"/>
        <path class="cls-1" d="M19.1777,0h-8.9043c-1.874,0-3.5547.3848-4.9922,1.0869C1.9941,2.6944,0,5.9844,0,10.2735v9.4785c0,6.4521,2.8633,9.8887,6.1484,12.2431l-.0175.0049,9.6113,6.9932.0117,11.3643v1.1328h-2.0547v-11.5323L1.7822,31.2588l-1.7822-1.3008v19.8203c0,6.1641,4.1103,10.2735,10.2734,10.2735h8.9043c2.7168,0,5.0332-.7998,6.7754-2.2197,2.2119-1.8028,3.499-4.6055,3.499-8.0538v-9.4775c0-6.9043-3.3379-10.3516-6.9404-12.7344l-8.8164-6.4511v-3.4141h.0039v-9.1396h2.0547v11.5332l13.6982,10V10.2735c0-6.1641-4.1093-10.2735-10.2744-10.2735Z"/>
      </g>
    </g>
  </g>
</svg>