<?xml version="1.0" encoding="UTF-8"?>
<svg id="Layer_2" data-name="Layer 2" xmlns="http://www.w3.org/2000/svg" xmlns:xlink="http://www.w3.org/1999/xlink" viewBox="0 0 598.0408635263 100.2096261766">
  <defs>
    <style>
      .cls-1 {
        fill: url(#Degradado_sin_nombre_5);
      }

      .cls-1, .cls-2 {
        stroke: #fff;
        stroke-miterlimit: 10;
        stroke-width: .25px;
      }

      .cls-3, .cls-4 {
        fill: #fff;
      }

      .cls-2 {
        fill: url(#linear-gradient);
      }

      .cls-4 {
        filter: url(#outer-glow-1);
      }
    </style>
    <linearGradient id="Degradado_sin_nombre_5" data-name="Degradado sin nombre 5" x1=".125" y1="75.0947196324" x2="597.9158635263" y2="75.0947196324" gradientUnits="userSpaceOnUse">
      <stop offset=".327493" stop-color="#b167aa"/>
      <stop offset=".732709" stop-color="#5253a3"/>
      <stop offset=".73966" stop-color="#5153a3"/>
      <stop offset=".893957" stop-color="#4d52a3"/>
    </linearGradient>
    <linearGradient id="linear-gradient" x1=".125" y1="25.1149065441" x2="597.9158635263" y2="25.1149065441" gradientUnits="userSpaceOnUse">
      <stop offset=".3274929871" stop-color="#b167aa"/>
      <stop offset=".732709" stop-color="#5253a3"/>
      <stop offset=".73966" stop-color="#5153a3"/>
      <stop offset=".893957" stop-color="#4d52a3"/>
    </linearGradient>
    <filter id="outer-glow-1" x="300.3385245765" y="54.9937757472" width="15.6" height="40.08" filterUnits="userSpaceOnUse">
      <feOffset dx="0" dy="0"/>
      <feGaussianBlur result="blur" stdDeviation="2.445675099"/>
      <feFlood flood-color="#756cb1" flood-opacity=".75"/>
      <feComposite in2="blur" operator="in"/>
      <feComposite in="SourceGraphic"/>
    </filter>
  </defs>
  <g id="Layer_1-2" data-name="Layer 1">
    <rect class="cls-1" x=".125" y="50.1048130883" width="597.7908635263" height="49.9798130883"/>
    <rect class="cls-2" x=".125" y=".125" width="597.7908635263" height="49.9798130883"/>
    <g>
      <g>
        <path class="cls-3" d="M384.4074583728,32.9109882983v.9043838239c0,1.5697035947.5548090292,2.4041724597,1.7095335126,2.4041724597,1.1806606779,0,1.6768313544-.8051496886,1.6768313544-2.7108961506,0-1.8944698556-.4172344325-2.6612790829-2.0827891806-3.9558334843-1.6960015851-1.3238735777-2.5462576988-2.1109806963-2.5462576988-4.4497488395,0-1.9914486697.5954048118-3.8791525616,2.9984496108-3.8633653128,2.2305127229.0157872488,2.8958324936,1.4659588169,2.8958324936,3.5521309793v.7104261959h-1.502043957v-.6698304132c0-1.3689800028-.2740215327-2.2620872205-1.4253630342-2.2620872205-1.1581074653,0-1.4558098712,1.0171498868-1.4558098712,2.3071936456,0,1.5584269884.3123619941,2.1200019813,1.7828314534,3.2431519672,2.1639807458,1.6441291961,2.855236711,2.5507683413,2.855236711,5.1827282479,0,2.2282574016-.6021707755,4.2377486414-3.2149604515,4.2377486414-2.4740874186,0-3.2025561845-1.6351079111-3.2025561845-3.7257907161v-.9043838239h1.511065242Z"/>
        <path class="cls-3" d="M395.069489614,32.0720087908l-.8062773493,5.2616644919h-1.5268524908l2.6195556397-15.8774616473h2.1594701033l2.7300663813,15.8774616473h-1.5832355222l-.8626603807-5.2616644919h-2.7300663813ZM397.5977047428,30.6827308967c-.5999154543-3.6829396122-1.0092562624-6.4186442966-1.1535968228-7.8507732946h-.0642766558c-.0563830314,1.2088521936-.64614954,4.8196215256-1.1005967733,7.8507732946h2.3184702519Z"/>
        <path class="cls-3" d="M404.5429665528,22.8522554933h-2.5744492145v-1.3960438579h6.6362827979v1.3960438579h-2.551896002v14.4814177894h-1.5099375814v-14.4814177894Z"/>
        <path class="cls-3" d="M414.8836145149,30.4436668435v1.4095757855h-3.9287696292v-1.4095757855h3.9287696292Z"/>
        <path class="cls-3" d="M419.7370658593,32.9109882983v.9043838239c0,1.5697035947.5548090292,2.4041724597,1.7095335126,2.4041724597,1.1806606779,0,1.6768313544-.8051496886,1.6768313544-2.7108961506,0-1.8944698556-.4172344325-2.6612790829-2.0827891806-3.9558334843-1.6960015851-1.3238735777-2.5462576988-2.1109806963-2.5462576988-4.4497488395,0-1.9914486697.5954048118-3.8791525616,2.9984496108-3.8633653128,2.2305127229.0157872488,2.8958324936,1.4659588169,2.8958324936,3.5521309793v.7104261959h-1.502043957v-.6698304132c0-1.3689800028-.2740215327-2.2620872205-1.4253630342-2.2620872205-1.1581074653,0-1.4558098712,1.0171498868-1.4558098712,2.3071936456,0,1.5584269884.3123619941,2.1200019813,1.7828314534,3.2431519672,2.1639807458,1.6441291961,2.855236711,2.5507683413,2.855236711,5.1827282479,0,2.2282574016-.6021707755,4.2377486414-3.2149604515,4.2377486414-2.4740874186,0-3.2025561845-1.6351079111-3.2025561845-3.7257907161v-.9043838239h1.511065242Z"/>
        <path class="cls-3" d="M430.1927352055,21.4562116354v12.4020115907c0,1.3464267903.4792557671,2.2936617181,1.7275760826,2.2936617181,1.2720011888,0,1.7106611732-.8660433626,1.7106611732-2.2778744693v-12.4177988395h1.5257248302v12.3546498443c0,2.442512921-1.0949584701,3.7303013586-3.267960501,3.7303013586-2.1233849632,0-3.2059391664-1.2043415511-3.2059391664-3.6851949335v-12.3997562694h1.5099375814Z"/>
        <path class="cls-3" d="M439.8646804149,37.3336732827v-15.8774616473h1.8234272361c.9077668058,3.1033220492,3.1901519176,11.5404788706,3.4709394141,12.9455440136h.039468122c-.087957529-2.178640334-.1195320266-4.4136636994-.1195320266-6.9960065383v-5.9495374752h1.4355119799v15.8774616473h-1.765916544c-.9258093759-3.2363860034-3.2386413246-11.9802665157-3.5724288706-13.3853316586h-.0236808732c.1026171172,1.9102571044.1556171667,4.5377063685.1556171667,7.4042196858v5.9811119728h-1.4434056043Z"/>
      </g>
      <g>
        <path class="cls-3" d="M157.1144906298,16.159589664c-1.2150543271,0-1.9784805725.6596814676-1.9784805725,2.3951511746v2.6037683909h-3.6096416714v-2.3613213558c0-3.887046186,1.943523093-6.1085376238,5.692430852-6.1085376238,3.7483439287,0,5.692430852,2.2214914379,5.692430852,6.1085376238,0,3.228492379-1.1800968476,5.8322607699-4.7203873903,9.615562178-2.2564489173,2.4289809935-2.8811729055,3.5746841919-2.8811729055,4.8590896476,0,.1736597368,0,.3473194735.0343936492.5209792103h7.2198471731v3.4709394141h-11.0375422304v-2.9849176833c0-2.7075131687.9714796313-4.7553448698,3.8176950573-7.7402625531,2.9161303849-3.0897901217,3.748907759-4.9989195655,3.748907759-7.6015602958,0-2.187661619-.7634262454-2.7774281276-1.9784805725-2.7774281276Z"/>
        <path class="cls-3" d="M168.4288735444,18.7971878738c0-3.887046186,2.0483955314-6.1085376238,5.7967394601-6.1085376238,3.748907759,0,5.7967394601,2.2214914379,5.7967394601,6.1085376238v12.6354373408c0,3.887046186-2.0478317011,6.1085376238-5.7967394601,6.1085376238-3.7483439287,0-5.7967394601-2.2214914379-5.7967394601-6.1085376238v-12.6354373408ZM172.247132432,31.6750722496c0,1.735469707.7639900757,2.3951511746,1.9784805725,2.3951511746,1.2150543271,0,1.9784805725-.6596814676,1.9784805725-2.3951511746v-13.120331411c0-1.735469707-.7634262454-2.3951511746-1.9784805725-2.3951511746-1.2144904967,0-1.9784805725.6596814676-1.9784805725,2.3951511746v13.120331411Z"/>
        <path class="cls-3" d="M191.5453525955,16.159589664c-1.2150543271,0-1.9784805725.6596814676-1.9784805725,2.3951511746v2.6037683909h-3.6096416714v-2.3613213558c0-3.887046186,1.943523093-6.1085376238,5.692430852-6.1085376238,3.7483439287,0,5.692430852,2.2214914379,5.692430852,6.1085376238,0,3.228492379-1.1800968476,5.8322607699-4.7203873903,9.615562178-2.2564489173,2.4289809935-2.8811729055,3.5746841919-2.8811729055,4.8590896476,0,.1736597368,0,.3473194735.0343936492.5209792103h7.2198471731v3.4709394141h-11.0375422304v-2.9849176833c0-2.7075131687.9714796313-4.7553448698,3.8176950573-7.7402625531,2.9161303849-3.0897901217,3.748907759-4.9989195655,3.748907759-7.6015602958,0-2.187661619-.7634262454-2.7774281276-1.9784805725-2.7774281276Z"/>
        <path class="cls-3" d="M202.9296504691,19.00580509c0-4.0956634022,1.8741719643-6.3171548401,5.8311331092-6.3171548401,3.748907759,0,5.692430852,2.2214914379,5.692430852,6.1085376238v.6247239881h-3.6096416714v-.8671710232c0-1.735469707-.7639900757-2.3951511746-1.9784805725-2.3951511746-1.3537565843,0-2.1177466601.6596814676-2.1177466601,2.9849176833v4.4080253963h.069914959c.6591176373-1.3881502335,1.7698633562-2.1166189994,3.4709394141-2.1166189994,2.8112579465,0,4.2343656595,1.9779167421,4.2343656595,5.5537285947v4.4429828757c0,3.887046186-2.0478317011,6.1085376238-5.7967394601,6.1085376238-3.7483439287,0-5.7961756298-2.2214914379-5.7961756298-6.1085376238v-12.4268201245ZM206.7473455264,27.3020043328v4.3730679168c0,1.735469707.7639900757,2.3601936952,1.9784805725,2.3601936952,1.2150543271,0,1.9790444028-.6247239881,1.9790444028-2.3601936952v-4.3730679168c0-1.735469707-.7639900757-2.3951511746-1.9790444028-2.3951511746-1.2144904967,0-1.9784805725.6596814676-1.9784805725,2.3951511746Z"/>
        <path class="cls-3" d="M224.0670851173,33.5842016934v3.6795566303h-3.6789928v-3.6795566303h3.6789928Z"/>
        <path class="cls-3" d="M230.0013991741,18.7971878738c0-3.887046186,2.0483955314-6.1085376238,5.7967394601-6.1085376238,3.748907759,0,5.7967394601,2.2214914379,5.7967394601,6.1085376238v12.6354373408c0,3.887046186-2.0478317011,6.1085376238-5.7967394601,6.1085376238-3.7483439287,0-5.7967394601-2.2214914379-5.7967394601-6.1085376238v-12.6354373408ZM233.8196580617,31.6750722496c0,1.735469707.7639900757,2.3951511746,1.9784805725,2.3951511746,1.2150543271,0,1.9784805725-.6596814676,1.9784805725-2.3951511746v-13.120331411c0-1.735469707-.7634262454-2.3951511746-1.9784805725-2.3951511746-1.2144904967,0-1.9784805725.6596814676-1.9784805725,2.3951511746v13.120331411Z"/>
        <path class="cls-3" d="M253.013569617,37.5411628383c-3.8526525368,0-5.9698353665-2.2214914379-5.9698353665-6.1085376238v-1.9091294438c0-2.3263638763.6940751168-4.0956634022,2.3601936952-5.033877045v-.0687872983c-1.5967674498-.8682986838-2.3601936952-2.4650661336-2.3601936952-4.8590896476v-.764553906c0-3.887046186,2.1171828297-6.1085376238,5.9698353665-6.1085376238,3.8532163671,0,5.9703991968,2.2214914379,5.9703991968,6.1085376238v.764553906c0,2.394023514-.7983837249,3.9907909638-2.3601936952,4.8590896476v.0687872983c1.6661185784.9382136428,2.3601936952,2.7075131687,2.3601936952,5.033877045v1.9091294438c0,3.887046186-2.1171828297,6.1085376238-5.9703991968,6.1085376238ZM250.8619931381,20.2902105457c0,1.9440869233.9021285027,2.5688109114,2.1515764789,2.5688109114,1.2150543271,0,2.1521403092-.6247239881,2.1521403092-2.5688109114v-1.353192754c0-2.187661619-.9370859822-2.7774281276-2.1521403092-2.7774281276-1.2144904967,0-2.1515764789.5897665086-2.1515764789,2.7774281276v1.353192754ZM253.013569617,34.0702234243c1.2150543271,0,2.1177466601-.5897665086,2.1521403092-2.7424706482v-2.2553212567c0-1.9091294438-.7983837249-2.7424706482-2.1521403092-2.7424706482s-2.1515764789.8333412044-2.1515764789,2.7424706482v2.2553212567c0,2.1527041395.9370859822,2.7424706482,2.1515764789,2.7424706482Z"/>
        <path class="cls-3" d="M268.4241797642,33.5842016934v3.6795566303h-3.6795566303v-3.6795566303h3.6795566303Z"/>
        <path class="cls-3" d="M277.0316133404,16.0208874067c2.9505240341,0,3.6096416714-1.423107713,4.1999720103-3.0548326422h2.5682470811v24.2977035593h-3.8176950573v-18.5353577483h-2.9505240341v-2.7075131687Z"/>
        <path class="cls-3" d="M295.3228325627,29.4186233323v2.2564489173c0,1.735469707.7639900757,2.3601936952,1.9784805725,2.3601936952,1.2150543271,0,1.9784805725-.6247239881,1.9784805725-2.3601936952v-5.3451113784c0-1.735469707-.7634262454-2.3951511746-1.9784805725-2.3951511746-1.2144904967,0-1.9784805725.6596814676-1.9784805725,2.3951511746v.7284687659h-3.6096416714l.6940751168-14.0923748726h10.0660625991v3.4709394141h-6.6644743136l-.3123619941,5.7973032904h.0693511286c.6940751168-1.1457031984,1.7704271865-1.7704271865,3.2978435076-1.7704271865,2.8112579465,0,4.2343656595,1.9779167421,4.2343656595,5.5537285947v5.4150263374c0,3.887046186-1.943523093,6.1085376238-5.692430852,6.1085376238s-5.692430852-2.2214914379-5.692430852-6.1085376238v-2.0140018822h3.6096416714Z"/>
        <path class="cls-3" d="M317.7796301462,23.3800006674h6.9418788282v3.4709394141h-6.9418788282v-3.4709394141Z"/>
        <path class="cls-3" d="M342.0062910859,16.0208874067c2.9499602038,0,3.6096416714-1.423107713,4.19940818-3.0548326422h2.5688109114v24.2977035593h-3.8182588876v-18.5353577483h-2.9499602038v-2.7075131687Z"/>
        <path class="cls-3" d="M356.6185175082,19.00580509c0-4.0956634022,1.8741719643-6.3171548401,5.8311331092-6.3171548401,3.7483439287,0,5.692430852,2.2214914379,5.692430852,6.1085376238v.6247239881h-3.6096416714v-.8671710232c0-1.735469707-.764553906-2.3951511746-1.9790444028-2.3951511746-1.353192754,0-2.1177466601.6596814676-2.1177466601,2.9849176833v4.4080253963h.069914959c.6596814676-1.3881502335,1.7704271865-2.1166189994,3.4709394141-2.1166189994,2.8112579465,0,4.2343656595,1.9779167421,4.2343656595,5.5537285947v4.4429828757c0,3.887046186-2.0478317011,6.1085376238-5.7961756298,6.1085376238s-5.7961756298-2.2214914379-5.7961756298-6.1085376238v-12.4268201245ZM360.4356487352,27.3020043328v4.3730679168c0,1.735469707.764553906,2.3601936952,1.9790444028,2.3601936952s1.9790444028-.6247239881,1.9790444028-2.3601936952v-4.3730679168c0-1.735469707-.764553906-2.3951511746-1.9790444028-2.3951511746s-1.9790444028.6596814676-1.9790444028,2.3951511746Z"/>
      </g>
    </g>
    <g>
      <g>
        <path class="cls-3" d="M127.816482347,66.8137438081c2.4718320974,0,3.7427056255,1.4783630838,3.7427056255,4.0652165652v.5085749434h-2.403044799v-.6698304132c0-1.1547244834-.4623408576-1.5933844679-1.2697458675-1.5933844679-.8085326705,0-1.2708735282.4386599844-1.2708735282,1.5933844679,0,1.1784053566.5085749434,2.0557253255,2.1707467096,3.5115351967,2.1256402845,1.8707889824,2.7954706977,3.2104498089,2.7954706977,5.0586855788,0,2.5868534815-1.2934267407,4.0652165652-3.7878120507,4.0652165652-2.4955129706,0-3.7889397113-1.4783630838-3.7889397113-4.0652165652v-.9934690136h2.403044799v1.1547244834c0,1.1547244834.5074472828,1.5708312553,1.3159799533,1.5708312553s1.3171076139-.4161067719,1.3171076139-1.5708312553c0-1.1784053566-.5085749434-2.0557253255-2.1718743702-3.5115351967-2.1245126238-1.8707889824-2.7943430371-3.2104498089-2.7943430371-5.0586855788,0-2.5868534815,1.2697458675-4.0652165652,3.7415779649-4.0652165652Z"/>
        <path class="cls-3" d="M139.9625149751,66.9986801511h2.5417470563v16.16952575h-2.5417470563v-16.16952575Z"/>
        <path class="cls-3" d="M151.2785893807,66.9986801511h2.5417470563v13.8600767832h4.1802379493v2.3094489669h-6.7219850057v-16.16952575Z"/>
        <path class="cls-3" d="M168.5780310804,73.8131333283h3.4878543235v2.3094489669h-3.4878543235v4.7361746391h4.3888551656v2.3094489669h-6.9306022219v-16.16952575h6.9306022219v2.3094489669h-4.3888551656v4.5050042103Z"/>
        <path class="cls-3" d="M184.8817484452,66.8137438081c2.4718320974,0,3.7427056255,1.4783630838,3.7427056255,4.0652165652v.5085749434h-2.403044799v-.6698304132c0-1.1547244834-.4623408576-1.5933844679-1.2697458675-1.5933844679-.8085326705,0-1.2708735282.4386599844-1.2708735282,1.5933844679,0,1.1784053566.5085749434,2.0557253255,2.1707467096,3.5115351967,2.1256402845,1.8707889824,2.7954706977,3.2104498089,2.7954706977,5.0586855788,0,2.5868534815-1.2934267407,4.0652165652-3.7878120507,4.0652165652-2.4955129706,0-3.7889397113-1.4783630838-3.7889397113-4.0652165652v-.9934690136h2.403044799v1.1547244834c0,1.1547244834.5074472828,1.5708312553,1.3159799533,1.5708312553s1.3171076139-.4161067719,1.3171076139-1.5708312553c0-1.1784053566-.5085749434-2.0557253255-2.1718743702-3.5115351967-2.1245126238-1.8707889824-2.7943430371-3.2104498089-2.7943430371-5.0586855788,0-2.5868534815,1.2697458675-4.0652165652,3.7415779649-4.0652165652Z"/>
        <path class="cls-3" d="M197.0289087339,66.9986801511h2.5417470563v16.16952575h-2.5417470563v-16.16952575Z"/>
        <path class="cls-3" d="M216.5690121021,83.1682059012h-2.5643002689l-.4386599844-2.934172955h-3.119109298l-.4386599844,2.934172955h-2.3331298401l2.5879811421-16.16952575h3.7190247523l2.5868534815,16.16952575ZM210.770581151,78.0396053634h2.4492788848l-1.2020862298-8.1766672162h-.0462340858l-1.2009585692,8.1766672162Z"/>
        <path class="cls-3" d="M242.7104407887,70.995109418v2.1019594113c0,2.5868534815-1.247192655,3.9964292669-3.7878120507,3.9964292669h-1.2009585692v6.074707805h-2.5417470563v-16.16952575h3.7427056255c2.5406193957,0,3.7878120507,1.4084481248,3.7878120507,3.9964292669ZM237.7216701688,69.308129118v5.4747923507h1.2009585692c.8085326705,0,1.247192655-.3698726861,1.247192655-1.5245971695v-2.4255980116c0-1.1547244834-.4386599844-1.5245971695-1.247192655-1.5245971695h-1.2009585692Z"/>
        <path class="cls-3" d="M258.7390089602,83.1682059012h-2.5643002689l-.4386599844-2.934172955h-3.119109298l-.4386599844,2.934172955h-2.3331298401l2.5879811421-16.16952575h3.7190247523l2.5868534815,16.16952575ZM252.9405780092,78.0396053634h2.4492788848l-1.2020862298-8.1766672162h-.0462340858l-1.2009585692,8.1766672162Z"/>
        <path class="cls-3" d="M272.1570427771,83.1682059012c-.1387022573-.4161067719-.2311704288-.6698304132-.2311704288-1.9869380272v-2.5406193957c0-1.5009162963-.5085749434-2.0557253255-1.6632994268-2.0557253255h-.8773199689v6.5832827484h-2.5417470563v-16.16952575h3.8351737971c2.6330875672,0,3.7652588381,1.2246394424,3.7652588381,3.7190247523v1.2708735282c0,1.6621717662-.531128156,2.7255557387-1.6632994268,3.2566838947v.0462340858c1.2708735282.531128156,1.6858526394,1.7320867252,1.6858526394,3.4190670252v2.4943853099c0,.7848517973.0236808732,1.3622140391.2774045146,1.963257154h-2.5868534815ZM269.3852529525,69.308129118v4.9673450679h.992341353c.9472349278,0,1.5245971695-.4161067719,1.5245971695-1.7095335126v-1.5945121285c0-1.1547244834-.3924258987-1.6632994268-1.2934267407-1.6632994268h-1.2235117818Z"/>
        <path class="cls-3" d="M286.3824816038,76.7236254101l-.7848517973,1.4783630838v4.9662174073h-2.5417470563v-16.16952575h2.5417470563v6.9993895202h.0462340858l3.2792371073-6.9993895202h2.5417470563l-3.5340884093,7.2068790758,3.5340884093,8.9626466742h-2.6105343547l-2.4718320974-6.4445804911Z"/>
      </g>
      <polyline class="cls-4" points="307.8310885139 62.3326931197 307.8310218369 87.4643202465 308.3629224847 87.4643201312"/>
      <g>
        <path class="cls-3" d="M328.4481210181,69.1243204356c-.8085326705,0-1.3159799533.4386599844-1.3159799533,1.5933844679v1.7320867252h-2.403044799v-1.5708312553c0-2.5868534815,1.2934267407-4.0652165652,3.7889397113-4.0652165652,2.4943853099,0,3.7878120507,1.4783630838,3.7878120507,4.0652165652,0,2.148193497-.7848517973,3.8814078828-3.1416625106,6.3983464053-1.5009162963,1.6170653411-1.9170230682,2.3793639258-1.9170230682,3.2341306821,0,.1161490447,0,.2311704288.0236808732.3473194735h4.8038342768v2.3094489669h-7.3455813331v-1.9869380272c0-1.8008740235.6472772007-3.1642157232,2.5417470563-5.1511537503,1.9395762808-2.0557253255,2.4943853099-3.325471193,2.4943853099-5.0586855788,0-1.4546822106-.5085749434-1.8471081093-1.3171076139-1.8471081093Z"/>
        <path class="cls-3" d="M351.3103125975,66.9986801511h4.0201101401c2.5406193957,0,3.7878120507,1.4084481248,3.7878120507,3.9964292669v8.1766672162c0,2.5868534815-1.247192655,3.9964292669-3.7878120507,3.9964292669h-4.0201101401v-16.16952575ZM353.8520596538,69.308129118v11.5506278163h1.432128998c.8085326705,0,1.2934267407-.4161067719,1.2934267407-1.5708312553v-8.4089653057c0-1.1547244834-.4848940702-1.5708312553-1.2934267407-1.5708312553h-1.432128998Z"/>
        <path class="cls-3" d="M375.8628674587,83.1682059012h-2.5643002689l-.4386599844-2.934172955h-3.119109298l-.4386599844,2.934172955h-2.3331298401l2.5879811421-16.16952575h3.7190247523l2.5868534815,16.16952575ZM370.0644365077,78.0396053634h2.4492788848l-1.2020862298-8.1766672162h-.0462340858l-1.2009585692,8.1766672162Z"/>
        <path class="cls-3" d="M385.2145570497,77.8095625952l-3.2104498089-10.8108824441h2.6567684404l1.9170230682,7.3681345457h.0462340858l1.9170230682-7.3681345457h2.4255980116l-3.2104498089,10.8108824441v5.358643306h-2.5417470563v-5.358643306Z"/>
        <path class="cls-3" d="M402.1655516152,66.8137438081c2.4718320974,0,3.7427056255,1.4783630838,3.7427056255,4.0652165652v.5085749434h-2.403044799v-.6698304132c0-1.1547244834-.4623408576-1.5933844679-1.2697458675-1.5933844679-.8085326705,0-1.2708735282.4386599844-1.2708735282,1.5933844679,0,1.1784053566.5085749434,2.0557253255,2.1707467096,3.5115351967,2.1256402845,1.8707889824,2.7954706977,3.2104498089,2.7954706977,5.0586855788,0,2.5868534815-1.2934267407,4.0652165652-3.7878120507,4.0652165652-2.4955129706,0-3.7889397113-1.4783630838-3.7889397113-4.0652165652v-.9934690136h2.403044799v1.1547244834c0,1.1547244834.5074472828,1.5708312553,1.3159799533,1.5708312553s1.3171076139-.4161067719,1.3171076139-1.5708312553c0-1.1784053566-.5085749434-2.0557253255-2.1718743702-3.5115351967-2.1245126238-1.8707889824-2.7943430371-3.2104498089-2.7943430371-5.0586855788,0-2.5868534815,1.2697458675-4.0652165652,3.7415779649-4.0652165652Z"/>
        <path class="cls-3" d="M424.820253639,66.9986801511h2.5417470563v13.8600767832h4.1802379493v2.3094489669h-6.7219850057v-16.16952575Z"/>
        <path class="cls-3" d="M439.5779482823,66.9986801511h2.5417470563v16.16952575h-2.5417470563v-16.16952575Z"/>
        <path class="cls-3" d="M454.7055156118,80.188926521h.0462340858l1.9170230682-13.1902463699h2.3331298401l-2.4943853099,16.16952575h-3.7878120507l-2.4955129706-16.16952575h2.5643002689l1.9170230682,13.1902463699Z"/>
        <path class="cls-3" d="M469.6470189375,73.8131333283h3.4878543235v2.3094489669h-3.4878543235v4.7361746391h4.3888551656v2.3094489669h-6.9306022219v-16.16952575h6.9306022219v2.3094489669h-4.3888551656v4.5050042103Z"/>
      </g>
    </g>
  </g>
</svg>