<?xml version="1.0" encoding="UTF-8"?>
<svg id="Layer_2" data-name="Layer 2" xmlns="http://www.w3.org/2000/svg" xmlns:xlink="http://www.w3.org/1999/xlink" viewBox="0 0 517.9413385827 86.8157805044">
  <defs>
    <style>
      .cls-1 {
        fill: url(#Degradado_sin_nombre_5);
      }

      .cls-1, .cls-2 {
        stroke: #fff;
        stroke-miterlimit: 10;
        stroke-width: .25px;
      }

      .cls-3, .cls-4 {
        fill: #fff;
      }

      .cls-2 {
        fill: url(#Degradado_sin_nombre_5-2);
      }

      .cls-4 {
        filter: url(#outer-glow-1);
      }
    </style>
    <linearGradient id="Degradado_sin_nombre_5" data-name="Degradado sin nombre 5" x1=".125" y1="65.0493353783" x2="517.8163385827" y2="65.0493353783" gradientUnits="userSpaceOnUse">
      <stop offset=".327493" stop-color="#b167aa"/>
      <stop offset=".732709" stop-color="#5253a3"/>
      <stop offset=".73966" stop-color="#5153a3"/>
      <stop offset=".893957" stop-color="#4d52a3"/>
    </linearGradient>
    <linearGradient id="Degradado_sin_nombre_5-2" data-name="Degradado sin nombre 5" y1="21.7664451261" y2="21.7664451261" xlink:href="#Degradado_sin_nombre_5"/>
    <filter id="outer-glow-1" x="260.5518686666" y="50.023036637" width="13.2" height="34.56" filterUnits="userSpaceOnUse">
      <feOffset dx="0" dy="0"/>
      <feGaussianBlur result="blur" stdDeviation="2.1179729116"/>
      <feFlood flood-color="#756cb1" flood-opacity=".75"/>
      <feComposite in2="blur" operator="in"/>
      <feComposite in="SourceGraphic"/>
    </filter>
  </defs>
  <g id="Layer_1-2" data-name="Layer 1">
    <rect class="cls-1" x=".125" y="43.4078902522" width="517.6913385827" height="43.2828902522"/>
    <rect class="cls-2" x=".125" y=".125" width="517.6913385827" height="43.2828902522"/>
    <g>
      <g>
        <path class="cls-3" d="M325.2516751507,28.5179099699v.783203125c0,1.359375.48046875,2.08203125,1.48046875,2.08203125,1.0224609375,0,1.4521484375-.697265625,1.4521484375-2.34765625,0-1.640625-.361328125-2.3046875-1.8037109375-3.42578125-1.46875-1.146484375-2.205078125-1.828125-2.205078125-3.853515625,0-1.724609375.515625-3.359375,2.5966796875-3.345703125,1.931640625.013671875,2.5078125,1.26953125,2.5078125,3.076171875v.615234375h-1.30078125v-.580078125c0-1.185546875-.2373046875-1.958984375-1.234375-1.958984375-1.0029296875,0-1.2607421875.880859375-1.2607421875,1.998046875,0,1.349609375.2705078125,1.8359375,1.5439453125,2.80859375,1.8740234375,1.423828125,2.47265625,2.208984375,2.47265625,4.48828125,0,1.9296875-.521484375,3.669921875-2.7841796875,3.669921875-2.142578125,0-2.7734375-1.416015625-2.7734375-3.2265625v-.783203125h1.30859375Z"/>
        <path class="cls-3" d="M334.4850735882,27.7913474699l-.6982421875,4.556640625h-1.322265625l2.2685546875-13.75h1.8701171875l2.3642578125,13.75h-1.37109375l-.7470703125-4.556640625h-2.3642578125ZM336.6745267132,26.5882224699c-.51953125-3.189453125-.8740234375-5.55859375-.9990234375-6.798828125h-.0556640625c-.048828125,1.046875-.5595703125,4.173828125-.953125,6.798828125h2.0078125Z"/>
        <path class="cls-3" d="M342.6891751507,19.8069724699h-2.2294921875v-1.208984375h5.7470703125v1.208984375h-2.2099609375v12.541015625h-1.3076171875v-12.541015625Z"/>
        <path class="cls-3" d="M351.6442532757,26.3811912199v1.220703125h-3.40234375v-1.220703125h3.40234375Z"/>
        <path class="cls-3" d="M355.8473782757,28.5179099699v.783203125c0,1.359375.48046875,2.08203125,1.48046875,2.08203125,1.0224609375,0,1.4521484375-.697265625,1.4521484375-2.34765625,0-1.640625-.361328125-2.3046875-1.8037109375-3.42578125-1.46875-1.146484375-2.205078125-1.828125-2.205078125-3.853515625,0-1.724609375.515625-3.359375,2.5966796875-3.345703125,1.931640625.013671875,2.5078125,1.26953125,2.5078125,3.076171875v.615234375h-1.30078125v-.580078125c0-1.185546875-.2373046875-1.958984375-1.234375-1.958984375-1.0029296875,0-1.2607421875.880859375-1.2607421875,1.998046875,0,1.349609375.2705078125,1.8359375,1.5439453125,2.80859375,1.8740234375,1.423828125,2.47265625,2.208984375,2.47265625,4.48828125,0,1.9296875-.521484375,3.669921875-2.7841796875,3.669921875-2.142578125,0-2.7734375-1.416015625-2.7734375-3.2265625v-.783203125h1.30859375Z"/>
        <path class="cls-3" d="M364.9020657757,18.5979880949v10.740234375c0,1.166015625.4150390625,1.986328125,1.49609375,1.986328125,1.1015625,0,1.4814453125-.75,1.4814453125-1.97265625v-10.75390625h1.3212890625v10.69921875c0,2.115234375-.9482421875,3.23046875-2.830078125,3.23046875-1.8388671875,0-2.7763671875-1.04296875-2.7763671875-3.19140625v-10.73828125h1.3076171875Z"/>
        <path class="cls-3" d="M373.2780423382,32.3479880949v-13.75h1.5791015625c.7861328125,2.6875,2.7626953125,9.994140625,3.005859375,11.2109375h.0341796875c-.076171875-1.88671875-.103515625-3.822265625-.103515625-6.05859375v-5.15234375h1.2431640625v13.75h-1.529296875c-.8017578125-2.802734375-2.8046875-10.375-3.09375-11.591796875h-.0205078125c.0888671875,1.654296875.134765625,3.9296875.134765625,6.412109375v5.1796875h-1.25Z"/>
      </g>
      <g>
        <path class="cls-3" d="M143.7438626507,14.0110740324c-1.0522460938,0-1.7133789062.5712890625-1.7133789062,2.07421875v2.2548828125h-3.1259765625v-2.044921875c0-3.3662109375,1.6831054688-5.2900390625,4.9296875-5.2900390625,3.24609375,0,4.9296875,1.923828125,4.9296875,5.2900390625,0,2.7958984375-1.0219726562,5.05078125-4.087890625,8.3271484375-1.9541015625,2.103515625-2.4951171875,3.095703125-2.4951171875,4.2080078125,0,.150390625,0,.30078125.0297851562.451171875h6.2524414062v3.005859375h-9.55859375v-2.5849609375c0-2.3447265625.8413085938-4.1181640625,3.3061523438-6.703125,2.525390625-2.67578125,3.2465820312-4.3291015625,3.2465820312-6.5830078125,0-1.89453125-.6611328125-2.4052734375-1.7133789062-2.4052734375Z"/>
        <path class="cls-3" d="M153.5422024945,16.2952537199c0-3.3662109375,1.7739257812-5.2900390625,5.0200195312-5.2900390625,3.2465820312,0,5.0200195312,1.923828125,5.0200195312,5.2900390625v10.9423828125c0,3.3662109375-1.7734375,5.2900390625-5.0200195312,5.2900390625-3.24609375,0-5.0200195312-1.923828125-5.0200195312-5.2900390625v-10.9423828125ZM156.8488431195,27.4475974699c0,1.5029296875.6616210938,2.07421875,1.7133789062,2.07421875,1.0522460938,0,1.7133789062-.5712890625,1.7133789062-2.07421875v-11.3623046875c0-1.5029296875-.6611328125-2.07421875-1.7133789062-2.07421875-1.0517578125,0-1.7133789062.5712890625-1.7133789062,2.07421875v11.3623046875Z"/>
        <path class="cls-3" d="M173.5612454632,14.0110740324c-1.0522460938,0-1.7133789062.5712890625-1.7133789062,2.07421875v2.2548828125h-3.1259765625v-2.044921875c0-3.3662109375,1.6831054688-5.2900390625,4.9296875-5.2900390625,3.24609375,0,4.9296875,1.923828125,4.9296875,5.2900390625,0,2.7958984375-1.0219726562,5.05078125-4.087890625,8.3271484375-1.9541015625,2.103515625-2.4951171875,3.095703125-2.4951171875,4.2080078125,0,.150390625,0,.30078125.0297851562.451171875h6.2524414062v3.005859375h-9.55859375v-2.5849609375c0-2.3447265625.8413085938-4.1181640625,3.3061523438-6.703125,2.525390625-2.67578125,3.2465820312-4.3291015625,3.2465820312-6.5830078125,0-1.89453125-.6611328125-2.4052734375-1.7133789062-2.4052734375Z"/>
        <path class="cls-3" d="M183.420132182,16.4759177824c0-3.546875,1.623046875-5.470703125,5.0498046875-5.470703125,3.2465820312,0,4.9296875,1.923828125,4.9296875,5.2900390625v.541015625h-3.1259765625v-.7509765625c0-1.5029296875-.6616210938-2.07421875-1.7133789062-2.07421875-1.1723632812,0-1.833984375.5712890625-1.833984375,2.5849609375v3.8173828125h.060546875c.5708007812-1.2021484375,1.5327148438-1.8330078125,3.005859375-1.8330078125,2.4345703125,0,3.6669921875,1.712890625,3.6669921875,4.8095703125v3.84765625c0,3.3662109375-1.7734375,5.2900390625-5.0200195312,5.2900390625-3.24609375,0-5.01953125-1.923828125-5.01953125-5.2900390625v-10.76171875ZM186.7262845257,23.6604880949v3.787109375c0,1.5029296875.6616210938,2.0439453125,1.7133789062,2.0439453125,1.0522460938,0,1.7138671875-.541015625,1.7138671875-2.0439453125v-3.787109375c0-1.5029296875-.6616210938-2.07421875-1.7138671875-2.07421875-1.0517578125,0-1.7133789062.5712890625-1.7133789062,2.07421875Z"/>
        <path class="cls-3" d="M201.7253079632,29.1009177824v3.1865234375h-3.1860351562v-3.1865234375h3.1860351562Z"/>
        <path class="cls-3" d="M206.8644681195,16.2952537199c0-3.3662109375,1.7739257812-5.2900390625,5.0200195312-5.2900390625,3.2465820312,0,5.0200195312,1.923828125,5.0200195312,5.2900390625v10.9423828125c0,3.3662109375-1.7734375,5.2900390625-5.0200195312,5.2900390625-3.24609375,0-5.0200195312-1.923828125-5.0200195312-5.2900390625v-10.9423828125ZM210.1711087445,27.4475974699c0,1.5029296875.6616210938,2.07421875,1.7133789062,2.07421875,1.0522460938,0,1.7133789062-.5712890625,1.7133789062-2.07421875v-11.3623046875c0-1.5029296875-.6611328125-2.07421875-1.7133789062-2.07421875-1.0517578125,0-1.7133789062.5712890625-1.7133789062,2.07421875v11.3623046875Z"/>
        <path class="cls-3" d="M226.793179057,32.5276755949c-3.3364257812,0-5.169921875-1.923828125-5.169921875-5.2900390625v-1.6533203125c0-2.0146484375.6010742188-3.546875,2.0439453125-4.359375v-.0595703125c-1.3828125-.751953125-2.0439453125-2.134765625-2.0439453125-4.2080078125v-.662109375c0-3.3662109375,1.8334960938-5.2900390625,5.169921875-5.2900390625,3.3369140625,0,5.1704101562,1.923828125,5.1704101562,5.2900390625v.662109375c0,2.0732421875-.69140625,3.4560546875-2.0439453125,4.2080078125v.0595703125c1.4428710938.8125,2.0439453125,2.3447265625,2.0439453125,4.359375v1.6533203125c0,3.3662109375-1.8334960938,5.2900390625-5.1704101562,5.2900390625ZM224.929897807,17.5882224699c0,1.68359375.78125,2.224609375,1.86328125,2.224609375,1.0522460938,0,1.8637695312-.541015625,1.8637695312-2.224609375v-1.171875c0-1.89453125-.8115234375-2.4052734375-1.8637695312-2.4052734375-1.0517578125,0-1.86328125.5107421875-1.86328125,2.4052734375v1.171875ZM226.793179057,29.5218162199c1.0522460938,0,1.833984375-.5107421875,1.8637695312-2.375v-1.953125c0-1.6533203125-.69140625-2.375-1.8637695312-2.375s-1.86328125.7216796875-1.86328125,2.375v1.953125c0,1.8642578125.8115234375,2.375,1.86328125,2.375Z"/>
        <path class="cls-3" d="M240.138882182,29.1009177824v3.1865234375h-3.1865234375v-3.1865234375h3.1865234375Z"/>
        <path class="cls-3" d="M247.5929837445,13.8909568449c2.5551757812,0,3.1259765625-1.232421875,3.6372070312-2.6455078125h2.2241210938v21.0419921875h-3.3061523438v-16.0517578125h-2.5551757812v-2.3447265625Z"/>
        <path class="cls-3" d="M263.4333157757,25.4934959074v1.9541015625c0,1.5029296875.662109375,2.0439453125,1.7138671875,2.0439453125s1.712890625-.541015625,1.712890625-2.0439453125v-4.62890625c0-1.5029296875-.6611328125-2.07421875-1.712890625-2.07421875s-1.7138671875.5712890625-1.7138671875,2.07421875v.630859375h-3.1259765625l.6015625-12.2041015625h8.716796875v3.005859375h-5.771484375l-.2705078125,5.0205078125h.060546875c.6005859375-.9921875,1.533203125-1.533203125,2.85546875-1.533203125,2.4345703125,0,3.6669921875,1.712890625,3.6669921875,4.8095703125v4.689453125c0,3.3662109375-1.6826171875,5.2900390625-4.9296875,5.2900390625-3.24609375,0-4.9296875-1.923828125-4.9296875-5.2900390625v-1.744140625h3.1259765625Z"/>
        <path class="cls-3" d="M275.2165189007,20.2640037199h6.01171875v3.005859375h-6.01171875v-3.005859375Z"/>
        <path class="cls-3" d="M288.5319485882,13.8909568449c2.5546875,0,3.1259765625-1.232421875,3.63671875-2.6455078125h2.224609375v21.0419921875h-3.306640625v-16.0517578125h-2.5546875v-2.3447265625Z"/>
        <path class="cls-3" d="M301.1862454632,16.4759177824c0-3.546875,1.623046875-5.470703125,5.0498046875-5.470703125,3.24609375,0,4.9296875,1.923828125,4.9296875,5.2900390625v.541015625h-3.1259765625v-.7509765625c0-1.5029296875-.662109375-2.07421875-1.7138671875-2.07421875-1.171875,0-1.833984375.5712890625-1.833984375,2.5849609375v3.8173828125h.060546875c.5712890625-1.2021484375,1.533203125-1.8330078125,3.005859375-1.8330078125,2.4345703125,0,3.6669921875,1.712890625,3.6669921875,4.8095703125v3.84765625c0,3.3662109375-1.7734375,5.2900390625-5.01953125,5.2900390625s-5.01953125-1.923828125-5.01953125-5.2900390625v-10.76171875ZM304.4919095257,23.6604880949v3.787109375c0,1.5029296875.662109375,2.0439453125,1.7138671875,2.0439453125s1.7138671875-.541015625,1.7138671875-2.0439453125v-3.787109375c0-1.5029296875-.662109375-2.07421875-1.7138671875-2.07421875s-1.7138671875.5712890625-1.7138671875,2.07421875Z"/>
      </g>
    </g>
    <g>
      <polyline class="cls-4" points="266.9112981375 56.4395859394 266.9112403947 78.2037621452 267.371870316 78.2037620454"/>
      <g>
        <path class="cls-3" d="M35.5199280266,70.6798850595v-.9990234375h2.6103515625v1.19921875c0,1.25.5522460938,1.7001953125,1.4306640625,1.7001953125.87890625,0,1.4311523438-.4501953125,1.4311523438-1.75,0-1.44921875-.5522460938-2.3740234375-2.3598632812-3.94921875-2.3090820312-2.0244140625-3.0620117188-3.44921875-3.0620117188-5.4482421875,0-2.75,1.4306640625-4.349609375,4.1162109375-4.349609375,2.6860351562,0,4.0161132812,1.599609375,4.0161132812,4.3994140625v.724609375h-2.6103515625v-.8994140625c0-1.25-.501953125-1.724609375-1.3803710938-1.724609375s-1.380859375.474609375-1.380859375,1.6748046875c0,1.2744140625.5776367188,2.19921875,2.384765625,3.7734375,2.3090820312,2.0244140625,3.037109375,3.4248046875,3.037109375,5.5986328125,0,2.849609375-1.4555664062,4.44921875-4.1665039062,4.44921875s-4.06640625-1.599609375-4.06640625-4.3994140625Z"/>
        <path class="cls-3" d="M50.3539124016,57.333205372h2.7607421875v17.49609375h-2.7607421875v-17.49609375Z"/>
        <path class="cls-3" d="M60.1927795891,57.333205372h2.7607421875v14.9970703125h4.5434570312v2.4990234375h-7.3041992188v-17.49609375Z"/>
        <path class="cls-3" d="M73.8465881828,57.333205372h7.5302734375v2.5h-4.76953125v4.6240234375h3.7905273438v2.4990234375h-3.7905273438v5.3740234375h4.76953125v2.4990234375h-7.5302734375v-17.49609375Z"/>
        <path class="cls-3" d="M87.5506897453,70.6798850595v-.9990234375h2.6103515625v1.19921875c0,1.25.5522460938,1.7001953125,1.4306640625,1.7001953125.87890625,0,1.4306640625-.4501953125,1.4306640625-1.75,0-1.44921875-.5517578125-2.3740234375-2.359375-3.94921875-2.3090820312-2.0244140625-3.0620117188-3.44921875-3.0620117188-5.4482421875,0-2.75,1.4306640625-4.349609375,4.1162109375-4.349609375,2.6860351562,0,4.0161132812,1.599609375,4.0161132812,4.3994140625v.724609375h-2.6103515625v-.8994140625c0-1.25-.501953125-1.724609375-1.3803710938-1.724609375s-1.380859375.474609375-1.380859375,1.6748046875c0,1.2744140625.5776367188,2.19921875,2.384765625,3.7734375,2.3090820312,2.0244140625,3.037109375,3.4248046875,3.037109375,5.5986328125,0,2.849609375-1.4555664062,4.44921875-4.1665039062,4.44921875s-4.06640625-1.599609375-4.06640625-4.3994140625Z"/>
        <path class="cls-3" d="M102.3846741203,57.333205372h2.7607421875v17.49609375h-2.7607421875v-17.49609375Z"/>
        <path class="cls-3" d="M114.3568420891,57.333205372h3.740234375l2.861328125,17.49609375h-2.7612304688l-.501953125-3.474609375v.05078125h-3.1376953125l-.501953125,3.423828125h-2.5600585938l2.861328125-17.49609375ZM117.3690491203,69.030470997l-1.2299804688-8.6474609375h-.0502929688l-1.2045898438,8.6474609375h2.4848632812Z"/>
        <path class="cls-3" d="M135.9418030266,64.8322288095h5.5224609375v2.4990234375h-5.5224609375v-2.4990234375Z"/>
        <path class="cls-3" d="M157.1756897453,57.333205372h4.0659179688c2.7612304688,0,4.1166992188,1.525390625,4.1166992188,4.32421875v1.724609375c0,2.7998046875-1.35546875,4.32421875-4.1166992188,4.32421875h-1.3051757812v7.123046875h-2.7607421875v-17.49609375ZM161.2416077141,65.206252247c.87890625,0,1.35546875-.3994140625,1.35546875-1.6494140625v-2.07421875c0-1.25-.4765625-1.6494140625-1.35546875-1.6494140625h-1.3051757812v5.373046875h1.3051757812Z"/>
        <path class="cls-3" d="M171.6830139641,70.6798850595v-9.197265625c0-2.7998046875,1.4809570312-4.3994140625,4.1918945312-4.3994140625s4.1918945312,1.599609375,4.1918945312,4.3994140625v9.197265625c0,2.7998046875-1.4809570312,4.3994140625-4.1918945312,4.3994140625s-4.1918945312-1.599609375-4.1918945312-4.3994140625ZM177.3055725578,70.8556663095v-9.5478515625c0-1.25-.5522460938-1.724609375-1.4306640625-1.724609375s-1.4306640625.474609375-1.4306640625,1.724609375v9.5478515625c0,1.2490234375.5522460938,1.724609375,1.4306640625,1.724609375s1.4306640625-.4755859375,1.4306640625-1.724609375Z"/>
        <path class="cls-3" d="M186.9437561516,57.333205372h2.7607421875v14.9970703125h4.5434570312v2.4990234375h-7.3041992188v-17.49609375Z"/>
        <path class="cls-3" d="M202.8314514641,57.333205372h3.740234375l2.861328125,17.49609375h-2.7612304688l-.501953125-3.474609375v.05078125h-3.1376953125l-.501953125,3.423828125h-2.5600585938l2.861328125-17.49609375ZM205.8436584953,69.030470997l-1.2299804688-8.6474609375h-.0502929688l-1.2045898438,8.6474609375h2.4848632812Z"/>
        <path class="cls-3" d="M215.7826233391,57.333205372h3.4638671875l2.685546875,10.47265625h.0502929688v-10.47265625h2.4599609375v17.49609375h-2.8364257812l-3.3134765625-12.771484375h-.0502929688v12.771484375h-2.4594726562v-17.49609375Z"/>
        <path class="cls-3" d="M231.5199280266,57.333205372h4.216796875c2.7612304688,0,4.1166992188,1.525390625,4.1166992188,4.32421875v8.84765625c0,2.7998046875-1.35546875,4.32421875-4.1166992188,4.32421875h-4.216796875v-17.49609375ZM235.6864319328,72.3302756845c.8784179688,0,1.4057617188-.4501953125,1.4057617188-1.7001953125v-9.09765625c0-1.25-.52734375-1.69921875-1.4057617188-1.69921875h-1.4057617188v12.4970703125h1.4057617188Z"/>
      </g>
      <g>
        <path class="cls-3" d="M316.3929749016,72.9298850595c0-2.5.7021484375-4.0244140625,2.7607421875-6.173828125,2.1083984375-2.224609375,2.7109375-3.548828125,2.7109375-5.173828125,0-1.57421875-.552734375-1.9990234375-1.4306640625-1.9990234375-.87890625,0-1.4306640625.474609375-1.4306640625,1.724609375v1.8740234375h-2.6103515625v-1.69921875c0-2.7998046875,1.4052734375-4.3994140625,4.1162109375-4.3994140625s4.1162109375,1.599609375,4.1162109375,4.3994140625c0,2.07421875-.853515625,3.923828125-3.4130859375,6.623046875-1.6572265625,1.75-2.083984375,2.625-2.083984375,3.849609375v.375h5.24609375v2.4990234375h-7.9814453125v-1.8994140625Z"/>
        <path class="cls-3" d="M340.5384827141,57.333205372h4.216796875c2.7607421875,0,4.1162109375,1.525390625,4.1162109375,4.32421875v8.84765625c0,2.7998046875-1.35546875,4.32421875-4.1162109375,4.32421875h-4.216796875v-17.49609375ZM344.7044983391,72.3302756845c.87890625,0,1.40625-.4501953125,1.40625-1.7001953125v-9.09765625c0-1.25-.52734375-1.69921875-1.40625-1.69921875h-1.4052734375v12.4970703125h1.4052734375Z"/>
        <path class="cls-3" d="M357.8314514641,57.333205372h3.740234375l2.861328125,17.49609375h-2.7607421875l-.501953125-3.474609375v.05078125h-3.1376953125l-.501953125,3.423828125h-2.560546875l2.861328125-17.49609375ZM360.8441467766,69.030470997l-1.23046875-8.6474609375h-.0498046875l-1.205078125,8.6474609375h2.4853515625Z"/>
        <path class="cls-3" d="M372.1634827141,67.3810569345l-3.337890625-10.0478515625h2.9365234375l1.8828125,6.423828125h.0498046875l1.8828125-6.423828125h2.685546875l-3.3388671875,10.0478515625v7.4482421875h-2.7607421875v-7.4482421875Z"/>
        <path class="cls-3" d="M393.3724670891,70.6798850595v-9.197265625c0-2.7998046875,1.48046875-4.3994140625,4.19140625-4.3994140625s4.1923828125,1.599609375,4.1923828125,4.3994140625v9.197265625c0,2.7998046875-1.4814453125,4.3994140625-4.1923828125,4.3994140625s-4.19140625-1.599609375-4.19140625-4.3994140625ZM398.9945374016,70.8556663095v-9.5478515625c0-1.25-.5517578125-1.724609375-1.4306640625-1.724609375-.8779296875,0-1.4306640625.474609375-1.4306640625,1.724609375v9.5478515625c0,1.2490234375.552734375,1.724609375,1.4306640625,1.724609375.87890625,0,1.4306640625-.4755859375,1.4306640625-1.724609375Z"/>
        <path class="cls-3" d="M408.6332092766,57.333205372h7.3037109375v2.5h-4.54296875v4.8740234375h3.564453125v2.4990234375h-3.564453125v7.623046875h-2.7607421875v-17.49609375Z"/>
        <path class="cls-3" d="M431.3226624016,57.333205372h2.7607421875v14.9970703125h4.5439453125v2.4990234375h-7.3046875v-17.49609375Z"/>
        <path class="cls-3" d="M444.9769592766,57.333205372h2.7607421875v17.49609375h-2.7607421875v-17.49609375Z"/>
        <path class="cls-3" d="M454.0873108391,57.333205372h2.7861328125l1.8076171875,13.572265625h.0498046875l1.8076171875-13.572265625h2.53515625l-2.6611328125,17.49609375h-3.6640625l-2.6611328125-17.49609375Z"/>
        <path class="cls-3" d="M469.4232483391,57.333205372h7.5302734375v2.5h-4.76953125v4.6240234375h3.791015625v2.4990234375h-3.791015625v5.3740234375h4.76953125v2.4990234375h-7.5302734375v-17.49609375Z"/>
      </g>
    </g>
  </g>
</svg>