<?xml version="1.0" encoding="UTF-8"?>
<svg id="Layer_2" data-name="Layer 2" xmlns="http://www.w3.org/2000/svg" xmlns:xlink="http://www.w3.org/1999/xlink" viewBox="0 0 703.5576171875 44.5126953125">
  <defs>
    <style>
      .cls-1 {
        fill: url(#Degradado_sin_nombre_5-15);
      }

      .cls-2 {
        fill: url(#Degradado_sin_nombre_5-48);
      }

      .cls-3 {
        fill: url(#Degradado_sin_nombre_5-44);
      }

      .cls-4 {
        fill: url(#Degradado_sin_nombre_5-16);
      }

      .cls-5 {
        fill: url(#Degradado_sin_nombre_5-35);
      }

      .cls-6 {
        fill: url(#Degradado_sin_nombre_5-60);
      }

      .cls-7 {
        fill: url(#Degradado_sin_nombre_5-57);
      }

      .cls-8 {
        fill: url(#Degradado_sin_nombre_5-29);
      }

      .cls-9 {
        fill: url(#Degradado_sin_nombre_5);
      }

      .cls-10 {
        fill: url(#Degradado_sin_nombre_5-9);
      }

      .cls-11 {
        fill: url(#Degradado_sin_nombre_5-24);
      }

      .cls-12 {
        fill: url(#Degradado_sin_nombre_5-53);
      }

      .cls-13 {
        fill: url(#Degradado_sin_nombre_5-18);
      }

      .cls-14 {
        fill: url(#Degradado_sin_nombre_5-56);
      }

      .cls-15 {
        fill: url(#Degradado_sin_nombre_5-43);
      }

      .cls-16 {
        fill: url(#Degradado_sin_nombre_5-23);
      }

      .cls-17 {
        fill: url(#Degradado_sin_nombre_5-47);
      }

      .cls-18 {
        fill: url(#Degradado_sin_nombre_5-40);
      }

      .cls-19 {
        fill: url(#Degradado_sin_nombre_5-58);
      }

      .cls-20 {
        fill: url(#Degradado_sin_nombre_5-25);
      }

      .cls-21 {
        fill: url(#Degradado_sin_nombre_5-49);
      }

      .cls-22 {
        fill: url(#Degradado_sin_nombre_5-39);
      }

      .cls-23 {
        fill: url(#Degradado_sin_nombre_5-22);
      }

      .cls-24 {
        fill: url(#Degradado_sin_nombre_5-79);
      }

      .cls-25 {
        fill: url(#Degradado_sin_nombre_5-37);
      }

      .cls-26 {
        fill: url(#Degradado_sin_nombre_5-66);
      }

      .cls-27 {
        fill: url(#Degradado_sin_nombre_5-17);
      }

      .cls-28 {
        fill: url(#Degradado_sin_nombre_5-55);
      }

      .cls-29 {
        fill: url(#Degradado_sin_nombre_5-65);
      }

      .cls-30 {
        fill: url(#Degradado_sin_nombre_5-30);
      }

      .cls-31 {
        fill: url(#Degradado_sin_nombre_5-32);
      }

      .cls-32 {
        fill: url(#Degradado_sin_nombre_5-42);
      }

      .cls-33 {
        fill: url(#Degradado_sin_nombre_5-68);
      }

      .cls-34 {
        fill: url(#Degradado_sin_nombre_5-67);
      }

      .cls-35 {
        fill: url(#Degradado_sin_nombre_5-72);
      }

      .cls-36 {
        fill: url(#Degradado_sin_nombre_5-73);
      }

      .cls-37 {
        fill: url(#Degradado_sin_nombre_5-54);
      }

      .cls-38 {
        fill: url(#Degradado_sin_nombre_5-81);
      }

      .cls-39 {
        fill: url(#Degradado_sin_nombre_5-76);
      }

      .cls-40 {
        fill: url(#Degradado_sin_nombre_5-70);
      }

      .cls-41 {
        fill: url(#Degradado_sin_nombre_5-27);
      }

      .cls-42 {
        fill: url(#Degradado_sin_nombre_5-46);
      }

      .cls-43 {
        fill: url(#Degradado_sin_nombre_5-41);
      }

      .cls-44 {
        fill: url(#Degradado_sin_nombre_5-31);
      }

      .cls-45 {
        fill: url(#Degradado_sin_nombre_5-52);
      }

      .cls-46 {
        fill: url(#Degradado_sin_nombre_5-8);
      }

      .cls-47 {
        fill: url(#Degradado_sin_nombre_5-50);
      }

      .cls-48 {
        fill: url(#Degradado_sin_nombre_5-64);
      }

      .cls-49 {
        fill: url(#Degradado_sin_nombre_5-14);
      }

      .cls-50 {
        fill: url(#Degradado_sin_nombre_5-34);
      }

      .cls-51 {
        fill: url(#Degradado_sin_nombre_5-3);
      }

      .cls-52 {
        fill: url(#Degradado_sin_nombre_5-63);
      }

      .cls-53 {
        fill: url(#Degradado_sin_nombre_5-13);
      }

      .cls-54 {
        fill: url(#Degradado_sin_nombre_5-20);
      }

      .cls-55 {
        fill: url(#Degradado_sin_nombre_5-11);
      }

      .cls-56 {
        fill: url(#Degradado_sin_nombre_5-36);
      }

      .cls-57 {
        fill: url(#Degradado_sin_nombre_5-5);
      }

      .cls-58 {
        fill: url(#Degradado_sin_nombre_5-80);
      }

      .cls-59 {
        fill: url(#Degradado_sin_nombre_5-28);
      }

      .cls-60 {
        fill: url(#Degradado_sin_nombre_5-10);
      }

      .cls-61 {
        fill: url(#Degradado_sin_nombre_5-71);
      }

      .cls-62 {
        fill: url(#Degradado_sin_nombre_5-74);
      }

      .cls-63 {
        fill: url(#Degradado_sin_nombre_5-78);
      }

      .cls-64 {
        fill: url(#Degradado_sin_nombre_5-12);
      }

      .cls-65 {
        fill: url(#Degradado_sin_nombre_5-33);
      }

      .cls-66 {
        fill: url(#Degradado_sin_nombre_5-21);
      }

      .cls-67 {
        fill: url(#Degradado_sin_nombre_5-45);
      }

      .cls-68 {
        fill: url(#Degradado_sin_nombre_5-82);
      }

      .cls-69 {
        fill: url(#Degradado_sin_nombre_5-69);
      }

      .cls-70 {
        fill: url(#Degradado_sin_nombre_5-2);
      }

      .cls-71 {
        fill: url(#Degradado_sin_nombre_5-75);
      }

      .cls-72 {
        fill: url(#Degradado_sin_nombre_5-19);
      }

      .cls-73 {
        fill: url(#Degradado_sin_nombre_5-26);
      }

      .cls-74 {
        fill: url(#Degradado_sin_nombre_5-51);
      }

      .cls-75 {
        fill: url(#Degradado_sin_nombre_5-59);
      }

      .cls-76 {
        fill: url(#Degradado_sin_nombre_5-6);
      }

      .cls-77 {
        fill: url(#Degradado_sin_nombre_5-4);
      }

      .cls-78 {
        fill: url(#Degradado_sin_nombre_5-77);
      }

      .cls-79 {
        fill: url(#Degradado_sin_nombre_5-62);
      }

      .cls-80 {
        fill: url(#Degradado_sin_nombre_5-61);
      }

      .cls-81 {
        fill: url(#Degradado_sin_nombre_5-7);
      }

      .cls-82 {
        fill: url(#Degradado_sin_nombre_5-38);
      }
    </style>
    <linearGradient id="Degradado_sin_nombre_5" data-name="Degradado sin nombre 5" x1="5.505859375" y1="42.4462890625" x2="5.505859375" y2="27.984375" gradientUnits="userSpaceOnUse">
      <stop offset=".327493" stop-color="#b167aa"/>
      <stop offset=".732709" stop-color="#5253a3"/>
      <stop offset=".73966" stop-color="#5153a3"/>
      <stop offset=".893957" stop-color="#4d52a3"/>
    </linearGradient>
    <linearGradient id="Degradado_sin_nombre_5-2" data-name="Degradado sin nombre 5" x1="21.9296875" x2="21.9296875" xlink:href="#Degradado_sin_nombre_5"/>
    <linearGradient id="Degradado_sin_nombre_5-3" data-name="Degradado sin nombre 5" x1="36.4626464844" x2="36.4626464844" xlink:href="#Degradado_sin_nombre_5"/>
    <linearGradient id="Degradado_sin_nombre_5-4" data-name="Degradado sin nombre 5" x1="50.7482910156" x2="50.7482910156" xlink:href="#Degradado_sin_nombre_5"/>
    <linearGradient id="Degradado_sin_nombre_5-5" data-name="Degradado sin nombre 5" x1="74.4338378906" x2="74.4338378906" xlink:href="#Degradado_sin_nombre_5"/>
    <linearGradient id="Degradado_sin_nombre_5-6" data-name="Degradado sin nombre 5" x1="88.7189941406" x2="88.7189941406" xlink:href="#Degradado_sin_nombre_5"/>
    <linearGradient id="Degradado_sin_nombre_5-7" data-name="Degradado sin nombre 5" x1="103.2526855469" x2="103.2526855469" xlink:href="#Degradado_sin_nombre_5"/>
    <linearGradient id="Degradado_sin_nombre_5-8" data-name="Degradado sin nombre 5" x1="117.2180175781" x2="117.2180175781" xlink:href="#Degradado_sin_nombre_5"/>
    <linearGradient id="Degradado_sin_nombre_5-9" data-name="Degradado sin nombre 5" x1="141.2648925781" x2="141.2648925781" xlink:href="#Degradado_sin_nombre_5"/>
    <linearGradient id="Degradado_sin_nombre_5-10" data-name="Degradado sin nombre 5" x1="155.3337402344" x2="155.3337402344" xlink:href="#Degradado_sin_nombre_5"/>
    <linearGradient id="Degradado_sin_nombre_5-11" data-name="Degradado sin nombre 5" x1="169.0720214844" y1="42.611328125" x2="169.0720214844" y2="27.818359375" xlink:href="#Degradado_sin_nombre_5"/>
    <linearGradient id="Degradado_sin_nombre_5-12" data-name="Degradado sin nombre 5" x1="183.2231445312" y1="42.611328125" x2="183.2231445312" y2="27.818359375" xlink:href="#Degradado_sin_nombre_5"/>
    <linearGradient id="Degradado_sin_nombre_5-13" data-name="Degradado sin nombre 5" x1="197.9221191406" x2="197.9221191406" xlink:href="#Degradado_sin_nombre_5"/>
    <linearGradient id="Degradado_sin_nombre_5-14" data-name="Degradado sin nombre 5" x1="212.7341308594" x2="212.7341308594" xlink:href="#Degradado_sin_nombre_5"/>
    <linearGradient id="Degradado_sin_nombre_5-15" data-name="Degradado sin nombre 5" x1="226.0283203125" x2="226.0283203125" xlink:href="#Degradado_sin_nombre_5"/>
    <linearGradient id="Degradado_sin_nombre_5-16" data-name="Degradado sin nombre 5" x1="239.828125" x2="239.828125" xlink:href="#Degradado_sin_nombre_5"/>
    <linearGradient id="Degradado_sin_nombre_5-17" data-name="Degradado sin nombre 5" x1="262.7805175781" x2="262.7805175781" xlink:href="#Degradado_sin_nombre_5"/>
    <linearGradient id="Degradado_sin_nombre_5-18" data-name="Degradado sin nombre 5" x1="276.7456054688" y1="42.611328125" x2="276.7456054688" y2="27.818359375" xlink:href="#Degradado_sin_nombre_5"/>
    <linearGradient id="Degradado_sin_nombre_5-19" data-name="Degradado sin nombre 5" x1="291.0625" y1="42.611328125" x2="291.0625" y2="27.818359375" xlink:href="#Degradado_sin_nombre_5"/>
    <linearGradient id="Degradado_sin_nombre_5-20" data-name="Degradado sin nombre 5" x1="305.2136230469" x2="305.2136230469" xlink:href="#Degradado_sin_nombre_5"/>
    <linearGradient id="Degradado_sin_nombre_5-21" data-name="Degradado sin nombre 5" x1="318.7658691406" x2="318.7658691406" xlink:href="#Degradado_sin_nombre_5"/>
    <linearGradient id="Degradado_sin_nombre_5-22" data-name="Degradado sin nombre 5" x1="333.0517578125" x2="333.0517578125" xlink:href="#Degradado_sin_nombre_5"/>
    <linearGradient id="Degradado_sin_nombre_5-23" data-name="Degradado sin nombre 5" x1="347.5849609375" x2="347.5849609375" xlink:href="#Degradado_sin_nombre_5"/>
    <linearGradient id="Degradado_sin_nombre_5-24" data-name="Degradado sin nombre 5" x1="361.8193359375" x2="361.8193359375" xlink:href="#Degradado_sin_nombre_5"/>
    <linearGradient id="Degradado_sin_nombre_5-25" data-name="Degradado sin nombre 5" x1="373.8842773438" y1="44.5126953125" x2="373.8842773438" y2="40.255859375" xlink:href="#Degradado_sin_nombre_5"/>
    <linearGradient id="Degradado_sin_nombre_5-26" data-name="Degradado sin nombre 5" x1="395.6069335938" x2="395.6069335938" xlink:href="#Degradado_sin_nombre_5"/>
    <linearGradient id="Degradado_sin_nombre_5-27" data-name="Degradado sin nombre 5" x1="419.8193359375" x2="419.8193359375" xlink:href="#Degradado_sin_nombre_5"/>
    <linearGradient id="Degradado_sin_nombre_5-28" data-name="Degradado sin nombre 5" x1="434.3520507812" x2="434.3520507812" xlink:href="#Degradado_sin_nombre_5"/>
    <linearGradient id="Degradado_sin_nombre_5-29" data-name="Degradado sin nombre 5" x1="450.0434570312" x2="450.0434570312" xlink:href="#Degradado_sin_nombre_5"/>
    <linearGradient id="Degradado_sin_nombre_5-30" data-name="Degradado sin nombre 5" x1="475.3803710938" x2="475.3803710938" xlink:href="#Degradado_sin_nombre_5"/>
    <linearGradient id="Degradado_sin_nombre_5-31" data-name="Degradado sin nombre 5" x1="489.6977539062" x2="489.6977539062" xlink:href="#Degradado_sin_nombre_5"/>
    <linearGradient id="Degradado_sin_nombre_5-32" data-name="Degradado sin nombre 5" x1="504.5307617188" x2="504.5307617188" xlink:href="#Degradado_sin_nombre_5"/>
    <linearGradient id="Degradado_sin_nombre_5-33" data-name="Degradado sin nombre 5" x1="518.2475585938" x2="518.2475585938" xlink:href="#Degradado_sin_nombre_5"/>
    <linearGradient id="Degradado_sin_nombre_5-34" data-name="Degradado sin nombre 5" x1="532.482421875" x2="532.482421875" xlink:href="#Degradado_sin_nombre_5"/>
    <linearGradient id="Degradado_sin_nombre_5-35" data-name="Degradado sin nombre 5" x1="544.5874023438" x2="544.5874023438" xlink:href="#Degradado_sin_nombre_5"/>
    <linearGradient id="Degradado_sin_nombre_5-36" data-name="Degradado sin nombre 5" x1="556.6733398438" x2="556.6733398438" xlink:href="#Degradado_sin_nombre_5"/>
    <linearGradient id="Degradado_sin_nombre_5-37" data-name="Degradado sin nombre 5" x1="570.958984375" x2="570.958984375" xlink:href="#Degradado_sin_nombre_5"/>
    <linearGradient id="Degradado_sin_nombre_5-38" data-name="Degradado sin nombre 5" x1="585.5961914062" y1="42.611328125" x2="585.5961914062" y2="27.818359375" xlink:href="#Degradado_sin_nombre_5"/>
    <linearGradient id="Degradado_sin_nombre_5-39" data-name="Degradado sin nombre 5" x1="599.6645507812" x2="599.6645507812" xlink:href="#Degradado_sin_nombre_5"/>
    <linearGradient id="Degradado_sin_nombre_5-40" data-name="Degradado sin nombre 5" x1="623.2768554688" x2="623.2768554688" xlink:href="#Degradado_sin_nombre_5"/>
    <linearGradient id="Degradado_sin_nombre_5-41" data-name="Degradado sin nombre 5" x1="637.4497070312" x2="637.4497070312" xlink:href="#Degradado_sin_nombre_5"/>
    <linearGradient id="Degradado_sin_nombre_5-42" data-name="Degradado sin nombre 5" x1="651.3530273438" y1="42.611328125" x2="651.3530273438" y2="27.818359375" xlink:href="#Degradado_sin_nombre_5"/>
    <linearGradient id="Degradado_sin_nombre_5-43" data-name="Degradado sin nombre 5" x1="663.5415039062" x2="663.5415039062" xlink:href="#Degradado_sin_nombre_5"/>
    <linearGradient id="Degradado_sin_nombre_5-44" data-name="Degradado sin nombre 5" x1="676.1123046875" x2="676.1123046875" xlink:href="#Degradado_sin_nombre_5"/>
    <linearGradient id="Degradado_sin_nombre_5-45" data-name="Degradado sin nombre 5" x1="690.5844726562" y1="42.611328125" x2="690.5844726562" y2="27.818359375" xlink:href="#Degradado_sin_nombre_5"/>
    <linearGradient id="Degradado_sin_nombre_5-46" data-name="Degradado sin nombre 5" x1="702.4624023438" x2="702.4624023438" y2="40.255859375" xlink:href="#Degradado_sin_nombre_5"/>
    <linearGradient id="Degradado_sin_nombre_5-47" data-name="Degradado sin nombre 5" x1="86.9267001415" y1="14.8690526016" x2="86.9267001415" y2=".3416893443" xlink:href="#Degradado_sin_nombre_5"/>
    <linearGradient id="Degradado_sin_nombre_5-48" data-name="Degradado sin nombre 5" x1="102.820254829" y1="14.8690526016" x2="102.820254829" y2=".3416893443" xlink:href="#Degradado_sin_nombre_5"/>
    <linearGradient id="Degradado_sin_nombre_5-49" data-name="Degradado sin nombre 5" x1="116.9806552196" y1="14.8690526016" x2="116.9806552196" y2=".3416893443" xlink:href="#Degradado_sin_nombre_5"/>
    <linearGradient id="Degradado_sin_nombre_5-50" data-name="Degradado sin nombre 5" x1="128.9933505321" y1="14.8690526016" x2="128.9933505321" y2=".3416893443" xlink:href="#Degradado_sin_nombre_5"/>
    <linearGradient id="Degradado_sin_nombre_5-51" data-name="Degradado sin nombre 5" x1="141.1723056102" y1="14.8690526016" x2="141.1723056102" y2=".3416893443" xlink:href="#Degradado_sin_nombre_5"/>
    <linearGradient id="Degradado_sin_nombre_5-52" data-name="Degradado sin nombre 5" x1="165.1063876415" y1="14.8690526016" x2="165.1063876415" y2=".3416893443" xlink:href="#Degradado_sin_nombre_5"/>
    <linearGradient id="Degradado_sin_nombre_5-53" data-name="Degradado sin nombre 5" x1="179.906192329" y1="14.8690526016" x2="179.906192329" y2=".3416893443" xlink:href="#Degradado_sin_nombre_5"/>
    <linearGradient id="Degradado_sin_nombre_5-54" data-name="Degradado sin nombre 5" x1="194.1593661571" y1="14.8690526016" x2="194.1593661571" y2=".3416893443" xlink:href="#Degradado_sin_nombre_5"/>
    <linearGradient id="Degradado_sin_nombre_5-55" data-name="Degradado sin nombre 5" x1="217.5260653759" y1="14.8690526016" x2="217.5260653759" y2=".3416893443" xlink:href="#Degradado_sin_nombre_5"/>
    <linearGradient id="Degradado_sin_nombre_5-56" data-name="Degradado sin nombre 5" x1="232.9662509227" y1="14.8690526016" x2="232.9662509227" y2=".3416893443" xlink:href="#Degradado_sin_nombre_5"/>
    <linearGradient id="Degradado_sin_nombre_5-57" data-name="Degradado sin nombre 5" x1="248.8392977977" y1="14.8690526016" x2="248.8392977977" y2=".3416893443" xlink:href="#Degradado_sin_nombre_5"/>
    <linearGradient id="Degradado_sin_nombre_5-58" data-name="Degradado sin nombre 5" x1="262.792911079" y1="14.8690526016" x2="262.792911079" y2=".3416893443" xlink:href="#Degradado_sin_nombre_5"/>
    <linearGradient id="Degradado_sin_nombre_5-59" data-name="Degradado sin nombre 5" x1="274.6203036571" y1="14.8690526016" x2="274.6203036571" y2=".3416893443" xlink:href="#Degradado_sin_nombre_5"/>
    <linearGradient id="Degradado_sin_nombre_5-60" data-name="Degradado sin nombre 5" x1="286.861270454" y1="14.8690526016" x2="286.861270454" y2=".3416893443" xlink:href="#Degradado_sin_nombre_5"/>
    <linearGradient id="Degradado_sin_nombre_5-61" data-name="Degradado sin nombre 5" x1="301.5477938915" y1="14.8690526016" x2="301.5477938915" y2=".3416893443" xlink:href="#Degradado_sin_nombre_5"/>
    <linearGradient id="Degradado_sin_nombre_5-62" data-name="Degradado sin nombre 5" x1="316.0070224071" y1="14.8690526016" x2="316.0070224071" y2=".3416893443" xlink:href="#Degradado_sin_nombre_5"/>
    <linearGradient id="Degradado_sin_nombre_5-63" data-name="Degradado sin nombre 5" x1="327.8754306102" y1="14.8690526016" x2="327.8754306102" y2=".3416893443" xlink:href="#Degradado_sin_nombre_5"/>
    <linearGradient id="Degradado_sin_nombre_5-64" data-name="Degradado sin nombre 5" x1="349.3019442821" y1="14.8690526016" x2="349.3019442821" y2=".3416893443" xlink:href="#Degradado_sin_nombre_5"/>
    <linearGradient id="Degradado_sin_nombre_5-65" data-name="Degradado sin nombre 5" x1="364.7426181102" y1="14.8690526016" x2="364.7426181102" y2=".3416893443" xlink:href="#Degradado_sin_nombre_5"/>
    <linearGradient id="Degradado_sin_nombre_5-66" data-name="Degradado sin nombre 5" x1="380.6156649852" y1="14.8690526016" x2="380.6156649852" y2=".3416893443" xlink:href="#Degradado_sin_nombre_5"/>
    <linearGradient id="Degradado_sin_nombre_5-67" data-name="Degradado sin nombre 5" x1="394.5692782665" y1="14.8690526016" x2="394.5692782665" y2=".3416893443" xlink:href="#Degradado_sin_nombre_5"/>
    <linearGradient id="Degradado_sin_nombre_5-68" data-name="Degradado sin nombre 5" x1="406.396426704" y1="14.8690526016" x2="406.396426704" y2=".3416893443" xlink:href="#Degradado_sin_nombre_5"/>
    <linearGradient id="Degradado_sin_nombre_5-69" data-name="Degradado sin nombre 5" x1="418.6371493602" y1="14.8690526016" x2="418.6371493602" y2=".3416893443" xlink:href="#Degradado_sin_nombre_5"/>
    <linearGradient id="Degradado_sin_nombre_5-70" data-name="Degradado sin nombre 5" x1="433.324161079" y1="14.8690526016" x2="433.324161079" y2=".3416893443" xlink:href="#Degradado_sin_nombre_5"/>
    <linearGradient id="Degradado_sin_nombre_5-71" data-name="Degradado sin nombre 5" x1="447.783145454" y1="14.8690526016" x2="447.783145454" y2=".3416893443" xlink:href="#Degradado_sin_nombre_5"/>
    <linearGradient id="Degradado_sin_nombre_5-72" data-name="Degradado sin nombre 5" x1="471.634707954" y1="14.8690526016" x2="471.634707954" y2=".3416893443" xlink:href="#Degradado_sin_nombre_5"/>
    <linearGradient id="Degradado_sin_nombre_5-73" data-name="Degradado sin nombre 5" x1="486.4350009227" y1="14.8690526016" x2="486.4350009227" y2=".3416893443" xlink:href="#Degradado_sin_nombre_5"/>
    <linearGradient id="Degradado_sin_nombre_5-74" data-name="Degradado sin nombre 5" x1="500.4613681102" y1="14.8690526016" x2="500.4613681102" y2=".3416893443" xlink:href="#Degradado_sin_nombre_5"/>
    <linearGradient id="Degradado_sin_nombre_5-75" data-name="Degradado sin nombre 5" x1="514.724551704" y1="14.8690526016" x2="514.724551704" y2=".3416893443" xlink:href="#Degradado_sin_nombre_5"/>
    <linearGradient id="Degradado_sin_nombre_5-76" data-name="Degradado sin nombre 5" x1="538.007754829" y1="14.8690526016" x2="538.007754829" y2=".3416893443" xlink:href="#Degradado_sin_nombre_5"/>
    <linearGradient id="Degradado_sin_nombre_5-77" data-name="Degradado sin nombre 5" x1="552.2299227977" y1="14.8690526016" x2="552.2299227977" y2=".3416893443" xlink:href="#Degradado_sin_nombre_5"/>
    <linearGradient id="Degradado_sin_nombre_5-78" data-name="Degradado sin nombre 5" x1="566.339786079" y1="14.8690526016" x2="566.339786079" y2=".3416893443" xlink:href="#Degradado_sin_nombre_5"/>
    <linearGradient id="Degradado_sin_nombre_5-79" data-name="Degradado sin nombre 5" x1="579.7865634227" y1="14.8690526016" x2="579.7865634227" y2=".3416893443" xlink:href="#Degradado_sin_nombre_5"/>
    <linearGradient id="Degradado_sin_nombre_5-80" data-name="Degradado sin nombre 5" x1="594.4227938915" y1="14.8690526016" x2="594.4227938915" y2=".3416893443" xlink:href="#Degradado_sin_nombre_5"/>
    <linearGradient id="Degradado_sin_nombre_5-81" data-name="Degradado sin nombre 5" x1="608.4169345165" y1="14.8690526016" x2="608.4169345165" y2=".3416893443" xlink:href="#Degradado_sin_nombre_5"/>
    <linearGradient id="Degradado_sin_nombre_5-82" data-name="Degradado sin nombre 5" x1="620.2865634227" y1="14.8690526016" x2="620.2865634227" y2=".3416893443" xlink:href="#Degradado_sin_nombre_5"/>
  </defs>
  <g id="Layer_1-2" data-name="Layer 1">
    <g>
      <path class="cls-9" d="M5.578125,34.740234375h-.0415039062l-.8056640625,7.7060546875H1.611328125l-1.611328125-14.4619140625h2.2104492188l1.1982421875,11.404296875h.0415039062l1.07421875-11.404296875h2.1899414062l1.1157226562,11.486328125h.0415039062l1.1567382812-11.486328125h1.9833984375l-1.611328125,14.4619140625h-3.0166015625l-.8056640625-7.7060546875Z"/>
      <path class="cls-70" d="M20.6176757812,42.4462890625h-2.2724609375v-14.4619140625h2.2724609375v6.197265625h2.5825195312v-6.197265625h2.3139648438v14.4619140625h-2.3139648438v-6.1982421875h-2.5825195312v6.1982421875Z"/>
      <path class="cls-51" d="M35.6362304688,34.0791015625h3.1196289062v2.0654296875h-3.1196289062v4.2353515625h3.9252929688v2.06640625h-6.1977539062v-14.4619140625h6.1977539062v2.0654296875h-3.9252929688v4.029296875Z"/>
      <path class="cls-77" d="M49.2299804688,31.9716796875h-.0415039062v10.474609375h-2.0454101562v-14.4619140625h2.8510742188l2.2934570312,8.65625h.0415039062v-8.65625h2.0244140625v14.4619140625h-2.3344726562l-2.7890625-10.474609375Z"/>
      <path class="cls-57" d="M70.9213867188,27.984375h7.0249023438v2.0654296875h-2.3759765625v12.396484375h-2.2729492188v-12.396484375h-2.3759765625v-2.0654296875Z"/>
      <path class="cls-76" d="M87.4072265625,42.4462890625h-2.2729492188v-14.4619140625h2.2729492188v6.197265625h2.5825195312v-6.197265625h2.3139648438v14.4619140625h-2.3139648438v-6.1982421875h-2.5825195312v6.1982421875Z"/>
      <path class="cls-81" d="M102.4262695312,34.0791015625h3.1196289062v2.0654296875h-3.1196289062v4.2353515625h3.9252929688v2.06640625h-6.1977539062v-14.4619140625h6.1977539062v2.0654296875h-3.9252929688v4.029296875Z"/>
      <path class="cls-46" d="M116.08203125,37.6533203125l-2.8720703125-9.6689453125h2.3759765625l1.71484375,6.58984375h.0415039062l1.71484375-6.58984375h2.1689453125l-2.8715820312,9.6689453125v4.79296875h-2.2724609375v-4.79296875Z"/>
      <path class="cls-10" d="M142.4838867188,42.4462890625c-.1240234375-.3720703125-.2065429688-.599609375-.2065429688-1.7763671875v-2.2734375c0-1.3427734375-.4545898438-1.8388671875-1.4873046875-1.8388671875h-.78515625v5.888671875h-2.2729492188v-14.4619140625h3.4296875c2.35546875,0,3.3676757812,1.0947265625,3.3676757812,3.326171875v1.1357421875c0,1.48828125-.4750976562,2.4384765625-1.4873046875,2.9130859375v.0419921875c1.1362304688.474609375,1.5083007812,1.548828125,1.5083007812,3.0576171875v2.2314453125c0,.7021484375.0205078125,1.21875.2475585938,1.755859375h-2.3139648438ZM140.0048828125,30.0498046875v4.4423828125h.8881835938c.8471679688,0,1.3637695312-.3720703125,1.3637695312-1.529296875v-1.42578125c0-1.0322265625-.3510742188-1.4873046875-1.1572265625-1.4873046875h-1.0947265625Z"/>
      <path class="cls-60" d="M154.5073242188,34.0791015625h3.1196289062v2.0654296875h-3.1196289062v4.2353515625h3.9252929688v2.06640625h-6.1977539062v-14.4619140625h6.1977539062v2.0654296875h-3.9252929688v4.029296875Z"/>
      <path class="cls-55" d="M169.0927734375,27.818359375c2.2104492188,0,3.3466796875,1.322265625,3.3466796875,3.63671875v.4541015625h-2.1484375v-.5986328125c0-1.033203125-.4130859375-1.42578125-1.1362304688-1.42578125s-1.13671875.392578125-1.13671875,1.42578125c0,1.0537109375.4545898438,1.8388671875,1.9423828125,3.140625,1.9008789062,1.6728515625,2.5,2.87109375,2.5,4.5244140625,0,2.3134765625-1.1572265625,3.6357421875-3.388671875,3.6357421875-2.2309570312,0-3.3881835938-1.322265625-3.3881835938-3.6357421875v-.888671875h2.1489257812v1.033203125c0,1.033203125.4545898438,1.404296875,1.177734375,1.404296875.72265625,0,1.1772460938-.37109375,1.1772460938-1.404296875,0-1.0537109375-.4545898438-1.8388671875-1.9418945312-3.140625-1.9008789062-1.673828125-2.5-2.8720703125-2.5-4.5244140625,0-2.314453125,1.1362304688-3.63671875,3.3471679688-3.63671875Z"/>
      <path class="cls-64" d="M179.7729492188,31.455078125c0-2.314453125,1.21875-3.63671875,3.4501953125-3.63671875s3.4501953125,1.322265625,3.4501953125,3.63671875v7.5205078125c0,2.3134765625-1.21875,3.6357421875-3.4501953125,3.6357421875s-3.4501953125-1.322265625-3.4501953125-3.6357421875v-7.5205078125ZM182.0454101562,39.1201171875c0,1.033203125.4545898438,1.42578125,1.177734375,1.42578125s1.177734375-.392578125,1.177734375-1.42578125v-7.8095703125c0-1.033203125-.4545898438-1.42578125-1.177734375-1.42578125s-1.177734375.392578125-1.177734375,1.42578125v7.8095703125Z"/>
      <path class="cls-53" d="M196.4038085938,31.9716796875h-.0415039062v10.474609375h-2.0454101562v-14.4619140625h2.8510742188l2.2934570312,8.65625h.0415039062v-8.65625h2.0244140625v14.4619140625h-2.3344726562l-2.7890625-10.474609375Z"/>
      <path class="cls-49" d="M216.7114257812,42.4462890625h-2.2934570312l-.392578125-2.6240234375h-2.7890625l-.392578125,2.6240234375h-2.0869140625l2.3139648438-14.4619140625h3.3266601562l2.3139648438,14.4619140625ZM211.525390625,37.859375h2.1899414062l-1.07421875-7.3134765625h-.041015625l-1.0747070312,7.3134765625Z"/>
      <path class="cls-1" d="M222.5161132812,27.984375h7.0244140625v2.0654296875h-2.3759765625v12.396484375h-2.2729492188v-12.396484375h-2.3754882812v-2.0654296875Z"/>
      <path class="cls-4" d="M239.001953125,34.0791015625h3.1196289062v2.0654296875h-3.1196289062v4.2353515625h3.9252929688v2.06640625h-6.1982421875v-14.4619140625h6.1982421875v2.0654296875h-3.9252929688v4.029296875Z"/>
      <path class="cls-27" d="M259.2680664062,27.984375h7.0249023438v2.0654296875h-2.3759765625v12.396484375h-2.2729492188v-12.396484375h-2.3759765625v-2.0654296875Z"/>
      <path class="cls-13" d="M273.2954101562,31.455078125c0-2.314453125,1.21875-3.63671875,3.4501953125-3.63671875s3.4501953125,1.322265625,3.4501953125,3.63671875v7.5205078125c0,2.3134765625-1.21875,3.6357421875-3.4501953125,3.6357421875s-3.4501953125-1.322265625-3.4501953125-3.6357421875v-7.5205078125ZM275.5678710938,39.1201171875c0,1.033203125.4545898438,1.42578125,1.177734375,1.42578125s1.177734375-.392578125,1.177734375-1.42578125v-7.8095703125c0-1.033203125-.4545898438-1.42578125-1.177734375-1.42578125s-1.177734375.392578125-1.177734375,1.42578125v7.8095703125Z"/>
      <path class="cls-72" d="M291.2690429688,34.388671875h3.181640625v4.5869140625c0,2.3134765625-1.1567382812,3.6357421875-3.3881835938,3.6357421875s-3.3881835938-1.322265625-3.3881835938-3.6357421875v-7.5205078125c0-2.314453125,1.1567382812-3.63671875,3.3881835938-3.63671875s3.3881835938,1.322265625,3.3881835938,3.63671875v1.404296875h-2.1484375v-1.548828125c0-1.033203125-.4545898438-1.42578125-1.177734375-1.42578125s-1.177734375.392578125-1.177734375,1.42578125v7.8095703125c0,1.033203125.4545898438,1.404296875,1.177734375,1.404296875s1.177734375-.37109375,1.177734375-1.404296875v-2.6650390625h-1.033203125v-2.06640625Z"/>
      <path class="cls-54" d="M304.3872070312,34.0791015625h3.1196289062v2.0654296875h-3.1196289062v4.2353515625h3.9252929688v2.06640625h-6.1977539062v-14.4619140625h6.1977539062v2.0654296875h-3.9252929688v4.029296875Z"/>
      <path class="cls-66" d="M315.2534179688,27.984375h7.0249023438v2.0654296875h-2.3759765625v12.396484375h-2.2729492188v-12.396484375h-2.3759765625v-2.0654296875Z"/>
      <path class="cls-23" d="M331.7397460938,42.4462890625h-2.2724609375v-14.4619140625h2.2724609375v6.197265625h2.5825195312v-6.197265625h2.3139648438v14.4619140625h-2.3139648438v-6.1982421875h-2.5825195312v6.1982421875Z"/>
      <path class="cls-16" d="M346.7583007812,34.0791015625h3.1201171875v2.0654296875h-3.1201171875v4.2353515625h3.92578125v2.06640625h-6.1982421875v-14.4619140625h6.1982421875v2.0654296875h-3.92578125v4.029296875Z"/>
      <path class="cls-11" d="M363.0380859375,42.4462890625c-.1240234375-.3720703125-.2060546875-.599609375-.2060546875-1.7763671875v-2.2734375c0-1.3427734375-.455078125-1.8388671875-1.48828125-1.8388671875h-.78515625v5.888671875h-2.2724609375v-14.4619140625h3.4296875c2.35546875,0,3.3681640625,1.0947265625,3.3681640625,3.326171875v1.1357421875c0,1.48828125-.4755859375,2.4384765625-1.48828125,2.9130859375v.0419921875c1.13671875.474609375,1.5087890625,1.548828125,1.5087890625,3.0576171875v2.2314453125c0,.7021484375.0205078125,1.21875.248046875,1.755859375h-2.314453125ZM360.55859375,30.0498046875v4.4423828125h.888671875c.84765625,0,1.36328125-.3720703125,1.36328125-1.529296875v-1.42578125c0-1.0322265625-.3505859375-1.4873046875-1.15625-1.4873046875h-1.095703125Z"/>
      <path class="cls-20" d="M372.7890625,42.4462890625v-2.1904296875h2.1904296875v1.962890625l-.9921875,2.2939453125h-.9296875l.599609375-2.06640625h-.8681640625Z"/>
      <path class="cls-73" d="M399.583984375,42.4462890625h-2.29296875l-.392578125-2.6240234375h-2.7900390625l-.3916015625,2.6240234375h-2.0869140625l2.3134765625-14.4619140625h3.326171875l2.314453125,14.4619140625ZM394.3984375,37.859375h2.189453125l-1.07421875-7.3134765625h-.041015625l-1.07421875,7.3134765625Z"/>
      <path class="cls-41" d="M418.30078125,31.9716796875h-.041015625v10.474609375h-2.0458984375v-14.4619140625h2.8515625l2.29296875,8.65625h.041015625v-8.65625h2.025390625v14.4619140625h-2.3349609375l-2.7890625-10.474609375Z"/>
      <path class="cls-59" d="M433.525390625,34.0791015625h3.1201171875v2.0654296875h-3.1201171875v4.2353515625h3.92578125v2.06640625h-6.1982421875v-14.4619140625h6.1982421875v2.0654296875h-3.92578125v4.029296875Z"/>
      <path class="cls-8" d="M450.1162109375,34.740234375h-.0419921875l-.8056640625,7.7060546875h-3.119140625l-1.6123046875-14.4619140625h2.2109375l1.1982421875,11.404296875h.041015625l1.0751953125-11.404296875h2.189453125l1.1162109375,11.486328125h.041015625l1.1572265625-11.486328125h1.9833984375l-1.6123046875,14.4619140625h-3.015625l-.8056640625-7.7060546875Z"/>
      <path class="cls-30" d="M474.5537109375,34.0791015625h3.1201171875v2.0654296875h-3.1201171875v4.2353515625h3.92578125v2.06640625h-6.1982421875v-14.4619140625h6.1982421875v2.0654296875h-3.92578125v4.029296875Z"/>
      <path class="cls-44" d="M493.6650390625,27.984375l-2.3759765625,7.0244140625,2.541015625,7.4375h-2.396484375l-1.8388671875-5.72265625h-.0419921875l-1.859375,5.72265625h-2.1279296875l2.5419921875-7.4375-2.3759765625-7.0244140625h2.3544921875l1.6943359375,5.330078125h.0419921875l1.7353515625-5.330078125h2.107421875Z"/>
      <path class="cls-31" d="M507.8984375,31.55859375v1.8798828125c0,2.3134765625-1.115234375,3.57421875-3.3876953125,3.57421875h-1.0751953125v5.43359375h-2.2724609375v-14.4619140625h3.34765625c2.2724609375,0,3.3876953125,1.259765625,3.3876953125,3.57421875ZM503.435546875,30.0498046875v4.896484375h1.0751953125c.72265625,0,1.115234375-.330078125,1.115234375-1.36328125v-2.1689453125c0-1.033203125-.392578125-1.3642578125-1.115234375-1.3642578125h-1.0751953125Z"/>
      <path class="cls-65" d="M517.4208984375,34.0791015625h3.1201171875v2.0654296875h-3.1201171875v4.2353515625h3.92578125v2.06640625h-6.1982421875v-14.4619140625h6.1982421875v2.0654296875h-3.92578125v4.029296875Z"/>
      <path class="cls-50" d="M533.701171875,42.4462890625c-.1240234375-.3720703125-.2060546875-.599609375-.2060546875-1.7763671875v-2.2734375c0-1.3427734375-.455078125-1.8388671875-1.48828125-1.8388671875h-.78515625v5.888671875h-2.2724609375v-14.4619140625h3.4296875c2.35546875,0,3.3681640625,1.0947265625,3.3681640625,3.326171875v1.1357421875c0,1.48828125-.4755859375,2.4384765625-1.48828125,2.9130859375v.0419921875c1.13671875.474609375,1.5087890625,1.548828125,1.5087890625,3.0576171875v2.2314453125c0,.7021484375.0205078125,1.21875.248046875,1.755859375h-2.314453125ZM531.2216796875,30.0498046875v4.4423828125h.888671875c.84765625,0,1.36328125-.3720703125,1.36328125-1.529296875v-1.42578125c0-1.0322265625-.3505859375-1.4873046875-1.15625-1.4873046875h-1.095703125Z"/>
      <path class="cls-5" d="M543.451171875,27.984375h2.2724609375v14.4619140625h-2.2724609375v-14.4619140625Z"/>
      <path class="cls-56" d="M555.8466796875,34.0791015625h3.1201171875v2.0654296875h-3.1201171875v4.2353515625h3.92578125v2.06640625h-6.1982421875v-14.4619140625h6.1982421875v2.0654296875h-3.92578125v4.029296875Z"/>
      <path class="cls-25" d="M569.4404296875,31.9716796875h-.041015625v10.474609375h-2.0458984375v-14.4619140625h2.8515625l2.29296875,8.65625h.041015625v-8.65625h2.025390625v14.4619140625h-2.3349609375l-2.7890625-10.474609375Z"/>
      <path class="cls-82" d="M588.984375,37.0537109375v1.921875c0,2.3134765625-1.1572265625,3.6357421875-3.388671875,3.6357421875-2.23046875,0-3.3876953125-1.322265625-3.3876953125-3.6357421875v-7.5205078125c0-2.314453125,1.1572265625-3.63671875,3.3876953125-3.63671875,2.2314453125,0,3.388671875,1.322265625,3.388671875,3.63671875v1.404296875h-2.1484375v-1.548828125c0-1.033203125-.455078125-1.42578125-1.177734375-1.42578125-.7236328125,0-1.177734375.392578125-1.177734375,1.42578125v7.8095703125c0,1.033203125.4541015625,1.404296875,1.177734375,1.404296875.72265625,0,1.177734375-.37109375,1.177734375-1.404296875v-2.06640625h2.1484375Z"/>
      <path class="cls-22" d="M598.837890625,34.0791015625h3.1201171875v2.0654296875h-3.1201171875v4.2353515625h3.92578125v2.06640625h-6.1982421875v-14.4619140625h6.1982421875v2.0654296875h-3.92578125v4.029296875Z"/>
      <path class="cls-18" d="M626.5625,31.310546875v.5166015625c0,1.4873046875-.455078125,2.4169921875-1.466796875,2.892578125v.041015625c1.21875.474609375,1.693359375,1.5498046875,1.693359375,3.078125v1.177734375c0,2.2314453125-1.177734375,3.4296875-3.4501953125,3.4296875h-3.57421875v-14.4619140625h3.4296875c2.35546875,0,3.3681640625,1.0947265625,3.3681640625,3.326171875ZM622.037109375,30.0498046875v3.822265625h.888671875c.84765625,0,1.36328125-.3720703125,1.36328125-1.5283203125v-.806640625c0-1.0322265625-.3505859375-1.4873046875-1.15625-1.4873046875h-1.095703125ZM622.037109375,35.9384765625v4.44140625h1.3017578125c.7646484375,0,1.177734375-.3505859375,1.177734375-1.4248046875v-1.2607421875c0-1.3427734375-.43359375-1.755859375-1.466796875-1.755859375h-1.0126953125Z"/>
      <path class="cls-43" d="M636.623046875,34.0791015625h3.1201171875v2.0654296875h-3.1201171875v4.2353515625h3.92578125v2.06640625h-6.1982421875v-14.4619140625h6.1982421875v2.0654296875h-3.92578125v4.029296875Z"/>
      <path class="cls-32" d="M651.5595703125,34.388671875h3.181640625v4.5869140625c0,2.3134765625-1.1572265625,3.6357421875-3.388671875,3.6357421875-2.23046875,0-3.3876953125-1.322265625-3.3876953125-3.6357421875v-7.5205078125c0-2.314453125,1.1572265625-3.63671875,3.3876953125-3.63671875,2.2314453125,0,3.388671875,1.322265625,3.388671875,3.63671875v1.404296875h-2.1484375v-1.548828125c0-1.033203125-.455078125-1.42578125-1.177734375-1.42578125-.7236328125,0-1.177734375.392578125-1.177734375,1.42578125v7.8095703125c0,1.033203125.4541015625,1.404296875,1.177734375,1.404296875.72265625,0,1.177734375-.37109375,1.177734375-1.404296875v-2.6650390625h-1.033203125v-2.06640625Z"/>
      <path class="cls-15" d="M662.4052734375,27.984375h2.2724609375v14.4619140625h-2.2724609375v-14.4619140625Z"/>
      <path class="cls-3" d="M674.59375,31.9716796875h-.041015625v10.474609375h-2.0458984375v-14.4619140625h2.8515625l2.29296875,8.65625h.041015625v-8.65625h2.025390625v14.4619140625h-2.3349609375l-2.7890625-10.474609375Z"/>
      <path class="cls-67" d="M690.6044921875,27.818359375c2.2109375,0,3.34765625,1.322265625,3.34765625,3.63671875v.4541015625h-2.1494140625v-.5986328125c0-1.033203125-.4130859375-1.42578125-1.1357421875-1.42578125-.7236328125,0-1.13671875.392578125-1.13671875,1.42578125,0,1.0537109375.455078125,1.8388671875,1.9423828125,3.140625,1.900390625,1.6728515625,2.5,2.87109375,2.5,4.5244140625,0,2.3134765625-1.1572265625,3.6357421875-3.388671875,3.6357421875s-3.3876953125-1.322265625-3.3876953125-3.6357421875v-.888671875h2.1484375v1.033203125c0,1.033203125.4541015625,1.404296875,1.177734375,1.404296875.72265625,0,1.177734375-.37109375,1.177734375-1.404296875,0-1.0537109375-.455078125-1.8388671875-1.9423828125-3.140625-1.900390625-1.673828125-2.5-2.8720703125-2.5-4.5244140625,0-2.314453125,1.13671875-3.63671875,3.3466796875-3.63671875Z"/>
      <path class="cls-42" d="M703.5576171875,40.255859375v2.1904296875h-2.1904296875v-2.1904296875h2.1904296875Z"/>
    </g>
    <g>
      <path class="cls-17" d="M86.9887118602,10.37890625l1.5483398438-10.21484375h3.1586914062v14.3876953125h-2.1469726562V4.2333984375l-1.5693359375,10.318359375h-2.1469726562l-1.6928710938-10.173828125v10.173828125h-1.9819335938V.1640625h3.1586914062l1.6723632812,10.21484375Z"/>
      <path class="cls-2" d="M101.7055087352.1640625v11.0986328125c0,1.048828125.4541015625,1.3984375,1.1767578125,1.3984375s1.1767578125-.349609375,1.1767578125-1.3984375V.1640625h2.1469726562v10.955078125c0,2.322265625-1.15625,3.6171875-3.3857421875,3.6171875s-3.3857421875-1.294921875-3.3857421875-3.6171875V.1640625h2.2709960938Z"/>
      <path class="cls-21" d="M117.0014071727,0c2.2294921875,0,3.3442382812,1.294921875,3.3442382812,3.6171875v.4521484375h-2.1469726562v-.595703125c0-1.048828125-.4125976562-1.41796875-1.1352539062-1.41796875s-1.1357421875.369140625-1.1357421875,1.41796875c0,.986328125.4956054688,1.7060546875,1.15625,2.36328125.3305664062.349609375.6811523438.6787109375,1.0737304688,1.0068359375.7431640625.6787109375,1.4448242188,1.4599609375,1.8784179688,2.466796875.2270507812.513671875.3305664062,1.1103515625.3305664062,1.7880859375,0,2.322265625-1.15625,3.6171875-3.3857421875,3.6171875-2.2299804688,0-3.3862304688-1.294921875-3.3862304688-3.6171875v-.8837890625h2.1474609375v1.02734375c0,1.048828125.4541015625,1.3984375,1.1767578125,1.3984375s1.1767578125-.349609375,1.1767578125-1.3984375c0-.986328125-.4956054688-1.705078125-1.15625-2.3837890625-.330078125-.3291015625-.6811523438-.6572265625-1.052734375-1.0068359375-.7641601562-.658203125-1.4658203125-1.439453125-1.8994140625-2.4462890625-.2270507812-.513671875-.3305664062-1.109375-.3305664062-1.7880859375,0-2.322265625,1.115234375-3.6171875,3.3447265625-3.6171875Z"/>
      <path class="cls-47" d="M127.8578524852.1640625h2.2709960938v14.3876953125h-2.2709960938V.1640625Z"/>
      <path class="cls-74" d="M144.5580477977,9.1875v1.9111328125c0,2.322265625-1.15625,3.6171875-3.3857421875,3.6171875-2.2299804688,0-3.3857421875-1.294921875-3.3857421875-3.6171875V3.6171875c0-2.322265625,1.1557617188-3.6171875,3.3857421875-3.6171875,2.2294921875,0,3.3857421875,1.294921875,3.3857421875,3.6171875v1.3974609375h-2.1469726562v-1.541015625c0-1.048828125-.4541015625-1.41796875-1.1767578125-1.41796875s-1.1767578125.369140625-1.1767578125,1.41796875v7.7685546875c0,1.048828125.4541015625,1.3984375,1.1767578125,1.3984375s1.1767578125-.349609375,1.1767578125-1.3984375v-2.0546875h2.1469726562Z"/>
      <path class="cls-45" d="M163.7953524852,14.5517578125h-2.2709960938V.1640625h2.2709960938v6.166015625h2.5805664062V.1640625h2.3125v14.3876953125h-2.3125v-6.166015625h-2.5805664062v6.166015625Z"/>
      <path class="cls-12" d="M183.8803134227,14.5517578125h-2.2915039062l-.3920898438-2.6103515625h-2.787109375l-.392578125,2.6103515625h-2.0849609375l2.3125-14.3876953125h3.3237304688l2.3120117188,14.3876953125ZM178.6986727977,9.9892578125h2.1884765625l-1.0942382812-7.2763671875-1.0942382812,7.2763671875Z"/>
      <path class="cls-37" d="M194.1801181102,0c2.2294921875,0,3.3442382812,1.294921875,3.3442382812,3.6171875v.4521484375h-2.1469726562v-.595703125c0-1.048828125-.4125976562-1.41796875-1.1352539062-1.41796875s-1.1357421875.369140625-1.1357421875,1.41796875c0,.986328125.4956054688,1.7060546875,1.15625,2.36328125.3305664062.349609375.6811523438.6787109375,1.0737304688,1.0068359375.7431640625.6787109375,1.4448242188,1.4599609375,1.8784179688,2.466796875.2270507812.513671875.3305664062,1.1103515625.3305664062,1.7880859375,0,2.322265625-1.15625,3.6171875-3.3857421875,3.6171875-2.2299804688,0-3.3862304688-1.294921875-3.3862304688-3.6171875v-.8837890625h2.1474609375v1.02734375c0,1.048828125.4541015625,1.3984375,1.1767578125,1.3984375s1.1767578125-.349609375,1.1767578125-1.3984375c0-.986328125-.4956054688-1.705078125-1.15625-2.3837890625-.330078125-.3291015625-.6811523438-.6572265625-1.052734375-1.0068359375-.7641601562-.658203125-1.4658203125-1.439453125-1.8994140625-2.4462890625-.2270507812-.513671875-.3305664062-1.109375-.3305664062-1.7880859375,0-2.322265625,1.115234375-3.6171875,3.3447265625-3.6171875Z"/>
      <path class="cls-28" d="M216.7001376415,6.2275390625h3.1176757812v2.0556640625h-3.1176757812v4.212890625h3.9228515625v2.0556640625h-6.1938476562V.1640625h6.1938476562v2.0556640625h-3.9228515625v4.0078125Z"/>
      <path class="cls-14" d="M233.0282626415,10.37890625l1.5483398438-10.21484375h3.1586914062v14.3876953125h-2.1469726562V4.2333984375l-1.5693359375,10.318359375h-2.1469726562l-1.6928710938-10.173828125v10.173828125h-1.9819335938V.1640625h3.1586914062l1.6723632812,10.21484375Z"/>
      <path class="cls-7" d="M245.3915438915,3.6171875c0-2.322265625,1.2177734375-3.6171875,3.4477539062-3.6171875,2.2294921875,0,3.4477539062,1.294921875,3.4477539062,3.6171875v7.4814453125c0,2.322265625-1.2182617188,3.6171875-3.4477539062,3.6171875-2.2299804688,0-3.4477539062-1.294921875-3.4477539062-3.6171875V3.6171875ZM247.6625399852,11.2421875c0,1.048828125.4541015625,1.4189453125,1.1767578125,1.4189453125s1.1767578125-.3701171875,1.1767578125-1.4189453125V3.4736328125c0-1.048828125-.4541015625-1.41796875-1.1767578125-1.41796875s-1.1767578125.369140625-1.1767578125,1.41796875v7.7685546875Z"/>
      <path class="cls-19" d="M259.283145454.1640625h7.01953125v2.0556640625h-2.3740234375v12.33203125h-2.2709960938V2.2197265625h-2.3745117188V.1640625Z"/>
      <path class="cls-75" d="M273.4848056102.1640625h2.2709960938v14.3876953125h-2.2709960938V.1640625Z"/>
      <path class="cls-6" d="M283.4135165477,3.6171875c0-2.322265625,1.2177734375-3.6171875,3.4477539062-3.6171875,2.2294921875,0,3.4477539062,1.294921875,3.4477539062,3.6171875v7.4814453125c0,2.322265625-1.2182617188,3.6171875-3.4477539062,3.6171875-2.2299804688,0-3.4477539062-1.294921875-3.4477539062-3.6171875V3.6171875ZM285.6845126415,11.2421875c0,1.048828125.4541015625,1.4189453125,1.1767578125,1.4189453125s1.1767578125-.3701171875,1.1767578125-1.4189453125V3.4736328125c0-1.048828125-.4541015625-1.41796875-1.1767578125-1.41796875s-1.1767578125.369140625-1.1767578125,1.41796875v7.7685546875Z"/>
      <path class="cls-80" d="M299.9892001415,4.130859375v10.4208984375h-2.0439453125V.1640625h2.8491210938l2.3330078125,8.6123046875V.1640625h2.0229492188v14.3876953125h-2.3330078125l-2.828125-10.4208984375Z"/>
      <path class="cls-79" d="M316.0277743602,0c2.2294921875,0,3.3442382812,1.294921875,3.3442382812,3.6171875v.4521484375h-2.1469726562v-.595703125c0-1.048828125-.4125976562-1.41796875-1.1352539062-1.41796875s-1.1357421875.369140625-1.1357421875,1.41796875c0,.986328125.4956054688,1.7060546875,1.15625,2.36328125.3305664062.349609375.6811523438.6787109375,1.0737304688,1.0068359375.7431640625.6787109375,1.4448242188,1.4599609375,1.8784179688,2.466796875.2270507812.513671875.3305664062,1.1103515625.3305664062,1.7880859375,0,2.322265625-1.15625,3.6171875-3.3857421875,3.6171875-2.2299804688,0-3.3862304688-1.294921875-3.3862304688-3.6171875v-.8837890625h2.1474609375v1.02734375c0,1.048828125.4541015625,1.3984375,1.1767578125,1.3984375s1.1767578125-.349609375,1.1767578125-1.3984375c0-.986328125-.4956054688-1.705078125-1.15625-2.3837890625-.330078125-.3291015625-.6811523438-.6572265625-1.052734375-1.0068359375-.7641601562-.658203125-1.4658203125-1.439453125-1.8994140625-2.4462890625-.2270507812-.513671875-.3305664062-1.109375-.3305664062-1.7880859375,0-2.322265625,1.115234375-3.6171875,3.3447265625-3.6171875Z"/>
      <path class="cls-52" d="M328.9696688915,12.373046875v2.1787109375h-2.1884765625v-2.1787109375h2.1884765625Z"/>
      <path class="cls-48" d="M348.4760165477,6.2275390625h3.1176757812v2.0556640625h-3.1176757812v4.212890625h3.9228515625v2.0556640625h-6.1938476562V.1640625h6.1938476562v2.0556640625h-3.9228515625v4.0078125Z"/>
      <path class="cls-29" d="M364.804629829,10.37890625l1.548828125-10.21484375h3.158203125v14.3876953125h-2.146484375V4.2333984375l-1.5693359375,10.318359375h-2.1474609375l-1.6923828125-10.173828125v10.173828125h-1.982421875V.1640625h3.1591796875l1.671875,10.21484375Z"/>
      <path class="cls-26" d="M377.167911079,3.6171875c0-2.322265625,1.2177734375-3.6171875,3.4482421875-3.6171875,2.2294921875,0,3.447265625,1.294921875,3.447265625,3.6171875v7.4814453125c0,2.322265625-1.2177734375,3.6171875-3.447265625,3.6171875-2.23046875,0-3.4482421875-1.294921875-3.4482421875-3.6171875V3.6171875ZM379.439395454,11.2421875c0,1.048828125.4541015625,1.4189453125,1.1767578125,1.4189453125s1.1767578125-.3701171875,1.1767578125-1.4189453125V3.4736328125c0-1.048828125-.4541015625-1.41796875-1.1767578125-1.41796875s-1.1767578125.369140625-1.1767578125,1.41796875v7.7685546875Z"/>
      <path class="cls-34" d="M391.0595126415.1640625h7.01953125v2.0556640625h-2.3740234375v12.33203125h-2.2705078125V2.2197265625h-2.375V.1640625Z"/>
      <path class="cls-33" d="M405.2606845165.1640625h2.271484375v14.3876953125h-2.271484375V.1640625Z"/>
      <path class="cls-69" d="M415.189395454,3.6171875c0-2.322265625,1.2177734375-3.6171875,3.4482421875-3.6171875,2.2294921875,0,3.447265625,1.294921875,3.447265625,3.6171875v7.4814453125c0,2.322265625-1.2177734375,3.6171875-3.447265625,3.6171875-2.23046875,0-3.4482421875-1.294921875-3.4482421875-3.6171875V3.6171875ZM417.460879829,11.2421875c0,1.048828125.4541015625,1.4189453125,1.1767578125,1.4189453125s1.1767578125-.3701171875,1.1767578125-1.4189453125V3.4736328125c0-1.048828125-.4541015625-1.41796875-1.1767578125-1.41796875s-1.1767578125.369140625-1.1767578125,1.41796875v7.7685546875Z"/>
      <path class="cls-40" d="M431.765567329,4.130859375v10.4208984375h-2.0439453125V.1640625h2.8486328125l2.3330078125,8.6123046875V.1640625h2.0234375v14.3876953125h-2.3330078125l-2.828125-10.4208984375Z"/>
      <path class="cls-61" d="M447.8036532665,0c2.2294921875,0,3.3447265625,1.294921875,3.3447265625,3.6171875v.4521484375h-2.1474609375v-.595703125c0-1.048828125-.412109375-1.41796875-1.134765625-1.41796875s-1.1357421875.369140625-1.1357421875,1.41796875c0,.986328125.4951171875,1.7060546875,1.15625,2.36328125.330078125.349609375.6806640625.6787109375,1.0732421875,1.0068359375.7431640625.6787109375,1.4453125,1.4599609375,1.87890625,2.466796875.2265625.513671875.330078125,1.1103515625.330078125,1.7880859375,0,2.322265625-1.15625,3.6171875-3.3857421875,3.6171875s-3.3857421875-1.294921875-3.3857421875-3.6171875v-.8837890625h2.1474609375v1.02734375c0,1.048828125.4541015625,1.3984375,1.1767578125,1.3984375s1.1767578125-.349609375,1.1767578125-1.3984375c0-.986328125-.49609375-1.705078125-1.15625-2.3837890625-.330078125-.3291015625-.681640625-.6572265625-1.052734375-1.0068359375-.7646484375-.658203125-1.4658203125-1.439453125-1.8994140625-2.4462890625-.2275390625-.513671875-.3310546875-1.109375-.3310546875-1.7880859375,0-2.322265625,1.115234375-3.6171875,3.3447265625-3.6171875Z"/>
      <path class="cls-35" d="M470.324161079,14.5517578125h-2.271484375V.1640625h2.271484375v6.166015625h2.580078125V.1640625h2.3125v14.3876953125h-2.3125v-6.166015625h-2.580078125v6.166015625Z"/>
      <path class="cls-36" d="M490.4091220165,14.5517578125h-2.2919921875l-.3916015625-2.6103515625h-2.787109375l-.392578125,2.6103515625h-2.0849609375l2.3125-14.3876953125h3.3232421875l2.3125,14.3876953125ZM485.2274813915,9.9892578125h2.1884765625l-1.0947265625-7.2763671875-1.09375,7.2763671875Z"/>
      <path class="cls-62" d="M500.564395454,11.900390625l1.734375-11.736328125h2.0849609375l-2.2294921875,14.3876953125h-3.3857421875l-2.2294921875-14.3876953125h2.291015625l1.734375,11.736328125Z"/>
      <path class="cls-71" d="M513.898379829,6.2275390625h3.1171875v2.0556640625h-3.1171875v4.212890625h3.9228515625v2.0556640625h-6.193359375V.1640625h6.193359375v2.0556640625h-3.9228515625v4.0078125Z"/>
      <path class="cls-39" d="M541.3934970165,9.1875v1.9111328125c0,2.322265625-1.1552734375,3.6171875-3.3857421875,3.6171875-2.2294921875,0-3.3857421875-1.294921875-3.3857421875-3.6171875V3.6171875c0-2.322265625,1.15625-3.6171875,3.3857421875-3.6171875,2.23046875,0,3.3857421875,1.294921875,3.3857421875,3.6171875v1.3974609375h-2.146484375v-1.541015625c0-1.048828125-.4541015625-1.41796875-1.1767578125-1.41796875s-1.1767578125.369140625-1.1767578125,1.41796875v7.7685546875c0,1.048828125.4541015625,1.3984375,1.1767578125,1.3984375s1.1767578125-.349609375,1.1767578125-1.3984375v-2.0546875h2.146484375Z"/>
      <path class="cls-78" d="M548.7821688915,3.6171875c0-2.322265625,1.21875-3.6171875,3.4482421875-3.6171875s3.447265625,1.294921875,3.447265625,3.6171875v7.4814453125c0,2.322265625-1.2177734375,3.6171875-3.447265625,3.6171875s-3.4482421875-1.294921875-3.4482421875-3.6171875V3.6171875ZM551.0536532665,11.2421875c0,1.048828125.4541015625,1.4189453125,1.1767578125,1.4189453125s1.1767578125-.3701171875,1.1767578125-1.4189453125V3.4736328125c0-1.048828125-.4541015625-1.41796875-1.1767578125-1.41796875s-1.1767578125.369140625-1.1767578125,1.41796875v7.7685546875Z"/>
      <path class="cls-63" d="M563.335879829.1640625h2.2705078125v12.33203125h3.7373046875v2.0556640625h-6.0078125V.1640625Z"/>
      <path class="cls-24" d="M576.3388095165,3.6171875c0-2.322265625,1.21875-3.6171875,3.4482421875-3.6171875s3.447265625,1.294921875,3.447265625,3.6171875v7.4814453125c0,2.322265625-1.2177734375,3.6171875-3.447265625,3.6171875s-3.4482421875-1.294921875-3.4482421875-3.6171875V3.6171875ZM578.6102938915,11.2421875c0,1.048828125.4541015625,1.4189453125,1.1767578125,1.4189453125s1.1767578125-.3701171875,1.1767578125-1.4189453125V3.4736328125c0-1.048828125-.4541015625-1.41796875-1.1767578125-1.41796875s-1.1767578125.369140625-1.1767578125,1.41796875v7.7685546875Z"/>
      <path class="cls-58" d="M595.640567329,14.5517578125c-.0205078125-.1025390625-.0615234375-.1845703125-.0830078125-.267578125-.0615234375-.1640625-.1025390625-.390625-.1025390625-.7802734375-.0205078125-.185546875-.0205078125-.431640625-.0205078125-.7197265625v-2.2607421875c0-1.3359375-.43359375-1.8291015625-1.4873046875-1.8291015625h-.7841796875v5.857421875h-2.2705078125V.1640625h3.4267578125c2.3740234375,0,3.365234375,1.08984375,3.365234375,3.3095703125v1.1298828125c0,1.48046875-.4951171875,2.4462890625-1.486328125,2.9189453125,1.15625.47265625,1.5068359375,1.5625,1.5068359375,3.0625v2.2197265625c0,.7197265625.0205078125,1.1923828125.248046875,1.7470703125h-2.3125ZM593.1630282665,2.2197265625v4.4189453125h.8876953125c.8466796875,0,1.3623046875-.3701171875,1.3623046875-1.521484375v-1.41796875c0-1.0478515625-.3505859375-1.4794921875-1.1552734375-1.4794921875h-1.0947265625Z"/>
      <path class="cls-38" d="M608.437442329,0c2.23046875,0,3.3447265625,1.294921875,3.3447265625,3.6171875v.4521484375h-2.146484375v-.595703125c0-1.048828125-.4130859375-1.41796875-1.1357421875-1.41796875s-1.1357421875.369140625-1.1357421875,1.41796875c0,.986328125.4951171875,1.7060546875,1.15625,2.36328125.330078125.349609375.681640625.6787109375,1.0732421875,1.0068359375.7431640625.6787109375,1.4453125,1.4599609375,1.87890625,2.466796875.2275390625.513671875.330078125,1.1103515625.330078125,1.7880859375,0,2.322265625-1.1562671735,3.6171875-3.3857421875,3.6171875-2.2294921875,0-3.3857421875-1.294921875-3.3857421875-3.6171875v-.8837890625h2.1474609375v1.02734375c0,1.048828125.4541015625,1.3984375,1.1767578125,1.3984375s1.1767578125-.349609375,1.1767578125-1.3984375c0-.986328125-.4951171875-1.705078125-1.15625-2.3837890625-.330078125-.3291015625-.681640625-.6572265625-1.052734375-1.0068359375-.763671875-.658203125-1.4658203125-1.439453125-1.8994140625-2.4462890625-.2275390625-.513671875-.330078125-1.109375-.330078125-1.7880859375,0-2.322265625,1.1142578125-3.6171875,3.34375-3.6171875Z"/>
      <path class="cls-68" d="M621.380801704,12.373046875v2.1787109375h-2.1884765625v-2.1787109375h2.1884765625Z"/>
    </g>
  </g>
</svg>