<?xml version="1.0" encoding="UTF-8"?>
<svg id="Layer_2" data-name="Layer 2" xmlns="http://www.w3.org/2000/svg" xmlns:xlink="http://www.w3.org/1999/xlink" viewBox="0 0 707.2299212598 328.0533551363">
  <defs>
    <style>
      .cls-1 {
        fill: url(#Degradado_sin_nombre_5);
      }

      .cls-2 {
        fill: #fff;
      }

      .cls-3 {
        filter: url(#drop-shadow-1);
      }

      .cls-4 {
        fill: url(#Degradado_sin_nombre_5-3);
      }

      .cls-5 {
        fill: url(#Degradado_sin_nombre_5-2);
        filter: url(#outer-glow-2);
      }

      .cls-6 {
        filter: url(#outer-glow-3);
      }

      .cls-7 {
        filter: url(#outer-glow-4);
      }
    </style>
    <filter id="drop-shadow-1" x="-8.1699212598" y="284.4614648437" width="737.52" height="65.76" filterUnits="userSpaceOnUse">
      <feOffset dx="7" dy="7"/>
      <feGaussianBlur result="blur" stdDeviation="5"/>
      <feFlood flood-color="#792a90" flood-opacity=".75"/>
      <feComposite in2="blur" operator="in"/>
      <feComposite in="SourceGraphic"/>
    </filter>
    <linearGradient id="Degradado_sin_nombre_5" data-name="Degradado sin nombre 5" x1="140.8152755906" y1="249.683653229" x2="566.4146456693" y2="249.683653229" gradientUnits="userSpaceOnUse">
      <stop offset=".327493" stop-color="#b167aa"/>
      <stop offset=".732709" stop-color="#5253a3"/>
      <stop offset=".73966" stop-color="#5153a3"/>
      <stop offset=".893957" stop-color="#4d52a3"/>
    </linearGradient>
    <linearGradient id="Degradado_sin_nombre_5-2" data-name="Degradado sin nombre 5" x1="106.0699363815" y1="189.071289505" x2="263.7529056504" y2="189.071289505" xlink:href="#Degradado_sin_nombre_5"/>
    <filter id="outer-glow-2" x="90.9500787402" y="173.8214648437" width="187.92" height="30.48" filterUnits="userSpaceOnUse">
      <feOffset dx="0" dy="0"/>
      <feGaussianBlur result="blur-2" stdDeviation="5"/>
      <feFlood flood-color="#756cb1" flood-opacity=".75"/>
      <feComposite in2="blur-2" operator="in"/>
      <feComposite in="SourceGraphic"/>
    </filter>
    <linearGradient id="Degradado_sin_nombre_5-3" data-name="Degradado sin nombre 5" x1="443.4770156094" y1="189.071289505" x2="601.1599848783" y2="189.071289505" xlink:href="#Degradado_sin_nombre_5"/>
    <filter id="outer-glow-3" x="261.8300787402" y="155.8214648437" width="183.6" height="66.48" filterUnits="userSpaceOnUse">
      <feOffset dx="0" dy="0"/>
      <feGaussianBlur result="blur-3" stdDeviation="5"/>
      <feFlood flood-color="#756cb1" flood-opacity=".75"/>
      <feComposite in2="blur-3" operator="in"/>
      <feComposite in="SourceGraphic"/>
    </filter>
    <filter id="outer-glow-4" x="90.9500787402" y="38.9414648437" width="525.36" height="119.04" filterUnits="userSpaceOnUse">
      <feOffset dx="0" dy="0"/>
      <feGaussianBlur result="blur-4" stdDeviation="5"/>
      <feFlood flood-color="#756cb1" flood-opacity=".75"/>
      <feComposite in2="blur-4" operator="in"/>
      <feComposite in="SourceGraphic"/>
    </filter>
  </defs>
  <g id="Layer_1-2" data-name="Layer 1">
    <g class="cls-3">
      <path class="cls-2" d="M14.0148463936,293.1814319697l4.5555572211,34.5749543947h-6.8829588656l-.5450398818-5.0387324414h-4.3578785774l-.4954168478,5.0387324414H0l4.5563707134-34.5749543947h9.4584756802ZM8.9638723248,301.5776965918l-1.5358735774,15.1145745439h3.1197432041l-1.5838696267-15.1145745439Z"/>
      <path class="cls-2" d="M28.4746731087,327.7563863644h-6.9325818996v-28.4002758313h-4.2090094753v-6.1746785634h15.3514143426v6.1746785634h-4.2098229677v28.4002758313Z"/>
      <path class="cls-2" d="M34.4164213127,293.1814319697h12.875143596v6.1746785634h-5.9425616964v7.7536436731h5.6952600187v6.1746785634h-5.6952600187v8.2972750315h6.0418077644v6.1746785634h-12.974389664v-34.5749543947Z"/>
      <path class="cls-2" d="M49.6189665533,293.1814319697h12.875143596v6.1746785634h-5.9425616964v7.7536436731h5.6952600187v6.1746785634h-5.6952600187v8.2972750315h6.0418077644v6.1746785634h-12.974389664v-34.5749543947Z"/>
      <path class="cls-2" d="M71.7036571671,299.3561105331h-7.0814510017v-6.1746785634h13.7171081895v7.1629516896l-7.3287526794,21.2373241417h7.3287526794v6.1746785634h-13.9644098673v-7.1613289094l7.3287526794-21.2389469219Z"/>
      <path class="cls-2" d="M93.1448753234,308.839637872v7.6059706772h-6.4371650518v-7.6059706772h6.4371650518Z"/>
      <path class="cls-2" d="M101.8093824593,298.3678374069v-5.6797306102h6.7349032559v5.6797306102h-6.7349032559ZM101.9086285274,327.7563863644v-27.6602880718h6.5364111199v27.6602880718h-6.5364111199Z"/>
      <path class="cls-2" d="M128.600126381,327.7563863644h-7.3295661717l-3.5159139838-16.3495102566v16.3495102566h-6.9325818996v-34.5749543947h6.9325818996v16.250520666l3.8624617296-16.250520666h7.1806970697l-4.5555572211,16.9905084255,4.3578785774,17.5844459693Z"/>
      <path class="cls-2" d="M146.9224148256,321.6320139864c0,4.2808940999-2.1468063404,6.4213411499-6.4379785442,6.4213411499h-4.456311153c-4.2919856961,0-6.4379785442-2.14044705-6.4379785442-6.4213411499v-22.3262096387c0-4.2792713198,2.1459928481-6.4197183697,6.4379785442-6.4197183697h4.456311153c4.2911722038,0,6.4379785442,2.14044705,6.4379785442,6.4197183697v22.3262096387ZM139.989832926,300.0474148874c0-.8227495484-.4132541193-1.2349357127-1.2381353733-1.2349357127h-.9908336956c-.8256947463,0-1.2381353733.4121861643-1.2381353733,1.2349357127v20.8429885594c0,.8243723286.412440627,1.2349357127,1.2381353733,1.2349357127h.9908336956c.824881254,0,1.2381353733-.4105633841,1.2381353733-1.2349357127v-20.8429885594Z"/>
      <path class="cls-2" d="M160.3922213374,310.3699195764l-.148869102-17.1884876067h5.9921847304v34.5749543947h-6.7349032559l-4.3578785774-18.7690754966.148869102,18.7690754966h-5.9921847304v-34.5749543947h7.0814510017l4.0113308316,17.1884876067Z"/>
      <path class="cls-2" d="M181.5357012896,308.839637872v7.6059706772h-6.4371650518v-7.6059706772h6.4371650518Z"/>
      <path class="cls-2" d="M204.1654317852,309.826288218c1.0559130845.7578383414,1.7823617627,1.5319044846,2.1785325425,2.3221984295s.5946629158,1.8272504763.5946629158,3.1108695942v6.3726577447c0,4.2808940999-2.1468063404,6.4213411499-6.4379785442,6.4213411499h-3.8624617296c-4.2919856961,0-6.4379785442-2.14044705-6.4379785442-6.4213411499v-7.3593080907h6.7845262899v6.7166871416c0,.8243723286.412440627,1.2349357127,1.2381353733,1.2349357127h.6434724575c.824881254,0,1.2381353733-.4105633841,1.2381353733-1.2349357127v-4.1494489058c0-.9201163589-.3961707798-1.6617268985-1.1885123393-2.2215860587l-5.9425616964-4.3961114923c-1.0567265768-.7578383414-1.7823617627-1.5383956053-2.1785325425-2.3465401321-.3961707798-.8065217467-.5946629158-1.8353643772-.5946629158-3.0865278916v-5.4833742091c0-4.2792713198,2.1459928481-6.4197183697,6.4379785442-6.4197183697h3.7632156615c4.2911722038,0,6.4379785442,2.14044705,6.4379785442,6.4197183697v6.3223515593h-6.7845262899v-5.6797306102c0-.8227495484-.4132541193-1.2349357127-1.2381353733-1.2349357127h-.5442263894c-.8256947463,0-1.2381353733.4121861643-1.2381353733,1.2349357127v3.2601653703c0,.921739139.3961707798,1.6633496787,1.1885123393,2.2232088389l5.9425616964,4.3944887121Z"/>
      <path class="cls-2" d="M219.1702983821,327.7563863644h-6.9325818996v-28.4002758313h-4.2090094753v-6.1746785634h15.3514143426v6.1746785634h-4.2098229677v28.4002758313Z"/>
      <path class="cls-2" d="M236.1560188777,293.1814319697l4.5555572211,34.5749543947h-6.8829588656l-.5450398818-5.0387324414h-4.3578785774l-.4954168478,5.0387324414h-6.2891094421l4.5563707134-34.5749543947h9.4584756802ZM231.1050448089,301.5776965918l-1.5358735774,15.1145745439h3.1197432041l-1.5838696267-15.1145745439Z"/>
      <path class="cls-2" d="M248.634991694,304.8881681475l2.4762707466-11.7067361778h6.5860341539l-5.8433156284,22.2759034533v12.2990509414h-6.933395392v-11.8041029882l-5.8433156284-22.7708514065h7.2303201037l2.3274016445,11.7067361778Z"/>
      <path class="cls-2" d="M268.7404553937,312.4941388247h6.8333358316v9.1378751618c0,4.2808940999-2.1459928481,6.4213411499-6.4371650518,6.4213411499h-4.2586325093c-4.2919856961,0-6.4379785442-2.14044705-6.4379785442-6.4213411499v-22.3262096387c0-4.2792713198,2.1459928481-6.4197183697,6.4379785442-6.4197183697h4.1593864413c4.2911722038,0,6.4379785442,2.14044705,6.4379785442,6.4197183697v8.1009186304h-6.8341493239v-7.3593080907c0-.8227495484-.4132541193-1.2349357127-1.2381353733-1.2349357127h-.7923415595c-.8256947463,0-1.2381353733.4121861643-1.2381353733,1.2349357127v20.8429885594c0,.8243723286.412440627,1.2349357127,1.2381353733,1.2349357127h.8915876275c.824881254,0,1.2381353733-.4105633841,1.2381353733-1.2349357127v-8.3962646221Z"/>
      <path class="cls-2" d="M290.7258999394,308.839637872v7.6059706772h-6.4371650518v-7.6059706772h6.4371650518Z"/>
      <path class="cls-2" d="M309.5916012811,293.1814319697l2.0304769328,20.8932947448,2.0800999668-20.8932947448h10.0523251037v34.5749543947h-6.8333358316v-22.6718618159l-2.6251398486,22.6718618159h-6.5364111199l-2.6243263563-22.9185244024v22.9185244024h-5.5463909166v-34.5749543947h10.0027020697Z"/>
      <path class="cls-2" d="M339.2547867291,293.1814319697l4.5555572211,34.5749543947h-6.8829588656l-.5450398818-5.0387324414h-4.3578785774l-.4954168478,5.0387324414h-6.2891094421l4.5563707134-34.5749543947h9.4584756802ZM334.2038126602,301.5776965918l-1.5358735774,15.1145745439h3.1197432041l-1.5838696267-15.1145745439Z"/>
      <path class="cls-2" d="M345.2957810011,327.7563863644v-34.5749543947h9.7554003919c4.9525414932,0,7.4288122398,2.4698714254,7.4288122398,7.4096142761v19.7557258426c0,4.9397428507-2.4762707466,7.4096142761-7.4288122398,7.4096142761h-9.7554003919ZM352.2283629008,299.1094479466v22.7205452211h1.3870044753c1.2869449149,0,1.9312308648-.642620949,1.9312308648-1.926240067v-18.8680650872c0-1.2852418981-.6442859498-1.926240067-1.9312308648-1.926240067h-1.3870044753Z"/>
      <path class="cls-2" d="M364.8553913267,293.1814319697h12.8759570884v6.1746785634h-5.9433751888v7.7536436731h5.6944465263v6.1746785634h-5.6944465263v8.2972750315h6.0409942721v6.1746785634h-12.9735761717v-34.5749543947Z"/>
      <path class="cls-2" d="M387.0409549932,293.1814319697v34.5749543947h-6.9342088843v-34.5749543947h6.9342088843Z"/>
      <path class="cls-2" d="M400.6588171147,310.3699195764l-.1496825944-17.1884876067h5.9921847304v34.5749543947h-6.7340897636l-4.3586920697-18.7690754966.1496825944,18.7690754966h-5.9921847304v-34.5749543947h7.0806375093l4.012144324,17.1884876067Z"/>
      <path class="cls-2" d="M421.8031105593,308.839637872v7.6059706772h-6.4379785442v-7.6059706772h6.4379785442Z"/>
      <path class="cls-2" d="M443.6893090371,293.1814319697l4.5555572211,34.5749543947h-6.883772358l-.5450398818-5.0387324414h-4.357065085l-.4946033554,5.0387324414h-6.2899229345l4.5555572211-34.5749543947h9.4592891726ZM438.6375214759,301.5776965918l-1.5342465927,15.1145745439h3.1189297117l-1.584683119-15.1145745439Z"/>
      <path class="cls-2" d="M458.1499492445,327.7563863644h-6.9325818996v-28.4002758313h-4.21063646v-6.1746785634h15.352227835v6.1746785634h-4.2090094753v28.4002758313Z"/>
      <path class="cls-2" d="M471.0226523634,307.1097542062h3.4671044422v-13.9283222365h6.9325818996v34.5749543947h-6.9325818996v-14.4719535949h-3.4671044422v14.4719535949h-6.9325818996v-34.5749543947h6.9325818996v13.9283222365Z"/>
      <path class="cls-2" d="M483.8986094518,293.1814319697h12.8759570884v6.1746785634h-5.9433751888v7.7536436731h5.6944465263v6.1746785634h-5.6944465263v8.2972750315h6.0409942721v6.1746785634h-12.9735761717v-34.5749543947Z"/>
      <path class="cls-2" d="M512.1251673904,293.1814319697l4.5555572211,34.5749543947h-6.883772358l-.5450398818-5.0387324414h-4.357065085l-.4946033554,5.0387324414h-6.2899229345l4.5555572211-34.5749543947h9.4592891726ZM507.0733798292,301.5776965918l-1.5342465927,15.1145745439h3.1189297117l-1.584683119-15.1145745439Z"/>
      <path class="cls-2" d="M531.98251592,311.4068761078c2.0125801009.5614819403,3.0196836437,2.0430802395,3.0196836437,4.4464176777v11.9030925789h-6.9325818996v-11.8544091736c0-.8227495484-.4132541193-1.2349357127-1.2381353733-1.2349357127h-1.7327387287v13.0893448863h-6.9325818996v-34.5749543947h10.3492498154c4.2919856961,0,6.4379785442,2.14044705,6.4379785442,6.4213411499v6.6680037364c0,2.7003062101-.9908336956,4.4123392941-2.970874102,5.1360992518ZM528.0208081224,300.4417504697c0-.8227495484-.4132541193-1.2333129325-1.2381353733-1.2333129325h-1.6839291871v9.5808941494h1.6839291871c.824881254,0,1.2381353733-.4105633841,1.2381353733-1.2349357127v-7.1126455042Z"/>
      <path class="cls-2" d="M547.4827993646,327.7563863644h-6.9325818996v-28.4002758313h-4.21063646v-6.1746785634h15.352227835v6.1746785634h-4.2090094753v28.4002758313Z"/>
      <path class="cls-2" d="M566.2500681307,308.839637872v7.6059706772h-6.4379785442v-7.6059706772h6.4379785442Z"/>
      <path class="cls-2" d="M585.5119402521,327.7563863644h-6.9325818996v-28.4002758313h-4.21063646v-6.1746785634h15.352227835v6.1746785634h-4.2090094753v28.4002758313Z"/>
      <path class="cls-2" d="M598.3846433711,307.1097542062h3.4671044422v-13.9283222365h6.9325818996v34.5749543947h-6.9325818996v-14.4719535949h-3.4671044422v14.4719535949h-6.9325818996v-34.5749543947h6.9325818996v13.9283222365Z"/>
      <path class="cls-2" d="M611.2606004594,293.1814319697h12.8759570884v6.1746785634h-5.9433751888v7.7536436731h5.6944465263v6.1746785634h-5.6944465263v8.2972750315h6.0409942721v6.1746785634h-12.9735761717v-34.5749543947Z"/>
      <path class="cls-2" d="M636.5146573113,327.7563863644l-4.2090094753-34.5749543947h7.0318279676l1.7831752551,18.4234233194,1.9800404064-18.4234233194h6.5372246122l1.9800404064,18.3747399142,1.7831752551-18.3747399142h6.1402403401l-4.2090094753,34.5749543947h-7.6256773911l-1.7831752551-15.7068893075-1.7831752551,15.7068893075h-7.6256773911Z"/>
      <path class="cls-2" d="M668.109073624,293.1814319697v34.5749543947h-6.9342088843v-34.5749543947h6.9342088843Z"/>
      <path class="cls-2" d="M681.7253087608,310.3699195764l-.1496825944-17.1884876067h5.9921847304v34.5749543947h-6.7340897636l-4.3586920697-18.7690754966.1496825944,18.7690754966h-5.9921847304v-34.5749543947h7.0806375093l4.012144324,17.1884876067Z"/>
      <path class="cls-2" d="M690.0457086281,327.7563863644v-34.5749543947h9.7554003919c4.9525414932,0,7.4288122398,2.4698714254,7.4288122398,7.4096142761v19.7557258426c0,4.9397428507-2.4762707466,7.4096142761-7.4288122398,7.4096142761h-9.7554003919ZM696.9782905277,299.1094479466v22.7205452211h1.386190983c1.2885718997,0,1.9312308648-.642620949,1.9312308648-1.926240067v-18.8680650872c0-1.2852418981-.6426589651-1.926240067-1.9312308648-1.926240067h-1.386190983Z"/>
    </g>
    <rect class="cls-1" x="140.815275591" y="235.1702674127" width="425.599370078" height="29.0267716323" rx="12.2487611208" ry="12.2487611208"/>
    <g>
      <path class="cls-2" d="M164.6192974902,255.3188476562h-1.8715820312l-.3203125-2.1337890625h-2.2758789062l-.3203125,2.1337890625h-1.703125l1.8881835938-11.759765625h2.71484375l1.8881835938,11.759765625ZM160.3873638964,251.5893554688h1.787109375l-.8764648438-5.947265625h-.0336914062l-.876953125,5.947265625Z"/>
      <path class="cls-2" d="M172.2242779589,246.8012695312h-.0336914062v8.517578125h-1.6689453125v-11.759765625h2.3266601562l1.8715820312,7.0390625h.0336914062v-7.0390625h1.65234375v11.759765625h-1.9052734375l-2.2763671875-8.517578125Z"/>
      <path class="cls-2" d="M192.3238873339,248.5151367188h2.5458984375v1.6796875h-2.5458984375v3.4443359375h3.2036132812v1.6796875h-5.05859375v-11.759765625h5.05859375v1.6796875h-3.2036132812v3.2763671875Z"/>
      <path class="cls-2" d="M207.9205670214,243.5590820312l-1.9389648438,5.7119140625,2.0737304688,6.0478515625h-1.9555664062l-1.5004882812-4.6533203125h-.0336914062l-1.517578125,4.6533203125h-1.7368164062l2.0737304688-6.0478515625-1.9389648438-5.7119140625h1.9223632812l1.3823242188,4.333984375h.0336914062l1.4165039062-4.333984375h1.7197265625Z"/>
      <path class="cls-2" d="M219.1676373339,250.9340820312v1.5625c0,1.8818359375-.9443359375,2.95703125-2.7651367188,2.95703125-1.8212890625,0-2.765625-1.0751953125-2.765625-2.95703125v-6.115234375c0-1.8818359375.9443359375-2.95703125,2.765625-2.95703125,1.8208007812,0,2.7651367188,1.0751953125,2.7651367188,2.95703125v1.142578125h-1.75390625v-1.259765625c0-.8408203125-.3706054688-1.1591796875-.9609375-1.1591796875-.58984375,0-.9609375.318359375-.9609375,1.1591796875v6.349609375c0,.83984375.37109375,1.142578125.9609375,1.142578125.5903320312,0,.9609375-.302734375.9609375-1.142578125v-1.6796875h1.75390625Z"/>
      <path class="cls-2" d="M225.3556256152,243.5590820312h1.8549804688v10.080078125h3.0517578125v1.6796875h-4.9067382812v-11.759765625Z"/>
      <path class="cls-2" d="M237.9010357714,243.5590820312v9.0712890625c0,.8408203125.37109375,1.142578125.9609375,1.142578125.5903320312,0,.9614257812-.3017578125.9614257812-1.142578125v-9.0712890625h1.7534179688v8.9541015625c0,1.8818359375-.9443359375,2.95703125-2.7651367188,2.95703125-1.8212890625,0-2.7651367188-1.0751953125-2.7651367188-2.95703125v-8.9541015625h1.8544921875Z"/>
      <path class="cls-2" d="M250.3956646777,243.4243164062c1.8041992188,0,2.7314453125,1.0751953125,2.7314453125,2.95703125v.369140625h-1.7534179688v-.486328125c0-.8408203125-.3374023438-1.1591796875-.927734375-1.1591796875-.58984375,0-.9272460938.318359375-.9272460938,1.1591796875,0,.8564453125.37109375,1.4951171875,1.5849609375,2.552734375,1.5512695312,1.361328125,2.0400390625,2.3359375,2.0400390625,3.6796875,0,1.8818359375-.9438476562,2.95703125-2.7651367188,2.95703125-1.8208007812,0-2.7651367188-1.0751953125-2.7651367188-2.95703125v-.72265625h1.7534179688v.83984375c0,.83984375.37109375,1.142578125.9614257812,1.142578125.58984375,0,.9609375-.302734375.9609375-1.142578125,0-.8564453125-.37109375-1.4951171875-1.5849609375-2.5537109375-1.5512695312-1.3603515625-2.0400390625-2.3349609375-2.0400390625-3.6787109375,0-1.8818359375.9272460938-2.95703125,2.7314453125-2.95703125Z"/>
      <path class="cls-2" d="M259.2648053027,243.5590820312h1.8549804688v11.759765625h-1.8549804688v-11.759765625Z"/>
      <path class="cls-2" d="M270.3092388964,253.1518554688h.0336914062l1.3994140625-9.5927734375h1.703125l-1.8212890625,11.759765625h-2.7651367188l-1.8208007812-11.759765625h1.8715820312l1.3994140625,9.5927734375Z"/>
      <path class="cls-2" d="M281.2189068652,248.5151367188h2.5458984375v1.6796875h-2.5458984375v3.4443359375h3.2036132812v1.6796875h-5.05859375v-11.759765625h5.05859375v1.6796875h-3.2036132812v3.2763671875Z"/>
      <path class="cls-2" d="M300.7276959277,250.6313476562l-.5732421875,1.0751953125v3.6123046875h-1.8549804688v-11.759765625h1.8549804688v5.08984375h.0336914062l2.3940429688-5.08984375h1.8549804688l-2.580078125,5.2412109375,2.580078125,6.5185546875h-1.9052734375l-1.8041992188-4.6875Z"/>
      <path class="cls-2" d="M310.2545513964,248.5991210938h3.3720703125v1.6796875h-3.3720703125v-1.6796875Z"/>
      <path class="cls-2" d="M325.4464459277,246.4653320312v1.5283203125c0,1.8818359375-.91015625,2.9072265625-2.7651367188,2.9072265625h-.8764648438v4.41796875h-1.8549804688v-11.759765625h2.7314453125c1.8549804688,0,2.7651367188,1.0244140625,2.7651367188,2.90625ZM321.8048443652,245.2387695312v3.9814453125h.8764648438c.5903320312,0,.9106445312-.2685546875.9106445312-1.1083984375v-1.763671875c0-.8408203125-.3203125-1.109375-.9106445312-1.109375h-.8764648438Z"/>
      <path class="cls-2" d="M331.2135357714,246.3813476562c0-1.8818359375.9951171875-2.95703125,2.8159179688-2.95703125,1.8212890625,0,2.8159179688,1.0751953125,2.8159179688,2.95703125v6.115234375c0,1.8818359375-.9946289062,2.95703125-2.8159179688,2.95703125-1.8208007812,0-2.8159179688-1.0751953125-2.8159179688-2.95703125v-6.115234375ZM333.0685162402,252.6137695312c0,.83984375.37109375,1.1591796875.9609375,1.1591796875.5903320312,0,.9609375-.3193359375.9609375-1.1591796875v-6.349609375c0-.8408203125-.3706054688-1.1591796875-.9609375-1.1591796875-.58984375,0-.9609375.318359375-.9609375,1.1591796875v6.349609375Z"/>
      <path class="cls-2" d="M348.5978131152,246.4653320312v1.5283203125c0,1.8818359375-.91015625,2.9072265625-2.7651367188,2.9072265625h-.8764648438v4.41796875h-1.8549804688v-11.759765625h2.7314453125c1.8549804688,0,2.7651367188,1.0244140625,2.7651367188,2.90625ZM344.9562115527,245.2387695312v3.9814453125h.8764648438c.5903320312,0,.9106445312-.2685546875.9106445312-1.1083984375v-1.763671875c0-.8408203125-.3203125-1.109375-.9106445312-1.109375h-.8764648438Z"/>
      <path class="cls-2" d="M364.0441021777,248.7836914062h2.39453125v1.6796875h-2.39453125v4.85546875h-1.8544921875v-11.759765625h4.90625v1.6796875h-3.0517578125v3.544921875Z"/>
      <path class="cls-2" d="M374.9025006152,248.5151367188h2.5458984375v1.6796875h-2.5458984375v3.4443359375h3.203125v1.6796875h-5.0576171875v-11.759765625h5.0576171875v1.6796875h-3.203125v3.2763671875Z"/>
      <path class="cls-2" d="M386.8067974902,243.4243164062c1.8037109375,0,2.7314453125,1.0751953125,2.7314453125,2.95703125v.369140625h-1.75390625v-.486328125c0-.8408203125-.3369140625-1.1591796875-.9267692862-1.1591796875-.5908088388,0-.9277229013.318359375-.9277229013,1.1591796875,0,.8564453125.37109375,1.4951171875,1.5849609375,2.552734375,1.5517578125,1.361328125,2.0400390625,2.3359375,2.0400390625,3.6796875,0,1.8818359375-.9443359375,2.95703125-2.7646484375,2.95703125-1.8212890625,0-2.765625-1.0751953125-2.765625-2.95703125v-.72265625h1.75390625v.83984375c0,.83984375.37109375,1.142578125.9609375,1.142578125s.9609375-.302734375.9609375-1.142578125c0-.8564453125-.37109375-1.4951171875-1.5849609375-2.5537109375-1.55078125-1.3603515625-2.0400390625-2.3349609375-2.0400390625-3.6787109375,0-1.8818359375.927734375-2.95703125,2.7314453125-2.95703125Z"/>
      <path class="cls-2" d="M395.1368756152,243.5590820312h5.732421875v1.6796875h-1.9384765625v10.080078125h-1.8544921875v-10.080078125h-1.939453125v-1.6796875Z"/>
      <path class="cls-2" d="M406.7384381152,243.5590820312h1.8544921875v11.759765625h-1.8544921875v-11.759765625Z"/>
      <path class="cls-2" d="M417.7814068652,253.1518554688h.0341796875l1.3994140625-9.5927734375h1.703125l-1.8212890625,11.759765625h-2.7646484375l-1.8212890625-11.759765625h1.87109375l1.3994140625,9.5927734375Z"/>
      <path class="cls-2" d="M432.4181256152,255.3188476562h-1.87109375l-.3203125-2.1337890625h-2.2763671875l-.3203125,2.1337890625h-1.703125l1.888671875-11.759765625h2.7138671875l1.888671875,11.759765625ZM428.1866803027,251.5893554688h1.787109375l-.876953125-5.947265625h-.0341796875l-.8759765625,5.947265625Z"/>
      <path class="cls-2" d="M438.3370709277,243.5590820312h1.8544921875v10.080078125h3.0517578125v1.6796875h-4.90625v-11.759765625Z"/>
      <path class="cls-2" d="M456.7843365527,243.5590820312h1.8544921875v11.759765625h-1.8544921875v-11.759765625Z"/>
      <path class="cls-2" d="M466.7316021777,246.8012695312h-.033203125v8.517578125h-1.669921875v-11.759765625h2.3271484375l1.87109375,7.0390625h.0341796875v-7.0390625h1.65234375v11.759765625h-1.9052734375l-2.2763671875-8.517578125Z"/>
      <path class="cls-2" d="M490.4728131152,246.4653320312v1.5283203125c0,1.8818359375-.91015625,2.9072265625-2.7646484375,2.9072265625h-.876953125v4.41796875h-1.8544921875v-11.759765625h2.7314453125c1.8544921875,0,2.7646484375,1.0244140625,2.7646484375,2.90625ZM486.8312115527,245.2387695312v3.9814453125h.876953125c.58984375,0,.91015625-.2685546875.91015625-1.1083984375v-1.763671875c0-.8408203125-.3203125-1.109375-.91015625-1.109375h-.876953125Z"/>
      <path class="cls-2" d="M496.2394146777,246.3813476562c0-1.8818359375.9951171875-2.95703125,2.81640625-2.95703125,1.8203125,0,2.8154296875,1.0751953125,2.8154296875,2.95703125v6.115234375c0,1.8818359375-.9951171875,2.95703125-2.8154296875,2.95703125-1.8212890625,0-2.81640625-1.0751953125-2.81640625-2.95703125v-6.115234375ZM498.0939068652,252.6137695312c0,.83984375.37109375,1.1591796875.9619140625,1.1591796875.58984375,0,.9609375-.3193359375.9609375-1.1591796875v-6.349609375c0-.8408203125-.37109375-1.1591796875-.9609375-1.1591796875-.5908203125,0-.9619140625.318359375-.9619140625,1.1591796875v6.349609375Z"/>
      <path class="cls-2" d="M508.1280865527,243.5590820312h1.8544776034v10.080078125h3.0517723966v1.6796875h-4.90625v-11.759765625Z"/>
      <path class="cls-2" d="M524.9044537402,255.3188476562h-1.87109375l-.3203125-2.1337890625h-2.2763671875l-.3203125,2.1337890625h-1.703125l1.888671875-11.759765625h2.7138671875l1.888671875,11.759765625ZM520.6730084277,251.5893554688h1.787109375l-.876953125-5.947265625h-.0341796875l-.8759765625,5.947265625Z"/>
      <path class="cls-2" d="M532.5089459277,246.8012695312h-.033203125v8.517578125h-1.669921875v-11.759765625h2.3271484375l1.87109375,7.0390625h.0341796875v-7.0390625h1.65234375v11.759765625h-1.9052734375l-2.2763671875-8.517578125Z"/>
      <path class="cls-2" d="M543.0821881152,243.5590820312h2.93359375c1.8544921875,0,2.7646484375,1.0244140625,2.7646484375,2.90625v5.947265625c0,1.8818359375-.91015625,2.90625-2.7646484375,2.90625h-2.93359375v-11.759765625ZM544.9366803027,245.2387695312v8.400390625h1.044921875c.5908203125,0,.9443359375-.302734375.9443359375-1.142578125v-6.115234375c0-.83984375-.353515625-1.142578125-.9443359375-1.142578125h-1.044921875Z"/>
    </g>
    <g>
      <rect class="cls-5" x="106.0699363815" y="188.8941241507" width="157.6829692689" height=".3543307087"/>
      <rect class="cls-4" x="443.4770156094" y="188.8941241507" width="157.6829692689" height=".3543307087"/>
      <g class="cls-6">
        <path class="cls-2" d="M289.7915861344,171.4633793487l-7.486328125,35.2158203125h-5.3256835938l7.4858398438-35.2158203125h5.326171875Z"/>
        <path class="cls-2" d="M287.0489103531,206.6791996612l7.4858398438-35.2158203125h6.2836914062c.2885742188,10.6357421875.6318359375,22.82421875.5854492188,24.4814453125h.0590820312c.7631835938-4.609375,1.6259765625-9.5498046875,2.8383789062-15.3369140625l1.9350585938-9.14453125h5.0541992188l-7.486328125,35.2158203125h-6.0913085938c-.236328125-8.9755859375-.6723632812-23.53125-.638671875-25h-.052734375c-.69140625,4.3134765625-1.5263671875,9.037109375-2.8510742188,15.3701171875l-2.021484375,9.6298828125h-5.1000976562Z"/>
        <path class="cls-2" d="M332.7012541031,196.6625980987l-.158203125.638671875c-1.1938476562,4.78515625-2.24609375,9.892578125-9.4228515625,9.892578125-6.2890625,0-7.640625-4.150390625-6.3818359375-10.001953125l3.4370117188-16.0849609375c1.3774414062-6.3369140625,3.15234375-10.158203125,9.0727539062-10.158203125,7.5922851562,0,7.587890625,5.609375,6.5336914062,9.8525390625l-.1181640625.478515625h-5.3662109375l.2915039062-1.3623046875c.6049804688-2.8408203125.3388671875-4.3583984375-1.6381835938-4.3583984375-1.7583007812,0-2.4077148438,1.4296875-3.0717773438,4.52734375l-3.76171875,17.7294921875c-.609375,2.9619140625-.5634765625,4.8134765625,1.544921875,4.8134765625,1.8110351562,0,2.494140625-1.5009765625,3.2236328125-4.666015625l.3037109375-1.30078125h5.51171875Z"/>
        <path class="cls-2" d="M355.3252775406,181.0922855987l-3.4965820312,16.5087890625c-1.2587890625,5.9990234375-3.1440429688,9.5927734375-9.6337890625,9.5927734375-6.2802734375,0-8.064453125-4.07421875-6.8247070312-10.1435546875l3.5893554688-17.3291015625c1.2397460938-6.0166015625,4.3842773438-8.7724609375,9.3149414062-8.7724609375,5.6982421875,0,8.4228515625,3.740234375,7.05078125,10.1435546875ZM344.4307462906,179.7612309112l-3.8208007812,18.2109375c-.5502929688,2.52734375-.33984375,4.6572265625,2.1611328125,4.6572265625,2.0639648438,0,2.9428710938-1.7373046875,3.5395507812-4.4716796875l3.8212890625-18.1728515625c.5439453125-2.5888671875.0610351562-4.42578125-2.306640625-4.42578125-1.7646484375,0-2.8232421875,1.3828125-3.39453125,4.2021484375Z"/>
        <path class="cls-2" d="M361.7471525406,171.4633793487h5.3251953125l-6.4609375,30.3271484375h8.69921875l-1.4287109375,4.888671875h-13.62109375l7.486328125-35.2158203125Z"/>
        <path class="cls-2" d="M391.6475431656,181.0922855987l-3.49609375,16.5087890625c-1.2587890625,5.9990234375-3.1435546875,9.5927734375-9.6328125,9.5927734375-6.2802734375,0-8.0654296875-4.07421875-6.8251953125-10.1435546875l3.5888671875-17.3291015625c1.240234375-6.0166015625,4.384765625-8.7724609375,9.3154296875-8.7724609375,5.6982421875,0,8.4228515625,3.740234375,7.0498046875,10.1435546875ZM380.7539884781,179.7612309112l-3.8212890625,18.2109375c-.5498046875,2.52734375-.33984375,4.6572265625,2.1611328125,4.6572265625,2.064453125,0,2.943359375-1.7373046875,3.5400390625-4.4716796875l3.8212890625-18.1728515625c.5439453125-2.5888671875.0615234375-4.42578125-2.306640625-4.42578125-1.7646484375,0-2.8232421875,1.3828125-3.39453125,4.2021484375Z"/>
        <path class="cls-2" d="M399.1885587906,191.0083012237l-3.3251953125,15.6708984375h-5.326171875l7.486328125-35.2158203125h6.8232421875c5.55859375,0,8.169921875,2.96875,6.955078125,8.9560546875l-.3818359375,1.8681640625c-.9619140625,4.7421875-2.8974609375,6.0947265625-4.9345703125,6.6484375,1.41015625.974609375,2.6357421875,2.595703125,1.427734375,8.0537109375-.6728515625,2.958984375-1.6064453125,7.5556640625-1.7060546875,9.689453125h-5.2861328125c.0595703125-2.1396484375,1.033203125-6.5791015625,1.9169921875-10.7646484375.76953125-3.6748046875.3671875-4.90625-2.3291015625-4.90625h-1.3203125ZM400.1211759781,186.5297855987h1.1611328125c3.0615234375,0,4.1142578125-.8857421875,4.8056640625-4.5732421875l.3349609375-1.8349609375c.5-2.6689453125.16015625-4.1806640625-2.548828125-4.1806640625h-1.4970703125l-2.255859375,10.5888671875Z"/>
        <path class="cls-2" d="M416.5352384781,197.2719730987l-.158203125.9423828125c-.4716796875,2.8359375-.060546875,4.5546875,2.1806640625,4.5546875,1.9052734375,0,2.8837890625-1.451171875,3.4296875-4.2314453125.60546875-3.1630859375.1982421875-5.109375-3.1123046875-8.8486328125-3.759765625-4.234375-4.79296875-6.4921875-3.890625-11.3828125.8837890625-4.8486328125,3.625-7.357421875,8.08984375-7.357421875,6.9404296875,0,7.669921875,5.0576171875,6.9599609375,9.2255859375l-.1181640625.689453125h-5.3603515625l.1181640625-.6953125c.4404296875-2.59375.4287109375-4.748046875-1.7119140625-4.748046875-1.5810546875,0-2.4033203125,1.06640625-2.7509765625,3.1953125-.4072265625,2.484375.005859375,4.0146484375,2.5029296875,6.88671875,4.7138671875,5.3740234375,5.6474609375,8.4501953125,4.599609375,13.5244140625-1.115234375,5.318359375-3.7900390625,8.1669921875-9.2451171875,8.1669921875-6.17578125,0-8.111328125-3.81640625-7.0107421875-9.369140625l.111328125-.552734375h5.3662109375Z"/>
      </g>
    </g>
    <g class="cls-7">
      <path class="cls-2" d="M168.0515456679,125.1441207646c0-3.7138693526-1.1160498048-6.9111161318-3.3423965803-9.5936155556-2.2286479091-2.6815618148-5.115420033-5.0762152676-8.6591658048-7.1802099223-3.5460469055-2.1049322637-7.4959427609-4.0429701208-11.8491122829-5.8188016163-4.356045939-1.7739562775-8.6856288414-3.5685399535-12.9893239907-5.3856262462-4.3054209994-1.8142734656-8.2553168549-3.837633744-11.8491122829-6.0653927902-3.5960965617-2.2286966552-6.4828686855-4.766804289-8.6591658048-7.6143229014-2.1791735363-2.8465810034-3.2664591709-6.1685297831-3.2664591709-9.965846339,0-4.1254797151,1.2915112431-7.5515030966,3.873958446-10.2743197086,2.5824472029-2.723754221,6.1267682581-4.8286864847,10.6341137326-6.3138591821,4.5050443408-1.4861103065,9.4427018018-2.2286966552,14.8118218162-2.2286966552,5.2649937182,0,9.67051403.4763053853,13.2165609354,1.4232905017,3.5443210552.9497979435,6.5323430583,1.9192856765,8.9629154424,2.9094008082,2.4311476675.9910527406,4.657494443,1.4861103065,6.6847931605,1.4861103065,1.5187481879,0,2.6819712319-.4950575658,3.4936961156-1.4861103065.8094237502-.9901151316,1.2155738338-2.6806242058,1.2155738338-5.0752776586h.3037496376v38.253510658h-.3037496376c-.9118241962-8.9944833879-3.0144850397-16.0940589339-6.3045308301-21.2931009839-3.2923469241-5.199979659-7.3682298451-8.8707189964-12.2293746133-11.0178436663-4.8611447682-2.1452494518-10.0266144574-3.2188117868-15.4952585007-3.2188117868-3.7479713804,0-7.1921931233.4950575658-10.330364095,1.4851726974-3.1404721053.9901151316-5.672869652,2.5184178442-7.5960420733,4.5802200928-1.9248982715,2.0646150756-2.8861968405,4.7471144994-2.8861968405,8.0474982715,0,3.4663405697,1.0872856345,6.4798159797,3.2664591709,9.0366757941,2.1762971193,2.5596726414,5.0630692432,4.8089966951,8.6591658048,6.7470345522,3.593795428,1.9399130751,7.5695790367,3.7757515483,11.9250496923,5.5093906377,4.3537448054,1.7327014803,8.6833277078,3.549787773,12.9887487073,5.4465708329,4.3036951492,1.899595887,8.2535910046,3.9623357445,11.8496875663,6.1900947907,3.593795428,2.2286966552,6.4799922685,4.8905686804,8.6591658048,7.9856160757,2.1768724027,3.0941097863,3.2664591709,6.705779755,3.2664591709,10.8321970791,0,4.2089269184-1.4698490985,7.8412242857-4.4060955952,10.8940792749-2.9385476303,3.0537925982-6.8119307929,5.3443714491-11.6213000547,6.8707989436-4.8116703954,1.5283027126-10.2043770294,2.2896412419-16.1792704687,2.2896412419-4.6592202932,0-8.6350039018-.3712931744-11.9250496923-1.1138795231-3.2923469241-.7425863487-6.1526560113-1.6286268784-8.5832283954-2.6618720252-2.4305723841-1.0304323197-4.5573951306-1.9380378571-6.3804682395-2.7228166119-1.8230731089-.7838411459-3.5466221889-1.1766993278-5.1654696892-1.1766993278-1.4192241589,0-2.6083349561.5785047691-3.569633525,1.7336390894-.964174986,1.1560719292-1.5952608807,3.261004193-1.8990105183,6.3138591821h-.3037496376v-40.8535004875h.3037496376c.8094237502,7.1802099223,2.3782215943,13.2671677201,4.7092699494,18.2599357843,2.3287472215,4.9946432823,5.214944062,8.9560414178,8.6591658048,11.8841944065,3.4419206092,2.9309658158,7.2399416459,5.056525478,11.3934878265,6.3757413778,4.1518203304,1.3210911178,8.4555154796,1.9811678723,12.9128112979,1.9811678723,4.0499951678,0,7.8739039577-.4950575658,11.4700005193-1.4861103065,3.593795428-.9901151316,6.5823927145-2.5990522205,8.9629154424-4.8277488757,2.3782215943-2.2286966552,3.5702088085-5.2806140353,3.5702088085-9.1613777945Z"/>
      <path class="cls-2" d="M240.9704430411,142.5995880045c-9.2171907072,0-17.4966694651-1.7327014803-24.8384362736-5.19904205-7.3440679421-3.4663405697-13.140623526-8.4806736415-17.3942690191-15.0411239975-4.253645493-6.561387965-6.3804682395-14.4232396493-6.3804682395-23.5836798348,0-9.2429497798,2.1504093661-17.1460562613,6.4564056489-23.7074442263,4.3036951492-6.561387965,10.1261384864-11.5944732174,17.4702064285-15.1030061933,7.3417668085-3.5075953668,15.6212455663-5.2618618548,24.8384362736-5.2618618548,9.2148895736-.0815719853,17.4443186753,1.6520671041,24.6865614548,5.199979659,7.2393663625,3.548850164,13.0123353268,8.603500424,17.3183316097,15.164888389,4.3036951492,6.561387965,6.4564056489,14.4223020403,6.4564056489,23.5836798348,0,9.2438873888-2.1791735363,17.1460562613-6.5323430583,23.7074442263-4.356045939,6.560450356-10.1784892762,11.5747834279-17.4702064285,15.0411239975-7.2922924357,3.4663405697-15.4958337842,5.19904205-24.6106240454,5.19904205ZM242.6416413312,140.4955933498c5.3668188808,0,10.3039010584-.9479227254,14.8118218162-2.8475186124,4.5050443408-1.8977206689,8.4313535766-4.5380276866,11.7731748735-7.922796271,3.3423965803-3.3838309754,5.9484304027-7.3658565095,7.8238543015-11.9470142112,1.8731227651-4.5802200928,2.8102594311-9.6751875409,2.8102594311-15.2886527804,0-5.1165324557-.6333870284-9.965846339-1.8990105183-14.5460664317-1.2673493402-4.5811577018-3.0904224491-8.747892214-5.4686440434-12.5039539728-2.3810980113-3.7541865407-5.2414070986-7.0142531246-8.5832283954-9.7801997518-3.3423965803-2.7640714091-7.0903679607-4.9093208609-11.2416130077-6.4376235736-4.154121464-1.5254898855-8.6597410882-2.2896412419-13.5208858564-2.2896412419-5.2672948518,0-10.1784892762.9282329359-14.7358844068,2.7846988077-4.5573951306,1.8574034808-8.4837043665,4.4780207089-11.7731748735,7.8618516843-3.2923469241,3.3847685844-5.874794127,7.3874215171-7.7479168921,12.0079587979-1.8754238987,4.623350108-2.8102594311,9.6986277665-2.8102594311,15.2277081937,0,5.19904205.6310858948,10.0699209409,1.8990105183,14.6079486275,1.2650482065,4.5399029046,3.0616582789,8.7085126349,5.392706634,12.5030163637,2.3287472215,3.7973165559,5.1654696892,7.0780105384,8.507290986,9.8420819475,3.3423965803,2.7659466272,7.1139545803,4.911196079,11.3175504171,6.4376235736,4.2018699866,1.5283027126,8.6833277078,2.2905788509,13.444948447,2.2905788509Z"/>
      <path class="cls-2" d="M383.3162675219,83.9193271027c0-4.6205372809-.1794884222-8.5416182283-.5315618658-11.760430015-.3566757108-3.2188117868-.9388625162-5.8994359926-1.7488615497-8.0465606624-.8099990336-2.1452494518-1.9237477047-3.8788885412-3.3412460135-5.199979659-1.4197994424-1.3192158998-3.1410473887-2.4330954229-5.1660449726-3.3425761782v-.2475287829h18.8393809312v.2475287829c-1.5187481879.6619519725-2.6601104625,1.8789684884-3.4194845565,3.6519871569-.759374094,1.7758314955-1.2679246236,4.5399029046-1.5187481879,8.2950270544-.253124698,3.7560617588-.379687047,9.141688005-.379687047,16.1550035206v16.7128808912c0,7.3471043289-.759374094,13.7228457068-2.2781222819,19.1272241335-1.5187481879,5.4062536448-3.8244840732,9.8008271504-6.9126053887,13.1846581258-3.0904224491,3.3847685844-6.8619804491,5.9013112106-11.3169751337,7.5515030966-4.4595969518,1.6520671041-9.6233407908,2.475287829-15.4964090676,2.475287829-5.5710444894,0-10.685889239-.7013315516-15.343383682-2.1039946547-4.6592202932-1.4026631031-8.7351032142-3.693241954-12.2293746133-6.8707989436-3.4936961156-3.1766193806-6.2044315177-7.3452291109-8.1270286557-12.5039539728-1.9254735549-5.1568496438-2.8867721239-11.4913362245-2.8867721239-19.002522133v-31.3208295186c0-3.8788885412-.1282881992-6.8286065375-.379687047-8.8519668159-.2542752648-2.0214850604-.6339623118-3.5066577578-1.1396364244-4.4564557013-.5079752462-.9479227254-1.2149985503-1.6286268784-2.1268227465-2.043050068v-.2475287829h16.5589575157v.2475287829c-.9112489128.4144231896-1.6470363871,1.0951273425-2.2027601559,2.043050068-.557449619.9497979435-.9635997026,2.4349706409-1.2149985503,4.4564557013-.2542752648,2.0233602784-.3802623304,4.9730782747-.3802623304,8.8519668159v30.7020075614c0,8.9963586059,1.2915112431,16.2600157315,3.873958446,21.7881585497,2.5824472029,5.5300180362,6.2521800403,9.5945531646,11.0138007795,12.1936053851,4.7593196056,2.5999898295,10.1784892762,3.9004535488,16.2552078781,3.9004535488,6.9885427981,0,12.8104108519-1.3407809074,17.4702064285-4.0242179402,4.657494443-2.6806242058,8.1782288787-6.8895511242,10.5576010398-12.6267807552,2.3793721611-5.735354413,3.5713593753-13.1012109224,3.5713593753-22.0985071374v-16.8366452826Z"/>
      <path class="cls-2" d="M419.0137533392,55.3222518051c2.2263467755,2.723754221,4.63333254,5.592837841,7.2152044595,8.604438033,2.5830224863,3.0134754101,5.2914567548,6.1891571816,8.1276039391,9.5317333599,2.8349966175,3.3425761782,5.7206181745,6.7901645674,8.6591658048,10.3371395133,2.9362464967,3.549787773,5.9254190666,7.1192653356,8.9629154424,10.7093702967,3.0386469427,3.5901049611,6.0508308487,7.1183277265,9.0400034186,10.5846682962,2.9857208695,3.4663405697,5.9242684997,6.9129913498,8.8110406236,10.3371395133,2.8856215571,3.4250857725,5.6964562716,6.6851523565,8.4313535766,9.7792621428,2.7337467383,3.0950473953,5.3167692246,6.0475782187,7.7467663253,8.8519668159l-1.0631237316,5.9425660078-.4556244564-54.100040809c-.102400446-5.19904205-.355525144-9.572988157-.759374094-13.12277593-.4061500836-3.5469749459-1.0631237316-6.4376235736-1.9755232111-8.6653826197-.9112489128-2.2286966552-2.1262474631-4.0232803312-3.644995651-5.3856262462-1.5198987547-1.361408306-3.3953226535-2.4134056333-5.621669429-3.1569295911v-.2475287829h19.901354096v.2475287829c-.8123001672.3309759862-1.5452112245.826033552-2.2033354393,1.4861103065-.6592747816.6610143634-1.1655241776,1.6305020965-1.5187481879,2.9094008082-.355525144,1.2798363207-.6339623118,3.0134754101-.8353115034,5.19904205-.204800892,2.187441858-.3566757108,4.9515132671-.4556244564,8.2940894453-.102400446,3.3425761782-.1518748188,7.4905585099-.1518748188,12.442071777v56.0802710722h-5.7735442478l-56.3605151408-66.3555283898c-3.6461462178-4.2089269184-6.5846938481-7.6752674881-8.8110406236-10.3990217091-2.2286479091-2.723754221-4.1535461806-4.8690036728-5.772393681-6.4376235736-1.6211486339-1.5667446827-3.2422972679-2.6403070176-4.8611447682-3.2188117868v-.2475287829h13.3684357542ZM415.0638574837,111.4025228773v-49.3951187158h2.4299971007l.3037496376,49.3951187158c.1000993124,7.2636571256.506249396,12.9183771623,1.2161491172,16.9604096741.7064480208,4.0448453388,1.8719721983,7.0376933503,3.4931208322,8.9757312074,1.6188475003,1.9399130751,3.7980210366,3.404458374,6.5329183417,4.3945735056v.2475287829h-19.2938548208v-.2475287829c.9123994796-.3291007682,1.6717735735-.824158334,2.2792728487-1.4851726974.6074992752-.6600767544,1.1137486712-1.6286268784,1.5187481879-2.9094008082.40384895-1.2788987117.7075985876-3.011600192.9123994796-5.199979659.2013491916-2.18556664.3532240104-4.9515132671.4556244564-8.2940894453.0989487456-3.3425761782.1518748188-7.4896209009.1518748188-12.442071777Z"/>
      <path class="cls-2" d="M514.1127023736,55.3222518051h27.6481204212c13.164785429,0,24.154999589,1.7336390894,32.9660402126,5.199979659,8.8110406236,3.4663405697,15.4198963748,8.4178538368,19.8254166866,14.8554774104s6.6077051843,14.196338265,6.6077051843,23.2742688562c0,8.9963586059-2.1791735363,16.7335082897-6.5317677749,23.2114490514-4.356045939,6.4807535888-10.8625012441,11.4519566454-19.521667049,14.9182972151-8.6591658048,3.4663405697-19.6229169282,5.19904205-32.8901028032,5.19904205h-28.1037448776v-.2475287829c.9112489128-.4950575658,1.6441599701-1.1954515083,2.2021848725-2.1039946547.5557237688-.9076055373.9618738524-2.3721508362,1.2161491172-4.3955111146.2508235644-2.0214850604.379687047-4.9712030567.379687047-8.8510292069v-55.461449115c0-3.8788885412-.1288634826-6.8286065375-.379687047-8.8519668159-.2542752648-2.0214850604-.6604253484-3.5066577578-1.2161491172-4.4564557013-.5580249024-.9479227254-1.2909359597-1.6286268784-2.2021848725-2.043050068v-.2475287829ZM526.7217640338,70.4261956073v56.4515642466c0,3.7138693526.3267609738,6.5201331679.9871863222,8.4178538368.656973648,1.899595887,1.7707223191,3.1784945987,3.3423965803,3.837633744,1.5682225607.6619519725,3.7220836272.9910527406,6.4558303655.9910527406h4.7092699494c10.7336377615,0,19.7230162406-1.6286268784,26.9658343035-4.8905686804,7.2393663625-3.2591289749,12.7344734425-7.9631134591,16.4830201063-14.1128910617,3.7450949634-6.1469647755,5.6205188622-13.6365856764,5.6205188622-22.4688627027,0-8.746954605-1.8754238987-16.2178233254-5.6205188622-22.407918116-3.7485466639-6.1900947907-9.2436537438-10.934396463-16.4830201063-14.2366554531-7.2428180629-3.299446163-16.2321965419-4.9515132671-26.9658343035-4.9515132671h-4.8611447682c-2.6347979927,0-4.735732986.3309759862-6.3039555467.9901151316-1.5716742611.6619519725-2.6854229323,1.9614780827-3.3423965803,3.8995159398-.6604253484,1.9399130751-.9871863222,4.766804289-.9871863222,8.4806736416Z"/>
    </g>
    <g>
      <path class="cls-2" d="M193.7779888964,6.701171875h-.0400390625l-.7802734375,7.4619140625h-3.0205078125l-1.5600585938-14.0029296875h2.1401367188l1.16015625,11.0419921875h.0400390625l1.0405273438-11.0419921875h2.1201171875l1.0805664062,11.1220703125h.0400390625l1.1201171875-11.1220703125h1.9204101562l-1.560546875,14.0029296875h-2.9204101562l-.7802734375-7.4619140625Z"/>
      <path class="cls-2" d="M208.3370709277,14.1630859375h-2.2001953125V.16015625h2.2001953125v6.0009765625h2.5004882812V.16015625h2.2407226562v14.0029296875h-2.2407226562v-6.0009765625h-2.5004882812v6.0009765625Z"/>
      <path class="cls-2" d="M222.8766217089,6.0615234375h3.0209960938v2h-3.0209960938v4.1015625h3.80078125v2h-6.0009765625V.16015625h6.0009765625v2h-3.80078125v3.9013671875Z"/>
      <path class="cls-2" d="M238.6378521777,14.1630859375c-.1201171875-.3603515625-.2001953125-.580078125-.2001953125-1.720703125v-2.2001953125c0-1.2998046875-.4399414062-1.7802734375-1.4404296875-1.7802734375h-.7602539062v5.701171875h-2.2001953125V.16015625h3.3207930842c2.2802811346,0,3.2602616033,1.060546875,3.2602616033,3.220703125v1.1005859375c0,1.439453125-.4599609375,2.3603515625-1.4399414062,2.8203125v.0400390625c1.1000976562.4599609375,1.4599609375,1.5,1.4599609375,2.9609375v2.16015625c0,.6796875.0200195312,1.1796875.240234375,1.7001953125h-2.240234375ZM236.2369732714,2.16015625v4.3017578125h.8603515625c.8203125,0,1.3203125-.3603515625,1.3203125-1.48046875v-1.380859375c0-1-.3403320312-1.4404296875-1.1201171875-1.4404296875h-1.060546875Z"/>
      <path class="cls-2" d="M250.2765240527,6.0615234375h3.0209960938v2h-3.0209960938v4.1015625h3.80078125v2h-6.0009765625V.16015625h6.0009765625v2h-3.80078125v3.9013671875Z"/>
      <path class="cls-2" d="M273.4967388964,0c2.140625,0,3.2407226562,1.2802734375,3.2407226562,3.5205078125v.4404296875h-2.0805664062v-.580078125c0-1-.3999023438-1.3798828125-1.1000976562-1.3798828125s-1.1000976562.3798828125-1.1000976562,1.3798828125c0,1.0205078125.4399414062,1.7802734375,1.8803710938,3.041015625,1.8403320312,1.6201171875,2.4204101562,2.7802734375,2.4204101562,4.380859375,0,2.240234375-1.1201171875,3.5205078125-3.2807617188,3.5205078125-2.16015625,0-3.2807617188-1.2802734375-3.2807617188-3.5205078125v-.8603515625h2.0805664062v1c0,1,.4399414062,1.3603515625,1.1401367188,1.3603515625s1.1401367188-.3603515625,1.1401367188-1.3603515625c0-1.0205078125-.4399414062-1.7802734375-1.8803710938-3.041015625-1.8403320312-1.6201171875-2.4204101562-2.7802734375-2.4204101562-4.380859375,0-2.240234375,1.1000976562-3.5205078125,3.2407226562-3.5205078125Z"/>
      <path class="cls-2" d="M283.8360943652,3.5205078125c0-2.240234375,1.1801757812-3.5205078125,3.3408203125-3.5205078125,2.16015625,0,3.3408203125,1.2802734375,3.3408203125,3.5205078125v7.2822265625c0,2.240234375-1.1806640625,3.5205078125-3.3408203125,3.5205078125-2.1606445312,0-3.3408203125-1.2802734375-3.3408203125-3.5205078125V3.5205078125ZM286.0367779589,10.9423828125c0,1,.4399414062,1.3798828125,1.1401367188,1.3798828125s1.1401367188-.3798828125,1.1401367188-1.3798828125V3.380859375c0-1-.4399414062-1.3798828125-1.1401367188-1.3798828125s-1.1401367188.3798828125-1.1401367188,1.3798828125v7.5615234375Z"/>
      <path class="cls-2" d="M300.0362896777.16015625v10.8017578125c0,1.0009765625.4404296875,1.3603515625,1.140625,1.3603515625s1.1401367188-.359375,1.1401367188-1.3603515625V.16015625h2.0805664062v10.662109375c0,2.240234375-1.1206054688,3.5205078125-3.2807617188,3.5205078125-2.1606445312,0-3.2807617188-1.2802734375-3.2807617188-3.5205078125V.16015625h2.2001953125Z"/>
      <path class="cls-2" d="M313.8966412402,4.0205078125h-.0400390625v10.142578125h-1.98046875V.16015625h2.7602539062l2.220703125,8.3818359375h.0400390625V.16015625h1.9604394628v14.0029296875h-2.2607324316l-2.7001953125-10.142578125Z"/>
      <path class="cls-2" d="M326.4357037402.16015625h3.48046875c2.2006835938,0,3.2807617188,1.2197265625,3.2807617188,3.4609375v7.0810546875c0,2.240234375-1.080078125,3.4609375-3.2807617188,3.4609375h-3.48046875V.16015625ZM328.6358990527,2.16015625v10.0029296875h1.240234375c.7001953125,0,1.1206054688-.3603515625,1.1206054688-1.3603515625V3.5205078125c0-1-.4204101562-1.3603515625-1.1206054688-1.3603515625h-1.240234375Z"/>
      <path class="cls-2" d="M356.2765240527,3.380859375v.5c0,1.4404296875-.4404296875,2.3408203125-1.419921875,2.80078125v.0400390625c1.1796875.4599609375,1.6396484375,1.5,1.6396484375,2.98046875v1.140625c0,2.16015625-1.1396484375,3.3203125-3.3403320312,3.3203125h-3.4604492188V.16015625h3.3208007812c2.2797851562,0,3.2602539062,1.060546875,3.2602539062,3.220703125ZM351.8956646777,2.16015625v3.701171875h.8603515625c.8203125,0,1.3203125-.3603515625,1.3203125-1.48046875v-.7802734375c0-1-.3403320312-1.4404296875-1.1201171875-1.4404296875h-1.060546875ZM351.8956646777,7.861328125v4.3017578125h1.2602539062c.740234375,0,1.140625-.3408203125,1.140625-1.380859375v-1.2197265625c0-1.30078125-.4204101562-1.701171875-1.4204101562-1.701171875h-.98046875Z"/>
      <path class="cls-2" d="M366.0148053027,6.0615234375h3.021484375v2h-3.021484375v4.1015625h3.80078125v2h-6.0009765625V.16015625h6.0009765625v2h-3.80078125v3.9013671875Z"/>
      <path class="cls-2" d="M383.5567974902,8.9423828125v1.8603515625c0,2.240234375-1.1201171875,3.5205078125-3.28125,3.5205078125-2.16015625,0-3.2802734375-1.2802734375-3.2802734375-3.5205078125V3.5205078125c0-2.240234375,1.1201171875-3.5205078125,3.2802734375-3.5205078125,2.1611328125,0,3.28125,1.2802734375,3.28125,3.5205078125v1.3603515625h-2.0810546875v-1.5c0-1-.439453125-1.3798828125-1.1396484375-1.3798828125s-1.140625.3798828125-1.140625,1.3798828125v7.5615234375c0,1,.4404296875,1.3603515625,1.140625,1.3603515625s1.1396484375-.3603515625,1.1396484375-1.3603515625v-2h2.0810546875Z"/>
      <path class="cls-2" d="M390.7150006152,3.5205078125c0-2.240234375,1.1796875-3.5205078125,3.3408203125-3.5205078125,2.16015625,0,3.3408203125,1.2802734375,3.3408203125,3.5205078125v7.2822265625c0,2.240234375-1.1806640625,3.5205078125-3.3408203125,3.5205078125-2.1611328125,0-3.3408203125-1.2802734375-3.3408203125-3.5205078125V3.5205078125ZM392.9151959277,10.9423828125c0,1,.4404296875,1.3798828125,1.140625,1.3798828125s1.1396484375-.3798828125,1.1396484375-1.3798828125V3.380859375c0-1-.439453125-1.3798828125-1.1396484375-1.3798828125s-1.140625.3798828125-1.140625,1.3798828125v7.5615234375Z"/>
      <path class="cls-2" d="M409.4562115527,10.1025390625h.0390625l1.48046875-9.9423828125h3.060546875v14.0029296875h-2.080078125V4.12109375h-.0400390625l-1.48046875,10.0419921875h-2.080078125l-1.6005859375-9.90234375h-.0400390625v9.90234375h-1.919921875V.16015625h3.060546875l1.6005859375,9.9423828125Z"/>
      <path class="cls-2" d="M423.8341412402,6.0615234375h3.021484375v2h-3.021484375v4.1015625h3.80078125v2h-6.0009765625V.16015625h6.0009765625v2h-3.80078125v3.9013671875Z"/>
      <path class="cls-2" d="M437.9542584277,0c2.140625,0,3.2412109375,1.2802734375,3.2412109375,3.5205078125v.4404296875h-2.0810546875v-.580078125c0-1-.3994140625-1.3798828125-1.099609375-1.3798828125s-1.1005859375.3798828125-1.1005859375,1.3798828125c0,1.0205078125.4404296875,1.7802734375,1.880859375,3.041015625,1.83984375,1.6201171875,2.419921875,2.7802734375,2.419921875,4.380859375,0,2.240234375-1.1201171875,3.5205078125-3.2802734375,3.5205078125s-3.28125-1.2802734375-3.28125-3.5205078125v-.8603515625h2.0810546875v1c0,1,.439453125,1.3603515625,1.1396484375,1.3603515625s1.140625-.3603515625,1.140625-1.3603515625c0-1.0205078125-.4404296875-1.7802734375-1.880859375-3.041015625-1.83984375-1.6201171875-2.419921875-2.7802734375-2.419921875-4.380859375,0-2.240234375,1.099609375-3.5205078125,3.240234375-3.5205078125Z"/>
      <path class="cls-2" d="M463.9552349902,8.9423828125v1.8603515625c0,2.240234375-1.1201171875,3.5205078125-3.2802734375,3.5205078125-2.1611328125,0-3.28125-1.2802734375-3.28125-3.5205078125V3.5205078125c0-2.240234375,1.1201171875-3.5205078125,3.28125-3.5205078125,2.16015625,0,3.2802734375,1.2802734375,3.2802734375,3.5205078125v1.3603515625h-2.080078125v-1.5c0-1-.4404296875-1.3798828125-1.140625-1.3798828125s-1.1396484375.3798828125-1.1396484375,1.3798828125v7.5615234375c0,1,.439453125,1.3603515625,1.1396484375,1.3603515625s1.140625-.3603515625,1.140625-1.3603515625v-2h2.080078125Z"/>
      <path class="cls-2" d="M471.1134381152,3.5205078125c0-2.240234375,1.1806640625-3.5205078125,3.3408203125-3.5205078125s3.3408203125,1.2802734375,3.3408203125,3.5205078125v7.2822265625c0,2.240234375-1.1806640625,3.5205078125-3.3408203125,3.5205078125s-3.3408203125-1.2802734375-3.3408203125-3.5205078125V3.5205078125ZM473.3146099902,10.9423828125c0,1,.439453125,1.3798828125,1.1396484375,1.3798828125s1.140625-.3798828125,1.140625-1.3798828125V3.380859375c0-1-.4404296875-1.3798828125-1.140625-1.3798828125s-1.1396484375.3798828125-1.1396484375,1.3798828125v7.5615234375Z"/>
      <path class="cls-2" d="M485.2140240527.16015625h2.2001953125v12.0029296875h3.62109375v2h-5.8212890625V.16015625Z"/>
      <path class="cls-2" d="M497.8136334277,3.5205078125c0-2.240234375,1.1796875-3.5205078125,3.3408203125-3.5205078125,2.16015625,0,3.3408203125,1.2802734375,3.3408203125,3.5205078125v7.2822265625c0,2.240234375-1.1806640625,3.5205078125-3.3408203125,3.5205078125-2.1611328125,0-3.3408203125-1.2802734375-3.3408203125-3.5205078125V3.5205078125ZM500.0138287402,10.9423828125c0,1,.4404296875,1.3798828125,1.140625,1.3798828125s1.1396484375-.3798828125,1.1396484375-1.3798828125V3.380859375c0-1-.439453125-1.3798828125-1.1396484375-1.3798828125s-1.140625.3798828125-1.140625,1.3798828125v7.5615234375Z"/>
      <path class="cls-2" d="M516.5148053027,14.1630859375c-.1201171875-.3603515625-.2001953125-.580078125-.2001953125-1.720703125v-2.2001953125c0-1.2998046875-.4404296875-1.7802734375-1.4404296875-1.7802734375h-.7607421875v5.701171875h-2.2001953125V.16015625h3.3212890625c2.2802734375,0,3.259765625,1.060546875,3.259765625,3.220703125v1.1005859375c0,1.439453125-.4599609375,2.3603515625-1.439453125,2.8203125v.0400390625c1.099609375.4599609375,1.4599609375,1.5,1.4599609375,2.9609375v2.16015625c0,.6796875.01953125,1.1796875.240234375,1.7001953125h-2.240234375ZM514.1134381152,2.16015625v4.3017578125h.8603515625c.8203125,0,1.3203125-.3603515625,1.3203125-1.48046875v-1.380859375c0-1-.33984375-1.4404296875-1.1201171875-1.4404296875h-1.060546875Z"/>
    </g>
  </g>
</svg>