<svg xmlns="http://www.w3.org/2000/svg" xmlns:xlink="http://www.w3.org/1999/xlink" viewBox="0 0 1641.33 1124.71"><defs><style>.cls-1{fill:none;}.cls-2{clip-path:url(#clip-path);}.cls-3{fill:#232222;}.cls-4{fill:#f66;}</style><clipPath id="clip-path"><rect class="cls-1" width="1641.33" height="1124.72"/></clipPath></defs><g id="Layer_2" data-name="Layer 2"><g id="Layer_1-2" data-name="Layer 1"><g class="cls-2"><path class="cls-3" d="M339.37,1118.66H185.89a15.93,15.93,0,0,1-15.68-16.15V581.73a15.92,15.92,0,0,1,15.68-16.14H339.37A15.92,15.92,0,0,1,355,581.73v520.78a15.92,15.92,0,0,1-15.67,16.15Z"/><path class="cls-3" d="M619.26,1118.66H465.78a15.92,15.92,0,0,1-15.67-16.14V375.07a15.92,15.92,0,0,1,15.67-16.14H619.26a15.92,15.92,0,0,1,15.67,16.14v727.45a15.92,15.92,0,0,1-15.67,16.14Z"/><path class="cls-3" d="M899.18,1118.66H745.7A15.93,15.93,0,0,1,730,1102.51V581.73a15.92,15.92,0,0,1,15.68-16.14H899.18a15.92,15.92,0,0,1,15.67,16.14v520.78a15.92,15.92,0,0,1-15.67,16.15Z"/><path class="cls-3" d="M1179.09,1118.66H1025.61a15.55,15.55,0,0,1-15.67-15.4V292.77a15.55,15.55,0,0,1,15.67-15.4h153.48a15.54,15.54,0,0,1,15.67,15.4v810.49A15.54,15.54,0,0,1,1179.09,1118.66Z"/><path class="cls-3" d="M1459,1118.66H1305.53a15.92,15.92,0,0,1-15.68-16.14V146.67a15.92,15.92,0,0,1,15.68-16.14H1459a15.92,15.92,0,0,1,15.67,16.14v955.85a15.92,15.92,0,0,1-15.67,16.14Z"/><path class="cls-4" d="M262.61,500.32c17.5,0,31.69-14.61,31.69-32.63s-14.19-32.63-31.69-32.63-31.69,14.61-31.69,32.63S245.11,500.32,262.61,500.32Z"/><path class="cls-4" d="M542.53,288.24c17.5,0,31.69-14.61,31.69-32.63S560,223,542.53,223s-31.69,14.61-31.69,32.63S525,288.24,542.53,288.24Z"/><path class="cls-4" d="M822.42,500.32c17.5,0,31.69-14.61,31.69-32.63s-14.19-32.63-31.69-32.63-31.69,14.61-31.69,32.63S804.92,500.32,822.42,500.32Z"/><path class="cls-4" d="M1102.35,184.9c17.49,0,31.68-14.61,31.68-32.63s-14.19-32.63-31.68-32.63-31.7,14.61-31.7,32.63S1084.84,184.9,1102.35,184.9Z"/><path class="cls-4" d="M1382.26,65.26c17.5,0,31.69-14.61,31.69-32.63S1399.76,0,1382.26,0s-31.69,14.61-31.69,32.63S1364.76,65.26,1382.26,65.26Z"/><path class="cls-3" d="M1638.86,1124.71H2.47a2.55,2.55,0,0,1,0-5.09H1638.86a2.55,2.55,0,0,1,0,5.09Z"/><path class="cls-4" d="M260.93,469.75l-3-4.1L542.53,247.51l279,214.3,282.82-316.19.52-.23L1379.35,28.73l1.87,4.71-274,116.43L822.15,468.63,542.53,253.85Z"/></g></g></g></svg>