<svg xmlns="http://www.w3.org/2000/svg" viewBox="0 0 2066.07 1913.24"><defs><style>.cls-1{opacity:0.7;}.cls-2{fill:#381fff;}.cls-3{opacity:0.5;}</style></defs><g id="Layer_2" data-name="Layer 2"><g id="Ñëîé_1" data-name="Ñëîé 1"><g class="cls-1"><path class="cls-2" d="M1526.62,36.48c-406.93-129.29-842.14,96-971.43,503s96,842.14,503,971.44,842.15-96,971.44-503S1933.56,165.78,1526.62,36.48Zm-445,1400.69C715.93,1321,512.73,928.53,628.91,562.87S1137.54-6,1503.19,110.2s568.86,508.64,452.68,874.29S1447.24,1553.34,1081.58,1437.17Zm556-472.65c-23.43,73.72-167.42,271.46-462.3,177.77S876.94,804,900.36,730.29Zm-737-477.65a193.42,193.42,0,0,1,361.22,114.78l-76.66-24.36c-1.89-47.68-32.61-91.52-80.52-106.75s-98.3,2.86-127.37,40.69Zm516,164a193.43,193.43,0,0,1,361.23,114.77l-76.67-24.36c-1.89-47.68-32.61-91.52-80.52-106.75s-98.3,2.86-127.37,40.7Z"/></g><g class="cls-3"><circle class="cls-2" cx="217.57" cy="1131.96" r="217.57"/></g><g class="cls-3"><circle class="cls-2" cx="790.86" cy="1790.12" r="123.11"/></g></g></g></svg>