<svg xmlns="http://www.w3.org/2000/svg" xmlns:xlink="http://www.w3.org/1999/xlink" viewBox="0 0 2363.83 1727.76"><defs><style>.cls-1{fill:#d9d9d9;}.cls-2{opacity:0.7;}.cls-3{mask:url(#mask);}.cls-4{opacity:0.8;}.cls-5{fill:#ff1b98;}</style><mask id="mask" x="-707.12" y="0" width="3325.31" height="1875.95" maskUnits="userSpaceOnUse"><g id="mask0_1_1526" data-name="mask0 1 1526"><rect class="cls-1" x="-707.12" y="109.23" width="3325.31" height="1766.72" rx="98.15"/></g></mask></defs><g id="Layer_2" data-name="Layer 2"><g id="Ñëîé_1" data-name="Ñëîé 1"><g class="cls-2"><g class="cls-3"><g class="cls-4"><path class="cls-5" d="M1912.31,259.83l330.63,723.42-690.68,394.48L1647.49,1082l28.27-87.75-90.22-29.06c-357.28-115.07-672.45-119.73-967-12.19,281-303.66,641.91-413.08,1093-335.6L1792.77,631l24.3-75.46ZM1896.42,0,1726.85,526.48C993,399.55,565.43,765.46,305,1230.73c363-267.57,750.6-339.34,1252.23-177.77l-169.56,526.48,976.12-557.25Z"/></g><g class="cls-4"><path class="cls-5" d="M33.89,587.64l93.85,122.3C-30.86,868.25-20,1028.32,43.55,1163.19c.89-129.26,52.06-234.27,178-330.94l93.85,122.3L355.93,632Z"/></g><g class="cls-4"><path class="cls-5" d="M852.09,1518.1l-70.82,69.79c-113.94-88.92-215.54-69.23-296.82-17.84,82.81-9.71,154.1,14.69,226,87.65l-70.81,69.79,209.68.27Z"/></g></g></g></g></g></svg>