<svg xmlns="http://www.w3.org/2000/svg" xmlns:xlink="http://www.w3.org/1999/xlink" viewBox="0 0 1328.05 1097.21"><defs><style>.cls-1{fill:none;}.cls-2{clip-path:url(#clip-path);}.cls-3{opacity:0.5;}.cls-4{opacity:0.3;}.cls-5{clip-path:url(#clip-path-2);}.cls-6{fill:#414223;}.cls-7{fill:#455a64;}.cls-8{fill:#263238;}.cls-9{fill:#ffbe9d;}.cls-10{fill:#eb996e;}.cls-11{fill:#e8505b;}.cls-12{fill:#f5f5f5;}.cls-13{opacity:0.4;}.cls-14{fill:#fff;}</style><clipPath id="clip-path" transform="translate(85.4 86.92)"><rect class="cls-1" width="1223.2" height="872.72"/></clipPath><clipPath id="clip-path-2" transform="translate(85.4 86.92)"><rect class="cls-1" x="-176.4" y="-34.82" width="1418.17" height="1044.48"/></clipPath></defs><g id="Layer_2" data-name="Layer 2"><g id="Layer_1-2" data-name="Layer 1"><g class="cls-2"><g class="cls-3"><g class="cls-4"><g class="cls-5"><path class="cls-6" d="M813.61,119,517.72,309.7c-5.56,3.6-.1,12.3,5.47,8.7L819.07,127.65C824.64,124.06,819.18,115.36,813.61,119Z" transform="translate(85.4 86.92)"/><path class="cls-6" d="M520.47,321.94a7.08,7.08,0,0,1-3.25-.79,8.46,8.46,0,0,1-4.48-7,7.42,7.42,0,0,1,3.54-6.71L812.17,116.69a7.4,7.4,0,0,1,10.53,2.37,7.62,7.62,0,0,1-2.19,10.8L524.62,320.61a7.6,7.6,0,0,1-4.15,1.28ZM815.05,121.19,519.16,312a2.08,2.08,0,0,0-1.09,2,3.18,3.18,0,0,0,1.57,2.51,2,2,0,0,0,2.08-.22L817.61,125.47a2.37,2.37,0,0,0,.61-3.43,2.16,2.16,0,0,0-3.17-.8Z" transform="translate(85.4 86.92)"/><path class="cls-6" d="M904.32,60.48,865.45,85.54c-5.56,3.59-.1,12.29,5.47,8.7l38.86-25.06C915.35,65.58,909.89,56.88,904.32,60.48Z" transform="translate(85.4 86.92)"/><path class="cls-6" d="M868.2,97.78a7.82,7.82,0,0,1-6.4-3.68A7.63,7.63,0,0,1,864,83.3l38.87-25.06a7.26,7.26,0,0,1,7.4-.48,8.46,8.46,0,0,1,4.48,7,7.43,7.43,0,0,1-3.54,6.71L872.33,96.5a7.59,7.59,0,0,1-4.16,1.3ZM907,62.28a2.22,2.22,0,0,0-1.25.43L866.92,87.77a2.36,2.36,0,0,0-.61,3.43,2.15,2.15,0,0,0,3.17.8l38.87-25.06a2.09,2.09,0,0,0,1.09-2,3.19,3.19,0,0,0-1.57-2.5,2,2,0,0,0-.83-.21Z" transform="translate(85.4 86.92)"/><path class="cls-6" d="M426.22-79l13.72,353.68c.26,6.65,10.46,6.17,10.2-.48L436.42-79.52C436.15-86.17,426-85.72,426.22-79Z" transform="translate(85.4 86.92)"/><path class="cls-6" d="M445,282.06a7.42,7.42,0,0,1-7.7-7.32L423.55-78.93a7.59,7.59,0,0,1,7.51-8c3.84-.11,7.84,2.31,8,7.31L452.8,274.08a7.58,7.58,0,0,1-7.51,8ZM428.88-79.14,442.6,274.53a2.23,2.23,0,0,0,2.5,2.21,2.3,2.3,0,0,0,2.4-2.47L433.78-79.41a2.2,2.2,0,0,0-2.5-2.21,2.29,2.29,0,0,0-2.4,2.45Z" transform="translate(85.4 86.92)"/><path class="cls-6" d="M61,162.53,370.59,325.45c5.81,3.06,10.58-6.12,4.77-9.17L65.75,153.35C59.94,150.29,55.18,159.47,61,162.53Z" transform="translate(85.4 86.92)"/><path class="cls-6" d="M373,328.73a7.77,7.77,0,0,1-3.59-.93L59.76,164.87a7.57,7.57,0,0,1-3.09-10.51c1.81-3.43,5.94-5.66,10.33-3.38L376.61,313.91a7.33,7.33,0,0,1,4.08,6.3,8.53,8.53,0,0,1-3.89,7.4,7.1,7.1,0,0,1-3.81,1.12ZM62.23,160.19,371.84,323.11a1.88,1.88,0,0,0,2.11,0,3.24,3.24,0,0,0,1.41-2.68,2,2,0,0,0-1.23-1.79L64.53,155.72a2.22,2.22,0,0,0-3.12,1.14,2.32,2.32,0,0,0,.85,3.33Z" transform="translate(85.4 86.92)"/><path class="cls-6" d="M-33.93,112.59,6.74,134c5.81,3.06,10.58-6.12,4.77-9.18l-40.68-21.42C-35,100.35-39.74,109.53-33.93,112.59Z" transform="translate(85.4 86.92)"/><path class="cls-6" d="M9.11,137.28a8,8,0,0,1-3.62-.93l-40.68-21.42a7.58,7.58,0,0,1-3.09-10.5c1.81-3.44,5.94-5.67,10.34-3.38l40.68,21.41A7.59,7.59,0,0,1,15.83,133,7.78,7.78,0,0,1,9.11,137.28Zm-41.82-27.06L8,131.64a2.22,2.22,0,0,0,3.12-1.14c.18-.38,1.09-2.32-.86-3.33l-40.68-21.41a2.2,2.2,0,0,0-3.11,1.14A2.3,2.3,0,0,0-32.71,110.22Z" transform="translate(85.4 86.92)"/><path class="cls-6" d="M83.15,602.11,379,411.36c5.56-3.59.1-12.29-5.47-8.7L77.68,593.41C72.12,597,77.58,605.7,83.15,602.11Z" transform="translate(85.4 86.92)"/><path class="cls-6" d="M80.43,605.62a7.08,7.08,0,0,1-3.25-.79,8.46,8.46,0,0,1-4.48-7,7.41,7.41,0,0,1,3.55-6.71L372.13,400.4a7.28,7.28,0,0,1,7.41-.48,8.43,8.43,0,0,1,4.48,7,7.41,7.41,0,0,1-3.55,6.7L84.58,604.35A7.58,7.58,0,0,1,80.43,605.62ZM376.29,404.44a2.17,2.17,0,0,0-1.25.43L79.15,595.62a2.08,2.08,0,0,0-1.09,2,3.16,3.16,0,0,0,1.57,2.5,2,2,0,0,0,2.08-.21L377.6,409.12a2.09,2.09,0,0,0,1.09-2,3.16,3.16,0,0,0-1.57-2.49A1.84,1.84,0,0,0,376.29,404.44Z" transform="translate(85.4 86.92)"/><path class="cls-6" d="M-7.56,660.59l38.87-25.06c5.56-3.59.1-12.29-5.47-8.7L-13,651.89C-18.59,655.48-13.13,664.18-7.56,660.59Z" transform="translate(85.4 86.92)"/><path class="cls-6" d="M-10.28,664.1a7.1,7.1,0,0,1-3.25-.8,8.36,8.36,0,0,1-4.45-7,7.41,7.41,0,0,1,3.55-6.7l38.86-25.07a7.23,7.23,0,0,1,7.41-.47,8.42,8.42,0,0,1,4.47,7,7.38,7.38,0,0,1-3.54,6.7L-6.1,662.82a7.6,7.6,0,0,1-4.15,1.28Zm38.84-35.46a2.22,2.22,0,0,0-1.25.42l-38.87,25.06a2.11,2.11,0,0,0-1.09,2,3.16,3.16,0,0,0,1.57,2.5A2,2,0,0,0-9,658.38l38.86-25.06a2.09,2.09,0,0,0,1.1-2,3.17,3.17,0,0,0-1.58-2.5,1.75,1.75,0,0,0-.82-.21Z" transform="translate(85.4 86.92)"/><path class="cls-6" d="M470.54,800.13,456.82,446.45c-.26-6.65-10.46-6.2-10.2.48l13.72,353.68C460.61,807.26,470.81,806.81,470.54,800.13Z" transform="translate(85.4 86.92)"/><path class="cls-6" d="M465.35,808a7.42,7.42,0,0,1-7.7-7.31L443.93,447a7.58,7.58,0,0,1,7.51-8,7.38,7.38,0,0,1,8,7.31L473.18,800a7.58,7.58,0,0,1-7.51,8ZM451.76,444.35h-.1a2.3,2.3,0,0,0-2.4,2.47L463,800.5a2.22,2.22,0,0,0,2.5,2.21,2.3,2.3,0,0,0,2.4-2.48L454.16,446.56a2.17,2.17,0,0,0-2.37-2.21Z" transform="translate(85.4 86.92)"/><path class="cls-6" d="M474.75,908.54l-1.81-46.48c-.27-6.65-10.47-6.2-10.2.48L464.55,909C464.82,915.67,475,915.22,474.75,908.54Z" transform="translate(85.4 86.92)"/><path class="cls-6" d="M469.56,916.44a7.9,7.9,0,0,1-3.79-.93,7.39,7.39,0,0,1-3.91-6.41l-1.81-46.48a7.58,7.58,0,0,1,7.51-8,7.39,7.39,0,0,1,8,7.32l1.81,46.47a7.44,7.44,0,0,1-3.44,6.76A8.2,8.2,0,0,1,469.56,916.44ZM467.91,860h-.11a2.3,2.3,0,0,0-2.4,2.47l1.81,46.48a2,2,0,0,0,1.07,1.89,3,3,0,0,0,2.88-.14,2.14,2.14,0,0,0,.95-2l-1.81-46.48a2.17,2.17,0,0,0-2.37-2.21Z" transform="translate(85.4 86.92)"/><path class="cls-6" d="M835.78,558.54,526.17,395.61c-5.81-3.06-10.58,6.12-4.77,9.18L831,567.71C836.82,570.77,841.59,561.59,835.78,558.54Z" transform="translate(85.4 86.92)"/><path class="cls-6" d="M833.38,571a7.86,7.86,0,0,1-3.6-.94L520.17,407.13a7.35,7.35,0,0,1-4.07-6.31,8.51,8.51,0,0,1,3.89-7.39,7.29,7.29,0,0,1,7.43-.19L837,556.17a7.33,7.33,0,0,1,4.08,6.3,8.56,8.56,0,0,1-3.89,7.4,7.2,7.2,0,0,1-3.81,1.12ZM523.83,397.66a1.89,1.89,0,0,0-1,.29,3.26,3.26,0,0,0-1.41,2.69,2,2,0,0,0,1.22,1.78L832.26,565.35a1.92,1.92,0,0,0,2.11,0,3.27,3.27,0,0,0,1.41-2.69,2,2,0,0,0-1.23-1.79L524.94,398a2.39,2.39,0,0,0-1.11-.32Z" transform="translate(85.4 86.92)"/><path class="cls-6" d="M930.7,608.5,890,587.08c-5.81-3.06-10.58,6.12-4.77,9.18l40.68,21.42C931.73,620.74,936.5,611.56,930.7,608.5Z" transform="translate(85.4 86.92)"/><path class="cls-6" d="M928.3,621a7.81,7.81,0,0,1-3.6-.93L884,598.6a7.59,7.59,0,0,1-3.09-10.51c1.81-3.4,5.94-5.67,10.34-3.38L932,606.13a7.3,7.3,0,0,1,4.07,6.3,8.51,8.51,0,0,1-3.89,7.4A7.17,7.17,0,0,1,928.3,621Zm-40.63-31.82a2.48,2.48,0,0,0-2,1.44,2.3,2.3,0,0,0,.85,3.32l40.68,21.42a1.9,1.9,0,0,0,2.1,0,3.28,3.28,0,0,0,1.42-2.69,2,2,0,0,0-1.23-1.78l-40.68-21.42A2.36,2.36,0,0,0,887.67,589.13Z" transform="translate(85.4 86.92)"/><path class="cls-6" d="M513.11,47.2,466.52,255.86c-1.44,6.49,8.5,8.72,10,2.21L523.07,49.41C524.51,42.92,514.58,40.68,513.11,47.2Z" transform="translate(85.4 86.92)"/><path class="cls-6" d="M471.66,264.64a8.33,8.33,0,0,1-5.59-2.13,7.39,7.39,0,0,1-2.16-7.24L510.5,46.61A7.77,7.77,0,0,1,525.66,50L479.07,258.65a7.42,7.42,0,0,1-5,5.64,8,8,0,0,1-2.4.37ZM515.72,47.79,469.13,256.44a2.13,2.13,0,0,0,.56,2.16,3,3,0,0,0,2.8.61,2.08,2.08,0,0,0,1.41-1.7L520.49,48.85a2.45,2.45,0,0,0-4.77-1.06Z" transform="translate(85.4 86.92)"/><path class="cls-6" d="M530.4-30.19l-7.14,32c-1.44,6.49,8.5,8.72,10,2.21l7.14-32C541.8-34.47,531.87-36.71,530.4-30.19Z" transform="translate(85.4 86.92)"/><path class="cls-6" d="M528.41,10.57a8.35,8.35,0,0,1-5.6-2.13,7.39,7.39,0,0,1-2.16-7.24l7.14-32a7.45,7.45,0,0,1,5-5.64,8.35,8.35,0,0,1,8,1.79A7.37,7.37,0,0,1,543-27.4l-7.14,32a7.39,7.39,0,0,1-5,5.64,8.12,8.12,0,0,1-2.4.37Zm6.79-42a2.43,2.43,0,0,0-.77.1A2.07,2.07,0,0,0,533-29.63l-7.14,32a2.13,2.13,0,0,0,.56,2.16,3,3,0,0,0,2.8.61,2.06,2.06,0,0,0,1.41-1.7l7.14-32a2.09,2.09,0,0,0-.56-2.15,3,3,0,0,0-2-.75Z" transform="translate(85.4 86.92)"/><path class="cls-6" d="M213,148.8l155,144c4.82,4.49,11.77-3.14,6.93-7.64l-155-144C215.07,136.67,208.11,144.31,213,148.8Z" transform="translate(85.4 86.92)"/><path class="cls-6" d="M371.2,296.91a7.19,7.19,0,0,1-5-2.1l-155-144a7.33,7.33,0,0,1-2.29-7.18,8.51,8.51,0,0,1,5.65-6.1,7.31,7.31,0,0,1,7.22,1.76l155,144a7.59,7.59,0,0,1,.24,11,7.93,7.93,0,0,1-5.75,2.64ZM216.64,142.47a2.6,2.6,0,0,0-.59.08,3.23,3.23,0,0,0-2,2.21,2.08,2.08,0,0,0,.72,2.1l155,144a2.17,2.17,0,0,0,3.28-.26,2.36,2.36,0,0,0,0-3.49l-155-144a2.07,2.07,0,0,0-1.44-.67Z" transform="translate(85.4 86.92)"/><path class="cls-6" d="M155.45,95.38l23.76,22.08c4.82,4.5,11.78-3.14,6.93-7.63L162.37,87.74C157.55,83.25,150.6,90.88,155.45,95.38Z" transform="translate(85.4 86.92)"/><path class="cls-6" d="M182.43,121.48a7.19,7.19,0,0,1-5-2.1L153.64,97.3a7.32,7.32,0,0,1-2.29-7.19A8.46,8.46,0,0,1,157,84a7.28,7.28,0,0,1,7.2,1.76l23.76,22a7.61,7.61,0,0,1,.24,11,8,8,0,0,1-5.78,2.63ZM159.15,89a2.6,2.6,0,0,0-.59.08,3.19,3.19,0,0,0-2,2.21,2.08,2.08,0,0,0,.72,2.1L181,115.49a2.18,2.18,0,0,0,3.28-.26,2.36,2.36,0,0,0,0-3.49L160.56,89.66a2.07,2.07,0,0,0-1.44-.67Z" transform="translate(85.4 86.92)"/><path class="cls-6" d="M62.5,9,86.26,31.08c4.82,4.49,11.78-3.14,6.93-7.64L69.43,1.36C64.6-3.14,57.65,4.5,62.5,9Z" transform="translate(85.4 86.92)"/><path class="cls-6" d="M89.49,35.12a7.2,7.2,0,0,1-5-2.1L60.69,10.94a7.61,7.61,0,0,1-.24-11C63.06-2.87,67.62-4,71.26-.58L95,21.5a7.61,7.61,0,0,1,.24,11,8,8,0,0,1-5.76,2.63ZM64.31,7.05,88.07,29.14a2.18,2.18,0,0,0,3.28-.27,2.36,2.36,0,0,0,0-3.49L67.62,3.3a2.18,2.18,0,0,0-3.28.27A2.35,2.35,0,0,0,64.31,7.05Z" transform="translate(85.4 86.92)"/><path class="cls-6" d="M148.2,462.15l201.61-64.6c6.29-2,3.25-11.86-3-9.84L145.16,452.3C138.88,454.33,141.91,464.17,148.2,462.15Z" transform="translate(85.4 86.92)"/><path class="cls-6" d="M146.52,465.07a7.51,7.51,0,0,1-7.06-5.48,7.66,7.66,0,0,1,4.9-9.87L346,385.1c4.75-1.52,8.4,1.41,9.57,5.06a7.66,7.66,0,0,1-4.9,9.87L149,464.62a7.91,7.91,0,0,1-2.51.4Zm201.9-75a3.09,3.09,0,0,0-.79.13L146,454.83a2.34,2.34,0,0,0-1.44,3.17,2.18,2.18,0,0,0,2.85,1.62L349,395a2.37,2.37,0,0,0,1.46-3.16,2.29,2.29,0,0,0-2.05-1.76Z" transform="translate(85.4 86.92)"/><path class="cls-6" d="M73.4,486.12l30.9-9.9c6.28-2,3.25-11.86-3-9.84l-30.9,9.89C64.07,478.3,67.11,488.14,73.4,486.12Z" transform="translate(85.4 86.92)"/><path class="cls-6" d="M71.72,489a7.51,7.51,0,0,1-7.06-5.48,7.66,7.66,0,0,1,4.9-9.87l30.9-9.89c4.72-1.52,8.39,1.41,9.57,5.05a7.61,7.61,0,0,1-4.91,9.84l-30.9,9.9a7.85,7.85,0,0,1-2.5.4Zm31.17-20.3a3.14,3.14,0,0,0-.8.14l-30.9,9.9a2.33,2.33,0,0,0-1.44,3.16,2.18,2.18,0,0,0,2.85,1.62l30.9-9.89a2.35,2.35,0,0,0,1.44-3.17A2.3,2.3,0,0,0,102.89,468.74Z" transform="translate(85.4 86.92)"/><path class="cls-6" d="M383.62,673.86l46.59-208.65c1.44-6.49-8.5-8.73-10-2.21l-46.6,208.66C372.22,678.15,382.15,680.38,383.62,673.86Z" transform="translate(85.4 86.92)"/><path class="cls-6" d="M378.74,680.44a10.43,10.43,0,0,1-1.78-.19A7.55,7.55,0,0,1,371,671.1l46.6-208.66a7.76,7.76,0,0,1,15.15,3.38L386.2,674.47a7.43,7.43,0,0,1-7.49,6ZM425,461.75a2.09,2.09,0,0,0-2.18,1.83l-46.6,208.66a2.25,2.25,0,0,0,1.87,2.82A2.23,2.23,0,0,0,381,673.3L427.6,464.65a2.25,2.25,0,0,0-1.89-2.82,3.53,3.53,0,0,0-.69-.08Z" transform="translate(85.4 86.92)"/><path class="cls-6" d="M366.33,751.28l7.14-32c1.44-6.49-8.5-8.72-10-2.2l-7.13,32C354.93,755.57,364.86,757.8,366.33,751.28Z" transform="translate(85.4 86.92)"/><path class="cls-6" d="M361.45,757.83a8.35,8.35,0,0,1-1.78-.19,7.54,7.54,0,0,1-5.92-9.15l7.14-32a7.77,7.77,0,0,1,15.16,3.38l-7.14,32a7.41,7.41,0,0,1-7.48,6Zm6.85-42a2.09,2.09,0,0,0-2.18,1.83l-7.14,32a2.43,2.43,0,0,0,4.74,1.07l7.14-32A2.25,2.25,0,0,0,369,715.9,3.53,3.53,0,0,0,368.3,715.82Z" transform="translate(85.4 86.92)"/><path class="cls-6" d="M338.38,876.38l7.14-32c1.44-6.49-8.5-8.73-10-2.21l-7.14,32C327,880.66,336.92,882.89,338.38,876.38Z" transform="translate(85.4 86.92)"/><path class="cls-6" d="M333.51,883a7.72,7.72,0,0,1-1.76-.19,7.54,7.54,0,0,1-5.92-9.15l7.14-32A7.77,7.77,0,0,1,348.13,845L341,877a7.44,7.44,0,0,1-7.48,6Zm6.84-42a2.09,2.09,0,0,0-2.18,1.84l-7.14,32a2.25,2.25,0,0,0,1.89,2.82,2.22,2.22,0,0,0,2.88-1.75l7.14-32a2.26,2.26,0,0,0-1.89-2.82A3.55,3.55,0,0,0,340.35,840.94Z" transform="translate(85.4 86.92)"/><path class="cls-6" d="M683.79,572.26l-155-144c-4.82-4.5-11.78,3.14-6.93,7.63l155,144C681.69,584.39,688.64,576.76,683.79,572.26Z" transform="translate(85.4 86.92)"/><path class="cls-6" d="M680.09,583.94a7.19,7.19,0,0,1-5-2.1l-155-144a7.6,7.6,0,0,1-.24-11c2.61-2.82,7.17-3.91,10.81-.53l155,144a7.61,7.61,0,0,1,.24,11A8,8,0,0,1,680.09,583.94ZM525.5,429.53a2.69,2.69,0,0,0-1.81.91,2.34,2.34,0,0,0,0,3.48l155,144a2.18,2.18,0,0,0,3.28-.27,2.35,2.35,0,0,0,0-3.49l-155-144A2.11,2.11,0,0,0,525.5,429.53Z" transform="translate(85.4 86.92)"/><path class="cls-6" d="M741.31,625.71l-23.76-22.08c-4.82-4.5-11.78,3.14-6.93,7.63l23.76,22.09C739.21,637.84,746.16,630.21,741.31,625.71Z" transform="translate(85.4 86.92)"/><path class="cls-6" d="M737.58,637.36a7.19,7.19,0,0,1-5-2.1l-23.77-22.08a7.35,7.35,0,0,1-2.29-7.18,8.51,8.51,0,0,1,5.65-6.1,7.31,7.31,0,0,1,7.22,1.76l23.76,22.08a7.61,7.61,0,0,1,.24,11A8,8,0,0,1,737.58,637.36ZM714.3,604.91a2.09,2.09,0,0,0-.59.08,3.23,3.23,0,0,0-2,2.2,2.07,2.07,0,0,0,.72,2.1l23.76,22.09a2.18,2.18,0,0,0,3.28-.27,2.35,2.35,0,0,0,0-3.48l-23.76-22.09a2.19,2.19,0,0,0-1.44-.66Z" transform="translate(85.4 86.92)"/><path class="cls-6" d="M834.26,712.07,810.5,690c-4.83-4.5-11.78,3.13-6.93,7.63l23.76,22.08C832.15,724.2,839.11,716.56,834.26,712.07Z" transform="translate(85.4 86.92)"/><path class="cls-6" d="M830.56,723.75a7.2,7.2,0,0,1-5-2.1l-23.76-22.09a7.31,7.31,0,0,1-2.29-7.18,8.45,8.45,0,0,1,5.64-6.09,7.27,7.27,0,0,1,7.2,1.75l23.76,22.06a7.61,7.61,0,0,1,.24,11,8,8,0,0,1-5.75,2.63Zm-23.29-32.46a2.52,2.52,0,0,0-.58.08,3.12,3.12,0,0,0-2,2.21,2.1,2.1,0,0,0,.72,2.1l23.76,22.08a2.19,2.19,0,0,0,3.28-.26,2.36,2.36,0,0,0,0-3.49l-23.77-22.08a2,2,0,0,0-1.44-.67Z" transform="translate(85.4 86.92)"/><path class="cls-6" d="M748.56,258.94,547,323.54c-6.29,2-3.25,11.86,3,9.84l201.61-64.59C757.88,266.77,754.84,256.92,748.56,258.94Z" transform="translate(85.4 86.92)"/><path class="cls-6" d="M548.31,336.33a7,7,0,0,1-4.8-1.86,8.44,8.44,0,0,1-2.53-7.93,7.42,7.42,0,0,1,5.14-5.53l201.61-64.62c4.74-1.52,8.39,1.41,9.57,5.05a7.66,7.66,0,0,1-4.91,9.87l-201.61,64.6a8.15,8.15,0,0,1-2.45.4Zm201.05-74.86L547.75,326.09a2.06,2.06,0,0,0-1.55,1.6,3.16,3.16,0,0,0,.88,2.84,1.91,1.91,0,0,0,2,.35l201.61-64.59a2.4,2.4,0,0,0,1.47-3.17,2.17,2.17,0,0,0-2.85-1.62Z" transform="translate(85.4 86.92)"/><path class="cls-6" d="M823.33,235l-30.9,9.9c-6.28,2-3.25,11.87,3,9.84l30.9-9.89C832.66,242.79,829.62,233,823.33,235Z" transform="translate(85.4 86.92)"/><path class="cls-6" d="M793.84,257.64a7.14,7.14,0,0,1-4.82-1.86,8.48,8.48,0,0,1-2.53-7.93,7.43,7.43,0,0,1,5.15-5.54l30.9-9.89c4.71-1.52,8.36,1.41,9.56,5.05a7.63,7.63,0,0,1-4.9,9.87l-30.9,9.9A7.91,7.91,0,0,1,793.84,257.64Zm30.32-20.14-30.9,9.9a2,2,0,0,0-1.55,1.59,3.18,3.18,0,0,0,.88,2.85,2,2,0,0,0,2.06.35l30.9-9.9a2.35,2.35,0,0,0,1.44-3.17,2.19,2.19,0,0,0-2.86-1.62Z" transform="translate(85.4 86.92)"/><path class="cls-6" d="M944.23,196.24l-30.91,9.89c-6.28,2-3.25,11.87,3,9.85l30.9-9.9C953.55,204.06,950.51,194.21,944.23,196.24Z" transform="translate(85.4 86.92)"/><path class="cls-6" d="M914.74,218.9a7.1,7.1,0,0,1-4.83-1.86,8.47,8.47,0,0,1-2.53-7.93,7.43,7.43,0,0,1,5.12-5.53l30.9-9.9a7.24,7.24,0,0,1,7.27,1.47,8.41,8.41,0,0,1,2.53,7.92,7.42,7.42,0,0,1-5.14,5.54l-30.9,9.89a7.9,7.9,0,0,1-2.45.4Zm31.17-20.3a3.14,3.14,0,0,0-.83.14l-30.9,9.89a2.07,2.07,0,0,0-1.55,1.6,3.11,3.11,0,0,0,.91,2.85,1.94,1.94,0,0,0,2.05.34l30.9-9.89a2.07,2.07,0,0,0,1.55-1.6,3.18,3.18,0,0,0-.88-2.85,1.78,1.78,0,0,0-1.23-.48Z" transform="translate(85.4 86.92)"/><path class="cls-6" d="M710,413.51,587.12,386.14c-6.42-1.44-8.69,8.67-2.27,10.08L707.72,423.6C714.14,425,716.4,414.92,710,413.51Z" transform="translate(85.4 86.92)"/><path class="cls-6" d="M708.91,426.39a8.55,8.55,0,0,1-1.78-.21L584.27,398.8a7.28,7.28,0,0,1-5.54-5,8.53,8.53,0,0,1,1.81-8.17,7.27,7.27,0,0,1,7.14-2.15l122.86,27.37a7.28,7.28,0,0,1,5.54,5,8.53,8.53,0,0,1-1.81,8.17,7.1,7.1,0,0,1-5.36,2.34Zm-123-37.75a1.89,1.89,0,0,0-1.44.64,3.26,3.26,0,0,0-.66,3,2,2,0,0,0,1.62,1.38L708.28,421a2,2,0,0,0,2.05-.56,3.25,3.25,0,0,0,.66-3,2,2,0,0,0-1.62-1.38L586.51,388.72A2.85,2.85,0,0,0,585.89,388.64Z" transform="translate(85.4 86.92)"/><path class="cls-6" d="M796.32,432.75l-53.15-11.84c-6.42-1.44-8.68,8.67-2.26,10.08l53.15,11.84c6.42,1.44,8.68-8.67,2.26-10.11Z" transform="translate(85.4 86.92)"/><path class="cls-6" d="M795.28,445.62a7,7,0,0,1-1.78-.21l-53.15-11.84a7.28,7.28,0,0,1-5.54-5,8.54,8.54,0,0,1,1.81-8.17,7.27,7.27,0,0,1,7.14-2.15l53.15,11.83c4.87,1.1,6.55,5.48,5.7,9.29a7.68,7.68,0,0,1-7.33,6.2ZM742,423.41a1.89,1.89,0,0,0-1.44.64,3.26,3.26,0,0,0-.66,3,2,2,0,0,0,1.62,1.38l53.15,11.84a2.32,2.32,0,0,0,2.77-2,2.26,2.26,0,0,0-1.65-2.95l-53.15-11.84a2.69,2.69,0,0,0-.61-.08Z" transform="translate(85.4 86.92)"/><path class="cls-6" d="M975.66,472.68l-96.3-21.44c-6.42-1.44-8.69,8.67-2.27,10.08l96.31,21.45C979.82,484.2,982.08,474.09,975.66,472.68Z" transform="translate(85.4 86.92)"/><path class="cls-6" d="M974.6,485.58a6.94,6.94,0,0,1-1.79-.21l-96.3-21.44c-4.88-1.09-6.55-5.51-5.7-9.29a7.55,7.55,0,0,1,9.11-6l96.3,21.44a7.28,7.28,0,0,1,5.54,5,8.52,8.52,0,0,1-1.81,8.16A7.09,7.09,0,0,1,974.6,485.58Zm-96.44-31.81c-1.62,0-2.08,1.67-2.16,2a2.26,2.26,0,0,0,1.65,2.95L974,480.19a2,2,0,0,0,2-.56,3.25,3.25,0,0,0,.66-3,2,2,0,0,0-1.62-1.39l-96.3-21.44a2.85,2.85,0,0,0-.62-.08Z" transform="translate(85.4 86.92)"/><path class="cls-6" d="M625.91,157.47l-85.52,94.16c-4.45,4.92,3,11.89,7.51,7l85.52-94.16C637.87,159.52,630.38,152.55,625.91,157.47Z" transform="translate(85.4 86.92)"/><path class="cls-6" d="M544.39,262.93a8.1,8.1,0,0,1-5.33-2.13,7.61,7.61,0,0,1-.64-11l85.52-94.15a7.31,7.31,0,0,1,7.06-2.4,8.35,8.35,0,0,1,6.07,5.53,7.44,7.44,0,0,1-1.71,7.4l-85.51,94.15a7.32,7.32,0,0,1-5.49,2.56Zm85.09-104.5a2.16,2.16,0,0,0-1.58.8l-85.51,94.15a2.34,2.34,0,0,0,.27,3.46,2.17,2.17,0,0,0,3.27-.08l85.52-94.15a2,2,0,0,0,.56-2.18,3.09,3.09,0,0,0-2.13-2,2.18,2.18,0,0,0-.43-.05Z" transform="translate(85.4 86.92)"/><path class="cls-6" d="M686,91.31,649,132c-4.45,4.92,3,11.89,7.51,7l37-40.71C698,93.36,690.48,86.39,686,91.31Z" transform="translate(85.4 86.92)"/><path class="cls-6" d="M653,143.35a8.05,8.05,0,0,1-1.54-.16,8.35,8.35,0,0,1-6.08-5.54,7.42,7.42,0,0,1,1.71-7.39l37-40.71c3.32-3.69,8-3,10.81-.42a7.63,7.63,0,0,1,.64,11l-37,40.7a7.46,7.46,0,0,1-5.51,2.55Zm36.61-51a2.13,2.13,0,0,0-1.6.8l-37,40.7a2.07,2.07,0,0,0-.56,2.19,3.08,3.08,0,0,0,2.13,2,2,2,0,0,0,2-.77l37-40.7a2.35,2.35,0,0,0-.27-3.46,2.61,2.61,0,0,0-1.68-.72Z" transform="translate(85.4 86.92)"/><path class="cls-6" d="M810.81-46.1l-67,73.8c-4.45,4.92,3,11.89,7.51,7l67-73.8C822.77-44,815.29-51,810.81-46.1Z" transform="translate(85.4 86.92)"/><path class="cls-6" d="M747.79,39a8.07,8.07,0,0,1-5.33-2.13,7.62,7.62,0,0,1-.64-11l67-73.8a7.33,7.33,0,0,1,7.06-2.4A8.36,8.36,0,0,1,822-44.77a7.42,7.42,0,0,1-1.71,7.39l-67,73.8A7.3,7.3,0,0,1,747.76,39Zm66.59-84.13a2.12,2.12,0,0,0-1.57.8l-67,73.8a2.35,2.35,0,0,0,.26,3.46,2.16,2.16,0,0,0,3.28-.08l67-73.8a2,2,0,0,0,.56-2.18,3.07,3.07,0,0,0-2.13-2,2,2,0,0,0-.42,0Z" transform="translate(85.4 86.92)"/><path class="cls-6" d="M364.3,104.5,401.65,226c1.94,6.33,11.7,3.22,9.75-3.14L374.05,101.37c-1.94-6.34-11.69-3.22-9.75,3.11Z" transform="translate(85.4 86.92)"/><path class="cls-6" d="M406.26,232.15a8.09,8.09,0,0,1-1.76-.18,7.27,7.27,0,0,1-5.38-5.17L361.77,105.28A7.61,7.61,0,0,1,367,95.62a7.42,7.42,0,0,1,9.59,5L414,222.12a7.51,7.51,0,0,1-1.6,7.43,8.48,8.48,0,0,1-6.1,2.63Zm-39.4-128.44,37.35,121.53a2,2,0,0,0,1.49,1.54,3.1,3.1,0,0,0,2.77-.88,2.08,2.08,0,0,0,.4-2.23L371.52,102.14a2.17,2.17,0,0,0-2.93-1.47A2.37,2.37,0,0,0,366.86,103.71Z" transform="translate(85.4 86.92)"/><path class="cls-6" d="M338.06,19.11l16.15,52.54c1.94,6.33,11.69,3.22,9.75-3.11L347.81,16C345.87,9.66,336.12,12.77,338.06,19.11Z" transform="translate(85.4 86.92)"/><path class="cls-6" d="M358.81,77.79a8,8,0,0,1-1.75-.18,7.28,7.28,0,0,1-5.39-5.16L335.53,19.9a7.5,7.5,0,0,1,1.6-7.42A8.34,8.34,0,0,1,345,10.06a7.25,7.25,0,0,1,5.38,5.16l16.14,52.54a7.51,7.51,0,0,1-1.59,7.43,8.5,8.5,0,0,1-6.11,2.63ZM340.62,18.33l16.14,52.55a2,2,0,0,0,1.49,1.54,3.11,3.11,0,0,0,2.78-.88,2.08,2.08,0,0,0,.4-2.23L345.28,16.76a2,2,0,0,0-1.49-1.54,3.09,3.09,0,0,0-2.77.88A2.08,2.08,0,0,0,340.62,18.33Z" transform="translate(85.4 86.92)"/><path class="cls-6" d="M186.77,307.58,309.64,335c6.42,1.44,8.68-8.67,2.26-10.08L189,297.49C182.62,296.06,180.35,306.17,186.77,307.58Z" transform="translate(85.4 86.92)"/><path class="cls-6" d="M310.86,337.75a7,7,0,0,1-1.78-.22L186.21,310.16a7.31,7.31,0,0,1-5.54-5,8.54,8.54,0,0,1,1.81-8.17,7.31,7.31,0,0,1,7.14-2.15l122.87,27.37c4.87,1.09,6.55,5.51,5.7,9.29a7.68,7.68,0,0,1-7.33,6.2ZM187.84,300a1.93,1.93,0,0,0-1.44.64,3.25,3.25,0,0,0-.66,3,2,2,0,0,0,1.62,1.39l122.86,27.37a2.31,2.31,0,0,0,2.77-2,2.25,2.25,0,0,0-1.65-2.95L188.48,300.07a2.77,2.77,0,0,0-.61-.08Z" transform="translate(85.4 86.92)"/><path class="cls-6" d="M100.43,288.34l53.15,11.84c6.42,1.44,8.69-8.67,2.27-10.08L102.7,278.26C96.28,276.82,94,286.93,100.43,288.34Z" transform="translate(85.4 86.92)"/><path class="cls-6" d="M154.78,303a7,7,0,0,1-1.78-.21L99.85,290.92c-4.88-1.09-6.55-5.51-5.7-9.28a7.57,7.57,0,0,1,9.11-6l53.14,11.84c4.88,1.09,6.56,5.51,5.71,9.28A7.69,7.69,0,0,1,154.78,303ZM101,285.74l53.15,11.83a2.32,2.32,0,0,0,2.77-2,2.26,2.26,0,0,0-1.65-3l-53.15-11.84a2.33,2.33,0,0,0-2.77,2A2.26,2.26,0,0,0,101,285.74Z" transform="translate(85.4 86.92)"/><path class="cls-6" d="M-78.9,248.38l96.3,21.44c6.42,1.44,8.68-8.67,2.26-10.08l-96.3-21.44C-83.06,236.86-85.32,247-78.9,248.38Z" transform="translate(85.4 86.92)"/><path class="cls-6" d="M18.6,272.64a8,8,0,0,1-1.79-.21L-79.49,251c-4.88-1.09-6.55-5.48-5.7-9.29a7.55,7.55,0,0,1,9.11-6l96.3,21.44a7.28,7.28,0,0,1,5.54,5A8.54,8.54,0,0,1,24,270.3,7.09,7.09,0,0,1,18.6,272.64Zm-96.44-31.81c-1.62,0-2.08,1.67-2.16,2a2.26,2.26,0,0,0,1.66,3L18,267.24a2,2,0,0,0,2.05-.55,3.28,3.28,0,0,0,.67-3,2,2,0,0,0-1.63-1.39l-96.3-21.44a2.85,2.85,0,0,0-.62-.08Z" transform="translate(85.4 86.92)"/><path class="cls-6" d="M270.82,563.62l85.52-94.16c4.45-4.92-3-11.89-7.52-7l-85.51,94.16C258.86,561.57,266.35,568.54,270.82,563.62Z" transform="translate(85.4 86.92)"/><path class="cls-6" d="M267.33,568a8,8,0,0,1-5.33-2.13,7.62,7.62,0,0,1-.63-11l85.51-94.16a7.43,7.43,0,0,1,10.82-.42,7.64,7.64,0,0,1,.64,11L272.82,565.4A7.29,7.29,0,0,1,267.33,568Zm85.09-104.5a2.19,2.19,0,0,0-1.6.8L265.31,558.4a2.35,2.35,0,0,0,.26,3.46,2.16,2.16,0,0,0,3.28-.08l85.52-94.15a2.35,2.35,0,0,0-.27-3.46,2.69,2.69,0,0,0-1.68-.75Z" transform="translate(85.4 86.92)"/><path class="cls-6" d="M210.72,629.75l37-40.7c4.45-4.92-3-11.89-7.51-7l-37,40.7C198.76,627.71,206.25,634.68,210.72,629.75Z" transform="translate(85.4 86.92)"/><path class="cls-6" d="M207.18,634.12a8.16,8.16,0,0,1-1.55-.16,8.35,8.35,0,0,1-6.07-5.54,7.4,7.4,0,0,1,1.71-7.39l37-40.71a7.43,7.43,0,0,1,10.82-.42,7.64,7.64,0,0,1,.64,11l-37,40.7a7.36,7.36,0,0,1-5.51,2.55Zm36.6-51.06a2.23,2.23,0,0,0-1.6.8l-37,40.7a2.06,2.06,0,0,0-.56,2.19,3.11,3.11,0,0,0,2.13,2,2,2,0,0,0,2-.78l37-40.7a2.35,2.35,0,0,0-.26-3.46,2.61,2.61,0,0,0-1.68-.74Z" transform="translate(85.4 86.92)"/><path class="cls-6" d="M85.92,767.16l67-73.79c4.48-4.93-3-11.9-7.51-7l-67,73.8C74,765.12,81.44,772.09,85.92,767.16Z" transform="translate(85.4 86.92)"/><path class="cls-6" d="M82.4,771.53a8.15,8.15,0,0,1-5.33-2.13,7.62,7.62,0,0,1-.64-11l67-73.8a7.4,7.4,0,0,1,10.79-.42,7.61,7.61,0,0,1,.64,11l-67,73.8a7.32,7.32,0,0,1-5.49,2.56ZM149,687.41a2.19,2.19,0,0,0-1.6.79l-67,73.8a2.35,2.35,0,0,0,.27,3.46,2.16,2.16,0,0,0,3.28-.08l67-73.8a2.35,2.35,0,0,0-.26-3.46A2.69,2.69,0,0,0,149,687.41Z" transform="translate(85.4 86.92)"/><path class="cls-6" d="M532.43,616.58,495.08,495.06c-1.95-6.34-11.7-3.22-9.75,3.11L522.68,619.7c1.94,6.33,11.69,3.22,9.75-3.14Z" transform="translate(85.4 86.92)"/><path class="cls-6" d="M527.26,625.84a7.17,7.17,0,0,1-7.11-5.34L482.8,499a7.49,7.49,0,0,1,1.6-7.43,8.3,8.3,0,0,1,7.85-2.42,7.26,7.26,0,0,1,5.39,5.17L535,615.81a7.61,7.61,0,0,1-5.25,9.66A8.61,8.61,0,0,1,527.26,625.84ZM490.5,494.26a3.08,3.08,0,0,0-2.21.93,2.06,2.06,0,0,0-.4,2.23L525.23,619a2.19,2.19,0,0,0,2.94,1.47,2.36,2.36,0,0,0,1.73-3L492.55,495.85a2,2,0,0,0-1.49-1.54A2.16,2.16,0,0,0,490.5,494.26Z" transform="translate(85.4 86.92)"/><path class="cls-6" d="M558.67,702l-16.15-52.55c-1.94-6.33-11.69-3.22-9.75,3.14l16.15,52.55C550.86,711.43,560.64,708.32,558.67,702Z" transform="translate(85.4 86.92)"/><path class="cls-6" d="M553.5,711.22a7.17,7.17,0,0,1-7.11-5.35l-16.15-52.54a7.61,7.61,0,0,1,5.25-9.66c3.65-1.12,8.15.21,9.59,5l16.15,52.55a7.6,7.6,0,0,1-5.25,9.65A8.62,8.62,0,0,1,553.5,711.22Zm-15.56-62.63a3.32,3.32,0,0,0-.9.13,2.34,2.34,0,0,0-1.73,3l16.14,52.54a2.16,2.16,0,0,0,2.93,1.46,2.32,2.32,0,0,0,1.73-3L540,650.19A2,2,0,0,0,537.94,648.59Z" transform="translate(85.4 86.92)"/><path class="cls-6" d="M613.2,879.33l-29.28-95.25c-1.94-6.33-11.69-3.21-9.75,3.15l29.28,95.24C605.4,888.8,615.14,885.69,613.2,879.33Z" transform="translate(85.4 86.92)"/><path class="cls-6" d="M608,888.59a7.17,7.17,0,0,1-7.11-5.35L571.64,788a7.6,7.6,0,0,1,5.25-9.66c3.68-1.12,8.15.21,9.59,5l29.28,95.25a7.6,7.6,0,0,1-5.25,9.65A8.56,8.56,0,0,1,608,888.59ZM579.37,783.26a3.48,3.48,0,0,0-.91.13,2.37,2.37,0,0,0-1.73,3L606,881.67a2.17,2.17,0,0,0,2.93,1.46,2.33,2.33,0,0,0,1.73-3l-29.28-95.25a2,2,0,0,0-2-1.59Z" transform="translate(85.4 86.92)"/><path class="cls-6" d="M359.91,228.88l28.16,45c3.51,5.61,12.14.05,8.63-5.56l-28.16-45C365,217.71,356.39,223.27,359.91,228.88Z" transform="translate(85.4 86.92)"/><path class="cls-6" d="M392,278.87a7.14,7.14,0,0,1-6.21-3.59l-28.16-45a7.61,7.61,0,0,1,2.61-10.69c3.25-2,7.92-1.89,10.55,2.31l28.16,45a7.61,7.61,0,0,1-2.61,10.69A8.38,8.38,0,0,1,392,278.87Zm-29.87-51.4,28.16,45a2.13,2.13,0,0,0,3.2.61,2.35,2.35,0,0,0,.91-3.38l-28.16-45a2.17,2.17,0,0,0-3.23-.61,2.36,2.36,0,0,0-.9,3.38Z" transform="translate(85.4 86.92)"/><path class="cls-6" d="M233.71,27.25,333.64,186.9c3.52,5.61,12.15,0,8.63-5.56L242.35,21.69C238.83,16.07,230.2,21.63,233.71,27.25Z" transform="translate(85.4 86.92)"/><path class="cls-6" d="M337.61,191.9a7.24,7.24,0,0,1-6.24-3.59L231.45,28.66A7.61,7.61,0,0,1,234.06,18c3.25-2,7.91-1.89,10.55,2.32l99.92,159.65a7.38,7.38,0,0,1,.35,7.55,8.41,8.41,0,0,1-7,4.42ZM236,25.84l99.93,159.65a1.92,1.92,0,0,0,1.81,1.09,3.1,3.1,0,0,0,2.48-1.57,2.15,2.15,0,0,0-.16-2.23L240.08,23.12a2.16,2.16,0,0,0-3.2-.61,2.35,2.35,0,0,0-.9,3.38Z" transform="translate(85.4 86.92)"/><path class="cls-6" d="M291,372.94l52.75-2.42c6.58-.29,6.18-10.64-.4-10.32l-52.75,2.42C284,362.91,284.41,373.26,291,372.94Z" transform="translate(85.4 86.92)"/><path class="cls-6" d="M290.7,375.63c-4.69,0-7.33-3.67-7.49-7.42a7.61,7.61,0,0,1,7.27-8.22l52.75-2.42c5-.16,7.73,3.56,7.91,7.42a7.62,7.62,0,0,1-7.27,8.22l-52.75,2.42Zm52.9-12.77h-.16l-52.74,2.42a2.34,2.34,0,0,0-2.19,2.66,2.22,2.22,0,0,0,2.19,2.37h.16l52.74-2.42a2.34,2.34,0,0,0,2.19-2.66,2.19,2.19,0,0,0-2.19-2.34Z" transform="translate(85.4 86.92)"/><path class="cls-6" d="M54.67,383.82l187.12-8.62c6.58-.29,6.18-10.61-.4-10.32L54.27,373.5C47.69,373.79,48.09,384.14,54.67,383.82Z" transform="translate(85.4 86.92)"/><path class="cls-6" d="M54.37,386.48c-4.68,0-7.32-3.67-7.48-7.42a7.62,7.62,0,0,1,7.27-8.22l187.12-8.62c4.9-.21,7.72,3.57,7.91,7.42a7.63,7.63,0,0,1-7.27,8.23L54.8,386.48Zm187.31-18.94h-.16L54.4,376.16a2.33,2.33,0,0,0-2.18,2.66,2.13,2.13,0,0,0,2.34,2.34l187.12-8.62a2.33,2.33,0,0,0,2.18-2.66,2.2,2.2,0,0,0-2.18-2.36Z" transform="translate(85.4 86.92)"/><path class="cls-6" d="M379.46,504.61l24.59-47.41c3.06-5.91-6-10.67-9-4.76l-24.59,47.41C367.37,505.75,376.4,510.51,379.46,504.61Z" transform="translate(85.4 86.92)"/><path class="cls-6" d="M375.25,510a8.41,8.41,0,0,1-3.78-.93,7.61,7.61,0,0,1-3.41-10.43l24.59-47.41A7.44,7.44,0,0,1,403,448a7.61,7.61,0,0,1,3.41,10.43l-24.59,47.41A7.23,7.23,0,0,1,375.25,510Zm24-57.6a2.06,2.06,0,0,0-1.89,1.28l-24.59,47.41a2.29,2.29,0,0,0,1.12,3.24,2.19,2.19,0,0,0,3.19-.93L401.65,456a2.29,2.29,0,0,0-1.12-3.25A2.87,2.87,0,0,0,399.23,452.38Z" transform="translate(85.4 86.92)"/><path class="cls-6" d="M269.33,717.1l87.19-168.25c3.07-5.91-6-10.67-9-4.76L260.3,712.33C257.24,718.24,266.27,723,269.33,717.1Z" transform="translate(85.4 86.92)"/><path class="cls-6" d="M265.07,722.47a8.36,8.36,0,0,1-6.93-3.78,7.39,7.39,0,0,1-.24-7.55l87.22-168.25a7.45,7.45,0,0,1,10.37-3.22,7.62,7.62,0,0,1,3.41,10.43L271.68,718.37a7.38,7.38,0,0,1-6.26,4.15h-.35ZM351.73,544a2.05,2.05,0,0,0-1.89,1.27L262.62,713.56a2.14,2.14,0,0,0,0,2.26,3,3,0,0,0,2.53,1.33,2,2,0,0,0,1.76-1.28L354.13,547.6a2.29,2.29,0,0,0-1.12-3.24,2.79,2.79,0,0,0-1.31-.35Z" transform="translate(85.4 86.92)"/><path class="cls-6" d="M187.68,874.65l42-81.07c3.07-5.9-6-10.66-9-4.76l-42,81.07C175.59,875.79,184.62,880.55,187.68,874.65Z" transform="translate(85.4 86.92)"/><path class="cls-6" d="M183.42,880a8.36,8.36,0,0,1-6.93-3.78,7.39,7.39,0,0,1-.24-7.55l42-81.07a7.4,7.4,0,0,1,6.26-4.15,8.37,8.37,0,0,1,7.28,3.78,7.41,7.41,0,0,1,.24,7.56l-42,81.06a7.38,7.38,0,0,1-6.26,4.15Zm41.45-91.25h-.11a2,2,0,0,0-1.78,1.28l-42,81.06a2.14,2.14,0,0,0,0,2.26,3,3,0,0,0,2.53,1.33,2,2,0,0,0,1.76-1.28l42-81.06a2.18,2.18,0,0,0,0-2.26,3.11,3.11,0,0,0-2.43-1.33Z" transform="translate(85.4 86.92)"/><path class="cls-6" d="M536.82,492.18l-28.16-45c-3.51-5.62-12.14-.06-8.63,5.56l28.16,45C531.71,503.36,540.34,497.8,536.82,492.18Z" transform="translate(85.4 86.92)"/><path class="cls-6" d="M532.19,502.75a7.26,7.26,0,0,1-6.24-3.59l-28.16-45a7.37,7.37,0,0,1-.34-7.56,8.43,8.43,0,0,1,7-4.42,7.31,7.31,0,0,1,6.51,3.57l28.15,45a7.4,7.4,0,0,1,.35,7.55,8.34,8.34,0,0,1-7,4.39h-.26ZM504.7,447.52h-.09a3.06,3.06,0,0,0-2.47,1.57,2.11,2.11,0,0,0,.16,2.23l28.15,45a2,2,0,0,0,1.82,1.09,3,3,0,0,0,2.47-1.57,2.13,2.13,0,0,0-.16-2.24l-28.15-45A2,2,0,0,0,504.7,447.52Z" transform="translate(85.4 86.92)"/><path class="cls-6" d="M663,693.82,563.12,534.17c-3.52-5.62-12.15-.06-8.64,5.56l99.93,159.65C657.93,705,666.56,699.43,663,693.82Z" transform="translate(85.4 86.92)"/><path class="cls-6" d="M658.38,704.38a7.24,7.24,0,0,1-6.23-3.59L552.22,541.14a7.35,7.35,0,0,1-.35-7.56,8.34,8.34,0,0,1,7-4.39,7.21,7.21,0,0,1,6.5,3.56l99.93,159.66a7.4,7.4,0,0,1,.34,7.55,8.43,8.43,0,0,1-7,4.42ZM559.12,534.51H559a3.08,3.08,0,0,0-2.48,1.57,2.15,2.15,0,0,0,.16,2.24L656.65,698a1.92,1.92,0,0,0,1.81,1.09,3.1,3.1,0,0,0,2.48-1.57,2.13,2.13,0,0,0-.16-2.23L560.85,535.6A2,2,0,0,0,559.12,534.51Z" transform="translate(85.4 86.92)"/><path class="cls-6" d="M756.6,843.31l-48.14-76.92c-3.51-5.61-12.15,0-8.63,5.56L748,848.87C751.49,854.48,760.12,848.92,756.6,843.31Z" transform="translate(85.4 86.92)"/><path class="cls-6" d="M751.91,853.87a7.17,7.17,0,0,1-6.21-3.59l-48.13-76.91a7.35,7.35,0,0,1-.35-7.56,8.34,8.34,0,0,1,7-4.39,7.25,7.25,0,0,1,6.5,3.56l48.13,76.92a7.6,7.6,0,0,1-2.61,10.69A8.38,8.38,0,0,1,751.91,853.87Zm-47.44-87.16h-.08a3.11,3.11,0,0,0-2.48,1.57,2.15,2.15,0,0,0,.16,2.24l48.14,76.91a2.14,2.14,0,0,0,3.19.61,2.34,2.34,0,0,0,.91-3.38l-48.14-76.91a2,2,0,0,0-1.73-1.09Z" transform="translate(85.4 86.92)"/><path class="cls-6" d="M605.74,348.12,553,350.54c-6.58.29-6.18,10.64.4,10.32l52.75-2.42C612.72,358.15,612.32,347.8,605.74,348.12Z" transform="translate(85.4 86.92)"/><path class="cls-6" d="M553.1,363.55c-4.69,0-7.33-3.67-7.49-7.42a7.62,7.62,0,0,1,7.28-8.22l52.74-2.42c5-.21,7.73,3.56,7.91,7.42a7.61,7.61,0,0,1-7.27,8.22l-52.74,2.42Zm52.75-12.77L553.1,353.2a2.34,2.34,0,0,0-2.19,2.66,2.22,2.22,0,0,0,2.19,2.37h.16L606,355.81a2.33,2.33,0,0,0,2.18-2.66A2.16,2.16,0,0,0,605.85,350.78Z" transform="translate(85.4 86.92)"/><path class="cls-6" d="M842.09,337.27,655,345.89c-6.58.29-6.18,10.64.4,10.32l187.12-8.62C849.07,347.3,848.67,337,842.09,337.27Z" transform="translate(85.4 86.92)"/><path class="cls-6" d="M655.05,358.87c-4.69,0-7.33-3.67-7.49-7.45a7.62,7.62,0,0,1,7.28-8.22L842,334.58c4.95-.19,7.72,3.56,7.91,7.42a7.62,7.62,0,0,1-7.28,8.22l-187.11,8.62h-.43ZM842.2,339.93l-187.12,8.62a2.34,2.34,0,0,0-2.19,2.66,2.23,2.23,0,0,0,2.21,2.37h.16L842.38,345a2.34,2.34,0,0,0,2.19-2.66,2.14,2.14,0,0,0-2.35-2.36Z" transform="translate(85.4 86.92)"/><path class="cls-6" d="M1017.3,329.21l-90.15,4.15c-6.58.29-6.18,10.64.4,10.32l90.15-4.15C1024.28,339.24,1023.88,328.89,1017.3,329.21Z" transform="translate(85.4 86.92)"/><path class="cls-6" d="M927.23,346.34c-4.69,0-7.33-3.67-7.49-7.42A7.62,7.62,0,0,1,927,330.7l90.15-4.16c5-.18,7.72,3.57,7.91,7.43a7.63,7.63,0,0,1-7.28,8.22l-90.14,4.15Zm90.18-14.47L927.26,336a2.34,2.34,0,0,0-2.19,2.66,2.17,2.17,0,0,0,2.35,2.34l90.15-4.15a2.33,2.33,0,0,0,2.18-2.66A2.09,2.09,0,0,0,1017.41,331.87Z" transform="translate(85.4 86.92)"/><path class="cls-6" d="M517.3,216.48l-24.59,47.41c-3.07,5.91,6,10.67,9,4.76l24.59-47.4C529.39,215.34,520.36,210.58,517.3,216.48Z" transform="translate(85.4 86.92)"/><path class="cls-6" d="M497.5,274a8.36,8.36,0,0,1-6.92-3.78,7.37,7.37,0,0,1-.24-7.56l24.58-47.4a7.36,7.36,0,0,1,6.27-4.15,8.3,8.3,0,0,1,7.27,3.77,7.41,7.41,0,0,1,.24,7.56l-24.56,47.41a7.38,7.38,0,0,1-6.26,4.15h-.38Zm24-57.6h-.1a2,2,0,0,0-1.76,1.28l-24.59,47.4a2.15,2.15,0,0,0,0,2.27,3,3,0,0,0,2.53,1.33,2.06,2.06,0,0,0,1.78-1.28L524,220a2.18,2.18,0,0,0,0-2.26A3.11,3.11,0,0,0,521.53,216.43Z" transform="translate(85.4 86.92)"/><path class="cls-6" d="M627.42,4,540.23,172.21c-3.06,5.91,6,10.67,9,4.77L636.45,8.73C639.52,2.82,630.49-1.94,627.42,4Z" transform="translate(85.4 86.92)"/><path class="cls-6" d="M545,182.38a8.4,8.4,0,0,1-6.93-3.78,7.41,7.41,0,0,1-.24-7.56L625,2.77A7.44,7.44,0,0,1,635.39-.45,7.61,7.61,0,0,1,638.8,10L551.58,178.25a7.38,7.38,0,0,1-6.26,4.15H545ZM629.77,5.22,542.58,173.49a2.14,2.14,0,0,0,0,2.26,2.85,2.85,0,0,0,2.53,1.33,2,2,0,0,0,1.75-1.27L634.08,7.53A2.29,2.29,0,0,0,633,4.29,2.19,2.19,0,0,0,629.77,5.22Z" transform="translate(85.4 86.92)"/><path class="cls-7" d="M762.67,605.38a51.87,51.87,0,0,1,50.53-43.53c109.28-1.46,387.51-4,402.44,7.87,18.61,14.78,28.32,22.34,26.87,45.76-1.33,21.51-24.81,393.24-24.81,393.24H697L762.7,605.38Z" transform="translate(85.4 86.92)"/><path class="cls-8" d="M1158.38,1008.91s-.07-.38-.16-1.11-.16-1.87-.29-3.23c-.22-2.94-.5-7.08-.91-12.4s-.83-12-1.08-19.65-.76-16.39-.76-26c-.06-4.84-.13-9.87-.16-15.15s.13-10.76.19-16.42c0-11.36.67-23.48,1.21-36.23,1.42-25.5,3.86-53.47,7.75-82.67,4-29.21,9.17-56.83,14.61-81.79,2.88-12.43,5.54-24.27,8.52-35.24,1.45-5.48,2.75-10.83,4.2-15.89s2.88-9.93,4.21-14.55c2.6-9.3,5.38-17.59,7.69-24.9s4.43-13.57,6.26-18.64,3.2-8.92,4.18-11.7c.48-1.27.85-2.28,1.14-3a5.1,5.1,0,0,1,.44-1,8.13,8.13,0,0,1-.28,1.07c-.26.79-.57,1.81-1,3.07l-3.89,11.8c-1.75,5.1-3.83,11.36-6,18.73s-4.93,15.63-7.46,24.93c-1.3,4.66-2.69,9.5-4.12,14.59s-2.69,10.41-4.11,15.88c-2.94,10.95-5.5,22.81-8.35,35.22-5.35,24.93-10.41,52.52-14.46,81.66-3.89,29.17-6.36,57.11-7.88,82.55-.57,12.71-1.23,24.83-1.36,36.16-.09,5.66-.28,11.13-.28,16.39s0,10.31.06,15.12c-.06,9.65.35,18.35.51,26s.47,14.24.79,19.65.44,9.46.6,12.4c0,1.36.09,2.4.12,3.23v1.1Z" transform="translate(85.4 86.92)"/><path class="cls-8" d="M865.56,748.93a3.38,3.38,0,0,1,.79-.32,7.91,7.91,0,0,1,2.44-.12,11.06,11.06,0,0,1,7.62,4.49c2.47,3.07,3.07,8.35.76,13a16.29,16.29,0,0,1-5.09,6.11,15.64,15.64,0,0,1-8.07,2.81,13,13,0,0,1-8.32-2.15,10.51,10.51,0,0,1-4.31-6.77,14.16,14.16,0,0,1,4-12.46c5.85-5,11-5.16,10.92-4.69,0,.06-.29,0-.8.16a13.76,13.76,0,0,0-2.18.76,22.63,22.63,0,0,0-7.09,4.62,13.15,13.15,0,0,0-3.32,11.33,9.15,9.15,0,0,0,3.74,5.76,11.42,11.42,0,0,0,7.27,1.83,14,14,0,0,0,7.25-2.5,14.68,14.68,0,0,0,4.65-5.44c2.12-4.15,1.74-8.8-.35-11.61a10.91,10.91,0,0,0-6.77-4.56c-2-.38-3.1,0-3.13-.19Z" transform="translate(85.4 86.92)"/><path class="cls-8" d="M947.22,701.72c0,.32-5.38-.66-14,.16a64.11,64.11,0,0,0-52.52,36.8c-3.7,7.81-4.59,13.19-4.9,13.1a15.3,15.3,0,0,1,.57-3.77,58.19,58.19,0,0,1,3.29-9.84,62.37,62.37,0,0,1,53.5-37.46,56.2,56.2,0,0,1,10.35.29,15.23,15.23,0,0,1,3.73.72Z" transform="translate(85.4 86.92)"/><path class="cls-8" d="M796.21,798.41a17.31,17.31,0,0,1,1.2-2.69,41.21,41.21,0,0,1,4.58-6.58,48.9,48.9,0,0,1,48.06-16.35,41.1,41.1,0,0,1,7.66,2.4,9.25,9.25,0,0,1,2.6,1.39c-.13.29-3.93-1.48-10.48-2.66a50.79,50.79,0,0,0-47,16C798.39,794.84,796.46,798.57,796.21,798.41Z" transform="translate(85.4 86.92)"/><path class="cls-8" d="M896.94,811.35a29.92,29.92,0,0,1-5.34-3.86,59.6,59.6,0,0,1-10.35-12.15,58.88,58.88,0,0,1-6.74-14.46c-1.17-3.92-1.49-6.45-1.3-6.48.51-.16,2.73,9.74,9.43,20.06s14.68,16.51,14.3,16.93Z" transform="translate(85.4 86.92)"/><path class="cls-8" d="M1041.41,753.33a3.38,3.38,0,0,1,.79-.32,7.87,7.87,0,0,1,2.43-.12,11.12,11.12,0,0,1,7.63,4.49c2.47,3.07,3.07,8.35.76,13a16.29,16.29,0,0,1-5.09,6.11,15.64,15.64,0,0,1-8.07,2.81,13,13,0,0,1-8.32-2.15,10.51,10.51,0,0,1-4.31-6.77,14.19,14.19,0,0,1,4-12.47c5.85-5,11-5.16,10.91-4.68,0,.06-.28,0-.78.16a13.46,13.46,0,0,0-2.19.76,22.51,22.51,0,0,0-7.09,4.62,13.13,13.13,0,0,0-3.32,11.32,9.06,9.06,0,0,0,3.74,5.76,11.37,11.37,0,0,0,7.27,1.84,14,14,0,0,0,7.25-2.5,14.66,14.66,0,0,0,4.65-5.44c2.12-4.15,1.74-8.8-.35-11.61a10.87,10.87,0,0,0-6.77-4.56c-2-.38-3.1,0-3.13-.19Z" transform="translate(85.4 86.92)"/><path class="cls-8" d="M1123.07,706.12c0,.32-5.38-.66-14,.16a64.11,64.11,0,0,0-52.52,36.8c-3.7,7.81-4.58,13.16-4.9,13.09a15.2,15.2,0,0,1,.57-3.76,58.19,58.19,0,0,1,3.29-9.84,62.37,62.37,0,0,1,53.5-37.46,54.62,54.62,0,0,1,10.35.28,15.46,15.46,0,0,1,3.73.73Z" transform="translate(85.4 86.92)"/><path class="cls-8" d="M972.05,802.84a18.2,18.2,0,0,1,1.21-2.69,41.39,41.39,0,0,1,4.59-6.58,48.91,48.91,0,0,1,48.06-16.36,41.86,41.86,0,0,1,7.65,2.41,9.25,9.25,0,0,1,2.6,1.39c-.13.28-3.93-1.49-10.48-2.66a50.79,50.79,0,0,0-47,16C974.24,799.27,972.31,803,972.05,802.84Z" transform="translate(85.4 86.92)"/><path class="cls-8" d="M1072.83,815.75a29.73,29.73,0,0,1-5.35-3.86,59.6,59.6,0,0,1-10.35-12.15,58.88,58.88,0,0,1-6.74-14.46c-1.17-3.92-1.48-6.45-1.29-6.48.5-.16,2.72,9.74,9.42,20.06s14.68,16.51,14.31,16.92Z" transform="translate(85.4 86.92)"/><path class="cls-9" d="M124.51,964.07s39.55-4.36,55.68-2.3c17.53,2.24,36.07-6.62,47.08-18.67s13.89-28,13.89-28l25.15-17.62s2.73-59.83-37.17-50.15L182.53,849S90.84,864.19,76.64,875.61c0,0-17.28,16.77-22.31,23.29-1.9,2.43-3.54,27.11,14,35.5,0,0-10.32,13.22-1.24,20.66l4.27,3.26s-5.91,13.16-.34,17,49.57,17.11,62.07,8.41-2-18.73-8.6-19.62" transform="translate(85.4 86.92)"/><path class="cls-9" d="M213.38,849.79l-37.4-5S70.31,823.28,69.27,826.06s-6.24,3.77-2.35,15.1,64.9,21.38,67.62,25,4.65,24.59,28.6,34.23,38.79,6.4,38.79,6.4" transform="translate(85.4 86.92)"/><path class="cls-10" d="M201.93,906.71a3.09,3.09,0,0,1-.79.22c-.54.1-1.36.22-2.44.35a53.34,53.34,0,0,1-9.4,0,79.09,79.09,0,0,1-14.64-2.59,80.71,80.71,0,0,1-18.39-7.15,42.6,42.6,0,0,1-16.48-17.21c-2.09-3.8-3.51-8.14-5.1-12.31a6.67,6.67,0,0,0-.69-1.39,2.79,2.79,0,0,0-1.11-.7c-1-.44-2.12-.79-3.19-1.14-2.22-.66-4.53-1.3-6.84-1.9-9.3-2.4-19.14-4.74-29.2-7.72A159.09,159.09,0,0,1,78.47,850,50.66,50.66,0,0,1,71,846.35a18.21,18.21,0,0,1-3.42-2.69,8.71,8.71,0,0,1-1.3-1.93,13.85,13.85,0,0,1-.69-2.06c-.76-2.69-1.4-5.66-.51-8.61a10,10,0,0,1,2.28-3.76,5.76,5.76,0,0,0,1-1.46c.1-.12-.06.07.26-.41a1.07,1.07,0,0,1,.63-.38A3.11,3.11,0,0,1,70,825h1.11c5.54.34,10.73,1.29,16,2.09,10.34,1.7,20.28,3.54,29.74,5.34,18.92,3.61,35.91,7,50.15,9.94,3.57.69,7,1.52,10.15,2l9.18,1.3c5.69.82,10.6,1.52,14.68,2.09,3.92.6,7,1,9.27,1.39,1,.16,1.77.29,2.4.41a3.59,3.59,0,0,1,.83.19,5.84,5.84,0,0,1-.83,0c-.63-.06-1.45-.16-2.43-.25-2.25-.25-5.38-.63-9.3-1.08l-14.72-1.8c-2.88-.35-5.94-.76-9.17-1.17s-6.65-1.27-10.22-1.93c-14.33-2.75-31.32-6-50.21-9.59-9.46-1.74-19.4-3.54-29.71-5.25-5.16-.79-10.44-1.74-15.73-2.06h-1c-.09,0-.31,0-.31,0s0,.13-.1-.12,0-.25-.16-.38a1.06,1.06,0,0,1-.12-.1c1.26.48.31.16.6.29l-.06.16a7.42,7.42,0,0,1-1.3,1.87,8.58,8.58,0,0,0-2,3.16c-.7,2.37-.22,5.09.54,7.65A7.08,7.08,0,0,0,69,842.55a16.72,16.72,0,0,0,3.07,2.4,48.89,48.89,0,0,0,7.18,3.55c5,2,10,3.64,15,5.12,10,3,19.84,5.32,29.14,7.79,2.34.63,4.62,1.23,6.9,2a31.88,31.88,0,0,1,3.35,1.2,4.17,4.17,0,0,1,1.71,1.2,7.41,7.41,0,0,1,.82,1.68c1.62,4.36,2.94,8.48,5,12.21A41.08,41.08,0,0,0,157,896.49a79,79,0,0,0,18,7.25,84.48,84.48,0,0,0,14.46,2.85,63.33,63.33,0,0,0,9.31.31c1.07,0,1.86-.12,2.43-.16a3.38,3.38,0,0,1,.82-.06Z" transform="translate(85.4 86.92)"/><path class="cls-11" d="M388.09,746.21s46.86-77.14,57.4-128S510.44,486.51,528,465.44s87.77-45.65,87.77-45.65l25.88-14,200.56-17.62S975.63,402.26,1016,439.12s72,121.14,72,163.26,40.78,407,40.78,407l-494.23-.66,11.07-179.9s-59.7-40.37-75.49-75.49-7-17.56-7-17.56-56,119.12-75.33,133.17S244,951.86,244,951.86L213.22,834.07l174.84-87.86Z" transform="translate(85.4 86.92)"/><path class="cls-11" d="M971.61,453.8c-5.41,1.68-72.36,174.59-77.07,190.31s0,114.82,0,114.82l22,40.91s-6.3,29.9-1.58,44l-99.1,18.89s-25.15-17.31-48.75,0l-116.91,9.87s34.33.38,24.11,53c-10,51.57-17.62,62.89-17.62,62.89l410.83-9.36s45.63-2.25,38.7-90.05-26.55-329.87-26.55-329.87S1049.73,429.56,971.61,453.8Z" transform="translate(85.4 86.92)"/><path class="cls-8" d="M893.62,745.13s-.38-.73-1-2.12c-.63-1.58-1.45-3.64-2.5-6.23s-2.37-6-3.64-10-2.94-8.35-4.27-13.38-3-10.47-4.36-16.48c-1.52-6-2.72-12.37-4-19.14A354.37,354.37,0,0,1,869,633.22a346.41,346.41,0,0,1,1.36-44.83c.82-6.83,1.49-13.38,2.59-19.39.51-3,.92-6,1.49-8.73s1.14-5.45,1.68-8c1-5.12,2.31-9.65,3.32-13.67s2-7.43,2.94-10.18,1.55-4.78,2.06-6.4a12.52,12.52,0,0,1,.82-2.18,13.18,13.18,0,0,1-.51,2.28c-.44,1.64-1,3.76-1.77,6.45s-1.77,6.2-2.69,10.26-2.18,8.54-3.07,13.66c-.5,2.56-1,5.22-1.58,8s-.92,5.72-1.39,8.73c-1,6-1.64,12.53-2.4,19.33a366.67,366.67,0,0,0-1.24,44.61,375.2,375.2,0,0,0,4.65,44.39c1.24,6.74,2.38,13.16,3.86,19.11,1.27,6,2.79,11.45,4.18,16.45s2.85,9.46,4,13.42,2.37,7.31,3.35,10l2.22,6.33A11.93,11.93,0,0,1,893.62,745.13Z" transform="translate(85.4 86.92)"/><path class="cls-8" d="M1036.57,932.63a10.75,10.75,0,0,1-1-1.21c-.72-1-1.64-2.18-2.75-3.64s-2.59-3.54-4.4-5.69-3.7-4.72-6.07-7.34-4.84-5.57-7.79-8.51-6.07-6.08-9.42-9.27a215,215,0,0,0-49.71-34.39c-4.21-2-8.16-4-12-5.57-3.8-1.71-7.41-3-10.73-4.27s-6.36-2.22-9-3.1-5-1.59-6.87-2.09l-4.37-1.3a5.15,5.15,0,0,1-1.48-.57,4.67,4.67,0,0,1,1.58.22c1.2.25,2.69.6,4.46,1,1.93.41,4.3,1,7,1.84s5.79,1.64,9.11,2.88,7,2.47,10.86,4.11,7.91,3.45,12.15,5.44a228.71,228.71,0,0,1,26.32,15.44,222.55,222.55,0,0,1,23.73,19.18c3.35,3.29,6.61,6.32,9.4,9.46s5.41,6,7.68,8.7,4.21,5.28,5.92,7.53,3.1,4.21,4.18,5.88c1,1.52,1.83,2.79,2.5,3.83a6.73,6.73,0,0,1,.79,1.39Z" transform="translate(85.4 86.92)"/><path class="cls-8" d="M1033.18,851.76c-.22.28-5.06-3.55-13.92-7.94a72.78,72.78,0,0,0-7.37-3.23c-2.66-1.14-5.66-2-8.77-3a112.31,112.31,0,0,0-20.81-3.67,109.14,109.14,0,0,0-21.14.8c-3.2.56-6.26,1-9.08,1.77a73.89,73.89,0,0,0-7.75,2.18c-9.37,3.13-14.68,6.3-14.87,5.95a21.08,21.08,0,0,1,3.7-2.25,37,37,0,0,1,4.56-2.28,58.13,58.13,0,0,1,6.23-2.53,65.35,65.35,0,0,1,7.81-2.4,85,85,0,0,1,9.18-1.93,104.51,104.51,0,0,1,21.48-.92,106.5,106.5,0,0,1,21.14,3.83c3.13,1,6.13,2,8.82,3.16a71.89,71.89,0,0,1,7.41,3.45,59.85,59.85,0,0,1,5.82,3.38,37.19,37.19,0,0,1,4.21,2.89A25.32,25.32,0,0,1,1033.18,851.76Z" transform="translate(85.4 86.92)"/><path class="cls-8" d="M792.88,981.45c-.38-.1,2.06-6.62,2.91-17.6a112.37,112.37,0,0,0-.16-19.33,150.17,150.17,0,0,0-4.14-23.32,155.46,155.46,0,0,0-7.88-22.33,121,121,0,0,0-9.39-16.9c-6.17-9.14-11.43-13.67-11.14-14a25.07,25.07,0,0,1,3.61,3.19,41.06,41.06,0,0,1,3.86,4.15c.72.85,1.48,1.74,2.31,2.69s1.51,2.09,2.34,3.22A113.05,113.05,0,0,1,785,898.2a154.05,154.05,0,0,1,8.09,22.56,145.62,145.62,0,0,1,4,23.6,106.24,106.24,0,0,1-.19,19.56c-.15,1.36-.28,2.69-.44,4s-.47,2.37-.69,3.48a41.09,41.09,0,0,1-1.33,5.51,28.55,28.55,0,0,1-1.62,4.55Z" transform="translate(85.4 86.92)"/><path class="cls-8" d="M724,862.7a8.76,8.76,0,0,1-.19-.92c-.12-.69-.25-1.58-.44-2.68-.35-2.5-.85-6-1.49-10.41-1.26-9.05-3-22.18-4.9-38.38-3.89-32.43-8.54-77.36-12.18-127.09s-5.54-94.89-6.39-127.54c-.44-16.33-.67-29.55-.7-38.7V506.45c0-1.14,0-2,0-2.72a2.84,2.84,0,0,1,.07-.92,7.29,7.29,0,0,1,.09.92c0,.69.07,1.61.13,2.72.09,2.53.19,6,.35,10.5.28,9.24.69,22.43,1.23,38.67,1.14,32.65,3.26,77.73,6.87,127.47s8.1,94.63,11.7,127.09c1.84,16.14,3.36,29.24,4.4,38.44.51,4.47.92,7.94,1.2,10.44.1,1.11.19,2,.26,2.72a3.34,3.34,0,0,1,0,1Z" transform="translate(85.4 86.92)"/><path class="cls-8" d="M562.61,738.05s-.85-1.68-2.15-4.85-3.16-7.68-5.53-13.28c-4.75-11.17-11.84-26.39-20.32-42.91-8.48-16.35-16.16-31.16-21.89-42.17-2.75-5.41-4.94-9.84-6.39-12.91a34.12,34.12,0,0,1-2.12-4.84,35.92,35.92,0,0,1,2.69,4.55c1.74,3.23,4.08,7.5,6.86,12.66,5.76,10.73,13.83,25.44,22.31,42s15.41,31.89,19.9,43.18c2.24,5.67,4,10.29,5.06,13.51a32.12,32.12,0,0,1,1.55,5.07Z" transform="translate(85.4 86.92)"/><path class="cls-8" d="M537.36,679.61a23.22,23.22,0,0,1-2.87-.54c-1.81-.44-4.43-1.2-7.6-2.25a186.12,186.12,0,0,1-46.73-23.16c-2.75-1.89-4.93-3.51-6.39-4.68a12.84,12.84,0,0,1-2.18-1.93c.16-.19,3.57,2.12,9.21,5.66s13.57,8.2,22.65,12.72,17.62,8,23.82,10.32,10.16,3.64,10.06,3.89Z" transform="translate(85.4 86.92)"/><path class="cls-8" d="M494.94,787.65s-1.27-.66-3.39-2-5.22-3.45-9.08-5.79A187,187,0,0,0,416.31,755c-4.49-.75-8.13-1.29-10.66-1.61a20.08,20.08,0,0,1-3.92-.66c0-.13,1.42-.1,4,0s6.26.47,10.78,1.07a166.46,166.46,0,0,1,34.65,8.86,168.76,168.76,0,0,1,32,16.07c3.83,2.5,6.87,4.66,8.86,6.27a18.56,18.56,0,0,1,3,2.59Z" transform="translate(85.4 86.92)"/><path class="cls-8" d="M837,388.47a25.53,25.53,0,0,1-.19,2.56c-.22,1.83-.47,4.27-.82,7.34-.83,6.36-2,15.56-3.9,26.89a345.38,345.38,0,0,1-8.85,39.36c-4.4,14.52-10.48,30.28-19.91,45.18a140.55,140.55,0,0,1-16.48,21.14l-.63.69-.57-.79a83.33,83.33,0,0,0-30-24.9,79.51,79.51,0,0,0-15.82-5.82,69.74,69.74,0,0,0-14.39-1.93,59.39,59.39,0,0,0-20.51,2.88c-4.58,1.61-7,2.82-7.08,2.66a14.13,14.13,0,0,1,1.74-.92,40.54,40.54,0,0,1,5.19-2.28,56.7,56.7,0,0,1,20.72-3.38,71.61,71.61,0,0,1,14.65,1.77,82.8,82.8,0,0,1,16.14,5.75A84.38,84.38,0,0,1,787,529.89l-1.24-.09A141.05,141.05,0,0,0,802,508.92c9.3-14.72,15.37-30.35,19.83-44.74A368.37,368.37,0,0,0,831,425.07c2.09-11.26,3.38-20.44,4.4-26.77.47-3,.85-5.47,1.14-7.3a15.33,15.33,0,0,1,.5-2.53Z" transform="translate(85.4 86.92)"/><path class="cls-11" d="M839.71,390.46l-30.47-40.41-33.13,1.05L668.48,408Z" transform="translate(85.4 86.92)"/><path class="cls-8" d="M697.78,503.73s-.61,0-1.74,0a34.71,34.71,0,0,1-5-.83c-4.27-.92-10.25-3.32-17-7.28a35.84,35.84,0,0,0-11.55-4.77,33.79,33.79,0,0,0-14.27,0,33.4,33.4,0,0,0-23.89,20.79l-1.74,4.64.13-4.93c0-1.23.06-2.53.09-3.86.38-24.9.41-47.52,1.43-63.85.44-8.16,1.11-14.77,1.77-19.3.29-2.28.63-4,.89-5.19a11,11,0,0,1,.44-1.77c.16,0-.29,2.53-.73,7.06s-.95,11.13-1.26,19.26c-.73,16.33-.57,38.89-.95,63.85,0,1.33-.07,2.66-.1,3.89l-1.58-.31a34.75,34.75,0,0,1,25.12-21.67,35.37,35.37,0,0,1,26.7,5.28,67.19,67.19,0,0,0,16.58,7.66c4.18,1.17,6.58,1.29,6.55,1.45Z" transform="translate(85.4 86.92)"/><path class="cls-9" d="M809.24,154.4V397a58.8,58.8,0,0,1-13.83,37.87,177.24,177.24,0,0,1-48.69,40.34l-48.91,27.56-40.47-36.14A58.85,58.85,0,0,1,637.76,425c-.7-17.69-.7-35.47-.7-35.47S568.5,384.64,562,317c-3-31.83-4-97-4.14-157.15A131.53,131.53,0,0,1,678.6,28.48l1.93-.16A125.68,125.68,0,0,1,809.27,154.43Z" transform="translate(85.4 86.92)"/><path class="cls-10" d="M636.81,388.59s43.06-.06,86.18-32.4c0,0-16.83,50.44-84.89,49.93l-1.29-17.56Z" transform="translate(85.4 86.92)"/><path class="cls-8" d="M580.62,205.31a9.69,9.69,0,0,0,10.12,9,9.28,9.28,0,0,0,9.24-9.55,9.7,9.7,0,0,0-10.12-9A9.27,9.27,0,0,0,580.62,205.31Z" transform="translate(85.4 86.92)"/><path class="cls-8" d="M575.11,187.15c1.3,1.17,8.16-4.88,18.57-5.7,10.38-1,18.45,3.73,19.49,2.37.51-.6-.88-2.78-4.43-4.93A26.49,26.49,0,0,0,593,175.44a25.48,25.48,0,0,0-14.65,6.11C575.36,184.27,574.48,186.64,575.11,187.15Z" transform="translate(85.4 86.92)"/><path class="cls-8" d="M679.58,201.13a9.72,9.72,0,0,0,10.13,9,9.28,9.28,0,0,0,9.24-9.56,9.71,9.71,0,0,0-10.13-9A9.26,9.26,0,0,0,679.58,201.13Z" transform="translate(85.4 86.92)"/><path class="cls-8" d="M677.53,180.63c1.29,1.17,8.19-4.87,18.57-5.7,10.38-1,18.44,3.74,19.49,2.38.5-.61-.89-2.79-4.43-4.94a26.5,26.5,0,0,0-15.73-3.45A25.48,25.48,0,0,0,680.79,175C677.81,177.75,676.89,180.12,677.53,180.63Z" transform="translate(85.4 86.92)"/><path class="cls-8" d="M646.17,260.9c0-.6-6.55-1.17-17.15-1.65-2.69-.06-5.22-.38-5.82-2.15-.79-1.87.1-4.81,1.11-8,2-6.64,4-13.57,6.17-20.88,8.51-29.71,14.46-54,13.26-54.35s-9.09,23.47-17.59,53.18q-3,11-5.86,21c-.76,3.1-2.21,6.68-.5,10.54a6.68,6.68,0,0,0,4.68,3.51,17.89,17.89,0,0,0,4.55.25c10.6-.32,17.15-.79,17.12-1.39Z" transform="translate(85.4 86.92)"/><path class="cls-8" d="M677.37,265.55c-1.71,0-.79,11.32-9.78,20.15s-21.13,8.58-21.07,10.16c-.1.73,2.85,2,7.94,1.68a28.26,28.26,0,0,0,17.66-7.85,24.64,24.64,0,0,0,7.46-16.83C679.61,268.11,678.13,265.42,677.37,265.55Z" transform="translate(85.4 86.92)"/><path class="cls-8" d="M671.45,140.1c1.27,2.75,11.55.54,23.86,1,12.34.22,22.46,3,23.88.29.64-1.27-1.32-3.8-5.5-6.21a41.53,41.53,0,0,0-36.35-1c-4.34,2.19-6.39,4.59-5.86,5.89Z" transform="translate(85.4 86.92)"/><path class="cls-8" d="M576.44,156.74c2,2.21,9-.82,17.59-1.68,8.58-1.14,16,.29,17.53-2.34.63-1.26-.7-3.54-4.08-5.5a25.63,25.63,0,0,0-28.32,3.22c-2.85,2.69-3.64,5.19-2.75,6.3Z" transform="translate(85.4 86.92)"/><path class="cls-8" d="M729.6,86.25a4.15,4.15,0,0,0,.38.25,53.61,53.61,0,0,1,22.66,32.81c.09.48.22.92.31,1.36,4.24,19.08,5.38,38.76,9.81,57.81s3.61,33.6,22.69,37.9A25.41,25.41,0,0,0,812,205.59c1.65-2.62,1.71-6,1.68-9.05-.25-46.92,9.18-65.14,5.06-113.87a41.17,41.17,0,0,0-19.83-32.05c-10.83-6.45-23.89-13-34.81-6.7S740.3,72.68,732.23,82.39" transform="translate(85.4 86.92)"/><path class="cls-9" d="M789,186.92c1.11-.6,45.37-17.59,47.71,28.8s-44.71,39.2-44.86,37.87S789,186.92,789,186.92Z" transform="translate(85.4 86.92)"/><path class="cls-10" d="M805.1,235.27c.19-.16.82.54,2.24,1.08a8,8,0,0,0,6-.2c4.81-2.05,8.55-10,8.36-18.41a26.52,26.52,0,0,0-2.85-11.45c-1.58-3.32-3.89-5.57-6.39-5.89a4.08,4.08,0,0,0-4.65,2.47c-.57,1.33-.22,2.25-.45,2.34s-1-.73-.75-2.66a5.27,5.27,0,0,1,1.67-3,6,6,0,0,1,4.4-1.39c3.58.06,7,3.19,8.8,6.77A27.4,27.4,0,0,1,825,217.71c.18,9.36-4.18,18.35-10.79,20.63a8.75,8.75,0,0,1-7.47-.86c-1.49-1.07-1.81-2.08-1.65-2.18Z" transform="translate(85.4 86.92)"/><path class="cls-8" d="M766.27,50.94c9.87-19.46-23.57-43.47-47-48.76s-52.62,8.32-74.7,17.75c-14,5.95-27.68,13.77-42.84,14.4-10.16.41-20.12-2.47-30-5.06s-20-4.94-30.09-3.39-20,7.75-23.06,17.47S522.15,65.43,532.27,66c-13.38-6-31.16,4.81-32,19.43s15.44,27.46,29.46,23.16c-7-4.43-16.39,4.62-14.9,12.78s9.42,13.51,17.27,16.2c20,6.86,42.27,2.31,61.7-6.08s37.08-20.37,56.28-29.23,51.29-24.55,71.76-19.21c15.06,4,26.7,20.73,34.64,16.17,7.69-4.43,12.06-13.19,12.91-22s-1.1-17.62-3.1-26.26" transform="translate(85.4 86.92)"/><path class="cls-7" d="M526.58,65.15c.38-.26,2.65,3.22,8.1,8.22A64,64,0,0,0,561.76,87.8c12.47,3.23,29.07,3.23,44-5.44C620.89,74,633.2,58.79,647.6,44.2s31.79-26.13,49.95-29.3S733,17,743.08,26.58s13.07,21.51,13,29a30.81,30.81,0,0,1-1.3,8.67c-.7,1.9-1.14,2.82-1.27,2.79-.44-.1,1.17-4.09.79-11.39A39.89,39.89,0,0,0,740.9,29c-9.59-8.54-25.76-13.16-42.59-9.9s-33.44,14.05-47.45,28.38S624,77.36,607.8,86.06c-16.14,9.08-34,8.67-46.9,4.87a61.79,61.79,0,0,1-27.46-16.26,44.1,44.1,0,0,1-5.41-6.8c-1.07-1.68-1.55-2.6-1.42-2.69Z" transform="translate(85.4 86.92)"/><path class="cls-7" d="M800.57,183.92c-.16.16-2.09-1.11-4.14-4.65a31.46,31.46,0,0,1-3.71-16.58c-.22-15,11.65-32.08,11.62-52.84.19-10.25-2.44-20-7.41-27.21A35.48,35.48,0,0,0,778.52,69.2a30.18,30.18,0,0,0-15.63-.83c-3.67.89-5.6,1.93-5.79,1.58-.13-.19,1.52-1.77,5.28-3.29a29,29,0,0,1,17-.6,37.43,37.43,0,0,1,21,14.11c5.79,7.91,8.74,18.67,8.55,29.71s-3.2,21.33-6.52,29.9-6,16.33-6.46,23c-1.32,13.76,5.29,20.75,4.62,21Z" transform="translate(85.4 86.92)"/><path class="cls-8" d="M827.52,211.72l-7.54-7a6.78,6.78,0,0,0-9.57.36l-28.28,30.52a6.77,6.77,0,0,0,.37,9.57l7.54,7a6.78,6.78,0,0,0,9.57-.37l28.28-30.52A6.77,6.77,0,0,0,827.52,211.72Z" transform="translate(85.4 86.92)"/><path class="cls-8" d="M1088.33,612.79s.09.63.19,1.83.22,3.07.41,5.44c.35,4.84.85,12,1.49,21.23,1.26,18.61,3.07,45.78,5.41,80.21s5,76.22,8.19,123.9c.79,11.92,1.58,24.2,2.44,36.86.47,6.29.69,12.75,1,19.26a93.23,93.23,0,0,1-.1,9.88c-.19,3.29,0,6.64-.56,10s-.83,6.68-1.24,10.06c-.73,3.33-1.42,6.68-2.15,10-1,3.29-2.09,6.58-3.13,9.9-1.46,3.17-2.66,6.49-4.37,9.56-6.61,12.31-17,23.82-31.35,28.57h-.19c-92.29,0-197.87,0-309.53-.06-33.31,0-66.12,0-98.14-.07h-1.08l.29-1q4.5-16,8.92-31.8c1.49-5.25,2.94-10.47,4.4-15.69a111.88,111.88,0,0,0,3.67-15.6,67.94,67.94,0,0,0-2.72-31.07,38.2,38.2,0,0,0-7.41-13.35,21.67,21.67,0,0,0-12.62-7.4l-6.49-1,6.49-.54c40.88-3.45,80-6.71,116.9-9.81l-.34.13a39.94,39.94,0,0,1,25.18-7.76,50.75,50.75,0,0,1,24.4,7.76l-.51-.1,99.09-18.76-.44.76a42.45,42.45,0,0,1-1.71-11.65,94.4,94.4,0,0,1,.32-11.32,187.48,187.48,0,0,1,3-21.36l.07.35c-7.94-14.84-15.25-28.41-22-40.94l-.06-.1V759c-1.55-36.48-2.12-65.21-1.84-84.86.1-9.81.48-17.34,1-22.4a38.61,38.61,0,0,1,.86-5.69c.28-1.27.44-1.9.44-1.9s-.1.66-.32,1.93a48.78,48.78,0,0,0-.72,5.69c-.45,5.07-.73,12.56-.76,22.37-.1,19.62.57,48.35,2.24,84.79l-.06-.18c6.77,12.49,14.08,26,22.08,40.84l.1.16v.19a170.93,170.93,0,0,0-3,21.23,98.94,98.94,0,0,0-.29,11.2,42.11,42.11,0,0,0,1.68,11.33l.22.63-.67.13L816,863.4l-.25.06-.25-.15a48.77,48.77,0,0,0-23.67-7.47,38.41,38.41,0,0,0-24.27,7.5l-.15.12h-.2c-36.92,3.17-76,6.49-116.9,10v-1.55A23.38,23.38,0,0,1,664,879.79a40.66,40.66,0,0,1,7.72,13.89,69.86,69.86,0,0,1,2.81,31.83,111.1,111.1,0,0,1-3.7,15.82q-2.18,7.83-4.4,15.69-4.41,15.75-8.89,31.8l-.79-1.05c32.05,0,64.83,0,98.15,0,111.65.1,217.2.16,309.52.23h-.16a46.89,46.89,0,0,0,17.94-11,67,67,0,0,0,12.5-16.73c1.68-3,2.88-6.3,4.3-9.4,1-3.29,2.15-6.52,3.1-9.78.73-3.32,1.43-6.61,2.15-9.9.41-3.32.83-6.64,1.24-9.94s.38-6.61.57-9.87a91.13,91.13,0,0,0,.09-9.77c-.28-6.49-.5-12.88-1-19.21q-1.18-19-2.34-36.86c-3-47.68-5.66-89.44-7.84-123.93s-3.83-61.63-5-80.23c-.54-9.27-1-16.39-1.27-21.23-.13-2.38-.22-4.21-.28-5.45s-.07-1.83-.07-1.83Z" transform="translate(85.4 86.92)"/><path class="cls-8" d="M998.73,440.39s-2,1.26-5.64,3.51a128.61,128.61,0,0,0-14.64,10.5c-11.84,9.52-26.11,25.34-37.91,45.37s-19.68,39.68-25.31,53.85c-2.72,7-4.93,12.66-6.58,16.86-.73,1.84-1.36,3.36-1.83,4.56a5.64,5.64,0,0,1-.77,1.55,6.56,6.56,0,0,1,.45-1.68l1.55-4.68c1.39-4.05,3.42-9.87,6.07-17.05,5.38-14.3,13.07-34.11,25-54.26s26.45-36.07,38.6-45.44a112.46,112.46,0,0,1,15.06-10.12c1.83-1.08,3.38-1.77,4.37-2.28s1.55-.73,1.58-.66Z" transform="translate(85.4 86.92)"/><g class="cls-4"><path d="M874.89,561.18c-13.45,29.24-18.89,62.46-17.68,94.64s5.06,64.41,1.89,96.43S844.83,817,820.92,838.53c-2.88,2.6-6,5.09-7.72,8.57s-1.59,8.23,1.48,10.6c2.72,2.12,6.55,1.62,9.94,1,22.9-4,46-6.8,68.94-10.79,4.9-.86,21.42-4.08,21.42-4.08s-2.18-12.56-1.39-18.83c.72-5.72,3-25.21,3-25.21-.66-3-2.85-5.29-4.4-8.14-15.06-28-19-48.69-19-48.69-7.82-16-11.33-32-14.93-47C868.18,654.55,868.5,613.67,874.89,561.18Z" transform="translate(85.4 86.92)"/></g><g class="cls-4"><path d="M624.09,514c1.87,4.74,3.76,9.49,5.63,14.23.57,1.46,1.3,3,2.72,3.61,2.82,1.08,5.06-2.37,6.39-5.09A36.58,36.58,0,0,1,666.9,507c9.61-1.1,19.49,1.68,28.94-.28-8.38-5-16.83-10-26.13-13s-19.58-3.77-28.7-.29-16.64,11.9-17.33,21.61" transform="translate(85.4 86.92)"/></g><g class="cls-4"><path d="M702.3,502c11.23.19,22.59.42,33.51,3s21.57,7.85,28.69,16.55c7.66,9.33,10.51,21.54,13.61,33.22.6,2.25,1.67,4.9,4,5.16,1.4.15,2.66-.7,3.8-1.52,18.92-13.89,31.42-35.22,38.28-57.65s8.42-46.16,8.8-69.6c-9.05,16.16-13,34.58-19,52.1s-14.78,35.19-30.28,45.31a15.11,15.11,0,0,0-3.55-11.1,32.73,32.73,0,0,0-9.2-7.53,87.82,87.82,0,0,0-70.43-8.61" transform="translate(85.4 86.92)"/></g><path class="cls-9" d="M653.13,874.63H614.41S527,843.06,509,846.06c-16.2,2.72-75.46,42.08-87.07,49.9a7.26,7.26,0,0,0-2.82,3.57,12.7,12.7,0,0,0,7.06,16.14l1.23.5-.54,1.78A21,21,0,0,0,426,925c.44,8.32,11.61,10.86,15.88,3.7l-2.25,4A9.63,9.63,0,0,0,438.4,938l.19,3.61a9.75,9.75,0,0,0,16.89,6c7.53-8.26,23.76-24.84,34.74-26.68,9.78-1.61,26-1.83,35.88-1.8a12.19,12.19,0,0,1,11.3,7.75c-6.52.48-52,24.14-68,32.62A17.14,17.14,0,0,0,460,972.49c-.6,5,2,10.32,11.9,8,21.35-5,59.79-22.65,59.79-22.65s19.84-5.66,32.69,3.39c18.06,12.75,26.35,17.43,41.85,12.27a131.84,131.84,0,0,0,27-12.53l30.57-3s28.88-72.24-10.6-83.31Z" transform="translate(85.4 86.92)"/><path class="cls-10" d="M528.44,868.18c-.09.41-6.32-2.66-17.08-3-10.7-.47-25.73,2.75-39.77,11.27s-24.55,19.36-32,27.11c-3.55,3.77-6.49,6.9-8.8,9.33a27.69,27.69,0,0,1-3.35,3.33,25.57,25.57,0,0,1,2.88-3.74c1.93-2.34,4.77-5.66,8.41-9.71,7.28-8,17.75-19,32.05-27.72s29.78-11.76,40.66-11a49,49,0,0,1,12.69,2.31,26.67,26.67,0,0,1,3.26,1.27c.72.31,1.1.5,1.07.57Z" transform="translate(85.4 86.92)"/><path class="cls-8" d="M106.54,1010.3,1.53,746.75a34.45,34.45,0,0,1,31.86-47.53H360.47a34.47,34.47,0,0,1,32.62,23.38l90.17,265.81,105.33.5c8.54,0,15.47,12.56,15.47,21.11l-115.93-1.33-381.59,1.58Z" transform="translate(85.4 86.92)"/><path class="cls-11" d="M109.07,760.16a36.37,36.37,0,0,0-21.14,5.67,28.72,28.72,0,0,0-5.76,4.77c-5.6,6.3-15.59,18.54-11.61,37.65s16.33,21.74,22,22.37,45.94-10.79,45.94-10.79,14.59-12.4,9.4-28.63C143.52,777.25,130.58,761,109.07,760.16Z" transform="translate(85.4 86.92)"/><path class="cls-12" d="M89.89,824.93s1.46,10.22,6.58,12.81,14.69,2.12,22,.28,18.23-6,19.49-11.7.19-12.56-.63-13.32-12-7.06-27-2.47S89.89,824.93,89.89,824.93Z" transform="translate(85.4 86.92)"/><g class="cls-13"><path class="cls-14" d="M122.45,776.11a19.24,19.24,0,1,1-23.35-14A19.25,19.25,0,0,1,122.45,776.11Z" transform="translate(85.4 86.92)"/></g><g class="cls-13"><path class="cls-14" d="M73.88,818c3.58-4.56,5.86-10.57,5.45-16.33a23.89,23.89,0,0,0-7.12-15.38s-3.67,10.89-2.09,19.46c1.64,9.14,3.76,12.21,3.76,12.21Z" transform="translate(85.4 86.92)"/></g><g class="cls-13"><path class="cls-14" d="M149.09,799.08a24.81,24.81,0,0,1-12.53-11.8,21.91,21.91,0,0,1-1.23-16.11s7.37,7,10.91,15.35c3.74,8.79,2.82,12.56,2.82,12.56Z" transform="translate(85.4 86.92)"/></g><path class="cls-12" d="M257.68,865.64a21.23,21.23,0,1,1-21.24-21.22A21.25,21.25,0,0,1,257.68,865.64Z" transform="translate(85.4 86.92)"/></g></g></g></g></g></g></svg>