<svg xmlns="http://www.w3.org/2000/svg" viewBox="0 0 47.4 42.33"><g id="Layer_2" data-name="Layer 2"><g id="Layer_1-2" data-name="Layer 1"><path d="M22.82,41A3.17,3.17,0,0,0,24,40.74a2.37,2.37,0,0,0,1-.67L43.92,21.16a9.8,9.8,0,0,0,1.56-2,4.55,4.55,0,0,0,.58-2.28,5.71,5.71,0,0,0-.58-2.48,8.14,8.14,0,0,0-1.56-2.16l-9-9a7.52,7.52,0,0,0-2-1.46,5.1,5.1,0,0,0-2.29-.49,5.28,5.28,0,0,0-2.31.49,6.55,6.55,0,0,0-1.95,1.46L23.73,6l4.64,4.63a5,5,0,0,1,1,1.5,4.28,4.28,0,0,1,.4,1.8,3.68,3.68,0,0,1-1.13,2.74,3.76,3.76,0,0,1-2.71,1.1,5.22,5.22,0,0,1-1.77-.28,4.15,4.15,0,0,1-1.47-.88l-4.63-4.7L7.45,22.51a2.92,2.92,0,0,0-.67,1,3,3,0,0,0-.25,1.16,2.33,2.33,0,0,0,.67,1.74,2.37,2.37,0,0,0,1.71.64,3,3,0,0,0,1.22-.27,3.54,3.54,0,0,0,1-.64l7.62-7.63,1,1-7.63,7.56a4,4,0,0,0-.67,1.07,3,3,0,0,0-.24,1.19,2.25,2.25,0,0,0,.7,1.67,2.3,2.3,0,0,0,1.68.71,3.37,3.37,0,0,0,1.22-.25,2.37,2.37,0,0,0,1-.67l8.36-8.35,1,1-8.35,8.3a4,4,0,0,0-.64,1A2.89,2.89,0,0,0,15.8,34a2.33,2.33,0,0,0,.7,1.68,2.29,2.29,0,0,0,1.68.7,3.08,3.08,0,0,0,1.19-.24,3.18,3.18,0,0,0,1-.67l8.35-8.36,1,1-8.36,8.35a3,3,0,0,0-.67,1.07,3.41,3.41,0,0,0-.24,1.19,2.17,2.17,0,0,0,.7,1.68A2.45,2.45,0,0,0,22.82,41Zm0,1.34A3.69,3.69,0,0,1,20,41a3.89,3.89,0,0,1-.85-3.33,4.36,4.36,0,0,1-3.45-1,4.15,4.15,0,0,1-1.19-3.6,4.61,4.61,0,0,1-3.6-1.13,4,4,0,0,1-1-3.51,4.69,4.69,0,0,1-3.27-.79A3.37,3.37,0,0,1,5.19,24.7,4.53,4.53,0,0,1,5.53,23a4.22,4.22,0,0,1,.94-1.46L18.06,9.94l5.43,5.43a3.73,3.73,0,0,0,1.07.73,3,3,0,0,0,1.37.31,2.48,2.48,0,0,0,1.74-.73,2.4,2.4,0,0,0,.76-1.77,2.55,2.55,0,0,0-.31-1.25,4.94,4.94,0,0,0-.73-1.07L19.1,3.29a7.36,7.36,0,0,0-2-1.46,5.28,5.28,0,0,0-2.31-.49,4.92,4.92,0,0,0-2.26.49,7.74,7.74,0,0,0-1.95,1.46L3.3,10.55a6.94,6.94,0,0,0-1.5,2.2,6.21,6.21,0,0,0-.45,2.68,5.75,5.75,0,0,0,.3,1.86,7.19,7.19,0,0,0,.8,1.62l-1.1,1a11,11,0,0,1-.89-2.07A9.66,9.66,0,0,1,0,15.37a7.58,7.58,0,0,1,.54-3.2A8.15,8.15,0,0,1,2.32,9.51l7.2-7.19A8.32,8.32,0,0,1,12,.58,6.87,6.87,0,0,1,14.83,0a6.65,6.65,0,0,1,2.8.58,8.33,8.33,0,0,1,2.44,1.74L22.76,5l2.68-2.68A8.47,8.47,0,0,1,27.88.58,6.65,6.65,0,0,1,30.68,0a6.87,6.87,0,0,1,2.84.58A8.2,8.2,0,0,1,36,2.32l8.91,8.9a9,9,0,0,1,1.83,2.66,7.4,7.4,0,0,1,.67,3,6,6,0,0,1-.67,2.8,10.25,10.25,0,0,1-1.83,2.44L26,41.05a3.55,3.55,0,0,1-1.47,1A4.93,4.93,0,0,1,22.82,42.33Z"/></g></g></svg>