<svg id="Layer_1" height="512" viewBox="0 0 32 32" width="512" xmlns="http://www.w3.org/2000/svg"><g id="underwriting"><g id="search_magnifier_magnifying_glass_loupe"><g id="search_funds_x2C__magnifying_glass_x2C__magnifier_x2C__loupe_1_"><g id="analysis_2_"><g><g><g><g><path d="m23.586 23.586c.122-.122.262-.217.408-.299l-2.276-2.277c-.195-.195-.512-.195-.707 0-.195.196-.195.512 0 .708l2.271 2.271c.086-.143.182-.282.304-.403z" fill="rgb(0,0,0)"/></g><g><g><g><g><g><path d="m28.5 31c-.667 0-1.295-.26-1.768-.732l-3.5-3.5c-.472-.473-.732-1.1-.732-1.768s.26-1.295.732-1.768c.906-.906 2.629-.906 3.535 0l3.5 3.5c.473.473.733 1.1.733 1.768s-.26 1.295-.732 1.768-1.101.732-1.768.732zm-3.5-7.48c-.407 0-.793.152-1.061.42-.283.283-.439.66-.439 1.06s.156.777.439 1.061l3.5 3.5c.567.566 1.554.566 2.121 0 .284-.284.44-.661.44-1.061s-.156-.777-.439-1.061l-3.5-3.5c-.268-.267-.654-.419-1.061-.419z" fill="rgb(0,0,0)"/></g></g></g></g></g></g><g><g><g><g><g><path d="m13 22.45c-.276 0-.5-.224-.5-.5s.224-.5.5-.5c2.993 0 5.71-1.519 7.268-4.063.145-.236.452-.311.688-.166.235.145.31.452.165.688-1.742 2.844-4.777 4.541-8.121 4.541z" fill="rgb(0,0,0)"/></g></g></g></g></g><g><g><g><g><g><path d="m13 25c-6.617 0-12-5.383-12-12s5.383-12 12-12c3.313 0 6.396 1.319 8.682 3.716.19.199.183.516-.017.706-.2.191-.517.185-.707-.017-2.095-2.195-4.921-3.405-7.958-3.405-6.065 0-11 4.935-11 11s4.935 11 11 11c4.324 0 8.263-2.548 10.036-6.49.113-.252.41-.365.661-.251.252.113.364.409.251.661-1.934 4.301-6.231 7.08-10.948 7.08z" fill="rgb(0,0,0)"/></g></g></g></g></g></g></g></g></g></g><g><path d="m29.5 14c-.276 0-.5-.224-.5-.5v-8c0-.276.224-.5.5-.5s.5.224.5.5v8c0 .276-.224.5-.5.5z" fill="rgb(0,0,0)"/></g><g><g><g><g><g><path d="m23.5 14c-.276 0-.5-.224-.5-.5v-3c0-.276.224-.5.5-.5s.5.224.5.5v3c0 .276-.224.5-.5.5z" fill="rgb(0,0,0)"/></g></g></g></g></g><g><g><g><g><g><path d="m17.5 14c-.276 0-.5-.224-.5-.5v-1c0-.276.224-.5.5-.5s.5.224.5.5v1c0 .276-.224.5-.5.5z" fill="rgb(0,0,0)"/></g></g></g></g></g><g><g><g><g><g><path d="m11.5 14c-.276 0-.5-.224-.5-.5v-4c0-.276.224-.5.5-.5s.5.224.5.5v4c0 .276-.224.5-.5.5z" fill="rgb(0,0,0)"/></g></g></g></g></g><g><g><g><g><g><path d="m5.5 14c-.13 0-.26-.05-.35-.15-.1-.09-.15-.22-.15-.35s.05-.26.15-.351c.18-.189.52-.189.7 0 .1.091.15.221.15.351s-.05.26-.15.35c-.09.1-.22.15-.35.15z" fill="rgb(0,0,0)"/></g></g></g></g></g><g><g><g><g><g><path d="m29.5 4c-.827 0-1.5-.673-1.5-1.5s.673-1.5 1.5-1.5 1.5.673 1.5 1.5-.673 1.5-1.5 1.5zm0-2c-.276 0-.5.225-.5.5s.224.5.5.5.5-.225.5-.5-.224-.5-.5-.5z" fill="rgb(0,0,0)"/></g></g></g></g><g><g><g><g><path d="m23.5 9c-.827 0-1.5-.673-1.5-1.5s.673-1.5 1.5-1.5 1.5.673 1.5 1.5-.673 1.5-1.5 1.5zm0-2c-.276 0-.5.225-.5.5s.224.5.5.5.5-.225.5-.5-.224-.5-.5-.5z" fill="rgb(0,0,0)"/></g></g></g></g><g><g><g><g><path d="m17.5 11c-.827 0-1.5-.673-1.5-1.5s.673-1.5 1.5-1.5 1.5.673 1.5 1.5-.673 1.5-1.5 1.5zm0-2c-.276 0-.5.225-.5.5s.224.5.5.5.5-.225.5-.5-.224-.5-.5-.5z" fill="rgb(0,0,0)"/></g></g></g></g><g><g><g><g><path d="m11.5 8c-.827 0-1.5-.673-1.5-1.5s.673-1.5 1.5-1.5 1.5.673 1.5 1.5-.673 1.5-1.5 1.5zm0-2c-.276 0-.5.225-.5.5s.224.5.5.5.5-.225.5-.5-.224-.5-.5-.5z" fill="rgb(0,0,0)"/></g></g></g></g><g><g><g><path d="m10.512 6.558-4.577 3.051c.314.154.531.465.554.833l4.577-3.052c-.316-.153-.532-.463-.554-.832z" fill="rgb(0,0,0)"/></g><g><path d="m22.5 7.5c0-.074.027-.139.042-.208l-4.39 1.464c.209.182.348.443.348.744 0 .074-.027.139-.042.208l4.39-1.464c-.209-.182-.348-.443-.348-.744z" fill="rgb(0,0,0)"/></g><g><path d="m16.968 8.675-4.481-2.24c.001.022.013.042.013.065 0 .353-.192.647-.468.825l4.481 2.24c-.001-.022-.013-.042-.013-.065 0-.353.193-.647.468-.825z" fill="rgb(0,0,0)"/></g><g><path d="m28.545 2.727-4.698 3.843c.333.124.567.42.623.781l4.771-3.903c-.349-.095-.611-.367-.696-.721z" fill="rgb(0,0,0)"/></g></g><g><g><g><g><path d="m5.5 12c-.827 0-1.5-.673-1.5-1.5s.673-1.5 1.5-1.5 1.5.673 1.5 1.5-.673 1.5-1.5 1.5zm0-2c-.276 0-.5.225-.5.5s.224.5.5.5.5-.225.5-.5-.224-.5-.5-.5z" fill="rgb(0,0,0)"/></g></g></g></g></g></g><g><g><g><g><g><path d="m30.5 16h-25c-.276 0-.5-.224-.5-.5s.224-.5.5-.5h25c.276 0 .5.224.5.5s-.224.5-.5.5z" fill="rgb(0,0,0)"/></g></g></g></g></g></g></svg>