<?xml version="1.0" encoding="utf-8"?>
<!-- Generator: Adobe Illustrator 22.0.1, SVG Export Plug-In . SVG Version: 6.00 Build 0)  -->
<svg version="1.1" id="Layer_1" xmlns="http://www.w3.org/2000/svg" xmlns:xlink="http://www.w3.org/1999/xlink" x="0px" y="0px"
	 viewBox="0 0 202.8 172.3" style="enable-background:new 0 0 202.8 172.3;" xml:space="preserve">
<title>a3-2</title>
<g id="Layer_2_1_">
	<g id="Layer_1-2">
		<path d="M101.7,108.8c21,0,38-17,38-38s-17-38-38-38s-38,17-38,38S80.7,108.8,101.7,108.8z M101.7,39c17.6,0,31.8,14.2,31.8,31.8
			s-14.2,31.8-31.8,31.8S69.9,88.3,69.9,70.8C69.9,53.2,84.1,39,101.7,39L101.7,39z"/>
		<path d="M93.2,88.4c1,0.5,2.3,0.4,3.2-0.2l20.7-14.9c1.4-1,1.7-3,0.7-4.3c-0.2-0.3-0.4-0.5-0.7-0.7L96.4,53.4
			c-1.4-1-3.3-0.7-4.3,0.7c-0.4,0.5-0.6,1.1-0.6,1.8v29.8C91.5,86.8,92.1,87.9,93.2,88.4z M97.7,61.9l12.3,8.9l-12.3,8.9L97.7,61.9z
			"/>
		<path d="M199.7,0H3.1C1.4,0,0,1.4,0,3.1v135.3c0,1.7,1.4,3.1,3.1,3.1h95.2v14.8H61c-7.4,0-14.4,3.1-19.3,8.6l-2,2.2
			c-1.1,1.3-1,3.2,0.2,4.4c0.6,0.5,1.3,0.8,2.1,0.8h119.4c1.7,0,3.1-1.4,3.1-3.1c0-0.8-0.3-1.6-0.9-2.2l-3.4-3.3
			c-4.8-4.7-11.3-7.4-18.1-7.4h-37.7v-14.9h95.2c1.7,0,3.1-1.4,3.1-3.1v0V3.1C202.8,1.4,201.4,0,199.7,0C199.7,0,199.7,0,199.7,0z
			 M153.4,166.1H49.7c3.3-2.3,7.3-3.6,11.3-3.6h81.1C146.2,162.5,150.1,163.8,153.4,166.1z M196.6,135.4H6.2V6.2h190.4L196.6,135.4z
			"/>
	</g>
</g>
</svg>
