<?xml version="1.0" encoding="utf-8"?>
<!-- Generator: Adobe Illustrator 22.0.1, SVG Export Plug-In . SVG Version: 6.00 Build 0)  -->
<svg version="1.1" id="Layer_1" xmlns="http://www.w3.org/2000/svg" xmlns:xlink="http://www.w3.org/1999/xlink" x="0px" y="0px"
	 viewBox="0 0 204.2 175.4" style="enable-background:new 0 0 204.2 175.4;" xml:space="preserve">
<title>a3-3</title>
<g id="Layer_2_1_">
	<g id="Layer_1-2">
		<path d="M191.1,0h-178C5.9,0,0,5.8,0,13c0,0,0,0,0,0v149.3c0,7.2,5.9,13,13.1,13.1h178.1c7.2,0,13.1-5.8,13.1-13.1V13.1
			C204.2,5.8,198.3,0,191.1,0z M198,162.4c0,3.8-3.1,6.9-6.9,6.9h-178c-3.8,0-6.9-3.1-6.9-6.9V13.1c0-3.8,3.1-6.9,6.9-6.9h178
			c3.8,0,6.9,3.1,6.9,6.9c0,0,0,0,0,0V162.4z"/>
		<path d="M19.8,32.3h164.6c1.7,0.1,3.2-1.2,3.3-2.9c0.1-1.7-1.2-3.2-2.9-3.3c-0.1,0-0.2,0-0.4,0H19.8c-1.7-0.1-3.2,1.2-3.3,2.9
			c-0.1,1.7,1.2,3.2,2.9,3.3C19.5,32.3,19.7,32.3,19.8,32.3z"/>
		<path d="M23.1,20.1c1.9,0,3.4-1.5,3.3-3.4c0-1.9-1.5-3.3-3.4-3.3c-1.9,0-3.3,1.5-3.3,3.3S21.3,20.1,23.1,20.1
			C23.1,20.1,23.1,20.1,23.1,20.1z"/>
		<path d="M34,20.1c1.9,0,3.3-1.5,3.3-3.4s-1.5-3.3-3.3-3.3c-1.9,0-3.4,1.5-3.4,3.3S32.1,20.1,34,20.1L34,20.1z"/>
		<path d="M44.8,20.1c1.9,0,3.4-1.5,3.4-3.3s-1.5-3.4-3.3-3.4c-1.9,0-3.4,1.5-3.4,3.3l0,0C41.4,18.6,42.9,20.1,44.8,20.1z"/>
		<path d="M184.4,125.3c-3.7,0-7.1,2.3-8.4,5.9H19.8c-1.7,0-3.1,1.4-3.1,3.1l0,0v21.9c0,1.7,1.4,3.1,3.1,3.1h164.6
			c1.7,0,3.1-1.4,3.1-3.1v-5.9c0.1-1.7-1.2-3.2-2.9-3.3c-1.7-0.1-3.2,1.2-3.3,2.9c0,0.1,0,0.2,0,0.4v2.9H22.9v-15.7H176
			c1.7,4.6,6.8,7,11.5,5.3c4.6-1.7,7-6.8,5.3-11.5C191.5,127.6,188.1,125.3,184.4,125.3L184.4,125.3z M184.4,136.9
			c-1.5,0-2.8-1.2-2.8-2.8c0-1.5,1.2-2.8,2.8-2.8c1.5,0,2.8,1.2,2.8,2.8c0,0,0,0,0,0C187.2,135.7,186,137,184.4,136.9
			C184.4,137,184.4,137,184.4,136.9L184.4,136.9z"/>
		<path d="M64.1,81.9c0,21,17,38,38,38s38-17,38-38s-17-38-38-38S64.1,60.9,64.1,81.9z M133.9,81.9c0,17.6-14.2,31.8-31.8,31.8
			c-17.6,0-31.8-14.2-31.8-31.8c0-17.6,14.2-31.8,31.8-31.8l0,0C119.6,50.1,133.9,64.4,133.9,81.9z"/>
		<path d="M93.6,64.3c-1,0.5-1.7,1.6-1.7,2.7v29.8c0,1.2,0.6,2.2,1.7,2.8c1,0.5,2.3,0.4,3.2-0.2l20.7-14.9c1.4-1,1.7-2.9,0.7-4.3
			c-0.2-0.3-0.4-0.5-0.7-0.7L96.8,64.5C95.8,63.8,94.6,63.7,93.6,64.3z M98.1,73.1l12.3,8.9l-12.3,8.9V73.1z"/>
		<path d="M31.4,142c-1.7,0.1-3,1.6-2.9,3.3c0.1,1.6,1.3,2.8,2.9,2.9h64.5c1.7-0.1,3-1.6,2.9-3.3c-0.1-1.6-1.3-2.8-2.9-2.9H31.4z"/>
		<path d="M109.2,142c-1.7,0.1-3,1.6-2.9,3.3c0.1,1.6,1.3,2.8,2.9,2.9h2.6c1.7-0.1,3-1.6,2.9-3.3c-0.1-1.6-1.3-2.8-2.9-2.9H109.2z"
			/>
		<path d="M127.3,142c-1.7-0.1-3.2,1.2-3.3,2.9c-0.1,1.7,1.2,3.2,2.9,3.3c0.1,0,0.2,0,0.4,0h29.6c1.7,0.1,3.2-1.2,3.3-2.9
			c0.1-1.7-1.2-3.2-2.9-3.3c-0.1,0-0.2,0-0.4,0H127.3z"/>
	</g>
</g>
</svg>
