<?xml version="1.0" encoding="utf-8"?>
<!-- Generator: Adobe Illustrator 22.0.1, SVG Export Plug-In . SVG Version: 6.00 Build 0)  -->
<svg version="1.1" id="Layer_1" xmlns="http://www.w3.org/2000/svg" xmlns:xlink="http://www.w3.org/1999/xlink" x="0px" y="0px"
	 viewBox="0 0 204 199.1" style="enable-background:new 0 0 204 199.1;" xml:space="preserve">
<title>a3-4_1</title>
<g id="Layer_2_1_">
	<g id="Layer_1-2">
		<path d="M133.4,51.2c1.7,0,3.1-1.4,3.1-3.1c0-0.6-0.2-1.2-0.5-1.7c-5.7-8.4-8.4-18.6-7.4-28.8c0.3-4.6,1.4-9.1,3.1-13.3
			c0.7-1.6,0-3.4-1.5-4.1c-1.6-0.7-3.4,0-4.1,1.5c-0.5,1-11,24.4,4.8,48.1C131.4,50.7,132.4,51.3,133.4,51.2z"/>
		<path d="M201.7,69.7c-22.5-5.8-38.9-16.7-47.3-31.5c-2.6-4.5-4.4-9.5-5.4-14.6c-0.4-2-0.6-4.1-0.6-6.2c0.1-1.7-1.2-3.2-2.9-3.2
			s-3.2,1.2-3.2,2.9c0,0.5-0.4,11.2,6.6,23.8l0.1,0.1c-0.1,0.4-0.2,0.9-0.1,1.3c1.2,9.1-9.9,19.3-18.8,27.4
			c-5.6,5.2-10,9.2-11.4,12.9c-0.9,2.3-0.8,4.8,0.3,7c2.5,5.4,10,9.2,13.7,10.7c-0.5,2.8-1.9,5.3-4.1,7.1c-1.5,1.3-2.4,3.2-2.3,5.2
			c0.2,3.2,2.9,5.3,3.4,5.7l0.1,0.1l20.5,13.3l-18.5,12.6l-0.1,0.1l-0.3,0.2c-0.1,0.1-0.1,0.1-0.2,0.2l-0.2,0.2l-0.2,0.3
			c0,0.1-0.1,0.2-0.1,0.3s-0.1,0.2-0.1,0.3l-0.1,0.3c0,0.1,0,0.2-0.1,0.3v0.3c0,0.1,0,0.2,0,0.3s0,0.2,0,0.3s0,0.2,0.1,0.3
			s0,0.1,0,0.2c0,0,0,0.1,0,0.1c0.1,0.1,0.1,0.2,0.2,0.3c0.9,1.8,3.1,2.6,6.4,3.8c0.6,0.2,1.3,0.4,1.9,0.7c-1.1,2.9-2.1,7.5-0.3,12
			c1.8,4.7,6.1,7.8,12.6,9.3c3.5,0.7,7.1,0.9,10.6,0.7c4.7-0.1,7.5-0.1,10,2c3.3,2.8,5.9,9.3,8,19.9c0.3,1.4,1.5,2.5,3,2.5
			c0.2,0,0.4,0,0.6-0.1c1.7-0.3,2.8-2,2.4-3.6c-2.4-12.3-5.5-19.6-10-23.4s-9.4-3.6-14.3-3.5c-3,0.2-6,0.1-9-0.5
			c-4.4-1-7.1-2.9-8.2-5.5c-1.5-3.7,0.5-8.3,0.9-9c0.6-0.9,0.7-2,0.4-3c-0.7-2.1-2.9-2.9-6.2-4.1l17.9-12.2c1.4-1,1.8-2.9,0.8-4.3
			c-0.2-0.3-0.5-0.6-0.9-0.9L133,113.4c-0.3-0.3-0.6-0.6-0.8-1c0.1-0.1,0.2-0.2,0.3-0.3c7.4-6.7,6.1-14,6.1-14.3c-0.2-1.1-1-2-2-2.3
			c-2.6-0.9-10.4-4.4-12.2-8.3c-0.3-0.7-0.4-1.5-0.1-2.2c0.9-2.3,5.5-6.5,9.9-10.6c7.9-7.3,17.4-16,20.1-25.4
			c3.5,4.3,7.4,8.1,11.9,11.3c9.1,6.8,20.5,12,34,15.4c0.3,0.1,0.5,0.1,0.8,0.1c1.7,0,3.1-1.4,3.1-3.1c0-1.4-1-2.7-2.4-3L201.7,69.7
			z"/>
		<path d="M120.3,122.6c-1.2-1.2-3.2-1.1-4.4,0.1c0,0,0,0,0,0c-4.4,4.7-4.5,12-0.1,16.7c1.2,1.3,3.1,1.4,4.4,0.2
			c1.3-1.2,1.4-3.1,0.2-4.4c-2.2-2.4-2.1-6,0.1-8.3C121.6,125.7,121.5,123.8,120.3,122.6C120.3,122.6,120.3,122.6,120.3,122.6z"/>
		<path d="M107.9,110.9c-1.2-1.2-3.2-1.1-4.4,0.1c0,0,0,0,0,0c-10.5,11.2-10.7,28.6-0.3,39.9c1.2,1.3,3.1,1.4,4.4,0.2
			c1.3-1.2,1.4-3.1,0.2-4.4c-8.2-8.9-8.1-22.7,0.2-31.5C109.2,114.1,109.1,112.1,107.9,110.9C107.9,110.9,107.9,110.9,107.9,110.9z"
			/>
		<path d="M83.6,131.2c0-10.5,4-20.6,11.2-28.3c1.2-1.2,1.1-3.2-0.1-4.4s-3.2-1.1-4.4,0.1l0,0c-17,18.1-17.2,46.2-0.5,64.5
			c1,1.4,3,1.6,4.3,0.6c1.4-1,1.6-3,0.6-4.3c-0.1-0.2-0.2-0.3-0.4-0.4C87.4,151.4,83.6,141.5,83.6,131.2z"/>
		<path d="M59.8,55.4c-8.5-6-19.4-7.7-30.5-5c-9.8,2.2-18.1,8.4-22.9,17.2C2.2,75.1,0,84.7,0,95.5c0.1,1.7,1.6,3,3.3,2.9
			c1.6-0.1,2.8-1.3,2.9-2.9c0-12.4,3.2-33.9,24.5-39.1c9.5-2.3,18.4-0.9,25.5,4.1c8,5.6,13.2,15.3,14.6,27.4
			c1.5,13.1-3.8,21.9-10.1,32c-5,8.2-10.8,17.6-13.2,30.4C45,163.6,36.5,167.6,30,167c-7-0.6-12.3-6.5-12.1-13.5
			c0.1-1.7-1.2-3.2-2.9-3.3s-3.2,1.2-3.3,2.9c0,0.1,0,0.2,0,0.4c-0.2,10.2,7.5,18.8,17.7,19.7c0.7,0.1,1.3,0.1,2,0.1
			c4.7,0,9.3-1.6,13-4.6c4.7-3.8,8-9.8,9.4-17.1c2.3-11.7,7.4-20.1,12.4-28.3c6.5-10.7,12.7-20.8,10.9-36
			C75.4,73.3,69.3,62.1,59.8,55.4z"/>
		<path d="M32.6,127.9c0,4.1-0.8,7.3-2.4,9.2c-1,1.3-2.5,2.1-4.2,2.1c-2,0-4.1-1.2-4.1-3c0.1-1.7-1.2-3.2-2.9-3.3
			c-1.7-0.1-3.2,1.2-3.3,2.9c0,0.1,0,0.2,0,0.4c0,5.1,4.6,9.2,10.3,9.2c3.5,0,6.8-1.6,9-4.4c2.5-3.1,3.8-7.5,3.8-13.1
			c0-6.3,2.7-9,5.8-12.2c4-4.2,8.6-8.9,5.2-20.1c-2.4-8-7.9-12.7-15.2-12.8c-4.6,0-9,1.6-12.6,4.5c0.2-2.1,0.8-4.1,1.7-6
			c2-4.2,5.6-7.1,11-8.6c3.9-1.1,7.3-0.9,10.3,0.8c6.6,3.7,9.1,12.9,9.1,13c0.4,1.7,2.1,2.6,3.8,2.2s2.6-2.1,2.2-3.8
			C60.1,84.3,57,73,48.2,68c-4.5-2.5-9.6-3-15.1-1.4c-7.1,2-12.1,6-14.9,11.9c-6,12.6,0.8,29,1,29.7c0.5,1.1,1.6,1.9,2.9,1.9
			c0.4,0,0.8-0.1,1.2-0.2c1.5-0.7,2.3-2.4,1.7-4c-1.2-3-2-6.2-2.5-9.4c2.3-4.6,7-7.6,12.1-7.6c4.5,0.1,7.8,3,9.4,8.4
			c2.3,7.8-0.1,10.3-3.8,14C36.8,114.8,32.6,119.1,32.6,127.9z"/>
	</g>
</g>
</svg>
