<?xml version="1.0" encoding="utf-8"?>
<!-- Generator: Adobe Illustrator 22.0.1, SVG Export Plug-In . SVG Version: 6.00 Build 0)  -->
<svg version="1.1" id="Layer_1" xmlns="http://www.w3.org/2000/svg" xmlns:xlink="http://www.w3.org/1999/xlink" x="0px" y="0px"
	 viewBox="0 0 194.2 197.7" style="enable-background:new 0 0 194.2 197.7;" xml:space="preserve">
<title>a3-5</title>
<g id="Layer_2_1_">
	<g id="Layer_1-2">
		<path d="M88.3,112c-1.7,0-3,1.3-3,3v34.1H6.1V37.8h79.2v47.5c0,1.7,1.3,3,3,3s3-1.3,3-3V33c0-8.5-6.8-15.3-15.3-15.4H15.3
			C6.9,17.6,0,24.5,0,33c0,0,0,0,0,0v132.3c0,8.5,6.9,15.3,15.3,15.3H76c8.5,0,15.3-6.9,15.3-15.3V115C91.3,113.3,90,112,88.3,112
			C88.3,112,88.3,112,88.3,112z M15.3,23.7H76c4.6,0,8.5,3.4,9.2,8h-79C6.8,27.1,10.7,23.7,15.3,23.7L15.3,23.7z M76,174.6H15.3
			c-5.1,0-9.3-4.2-9.3-9.3v-10.1h79.2v10.1C85.3,170.4,81.1,174.6,76,174.6z"/>
		<path d="M49,160.7h-6.7c-1.7,0-3,1.4-3,3c0,1.7,1.4,3,3,3H49c1.7,0,3-1.4,3-3C52,162,50.7,160.7,49,160.7z"/>
		<path d="M73.8,88.1c-0.4-1.1-1.3-1.9-2.4-2.1l-15.9-2.3l-7.1-14.4c-0.7-1.5-2.5-2.1-4-1.4c-0.6,0.3-1.1,0.8-1.4,1.4l-7.1,14.4
			L20,86.1c-1.6,0.2-2.8,1.7-2.6,3.4c0.1,0.7,0.4,1.3,0.9,1.8l11.5,11.2l-2.7,15.8c-0.3,1.6,0.8,3.2,2.4,3.5c0.7,0.1,1.4,0,2-0.3
			l14.2-7.5l14.2,7.5c1.5,0.8,3.3,0.3,4.1-1.2c0.3-0.6,0.4-1.3,0.3-2l-2.7-15.8L73,91.2C73.8,90.4,74.1,89.2,73.8,88.1z M56.2,99.2
			c-0.7,0.7-1,1.7-0.9,2.7l1.9,11.3l-10.2-5.3c-0.9-0.5-1.9-0.5-2.8,0l-10.2,5.3l1.9-11.3c0.2-1-0.2-2-0.9-2.7l-8.2-8l11.4-1.7
			c1-0.1,1.8-0.8,2.3-1.7l5.1-10.3l5.1,10.3c0.4,0.9,1.3,1.5,2.3,1.6l11.4,1.7L56.2,99.2z"/>
		<path d="M178.9,0h-62.6C107.9,0,101,6.8,101,15.3c0,0,0,0,0,0v70.8L84,97.4c-1.4,0.9-1.8,2.7-0.9,4.1c0.2,0.3,0.5,0.6,0.8,0.9
			l17.1,12.4v67.6c0,8.4,6.9,15.3,15.3,15.3h62.6c8.4,0,15.3-6.9,15.3-15.3V15.3C194.2,6.9,187.4,0,178.9,0z M188.2,182.4
			c0,5.1-4.1,9.2-9.3,9.3h-62.6c-5.1,0-9.2-4.1-9.3-9.3v-69.1c0-1-0.5-1.9-1.3-2.4L91,100.1l14.7-9.9c0.8-0.6,1.3-1.5,1.3-2.5V15.3
			c0-5.1,4.1-9.2,9.3-9.3h62.6c5.1,0,9.2,4.1,9.3,9.3L188.2,182.4z"/>
		<path d="M144.6,39.8c-1.2-1.2-3.1-1.2-4.3,0s-1.2,3.1,0,4.3l4.6,4.7c1.2,1.2,3.1,1.2,4.2,0l18-17.2c1.2-1.2,1.3-3.1,0.1-4.3
			c-1.2-1.2-3.1-1.3-4.3-0.1l0,0l-15.9,15.2L144.6,39.8z"/>
		<path d="M165.3,38.9c-1.7,0-3,1.3-3,3c0,7.9-6.4,14.3-14.3,14.3s-14.3-6.4-14.3-14.3c0-7.9,6.4-14.3,14.3-14.3c0,0,0,0,0,0
			c1.8,0,3.5,0.3,5.2,1c1.6,0.6,3.3-0.2,3.9-1.7s-0.2-3.3-1.7-3.9c-10.5-4.1-22.3,1.1-26.3,11.6c-4.1,10.5,1.1,22.3,11.6,26.3
			C151.2,65,163,59.8,167,49.4c0.9-2.3,1.4-4.8,1.4-7.3c0.1-1.7-1.2-3-2.9-3.1C165.4,38.9,165.4,38.9,165.3,38.9z"/>
		<path d="M144.6,97.3c-1.2-1.2-3.1-1.2-4.3,0s-1.2,3.1,0,4.3l4.6,4.7c1.2,1.2,3.1,1.2,4.2,0l18-17.2c1.2-1.2,1.3-3.1,0.1-4.3
			c-1.2-1.2-3.1-1.3-4.3-0.1l-15.9,15.2L144.6,97.3z"/>
		<path d="M165.3,96.4c-1.7,0-3,1.3-3,3c0,7.9-6.4,14.3-14.3,14.3c-7.9,0-14.3-6.4-14.3-14.3c0-7.9,6.4-14.3,14.3-14.3c0,0,0,0,0,0
			c1.8,0,3.5,0.3,5.2,1c1.6,0.6,3.3-0.2,3.9-1.7s-0.2-3.3-1.7-3.9c-10.5-4.1-22.3,1.1-26.3,11.6c-4.1,10.5,1.1,22.3,11.6,26.3
			c10.5,4.1,22.3-1.1,26.3-11.6c0.9-2.3,1.4-4.8,1.4-7.3c0.1-1.7-1.2-3-2.9-3.1C165.4,96.4,165.4,96.4,165.3,96.4z"/>
		<path d="M144.6,154.7c-1.2-1.2-3.1-1.2-4.3,0s-1.2,3.1,0,4.3l4.6,4.7c1.2,1.2,3,1.2,4.2,0.1l18-17.2c1.2-1.2,1.3-3.1,0.1-4.3
			c-1.2-1.2-3.1-1.3-4.3-0.1l-15.9,15.2L144.6,154.7z"/>
		<path d="M165.3,153.8c-1.7,0-3,1.3-3,3c0,7.9-6.4,14.3-14.3,14.3c-7.9,0-14.3-6.4-14.3-14.3c0-7.9,6.4-14.3,14.3-14.3c0,0,0,0,0,0
			c1.8,0,3.5,0.3,5.2,1c1.6,0.6,3.3-0.2,3.9-1.7c0.6-1.6-0.2-3.3-1.7-3.9c-2.4-0.9-4.9-1.4-7.4-1.4c-11.2,0-20.3,9.1-20.3,20.3
			s9.1,20.3,20.3,20.3s20.3-9.1,20.3-20.3l0,0C168.4,155.2,167,153.8,165.3,153.8C165.3,153.8,165.3,153.8,165.3,153.8z"/>
	</g>
</g>
</svg>
