<?xml version="1.0" encoding="utf-8"?>
<!-- Generator: Adobe Illustrator 22.0.1, SVG Export Plug-In . SVG Version: 6.00 Build 0)  -->
<svg version="1.1" id="Layer_1" xmlns="http://www.w3.org/2000/svg" xmlns:xlink="http://www.w3.org/1999/xlink" x="0px" y="0px"
	 viewBox="0 0 206.1 207.5" style="enable-background:new 0 0 206.1 207.5;" xml:space="preserve">
<title>a3-4</title>
<g id="Layer_2_1_">
	<g id="Layer_1-2">
		<path d="M202,156.9l-4-28.7c0,0,0-0.1,0-0.1c-1.4-8.7-3.3-17.3-5.6-25.8c-2.2-7.6-4.2-12.1-7.7-12h-0.1h-0.3h-0.1h-0.2
			c-1.1,0.2-2.1,0.9-2.6,1.9l-29.6,29.3c-3.6,3.6-8.3,5.9-13.4,6.7l-3.1,0.4l0,0l-29.7,4.4c-3.8,0.5-7.2,2.6-9.5,5.6
			c-1.1,1.5-1.9,3.2-2.4,5l-0.9,0.1c-6.6,1.1-11,7.4-9.9,14c1,5.7,5.8,9.9,11.6,10c0.6,0,1.2,0,1.7-0.1l0.7-0.1
			c2.9,5.1,8.7,8,14.5,7.1l10.9-1.6l14.1,29.4l0.1,0.2c1.7,3,4.9,4.9,8.3,4.9c0.4,0,0.9,0,1.3-0.1c5.2-0.7,8.8-5.6,8.1-10.8
			c-0.1-0.8-0.3-1.7-0.7-2.4l-7-18.9c-0.5-1.6-2.3-2.5-3.9-2c-1.6,0.5-2.5,2.3-2,3.9c0,0.1,0.1,0.2,0.1,0.2l7,19l0.1,0.2
			c0.7,1.7-0.1,3.6-1.8,4.3c-1.5,0.6-3.2,0-4.1-1.3l-13.3-27.6l15.5-2.1c5.1-0.7,10.2,0.2,14.8,2.6l36.6,19.9
			c0.7,0.7,1.6,1.1,2.6,1.1c0.2,0,0.4,0,0.6-0.1c0.1,0,0.2,0,0.3-0.1h0.1c3.3-0.8,4-5.2,4.1-12.5c-0.1-8-0.5-16-1.4-24
			C202,157,202,156.9,202,156.9z M88.7,156.5c-0.4-3.1,1.6-6,4.7-6.6l1.7,11.6C92,161.8,89.2,159.6,88.7,156.5z M110.7,168.5
			c-4.5,0.6-8.6-2.5-9.3-7c0,0,0,0,0,0l-1.9-13.1c-0.6-4.5,2.5-8.6,7-9.3c0,0,0,0,0,0l26.6-3.8l4.2,29.4L110.7,168.5z M162,167.2
			c-5.7-3.1-12.2-4.2-18.6-3.3l0,0l-4.2-29.4l0,0c6.4-0.9,12.3-3.9,16.9-8.4l23.6-23.4c0,1.7,0,3.5,0.1,5.6
			c0.5,11.7,1.6,23.3,3.4,34.9c1.6,11.6,3.8,23.1,6.6,34.4c0.5,2,1,3.8,1.5,5.4L162,167.2z M197.2,181.6c-2.3-7.5-5.4-21.2-8-39.4
			s-3.5-32.1-3.4-40c2.5,8.8,4.5,17.8,6,26.9l4,28.6C196.8,165.6,197.2,173.6,197.2,181.6L197.2,181.6z"/>
		<path d="M121.6,199.3c-4.9,0.9-9.9,1.5-14.8,1.6v-16.3c-0.1-1.7-1.6-3-3.3-2.9c-1.6,0.1-2.8,1.3-2.9,2.9v16.1
			c-11-1.5-21.4-11-29.6-27.2c-1.9-3.8-3.6-7.8-5.1-11.8c2.3-0.5,4.6-0.9,6.9-1.3c1.7-0.3,2.8-1.9,2.6-3.6s-1.9-2.8-3.6-2.6l0,0
			c-2.7,0.4-5.3,0.9-7.9,1.5c-4.7-15.6-7.1-31.7-7.2-48h43.9V119c0.1,1.7,1.6,3,3.3,2.9c1.6-0.1,2.8-1.3,2.9-2.9v-11.2h47
			c1.7,0,3.1-1.4,3.1-3.1c0,0,0,0,0,0c0-13.2-1.3-26.4-4-39.3c-0.4-1.7-2.1-2.7-3.8-2.2c-1.6,0.4-2.6,1.9-2.3,3.5
			c2.4,11.5,3.7,23.2,3.8,35h-43.9v-44c10.8-0.1,21.5-1.2,32.1-3.2c1.7-0.3,2.8-1.9,2.5-3.6s-1.9-2.8-3.6-2.5
			c-10.2,1.9-20.6,2.9-31,3V8.6c9.2,1.3,18.1,8.3,25.6,20c0.6,0.9,1.6,1.4,2.6,1.4c0.6,0,1.2-0.2,1.6-0.5c1.5-0.9,1.9-2.8,1-4.3
			c0,0,0,0,0,0c-3.3-5.4-7.5-10.3-12.4-14.5c2,0.4,3.9,1,5.8,1.5c1.6,0.6,3.4-0.3,3.9-1.9S134.6,7,133,6.4c-0.1,0-0.2-0.1-0.3-0.1
			c-19.5-5.7-40.2-5.6-59.6,0.4c-1.6,0.5-2.5,2.3-2,3.9c0.4,1.3,1.6,2.1,2.9,2.1c0.3,0,0.6,0,0.9-0.1c2.3-0.7,4.6-1.3,7-1.9
			c-4.3,3.8-8.1,8.2-11.3,13c-0.9,1.5-0.4,3.4,1.1,4.2c1.4,0.8,3.1,0.4,4.1-0.8c8.9-13.4,17.9-17.7,24.7-18.6v42.8
			c-10.1-0.1-20.1-1.1-30-2.9c-1.7-0.3-3.3,0.8-3.6,2.5c-0.3,1.7,0.8,3.3,2.5,3.6c10.3,1.8,20.6,2.9,31.1,3v44H56.6
			c0.1-11.9,1.5-23.7,3.9-35.3c0.4-1.7-0.7-3.3-2.4-3.7c-1.7-0.4-3.3,0.7-3.7,2.4c-2.5,12-3.9,24.3-4,36.6H7.4
			c0.5-14.6,4.2-28.9,11-41.8c0.9-1.5,0.3-3.4-1.1-4.2c-1.5-0.9-3.4-0.3-4.2,1.1c0,0.1-0.1,0.1-0.1,0.2
			c-26.3,50.1-7,112.1,43.2,138.4c20.5,10.7,43.9,14.2,66.6,10c1.7-0.3,2.8-1.9,2.5-3.6C124.8,200.1,123.2,199,121.6,199.3
			C121.5,199.3,121.5,199.3,121.6,199.3z M30.6,167.4C16.2,150.8,8,129.7,7.4,107.8h43.1c0.1,16.8,2.6,33.4,7.4,49.5
			C48.4,159.6,39.2,163,30.6,167.4L30.6,167.4z M35.6,172.7l-0.6-0.6c7.9-3.9,16.3-6.9,24.9-9c1.6,4.5,3.5,8.9,5.6,13.2
			c4.8,9.5,10.4,17,16.6,22.2C64.4,194.5,48.3,185.6,35.6,172.7L35.6,172.7z"/>
		<path d="M191.2,57.6c-1.5,0.8-2.1,2.6-1.4,4.2c5.5,11,8.8,22.9,9.8,35.1c0.1,1.6,1.5,2.8,3.1,2.8h0.3c1.7-0.1,3-1.6,2.8-3.3
			c-1-13-4.6-25.6-10.4-37.3C194.6,57.5,192.8,56.8,191.2,57.6C191.2,57.6,191.2,57.6,191.2,57.6z"/>
		<path d="M191.7,0h-36.8c-7.9,0-14.4,6.5-14.4,14.4v21.7c0,7,5,13,11.9,14.2v4.3c0,1.7,1.4,3.1,3.2,3.1c0.6,0,1.3-0.2,1.8-0.6
			l8.9-6.6h25.4c7.9,0,14.4-6.5,14.4-14.4V14.4C206.1,6.5,199.6,0,191.7,0z M199.9,36.1c0,4.5-3.7,8.2-8.2,8.2h-26.5
			c-0.7,0-1.3,0.2-1.8,0.6l-4.8,3.5v-1c0-1.7-1.4-3.1-3.1-3.1h-0.6c-4.5,0-8.2-3.7-8.2-8.2V14.4c0-4.5,3.7-8.2,8.2-8.2h36.8
			c4.5,0,8.2,3.7,8.2,8.2V36.1z"/>
		<path d="M189.1,16.4h-31.5c-1.7-0.1-3.2,1.2-3.3,2.9c-0.1,1.7,1.2,3.2,2.9,3.3c0.1,0,0.2,0,0.4,0h31.5c1.7-0.1,3-1.6,2.9-3.3
			C191.9,17.7,190.7,16.5,189.1,16.4z"/>
		<path d="M175.1,28.8h-17.5c-1.7,0-3.1,1.4-3.1,3.1c0,1.7,1.4,3.1,3.1,3.1c0,0,0,0,0,0h17.5c1.7,0,3.1-1.4,3.1-3.1
			S176.9,28.8,175.1,28.8L175.1,28.8z"/>
		<path d="M14.3,49.9h25.1l8.8,6.5c1.4,1,3.3,0.7,4.3-0.7c0.4-0.5,0.6-1.1,0.6-1.8v-4.2c6.8-1.2,11.8-7.1,11.8-14V14.3
			C64.8,6.4,58.4,0,50.6,0H14.3C6.4,0,0,6.4,0,14.3v21.4C0,43.5,6.4,49.9,14.3,49.9z M6.2,14.3c0-4.4,3.6-8.1,8.1-8.1h36.3
			c4.4,0,8.1,3.6,8.1,8.1v21.4c0,4.5-3.6,8.1-8.1,8.1l0,0H50c-1.7,0-3.1,1.4-3.1,3.1v0.9l-4.6-3.4c-0.5-0.4-1.2-0.6-1.8-0.6H14.3
			c-4.4,0-8.1-3.6-8.1-8.1L6.2,14.3z"/>
		<path d="M16.8,22.4h31.1c1.7-0.1,3-1.6,2.9-3.3c-0.1-1.6-1.3-2.8-2.9-2.9H16.8c-1.7-0.1-3.2,1.2-3.3,2.9c-0.1,1.7,1.2,3.2,2.9,3.3
			C16.6,22.4,16.7,22.4,16.8,22.4z"/>
		<path d="M16.8,34.6h17.3c1.7-0.1,3-1.6,2.9-3.3c-0.1-1.6-1.3-2.8-2.9-2.9H16.8c-1.7-0.1-3.2,1.2-3.3,2.9c-0.1,1.7,1.2,3.2,2.9,3.3
			C16.6,34.6,16.7,34.6,16.8,34.6z"/>
	</g>
</g>
</svg>
