<?xml version="1.0" encoding="utf-8"?>
<!-- Generator: Adobe Illustrator 22.0.1, SVG Export Plug-In . SVG Version: 6.00 Build 0)  -->
<svg version="1.1" id="Layer_1" xmlns="http://www.w3.org/2000/svg" xmlns:xlink="http://www.w3.org/1999/xlink" x="0px" y="0px"
	 viewBox="0 0 181.8 196.5" style="enable-background:new 0 0 181.8 196.5;" xml:space="preserve">
<title>a3-7_1</title>
<g id="Layer_2_1_">
	<g id="Layer_1-2">
		<path d="M178.6,145.7c-2.1-2.1-4.9-3.2-7.8-3.2h-10.4c2.4-3.3,4-7,4.8-11c0.5-2.9,0.8-5.8,0.9-8.7c0.1-2.6-0.8-5.2-2.6-7.1
			c-1.8-1.9-4.3-3-6.9-3c-4.6,0-8.6,3.3-9.4,7.9c-1.2,6.8-3.3,11.6-5.8,13.4c-1.2,0.8-2.4,1.6-3.6,2.3c-2.2,1.2-4.2,2.4-4.9,5.4
			s-2.1,6.9-5,8.8c-0.1-0.1-0.2-0.3-0.3-0.4c-1.1-1.1-2.6-1.8-4.1-1.8l-8.8,0.2c-3.2,0.1-5.7,2.8-5.6,6c0,0,0,0,0,0l0.4,36.2
			c0,3.2,2.5,5.7,5.7,5.8h0.1l8.8-0.1c2.5-0.1,4.7-1.8,5.3-4.2c2.9-0.3,5.8-0.3,8.8,0.1c2.5,0.4,5.1,0.7,7.7,0.6h25
			c6.1,0,11-4.9,11-11v-28.4C181.9,150.5,180.7,147.7,178.6,145.7z M115.8,190.1l-0.4-35.2l7.4-0.1l0.4,35.2L115.8,190.1z
			 M175.4,181.9c0,2.5-2.1,4.6-4.6,4.6l0,0h-25c-2.2,0-4.4-0.2-6.6-0.6c-3.2-0.5-6.4-0.6-9.7-0.3l-0.4-28.7c4.9-2.1,8.4-7,10-13.9
			v-0.1c0.6-0.4,1.2-0.8,1.8-1.1c1.4-0.8,2.8-1.7,4.1-2.6c4-2.8,6.8-8.7,8.4-17.5c0.3-1.7,1.9-2.9,3.7-2.6c0.7,0.1,1.3,0.4,1.8,0.9
			c0.6,0.6,0.9,1.5,0.9,2.4c-0.1,2.7-0.4,5.3-0.8,8c-1.1,7-7.5,12.7-7.6,12.7c-0.8,0.8-1.2,1.9-1,3v12.1c0,5.5-3.3,10.4-8.4,12.5
			l-2.2,0.9c-1.6,0.7-2.4,2.5-1.7,4.2c0.5,1.2,1.7,2,3,2c0.4,0,0.8-0.1,1.2-0.3l2.2-0.9c7.5-3.1,12.3-10.4,12.3-18.4v-9.5h14.2
			c2.5,0,4.6,2.1,4.6,4.6L175.4,181.9z"/>
		<path d="M97.9,175.4H6.4V6.4h162.5v102.1c0,1.8,1.4,3.2,3.2,3.2c1.8,0,3.2-1.4,3.2-3.2V3.2c0-1.8-1.4-3.2-3.2-3.2H3.2
			C1.4,0,0,1.4,0,3.2v175.4c0,1.8,1.4,3.2,3.2,3.2h94.7c1.8,0,3.2-1.4,3.2-3.2C101.1,176.9,99.7,175.4,97.9,175.4L97.9,175.4z"/>
		<path d="M155.7,99.3c1.8,0,3.2-1.4,3.2-3.2V20.3c0-1.8-1.4-3.2-3.2-3.2h-136c-1.8,0-3.2,1.4-3.2,3.2l0,0v108
			c0,1.8,1.4,3.2,3.2,3.2h111.8c1.8,0,3.2-1.4,3.2-3.2c0-1.8-1.4-3.2-3.2-3.2H22.9V23.5h129.6v72.6
			C152.5,97.8,153.9,99.3,155.7,99.3z"/>
		<path d="M105,51.6c0-10.6-8.6-19.2-19.2-19.2S66.6,41,66.6,51.6c0,10.6,8.6,19.2,19.1,19.2C96.4,70.8,105,62.2,105,51.6
			C105,51.6,105,51.6,105,51.6z M73,51.6c0-7.1,5.7-12.8,12.8-12.8c7.1,0,12.8,5.7,12.8,12.8c0,7.1-5.7,12.8-12.8,12.8c0,0,0,0,0,0
			C78.7,64.4,73,58.7,73,51.6z"/>
		<path d="M61.3,99.3v11.5c0.1,1.8,1.6,3.1,3.4,3c1.6-0.1,2.9-1.4,3-3V99.3c-0.1-1.8-1.6-3.1-3.4-3C62.7,96.4,61.4,97.7,61.3,99.3z"
			/>
		<path d="M78,71.9c-0.8-1.6-2.7-2.2-4.3-1.4l-9.8,4.9c-6.3,3.2-10.8,9.1-12.3,16c-0.1,0.4-0.1,0.7-0.2,1.1l-2.8,18
			c-0.3,1.7,0.9,3.4,2.7,3.7c0.2,0,0.3,0,0.5,0c1.6,0,2.9-1.1,3.2-2.7l2.9-18.1c0-0.1,0-0.2,0-0.3c0-0.1,0-0.1,0-0.2
			c1.1-5.1,4.4-9.4,9-11.8l9.8-4.9C78.1,75.4,78.8,73.5,78,71.9C78,71.9,78,71.9,78,71.9z"/>
		<path d="M105.3,99.3v11.5c0,1.8,1.4,3.2,3.2,3.2c1.8,0,3.2-1.4,3.2-3.2l0,0V99.3c0-1.8-1.4-3.2-3.2-3.2
			C106.7,96.1,105.3,97.5,105.3,99.3L105.3,99.3z"/>
		<path d="M115.2,93c0,0.1,0,0.2,0,0.3l2.9,18.1c0.2,1.6,1.6,2.7,3.2,2.7c0.2,0,0.3,0,0.5,0c1.7-0.3,2.9-1.9,2.7-3.7l-2.8-18
			c0-0.4-0.1-0.7-0.2-1.1c-1.5-6.9-6-12.8-12.3-16l-9.8-4.9c-1.6-0.8-3.5-0.2-4.3,1.4c-0.8,1.6-0.2,3.5,1.4,4.3l9.8,4.9
			c4.6,2.4,7.9,6.7,8.9,11.8C115.2,92.9,115.2,92.9,115.2,93z"/>
	</g>
</g>
</svg>
