<?xml version="1.0" encoding="utf-8"?>
<!-- Generator: Adobe Illustrator 22.0.1, SVG Export Plug-In . SVG Version: 6.00 Build 0)  -->
<svg version="1.1" id="Layer_1" xmlns="http://www.w3.org/2000/svg" xmlns:xlink="http://www.w3.org/1999/xlink" x="0px" y="0px"
	 viewBox="0 0 211.6 205.4" style="enable-background:new 0 0 211.6 205.4;" xml:space="preserve">
<title>a3-8</title>
<g id="Layer_2_1_">
	<g id="Layer_1-2">
		<path d="M80,112.8c0,11.9,9.7,21.6,21.6,21.6c11.9,0,21.6-9.7,21.6-21.6c0-11.9-9.7-21.6-21.6-21.6c0,0,0,0,0,0
			C89.7,91.2,80,100.9,80,112.8z M116.7,112.8c0,8.4-6.8,15.1-15.1,15.1s-15.1-6.8-15.1-15.1s6.8-15.1,15.1-15.1
			C109.9,97.7,116.6,104.5,116.7,112.8L116.7,112.8z"/>
		<path d="M131,168c1.7-0.4,2.9-2.1,2.5-3.8c-3.5-17.6-20.6-28.9-38.2-25.4c-12.7,2.5-22.6,12.3-25.3,25c-0.4,1.7,0.6,3.5,2.3,3.9
			c1.7,0.4,3.5-0.6,3.9-2.3c0-0.1,0-0.2,0.1-0.3c3.1-14,17-22.9,31-19.8c10,2.2,17.8,10.1,19.8,20.1c0.3,1.5,1.6,2.6,3.2,2.6
			C130.6,168.1,130.8,168,131,168z"/>
		<path d="M143.8,126.8c0,11.9,9.7,21.6,21.6,21.6c11.9,0,21.6-9.7,21.6-21.6s-9.7-21.6-21.6-21.6c0,0,0,0,0,0
			C153.4,105.2,143.8,114.9,143.8,126.8z M180.5,126.8c0,8.4-6.8,15.1-15.1,15.1s-15.1-6.8-15.1-15.1s6.8-15.1,15.1-15.1
			c0,0,0,0,0,0C173.7,111.7,180.5,118.4,180.5,126.8z"/>
		<path d="M197.4,178.1c-3.5-17.6-20.6-28.9-38.2-25.4c-12.7,2.5-22.6,12.3-25.3,25l-5.1,23.8c-0.4,1.7,0.7,3.5,2.5,3.8
			c0.2,0,0.5,0.1,0.7,0.1c1.5,0,2.8-1.1,3.1-2.6l5.1-23.8c3.1-14,17-22.9,31-19.8c10,2.2,17.8,10.1,19.8,20.1l4.6,23.4
			c0.3,1.8,2,2.9,3.8,2.5s2.9-2,2.5-3.8l0,0L197.4,178.1z"/>
		<path d="M38.6,148.4c11.9,0,21.6-9.7,21.5-21.6c0-11.9-9.7-21.6-21.6-21.5c-11.9,0-21.5,9.7-21.5,21.6
			C17,138.7,26.7,148.4,38.6,148.4z M38.6,111.7c8.3,0,15.1,6.8,15.1,15.1s-6.8,15.1-15.1,15.1s-15.1-6.8-15.1-15.1
			C23.5,118.4,30.3,111.7,38.6,111.7z"/>
		<path d="M70.6,178.1c-3.5-17.6-20.6-29-38.2-25.5c-12.7,2.5-22.6,12.4-25.4,25l-5.1,23.8c-0.4,1.7,0.7,3.5,2.5,3.8c0,0,0,0,0,0
			c0.2,0,0.4,0.1,0.7,0.1c1.5,0,2.8-1.1,3.2-2.6l5.1-23.8c3.1-14,17-22.9,31-19.8c10,2.2,17.8,10.1,19.8,20.1l4.6,23.4
			c0.3,1.8,2,2.9,3.8,2.5s2.9-2,2.5-3.8L70.6,178.1z"/>
		<path d="M208.3,0H3.2C1.4,0,0,1.4,0,3.2v122.3c0,1.8,1.4,3.2,3.2,3.2c1.8,0,3.2-1.4,3.2-3.2V6.5h198.6v119.1
			c0,1.8,1.4,3.2,3.2,3.2c1.8,0,3.2-1.4,3.2-3.2V3.2C211.6,1.4,210.1,0,208.3,0z"/>
		<path d="M22.3,25.9h16.8c1.8,0,3.2-1.4,3.2-3.2c0-1.8-1.4-3.2-3.2-3.2H22.3c-1.8,0-3.2,1.4-3.2,3.2C19.1,24.4,20.5,25.9,22.3,25.9
			z"/>
		<path d="M22.3,40.6h39.3c1.8,0,3.2-1.4,3.2-3.2c0-1.8-1.4-3.2-3.2-3.2H22.3c-1.8,0-3.2,1.4-3.2,3.2C19.1,39.2,20.5,40.6,22.3,40.6
			z"/>
		<path d="M22.3,55.3h26c1.8,0,3.2-1.4,3.2-3.2c0-1.8-1.4-3.2-3.2-3.2h-26c-1.8,0-3.2,1.4-3.2,3.2C19.1,53.9,20.5,55.3,22.3,55.3z"
			/>
		<path d="M188.6,25c-1.3-1.2-3.3-1.2-4.6,0l-33.3,33.3l-15.9-11.7c-1.2-0.9-2.9-0.8-4,0.1l-26.5,22.3L84.7,54.7
			c-1.2-0.9-2.9-0.8-4.1,0.2L39.8,91.3c-1.4,1.2-1.5,3.2-0.3,4.6s3.2,1.5,4.6,0.3c0,0,0.1-0.1,0.1-0.1L83,61.4l19.6,14.4
			c1.2,0.9,2.9,0.8,4-0.1L133,53.4l16.1,11.8c1.3,0.9,3.1,0.8,4.2-0.3l35.2-35.3C189.8,28.3,189.8,26.3,188.6,25z"/>
	</g>
</g>
</svg>
