<svg xmlns="http://www.w3.org/2000/svg" viewBox="0 0 393.82 80.91"><defs><style>.cls-1{fill:#fff;}</style></defs><g id="Layer_2" data-name="Layer 2"><g id="Layer_1-2" data-name="Layer 1"><path class="cls-1" d="M67.08,80.79H63.45l-14.22,0-20.37,0L40.37,65.48l13.41,0,9-38.61-44,54L0,80.9,63.83,0,86.42,0,67.08,80.9"/><path class="cls-1" d="M149.74,67.82h1.41v1.6a3.18,3.18,0,0,1,2.7-1.59,4.19,4.19,0,0,1,0,8.37,3.31,3.31,0,0,1-2.7-1.6v5.12h-1.41ZM156.38,72a2.68,2.68,0,0,0-2.6-3,3,3,0,0,0,0,6C155.32,75,156.38,73.76,156.38,72Z"/><path class="cls-1" d="M162.94,67.8A3.47,3.47,0,0,1,166.33,70a5.53,5.53,0,0,1,.32,2.54H160.4A2.63,2.63,0,0,0,163,74.93a2.48,2.48,0,0,0,2.34-1.18l1.12.57a3.55,3.55,0,0,1-3.47,1.81,4.17,4.17,0,0,1,0-8.33Zm0,1.2a2.66,2.66,0,0,0-2.57,2.44l4.91,0C165.18,70.24,164.59,69,163,69Z"/><path class="cls-1" d="M172.33,67.77v1.31a2.88,2.88,0,0,0-2.79,2.82v4.2h-1.41V67.82h1.41v1.66A3.09,3.09,0,0,1,172.33,67.77Z"/><path class="cls-1" d="M174.85,76.1v-7h-1.49V67.86h1.49v-1.1a2.49,2.49,0,0,1,2.5-2.58,2.66,2.66,0,0,1,1.76.59l-.8,1a1.26,1.26,0,0,0-.9-.36,1.24,1.24,0,0,0-1.15,1.35v1.1h2.39V69.1h-2.39v7Z"/><path class="cls-1" d="M183.39,67.78a4.19,4.19,0,1,1-4,4.19A3.92,3.92,0,0,1,183.39,67.78ZM186,72a2.67,2.67,0,0,0-2.57-3c-1.51,0-2.55,1.22-2.55,3s1,3,2.55,3S186,73.73,186,72Z"/><path class="cls-1" d="M193,67.77v1.31a2.87,2.87,0,0,0-2.79,2.82v4.2h-1.41V67.82h1.41v1.66A3.09,3.09,0,0,1,193,67.77Z"/><path class="cls-1" d="M203.49,69.05a2,2,0,0,0-2.08,2v5H200V71.2a1.92,1.92,0,0,0-1.81-2.15,2.19,2.19,0,0,0-2.12,2.31V76.1h-1.41V67.82h1.41v1.41a2.74,2.74,0,0,1,2.2-1.4,2.92,2.92,0,0,1,2.56,1.65,3.21,3.21,0,0,1,2.69-1.65,3.11,3.11,0,0,1,3.23,3.27v5h-1.41V71.2A1.93,1.93,0,0,0,203.49,69.05Z"/><path class="cls-1" d="M212.3,67.86A3.22,3.22,0,0,1,215,69.44V67.82h1.41V76.1H215V74.61a3.14,3.14,0,0,1-2.66,1.59,4.18,4.18,0,0,1,0-8.34ZM215,72a2.82,2.82,0,0,0-2.63-3,3,3,0,0,0,0,5.91A2.82,2.82,0,0,0,215,72Z"/><path class="cls-1" d="M221.85,69.05a2.28,2.28,0,0,0-2.32,2.31V76.1h-1.41V67.82h1.41v1.41a3,3,0,0,1,2.4-1.4,3.22,3.22,0,0,1,3.37,3.45V76.1h-1.41V71.36A2.07,2.07,0,0,0,221.85,69.05Z"/><path class="cls-1" d="M232.65,74l1,.93a4.52,4.52,0,0,1-3,1.27,4.18,4.18,0,1,1,0-8.35,4.45,4.45,0,0,1,3,1.26l-1,.93a3.08,3.08,0,0,0-2.06-.88,2.86,2.86,0,0,0,0,5.71A3.17,3.17,0,0,0,232.65,74Z"/><path class="cls-1" d="M238.35,67.8A3.47,3.47,0,0,1,241.74,70a5.53,5.53,0,0,1,.32,2.54h-6.24a2.61,2.61,0,0,0,2.54,2.35,2.48,2.48,0,0,0,2.34-1.18l1.12.57a3.55,3.55,0,0,1-3.47,1.81,4.17,4.17,0,0,1,0-8.33Zm0,1.2a2.64,2.64,0,0,0-2.56,2.44l4.9,0C240.59,70.24,240,69,238.38,69Z"/><path class="cls-1" d="M256.44,69.05a2,2,0,0,0-2.08,2v5H253V71.2a1.92,1.92,0,0,0-1.81-2.15A2.19,2.19,0,0,0,249,71.36V76.1h-1.41V67.82H249v1.41a2.74,2.74,0,0,1,2.2-1.4,2.92,2.92,0,0,1,2.56,1.65,3.21,3.21,0,0,1,2.7-1.65,3.11,3.11,0,0,1,3.22,3.27v5h-1.41V71.2A1.93,1.93,0,0,0,256.44,69.05Z"/><path class="cls-1" d="M265.25,67.86a3.22,3.22,0,0,1,2.66,1.58V67.82h1.41V76.1h-1.41V74.61a3.14,3.14,0,0,1-2.66,1.59,4.18,4.18,0,0,1,0-8.34ZM267.94,72a2.82,2.82,0,0,0-2.63-3,3,3,0,0,0,0,5.91A2.82,2.82,0,0,0,267.94,72Z"/><path class="cls-1" d="M275.19,67.77v1.31a2.87,2.87,0,0,0-2.79,2.82v4.2H271V67.82h1.41v1.66A3.09,3.09,0,0,1,275.19,67.77Z"/><path class="cls-1" d="M278.25,71.87l3.48-4.05h1.87l-3.16,3.67,3.23,4.61H282l-2.52-3.57L278.25,74V76.1h-1.41V64.4h1.41Z"/><path class="cls-1" d="M288.19,67.8a3.5,3.5,0,0,1,3.4,2.24,5.69,5.69,0,0,1,.32,2.54h-6.25a2.61,2.61,0,0,0,2.54,2.35,2.48,2.48,0,0,0,2.34-1.18l1.13.57a3.57,3.57,0,0,1-3.48,1.81,4.17,4.17,0,0,1,0-8.33Zm0,1.2a2.64,2.64,0,0,0-2.56,2.44l4.9,0C290.43,70.24,289.84,69,288.22,69Z"/><path class="cls-1" d="M296.24,76.07a2.23,2.23,0,0,1-2.31-2.34V69.1h-1.38V67.86h1.38V65.67h1.41v2.19h2.1V69.1h-2.1v4.63a1,1,0,0,0,1,1.09,2.07,2.07,0,0,0,.82-.19l.38,1.18A3.06,3.06,0,0,1,296.24,76.07Z"/><path class="cls-1" d="M299.76,64.26a.8.8,0,0,1,.84.82.84.84,0,1,1-1.68,0A.8.8,0,0,1,299.76,64.26Zm.71,3.59V76.1h-1.41V67.85Z"/><path class="cls-1" d="M306.29,69.05A2.29,2.29,0,0,0,304,71.36V76.1h-1.41V67.82H304v1.41a3.06,3.06,0,0,1,2.41-1.4,3.22,3.22,0,0,1,3.36,3.45V76.1h-1.41V71.36A2.06,2.06,0,0,0,306.29,69.05Z"/><path class="cls-1" d="M315.15,67.88a3,3,0,0,1,2.66,1.56V67.82h1.41v7.85a4.07,4.07,0,0,1-7.46,2.26l1.12-.72a2.62,2.62,0,0,0,2.27,1.3,2.56,2.56,0,0,0,2.66-2.78V74.56a3.3,3.3,0,0,1-2.66,1.62,4.16,4.16,0,0,1,0-8.3ZM317.81,72a2.8,2.8,0,0,0-2.59-2.94,3,3,0,0,0,0,5.9A2.79,2.79,0,0,0,317.81,72Z"/><path class="cls-1" d="M325,67.82h1.41v1.6a3.18,3.18,0,0,1,2.7-1.59,4.19,4.19,0,0,1,0,8.37,3.31,3.31,0,0,1-2.7-1.6v5.12H325ZM331.65,72a2.68,2.68,0,0,0-2.6-3,3,3,0,0,0,0,6C330.59,75,331.65,73.76,331.65,72Z"/><path class="cls-1" d="M338.21,67.86a3.22,3.22,0,0,1,2.66,1.58V67.82h1.41V76.1h-1.41V74.61a3.14,3.14,0,0,1-2.66,1.59,4.18,4.18,0,0,1,0-8.34ZM340.9,72a2.82,2.82,0,0,0-2.63-3,3,3,0,0,0,0,5.91A2.82,2.82,0,0,0,340.9,72Z"/><path class="cls-1" d="M348.14,67.77v1.31a2.87,2.87,0,0,0-2.78,2.82v4.2H344V67.82h1.41v1.66A3.09,3.09,0,0,1,348.14,67.77Z"/><path class="cls-1" d="M352.81,76.07a2.23,2.23,0,0,1-2.31-2.34V69.1h-1.38V67.86h1.38V65.67h1.41v2.19H354V69.1h-2.1v4.63a1,1,0,0,0,1,1.09,2.07,2.07,0,0,0,.82-.19l.39,1.18A3.07,3.07,0,0,1,352.81,76.07Z"/><path class="cls-1" d="M359.5,69.05a2.29,2.29,0,0,0-2.33,2.31V76.1h-1.41V67.82h1.41v1.41a3.06,3.06,0,0,1,2.41-1.4,3.22,3.22,0,0,1,3.36,3.45V76.1h-1.41V71.36A2.06,2.06,0,0,0,359.5,69.05Z"/><path class="cls-1" d="M368.36,67.8a3.5,3.5,0,0,1,3.4,2.24,5.69,5.69,0,0,1,.32,2.54h-6.25a2.61,2.61,0,0,0,2.55,2.35,2.5,2.5,0,0,0,2.34-1.18l1.12.57a3.57,3.57,0,0,1-3.48,1.81,4.17,4.17,0,0,1,0-8.33Zm0,1.2a2.64,2.64,0,0,0-2.56,2.44l4.9,0C370.6,70.24,370,69,368.39,69Z"/><path class="cls-1" d="M377.75,67.77v1.31A2.87,2.87,0,0,0,375,71.9v4.2h-1.41V67.82H375v1.66A3.09,3.09,0,0,1,377.75,67.77Z"/><path class="cls-1" d="M339.18,16.11h-7.71l-12,0h-8.84a6.91,6.91,0,0,0-6.33,5.13l0,.2h0l-6.63,28.12,0,.2,0,.13h0a3.92,3.92,0,0,0,3.94,5h7.71l12,0H330a6.92,6.92,0,0,0,6.33-5.12h0l.05-.2,6.63-28.14.05-.19v-.06h0A3.92,3.92,0,0,0,339.18,16.11ZM313.52,26.6l17.88,0-4.22,17.88-17.88,0Z"/><polygon class="cls-1" points="290.65 16.19 278.66 31.41 273.57 16.22 263.13 16.24 271.27 40.36 271.43 40.36 259.29 55.01 271.41 54.99 302.77 16.17 290.65 16.19"/><path class="cls-1" d="M389.32,14.1h4.5l-6.62-13-12.82,13h4.5l-3.15,13.43h0l-4,16.89H353.81l6.72-28.32H350.09l-7.94,33.44,0,.2A3.92,3.92,0,0,0,346,54.86h28.51a6.92,6.92,0,0,0,6.35-5.12l0-.2L382,45h0Z"/><path class="cls-1" d="M129.16,23.62,125.53,39l-4.26,18.08-2,8.32-26.38,0,6.22-26.39,19.94,0,3.63-15.42-14.75,0h-13a10.21,10.21,0,0,0-9.34,7.58l-.07.29L75.73,73.07l-.07.29c-1,4.16,1.62,7.56,5.78,7.55H92.81l22.86,0,15.41,0,3.64-15.42L140.94,39l3.64-15.42L149.91,1,134.5,1Z"/><path class="cls-1" d="M221.11,16.3h-7.7l-12,0h-8.84a6.94,6.94,0,0,0-6.33,5.14l0,.19v0h0l-6.63,28.12-.05.2,0,.13h0a3.91,3.91,0,0,0,3.94,5h7.71l12,0H212A6.94,6.94,0,0,0,218.3,50h0v0l0-.19L225,21.62l.05-.2v-.06h0A3.93,3.93,0,0,0,221.11,16.3ZM195.45,26.79l17.88,0-4.22,17.89-17.88,0Z"/><polygon class="cls-1" points="237.5 16.28 231.28 16.29 222.13 55.07 232.58 55.05 239.81 26.7 252.46 26.68 254.98 16.25 241.72 16.27 237.5 16.28"/><path class="cls-1" d="M172.94,1.06h-5.32a6.93,6.93,0,0,0-6.29,5h0l0,.14,0,.19-11.5,48.79,10.45,0,6.24-26h13.09L182,18.68l-13.12,0,1.7-7.2,13.11,0L186.27,1l-9.81,0Z"/></g></g></svg>