<svg xmlns="http://www.w3.org/2000/svg" viewBox="0 0 390.82 80.91"><defs><style>.cls-1{fill:#013088;}</style></defs><title>logo</title><g id="Layer_2" data-name="Layer 2"><g id="Layer_1-2" data-name="Layer 1"><polyline class="cls-1" points="67.08 80.79 63.45 80.8 49.23 80.82 28.86 80.86 40.37 65.48 53.78 65.45 62.83 26.84 18.84 80.87 0 80.9 63.83 0.04 86.42 0 67.08 80.9"/><path class="cls-1" d="M149.74,67.82h1.41v1.6a3.2,3.2,0,0,1,2.7-1.59,4.19,4.19,0,0,1,0,8.37,3.31,3.31,0,0,1-2.7-1.6v5.12h-1.41ZM156.38,72a2.67,2.67,0,0,0-2.6-3,3,3,0,0,0,0,6c1.54,0,2.6-1.24,2.6-3"/><path class="cls-1" d="M162.94,67.8A3.47,3.47,0,0,1,166.33,70a5.53,5.53,0,0,1,.32,2.54H160.4A2.63,2.63,0,0,0,163,74.93a2.5,2.5,0,0,0,2.34-1.18l1.12.57a3.55,3.55,0,0,1-3.47,1.81,4.17,4.17,0,0,1,0-8.33m0,1.2a2.66,2.66,0,0,0-2.57,2.44l4.91,0c-.13-1.18-.72-2.42-2.34-2.42"/><path class="cls-1" d="M172.33,67.77v1.31a2.88,2.88,0,0,0-2.79,2.82v4.2h-1.41V67.82h1.41v1.66a3.11,3.11,0,0,1,2.79-1.71"/><path class="cls-1" d="M174.85,76.1v-7h-1.49V67.87h1.49V66.76a2.49,2.49,0,0,1,2.5-2.58,2.66,2.66,0,0,1,1.76.59l-.8,1a1.26,1.26,0,0,0-.9-.36,1.24,1.24,0,0,0-1.15,1.35v1.11h2.39V69.1h-2.39v7Z"/><path class="cls-1" d="M183.39,67.79a4.19,4.19,0,1,1-4,4.18,3.91,3.91,0,0,1,4-4.18M186,72a2.67,2.67,0,0,0-2.57-3c-1.51,0-2.55,1.22-2.55,3s1,3,2.55,3S186,73.73,186,72"/><path class="cls-1" d="M193,67.77v1.31a2.87,2.87,0,0,0-2.79,2.82v4.2h-1.41V67.82h1.41v1.66A3.11,3.11,0,0,1,193,67.77"/><path class="cls-1" d="M203.49,69.05a2,2,0,0,0-2.08,2v5H200V71.2a1.92,1.92,0,0,0-1.81-2.15,2.2,2.2,0,0,0-2.12,2.31V76.1h-1.41V67.82h1.41v1.41a2.74,2.74,0,0,1,2.2-1.4,2.92,2.92,0,0,1,2.56,1.65,3.21,3.21,0,0,1,2.69-1.65,3.12,3.12,0,0,1,3.23,3.27v5h-1.41V71.2a1.93,1.93,0,0,0-1.85-2.15"/><path class="cls-1" d="M212.3,67.86A3.22,3.22,0,0,1,215,69.44V67.82h1.41V76.1H215V74.61a3.14,3.14,0,0,1-2.66,1.59,4.18,4.18,0,0,1,0-8.34M215,72a2.82,2.82,0,0,0-2.63-3,3,3,0,0,0,0,5.91A2.82,2.82,0,0,0,215,72"/><path class="cls-1" d="M221.85,69.05a2.28,2.28,0,0,0-2.32,2.31V76.1h-1.41V67.82h1.41v1.41a3,3,0,0,1,2.4-1.4,3.22,3.22,0,0,1,3.37,3.45V76.1h-1.41V71.36a2.07,2.07,0,0,0-2-2.31"/><path class="cls-1" d="M232.65,74l1,.93a4.52,4.52,0,0,1-3,1.27,4.18,4.18,0,1,1,0-8.35,4.45,4.45,0,0,1,3,1.26l-1,.93a3.08,3.08,0,0,0-2.06-.88,2.86,2.86,0,0,0,0,5.71,3.17,3.17,0,0,0,2.06-.87"/><path class="cls-1" d="M238.35,67.8A3.47,3.47,0,0,1,241.74,70a5.53,5.53,0,0,1,.32,2.54h-6.24a2.61,2.61,0,0,0,2.54,2.35,2.48,2.48,0,0,0,2.34-1.18l1.12.57a3.55,3.55,0,0,1-3.47,1.81,4.17,4.17,0,0,1,0-8.33m0,1.2a2.64,2.64,0,0,0-2.56,2.44l4.9,0c-.13-1.18-.72-2.42-2.34-2.42"/><path class="cls-1" d="M256.44,69.05a2,2,0,0,0-2.08,2v5H253V71.2a1.92,1.92,0,0,0-1.81-2.15A2.19,2.19,0,0,0,249,71.36V76.1h-1.42V67.82H249v1.41a2.71,2.71,0,0,1,2.19-1.4,2.91,2.91,0,0,1,2.56,1.65,3.21,3.21,0,0,1,2.7-1.65,3.11,3.11,0,0,1,3.22,3.27v5h-1.41V71.2a1.93,1.93,0,0,0-1.85-2.15"/><path class="cls-1" d="M265.25,67.86a3.22,3.22,0,0,1,2.66,1.58V67.82h1.41V76.1h-1.41V74.61a3.14,3.14,0,0,1-2.66,1.59,4.18,4.18,0,0,1,0-8.34M267.94,72a2.82,2.82,0,0,0-2.63-3,3,3,0,0,0,0,5.91,2.82,2.82,0,0,0,2.63-3"/><path class="cls-1" d="M275.19,67.77v1.31a2.87,2.87,0,0,0-2.79,2.82v4.2H271V67.82h1.41v1.66a3.11,3.11,0,0,1,2.79-1.71"/><polygon class="cls-1" points="278.25 71.87 281.73 67.82 283.6 67.82 280.44 71.49 283.67 76.1 281.95 76.1 279.44 72.53 278.25 73.97 278.25 76.1 276.84 76.1 276.84 64.4 278.25 64.4 278.25 71.87"/><path class="cls-1" d="M288.19,67.8a3.5,3.5,0,0,1,3.4,2.24,5.69,5.69,0,0,1,.32,2.54h-6.25a2.61,2.61,0,0,0,2.54,2.35,2.47,2.47,0,0,0,2.34-1.18l1.13.57a3.57,3.57,0,0,1-3.48,1.81,4.17,4.17,0,0,1,0-8.33m0,1.2a2.64,2.64,0,0,0-2.56,2.44l4.9,0c-.13-1.18-.72-2.42-2.34-2.42"/><path class="cls-1" d="M296.24,76.07a2.23,2.23,0,0,1-2.31-2.34V69.1h-1.38V67.87h1.38v-2.2h1.41v2.2h2.1V69.1h-2.1v4.63a1,1,0,0,0,1,1.09,2.07,2.07,0,0,0,.82-.19l.38,1.18a3.06,3.06,0,0,1-1.26.26"/><path class="cls-1" d="M299.76,64.26a.8.8,0,0,1,.84.82.84.84,0,1,1-1.68,0,.8.8,0,0,1,.84-.82m.71,11.84h-1.41V67.85h1.41Z"/><path class="cls-1" d="M306.29,69.05A2.28,2.28,0,0,0,304,71.36V76.1h-1.42V67.82H304v1.41a3,3,0,0,1,2.4-1.4,3.21,3.21,0,0,1,3.36,3.45V76.1h-1.41V71.36a2.06,2.06,0,0,0-2-2.31"/><path class="cls-1" d="M315.15,67.88a3,3,0,0,1,2.66,1.56V67.82h1.41v7.85a4.07,4.07,0,0,1-7.46,2.26l1.12-.72a2.62,2.62,0,0,0,2.27,1.3,2.56,2.56,0,0,0,2.66-2.78V74.56a3.3,3.3,0,0,1-2.66,1.62,4.16,4.16,0,0,1,0-8.3M317.81,72a2.8,2.8,0,0,0-2.59-2.94,3,3,0,0,0,0,5.9,2.79,2.79,0,0,0,2.59-3"/><path class="cls-1" d="M325,67.82h1.41v1.6a3.2,3.2,0,0,1,2.7-1.59,4.19,4.19,0,0,1,0,8.37,3.31,3.31,0,0,1-2.7-1.6v5.12H325ZM331.65,72a2.67,2.67,0,0,0-2.6-3,3,3,0,0,0,0,6c1.54,0,2.6-1.24,2.6-3"/><path class="cls-1" d="M338.21,67.86a3.22,3.22,0,0,1,2.66,1.58V67.82h1.41V76.1h-1.41V74.61a3.14,3.14,0,0,1-2.66,1.59,4.18,4.18,0,0,1,0-8.34M340.9,72a2.82,2.82,0,0,0-2.63-3,3,3,0,0,0,0,5.91,2.82,2.82,0,0,0,2.63-3"/><path class="cls-1" d="M348.14,67.77v1.31a2.87,2.87,0,0,0-2.78,2.82v4.2H344V67.82h1.41v1.66a3.11,3.11,0,0,1,2.78-1.71"/><path class="cls-1" d="M352.81,76.07a2.23,2.23,0,0,1-2.31-2.34V69.1h-1.37V67.87h1.37v-2.2h1.41v2.2H354V69.1h-2.1v4.63a1,1,0,0,0,1,1.09,2.07,2.07,0,0,0,.82-.19l.39,1.18a3.07,3.07,0,0,1-1.27.26"/><path class="cls-1" d="M359.5,69.05a2.29,2.29,0,0,0-2.33,2.31V76.1h-1.41V67.82h1.41v1.41a3.06,3.06,0,0,1,2.41-1.4,3.22,3.22,0,0,1,3.36,3.45V76.1h-1.41V71.36a2.06,2.06,0,0,0-2-2.31"/><path class="cls-1" d="M368.36,67.8a3.5,3.5,0,0,1,3.4,2.24,5.53,5.53,0,0,1,.32,2.54h-6.25a2.61,2.61,0,0,0,2.55,2.35,2.5,2.5,0,0,0,2.34-1.18l1.12.57s-.75,1.81-3.48,1.81a4.17,4.17,0,0,1,0-8.33m0,1.2a2.64,2.64,0,0,0-2.56,2.44l4.9,0C370.6,70.24,370,69,368.39,69"/><path class="cls-1" d="M377.76,67.77v1.31A2.87,2.87,0,0,0,375,71.9v4.2h-1.41V67.82H375v1.66a3.11,3.11,0,0,1,2.79-1.71"/><path class="cls-1" d="M220.43,16.31h-7.71l-12,0h-8.84a6.92,6.92,0,0,0-6.33,5.14l-.05.19v0h0L178.9,49.82l-.05.2,0,.13h0a3.9,3.9,0,0,0,3.94,5h7.7l12,0h8.84A6.92,6.92,0,0,0,217.61,50h0v0l0-.19,6.63-28.14,0-.2,0-.05h0a3.91,3.91,0,0,0-3.92-5.06M194.77,26.79l17.87,0-4.21,17.89-17.88,0Z"/><path class="cls-1" d="M336.18,16.11h-7.7l-12,0h-8.84a6.92,6.92,0,0,0-6.33,5.13l0,.2h0l-6.63,28.13,0,.19,0,.13h0a3.92,3.92,0,0,0,3.94,5h7.71l12,0H327a6.92,6.92,0,0,0,6.33-5.11h0v0l.05-.2,6.63-28.14.05-.19v-.06h0a3.92,3.92,0,0,0-3.93-5.06M310.52,26.6l17.88,0-4.22,17.88-17.87,0Z"/><polygon class="cls-1" points="287.65 16.19 275.66 31.41 270.57 16.22 260.13 16.24 268.27 40.36 268.43 40.36 256.29 55.01 268.41 54.99 299.77 16.17 287.65 16.19"/><polygon class="cls-1" points="237.5 16.28 231.28 16.29 222.13 55.07 232.58 55.05 239.81 24.4 252.46 24.38 254.38 16.25 241.72 16.27 237.5 16.28"/><path class="cls-1" d="M172.94,1.07h-5.32a6.94,6.94,0,0,0-6.29,5h0l0,.14,0,.19-11.5,48.79,10.45,0,7.23-30.65,11.73,0,1.91-8.13-11.73,0,1.7-7.2,11.73,0,1.92-8.12H172.94Z"/><path class="cls-1" d="M386.32,14.1h4.5l-6.62-13-12.82,13h4.5l-3.15,13.43h0l-4,16.89H350.81l6.72-28.32H347.09l-7.94,33.44,0,.2A3.93,3.93,0,0,0,343,54.87h28.51a6.93,6.93,0,0,0,6.35-5.13l0-.2L379,45h0Z"/><path class="cls-1" d="M129.16,23.62,125.53,39l-4.27,18.09-2,8.31-26.38,0,6.22-26.39,19.94,0,3.63-15.42-14.75,0h-13a10.21,10.21,0,0,0-9.34,7.58l-.07.29L75.73,73.07l-.07.29c-1,4.16,1.62,7.56,5.78,7.55H92.81l22.86,0,15.41,0,3.64-15.42L140.94,39l3.64-15.42L149.91,1,134.5,1Z"/></g></g></svg>