<svg id="Layer_1" height="512" viewBox="0 0 512 512" width="512" xmlns="http://www.w3.org/2000/svg" data-name="Layer 1"><path d="m486.094 324.124-91.314-113.747a18.268 18.268 0 0 0 -6.709-5.2 70.786 70.786 0 0 1 5.67-5.73c5.313-4.992 11.335-10.65 12.185-18.411s-3.813-14.589-7.927-20.6c-2.662-3.891-5.415-7.915-5.743-10.915s1.474-7.515 3.217-11.889c2.715-6.814 5.792-14.535 3.24-22-2.537-7.42-9.677-11.688-15.977-15.454-4.152-2.483-8.446-5.05-10.145-7.79-1.669-2.692-2.129-7.646-2.574-12.437-.706-7.6-1.507-16.212-7.367-22.072s-14.473-6.661-22.072-7.367c-4.791-.445-9.745-.905-12.437-2.574-2.74-1.7-5.307-5.993-7.79-10.146-3.765-6.3-8.034-13.44-15.454-15.976-7.463-2.553-15.185.525-22 3.24-4.374 1.743-8.893 3.548-11.89 3.218s-7.024-3.081-10.915-5.743c-6.014-4.115-12.826-8.778-20.6-7.928-7.76.85-13.418 6.872-18.409 12.185-3.253 3.463-6.617 7.044-9.532 8.041-2.889.987-7.731.257-12.412-.447-7.359-1.108-15.7-2.365-22.528 1.868-6.735 4.176-9.433 12.173-11.813 19.229-1.6 4.748-3.258 9.657-5.725 12.124s-7.376 4.124-12.124 5.725c-7.056 2.38-15.054 5.078-19.229 11.814-4.234 6.828-2.978 15.168-1.869 22.527.7 4.682 1.434 9.524.447 12.412-1 2.916-4.578 6.279-8.041 9.533-5.312 4.991-11.334 10.648-12.184 18.408s3.812 14.59 7.927 20.6c2.662 3.891 5.415 7.915 5.743 10.915s-1.475 7.514-3.218 11.889c-2.715 6.813-5.792 14.535-3.24 22 .074.218.173.431.257.647l-87.642 109.169a18.428 18.428 0 0 0 2.831 25.858l22.051 17.7a18.227 18.227 0 0 0 11.466 4.039 18.8 18.8 0 0 0 2.047-.112 18.414 18.414 0 0 0 6.773-2.105c7.374 6.353 18.234 10.332 32.943 12.093 2.954 1.927 5.141 3.335 6.8 4.4 4.457 2.869 4.457 2.869 5.777 4.256 1.032 1.084 2.585 2.712 5.7 5.668l-5.355 9.276a20.778 20.778 0 0 0 7.6 28.353l1.55.9a20.65 20.65 0 0 0 12.025 2.709 20.751 20.751 0 0 0 10.313 16.421l1.551.9a20.686 20.686 0 0 0 15.668 2.085 20.61 20.61 0 0 0 9.632 12.521l1.55.895c4.832 2.79 11.2 3.027 17.477.651a28.56 28.56 0 0 0 2.664-1.169 20.639 20.639 0 0 0 8.333 9.009l1.552.9a20.575 20.575 0 0 0 10.315 2.777 20.859 20.859 0 0 0 11.589-3.517l12.407 9.061c9.752 7.123 18.364 10.7 25.728 10.7a19.7 19.7 0 0 0 8.591-1.887c6.838-3.261 10.209-9.865 11.871-15.657a27.852 27.852 0 0 0 9.442 1.719 23.664 23.664 0 0 0 10.838-2.573c7.272-3.718 12.112-10.851 13.591-19.673.615.037 1.231.065 1.85.065a30.492 30.492 0 0 0 16-4.459 25.743 25.743 0 0 0 12.305-21.042c.872.085 1.748.143 2.63.143a27.625 27.625 0 0 0 4.249-.33 27 27 0 0 0 20.494-37.81 51.179 51.179 0 0 0 10.326-4.585c5.767-3.439 10.86-8.349 15.767-13.21l32.116-11.629a18.248 18.248 0 0 0 10.743 5.027 18.8 18.8 0 0 0 2.047.112 18.232 18.232 0 0 0 11.466-4.038l22.051-17.7a18.415 18.415 0 0 0 2.83-25.86zm-367.244-174.701c.333-3.042 4.336-6.8 8.208-10.439 4.607-4.328 9.372-8.8 11.4-14.743 2-5.858 1.036-12.277.1-18.486-.817-5.421-1.661-11.026.083-13.838s7.165-4.637 12.412-6.407c6.15-2.075 12.509-4.22 17.1-8.816s6.741-10.955 8.815-17.1c1.77-5.248 3.6-10.673 6.407-12.413s8.417-.9 13.839-.082c6.208.935 12.627 1.9 18.486-.1 5.938-2.03 10.414-6.8 14.743-11.4 3.637-3.871 7.4-7.875 10.439-8.208s7.568 2.764 11.945 5.759c5.2 3.556 10.573 7.233 16.774 7.912 6.178.677 12.212-1.729 18.048-4.055 4.974-1.982 10.119-4.03 13.081-3.018s5.818 5.789 8.58 10.409c3.271 5.471 6.653 11.129 12.049 14.475 5.264 3.263 11.75 3.866 18.022 4.449 5.7.529 11.592 1.077 14.171 3.656s3.127 8.472 3.657 14.171c.582 6.272 1.185 12.758 4.448 18.022 3.346 5.4 9 8.779 14.476 12.05 4.619 2.761 9.395 5.617 10.408 8.579s-1.036 8.107-3.018 13.081c-2.326 5.837-4.731 11.873-4.055 18.047.68 6.2 4.357 11.576 7.913 16.774 2.994 4.378 6.091 8.9 5.757 11.946s-4.336 6.8-8.208 10.44c-4.564 4.287-9.283 8.721-11.345 14.58-.023.063-.037.126-.057.189a18.333 18.333 0 0 0 -4.613 2.7l-22.051 17.7a18.412 18.412 0 0 0 -3.764 24.543c-23.7 8.44-37.926 11.859-72.361 6.969-10.348-1.47-25.52 2.649-47.326 12.875-12.786.734-23.054-3.509-41.281-11.063-4.729-1.961-9.91-4.106-15.732-6.414l1.556-1.939a18.43 18.43 0 0 0 -2.829-25.858l-22.051-17.7a18.383 18.383 0 0 0 -17.258-3.112 74.566 74.566 0 0 1 2.65-7.364c2.326-5.837 4.731-11.873 4.055-18.047-.679-6.2-4.356-11.576-7.912-16.774-2.998-4.381-6.095-8.908-5.761-11.95zm-55.95 208.525a5.493 5.493 0 0 1 -4.068-1.171l-22.051-17.7a5.574 5.574 0 0 1 -.852-7.784l91.314-113.747a5.542 5.542 0 0 1 7.784-.852l22.051 17.7a5.545 5.545 0 0 1 .852 7.785l-7.059 8.792-.051.064-84.2 104.891a5.493 5.493 0 0 1 -3.72 2.022zm81.51 60.166a6.4 6.4 0 0 0 -1.115 1.426 7.912 7.912 0 0 1 -10.793 2.892l-1.551-.9a7.911 7.911 0 0 1 -2.892-10.792l14.864-25.74a7.842 7.842 0 0 1 4.8-3.665 8.077 8.077 0 0 1 2.082-.276 7.8 7.8 0 0 1 3.908 1.049l1.551.9a7.91 7.91 0 0 1 2.892 10.793 6.422 6.422 0 0 0 -.8 2.321 20.864 20.864 0 0 0 -1.678 2.481zm24.565 19.46a6.4 6.4 0 0 0 -1.792 1.991 7.944 7.944 0 0 1 -10.792 2.892l-1.551-.9a7.909 7.909 0 0 1 -2.892-10.792l14.866-25.748a7.843 7.843 0 0 1 4.8-3.665 8.085 8.085 0 0 1 2.083-.276 7.782 7.782 0 0 1 3.907 1.049l1.552.9a7.944 7.944 0 0 1 2.892 10.792 6.389 6.389 0 0 0 -.828 2.547zm28.716 11.655a20.716 20.716 0 0 0 -1.766 3.96 13.8 13.8 0 0 1 -6.187 4.53c-2.575.975-5.064 1.066-6.5.239l-1.55-.9a7.941 7.941 0 0 1 -2.892-10.792l14.866-25.748a7.9 7.9 0 0 1 10.792-2.892l1.551.9a7.945 7.945 0 0 1 2.892 10.793 6.4 6.4 0 0 0 -.673 1.663zm21.566 18.888a7.845 7.845 0 0 1 -5.99-.772l-1.551-.9a7.913 7.913 0 0 1 -3.716-8.745c.031-.1.06-.212.086-.318a7.848 7.848 0 0 1 .739-1.723l14.865-25.748a7.945 7.945 0 0 1 10.793-2.892l1.55.895a7.911 7.911 0 0 1 2.893 10.793l-14.866 25.748a7.84 7.84 0 0 1 -4.805 3.662zm146.289-52.646a14.257 14.257 0 0 1 -19.838 3.09l-34.753-25.383a6.428 6.428 0 0 0 -7.583 10.381l34.753 25.384c.079.057.162.105.241.162.915 6.773-1.176 11.952-6.094 15.009-5.4 3.354-13.18 3.382-17.719.067l-29.724-21.71a6.428 6.428 0 1 0 -7.582 10.381l29.723 21.71q.855.624 1.768 1.168c-.518 5.542-3.036 9.911-6.97 11.923-4.4 2.247-10.038 1.258-15.479-2.715l-20.319-14.838a6.428 6.428 0 0 0 -7.583 10.381l17.339 12.664c-.721 4.559-2.507 9.3-5.793 10.863-4.158 1.982-11.885-.783-21.2-7.589l-11.773-8.6 13.1-22.686a20.781 20.781 0 0 0 -7.6-28.354l-1.551-.895a20.61 20.61 0 0 0 -15.745-2.057 21 21 0 0 0 -4.731 1.9 20.619 20.619 0 0 0 -8-8.337l-1.551-.9a20.685 20.685 0 0 0 -15.668-2.085 20.608 20.608 0 0 0 -9.63-12.521l-1.552-.9a20.571 20.571 0 0 0 -12.024-2.706 20.751 20.751 0 0 0 -10.313-16.424l-1.551-.895a20.778 20.778 0 0 0 -28.353 7.6l-2.887 5c-1.455-1.43-2.351-2.368-3.009-3.06-2.38-2.5-2.925-2.85-8.13-6.2-1.865-1.2-4.416-2.843-7.995-5.185a6.443 6.443 0 0 0 -2.833-1.012c-12.115-1.3-21.06-4.192-26.7-8.614l77.734-96.831c7.274 2.832 13.579 5.443 19.239 7.789 11.4 4.724 20.205 8.367 28.728 10.384-2.423 2.585-4.652 5.494-7.029 8.6l-.77 1.007c-3.734 4.875-10.727 13.857-15.612 19.228-.909 1-1.735 1.863-2.481 2.642-3.131 3.271-5.834 6.1-6.982 11.229-1.376 6.153-.428 15.057 4.795 21.079 4.486 5.173 12.381 8.257 21.13 8.257h.076c7.643-.016 13.486-2.58 21-7 1.311-.772 2.707-1.624 4.175-2.52 6.411-3.915 14.39-8.786 22.216-10.941 27.9-7.679 67.549 24.429 96.5 47.874 7.073 5.728 13.754 11.139 19.5 15.337a14.215 14.215 0 0 1 3.088 19.849zm16.933-35.105a49.156 49.156 0 0 1 -12.517 4.828c-5.474-4-12-9.291-18.919-14.89-31.118-25.2-73.732-59.711-108-50.278-9.57 2.635-18.4 8.028-25.5 12.363-1.407.858-2.744 1.675-4 2.415-6.7 3.947-10.224 5.217-14.5 5.226h-.047c-4.85 0-9.436-1.535-11.421-3.824-2.045-2.359-2.611-6.95-1.962-9.851.337-1.506.916-2.213 3.724-5.146.813-.849 1.713-1.791 2.7-2.881 5.2-5.722 12.45-15.025 16.308-20.062l.778-1.018c4.471-5.85 7.7-10.078 12.19-12.316 22.994-11.464 39.013-16.659 47.617-15.437 39.451 5.6 55.128.876 82.6-9.065l76.749 95.606-29.155 10.556a6.391 6.391 0 0 0 -2.342 1.477c-4.882 4.852-9.496 9.431-14.305 12.297zm92.74-40.409-22.051 17.7a5.573 5.573 0 0 1 -7.785-.852l-86.6-107.882-4.706-5.862a5.545 5.545 0 0 1 .852-7.785l22.05-17.7a5.544 5.544 0 0 1 7.786.851l91.313 113.747a5.545 5.545 0 0 1 -.861 7.783zm-219.219-96.002a79.423 79.423 0 1 0 -56.161-23.263 78.9 78.9 0 0 0 56.161 23.263zm-47.073-126.493a66.568 66.568 0 1 1 0 94.14 66.135 66.135 0 0 1 0-94.14zm3.487 44.706a6.428 6.428 0 0 1 9.026-1.08l26.632 20.941 41.6-48.048a6.428 6.428 0 0 1 9.72 8.414l-45.611 52.684a6.426 6.426 0 0 1 -8.832.846l-31.452-24.732a6.427 6.427 0 0 1 -1.083-9.025z"/></svg>