<svg id="Layer_1" enable-background="new 0 0 100 100" viewBox="0 0 100 100" xmlns="http://www.w3.org/2000/svg"><path d="m53.5133553 80.189476h-16.1230202c-.7090912 0-1.283783-.5746918-1.283783-1.283783v-1.8439331c-.5506248-5.3332214-3.7109375-8.4634476-8.9328308-13.6371918l-.1178474-.1163445c-6.7293339-5.5383224-10.587204-13.6998787-10.587204-22.4030304 0-15.9816036 13.0018215-28.9834251 28.9829254-28.9834251 11.0154648 0 20.9397163 6.1165285 25.899334 15.9625483.3189392.6333656.0641861 1.4051418-.5686722 1.724081-.6343765.3189392-1.4056473.0641899-1.7240829-.568676-4.5213319-8.9749517-13.5664864-14.5503844-23.6065789-14.5503844-14.5654316 0-26.4153576 11.8499269-26.4153576 26.4158554 0 7.9509354 3.5334148 15.4069099 9.6945744 20.4557915.0310917.0255737.0611801.0526543.0897636.0807381l.1599712.1589699c5.261507 5.2128601 9.0632114 8.9789658 9.6870518 15.2695007.0045128.0421295.0065193.0847549.0065193.1268768v.6248398h13.5554543v-.6248398c0-.0421219.0020065-.0847473.0065193-.1268768.1805305-1.8193588.6273499-3.4827652 1.3655243-5.0849838.2963715-.6433945 1.0581169-.9257278 1.7030182-.6288528.643898.296875.9257278 1.0591202.6288528 1.7030182-.6087914 1.3208923-.9803886 2.6959457-1.1363487 4.2023849v1.8439331c0 .709092-.5746918 1.2837838-1.2837829 1.2837838z"/><path d="m29.1555634 29.7463055c-.2723026 0-.5466118-.0862541-.7792969-.2642803-.5631599-.430769-.6699753-1.2366447-.2392044-1.7998047 3.4902859-4.5599384 8.5206146-7.5231724 14.1647491-8.3440914.7000618-.1018009 1.3529854.3841305 1.4547882 1.0856991.1022987.7015686-.3836327 1.3529873-1.085701 1.4547882-4.9766693.7241344-9.4142494 3.3393421-12.4948273 7.3642044-.2527446.3299732-.6343688.5034847-1.0205077.5034847z"/><path d="m25.4371033 37.7007484c-.0927734 0-.1875534-.0105286-.2818298-.0315933-.6920395-.1554565-1.1268215-.84198-.9718647-1.5335197.2000885-.892128.4583511-1.7767372.7672615-2.6292496.2422142-.6674652.978384-1.0089722 1.6443462-.7697678.6669655.2417145 1.0114803.9778824.7697678 1.6443481-.2723026.7507095-.4994717 1.5300064-.6759911 2.3163261-.1338959.5972596-.6639576 1.0034562-1.2516899 1.0034562z"/><path d="m50.8259354 97.5h-10.7486802c-.4979706 0-.9513054-.2878494-1.162426-.7391815l-2.6869202-5.7343979c-.0797348-.1705017-.121357-.3565521-.121357-.5446091v-11.5761184c0-.7090836.5746918-1.283783 1.283783-1.283783h16.1230202c.7090912 0 1.283783.5746994 1.283783 1.283783v11.5761185c0 .1880569-.0416222.3741074-.121357.5446091l-2.6874199 5.7343979c-.2111244.451332-.6644592.7391814-1.1624259.7391814zm-9.9322739-2.5675659h9.1163673l2.2195435-4.7364655v-10.0064926h-13.5554543v10.0064926z"/><path d="m26.9972019 63.2495499c-.4994717-.5019798-.5130119-1.3289146-.0115337-1.8288879.5019798-.5004768 1.2998314-.5145187 1.7998047-.0135422l-.8685608.9467926z"/><path d="m53.5133553 91.7656021h-16.1230202c-.7090912 0-1.283783-.5746994-1.283783-1.2837906v-11.5761184c0-.7090836.5746918-1.283783 1.283783-1.283783h16.1230202c.7090912 0 1.283783.5746994 1.283783 1.283783v11.5761185c-.0000001.7090911-.5746919 1.2837905-1.283783 1.2837905zm-14.8392373-2.5675735h13.5554543v-9.0085526h-13.5554543z"/><path d="m44.5629768 85.9775391h-7.1726418c-.7090912 0-1.283783-.5746918-1.283783-1.283783s.5746918-1.283783 1.283783-1.283783h7.1726418c.7090874 0 1.283783.5746918 1.283783 1.283783s-.5746956 1.283783-1.283783 1.283783z"/><path d="m45.4515953 8.4610691c-.7090912 0-1.2837868-.5746937-1.2837868-1.2837834v-3.393502c0-.7090898.5746956-1.2837837 1.2837868-1.2837837.7090874 0 1.283783.5746939 1.283783 1.2837837v3.393502c0 .7090897-.5746956 1.2837834-1.283783 1.2837834z"/><path d="m28.5898952 12.979888c-.443306 0-.8750782-.2301779-1.1127796-.6418915l-1.6970005-2.9391632c-.3545456-.6138087-.1439247-1.3991237.4698849-1.7536688.613308-.3545446 1.3991222-.1439238 1.7536678.4698849l1.6970024 2.9391632c.3545437.6138086.1439247 1.3991232-.4698849 1.7536688-.2020969.1168441-.4227466.1720066-.6408901.1720066z"/><path d="m16.2430058 25.3242722c-.2181435 0-.4387941-.0551624-.6408901-.1720085l-2.9386616-1.6970005c-.6143103-.3545456-.8244295-1.1398602-.4698849-1.7536697.3550472-.6138077 1.1408625-.8249302 1.7536688-.4698849l2.9386625 1.6970024c.6143093.3545456.8244286 1.1398602.4698849 1.7536678-.2377014.4117145-.6694737.6418934-1.1127796.6418934z"/><path d="m11.7256908 42.1874733h-3.3935022c-.7090902 0-1.2837839-.5746918-1.2837839-1.283783s.5746937-1.283783 1.2837839-1.283783h3.3935022c.7090893 0 1.2837839.5746918 1.2837839 1.283783s-.5746946 1.283783-1.2837839 1.283783z"/><path d="m91.6678085 68.3415604h-49.1814537c-.7090912 0-1.283783-.5746918-1.283783-1.283783s.5746918-1.283783 1.283783-1.283783h49.1814537c.7090912 0 1.283783.5746918 1.283783 1.283783s-.5746918 1.283783-1.283783 1.283783z"/><path d="m56.286026 68.3415604h-7.5357094c-.7090912 0-1.283783-.5746918-1.283783-1.283783v-11.4201622c0-.7090874.5746918-1.283783 1.283783-1.283783h7.5357094c.7090912 0 1.2837868.5746956 1.2837868 1.283783v11.4201622c0 .7090912-.5746956 1.283783-1.2837868 1.283783zm-6.2519264-2.567566h4.9681435v-8.8525963h-4.9681435z"/><path d="m73.0644836 68.3415604h-7.5352096c-.7090912 0-1.2837906-.5746918-1.2837906-1.283783v-16.4439697c0-.7090874.5746994-1.283783 1.2837906-1.283783h7.5352097c.7090836 0 1.283783.5746956 1.283783 1.283783v16.4439697c-.0000001.7090912-.5746995 1.283783-1.2837831 1.283783zm-6.2514267-2.567566h4.9676361v-13.8764h-4.9676361z"/><path d="m89.8429337 68.3415604h-7.5352097c-.7090912 0-1.283783-.5746918-1.283783-1.283783v-26.9519386c0-.7090912.5746918-1.283783 1.283783-1.283783h7.5352097c.7090912 0 1.283783.5746918 1.283783 1.283783v26.9519386c-.0000001.7090912-.5746919 1.283783-1.283783 1.283783zm-6.2514267-2.567566h4.9676437v-24.3843727h-4.9676437z"/><path d="m43.9767456 49.0512047c-.6684685 0-1.232132-.5175247-1.2792702-1.1945229-.0491447-.7070847.4844284-1.3208923 1.1915131-1.3700371 25.9765663-1.8103371 36.4840355-14.9340153 42.7359581-26.1651173.3450165-.6198273 1.127327-.8414803 1.7461472-.497467.6193237.3450165.84198 1.1268215.497467 1.7461472-6.0553436 10.8775578-17.2874527 25.5603352-44.8010445 27.4779873-.03059.0020065-.0606804.0030098-.0907707.0030098z"/><path d="m89.8685074 31.6559334c-.5872269 0-1.1167908-.405695-1.2511902-1.0024548l-1.8409195-8.17309-8.1730957 1.8409271c-.694046.1574631-1.3785629-.2783203-1.534523-.9698582-.1559601-.6920395.2783203-1.3790646.9698639-1.534523l9.4257812-2.1232586c.3334808-.075222.6805038-.0150452.9683533.1669922s.4914474.4708881.5661697.8033676l2.122757 9.4257812c.1559601.6915379-.2783203 1.3785629-.9703598 1.5340214-.09478.0215646-.1895599.0320951-.2828369.0320951z"/></svg>