<?xml version="1.0" encoding="utf-8"?>
<!-- Generator: Adobe Illustrator 22.0.1, SVG Export Plug-In . SVG Version: 6.00 Build 0)  -->
<svg version="1.1" id="Layer_1" xmlns="http://www.w3.org/2000/svg" xmlns:xlink="http://www.w3.org/1999/xlink" x="0px" y="0px"
	 viewBox="0 0 2161 563" style="enable-background:new 0 0 2161 563;" xml:space="preserve">
<style type="text/css">
	.st0{fill-opacity:0;}
	.st1{opacity:0.9765;fill:#DB5A66;enable-background:new    ;}
	.st2{opacity:0.9765;fill:#FFB800;enable-background:new    ;}
	.st3{opacity:0.9647;fill:#4A9AC7;enable-background:new    ;}
	.st4{fill:#FFFFFF;stroke:#FFFFFF;}
</style>
<path class="st0" d="M2015,178h52.5c11.5,1.9,20,6.7,25.5,14.5c5.5,7.5,7.9,18.1,7,32c-1.5,0.8-1.8,2.8-1,6l-5,12l-8.5,9.5l-9,5
	l-12,3H2015V178z"/>
<path class="st0" d="M0.5,213c2.5,10.9,7.5,19.2,15,25c7.3,6.3,16,11.3,26,15l64,20l16,7l7.5,6.5l3,8v5c-1.3,5.7-3.8,10.2-7.5,13.5
	c-11.1,8.9-27.8,12.2-50,10l-15-3l-14-5c-12.5-5.1-23.9-11.5-34-19l-8-2L1,295l-0.5,2V213z"/>
<path class="st0" d="M446.5,339c16.3-1.3,27.5,2.5,33.5,11.5c2.8,3.2,3.8,8.2,3,15c-1.2,5.1-3.7,9-7.5,11.5l-3,2l-15,4h-9l-1,1H412
	c-0.3-17.4,4.9-29.7,15.5-37C432.4,342.9,438.8,340.3,446.5,339z"/>
<path class="st0" d="M224.5,340c17.1-1.1,29,3,35.5,12.5l8,17l1,11l1,1v17l-1,1l-1,12l-4,11l-9.5,11.5l-12,5l-14,1l-1-1l-15-1
	l-10.5-6.5l-4-10v-44l4-18l8.5-13.5L224.5,340z"/>
<path class="st1" d="M196.5,0l12,1l9.5,7.5c3.7,3.3,5,9,4,17c-1.1,5.5-3.6,9.7-7.5,12.5c-4,4-10.7,5.3-20,4
	c-4.9-1.7-8.8-4.6-11.5-8.5c-3.3-3.7-4.3-9.7-3-18c1.6-5.7,4.8-9.9,9.5-12.5L196.5,0z"/>
<path class="st1" d="M183,62h35.5l0.5,0.5v122l-2,10l-4.5,6.5l-6,3h-18l-4.5-3.5l-1-3V62z"/>
<path class="st1" d="M75.5,136c36.3-0.3,63.5,8.5,81.5,26.5l4,8v21c-0.8,3.1-3.6,4.3-8.5,3.5c-9.4-7.6-20.1-13.9-32-19l-22-6l-17-1
	l-1,1h-10l-12,3c-6.5,2.5-11.6,6.4-15.5,11.5c-2.8,3.2-3.8,8.2-3,15c1.5,4.5,4,8,7.5,10.5l12,6l74,24l16,8l12.5,10.5l9,18
	c-0.8,3.1-0.5,5.1,1,6v18c-2.7,14.3-8.5,25.5-17.5,33.5c-8.6,8.4-19.6,14.4-33,18l-15,3h-8l-1,1h-22l-1-1h-8l-15-3l-21-7
	c-10.8-4.2-19.6-10.4-26.5-18.5l-4-7v-22l1-2.5l5.5-1l39,21l14,5l15,3h25l15-4l12.5-8.5c3.5-3.5,5.2-8.8,5-16
	c-1-5.7-3.5-9.8-7.5-12.5l-19-9l-44-13l-27-10c-9.7-4.3-17.8-10.2-24.5-17.5c-4.7-5.3-8.1-11.9-10-20v-22
	c3.3-15.3,10.2-27.2,20.5-35.5c6.5-5.5,14.2-9.8,23-13l15-4l16-1L75.5,136z"/>
<path class="st2" d="M1730,137h46v106h115V137h47v253.5l-0.5,0.5H1891V284h-115v107h-46V137z"/>
<path class="st2" d="M1968,137h107.5c1.2,1.9,3.9,2.2,8,1c19.5,3.9,34.7,12,45.5,24.5c7.3,8.1,12.6,18.1,16,30l2,10v8l1,1v13l-1,1
	l-1,14l-5,16c-4.8,10.5-11.3,19.4-19.5,26.5c-5.1,5.2-11.6,9-19.5,11.5l57,92l2,5.5h-51.5l-2.5-2.5l-52-87.5h-40v90h-47V137z
	 M2015,178v82h50l12-3l9-5l8-9l5-12c-0.7-3.3-0.3-5.3,1-6c0.7-14-1.7-24.7-7-32c-5.3-8-13.7-13-25-15H2015z"/>
<path class="st1" d="M282.5,150h29l5,1c11,2.3,20,6.7,27,13c6.6-6.1,14.9-10.4,25-13c3.1,0.9,5.1,0.5,6-1h28l16,4
	c7.8,3.2,14.3,7.7,19.5,13.5l8,14l4,18v11l1,1v64l-2,10l-5.5,7.5c-4.8,3.2-11.8,4.2-21,3l-5.5-2l-2-3.5v-80l-1-1v-9l-4-14l-5.5-7.5
	c-4.5-4.5-11.5-6.5-21-6c-6.8,1.2-12,4-15.5,8.5l-5,9l-2,9v10l-1,1v71c-0.9,5.1-3.1,8.9-6.5,11.5c-4.8,3.2-11.8,4.2-21,3l-4-1
	l-2.5-2.5l-2-7v-83l-3-12l-7.5-11.5c-4.8-4.9-12.8-6.5-24-5c-5.5,1.5-9.7,4.3-12.5,8.5l-5,12l-2,10V293h-36v-87.5l1-1l1-12l4-12
	c3.7-7.9,8.9-14.4,15.5-19.5l12-7L282.5,150z"/>
<path class="st3" d="M213.5,316h34l11,2c13.4,3.3,23.9,9.4,31.5,18.5c6.3,7.3,11,16.3,14,27l2,11v30l-1,1l-1,11l-4,13
	c-3.2,7.8-7.7,14.3-13.5,19.5c-7.4,6.3-16.7,10.6-28,13l-14,1l-1,1h-21l-1-1l-12-1l-11-4l-0.5,65h-36.5l-0.5-0.5v-145l1-1l1-17l3-10
	c3.5-9.5,9-17,16.5-22.5l11-6L213.5,316z M225,340l-14,6l-9,14l-4,18v44l4,10l11,6l15,1l1,1l14-1l12-5l9-11l4-11l1-12l1-1v-17l-1-1
	l-1-11l-8-17C253.3,343,241.7,338.7,225,340z"/>
<path class="st3" d="M438.5,316h30l10,2c14.4,3.9,25.6,11.1,33.5,21.5c4.7,6,7.3,14,8,24l-3,15c-2.1,5.2-5.3,9.4-9.5,12.5l-15,8
	l-21,5l-20,1l-1,1H414c1.9,7.3,4.9,13.3,9,18l6.5,5l15,6c3.1-0.9,5.1-0.5,6,1h28l14-3l17-9h4l2.5,2.5v17l-5.5,8.5l-6,4l-19,6l-16,1
	l-1,1h-21l-1-1l-13-1l-18-6c-10.3-5-18.8-11.8-25.5-20.5l-10-18l-3-11l-1-5v-27c2.9-17.7,10.1-31.2,21.5-40.5l19-12L438.5,316z
	 M447,339c-8,1.3-14.3,4-19,8c-10.7,7.3-16,19.7-16,37h36l1-1h9l15-4l3-2c3.3-2.7,5.7-6.3,7-11c0.7-7.3-0.3-12.3-3-15
	C474,341.7,463,337.7,447,339z"/>
<path class="st3" d="M324,369h34.5l0.5,0.5v149l3,10l5.5,5.5l11,3h15l1.5,1.5v20l-3.5,3.5l-4,1h-26l-15-3
	c-5.8-2.1-10.6-5.3-14.5-9.5l-5-8l-3-13V369z"/>
<g>
	<path class="st4" d="M660.5,133.8h33l1,1l12,1l21,6c20.1,7.9,36.6,19.4,49.5,34.5c11.5,13.1,20.2,29.1,26,48l5,28v23l-1,1l-1,15
		l-9,29c-7.7,17.3-18.2,31.8-31.5,43.5c-12.9,11.7-28.9,20.4-48,26l-26,5h-29l-1-1l-13-1l-26-8c-16.4-6.9-30.2-16.4-41.5-28.5
		c-12.3-12.7-21.6-28.4-28-47l-6-27l-1-25l1-1v-11l1-1l1-11l9-27c7.5-16.5,17.7-30.3,30.5-41.5c8.9-8.1,19.3-14.7,31-20l20-7
		L660.5,133.8z M665,173.8c-18,2.7-32,9-42,19c-9.3,8-16.7,18-22,30l-6,19l-1,17l-1,1l1,21l4,18c3.3,9.3,8,18,14,26
		c6,7.3,13.7,13.7,23,19l15,7l20,4h16l16-3c10-2.7,18.7-7,26-13c11.3-8.7,20-20.3,26-35l5-17l1-18l1-1l-1-19l-3-15
		c-4-12.7-9.7-23.3-17-32c-8.7-10.7-19.7-18.7-33-24l-17-4H665z"/>
	<path class="st4" d="M1369.5,133.8h34l21,4l28,11c10.1,5.3,18.9,11.8,26.5,19.5l-20.5,31.5c-13-10.7-28.7-18.7-47-24l-10-2h-28
		c-22.8,3.9-40,13.4-51.5,28.5c-7.3,8.7-12.6,19.4-16,32l-2,10v7l-1,1v21l4,21l5,13c5.3,11.4,12.4,20.9,21.5,28.5
		c7.4,6.3,16.1,11.3,26,15l20,4h17l1-1l12-1l15-5l16-8c7.7-4.3,14.4-9.6,20-16l3.5-1l22,31.5c-13.9,15.1-31.8,26.2-53.5,33.5l-13,4
		l-10,2h-7l-1,1h-30l-23-4l-20-7c-16.1-7.3-29.6-17.1-40.5-29.5c-12.2-13.5-21.2-30.1-27-50l-5-28v-26l1-1v-8l3-15l7-20
		c7.9-17.5,18.7-32,32.5-43.5c8.9-7.7,19.3-14.1,31-19l14-5L1369.5,133.8z"/>
	<path class="st4" d="M832,137.8h154.5l0.5,0.5v38.5H878v65h97v40h-97v109h-46V137.8z"/>
	<path class="st4" d="M1004,137.8h153.5l0.5,0.5v38.5h-107.5l-1.5,1.5v63.5h98v40h-98v109h-45V137.8z"/>
	<path class="st4" d="M1181,137.8h45.5l0.5,0.5v252.5h-45.5l-0.5-0.5V137.8z"/>
	<path class="st4" d="M1498,137.8h154.5l0.5,0.5v38.5h-109v65h97v40h-97v70h115v39h-161V137.8z"/>
</g>
</svg>
