<?xml version="1.0" encoding="utf-8"?>
<!-- Generator: Adobe Illustrator 22.0.1, SVG Export Plug-In . SVG Version: 6.00 Build 0)  -->
<svg version="1.1" id="Layer_1" xmlns="http://www.w3.org/2000/svg" xmlns:xlink="http://www.w3.org/1999/xlink" x="0px" y="0px"
	 viewBox="0 0 2161 563" style="enable-background:new 0 0 2161 563;" xml:space="preserve">
<style type="text/css">
	.st0{fill-opacity:0;}
	.st1{opacity:0.6078;fill:#181818;stroke:#181818;enable-background:new    ;}
	.st2{fill:#181818;}
	.st3{opacity:0.9765;fill:#DB5A66;enable-background:new    ;}
	.st4{opacity:0.9765;fill:#FFB800;enable-background:new    ;}
	.st5{opacity:0.9647;fill:#4A9AC7;enable-background:new    ;}
</style>
<path class="st0" d="M0,0l196,0.5c-6.5,1.5-11.1,4.9-14,10c-2.5,3.9-3.1,9.5-2,17c1.7,4.9,4.6,8.8,8.5,11.5c3.7,3.3,9.7,4.3,18,3
	l10.5-6.5c4.3-3.7,5.9-10.1,5-19c-1.7-5.3-4.5-9.5-8.5-12.5L206,0.5L2161,0l-0.5,389l-58.5-95.5c11.1-4.2,20.1-10.5,27-19
	c6.5-7.5,11.5-16.5,15-27l3-13l1-23l-1-1l-1-14l-5-15c-4.5-10.1-10.6-18.6-18.5-25.5l-19-12l-11-4l-17-3H1968v253.5l0.5,0.5h46.5
	v-90h40l54.5,90h51l0.5,0.5V563l-1773-0.5c3.7,0.1,6.1-1.3,7-4v-20l-1.5-1.5l-21-1c-4.8-1.2-8.3-3.7-10.5-7.5l-3-10V369h-34.5
	l-0.5,0.5v160l3,13l7.5,10.5c6.2,5.8,15,9,26.5,9.5L0,563l0.5-243c2.4,5.9,6.1,10.6,11,14l19,11l21,7l15,3h8l1,1h22l1-1h8l11-2l18-6
	c7.9-3.7,14.8-8.6,20.5-14.5c6.3-6.1,10.9-13.7,14-23l2-9v-18l-3-12l-4-8l-7.5-8.5c-6.8-5.9-14.8-10.5-24-14l-74-24l-12-6l-4.5-4.5
	c-2.9-2.8-3.9-7.5-3-14c1.6-6.1,4.8-10.6,9.5-13.5c4.3-3.4,9.6-5.7,16-7l24-2l1,1l13,1l17,5c11.3,4.7,21.3,10.7,30,18l7,1l3.5-3.5
	v-21c-1.9-5.8-5-10.3-9.5-13.5c-18.1-14.2-43.5-21.2-76-21l-1,1h-10l-11,2l-15,5c-10.1,4.5-18.6,10.7-25.5,18.5l-10,17L0.5,190L0,0z
	 M183,62v136l1,3l5,3h18l6-3l4-6l2-10V63v-1H183z M666,133l-28,5l-19,7c-13.3,6-24.7,13.7-34,23c-12,10.7-21.3,24-28,40l-6,16l-5,26
	v29l4,23c5.3,18.7,13.7,35,25,49c12.7,15.3,29,27,49,35l18,6l16,3h10l1,1l28-1l7-2h5l17-5c16.7-6,31-14.7,43-26s21.7-25.3,29-42
	l6-17l4-21v-34l-6-28c-6-18-14.7-33-26-45c-13.3-16-30.7-27.7-52-35l-26-6L666,133z M1375,133l-1,1h-8l-16,3l-18,6
	c-13.3,5.3-24.7,12.3-34,21c-13.3,11.3-23.7,25.3-31,42l-8,23l-3,17v13l-1,1l2,29l6,24c6.7,18,16,33.3,28,46c12,12,26.7,21.3,44,28
	l16,5l16,3h11l1,1l28-1l25-6l30-14c8.7-5.3,16.7-11.7,24-19l-1-4l-21-30l-24,18c-11.3,6.7-24.3,11.3-39,14h-25l-14-3
	c-10.7-3.3-19.3-8-26-14c-9.3-7.3-16.7-16-22-26l-7-18l-3-15v-30c1.3-1.3,1.7-3.3,1-6l6-20l10-17c6.7-9.3,15.3-16.7,26-22l15-6l17-3
	l26,1l20,6c12.7,4.7,24,11.3,34,20l17-26l3-7c-7.3-7.3-15.7-13.7-25-19l-24-10l-22-5L1375,133z M832,137v254h46V282h98v-39l-1-2h-97
	v-63h109v-40v-1H832z M1003,137v254h47V282h97v-41h-97v-63h109v-40v-1H1003z M1180,137v254h1h46V138v-1H1180z M1498,137v254h161v-40
	h-115v-69h98v-39l-1-2h-97v-63h109v-40v-1H1498z M1730,137v254h46V284h115v107h47l0,0V137h-47v106h-115V137H1730z M283,150l-15,4
	l-12,7c-6.7,5.3-12,12-16,20l-4,12l-1,12l-1,1v87h36v-88l2-10l5-12c2.7-4.7,7-7.7,13-9c10.7-1.3,18.7,0.3,24,5l7,12l3,12v83l2,7l3,2
	l4,1c8.7,1.3,15.7,0.3,21-3c3.3-2.7,5.3-6.3,6-11v-71l1-1v-10l2-9l5-9c3.3-4.7,8.7-7.7,16-9c9.3-0.7,16.3,1.3,21,6l5,8l4,14v9l1,1
	v80l2,3l6,2c8.7,1.3,15.7,0.3,21-3l5-7l2-10v-64l-1-1v-11l-4-18l-8-14c-5.3-6-11.7-10.7-19-14l-16-4h-28c-1.3,1.3-3.3,1.7-6,1
	c-10.7,2.7-19,7-25,13c-7.3-6-16.3-10.3-27-13l-5-1H283z M214,316l-20,5l-11,6c-8,5.3-13.7,13-17,23l-3,10l-1,17l-1,1v145h1h36l1-65
	l11,4l12,1l1,1h21l1-1l14-1c10.7-2.7,20-7,28-13c5.3-5.3,9.7-11.7,13-19l4-13l1-11l1-1v-30l-2-11c-3.3-10.7-8-19.7-14-27
	c-7.3-9.3-17.7-15.7-31-19l-11-2H214z M439,316l-22,6l-19,12c-12,9.3-19.3,23-22,41v27l1,5l3,11l10,18c6.7,8,15.3,14.7,26,20l18,6
	l13,1l1,1h21l1-1l16-1l19-6l6-4l5-8v-17l-2-3h-4l-17,9l-14,3h-28c-1.3-1.3-3.3-1.7-6-1l-15-6l-7-5c-4-4.7-7-10.7-9-18h37l1-1l20-1
	l21-5l15-8c4-3.3,7-7.3,9-12l3-15c-0.7-10.7-3.3-18.7-8-24c-8-10.7-19-18-33-22l-10-2H439z"/>
<path class="st0" d="M668.5,174l24,1l20,6c11.5,5.5,21,13,28.5,22.5c7.1,8.9,12.5,19.5,16,32l3,17v23l-1,1l-1,12l-5,16
	c-5.1,12.3-12.2,22.4-21.5,30.5c-8.5,7.9-19.1,13.5-32,17l-10,2h-24c-21.4-3.6-37.9-12.1-49.5-25.5c-8-8.7-14-19.3-18-32l-4-20v-24
	l3-17l9-22c5-8.3,11.2-15.5,18.5-21.5l20-12L668.5,174z"/>
<path class="st0" d="M2015,178h52.5c11.5,1.9,20,6.7,25.5,14.5c5.5,7.5,7.9,18.1,7,32c-1.5,0.8-1.8,2.8-1,6l-5,12l-8.5,9.5l-9,5
	l-12,3H2015V178z"/>
<path class="st0" d="M0.5,213c2.5,10.9,7.5,19.2,15,25c7.3,6.3,16,11.3,26,15l64,20l16,7l7.5,6.5l3,8v5c-1.3,5.7-3.8,10.2-7.5,13.5
	c-11.1,8.9-27.8,12.2-50,10l-15-3l-14-5c-12.5-5.1-23.9-11.5-34-19l-8-2L1,295l-0.5,2V213z"/>
<path class="st0" d="M446.5,339c16.3-1.3,27.5,2.5,33.5,11.5c2.8,3.2,3.8,8.2,3,15c-1.2,5.1-3.7,9-7.5,11.5l-3,2l-15,4h-9l-1,1H412
	c-0.3-17.4,4.9-29.7,15.5-37C432.4,342.9,438.8,340.3,446.5,339z"/>
<path class="st0" d="M224.5,340c17.1-1.1,29,3,35.5,12.5l8,17l1,11l1,1v17l-1,1l-1,12l-4,11l-9.5,11.5l-12,5l-14,1l-1-1l-15-1
	l-10.5-6.5l-4-10v-44l4-18l8.5-13.5L224.5,340z"/>
<path class="st1" d="M665.5,133l23.5,0.5l-23.5,0.5V133z"/>
<path class="st1" d="M1374.5,133l23.5,0.5l-23.5,0.5V133z"/>
<path class="st1" d="M656.5,134l5.5,0.5l-5.5,0.5V134z"/>
<path class="st1" d="M692.5,134l5.5,0.5l-5.5,0.5V134z"/>
<path class="st1" d="M1365.5,134l5.5,0.5l-5.5,0.5V134z"/>
<path class="st1" d="M1402.5,134l5.5,0.5l-5.5,0.5V134z"/>
<path class="st1" d="M650.5,135l3.5,0.5l-3.5,0.5V135z"/>
<path class="st1" d="M701.5,135l3.5,0.5l-3.5,0.5V135z"/>
<path class="st1" d="M1358.5,135l3.5,0.5l-3.5,0.5V135z"/>
<path class="st1" d="M1410.5,135l3.5,0.5l-3.5,0.5V135z"/>
<path class="st1" d="M645.5,136l2.5,0.5l-2.5,0.5V136z"/>
<path class="st1" d="M706.5,136l2.5,0.5l-2.5,0.5V136z"/>
<path class="st1" d="M1354.5,136l2.5,0.5l-2.5,0.5V136z"/>
<path class="st1" d="M1416.5,136l2.5,0.5l-2.5,0.5V136z"/>
<path class="st1" d="M711.5,137l2.5,0.5l-2.5,0.5V137z"/>
<path class="st1" d="M832.5,137l154.5,0.5L832.5,138V137z"/>
<path class="st1" d="M1003,137h155.5l0.5,0.5V178h-109v63l97,0.5l-98,0.5v-65h109v-39h-154v252.5h-1V137z"/>
<path class="st1" d="M1180,137h46.5l0.5,0.5v253h-1v-252l-0.5-0.5H1181l-0.5,253L1180,137z"/>
<path class="st1" d="M1349.5,137l2.5,0.5l-2.5,0.5V137z"/>
<path class="st1" d="M1498.5,137l154.5,0.5l-154.5,0.5V137z"/>
<path class="st1" d="M1331.5,143l1.5,0.5l-3.5,1.5v-1L1331.5,143z"/>
<path class="st1" d="M618.5,145l1.5,0.5l-3.5,1.5v-1L618.5,145z"/>
<path class="st1" d="M1446.5,146l8.5,4.5l-1.5-0.5l-7-3V146z"/>
<path class="st1" d="M612.5,148l-1,2l-2,1l1-2L612.5,148z"/>
<path class="st1" d="M745.5,150l1,2L745.5,150z"/>
<path class="st1" d="M1317.5,150l-1,2l-2,1l1-2L1317.5,150z"/>
<path class="st1" d="M605.5,152l-1,2L605.5,152z"/>
<path class="st1" d="M1458.5,152l1,2L1458.5,152z"/>
<path class="st1" d="M750.5,153l1,2L750.5,153z"/>
<path class="st1" d="M1312.5,153l-1,2L1312.5,153z"/>
<path class="st1" d="M602.5,154l-1,2L602.5,154z"/>
<path class="st1" d="M1461.5,154l4.5,3.5l-2.5-1.5L1461.5,154z"/>
<path class="st1" d="M753.5,155l1,2L753.5,155z"/>
<path class="st1" d="M1309.5,155l-1,2L1309.5,155z"/>
<path class="st1" d="M599.5,156l-1,2L599.5,156z"/>
<path class="st1" d="M756.5,157l2,3L756.5,157z"/>
<path class="st1" d="M1306.5,157l-1,2L1306.5,157z"/>
<path class="st1" d="M596.5,158l-2,3L596.5,158z"/>
<path class="st1" d="M1467.5,158l1,2L1467.5,158z"/>
<path class="st1" d="M760.5,160l3,4L760.5,160z"/>
<path class="st1" d="M1302.5,160l-2,3L1302.5,160z"/>
<path class="st1" d="M1470.5,160l3,4L1470.5,160z"/>
<path class="st1" d="M592.5,161l-4,5L592.5,161z"/>
<path class="st1" d="M1297.5,164l-11,12L1297.5,164z"/>
<path class="st1" d="M1475.5,164l3,4L1475.5,164z"/>
<path class="st1" d="M766.5,165l9,10L766.5,165z"/>
<path class="st1" d="M584.5,168l-3,4L584.5,168z"/>
<path class="st1" d="M1478.5,169l-1,2L1478.5,169z"/>
<path class="st1" d="M1476.5,172l-0.5,1.5l-1.5,2.5l0.5-1.5L1476.5,172z"/>
<path class="st1" d="M672.5,173l9.5,0.5l-9.5,0.5V173z"/>
<path class="st1" d="M1382.5,173l10.5,0.5l-10.5,0.5V173z"/>
<path class="st1" d="M663.5,174l4.5,0.5l-4.5,0.5V174z"/>
<path class="st1" d="M686.5,174l4.5,0.5l-4.5,0.5V174z"/>
<path class="st1" d="M1372.5,174l5.5,0.5l-5.5,0.5V174z"/>
<path class="st1" d="M1397.5,174l5.5,0.5l-5.5,0.5V174z"/>
<path class="st1" d="M578.5,175l-4,5L578.5,175z"/>
<path class="st1" d="M658.5,175l2.5,0.5l-2.5,0.5V175z"/>
<path class="st1" d="M693.5,175l2.5,0.5l-2.5,0.5V175z"/>
<path class="st1" d="M1367.5,175l2.5,0.5l-2.5,0.5V175z"/>
<path class="st1" d="M1405.5,175l2.5,0.5l-2.5,0.5V175z"/>
<path class="st1" d="M654.5,176l2.5,0.5l-2.5,0.5V176z"/>
<path class="st1" d="M1409.5,176l2.5,0.5l-2.5,0.5V176z"/>
<path class="st1" d="M777.5,177l3,4L777.5,177z"/>
<path class="st1" d="M878.5,177l108.5,0.5L878.5,178V177z"/>
<path class="st1" d="M1285.5,177l-3,4L1285.5,177z"/>
<path class="st1" d="M1473.5,177l-1,2L1473.5,177z"/>
<path class="st1" d="M1544.5,177l108.5,0.5l-108.5,0.5V177z"/>
<path class="st1" d="M1471.5,180l-1,2L1471.5,180z"/>
<path class="st1" d="M573.5,181l-2,3L573.5,181z"/>
<path class="st1" d="M781.5,182l2,3L781.5,182z"/>
<path class="st1" d="M1281.5,182l-2,3L1281.5,182z"/>
<path class="st1" d="M717.5,183l1,2L717.5,183z"/>
<path class="st1" d="M1345.5,183l-1,2l-2,1l1-2L1345.5,183z"/>
<path class="st1" d="M1469.5,183l-0.5,1.5l-1.5,2.5l0.5-1.5L1469.5,183z"/>
<path class="st1" d="M570.5,185l-1,2L570.5,185z"/>
<path class="st1" d="M633.5,185l-1,2L633.5,185z"/>
<path class="st1" d="M722.5,186l1,2L722.5,186z"/>
<path class="st1" d="M784.5,186l1,2L784.5,186z"/>
<path class="st1" d="M1278.5,186l-1,2L1278.5,186z"/>
<path class="st1" d="M1340.5,186l-1,2L1340.5,186z"/>
<path class="st1" d="M630.5,187l-1,2L630.5,187z"/>
<path class="st1" d="M568.5,188l-1,2L568.5,188z"/>
<path class="st1" d="M725.5,188l2,3L725.5,188z"/>
<path class="st1" d="M1337.5,188l-1,2L1337.5,188z"/>
<path class="st1" d="M1466.5,188l-1,2L1466.5,188z"/>
<path class="st1" d="M627.5,189l-2,3L627.5,189z"/>
<path class="st1" d="M786.5,189l1,2L786.5,189z"/>
<path class="st1" d="M1276.5,189l-1,2L1276.5,189z"/>
<path class="st1" d="M1442.5,189l1,2L1442.5,189z"/>
<path class="st1" d="M566.5,191l-1,2L566.5,191z"/>
<path class="st1" d="M729.5,191l11,12L729.5,191z"/>
<path class="st1" d="M1333.5,191l-11,12L1333.5,191z"/>
<path class="st1" d="M1464.5,191l-1,2L1464.5,191z"/>
<path class="st1" d="M623.5,192l-9,10L623.5,192z"/>
<path class="st1" d="M788.5,192l2.5,3.5l-2-1L788.5,192z"/>
<path class="st1" d="M1447.5,192l1,2L1447.5,192z"/>
<path class="st1" d="M1273.5,194l-0.5,1.5l-1.5,2.5l0.5-1.5L1273.5,194z"/>
<path class="st1" d="M1450.5,194l2,3L1450.5,194z"/>
<path class="st1" d="M563.5,196l-0.5,1.5l-1.5,2.5l0.5-1.5L563.5,196z"/>
<path class="st1" d="M1461.5,196l-1,2L1461.5,196z"/>
<path class="st1" d="M1454.5,197l2,3L1454.5,197z"/>
<path class="st1" d="M1459.5,199l-1,2L1459.5,199z"/>
<path class="st1" d="M612.5,204l-2,3L612.5,204z"/>
<path class="st1" d="M741.5,204l2,3L741.5,204z"/>
<path class="st1" d="M558.5,205l0.5,1.5l-1.5,2.5l-0.5-1.5L558.5,205z"/>
<path class="st1" d="M1320.5,205l-1,2L1320.5,205z"/>
<path class="st1" d="M609.5,208l-1,2L609.5,208z"/>
<path class="st1" d="M744.5,208l1,2L744.5,208z"/>
<path class="st1" d="M1318.5,208l-1,2L1318.5,208z"/>
<path class="st1" d="M607.5,211l-1,2L607.5,211z"/>
<path class="st1" d="M746.5,211l2.5,3.5l-2-1L746.5,211z"/>
<path class="st1" d="M1316.5,211l-1,2L1316.5,211z"/>
<path class="st1" d="M551.5,223l0.5,2.5h-1L551.5,223z"/>
<path class="st1" d="M1260.5,224l0.5,2.5h-1L1260.5,224z"/>
<path class="st1" d="M1259.5,228l0.5,2.5h-1L1259.5,228z"/>
<path class="st1" d="M804.5,230l0.5,2.5h-1L804.5,230z"/>
<path class="st1" d="M549.5,231l0.5,2.5h-1L549.5,231z"/>
<path class="st1" d="M1258.5,233l0.5,2.5h-1L1258.5,233z"/>
<path class="st1" d="M805.5,234l0.5,3.5h-1L805.5,234z"/>
<path class="st1" d="M1306.5,234l0.5,2.5h-1L1306.5,234z"/>
<path class="st1" d="M548.5,236l0.5,2.5h-1L548.5,236z"/>
<path class="st1" d="M596.5,236l0.5,2.5h-1L596.5,236z"/>
<path class="st1" d="M1257.5,238l0.5,3.5h-1L1257.5,238z"/>
<path class="st1" d="M1305.5,238l0.5,2.5h-1L1305.5,238z"/>
<path class="st1" d="M806.5,240l0.5,3.5h-1L806.5,240z"/>
<path class="st1" d="M547.5,241l0.5,5.5h-1L547.5,241z"/>
<path class="st1" d="M595.5,241l0.5,2.5h-1L595.5,241z"/>
<path class="st1" d="M758.5,241l0.5,3.5h-1L758.5,241z"/>
<path class="st1" d="M878.5,241h96l1.5,1.5V282h-97.5v-1H975v-39h-96.5V241z"/>
<path class="st1" d="M1544.5,241h96l1.5,1.5V282h-97.5v-1h96.5v-39h-96.5V241z"/>
<path class="st1" d="M1304.5,243l0.5,3.5h-1L1304.5,243z"/>
<path class="st1" d="M1256.5,245l0.5,7.5h-1L1256.5,245z"/>
<path class="st1" d="M594.5,246l0.5,5.5h-1L594.5,246z"/>
<path class="st1" d="M759.5,247l0.5,4.5h-1L759.5,247z"/>
<path class="st1" d="M807.5,247l0.5,7.5h-1L807.5,247z"/>
<path class="st1" d="M546.5,249l0.5,29.5h-1L546.5,249z"/>
<path class="st1" d="M1303.5,250l0.5,24.5h-1L1303.5,250z"/>
<path class="st1" d="M593.5,255l0.5,18.5h-1L593.5,255z"/>
<path class="st1" d="M760.5,256l0.5,16.5h-1L760.5,256z"/>
<path class="st1" d="M1255.5,259l0.5,8.5h-1L1255.5,259z"/>
<path class="st1" d="M807.5,273l0.5,8.5h-1L807.5,273z"/>
<path class="st1" d="M1256.5,274l0.5,7.5h-1L1256.5,274z"/>
<path class="st1" d="M759.5,276l0.5,5.5h-1L759.5,276z"/>
<path class="st1" d="M594.5,277l0.5,4.5h-1L594.5,277z"/>
<path class="st1" d="M1304.5,278l0.5,3.5h-1L1304.5,278z"/>
<path class="st1" d="M1050.5,281l96.5,0.5l-97,0.5l-0.5,109l-0.5-108.5L1050.5,281z"/>
<path class="st1" d="M547.5,282l0.5,4.5h-1L547.5,282z"/>
<path class="st1" d="M595.5,284l0.5,3.5h-1L595.5,284z"/>
<path class="st1" d="M758.5,284l0.5,2.5h-1L758.5,284z"/>
<path class="st1" d="M806.5,284l0.5,4.5h-1L806.5,284z"/>
<path class="st1" d="M1305.5,284l0.5,2.5h-1L1305.5,284z"/>
<path class="st1" d="M1257.5,285l0.5,3.5h-1L1257.5,285z"/>
<path class="st1" d="M548.5,289l0.5,3.5h-1L548.5,289z"/>
<path class="st1" d="M596.5,289l0.5,2.5h-1L596.5,289z"/>
<path class="st1" d="M757.5,289l0.5,2.5h-1L757.5,289z"/>
<path class="st1" d="M805.5,291l0.5,2.5h-1L805.5,291z"/>
<path class="st1" d="M1258.5,291l0.5,3.5h-1L1258.5,291z"/>
<path class="st1" d="M597.5,293l0.5,2.5h-1L597.5,293z"/>
<path class="st1" d="M549.5,295l0.5,2.5h-1L549.5,295z"/>
<path class="st1" d="M804.5,296l0.5,2.5h-1L804.5,296z"/>
<path class="st1" d="M1259.5,296l0.5,2.5h-1L1259.5,296z"/>
<path class="st1" d="M550.5,299l0.5,2.5h-1L550.5,299z"/>
<path class="st1" d="M803.5,300l0.5,2.5h-1L803.5,300z"/>
<path class="st1" d="M1311.5,304l1.5,3.5h-1L1311.5,304z"/>
<path class="st1" d="M602.5,307l3.5,6.5l-2-1L602.5,307z"/>
<path class="st1" d="M750.5,309l0.5,1.5l-2,1L750.5,309z"/>
<path class="st1" d="M1314.5,311l2.5,3.5l-2-1L1314.5,311z"/>
<path class="st1" d="M607.5,317l1,2L607.5,317z"/>
<path class="st1" d="M746.5,317l-1,2L746.5,317z"/>
<path class="st1" d="M797.5,318l0.5,1.5l-1.5,2.5l-0.5-1.5L797.5,318z"/>
<path class="st1" d="M1318.5,318l2,3L1318.5,318z"/>
<path class="st1" d="M609.5,320l1,2L609.5,320z"/>
<path class="st1" d="M744.5,320l-1,2L744.5,320z"/>
<path class="st1" d="M1321.5,322l2,3L1321.5,322z"/>
<path class="st1" d="M1462.5,322l1.5,0.5l-2.5,1.5L1462.5,322z"/>
<path class="st1" d="M559.5,324l2.5,4.5l-2-1L559.5,324z"/>
<path class="st1" d="M612.5,324l3,4L612.5,324z"/>
<path class="st1" d="M741.5,324l-2,3L741.5,324z"/>
<path class="st1" d="M1464.5,324l1,2L1464.5,324z"/>
<path class="st1" d="M1324.5,326l10,11L1324.5,326z"/>
<path class="st1" d="M1456.5,327l-3,4L1456.5,327z"/>
<path class="st1" d="M1467.5,328l1,2L1467.5,328z"/>
<path class="st1" d="M791.5,331l-0.5,1.5l-1.5,2.5l0.5-1.5L791.5,331z"/>
<path class="st1" d="M1469.5,331l2,3L1469.5,331z"/>
<path class="st1" d="M1272.5,332l2.5,3.5l-2-1L1272.5,332z"/>
<path class="st1" d="M1450.5,332l-1,2L1450.5,332z"/>
<path class="st1" d="M564.5,334l2.5,3.5l-2-1L564.5,334z"/>
<path class="st1" d="M622.5,334l3,4L622.5,334z"/>
<path class="st1" d="M1447.5,334l-2,3L1447.5,334z"/>
<path class="st1" d="M730.5,335l-3,4L730.5,335z"/>
<path class="st1" d="M1472.5,335l1,2L1472.5,335z"/>
<path class="st1" d="M1275.5,337l1,2L1275.5,337z"/>
<path class="st1" d="M1336.5,337l2,3L1336.5,337z"/>
<path class="st1" d="M627.5,338l2,3L627.5,338z"/>
<path class="st1" d="M787.5,338l-1,2L787.5,338z"/>
<path class="st1" d="M1441.5,338l-1,2L1441.5,338z"/>
<path class="st1" d="M567.5,339l1,2L567.5,339z"/>
<path class="st1" d="M725.5,339l-1,2L725.5,339z"/>
<path class="st1" d="M1475.5,339l1,2L1475.5,339z"/>
<path class="st1" d="M1340.5,340l1,2L1340.5,340z"/>
<path class="st1" d="M631.5,341l1,2L631.5,341z"/>
<path class="st1" d="M722.5,341l-1,2L722.5,341z"/>
<path class="st1" d="M785.5,341l-2,3L785.5,341z"/>
<path class="st1" d="M1436.5,341l-1,2l-3,1v-1L1436.5,341z"/>
<path class="st1" d="M569.5,342l1,2L569.5,342z"/>
<path class="st1" d="M1278.5,342l2,3L1278.5,342z"/>
<path class="st1" d="M1343.5,342l1,2L1343.5,342z"/>
<path class="st1" d="M1477.5,342l2,3L1477.5,342z"/>
<path class="st1" d="M719.5,343l-1,2l-2,1l1-2L719.5,343z"/>
<path class="st1" d="M782.5,345l-1,2L782.5,345z"/>
<path class="st1" d="M572.5,346l2,3L572.5,346z"/>
<path class="st1" d="M1281.5,346l2,3L1281.5,346z"/>
<path class="st1" d="M1480.5,346l1,2L1480.5,346z"/>
<path class="st1" d="M779.5,349l-3,4L779.5,349z"/>
<path class="st1" d="M575.5,350l5,6L575.5,350z"/>
<path class="st1" d="M1284.5,350l3,4L1284.5,350z"/>
<path class="st1" d="M1483.5,350l1,2L1483.5,350z"/>
<path class="st1" d="M1411.5,351l2.5,0.5l-2.5,0.5V351z"/>
<path class="st1" d="M1544.5,351l114.5,0.5l-114.5,0.5V351z"/>
<path class="st1" d="M656.5,352l2.5,0.5l-2.5,0.5V352z"/>
<path class="st1" d="M1366.5,352l2.5,0.5l-2.5,0.5V352z"/>
<path class="st1" d="M1407.5,352l2.5,0.5l-2.5,0.5V352z"/>
<path class="st1" d="M661.5,353l3.5,0.5l-3.5,0.5V353z"/>
<path class="st1" d="M690.5,353l3.5,0.5l-3.5,0.5V353z"/>
<path class="st1" d="M1371.5,353l3.5,0.5l-3.5,0.5V353z"/>
<path class="st1" d="M1401.5,353l3.5,0.5l-3.5,0.5V353z"/>
<path class="st1" d="M667.5,354l19.5,0.5l-19.5,0.5V354z"/>
<path class="st1" d="M1377.5,354l21.5,0.5l-21.5,0.5V354z"/>
<path class="st1" d="M1485.5,355l-4,5L1485.5,355z"/>
<path class="st1" d="M773.5,356l-5,6L773.5,356z"/>
<path class="st1" d="M1291.5,358l3,4L1291.5,358z"/>
<path class="st1" d="M586.5,361l5,6L586.5,361z"/>
<path class="st1" d="M1477.5,362l-3,4L1477.5,362z"/>
<path class="st1" d="M764.5,364l-3,4L764.5,364z"/>
<path class="st1" d="M1298.5,364l3,4L1298.5,364z"/>
<path class="st1" d="M593.5,367l2,3L593.5,367z"/>
<path class="st1" d="M1471.5,367l-1,2L1471.5,367z"/>
<path class="st1" d="M759.5,368l-2,3L759.5,368z"/>
<path class="st1" d="M1304.5,369l1,2L1304.5,369z"/>
<path class="st1" d="M1468.5,369l-1,2L1468.5,369z"/>
<path class="st1" d="M598.5,371l1,2L598.5,371z"/>
<path class="st1" d="M755.5,371l-1,2L755.5,371z"/>
<path class="st1" d="M1465.5,371l-1,2L1465.5,371z"/>
<path class="st1" d="M1308.5,372l1,2L1308.5,372z"/>
<path class="st1" d="M601.5,373l1,2L601.5,373z"/>
<path class="st1" d="M752.5,373l-1,2L752.5,373z"/>
<path class="st1" d="M1462.5,373l-1,2L1462.5,373z"/>
<path class="st1" d="M1311.5,374l3.5,2.5l-1.5-0.5L1311.5,374z"/>
<path class="st1" d="M749.5,375l-1,2L749.5,375z"/>
<path class="st1" d="M606.5,376l1,2L606.5,376z"/>
<path class="st1" d="M1457.5,376l-1,2l-9,4v-1L1457.5,376z"/>
<path class="st1" d="M1316.5,377l3.5,2.5l-1.5-0.5L1316.5,377z"/>
<path class="st1" d="M742.5,379l-1,2l-5,2v-1L742.5,379z"/>
<path class="st1" d="M714.5,390l2.5,0.5l-2.5,0.5V390z"/>
<path class="st1" d="M1346.5,390l2.5,0.5l-2.5,0.5V390z"/>
<path class="st1" d="M1423.5,390l2.5,0.5l-2.5,0.5V390z"/>
<path class="st1" d="M641.5,391l2.5,0.5l-2.5,0.5V391z"/>
<path class="st1" d="M710.5,391l2.5,0.5l-2.5,0.5V391z"/>
<path class="st1" d="M1350.5,391l2.5,0.5l-2.5,0.5V391z"/>
<path class="st1" d="M646.5,392l2.5,0.5l-2.5,0.5V392z"/>
<path class="st1" d="M705.5,392l3.5,0.5l-3.5,0.5V392z"/>
<path class="st1" d="M1355.5,392l2.5,0.5l-2.5,0.5V392z"/>
<path class="st1" d="M1415.5,392l2.5,0.5l-2.5,0.5V392z"/>
<path class="st1" d="M651.5,393l3.5,0.5l-3.5,0.5V393z"/>
<path class="st1" d="M699.5,393l3.5,0.5l-3.5,0.5V393z"/>
<path class="st1" d="M1360.5,393l3.5,0.5l-3.5,0.5V393z"/>
<path class="st1" d="M1409.5,393l3.5,0.5l-3.5,0.5V393z"/>
<path class="st1" d="M657.5,394l6.5,0.5l-6.5,0.5V394z"/>
<path class="st1" d="M690.5,394l6.5,0.5l-6.5,0.5V394z"/>
<path class="st1" d="M1366.5,394l6.5,0.5l-6.5,0.5V394z"/>
<path class="st1" d="M1400.5,394l6.5,0.5l-6.5,0.5V394z"/>
<path class="st1" d="M668.5,395l17.5,0.5l-17.5,0.5V395z"/>
<path class="st1" d="M1378.5,395l16.5,0.5l-16.5,0.5V395z"/>
<path class="st2" d="M662.5,134h29l1,1h8l24,6c21.5,7.9,39,19.7,52.5,35.5c10.8,12.5,19.1,27.5,25,45l5,23l1,28l-1,1v10l-1,1l-1,11
	l-9,27c-7.5,16.5-17.7,30.3-30.5,41.5c-13.1,11.5-29.1,20.2-48,26l-28,5h-25l-1-1h-8l-11-2l-22-7c-16.4-6.9-30.2-16.4-41.5-28.5
	c-12.1-12.9-21.5-28.5-28-47l-6-28v-34l1-1v-7l2-10l9-25c7.3-15,16.8-27.8,28.5-38.5c10.5-9.5,22.9-17.1,37-23l19-6l18-2L662.5,134z
	 M673,173l-1,1l-13,1l-13,4l-22,13c-10.7,8.7-18.7,19.7-24,33l-4,12l-2,10v8l-1,1v18l4,22l7,17l8,12l21,18l17,8l18,4h19l15-3
	c10-2.7,18.7-7,26-13c9.3-7.3,17-16.7,23-28l7-19l2-10v-8l1-1v-16l-4-23c-3.3-12.7-8.7-23-16-31c-8-10-17.7-17.7-29-23l-21-6
	L673,173z"/>
<path class="st2" d="M1371.5,134h30l26,5c20.7,6.3,37.9,16.1,51.5,29.5l-20.5,31.5c-10.1-8.3-21.7-14.9-35-20l-21-6l-20-1l-1,1
	l-14,1l-16,5c-11.9,5.4-21.8,12.9-29.5,22.5c-7.3,8.7-12.6,19.4-16,32l-3,16v24l4,20l8,19c5.2,9.1,11.7,17,19.5,23.5
	c8.7,7.3,19.4,12.6,32,16l11,2h21l15-3l20-8c10.5-5.1,19.5-11.8,27-20l3.5-1l22,31.5c-7.3,8.1-15.8,14.9-25.5,20.5l-28,13l-24,6h-8
	l-1,1h-26l-28-5l-19-7c-15.2-7.1-28-16.6-38.5-28.5c-12.1-13.5-21.1-30.2-27-50l-4-20l-1-31l1-1v-10l2-11l9-27
	c7.9-16.5,18.4-30.3,31.5-41.5c10.3-8.7,22.3-15.7,36-21l17-5l10-2h8L1371.5,134z"/>
<path class="st2" d="M832,138h154.5l0.5,0.5V177H878v65h97v39h-97v110h-46V138z"/>
<path class="st2" d="M1004,138h153.5l0.5,0.5V177h-109v65h98v39h-96.5l-1.5,1.5V391h-45V138z"/>
<path class="st2" d="M1181,138h44.5l0.5,0.5V391h-44.5l-0.5-0.5V138z"/>
<path class="st2" d="M1498,138h154.5l0.5,0.5V177h-109v65h97v39h-97v71h115v39h-161V138z"/>
<path class="st3" d="M196.5,0l12,1l9.5,7.5c3.7,3.3,5,9,4,17c-1.1,5.5-3.6,9.7-7.5,12.5c-4,4-10.7,5.3-20,4
	c-4.9-1.7-8.8-4.6-11.5-8.5c-3.3-3.7-4.3-9.7-3-18c1.6-5.7,4.8-9.9,9.5-12.5L196.5,0z"/>
<path class="st3" d="M183,62h35.5l0.5,0.5v122l-2,10l-4.5,6.5l-6,3h-18l-4.5-3.5l-1-3V62z"/>
<path class="st3" d="M75.5,136c36.3-0.3,63.5,8.5,81.5,26.5l4,8v21c-0.8,3.1-3.6,4.3-8.5,3.5c-9.4-7.6-20.1-13.9-32-19l-22-6l-17-1
	l-1,1h-10l-12,3c-6.5,2.5-11.6,6.4-15.5,11.5c-2.8,3.2-3.8,8.2-3,15c1.5,4.5,4,8,7.5,10.5l12,6l74,24l16,8l12.5,10.5l9,18
	c-0.8,3.1-0.5,5.1,1,6v18c-2.7,14.3-8.5,25.5-17.5,33.5c-8.6,8.4-19.6,14.4-33,18l-15,3h-8l-1,1h-22l-1-1h-8l-15-3l-21-7
	c-10.8-4.2-19.6-10.4-26.5-18.5l-4-7v-22l1-2.5l5.5-1l39,21l14,5l15,3h25l15-4l12.5-8.5c3.5-3.5,5.2-8.8,5-16
	c-1-5.7-3.5-9.8-7.5-12.5l-19-9l-44-13l-27-10c-9.7-4.3-17.8-10.2-24.5-17.5c-4.7-5.3-8.1-11.9-10-20v-22
	c3.3-15.3,10.2-27.2,20.5-35.5c6.5-5.5,14.2-9.8,23-13l15-4l16-1L75.5,136z"/>
<path class="st4" d="M1730,137h46v106h115V137h47v253.5l-0.5,0.5H1891V284h-115v107h-46V137z"/>
<path class="st4" d="M1968,137h107.5c1.2,1.9,3.9,2.2,8,1c19.5,3.9,34.7,12,45.5,24.5c7.3,8.1,12.6,18.1,16,30l2,10v8l1,1v13l-1,1
	l-1,14l-5,16c-4.8,10.5-11.3,19.4-19.5,26.5c-5.1,5.2-11.6,9-19.5,11.5l57,92l2,5.5h-51.5l-2.5-2.5l-52-87.5h-40v90h-47V137z
	 M2015,178v82h50l12-3l9-5l8-9l5-12c-0.7-3.3-0.3-5.3,1-6c0.7-14-1.7-24.7-7-32c-5.3-8-13.7-13-25-15H2015z"/>
<path class="st3" d="M282.5,150h29l5,1c11,2.3,20,6.7,27,13c6.6-6.1,14.9-10.4,25-13c3.1,0.9,5.1,0.5,6-1h28l16,4
	c7.8,3.2,14.3,7.7,19.5,13.5l8,14l4,18v11l1,1v64l-2,10l-5.5,7.5c-4.8,3.2-11.8,4.2-21,3l-5.5-2l-2-3.5v-80l-1-1v-9l-4-14l-5.5-7.5
	c-4.5-4.5-11.5-6.5-21-6c-6.8,1.2-12,4-15.5,8.5l-5,9l-2,9v10l-1,1v71c-0.9,5.1-3.1,8.9-6.5,11.5c-4.8,3.2-11.8,4.2-21,3l-4-1
	l-2.5-2.5l-2-7v-83l-3-12l-7.5-11.5c-4.8-4.9-12.8-6.5-24-5c-5.5,1.5-9.7,4.3-12.5,8.5l-5,12l-2,10V293h-36v-87.5l1-1l1-12l4-12
	c3.7-7.9,8.9-14.4,15.5-19.5l12-7L282.5,150z"/>
<path class="st5" d="M213.5,316h34l11,2c13.4,3.3,23.9,9.4,31.5,18.5c6.3,7.3,11,16.3,14,27l2,11v30l-1,1l-1,11l-4,13
	c-3.2,7.8-7.7,14.3-13.5,19.5c-7.4,6.3-16.7,10.6-28,13l-14,1l-1,1h-21l-1-1l-12-1l-11-4l-0.5,65h-36.5l-0.5-0.5v-145l1-1l1-17l3-10
	c3.5-9.5,9-17,16.5-22.5l11-6L213.5,316z M225,340l-14,6l-9,14l-4,18v44l4,10l11,6l15,1l1,1l14-1l12-5l9-11l4-11l1-12l1-1v-17l-1-1
	l-1-11l-8-17C253.3,343,241.7,338.7,225,340z"/>
<path class="st5" d="M438.5,316h30l10,2c14.4,3.9,25.6,11.1,33.5,21.5c4.7,6,7.3,14,8,24l-3,15c-2.1,5.2-5.3,9.4-9.5,12.5l-15,8
	l-21,5l-20,1l-1,1H414c1.9,7.3,4.9,13.3,9,18l6.5,5l15,6c3.1-0.9,5.1-0.5,6,1h28l14-3l17-9h4l2.5,2.5v17l-5.5,8.5l-6,4l-19,6l-16,1
	l-1,1h-21l-1-1l-13-1l-18-6c-10.3-5-18.8-11.8-25.5-20.5l-10-18l-3-11l-1-5v-27c2.9-17.7,10.1-31.2,21.5-40.5l19-12L438.5,316z
	 M447,339c-8,1.3-14.3,4-19,8c-10.7,7.3-16,19.7-16,37h36l1-1h9l15-4l3-2c3.3-2.7,5.7-6.3,7-11c0.7-7.3-0.3-12.3-3-15
	C474,341.7,463,337.7,447,339z"/>
<path class="st5" d="M324,369h34.5l0.5,0.5v149l3,10l5.5,5.5l11,3h15l1.5,1.5v20l-3.5,3.5l-4,1h-26l-15-3
	c-5.8-2.1-10.6-5.3-14.5-9.5l-5-8l-3-13V369z"/>
</svg>
