<svg enable-background="new 0 0 512 512" height="512" viewBox="0 0 512 512" width="512" xmlns="http://www.w3.org/2000/svg" xmlns:xlink="http://www.w3.org/1999/xlink"><linearGradient id="SVGID_1_" gradientUnits="userSpaceOnUse" x1="256.038" x2="256.038" y1="454.135" y2="108.676"><stop offset="0" stop-color="#00c900"/><stop offset="1" stop-color="#07fafa"/></linearGradient><linearGradient id="lg1"><stop offset="0" stop-color="#e2dec3"/><stop offset=".9944" stop-color="#fff"/></linearGradient><linearGradient id="SVGID_2_" gradientUnits="userSpaceOnUse" x1="150.16" x2="150.16" xlink:href="#lg1" y1="417.617" y2="57.878"/><linearGradient id="SVGID_3_" gradientUnits="userSpaceOnUse" x1="361.914" x2="361.914" xlink:href="#lg1" y1="417.617" y2="57.878"/><g id="_x31_1_Knowledge"><g><path d="m503.044 133.015v260.271c0 13.442-10.897 24.34-24.34 24.34h-186.116c0 20.202-16.389 36.509-36.591 36.509-20.121 0-36.509-16.308-36.509-36.509h-186.116c-13.442 0-24.34-10.897-24.34-24.34v-260.271c0-13.442 10.897-24.34 24.34-24.34h445.333c13.442.001 24.339 10.898 24.339 24.34z" fill="url(#SVGID_1_)"/><path d="m256.037 114.346v303.271c0-31.236-25.232-56.468-56.387-56.468h-155.367v-303.271h155.367c31.155 0 56.387 25.232 56.387 56.468z" fill="url(#SVGID_2_)"/><path d="m256.037 114.346v303.271c0-31.236 25.232-56.468 56.387-56.468h155.367v-303.271h-155.367c-31.155 0-56.387 25.232-56.387 56.468z" fill="url(#SVGID_3_)"/><g fill="#1e2e49"><path d="m33.38 425.599h178.874c3.766 20.729 21.951 36.494 43.746 36.494 21.842 0 40.058-15.765 43.831-36.494h178.874c17.796 0 32.269-14.512 32.269-32.346v-260.235c0-17.796-14.473-32.269-32.269-32.269h-2.949v-42.873c0-4.404-3.564-7.968-7.968-7.968h-155.367c-24.264 0-45.421 13.527-56.382 33.436-10.962-19.909-32.121-33.436-56.39-33.436h-155.367c-4.404 0-7.968 3.564-7.968 7.968v42.874h-2.934c-17.842 0-32.354 14.473-32.354 32.269v260.234c0 17.834 14.512 32.346 32.354 32.346zm279.041-359.756h147.399v287.336h-147.399c-19.282 0-36.61 8.536-48.415 22.029v-260.864c.001-26.744 21.718-48.501 48.415-48.501zm-112.772 0c41.826 0 49.381 45.299 48.064 42.874.739 7.749.172-16.257.358 266.498-11.804-13.5-29.133-22.036-48.422-22.036h-147.399c0-72.72 0-214.737 0-287.336zm-182.687 67.175c0-9.003 7.369-16.333 16.418-16.333h2.934v244.461c0 4.404 3.564 7.968 7.968 7.968h155.367c26.697 0 48.422 21.756 48.422 48.5 0 4.404 3.564 7.968 7.968 7.968s7.968-3.564 7.968-7.968c0-26.744 21.717-48.5 48.415-48.5h155.367c4.404 0 7.968-3.564 7.968-7.968v-244.46h2.949c9.003 0 16.333 7.33 16.333 16.333v260.234c0 9.05-7.33 16.411-16.333 16.411h-186.127c-4.404 0-7.968 3.564-7.968 7.968 0 15.726-12.831 28.526-28.611 28.526-15.726 0-28.526-12.8-28.526-28.526 0-4.404-3.564-7.968-7.968-7.968h-186.126c-9.05 0-16.418-7.361-16.418-16.411z"/><path d="m134.536 125.05h31.218c4.404 0 7.968-3.564 7.968-7.968s-3.564-7.968-7.968-7.968h-31.218c-4.404 0-7.968 3.564-7.968 7.968s3.564 7.968 7.968 7.968z"/><path d="m95.256 171.247h109.777c4.404 0 7.968-3.564 7.968-7.968s-3.564-7.968-7.968-7.968h-109.777c-4.404 0-7.968 3.564-7.968 7.968s3.564 7.968 7.968 7.968z"/><path d="m95.256 217.452h109.777c4.404 0 7.968-3.564 7.968-7.968s-3.564-7.968-7.968-7.968h-109.777c-4.404 0-7.968 3.564-7.968 7.968s3.564 7.968 7.968 7.968z"/><path d="m134.536 247.713c-4.404 0-7.968 3.564-7.968 7.968s3.564 7.968 7.968 7.968h31.218c4.404 0 7.968-3.564 7.968-7.968s-3.564-7.968-7.968-7.968z"/><path d="m95.256 309.854h109.777c4.404 0 7.968-3.564 7.968-7.968s-3.564-7.968-7.968-7.968h-109.777c-4.404 0-7.968 3.564-7.968 7.968s3.564 7.968 7.968 7.968z"/><path d="m345.701 125.05h32.424c4.404 0 7.968-3.564 7.968-7.968s-3.564-7.968-7.968-7.968h-32.424c-4.404 0-7.968 3.564-7.968 7.968s3.564 7.968 7.968 7.968z"/><path d="m307.021 171.247h109.785c4.404 0 7.968-3.564 7.968-7.968s-3.564-7.968-7.968-7.968h-109.785c-4.404 0-7.968 3.564-7.968 7.968s3.564 7.968 7.968 7.968z"/><path d="m307.021 217.452h109.785c4.404 0 7.968-3.564 7.968-7.968s-3.564-7.968-7.968-7.968h-109.785c-4.404 0-7.968 3.564-7.968 7.968s3.564 7.968 7.968 7.968z"/><path d="m345.701 247.713c-4.404 0-7.968 3.564-7.968 7.968s3.564 7.968 7.968 7.968h32.424c4.404 0 7.968-3.564 7.968-7.968s-3.564-7.968-7.968-7.968z"/><path d="m307.021 309.854h109.785c4.404 0 7.968-3.564 7.968-7.968s-3.564-7.968-7.968-7.968h-109.785c-4.404 0-7.968 3.564-7.968 7.968s3.564 7.968 7.968 7.968z"/></g></g></g></svg>