<svg enable-background="new 0 0 512 512" height="512" viewBox="0 0 512 512" width="512" xmlns="http://www.w3.org/2000/svg" xmlns:xlink="http://www.w3.org/1999/xlink"><linearGradient id="SVGID_1_" gradientUnits="userSpaceOnUse" x1="256.003" x2="256.003" y1="447.926" y2="8.993"><stop offset="0" stop-color="#00c900"/><stop offset="1" stop-color="#07fafa"/></linearGradient><linearGradient id="lg1"><stop offset="0" stop-color="#e2dec3"/><stop offset=".9944" stop-color="#fff"/></linearGradient><linearGradient id="SVGID_2_" gradientUnits="userSpaceOnUse" x1="198.634" x2="198.634" xlink:href="#lg1" y1="133.234" y2="8.993"/><linearGradient id="SVGID_3_" gradientUnits="userSpaceOnUse" x1="256.003" x2="256.003" xlink:href="#lg1" y1="503.005" y2="392.963"/><g id="_x30_5_Book"><g><path d="m434.402 8.993v383.97h-301.834c-30.431 0-54.963 24.687-54.963 54.963v-383.969c0-30.277 24.532-54.964 54.963-54.964z" fill="url(#SVGID_1_)"/><path d="m235.535 8.993h-73.802v124.241l36.901-24.085 36.901 24.085z" fill="url(#SVGID_2_)"/><path d="m434.445 503.005v-110.042h-301.863c-30.387 0-55.021 24.634-55.021 55.021 0 30.387 24.634 55.021 55.021 55.021z" fill="url(#SVGID_3_)"/><path d="m132.579 510.974h301.863c4.404 0 7.968-3.564 7.968-7.968-.009-118.228-.029-373.381-.039-494.012 0-4.404-3.564-7.968-7.968-7.968-87.605 0-164.148 0-301.832 0-34.704 0-62.934 28.23-62.934 62.934 0 1.336-.047 382.643-.047 384.025 0 34.735 28.254 62.989 62.989 62.989zm0-15.936c-25.897 0-46.972-21.038-47.046-46.918.356-.797 2.077-47.188 47.046-47.188h293.895v39.023h-270.272c-4.404 0-7.968 3.564-7.968 7.968s3.564 7.968 7.968 7.968h270.272v39.147zm94.985-478.076v101.56l-24.573-16.045c-2.645-1.727-6.053-1.738-8.715 0l-24.573 16.045v-101.56zm-141.991 389.153v-342.155c0-25.911 21.087-46.998 46.998-46.998h21.196v116.274c0 6.369 7.06 10.101 12.325 6.668l32.541-21.243 32.541 21.243c5.247 3.426 12.325-.283 12.325-6.668v-116.274h182.936v368.034h-293.856-.008c-.035 0-.068.005-.103.005-18.331.033-35.484 8.29-46.895 21.114z" fill="#1e2e49"/></g></g></svg>