<?xml version="1.0" encoding="UTF-8"?>
<svg id="Layer_2" xmlns="http://www.w3.org/2000/svg" version="1.1" xmlns:xlink="http://www.w3.org/1999/xlink" viewBox="0 0 295 50.6">
  <!-- Generator: Adobe Illustrator 29.0.0, SVG Export Plug-In . SVG Version: 2.1.0 Build 186)  -->
  <defs>
    <style>
      .st0 {
        fill: #73d1f6;
      }

      .st1 {
        fill: #94daf8;
      }

      .st2 {
        fill: #e0f3fd;
      }

      .st3 {
        fill: #00b4ea;
      }

      .st4 {
        fill: #f7fcfe;
      }

      .st5 {
        fill: #9bdcf9;
      }

      .st6 {
        fill: #fff;
      }

      .st7 {
        fill: #88d6f8;
      }

      .st8 {
        fill: #0095d7;
      }

      .st9 {
        fill: #bee7fb;
      }

      .st10 {
        fill: #0099d9;
      }

      .st11 {
        fill: #00a7e2;
      }

      .st12 {
        fill: #008acf;
      }

      .st13 {
        fill: #12bdf0;
      }

      .st14 {
        fill: #4ac9f5;
      }

      .st15 {
        fill: none;
      }

      .st16 {
        fill: #6ccff6;
      }

      .st17 {
        fill: #00a5e1;
      }

      .st18 {
        fill: #f1fafe;
      }

      .st19 {
        fill: #00ade6;
      }

      .st20 {
        fill: #20c4f4;
      }

      .st21 {
        fill: #00a3df;
      }

      .st22 {
        fill: #65cdf6;
      }

      .st23 {
        fill: #1bc0f1;
      }

      .st24 {
        fill: #0090d3;
      }

      .st25 {
        fill: #c4e9fb;
      }

      .st26 {
        fill: #00a9e3;
      }

      .st27 {
        fill: #0091d4;
      }

      .st28 {
        fill: #54caf5;
      }

      .st29 {
        fill: #0087cd;
      }

      .st30 {
        fill: #caebfc;
      }

      .st31 {
        fill: #03bbee;
      }

      .st32 {
        fill: #7ad2f7;
      }

      .st33 {
        fill: #b9e5fa;
      }

      .st34 {
        fill: #009ddc;
      }

      .st35 {
        fill: #009fdd;
      }

      .st36 {
        fill: #00b2e9;
      }

      .st37 {
        fill: #008cd0;
      }

      .st38 {
        fill: #b3e3fa;
      }

      .st39 {
        fill: #0083ca;
      }

      .st40 {
        fill: #40c7f4;
      }

      .st41 {
        fill: #0093d5;
      }

      .st42 {
        fill: #00b9ed;
      }

      .st43 {
        fill: #ade1fa;
      }

      .st44 {
        fill: #00abe5;
      }

      .st45 {
        fill: #8ed8f8;
      }

      .st46 {
        fill: #00b0e7;
      }

      .st47 {
        fill: #009bda;
      }

      .st48 {
        fill: #cfedfc;
      }

      .st49 {
        fill: #32c5f4;
      }

      .st50 {
        fill: #e6f5fd;
      }

      .st51 {
        fill: #00a1de;
      }

      .st52 {
        fill: #5dccf5;
      }

      .st53 {
        fill: #a1ddf9;
      }

      .st54 {
        fill: #0088ce;
      }

      .st55 {
        fill: #a7dff9;
      }

      .st56 {
        fill: #d5effc;
      }

      .st57 {
        fill: #dbf1fd;
      }

      .st58 {
        fill: #00b6eb;
      }

      .st59 {
        fill: #81d4f7;
      }

      .st60 {
        fill: #ebf7fe;
      }

      .st61 {
        fill: #008ed2;
      }

      .st62 {
        clip-path: url(#clippath);
      }

      .st63 {
        fill: #0085cc;
      }

      .st64 {
        fill: #0097d8;
      }
    </style>
    <clipPath id="clippath">
      <path class="st15" d="M25.3,49.4c13.3,0,24.1-10.8,24.1-24.1S38.6,1.2,25.3,1.2,1.2,12,1.2,25.3s10.8,24.1,24.1,24.1Z"/>
    </clipPath>
  </defs>
  <g>
    <path class="st6" d="M50.6,25.3c0,14-11.3,25.3-25.3,25.3S0,39.3,0,25.3,11.3,0,25.3,0s25.3,11.3,25.3,25.3Z"/>
    <path class="st39" d="M25.3,49.4c13.3,0,24.1-10.8,24.1-24.1S38.6,1.2,25.3,1.2c-13.3,0-24.1,10.8-24.1,24.1s10.8,24.1,24.1,24.1Z"/>
    <g class="st62">
      <g>
        <path class="st39" d="M25.5,36.9c10.6,0,19.7,3,23.6,7.1,1.3-3,2-6.3,2-9.7,0-13.8-11.5-25-25.6-25-14.1,0-25.6,11.2-25.6,25s.7,6.7,2,9.7c3.9-4.2,13-7.1,23.5-7.1Z"/>
        <path class="st63" d="M25.5,36.9c10.6,0,19.6,2.9,23.5,7.1,1.3-3,2-6.2,2-9.7,0-13.7-11.4-24.9-25.5-24.9-14.1,0-25.5,11.1-25.5,24.9s.7,6.7,2,9.7c3.9-4.2,12.9-7.1,23.5-7.1Z"/>
        <path class="st29" d="M25.5,37c10.5,0,19.6,2.9,23.4,7,1.3-2.9,2-6.2,2-9.6,0-13.6-11.4-24.7-25.4-24.7-14,0-25.4,11.1-25.4,24.7s.7,6.6,2,9.6c3.9-4.1,12.9-7,23.4-7Z"/>
        <path class="st54" d="M25.5,37c10.5,0,19.5,2.9,23.4,7,1.3-2.9,2-6.1,2-9.5,0-13.5-11.4-24.5-25.4-24.5-14,0-25.4,11-25.4,24.5s.7,6.6,2,9.5c3.9-4.1,12.9-7,23.4-7Z"/>
        <path class="st12" d="M25.5,37c10.5,0,19.5,2.9,23.3,6.9,1.3-2.9,2-6.1,2-9.4,0-13.4-11.3-24.4-25.3-24.4-14,0-25.3,11-25.3,24.4s.7,6.5,2,9.4c3.9-4.1,12.8-6.9,23.3-6.9Z"/>
        <path class="st37" d="M25.5,37.1c10.5,0,19.4,2.8,23.3,6.9,1.3-2.9,2-6,2-9.4,0-13.3-11.3-24.2-25.2-24.2-13.9,0-25.2,10.9-25.2,24.2s.7,6.5,2,9.3c3.8-4,12.8-6.9,23.2-6.9Z"/>
        <path class="st61" d="M25.5,37.1c10.4,0,19.4,2.8,23.2,6.8,1.3-2.8,2-6,2-9.3,0-13.2-11.3-24-25.2-24-13.9,0-25.2,10.9-25.2,24s.7,6.4,2,9.3c3.8-4,12.8-6.8,23.2-6.8Z"/>
        <path class="st24" d="M25.5,37.1c10.4,0,19.3,2.8,23.1,6.7,1.3-2.8,2-5.9,2-9.2,0-13.1-11.3-23.9-25.1-23.9S.4,21.6.4,34.7s.7,6.4,2,9.2c3.8-4,12.7-6.7,23.1-6.7Z"/>
        <path class="st27" d="M25.5,37.1c10.4,0,19.3,2.8,23.1,6.7,1.3-2.8,2-5.9,2-9.1,0-12.9-11.2-23.7-25-23.7-13.8,0-25,10.8-25,23.7s.7,6.3,2,9.1c3.8-3.9,12.7-6.7,23.1-6.7Z"/>
        <path class="st41" d="M25.5,37.2c10.4,0,19.2,2.7,23,6.6,1.3-2.8,2-5.8,2-9,0-12.8-11.2-23.5-25-23.5-13.8,0-25,10.7-25,23.5s.7,6.3,2,9c3.8-3.9,12.7-6.6,23-6.6Z"/>
        <path class="st8" d="M25.5,37.2c10.3,0,19.2,2.7,23,6.6,1.3-2.7,2-5.8,2-9,0-12.7-11.2-23.4-24.9-23.4S.6,22.1.6,34.8s.7,6.2,2,9c3.8-3.9,12.6-6.6,22.9-6.6Z"/>
        <path class="st64" d="M25.5,37.2c10.3,0,19.1,2.7,22.9,6.5,1.3-2.7,2-5.7,2-8.9,0-12.6-11.1-23.2-24.9-23.2-13.7,0-24.8,10.6-24.8,23.2s.7,6.2,2,8.9c3.8-3.8,12.6-6.5,22.9-6.5Z"/>
        <path class="st10" d="M25.5,37.2c10.3,0,19.1,2.7,22.8,6.5,1.3-2.7,2-5.7,2-8.8,0-12.5-11.1-23-24.8-23-13.7,0-24.8,10.5-24.8,23s.7,6.1,2,8.8c3.8-3.8,12.6-6.5,22.8-6.5Z"/>
        <path class="st47" d="M25.5,37.3c10.2,0,19,2.6,22.8,6.4,1.3-2.7,1.9-5.6,1.9-8.7,0-12.4-11.1-22.9-24.7-22.9-13.6,0-24.7,10.5-24.7,22.9s.7,6.1,2,8.7c3.8-3.7,12.5-6.4,22.8-6.4Z"/>
        <path class="st34" d="M25.5,37.3c10.2,0,19,2.6,22.7,6.3,1.3-2.6,1.9-5.6,1.9-8.7,0-12.3-11-22.7-24.7-22.7-13.6,0-24.6,10.4-24.6,22.7s.7,6,1.9,8.6c3.7-3.7,12.5-6.3,22.7-6.3Z"/>
        <path class="st35" d="M25.5,37.3c10.2,0,18.9,2.6,22.7,6.3,1.3-2.6,1.9-5.5,1.9-8.6,0-12.2-11-22.5-24.6-22.5-13.6,0-24.6,10.4-24.6,22.5s.7,6,1.9,8.6c3.7-3.7,12.5-6.3,22.6-6.3Z"/>
        <path class="st51" d="M25.5,37.3c10.2,0,18.9,2.6,22.6,6.2,1.2-2.6,1.9-5.5,1.9-8.5,0-12-11-22.4-24.5-22.4-13.5,0-24.5,10.3-24.5,22.4s.7,5.9,1.9,8.5c3.7-3.6,12.4-6.2,22.6-6.2Z"/>
        <path class="st21" d="M25.5,37.4c10.1,0,18.8,2.5,22.5,6.2,1.2-2.6,1.9-5.4,1.9-8.4,0-11.9-11-22.2-24.5-22.2-13.5,0-24.4,10.3-24.4,22.2s.7,5.8,1.9,8.4c3.7-3.6,12.4-6.2,22.5-6.2Z"/>
        <path class="st17" d="M25.5,37.4c10.1,0,18.8,2.5,22.5,6.1,1.2-2.5,1.9-5.4,1.9-8.3,0-11.8-10.9-22-24.4-22-13.4,0-24.4,10.2-24.4,22s.7,5.8,1.9,8.3c3.7-3.6,12.4-6.1,22.5-6.1Z"/>
        <path class="st11" d="M25.5,37.4c10.1,0,18.7,2.5,22.4,6,1.2-2.5,1.9-5.3,1.9-8.3,0-11.7-10.9-21.9-24.3-21.9-13.4,0-24.3,10.1-24.3,21.9s.7,5.7,1.9,8.3c3.7-3.5,12.3-6,22.4-6Z"/>
        <path class="st26" d="M25.5,37.5c10.1,0,18.7,2.5,22.3,6,1.2-2.5,1.9-5.3,1.9-8.2,0-11.6-10.9-21.7-24.3-21.7-13.4,0-24.3,10.1-24.3,21.7s.7,5.7,1.9,8.2c3.7-3.5,12.3-6,22.3-6Z"/>
        <path class="st44" d="M25.5,37.5c10,0,18.6,2.4,22.3,5.9,1.2-2.5,1.9-5.2,1.9-8.1,0-11.5-10.8-21.5-24.2-21.5-13.3,0-24.2,10-24.2,21.5s.7,5.6,1.9,8.1c3.7-3.5,12.3-5.9,22.3-5.9Z"/>
        <path class="st19" d="M25.5,37.5c10,0,18.6,2.4,22.2,5.9,1.2-2.4,1.9-5.2,1.9-8,0-11.4-10.8-21.4-24.1-21.4-13.3,0-24.1,10-24.1,21.4s.7,5.6,1.9,8c3.7-3.4,12.2-5.9,22.2-5.9Z"/>
        <path class="st46" d="M25.5,37.5c10,0,18.5,2.4,22.2,5.8,1.2-2.4,1.9-5.1,1.9-7.9,0-11.3-10.8-21.2-24.1-21.2-13.3,0-24.1,9.9-24.1,21.2s.7,5.5,1.9,7.9c3.7-3.4,12.2-5.8,22.2-5.8Z"/>
        <path class="st36" d="M25.4,37.6c9.9,0,18.5,2.4,22.1,5.8,1.2-2.4,1.9-5.1,1.9-7.9,0-11.2-10.7-21-24-21-13.2,0-24,9.9-24,21s.7,5.5,1.9,7.9c3.6-3.4,12.2-5.8,22.1-5.8Z"/>
        <path class="st3" d="M25.4,37.6c9.9,0,18.4,2.4,22,5.7,1.2-2.4,1.9-5,1.9-7.8,0-11-10.7-20.9-23.9-20.9S1.5,24.5,1.5,35.5s.7,5.4,1.9,7.8c3.6-3.3,12.1-5.7,22-5.7Z"/>
        <path class="st58" d="M25.4,37.6c9.9,0,18.4,2.3,22,5.6,1.2-2.4,1.9-5,1.9-7.7,0-10.9-10.7-20.7-23.9-20.7-13.2,0-23.9,9.8-23.9,20.7s.7,5.4,1.9,7.7c3.6-3.3,12.1-5.6,22-5.6Z"/>
        <path class="st42" d="M25.4,37.6c9.9,0,18.3,2.3,21.9,5.6,1.2-2.3,1.9-4.9,1.9-7.6,0-10.8-10.7-20.5-23.8-20.5-13.1,0-23.8,9.7-23.8,20.5s.7,5.3,1.9,7.6c3.6-3.3,12.1-5.6,21.9-5.6Z"/>
        <path class="st31" d="M25.4,37.7c9.8,0,18.3,2.3,21.9,5.5,1.2-2.3,1.9-4.9,1.9-7.6,0-10.7-10.6-20.4-23.7-20.4S1.7,24.9,1.7,35.6s.7,5.3,1.9,7.6c3.6-3.2,12-5.5,21.8-5.5Z"/>
        <path class="st13" d="M25.4,37.7c9.8,0,18.2,2.3,21.8,5.5,1.2-2.3,1.9-4.8,1.9-7.5,0-10.6-10.6-20.2-23.7-20.2-13,0-23.7,9.6-23.7,20.2s.7,5.2,1.9,7.5c3.6-3.2,12-5.5,21.8-5.5Z"/>
        <path class="st23" d="M25.4,37.7c9.8,0,18.2,2.2,21.7,5.4,1.2-2.3,1.9-4.8,1.9-7.4,0-10.5-10.6-20-23.6-20-13,0-23.6,9.5-23.6,20s.7,5.2,1.9,7.4c3.6-3.2,12-5.4,21.7-5.4Z"/>
        <path class="st20" d="M25.4,37.8c9.8,0,18.1,2.2,21.7,5.4,1.2-2.2,1.9-4.7,1.9-7.3,0-10.4-10.5-19.9-23.5-19.9-13,0-23.5,9.5-23.5,19.9s.7,5.1,1.9,7.3c3.6-3.1,11.9-5.4,21.7-5.4Z"/>
        <path class="st49" d="M25.4,37.8c9.7,0,18.1,2.2,21.7,5.3,1.2-2.2,1.9-4.7,1.9-7.3,0-10.3-10.5-19.7-23.5-19.7-13,0-23.5,9.4-23.5,19.7s.7,5.1,1.9,7.3c3.6-3.1,11.9-5.3,21.6-5.3Z"/>
        <path class="st40" d="M25.4,37.9c9.7,0,18.1,2.2,21.6,5.3,1.2-2.2,1.9-4.7,1.9-7.2,0-10.2-10.5-19.6-23.5-19.6S2,25.7,2,35.9s.7,5,1.9,7.2c3.6-3.1,11.9-5.3,21.6-5.3Z"/>
        <path class="st14" d="M25.4,37.9c9.7,0,18,2.2,21.6,5.2,1.2-2.2,1.9-4.6,1.9-7.2,0-10.2-10.5-19.5-23.5-19.5-12.9,0-23.4,9.3-23.4,19.5s.7,5,1.9,7.2c3.6-3.1,11.9-5.2,21.6-5.2Z"/>
        <path class="st28" d="M25.4,38c9.7,0,18,2.2,21.6,5.2,1.2-2.2,1.9-4.6,1.9-7.1,0-10.1-10.5-19.4-23.4-19.4S2,26,2,36.1s.7,5,1.9,7.1c3.6-3.1,11.9-5.2,21.5-5.2Z"/>
        <path class="st52" d="M25.4,38.1c9.7,0,18,2.1,21.5,5.2,1.2-2.2,1.9-4.6,1.9-7.1,0-10-10.5-19.2-23.4-19.2S2.1,26.1,2.1,36.2s.7,4.9,1.9,7.1c3.6-3,11.9-5.2,21.5-5.2Z"/>
        <path class="st22" d="M25.4,38.1c9.7,0,18,2.1,21.5,5.1,1.2-2.1,1.9-4.5,1.9-7,0-10-10.5-19.1-23.4-19.1S2.1,26.3,2.1,36.2s.7,4.9,1.9,7c3.5-3,11.8-5.1,21.5-5.1Z"/>
        <path class="st16" d="M25.4,38.2c9.7,0,17.9,2.1,21.5,5.1,1.2-2.1,1.9-4.5,1.9-7,0-9.9-10.4-19-23.3-19S2.1,26.4,2.1,36.3s.7,4.9,1.8,7c3.5-3,11.8-5.1,21.5-5.1Z"/>
        <path class="st0" d="M25.4,38.2c9.6,0,17.9,2.1,21.4,5.1,1.2-2.1,1.8-4.5,1.8-6.9,0-9.8-10.4-18.9-23.3-18.9S2.1,26.5,2.1,36.4s.7,4.8,1.8,6.9c3.5-3,11.8-5.1,21.4-5.1Z"/>
        <path class="st32" d="M25.4,38.3c9.6,0,17.9,2.1,21.4,5,1.2-2.1,1.8-4.4,1.8-6.9,0-9.8-10.4-18.8-23.3-18.8S2.2,26.7,2.2,36.4s.7,4.8,1.8,6.9c3.5-3,11.8-5,21.4-5Z"/>
        <path class="st59" d="M25.4,38.4c9.6,0,17.9,2.1,21.4,5,1.2-2.1,1.8-4.4,1.8-6.8,0-9.7-10.4-18.6-23.2-18.6S2.2,26.8,2.2,36.5s.7,4.8,1.8,6.9c3.5-2.9,11.8-5,21.4-5Z"/>
        <path class="st7" d="M25.4,38.4c9.6,0,17.8,2.1,21.4,5,1.2-2.1,1.8-4.4,1.8-6.8,0-9.6-10.4-18.5-23.2-18.5S2.2,27,2.2,36.6s.7,4.7,1.8,6.8c3.5-2.9,11.8-5,21.3-5Z"/>
        <path class="st45" d="M25.4,38.5c9.6,0,17.8,2,21.3,4.9,1.2-2.1,1.8-4.3,1.8-6.7,0-9.6-10.4-18.4-23.2-18.4S2.3,27.1,2.3,36.7s.7,4.7,1.8,6.8c3.5-2.9,11.7-4.9,21.3-4.9Z"/>
        <path class="st1" d="M25.4,38.6c9.6,0,17.8,2,21.3,4.9,1.2-2,1.8-4.3,1.8-6.7,0-9.5-10.4-18.3-23.1-18.3S2.3,27.2,2.3,36.7s.7,4.7,1.8,6.7c3.5-2.9,11.7-4.9,21.3-4.9Z"/>
        <path class="st5" d="M25.4,38.6c9.6,0,17.8,2,21.3,4.9,1.2-2,1.8-4.3,1.8-6.7,0-9.4-10.3-18.2-23.1-18.2S2.3,27.4,2.3,36.8s.7,4.6,1.8,6.7c3.5-2.9,11.7-4.9,21.3-4.9Z"/>
        <path class="st53" d="M25.4,38.7c9.6,0,17.7,2,21.2,4.8,1.2-2,1.8-4.3,1.8-6.6,0-9.4-10.3-18-23.1-18S2.4,27.5,2.4,36.9s.7,4.6,1.8,6.6c3.5-2.8,11.7-4.8,21.2-4.8Z"/>
        <path class="st55" d="M25.4,38.7c9.5,0,17.7,2,21.2,4.8,1.2-2,1.8-4.2,1.8-6.6,0-9.3-10.3-17.9-23-17.9S2.4,27.7,2.4,37s.7,4.6,1.8,6.6c3.5-2.8,11.7-4.8,21.2-4.8Z"/>
        <path class="st43" d="M25.4,38.8c9.5,0,17.7,2,21.2,4.8,1.2-2,1.8-4.2,1.8-6.5,0-9.2-10.3-17.8-23-17.8S2.4,27.8,2.4,37s.7,4.5,1.8,6.5c3.5-2.8,11.7-4.8,21.2-4.8Z"/>
        <path class="st38" d="M25.4,38.9c9.5,0,17.7,2,21.2,4.7,1.2-2,1.8-4.2,1.8-6.5,0-9.2-10.3-17.7-23-17.7S2.5,28,2.5,37.1s.6,4.5,1.8,6.5c3.5-2.8,11.6-4.7,21.1-4.7Z"/>
        <path class="st33" d="M25.4,38.9c9.5,0,17.6,1.9,21.1,4.7,1.2-2,1.8-4.1,1.8-6.4,0-9.1-10.3-17.5-22.9-17.5S2.5,28.1,2.5,37.2s.6,4.5,1.8,6.4c3.5-2.8,11.6-4.7,21.1-4.7Z"/>
        <path class="st9" d="M25.4,39c9.5,0,17.6,1.9,21.1,4.7,1.2-1.9,1.8-4.1,1.8-6.4,0-9-10.3-17.4-22.9-17.4S2.5,28.2,2.5,37.3s.6,4.4,1.8,6.4c3.5-2.7,11.6-4.7,21.1-4.7Z"/>
        <path class="st25" d="M25.4,39c9.5,0,17.6,1.9,21.1,4.6,1.2-1.9,1.8-4.1,1.8-6.3,0-9-10.2-17.3-22.9-17.3S2.6,28.4,2.6,37.3s.6,4.4,1.8,6.3c3.5-2.7,11.6-4.6,21.1-4.6Z"/>
        <path class="st30" d="M25.4,39.1c9.5,0,17.6,1.9,21,4.6,1.2-1.9,1.8-4,1.8-6.3,0-8.9-10.2-17.2-22.8-17.2S2.6,28.5,2.6,37.4s.6,4.4,1.8,6.3c3.5-2.7,11.6-4.6,21-4.6Z"/>
        <path class="st48" d="M25.4,39.2c9.4,0,17.6,1.9,21,4.6,1.2-1.9,1.8-4,1.8-6.2,0-8.8-10.2-17.1-22.8-17.1S2.6,28.7,2.6,37.5s.6,4.3,1.8,6.2c3.5-2.7,11.6-4.6,21-4.6Z"/>
        <path class="st56" d="M25.4,39.2c9.4,0,17.5,1.9,21,4.5,1.2-1.9,1.8-4,1.8-6.2,0-8.8-10.2-16.9-22.8-16.9S2.7,28.8,2.7,37.6s.6,4.3,1.8,6.2c3.5-2.7,11.6-4.5,21-4.5Z"/>
        <path class="st57" d="M25.4,39.3c9.4,0,17.5,1.9,20.9,4.5,1.2-1.9,1.8-3.9,1.8-6.1,0-8.7-10.2-16.8-22.8-16.8S2.7,28.9,2.7,37.6s.6,4.3,1.8,6.1c3.5-2.6,11.5-4.5,20.9-4.5Z"/>
        <path class="st2" d="M25.4,39.3c9.4,0,17.5,1.8,20.9,4.4,1.2-1.9,1.8-3.9,1.8-6.1,0-8.6-10.2-16.7-22.7-16.7S2.7,29.1,2.7,37.7s.6,4.2,1.8,6.1c3.4-2.6,11.5-4.4,20.9-4.5Z"/>
        <path class="st50" d="M25.4,39.4c9.4,0,17.5,1.8,20.9,4.4,1.2-1.8,1.8-3.9,1.8-6,0-8.6-10.2-16.6-22.7-16.6S2.8,29.2,2.8,37.8s.6,4.2,1.8,6c3.4-2.6,11.5-4.4,20.9-4.4Z"/>
        <path class="st60" d="M25.4,39.5c9.4,0,17.4,1.8,20.9,4.4,1.1-1.8,1.8-3.9,1.8-6,0-8.5-10.2-16.4-22.7-16.4S2.8,29.4,2.8,37.9s.6,4.2,1.8,6c3.4-2.6,11.5-4.4,20.9-4.4Z"/>
        <path class="st18" d="M25.4,39.5c9.4,0,17.4,1.8,20.8,4.3,1.1-1.8,1.8-3.8,1.8-5.9,0-8.4-10.1-16.3-22.6-16.3S2.8,29.5,2.8,37.9s.6,4.1,1.8,5.9c3.4-2.5,11.5-4.3,20.8-4.3Z"/>
        <path class="st4" d="M25.4,39.6c9.4,0,17.4,1.8,20.8,4.3,1.1-1.8,1.8-3.8,1.8-5.9,0-8.4-10.1-16.2-22.6-16.2S2.8,29.7,2.8,38s.6,4.1,1.8,5.9c3.4-2.5,11.5-4.3,20.8-4.3Z"/>
        <path class="st6" d="M25.4,39.7c9.3,0,17.4,1.8,20.8,4.3,1.1-1.8,1.8-3.8,1.8-5.8,0-8.3-10.1-16.1-22.6-16.1S2.9,29.8,2.9,38.1s.6,4.1,1.8,5.8c3.4-2.5,11.4-4.3,20.8-4.3Z"/>
      </g>
    </g>
    <path class="st39" d="M25.3,31.4c-8.2,0-15.8,1.4-22,3.7,3.8,8.4,12.2,14.3,22,14.3s18.2-5.9,22-14.3c-6.3-2.4-13.9-3.7-22-3.7Z"/>
  </g>
  <g>
    <polygon class="st6" points="57.1 32.8 73.1 32.8 73.1 46.5 79.3 46.5 79.3 32.8 95.2 32.8 95.2 28.9 57.1 28.9 57.1 32.8"/>
    <path class="st6" d="M66.5,22.5c1.2,1,2.7,1.7,4.4,2.3,1.6.6,3.5.8,5.4.8s3.7-.3,5.3-.8c1.7-.6,3.1-1.3,4.4-2.3,1.2-1,2.2-2.1,3-3.4.7-1.3,1.1-2.7,1.1-4.2s-.4-2.9-1.1-4.2c-.7-1.3-1.7-2.5-3-3.4-1.2-1-2.7-1.7-4.4-2.3-1.6-.6-3.4-.9-5.3-.9s-3.7.3-5.4.9c-1.7.6-3.1,1.3-4.4,2.3-1.2,1-2.2,2.1-2.9,3.4-.7,1.3-1.1,2.7-1.1,4.2s.4,2.9,1.1,4.2c.7,1.3,1.7,2.5,3,3.4ZM68.7,14.8c0-.9.2-1.8.6-2.6.4-.8.9-1.6,1.6-2.2.7-.6,1.5-1.2,2.4-1.5.9-.4,1.9-.5,2.9-.5s2,.2,2.9.5c.9.4,1.7.9,2.4,1.5.7.6,1.2,1.3,1.6,2.2.4.8.6,1.7.6,2.6s-.2,1.8-.6,2.7c-.4.8-1,1.6-1.6,2.2-.7.6-1.5,1.2-2.4,1.5-1.8.7-4.1.7-5.8,0-.9-.4-1.7-.9-2.4-1.5-.7-.6-1.2-1.4-1.6-2.2-.4-.8-.6-1.7-.6-2.7Z"/>
    <path class="st6" d="M129.1,4.8h-4.9l.3.4c.1.1.2.3.2.5.1.6.2,1.5.2,2.8v19.3c0,1.2-.7,2-2.2,2.5-.5.1-1.2.3-2.3.3h-13.2c-.7,0-.9-.2-1-.3-.1-.2-.2-.5-.2-.9v-7.7h11.4c.7,0,1.1-.1,1.4-.4.3-.3.4-.7.4-1.2V7.6c0-.5-.1-1-.4-1.2-.3-.3-.7-.4-1.4-.4h-17.8v3.9h13.4v7.9h-13.9l.4.8c.2.5.3,1.1.3,1.8v11.1c0,.7.2,1.3.7,1.8.7.7,1.7,1,3.1,1h18.1c1.5-.2,2.5-.5,3.2-.9v12.6h6.2V6.5c0-.7-.4-1.6-2.1-1.7h0Z"/>
    <path class="st6" d="M140.8,30.8c.2.3.3.5.4.6.2.6.3,1.2.3,1.9v9.2c0,.8.3,1.6.9,2.2.7.8,1.9,1.2,3.4,1.2h24.4v-15.5h-29.7l.3.4h0ZM147.8,40.9v-6.6h16.3v7.7h-15.1c-.4,0-.7,0-.9-.3-.2-.2-.3-.5-.3-.8h0Z"/>
    <path class="st6" d="M170.2,19.4v-1.1s0-11.3,0-11.3c0-.5-.2-1-.6-1.5-.4-.4-1-.6-1.7-.6h-26.9v3.9h22.9v10.4c0,.5-.1.9-.2,1.1-.3.7-.7,1-1.4,1h-25.6v3.9h38.1v-3.9h-5.2c.2-.5.4-1.1.5-1.9h0Z"/>
    <path class="st6" d="M187,18.7c1.2.8,2.7,1.4,4.4,1.9,1.7.5,3.5.7,5.4.7s3.7-.2,5.3-.7c1.7-.5,3.1-1.1,4.4-1.9,1.2-.8,2.2-1.8,3-2.9.7-1.1,1.1-2.3,1.1-3.5s-.4-2.4-1.1-3.5c-.7-1.1-1.7-2-3-2.8-1.3-.8-2.8-1.4-4.4-1.9-1.7-.5-3.5-.7-5.3-.7s-3.7.2-5.4.7c-1.7.5-3.1,1.1-4.4,1.9-1.3.8-2.3,1.8-3,2.8-.7,1.1-1.1,2.3-1.1,3.5s.4,2.5,1.1,3.5c.7,1.1,1.7,2,3,2.9h0ZM189.2,12.3c0-.7.2-1.3.6-1.9.4-.6.9-1.2,1.6-1.6.7-.5,1.5-.8,2.4-1.1.9-.3,1.9-.4,3-.4s2,.1,2.9.4c.9.3,1.7.7,2.4,1.1.7.5,1.2,1,1.6,1.6.4.6.6,1.2.6,1.9s-.2,1.3-.6,2c-.4.6-1,1.2-1.6,1.7-.7.5-1.5.8-2.4,1.1-1.9.5-4.1.5-5.9,0-.9-.3-1.7-.6-2.4-1.1-.7-.5-1.2-1-1.6-1.6-.4-.6-.6-1.3-.6-2h0Z"/>
    <path class="st6" d="M177.7,26.7h8.7v5.2c-1.1.8-2,1.6-2.7,2.7-.8,1.1-1.1,2.3-1.1,3.6s.4,2.5,1.1,3.6c.7,1.1,1.8,2.1,3,2.9,1.3.8,2.8,1.5,4.5,1.9,1.7.5,3.6.7,5.5.7s3.8-.2,5.5-.7c1.7-.5,3.2-1.1,4.5-1.9,1.3-.8,2.3-1.8,3.1-2.9.8-1.1,1.2-2.3,1.2-3.6s-.4-2.5-1.2-3.6c-.7-1-1.6-1.9-2.7-2.6v-5.2h8.7v-3.9h-38.1s0,3.9,0,3.9ZM192.6,26.7h8.3v2.7c-1.3-.3-2.7-.4-4.2-.4s-2.8.1-4.1.4v-2.7ZM189.4,36.2c.4-.6,1-1.2,1.7-1.7.7-.5,1.6-.9,2.5-1.2,1-.3,2-.4,3.1-.4s2.1.2,3.1.4c1,.3,1.8.7,2.5,1.2.7.5,1.3,1.1,1.7,1.7.4.6.6,1.3.6,1.9s-.2,1.4-.6,2c-.4.6-1,1.2-1.7,1.7-.7.5-1.6.9-2.5,1.1-2,.6-4.3.6-6.2,0-1-.3-1.8-.7-2.5-1.1-.7-.5-1.3-1.1-1.7-1.7-.4-.6-.6-1.3-.6-2s.2-1.3.6-2h0Z"/>
    <path class="st6" d="M249.8,35.6v-1.1s0-25.4,0-25.4c0-.5-.2-1-.6-1.5-.4-.4-1-.6-1.7-.6h-26.9v3.9h22.9v24.6c0,.5-.1.9-.2,1.1-.3.7-.7,1-1.4,1h-25.6v3.9h38.1v-3.9h-5.2c.2-.5.4-1.1.5-1.9h0Z"/>
    <path class="st6" d="M261,11.8l.3.6c.2.5.3,1.2.3,2v5.2c0,.7.2,1.3.7,1.8.7.7,1.7,1,3.1,1h25.1v-3.9h-21.5c-.7,0-.9-.1-1-.3-.1-.2-.2-.5-.2-.9v-1.8h20.7c.7,0,1.1-.1,1.4-.4.3-.3.4-.7.4-1.2v-7.5c0-.5-.1-.9-.4-1.2-.3-.3-.7-.4-1.4-.4h-27.2v3.9h22.7v3h-23.1Z"/>
    <path class="st6" d="M288.9,31h-5.9l.5.4c.2.2.3.4.4.6,0,.3.1.7.2,1.1v2h-16.3v-2.4c0-1.4-.8-1.7-1.5-1.7h-5.7l.5.4c.2.2.3.4.4.7,0,.4,0,.7,0,1v9.8c0,.7.2,1.3.7,1.8.7.7,1.7,1,3.1,1h24.9v-13.1c0-.5-.1-.9-.3-1.2-.2-.3-.6-.5-1.1-.5h0ZM267.9,40.9v-1.8h16.3v2.9h-15.1c-.9,0-1-.2-1-.3,0-.2-.1-.5-.1-.8h0Z"/>
    <polygon class="st6" points="256.9 25 256.9 28.8 272.9 28.8 272.9 33.4 279.1 33.4 279.1 28.8 295 28.8 295 25 256.9 25"/>
  </g>
</svg>