<svg height="512" viewBox="0 0 64 64" width="512" xmlns="http://www.w3.org/2000/svg"><g id="Outline_ok" fill="rgb(0,0,0)" data-name="Outline ok"><path d="m36 7a1 1 0 0 1 -.707-.293l-3.293-3.293-3.293 3.293a1 1 0 0 1 -1.414-1.414l4-4a1 1 0 0 1 1.414 0l4 4a1 1 0 0 1 -.707 1.707z"/><path d="m32 13a1 1 0 0 1 -1-1v-10a1 1 0 0 1 2 0v10a1 1 0 0 1 -1 1z"/><path d="m32 63a1 1 0 0 1 -.707-.293l-4-4a1 1 0 0 1 1.414-1.414l3.293 3.293 3.293-3.293a1 1 0 0 1 1.414 1.414l-4 4a1 1 0 0 1 -.707.293z"/><path d="m32 63a1 1 0 0 1 -1-1v-10a1 1 0 0 1 2 0v10a1 1 0 0 1 -1 1z"/><path d="m58 37a1 1 0 0 1 -.707-1.707l3.293-3.293-3.293-3.293a1 1 0 0 1 1.414-1.414l4 4a1 1 0 0 1 0 1.414l-4 4a1 1 0 0 1 -.707.293z"/><path d="m62 33h-10a1 1 0 0 1 0-2h10a1 1 0 0 1 0 2z"/><path d="m6 37a1 1 0 0 1 -.707-.293l-4-4a1 1 0 0 1 0-1.414l4-4a1 1 0 0 1 1.414 1.414l-3.293 3.293 3.293 3.293a1 1 0 0 1 -.707 1.707z"/><path d="m12 33h-10a1 1 0 0 1 0-2h10a1 1 0 0 1 0 2z"/><path d="m53 54h-6a1 1 0 0 1 0-2h5v-5a1 1 0 0 1 2 0v6a1 1 0 0 1 -1 1z"/><path d="m53 54a1 1 0 0 1 -.707-.293l-6.86-6.86a1 1 0 0 1 1.414-1.414l6.86 6.86a1 1 0 0 1 -.707 1.707z"/><path d="m11 18a1 1 0 0 1 -1-1v-6a1 1 0 0 1 1-1h6a1 1 0 0 1 0 2h-5v5a1 1 0 0 1 -1 1z"/><path d="m17.86 18.86a1 1 0 0 1 -.707-.293l-6.86-6.86a1 1 0 0 1 1.414-1.414l6.86 6.86a1 1 0 0 1 -.707 1.707z"/><path d="m53 18a1 1 0 0 1 -1-1v-5h-5a1 1 0 0 1 0-2h6a1 1 0 0 1 1 1v6a1 1 0 0 1 -1 1z"/><path d="m46.14 18.86a1 1 0 0 1 -.707-1.707l6.86-6.86a1 1 0 0 1 1.414 1.414l-6.86 6.86a1 1 0 0 1 -.707.293z"/><path d="m17 54h-6a1 1 0 0 1 -1-1v-6a1 1 0 0 1 2 0v5h5a1 1 0 0 1 0 2z"/><path d="m11 54a1 1 0 0 1 -.707-1.707l6.86-6.86a1 1 0 0 1 1.414 1.414l-6.86 6.86a1 1 0 0 1 -.707.293z"/><path d="m32 48a16 16 0 1 1 16-16 16.018 16.018 0 0 1 -16 16zm0-30a14 14 0 1 0 14 14 14.016 14.016 0 0 0 -14-14z"/><path d="m32 25.174a15.969 15.969 0 0 1 -10.374-3.827 1 1 0 0 1 1.3-1.52 13.973 13.973 0 0 0 18.146 0 1 1 0 1 1 1.3 1.52 15.969 15.969 0 0 1 -10.372 3.827z"/><path d="m41.724 44.413a1 1 0 0 1 -.65-.24 13.973 13.973 0 0 0 -18.146 0 1 1 0 0 1 -1.3-1.52 15.974 15.974 0 0 1 20.748 0 1 1 0 0 1 -.65 1.76z"/><path d="m32 48c-4.949 0-8.826-7.028-8.826-16s3.877-16 8.826-16 8.826 7.028 8.826 16-3.877 16-8.826 16zm0-30c-3.7 0-6.826 6.411-6.826 14s3.126 14 6.826 14 6.826-6.411 6.826-14-3.126-14-6.826-14z"/><path d="m32 48a1 1 0 0 1 -1-1v-30a1 1 0 0 1 2 0v30a1 1 0 0 1 -1 1z"/><path d="m47 33h-30a1 1 0 0 1 0-2h30a1 1 0 0 1 0 2z"/></g></svg>