<svg id="Layer_1" enable-background="new 0 0 512 512" viewBox="0 0 512 512" xmlns="http://www.w3.org/2000/svg"><path d="m365.145 333.709-77.334 45.043c-2.958 1.723-5.956 3.049-9.046 3.988.951-1.906 1.73-3.969 2.323-6.179 4.109-15.34-4.989-31.35-20.714-36.447-.343-.111-.692-.199-1.047-.263-22.129-3.991-44.014-11.903-61.599-18.26-6.135-2.218-11.93-4.313-16.867-5.914-20.225-6.561-38.4 1.5-53.516 10.25l-56.54 32.735-4.858-8.584c-5.266-9.302-17.119-12.587-26.42-7.323l-21.697 12.28c-9.303 5.264-12.589 17.116-7.323 26.42l63.791 112.716c2.545 4.495 6.698 7.734 11.697 9.12 1.729.479 3.483.716 5.228.716 3.299 0 6.555-.849 9.495-2.513l21.698-12.281c9.303-5.266 12.588-17.118 7.322-26.419l-6.021-10.639 11.73-6.772 98.593 26.417c5.565 1.492 11.102 2.232 16.548 2.232 11.017 0 21.661-3.034 31.392-9.024l140.342-86.417c13.295-8.186 17.534-28.777 8.895-43.202-4.184-6.985-21.315-27.746-66.072-1.68zm-250.61 141.58-21.698 12.281c-1.595.903-3.71.319-4.615-1.279l-63.79-112.715c-.904-1.598-.319-3.711 1.278-4.615l21.698-12.28c.511-.289 1.074-.426 1.634-.426 1.191 0 2.366.619 2.981 1.706l63.791 112.715c.904 1.595.319 3.709-1.279 4.613zm299.398-110.322-140.341 86.417c-10.854 6.681-22.769 8.35-35.41 4.961l-101.794-27.276c-2.049-.549-4.233-.262-6.07.799l-14.481 8.36-37.149-65.641 56.677-32.814c12.67-7.336 26.356-13.486 40.562-8.878 4.686 1.519 10.097 3.476 16.363 5.741 17.999 6.507 40.363 14.592 63.611 18.853 7.461 2.649 11.632 9.846 9.733 16.93-2.501 9.332-10.348 10.49-16.607 9.78-11.323-2.332-22.105-5.409-33.513-8.666-5.437-1.553-11.058-3.158-16.84-4.708-4.267-1.142-8.654 1.39-9.798 5.657s1.39 8.654 5.657 9.798c5.655 1.515 11.213 3.102 16.587 4.637 11.825 3.377 22.994 6.567 35.042 9.03.052.011.103.014.155.024.055.01.108.026.163.035l9.619 1.563c14.658 2.344 27.662.057 39.765-6.992l77.334-45.043c21.653-12.61 38.211-14.079 44.292-3.925 4.154 6.938 2.359 17.716-3.557 21.358zm-360.79 12.492c.619 4.234-2.311 8.167-6.545 8.786-4.233.619-8.167-2.311-8.786-6.545-.619-4.233 2.311-8.167 6.545-8.786s8.167 2.312 8.786 6.545zm176.222-261.596c-7.734 0-14.532 4.938-16.922 12.295-2.395 7.369.214 15.372 6.491 19.915l30.458 22.04c.693.502.92 1.198.653 2.012l-11.688 35.735c-2.407 7.365.188 15.373 6.455 19.925 3.13 2.274 6.795 3.41 10.459 3.41 3.676 0 7.352-1.144 10.486-3.43l30.374-22.157c.692-.505 1.424-.503 2.114 0l30.373 22.157c6.261 4.567 14.679 4.574 20.947.019 6.267-4.554 8.859-12.562 6.452-19.926l-11.687-35.733c-.266-.814-.04-1.509.653-2.011l30.458-22.04c6.278-4.542 8.887-12.546 6.492-19.915-2.392-7.358-9.188-12.295-16.922-12.295-.012 0-.023 0-.035 0l-37.597.072c-.001 0-.003 0-.005 0-.854 0-1.442-.429-1.705-1.243l-11.55-35.778c-2.38-7.374-9.185-12.328-16.935-12.328-7.747.001-14.552 4.955-16.933 12.328l-11.548 35.778c-.264.813-.854 1.243-1.707 1.243-.002 0-.004 0-.005 0l-37.596-.072c-.006-.001-.018-.001-.03-.001zm37.635 16.073c7.749 0 14.551-4.95 16.934-12.327l11.549-35.778c.263-.813.854-1.244 1.707-1.244.854 0 1.444.429 1.707 1.242v.001l11.55 35.777c2.38 7.379 9.182 12.33 16.933 12.33h.035l37.597-.072h.005c.852 0 1.44.429 1.704 1.24.264.812.038 1.506-.654 2.007l-30.457 22.04c-6.292 4.551-8.896 12.567-6.482 19.948l11.686 35.731c.267.813.041 1.508-.649 2.01-.69.503-1.422.5-2.112-.002l-30.373-22.156c-6.271-4.575-14.7-4.575-20.974 0l-30.374 22.157c-.689.504-1.421.503-2.112.001-.69-.502-.916-1.197-.65-2.008l11.687-35.733c2.413-7.378-.19-15.394-6.48-19.947l-30.458-22.041c-.692-.5-.919-1.195-.654-2.009.264-.811.853-1.239 1.704-1.239h.005l37.596.072zm22.189-86.644v-29.292c0-4.418 3.582-8 8-8s8 3.582 8 8v29.292c0 4.418-3.582 8-8 8s-8-3.581-8-8zm75.606 36.003c-3.124-3.124-3.124-8.189 0-11.313l20.713-20.713c3.127-3.124 8.191-3.123 11.314 0 3.124 3.124 3.124 8.189 0 11.313l-20.713 20.713c-1.562 1.562-3.61 2.343-5.657 2.343-2.048.001-4.095-.781-5.657-2.343zm-167.237-20.712c-3.124-3.124-3.124-8.189 0-11.313 3.124-3.123 8.188-3.125 11.314 0l20.713 20.713c3.124 3.124 3.124 8.189 0 11.313-1.562 1.562-3.609 2.343-5.657 2.343-2.047 0-4.095-.781-5.657-2.343zm305.665 140.562c-2.092-6.443-8.043-10.766-14.813-10.766-.011 0-.022 0-.033 0l-28.789.055-8.843-27.397c-2.084-6.456-8.042-10.793-14.827-10.793-6.784.001-12.741 4.338-14.825 10.793l-8.844 27.397-28.788-.055c-.012 0-.021 0-.032 0-6.77 0-12.721 4.322-14.815 10.766-2.096 6.451.188 13.458 5.684 17.435l23.323 16.877-8.948 27.362c-2.109 6.448.161 13.46 5.649 17.447 2.74 1.991 5.949 2.986 9.158 2.986 3.219 0 6.438-1.001 9.182-3.003l23.258-16.966 23.259 16.966c5.481 3.999 12.852 4.004 18.339.017 5.486-3.987 7.757-10.998 5.649-17.446l-8.948-27.362 23.322-16.877c5.495-3.978 7.779-10.986 5.682-17.436zm-38.633 21.529c-5.51 3.985-7.79 11.004-5.676 17.465l8.639 26.416-22.453-16.379c-5.492-4.007-12.871-4.006-18.363 0l-22.453 16.379 8.639-26.417c2.112-6.46-.168-13.479-5.675-17.463l-22.517-16.293 27.793.053h.03c6.784 0 12.74-4.334 14.826-10.793l8.538-26.449 8.537 26.45c2.086 6.459 8.041 10.793 14.826 10.793h.03l27.793-.053zm-368.245-4.094 23.323 16.877-8.948 27.362c-2.109 6.448.161 13.46 5.649 17.447 2.741 1.992 5.95 2.987 9.158 2.987 3.219 0 6.437-1.001 9.181-3.004l23.259-16.966 23.259 16.966c5.48 3.999 12.851 4.004 18.339.017 5.486-3.987 7.757-10.998 5.649-17.446l-8.948-27.362 23.322-16.877c5.496-3.977 7.78-10.983 5.685-17.437-2.095-6.442-8.046-10.764-14.814-10.764-.011 0-.022 0-.033 0l-28.789.055-8.843-27.397c-2.084-6.456-8.042-10.793-14.827-10.793-6.784.001-12.741 4.338-14.825 10.793l-8.844 27.397-28.787-.055c-.012 0-.021 0-.032 0-6.77 0-12.722 4.322-14.816 10.766-2.098 6.45.187 13.457 5.682 17.434zm38.227-12.145h.03c6.787 0 12.743-4.335 14.826-10.793l8.538-26.449 8.537 26.45c2.086 6.459 8.041 10.793 14.826 10.793h.03l27.793-.053-22.517 16.293c-5.508 3.985-7.788 11.004-5.674 17.464l8.639 26.416-22.453-16.379c-2.746-2.003-5.964-3.005-9.182-3.005s-6.436 1.002-9.182 3.005l-22.453 16.379 8.639-26.416c2.112-6.46-.168-13.479-5.675-17.463l-22.517-16.293z"/></svg>