<?xml version="1.0" encoding="utf-8"?>
<!-- Generator: Adobe Illustrator 22.0.1, SVG Export Plug-In . SVG Version: 6.00 Build 0)  -->
<svg version="1.1" id="Capa_1" xmlns="http://www.w3.org/2000/svg" xmlns:xlink="http://www.w3.org/1999/xlink" x="0px" y="0px"
	 viewBox="0 0 526 540" style="enable-background:new 0 0 526 540;" xml:space="preserve">
<g>
	<g>
		<path d="M172.2,39.6c-1.8-4.2-6.7-6.2-11-4.3c-9.1,3.9-18,8.4-26.6,13.4c-4,2.3-5.3,7.4-3,11.4c1.5,2.7,4.3,4.2,7.2,4.2
			c1.4,0,2.9-0.4,4.2-1.1c8-4.6,16.4-8.9,24.8-12.5C172.1,48.7,174,43.8,172.2,39.6z"/>
	</g>
</g>
<g>
	<g>
		<path d="M336,24.8c-9.5-2.8-19.2-5.1-29-6.8c-4.5-0.8-8.8,2.3-9.6,6.8c-0.8,4.5,2.3,8.8,6.8,9.6c9.1,1.6,18.2,3.7,27.1,6.3
			c0.8,0.2,1.6,0.3,2.4,0.3c3.6,0,6.9-2.3,8-6C342.9,30.7,340.4,26.1,336,24.8z"/>
	</g>
</g>
<g>
	<g>
		<path d="M277.5,14.6c-4.8-0.3-9.7-0.4-14.5-0.4c0,0,0,0,0,0c-5.1,0-10.2,0.2-15.3,0.4c-4.6,0.3-8.1,4.2-7.8,8.8
			c0.3,4.4,3.9,7.8,8.3,7.8c0.2,0,0.3,0,0.5,0c4.7-0.3,9.5-0.4,14.3-0.4c0,0,0,0,0,0c4.5,0,9.1,0.1,13.5,0.4
			c4.6,0.3,8.5-3.3,8.8-7.9S282.1,14.9,277.5,14.6z"/>
	</g>
</g>
<g>
	<g>
		<path d="M517.2,240c-1.2-9.8-2.9-19.7-5.2-29.3c-1.1-4.5-5.6-7.2-10-6.2c-4.5,1.1-7.2,5.6-6.2,10c2.1,9,3.8,18.2,4.9,27.4
			c0.5,4.2,4.1,7.4,8.3,7.4c0.3,0,0.7,0,1-0.1C514.5,248.7,517.8,244.5,517.2,240z"/>
	</g>
</g>
<g>
	<g>
		<path d="M506,319.2c-4.5-1.1-9,1.7-10,6.2c-2.1,9-4.8,18-8,26.7c-1.6,4.3,0.7,9.1,5,10.7c0.9,0.3,1.9,0.5,2.8,0.5
			c3.4,0,6.6-2.1,7.8-5.5c3.4-9.3,6.3-18.9,8.5-28.5C513.2,324.7,510.4,320.3,506,319.2z"/>
	</g>
</g>
<g>
	<g>
		<path d="M390.6,48.2c-8.6-4.9-17.5-9.4-26.6-13.3c-4.2-1.8-9.1,0.1-10.9,4.4c-1.8,4.2,0.1,9.1,4.4,10.9
			c8.5,3.7,16.9,7.8,24.9,12.5c1.3,0.8,2.7,1.1,4.2,1.1c2.9,0,5.7-1.5,7.2-4.2C396,55.6,394.6,50.5,390.6,48.2z"/>
	</g>
</g>
<g>
	<g>
		<path d="M38.1,352.3c-3.2-8.7-5.9-17.6-8-26.6c-1.1-4.5-5.5-7.2-10-6.2c-4.5,1.1-7.2,5.6-6.2,10c2.3,9.6,5.2,19.2,8.6,28.5
			c1.2,3.4,4.4,5.5,7.8,5.5c0.9,0,1.9-0.2,2.9-0.5C37.5,361.4,39.7,356.6,38.1,352.3z"/>
	</g>
</g>
<g>
	<g>
		<path d="M227.8,24.9c-0.8-4.5-5.1-7.6-9.7-6.8c-9.7,1.7-19.5,4-29,6.9c-4.4,1.3-6.9,6-5.6,10.4c1.1,3.6,4.4,5.9,8,5.9
			c0.8,0,1.6-0.1,2.4-0.4c8.8-2.7,18-4.8,27.1-6.4C225.6,33.7,228.6,29.4,227.8,24.9z"/>
	</g>
</g>
<g>
	<g>
		<path d="M510.7,261.3c-4.6,0-8.3,3.7-8.3,8.3v0.5c0,9.3-0.5,18.6-1.6,27.8c-0.5,4.6,2.7,8.7,7.3,9.2c0.3,0,0.6,0.1,1,0.1
			c4.2,0,7.8-3.1,8.3-7.4c1.1-9.8,1.7-19.8,1.7-29.7v-0.5C519,265.1,515.3,261.3,510.7,261.3z"/>
	</g>
</g>
<g>
	<g>
		<path d="M314.3,512.7c-0.8-4.5-5.1-7.6-9.6-6.8c-9.1,1.6-18.4,2.7-27.6,3.2c-4.6,0.3-8.1,4.2-7.8,8.8c0.3,4.4,3.9,7.8,8.3,7.8
			c0.2,0,0.3,0,0.5,0c9.9-0.6,19.8-1.7,29.6-3.4C312.1,521.5,315.1,517.2,314.3,512.7z"/>
	</g>
</g>
<g>
	<g>
		<path d="M249.2,509.2c-9.3-0.5-18.6-1.6-27.6-3.2c-4.5-0.8-8.8,2.2-9.6,6.8c-0.8,4.5,2.2,8.8,6.8,9.6c9.7,1.7,19.7,2.8,29.6,3.4
			c0.2,0,0.3,0,0.5,0c4.4,0,8.1-3.4,8.3-7.9C257.3,513.3,253.8,509.4,249.2,509.2z"/>
	</g>
</g>
<g>
	<g>
		<path d="M194.5,499.6c-8.9-2.6-17.7-5.8-26.2-9.5c-4.2-1.8-9.1,0.1-10.9,4.4c-1.8,4.2,0.1,9.1,4.4,10.9c9.1,3.9,18.5,7.3,28,10.2
			c0.8,0.2,1.6,0.4,2.4,0.4c3.6,0,6.9-2.3,8-6C201.4,505.5,198.9,500.9,194.5,499.6z"/>
	</g>
</g>
<g>
	<g>
		<path d="M23.8,205.2c-4.5-1.1-9,1.7-10,6.2c-2.3,9.6-4,19.5-5.1,29.3c-0.5,4.6,2.8,8.7,7.3,9.2c0.3,0,0.6,0.1,1,0.1
			c4.2,0,7.8-3.1,8.3-7.4c1.1-9.2,2.7-18.4,4.8-27.4C31,210.8,28.3,206.3,23.8,205.2z"/>
	</g>
</g>
<g>
	<g>
		<path d="M368.9,494.3c-1.8-4.2-6.7-6.2-11-4.3c-8.5,3.7-17.3,6.9-26.1,9.5c-4.4,1.3-6.9,6-5.6,10.4c1.1,3.6,4.4,5.9,8,5.9
			c0.8,0,1.6-0.1,2.4-0.4c9.5-2.8,18.9-6.3,28-10.2C368.7,503.5,370.7,498.6,368.9,494.3z"/>
	</g>
</g>
<g>
	<g>
		<path d="M25.3,298.2c-1.1-9.2-1.6-18.5-1.6-27.8c0-4.6-3.7-8.3-8.3-8.3c0,0,0,0,0,0c-4.6,0-8.3,3.7-8.3,8.3
			c0,9.9,0.6,19.9,1.7,29.7c0.5,4.2,4.1,7.4,8.3,7.4c0.3,0,0.6,0,1-0.1C22.5,307,25.8,302.8,25.3,298.2z"/>
	</g>
</g>
<g>
	<g>
		<path d="M140.1,131.5c-1.3-3.9-5.6-6-9.5-4.7c-3.9,1.3-6,5.6-4.7,9.5c1.6,4.7,2.4,9.6,2.4,14.6v20.1c0,1.5-1.2,2.7-2.7,2.7H29.4
			c-1.5,0-2.7-1.2-2.7-2.7V151c0-12.9,5.6-25.2,15.1-33.7c8.1,10.7,20.8,17.6,35.2,17.6c24.3,0,44.1-19.8,44.1-44.1
			S101.3,46.8,77,46.8S32.9,66.5,32.9,90.8c0,4.4,0.7,8.7,1.9,12.7c-14.5,11.4-23.1,28.9-23.1,47.5v20.1c0,9.8,7.9,17.7,17.7,17.7
			h96.2c9.8,0,17.7-7.9,17.7-17.7V151C143.3,144.3,142.3,137.8,140.1,131.5z M77,61.8c16,0,29.1,13,29.1,29.1s-13,29.1-29.1,29.1
			c-16,0-29.1-13-29.1-29.1S61,61.8,77,61.8z"/>
	</g>
</g>
<g>
	<g>
		<path d="M511.1,131.5c-1.3-3.9-5.6-6-9.5-4.7c-3.9,1.3-6,5.6-4.7,9.5c1.6,4.7,2.4,9.6,2.4,14.6v20.1c0,1.5-1.2,2.7-2.7,2.7h-96.2
			c-1.5,0-2.7-1.2-2.7-2.7V151c0-12.9,5.6-25.2,15.1-33.7c8.1,10.7,20.8,17.6,35.2,17.6c24.3,0,44.1-19.8,44.1-44.1
			S472.3,46.8,448,46.8c-24.3,0-44.1,19.8-44.1,44.1c0,4.4,0.7,8.7,1.9,12.7c-14.5,11.4-23.1,28.9-23.1,47.4v20.1
			c0,9.8,7.9,17.7,17.7,17.7h96.2c9.8,0,17.7-7.9,17.7-17.7V151C514.3,144.3,513.2,137.8,511.1,131.5z M448,61.8
			c16,0,29.1,13,29.1,29.1s-13,29.1-29.1,29.1c-16,0-29.1-13-29.1-29.1S432,61.8,448,61.8z"/>
	</g>
</g>
<g>
	<g>
		<path d="M511.1,436.4c-1.3-3.9-5.6-6-9.5-4.7c-3.9,1.3-6,5.6-4.7,9.5c1.6,4.7,2.4,9.6,2.4,14.6v20.1c0,1.5-1.2,2.7-2.7,2.7h-96.2
			c-1.5,0-2.7-1.2-2.7-2.7v-20.1c0-12.9,5.6-25.2,15.1-33.7c8.1,10.7,20.8,17.6,35.2,17.6c24.3,0,44.1-19.8,44.1-44.1
			c0-24.3-19.8-44.1-44.1-44.1c-24.3,0-44.1,19.8-44.1,44.1c0,4.4,0.7,8.7,1.9,12.7c-14.5,11.4-23.1,28.9-23.1,47.5v20.1
			c0,9.8,7.9,17.7,17.7,17.7h96.2c9.8,0,17.7-7.9,17.7-17.7v-20.1C514.3,449.2,513.2,442.7,511.1,436.4z M448,366.7
			c16,0,29.1,13,29.1,29.1s-13,29.1-29.1,29.1c-16,0-29.1-13-29.1-29.1S432,366.7,448,366.7z"/>
	</g>
</g>
<g>
	<g>
		<path d="M140.1,436.4c-1.3-3.9-5.6-6-9.5-4.7c-3.9,1.3-6,5.6-4.7,9.5c1.6,4.7,2.4,9.6,2.4,14.6v20.1c0,1.5-1.2,2.7-2.7,2.7H29.4
			c-1.5,0-2.7-1.2-2.7-2.7v-20.1c0-12.9,5.6-25.2,15.1-33.7c8.1,10.7,20.8,17.6,35.2,17.6c24.3,0,44.1-19.8,44.1-44.1
			c0-24.3-19.8-44.1-44.1-44.1s-44.1,19.8-44.1,44.1c0,4.4,0.7,8.7,1.9,12.7c-14.5,11.4-23.1,28.9-23.1,47.5v20.1
			c0,9.8,7.9,17.7,17.7,17.7h96.2c9.8,0,17.7-7.9,17.7-17.7v-20.1C143.3,449.2,142.3,442.7,140.1,436.4z M77,366.7
			c16,0,29.1,13,29.1,29.1s-13,29.1-29.1,29.1c-16,0-29.1-13-29.1-29.1S61,366.7,77,366.7z"/>
	</g>
</g>
<g>
	<g>
		<path d="M334.1,187.2h-80c-34.6,0-63.3,25.3-68.8,58.3h-2.7c-31.2,0-56.5,26.1-56.5,58.1c0,22.6,12.5,42.8,32.1,52.4
			c9.6,23.4,39.7,34.6,41.1,35.1c0.8,0.3,1.7,0.5,2.6,0.5c2.1,0,4.1-0.8,5.5-2.4c2.1-2.2,2.6-5.5,1.3-8.2c-3-6.7-4.7-13.1-5.1-19.2
			h42c23.2,0,43.2-14.5,51.9-35.1h12c-0.2,8.2-2.4,16.9-6.7,25.9c-1.3,2.7-0.8,6,1.2,8.2c1.5,1.6,3.5,2.5,5.6,2.5
			c0.8,0,1.7-0.1,2.5-0.4c1.7-0.6,39.6-14.3,51.2-42.7c24.7-11.4,40.4-35.9,40.4-63.2C403.8,218.4,372.5,187.2,334.1,187.2z
			 M354.6,307.5c-2,0.8-3.6,2.5-4.3,4.6c-4.2,13.2-17.1,23-27.6,29.1c1.8-7.8,2.3-15.5,1.5-22.9c-0.4-3.8-3.6-6.7-7.5-6.7h-62.6
			c-7.2,0-14.1-1.4-20.4-3.9c-2.8-1.1-6-0.5-8.1,1.6l-0.1,0.1c-3.8,3.8-2.5,10.2,2.5,12.2c8.1,3.3,16.9,5.1,26.1,5.1h26.6
			c-7.4,12.1-20.3,20.1-35.1,20.1h-49.3c-3.8,0-7,2.9-7.5,6.6c-0.6,5.1-0.4,10.4,0.5,15.8c-7.3-4.8-15.1-11.8-17.9-20.7
			c-0.7-2.2-2.2-4-4.3-4.9c-15.8-6.6-26-22.3-26-40c0-23.8,18.6-43.1,41.5-43.1h1.9c0.4,7.9,2.1,15.4,4.9,22.3c2,5,8.4,6.3,12.2,2.5
			c0,0,0.1-0.1,0.1-0.1c2.1-2.1,2.7-5.3,1.6-8.1c-2.7-6.6-4.1-13.9-3.9-21.5c0.7-29.8,25.6-53.5,55.4-53.5h78.3
			c30.2,0,55.7,24.7,55.6,54.9C388.7,279.3,375.3,299.2,354.6,307.5z"/>
	</g>
</g>
</svg>
