<?xml version="1.0" encoding="utf-8"?>
<!-- Generator: Adobe Illustrator 24.2.0, SVG Export Plug-In . SVG Version: 6.00 Build 0)  -->
<svg version="1.1" id="Layer_1" xmlns="http://www.w3.org/2000/svg" xmlns:xlink="http://www.w3.org/1999/xlink" x="0px" y="0px"
	 viewBox="0 0 1374.8 275.7" style="enable-background:new 0 0 1374.8 275.7;" xml:space="preserve">
<style type="text/css">
	.st0{fill:#FB623A;}
	.st1{fill:#FFFFFF;}
</style>
<g id="Layer_2_1_">
	<g id="레이어_1">
		<g>
			<g>
				<polygon class="st0" points="0,65.9 0,268.1 191.5,137.9 191.5,0 64.3,85.8 				"/>
				<polygon class="st0" points="383,209.9 383,7.7 191.5,137.9 191.5,275.7 318.6,190 				"/>
			</g>
			<g>
				<g>
					<path class="st1" d="M517.5,30.5l27.3,84.9L572,30.5h38.7v122.1h-29.5v-28.5l2.9-58.4l-29.5,86.9H535l-29.6-87l2.9,58.4v28.5
						h-29.4v-122H517.5z"/>
					<path class="st1" d="M700.2,129.8h-40.3l-7,22.8h-31.4l44.8-122.1H694l45.1,122.1h-31.6L700.2,129.8z M666.9,107.1h26.2
						L680,64.7L666.9,107.1z"/>
					<path class="st1" d="M747.8,152.6V30.5h39.3c10.2-0.2,20.2,2.4,29.1,7.3c8.6,4.8,15.6,12,20.2,20.7c4.9,9.2,7.4,19.5,7.3,30
						v5.6c0.2,10.5-2.3,20.8-7.1,30.1c-4.6,8.7-11.5,15.9-20,20.8c-8.7,5-18.6,7.7-28.7,7.6H747.8z M777.2,53.2V130h10.2
						c8.4,0,14.9-3,19.5-9c4.5-6,6.8-14.9,6.8-26.8v-5.3c0-11.8-2.3-20.7-6.8-26.7s-11.1-9-19.8-9L777.2,53.2z"/>
					<path class="st1" d="M921.8,120.2c0.2-3.9-1.5-7.6-4.6-10.1c-3-2.4-8.4-4.9-16.1-7.5c-6.4-2.1-12.7-4.6-18.8-7.5
						c-15.8-7.8-23.7-18.4-23.7-32c-0.1-6.5,2-12.8,5.9-17.9c3.9-5.2,9.5-9.2,16.7-12.1c7.8-3,16-4.4,24.3-4.3
						c8.1-0.1,16.2,1.5,23.6,4.7c6.6,2.8,12.2,7.5,16.2,13.4c3.9,5.9,5.9,12.8,5.8,19.8h-29.3c0-5-1.5-8.8-4.6-11.6
						c-3-2.7-7.2-4.1-12.4-4.1c-5.3,0-9.4,1.2-12.5,3.5c-2.9,2-4.6,5.3-4.6,8.8c0,3.1,1.7,6,5,8.5c3.4,2.5,9.3,5.2,17.7,7.9
						c7.2,2.2,14.2,5.1,20.8,8.8c13.2,7.6,19.8,18.1,19.8,31.4c0,10.7-4,19.1-12.1,25.2c-8,6.1-19.1,9.1-33.1,9.1
						c-9.2,0.1-18.4-1.7-26.9-5.3c-8-3.5-14.1-8.4-18.1-14.6c-4.1-6.4-6.2-13.8-6.1-21.3h29.5c0,6.5,1.7,11.4,5.1,14.5
						c3.4,3.1,8.9,4.7,16.5,4.7c4.9,0,8.7-1,11.5-3.1C920.4,126.9,922,123.6,921.8,120.2z"/>
					<path class="st1" d="M1042.1,100.8h-46.3V130h54.7v22.6h-84.1V30.5h84.3v22.7h-54.8V79h46.3v21.8H1042.1z"/>
					<path class="st1" d="M1164.4,152.6h-29.3l-43.3-76v76h-29.4V30.5h29.4l43.2,76v-76h29.3v122.1H1164.4z"/>
					<path class="st1" d="M1246,120.2c0.2-3.9-1.5-7.6-4.6-10.1c-3-2.4-8.4-4.9-16.1-7.5c-6.4-2.1-12.7-4.6-18.8-7.5
						c-15.8-7.8-23.7-18.4-23.7-32c-0.1-6.5,2-12.8,5.9-17.9c3.9-5.2,9.5-9.2,16.7-12.1c7.8-3,16-4.4,24.3-4.3
						c8.1-0.1,16.2,1.5,23.6,4.7c6.6,2.8,12.2,7.5,16.2,13.4c3.9,5.9,5.9,12.8,5.8,19.8H1246c0-5-1.5-8.8-4.6-11.6
						c-3-2.7-7.2-4.1-12.4-4.1c-5.3,0-9.4,1.2-12.5,3.5c-2.9,2-4.6,5.3-4.6,8.8c0,3.1,1.7,6,5,8.5c3.4,2.5,9.3,5.2,17.7,7.9
						c7.2,2.2,14.2,5.1,20.8,8.8c13.2,7.6,19.8,18.1,19.8,31.4c0,10.7-4,19.1-12.1,25.2c-8,6.1-19.1,9.1-33.1,9.1
						c-9.2,0.1-18.4-1.7-26.9-5.3c-8-3.5-14.1-8.4-18.1-14.6c-4.1-6.4-6.2-13.8-6.1-21.3h29.5c0,6.5,1.7,11.4,5.1,14.5
						c3.4,3.1,8.9,4.7,16.5,4.7c4.9,0,8.7-1,11.5-3.1C1244.6,126.9,1246.2,123.6,1246,120.2z"/>
					<path class="st1" d="M1366.2,100.8H1320V130h54.7v22.6h-84.1V30.5h84.3v22.7H1320V79h46.3v21.8H1366.2z"/>
				</g>
				<g>
					<path class="st1" d="M661.7,203.7l12.3,32.7l12.3-32.7h9.6v42.6h-7.4v-14.1l0.7-18.8l-12.6,32.9h-5.3l-12.6-32.8l0.7,18.8v14.1
						H652v-42.6L661.7,203.7L661.7,203.7z"/>
					<path class="st1" d="M729,236.4h-16.5l-3.5,9.9h-7.7l16.1-42.6h6.6l16.1,42.6h-7.7L729,236.4z M714.5,230.4h12.4l-6.2-17.7
						L714.5,230.4z"/>
					<path class="st1" d="M760.7,229.9h-8.3v16.4H745v-42.6h15c4.9,0,8.7,1.1,11.4,3.3s4,5.4,4,9.6c0.1,2.5-0.6,5.1-2.1,7.2
						c-1.5,2-3.5,3.5-5.8,4.4l9.6,17.8v0.4h-7.9L760.7,229.9z M752.4,223.9h7.6c2.1,0.1,4.2-0.5,5.9-1.9c1.4-1.3,2.2-3.2,2.1-5.2
						c0.1-2-0.6-3.9-1.9-5.3c-1.3-1.2-3.2-1.9-5.8-1.9h-7.8L752.4,223.9L752.4,223.9z"/>
					<path class="st1" d="M794.7,227.9l-4.8,5.1v13.3h-7.4v-42.6h7.4v20l4.1-5.1l12.5-14.9h9l-15.8,18.9l16.8,23.8h-8.8L794.7,227.9
						z"/>
					<path class="st1" d="M845.2,227.3h-17.5v13.1h20.5v5.9h-27.9v-42.6H848v6h-20.3v11.8h17.5V227.3z"/>
					<path class="st1" d="M885.6,209.7h-13.3v36.7h-7.4v-36.7h-13.2v-6h33.8v6H885.6z"/>
					<path class="st1" d="M899,246.3h-7.4v-42.6h7.4V246.3z"/>
					<path class="st1" d="M941.9,246.3h-7.4l-19-30.3v30.3h-7.4v-42.6h7.4l19.1,30.4v-30.4h7.4L941.9,246.3L941.9,246.3z"/>
					<path class="st1" d="M983.4,240.8c-1.7,2.1-3.9,3.7-6.4,4.6c-3,1.1-6.1,1.6-9.3,1.6c-3.3,0.1-6.6-0.8-9.5-2.4
						c-2.8-1.6-5-4.1-6.4-7c-1.6-3.3-2.4-6.9-2.3-10.6v-3.3c0-6.4,1.5-11.5,4.6-15.1s7.4-5.4,12.9-5.4c4.7,0,8.5,1.2,11.3,3.5
						c2.8,2.4,4.5,5.7,5,10.1H976c-0.8-5.1-3.8-7.7-8.9-7.7c-3-0.2-5.8,1.2-7.6,3.6c-1.7,2.4-2.6,5.9-2.7,10.5v3.3
						c0,4.6,1,8.2,2.9,10.7s4.9,4,8.1,3.8c3.8,0,6.5-0.9,8.1-2.6v-8.3h-8.8v-5.6h16.2v16.3H983.4z"/>
					<path class="st1" d="M1039.1,240.8c-1.7,2.1-3.9,3.7-6.4,4.6c-3,1.1-6.1,1.6-9.3,1.6c-3.3,0.1-6.6-0.8-9.5-2.4
						c-2.8-1.6-5-4.1-6.4-7c-1.6-3.3-2.4-6.9-2.3-10.6v-3.3c0-6.4,1.5-11.5,4.6-15.1s7.4-5.4,12.9-5.4c4.7,0,8.5,1.2,11.3,3.5
						c2.8,2.4,4.5,5.7,5,10.1h-7.3c-0.8-5.1-3.8-7.7-8.9-7.7c-3-0.2-5.8,1.2-7.6,3.6c-1.7,2.4-2.6,5.9-2.7,10.5v3.3
						c0,4.6,1,8.2,2.9,10.7s4.9,4,8.1,3.8c3.8,0,6.5-0.9,8.1-2.6v-8.3h-8.8v-5.6h16.2L1039.1,240.8z"/>
					<path class="st1" d="M1063,229.9h-8.3v16.4h-7.4v-42.6h15c4.9,0,8.7,1.1,11.4,3.3c2.7,2.2,4,5.4,4,9.6c0.1,2.5-0.6,5.1-2.1,7.2
						c-1.5,2-3.5,3.5-5.8,4.4l9.6,17.8v0.4h-7.9L1063,229.9z M1054.7,223.9h7.6c2.1,0.1,4.2-0.5,5.9-1.9c1.4-1.3,2.2-3.2,2.1-5.2
						c0.1-2-0.6-3.9-1.9-5.3c-1.3-1.2-3.2-1.9-5.8-1.9h-7.8L1054.7,223.9L1054.7,223.9z"/>
					<path class="st1" d="M1118.7,226.1c0.1,3.8-0.7,7.5-2.2,11c-1.3,3-3.5,5.5-6.2,7.3c-5.7,3.4-12.8,3.4-18.5,0
						c-2.8-1.7-4.9-4.3-6.3-7.2c-1.5-3.4-2.3-7.1-2.2-10.8V224c-0.1-3.8,0.7-7.5,2.2-11c1.3-3,3.5-5.5,6.2-7.3
						c5.7-3.4,12.8-3.4,18.5,0c2.7,1.7,4.9,4.2,6.2,7.2c1.5,3.4,2.3,7.2,2.2,10.9v2.3H1118.7z M1111.3,223.9c0-4.7-0.9-8.3-2.7-10.9
						c-3.1-4.2-9.1-5-13.2-1.9c-0.7,0.5-1.3,1.2-1.9,1.9c-1.8,2.5-2.7,6.1-2.8,10.6v2.5c0,4.7,0.9,8.3,2.7,10.9
						c1.7,2.5,4.6,3.9,7.6,3.8c3,0.1,5.9-1.3,7.6-3.7c1.8-2.5,2.7-6.2,2.7-11L1111.3,223.9L1111.3,223.9z"/>
					<path class="st1" d="M1157.3,203.7v28.5c0,4.5-1.4,8.1-4.3,10.8c-2.9,2.6-6.8,4-11.6,4c-4.9,0-8.8-1.3-11.6-3.9
						c-2.9-2.6-4.3-6.2-4.3-10.9v-28.5h7.4v28.5c0,2.9,0.7,5,2.2,6.5c1.4,1.5,3.6,2.3,6.4,2.3c5.7,0,8.6-3,8.6-9v-28.3L1157.3,203.7
						L1157.3,203.7z"/>
					<path class="st1" d="M1172.6,230.5v15.8h-7.4v-42.6h16.3c4.8,0,8.5,1.2,11.3,3.7s4.3,6.1,4.2,9.9c0,4.2-1.4,7.4-4.1,9.8
						c-2.7,2.3-6.6,3.5-11.5,3.5h-8.8V230.5z M1172.6,224.5h8.9c2.2,0.2,4.3-0.5,6-1.9c1.5-1.4,2.2-3.4,2.1-5.4
						c0.1-2.1-0.7-4.1-2.1-5.5c-1.6-1.4-3.7-2.2-5.8-2.1h-9.1V224.5z"/>
				</g>
			</g>
		</g>
	</g>
</g>
</svg>
