<svg xmlns="http://www.w3.org/2000/svg" viewBox="0 0 199 209"><defs><style>.cls-1{fill:#f08e70;}.cls-2{fill:#d2e9f7;}.cls-3{fill:#fbda73;}.cls-4{fill:#3d5a80;}</style></defs><g id="Layer_2" data-name="Layer 2"><g id="Colored_details" data-name="Colored details"><path class="cls-1" d="M154.5,15.3392A12.8392,12.8392,0,0,0,141.6608,2.5H14.3392A12.8392,12.8392,0,0,0,1.5,15.3392V98.6608A12.8392,12.8392,0,0,0,14.3392,111.5h73.66l30.7175,29.02a.4643.4643,0,0,0,.7831-.3375V111.5l29.0045-.6546a6.1338,6.1338,0,0,0,5.9955-6.1323Z"/><path class="cls-2" d="M181.1812,48.5262a12.8567,12.8567,0,0,1,.3188,2.8129v83.3217A12.8392,12.8392,0,0,1,168.6608,147.5h-73.66L75.5,165.923v20.26a.4643.4643,0,0,0,.7831.3375l30.7175-29.02h73.66A12.8392,12.8392,0,0,0,193.5,144.6608V61.3391A12.8289,12.8289,0,0,0,181.1812,48.5262Z"/><circle class="cls-3" cx="185.5" cy="20.5" r="4"/></g><g id="icons"><path class="cls-4" d="M185,14a2,2,0,0,1-2-2V8a2,2,0,0,1,4,0v4A2,2,0,0,1,185,14Z"/><path class="cls-4" d="M185,33a2,2,0,0,1-2-2V27a2,2,0,0,1,4,0v4A2,2,0,0,1,185,33Z"/><path class="cls-4" d="M178,22h-4a2,2,0,0,1,0-4h4a2,2,0,0,1,0,4Z"/><path class="cls-4" d="M197,22h-4a2,2,0,0,1,0-4h4a2,2,0,0,1,0,4Z"/><path class="cls-4" d="M75.4648,189.17A2.4655,2.4655,0,0,1,73,186.7051V159.9707l-24.8955-.3633A10.298,10.298,0,0,1,38,149.3535V122a2,2,0,0,1,4,0v27.3535a6.2808,6.2808,0,0,0,6.1631,6.2539L77,156.0293v27.11L105.7046,156h74.4565A10.8512,10.8512,0,0,0,191,145.1611V61.8389A10.8512,10.8512,0,0,0,180.1611,51H169a2,2,0,0,1,0-4h11.1611A14.8551,14.8551,0,0,1,195,61.8389v83.3222A14.8551,14.8551,0,0,1,180.1611,160H107.2964L77.1572,188.4951A2.4613,2.4613,0,0,1,75.4648,189.17Z"/><path class="cls-4" d="M119.5356,142.1475a2.4642,2.4642,0,0,1-1.6928-.6748L87.7041,113H14.8394A14.8555,14.8555,0,0,1,0,98.1611V14.8389A14.8556,14.8556,0,0,1,14.8394,0H142.1611A14.8551,14.8551,0,0,1,157,14.8389v89.374a8.1811,8.1811,0,0,1-7.95,8.1318l-27.05.61v26.7275a2.4676,2.4676,0,0,1-2.4644,2.4649ZM14.8394,4A10.8513,10.8513,0,0,0,4,14.8389V98.1611A10.8513,10.8513,0,0,0,14.8394,109H89.2949L118,136.1182V109.0449l30.96-.6982a4.1591,4.1591,0,0,0,4.04-4.1338V14.8389A10.8512,10.8512,0,0,0,142.1611,4Z"/><path class="cls-4" d="M78,71a2,2,0,0,1-2-2V62.8311a13.0015,13.0015,0,0,1,5.7476-10.8L87.6,48.09A9.955,9.955,0,0,0,92,39.8213a14,14,0,0,0-28-.001V46a2,2,0,0,1-4,0V39.82a18,18,0,0,1,36,.001,13.9516,13.9516,0,0,1-6.166,11.5869L83.9819,55.35A9.0068,9.0068,0,0,0,80,62.8311V69A2,2,0,0,1,78,71Z"/><path class="cls-4" d="M78,85a2,2,0,0,1-2-2V80a2,2,0,0,1,4,0v3A2,2,0,0,1,78,85Z"/><path class="cls-4" d="M57,209H53a2,2,0,0,1,0-4h4a2,2,0,0,1,0,4Z"/><path class="cls-4" d="M78,209H74a2,2,0,0,1,0-4h4a2,2,0,0,1,0,4Z"/><path class="cls-4" d="M99,209H95a2,2,0,0,1,0-4h4a2,2,0,0,1,0,4Z"/><path class="cls-4" d="M119,209h-3a2,2,0,0,1,0-4h3a2,2,0,0,1,0,4Z"/><path class="cls-4" d="M140,209h-4a2,2,0,0,1,0-4h4a2,2,0,0,1,0,4Z"/></g></g></svg>