<svg xmlns="http://www.w3.org/2000/svg" viewBox="0 0 214 226.9909"><defs><style>.cls-1{fill:#fbda73;}.cls-2{fill:#f08e70;}.cls-3{fill:#d2e9f7;}.cls-4{fill:#3d5a80;}</style></defs><g id="Layer_2" data-name="Layer 2"><g id="Colored_details" data-name="Colored details"><path class="cls-1" d="M167.526,36.6751c0-24.4941-25.3425-43.0946-51.3439-31.2238a30.6117,30.6117,0,0,0-15.0637,15.0014c-7.6089,16.5251-2.7527,32.7582,8.1409,42.3555A12.3621,12.3621,0,0,1,113.5,72.0728V89.4909h38V72.446a13.44,13.44,0,0,1,4.5347-9.9424A34.7235,34.7235,0,0,0,167.526,36.6751Z"/><path class="cls-2" d="M123.5,51.1738V25.2782a1.3044,1.3044,0,0,1,1.96-1.128L147.7553,37.098a1.3044,1.3044,0,0,1,0,2.256L125.46,52.3019A1.3044,1.3044,0,0,1,123.5,51.1738Z"/><path class="cls-3" d="M28.5,140.4909l20.7179,8.7653a8.6541,8.6541,0,0,1,5.2821,7.97v52.9385a15.3261,15.3261,0,0,1-15.3261,15.3261H28.5Z"/></g><g id="icons"><path class="cls-4" d="M124.751,53.944A3.7658,3.7658,0,0,1,121,50.1862V26.3425a3.7512,3.7512,0,0,1,5.6118-3.2578l20.8838,11.9208a3.7519,3.7519,0,0,1,0,6.5167L126.6113,53.445A3.7553,3.7553,0,0,1,124.751,53.944ZM125,26.77V49.7585l20.1343-11.4942Z"/><path class="cls-4" d="M52,36.9909H49a2,2,0,0,1,0-4h3a2,2,0,0,1,0,4Z"/><path class="cls-4" d="M66,36.9909H63a2,2,0,0,1,0-4h3a2,2,0,0,1,0,4Z"/><path class="cls-4" d="M80,36.9909H77a2,2,0,0,1,0-4h3a2,2,0,0,1,0,4Z"/><path class="cls-4" d="M184,36.9909h-3a2,2,0,0,1,0-4h3a2,2,0,0,1,0,4Z"/><path class="cls-4" d="M198,36.9909h-3a2,2,0,0,1,0-4h3a2,2,0,0,1,0,4Z"/><path class="cls-4" d="M212,36.9909h-3a2,2,0,0,1,0-4h3a2,2,0,0,1,0,4Z"/><path class="cls-4" d="M132.5,118.7048a7.5083,7.5083,0,0,1-7.5-7.5v-1.2139a2,2,0,0,1,4,0v1.2139a3.5,3.5,0,0,0,7,0v-3.2139h10.7656a2.2778,2.2778,0,0,0,2.0655-1.3271l.2519-.5528a10.07,10.07,0,0,0,.917-4.2129V91.5934a.6031.6031,0,0,0-.6021-.6025H116.6021a.6031.6031,0,0,0-.6021.6025V102.447a10.2125,10.2125,0,0,0,.9331,4.248l.89,1.9287a2,2,0,1,1-3.6319,1.6758l-.89-1.9287A14.2319,14.2319,0,0,1,112,102.447V91.5934a4.6074,4.6074,0,0,1,4.6021-4.6025h32.7958A4.6074,4.6074,0,0,1,154,91.5934v10.3047a14.0491,14.0491,0,0,1-1.2783,5.875l-.2525.5528a6.2863,6.2863,0,0,1-5.7036,3.665H139.959A7.51,7.51,0,0,1,132.5,118.7048Z"/><path class="cls-4" d="M151,79.9909a2,2,0,0,1-2-2V72.6345a18.3447,18.3447,0,0,1,5.6987-13.2022,32.1444,32.1444,0,0,0-5.5815-50.8047c-10.0679-6.0859-22.353-6.1582-33.7051-.2A24.8878,24.8878,0,0,0,105,18.6227c-7.7886,14.4219-5.6523,30.4922,5.4429,40.9424A17.7346,17.7346,0,0,1,116,72.4206v5.57a2,2,0,1,1-4,0v-5.57a13.7171,13.7171,0,0,0-4.3-9.9434c-12.4541-11.73-14.896-29.69-6.22-45.7549A28.8741,28.8741,0,0,1,113.5532,4.8854c12.6221-6.623,26.3379-6.5078,37.6333.3194a36.1431,36.1431,0,0,1,6.272,57.122A14.3275,14.3275,0,0,0,153,72.6345v5.3564A2,2,0,0,1,151,79.9909Z"/><path class="cls-4" d="M39.0688,226.9909H16.9312A16.95,16.95,0,0,1,0,210.06V156.3727a10.2766,10.2766,0,0,1,6.3145-9.498l18.0366-7.5693a9.4812,9.4812,0,0,1,7.2978-.001l18.0366,7.57A10.2766,10.2766,0,0,1,56,156.3727V210.06A16.95,16.95,0,0,1,39.0688,226.9909ZM28,142.5729a5.4347,5.4347,0,0,0-2.1011.4209L7.8623,150.5622A6.2879,6.2879,0,0,0,4,156.3727V210.06a12.9456,12.9456,0,0,0,12.9312,12.9307H39.0688A12.9456,12.9456,0,0,0,52,210.06V156.3727a6.2879,6.2879,0,0,0-3.8623-5.8105l-18.0366-7.5693A5.45,5.45,0,0,0,28,142.5729Z"/><path class="cls-4" d="M28,175.9909a2,2,0,0,1-2-2v-23a2,2,0,0,1,4,0v23A2,2,0,0,1,28,175.9909Z"/><path class="cls-4" d="M41.4966,189.25a1.9937,1.9937,0,0,1-1.4141-.5859L28.3174,176.8991,16.5527,188.6638a2,2,0,1,1-2.8281-2.8282l14.5928-14.5927,14.5932,14.5927a2,2,0,0,1-1.414,3.4141Z"/><path class="cls-4" d="M105.3364,196.9909h-.6728A29.6977,29.6977,0,0,1,75,167.3268V113.4391A22.4737,22.4737,0,0,0,52.5518,90.9909h-.1944a22.4491,22.4491,0,0,0-22.4482,22.5254L30,139.9841a2,2,0,0,1-1.9932,2.0068H28a2,2,0,0,1-2-1.9932L25.9092,113.53A26.4477,26.4477,0,0,1,52.3574,86.9909h.1944A26.478,26.478,0,0,1,79,113.4391v53.8877a25.6928,25.6928,0,0,0,25.6636,25.6641h.6728A25.6928,25.6928,0,0,0,131,167.3268V126.9909a2,2,0,0,1,4,0v40.3359A29.6977,29.6977,0,0,1,105.3364,196.9909Z"/></g></g></svg>