<svg xmlns="http://www.w3.org/2000/svg" height="48" width="48"><path d="M11.95 17.3h18.4v-4.55q0-2.65-1.825-4.5T24 6.4q-2.65 0-4.5 1.85t-1.85 4.5h-2.2q0-3.55 2.5-6.025Q20.45 4.25 24 4.25t6.05 2.475q2.5 2.475 2.5 6.025v4.55h3.5q1.15 0 1.975.825.825.825.825 1.975v19.95q0 1.15-.825 1.975-.825.825-1.975.825h-24.1q-1.15 0-1.975-.825-.825-.825-.825-1.975V20.1q0-1.15.825-1.975.825-.825 1.975-.825Zm0 23.35h24.1q.25 0 .425-.175t.175-.425V20.1q0-.25-.175-.425t-.425-.175h-24.1q-.25 0-.425.175t-.175.425v19.95q0 .25.175.425t.425.175ZM24 33.4q1.4 0 2.375-.95.975-.95.975-2.3 0-1.3-.975-2.35T24 26.75q-1.4 0-2.375 1.05-.975 1.05-.975 2.35 0 1.35.975 2.3.975.95 2.375.95Zm-12.65 7.25V19.5 40.65Z"/></svg>