<?xml version="1.0" encoding="UTF-8"?>
<svg id="Layer_1" xmlns="http://www.w3.org/2000/svg" version="1.1" viewBox="0 0 472.1 468.3">
  <!-- Generator: Adobe Illustrator 29.0.0, SVG Export Plug-In . SVG Version: 2.1.0 Build 186)  -->
  <g id="Layer_2">
    <path d="M88.1,380.4h136c6.6,0,12,5.4,12,12h0c0,6.6-5.4,12-12,12H88.1c-6.6,0-12-5.4-12-12h0c0-6.6,5.4-12,12-12Z"/>
    <path d="M88.1,324.4h56c6.6,0,12,5.4,12,12h0c0,6.6-5.4,12-12,12h-56c-6.6,0-12-5.4-12-12h0c0-6.6,5.4-12,12-12Z"/>
    <path d="M210,295.3c-8.8,0-17.2-3.6-23.4-9.9-8.6-8.3-11.8-20.6-8.5-32l13-43c2.3-7.6,6.4-14.5,12-20.2L383.3,10.2c13.5-13.5,35.4-13.6,48.9,0,0,0,0,0,0,0l29.1,29.1c6.5,6.4,10.3,15,10.7,24.2.5,9.2-2.9,18.2-9.4,24.6l-180.5,181c-5.6,5.6-12.6,9.7-20.2,12l-43,13c-2.9.8-5.9,1.3-9,1.3h0ZM406.8,23.3c-2.4,0-4.7.9-6.4,2.6l-180.3,181c-2.8,2.8-4.8,6.3-5.9,10.1l-13,43c-.7,3.1.2,6.3,2.6,8.5,2.1,2.3,5.4,3.3,8.5,2.6l43-13c3.8-1.1,7.3-3.1,10.1-5.9l180.2-180.3c1.8-1.8,2.7-4.2,2.6-6.7-.2-3.2-1.6-6.2-4-8.3l-28.8-29.1c-2.3-2.3-5.4-3.6-8.6-3.7l.2-.6Z"/>
    <path d="M340.8,68.8l17-17,62.2,62.2-17,17-62.2-62.2Z"/>
    <path d="M351.3,468.4H56.9C25.5,468.4,0,443,0,411.6V117.2C0,85.8,25.5,60.4,56.9,60.4h167.2c6.6,0,12,5.4,12,12s-5.4,12-12,12H56.9c-17.7,0-32,14.3-32,32v294.4c0,17.7,14.3,32,32,32h294.4c17.7,0,32-14.3,32-32v-166.4c0-6.6,5.4-12,12-12s12,5.4,12,12v167.2c0,31.1-24.9,56.4-56,56.8Z"/>
  </g>
</svg>