<?xml version="1.0" encoding="UTF-8"?>
<svg id="Layer_2" data-name="Layer 2" xmlns="http://www.w3.org/2000/svg" viewBox="0 0 288.4 64.75">
  <defs>
    <style>
      .cls-1 {
        fill: #1588ab;
      }

      .cls-2 {
        fill: #232323;
      }
    </style>
  </defs>
  <g id="_레이어_1" data-name="레이어 1">
    <g>
      <g>
        <g>
          <g>
            <path class="cls-2" d="M134.45,24.02v-14.26h3.28v11.25h9.17v-11.25h3.28v14.26h-15.74ZM135.99,16.91v-3.01h12.66v3.01h-12.66ZM139.1,40.17v-13.44h3.42v10.4h14.2v-10.4h3.39v13.44h-21ZM141.33,33.33v-2.98h16.62v2.98h-16.62ZM149.02,18.1v-3.01h9.44v3.01h-9.44ZM156.72,25.08V8.42h3.39v16.66h-3.39Z"/>
            <path class="cls-2" d="M163.99,25.63v-2.63h29.83v2.63h-29.83ZM167.65,40.34v-7.59h19.12v-2.26h-19.29v-2.6h22.71v7.46h-19.12v2.33h19.94v2.67h-23.36ZM167.96,21.01v-7.25h18.47v-2.26h-18.61v-2.57h22.03v7.35h-18.47v2.19h19.12v2.53h-22.54ZM171.79,29.05v-4.62h3.32v4.62h-3.32ZM182.73,29.05v-4.62h3.32v4.62h-3.32Z"/>
            <path class="cls-2" d="M194.28,33.6c2.78-2.9,4.82-5.88,6.11-8.95,1.29-3.07,1.93-6.48,1.93-10.24v-4.14h3.35v4.14c0,4.1-.73,7.91-2.19,11.41-1.46,3.5-3.72,6.85-6.77,10.04l-2.43-2.26ZM217.06,40.17V8.42h3.42v31.74h-3.42ZM219.28,23.47v-3.11h6.09v3.11h-6.09Z"/>
            <path class="cls-2" d="M227.49,31.27v-3.11h29.83v3.11h-29.83ZM231.15,23.64v-13.72h22.54v13.72h-22.54ZM234.57,20.63h15.7v-7.73h-15.7v7.73ZM240.73,40.54v-11.77h3.39v11.77h-3.39Z"/>
            <path class="cls-2" d="M258.57,37.77v-3.11h29.83v3.11h-29.83ZM260.11,24.94c4.11-1.89,7.1-3.87,9-5.92,1.89-2.05,2.84-4.24,2.84-6.57v-2.39h3.42v2.39c0,3.01-1.1,5.8-3.3,8.38-2.2,2.58-5.67,4.93-10.41,7.05l-1.54-2.94ZM271.81,37.02v-10.12h3.39v10.12h-3.39Z"/>
            <path class="cls-2" d="M211.28,35.86c-3.06-3.19-5.31-6.54-6.77-10.04-1.46-3.5-2.19-7.3-2.19-11.41v-4.14h3.35v4.14c0,3.76.64,7.18,1.93,10.24,1.29,3.07,3.32,6.05,6.11,8.95l-2.43,2.26Z"/>
            <path class="cls-2" d="M285.66,27.89c-4.74-2.12-8.21-4.47-10.41-7.05-2.2-2.58-3.3-5.37-3.3-8.38v-2.39h3.42v2.39c0,2.33.95,4.52,2.84,6.57,1.89,2.05,4.89,4.02,9,5.92l-1.54,2.94Z"/>
          </g>
          <g>
            <path class="cls-2" d="M109.46,41.12v-5.04h8.07c1.91,0,3.46-1.55,3.46-3.46V8.57h6.02v25.55c0,4.85-3.52,7.01-7.5,7.01h-10.05Z"/>
            <g>
              <polygon class="cls-2" points="107.53 8.57 100.37 8.57 86.97 24.84 100.37 41.12 107.53 41.12 94.13 24.84 107.53 8.57"/>
              <rect class="cls-2" x="82.36" y="8.57" width="6.02" height="32.56"/>
            </g>
          </g>
        </g>
        <g>
          <path class="cls-2" d="M137.43,58.75v1.44h3.58c1.63,0,2.23-.72,2.23-2.65v-8.66h-1.82v8.57c0,.86-.44,1.3-1.3,1.3h-2.68Z"/>
          <polygon class="cls-2" points="151.36 48.88 149.53 48.88 149.53 60.19 156.75 60.19 156.75 58.75 151.36 58.75 151.36 48.88"/>
          <path class="cls-2" d="M162.01,48.88l-3.78,11.31h1.8l.86-2.71h4.42l.03.09.87,2.62h1.8l-3.94-11.31h-2.06ZM161.39,55.99l1.68-5.23,1.74,5.23h-3.42Z"/>
          <path class="cls-2" d="M194.66,48.68c-3.45,0-4.55.95-4.55,3.93v3.87c0,2.96,1.11,3.91,4.55,3.91s4.54-.95,4.54-3.91v-3.87c0-2.97-1.1-3.93-4.54-3.93ZM197.37,56.6c0,1.73-.71,2.34-2.71,2.34s-2.73-.61-2.73-2.34v-4.12c0-1.75.69-2.35,2.73-2.35s2.71.59,2.71,2.35v4.12Z"/>
          <polygon class="cls-2" points="208.84 54.2 203.09 54.2 203.09 50.33 209.06 50.33 209.06 48.88 201.27 48.88 201.27 60.19 203.09 60.19 203.09 55.66 208.84 55.66 208.84 54.2"/>
          <polygon class="cls-2" points="218.71 54.2 212.95 54.2 212.95 50.33 218.92 50.33 218.92 48.88 211.13 48.88 211.13 60.19 212.95 60.19 212.95 55.66 218.71 55.66 218.71 54.2"/>
          <rect class="cls-2" x="220.99" y="48.88" width="1.9" height="11.31"/>
          <path class="cls-2" d="M226.78,57v-4.91c0-1.24.54-1.75,1.86-1.75h4.38v-1.46h-4.99c-2.27,0-3.08.72-3.08,2.75v5.82c0,2.02.81,2.74,3.09,2.74h5.12v-1.44h-4.52c-1.32,0-1.86-.51-1.86-1.75Z"/>
          <polygon class="cls-2" points="237.07 55.22 242.82 55.22 242.82 53.76 237.07 53.76 237.07 50.33 243.03 50.33 243.03 48.88 235.24 48.88 235.24 60.19 243.17 60.19 243.17 58.75 237.07 58.75 237.07 55.22"/>
          <polygon class="cls-2" points="133.67 48.88 129.01 54.53 133.67 60.19 135.73 60.19 131.07 54.53 135.73 48.88 133.67 48.88"/>
          <rect class="cls-2" x="127.59" y="48.88" width="1.83" height="11.31"/>
          <g>
            <polygon class="cls-2" points="174.49 48.88 171.46 58.31 168.31 48.88 166.51 48.88 170.45 60.19 172.51 60.19 176.29 48.88 174.49 48.88"/>
            <polygon class="cls-2" points="182.47 48.88 179.44 58.31 176.29 48.88 174.49 48.88 178.43 60.19 180.49 60.19 184.27 48.88 182.47 48.88"/>
          </g>
        </g>
      </g>
      <path class="cls-1" d="M54.27,0v24.2c0,11.09-7.78,20.36-18.18,22.66l-5.74-6.71c8.51-.14,15.36-7.07,15.36-15.62V0H0v64.75h33.51L5.78,32.38l15.86-18.51c1.16-1.36,2.86-2.14,4.65-2.14h8.2l-17.69,20.65,24.59,28.7c2,2.33,4.91,3.67,7.98,3.67h15.38V0h-10.48Z"/>
    </g>
  </g>
</svg>