<?xml version="1.0" encoding="UTF-8"?>
<svg id="Layer_2" data-name="Layer 2" xmlns="http://www.w3.org/2000/svg" viewBox="0 0 122.7447509766 20.0159912109">
  <g id="_레이어_1" data-name="레이어 1">
    <g>
      <path d="M7.1043701172.3383789062c.7048339844,0,.9584350586,1.0993652344,1.1840209961,2.9318237305.1691894531,1.3813476562.8458251953,2.8755493164,2.9599609375,2.8755493164,1.4942016602,0,2.4810180664-.7611694336,2.4810180664-2.142578125C13.7293701172,1.6633911133,10.9666137695,0,7.6117553711,0,3.1293945312,0,0,2.960144043,0,7.4707641602s3.0166015625,7.4708251953,7.5835571289,7.4708251953c3.6086425781,0,6.3712158203-1.8605957031,6.3712158203-4.482421875,0-.451171875-.1126098633-.5919799805-.2536010742-.5919799805s-.2819824219.1408081055-.5637817383.4791870117c-.423034668.5073852539-1.325012207,1.3814086914-2.8474121094,1.3814086914-3.5239868164,0-4.4260253906-4.6516113281-4.4260253906-7.3580322266,0-1.8605957031.2536621094-4.0313720703,1.2404174805-4.0313720703Z"/>
      <path d="M22.6377563477,0c-4.7644042969,0-7.8936157227,2.960144043-7.8936157227,7.4707641602s3.1292114258,7.4708251953,7.8936157227,7.4708251953c4.7362060547,0,7.8654174805-2.9602050781,7.8654174805-7.4708251953S27.3739624023,0,22.6377563477,0ZM23.3143920898,14.5751953125c-2.0580444336,0-2.7064208984-6.5406494141-2.7064208984-9.6979980469,0-2.4244384766.2817993164-4.5106201172,1.3532104492-4.5106201172,2.0015869141,0,2.7064208984,6.625,2.7064208984,9.6978149414,0,3.1857910156-.5356445312,4.5108032227-1.3532104492,4.5108032227Z"/>
      <path d="M106.9857177734,14.2931518555c0-.1973876953-.1127929688-.3383789062-.2537841797-.4791870117-.225402832-.2255859375-.4227905273-.4793701172-.4227905273-.9586181641V4.2569580078c0-2.7627563477-1.8605957031-4.2569580078-4.3413696289-4.2569580078-1.8608398438,0-3.4958496094,1.0995483398-4.5672607422,2.8755493164v-1.4378051758c0-.7329711914-.4509887695-1.1557617188-1.1839599609-1.1557617188h-4.9616088867c-.2537841797,0-.451171875.1691894531-.451171875.3945922852,0,.1973876953.1127929688.3665771484.2819824219.5637817383.1973876953.2538452148.3945922852.5076293945.3945922852.9022216797v10.7127685547c0,.4792480469-.1972045898.7330322266-.4227905273.9586181641-.1409912109.1408081055-.2537841797.2817993164-.2537841797.4791870117,0,.2255859375.1409912109.366394043.3947753906.366394043h6.4840087891c.2537841797,0,.3947753906-.1408081055.3947753906-.366394043,0-.1973876953-.1127929688-.3383789062-.2537841797-.4791870117-.2255859375-.2255859375-.423034668-.4793701172-.423034668-.9586181641V3.467590332c.3948364258-.5920410156.9304199219-.9584350586,1.5788574219-.9584350586.817565918,0,1.4095458984.5920410156,1.4095458984,1.4658203125v8.8803710938c0,.4792480469-.1973876953.7330322266-.4227905273.9586181641-.1409912109.1408081055-.2537841797.2817993164-.2537841797.4791870117,0,.2255859375.1409912109.366394043.3945922852.366394043h6.4841918945c.2536010742,0,.3945922852-.1408081055.3945922852-.366394043Z"/>
      <path d="M55.7625732422,12.8553466797V4.3133544922c0-2.819152832-1.8607788086-4.3133544922-4.257019043-4.3133544922-1.9169921875,0-3.608581543,1.1839599609-4.5952148438,3.0166015625-.4791870117-1.973449707-2.0861816406-3.0166015625-4.0877685547-3.0166015625-1.8605957031,0-3.467590332,1.0995483398-4.482421875,2.8473510742v-1.4096069336c0-.7329711914-.451171875-1.1557617188-1.1841430664-1.1557617188h-4.9616699219c-.2537841797,0-.451171875.1691894531-.451171875.3945922852,0,.1973876953.1127929688.3665771484.2819824219.5637817383.1973876953.2538452148.3946533203.5076293945.3946533203.9022216797v10.7127685547c0,.4792480469-.197265625.7330322266-.4228515625.9586181641-.1409912109.1408081055-.2537841797.2817993164-.2537841797.4791870117,0,.2255859375.1409912109.366394043.3947753906.366394043h6.4840087891c.2537841797,0,.3948364258-.1408081055.3948364258-.366394043,0-.1973876953-.1127929688-.3383789062-.2538452148-.4791870117-.2255859375-.2255859375-.4227905273-.4793701172-.4227905273-.9586181641V3.467590332c.366394043-.5920410156.873840332-.9584350586,1.4376220703-.9584350586.7611694336,0,1.3533935547.5920410156,1.3533935547,1.5222167969v8.8239746094c0,.4792480469-.1973876953.7330322266-.4229736328.9586181641-.1410522461.1408081055-.2538452148.2817993164-.2538452148.4791870117,0,.2255859375.1409912109.366394043.3948364258.366394043h6.4840087891c.2537841797,0,.3947753906-.1408081055.3947753906-.366394043,0-.1973876953-.1127929688-.3383789062-.2537841797-.4791870117-.2256469727-.2255859375-.4228515625-.4793701172-.4228515625-.9586181641V4.3133544922c0-.2537841797-.0281982422-.5073852539-.0563964844-.7329711914.3946533203-.6766357422.9020385742-1.0712280273,1.5222167969-1.0712280273.7330322266,0,1.325012207.5920410156,1.325012207,1.5222167969v8.8239746094c0,.4792480469-.1972045898.7330322266-.4227905273.9586181641-.1409912109.1408081055-.2536010742.2817993164-.2536010742.4791870117,0,.2255859375.1408081055.366394043.3945922852.366394043h6.4840087891c.2537841797,0,.3947753906-.1408081055.3947753906-.366394043,0-.1973876953-.1127929688-.3383789062-.2537841797-.4791870117-.2255859375-.2255859375-.4227905273-.4793701172-.4227905273-.9586181641Z"/>
      <path d="M89.2535400391,13.4755859375c-.225402832-.1409912109-.4227905273-.3381958008-.4227905273-.9020385742v-7.2171630859c0-3.8621826172-3.0728149414-5.3563842773-6.9634399414-5.3563842773-3.9467773438,0-6.5686035156,1.5505981445-6.5686035156,3.7213745117,0,1.1840209961.7612304688,2.142578125,2.3964233398,2.142578125,1.973449707,0,2.3115844727-1.3249511719,2.4526367188-2.5091552734.2255859375-1.8323974609.4227905273-3.016418457,1.3814086914-3.016418457.676574707,0,1.3813476562.5637817383,1.3813476562,2.8192138672v3.185546875c-3.4111938477.0846557617-8.091003418,1.0994262695-8.091003418,4.8772583008,0,2.3115844727,1.7478027344,3.7211914062,4.2288208008,3.7211914062,1.69140625,0,3.157409668-.7330322266,4.2286376953-2.0298461914.5919799805,1.3532104492,1.8889770508,2.0298461914,3.6367797852,2.0298461914,1.6349487305,0,2.5935668945-.5920410156,2.5935668945-1.0994262695,0-.1691894531-.1127929688-.2819824219-.2537841797-.3665771484ZM82.6567382812,12.6015625c-1.1557617188,0-2.1423950195-1.3811645508-2.1423950195-3.3829956055,0-1.5786132812.6201782227-2.4807739258,1.4940185547-2.4807739258.3665771484,0,.676574707.1409912109.9021606445.3665771484v3.8903808594c0,.5638427734.0845947266,1.0712280273.2255859375,1.5223999023-.1409912109.0563964844-.3101806641.0844116211-.4793701172.0844116211Z"/>
      <path d="M113.244140625,18.3809814453c-.7045898438,0-1.1840209961-.8740234375-1.5786132812-1.6633911133-.4509887695-.9020385742-1.2122192383-1.69140625-2.5653686523-1.69140625-1.4660644531,0-2.3400268555.9021606445-2.3400268555,2.1707763672,0,1.8605957031,1.9169921875,2.8190307617,4.0878295898,2.8190307617,3.3829956055,0,4.3697509766-2.3680419922,5.1307983398-4.2286376953l5.2719726562-13.1655883789c.2536010742-.6201782227.676574707-1.1275634766,1.0430297852-1.3814086914.2819824219-.1972045898.4509887695-.3381958008.4509887695-.5637817383,0-.225402832-.1408081055-.3945922852-.366394043-.3945922852h-3.0729980469c-.2536010742,0-.4228515625.1691894531-.4228515625.3945922852,0,.1973876953.2256469727.3665771484.5356445312.5073852539.7329711914.3384399414,1.0431518555.7330322266.676574707,1.8608398438l-2.3961791992,7.2169799805-3.0166015625-7.6400146484c-.2536010742-.6483764648-.1690063477-1.0993652344.2255859375-1.3532104492.3101806641-.1972045898.5073852539-.3381958008.5073852539-.5919799805,0-.225402832-.1690063477-.3945922852-.3945922852-.3945922852h-7.5272216797c-.2537841797,0-.4227905273.1691894531-.4227905273.3945922852,0,.2819824219.1690063477.3947753906.4227905273.5637817383.3384399414.2256469727.5920410156.7894287109.8458251953,1.3532104492l6.5404052734,14.4060058594c-.4791870117.817565918-1.0711669922,1.3814086914-1.6351928711,1.3814086914Z"/>
      <path d="M68.3355712891,0c-1.5223999023,0-2.8756103516.817565918-3.9186401367,2.4527587891v-1.0150146484c0-.7329711914-.4509887695-1.1557617188-1.1839599609-1.1557617188h-4.9617919922c-.2536010742,0-.4510498047.1691894531-.4510498047.3945922852,0,.1973876953.1127929688.3665771484.282043457.5637817383.1972045898.2538452148.3945922852.5076293945.3945922852.9022216797v15.7874145508c0,.4791870117-.1973876953.7327880859-.4229736328.9583740234-.1408691406.1409912109-.2536621094.2819824219-.2536621094.4791870117,0,.2255859375.1409912109.3666381836.3946533203.3666381836h6.4841918945c.2536010742,0,.3945922852-.1410522461.3945922852-.3666381836,0-.1972045898-.1127929688-.3381958008-.2537841797-.4791870117-.225402832-.2255859375-.4228515625-.4791870117-.4228515625-.9583740234v-4.3698120117c.8176269531.9021606445,1.8323974609,1.3814086914,3.2702636719,1.3814086914,3.7775878906,0,6.2585449219-3.0166015625,6.2585449219-7.6400146484,0-4.3978271484-2.2271728516-7.301574707-5.610168457-7.301574707ZM66.7569580078,14.4905395508c-1.2124023438,0-1.917175293-2.0297851562-2.3400268555-4.2287597656V3.0166015625c.2256469727-.3948364258.5074462891-.5638427734.8740234375-.5638427734,2.142578125,0,2.8192138672,5.299987793,2.8192138672,7.7808227539,0,2.2271728516-.3101806641,4.2569580078-1.3532104492,4.2569580078Z"/>
    </g>
  </g>
</svg>