<?xml version="1.0" encoding="UTF-8"?>
<svg id="Layer_2" data-name="Layer 2" xmlns="http://www.w3.org/2000/svg" viewBox="0 0 327.1751985378 360.2561788424">
  <defs>
    <style>
      .cls-1 {
        fill: none;
        stroke: #000;
        stroke-miterlimit: 10;
        stroke-width: 4px;
      }
    </style>
  </defs>
  <g id="_레이어_1" data-name="레이어 1">
    <path class="cls-1" d="M319.5770335953,251.8882778608c-2.5449520198,0-5.5985422706,2.5445746917-9.1611480807,6.6161960609-10.6876916541,11.7055969964-32.0630749622,33.5899958637-74.8137158025,33.5899958637-94.6621782092,0-125.7077251571-111.9664432522-125.7077251571-175.0745620583,0-53.9473480535,11.1967072132-105.3502471913,46.3133724263-105.3502471913,24.9378633422,0,36.1345705554,25.9558944605,46.8222622095,70.2332046502,7.125085844,29.5185002705,25.4468789013,57.0010640804,67.6886299584,57.0010640804,34.0990114228,0,50.3848680195-18.8304312884,50.3848680195-46.3133724263,0-52.9293169352-55.9829071861-90.59055684-135.886275476-90.59055684C74.7779051179,2,2,72.7422202093,2,179.61913675c0,107.894821883,73.7958104602,178.6370420923,180.6727270009,178.6370420923,80.4123838492,0,142.5024715369-40.7152074837,142.5024715369-95.1711937683,0-7.125085844-2.0355591326-11.1967072132-5.5981649426-11.1967072132Z"/>
  </g>
</svg>