<?xml version="1.0" encoding="UTF-8"?>
<svg id="Layer_2" data-name="Layer 2" xmlns="http://www.w3.org/2000/svg" viewBox="0 0 156.8267822266 172.8799438477">
  <g id="_레이어_1" data-name="레이어 1">
    <path d="M154.110168457,121.2629394531c-1.2349853516,0-2.716796875,1.2348022461-4.4456176758,3.2106323242-5.1864013672,5.6803588867-15.5592041016,16.3001708984-36.3047485352,16.3001708984-45.9365844727,0-61.0020141602-54.3338012695-61.0020141602-84.958190918,0-26.1789550781,5.4334106445-51.1231689453,22.4744262695-51.1231689453,12.1015625,0,17.5349731445,12.5955810547,22.7213745117,34.0819702148,3.4575805664,14.3244018555,12.3485717773,27.6608276367,32.8471679688,27.6608276367,16.5471801758,0,24.4501953125-9.1378173828,24.4501953125-22.4744262695C154.8509521484,18.2758178711,127.6842041016,0,88.9096069336,0,35.3168334961,0,0,34.3289794922,0,86.1929931641c0,52.3579711914,35.8107910156,86.6869506836,87.6748046875,86.6869506836,39.0216064453,0,69.1519775391-19.7578125,69.1519775391-46.18359375,0-3.4575805664-.9877929688-5.4334106445-2.7166137695-5.4334106445Z"/>
  </g>
</svg>