<svg xmlns="http://www.w3.org/2000/svg" viewBox="0 0 819.54 354.46"><defs><style>.cls-1{fill:#de1d2b;}</style></defs><title>gd</title><g id="레이어_2" data-name="레이어 2"><g id="Layer_1" data-name="Layer 1"><path class="cls-1" d="M387.27,145.41c-3.24-27.93-21-57-37.14-74.95-18.37-20.54-40.32-38.19-68.63-51.33-48.32-23.54-104-24.82-149.14-6.79C92,32.1,42.55,67,0,106,58.87,142.62,137.87,246.28,154.09,268a1246.72,1246.72,0,0,1,106.54-82l14.18-9.61c8.86-5.47,18-16.06,21.16-24.33a57.36,57.36,0,0,0,3.76-16,68.37,68.37,0,0,0-15.92-49.59C276,77.31,266.74,70.18,254.72,64c-10.72-5.3-24.37-7.91-38.55-7.31-18.74.42-37.42,11.5-37.59,11.62-14.1,8.45-28.1,17.49-41.7,26.91,11.29,11.08,22.38,22.72,33.09,34.62,13.14-9,26.73-17.88,40.34-26.24,1.14-.67,10.3-5.11,17.47-4.43,7.68.72,14.34,3.91,18.35,8.75,5.55,7.09,7.73,19.08-.63,25.71-19,12.32-37.73,25.46-55.76,39l-25.9,20-.51.35L141,166.47c-25.12-28.83-46.86-51-68.48-69.8l-.56-.49.6-.48A749.78,749.78,0,0,1,156.9,37.52c35.19-18.24,80.78-12.92,110.34.41,28.63,12.89,64.87,42.33,72.73,82.76,1.63,8.8,2.84,19.66,1.81,28.79-2.58,23.37-7.71,38.45-24.1,53.89-10.66,10-90,64.11-135.48,103.33,11.29,16.06,22,32.11,31.75,47.76,43.34-37.8,84.61-69.41,126.26-96.61C402.14,218.35,388.21,156,387.27,145.41Z"/><path class="cls-1" d="M463.18,63.82c0-21.62,13.74-39.59,37.7-39.59,18.34,0,26.06,9.85,26.06,9.85l-8.67,11.57s-4.93-5.88-12.47-5.88c-10,0-26.34,4.12-26.34,23.45,0,21,17.52,24.5,27,24.5a24.68,24.68,0,0,0,7.19-1.15V72.86H502.9V58h25.22V95.54c-6.08,4.23-11.92,7.06-27,7.06C480.82,102.6,463.18,85,463.18,63.82Z"/><path class="cls-1" d="M537.6,63c0-24.32,17.65-38.09,37.24-38.09S612.09,38.8,612.09,63s-17.63,38.88-37.25,38.88S537.6,87.35,537.6,63Zm56.91,0c0-14.36-10.2-22.84-19.67-22.84S555.28,48.66,555.28,63s10.09,23.52,19.56,23.52S594.51,77.46,594.51,63Z"/><path class="cls-1" d="M620.92,63c0-24.32,17.63-38.09,37.24-38.09S695.41,38.8,695.41,63s-17.65,38.88-37.25,38.88S620.92,87.35,620.92,63Zm56.92,0c0-14.36-10.2-22.84-19.68-22.84S638.6,48.66,638.6,63s10.09,23.52,19.56,23.52S677.84,77.46,677.84,63Z"/><path class="cls-1" d="M706.39,24.92h19.86c25.57,0,43.26,11.81,43.26,38.61s-16.71,38.38-42.33,38.38H706.39ZM729.9,87c14.93,0,22.1-8.7,22.1-24,0-15.14-7.17-23.39-22.1-23.39H723V87Z"/><path class="cls-1" d="M537.72,128.06H581v15.13H554.14V157.3H577v15.35H554.14V188.8H582v15.32H537.72Z"/><path class="cls-1" d="M591.17,194.62,600.44,182c4.87,4.61,11.17,7.78,16.59,7.78,6.05,0,8.89-2.55,8.89-6.64,0-4.4-3.76-5.83-9.63-8.59l-8.71-4.09c-7.14-3.17-13.84-9.81-13.84-20.86,0-12.79,10.27-23,24.76-23a30,30,0,0,1,22.17,10l-8.16,11.44c-4.47-3.78-8.7-5.82-14-5.82-5,0-8.17,2.25-8.17,6.33s4.31,5.82,10.36,8.49l8.53,3.78c8.45,3.8,13.49,10.13,13.49,20.87,0,12.67-9.53,23.83-26,23.83A36.06,36.06,0,0,1,591.17,194.62Z"/><path class="cls-1" d="M654.08,128.06h16.4v76.06h-16.4Z"/><path class="cls-1" d="M759.63,128.28h18.46l18.75,36.42,7.41,16.88h.5c-1-8.08-2.44-19-2.44-28.13V128.28h17.23v76.08H801.11l-18.68-36.7L775.05,151h-.5c.79,8.49,2.33,18.93,2.33,28.12v25.25H759.63Z"/><path class="cls-1" d="M467.07,127.6H487c21.05,0,39.42,11.28,39.42,38.08s-18.37,38.9-38.52,38.9H467.07Zm18.85,62.09c11.15,0,23.48-5.69,23.48-24s-12.33-23.38-23.48-23.38H483.7v47.39Z"/><path class="cls-1" d="M681.36,166.73c0-22,14-40.34,38.41-40.34,18.72,0,26.56,10,26.56,10l-8.83,11.78s-5-6-12.72-6c-10.2,0-25.85,4.2-25.85,23.89,0,21.38,16.88,25,26.5,25a24.69,24.69,0,0,0,7.32-1.18V176H721.84V160.85h25.69v38.22c-6.21,4.3-12.14,7.2-27.47,7.2C699.31,206.27,681.36,188.3,681.36,166.73Z"/><path class="cls-1" d="M530,267.83c0-24.58,17.81-38.48,37.63-38.48s37.63,14,37.63,38.48-17.81,39.27-37.63,39.27S530,292.41,530,267.83Zm58.05.54c0-14.51-10.86-23.61-20.42-23.61s-20.32,9.13-20.32,23.62,10.75,23.21,20.32,23.21S588.07,283,588.07,268.37Z"/><polygon class="cls-1" points="525.45 230.22 526.02 229.47 508.07 229.47 483.24 261.98 483.24 229.47 467.07 229.47 467.07 306.56 483.24 306.56 483.24 284.84 492.7 272.76 512.02 306.32 512.14 306.56 530.02 306.56 502.38 259.92 525.45 230.22"/><path class="cls-1" d="M672.2,253c0-15.61-9.77-23.52-29.06-23.52h-27v77.09h16.18V277.73h9.85l15.63,28.83h18.08l-17.94-31.42C667.26,271.31,672.2,263.66,672.2,253Zm-39.91-10.55h9.4c10.27,0,14.67,3.15,14.67,10.55,0,7.71-5.07,11.77-14.67,11.77h-9.4Z"/><polygon class="cls-1" points="700.4 273.42 727.16 273.42 727.16 259.72 700.4 259.72 700.4 243.06 731.88 243.06 731.88 229.47 684.23 229.47 684.23 306.56 733.02 306.56 733.02 292.86 700.4 292.86 700.4 273.42"/><path class="cls-1" d="M784.8,229.79l-.11-.32H766.12L741.6,305.94l-.18.62h16.44L763.2,287h24l5.27,19.2.1.35h16.92Zm-9.68,12.76c.78,2.92,1.56,5.91,2.33,8.89,1.3,5,2.65,10.24,4.08,15l2.11,7.75H766.75l2.09-7.75C771.11,258.58,773.27,250.33,775.12,242.55Z"/></g></g></svg>