<svg xmlns="http://www.w3.org/2000/svg" viewBox="0 0 211.91 155.41"><defs><style>.cls-1{fill:#003763;}.cls-2{fill:#e4022d;}.cls-3{fill:#575756;}</style></defs><title>gv</title><g id="레이어_2" data-name="레이어 2"><g id="Layer_1" data-name="Layer 1"><path class="cls-1" d="M131.44,47.33c-8.62-5.85-19.65-3.46-25.44,5.34a17.89,17.89,0,0,1-32.35-4.92h0l0-.19-.06-.23a23,23,0,0,1-.91-7.11c0-16,16.45-33.89,40.16-33.89,24.27,0,38.16,18.47,41.73,28.74-.06-.18-.11-.36-.18-.54A51.11,51.11,0,0,0,54.87,51.11c0,25.23,18.19,46.83,43.44,46.83,20.13,0,33.66-11.29,39.87-26.85C141.58,62.59,139.17,52.59,131.44,47.33Z"/><path class="cls-2" d="M154.83,36.07c-3-10-17-29.74-42.05-29.74-23.71,0-40.16,17.85-40.16,33.89a23,23,0,0,0,.91,7.11,14.84,14.84,0,0,1-.47-3.64C73.06,27,89.79,15.41,107,15.41a42.14,42.14,0,0,1,42.14,42.14,46.46,46.46,0,0,1-25.75,41.62h0a51.12,51.12,0,0,0,33.71-48.07A50.33,50.33,0,0,0,154.83,36.07Z"/><path class="cls-3" d="M9,124.52,18.08,139l-2.9,1.84L9,130.74,3,141.08l-3-1.87ZM5.5,143.65v6.59H25.26v3.23H1.84v-9.82Zm19-.16H20.88V124.68H24.5v6.76h4.21V135H24.5Z"/><path class="cls-3" d="M46.79,132a6.28,6.28,0,0,1-.59,2.72A7.43,7.43,0,0,1,44.62,137a7.67,7.67,0,0,1-2.37,1.51,7.61,7.61,0,0,1-5.73,0A7.67,7.67,0,0,1,34.15,137a7.43,7.43,0,0,1-1.58-2.22A6.28,6.28,0,0,1,32,132a6.4,6.4,0,0,1,.59-2.74,6.87,6.87,0,0,1,1.58-2.2,7.53,7.53,0,0,1,10.47,0,6.87,6.87,0,0,1,1.58,2.2A6.4,6.4,0,0,1,46.79,132Zm-12.67,8.66H37.7v2.9H53.61v-2.9H57.2v12.78H34.12ZM43.3,132a3.93,3.93,0,0,0-3.92-3.92,3.7,3.7,0,0,0-2.74,1.15A3.8,3.8,0,0,0,35.5,132a3.9,3.9,0,0,0,7.8,0Zm10.31,14.42H37.7v4.05H53.61Zm-.06-21.77H57.2v14H53.55v-5.53h-5v-3.2h5Z"/><path class="cls-3" d="M89.21,141.48h-27v-3H73.9v-1.91H64.38V125H87v3H67.94v1.45H87v2.73H67.94v1.48H87.07v2.9H77.49v1.91H89.21Zm-6.29,7.21a6.06,6.06,0,0,1-.57,2.6,6.8,6.8,0,0,1-1.54,2.11,7.71,7.71,0,0,1-2.27,1.47,7,7,0,0,1-2.76.54,7.22,7.22,0,0,1-2.79-.54,7.68,7.68,0,0,1-2.29-1.47,6.94,6.94,0,0,1-1.53-2.11,6.06,6.06,0,0,1-.57-2.6,5.94,5.94,0,0,1,.57-2.58A7,7,0,0,1,70.7,144,7.49,7.49,0,0,1,73,142.55a7.22,7.22,0,0,1,2.79-.54,7,7,0,0,1,2.76.54A7.52,7.52,0,0,1,80.81,144a6.83,6.83,0,0,1,1.54,2.09A5.94,5.94,0,0,1,82.92,148.69Zm-3.52,0a3.51,3.51,0,0,0-1.06-2.55A3.44,3.44,0,0,0,75.78,145a3.65,3.65,0,0,0-3.66,3.62,3.42,3.42,0,0,0,1.07,2.53,3.52,3.52,0,0,0,2.59,1.06,3.62,3.62,0,0,0,3.62-3.59Z"/><path class="cls-3" d="M106.85,139.21l-6.12-8.93-6.09,9.16-2.93-1.94,9-13.18,9,12.88ZM115,147.8a6.53,6.53,0,0,1-.61,2.78,7.34,7.34,0,0,1-4,3.86,7.79,7.79,0,0,1-3,.57,7.92,7.92,0,0,1-3-.57,8,8,0,0,1-2.46-1.57,7.42,7.42,0,0,1-1.63-2.29,6.64,6.64,0,0,1,0-5.56,7.42,7.42,0,0,1,1.63-2.29,8,8,0,0,1,5.43-2.14,7.61,7.61,0,0,1,3,.58,7.88,7.88,0,0,1,2.45,1.56,8.06,8.06,0,0,1,1.6,2.29A6.56,6.56,0,0,1,115,147.8Zm-3.56,0a3.82,3.82,0,0,0-1.22-2.83,4,4,0,0,0-2.86-1.19,3.92,3.92,0,0,0-2.85,1.19,4,4,0,0,0,0,5.68,3.94,3.94,0,0,0,2.85,1.17,4,4,0,0,0,2.86-1.17A3.81,3.81,0,0,0,111.4,147.77Zm5-17.85h4.21v3.59h-4.21v6.22h-3.62v-15h3.62Z"/><path class="cls-3" d="M122.93,129.72V126.5h17.52v3.22h-7.38l8.17,19.2-3.2,1.39-6.29-15-6.19,15.25-3.29-1.39,8.16-19.43Zm24.27,24.34h-3.63V124.68h3.63v11.4h4.21v3.65H147.2Z"/><path class="cls-3" d="M165.44,141.61v3.95h-3.62v-3.95h-8v-3h19.6v3Zm-6.13,2.57v6.13h21v3.16H155.66v-9.29Zm11.1-13.27a5.87,5.87,0,0,1-.57,2.55,7.35,7.35,0,0,1-1.54,2.12,7.3,7.3,0,0,1-7.7,1.42,7.57,7.57,0,0,1-2.27-1.42,7.41,7.41,0,0,1-1.5-2.12,5.88,5.88,0,0,1-.58-2.55,5.8,5.8,0,0,1,.58-2.54,7.46,7.46,0,0,1,1.5-2.1,7.08,7.08,0,0,1,2.27-1.44,7.59,7.59,0,0,1,5.47,0,6.69,6.69,0,0,1,2.23,1.44,7.4,7.4,0,0,1,1.54,2.1A5.79,5.79,0,0,1,170.41,130.91Zm-3.45,0a3.41,3.41,0,0,0-1.06-2.52,3.7,3.7,0,0,0-5.14,0,3.55,3.55,0,0,0,0,5,3.7,3.7,0,0,0,5.14,0A3.41,3.41,0,0,0,167,130.94Zm8.92,5.07H171.7v-3h4.18v-8.34h3.62v21.21h-3.62Z"/><path class="cls-3" d="M184.9,143.24h27v3.22H200.22V154h-3.66v-7.58H184.9Zm5.77-14.36h15.44v-3.72h3.62v14.13H187.08V125.16h3.59ZM206.11,132H190.67v4.05h15.44Z"/></g></g></svg>