<svg xmlns="http://www.w3.org/2000/svg" viewBox="0 0 664 1008.3"><defs><style>.cls-1{fill:#ebebeb;stroke:#fff;stroke-linecap:round;stroke-linejoin:round;stroke-width:2px;}</style></defs><title>korea</title><g id="레이어_2" data-name="레이어 2"><g id="레이어_1-2" data-name="레이어 1"><g id="레이어_2-2" data-name="레이어 2"><g id="레이어_1-2-2" data-name="레이어 1-2"><path id="KOR99" class="cls-1" d="M200.1,1006.4l-1.3.9-1.7-.5-.6-.7v-1.6l1.1-3.1.5-.5,1.3,1.1-.1.5.6,1.5.2,2.4Zm255-217.6-1.3.6-.9-.2.2-1,1-.5,1.5-1.8.2.9.7.2v.8Zm-31.8-1.6.9.7-.7.9-1.8-1-2.4.4-1.1-1.7.9-1.3-.9-.4-.8-1.1.6-.5,1.8,1.7,2.4,2.1,1.1.2Zm-24.2-7.3,1.1,1.2.9-.7.9.4.5-.6,1.5.2.6.4L404,782l-1.4.2-3.2-.7-.3-1.6Zm-3.9-1.1-.5-.5-3.1-1-1-1.6,1.1-1.6,3.3.7,1.1,2.2v.9l-.9.9Zm49.9-9.3-.3.5h-2.9l-1-.3-2.5-1.4.5-.6,2.6-.8,1.1.6,2.5,2ZM412,767l.2.8-1.9-.6-.7-1.7.2-.9.7-.4,1.6.9.7,1Zm33.7-3.4,3.2,1.5,1.9-.3,1.5.7v1.1l-.9.4-1.4-.2-1.4-.9-3.4-.6-.7-1,1.2-.7Zm-4.8-8.4,1.1,3.9.7,1.1,1.2.4.6,1.8-.9,1.7-1.8,1-2.7-.4-.9-1,.4-.9-.2-1-1.2-2.2-.1-2.9,1.3,1.5.5-1.5-.4-.6v-1.2l1-1.2.7.2.1,1.2.6.1Zm-55.3-2.9h-.4l-1.2-2.6,2.2.4.5.7-.2,1.3-.9.2Zm9.6-1.9-1.7,1.5-2.7-4.1.7-1.4,1.7-.6,6.7,1.6-.1,1-2.1.4ZM446.7,733l-.6.3-.8-4.3.6-1.9-.6-1.6,3.1-1.9.2,2.1-1.4,2.4.7.8v2.2l-.2,1.1-1,.8Zm19.6-10.9-2.2,1.7-.4-.9-.8-.8-.8.3-.8.8-.5-.6.1-1.2,1.4-.7.2-.9-.6-.9,1.3-.6.9-.8v-1.3l1.6-.7.6-1,.8-.1.1,2.1-.5,1.8V720l-.4,2.1Zm-13.5-15.9.1,1.9-1.9-1.8-1.1-1.3,1.9-.2,1,1.4ZM148.5,565.4l-1.9,1.5-.6-.8.3-2,1.7-1.4,1.1,1.7Zm-26.4-7.3,1.1,1,1.2.6-1,.7-2.3.2-.9-1-.5,1.3-.6.6-.7-1V559l-.7-1.4-.1-1.1,2,.4.9,1Zm-14.3-4.7-1.6.7L105,554l.4-1.5,2.1-.3ZM46.2,499.7l-.4.9-.8.2.3,1.2-.9.6-1.1-.8-.5-1.4,1.4-1.4,2,.7Zm16.4-20.1-2.9,1.2-1.9-.4.9-1.3,1.2-1.3,2.1.3.6,1.5Zm42.5-21.1-.9,1.2-1.5-.9-1.5.6-.1-.5.7-2.1,1.1-1.1.6-1.9.7.4.5,2.3,1.1,1.2Zm10.8-9.5.8,2.2.7.9,2.7.6v.7l-1.3.6-9.9-2.7-.7-1.2.5-1.1h1l2.1,1,.8-.4.2-1.1,1.7-.5.8.1ZM60.6,390.5l-.5,1-.8.4-.7-.5-2.4,1.2-1.1-1,.8-.5,3.5-1.5.9-1.8.7.9ZM47.5,321.3l.9.4.5.9-2.6.2-1.2-1.5-.9-2.7h1.3l.9,1.4-.3.8,1.4.5Zm70.6-3.5-2.6.7-.7-.6-1-2.6.4-1,3.8,1,.5,1.6ZM42,309v1.4l-1.9-.2v1.3l-.2,1.3-1,.2v-.9l-.8-.6.1-1.3.7-.5.1-1.3.8-.2,2.2.8Zm19-3.5-1.5,4.7H58.2l-.6-.8,1.5-1.3-1.2-.6-.9.1,1-1.5,3-.6Zm48.1-1.7.6,3.5-1-1-.8-.3v-2.1ZM88.5,290.4l1.5,1.2.4,1.7.8.8.8,1.4-1.5-.6-.8-1.4H88.5l-1.4-.5-.8-1.6h1.4Zm-25-.7,1,1.3.4.9v2l-2.3-.1-.8-1.2-.4-1.8.3-1,1.8-.1Zm85.8-8.6.7,3.5-2.6-1.1-.7-1.7,1.1-1.4Zm-56.2-7.8,5.9,2,2-.4.4,1.1-1.1,1.7-1.8.3-1.5-.5-1.4-.8H94.5L92.2,275l.2-1.4.7-.3Zm23.5-20.6-1.8,1-2-.1-1.2-4.1-.8-.8-.1-1.3.7-1.7.9-.2,1.3,1,1.9,2.5,1.5,1.5-.4,2.2Zm5.1-28.2-.5.5-4.7-1.3-.6-1,1.4-1.5,1.3-.7.5-.7,1.1-.6,1.4.3.7,1-.2,3.2ZM101,221.7l-1,.4-.5-.7-1.1-2.9-1.5-2,1-.6,2.6,1.4,2.2,2.4,4.7.2.7.9-2,.8-5.1.1ZM2.2,206.5l-1.2.4.5-1.9,1.5-.6.3,1Zm86.6-4.9-.8.3L85.4,200l-1.9-2.4V197l4.1-.4.3.8-.2,2.9Zm-9.4-9.3.8,2.6-.4,1.3-1.3-.2L76,193.7l-2.3-.2-1.1-1.1,5.8-2ZM70,189.8l-.5,1.5-.6-.4-1.5-.2-.3-1.3,1.1-.5Zm14.7-5.9-.4.4-2.2-1.2,1-.5,1.9.1,1,1.1-1.3.1Z"/><path id="KOR2494" class="cls-1" d="M466.9,322.2l-1.9,2.2-2.1,1.3L461,325l-1.5.9-3.7,3.9-4,3.4-2.7,2.5-3.2,1.1-2,1.6-1.4,2.5-4.9,3.5-3.4,5-1.7,3.7-2,3.7,1.1,2,2.1,1.9-2.3,7.8L418.1,374l-5.6-1.8-2.4-4.8-3.7-3.2-2.7-1.9-2-2.3-2.1,2-1.6,2.6-.8,3.1-1.1,3.3-4.6-.4-4.9-1.7-2.5-1.7-2.7,1.8-2.6,3.5-3.2.2-2.5-1.6-1.9,3.2-2,4.3-1.1,4.1,3.1,3.9,2.3,4.4-11.3-1.7-6-2.7-3.4,5.2-5.6,2.6-4.9,3.3-.4,2.4.1,1.8-.9,2-3.5,4.8-2.3,2.5-2.3.4-2.4,1.1,1.8,4.5,6.2,1.1,7.7,11.3-2.8,2.8-1.6,4.5-.6,10.7-1,4.7,1,3.4,1.8,3.1-2.3,4.5-3.5,3.1.9,9.3,6.4-1.5,3.8,1.3,4.5,3.7,3.1,1.5,8.1-2,3.5,2.7,1.8,10.2-3.3-.2-3.8-.7-3.9,3.3.9,5.3.1,2.6-.4,3.3-1.5,1.8-1.2,2.2-1.4,5-2.4,4.8-4,1.4-3.8,1.8-2,2.2-2.1,1.8-2.3-1.2-2.3-2.2-5.8,2.6-5.1,3.1-2.6-.7-1.4-1.8-7.1-2.4-2.4-2.8-2.7-1.6-1,1.4-1.3.3-1.5-1.4-1.3-1.6-3.6-5.6-3.3-5.7-1.3-6.8.2-6.7-1.6-5.9-4.9-3-4.7-1.5-5.1,1.1-.4-5.6.3-5.4,1.9-7.6,3.5-6.5,1.5-3.3,1.6-2.9,2.6-2,.6-3.4-2-.7-2.2-1-2.7,2-2.1,2.8-1.6-5.2-.3-3.5-1.9-1.1.2-2.2-2.2-.5-1.8,2.6-5.1,1.2-4.8-1.4.6-3.4-.9-2.2-1.4-.7-1.1-1.2-.6-1.5.4-1.5.7-1.9.3-2.1-.3-2-.5-1.2.3-1.5.8-1.9.1-2.1-12-.8-11.7,2.4.7-6.1,2-5.7-.3-3.3,3.1-6.7,4.4-6.4,3.3-5.8,1.4-1.4,1.5.2,1.4-.4.8-1.5.3-1.7.4-2.2.8-2,.4-2.3-.3-2.2-1.1-2-1.3-1.2.2-4.1-2.1-1.4-2.7-5.5-2.1-1.3-1.9-1.9-1.3-3,7.1-2,6.8-3.3,5.2-1.8,1.5-5.8,2.5-2.8,4.1-1.7,1.9-2.5,1.3-3.3,2.5-2.6,3.1.6.9,1.2,3.9-2.8,7.6-14.1,1.7-3.2,2.5-1.9,1.3-1.9,1.1-2.1,16.7-4.6,16.8-2.3-1.4,9.6,4.9-1.2,4.8.4,2.7,1.5,1.2-1.1,1.1-1.3,3.2-2.2-.9-9.7,3-3.7,8.1-2.7,6,6.4V294l2,2.7,5.2-1.2,5.2-3,3.2-2.4,3.8.8,3.1-1.7,3.7-2.8,8.8,3.1,9,1.5,2.9.8-1.8,4.2-4.6,3.3-2.7,4.2,1.7,1.9,2.2,1.3h1.5l1.4-.7,4.8-1.6,7.5-.8,1.6,1.7-.3,2.8,3.2,3.3,1.1,2.6,2.9-.2,3.4-.6,3.8-1.2,3.8-.1,3.7,2.9,4.2,2.7,4.1.8,4.1.5,3.2,1.4,3.1,2Z"/><path id="KOR2495" class="cls-1" d="M138.8,226.7l1,2.4-.8.4-1.4,1-.5.7-2.8.6-1.2-.2-5.4,2.4-2,1.8-1.1,2-6.9,5.2-1.5-.3h-2.1l-.7-2.5-1.2-.8-.6.7-.8-1.9-1-.2-1.6,1.7-1.2-.6-1.7-.4,1-1-.3-1.1-1.7-1.6-.5-1.1.6-1.5,1-.2,1.3.6,7.2-5,5.1-.6,3.5.1,3.2-1.7,1.1-4.5,2.2-.8,1.9,1.9,2.7,1.2,1.8.2,1.3.7,1.2,1.6.9.8Zm22.7,25-.4-1.4-8.3-1-3.9,4.9-4-3,1.6-3.7,2.1-3.1-1.3-2.3-5.4-2.9.3-3.6-.5-2.9,1.6-2.7,4.5-1.3,1.4-.7.3-1.7-2.1-.6-.6,1.8-3.3.3-.8-2-.4-3.6.8-4.9,15.3-.5,9.4,9-.1,4.7,1.7,3.9,2.6,1.7,1.5,2.4-1.5,5-2.2,4.3-3.3,2.4-5,1.5Z"/><path id="KOR2496" class="cls-1" d="M589.2,402.5l-1.6-.1-5.3-1.2-5.1,2.3-10.9-4.1,1.7-4.7-.5-4.4-1.4-4.9-.4-5.5,2.1-5.3,1.7-4.9-1.2-1.5-1.4-1.3.7-4.5-11.6-.9-3.4-1.9-3.7-1.6-1.5-3.6-1.1-4.2-5.2-2.5-3.3-4.9-.7-6.5,1.1-4.9,2.7-2,3-1.1,4.6,1.8,3.8-2.8-1.6-4.6-4.9-3-5.4-1.2-4.3,2.2-4.2,1.1-5.8-2.7-6.2-1-2.1.8-1.7-.2-1.4-1.8-1.9-.8-4.5,3.5-4.7,1.9-.4-3.5.4-3.4-2.8-1.4-3-.7-2.2-3.9-4.4-.4-4.3,2.1-2.8,3.5,1,4.9-.5,4.5-.9,4.2-4.1-.3-4.7-1.1-3.9-1.6-4.1-2.2-3.1-2-3.2-1.4-4.1-.5-4.1-.8-4.2-2.7-3.7-2.9-3.8.1-3.8,1.2-3.4.6-2.9.2-1.1-2.6-3.2-3.3.3-2.8-1.6-1.7-7.5.8-4.8,1.6-1.4.7h-1.5l-2.2-1.3-1.7-1.9,2.7-4.2,4.6-3.3,1.8-4.2-2.9-.8-9-1.5-8.8-3.1-3.7,2.8-3.1,1.7-3.8-.8-3.2,2.4-5.2,3-5.2,1.2-2-2.7v-4.3l-6-6.4L354,286l-3,3.7.9,9.7-3.2,2.2-1.1,1.3-1.2,1.1-2.7-1.5-4.8-.4-4.9,1.2,1.4-9.6L318.6,296l-16.7,4.6,8.5-15.9,7.1-17.4,9.7-20.8,1.2-4.5-.9-4.5,2.1-3.6,2.9-3.6,3.2-1.3,1.6-3.5-1.8-3.1-2.3-2-3.8-.4-3.9-1.5-5.3-.7-8.9-4.9-4-1.7-4-2.6-4.3-.7-4.3,1.4-3.5-3,.3-3.3,1.7-3.4.6-3.9.1-4.1-4.2,1.4-1.9-2.4,4.6-5.5-.8-3.6-1.2-3.6.9-2.7-.1-3.3-.3-3.1,8.1-5.9,3.2-1.1L304,159l.8-8.1-3.7-5.8-3.1-.6-2.9-1.3-2.2-6-3.5-.1-3.8.2-4-3-2-5.3-.8-9.5-1.5-4.7-1.1-1-1.2.3-.9.8-1,.1-2.7-1.9-6.6,2.3-6.1-1.4-2.4-1.5-2.5-2.3-.1-3.8,1.2-3.6,1.6-2.6-1.1-.9-1.3-.3-1.3.2-1.1.9-2.1,2.7-2.4,2.4-3.6.6-3.1-2.1-.6-2-.3-2-1.1-.7-1.2,1.3-.4,2-.1,6.6-2,3.3-5.8-2.8-5.3-4.8-1.9-2-2,.3-1.7-2.6L216,97l-1.5-1.7-1.7-1.4-1.3-3.2-7.9-5-3.2-1.6,1-1.1,8.6-7.2,10.1-6.3,10.6-4.4L240.9,64l5.1.6,19.5-1.7,15,4.5,4.8-.4,9.3-2.8,30.5-2.7,1.3.9,2,2.9,1.9,2,2.2.5L343,65.6l16.6,1,10.8-.9,10.8-3.8,10.1-6.6,8.4-8.8,3.7-5.3,3.1-5.6,2-6.3.7-7.1-1.3-7-.4-3.5,1-2.6,4.3-3.4,9-4.7,12.1,24,1.5,6.4,3.7,9.7,14,27.7L464,97.9l1.8,3.1,5.6,7.1,2.2,5.9L500,151.8l10.2,14.9,12.3,13.6,1.7,1.4,8.2,9.7.5,4.1v4.9l1,4.2,5.6,3.1,1.6,3.4,4.6,15.1,2.1,3.4,2.5,1.5,2,2.2,7.2,14.2,4.4,5.4,1.5,3,.5,3.2,1.1,3.1,7.7,8.4,2.4,6.9,2.2,15.1,2.9,8.2,8.2,11.4.6,2.3-1,2.3-1.4,2.2-1,2.2v1.9l1.1,6.2,1.4,17.7,1.5,8.2,5.2,16.6.5,8.2-1.7,7.5-3.5,6.9-2.9,8.1Z"/><path id="KOR2497" class="cls-1" d="M225.6,211.4l-1.5,5.7,4.4-.1,3.7-1.3,3.2-.1,1.2,2.9-.4,3-2.2,1.1-2.4,1.6v3.6l1.3,1.5-2.7,3.7-1.5,2.6-4.1,2.4-4.5,1.1-4.7,2.3-1.8-4.1-3.9.9-4,1.2L203,241l-2.9.5-6.8-.3-4.7-6.1-4.6-1.4-3.1-2-.8-5.8-3.2-4.4-3.7-4.6,2.3-5.1,4.5.2,5,3.1,3.8-1.2,3.4-2.1.2-3.4.9-3.2,7.1-.7,3.7-4.6,2.2-4.8,3.2-3.3,4.9-1.2,5.7.4,2.7,4.7,1.1,6.4,1.6,4.4.1,4.9Z"/><path id="KOR2498" class="cls-1" d="M72.8,280.6l-.7,1.2-2,2.1-1.4.6-1.9.3-1.6-.7-1.4-2.9-1.5.8-.7-.2.5-4,.9-2.7,1.1-1.6,1.3.9,1.1,1.9,1.2.9,3.9,2.1,1.2,1.3Zm50.4-1.9-1.3,1.6-1.8.4-1.2-.9-1.3.1-1.1-.6-.3-2.5.3-2.6,1.3-1.8,2.8-1.5,3.6.3,1.6,1.1.6,2.4-.7.9-1.7.5-.6,1.3-.2,1.3Zm15.2-7.5.6,1.6,1.9,1.1,3,1.2.8.9.8,2.6-.8,1.8-8.1,6.5-3.7.4.1-1,1.7-2.3.2-1.4-.7-1.1,2-2.4.1-2.4-.8-2.9-1.2-2-1.2-1.4.4-.4,2.6,1.3,2.2-2,.5.2-.4,1.7Zm-32.3-75.7-3.2.2-10.7-8.4,1.4-1.2.6-1.6.9-3.8,1.3-2,.9-.7.9-.3.6.4.6,1.4.5,3.7,1,2,1,1.1,4.1,3.4,1.5,1.8.3,1.9-1.7,2.1ZM91.3,164.9l3,1.8,3.1-.1,2.9.5,1.5,1.6-1.1,3.6-2.8,2.4-3.4.3-6.6-1.5-3.3,1.6H83.1l-.6-2.2.3-.7,1.8-5.5,2-1.9,2.2-.6,2.5.7Zm40,37.3-1.8,4.2-1.6,1.4-1.2.2-.9-.5-1.7-1.8-1.2-.7-.8.3-1.3,1-8.3.5-3.1-1.5-3.3-4.3,4.9-1.3,1.2-.8,1.3-2.1-.2-.9-.9-.6-.8-1.1L106,183.4l-.4-1.7.6-2.1-.1-9.5.6-2.2,1.6-.5L112,163l2.9-.7,2.5,1.8,2.4,2.8,2.4,2.2,5.1,2.6,2,2,.8,3.2-.2,1.7-.8,2.7-.2,1.2.4,1.3,1.4,2.7.4,1.5.5,7.2-.5,1.7.8,1.1,1.4,3-2,1.2Zm170.6,98.4-1.1,2.1-1.3,1.9-2.5,1.9-1.7,3.2-7.6,14.1-3.9,2.8-.9-1.2-3.1-.6-2.5,2.6-1.3,3.3-1.9,2.5-4.1,1.7-2.5,2.8-1.5,5.8-5.2,1.8-6.8,3.3-7.1,2-7.4-1-6.1-5.1-6.9-3.1L213.4,347h-6.2l-7.5-1.5,2.1-1.6,2.4-1.1,1.7-1.9,1-4.8-.3-.9-1.7-2,.8-.8h1.7l2.2-1.3,1.4-.2,1-.7.5-2.3-9.5,2.7-1.4,2,.5,6.1-1.2,1.4-3.7,1.2-5.2-.7-6.2-3.6-5.6-5.6-2.2-5.3,9.5-1v-1.2l-2.1-1.5,1.7-.2,1.7.1,1.6.5,1.3,1.1-.6-3.8-2.2-3.4-1.6-3.8,1.2-5.3-1.8-.8-1.4,1.8-.8,3.2-.3,3.2-.8,3.5-1.5.8-1.5-1.5-3,.6-3,.8-7.3-2.2v-2.3l-.7-1.9.6-2.7-.3-3.4,1.8-3.4,2.2-3,2.5-1.2,2.7-1,4-.1,4.3-1.2.9-1.3.3-3.7-1-.7-2.2,1.2-3.3,2.9-2.1-.5-1.5-.9-.8-1.5v-2.4l-3.7,1.9-3.1,2.2-5.6,6.1-1.5,1.2-1.8.6h-1.7l-1-1.1V299l1-1.8,2.3-3.3-4.6,1.1-1.4-.5-.6-2.7.9-2,1.9-1.1,2.2-.8,1.6-.9,1.9-2.6-.5-.7-4.2.6-1.4-.9-1.1-2.1-1.1-2.7-1.2-2.5.7-.2,1.4-1.2,1.2.9,1.7-.1,3.1-.8,2.5.7,2.1,1.3,2.1.6,2.4-1.2-.2,2.3.2,2.1.8,1.7,1.5.7,1.7-.6.7-1.9.8-4.3,2.7-4,2.2.4,2.5,1.5,3.5-.6-.8-1.6-1-1.2-1.2-.8-1.5-.4h-2.2l-1-1.5-2.3-.4-1.9.6-1.9-.1-3-.6-5-1.6-6.9-5.2-.3-2.3,3-4.5,2.1-2.1,5-1.5,3.3-2.4,2.2-4.3,1.5-5-1.5-2.4-2.6-1.7-1.7-3.9.1-4.7-9.4-9-15.3.5-2-4.7-3-5.1-1.8-1.8-.1-2.7-.6-4-1.7-6.3-2.3-16.5.6-2.7,2.1-.4,8.7,3.2,2.8-.6,2.3-1.1,2.1-.4,2.1,1.4.8,2.4.3,3.6-.2,3.8-.9,2.6-.1,4.7,4.9,4.1,6.2,2.6,3.8.2-3-3.1-9.1-6.6,2.6-7.1.8-4.2-.6-3-1.5-3.1-.3-4.1.7-4,1.6-3.2-1.2-1.5-1.5.2-2.4,1.7-1.1-17.3.8-4.7,1.9-1.4,3-.4,4-1.5,6.3-5.1,13.6-20.7,2.7-2.8,6.1-4.7,2.6-3.1,5.4-13.3,1.9-2.5,3.2,1.6,7.9,5,1.3,3.2,1.7,1.4L216,97l1.1,3.3,1.7,2.6,2-.3,1.9,2,5.3,4.8,5.8,2.8,2-3.3.1-6.6.4-2,1.2-1.3,1.1.7.3,2,.6,2,3.1,2.1,3.6-.6,2.4-2.4,2.1-2.7,1.1-.9,1.3-.2,1.3.3,1.1.9-1.6,2.6-1.2,3.6.1,3.8,2.5,2.3,2.4,1.5,6.1,1.4,6.6-2.3,2.7,1.9,1-.1.9-.8,1.2-.3,1.1,1,1.5,4.7.8,9.5,2,5.3,4,3,3.8-.2,3.5.1,2.2,6,2.9,1.3,3.1.6,3.7,5.8L304,159l-1.8,2.8-3.2,1.1-8.1,5.9.3,3.1.1,3.3-.9,2.7,1.2,3.6.8,3.6-4.6,5.5,1.9,2.4,4.2-1.4-.1,4.1-.6,3.9-1.7,3.4-.3,3.3,3.5,3,4.3-1.4,4.3.7,4,2.6,4,1.7,8.9,4.9,5.3.7,3.9,1.5,3.8.4,2.3,2,1.8,3.1-1.6,3.5-3.2,1.3-2.9,3.6-2.1,3.6.9,4.5-1.2,4.5-9.7,20.8-7.1,17.4-8.5,15.9Zm-76.3-89.2-.1-4.9-1.6-4.4-1.1-6.4-2.7-4.7-5.7-.4-4.9,1.2-3.2,3.3-2.2,4.8-3.7,4.6-7.1.7-.9,3.2-.2,3.4-3.4,2.1-3.8,1.2-5-3.1-4.5-.2-2.3,5.1,3.7,4.6,3.2,4.4.8,5.8,3.1,2,4.6,1.4,4.7,6.1,6.8.3,2.9-.5,2.7-1.6,4-1.2,3.9-.9,1.8,4.1,4.7-2.3,4.5-1.1,4.1-2.4,1.5-2.6,2.7-3.7-1.3-1.5v-3.6l2.4-1.6,2.2-1.1.4-3-1.2-2.9-3.2.1-3.7,1.3-4.4.1,1.5-5.7Z"/><path id="KOR2499" class="cls-1" d="M96.2,598.6l.3,1.1-.6,1.5L93,603.7l-1.9,2.2-1.8,1.4-.9.2-.7-.7-.5-1.3.3-1.2,1.7-.9-1-.8,1.2-1,.6-.8,1.5-.4-.2-1.1,2.4.4,1.8-1.7Zm207.6-80.7,1.3,1.6,1.5,1.4,1.3-.3,1-1.4,2.7,1.6,2.4,2.8,7.1,2.4,1.4,1.8,2.6.7,5.1-3.1,5.8-2.6,2.3,2.2,2.3,1.2,2.1-1.8,2-2.2,6.5,11.1-.8,12.5-5.8,6.2-1.5,4.1-7.9,4.2-3.9,1.2-2.1-.2-1.6,1-3,6.4-3.4,3.6-3.6,3.2-1.8,5.1-.4,6-2,4.4-2.5,4.6-1.8,5.9-1.4,6-2.2,4.6-.1,4.9,4,1.7.6,2.1.3,2.5,1.8,4.6-.3,4.9,1.6,3.7,2.3,1.5-1,5.4-6.6,7.9-1,5.2-.3,4.8-3.3,3.4-9-7.3-10.1-3.7-5.8,3.2-4.6,5-4.9.7h-5.3l-5.7.8-5.9-.1-2.7-1.6-2.4-1.9-2.7.7h-3.3l-4.8.8-4.5,2.7-5.9-.9-3.8-4,.2-6.4L219,649l-.9-3.6,1.4-5.6-3.2-4.9-4.7.3-1.1,2-1.6,1.5-1,2.6-.4,2.7-4.8.1L195.2,634l-4.8-4-2.8-1.1-2.8-.2-2.7,3.1-5.3-.5-4,3.5v2.7l.1,2.6-1.4,2.2-2,1.5.1,2,.3,2-1.3,2.8-2.1,1.8-2.6,1.3-2.7.7-2.3,1.4-2.1,1.6-5.3.8-5.1,1.8-4.7,1.2-3.9-1.3.2-5.3,1-5.2.9-7.1-4.5-1.2L120,645.4l-3.3,1-2.2-2.5-.7-2,1.1-4.6,2.7-5.7,4.3-10,3.6-5.3,5.2-1.8,5.9-1.2,5-.3,2.3-1.9,2.3-3.2,3.1-.8,2.8,3.2,2.9,3.6,2.1.7-2-7.3-1.5-3.3-2.4-1.4-22.4,3.7-7.8-4.9.6-7.3,3.7-1.9,3.2-3.2,3-3.4,4.7-2.8,5.9-3.2,4.4-6.2.7-5.8,4.2-2.6,1-.8,5.6-.6,5.6.7,3.5,2.7,2.5.6,1.7,3,.7-1.6.5-2.2.2-2.3-3.5-2.8-3.1-1.5-3.4-2.3-2.8-2.1-1.4-.8.4-1.7,1.3-1.8,1.3-1.1,1.4-.3,8.9.6,1.9-.2,1.4-.7,1-1.8.4-1.4.7-1,2.2-.4.7-.6-.8-1.5-1.7-1.4-1.9-.7-.5.4-11.6,4.7-3.9.2-7.7-.5-7.5-.6-.1-3.4-.5-4.6-1.5-1.3-4.7-1.6-6.9,1.1-.7-5.9,14.3-1.6,7.8-1,7.9-.4,2.6-1.6,2.7.8,3.3-1.7,5.8-4.4,7.4-3,3.2-2.2.3-2.8-9.3,2.8,7.1-8.8,7.6-.8,8.9-1.9,16.4-5.2,5.8,1.2-1.4,8.6,3.4,5.3,4.6-.9,4.5-1.7,8.7-1.7,2.3-.8,2.2-1,3.3-.7,2.2-3.3,2.6-2.7,5.1,4.5,7.1,12.8,5.2,2.6,2.1.6.9,1.9-1.1,2.2.6,1.6,9.2,1.2,3.4-.8,4.7-.2,4.7-1.3,3.8-3.4,3.8-3.8Z"/><path id="KOR2500" class="cls-1" d="M195.4,668.9l8.1,3.1,3.2,8.9-6.2,8.3-9.8-1.6-8.6-5.2-4.3-9.5,3.4-3.2,5.7,1.5,4.1-1,4.4-1.3Z"/><path id="KOR2502" class="cls-1" d="M111.6,429.5l-.3,2.2.4,1.9,1.2,3.6,2.2,3.3.9,3.1-1.6-.7-7,.4-2.3-.4-.4-2.9.8-1,1.2-1.2.6-1.7-3.7,2.4-1.8-.9.5-2.9,2.8-4-1-1.2-2.2,2.6-.7-1.8-1.7.9.9-4.7-.6-7.3-.8-4.3-1.6-5.5,1.4-1.8,2.8-2.6,3-1.1,2.1,3.4.3,1.2-.7,1.5-1.2.9.1,1.4,2.7,6,.4,2-.7,1.6.8,1.4,1.8,1.1,1.4,2.4h-3.3V428l1.1.2,2.2,1.3Zm88.1-84,7.5,1.5h6.2l13.1-5.6,6.9,3.1,6.1,5.1,7.4,1,1.3,3,1.9,1.9,2.1,1.3,2.7,5.5,2.1,1.4-.2,4.1,1.3,1.2,1.1,2,.3,2.2-.4,2.3-.8,2-.4,2.2-.3,1.7-.8,1.5-1.4.4-1.5-.2-1.4,1.4-3.3,5.8-4.4,6.4-22.5-9-3.7,10.2.5,29.9-2.4,2.3-1.4,4.1,14.4,2.9,10.8-3,8.4,13.3,2.9,5.6.8,14.3,3.3,10.7,7.8-2.1,6.9-5.1,2.3-.8,4.1-3.3,2.3-8.5,2.1-3.4.7-4.6,2.1-2.8,2.7-2,2.2,1,2,.7-.6,3.4-2.6,2-1.6,2.9-1.5,3.3-3.5,6.5-1.9,7.6-.3,5.4.4,5.6,5.1-1.1,4.7,1.5,4.9,3,1.6,5.9-.2,6.7,1.3,6.8,3.3,5.7,3.6,5.6-3.8,3.8-3.8,3.4-4.7,1.3-4.7.2-3.4.8-9.2-1.2-.6-1.6,1.1-2.2-.9-1.9-2.1-.6-5.2-2.6-7.1-12.8-5.1-4.5-2.6,2.7-2.2,3.3-3.3.7-2.2,1-2.3.8-8.7,1.7-4.5,1.7-4.6.9-3.4-5.3,1.4-8.6-5.8-1.2-16.4,5.2-8.9,1.9-7.6.8-7.1,8.8-3.3,1-3.2,2.2-2.7,2.6-2.9,1.4-3.5.6-3.4,1.5-2.4-1.2-.8-1.3-.2-1.8-.9-2.5-1.3-2.1-2.6-3.5-1.5-2.4,2.2-1.8-1-1.2-4.1-1.6-3.7-6.2-2.7-1.2-2.1,1.2h-1l-.1-2.2-3.6-2.3-3.1.5-.9,3.7-.6,1.3-1-1,.6-5.8,5.4-2.7,4.7-1.5L143,490l-2.3-3.9-1.3-1.5-1.8-1.3-1.1-.2-1.2.7-.9-.5-1.2-1.3-1-1.4,3.3-9.1,1.9-4.1,2.4-1.5-1.8-2.2-6.7-2-2.4-1.3,2.4-2.2,7-1.7,1.5-2.1-1.1-2.6-2.5-.6-5.2-.1-1-.7-1.9-2.3-1.3-1.1v-1.4h2.1l-2.4-4.4,2.9-1.6,3.2-1,3.1-4.4,6.5-1.8,3.1-1.7H136l-2.2,1.3-3.4,5.1-2.5.5-1.6-1.9-1.4-3.7-.9-3.7.1-2.2,3.3-3.9,1.5-2.4-.5-1.1-3,1.1-1.4-1.2-1.3-.9-.7-.1-.7-1.8.7-1.7-.2-1.8-.8-3.4-.9-1.4-.1-.9,2.2-.1,3.1-1.5,3.3.1.3-2.4.9-2.1-1.3-1.7-1.8-.4-2.6-2.5,1.6-2.3,2.3-1.8-1.5-2.8-3.8-.7-.8-3.3,1.2-2.4,3.7-.6-2.1-2.4-.7-1.2-.5-1.8-1.4,1.2-2.2,2.4-2.5,1.1-.5,1.4.1,1.4,1.1,1.7.2,3.3-1.2,3.9.7,5.2-1.7,4.4-1.4,1.8-2.9-2.3-3.1-.1-3-2.1.7-10.6,1-3.9-1.8-.8.5-5-1.7-2.1-2.5.5-1.5,2.5-.4,3.2-1.1,2.3-3.6.1,1.5,3,2.9,4.6,1,3.3L99,398.6l.2,1.6,2.7,3.6-2.5.5-2,1.2-1.7,1.6-1.4,2.1v-1.5l-.5-2.8-.6-1.1,2.2-4.8-4.6-7.7,1.4-3.8L91,382.1l-3,1.7-4.1,5.3-3.1,1.1-1.9.4-1.6.6-1.6.1-1.9-1.1-1.1-2.8-.3-1.8.8-.8,6.5.1,1.7-1.2-.1-2.9-1.7-3.1-2.4-1.2-2.5-.8L72.6,374l-.8,2.4-.5,4.9-.9,2.3-1.8,1.7-.6-1.6.2-5-.3-4.8.4-1.3,4.1-5.2.8-1.8.6-2.5.5,1.9,1.5,3.4,1.1,1.6.8-.8,1.1.1,2.5.7-1.6-2.4-1.7-3,4.5,1.3,1.9-.5,1.2-2.3-4.1-.3L79,361.7l-.3-2.5,2.6-4.2-3.5-3,.2-2.7,2.7-2.3,3.9-1.4-1,4.9.4,1.3,2.1.5,4-.1,1-.7,1.1-1.8.2-4.5-.4-5.9.8-4.9,3.7-1.2L96,336l.1,4.2.7,4.4,2,5.2-1,1.8-1.5,1.7-1,1.7v1.8l1,2.9.2.8-.9,1-3.4,2.3.1,1.7.5,1.8.9,1.1,1.1-.5,2.7-2.5h2l4.5,3.1-3.3-7.1L99.6,357l1.7-2,2.5,3.3,1.6,1,.7-2.2.7-.6,1.6-.7,3.2-.8v-1.2l-1.3-.2-3-1.3v-1.2l3.8-.9,2.2-3.7.6-4.4-1.2-3.3-1.4-.5-4.2-.1-2-.8-1.5-1.9-.5-1.8.7-.6,2.3,1.6,1-3.1-1.1-1.8-2.4-.7-2.9.2,1.2-1.5,1.5-1.1,1.7-.3,1.6.9,1.5,1.1,1.3.3.6-.6-.7-1.5v-1.5l5.9-.1,2.8,1,1.1,2.6-.8,1.6-1.5,1.7-.9,2.3,1,3.2,1.4-1.4,1.8-1,1.5.1.7,1.6.2,1.4.7,1.3.2,1.3-1.8,2.3-.4,1.2V353l.5,2.6,1.2,1.8,1.1.7.6-1,.6-4.9,2.9-9.5.7-4.6.8-1.1,1.9,1.3,2.8,3,1.1,2.2.8,2,1.2,1.3,2.3.1v-1.3l-1.2-1.5-1.3-4-1.3-2-9.7-10.3-.6-.5.5-2.2,1.3.3,1.7,1.5,2.5,3.2,1.3,1.1,1.7.8h1.9l1.5-.9.1-1.3-1-1.3-2.3-.6-3-1.4-3.3-3.1-1.4-4.6-.4-3.1h2.9l2.5,1.2,2.3,2,6.2,4.3,1.2,1.3,2.4,1.7,2.3,1.2,1.6,2.7-.7,2.7-1.6,1.8.4,1.5,1.5,3,.2,1.8-.6,3.3,1.8-1.2.7-1.5.4-1.6-.6-4.9.6-1.6,2.5-4.5,2.6-1.2h2.5l2.7.3,3,1.2,3.9,1,2.7,1.8,3.4,3.4.2,4.3-2.5,8.5,1.9-1.2,3-3.9,1.6-.3,1.1,1.7.7,2.9.3,5.6-.1,1.2-.8,2.7-.1,1.6.3,1.6,1.4,2.4,1.3,6.1-.4,1.8-2.6.8.5,1.7.6,1.1.9.8,1.3.6.9-4.5,1.6-2.6.8-2.8-1.3-5,3.2,1,3.3.4-5.4-6.1-1.6-3.3,3.2-1.4,2.9-.5,6.9-2.8,3-2.3Z"/><path id="KOR2503" class="cls-1" d="M261.6,429.6l-.4,1.5.6,1.5,1.1,1.2,1.4.7.9,2.2-.6,3.4,4.8,1.4,5.1-1.2,1.8-2.6,2.2.5-.2,2.2,1.9,1.1.3,3.5,1.6,5.2-.7,4.6-2.1,3.4-2.3,8.5-4.1,3.3-2.3.8-6.9,5.1-7.8,2.1-3.3-10.7-.8-14.3-2.9-5.6-8.4-13.3,17.5-4.8,3.6.3Z"/><path id="KOR2504" class="cls-1" d="M483.8,550.7l-2.5,2.6-1.1-.4-1.5.1v1.3l-.2,1.7-1.5,3.9v1.2l-.4,1.9-3.6,2.1-9.1-2.4-5.1-.5-2.3,1.8-2.2,4-1.3,1-1.4-1.2-2-1.3-2.8-2.3-1.8-3.6-2.3-2.3-2.5-.9-.9-3.6,2.1-3.1h2.4l2.6-.4.6-1.9.3-1.9-1.4-.5-1.5-.3,1.7-3.8,2.8-3-1-8.9,7.4-6.2,10.1-1.4,8.3-.5,6.4,4.6,2,3.5-.1,1.6-.8,1.3.1,4.9,1.3,2,1.7,1.4.3,3.1.1,3.3-.9,3.1Z"/><path id="KOR2505" class="cls-1" d="M407,789.2h.7l3-1.4.4.4-.3,1-1.5,1.9-1.7.6-1.5-.3-1.2.2-1.7.8-.8.8-1,.2-.1-.7.5-1.3-.1-1-.7-.7-1.3-.6.5-1.9v-1l.7-.6,1-.3L407,788Zm17-36.8,1.1.6,1.5-.6,2.4-.7,2.8-.1,1.6,1.5.4,2.5-.9,1.5.6.9-.7,1.2-1.6-.6-.6.8,1.3.3,1.3,1.1-.6,1.1-1.6,2-2.6.1-1.2-1.5-.6-1.5-1.3-.1.3-1.2-.4-1.3-2.1-.3-.7-.6,1.5-1.2.3-1.4-1.5-1.3-2.9-.9-1.8.5h-1.1l-.3-1.3,1.3-1.4,1.8-.5,2.5,1Zm-21.7,4.5-.5.5-2.4-.8-1.8-1.2-1-1.6.2-1,1.1-1.8,2.1-1.6,2,.5,2.4,2.6.9,1.5-.7,1.1h-1.7l-.8.4.2,1.4Zm-36.1-13.4.8.6.9-2.1,1.9-3,1.5-.2.5,1.3,1.6,1.3.3,2.3.9,3.2,1.6,1.8.9,1.3-1.7.4-7.2-1.9-3.9,1.3-2.3-.3-2.3-1.4-1.4-2.8,1.1-3,2.1-2.8,1.4-2.6,1.5-1.9,2.5-.6.8,2.1-1.1,3.1-.6,2.1.2,1.8Zm-10.1,8.6,1.9,3.4,3.1-.5,3.9-1.6,3.6-.7,5.4.9,1.1.4.8,2.2-.5,1.9-.9,2-.4,2.5.4,4-.1,2.3-.9,1-1.3.7,1.4,3.9-.7,2-2.4.4-2.4-1.4-2.5-1.1-2.9,1.4-2.6.3-1.5-3.7-1.8-7.8-2.6-1.4-2.1,1.5-1.4,3.2-.5,4-1,1.7-2.2.1-2.4-.8-1.4-1-1-1.7-.3-3.1-.3-2.5-4.4-14.2-.6-3.5.4-3.3,1.9-3.5,1.2-.9,1.2-.2,1-.7.7-4.2.9-1.3,2.6-2,2.1-1,2.4.8,2.1,1.8,1.2,2.5-.2,2.5-1.4,2.4-3.6,3.8.7,1.3.7,3.4.9,1.7,1.3,1,3.4,1.1ZM478.6,727l1,1.8.7,1.9-.1,2.6-.6,2.3-2.5,6.5,3.2-1.1,1.5-1.1.5.4.2,3.3-.2,2.2-.7,2.5-1.4,1.3-2.1-.9.8,2.6,2.1,4.4.4,2.9-1.2.5-2.8-.9-2.9-1.6-1.8-1.3-.5,2.7-.5,1.4-2.8,3.2-.9,2.6,1.9,1.4,2.6,1.1,1.3,1.5-2.4,2.1-11.5,3.6-3.4.2,5.4-3.9-2.3-1.1-.8-1.7.1-2.3.8-2.8-4.9,2.5-1.5-1-.7-2.2.1-2.2,1-1,4-.8,1.1-2.2.1-3,.8-3.4-2.2-1.3-1.6,2-5.7,2.5-2.5,2.1-1.8-2.8-2.2-2.5-1.9-2.8-.5-3.6,1.1-2.3,2-2,2.4-1.6,2.1-.9,5.9-1.2h1.7l2.6,1.1,2,1.4,2.2,1.1,2.9.2v-1.2l-2.9-2-1.7-2.9-.8-3.3-.1-3,2.1.2,11-6.3-1.9-3.6.9-3.5,2.5-1.9,2.8,1.1.7,1.6v1.8l-1,7.2.1,1.2.7,2.2Zm17.1-7.6-.8.3-.4-.8-.8-3.4-1.2-1.3-.4-1,.2-1.3-.6-1.6-.8-1.6.4-1.4,1.7-.9,1.8-.2,1.6.5,1.1,2.4-.1,4.9-.7,4-1,1.4Zm27.9-113.6.7,7.7-4,8,2.4,4.8,9.8,1.5,4.1,3.2,6.8,7.8,8.1,4.5,3.7,2.8,1,5.4,3.5,3.4,4.5,1.6.6.6-.7,2.6-.3,3.5-.9,1.9-1.1,1.6.9,2.6v1.1L561,674l-2.6,5.4-2.8,3.4-1.8,3.8-.3-.7-3.2-3.3-2.8-3.7-3.7-2.9-2.8-4-.9-4.2-3.1-2-4-.2-3.7,1.5-3,2.2-2.3,2.8-1.6,11.5-2.3,3.4-2.4,3-1.3,2.4-.8-.7-1.4,2.2-4.8,8.5-2.2.1-.2-3.9.2-3.7-1.1-.1-1.3,3-1.2,4.7-3.9-.5-10.4.2-.6-3.6-1.1-1.9-1.4,5.4-1.6.8-3.7-1.7-1.7-3.2-1.9-.2-2.4,1.8v-8.4l-.7-.7-1.3.5-1.2,1.8-.1,3-2.5-2-1.9-2.8-2.2-1.8-3.2,1.3.7-2.7-1.3-3.9.6-1.5-1.6-5-.9-.6-1.8,1.7-2,3.1v2.1l2,4.2,1.1,5.1.7,1.8,1.3,2.3,2.7,3.6.4,1.8-.8,2.5,1.3.2,3,1.2-1.4.9-1.3.4h-3.3l-1.6-.4-.5-1L459,705l-.5-1.3-1.5-1.6-1.1-.9-8.6-3-2.4-.1-5.2,1-1.4.7.1,1.3,1.8,2.6-2.9.6-5.5,2.8-6.2,1.7-.8,2.4-.3,2.7-1.7,1.7v1.3l15.8-8.4,2.7-.2.5,3.4,1,2.5.3,2.3-1.3,2.5-2,1.2-3.1.5-3.1-.2-2-.8-1.1,1.9.7.9,1.5.8,1,1.7.2,2.4-.2,4.1-1.1,7.9,1.4,1.3,1.4-.4,1.1-1.6.5-1.9,2.1,2.6-2.2,3.9-4,5.2-3.5,1.1-4.8-.3.1-3h3.1l1.3-.3.8-1.2-9.9-1.2-2-.8-2.3-3.1-.3-1.6,1.6-1,3.7-1.5-3.6-7.2-2.6,2.6-2.6,5-3.7.2-3.3-4.5-1.8-1.1-3.6-.4-1.6,1-.8,2.3-.4,3,.1,2.9-3.3-.6-7.4.3-2.9-1.6-.3-1-.1-2.9-.1-.7-.8-.2-1.7.3-2.3-.5-3.7-.3-1.3-.7-.8-1.6.1-1.5.7-2.8-.3-14.3.3-2.3,1.2-2.5.7-1.8.2-2.4-2.5,3-2,3.4-2.5,2.6-3.8.3,2.9,6.9-2,1.3-4.3-.1-4.1,2.6-1.6-4.6-1-1.9-1.8-1.4-.5,6.2-1.7,5-3.3,2.9-4.2.4-3.2-1-1.2.1-1,.9-2.4-1.9-1.6-.5-.4-.8v-3.6l-2.1-5.3-9.9-10.7-1.7-3.6-1.4-4.1-3.5-3.7-3.9-2.8-2.1-3.9-.7-10.3-1.6-5-3.2-3.8.8-4.2,3.3-3.4.3-4.8,1-5.2,6.6-7.9,1-5.4-2.3-1.5-1.6-3.7.3-4.9-1.8-4.6-.3-2.5-.6-2.1-4-1.7.1-4.9,2.2-4.6,1.4-6,1.8-5.9,2.5-4.6,2-4.4.4-6,1.8-5.1,3.6-3.2,3.4-3.6,3-6.4,1.6-1,2.1.2,3.9-1.2,7.9-4.2,1.5-4.1,5.8-6.2,1.3,4.3,3.2,1.9,2.9,2.3.2,1.6.6,1.6,2.6,1,4.8.4,2,1.7,2.6,1.7,4.5.4h4.5l4.1,1.3,3,3.3,2.1,4,3.5,2.5.9,1.8.6,1.7,2.4,1.5,2.1,2.5-.1,4.6-1.9,4.4,2.5,9,9.8.4,4.7-.6,4.6.7,4.3,2.1,4,3,4.5.9,8.5-4.3,4.3.9,3.9-5.6,3.7-2.9,1.3,10.8,4,4.9,4.9,3.1,5.8-.6L473,611l5.2,1.6,4.9,2.6,5.9.2,5.2-4.1,2.2-.8,2.3-.3,2.2-1.9,1.8-2.4,5.7-2.3,6.1,1.5,4.7,2.2,4.4-1.5Z"/><path id="KOR2506" class="cls-1" d="M143.2,891.5l-3.6-.5,1-1.2-.5-1.1.5-.5,1.1.2,1,1.6Zm-5.8-13.3,1,.1,1.3-.4h1.8l2.2.9,1.3,1.6-.3.9-1.3-.7-.2.7-2.1-1h-1.5l-.8.9-.6,1-1.7,1.2-1.6,1.4-2.4,1.4-3-.1-1.7-2.2-.1-2.9,1.4-2.9,2.8-1.9h2.4Zm15.5,9.5-1.6.4-.8-.5-.3-.9-1.6-.8-.3-2.5,1-4.5.3-2.4-1-1-.3-.9,1.3-1.2.1-.7H151l2.7,1.4.4,1.9-1.5,1.3-.3,1.4,1.6,2.4.6.4.6.9-1.2.7-.2,1.1v2l-.8,1.5Zm15.2-12.4-.4,1.3-1-1.6-.9-.8.4-1.5-.1-1,2.3-1.9,1,2.6-.2,1.6-1.1,1.3Zm25,3.2-1,1.8-1.8,1-2.4.2-1.7-.9-1.4-1.3-1.1.1-.5,1-.6-.4-.7-2.9,1-2,.3-1.8.6-1.5,1.1-1.1,2.3-1.1,2.7.7,1.6,2.3,2.4,2.5-.4,2.4Zm-52.3-2.3-.8.6-2.4-.6-1.3-1.2-.3-.8-1.4-.4-.2-.6,1.3-3.1-.1-1.5.9-.7-.9-1.9.5-.4,2.5,1,3.3.6,2.5,1.5.7.9.1,1.7-1.1.9-.5,2.2-2.3.1-1.3.3Zm-100.3-12L38.8,866l-1.2.4H36.2v-.9l.6-1.7.8-.7,2.9,1.1Zm206.6,4.7-.4,1-2.9-.6-2.8.7,1.3-4.1,1.6-1.5.5-1,1.6-.9.7.1.7,1.7-.2,2.1-.9,1.6.8.9Zm-102.7-6.5,1.4.6.8,1.6-.8-.1-1.1,1-.7-.2-1.7.5-1-1.6,1.3-1.2Zm-88.3-.6.9.6.6-.2.2,2-1.4,2.9-1.1-.4-.9-1-.8,1.8-.6-1.4-1.8-.9,1.1-1,1.4.2,1-.2,1-.8-.1-1,.5-.6Zm-20.4-.9.2,2.4-.4.5-.6-1.5-1.2.4-.5,1.1-1.7-1.1,1.3-1.7,1.5-.5,1.4.4ZM291,860l-.7.5-1.3-1.4,1.3-.6.7.2Zm-154-4.1.9.8-2.1,1.1-1.5-.3-1.4.2v-1.8l1.5.5Zm132,.4-1.5.9-.5-3.1,2.2-.1-.2,2.3Zm-7.6-2.5.6,1.3,1.9-.8.6.8-.7.5-.4,1-2.4,2.5ZM52.8,850.2l5.5,1.1,2.3-.4,1,.6-.1,2.1.2,1.4-.7,1.1-1.6.2-.9.7-.6-.3-.7-1-.8.9-1,.2-3.3-1.4L51,853.8l-.1-1,.7-.9v-1l1.2-.7Zm150.4,1.4-1.2.5-1.1-.1-.5-.8-.8-.5-.8-.9.1-1.7.5-1.2,2.1-1.2,3.9-.1,2.5,1.3.1,1.3-.8,1.1-3.1,2.3ZM47,845l2.1.9,1.3-.8,3,.4,3.2,1.8.3,1.1-.8.3-3.7-1-3.2.6-2.2-.5-.7-2.3Zm75.7.9-.7.5-.9-1.2.2-1.1,1.6.7Zm58.3-2.5,1.2.3,1.3-.2,1.8.2,2.2.6,1.4.8-.3,1.4-.9,1.1-.4,2-1,1.1-1.3-.3-1.5.3-1.5,1.4-1.4.3-.8-1.1-.3-1.5-.9-1.2-1.2-.5-1.6.2-1.9.7h-1.5l-1.2-.7-3.5-1.6-.2-.6,1.6-.2,1.6-.5,1.2-.7,1.3.2,1.4.7,1.8-.7,2.1-1.8,1.6-.4.9.7Zm32.1-1.5,1.2.6,2.2-.7,1.6-.2.7.7,2.3,3.5-.9.2-1.4-.7-1.5-.4-1.2.5,1.4,1.1-1.1,1.1-2.8,2.2-1.6.7-.2-1.7.8-1.2,1-.6-.6-.8-3.4-.7.4-.8-.4-.9-1-.7-2.7-.2-1-.4-.1-.6,1.2-.3.9-.6,1.5-1.8,1.9-1.6,1.2,1.1,1,1.5.6,1.7Zm-47.5,6.5,2.9,2.8.3,1.2.9,2.2-.6.5-1.5-.4-2.7-1.4-.6.2-.2,1.1-.7.4-1.4-.6-2.4-.6-3-1v-1.2l1.4-1.2-.3-1.4-1.4-.3-1.7.4-2-.6-1.9-1.2-1.1-1.4-.4-2.1-.2-2.4.1-2.4.7-2.4,1.2-1.9,1.7-.8,3.7-.5,1.8.6,1.7,1.2,1.9,2.2,1.5,3.7.4,3,.5,1.5.9,1.1.5,1.7ZM197.3,833l-.8,3.1-.6.6.6,2.1-1.2,1.2H194l-.7,1.1-1,.8-1.2.5-2-.6-1.1-.9-.8-1.6.4-1.9-.3-.7-1,.6-1,1.2-.7.1.1-5.1-.6-.8,1.1-.3,1.1.8,3.6.2,1.3.3,1,.9,1.4.4,1.3-.1,1.1-1.3.7-1.8.5-.2Zm51.3,4.4-.6.2-2.3-.7-.6-.9.2-2.5-1.3-.7-.3-1.6.5-.4.8.2.7,1.2,1,.8.4,1.1,1.7,2.7-.2.6ZM183.7,834l.1,1.2-1.1.2-3.3-1-1.3.3-.8,1.2-4.2,2-1.5,1.9-.4,2.1-.9.6-1-1.2v-2l-.3-1.6-1.5-.7-.7-.7,1.3-2.2,1.1-2.5,2.2-2.9,3.1-1.7,3.3-.8,2,.3.7,1.2.2,1.2-.9.9.2.4,1.4.9,1.2,1.4,1.1,1.5Zm28.8-11.4,1.6.8.5-.4,1.2,1.3,1.8,4.7-.7.9v1.4l-.7.7-.8.2-.7-3.1-1.4,1.5-.8-.6-2.7-6.2.8-.8,1.9-.4ZM333,831.9l-.2.3-1.9-1.5-.6-1.2.8-.9-.8-.8.9-1.6.4-1v-1.3l.2-1.2.8-.3.5.9,1.3,1-1,4.5v1.8l-.4,1.3Zm-50.2-10.3.8.3,1.4-1.4,1.5-.1,3.5,3.7.7,1.9v1.1l-1.2,1.3-2.9,1.9-2.5.8-.9-.5-.1-1.7-1.1-1.1-1.6-.5-.7-1,.4-.8-2.7-1.9.5-1.4-.3-1.9.7-.5,2.3,1.2,2.2.6Zm-43.7,7.6-6.6,1.2-2.5-.3-1.8-.9-3.8-2.6v-1.4l.8-1.1.2-.9-.6-.8-1.5-1,2.2-1.7,2.5-1,5.2-1,4.9-.5,2.6.2,2.2,1,1.7,3.1-.5,3.6L242,828l-2.9,1.2ZM56.6,817.5l1.7.6-.4.8-1.8,1.3-1.3,1.5-1.1.5-.3-2.3-.7-1.4,2.1-2.1.4-1.2,1.4.3.9.8-.9,1.2Zm279.4,1-.9.7H334l-.9-.4-1.1.6v-1.9l1.1-1.7,1.5-.7,1.3-.2.4.4-.9,1.1.4.9.2,1.2Zm-109.1-6.4-1.1,1.4-2.1.8-.7-1.1-.9-.3-.1-1.5,1.1.1.5-1,1.9,1.1.4-1.6,1.1.4-.1,1.7Zm53.9-.6-.9,1.1,5,1.6.8,1.7-.3.6-1.3.9-1.5-.1-3.4.9-1.2.5-1.9-1.9-.1-1.2,1.3-.8,1.2.1-1-1.5-.4-1.5-2.3-.6.7-.7-.2-.8.5-1.4,1.3-1.5,2.5-.2,1.6,1.4-2,1.5,1.1.8.5,1.1Zm48.3,5.3-1.3.1-.8-1.1-1.5-.8-2.3-.8-1.5-1.2-.7-1.7-.8-1.1-1.3-.7-1.1-1.4.8-1.6,2.7-1.3,2.9-.4,2,1.5,2.4,4.7-.2,2,1.3.3,1,.6.7,1.1-.3,1.2-2,.6ZM97.5,807.3l1.1.8.7-.2,3.6-2.3.1,1.7,4.7,7.6.3,2.7-.5,2.9-.8,2.9-3.1,6.7-1.3,2-1.6,1.1-.2-.6L97.8,830l-1.3-.8v1.2l-.6,3.1-15.1,8.2-1.8.7-6.7.5-1.8-.5-.4-1.6.9-1.4,1.2-1.2.4-1-.8-1.2-4.6-2.8v4l-3.3-3.9,2-6.4,4.5-5.2,4.4-.3,1.4-4.2,1-1.5,1.4-1.6,1.7-1,1.5-.2L83,812l.4-2.7,1.9,2.3,2.5.3,2.2-1.5,1-2.9-1.2-2.4-4.1-3.3,1.1-1.6,2.5-.1,2.7,1.4,2.2,1.8,1.7.9Zm214-7.2.5.3h1.9l.5-.5,1.1.4.7,1.3-.6.9-.9.4-.8-1.6-1,1.9-.9.7-2.7.4-1.7-2.4-1-.3.8-1.8.8-.8,1.7-.8.7.2.7.7.2,1Zm-89.2-4.3-.9.4-1-2.4,1-.6,1.4,1.3Zm72-3.6,1,1,.1,1-1.9.5-.7,1.8-1.1-.3-.6-1.3-2.3-.4-.4-1.1.7-1.4,1.8.9.6-.7,1.4-.5ZM56.7,808.4l-1.7.2-1.9-.5-.5-1,1.9-.4,1.7-1.5-.2-.6-3.5-.8.9-1,2.2-.4h2.3l1.8-1.4.7-1.9-.7-1.9-1.6-2.6-1-3.2,1.2-.9,1.9,1.5,1.2,1.2,1.9,1.1.1,1.7.7,1.4-.2,1.9-.5,2.2-.1,1.8-.9,1-2.6,2.2ZM25,791.3l.4,2-.3.8-.9.7-2.4.8-1.3-.1-1.3.6-1.1-.5v-1.1l1.1-.2v-.5l-3-2.5.9-.3,1.3.7,1.6.3,3.5-2.1h1.1l.4,1.4Zm28.6,10-1.5.7-1.3-1.1-.6-6.7.6-3.7,1.3-1.7,2,4.4,1.7,2.5,1.3,2.7-.4,2.3-1.4.4-1.7.2Zm-9.7-11.5v2l-1.4-.6-.6-1.1-.6.3-1.5-.3-.8-1.7,1.9-1.5,1.6.3.5,1.5.5.1Zm28.5-5.5.2.8,2.5-2,1.8,1.9.3,2.6,1.8-.1.3.7-3,1.5-.8,1.1H74.4l-1.2-.4-.9.4-.5.7-1.5.2-1.8,1-1.1-.4.6-4.9-1.2-.6-.9-.9.6-.7,1.1-.6.6-.8,3-2.2.7-.1,1.1.5.1,1.1Zm-7.7-8.4-.9.9-1.3-1.1.5-1.2,1.6-.9Zm267.4,23.4-1.8.1-1.8-.9-5.6-5.7-.7-2.3,1-3.5.7-.9,3-2.3.5-1.1,1.2-4.9-2.4-2.6.3-1.5,1.7-.8,2-.3,1.7.8.4,1.8-.8,2.1-1.9,1.8,1.6.4,1.5,2.3,1.1,2.8,1.3,4.9.2,2.8-.5,2.7-1.2,2.7-1.5,1.6Zm-8.8-24.4-1.6,1.3-1.3-.7-1.2-1.8,1-1.2,1.2,1.4ZM47.4,780.5,45,783.7l-1.1.8H41.2v-.6l-2.3-1.4-2.5-1-.7.2-1.4-3.2,1.1-1.5,4.6-1.9,2.9-3.9,1-.5.6.4,1.3,2.5,1.9,1.7.5.8.2,1.5-.3,1.5Zm18.8-17.9,1.5.7.9,1,1.4.7,1.9.2,1.6.3,1,1,.6,1.1v2.2l.6,1.7v2.1l-.9,1.8-2,.2-1.9-1.8-1.4-2.2H67.8l-1.4,1-1.2.1-1.1-.8-.3-1.6-1.4-2.7-3.2-3.3-.6-1.6,1.5.4h1.3l1.1-.6,1.7-.2,2,.3ZM98,764.5l-.6.1L96,760.8l1.2-.7.6-.9.7.3,1.1,1.1-.9,1.1-.9.5-.1.8.4.5-.1,1Zm-49.3-4,.1,4.1-2.6-.8-.8-.5-1.3,1.8H41.9l-2-.4-.8.5-.4,2.6-.8,2.3-1.4,1.7-1.9.8-1.8-.2-1.4-1.3-.8-2-.3-2.6.5-2.4,1.2-1.7,1.8-1.1,1.9-.7,2.2.8,2.8-.6,5.2-2h1.8l.6.5.4,1.2Zm231-3.8-.2,2.1-1.7,1.1-.6,1.3-1-.3-.6-.6.7-.7-.1-1.2.9-.8,1.4.3,1.2-1.2Zm-207.1,7-1.9.5-1.8-1-2.1-1.8-2.6-1-2-1.1,1.6-1.4,3.9-.6,2.3-1,1.2-1,1.5.7,1.6,2.3-1.1,1.8.4,2.6Zm-2.5-22.1.8.4.7,1.1.2,1.2-2.1,1.4.7,3-.3,1.8-1.2.7-1.5-.1-1,1.2v2.1l-.5,1.9-1.7.9-1.4-.1-.3-1.9-2.4-2.7-1.3-1.8-1.1-2.1.5-1.5,2.3-1.2,1.9-.2,1.5.9h1.5l.4-1.2-.3-2.3,1.5-1.4,3.1-.1ZM320,738.1l1.3.7,1.5-.2.9.5-3.5,4.1-1.7.3-1.2-.4-1.5-1.5-.2-.8.9-1.3,1.7-1.3,1.8-.1Zm-215.5,7.5.3,4-3.1,2.9-1.7-.6,1-1.2.5-1.1-.4-.7L96,746.1l-4.7.7-2,1.1-2.4.3-1.9-.6-.9-1.3.8-1,2.5-.1,3.3-1.2,1-1.3.2-.8,2-.6.7-1.2.1-1.4L93.4,737l-.5-1.9,1.7-.9,2.8.6,2.8,1.5,2,2-.2,1.1-1.4.2-2.4,1.6-.3.9.3,2,1,.4h2.3l3,1.1ZM61.7,735.4l.4,2.8-.5,2.6-1.2,2.4-1.9,1.6-2.3.6-1.3-.5-1-.9-1.4-.4-5.1,1.1-2,.1v-1.2l1.6-1.4,2.8-4.6,2.2-2,2.5.5h1.3l.6-1.2.7-2.5,1.6-.4,1.7,1.2,1.3,2.2Zm24.9-1-1.4.6h-2l-.8-1.8.4-1.8,1.2-.7h2.7l.9.4.1.8-.5,2Zm4.7-10.2.6.8,1.3.7,1.9,4.5-.6,1.1-2.5-.9-.6-2L90,725.8l-1-1.3Zm-9.9.6-.3,2.5-.8-.5-1.2-2.7.7-1.7,2.1-1.4.2.8-.7,3Zm7.4-2-.9.8-1-1.5.2-1.1-.1-2.4-1-1.2.7-.5,1,.3,1.3,1.1,1.3,1.7.1,2.7-1.6.1Zm-14.2-4.5,1.1.6.3.9-.3,2.7-2,1.6-3,.7-.3,1.2.3,1.2-.2.5-2.9.7.3-1.2,1.1-2.6.4-4.1,1.7-.7-.1-1.1-.9.3-4.3.2-1.6-.1-1.1-.5-.1-.9,1.7-.9.8-1.2,1.5-.9.7-.8,1.1-.4,2.8.6,1.4,1.4.4,2.1Zm-4.3-11.2,1.4.6,2-.1,1.4.4,1.1,1.7.1,2.9-1.4,1.1-.9-.4-1.4-1.5-.7-.5-1.6.4-.2-.9-1.4-.2-.2-.5,1.1-.8-1.8-.4.3-.9,1.2-.8Zm-18.7-6.9v3.4L50,702.5l-.9-1.4.1-1.6,1.7-.6.7,1.3Zm25.9-1.7,1.5.9,1.3-.4,1.6-.8.9.5.4.8,1.7-.3.4,1.3-1.1,1.1-1.4.1-.6.7v1l1.7,1.8,1.5.7,1.6.1.9,1.3.5,1.7.8,1.1.3,1.5-.6,1.9L86,713l-1.4-2.2v-1.7l.3-.9-1-.3-4.1-.7-.9-.8-2.1-.3L75.2,705l-.8-1-1.7-4,1-1.6,2-.6,1.8.7Zm-11.8,8.3-.6,1.5-.9.3L60,707.4l-1.5.3-1.4-1.2-.7-.1,1.3-6.2.8-1.8,1.1-.6,1.9-.6,1.7-.9.8-1.2,1.2-2.7,2.9-1.8,3.2-.8,2.4.7-4.8,2.8-1.1,1.6-.1,1.9.7,2,2.1,3.5-1.7.7L67,704.7l-1.3,2.1Zm5.5-41.7-1.4,1.1-1.6-3.1v-.6l1.2-1.9,1,.5.8.9.3,1.8.5.9-.8.4ZM53.4,650.6l.4,1.2-1.5,1.4-2.6.7.4-1-1.5-1.4,1.7-1-1.3-1,2-1.6,1,.9.3.7.8.3.3.8Zm250.1,14.1-.8,4.2,3.2,3.8,1.6,5,.7,10.3,2.1,3.9,3.9,2.8,3.5,3.7,1.4,4.1,1.7,3.6,9.9,10.7,2.1,5.3v3.6l.4.8-1-.3-6.5.1-2.1-.4-.8-1-.4-1.4-1-1.9-1.8-1.4-.4,1.4.3,2.4.3,1-1.1,3.5-.7,1.3-1.4,1.7-6,4.7-3.3,1.5-2.4-2-3-6.1-2.5-1-1.7,2.5-.9,3.8.2,3.3,1.5,3.4,2.4,4.4,2.8,3.8,2.6,1.7,1.7,2.3,1.7.8,2-1.3,4.9-4.6,3.4-.5,2.9.6,2.7.2,2.9-1.6-.1,3.8-.5,2.7-1.6,5.5-1.8,9.6-1.3,2.2-5.6,1.9-4.4-2.2-3.5-.8-2.9,6.4-1-.6-1.2.6,1.2,2.5,1,2.7,1.1,8.6-.7,1.6-1.6-.9-2.6-2.7-3.8-.5-2.8-1.5-1.9-2.9-.7-4.3.9-4.1,2.1-4,1.5-3.8-.7-3.2-1.3-1.8-2.5-5.5-.7-.4-1.8-.2-.8-.8v-1l.7-1.9-2.4-5-.4-1.9.1-1.2.7-1.9.2-.9-.4-1.1-.7-.9-.7-.2-.9,1.2-2.7,6.9-1.1,1.5-6.7,2.3-3.2.4-6.8-.1-2.6.7,2.1,1.7,4.1,1.8,3.3,1v1.2l-6.7,2.2L263,762l-.6,2.6,1.4,1.1,3-1.2,1.6.7,1.1,1.9-.4.6-1.2.8,2.2,7.6,4.5,4.1,5,3.2,3.4,4.9-1.7-.3h-2.7l-1.2.3,6.8,2.6.8,2.1.5,4.1-3.1,2.8-3.1-.2-1.9.5-7.2-4.5-2.3-.7-2.1.4-2.5,1.2-2.2,1.5-.9,1.5,2.2,4.6,2.3.5,1.3.9,6-1.6,3.3,2.8-7.5,6.9-2.7,3.8-2.9-1.3-4.5,3.4.5,3.4,2,2.2h-4.4l-6.5-8.6-2.2-4.5-5.9-6.5-1.8.4-6.3,3.3.6,2,.5.8-2.6-.9-2.5-.5-2.1-1.1-1.5-2.8-.2-2.8,1-1.7,3.5-2.1,1.2-1,3.2-4.2,1.9-4.2,1.2-1.4,2.3-1.1-.2,3.2-.8,3.1-2.3,5.6,4.7-.3,3.8-1.4,2.4-3.2-.1-5.7-.9-2.2-1.2-1.3-1-1.5-.1-2.9.8-1.5,4.6-5.1,1.6.9,1.1,1.2.3,1.5-.9,1.8,1,2.5,1.4,1.8,1.8.6,2.4-.9,1-1.4,2.2-4.6,1.2-2-2.2-3.3-.8-3.4-1.1-1.6-3,2.3-3.5,1.5-2.8-2.4-3.9-6.3-2.3,3.5-3.2,8.3-2.2,2.7-2.3.9-1.9-.1-4-.8-1.8.6-1.8,1.6-2.8,3.8-1.3,1.1-5.8,3.4-3.1,2.4-2,1.2-2,.5-1.2.6-.2,1.6v2.1l-.3,2.2-1,1.6-1.5,1.7-.7,2.1,1.2,2.5-8.7,8.6.2,7.9-1.4,1.4-4.3-2.1-1.3,1.6-.7,1.9.1,2.1.9,2.2-2.1-.6-4.4-3.2-6.1-1.8-1.4-.8-1.2-3.7.6-9.7-.6-3.8.9-2.4-.2-3-1-2.6-1.8-1.3-1.7.5-1.8,1.6-1.3,2.1-.5,1.8.6,2.7,1,2.3.1,1.6-4.9,1.7.6,2.3,3.6,4.5-6.1,3.5-2.3,2.1,2.4,1,.5.4v1.9l-.5.4-1-.2-1.5-.9-.7-.2-2.1.3-.4.9-.1,1.4-.8,1.9-1.2.9-4.7,1.2-1.8,1.4-.6,1.3-3.8,12.9-.4,1.9v2.2l-3.8-.8-7.3,2.4-1.8-.4-.3-2.2,1.5-4.7-.3-2.1-1.4-1.3-2-.4-4.1.2v-1.2l1.1-1.8.3-3,1.2.1.7-.5,2.3-4.1.4-1.9-.6-2-.8-.6-1.2-.4-2.3-.3-1.7-.5-.3-1,.9-1.2v-2.5l.6-2.4-.3-1.2-2.5.8.7-4.6,3.1-2.3,4.3-.9h3.9l-.7-1.5-1-1.2-1.2-.8-1.5-.5,2.5-1.7,1.5-2.1.1-1.8-2-1.1-.7.3-1.4,1.8-1,.7h-1.3l-2.1-1.3h-1l-1,.8-.7,1.4-.5,1.7-1.4.3-2.9-.3-3.4.1-1.8.3-2.4.9-.3-3-1.3-1.8-3.8-1.9.1-.6-.8-1.5-1-1-.9,2-1.1.7-1.3.2-1-.4-3.3-3.1-.4-.2-.5-1.9.9-.9.6-1,.6.9h1.6l1.1-.9-.6-2-4.2-2.1-3.3-2.4-.3-5.5,1.4-6.2,1.6-4.3.2-1.5-.1-1.7.2-1.5,1.3-.7,2.4.5.9.6,1.1,2.3,4.8,7.3-1.5,2-.5,1.9.3,2,.5,2.1,3.3,9.2,2,1.2,7.8,1.3,3.4,2.3,1.8-.2,1.3-3.3-1.8.3-.9-.5-3.3-.7-1.5-2.4-2-2,.5-4.5-2.1.4-1,2.7-1.6.2-1-3.6-.5-4.8,1.2-2.8-.9-3.3,4.3-.4,6.6,1.4.9,1.5-.4,2.5v1.6l.3,1.1,1.7,1.1.9,1.3,2.1,1.3,2.8,1.2,1.8,1.6,3.8,2.7.7-.8-3.3-4.4,2-.4,6.7,3.7,4.5,1.5,3.4-.9-3.4-.5-2.7-1.8-4.7-4.1,1.1-1.5-3.4-2.5-5.2-6.6-2.9-1.4-3.9-.8-4.7.3-3.2-2.1-4,1.1-3.6-1.2-.5-1.8,2.2-2.9,2.3-.9,4.7.7,6-2.6,7.2,5.3,2.5-.5,1.4,1.2.7.3-.7-3.7.3-3.4,1.9-2.5,3.9-1,7.3,2.2,3.7.3-1.2-2.5,2.5-1.2,1.3-.3,1.6.1-2.3-2.7-3.6-.7-8.2.8.6-1.9-.6-2.6v-2l.6-1.3,1.5-2.1v-2l-1.2-2.9-2.2-.6-2.4,1.1-1.7,2.4-.2,1.6,1.1,3.2.2,1.8-.3.3-1.9,3.8-1.8,6.5-1.6,2.3-3.1.3v-.5l-1-.7.6-1.1.9-2,.6-1-2.1-1.1-1.5.6-1.4,1.3-2.1.6-4.2-.9-1.3.6-.3,2h-2.1l-3.5,1.1-1.6-.9-.6-2,1.2-1.9,3.2-3.2,1.2-1.8.6-1.4.4-2.8-.5-2.9.6-1.4,2-1.8-1.9-1.6-1.8-3.2-.9-3.8.3-3.2,2.2-2,3-2.1.9-1.7-3.9-.9-1.8.3-1.9,1.9-2.8,1.2.3,1.9.7,2.2.1,1.8-2.2,2.1-2.9.2-2.8-.9-1.9-1.4,2.1-1.3-1.4-1L97,726.7l-.9-1.4-.8-1.8,1.8-.9,1.8.1,3.9.8-.4-4.1,4.4-4.4-1.2-4.1-4.5-6.2-2.8-2.6-3-1,1.2,4.3-1.1,2.5-2.2.1L91,705l1.4-2-4-5.4-.6-3.2,2.3-2.7,3.2-.4,2.9,1.4,1.3,3.1,2-1.3,1.1-2.2,1.3-4.4,1.1,2.2.2,1.8-.4,3.6-.8,1.8-.1,1.1.3,1.2,1.3-.3.5.3.8,3.7.6.6,1.9,1.1,1.5.6,2.7.1,1.2.7-.9,2.2.2,2.1,1.1,2,1.7,1.7,4-9,.4-3.1v-3.5l-.8-1.2-3-.8-1.2-.7-1.1-1-1.6-4.4-5.2-6.1-1.2-2.7.3-1,1.5-1.8.4-1.8-1.7-1.2-.8-1.6.3-2.6-2,.8-2.1.3-4.5.1,1.7-2.2,2.9-.7,3.3-.2,2.9-.7-1-.3-1-.9-1.3-.2.8-1.8,3-2.9.5-1.5-1-3.8.5-3,1.4-3,3.5-5.3.9.9,2.3,3,2.8.9,1.4-.1-.4-1.4-3-3.5,3.3-1,15.4-4.3,4.5,1.2-.9,7.1-1,5.2-.2,5.3,3.9,1.3,4.7-1.2,5.1-1.8,5.3-.8,2.1-1.6,2.3-1.4,2.7-.7,2.6-1.3,2.1-1.8,1.3-2.8-.3-2-.1-2,2-1.5,1.4-2.2-.1-2.6v-2.7l4-3.5,5.3.5,2.7-3.1,2.8.2,2.8,1.1,4.8,4,7.5,10.1,4.8-.1.4-2.7,1-2.6,1.6-1.5,1.1-2,4.7-.3,3.2,4.9-1.4,5.6.9,3.6,3.3,3.7-.2,6.4,3.8,4,5.9.9,4.5-2.7,4.8-.8h3.3l2.7-.7,2.4,1.9,2.7,1.6,5.9.1,5.7-.8h5.3l4.9-.7,4.6-5,5.8-3.2,10.1,3.7,9,7.3Zm-108.1,4.2-4.4,1.3-4.1,1-5.7-1.5-3.4,3.2,4.3,9.5,8.6,5.2,9.8,1.6,6.2-8.3-3.2-8.9-8.1-3.1Z"/><path id="KOR2507" class="cls-1" d="M537.6,706.9l-1.3,1.6-1-.8-1.1-1.4-3-1.7-1.5-1.7.1-2.4,1.2-1.2,1.6.1,1.5,2.1,1.4,1.5,1.1.6-1,.8-.2,1.4,2.2,1.1Zm16.2-20.3-.8,1.5-4.2-.1-2.2.4-1.7-.1-1.7.8-1.9.2-.1,2.7,1.2,1.9.2,2.3-.8,2.5-3.5,1.7-4.6-4-1.3-1.5-4.2,4.4-1.9,3.6-.6,3.7-1.2.9-.8-1.9-1.9-2,.5,5.7h-1.2l-.5-1.3-.7-.3-3.1,2.1-1.1-1.3-1.3-4.4.6-3.9,1.2-5,.2-2.8,1.3-2.4,2.4-3,2.3-3.4,1.6-11.5,2.3-2.8,3-2.2,3.7-1.5,4,.2,3.1,2,.9,4.2,2.8,4,3.7,2.9,2.8,3.7,3.2,3.3.3.7Z"/><path id="KOR2508" class="cls-1" d="M594.9,599.7l1.3,2.2-.6,4.2-.3,5-1.1,7.6-1.6,3.2-2.6,3.5-2.4,1.3-1-3.4-1-4.5-2-3.3-2.2-.6-1.3,3.8,2.1.5,1.3,1.6.6,2.4.2,2.8-.7,2.6-1.6.6-1.8.2-1.3,1.2.2,1.4.2,3.6.7,3.8-2.8,4.8,1.3,1.8,1,1.1-.2,2.6-3.2,1.1-3.1,1.8-4.4,4.4-3.7-.1-.1.2-.6-.6-4.5-1.6-3.5-3.4-1-5.4-3.7-2.8-8.1-4.5-6.8-7.8-4.1-3.2-9.8-1.5-2.4-4.8,4-8-.7-7.7,3.8-3.1,4.1-2.4h2.4l1-2-1.5-2.5-.8-2.7,5.3-4.1,6.7-2.4,5.5-.8,5.3,1.1,5.6,2.4,1.4,2.4.1,2.9.4,2.6,2,1.4,2.6.7,14.8-2.6,12.5,3Z"/><path id="KOR2509" class="cls-1" d="M589.2,402.5l.8,8.1,2.2,8.1.8,8.1-.9,16.8-1,3.6-4.9,6-1.9,3.3-.8,3.9-.7,23.7.5,3.2,1,1.8,1,.7.9,1,.9,6.7,1.2,5.1,1.3.9.8,1.1-.6,3.1-1.3,1.7-1.6.8-1.6.5-2.6,2.2-.2,2.7,3.4,3.1,2.4,2.7,2.5,3.1,3.2.5,4.1-3.2,10-11,2-3.3,2.6,2.1.6,3.4,1.1,3.5.8,3.9-2.5,3.9L607,535.6l-.4,5.1-1.7,13.4-4.1,11.6.2,7.3-4.2,12.6-3.1,6.1-1.3,3.1,1.3,3.4,1.2,1.5h-.1l-12.5-3-14.8,2.6-2.6-.7-2-1.4-.4-2.6-.1-2.9-1.4-2.4-5.6-2.4-5.3-1.1-5.5.8-6.7,2.4-5.3,4.1.8,2.7,1.5,2.5-1,2h-2.4l-4.1,2.4-3.8,3.1-4.4,1.5-4.7-2.2-6.1-1.5-5.7,2.3-1.8,2.4-2.2,1.9-2.3.3-2.2.8-5.2,4.1-5.9-.2-4.9-2.6L473,611l-5.9,1.1-5.8.6-4.9-3.1-4-4.9-1.3-10.8-3.7,2.9-3.9,5.6-4.3-.9-8.5,4.3-4.5-.9-4-3-4.3-2.1-4.6-.7-4.7.6-9.8-.4-2.5-9,1.9-4.4.1-4.6-2.1-2.5-2.4-1.5-.6-1.7-.9-1.8-3.5-2.5-2.1-4-3-3.3-4.1-1.3h-4.5l-4.5-.4-2.6-1.7-2-1.7-4.8-.4-2.6-1-.6-1.6-.2-1.6-2.9-2.3-3.2-1.9-1.3-4.3.8-12.5-6.5-11.1,3.8-1.8,4-1.4,2.4-4.8,1.4-5,1.2-2.2,1.5-1.8.4-3.3-.1-2.6-.9-5.3,3.9-3.3,3.8.7,3.3.2-1.8-10.2-3.5-2.7-8.1,2-3.1-1.5-4.5-3.7-3.8-1.3-6.4,1.5-.9-9.3,3.5-3.1,2.3-4.5-1.8-3.1-1-3.4,1-4.7.6-10.7,1.6-4.5,2.8-2.8-7.7-11.3-6.2-1.1-1.8-4.5,2.4-1.1,2.3-.4,2.3-2.5,3.5-4.8.9-2-.1-1.8.4-2.4,4.9-3.3,5.6-2.6,3.4-5.2,6,2.7,11.3,1.7-2.3-4.4-3.1-3.9,1.1-4.1,2-4.3,1.9-3.2,2.5,1.6,3.2-.2,2.6-3.5,2.7-1.8,2.5,1.7,4.9,1.7,4.6.4,1.1-3.3.8-3.1,1.6-2.6,2.1-2,2,2.3,2.7,1.9,3.7,3.2,2.4,4.8,5.6,1.8,13.3-5.5,2.3-7.8-2.1-1.9-1.1-2,2-3.7,1.7-3.7,3.4-5,4.9-3.5,1.4-2.5,2-1.6,3.2-1.1,2.7-2.5,4-3.4,3.7-3.9,1.5-.9,1.9.7,2.1-1.3,1.9-2.2,4.1,2.2,3.9,1.6,4.7,1.1,4.1.3.9-4.2.5-4.5-1-4.9,2.8-3.5,4.3-2.1,4.4.4,2.2,3.9,3,.7,2.8,1.4-.4,3.4.4,3.5,4.7-1.9,4.5-3.5,1.9.8,1.4,1.8,1.7.2,2.1-.8,6.2,1,5.8,2.7,4.2-1.1,4.3-2.2,5.4,1.2,4.9,3,1.6,4.6-3.8,2.8-4.6-1.8-3,1.1-2.7,2-1.1,4.9.7,6.5,3.3,4.9,5.2,2.5,1.1,4.2,1.5,3.6,3.7,1.6,3.4,1.9,11.6.9-.7,4.5,1.4,1.3,1.2,1.5-1.7,4.9-2.1,5.3.4,5.5,1.4,4.9.5,4.4-1.7,4.7,10.9,4.1,5.1-2.3,5.3,1.2,1.6.1ZM483.8,550.7l.9-3.1-.1-3.3-.3-3.1-1.7-1.4-1.3-2-.1-4.9.8-1.3.1-1.6-2-3.5-6.4-4.6-8.3.5-10.1,1.4-7.4,6.2,1,8.9-2.8,3-1.7,3.8,1.5.3,1.4.5-.3,1.9-.6,1.9-2.6.4h-2.4l-2.1,3.1.9,3.6,2.5.9,2.3,2.3,1.8,3.6,2.8,2.3,2,1.3L453,569l1.3-1,2.2-4,2.3-1.8,5.1.5,9.1,2.4,3.6-2.1.4-1.9v-1.2l1.5-3.9.2-1.7V553l1.5-.1,1.1.4,2.5-2.6ZM659.2,400.41l-3,1.6-4-.8-3.9-2.4-2.6-3.1-.9-4.1,1.4-3,2.8-1.9,5.6-1,3.8-1.4,1.9-.4L663,386l-.2,5-1.7,5.7-1.9,3.7Z"/><path id="KOR2510" class="cls-1" d="M633.3,803.15l1.8,2.8,2.4,1.8,7.6,3.1,2.3,2.3,1.6,5.7,1.5,2.2,1.8-1.7.4-.8,1.2,2.5-.8.8-1.5.5-1.1,1.3.1,1.1,1,1.8v1l-.5,1-1.7,2.3-2.8,3.4-5.4,4.3-1.7,3.5-2.3,4.2L637,848l-1,2.5-3.9.4-1.5.8-4.2-.3-6,4.8-16,2.9-5.4,4.6-6.5,1.4-7.1-.7-8,1.5-6.6-2-15.1.2-4.7,2.2-2.7,5-2.6.5-2.5-1.2-3.6-5.9-4.8-1.6-4.7-4.9-1.6-5.9,2.8-7.8,2.7-4.7,1.6-1.7,5.5-3.3,4.7-8.2,4.3-1.1,2-4.3,7.4-2.6,16.2-4.6,4-3.5,15.4-1.6,10.5-4.6,2.6.7,12.7-2,7.5-.7,4.9.9Z"/><path id="KOR5129" class="cls-1" d="M244.8,396.7l-3.1,6.7.3,3.3-2,5.7-.7,6.1,11.7-2.4,12,.8-.1,2.1-.8,1.9-.3,1.5.5,1.2.3,2-.3,2.1-.7,1.9-3.6-.3-17.5,4.8-10.8,3-14.4-2.9,1.4-4.1,2.4-2.3-.5-29.9,3.7-10.2,22.5,9Z"/><polygon id="_0" data-name=" 0" class="cls-1" points="209.9 319.5 209.9 319.5 209.9 319.5 209.9 319.5 209.9 319.5"/><polygon id="_1" data-name=" 1" class="cls-1" points="276.7 323.2 276.7 323.2 276.7 323.2 276.7 323.2 276.7 323.2"/><polygon id="_2" data-name=" 2" class="cls-1" points="336.7 584.4 336.7 584.4 336.7 584.4 336.7 584.4 336.7 584.4"/></g></g></g></g></svg>