<svg xmlns="http://www.w3.org/2000/svg" viewBox="0 0 1567.59 337.37"><defs><style>.cls-1{fill:#216a36;}.cls-2{fill:#6f4a21;}.cls-3{fill:#724b21;}.cls-4{fill:#fff;}</style></defs><title>logo-w</title><g id="레이어_2" data-name="레이어 2"><g id="레이어_1-2" data-name="레이어 1"><polygon class="cls-1" points="88.83 0 0 285.87 177.65 285.87 88.83 0"/><polygon class="cls-1" points="266.48 0 177.65 285.87 355.31 285.87 266.48 0"/><polygon class="cls-1" points="444.13 0 355.31 285.87 532.96 285.87 444.13 0"/><rect class="cls-2" x="69.13" y="285.87" width="39.39" height="51.51"/><rect class="cls-2" x="246.79" y="285.87" width="39.39" height="51.51"/><rect class="cls-3" x="424.44" y="285.87" width="39.39" height="51.51"/><polygon class="cls-4" points="267.05 191.4 275.6 208.72 294.72 211.5 280.89 224.99 284.15 244.03 267.05 235.04 249.95 244.03 253.21 224.99 239.38 211.5 258.5 208.72 267.05 191.4"/><path class="cls-4" d="M724.26,178.48a3,3,0,0,1-3.21,2.58H692.11q-2.94,0-3.57-2.58-12.1-57.72-12.47-60.74l-.26-1.52c0-.59-.21-.89-.62-.89s-.72.3-.72.89l-.26,1.52q-.36,3-12.47,60.74-.54,2.58-3.57,2.58H629.23a3,3,0,0,1-3.21-2.58L596.28,70.09a9.34,9.34,0,0,0-1.88-2.67,7.66,7.66,0,0,0-1.24-1.16,3.55,3.55,0,0,1-1.78-3.12,3.88,3.88,0,0,1,1.15-2.85,3.81,3.81,0,0,1,2.77-1.16h29.47a3.33,3.33,0,0,1,2.41,1.07,3.22,3.22,0,0,1,1.25,2.23q16,63,16.47,66.17l.36,2.94c0,.71.21,1.07.62,1.07s.63-.36.63-1.07l.35-2.85q.54-3.47,12-66.79a2.93,2.93,0,0,1,3.2-2.77h26.1a2.94,2.94,0,0,1,3.21,2.77q11.48,63.32,12,66.79l.44,2.85c0,.71.21,1.07.63,1.07s.53-.36.53-1.07l.45-2.94q.35-3.19,16.38-66.17a3.75,3.75,0,0,1,1.25-2.23,3.62,3.62,0,0,1,2.49-1.07h27.26a3.29,3.29,0,0,1,2.49,1.16,2.51,2.51,0,0,1,.63,2.58Z"/><path class="cls-4" d="M824.45,54.68q27.16,0,46.31,19.24T890,120.23q0,27.17-19.24,46.31t-46.31,19.24q-27.16,0-46.31-19.24T758.9,120.23q0-27.17,19.24-46.31T824.45,54.68Zm0,99.48a30.62,30.62,0,0,0,23-10,33.44,33.44,0,0,0,9.44-24,33.77,33.77,0,0,0-9.44-24,31.66,31.66,0,0,0-46,0,33.77,33.77,0,0,0-9.44,24,33.44,33.44,0,0,0,9.44,24A30.65,30.65,0,0,0,824.45,154.16Z"/><path class="cls-4" d="M961.52,54.68q27.16,0,46.31,19.24t19.24,46.31q0,27.17-19.24,46.31t-46.31,19.24q-27.16,0-46.31-19.24T896,120.23q0-27.17,19.24-46.31T961.52,54.68Zm0,99.48a30.63,30.63,0,0,0,23-10,33.44,33.44,0,0,0,9.44-24,33.77,33.77,0,0,0-9.44-24,31.66,31.66,0,0,0-46,0,33.77,33.77,0,0,0-9.44,24,33.44,33.44,0,0,0,9.44,24A30.63,30.63,0,0,0,961.52,154.16Z"/><path class="cls-4" d="M1091.2,59.05q26.35,0,42.66,14.69,17.45,15.86,17.45,44.26v4.1q0,28.32-17.45,44.18-16.3,14.78-42.66,14.78h-45.78a4.31,4.31,0,0,1-3.3-1.43,4.2,4.2,0,0,1-1.42-3.2V74a9.73,9.73,0,0,0-2.85-6.77,10.66,10.66,0,0,0-1.25-1.07,3.88,3.88,0,0,1,2.14-7.12Zm27.69,56.28q0-15.22-8.28-21.82-6.85-5.34-20.31-5.34h-16.47a2.43,2.43,0,0,0-2.32,2.31v59.14a2.24,2.24,0,0,0,.71,1.61,2.06,2.06,0,0,0,1.61.71h16.47q13.46,0,20.31-5.43,8.28-6.51,8.28-21.74Z"/><path class="cls-4" d="M1244.2,112.13a42.42,42.42,0,0,1,9.45,5.25q12.64,9.45,12.64,27.88a35.89,35.89,0,0,1-12.38,27.7q-14.34,13-40.25,13-19,0-32.42-7.39t-18.08-20.76v-.08a9.66,9.66,0,0,0-2.23-3.39,5.79,5.79,0,0,0-1.24-1.07,3.77,3.77,0,0,1-1.79-3.2,3.59,3.59,0,0,1,1.16-2.76,3.73,3.73,0,0,1,2.76-1.16h29.57a3.28,3.28,0,0,1,3.39,2.49,12.79,12.79,0,0,0,6.32,7.22,25.65,25.65,0,0,0,12.56,2.85q8.89,0,14.16-3.75a11.28,11.28,0,0,0,5.25-9.7q0-10.51-20.22-11-23.5-.61-36.42-10.59Q1162.79,113,1162.8,95.47q0-16.22,12.74-27.79,14.25-13,38.12-13,21,0,34.64,9.62a36.42,36.42,0,0,1,15.94,26.63,3.38,3.38,0,0,1-1.07,2.49,3.54,3.54,0,0,1-2.58,1.16h-26.36a3.41,3.41,0,0,1-3.47-2.49q-2.94-9.36-17.1-9.35-17.64,0-17.64,12.73,0,6.15,5.26,8.73a27.29,27.29,0,0,0,4.54,1.6,48.69,48.69,0,0,0,8.82,1.34Q1236.9,109.27,1244.2,112.13Z"/><path class="cls-4" d="M1391.52,177.41a2.51,2.51,0,0,1-.27,2.67,4.06,4.06,0,0,1-3.12,1h-23.51a5,5,0,0,1-2.94-.71,4.29,4.29,0,0,1-1.6-2.32l-6.33-16.65h-43.64L1303.79,178a4.34,4.34,0,0,1-1.6,2.32,4.87,4.87,0,0,1-2.85.71h-23.6a4,4,0,0,1-3.12-1,2.47,2.47,0,0,1-.27-2.67l38.56-99.66a9.74,9.74,0,0,0,.72-2.67v-1a9.48,9.48,0,0,0-.72-3.57l-.08-.08a8,8,0,0,0-.72-1.43q-.27-.36-.18-.36l-1-1.15c.11.12.09.09-.09-.09l-.09-.09a7.49,7.49,0,0,0-1.34-1.07l.09-.09a3.55,3.55,0,0,1-1.78-3.12,3.6,3.6,0,0,1,1.16-2.76,3.77,3.77,0,0,1,2.76-1.16h32.77a4.43,4.43,0,0,1,4.37,2.77Zm-49-42.39c1,0,1.52-.48,1.52-1.43a1.53,1.53,0,0,0-.18-.71l-11.76-35.09h-.27q-.61,2-5.34,16.12-5.25,15.59-6.41,19a2.82,2.82,0,0,0-.09.71,1.26,1.26,0,0,0,1.42,1.43Z"/><path class="cls-4" d="M1428.39,59.05a4.57,4.57,0,0,1,4.72,4.71V176.34a4.45,4.45,0,0,1-1.34,3.29,4.59,4.59,0,0,1-3.38,1.43h-23.34a4.89,4.89,0,0,1-4.72-4.72V74a9.88,9.88,0,0,0-4.1-7.84,3.88,3.88,0,0,1,2.14-7.12Z"/><path class="cls-4" d="M1565.81,173.93a3.64,3.64,0,0,1,1.78,3.21,4,4,0,0,1-3.92,3.92h-26a4.36,4.36,0,0,1-4.28-2.67l-20.3-38.48a2.18,2.18,0,0,0-2.14-1.33h-19.24a2.39,2.39,0,0,0-1.6.62,2.3,2.3,0,0,0-.71,1.69v35.45a4.89,4.89,0,0,1-4.72,4.72h-22.27a4.6,4.6,0,0,1-3.39-1.43,4.44,4.44,0,0,1-1.33-3.29V74.1a9,9,0,0,0-2.85-6.77c-.42-.42-.83-.8-1.25-1.16a3.64,3.64,0,0,1-1.78-3.21,3.94,3.94,0,0,1,3.92-3.91h65.1a39.67,39.67,0,0,1,39.73,39.72,39.29,39.29,0,0,1-4.9,19.23,39.8,39.8,0,0,1-13.09,14.08l20.21,38.38a12.24,12.24,0,0,0,1.69,2.41C1564.89,173.22,1565.34,173.58,1565.81,173.93ZM1529.47,96a7.68,7.68,0,0,0-2.31-5.62,7.8,7.8,0,0,0-5.7-2.4h-29.75a2.22,2.22,0,0,0-1.6.71,2.3,2.3,0,0,0-.71,1.69v16.84a2,2,0,0,0,.71,1.6,2.18,2.18,0,0,0,1.6.71h29.75a8,8,0,0,0,5.7-2.31,7.65,7.65,0,0,0,2.31-5.61Z"/><path class="cls-4" d="M645.89,328.12V297.49H604.16V284.86H703.7c.63,5.74-.9,12.63-7.66,12.63h-34.2v30.63Zm8-103.37c19.52,0,33.81,12.89,33.81,26.8s-14.29,26.8-33.81,26.8-33.82-12.89-33.82-26.8S634.4,224.75,653.93,224.75Zm0,41.47c9.82,0,17.86-6.51,17.86-14.67s-8-14.68-17.86-14.68-17.87,6.51-17.87,14.68S644.1,266.22,653.93,266.22Z"/><path class="cls-4" d="M818.54,305.27c.64,5.75-.89,12.64-7.66,12.64H719V305.27ZM798.12,233s-.89,7-1.91,9.58c-2.43,6-7.53,11.86-13.66,17.09,9.58,6.77,19.53,11.11,26.68,14.81.89.51,3.57,1.66,4.33,2l-4.59,6c-1.4,1.4-2.81,2.81-5.36,2.81-1,0-1.4,0-4.34-1.15a140.87,140.87,0,0,1-29.61-14.81,184.89,184.89,0,0,1-29.22,15.32l-3.7,1.4h.13a7.31,7.31,0,0,1-3.45.51c-2-.13-3.57-2.17-4.47-3.57-1.65-1.66-2.93-4.09-4.21-6,11.36-4.47,41.1-16.33,50.79-31.39H731.76V233Z"/><path class="cls-4" d="M884.51,259.84h6.76V226c6.64-1,14.68.26,14.68,8.3v90H891.27V272.47h-6.63c-1.91,17-12.64,28.85-24.89,28.85-13.52,0-25.27-14.55-25.27-34.46s11.75-34.46,25.27-34.46C871.62,232.4,882.09,243.63,884.51,259.84Zm-14.8,7c0-13.27-4-22.33-10-22.33s-10,9.06-10,22.33,4,22.33,10,22.33S869.71,280,869.71,266.86Zm57.55,60h-14.8V224.75c6.63-1,14.8.38,14.8,8.29Z"/><path class="cls-4" d="M1010.58,259.59h14.68V224.75c6.76-.9,16,.64,16,8.29v93.8h-16V272.22h-14.42c-2,17.1-14.17,29.1-29.61,29.1-17.1,0-30-14.55-30-34.46s12.89-34.46,30-34.46C996.17,232.4,1007.9,243.51,1010.58,259.59Zm-15.31,7.27c0-13-6.12-22.33-14-22.33s-14,9.31-14,22.33,6.13,22.33,14,22.33S995.27,279.75,995.27,266.86Z"/><path class="cls-4" d="M1132.44,228.58c15.45,0,27.44,11.48,27.44,26.16s-12,26.16-27.44,26.16S1105,269.41,1105,254.74,1117,228.58,1132.44,228.58Zm60,84.35c.64,5.74-.76,12.63-7.65,12.63h-70.83v-37h16v24.37Zm-60-44.15c6.51,0,11.49-6.51,11.49-14s-5-14-11.49-14-11.48,6.51-11.48,14S1125.94,268.78,1132.44,268.78Zm58.71,30h-16v-75.3c6.89-1,16,.13,16,8.3v15.69h15.31c.9,4.85.39,8.43-1.4,10.47a7.07,7.07,0,0,1-5.36,2.29h-8.55Z"/><path class="cls-4" d="M1273.07,230.49s0,5.49-.26,9.32c-.38,6.12-3.19,12.12-7.4,17.61a112,112,0,0,0,20,14.16l-3.45,5.24a8.26,8.26,0,0,1-5.61,4.08h-.13a11.63,11.63,0,0,1-4.47-1c-3.57-1.53-10.08-6.38-16.33-12.13-8.68,7.41-19.27,13.15-28.08,15.7a7.29,7.29,0,0,1-4.85-3.32l-4-5.61c9.58-3.83,31.78-14.42,36.76-31.4h-31V230.49Zm38,82.44c.64,5.74-.77,12.63-7.66,12.63h-70.83v-37h16v24.37Zm-1.28-14.16h-16v-38H1276V248.1h17.87V223.47c6.89-1,16,.13,16,8.3Z"/><path class="cls-4" d="M1432.33,305.27c.63,5.75-.9,12.64-7.66,12.64h-91.89V305.27h42.12V284.73c6.76-.9,15.95.64,15.95,8.29v12.25Zm-12.77-60.87h-59.34v23.86h60.49c.64,5.24.51,12.64-6.89,12.64h-69.55V231.77h75.29Z"/><path class="cls-4" d="M1509.52,259.59h14.68V224.75c6.76-.9,16,.64,16,8.29v93.8h-16V272.22h-14.42c-2,17.1-14.17,29.1-29.61,29.1-17.1,0-30-14.55-30-34.46s12.89-34.46,30-34.46C1495.1,232.4,1506.84,243.51,1509.52,259.59Zm-15.31,7.27c0-13-6.13-22.33-14-22.33s-14,9.31-14,22.33,6.13,22.33,14,22.33S1494.21,279.75,1494.21,266.86Z"/></g></g></svg>