<svg xmlns="http://www.w3.org/2000/svg" width="432" height="249.4" viewBox="0 0 432 249.4">
  <defs>
    <style>
      .cls-1 {
        fill: #e8e8e8;
      }
    </style>
  </defs>
  <g id="Layer_2" data-name="Layer 2">
    <g id="Layer_1-2" data-name="Layer 1">
      <path class="cls-1" d="M410.9,228.3A71.4,71.4,0,0,1,360,249.4H72a72,72,0,0,1-72-72,72,72,0,0,1,72-72h0l5.8.2h.5a61.8,61.8,0,0,1,61.5-55.6,63.3,63.3,0,0,1,26,5.7,64.3,64.3,0,0,1,14.6,9.5A88.4,88.4,0,0,1,354.1,88.4a86.6,86.6,0,0,1-.9,12.5c-.2,1.7-.5,3.3-.8,5h0a64.7,64.7,0,0,1,7.6-.5,72,72,0,0,1,50.9,122.9Z"/>
    </g>
  </g>
</svg>
