<svg xmlns="http://www.w3.org/2000/svg" width="820" height="4535.4" viewBox="0 0 820 4535.4">
  <defs>
    <style>
      .cls-1 {
        fill: #78d2f7;
      }
    </style>
  </defs>
  <g id="Layer_2" data-name="Layer 2">
    <g id="Layer_4" data-name="Layer 4">
      <g>
        <path class="cls-1" d="M126,321.5a66,66,0,0,0,132,0C258,285,192,107,192,107S126,285,126,321.5Z"/>
        <path class="cls-1" d="M632,214.5a66,66,0,0,0,132,0C764,178,698,0,698,0S632,178,632,214.5Z"/>
        <path class="cls-1" d="M507,804.5a66,66,0,0,0,132,0C639,768,573,590,573,590S507,768,507,804.5Z"/>
        <path class="cls-1" d="M688,1375.5a66,66,0,0,0,132,0c0-36.5-66-214.5-66-214.5S688,1339,688,1375.5Z"/>
        <path class="cls-1" d="M135,1329.5a66,66,0,0,0,132,0c0-36.5-66-214.5-66-214.5S135,1293,135,1329.5Z"/>
        <path class="cls-1" d="M0,1984.5a66,66,0,0,0,132,0C132,1948,66,1770,66,1770S0,1948,0,1984.5Z"/>
        <path class="cls-1" d="M567,2198.5a66,66,0,0,0,132,0c0-36.5-66-214.5-66-214.5S567,2162,567,2198.5Z"/>
        <path class="cls-1" d="M205,2653.5a66,66,0,0,0,132,0c0-36.5-66-214.5-66-214.5S205,2617,205,2653.5Z"/>
        <path class="cls-1" d="M665,3057.5a66,66,0,0,0,132,0c0-36.5-66-214.5-66-214.5S665,3021,665,3057.5Z"/>
        <path class="cls-1" d="M70,3326.5a66,66,0,0,0,132,0c0-36.5-66-214.5-66-214.5S70,3290,70,3326.5Z"/>
        <path class="cls-1" d="M483,3735.5a66,66,0,0,0,132,0c0-36.5-66-214.5-66-214.5S483,3699,483,3735.5Z"/>
        <path class="cls-1" d="M636,4306.5a66,66,0,0,0,132,0c0-36.5-66-214.5-66-214.5S636,4270,636,4306.5Z"/>
        <path class="cls-1" d="M111,4469.5a66,66,0,0,0,132,0c0-36.5-66-214.5-66-214.5S111,4433,111,4469.5Z"/>
      </g>
    </g>
  </g>
</svg>
