<?xml version="1.0" encoding="UTF-8" standalone="no"?>
<!-- Created with Inkscape (http://www.inkscape.org/) -->

<svg
   version="1.1"
   id="svg2808"
   xml:space="preserve"
   width="682.66669"
   height="682.66669"
   viewBox="0 0 682.66669 682.66669"
   xmlns="http://www.w3.org/2000/svg"
   xmlns:svg="http://www.w3.org/2000/svg"><defs
     id="defs2812"><clipPath
       clipPathUnits="userSpaceOnUse"
       id="clipPath2822"><path
         d="M 0,512 H 512 V 0 H 0 Z"
         id="path2820" /></clipPath></defs><g
     id="g2814"
     transform="matrix(1.3333333,0,0,-1.3333333,0,682.66667)"><g
       id="g2816"><g
         id="g2818"
         clip-path="url(#clipPath2822)"><g
           id="g2824"
           transform="translate(466,15)"><path
             d="M 0,0 H -420"
             style="fill:none;stroke:#000000;stroke-width:30;stroke-linecap:round;stroke-linejoin:round;stroke-miterlimit:10;stroke-dasharray:none;stroke-opacity:1"
             id="path2826" /></g><g
           id="g2828"
           transform="translate(106,15)"><path
             d="M 0,0 V 60 H 300 V 0"
             style="fill:none;stroke:#000000;stroke-width:30;stroke-linecap:round;stroke-linejoin:round;stroke-miterlimit:10;stroke-dasharray:none;stroke-opacity:1"
             id="path2830" /></g><g
           id="g2832"
           transform="translate(271,166)"><path
             d="m 0,0 c 0,-8.284 -6.716,-15 -15,-15 -8.284,0 -15,6.716 -15,15 0,8.284 6.716,15 15,15 C -6.716,15 0,8.284 0,0"
             style="fill:#000000;fill-opacity:1;fill-rule:nonzero;stroke:none"
             id="path2834" /></g><g
           id="g2836"
           transform="translate(256,286)"><path
             d="M 0,0 V -60"
             style="fill:none;stroke:#000000;stroke-width:30;stroke-linecap:round;stroke-linejoin:round;stroke-miterlimit:10;stroke-dasharray:none;stroke-opacity:1"
             id="path2838" /></g><g
           id="g2840"
           transform="translate(15,256)"><path
             d="M 0,0 H 31"
             style="fill:none;stroke:#000000;stroke-width:30;stroke-linecap:round;stroke-linejoin:round;stroke-miterlimit:10;stroke-dasharray:none;stroke-opacity:1"
             id="path2842" /></g><g
           id="g2844"
           transform="translate(466,256)"><path
             d="M 0,0 H 31"
             style="fill:none;stroke:#000000;stroke-width:30;stroke-linecap:round;stroke-linejoin:round;stroke-miterlimit:10;stroke-dasharray:none;stroke-opacity:1"
             id="path2846" /></g><g
           id="g2848"
           transform="translate(256,466)"><path
             d="M 0,0 V 31"
             style="fill:none;stroke:#000000;stroke-width:30;stroke-linecap:round;stroke-linejoin:round;stroke-miterlimit:10;stroke-dasharray:none;stroke-opacity:1"
             id="path2850" /></g><g
           id="g2852"
           transform="translate(107.5078,404.4922)"><path
             d="M 0,0 -21.213,21.213"
             style="fill:none;stroke:#000000;stroke-width:30;stroke-linecap:round;stroke-linejoin:round;stroke-miterlimit:10;stroke-dasharray:none;stroke-opacity:1"
             id="path2854" /></g><g
           id="g2856"
           transform="translate(425.7056,425.7056)"><path
             d="M 0,0 -21.213,-21.213"
             style="fill:none;stroke:#000000;stroke-width:30;stroke-linecap:round;stroke-linejoin:round;stroke-miterlimit:10;stroke-dasharray:none;stroke-opacity:1"
             id="path2858" /></g><g
           id="g2860"
           transform="translate(136,75)"><path
             d="m 0,0 v 181 c 0,66.274 53.726,120 120,120 66.274,0 120,-53.726 120,-120 V 0"
             style="fill:none;stroke:#000000;stroke-width:30;stroke-linecap:round;stroke-linejoin:round;stroke-miterlimit:10;stroke-dasharray:none;stroke-opacity:1"
             id="path2862" /></g></g></g></g></svg>
