<?xml version="1.0" encoding="utf-8"?>
<!-- Generator: Adobe Illustrator 24.2.0, SVG Export Plug-In . SVG Version: 6.00 Build 0)  -->
<svg version="1.1" id="svg8" xmlns:svg="http://www.w3.org/2000/svg"
	 xmlns="http://www.w3.org/2000/svg" xmlns:xlink="http://www.w3.org/1999/xlink" x="0px" y="0px" viewBox="0 0 466 460"
	 style="enable-background:new 0 0 466 460;" xml:space="preserve">
<g id="layer1" transform="translate(0 -288.533)">
	<path id="path1002" vector-effect="none" d="M24.5,294.4c-8.8,0.2-15.8,7.4-15.7,16.2v416c0,8.8,7.1,16,15.9,16.1h416.1
		c8.8,0.2,16.2-6.8,16.3-15.7c0.2-8.8-6.8-16.2-15.7-16.3c-0.2,0-0.5,0-0.7,0h-400v-400c0.1-8.8-7-16.1-15.8-16.2
		C24.8,294.4,24.7,294.4,24.5,294.4z M440.5,398.5c-4.1,0.1-8.1,1.9-11,4.8L265.3,567.5l-68.7-75.6c-5.9-6.5-16-7-22.6-1.1l-96,88
		c-6.5,6-7,16.1-1,22.6s16.1,7,22.6,1l0,0l84.2-77.1l69.1,76.1c5.9,6.5,16.1,7,22.6,1.1c0.2-0.2,0.4-0.3,0.5-0.5l176-176.1
		c6.3-6.2,6.4-16.3,0.2-22.6C449.2,400.1,444.9,398.4,440.5,398.5L440.5,398.5z"/>
</g>
</svg>
