<svg id="Layer_1" viewBox="0 0 512 512" xmlns="http://www.w3.org/2000/svg" data-name="Layer 1"><path d="m194 361.41a40.7 40.7 0 1 0 -40.7 40.7 40.744 40.744 0 0 0 40.7-40.7zm-67.394 0a26.7 26.7 0 1 1 26.7 26.7 26.727 26.727 0 0 1 -26.706-26.7zm300.84-125.762q-.189-.18-.392-.345a59.9 59.9 0 0 0 -43.754-13.874 7 7 0 0 0 -5.347 3.174c-1.912 2.951-5.951 4.785-10.541 4.785s-8.628-1.834-10.539-4.785a7 7 0 0 0 -5.348-3.174 59.569 59.569 0 0 0 -39.869 10.932l-177.198-100.652a7 7 0 0 0 -6.915 12.173l174.023 98.852c-7.392 11.619-9.792 28.637-7.323 51.655a10.647 10.647 0 0 0 4.042 7.3 77.513 77.513 0 0 0 15.015 9.161l-98.748 108.417c-.4-.421-.791-.854-1.212-1.254-.127-.12-.257-.236-.392-.346a59.906 59.906 0 0 0 -43.76-13.874 7 7 0 0 0 -5.348 3.174c-1.911 2.951-5.949 4.785-10.539 4.785s-8.629-1.834-10.54-4.785a7 7 0 0 0 -5.348-3.174 59.914 59.914 0 0 0 -43.76 13.874c-.134.11-.265.226-.392.346-11.861 11.287-16.154 30.5-13.126 58.737a10.651 10.651 0 0 0 4.043 7.3c16.022 12.582 37.933 18.95 65.179 18.95 1.3 0 2.619-.015 3.943-.043 29.082.628 52.335-5.724 69.124-18.906a10.646 10.646 0 0 0 4.041-7.3c2.055-19.16.728-34.153-4.034-45.346l105.032-115.312a132.656 132.656 0 0 0 36 4.542c1.3 0 2.618-.015 3.942-.043 29.092.617 52.335-5.723 69.124-18.907a10.65 10.65 0 0 0 4.042-7.3c3.029-28.238-1.264-47.451-13.125-58.737zm-214.758 238.225c-14.139 10.583-34.052 15.654-59.228 15.082-.106 0-.213 0-.319 0-25.158.589-45.089-4.5-59.228-15.082-2.218-22.367.748-37.683 8.818-45.544 9.169-7.433 19.208-10.972 30.637-10.721 4.77 5.155 11.961 8.143 19.933 8.143s15.162-2.988 19.932-8.143c11.413-.248 21.469 3.289 30.637 10.721 8.07 7.86 11.035 23.176 8.818 45.544zm214.112-182.364c-14.141 10.583-34.055 15.662-59.229 15.083-.107 0-.213 0-.319 0-25.162.569-45.089-4.5-59.228-15.083-2.218-22.367.748-37.683 8.818-45.544 9.169-7.434 19.241-10.972 30.637-10.721 4.77 5.154 11.96 8.143 19.932 8.143 7.971 0 15.163-2.989 19.932-8.143 11.424-.244 21.469 3.289 30.637 10.721 8.067 7.86 11.032 23.178 8.82 45.544zm-59.389-71.766a40.7 40.7 0 1 0 -40.7-40.7 40.743 40.743 0 0 0 40.696 40.7zm0-67.393a26.7 26.7 0 1 1 -26.7 26.7 26.726 26.726 0 0 1 26.696-26.7zm-265.111-23.132a7 7 0 0 0 -7-7h-1.9v-45.374l90.382-47.354a7 7 0 0 0 -4.217-13.133c-35.054 4.9-65.567 2.575-90.69-6.9-.035-.013-.071-.021-.106-.034-.159-.057-.32-.11-.484-.156-.077-.021-.153-.04-.229-.059q-.21-.051-.423-.09c-.1-.019-.208-.033-.311-.047-.118-.016-.235-.03-.354-.039s-.252-.016-.378-.019c-.064 0-.126-.01-.191-.01-.042 0-.083.006-.125.006-.125 0-.249.01-.372.019s-.231.017-.345.031c-.1.011-.2.028-.292.044-.139.023-.277.047-.413.077-.065.015-.13.033-.194.05-.163.042-.323.086-.481.139-.039.013-.077.029-.116.043-.177.062-.351.13-.521.206l-.078.037c-.177.083-.352.171-.521.267-.027.015-.052.032-.079.048-.165.1-.327.2-.483.308-.034.024-.067.051-.1.076-.145.106-.288.215-.424.332-.041.035-.08.073-.12.109-.127.114-.251.229-.37.352-.039.041-.076.085-.115.127-.116.126-.229.255-.336.39-.031.039-.059.079-.089.119-.112.147-.219.3-.319.454-.018.028-.035.058-.053.087-.108.174-.209.353-.3.537l-.023.048a6.659 6.659 0 0 0 -.267.612l-.007.014-.006.022c-.077.2-.143.412-.2.624-.008.03-.015.059-.022.088q-.072.279-.12.565c-.01.057-.018.114-.026.17-.023.162-.042.324-.054.489-.006.083-.009.165-.012.247s-.014.174-.014.263v106.215h-1.902a7 7 0 0 0 0 14h17.8a7 7 0 0 0 7-7zm-8.9-68.179v-35.299c16.253 4.884 34.24 7.284 53.82 7.1z"/></svg>