<svg xmlns="http://www.w3.org/2000/svg" width="379.6" height="306.7" viewBox="0 0 379.6 306.7">
  <defs>
    <style>
      .cls-1 {
        fill: #e8e8e8;
      }

      .cls-2 {
        fill: #125e88;
      }

      .cls-3 {
        fill: #1997d2;
      }

      .cls-4 {
        fill: #78d2f7;
      }

      .cls-5 {
        fill: #fff;
      }

      .cls-6 {
        fill: #00cb99;
      }

      .cls-7 {
        fill: #828282;
      }
    </style>
  </defs>
  <g id="Layer_2" data-name="Layer 2">
    <g id="레이어_1" data-name="레이어 1">
      <g>
        <g>
          <g>
            <path class="cls-1" d="M179,60.2c34.1,12.7,46.6,10.1,73-5l-1.6-2.3a73.4,73.4,0,0,0-128,19.2C122.5,72,145.1,47.7,179,60.2Z"/>
            <path class="cls-2" d="M236.5,105.9a38,38,0,0,0-20.1,15.6c-3.6,5.6-8.5,10.6-14.9,12.9-10.3,3.7-21.6-.2-30.7-5.1-29.6-16.1-42.9,3.1-43.2,3.5a65.2,65.2,0,0,0,5.1,7.8,73.3,73.3,0,0,0,131-30.7C255.5,104.7,245.8,102.9,236.5,105.9Z"/>
            <path class="cls-3" d="M166.4,102.8c-29.3,18.3-48.2-6.3-48.3-6.5a73.4,73.4,0,0,0,9.5,36.5c.3-.4,13.6-19.6,43.2-3.5,9.1,4.9,20.4,8.8,30.7,5.1,6.4-2.3,11.3-7.3,14.9-12.9a38,38,0,0,1,20.1-15.6c9.3-3,19-1.2,27.2,4a68.3,68.3,0,0,0,1.2-12.7C224.2,70,195.8,84.5,166.4,102.8Z"/>
            <path class="cls-4" d="M179,60.2C145.1,47.7,122.5,72,122.4,72.1a74.3,74.3,0,0,0-4.3,24.2c.1.2,19,24.8,48.3,6.5s57.8-32.8,98.5-5.6a73.1,73.1,0,0,0-12.9-42C225.6,70.3,213.1,72.9,179,60.2Z"/>
          </g>
          <path class="cls-5" d="M232.7,132.4,195.4,95.1V42.5a3.9,3.9,0,1,0-7.8,0V96.8a1.7,1.7,0,0,0,.1.7v.4c.1.1.1.2.2.4s.1.2.2.3.1.2.1.4l.5.5h0l38.4,38.4a3.9,3.9,0,0,0,5.6-5.5Z"/>
          <g>
            <path class="cls-6" d="M279.7,68.2h-.6a3,3,0,0,1-2.2-3.5,13.7,13.7,0,0,0-1-9.3,14.1,14.1,0,0,0-6.6-6.6,3,3,0,0,1-1.4-3.8,2.8,2.8,0,0,1,3.8-1.3A19.1,19.1,0,0,1,281,53a19.5,19.5,0,0,1,1.5,13A2.9,2.9,0,0,1,279.7,68.2Z"/>
            <path class="cls-6" d="M267.7,65.1h-.6a2.9,2.9,0,0,1-2.2-3.4,1,1,0,0,0-.1-.9,1.2,1.2,0,0,0-.6-.6,2.8,2.8,0,0,1,2.5-5.1,7,7,0,0,1,3.3,3.3,7.2,7.2,0,0,1,.5,4.6A2.9,2.9,0,0,1,267.7,65.1Z"/>
            <path class="cls-6" d="M291.9,72.1h-.7a2.8,2.8,0,0,1-2.1-3.4,26.9,26.9,0,0,0-15.4-31.8,2.9,2.9,0,0,1-1.5-3.8,2.9,2.9,0,0,1,3.7-1.5,32.8,32.8,0,0,1,16.6,16A31.9,31.9,0,0,1,294.6,70,2.7,2.7,0,0,1,291.9,72.1Z"/>
          </g>
          <path class="cls-2" d="M191,193.5A96.8,96.8,0,1,1,257.6,26.6a3.9,3.9,0,0,1-5.4,5.7,88.9,88.9,0,1,0,27.7,64.5,65.1,65.1,0,0,0-.4-7.7,4.1,4.1,0,0,1,3.6-4.3,3.9,3.9,0,0,1,4.3,3.6c.2,2.7.3,5.6.3,8.4A96.8,96.8,0,0,1,191,193.5Z"/>
        </g>
        <g>
          <path class="cls-2" d="M0,233.8a2.2,2.2,0,0,1,.5-1.4,1.7,1.7,0,0,1,1.3-.5H25.4a1.7,1.7,0,0,1,1.8,1.9v2.9a1.5,1.5,0,0,1-.5,1.3,1.5,1.5,0,0,1-1.3.6H7.6v6.6H21.3a2.1,2.1,0,0,1,1.3.5,2.1,2.1,0,0,1,.4,1.4V250a1.8,1.8,0,0,1-.4,1.3,1.8,1.8,0,0,1-1.3.6H7.6v11.3a2,2,0,0,1-.5,1.4,1.7,1.7,0,0,1-1.3.5h-4a1.4,1.4,0,0,1-1.3-.5,2,2,0,0,1-.5-1.4Z"/>
          <path class="cls-2" d="M30.3,233.8a2.2,2.2,0,0,1,.5-1.4,2.1,2.1,0,0,1,1.3-.5h4a1.7,1.7,0,0,1,1.3.5,2.2,2.2,0,0,1,.5,1.4v24.7H56.2a1.7,1.7,0,0,1,1.8,1.9v2.8a1.6,1.6,0,0,1-.5,1.4,1.4,1.4,0,0,1-1.3.5H32.1a1.7,1.7,0,0,1-1.3-.5,2,2,0,0,1-.5-1.4Z"/>
          <path class="cls-2" d="M61.1,242.4a13.8,13.8,0,0,1,.7-4.3,10.8,10.8,0,0,1,2-3.3,8.9,8.9,0,0,1,3.2-2.1,10.2,10.2,0,0,1,4-.8H88.8a10.6,10.6,0,0,1,4,.8,9.5,9.5,0,0,1,3.1,2.1,8.9,8.9,0,0,1,1.9,3.3,11.4,11.4,0,0,1,.7,4.3v12.3a12.1,12.1,0,0,1-.7,4.3,8.9,8.9,0,0,1-1.9,3.3,9.5,9.5,0,0,1-3.1,2.1,10.5,10.5,0,0,1-4,.7H71a10.2,10.2,0,0,1-4-.7,8.9,8.9,0,0,1-3.2-2.1,10.8,10.8,0,0,1-2-3.3,14.9,14.9,0,0,1-.7-4.3Zm7.6,11.3a5,5,0,0,0,1.2,3.5,4.1,4.1,0,0,0,3.2,1.3H86.5a4.3,4.3,0,0,0,3.3-1.3,5,5,0,0,0,1.2-3.5V243.3a4.7,4.7,0,0,0-1.2-3.4,4.3,4.3,0,0,0-3.3-1.3H73.1a4.1,4.1,0,0,0-3.2,1.3,4.7,4.7,0,0,0-1.2,3.4Z"/>
          <path class="cls-2" d="M102.1,242.4a11.4,11.4,0,0,1,.7-4.3,10.8,10.8,0,0,1,2-3.3,9.5,9.5,0,0,1,3.1-2.1,11,11,0,0,1,4-.8h17.8a10.7,10.7,0,0,1,4.1.8,8.1,8.1,0,0,1,3,2.1,9.1,9.1,0,0,1,2,3.3,11.4,11.4,0,0,1,.7,4.3v12.3a12.1,12.1,0,0,1-.7,4.3,9.1,9.1,0,0,1-2,3.3,8.1,8.1,0,0,1-3,2.1,10.7,10.7,0,0,1-4.1.7H111.9a10.9,10.9,0,0,1-4-.7,9.5,9.5,0,0,1-3.1-2.1,10.8,10.8,0,0,1-2-3.3,12.1,12.1,0,0,1-.7-4.3Zm7.6,11.3a5,5,0,0,0,1.2,3.5,4.1,4.1,0,0,0,3.2,1.3h13.4a4.1,4.1,0,0,0,3.2-1.3,4.6,4.6,0,0,0,1.3-3.5V243.3a4.4,4.4,0,0,0-1.3-3.4,4.1,4.1,0,0,0-3.2-1.3H114.1a4.1,4.1,0,0,0-3.2,1.3,4.7,4.7,0,0,0-1.2,3.4Z"/>
          <path class="cls-2" d="M143.5,233.8a2.2,2.2,0,0,1,.5-1.4,1.9,1.9,0,0,1,1.3-.5h21.9a10.6,10.6,0,0,1,4,.8,9.5,9.5,0,0,1,3.1,2.1,8.9,8.9,0,0,1,1.9,3.3,11.4,11.4,0,0,1,.7,4.3v12.3a12.1,12.1,0,0,1-.7,4.3,8.9,8.9,0,0,1-1.9,3.3,9.5,9.5,0,0,1-3.1,2.1,10.5,10.5,0,0,1-4,.7H145.3a1.5,1.5,0,0,1-1.3-.5,2,2,0,0,1-.5-1.4Zm7.6,24.7h13.8a4.3,4.3,0,0,0,3.3-1.3,5,5,0,0,0,1.2-3.5V243.3a4.7,4.7,0,0,0-1.2-3.4,4.3,4.3,0,0,0-3.3-1.3H151.1Z"/>
          <path class="cls-2" d="M189.1,233.6c-.1-.5-.2-.9,0-1.2s.4-.5,1-.5h4.5a3,3,0,0,1,1.6.5,2.5,2.5,0,0,1,1.1,1.2l7.9,21.4,8-21.4a1.9,1.9,0,0,1,1-1.2,3,3,0,0,1,1.6-.5h4.6a3,3,0,0,1,1.5.5,2.1,2.1,0,0,1,1.1,1.2l8,21.4,7.9-21.4a2.3,2.3,0,0,1,1-1.2,3.3,3.3,0,0,1,1.6-.5h4.6a1.1,1.1,0,0,1,1,.5,1.7,1.7,0,0,1-.1,1.2l-11.1,29.9a1.9,1.9,0,0,1-1,1.2,3.2,3.2,0,0,1-1.6.4h-4.7a2.9,2.9,0,0,1-1.6-.4,2.5,2.5,0,0,1-1.1-1.2l-7.8-21.2-7.9,21.2a2.3,2.3,0,0,1-1,1.2,3.2,3.2,0,0,1-1.6.4h-4.8a2.8,2.8,0,0,1-1.5-.4,2.1,2.1,0,0,1-1.1-1.2Z"/>
          <path class="cls-2" d="M258,233.6a3.2,3.2,0,0,1,1.1-1.2,3,3,0,0,1,1.6-.5h4.7a3,3,0,0,1,1.6.5,3.2,3.2,0,0,1,1.1,1.2l13.3,29.9a1.7,1.7,0,0,1,.1,1.2c-.2.3-.5.4-1.1.4h-4.6a2.8,2.8,0,0,1-1.5-.4,3.2,3.2,0,0,1-1.1-1.2l-2-4.6H254.9l-2,4.6a2.5,2.5,0,0,1-1.1,1.2,2.8,2.8,0,0,1-1.5.4h-4.6c-.6,0-.9-.1-1.1-.4a1.7,1.7,0,0,1,.1-1.2Zm-.1,18.6h10.3l-5.1-11.5Z"/>
          <path class="cls-2" d="M279.5,238.6a1.8,1.8,0,0,1-1.3-.6,1.8,1.8,0,0,1-.4-1.3v-2.9a1.6,1.6,0,0,1,1.7-1.9h25.4a1.9,1.9,0,0,1,1.3.5,2.2,2.2,0,0,1,.5,1.4v2.9a1.9,1.9,0,0,1-.5,1.3,1.6,1.6,0,0,1-1.3.6H296v24.6a2,2,0,0,1-.5,1.4,1.4,1.4,0,0,1-1.3.5h-4a1.7,1.7,0,0,1-1.3-.5,2,2,0,0,1-.5-1.4V238.6Z"/>
          <path class="cls-2" d="M319.6,265.1a10.5,10.5,0,0,1-4-.7,9.5,9.5,0,0,1-3.1-2.1,9.1,9.1,0,0,1-2-3.3,12.1,12.1,0,0,1-.7-4.3V242.4a11.4,11.4,0,0,1,.7-4.3,9.1,9.1,0,0,1,2-3.3,9.5,9.5,0,0,1,3.1-2.1,10.6,10.6,0,0,1,4-.8h13.3a18,18,0,0,1,4.3.4,8.6,8.6,0,0,1,2.9,1.3,5.2,5.2,0,0,1,1.8,2.5,12.7,12.7,0,0,1,.8,3.8,1.5,1.5,0,0,1-.4,1.3,1.6,1.6,0,0,1-1.3.6h-3.6c-.9,0-1.6-.6-1.9-1.9a1.9,1.9,0,0,0-.8-1.1l-1.5-.2H321.8a4.1,4.1,0,0,0-3.2,1.3,4.7,4.7,0,0,0-1.2,3.4v10.4a5,5,0,0,0,1.2,3.5,4.1,4.1,0,0,0,3.2,1.3h11.8a3.5,3.5,0,0,0,1.6-.3,1.5,1.5,0,0,0,.7-1c.4-1.3,1-1.9,2-1.9h3.5a1.4,1.4,0,0,1,1.3.5,1.7,1.7,0,0,1,.5,1.4,16.8,16.8,0,0,1-.8,3.8,9.4,9.4,0,0,1-1.8,2.5,8.3,8.3,0,0,1-3,1.3,25.8,25.8,0,0,1-4.2.3Z"/>
          <path class="cls-2" d="M346.8,233.8a1.7,1.7,0,0,1,.5-1.4,1.7,1.7,0,0,1,1.2-.5h4a1.7,1.7,0,0,1,1.8,1.9v11.4H372V233.8a2.2,2.2,0,0,1,.5-1.4,2.1,2.1,0,0,1,1.3-.5h4a1.7,1.7,0,0,1,1.3.5,2.2,2.2,0,0,1,.5,1.4v29.4a2,2,0,0,1-.5,1.4,1.4,1.4,0,0,1-1.3.5h-4a1.7,1.7,0,0,1-1.3-.5,2,2,0,0,1-.5-1.4V251.9H354.3v11.3a1.6,1.6,0,0,1-.5,1.4,1.4,1.4,0,0,1-1.3.5h-4a1.3,1.3,0,0,1-1.2-.5,1.6,1.6,0,0,1-.5-1.4Z"/>
        </g>
        <g>
          <path class="cls-7" d="M99.8,291.2v4.3h1.8v-4.3H103v11.4H98.5V291.2Zm0,10h1.8v-4.4H99.8Zm5.3-10v4.3h1.8v-4.3h1.3v11.4h-4.4V291.2Zm0,10h1.8v-4.4h-1.8Zm6-11.6v17.1h-1.6V289.6Zm2,6.6v1.4h-2.9v-1.4Z"/>
          <path class="cls-7" d="M128.7,299v1.4H114.2V299Zm-1.9-8.9v4.3h-9.2v2.3H116v-3.5h9.3v-1.8H116v-1.3Zm.4,6.1v1.3H116v-1.3Zm-9.6,5.5v3.8h-1.5v-3.8Zm9.6,3.3v1.3H116.1V305Z"/>
          <path class="cls-7" d="M135.4,291.3v1.3a9.4,9.4,0,0,1-.5,3,6.8,6.8,0,0,1-3.9,4l-.9-1.3a5.7,5.7,0,0,0,2.1-1.3,7,7,0,0,0,1.5-2,6.7,6.7,0,0,0,.4-2.4v-1.3Zm3.8-.5v1.4h-8.6v-1.4Zm2.8,10.3a2.8,2.8,0,0,1,1.4,2.4,2.5,2.5,0,0,1-1.4,2.3,7.6,7.6,0,0,1-4,.9,7.3,7.3,0,0,1-3.9-.9,2.4,2.4,0,0,1-1.4-2.3,2.4,2.4,0,0,1,.6-1.7,4.4,4.4,0,0,1,1.9-1.2,11.4,11.4,0,0,1,2.8-.3A7.7,7.7,0,0,1,142,301.1Zm-6,.7a3.2,3.2,0,0,0-1.3.7,1.2,1.2,0,0,0-.5,1,1.4,1.4,0,0,0,.5,1,3.2,3.2,0,0,0,1.3.7l2,.2,2.1-.2a4,4,0,0,0,1.3-.7,1.3,1.3,0,0,0,.4-1,1.2,1.2,0,0,0-.4-1,4,4,0,0,0-1.3-.7l-2.1-.2Zm-.3-10.5v1.3a5.4,5.4,0,0,0,.5,2.2,7.3,7.3,0,0,0,1.4,1.8,6.7,6.7,0,0,0,2,1.2l-.8,1.4a7.6,7.6,0,0,1-2.3-1.5,6.5,6.5,0,0,1-1.5-2.3,6.6,6.6,0,0,1-.5-2.8v-1.3Zm6.5,2.7v1.4h-3.5V294Zm1.1-4.4v10.2h-1.5V289.6Z"/>
          <path class="cls-7" d="M160.6,303.1v1.4H146.1v-1.4Zm-11.3-12.4v3h8v-3h1.6v8.8H147.8v-8.8Zm0,7.5h8v-3.1h-8Zm4.8.9v4.4h-1.6v-4.4Z"/>
          <path class="cls-7" d="M176.6,303.2v1.4H162v-1.4Zm-1.8-12.4v5.3h-9.4v3.3h-1.6v-4.7h9.4v-2.6h-9.4v-1.3Zm.4,7.9v1.4H163.8v-1.4Zm-5.1.9v4.2h-1.6v-4.2Z"/>
          <path class="cls-7" d="M188.8,291.3a3.1,3.1,0,0,1,1.5,1.5,4,4,0,0,1,.6,2.2,4.3,4.3,0,0,1-.6,2.2,3.6,3.6,0,0,1-1.5,1.5,4.6,4.6,0,0,1-2.1.5,5.4,5.4,0,0,1-2.2-.5,5.4,5.4,0,0,1-1.5-1.5,4.2,4.2,0,0,1-.5-2.2,4,4,0,0,1,.5-2.2,4.3,4.3,0,0,1,3.7-2.1A3.7,3.7,0,0,1,188.8,291.3Zm-3.5,1.3a2.4,2.4,0,0,0-1,1,2.8,2.8,0,0,0,1,3.8,2.9,2.9,0,0,0,1.4.3,2.8,2.8,0,0,0,1.3-.3,1.9,1.9,0,0,0,1-1,3.4,3.4,0,0,0,0-2.8,1.9,1.9,0,0,0-1-1,2,2,0,0,0-1.3-.4A2.3,2.3,0,0,0,185.3,292.6Zm.9,8.3v4.6h-1.6v-4.6Zm9.2,4.1v1.3H184.6V305Zm-.7-15.4v12.6h-1.6V289.6Zm2.3,5.1v1.4h-2.8v-1.4Z"/>
          <path class="cls-7" d="M203.4,291.7v1.4a7.1,7.1,0,0,1-.5,2.9,7.8,7.8,0,0,1-1.6,2.4A6.3,6.3,0,0,1,199,300l-.9-1.4a5.7,5.7,0,0,0,2.1-1.3,6.6,6.6,0,0,0,1.5-1.9,6.4,6.4,0,0,0,.5-2.3v-1.4Zm3.8-.8v1.4h-8.6v-1.4ZM202.6,301v4.7H201V301Zm9.2,4v1.3H201V305Zm-8.1-13.3v1.4a5.4,5.4,0,0,0,.5,2.1,4.9,4.9,0,0,0,1.4,1.8,5.3,5.3,0,0,0,2,1.3l-.8,1.3a9.1,9.1,0,0,1-2.3-1.5,7,7,0,0,1-1.5-2.3,6.5,6.5,0,0,1-.5-2.7v-1.4Zm6.9,2.5v1.4h-4v-1.4Zm.8-4.6v12.5h-1.6V289.6Z"/>
          <path class="cls-7" d="M228.6,296.9v1.3H214.1v-1.3Zm-3.1-6.3a2.4,2.4,0,0,1,1.5,2.2,2.3,2.3,0,0,1-1.5,2.2,9.5,9.5,0,0,1-4.2.8,9.3,9.3,0,0,1-4.1-.8,2.3,2.3,0,0,1-1.5-2.2,2.4,2.4,0,0,1,1.5-2.2,9.4,9.4,0,0,1,4.1-.7A9.6,9.6,0,0,1,225.5,290.6Zm1.2,9v4h-9.3v2h-1.5v-3.3h9.3v-1.4h-9.4v-1.3Zm.5,5.6v1.3H215.9v-1.3Zm-8.9-13.7a1.3,1.3,0,0,0,0,2.6,11.5,11.5,0,0,0,6,0,1.3,1.3,0,0,0,0-2.6,11.5,11.5,0,0,0-6,0Z"/>
          <path class="cls-7" d="M239.7,292v2.7a11.3,11.3,0,0,1-.6,3.6,11.7,11.7,0,0,1-1.7,3.1,6.2,6.2,0,0,1-2.3,2l-.9-1.3a6,6,0,0,0,2.1-1.8,10.1,10.1,0,0,0,1.6-2.6,10.5,10.5,0,0,0,.5-3V292Zm4-.7v1.4h-9v-1.4Zm-3.7.7v2.7a6.7,6.7,0,0,0,.6,2.8,5.8,5.8,0,0,0,1.5,2.5,6.2,6.2,0,0,0,2.1,1.6l-.8,1.4a7.2,7.2,0,0,1-2.4-1.9,10.2,10.2,0,0,1-2.3-6.4V292Zm7.4-2.4v17.1h-1.6V289.6Z"/>
          <path class="cls-7" d="M258,296.3a10.9,10.9,0,0,1-2.3,4.2,12,12,0,0,1-4.4,3.4l-.8-1.3a13.2,13.2,0,0,0,3.9-2.9,12.9,12.9,0,0,0,2.2-3.7,15.8,15.8,0,0,0,.6-4.5v-.2h1.5A15.9,15.9,0,0,1,258,296.3Zm-1,.6-6.2.6-.3-1.5,6.5-.4Zm1-5.6v1.4h-6.7v-1.4Zm5.4-1.7v17.1h-1.6V289.6Z"/>
          <path class="cls-7" d="M274.3,291.2v1.4h-5.9v9.1h-1.6V291.2Zm-2.1,9.7,3.3-.4.2,1.4-3.5.5h-5.4V301h5.4Zm6.3-11.4v17.2h-1.6V289.5Zm2.6,6.7v1.5h-2.9v-1.5Z"/>
        </g>
      </g>
    </g>
  </g>
</svg>
