<svg xmlns="http://www.w3.org/2000/svg" width="497.5" height="94.2" viewBox="0 0 497.5 94.2">
  <defs>
    <style>
      .cls-1 {
        fill: #e8e8e8;
      }

      .cls-2 {
        fill: #125e88;
      }

      .cls-3 {
        fill: #1997d2;
      }

      .cls-4 {
        fill: #78d2f7;
      }

      .cls-5 {
        fill: #fff;
      }

      .cls-6 {
        fill: #00cb99;
      }
    </style>
  </defs>
  <g id="Layer_2" data-name="Layer 2">
    <g id="레이어_1" data-name="레이어 1">
      <g>
        <g>
          <g>
            <path class="cls-1" d="M41.3,29.3c16.6,6.2,22.6,4.9,35.5-2.4a10.5,10.5,0,0,0-.8-1.1,35.7,35.7,0,0,0-50-7.3A35.1,35.1,0,0,0,13.7,35.1C13.8,35,24.8,23.2,41.3,29.3Z"/>
            <path class="cls-2" d="M69.2,51.5a18.7,18.7,0,0,0-9.7,7.6,14.5,14.5,0,0,1-7.3,6.3c-5,1.8-10.5-.1-14.9-2.5-14.4-7.8-20.9,1.5-21,1.7a30.3,30.3,0,0,0,2.4,3.8A35.7,35.7,0,0,0,82.5,53.5,15.7,15.7,0,0,0,69.2,51.5Z"/>
            <path class="cls-3" d="M35.1,50c-14.2,8.9-23.4-3.1-23.5-3.1a35,35,0,0,0,4.7,17.7c.1-.2,6.6-9.5,21-1.7,4.4,2.4,9.9,4.3,14.9,2.5a14.5,14.5,0,0,0,7.3-6.3,18.7,18.7,0,0,1,9.7-7.6,15.7,15.7,0,0,1,13.3,2,32.6,32.6,0,0,0,.6-6.2C63.3,34.1,49.4,41.1,35.1,50Z"/>
            <path class="cls-4" d="M41.3,29.3C24.8,23.2,13.8,35,13.7,35.1a39.6,39.6,0,0,0-2.1,11.8c.1,0,9.3,12,23.5,3.1s28.2-15.9,48-2.7a35.6,35.6,0,0,0-6.3-20.4C63.9,34.2,57.9,35.5,41.3,29.3Z"/>
          </g>
          <path class="cls-5" d="M67.4,64.4,49.3,46.3V20.7a1.9,1.9,0,0,0-1.9-1.9,1.9,1.9,0,0,0-2,1.9V47.1c0,.1.1.2.1.4h0a.3.3,0,0,0,.1.2c0,.1,0,.1.1.2s0,.1.1.2a.2.2,0,0,0,.2.2h0L64.7,67.1a1.9,1.9,0,0,0,1.3.6,2,2,0,0,0,1.4-.6A2,2,0,0,0,67.4,64.4Z"/>
          <g>
            <path class="cls-6" d="M90.3,33.2H90a1.5,1.5,0,0,1-1.1-1.7,6.4,6.4,0,0,0-.5-4.5,7.3,7.3,0,0,0-3.2-3.3,1.2,1.2,0,0,1-.6-1.8,1.4,1.4,0,0,1,1.8-.7,9.6,9.6,0,0,1,4.5,4.6,9.2,9.2,0,0,1,.7,6.3A1.3,1.3,0,0,1,90.3,33.2Z"/>
            <path class="cls-6" d="M84.4,31.7h-.3a1.3,1.3,0,0,1-1-1.6.6.6,0,0,0-.1-.4c0-.2-.2-.3-.3-.4a1.3,1.3,0,0,1-.6-1.8,1.4,1.4,0,0,1,1.8-.7,3.7,3.7,0,0,1,1.6,1.7,2.9,2.9,0,0,1,.3,2.2A1.4,1.4,0,0,1,84.4,31.7Z"/>
            <path class="cls-6" d="M96.2,35.1h-.3a1.4,1.4,0,0,1-1-1.7,13,13,0,0,0-.9-9.1,12.9,12.9,0,0,0-6.6-6.4,1.4,1.4,0,0,1-.8-1.8,1.5,1.5,0,0,1,1.9-.7,15.4,15.4,0,0,1,8,7.7,16.1,16.1,0,0,1,1.1,11A1.5,1.5,0,0,1,96.2,35.1Z"/>
          </g>
          <path class="cls-2" d="M47.1,94.2A47.1,47.1,0,1,1,79.5,12.9a1.9,1.9,0,0,1-2.6,2.8A43.3,43.3,0,1,0,90.4,47.1c0-1.3-.1-2.5-.2-3.8a1.9,1.9,0,0,1,1.7-2A1.9,1.9,0,0,1,94,43c.1,1.4.2,2.7.2,4.1A47.1,47.1,0,0,1,47.1,94.2Z"/>
        </g>
        <g>
          <g>
            <path class="cls-2" d="M117.9,17.6a2.2,2.2,0,0,1,.5-1.4,1.9,1.9,0,0,1,1.3-.5h23.7a2.1,2.1,0,0,1,1.3.5,2.2,2.2,0,0,1,.5,1.4v2.8a2,2,0,0,1-.5,1.4,1.7,1.7,0,0,1-1.3.5H125.5V29h13.7a1.5,1.5,0,0,1,1.3.5,2,2,0,0,1,.5,1.4v2.8a2.2,2.2,0,0,1-.5,1.4,1.9,1.9,0,0,1-1.3.5H125.5V47a2.2,2.2,0,0,1-.5,1.4,1.9,1.9,0,0,1-1.3.5h-4a1.9,1.9,0,0,1-1.3-.5,2.2,2.2,0,0,1-.5-1.4Z"/>
            <path class="cls-2" d="M148.3,17.6a1.7,1.7,0,0,1,.5-1.4,1.7,1.7,0,0,1,1.2-.5h4.1a1.7,1.7,0,0,1,1.2.5,1.7,1.7,0,0,1,.5,1.4V42.3h18.4a1.7,1.7,0,0,1,1.3.5,2,2,0,0,1,.4,1.4V47a1.6,1.6,0,0,1-1.7,1.9H150a1.7,1.7,0,0,1-1.2-.5,1.7,1.7,0,0,1-.5-1.4Z"/>
            <path class="cls-2" d="M179.1,26.1a11.8,11.8,0,0,1,.7-4.3,7.6,7.6,0,0,1,2-3.2,8.9,8.9,0,0,1,7.1-2.9h17.8a10.2,10.2,0,0,1,4,.7,11.6,11.6,0,0,1,3.1,2.2,10.3,10.3,0,0,1,2,3.2,14.3,14.3,0,0,1,.7,4.3V38.5a14.2,14.2,0,0,1-.7,4.2,10.8,10.8,0,0,1-2,3.3,9.5,9.5,0,0,1-3.1,2.1,10.2,10.2,0,0,1-4,.8H188.9a10.2,10.2,0,0,1-4-.8,8.5,8.5,0,0,1-3.1-2.1,7.9,7.9,0,0,1-2-3.3,11.6,11.6,0,0,1-.7-4.2Zm7.5,11.4a5.1,5.1,0,0,0,1.2,3.5,4.7,4.7,0,0,0,3.3,1.3h13.4a4.4,4.4,0,0,0,3.2-1.3,5.1,5.1,0,0,0,1.2-3.5V27.1a5.1,5.1,0,0,0-1.2-3.5,4.4,4.4,0,0,0-3.2-1.3H191.1a4.7,4.7,0,0,0-3.3,1.3,5.1,5.1,0,0,0-1.2,3.5Z"/>
            <path class="cls-2" d="M220,26.1a14.3,14.3,0,0,1,.7-4.3,10.3,10.3,0,0,1,2-3.2,10.7,10.7,0,0,1,3.2-2.2,10.2,10.2,0,0,1,4-.7h17.8a10.5,10.5,0,0,1,4,.7,11.6,11.6,0,0,1,3.1,2.2,8.5,8.5,0,0,1,1.9,3.2,11.8,11.8,0,0,1,.8,4.3V38.5a11.6,11.6,0,0,1-.8,4.2,8.9,8.9,0,0,1-1.9,3.3,9.5,9.5,0,0,1-3.1,2.1,10.6,10.6,0,0,1-4,.8H229.9a10.2,10.2,0,0,1-4-.8,8.9,8.9,0,0,1-3.2-2.1,10.8,10.8,0,0,1-2-3.3,14.2,14.2,0,0,1-.7-4.2Zm7.6,11.4a5.1,5.1,0,0,0,1.2,3.5,4.4,4.4,0,0,0,3.2,1.3h13.4a4.7,4.7,0,0,0,3.3-1.3,5.1,5.1,0,0,0,1.2-3.5V27.1a5.1,5.1,0,0,0-1.2-3.5,4.7,4.7,0,0,0-3.3-1.3H232a4.4,4.4,0,0,0-3.2,1.3,5.1,5.1,0,0,0-1.2,3.5Z"/>
            <path class="cls-2" d="M261.5,17.6a2.1,2.1,0,0,1,.4-1.4,2.1,2.1,0,0,1,1.3-.5h21.9a10.2,10.2,0,0,1,4,.7,11.6,11.6,0,0,1,3.1,2.2,10.3,10.3,0,0,1,2,3.2,14.3,14.3,0,0,1,.7,4.3V38.5a14.2,14.2,0,0,1-.7,4.2,10.8,10.8,0,0,1-2,3.3,9.5,9.5,0,0,1-3.1,2.1,10.2,10.2,0,0,1-4,.8H263.2a1.6,1.6,0,0,1-1.7-1.9ZM269,42.3h13.9a4.4,4.4,0,0,0,3.2-1.3,5.1,5.1,0,0,0,1.2-3.5V27.1a5.1,5.1,0,0,0-1.2-3.5,4.4,4.4,0,0,0-3.2-1.3H269Z"/>
            <path class="cls-2" d="M307.1,17.3a1.7,1.7,0,0,1-.1-1.2c.1-.3.5-.4,1-.4h4.6a3.4,3.4,0,0,1,1.6.4,2.3,2.3,0,0,1,1,1.2l8,21.5,7.9-21.5a2.3,2.3,0,0,1,1-1.2,3.2,3.2,0,0,1,1.6-.4h4.6a3.2,3.2,0,0,1,1.6.4,2.3,2.3,0,0,1,1,1.2l8,21.5,7.9-21.5a2.3,2.3,0,0,1,1-1.2,3.4,3.4,0,0,1,1.6-.4H364c.5,0,.9.1,1,.4a1.7,1.7,0,0,1-.1,1.2l-11,29.9a2.8,2.8,0,0,1-1.1,1.3,2.9,2.9,0,0,1-1.6.4h-4.7a2.9,2.9,0,0,1-1.6-.4,2.1,2.1,0,0,1-1-1.3L336,26l-7.9,21.2a2.1,2.1,0,0,1-1,1.3,2.9,2.9,0,0,1-1.6.4h-4.7a2.9,2.9,0,0,1-1.6-.4,2.8,2.8,0,0,1-1.1-1.3Z"/>
            <path class="cls-2" d="M376,17.3a2.5,2.5,0,0,1,1.1-1.2,2.8,2.8,0,0,1,1.5-.4h4.8a2.8,2.8,0,0,1,1.5.4,3.2,3.2,0,0,1,1.1,1.2l13.3,29.9a1.5,1.5,0,0,1,.1,1.3,1.1,1.1,0,0,1-1,.4h-4.6a2.9,2.9,0,0,1-1.6-.4,3.5,3.5,0,0,1-1.1-1.3l-2-4.6H372.9l-2.1,4.6a2.8,2.8,0,0,1-1.1,1.3,2.8,2.8,0,0,1-1.5.4h-4.6c-.5,0-.9-.1-1-.4a1.2,1.2,0,0,1,.1-1.3ZM375.8,36h10.4L381,24.4Z"/>
            <path class="cls-2" d="M397.5,22.3a1.4,1.4,0,0,1-1.3-.5,1.6,1.6,0,0,1-.5-1.4V17.6a1.7,1.7,0,0,1,1.8-1.9h25.3a1.7,1.7,0,0,1,1.3.5,2.2,2.2,0,0,1,.5,1.4v2.8a2,2,0,0,1-.5,1.4,1.4,1.4,0,0,1-1.3.5h-8.9V47a1.7,1.7,0,0,1-1.8,1.9h-4a1.7,1.7,0,0,1-1.2-.5,1.7,1.7,0,0,1-.5-1.4V22.3Z"/>
            <path class="cls-2" d="M437.6,48.9a11.1,11.1,0,0,1-4.1-.8,9.5,9.5,0,0,1-3.1-2.1,10.8,10.8,0,0,1-2-3.3,14.2,14.2,0,0,1-.7-4.2V26.1a14.3,14.3,0,0,1,.7-4.3,10.3,10.3,0,0,1,2-3.2,11.6,11.6,0,0,1,3.1-2.2,11,11,0,0,1,4.1-.7h13.3a17.6,17.6,0,0,1,4.2.4,6,6,0,0,1,2.9,1.3,5.5,5.5,0,0,1,1.8,2.4,10.8,10.8,0,0,1,.8,3.9,1.3,1.3,0,0,1-.4,1.3,1.6,1.6,0,0,1-1.3.6h-3.6c-.9,0-1.6-.7-1.9-1.9a2.3,2.3,0,0,0-.7-1.1,3.5,3.5,0,0,0-1.6-.3H439.7a4.4,4.4,0,0,0-3.2,1.3,5.1,5.1,0,0,0-1.2,3.5V37.5a5.1,5.1,0,0,0,1.2,3.5,4.4,4.4,0,0,0,3.2,1.3h11.9a3.1,3.1,0,0,0,1.5-.3,1.8,1.8,0,0,0,.7-1.1c.4-1.2,1-1.9,2-1.9h3.6a1.8,1.8,0,0,1,1.3.6,1.8,1.8,0,0,1,.4,1.3,14.1,14.1,0,0,1-.8,3.9,5.5,5.5,0,0,1-1.8,2.4,6.9,6.9,0,0,1-3,1.3,16.6,16.6,0,0,1-4.2.4Z"/>
            <path class="cls-2" d="M464.7,17.6a2.2,2.2,0,0,1,.5-1.4,1.7,1.7,0,0,1,1.3-.5h4a2.1,2.1,0,0,1,1.3.5,2.2,2.2,0,0,1,.5,1.4V29H490V17.6a1.7,1.7,0,0,1,.5-1.4,1.7,1.7,0,0,1,1.2-.5h4a1.7,1.7,0,0,1,1.8,1.9V47a1.7,1.7,0,0,1-1.8,1.9h-4a1.7,1.7,0,0,1-1.2-.5A1.7,1.7,0,0,1,490,47V35.6H472.3V47a2.2,2.2,0,0,1-.5,1.4,2.1,2.1,0,0,1-1.3.5h-4a1.7,1.7,0,0,1-1.3-.5,2.2,2.2,0,0,1-.5-1.4Z"/>
          </g>
          <g>
            <path class="cls-2" d="M229.1,68.5h-1.6V64.7h-1.2V74.9h4V64.7h-1.2Zm0,5.1h-1.6V69.8h1.6Z"/>
            <polygon class="cls-2" points="237.5 63.3 236.1 63.3 236.1 78.6 237.5 78.6 237.5 70.5 239.3 70.5 239.3 69.2 237.5 69.2 237.5 63.3"/>
            <path class="cls-2" d="M233.8,68.5h-1.6V64.7H231V74.9h3.9V64.7h-1.1Zm0,5.1h-1.6V69.8h1.6Z"/>
            <polygon class="cls-2" points="250.2 66.5 241.9 66.5 241.9 69.2 241.9 69.6 241.9 70.4 251.9 70.4 251.9 69.2 243.3 69.2 243.3 67.6 251.6 67.6 251.6 63.8 241.9 63.8 241.9 64.9 250.2 64.9 250.2 66.5"/>
            <polygon class="cls-2" points="243.4 74.1 242 74.1 242 77 242 77.5 242 78.2 251.9 78.2 251.9 77 243.4 77 243.4 74.1"/>
            <rect class="cls-2" x="240.3" y="71.7" width="13" height="1.23"/>
            <path class="cls-2" d="M258.7,68.7a.4.4,0,0,0,.1-.3h0a6.6,6.6,0,0,0,1.4,2,5.3,5.3,0,0,0,2,1.3l.7-1.2a5.8,5.8,0,0,1-1.8-1.1,4.8,4.8,0,0,1-1.2-1.6,4.1,4.1,0,0,1-.4-1.9v-.4h3.1V64.4h-7.7v1.2h3.2V66a5.4,5.4,0,0,1-.5,2.1,4.4,4.4,0,0,1-1.2,1.8,7.6,7.6,0,0,1-1.9,1.2l.7,1.2a6.2,6.2,0,0,0,2.1-1.5A6,6,0,0,0,258.7,68.7Z"/>
            <polygon class="cls-2" points="262.1 67.2 262.1 68.4 264.9 68.4 264.9 72.4 266.3 72.4 266.3 63.3 264.9 63.3 264.9 67.2 262.1 67.2"/>
            <path class="cls-2" d="M265.1,73.6a7.2,7.2,0,0,0-3.5-.8,6.8,6.8,0,0,0-2.6.4,3.2,3.2,0,0,0-1.7,1,2.5,2.5,0,0,0-.5,1.5,2.4,2.4,0,0,0,1.2,2.1,7.4,7.4,0,0,0,3.6.8,7.2,7.2,0,0,0,3.5-.8,2.4,2.4,0,0,0,0-4.2Zm-.6,3a1.7,1.7,0,0,1-1.1.6l-1.8.2-1.9-.2a1.7,1.7,0,0,1-1.1-.6,1.1,1.1,0,0,1-.4-.9,1,1,0,0,1,.4-.9,1.7,1.7,0,0,1,1.1-.6l1.9-.2,1.8.2a1.7,1.7,0,0,1,1.1.6,1,1,0,0,1,.4.9A1.1,1.1,0,0,1,264.5,76.6Z"/>
            <path class="cls-2" d="M275.9,72.2h4.3V64.3h-1.4V67h-7.2V64.3h-1.4v7.9h4.3v3.2h-5.8v1.2h13V75.4h-5.8Zm-4.3-4h7.2v2.7h-7.2Z"/>
            <polygon class="cls-2" points="290.1 72.7 294.7 72.7 294.7 71.4 285.9 71.4 285.9 69.1 294.3 69.1 294.3 64.4 284.5 64.4 284.5 65.6 292.9 65.6 292.9 67.9 284.5 67.9 284.5 71.4 284.5 72.1 284.5 72.7 288.7 72.7 288.7 75.4 282.9 75.4 282.9 76.7 295.9 76.7 295.9 75.4 290.1 75.4 290.1 72.7"/>
            <polygon class="cls-2" points="312.1 63.3 310.6 63.3 310.6 74.5 312.1 74.5 312.1 69.1 314.2 69.1 314.2 67.9 312.1 67.9 312.1 63.3"/>
            <path class="cls-2" d="M306.8,71.4a3.5,3.5,0,0,0,1.4-1.3,4.6,4.6,0,0,0,.5-2,3.8,3.8,0,0,0-.5-1.9,3.2,3.2,0,0,0-1.4-1.4,3.8,3.8,0,0,0-1.9-.5,4.1,4.1,0,0,0-1.9.5,2.9,2.9,0,0,0-1.3,1.4,3,3,0,0,0-.5,1.9,3.5,3.5,0,0,0,.5,2,3.3,3.3,0,0,0,1.3,1.3,4.1,4.1,0,0,0,1.9.5A3.8,3.8,0,0,0,306.8,71.4Zm-3.9-2a2.3,2.3,0,0,1,0-2.6,2,2,0,0,1,.8-.8,2.8,2.8,0,0,1,1.2-.4,2.1,2.1,0,0,1,1.2.4,2.4,2.4,0,0,1,.9.8,3,3,0,0,1,0,2.6,2,2,0,0,1-.9.9,2.1,2.1,0,0,1-1.2.3l-1.2-.3A1.8,1.8,0,0,1,302.9,69.4Z"/>
            <polygon class="cls-2" points="304.5 73.4 303.1 73.4 303.1 77 303.1 77.5 303.1 78.2 312.7 78.2 312.7 77 304.5 77 304.5 73.4"/>
            <path class="cls-2" d="M319.4,69c0-.1.1-.1.1-.2h0a7.4,7.4,0,0,0,1.3,2.1,5.7,5.7,0,0,0,2.1,1.3l.7-1.2a4.2,4.2,0,0,1-1.8-1.1,6.1,6.1,0,0,1-1.2-1.6,4.3,4.3,0,0,1-.4-1.9v-.7h3.1V64.5h-7.7v1.2h3.1v.7a5.2,5.2,0,0,1-.4,2.1,5.2,5.2,0,0,1-1.3,1.7,5.7,5.7,0,0,1-1.8,1.2l.7,1.2a6,6,0,0,0,2.1-1.4A6.4,6.4,0,0,0,319.4,69Z"/>
            <polygon class="cls-2" points="319.2 73.5 317.8 73.5 317.8 77 317.8 77.6 317.8 78.2 327.3 78.2 327.3 77 319.2 77 319.2 73.5"/>
            <polygon class="cls-2" points="322.8 67.5 322.8 68.7 325.5 68.7 325.5 74.5 327 74.5 327 63.3 325.5 63.3 325.5 67.5 322.8 67.5"/>
            <path class="cls-2" d="M332.1,68.1a8.1,8.1,0,0,0,3.8.7,7.6,7.6,0,0,0,3.7-.7,2,2,0,0,0,1.3-1.9,2.1,2.1,0,0,0-1.3-2,9,9,0,0,0-3.7-.7,9.5,9.5,0,0,0-3.8.7,2.1,2.1,0,0,0-1.3,2A2,2,0,0,0,332.1,68.1Zm1.1-3.1a8.8,8.8,0,0,1,2.6-.3,9.1,9.1,0,0,1,2.7.3c.6.3,1,.7,1,1.2s-.4.8-1,1.1a6.4,6.4,0,0,1-2.7.4,6.2,6.2,0,0,1-2.6-.4c-.6-.3-1-.6-1-1.1S332.6,65.3,333.2,65Z"/>
            <polygon class="cls-2" points="332.4 75.8 340.7 75.8 340.7 72.2 330.9 72.2 330.9 73.4 339.3 73.4 339.3 74.7 331 74.7 331 77.2 331 77.5 331 78.4 341.1 78.4 341.1 77.2 332.4 77.2 332.4 75.8"/>
            <rect class="cls-2" x="329.4" y="69.8" width="12.9" height="1.22"/>
            <path class="cls-2" d="M354.4,72.6a7,7,0,0,1-1.9-4.7V66.1h3.3V64.8h-8v1.3h3.3v1.8a8.5,8.5,0,0,1-.5,2.6,7.2,7.2,0,0,1-1.4,2.4,4.5,4.5,0,0,1-1.9,1.5l.8,1.2a6,6,0,0,0,2.1-1.8,8.4,8.4,0,0,0,1.5-2.8v-.3a.3.3,0,0,1,.1.2,7.4,7.4,0,0,0,1.5,2.6,6,6,0,0,0,2.1,1.8l.8-1.2A7,7,0,0,1,354.4,72.6Z"/>
            <rect class="cls-2" x="357.7" y="63.3" width="1.4" height="15.28"/>
            <path class="cls-2" d="M367.9,64.9h-5.3v1.2h5.2a11.7,11.7,0,0,1-.4,2.6l-5.5.3.2,1.4,4.8-.5a15.8,15.8,0,0,1-1.5,2.4,11.1,11.1,0,0,1-3.6,2.6l.8,1.2a12.9,12.9,0,0,0,4-3.1,11.1,11.1,0,0,0,2-3.7,16.1,16.1,0,0,0,.6-4.4h-1.3Z"/>
            <rect class="cls-2" x="371.9" y="63.3" width="1.4" height="15.28"/>
            <polygon class="cls-2" points="389.2 69.2 386.9 69.2 386.9 63.3 385.5 63.3 385.5 78.6 386.9 78.6 386.9 70.5 389.2 70.5 389.2 69.2"/>
            <path class="cls-2" d="M381.2,73.4h-3.4V66h5.3V64.8h-6.7v10h4.9l3-.4V73Z"/>
          </g>
        </g>
      </g>
    </g>
  </g>
</svg>
