<svg xmlns="http://www.w3.org/2000/svg" width="201.5" height="193.5" viewBox="0 0 201.5 193.5">
  <defs>
    <style>
      .cls-1 {
        fill: #e8e8e8;
      }

      .cls-2 {
        fill: #125e88;
      }

      .cls-3 {
        fill: #1997d2;
      }

      .cls-4 {
        fill: #78d2f7;
      }

      .cls-5 {
        fill: #fff;
      }

      .cls-6 {
        fill: #00cb99;
      }
    </style>
  </defs>
  <g id="Layer_2" data-name="Layer 2">
    <g id="레이어_1" data-name="레이어 1">
      <g>
        <g>
          <path class="cls-1" d="M84.8,60.2c34.1,12.7,46.5,10.1,73-5l-1.7-2.3A73.4,73.4,0,0,0,28.2,72.1C28.3,72,50.9,47.7,84.8,60.2Z"/>
          <path class="cls-2" d="M142.3,105.9a38,38,0,0,0-20.1,15.6c-3.6,5.6-8.5,10.6-14.9,12.9-10.3,3.7-21.6-.2-30.7-5.1-29.6-16.1-42.9,3.1-43.2,3.5a65.2,65.2,0,0,0,5.1,7.8,73.4,73.4,0,0,0,131-30.7C161.3,104.7,151.6,102.9,142.3,105.9Z"/>
          <path class="cls-3" d="M72.2,102.8C42.9,121.1,24,96.5,23.9,96.3a72.4,72.4,0,0,0,9.5,36.5c.3-.4,13.6-19.6,43.2-3.5,9.1,4.9,20.4,8.8,30.7,5.1,6.4-2.3,11.3-7.3,14.9-12.9a38,38,0,0,1,20.1-15.6c9.3-3,19-1.2,27.2,4a78,78,0,0,0,1.2-12.7C130,70,101.5,84.5,72.2,102.8Z"/>
          <path class="cls-4" d="M84.8,60.2C50.9,47.7,28.3,72,28.2,72.1a74.3,74.3,0,0,0-4.3,24.2c.1.2,19,24.8,48.3,6.5S130,70,170.7,97.2a73.1,73.1,0,0,0-12.9-42C131.3,70.3,118.9,72.9,84.8,60.2Z"/>
        </g>
        <path class="cls-5" d="M138.5,132.4,101.2,95.1V42.5a3.9,3.9,0,1,0-7.8,0v55a.8.8,0,0,1,.1.4l.2.4c0,.1.1.2.2.3s.1.2.1.4l.5.5h0l38.4,38.4a3.9,3.9,0,0,0,5.6-5.5Z"/>
        <g>
          <path class="cls-6" d="M185.5,68.2h-.6a3,3,0,0,1-2.2-3.5,13.7,13.7,0,0,0-1-9.3,14.1,14.1,0,0,0-6.6-6.6,2.8,2.8,0,0,1-1.4-3.8,2.8,2.8,0,0,1,3.8-1.3,19.1,19.1,0,0,1,9.3,9.3,19.5,19.5,0,0,1,1.5,13A2.9,2.9,0,0,1,185.5,68.2Z"/>
          <path class="cls-6" d="M173.5,65.1h-.6a2.8,2.8,0,0,1-2.2-3.4,1,1,0,0,0-.1-.9,1.2,1.2,0,0,0-.6-.6,2.8,2.8,0,1,1,2.5-5.1,7,7,0,0,1,3.3,3.3,7.2,7.2,0,0,1,.5,4.6A2.9,2.9,0,0,1,173.5,65.1Z"/>
          <path class="cls-6" d="M197.7,72.1H197a2.8,2.8,0,0,1-2.1-3.4,26.9,26.9,0,0,0-15.4-31.8A2.9,2.9,0,0,1,178,33a2.9,2.9,0,0,1,3.7-1.5,32.8,32.8,0,0,1,16.6,16A31.9,31.9,0,0,1,200.4,70,2.8,2.8,0,0,1,197.7,72.1Z"/>
        </g>
        <path class="cls-2" d="M96.8,193.5A96.8,96.8,0,1,1,163.4,26.6a3.9,3.9,0,0,1,.1,5.5,3.8,3.8,0,0,1-5.5.2,88.9,88.9,0,1,0,27.7,64.5,65.1,65.1,0,0,0-.4-7.7,4.1,4.1,0,0,1,3.6-4.3,3.9,3.9,0,0,1,4.3,3.6c.2,2.7.3,5.6.3,8.4A96.8,96.8,0,0,1,96.8,193.5Z"/>
      </g>
    </g>
  </g>
</svg>
