<svg id="Layer_4" height="512" viewBox="0 0 24 24" width="512" xmlns="http://www.w3.org/2000/svg" xmlns:xlink="http://www.w3.org/1999/xlink" data-name="Layer 4"><linearGradient id="linear-gradient" gradientUnits="userSpaceOnUse" x1="3.881" x2="18.71" y1="3.881" y2="18.71"><stop offset="0" stop-color="#6be8a7"/><stop offset="1" stop-color="#01b59c"/></linearGradient><linearGradient id="linear-gradient-2" gradientUnits="userSpaceOnUse" x1="15.294" x2="17.71" y1="17.294" y2="19.71"><stop offset="0" stop-color="#effff4"/><stop offset="1" stop-color="#d1ffec"/></linearGradient><linearGradient id="linear-gradient-3" x1="10.293" x2="13.707" xlink:href="#linear-gradient-2" y1="9.293" y2="12.707"/><g id="Gradient"><g id="Correct_File" data-name="Correct File"><g id="File"><path d="m17 2h-10a3.009 3.009 0 0 0 -3 3v14a3.009 3.009 0 0 0 3 3h8a1.033 1.033 0 0 0 .71-.29l4-4a1.033 1.033 0 0 0 .29-.71v-12a3.009 3.009 0 0 0 -3-3z" fill="url(#linear-gradient)"/><path d="m20 17a1.033 1.033 0 0 1 -.29.71l-4 4a1.033 1.033 0 0 1 -.71.29v-4a1 1 0 0 1 1-1z" fill="url(#linear-gradient-2)"/></g><path d="m11 15a1 1 0 0 1 -.707-.293l-2-2a1 1 0 0 1 1.414-1.414l1.293 1.293 3.293-3.293a1 1 0 0 1 1.414 1.414l-4 4a1 1 0 0 1 -.707.293z" fill="url(#linear-gradient-3)"/></g></g></svg>