<svg id="Capa_1" enable-background="new 0 0 512 512" height="512" viewBox="0 0 512 512" width="512" xmlns="http://www.w3.org/2000/svg"><g id="Money_Flow"><g><path d="m145.618 396.105h335.476c17.069 0 30.905-13.837 30.905-30.905v-218.399c0-17.069-13.837-30.905-30.905-30.905h-359.804l-98.454 140.104z" fill="#80e0b7"/><path d="m121.29 115.895h-90.385c-17.068 0-30.905 13.837-30.905 30.906v218.398c0 17.069 13.837 30.905 30.905 30.905h114.713c-25.157-49.655-39.685-108.252-39.685-171.01.001-38.313 5.415-75.075 15.357-109.199z" fill="#60daa8"/></g><g><path d="m127.588 353.867h299.937c0-23.327 18.91-42.237 42.237-42.237v-111.26c-23.327 0-42.237-18.91-42.237-42.237h-315.951l-51.652 97.867z" fill="#b1ecd0"/><path d="m111.574 158.133h-27.099c0 23.327-18.91 42.237-42.237 42.237v111.26c23.327 0 42.237 18.91 42.237 42.237h43.113c-13.932-39.477-21.654-83.019-21.654-128.773 0-22.955 1.944-45.353 5.64-66.961z" fill="#80e0b7"/></g><g><g><path d="m278.379 351.296c43.266-10.121 75.489-48.945 75.489-95.296 0-54.051-43.817-97.867-97.867-97.867-9.674 0-19.019 1.404-27.845 4.018l-39.516 42.491 54.584 146.653z" fill="#80e0b7"/><path d="m211.575 231.533c0-25.558 6.087-49.372 16.58-69.382-40.486 11.994-70.023 49.472-70.023 93.849 0 54.051 43.817 97.867 97.867 97.867 7.7 0 15.191-.89 22.379-2.571-39.093-18.639-66.803-65.232-66.803-119.763z" fill="#60daa8"/></g><path d="m256 248.274c-9.941 0-18.028-8.088-18.028-18.028s8.088-18.028 18.028-18.028 18.028 8.088 18.028 18.028c0 4.267 3.459 7.726 7.726 7.726s7.726-3.459 7.726-7.726c0-15.803-11.005-29.083-25.755-32.581v-8.627c0-4.267-3.459-7.726-7.726-7.726s-7.726 3.459-7.726 7.726v8.627c-14.749 3.497-25.755 16.778-25.755 32.581 0 18.461 15.019 33.481 33.481 33.481 9.941 0 18.028 8.088 18.028 18.028s-8.088 18.028-18.028 18.028-18.028-8.088-18.028-18.028c0-4.267-3.459-7.726-7.726-7.726-4.268 0-7.726 3.459-7.726 7.726 0 15.803 11.005 29.083 25.755 32.581v8.627c0 4.267 3.459 7.726 7.726 7.726s7.726-3.459 7.726-7.726v-8.627c14.749-3.497 25.755-16.778 25.755-32.581 0-18.462-15.019-33.481-33.481-33.481z" fill="#ffe54e"/></g><g><path d="m142.571 60.227h233.841v20.235c0 3.846 4.556 5.875 7.415 3.302l42.228-38.005c1.961-1.765 1.961-4.84 0-6.604l-42.229-38.006c-2.859-2.573-7.415-.544-7.415 3.302v20.234h-242.482l-28.382 17.771z" fill="#fd7a6e"/><path d="m133.929 24.686h-43.273c-3.414 0-6.181 2.767-6.181 6.181v23.179c0 3.414 2.767 6.181 6.181 6.181h51.915c-5.699-7.287-9.201-17.178-9.201-28.072-.001-2.552.192-5.048.559-7.469z" fill="#fb695b"/></g><g><path d="m189.837 487.315h231.507c3.414 0 6.181-2.768 6.181-6.181v-23.179c0-3.414-2.767-6.181-6.181-6.181h-240.148l-23.539 17.771z" fill="#5c85da"/><path d="m181.196 451.773h-45.607v-20.235c0-3.846-4.556-5.875-7.415-3.302l-42.228 38.005c-1.961 1.765-1.961 4.84 0 6.604l42.228 38.005c2.859 2.573 7.415.544 7.415-3.302v-20.234h54.249c-5.699-7.287-9.202-17.178-9.202-28.072-.001-2.551.192-5.048.56-7.469z" fill="#4677d5"/></g></g></svg>