<svg id="Layer_1" enable-background="new 0 0 512 512" height="512" viewBox="0 0 512 512" width="512" xmlns="http://www.w3.org/2000/svg"><g clip-rule="evenodd" fill-rule="evenodd"><g><ellipse cx="256" cy="149.54" fill="#fcbc04" rx="121.6" ry="121.6" transform="matrix(.707 -.707 .707 .707 -30.761 224.819)"/><circle cx="256" cy="149.54" fill="#ffe600" r="88.67"/><path d="m281.73 114.76c2.59 3.57 1.79 8.57-1.78 11.16s-8.57 1.79-11.16-1.78c-1.05-1.45-2.4-2.63-3.94-3.42-1.46-.75-3.16-1.18-5-1.18h-5.98c-3.02 0-5.77 1.24-7.76 3.24-2 2-3.24 4.75-3.24 7.76s1.24 5.77 3.24 7.76c2 2 4.75 3.24 7.76 3.24h4.25c7.43 0 14.19 3.04 19.08 7.93s7.93 11.64 7.93 19.08c0 7.43-3.04 14.19-7.93 19.08-3.56 3.56-8.12 6.14-13.2 7.28v5.09c0 4.42-3.58 8-8 8s-8-3.58-8-8v-4.77c-2.86-.45-5.58-1.37-8.11-2.66-3.85-1.98-7.15-4.81-9.62-8.23-2.59-3.57-1.79-8.57 1.78-11.16s8.57-1.79 11.16 1.78c1.05 1.45 2.4 2.63 3.94 3.42 1.46.75 3.16 1.18 5 1.18h5.98c3.02 0 5.77-1.24 7.76-3.24 2-2 3.24-4.75 3.24-7.76s-1.24-5.77-3.24-7.76c-2-2-4.75-3.24-7.76-3.24h-4.25c-7.43 0-14.19-3.04-19.08-7.93s-7.93-11.64-7.93-19.08 3.04-14.19 7.93-19.08c3.56-3.56 8.11-6.14 13.2-7.28v-5.09c0-4.42 3.58-8 8-8s8 3.58 8 8v4.77c2.86.45 5.59 1.37 8.11 2.66 3.85 1.98 7.15 4.81 9.62 8.23z" fill="#fcbc04"/></g><g><path d="m440.49 230.34c-13.34-13.45-35.34-13.54-48.79-.19l-85.5 84.82c-9.48 12.34-13.25 26.33-11.23 41.76l7.48 57.27 123.67 33.14c-7.7-31.06-1.3-51.02 14.32-67.82l46.5-50.02c10.59-11.39 16.55-24.4 16.55-39.95v-192.21c0-17.15-14.03-31.18-31.18-31.18s-31.18 14.03-31.18 31.18v133.85c-.21-.22-.42-.43-.64-.65z" fill="#ffd6bd"/><path d="m440.3 279.12c13.47-13.36 13.56-35.32.19-48.78-.43-.44-.88-.86-1.33-1.27 4.81 12.41 2.19 27.1-7.82 37.03l-45.67 45.31c-3.04 3.01-3.06 7.96-.04 11 3.01 3.03 7.97 3.05 11 .04z" fill="#f9c6aa"/><path d="m285.38 402.83 149.61 40.09c3.65.98 5.83 4.76 4.86 8.41l-7.41 27.65c-.98 3.65-4.76 5.83-8.41 4.86l-149.61-40.09c-3.65-.98-5.83-4.76-4.86-8.41l7.41-27.65c.98-3.66 4.77-5.84 8.41-4.86z" fill="#4294ff"/></g><g><path d="m71.51 230.34c13.34-13.45 35.34-13.54 48.79-.19l85.5 84.82c9.48 12.34 13.25 26.33 11.23 41.76l-7.48 57.27-123.68 33.13c7.7-31.06 1.3-51.02-14.32-67.82l-46.5-50.02c-10.59-11.38-16.55-24.39-16.55-39.94v-192.21c0-17.15 14.03-31.18 31.18-31.18s31.18 14.03 31.18 31.18v133.85c.22-.22.43-.43.65-.65z" fill="#ffd6bd"/><path d="m71.7 279.12c-13.47-13.36-13.56-35.32-.19-48.78.43-.44.88-.86 1.33-1.27-4.81 12.41-2.19 27.1 7.82 37.03l45.67 45.31c3.04 3.01 3.06 7.96.04 11-3.01 3.03-7.97 3.05-11 .04z" fill="#f9c6aa"/><path d="m226.62 402.83-149.61 40.08c-3.65.98-5.83 4.76-4.86 8.41l7.41 27.65c.98 3.65 4.76 5.83 8.41 4.86l149.61-40.09c3.65-.98 5.83-4.76 4.86-8.41l-7.41-27.65c-.98-3.65-4.77-5.83-8.41-4.85z" fill="#4294ff"/></g></g></svg>