<svg xmlns="http://www.w3.org/2000/svg" viewBox="0 0 722.45 999.5"><defs><style>.cls-1{fill:#fff;}</style></defs><title>logo</title><g id="레이어_2" data-name="레이어 2"><g id="Layer_1" data-name="Layer 1"><polygon class="cls-1" points="721.22 182.53 586.98 260.1 587.62 864.38 528.15 864.43 527.46 419.35 393.22 496.91 393.62 864.48 331.89 864.53 331.55 652.48 197.31 730.04 197.46 864.63 135.27 864.67 134.58 179.51 528.34 179.18 528.34 224.05 722.45 112.03 528.34 0 528.34 44.58 0 44.88 0.54 864.72 0.64 999.5 135.37 999.35 206.69 999.3 341.17 999.21 393.76 999.16 528.34 999.01 587.77 998.96 722.45 998.86 722.25 864.28 721.22 182.53"/></g></g></svg>