<?xml version="1.0" encoding="UTF-8"?>
<svg id="Layer_2" data-name="Layer 2" xmlns="http://www.w3.org/2000/svg" viewBox="0 0 1535.9981645286 142.4336868996">
  <defs>
    <style>
      .cls-1 {
        fill: #fff;
      }
    </style>
  </defs>
  <g id="Layer_2-2" data-name="Layer 2">
    <g>
      <g id="Warstwa_1-2" data-name="Warstwa 1-2">
        <path class="cls-1" d="M1296.6485283179,54.6601761622c2.6484560692,1.6459390609,6.3892355782,2.453935404,11.2073653398,2.453935404h33.816583992c4.8480434437,0,8.6037634475-.8079963431,11.267192704-2.4389949092,2.6634292565-1.6309658735,3.9951275385-5.0126177342,3.9951275385-10.1599287694V12.1201086091c0-4.9527903699-1.4065315262-8.214722117-4.2046213911-9.7858606263-2.798089865-1.5561653219-6.4939825045-2.3342479829-11.0726720388-2.3342479829h-33.816583992c-4.5487758521,0-8.214722117.778082661-11.0128446745,2.3342479829-2.7831493702,1.5561653219-4.174707709,4.8181297615-4.174707709,9.7858606263v32.3950792785c0,5.1173646605,1.331698282,8.4990492137,3.9801870437,10.1449882746h.0149731873ZM1309.3521662302,14.4094697225h30.9436935754v28.3251184958h-30.9436608828V14.4094697225h-.0000326925ZM1535.9981645286,118.4478504034v13.3770063395h-55.9470202673v-56.5455227578h55.1389912316v13.3770063395h-38.455133583v8.2745821738c3.486398787,0,14.3645828531-.0897737389,17.85098164-.0897737389h12.4044030133c-4.2345350733,4.0998744648-8.4691355316,8.214722117-12.7036706049,12.3146292744-3.3816518607,0-14.1550890005.1047469263-17.5517140485.1047469263v9.2022986305h39.2631626187l-.0000653851-.0149731873h.0000653851ZM1466.4346976945,102.856283502c.733228484,1.5561653219,1.0923234398,3.5761725259,1.0923234398,6.0600543046v10.4591963609c0,5.1173646605-1.3466714693,8.4691028391-4.040014408,10.0552145357-2.6933429387,1.5861116966-6.4042087656,2.3791348524-11.1475052829,2.3791348524h-29.2378617652c-2.3192747955,0-4.4140825512-.1646069831-6.2994618393-.4937882568-1.8853465956-.3291812737-3.486398787-.9576301389-4.7881833868-1.8554329134-1.3017845999-.9127432694-2.3043016082-2.1696409998-3.0075837175-3.7856663785s-1.0474038778-3.6958926396-1.0474038778-6.2545749698v-3.4415119175l15.9207154824-2.0648940735v5.5512928605h27.7864433695v-10.025268161h-27.3824942368c-2.3192747955,0-4.4140825512-.1646069831-6.2994618393-.5087287516-1.8853465956-.344154461-3.4714582922-.9726033262-4.773242892-1.8853465956-1.2868114125-.9127432694-2.2893611134-2.1846141871-2.9926105302-3.8155800606-.7032821094-1.6309658735-1.0474038778-3.7258063217-1.0474038778-6.2545749698v-9.7409737568c0-2.5137954608.3740681431-4.5338026648,1.1371776168-6.0750274919.7481689788-1.5411921346,1.810546044-2.7532029955,3.1572175133-3.6360325827s2.9477236607-1.4813647703,4.8331029489-1.7805996693c1.8704061008-.2992675915,3.9202942944-.4489013873,6.1647685383-.4489013873h27.1430540095c2.2594474313,0,4.3243088122.1496337958,6.1797417257.4489013873s3.4564524123.897770082,4.7882160794,1.7656591745,2.3641943576,2.0798672608,3.0973574565,3.6210593954,1.0923234398,3.5612320311,1.0923234398,6.0450811172v3.5312856565l-15.875828613,1.9751203345v-5.0275909216h-25.7664361655v9.4267656705h27.2627741232c2.2594474313,0,4.3243088122.1496337958,6.1797417257.4489013873s3.4564524123.8828295873,4.8031892667,1.7357127998c1.3466714693.8528832126,2.3791021598,2.0648940735,3.1123306438,3.6210593954l-.044919562-.0299463747h-.0000653851ZM1510.3513830916,67.3189598976h-30.3002388303l13.1824856743-12.7186437922h30.3002388303l-13.1824856743,12.7186437922ZM1241.9284920988,38.8890944755h25.4522280792c2.4240217218,0,4.5786895343-.1795474779,6.4790093172-.5237019389,1.9003197829-.3591276483,3.5013719743-.9726033262,4.7881833868-1.8554329134s2.2743879261-2.0648940735,2.9477236607-3.5462588438c.6733357347-1.4813320778,1.0025170083-3.3367649912,1.0025170083-5.5662660478v-15.0079722131c0-5.0575372962-1.4065315262-8.3793291001-4.2046213911-9.9803812915-2.798089865-1.5860790041-6.4790093172-2.3941080397-11.0278178619-2.3941080397h-42.1360530353v57.1141115662h16.6838576486v-18.2400229705h.0149731873v.0000326926ZM1241.9284920988,13.7959613521h20.4844645219c1.1820971788,0,2.0798672608.2842944042,2.6634292565.8379427178s.8828295873,1.376617844.8828295873,2.4689085913v4.6984096479c0,1.1970376736-.2992675915,2.0499535787-.8828295873,2.5437091429-.5985351831.5087614441-1.4813320778.7481689788-2.6634292565.7481689788h-20.4844645219v-11.2971390787ZM1387.923378337,38.8890944755h25.4522280792c2.4240217218,0,4.5787222268-.1795474779,6.4790093172-.5237019389,1.9002870904-.3591276483,3.5013719743-.9726033262,4.7882160794-1.8554329134s2.2744206186-2.0648940735,2.9477563533-3.5462588438,1.0025497009-3.3367649912,1.0025497009-5.5662660478v-15.0079722131c0-5.0575372962-1.4065642187-8.3793291001-4.2046540837-9.9803812915-2.798089865-1.5860790041-6.4790093172-2.3941080397-11.0277851693-2.3941080397h-42.1360857278v57.1141115662h16.6838249561v-18.2400229705h.0149731873l-.0000326925.0000326926ZM1387.923378337,13.7959613521h20.4844645219c1.1820644862,0,2.0798672608.2842944042,2.6634292565.8379427178.5985024905.5536483136.8828295872,1.376617844.8828295872,2.4689085913v4.6984096479c0,1.1970376736-.2992675915,2.0499535787-.8828295872,2.5437091429-.5985024905.5087614441-1.4813647703.7481689788-2.6634292565.7481689788h-20.4844645219v-11.2971390787ZM1147.5413114358,56.8447903493h-16.6838413023V.2842944042h16.6838413023v22.1304035828l22.1304035828-22.1304035828h21.6964753828l-29.0882606619,28.2802316263,29.0882606619,28.2802316263h-21.6964753828l-22.1304035828-22.1304035828v22.1304362753ZM1263.98409513,131.8098835556h.5685888084c4.0549875954,3.9801870437,7.7359070476,7.571332757,10.8482376914,10.623803344h-21.5767879617c-6.538869374-6.3892355782-15.576593714-15.232439253-25.4222817045-24.8536928961l10.6986038956-10.6986038956c8.7982841127,8.6187366348,17.4619403096,17.0878394739,24.8836065783,24.3599046394v.5685888084h.0000326925ZM1263.98409513,75.2643607978c-19.1078466779,18.8534986484-38.2007855535,37.7069972968-57.3086322314,56.5455227578h-20.8585653576v-.7182226041c9.3519324263-9.2471855,18.6888916653-18.4794305052,28.0408240916-27.7266160053-13.2123993564-12.9131644574-26.4098582181-25.8262962223-39.6222575745-38.7394279872h21.6964753828c7.2570919781,7.1074581824,17.596600918,17.2225327749,28.6842461441,28.0857109611,5.8805068267-5.8206467699,11.7759541481-11.6412935397,17.6564609748-17.4619403096h21.6964753828l.0149404948.0149731873h.0000326925ZM1392.4422078144,77.5836355933c-2.798089865-1.5411921346-6.4939825045-2.3192747955-11.0726720388-2.3192747955h-33.816583992c-4.5487758521,0-8.2147548096.778082661-11.0128446745,2.3192747955-2.7831493702,1.5411921346-4.174707709,4.7732101995-4.174707709,9.6811137v32.0808711921c0,5.072477791,1.331698282,8.4092754748,3.9801870437,10.0402413483s6.3892355782,2.4389949092,11.2073653398,2.4389949092h33.816583992c4.8480434437,0,8.6037634475-.8079963431,11.267192704-2.4090485345,2.6634292565-1.6160253787,3.9951275385-4.9677308647,3.9951275385-10.0552145357v-32.0808711921c0-4.9079035005-1.4065315262-8.1399215654-4.2046213911-9.6811137l.0149404948-.0149404948.0000326925-.0000326925ZM1379.9929506242,117.5500476288h-30.9436608828v-28.0408240916h30.9436608828v28.0408240916ZM1185.816897541,118.4478504034v12.6587837354c-.2394075347.2394075347-.4788150694.4788150694-.7331957915.7182226041h-55.2138081295v-56.5455227578h55.1389748854v13.3770063395h-38.455133583v8.2745821738c3.486398787,0,14.3645828531-.0897737389,17.85098164-.0897737389h12.4044030133c-4.2345677658,4.0998744648-8.4691028391,8.214722117-12.7036706049,12.3146292744-3.3816518607,0-14.1550890005.1047469263-17.5517140485.1047469263v9.2022986305h39.2631626187v-.0149731873ZM1317.1479333346,77.6285224628c-2.798089865-1.5711385093-6.4790093172-2.364161665-11.0278178619-2.364161665h-42.1360857278v55.9918744442c.1945206652.1795474779.3740681431.3740681431.5685888084.5536483136h16.1152361477v-18.0604428001h25.4522280792c2.4240217218,0,4.5786895343-.1795474779,6.4790093172-.5237019389s3.5013719743-.9576301389,4.7881833868-1.8404597261c1.2868114125-.8678563999,2.2743879261-2.0499535787,2.9477236607-3.5163124691.6733357347-1.466391583,1.0025497009-3.3068513091,1.0025497009-5.5213791783v-14.8583384173c0-5.0126177342-1.4065315262-8.3045285485-4.2046213911-9.8756343652l.0149731873.0149731873.0000326925-.0000653851ZM1304.6986434517,96.8261755722c0,1.1820971788-.2992675915,2.020007204-.8828295872,2.5287686481-.5985351831.4937882568-1.4813320778.7481689788-2.6634292565.7481689788h-20.4844645219v-11.1923921524h20.4844645219c1.1820971788,0,2.0798672608.2693212168,2.6634292565.8229695304.5985351831.5536483136.8828295872,1.3616446567.8828295872,2.4389949092v4.6535227784-.0000326925ZM1175.9711768579,22.4895312311h30.3002715229l13.1824856743,12.7186437922h-30.3002715229l-13.1824856743-12.7186437922Z"/>
      </g>
      <g>
        <rect class="cls-1" x="1015.1844954759" y="68.1182151334" width="73.7795457009" height="6.1972975183" transform="translate(257.7874914876 764.7877859448) rotate(-45)"/>
        <rect class="cls-1" x="1048.9756263635" y="34.3270501566" width="6.1972975183" height="73.7795457009" transform="translate(257.7875223887 764.7877787753) rotate(-45)"/>
      </g>
      <g>
        <g>
          <path class="cls-1" d="M438.9518359123,5.5976990413v131.1744006585h-30.157979641V5.5976990413h30.157979641Z"/>
          <path class="cls-1" d="M446.4913210731,5.5976990413h30.157979641l8.242342649,51.562462618h.7667358972V5.5976990413h30.157979641v131.1744006585h-30.157979641l-8.242342649-56.226727162h-.7667358972v56.226727162h-30.157979641V5.5976990413Z"/>
          <path class="cls-1" d="M591.147371098,29.0468005157h-4.5364589787v84.3400883056h4.5364589787v-36.9946316872h30.157979641v32.2664692353c0,16.8680142488-9.0090395484,28.113363581-22.6184944802,28.113363581h-19.5515508913c-13.5455375249,0-22.6184944802-11.2453493322-22.6184944802-28.113363581V33.7110626223c0-16.8680179049,9.0090395484-28.113363581,22.5545770734-28.113363581h19.5515508913c13.6094549318,0,22.6184944802,11.2453456761,22.6184944802,28.113363581v27.602209566h-30.157979641V29.0467980783h0l.0639174068.0000024374Z"/>
          <path class="cls-1" d="M628.8448358998,108.6587361188V33.7110626223c0-16.8680179049,9.0090395484-28.113363581,22.5545770734-28.113363581h19.5515508913c13.5454985271,0,22.6184944802,11.2453456761,22.6184944802,28.113363581v74.9476734965c0,16.8680142488-9.0090395484,28.113363581-22.6184944802,28.113363581h-19.5515508913c-13.5455375249,0-22.6184944802-11.2453493322-22.6184944802-28.113363581h.0639174068ZM663.4753961105,29.0468005157h-4.5364589787v84.3400883056h4.5364589787V29.0468005157Z"/>
          <path class="cls-1" d="M750.1156555474,113.3868888213v23.449099037h-48.9427946351V5.5976990413h30.1579406432v107.78918978h18.8487324009-.063878409Z"/>
          <path class="cls-1" d="M755.3549330165,108.6587361188V33.7110626223c0-16.8680179049,9.0729959531-28.113363581,22.6184944802-28.113363581h19.5515508913c13.5454985271,0,22.6184944802,11.2453456761,22.6184944802,28.113363581v74.9476734965c0,16.8680142488-9.0090395484,28.113363581-22.6184944802,28.113363581h-19.5515508913c-13.5454985271,0-22.6184944802-11.2453493322-22.6184944802-28.113363581ZM790.049410634,29.0468005157h-4.5364589787v84.3400883056h4.5364589787V29.0468005157Z"/>
          <path class="cls-1" d="M886.2737712916,72.8780915612c3.8975188973,5.4309906918,6.1338091822,13.6733187166,6.1338091822,24.5353049749v39.3587129132h-30.1579406432v-56.226727162h-4.5364589787v56.226727162h-30.1579406432V5.5976990413h42.1700453715c13.5454985271,0,22.6184944802,11.2453456761,22.6184944802,28.113363581v18.7209463345c0,8.4340071244-2.2362902849,15.5262459276-6.1338091822,20.4460826044h.0638004134ZM862.3773966487,57.1601616593v-28.113363581h-4.5364589787v28.113363581h4.5364589787Z"/>
          <path class="cls-1" d="M900.0109830414,94.2186863797h30.1579406432v19.1682024416h4.5364589787v-14.0566817905c0-18.7209463345-34.6944776175-14.8234079383-34.6944776175-56.226727162v-9.3924196838c.0000779956-16.8680154675,9.0730739487-28.1133611436,22.6185724758-28.1133611436h19.5515508913c13.5454985271,0,22.6184944802,11.2453456761,22.6184944802,28.113363581v14.4400448644h-30.1579406432v-19.1682024416h-4.5364589787v14.0566817905c0,18.7209414598,34.6944776175,15.2067710122,34.6944776175,56.2267320367v9.3924172465c0,16.8680142488-9.0090395484,28.113363581-22.6184944802,28.113363581h-19.5515508913c-13.5454985271,0-22.6184944802-11.2453493322-22.6184944802-28.113363581v-14.5039378976h0l-.0000779956.0638881585Z"/>
        </g>
        <g>
          <path class="cls-1" d="M74.8198825554,114.3452989434V28.024494923c0-13.481635961,9.0090541726-22.4267958817,22.4267958817-22.4267958817h19.4237745744c13.481639617,0,22.426791007,9.0090553913,22.426791007,22.4267958817v86.3208137698c0,13.481639617-9.0090590473,22.4268007564-22.4268007564,22.4268007564h-19.4237745744c-13.481639617,0-22.4267958817-9.0090590473-22.4267958817-22.4268007564h0l.0000097495-.0000097495ZM109.258753917,24.3186429385h-4.4725805697v93.7964083347h4.4725805697V24.3186429385Z"/>
          <path class="cls-1" d="M179.5421628695,118.1150512732h4.4725805697V5.5976990413h29.9023880093v108.747599902c0,13.481639617-8.9451611394,22.426791007-22.4268007564,22.426791007h-19.4237745744c-13.481639617,0-22.4268007564-9.0090590473-22.4268007564-22.4268007564V5.5976990413h29.9023880093v112.5173522319h.0000194989Z"/>
          <path class="cls-1" d="M224.4596427914,5.5976990413h29.9023880093l8.2423231501,46.9620959819h.7667358972V5.5976990413h29.9023880093v131.1744006585h-29.9023880093l-8.2423231501-50.731843437h-.7667358972v50.731843437h-29.9023880093V5.5976990413h0Z"/>
          <path class="cls-1" d="M368.0933652874,28.024494923v86.3208137698c0,13.481639617-9.0090395484,22.4268007564-22.4267812575,22.4268007564h-41.9144732387V5.5976990413h41.9144732387c13.4816201181,0,22.4267812575,9.0090553913,22.4267812575,22.4267958817h0ZM338.1909772781,24.3186429385h-4.4725805697v93.7964083347h4.4725805697V24.3186429385Z"/>
          <path class="cls-1" d="M41.914468364,5.5976990413h-19.4237794491c-4.0892162771,0-7.7950694804.8306220753-10.9258756354,2.3640783316C4.3447926753,11.4759476682,0,18.6959707098,0,28.024494923v20.7016596119c0,14.1205748237,6.2616129195,21.5961767007,13.4177417091,26.771590385h0l21.0211296525,15.2706689201v27.3466374332h-4.4725805697v-25.1742353068L3.8975344355,73.9003947165l-3.8975344355-2.811337333v43.3201394679c0,13.481639617,9.0090553913,22.426791007,22.4267958817,22.426791007h19.4237794491c5.9421447068,0,10.98976745-1.7251362699,14.8234079383-4.8559485183,4.8559436436-3.9614265547,7.6672809766-10.0313573279,7.6672809766-17.5708522381v-20.7016547371c0-15.0789849458-7.2839179027-22.618479856-15.142877979-27.7938935403l-19.2320954748-14.1205748237v-7.4755994397h0v-19.9988240599h4.4725805697v25.1742401816l29.902392884,21.8517488335V28.024494923c0-13.4816347423-9.0090541726-22.4267958817-22.4267958817-22.4267958817Z"/>
        </g>
      </g>
    </g>
  </g>
</svg>