<?xml version="1.0" encoding="UTF-8"?>
<svg id="Layer_2" data-name="Layer 2" xmlns="http://www.w3.org/2000/svg" viewBox="0 0 857.1140710855 196.5329007365">
  <defs>
    <style>
      .cls-1 {
        fill: #fff;
      }
    </style>
  </defs>
  <g id="Layer_1-2" data-name="Layer 1">
    <g>
      <g>
        <g>
          <path class="cls-1" d="M20.3693683602,133.6193218799v62.9135788566H2.3925202103v-62.9135788566h17.9768481499Z"/>
          <path class="cls-1" d="M24.8620828262,133.6193218799h17.9746712792l4.9451611643,24.7177175591h.4464759798v-24.7177175591h17.9786452357v62.9135788566h-17.9786452357l-4.9411872078-26.9640748488h-.4504499364v26.9640748488h-17.9746712792v-62.9135788566Z"/>
          <path class="cls-1" d="M111.1419898097,144.8551018527h-2.6968480298v40.4440156731h2.6968480298v-17.7270536734h17.974851842v15.4788992978c0,8.0902807385-5.3916784586,13.4819375863-13.4821372625,13.4819375863h-11.684074161c-8.0884834484,0-13.4801401599-5.3916568478-13.4801401599-13.4819375863v-35.9495040078c0-8.0904804147,5.3916567116-13.4821372625,13.4801401599-13.4821372625h11.684074161c8.0904588039,0,13.4821372625,5.3916568478,13.4821372625,13.4821372625v13.2323423319h-17.974851842v-15.4786996216Z"/>
          <path class="cls-1" d="M133.6095562312,183.0509631502v-35.9495040078c0-8.0904804147,5.3954286988-13.4821372625,13.4801405005-13.4821372625h11.6860273154c8.0904802104,0,13.4839340077,5.3916568478,13.4839340077,13.4821372625v35.9495040078c0,8.0902807385-5.3934537974,13.4819375863-13.4839340077,13.4819375863h-11.6860273154c-8.0847118017,0-13.4801405005-5.3916568478-13.4801405005-13.4819375863ZM154.2810128192,144.8551018527h-2.6948299748v40.4440156731h2.6948299748v-40.4440156731Z"/>
          <path class="cls-1" d="M205.9610068357,185.2991175258v11.2337832107h-29.2124281626v-62.9135788566h17.9786452357v51.6797956459h11.2337829269Z"/>
          <path class="cls-1" d="M209.1061066381,183.0509631502v-35.9495040078c0-8.0904804147,5.3916567116-13.4821372625,13.4801401599-13.4821372625h11.6822556688c8.0922772961,0,13.4839587518,5.3916568478,13.4839587518,13.4821372625v35.9495040078c0,8.0902807385-5.3916814556,13.4819375863-13.4839587518,13.4819375863h-11.6822556688c-8.0884834484,0-13.4801401599-5.3916568478-13.4801401599-13.4819375863ZM229.7777847628,144.8551018527h-2.6968267368v40.4440156731h2.6968267368v-40.4440156731Z"/>
          <path class="cls-1" d="M287.2080539434,165.8853989611c2.3380086081,2.6069725133,3.6834268335,6.5577658764,3.6834268335,11.7719105793v18.8755911961h-17.9746517117v-26.9640748488h-2.6948046631v26.9640748488h-17.976848604v-62.9135788566h25.1663644951c8.0902805342,0,13.4799404837,5.3916568478,13.4799404837,13.4821372625v8.985429159c0,4.0460389122-1.3454182254,7.4605019926-3.6834268335,9.7985106597ZM272.9168290652,158.337039439v-13.4819375863h-2.6948046631v13.4819375863h2.6948046631Z"/>
          <path class="cls-1" d="M295.3841952429,176.1110170202h17.9768481499v9.1881005055h2.6966535302v-6.740868955c0-8.989422683-20.6735016801-7.101883531-20.6735016801-26.9640748488v-4.4927145795c0-8.0904804147,5.3936534736-13.4821372625,13.4821369219-13.4821372625h11.6822556688c8.0922772961,0,13.4839609314,5.3916568478,13.4839609314,13.4821372625v6.9379493679h-17.974851842v-9.1843066577h-2.6966535302v6.7390718692c0,8.9872262448,20.6715053722,7.2809930856,20.6715053722,26.9640748488v4.4927145795c0,8.0902807385-5.3916836352,13.4819375863-13.4839609314,13.4819375863h-11.6822556688c-8.0884834484,0-13.4821369219-5.3916568478-13.4821369219-13.4819375863v-6.93994613Z"/>
        </g>
        <g>
          <path class="cls-1" d="M68.3793340612,99.395419623V20.5137347699c0-12.3082408619,8.205473488-20.5137347699,20.5155111248-20.5137347699h17.77777098c12.310237313,0,20.5157310137,8.205493908,20.5157310137,20.5137347699v78.8816848531c0,12.308240862-8.2054937007,20.5137347699-20.5157310137,20.5137347699h-17.77777098c-12.3100376368,0-20.5155111248-8.205493908-20.5155111248-20.5137347699ZM99.8341057202,17.0954778416h-4.0987533264v85.7183983859h4.0987533264V17.0954778416Z"/>
          <path class="cls-1" d="M164.1108723946,102.8138762275h4.1027468503V0h27.3520450213v99.395419623c0,12.308240862-8.2034969387,20.5137347699-20.5155313375,20.5137347699h-17.779767742c-12.308240551,0-20.5137342517-8.205493908-20.5137342517-20.5137347699V0h27.3542414595v102.8138762275Z"/>
          <path class="cls-1" d="M205.1379415455,0h27.3522446975l7.5210036923,42.9188025397h.6844900084V0h27.3520450213v119.909154393h-27.3520450213l-7.5230004542-46.337059468h-.6824932464v46.337059468h-27.3522446975V0Z"/>
          <path class="cls-1" d="M336.4270388136,20.5137347699v78.8816848531c0,12.308240862-8.2054937007,20.5137347699-20.5155313375,20.5137347699h-38.2933023175V0h38.2933023175c12.3100376368,0,20.5155313375,8.205493908,20.5155313375,20.5137347699ZM309.0750200854,17.0954778416h-4.1007763815v85.7183983859h4.1007763815V17.0954778416Z"/>
          <path class="cls-1" d="M38.2933023175,0h-17.779767742c-3.7419319597,0-7.0978898277.7683540312-9.9682351809,2.1702806562C3.9817616599,5.380075628,0,11.9494227242,0,20.5137347699v18.9263089518c0,12.8833083281,5.7173285913,19.7453807387,12.2768913879,24.4465572747l-.0349433347.009784134,19.1914784653,13.9637562654.0233621152,22.691802798v2.2619320336h-4.1027468503v-23.02725882L3.5586292095,62.4163851098l-3.5586292095-2.5973880555v39.5764225688c0,12.308240862,8.2072907865,20.5137347699,20.5135345755,20.5137347699h17.779767742c5.4248029605,0,10.0501024223-1.5970102759,13.5288809468-4.4322126898,4.4166180399-3.5997625973,6.9866703616-9.1960875537,6.9866703616-16.0815220801v-18.9243121898c0-13.7862441205-6.6650118003-20.6696818849-13.8583468508-25.4275664626l-17.6042523635-12.8813115661v-6.8171452648h.0077873717v-18.2496062981h4.1027468503v23.0290559058l27.3520649922,19.9676203533V20.5137347699C58.8088536259,8.205493908,50.6035396305,0,38.2933023175,0Z"/>
        </g>
      </g>
      <g id="Warstwa_1-2" data-name="Warstwa 1-2">
        <path class="cls-1" d="M655.3828003982,84.3119901106c2.232205375,1.3872469849,5.3850438051,2.0682612404,9.4459012425,2.0682612404h28.5016671055c4.086085533,0,7.2515283892-.6810142555,9.496347812-2.0556520035,2.2448194228-1.3746377479,3.3672291341-4.224801572,3.3672291341-8.5631103307v-27.3035779182c0-4.1743580093-1.1854703287-6.9236329039-3.5437873165-8.247825285-2.3583169878-1.3115807388-5.4733228962-1.9673711082-9.3323940558-1.9673711082h-28.5016574838c-3.8338526856,0-6.9236304984.6557903694-9.281957108,1.9673711082-2.3457125617,1.3115807388-3.5185688426,4.0608562347-3.5185688426,8.247825285v27.3035803236c0,4.3130830686,1.1224097114,7.1632468926,3.3546247081,8.5504986884h.0125948044ZM666.0898370127,50.3874490838h26.0802895004v23.8732929776h-26.0802798787l-.0000096217-23.8732929776ZM857.1140325987,138.0741875569v11.274553305h-47.1538507909v-47.6583068641h46.4728269137v11.2745484941h-32.4111752128v6.9740818788c2.9384477261,0,12.106907269-.0756650434,15.045354995-.0756650434h10.4548230105c-3.5689961687,3.4555082253-7.1380308242,6.9236304984-10.7070269929,10.3791387237-2.8501590132,0-11.9303490866.0882790912-14.7931125259.0882790912v7.7559844624h33.09219909l-.0000384868-.0126140478ZM798.4838229815,124.9331592894c.6179632599,1.3115819415.9206234334,3.0141127695.9206234334,5.1076021055v8.8153335565c0,4.3130806632-1.1350141375,7.1380308242-3.4050616558,8.4748312396s-5.3976578529,2.0052006231-9.395454673,2.0052006231h-24.6425767026c-1.9547636753,0-3.7203454988-.1387256607-5.3093883834-.416176982-1.5890236411-.2774513213-2.9384477261-.8071258684-4.0356293418-1.5638051672-1.0971816158-.7692933467-1.9421400059-1.8286424408-2.5348751702-3.1906709518-.5927351643-1.362028511-.8827909117-3.1150059084-.8827909117-5.27154624v-2.9006152044l13.4184795888-1.7403633496v4.6788110757h23.4192738522v-8.449603144h-23.078781157c-1.9547636754,0-3.7203454989-.1387256606-5.3093883834-.4287814081-1.5890236411-.2900653691-2.9258433-.8197399162-4.0230249158-1.5890332628-1.0845771897-.7692933467-1.9295355797-1.8412564886-2.5222707441-3.2158990474-.5927351643-1.3746329371-.8827909118-3.1402243823-.8827909118-5.27154624v-8.2099939661c0-2.1187078099.315283843-3.8212386378.9584559551-5.1202113424.630567686-1.2989678937,1.5259822673-2.320489277,2.6609964047-3.0645593389,1.1350141375-.7440700619,2.4844382224-1.2485261351,4.0734618635-1.5007493608,1.5764192151-.2522280365,3.3041685169-.3783396494,5.1958715749-.3783396494h22.8769948791c1.9043074842,0,3.6446804555.1261116129,5.2084952444.3783396494,1.5638147889.2522280366,2.9132196305.7566792989,4.0356293418,1.4881401239,1.1224097114.731460825,1.992596197,1.7529773974,2.610559457,3.0519452911.6179632599,1.2989678937.9206234334,3.0015035325.9206234334,5.0949880576v2.9762802478l-13.3806470671,1.6646983062v-4.2374156198h-21.716752646v7.9451566925h22.9778880181c1.9043074842,0,3.6446804555.1261116129,5.2084952444.3783444603,1.563814789.2522232257,2.9132196305.7440652511,4.0482530113,1.46292165,1.1350141375.7188467772,2.0052006231,1.7403633496,2.6231638831,3.0519452911l-.0378325217-.0252280956ZM835.4981538482,94.9811942034h-25.5379912838l11.1105995487-10.7196506624h25.5379912838l-11.1105995487,10.7196506624ZM609.2630802275,71.0196221347h21.4519153725c2.0430427665,0,3.8590711595-.151337303,5.4607184702-.4413978613,1.6016376889-.3026722006,2.9510521522-.8197375107,4.0356293419-1.5638075727,1.0845771897-.7440700619,1.9169215319-1.740365755,2.4844382224-2.9888894847.5675070688-1.2485237297.8449583901-2.8123313024.8449583901-4.691422718v-12.6491874448c0-4.2626377018-1.1854703287-7.0623579632-3.5437873165-8.4117730277-2.3583266095-1.3368034222-5.4607184701-2.0178166253-9.2945711557-2.0178166253h-35.5135718843v48.1375331879h14.0616565118v-15.3732384533h.0126140478ZM609.2630802275,49.8703825709h17.2649463222c.9962980985,0,1.7529773974.2396151915,2.2448194228.7062363375.4918420254.4666211461.7440652511,1.1602446385.7440652511,2.0808728828v3.9599655012c0,1.0089085382-.2522232257,1.7277553154-.7440652511,2.1439298919-.5044560732.4287862189-1.2485213243.630567686-2.2448194228.630567686h-17.2649463222v-9.5215722995ZM732.312048471,71.0196221347h21.4519057508c2.0430331448,0,3.8590711595-.151337303,5.4607184701-.4413978613,1.6016473106-.3026722006,2.9510521522-.8197375107,4.0356293419-1.5638075727,1.0845771897-.7440700619,1.9169311537-1.740365755,2.4844382224-2.9888894847s.8449583901-2.8123313024.8449583901-4.691422718v-12.6491874448c0-4.2626377018-1.1854703287-7.0623579632-3.5437873165-8.4117730277-2.3583169878-1.3368034222-5.4607184702-2.0178166253-9.2945615341-2.0178166253h-35.5135766951v48.1375331879h14.0616517009v-15.3732384533h.0126236695ZM732.312048471,49.8703825709h17.2649463222c.9962884768,0,1.7529773974.2396151915,2.2448194228.7062363375.5044464514.4666199433.7440652511,1.1602446385.7440652511,2.0808728828v3.9599655012c0,1.0089085382-.2522232257,1.7277553154-.7440652511,2.1439298919-.5044464515.4287862189-1.248530946.630567686-2.2448194228.630567686h-17.2649463222v-9.5215722995ZM529.7106598526,86.1532465991h-14.0616590675v-47.6709159131h14.0616590675v18.6521919165l18.6521921044-18.6521919165h18.2864628946l-24.516472306,23.8354578626,24.516472306,23.8354580505h-18.2864628946l-18.6521921044-18.6521933071v18.6521933071ZM627.8522129173,149.3361268141h.4792279776c3.4176757036,3.354624708,6.5200675642,6.3813419036,9.1432314473,8.9540592171h-18.1855697556c-5.5111650396-5.3850438051-13.1284238414-12.8383584723-21.4266872769-20.9474592993l9.0171198344-9.0171198344c7.4154725238,7.264142437,14.7174474825,14.4021636395,20.9726777732,20.5312823173v.4792375993ZM627.8522129173,101.6778247609c-16.1046944674,15.8903085742-32.1967845087,31.7806123376-48.301483787,47.6583020532h-17.5802253544v-.6053492122c7.8820960753-7.7938169841,15.7515781027-15.5750199204,23.633674178-23.3688369044-11.1358276443-10.8835996078-22.2590412409-21.7671992155-33.3948640743-32.6507940124h18.2864628946c6.1165046301,5.9903930172,14.8309498584,14.5156708263,24.1759675837,23.6715115105,4.956262397-4.9058158275,9.9251388418-9.811631655,14.8814012388-14.7174522934h18.2864628946l.0126044261.0126188587ZM736.1206826827,103.6325836254c-2.3583169878-1.2989678937-5.4733228962-1.9547588645-9.3323940557-1.9547588645h-28.5016671055c-3.8338430639,0-6.9236401201.6557909708-9.281957108,1.9547588645-2.3457125617,1.2989678937-3.5185592209,4.0230201049-3.5185592209,8.1595473966v27.0387454555c0,4.2752481415,1.1224097114,7.0875842547,3.354624708,8.4622171918s5.3850534268,2.0556471926,9.4459108642,2.0556471926h28.5016671055c4.086085533,0,7.2515283892-.6810142555,9.496347812-2.0304287187,2.2448194228-1.362028511,3.3672291341-4.1869690503,3.3672291341-8.4748312396v-27.0387454555c0-4.1365224808-1.1854703287-6.860574692-3.5437873165-8.1595473966l.0125851827-.0126044261ZM725.6280463939,137.317508258h-26.080270257v-23.6336741779h26.080270257v23.6336741779ZM561.970503776,138.0741875569v10.6692040929c-.2017814671.2017862779-.4035629342.4035629342-.6179584491.6053492121h-46.5358938828v-47.6583068641h46.4728380764v11.2745484941h-32.4111788209v6.9740818788c2.9384453206,0,12.1069012554-.0756650434,15.0453441706-.0756650434h10.4548133888c-3.5690130067,3.4555082253-7.1380260133,6.9236304984-10.70703902,10.3791387237-2.8501662295,0-11.9303406676.0882790912-14.7931173367.0882790912v7.7559844624h33.0921918737v-.0126140478ZM672.6603511465,103.670416147c-2.3583266095-1.3241911785-5.4607184702-1.992596197-9.2945711557-1.992596197h-35.5135766951v47.1916833126c.1639441346.1513397085.315283843.315283843.4792279776.4666235515h13.5824237233v-15.2219035557h21.4519153725c2.0430427665,0,3.8590711595-.1513397084,5.4607184701-.4413954559,1.601637689-.2900653691,2.9510521522-.8071258684,4.0356293419-1.5512007412,1.0845771897-.731460825,1.916921532-1.7277589235,2.4844382224-2.9636661999.5675070687-1.2359168981.8449680118-2.7871080176.8449680118-4.6535926018v-12.5230746292c0-4.224801572-1.1854703287-6.9993003526-3.5437873165-8.3234915311l.0126140478.0126140478ZM662.167705236,119.8507852795c0,.9962980985-.2522232257,1.7025308279-.7440652511,2.1313218577-.5044560732.416176982-1.2485213242.630567686-2.2448194228.630567686h-17.2649463222v-9.4332920056h17.2649463222c.9962980985,0,1.7529773974.2270047518,2.2448194228.6936234924.5044560732.4666187406.7440652511,1.1476329961.7440652511,2.0556520035v3.9221269659ZM553.6722331241,57.1975796117h25.5379888784l11.1106043596,10.7196506624h-25.5379912838l-11.1106019542-10.7196506624Z"/>
      </g>
      <g>
        <rect class="cls-1" x="394.530010379" y="95.6548124727" width="62.1836694997" height="5.2232757911" transform="translate(55.1768787986 329.7416698614) rotate(-45)"/>
        <rect class="cls-1" x="394.530010379" y="95.6548124727" width="62.1836694997" height="5.2232757911" transform="translate(194.1466256356 -272.178515962) rotate(45)"/>
      </g>
    </g>
  </g>
</svg>