<?xml version="1.0" encoding="UTF-8"?>
<svg id="Layer_2" xmlns="http://www.w3.org/2000/svg" version="1.1" xmlns:xlink="http://www.w3.org/1999/xlink" viewBox="0 0 1536 142.4">
  <!-- Generator: Adobe Illustrator 29.0.0, SVG Export Plug-In . SVG Version: 2.1.0 Build 186)  -->
  <defs>
    <style>
      .st0 {
        fill: url(#linear-gradient);
      }
    </style>
    <linearGradient id="linear-gradient" x1="0" y1="71.2" x2="1536" y2="71.2" gradientUnits="userSpaceOnUse">
      <stop offset="0" stop-color="#ff6b6b"/>
      <stop offset="1" stop-color="#845ef7"/>
    </linearGradient>
  </defs>
  <path id="Layer_2-2" class="st0" d="M1296.6,54.7c2.6,1.6,6.4,2.5,11.2,2.5h33.8c4.8,0,8.6-.8,11.3-2.4,2.7-1.6,4-5,4-10.2V12.1c0-5-1.4-8.2-4.2-9.8C1349.9.8,1346.2,0,1341.7,0h-33.8c-4.5,0-8.2.8-11,2.3-2.8,1.6-4.2,4.8-4.2,9.8v32.4c0,5.1,1.3,8.5,4,10.1h0,0ZM1309.4,14.4h30.9v28.3h-30.9V14.4h0ZM1536,118.4v13.4h-55.9v-56.5h55.1v13.4h-38.5v8.3c3.5,0,14.4,0,17.9,0h12.4c-4.2,4.1-8.5,8.2-12.7,12.3-3.4,0-14.2.1-17.6.1v9.2h39.3,0s0,0,0,0h0ZM1466.4,102.9c.7,1.6,1.1,3.6,1.1,6.1v10.5c0,5.1-1.3,8.5-4,10.1-2.7,1.6-6.4,2.4-11.1,2.4h-29.2c-2.3,0-4.4-.2-6.3-.5s-3.5-1-4.8-1.9c-1.3-.9-2.3-2.2-3-3.8s-1-3.7-1-6.3v-3.4l15.9-2.1v5.6h27.8v-10h-27.4c-2.3,0-4.4-.2-6.3-.5-1.9-.3-3.5-1-4.8-1.9-1.3-.9-2.3-2.2-3-3.8s-1-3.7-1-6.3v-9.7c0-2.5.4-4.5,1.1-6.1.7-1.5,1.8-2.8,3.2-3.6s2.9-1.5,4.8-1.8c1.9-.3,3.9-.4,6.2-.4h27.1c2.3,0,4.3.1,6.2.4s3.5.9,4.8,1.8,2.4,2.1,3.1,3.6,1.1,3.6,1.1,6v3.5l-15.9,2v-5h-25.8v9.4h27.3c2.3,0,4.3.1,6.2.4s3.5.9,4.8,1.7c1.3.9,2.4,2.1,3.1,3.6h0s0,0,0,0h0ZM1510.4,67.3h-30.3l13.2-12.7h30.3l-13.2,12.7ZM1241.9,38.9h25.5c2.4,0,4.6-.2,6.5-.5,1.9-.4,3.5-1,4.8-1.9s2.3-2.1,2.9-3.5c.7-1.5,1-3.3,1-5.6v-15c0-5.1-1.4-8.4-4.2-10-2.8-1.6-6.5-2.4-11-2.4h-42.1v57.1h16.7v-18.2h0s0,0,0,0ZM1241.9,13.8h20.5c1.2,0,2.1.3,2.7.8s.9,1.4.9,2.5v4.7c0,1.2-.3,2-.9,2.5-.6.5-1.5.7-2.7.7h-20.5v-11.3ZM1387.9,38.9h25.5c2.4,0,4.6-.2,6.5-.5,1.9-.4,3.5-1,4.8-1.9s2.3-2.1,2.9-3.5,1-3.3,1-5.6v-15c0-5.1-1.4-8.4-4.2-10-2.8-1.6-6.5-2.4-11-2.4h-42.1v57.1h16.7v-18.2h0ZM1387.9,13.8h20.5c1.2,0,2.1.3,2.7.8.6.6.9,1.4.9,2.5v4.7c0,1.2-.3,2-.9,2.5-.6.5-1.5.7-2.7.7h-20.5v-11.3ZM1147.5,56.8h-16.7V.3h16.7v22.1l22.1-22.1h21.7l-29.1,28.3,29.1,28.3h-21.7l-22.1-22.1v22.1ZM1264,131.8h.6c4.1,4,7.7,7.6,10.8,10.6h-21.6c-6.5-6.4-15.6-15.2-25.4-24.9l10.7-10.7c8.8,8.6,17.5,17.1,24.9,24.4v.6h0ZM1264,75.3c-19.1,18.9-38.2,37.7-57.3,56.5h-20.9v-.7c9.4-9.2,18.7-18.5,28-27.7-13.2-12.9-26.4-25.8-39.6-38.7h21.7c7.3,7.1,17.6,17.2,28.7,28.1,5.9-5.8,11.8-11.6,17.7-17.5h21.7ZM1392.4,77.6c-2.8-1.5-6.5-2.3-11.1-2.3h-33.8c-4.5,0-8.2.8-11,2.3-2.8,1.5-4.2,4.8-4.2,9.7v32.1c0,5.1,1.3,8.4,4,10s6.4,2.4,11.2,2.4h33.8c4.8,0,8.6-.8,11.3-2.4,2.7-1.6,4-5,4-10.1v-32.1c0-4.9-1.4-8.1-4.2-9.7h0s0,0,0,0ZM1380,117.6h-30.9v-28h30.9v28ZM1185.8,118.4v12.7c-.2.2-.5.5-.7.7h-55.2v-56.5h55.1v13.4h-38.5v8.3c3.5,0,14.4,0,17.9,0h12.4c-4.2,4.1-8.5,8.2-12.7,12.3-3.4,0-14.2.1-17.6.1v9.2h39.3s0,0,0,0ZM1317.1,77.6c-2.8-1.6-6.5-2.4-11-2.4h-42.1v56c.2.2.4.4.6.6h16.1v-18.1h25.5c2.4,0,4.6-.2,6.5-.5s3.5-1,4.8-1.8c1.3-.9,2.3-2,2.9-3.5.7-1.5,1-3.3,1-5.5v-14.9c0-5-1.4-8.3-4.2-9.9h0s0,0,0,0h0ZM1304.7,96.8c0,1.2-.3,2-.9,2.5-.6.5-1.5.7-2.7.7h-20.5v-11.2h20.5c1.2,0,2.1.3,2.7.8.6.6.9,1.4.9,2.4v4.7h0ZM1176,22.5h30.3l13.2,12.7h-30.3s-13.2-12.7-13.2-12.7ZM1023.8,95.1l52.2-52.2,4.4,4.4-52.2,52.2-4.4-4.4ZM1023.8,47.3l4.4-4.4,52.2,52.2-4.4,4.4-52.2-52.2ZM439,5.6v131.2h-30.2V5.6h30.2ZM446.5,5.6h30.2l8.2,51.6h.8V5.6h30.2v131.2h-30.2l-8.2-56.2h-.8v56.2h-30.2V5.6h0ZM591.1,29h-4.5v84.3h4.5v-37h30.2v32.3c0,16.9-9,28.1-22.6,28.1h-19.6c-13.5,0-22.6-11.2-22.6-28.1V33.7c0-16.9,9-28.1,22.6-28.1h19.6c13.6,0,22.6,11.2,22.6,28.1v27.6h-30.2V29h0ZM628.8,108.7V33.7c0-16.9,9-28.1,22.6-28.1h19.6c13.5,0,22.6,11.2,22.6,28.1v74.9c0,16.9-9,28.1-22.6,28.1h-19.6c-13.5,0-22.6-11.2-22.6-28.1,0,0,0,0,0,0ZM663.5,29h-4.5v84.3h4.5V29ZM750.1,113.4v23.4h-48.9V5.6h30.2v107.8h18.8s0,0,0,0ZM755.4,108.7V33.7c0-16.9,9.1-28.1,22.6-28.1h19.6c13.5,0,22.6,11.2,22.6,28.1v74.9c0,16.9-9,28.1-22.6,28.1h-19.6c-13.5,0-22.6-11.2-22.6-28.1ZM790,29h-4.5v84.3h4.5V29ZM886.3,72.9c3.9,5.4,6.1,13.7,6.1,24.5v39.4h-30.2v-56.2h-4.5v56.2h-30.2V5.6h42.2c13.5,0,22.6,11.2,22.6,28.1v18.7c0,8.4-2.2,15.5-6.1,20.4h0ZM862.4,57.2v-28.1h-4.5v28.1h4.5ZM900,94.2h30.2v19.2h4.5v-14.1c0-18.7-34.7-14.8-34.7-56.2v-9.4c0-16.9,9.1-28.1,22.6-28.1h19.6c13.5,0,22.6,11.2,22.6,28.1v14.4h-30.2v-19.2h-4.5v14.1c0,18.7,34.7,15.2,34.7,56.2v9.4c0,16.9-9,28.1-22.6,28.1h-19.6c-13.5,0-22.6-11.2-22.6-28.1v-14.5h0q0,0,0,0ZM74.8,114.3V28c0-13.5,9-22.4,22.4-22.4h19.4c13.5,0,22.4,9,22.4,22.4v86.3c0,13.5-9,22.4-22.4,22.4h-19.4c-13.5,0-22.4-9-22.4-22.4h0s0,0,0,0ZM109.3,24.3h-4.5v93.8h4.5V24.3ZM179.5,118.1h4.5V5.6h29.9v108.7c0,13.5-8.9,22.4-22.4,22.4h-19.4c-13.5,0-22.4-9-22.4-22.4V5.6h29.9v112.5h0ZM224.5,5.6h29.9l8.2,47h.8V5.6h29.9v131.2h-29.9l-8.2-50.7h-.8v50.7h-29.9V5.6h0ZM368.1,28v86.3c0,13.5-9,22.4-22.4,22.4h-41.9V5.6h41.9c13.5,0,22.4,9,22.4,22.4h0ZM338.2,24.3h-4.5v93.8h4.5V24.3ZM41.9,5.6h-19.4c-4.1,0-7.8.8-10.9,2.4C4.3,11.5,0,18.7,0,28v20.7c0,14.1,6.3,21.6,13.4,26.8h0l21,15.3v27.3h-4.5v-25.2L3.9,73.9l-3.9-2.8v43.3c0,13.5,9,22.4,22.4,22.4h19.4c5.9,0,11-1.7,14.8-4.9,4.9-4,7.7-10,7.7-17.6v-20.7c0-15.1-7.3-22.6-15.1-27.8l-19.2-14.1v-7.5h0v-20h4.5v25.2l29.9,21.9V28c0-13.5-9-22.4-22.4-22.4Z"/>
</svg>