<svg xmlns="http://www.w3.org/2000/svg" viewBox="0 0 124.95 130.36"><g id="Layer_2" data-name="Layer 2"><g id="Layer_1-2" data-name="Layer 1"><path d="M86.86,0A38,38,0,0,0,63.72,7.87,38.06,38.06,0,0,0,2.48,38.1,81,81,0,0,0,8.27,67.33H2.72a2.72,2.72,0,1,0,0,5.43h7.81c14.76,32.59,44.84,55.77,46.52,57.05a2.71,2.71,0,0,0,3.13.1c2.65-1.73,64.77-43,64.77-91.81A38.14,38.14,0,0,0,86.86,0Zm-28,124.27c-6.14-5-29.32-25.07-42.18-51.51H30.89a2.72,2.72,0,0,0,2.6-1.92L37.15,58.9l8.77,33.23A2.72,2.72,0,0,0,51.2,92L61.38,45.39l3.83,24.4A2.71,2.71,0,0,0,68,72.08l13.06-.58a9.33,9.33,0,1,0-.35-5.42l-10.53.47-5.7-36.3a2.71,2.71,0,0,0-5.33-.16L48.3,79.85,40,48.31a2.72,2.72,0,0,0-5.22-.11L28.88,67.33H14.2A76.16,76.16,0,0,1,7.92,38.1a32.62,32.62,0,0,1,54-24.67,2.73,2.73,0,0,0,3.56,0,32.62,32.62,0,0,1,54,24.67C119.52,79.77,68.61,117.42,58.82,124.27Zm27.07-56a3.91,3.91,0,1,1,3.9,3.9A3.91,3.91,0,0,1,85.89,68.23Z"/></g></g></svg>