<svg xmlns="http://www.w3.org/2000/svg" viewBox="0 0 128.09 130.36"><g id="Layer_2" data-name="Layer 2"><g id="Layer_1-2" data-name="Layer 1"><path d="M125.38,0H2.72A2.72,2.72,0,0,0,0,2.72V127.64a2.72,2.72,0,0,0,2.72,2.72H125.38a2.71,2.71,0,0,0,2.71-2.72V2.72A2.71,2.71,0,0,0,125.38,0ZM33.06,65.8c-1.58-4.95,2.47-10.06,7.75-10.68a8.94,8.94,0,0,1,9.38,12,10,10,0,0,0,2.48,10.7,8.89,8.89,0,0,1,2.74,5.73c1,10.85-15.11,13.51-17.6,2.73a5.17,5.17,0,0,0-6.19-4L5.43,88.35V76.82l22.79-5.29C31.83,70.88,33.92,68.52,33.06,65.8ZM5.43,124.93v-31l27.12-6.29c4.18,17.15,29.83,12.81,28.27-4.61a14.34,14.34,0,0,0-4.42-9.19A4.58,4.58,0,0,1,55.27,69,14.38,14.38,0,0,0,40.18,49.72c-8.1,1-14.23,8.5-12.64,16.4L5.43,71.24V5.43H122.66V71.24l-22.1-5.12c3.22-16-21.39-23.68-27.67-7.34A14.4,14.4,0,0,0,72.82,69a4.58,4.58,0,0,1-1.13,4.86A14.39,14.39,0,0,0,67.27,83c-1.55,17.35,24,21.81,28.27,4.61l27.12,6.29v31ZM122.66,88.35,96.48,82.28a5.06,5.06,0,0,0-3.85.64,5.34,5.34,0,0,0-2.35,3.34c-2.49,10.76-18.57,8.1-17.6-2.75a8.85,8.85,0,0,1,2.75-5.73,10.06,10.06,0,0,0,2.48-10.69,8.88,8.88,0,0,1,0-6.36C82.09,50,98.1,56.17,95,65.8a3.75,3.75,0,0,0,.36,3.12c1.1,1.83,3.49,2.44,4.33,2.58l22.93,5.32Z"/><path d="M70.3,50.06a2.77,2.77,0,0,0,1,.21,2.71,2.71,0,0,0,2.5-1.67L79.52,35a2.71,2.71,0,0,0-5-2.09L68.84,46.51A2.72,2.72,0,0,0,70.3,50.06Z"/><path d="M53.59,32.9a2.72,2.72,0,0,0-5,2.09L54.24,48.6a2.71,2.71,0,0,0,2.51,1.67,2.76,2.76,0,0,0,1-.21,2.71,2.71,0,0,0,1.46-3.55Z"/></g></g></svg>