<svg xmlns="http://www.w3.org/2000/svg" viewBox="0 0 130.37 109.46"><g id="Layer_2" data-name="Layer 2"><g id="Layer_1-2" data-name="Layer 1"><path d="M119.61,7.6C107.19-3.31,88-2.37,75.88,9.73L64,21.62,53.79,11.41A31.51,31.51,0,0,0,9.24,56l50.67,50.68a9.59,9.59,0,0,0,13.57,0,9.69,9.69,0,0,0,3.27-7.24s0-.09,0-.14A9.78,9.78,0,0,0,84.11,96a9.58,9.58,0,0,0,2.81-6.92,9.87,9.87,0,0,0,6.92-2.81,9.65,9.65,0,0,0,3.26-7.24v-.14a9.63,9.63,0,0,0,7.37-3.25,9.52,9.52,0,0,0,2.76-7.25l13.91-14.82A31.51,31.51,0,0,0,119.61,7.6Zm-19,64.22c-2.39,2.39-5,2.13-6.52.63L76.51,55.21a2.72,2.72,0,1,0-3.84,3.84L90.45,76.83a2.71,2.71,0,0,0,.89.59c.82,1.93.16,3.54-1.34,5a4.27,4.27,0,0,1-5.89,0L66.33,64.66a2.72,2.72,0,1,0-3.84,3.84L80.27,86.29a4.16,4.16,0,0,1,0,5.89c-2.29,2.29-4.74,2-6.34.45L56.15,74.84a2.72,2.72,0,0,0-3.84,3.84L70.09,96.47h0c1.6,1.6,1.86,4-.45,6.34a4.27,4.27,0,0,1-5.89,0L13.08,52.13A26.07,26.07,0,0,1,50,15.25L60.18,25.47,39.24,46.85A8.14,8.14,0,0,0,51.12,58L65.5,43.7C68,41,70.79,41.74,76.66,42l24,24A4.16,4.16,0,0,1,100.63,71.82Zm16.61-22-12.19,13c-1-1.16-19.36-19.49-20.42-20.55l1.6.06a2.72,2.72,0,0,0,.2-5.43c-16-.59-20.4-1.78-24.84,3.06L47.21,54.22a2.71,2.71,0,0,1-4.67-1.37,2.64,2.64,0,0,1,.64-2.25L65.83,27.46,79.72,13.57C89.8,3.49,105.75,2.66,116,11.68A26.06,26.06,0,0,1,117.24,49.81Z"/></g></g></svg>