<svg xmlns="http://www.w3.org/2000/svg" viewBox="0 0 130.36 125.34"><g id="Layer_2" data-name="Layer 2"><g id="Layer_1-2" data-name="Layer 1"><path d="M63,45.3a2.72,2.72,0,0,0,3.67,4,7.19,7.19,0,0,1,10.15.44,2.71,2.71,0,0,0,4-3.66A12.64,12.64,0,0,0,63,45.3Z"/><path d="M110,92.57c4.34-12.46,10.29-23.78,15.17-32.52a41.87,41.87,0,0,0,4.93-25.5C126.27,2,88.2-12.1,66.59,12.41a1.72,1.72,0,0,1-1.4.67,1.88,1.88,0,0,1-1.41-.67C42.3-12,4.12,1.87.3,34.55A41.92,41.92,0,0,0,5.21,60c5.57,10,12.52,23.28,16.86,37.68A116.74,116.74,0,0,0,32,121.53c3.54,6.24,12.6,4.46,13.84-2.75C49.43,98.09,56.29,86.7,65.18,86.7s15.76,11.39,19.34,32.07c1.24,7.2,10.3,9,13.84,2.74a116.59,116.59,0,0,0,9.67-23l14.07,15.16a2.72,2.72,0,0,0,4-3.7ZM93.64,118.84c-1,1.85-3.4,1.13-3.77-1C84.63,87.61,73.55,81.27,65.18,81.27s-19.45,6.35-24.69,36.58c-.37,2.13-2.71,2.85-3.77,1a110.66,110.66,0,0,1-9.44-22.74C22.78,81.2,15.65,67.56,10,57.35A36.58,36.58,0,0,1,5.7,35.18C9,7.15,41.32-4.89,59.7,16a7.24,7.24,0,0,0,11,0c18.44-20.91,50.73-8.85,54,19.18a36.52,36.52,0,0,1-4.28,22.22h0a221,221,0,0,0-14.57,30.7l-8.66-9.32a2.7,2.7,0,0,0-1-.67L93.8,75.42l1.44-1.31a2.72,2.72,0,0,0-3.67-4l-1.33,1.21L87,67.55a20.18,20.18,0,1,0-4,3.65L86.24,75,85,76.09a2.72,2.72,0,0,0,3.67,4l1.09-1,3.68,4.25a2.58,2.58,0,0,0,1.24.77l9.1,9.8C102.19,98.92,99.37,108.7,93.64,118.84ZM81.5,65.47a14.73,14.73,0,1,1,.92-20.81A14.74,14.74,0,0,1,81.5,65.47Z"/></g></g></svg>