<svg xmlns="http://www.w3.org/2000/svg" viewBox="0 0 126.65 130.36"><g id="Layer_2" data-name="Layer 2"><g id="Layer_1-2" data-name="Layer 1"><path d="M112.06,92.65c-.77.34.5.08,0,0Z"/><path d="M114.29,87.29c-1.27-12.38-10.76-22-22.27-22-12.36,0-22.41,11.14-22.41,24.84v15.4c0,10.71-7.63,19.43-17,19.43s-17-8.58-17-19.43v-4.27a11.7,11.7,0,0,0,9-11.58c16.33-9.8,28-41.38,28-58.8,0-13.73-7-21.68-21.51-24.26L51.56,3a2.72,2.72,0,1,0-5.4-.6L44.89,13.89a2.72,2.72,0,1,0,5.4.6L50.56,12c11.64,2.13,16.67,7.88,16.67,18.85,0,17.11-11.08,44.26-24.08,53.34a11.67,11.67,0,0,0-19-2.12C13.32,71.48,5.43,47.14,5.43,30.85c0-14.14,6.13-18.18,16.82-19.43l.34,3.07a2.72,2.72,0,1,0,5.4-.6L26.72,2.42a2.72,2.72,0,1,0-5.4.59l.33,3C10.54,7.33,0,11.92,0,30.85,0,46.43,7.69,74.79,21.59,87a11.63,11.63,0,0,0,8.6,14.2v4.27c0,13.79,10,24.86,22.41,24.86s22.45-11.15,22.45-24.86V92.76s0,0,0,0c0-15.43,8.74-22,17-22,8.69,0,15.86,7.48,16.86,17.1a13.82,13.82,0,1,0,5.41-.5ZM26.63,89.87a6.29,6.29,0,1,1,6.28,6.28A6.3,6.3,0,0,1,26.63,89.87Zm86.21,19.47a8.39,8.39,0,0,1-8.39-8.39c0-4.09,3.72-7.58,7.61-8.3,4.68,0,9.16,3.72,9.16,8.3A8.39,8.39,0,0,1,112.84,109.34Z"/></g></g></svg>