<svg xmlns="http://www.w3.org/2000/svg" viewBox="0 0 130.39 135.69"><g id="Layer_2" data-name="Layer 2"><g id="Layer_1-2" data-name="Layer 1"><path d="M127,32.52,89.45,23A9.22,9.22,0,0,0,78.36,29a21.67,21.67,0,0,1-4.71,8.42l.29-10.65A10.27,10.27,0,0,1,76,21.12,13.34,13.34,0,0,0,63.6.1C53.64,1.28,48.48,12.91,54.3,21a10.82,10.82,0,0,1,2.18,5.82l.25,9.55A19.45,19.45,0,0,1,53,29.13,9,9,0,0,0,40.6,23.55c-7.36,3.35-18,9.35-25.39,8.94C.9,32.83.34,35.82.08,37.25c-.82,4.35,5.05,4.84,7.77,7.34A87.37,87.37,0,0,0,40,62.78c-9,1.63-17.37,4.58-17.37,9.93,0,5,7.28,7.85,15.46,9.56-5.57,1.65-9.92,4.18-9.92,8.08,0,4.68,6.37,7.41,13.52,9-4.92,1.78-8.31,4.36-8.31,7.91,0,7,13.23,10.24,25.58,11l.32,11.61a6,6,0,0,0,11.94,0l.31-11.6c12.34-.74,25.56-4,25.56-11,0-3.55-3.39-6.13-8.3-7.91,7.15-1.59,13.5-4.32,13.5-9,0-4-4.67-6.64-10.55-8.29,7.06-1.73,13.16-4.6,13.16-9.35C104.87,67,95.75,64,87,62.43a110.11,110.11,0,0,0,33.51-17.76c2.71-2.05,9.19-2.55,9.87-7A5,5,0,0,0,127,32.52ZM11.52,40.59a14.49,14.49,0,0,0-3.06-2.14,62.59,62.59,0,0,1,6.66-.54c8.77.48,20.21-6,27.75-9.42a3.58,3.58,0,0,1,4.94,2.17c1.23,4.24,3.8,9.74,9.11,12.91l.46,17.06C33.15,58.79,16.25,44.93,11.52,40.59ZM28.09,72.72c1.22-1.86,11-5.48,29.45-6.37l.34,12.78C39.14,78.29,29.3,74.62,28.09,72.72Zm5.55,17.62c1.12-1.65,9.21-4.78,24.39-5.59L58.34,96C43,95.22,34.78,92,33.64,90.34Zm5.14,16.94c.31-1.32,6.63-4.69,19.71-5.59l.3,11.11C45.55,112,39.12,108.56,38.78,107.28ZM68.51,26.66l-2.75,103c0,.64-1.07.63-1.09,0l-2.77-103a16.2,16.2,0,0,0-3.17-8.82,7.89,7.89,0,1,1,12.9.1A15.62,15.62,0,0,0,68.51,26.66Zm23.12,80.56c-.34,1.34-6.77,4.73-20,5.58l.29-11.11C85,102.58,91.32,106,91.63,107.22Zm5.14-16.88C95.63,92,87.43,95.23,72.09,96l.3-11.25C87.56,85.56,95.65,88.69,96.77,90.34Zm2.67-17.68c-.48,1.59-8.92,5.63-26.9,6.48l.34-12.8C90.26,67.22,98.88,71,99.44,72.66Zm17.75-32.32C102.61,51.37,87.78,58,73.05,60.1l.42-15.76c4.45-2.31,7.9-7,10.06-13.62a3.79,3.79,0,0,1,4.57-2.47c10.16,2.57,29.36,7.45,35.55,9C121.06,38.43,120.12,38.13,117.19,40.34Z"/></g></g></svg>