<svg xmlns="http://www.w3.org/2000/svg" viewBox="0 0 56 52"><g id="Layer_2" data-name="Layer 2"><g id="Layer_1-2" data-name="Layer 1"><path d="M31.38,7.25a1,1,0,0,1-1,1H29V9.64a1,1,0,0,1-2,0V8.25H25.62a1,1,0,0,1,0-2H27V4.86a1,1,0,1,1,2,0V6.25h1.38A1,1,0,0,1,31.38,7.25Z"/><path d="M19.32,19.84a1,1,0,0,1-1,1h-2a1.22,1.22,0,0,1-1.21-1.21V16.49a1.21,1.21,0,0,1,1.21-1.21h2a1,1,0,0,1,0,2H17.15v1.56h1.17A1,1,0,0,1,19.32,19.84Z"/><path d="M26.49,19.84a1,1,0,0,1-1,1H23.54a1.21,1.21,0,0,1-1.21-1.21V16.49a1.21,1.21,0,0,1,1.21-1.21h1.95a1,1,0,0,1,0,2H24.33v1.56h1.16A1,1,0,0,1,26.49,19.84Z"/><path d="M33.67,19.84a1,1,0,0,1-1,1h-2a1.21,1.21,0,0,1-1.21-1.21V16.49a1.21,1.21,0,0,1,1.21-1.21h2a1,1,0,0,1,0,2H31.51v1.56h1.16A1,1,0,0,1,33.67,19.84Z"/><path d="M40.85,19.84a1,1,0,0,1-1,1h-2a1.22,1.22,0,0,1-1.21-1.21V16.49a1.21,1.21,0,0,1,1.21-1.21h2a1,1,0,0,1,0,2H38.68v1.56h1.17A1,1,0,0,1,40.85,19.84Z"/><path d="M19.32,28.6a1,1,0,0,1-1,1h-2a1.21,1.21,0,0,1-1.21-1.2V25.25A1.22,1.22,0,0,1,16.36,24h2a1,1,0,0,1,0,2H17.15V27.6h1.17A1,1,0,0,1,19.32,28.6Z"/><path d="M26.49,28.6a1,1,0,0,1-1,1H23.54a1.21,1.21,0,0,1-1.21-1.2V25.25A1.21,1.21,0,0,1,23.54,24h1.95a1,1,0,1,1,0,2H24.33V27.6h1.16A1,1,0,0,1,26.49,28.6Z"/><path d="M33.67,28.6a1,1,0,0,1-1,1h-2a1.21,1.21,0,0,1-1.21-1.2V25.25A1.21,1.21,0,0,1,30.72,24h2a1,1,0,0,1,0,2H31.51V27.6h1.16A1,1,0,0,1,33.67,28.6Z"/><path d="M40.85,28.6a1,1,0,0,1-1,1h-2a1.21,1.21,0,0,1-1.21-1.2V25.25A1.22,1.22,0,0,1,37.89,24h2a1,1,0,0,1,0,2H38.68V27.6h1.17A1,1,0,0,1,40.85,28.6Z"/><path d="M19.32,37.37a1,1,0,0,1-1,1h-2a1.21,1.21,0,0,1-1.21-1.21V34a1.21,1.21,0,0,1,1.21-1.21h2a1,1,0,0,1,0,2H17.15v1.56h1.17A1,1,0,0,1,19.32,37.37Z"/><path d="M9.54,37.37a1,1,0,0,1-1,1h-2a1.21,1.21,0,0,1-1.21-1.21V34a1.21,1.21,0,0,1,1.21-1.21h2a1,1,0,0,1,0,2H7.37v1.56H8.54A1,1,0,0,1,9.54,37.37Z"/><path d="M9.54,46.14a1,1,0,0,1-1,1h-2a1.21,1.21,0,0,1-1.21-1.21V42.79a1.21,1.21,0,0,1,1.21-1.21h2a1,1,0,0,1,0,2H7.37v1.56H8.54A1,1,0,0,1,9.54,46.14Z"/><path d="M50.63,37.37a1,1,0,0,1-1,1h-2a1.21,1.21,0,0,1-1.21-1.21V34a1.21,1.21,0,0,1,1.21-1.21h2a1,1,0,0,1,0,2H48.46v1.56h1.17A1,1,0,0,1,50.63,37.37Z"/><path d="M50.63,46.14a1,1,0,0,1-1,1h-2a1.21,1.21,0,0,1-1.21-1.21V42.79a1.21,1.21,0,0,1,1.21-1.21h2a1,1,0,1,1,0,2H48.46v1.56h1.17A1,1,0,0,1,50.63,46.14Z"/><path d="M26.49,37.37a1,1,0,0,1-1,1H23.54a1.21,1.21,0,0,1-1.21-1.21V34a1.21,1.21,0,0,1,1.21-1.21h1.95a1,1,0,0,1,0,2H24.33v1.56h1.16A1,1,0,0,1,26.49,37.37Z"/><path d="M33.67,37.37a1,1,0,0,1-1,1h-2a1.21,1.21,0,0,1-1.21-1.21V34a1.21,1.21,0,0,1,1.21-1.21h2a1,1,0,0,1,0,2H31.51v1.56h1.16A1,1,0,0,1,33.67,37.37Z"/><path d="M40.85,37.37a1,1,0,0,1-1,1h-2a1.21,1.21,0,0,1-1.21-1.21V34a1.21,1.21,0,0,1,1.21-1.21h2a1,1,0,0,1,0,2H38.68v1.56h1.17A1,1,0,0,1,40.85,37.37Z"/><path d="M19.32,46.14a1,1,0,0,1-1,1h-2a1.21,1.21,0,0,1-1.21-1.21V42.79a1.21,1.21,0,0,1,1.21-1.21h2a1,1,0,0,1,0,2H17.15v1.56h1.17A1,1,0,0,1,19.32,46.14Z"/><path d="M40.85,46.14a1,1,0,0,1-1,1h-2a1.21,1.21,0,0,1-1.21-1.21V42.79a1.21,1.21,0,0,1,1.21-1.21h2a1,1,0,1,1,0,2H38.68v1.56h1.17A1,1,0,0,1,40.85,46.14Z"/><path d="M55,50H53.9V30h.27a1.2,1.2,0,0,0,1.2-1.2v-3.5A1.21,1.21,0,0,0,54.17,24h-9V11.38h.25a1.21,1.21,0,0,0,1.2-1.21V4.33a1.21,1.21,0,0,0-1.2-1.21H33.93a7.2,7.2,0,0,0-11.86,0H10.56a1.21,1.21,0,0,0-1.2,1.21v5.84a1.21,1.21,0,0,0,1.2,1.21h.25V24h-9a1.21,1.21,0,0,0-1.2,1.21v3.5A1.2,1.2,0,0,0,1.83,30H2.1V50H1a1,1,0,0,0,0,2H55a1,1,0,0,0,0-2ZM10.81,50H4.1V30h6.71Zm0-22H2.63V26h8.18ZM28,2a5.25,5.25,0,1,1-5.23,5.25A5.25,5.25,0,0,1,28,2ZM11.36,5.12h9.73a7.52,7.52,0,0,0-.32,2.13,7.52,7.52,0,0,0,.32,2.13H11.36ZM27,50H23.81V43.58H27Zm5.19,0H29V43.58h3.19Zm11,0h-9V42.78a1.2,1.2,0,0,0-1.2-1.2H23a1.2,1.2,0,0,0-1.2,1.2V50h-9V11.38h9.26a7.2,7.2,0,0,0,11.86,0h9.26ZM44.64,9.38H34.91a7.52,7.52,0,0,0,.32-2.13,7.52,7.52,0,0,0-.32-2.13h9.73ZM51.9,50H45.19V30H51.9Zm1.47-22H45.19V26h8.18Z"/></g></g></svg>