<svg xmlns="http://www.w3.org/2000/svg" viewBox="0 0 40 56"><g id="Layer_2" data-name="Layer 2"><g id="Layer_1-2" data-name="Layer 1"><path d="M38,7.92H28.39V7.68a1.2,1.2,0,0,0-1.2-1.2H25V4.86a4.86,4.86,0,1,0-9.72,0V6.48H12.82a1.2,1.2,0,0,0-1.2,1.2v.24H2a2,2,0,0,0-2,2V54a2,2,0,0,0,2,2H38a2,2,0,0,0,2-2V9.92A2,2,0,0,0,38,7.92ZM17.24,4.86a2.86,2.86,0,1,1,5.72,0V6.48H17.24ZM13.62,8.48H26.39v4.28H13.62Zm13.57,6.28a1.19,1.19,0,0,0,1.2-1.18h5.92V50.33H5.7V13.58h5.92a1.19,1.19,0,0,0,1.2,1.18ZM38,54H2V9.92h9.62v1.66H4.9a1.2,1.2,0,0,0-1.2,1.2V51.13a1.2,1.2,0,0,0,1.2,1.2H35.11a1.2,1.2,0,0,0,1.2-1.2V12.78a1.2,1.2,0,0,0-1.2-1.2H28.39V9.92H38Z"/><path d="M14.91,26.77h2v2A1.24,1.24,0,0,0,18.18,30h3.65a1.24,1.24,0,0,0,1.23-1.24v-2h2a1.24,1.24,0,0,0,1.24-1.23V21.92a1.25,1.25,0,0,0-1.24-1.24h-2v-2a1.23,1.23,0,0,0-1.23-1.23H18.18A1.23,1.23,0,0,0,17,18.67v2h-2a1.25,1.25,0,0,0-1.24,1.24v3.62A1.24,1.24,0,0,0,14.91,26.77Zm.76-4.09h2A1.24,1.24,0,0,0,19,21.45v-2h2.11v2a1.24,1.24,0,0,0,1.24,1.23h2v2.09h-2A1.24,1.24,0,0,0,21.06,26v2H19V26a1.24,1.24,0,0,0-1.24-1.23h-2Z"/><path d="M8.72,34.66a1,1,0,0,0,1,1H30.48a1,1,0,1,0,0-2H9.72A1,1,0,0,0,8.72,34.66Z"/><path d="M30.48,39.07H9.72a1,1,0,1,0,0,2H30.48a1,1,0,0,0,0-2Z"/><path d="M30.48,44.48H9.72a1,1,0,1,0,0,2H30.48a1,1,0,0,0,0-2Z"/></g></g></svg>