<svg xmlns="http://www.w3.org/2000/svg" viewBox="0 0 46 56"><g id="Layer_2" data-name="Layer 2"><g id="Layer_1-2" data-name="Layer 1"><path d="M39.6,36.61l-4.28-1.17a1.23,1.23,0,0,0-.07-.68,1.19,1.19,0,0,0-.76-.66l-4.76-1.32h0a1.23,1.23,0,0,0-.43,0,10.4,10.4,0,0,1-.52-3.32,9.72,9.72,0,0,0,3.52-6.35,3.52,3.52,0,0,0,1.16-.57,2.81,2.81,0,0,0,1.07-1.67c.41-1.88.25-3.21-.5-4.05a2.36,2.36,0,0,0-.8-.56,15.69,15.69,0,0,0,1.06-7.5A10.27,10.27,0,0,0,26.15.21a8.87,8.87,0,0,0-8,2.21A7.51,7.51,0,0,0,13,4.47C11.47,6,10.74,8.3,10.87,11.26a10.49,10.49,0,0,0,1.65,5.17,1.91,1.91,0,0,0-.43.37c-.74.84-.9,2.17-.48,4a2.72,2.72,0,0,0,1.06,1.67,3.47,3.47,0,0,0,1.17.57,9.76,9.76,0,0,0,3.32,6.2v.17a10.76,10.76,0,0,1-.48,3.3,1.26,1.26,0,0,0-.39,0L11.53,34.1a1.19,1.19,0,0,0-.76.66,1.25,1.25,0,0,0-.07.74l-2.18.58h0l-2.08.55A8.66,8.66,0,0,0,0,45V54.8A1.2,1.2,0,0,0,1.2,56H44.8A1.2,1.2,0,0,0,46,54.8V44.93A8.67,8.67,0,0,0,39.6,36.61ZM2,45a6.61,6.61,0,0,1,4.34-6.17,10.13,10.13,0,0,0-.79,4.34,5,5,0,0,0-2,2,6.45,6.45,0,0,0-.38,4.9,7,7,0,0,0,.59,1.27l.21.34a.68.68,0,0,0,.9.25l1.23-.65a1,1,0,0,0,.36-1.44,1,1,0,0,0-1.34-.31h0l0-.06a4.42,4.42,0,0,1,.23-3.37A2.83,2.83,0,0,1,7,44.69c1.72-.52,3.66.8,4.33,2.94l.06.23-.15,0a1,1,0,0,0,.53,1.93l1-.26.33-.11a.68.68,0,0,0,.46-.72l0-.29a7.1,7.1,0,0,0-.27-1.4,6,6,0,0,0-5.68-4.45A6.55,6.55,0,0,1,9.25,38l2.36-.62,1.32,2.55L11.77,41a1.17,1.17,0,0,0-.2,1.48L18.85,54H2ZM13.56,20.41c-.29-1.33-.17-2.06,0-2.3a.35.35,0,0,1,.17-.09A1.14,1.14,0,0,0,15,18.2a1.16,1.16,0,0,0,.69-1.2c-.58-5.34,1.2-7.29,2.19-7.94,1,1,3.39,2.61,8.8,2.65A3.18,3.18,0,0,1,29.29,13a7,7,0,0,1,1.07,4.19,1.16,1.16,0,0,0,.89,1.16,1,1,0,0,0,.28,0,1.17,1.17,0,0,0,.86-.38s.11,0,.14.07c.21.24.34,1,0,2.3a.73.73,0,0,1-.27.47,1.15,1.15,0,0,1-.65.28,1.16,1.16,0,0,0-.86.26,1.18,1.18,0,0,0-.41.8c-.1,1.17-.9,7-7.31,7s-7.18-5.39-7.32-7a1.12,1.12,0,0,0-.41-.79,1.14,1.14,0,0,0-.75-.28h-.12a1.16,1.16,0,0,1-.64-.28A.78.78,0,0,1,13.56,20.41Zm4.86-16a1.14,1.14,0,0,0,.83-.32,6.93,6.93,0,0,1,6.49-1.93A8.27,8.27,0,0,1,32.31,9a12.52,12.52,0,0,1-.41,4.88,7.29,7.29,0,0,0-1-2,5.18,5.18,0,0,0-4.25-2.19c-6,0-7.47-2.1-7.62-2.33a1.17,1.17,0,0,0-1.39-.47c-.7.27-3.79,1.76-4.09,7.28a8.5,8.5,0,0,1-.71-3c-.1-2.37.42-4.15,1.56-5.29a5.6,5.6,0,0,1,3.83-1.46Zm4.65,26.83a10.24,10.24,0,0,0,3.76-.7,9.53,9.53,0,0,0,1.24,4.21l-.77,4.07a23,23,0,0,1-8.59,0l-.77-4.12a9.77,9.77,0,0,0,1.19-4.24A10.06,10.06,0,0,0,23.07,31.25ZM38.89,44.78A1.26,1.26,0,1,1,37.61,46,1.26,1.26,0,0,1,38.89,44.78ZM21.55,54,19.11,40.94a25,25,0,0,0,3.87.31,25.92,25.92,0,0,0,3.93-.31L24.46,54Zm-8.5-18.24L16,35,18.8,50.16,13.63,42l1.12-1.05A1.17,1.17,0,0,0,15,39.52Zm17-.81,2.91.81L31,39.53a1.17,1.17,0,0,0,.24,1.39l1.12,1-5.16,8.2ZM44,54H27.16l7.29-11.56a1.19,1.19,0,0,0-.2-1.48l-1.16-1.08,1.34-2.6,1.49.4a.8.8,0,0,0,.15.17s1.86,1.51,1.82,5.1a3.28,3.28,0,1,0,2,0A9.87,9.87,0,0,0,39,38.51l.11,0A6.66,6.66,0,0,1,44,44.93Z"/></g></g></svg>