<svg xmlns="http://www.w3.org/2000/svg" xmlns:xlink="http://www.w3.org/1999/xlink" viewBox="0 0 1457.62 375.43"><defs><style>.cls-1{fill:none;}.cls-2{clip-path:url(#clip-path);}.cls-3{fill:url(#linear-gradient);}.cls-4{clip-path:url(#clip-path-2);}.cls-5{fill:url(#linear-gradient-2);}.cls-6{clip-path:url(#clip-path-3);}.cls-7{fill:url(#linear-gradient-3);}.cls-8{clip-path:url(#clip-path-4);}.cls-9{fill:url(#linear-gradient-4);}.cls-10{fill:#fff;}.cls-11{fill:#898989;}</style><clipPath id="clip-path"><path class="cls-1" d="M164.5,1.39c-5.12.9-10.28,1.65-15.37,2.7A182.26,182.26,0,0,0,71.38,40.42q-54,42.9-68,110.5c-1.49,7.2-2,14.61-2.92,21.91A19.06,19.06,0,0,1,0,174.78V201A16.62,16.62,0,0,1,.44,203c.35,3.6.56,7.21,1,10.79,3.31,25.53,12,49.16,25.23,71.16a187.37,187.37,0,0,0,49.29,54,189.26,189.26,0,0,0,40,22.55,177.56,177.56,0,0,0,63.41,13.69c7.14.25,14.3-.18,21.44-.43a155.44,155.44,0,0,0,34.09-5.35,188.52,188.52,0,0,0,70.83-36.13c1.16-.94,2.25-2,3.38-3l-.32-.57c-37.31,25.87-78.59,35.86-123.37,30-45-5.92-82.19-26.94-110.85-61.9A172.43,172.43,0,0,1,58.9,100.51c25.63-43.49,63.49-71.45,113-82.05,49.36-10.57,95.23-1.05,137.2,27.27a7.77,7.77,0,0,0-1.86-2.06A199.67,199.67,0,0,0,281,25.4c-17.19-9.78-35.26-17.17-54.69-21.08-5.17-1-10.38-1.88-15.57-2.82A227,227,0,0,0,186.25,0,175.75,175.75,0,0,0,164.5,1.39"/></clipPath><linearGradient id="linear-gradient" x1="5804.59" y1="783.18" x2="5805.61" y2="783.18" gradientTransform="matrix(263.98, 0, 0, -263.98, -1532301.73, 206934.92)" gradientUnits="userSpaceOnUse"><stop offset="0" stop-color="#2994ce"/><stop offset="0.02" stop-color="#2891cb"/><stop offset="0.22" stop-color="#226aa5"/><stop offset="0.43" stop-color="#1d4b88"/><stop offset="0.63" stop-color="#1a3673"/><stop offset="0.82" stop-color="#182866"/><stop offset="1" stop-color="#172462"/></linearGradient><clipPath id="clip-path-2"><path class="cls-1" d="M101.56,67.1c.83-.59,1.64-1.23,2.5-1.76,7.44-4.54,14.58-9.75,22.42-13.47A142.49,142.49,0,0,1,203,38.47a140.35,140.35,0,0,1,46,12.41A143.67,143.67,0,0,1,300.2,90.5c28.72,35.26,39.68,75.64,33.12,120.47-5.68,38.77-24.08,70.75-54.7,95.25-32.74,26.2-70.28,35.85-111.66,30a136.68,136.68,0,0,1-63.59-26.41c-.61-.46-1.29-.85-1.93-1.27,51.24,48.84,146.25,61.38,214.73,1.24,72.89-64,73.57-175.27,3.63-240.64A160.14,160.14,0,0,0,209.6,25.51c-40.54,0-79.86,15.06-108,41.59"/></clipPath><linearGradient id="linear-gradient-2" x1="5804.54" y1="783.14" x2="5805.56" y2="783.14" gradientTransform="matrix(263.29, 0, 0, -263.29, -1528132.4, 206392.87)" gradientUnits="userSpaceOnUse"><stop offset="0" stop-color="#31a6df"/><stop offset="0.24" stop-color="#31a6df"/><stop offset="0.72" stop-color="#69c6e4"/><stop offset="1" stop-color="#6bc7e3"/></linearGradient><clipPath id="clip-path-3"><path class="cls-1" d="M213.66,74.2a9,9,0,0,0-.46-1.07c-.39-.62-.8-1.22-1.21-1.83a.35.35,0,0,0-.59,0,8.41,8.41,0,0,0-1,2.09c-1,4.31-1.44,8.76-2.82,12.93-1.31,4-3.63,7.59-5.3,11.46a74.25,74.25,0,0,0-5.81,33.7c.29,5.63-1.63,10.14-4.85,14.58-3,4.11-5.3,8.72-7.95,13.08a39.8,39.8,0,0,1-4.05,6.17c-9.89,10.87-19.89,21.63-29.88,32.4-7.24,7.81-13.87,16-18.78,25.58-8.35,16.29-16.45,32.62-18.84,51.09-.33,2.54-.85,5.28-3.75,6.2-3.43,1.08-7,1.53-10.17-.73a13,13,0,0,0-8.35-2.2c-3.23.13-5.72,1.87-6,5.05-.29,3.46.2,7,.35,10.5.17,4.32,2.61,6.64,6.64,7.66,6.58,1.68,13.26,1.58,20,1.29a2.8,2.8,0,0,0,1.62-1c2.21-2.57,5.14-3,8.24-1.14l-.86.48c2.63,0,5.11.09,7.58,0a23.23,23.23,0,0,0,4.42-.82c6.58-1.63,8.88-5.31,7.71-12a37.19,37.19,0,0,1-.24-14.11c2.06-10,4.36-20,8-29.58,3.48-9,8.89-16.32,17.66-20.85,4.88-2.52,9.7-5.19,14.54-7.79,3.76-2,7-4.71,8.36-8.81,2.06-6.38,3.49-12.89,2.13-19.73a38,38,0,0,1-.75-9.39c.16-2.9.26-5.65-.91-8.39s-1.84-5.43-.62-8.09c.68-1.5,2.08-3.2,3.51-3.61.94-.27,2.76,1.36,3.71,2.54a53.16,53.16,0,0,1,3.54,5.76c.8,1.33,1.78,1.59,3.41,1.21,3.79-.88,7.68-1.34,11.51-2.09a4.05,4.05,0,0,0,2.25-1.34,37.38,37.38,0,0,0,2.46-3.84.35.35,0,0,1,.65.13,11.63,11.63,0,0,1,0,3.38c-.26,2.48.1,5,2.45,6.09a12.47,12.47,0,0,1,5,4.72c1.27,1.85,1.71,3.43.61,5.38a4.1,4.1,0,0,0-.71,1.63,22.44,22.44,0,0,1-2.84,9.75c-2.74,5.37-2.34,11.26-.5,16.91,3.61,11.11,4.89,22.38,1.82,33.75a102.8,102.8,0,0,0-3.45,29.19c.11,4.89.57,9.82.19,14.68A19.83,19.83,0,0,0,225,298.55a3.66,3.66,0,0,0,3.35,2,3.51,3.51,0,0,1,3.81,4c-.28,2.77,0,3.14,2.66,3.51a8.83,8.83,0,0,0,3.59-.07,33.81,33.81,0,0,1,10.4-1.23c3.35,0,4.18-1.49,2.66-4.61-2-4.13-5.61-6.27-10-6.91a5.82,5.82,0,0,1-4.43-2.66c-3-4.77-5.22-9.85-5.43-15.55-.39-10.32-.61-20.63-1-30.94a8.12,8.12,0,0,1,1.6-5c3.3-5.1,6.87-10.1,9.51-15.55,5-10.39,7.94-21.56,10.6-32.75,2.21-9.26,4.6-18.61,3.54-28.24A205.46,205.46,0,0,0,252,139.48c-2.34-9.87.35-17.57,7.74-24a46.63,46.63,0,0,1,4.69-3.88c7.6-5.1,10.92-12.27,10.61-21.32a3.94,3.94,0,0,0-5-3.83c-4.48,1-9,2-13.39,3.28-3.61,1-6.73.64-9.6-1.82a17.36,17.36,0,0,0-9.34-4c-4.15-.48-8.26-1.31-12.4-1.71-2.55-.25-4-1.28-4.43-3.83s-1.06-5.31-1.68-8c-.29-1.22-.83-2.38-1.23-3.57l-.68,0c-1.2,2.45-2.39,4.9-3.62,7.43"/></clipPath><linearGradient id="linear-gradient-3" x1="5827.94" y1="752.63" x2="5828.97" y2="752.63" gradientTransform="matrix(0, 206.04, 206.04, 0, -154894.46, -1200724.53)" gradientUnits="userSpaceOnUse"><stop offset="0" stop-color="#172462"/><stop offset="0.49" stop-color="#278dc7"/><stop offset="1" stop-color="#172462"/></linearGradient><clipPath id="clip-path-4"><path class="cls-1" d="M200.86,293c-1.75.27-3.78-.07-5.21.73-2.09,1.16-3.76,3.08-6.15,5.14a21.11,21.11,0,0,1,3-.36,59.34,59.34,0,0,1,8.45.71,3.66,3.66,0,0,1,3.07,4.33c-.45,2-2,2.38-3.64,2.46a32.57,32.57,0,0,1-6-.28c-2.69-.39-4.87.48-5.24,2.23,6.61,2.06,13.38,1.24,20.11,1,.36,0,.92-.88,1-1.39.27-2.66.06-5.17-1.86-7.37a28.43,28.43,0,0,1-3.2-4.87,3.85,3.85,0,0,0-3.52-2.37,5.93,5.93,0,0,0-.83.07"/></clipPath><linearGradient id="linear-gradient-4" x1="5827.94" y1="752.63" x2="5828.97" y2="752.63" gradientTransform="matrix(0, 206.04, 206.04, 0, -154874.71, -1200724.53)" xlink:href="#linear-gradient-3"/></defs><g id="Layer_2" data-name="Layer 2"><g id="레이어_1" data-name="레이어 1"><g class="cls-2"><rect class="cls-3" width="309.14" height="375.43"/></g><g class="cls-4"><rect class="cls-5" x="101.44" y="25.51" width="288.3" height="344.43"/></g><g class="cls-6"><rect class="cls-7" x="83.56" y="66.77" width="191.78" height="241.58"/></g><g class="cls-8"><rect class="cls-9" x="189.18" y="292.96" width="21.36" height="17.08"/></g><path class="cls-10" d="M408.1,112.88V105l11.52-12.57c1.09-1.16,2.26-2.43,3.5-3.79a46.66,46.66,0,0,0,3.42-4.24,24.43,24.43,0,0,0,2.57-4.53,11.91,11.91,0,0,0,1-4.74c0-2.78-.74-4.83-2.23-6.18A8.5,8.5,0,0,0,422,67a20.54,20.54,0,0,0-5.61.8q-2.86.81-6.21,1.9v-9q2.29-.79,5.28-1.71A22.14,22.14,0,0,1,422,58a24,24,0,0,1,7,1,16.36,16.36,0,0,1,5.87,3.17,15.61,15.61,0,0,1,4,5.37,18,18,0,0,1,1.49,7.6,15.3,15.3,0,0,1-1.09,5.51,35.88,35.88,0,0,1-2.67,5.52,46.87,46.87,0,0,1-3.53,5.15q-1.93,2.45-3.72,4.41L421.93,104h17.4a1.78,1.78,0,0,1,1.9,1.17,13.41,13.41,0,0,1,0,6.58,1.79,1.79,0,0,1-1.9,1.16Z"/><path class="cls-10" d="M484.25,94a1.78,1.78,0,0,1,1.9,1.13,13.09,13.09,0,0,1,0,6.5,1.77,1.77,0,0,1-1.9,1.13H480v8.62a1.66,1.66,0,0,1-1.3,1.72,17.13,17.13,0,0,1-7.36,0,1.62,1.62,0,0,1-1.3-1.64v-8.7h-21.5v-8L468,59.06h12V94Zm-14.2,0V73.88L459.27,94Z"/><path class="cls-10" d="M525.46,103.68q-1.79-1.61-3.68-3.51c-1.27-1.26-2.49-2.59-3.65-4a51.45,51.45,0,0,1-3.27-4.35,32.52,32.52,0,0,1-2.57-4.53,31.82,31.82,0,0,1-2.86,4.9q-1.76,2.48-3.72,4.74c-1.31,1.51-2.67,2.92-4,4.24s-2.71,2.46-4,3.43a2.2,2.2,0,0,1-2.3.29,9.72,9.72,0,0,1-2.83-2.19,11.76,11.76,0,0,1-2-2.59A1.7,1.7,0,0,1,491,98a69,69,0,0,0,5.65-5.58A51.29,51.29,0,0,0,501.62,86a33.4,33.4,0,0,0,3.5-6.86,20.9,20.9,0,0,0,1.3-7.2V60.74H517v11.1A19.69,19.69,0,0,0,518.35,79a38.32,38.32,0,0,0,3.5,6.83A48.18,48.18,0,0,0,526.57,92c1.74,1.92,3.42,3.64,5.06,5.15q1.11,1,.63,2a12.1,12.1,0,0,1-2.12,2.66,18.24,18.24,0,0,1-2.53,2.16A1.65,1.65,0,0,1,525.46,103.68Zm22.08,13.07a1.67,1.67,0,0,1-1.33,1.68,12.9,12.9,0,0,1-3.87.44,13.42,13.42,0,0,1-3.72-.4,1.63,1.63,0,0,1-1.34-1.64V56.43h10.26Z"/><path class="cls-10" d="M517.55,165.21a28.92,28.92,0,0,1-2.07,11,30.47,30.47,0,0,1-5.67,9.06,32.28,32.28,0,0,1-8.49,6.67,36.24,36.24,0,0,1-10.57,3.84V211h42q2.52,0,3.21,1.89a17,17,0,0,1,.69,5.54,16.39,16.39,0,0,1-.69,5.47c-.46,1.21-1.53,1.82-3.21,1.82H428.58V211h44.8V195.67a38.32,38.32,0,0,1-10.5-4,30.66,30.66,0,0,1-8.31-6.67,31.53,31.53,0,0,1-5.48-8.93,30.53,30.53,0,0,1,.76-23.6,29.91,29.91,0,0,1,7.61-9.94,35,35,0,0,1,11.27-6.42,42,42,0,0,1,27.18,0,35,35,0,0,1,11.26,6.42,30.07,30.07,0,0,1,7.62,9.94A29.17,29.17,0,0,1,517.55,165.21Zm-17.36,0a16.94,16.94,0,0,0-1.32-6.73,16,16,0,0,0-3.72-5.35,17,17,0,0,0-5.66-3.52,21.06,21.06,0,0,0-14.35,0,17,17,0,0,0-5.66,3.52,15.78,15.78,0,0,0-3.71,5.35,17.82,17.82,0,0,0,0,13.46,15.78,15.78,0,0,0,3.71,5.35,17,17,0,0,0,5.66,3.53,21.22,21.22,0,0,0,14.35,0,17,17,0,0,0,5.66-3.53,16,16,0,0,0,3.72-5.35A16.87,16.87,0,0,0,500.19,165.21Z"/><path class="cls-10" d="M606.4,130.85h16.36V232.29a2.58,2.58,0,0,1-2.08,2.64,29.56,29.56,0,0,1-12.14,0,2.59,2.59,0,0,1-2.14-2.64V179.81H592.68c-.5,1.18-1,2.31-1.57,3.4a29.5,29.5,0,0,1-1.82,3.14,87.77,87.77,0,0,1-6.17,8.44,99.21,99.21,0,0,1-7.49,8.11q-4,3.84-7.93,7.24c-2.64,2.26-5.09,4.24-7.36,5.91a12.72,12.72,0,0,1-1.76.95,2.37,2.37,0,0,1-1.7,0,6.33,6.33,0,0,1-2.08-1.32,23.42,23.42,0,0,1-2.76-3.15,40.15,40.15,0,0,1-3.59-4.78c-.46-.84-.15-1.68.94-2.52q7.3-5.65,14.1-11.89a66,66,0,0,0,11-12.65H551.15V166.22H581a25.94,25.94,0,0,0,.82-3.15c.21-1.09.39-2.16.56-3.21s.3-2,.38-2.89.13-1.58.13-2.08c0-1.42-.68-2.14-2-2.14h-29.7V138.28h33.1a7.09,7.09,0,0,1,5.1,2.14,67.73,67.73,0,0,1,5,5.54,22.54,22.54,0,0,1,3.27,5.53,12.51,12.51,0,0,1,.88,4.28,41,41,0,0,1-.25,4.47c-.17,1.56-.42,3.17-.76,4.85h8.94Zm41.53,102.57a2.69,2.69,0,0,1-2.2,2.77,23.86,23.86,0,0,1-6.23.63,23.26,23.26,0,0,1-6.11-.63,2.69,2.69,0,0,1-2.2-2.77V129.6h16.74Z"/><path class="cls-10" d="M663.53,172.38a36.4,36.4,0,0,1,2.39-13.46A29.76,29.76,0,0,1,683,141.8a37.73,37.73,0,0,1,26.43,0,30.25,30.25,0,0,1,10.38,6.74,30.86,30.86,0,0,1,6.79,10.38,38.08,38.08,0,0,1,0,26.93,30.86,30.86,0,0,1-6.79,10.38A30.08,30.08,0,0,1,709.47,203,37.58,37.58,0,0,1,683,203a29.7,29.7,0,0,1-17.12-17.11A36.38,36.38,0,0,1,663.53,172.38Zm48.58,0q0-8.43-4.47-13.46a15.4,15.4,0,0,0-22.77,0c-3,3.36-4.47,7.84-4.47,13.46s1.48,10.22,4.47,13.53a15.53,15.53,0,0,0,22.77,0Q712.11,180.95,712.11,172.38Zm46.06,61.17a2.89,2.89,0,0,1-2.27,2.89,21.85,21.85,0,0,1-6.54.76,22.43,22.43,0,0,1-6.29-.7,2.79,2.79,0,0,1-2.27-2.83V129.6h17.37Z"/><path class="cls-10" d="M808.63,142.18v10.2c0,1.93.93,2.89,2.77,2.89h52.73a2.63,2.63,0,0,1,2.77,1.7,16,16,0,0,1,.63,5.22,16.56,16.56,0,0,1-.63,5.35,2.63,2.63,0,0,1-2.77,1.7h-26v10.07h42c1.68,0,2.75.54,3.21,1.63a14.72,14.72,0,0,1,.69,5.29,14.14,14.14,0,0,1-.69,5.22c-.46,1.05-1.53,1.57-3.21,1.57H775.91V179.31h44.8V169.24H807.5a10.66,10.66,0,0,1-5.54-1.89,29.15,29.15,0,0,1-5.16-4,31.19,31.19,0,0,1-3.65-4.72,8.74,8.74,0,0,1-1.63-4.46V128.21h71.35a2.63,2.63,0,0,1,2.77,1.7,16.07,16.07,0,0,1,.63,5.22,16.56,16.56,0,0,1-.63,5.35,2.62,2.62,0,0,1-2.77,1.7Zm53.61,80.29A20,20,0,0,1,859.47,233a24.17,24.17,0,0,1-7.36,7.68,34.81,34.81,0,0,1-10.5,4.65,49.24,49.24,0,0,1-24.67,0,34.76,34.76,0,0,1-10.51-4.65,24.28,24.28,0,0,1-7.36-7.68,21.32,21.32,0,0,1,0-21,24.14,24.14,0,0,1,7.36-7.67,34.53,34.53,0,0,1,10.51-4.66,49.24,49.24,0,0,1,24.67,0,34.58,34.58,0,0,1,10.5,4.66,24,24,0,0,1,7.36,7.67A20,20,0,0,1,862.24,222.47Zm-17.11,0a8.66,8.66,0,0,0-4.41-7.61Q836.33,212,829.4,212q-7.17,0-11.58,2.83a8.78,8.78,0,0,0,0,15.22q4.41,2.83,11.58,2.84,6.92,0,11.32-2.84A8.65,8.65,0,0,0,845.13,222.47Z"/><path class="cls-10" d="M997.53,173.39a2.87,2.87,0,0,1,2.83,1.37,12.39,12.39,0,0,1,.69,5,11.83,11.83,0,0,1-.69,4.92,2.91,2.91,0,0,1-2.83,1.31H955.12v8.68h24.41c1.93,0,3.29.38,4.09,1.13s1.2,2.06,1.2,3.9v25.93H925v3.9c0,1.26.59,1.89,1.76,1.89h57.76a2.31,2.31,0,0,1,2.52,1.57,23.72,23.72,0,0,1,0,9.69,2.31,2.31,0,0,1-2.52,1.57h-63.3a8.43,8.43,0,0,1-4.34-1.32,20.38,20.38,0,0,1-4-3.08,31.54,31.54,0,0,1-3.59-4.22,6.88,6.88,0,0,1-1.45-3.84V213H967.7V207.5H907.92V194.66h29.83V186H893V173.39Zm-89-45.18h75.64v29.07q0,4.41-2,6.55c-1.3,1.42-3.55,2.14-6.74,2.14H921a6.57,6.57,0,0,1-3.52-1.58,43.73,43.73,0,0,1-4-3.33,38.59,38.59,0,0,1-3.52-4,5.77,5.77,0,0,1-1.39-3.46Zm17,22.15c0,1.6.72,2.39,2.14,2.39H967.2V141.43H925.54Z"/><path class="cls-10" d="M1082.35,205.86c1.67,0,2.74.63,3.2,1.89a16.64,16.64,0,0,1,.7,5.53,16.11,16.11,0,0,1-.7,5.48c-.46,1.22-1.53,1.82-3.2,1.82h-71.74V205.86Zm-4.79-42a25.09,25.09,0,0,1-2.58,11.26,30,30,0,0,1-6.92,9.12,32.19,32.19,0,0,1-10.07,6.11,33.44,33.44,0,0,1-12.14,2.2,34,34,0,0,1-12.21-2.2,32.14,32.14,0,0,1-10.13-6.11,29.3,29.3,0,0,1-6.86-9.12,26.53,26.53,0,0,1,0-22.53,29.3,29.3,0,0,1,6.86-9.12,32.12,32.12,0,0,1,10.13-6.1,34,34,0,0,1,12.21-2.21,33.45,33.45,0,0,1,12.14,2.21,32.17,32.17,0,0,1,10.07,6.1,30,30,0,0,1,6.92,9.12A25.13,25.13,0,0,1,1077.56,163.83Zm-17.11,0a14,14,0,0,0-4.09-9.88,15.19,15.19,0,0,0-4.66-3.15,15.12,15.12,0,0,0-11.76,0,15.4,15.4,0,0,0-4.6,3.15,14,14,0,0,0,0,19.76,15.38,15.38,0,0,0,4.6,3.14,15,15,0,0,0,11.76,0,15.17,15.17,0,0,0,4.66-3.14,14,14,0,0,0,4.09-9.88ZM1108,233.55a2.89,2.89,0,0,1-2.27,2.89,21.85,21.85,0,0,1-6.54.76,22.43,22.43,0,0,1-6.29-.7,2.79,2.79,0,0,1-2.27-2.83V129.6H1108Z"/><path class="cls-10" d="M1231,211q2.52,0,3.21,1.89a17,17,0,0,1,.69,5.54,16.39,16.39,0,0,1-.69,5.47c-.46,1.21-1.53,1.82-3.21,1.82H1127V211h28.06v-11.7a14.49,14.49,0,0,1-4-2.4,34.09,34.09,0,0,1-3.65-3.39,34.94,34.94,0,0,1-3.65-4.34,7.88,7.88,0,0,1-1.76-4.47V161.44h59.52V151H1142V137h70.34a6.21,6.21,0,0,1,4.35,1.45,5.63,5.63,0,0,1,1.57,4.34V175.4h-59.53v8.06a2.4,2.4,0,0,0,.51,1.82,2.18,2.18,0,0,0,1.51.44h57.63c1.68,0,2.75.57,3.21,1.7a15.24,15.24,0,0,1,.7,5.35,14.63,14.63,0,0,1-.7,5.29c-.46,1.09-1.53,1.63-3.21,1.63h-11.83V211Zm-59.15,0h18.12V199.69h-18.12Z"/><path class="cls-10" d="M1286.47,189.12a50.85,50.85,0,0,1-4-4.28c-1.43-1.67-2.85-3.48-4.28-5.41s-2.79-3.92-4.09-6-2.45-4.1-3.46-6.11a57.56,57.56,0,0,1-3.33,6.8c-1.31,2.26-2.67,4.42-4.1,6.48s-2.89,4-4.4,5.79-2.94,3.38-4.28,4.71-2.41,1.81-3.46,1.64-2.75-1.3-5.1-3.4c-.92-.75-1.74-1.44-2.45-2.07a7.38,7.38,0,0,1-1.57-1.83,2.81,2.81,0,0,1-.38-1.82,4.12,4.12,0,0,1,1.13-2.08,104.42,104.42,0,0,0,7-8.62,76.65,76.65,0,0,0,5.79-9.19,50.56,50.56,0,0,0,4-9.62,35.72,35.72,0,0,0,1.45-10.2V131.86h17.74v11.83a29.57,29.57,0,0,0,2,10.51,62.11,62.11,0,0,0,4.91,10.19,74.12,74.12,0,0,0,6.1,8.81c2.14,2.64,4,4.81,5.6,6.48,1.09,1.18,1.32,2.29.69,3.34a19.33,19.33,0,0,1-3.59,4c-2.26,2-3.86,3.17-4.78,3.46S1287.64,190.3,1286.47,189.12Zm58.89,39.64a2.54,2.54,0,0,1,2.71,2,19.32,19.32,0,0,1,.56,5.23,18.37,18.37,0,0,1-.56,5.28,2.52,2.52,0,0,1-2.71,1.76h-59.77a10.64,10.64,0,0,1-5.48-1.82,24.58,24.58,0,0,1-5-4,21.82,21.82,0,0,1-3.71-4.6,8.88,8.88,0,0,1-1.58-4.34v-26.8H1287V226c0,1.84,1,2.76,2.89,2.76Zm-54.87-65.31V148.72h15.23V129.6h16.11v73.62a2.65,2.65,0,0,1-2,2.77,29.39,29.39,0,0,1-12,0,2.66,2.66,0,0,1-2.08-2.77V163.45Zm39.39-35.11h16.49v76.13a2.66,2.66,0,0,1-2.14,2.77,23.09,23.09,0,0,1-6.17.63,22.47,22.47,0,0,1-6-.63,2.66,2.66,0,0,1-2.14-2.77Z"/><path class="cls-10" d="M1379.72,152.38v15.35h32.34a2.64,2.64,0,0,1,2.77,1.89,17.89,17.89,0,0,1,.63,5.41,18.42,18.42,0,0,1-.63,5.53,2.64,2.64,0,0,1-2.77,1.89h-32.34v12.34c0,1.93.92,2.89,2.76,2.89h38.64a2.64,2.64,0,0,1,2.77,1.89,17.89,17.89,0,0,1,.63,5.41,18.54,18.54,0,0,1-.63,5.54,2.64,2.64,0,0,1-2.77,1.88h-42.79a10.73,10.73,0,0,1-5.54-1.88,28.7,28.7,0,0,1-5.15-4,31.92,31.92,0,0,1-3.65-4.66,8.33,8.33,0,0,1-1.64-4.4V137.65H1414a2.62,2.62,0,0,1,2.76,1.89,17.94,17.94,0,0,1,.63,5.41,18.54,18.54,0,0,1-.63,5.54,2.62,2.62,0,0,1-2.76,1.89Zm76.89,81.17a2.89,2.89,0,0,1-2.27,2.89,21.85,21.85,0,0,1-6.54.76,22.43,22.43,0,0,1-6.29-.7,2.79,2.79,0,0,1-2.27-2.83V179.81H1422V165.09h17.24V129.6h17.37Z"/><path class="cls-11" d="M427.57,293.8a29.82,29.82,0,0,1,1.67-10.18,23.43,23.43,0,0,1,4.68-7.93,20.89,20.89,0,0,1,7.14-5.11,22.23,22.23,0,0,1,9-1.8,22,22,0,0,1,8.94,1.8,21,21,0,0,1,7.11,5.11,23.43,23.43,0,0,1,4.68,7.93,32.11,32.11,0,0,1,0,20.44,23.15,23.15,0,0,1-4.68,7.89A21.3,21.3,0,0,1,459,317a22,22,0,0,1-8.94,1.8,22.23,22.23,0,0,1-9-1.8,21.22,21.22,0,0,1-7.14-5.08,23.15,23.15,0,0,1-4.68-7.89A30.08,30.08,0,0,1,427.57,293.8Zm35.83,0a24.91,24.91,0,0,0-.82-6.48,16.53,16.53,0,0,0-2.49-5.44,12.28,12.28,0,0,0-4.16-3.73,11.8,11.8,0,0,0-5.83-1.38,12.37,12.37,0,0,0-6,1.38,12.11,12.11,0,0,0-4.22,3.73,16.53,16.53,0,0,0-2.49,5.44,24.91,24.91,0,0,0-.82,6.48,25.17,25.17,0,0,0,.82,6.55,16.1,16.1,0,0,0,2.49,5.41,12,12,0,0,0,10.18,5.07,11.8,11.8,0,0,0,5.83-1.37,12.51,12.51,0,0,0,4.16-3.7,16.1,16.1,0,0,0,2.49-5.41A25.17,25.17,0,0,0,463.4,293.8Z"/><path class="cls-11" d="M487.57,316.66a1.49,1.49,0,0,1-1.21,1.54,15.4,15.4,0,0,1-6.62,0,1.46,1.46,0,0,1-1.21-1.47v-47h9v20.57h3.34l13.63-20.57h10.09l-16.32,24.1L517.25,318H506.77l-15.66-19.71h-3.54Z"/><path class="cls-11" d="M528.64,318h-9.17l17.75-48.27h6.95L561.85,318h-9.23l-3.28-9.69H532.12Zm6.16-17.68h11.79l-5.76-16.58Z"/><path class="cls-11" d="M578.43,289.42l10.41-19.72h10l-16,28.36v18.6a1.49,1.49,0,0,1-1.21,1.54,15.4,15.4,0,0,1-6.62,0,1.46,1.46,0,0,1-1.21-1.47V298.06l-16-28.36h10Z"/><path class="cls-11" d="M630.63,318h-9.17l17.76-48.27h6.94L663.85,318h-9.24l-3.28-9.69H634.11Zm6.16-17.68h11.79l-5.76-16.58Z"/><path class="cls-11" d="M668.62,269.7H679.3l18.28,33.14V269.7h8.91V318h-9.57l-19.39-33.4v32.09a1.48,1.48,0,0,1-1.18,1.54,15,15,0,0,1-6.54,0,1.46,1.46,0,0,1-1.19-1.47Z"/><path class="cls-11" d="M732.82,269.7a1.58,1.58,0,0,1,1.67,1,8.81,8.81,0,0,1,.36,2.88,9.46,9.46,0,0,1-.36,2.95,1.57,1.57,0,0,1-1.67,1.05h-4.19v32.56h4.19a1.56,1.56,0,0,1,1.67,1,12,12,0,0,1,0,5.83,1.56,1.56,0,0,1-1.67,1H713.89v-7.85h5.83V277.56h-5.83V269.7Z"/><path class="cls-11" d="M764.59,308.93a6.38,6.38,0,0,1-3.6-1,5.39,5.39,0,0,1-2.16-2.68l-8.33-20H750c.13,1.18.25,2.44.36,3.8s.16,2.66.16,3.93v23.64a1.49,1.49,0,0,1-1.17,1.54,11.75,11.75,0,0,1-3.28.36,11.62,11.62,0,0,1-3.27-.36,1.45,1.45,0,0,1-1.18-1.47v-47h10.28l12.71,29.61L777.3,269.7h10.28v47a1.45,1.45,0,0,1-1.18,1.47,15.08,15.08,0,0,1-6.55,0,1.49,1.49,0,0,1-1.18-1.54V293.15c0-.44,0-1,.07-1.67s.08-1.38.13-2.1.1-1.44.16-2.16.12-1.36.17-1.93h-.53l-8.32,20a5.44,5.44,0,0,1-2.16,2.68A6.38,6.38,0,0,1,764.59,308.93Z"/><path class="cls-11" d="M801.47,318H792.3l17.75-48.27H817L834.68,318h-9.24l-3.27-9.69H804.94Zm6.16-17.68h11.79l-5.77-16.58Z"/><path class="cls-11" d="M847.84,318a5.39,5.39,0,0,1-2.88-1,16.73,16.73,0,0,1-2.68-2.13,11.45,11.45,0,0,1-2-2.46,5,5,0,0,1-.85-2.52V269.7h9v38.84a1.45,1.45,0,0,0,.36,1.15,2,2,0,0,0,1.21.29h19.85a1.57,1.57,0,0,1,1.67,1,12.27,12.27,0,0,1,0,5.9,1.57,1.57,0,0,1-1.67,1Z"/><path class="cls-11" d="M921,308.93a6.44,6.44,0,0,1-3.61-1,5.5,5.5,0,0,1-2.16-2.68l-8.32-20h-.52c.13,1.18.25,2.44.36,3.8s.16,2.66.16,3.93v23.64a1.48,1.48,0,0,1-1.18,1.54,11.62,11.62,0,0,1-3.27.36,11.75,11.75,0,0,1-3.28-.36,1.45,1.45,0,0,1-1.17-1.47v-47h10.28L921,299.31l12.71-29.61h10.28v47a1.45,1.45,0,0,1-1.18,1.47,15.08,15.08,0,0,1-6.55,0,1.48,1.48,0,0,1-1.18-1.54V293.15c0-.44,0-1,.07-1.67s.08-1.38.13-2.1.09-1.44.16-2.16.12-1.36.16-1.93H935l-8.32,20a5.44,5.44,0,0,1-2.16,2.68A6.43,6.43,0,0,1,921,308.93Z"/><path class="cls-11" d="M959.66,318a5.39,5.39,0,0,1-2.88-1,16.4,16.4,0,0,1-2.69-2.13,11.41,11.41,0,0,1-2-2.46,5,5,0,0,1-.85-2.52V269.7h31.11a1.57,1.57,0,0,1,1.67,1.05,12.23,12.23,0,0,1,0,5.89,1.57,1.57,0,0,1-1.67,1.05H960.31V289h20.57a1.56,1.56,0,0,1,1.67,1.05,12.23,12.23,0,0,1,0,5.89,1.56,1.56,0,0,1-1.67,1.05H960.31V308.8a1,1,0,0,0,.37.95,1.65,1.65,0,0,0,1,.23h21.22a1.57,1.57,0,0,1,1.67,1,12.27,12.27,0,0,1,0,5.9,1.57,1.57,0,0,1-1.67,1Z"/><path class="cls-11" d="M999.29,318a5.39,5.39,0,0,1-2.88-1,16.4,16.4,0,0,1-2.69-2.13,11.41,11.41,0,0,1-2-2.46,5,5,0,0,1-.85-2.52V269.7h17.22a23.52,23.52,0,0,1,9.21,1.73,19.4,19.4,0,0,1,6.91,4.88,21.68,21.68,0,0,1,4.32,7.6,33.37,33.37,0,0,1,0,19.85,21.68,21.68,0,0,1-4.32,7.6,19.4,19.4,0,0,1-6.91,4.88,23.34,23.34,0,0,1-9.21,1.73Zm9.1-8a12.31,12.31,0,0,0,5.74-1.24,11,11,0,0,0,3.93-3.44,15.22,15.22,0,0,0,2.26-5.14,26.75,26.75,0,0,0,.72-6.36,26.46,26.46,0,0,0-.72-6.29,14.84,14.84,0,0,0-2.26-5.1,11.24,11.24,0,0,0-3.93-3.44,12.07,12.07,0,0,0-5.74-1.28H1000v31.05a1.09,1.09,0,0,0,1.24,1.24Z"/><path class="cls-11" d="M1055.1,269.7a1.58,1.58,0,0,1,1.67,1,8.81,8.81,0,0,1,.36,2.88,9.46,9.46,0,0,1-.36,2.95,1.57,1.57,0,0,1-1.67,1.05h-4.19v32.56h4.19a1.56,1.56,0,0,1,1.67,1,12,12,0,0,1,0,5.83,1.56,1.56,0,0,1-1.67,1h-18.93v-7.85H1042V277.56h-5.83V269.7Z"/><path class="cls-11" d="M1087.39,318.83a27.68,27.68,0,0,1-10.57-1.9,22.07,22.07,0,0,1-7.8-5.28,22.43,22.43,0,0,1-4.82-8,29.38,29.38,0,0,1-1.63-9.95,27.13,27.13,0,0,1,2-10.91A22.09,22.09,0,0,1,1078,270.35a28.71,28.71,0,0,1,9.43-1.57,27.83,27.83,0,0,1,7.11.85,25.2,25.2,0,0,1,5.47,2.1,2.68,2.68,0,0,1,1.34,1.47,5.38,5.38,0,0,1-.75,3,7.31,7.31,0,0,1-1.67,2.59,2,2,0,0,1-1.87.1c-1.66-.61-3.21-1.12-4.65-1.51a18.83,18.83,0,0,0-4.91-.59,15.59,15.59,0,0,0-6.45,1.31,15.14,15.14,0,0,0-5,3.6,16.34,16.34,0,0,0-3.25,5.38,19.08,19.08,0,0,0-1.14,6.68,20.47,20.47,0,0,0,1.08,6.68,15.76,15.76,0,0,0,3.11,5.44,14.51,14.51,0,0,0,5,3.63,15.85,15.85,0,0,0,6.68,1.34,18.85,18.85,0,0,0,4.91-.58q2.16-.6,4.65-1.51a2.05,2.05,0,0,1,1.9-.1,6.25,6.25,0,0,1,1.7,2.72,18.54,18.54,0,0,1,.66,1.9,2.39,2.39,0,0,1,.1,1.14,1.33,1.33,0,0,1-.46.73,7.49,7.49,0,0,1-1,.62,24.27,24.27,0,0,1-5.44,2.19A26.36,26.36,0,0,1,1087.39,318.83Z"/><path class="cls-11" d="M1114.25,318h-9.17l17.75-48.27h6.94L1147.46,318h-9.24l-3.27-9.69h-17.23Zm6.16-17.68h11.79l-5.77-16.58Z"/><path class="cls-11" d="M1160.63,318a5.4,5.4,0,0,1-2.89-1,16.73,16.73,0,0,1-2.68-2.13,11.45,11.45,0,0,1-2-2.46,5.06,5.06,0,0,1-.85-2.52V269.7h9v38.84a1.45,1.45,0,0,0,.36,1.15,2,2,0,0,0,1.21.29h19.85a1.56,1.56,0,0,1,1.67,1,12.27,12.27,0,0,1,0,5.9,1.56,1.56,0,0,1-1.67,1Z"/><path class="cls-11" d="M1234.25,318.83a27.77,27.77,0,0,1-10.58-1.9,21.85,21.85,0,0,1-12.6-13.24,29.13,29.13,0,0,1-1.64-9.95,27.13,27.13,0,0,1,2-10.91,22,22,0,0,1,13.36-12.48,28.71,28.71,0,0,1,9.43-1.57,27.83,27.83,0,0,1,7.11.85,25.2,25.2,0,0,1,5.47,2.1,2.68,2.68,0,0,1,1.34,1.47c.16.55-.1,1.54-.75,3a7.31,7.31,0,0,1-1.67,2.59,2,2,0,0,1-1.87.1c-1.66-.61-3.21-1.12-4.65-1.51a18.83,18.83,0,0,0-4.91-.59,15.59,15.59,0,0,0-6.45,1.31,15.29,15.29,0,0,0-5,3.6,16.49,16.49,0,0,0-3.24,5.38,19.08,19.08,0,0,0-1.14,6.68,20.47,20.47,0,0,0,1.08,6.68,15.76,15.76,0,0,0,3.11,5.44,14.51,14.51,0,0,0,5,3.63,15.85,15.85,0,0,0,6.68,1.34,18.85,18.85,0,0,0,4.91-.58q2.16-.6,4.65-1.51a2.05,2.05,0,0,1,1.9-.1,6.25,6.25,0,0,1,1.7,2.72,18.54,18.54,0,0,1,.66,1.9,2.52,2.52,0,0,1,.1,1.14,1.33,1.33,0,0,1-.46.73,7.49,7.49,0,0,1-1,.62,24.27,24.27,0,0,1-5.44,2.19A26.31,26.31,0,0,1,1234.25,318.83Z"/><path class="cls-11" d="M1262.94,318a5.39,5.39,0,0,1-2.88-1,16.3,16.3,0,0,1-2.68-2.13,11.45,11.45,0,0,1-2-2.46,5,5,0,0,1-.85-2.52V269.7h31.11a1.56,1.56,0,0,1,1.67,1.05,12.23,12.23,0,0,1,0,5.89,1.56,1.56,0,0,1-1.67,1.05H1263.6V289h20.57a1.57,1.57,0,0,1,1.67,1.05,12.23,12.23,0,0,1,0,5.89,1.57,1.57,0,0,1-1.67,1.05H1263.6V308.8a1,1,0,0,0,.36.95,1.69,1.69,0,0,0,1,.23h21.22a1.57,1.57,0,0,1,1.67,1,12.27,12.27,0,0,1,0,5.9,1.57,1.57,0,0,1-1.67,1Z"/><path class="cls-11" d="M1294.19,269.7h10.68l18.27,33.14V269.7h8.91V318h-9.56l-19.39-33.4v32.09a1.49,1.49,0,0,1-1.18,1.54,15.08,15.08,0,0,1-6.55,0,1.45,1.45,0,0,1-1.18-1.47Z"/><path class="cls-11" d="M1337.81,269.7H1372a1.57,1.57,0,0,1,1.67,1.05,12.23,12.23,0,0,1,0,5.89,1.57,1.57,0,0,1-1.67,1.05h-12v39a1.49,1.49,0,0,1-1.21,1.54,15.4,15.4,0,0,1-6.62,0,1.46,1.46,0,0,1-1.21-1.47v-39h-13.17Z"/><path class="cls-11" d="M1387.47,318a5.34,5.34,0,0,1-2.88-1,16.4,16.4,0,0,1-2.69-2.13,11.76,11.76,0,0,1-2-2.46,5,5,0,0,1-.85-2.52V269.7h31.11a1.57,1.57,0,0,1,1.68,1.05,12.23,12.23,0,0,1,0,5.89,1.57,1.57,0,0,1-1.68,1.05h-22.07V289h20.57a1.57,1.57,0,0,1,1.67,1.05,12.23,12.23,0,0,1,0,5.89,1.57,1.57,0,0,1-1.67,1.05h-20.57V308.8a1,1,0,0,0,.36.95,1.69,1.69,0,0,0,1,.23h21.22a1.57,1.57,0,0,1,1.68,1,12.27,12.27,0,0,1,0,5.9,1.58,1.58,0,0,1-1.68,1Z"/><path class="cls-11" d="M1427.75,316.66a1.49,1.49,0,0,1-1.21,1.54,15.4,15.4,0,0,1-6.62,0,1.46,1.46,0,0,1-1.21-1.47v-47H1438a22.34,22.34,0,0,1,7.59,1.14,13.82,13.82,0,0,1,5.15,3.18,12.21,12.21,0,0,1,2.91,4.85,19.62,19.62,0,0,1,.92,6.09,17.18,17.18,0,0,1-2.13,8.61,12.22,12.22,0,0,1-6.78,5.47L1457.62,318h-10.28l-10.81-17.75h-8.78Zm10.55-24.43c2.53,0,4.38-.6,5.53-1.8s1.74-3,1.74-5.47-.59-4.27-1.77-5.47-3.08-1.8-5.7-1.8h-10.35v14.54Z"/></g></g></svg>