<svg xmlns="http://www.w3.org/2000/svg" xmlns:xlink="http://www.w3.org/1999/xlink" viewBox="0 0 389.74 375.43"><defs><style>.cls-1{fill:none;}.cls-2{clip-path:url(#clip-path);}.cls-3{fill:url(#linear-gradient);}.cls-4{clip-path:url(#clip-path-2);}.cls-5{fill:url(#linear-gradient-2);}.cls-6{clip-path:url(#clip-path-3);}.cls-7{fill:url(#linear-gradient-3);}.cls-8{clip-path:url(#clip-path-4);}.cls-9{fill:url(#linear-gradient-4);}</style><clipPath id="clip-path"><path class="cls-1" d="M164.5,1.39c-5.12.9-10.28,1.65-15.37,2.7A182.26,182.26,0,0,0,71.38,40.42q-54,42.9-68,110.5c-1.49,7.2-2,14.61-2.92,21.91A19.06,19.06,0,0,1,0,174.78V201A16.62,16.62,0,0,1,.44,203c.35,3.6.56,7.21,1,10.79,3.31,25.53,12,49.16,25.23,71.16a187.37,187.37,0,0,0,49.29,54,189.26,189.26,0,0,0,40,22.55,177.56,177.56,0,0,0,63.41,13.69c7.14.25,14.3-.18,21.44-.43a155.44,155.44,0,0,0,34.09-5.35,188.52,188.52,0,0,0,70.83-36.13c1.16-.93,2.25-2,3.38-3l-.32-.57c-37.31,25.87-78.59,35.86-123.37,30-45-5.92-82.19-26.94-110.85-61.9A172.43,172.43,0,0,1,58.9,100.51c25.63-43.49,63.49-71.45,113-82.05,49.36-10.57,95.23-1.05,137.2,27.27a7.77,7.77,0,0,0-1.86-2.06A199.67,199.67,0,0,0,281,25.4c-17.19-9.78-35.26-17.17-54.69-21.08-5.17-1-10.38-1.88-15.57-2.82A227,227,0,0,0,186.25,0,175.75,175.75,0,0,0,164.5,1.39"/></clipPath><linearGradient id="linear-gradient" x1="5804.59" y1="783.18" x2="5805.61" y2="783.18" gradientTransform="matrix(263.98, 0, 0, -263.98, -1532301.71, 206934.92)" gradientUnits="userSpaceOnUse"><stop offset="0" stop-color="#2994ce"/><stop offset="0.02" stop-color="#2891cb"/><stop offset="0.22" stop-color="#226aa5"/><stop offset="0.43" stop-color="#1d4b88"/><stop offset="0.63" stop-color="#1a3673"/><stop offset="0.82" stop-color="#182866"/><stop offset="1" stop-color="#172462"/></linearGradient><clipPath id="clip-path-2"><path class="cls-1" d="M101.56,67.1c.83-.59,1.64-1.23,2.5-1.76,7.44-4.54,14.58-9.75,22.42-13.47A142.51,142.51,0,0,1,203,38.47a140.49,140.49,0,0,1,46,12.41A143.73,143.73,0,0,1,300.2,90.5c28.72,35.26,39.68,75.64,33.12,120.47-5.68,38.77-24.08,70.75-54.7,95.25-32.74,26.2-70.28,35.85-111.66,30a136.68,136.68,0,0,1-63.59-26.41c-.61-.46-1.29-.85-1.93-1.27,51.24,48.84,146.25,61.38,214.73,1.24,72.89-64,73.57-175.27,3.63-240.64A160.14,160.14,0,0,0,209.6,25.51c-40.54,0-79.86,15.06-108,41.59"/></clipPath><linearGradient id="linear-gradient-2" x1="5804.54" y1="783.14" x2="5805.56" y2="783.14" gradientTransform="matrix(263.29, 0, 0, -263.29, -1528132.39, 206392.87)" gradientUnits="userSpaceOnUse"><stop offset="0" stop-color="#31a6df"/><stop offset="0.24" stop-color="#31a6df"/><stop offset="0.72" stop-color="#69c6e4"/><stop offset="1" stop-color="#6bc7e3"/></linearGradient><clipPath id="clip-path-3"><path class="cls-1" d="M213.66,74.2a9,9,0,0,0-.46-1.07c-.39-.62-.8-1.22-1.21-1.83a.35.35,0,0,0-.59,0,8.41,8.41,0,0,0-1,2.09c-1,4.31-1.44,8.76-2.82,12.93-1.31,4-3.63,7.59-5.3,11.46a74.11,74.11,0,0,0-5.8,33.7c.28,5.63-1.64,10.14-4.86,14.58-3,4.11-5.3,8.72-7.95,13.08a39.8,39.8,0,0,1-4.05,6.17c-9.89,10.87-19.89,21.63-29.88,32.4-7.24,7.81-13.87,16-18.78,25.58-8.35,16.29-16.45,32.62-18.84,51.09-.33,2.54-.85,5.28-3.75,6.2-3.43,1.08-7,1.53-10.17-.73a13,13,0,0,0-8.35-2.2c-3.23.13-5.72,1.87-6,5.05-.29,3.46.2,7,.35,10.5.17,4.32,2.61,6.64,6.64,7.66,6.58,1.68,13.26,1.58,20,1.29a2.8,2.8,0,0,0,1.62-1c2.21-2.57,5.14-3,8.24-1.14l-.86.48c2.63,0,5.11.09,7.58,0a24,24,0,0,0,4.42-.81c6.58-1.64,8.88-5.32,7.71-12a37.19,37.19,0,0,1-.24-14.11c2.06-10,4.36-20,8-29.58,3.48-9,8.89-16.32,17.66-20.85,4.88-2.52,9.7-5.19,14.54-7.79,3.76-2,7-4.71,8.36-8.81,2.06-6.38,3.49-12.89,2.13-19.73a38,38,0,0,1-.75-9.39c.16-2.9.26-5.65-.91-8.39s-1.84-5.43-.62-8.09c.68-1.5,2.08-3.2,3.51-3.61.94-.27,2.76,1.36,3.71,2.54a53.16,53.16,0,0,1,3.54,5.76c.8,1.33,1.78,1.59,3.41,1.21,3.79-.88,7.68-1.34,11.51-2.09a4.05,4.05,0,0,0,2.25-1.34,37.38,37.38,0,0,0,2.46-3.84.35.35,0,0,1,.65.13,11.63,11.63,0,0,1,0,3.38c-.26,2.48.1,5,2.45,6.09a12.47,12.47,0,0,1,5,4.72c1.27,1.85,1.71,3.43.61,5.38a4.1,4.1,0,0,0-.71,1.63,22.44,22.44,0,0,1-2.84,9.75c-2.74,5.37-2.34,11.26-.5,16.91,3.61,11.11,4.89,22.38,1.82,33.75a102.8,102.8,0,0,0-3.45,29.19c.11,4.89.57,9.82.19,14.68A19.83,19.83,0,0,0,225,298.55a3.66,3.66,0,0,0,3.35,2,3.51,3.51,0,0,1,3.81,4c-.28,2.77,0,3.14,2.66,3.51a8.83,8.83,0,0,0,3.59-.07,33.81,33.81,0,0,1,10.4-1.23c3.35,0,4.18-1.49,2.66-4.61-2-4.13-5.61-6.27-10-6.91a5.82,5.82,0,0,1-4.43-2.66c-3-4.77-5.22-9.85-5.43-15.55-.39-10.32-.61-20.63-1-30.94a8.12,8.12,0,0,1,1.6-5c3.3-5.1,6.87-10.1,9.51-15.55,5-10.39,7.94-21.56,10.6-32.75,2.21-9.26,4.6-18.61,3.54-28.24A203.55,203.55,0,0,0,252,139.48c-2.34-9.87.35-17.57,7.74-24a48,48,0,0,1,4.69-3.88c7.6-5.1,10.92-12.27,10.61-21.32a3.94,3.94,0,0,0-5-3.83c-4.48,1-9,2-13.39,3.28-3.61,1-6.73.64-9.6-1.82a17.36,17.36,0,0,0-9.34-4c-4.15-.48-8.26-1.31-12.4-1.71-2.55-.25-4-1.28-4.43-3.83s-1.06-5.31-1.68-8c-.29-1.22-.83-2.38-1.23-3.57l-.68,0c-1.2,2.45-2.39,4.9-3.62,7.43"/></clipPath><linearGradient id="linear-gradient-3" x1="5827.94" y1="752.63" x2="5828.96" y2="752.63" gradientTransform="matrix(0, 206.04, 206.04, 0, -154894.46, -1200724.52)" gradientUnits="userSpaceOnUse"><stop offset="0" stop-color="#172462"/><stop offset="0.49" stop-color="#278dc7"/><stop offset="1" stop-color="#172462"/></linearGradient><clipPath id="clip-path-4"><path class="cls-1" d="M200.86,293c-1.75.27-3.78-.07-5.21.73-2.09,1.16-3.76,3.08-6.15,5.14a21.11,21.11,0,0,1,3-.36,59.34,59.34,0,0,1,8.45.71,3.66,3.66,0,0,1,3.07,4.33c-.45,2-2,2.38-3.64,2.46a32.57,32.57,0,0,1-6-.28c-2.69-.39-4.87.48-5.24,2.23,6.61,2.06,13.38,1.24,20.11,1,.36,0,.92-.88,1-1.39.27-2.66.06-5.17-1.86-7.37a28.43,28.43,0,0,1-3.2-4.87,3.85,3.85,0,0,0-3.52-2.37,5.93,5.93,0,0,0-.83.07"/></clipPath><linearGradient id="linear-gradient-4" x1="5827.94" y1="752.63" x2="5828.96" y2="752.63" gradientTransform="matrix(0, 206.04, 206.04, 0, -154874.71, -1200724.52)" xlink:href="#linear-gradient-3"/></defs><g id="Layer_2" data-name="Layer 2"><g id="레이어_1" data-name="레이어 1"><g class="cls-2"><rect class="cls-3" width="309.14" height="375.43"/></g><g class="cls-4"><rect class="cls-5" x="101.44" y="25.51" width="288.3" height="344.43"/></g><g class="cls-6"><rect class="cls-7" x="83.56" y="66.77" width="191.78" height="241.58"/></g><g class="cls-8"><rect class="cls-9" x="189.18" y="292.96" width="21.36" height="17.08"/></g></g></g></svg>