<svg xmlns="http://www.w3.org/2000/svg" viewBox="0 0 5220.45 999.5"><defs><style>.cls-1{fill:#fff;}</style></defs><g id="Layer_2" data-name="Layer 2"><g id="Layer_1-2" data-name="Layer 1"><g id="레이어_2" data-name="레이어 2"><g id="Layer_1-3" data-name="Layer 1-3"><polygon class="cls-1" points="721.22 182.53 586.98 260.1 587.62 864.38 528.15 864.43 527.46 419.35 393.22 496.91 393.62 864.48 331.89 864.53 331.55 652.48 197.31 730.04 197.46 864.63 135.27 864.67 134.58 179.51 528.34 179.18 528.34 224.05 722.45 112.03 528.34 0 528.34 44.58 0 44.88 0.54 864.72 0.64 999.5 135.37 999.35 206.69 999.3 341.17 999.21 393.76 999.16 528.34 999.01 587.77 998.96 722.45 998.86 722.25 864.28 721.22 182.53"/></g></g><path class="cls-1" d="M920.74,497.41H1737.1v72H920.74ZM959.14,603h723.47V854.39H1066.32q-52.69,0-79.94-28t-27.24-90.65Zm557.34-140.17V218H973.43V146h627q35.7,0,58.95,24.3t23.24,61.7V462.84ZM1121.7,746q0,37.39,35.73,37.38h362.63V674H1121.7Z"/><path class="cls-1" d="M2597.22,482.46v71h-184v43.93h15.19q69.66,0,106.29,33.17t36.61,97.65q0,64.49-36.61,97.66T2428.41,859H1955q-69.67,0-106.29-33.17t-36.62-97.66q0-64.47,36.62-97.65T1955,597.39h12.53V553.48H1786.25v-71Zm-785.1-217.74q0-27.09,8.93-50c11.17-29.75,33.68-53.29,62.13-64.95a120.35,120.35,0,0,1,47.78-9.34h521.56a120.78,120.78,0,0,1,47.79,9.34c28.42,11.67,50.92,35.21,62.07,64.95a136.66,136.66,0,0,1,8.93,50v57.94a136.66,136.66,0,0,1-8.93,50c-11.15,29.74-33.65,53.28-62.07,64.95a120.53,120.53,0,0,1-47.79,9.34H1930.91a120.36,120.36,0,0,1-47.79-9.34c-28.45-11.66-51-35.2-62.13-64.95q-8.92-22.89-8.92-50Zm164.34,58.88q0,56.07,53.59,56.07h324.23q53.58,0,53.59-56.07V263.79q0-56.07-53.59-56.07H2030.05q-53.6,0-53.59,56.07Zm5.36,410.24q0,56.07,53.59,56.07h313.5q53.58,0,53.59-56.07V722.63q0-56.07-53.59-56.07H2035.42q-53.6,0-53.59,56.07Zm267.06-136.43V553.48h-117v43.93Z"/><path class="cls-1" d="M2759.77,222.67l.89-1.87h-92v-71h585v71h-49.12v84.11h98.21V140.44h162.56V555.35H3302.78V380.6h-98.21V554.42H3047.38V221.74H2943.76q-22.34,0-30.37,24.29l-99.14,308.39H2657.06Zm-72.35,505.56q0-64.47,36.63-97.65t106.28-33.17h510q69.66,0,106.29,33.17t36.62,97.65q0,64.49-36.62,97.66t-106.29,33.17h-510q-69.67,0-106.28-33.17t-36.63-97.66Zm218.87-61.67q-53.58,0-53.6,56.07v11.21q0,56.07,53.6,56.07h357.26q53.6,0,53.59-56.07V722.63q0-56.07-53.59-56.07Z"/><path class="cls-1" d="M3533.25,773.09h326V637.59h164.39v135.5h326v71H3533.25ZM4297.8,149.78V593.67H3692.24q-52.71,0-79.94-29t-27.24-87.85v-327h162.55V288.09h387.65V149.78ZM3747.61,482.46q0,37.4,35.73,37.38h351.92v-157H3747.61Z"/><path class="cls-1" d="M4404.1,488.07h335.83V452.56H4522.88q-39.31,0-59.84-21.5t-20.54-62.61V149.78h737.75v70.09H4605.06v48.59h567.15v66.35H4605.06v47.66h575.19v70.09h-276v35.51h316.18v71H4404.1Zm31.27,240.16q0-64.47,36.62-97.65t106.29-33.17h485.88q69.67,0,106.3,33.17t36.61,97.65q0,64.49-36.61,97.66t-106.3,33.17h-485.9q-69.67,0-106.28-33.17T4435.37,728.23Zm223.3-61.67q-53.6,0-53.59,56.07v11.21q0,56.07,53.59,56.07h326q53.6,0,53.59-56.07V722.63q0-56.07-53.59-56.07Z"/></g></g></svg>