<?xml version="1.0" encoding="utf-8"?>
<!-- Generator: Adobe Illustrator 24.2.0, SVG Export Plug-In . SVG Version: 6.00 Build 0)  -->
<svg version="1.1" id="Layer_1" xmlns="http://www.w3.org/2000/svg" xmlns:xlink="http://www.w3.org/1999/xlink" x="0px" y="0px"
	 viewBox="0 0 150.5 70.7" style="enable-background:new 0 0 150.5 70.7;" xml:space="preserve">
<style type="text/css">
	.st0{fill:#E6FF65;}
</style>
<g id="Layer_2_1_">
	<g id="레이어_1">
		<path class="st0" d="M0.2,57.6h2.4L6,66.2l3.4-8.6h0.9l3.4,8.6l3.4-8.6h2.4l-5.1,12.8h-1l-3.6-9l-3.6,9H5.4L0.2,57.6z"/>
		<path class="st0" d="M14.5,70.5h-1.2l-3.5-8.8l-3.5,8.8H5.2l0-0.1L0,57.4h2.7L6,65.7l3.3-8.3h1.2l3.3,8.3l3.3-8.3h2.7L14.5,70.5z
			 M13.6,70.2h0.7l5-12.4h-2l-3.5,8.9l-3.5-8.9H9.5L6,66.6l-3.5-8.9h-2l5,12.4h0.7l3.7-9.3L13.6,70.2z"/>
		<path class="st0" d="M22.1,57.6h2.3v12.8h-2.3V57.6z"/>
		<path class="st0" d="M24.6,70.5H22V57.4h2.6V70.5z M22.3,70.2h1.9V57.7h-1.9V70.2z"/>
		<path class="st0" d="M39.6,57.6v12.8h-1.1l-8.3-9.1v9h-2.1V57.5h1.1l8.4,9.1v-9H39.6z"/>
		<path class="st0" d="M39.8,70.5h-1.4l-8.1-8.8v8.8h-2.4V57.4h1.3l0,0.1l8.1,8.7v-8.8h2.4L39.8,70.5z M38.6,70.2h0.9V57.7h-1.7V67
			l-8.6-9.3h-0.9v12.5H30v-9.3L38.6,70.2z"/>
		<path class="st0" d="M54.9,57.6v12.8h-1.1l-8.3-9.1v9h-2.1V57.5h1.1l8.4,9.1v-9H54.9z"/>
		<path class="st0" d="M55,70.5h-1.4l-8.1-8.8v8.8h-2.4V57.4h1.3l0,0.1l8.1,8.7v-8.8H55V70.5z M53.8,70.2h0.9V57.7H53V67l-8.6-9.3
			h-0.9v12.5h1.7v-9.3L53.8,70.2z"/>
		<path class="st0" d="M67.7,68.4v1.9h-9.2V57.6h9v1.9h-6.7V63h6.5v1.8h-6.5v3.6L67.7,68.4z"/>
		<path class="st0" d="M67.9,70.5h-9.5V57.4h9.3v2.2H61v3.2h6.5V65H61v3.3h6.9L67.9,70.5z M58.7,70.2h8.8v-1.6h-6.9v-4h6.5v-1.5
			h-6.5v-3.8h6.7v-1.6h-8.6V70.2z"/>
		<path class="st0" d="M79.1,70.3l-3-4.7h-3v4.7h-2.2V57.6H77c2.2,0,4,1.7,4.1,3.9c0,0,0,0.1,0,0.1c0,1.7-1.1,3.3-2.8,3.8l3.3,4.9
			L79.1,70.3z M73.1,63.9h3.3c1.3,0.1,2.4-0.9,2.5-2.2c0,0,0,0,0-0.1c0-1.3-1.1-2.3-2.4-2.3c0,0,0,0,0,0h-3.4L73.1,63.9z"/>
		<path class="st0" d="M81.9,70.5h-2.9l-3-4.7h-2.8v4.7h-2.5V57.4H77c2.3,0,4.2,1.8,4.2,4.1c0,0,0,0.1,0,0.1c0,1.7-1,3.3-2.7,3.9
			L81.9,70.5z M79.2,70.2h2.1l-3.2-4.8l0.2-0.1c1.6-0.5,2.7-2,2.6-3.6c0-2.1-1.6-3.8-3.7-3.9c-0.1,0-0.1,0-0.2,0h-5.9v12.4h1.8v-4.7
			h3.3L79.2,70.2z M76.4,64.1h-3.5v-4.9h3.6c1.4-0.1,2.5,1,2.6,2.4c0,0,0,0,0,0.1C79,63,77.9,64.1,76.4,64.1
			C76.5,64.1,76.5,64.1,76.4,64.1z M73.3,63.7h3.2c1.2,0.1,2.2-0.9,2.3-2.1c0,0,0,0,0,0c0-1.2-1-2.1-2.2-2.1c0,0,0,0,0,0h-3.2
			L73.3,63.7z"/>
		<path class="st0" d="M83.2,61.1v-1.1c0.8-0.2,1.4-1,1.3-1.8h-1.1V56h2.2v2.1C85.7,59.6,84.7,60.9,83.2,61.1z"/>
		<path class="st0" d="M83.1,61.4V60l0.1,0c0.7-0.2,1.2-0.8,1.1-1.5h-1.1v-2.5h2.5v2.3c0.1,1.5-1,2.9-2.5,3.2L83.1,61.4z M83.4,60.2
			v0.7c1.3-0.3,2.1-1.5,2-2.8v-1.9h-1.8v1.9h1.1v0.2C84.8,59.1,84.2,59.9,83.4,60.2z"/>
		<path class="st0" d="M87.6,66.7h2.3c0.2,1.6,1.7,2,2.8,2c1.1,0,2.4-0.5,2.4-1.7c0-1.3-1.4-1.7-3-2.2c-2.5-0.8-4.3-1.6-4.3-3.9
			c0-2.3,1.9-3.6,4.6-3.6c2.3,0,4.5,1,4.7,3.7h-2.2c-0.2-1.2-1.3-2-2.5-1.9c-1.1,0-2.3,0.5-2.3,1.7c0,1.3,1.3,1.6,2.8,2.1
			c2.4,0.8,4.4,1.4,4.4,4c0,2.4-2,3.7-4.6,3.7C90.2,70.6,87.8,69.4,87.6,66.7z"/>
		<path class="st0" d="M92.7,70.7c-2.4,0-5.1-1.1-5.3-4l0-0.2H90l0,0.1c0.2,1.8,2.3,1.9,2.7,1.9c1.1,0,2.2-0.5,2.2-1.5
			c0-1.1-1.1-1.5-2.8-2.1c-2.3-0.7-4.4-1.6-4.4-4c0-2.3,1.8-3.7,4.7-3.7c2.8,0,4.7,1.4,4.9,3.9l0,0.2h-2.6l0-0.1
			c-0.2-1.1-1.2-1.8-2.3-1.7c-0.8,0-2.1,0.3-2.1,1.5c0,1.1,1.2,1.5,2.6,1.9l0.1,0c2.4,0.8,4.5,1.4,4.5,4.1
			C97.5,69.2,95.7,70.7,92.7,70.7z M87.8,66.8c0.3,2.6,2.7,3.6,4.9,3.6c2.8,0,4.5-1.4,4.5-3.6c0-2.4-1.9-3-4.2-3.8l-0.1,0
			c-1.5-0.4-2.8-0.9-2.8-2.2c0-1.3,1.2-1.8,2.5-1.8c1.2-0.1,2.3,0.7,2.6,1.9H97c-0.4-3-3.3-3.4-4.5-3.4c-2.7,0-4.4,1.3-4.4,3.4
			c0,2,1.5,2.9,4.1,3.7c1.6,0.5,3.1,1,3.1,2.4c0,1.3-1.3,1.9-2.6,1.9c-1.4,0.2-2.6-0.7-3-2L87.8,66.8z"/>
		<path class="st0" d="M107.1,66v4.4h-2.2V57.6h5.9c2.3,0,4.2,1.9,4.2,4.2s-1.9,4.2-4.2,4.2c0,0,0,0,0,0H107.1z M107.1,64.2h3.2
			c1.4,0.1,2.5-1,2.6-2.3c0,0,0-0.1,0-0.1c0-1.3-1.1-2.4-2.5-2.4c0,0,0,0-0.1,0h-3.2L107.1,64.2z"/>
		<path class="st0" d="M107.2,70.5h-2.5V57.4h6.1c2.4,0,4.4,2,4.3,4.4c0,2.4-2,4.4-4.4,4.3c0,0,0,0,0,0h-3.5L107.2,70.5z
			 M105.1,70.2h1.8v-4.4h3.8c2.2,0,4.1-1.7,4.1-4c0-2.2-1.7-4.1-4-4.1c0,0,0,0,0,0h-5.8L105.1,70.2z M110.2,64.3h-3.3v-5.2h3.4
			c1.4-0.1,2.6,1.1,2.7,2.5s-1.1,2.6-2.5,2.7C110.4,64.4,110.3,64.4,110.2,64.3z M107.2,64h3c1.2,0.1,2.3-0.8,2.4-2.1
			s-0.8-2.3-2.1-2.4c-0.1,0-0.2,0-0.3,0h-3.1V64z"/>
		<path class="st0" d="M117.9,57.6h2.3v12.8h-2.3V57.6z"/>
		<path class="st0" d="M120.3,70.5h-2.6V57.4h2.6V70.5z M118.1,70.2h1.9V57.7h-1.9V70.2z"/>
		<path class="st0" d="M129.9,70.6c-3.7-0.1-6.5-3.2-6.4-6.8s3.2-6.5,6.8-6.4c2.9,0.1,5.4,2,6.2,4.8h-2.4c-1-2.3-3.7-3.4-6-2.4
			c-2.3,1-3.4,3.7-2.4,6c1,2.3,3.7,3.4,6,2.4c1.1-0.5,1.9-1.3,2.4-2.4h2.4C135.6,68.6,132.9,70.6,129.9,70.6z"/>
		<path class="st0" d="M129.9,70.7c-3.7-0.1-6.7-3.2-6.6-7c0.1-3.7,3.2-6.7,7-6.6c3,0.1,5.5,2.1,6.3,4.9l0.1,0.2H134l0-0.1
			c-1-2.2-3.5-3.2-5.8-2.3c-2.2,1-3.2,3.5-2.3,5.8c1,2.2,3.5,3.2,5.8,2.3c1-0.4,1.8-1.3,2.3-2.3l0-0.1h2.7l-0.1,0.2
			C135.7,68.8,133,70.8,129.9,70.7z M129.9,57.5c-3.6,0.1-6.4,3.1-6.3,6.6c0.1,3.6,3.1,6.4,6.6,6.3c2.7-0.1,5.1-1.9,5.9-4.5h-2
			c-1.1,2.4-3.9,3.4-6.3,2.3c-2.4-1.1-3.4-3.9-2.3-6.3c1.1-2.4,3.9-3.4,6.3-2.3c1,0.5,1.8,1.3,2.3,2.3h2
			C135.3,59.3,132.8,57.5,129.9,57.5L129.9,57.5z"/>
		<path class="st0" d="M139.4,57.6h2.3v5.7h0l5.5-5.7h2.8l-6.1,6.3l6.1,6.5h-2.8l-5.6-6h0v6h-2.3L139.4,57.6z"/>
		<path class="st0" d="M150.5,70.5h-3.3l-5.4-5.8v5.8h-2.6V57.4h2.6v5.5l5.3-5.5h3.3l-6.2,6.4L150.5,70.5z M147.4,70.2h2.4l-6-6.4
			l5.9-6.1h-2.3l-5.5,5.7h-0.2l0-0.2v-5.6h-1.9v12.4h1.9v-6h0.2l0.1,0.1L147.4,70.2z"/>
		<polygon class="st0" points="84.3,14.7 87.5,20 88.3,21.4 97.1,21.4 107.8,3.7 105,0 72.4,0 70.5,0 69.7,0 64.7,0 67.9,5.3 
			83.3,31.3 81,35.1 77.8,29.7 74.9,24.8 72.8,21.4 68.8,14.7 64,6.7 60,0 57.3,0 52.4,0 55.1,4.7 55.5,5.3 71,31.3 71.6,32.4 
			74.8,37.6 77.3,41.3 72.9,41.3 61,21.4 48.3,0 45.5,0 42.7,3.7 43.7,5.3 69.1,48 81.1,48 87.1,37.6 87.1,37.6 91,31 90.2,29.7 
			87.2,24.8 85.2,21.4 81.2,14.7 78.2,9.8 80.6,6.7 98.2,6.7 93.4,14.7 		"/>
	</g>
</g>
</svg>
