<?xml version="1.0" encoding="utf-8"?>
<!-- Generator: Adobe Illustrator 27.0.0, SVG Export Plug-In . SVG Version: 6.00 Build 0)  -->
<svg version="1.1" id="Layer_1" xmlns="http://www.w3.org/2000/svg" xmlns:xlink="http://www.w3.org/1999/xlink" x="0px" y="0px"
	 viewBox="0 0 212.62 188.46" style="enable-background:new 0 0 212.62 188.46;" xml:space="preserve">
<style type="text/css">
	.st0{fill:#FF4BDE;}
	.st1{fill:#FFFF4F;}
	.st2{fill:#2637B6;}
	.st3{fill:#FFFFFF;stroke:#000000;stroke-width:8;stroke-linecap:round;stroke-linejoin:round;stroke-miterlimit:10;}
	.st4{fill:none;stroke:#000000;stroke-width:8;stroke-linecap:round;stroke-linejoin:round;stroke-miterlimit:10;}
	.st5{fill:#FFFFFF;}
	.st6{fill:#3D50F4;}
	.st7{stroke:#000000;stroke-width:8;stroke-linecap:round;stroke-linejoin:round;stroke-miterlimit:10;}
	.st8{fill:#F8DD4C;stroke:#F8DD4C;stroke-width:10.0002;stroke-miterlimit:10.0002;}
	.st9{fill-rule:evenodd;clip-rule:evenodd;fill:#3D50F4;}
	.st10{fill:#F8DD4C;stroke:#000000;stroke-width:8;stroke-miterlimit:10;}
	.st11{fill:#666666;}
	.st12{fill:#CACACA;}
	.st13{fill:#18BF1B;stroke:#000000;stroke-width:5;stroke-linecap:round;stroke-linejoin:round;stroke-miterlimit:10;}
	.st14{fill:#13DEDE;}
	.st15{opacity:0.6;}
	.st16{fill:#EFEFEF;stroke:#EFEFEF;stroke-width:1.5;stroke-linecap:round;stroke-linejoin:round;stroke-miterlimit:10;}
	.st17{fill:none;stroke:#000000;stroke-width:6;stroke-linecap:round;stroke-linejoin:round;stroke-miterlimit:10;}
	.st18{stroke:#000000;stroke-width:6;stroke-linecap:round;stroke-linejoin:round;stroke-miterlimit:10;}
	.st19{fill:#FFFFFF;stroke:#000000;stroke-width:6;stroke-linecap:round;stroke-linejoin:round;stroke-miterlimit:10;}
	.st20{opacity:0.7;}
	.st21{fill:#79A3FF;stroke:#000000;stroke-width:6;stroke-linecap:round;stroke-linejoin:round;stroke-miterlimit:10;}
	.st22{fill:#567FFF;}
</style>
<g>
	<g>
		
			<rect x="99.09" y="51.3" transform="matrix(0.9997 0.0248 -0.0248 0.9997 2.8388 -2.5745)" class="st22" width="12.31" height="123.8"/>
		
			<rect x="36.16" y="161.89" transform="matrix(0.9997 0.0248 -0.0248 0.9997 4.183 -1.3026)" class="st22" width="36.94" height="12.31"/>
		
			<rect x="24.16" y="149.13" transform="matrix(0.9997 0.0248 -0.0248 0.9997 3.8609 -0.8564)" class="st22" width="24.62" height="12.31"/>
		
			<rect x="12.15" y="136.51" transform="matrix(0.9997 0.0248 -0.0248 0.9997 3.5445 -0.5627)" class="st22" width="24.62" height="12.31"/>
		
			<rect x="60.48" y="174.47" transform="matrix(0.9997 0.0248 -0.0248 0.9997 4.5024 -1.9017)" class="st22" width="36.94" height="12.31"/>
		
			<rect x="97.41" y="175.08" transform="matrix(0.9997 0.0248 -0.0248 0.9997 4.5251 -2.5118)" class="st22" width="12.31" height="12.31"/>
		
			<rect x="1.68" y="0.13" transform="matrix(0.9997 0.0248 -0.0248 0.9997 1.6908 -0.1734)" class="st22" width="12.31" height="135.94"/>
		
			<rect x="51.84" y="26.14" transform="matrix(0.9997 0.0248 -0.0248 0.9997 0.8204 -1.5805)" class="st22" width="24.62" height="12.31"/>
		
			<rect x="39.83" y="13.53" transform="matrix(0.9997 0.0248 -0.0248 0.9997 0.504 -1.2868)" class="st22" width="24.62" height="12.31"/>
		
			<rect x="15.52" y="0.61" transform="matrix(0.9997 0.0248 -0.0248 0.9997 0.1763 -0.688)" class="st22" width="24.62" height="12.31"/>
		
			<rect x="63.85" y="38.57" transform="matrix(0.9997 0.0248 -0.0248 0.9997 1.1341 -2.027)" class="st22" width="36.94" height="12.31"/>
		
			<rect x="50.96" y="61.58" transform="matrix(0.9997 0.0248 -0.0248 0.9997 1.6988 -1.5478)" class="st22" width="24.62" height="12.31"/>
		
			<rect x="26.65" y="48.66" transform="matrix(0.9997 0.0248 -0.0248 0.9997 1.3711 -0.949)" class="st22" width="24.62" height="12.31"/>
		
			<rect x="75.21" y="74.01" transform="matrix(0.9997 0.0248 -0.0248 0.9997 2.0124 -1.9915)" class="st22" width="12.24" height="12.31"/>
		
			<rect x="50.2" y="92.19" transform="matrix(0.9997 0.0248 -0.0248 0.9997 2.4573 -1.5196)" class="st22" width="24.62" height="12.31"/>
		
			<rect x="25.89" y="79.27" transform="matrix(0.9997 0.0248 -0.0248 0.9997 2.1295 -0.9208)" class="st22" width="24.62" height="12.31"/>
		
			<rect x="74.45" y="104.61" transform="matrix(0.9997 0.0248 -0.0248 0.9997 2.7708 -1.9633)" class="st22" width="12.24" height="12.31"/>
		
			<rect x="49.44" y="122.96" transform="matrix(0.9997 0.0248 -0.0248 0.9997 3.2199 -1.4912)" class="st22" width="24.62" height="12.31"/>
		
			<rect x="25.12" y="110.04" transform="matrix(0.9997 0.0248 -0.0248 0.9997 2.8922 -0.8924)" class="st22" width="24.62" height="12.31"/>
		
			<rect x="73.68" y="135.38" transform="matrix(0.9997 0.0248 -0.0248 0.9997 3.5335 -1.9349)" class="st22" width="12.24" height="12.31"/>
	</g>
	<g>
		
			<rect x="134.63" y="164.33" transform="matrix(-0.9997 -0.0248 0.0248 -0.9997 301.9146 344.7233)" class="st22" width="36.94" height="12.31"/>
		
			<rect x="159.55" y="152.48" transform="matrix(-0.9997 -0.0248 0.0248 -0.9997 339.7389 321.4908)" class="st22" width="24.62" height="12.31"/>
		
			<rect x="172.16" y="140.48" transform="matrix(-0.9997 -0.0248 0.0248 -0.9997 365.2603 297.8005)" class="st22" width="24.62" height="12.31"/>
		
			<rect x="109.71" y="175.69" transform="matrix(-0.9997 -0.0248 0.0248 -0.9997 251.8126 366.8202)" class="st22" width="36.94" height="12.31"/>
		
			<rect x="198.62" y="5.02" transform="matrix(-0.9997 -0.0248 0.0248 -0.9997 407.6812 151.0305)" class="st22" width="12.31" height="135.94"/>
		
			<rect x="138" y="28.28" transform="matrix(-0.9997 -0.0248 0.0248 -0.9997 299.7206 72.5847)" class="st22" width="24.62" height="12.31"/>
		
			<rect x="150.61" y="16.27" transform="matrix(-0.9997 -0.0248 0.0248 -0.9997 325.2419 48.8944)" class="st22" width="24.62" height="12.31"/>
		
			<rect x="175.53" y="4.58" transform="matrix(-0.9997 -0.0248 0.0248 -0.9997 375.3691 26.1197)" class="st22" width="24.62" height="12.31"/>
		
			<rect x="113.08" y="39.79" transform="matrix(-0.9997 -0.0248 0.0248 -0.9997 261.9215 95.1393)" class="st22" width="36.94" height="12.31"/>
		
			<rect x="137.12" y="63.72" transform="matrix(-0.9997 -0.0248 0.0248 -0.9997 297.0843 143.4356)" class="st22" width="24.62" height="12.31"/>
		
			<rect x="162.04" y="52.02" transform="matrix(-0.9997 -0.0248 0.0248 -0.9997 347.2115 120.6608)" class="st22" width="24.62" height="12.31"/>
		
			<rect x="124.67" y="75.23" transform="matrix(-0.9997 -0.0248 0.0248 -0.9997 259.5125 165.9986)" class="st22" width="12.24" height="12.31"/>
		
			<rect x="136.36" y="94.32" transform="matrix(-0.9997 -0.0248 0.0248 -0.9997 294.808 204.6112)" class="st22" width="24.62" height="12.31"/>
		
			<rect x="161.28" y="82.62" transform="matrix(-0.9997 -0.0248 0.0248 -0.9997 344.9352 181.8365)" class="st22" width="24.62" height="12.31"/>
		
			<rect x="123.91" y="105.84" transform="matrix(-0.9997 -0.0248 0.0248 -0.9997 257.2362 227.1743)" class="st22" width="12.24" height="12.31"/>
		
			<rect x="135.6" y="125.09" transform="matrix(-0.9997 -0.0248 0.0248 -0.9997 292.5192 266.1257)" class="st22" width="24.62" height="12.31"/>
		
			<rect x="160.52" y="113.4" transform="matrix(-0.9997 -0.0248 0.0248 -0.9997 342.6464 243.351)" class="st22" width="24.62" height="12.31"/>
		
			<rect x="123.14" y="136.61" transform="matrix(-0.9997 -0.0248 0.0248 -0.9997 254.9473 288.6888)" class="st22" width="12.24" height="12.31"/>
	</g>
</g>
</svg>
