<?xml version="1.0" encoding="utf-8"?>
<!-- Generator: Adobe Illustrator 27.0.0, SVG Export Plug-In . SVG Version: 6.00 Build 0)  -->
<svg version="1.1" id="Layer_1" xmlns="http://www.w3.org/2000/svg" xmlns:xlink="http://www.w3.org/1999/xlink" x="0px" y="0px"
	 viewBox="0 0 197.71 187.42" style="enable-background:new 0 0 197.71 187.42;" xml:space="preserve">
<style type="text/css">
	.st0{fill:#FF4BDE;}
	.st1{fill:#FFFF4F;}
	.st2{fill:#2637B6;}
	.st3{fill:#FFFFFF;stroke:#000000;stroke-width:8;stroke-linecap:round;stroke-linejoin:round;stroke-miterlimit:10;}
	.st4{fill:none;stroke:#000000;stroke-width:8;stroke-linecap:round;stroke-linejoin:round;stroke-miterlimit:10;}
	.st5{fill:#FFFFFF;}
	.st6{fill:#3D50F4;}
	.st7{stroke:#000000;stroke-width:8;stroke-linecap:round;stroke-linejoin:round;stroke-miterlimit:10;}
	.st8{fill:#F8DD4C;stroke:#F8DD4C;stroke-width:10.0002;stroke-miterlimit:10.0002;}
	.st9{fill-rule:evenodd;clip-rule:evenodd;fill:#3D50F4;}
	.st10{fill:#F8DD4C;stroke:#000000;stroke-width:8;stroke-miterlimit:10;}
	.st11{fill:#666666;}
	.st12{fill:#CACACA;}
	.st13{fill:#18BF1B;stroke:#000000;stroke-width:5;stroke-linecap:round;stroke-linejoin:round;stroke-miterlimit:10;}
	.st14{fill:#13DEDE;}
	.st15{opacity:0.6;}
	.st16{fill:#EFEFEF;stroke:#EFEFEF;stroke-width:1.5;stroke-linecap:round;stroke-linejoin:round;stroke-miterlimit:10;}
	.st17{fill:none;stroke:#000000;stroke-width:6;stroke-linecap:round;stroke-linejoin:round;stroke-miterlimit:10;}
	.st18{stroke:#000000;stroke-width:6;stroke-linecap:round;stroke-linejoin:round;stroke-miterlimit:10;}
	.st19{fill:#FFFFFF;stroke:#000000;stroke-width:6;stroke-linecap:round;stroke-linejoin:round;stroke-miterlimit:10;}
	.st20{opacity:0.7;}
	.st21{fill:#79A3FF;stroke:#000000;stroke-width:6;stroke-linecap:round;stroke-linejoin:round;stroke-miterlimit:10;}
	.st22{fill:#567FFF;}
</style>
<g>
	
		<rect x="0.15" y="171.96" transform="matrix(0.9997 0.0248 -0.0248 0.9997 4.4177 -0.2487)" class="st22" width="24.19" height="12.17"/>
	
		<rect x="24.33" y="172.41" transform="matrix(0.9997 0.0248 -0.0248 0.9997 4.4345 -0.6982)" class="st22" width="12.09" height="12.17"/>
	
		<rect x="36.42" y="172.71" transform="matrix(0.9997 0.0248 -0.0248 0.9997 4.4456 -0.9978)" class="st22" width="12.09" height="12.17"/>
	
		<rect x="48.51" y="173.01" transform="matrix(0.9997 0.0248 -0.0248 0.9997 4.4568 -1.2974)" class="st22" width="12.09" height="12.17"/>
	
		<rect x="60.6" y="173.31" transform="matrix(0.9997 0.0248 -0.0248 0.9997 4.4679 -1.5971)" class="st22" width="12.09" height="12.17"/>
	
		<rect x="72.69" y="173.61" transform="matrix(0.9997 0.0248 -0.0248 0.9997 4.479 -1.8967)" class="st22" width="12.09" height="12.17"/>
	
		<rect x="84.78" y="173.91" transform="matrix(0.9997 0.0248 -0.0248 0.9997 4.4902 -2.1963)" class="st22" width="12.09" height="12.17"/>
	
		<rect x="96.86" y="174.21" transform="matrix(0.9997 0.0248 -0.0248 0.9997 4.5013 -2.4959)" class="st22" width="12.09" height="12.17"/>
	
		<rect x="108.95" y="174.51" transform="matrix(0.9997 0.0248 -0.0248 0.9997 4.5125 -2.7956)" class="st22" width="12.09" height="12.17"/>
	
		<rect x="121.04" y="174.81" transform="matrix(0.9997 0.0248 -0.0248 0.9997 4.5236 -3.0952)" class="st22" width="12.09" height="12.17"/>
	
		<rect x="133.13" y="175.11" transform="matrix(0.9997 0.0248 -0.0248 0.9997 4.5348 -3.3948)" class="st22" width="12.09" height="12.17"/>
	
		<rect x="145.52" y="163.24" transform="matrix(0.9997 0.0248 -0.0248 0.9997 4.2445 -3.7057)" class="st22" width="12.09" height="12.17"/>
	
		<rect x="0.45" y="159.64" transform="matrix(0.9997 0.0248 -0.0248 0.9997 4.1107 -0.1101)" class="st22" width="12.09" height="12.17"/>
	
		<rect x="0.75" y="147.48" transform="matrix(0.9997 0.0248 -0.0248 0.9997 3.8092 -0.1214)" class="st22" width="12.09" height="12.17"/>
	
		<rect x="1.05" y="135.31" transform="matrix(0.9997 0.0248 -0.0248 0.9997 3.5077 -0.1326)" class="st22" width="12.09" height="12.17"/>
	
		<rect x="1.36" y="123.15" transform="matrix(0.9997 0.0248 -0.0248 0.9997 3.2062 -0.1438)" class="st22" width="12.09" height="12.17"/>
	
		<rect x="1.84" y="96.56" transform="matrix(0.9997 0.0248 -0.0248 0.9997 2.726 -0.1617)" class="st22" width="12.09" height="26.59"/>
	
		<rect x="2.32" y="84.4" transform="matrix(0.9997 0.0248 -0.0248 0.9997 2.2458 -0.1795)" class="st22" width="12.09" height="12.17"/>
	
		<rect x="2.77" y="60.07" transform="matrix(0.9997 0.0248 -0.0248 0.9997 1.7936 -0.1964)" class="st22" width="12.09" height="24.34"/>
	
		<rect x="3.22" y="47.91" transform="matrix(0.9997 0.0248 -0.0248 0.9997 1.3414 -0.2132)" class="st22" width="12.09" height="12.17"/>
	
		<rect x="3.52" y="35.74" transform="matrix(0.9997 0.0248 -0.0248 0.9997 1.0399 -0.2244)" class="st22" width="12.09" height="12.17"/>
	
		<rect x="183.48" y="64.52" transform="matrix(0.9997 0.0248 -0.0248 0.9997 2.5913 -4.6673)" class="st22" width="12.09" height="75.3"/>
	
		<rect x="157.92" y="151.38" transform="matrix(0.9997 0.0248 -0.0248 0.9997 3.9541 -4.0165)" class="st22" width="12.09" height="12.17"/>
	
		<rect x="170.31" y="139.51" transform="matrix(0.9997 0.0248 -0.0248 0.9997 3.6638 -4.3274)" class="st22" width="12.09" height="12.17"/>
	
		<rect x="15.91" y="23.88" transform="matrix(0.9997 0.0248 -0.0248 0.9997 0.7495 -0.5352)" class="st22" width="12.09" height="12.17"/>
	
		<rect x="28.31" y="12.01" transform="matrix(0.9997 0.0248 -0.0248 0.9997 0.4592 -0.8461)" class="st22" width="12.09" height="12.17"/>
	
		<rect x="148.6" y="39.34" transform="matrix(0.9997 0.0248 -0.0248 0.9997 1.1737 -3.8199)" class="st22" width="12.09" height="12.17"/>
	
		<rect x="134.82" y="51.19" transform="matrix(0.9997 0.0248 -0.0248 0.9997 2.8487 -3.4576)" class="st22" width="12.09" height="123.94"/>
	
		<rect x="160.99" y="27.47" transform="matrix(0.9997 0.0248 -0.0248 0.9997 0.8833 -4.1308)" class="st22" width="12.09" height="12.17"/>
	
		<rect x="173.68" y="3.45" transform="matrix(0.9997 0.0248 -0.0248 0.9997 0.2906 -4.4529)" class="st22" width="12.09" height="12.09"/>
	
		<rect x="173.38" y="15.65" transform="matrix(0.9997 0.0248 -0.0248 0.9997 0.593 -4.4416)" class="st22" width="12.09" height="12.09"/>
	
		<rect x="59.89" y="49.18" transform="matrix(0.9997 0.0248 -0.0248 0.9997 1.3903 -1.6177)" class="st22" width="12.09" height="12.17"/>
	
		<rect x="72.58" y="25.28" transform="matrix(0.9997 0.0248 -0.0248 0.9997 0.8018 -1.9396)" class="st22" width="12.09" height="12.17"/>
	
		<rect x="96.58" y="25.88" transform="matrix(0.9997 0.0248 -0.0248 0.9997 0.8239 -2.5346)" class="st22" width="12.09" height="12.17"/>
	
		<rect x="84.88" y="13.42" transform="matrix(0.9997 0.0248 -0.0248 0.9997 0.5114 -2.2483)" class="st22" width="12.09" height="12.17"/>
	
		<rect x="108.89" y="14.01" transform="matrix(0.9997 0.0248 -0.0248 0.9997 0.5335 -2.8432)" class="st22" width="12.09" height="12.17"/>
	
		<rect x="59.59" y="61.21" transform="matrix(0.9997 0.0248 -0.0248 0.9997 1.6884 -1.6066)" class="st22" width="12.09" height="12.17"/>
	
		<rect x="59.29" y="73.37" transform="matrix(0.9997 0.0248 -0.0248 0.9997 1.9899 -1.5954)" class="st22" width="12.09" height="12.17"/>
	
		<rect x="71.38" y="73.67" transform="matrix(0.9997 0.0248 -0.0248 0.9997 2.0011 -1.895)" class="st22" width="12.09" height="12.17"/>
	
		<rect x="83.47" y="73.97" transform="matrix(0.9997 0.0248 -0.0248 0.9997 2.0122 -2.1946)" class="st22" width="12.09" height="12.17"/>
	
		<rect x="83.77" y="61.81" transform="matrix(0.9997 0.0248 -0.0248 0.9997 1.7107 -2.2059)" class="st22" width="12.09" height="12.17"/>
	
		<rect x="84.07" y="49.78" transform="matrix(0.9997 0.0248 -0.0248 0.9997 1.4126 -2.217)" class="st22" width="12.09" height="12.17"/>
	
		<rect x="185.02" y="15.83" transform="matrix(0.9997 0.0248 -0.0248 0.9997 1.0554 -4.7245)" class="st22" width="12.09" height="48.75"/>
	
		<rect x="40.68" y="1.65" transform="matrix(0.9997 0.0248 -0.0248 0.9997 0.2246 -2.6551)" class="st22" width="133.03" height="12.17"/>
	
		<rect x="15.59" y="37.54" transform="matrix(0.9997 0.0248 -0.0248 0.9997 1.1068 -2.0222)" class="st22" width="133.03" height="12.17"/>
</g>
</svg>
