<?xml version="1.0" encoding="utf-8"?>
<!-- Generator: Adobe Illustrator 27.0.0, SVG Export Plug-In . SVG Version: 6.00 Build 0)  -->
<svg version="1.1" id="Layer_1" xmlns="http://www.w3.org/2000/svg" xmlns:xlink="http://www.w3.org/1999/xlink" x="0px" y="0px"
	 viewBox="0 0 174.31 188.97" style="enable-background:new 0 0 174.31 188.97;" xml:space="preserve">
<style type="text/css">
	.st0{fill:#FF4BDE;}
	.st1{fill:#FFFF4F;}
	.st2{fill:#2637B6;}
	.st3{fill:#FFFFFF;stroke:#000000;stroke-width:8;stroke-linecap:round;stroke-linejoin:round;stroke-miterlimit:10;}
	.st4{fill:none;stroke:#000000;stroke-width:8;stroke-linecap:round;stroke-linejoin:round;stroke-miterlimit:10;}
	.st5{fill:#FFFFFF;}
	.st6{fill:#3D50F4;}
	.st7{stroke:#000000;stroke-width:8;stroke-linecap:round;stroke-linejoin:round;stroke-miterlimit:10;}
	.st8{fill:#F8DD4C;stroke:#F8DD4C;stroke-width:10.0002;stroke-miterlimit:10.0002;}
	.st9{fill-rule:evenodd;clip-rule:evenodd;fill:#3D50F4;}
	.st10{fill:#F8DD4C;stroke:#000000;stroke-width:8;stroke-miterlimit:10;}
	.st11{fill:#666666;}
	.st12{fill:#CACACA;}
	.st13{fill:#18BF1B;stroke:#000000;stroke-width:5;stroke-linecap:round;stroke-linejoin:round;stroke-miterlimit:10;}
	.st14{fill:#13DEDE;}
	.st15{opacity:0.6;}
	.st16{fill:#EFEFEF;stroke:#EFEFEF;stroke-width:1.5;stroke-linecap:round;stroke-linejoin:round;stroke-miterlimit:10;}
	.st17{fill:none;stroke:#000000;stroke-width:6;stroke-linecap:round;stroke-linejoin:round;stroke-miterlimit:10;}
	.st18{stroke:#000000;stroke-width:6;stroke-linecap:round;stroke-linejoin:round;stroke-miterlimit:10;}
	.st19{fill:#FFFFFF;stroke:#000000;stroke-width:6;stroke-linecap:round;stroke-linejoin:round;stroke-miterlimit:10;}
	.st20{opacity:0.7;}
	.st21{fill:#79A3FF;stroke:#000000;stroke-width:6;stroke-linecap:round;stroke-linejoin:round;stroke-miterlimit:10;}
	.st22{fill:#567FFF;}
</style>
<g>
	
		<rect x="0.99" y="12.14" transform="matrix(0.9997 0.0248 -0.0248 0.9997 1.2995 -0.1612)" class="st22" width="12.31" height="80.37"/>
	
		<rect x="38.33" y="13.06" transform="matrix(0.9997 0.0248 -0.0248 0.9997 0.9285 -1.0914)" class="st22" width="12.31" height="47.67"/>
	
		<rect x="75.25" y="13.98" transform="matrix(0.9997 0.0248 -0.0248 0.9997 0.9625 -2.0066)" class="st22" width="12.31" height="47.67"/>
	
		<rect x="35.78" y="105.71" transform="matrix(0.9997 0.0248 -0.0248 0.9997 3.4736 -0.9967)" class="st22" width="12.31" height="67.75"/>
	
		<rect x="72.7" y="106.63" transform="matrix(0.9997 0.0248 -0.0248 0.9997 3.5076 -1.9119)" class="st22" width="12.31" height="67.75"/>
	
		<rect x="14.45" y="0.3" transform="matrix(0.9997 0.0248 -0.0248 0.9997 0.1684 -0.6615)" class="st22" width="24.62" height="12.31"/>
	
		<rect x="12.15" y="93.11" transform="matrix(0.9997 0.0248 -0.0248 0.9997 2.4704 -0.7286)" class="st22" width="36.94" height="12.31"/>
	
		<rect x="73.69" y="94.64" transform="matrix(0.9997 0.0248 -0.0248 0.9997 2.5271 -2.2539)" class="st22" width="36.94" height="12.31"/>
	
		<rect x="51.38" y="1.22" transform="matrix(0.9997 0.0248 -0.0248 0.9997 0.2024 -1.5767)" class="st22" width="24.62" height="12.31"/>
	
		<rect x="111.36" y="14.89" transform="matrix(0.9997 0.0248 -0.0248 0.9997 1.8156 -2.8913)" class="st22" width="12.31" height="113.78"/>
	
		<rect x="88.3" y="2.13" transform="matrix(0.9997 0.0248 -0.0248 0.9997 0.2365 -2.4918)" class="st22" width="24.62" height="12.31"/>
	
		<rect x="161.41" y="16.12" transform="matrix(0.9997 0.0248 -0.0248 0.9997 1.042 -4.142)" class="st22" width="12.31" height="47.67"/>
	
		<rect x="125.23" y="3.2" transform="matrix(0.9997 0.0248 -0.0248 0.9997 0.2762 -3.5595)" class="st22" width="36.94" height="12.31"/>
	
		<rect x="122.1" y="128.95" transform="matrix(0.9997 0.0248 -0.0248 0.9997 3.389 -3.1382)" class="st22" width="12.31" height="12.31"/>
	
		<rect x="134.41" y="129.26" transform="matrix(0.9997 0.0248 -0.0248 0.9997 3.4004 -3.4433)" class="st22" width="12.31" height="12.31"/>
	
		<rect x="133.26" y="175.89" transform="matrix(0.9997 0.0248 -0.0248 0.9997 4.5562 -3.4003)" class="st22" width="12.31" height="12.31"/>
	
		<rect x="145.56" y="176.2" transform="matrix(0.9997 0.0248 -0.0248 0.9997 4.5675 -3.7054)" class="st22" width="12.31" height="12.31"/>
	
		<rect x="47.09" y="173.91" transform="matrix(0.9997 0.0248 -0.0248 0.9997 4.4824 -1.4174)" class="st22" width="24.62" height="12.31"/>
	
		<rect x="157.87" y="176.5" transform="matrix(0.9997 0.0248 -0.0248 0.9997 4.5789 -4.0104)" class="st22" width="12.31" height="12.31"/>
	
		<rect x="133.83" y="141.56" transform="matrix(0.9997 0.0248 -0.0248 0.9997 3.9783 -3.4218)" class="st22" width="12.31" height="34.34"/>
	
		<rect x="159.42" y="63.76" transform="matrix(0.9997 0.0248 -0.0248 0.9997 3.0295 -4.0681)" class="st22" width="12.31" height="112.76"/>
</g>
</svg>
