<?xml version="1.0" encoding="utf-8"?>
<!-- Generator: Adobe Illustrator 27.0.0, SVG Export Plug-In . SVG Version: 6.00 Build 0)  -->
<svg version="1.1" id="Layer_1" xmlns="http://www.w3.org/2000/svg" xmlns:xlink="http://www.w3.org/1999/xlink" x="0px" y="0px"
	 viewBox="0 0 234.63 184.59" style="enable-background:new 0 0 234.63 184.59;" xml:space="preserve">
<style type="text/css">
	.st0{fill:#FF4BDE;}
	.st1{fill:#FFFF4F;}
	.st2{fill:#2637B6;}
	.st3{fill:#FFFFFF;stroke:#000000;stroke-width:8;stroke-linecap:round;stroke-linejoin:round;stroke-miterlimit:10;}
	.st4{fill:none;stroke:#000000;stroke-width:8;stroke-linecap:round;stroke-linejoin:round;stroke-miterlimit:10;}
	.st5{fill:#FFFFFF;}
	.st6{fill:#3D50F4;}
	.st7{stroke:#000000;stroke-width:8;stroke-linecap:round;stroke-linejoin:round;stroke-miterlimit:10;}
	.st8{fill:#F8DD4C;stroke:#F8DD4C;stroke-width:10.0002;stroke-miterlimit:10.0002;}
	.st9{fill-rule:evenodd;clip-rule:evenodd;fill:#3D50F4;}
	.st10{fill:#F8DD4C;stroke:#000000;stroke-width:8;stroke-miterlimit:10;}
	.st11{fill:#666666;}
	.st12{fill:#CACACA;}
	.st13{fill:#18BF1B;stroke:#000000;stroke-width:5;stroke-linecap:round;stroke-linejoin:round;stroke-miterlimit:10;}
	.st14{fill:#13DEDE;}
	.st15{opacity:0.6;}
	.st16{fill:#EFEFEF;stroke:#EFEFEF;stroke-width:1.5;stroke-linecap:round;stroke-linejoin:round;stroke-miterlimit:10;}
	.st17{fill:none;stroke:#000000;stroke-width:6;stroke-linecap:round;stroke-linejoin:round;stroke-miterlimit:10;}
	.st18{stroke:#000000;stroke-width:6;stroke-linecap:round;stroke-linejoin:round;stroke-miterlimit:10;}
	.st19{fill:#FFFFFF;stroke:#000000;stroke-width:6;stroke-linecap:round;stroke-linejoin:round;stroke-miterlimit:10;}
	.st20{opacity:0.7;}
	.st21{fill:#79A3FF;stroke:#000000;stroke-width:6;stroke-linecap:round;stroke-linejoin:round;stroke-miterlimit:10;}
	.st22{fill:#567FFF;}
</style>
<g>
	
		<rect x="39.48" y="47.17" transform="matrix(-0.9997 -0.0248 0.0248 -0.9997 89.9408 107.7662)" class="st22" width="12.31" height="12.31"/>
	
		<rect x="51.46" y="60.66" transform="matrix(-0.9997 -0.0248 0.0248 -0.9997 113.5662 135.0309)" class="st22" width="12.31" height="12.31"/>
	
		<rect x="64.1" y="36.08" transform="matrix(-0.9997 -0.0248 0.0248 -0.9997 139.279 98.736)" class="st22" width="12.31" height="24.85"/>
	
		<rect x="39.78" y="35.17" transform="matrix(-0.9997 -0.0248 0.0248 -0.9997 90.8334 83.7755)" class="st22" width="12.31" height="12.31"/>
	
		<rect x="52.39" y="23.47" transform="matrix(-0.9997 -0.0248 0.0248 -0.9997 116.3319 60.7004)" class="st22" width="12.31" height="12.31"/>
	
		<rect x="64.85" y="11.77" transform="matrix(-0.9997 -0.0248 0.0248 -0.9997 141.5532 37.6149)" class="st22" width="12.31" height="12.31"/>
	
		<rect x="77.16" y="12.08" transform="matrix(-0.9997 -0.0248 0.0248 -0.9997 166.1591 38.5305)" class="st22" width="12.31" height="12.31"/>
	
		<rect x="76.56" y="36.39" transform="matrix(-0.9997 -0.0248 0.0248 -0.9997 164.3508 87.127)" class="st22" width="12.31" height="12.31"/>
	
		<rect x="173.91" y="62.38" transform="matrix(0.9997 0.0248 -0.0248 0.9997 1.7545 -4.443)" class="st22" width="12.31" height="12.31"/>
	
		<rect x="162.17" y="38.51" transform="matrix(0.9997 0.0248 -0.0248 0.9997 1.3145 -4.1573)" class="st22" width="12.31" height="24.85"/>
	
		<rect x="150.01" y="38.21" transform="matrix(0.9997 0.0248 -0.0248 0.9997 1.1479 -3.8581)" class="st22" width="12.31" height="12.31"/>
	
		<rect x="89.17" y="24.99" transform="matrix(-0.9997 -0.0248 0.0248 -0.9997 238.6167 65.2504)" class="st22" width="61.09" height="12.31"/>
	
		<rect x="89.7" y="0.15" transform="matrix(-0.9997 -0.0248 0.0248 -0.9997 191.5209 14.9883)" class="st22" width="12.31" height="12.31"/>
	
		<rect x="101.93" y="0.45" transform="matrix(-0.9997 -0.0248 0.0248 -0.9997 215.9729 15.8981)" class="st22" width="12.31" height="12.31"/>
	
		<rect x="114.16" y="0.76" transform="matrix(-0.9997 -0.0248 0.0248 -0.9997 240.425 16.8079)" class="st22" width="12.31" height="12.31"/>
	
		<rect x="126.39" y="1.06" transform="matrix(-0.9997 -0.0248 0.0248 -0.9997 264.877 17.7177)" class="st22" width="12.31" height="12.31"/>
	
		<rect x="138.62" y="1.36" transform="matrix(-0.9997 -0.0248 0.0248 -0.9997 289.329 18.6276)" class="st22" width="12.31" height="12.31"/>
	
		<rect x="26.88" y="58.64" transform="matrix(-0.9997 -0.0248 0.0248 -0.9997 64.4589 130.3941)" class="st22" width="12.31" height="12.31"/>
	
		<rect x="26.58" y="70.95" transform="matrix(-0.9997 -0.0248 0.0248 -0.9997 63.5434 154.9999)" class="st22" width="12.31" height="12.31"/>
	
		<rect x="38.59" y="83.19" transform="matrix(-0.9997 -0.0248 0.0248 -0.9997 87.2611 179.7837)" class="st22" width="12.31" height="12.31"/>
	
		<rect x="63.07" y="83.8" transform="matrix(-0.9997 -0.0248 0.0248 -0.9997 136.1956 181.6045)" class="st22" width="12.31" height="12.31"/>
	
		<rect x="51.16" y="72.78" transform="matrix(-0.9997 -0.0248 0.0248 -0.9997 112.6646 159.2596)" class="st22" width="12.31" height="12.31"/>
	
		<rect x="63.33" y="73.08" transform="matrix(-0.9997 -0.0248 0.0248 -0.9997 136.9933 160.1649)" class="st22" width="12.31" height="12.31"/>
	
		<rect x="26.28" y="82.89" transform="matrix(-0.9997 -0.0248 0.0248 -0.9997 62.6553 178.8682)" class="st22" width="12.31" height="12.31"/>
	
		<rect x="13.97" y="82.58" transform="matrix(-0.9997 -0.0248 0.0248 -0.9997 38.0494 177.9526)" class="st22" width="12.31" height="12.31"/>
	
		<rect x="36.77" y="156.55" transform="matrix(-0.9997 -0.0248 0.0248 -0.9997 81.8043 326.4362)" class="st22" width="12.31" height="12.31"/>
	
		<rect x="48.77" y="169.09" transform="matrix(-0.9997 -0.0248 0.0248 -0.9997 105.5003 351.8038)" class="st22" width="12.31" height="12.31"/>
	
		<rect x="60.94" y="169.39" transform="matrix(-0.9997 -0.0248 0.0248 -0.9997 129.829 352.709)" class="st22" width="12.31" height="12.31"/>
	
		<rect x="24.46" y="156.25" transform="matrix(-0.9997 -0.0248 0.0248 -0.9997 57.1985 325.5207)" class="st22" width="12.31" height="12.31"/>
	
		<rect x="12.15" y="155.94" transform="matrix(-0.9997 -0.0248 0.0248 -0.9997 32.5927 324.6051)" class="st22" width="12.31" height="12.31"/>
	
		<rect x="1.36" y="94.48" transform="matrix(-0.9997 -0.0248 0.0248 -0.9997 12.5432 201.4297)" class="st22" width="12.31" height="12.31"/>
	
		<rect x="1.06" y="106.71" transform="matrix(-0.9997 -0.0248 0.0248 -0.9997 11.6334 225.8817)" class="st22" width="12.31" height="12.31"/>
	
		<rect x="0.76" y="118.94" transform="matrix(-0.9997 -0.0248 0.0248 -0.9997 10.7236 250.3337)" class="st22" width="12.31" height="12.31"/>
	
		<rect x="0.45" y="131.18" transform="matrix(-0.9997 -0.0248 0.0248 -0.9997 9.8138 274.7858)" class="st22" width="12.31" height="12.31"/>
	
		<rect x="0.15" y="143.41" transform="matrix(-0.9997 -0.0248 0.0248 -0.9997 8.9039 299.2378)" class="st22" width="12.31" height="12.31"/>
	
		<rect x="38.29" y="95.4" transform="matrix(-0.9997 -0.0248 0.0248 -0.9997 86.3535 204.1761)" class="st22" width="12.31" height="12.31"/>
	
		<rect x="37.98" y="107.63" transform="matrix(-0.9997 -0.0248 0.0248 -0.9997 85.4436 228.6281)" class="st22" width="12.31" height="12.31"/>
	
		<rect x="37.68" y="119.86" transform="matrix(-0.9997 -0.0248 0.0248 -0.9997 84.5338 253.0801)" class="st22" width="12.31" height="12.31"/>
	
		<rect x="37.38" y="132.09" transform="matrix(-0.9997 -0.0248 0.0248 -0.9997 83.624 277.5322)" class="st22" width="12.31" height="12.31"/>
	
		<rect x="37.07" y="144.32" transform="matrix(-0.9997 -0.0248 0.0248 -0.9997 82.7142 301.9842)" class="st22" width="12.31" height="12.31"/>
	
		<rect x="62.76" y="96" transform="matrix(-0.9997 -0.0248 0.0248 -0.9997 135.288 205.9968)" class="st22" width="12.31" height="12.31"/>
	
		<rect x="62.46" y="108.24" transform="matrix(-0.9997 -0.0248 0.0248 -0.9997 134.3781 230.4489)" class="st22" width="12.31" height="12.31"/>
	
		<rect x="62.16" y="120.47" transform="matrix(-0.9997 -0.0248 0.0248 -0.9997 133.4683 254.9009)" class="st22" width="12.31" height="12.31"/>
	
		<rect x="61.85" y="132.7" transform="matrix(-0.9997 -0.0248 0.0248 -0.9997 132.5585 279.3529)" class="st22" width="12.31" height="12.31"/>
	
		<rect x="61.55" y="144.93" transform="matrix(-0.9997 -0.0248 0.0248 -0.9997 131.6487 303.805)" class="st22" width="12.31" height="12.31"/>
	
		<rect x="61.25" y="157.16" transform="matrix(-0.9997 -0.0248 0.0248 -0.9997 130.7388 328.257)" class="st22" width="12.31" height="12.31"/>
	
		<rect x="186.44" y="50.81" transform="matrix(0.9997 0.0248 -0.0248 0.9997 1.4716 -4.7573)" class="st22" width="12.31" height="12.31"/>
	
		<rect x="186.74" y="38.81" transform="matrix(0.9997 0.0248 -0.0248 0.9997 1.1742 -4.7684)" class="st22" width="12.31" height="12.31"/>
	
		<rect x="174.73" y="26.51" transform="matrix(0.9997 0.0248 -0.0248 0.9997 0.8654 -4.4744)" class="st22" width="12.31" height="12.31"/>
	
		<rect x="162.85" y="14.2" transform="matrix(0.9997 0.0248 -0.0248 0.9997 0.5567 -4.1838)" class="st22" width="12.31" height="12.31"/>
	
		<rect x="150.55" y="13.9" transform="matrix(0.9997 0.0248 -0.0248 0.9997 0.5454 -3.8788)" class="st22" width="12.31" height="12.31"/>
	
		<rect x="198.46" y="62.9" transform="matrix(0.9997 0.0248 -0.0248 0.9997 1.7748 -5.0515)" class="st22" width="12.31" height="12.31"/>
	
		<rect x="198.15" y="75.2" transform="matrix(0.9997 0.0248 -0.0248 0.9997 2.0799 -5.0402)" class="st22" width="12.31" height="12.31"/>
	
		<rect x="185.55" y="86.84" transform="matrix(0.9997 0.0248 -0.0248 0.9997 2.3644 -4.7241)" class="st22" width="12.31" height="12.31"/>
	
		<rect x="161.07" y="86.23" transform="matrix(0.9997 0.0248 -0.0248 0.9997 2.3419 -4.1174)" class="st22" width="12.31" height="12.31"/>
	
		<rect x="173.54" y="74.5" transform="matrix(0.9997 0.0248 -0.0248 0.9997 2.0548 -4.4301)" class="st22" width="12.31" height="12.31"/>
	
		<rect x="161.35" y="74.39" transform="matrix(0.9997 0.0248 -0.0248 0.9997 2.0622 -4.1278)" class="st22" width="12.31" height="13.43"/>
	
		<rect x="197.86" y="87.14" transform="matrix(0.9997 0.0248 -0.0248 0.9997 2.3758 -5.0291)" class="st22" width="12.31" height="12.31"/>
	
		<rect x="210.16" y="87.45" transform="matrix(0.9997 0.0248 -0.0248 0.9997 2.3871 -5.3342)" class="st22" width="12.31" height="12.31"/>
	
		<rect x="183.73" y="160.2" transform="matrix(0.9997 0.0248 -0.0248 0.9997 4.1826 -4.6564)" class="st22" width="12.31" height="12.31"/>
	
		<rect x="171.12" y="172.13" transform="matrix(0.9997 0.0248 -0.0248 0.9997 4.4744 -4.3401)" class="st22" width="12.31" height="12.31"/>
	
		<rect x="158.95" y="171.82" transform="matrix(0.9997 0.0248 -0.0248 0.9997 4.4632 -4.0385)" class="st22" width="12.31" height="12.31"/>
	
		<rect x="196.04" y="160.5" transform="matrix(0.9997 0.0248 -0.0248 0.9997 4.194 -4.9615)" class="st22" width="12.31" height="12.31"/>
	
		<rect x="208.35" y="160.81" transform="matrix(0.9997 0.0248 -0.0248 0.9997 4.2053 -5.2665)" class="st22" width="12.31" height="12.31"/>
	
		<rect x="222.17" y="99.96" transform="matrix(0.9997 0.0248 -0.0248 0.9997 2.7009 -5.6279)" class="st22" width="12.31" height="12.31"/>
	
		<rect x="221.86" y="112.19" transform="matrix(0.9997 0.0248 -0.0248 0.9997 3.0041 -5.6166)" class="st22" width="12.31" height="12.31"/>
	
		<rect x="221.56" y="124.42" transform="matrix(0.9997 0.0248 -0.0248 0.9997 3.3072 -5.6054)" class="st22" width="12.31" height="12.31"/>
	
		<rect x="221.26" y="136.65" transform="matrix(0.9997 0.0248 -0.0248 0.9997 3.6104 -5.5941)" class="st22" width="12.31" height="12.31"/>
	
		<rect x="220.95" y="148.88" transform="matrix(0.9997 0.0248 -0.0248 0.9997 3.9135 -5.5828)" class="st22" width="12.31" height="12.31"/>
	
		<rect x="185.24" y="99.04" transform="matrix(0.9997 0.0248 -0.0248 0.9997 2.6669 -4.7128)" class="st22" width="12.31" height="12.31"/>
	
		<rect x="184.94" y="111.27" transform="matrix(0.9997 0.0248 -0.0248 0.9997 2.97 -4.7016)" class="st22" width="12.31" height="12.31"/>
	
		<rect x="184.64" y="123.5" transform="matrix(0.9997 0.0248 -0.0248 0.9997 3.2732 -4.6903)" class="st22" width="12.31" height="12.31"/>
	
		<rect x="184.33" y="135.74" transform="matrix(0.9997 0.0248 -0.0248 0.9997 3.5763 -4.679)" class="st22" width="12.31" height="12.31"/>
	
		<rect x="184.03" y="147.97" transform="matrix(0.9997 0.0248 -0.0248 0.9997 3.8795 -4.6677)" class="st22" width="12.31" height="12.31"/>
	
		<rect x="160.77" y="98.43" transform="matrix(0.9997 0.0248 -0.0248 0.9997 2.6443 -4.1062)" class="st22" width="12.31" height="12.31"/>
	
		<rect x="160.46" y="110.67" transform="matrix(0.9997 0.0248 -0.0248 0.9997 2.9474 -4.0949)" class="st22" width="12.31" height="12.31"/>
	
		<rect x="160.16" y="122.9" transform="matrix(0.9997 0.0248 -0.0248 0.9997 3.2506 -4.0836)" class="st22" width="12.31" height="12.31"/>
	
		<rect x="159.86" y="135.13" transform="matrix(0.9997 0.0248 -0.0248 0.9997 3.5537 -4.0723)" class="st22" width="12.31" height="12.31"/>
	
		<rect x="159.55" y="147.36" transform="matrix(0.9997 0.0248 -0.0248 0.9997 3.8569 -4.061)" class="st22" width="12.31" height="12.31"/>
	
		<rect x="159.25" y="159.59" transform="matrix(0.9997 0.0248 -0.0248 0.9997 4.16 -4.0498)" class="st22" width="12.31" height="12.31"/>
</g>
</svg>
