<?xml version="1.0" encoding="utf-8"?>
<!-- Generator: Adobe Illustrator 27.0.0, SVG Export Plug-In . SVG Version: 6.00 Build 0)  -->
<svg version="1.1" id="Layer_1" xmlns="http://www.w3.org/2000/svg" xmlns:xlink="http://www.w3.org/1999/xlink" x="0px" y="0px"
	 viewBox="0 0 186.3 185.02" style="enable-background:new 0 0 186.3 185.02;" xml:space="preserve">
<style type="text/css">
	.st0{fill:#FF4BDE;}
	.st1{fill:#FFFF4F;}
	.st2{fill:#2637B6;}
	.st3{fill:#FFFFFF;stroke:#000000;stroke-width:8;stroke-linecap:round;stroke-linejoin:round;stroke-miterlimit:10;}
	.st4{fill:none;stroke:#000000;stroke-width:8;stroke-linecap:round;stroke-linejoin:round;stroke-miterlimit:10;}
	.st5{fill:#FFFFFF;}
	.st6{fill:#3D50F4;}
	.st7{stroke:#000000;stroke-width:8;stroke-linecap:round;stroke-linejoin:round;stroke-miterlimit:10;}
	.st8{fill:#F8DD4C;stroke:#F8DD4C;stroke-width:10.0002;stroke-miterlimit:10.0002;}
	.st9{fill-rule:evenodd;clip-rule:evenodd;fill:#3D50F4;}
	.st10{fill:#F8DD4C;stroke:#000000;stroke-width:8;stroke-miterlimit:10;}
	.st11{fill:#666666;}
	.st12{fill:#CACACA;}
	.st13{fill:#18BF1B;stroke:#000000;stroke-width:5;stroke-linecap:round;stroke-linejoin:round;stroke-miterlimit:10;}
	.st14{fill:#13DEDE;}
	.st15{opacity:0.6;}
	.st16{fill:#EFEFEF;stroke:#EFEFEF;stroke-width:1.5;stroke-linecap:round;stroke-linejoin:round;stroke-miterlimit:10;}
	.st17{fill:none;stroke:#000000;stroke-width:6;stroke-linecap:round;stroke-linejoin:round;stroke-miterlimit:10;}
	.st18{stroke:#000000;stroke-width:6;stroke-linecap:round;stroke-linejoin:round;stroke-miterlimit:10;}
	.st19{fill:#FFFFFF;stroke:#000000;stroke-width:6;stroke-linecap:round;stroke-linejoin:round;stroke-miterlimit:10;}
	.st20{opacity:0.7;}
	.st21{fill:#79A3FF;stroke:#000000;stroke-width:6;stroke-linecap:round;stroke-linejoin:round;stroke-miterlimit:10;}
	.st22{fill:#567FFF;}
</style>
<g>
	
		<rect x="60.08" y="172.25" transform="matrix(0.9997 0.0248 -0.0248 0.9997 4.4434 -1.5864)" class="st22" width="12.25" height="12.32"/>
	
		<rect x="47.91" y="171.94" transform="matrix(0.9997 0.0248 -0.0248 0.9997 4.4322 -1.2848)" class="st22" width="12.25" height="12.32"/>
	
		<rect x="72.32" y="172.55" transform="matrix(0.9997 0.0248 -0.0248 0.9997 4.4547 -1.8898)" class="st22" width="12.25" height="12.32"/>
	
		<rect x="84.87" y="160.53" transform="matrix(0.9997 0.0248 -0.0248 0.9997 4.1606 -2.2046)" class="st22" width="12.25" height="12.32"/>
	
		<rect x="97.42" y="148.52" transform="matrix(0.9997 0.0248 -0.0248 0.9997 3.8666 -2.5195)" class="st22" width="12.25" height="12.32"/>
	
		<rect x="109.97" y="136.5" transform="matrix(0.9997 0.0248 -0.0248 0.9997 3.5725 -2.8343)" class="st22" width="12.25" height="12.32"/>
	
		<rect x="122.52" y="124.48" transform="matrix(0.9997 0.0248 -0.0248 0.9997 3.2785 -3.1491)" class="st22" width="12.25" height="12.32"/>
	
		<rect x="122.82" y="112.16" transform="matrix(0.9997 0.0248 -0.0248 0.9997 2.9732 -3.1605)" class="st22" width="12.25" height="12.32"/>
	
		<rect x="123.13" y="99.84" transform="matrix(0.9997 0.0248 -0.0248 0.9997 2.6678 -3.1718)" class="st22" width="12.25" height="12.32"/>
	
		<rect x="123.43" y="87.52" transform="matrix(0.9997 0.0248 -0.0248 0.9997 2.3625 -3.1832)" class="st22" width="12.25" height="12.32"/>
	
		<rect x="111.5" y="74.9" transform="matrix(0.9997 0.0248 -0.0248 0.9997 2.0459 -2.8911)" class="st22" width="12.25" height="12.32"/>
	
		<rect x="99.56" y="62.28" transform="matrix(0.9997 0.0248 -0.0248 0.9997 1.7292 -2.599)" class="st22" width="12.25" height="12.32"/>
	
		<rect x="87.31" y="61.97" transform="matrix(0.9997 0.0248 -0.0248 0.9997 1.7179 -2.2955)" class="st22" width="12.25" height="12.32"/>
	
		<rect x="74.76" y="73.99" transform="matrix(0.9997 0.0248 -0.0248 0.9997 2.012 -1.9807)" class="st22" width="12.25" height="12.32"/>
	
		<rect x="24.03" y="146.77" transform="matrix(-0.9997 -0.0248 0.0248 -0.9997 56.5028 306.5692)" class="st22" width="12.25" height="12.32"/>
	
		<rect x="35.79" y="159.32" transform="matrix(-0.9997 -0.0248 0.0248 -0.9997 79.7118 331.9443)" class="st22" width="12.25" height="12.32"/>
	
		<rect x="12.09" y="134.15" transform="matrix(-0.9997 -0.0248 0.0248 -0.9997 32.9424 281.03)" class="st22" width="12.25" height="12.32"/>
	
		<rect x="0.15" y="121.53" transform="matrix(-0.9997 -0.0248 0.0248 -0.9997 9.382 255.4909)" class="st22" width="12.25" height="12.32"/>
	
		<rect x="0.46" y="109.21" transform="matrix(-0.9997 -0.0248 0.0248 -0.9997 10.2984 230.8624)" class="st22" width="12.25" height="12.32"/>
	
		<rect x="0.76" y="96.89" transform="matrix(-0.9997 -0.0248 0.0248 -0.9997 11.2148 206.234)" class="st22" width="12.25" height="12.32"/>
	
		<rect x="1.07" y="84.57" transform="matrix(-0.9997 -0.0248 0.0248 -0.9997 12.1312 181.6056)" class="st22" width="12.25" height="12.32"/>
	
		<rect x="13.62" y="72.55" transform="matrix(-0.9997 -0.0248 0.0248 -0.9997 37.5244 157.8879)" class="st22" width="12.25" height="12.32"/>
	
		<rect x="26.17" y="60.53" transform="matrix(-0.9997 -0.0248 0.0248 -0.9997 62.9176 134.1703)" class="st22" width="12.25" height="12.32"/>
	
		<rect x="38.41" y="60.84" transform="matrix(-0.9997 -0.0248 0.0248 -0.9997 87.3944 135.081)" class="st22" width="12.25" height="12.32"/>
	
		<rect x="50.35" y="73.46" transform="matrix(-0.9997 -0.0248 0.0248 -0.9997 110.9548 160.6202)" class="st22" width="12.25" height="12.32"/>
	
		<rect x="62.21" y="86.01" transform="matrix(0.9997 0.0248 -0.0248 0.9997 2.306 -1.6659)" class="st22" width="12.25" height="12.32"/>
	<g>
		
			<rect x="135.64" y="87.83" transform="matrix(0.9997 0.0248 -0.0248 0.9997 2.3737 -3.4857)" class="st22" width="12.25" height="12.32"/>
		
			<rect x="123.7" y="75.51" transform="matrix(0.9997 0.0248 -0.0248 0.9997 2.0684 -3.4971)" class="st22" width="36.74" height="12.32"/>
		
			<rect x="111.79" y="63.19" transform="matrix(0.9997 0.0248 -0.0248 0.9997 1.7631 -3.5089)" class="st22" width="61.2" height="12.32"/>
		
			<rect x="173.29" y="51.78" transform="matrix(0.9997 0.0248 -0.0248 0.9997 1.4916 -4.4302)" class="st22" width="12.25" height="12.32"/>
		
			<rect x="173.59" y="39.46" transform="matrix(0.9997 0.0248 -0.0248 0.9997 1.1863 -4.4415)" class="st22" width="12.25" height="12.32"/>
		
			<rect x="173.9" y="27.14" transform="matrix(0.9997 0.0248 -0.0248 0.9997 0.8809 -4.4529)" class="st22" width="12.25" height="12.32"/>
		
			<rect x="161.96" y="14.52" transform="matrix(0.9997 0.0248 -0.0248 0.9997 0.5643 -4.1608)" class="st22" width="12.25" height="12.32"/>
		
			<rect x="149.26" y="1.88" transform="matrix(0.9997 0.0248 -0.0248 0.9997 1.011 -3.8403)" class="st22" width="12.25" height="73.94"/>
		
			<rect x="137.02" y="1.58" transform="matrix(0.9997 0.0248 -0.0248 0.9997 0.9997 -3.5368)" class="st22" width="12.25" height="73.94"/>
		
			<rect x="125.23" y="13.6" transform="matrix(0.9997 0.0248 -0.0248 0.9997 0.5304 -3.2504)" class="st22" width="12.25" height="12.32"/>
		
			<rect x="50.91" y="50.33" transform="matrix(-0.9997 -0.0248 0.0248 -0.9997 235.029 115.9016)" class="st22" width="134.65" height="12.32"/>
		
			<rect x="62.86" y="61.44" transform="matrix(-0.9997 -0.0248 0.0248 -0.9997 136.2726 136.8997)" class="st22" width="12.25" height="12.32"/>
		
			<rect x="51.21" y="38.01" transform="matrix(-0.9997 -0.0248 0.0248 -0.9997 235.9454 91.2732)" class="st22" width="134.65" height="12.32"/>
		
			<rect x="51.52" y="25.69" transform="matrix(-0.9997 -0.0248 0.0248 -0.9997 236.8618 66.6448)" class="st22" width="134.65" height="12.32"/>
		
			<rect x="64.08" y="12.16" transform="matrix(-0.9997 -0.0248 0.0248 -0.9997 139.9381 38.3861)" class="st22" width="12.25" height="12.32"/>
		
			<rect x="75.87" y="0.14" transform="matrix(-0.9997 -0.0248 0.0248 -0.9997 163.0392 76.1689)" class="st22" width="12.25" height="73.87"/>
		
			<rect x="88.11" y="0.44" transform="matrix(-0.9997 -0.0248 0.0248 -0.9997 187.5159 77.0796)" class="st22" width="12.25" height="73.87"/>
		
			<rect x="100.82" y="13.07" transform="matrix(-0.9997 -0.0248 0.0248 -0.9997 213.3685 41.1183)" class="st22" width="12.25" height="12.32"/>
		
			<rect x="112.68" y="25.62" transform="matrix(0.9997 0.0248 -0.0248 0.9997 0.8245 -2.9356)" class="st22" width="12.25" height="12.32"/>
	</g>
</g>
</svg>
