<?xml version="1.0" encoding="utf-8"?>
<!-- Generator: Adobe Illustrator 27.0.0, SVG Export Plug-In . SVG Version: 6.00 Build 0)  -->
<svg version="1.1" id="Layer_1" xmlns="http://www.w3.org/2000/svg" xmlns:xlink="http://www.w3.org/1999/xlink" x="0px" y="0px"
	 viewBox="0 0 171.67 182.45" style="enable-background:new 0 0 171.67 182.45;" xml:space="preserve">
<style type="text/css">
	.st0{fill:#FF4BDE;}
	.st1{fill:#FFFF4F;}
	.st2{fill:#2637B6;}
	.st3{fill:#FFFFFF;stroke:#000000;stroke-width:8;stroke-linecap:round;stroke-linejoin:round;stroke-miterlimit:10;}
	.st4{fill:none;stroke:#000000;stroke-width:8;stroke-linecap:round;stroke-linejoin:round;stroke-miterlimit:10;}
	.st5{fill:#FFFFFF;}
	.st6{fill:#3D50F4;}
	.st7{stroke:#000000;stroke-width:8;stroke-linecap:round;stroke-linejoin:round;stroke-miterlimit:10;}
	.st8{fill:#F8DD4C;stroke:#F8DD4C;stroke-width:10.0002;stroke-miterlimit:10.0002;}
	.st9{fill-rule:evenodd;clip-rule:evenodd;fill:#3D50F4;}
	.st10{fill:#F8DD4C;stroke:#000000;stroke-width:8;stroke-miterlimit:10;}
	.st11{fill:#666666;}
	.st12{fill:#CACACA;}
	.st13{fill:#18BF1B;stroke:#000000;stroke-width:5;stroke-linecap:round;stroke-linejoin:round;stroke-miterlimit:10;}
	.st14{fill:#13DEDE;}
	.st15{opacity:0.6;}
	.st16{fill:#EFEFEF;stroke:#EFEFEF;stroke-width:1.5;stroke-linecap:round;stroke-linejoin:round;stroke-miterlimit:10;}
	.st17{fill:none;stroke:#000000;stroke-width:6;stroke-linecap:round;stroke-linejoin:round;stroke-miterlimit:10;}
	.st18{stroke:#000000;stroke-width:6;stroke-linecap:round;stroke-linejoin:round;stroke-miterlimit:10;}
	.st19{fill:#FFFFFF;stroke:#000000;stroke-width:6;stroke-linecap:round;stroke-linejoin:round;stroke-miterlimit:10;}
	.st20{opacity:0.7;}
	.st21{fill:#79A3FF;stroke:#000000;stroke-width:6;stroke-linecap:round;stroke-linejoin:round;stroke-miterlimit:10;}
	.st22{fill:#567FFF;}
</style>
<g>
	
		<rect x="159.45" y="50.22" transform="matrix(0.9997 0.0248 -0.0248 0.9997 1.4465 -4.0855)" class="st22" width="12.07" height="12.15"/>
	
		<rect x="147.69" y="37.78" transform="matrix(0.9997 0.0248 -0.0248 0.9997 1.1344 -3.7976)" class="st22" width="12.07" height="12.15"/>
	
		<rect x="98.4" y="77.34" transform="matrix(0.9997 0.0248 -0.0248 0.9997 2.1002 -2.5635)" class="st22" width="12.07" height="12.15"/>
	
		<rect x="98.1" y="89.49" transform="matrix(0.9997 0.0248 -0.0248 0.9997 2.4011 -2.5523)" class="st22" width="12.07" height="12.15"/>
	
		<rect x="86.03" y="89.19" transform="matrix(0.9997 0.0248 -0.0248 0.9997 2.39 -2.2532)" class="st22" width="12.07" height="12.15"/>
	
		<rect x="147.99" y="25.63" transform="matrix(0.9997 0.0248 -0.0248 0.9997 0.8334 -3.8088)" class="st22" width="12.07" height="12.15"/>
	
		<rect x="136.22" y="13.19" transform="matrix(0.9997 0.0248 -0.0248 0.9997 0.5213 -3.5208)" class="st22" width="12.07" height="12.15"/>
	
		<rect x="87.94" y="11.99" transform="matrix(0.9997 0.0248 -0.0248 0.9997 0.4768 -2.3244)" class="st22" width="12.07" height="12.15"/>
	
		<rect x="75.87" y="11.69" transform="matrix(0.9997 0.0248 -0.0248 0.9997 0.4656 -2.0253)" class="st22" width="12.07" height="12.15"/>
	
		<rect x="51.74" y="11.09" transform="matrix(0.9997 0.0248 -0.0248 0.9997 0.4434 -1.427)" class="st22" width="12.07" height="12.15"/>
	
		<rect x="27.6" y="10.65" transform="matrix(0.9997 0.0248 -0.0248 0.9997 0.4267 -0.9783)" class="st22" width="24.15" height="12.15"/>
	
		<rect x="15.22" y="22.8" transform="matrix(0.9997 0.0248 -0.0248 0.9997 0.7282 -0.9806)" class="st22" width="49.38" height="12.15"/>
	
		<rect x="63.5" y="23.54" transform="matrix(0.9997 0.0248 -0.0248 0.9997 0.7555 -1.7149)" class="st22" width="12.07" height="12.15"/>
	
		<rect x="63.2" y="35.68" transform="matrix(0.9997 0.0248 -0.0248 0.9997 1.0564 -1.7037)" class="st22" width="12.07" height="12.15"/>
	
		<rect x="62.9" y="47.82" transform="matrix(0.9997 0.0248 -0.0248 0.9997 1.3574 -1.6925)" class="st22" width="12.07" height="12.15"/>
	
		<rect x="62.6" y="59.97" transform="matrix(0.9997 0.0248 -0.0248 0.9997 1.6584 -1.6813)" class="st22" width="12.07" height="12.15"/>
	
		<rect x="62.3" y="72.11" transform="matrix(0.9997 0.0248 -0.0248 0.9997 1.9594 -1.6701)" class="st22" width="12.07" height="12.15"/>
	
		<rect x="62" y="84.26" transform="matrix(0.9997 0.0248 -0.0248 0.9997 2.2603 -1.6589)" class="st22" width="12.07" height="12.15"/>
	
		<rect x="61.7" y="96.4" transform="matrix(0.9997 0.0248 -0.0248 0.9997 2.5613 -1.6478)" class="st22" width="12.07" height="12.15"/>
	
		<rect x="61.4" y="108.54" transform="matrix(0.9997 0.0248 -0.0248 0.9997 2.8623 -1.6366)" class="st22" width="12.07" height="12.15"/>
	
		<rect x="61.1" y="120.69" transform="matrix(0.9997 0.0248 -0.0248 0.9997 3.1632 -1.6254)" class="st22" width="12.07" height="12.15"/>
	
		<rect x="60.79" y="132.83" transform="matrix(0.9997 0.0248 -0.0248 0.9997 3.4642 -1.6142)" class="st22" width="12.07" height="12.15"/>
	
		<rect x="60.49" y="144.97" transform="matrix(0.9997 0.0248 -0.0248 0.9997 3.7652 -1.603)" class="st22" width="12.07" height="12.15"/>
	
		<rect x="60.19" y="157.12" transform="matrix(0.9997 0.0248 -0.0248 0.9997 4.0661 -1.5918)" class="st22" width="12.07" height="12.15"/>
	
		<rect x="0.14" y="144.08" transform="matrix(0.9997 0.0248 -0.0248 0.9997 3.7318 -0.7056)" class="st22" width="60.36" height="12.15"/>
	
		<rect x="71.96" y="169.56" transform="matrix(0.9997 0.0248 -0.0248 0.9997 4.3782 -1.8797)" class="st22" width="12.07" height="12.15"/>
	
		<rect x="84.03" y="169.86" transform="matrix(0.9997 0.0248 -0.0248 0.9997 4.3894 -2.1788)" class="st22" width="12.07" height="12.15"/>
	
		<rect x="96.1" y="170.16" transform="matrix(0.9997 0.0248 -0.0248 0.9997 4.4005 -2.4779)" class="st22" width="12.07" height="12.15"/>
	
		<rect x="108.47" y="158.31" transform="matrix(0.9997 0.0248 -0.0248 0.9997 4.1107 -2.7882)" class="st22" width="12.07" height="12.15"/>
	
		<rect x="120.54" y="158.61" transform="matrix(0.9997 0.0248 -0.0248 0.9997 4.1218 -3.0873)" class="st22" width="12.07" height="12.15"/>
	
		<rect x="132.86" y="148.74" transform="matrix(0.9997 0.0248 -0.0248 0.9997 3.8807 -3.3958)" class="st22" width="12.07" height="12.15"/>
	
		<rect x="144.93" y="149.03" transform="matrix(0.9997 0.0248 -0.0248 0.9997 3.8918 -3.695)" class="st22" width="12.07" height="12.15"/>
	
		<rect x="158.22" y="62.35" transform="matrix(0.9997 0.0248 -0.0248 0.9997 2.6747 -4.0398)" class="st22" width="12.07" height="87"/>
	
		<rect x="124.45" y="0.75" transform="matrix(0.9997 0.0248 -0.0248 0.9997 0.2092 -3.2329)" class="st22" width="12.07" height="12.15"/>
	
		<rect x="112.38" y="0.45" transform="matrix(0.9997 0.0248 -0.0248 0.9997 0.1981 -2.9338)" class="st22" width="12.07" height="12.15"/>
	
		<rect x="100.31" y="0.15" transform="matrix(0.9997 0.0248 -0.0248 0.9997 0.1869 -2.6347)" class="st22" width="12.07" height="12.15"/>
	
		<rect x="1.65" y="34.77" transform="matrix(0.9997 0.0248 -0.0248 0.9997 2.2269 -0.7616)" class="st22" width="60.36" height="109.33"/>
</g>
</svg>
