<?xml version="1.0" encoding="utf-8"?>
<!-- Generator: Adobe Illustrator 27.0.0, SVG Export Plug-In . SVG Version: 6.00 Build 0)  -->
<svg version="1.1" id="Layer_1" xmlns="http://www.w3.org/2000/svg" xmlns:xlink="http://www.w3.org/1999/xlink" x="0px" y="0px"
	 viewBox="0 0 203.24 188.77" style="enable-background:new 0 0 203.24 188.77;" xml:space="preserve">
<style type="text/css">
	.st0{fill:#FF4BDE;}
	.st1{fill:#FFFF4F;}
	.st2{fill:#2637B6;}
	.st3{fill:#FFFFFF;stroke:#000000;stroke-width:8;stroke-linecap:round;stroke-linejoin:round;stroke-miterlimit:10;}
	.st4{fill:none;stroke:#000000;stroke-width:8;stroke-linecap:round;stroke-linejoin:round;stroke-miterlimit:10;}
	.st5{fill:#FFFFFF;}
	.st6{fill:#3D50F4;}
	.st7{stroke:#000000;stroke-width:8;stroke-linecap:round;stroke-linejoin:round;stroke-miterlimit:10;}
	.st8{fill:#F8DD4C;stroke:#F8DD4C;stroke-width:10.0002;stroke-miterlimit:10.0002;}
	.st9{fill-rule:evenodd;clip-rule:evenodd;fill:#3D50F4;}
	.st10{fill:#F8DD4C;stroke:#000000;stroke-width:8;stroke-miterlimit:10;}
	.st11{fill:#666666;}
	.st12{fill:#CACACA;}
	.st13{fill:#18BF1B;stroke:#000000;stroke-width:5;stroke-linecap:round;stroke-linejoin:round;stroke-miterlimit:10;}
	.st14{fill:#13DEDE;}
	.st15{opacity:0.6;}
	.st16{fill:#EFEFEF;stroke:#EFEFEF;stroke-width:1.5;stroke-linecap:round;stroke-linejoin:round;stroke-miterlimit:10;}
	.st17{fill:none;stroke:#000000;stroke-width:6;stroke-linecap:round;stroke-linejoin:round;stroke-miterlimit:10;}
	.st18{stroke:#000000;stroke-width:6;stroke-linecap:round;stroke-linejoin:round;stroke-miterlimit:10;}
	.st19{fill:#FFFFFF;stroke:#000000;stroke-width:6;stroke-linecap:round;stroke-linejoin:round;stroke-miterlimit:10;}
	.st20{opacity:0.7;}
	.st21{fill:#79A3FF;stroke:#000000;stroke-width:6;stroke-linecap:round;stroke-linejoin:round;stroke-miterlimit:10;}
	.st22{fill:#567FFF;}
</style>
<g>
	
		<rect x="1.99" y="23.83" transform="matrix(0.9997 0.0248 -0.0248 0.9997 2.5857 -0.1699)" class="st22" width="12.31" height="160.74"/>
	
		<rect x="16.44" y="11.85" transform="matrix(0.9997 0.0248 -0.0248 0.9997 0.4533 -0.5548)" class="st22" width="12.31" height="12.31"/>
	
		<rect x="53.37" y="12.76" transform="matrix(0.9997 0.0248 -0.0248 0.9997 0.4873 -1.4699)" class="st22" width="12.31" height="12.31"/>
	
		<rect x="26.9" y="86.68" transform="matrix(0.9997 0.0248 -0.0248 0.9997 2.3118 -0.7911)" class="st22" width="12.31" height="12.31"/>
	
		<rect x="190.77" y="90.75" transform="matrix(0.9997 0.0248 -0.0248 0.9997 2.4629 -4.8525)" class="st22" width="12.31" height="12.31"/>
	
		<rect x="38.45" y="99.29" transform="matrix(0.9997 0.0248 -0.0248 0.9997 2.9331 -1.0696)" class="st22" width="12.31" height="36.94"/>
	
		<rect x="178.36" y="102.76" transform="matrix(0.9997 0.0248 -0.0248 0.9997 3.0621 -4.5372)" class="st22" width="12.31" height="36.94"/>
	
		<rect x="50.3" y="136.53" transform="matrix(0.9997 0.0248 -0.0248 0.9997 3.5547 -1.3558)" class="st22" width="12.31" height="12.31"/>
	
		<rect x="165.44" y="139.38" transform="matrix(0.9997 0.0248 -0.0248 0.9997 3.6609 -4.2095)" class="st22" width="12.31" height="12.31"/>
	
		<rect x="62.29" y="149.96" transform="matrix(0.9997 0.0248 -0.0248 0.9997 3.9015 -2.4662)" class="st22" width="78.24" height="12.31"/>
	
		<rect x="140.52" y="151.08" transform="matrix(0.9997 0.0248 -0.0248 0.9997 3.9432 -3.588)" class="st22" width="12.31" height="12.31"/>
	
		<rect x="152.83" y="151.38" transform="matrix(0.9997 0.0248 -0.0248 0.9997 3.9546 -3.8931)" class="st22" width="12.31" height="12.31"/>
	
		<rect x="74.31" y="161.75" transform="matrix(0.9997 0.0248 -0.0248 0.9997 4.1875 -1.9432)" class="st22" width="12.31" height="12.31"/>
	
		<rect x="49.38" y="173.6" transform="matrix(0.9997 0.0248 -0.0248 0.9997 4.4756 -1.4743)" class="st22" width="24.62" height="12.31"/>
	
		<rect x="140.21" y="163.39" transform="matrix(-0.9997 -0.0248 0.0248 -0.9997 288.4914 342.6655)" class="st22" width="12.31" height="12.31"/>
	
		<rect x="152.22" y="176.15" transform="matrix(-0.9997 -0.0248 0.0248 -0.9997 324.4846 368.6446)" class="st22" width="24.62" height="12.31"/>
	
		<rect x="39.34" y="76.4" transform="matrix(0.9997 0.0248 -0.0248 0.9997 2.0822 -2.8312)" class="st22" width="151.76" height="12.31"/>
	
		<rect x="39.97" y="50.38" transform="matrix(0.9997 0.0248 -0.0248 0.9997 1.4197 -1.4462)" class="st22" width="38.13" height="12.31"/>
	
		<rect x="78.4" y="38.69" transform="matrix(0.9997 0.0248 -0.0248 0.9997 1.1379 -2.0825)" class="st22" width="12.31" height="12.31"/>
	
		<rect x="40.29" y="24.76" transform="matrix(0.9997 0.0248 -0.0248 0.9997 1.0943 -1.1381)" class="st22" width="12.31" height="37.62"/>
	
		<rect x="91.17" y="13.7" transform="matrix(0.9997 0.0248 -0.0248 0.9997 0.6833 -2.4049)" class="st22" width="12.31" height="25.3"/>
	
		<rect x="29.05" y="0.3" transform="matrix(0.9997 0.0248 -0.0248 0.9997 0.1729 -1.0234)" class="st22" width="24.62" height="12.31"/>
	
		<rect x="65.97" y="1.38" transform="matrix(0.9997 0.0248 -0.0248 0.9997 0.2131 -2.104)" class="st22" width="37.98" height="12.31"/>
</g>
</svg>
