<?xml version="1.0" encoding="utf-8"?>
<!-- Generator: Adobe Illustrator 27.0.0, SVG Export Plug-In . SVG Version: 6.00 Build 0)  -->
<svg version="1.1" id="Layer_1" xmlns="http://www.w3.org/2000/svg" xmlns:xlink="http://www.w3.org/1999/xlink" x="0px" y="0px"
	 viewBox="0 0 237.03 202.2" style="enable-background:new 0 0 237.03 202.2;" xml:space="preserve">
<style type="text/css">
	.st0{fill:#FF4BDE;}
	.st1{fill:#FFFF4F;}
	.st2{fill:#2637B6;}
	.st3{fill:#FFFFFF;stroke:#000000;stroke-width:8;stroke-linecap:round;stroke-linejoin:round;stroke-miterlimit:10;}
	.st4{fill:none;stroke:#000000;stroke-width:8;stroke-linecap:round;stroke-linejoin:round;stroke-miterlimit:10;}
	.st5{fill:#FFFFFF;}
	.st6{fill:#3D50F4;}
	.st7{stroke:#000000;stroke-width:8;stroke-linecap:round;stroke-linejoin:round;stroke-miterlimit:10;}
	.st8{fill:#F8DD4C;stroke:#F8DD4C;stroke-width:10.0002;stroke-miterlimit:10.0002;}
	.st9{fill-rule:evenodd;clip-rule:evenodd;fill:#3D50F4;}
	.st10{fill:#F8DD4C;stroke:#000000;stroke-width:8;stroke-miterlimit:10;}
	.st11{fill:#666666;}
	.st12{fill:#CACACA;}
	.st13{fill:#18BF1B;stroke:#000000;stroke-width:5;stroke-linecap:round;stroke-linejoin:round;stroke-miterlimit:10;}
	.st14{fill:#13DEDE;}
	.st15{opacity:0.6;}
	.st16{fill:#EFEFEF;stroke:#EFEFEF;stroke-width:1.5;stroke-linecap:round;stroke-linejoin:round;stroke-miterlimit:10;}
	.st17{fill:none;stroke:#000000;stroke-width:6;stroke-linecap:round;stroke-linejoin:round;stroke-miterlimit:10;}
	.st18{stroke:#000000;stroke-width:6;stroke-linecap:round;stroke-linejoin:round;stroke-miterlimit:10;}
	.st19{fill:#FFFFFF;stroke:#000000;stroke-width:6;stroke-linecap:round;stroke-linejoin:round;stroke-miterlimit:10;}
	.st20{opacity:0.7;}
	.st21{fill:#79A3FF;stroke:#000000;stroke-width:6;stroke-linecap:round;stroke-linejoin:round;stroke-miterlimit:10;}
	.st22{fill:#567FFF;}
</style>
<g>
	
		<rect x="1.58" y="45.3" transform="matrix(0.9997 0.0248 -0.0248 0.9997 2.7068 -0.1583)" class="st22" width="12.31" height="127.58"/>
	
		<rect x="26.17" y="60.15" transform="matrix(0.9997 0.0248 -0.0248 0.9997 2.7563 -0.7674)" class="st22" width="12.31" height="101.25"/>
	
		<rect x="198.49" y="64.6" transform="matrix(0.9997 0.0248 -0.0248 0.9997 2.9174 -5.0381)" class="st22" width="12.31" height="101.07"/>
	
		<rect x="223.13" y="50.79" transform="matrix(0.9997 0.0248 -0.0248 0.9997 2.9111 -5.6493)" class="st22" width="12.31" height="127.58"/>
	
		<rect x="15.57" y="35.25" transform="matrix(0.9997 0.0248 -0.0248 0.9997 1.0331 -0.526)" class="st22" width="12.31" height="12.31"/>
	
		<rect x="27.88" y="35.55" transform="matrix(0.9997 0.0248 -0.0248 0.9997 1.0444 -0.8311)" class="st22" width="12.31" height="12.31"/>
	
		<rect x="40.19" y="35.86" transform="matrix(0.9997 0.0248 -0.0248 0.9997 1.0558 -1.1361)" class="st22" width="12.31" height="12.31"/>
	
		<rect x="52.5" y="36.16" transform="matrix(0.9997 0.0248 -0.0248 0.9997 1.0671 -1.4412)" class="st22" width="12.31" height="12.31"/>
	
		<rect x="39.56" y="62.46" transform="matrix(0.9997 0.0248 -0.0248 0.9997 1.7397 -3.0963)" class="st22" width="172.37" height="12.31"/>
	
		<rect x="37.35" y="151.37" transform="matrix(0.9997 0.0248 -0.0248 0.9997 3.9433 -3.0143)" class="st22" width="172.37" height="12.31"/>
	
		<rect x="64.81" y="36.47" transform="matrix(0.9997 0.0248 -0.0248 0.9997 1.0785 -1.7462)" class="st22" width="12.31" height="12.31"/>
	
		<rect x="77.12" y="36.77" transform="matrix(0.9997 0.0248 -0.0248 0.9997 1.0898 -2.0513)" class="st22" width="12.31" height="12.31"/>
	
		<rect x="89.43" y="37.08" transform="matrix(0.9997 0.0248 -0.0248 0.9997 1.1012 -2.3564)" class="st22" width="12.31" height="12.31"/>
	
		<rect x="101.73" y="37.38" transform="matrix(0.9997 0.0248 -0.0248 0.9997 1.1125 -2.6614)" class="st22" width="12.31" height="12.31"/>
	
		<rect x="114.04" y="37.69" transform="matrix(0.9997 0.0248 -0.0248 0.9997 1.1239 -2.9665)" class="st22" width="12.31" height="12.31"/>
	
		<rect x="114.35" y="25.38" transform="matrix(0.9997 0.0248 -0.0248 0.9997 0.8188 -2.9778)" class="st22" width="12.31" height="12.31"/>
	
		<rect x="102.34" y="12.76" transform="matrix(0.9997 0.0248 -0.0248 0.9997 0.5024 -2.6841)" class="st22" width="12.31" height="12.31"/>
	
		<rect x="90.34" y="0.15" transform="matrix(0.9997 0.0248 -0.0248 0.9997 0.186 -2.3904)" class="st22" width="12.31" height="12.31"/>
	
		<rect x="139.58" y="1.37" transform="matrix(0.9997 0.0248 -0.0248 0.9997 0.2314 -3.6106)" class="st22" width="12.31" height="12.31"/>
	
		<rect x="126.96" y="13.38" transform="matrix(0.9997 0.0248 -0.0248 0.9997 0.5251 -3.2942)" class="st22" width="12.31" height="12.31"/>
	
		<rect x="126.35" y="37.99" transform="matrix(0.9997 0.0248 -0.0248 0.9997 1.1352 -3.2715)" class="st22" width="12.31" height="12.31"/>
	
		<rect x="138.66" y="38.3" transform="matrix(0.9997 0.0248 -0.0248 0.9997 1.1466 -3.5766)" class="st22" width="12.31" height="12.31"/>
	
		<rect x="150.97" y="38.6" transform="matrix(0.9997 0.0248 -0.0248 0.9997 1.1579 -3.8816)" class="st22" width="12.31" height="12.31"/>
	
		<rect x="163.28" y="38.91" transform="matrix(0.9997 0.0248 -0.0248 0.9997 1.1693 -4.1867)" class="st22" width="12.31" height="12.31"/>
	
		<rect x="175.59" y="39.21" transform="matrix(0.9997 0.0248 -0.0248 0.9997 1.1806 -4.4918)" class="st22" width="12.31" height="12.31"/>
	
		<rect x="187.89" y="39.52" transform="matrix(0.9997 0.0248 -0.0248 0.9997 1.192 -4.7968)" class="st22" width="12.31" height="12.31"/>
	
		<rect x="200.2" y="39.82" transform="matrix(0.9997 0.0248 -0.0248 0.9997 1.2034 -5.1019)" class="st22" width="12.31" height="12.31"/>
	
		<rect x="212.51" y="40.13" transform="matrix(0.9997 0.0248 -0.0248 0.9997 1.2147 -5.4069)" class="st22" width="12.31" height="12.31"/>
	
		<rect x="36.5" y="184.9" transform="matrix(0.9997 0.0248 -0.0248 0.9997 4.7498 -0.9987)" class="st22" width="12.31" height="12.31"/>
	
		<rect x="184.17" y="189.74" transform="matrix(0.9997 0.0248 -0.0248 0.9997 4.9152 -4.6583)" class="st22" width="12.31" height="12.31"/>
	
		<rect x="12.15" y="173.16" transform="matrix(0.9997 0.0248 -0.0248 0.9997 4.4512 -0.3988)" class="st22" width="12.31" height="12.31"/>
	
		<rect x="24.46" y="173.46" transform="matrix(0.9997 0.0248 -0.0248 0.9997 4.4625 -0.7039)" class="st22" width="12.31" height="12.31"/>
	
		<rect x="36.77" y="173.77" transform="matrix(0.9997 0.0248 -0.0248 0.9997 4.4739 -1.0089)" class="st22" width="12.31" height="12.31"/>
	
		<rect x="49.08" y="174.08" transform="matrix(0.9997 0.0248 -0.0248 0.9997 4.4852 -1.314)" class="st22" width="12.31" height="12.31"/>
	
		<rect x="61.39" y="174.38" transform="matrix(0.9997 0.0248 -0.0248 0.9997 4.4966 -1.6191)" class="st22" width="12.31" height="12.31"/>
	
		<rect x="73.7" y="174.69" transform="matrix(0.9997 0.0248 -0.0248 0.9997 4.5079 -1.9241)" class="st22" width="12.31" height="12.31"/>
	
		<rect x="86.01" y="174.99" transform="matrix(0.9997 0.0248 -0.0248 0.9997 4.5193 -2.2292)" class="st22" width="12.31" height="12.31"/>
	
		<rect x="98.31" y="175.3" transform="matrix(0.9997 0.0248 -0.0248 0.9997 4.5306 -2.5342)" class="st22" width="12.31" height="12.31"/>
	
		<rect x="110.62" y="175.6" transform="matrix(0.9997 0.0248 -0.0248 0.9997 4.542 -2.8393)" class="st22" width="12.31" height="12.31"/>
	
		<rect x="122.93" y="175.91" transform="matrix(0.9997 0.0248 -0.0248 0.9997 4.5533 -3.1443)" class="st22" width="12.31" height="12.31"/>
	
		<rect x="135.24" y="176.21" transform="matrix(0.9997 0.0248 -0.0248 0.9997 4.5647 -3.4494)" class="st22" width="12.31" height="12.31"/>
	
		<rect x="147.55" y="176.52" transform="matrix(0.9997 0.0248 -0.0248 0.9997 4.576 -3.7545)" class="st22" width="12.31" height="12.31"/>
	
		<rect x="159.86" y="176.82" transform="matrix(0.9997 0.0248 -0.0248 0.9997 4.5874 -4.0595)" class="st22" width="12.31" height="12.31"/>
	
		<rect x="172.17" y="177.13" transform="matrix(0.9997 0.0248 -0.0248 0.9997 4.5987 -4.3646)" class="st22" width="12.31" height="12.31"/>
	
		<rect x="184.47" y="177.43" transform="matrix(0.9997 0.0248 -0.0248 0.9997 4.6101 -4.6696)" class="st22" width="12.31" height="12.31"/>
	
		<rect x="196.78" y="177.74" transform="matrix(0.9997 0.0248 -0.0248 0.9997 4.6214 -4.9747)" class="st22" width="12.31" height="12.31"/>
	
		<rect x="209.09" y="178.04" transform="matrix(0.9997 0.0248 -0.0248 0.9997 4.6328 -5.2798)" class="st22" width="12.31" height="12.31"/>
</g>
</svg>
