<?xml version="1.0" encoding="UTF-8"?>
<svg id="Layer_2" data-name="Layer 2" xmlns="http://www.w3.org/2000/svg" viewBox="0 0 120.7716309784 55.0442227764">
  <defs>
    <style>
      .cls-1 {
        fill: #fff;
      }
    </style>
  </defs>
  <g id="Layer_1-2" data-name="Layer 1">
    <g>
      <g>
        <path class="cls-1" d="M0,15.5327228822C0,10.0485912395,2.702132824,7.3065254181,8.1063984719,7.3065254181c5.417576647,0,8.1263649706,2.7420658213,8.1263649706,8.2261974641v5.2711556566h-5.6505191319v-5.2711556566c0-1.7570518855-.8186264467-2.6422333279-2.45587934-2.655544327h-.0399329974c-1.6239418942,0-2.4359128413.8851814424-2.4359128413,2.655544327v3.5540367684c0,1.7437408864,1.7637073851,3.8801562472,5.2911221553,6.4092460825,3.5274147702,2.5157788361,5.2911221553,5.5307201397,5.2911221553,9.0448239108v4.9516916774c0,5.4974426418-2.702132824,8.2461639628-8.1063984719,8.2461639628-5.417576647-.0133109991-8.1263649706-2.76203232-8.1263649706-8.2461639628v-5.2711556566h5.6505191319v5.2711556566c0,1.7703628847.8252819462,2.655544327,2.4758458387,2.655544327,1.6372528933,0,2.45587934-.8851814423,2.45587934-2.655544327v-4.4724957086c0-1.8901618768-1.7637073851-4.0997877329-5.2911221553-6.6288775681C1.7637073851,25.8753692084,0,22.8138394078,0,19.2065586429v-3.6738357606Z"/>
        <path class="cls-1" d="M33.6169283099,7.9254868778v5.5706531371h-5.2911221553v33.6036173108h-5.6505191319V13.4961400149h-5.2911221553v-5.5706531371h16.2327634425Z"/>
        <path class="cls-1" d="M51.1974304146,39.4925213213c0,5.4841316427-2.7087883235,8.2328529637-8.1263649706,8.2461639628-5.4042656479,0-8.1063984719-2.7487213209-8.1063984719-8.2461639628V7.9254868778h5.6505191319v31.5670344435c0,1.7703628847.8186264467,2.655544327,2.45587934,2.655544327,1.6505638925,0,2.4758458387-.8851814423,2.4758458387-2.655544327V7.9254868778h5.6505191319v31.5670344435Z"/>
        <path class="cls-1" d="M54.1458167225,7.9254868778h8.7053934329c5.0182466731.0133109991,7.5273700096,2.7620323201,7.5273700096,8.2461639628v22.701909021c0,5.4708206436-2.6289223287,8.2128864649-7.8867669862,8.2261974641h-8.3459964563V7.9254868778ZM59.7963358544,13.4961400149v28.0329641737h2.4758458387c1.6372528933,0,2.45587934-.8851814423,2.45587934-2.655544327v-22.701909021c0-1.7836738838-.8186264467-2.6755108257-2.45587934-2.6755108257h-2.4758458387Z"/>
        <path class="cls-1" d="M73.2238062296,7.9254868778h5.6505191319v39.1742704479h-5.6505191319V7.9254868778Z"/>
        <path class="cls-1" d="M97.9556426183,39.4925213213c0,5.4841316427-2.7087883235,8.2328529637-8.1263649706,8.2461639628-5.4042656479,0-8.1063984719-2.7487213209-8.1063984719-8.2461639628V15.5327228822c0-5.4841316427,2.702132824-8.2261974641,8.1063984719-8.2261974641,5.417576647,0,8.1263649706,2.7420658213,8.1263649706,8.2261974641v23.959798439ZM92.3051234864,15.5327228822c0-1.7570518855-.8186264467-2.6422333279-2.45587934-2.655544327h-.0399329974c-1.6239418942,0-2.4359128413.8851814424-2.4359128413,2.655544327v23.959798439c0,1.7703628847.8186264467,2.655544327,2.45587934,2.655544327,1.6505638925,0,2.4758458387-.8851814423,2.4758458387-2.655544327V15.5327228822Z"/>
      </g>
      <rect class="cls-1" width="120.7716297088" height="2.4758458387"/>
      <rect class="cls-1" y="52.5683769378" width="120.7716297088" height="2.4758458387"/>
      <path class="cls-1" d="M120.7716309784,39.4925117236V15.5327139944c0-5.4841304925-2.7087954383-8.2261957387-8.1263728452-8.2261957387-5.4042560142,0-8.1063974909,2.7420652462-8.1063974909,8.2261957387v23.9597977292c0,5.4974518852,2.7021414767,8.2461710931,8.1063974909,8.2461710931.4324536254-.0010640951.8456727222-.021537823,1.2436038708-.0574611339l1.4417545368,1.7783453188h5.4410144377l-2.640895397-3.25743747c1.7596495724-1.3485586658,2.640895397-3.5841281269,2.640895397-6.7096178079ZM110.1893805833,15.5327139944c0-1.7703578709.8119718884-2.6555368064,2.4359156651-2.6555368064h.0399372391c1.6372516999.0133079232,2.4558775499.8984868587,2.4558775499,2.6555368064v23.9597977292c0,1.7703713405-.8252798115,2.655550276-2.4758529042,2.655550276-1.6372516999,0-2.4558775499-.8851789355-2.4558775499-2.655550276V15.5327139944Z"/>
    </g>
  </g>
</svg>