<svg xmlns="http://www.w3.org/2000/svg" viewBox="0 0 317.75 485.0874"><defs><style>.cls-1{fill:#eee;}.cls-2{fill:#ccc;}</style></defs><g id="Layer_2" data-name="Layer 2"><g id="Objects"><polygon class="cls-1" points="301.32 301.202 301.32 142.506 238.899 80.085 238.899 49.404 220.561 31.065 220.561 2.5 201.87 2.5 201.87 21.544 186.882 36.532 95.367 36.532 70.416 61.482 70.416 80.438 58.999 91.855 15.313 91.855 15.313 104.419 26.775 115.88 42.644 115.88 63.539 136.775 63.539 151.499 50.226 151.499 50.226 167.192 75.618 192.583 68.212 199.989 45.289 177.066 29.655 177.066 29.655 192.936 24.247 198.343 4.028 198.343 4.028 218.092 20.486 218.092 20.486 249.126 28.479 249.126 28.479 233.139 46.112 250.772 46.112 285.098 60.924 299.909 60.924 317.072 50.814 317.072 38.354 329.533 38.354 340.113 45.995 347.754 30.595 363.153 30.595 387.369 39.412 396.185 31.418 404.179 22.014 394.775 14.255 402.533 14.255 419.814 37.354 442.913 31.771 448.497 22.837 439.563 2.5 459.899 18.487 475.886 33.064 461.31 41.528 469.774 41.528 482.587 66.566 482.587 84.317 464.836 84.317 451.318 100.598 435.037 100.598 455.55 114.851 469.803 131.926 452.728 119.7 440.503 133.454 426.749 147.384 440.679 172.599 440.679 193.142 420.137 208.042 435.037 233.609 435.037 242.69 425.956 242.69 412.29 223.03 412.29 223.03 397.831 273.813 397.831 315.25 356.394 315.25 301.202 301.32 301.202"/><path class="cls-2" d="M68.21191,202.48926a2.49106,2.49106,0,0,1-1.76757-.73242L44.25342,179.56641H32.15479V192.936a2.49982,2.49982,0,0,1-.73243,1.76806l-5.40771,5.40723a2.49941,2.49941,0,0,1-1.76758.73193H4.02832a2.5,2.5,0,0,1,0-5H23.21143l3.94336-3.94287v-14.834a2.49981,2.49981,0,0,1,2.5-2.5H45.28906a2.49783,2.49783,0,0,1,1.76758.73242l21.15527,21.15478,3.87061-3.87011L48.459,168.95947a2.49787,2.49787,0,0,1-.73242-1.76758V151.49854a2.49981,2.49981,0,0,1,2.5-2.5h10.813v-11.188L41.60889,118.37988H26.77441a2.49782,2.49782,0,0,1-1.76757-.73242L13.54541,106.186a2.49784,2.49784,0,0,1-.73242-1.76758V91.855a2.49981,2.49981,0,0,1,2.5-2.5H57.96338L67.916,79.40186V61.48242a2.5,2.5,0,1,1,5,0V80.4375a2.49784,2.49784,0,0,1-.73243,1.76758L60.7666,93.62256A2.49783,2.49783,0,0,1,58.999,94.355H17.813v9.02783l9.99707,9.99707H42.64453a2.49787,2.49787,0,0,1,1.76758.73242l20.895,20.895a2.49784,2.49784,0,0,1,.73242,1.76758v14.72364a2.49982,2.49982,0,0,1-2.5,2.5h-10.813v12.15771l24.65918,24.65967a2.49909,2.49909,0,0,1,0,3.53515l-7.40625,7.40577A2.49107,2.49107,0,0,1,68.21191,202.48926Z"/><path class="cls-2" d="M301.32031,303.70264a2.49981,2.49981,0,0,1-2.5-2.5V143.5415l-61.68847-61.689a2.49989,2.49989,0,0,1-.73243-1.76758V50.43945L218.793,32.833a2.49988,2.49988,0,0,1-.73242-1.76758V5H204.37012V21.54346a2.4999,2.4999,0,0,1-.73242,1.76758L188.64941,38.29932a2.49973,2.49973,0,0,1-3.53515-3.53516l14.25586-14.25635V2.5a2.49981,2.49981,0,0,1,2.5-2.5h18.69043a2.49981,2.49981,0,0,1,2.5,2.5V30.02979L240.667,47.63623a2.49988,2.49988,0,0,1,.73242,1.76758V79.04932l61.68848,61.689a2.49988,2.49988,0,0,1,.73242,1.76758V301.20264A2.49981,2.49981,0,0,1,301.32031,303.70264Z"/><path class="cls-2" d="M172.59961,443.1792H147.38428a2.5,2.5,0,0,1,0-5h24.18017L191.374,418.36963a2.4991,2.4991,0,0,1,3.53516,0l14.168,14.167h23.49707l7.61621-7.61621V414.79053H223.0293a2.49981,2.49981,0,0,1-2.5-2.5v-14.459a2.49981,2.49981,0,0,1,2.5-2.5h49.748l40.70508-40.70508a2.49974,2.49974,0,0,1,3.53516,3.53516l-41.4375,41.4375a2.49989,2.49989,0,0,1-1.76759.73242H225.5293v9.459h17.16113a2.49981,2.49981,0,0,1,2.5,2.5v13.665a2.49988,2.49988,0,0,1-.73242,1.76757L235.377,436.8042a2.49988,2.49988,0,0,1-1.76757.73242H208.042a2.4999,2.4999,0,0,1-1.76758-.73242L193.1416,423.67236l-18.77441,18.77442A2.49988,2.49988,0,0,1,172.59961,443.1792Z"/><path class="cls-2" d="M66.56641,485.0874H41.52734a2.49981,2.49981,0,0,1-2.5-2.5V470.80908L33.064,464.84521l-12.80908,12.8086a2.49909,2.49909,0,0,1-3.53515,0L.73242,461.6665a2.49909,2.49909,0,0,1,0-3.53515l20.33643-20.33594a2.49909,2.49909,0,0,1,3.53515,0l7.16651,7.166,2.04834-2.04883L12.48779,421.58154a2.49973,2.49973,0,0,1,3.53516-3.53515L39.12207,441.145a2.4991,2.4991,0,0,1,0,3.53516l-5.584,5.584a2.4991,2.4991,0,0,1-3.53516,0l-7.1665-7.166L6.03564,459.89893,18.4873,472.35107l12.80909-12.80859a2.49988,2.49988,0,0,1,1.76757-.73242h0a2.49988,2.49988,0,0,1,1.76758.73242l8.46338,8.46387a2.49783,2.49783,0,0,1,.73242,1.76758V480.0874H65.53076l16.28613-16.28613v-12.4834a2.49785,2.49785,0,0,1,.73243-1.76758L98.83057,433.269a2.49989,2.49989,0,0,1,4.26757,1.76758v19.47754l13.521,13.52148a2.49974,2.49974,0,1,1-3.53516,3.53516L98.83057,457.31689a2.49783,2.49783,0,0,1-.73243-1.76757V441.07178L86.81689,452.353v12.4834a2.49782,2.49782,0,0,1-.73242,1.76757L68.334,484.355A2.49988,2.49988,0,0,1,66.56641,485.0874Z"/><path class="cls-2" d="M39.41162,398.68506a2.49109,2.49109,0,0,1-1.76758-.73242l-8.8164-8.81641a2.49784,2.49784,0,0,1-.73243-1.76758V363.15283a2.49785,2.49785,0,0,1,.73243-1.76758L42.459,347.75342l-5.873-5.873a2.49783,2.49783,0,0,1-.73242-1.76758V329.53271a2.49782,2.49782,0,0,1,.73242-1.76757L49.04688,315.3042a2.49988,2.49988,0,0,1,1.76757-.73242h7.60938v-13.627l-14.0791-14.0791a2.49784,2.49784,0,0,1-.73243-1.76758V251.80762L30.979,239.1748v9.95166a2.49981,2.49981,0,0,1-2.5,2.5H20.48535a2.5,2.5,0,1,1,0-5H25.979v-13.4873a2.4999,2.4999,0,0,1,4.26758-1.76758l17.6333,17.63281a2.49784,2.49784,0,0,1,.73242,1.76758v33.291l14.07911,14.0791a2.49787,2.49787,0,0,1,.73242,1.76758v17.16211a2.49981,2.49981,0,0,1-2.5,2.5H51.8501L40.85352,330.56787v8.50977l6.90869,6.9082a2.4991,2.4991,0,0,1,0,3.53516l-14.667,14.667V386.3335l8.084,8.084a2.5,2.5,0,0,1-1.76758,4.26758Z"/></g></g></svg>