<svg xmlns="http://www.w3.org/2000/svg" viewBox="0 0 45.74256 51.3641"><defs><style>.cls-1{fill:#fff;}</style></defs><g id="Layer_2" data-name="Layer 2"><g id="Layer_1-2" data-name="Layer 1"><path class="cls-1" d="M35.25643,5.34609l-.0043-.0077q.04455.08175.0887.1642C35.31273,5.449,35.28473,5.39609,35.25643,5.34609Z"/><path class="cls-1" d="M.00823,38.239c-.0005.0219.0006.0496.0024.0794l-.0024-.0808Z"/><path class="cls-1" d="M43.26393,23.88449a60.14773,60.14773,0,0,0-2.4952-7.7212c-.7222-1.8268-1.6329-5.0828-1.9124-5.7482-2.6429-6.2912-5.2537-11.1029-8.1026-10.3343-2.3212.6262-8.3097,3.7929-8.6746,7.5541a4.12361,4.12361,0,0,0,1.9071,3.7703c2.3366,1.7716,3.6767,2.9018,4.5636,3.6497a10.44268,10.44268,0,0,0,1.5864,1.2079c.2784,1.5347-.0277,6.8346-.5467,12.5695L29.424,30.087a11.06851,11.06851,0,0,1-2.5396-1.2394c-3.2501-1.8127-8.6484-4.8236-14.6382-.0755a29.968,29.968,0,0,0-5.0886-.0006,10.02529,10.02529,0,0,0-5.1012,2.7267,7.34263,7.34263,0,0,0-1.7529,3.2283,15.753,15.753,0,0,0-.2953,3.5111l.0024.0808a9.669,9.669,0,0,0,.2237,1.756,14.24548,14.24548,0,0,0,4.4204,7.9366,9.7141,9.7141,0,0,0,8.2364,2.2333c.8011-.1225,6.7064,1.0449,7.4989,1.104,2.8063.2097,8.9449-1.7075,11.6335-3.3026,1.2954-.7684,3.2992-.8371,4.9833-1.1545,3.0616-.5766,6.5315-1.2303,8.1925-4.7737a6.11266,6.11266,0,0,0,.4844-2.0052C46.058,36.254,44.57453,29.15809,43.26393,23.88449Zm-8.0075-18.5384c.0283.05.0563.1029.0844.1565q-.0441-.08235-.0887-.1642Z"/></g></g></svg>