<svg xmlns="http://www.w3.org/2000/svg" viewBox="0 0 61.55558 39.25356"><defs><style>.cls-1{fill:#fff;}</style></defs><g id="Layer_2" data-name="Layer 2"><g id="Layer_1-2" data-name="Layer 1"><path class="cls-1" d="M18.95348,19.62631a1.57065,1.57065,0,0,0-1.6655,1.704,1.679,1.679,0,1,0,3.3578-.034A1.55848,1.55848,0,0,0,18.95348,19.62631Z"/><path class="cls-1" d="M16.72018,21.81521a3.22736,3.22736,0,0,0-2.5706,2.5144,8.01749,8.01749,0,0,0,2.5617.8543,1.64717,1.64717,0,0,0,1.7011-1.6987A1.55835,1.55835,0,0,0,16.72018,21.81521Z"/><path class="cls-1" d="M20.63248,16.79121a1.57048,1.57048,0,0,0-1.6656,1.704,1.679,1.679,0,1,0,3.3579-.0342A1.55838,1.55838,0,0,0,20.63248,16.79121Z"/><path class="cls-1" d="M22.10658,13.77921a1.57113,1.57113,0,0,0-1.6658,1.7042,1.67909,1.67909,0,1,0,3.358-.0342A1.55874,1.55874,0,0,0,22.10658,13.77921Z"/><path class="cls-1" d="M28.74228,12.66261a1.65075,1.65075,0,1,1-1.6507-1.6507A1.65056,1.65056,0,0,1,28.74228,12.66261Z"/><path class="cls-1" d="M14.28648,39.252s22.9287.0954,31.0289-1.2104a.50624.50624,0,0,0,.0885-.9786c-7.0949-2.3807-19.3061-4.0362-19.1905-4.069C26.21338,32.994,8.32348,38.30021,14.28648,39.252Z"/><path class="cls-1" d="M60.56638,17.85431c-.4553-.7505-.8771-1.5223-1.3255-2.2782a4.36975,4.36975,0,0,1-.5342-1.3668,8.22858,8.22858,0,0,0-1.2723-3.3376,80.825,80.825,0,0,0-5.1405-6.4236,11.16827,11.16827,0,0,1-2.3726-3.5519c-.3557-.9613-.8383-1.0114-1.8371-.7827a7.49469,7.49469,0,0,0-5.6603,5.8572,3.472,3.472,0,0,1-2.5122,2.512,41.42293,41.42293,0,0,1-10.2791-.1789.51476.51476,0,0,1-.4682-.5697,2.25237,2.25237,0,0,0-2.0369-2.4067c-.7309-.1735-1.4742-.2984-2.1905-.5111a1.76393,1.76393,0,0,0-2.0729.7522,4.98493,4.98493,0,0,0-.6807,1.3061,22.55922,22.55922,0,0,0-1.0809,5.2779,5.907,5.907,0,0,1-.3983,2.1959c-.8254,1.5764-1.5493,3.2129-2.4677,4.7315a8.29329,8.29329,0,0,1-4.6616,4.0166c-1.8922.5613-3.5431.8006-5.7694,1.2795-6.2771,1.3525-8.0655,4.3508-7.776,7.2219a7.81962,7.81962,0,0,0,5.9443,6.7986,34.44725,34.44725,0,0,0,6.9949.8206c.4448.0149.8843.0259,1.3173.0354,2.1084-.0145,3.9666-.1412,5.8266-.286a15.137,15.137,0,0,0,7.7454-2.6497,17.32641,17.32641,0,0,1,2.9195-1.6508,22.62579,22.62579,0,0,1,4.6386-1.4599,165.69564,165.69564,0,0,0,16.5956-4.3669,34.03645,34.03645,0,0,0,5.9283-2.3011C60.81318,24.98681,62.86448,21.63671,60.56638,17.85431Zm-37.9417,14.8694a26.20223,26.20223,0,0,1-12.711,3.016c-2.7336-.0091-6.63-.962-7.5979-3.5891-.8944-2.4279-.3067-4.6005,5.8786-6.134,1.9799-.491,6.8599-.3823,9.9547-3.967a5.60415,5.60415,0,0,0,.3911-.5521c.2644-.3915.5417-.8362.8309-1.3419.6825-1.1953,1.3954-2.4746,2.0496-3.6628.1018-.1842.2019-.3663.2982-.5449.2557-.4645,1.6082-2.8613,2.613-4.6405a3.21435,3.21435,0,0,1,3.3583-1.5897c2.9985.5268,8.241,1.4075,10.7743,1.5953a8.47973,8.47973,0,0,0,2.1782-.0806,5.238,5.238,0,0,0,4.4863-4.2042,14.09134,14.09134,0,0,1,1.1022-3.418,4.01014,4.01014,0,0,1,1.8138-1.7581c.2502-.1198.5271-.2039.647.1357.6806,1.9369,2.2887,3.1787,3.5019,4.7172.0409.0498.0821.0981.1236.148.7538.9185.75.9151.141,1.9351a10.03036,10.03036,0,0,0-1.3688,4.5117,18.25425,18.25425,0,0,0,.019,2.8269,28.29006,28.29006,0,0,0-9.5483.1689,23.05867,23.05867,0,0,0-3.3682.6853l-.0285.0075h.0038c-4.3315,1.2444-7.6739,3.7571-10.806,7.7841a45.487,45.487,0,0,0-3.7112,6.6524A2.54585,2.54585,0,0,1,22.62468,32.72371Zm3.9916-2.4212c7.3543-12.9314,18.5875-11.9153,21.8652-9.6532C40.81388,23.00691,38.226,23.73541,26.61628,30.30251Zm23.1231-3.5279a1.63769,1.63769,0,1,1,1.6472-1.6504A1.68244,1.68244,0,0,1,49.73938,26.77461Zm5.1114-1.9038a1.80667,1.80667,0,0,1-1.853-1.7634,1.81278,1.81278,0,1,1,3.6255-.0056A1.84884,1.84884,0,0,1,54.85078,24.87081Z"/></g></g></svg>