<svg xmlns="http://www.w3.org/2000/svg" viewBox="0 0 63.65983 59.31511"><defs><style>.cls-1{fill:#fff;}</style></defs><g id="Layer_2" data-name="Layer 2"><g id="Layer_1-2" data-name="Layer 1"><path class="cls-1" d="M18.21814,52.772a1.71786,1.71786,0,0,1,1.6777.0063l1.1403.6439a8.96748,8.96748,0,1,0-3.999.005Z"/><path class="cls-1" d="M62.50284.03765a1.48741,1.48741,0,0,0-1.7812,1.1191l-2.1265,9.959a1.12994,1.12994,0,0,1-.5355.7402l-3.6753,2.1458.6105-3.2896,1.317-2.6191,1.307-1.0441a.87246.87246,0,0,0,.1439-1.2173l-1.1809-1.5178a.86021.86021,0,0,0-1.2079-.15l-13.4924,10.5249a.8624.8624,0,0,0-.1502,1.2094l1.1865,1.5248a.8614.8614,0,0,0,1.2086.151l.9031-.7028,3.2212.355-5.0422,23.2994a3.45678,3.45678,0,0,1-5.2601,2.1709c-4.0832-2.6492-9.9223-6.4338-11.7067-7.5691a11.94906,11.94906,0,0,0-7.2163-2.411,12.09358,12.09358,0,0,0-1.9394.1568l-4.2247-9.5698c6.7551-1.8632,8.3395-2.7173,8.2287-3.587a1.79573,1.79573,0,0,0-1.7025-1.5703s-8.1493.006-9.6414-.0002c-2.3783-.0099-3.6469-.2651-5.6355-.2651-2.026,0-3.4083,1.9503-.4354,4.3361,1.7041,1.3678,2.2533,3.1812,4.7036,2.3954l3.6752,10.3355A11.97631,11.97631,0,0,0,8.22,49.89435l-4.9538,3.3813c-.0809-.0065-.1585-.0243-.241-.0243a3.026,3.026,0,1,0,2.8115,4.1259l5.3289-3.6374a11.99768,11.99768,0,0,0,3.1831,1.9862,1.71677,1.71677,0,0,1,.8701-1.2902l.2855-.1584a10.22613,10.22613,0,0,1-6.6987-9.6288,10.35472,10.35472,0,0,1,10.0674-10.162,10.207,10.207,0,0,1,3.6759,19.7899l.246.1388a1.71743,1.71743,0,0,1,.7569,2.2558c9.9746,0,18.9471-.0084,19.1047-.0231a3.05415,3.05415,0,1,0,5.2336-2.4962l5.6808-35.768,7.09-4.891a1.63766,1.63766,0,0,0,.671-1.0039l2.2903-10.6704A1.48725,1.48725,0,0,0,62.50284.03765Z"/><path class="cls-1" d="M22.10664,55.19915l-2.5254-1.4262a1.08517,1.08517,0,0,0-1.0595-.004l-2.6065,1.4461a1.08445,1.08445,0,0,0,.5262,2.0327h5.1681a1.08465,1.08465,0,0,0,.4971-2.0486Z"/></g></g></svg>