<svg xmlns="http://www.w3.org/2000/svg" viewBox="0 0 60.0276 44.0583"><defs><style>.cls-1{fill:#fff;}</style></defs><g id="Layer_2" data-name="Layer 2"><g id="Layer_1-2" data-name="Layer 1"><path class="cls-1" d="M18.1488,10.788v-.6531a2.56376,2.56376,0,0,1-.9436-1.9961V5.4391a2.56076,2.56076,0,0,1,.858-1.9208V1.9766A1.26788,1.26788,0,0,0,17.6184.983,4.70711,4.70711,0,0,0,16.1731.4316,25.36277,25.36277,0,0,0,10.5611,0,23.333,23.333,0,0,0,4.3332.5515a4.26,4.26,0,0,0-1.1582.4752,1.28462,1.28462,0,0,0-.3933.9499V4.1364a1.20852,1.20852,0,0,0,.6314,1.1094v1.854H3.0995C1.3875,7.0998,0,8.7591,0,10.8061v17.413A3.79456,3.79456,0,0,0,1.8392,31.606a14.38839,14.38839,0,0,0,3.359.9203,32.3091,32.3091,0,0,0,5.2243.3457c.9515,0,1.8302-.0435,2.6251-.1115V16.4756A5.729,5.729,0,0,1,18.1488,10.788Z"/><path class="cls-1" d="M41.8789,10.788v-.6531a2.564,2.564,0,0,0,.9435-1.9961V5.4391a2.56048,2.56048,0,0,0-.8577-1.9208V1.9766A1.26718,1.26718,0,0,1,42.4094.983,4.70613,4.70613,0,0,1,43.8546.4316,25.36342,25.36342,0,0,1,49.4669,0a23.33917,23.33917,0,0,1,6.228.5515,4.25827,4.25827,0,0,1,1.158.4752,1.28517,1.28517,0,0,1,.393.9499V4.1364a1.209,1.209,0,0,1-.631,1.1094v1.854h.3137c1.7118,0,3.099,1.6593,3.099,3.7063v17.413a3.79454,3.79454,0,0,1-1.8389,3.3869,14.3937,14.3937,0,0,1-3.3588.9203,32.31394,32.31394,0,0,1-5.2245.3457c-.9515,0-1.8305-.0435-2.6251-.1115V16.4756A5.72929,5.72929,0,0,0,41.8789,10.788Z"/><path class="cls-1" d="M45.5925,16.4756a4.63245,4.63245,0,0,0-4.6326-4.6324h-.4688V9.5259a1.49226,1.49226,0,0,0,.9436-1.3871V5.4391a1.48987,1.48987,0,0,0-.6648-1.2419,7.85642,7.85642,0,0,0-2.1601-.6895,45.15407,45.15407,0,0,0-8.3888-.5393c-5.5766,0-8.1668.4008-9.3089.6892a7.09053,7.09053,0,0,0-1.7314.5942,1.49069,1.49069,0,0,0-.5876,1.1873V8.1388a1.49252,1.49252,0,0,0,.9434,1.3871v2.3173h-.4687a4.63236,4.63236,0,0,0-4.6325,4.6324V38.242a4.63361,4.63361,0,0,0,2.7489,4.2336,24.8128,24.8128,0,0,0,5.0207,1.1504,57.51894,57.51894,0,0,0,7.8089.4323,45.25358,45.25358,0,0,0,10.9461-1.1836,4.63283,4.63283,0,0,0,4.6326-4.6327ZM29.9916,20.366a82.18532,82.18532,0,0,1,9.0592.448,1.38065,1.38065,0,0,1,1.2278,1.3717V32.296a1.37446,1.37446,0,0,1-1.0322,1.336,38.14569,38.14569,0,0,1-9.2548.9584,42.15554,42.15554,0,0,1-9.6333-.9757,1.37626,1.37626,0,0,1-1.0561-1.3421V22.1971a1.37615,1.37615,0,0,1,1.2279-1.3719A90.78392,90.78392,0,0,1,29.9916,20.366Z"/></g></g></svg>