<svg xmlns="http://www.w3.org/2000/svg" viewBox="0 0 57.0074 63.5751"><defs><style>.cls-1{fill:#fff;}</style></defs><g id="Layer_2" data-name="Layer 2"><g id="Layer_1-2" data-name="Layer 1"><path class="cls-1" d="M45.5855,7.7684c.352-1.6084-2.0222-2.891-3.0932-.6657-4.4156,9.1774-8.4599,13.4917-9.2343,14.325a10.00189,10.00189,0,0,1-3.9832,2.5546c-.0491.0082-.1001.0144-.1504.0219-.1053.0147-.2109.0279-.319.0366-.0642.0052-.1279.0126-.1922.0142h-.2189c-.0643-.0016-.1282-.009-.1923-.0142-.1082-.0087-.2138-.0219-.319-.0366-.0503-.0075-.1014-.0137-.1505-.0219a10.00024,10.00024,0,0,1-3.9828-2.5545c-.7746-.8334-4.8188-5.1477-9.2348-14.3251-1.0706-2.2253-3.445-.9427-3.093.6657,2.7447,12.541,7.7267,17.3463,8.6819,19.7965a22.42305,22.42305,0,0,1,1.1139,11.7095c-.865,3.8178-2.3525,6.7548-3.939,17.2814-.5309,3.5442-1.1207,7.0193,1.7077,7.0193,1.4577,0,2.6946-2.3063,4.1437-7.8768.9962-3.797,2.6301-8.1788,4.3037-10.3269a1.35052,1.35052,0,0,1,2.14,0c1.6734,2.1481,3.3073,6.5299,4.3036,10.3269,1.4491,5.5705,2.6861,7.8768,4.1436,7.8768,2.7838,0,2.2386-3.4751,1.7078-7.0193-1.5866-10.5266-3.074-13.4636-3.9392-17.2814a22.424,22.424,0,0,1,1.1141-11.7095C37.8588,25.1147,42.8407,20.3094,45.5855,7.7684Z"/><path class="cls-1" d="M28.0561,24.2474c.0259.0009.8187.0025.8187.0025l.0546-.0016c2.475-.0962,4.2731-2.3373,4.4477-5.276.1892-3.1892-1.9445-5.9722-4.8075-6.0584v-.0038h-.1319v.0038c-2.8635.0862-4.9968,2.8692-4.8074,6.0584C23.8045,21.9024,25.5907,24.1392,28.0561,24.2474Z"/><path class="cls-1" d="M55.9248,8.6583H1.0827A1.08278,1.08278,0,0,1,0,7.5756H0A1.0826,1.0826,0,0,1,1.0827,6.4931H55.9248a1.08252,1.08252,0,0,1,1.0826,1.0825h0A1.08269,1.08269,0,0,1,55.9248,8.6583Z"/><path class="cls-1" d="M3.8113,15.1512h0a2.171,2.171,0,0,1-2.1711-2.171V2.171A2.1711,2.1711,0,0,1,3.8113,0h0A2.17116,2.17116,0,0,1,5.9824,2.171V12.9802A2.171,2.171,0,0,1,3.8113,15.1512Z"/><path class="cls-1" d="M7.4143,15.1512h0a2.17089,2.17089,0,0,1-2.171-2.171V2.171A2.171,2.171,0,0,1,7.4143,0h0A2.17116,2.17116,0,0,1,9.5854,2.171V12.9802A2.171,2.171,0,0,1,7.4143,15.1512Z"/><path class="cls-1" d="M49.5931,15.1512h0a2.171,2.171,0,0,1-2.1711-2.171V2.171A2.17116,2.17116,0,0,1,49.5931,0h0a2.1711,2.1711,0,0,1,2.1711,2.171V12.9802A2.171,2.171,0,0,1,49.5931,15.1512Z"/><path class="cls-1" d="M53.1961,15.1512h0a2.171,2.171,0,0,1-2.171-2.171V2.171A2.17114,2.17114,0,0,1,53.1961,0h0a2.171,2.171,0,0,1,2.1711,2.171V12.9802A2.17091,2.17091,0,0,1,53.1961,15.1512Z"/></g></g></svg>