<svg xmlns="http://www.w3.org/2000/svg" viewBox="0 0 53.5548 44.263"><defs><style>.cls-1{fill:#fff;}</style></defs><g id="Layer_2" data-name="Layer 2"><g id="Layer_1-2" data-name="Layer 1"><path class="cls-1" d="M39.4945,0A13.25989,13.25989,0,0,0,26.7774,9.5628,13.25964,13.25964,0,0,0,14.0605,0C6.3073,0,0,7.5901,0,15.8625,0,29.3861,13.5242,40.2989,26.7774,44.263c13.2532-3.9641,26.7774-14.8769,26.7774-28.4005C53.5548,7.5901,47.2475,0,39.4945,0Zm8.5841,21.4055-12.5629.0005a1.12644,1.12644,0,0,1-1.0871-.8303l-1.1268-4.1389L29.186,32.8907a1.10439,1.10439,0,0,1-1.0717.8366h-.0172a1.12825,1.12825,0,0,1-1.0848-.8268L22.9543,18.206,20.0071,29.1231a1.12045,1.12045,0,0,1-1.0518.8336l-.0479-.0011a1.1293,1.1293,0,0,1-1.088-.8844L16.1286,21.406H5.4769a.47062.47062,0,0,1-.4641-.3923l-.2561-1.5141a.296.296,0,0,1,.2918-.3457H17.0336a1.13364,1.13364,0,0,1,1.0997.8835l.8623,4.0985,2.8599-10.4995a1.12622,1.12622,0,0,1,2.1728-.0054l4.0156,14.5441,4.1193-16.4664a1.126,1.126,0,0,1,2.1789-.0227l2.0341,7.4679,12.1304-.0008a.29627.29627,0,0,1,.2921.3456l-.2563,1.5146A.47049.47049,0,0,1,48.0786,21.4055Z"/></g></g></svg>