<svg xmlns="http://www.w3.org/2000/svg" viewBox="0 0 75.14183 40.0796"><defs><style>.cls-1{fill:#fff;}</style></defs><g id="Layer_2" data-name="Layer 2"><g id="Layer_1-2" data-name="Layer 1"><path class="cls-1" d="M75.13243,14.35237c-.0763-1.4936-.6421-1.6871-1.9666-1.8511a12.07407,12.07407,0,0,0-6.4271,1.5034c1.7915,3.5465,2.1001,8.6076,1.0131,13.3889C73.39283,22.41257,75.294,17.52587,75.13243,14.35237Z"/><path class="cls-1" d="M32.557,20.91567a29.2868,29.2868,0,0,1-13.346-7.5981c-2.8743-2.9793-7.2375-3.3933-8.9916-3.433-4.688-5.0691-5.0348-8.87-5.8851-9.0588-.9425-.2093-4.4918,2.4176-4.3289,3.5565.1491,1.0422,6.2683,7.2382,7.3061,8.2828-.0405,2.2775.2905,7.8439,4.0886,12.1184a38.60492,38.60492,0,0,0,27.0951,12.7049C34.354,33.51777,32.31763,26.79667,32.557,20.91567Z"/><path class="cls-1" d="M61.23613,9.48237c-2.4819-.8866-5.7881-.3036-9.9545,2.5374.3754-5.6306,5.7159-9.0405,5.954-9.2063a1.5435,1.5435,0,0,0-1.7521-2.5416c-.2894.199-6.0472,4.3722-6.3732,11.4588-4.0503-2.6474-7.2665-3.1274-9.6799-2.1916-10.4587,4.0546-5.8726,34.6343,10.9822,30.0792C67.35083,44.19587,71.89723,13.29017,61.23613,9.48237Zm-1.2344,20.1858c-2.8287-8.458,2.15-8.2319.4244-15.7849C65.09353,15.89187,65.60293,25.56637,60.00173,29.66817Z"/></g></g></svg>