<svg xmlns="http://www.w3.org/2000/svg" viewBox="0 0 49.44993 58.80781"><defs><style>.cls-1{fill:#fff;}</style></defs><g id="Layer_2" data-name="Layer 2"><g id="Layer_1-2" data-name="Layer 1"><path class="cls-1" d="M0,38.4187c0,1.9687,3.248,2.0971,8.9259,2.0183,6.4387-.0894,9.1941-.662,12.3934-2.4115,2.0764-1.1359,4.5891-2.6542,4.8679-2.8809,3.2569,4.3098,5.7173,6.5879,4.5554,9.0588-2.0112,4.2775-8.0688,13.1749-5.5379,14.455,1.7269.8739,4.1252-2.1637,7.7115-7.0713,3.3939-4.6447,4.8233-7.0263,5.0342-8.9349.1623-1.4682-.3193-3.8933-2.5035-8.6017-.8886-1.915-2.8555-4.8775-2.6566-5.8348a20.33949,20.33949,0,0,1,2.411-4.4142c.871,1.1493,1.6898,2.1463,4.3674,1.6386,3.204-.6078,10.4778-2.7316,9.8421-4.9764-.4276-1.5097-3.6687-.0375-9.6666.6476-1.6676.1903.4065-6.6902-2.2988-8.2613a18.06869,18.06869,0,0,1-4.5383-3.2681c-1.439-1.5949-3.7419-.7417-4.5362-.4653-4.5052,1.567-9.3485,5.4859-9.3485,7.2342,0,1.2001,2.255,3.7361,5.2677,6.779a27.25106,27.25106,0,0,1-3.2417,4.221c-2.9818,3.6597-3.7527,6.5367-7.8754,7.4833C7.5517,36.1244,0,36.268,0,38.4187ZM26.2751,16.1341a12.1077,12.1077,0,0,1-.4633,2.9333,13.625,13.625,0,0,1-1.1947-1.5567C24.2022,16.9093,25.2715,16.5703,26.2751,16.1341Z"/><path class="cls-1" d="M39.0474,11.4436q-.1299.00555-.2587.0055c-2.8982,0-5.1813-2.1208-5.9581-5.5349a4.5216,4.5216,0,0,1,.9481-4.2363A5.39455,5.39455,0,0,1,37.5077.0043Q37.6025,0,37.6967,0c2.6583,0,4.9645,2.4963,5.1412,5.5645a7.17912,7.17912,0,0,1-.8813,4.2008A3.45294,3.45294,0,0,1,39.0474,11.4436Z"/></g></g></svg>