<svg xmlns="http://www.w3.org/2000/svg" viewBox="0 0 711.18058 181.28317"><defs><style>.cls-1{fill:#181d62;}</style></defs><g id="Layer_2" data-name="Layer 2"><g id="레이어_1" data-name="레이어 1"><polygon class="cls-1" points="407.626 137.271 461.219 137.271 459.332 147.73 405.739 147.73 407.626 137.271"/><path class="cls-1" d="M334.68418,100.835c1.9987-11.0716-6.6423-20.0753-20.9893-20.0753h-25.2304l-2.6411,14.7496h24.8388c3.7093,0,6.7456,2.3763,6.0532,6.207-.6843,3.7934-4.5489,6.2443-8.2933,6.2074l-7.2075-.0392.7657-4.2415h-17.6148l-6.9632,38.877h17.6453l4.8391-26.8187,12.9276,26.8187h20.6552l-13.3363-24.7888c7.0106-2.7575,13.1616-9.1949,14.551-16.8962"/><polygon class="cls-1" points="278.656 80.76 235.574 80.76 232.912 95.51 275.994 95.51 278.656 80.76"/><polygon class="cls-1" points="231.516 104.461 224.429 142.52 267.511 142.52 270.283 127.157 244.64 127.157 246.237 118.306 267.345 118.306 269.813 104.628 248.705 104.628 248.955 104.461 231.516 104.461"/><polygon class="cls-1" points="226.343 80.76 176.088 80.76 173.426 95.51 216.545 95.51 226.343 80.76"/><polygon class="cls-1" points="164.942 142.52 215.197 142.52 217.976 127.118 195.55 127.118 211.144 103.643 190.769 103.643 164.942 142.52"/><path class="cls-1" d="M384.85708,79.112a44.92351,44.92351,0,0,0-34.8726,16.3973h26.0799a22.944,22.944,0,0,1,5.9781-.8044c10.5539,0,17.3072,7.3561,15.5853,16.8968-1.7149,9.5003-11.1156,16.8188-21.6696,16.8188-10.5537,0-17.314-7.3185-15.5992-16.8188a18.84911,18.84911,0,0,1,3.5522-7.981h-18.9016a34.86178,34.86178,0,0,0-2.5221,8.0965c-3.3189,18.3885,9.947,32.3735,30.6017,32.3735,20.6962,0,39.0497-13.985,42.3685-32.3735,3.347-18.5438-9.9471-32.6052-30.6006-32.6052"/><path class="cls-1" d="M517.82307,124.89718c-1.7857,11.2043-11.2046,19.7717-25.3323,19.7717h-27.362l12.70781-65.4478h21.51459c11.6115,0,18.4719,7.2675,16.8491,17.0522-1.05869,6.1717-4.751,10.5557-9.1339,11.5302,6.3329.1207,12.4604,6.3745,10.7567,17.0937m-23.0177-8.4044-6.8612-.041-2.3948,12.422h6.6576c5.0747,0,8.15961-2.3541,8.849-5.8047.81261-3.8979-1.9076-6.5763-6.2506-6.5763m.3247-22.1684h-2.8827l-1.989,10.2718h3.0051c3.1657,0,6.6166-1.1374,7.388-5.0336.6086-3.0453-1.462-5.2382-5.5214-5.2382"/><path class="cls-1" d="M562.35667,137.03538h-22.2076l-4.3829,7.6323h-20.3783l41.4463-66.2592h9.3768l15.7528,66.2592H563.85758Zm-2.5162-12.7081-3.1692-15.9961-9.2138,15.9961Z"/><path class="cls-1" d="M586.42987,111.13268c3.5316-22.4107,23.6252-34.6731,40.391-33.2518,9.1364.7721,17.5398,5.6438,21.7621,13.1142l-12.6679,11.4897c-3.6524-5.5219-7.8746-7.9576-12.9494-7.9576-8.6074,0-16.685,6.8214-18.6724,16.647-1.991,9.7437,2.7566,18.4324,12.8662,18.4324,4.9549,0,9.6614-2.1933,14.5333-6.0103l7.7563,13.7242a40.43947,40.43947,0,0,1-25.0908,8.7685c-20.1335,0-30.9723-15.8331-27.9284-34.9563"/><polygon class="cls-1" points="685.564 111.863 699.65 144.669 680.528 144.669 668.879 117.06 663.522 144.669 645.778 144.669 658.487 79.221 676.226 79.221 671.516 103.419 690.068 79.221 711.181 79.221 685.564 111.863"/><polygon class="cls-1" points="188.633 42.093 203.157 42.093 203.869 34.098 181.064 34.098 177.857 70.105 186.138 70.105 187.513 54.672 198.123 54.672 198.815 46.894 188.205 46.894 188.633 42.093"/><polygon class="cls-1" points="202.836 70.105 211.116 70.105 214.323 34.098 206.042 34.098 202.836 70.105"/><polygon class="cls-1" points="244.369 34.098 216.454 34.098 215.743 42.093 225.343 42.093 222.849 70.105 231.129 70.105 233.624 42.093 243.657 42.093 244.369 34.098"/><polygon class="cls-1" points="261.045 51.695 250.512 34.098 245.78 34.098 242.573 70.105 250.648 70.105 252.274 51.841 263.101 70.541 267.441 70.541 270.686 34.098 262.612 34.098 261.045 51.695"/><polygon class="cls-1" points="281.265 54.672 291.237 54.672 291.929 46.894 281.958 46.894 282.385 42.093 296.292 42.093 297.004 34.098 274.816 34.098 271.61 70.105 293.57 70.105 294.283 62.11 280.603 62.11 281.265 54.672"/><path class="cls-1" d="M311.04438,49.05368l-2.3489-1.2358a13.55453,13.55453,0,0,1-2.5459-1.5738,2.08342,2.08342,0,0,1-.5305-.8626,3.39093,3.39093,0,0,1-.134-1.397,2.92563,2.92563,0,0,1,.8772-1.9687,2.61461,2.61461,0,0,1,1.9723-.6851,7.0861,7.0861,0,0,1,2.3665.4644,6.25662,6.25662,0,0,1,1.7874.8701l2.1877,1.7991,3.1368-7.6613-.9976-.9523c-1.6198-1.546-4.3198-2.2975-8.2542-2.2975a11.18678,11.18678,0,0,0-7.7534,2.893,10.77043,10.77043,0,0,0-3.5777,7.2489,11.31005,11.31005,0,0,0,.9794,6.1057,10.65989,10.65989,0,0,0,4.8928,4.5286l2.3147,1.1937c2.4663,1.2883,2.8928,2.0373,2.9327,2.1173a3.49489,3.49489,0,0,1,.3435,1.9245,3.14513,3.14513,0,0,1-1.0967,2.2136,3.78352,3.78352,0,0,1-2.6155.8765,8.23683,8.23683,0,0,1-4.4281-1.6104l-2.0894-1.7391-3.6809,7.9338,1.3092.9858a12.88377,12.88377,0,0,0,7.9424,2.4254,13.303,13.303,0,0,0,8.881-3.0024,10.8065,10.8065,0,0,0,3.9831-7.4666,12.245,12.245,0,0,0-.9586-6.5237A10.76509,10.76509,0,0,0,311.04438,49.05368Z"/><path class="cls-1" d="M333.44718,49.05368l-2.3489-1.2358a13.55534,13.55534,0,0,1-2.5458-1.5738,2.0824,2.0824,0,0,1-.5305-.8626,3.38755,3.38755,0,0,1-.134-1.397,2.92563,2.92563,0,0,1,.8772-1.9687,2.614,2.614,0,0,1,1.9719-.6851,7.08685,7.08685,0,0,1,2.3669.4644,6.25826,6.25826,0,0,1,1.7874.8701l2.1877,1.7991,3.1367-7.6613-.9975-.9523c-1.62-1.546-4.3199-2.2975-8.2543-2.2975a11.18653,11.18653,0,0,0-7.7533,2.893,10.77,10.77,0,0,0-3.5777,7.2489,11.30912,11.30912,0,0,0,.9794,6.1057,10.65989,10.65989,0,0,0,4.8928,4.5286l2.3147,1.1937c2.4662,1.2883,2.8927,2.0373,2.9327,2.1173a3.49667,3.49667,0,0,1,.3435,1.9245,3.14475,3.14475,0,0,1-1.0967,2.2136,3.78387,3.78387,0,0,1-2.6155.8765,8.23754,8.23754,0,0,1-4.4282-1.6104l-2.0893-1.7391-3.6809,7.9338,1.3093.9858a12.88326,12.88326,0,0,0,7.9423,2.4254,13.30255,13.30255,0,0,0,8.8809-3.0024,10.80663,10.80663,0,0,0,3.9832-7.4666,12.245,12.245,0,0,0-.9586-6.5237A10.76586,10.76586,0,0,0,333.44718,49.05368Z"/><rect class="cls-1" x="353.99038" y="51.55628" width="357.19021" height="1.5951"/><path class="cls-1" d="M106.211,27.238c15.58807,6.82423,27.17939,22.04779,33.36329,37.469.69174,1.84069,1.27679,3.70649,1.82795,5.59352.09965.33788.19938.67584.3021,1.02392a66.16326,66.16326,0,0,1,2.32862,18.31193c-.007,1.00531,0,2.01.00822,3.0153a64.04387,64.04387,0,0,1-2.63894,18.33108c-.16505.565-.16505.565-.33335,1.14146-1.96437,6.47027-5.06612,12.29922-8.45768,18.1176l-.43282.86565c.46218.87522.9651,1.72911,1.48772,2.56964,1.54185,2.48319,1.54185,2.48319,1.54185,3.92214a9.77353,9.77353,0,0,1-1.78188,1.20875l-1.18464.70719c-.43137.25151-.86284.50292-1.30731.76193q-1.38236.82282-2.76406,1.64664c-.4817.28556-.96339.571-1.45963.86519-2.33151,1.39151-4.63872,2.82205-6.94773,4.25052q-6.27645,3.87086-12.58615,7.68608-5.47327,3.31689-10.91964,6.67716-5.82817,3.59469-11.68535,7.141-6.126,3.71218-12.22631,7.46565c-.46082.28367-.92164.56734-1.39642.85968-.434.2675-.86808.535-1.31527.81063-.40752.24961-.815.49931-1.23495.75651q-1.0929.68229-2.1623,1.40154c-.30264.20273-.60528.40554-.91714.6145-.25539.17752-.51069.35513-.77386.53807a2.38919,2.38919,0,0,1-1.63317.265,4.01,4.01,0,0,1-2.04766-2.08786c-.32956-.54339-.32956-.54339-.66572-1.09781-.23163-.39425-.46327-.7885-.70194-1.19467q-.74491-1.2429-1.49108-2.48508c-.25566-.4284-.51132-.8567-.77476-1.298-.78243-1.28843-1.59035-2.55627-2.41028-3.82113-.25892-.40319-.51783-.80638-.78461-1.22185q-.74625-1.15971-1.50688-2.31019c-1.36432-2.14577-2.0285-3.5128-1.7152-6.06709-.75154-.25855-.75154-.25855-1.51817-.52235q-.99913-.34731-1.99825-.69481c-.4938-.16948-.4938-.16948-.99745-.34239a38.17826,38.17826,0,0,1-5.4403-2.33557,24.997,24.997,0,0,1,3.4623-6.9246c2.4765.80828,4.92365,1.6675,7.35742,2.59675a70.93555,70.93555,0,0,0-.25187-7.562c-.65894-13.1992,6.83679-24.47893,12.94805-35.69127,3.94978-7.26112,7.62045-14.65947,11.28708-22.0664q1.054-2.12765,2.11259-4.253c.20969-.42523.41937-.85037.63542-1.28852a68.97532,68.97532,0,0,1,4.42957-7.9066h.43278c-.63871,12.84858-1.40973,25.6885-2.20145,38.52842q-.26059,4.22671-.51795,8.45361-.20127,3.29481-.40435,6.58962-.09587,1.56014-.191,3.12027-.13222,2.16641-.26686,4.33264l-.077,1.27263c-.16328,2.61219-.39,5.21237-.66928,7.81472q5.66729-3.4394,11.33334-6.88078,1.07716-.65425,2.15435-1.30822,7.11893-4.32308,14.21083-8.68977,2.1072-1.297,4.21466-2.5934,1.43235-.88164,2.86379-1.7649,2.08537-1.286,4.17409-2.56639c.424-.26217.84794-.52433,1.28483-.79454.38828-.23769.77656-.47528,1.17668-.7202.34086-.20977.68171-.41954,1.033-.63563a2.41842,2.41842,0,0,1,1.699-.44629c.70619,1.07072,1.362,2.13647,2.00158,3.24585.18186.30969.36381.61928.55117.93828q.67539,1.15143,1.34228,2.30765c8.23815-9.97241,9.83555-26.27544,8.7016-38.62418-1.26667-11.73975-5.5189-23.56984-13.02945-32.786-.18592-.22865-.37184-.45721-.56337-.69273a64.0045,64.0045,0,0,0-17.00533-14.9069c-1.86138-1.14281-1.86138-1.14281-2.33964-2.57751.45152-1.00133.91777-1.91829,1.46072-2.86723.14282-.25891.28556-.51774.43273-.78442C105.69458,27.75438,105.69458,27.75438,106.211,27.238Z"/><path class="cls-1" d="M81.12919.028a4.00978,4.00978,0,0,1,2.04761,2.088c.21974.36227.43948.72453.66588,1.09782.23159.39416.46319.7884.70181,1.19457q.744,1.243,1.4894,2.48518c.25558.42831.51117.85661.77449,1.29792.78561,1.29052,1.59982,2.55727,2.42752,3.82114l.79039,1.22185q.7529,1.16106,1.52386,2.31019c1.87439,2.92992,1.87439,2.92992,1.61294,4.81271-.1216.41394-.24329.82788-.36859,1.25438.28737.08365.57466.1674.8707.25358a34.17726,34.17726,0,0,1,5.62117,1.91034,14.91514,14.91514,0,0,1-1.75821,4.896c-.35567.69372-.35567.69372-.71848,1.40145-.18248.3498-.36488.6996-.55279,1.06-1.28545-.42839-2.57082-.85688-3.89512-1.29837.05854.78081.05854.78081.11835,1.57735.23172,6.47868-1.96645,10.912-5.08984,16.4333-2.36911,4.22305-4.45884,8.59517-6.60566,12.93387-2.47127,4.98228-4.96273,9.94811-7.571,14.8602-1.37612,2.60171-2.69971,5.22719-4.00608,7.86459-.19631.39614-.39271.7922-.595,1.20035q-1.204,2.43147-2.4026,4.86565-.89166,1.81056-1.7901,3.61769c-.18077.36958-.36154.73908-.54782,1.11986l-.5088,1.02229c-.14653.29713-.293.59426-.44394.90043-.42.68686-.42.68686-1.28554,1.11959-.0907-5.25276.15629-10.45908.48088-15.70064q.13389-2.1633.26181-4.32686.32075-5.36948.65027-10.73823.27726-4.55345.54891-9.10723.127-2.11289.25891-4.2255c.28955-4.78407.47872-9.53463.396-14.32809-.23606.14689-.47212.29378-.71532.4452Q56.39229,43.80034,49.218,48.14712q-5.99146,3.62979-11.95575,7.30331Q35.20523,56.717,33.148,57.98358q-1.41012.86848-2.81944,1.73833-2.09011,1.28871-4.18357,2.572c-.42415.26225-.84839.5246-1.28537.7949-.3881.23751-.7763.4751-1.17614.71984-.34086.20977-.68171.41954-1.033.63563a2.41832,2.41832,0,0,1-1.699.44637c-.70619-1.0708-1.362-2.13655-2.00167-3.24593-.27274-.46444-.27274-.46444-.55108-.93828q-.67553-1.1513-1.34237-2.30766C8.8183,68.37129,7.22081,84.67423,8.35485,97.02306c1.26667,11.73966,5.5189,23.56975,13.02945,32.786.18592.22857.37184.45713.56337.69264a75.662,75.662,0,0,0,15.88258,14.45494,38.15689,38.15689,0,0,1-3.02948,6.92469C26.61962,150.57,17.69985,139.05317,13.135,132.74812A74.14209,74.14209,0,0,1,2.6391,110.98274c-.14952-.5069-.14952-.5069-.3021-1.024A66.166,66.166,0,0,1,.00829,91.64689c.007-1.0054.00009-2.01007-.00822-3.01538a64.043,64.043,0,0,1,2.639-18.331c.11-.37672.22-.75335.33335-1.14145,1.96437-6.47037,5.06612-12.29932,8.45768-18.1177.14283-.28565.28566-.57131.43282-.86555-.46218-.87522-.9651-1.72921-1.48772-2.56974-1.54185-2.48319-1.54185-2.48319-1.54185-3.92213a9.77251,9.77251,0,0,1,1.78188-1.20875c.3909-.23335.78181-.46679,1.18455-.70719.43146-.25142.86284-.50284,1.3074-.76193q1.38235-.82269,2.76406-1.64664c.4817-.28547.96339-.571,1.45963-.86519,2.33151-1.39151,4.63863-2.822,6.94764-4.25052q6.27659-3.87074,12.58624-7.68608,5.47327-3.3169,10.91964-6.67707,5.82818-3.59482,11.68536-7.141,6.12591-3.71218,12.22627-7.46565c.46082-.28367.92164-.56734,1.39642-.85968.434-.2675.86808-.535,1.31528-.81063.40753-.24961.81508-.49931,1.235-.75651q1.09286-.6823,2.16227-1.40145c.454-.30427.454-.30427.91713-.61459.25538-.17752.51076-.355.77387-.538A2.38874,2.38874,0,0,1,81.12919.028Z"/></g></g></svg>