<svg xmlns="http://www.w3.org/2000/svg" viewBox="0 0 746.88398 59.09374"><g id="Layer_2" data-name="Layer 2"><g id="레이어_1" data-name="레이어 1"><polygon points="204.988 50.259 250.258 50.259 248.664 59.094 203.394 59.094 204.988 50.259"/><path d="M143.3767,19.48264c1.6881-9.3519-5.6106-16.957-17.7291-16.957H104.3361l-2.2309,12.4586h20.9807c3.1332,0,5.6978,2.0073,5.1129,5.2428-.5779,3.2043-3.8423,5.2745-7.0051,5.2433l-6.0879-.0332.6467-3.5826H100.8737l-5.8815,32.8383h14.9045l4.0874-22.653,10.9197,22.653h17.4468l-11.2648-20.9383c5.9217-2.3293,11.1173-7.7667,12.2909-14.2719"/><polygon points="96.051 2.526 59.661 2.526 57.413 14.985 93.803 14.985 96.051 2.526"/><polygon points="56.233 22.546 50.247 54.693 86.637 54.693 88.979 41.716 67.318 41.716 68.667 34.24 86.497 34.24 88.582 22.687 70.753 22.687 70.964 22.546 56.233 22.546"/><polygon points="51.864 2.526 9.415 2.526 7.166 14.985 43.588 14.985 51.864 2.526"/><polygon points="0 54.693 42.449 54.693 44.797 41.684 25.853 41.684 39.025 21.855 21.815 21.855 0 54.693"/><path d="M185.7563,1.13384a37.9455,37.9455,0,0,0-29.4559,13.8504h22.029a19.37565,19.37565,0,0,1,5.0496-.6795c8.9145,0,14.6188,6.2135,13.1644,14.2723-1.4486,8.0246-9.389,14.2064-18.3037,14.2064-8.9145,0-14.6247-6.1818-13.1762-14.2064a15.9213,15.9213,0,0,1,3.0004-6.7414H152.0982a29.44567,29.44567,0,0,0-2.1303,6.839c-2.8034,15.5322,8.4019,27.345,25.8484,27.345,17.4815,0,32.9842-11.8128,35.7876-27.345,2.8271-15.6635-8.4021-27.5408-25.8476-27.5408"/><path d="M298.06919,39.80744c-1.5084,9.4639-9.4642,16.7006-21.39759,16.7006h-23.112l10.734-55.282h18.17279c9.80791,0,15.6028,6.1387,14.232,14.4035-.8943,5.2131-4.013,8.9161-7.71509,9.7392,5.34909.1021,10.52489,5.3845,9.08589,14.4387m-19.44249-7.099-5.7954-.0347-2.0229,10.4926h5.6235c4.28649,0,6.89219-1.9885,7.47449-4.9031.6864-3.2924-1.6113-5.5548-5.27969-5.5548m.2743-18.7251h-2.4349l-1.6802,8.6764h2.5384c2.674,0,5.58889-.9608,6.24049-4.2518.514-2.5723-1.235-4.4246-4.66379-4.4246"/><path d="M335.68549,50.06024h-18.7581l-3.7022,6.4468h-17.213L331.02079.53964h7.9202L352.247,56.507h-15.2938Zm-2.1254-10.7342-2.677-13.5115-7.7826,13.5115Z"/><path d="M356.01939,28.18084c2.9831-18.9297,19.9556-29.2874,34.1173-28.0869,7.7172.6522,14.8154,4.7672,18.3818,11.0773l-10.70019,9.7051c-3.08511-4.6643-6.65151-6.7217-10.938-6.7217-7.27051,0-14.09341,5.7619-15.77221,14.0614-1.6816,8.2301,2.3285,15.5693,10.8678,15.5693,4.1853,0,8.1608-1.8527,12.276-5.0768L400.8033,50.301a34.158,34.158,0,0,1-21.19351,7.4065c-17.0062,0-26.1614-13.3739-23.5904-29.5267"/><polygon points="439.756 28.797 451.653 56.508 435.502 56.508 425.662 33.187 421.137 56.508 406.149 56.508 416.884 1.226 431.868 1.226 427.89 21.665 443.56 1.226 461.393 1.226 439.756 28.797"/><polygon points="498.381 13.73 521.335 13.73 522.46 1.095 486.421 1.095 481.353 57.998 494.44 57.998 496.612 33.608 513.379 33.608 514.473 21.317 497.706 21.317 498.381 13.73"/><polygon points="523.042 57.998 536.129 57.998 541.196 1.095 528.109 1.095 523.042 57.998"/><polygon points="591.043 1.095 546.929 1.095 545.804 13.73 560.976 13.73 557.034 57.998 570.12 57.998 574.062 13.73 589.918 13.73 591.043 1.095"/><polygon points="620.234 28.904 603.589 1.095 596.11 1.095 591.043 57.998 603.803 57.998 606.374 29.135 623.483 58.687 630.342 58.687 635.471 1.095 622.71 1.095 620.234 28.904"/><polygon points="650.729 33.608 666.487 33.608 667.581 21.317 651.823 21.317 652.499 13.73 674.476 13.73 675.601 1.095 640.538 1.095 635.471 57.998 670.175 57.998 671.301 45.363 649.682 45.363 650.729 33.608"/><path d="M699.79188,24.72994l-3.712-1.9529a21.41961,21.41961,0,0,1-4.0233-2.4873,3.29216,3.29216,0,0,1-.8384-1.3631,5.35794,5.35794,0,0,1-.2118-2.2076,4.62343,4.62343,0,0,1,1.3863-3.1112,4.131,4.131,0,0,1,3.1168-1.0828,11.197,11.197,0,0,1,3.74.734,9.88938,9.88938,0,0,1,2.8245,1.3749l3.4574,2.8431,4.9571-12.1072-1.5766-1.5049c-2.5598-2.4432-6.8267-3.6309-13.0442-3.6309a17.67955,17.67955,0,0,0-12.2529,4.5718,17.02083,17.02083,0,0,0-5.6538,11.4557,17.872,17.872,0,0,0,1.5477,9.649c1.4015,2.823,4.00262,5.2304,7.7322,7.1568l3.658,1.8863c3.8975,2.0359,4.57142,3.2196,4.6346,3.346a5.5253,5.5253,0,0,1,.54282,3.0414,4.97011,4.97011,0,0,1-1.73332,3.498,5.97864,5.97864,0,0,1-4.1332,1.3852,13.01682,13.01682,0,0,1-6.9979-2.5449L679.91,40.931l-5.81689,12.5379,2.069,1.558a20.36007,20.36007,0,0,0,12.55139,3.8327,21.023,21.023,0,0,0,14.0349-4.7446,17.07854,17.07854,0,0,0,6.2947-11.7997,19.35318,19.35318,0,0,0-1.515-10.3096C706.113,29.127,703.50868,26.67834,699.79188,24.72994Z"/><path d="M736.18738,24.72994l-3.712-1.9529a21.42708,21.42708,0,0,1-4.0234-2.4873,3.293,3.293,0,0,1-.8383-1.3631,5.35954,5.35954,0,0,1-.2119-2.2076,4.62352,4.62352,0,0,1,1.3864-3.1112,4.13051,4.13051,0,0,1,3.1163-1.0828,11.19726,11.19726,0,0,1,3.7404.734,9.88909,9.88909,0,0,1,2.8246,1.3749l3.4573,2.8431,4.9572-12.1072-1.5766-1.5049c-2.5599-2.4432-6.8267-3.6309-13.0443-3.6309a17.67918,17.67918,0,0,0-12.25278,4.5718,17.0208,17.0208,0,0,0-5.65392,11.4557,17.87294,17.87294,0,0,0,1.5477,9.649c1.4016,2.823,4.0027,5.2304,7.73222,7.1568l3.65808,1.8863c3.8974,2.0359,4.5714,3.2196,4.6346,3.346a5.52583,5.52583,0,0,1,.5428,3.0414,4.96886,4.96886,0,0,1-1.7333,3.498,5.97862,5.97862,0,0,1-4.13318,1.3852,13.01681,13.01681,0,0,1-6.99792-2.5449l-3.3019-2.7483-5.817,12.5379,2.0691,1.558a20.35988,20.35988,0,0,0,12.5514,3.8327,21.02277,21.02277,0,0,0,14.0348-4.7446,17.07815,17.07815,0,0,0,6.2947-11.7997,19.35221,19.35221,0,0,0-1.515-10.3096C742.50838,29.127,739.90408,26.67834,736.18738,24.72994Z"/></g></g></svg>