<svg xmlns="http://www.w3.org/2000/svg" viewBox="0 0 222.48 196.73"><defs><style>.cls-1{fill:#f08e70;}.cls-2{fill:#d2e9f7;}.cls-3{fill:#fbda73;}.cls-4{fill:#3d5a80;}</style></defs><g id="Layer_2" data-name="Layer 2"><g id="Colored_details" data-name="Colored details"><path class="cls-1" d="M107.63,22a20.95,20.95,0,0,0-40.42-6.33,16.86,16.86,0,0,0-13.76-5.11,17,17,0,0,0-8,30.92v1a21.83,21.83,0,0,0-28,28.94,28.17,28.17,0,0,0,6.94,51.49,26.62,26.62,0,0,0,20.27,42.78,26.33,26.33,0,0,0,13.92-3.51l3.08,1a23.92,23.92,0,0,0,45.6,14.48l1.16.37V22Z"/><path class="cls-2" d="M136.58,190.4a7.87,7.87,0,0,0,7.9-7.83v-9A13.64,13.64,0,0,1,153,161l.3-.12a13.71,13.71,0,0,1,14.89,2.83l6.43,6.35a7.79,7.79,0,0,0,10.92,0l14.61-14.37a7.74,7.74,0,0,0,0-11L194,138.53a13.6,13.6,0,0,1-3-15l.09-.22A13.62,13.62,0,0,1,203.69,115h9a7.78,7.78,0,0,0,7.78-7.76V86.8A7.79,7.79,0,0,0,212.7,79h-9.56a13.58,13.58,0,0,1-12.55-8.51c-.06-.13-.11-.26-.16-.38a13.67,13.67,0,0,1,2.87-14.86l6.33-6.41a7.79,7.79,0,0,0,0-10.94L185.26,23.3a7.8,7.8,0,0,0-11.1,0l-6.1,6.18a13.66,13.66,0,0,1-15,3l-.2-.09a13.61,13.61,0,0,1-8.37-12.58v-9A7.8,7.8,0,0,0,136.68,3h-12.2V55.91c24.08,0,42.41,18.29,42.48,40.84.11,38.17-41.48,40.84-41.48,40.84l-.43,53Z"/><path class="cls-3" d="M158.07,95.78a31.6,31.6,0,0,1-31.59,31.59V64.19A31.59,31.59,0,0,1,158.07,95.78Z"/></g><g id="icons"><path class="cls-4" d="M127.89,139.27a2,2,0,0,1,0-4,39.08,39.08,0,1,0,0-78.16,2,2,0,0,1,0-4,43.08,43.08,0,1,1,0,86.16Z"/><path class="cls-4" d="M137.81,193H118.47a2,2,0,0,1,0-4H137.8a5.67,5.67,0,0,0,5.68-5.66v-9.21a15.08,15.08,0,0,1,9.38-14l.75-.31a15.2,15.2,0,0,1,16.66,3.27l6.37,6.35a5.69,5.69,0,0,0,8,0l14.45-14.36a5.67,5.67,0,0,0,0-8l-6.53-6.49a14.76,14.76,0,0,1-3.23-16.29l.31-.75A15.31,15.31,0,0,1,203.87,114h8.93a5.69,5.69,0,0,0,5.68-5.68V86.43A5.44,5.44,0,0,0,213.05,81h-9.69a15,15,0,0,1-13.86-9.27l-.36-.86a15,15,0,0,1,3.25-16.37l6.67-6.68a5.43,5.43,0,0,0,0-7.65L184.38,25.31a5.4,5.4,0,0,0-3.85-1.62h0a5.38,5.38,0,0,0-3.84,1.6l-6.89,6.9a14.48,14.48,0,0,1-15.85,3.11l-1.26-.53a14.79,14.79,0,0,1-9.2-13.83V11.73A5.7,5.7,0,0,0,137.79,6L118.47,6a2,2,0,0,1,0-4h0L137.8,2a9.71,9.71,0,0,1,9.69,9.73v9.21a10.81,10.81,0,0,0,6.71,10.12l1.34.57A10.44,10.44,0,0,0,167,29.36l6.88-6.9a9.42,9.42,0,0,1,6.68-2.77h0a9.36,9.36,0,0,1,6.68,2.8l14.7,14.86a9.46,9.46,0,0,1,0,13.3l-6.67,6.68a11,11,0,0,0-2.39,12l.36.86A11,11,0,0,0,203.36,77h9.69a9.44,9.44,0,0,1,9.43,9.43v21.89A9.69,9.69,0,0,1,212.8,118h-8.93a11.31,11.31,0,0,0-10.51,7l-.33.79a10.76,10.76,0,0,0,2.37,11.89l6.53,6.49a9.68,9.68,0,0,1,0,13.73l-14.45,14.36a9.71,9.71,0,0,1-13.65,0l-6.37-6.34a11.22,11.22,0,0,0-12.29-2.42l-.79.33a11.07,11.07,0,0,0-6.89,10.31v9.21a9.66,9.66,0,0,1-9.67,9.66Z"/><path class="cls-4" d="M84.48,196.73a26,26,0,0,1-26-26V162a2,2,0,0,1,4,0v8.73a22,22,0,0,0,44,0V23.84A19.86,19.86,0,0,0,86.63,4h-.31A19.86,19.86,0,0,0,66.48,23.84V28a2,2,0,1,1-4,0V23.84A23.87,23.87,0,0,1,86.32,0h.31a23.88,23.88,0,0,1,23.85,23.84V170.73A26,26,0,0,1,84.48,196.73Z"/><path class="cls-4" d="M43,44.59a2,2,0,0,1-1.19-.39,20.1,20.1,0,0,1,24-32.26,2,2,0,1,1-2.39,3.21A16.11,16.11,0,0,0,40.9,18.46,16.1,16.1,0,0,0,44.21,41a2,2,0,0,1-1.2,3.6Z"/><path class="cls-4" d="M84.41,137.4a25.2,25.2,0,0,1-7.7-1.21,2,2,0,1,1,1.23-3.81,21.2,21.2,0,0,0,26.64-13.66,2,2,0,0,1,3.8,1.22A25.19,25.19,0,0,1,84.41,137.4Z"/><path class="cls-4" d="M62.18,97.78a2,2,0,0,1-.75-.15A21.19,21.19,0,0,1,49.71,70.09a2,2,0,0,1,3.71,1.5,17.18,17.18,0,0,0,9.5,22.33,2,2,0,0,1-.74,3.86Z"/><path class="cls-4" d="M45.13,152.17h-.05A12.88,12.88,0,0,1,32.54,139,2,2,0,0,1,34.59,137a2,2,0,0,1,1.95,2,8.88,8.88,0,0,0,8.64,9.1,2,2,0,0,1,2,2.05A2,2,0,0,1,45.13,152.17Z"/><path class="cls-4" d="M82.45,59h-.21a2,2,0,0,1-1.78-2.2,21.17,21.17,0,0,1,23.29-18.8,2,2,0,0,1-.42,4A17.15,17.15,0,0,0,84.44,57.16,2,2,0,0,1,82.45,59Z"/><path class="cls-4" d="M43.9,168.46A28.72,28.72,0,0,1,21.33,122a2,2,0,0,1,3.15,2.47A24.74,24.74,0,1,0,63.37,155a2,2,0,1,1,3.15,2.47A28.7,28.7,0,0,1,43.9,168.46Z"/><path class="cls-4" d="M22.23,80.31a2,2,0,0,1-1.19-.4A22.68,22.68,0,1,1,48.12,43.52a2,2,0,1,1-2.39,3.21,18.68,18.68,0,1,0-22.3,30,2,2,0,0,1-1.2,3.61Z"/><path class="cls-4" d="M30.62,125.76A30.62,30.62,0,0,1,13.1,70a2,2,0,1,1,2.29,3.28,26.63,26.63,0,1,0,32.26,42.31,2,2,0,1,1,2.56,3.07A30.64,30.64,0,0,1,30.62,125.76Z"/></g></g></svg>