<svg xmlns="http://www.w3.org/2000/svg" viewBox="0 0 50.98 57.5"><defs><style>.cls-1{fill:#354251;}.cls-2{fill:#f9c441;}.cls-3{fill:#ffe48d;}.cls-4{fill:#74c1b9;}.cls-5{fill:#9ad7d2;}</style></defs><g id="Layer_2" data-name="Layer 2"><g id="Layer_1-2" data-name="Layer 1"><path class="cls-1" d="M42.84,28.75a47.34,47.34,0,0,0,3.49-3.4c4.17-4.56,5.58-8.35,4.06-11s-5.5-3.31-11.53-2a45.51,45.51,0,0,0-4.69,1.32A48.56,48.56,0,0,0,33,9c-1.86-5.89-4.44-9-7.47-9S19.88,3.11,18,9a45.91,45.91,0,0,0-1.2,4.73,46.22,46.22,0,0,0-4.69-1.32c-6-1.34-10-.66-11.54,2s-.11,6.41,4.06,11a47.34,47.34,0,0,0,3.49,3.4,47.34,47.34,0,0,0-3.49,3.4C.48,36.71-.92,40.51.59,43.13c1,1.75,3.12,2.63,6.2,2.63a25.4,25.4,0,0,0,5.34-.66c1.48-.33,3.06-.78,4.69-1.32A45.7,45.7,0,0,0,18,48.5c1.86,5.89,4.44,9,7.47,9s5.61-3.11,7.47-9a48.34,48.34,0,0,0,1.21-4.72,48.17,48.17,0,0,0,4.69,1.32,25.31,25.31,0,0,0,5.33.66c3.08,0,5.19-.88,6.2-2.63,1.52-2.62.11-6.42-4.06-11A47.34,47.34,0,0,0,42.84,28.75ZM39.48,15.22a22.17,22.17,0,0,1,4.72-.61c2.15,0,3.31.53,3.7,1.2.61,1.06,0,3.61-3.69,7.6a46.1,46.1,0,0,1-3.59,3.47c-1.62-1.3-3.38-2.58-5.25-3.83-.15-2.24-.38-4.41-.7-6.46A42.4,42.4,0,0,1,39.48,15.22ZM29.09,35c-1.2.69-2.4,1.35-3.6,2-1.19-.61-2.39-1.27-3.59-2s-2.37-1.41-3.5-2.13c-.07-1.35-.1-2.71-.1-4.1s0-2.75.1-4.09c1.13-.73,2.3-1.44,3.5-2.14s2.4-1.34,3.59-2c1.2.62,2.4,1.27,3.6,2s2.36,1.41,3.49,2.14c.07,1.34.1,2.71.1,4.09s0,2.75-.1,4.1C31.45,33.57,30.29,34.29,29.09,35Zm3.25,1.42c-.12,1.19-.25,2.36-.42,3.49-1.06-.42-2.14-.89-3.23-1.39l1.83-1C31.14,37.12,31.74,36.76,32.34,36.4Zm-10,2.1c-1.1.5-2.18,1-3.24,1.39-.16-1.13-.3-2.3-.41-3.49.59.36,1.2.72,1.81,1.07Zm-6.85-7.64c-1-.7-1.92-1.4-2.82-2.11q1.35-1.07,2.82-2.1c0,.69,0,1.4,0,2.1S15.44,30.16,15.45,30.86Zm3.2-9.75c.11-1.2.25-2.36.41-3.5,1.06.43,2.14.89,3.24,1.39l-1.84,1Zm10-2.11c1.09-.5,2.17-1,3.23-1.39.17,1.14.3,2.3.42,3.5L30.52,20Zm6.84,7.65q1.47,1,2.82,2.1c-.9.71-1.84,1.41-2.82,2.11,0-.7,0-1.4,0-2.11S35.55,27.34,35.53,26.65ZM20.76,9.87c1.63-5.16,3.51-7,4.73-7s3.1,1.83,4.73,7a44,44,0,0,1,1.21,4.85c-1.93.75-3.92,1.63-5.94,2.62-2-1-4-1.87-5.94-2.62A44,44,0,0,1,20.76,9.87Zm-14,13.54c-3.65-4-4.3-6.54-3.69-7.6.39-.67,1.55-1.2,3.7-1.2a22.25,22.25,0,0,1,4.73.61,42.85,42.85,0,0,1,4.8,1.37c-.32,2.05-.55,4.22-.7,6.46-1.87,1.25-3.63,2.53-5.24,3.83A44.58,44.58,0,0,1,6.77,23.41Zm4.74,18.88c-5.29,1.17-7.82.46-8.43-.6s0-3.6,3.69-7.59a42.94,42.94,0,0,1,3.6-3.47c1.61,1.29,3.37,2.58,5.24,3.83.15,2.24.38,4.4.7,6.45A45.25,45.25,0,0,1,11.51,42.29Zm18.71,5.34c-1.63,5.16-3.51,7-4.73,7s-3.1-1.84-4.73-7a43.84,43.84,0,0,1-1.21-4.84c1.93-.76,3.93-1.64,5.94-2.63,2,1,4,1.87,5.94,2.63A43.84,43.84,0,0,1,30.22,47.63ZM47.9,41.69c-.61,1.06-3.14,1.77-8.42.6a44.73,44.73,0,0,1-4.81-1.38c.32-2,.55-4.21.7-6.45,1.87-1.25,3.63-2.54,5.25-3.83a44.33,44.33,0,0,1,3.59,3.47C47.86,38.09,48.51,40.64,47.9,41.69Z"/><path class="cls-2" d="M38.35,28.75q-1.35-1.07-2.82-2.1c0,.69,0,1.4,0,2.1s0,1.41,0,2.11C36.51,30.16,37.45,29.46,38.35,28.75Z"/><path class="cls-2" d="M32.68,28.75c0-1.38,0-2.75-.1-4.09-1.13-.73-2.29-1.44-3.49-2.14s-2.4-1.34-3.6-2c-1.19.62-2.39,1.27-3.59,2s-2.37,1.41-3.5,2.14c-.07,1.34-.1,2.71-.1,4.09s0,2.75.1,4.1c1.13.72,2.3,1.44,3.5,2.13s2.4,1.35,3.59,2c1.2-.61,2.4-1.27,3.6-2s2.36-1.41,3.49-2.13C32.65,31.5,32.68,30.14,32.68,28.75Z"/><path class="cls-2" d="M31.92,39.89c.17-1.13.3-2.3.42-3.49-.6.36-1.2.72-1.82,1.07l-1.83,1C29.78,39,30.86,39.47,31.92,39.89Z"/><path class="cls-2" d="M34.67,40.91a44.73,44.73,0,0,0,4.81,1.38c5.28,1.17,7.81.46,8.42-.6s0-3.6-3.69-7.59a44.33,44.33,0,0,0-3.59-3.47c-1.62,1.29-3.38,2.58-5.25,3.83C35.22,36.7,35,38.86,34.67,40.91Z"/><path class="cls-2" d="M19.06,17.61c-.16,1.14-.3,2.3-.41,3.5L20.46,20l1.84-1C21.2,18.5,20.12,18,19.06,17.61Z"/><path class="cls-2" d="M16.31,16.59a42.85,42.85,0,0,0-4.8-1.37,22.25,22.25,0,0,0-4.73-.61c-2.15,0-3.31.53-3.7,1.2-.61,1.06,0,3.61,3.69,7.6a44.58,44.58,0,0,0,3.6,3.47c1.61-1.3,3.37-2.58,5.24-3.83C15.76,20.81,16,18.64,16.31,16.59Z"/><path class="cls-2" d="M12.63,28.75c.9.71,1.84,1.41,2.82,2.11,0-.7,0-1.4,0-2.11s0-1.41,0-2.1Q14,27.69,12.63,28.75Z"/><path class="cls-3" d="M20.46,20l1.84-1c-1.1-.5-2.18-1-3.24-1.39-.16,1.14-.3,2.3-.41,3.5Z"/><path class="cls-3" d="M16.31,16.59a42.85,42.85,0,0,0-4.8-1.37,22.25,22.25,0,0,0-4.73-.61c-2,0-3.12.45-3.59,1.05,1.17,2.44,4.56,5.87,9.38,9.53,1-.73,2-1.44,3-2.14C15.76,20.81,16,18.64,16.31,16.59Z"/><path class="cls-3" d="M38.35,28.75q-1.35-1.07-2.82-2.1c0,.69,0,1.4,0,2.1s0,1.41,0,2.11C36.51,30.16,37.45,29.46,38.35,28.75Z"/><path class="cls-3" d="M31.8,36.72l.48.22.06-.54Z"/><path class="cls-3" d="M15,27l.44.3c0-.21,0-.42,0-.62Z"/><path class="cls-3" d="M44.21,34.1a44.33,44.33,0,0,0-3.59-3.47c-1.62,1.29-3.38,2.58-5.25,3.83-.08,1.26-.19,2.49-.33,3.7C40.62,40.5,45.28,41.73,48,41.52,48.44,40.38,47.68,37.89,44.21,34.1Z"/><path class="cls-3" d="M28.7,35.2l.39-.22c1.2-.69,2.36-1.41,3.49-2.13.07-1.35.1-2.71.1-4.1s0-2.75-.1-4.09c-1.13-.73-2.29-1.44-3.49-2.14s-2.4-1.34-3.6-2c-1.19.62-2.39,1.27-3.59,2s-2.37,1.41-3.5,2.14c-.07,1.34-.1,2.71-.1,4.09v.45c1.63,1.05,3.34,2.1,5.12,3.13S27,34.32,28.7,35.2Z"/><path class="cls-4" d="M32.34,36.4c-.6.36-1.2.72-1.82,1.07l-1.83,1c1.09.5,2.17,1,3.23,1.39C32.09,38.76,32.22,37.59,32.34,36.4Z"/><path class="cls-4" d="M32.68,28.75c0-1.38,0-2.75-.1-4.09-1.13-.73-2.29-1.44-3.49-2.14s-2.4-1.34-3.6-2c-1.19.62-2.39,1.27-3.59,2s-2.37,1.41-3.5,2.14c-.07,1.34-.1,2.71-.1,4.09s0,2.75.1,4.1c1.13.72,2.3,1.44,3.5,2.13s2.4,1.35,3.59,2c1.2-.61,2.4-1.27,3.6-2s2.36-1.41,3.49-2.13C32.65,31.5,32.68,30.14,32.68,28.75Z"/><path class="cls-4" d="M25.49,54.63c1.22,0,3.1-1.84,4.73-7a43.84,43.84,0,0,0,1.21-4.84c-1.93-.76-3.92-1.64-5.94-2.63-2,1-4,1.87-5.94,2.63a43.84,43.84,0,0,0,1.21,4.84C22.39,52.79,24.27,54.63,25.49,54.63Z"/><path class="cls-4" d="M18.65,36.4c.11,1.19.25,2.36.41,3.49,1.06-.42,2.14-.89,3.24-1.39l-1.84-1C19.85,37.12,19.24,36.76,18.65,36.4Z"/><path class="cls-4" d="M18.65,21.11,20.46,20l1.84-1c-1.1-.5-2.18-1-3.24-1.39C18.9,18.75,18.76,19.91,18.65,21.11Z"/><path class="cls-4" d="M32.34,21.11c-.12-1.2-.25-2.36-.42-3.5-1.06.43-2.14.89-3.23,1.39l1.83,1Z"/><path class="cls-4" d="M25.49,2.88c-1.22,0-3.1,1.83-4.73,7a44,44,0,0,0-1.21,4.85c1.93.75,3.93,1.63,5.94,2.62,2-1,4-1.87,5.94-2.62a44,44,0,0,0-1.21-4.85C28.59,4.71,26.71,2.88,25.49,2.88Z"/><path class="cls-5" d="M22.3,19,22.18,19v.12Z"/><path class="cls-5" d="M22.17,38.43v.12l.12,0Z"/><path class="cls-5" d="M31.43,42.79c-1.93-.76-3.92-1.64-5.94-2.63-1,.5-2,1-3,1.4.73,6,2,10.72,3.43,13,1.2-.38,2.85-2.34,4.3-6.93A43.84,43.84,0,0,0,31.43,42.79Z"/><path class="cls-5" d="M32.68,28.75c0-1.38,0-2.75-.1-4.09-1.13-.73-2.29-1.44-3.49-2.14s-2.4-1.34-3.6-2c-1.18.61-2.37,1.26-3.55,1.94-.11,2-.17,4.1-.17,6.25s.06,4.25.17,6.25c1.18.69,2.37,1.33,3.55,1.94,1.2-.61,2.4-1.27,3.6-2s2.36-1.41,3.49-2.13C32.65,31.5,32.68,30.14,32.68,28.75Z"/><path class="cls-5" d="M25.49,17.34c2-1,4-1.87,5.94-2.62a44,44,0,0,0-1.21-4.85c-1.45-4.59-3.1-6.54-4.3-6.92-1.48,2.27-2.7,7-3.43,13C23.49,16.38,24.49,16.85,25.49,17.34Z"/><path class="cls-5" d="M32.34,21.11c-.12-1.2-.25-2.36-.42-3.5-1.06.43-2.14.89-3.23,1.39l1.83,1Z"/><path class="cls-5" d="M32.34,36.4c-.6.36-1.2.72-1.82,1.07l-1.83,1c1.09.5,2.17,1,3.23,1.39C32.09,38.76,32.22,37.59,32.34,36.4Z"/><path class="cls-4" d="M29.09,35c1.2-.69,2.36-1.41,3.49-2.13.07-1.35.1-2.71.1-4.1s0-2.75-.1-4.09c-1.13-.73-2.29-1.44-3.49-2.14s-2.4-1.34-3.6-2c-1.19.62-2.39,1.27-3.59,2s-2.37,1.41-3.5,2.14c-.07,1.34-.1,2.71-.1,4.09s0,2.75.1,4.1c1.13.72,2.3,1.44,3.5,2.13s2.4,1.35,3.59,2C26.69,36.33,27.89,35.67,29.09,35Z"/><path class="cls-4" d="M44.21,23.41c3.65-4,4.3-6.54,3.69-7.6-.39-.67-1.55-1.2-3.7-1.2a22.17,22.17,0,0,0-4.72.61,42.4,42.4,0,0,0-4.81,1.37c.32,2.05.55,4.22.7,6.46,1.87,1.25,3.63,2.53,5.25,3.83A46.1,46.1,0,0,0,44.21,23.41Z"/><path class="cls-4" d="M38.35,28.75q-1.35-1.07-2.82-2.1c0,.69,0,1.4,0,2.1s0,1.41,0,2.11C36.51,30.16,37.45,29.46,38.35,28.75Z"/><path class="cls-4" d="M32.34,21.11c-.12-1.2-.25-2.36-.42-3.5-1.06.43-2.14.89-3.23,1.39l1.83,1Z"/><path class="cls-4" d="M16.31,40.91c-.32-2-.55-4.21-.7-6.45-1.87-1.25-3.63-2.54-5.24-3.83a42.94,42.94,0,0,0-3.6,3.47c-3.65,4-4.3,6.54-3.69,7.59s3.14,1.77,8.43.6A45.25,45.25,0,0,0,16.31,40.91Z"/><path class="cls-4" d="M18.65,36.4c.11,1.19.25,2.36.41,3.49,1.06-.42,2.14-.89,3.24-1.39l-1.84-1C19.85,37.12,19.24,36.76,18.65,36.4Z"/><path class="cls-4" d="M12.63,28.75c.9.71,1.84,1.41,2.82,2.11,0-.7,0-1.4,0-2.11s0-1.41,0-2.1Q14,27.69,12.63,28.75Z"/><path class="cls-5" d="M32.34,21.11v-.06l0,0Z"/><path class="cls-5" d="M38.35,28.75q-1.35-1.07-2.82-2.1c0,.69,0,1.4,0,2.1s0,1.41,0,2.11C36.51,30.16,37.45,29.46,38.35,28.75Z"/><path class="cls-5" d="M40.62,26.88a46.1,46.1,0,0,0,3.59-3.47c3.22-3.52,4.1-5.91,3.85-7.16-2.71-.13-7.38,1.17-13,3.56.12,1.06.21,2.14.28,3.24C37.24,24.3,39,25.58,40.62,26.88Z"/><path class="cls-5" d="M15.45,30.86v-.07l0,0Z"/><path class="cls-5" d="M21.9,35c1.2.69,2.4,1.35,3.59,2,1.2-.61,2.4-1.27,3.6-2s2.36-1.41,3.49-2.13c.07-1.35.1-2.71.1-4.1s0-2.75-.1-4.09c-1.09-.71-2.23-1.4-3.39-2.08-1.8.92-3.65,1.92-5.53,3S20,27.77,18.3,28.87c0,1.34,0,2.67.1,4C19.53,33.57,20.7,34.29,21.9,35Z"/><path class="cls-5" d="M11.51,42.29a45.25,45.25,0,0,0,4.8-1.38c-.32-2-.55-4.21-.7-6.45-.91-.61-1.8-1.24-2.66-1.86-4.87,3.64-8.33,7-9.57,9.45C4.33,42.89,6.85,43.32,11.51,42.29Z"/><path class="cls-5" d="M18.65,36.4c.11,1.19.25,2.36.41,3.49,1.06-.42,2.14-.89,3.24-1.39l-1.84-1C19.85,37.12,19.24,36.76,18.65,36.4Z"/><path class="cls-1" d="M25.49,31.54a2.79,2.79,0,1,1,2.79-2.79A2.79,2.79,0,0,1,25.49,31.54Zm0-2.88a.09.09,0,1,0,.09.09A.09.09,0,0,0,25.49,28.66Z"/></g></g></svg>