<svg xmlns="http://www.w3.org/2000/svg" viewBox="0 0 212 169"><defs><style>.cls-1{fill:#d2e9f7;}.cls-2{fill:#f08e70;}.cls-3{fill:#3d5a80;}</style></defs><g id="Layer_2" data-name="Layer 2"><g id="Colored_details" data-name="Colored details"><path class="cls-1" d="M106.5,150.5h-11l-3-4.14a7,7,0,0,0-5.63-2.86H84.5V3.61h0a25.41,25.41,0,0,1,22,25.17Z"/><rect class="cls-2" x="2.5" y="16.5" width="14" height="140"/><rect class="cls-2" x="195.5" y="16.5" width="14" height="140"/><path class="cls-2" d="M207.5,158.5H139.64a17,17,0,0,0-7.54,1.76l-13.87,6.83a4,4,0,0,1-1.77.41H96.57a4,4,0,0,1-1.76-.41l-13-6.36a21.71,21.71,0,0,0-9.6-2.23H10.5v-16H86.8a5.33,5.33,0,0,1,3.56,1.36l6.32,5.64H115l4.79-5.49a4.41,4.41,0,0,1,3.32-1.51H207.5Z"/></g><g id="icons"><path class="cls-3" d="M117.39,169H94.85l-8.66-4.75A34.62,34.62,0,0,0,69.59,160H3.22A3.22,3.22,0,0,1,0,156.78V19.49A4.49,4.49,0,0,1,4.49,15H6a2,2,0,0,1,0,4H4.49a.49.49,0,0,0-.49.49V156H69.59a38.61,38.61,0,0,1,18.53,4.75L95.87,165h20.49l7.76-4.25A38.61,38.61,0,0,1,142.65,156h64.86a.49.49,0,0,0,.49-.49v-136a.49.49,0,0,0-.49-.49H206a2,2,0,0,1,0-4h1.51A4.49,4.49,0,0,1,212,19.49v136a4.49,4.49,0,0,1-4.49,4.49H142.65A34.69,34.69,0,0,0,126,164.25Z"/><path class="cls-3" d="M115.65,152H95.07l-3-4.37a6,6,0,0,0-5-2.63h-70A3.06,3.06,0,0,1,14,141.94V4.14A4.15,4.15,0,0,1,18.14,0H76.05a31.72,31.72,0,0,1,29.63,20.42A31.72,31.72,0,0,1,135.31,0h57.55A4.15,4.15,0,0,1,197,4.14V140.86a4.15,4.15,0,0,1-4.14,4.14H123.62a6,6,0,0,0-5,2.63Zm-18.47-4h16.36l1.8-2.63a10,10,0,0,1,8.28-4.37h69.24a.14.14,0,0,0,.14-.14V4.14a.14.14,0,0,0-.14-.14H135.31a27.7,27.7,0,0,0-27.63,25.66c0,.68.07,1.36.07,2a2,2,0,0,1-2.07,2,2,2,0,0,1-2.07-2q0-1,.06-2A27.7,27.7,0,0,0,76.05,4H18.14a.14.14,0,0,0-.14.14V141H87.1a10,10,0,0,1,8.29,4.37Z"/><path class="cls-3" d="M105.93,140h0a2,2,0,0,1-2-2L104,28a2,2,0,0,1,2-2h0a2,2,0,0,1,2,2l-.07,110A2,2,0,0,1,105.93,140Z"/><path class="cls-3" d="M80,22H32a2,2,0,0,1,0-4H80a2,2,0,0,1,0,4Z"/><path class="cls-3" d="M80,43H32a2,2,0,0,1,0-4H80a2,2,0,0,1,0,4Z"/><path class="cls-3" d="M80,63H32a2,2,0,0,1,0-4H80a2,2,0,0,1,0,4Z"/><path class="cls-3" d="M80,84H32a2,2,0,0,1,0-4H80a2,2,0,0,1,0,4Z"/><path class="cls-3" d="M80,104H32a2,2,0,0,1,0-4H80a2,2,0,0,1,0,4Z"/><path class="cls-3" d="M80,125H32a2,2,0,0,1,0-4H80a2,2,0,0,1,0,4Z"/><path class="cls-3" d="M177,22H129a2,2,0,0,1,0-4h48a2,2,0,0,1,0,4Z"/><path class="cls-3" d="M177,43H129a2,2,0,0,1,0-4h48a2,2,0,0,1,0,4Z"/><path class="cls-3" d="M177,63H129a2,2,0,0,1,0-4h48a2,2,0,0,1,0,4Z"/><path class="cls-3" d="M177,84H129a2,2,0,0,1,0-4h48a2,2,0,0,1,0,4Z"/><path class="cls-3" d="M177,104H129a2,2,0,0,1,0-4h48a2,2,0,0,1,0,4Z"/><path class="cls-3" d="M177,125H129a2,2,0,0,1,0-4h48a2,2,0,0,1,0,4Z"/></g></g></svg>