<svg xmlns="http://www.w3.org/2000/svg" viewBox="0 0 44.34 52.44"><defs><style>.cls-1{fill:#354251;}.cls-2{fill:#74c1b9;}.cls-3{fill:#9ad7d2;}</style></defs><g id="Layer_2" data-name="Layer 2"><g id="Layer_1-2" data-name="Layer 1"><path class="cls-1" d="M37.48,52.44h-36A1.43,1.43,0,0,1,0,51V5.9a1.44,1.44,0,0,1,2.88,0V49.56h34.6a1.44,1.44,0,1,1,0,2.88Z"/><path class="cls-1" d="M44.34,11.33l0-.13h0a1.37,1.37,0,0,0-.3-.63l0,0-.07-.08h0l-5-5-5-5h0L33.81.36l0,0a1.47,1.47,0,0,0-.63-.3h0L33,0H7.09A1.43,1.43,0,0,0,5.65,1.44V45.38a1.44,1.44,0,0,0,1.44,1.44H42.9a1.44,1.44,0,0,0,1.44-1.44V11.33ZM39.4,10l-5.07,0,0-5.06,2.54,2.56Zm2.07,33.91H8.52V2.88H31.43l0,8.57a1.44,1.44,0,0,0,1.43,1.44l8.58,0Z"/><path class="cls-2" d="M41.47,12.91l-8.58,0a1.44,1.44,0,0,1-1.43-1.44l0-8.57H8.57V43.94h32.9Z"/><path class="cls-3" d="M41.47,12.91l-8.58,0a1.44,1.44,0,0,1-1.43-1.44l0-8.57H13.56V43.94H41.47Z"/><path class="cls-1" d="M35.32,21.07H14.67a1.44,1.44,0,0,1,0-2.88H35.32a1.44,1.44,0,0,1,0,2.88Z"/><path class="cls-1" d="M35.32,29.89H14.67a1.44,1.44,0,0,1,0-2.88H35.32a1.44,1.44,0,0,1,0,2.88Z"/><path class="cls-1" d="M35.32,38.71H14.67a1.44,1.44,0,0,1,0-2.87H35.32a1.44,1.44,0,0,1,0,2.87Z"/></g></g></svg>