<svg xmlns="http://www.w3.org/2000/svg" viewBox="0 0 221.1 178.59"><defs><style>.cls-1{fill:#d2e9f7;}.cls-2{fill:#f08e70;}.cls-3{fill:#fbda73;}.cls-4{fill:#3d5a80;}</style></defs><g id="Layer_2" data-name="Layer 2"><g id="Colored_details" data-name="Colored details"><path class="cls-1" d="M107.5,150.5h-11l-3-4.14a7,7,0,0,0-5.63-2.86H85.5V3.61h0a25.41,25.41,0,0,1,22,25.17Z"/><rect class="cls-2" x="3.5" y="16.5" width="14" height="140"/><rect class="cls-2" x="196.5" y="16.5" width="14" height="142"/><path class="cls-2" d="M208.5,158.5H140.64a17,17,0,0,0-7.54,1.76l-13.87,6.83a4,4,0,0,1-1.77.41H97.57a4,4,0,0,1-1.76-.41l-13-6.36a21.71,21.71,0,0,0-9.6-2.23H11.5v-16H87.8a5.33,5.33,0,0,1,3.56,1.36l6.32,5.64H116l4.79-5.49a4.41,4.41,0,0,1,3.32-1.51H208.5Z"/><path class="cls-3" d="M168.26,129.35l11.58,43.28a4.62,4.62,0,0,0,3.16,3.25h0a2.47,2.47,0,0,0,3.08-1.66l7-23.32,24-7.29a2.9,2.9,0,0,0,2.06-2.77h0a3.68,3.68,0,0,0-2.75-3.56L172,125.6a3,3,0,0,0-2.55.46h0A3,3,0,0,0,168.26,129.35Z"/></g><g id="icons"><path class="cls-4" d="M210,124a2,2,0,0,1-2-2V19.49a.49.49,0,0,0-.49-.49H206a2,2,0,0,1,0-4h1.51A4.49,4.49,0,0,1,212,19.49V122A2,2,0,0,1,210,124Z"/><path class="cls-4" d="M117.39,169H94.85l-8.66-4.75A34.62,34.62,0,0,0,69.59,160H3.22A3.22,3.22,0,0,1,0,156.78V19.49A4.49,4.49,0,0,1,4.49,15H6a2,2,0,0,1,0,4H4.49a.49.49,0,0,0-.49.49V156H69.59a38.61,38.61,0,0,1,18.53,4.75L95.87,165h20.49l7.76-4.25A38.61,38.61,0,0,1,142.65,156H162a2,2,0,0,1,0,4H142.65A34.69,34.69,0,0,0,126,164.25Z"/><path class="cls-4" d="M195,119a2,2,0,0,1-2-2V4.14a.14.14,0,0,0-.14-.14H135.31a27.69,27.69,0,0,0-27.7,27.7,2,2,0,1,1-4,0A31.7,31.7,0,0,1,135.31,0h57.55A4.15,4.15,0,0,1,197,4.14V117A2,2,0,0,1,195,119Z"/><path class="cls-4" d="M115.65,152H95.07l-3-4.37a6,6,0,0,0-5-2.63h-70A3.06,3.06,0,0,1,14,141.94V4.14A4.15,4.15,0,0,1,18.14,0h58.3a31.7,31.7,0,0,1,31.7,31.7,2,2,0,0,1-4,0A27.71,27.71,0,0,0,76.44,4H18.14a.14.14,0,0,0-.14.14V141H87.1a10,10,0,0,1,8.29,4.37L97.18,148h16.36l1.8-2.63a10,10,0,0,1,8.28-4.37H157a2,2,0,0,1,0,4H123.62a6,6,0,0,0-5,2.63Z"/><path class="cls-4" d="M105.93,140h0a2,2,0,0,1-2-2L104,28a2,2,0,0,1,2-2h0a2,2,0,0,1,2,2l-.07,110A2,2,0,0,1,105.93,140Z"/><path class="cls-4" d="M183.3,178.59a5.54,5.54,0,0,1-1.4-.18,5.34,5.34,0,0,1-3.81-3.78L165.9,130a5.37,5.37,0,0,1,6.59-6.6l44.65,12.2a5.37,5.37,0,0,1,2.38,9l-.36.36-24.42,7.31-7.31,24.42-.36.36A5.33,5.33,0,0,1,183.3,178.59Zm2.36-3h0Zm-14.6-48.4a1.41,1.41,0,0,0-.95.4,1.36,1.36,0,0,0-.35,1.34L182,173.58a1.38,1.38,0,0,0,2,.85L191.53,149l25.41-7.6a1.38,1.38,0,0,0,.11-1,1.35,1.35,0,0,0-1-1l-44.64-12.2A1.73,1.73,0,0,0,171.06,127.2Z"/><path class="cls-4" d="M151,104a2,2,0,0,1-2-2V97a2,2,0,0,1,4,0v5A2,2,0,0,1,151,104Z"/><path class="cls-4" d="M151,128a2,2,0,0,1-2-2v-4a2,2,0,0,1,4,0v4A2,2,0,0,1,151,128Z"/><path class="cls-4" d="M165,114h-5a2,2,0,0,1,0-4h5a2,2,0,0,1,0,4Z"/><path class="cls-4" d="M142,114h-4a2,2,0,0,1,0-4h4a2,2,0,0,1,0,4Z"/></g></g></svg>