<svg xmlns="http://www.w3.org/2000/svg" viewBox="0 0 196.59 197.09"><defs><style>.cls-1{fill:#fbda73;}.cls-2{fill:#d2e9f7;}.cls-3{fill:#f08e70;}.cls-4{fill:#3d5a80;}</style></defs><g id="Layer_2" data-name="Layer 2"><g id="Colored_details" data-name="Colored details"><rect class="cls-1" x="4.99" y="129.86" width="104.01" height="32.18" transform="translate(-86.51 83.05) rotate(-45)"/><rect class="cls-1" x="92.61" y="41.27" width="105.97" height="32.18" transform="translate(289.11 -5.04) rotate(135)"/><rect class="cls-2" x="9.95" y="109.99" width="188.67" height="7.39" transform="translate(110.94 -40.44) rotate(45)"/><rect class="cls-3" x="19.23" y="21.89" width="25.74" height="20.58" transform="translate(32.15 -13.27) rotate(45)"/><polygon class="cls-3" points="169.69 185.47 167.67 183.31 182.22 168.76 184.24 170.92 186.95 187.88 169.69 185.47"/></g><g id="icons"><path class="cls-4" d="M35,166.58a2,2,0,0,1-1.41-.58l-7-6.95a2,2,0,1,1,2.82-2.83l7,6.95a2,2,0,0,1,0,2.83A2,2,0,0,1,35,166.58Z"/><path class="cls-4" d="M45.64,149a2,2,0,0,1-1.42-.59l-3.47-3.47a2,2,0,1,1,2.82-2.83l3.48,3.47A2,2,0,0,1,45.64,149Z"/><path class="cls-4" d="M63.25,138.3a2,2,0,0,1-1.41-.59l-7-7a2,2,0,1,1,2.83-2.82l7,6.95a2,2,0,0,1-1.42,3.41Z"/><path class="cls-4" d="M73.92,120.68a2,2,0,0,1-1.41-.58L69,116.62a2,2,0,0,1,2.83-2.83l3.47,3.48a2,2,0,0,1-1.41,3.41Z"/><path class="cls-4" d="M119.49,74.11a2,2,0,0,1-1.42-.58l-3.47-3.48a2,2,0,0,1,2.83-2.82l3.47,3.47a2,2,0,0,1,0,2.83A2,2,0,0,1,119.49,74.11Z"/><path class="cls-4" d="M137.11,63.45a2,2,0,0,1-1.42-.59l-6.95-7a2,2,0,0,1,2.83-2.83l7,7a2,2,0,0,1-1.41,3.42Z"/><path class="cls-4" d="M146.77,47.83a2,2,0,0,1-1.41-.59l-3.48-3.47a2,2,0,0,1,2.83-2.83l3.48,3.48a2,2,0,0,1-1.42,3.41Z"/><path class="cls-4" d="M172.65,42.61a7,7,0,1,1,4.95-11.95h0a7,7,0,0,1-4.95,11.94Zm0-10a3,3,0,0,0-2.12.88,3,3,0,0,0-.88,2.12,2.94,2.94,0,0,0,.88,2.12,3.07,3.07,0,0,0,4.24,0,3,3,0,0,0,0-4.25h0A3,3,0,0,0,172.65,32.61Z"/><path class="cls-4" d="M189.54,190.93,168.15,187,12.74,30.23,30.19,12.78,185.61,169.55Zm-19.43-7.64,14.45,2.65-2.66-14.45L30.18,18.45l-11.8,11.8Z"/><path class="cls-4" d="M190.66,194.05a2,2,0,0,1-1.41-.59l-3.61-3.61a2,2,0,0,1,2.82-2.83l3.62,3.61a2,2,0,0,1-1.42,3.42Z"/><path class="cls-4" d="M13.25,22.56A2,2,0,0,1,11.83,22L2.1,12.24A7.17,7.17,0,0,1,12.24,2.1L22,11.83a2,2,0,1,1-2.82,2.83L9.41,4.92A3.17,3.17,0,0,0,4.92,9.41l9.74,9.74a2,2,0,0,1-1.41,3.41Z"/><path class="cls-4" d="M168.26,185.13a2,2,0,0,1-1.41-3.42L180,168.54a2,2,0,1,1,2.83,2.83l-13.18,13.17A2,2,0,0,1,168.26,185.13Z"/><path class="cls-4" d="M92.77,65.57A2,2,0,0,1,91.35,65L56,29.67l-20,19.95a2,2,0,0,1-2.82-2.83L56,24,94.18,62.16a2,2,0,0,1,0,2.83A2,2,0,0,1,92.77,65.57Z"/><path class="cls-4" d="M127.89,100.54a2,2,0,0,1-1.41-3.42l65.44-65.44L171.46,11.22l-64,64a2,2,0,1,1-2.83-2.82L169.77,7.25a2.44,2.44,0,0,1,3.38,0L195.89,30a2.38,2.38,0,0,1,0,3.37L129.3,100A2,2,0,0,1,127.89,100.54Zm42.43-90.47h0Zm2.29,0h0Z"/><path class="cls-4" d="M31.18,197.09a2.38,2.38,0,0,1-1.68-.7L6.75,173.64a2.38,2.38,0,0,1,0-3.37l66.66-66.66a2,2,0,0,1,2.83,2.83L10.72,172l20.46,20.46,64-64A2,2,0,1,1,98,131.26L32.87,196.39A2.42,2.42,0,0,1,31.18,197.09Z"/></g></g></svg>