<svg xmlns="http://www.w3.org/2000/svg" viewBox="0 0 182 214.86"><defs><style>.cls-1{fill:#f08e70;}.cls-2{fill:#d2e9f7;}.cls-3{fill:#fbda73;}.cls-4{fill:#3d5a80;}</style></defs><g id="Layer_2" data-name="Layer 2"><g id="Colored_details" data-name="Colored details"><circle class="cls-1" cx="90" cy="68" r="10.5"/><path class="cls-2" d="M84.6,37.76c27.1,3.33,48.05,25.87,48.05,53.19a52.87,52.87,0,0,1-17.91,39.58,21.39,21.39,0,0,0-7.24,15.94v21h14v-21a21.39,21.39,0,0,1,7.24-15.94A52.87,52.87,0,0,0,146.65,91C146.65,59.08,118.12,33.7,84.6,37.76Z"/><path class="cls-2" d="M118.51,167.5l-4-.06v20.63a9.43,9.43,0,0,1-9.42,9.43l-13.56,0,0,0v5s0,0,0,.05a10.72,10.72,0,0,0-3.26,8.08l.1,2.87h7.21a3,3,0,0,0,3-3v-8l15.69,0a7.32,7.32,0,0,0,7.31-7.32V170.54A3,3,0,0,0,118.51,167.5Z"/><rect class="cls-3" x="77.5" y="107.5" width="26" height="52"/></g><g id="icons"><path class="cls-4" d="M90.5,214.86A11.51,11.51,0,0,1,79,203.36V202a2,2,0,0,1,4,0v1.36a7.5,7.5,0,0,0,15,0V200h15.55a4.92,4.92,0,0,0,4.47-2.88l.41-.91a17.56,17.56,0,0,0,1.57-7.28V172.21a2.21,2.21,0,0,0-2.21-2.21H65.21A2.21,2.21,0,0,0,63,172.21v16.9a17.76,17.76,0,0,0,1.62,7.39l1.44,3.12a.73.73,0,0,0,.66.42h0l3.64-.06h0a2,2,0,0,1,0,4l-3.63.06h-.09a4.74,4.74,0,0,1-4.29-2.74L61,198.18a21.83,21.83,0,0,1-2-9.07v-16.9A6.22,6.22,0,0,1,65.21,166h52.58a6.22,6.22,0,0,1,6.21,6.21v16.72a21.48,21.48,0,0,1-1.93,8.93l-.41.91a8.91,8.91,0,0,1-8.11,5.23H102A11.5,11.5,0,0,1,90.5,214.86Z"/><path class="cls-4" d="M120,161a2,2,0,0,1-2-2V149a27.12,27.12,0,0,1,8.43-19.74,52.43,52.43,0,0,0-6.91-81.95c-15-10-33.84-11.49-51.54-4.06A47.49,47.49,0,0,0,42.89,68.09c-9.43,22-5,45.42,11.58,61.07A27.35,27.35,0,0,1,63,149v10a2,2,0,0,1-4,0V149a23.36,23.36,0,0,0-7.28-16.93C33.9,115.24,29.11,90.12,39.21,66.52a51.54,51.54,0,0,1,27.22-27c19-7.95,39.12-6.34,55.31,4.42a56.44,56.44,0,0,1,7.43,88.2A23.1,23.1,0,0,0,122,149v10A2,2,0,0,1,120,161Z"/><path class="cls-4" d="M98,180H71a2,2,0,0,1,0-4H98a2,2,0,0,1,0,4Z"/><path class="cls-4" d="M112,192H85a2,2,0,0,1,0-4h27a2,2,0,0,1,0,4Z"/><path class="cls-4" d="M91,26a2,2,0,0,1-2-2V2a2,2,0,0,1,4,0V24A2,2,0,0,1,91,26Z"/><path class="cls-4" d="M124.58,35.06a2,2,0,0,1-1.73-3l10.94-19a2,2,0,0,1,3.47,2l-10.95,19A2,2,0,0,1,124.58,35.06Z"/><path class="cls-4" d="M149.18,59.33a2,2,0,0,1-1-3.73l19-10.94a2,2,0,0,1,2,3.47l-19,10.93A2,2,0,0,1,149.18,59.33Z"/><path class="cls-4" d="M180,93H158a2,2,0,1,1,0-4h22a2,2,0,0,1,0,4Z"/><path class="cls-4" d="M168.53,137a2,2,0,0,1-1-.27l-18.94-11a2,2,0,1,1,2-3.46l18.94,11a2,2,0,0,1-1,3.74Z"/><path class="cls-4" d="M15,137.64a2,2,0,0,1-1-3.74L33,123a2,2,0,1,1,2,3.46L16,137.37A2,2,0,0,1,15,137.64Z"/><path class="cls-4" d="M24,94h0L2,94a2,2,0,0,1,0-4H2l22,0a2,2,0,1,1,0,4Z"/><path class="cls-4" d="M33.66,60a2,2,0,0,1-1-.27l-18.93-11a2,2,0,0,1,2-3.46l18.93,11a2,2,0,0,1-1,3.73Z"/><path class="cls-4" d="M58,35.43a2,2,0,0,1-1.73-1l-10.9-19a2,2,0,1,1,3.47-2l10.9,19A2,2,0,0,1,59,35.17,2,2,0,0,1,58,35.43Z"/><path class="cls-4" d="M103,160a2,2,0,0,1-2-2V100.63L90,78.08,79,100.63V158a2,2,0,0,1-4,0V99.71L88.52,72h3L105,99.71V158A2,2,0,0,1,103,160Z"/><path class="cls-4" d="M100,109H80a2,2,0,0,1,0-4h20a2,2,0,0,1,0,4Z"/><path class="cls-4" d="M90.21,157a2,2,0,0,1-2-2L88,107a2,2,0,0,1,2-2h0a2,2,0,0,1,2,2l.21,48a2,2,0,0,1-2,2Z"/></g></g></svg>