<svg xmlns="http://www.w3.org/2000/svg" viewBox="0 0 53.7 51.58"><defs><style>.cls-1{fill:#354251;}.cls-2{fill:#f9c441;}.cls-3{fill:#ffe48d;}</style></defs><g id="Layer_2" data-name="Layer 2"><g id="Layer_1-2" data-name="Layer 1"><path class="cls-1" d="M45.93,34.76a1.44,1.44,0,0,1-1.44-1.44V27.58a1.44,1.44,0,1,1,2.88,0v5.74A1.44,1.44,0,0,1,45.93,34.76Z"/><path class="cls-1" d="M33.94,46.42h-15C12,46.42,6.33,41.12,6.33,34.6v-7a1.44,1.44,0,0,1,2.88,0v7c0,4.93,4.36,8.94,9.71,8.94h15a1.44,1.44,0,1,1,0,2.88Z"/><path class="cls-1" d="M53,15.65,27.6.21a1.44,1.44,0,0,0-1.5,0L.69,15.65a1.43,1.43,0,0,0,0,2.42L26.05,35a1.38,1.38,0,0,0,.8.25,1.45,1.45,0,0,0,.8-.25l11-7.31v6.64a4,4,0,0,0-.33,7.29L36.1,49.77A1.45,1.45,0,0,0,36.35,51a1.42,1.42,0,0,0,1.14.57H42.6A1.45,1.45,0,0,0,43.74,51,1.41,1.41,0,0,0,44,49.77l-2.17-8.13a4,4,0,0,0-.33-7.29V25.8l11.58-7.73A1.43,1.43,0,0,0,53,15.65ZM41.16,38.07A1.12,1.12,0,1,1,40,37h.19A1.12,1.12,0,0,1,41.16,38.07ZM39.36,48.7,40,46.17l.68,2.53Zm.86-25.52-9.51-6.06a1.42,1.42,0,0,0-2,.43,1.44,1.44,0,0,0,.44,2l8.44,5.39L26.85,32.1,4.11,16.93,26.85,3.12,49.59,16.93Z"/><path class="cls-2" d="M30.71,17.12l9.51,6.06,9.37-6.25L26.85,3.12,4.11,16.93,26.85,32.1l10.76-7.17-8.44-5.39a1.44,1.44,0,0,1-.44-2A1.42,1.42,0,0,1,30.71,17.12Z"/><path class="cls-3" d="M29.17,19.54a1.44,1.44,0,0,1-.44-2,1.42,1.42,0,0,1,2-.43l9.51,6.06,9.37-6.25L29.52,4.74,9.41,17,29.47,30.35l8.14-5.42Z"/></g></g></svg>