<svg xmlns="http://www.w3.org/2000/svg" viewBox="0 0 230 157.49"><defs><style>.cls-1{fill:#d2e9f7;}.cls-2{fill:#fbda73;}.cls-3{fill:#3d5a80;}</style></defs><g id="Layer_2" data-name="Layer 2"><g id="Colored_details" data-name="Colored details"><polygon class="cls-1" points="159.27 73.1 115.72 88.91 3.5 46.29 3.5 43.87 2.5 44.25 2.5 59.31 114.71 101.93 158.27 86.11 228.04 59.31 228.4 44.77 159.27 73.1"/><polygon class="cls-1" points="93.5 153.42 70.5 149.46 70.5 85.43 93.5 94.56 93.5 153.42"/><path class="cls-2" d="M204.76,140.65h-7.52a4.74,4.74,0,0,1-4.74-4.75v-9.56a6.61,6.61,0,0,1,2.79-5.39l5.71-4,5.71,4a6.61,6.61,0,0,1,2.79,5.39v9.56A4.74,4.74,0,0,1,204.76,140.65Z"/></g><g id="icons"><path class="cls-3" d="M115,103.9a12,12,0,0,1-4.25-.79L1.64,61.19A2.58,2.58,0,0,1,0,58.8v-14a2.56,2.56,0,0,1,1.65-2.39L110.78.78a11.81,11.81,0,0,1,8.44,0L228.35,42.42A2.56,2.56,0,0,1,230,44.81v14a2.58,2.58,0,0,1-1.64,2.39L190.79,75.63a2,2,0,0,1-1.44-3.74L226,57.81v-12L117.8,4.52a7.83,7.83,0,0,0-5.6,0L4,45.8v12L112.19,99.37a7.78,7.78,0,0,0,5.62,0l39.42-15.14A2,2,0,1,1,158.67,88l-39.42,15.15A12,12,0,0,1,115,103.9ZM226.93,46.15h0Zm-223.85,0h0Z"/><path class="cls-3" d="M115.5,157.49c-29.33,0-60.5-6.08-60.5-17.35v-41a2,2,0,0,1,4,0v41c0,5.58,21.49,13.35,56.5,13.35s56.5-7.77,56.5-13.35v-41a2,2,0,1,1,4,0v41C176,151.41,144.83,157.49,115.5,157.49Z"/><path class="cls-3" d="M204.31,142.15H200a2,2,0,0,1,0-4h4.31a3.69,3.69,0,0,0,3.69-3.69v-10a4.15,4.15,0,0,0-2.32-3.74L199,117.42V93.9L113.61,54.61A2,2,0,0,1,115.28,51L203,91.34v23.6l4.46,2.22a8.12,8.12,0,0,1,4.54,7.32v10A7.7,7.7,0,0,1,204.31,142.15Z"/></g></g></svg>