<svg xmlns="http://www.w3.org/2000/svg" viewBox="0 0 58.17 45.27"><defs><style>.cls-1{fill:#354251;}.cls-2{fill:#f9c441;}.cls-3{fill:#ffe48d;}.cls-4{fill:#74c1b9;}.cls-5{fill:#9ad7d2;}</style></defs><g id="Layer_2" data-name="Layer 2"><g id="Layer_1-2" data-name="Layer 1"><path class="cls-1" d="M56.73,42.39H53.92V1.44A1.43,1.43,0,0,0,52.48,0H41a1.43,1.43,0,0,0-1.44,1.44v41H36.07V1.44A1.43,1.43,0,0,0,34.63,0H23.15a1.43,1.43,0,0,0-1.44,1.44v41H18.22V1.44A1.43,1.43,0,0,0,16.78,0H5.3A1.43,1.43,0,0,0,3.86,1.44v41H1.44a1.44,1.44,0,1,0,0,2.88H56.73a1.44,1.44,0,1,0,0-2.88Zm-41.38,0H6.74V18h8.61Zm0-27.23H6.74V2.88h8.61ZM33.19,2.88V15.16H24.58V2.88Zm0,39.51H24.58V18h8.61Zm17.85,0H42.43V18H51Zm0-27.23H42.43V2.88H51Z"/><rect class="cls-2" x="6.74" y="2.88" width="8.61" height="12.28"/><rect class="cls-2" x="6.74" y="18.03" width="8.61" height="24.36"/><rect class="cls-3" x="9.43" y="2.88" width="5.92" height="12.28"/><rect class="cls-3" x="9.43" y="18.03" width="5.92" height="24.36"/><rect class="cls-4" x="24.58" y="2.88" width="8.61" height="12.28"/><rect class="cls-4" x="24.58" y="18.03" width="8.61" height="24.36"/><rect class="cls-5" x="27.33" y="18.03" width="5.87" height="24.36"/><rect class="cls-5" x="27.33" y="2.88" width="5.87" height="12.28"/><rect class="cls-2" x="42.44" y="2.88" width="8.6" height="12.28"/><rect class="cls-2" x="42.44" y="18.03" width="8.6" height="24.36"/><rect class="cls-3" x="45.33" y="2.88" width="5.72" height="12.28"/><rect class="cls-3" x="45.33" y="18.03" width="5.72" height="24.36"/><path class="cls-1" d="M11,35.6A1.45,1.45,0,0,1,9.6,34.16V26.1a1.44,1.44,0,0,1,2.88,0v8.06A1.45,1.45,0,0,1,11,35.6Z"/><path class="cls-1" d="M28.89,35.6a1.45,1.45,0,0,1-1.44-1.44V26.1a1.44,1.44,0,0,1,2.88,0v8.06A1.45,1.45,0,0,1,28.89,35.6Z"/><path class="cls-1" d="M46.74,35.6a1.44,1.44,0,0,1-1.44-1.44V26.1a1.44,1.44,0,0,1,2.88,0v8.06A1.45,1.45,0,0,1,46.74,35.6Z"/></g></g></svg>