<svg xmlns="http://www.w3.org/2000/svg" viewBox="0 0 39.6 51.65"><defs><style>.cls-1{fill:#354251;}.cls-2{fill:#f9c441;}.cls-3{fill:#ffe48d;}.cls-4{fill:#c6c5c4;}.cls-5{fill:#fff;}</style></defs><g id="Layer_2" data-name="Layer 2"><g id="Layer_1-2" data-name="Layer 1"><path class="cls-1" d="M38.16,47H35.4a1.44,1.44,0,1,1,0-2.88h1.33V2.88H2.88V44.07H17.37a1.44,1.44,0,0,1,0,2.88H1.44A1.44,1.44,0,0,1,0,45.51V1.44A1.43,1.43,0,0,1,1.44,0H38.16A1.43,1.43,0,0,1,39.6,1.44V45.51A1.44,1.44,0,0,1,38.16,47Z"/><path class="cls-2" d="M35.4,44.07h1.33V2.88H2.88V44.07H17.37a1.44,1.44,0,0,1,1.44,1.44H34A1.44,1.44,0,0,1,35.4,44.07Z"/><path class="cls-3" d="M35.4,44.07h1.33V2.88H7.94V44.07h9.43a1.44,1.44,0,0,1,1.44,1.44H34A1.44,1.44,0,0,1,35.4,44.07Z"/><path class="cls-1" d="M33.11,34.14a4.32,4.32,0,0,1-.31-.42,3.92,3.92,0,0,1-.08-.55,2.86,2.86,0,0,0-3-3,4.37,4.37,0,0,1-.56-.08,4.92,4.92,0,0,1-.41-.31,3.36,3.36,0,0,0-2.16-1,3.36,3.36,0,0,0-2.16,1,4,4,0,0,1-.42.3,2.71,2.71,0,0,1-.55.09,3.38,3.38,0,0,0-2.17.83,3.38,3.38,0,0,0-.83,2.17,3.92,3.92,0,0,1-.08.55,4.32,4.32,0,0,1-.31.42,3.36,3.36,0,0,0-1,2.16,3.36,3.36,0,0,0,1,2.16,3.39,3.39,0,0,1,.31.41,4.37,4.37,0,0,1,.08.56,4.72,4.72,0,0,0,.32,1.41v9.37a1.44,1.44,0,0,0,.89,1.33,1.46,1.46,0,0,0,.55.11,1.44,1.44,0,0,0,1-.42l3.37-3.37,3.34,3.34a1.44,1.44,0,0,0,2.46-1V40.84a4.71,4.71,0,0,0,.32-1.42,4.45,4.45,0,0,1,.08-.55,3.39,3.39,0,0,1,.31-.41,3.36,3.36,0,0,0,1-2.16A3.36,3.36,0,0,0,33.11,34.14ZM22.29,36a3.73,3.73,0,0,0,1-2.49c0-.11,0-.27.05-.39l.4,0a4.5,4.5,0,0,0,1.35-.29A4.51,4.51,0,0,0,26.25,32l.34-.27.34.27a4.34,4.34,0,0,0,1.13.74,4.43,4.43,0,0,0,1.35.29l.4,0c0,.12,0,.28.05.39a4.49,4.49,0,0,0,.29,1.36A4.79,4.79,0,0,0,30.88,36a2.88,2.88,0,0,1,.27.34,4,4,0,0,1-.27.34,4.59,4.59,0,0,0-.73,1.13,3.55,3.55,0,0,0-.25,1,1.45,1.45,0,0,0-.36.77l-.13,0a4.72,4.72,0,0,0-1.35.28,4.91,4.91,0,0,0-1.13.74,4,4,0,0,1-.34.27,2.88,2.88,0,0,1-.34-.27,5.14,5.14,0,0,0-1.13-.74,4.79,4.79,0,0,0-1.35-.28l-.4,0c0-.12,0-.28-.05-.4A4.43,4.43,0,0,0,23,37.77a4.34,4.34,0,0,0-.74-1.13L22,36.3C22.1,36.19,22.21,36.06,22.29,36Zm5.33,8.85a1.45,1.45,0,0,0-2,0l-1.93,1.93V42.45a1.75,1.75,0,0,1,.36.06,4.32,4.32,0,0,1,.42.31,3.36,3.36,0,0,0,2.16,1,3.36,3.36,0,0,0,2.16-1,3.39,3.39,0,0,1,.41-.31,1.75,1.75,0,0,1,.36-.06v4.27Z"/><path class="cls-4" d="M27.62,44.81l1.9,1.91V42.45a1.75,1.75,0,0,0-.36.06,3.39,3.39,0,0,0-.41.31,3.36,3.36,0,0,1-2.16,1,3.36,3.36,0,0,1-2.16-1,4.32,4.32,0,0,0-.42-.31,1.75,1.75,0,0,0-.36-.06v4.29l1.93-1.93A1.45,1.45,0,0,1,27.62,44.81Z"/><path class="cls-4" d="M26.25,40.59a2.88,2.88,0,0,0,.34.27,4,4,0,0,0,.34-.27,5.66,5.66,0,0,1,.8-.57l-2,.17C25.91,40.32,26.08,40.46,26.25,40.59Z"/><path class="cls-5" d="M29.16,42.51a3.39,3.39,0,0,0-.41.31,3.36,3.36,0,0,1-2.16,1,2.55,2.55,0,0,1-1.1-.25V44.9l.09-.09a1.45,1.45,0,0,1,2,0l.58.59.19-.25,1.13,1.52V42.45A1.75,1.75,0,0,0,29.16,42.51Z"/><polygon class="cls-5" points="25.49 48.97 25.49 49.04 25.7 48.76 25.49 48.97"/><path class="cls-5" d="M26.25,40.59a2.88,2.88,0,0,0,.34.27,4,4,0,0,0,.34-.27,6,6,0,0,1,.61-.45l-1.65.17Z"/><path class="cls-4" d="M29.54,39.55a1.45,1.45,0,0,1,.36-.77,3.55,3.55,0,0,1,.25-1,4.59,4.59,0,0,1,.73-1.13,4,4,0,0,0,.27-.34,2.88,2.88,0,0,0-.27-.34,4.79,4.79,0,0,1-.73-1.13,4.49,4.49,0,0,1-.29-1.36c0-.11,0-.27-.05-.39l-.4,0a4.43,4.43,0,0,1-1.35-.29A4.34,4.34,0,0,1,26.93,32l-.34-.27-.34.27a4.51,4.51,0,0,1-1.13.74,4.5,4.5,0,0,1-1.35.29l-.4,0c0,.12,0,.28-.05.39a3.73,3.73,0,0,1-1,2.49c-.08.1-.19.23-.26.34l.26.34A4.34,4.34,0,0,1,23,37.77a4.43,4.43,0,0,1,.29,1.35c0,.12,0,.28.05.4l.4,0a4.79,4.79,0,0,1,1.35.28,5.14,5.14,0,0,1,1.13.74,2.88,2.88,0,0,0,.34.27,4,4,0,0,0,.34-.27,4.91,4.91,0,0,1,1.13-.74,4.72,4.72,0,0,1,1.35-.28Z"/><path class="cls-5" d="M25.87,32.62c-.24.51.3,1.33.17,2s-.93,1.09-.93,1.72.82,1.15.93,1.72-.41,1.44-.17,1.95a1.64,1.64,0,0,0,1,.68l.07-.06a4.91,4.91,0,0,1,1.13-.74,4.72,4.72,0,0,1,1.35-.28l.13,0a1.45,1.45,0,0,1,.36-.77,3.55,3.55,0,0,1,.25-1,4.59,4.59,0,0,1,.73-1.13,4,4,0,0,0,.27-.34,2.88,2.88,0,0,0-.27-.34,4.79,4.79,0,0,1-.73-1.13,4.49,4.49,0,0,1-.29-1.36c0-.11,0-.27-.05-.39l-.4,0a4.43,4.43,0,0,1-1.35-.29A4.34,4.34,0,0,1,26.93,32l-.07-.06A1.68,1.68,0,0,0,25.87,32.62Z"/><path class="cls-1" d="M29.81,10.27H7.94a1.44,1.44,0,0,1,0-2.87H29.81a1.44,1.44,0,1,1,0,2.87Z"/><path class="cls-1" d="M29.81,17.17H7.94a1.44,1.44,0,0,1,0-2.87H29.81a1.44,1.44,0,1,1,0,2.87Z"/><path class="cls-1" d="M29.81,24.07H7.94a1.44,1.44,0,0,1,0-2.88H29.81a1.44,1.44,0,1,1,0,2.88Z"/></g></g></svg>