<svg xmlns="http://www.w3.org/2000/svg" viewBox="0 0 234 173"><defs><style>.cls-1{fill:#d2e9f7;}.cls-2{fill:#fbda73;}.cls-3{fill:#f08e70;}.cls-4{fill:#3d5a80;}</style></defs><g id="Layer_2" data-name="Layer 2"><g id="Colored_details" data-name="Colored details"><path class="cls-1" d="M52.75,25.22A19,19,0,0,0,41,24.67,20.06,20.06,0,0,1,41,63.5,20,20,0,0,0,66.19,43.58,20.42,20.42,0,0,0,52.75,25.22Z"/><path class="cls-2" d="M100.75,107.85,76.84,79.23l-2.48-.75a5.11,5.11,0,0,0-4-2H28A15.48,15.48,0,0,0,12.5,92V171.5h63V120.85l13.78,8.65h47.49a18.41,18.41,0,0,0,18.1-15.06l.77-4.2Z"/><polygon class="cls-3" points="141 41.5 101.07 41.5 109.07 13.5 149 13.5 141 41.5"/><path class="cls-1" d="M225.13,2.5h-2.57L201.55,77a6.23,6.23,0,0,1-6,4.54H80.33l6.94,9H203.55a6.23,6.23,0,0,0,6-4.54l21.38-75.8A6,6,0,0,0,225.13,2.5Z"/></g><g id="icons"><path class="cls-4" d="M46,67A23,23,0,1,1,69,44,23,23,0,0,1,46,67Zm0-42A19,19,0,1,0,65,44,19,19,0,0,0,46,25Z"/><path class="cls-4" d="M12,170a2,2,0,0,1-2-2V93.85A20.64,20.64,0,0,1,24.5,74.09l.29-.09H67a19.5,19.5,0,0,1,15.52,7.76l18.91,23.87,55.71,2.19v1.92A21.26,21.26,0,0,1,135.47,131H86.52L59.14,112.63a2,2,0,1,1,2.23-3.32L87.74,127h47.77A17.28,17.28,0,0,0,153,111.66l-53.6-2.11L79.35,84.2A15.5,15.5,0,0,0,67,78H25.41A16.63,16.63,0,0,0,14,93.85V168A2,2,0,0,1,12,170Z"/><path class="cls-4" d="M75,170a2,2,0,0,1-2-2V134a2,2,0,0,1,4,0v34A2,2,0,0,1,75,170Z"/><path class="cls-4" d="M203.56,92H100a2,2,0,0,1,0-4H203.56a4.23,4.23,0,0,0,4.05-3.07L229,9.35A4.22,4.22,0,0,0,224.89,4H101.76a4.22,4.22,0,0,0-4.05,3.07L80.39,68.41a2,2,0,0,1-3.85-1.09L93.86,6a8.24,8.24,0,0,1,7.9-6H224.89a8.2,8.2,0,0,1,7.9,10.44L211.46,86A8.24,8.24,0,0,1,203.56,92Z"/><path class="cls-4" d="M80,66a2,2,0,0,1,0-4l107-.45h0a2,2,0,0,1,0,4L80,66Z"/><path class="cls-4" d="M167.87,129.35a2,2,0,0,1-1.39-.56A40.79,40.79,0,0,1,154,99.51V90a2,2,0,0,1,4,0v9.51a36.79,36.79,0,0,0,11.25,26.4,2,2,0,0,1-1.38,3.44Z"/><path class="cls-4" d="M131,101a2,2,0,0,1-2-2V90a2,2,0,0,1,4,0v9A2,2,0,0,1,131,101Z"/><path class="cls-4" d="M232,131H99a2,2,0,0,1,0-4H232a2,2,0,0,1,0,4Z"/><path class="cls-4" d="M153,173H2a2,2,0,0,1,0-4H153a2,2,0,0,1,0,4Z"/><path class="cls-4" d="M140,43H101.78a3.54,3.54,0,0,1-3.39-4.52l7.28-24.94a3.56,3.56,0,0,1,3.4-2.54h38.21a3.54,3.54,0,0,1,3.4,4.52l-7.29,24.94A3.54,3.54,0,0,1,140,43Zm-37.6-4h37.25l7-24H109.41Zm44.88-24h0Z"/><path class="cls-4" d="M212,24H161a2,2,0,0,1,0-4h51a2,2,0,0,1,0,4Z"/><path class="cls-4" d="M186,39H156a2,2,0,0,1,0-4h30a2,2,0,0,1,0,4Z"/></g></g></svg>