<svg xmlns="http://www.w3.org/2000/svg" viewBox="0 0 215.74 213"><defs><style>.cls-1{fill:#fbda73;}.cls-2{fill:#d2e9f7;}.cls-3{fill:#f08e70;}.cls-4{fill:#3d5a80;}</style></defs><g id="Layer_2" data-name="Layer 2"><g id="Colored_details" data-name="Colored details"><path class="cls-1" d="M61.34,58.5v-33a7,7,0,0,1,7-7h4v-.85A15.15,15.15,0,0,1,87.47,2.5l71.87-.09V20A15.49,15.49,0,0,1,143.77,35.5l-63.41-.35A7.31,7.31,0,0,0,73,42.07L72.17,58.5Z"/><path class="cls-2" d="M148.48,57.36l2.28-23.86H137l-5.18,62.57c-.1,1.17-.67,2.27-.64,3.43H145l1.9-22.15C164.5,70.33,148.48,57.36,148.48,57.36Z"/><path class="cls-2" d="M209.79,101.5H202.2l-23.47,95.37a4.76,4.76,0,0,1-4.63,3.63h-149l1.9,6.83a5.69,5.69,0,0,0,5.49,4.17H184.1a4.76,4.76,0,0,0,4.63-3.63l25-101.39A4,4,0,0,0,209.79,101.5Z"/><polygon class="cls-3" points="114.02 150.5 101.89 150.5 95.83 161 101.89 171.5 114.02 171.5 120.08 161 114.02 150.5"/></g><g id="icons"><path class="cls-4" d="M187.84,40a2,2,0,0,1-2-2V33a2,2,0,0,1,4,0v5A2,2,0,0,1,187.84,40Z"/><path class="cls-4" d="M187.84,64a2,2,0,0,1-2-2V58a2,2,0,0,1,4,0v4A2,2,0,0,1,187.84,64Z"/><path class="cls-4" d="M201.84,50h-5a2,2,0,0,1,0-4h5a2,2,0,0,1,0,4Z"/><path class="cls-4" d="M178.84,50h-4a2,2,0,0,1,0-4h4a2,2,0,0,1,0,4Z"/><path class="cls-4" d="M145.47,93h-.16a2,2,0,0,1-1.84-2.15l1.2-14.92,1.28-.4a8.27,8.27,0,0,0,5.59-6l.37-1.53a4.66,4.66,0,0,0-.73-3.85,4.81,4.81,0,0,0-3.45-2l-2-.21,1.66-17.42a2,2,0,1,1,4,.38l-1.3,13.7a8.77,8.77,0,0,1,5.7,10.35l-.38,1.53a12.34,12.34,0,0,1-7,8.34l-1,12.32A2,2,0,0,1,145.47,93Z"/><path class="cls-4" d="M75.6,92.93a2,2,0,0,1-2-1.84l-.94-11.74a12.32,12.32,0,0,1-8.4-8.89,2,2,0,0,1,3.89-.94,8.33,8.33,0,0,0,6.71,6.25l1.54.25,1.18,14.75a2,2,0,0,1-1.83,2.16Z"/><path class="cls-4" d="M70.2,62H62.48a3.64,3.64,0,0,1-3.64-3.64V22.73l.1-.31c1.61-4.84,5.82-7.25,11.35-6.56A18.14,18.14,0,0,1,88.33,0H159.4a3.44,3.44,0,0,1,3.44,3.44V18.59A18.43,18.43,0,0,1,144.42,37H80a6.21,6.21,0,0,0-6.2,6.2V58.36A3.65,3.65,0,0,1,70.2,62Zm-7.36-4h7V43.2A10.21,10.21,0,0,1,80,33h64.38a14.44,14.44,0,0,0,14.42-14.41V4H88.33A14.16,14.16,0,0,0,74.2,16.9a3.43,3.43,0,0,1-1.31,2.4,3.19,3.19,0,0,1-2.52.61c-2.68-.46-6.14-.22-7.53,3.48Z"/><path class="cls-4" d="M183.89,213h-152a7.48,7.48,0,0,1-7.33-5.86L.15,106.29A6,6,0,0,1,6,99H209.78a6,6,0,0,1,5.82,7.25L191.21,207.17A7.47,7.47,0,0,1,183.89,213ZM6,103a2,2,0,0,0-1.53.73A2,2,0,0,0,4,105.39L28.42,206.23A3.5,3.5,0,0,0,31.85,209h152a3.49,3.49,0,0,0,3.42-2.74L211.7,105.35a2,2,0,0,0-.39-1.62,2,2,0,0,0-1.53-.73Z"/><path class="cls-4" d="M112.82,174H102.6A4.14,4.14,0,0,1,99,171.93l-5.12-8.86a4.11,4.11,0,0,1,0-4.14L99,150.07A4.14,4.14,0,0,1,102.6,148h10.22a4.15,4.15,0,0,1,3.59,2.07l5.11,8.86a4.14,4.14,0,0,1,0,4.14l-5.11,8.86A4.15,4.15,0,0,1,112.82,174ZM102.6,152a.16.16,0,0,0-.13.07l-5.11,8.86a.12.12,0,0,0,0,.14l5.11,8.86a.16.16,0,0,0,.13.07h10.22a.17.17,0,0,0,.13-.07l5.11-8.86a.12.12,0,0,0,0-.14L113,152.07a.17.17,0,0,0-.13-.07Z"/><path class="cls-4" d="M97.84,72h-4a2,2,0,0,1,0-4h4a2,2,0,0,1,0,4Z"/><path class="cls-4" d="M127.84,72h-5a2,2,0,0,1,0-4h5a2,2,0,0,1,0,4Z"/><path class="cls-4" d="M110.84,93a2,2,0,0,1-2-2V80a2,2,0,0,1,4,0V91A2,2,0,0,1,110.84,93Z"/></g></g></svg>