<svg xmlns="http://www.w3.org/2000/svg" viewBox="0 0 37.97 51.8"><defs><style>.cls-1{fill:#c6c5c4;}.cls-2{fill:#fff;}.cls-3{fill:#354251;}.cls-4{fill:#74c1b9;}.cls-5{fill:#9ad7d2;}</style></defs><g id="Layer_2" data-name="Layer 2"><g id="Layer_1-2" data-name="Layer 1"><path class="cls-1" d="M14,40.21v4.36h2.24l.39-.39a1.45,1.45,0,0,1,1-.42,1.42,1.42,0,0,1,1,.42l.39.39h2.33V40.21Z"/><path class="cls-1" d="M29.82,43.13l0-8H6.88A4,4,0,0,0,3.07,37.9a1.21,1.21,0,0,1-.09.2,5.3,5.3,0,0,0,0,2,1.08,1.08,0,0,1,.08.19v0a1.51,1.51,0,0,1,.07.37A3.24,3.24,0,0,0,6,43.13h5.08V38.77a1.45,1.45,0,0,1,1.44-1.44H22.8a1.44,1.44,0,0,1,1.44,1.44v4.36Z"/><path class="cls-2" d="M14,40.21v4.36h2.24l.39-.39a1.45,1.45,0,0,1,1-.42,1.42,1.42,0,0,1,1,.42l.39.39h2.33V40.21Z"/><path class="cls-2" d="M29.82,43.13l0-8H7.8a6.52,6.52,0,0,0-1.27,4h0a6.55,6.55,0,0,0,1.27,4h3.31V38.77a1.45,1.45,0,0,1,1.44-1.44H22.8a1.44,1.44,0,0,1,1.44,1.44v4.36Z"/><path class="cls-3" d="M38,33.68V1.44A1.43,1.43,0,0,0,36.54,0H11.4A11.16,11.16,0,0,0,.26,11.14v26a7.78,7.78,0,0,0-.26,2C0,42.92,2.7,46,6,46h5.08v4.27a1.44,1.44,0,0,0,2.46,1l4.07-4.07,4.15,4.15a1.44,1.44,0,0,0,1,.42,1.46,1.46,0,0,0,.55-.11,1.44,1.44,0,0,0,.89-1.33V46H36.33a1.44,1.44,0,1,0,0-2.88H32.69l0-8h3.88A1.44,1.44,0,0,0,38,33.68ZM11.11,2.88V32.24H6a5.4,5.4,0,0,0-2.89.85v-22A8.28,8.28,0,0,1,11.11,2.88Zm10.26,44-2.72-2.71a1.42,1.42,0,0,0-1-.42,1.45,1.45,0,0,0-1,.42L14,46.81v-6.6h7.38Zm8.45-3.76H24.24V38.77a1.44,1.44,0,0,0-1.44-1.44H12.55a1.45,1.45,0,0,0-1.44,1.44v4.36H6a3.24,3.24,0,0,1-2.89-2.4,1.51,1.51,0,0,0-.07-.37v0A1.08,1.08,0,0,0,3,40.15a5.3,5.3,0,0,1,0-2,1.21,1.21,0,0,0,.09-.2,4,4,0,0,1,3.81-2.78H29.79ZM35.1,32.24H14V2.88H35.1Z"/><path class="cls-4" d="M16.62,44.18a1.45,1.45,0,0,1,1-.42,1.42,1.42,0,0,1,1,.42l2.72,2.71V40.21H14v6.6Z"/><path class="cls-5" d="M17.64,43.76a1.42,1.42,0,0,1,1,.42l2.72,2.71V40.21H16.09v4.5l.53-.53A1.45,1.45,0,0,1,17.64,43.76Z"/><path class="cls-1" d="M11.11,32.24V2.88a8.28,8.28,0,0,0-8,8.26v22A5.4,5.4,0,0,1,6,32.24h5.08Z"/><polygon class="cls-1" points="35.1 2.88 13.99 2.88 13.99 32.24 31.22 32.24 35.1 32.24 35.1 2.88"/><polygon class="cls-2" points="35.1 2.88 13.99 2.88 13.99 32.24 31.22 32.24 35.1 32.24 35.1 2.88"/><path class="cls-2" d="M6.53,10.89V32.24h4.58V2.88c-.25,0-.5,0-.74.06A9.81,9.81,0,0,0,6.53,10.89Z"/><polygon class="cls-4" points="35.1 2.88 13.99 2.88 13.99 32.24 31.22 32.24 35.1 32.24 35.1 2.88"/><polygon class="cls-5" points="35.1 32.24 35.1 2.88 18.88 2.88 18.88 32.24 31.22 32.24 35.1 32.24"/></g></g></svg>