<?xml version="1.0" encoding="utf-8"?>
<!-- Generator: Adobe Illustrator 24.2.0, SVG Export Plug-In . SVG Version: 6.00 Build 0)  -->
<svg version="1.1" id="Layer_1" xmlns="http://www.w3.org/2000/svg" xmlns:xlink="http://www.w3.org/1999/xlink" x="0px" y="0px"
	 viewBox="0 0 1443.2 475.6" style="enable-background:new 0 0 1443.2 475.6;" xml:space="preserve">
<style type="text/css">
	.st0{fill:#454545;}
	.st1{fill:#CEB176;}
</style>
<g id="Layer_2_1_">
	<g id="레이어_1">
		<path class="st0" d="M7.9,433.1v-34.7h6.6v34.8c0,14.4,6.2,18.8,14,18.8c7.9,0,14.4-4.5,14.4-18.8v-34.8h6.3v34.7
			c0,18.6-9.2,24.8-20.7,24.8S7.9,451.7,7.9,433.1z"/>
		<path class="st0" d="M66.3,448.9v-55.6h6.5v56.1c0,2.2,0.9,3,2,3c0.5,0,1,0,1.5-0.2l1,5c-1.3,0.4-2.6,0.6-3.9,0.6
			C68.4,457.8,66.3,454.7,66.3,448.9z"/>
		<path class="st0" d="M91.4,443.8V419h-6.5v-4.9l6.8-0.4l0.7-12.2h5.5v12.2h11.9v5.3H97.9v25c0,5.3,1.6,8.5,6.8,8.5
			c1.7-0.1,3.4-0.5,5-1.1l1.3,4.9c-2.5,0.9-5,1.5-7.7,1.6C94.3,457.8,91.4,452.2,91.4,443.8z"/>
		<path class="st0" d="M119.8,400.1c0-2.8,2-4.5,4.7-4.5c2.4-0.2,4.5,1.7,4.7,4.1c0,0.1,0,0.2,0,0.3c-0.1,2.5-2.1,4.5-4.6,4.4h-0.1
			c-2.4,0.2-4.5-1.7-4.7-4.1C119.8,400.2,119.8,400.1,119.8,400.1z M121.3,413.7h6.5v43.1h-6.5V413.7z"/>
		<path class="st0" d="M144.3,413.7h5.3l0.6,6.4h0.2c3.8-4.1,8.4-7.5,13.4-7.5c6.7,0,10.2,3.3,11.9,8.4c4.6-4.9,9.2-8.4,14.4-8.4
			c8.8,0,13.1,5.8,13.1,16.9v27.4h-6.5v-26.6c0-8.3-2.6-12-8.4-12c-3.5,0-7.2,2.3-11.3,7v31.5h-6.5v-26.6c0-8.3-2.6-12-8.5-12
			c-3.3,0-7.2,2.3-11.3,7v31.5h-6.5L144.3,413.7z"/>
		<path class="st0" d="M216.5,445.7c0-9.4,8.2-14.1,26.7-16.1c0.1-5.8-1.8-11.6-9.2-11.6c-5.2,0-9.8,2.5-13.1,4.8l-2.6-4.5
			c3.7-2.5,9.8-5.7,16.8-5.7c10.5,0,14.6,7.1,14.6,17.5v26.7h-5.4l-0.6-5.3h-0.2c-4.2,3.5-9.1,6.3-14.5,6.3
			C221.9,457.8,216.5,453.5,216.5,445.7z M243.2,446.6V434c-15.3,1.8-20.4,5.4-20.4,11.3c0,5.2,3.6,7.3,8,7.3
			C235.1,452.6,238.8,450.5,243.2,446.6z"/>
		<path class="st0" d="M265.5,443.8V419H259v-4.9l6.8-0.4l0.7-12.2h5.5v12.2h11.9v5.3H272v25c0,5.3,1.6,8.5,6.8,8.5
			c1.7-0.1,3.4-0.5,5-1.1l1.3,4.9c-2.5,0.9-5,1.4-7.7,1.6C268.4,457.8,265.5,452.2,265.5,443.8z"/>
		<path class="st0" d="M290.8,435.3c0-14.1,9.3-22.7,19.2-22.7c10.8,0,17,7.7,17,20.2c0,1.3-0.1,2.6-0.3,3.9h-29.5
			c0.4,9.6,6.1,16,14.8,16c3.9,0,7.7-1.2,10.9-3.5l2.4,4.3c-4.2,2.8-9.1,4.4-14.1,4.4C299.9,457.8,290.8,449.5,290.8,435.3z
			 M321.3,432c0-9.3-4.2-14.1-11.2-14.1c-6.4,0-12,5.2-12.9,14.1H321.3z"/>
		<path class="st0" d="M339.6,448.9v-55.6h6.5v56.1c0,2.2,0.9,3,2,3c0.5,0,1-0.1,1.5-0.2l1,5c-1.3,0.4-2.6,0.6-3.9,0.6
			C341.6,457.8,339.6,454.7,339.6,448.9z"/>
		<path class="st0" d="M358.6,474.8l1.4-5.3c1.1,0.4,2.2,0.6,3.3,0.6c5,0,8.2-4.2,10.1-9.7l1-3.4L357,413.7h6.8l9.2,24.7
			c1.4,3.7,2.9,8.2,4.3,12.1h0.4c1.2-3.9,2.5-8.4,3.7-12.1l8.1-24.7h6.4l-16.5,47.1c-2.9,8.2-7.3,14.9-15.7,14.9
			C361.8,475.7,360.1,475.4,358.6,474.8z"/>
		<path class="st0" d="M399.8,467.7c4.7-2.2,7.7-6,7.7-10.9c-0.3,0.1-0.6,0.1-1,0.1c-2.6,0.2-4.8-1.8-4.9-4.3c0-0.2,0-0.3,0-0.5
			c0-2.6,2.1-4.7,4.8-4.7c0.1,0,0.2,0,0.3,0c3.6,0,5.8,3,5.8,8.1c0,7.3-4.4,13.1-11,16.1L399.8,467.7z"/>
		<path class="st0" d="M445.7,413.7h5.3l0.6,6.4h0.2c3.8-4.1,8.4-7.5,13.4-7.5c6.7,0,10.2,3.3,11.9,8.4c4.6-4.9,9.2-8.4,14.4-8.4
			c8.8,0,13.1,5.8,13.1,16.9v27.4h-6.5v-26.6c0-8.3-2.6-12-8.4-12c-3.5,0-7.2,2.3-11.3,7v31.5h-6.5v-26.6c0-8.3-2.6-12-8.5-12
			c-3.3,0-7.2,2.3-11.3,7v31.5h-6.5L445.7,413.7L445.7,413.7z"/>
		<path class="st0" d="M517.3,435.3c0-14.4,9.3-22.7,19.8-22.7s19.9,8.3,19.9,22.7c0,14.2-9.3,22.5-19.9,22.5
			C526.6,457.8,517.3,449.5,517.3,435.3z M550.3,435.3c0-10.3-5.4-17.2-13.2-17.2c-7.7,0-13.1,6.9-13.1,17.2
			c0,10.2,5.3,17.1,13.1,17.1C544.9,452.4,550.3,445.5,550.3,435.3L550.3,435.3z"/>
		<path class="st0" d="M563.5,413.7h6.8l8.5,25.1c1.3,4.2,2.7,8.6,4.1,12.7h0.3c1.3-4.1,2.8-8.5,4.1-12.7l8.5-25.1h6.4l-15.4,43.1
			h-7.6L563.5,413.7z"/>
		<path class="st0" d="M608.7,435.3c0-14.1,9.3-22.7,19.2-22.7c10.8,0,17,7.7,17,20.2c0,1.3-0.1,2.6-0.3,3.9h-29.5
			c0.4,9.6,6.2,16,14.8,16c3.9,0,7.7-1.2,10.9-3.5l2.4,4.3c-4.2,2.8-9.1,4.4-14.1,4.4C617.8,457.8,608.7,449.5,608.7,435.3z
			 M639.2,432c0-9.3-4.1-14.1-11.2-14.1c-6.4,0-12.1,5.2-12.9,14.1H639.2z"/>
		<path class="st0" d="M657.5,413.7h5.3l0.6,6.4h0.2c3.8-4.1,8.4-7.5,13.4-7.5c6.7,0,10.2,3.3,11.9,8.4c4.6-4.9,9.2-8.4,14.4-8.4
			c8.8,0,13.1,5.8,13.1,16.9v27.4h-6.5v-26.6c0-8.3-2.6-12-8.4-12c-3.5,0-7.2,2.3-11.3,7v31.5h-6.5v-26.6c0-8.3-2.6-12-8.5-12
			c-3.3,0-7.2,2.3-11.3,7v31.5h-6.5L657.5,413.7L657.5,413.7z"/>
		<path class="st0" d="M729.1,435.3c0-14.1,9.3-22.7,19.2-22.7c10.8,0,17,7.7,17,20.2c0,1.3-0.1,2.6-0.3,3.9h-29.5
			c0.4,9.6,6.1,16,14.8,16c3.9,0,7.7-1.2,10.9-3.5l2.4,4.3c-4.2,2.8-9.1,4.4-14.1,4.4C738.2,457.8,729.1,449.5,729.1,435.3z
			 M759.6,432c0-9.3-4.2-14.1-11.2-14.1c-6.4,0-12,5.2-12.9,14.1H759.6z"/>
		<path class="st0" d="M777.8,413.7h5.3l0.6,6.3h0.2c4.2-4.1,8.6-7.4,14.5-7.4c9,0,13.2,5.8,13.2,16.9v27.4h-6.5v-26.6
			c0-8.3-2.6-12-8.5-12c-4.5,0-7.8,2.4-12.3,7v31.5h-6.5V413.7z"/>
		<path class="st0" d="M828.9,443.8V419h-6.5v-4.9l6.8-0.4l0.7-12.2h5.5v12.2h11.9v5.3h-11.9v25c0,5.3,1.6,8.5,6.8,8.5
			c1.7-0.1,3.4-0.5,5-1.1l1.3,4.9c-2.5,0.9-5,1.5-7.7,1.6C831.8,457.8,828.9,452.2,828.9,443.8z"/>
		<path class="st0" d="M852.9,451.9l3.3-4.4c3.8,3.1,7.6,5.2,13,5.2c6,0,8.9-3.2,8.9-7.2c0-4.6-5.2-6.7-10.1-8.5
			c-6.2-2.2-13-5.1-13-12.5c0-6.7,5.3-12.1,14.6-12.1c4.8,0.1,9.4,1.8,13.1,4.8l-3.1,4.2c-3-2.1-6.1-3.8-10-3.8
			c-5.7,0-8.4,3-8.4,6.6c0,4.3,4.8,6,9.7,7.7c6.3,2.5,13.3,5,13.3,13.2c0,6.9-5.4,12.6-15.4,12.6
			C863.1,457.7,857.4,455.7,852.9,451.9z"/>
		<path class="st0" d="M913.1,445.7c0-9.4,8.2-14.1,26.7-16.1c0.1-5.8-1.8-11.6-9.2-11.6c-5.2,0-9.8,2.5-13.1,4.8l-2.6-4.5
			c3.7-2.5,9.8-5.7,16.8-5.7c10.5,0,14.6,7.1,14.6,17.5v26.7h-5.4l-0.6-5.3h-0.2c-4.2,3.5-9.1,6.3-14.5,6.3
			C918.5,457.8,913.1,453.5,913.1,445.7z M939.8,446.6V434c-15.3,1.8-20.4,5.4-20.4,11.3c0,5.2,3.6,7.3,8,7.3
			C931.7,452.6,935.4,450.5,939.8,446.6L939.8,446.6z"/>
		<path class="st0" d="M962.1,413.7h5.3l0.6,7.9h0.2c3-5.4,7.3-9,12.2-9c1.6-0.1,3.1,0.3,4.5,1l-1.3,5.7c-1.3-0.5-2.7-0.7-4.1-0.7
			c-3.7,0-8.1,2.7-11.1,10.2v28.1h-6.5L962.1,413.7z"/>
		<path class="st0" d="M989.7,435.3c0-14.1,9.3-22.7,19.2-22.7c10.8,0,17,7.7,17,20.2c0,1.3-0.1,2.6-0.3,3.9h-29.5
			c0.4,9.6,6.1,16,14.8,16c3.9,0,7.7-1.2,10.9-3.5l2.4,4.3c-4.2,2.8-9.1,4.4-14.1,4.4C998.8,457.8,989.7,449.5,989.7,435.3z
			 M1020.2,432c0-9.3-4.2-14.1-11.2-14.1c-6.4,0-12,5.2-12.9,14.1H1020.2z"/>
		<path class="st0" d="M1054.5,435.3c0-14.4,9.6-22.7,20.5-22.7c4.7,0,9.3,1.9,12.6,5.2l-3.4,4.3c-2.6-2.4-5.3-4-8.9-4
			c-8.1,0-14,6.9-14,17.2c0,10.2,5.6,17.1,13.9,17.1c3.9-0.2,7.6-1.7,10.5-4.4l2.9,4.3c-3.8,3.5-8.7,5.5-13.9,5.5
			C1063.2,457.8,1054.5,449.5,1054.5,435.3z"/>
		<path class="st0" d="M1094.7,435.3c0-14.4,9.3-22.7,19.8-22.7s19.9,8.3,19.9,22.7c0,14.2-9.3,22.5-19.9,22.5
			S1094.7,449.5,1094.7,435.3z M1127.6,435.3c0-10.3-5.4-17.2-13.2-17.2c-7.7,0-13.1,6.9-13.1,17.2c0,10.2,5.3,17.1,13.1,17.1
			S1127.6,445.5,1127.6,435.3z"/>
		<path class="st0" d="M1147.7,413.7h5.3l0.6,6.3h0.2c4.2-4.1,8.6-7.4,14.5-7.4c9,0,13.2,5.8,13.2,16.9v27.4h-6.5v-26.6
			c0-8.3-2.6-12-8.5-12c-4.5,0-7.8,2.4-12.3,7v31.5h-6.5L1147.7,413.7z"/>
		<path class="st0" d="M1197.5,413.7h5.3l0.6,6.3h0.2c4.2-4.1,8.6-7.4,14.5-7.4c9,0,13.2,5.8,13.2,16.9v27.4h-6.5v-26.6
			c0-8.3-2.6-12-8.5-12c-4.5,0-7.8,2.4-12.3,7v31.5h-6.5L1197.5,413.7L1197.5,413.7z"/>
		<path class="st0" d="M1244.1,435.3c0-14.1,9.3-22.7,19.2-22.7c10.8,0,17,7.7,17,20.2c0,1.3-0.1,2.6-0.3,3.9h-29.5
			c0.4,9.6,6.1,16,14.8,16c3.9,0,7.7-1.2,10.9-3.5l2.4,4.3c-4.2,2.8-9.1,4.4-14.1,4.4C1253.2,457.8,1244.1,449.5,1244.1,435.3z
			 M1274.6,432c0-9.3-4.2-14.1-11.2-14.1c-6.4,0-12.1,5.2-12.9,14.1H1274.6z"/>
		<path class="st0" d="M1289.5,435.3c0-14.4,9.6-22.7,20.5-22.7c4.7,0,9.3,1.9,12.6,5.2l-3.4,4.3c-2.6-2.4-5.4-4-8.9-4
			c-8.1,0-14,6.9-14,17.2c0,10.2,5.6,17.1,13.9,17.1c3.9-0.2,7.6-1.7,10.5-4.4l2.9,4.3c-3.8,3.5-8.7,5.5-13.9,5.5
			C1298.2,457.8,1289.5,449.5,1289.5,435.3z"/>
		<path class="st0" d="M1335.2,443.8V419h-6.5v-4.9l6.8-0.4l0.7-12.2h5.5v12.2h11.9v5.3h-11.9v25c0,5.3,1.6,8.5,6.8,8.5
			c1.7-0.1,3.4-0.5,5-1.1l1.3,4.9c-2.5,0.9-5,1.5-7.7,1.6C1338,457.8,1335.2,452.2,1335.2,443.8z"/>
		<path class="st0" d="M1360.5,435.3c0-14.1,9.3-22.7,19.2-22.7c10.8,0,17,7.7,17,20.2c0,1.3-0.1,2.6-0.3,3.9h-29.5
			c0.4,9.6,6.1,16,14.8,16c3.9,0,7.7-1.2,10.9-3.5l2.4,4.3c-4.2,2.8-9.1,4.4-14.1,4.4C1369.6,457.8,1360.5,449.5,1360.5,435.3z
			 M1391,432c0-9.3-4.2-14.1-11.2-14.1c-6.4,0-12,5.2-12.9,14.1H1391z"/>
		<path class="st0" d="M1406,435.3c0-14,8.9-22.7,18.8-22.7c5.1,0,8.5,1.9,12.4,5.1l-0.3-7.5v-16.9h6.5v63.5h-5.4l-0.6-5.2h-0.2
			c-3.4,3.4-8.1,6.2-13.3,6.2C1412.9,457.8,1406,449.7,1406,435.3z M1436.8,446.2v-23.3c-3.9-3.4-7.3-4.8-11-4.8
			c-7.3,0-13,7.1-13,17.2c0,10.6,4.5,17.1,12.4,17.1C1429.3,452.3,1432.9,450.3,1436.8,446.2L1436.8,446.2z"/>
		<path class="st1" d="M345.8,0h-53.4l0,0l0,0v7.9l0,0l0.3,310.3h-0.3v7.9h53.7l0,0h31.2v-7.9h-31.2c0-30.6-0.2-183.5-0.3-310.3
			h31.5V0H345.8L345.8,0z"/>
		<path class="st1" d="M582.6,0h-31.5v7.9h31.5c-0.1,126.8-0.3,279.7-0.3,310.3h-31.2v7.9h31.2l0,0H636v-7.9h-0.3v-20.8
			c0.1-49.8,0.3-162.6,0.3-220.2V0H582.6L582.6,0z"/>
		<path class="st0" d="M776.2,105.2c-47.2,0-85.6,36.4-85.6,81.1v2.4h7.9v-2.4c0-40.3,34.8-73.2,77.7-73.2c45.5,0,54.4,54.5,56.1,75
			l-2.1,0.1C725,193.7,667,227.3,667,283c0,29.8,24.1,49.4,61.5,50.2h2.1c31.9,0,65-13.8,88.6-36.9c6.5-6.4,12.2-13.5,17.1-21.2
			l35.1,50.9h11.5V202C882.8,115.3,822,105.2,776.2,105.2z M766.9,319.1c-3.1,0.8-6.4,1.3-9.7,1.3c-18.6,0-38.6-14.3-38.6-37.3
			c0-48.7,49.2-86.9,111.9-86.9h2.3c0.1,1.9,0.1,3.9,0.1,5.7v63.5c-5.2,9.3-11.7,17.7-19.2,25.2
			C800.4,303.5,784.4,313.2,766.9,319.1L766.9,319.1z"/>
		<path class="st0" d="M1042.6,106.3c-36.6,0-65.3,20.6-79.5,56.8l-36-51.3h-11.5V326h51.5V175.6c7.9-27.4,26.9-60.1,72.9-61.2
			c40.2,1.4,60.5,17.9,60.5,104.8V326h51.1V219.2C1151.6,125.9,1092.3,106.3,1042.6,106.3z"/>
		<path class="st0" d="M165.1,147c59.9-12.6,69.4-49.1,69.4-70.7c0-27.5-15.3-73.7-118-73.7H0v317.1v4h53.7h70.6
			c79.9,0,125.8-32.5,125.8-89.3C250.1,187.5,220,156.8,165.1,147z M110.8,143.6H56.1V10.5h54.8c27.5,0,68.2,20.9,68.2,65.8
			C179.1,120.2,139.4,143.6,110.8,143.6L110.8,143.6z M56.1,151.5H118c73.9,0,76,74.4,76,82.9c0,37.5-19.9,81.3-76,81.3H56.1V151.5z
			"/>
		<polygon class="st0" points="1235.1,122.4 1235.1,118.6 1235.1,0.2 1183.7,0.2 1183.7,326 1235.1,326 1235.1,278.9 1235.1,221.5 
			1235.1,213.6 1235.1,193.3 1235.1,185.6 		"/>
		<path class="st0" d="M1310.8,180c56.5-28.4,78.6-102.8,78.9-103.7l-9.2-2.7c-0.3,1.1-33.6,112.1-120.7,107.5
			c-49.5-2.5-65.7-33.5-66.4-34.8l-8.6,4.3c0.7,1.4,17.2,33.4,65.7,39.3l114.8,136h68.9L1310.8,180z"/>
		<path class="st0" d="M1396.2,57.1c15.7,0,28.5-12.7,28.5-28.5c0-15.7-12.7-28.5-28.5-28.5c-15.7,0-28.5,12.7-28.5,28.5l0,0
			C1367.8,44.3,1380.5,57.1,1396.2,57.1z"/>
	</g>
</g>
</svg>
