<svg xmlns="http://www.w3.org/2000/svg" viewBox="0 0 1933.55 3122.81"><defs><style>.cls-1{fill:#fff;}</style></defs><g id="Layer_2" data-name="Layer 2"><g id="Layer_1-2" data-name="Layer 1"><path class="cls-1" d="M588.06,3122.81q-332.79,0-488.07-207.39t-69.45-580.3L356,920.11Q458.63,474,690,237T1320.29,0Q1538,0,1689.44,80.18t212.34,239.61q60.83,159.45,5.16,401.68l-121.85,529.76H1175.3l104.22-453.1q31.65-137.6,7.86-185.55t-97-48q-85.41,0-129.24,61.87T993.7,791.15L640.57,2326.43q-29.27,127.2-3.86,179.5t95.17,52.25q78.36,0,125.42-64.46T928,2326.43L1055.06,1774h616.76l-133.48,580.3q-93,404.3-338.71,586.41T588.06,3122.81Z"/></g></g></svg>