<svg xmlns="http://www.w3.org/2000/svg" viewBox="0 0 9243.87 3122.81"><defs><style>.cls-1{fill:#fff;}</style></defs><g id="Layer_2" data-name="Layer 2"><g id="Layer_1-2" data-name="Layer 1"><path class="cls-1" d="M588.06,3122.81q-332.79,0-488.07-207.39t-69.45-580.3L356,920.11Q458.63,474,690,237T1320.29,0Q1538,0,1689.44,80.18t212.34,239.61q60.83,159.45,5.16,401.68l-121.85,529.76H1175.3l104.22-453.1q31.65-137.6,7.86-185.55t-97-48q-85.41,0-129.24,61.87T993.7,791.15L640.57,2326.43q-29.27,127.2-3.86,179.5t95.17,52.25q78.36,0,125.42-64.46T928,2326.43L1055.06,1774h616.76l-133.48,580.3q-93,404.3-338.71,586.41T588.06,3122.81Z"/><path class="cls-1" d="M1571.8,3094.93l705.45-3067H2890.5L2305.29,2572.14H2936L2815.7,3094.93Z"/><path class="cls-1" d="M2962.06,3094.93l705.46-3067h592.32l-705.45,3067Z"/><path class="cls-1" d="M4506.17,3122.81q-332.79,0-488.07-207.39t-69.45-580.3l325.47-1415Q4376.73,474,4608.07,237T5238.4,0q217.71,0,369.15,80.18t212.34,239.61q60.82,159.45,5.16,401.68L5703.2,1251.23H5093.42l104.21-453.1q31.66-137.6,7.86-185.55t-97-48q-85.41,0-129.24,61.87t-67.48,164.65L4558.68,2326.43q-29.27,127.2-3.85,179.5t95.16,52.25q78.36,0,125.42-64.46t70.7-167.29L4973.17,1774h616.76l-133.48,580.3q-93,404.3-338.71,586.41T4506.17,3122.81Z"/><path class="cls-1" d="M5489.91,3094.93l705.46-3067h606.27L6519.05,1256.46,7087.36,27.88h616.76l-666.3,1404.56,32.25,1662.49H6434.19l7-1484.74L6099.69,3094.93Z"/><path class="cls-1" d="M7174.58,3094.93,7880,27.88H8820.8q235.16,0,330.72,107.19t92.24,299.72Q9240.4,627.33,9180.69,887q-57.72,250.93-155.76,400.8t-287.26,207.38q137.79,29.68,169.9,143.8T8898,1934.32l-267,1160.61H8026.53l276.17-1200.7q30.85-134.13-16.61-166.41t-169.43-32.23L7794.8,3094.93Zm1067.8-1930.86h148.08q127.19,0,190.94-277.06,41.28-179.5,26.21-235.27T8515.91,596H8373.05Z"/></g></g></svg>