<?xml version="1.0" encoding="UTF-8"?>
<svg id="Layer_2" data-name="Layer 2" xmlns="http://www.w3.org/2000/svg" viewBox="0 0 669.63 303.83">
  <defs>
    <style>
      .cls-1 {
        fill: #fff;
      }
    </style>
  </defs>
  <g id="_레이어_1" data-name="레이어 1">
    <g>
      <g>
        <path class="cls-1" d="M232.8,212.72c7.3-2.27,12.59-9.07,12.59-17.11,0-9.89-8.02-17.91-17.91-17.91h-31.03v54.64h10.3v-44.34h20.73c4.21,0,7.61,3.41,7.61,7.61s-3.41,7.61-7.61,7.61h-14.31l21.13,29.11h12.73l-14.23-19.61Z"/>
        <polygon class="cls-1" points="9.01 177.7 9.36 232.31 19.66 232.31 19.31 177.7 9.01 177.7"/>
        <polygon class="cls-1" points="142.95 232.64 185.03 232.33 185.03 222.32 153.32 222.32 153.32 209.75 185.03 209.75 185.03 200.16 153.32 200.16 153.32 187.43 185.03 187.43 185.03 177.7 142.95 178 142.95 232.64"/>
        <rect class="cls-1" x="418.44" y="177.7" width="10.3" height="54.25"/>
        <path class="cls-1" d="M486.36,184.61c-2.64-2.63-5.6-4.61-8.89-5.93-3.29-1.36-6.8-2.05-10.51-2.05s-7.1.68-10.44,2.05c-3.2,1.32-6.11,3.27-8.75,5.86-2.73,2.68-4.82,5.74-6.28,9.17-1.41,3.43-2.12,7.03-2.12,10.79s.59,7.08,1.76,10.37c1.22,3.25,2.96,6.16,5.22,8.75,2.68,3.01,5.79,5.31,9.31,6.91,3.48,1.6,7.22,2.4,11.22,2.4s7.69-.78,11.22-2.33c3.53-1.55,6.68-3.81,9.45-6.77,2.3-2.54,4.04-5.46,5.22-8.75,1.27-3.29,1.9-6.82,1.9-10.58s-.73-7.41-2.19-10.79c-1.41-3.43-3.46-6.47-6.14-9.1ZM479.23,217.49c-3.25,3.43-7.36,5.15-12.35,5.15-2.26,0-4.42-.47-6.49-1.41-2.12-.89-4-2.19-5.64-3.88-1.6-1.65-2.8-3.55-3.6-5.71-.8-2.21-1.2-4.56-1.2-7.06,0-2.35.45-4.61,1.34-6.77.89-2.21,2.19-4.19,3.88-5.93,1.6-1.65,3.39-2.87,5.36-3.67,1.93-.8,4.04-1.2,6.35-1.2,2.59,0,4.87.45,6.84,1.34,1.98.85,3.88,2.28,5.71,4.3,1.6,1.69,2.78,3.53,3.53,5.5.8,1.93,1.2,4.02,1.2,6.28,0,5.27-1.65,9.62-4.94,13.05Z"/>
        <polygon class="cls-1" points="636.17 222.32 636.17 177.7 625.8 177.7 625.8 232.33 669.63 232.33 669.63 222.32 636.17 222.32"/>
        <path class="cls-1" d="M331.14,177.7h-15.73v54.64h10.3v-13.66h22.43l9.91,13.66h12.73l-39.64-54.64ZM325.71,208.38v-20.61l14.95,20.61h-14.95Z"/>
        <path class="cls-1" d="M580.75,177.7h-15.73v54.64h10.3v-13.66h22.43l9.91,13.66h12.73l-39.64-54.64ZM575.32,208.38v-20.61l14.95,20.61h-14.95Z"/>
        <polygon class="cls-1" points="71.04 177.7 71.04 216.52 46.26 177.7 33.42 177.7 33.42 232.34 43.72 232.34 43.72 192.85 68.92 232.33 81.34 232.34 81.34 177.7 71.04 177.7"/>
        <polygon class="cls-1" points="291.18 177.7 291.18 216.52 266.4 177.7 253.56 177.7 253.56 232.34 263.86 232.34 263.86 192.85 289.06 232.33 301.48 232.34 301.48 177.7 291.18 177.7"/>
        <polygon class="cls-1" points="541.66 177.7 541.66 216.52 516.88 177.7 504.04 177.7 504.04 232.34 514.34 232.34 514.34 192.85 539.54 232.33 551.96 232.34 551.96 177.7 541.66 177.7"/>
        <polygon class="cls-1" points="88.52 177.7 88.52 188 106.69 188 106.69 232.33 116.99 232.33 116.99 188 136.33 188 136.33 177.7 88.52 177.7"/>
        <polygon class="cls-1" points="362.35 177.7 362.35 188 380.52 188 380.52 232.33 390.82 232.33 390.82 188 410.16 188 410.16 177.7 362.35 177.7"/>
      </g>
      <g>
        <path class="cls-1" d="M28.18,283.7c1.51-.55,2.69-1.4,3.56-2.55.86-1.14,1.3-2.58,1.3-4.3s-.43-3.22-1.3-4.28c-.87-1.06-2.05-1.82-3.56-2.28-1.51-.46-3.24-.69-5.21-.69h-9v25.95h3.61v-11.01h5.18l7,11.01h4.09l-7.33-11.38c.58-.13,1.13-.27,1.65-.47ZM17.59,272.25h4.83c2.25,0,3.98.34,5.19,1.02,1.2.69,1.81,1.88,1.81,3.58s-.6,2.97-1.81,3.81c-1.21.84-2.93,1.25-5.19,1.25h-4.83v-9.66Z"/>
        <path class="cls-1" d="M53.23,278.48c-.92-.87-1.97-1.53-3.16-1.98-1.19-.45-2.44-.67-3.75-.67-1.73,0-3.35.4-4.87,1.2-1.52.81-2.73,1.95-3.63,3.45-.9,1.5-1.36,3.32-1.36,5.47s.45,3.94,1.36,5.44c.9,1.5,2.12,2.64,3.63,3.43,1.52.79,3.14,1.18,4.87,1.18s3.38-.39,4.87-1.18c1.49-.79,2.7-1.94,3.61-3.43.92-1.5,1.37-3.31,1.37-5.44,0-1.6-.26-3.03-.79-4.28-.52-1.25-1.24-2.31-2.16-3.19ZM51.73,289.81c-.52,1.11-1.25,1.97-2.18,2.58-.93.62-2.01.92-3.24.92s-2.31-.3-3.24-.92c-.93-.61-1.65-1.47-2.16-2.58-.51-1.11-.77-2.39-.77-3.86s.25-2.78.77-3.89c.51-1.11,1.23-1.97,2.16-2.58.93-.62,2.01-.92,3.24-.92s2.31.3,3.24.92c.93.61,1.66,1.47,2.18,2.58.52,1.11.79,2.41.79,3.89s-.26,2.75-.79,3.86Z"/>
        <path class="cls-1" d="M77.04,278.48c-.92-.87-1.97-1.53-3.16-1.98-1.19-.45-2.44-.67-3.75-.67-1.73,0-3.35.4-4.87,1.2-1.52.81-2.73,1.95-3.63,3.45-.9,1.5-1.36,3.32-1.36,5.47s.45,3.94,1.36,5.44c.9,1.5,2.12,2.64,3.63,3.43,1.52.79,3.14,1.18,4.87,1.18s3.38-.39,4.87-1.18c1.49-.79,2.7-1.94,3.61-3.43.92-1.5,1.37-3.31,1.37-5.44,0-1.6-.26-3.03-.79-4.28-.52-1.25-1.24-2.31-2.16-3.19ZM75.55,289.81c-.52,1.11-1.25,1.97-2.18,2.58-.93.62-2.01.92-3.24.92s-2.31-.3-3.24-.92c-.93-.61-1.65-1.47-2.16-2.58-.51-1.11-.77-2.39-.77-3.86s.25-2.78.77-3.89c.51-1.11,1.23-1.97,2.16-2.58.93-.62,2.01-.92,3.24-.92s2.31.3,3.24.92c.93.61,1.66,1.47,2.18,2.58.52,1.11.79,2.41.79,3.89s-.26,2.75-.79,3.86Z"/>
        <path class="cls-1" d="M93.54,293.23c-.45.1-.87.16-1.26.16-1.23,0-2.09-.33-2.57-.97-.49-.65-.73-1.55-.73-2.71v-10.76h5.82v-2.62h-5.82v-5.41h-2.99l-.39,5.41-3.38.18v2.45h3.18v10.65c0,1.28.19,2.4.57,3.37.38.97,1.02,1.72,1.91,2.24.89.53,2.08.8,3.57.8.68,0,1.36-.07,2.04-.21.68-.14,1.32-.31,1.93-.5l-.71-2.44c-.34.14-.73.27-1.18.37Z"/>
        <path class="cls-1" d="M111.5,276.92c-1.26-.73-2.8-1.1-4.64-1.1-1.21,0-2.38.23-3.54.69-1.15.46-2.18,1.13-3.08,2.02-.9.88-1.62,1.94-2.14,3.19-.52,1.24-.79,2.65-.79,4.23,0,2.1.45,3.9,1.36,5.4.9,1.5,2.13,2.65,3.67,3.45,1.54.81,3.27,1.2,5.19,1.2,1.44,0,2.74-.19,3.89-.57,1.15-.38,2.19-.84,3.11-1.38l-1.26-2.16c-.81.47-1.64.84-2.49,1.11-.85.27-1.8.41-2.85.41-1.36,0-2.55-.28-3.58-.83-1.02-.56-1.84-1.33-2.45-2.34-.62-1-.96-2.19-1.04-3.55h14.38c.05-.26.09-.54.12-.85.03-.3.04-.63.04-.99,0-1.84-.33-3.44-1-4.8-.67-1.36-1.63-2.4-2.89-3.13ZM100.81,284.39c.16-1.3.53-2.39,1.12-3.26s1.32-1.55,2.2-2.02c.88-.47,1.81-.71,2.81-.71,1.68,0,2.98.51,3.91,1.54.93,1.03,1.39,2.51,1.39,4.45h-11.43Z"/>
        <path class="cls-1" d="M134.17,274.76l.2,3.29c-.94-.71-1.87-1.25-2.77-1.64-.9-.39-1.99-.59-3.24-.59-1.62,0-3.14.42-4.54,1.24-1.4.83-2.53,1.99-3.4,3.5-.87,1.51-1.3,3.3-1.3,5.38s.36,3.97,1.08,5.47c.72,1.5,1.74,2.64,3.06,3.42,1.32.78,2.87,1.16,4.66,1.16,1.28,0,2.48-.27,3.58-.8,1.1-.53,2.07-1.17,2.91-1.93h.12l.31,2.27h2.95v-28.18h-3.61v7.4ZM134.17,290.66c-.87.87-1.74,1.53-2.63,1.97-.89.44-1.83.66-2.83.66-1.23,0-2.28-.29-3.16-.87-.88-.58-1.55-1.42-2.02-2.53-.47-1.11-.71-2.43-.71-3.97s.28-2.75.85-3.84c.56-1.1,1.31-1.96,2.24-2.58.93-.63,1.96-.94,3.08-.94.89,0,1.75.15,2.59.46.84.31,1.7.83,2.59,1.56v10.09Z"/>
        <path class="cls-1" d="M155.62,268.11c-.71,0-1.28.19-1.71.57-.43.38-.65.89-.65,1.52s.22,1.19.65,1.58c.43.39,1,.58,1.71.58s1.28-.19,1.73-.58c.45-.39.67-.91.67-1.58s-.22-1.14-.67-1.52c-.45-.38-1.02-.57-1.73-.57Z"/>
        <rect class="cls-1" x="153.82" y="276.32" width="3.61" height="19.22"/>
        <path class="cls-1" d="M175.15,275.82c-1.47,0-2.77.32-3.91.96-1.14.63-2.22,1.41-3.24,2.33h-.08l-.35-2.8h-2.95v19.22h3.61v-13.95c1.05-.97,2-1.7,2.87-2.2.87-.5,1.85-.74,2.95-.74,1.41,0,2.44.4,3.08,1.2.64.8.96,2.11.96,3.93v11.75h3.58v-12.18c0-2.45-.52-4.33-1.57-5.61-1.05-1.28-2.7-1.93-4.95-1.93Z"/>
        <polygon class="cls-1" points="194.99 272.35 203.72 272.35 203.72 295.54 207.37 295.54 207.37 272.35 216.09 272.35 216.09 269.6 194.99 269.6 194.99 272.35"/>
        <path class="cls-1" d="M228.2,275.82c-1.18,0-2.3.36-3.36,1.08-1.06.72-1.96,1.7-2.69,2.92h-.08l-.35-3.5h-2.95v19.22h3.61v-12.35c.71-1.63,1.56-2.78,2.55-3.45.99-.67,1.93-1.01,2.79-1.01.45,0,.81.03,1.1.09.29.06.61.14.98.23l.67-2.8c-.31-.17-.65-.28-1-.34-.35-.06-.78-.09-1.28-.09Z"/>
        <path class="cls-1" d="M247.1,289.95c-1.02,1.14-1.96,1.96-2.83,2.48-.87.52-1.85.78-2.95.78-1.42,0-2.44-.41-3.06-1.22-.63-.81-.94-2.1-.94-3.88v-11.79h-3.61v12.18c0,2.45.53,4.32,1.59,5.59,1.06,1.28,2.72,1.91,4.97,1.91,1.47,0,2.76-.32,3.87-.96,1.11-.63,2.17-1.47,3.16-2.51h.12l.27,3.01h2.99v-19.22h-3.58v13.63Z"/>
        <path class="cls-1" d="M269.12,286.41c-.62-.43-1.31-.79-2.08-1.1-.77-.3-1.55-.59-2.34-.85-.79-.28-1.53-.56-2.24-.83-.71-.27-1.28-.61-1.71-1.01-.43-.4-.65-.9-.65-1.49,0-.75.32-1.41.96-1.97.64-.55,1.64-.83,3.01-.83.94,0,1.8.17,2.57.5s1.52.73,2.26,1.2l1.73-2.02c-.81-.61-1.79-1.13-2.93-1.56-1.14-.42-2.36-.64-3.67-.64-1.55,0-2.87.24-3.97.73-1.1.48-1.94,1.13-2.52,1.94-.58.82-.86,1.74-.86,2.78,0,1.09.31,1.98.92,2.67.61.7,1.4,1.26,2.36,1.7.96.44,1.93.83,2.93,1.19.79.26,1.55.55,2.3.87.75.32,1.36.7,1.85,1.13.49.44.73.99.73,1.64,0,.85-.35,1.56-1.04,2.14-.7.58-1.75.87-3.16.87-1.28,0-2.42-.21-3.42-.64-1-.42-1.96-.98-2.91-1.67l-1.73,2.16c1,.75,2.19,1.38,3.6,1.89,1.4.51,2.85.76,4.34.76,1.7,0,3.12-.25,4.26-.76,1.14-.51,2-1.2,2.59-2.07s.88-1.83.88-2.87c0-.92-.19-1.7-.57-2.32-.38-.62-.88-1.15-1.49-1.57Z"/>
        <path class="cls-1" d="M284.03,293.23c-.45.1-.87.16-1.26.16-1.23,0-2.09-.33-2.57-.97-.49-.65-.73-1.55-.73-2.71v-10.76h5.82v-2.62h-5.82v-5.41h-2.99l-.39,5.41-3.38.18v2.45h3.18v10.65c0,1.28.19,2.4.57,3.37.38.97,1.02,1.72,1.91,2.24.89.53,2.08.8,3.57.8.68,0,1.36-.07,2.04-.21.68-.14,1.32-.31,1.93-.5l-.71-2.44c-.34.14-.73.27-1.18.37Z"/>
        <path class="cls-1" d="M292.32,291.08c-.73,0-1.37.2-1.91.6-.54.4-.81.96-.81,1.67s.26,1.26.79,1.66c.52.4,1.14.6,1.85.6.15,0,.29-.02.42-.04,0,1.03-.34,1.95-1.01,2.76-.71.85-1.68,1.52-2.91,2.02l.87,1.91c1.75-.69,3.15-1.66,4.18-2.94,1.03-1.27,1.55-2.76,1.55-4.46,0-1.18-.27-2.11-.81-2.78-.54-.67-1.28-1.01-2.22-1.01Z"/>
        <path class="cls-1" d="M325.01,271.1c-2.02-1-4.51-1.5-7.47-1.5h-7.19v25.95h7.35c2.91,0,5.36-.51,7.35-1.54,1.99-1.02,3.5-2.52,4.52-4.48s1.53-4.31,1.53-7.05-.51-5.1-1.53-7.01c-1.02-1.91-2.54-3.37-4.56-4.37ZM326.25,288.07c-.75,1.56-1.87,2.75-3.38,3.56s-3.39,1.22-5.64,1.22h-3.26v-20.6h3.26c2.25,0,4.13.39,5.64,1.19,1.51.79,2.63,1.94,3.38,3.45.75,1.51,1.12,3.38,1.12,5.59s-.37,4.03-1.12,5.59Z"/>
        <path class="cls-1" d="M346.47,275.82c-1.18,0-2.3.36-3.36,1.08-1.06.72-1.96,1.7-2.69,2.92h-.08l-.35-3.5h-2.95v19.22h3.61v-12.35c.71-1.63,1.56-2.78,2.55-3.45.99-.67,1.93-1.01,2.79-1.01.45,0,.81.03,1.1.09.29.06.61.14.98.23l.67-2.8c-.31-.17-.65-.28-1-.34-.35-.06-.78-.09-1.28-.09Z"/>
        <path class="cls-1" d="M354.09,268.11c-.71,0-1.28.19-1.71.57-.43.38-.65.89-.65,1.52s.22,1.19.65,1.58c.43.39,1,.58,1.71.58s1.28-.19,1.73-.58c.45-.39.67-.91.67-1.58s-.22-1.14-.67-1.52c-.45-.38-1.02-.57-1.73-.57Z"/>
        <rect class="cls-1" x="352.28" y="276.32" width="3.61" height="19.22"/>
        <polygon class="cls-1" points="375.9 276.32 369.88 292.92 369.69 292.92 363.71 276.32 359.98 276.32 367.68 295.54 371.89 295.54 379.43 276.32 375.9 276.32"/>
        <path class="cls-1" d="M395.9,276.92c-1.26-.73-2.8-1.1-4.64-1.1-1.21,0-2.38.23-3.54.69-1.15.46-2.18,1.13-3.08,2.02-.9.88-1.62,1.94-2.14,3.19-.52,1.24-.79,2.65-.79,4.23,0,2.1.45,3.9,1.36,5.4.9,1.5,2.13,2.65,3.67,3.45,1.54.81,3.27,1.2,5.19,1.2,1.44,0,2.74-.19,3.89-.57,1.15-.38,2.19-.84,3.11-1.38l-1.26-2.16c-.81.47-1.64.84-2.49,1.11-.85.27-1.8.41-2.85.41-1.36,0-2.55-.28-3.58-.83-1.02-.56-1.84-1.33-2.45-2.34-.62-1-.96-2.19-1.04-3.55h14.38c.05-.26.09-.54.12-.85.03-.3.04-.63.04-.99,0-1.84-.33-3.44-1-4.8-.67-1.36-1.63-2.4-2.89-3.13ZM385.21,284.39c.16-1.3.53-2.39,1.12-3.26s1.32-1.55,2.2-2.02c.88-.47,1.81-.71,2.81-.71,1.68,0,2.98.51,3.91,1.54.93,1.03,1.39,2.51,1.39,4.45h-11.43Z"/>
        <path class="cls-1" d="M415.58,275.82c-1.47,0-2.77.32-3.91.96-1.14.63-2.22,1.41-3.24,2.33h-.08l-.35-2.8h-2.95v19.22h3.61v-13.95c1.05-.97,2-1.7,2.87-2.2.87-.5,1.85-.74,2.95-.74,1.41,0,2.44.4,3.08,1.2.64.8.96,2.11.96,3.93v11.75h3.58v-12.18c0-2.45-.52-4.33-1.57-5.61-1.05-1.28-2.7-1.93-4.95-1.93Z"/>
        <path class="cls-1" d="M452.63,277.05c-1.26-.82-2.81-1.22-4.64-1.22-1.2,0-2.38.26-3.54.78-1.15.52-2.21,1.16-3.18,1.91l.16-3.43v-7.72h-3.61v28.18h2.87l.31-1.98h.16c.92.78,1.91,1.38,2.99,1.81,1.08.42,2.09.63,3.07.63,1.62,0,3.14-.41,4.54-1.22s2.54-2,3.42-3.55c.88-1.56,1.32-3.42,1.32-5.59,0-1.98-.33-3.7-.99-5.17-.66-1.46-1.61-2.6-2.87-3.41ZM451.97,289.76c-.53,1.14-1.25,2.02-2.18,2.62-.93.6-1.99.9-3.17.9-.68,0-1.49-.15-2.42-.44-.93-.3-1.85-.81-2.77-1.54v-10.13c.99-.85,1.97-1.49,2.91-1.94s1.86-.67,2.75-.67c1.39,0,2.49.3,3.3.88.81.59,1.4,1.42,1.79,2.5.38,1.08.57,2.32.57,3.73,0,1.58-.26,2.94-.78,4.09Z"/>
        <path class="cls-1" d="M474.68,276.32l-5.58,16.11h-.2l-6.44-16.11h-3.73l8.57,19.26-.47,1.45c-.45,1.18-1.05,2.17-1.82,2.96-.78.79-1.76,1.19-2.97,1.19-.32,0-.62-.03-.9-.11-.29-.07-.54-.14-.75-.21l-.71,2.58c.34.12.72.21,1.14.28.42.07.88.11,1.38.11,1.41,0,2.62-.3,3.61-.89.99-.59,1.85-1.38,2.55-2.39.71-1,1.31-2.13,1.81-3.38l8.01-20.85h-3.49Z"/>
        <polygon class="cls-1" points="495.07 283.29 505.99 283.29 505.99 280.5 495.07 280.5 495.07 272.35 508.03 272.35 508.03 269.6 491.46 269.6 491.46 295.54 508.47 295.54 508.47 292.75 495.07 292.75 495.07 283.29"/>
        <polygon class="cls-1" points="521.12 285.84 527.61 276.32 523.87 276.32 519.35 283.76 519.16 283.76 514.21 276.32 510.32 276.32 516.8 285.52 509.77 295.54 513.54 295.54 518.57 287.61 518.76 287.61 524.23 295.54 528.16 295.54 521.12 285.84"/>
        <path class="cls-1" d="M544.11,276.92c-1.26-.73-2.81-1.1-4.64-1.1-1.2,0-2.38.23-3.53.69-1.16.46-2.18,1.13-3.08,2.02-.9.88-1.62,1.94-2.14,3.19-.53,1.24-.79,2.65-.79,4.23,0,2.1.45,3.9,1.36,5.4.9,1.5,2.12,2.65,3.67,3.45,1.55.81,3.28,1.2,5.19,1.2,1.44,0,2.74-.19,3.89-.57,1.15-.38,2.18-.84,3.1-1.38l-1.25-2.16c-.81.47-1.64.84-2.5,1.11s-1.8.41-2.85.41c-1.36,0-2.55-.28-3.58-.83-1.02-.56-1.84-1.33-2.45-2.34-.62-1-.96-2.19-1.04-3.55h14.38c.06-.26.09-.54.12-.85.03-.3.04-.63.04-.99,0-1.84-.33-3.44-1-4.8-.67-1.36-1.63-2.4-2.89-3.13ZM533.42,284.39c.15-1.3.53-2.39,1.12-3.26.59-.87,1.32-1.55,2.2-2.02.88-.47,1.81-.71,2.81-.71,1.67,0,2.98.51,3.91,1.54.93,1.03,1.39,2.51,1.39,4.45h-11.43Z"/>
        <path class="cls-1" d="M564.74,292.76c-.84.37-1.76.55-2.75.55-1.31,0-2.46-.3-3.44-.92-.98-.61-1.76-1.47-2.32-2.58-.57-1.11-.85-2.39-.85-3.86s.29-2.78.87-3.89c.58-1.11,1.37-1.97,2.4-2.58,1.02-.62,2.17-.92,3.46-.92.84,0,1.61.15,2.3.46.69.31,1.34.71,1.94,1.2l1.81-2.12c-.73-.61-1.61-1.14-2.61-1.59-1.01-.45-2.21-.67-3.6-.67-1.81,0-3.49.4-5.07,1.2-1.57.81-2.83,1.95-3.77,3.45-.94,1.5-1.41,3.32-1.41,5.47s.44,3.94,1.31,5.44c.88,1.5,2.07,2.64,3.58,3.43,1.51.79,3.2,1.18,5.09,1.18,1.28,0,2.51-.21,3.7-.63,1.18-.43,2.25-1.02,3.22-1.77l-1.57-2.19c-.68.54-1.44,1-2.28,1.36Z"/>
        <path class="cls-1" d="M586.38,289.95c-1.02,1.14-1.97,1.96-2.83,2.48-.86.52-1.85.78-2.95.78-1.41,0-2.43-.41-3.06-1.22-.63-.81-.94-2.1-.94-3.88v-11.79h-3.61v12.18c0,2.45.53,4.32,1.59,5.59,1.06,1.28,2.72,1.91,4.97,1.91,1.46,0,2.75-.32,3.87-.96,1.11-.63,2.17-1.47,3.17-2.51h.12l.28,3.01h2.99v-19.22h-3.58v13.63Z"/>
        <path class="cls-1" d="M605.91,293.23c-.45.1-.87.16-1.26.16-1.23,0-2.09-.33-2.57-.97-.48-.65-.72-1.55-.72-2.71v-10.76h5.81v-2.62h-5.81v-5.41h-2.99l-.39,5.41-3.38.18v2.45h3.18v10.65c0,1.28.19,2.4.57,3.37.38.97,1.02,1.72,1.91,2.24.89.53,2.08.8,3.58.8.68,0,1.36-.07,2.04-.21s1.32-.31,1.92-.5l-.71-2.44c-.34.14-.73.27-1.18.37Z"/>
        <path class="cls-1" d="M613.77,268.11c-.71,0-1.28.19-1.71.57-.43.38-.65.89-.65,1.52s.21,1.19.65,1.58c.43.39,1,.58,1.71.58s1.28-.19,1.73-.58c.45-.39.67-.91.67-1.58s-.22-1.14-.67-1.52c-.45-.38-1.02-.57-1.73-.57Z"/>
        <rect class="cls-1" x="611.97" y="276.32" width="3.61" height="19.22"/>
        <path class="cls-1" d="M637.97,278.48c-.92-.87-1.97-1.53-3.16-1.98-1.19-.45-2.44-.67-3.75-.67-1.73,0-3.35.4-4.87,1.2-1.52.81-2.73,1.95-3.63,3.45-.9,1.5-1.36,3.32-1.36,5.47s.45,3.94,1.36,5.44c.9,1.5,2.11,2.64,3.63,3.43,1.52.79,3.14,1.18,4.87,1.18s3.38-.39,4.87-1.18c1.49-.79,2.7-1.94,3.61-3.43.92-1.5,1.37-3.31,1.37-5.44,0-1.6-.26-3.03-.78-4.28-.52-1.25-1.25-2.31-2.16-3.19ZM636.48,289.81c-.53,1.11-1.25,1.97-2.18,2.58-.93.62-2.01.92-3.24.92s-2.31-.3-3.24-.92c-.93-.61-1.65-1.47-2.16-2.58-.51-1.11-.77-2.39-.77-3.86s.26-2.78.77-3.89c.51-1.11,1.23-1.97,2.16-2.58.93-.62,2.01-.92,3.24-.92s2.31.3,3.24.92c.93.61,1.65,1.47,2.18,2.58.52,1.11.78,2.41.78,3.89s-.26,2.75-.78,3.86Z"/>
        <path class="cls-1" d="M662.06,277.76c-1.05-1.28-2.7-1.93-4.95-1.93-1.47,0-2.77.32-3.91.96-1.14.63-2.22,1.41-3.24,2.33h-.08l-.36-2.8h-2.95v19.22h3.61v-13.95c1.05-.97,2-1.7,2.87-2.2s1.85-.74,2.95-.74c1.41,0,2.44.4,3.08,1.2.64.8.96,2.11.96,3.93v11.75h3.58v-12.18c0-2.45-.53-4.33-1.57-5.61Z"/>
      </g>
      <g>
        <path class="cls-1" d="M133.93,60.44H56.91l16.52,24.42h31.67c-6.66,14.29-21.15,24.17-37.94,24.17-23.16,0-41.91-18.75-41.91-41.88s18.75-41.91,41.91-41.91c14.76,0,27.76,7.65,35.19,19.22h28C121.07,18.56,96.26,0,67.16,0,30.07,0,0,30.07,0,67.16s30.07,67.13,67.16,67.13,67.13-30.07,67.13-67.13c0-2.26-.11-4.49-.36-6.72Z"/>
        <polygon class="cls-1" points="642.1 2.43 545.36 2.43 545.36 26.83 588.41 26.83 588.41 131.84 612.81 131.84 612.81 26.83 669.63 26.83 642.1 2.43"/>
        <rect class="cls-1" x="152.8" y="2.42" width="24.4" height="129.42"/>
        <rect class="cls-1" x="416.03" y="39.26" width="24.4" height="92.57"/>
        <polygon class="cls-1" points="505.16 2.42 505.16 94.38 446.46 2.41 417.52 2.41 500.13 131.83 529.56 131.83 529.56 2.42 505.16 2.42"/>
        <path class="cls-1" d="M263.84,131.83h0l-33.71-46.45c17.28-5.37,29.83-21.48,29.83-40.53h0c0-23.43-19-42.43-42.43-42.43h-33.53v24.4h33.53c9.96,0,18.04,8.07,18.04,18.04h0c0,9.96-8.07,18.04-18.04,18.04h-34.39l50.55,68.95h30.15,0Z"/>
        <polygon class="cls-1" points="318.69 2.42 288.54 2.42 341.26 75.08 308.97 75.08 328.25 99.48 358.96 99.48 382.44 131.83 412.59 131.83 318.69 2.42"/>
        <rect class="cls-1" x="281.44" y="26.83" width="24.4" height="105.01"/>
      </g>
    </g>
  </g>
</svg>