<?xml version="1.0" encoding="UTF-8"?>
<svg xmlns="http://www.w3.org/2000/svg" id="Layer_1" data-name="Layer 1" viewBox="0 0 64 64" width="512" height="512"><path d="M34.446,62a34.934,34.934,0,0,1-6.967-.7C13.811,58.528,5.472,50.189,2.7,36.52A34.916,34.916,0,0,1,2,29.554,37.825,37.825,0,0,1,2.25,25.5,5.042,5.042,0,0,1,7.264,21h3.695A5.046,5.046,0,0,1,16,26.041v6.245a5.049,5.049,0,0,1-3.732,4.868A23.607,23.607,0,0,0,26.846,51.732,5.049,5.049,0,0,1,31.714,48h6.245A5.046,5.046,0,0,1,43,53.041v3.7a5.042,5.042,0,0,1-4.5,5.014A37.792,37.792,0,0,1,34.446,62ZM7.264,23a3.045,3.045,0,0,0-3.026,2.716A36.116,36.116,0,0,0,4,29.554a32.938,32.938,0,0,0,.657,6.567C7.257,48.93,15.07,56.743,27.878,59.343A32.956,32.956,0,0,0,34.446,60a36.083,36.083,0,0,0,3.837-.238A3.045,3.045,0,0,0,41,56.736V53.041A3.044,3.044,0,0,0,37.959,50H31.714a3.045,3.045,0,0,0-3.041,3.041A1,1,0,0,1,27.4,54,25.588,25.588,0,0,1,10,36.6a1,1,0,0,1,.961-1.276A3.045,3.045,0,0,0,14,32.286V26.041A3.044,3.044,0,0,0,10.959,23Z"/><path d="M38,38H32a1,1,0,0,1-1-1V33H27a1,1,0,0,1-1-1V26a1,1,0,0,1,1-1h4V21a1,1,0,0,1,1-1h6a1,1,0,0,1,1,1v4h4a1,1,0,0,1,1,1v6a1,1,0,0,1-1,1H39v4A1,1,0,0,1,38,38Zm-5-2h4V32a1,1,0,0,1,1-1h4V27H38a1,1,0,0,1-1-1V22H33v4a1,1,0,0,1-1,1H28v4h4a1,1,0,0,1,1,1Z"/><path d="M44.86,59a1,1,0,0,1-.444-1.9A28,28,0,1,0,6.9,19.584,1,1,0,1,1,5.1,18.7,30,30,0,1,1,45.3,58.9.989.989,0,0,1,44.86,59Z"/></svg>
