<svg id="Layer_1" height="512" viewBox="0 0 64 64" width="512" xmlns="http://www.w3.org/2000/svg" data-name="Layer 1"><path d="m32 62a1 1 0 0 1 -.858-.486c-.742-1.237-18.142-30.414-18.142-40.514a19 19 0 0 1 38 0c0 10.1-17.4 39.277-18.142 40.514a1 1 0 0 1 -.858.486zm0-58a17.019 17.019 0 0 0 -17 17c0 8.327 13.436 31.917 17 38.028 3.564-6.111 17-29.701 17-38.028a17.019 17.019 0 0 0 -17-17z"/><path d="m46 62h-28a1 1 0 0 1 0-2h28a1 1 0 0 1 0 2z"/><path d="m32 33a13 13 0 1 1 13-13 13.015 13.015 0 0 1 -13 13zm0-24a11 11 0 1 0 11 11 11.013 11.013 0 0 0 -11-11z"/><path d="m35 29h-6a1 1 0 0 1 -1-1v-4h-4a1 1 0 0 1 -1-1v-6a1 1 0 0 1 1-1h4v-4a1 1 0 0 1 1-1h6a1 1 0 0 1 1 1v4h4a1 1 0 0 1 1 1v6a1 1 0 0 1 -1 1h-4v4a1 1 0 0 1 -1 1zm-5-2h4v-4a1 1 0 0 1 1-1h4v-4h-4a1 1 0 0 1 -1-1v-4h-4v4a1 1 0 0 1 -1 1h-4v4h4a1 1 0 0 1 1 1z"/></svg>