<svg id="Layer_1" height="512" viewBox="0 0 64 64" width="512" xmlns="http://www.w3.org/2000/svg" data-name="Layer 1"><path d="m61 59h-58a1 1 0 0 1 -1-1v-36a1 1 0 0 1 1-1h58a1 1 0 0 1 1 1v36a1 1 0 0 1 -1 1zm-57-2h56v-34h-56z"/><path d="m61 23h-58a1 1 0 0 1 -1-1v-12a1 1 0 0 1 1-1h7a1 1 0 0 1 0 2h-6v10h56v-10h-6a1 1 0 0 1 0-2h7a1 1 0 0 1 1 1v12a1 1 0 0 1 -1 1z"/><path d="m50 11h-6a1 1 0 0 1 0-2h6a1 1 0 0 1 0 2z"/><path d="m40 11h-6a1 1 0 0 1 0-2h6a1 1 0 0 1 0 2z"/><path d="m30 11h-6a1 1 0 0 1 0-2h6a1 1 0 0 1 0 2z"/><path d="m20 11h-6a1 1 0 0 1 0-2h6a1 1 0 0 1 0 2z"/><path d="m14 15h-4a1 1 0 0 1 -1-1v-8a1 1 0 0 1 1-1h4a1 1 0 0 1 1 1v8a1 1 0 0 1 -1 1zm-3-2h2v-6h-2z"/><path d="m24 15h-4a1 1 0 0 1 -1-1v-8a1 1 0 0 1 1-1h4a1 1 0 0 1 1 1v8a1 1 0 0 1 -1 1zm-3-2h2v-6h-2z"/><path d="m34 15h-4a1 1 0 0 1 -1-1v-8a1 1 0 0 1 1-1h4a1 1 0 0 1 1 1v8a1 1 0 0 1 -1 1zm-3-2h2v-6h-2z"/><path d="m44 15h-4a1 1 0 0 1 -1-1v-8a1 1 0 0 1 1-1h4a1 1 0 0 1 1 1v8a1 1 0 0 1 -1 1zm-3-2h2v-6h-2z"/><path d="m54 15h-4a1 1 0 0 1 -1-1v-8a1 1 0 0 1 1-1h4a1 1 0 0 1 1 1v8a1 1 0 0 1 -1 1zm-3-2h2v-6h-2z"/><path d="m18 38h-8a1 1 0 0 1 -1-1v-8a1 1 0 0 1 1-1h8a1 1 0 0 1 1 1v8a1 1 0 0 1 -1 1zm-7-2h6v-6h-6z"/><path d="m18 52h-8a1 1 0 0 1 -1-1v-8a1 1 0 0 1 1-1h8a1 1 0 0 1 1 1v8a1 1 0 0 1 -1 1zm-7-2h6v-6h-6z"/><path d="m36 38h-8a1 1 0 0 1 -1-1v-8a1 1 0 0 1 1-1h8a1 1 0 0 1 1 1v8a1 1 0 0 1 -1 1zm-7-2h6v-6h-6z"/><path d="m36 52h-8a1 1 0 0 1 -1-1v-8a1 1 0 0 1 1-1h8a1 1 0 0 1 1 1v8a1 1 0 0 1 -1 1zm-7-2h6v-6h-6z"/><path d="m54 38h-8a1 1 0 0 1 -1-1v-8a1 1 0 0 1 1-1h8a1 1 0 0 1 1 1v8a1 1 0 0 1 -1 1zm-7-2h6v-6h-6z"/><path d="m54 52h-8a1 1 0 0 1 -1-1v-8a1 1 0 0 1 1-1h6a1 1 0 0 1 0 2h-5v6h6v-1a1 1 0 0 1 2 0v2a1 1 0 0 1 -1 1z"/><path d="m51 49a1 1 0 0 1 -.707-.293l-2-2a1 1 0 0 1 1.414-1.414l1.293 1.293 5.293-5.293a1 1 0 0 1 1.414 1.414l-6 6a1 1 0 0 1 -.707.293z"/></svg>