<?xml version="1.0" encoding="UTF-8"?>
<svg xmlns="http://www.w3.org/2000/svg" id="Layer_1" data-name="Layer 1" viewBox="0 0 64 64" width="512" height="512"><path d="M43,21a1,1,0,0,1-.976-.783l-1.88-8.46A31.084,31.084,0,0,0,32,11a30.954,30.954,0,0,0-8.144.759l-1.88,8.458a.98.98,0,0,1-1,.783,1,1,0,0,1-.959-.835A77.01,77.01,0,0,1,19,10c0-3.649,2.255-8,13-8s13,4.351,13,8a77.01,77.01,0,0,1-1.014,10.165,1,1,0,0,1-.959.835ZM32,9c7.033,0,9.221.992,9.447,1.105a1,1,0,0,1,.529.678l.771,3.468C42.892,12.8,43,11.289,43,10c0-1.484,0-6-11-6S21,8.516,21,10c0,1.289.108,2.8.253,4.251l.771-3.468a1,1,0,0,1,.529-.678C22.779,9.992,24.967,9,32,9Z"/><path d="M32,39c-6.347,0-11.427-5.553-12.848-13.921a4.373,4.373,0,0,1-2.342-7.516,2.351,2.351,0,0,1,2.036-.448A4.553,4.553,0,0,1,21.9,19.553a1,1,0,1,1-1.79.894A2.543,2.543,0,0,0,18.38,19.06a.366.366,0,0,0-.3.05,2.192,2.192,0,0,0-.5,2.481,2.087,2.087,0,0,0,2.087,1.47,1,1,0,0,1,1.324.807C22.04,31.723,26.464,37,32,37a1,1,0,0,1,0,2Z"/><path d="M32,39a1,1,0,0,1,0-2c5.536,0,9.96-5.277,11.009-13.132a1,1,0,0,1,1.348-.8,2.1,2.1,0,0,0,2.063-1.475,2.192,2.192,0,0,0-.5-2.481.369.369,0,0,0-.3-.05A2.542,2.542,0,0,0,43.9,20.447a1,1,0,1,1-1.79-.894,4.553,4.553,0,0,1,3.05-2.438,2.359,2.359,0,0,1,2.035.448,4.374,4.374,0,0,1-2.342,7.516C43.427,33.447,38.347,39,32,39Z"/><path d="M32,48a1,1,0,0,1-.625-.219l-5-4A1,1,0,0,1,26,43V37h2v5.52l4,3.2,4-3.2V37h2v6a1,1,0,0,1-.375.781l-5,4A1,1,0,0,1,32,48Z"/><path d="M7,62a1,1,0,0,1-1-1V51A11.013,11.013,0,0,1,17,40H27a1,1,0,0,1,0,2H17a9.011,9.011,0,0,0-9,9V61A1,1,0,0,1,7,62Z"/><path d="M57,62a1,1,0,0,1-1-1V51a9.011,9.011,0,0,0-9-9H37a1,1,0,0,1,0-2H47A11.013,11.013,0,0,1,58,51V61A1,1,0,0,1,57,62Z"/><path d="M46,46a1,1,0,0,1-1-1,9.252,9.252,0,0,0-4.551-7.592,13.531,13.531,0,0,0-1.863-1.026,1,1,0,1,1,.828-1.821,15.621,15.621,0,0,1,2.137,1.178A11.208,11.208,0,0,1,47,45,1,1,0,0,1,46,46Z"/><path d="M18,51a1,1,0,0,1-1-1V45a11.208,11.208,0,0,1,5.449-9.261,15.621,15.621,0,0,1,2.137-1.178,1,1,0,1,1,.828,1.821,13.531,13.531,0,0,0-1.863,1.026A9.252,9.252,0,0,0,19,45v5A1,1,0,0,1,18,51Z"/><path d="M51,52a1,1,0,0,1-1-1c0-2.757-1.794-5-4-5s-4,2.243-4,5a1,1,0,0,1-2,0c0-3.86,2.691-7,6-7s6,3.14,6,7A1,1,0,0,1,51,52Z"/><path d="M41,57a3,3,0,1,1,3-3A3,3,0,0,1,41,57Zm0-4a1,1,0,1,0,1,1A1,1,0,0,0,41,53Z"/><path d="M51,57a3,3,0,1,1,3-3A3,3,0,0,1,51,57Zm0-4a1,1,0,1,0,1,1A1,1,0,0,0,51,53Z"/><path d="M18,58a4,4,0,1,1,4-4A4,4,0,0,1,18,58Zm0-6a2,2,0,1,0,2,2A2,2,0,0,0,18,52Z"/></svg>
