<svg xmlns="http://www.w3.org/2000/svg" viewBox="0 0 212.56012 43.7832"><defs><style>.cls-1{fill:#fff;}</style></defs><g id="Layer_2" data-name="Layer 2"><g id="레이어_1" data-name="레이어 1"><path class="cls-1" d="M57.51764,9.97656q-1.32789,0-1.32764-1.22559c0-.81738.40821-1.22558,1.29346-1.22558H72.088c1.021,0,1.56592.6123,1.56592,1.80468a33.25238,33.25238,0,0,1-1.29395,9.293h6.12793c.919,0,1.39551.40821,1.39551,1.22559s-.47656,1.22559-1.39551,1.22559H52.03668a1.09374,1.09374,0,0,1-1.25928-1.22559A1.09374,1.09374,0,0,1,52.03668,18.623H70.21539a36.793,36.793,0,0,0,.37451-8.64648ZM56.90485,29.7207H70.692V26.4873H57.92584c-.88476,0-1.32763-.375-1.32763-1.1582,0-.81641.40869-1.22559,1.29394-1.22559H72.19c.95313,0,1.46387.54492,1.46387,1.60059V30.334c0,1.19141-.51074,1.76953-1.498,1.76953H60.5816v2.48535c0,.57911.272.85157.88477.85157H73.44928q1.32787,0,1.32764,1.22558c0,.81641-.47657,1.19141-1.36133,1.19141H59.96881q-2.34888,0-2.34912-2.45117V33.05761c0-.9541-.34033-1.498-1.02148-1.5664a.728.728,0,0,1-.57862-.27246.75836.75836,0,0,1-.23828-.64649C55.78131,30.02734,56.15582,29.7207,56.90485,29.7207Z"/><path class="cls-1" d="M91.35113,15.62793h14.02442V11.37207H92.44049a1.23381,1.23381,0,0,1-1.36182-1.22559,1.206,1.206,0,0,1,1.29346-1.19141H106.942c.91894,0,1.3955.54493,1.3955,1.59961v5.65137c0,1.19141-.51074,1.77051-1.498,1.77051H95.09576v3.915c0,.51074.23829.749.78272.749h12.085c.91894,0,1.39551.4082,1.39551,1.19141,0,.8164-.47657,1.1914-1.42969,1.1914h-6.229V29.5166h11.64111c.9541,0,1.43066.4082,1.43066,1.1914q0,1.22609-1.43066,1.22559h-26.416A1.09373,1.09373,0,0,1,85.66608,30.708c0-.7832.4082-1.1914,1.25927-1.1914h11.813V25.02343h-4.5957c-1.36182,0-2.00879-.71484-2.00879-2.17871V18.96386c0-.95312-.34033-1.498-1.021-1.5664a.72607.72607,0,0,1-.5791-.27246.75719.75719,0,0,1-.23828-.64649C90.29547,15.93359,90.6358,15.62793,91.35113,15.62793Z"/><path class="cls-1" d="M121.40485,17.43164h10.792V12.70019h-9.77051c-.91895,0-1.36133-.40918-1.36133-1.22558,0-.78321.44238-1.19141,1.32715-1.19141h11.26856c.95312,0,1.46386.54395,1.46386,1.59961v6.12793c0,1.19141-.51074,1.76953-1.53222,1.76953H125.15v4.11914c0,.51074.23828.749.78321.749H135.941c.88574,0,1.3623.40918,1.3623,1.19141,0,.81738-.47656,1.22559-1.39648,1.22559H124.16266c-1.32813,0-1.97461-.71485-1.97461-2.17871V20.76757c0-.95312-.34082-1.498-1.02149-1.56542a.7263.7263,0,0,1-.57812-.27247.75673.75673,0,0,1-.23828-.64648C120.35016,17.73828,120.69,17.43164,121.40485,17.43164Zm20.69824-7.83008a1.71874,1.71874,0,0,0-.375-1.293,3.37515,3.37515,0,0,0-1.15723-.47656,3.86289,3.86289,0,0,1-1.12305-.375.56944.56944,0,0,1-.375-.61231c0-.61328.40918-.91894,1.25977-.91894h3.09766c1.08984,0,1.63476.50976,1.63476,1.49707v25.1914c0,2.11133-.749,3.13184-2.24707,3.13184h-.71484Z"/><path class="cls-1" d="M165.14508,29.75488H154.55719a1.09357,1.09357,0,0,1-1.25879-1.22559,1.094,1.094,0,0,1,1.25879-1.22558h10.82617c1.56543,0,2.85938,0,3.94824-.06739a18.94137,18.94137,0,0,0,3.30274-.30664c.71484-.13671,1.15722.03418,1.32715.44239a.88326.88326,0,0,1-.51075,1.08886,9.15829,9.15829,0,0,1-2.99511.91993A29.3646,29.3646,0,0,1,165.14508,29.75488Zm5.07227-13.54883a6.49872,6.49872,0,0,1-.57911,2.72363,6.83981,6.83981,0,0,1-1.63378,2.24707,6.67489,6.67489,0,0,1-2.34864,1.53125,7.24406,7.24406,0,0,1-2.92773.57911,6.75481,6.75481,0,0,1-2.89356-.57911,6.51688,6.51688,0,0,1-2.38379-1.53125,6.22093,6.22093,0,0,1-1.56543-2.24707,6.04421,6.04421,0,0,1-.61328-2.72363,6.25681,6.25681,0,0,1,.61328-2.72363,7.08915,7.08915,0,0,1,1.56543-2.21192,8.25766,8.25766,0,0,1,2.38379-1.5664,7.947,7.947,0,0,1,2.89356-.54492,8.579,8.579,0,0,1,2.92773.54492,8.56428,8.56428,0,0,1,2.34864,1.5664,7.93378,7.93378,0,0,1,1.63378,2.21192A6.735,6.735,0,0,1,170.21735,16.20605Zm-3.06446,0a5.2802,5.2802,0,0,0-.33984-1.77051,5.56476,5.56476,0,0,0-.98731-1.46386,5.72986,5.72986,0,0,0-1.3955-.98633,4.87735,4.87735,0,0,0-1.70215-.34082,4.57913,4.57913,0,0,0-1.70215.34082,5.16277,5.16277,0,0,0-1.39648.98633,4.21835,4.21835,0,0,0-.95313,1.46386,4.05666,4.05666,0,0,0-.374,1.77051,3.95423,3.95423,0,0,0,.374,1.77051,3.79757,3.79757,0,0,0,.95313,1.498,3.93353,3.93353,0,0,0,1.39648.95312,3.56677,3.56677,0,0,0,1.70215.374,3.756,3.756,0,0,0,1.70215-.374,4.24693,4.24693,0,0,0,1.3955-.95312,4.801,4.801,0,0,0,.98731-1.498A5.11787,5.11787,0,0,0,167.15289,16.20605Zm8.13672-6.60449a1.71874,1.71874,0,0,0-.375-1.293,3.59358,3.59358,0,0,0-1.1914-.47656,3.261,3.261,0,0,1-1.08887-.375.56944.56944,0,0,1-.375-.61231q0-.91992,1.22558-.91894h3.13184c1.08984,0,1.63477.50976,1.63477,1.49707v25.1914c0,2.11133-.749,3.13184-2.24707,3.13184h-.71485Z"/><path class="cls-1" d="M197.44488,22.708v3.23438c0,1.63379-.71484,2.417-2.07617,2.417h-.91894V22.708h-6.707a1.09357,1.09357,0,0,1-1.25879-1.22558c0-.78223.4082-1.19141,1.25879-1.19141h10.82617c1.56543,0,2.85937,0,3.94824-.06738a18.94223,18.94223,0,0,0,3.30273-.30664q1.07227-.20508,1.32715.4082a.88477.88477,0,0,1-.51074,1.08985,9.18556,9.18556,0,0,1-2.99512.91894,29.36441,29.36441,0,0,1-5.31054.374Zm5.17481-9.9746a5.70708,5.70708,0,0,1-.54492,2.417,6.815,6.815,0,0,1-1.53125,1.97461,8.46334,8.46334,0,0,1-2.24707,1.3623,7.45333,7.45333,0,0,1-2.72364.51074,7.32183,7.32183,0,0,1-2.72363-.51074,6.72516,6.72516,0,0,1-2.24609-1.3623,5.328,5.328,0,0,1-1.49805-1.97461,5.239,5.239,0,0,1-.54492-2.417,5.585,5.585,0,0,1,.54492-2.4502,5.5001,5.5001,0,0,1,1.49805-1.94043,7.54157,7.54157,0,0,1,4.96972-1.873,7.45334,7.45334,0,0,1,2.72364.51075,9.46388,9.46388,0,0,1,2.24707,1.3623,7.14331,7.14331,0,0,1,1.53125,1.94043A6.10814,6.10814,0,0,1,202.61969,12.7334Zm-2.96191,0a3.64185,3.64185,0,0,0-1.19141-2.68848,4.30916,4.30916,0,0,0-2.89356-1.08985,4.103,4.103,0,0,0-2.85937,1.08985A3.52025,3.52025,0,0,0,191.522,12.7334a3.35509,3.35509,0,0,0,1.19141,2.65527,3.98415,3.98415,0,0,0,2.85937,1.124,4.18025,4.18025,0,0,0,2.89356-1.124A3.46577,3.46577,0,0,0,199.65778,12.7334Zm11.47265,24.64746H198.60309q-3.47315,0-3.47266-2.96192V32.88672a1.89978,1.89978,0,0,0-.34082-1.293,3.52572,3.52572,0,0,0-1.12305-.47657,2.514,2.514,0,0,1-1.02148-.40918c-.16992-.10156-.23828-.30664-.23828-.6123q0-.91992,1.22558-.919h2.8252a1.46869,1.46869,0,0,1,1.63477,1.668v3.37012c0,.47656.2041.71484.68066.71484h12.3916c.91895,0,1.39551.40821,1.39551,1.22559Q212.56012,37.37989,211.13043,37.38086Zm-2.65527-27.7793a1.71874,1.71874,0,0,0-.375-1.293,3.37515,3.37515,0,0,0-1.15723-.47656,3.86289,3.86289,0,0,1-1.123-.375.56944.56944,0,0,1-.375-.61231c0-.61328.40918-.91894,1.25977-.91894h3.09766c1.08984,0,1.63476.50976,1.63476,1.49707V28.52929c0,2.11036-.749,3.13184-2.24707,3.13184h-.71484V27.37207h-6.09375c-.91895,0-1.36133-.40821-1.36133-1.22559,0-.7832.44238-1.19141,1.36133-1.19141h6.09375Z"/><path class="cls-1" d="M36.54962,37.33852c-.91986.111-1.85391.23386-2.79116.32556-.6645.065-1.33083.11435-1.99487.13266-1.63356.04508-3.25636-.22739-4.89014-.22739-.78417.00429-1.56743.05571-2.34794.13128-1.0901.1056-2.17472.25926-3.26048.4033q-.856.11361-1.71158.232a8.35026,8.35026,0,0,0-1.17134.15811c.99767-.29186,5.386-1.40708,6.339-1.88171a45.28017,45.28017,0,0,0,4.42427-2.54369,26.65238,26.65238,0,0,0,4.22793-3.23308c.02288-.02025.04553-.03661.06842-.057,0-2.39039-.04851-4.31643-.09153-6.13436.06567-2.34845-.22242-3.83888,3.23416-3.83888h2.45983v-.39546l-5.75806-.00012H25.46185v.39546h2.46006c3.514,0,4.01741,1.53814,4.01741,3.95444v3.25081a5.41574,5.41574,0,0,1-.47274,2.19216A10.88518,10.88518,0,0,1,28.631,33.35234c-.1096.088-.227.16567-.33865.25056a12.81216,12.81216,0,0,1-6.45025,1.83234c-7.13442,0-11.83029-5.8513-12.94786-13.26094C7.692,14.20554,11.95063,5.936,21.376,5.936a11.0289,11.0289,0,0,1,8.32224,2.88744,13.82326,13.82326,0,0,0,1.1945.85984c1.70622,1.118,4.70088.543,5.20334-1.73679a3.13344,3.13344,0,0,0-.30227-2.17747A3.80813,3.80813,0,0,0,35.187,4.902a3.3428,3.3428,0,0,0-.39975-.35822l-.33889-.25588A21.38044,21.38044,0,0,0,6.44656,6.30027a21.99548,21.99548,0,0,0-6.139,11.91261,22.2263,22.2263,0,0,0,1.864,13.2836A21.99018,21.99018,0,0,0,11.412,41.24216c5.93316,3.22126,13.50069,3.23508,19.74942.85726a25.65909,25.65909,0,0,0,5.9875-3.4196l2.25092-1.68493Q37.97472,37.16667,36.54962,37.33852Zm-9.48053,3.61933a19.65414,19.65414,0,0,1-13.80457-.957q-.4692-.22242-.924-.46823a21.46826,21.46826,0,0,1-9.06533-8.86294A20.34383,20.34383,0,0,1,1.53227,18.51762c.66839-4.10466,3.25511-7.988,6.19981-10.93343A19.60714,19.60714,0,0,1,30.775,4.00213c1.30436.68942,3.21887,1.39818,3.62066,3.00614a.93385.93385,0,0,1-.70027,1.24954c-.60177.08534-1.17437-.42287-1.67516-.67531a21.07513,21.07513,0,0,0-2.80885-1.14031,21.38848,21.38848,0,0,0-6.737-1.16475c-8.56685,0-16.34032,4.99328-16.34032,15.75687,0,9.8411,6.51312,14.928,15.03558,14.928a16.087,16.087,0,0,0,4.24944-.57286q-.51417.26283-1.03771.5049a42.19588,42.19588,0,0,1-4.68145,1.63235c-.22768.07574-.46337.15566-.705.23677a17.75817,17.75817,0,0,1-4.61121.937l.54322.36119c2.03354-.11681,4.07211-.13111,6.10816-.11017,1.2695.013,2.53969.0127,3.8085.06a28.92373,28.92373,0,0,1,2.97354.26377q.76986.10976,1.53219.26378c.43132.08729,1.42487.18237,1.918.21909Z"/></g></g></svg>