<svg xmlns="http://www.w3.org/2000/svg" viewBox="0 0 39.40195 43.7841"><defs><style>.cls-1{fill:#c0ac9c;}</style></defs><g id="Layer_2" data-name="Layer 2"><g id="Layer_1-2" data-name="Layer 1"><path class="cls-1" d="M36.55173,37.33942c-.91986.111-1.8539.23386-2.79116.32556-.6645.065-1.33083.11435-1.99487.13266-1.63356.04508-3.25636-.22739-4.89014-.22739-.78417.0043-1.56743.05571-2.34794.13128-1.0901.1056-2.17472.25926-3.26048.4033q-.856.11361-1.71158.232a8.35119,8.35119,0,0,0-1.17134.15811c.99767-.29185,5.386-1.40708,6.339-1.88171a45.27841,45.27841,0,0,0,4.42427-2.54369,26.652,26.652,0,0,0,4.22794-3.23308c.02288-.02025.04552-.03661.06842-.057,0-2.3904-.04851-4.31644-.09153-6.13436.06567-2.34845-.22242-3.83888,3.23416-3.83888h2.45983v-.39546l-5.75806-.00013H25.464v.39547H27.924c3.514,0,4.01741,1.53813,4.01741,3.95444v3.25081a5.41578,5.41578,0,0,1-.47274,2.19216,10.88518,10.88518,0,0,1-2.83558,3.14972c-.1096.088-.227.16567-.33865.25056a12.81209,12.81209,0,0,1-6.45025,1.83234c-7.13442,0-11.83029-5.8513-12.94786-13.26094C7.69411,14.20644,11.95274,5.9369,21.37811,5.9369a11.02893,11.02893,0,0,1,8.32224,2.88744,13.82524,13.82524,0,0,0,1.1945.85984c1.70622,1.118,4.70088.543,5.20334-1.73679a3.13339,3.13339,0,0,0-.30227-2.17747,3.8081,3.8081,0,0,0-.60681-.867,3.34249,3.34249,0,0,0-.39975-.35822l-.33889-.25588A21.38045,21.38045,0,0,0,6.44867,6.30117a21.99549,21.99549,0,0,0-6.139,11.91261,22.22638,22.22638,0,0,0,1.864,13.2836,21.99012,21.99012,0,0,0,9.24044,9.74568c5.93316,3.22126,13.50069,3.23508,19.74942.85727a25.65937,25.65937,0,0,0,5.9875-3.41961L39.402,36.99579Q37.97683,37.16757,36.55173,37.33942ZM27.0712,40.95875a19.65408,19.65408,0,0,1-13.80457-.957q-.4692-.22242-.924-.46823A21.46827,21.46827,0,0,1,3.2773,30.67058,20.34392,20.34392,0,0,1,1.53438,18.51852c.66839-4.10466,3.25511-7.988,6.19981-10.93343A19.60715,19.60715,0,0,1,30.77711,4.003c1.30436.68942,3.21887,1.39818,3.62066,3.00614a.93385.93385,0,0,1-.70027,1.24954c-.60177.08534-1.17437-.42287-1.67516-.67531a21.07646,21.07646,0,0,0-2.80885-1.14031,21.38852,21.38852,0,0,0-6.737-1.16475c-8.56685,0-16.34032,4.99328-16.34032,15.75687,0,9.8411,6.51312,14.928,15.03558,14.928a16.08675,16.08675,0,0,0,4.24944-.57286q-.51417.26283-1.03771.5049A42.1957,42.1957,0,0,1,19.702,37.5276c-.22768.07574-.46337.15566-.705.23677a17.75757,17.75757,0,0,1-4.61121.937l.54322.36119c2.03354-.11681,4.07211-.13111,6.10816-.11017,1.2695.013,2.53969.0127,3.8085.06a28.92313,28.92313,0,0,1,2.97354.26377q.76986.10975,1.53219.26378c.43132.08729,1.42487.18237,1.918.21909Z"/></g></g></svg>