<svg xmlns="http://www.w3.org/2000/svg" viewBox="0 0 860.47 125.66"><defs><style>.cls-1{fill:#fff;}</style></defs><title>logo-f</title><g id="레이어_2" data-name="레이어 2"><g id="Layer_1" data-name="Layer 1"><polygon class="cls-1" points="178.89 27.55 194.71 0 140.5 0 68.78 71.72 68.78 124.11 96.33 124.11 96.33 83.13 132.43 47.04 132.43 124.11 159.98 124.11 159.98 27.55 178.89 27.55"/><polygon class="cls-1" points="282.06 48.28 278.9 48.28 223.2 48.28 217.22 37.92 223.2 27.55 283.08 27.55 297.11 0 207.29 0 185.4 37.92 207.29 75.83 210.45 75.83 266.15 75.83 272.13 86.19 266.15 96.55 170.7 96.55 170.7 124.11 282.06 124.11 303.95 86.19 282.06 48.28"/><polygon class="cls-1" points="38.79 0 0.18 0 0 0.18 62.43 62.05 81.92 42.57 38.79 0"/><path class="cls-1" d="M326.54,42.54c0-15.16,6.06-27.13,15.41-37.13h14.67c-9.34,9.76-15.82,22.38-15.82,37.13s6.48,27.37,15.82,37.13H342C332.6,69.67,326.54,57.7,326.54,42.54Z"/><path class="cls-1" d="M432.6,63.52H404.24V79.26h-14.1V63.52H361.78V50.74H432.6ZM396.45,34.18c-7.87,7.13-19.58,11.39-32,11.47V33c10.73-.16,21.22-4.67,25.4-12H365.64V8.45h63.1V21h-23.6a16.63,16.63,0,0,1-1.07,2.86l27.54,10.41-5.24,11.48Z"/><path class="cls-1" d="M437.77,79.67c9.34-9.76,15.82-22.38,15.82-37.13s-6.48-27.37-15.82-37.13h14.67c9.34,10,15.41,22,15.41,37.13s-6.07,27.13-15.41,37.13Z"/><path class="cls-1" d="M504.16,61.39c6.47,0,13.68-.82,18-2.79V71.55c-4.35,2-11.39,2.79-18.36,2.79H474.16v-13h16.23V51.15c-9-2.63-15-10.49-15-21.07,0-13.11,9.1-22,21.88-22s22.13,8.85,22.13,22c0,10.58-6.14,18.44-15.24,21.07ZM488.75,30.08c0,5.49,3.11,9.59,8.52,9.59s8.86-4.1,8.86-9.59-3.53-9.59-8.86-9.59S488.75,24.59,488.75,30.08ZM548.09,46h-8V77.62H526.2v-70h13.86V32.54h8Z"/><path class="cls-1" d="M599.08,41.8c0,23-8.77,33.36-22,33.36s-22-10.33-22-33.36,8.85-33.35,22-33.35S599.08,18.77,599.08,41.8Zm-30.33,0c0,15.74,3.69,20.66,8.36,20.66s8.28-4.92,8.28-20.66-3.69-20.65-8.28-20.65S568.75,26.15,568.75,41.8Zm52,35.82H606.86v-70h13.85Z"/><path class="cls-1" d="M663.83,61.64c6.64,0,13.85-1.31,18.11-3.36V71c-4.26,2.13-11.39,3.36-18.11,3.36H635V9.27h41.47V22H648.83V35.25h26.39V47.87H648.83V61.64Zm35.73-54v70H685.71v-70Z"/><path class="cls-1" d="M749.81,8H762.6V76.39H749.81V47.54h-5c-.91,19.75-6.81,27.62-17,27.62-11.06,0-17.13-9.43-17.13-33.36s6.07-33.35,17.13-33.35c9.84,0,15.73,7.45,16.88,25.81h5.08ZM732.11,41.8C732.11,27.3,731,21,727.85,21s-4.26,6.31-4.26,20.81,1.15,20.82,4.26,20.82S732.11,56.31,732.11,41.8ZM780.38,7.63v70h-13v-70Z"/><path class="cls-1" d="M789.57,62.21h70.81V75.16H789.57Zm1.4-9.92V39.18c13.93-.08,26.88-13,29.42-31.8l14.1,2.21a51.65,51.65,0,0,1-3.86,13.85l29.84,18-7.3,11.23L824.49,34.26C816.37,45.25,804.32,52.21,791,52.29Z"/><path class="cls-1" d="M403.79,113v6.32h-4.5V113l-7.53-13.8h5.14l4.84,9.5,4.81-9.5h4.77Z"/><path class="cls-1" d="M424.4,112.06a7.68,7.68,0,1,1-7.68-7.59A7.37,7.37,0,0,1,424.4,112.06Zm-11.11,0c0,2.22,1.36,3.82,3.43,3.82s3.44-1.6,3.44-3.82-1.36-3.83-3.44-3.83S413.29,109.83,413.29,112.06Z"/><path class="cls-1" d="M426.75,113.19v-8.37h4.4v7.63c0,2.2.89,3.41,2.54,3.41s2.77-1.36,2.77-3.61v-7.43h4.39v14.47h-4.39v-1.48a4.76,4.76,0,0,1-4,1.83C429.05,119.64,426.75,117.19,426.75,113.19Z"/><path class="cls-1" d="M444.16,104.82h4.39v1.48a4.76,4.76,0,0,1,4.05-1.83c3.36,0,5.66,2.45,5.66,6.45v8.37h-4.4v-7.63c0-2.2-.89-3.41-2.54-3.41s-2.77,1.36-2.77,3.61v7.43h-4.39Z"/><path class="cls-1" d="M461.47,120.43h4.44c.23.93,1.07,1.53,2.7,1.53a2.86,2.86,0,0,0,3.06-3v-1.53a4.89,4.89,0,0,1-4.15,1.83c-4.15,0-7-3.09-7-7.34s2.89-7.46,7-7.46a4.89,4.89,0,0,1,4.15,1.83v-1.48h4.39V119c0,3.92-3.13,6.64-7.45,6.64S461.94,123.22,461.47,120.43Zm10.27-8.5a3.44,3.44,0,0,0-3.53-3.7,3.72,3.72,0,0,0,0,7.41A3.45,3.45,0,0,0,471.74,111.93Z"/><path class="cls-1" d="M502.85,103.14h-6.54v16.15h-4.49V103.14h-6.55v-4h17.58Z"/><path class="cls-1" d="M516.31,112.06a7.68,7.68,0,1,1-7.68-7.59A7.37,7.37,0,0,1,516.31,112.06Zm-11.11,0c0,2.22,1.36,3.82,3.43,3.82s3.44-1.6,3.44-3.82-1.36-3.83-3.44-3.83S505.2,109.83,505.2,112.06Z"/><path class="cls-1" d="M527.43,108.6h-2.87v10.69h-4.39V108.6H517.3v-3.78h2.87v-4.3h4.39v4.3h2.87Z"/><path class="cls-1" d="M528.41,112.06c0-4.4,2.89-7.59,7-7.59a4.88,4.88,0,0,1,4.15,1.83v-1.48H544v14.47H539.6v-1.48a4.88,4.88,0,0,1-4.15,1.83C531.3,119.64,528.41,116.45,528.41,112.06Zm11.26,0a3.5,3.5,0,0,0-3.53-3.83c-2.1,0-3.43,1.6-3.43,3.83s1.33,3.82,3.43,3.82A3.5,3.5,0,0,0,539.67,112.06Z"/><path class="cls-1" d="M551.7,119.29h-4.4V98.55h4.4Z"/><path class="cls-1" d="M577.94,105.24H573.3c-.27-1.75-1.58-2.81-3.73-2.81s-3.25.83-3.25,2c0,1.51,1.55,2,5.48,2.84,4.64,1,6.22,3.26,6.22,6.28,0,3.85-3.63,6.19-8.12,6.19-5,0-8.6-2.69-8.8-7h4.62c.25,1.92,1.93,3.21,4.5,3.21,1.82,0,3.18-.92,3.18-2.23,0-1.6-1.36-2.24-4.94-2.91-4.37-.81-6.74-2.62-6.74-6.4,0-3.62,3.61-5.8,8.15-5.8S577.72,101.41,577.94,105.24Z"/><path class="cls-1" d="M595.16,112.06a7.68,7.68,0,1,1-7.68-7.59A7.37,7.37,0,0,1,595.16,112.06Zm-11.11,0c0,2.22,1.35,3.82,3.43,3.82s3.43-1.6,3.43-3.82-1.36-3.83-3.43-3.83S584.05,109.83,584.05,112.06Z"/><path class="cls-1" d="M602.12,119.29h-4.39V98.55h4.39Z"/><path class="cls-1" d="M605.21,113.19v-8.37h4.39v7.63c0,2.2.89,3.41,2.55,3.41s2.76-1.36,2.76-3.61v-7.43h4.4v14.47h-4.4v-1.48a4.74,4.74,0,0,1-4,1.83C607.5,119.64,605.21,117.19,605.21,113.19Z"/><path class="cls-1" d="M631.48,108.6h-2.86v10.69h-4.4V108.6h-2.86v-3.78h2.86v-4.3h4.4v4.3h2.86Z"/><path class="cls-1" d="M638.42,100.52a2.69,2.69,0,1,1-2.69-2.69A2.61,2.61,0,0,1,638.42,100.52Zm-.49,18.82h-4.4V104.82h4.4Z"/><path class="cls-1" d="M655.85,112.06a7.68,7.68,0,1,1-7.68-7.59A7.37,7.37,0,0,1,655.85,112.06Zm-11.11,0c0,2.22,1.36,3.82,3.43,3.82s3.44-1.6,3.44-3.82-1.36-3.83-3.44-3.83S644.74,109.83,644.74,112.06Z"/><path class="cls-1" d="M658.42,104.82h4.4v1.48a4.74,4.74,0,0,1,4-1.83c3.36,0,5.65,2.45,5.65,6.45v8.37h-4.39v-7.63c0-2.2-.89-3.41-2.55-3.41s-2.76,1.36-2.76,3.61v7.43h-4.4Z"/><path class="cls-1" d="M681.63,109.22A10.36,10.36,0,0,1,692.4,98.65c5.53,0,9.23,3.33,10.05,7.58h-4.54c-.47-1.93-2.52-3.46-5.41-3.46a6.45,6.45,0,0,0,0,12.89c2.89,0,5.26-1.9,5.6-3.73h4.55c-.62,4-4.67,7.85-10.25,7.85A10.36,10.36,0,0,1,681.63,109.22Z"/><path class="cls-1" d="M719.73,112.06a7.68,7.68,0,1,1-7.68-7.59A7.37,7.37,0,0,1,719.73,112.06Zm-11.11,0c0,2.22,1.36,3.82,3.43,3.82s3.44-1.6,3.44-3.82-1.36-3.83-3.44-3.83S708.62,109.83,708.62,112.06Z"/><path class="cls-1" d="M726.72,117a2.46,2.46,0,1,1-2.44-2.47A2.39,2.39,0,0,1,726.72,117Z"/><path class="cls-1" d="M732.4,121.27h-3.28l.89-6.4h3.92Z"/><path class="cls-1" d="M748.31,99.17v16.14h10.05v4H743.81V99.17Z"/><path class="cls-1" d="M774.23,103.14h-6.54v16.15h-4.5V103.14h-6.54v-4h17.58Z"/><path class="cls-1" d="M776.65,99.17h7.8c6.67,0,10.79,4.12,10.79,10.07s-4.12,10.05-10.79,10.05h-7.8Zm7.88,16.14c3.85,0,6.22-2.19,6.22-6.07s-2.37-6.1-6.22-6.1h-3.38v12.17Z"/></g></g></svg>