<svg xmlns="http://www.w3.org/2000/svg" viewBox="0 0 872.99 127.49"><defs><style>.cls-1{fill:#d64123;}.cls-2{fill:#231f20;}</style></defs><title>logo</title><g id="레이어_2" data-name="레이어 2"><g id="Layer_1" data-name="Layer 1"><polygon class="cls-1" points="181.49 27.96 197.55 0 142.54 0 69.78 72.76 69.78 125.91 97.73 125.91 97.73 84.34 134.35 47.72 134.35 125.91 162.31 125.91 162.31 27.96 181.49 27.96"/><polygon class="cls-1" points="286.16 48.98 282.96 48.98 226.45 48.98 220.38 38.47 226.45 27.96 287.2 27.96 301.43 0 210.31 0 188.1 38.47 210.31 76.94 213.51 76.94 270.02 76.94 276.09 87.45 270.02 97.96 173.18 97.96 173.18 125.91 286.16 125.91 308.37 87.45 286.16 48.98"/><polygon class="cls-1" points="39.35 0 0.18 0 0 0.18 63.34 62.96 83.11 43.19 39.35 0"/><path class="cls-2" d="M331.29,43.16c0-15.38,6.15-27.52,15.63-37.67h14.89c-9.48,9.9-16.05,22.7-16.05,37.67s6.57,27.77,16.05,37.67H346.92C337.44,70.68,331.29,58.54,331.29,43.16Z"/><path class="cls-2" d="M438.89,64.44H410.12v16h-14.3v-16H367.05v-13h71.84ZM402.22,34.68c-8,7.23-19.87,11.56-32.51,11.64V33.51c10.89-.16,21.54-4.74,25.78-12.22H371V8.57h64V21.29H411A16.91,16.91,0,0,1,410,24.2l27.94,10.56L432.57,46.4Z"/><path class="cls-2" d="M444.14,80.83c9.48-9.9,16.05-22.7,16.05-37.67s-6.57-27.77-16.05-37.67H459c9.48,10.15,15.63,22.29,15.63,37.67S468.5,70.68,459,80.83Z"/><path class="cls-2" d="M511.5,62.28c6.56,0,13.88-.83,18.29-2.82V72.59c-4.41,2-11.56,2.83-18.63,2.83h-30.1V62.28h16.47V51.89c-9.15-2.66-15.22-10.64-15.22-21.37,0-13.3,9.23-22.28,22.2-22.28S527,17.22,527,30.52c0,10.73-6.24,18.71-15.46,21.37ZM495.86,30.52c0,5.57,3.16,9.73,8.65,9.73s9-4.16,9-9.73-3.58-9.73-9-9.73S495.86,25,495.86,30.52Zm60.2,16.13h-8.15v32.1h-14v-71h14V33h8.15Z"/><path class="cls-2" d="M607.79,42.41c0,23.37-8.89,33.84-22.28,33.84s-22.37-10.47-22.37-33.84,9-33.84,22.37-33.84S607.79,19.05,607.79,42.41Zm-30.76,0c0,16,3.74,21,8.48,21s8.4-5,8.4-21-3.74-20.95-8.4-20.95S577,26.53,577,42.41Zm52.71,36.34h-14v-71h14Z"/><path class="cls-2" d="M673.49,62.53c6.74,0,14-1.33,18.38-3.41V72c-4.33,2.16-11.56,3.41-18.38,3.41H644.22V9.4H686.3V22.29h-28V35.76h26.78v12.8H658.27v14ZM709.74,7.74v71h-14v-71Z"/><path class="cls-2" d="M760.73,8.07h13V77.5h-13V48.23h-5.08c-.91,20-6.9,28-17.21,28-11.22,0-17.38-9.56-17.38-33.84s6.16-33.84,17.38-33.84c10,0,16,7.57,17.13,26.19h5.16Zm-18,34.34c0-14.72-1.17-21.12-4.33-21.12s-4.32,6.4-4.32,21.12,1.16,21.12,4.32,21.12S742.77,57.13,742.77,42.41Zm49-34.67v71H778.6v-71Z"/><path class="cls-2" d="M801.06,63.12H872.9V76.25H801.06Zm1.42-10.07V39.75c14.13-.08,27.27-13.22,29.85-32.26l14.3,2.24a52.83,52.83,0,0,1-3.91,14.06L873,42l-7.4,11.39L836.48,34.76C828.25,45.9,816,53,802.48,53.05Z"/><path class="cls-2" d="M409.66,114.61V121H405.1v-6.42l-7.64-14h5.21l4.91,9.64,4.89-9.64h4.83Z"/><path class="cls-2" d="M430.58,113.69a7.79,7.79,0,1,1-7.79-7.7A7.48,7.48,0,0,1,430.58,113.69Zm-11.27,0c0,2.25,1.37,3.88,3.48,3.88s3.48-1.63,3.48-3.88-1.38-3.89-3.48-3.89S419.31,111.43,419.31,113.69Z"/><path class="cls-2" d="M433,114.84v-8.49h4.46v7.74c0,2.23.9,3.45,2.58,3.45s2.81-1.37,2.81-3.65v-7.54h4.46V121h-4.46v-1.51a4.82,4.82,0,0,1-4.11,1.86C435.29,121.38,433,118.9,433,114.84Z"/><path class="cls-2" d="M450.62,106.35h4.46v1.5a4.82,4.82,0,0,1,4.11-1.86c3.41,0,5.74,2.49,5.74,6.54V121h-4.46v-7.74c0-2.23-.91-3.46-2.58-3.46s-2.81,1.38-2.81,3.66V121h-4.46Z"/><path class="cls-2" d="M468.19,122.18h4.5c.23.95,1.08,1.55,2.74,1.55a2.9,2.9,0,0,0,3.1-3v-1.55a4.93,4.93,0,0,1-4.21,1.85c-4.21,0-7.14-3.13-7.14-7.44s2.93-7.57,7.14-7.57a4.94,4.94,0,0,1,4.21,1.86v-1.5H483v14.4c0,4-3.18,6.74-7.56,6.74S468.66,125,468.19,122.18Zm10.42-8.62A3.5,3.5,0,0,0,475,109.8a3.77,3.77,0,0,0,0,7.52A3.5,3.5,0,0,0,478.61,113.56Z"/><path class="cls-2" d="M510.17,104.64h-6.64V121H499V104.64h-6.64v-4h17.84Z"/><path class="cls-2" d="M523.83,113.69A7.8,7.8,0,1,1,516,106,7.48,7.48,0,0,1,523.83,113.69Zm-11.28,0c0,2.25,1.38,3.88,3.49,3.88s3.48-1.63,3.48-3.88-1.38-3.89-3.48-3.89S512.55,111.43,512.55,113.69Z"/><path class="cls-2" d="M535.1,110.18h-2.91V121h-4.46V110.18h-2.9v-3.83h2.9V102h4.46v4.36h2.91Z"/><path class="cls-2" d="M536.1,113.69c0-4.46,2.93-7.7,7.14-7.7a5,5,0,0,1,4.21,1.86v-1.5h4.46V121h-4.46v-1.51a5,5,0,0,1-4.21,1.86C539,121.38,536.1,118.15,536.1,113.69Zm11.43,0a3.57,3.57,0,0,0-3.59-3.89c-2.13,0-3.48,1.63-3.48,3.89s1.35,3.88,3.48,3.88A3.56,3.56,0,0,0,547.53,113.69Z"/><path class="cls-2" d="M559.73,121h-4.46V100h4.46Z"/><path class="cls-2" d="M586.35,106.77h-4.7c-.28-1.78-1.61-2.85-3.79-2.85s-3.3.85-3.3,2.07c0,1.53,1.58,2.06,5.56,2.89,4.71,1,6.31,3.3,6.31,6.36,0,3.91-3.68,6.29-8.24,6.29-5,0-8.72-2.73-8.92-7.09H574c.26,2,2,3.25,4.56,3.25,1.86,0,3.24-.92,3.24-2.25,0-1.63-1.38-2.28-5-3-4.43-.82-6.83-2.65-6.83-6.49,0-3.68,3.65-5.88,8.26-5.88S586.13,102.89,586.35,106.77Z"/><path class="cls-2" d="M603.82,113.69A7.79,7.79,0,1,1,596,106,7.48,7.48,0,0,1,603.82,113.69Zm-11.27,0c0,2.25,1.37,3.88,3.48,3.88s3.48-1.63,3.48-3.88-1.38-3.89-3.48-3.89S592.55,111.43,592.55,113.69Z"/><path class="cls-2" d="M610.88,121h-4.46V100h4.46Z"/><path class="cls-2" d="M614,114.84v-8.49h4.46v7.74c0,2.23.9,3.45,2.58,3.45s2.8-1.37,2.8-3.65v-7.54h4.46V121h-4.46v-1.51a4.82,4.82,0,0,1-4.11,1.86C616.35,121.38,614,118.9,614,114.84Z"/><path class="cls-2" d="M640.67,110.18h-2.91V121H633.3V110.18h-2.9v-3.83h2.9V102h4.46v4.36h2.91Z"/><path class="cls-2" d="M647.71,102A2.73,2.73,0,1,1,645,99.26,2.64,2.64,0,0,1,647.71,102Zm-.5,19.09h-4.46V106.35h4.46Z"/><path class="cls-2" d="M665.4,113.69a7.8,7.8,0,1,1-7.8-7.7A7.48,7.48,0,0,1,665.4,113.69Zm-11.28,0c0,2.25,1.38,3.88,3.48,3.88s3.49-1.63,3.49-3.88-1.38-3.89-3.49-3.89S654.12,111.43,654.12,113.69Z"/><path class="cls-2" d="M668,106.35h4.46v1.5a4.82,4.82,0,0,1,4.11-1.86c3.41,0,5.74,2.49,5.74,6.54V121h-4.46v-7.74c0-2.23-.9-3.46-2.58-3.46s-2.81,1.38-2.81,3.66V121H668Z"/><path class="cls-2" d="M691.55,110.8a10.51,10.51,0,0,1,10.92-10.72c5.62,0,9.37,3.39,10.2,7.69h-4.61c-.48-2-2.55-3.5-5.49-3.5a6.54,6.54,0,0,0,0,13.07c2.94,0,5.34-1.93,5.69-3.78h4.61c-.63,4.11-4.73,8-10.4,8A10.51,10.51,0,0,1,691.55,110.8Z"/><path class="cls-2" d="M730.21,113.69a7.8,7.8,0,1,1-7.79-7.7A7.48,7.48,0,0,1,730.21,113.69Zm-11.28,0c0,2.25,1.38,3.88,3.49,3.88s3.48-1.63,3.48-3.88-1.38-3.89-3.48-3.89S718.93,111.43,718.93,113.69Z"/><path class="cls-2" d="M737.3,118.72a2.5,2.5,0,1,1-2.48-2.5A2.43,2.43,0,0,1,737.3,118.72Z"/><path class="cls-2" d="M743.06,123h-3.33l.9-6.49h4Z"/><path class="cls-2" d="M759.19,100.61V117h10.2v4H754.64V100.61Z"/><path class="cls-2" d="M785.5,104.64h-6.64V121H774.3V104.64h-6.64v-4H785.5Z"/><path class="cls-2" d="M788,100.61h7.92c6.76,0,11,4.18,11,10.22s-4.19,10.2-11,10.2H788ZM796,117c3.9,0,6.31-2.23,6.31-6.16s-2.41-6.19-6.31-6.19h-3.44V117Z"/></g></g></svg>