<?xml version="1.0" encoding="UTF-8"?>
<svg id="Layer_2" data-name="Layer 2" xmlns="http://www.w3.org/2000/svg" viewBox="0 0 594.42 127.24">
  <g id="Logo">
    <g>
      <g>
        <g>
          <path d="M467.27,40.52v86.72h-.02s-.01-.03-.01-.03l-26.72-26.51.21-22.81c0-5.92-4.8-10.72-10.72-10.72h-20.71l-26.93-26.54,84.9-.11Z"/>
          <rect x="350.55" y="100.7" width="90.01" height="26.54"/>
          <path d="M440.73,0v26.54h-79.46c-5.92,0-10.73,4.8-10.73,10.73v63.44h-26.53v-60.17L367.46,0h73.27Z"/>
        </g>
        <g>
          <path d="M324.01,40.53v86.71l-26.71-26.54.18-22.81c0-5.92-4.8-10.73-10.73-10.73h-20.71l-26.92-26.54,84.9-.1Z"/>
          <rect x="207.29" y="100.7" width="90.01" height="26.54"/>
          <path d="M297.47,0v26.54h-79.46c-5.92,0-10.73,4.8-10.73,10.73v63.44h-26.53v-60.17L224.21,0h73.27Z"/>
        </g>
        <g>
          <path d="M579.33,55.63c-4.5,4.5-4.5,11.78,0,16.28l15.05,15.07v40.26l-63.55-63.39L594.42.26l-.02,40.32-15.07,15.05Z"/>
          <path d="M467.26,86.93l-.02,40.28v.03h.01s.02-.03.02-.03v-40.29h-.01Z"/>
          <path d="M530.83,63.66l-63.56,63.55v-40.29l15.06-15.05c4.5-4.49,4.5-11.78,0-16.28l-15.05-15.06V.26l63.55,63.4Z"/>
        </g>
      </g>
      <g>
        <path d="M1.16,0h65.05c.64,0,1.16.52,1.16,1.16v20.25c0,.64-.52,1.16-1.16,1.16H23.72c-.64,0-1.16.52-1.16,1.16v28.2c0,.31.12.6.34.82l19.95,20.03c.73.73,1.98.22,1.98-.82v-19.07c0-.31-.12-.6-.34-.82l-11.75-11.88c-.72-.73-.21-1.98.83-1.98h32.62c.64,0,1.17.53,1.17,1.17,0,57.2,0,60.23,0,86.69,0,1.04-1.25,1.56-1.98.83L.34,62.17c-.22-.22-.34-.51-.34-.82V1.16C0,.52.52,0,1.16,0h0Z"/>
        <path d="M149.21,0h-65.05c-.64,0-1.16.52-1.16,1.16v20.25c0,.64.52,1.16,1.16,1.16h42.48c.64,0,1.16.52,1.16,1.16v28.2c0,.31-.12.6-.34.82l-19.95,20.03c-.73.73-1.98.22-1.98-.82v-19.07c0-.31.12-.6.34-.82l11.75-11.88c.73-.73.21-1.98-.82-1.98h-32.62c-.64,0-1.17.53-1.17,1.17,0,57.2,0,60.23,0,86.69,0,1.04,1.25,1.56,1.98.83l65.03-64.73c.22-.22.34-.51.34-.82V1.16c0-.64-.52-1.16-1.16-1.16h0Z"/>
      </g>
    </g>
  </g>
</svg>