<svg xmlns="http://www.w3.org/2000/svg" xmlns:xlink="http://www.w3.org/1999/xlink" width="395.43976" height="87.62298" viewBox="0 0 395.43976 87.62298">
  <defs>
    <style>
      .cls-1 {
        fill: none;
      }

      .cls-2 {
        clip-path: url(#clip-path);
      }

      .cls-3 {
        fill: #dcdddd;
      }

      .cls-4 {
        fill: #eb5e29;
      }
    </style>
    <clipPath id="clip-path" transform="translate(-51.9455 -71.39207)">
      <rect class="cls-1" width="500" height="220"/>
    </clipPath>
  </defs>
  <title>logo</title>
  <g id="Layer_2" data-name="Layer 2">
    <g id="Layer_1-2" data-name="Layer 1">
      <g class="cls-2">
        <g>
          <polygon class="cls-3" points="351.546 9.109 351.546 1.509 355.326 1.509 355.326 2.139 352.239 2.139 352.239 4.889 355.147 4.889 355.147 5.519 352.239 5.519 352.239 8.479 355.416 8.479 355.416 9.109 351.546 9.109"/>
          <path class="cls-3" d="M408.43259,79.22121a4.101,4.101,0,0,0,.806.57,2.06639,2.06639,0,0,0,.994.23,1.6849,1.6849,0,0,0,.607-.105,1.37848,1.37848,0,0,0,.468-.29,1.279,1.279,0,0,0,.298-.43,1.37823,1.37823,0,0,0,.103-.535,1.35454,1.35454,0,0,0-.419-1.01,5.22959,5.22959,0,0,0-1.156-.81,3.84716,3.84716,0,0,1-1.269-.995,1.96264,1.96264,0,0,1-.396-1.215,2.04615,2.04615,0,0,1,.157-.835,1.68972,1.68972,0,0,1,.423-.59,1.65919,1.65919,0,0,1,.621-.345,2.51454,2.51454,0,0,1,.752-.11,2.07084,2.07084,0,0,1,.967.235,2.09923,2.09923,0,0,1,.743.625l-.414.43a1.76275,1.76275,0,0,0-.598-.505,1.56971,1.56971,0,0,0-.698-.155,1.34866,1.34866,0,0,0-.486.085,1.27672,1.27672,0,0,0-.4.24,1.04457,1.04457,0,0,0-.275.39,1.36859,1.36859,0,0,0-.099.535,1.30841,1.30841,0,0,0,.068.41,1.42757,1.42757,0,0,0,.22.415,2.30215,2.30215,0,0,0,.4.405,3.66494,3.66494,0,0,0,.617.39,7.34071,7.34071,0,0,1,.815.49,3.4138,3.4138,0,0,1,.607.54,2.12258,2.12258,0,0,1,.383.63,2.07959,2.07959,0,0,1,.13.75,1.88137,1.88137,0,0,1-.635,1.45,2.05911,2.05911,0,0,1-.688.4,2.52818,2.52818,0,0,1-.846.14,3.07044,3.07044,0,0,1-2.106-.84Z" transform="translate(-51.9455 -71.39207)"/>
          <polygon class="cls-3" points="363.156 9.109 363.156 2.139 361.022 2.139 361.022 1.509 365.972 1.509 365.972 2.139 363.848 2.139 363.848 9.109 363.156 9.109"/>
          <path class="cls-3" d="M419.3584,80.90089a.4993.4993,0,0,1-.387-.17.68082.68082,0,0,1,0-.86.52552.52552,0,0,1,.774,0,.68078.68078,0,0,1,0,.86.49927.49927,0,0,1-.387.17" transform="translate(-51.9455 -71.39207)"/>
          <path class="cls-3" d="M423.4082,80.501v-.63l2.007-2.21a9.03806,9.03806,0,0,0,1.121-1.505,2.736,2.736,0,0,0,.409-1.345,1.44561,1.44561,0,0,0-.374-1.035,1.33853,1.33853,0,0,0-1.021-.395,1.94943,1.94943,0,0,0-.891.22,1.69842,1.69842,0,0,0-.693.65l-.468-.41a2.233,2.233,0,0,1,.878-.815,2.4979,2.4979,0,0,1,2.033-.11,1.995,1.995,0,0,1,.676.445,1.87256,1.87256,0,0,1,.414.655,2.29219,2.29219,0,0,1,.138.805,3.23431,3.23431,0,0,1-.435,1.57,9.03108,9.03108,0,0,1-1.238,1.67l-1.638,1.81h3.402v.63Z" transform="translate(-51.9455 -71.39207)"/>
          <path class="cls-3" d="M430.14017,80.35081a2.31361,2.31361,0,0,1-.756-.835,4.2521,4.2521,0,0,1-.437-1.255,8.8234,8.8234,0,0,1,0-3.12,4.26248,4.26248,0,0,1,.437-1.255,2.31349,2.31349,0,0,1,.756-.835,2.15936,2.15936,0,0,1,2.196,0,2.31349,2.31349,0,0,1,.756.835,4.23341,4.23341,0,0,1,.436,1.255,8.76076,8.76076,0,0,1,0,3.12,4.2232,4.2232,0,0,1-.436,1.255,2.31361,2.31361,0,0,1-.756.835,2.15942,2.15942,0,0,1-2.196,0m-.234-1.28a1.84452,1.84452,0,0,0,.54.695,1.35744,1.35744,0,0,0,1.584,0,1.83224,1.83224,0,0,0,.54-.7,4.01824,4.01824,0,0,0,.306-1.05,8.74975,8.74975,0,0,0,0-2.625,4.04606,4.04606,0,0,0-.306-1.055,1.83991,1.83991,0,0,0-.54-.7,1.35749,1.35749,0,0,0-1.584,0,1.83961,1.83961,0,0,0-.54.7,4.04719,4.04719,0,0,0-.306,1.055,8.74975,8.74975,0,0,0,0,2.625,4.10562,4.10562,0,0,0,.306,1.055" transform="translate(-51.9455 -71.39207)"/>
          <path class="cls-3" d="M434.56839,80.501v-.63l2.007-2.21a9.03862,9.03862,0,0,0,1.121-1.505,2.73614,2.73614,0,0,0,.409-1.345,1.44557,1.44557,0,0,0-.374-1.035,1.33851,1.33851,0,0,0-1.021-.395,1.94943,1.94943,0,0,0-.891.22,1.69844,1.69844,0,0,0-.693.65l-.468-.41a2.23289,2.23289,0,0,1,.878-.815,2.4979,2.4979,0,0,1,2.033-.11,1.9951,1.9951,0,0,1,.676.445,1.87239,1.87239,0,0,1,.414.655,2.292,2.292,0,0,1,.138.805,3.2344,3.2344,0,0,1-.435,1.57,9.03153,9.03153,0,0,1-1.238,1.67l-1.638,1.81h3.402v.63Z" transform="translate(-51.9455 -71.39207)"/>
          <path class="cls-3" d="M440.5264,79.041a2.03107,2.03107,0,0,0,.792.73,2.13342,2.13342,0,0,0,.981.25,1.71238,1.71238,0,0,0,.585-.1,1.45614,1.45614,0,0,0,.496-.3,1.40139,1.40139,0,0,0,.341-.515,1.97053,1.97053,0,0,0,.126-.735,1.31759,1.31759,0,0,0-.193-.73,1.52011,1.52011,0,0,0-.491-.48,2.18,2.18,0,0,0-.657-.26,3.25264,3.25264,0,0,0-.702-.08h-.693v-.63h.693a2.38012,2.38012,0,0,0,.639-.09,2.00777,2.00777,0,0,0,.59-.27,1.49157,1.49157,0,0,0,.436-.455,1.21317,1.21317,0,0,0,.171-.655,1.48234,1.48234,0,0,0-.112-.595,1.17283,1.17283,0,0,0-.725-.665,1.63934,1.63934,0,0,0-.513-.08,1.91385,1.91385,0,0,0-.886.225,1.73739,1.73739,0,0,0-.698.655l-.468-.41a2.38537,2.38537,0,0,1,.4-.48,2.274,2.274,0,0,1,.495-.345,2.5631,2.5631,0,0,1,.554-.205,2.4216,2.4216,0,0,1,1.346.055,1.97737,1.97737,0,0,1,.661.37,1.82109,1.82109,0,0,1,.464.615,2.00392,2.00392,0,0,1,.175.86,1.89266,1.89266,0,0,1-.297,1.075,1.83646,1.83646,0,0,1-.837.675,1.87557,1.87557,0,0,1,.976.69,1.99976,1.99976,0,0,1,.356,1.21,2.46751,2.46751,0,0,1-.189,1,2.02777,2.02777,0,0,1-1.224,1.14,2.55267,2.55267,0,0,1-.837.14,2.65048,2.65048,0,0,1-.625-.075,2.74164,2.74164,0,0,1-.604-.225,2.58686,2.58686,0,0,1-.544-.375,2.67252,2.67252,0,0,1-.45-.525Z" transform="translate(-51.9455 -71.39207)"/>
          <path class="cls-4" d="M57.1416,77.4648a.26587.26587,0,0,1-.3-.301v-1.223a.26477.26477,0,0,1,.3-.3l3.348.023a.68806.68806,0,0,1,.473.145.73161.73161,0,0,1,.187.515,4.7581,4.7581,0,0,1-.216,1.729,3.99512,3.99512,0,0,1-.805,1.428,3.835,3.835,0,0,1-1.349.971,4.50983,4.50983,0,0,1-1.854.361,4.721,4.721,0,0,1-1.795-.336,4.22436,4.22436,0,0,1-1.422-.943,4.37064,4.37064,0,0,1-.941-1.445,4.87733,4.87733,0,0,1-.342-1.86,5.107,5.107,0,0,1,.336-1.878,4.55173,4.55173,0,0,1,.93-1.489,4.26,4.26,0,0,1,1.391-.983,4.20654,4.20654,0,0,1,1.723-.354,4.84321,4.84321,0,0,1,2.208.473,3.73128,3.73128,0,0,1,1.44,1.219.44849.44849,0,0,1,.084.258.28243.28243,0,0,1-.132.234l-1.104.863a.45589.45589,0,0,1-.276.103.2741.2741,0,0,1-.252-.139,1.93041,1.93041,0,0,0-.702-.611,2.51425,2.51425,0,0,0-1.182-.24,2.16408,2.16408,0,0,0-.912.192,2.23112,2.23112,0,0,0-.738.546,2.56236,2.56236,0,0,0-.498.846,3.0985,3.0985,0,0,0-.18,1.08,2.88647,2.88647,0,0,0,.191,1.08,2.37858,2.37858,0,0,0,1.309,1.338,2.424,2.424,0,0,0,.948.185,2.68132,2.68132,0,0,0,.827-.12,2.21245,2.21245,0,0,0,.655-.329,2.01509,2.01509,0,0,0,.462-.48,1.96234,1.96234,0,0,0,.264-.582Z" transform="translate(-51.9455 -71.39207)"/>
          <path class="cls-4" d="M61.438,80.34471c-.256-.088-.328-.269-.216-.54q.384-.888.792-1.86t.81-1.974q.402-1.002.81-1.986t.792-1.884c.055-.128.102-.226.138-.294s.118-.103.246-.103h1.344a.28557.28557,0,0,1,.258.103,1.23417,1.23417,0,0,1,.126.294q.792,1.812,1.566,3.72t1.638,4.007q.168.4095-.216.54l-1.128.325a.37132.37132,0,0,1-.528-.216c-.137-.313-.272-.634-.408-.966s-.273-.679-.408-1.038l-2.928-.012q-.204.54-.402,1.044c-.132.336-.266.663-.402.984a.35228.35228,0,0,1-.528.215Zm4.896-3.708-.792-2.004q-.18.504-.36,1.002t-.372,1.002Z" transform="translate(-51.9455 -71.39207)"/>
          <path class="cls-4" d="M71.1455,80.68069a.31788.31788,0,0,1-.359-.36l-.145-8.136a.47472.47472,0,0,1,.481-.481h1.452a.5825.5825,0,0,1,.336.109.97349.97349,0,0,1,.252.252l1.883,5.232,1.884-5.232a.97349.97349,0,0,1,.252-.252.58248.58248,0,0,1,.336-.109h1.452a.47472.47472,0,0,1,.481.481l-.145,8.136a.31788.31788,0,0,1-.359.36h-1.057a.31749.31749,0,0,1-.359-.36l-.084-4.956-1.513,4.74a.485.485,0,0,1-.174.258.49542.49542,0,0,1-.282.078h-.876a.42145.42145,0,0,1-.443-.336l-1.513-4.74-.084,4.956a.31787.31787,0,0,1-.359.36Z" transform="translate(-51.9455 -71.39207)"/>
          <path class="cls-4" d="M81.2383,78.41209a.4146.4146,0,0,1,.228-.168.332.332,0,0,1,.276.061,5.07333,5.07333,0,0,0,1.074.587,3.94082,3.94082,0,0,0,1.361.252,2.1014,2.1014,0,0,0,1.123-.204.69429.69429,0,0,0,.402-.576.62862.62862,0,0,0-.265-.576,2.5071,2.5071,0,0,0-.72-.323c-.416-.12-.815-.233-1.2-.336a6.59252,6.59252,0,0,1-1.164-.445,3.54,3.54,0,0,1-.617-.377,2.65413,2.65413,0,0,1-.511-.51,2.38822,2.38822,0,0,1-.341-.649,2.45733,2.45733,0,0,1-.126-.816,2.63457,2.63457,0,0,1,.251-1.157,2.57027,2.57027,0,0,1,.703-.889,3.19416,3.19416,0,0,1,1.097-.563,4.92091,4.92091,0,0,1,1.441-.199,7.05848,7.05848,0,0,1,1.608.168,5.60248,5.60248,0,0,1,1.283.468.754.754,0,0,1,.252.217.29634.29634,0,0,1,.025.287l-.372,1.009a.34564.34564,0,0,1-.21.233.39391.39391,0,0,1-.319-.029,5.28368,5.28368,0,0,0-1.038-.385,4.57573,4.57573,0,0,0-1.229-.132,1.98493,1.98493,0,0,0-1.021.252.89908.89908,0,0,0-.431.708.70034.70034,0,0,0,.173.576,1.52909,1.52909,0,0,0,.559.372,8.83281,8.83281,0,0,0,.947.331c.345.099.697.198,1.057.293a3.53084,3.53084,0,0,1,1.685.901,2.05329,2.05329,0,0,1,.523,1.584,2.18943,2.18943,0,0,1-.294,1.025,2.48963,2.48963,0,0,1-.732.786,3.50028,3.50028,0,0,1-1.104.498,5.13351,5.13351,0,0,1-1.423.163,5.65326,5.65326,0,0,1-1.817-.319,5.2193,5.2193,0,0,1-1.578-.882.30917.30917,0,0,1-.073-.456Z" transform="translate(-51.9455 -71.39207)"/>
          <path class="cls-4" d="M90.9463,76.6729a2.56745,2.56745,0,0,0,.407,1.56,1.4082,1.4082,0,0,0,1.248.576,1.3209,1.3209,0,0,0,1.164-.534,3.00949,3.00949,0,0,0,.372-1.59l.073-4.62a.3185.3185,0,0,1,.36-.361h1.224a.31852.31852,0,0,1,.36.361l.035,4.272a6.95333,6.95333,0,0,1-.204,1.848,3.7941,3.7941,0,0,1-.672,1.41,3.03131,3.03131,0,0,1-1.157.899,4.00347,4.00347,0,0,1-1.662.319,3.35134,3.35134,0,0,1-2.689-1.092,4.613,4.613,0,0,1-.96-3.036l-.072-4.62q0-.36151.349-.361h1.512c.232,0,.347.12.347.361Z" transform="translate(-51.9455 -71.39207)"/>
          <path class="cls-4" d="M98.0254,80.68069a.31788.31788,0,0,1-.359-.36l-.145-8.256a.314.314,0,0,1,.349-.361h1.223a.578.578,0,0,1,.336.109.94376.94376,0,0,1,.252.252l3.324,5.112v-5.076a.31341.31341,0,0,1,.348-.36h1.464a.3079.3079,0,0,1,.349.36l-.265,8.256q-.024.36-.359.36h-1.153a.64248.64248,0,0,1-.324-.09.76046.76046,0,0,1-.264-.27l-3.156-4.992-.084,4.956a.31788.31788,0,0,1-.359.36Z" transform="translate(-51.9455 -71.39207)"/>
          <path class="cls-4" d="M111.0938,77.4648a.26587.26587,0,0,1-.3-.301v-1.223a.26477.26477,0,0,1,.3-.3l3.348.023a.68806.68806,0,0,1,.473.145.73161.73161,0,0,1,.187.515,4.7581,4.7581,0,0,1-.216,1.729,3.99512,3.99512,0,0,1-.805,1.428,3.835,3.835,0,0,1-1.349.971,4.50983,4.50983,0,0,1-1.854.361,4.721,4.721,0,0,1-1.795-.336,4.22436,4.22436,0,0,1-1.422-.943,4.37064,4.37064,0,0,1-.941-1.445,4.87733,4.87733,0,0,1-.342-1.86,5.107,5.107,0,0,1,.336-1.878,4.55173,4.55173,0,0,1,.93-1.489,4.26,4.26,0,0,1,1.391-.983,4.20654,4.20654,0,0,1,1.723-.354,4.84321,4.84321,0,0,1,2.208.473,3.73128,3.73128,0,0,1,1.44,1.219.44849.44849,0,0,1,.084.258.28243.28243,0,0,1-.132.234l-1.104.863a.45589.45589,0,0,1-.276.103.2741.2741,0,0,1-.252-.139,1.93041,1.93041,0,0,0-.702-.611,2.51425,2.51425,0,0,0-1.182-.24,2.16408,2.16408,0,0,0-.912.192,2.23112,2.23112,0,0,0-.738.546,2.56236,2.56236,0,0,0-.498.846,3.0985,3.0985,0,0,0-.18,1.08,2.88647,2.88647,0,0,0,.191,1.08,2.37858,2.37858,0,0,0,1.309,1.338,2.424,2.424,0,0,0,.948.185,2.68132,2.68132,0,0,0,.827-.12,2.21245,2.21245,0,0,0,.655-.329,2.01509,2.01509,0,0,0,.462-.48,1.96234,1.96234,0,0,0,.264-.582Z" transform="translate(-51.9455 -71.39207)"/>
          <path class="cls-4" d="M119.3369,80.6924a.31788.31788,0,0,1-.359-.36l-.145-8.268a.3133.3133,0,0,1,.349-.36h1.511a.30648.30648,0,0,1,.348.36l-.048,3.288,3.048-3.683a1.47836,1.47836,0,0,1,.246-.241.23667.23667,0,0,1,.282.024l1.188.888a.33684.33684,0,0,1,.181.234.27243.27243,0,0,1-.084.222l-2.617,2.844,2.712,3.912c.08.113.09.204.031.276a1.30178,1.30178,0,0,1-.247.217l-.971.708a.29807.29807,0,0,1-.277-.013,1.55706,1.55706,0,0,1-.228-.228l-2.436-3.336-.876.936-.024,2.22a.31749.31749,0,0,1-.359.36Z" transform="translate(-51.9455 -71.39207)"/>
          <path class="cls-4" d="M127.4609,80.6924a.31788.31788,0,0,1-.359-.36l-.145-8.268a.3133.3133,0,0,1,.349-.36h1.464a.30619.30619,0,0,1,.347.36l-.12,8.268a.31789.31789,0,0,1-.359.36Z" transform="translate(-51.9455 -71.39207)"/>
          <path class="cls-4" d="M130.58249,72.4485a.72325.72325,0,0,1,.227-.618,1.03961,1.03961,0,0,1,.612-.222,8.28417,8.28417,0,0,1,2.586.15,5.337,5.337,0,0,1,1.944.852,3.93525,3.93525,0,0,1,1.23,1.458,4.38976,4.38976,0,0,1,.432,1.968,5.39865,5.39865,0,0,1-.354,1.992,3.6909,3.6909,0,0,1-1.14,1.536,5.38,5.38,0,0,1-2.028.966,10.80185,10.80185,0,0,1-3.018.282.32482.32482,0,0,1-.36-.36Zm2.063,6.612a4.26658,4.26658,0,0,0,1.212-.21,2.61836,2.61836,0,0,0,.936-.534,2.37433,2.37433,0,0,0,.6-.876,3.23066,3.23066,0,0,0,.216-1.236,2.69828,2.69828,0,0,0-.198-1.05,2.263,2.263,0,0,0-.576-.816,2.54306,2.54306,0,0,0-.924-.522,3.75021,3.75021,0,0,0-1.242-.168Z" transform="translate(-51.9455 -71.39207)"/>
          <path class="cls-4" d="M139.042,78.41209a.4146.4146,0,0,1,.228-.168.332.332,0,0,1,.276.061,5.07277,5.07277,0,0,0,1.074.587,3.94073,3.94073,0,0,0,1.361.252,2.10142,2.10142,0,0,0,1.123-.204.69429.69429,0,0,0,.402-.576.62864.62864,0,0,0-.265-.576,2.50722,2.50722,0,0,0-.72-.323c-.416-.12-.815-.233-1.2-.336a6.59273,6.59273,0,0,1-1.164-.445,3.54008,3.54008,0,0,1-.617-.377,2.65407,2.65407,0,0,1-.511-.51,2.38822,2.38822,0,0,1-.341-.649,2.45733,2.45733,0,0,1-.126-.816,2.63457,2.63457,0,0,1,.251-1.157,2.57027,2.57027,0,0,1,.703-.889,3.19416,3.19416,0,0,1,1.097-.563,4.92091,4.92091,0,0,1,1.441-.199,7.05855,7.05855,0,0,1,1.608.168,5.60248,5.60248,0,0,1,1.283.468.75407.75407,0,0,1,.252.217.29637.29637,0,0,1,.025.287l-.372,1.009a.34565.34565,0,0,1-.21.233.39391.39391,0,0,1-.319-.029,5.28382,5.28382,0,0,0-1.038-.385,4.57578,4.57578,0,0,0-1.229-.132,1.9849,1.9849,0,0,0-1.021.252.899.899,0,0,0-.431.708.70033.70033,0,0,0,.173.576,1.52926,1.52926,0,0,0,.559.372,8.83244,8.83244,0,0,0,.947.331c.345.099.697.198,1.057.293a3.53075,3.53075,0,0,1,1.685.901,2.05334,2.05334,0,0,1,.523,1.584,2.18945,2.18945,0,0,1-.294,1.025,2.4896,2.4896,0,0,1-.732.786,3.50028,3.50028,0,0,1-1.104.498,5.1336,5.1336,0,0,1-1.423.163,5.65332,5.65332,0,0,1-1.817-.319,5.21925,5.21925,0,0,1-1.578-.882.30917.30917,0,0,1-.073-.456Z" transform="translate(-51.9455 -71.39207)"/>
          <path class="cls-4" d="M156.81351,78.54491a.3626.3626,0,0,1,.168.27.50475.50475,0,0,1-.097.282,3.58863,3.58863,0,0,1-1.422,1.29,4.41715,4.41715,0,0,1-1.985.426,4.58014,4.58014,0,0,1-1.776-.336,4.00307,4.00307,0,0,1-1.38-.943,4.325,4.325,0,0,1-.901-1.445,5.15887,5.15887,0,0,1-.323-1.86,5.36481,5.36481,0,0,1,.318-1.878,4.52036,4.52036,0,0,1,.887-1.489,4.05679,4.05679,0,0,1,3.055-1.338,5.11534,5.11534,0,0,1,1.164.126,4.17155,4.17155,0,0,1,.978.355,3.9605,3.9605,0,0,1,.786.533,3.55812,3.55812,0,0,1,.599.679.39351.39351,0,0,1,.078.252.33333.33333,0,0,1-.126.24l-1.103.863a.44654.44654,0,0,1-.271.103.29792.29792,0,0,1-.257-.139,2.42975,2.42975,0,0,0-.69-.588,2.1277,2.1277,0,0,0-1.074-.239,1.9445,1.9445,0,0,0-.853.191,2.1104,2.1104,0,0,0-.689.535,2.55778,2.55778,0,0,0-.468.834,3.21922,3.21922,0,0,0-.175,1.08,2.97622,2.97622,0,0,0,.181,1.055,2.43678,2.43678,0,0,0,.491.817,2.217,2.217,0,0,0,1.633.708,2.50434,2.50434,0,0,0,1.08-.216,2.35469,2.35469,0,0,0,.804-.637.37912.37912,0,0,1,.563-.071Z" transform="translate(-51.9455 -71.39207)"/>
          <path class="cls-4" d="M157.3765,80.34471c-.256-.088-.328-.269-.216-.54q.384-.888.792-1.86t.81-1.974q.402-1.002.81-1.986t.792-1.884c.055-.128.102-.226.138-.294s.118-.103.246-.103h1.344a.28557.28557,0,0,1,.258.103,1.23414,1.23414,0,0,1,.126.294q.792,1.812,1.566,3.72t1.638,4.007q.168.4095-.216.54l-1.128.325a.37133.37133,0,0,1-.528-.216c-.137-.313-.272-.634-.408-.966s-.273-.679-.408-1.038l-2.928-.012q-.204.54-.402,1.044c-.132.336-.266.663-.402.984a.35228.35228,0,0,1-.528.215Zm4.896-3.708-.792-2.004q-.18.504-.36,1.002t-.372,1.002Z" transform="translate(-51.9455 -71.39207)"/>
          <path class="cls-4" d="M167.084,80.6924a.31789.31789,0,0,1-.359-.36l-.132-7.776a.75824.75824,0,0,1,.227-.63.903.903,0,0,1,.613-.21l4.427-.024a.39274.39274,0,0,1,.42.42v.984a.39272.39272,0,0,1-.42.42l-3.095.06-.025,1.728,2.88.024a.39138.39138,0,0,1,.42.42v.912a.41685.41685,0,0,1-.113.306.4119.4119,0,0,1-.307.114l-2.903.049-.049,3.203a.31749.31749,0,0,1-.359.36Z" transform="translate(-51.9455 -71.39207)"/>
          <path class="cls-4" d="M175.49609,78.97659q1.1625.024,2.166-.048,1.002-.072,1.998-.24.348-.06.396.24l.18.996a.31746.31746,0,0,1-.252.42q-.732.156-1.416.252c-.456.064-.914.111-1.374.144q-.69.048-1.404.066t-1.494.006a.75789.75789,0,0,1-.84-.828l-.144-7.428a.76167.76167,0,0,1,.228-.63.90037.90037,0,0,1,.612-.21l5.628-.024a.3927.3927,0,0,1,.42.42v.984a.39271.39271,0,0,1-.42.42l-4.296.06v1.788l3.816-.072a.39272.39272,0,0,1,.42.42v.984a.39275.39275,0,0,1-.42.42l-3.816.036Z" transform="translate(-51.9455 -71.39207)"/>
          <path class="cls-4" d="M98.3804,151.7002a.353.353,0,0,1-.4-.399v-1.633a.35369.35369,0,0,1,.4-.4l4.464.033a.9237.9237,0,0,1,.632.191.98411.98411,0,0,1,.248.688,6.36788,6.36788,0,0,1-.288,2.304,5.30363,5.30363,0,0,1-1.072,1.904,5.15054,5.15054,0,0,1-1.8,1.296,6.0141,6.0141,0,0,1-2.472.48,6.2911,6.2911,0,0,1-2.392-.447,5.63173,5.63173,0,0,1-1.896-1.257,5.80881,5.80881,0,0,1-1.256-1.928,6.51359,6.51359,0,0,1-.456-2.479,6.7947,6.7947,0,0,1,.448-2.504,6.089,6.089,0,0,1,1.24-1.985,5.716,5.716,0,0,1,1.856-1.312,5.58914,5.58914,0,0,1,2.296-.472,6.44657,6.44657,0,0,1,2.944.632,4.96934,4.96934,0,0,1,1.92,1.624.59613.59613,0,0,1,.112.345.3762.3762,0,0,1-.176.311l-1.472,1.153a.61962.61962,0,0,1-.368.135.36661.36661,0,0,1-.336-.183,2.5592,2.5592,0,0,0-.936-.817,3.35444,3.35444,0,0,0-1.576-.32,2.89655,2.89655,0,0,0-1.216.256,2.975,2.975,0,0,0-.984.728,3.43127,3.43127,0,0,0-.664,1.128,4.16375,4.16375,0,0,0-.24,1.44,3.8408,3.8408,0,0,0,.256,1.44,3.15329,3.15329,0,0,0,1.744,1.784,3.24155,3.24155,0,0,0,1.264.248,3.5769,3.5769,0,0,0,1.104-.16,2.96526,2.96526,0,0,0,.872-.44,2.56862,2.56862,0,0,0,.968-1.416Z" transform="translate(-51.9455 -71.39207)"/>
          <path class="cls-4" d="M106.12349,154.98051a4.39928,4.39928,0,0,1-.984-1.464,4.92985,4.92985,0,0,1-.36-1.928,4.99173,4.99173,0,0,1,.36-1.936,4.46864,4.46864,0,0,1,.984-1.48,4.36468,4.36468,0,0,1,1.464-.952,4.98957,4.98957,0,0,1,3.6,0,4.36468,4.36468,0,0,1,1.464.952,4.46881,4.46881,0,0,1,.984,1.48,4.99173,4.99173,0,0,1,.36,1.936,4.885,4.885,0,0,1-.368,1.936,4.22513,4.22513,0,0,1-.976,1.448,4.30025,4.30025,0,0,1-1.464.92,5.23787,5.23787,0,0,1-3.6,0,4.35865,4.35865,0,0,1-1.464-.912m1.168-3.168a2.19715,2.19715,0,0,0,.616,1.624,2.15851,2.15851,0,0,0,1.592.616,2.34349,2.34349,0,0,0,.88-.16,1.9352,1.9352,0,0,0,.704-.456,2.19289,2.19289,0,0,0,.456-.704,2.58115,2.58115,0,0,0,0-1.832,2.176,2.176,0,0,0-.456-.712,1.94575,1.94575,0,0,0-.696-.456,2.4042,2.4042,0,0,0-.888-.16,2.14427,2.14427,0,0,0-1.608.616,2.22868,2.22868,0,0,0-.6,1.624" transform="translate(-51.9455 -71.39207)"/>
          <path class="cls-4" d="M116.4594,154.98051a4.39946,4.39946,0,0,1-.984-1.464,4.93,4.93,0,0,1-.36-1.928,4.99191,4.99191,0,0,1,.36-1.936,4.46881,4.46881,0,0,1,.984-1.48,4.36468,4.36468,0,0,1,1.464-.952,4.98957,4.98957,0,0,1,3.6,0,4.36468,4.36468,0,0,1,1.464.952,4.46881,4.46881,0,0,1,.984,1.48,4.99191,4.99191,0,0,1,.36,1.936,4.885,4.885,0,0,1-.368,1.936,4.22513,4.22513,0,0,1-.976,1.448,4.30025,4.30025,0,0,1-1.464.92,5.23787,5.23787,0,0,1-3.6,0,4.35865,4.35865,0,0,1-1.464-.912m1.168-3.168a2.19715,2.19715,0,0,0,.616,1.624,2.15851,2.15851,0,0,0,1.592.616,2.34356,2.34356,0,0,0,.88-.16,1.93507,1.93507,0,0,0,.704-.456,2.19275,2.19275,0,0,0,.456-.704,2.58115,2.58115,0,0,0,0-1.832,2.17587,2.17587,0,0,0-.456-.712,1.94562,1.94562,0,0,0-.696-.456,2.40424,2.40424,0,0,0-.888-.16,2.14426,2.14426,0,0,0-1.608.616,2.22868,2.22868,0,0,0-.6,1.624" transform="translate(-51.9455 -71.39207)"/>
          <path class="cls-4" d="M132.7478,156.0053c-.288,0-.432-.129-.432-.385v-.736a2.26,2.26,0,0,1-1.064.968,3.79137,3.79137,0,0,1-1.672.36,4.22535,4.22535,0,0,1-1.656-.32,3.73137,3.73137,0,0,1-1.312-.92,4.17853,4.17853,0,0,1-.856-1.456,6.266,6.266,0,0,1,0-3.856,4.18753,4.18753,0,0,1,.856-1.456,3.81768,3.81768,0,0,1,1.312-.928,4.12417,4.12417,0,0,1,1.656-.328,3.38032,3.38032,0,0,1,1.616.36,1.85773,1.85773,0,0,1,.896.904l-.048-4.032q-.033-.48.464-.48h2.016a.41747.41747,0,0,1,.464.48l-.192,11.344a.425.425,0,0,1-.48.481Zm-4.032-2.561a2.05526,2.05526,0,0,0,1.488.608,2.13783,2.13783,0,0,0,.832-.16,1.841,1.841,0,0,0,.656-.456,2.22959,2.22959,0,0,0,.432-.704,2.51411,2.51411,0,0,0,.16-.92,2.30467,2.30467,0,0,0-.568-1.624,1.96131,1.96131,0,0,0-1.512-.616,2.09118,2.09118,0,0,0-.824.16,1.9375,1.9375,0,0,0-.656.456,2.12422,2.12422,0,0,0-.44.712,2.70184,2.70184,0,0,0,0,1.832,2.289,2.289,0,0,0,.432.712" transform="translate(-51.9455 -71.39207)"/>
          <path class="cls-4" d="M141.01889,156.0048a.42427.42427,0,0,1-.48-.48l-.176-10.512a.94469.94469,0,0,1,.304-.817,1.51749,1.51749,0,0,1,.816-.303,15.74845,15.74845,0,0,1,3.4.04,7.43072,7.43072,0,0,1,2.488.735,3.85971,3.85971,0,0,1,1.528,1.393,3.76328,3.76328,0,0,1,.52,1.992,3.64343,3.64343,0,0,1-.592,2.08,4.08253,4.08253,0,0,1-1.648,1.392,5.45151,5.45151,0,0,0,1.064,1.36,6.07509,6.07509,0,0,0,1.368.928.578.578,0,0,1,.344.383.504.504,0,0,1-.088.401l-.896,1.296a.57287.57287,0,0,1-.376.28.677.677,0,0,1-.408-.089,6.1914,6.1914,0,0,1-2-1.599,7.20338,7.20338,0,0,1-1.28-2.369,8.82993,8.82993,0,0,1-1.776.017l-.064,3.392a.42427.42427,0,0,1-.48.48Zm2.048-6.08a8.421,8.421,0,0,0,1.512.023,3.69431,3.69431,0,0,0,1.16-.263,1.79045,1.79045,0,0,0,.744-.561,1.422,1.422,0,0,0,.264-.88,1.49673,1.49673,0,0,0-.256-.887,1.70786,1.70786,0,0,0-.736-.569,3.83993,3.83993,0,0,0-1.152-.271,7.20216,7.20216,0,0,0-1.504.032Z" transform="translate(-51.9455 -71.39207)"/>
          <path class="cls-4" d="M158.05859,156.0053c-.288,0-.432-.129-.432-.385v-.736a2.57464,2.57464,0,0,1-1.024.952,3.17978,3.17978,0,0,1-1.552.376,4.40384,4.40384,0,0,1-1.68-.32,3.9181,3.9181,0,0,1-1.36-.92,4.38609,4.38609,0,0,1-.912-1.456,5.23888,5.23888,0,0,1-.336-1.927,5.30841,5.30841,0,0,1,.336-1.937,4.3826,4.3826,0,0,1,.912-1.464,4.00833,4.00833,0,0,1,1.36-.928,4.11571,4.11571,0,0,1,1.68-.312,2.91617,2.91617,0,0,1,.776.104,3.33325,3.33325,0,0,1,.688.272,2.35164,2.35164,0,0,1,.552.408,1.58351,1.58351,0,0,1,.352.512v-.655q-.033-.4815.464-.481h1.952q.4635,0,.464.481l-.192,7.935a.425.425,0,0,1-.48.481Zm-4.064-2.561a2.20354,2.20354,0,0,0,3.048-.008,2.34065,2.34065,0,0,0,.552-1.624,2.38788,2.38788,0,0,0-.536-1.624,2.213,2.213,0,0,0-3.064,0,2.31847,2.31847,0,0,0-.56,1.624,2.34766,2.34766,0,0,0,.56,1.632" transform="translate(-51.9455 -71.39207)"/>
          <path class="cls-4" d="M162.5703,156.0053a.425.425,0,0,1-.48-.481l-.192-11.344a.41747.41747,0,0,1,.464-.48h2.016a.409.409,0,0,1,.464.48l-.048,4.032a2.70424,2.70424,0,0,1,.992-.92,3.11311,3.11311,0,0,1,1.52-.344,4.1311,4.1311,0,0,1,1.656.328,3.81754,3.81754,0,0,1,1.312.928,4.2028,4.2028,0,0,1,.856,1.456,6.26559,6.26559,0,0,1,0,3.856,4.19374,4.19374,0,0,1-.856,1.456,3.73124,3.73124,0,0,1-1.312.92,4.23249,4.23249,0,0,1-1.656.32,3.79138,3.79138,0,0,1-1.672-.36,2.25515,2.25515,0,0,1-1.064-.968v.736c0,.256-.144.385-.432.385Zm2.624-2.561a1.88632,1.88632,0,0,0,.656.448,2.13423,2.13423,0,0,0,.832.16,2.01735,2.01735,0,0,0,.816-.16,1.91707,1.91707,0,0,0,.664-.456,2.144,2.144,0,0,0,.44-.704,2.70184,2.70184,0,0,0,0-1.832,2.13994,2.13994,0,0,0-.44-.712,1.9473,1.9473,0,0,0-.656-.456,2.09116,2.09116,0,0,0-.824-.16,1.95976,1.95976,0,0,0-1.512.616,2.30463,2.30463,0,0,0-.568,1.624,2.49361,2.49361,0,0,0,.16.92,2.327,2.327,0,0,0,.432.712" transform="translate(-51.9455 -71.39207)"/>
          <path class="cls-4" d="M173.38629,156.0053a.425.425,0,0,1-.48-.481l-.192-11.344a.41748.41748,0,0,1,.464-.48h2.016a.409.409,0,0,1,.464.48l-.048,4.032a2.70424,2.70424,0,0,1,.992-.92,3.11318,3.11318,0,0,1,1.52-.344,4.13105,4.13105,0,0,1,1.656.328,3.81768,3.81768,0,0,1,1.312.928,4.2028,4.2028,0,0,1,.856,1.456,6.26579,6.26579,0,0,1,0,3.856,4.19374,4.19374,0,0,1-.856,1.456,3.73137,3.73137,0,0,1-1.312.92,4.23244,4.23244,0,0,1-1.656.32,3.79138,3.79138,0,0,1-1.672-.36,2.25517,2.25517,0,0,1-1.064-.968v.736c0,.256-.144.385-.432.385Zm2.624-2.561a1.88632,1.88632,0,0,0,.656.448,2.1343,2.1343,0,0,0,.832.16,2.0174,2.0174,0,0,0,.816-.16,1.91716,1.91716,0,0,0,.664-.456,2.14413,2.14413,0,0,0,.44-.704,2.702,2.702,0,0,0,0-1.832,2.1401,2.1401,0,0,0-.44-.712,1.9474,1.9474,0,0,0-.656-.456,2.09118,2.09118,0,0,0-.824-.16,1.95974,1.95974,0,0,0-1.512.616,2.30459,2.30459,0,0,0-.568,1.624,2.49382,2.49382,0,0,0,.16.92,2.32718,2.32718,0,0,0,.432.712" transform="translate(-51.9455 -71.39207)"/>
          <path class="cls-4" d="M184.97009,146.4689a1.6136,1.6136,0,1,1,1.16-.473,1.57417,1.57417,0,0,1-1.16.473m-.768,9.536a.42427.42427,0,0,1-.48-.48l-.192-7.92q0-.48148.464-.481h1.952a.40935.40935,0,0,1,.464.481l-.16,7.92a.42426.42426,0,0,1-.48.48Z" transform="translate(-51.9455 -71.39207)"/>
          <path class="cls-4" d="M190.314,156.0049a.42427.42427,0,0,1-.48-.48l-.096-5.92-1.728.032a.443.443,0,0,1-.48-.481v-1.631a.44425.44425,0,0,1,.48-.481l1.68.017-.016-1.792q-.033-.4815.464-.481h1.92a.43338.43338,0,0,1,.344.12.6086.6086,0,0,1,.12.361l-.032,1.824,1.696.016a.4416.4416,0,0,1,.48.48v1.455a.4512.4512,0,0,1-.128.345.55686.55686,0,0,1-.352.136l-1.728.032-.096,5.968a.42426.42426,0,0,1-.48.48Z" transform="translate(-51.9455 -71.39207)"/>
          <path class="cls-4" d="M202.20171,153.7002a20.21008,20.21008,0,0,0,2.184-.088q1.11148-.1035,2.104-.296c.331-.064.517.048.56.336l.24,1.328a.39344.39344,0,0,1-.336.544,21.47233,21.47233,0,0,1-3.024.496,27.62542,27.62542,0,0,1-3.248.128,1.00977,1.00977,0,0,1-1.12-1.104l-.176-10.544a.41708.41708,0,0,1,.464-.48h2.016a.409.409,0,0,1,.464.48Z" transform="translate(-51.9455 -71.39207)"/>
          <path class="cls-4" d="M209.38519,154.98051a4.39943,4.39943,0,0,1-.984-1.464,4.92985,4.92985,0,0,1-.36-1.928,4.99173,4.99173,0,0,1,.36-1.936,4.46879,4.46879,0,0,1,.984-1.48,4.36473,4.36473,0,0,1,1.464-.952,4.98957,4.98957,0,0,1,3.6,0,4.36464,4.36464,0,0,1,1.464.952,4.46884,4.46884,0,0,1,.984,1.48,4.99173,4.99173,0,0,1,.36,1.936,4.88534,4.88534,0,0,1-.368,1.936,4.22532,4.22532,0,0,1-.976,1.448,4.30021,4.30021,0,0,1-1.464.92,5.23787,5.23787,0,0,1-3.6,0,4.35869,4.35869,0,0,1-1.464-.912m1.168-3.168a2.19715,2.19715,0,0,0,.616,1.624,2.15852,2.15852,0,0,0,1.592.616,2.34349,2.34349,0,0,0,.88-.16,1.93507,1.93507,0,0,0,.704-.456,2.19272,2.19272,0,0,0,.456-.704,2.58115,2.58115,0,0,0,0-1.832,2.17585,2.17585,0,0,0-.456-.712,1.94562,1.94562,0,0,0-.696-.456,2.4042,2.4042,0,0,0-.888-.16,2.14427,2.14427,0,0,0-1.608.616,2.22868,2.22868,0,0,0-.6,1.624" transform="translate(-51.9455 -71.39207)"/>
          <path class="cls-4" d="M219.72119,154.98051a4.39943,4.39943,0,0,1-.984-1.464,4.92985,4.92985,0,0,1-.36-1.928,4.99173,4.99173,0,0,1,.36-1.936,4.46879,4.46879,0,0,1,.984-1.48,4.36473,4.36473,0,0,1,1.464-.952,4.98957,4.98957,0,0,1,3.6,0,4.36464,4.36464,0,0,1,1.464.952,4.469,4.469,0,0,1,.984,1.48,4.99173,4.99173,0,0,1,.36,1.936,4.88517,4.88517,0,0,1-.368,1.936,4.22515,4.22515,0,0,1-.976,1.448,4.30021,4.30021,0,0,1-1.464.92,5.23787,5.23787,0,0,1-3.6,0,4.35869,4.35869,0,0,1-1.464-.912m1.168-3.168a2.19715,2.19715,0,0,0,.616,1.624,2.15851,2.15851,0,0,0,1.592.616,2.34349,2.34349,0,0,0,.88-.16,1.93507,1.93507,0,0,0,.704-.456,2.19272,2.19272,0,0,0,.456-.704,2.58115,2.58115,0,0,0,0-1.832,2.17585,2.17585,0,0,0-.456-.712,1.94562,1.94562,0,0,0-.696-.456,2.4042,2.4042,0,0,0-.888-.16,2.14427,2.14427,0,0,0-1.608.616,2.22868,2.22868,0,0,0-.6,1.624" transform="translate(-51.9455 -71.39207)"/>
          <path class="cls-4" d="M229.56149,156.0049a.42427.42427,0,0,1-.48-.48l-.192-7.936q-.033-.48.464-.48h1.952a.40731.40731,0,0,1,.448.32v.8a1.93646,1.93646,0,0,1,.472-.609,3.00111,3.00111,0,0,1,.64-.424,2.94849,2.94849,0,0,1,.696-.24,3.27317,3.27317,0,0,1,.656-.071,2.83321,2.83321,0,0,1,1.08.199,2.6316,2.6316,0,0,1,.848.553,3.01669,3.01669,0,0,1,.6.84,4.25262,4.25262,0,0,1,.352,1.048,13.41436,13.41436,0,0,1,.192,1.4c.043.495.064,1,.064,1.512,0,.511-.011,1.029-.032,1.551q-.033.78448-.096,1.521a.68805.68805,0,0,1-.136.359.43479.43479,0,0,1-.344.12h-1.84q-.49651,0-.448-.479.12749-1.377.184-2.608a13.92258,13.92258,0,0,0-.072-2.289,1.37731,1.37731,0,0,0-.456-.919,1.51115,1.51115,0,0,0-1-.312,1.3459,1.3459,0,0,0-1.032.384,1.31159,1.31159,0,0,0-.376.88l-.096,4.88a.42426.42426,0,0,1-.48.48Z" transform="translate(-51.9455 -71.39207)"/>
          <path class="cls-4" d="M245.8653,156.0053c-.288,0-.432-.129-.432-.385v-.736a2.57468,2.57468,0,0,1-1.024.952,3.17985,3.17985,0,0,1-1.552.376,4.40388,4.40388,0,0,1-1.68-.32,3.9181,3.9181,0,0,1-1.36-.92,4.38609,4.38609,0,0,1-.912-1.456,5.23888,5.23888,0,0,1-.336-1.927,5.30841,5.30841,0,0,1,.336-1.937,4.3826,4.3826,0,0,1,.912-1.464,4.00833,4.00833,0,0,1,1.36-.928,4.11574,4.11574,0,0,1,1.68-.312,2.9163,2.9163,0,0,1,.776.104,3.33316,3.33316,0,0,1,.688.272,2.35164,2.35164,0,0,1,.552.408,1.5837,1.5837,0,0,1,.352.512v-.655q-.033-.4815.464-.481h1.952q.46348,0,.464.481l-.192,7.935a.425.425,0,0,1-.48.481Zm-4.064-2.561a2.20354,2.20354,0,0,0,3.048-.008,2.34061,2.34061,0,0,0,.552-1.624,2.38793,2.38793,0,0,0-.536-1.624,2.213,2.213,0,0,0-3.064,0,2.31847,2.31847,0,0,0-.56,1.624,2.34766,2.34766,0,0,0,.56,1.632" transform="translate(-51.9455 -71.39207)"/>
          <path class="cls-4" d="M250.00929,147.3008a.56124.56124,0,0,1-.208-.24.43219.43219,0,0,1-.024-.296.35588.35588,0,0,1,.2-.233,3.20539,3.20539,0,0,0,.384-.231.78216.78216,0,0,0,.304-.36.20722.20722,0,0,0,.008-.184.14131.14131,0,0,0-.136-.072,1.65386,1.65386,0,0,1-.488-.105,1.22827,1.22827,0,0,1-.408-.248,1.16349,1.16349,0,0,1-.28-.391,1.28832,1.28832,0,0,1-.104-.536,1.35,1.35,0,0,1,.448-.993,1.47924,1.47924,0,0,1,1.04-.399,1.37547,1.37547,0,0,1,1.112.464,1.7637,1.7637,0,0,1,.407,1.136,2.73518,2.73518,0,0,1-.479,1.664,2.80349,2.80349,0,0,1-1.408,1.024.441.441,0,0,1-.368,0" transform="translate(-51.9455 -71.39207)"/>
          <path class="cls-4" d="M253.7686,153.5088q.20848-.3525.704-.08c.171.096.365.191.584.288.219.096.45.184.696.264a5.9916,5.9916,0,0,0,.76.192,3.62558,3.62558,0,0,0,.792.056,2.88459,2.88459,0,0,0,1.096-.216.679.679,0,0,0,.425-.488.58136.58136,0,0,0-.145-.504,1.16864,1.16864,0,0,0-.704-.296c-.416-.075-.866-.165-1.352-.273a11.86351,11.86351,0,0,1-1.255-.336,5.54288,5.54288,0,0,1-.841-.376,2.80378,2.80378,0,0,1-.672-.503,2.13861,2.13861,0,0,1-.44-.672,1.92568,1.92568,0,0,1-.127-.88,2.31174,2.31174,0,0,1,.375-1.193,2.945,2.945,0,0,1,.913-.872,4.75365,4.75365,0,0,1,1.288-.544,5.73625,5.73625,0,0,1,1.487-.191,7.59133,7.59133,0,0,1,1.52.136,6.68557,6.68557,0,0,1,1.504.439.38635.38635,0,0,1,.256.545l-.528,1.376a.33694.33694,0,0,1-.224.224.46505.46505,0,0,1-.336-.033,5.44768,5.44768,0,0,0-1.04-.303,4.65587,4.65587,0,0,0-1.152-.08,2.50962,2.50962,0,0,0-.968.216c-.251.123-.387.274-.408.456a.34426.34426,0,0,0,.12.343,1.29112,1.29112,0,0,0,.393.201c.319.095.644.181.975.255q.495.114,1.168.241a5.815,5.815,0,0,1,1.193.36,3.011,3.011,0,0,1,.895.575,2.29225,2.29225,0,0,1,.544.792,2.22315,2.22315,0,0,1,.152.992,2.06774,2.06774,0,0,1-.408,1.105,3.03856,3.03856,0,0,1-.951.815,5.03508,5.03508,0,0,1-1.345.513,6.31585,6.31585,0,0,1-1.568.159,5.4316,5.4316,0,0,1-1-.096,7.98667,7.98667,0,0,1-1.016-.255,6.58456,6.58456,0,0,1-.952-.392,4.5312,4.5312,0,0,1-.792-.504.59512.59512,0,0,1-.232-.337.42562.42562,0,0,1,.072-.304Z" transform="translate(-51.9455 -71.39207)"/>
          <path class="cls-4" d="M266.98441,156.0049a.42356.42356,0,0,1-.479-.48l-.193-11.025a.41677.41677,0,0,1,.464-.479h1.952a.40867.40867,0,0,1,.464.479l-.16,11.025a.42426.42426,0,0,1-.48.48Z" transform="translate(-51.9455 -71.39207)"/>
          <path class="cls-4" d="M271.57709,156.0049a.42427.42427,0,0,1-.48-.48l-.192-7.936c-.021-.32.133-.48.464-.48h1.952a.405.405,0,0,1,.447.32v.8a1.95427,1.95427,0,0,1,.473-.609,3.00118,3.00118,0,0,1,.64-.424,2.94841,2.94841,0,0,1,.696-.24,3.27283,3.27283,0,0,1,.656-.071,2.82074,2.82074,0,0,1,1.079.199,2.61442,2.61442,0,0,1,.849.553,3.03744,3.03744,0,0,1,.6.84,4.25217,4.25217,0,0,1,.352,1.048,13.41429,13.41429,0,0,1,.192,1.4c.043.495.064,1,.064,1.512,0,.511-.011,1.029-.032,1.551q-.033.78448-.096,1.521a.67161.67161,0,0,1-.137.359.431.431,0,0,1-.343.12h-1.84q-.49653,0-.448-.479.12748-1.377.184-2.608a13.92368,13.92368,0,0,0-.072-2.289,1.373,1.373,0,0,0-.456-.919,1.51111,1.51111,0,0,0-1-.312,1.34583,1.34583,0,0,0-1.032.384,1.3117,1.3117,0,0,0-.376.88l-.096,4.88a.42457.42457,0,0,1-.481.48Z" transform="translate(-51.9455 -71.39207)"/>
          <path class="cls-4" d="M287.88058,156.0053c-.288,0-.432-.129-.432-.385v-.736a2.25513,2.25513,0,0,1-1.064.968,3.79129,3.79129,0,0,1-1.672.36,4.22906,4.22906,0,0,1-1.656-.32,3.7312,3.7312,0,0,1-1.312-.92,4.163,4.163,0,0,1-.856-1.456,6.24644,6.24644,0,0,1,0-3.856,4.172,4.172,0,0,1,.856-1.456,3.8175,3.8175,0,0,1,1.312-.928,4.12777,4.12777,0,0,1,1.656-.328,3.37342,3.37342,0,0,1,1.615.36,1.85158,1.85158,0,0,1,.897.904l-.048-4.032c-.021-.32.133-.48.464-.48h2.016q.46348,0,.463.48l-.191,11.344a.425.425,0,0,1-.48.481Zm-4.032-2.561a2.05513,2.05513,0,0,0,1.487.608,2.13411,2.13411,0,0,0,.832-.16,1.83584,1.83584,0,0,0,.657-.456,2.22964,2.22964,0,0,0,.432-.704,2.49381,2.49381,0,0,0,.159-.92,2.30411,2.30411,0,0,0-.567-1.624,1.962,1.962,0,0,0-1.513-.616,2.08985,2.08985,0,0,0-.823.16,1.93742,1.93742,0,0,0-.656.456,2.14214,2.14214,0,0,0-.441.712,2.718,2.718,0,0,0,0,1.832,2.31039,2.31039,0,0,0,.433.712" transform="translate(-51.9455 -71.39207)"/>
          <path class="cls-4" d="M292.90427,154.98051a4.39941,4.39941,0,0,1-.984-1.464,4.91206,4.91206,0,0,1-.361-1.928,4.97367,4.97367,0,0,1,.361-1.936,4.46876,4.46876,0,0,1,.984-1.48,4.35486,4.35486,0,0,1,1.464-.952,4.98957,4.98957,0,0,1,3.6,0,4.36015,4.36015,0,0,1,1.463.952,4.47128,4.47128,0,0,1,.985,1.48,4.99209,4.99209,0,0,1,.36,1.936,4.90261,4.90261,0,0,1-.368,1.936,4.24155,4.24155,0,0,1-.977,1.448,4.29568,4.29568,0,0,1-1.463.92,5.23787,5.23787,0,0,1-3.6,0,4.34889,4.34889,0,0,1-1.464-.912m1.168-3.168a2.19318,2.19318,0,0,0,.616,1.624,2.15528,2.15528,0,0,0,1.592.616,2.34731,2.34731,0,0,0,.88-.16,1.9352,1.9352,0,0,0,.704-.456,2.2099,2.2099,0,0,0,.456-.704,2.58115,2.58115,0,0,0,0-1.832,2.19252,2.19252,0,0,0-.456-.712,1.94579,1.94579,0,0,0-.696-.456,2.408,2.408,0,0,0-.888-.16,2.14432,2.14432,0,0,0-1.608.616,2.2287,2.2287,0,0,0-.6,1.624" transform="translate(-51.9455 -71.39207)"/>
          <path class="cls-4" d="M303.24017,154.98051a4.39953,4.39953,0,0,1-.984-1.464,4.91206,4.91206,0,0,1-.361-1.928,4.97367,4.97367,0,0,1,.361-1.936,4.46889,4.46889,0,0,1,.984-1.48,4.35505,4.35505,0,0,1,1.464-.952,4.98959,4.98959,0,0,1,3.6,0,4.36015,4.36015,0,0,1,1.463.952,4.47128,4.47128,0,0,1,.985,1.48,4.99209,4.99209,0,0,1,.36,1.936,4.90261,4.90261,0,0,1-.368,1.936,4.24155,4.24155,0,0,1-.977,1.448,4.29568,4.29568,0,0,1-1.463.92,5.2379,5.2379,0,0,1-3.6,0,4.34908,4.34908,0,0,1-1.464-.912m1.168-3.168a2.19318,2.19318,0,0,0,.616,1.624,2.15526,2.15526,0,0,0,1.592.616,2.34731,2.34731,0,0,0,.88-.16,1.93528,1.93528,0,0,0,.704-.456,2.21007,2.21007,0,0,0,.456-.704,2.58115,2.58115,0,0,0,0-1.832,2.19269,2.19269,0,0,0-.456-.712,1.94588,1.94588,0,0,0-.696-.456,2.408,2.408,0,0,0-.888-.16,2.14429,2.14429,0,0,0-1.608.616,2.22867,2.22867,0,0,0-.6,1.624" transform="translate(-51.9455 -71.39207)"/>
          <path class="cls-4" d="M313,156.0049a.42427.42427,0,0,1-.48-.48l-.192-7.953c-.021-.32.133-.479.464-.479h1.952a.35978.35978,0,0,1,.432.432v.48a2.36157,2.36157,0,0,1,1.288-.921,4.86474,4.86474,0,0,1,1.8-.199q.48.03152.48.479v1.649a.452.452,0,0,1-.137.359.39677.39677,0,0,1-.343.088,3.71335,3.71335,0,0,0-1.056-.04,3.31911,3.31911,0,0,0-1,.257,2.05753,2.05753,0,0,0-.752.544,1.28736,1.28736,0,0,0-.312.823l-.096,4.481a.42426.42426,0,0,1-.48.48Z" transform="translate(-51.9455 -71.39207)"/>
          <path class="cls-4" d="M324.13458,156.0051a.42386.42386,0,0,1-.479-.481l-.177-10.511a.96752.96752,0,0,1,.305-.825,1.39265,1.39265,0,0,1,.815-.296,9.92785,9.92785,0,0,1,5.801.873,3.91283,3.91283,0,0,1,1.975,3.607,3.74718,3.74718,0,0,1-.408,1.761,3.69418,3.69418,0,0,1-1.183,1.327,5.441,5.441,0,0,1-1.92.808,9.38645,9.38645,0,0,1-2.617.184l-.064,3.072a.42427.42427,0,0,1-.479.481Zm2.048-5.761a6.54181,6.54181,0,0,0,1.416-.023,3.708,3.708,0,0,0,1.112-.313,1.83869,1.83869,0,0,0,.728-.6,1.52508,1.52508,0,0,0,.265-.904,1.61312,1.61312,0,0,0-.256-.912,1.9052,1.9052,0,0,0-.712-.624,3.344,3.344,0,0,0-1.105-.328,5.4263,5.4263,0,0,0-1.416.009Z" transform="translate(-51.9455 -71.39207)"/>
          <path class="cls-4" d="M334.3262,156.0049a.424.424,0,0,1-.479-.48l-.193-11.344c0-.321.154-.481.464-.481h1.952a.40933.40933,0,0,1,.464.481l-.16,11.344a.42386.42386,0,0,1-.48.48Z" transform="translate(-51.9455 -71.39207)"/>
          <path class="cls-4" d="M345.28668,156.0053c-.288,0-.432-.129-.432-.385v-.736a2.57467,2.57467,0,0,1-1.024.952,3.17974,3.17974,0,0,1-1.552.376,4.40762,4.40762,0,0,1-1.68-.32,3.92722,3.92722,0,0,1-1.36-.92,4.38613,4.38613,0,0,1-.912-1.456,5.23888,5.23888,0,0,1-.336-1.927,5.30841,5.30841,0,0,1,.336-1.937,4.38265,4.38265,0,0,1,.912-1.464,4.0179,4.0179,0,0,1,1.36-.928,4.11893,4.11893,0,0,1,1.68-.312,2.916,2.916,0,0,1,.776.104,3.35629,3.35629,0,0,1,.688.272,2.35205,2.35205,0,0,1,.552.408,1.56825,1.56825,0,0,1,.352.512v-.655c-.022-.321.134-.481.464-.481h1.952q.46348,0,.464.481l-.192,7.935a.425.425,0,0,1-.48.481Zm-4.064-2.561a2.20352,2.20352,0,0,0,3.048-.008,2.34056,2.34056,0,0,0,.552-1.624,2.38787,2.38787,0,0,0-.536-1.624,2.213,2.213,0,0,0-3.064,0,2.32305,2.32305,0,0,0-.56,1.624,2.35233,2.35233,0,0,0,.56,1.632" transform="translate(-51.9455 -71.39207)"/>
          <path class="cls-4" d="M349.89551,156.2607a.43716.43716,0,0,1,.672-.128,5.57586,5.57586,0,0,0,1.031.495,3.22169,3.22169,0,0,0,1.177.177,2.73874,2.73874,0,0,0,1.111-.24,2.27574,2.27574,0,0,0,.784-.6,2.36809,2.36809,0,0,0,.456-.889,3.671,3.671,0,0,0,.128-1.103,1.90872,1.90872,0,0,1-.88.912,3.27482,3.27482,0,0,1-1.536.367,3.9679,3.9679,0,0,1-2.431-.687,3.12937,3.12937,0,0,1-1.248-1.952,11.2653,11.2653,0,0,1-.273-2.552q.01647-1.2255.145-2.472a.68.68,0,0,1,.135-.36.43474.43474,0,0,1,.344-.12h1.84q.513,0,.448.48-.12748,1.008-.183,2.008a8.0107,8.0107,0,0,0,.072,1.768,1.55673,1.55673,0,0,0,.624,1.064,1.88324,1.88324,0,0,0,1.151.328,1.71923,1.71923,0,0,0,.664-.129,1.63789,1.63789,0,0,0,.544-.359,1.76849,1.76849,0,0,0,.369-.536,1.484,1.484,0,0,0,.12-.672l-.113-3.472q-.0315-.48.464-.48h1.952a.41707.41707,0,0,1,.464.48l-.143,6.367a6.6609,6.6609,0,0,1-.376,2.097,4.56031,4.56031,0,0,1-.977,1.607,4.25716,4.25716,0,0,1-1.535,1.025,5.10935,5.10935,0,0,1-2.04.328,5.24041,5.24041,0,0,1-1.824-.385,5.178,5.178,0,0,1-1.536-.96.62151.62151,0,0,1-.193-.287.41739.41739,0,0,1,.08-.352Z" transform="translate(-51.9455 -71.39207)"/>
          <path class="cls-4" d="M360.21579,156.0049a.42427.42427,0,0,1-.48-.48l-.192-11.344q-.033-.48152.464-.481h1.951a.48359.48359,0,0,1,.32.105.46267.46267,0,0,1,.128.376l-.047,4.048a2.75326,2.75326,0,0,1,2.511-1.344,2.82594,2.82594,0,0,1,1.08.199,2.62527,2.62527,0,0,1,.849.553,3.05759,3.05759,0,0,1,.6.84,4.20892,4.20892,0,0,1,.351,1.048,13.14238,13.14238,0,0,1,.193,1.4c.043.495.064,1,.064,1.512,0,.511-.011,1.029-.032,1.551q-.033.78448-.096,1.521a.67169.67169,0,0,1-.137.359.431.431,0,0,1-.343.12h-1.84c-.331,0-.481-.16-.448-.479q.126-1.377.184-2.608a13.92479,13.92479,0,0,0-.072-2.289,1.35865,1.35865,0,0,0-.464-.919,1.546,1.546,0,0,0-1.009-.312,1.40152,1.40152,0,0,0-1.048.384,1.28375,1.28375,0,0,0-.391.88l-.048,4.88a.42457.42457,0,0,1-.481.48Z" transform="translate(-51.9455 -71.39207)"/>
          <path class="cls-4" d="M370.48727,154.98051a4.39953,4.39953,0,0,1-.984-1.464,4.91206,4.91206,0,0,1-.361-1.928,4.97367,4.97367,0,0,1,.361-1.936,4.46889,4.46889,0,0,1,.984-1.48,4.35505,4.35505,0,0,1,1.464-.952,4.98959,4.98959,0,0,1,3.6,0,4.36015,4.36015,0,0,1,1.463.952,4.47128,4.47128,0,0,1,.985,1.48,4.99209,4.99209,0,0,1,.36,1.936,4.90261,4.90261,0,0,1-.368,1.936,4.24155,4.24155,0,0,1-.977,1.448,4.29568,4.29568,0,0,1-1.463.92,5.2379,5.2379,0,0,1-3.6,0,4.34908,4.34908,0,0,1-1.464-.912m1.168-3.168a2.19318,2.19318,0,0,0,.616,1.624,2.15526,2.15526,0,0,0,1.592.616,2.34731,2.34731,0,0,0,.88-.16,1.93528,1.93528,0,0,0,.704-.456,2.2099,2.2099,0,0,0,.456-.704,2.58115,2.58115,0,0,0,0-1.832,2.19252,2.19252,0,0,0-.456-.712,1.94588,1.94588,0,0,0-.696-.456,2.408,2.408,0,0,0-.888-.16,2.14429,2.14429,0,0,0-1.608.616,2.22871,2.22871,0,0,0-.6,1.624" transform="translate(-51.9455 -71.39207)"/>
          <path class="cls-4" d="M385.751,156.0049a.42427.42427,0,0,1-.48-.48l-.016-.497a2.19623,2.19623,0,0,1-.864.857,3.013,3.013,0,0,1-1.52.344,2.94563,2.94563,0,0,1-2.008-.752,3.13136,3.13136,0,0,1-.656-.84,3.70379,3.70379,0,0,1-.376-1.048,13.19544,13.19544,0,0,1-.192-1.4q-.063-.744-.064-1.512c0-.513.01-1.029.032-1.553q.0315-.783.096-1.519a.6889.6889,0,0,1,.136-.361.432.432,0,0,1,.344-.12h1.839c.332,0,.481.16.449.481q-.12749,1.3755-.184,2.607a13.68482,13.68482,0,0,0,.072,2.288,1.3691,1.3691,0,0,0,.456.92,1.51515,1.51515,0,0,0,1,.313,1.32371,1.32371,0,0,0,1-.409,1.29357,1.29357,0,0,0,.376-.967l-.112-4.752c0-.321.154-.481.464-.481h1.952a.40933.40933,0,0,1,.464.481l-.16,7.92a.42426.42426,0,0,1-.48.48Z" transform="translate(-51.9455 -71.39207)"/>
          <path class="cls-4" d="M389.79791,153.5088q.20847-.3525.704-.08c.171.096.365.191.584.288q.32848.144.696.264a6.034,6.034,0,0,0,.76.192,3.62522,3.62522,0,0,0,.792.056,2.89493,2.89493,0,0,0,1.097-.216.67949.67949,0,0,0,.424-.488.57846.57846,0,0,0-.145-.504,1.16866,1.16866,0,0,0-.704-.296c-.415-.075-.866-.165-1.352-.273a11.86225,11.86225,0,0,1-1.255-.336,5.48665,5.48665,0,0,1-.84-.376,2.78472,2.78472,0,0,1-.672-.503,2.12418,2.12418,0,0,1-.441-.672,1.93957,1.93957,0,0,1-.127-.88,2.321,2.321,0,0,1,.375-1.193,2.945,2.945,0,0,1,.913-.872,4.75338,4.75338,0,0,1,1.288-.544,5.73844,5.73844,0,0,1,1.488-.191,7.58815,7.58815,0,0,1,1.519.136,6.685,6.685,0,0,1,1.504.439.38632.38632,0,0,1,.256.545l-.527,1.376a.34027.34027,0,0,1-.225.224.46514.46514,0,0,1-.336-.033,5.44725,5.44725,0,0,0-1.04-.303,4.648,4.648,0,0,0-1.151-.08,2.51045,2.51045,0,0,0-.969.216c-.25.123-.387.274-.408.456a.34426.34426,0,0,0,.12.343,1.29147,1.29147,0,0,0,.393.201c.319.095.645.181.975.255q.49648.114,1.168.241a5.81515,5.81515,0,0,1,1.193.36,3.01182,3.01182,0,0,1,.895.575,2.2916,2.2916,0,0,1,.544.792,2.22245,2.22245,0,0,1,.152.992,2.06763,2.06763,0,0,1-.408,1.105,3.04269,3.04269,0,0,1-.952.815,5.0155,5.0155,0,0,1-1.344.513,6.30259,6.30259,0,0,1-1.567.159,5.41538,5.41538,0,0,1-1-.096,8.00127,8.00127,0,0,1-1.017-.255,6.631,6.631,0,0,1-.952-.392,4.56792,4.56792,0,0,1-.792-.504.58782.58782,0,0,1-.231-.337.42.42,0,0,1,.071-.304Z" transform="translate(-51.9455 -71.39207)"/>
          <path class="cls-4" d="M401.17407,152.6928a1.59026,1.59026,0,0,0,.736,1.08,2.57716,2.57716,0,0,0,1.472.376,5.05824,5.05824,0,0,0,1.169-.153,3.65089,3.65089,0,0,0,.96-.407q.495-.273.719.064l.56.784a.499.499,0,0,1,.088.311.51841.51841,0,0,1-.199.345,4.74452,4.74452,0,0,1-1.544.848,6.3329,6.3329,0,0,1-1.945.271,5.51894,5.51894,0,0,1-1.912-.319,4.41978,4.41978,0,0,1-1.512-.92,4.13651,4.13651,0,0,1-.992-1.456,5.04459,5.04459,0,0,1-.352-1.928,5.19959,5.19959,0,0,1,.344-1.936,4.34578,4.34578,0,0,1,.953-1.48,4.20124,4.20124,0,0,1,1.439-.952,4.72208,4.72208,0,0,1,1.792-.336,5.18362,5.18362,0,0,1,1.848.311,3.87954,3.87954,0,0,1,2.288,2.216,4.91162,4.91162,0,0,1,.345,1.681,1.57776,1.57776,0,0,1-.313,1.023,1.23533,1.23533,0,0,1-1.016.449Zm3.904-2.144a1.56122,1.56122,0,0,0-.672-1.072,2.12719,2.12719,0,0,0-1.376-.384,2.0234,2.0234,0,0,0-1.36.496,1.78512,1.78512,0,0,0-.575,1.119Z" transform="translate(-51.9455 -71.39207)"/>
          <path class="cls-4" d="M86.6675,118.0479a1.61977,1.61977,0,0,1,.756,1.216,2.28128,2.28128,0,0,1-.432,1.268,16.178,16.178,0,0,1-6.399,5.805,19.8631,19.8631,0,0,1-8.937,1.917,20.5288,20.5288,0,0,1-7.992-1.512,18.05025,18.05025,0,0,1-6.21-4.239,19.49689,19.49689,0,0,1-4.05-6.507,23.0739,23.0739,0,0,1-1.458-8.369,24.15052,24.15052,0,0,1,1.431-8.452,20.45979,20.45979,0,0,1,3.996-6.695,18.18449,18.18449,0,0,1,13.743-6.021,23.0185,23.0185,0,0,1,5.238.567,18.66347,18.66347,0,0,1,4.401,1.593,17.71162,17.71162,0,0,1,3.537,2.403,16.03863,16.03863,0,0,1,2.7,3.05,1.80251,1.80251,0,0,1,.351,1.135,1.53329,1.53329,0,0,1-.567,1.08l-4.968,3.887a2.01793,2.01793,0,0,1-1.215.459,1.34615,1.34615,0,0,1-1.161-.621,10.89325,10.89325,0,0,0-3.105-2.646,9.57184,9.57184,0,0,0-4.833-1.079,8.67208,8.67208,0,0,0-3.834.864,9.5588,9.5588,0,0,0-3.105,2.402,11.6384,11.6384,0,0,0-2.106,3.754,14.48618,14.48618,0,0,0-.783,4.86,13.426,13.426,0,0,0,.81,4.751,10.96129,10.96129,0,0,0,2.214,3.672,9.90823,9.90823,0,0,0,7.344,3.187,11.25859,11.25859,0,0,0,4.86-.973,10.537,10.537,0,0,0,3.618-2.861,1.71093,1.71093,0,0,1,2.538-.325Z" transform="translate(-51.9455 -71.39207)"/>
          <path class="cls-4" d="M92.9312,127.7139a1.43189,1.43189,0,0,1-1.62-1.62l-.648-37.205a1.40812,1.40812,0,0,1,1.566-1.62h6.804a1.38084,1.38084,0,0,1,1.566,1.62l-.216,13.554h13.77l-.216-13.554a1.40852,1.40852,0,0,1,1.566-1.62h6.804a1.38084,1.38084,0,0,1,1.566,1.62l-.54,37.205a1.43189,1.43189,0,0,1-1.62,1.62h-5.508a1.43189,1.43189,0,0,1-1.62-1.62l-.27-15.389-14.04-.054-.216,15.443a1.43189,1.43189,0,0,1-1.62,1.62Z" transform="translate(-51.9455 -71.39207)"/>
          <path class="cls-4" d="M127.86889,126.14841q-1.7295-.594-.972-2.431,1.728-3.9945,3.564-8.369,1.836-4.374,3.645-8.883,1.809-4.50751,3.645-8.937,1.8345-4.42649,3.564-8.478.378-.86253.621-1.323.243-.459,1.107-.459h6.048a1.2839,1.2839,0,0,1,1.161.459,5.65646,5.65646,0,0,1,.567,1.323q3.564,8.154,7.047,16.74t7.371,18.036q.756,1.8345-.972,2.429l-5.076,1.458a1.667,1.667,0,0,1-2.376-.971q-.91949-2.10752-1.836-4.347-.91949-2.241-1.836-4.671l-13.176-.054q-.918,2.43-1.809,4.698-.891,2.26649-1.809,4.427a1.58952,1.58952,0,0,1-2.376.973Zm22.032-16.686-3.564-9.018q-.81,2.268-1.62,4.509t-1.674,4.509Z" transform="translate(-51.9455 -71.39207)"/>
          <path class="cls-4" d="M170.47411,127.7139a1.43189,1.43189,0,0,1-1.62-1.62l-.648-37.205a1.40811,1.40811,0,0,1,1.566-1.62h6.804a1.38085,1.38085,0,0,1,1.566,1.62l-.216,14.796,13.716-16.578a6.83722,6.83722,0,0,1,1.107-1.081,1.06136,1.06136,0,0,1,1.269.108l5.346,3.997a1.50786,1.50786,0,0,1,.81,1.053,1.1979,1.1979,0,0,1-.378.999l-11.772,12.798,12.204,17.603q.54.7575.135,1.242a5.46864,5.46864,0,0,1-1.107.972l-4.374,3.187a1.3237,1.3237,0,0,1-1.242-.054,6.80787,6.80787,0,0,1-1.026-1.027l-10.962-15.011-3.942,4.212-.108,9.989a1.43189,1.43189,0,0,1-1.62,1.62Z" transform="translate(-51.9455 -71.39207)"/>
          <path class="cls-4" d="M202.22578,126.14841q-1.7295-.594-.972-2.431,1.728-3.9945,3.564-8.369,1.836-4.374,3.645-8.883,1.809-4.50751,3.645-8.937,1.83452-4.42649,3.564-8.478.378-.86253.621-1.323.243-.459,1.107-.459h6.048a1.28392,1.28392,0,0,1,1.161.459,5.65646,5.65646,0,0,1,.567,1.323q3.564,8.154,7.047,16.74t7.371,18.036q.756,1.8345-.972,2.429l-5.076,1.458a1.667,1.667,0,0,1-2.376-.971q-.91949-2.10752-1.836-4.347-.9195-2.241-1.836-4.671l-13.176-.054q-.918,2.43-1.809,4.698-.891,2.26649-1.809,4.427a1.58953,1.58953,0,0,1-2.376.973Zm22.032-16.686-3.564-9.018q-.81,2.268-1.62,4.509t-1.674,4.509Z" transform="translate(-51.9455 -71.39207)"/>
          <path class="cls-4" d="M244.8311,127.6602a1.43189,1.43189,0,0,1-1.62-1.62l-.648-37.151q0-1.6215,1.566-1.621h5.508a2.61269,2.61269,0,0,1,1.512.486,4.2344,4.2344,0,0,1,1.134,1.135l14.958,23.003V89.0502a1.40808,1.40808,0,0,1,1.567-1.619h6.587a1.37979,1.37979,0,0,1,1.566,1.619l-1.188,37.152q-.108,1.62-1.62,1.62h-5.183a2.87084,2.87084,0,0,1-1.458-.405,3.34343,3.34343,0,0,1-1.189-1.215l-14.202-22.464-.378,22.302a1.43188,1.43188,0,0,1-1.62,1.62Z" transform="translate(-51.9455 -71.39207)"/>
          <path class="cls-4" d="M304.66309,127.7139a1.4319,1.4319,0,0,1-1.62-1.62l-.486-30.509-9.882-.055a1.76721,1.76721,0,0,1-1.891-1.889v-4.428a1.77011,1.77011,0,0,1,1.891-1.891l29.322-.053a1.76574,1.76574,0,0,1,1.89,1.889v4.429a1.76719,1.76719,0,0,1-1.89,1.89l-9.883.108-.54,30.509a1.43158,1.43158,0,0,1-1.619,1.62Z" transform="translate(-51.9455 -71.39207)"/>
          <path class="cls-4" d="M335.11929,126.742a17.72051,17.72051,0,0,1-6.129-4.265,19.2848,19.2848,0,0,1-3.969-6.562,24.07548,24.07548,0,0,1-1.404-8.396,24.54561,24.54561,0,0,1,1.404-8.452,19.79076,19.79076,0,0,1,3.969-6.669,18.03033,18.03033,0,0,1,6.129-4.374,20.77714,20.77714,0,0,1,15.822,0,17.77128,17.77128,0,0,1,6.102,4.374,20.07968,20.07968,0,0,1,3.942,6.669,24.56861,24.56861,0,0,1,1.403,8.452,24.098,24.098,0,0,1-1.403,8.396,19.562,19.562,0,0,1-3.942,6.562,17.46647,17.46647,0,0,1-6.102,4.265,21.45138,21.45138,0,0,1-15.822,0m1.242-9.99a9.67693,9.67693,0,0,0,3.267,2.241,9.98134,9.98134,0,0,0,3.915.783,10.12031,10.12031,0,0,0,3.887-.755,9.96121,9.96121,0,0,0,3.241-2.295,11.0305,11.0305,0,0,0,2.241-3.673,15.31978,15.31978,0,0,0,0-9.989,11.34685,11.34685,0,0,0-2.241-3.7,9.478,9.478,0,0,0-3.241-2.295,9.81607,9.81607,0,0,0-3.887-.782,10.15216,10.15216,0,0,0-3.969.782,9.13443,9.13443,0,0,0-3.24,2.295,11.20893,11.20893,0,0,0-2.187,3.7,15.80317,15.80317,0,0,0,0,9.989,10.92161,10.92161,0,0,0,2.214,3.699" transform="translate(-51.9455 -71.39207)"/>
          <path class="cls-4" d="M368.97659,127.7139a1.4319,1.4319,0,0,1-1.62-1.62l-.648-37.205a1.40851,1.40851,0,0,1,1.566-1.62h6.805a1.38018,1.38018,0,0,1,1.565,1.62l-.216,14.796,13.716-16.578a6.79663,6.79663,0,0,1,1.107-1.081,1.06133,1.06133,0,0,1,1.269.108l5.347,3.997a1.50887,1.50887,0,0,1,.809,1.053,1.20091,1.20091,0,0,1-.378.999l-11.772,12.798,12.204,17.603q.53847.7575.136,1.242a5.50418,5.50418,0,0,1-1.108.972l-4.374,3.187a1.32372,1.32372,0,0,1-1.242-.054,6.80978,6.80978,0,0,1-1.025-1.027l-10.963-15.011-3.942,4.212-.108,9.989a1.43189,1.43189,0,0,1-1.62,1.62Z" transform="translate(-51.9455 -71.39207)"/>
          <path class="cls-4" d="M404.4541,127.7139a1.4319,1.4319,0,0,1-1.62-1.62l-.648-37.205a1.40851,1.40851,0,0,1,1.566-1.62h6.805a1.38018,1.38018,0,0,1,1.565,1.62l-.216,14.796,13.716-16.578a6.79623,6.79623,0,0,1,1.107-1.081,1.06133,1.06133,0,0,1,1.269.108l5.347,3.997a1.50887,1.50887,0,0,1,.809,1.053,1.20091,1.20091,0,0,1-.378.999l-11.772,12.798,12.204,17.603q.53847.7575.136,1.242a5.504,5.504,0,0,1-1.108.972l-4.374,3.187a1.32372,1.32372,0,0,1-1.242-.054,6.80978,6.80978,0,0,1-1.025-1.027l-10.963-15.011-3.942,4.212-.108,9.989a1.43189,1.43189,0,0,1-1.62,1.62Z" transform="translate(-51.9455 -71.39207)"/>
          <path class="cls-4" d="M439.93161,127.7139a1.4319,1.4319,0,0,1-1.62-1.62l-.648-37.205a1.40851,1.40851,0,0,1,1.566-1.62h6.588a1.38122,1.38122,0,0,1,1.566,1.62l-.54,37.205a1.4319,1.4319,0,0,1-1.62,1.62Z" transform="translate(-51.9455 -71.39207)"/>
          <path class="cls-4" d="M339.55759,95.2153h0a3.387,3.387,0,0,1-3.376-3.376v-5.968a3.376,3.376,0,1,1,6.752,0v5.968a3.38629,3.38629,0,0,1-3.376,3.376" transform="translate(-51.9455 -71.39207)"/>
          <path class="cls-4" d="M347.76169,95.2153h0a3.3863,3.3863,0,0,1-3.376-3.376v-5.968a3.376,3.376,0,1,1,6.752,0v5.968a3.38694,3.38694,0,0,1-3.376,3.376" transform="translate(-51.9455 -71.39207)"/>
        </g>
      </g>
    </g>
  </g>
</svg>
