<svg xmlns="http://www.w3.org/2000/svg" width="24.23921" height="27.41901" viewBox="0 0 24.23921 27.41901">
  <defs>
    <style>
      .cls-1 {
        fill: #ffd967;
      }

      .cls-2 {
        fill: #31cbff;
      }

      .cls-3 {
        fill: #ff8e68;
      }

      .cls-4 {
        fill: #333;
      }
    </style>
  </defs>
  <title>Asset 2</title>
  <g id="Layer_2" data-name="Layer 2">
    <g id="Layer_1-2" data-name="Layer 1">
      <path class="cls-1" d="M4.34484,3.642c2.532-.444,5.112,2.191,5.758,5.881.644,3.689-.886,7.043-3.416,7.485-2.532.444-5.112-2.19-5.758-5.879S1.81484,4.084,4.34484,3.642Z"/>
      <path class="cls-2" d="M20.94985,6.59c1.925.479,2.922,3.143,2.223,5.948-.697,2.805-2.824,4.693-4.751,4.214-1.925-.479-2.922-3.143-2.222-5.948C16.89684,7.998,19.02584,6.111,20.94985,6.59Z"/>
      <path class="cls-3" d="M12.25684.862c3.153,0,5.712,3.73,5.712,8.325,0,4.597-2.559,8.329-5.712,8.329-3.155,0-5.715-3.732-5.715-8.329C6.54185,4.592,9.10285.862,12.25684.862Z"/>
      <path class="cls-1" d="M6.54185,17.466l-.449,2.127,2.239-.604Z"/>
      <path class="cls-3" d="M12.14284,18.048l-1.086,1.883,2.316.121Z"/>
      <path class="cls-2" d="M18.22785,17.381l-1.609,1.461,2.168.822Z"/>
      <path class="cls-4" d="M12.95385,27.419a.52851.52851,0,0,1-.373-.905,2.07417,2.07417,0,0,1,.224-.187c.073-.054.165-.122.246-.181a4.5962,4.5962,0,0,0,.499-.407,1.03613,1.03613,0,0,0,.262-.353.14849.14849,0,0,0-.025-.157,23.49,23.49,0,0,0-1.982-1.967,2.32531,2.32531,0,0,1-.65-1.392,2.05939,2.05939,0,0,1,.14-.867l.181-.374-.552.013a.53.53,0,0,1-.452-.825l1.215-1.82-.427-.035a5.398,5.398,0,0,1-2.33-1.041l-.267-.228-.312.253c-.132.091-.265.175-.405.253l-.27.13,1.459,1.279a.52982.52982,0,0,1-.221.914l-.695.17-.012.079a1.50394,1.50394,0,0,0-.049,1.145,2.15728,2.15728,0,0,0,.666.764,8.43194,8.43194,0,0,1,1.031.881,1.95359,1.95359,0,0,1,.553,1.505.53073.53073,0,0,1-1.059-.072.91114.91114,0,0,0-.28-.72,8.56949,8.56949,0,0,0-.913-.769,3.18089,3.18089,0,0,1-.972-1.166,2.17144,2.17144,0,0,1-.177-.882l.049-.483-.923.226a.54038.54038,0,0,1-.147.015.5304.5304,0,0,1-.488-.677l.53-1.825-.015.002c-2.848.042-5.333-2.861-5.896-6.51-.599-3.87,1.15-7.64,4.216-8.113a4.21722,4.21722,0,0,1,2.262.285l.307.153.095-.181A6.06739,6.06739,0,0,1,12.12385,0c2.821,0,5.108,2.35,6.077,5.567l.147.567.11-.071a3.60411,3.60411,0,0,1,2.289-.383c2.534.437,3.921,3.561,3.374,6.731-.499,2.89-2.473,5.189-4.744,5.26h-.155l.511,1.76a.531.531,0,0,1-.488.678.485.485,0,0,1-.148-.017l-.946-.231-.202.189a1.05472,1.05472,0,0,0-.133.353,8.25274,8.25274,0,0,0-.105,1.142,2.86047,2.86047,0,0,1-.356,1.363,1.8753,1.8753,0,0,1-1.508.815.53027.53027,0,0,1-.098-1.056.83275.83275,0,0,0,.71-.329,1.85141,1.85141,0,0,0,.196-.865,8.21421,8.21421,0,0,1,.125-1.304,2.58521,2.58521,0,0,1,.106-.353l.118-.234-.683-.167a.52965.52965,0,0,1-.223-.913l1.468-1.287-.152-.089a4.061,4.061,0,0,1-.86-.751l-.272-.356-.417.435a5.61943,5.61943,0,0,1-2.706,1.473l-.047.01,1.113,1.834a.53086.53086,0,0,1-.442.805l-1.051.024-.079.164a1.58541,1.58541,0,0,0-.44,1.041,1.29664,1.29664,0,0,0,.385.756,18.77866,18.77866,0,0,1,2.072,2.082,1.20237,1.20237,0,0,1,.145,1.088,2.04354,2.04354,0,0,1-.525.768,5.65711,5.65711,0,0,1-.612.504c-.238.174-.314.229-.346.261A.53378.53378,0,0,1,12.95385,27.419Zm-1.034-7.858.923-.02-.432-.714Zm-5.145-.607.898-.219-.666-.58Zm11.685-.105-.233-.803-.665.584Zm-6.334-1.873c2.91,0,5.513-3.431,5.513-7.953,0-4.548-2.622-7.958-5.513-7.958-2.915,0-5.516,3.433-5.516,7.958C6.60885,13.565,9.23084,16.976,12.12585,16.976Zm-6.126-.323a3.05935,3.05935,0,0,0,.427-.034,3.09521,3.09521,0,0,0,1.317-.542l.157-.125-.015-.019a10.66728,10.66728,0,0,1-2.34-6.91,11.82578,11.82578,0,0,1,.764-4.229l.133-.31-.248-.125a3.17668,3.17668,0,0,0-1.697-.219c-2.24.347-3.885,3.33-3.332,6.903C1.68784,14.414,3.87484,16.673,5.99984,16.653Zm13.198-.041a2.05839,2.05839,0,0,0,.332-.017c1.555-.179,3.116-1.868,3.546-4.363.496-2.87-.769-5.206-2.509-5.506a2.57091,2.57091,0,0,0-1.623.282l-.373.24.094.874c.024.299.035.599.035.902a11.33078,11.33078,0,0,1-1.454,5.667l-.275.429.268.425a2.62634,2.62634,0,0,0,1.626,1.034A2.20994,2.20994,0,0,0,19.19785,16.612Zm-16.68-7.074a.52754.52754,0,0,1-.528-.474,4.327,4.327,0,0,1,.354-2.121,2.63469,2.63469,0,0,1,1.292-1.442.53007.53007,0,0,1,.392.985,1.66023,1.66023,0,0,0-.714.882,3.23786,3.23786,0,0,0-.268,1.584.5225.5225,0,0,1-.528.586Zm6.18-3.034a.493.493,0,0,1-.106-.015.53172.53172,0,0,1-.395-.638,5.06583,5.06583,0,0,1,1.211-2.207,3.051,3.051,0,0,1,1.957-1.085.52424.52424,0,0,1,.55.506.53.53,0,0,1-.508.552,2.07976,2.07976,0,0,0-1.225.751,3.9997,3.9997,0,0,0-.953,1.726A.53015.53015,0,0,1,8.69785,6.504Z"/>
    </g>
  </g>
</svg>
