<svg xmlns="http://www.w3.org/2000/svg" width="30.24244" height="28.36405" viewBox="0 0 30.24244 28.36405">
  <defs>
    <style>
      .cls-1 {
        fill: #ff7c5b;
      }

      .cls-2 {
        fill: #b4d74c;
      }

      .cls-3 {
        fill: #ffd967;
      }

      .cls-4 {
        fill: #87d8f3;
      }

      .cls-5 {
        fill: #333;
      }
    </style>
  </defs>
  <title>Asset 3</title>
  <g id="Layer_2" data-name="Layer 2">
    <g id="Layer_1-2" data-name="Layer 1">
      <path class="cls-1" d="M4.50324,1.9759l-3.657,3.565,2.156.422.563,2.579,3.985-3.799Z"/>
      <path class="cls-2" d="M21.35824,8.91791l.869,5.032,1.567-1.54,2.446.995-.877-5.436Z"/>
      <path class="cls-3" d="M14.93724,8.1439l-.67,5.063,1.957,1.102,2.036-.427.781-5.449Z"/>
      <path class="cls-4" d="M9.00224,5.8229l-2.345,4.536,3.941,1.933,2.168-4.808Z"/>
      <path class="cls-1" d="M4.52724,20.8249l-1.059,4.995,2.028-.847,1.901,1.83,1.203-5.371Z"/>
      <path class="cls-2" d="M23.23924,19.6319l2.978,4.15.739-2.072,2.633-.17-3.16-4.508Z"/>
      <path class="cls-3" d="M10.71824,21.90491l.017,5.107,2.087.828,1.96-.695.042-5.506Z"/>
      <path class="cls-4" d="M17.21424,21.74791l1.495,4.882,4.17-1.372-1.812-4.953Z"/>
      <path class="cls-5" d="M13.02724,28.36391a.4621.4621,0,0,1-.233-.057l-2.389-1.307a.461.461,0,0,1-.24-.422l.172-4.518-.105-.005-1.181-.16-1.044,5.034a.46085.46085,0,0,1-.452.368.44292.44292,0,0,1-.342-.152l-1.618-1.78-2.389,1.027a.46135.46135,0,0,1-.631-.533l1.269-5.162-.098-.032q-.618-.2175-1.218-.471a.46208.46208,0,1,1,.358-.852c.469.197.946.38,1.432.545l.17.052h.017l.012.008,1.277.391c6.977,1.896,15.06.779,19.669-3.288l.353-.329.089-.115.081-.046.007-.005a11.36882,11.36882,0,0,0,.953-1.073.4616.4616,0,0,1,.727.569c-.197.251-.403.496-.619.73l-.209.211,3.286,3.831a.46236.46236,0,0,1-.316.761l-2.396.194-.646,2.52a.46185.46185,0,0,1-.472.346.45323.45323,0,0,1-.336-.174l-3.494-4.386-.204.101-.503.196,1.744,5.02a.462.462,0,0,1-.278.585l-4.334,1.582a.461.461,0,0,1-.599-.299l-1.674-5.452-.973.15.018.096.032,4.454a.46693.46693,0,0,1-.219.395l-2.225,1.38A.42711.42711,0,0,1,13.02724,28.36391Zm-.025-.995,1.775-1.102-.029-4.194.005-.024-1.851.106-1.641-.062-.16,4.234Zm6.036-.832,3.45-1.26-1.584-4.56-.803.312a21.75437,21.75437,0,0,1-2.308.609l-.246.039Zm-11.75-.685.847-4.083-.552-.076a25.92653,25.92653,0,0,1-2.584-.621l-.273-.089-1.031,4.194,1.84-.791a.46455.46455,0,0,1,.525.113Zm18.822-2.68.498-1.942a.45689.45689,0,0,1,.41-.344l1.822-.147-2.659-3.099-.533.467a15.27526,15.27526,0,0,1-1.603,1.134l-.732.418Zm-8.589-4.179a1.4465,1.4465,0,1,1,1.446-1.446A1.44634,1.44634,0,0,1,17.52124,18.9929Zm-10.25-.393a2.25451,2.25451,0,1,1,2.255-2.254A2.25381,2.25381,0,0,1,7.27124,18.5999Zm10.25-.53a.523.523,0,1,0-.523-.523A.52344.52344,0,0,0,17.52124,18.0699Zm-10.25-.393a1.331,1.331,0,1,0-1.331-1.331A1.3324,1.3324,0,0,0,7.27124,17.67691Zm9.037-2.944a.45178.45178,0,0,1-.339-.1l-2.038-1.643a.45961.45961,0,0,1-.167-.42l.58-4.415.032-.093-.319-.071-.638-.177-2.326,5.181a.45965.45965,0,0,1-.449.272.42228.42228,0,0,1-.182-.051l-4.104-2.107a.46126.46126,0,0,1-.204-.614l2.343-4.749-.293-.17-.358-.234-4.013,3.926a.45218.45218,0,0,1-.356.13.4596.4596,0,0,1-.427-.402l-.327-2.583-2.355-.488a.46219.46219,0,0,1-.218-.793l3.73-3.391-.064-.083c-.226-.311-.439-.629-.636-.958a.46245.46245,0,0,1,.793-.476,11.46072,11.46072,0,0,0,.813,1.181l.008.012.071.051.072.12.31.374c4.651,5.263,14.287,7.268,22.122,5.073a.4627.4627,0,0,1,.25.891l-1.407.337.621,5.576a.46135.46135,0,0,1-.693.449l-2.237-1.331-1.834,1.555a.46236.46236,0,0,1-.236.106.4175.4175,0,0,1-.093.003.45846.45846,0,0,1-.43-.427l-.402-5.368-.272.007-.997-.034-.39,4.513a.45983.45983,0,0,1-.29.39l-2.532,1.002A.443.443,0,0,1,16.30824,14.73291Zm.031-.987,2.016-.796.363-4.199-1.414-.137q-.828-.1065-1.64-.261l-.405-.091.002.014-.548,4.158Zm5.825-.524,1.394-1.183a.46463.46463,0,0,1,.535-.046l1.722,1.026-.513-4.583-1.115.182c-.585.076-1.176.132-1.768.167l-.587.017Zm-11.713-1.049,2.078-4.631-.032-.01a21.81821,21.81821,0,0,1-2.939-1.208l-.251-.132-2.122,4.304Zm-6.599-4.216,3.212-3.14-.832-.631a14.47987,14.47987,0,0,1-1.69-1.628l-.081-.096-3.016,2.743,1.79.371a.46253.46253,0,0,1,.364.393Zm17.825-2.101a2.255,2.255,0,1,1,2.255-2.254A2.25509,2.25509,0,0,1,21.67724,5.85589Zm0-.922a1.331,1.331,0,1,0-1.331-1.331A1.3324,1.3324,0,0,0,21.67724,4.9339Zm-8.957-1.271a1.447,1.447,0,1,1,1.446-1.446A1.44634,1.44634,0,0,1,12.72024,3.6629Zm0-.923a.523.523,0,1,0-.525-.523A.52408.52408,0,0,0,12.72024,2.7399Z"/>
    </g>
  </g>
</svg>
