<svg xmlns="http://www.w3.org/2000/svg" width="28.29118" height="27.65425" viewBox="0 0 28.29118 27.65425">
  <defs>
    <style>
      .cls-1 {
        fill: #ffd967;
      }

      .cls-2 {
        fill: #56d5ff;
      }

      .cls-3 {
        fill: #ff916c;
      }

      .cls-4 {
        fill: #b4d74c;
      }

      .cls-5 {
        fill: #333;
      }
    </style>
  </defs>
  <title>p-3</title>
  <g id="Layer_2" data-name="Layer 2">
    <g id="Layer_1-2" data-name="Layer 1">
      <path class="cls-1" d="M22.088,9.99423l.639-.793a1.65273,1.65273,0,0,1,1.257-.538l1.016.078c.423.034.58-.229.349-.585l-.555-.855a1.63782,1.63782,0,0,1-.125-1.36l.388-.943c.164-.391-.039-.622-.449-.513l-.987.265a1.64052,1.64052,0,0,1-1.331-.302l-.776-.663c-.322-.275-.604-.155-.626.27l-.054,1.019a1.64841,1.64841,0,0,1-.698,1.174l-.869.531c-.363.224-.334.528.062.682l.951.364a1.65313,1.65313,0,0,1,.901,1.027l.24.99C21.522,10.25624,21.82,10.32524,22.088,9.99423Z"/>
      <path class="cls-2" d="M8.606,6.07724l.547-.678a1.40767,1.40767,0,0,1,1.073-.459l.867.068c.363.029.498-.197.299-.501l-.474-.732a1.40181,1.40181,0,0,1-.106-1.161l.332-.805c.138-.336-.034-.533-.385-.44l-.842.226a1.40671,1.40671,0,0,1-1.139-.256l-.663-.567c-.277-.236-.516-.132-.535.231l-.046.869a1.41017,1.41017,0,0,1-.597,1.004l-.742.455c-.309.191-.285.451.054.582l.813.31a1.41543,1.41543,0,0,1,.769.877l.204.847C8.122,6.30223,8.375,6.35923,8.606,6.07724Z"/>
      <path class="cls-3" d="M24.641,23.56624l.548-.676a1.40324,1.40324,0,0,1,1.071-.461l.869.067c.363.029.496-.197.299-.501l-.474-.732a1.39432,1.39432,0,0,1-.106-1.161l.331-.805c.14-.336-.032-.533-.383-.439l-.842.226a1.41062,1.41062,0,0,1-1.139-.258l-.663-.567c-.277-.234-.516-.132-.535.231l-.047.871a1.405,1.405,0,0,1-.596,1.004l-.742.454c-.31.191-.285.45.054.582l.811.312a1.40845,1.40845,0,0,1,.771.877l.204.847C24.157,23.79124,24.411,23.84823,24.641,23.56624Z"/>
      <path class="cls-4" d="M4.947,16.35623a19.80647,19.80647,0,0,0,6.611,6.891l-3.516,1.314a11.74043,11.74043,0,0,1-3.892-6.566Z"/>
      <path class="cls-4" d="M2.369,22.54423l-1.547,4.548,3.563-1.547Z"/>
      <path class="cls-5" d="M.473,27.65423a.47085.47085,0,0,1-.437-.648l2.035-4.939v-.002h0l2.692-6.539a.49967.49967,0,0,1,.061-.108l.027-.034a.96746.96746,0,0,1,.263-.223c.675-.381,1.707.142,2.493.65a14.48457,14.48457,0,0,1,1.436,1.078l.967.901,8.295-7.73a.46839.46839,0,1,1,.639.685l-8.261,7.699.413.444c1.441,1.621,2.868,3.794,1.673,4.825a.4874.4874,0,0,1-.164.091l-4.207,1.341-.024.02a.44337.44337,0,0,1-.172.051l-.017-.002-7.573,2.416A.457.457,0,0,1,.473,27.65423Zm.815-1.223,2.657-.849-.921-1.232q-.21-.321-.391-.653l-.12-.243Zm3.657-1.167,2.281-.727-.16-.145a10.50851,10.50851,0,0,1-2.736-4.256l-.179-.658-1.145,2.784.148.383.142.299a9.45062,9.45062,0,0,0,1.132,1.743l.224.268Zm19.611-1.011a.72433.72433,0,0,1-.628-.396,1.06929,1.06929,0,0,1-.106-.28l-.208-.874a.9946.9946,0,0,0-.501-.572l-.837-.322a1.11476,1.11476,0,0,1-.263-.142.71624.71624,0,0,1-.098-1.107,1.09551,1.09551,0,0,1,.233-.186l.762-.469a.97418.97418,0,0,0,.391-.651l.049-.894a1.10453,1.10453,0,0,1,.054-.295.71707.71707,0,0,1,1.021-.435,1.14725,1.14725,0,0,1,.248.164l.682.582a.98343.98343,0,0,0,.742.169l.866-.229a1.11539,1.11539,0,0,1,.297-.039.71308.71308,0,0,1,.73.833,1.123,1.123,0,0,1-.079.29l-.344.827a.98394.98394,0,0,0,.068.757l.489.752a1.04208,1.04208,0,0,1,.128.272.71508.71508,0,0,1-.565.95,1.05872,1.05872,0,0,1-.302.015l-.892-.073a.99506.99506,0,0,0-.702.3l-.565.697a1.10449,1.10449,0,0,1-.218.208A.77113.77113,0,0,1,24.556,24.25323Zm-16.298-.047,2.436-.776-.454-.25a14.02572,14.02572,0,0,1-2.748-2.274,14.21087,14.21087,0,0,1-2.169-2.856l-.312-.661-.214.518.027.079a9.18254,9.18254,0,0,0,2.9,5.738Zm16.413-1.114.393-.484a1.9033,1.9033,0,0,1,1.503-.643l.621.051-.341-.523a1.90575,1.90575,0,0,1-.145-1.628l.238-.573-.601.159a1.89851,1.89851,0,0,1-1.593-.363l-.474-.403-.034.621a1.90076,1.90076,0,0,1-.839,1.402l-.53.326.58.223a1.90691,1.90691,0,0,1,1.076,1.23Zm-12.566-.204.14-.032.003-.008a1.88355,1.88355,0,0,0-.339-1.262,11.21327,11.21327,0,0,0-1.453-2.006l-.46-.494-.459.427a.46911.46911,0,1,1-.639-.687l.425-.395-.884-.825a13.46843,13.46843,0,0,0-1.341-1.007,5.1913,5.1913,0,0,0-1.083-.56,1.56982,1.56982,0,0,0-.278-.066l-.047-.003-.032.132a3.11591,3.11591,0,0,0,.484,1.49,13.1906,13.1906,0,0,0,2.028,2.667,13.25977,13.25977,0,0,0,2.552,2.117A2.878,2.878,0,0,0,12.105,22.88824Zm7.608-.052a.44114.44114,0,0,1-.182-.034l-3.07-1.238a.46953.46953,0,1,1,.351-.871l3.07,1.24a.46842.46842,0,0,1-.169.903Zm-6.819-2.534a.46882.46882,0,0,1-.262-.857c2.566-1.731,5.442-2.74,9.031-1.226a.46969.46969,0,0,1-.364.866c-3.202-1.351-5.736-.484-8.141,1.137A.47166.47166,0,0,1,12.894,20.30223Zm3.545-4.263a.46813.46813,0,0,1-.151-.906l3.091-1.186a.46911.46911,0,1,1,.336.876l-3.09,1.186A.49272.49272,0,0,1,16.439,16.03923Zm-7.516-.035a.53373.53373,0,0,1-.057-.002.47022.47022,0,0,1-.334-.758c1.797-2.284,2.844-4.745,1.732-8.035a.46945.46945,0,1,1,.889-.302c1.247,3.693.032,6.482-1.884,8.918A.47381.47381,0,0,1,8.923,16.00424Zm4.472-3.238a.49549.49549,0,0,1-.182-.044.47042.47042,0,0,1-.224-.624l1.41-2.996a.46837.46837,0,1,1,.848.398l-1.41,2.998A.46808.46808,0,0,1,13.395,12.76623Zm-5.508-.589a.4694.4694,0,0,1-.451-.327l-1.01-3.153a.46869.46869,0,0,1,.893-.285l1.011,3.153a.47067.47067,0,0,1-.304.591A.515.515,0,0,1,7.887,12.17723Zm13.957-1.32a.76387.76387,0,0,1-.617-.3,1.16659,1.16659,0,0,1-.204-.4l-.319-1.053a1.31864,1.31864,0,0,0-.725-.737l-1.053-.332a1.18673,1.18673,0,0,1-.396-.209.758.758,0,0,1-.157-1.029,1.17388,1.17388,0,0,1,.319-.321l.903-.629a1.33719,1.33719,0,0,0,.477-.921l-.008-1.098a1.17553,1.17553,0,0,1,.076-.447.76088.76088,0,0,1,.931-.466,1.16736,1.16736,0,0,1,.402.204l.879.666a1.32348,1.32348,0,0,0,1.019.169l1.044-.348a1.2157,1.2157,0,0,1,.444-.066.75787.75787,0,0,1,.734.744,1.17594,1.17594,0,0,1-.071.444l-.358,1.039a1.31039,1.31039,0,0,0,.155,1.022l.651.887a1.17344,1.17344,0,0,1,.197.401.75507.75507,0,0,1-.479.926,1.14339,1.14339,0,0,1-.444.071l-1.1-.02a1.30406,1.30406,0,0,0-.923.464l-.643.892a1.17306,1.17306,0,0,1-.322.314A.80535.80535,0,0,1,21.844,10.85724Zm.04-1.087.574-.796a2.20978,2.20978,0,0,1,1.704-.855l.979.018-.579-.791a2.22221,2.22221,0,0,1-.285-1.886l.319-.926-.929.309a2.23743,2.23743,0,0,1-1.883-.309l-.783-.594.007.98a2.23386,2.23386,0,0,1-.877,1.694l-.806.563.938.295a2.23652,2.23652,0,0,1,1.339,1.358ZM8.395,6.66324a.725.725,0,0,1-.655-.359,1.05189,1.05189,0,0,1-.121-.272l-.26-.859a1.00681,1.00681,0,0,0-.535-.542l-.857-.27a1.13688,1.13688,0,0,1-.272-.126.71584.71584,0,0,1-.167-1.093,1.03435,1.03435,0,0,1,.224-.204l.736-.513a.99637.99637,0,0,0,.349-.676l-.005-.896a1.05042,1.05042,0,0,1,.037-.3.71446.71446,0,0,1,.989-.494,1.07573,1.07573,0,0,1,.26.147l.715.545a.99553.99553,0,0,0,.751.123l.85-.283a1.16909,1.16909,0,0,1,.294-.057.71494.71494,0,0,1,.779.791,1.13469,1.13469,0,0,1-.061.29l-.292.847a.97715.97715,0,0,0,.113.752l.531.724a1.045,1.045,0,0,1,.145.262.71517.71517,0,0,1-.511.983,1.10473,1.10473,0,0,1-.297.032l-.896-.017a.98921.98921,0,0,0-.68.342l-.523.725a1.09,1.09,0,0,1-.201.218A.761.761,0,0,1,8.395,6.66324Zm.041-1.166.364-.504a1.89808,1.89808,0,0,1,1.459-.734l.621.012-.368-.501a1.89948,1.89948,0,0,1-.243-1.616l.202-.587-.59.196a1.90816,1.90816,0,0,1-1.613-.265l-.498-.376.005.621a1.90708,1.90708,0,0,1-.751,1.451l-.513.358.597.189a1.90286,1.90286,0,0,1,1.147,1.162Z"/>
    </g>
  </g>
</svg>
