<svg xmlns="http://www.w3.org/2000/svg" width="26.95202" height="28.45364" viewBox="0 0 26.95202 28.45364">
  <defs>
    <style>
      .cls-1 {
        fill: #ff916c;
      }

      .cls-2 {
        fill: #ffd967;
      }

      .cls-3 {
        fill: #333;
      }
    </style>
  </defs>
  <title>p-4</title>
  <g id="Layer_2" data-name="Layer 2">
    <g id="Layer_1-2" data-name="Layer 1">
      <path class="cls-1" d="M4.17573,14.62574c6.497-.214,10.706,1.299,13.223,4.501l1.407-5.626a10.81792,10.81792,0,0,0-7.689-2.25Z"/>
      <path class="cls-1" d="M17.37672,8.08674l2.672,1.265.189-2.86Z"/>
      <path class="cls-1" d="M11.14073,20.79274l5.252,2.438-.751,3.048Z"/>
      <path class="cls-2" d="M1.01272,19.19874c-1.275-2.846-.267-3.686,2.532-2.954a21.57366,21.57366,0,0,1,9.94,7.128c3.096,4.552,2.122,5.586-2.063,3.845A33.51584,33.51584,0,0,1,1.01272,19.19874Z"/>
      <path class="cls-3" d="M14.34773,28.45174a7.41514,7.41514,0,0,1-2.313-.579,28.322,28.322,0,0,1-5.748-3.29c-3.578-2.579-7.645-6.532-5.847-8.666a.47534.47534,0,0,1,.152-.118l16.325-8.086,3.305-1.636.066-.196a1.77643,1.77643,0,0,1,.887-.857,2.51022,2.51022,0,0,1,.38-.132l.143-.025-.059-.202a1.79433,1.79433,0,0,1,.359-1.802,1.78477,1.78477,0,0,1,.84-.451l-.005-.12a2.32716,2.32716,0,0,1,.255-1.115c.577-1.122,1.991-1.62,3.563-.69a.46872.46872,0,0,1-.477.807c-1.166-.688-1.95-.273-2.25.312a1.34993,1.34993,0,0,0-.145.515l.003.204.486.047a5.648,5.648,0,0,1,1.39.396,2.21022,2.21022,0,0,1,1.242,1.046.81318.81318,0,0,1-.002.579,1.17736,1.17736,0,0,1-1.341.71,3.39711,3.39711,0,0,1-1.2-.445,3.21442,3.21442,0,0,1-1.204-1.199l-.078-.142a.91433.91433,0,0,0-.415.211c-.142.14-.282.442-.037,1.161l.062.14.093.007a4.03888,4.03888,0,0,1,2.745,1.466,1.094,1.094,0,0,1,.187.558.90387.90387,0,0,1-.145.526,1.18677,1.18677,0,0,1-1.548.337,4.52959,4.52959,0,0,1-1.565-1.518c-.049-.071-.11-.157-.176-.251l-.137-.202-.086.003a1.592,1.592,0,0,0-.489.123.89257.89257,0,0,0-.322.241l-.111.241.007.125-3.205,13.108.007.04a.47473.47473,0,0,1-.039.175l-.032.047-1.889,7.728a.43889.43889,0,0,1-.035.096A1.55638,1.55638,0,0,1,14.34773,28.45174Zm.014-.936a1.25218,1.25218,0,0,0,.548-.079l.019-.01.046-.236c.126-1.599-2.291-4.526-5.656-7.07a23.442,23.442,0,0,0-5.095-3.008,4.43163,4.43163,0,0,0-3.033-.437l-.18.106-.059.251c-.14,1.424,2.266,4.182,5.886,6.792a27.40656,27.40656,0,0,0,5.543,3.177A6.38489,6.38489,0,0,0,14.36172,27.51574Zm1.159-2.007.45-1.851-.277-.267a8.64722,8.64722,0,0,0-1.743-1.137l-1.415-.614.629.624a12.9113,12.9113,0,0,1,2.278,3.067Zm.705-2.89.729-2.979-.238-.459c-1.908-2.959-8.584-4.406-12.702-3.97l-.103-.008-1.053.521.466.101a21.02814,21.02814,0,0,1,6.557,3.548c.288.218.575.444.86.675l.224.189.054-.017a.47471.47471,0,0,1,.187.012,14.36483,14.36483,0,0,1,4.518,1.996Zm-13.025-2.801a.42132.42132,0,0,1-.31-.105,4.56119,4.56119,0,0,1-.82-.918,1.518,1.518,0,0,1-.293-.94.73633.73633,0,0,1,.442-.609,1.73555,1.73555,0,0,1,1.157.027.42692.42692,0,0,1-.238.82,1.97972,1.97972,0,0,0-.423-.081h-.078l.012.049a1.35267,1.35267,0,0,0,.138.27,3.69324,3.69324,0,0,0,.666.739.42756.42756,0,0,1,.039.604A.41913.41913,0,0,1,3.20073,19.81775Zm14.066-1.456,1.044-4.273-.11-.089a14.08468,14.08468,0,0,0-5.338-2.232l-.435-.091-1.066-.164-5.451,2.699,1.83.108c3.487.369,7.396,1.582,9.29,3.73Zm1.287-5.261.842-3.448-.219-.135a13.0864,13.0864,0,0,0-1.707-.769l-.312-.106-4.359,2.159,1.626.4a14.17292,14.17292,0,0,1,4.023,1.819Zm1.075-4.402.358-1.458-1.685.835.442.181Zm4.946-1.758a.31844.31844,0,0,0,.16-.032l.034-.025a.28982.28982,0,0,0-.034-.074,2.47932,2.47932,0,0,0-1.098-.783l-.216-.079.076.1a3.22078,3.22078,0,0,0,.995.87A.17592.17592,0,0,0,24.57472,6.94075Zm1.194-2.758a.408.408,0,0,0,.169-.024.11356.11356,0,0,0,.042-.027l.019-.032-.034-.04a2.07059,2.07059,0,0,0-.682-.432,4.69182,4.69182,0,0,0-.751-.25l-.353-.069a2.44176,2.44176,0,0,0,.654.542,2.475,2.475,0,0,0,.843.324C25.71173,4.17974,25.74173,4.18074,25.76872,4.18274Z"/>
    </g>
  </g>
</svg>
