<svg xmlns="http://www.w3.org/2000/svg" width="18.42097" height="25.18201" viewBox="0 0 18.42097 25.18201">
  <defs>
    <style>
      .cls-1 {
        fill: #ffd967;
      }

      .cls-2 {
        fill: #b4d74c;
      }

      .cls-3 {
        fill: #ff916c;
      }

      .cls-4 {
        fill: #87d8f3;
      }

      .cls-5 {
        fill: #333;
      }
    </style>
  </defs>
  <title>Asset 10</title>
  <g id="Layer_2" data-name="Layer 2">
    <g id="Layer_1-2" data-name="Layer 1">
      <path class="cls-1" d="M5.419,4.968c-.309-5.91,8.766-6.161,7.421.113A4.98169,4.98169,0,0,0,9.004,7.433,6.531,6.531,0,0,0,5.419,4.968Z"/>
      <path class="cls-2" d="M9.115,12.306c-1.152-3.337-.629-5.99,3.921-7.003,3.602.567,5.091,2.616,3.978,6.498Z"/>
      <path class="cls-3" d="M8.919,12.109a5.84394,5.84394,0,0,1,.056-4.621C7.173,5.261,5.152,4.507,2.757,6.284a4.16878,4.16878,0,0,0-1.176,5.349Z"/>
      <path class="cls-4" d="M.796,11.689a49.32636,49.32636,0,0,0,17.113-.027c-.454,2.706-2.497,4.747-7.561,5.518l-.366,1.343c.184,2.527.658,4.816,3.362,5.294l.589.56H4.074l.531-.476c3.813-.665,4.275-3.266,3.754-6.441Q.38051,15.89854.796,11.689Z"/>
      <path class="cls-5" d="M2.868,25.181a.47762.47762,0,0,1-.476-.462,1.08843,1.08843,0,0,1,.38-.882,1.86705,1.86705,0,0,1,.81-.383.49549.49549,0,0,1,.095-.014c2.461-.093,3.452-.901,3.902-1.921a5.513,5.513,0,0,0,.388-1.906c.02-.363.024-.734.022-1.112l-.008-.923-.604-.059C3.22,16.969,0,14.577,0,11.561a.47708.47708,0,0,1,.584-.464l.344.073-.074-.204A4.67656,4.67656,0,0,1,4.842,4.925l.24-.012-.035-.267c-.012-.135-.017-.275-.017-.418a4.227,4.227,0,1,1,8.454,0,4.03124,4.03124,0,0,1-.022.43l-.044.273L13.87,5a4.90344,4.90344,0,0,1,3.81,5.787l-.101.393.209-.067a.47588.47588,0,0,1,.633.449c0,3.023-3.229,5.409-7.381,5.96l-.572.056-.008.924c-.002.378.002.749.024,1.112a5.43965,5.43965,0,0,0,.388,1.906c.449,1.016,1.434,1.829,3.9,1.921a.41843.41843,0,0,1,.094.014,1.86459,1.86459,0,0,1,.811.383,1.09429,1.09429,0,0,1,.378.882.47564.47564,0,0,1-.476.462H2.868Zm10.385-.953-.307-.064a3.96277,3.96277,0,0,1-2.949-2.259,6.41793,6.41793,0,0,1-.467-2.237c-.022-.383-.027-.778-.025-1.171l.007-.869-.304.01-.273-.01.007.869c.002.393-.003.788-.025,1.171a6.41838,6.41838,0,0,1-.467,2.237,3.97779,3.97779,0,0,1-2.952,2.261l-.304.062ZM9.208,16.686c4.224,0,7.575-1.977,8.165-4.371l.018-.09-.113.032c-4.079,1.049-11.559.793-16.006-.044l-.262-.052.032.157C1.631,14.719,4.97,16.686,9.208,16.686Zm1.435-4.695a32.87294,32.87294,0,0,0,5.488-.455l.322-.066.098-.224a3.94659,3.94659,0,1,0-7.096.518l.143.228h1.045Zm-2.478-.032.16-.192.042-.068-.047-.105a4.89939,4.89939,0,0,1,.045-3.702l.125-.261-.302-.423A3.72367,3.72367,0,0,0,1.96,11.19l.115.197.12.022c1.164.189,2.493.337,3.883.439ZM2.907,9.73a.47445.47445,0,0,1-.452-.398,2.11238,2.11238,0,0,1,.648-1.756,2.00807,2.00807,0,0,1,1.485-.703.29112.29112,0,0,1,.032.003.47539.47539,0,0,1-.136.941.62286.62286,0,0,0-.253.083,1.80232,1.80232,0,0,0-.44.337,1.17431,1.17431,0,0,0-.395.94.47674.47674,0,0,1-.391.547A.41572.41572,0,0,1,2.907,9.73ZM9.035,6.768l.064-.084a4.89422,4.89422,0,0,1,3.279-1.758l.063-.003.025-.071a3.05535,3.05535,0,0,0,.062-.624,3.2755,3.2755,0,0,0-6.551,0,3.46968,3.46968,0,0,0,.052.629l.025.108.429.083A4.67156,4.67156,0,0,1,8.659,6.31ZM7.219,4.578a.4752.4752,0,0,1-.45-.4,2.11234,2.11234,0,0,1,.648-1.756,2.008,2.008,0,0,1,1.484-.703.17319.17319,0,0,0,.032.003.47645.47645,0,0,1-.137.943.56232.56232,0,0,0-.253.081,1.73061,1.73061,0,0,0-.44.337,1.17312,1.17312,0,0,0-.395.94.4759.4759,0,0,1-.391.547A.55427.55427,0,0,1,7.219,4.578Z"/>
    </g>
  </g>
</svg>
