<?xml version="1.0" encoding="utf-8"?>
<!-- Generator: Adobe Illustrator 22.0.1, SVG Export Plug-In . SVG Version: 6.00 Build 0)  -->
<svg version="1.1" id="Layer_1" xmlns="http://www.w3.org/2000/svg" xmlns:xlink="http://www.w3.org/1999/xlink" x="0px" y="0px"
	 viewBox="0 0 300.6 259.7" style="enable-background:new 0 0 300.6 259.7;" xml:space="preserve">
<style type="text/css">
	.st0{fill:#FFFFFF;}
</style>
<title>Asset 1</title>
<g id="Layer_2_1_">
	<g id="Layer_1-2">
		<rect x="2.1" y="118.8" class="st0" width="16" height="55.9"/>
		<polygon class="st0" points="22.1,118.8 38.1,118.8 42.5,140.8 42.9,140.8 42.9,118.8 58.9,118.8 58.9,174.7 42.9,174.7 
			38.5,150.8 38.1,150.8 38.1,174.7 22.1,174.7 		"/>
		<path class="st0" d="M98.8,128.8h-2.4v36h2.4V149h16v13.8c0,7.2-4.8,12-12,12H92.4c-7.2,0-12-4.8-12-12v-32c0-7.2,4.8-12,12-12
			h10.4c7.2,0,12,4.8,12,12v11.8h-16V128.8z"/>
		<path class="st0" d="M118.8,162.8v-32c0-7.2,4.8-12,12-12h10.4c7.2,0,12,4.8,12,12v32c0,7.2-4.8,12-12,12h-10.4
			C123.6,174.7,118.8,170,118.8,162.8 M137.2,128.8h-2.4v36h2.4V128.8z"/>
		<polygon class="st0" points="183.1,164.8 183.1,174.7 157.2,174.7 157.2,118.8 173.1,118.8 173.1,164.8 		"/>
		<path class="st0" d="M185.9,162.8v-32c0-7.2,4.8-12,12-12h10.4c7.2,0,12,4.8,12,12v32c0,7.2-4.8,12-12,12h-10.4
			C190.7,174.7,185.9,170,185.9,162.8 M204.3,128.8h-2.4v36h2.4V128.8z"/>
		<path class="st0" d="M255.4,147.5c2.1,2.3,3.3,5.8,3.3,10.5v16.8h-16v-24h-2.4v24h-16v-55.9h22.4c7.2,0,12,4.8,12,12v8
			C258.8,142,257.6,145.1,255.4,147.5 M242.7,128.8h-2.4v12h2.4V128.8z"/>
		<path class="st0" d="M262.6,156.6h16v8.2h2.4v-6c0-8-18.4-6.3-18.4-24v-4c0-7.2,4.8-12,12-12H285c7.2,0,12,4.8,12,12v6.2h-16v-8.2
			h-2.4v6c0,8,18.4,6.5,18.4,24v4c0,7.2-4.8,12-12,12h-10.4c-7.2,0-12-4.8-12-12V156.6z"/>
		<path class="st0" d="M60.8,88.4V18.2C60.8,7.3,68.1,0,79,0h15.8c10.9,0,18.2,7.3,18.2,18.2v70.1c0,10.9-7.3,18.2-18.2,18.2H79
			C68.1,106.6,60.8,99.3,60.8,88.4 M88.8,15.2h-3.6v76.2h3.6L88.8,15.2z"/>
		<path class="st0" d="M145.9,91.4h3.6V0h24.3v88.4c0,10.9-7.3,18.2-18.2,18.2h-15.8c-10.9,0-18.2-7.3-18.2-18.2V0h24.3L145.9,91.4z
			"/>
		<polygon class="st0" points="182.4,0 206.7,0 213.4,38.2 214,38.2 214,0 238.3,0 238.3,106.6 214,106.6 207.3,65.4 206.7,65.4 
			206.7,106.6 182.4,106.6 		"/>
		<path class="st0" d="M299.1,18.2v70.1c0,10.9-7.3,18.2-18.2,18.2h-34V0h34C291.8,0,299.1,7.3,299.1,18.2 M274.8,15.2h-3.6v76.2
			h3.6V15.2z"/>
		<path class="st0" d="M34,0H18.2c-3.1,0-6.1,0.6-8.9,1.9C3.5,4.8,0,10.6,0,18.2v16.8c0,11.5,5.1,17.6,10.9,21.7l0,0l17.1,12.4
			l0,20.2v2h-3.6V70.9L3.2,55.5L0,53.2v35.2c0,10.9,7.3,18.2,18.2,18.2H34c4.3,0.1,8.6-1.3,12-3.9c3.9-3.2,6.2-8.2,6.2-14.3V71.6
			c0-12.3-5.9-18.4-12.3-22.6L24.3,37.5v-6.1h0V15.2H28v20.5l24.3,17.8V18.2C52.3,7.3,45,0,34,0"/>
		<path class="st0" d="M197.1,229.3c1.2,0.6,2.5,0.9,3.9,0.8h11.7c1.4,0.1,2.7-0.2,3.9-0.8c0.9-0.6,1.4-1.7,1.4-3.5v-11.2
			c0-1.7-0.5-2.8-1.5-3.4c-1.2-0.6-2.5-0.9-3.8-0.8h-11.7c-1.3-0.1-2.6,0.2-3.8,0.8c-1,0.5-1.4,1.7-1.4,3.4v11.2
			C195.7,227.5,196.1,228.7,197.1,229.3L197.1,229.3z M201.5,215.3h10.7v9.8h-10.7V215.3z M279.8,251.3v4.6h-19.3v-19.6h19.1v4.6
			h-13.3v2.9c1.2,0,5,0,6.2,0h4.3c-1.5,1.4-2.9,2.8-4.4,4.3c-1.2,0-4.9,0-6.1,0v3.2L279.8,251.3L279.8,251.3z M255.8,245.9
			c0.3,0.7,0.4,1.4,0.4,2.1v3.6c0,1.8-0.5,2.9-1.4,3.5c-1.2,0.6-2.5,0.9-3.9,0.8h-10.1c-0.7,0-1.5-0.1-2.2-0.2
			c-0.6-0.1-1.2-0.3-1.7-0.6c-0.5-0.3-0.8-0.8-1-1.3c-0.3-0.7-0.4-1.4-0.4-2.2v-1.2l5.5-0.7v1.9h9.6v-3.5h-9.5
			c-0.7,0-1.5-0.1-2.2-0.2c-0.6-0.1-1.2-0.3-1.7-0.7c-0.5-0.3-0.8-0.8-1-1.3c-0.3-0.7-0.4-1.4-0.4-2.2v-3.4c0-0.7,0.1-1.4,0.4-2.1
			c0.2-0.5,0.6-0.9,1.1-1.3c0.5-0.3,1.1-0.5,1.7-0.6c0.7-0.1,1.4-0.2,2.1-0.2h9.4c0.7,0,1.4,0,2.1,0.2c0.6,0.1,1.2,0.3,1.7,0.6
			c0.5,0.3,0.8,0.7,1.1,1.3c0.3,0.7,0.4,1.4,0.4,2.1v1.2l-5.5,0.7v-1.7h-8.9v3.3h9.4c0.7,0,1.4,0,2.1,0.2c0.6,0.1,1.2,0.3,1.7,0.6
			C255.2,245,255.6,245.4,255.8,245.9L255.8,245.9z M271,233.6h-10.5l4.6-4.4h10.5L271,233.6z M178.1,223.8h8.8
			c0.8,0,1.5-0.1,2.2-0.2c0.6-0.1,1.2-0.3,1.7-0.6c0.4-0.3,0.8-0.7,1-1.2c0.3-0.6,0.4-1.3,0.3-1.9v-5.2c0-1.7-0.5-2.9-1.5-3.5
			c-1.2-0.6-2.5-0.9-3.8-0.8h-14.6v19.7h5.8L178.1,223.8L178.1,223.8z M178.1,215.1h7.1c0.3,0,0.7,0.1,0.9,0.3
			c0.2,0.2,0.3,0.5,0.3,0.9v1.6c0,0.3-0.1,0.6-0.3,0.9c-0.3,0.2-0.6,0.3-0.9,0.3h-7.1V215.1z M228.6,223.8h8.8
			c0.8,0,1.5-0.1,2.2-0.2c0.6-0.1,1.2-0.3,1.7-0.6c0.4-0.3,0.8-0.7,1-1.2c0.3-0.6,0.4-1.3,0.3-1.9v-5.2c0-1.7-0.5-2.9-1.5-3.5
			c-1.2-0.6-2.5-0.9-3.8-0.8h-14.6v19.7h5.8L228.6,223.8L228.6,223.8z M228.6,215.1h7.1c0.3,0,0.7,0.1,0.9,0.3
			c0.2,0.2,0.3,0.5,0.3,0.9v1.6c0,0.3-0.1,0.6-0.3,0.9c-0.3,0.2-0.6,0.3-0.9,0.3h-7.1V215.1z M145.5,230h-5.8v-19.6h5.8v7.7l7.7-7.7
			h7.5l-10.1,9.8l10.1,9.8h-7.5l-7.7-7.7V230z M185.8,255.9h0.2c1.4,1.4,2.7,2.6,3.8,3.7h-7.5c-2.3-2.2-5.4-5.3-8.8-8.6l3.7-3.7
			c3,3,6,5.9,8.6,8.4V255.9z M185.8,236.4c-6.6,6.5-13.2,13-19.8,19.6h-7.2v-0.2c3.2-3.2,6.5-6.4,9.7-9.6
			c-4.6-4.5-9.1-8.9-13.7-13.4h7.5c2.5,2.5,6.1,6,9.9,9.7c2-2,4.1-4,6.1-6L185.8,236.4L185.8,236.4z M230.2,237.2
			c-1.2-0.6-2.5-0.9-3.8-0.8h-11.7c-1.3-0.1-2.6,0.2-3.8,0.8c-1,0.5-1.4,1.7-1.4,3.3v11.1c0,1.8,0.5,2.9,1.4,3.5
			c1.2,0.6,2.5,0.9,3.9,0.8h11.7c1.3,0.1,2.7-0.2,3.9-0.8c0.9-0.6,1.4-1.7,1.4-3.5v-11.1C231.6,238.8,231.1,237.7,230.2,237.2
			L230.2,237.2z M225.9,251h-10.7v-9.7h10.7V251z M158.7,251.3v4.4c-0.1,0.1-0.2,0.2-0.3,0.2h-19.1v-19.6h19.1v4.6h-13.3v2.9
			c1.2,0,5,0,6.2,0h4.3c-1.5,1.4-2.9,2.8-4.4,4.3c-1.2,0-4.9,0-6.1,0v3.2L158.7,251.3L158.7,251.3z M204.1,237.2
			c-1.2-0.6-2.5-0.9-3.8-0.8h-14.6v19.4c0.1,0.1,0.1,0.1,0.2,0.2h5.6v-6.2h8.8c0.8,0,1.5-0.1,2.2-0.2c0.6-0.1,1.2-0.3,1.7-0.6
			c0.4-0.3,0.8-0.7,1-1.2c0.2-0.6,0.4-1.3,0.3-1.9v-5.1C205.6,238.9,205.1,237.7,204.1,237.2L204.1,237.2z M199.8,243.8
			c0,0.3-0.1,0.6-0.3,0.9c-0.3,0.2-0.6,0.3-0.9,0.3h-7.1v-3.9h7.1c0.3,0,0.7,0.1,0.9,0.3c0.2,0.2,0.3,0.5,0.3,0.8L199.8,243.8
			L199.8,243.8z M155.3,218.1h10.5l4.6,4.4h-10.5L155.3,218.1z"/>
		
			<rect x="76.3" y="224.1" transform="matrix(0.7071 -0.7071 0.7071 0.7071 -131.5262 133.9349)" class="st0" width="39.2" height="3.3"/>
		
			<rect x="94.3" y="206.1" transform="matrix(0.7071 -0.7071 0.7071 0.7071 -131.5259 133.9344)" class="st0" width="3.3" height="39.2"/>
	</g>
</g>
</svg>
