<?xml version="1.0" encoding="utf-8"?>
<!-- Generator: Adobe Illustrator 22.0.1, SVG Export Plug-In . SVG Version: 6.00 Build 0)  -->
<svg version="1.1" id="Layer_2_1_" xmlns="http://www.w3.org/2000/svg" xmlns:xlink="http://www.w3.org/1999/xlink" x="0px" y="0px"
	 viewBox="0 0 337.8 196.5" style="enable-background:new 0 0 337.8 196.5;" xml:space="preserve">
<style type="text/css">
	.st0{fill:#FFFFFF;}
</style>
<g>
	<g>
		<path class="st0" d="M20.4,133.6v62.9h-18v-62.9C2.4,133.6,20.4,133.6,20.4,133.6z"/>
		<path class="st0" d="M24.9,133.6h18l4.9,24.7h0.4v-24.7h18v62.9h-18l-4.9-27h-0.5v27h-18C24.9,196.5,24.9,133.6,24.9,133.6z"/>
		<path class="st0" d="M111.1,144.9h-2.7v40.4h2.7v-17.7h18v15.5c0,8.1-5.4,13.5-13.5,13.5H104c-8.1,0-13.5-5.4-13.5-13.5v-35.9
			c0-8.1,5.4-13.5,13.5-13.5h11.7c8.1,0,13.5,5.4,13.5,13.5v13.2h-18C111.1,160.3,111.1,144.9,111.1,144.9z"/>
		<path class="st0" d="M133.6,183.1v-35.9c0-8.1,5.4-13.5,13.5-13.5h11.7c8.1,0,13.5,5.4,13.5,13.5v35.9c0,8.1-5.4,13.5-13.5,13.5
			h-11.7C139,196.5,133.6,191.1,133.6,183.1z M154.3,144.9h-2.7v40.4h2.7V144.9z"/>
		<path class="st0" d="M206,185.3v11.2h-29.2v-62.9h18v51.7H206z"/>
		<path class="st0" d="M209.1,183.1v-35.9c0-8.1,5.4-13.5,13.5-13.5h11.7c8.1,0,13.5,5.4,13.5,13.5v35.9c0,8.1-5.4,13.5-13.5,13.5
			h-11.7C214.5,196.5,209.1,191.1,209.1,183.1z M229.8,144.9h-2.7v40.4h2.7V144.9z"/>
		<path class="st0" d="M287.2,165.9c2.3,2.6,3.7,6.6,3.7,11.8v18.9h-18v-27h-2.7v27h-18v-62.9h25.2c8.1,0,13.5,5.4,13.5,13.5v9
			C290.9,160.1,289.5,163.5,287.2,165.9L287.2,165.9z M272.9,158.3v-13.5h-2.7v13.5H272.9z"/>
		<path class="st0" d="M295.4,176.1h18v9.2h2.7v-6.7c0-9-20.7-7.1-20.7-27v-4.5c0-8.1,5.4-13.5,13.5-13.5h11.7
			c8.1,0,13.5,5.4,13.5,13.5v6.9h-18v-9.2h-2.7v6.7c0,9,20.7,7.3,20.7,27v4.5c0,8.1-5.4,13.5-13.5,13.5h-11.7
			c-8.1,0-13.5-5.4-13.5-13.5V176.1L295.4,176.1z"/>
	</g>
	<g>
		<path class="st0" d="M68.4,99.4V20.5C68.4,8.2,76.6,0,88.9,0h17.8c12.3,0,20.5,8.2,20.5,20.5v78.9c0,12.3-8.2,20.5-20.5,20.5H88.9
			C76.6,119.9,68.4,111.7,68.4,99.4z M99.8,17.1h-4.1v85.7h4.1V17.1z"/>
		<path class="st0" d="M164.1,102.8h4.1V0h27.4v99.4c0,12.3-8.2,20.5-20.5,20.5h-17.8c-12.3,0-20.5-8.2-20.5-20.5V0h27.4
			L164.1,102.8L164.1,102.8z"/>
		<path class="st0" d="M205.1,0h27.4l7.5,42.9h0.7V0H268v119.9h-27.4l-7.5-46.3h-0.7v46.3h-27.4V0z"/>
		<path class="st0" d="M336.4,20.5v78.9c0,12.3-8.2,20.5-20.5,20.5h-38.3V0h38.3C328.2,0,336.4,8.2,336.4,20.5z M309.1,17.1H305
			v85.7h4.1V17.1z"/>
		<path class="st0" d="M38.3,0H20.5c-3.7,0-7.1,0.8-10,2.2C4,5.4,0,11.9,0,20.5v18.9c0,12.9,5.7,19.7,12.3,24.4l0,0l19.2,14l0,22.7
			v2.3h-4.1v-23L3.6,62.4L0,59.8v39.6c0,12.3,8.2,20.5,20.5,20.5h17.8c5.4,0,10.1-1.6,13.5-4.4c4.4-3.6,7-9.2,7-16.1V80.5
			c0-13.8-6.7-20.7-13.9-25.4L27.3,42.2v-6.8h0V17.1h4.1v23l27.4,20V20.5C58.8,8.2,50.6,0,38.3,0z"/>
	</g>
</g>
</svg>
