<?xml version="1.0" encoding="UTF-8"?>
<svg id="Layer_2" data-name="Layer 2" xmlns="http://www.w3.org/2000/svg" viewBox="0 0 416.66 387.86">
  <defs>
    <style>
      .cls-1 {
        fill: #008248;
      }

      .cls-2 {
        fill: #cc2e0a;
      }

      .cls-3 {
        fill: #f7f3dc;
      }
    </style>
  </defs>
  <g id="Layer_1-2" data-name="Layer 1">
    <g>
      <g>
        <ellipse class="cls-1" cx="208.54" cy="101.25" rx="133.88" ry="85.96"/>
        <path class="cls-1" d="M208.54,189.1c-74.86,0-135.77-39.41-135.77-87.85S133.68,13.41,208.54,13.41s135.77,39.41,135.77,87.84-60.9,87.85-135.77,87.85ZM208.54,17.18c-72.78,0-131.99,37.71-131.99,84.07s59.21,84.07,131.99,84.07,131.99-37.71,131.99-84.07S281.32,17.18,208.54,17.18Z"/>
      </g>
      <path class="cls-3" d="M244.49,96.37l-12.48-15.82c-2.75-3.48-4.41-7.69-4.79-12.1L221.4,0h-33.18l-5.83,68.45c-.38,4.42-2.04,8.63-4.79,12.1l-12.48,15.82c-2.15,2.89-3.32,6.4-3.32,10v63.19h85.99v-63.19c0-3.6-1.16-7.11-3.32-10Z"/>
      <rect class="cls-1" x="158.94" y="101.04" width="90.84" height="3.78"/>
      <rect class="cls-3" x="92.62" y="143.02" width="231.43" height="2.52"/>
      <rect class="cls-3" x="100.38" y="151.02" width="215.91" height="2.52"/>
      <rect class="cls-3" x="110.82" y="159.04" width="195.02" height="2.52"/>
      <rect class="cls-3" x="125.47" y="167.04" width="165.73" height="2.52"/>
      <g>
        <path class="cls-3" d="M96.27,69.98l-.59-.56-5.39,5.7-1.56-1.48,12.4-13.12,1.56,1.48-5.37,5.68.54.51c1.16-.42,3.44-1.72,7.15-4.53l1.34,1.79c-3.84,2.88-6.39,4.36-7.9,4.88-.33,1.67-1.57,4.44-4.28,8.46l-1.86-1.23c2.65-3.95,3.71-6.37,3.96-7.57ZM94.34,79.9l13.4-14.19,1.67,1.58-5.65,5.98,2.28,2.15-1.64,1.74-2.28-2.15-6.11,6.47-1.67-1.58Z"/>
        <path class="cls-3" d="M109,57.06l12.93-9.3-.29-.41-12.78,9.19-1.34-1.86,14.72-10.59,2.97,4.14-12.93,9.3.29.41,13.13-9.44,1.34,1.87-15.07,10.84-2.97-4.14ZM112.16,62.18l15.85-11.39,1.34,1.86-3.81,2.74,1.42,1.98-1.94,1.4-1.42-1.98-4.33,3.11,1.42,1.98-1.94,1.4-1.42-1.98-3.83,2.75-1.34-1.86Z"/>
        <path class="cls-3" d="M130.28,39.72l17.03-6.84,2.35,5.86-17.03,6.84-2.35-5.86ZM132.39,46.27l18.12-7.27.85,2.11-7.95,3.19.62,1.55-2.22.89-.62-1.55-7.95,3.19-.85-2.11ZM146.59,37.5l-.64-1.6-12.59,5.05.64,1.6,12.59-5.05ZM133.83,48.71l2.22-.89.61,1.51,15.7-6.3.86,2.13-17.92,7.19-1.46-3.64Z"/>
        <path class="cls-3" d="M154.89,30.98l5.95-1.48-.21-.84,2.3-.57.21.84,5.95-1.48.51,2.07-14.19,3.52-.51-2.07ZM157.06,41.64l6.6-1.64-.38-1.51c-4.77,1.04-6.82.22-7.28-1.62-.48-1.95,1.17-3.74,6.67-5.11,5.5-1.37,7.69-.5,8.17,1.42.44,1.77-.81,3.41-5.24,4.73l.37,1.51,7.25-1.8-2.72-10.96,2.32-.58.12.49,2.44-.6.55,2.21-2.44.6,2.61,10.5-18.49,4.59-.55-2.23ZM168.52,33.76c-.19-.77-.9-1.06-5.34.04-4.48,1.11-5.04,1.74-4.86,2.49.18.74.97,1.04,5.46-.07,4.44-1.1,4.93-1.69,4.74-2.46Z"/>
      </g>
      <g>
        <path class="cls-3" d="M235.14,35.22l8.55,1.41.23-1.37-8.08-1.33.38-2.31,1.83.3.76-4.59-1.83-.3.38-2.31,18.37,3.02-.38,2.31-1.83-.3-.76,4.59,1.83.3-.38,2.3-7.91-1.3-.22,1.37,8.46,1.39-.38,2.31-19.39-3.19.38-2.31ZM250.38,33.95l.76-4.59-9.96-1.64-.76,4.59,9.95,1.64Z"/>
        <path class="cls-3" d="M268.75,39.48c3.08,1.05,5.05,1.97,6.28,2.83l2.78-8.18,2.28.78-.16.46,2.39.81-.74,2.19-2.39-.81-2.56,7.54c0,.1-.05.21-.09.33-.6,1.78-2.82,2.31-9.79-.07-6.81-2.32-8.43-4.05-7.8-5.92.61-1.8,2.85-2.32,9.8.04ZM266.89,33.97l.29-.85-5.56-1.89.71-2.08,13.35,4.54-.7,2.07-5.54-1.88-.26.76c.66.76,2.22,2.07,5.3,3.91l-1.16,1.92c-3.08-1.85-4.92-3.32-5.84-4.35-1.42.44-3.84.6-7.5.15l.25-2.23c3.67.43,5.71.25,6.66-.07ZM274.28,44.55c-.04-.4-1.08-1.09-6.27-2.85-5.67-1.93-6.65-1.83-6.77-1.48-.11.32.6,1,6.27,2.93,5.45,1.85,6.54,1.84,6.74,1.55h-.02s.05-.15.05-.15Z"/>
        <path class="cls-3" d="M287.8,38.59l11.94,7.7-7.21,11.17-11.94-7.7,7.21-11.17ZM291.77,54.2l4.68-7.24-7.89-5.09-4.68,7.24,7.89,5.09ZM301.64,47.21l2.02,1.31-.26.41,2.12,1.37-1.25,1.94-2.12-1.37-5.97,9.25-2.02-1.31,7.49-11.6Z"/>
        <path class="cls-3" d="M310.89,60.6l.8-.89-4.04-3.64,1.56-1.74,4.04,3.64.93-1.03,1.79,1.61-.93,1.03,4.06,3.66-1.57,1.74-4.06-3.66-.78.87c-1,2.05-1.35,5.14.36,8.74l-2.04.98c-1.48-3.07-1.6-6-1.12-8.32-2.37.91-5.48,1.22-8.79.04l.76-2.13c3.76,1.33,6.94.46,9.04-.9ZM321.89,64.18l1.79,1.61-.33.36,1.88,1.69-1.55,1.72-1.88-1.69-7.37,8.18-1.79-1.61,9.24-10.25Z"/>
      </g>
      <g>
        <path class="cls-3" d="M118.17,95.05v-10.27c0-.62.2-1.1.59-1.42.39-.33.92-.49,1.6-.49h7.9c.46,0,.81.08,1.06.23s.36.42.36.8v1.67c0,.7-.47,1.05-1.42,1.05h-5.08v1.41h5.08c.46,0,.81.08,1.06.23.24.15.36.42.36.8v1.69c0,.7-.47,1.04-1.42,1.04h-5.08v1.4h5.25c.95,0,1.42.32,1.42.96v1.8c0,.38-.12.65-.36.8-.24.14-.59.22-1.05.22h-8.07c-.67,0-1.2-.16-1.6-.49-.39-.33-.59-.8-.59-1.42Z"/>
        <path class="cls-3" d="M144.51,92.65c0,1.6-.46,2.77-1.37,3.53-.92.76-2.28,1.13-4.08,1.13h-1.83c-3.16,0-4.91-1.47-5.25-4.42-.05-.34-.02-.6.1-.76.12-.17.42-.25.91-.25h2.99c.35,0,.59.04.71.13.12.09.2.26.22.51.04.29.16.52.36.69.21.17.46.26.76.26h.3c.41,0,.72-.05.93-.16.21-.11.32-.33.32-.66,0-.22-.06-.39-.19-.52-.12-.13-.24-.21-.35-.23-.11-.03-.26-.06-.48-.1l-2.39-.45c-.76-.14-1.39-.31-1.89-.5-.5-.19-.95-.46-1.34-.8-.4-.34-.69-.77-.87-1.31-.18-.54-.27-1.19-.27-1.96,0-1.49.43-2.57,1.3-3.25.87-.68,2.18-1.02,3.95-1.02h1.4c1.62,0,2.93.39,3.93,1.17,1,.78,1.55,1.82,1.65,3.13.02.33-.02.58-.14.74-.12.16-.4.24-.85.24h-3.01c-.32,0-.55-.04-.68-.14-.13-.09-.23-.26-.29-.52-.12-.56-.45-.83-.99-.83h-.3c-.68,0-1.03.23-1.03.67,0,.16.02.29.06.39.04.1.1.18.19.24s.16.1.23.13c.07.03.16.05.29.07l2.02.47c.66.15,1.19.28,1.6.4.4.12.85.29,1.33.52.48.23.85.49,1.11.77.26.28.48.65.66,1.11.18.45.27.98.27,1.58Z"/>
        <path class="cls-3" d="M129.15,104.35h-2.45v8.86c0,.35-.1.61-.29.78-.19.17-.52.25-.98.25h-2.67c-.49,0-.82-.08-1-.25-.18-.17-.27-.43-.27-.78v-8.86h-2.37c-.95,0-1.42-.35-1.42-1.04v-2.14c0-.38.12-.65.36-.8s.59-.22,1.06-.22h10.03c.46,0,.81.07,1.06.22s.36.42.36.8v2.14c0,.7-.47,1.04-1.42,1.04Z"/>
        <path class="cls-3" d="M144.9,104.67v5.03c0,1.42-.49,2.54-1.47,3.34-.98.8-2.29,1.2-3.93,1.2h-5.15c-.67,0-1.2-.16-1.6-.49s-.59-.8-.59-1.42v-10.27c0-.62.2-1.1.59-1.42.39-.33.92-.49,1.6-.49h5.15c1.64,0,2.95.4,3.93,1.2.98.8,1.47,1.91,1.47,3.33ZM140.3,109.08v-3.84c0-.56-.15-.94-.44-1.16-.29-.22-.78-.32-1.45-.32h-1.44v6.83h1.44c.68,0,1.17-.1,1.46-.31.29-.21.43-.61.43-1.2Z"/>
      </g>
      <g>
        <path class="cls-3" d="M276,97.04h-8.83c-.84,0-1.27-.34-1.27-1.02v-.87c0-.45.2-.86.59-1.22l5.62-5.01c.11-.09.19-.17.24-.23.04-.06.09-.17.12-.32s.06-.35.06-.6c0-.51-.32-.76-.96-.76h-.34c-.58,0-.86.35-.86,1.04v.33c0,.34-.08.58-.25.73-.17.15-.48.22-.94.22h-2.32c-.49,0-.81-.08-.97-.23s-.24-.41-.24-.76v-.99c0-.68.15-1.3.46-1.85.31-.55.72-.98,1.23-1.31.51-.32,1.07-.57,1.68-.74.61-.17,1.23-.26,1.87-.26h1.23c.87,0,1.69.11,2.45.33.77.22,1.42.6,1.97,1.15.55.54.82,1.21.82,1.99v1.18c0,1.29-.42,2.28-1.27,2.98l-3.33,2.84h3.24c.91,0,1.36.34,1.36,1.01v1.4c0,.37-.11.63-.34.78-.22.15-.57.22-1.03.22Z"/>
        <path class="cls-3" d="M290.12,93.34c0,1.3-.5,2.29-1.49,2.96-.99.67-2.28,1.01-3.88,1.01h-1c-1.6,0-2.89-.34-3.87-1.01-.98-.67-1.48-1.66-1.48-2.96v-6.2c0-1.31.49-2.3,1.48-2.96s2.27-.99,3.87-.99h1c1.6,0,2.89.34,3.88,1.01.99.67,1.49,1.66,1.49,2.98v6.17ZM285.41,92.48v-4.47c0-.84-.34-1.26-1.04-1.26h-.31c-.64,0-.96.42-.96,1.26v4.47c0,.82.32,1.22.96,1.22h.31c.69,0,1.04-.41,1.04-1.22Z"/>
        <path class="cls-3" d="M276,113.71h-8.83c-.84,0-1.27-.34-1.27-1.02v-.87c0-.45.2-.86.59-1.22l5.62-5.01c.11-.09.19-.17.24-.23.04-.06.09-.17.12-.32.04-.15.06-.35.06-.6,0-.51-.32-.76-.96-.76h-.34c-.58,0-.86.35-.86,1.04v.33c0,.34-.08.58-.25.73-.17.15-.48.22-.94.22h-2.32c-.49,0-.81-.08-.97-.23s-.24-.41-.24-.76v-.99c0-.68.15-1.3.46-1.85.31-.55.72-.98,1.23-1.31.51-.33,1.07-.57,1.68-.74.61-.17,1.23-.26,1.87-.26h1.23c.87,0,1.69.11,2.45.33.77.22,1.42.6,1.97,1.15.55.54.82,1.21.82,1.99v1.18c0,1.29-.42,2.29-1.27,2.98l-3.33,2.84h3.24c.91,0,1.36.34,1.36,1.01v1.4c0,.37-.11.63-.34.78-.22.14-.57.22-1.03.22Z"/>
        <path class="cls-3" d="M284.91,112.13h-5.31c-.43,0-.74-.08-.92-.25-.18-.17-.27-.41-.27-.73v-2.03c0-.29.03-.51.1-.66.06-.15.2-.36.4-.63l5.14-6.92c.14-.2.25-.34.33-.42.08-.08.22-.17.43-.26.21-.09.47-.14.78-.14h2.74c.51,0,.86.07,1.03.2.18.14.27.4.27.81v7.6h.25c.46,0,.75.04.88.13.13.09.19.32.19.71v1.74c0,.36-.07.59-.21.7-.14.1-.43.15-.86.15h-.25v.67c0,.33-.09.57-.26.71-.17.14-.5.21-.97.21h-2.26c-.5,0-.83-.07-.99-.2s-.24-.37-.24-.71v-.67ZM285.16,108.7v-3.21l-2.09,3.21h2.09Z"/>
      </g>
      <path class="cls-1" d="M208.54,189.1c-74.86,0-135.77-39.41-135.77-87.85S133.68,13.41,208.54,13.41s135.77,39.41,135.77,87.84-60.9,87.85-135.77,87.85ZM208.54,17.18c-72.78,0-131.99,37.71-131.99,84.07s59.21,84.07,131.99,84.07,131.99-37.71,131.99-84.07S281.32,17.18,208.54,17.18Z"/>
      <path class="cls-1" d="M208.54,197.69c-79.92,0-144.95-43.26-144.95-96.43S128.62,4.82,208.54,4.82s144.95,43.26,144.95,96.43-65.02,96.43-144.95,96.43ZM208.54,9.85c-77.15,0-139.91,41-139.91,91.4s62.76,91.4,139.91,91.4,139.91-41,139.91-91.4S285.69,9.85,208.54,9.85Z"/>
      <g>
        <circle class="cls-2" cx="197.59" cy="30.9" r="8.92"/>
        <circle class="cls-2" cx="212.03" cy="30.9" r="8.92"/>
      </g>
      <g>
        <path class="cls-3" d="M191.73,31.95c.02-.77.04-1.53.03-2.24l1.92-.55s.06-.01.06-.03h.61c.02.48.05.98.06,1.51,0,.58.03,1.15.1,1.64.07.1.17.13.31.13.85,0,1.59-.12,2.51-.18l-.19,2.32c-.79.02-1.67.02-2.57.02h-2.97c-.03-.84.08-1.73.13-2.62ZM191.6,26.58h5.52v2.38c-.47,0-.99-.09-1.41-.09-.46,0-.99.03-1.37.17h-.61c-.58-.12-1.82-.16-2.13-.17v-2.29ZM197.68,30.43c-.02-1.45-.02-2.76,0-4.09h2.11c-.06.9-.09,1.92-.09,2.91,0,.21.07.23.18.23h.49c.09,0,.17-.04.17-.19,0-.98-.04-2-.11-2.95h2.52c-.02.76-.03,1.57,0,2.39.02,1.18.06,2.34.08,3.52.05,1.01.06,1.94.06,2.82h-2.6c.03-.98.05-1.99.04-2.99,0-.18-.06-.35-.15-.35h-.49c-.11,0-.18.11-.18.31,0,.98,0,2.05.03,3.04h-2.12c.07-1.47.09-2.98.06-4.64Z"/>
        <path class="cls-3" d="M206.39,32.91c.56.04,1.31.08,1.9.08.07,0,.14-.02.16-.1,0-.26-.04-.54-.09-.78h2.76c-.02.25-.03.54,0,.78.02.09.13.11.22.11h1.96c.12,0,.19-.06.22-.14.02-.25,0-.54,0-.75h2.75c0,.27-.12.55-.08.82,0,.03.05.05.13.05.6,0,1.37-.03,1.93-.1v1.84h-11.83v-1.82ZM206.63,26.58h11.34v1.47c-1.49,0-2.69-.08-3.89-.07-.92.01-1.77.04-2.67.13-.55-.05-1.15-.09-1.76-.1-.94,0-1.99,0-3.02.05v-1.48ZM208.86,30.52c-.91-.37-1.21-1.09-1.31-2.01l3.86-.19c-.09.73.02,1.78.6,2.27h.48c.07,0,.29,0,.39-.05.13-.36.18-.76.24-1.19.04-.35.07-.72.07-1.04l3.81.02c-.1.3-.18.63-.26,1.03-.09.41-.12.78-.14,1.15.03.05.09.07.18.07.37,0,.73-.02,1.1-.04v1.19h-11.16v-1.23c.68,0,1.41.01,2.14.02Z"/>
      </g>
      <path class="cls-3" d="M80.93,100.8c0-1.42,1.15-2.58,2.58-2.58s2.58,1.15,2.58,2.58-1.15,2.58-2.58,2.58-2.58-1.15-2.58-2.58Z"/>
      <path class="cls-3" d="M330.4,100.8c0-1.42,1.15-2.58,2.58-2.58s2.58,1.15,2.58,2.58-1.15,2.58-2.58,2.58-2.58-1.15-2.58-2.58Z"/>
      <g>
        <path class="cls-1" d="M287.43,178.31l-25.61-25.61c-3.8-3.8-9.96-3.8-13.76,0l-15.07,15.07c-.69.69-1.82.69-2.51,0l-15.07-15.07c-3.8-3.8-9.96-3.8-13.76,0l-15.07,15.07c-.69.69-1.82.69-2.51,0l-15.07-15.07c-3.8-3.8-9.96-3.8-13.76,0l-25.61,25.61c-3.8,3.8-3.8,9.96,0,13.76l25.61,25.61c3.8,3.8,9.96,3.8,13.76,0l15.07-15.07c.69-.69,1.82-.69,2.51,0l15.07,15.07c3.8,3.8,9.96,3.8,13.76,0l15.07-15.07c.69-.69,1.82-.69,2.51,0l15.07,15.07c3.8,3.8,9.96,3.8,13.76,0l25.61-25.61c3.8-3.8,3.8-9.96,0-13.76Z"/>
        <path class="cls-3" d="M254.94,215.49c-1.25,0-2.43-.49-3.32-1.37l-18.74-18.74c-.61-.61-1.68-.61-2.29,0l-18.74,18.74c-1.78,1.77-4.86,1.77-6.63,0l-18.74-18.74c-.63-.63-1.66-.63-2.29,0l-18.74,18.74c-1.77,1.77-4.86,1.77-6.63,0l-25.61-25.61c-.89-.89-1.37-2.06-1.37-3.32s.49-2.43,1.37-3.32l25.61-25.61c1.77-1.77,4.86-1.77,6.63,0l18.74,18.74c.61.61,1.68.61,2.29,0l18.74-18.74c1.77-1.77,4.86-1.77,6.63,0l18.74,18.74c.61.61,1.68.61,2.29,0l18.74-18.74c1.78-1.77,4.86-1.77,6.64,0l25.61,25.61c.89.89,1.37,2.06,1.37,3.32s-.49,2.43-1.37,3.32l-25.61,25.61c-.89.89-2.07,1.37-3.32,1.37ZM231.74,192.39c1.1,0,2.14.43,2.92,1.21l18.74,18.74c.82.82,2.25.82,3.08,0l25.61-25.61c.41-.41.64-.96.64-1.54s-.23-1.13-.64-1.54l-25.61-25.61c-.82-.82-2.25-.82-3.08,0l-18.74,18.74c-1.56,1.57-4.29,1.57-5.85,0l-18.74-18.74c-.82-.82-2.25-.82-3.08,0l-18.74,18.74c-1.56,1.57-4.29,1.57-5.85,0l-18.74-18.74c-.82-.82-2.25-.82-3.07,0l-25.61,25.61c-.41.41-.64.96-.64,1.54s.23,1.13.64,1.54l25.61,25.61c.82.82,2.25.82,3.07,0l18.74-18.74c1.61-1.61,4.24-1.61,5.85,0l18.74,18.74c.82.82,2.25.82,3.08,0l18.74-18.74c.78-.78,1.82-1.21,2.92-1.21Z"/>
      </g>
      <g>
        <path class="cls-1" d="M168.77,131.84c.56,0,.93-.47.93-1.39s-.21-6.22-.26-7.1h4.11c-.07.98-.09,2.51-.09,3.98,0,2.22.33,4.13.33,4.69,0,3.83-1.82,4.9-3.7,4.9-1.06,0-1.97-.19-2.67-.75l.1-5.24c.4.57.8.92,1.26.92Z"/>
        <path class="cls-1" d="M174.68,123.34h3.94c-.03,2.37-.06,4.41-.06,6.44,0,1.64.79,2.28,1.55,2.28.59,0,1.06-.47,1.06-1.45,0-2.32-.27-4.71-.31-7.27h4.16c-.06,2.66-.06,5.41-.05,8.1.02,3.86-2.56,5.69-5.17,5.69s-5.36-1.81-5.07-5.48c.06-.89.07-1.81.07-2.75,0-1.92-.14-3.86-.14-5.56Z"/>
        <path class="cls-1" d="M197.05,129.88c-.25,3.24-1.78,6.73-5.03,6.73h-6.06c-.07-2.73.09-5.88.09-9.03,0-1.41-.02-2.85-.09-4.24h6.33c3.37,0,5.11,3.15,4.75,6.54ZM190.24,132.29h1.11c1.04,0,1.54-1.38,1.54-2.69,0-1.11-.4-1.98-1.33-1.98h-1.57c-.31,0-.35.43-.35.77v2.54c0,1.06.37,1.36.59,1.36Z"/>
        <path class="cls-1" d="M208.83,136.61h-4.62l-.15-1.47c-.06-.08-.17-.21-.3-.21h-1.69c-.18,0-.26.09-.32.21l-.15,1.47h-4.25c.64-4.2,1.92-8.82,2.48-13.27h6.63c.51,4.43,1.81,9.05,2.37,13.27ZM202.09,133.9h1.66c.18,0,.33-.21.33-.58,0-.45-.67-6.28-1.02-6.28h-.11c-.49,0-1.05,6.18-1.05,6.41,0,.24.07.45.19.45Z"/>
        <path class="cls-1" d="M213.45,127.73v.83c0,.41.21.41.25.41h4.37v2.11h-4.37c-.13,0-.25.08-.25.36v.85c0,.21.06.7.53.7h4.65v3.62h-9.25c-.05-3.28.31-7.05.31-10.63,0-.89-.01-1.77-.03-2.64h8.64v3.75h-4.41c-.27,0-.43.15-.43.64Z"/>
        <path class="cls-1" d="M230.08,128.62c0,2.83-1.34,5.39-3.9,5.39h-2.54c-.21,0-.35.15-.29.51l.03,2.09h-4.17c-.03-3.05.19-6.22.19-9.59,0-1.22-.01-2.45-.03-3.67h6.8c2.62,0,3.9,2.56,3.9,5.28ZM223.65,130.79h1.33c.74,0,1.14-.89,1.14-1.77s-.39-1.73-1.22-1.73h-1.23c-.24,0-.34.3-.34.7v2.09c0,.47.21.72.33.72Z"/>
        <path class="cls-1" d="M230.9,129.58c0-4.2,1.34-6.71,5.62-6.71,3.93,0,5.95,3.15,5.95,7.52,0,3.54-1.44,6.69-5.92,6.69-4.93,0-5.66-3.26-5.66-7.5ZM236.64,132.33c1.25,0,1.69-1.47,1.69-2.54,0-1.3-.63-2.17-1.81-2.17-1.31,0-1.63.83-1.63,2,0,1.47.57,2.71,1.75,2.71Z"/>
      </g>
      <path class="cls-1" d="M177.26,101.95l-3.78-.04c.03-2.33.49-4.54,1.39-6.56.86-1.94,2.12-3.65,3.33-5.31.4-.55.8-1.09,1.17-1.63l.6-.86c1.67-2.4,3.39-4.89,5.03-7.36,2.36-3.56,2.79-7.68,3.53-16.66.24-2.86.48-12.7.47-17.47h3.78c0,4.89-.23,14.77-.48,17.78-.74,8.97-1.15,13.91-4.15,18.43-1.66,2.5-3.39,5.01-5.07,7.43l-.6.86c-.39.57-.81,1.14-1.23,1.71-1.1,1.5-2.23,3.05-2.93,4.61-.69,1.55-1.05,3.25-1.07,5.06Z"/>
      <g>
        <path class="cls-3" d="M157.55,193.35c.03-.32.05-.82,0-1.16-.11-.34-.45-.53-1.4-.53-2.93,0-6.58.37-9.65.37v-3.57h30.66v3.81c-2.59-.08-6-.58-8.72-.63-.71-.03-1.51,0-1.96.18-.37.34-.42.71-.4,1.32.03.61.24,1.16.21,1.69h-9.3c.26-.4.45-.9.56-1.48ZM151.66,182.01c1.72-1.45,2.7-2.67,3.2-3.96.03-.55-.34-.74-1.27-.74-1.88,0-4.28.24-5.76.4v-2.99h28.02v3.04c-3.59,0-7.3-.45-10.92-.45-1.14.11-1.72.61-2.14,1.19-.34.42-.74,1.35.03,1.45l8.19.03c.45.98,1.27,1.98,2.14,2.85,1.27,1.16,2.35,2.19,3.38,3.62h-9.81c-.03-.77-1.24-3.49-1.93-4.44-.63-.66-1.3-.74-2.01-.74h-1.88c-.71,0-1.35.26-1.96.79-.87,1.27-1.72,2.96-2.01,4.39h-9.81c1.03-1.56,3.22-3.25,4.52-4.44Z"/>
        <path class="cls-3" d="M195.07,186.58c.18-1.82.26-3.62.24-5.18l3.36-.9c.11,0,.13-.03.13-.08h1.08c.16,1.27.32,2.51.4,4.02.11,1.77.19,3.54.69,4.78.48.58,1.11.77,2.06.77,2.38,0,3.86-.74,6-1.11l-.32,4.52c-1.74.13-3.62.13-6.11.13h-8.41c-.19-2.11.58-4.52.87-6.95ZM194.22,175.06h14.25v4.36c-1.45-.05-3.01-.55-4.44-.55s-3.28.16-4.18,1.06h-1.08c-1.24-.74-3.83-1.01-4.55-1.06v-3.81ZM210.66,183.33c-.13-3.51-.13-6.24.05-8.99h4.7c-.4,1.82-.58,4.41-.58,6.87,0,1.27.48,1.43,1.19,1.43h1.11c.61,0,1.11-.26,1.14-1.19,0-2.35-.24-4.97-.74-7.11h5.52c-.19,1.85-.19,4.1-.05,6.34.11,2.48.34,4.92.5,7.43.32,2.72.42,4.94.42,6.79h-6.05c.18-2.01.29-4.23.29-6.37-.03-1.08-.45-2.14-1.03-2.14h-1.11c-.69,0-1.21.66-1.21,1.88,0,1.98.11,4.57.26,6.63h-4.78c.42-3.36.61-6.98.37-11.58Z"/>
        <path class="cls-3" d="M241.1,190.39c2.03.37,3.59.5,5.52.53,1.74,0,3.49-.03,5.31-.32.42-.24.4-.85.37-1.24-.03-.45-.11-.98-.27-1.37h8.72c-.13.58-.27,1.19-.19,1.9.05.5.29.74.71.87,1.77.11,3.12.19,4.94.13,1.77-.05,3.67-.42,5.52-.58v3.89h-30.66v-3.81ZM241.76,174.98h29.34v2.83c-3.94.03-7.43-.5-10.97-.45-2.67.05-4.86.29-6.77.82-1.06-.34-2.27-.53-3.73-.58-2.19-.11-5.13-.05-7.88.29v-2.91ZM255.95,184.99c.4,0,1.93,0,2.56-.32.69-.79.82-1.9.98-3.2.13-1,.16-2.14.03-2.93l8.51.11c-.5.74-.79,1.61-1.14,2.93-.29,1.16-.27,2.09-.11,2.93.21.34.58.48,1.19.48.98,0,1.9-.16,2.91-.27v2.3h-28.92v-2.59c4.02,0,9.99.56,13.98.56ZM253.33,178.76c-.29,1.85-.05,4.57,1.61,5.97l-5.74-.18c-3.01-.77-3.94-2.7-4.31-5.23l8.43-.55Z"/>
      </g>
      <g>
        <path class="cls-2" d="M73.39,325.95v24.02h-26.61v-24.02H0v-19.79h120.17v19.79h-46.78ZM117.25,237.1v22.52h-7.46v34.39h-28.07v-34.39h-35.67l-9.06,34.39H8.92l9.06-34.39H2.92v-22.52h114.33Z"/>
        <path class="cls-2" d="M142.98,237.1h59.21v21.15h-34.8v69.88h34.8v21.16h-59.21v-112.19ZM270.9,349.29h-24.42v-50.36h-9.94v50.36h-24.42v-114.92h24.42v44.77h9.94v-44.77h24.42v114.92Z"/>
        <path class="cls-2" d="M298.09,238.47h116.96v21.15h-16.08v26.89h16.81v21.16h-46.05v21.84h46.93v19.79h-120.17v-19.79h46.64v-21.84h-45.76v-21.16h17.25v-26.89h-16.52v-21.15ZM341.22,286.51h31.14v-26.89h-31.14v26.89Z"/>
      </g>
      <g>
        <path class="cls-1" d="M83.74,383.48v4.38h-3.38v-4.38h-7.71v-2.52h18.8v2.52h-7.71ZM89.81,371.47v6.9h-3.38v-6.9h-7.01l-1.69,6.9h-3.61l1.67-6.9h-2.66v-2.53h17.87v2.53h-1.18Z"/>
        <path class="cls-1" d="M102.59,383.48h-4.26v-2.52h18.8v2.52h-3.54v4.38h-3.38v-4.38h-4.31l-1.09,4.38h-3.31l1.09-4.38ZM98.79,372.77h14.49v-1.06h-14.49v-2.52h17.87v6.11h-14.49v1.02h14.49v2.52h-17.87v-6.07Z"/>
        <path class="cls-1" d="M135.09,380.41v2.94h-3.38v-2.94h-7.71v-2.52h18.8v2.52h-7.71ZM142.34,368.94v7.34h-17.87v-7.34h17.87ZM124.46,382.26h3.38v3.08h14.49v2.52h-17.87v-5.6ZM127.85,371.24v2.75h11.11v-2.75h-11.11Z"/>
        <path class="cls-1" d="M157.96,373.81c.56,0,1.03.08,1.42.24.39.16.71.39.95.68.24.3.42.64.53,1.04.12.4.17.84.17,1.32v.53c0,.48-.06.92-.17,1.32-.12.4-.29.75-.53,1.04s-.56.52-.95.68c-.39.16-.87.24-1.42.24h-.81v3.84h5.28v2.53h-13.47v-2.53h4.82v-3.84h-.81c-.56,0-1.03-.08-1.42-.24-.39-.16-.71-.39-.95-.68-.24-.29-.42-.64-.53-1.04-.12-.4-.17-.84-.17-1.32v-.53c0-.48.06-.92.17-1.32.12-.4.29-.75.53-1.04.24-.29.56-.52.95-.68.39-.16.87-.24,1.42-.24h5ZM161.51,372.3h-12.08v-2.53h4.35v-1.99h3.38v1.99h4.35v2.53ZM155.46,379.08c.91,0,1.54-.12,1.9-.35.35-.23.53-.67.53-1.32v-.12c0-.65-.18-1.09-.53-1.32-.36-.23-.99-.35-1.9-.35s-1.54.12-1.9.35c-.36.23-.53.67-.53,1.32v.12c0,.65.18,1.09.53,1.32.35.23.99.35,1.9.35ZM167.06,376.38h2.59v2.52h-2.59v8.84h-3.38v-19.26h3.38v7.9Z"/>
        <path class="cls-1" d="M194.4,387.74h-9.14v-18.8h9.14v2.53h-6v13.75h6v2.52ZM199.84,376.38h2.29v-7.9h3.15v19.26h-3.15v-8.84h-2.29v8.84h-3.15v-19.26h3.15v7.9Z"/>
        <path class="cls-1" d="M231.01,380.68h-3.4v4.54h3.54v2.52h-18.8v-2.52h3.24l1.13-4.54h-4.24v-2.52h3.03v-6.46h-2.92v-2.52h18.29v2.52h-2.85v6.46h2.96v2.52ZM218.9,378.16h5.76v-6.46h-5.76v6.46ZM218.9,385.22h5.32v-4.54h-4.19l-1.13,4.54Z"/>
        <path class="cls-1" d="M266.84,380.68h-7.57v4.54h7.71v2.52h-18.8v-2.52h7.71v-4.54h-7.57v-2.52h3.03v-6.46h-2.92v-2.52h18.29v2.52h-2.85v6.46h2.96v2.52ZM254.73,378.16h5.76v-6.46h-5.76v6.46Z"/>
        <path class="cls-1" d="M285.46,368.94v2.53h-1.39v7.01h-3.38v-7.01h-2.29l-2.27,7.01h-3.38l2.27-7.01h-2.11v-2.53h12.55ZM276.82,387.74c-.42,0-.81-.07-1.17-.21-.36-.14-.68-.34-.95-.61-.27-.27-.48-.59-.64-.97-.15-.38-.23-.81-.23-1.28v-1.58c0-.48.08-.9.23-1.28.15-.38.37-.7.64-.97.27-.27.59-.47.95-.61.36-.14.75-.21,1.17-.21h11.67c.42,0,.81.07,1.17.21.36.14.68.34.95.61.27.27.48.6.64.97.15.38.23.81.23,1.28v1.58c0,.48-.08.9-.23,1.28-.15.38-.37.7-.64.97-.27.27-.59.47-.95.61-.36.14-.75.21-1.17.21h-11.67ZM278.53,382.53c-.57,0-.95.1-1.15.3-.19.2-.29.55-.29,1.04s.1.84.29,1.04c.19.2.58.3,1.15.3h8.24c.57,0,.95-.1,1.15-.3.19-.2.29-.55.29-1.04s-.1-.84-.29-1.04c-.19-.2-.57-.3-1.15-.3h-8.24ZM291.24,372.21h2.59v2.52h-2.59v3.75h-3.38v-10h3.38v3.73Z"/>
        <path class="cls-1" d="M310.43,368.94v18.8h-11.16v-18.8h11.16ZM302.42,371.47v13.75h4.86v-13.75h-4.86ZM316.92,376.38h2.59v2.52h-2.59v8.84h-3.38v-19.26h3.38v7.9Z"/>
        <path class="cls-1" d="M328.84,369.18v-1.39h3.38v1.39h4.58v2.52h-1.62v16.04h-3.38v-16.04h-1.97l-1.92,16.04h-3.38l1.9-16.04h-2.18v-2.52h4.58ZM342.59,376.38h2.59v2.52h-2.59v8.84h-3.38v-19.26h3.38v7.9Z"/>
      </g>
      <rect class="cls-1" x="2.92" y="376.1" width="58.67" height="2.52"/>
      <rect class="cls-1" x="357.99" y="376.1" width="58.67" height="2.52"/>
    </g>
  </g>
</svg>