<?xml version="1.0" encoding="utf-8"?>
<!-- Generator: Adobe Illustrator 24.2.0, SVG Export Plug-In . SVG Version: 6.00 Build 0)  -->
<svg version="1.1" id="line" xmlns="http://www.w3.org/2000/svg" xmlns:xlink="http://www.w3.org/1999/xlink" x="0px" y="0px"
	 viewBox="0 0 57 57" style="enable-background:new 0 0 57 57;" xml:space="preserve">
<path d="M4.7,25.5c0.1,0,0.1,0,0.2,0c0.5,0,0.9-0.4,1-0.8C7.5,15,15,7.5,24.7,5.8c0.5-0.1,0.9-0.6,0.8-1.2s-0.6-0.9-1.2-0.8
	C13.9,5.6,5.6,13.9,3.9,24.4C3.8,24.9,4.1,25.4,4.7,25.5C4.7,25.5,4.7,25.5,4.7,25.5z"/>
<path d="M52.3,31.5c-0.5-0.1-1.1,0.3-1.2,0.8c0,0,0,0,0,0C49.6,42,42,49.6,32.4,51.2c-0.5,0.1-0.9,0.6-0.8,1.2
	c0.1,0.5,0.5,0.8,1,0.8c0.1,0,0.1,0,0.2,0c10.5-1.8,18.7-10,20.5-20.5C53.3,32.1,52.9,31.6,52.3,31.5C52.3,31.5,52.3,31.5,52.3,31.5
	z"/>
<path d="M24.7,51.2C15,49.6,7.5,42,5.8,32.4c-0.1-0.5-0.6-0.9-1.2-0.8s-0.9,0.6-0.8,1.2c1.8,10.5,10,18.7,20.5,20.5
	c0.1,0,0.1,0,0.2,0c0.6,0,1-0.4,1-1C25.5,51.7,25.2,51.3,24.7,51.2L24.7,51.2z"/>
<path d="M32.4,5.8C42,7.5,49.6,15,51.2,24.7c0.1,0.5,0.5,0.8,1,0.8c0.1,0,0.1,0,0.2,0c0.5-0.1,0.9-0.6,0.8-1.2c0,0,0,0,0,0
	c-1.8-10.5-10-18.7-20.5-20.5c-0.5-0.1-1.1,0.3-1.2,0.8C31.4,5.2,31.8,5.8,32.4,5.8z"/>
<path d="M25.5,8.7c-0.1-0.5-0.6-0.9-1.2-0.8C16.1,9.6,9.6,16.1,7.9,24.3c-0.1,0.5,0.2,1.1,0.8,1.2c0.1,0,0.1,0,0.2,0
	c0.5,0,0.9-0.3,1-0.8c1.5-7.5,7.3-13.3,14.8-14.8C25.3,9.8,25.6,9.3,25.5,8.7z"/>
<path d="M32.5,49.1c0.1,0,0.1,0,0.2,0C41,47.4,47.4,41,49.1,32.7c0.1-0.5-0.2-1.1-0.8-1.2s-1.1,0.2-1.2,0.8
	c-1.5,7.5-7.3,13.3-14.8,14.8c-0.5,0.1-0.9,0.6-0.8,1.2C31.6,48.8,32,49.1,32.5,49.1L32.5,49.1z"/>
<path d="M8.7,31.5c-0.5,0.1-0.9,0.6-0.8,1.2c1.7,8.3,8.1,14.7,16.4,16.4c0.1,0,0.1,0,0.2,0c0.6,0,1-0.4,1-1c0-0.5-0.3-0.9-0.8-1
	c-7.5-1.5-13.3-7.3-14.8-14.8C9.8,31.8,9.3,31.4,8.7,31.5z"/>
<path d="M48.1,25.5c0.1,0,0.1,0,0.2,0c0.5-0.1,0.9-0.6,0.8-1.2C47.4,16.1,41,9.6,32.7,7.9c-0.5-0.1-1.1,0.2-1.2,0.8
	c-0.1,0.5,0.2,1.1,0.8,1.2l0,0c7.5,1.5,13.3,7.3,14.8,14.8C47.2,25.2,47.6,25.5,48.1,25.5z"/>
<path d="M28.5,12.5c0.6,0,1-0.4,1-1c0,0,0,0,0,0v-10c0-0.6-0.4-1-1-1s-1,0.4-1,1v10C27.5,12.1,28,12.5,28.5,12.5
	C28.5,12.5,28.5,12.5,28.5,12.5z"/>
<path d="M12.5,28.5c0-0.6-0.4-1-1-1c0,0,0,0,0,0h-10c-0.6,0-1,0.4-1,1s0.4,1,1,1h10C12.1,29.5,12.5,29.1,12.5,28.5
	C12.5,28.5,12.5,28.5,12.5,28.5z"/>
<path d="M28.5,44.5c-0.6,0-1,0.4-1,1c0,0,0,0,0,0v10c0,0.6,0.4,1,1,1s1-0.4,1-1v-10C29.5,45,29.1,44.5,28.5,44.5
	C28.5,44.5,28.5,44.5,28.5,44.5z"/>
<path d="M55.5,27.5h-10c-0.6,0-1,0.4-1,1s0.4,1,1,1h10c0.6,0,1-0.4,1-1S56.1,27.5,55.5,27.5z"/>
<path d="M41.5,38v-2.7c0-2.7-1.7-5.1-4.3-5.9l-4.7-1.6c3.3-2.2,4.3-6.7,2.1-10c-2.2-3.3-6.7-4.3-10-2.1s-4.3,6.7-2.1,10
	c0.5,0.8,1.3,1.5,2.1,2.1l-4.7,1.6c-2.6,0.8-4.3,3.2-4.3,5.9V38c0,1.4,1.1,2.5,2.5,2.5h21C40.4,40.5,41.5,39.4,41.5,38z M23.3,21.8
	c0-2.9,2.3-5.2,5.2-5.2s5.2,2.3,5.2,5.2c0,2.9-2.3,5.2-5.2,5.2C25.6,27,23.3,24.7,23.3,21.8z M17.5,38v-2.7c0-1.8,1.2-3.4,2.9-4
	l5.7-1.9c1.6-0.5,3.2-0.5,4.8,0l5.7,1.9c1.7,0.6,2.9,2.2,2.9,4V38c0,0.3-0.2,0.5-0.5,0.5H18C17.8,38.5,17.5,38.3,17.5,38z"/>
</svg>
