<svg id="Layer_1" viewBox="0 0 512 512" xmlns="http://www.w3.org/2000/svg" data-name="Layer 1"><path d="m80.995 156.207c-1.656-2.87-.674-6.54 2.196-8.196 2.872-1.657 6.54-.672 8.196 2.196l10.488 18.167c1.656 2.87.674 6.539-2.196 8.196-.945.545-1.977.805-2.994.805-2.074 0-4.091-1.076-5.202-3.001zm-35.23 63.885-18.166-10.488c-2.871-1.656-6.539-.672-8.196 2.196-1.656 2.87-.674 6.539 2.196 8.196l18.166 10.488c.945.545 1.977.805 2.994.805 2.074 0 4.091-1.076 5.202-3.001 1.656-2.87.674-6.539-2.196-8.196zm169.582 248.968c0 3.313-2.687 6-6 6h-8.002v7.471c0 10.736-8.734 19.47-19.47 19.47h-23.091c-10.736 0-19.471-8.734-19.471-19.47v-7.471h-8.001c-3.313 0-6-2.687-6-6s2.687-6 6-6h78.034c3.313 0 6 2.687 6 6zm-26.002 6h-38.031v7.471c0 4.119 3.352 7.47 7.471 7.47h23.091c4.119 0 7.47-3.351 7.47-7.47v-7.471zm20.002-37.813h-78.034c-3.313 0-6 2.687-6 6s2.687 6 6 6h78.034c3.313 0 6-2.687 6-6s-2.687-6-6-6zm62.712-169.111c.226 2.765.346 5.559.346 8.38 0 34.399-11.296 47.946-22.22 61.046-6.042 7.247-11.75 14.092-16.185 24.783-5.301 12.779-11.293 32.275-15.259 45.176-1.565 5.093-2.802 9.116-3.706 11.816-.818 2.447-3.109 4.096-5.689 4.096h-78.034c-2.58 0-4.871-1.649-5.689-4.096-.904-2.699-2.14-6.721-3.705-11.813-3.966-12.902-9.959-32.398-15.261-45.179-4.435-10.691-10.142-17.536-16.185-24.783-10.924-13.1-22.219-26.646-22.219-61.046 0-54.851 43.49-99.728 97.797-101.979-.438-1.235-.861-2.476-1.252-3.725l-15.876-2.134c-5.653-.759-10.007-5.062-10.831-10.707-1.825-12.489-1.825-25.153 0-37.642.824-5.645 5.178-9.948 10.833-10.707l15.879-2.133c1.878-5.998 4.297-11.828 7.222-17.411l-9.724-12.743c-3.46-4.532-3.497-10.651-.093-15.226 7.536-10.125 16.494-19.083 26.625-26.625 4.578-3.405 10.695-3.367 15.228.092l12.743 9.724c5.579-2.924 11.409-5.342 17.408-7.221l2.135-15.883c.758-5.652 5.06-10.005 10.705-10.832 12.488-1.827 25.153-1.826 37.644 0 5.646.826 9.947 5.18 10.705 10.833l2.134 15.881c5.996 1.877 11.824 4.295 17.408 7.221l12.745-9.726c4.531-3.46 10.65-3.498 15.227-.091 10.124 7.536 19.081 16.494 26.623 26.625 3.405 4.575 3.369 10.695-.091 15.228l-9.72 12.736c2.923 5.578 5.342 11.41 7.222 17.416l15.877 2.133c5.652.759 10.006 5.061 10.832 10.704 1.826 12.487 1.826 25.152 0 37.645-.826 5.646-5.18 9.948-10.832 10.707l-15.881 2.133c-1.879 6-4.297 11.83-7.222 17.41l9.725 12.742c3.459 4.532 3.496 10.651.092 15.227-7.537 10.126-16.495 19.083-26.625 26.625-4.575 3.404-10.693 3.367-15.226-.09l-12.744-9.726c-5.582 2.924-11.412 5.342-17.409 7.22l-2.135 15.884c-.758 5.652-5.06 10.006-10.705 10.832-4.171.61-8.401.999-12.637 1.201zm-101.797-108.697c2.393.321 4.359 2.045 4.991 4.375 1.013 3.73 2.271 7.415 3.744 11 45.438 3.839 82.494 37.565 91.377 81.397 4.221-.16 8.432-.541 12.586-1.149.33-.048.504-.224.549-.554l2.653-19.75c.321-2.393 2.045-4.359 4.374-4.992 7.66-2.08 15.049-5.144 21.963-9.108 2.095-1.201 4.706-1.029 6.624.436l15.845 12.092c.266.202.515.204.782.004 9.193-6.843 17.323-14.973 24.164-24.163.199-.268.197-.517-.005-.782l-12.092-15.844c-1.465-1.92-1.637-4.53-.436-6.625 3.965-6.912 7.029-14.301 9.11-21.963.633-2.33 2.599-4.053 4.991-4.375l19.745-2.652c.331-.045.508-.22.557-.551 1.657-11.339 1.657-22.836 0-34.17-.049-.329-.226-.504-.557-.548l-19.741-2.652c-2.393-.322-4.358-2.045-4.991-4.374-2.084-7.672-5.149-15.063-9.11-21.968-1.202-2.095-1.03-4.706.435-6.626l12.088-15.838c.202-.265.204-.514.004-.782-6.845-9.194-14.975-17.325-24.163-24.164-.267-.199-.514-.198-.78.004l-15.848 12.093c-1.918 1.465-4.527 1.637-6.624.436-6.918-3.967-14.307-7.031-21.96-9.108-2.33-.632-4.054-2.599-4.375-4.992l-2.653-19.748c-.045-.332-.219-.508-.549-.556-11.337-1.657-22.834-1.658-34.171 0-.33.048-.504.224-.549.554l-2.654 19.75c-.321 2.392-2.045 4.358-4.374 4.991-7.661 2.08-15.05 5.144-21.96 9.108-2.096 1.203-4.706 1.03-6.625-.435l-15.846-12.092c-.266-.203-.515-.204-.782-.005-9.195 6.844-17.325 14.974-24.163 24.163-.199.268-.198.516.005.781l12.091 15.845c1.465 1.919 1.637 4.529.436 6.624-3.966 6.916-7.03 14.306-9.11 21.964-.633 2.33-2.599 4.053-4.991 4.375l-19.744 2.652c-.331.045-.508.219-.557.549-1.656 11.337-1.656 22.834 0 34.171.049.33.225.505.556.549l19.741 2.653zm-20.769 127.113c0-8.202-6.673-14.875-14.876-14.875s-14.874 6.673-14.874 14.875 6.673 14.875 14.874 14.875h14.876zm12 124.882h16.238v-98.006h-16.238zm98.912-134.917c0-49.667-40.408-90.075-90.076-90.075s-90.075 40.408-90.075 90.075c0 30.053 9.007 40.854 19.436 53.361 6.055 7.262 12.919 15.494 18.052 27.87 5.521 13.307 11.614 33.132 15.646 46.251.846 2.751 1.626 5.288 2.299 7.435h13.807v-98.006h-14.876c-14.818 0-26.874-12.056-26.874-26.875s12.056-26.875 26.874-26.875 26.876 12.056 26.876 26.875v14.875h16.238v-14.875c0-14.819 12.056-26.875 26.875-26.875s26.876 12.056 26.876 26.875-12.057 26.875-26.876 26.875h-14.875v98.006h15.241c.673-2.147 1.453-4.686 2.3-7.438 4.032-13.118 10.125-32.941 15.645-46.248 5.134-12.376 11.997-20.608 18.053-27.87 10.429-12.507 19.436-23.309 19.436-53.361zm-55.799 24.911c8.203 0 14.876-6.673 14.876-14.875s-6.673-14.875-14.876-14.875-14.875 6.673-14.875 14.875v14.875zm-.253-162.276c0-33.922 27.599-61.521 61.521-61.521s61.521 27.598 61.521 61.521-27.598 61.521-61.521 61.521-61.521-27.598-61.521-61.521zm12 0c0 27.306 22.215 49.521 49.521 49.521s49.521-22.215 49.521-49.521-22.215-49.521-49.521-49.521-49.521 22.215-49.521 49.521zm274.637 80.742-139.704 241.973c-.518.897-1.268 1.66-2.196 2.196l-64.321 37.136c-.929.536-1.964.804-3 .804s-2.071-.268-3-.804c-1.856-1.072-3-3.053-3-5.196v-74.272c0-1.072.285-2.103.803-3l139.704-241.974c4.963-8.596 15.993-11.549 24.588-6.588l43.539 25.137c4.156 2.399 7.131 6.282 8.377 10.933 1.246 4.65.61 9.5-1.789 13.656zm-34.111 35.081-53.93-31.137-112.986 195.696 53.93 31.136 112.986-195.696zm-122.79 203.892-46.322-26.744v53.488s46.322-26.744 46.322-26.744zm147.099-249.524c-.417-1.554-1.406-2.849-2.786-3.645l-43.539-25.137c-2.866-1.656-6.543-.669-8.195 2.196l-17.718 30.688 53.93 31.136 17.718-30.688c.797-1.38 1.007-2.997.591-4.551zm-68.203 59.385c-2.872-1.656-6.539-.672-8.196 2.196l-74.3 128.692c-1.656 2.87-.674 6.54 2.196 8.196.945.545 1.977.805 2.994.805 2.074 0 4.091-1.076 5.202-3.001l74.3-128.692c1.656-2.87.674-6.539-2.196-8.196z"/></svg>