<svg id="레이어_1" height="512" viewBox="0 0 512 512" width="512" xmlns="http://www.w3.org/2000/svg"><path d="m40 418.5c-2.761 0-5-2.238-5-5v-315c0-2.085 1.293-3.951 3.246-4.682 1.953-.73 4.154-.175 5.523 1.397l103.196 118.422 105.298-118.459c.949-1.067 2.309-1.678 3.737-1.678s2.788.611 3.737 1.678l105.297 118.459 103.197-118.422c1.37-1.573 3.571-2.129 5.523-1.397 1.952.731 3.246 2.597 3.246 4.682v315c0 2.762-2.238 5-5 5zm276.776-10h150.224v-296.652l-204.368 234.521zm-108.286 0h95.021l-47.511-54.521zm-163.49 0h150.225l54.143-62.131-204.368-234.521zm108.59-187.262 102.41 117.52 102.41-117.52-102.41-115.212z" fill="rgb(0,0,0)"/></svg>