<svg id="레이어_1" height="512" viewBox="0 0 512 512" width="512" xmlns="http://www.w3.org/2000/svg"><path d="m256 463.5c-114.416 0-207.5-93.084-207.5-207.5s93.084-207.5 207.5-207.5 207.5 93.084 207.5 207.5-93.084 207.5-207.5 207.5zm-181.106-128.726c30.481 69.815 100.188 118.726 181.106 118.726 108.902 0 197.5-88.598 197.5-197.5 0-66.72-54.28-121-121-121-24.623 0-48.091 7.282-68.266 21.123 29.487 24.929 46.266 60.964 46.266 99.877 0 41.146-18.758 79.072-51.465 104.056-.004.003-.008.006-.011.008-23.048 17.623-50.546 26.936-79.524 26.936-42.69 0-80.675-20.524-104.606-52.226zm-16.394-78.774c0 66.72 54.28 121 121 121 24.623 0 48.091-7.282 68.266-21.123-29.487-24.929-46.266-60.964-46.266-99.877 0-41.146 18.758-79.072 51.465-104.056.004-.002.007-.005.011-.008 23.049-17.622 50.547-26.936 79.524-26.936 42.69 0 80.675 20.524 104.606 52.226-30.481-69.815-100.187-118.726-181.106-118.726-108.902 0-197.5 88.598-197.5 197.5zm197.5-93.715c-28.331 23.066-44.5 57.004-44.5 93.715s16.169 70.648 44.5 93.715c28.331-23.066 44.5-57.004 44.5-93.715s-16.169-70.649-44.5-93.715z" fill="rgb(0,0,0)"/></svg>