<svg id="레이어_1" height="512" viewBox="0 0 512 512" width="512" xmlns="http://www.w3.org/2000/svg"><path d="m463.381 426.045c-.091-.599-.299-1.188-.641-1.739 0 0-202.212-341.514-202.398-341.829-1.894-3.2-6.847-3.264-8.701 0 0 0-202.235 341.552-202.399 341.829-1.909 3.225.43 7.799 4.34 7.638h404.818c.028.001.058.001.086.001 3.1-.001 5.33-3.048 4.895-5.9zm-207.39-223.122 90.328 156.021h-180.655zm-5-99.721v88.399l-97.688 168.734-85.308 51.927zm-179.669 318.741 87.072-53h195.195l87.071 53zm287.358-61.608-97.688-168.734v-88.399l182.996 309.06z" fill="rgb(0,0,0)"/></svg>