<?xml version="1.0" encoding="utf-8"?>
<!-- Generator: Adobe Illustrator 24.2.0, SVG Export Plug-In . SVG Version: 6.00 Build 0)  -->
<svg version="1.1" id="Layer_1" xmlns="http://www.w3.org/2000/svg" xmlns:xlink="http://www.w3.org/1999/xlink" x="0px" y="0px"
	 viewBox="0 0 512 512" style="enable-background:new 0 0 512 512;" xml:space="preserve">
<path d="M494.4,46.2l-27.1-27.1C447.2-1,412.1-1,391.9,19.1l-35,35c0,0-0.1,0.1-0.1,0.1c0,0-0.1,0.1-0.1,0.1L148,263
	c-2.3,2.3-3.8,5.3-4.2,8.5l-13.5,94.8c-0.7,4.7,0.9,9.4,4.2,12.7c2.8,2.8,6.6,4.4,10.6,4.4c0.7,0,1.4-0.1,2.1-0.1l94.8-13.5
	c3.2-0.4,6.2-1.9,8.5-4.2l208.6-208.7c0,0,0.1-0.1,0.1-0.1c0,0,0.1-0.1,0.1-0.1l35-35c10.1-10.1,15.6-23.4,15.6-37.7
	S504.5,56.3,494.4,46.2L494.4,46.2z M232.9,340.8l-70.1,10l10-70.1L367.4,86.1l60.1,60.1L232.9,340.8z M473.2,100.4L448.7,125
	l-60.1-60.1l24.5-24.5c8.8-8.8,24.2-8.8,33,0l27.1,27.1c4.4,4.4,6.8,10.3,6.8,16.5C480.1,90.2,477.6,96,473.2,100.4L473.2,100.4z
	 M482,268.5v125c0,63.4-51.6,115-115,115H117c-63.4,0-115-51.6-115-115v-250c0-63.4,51.6-115,115-115h125c8.3,0,15,6.7,15,15
	s-6.7,15-15,15H117c-46.9,0-85,38.1-85,85v250c0,46.9,38.1,85,85,85h250c46.9,0,85-38.1,85-85v-125c0-8.3,6.7-15,15-15
	C475.2,253.5,481.9,260.2,482,268.5L482,268.5z"/>
</svg>
