<?xml version="1.0" encoding="utf-8"?>
<!-- Generator: Adobe Illustrator 24.2.0, SVG Export Plug-In . SVG Version: 6.00 Build 0)  -->
<svg version="1.1" id="Layer_1" xmlns="http://www.w3.org/2000/svg" xmlns:xlink="http://www.w3.org/1999/xlink" x="0px" y="0px"
	 viewBox="0 0 410 494" style="enable-background:new 0 0 410 494;" xml:space="preserve">
<style type="text/css">
	.st0{fill-rule:evenodd;clip-rule:evenodd;}
</style>
<g transform="translate(-240 -336)">
	<g id="Icon">
		<path class="st0" d="M500.2,338.7c-17.6,0-204.5,0-204.5,0c-14.1,0-27.7,5.6-37.7,15.6c-10,10-15.6,23.6-15.6,37.7v384
			c0,29.5,23.9,53.3,53.3,53.3h298.7c29.5,0,53.3-23.9,53.3-53.3c0,0,0-272.3,0-289.8c0-8.5-3.4-16.6-9.4-22.6L522.8,348
			C516.8,342,508.6,338.7,500.2,338.7z M551.7,488h64c5.9,0,10.7,4.8,10.7,10.7V776c0,17.7-14.3,32-32,32H295.7
			c-17.7,0-32-14.3-32-32c0-89.2,0-294.8,0-384c0-8.5,3.4-16.6,9.4-22.6c6-6,14.1-9.4,22.6-9.4h192c2.8,0,5.5,1.1,7.5,3.1
			c2,2,3.1,4.7,3.1,7.5v64c0,14.1,5.6,27.7,15.6,37.7C524,482.4,537.5,488,551.7,488z M519.7,375.1v59.6c0,8.5,3.4,16.6,9.4,22.6
			c6,6,14.1,9.4,22.6,9.4h59.6L519.7,375.1z"/>
		<g transform="translate(0 2)">
			<path class="st0" d="M338.3,614h213.3c5.9,0,10.7-4.8,10.7-10.7c0-5.9-4.8-10.7-10.7-10.7H338.3c-5.9,0-10.7,4.8-10.7,10.7
				C327.7,609.2,332.4,614,338.3,614z"/>
		</g>
		<g transform="translate(0 -4)">
			<path class="st0" d="M338.3,556h213.3c5.9,0,10.7-4.8,10.7-10.7c0-5.9-4.8-10.7-10.7-10.7H338.3c-5.9,0-10.7,4.8-10.7,10.7
				C327.7,551.2,332.4,556,338.3,556z"/>
		</g>
		<g transform="translate(0 8)">
			<path class="st0" d="M338.3,672h213.3c5.9,0,10.7-4.8,10.7-10.7c0-5.9-4.8-10.7-10.7-10.7H338.3c-5.9,0-10.7,4.8-10.7,10.7
				C327.7,667.2,332.4,672,338.3,672z"/>
		</g>
		<g transform="translate(0 14)">
			<path class="st0" d="M338.3,730h213.3c5.9,0,10.7-4.8,10.7-10.7c0-5.9-4.8-10.7-10.7-10.7H338.3c-5.9,0-10.7,4.8-10.7,10.7
				C327.7,725.2,332.4,730,338.3,730z"/>
		</g>
	</g>
</g>
</svg>
