<svg id="Capa_1" enable-background="new 0 0 512 512" height="512" viewBox="0 0 512 512" width="512" xmlns="http://www.w3.org/2000/svg"><path id="_x3C_Group_x3E__7_" d="m346 0c-39.836 0-69.038 16.209-97.28 31.885-26.048 14.458-50.652 28.115-82.72 28.115-30.314 0-61.633-15.81-75-23.451v-36.549h-30v512h30v-201.544c18.779 9.068 46.615 19.544 75 19.544 39.835 0 69.039-16.209 97.28-31.885 26.048-14.458 50.653-28.115 82.72-28.115 39.771 0 81.28 27.216 81.68 27.481l23.32 15.547v-276.056c-30.845-20.356-68.492-36.972-105-36.972zm75 259.543c-18.779-9.068-46.615-19.543-75-19.543-39.836 0-69.038 16.209-97.28 31.885-26.048 14.458-50.652 28.115-82.72 28.115-30.319 0-61.644-15.815-75-23.45v-206.094c18.779 9.068 46.615 19.544 75 19.544 39.835 0 69.039-16.209 97.28-31.885 26.048-14.458 50.653-28.115 82.72-28.115 30.316 0 61.643 15.814 75 23.45z"/></svg>