<?xml version="1.0" encoding="UTF-8"?>
<svg id="Layer_2" data-name="Layer 2" xmlns="http://www.w3.org/2000/svg" viewBox="0 0 587.88 403.38">
  <defs>
    <style>
      .cls-1 {
        fill: #1a1a1a;
      }
    </style>
  </defs>
  <g id="B">
    <g>
      <path class="cls-1" d="M587.88,152c-.04-21.19-8.92-41.6-24.28-56.2-1.05-1-2.14-1.99-3.28-2.97-12.68-10.92-25.05-15.42-35.61-19.27-2.59-.94-5.55-1.93-8.83-2.89,20.99,20.85,34.02,49.72,34.02,81.58,0,4.72-.31,9.37-.87,13.96-.62,6.92-1.98,16.76-5.22,28.19-6.99,24.63-18.42,41.43-24.72,50.53-4.99,7.2-12.28,16.67-22.37,26.75,53.26-14.55,91.15-63.54,91.15-119.44,0-.08,0-.17,0-.25Z"/>
      <path class="cls-1" d="M44.06,194.41c-3.24-11.43-4.6-21.28-5.22-28.19-.56-4.59-.87-9.25-.87-13.96,0-31.86,13.03-60.72,34.02-81.58-3.27.96-6.24,1.95-8.83,2.89-10.56,3.84-22.93,8.35-35.61,19.27-1.14.98-2.23,1.97-3.28,2.97C8.92,110.4.04,130.81,0,152c0,.08,0,.17,0,.25,0,55.9,37.89,104.89,91.15,119.44-10.09-10.09-17.38-19.55-22.37-26.75-6.3-9.1-17.73-25.89-24.72-50.53Z"/>
      <path class="cls-1" d="M466.07,1.49c-44.15-6.81-78.41,11.55-89.17,17.94-52.16,31.01-64.16,85.29-66.02,94.47-3.84,18.84-4.84,37.46-4.84,56.55v29.93h-24.18v-29.93c0-19.09-1-37.71-4.84-56.55-1.87-9.18-13.86-63.46-66.02-94.47-10.76-6.4-45.02-24.76-89.17-17.94C51.87,12.29,19.94,76.57,16.97,82.79c8.03-6.26,41.47-31.25,86.85-35.44,1.15-.07,1.92-.1,2.23-.11.09-.04.18-.08.27-.12,10.92-.81,22.5-.41,34.57,1.76,14.26,2.57,49.58,8.92,75.17,40.63,8.94,11.08,14.56,22.64,18.14,33.21.6,2.04,9.17,31.62,9.27,71.68l.08,30.47h100.77l.1-38.09c0-46.25,13.47-74.82,15.38-78.63,3.13-6.19,7.05-12.49,12.02-18.64,25.58-31.71,60.9-38.06,75.17-40.63,12.07-2.17,23.65-2.58,34.57-1.76.09.04.18.08.27.12.31,0,1.08.04,2.23.11,45.38,4.19,78.82,29.18,86.85,35.44-2.96-6.22-34.9-70.51-104.84-81.3Z"/>
      <path class="cls-1" d="M463.16,127.61h-8.44v-.34h-79.73v.34h-.03v8.76h.03v20.78h52.99v69.24c0,11.52-3.82,22.93-10.76,32.13l-73.22,97.05.17-66.54h.07v-37.47h-38.2v151.83h42.07l105.31-139.59c8.08-10.71,12.53-23.99,12.53-37.4v-98.78h-2.78Z"/>
      <path class="cls-1" d="M243.65,289.03h.07l.17,66.54-73.22-97.05c-6.94-9.2-10.76-20.61-10.76-32.13v-99.12h-26.74v.34h-11.23v98.78c0,13.41,4.45,26.69,12.53,37.4l105.31,139.59h42.07v-151.83h-38.2v37.47Z"/>
    </g>
  </g>
</svg>