<?xml version="1.0" encoding="utf-8"?>
<!-- Generator: Adobe Illustrator 24.2.0, SVG Export Plug-In . SVG Version: 6.00 Build 0)  -->
<svg version="1.1" id="Layer_1" xmlns="http://www.w3.org/2000/svg" xmlns:xlink="http://www.w3.org/1999/xlink" x="0px" y="0px"
	 viewBox="0 0 438 432" style="enable-background:new 0 0 438 432;" xml:space="preserve">
<g id="Communication">
	<path d="M388.2,1.9H176.8c-24.9-0.4-45.3,19.5-45.8,44.3v107.7H49.8C24.7,153.3,3.7,173.1,3,198.2v135.3
		c0.7,25.2,21.7,45,46.8,44.3H51v42.5c0,5.3,4.3,9.6,9.6,9.7c2.2,0,4.3-0.7,6.1-2.1l62.9-50.1h131.2c25.2,0.4,45.9-19.7,46.3-44.9
		V225.9h1.5l62.8,50.1c4.2,3.3,10.2,2.7,13.6-1.5c1.4-1.7,2.1-3.8,2.1-6v-42.5h1.2c25.2,0.6,46.1-19.2,46.8-44.3V46.2
		C434.3,21.1,413.3,1.3,388.2,1.9z M291,333c-0.4,16.3-14,29.2-30.3,28.9H127.7c-2.5,0-4.9,0.8-6.8,2.4l-53.9,43v-34.7
		c0-5.9-4.9-10.7-10.8-10.6h-6.4c-16.3,0.6-30.1-12-30.8-28.3V198.2c0.7-16.3,14.5-29,30.8-28.3H131v11.7
		c0.4,24.9,20.9,44.7,45.8,44.3H291V333z M419,181.6c-0.7,16.3-14.5,29-30.8,28.3h-6.4c-5.9,0-10.7,4.7-10.8,10.6v34.7l-53.9-43
		c-1.9-1.6-4.3-2.4-6.8-2.4H176.8c-16,0.4-29.3-12.3-29.8-28.3V46.2c0.4-16,13.7-28.7,29.8-28.3h211.4c16.3-0.6,30.1,12,30.8,28.3
		V181.6z"/>
	<circle cx="99" cy="265.9" r="12"/>
	<circle cx="155" cy="265.9" r="12"/>
	<circle cx="211" cy="265.9" r="12"/>
	<path d="M267,73.9h-64c-4.4,0-8-3.6-8-8s3.6-8,8-8h64c4.4,0,8,3.6,8,8S271.4,73.9,267,73.9z"/>
	<path d="M363,121.9H203c-4.4,0-8-3.6-8-8s3.6-8,8-8h160c4.4,0,8,3.6,8,8S367.4,121.9,363,121.9z"/>
	<path d="M363,169.9h-30.5c-4.4,0-8-3.6-8-8s3.6-8,8-8H363c4.4,0,8,3.6,8,8S367.4,169.9,363,169.9z"/>
	<path d="M299,169.9h-96c-4.4,0-8-3.6-8-8s3.6-8,8-8h96c4.4,0,8,3.6,8,8S303.4,169.9,299,169.9z"/>
</g>
</svg>
