<?xml version="1.0" encoding="utf-8"?>
<!-- Generator: Adobe Illustrator 24.2.0, SVG Export Plug-In . SVG Version: 6.00 Build 0)  -->
<svg version="1.1" id="_x3C_Layer_x3E_" xmlns="http://www.w3.org/2000/svg" xmlns:xlink="http://www.w3.org/1999/xlink" x="0px"
	 y="0px" viewBox="0 0 484 470" style="enable-background:new 0 0 484 470;" xml:space="preserve">
<g id="heart_x2C__love_x2C__care">
	<g id="XMLID_1518_">
		<g id="XMLID_29_">
			<g>
				<path d="M362,469c4.4,0,8-3.6,8-8v-60.7l53.9-42.3c6.8-5.4,15.8-15.9,19.3-24.3l38.1-88.5c0.4-1,0.7-2,0.7-3.2v-77.1
					c0-10-11.3-17.3-22.2-18.6c-13.7-1.7-30.5,5.6-36.9,31.2c-3.3,13.3-4,24.5-4.7,34.4c-0.3,4.4,3,8.5,7.4,8.8
					c4.5,0,8.2-2.7,8.5-7.1c0.7-9.9,1.3-20.3,4.3-32.2c2-8,6.3-17.9,15.6-19.1c6.1-0.9,11.3,2.4,12.2,3.9l-0.3,74.3l-37.5,87.1
					c-2.3,5.6-9.6,14.1-14.5,18l-57,44.6c-1.9,1.5-3,3.9-3,6.3V461C354,465.4,357.6,469,362,469z"/>
			</g>
		</g>
		<g id="XMLID_1605_">
			<g>
				<path d="M122,469c-4.4,0-8-3.6-8-8v-60.7L60.1,358c-6.8-5.4-15.8-15.9-19.3-24.3L2.7,245.2c-0.4-1-0.7-2-0.7-3.2v-77.1
					c0-10,11.3-17.3,22.2-18.6c13.7-1.7,30.5,5.6,36.9,31.2c3.3,13.3,4,24.5,4.7,34.4c0.3,4.4-3,8.5-7.4,8.8c-4.5,0-8.2-2.7-8.5-7.1
					c-0.7-9.9-1.3-20.3-4.3-32.2c-2-8-6.3-17.9-15.6-19.1c-6.1-0.9-11.3,2.4-12.2,3.9l0.3,74.3l37.5,87.1c2.3,5.6,9.6,14.1,14.5,18
					l57,44.6c1.9,1.5,3,3.9,3,6.3V461C130,465.4,126.4,469,122,469L122,469z"/>
			</g>
		</g>
		<g id="XMLID_1602_">
			<g>
				<path d="M218,469c-4.4,0-8-3.6-8-8v-87.4c0-33.7-23.3-63.1-56.6-71.5c-4.3-1.1-6.9-5.4-5.8-9.7s5.4-6.9,9.7-5.8
					c40.5,10.2,68.7,46,68.7,87V461C226,465.4,222.4,469,218,469L218,469z"/>
			</g>
		</g>
		<g id="XMLID_1601_">
			<g>
				<path d="M126.2,331.7c-2,0-4.1-0.8-5.7-2.3l-70.2-70.1c-1.5-1.5-2.3-3.5-2.3-5.7s0.8-4.2,2.3-5.7c2.8-2.8,11.3-11.3,24.5-14.2
					c11.5-2.5,29.4-1.2,49.9,19.3l36.1,36c3.1,3.1,3.1,8.2,0,11.3c-3.1,3.1-8.2,3.1-11.3,0l-36.1-36C97,248,81.7,244.5,67.8,254.1
					l64,63.9c3.1,3.1,3.1,8.2,0,11.3C130.3,330.9,128.2,331.7,126.2,331.7L126.2,331.7z"/>
			</g>
		</g>
		<g id="XMLID_1532_">
			<g id="XMLID_1572_">
				<g>
					<path d="M266,469c-4.4,0-8-3.6-8-8v-87.4c0-41.1,28.3-76.8,68.7-87c4.3-1,8.6,1.5,9.7,5.8c1.1,4.3-1.5,8.6-5.8,9.7
						c-33.3,8.4-56.6,37.8-56.6,71.5V461C274,465.4,270.4,469,266,469L266,469z"/>
				</g>
			</g>
			<g id="XMLID_1568_">
				<g>
					<path d="M357.8,331.7c-2,0-4.1-0.8-5.7-2.3c-3.1-3.1-3.1-8.2,0-11.3l64-63.9c-13.9-9.6-29.2-6.1-45.6,10.3l-36.1,36
						c-3.1,3.1-8.2,3.1-11.3,0c-3.1-3.1-3.1-8.2,0-11.3l36.1-36c20.5-20.5,38.4-21.8,49.9-19.3c13.2,2.9,21.7,11.4,24.5,14.2
						c1.5,1.5,2.3,3.5,2.3,5.7s-0.8,4.2-2.3,5.7l-70.2,70.1C361.9,330.9,359.9,331.7,357.8,331.7L357.8,331.7z"/>
				</g>
			</g>
		</g>
		<g id="XMLID_1519_">
			<g>
				<path d="M357.8,331.7c-2,0-4.1-0.8-5.7-2.3c-3.1-3.1-3.1-8.2,0-11.3l64-63.9c-13.9-9.6-29.2-6.1-45.6,10.3l-36.1,36
					c-3.1,3.1-8.2,3.1-11.3,0c-3.1-3.1-3.1-8.2,0-11.3l36.1-36c20.5-20.5,38.4-21.8,49.9-19.3c13.2,2.9,21.7,11.4,24.5,14.2
					c1.5,1.5,2.3,3.5,2.3,5.7s-0.8,4.2-2.3,5.7l-70.2,70.1C361.9,330.9,359.9,331.7,357.8,331.7L357.8,331.7z"/>
			</g>
		</g>
		<g id="XMLID_1520_">
			<g>
				<path d="M242,277c-1.3,0-2.6-0.3-3.8-0.9c-5.8-3.1-142.9-77.4-142.9-170.1C95.3,59.7,133,22,179.2,22c24.2,0,47,10.4,62.8,28.3
					C257.8,32.5,280.6,22,304.8,22c46.3,0,83.9,37.6,83.9,83.9c0,92.7-137.1,167-142.9,170.1C244.6,276.7,243.3,277,242,277z
					 M179.2,38c-37.4,0-67.9,30.4-67.9,67.9c0,75.2,108.8,141.4,130.7,153.9c21.8-12.5,130.7-78.7,130.7-153.9
					c0-37.4-30.4-67.9-67.9-67.9c-22.5,0-43.5,11.1-56.2,29.8c-3,4.4-10.3,4.4-13.2,0C222.7,49.2,201.7,38,179.2,38L179.2,38z"/>
			</g>
		</g>
		<g id="XMLID_1282_">
			<g id="XMLID_1261_">
				<g id="XMLID_1280_">
					<g id="XMLID_1281_">
						<g>
							<path d="M418.5,71c-3.7,0-7-2.6-7.8-6.3c-0.9-4.3,1.8-8.6,6.2-9.5l23.5-5c4.3-0.9,8.6,1.8,9.5,6.2c0.9,4.3-1.8,8.6-6.2,9.5
								l-23.5,5C419.6,70.9,419,71,418.5,71z"/>
						</g>
					</g>
				</g>
				<g id="XMLID_1263_">
					<g id="XMLID_1278_">
						<g>
							<path d="M405.2,34.4c-2.4,0-4.7-1.1-6.3-3.1c-2.7-3.5-2.1-8.5,1.4-11.2l18.9-14.8c3.5-2.8,8.5-2.1,11.2,1.4
								c2.7,3.5,2.1,8.5-1.4,11.2l-18.9,14.8C408.6,33.9,406.9,34.4,405.2,34.4z"/>
						</g>
					</g>
				</g>
			</g>
			<g id="XMLID_12_">
				<g id="XMLID_987_">
					<g id="XMLID_1152_">
						<g>
							<path d="M65.5,71c-0.6,0-1.1-0.1-1.7-0.2l-23.5-5c-4.3-0.9-7.1-5.2-6.2-9.5c0.9-4.3,5.2-7,9.5-6.2l23.5,5
								c4.3,0.9,7.1,5.2,6.2,9.5C72.5,68.4,69.2,71,65.5,71z"/>
						</g>
					</g>
				</g>
				<g id="XMLID_15_">
					<g id="XMLID_939_">
						<g>
							<path d="M78.9,34.4c-1.7,0-3.5-0.5-4.9-1.7L55,17.9c-3.5-2.7-4.1-7.7-1.4-11.2c2.7-3.5,7.7-4.1,11.2-1.4l19,14.8
								c3.5,2.7,4.1,7.7,1.4,11.2C83.6,33.4,81.2,34.4,78.9,34.4z"/>
						</g>
					</g>
				</g>
			</g>
		</g>
	</g>
</g>
</svg>
