<svg xmlns="http://www.w3.org/2000/svg" viewBox="0 0 259.0491 71.0715"><defs><style>.cls-1{fill:#fff;}.cls-2{fill:#bd1f21;}</style></defs><g id="Layer_2" data-name="Layer 2"><g id="레이어_1" data-name="레이어 1"><polygon class="cls-1" points="46.923 59.182 0 59.182 0 28.251 6.657 28.251 6.657 52.525 40.266 52.525 40.266 47.654 33.609 47.654 33.609 40.997 46.923 40.997 46.923 59.182"/><rect class="cls-1" x="11.2032" y="22.0816" width="6.6569" height="25.4913"/><rect class="cls-1" x="22.4064" y="17.2107" width="6.6569" height="30.3622"/><rect class="cls-2" x="33.6095" width="6.657" height="35.8827"/><rect class="cls-1" x="6.657" y="64.4145" width="33.6095" height="6.657"/><path class="cls-2" d="M82.0579,34.707H69.9681a3.42391,3.42391,0,0,1-2.9678-1.1357l-1.3926-1.4654a3.43615,3.43615,0,0,1-1.0254-2.8945V19.393a1.17737,1.17737,0,0,1,1.3194-1.3554H80.7386v4.0298H69.345v6.7778a.99689.99689,0,0,0,.2569.7329l.7695.8057a.71223.71223,0,0,0,.6592.2934H82.0579Zm8.7197,10.1851v4.0664H71.3597a3.02761,3.02761,0,0,1-2.7471-1.0991l-1.0625-1.0992a3.47249,3.47249,0,0,1-1.0264-3.0039V37.6015h4.6895v5.5318a1.24475,1.24475,0,0,0,.2197.8061l.6963.7329c.1103.1465.3301.2198.6963.2198Zm-.4394-27.7705V25.145h4.249v4.0298h-4.249V40.3857H85.6116V17.1216Z"/><path class="cls-2" d="M97.3714,25.3281V21.1885h7.1445V17.0117h4.6524v4.1768h7.1445v4.1396Zm17.2558,10.1484v3.2974c0,4.7261-2.7841,8.1328-7.7666,8.1328S99.094,43.5,99.094,38.7739V35.4765c0-4.6894,2.7842-8.1333,7.7666-8.1333S114.6272,30.7871,114.6272,35.4765Zm-4.7255,0c0-2.4912-1.1358-4.0669-3.0411-4.0669s-3.041,1.5757-3.041,4.0669v3.2974c0,2.4912,1.1358,4.103,3.041,4.103s3.0411-1.6118,3.0411-4.103ZM123.677,17.1216V30.2373h4.2491v4.0303H123.677V48.519h-4.7265V17.1216Z"/><path class="cls-2" d="M136.2435,18.001V39.1035a1.5668,1.5668,0,0,0,.3662,1.0625l1.1357,1.209a1.06247,1.06247,0,0,0,.916.4394h10.1123v4.0303h-11.248a3.39417,3.39417,0,0,1-3.2237-1.356l-1.6123-1.7949a3.85015,3.85015,0,0,1-1.2089-3.3706V18.001Zm20.7734-.8794V28.7353h4.249v4.0298h-4.249V48.519h-4.7266V17.1216Z"/><path class="cls-1" d="M170.8284,45.9912a3.47231,3.47231,0,0,1-3.2246-1.3555l-1.831-1.9785a3.91346,3.91346,0,0,1-1.1729-3.3706V19.3564a1.17734,1.17734,0,0,1,1.3193-1.3554h13.7383a1.17776,1.17776,0,0,1,1.3194,1.3554V44.5991c0,.9155-.4405,1.3921-1.3194,1.3921Zm5.4219-4.1402V22.104h-6.9238V38.9936a1.35124,1.35124,0,0,0,.4023,1.0625l1.2822,1.3921a1.06775,1.06775,0,0,0,.916.4028Zm14.1055-24.7294V28.8818h4.249v4.1035h-4.249V48.519h-4.7266V17.1216Z"/><path class="cls-1" d="M197.5735,43.3901c3.0039-3.8838,5.0196-6.5947,6.2647-8.4634a14.831,14.831,0,0,0,2.0146-3.8466,4.64885,4.64885,0,0,1-2.8574.6962h-5.3125v-3.957h6.5215a3.76767,3.76767,0,0,0,1.832-.293V22.3242h-8.0595V18.2207h11.3935a1.17707,1.17707,0,0,1,1.3184,1.3554v9.3057h3.7373V17.3413h4.4326v30.958h-4.4326V32.9121h-4.4698a17.9559,17.9559,0,0,1-2.1982,4.0298c-1.4287,2.125-3.6269,4.9824-6.8506,9.0493Zm23.7774-26.2685h4.5058V48.519h-4.5058Z"/><path class="cls-1" d="M247.472,28.0757H236.2249v1.7587a1.02222,1.02222,0,0,0,.1826.6226l.4033.3667a.79129.79129,0,0,0,.5127.2197h12.1631v3.9932H236.0784a3.20146,3.20146,0,0,1-2.748-1.1357l-.8428-.879a3.18228,3.18228,0,0,1-.9522-2.748V18.917c0-.916.4024-1.3926,1.3184-1.3926h15.6807v3.957H236.2249v2.8574H247.472Zm3.2607,9.269c5.7881,0,8.3164,2.2349,8.3164,5.8618,0,3.5904-2.5283,5.9351-8.3164,5.9351h-8.9394c-5.8252,0-8.2803-2.3447-8.2803-5.9351,0-3.6269,2.4922-5.8618,8.2803-5.8618Zm.3291,7.8403c2.4922,0,3.334-.7695,3.334-1.9785s-.8418-1.9414-3.334-1.9414h-9.5615c-2.5645,0-3.4072.7324-3.4072,1.9414s.8427,1.9785,3.4072,1.9785Zm7.291-28.0634v18.831h-4.6894V17.1216Z"/><path class="cls-1" d="M86.1634,60.0229a4.27625,4.27625,0,0,1,1.664-1.709,5.10744,5.10744,0,0,1,4.8496,0,4.27992,4.27992,0,0,1,1.6631,1.709,5.56783,5.56783,0,0,1,0,5.0039,4.273,4.273,0,0,1-1.6631,1.709,5.10744,5.10744,0,0,1-4.8496,0,4.26929,4.26929,0,0,1-1.664-1.709,5.57622,5.57622,0,0,1,0-5.0039Zm5.8877,5.7842a3.23442,3.23442,0,0,0,1.2187-1.3218,4.60165,4.60165,0,0,0,0-3.9209,3.23353,3.23353,0,0,0-1.2187-1.3217,3.68495,3.68495,0,0,0-3.6045,0,3.18239,3.18239,0,0,0-1.2188,1.3217,4.65847,4.65847,0,0,0,0,3.9209,3.18325,3.18325,0,0,0,1.2188,1.3218,3.68563,3.68563,0,0,0,3.6045,0Z"/><path class="cls-1" d="M103.9095,67.2451h-1.3028l-4.8623-7.3252v7.3252H96.5325V57.8047h1.2891l4.8623,7.3125V57.8047h1.2256Z"/><path class="cls-1" d="M112.0208,58.875h-4.8105v2.9795h4.1396v1.0571h-4.1396v3.2632h4.8105v1.0703h-6.0225V57.8047h6.0225Z"/><path class="cls-1" d="M123.2679,58.875h-2.7217v8.3701h-1.2246V58.875h-2.7217V57.8047h6.668Z"/><path class="cls-1" d="M132.0882,67.2451h-1.2246V62.9248h-4.6299v4.3203h-1.2129V57.8047h1.2129v4.0625h4.6299V57.8047h1.2246Z"/><path class="cls-1" d="M135.4681,57.8047v9.4404h-1.2129V57.8047Z"/><path class="cls-1" d="M144.9729,67.2451h-1.3027l-4.8623-7.3252v7.3252H137.596V57.8047h1.2891l4.8623,7.3125V57.8047h1.2255Z"/><path class="cls-1" d="M155.845,63.1181a4.338,4.338,0,0,1-.5615,2.2505,3.71229,3.71229,0,0,1-1.5606,1.4507,5.28689,5.28689,0,0,1-2.3017.5288,4.79533,4.79533,0,0,1-2.4248-.6123,4.26889,4.26889,0,0,1-1.6641-1.709,5.17,5.17,0,0,1-.5928-2.5019,5.105,5.105,0,0,1,.5997-2.4893,4.323,4.323,0,0,1,1.664-1.7085,4.75741,4.75741,0,0,1,2.418-.6128,4.44322,4.44322,0,0,1,2.4629.6577,4.20258,4.20258,0,0,1,1.5088,1.6124l-1.0576.5288a3.19975,3.19975,0,0,0-1.1084-1.2256,3.16373,3.16373,0,0,0-1.8057-.503,3.451,3.451,0,0,0-1.8057.4707,3.22556,3.22556,0,0,0-1.2256,1.3223,4.57309,4.57309,0,0,0,0,3.9077,3.22423,3.22423,0,0,0,1.2256,1.3218,3.44544,3.44544,0,0,0,1.8057.4707,3.75858,3.75858,0,0,0,2.3467-.793,2.62109,2.62109,0,0,0,.8906-2.1347h-3.083V62.3183h4.2822Z"/><path class="cls-1" d="M162.2288,60.126v7.1191h-1.2129V57.8047h1.2901l3.3662,6.0229,3.3525-6.0229h1.3154v9.4404h-1.2246V60.126l-2.8896,5.2104h-1.1084Z"/><path class="cls-1" d="M180.555,67.2451h-1.3028l-.9804-2.6182h-3.9971l-1.0068,2.6182h-1.3018l3.5977-9.4404h1.4443Zm-2.6953-3.6885-1.5733-4.2041-1.6123,4.2041Z"/><path class="cls-1" d="M182.2181,57.8047h3.457a3.153,3.153,0,0,1,1.5283.3613,2.56032,2.56032,0,0,1,1.0313,1.0185,3.0397,3.0397,0,0,1,.3672,1.5088,2.70971,2.70971,0,0,1-.5606,1.69,3.02558,3.02558,0,0,1-1.5801,1.0444l2.5928,3.8174h-1.4834l-2.4893-3.6626H183.431v3.6626h-1.2129Zm4.6621,4.2046a1.81012,1.81012,0,0,0,.497-1.3287,1.70661,1.70661,0,0,0-1.8056-1.8056H183.431v3.6372h2.1406A1.75748,1.75748,0,0,0,186.8802,62.0093Z"/><path class="cls-1" d="M194.2132,61.9961l3.8301,5.249h-1.5352l-3.1465-4.3076-1.1601,1.2768v3.0308h-1.2129V57.8174h1.2129V62.396l4.1132-4.5913h1.6387Z"/><path class="cls-1" d="M205.677,58.875h-4.8105v2.9795h4.1397v1.0571h-4.1397v3.2632h4.8105v1.0703h-6.0224V57.8047h6.0224Z"/><path class="cls-1" d="M213.6995,58.875h-2.7217v8.3701h-1.2246V58.875h-2.7217V57.8047h6.668Z"/><path class="cls-1" d="M216.7054,57.8047v9.4404h-1.2129V57.8047Z"/><path class="cls-1" d="M226.2093,67.2451h-1.3028l-4.8623-7.3252v7.3252h-1.2119V57.8047h1.2891l4.8623,7.3125V57.8047h1.2256Z"/><path class="cls-1" d="M237.0823,63.1181a4.338,4.338,0,0,1-.5615,2.2505,3.71262,3.71262,0,0,1-1.5605,1.4507,5.28768,5.28768,0,0,1-2.3018.5288,4.79533,4.79533,0,0,1-2.4248-.6123,4.26889,4.26889,0,0,1-1.6641-1.709,5.17,5.17,0,0,1-.5927-2.5019,5.1049,5.1049,0,0,1,.5996-2.4893,4.323,4.323,0,0,1,1.664-1.7085,4.75741,4.75741,0,0,1,2.418-.6128,4.44322,4.44322,0,0,1,2.4629.6577,4.20258,4.20258,0,0,1,1.5088,1.6124l-1.0576.5288a3.19975,3.19975,0,0,0-1.1084-1.2256,3.16373,3.16373,0,0,0-1.8057-.503,3.451,3.451,0,0,0-1.8057.4707,3.22556,3.22556,0,0,0-1.2256,1.3223,4.57309,4.57309,0,0,0,0,3.9077,3.22423,3.22423,0,0,0,1.2256,1.3218,3.44544,3.44544,0,0,0,1.8057.4707,3.75858,3.75858,0,0,0,2.3467-.793,2.62109,2.62109,0,0,0,.8906-2.1347h-3.083V62.3183h4.2822Z"/></g></g></svg>