<svg xmlns="http://www.w3.org/2000/svg" viewBox="0 0 259.0491 71.0715"><defs><style>.cls-1{fill:#231916;}.cls-2{fill:#be2221;}</style></defs><g id="Layer_2" data-name="Layer 2"><g id="레이어_1" data-name="레이어 1"><polygon class="cls-1" points="46.923 59.182 0 59.182 0 28.251 6.657 28.251 6.657 52.525 40.266 52.525 40.266 47.654 33.609 47.654 33.609 40.997 46.923 40.997 46.923 59.182"/><rect class="cls-1" x="11.2032" y="22.0817" width="6.6569" height="25.4913"/><rect class="cls-1" x="22.4064" y="17.2107" width="6.6569" height="30.3623"/><rect class="cls-2" x="33.6095" width="6.657" height="35.8827"/><rect class="cls-1" x="6.657" y="64.4145" width="33.6095" height="6.657"/><path class="cls-2" d="M82.0579,34.7073H69.9681a3.42369,3.42369,0,0,1-2.9678-1.1358l-1.3926-1.4653a3.43627,3.43627,0,0,1-1.0254-2.8945V19.3933a1.17744,1.17744,0,0,1,1.3194-1.3555H80.7386v4.0298H69.345v6.7779a.997.997,0,0,0,.2569.7329l.7695.8056a.71229.71229,0,0,0,.6592.2935H82.0579Zm8.7197,10.185v4.0664H71.3597a3.02737,3.02737,0,0,1-2.7471-1.0991l-1.0625-1.0991a3.4726,3.4726,0,0,1-1.0264-3.0039V37.6018h4.6895v5.5317a1.24506,1.24506,0,0,0,.2197.8062l.6963.7329c.1103.1465.3301.2197.6963.2197Zm-.4394-27.7705v8.0235h4.249V29.175h-4.249V40.386H85.6116V17.1218Z"/><path class="cls-2" d="M97.3714,25.3284V21.1887h7.1445V17.012h4.6524v4.1767h7.1445v4.1397Zm17.2558,10.1484v3.2974c0,4.726-2.7841,8.1328-7.7666,8.1328s-7.7666-3.4068-7.7666-8.1328V35.4768c0-4.6894,2.7842-8.1333,7.7666-8.1333S114.6272,30.7874,114.6272,35.4768Zm-4.7255,0c0-2.4912-1.1358-4.0669-3.0411-4.0669s-3.041,1.5757-3.041,4.0669v3.2974c0,2.4912,1.1358,4.103,3.041,4.103s3.0411-1.6118,3.0411-4.103Zm13.7753-18.355V30.2375h4.2491v4.0303H123.677V48.5193h-4.7265V17.1218Z"/><path class="cls-2" d="M136.2435,18.0012V39.1038a1.567,1.567,0,0,0,.3662,1.0625l1.1357,1.2089a1.06257,1.06257,0,0,0,.916.4395h10.1123V45.845h-11.248a3.39417,3.39417,0,0,1-3.2237-1.356l-1.6123-1.7949a3.85015,3.85015,0,0,1-1.2089-3.3706V18.0012Zm20.7734-.8794V28.7356h4.249v4.0298h-4.249V48.5193h-4.7266V17.1218Z"/><path class="cls-1" d="M170.8284,45.9915a3.47252,3.47252,0,0,1-3.2246-1.3555l-1.831-1.9785a3.91346,3.91346,0,0,1-1.1729-3.3706V19.3567a1.17741,1.17741,0,0,1,1.3193-1.3555h13.7383a1.17783,1.17783,0,0,1,1.3194,1.3555V44.5994c0,.9155-.4405,1.3921-1.3194,1.3921Zm5.4219-4.1402V22.1042h-6.9238V38.9939a1.35136,1.35136,0,0,0,.4023,1.0625l1.2822,1.3921a1.06775,1.06775,0,0,0,.916.4028Zm14.1055-24.7295V28.8821h4.249v4.1035h-4.249V48.5193h-4.7266V17.1218Z"/><path class="cls-1" d="M197.5735,43.3904c3.0039-3.8838,5.0196-6.5947,6.2647-8.4634a14.82948,14.82948,0,0,0,2.0146-3.8467,4.64809,4.64809,0,0,1-2.8574.6963h-5.3125v-3.957h6.5215a3.76887,3.76887,0,0,0,1.832-.293V22.3245h-8.0595V18.2209h11.3935a1.17714,1.17714,0,0,1,1.3184,1.3555v9.3057h3.7373V17.3416h4.4326v30.958h-4.4326V32.9124h-4.4698a17.95548,17.95548,0,0,1-2.1982,4.0297c-1.4287,2.125-3.6269,4.9825-6.8506,9.0494Zm23.7774-26.2686h4.5058V48.5193h-4.5058Z"/><path class="cls-1" d="M247.472,28.0759H236.2249v1.7588a1.02258,1.02258,0,0,0,.1826.6226l.4033.3667a.79129.79129,0,0,0,.5127.2197h12.1631v3.9932H236.0784a3.20125,3.20125,0,0,1-2.748-1.1358l-.8428-.8789a3.18228,3.18228,0,0,1-.9522-2.748V18.9172c0-.916.4024-1.3925,1.3184-1.3925h15.6807v3.957H236.2249v2.8574H247.472Zm3.2607,9.2691c5.7881,0,8.3164,2.2348,8.3164,5.8618,0,3.5903-2.5283,5.935-8.3164,5.935h-8.9394c-5.8252,0-8.2803-2.3447-8.2803-5.935,0-3.627,2.4922-5.8618,8.2803-5.8618Zm.3291,7.8403c2.4922,0,3.334-.7695,3.334-1.9785s-.8418-1.9414-3.334-1.9414h-9.5615c-2.5645,0-3.4072.7324-3.4072,1.9414s.8427,1.9785,3.4072,1.9785Zm7.291-28.0635V35.9529h-4.6894V17.1218Z"/><path class="cls-1" d="M86.1634,60.0227a4.27562,4.27562,0,0,1,1.664-1.709,5.10744,5.10744,0,0,1,4.8496,0,4.27928,4.27928,0,0,1,1.6631,1.709,5.56783,5.56783,0,0,1,0,5.0039,4.273,4.273,0,0,1-1.6631,1.709,5.10744,5.10744,0,0,1-4.8496,0,4.26929,4.26929,0,0,1-1.664-1.709,5.57622,5.57622,0,0,1,0-5.0039Zm5.8877,5.7842a3.23442,3.23442,0,0,0,1.2187-1.3218,4.60165,4.60165,0,0,0,0-3.9209,3.23442,3.23442,0,0,0-1.2187-1.3218,3.68563,3.68563,0,0,0-3.6045,0,3.18325,3.18325,0,0,0-1.2188,1.3218,4.65847,4.65847,0,0,0,0,3.9209,3.18325,3.18325,0,0,0,1.2188,1.3218,3.68563,3.68563,0,0,0,3.6045,0Z"/><path class="cls-1" d="M103.9095,67.2449h-1.3028l-4.8623-7.3252v7.3252H96.5325V57.8044h1.2891l4.8623,7.3125V57.8044h1.2256Z"/><path class="cls-1" d="M112.0208,58.8748h-4.8105v2.9794h4.1396v1.0572h-4.1396v3.2632h4.8105v1.0703h-6.0225V57.8044h6.0225Z"/><path class="cls-1" d="M123.2679,58.8748h-2.7217v8.3701h-1.2246V58.8748h-2.7217V57.8044h6.668Z"/><path class="cls-1" d="M132.0882,67.2449h-1.2246V62.9246h-4.6299v4.3203h-1.2129V57.8044h1.2129v4.0625h4.6299V57.8044h1.2246Z"/><path class="cls-1" d="M135.4681,57.8044v9.4405h-1.2129V57.8044Z"/><path class="cls-1" d="M144.9729,67.2449h-1.3027l-4.8623-7.3252v7.3252H137.596V57.8044h1.2891l4.8623,7.3125V57.8044h1.2255Z"/><path class="cls-1" d="M155.845,63.1179a4.338,4.338,0,0,1-.5615,2.2505,3.71354,3.71354,0,0,1-1.5606,1.4507,5.2883,5.2883,0,0,1-2.3017.5288,4.79533,4.79533,0,0,1-2.4248-.6123,4.26889,4.26889,0,0,1-1.6641-1.709,5.1703,5.1703,0,0,1-.5928-2.5019,5.10468,5.10468,0,0,1,.5997-2.4893,4.32238,4.32238,0,0,1,1.664-1.7085,4.75741,4.75741,0,0,1,2.418-.6128,4.4424,4.4424,0,0,1,2.4629.6577,4.203,4.203,0,0,1,1.5088,1.6123l-1.0576.5288a3.2002,3.2002,0,0,0-1.1084-1.2255,3.16373,3.16373,0,0,0-1.8057-.503,3.45011,3.45011,0,0,0-1.8057.4707,3.22556,3.22556,0,0,0-1.2256,1.3223,4.57309,4.57309,0,0,0,0,3.9077,3.22423,3.22423,0,0,0,1.2256,1.3218,3.44637,3.44637,0,0,0,1.8057.4707,3.75918,3.75918,0,0,0,2.3467-.793,2.62109,2.62109,0,0,0,.8906-2.1347h-3.083V62.3181h4.2822Z"/><path class="cls-1" d="M162.2288,60.1257v7.1192h-1.2129V57.8044h1.2901l3.3662,6.023,3.3525-6.023h1.3154v9.4405h-1.2246V60.1257l-2.8896,5.2105h-1.1084Z"/><path class="cls-1" d="M180.555,67.2449h-1.3028l-.9804-2.6182h-3.9971l-1.0068,2.6182h-1.3018l3.5977-9.4405h1.4443Zm-2.6953-3.6885-1.5733-4.2041-1.6123,4.2041Z"/><path class="cls-1" d="M182.2181,57.8044h3.457a3.15188,3.15188,0,0,1,1.5283.3614,2.5597,2.5597,0,0,1,1.0313,1.0185,3.03943,3.03943,0,0,1,.3672,1.5088,2.70991,2.70991,0,0,1-.5606,1.69,3.02616,3.02616,0,0,1-1.5801,1.0444l2.5928,3.8174h-1.4834l-2.4893-3.6626H183.431v3.6626h-1.2129Zm4.6621,4.2046a1.80973,1.80973,0,0,0,.497-1.3286,1.70647,1.70647,0,0,0-1.8056-1.8056H183.431V62.512h2.1406A1.75716,1.75716,0,0,0,186.8802,62.009Z"/><path class="cls-1" d="M194.2132,61.9958l3.8301,5.2491h-1.5352l-3.1465-4.3076-1.1601,1.2768v3.0308h-1.2129V57.8171h1.2129v4.5787l4.1132-4.5914h1.6387Z"/><path class="cls-1" d="M205.677,58.8748h-4.8105v2.9794h4.1397v1.0572h-4.1397v3.2632h4.8105v1.0703h-6.0224V57.8044h6.0224Z"/><path class="cls-1" d="M213.6995,58.8748h-2.7217v8.3701h-1.2246V58.8748h-2.7217V57.8044h6.668Z"/><path class="cls-1" d="M216.7054,57.8044v9.4405h-1.2129V57.8044Z"/><path class="cls-1" d="M226.2093,67.2449h-1.3028l-4.8623-7.3252v7.3252h-1.2119V57.8044h1.2891l4.8623,7.3125V57.8044h1.2256Z"/><path class="cls-1" d="M237.0823,63.1179a4.338,4.338,0,0,1-.5615,2.2505,3.71387,3.71387,0,0,1-1.5605,1.4507,5.28909,5.28909,0,0,1-2.3018.5288,4.79533,4.79533,0,0,1-2.4248-.6123,4.26889,4.26889,0,0,1-1.6641-1.709,5.17025,5.17025,0,0,1-.5927-2.5019,5.10463,5.10463,0,0,1,.5996-2.4893,4.32238,4.32238,0,0,1,1.664-1.7085,4.75741,4.75741,0,0,1,2.418-.6128,4.4424,4.4424,0,0,1,2.4629.6577,4.203,4.203,0,0,1,1.5088,1.6123l-1.0576.5288a3.2002,3.2002,0,0,0-1.1084-1.2255,3.16373,3.16373,0,0,0-1.8057-.503,3.45011,3.45011,0,0,0-1.8057.4707,3.22556,3.22556,0,0,0-1.2256,1.3223,4.57309,4.57309,0,0,0,0,3.9077,3.22423,3.22423,0,0,0,1.2256,1.3218,3.44637,3.44637,0,0,0,1.8057.4707,3.75918,3.75918,0,0,0,2.3467-.793,2.62109,2.62109,0,0,0,.8906-2.1347h-3.083V62.3181h4.2822Z"/></g></g></svg>