<svg xmlns="http://www.w3.org/2000/svg" viewBox="0 0 1296.66 1215.11"><defs><style>.cls-1{fill:#4b4545;opacity:0.3;isolation:isolate;}</style></defs><g id="Layer_2" data-name="Layer 2"><g id="Layer_1-2" data-name="Layer 1"><path class="cls-1" d="M619,774.05c13.22-129.28,121.32-239.22,92.36-373.87C700.6,350.12,669,304,615.75,295.09,548.33,283.84,488.67,332.94,454.13,386c-18.05,27.72-32,57.83-45.53,88-16,35.68-31.88,71.43-45.91,108C337.23,648.23,317.27,718.58,319,790.29c1.43,58,16.61,117.07,49.92,165.05S453,1034.59,510.19,1044c116.7,19.1,232.9-43.13,302.77-134.4C854.59,855.16,883.4,792,905,727.25a1284,1284,0,0,0,46.81-184.69c9.2-52.68,13.95-109-.48-161.26-14.58-52.81-52.31-95.71-106-109.61-55.61-14.38-116.9,1.31-163.74,33.18-53.7,36.53-88.62,96.37-111.47,156A810.39,810.39,0,0,0,522,659.68c-7.29,66.51-1.93,135.64,31,195,29.22,52.61,78.67,91.8,139.33,98.3,58.18,6.24,117.16-15,163.64-49.4,54.45-40.36,90-101.1,112.43-164.3,22.22-62.56,35.55-130.56,40.9-196.74,4.15-51.34,1.71-113.32-39.24-150.37-50.41-45.61-126.66-24.71-174.93,12.64-26.37,20.39-48.49,45.76-69.59,71.46-23,28-46.3,56.19-65.94,86.79C626.44,614.83,604,681,629.78,740.92c27.66,64.28,99.86,75.55,162,71.58,64.56-4.12,136-15.44,191-51.77,49.6-32.75,87.86-94.28,69-155.07-14.06-45.38-56.17-76.82-99.81-90.59-117.46-37-216.94,57.33-274.81,149.74-35,56-74.06,126.55-58.65,195.05,13.45,59.78,67.48,104,128.82,80.45,67-25.75,91.38-99.66,111.57-162.25l35.07-108.75c10.79-33.46,23.1-66.76,31.78-100.85,6.36-25,11.29-54.25.7-78.81-13-30.17-46.38-39.14-76.1-31.31-32.58,8.6-55.71,35.33-73.63,62.52-19,28.75-35.68,59.25-52.32,89.4q-55.2,100.05-100.58,205.2c-20.72,48-50.84,115.85-16,164.55,37.31,52.07,116.12,34.46,163.29,8,50.38-28.22,92-71.68,119.54-122.55,27.25-50.41,40.52-109.56,31.12-166.62-8.34-50.61-35.24-95-74.09-128-80-67.87-208-77.95-275,13.87C539.48,630.45,528.17,693.87,558.61,744c26.88,44.27,82.33,74.33,134,61.4,58.4-14.63,91.43-72.77,112.5-124.8,26.78-66.26,46.51-136.17,64.48-205.28q14.34-55,25.88-110.65c6.48-31.23,14.12-63,15.28-95,.91-24.66-1.18-52.68-16.06-73.35-16.12-22.39-44.65-27.59-69.22-17.06-26,11.17-46.86,34-63.48,56.43-21.54,29-41.22,59.68-60.33,90.38A1768.77,1768.77,0,0,0,598.16,517.73c-16,34.61-31.2,69.76-44.68,105.46-8.65,22.95-16.36,49.23-11.86,73.94,5.63,30.93,34.41,44,62.82,33.66,30.45-11.15,52.92-37.25,73.74-60.95A1064.47,1064.47,0,0,0,801.79,496.57q26.13-45.63,47.72-93.66c12.9-28.76,27.28-59,32.63-90.36,5.13-29.95-3.57-64.06-36-73.28-27.85-7.91-59.25,4.7-83.36,18.07C732.91,273.89,707,297.59,681.42,320q-40.57,35.6-78.31,74.24c-43.06,44.14-87,90.54-116.17,145.52-23.48,44.3-40.78,101.63-14.21,148.53C504,743.4,570.45,748,625.54,732.83c61-16.75,112.62-55.36,158.25-98.11A640.14,640.14,0,0,0,905.65,478.41c27.65-49.86,50.5-104,53.07-161.69C961,265.78,945,211.4,896,187.85c-62.58-30.07-132.82,4.34-179.25,47.55-51.54,47.94-94.2,107.47-136,163.87-44.35,59.88-86.28,121.66-125.07,185.32-31.65,51.95-64,112.46-58.35,175.48,5.73,63.4,55.33,110.75,113.36,129.93,65.21,21.58,136.31,9,200.44-10.16A733,733,0,0,0,879.12,805.4,750.77,750.77,0,0,0,1022.5,693.34c40.75-40.76,79.19-86.52,106.62-137.53,24.58-45.71,42.41-99.23,37.58-151.82-5.23-56.88-43.52-102.64-98.93-116.71-62.09-15.77-129.64,3.31-187.26,26.83A1100.36,1100.36,0,0,0,713.27,400a1141.78,1141.78,0,0,0-278,245.35A1109.85,1109.85,0,0,0,329.91,799.16c-31.85,56.1-65.71,124.45-38.49,189.26,19.16,45.59,62.9,75.28,108,91.19,51.07,18.05,104.92,19.84,158,11,126.41-21,238.93-92.1,331.15-179,51.16-48.21,97.21-101.6,141-156.59s89.3-110.7,126.71-170.41c35.8-57.1,63.26-126.08,39.3-193.27-18-50.51-60.72-87.58-107.25-111.31C986,227.92,860.75,235.71,754.18,269.34,639.72,305.42,536.44,372.66,445.45,450.11c-94.17,80.17-192.37,178.06-227.69,300.51-16.94,58.8-15.46,122.73,12.42,178,25.19,50,68.33,88.74,117.83,113.56,111.3,55.81,241,29.31,343.47-33.46,116.12-71.1,197.14-185.34,269.35-298.34,73.46-115,146.29-250.13,108.23-390.8-15.51-57.31-49.78-108.63-102-138-55.59-31.33-123.51-35.17-184.75-21.05-129.2,29.79-224.26,137.61-302.62,238.11A1739.49,1739.49,0,0,0,357.54,577.23C319.66,640.78,284,707,256.45,775.79c-25,62.44-41.28,131.09-24,197.77,13.25,50.94,44,95.24,82.69,130.08,82.91,74.59,196.8,104.92,306.28,96.7,111.95-8.41,221.31-55.81,303.8-132.43s132.91-180.64,140.45-293.31c7.39-110.07-23.53-224-90.63-311.93-65.34-85.61-162.68-139-268.87-152.25-103.8-12.93-213.34,10.87-298.54,73.05C301.2,461.2,250.92,592.09,213,713.86c-29.71,95.41-56.16,219.68,5.83,308.27,76.68,109.51,232,84.12,334.49,31.69C761,947.56,871.61,718.66,950.32,509.54c22.7-60.27,52.74-126.85,44.95-192.77-7-59.31-50.78-114.29-114.84-106.89-59.53,6.88-107.85,54.61-146.89,96.27A1463.66,1463.66,0,0,0,600.34,470.7,1493.56,1493.56,0,0,0,412.67,841.18q-17.07,50.07-30.54,101.28c-7.85,29.81-15.59,60-17.88,90.89-2,26.73-.37,55.06,12,79.34,14,27.52,39.95,44.72,70,49.78,65.82,11.09,121.61-31.21,162.13-78.51,46.87-54.68,87.21-116.26,126.31-176.67a2620,2620,0,0,0,204.89-383q43.79-101.25,78.84-206Q1036,265.49,1051.41,212c8-27.9,15.36-56.25,16.87-85.36,1.36-25.87-1.69-53-16.12-75.17-17.24-26.51-46.78-39.11-77.63-38.38C909.82,14.66,853,57.92,804.81,96.88a1216.17,1216.17,0,0,0-265.33,300c-34,54.4-66.75,112.32-88.77,172.83-19.33,53.14-29.06,119.47,16.14,162.65,43.09,41.19,112.58,37.37,166.08,24.06,58.25-14.51,114-43.74,164.46-75.88A736.28,736.28,0,0,0,939.66,562.07a720.78,720.78,0,0,0,60.74-74.39c17.37-24.46,36.63-50.86,47.44-79.09,4.52-11.8,8-25.52,4.17-38-4.9-15.71-19.51-22.81-35-21.95-31.93,1.74-59.86,25.69-83.74,44.69A783.54,783.54,0,0,0,801.84,526.49c-76.67,99-129.67,215.47-153.08,338.67-3.11-2.45-6.23-4.87-9.35-7.3C746.79,783,825.75,669.23,859.14,542.24c7.49-28.56,16.26-60.6,12.67-90.39-1.79-14.78-8-29.36-21.6-36.79-16-8.72-35.14-3.41-50.46,4.14-28.73,14.18-52.11,39.35-74.18,62.06a817.26,817.26,0,0,0-69.16,81.19A834.81,834.81,0,0,0,543.32,770.78l-9.35-7.3c103.76-75.5,187.25-176.8,242.31-293,2.89,3,5.78,5.94,8.67,8.89-77.71,32.24-139.48,96.75-167.61,176.5l-10.66-6.32c22.7-18.16,37.06-43.81,39.75-73l8.07,6.21a237.48,237.48,0,0,0-106.62,68.43c-1.48-3.69-3-7.37-4.48-11.06,21.57-.33,36.63-18.65,41-38.72,5.39-24.76-8-47.17-28.71-60.06C506,510.45,448,536.7,400.76,559c-7.44,3.51-13.83-7.68-6.34-11.22,55.61-26.26,130.91-56.58,183-5.64,18.83,18.45,26,44.8,17.32,70-7.82,22.74-26.58,40.61-51.29,41-5.88.08-8.09-7-4.47-11.06A250.17,250.17,0,0,1,651.2,570.36c3.7-1.14,8.45,2.12,8.07,6.22-3,32.49-18.12,61.8-43.62,82.19-4.47,3.59-13,.31-10.66-6.32,29.22-82.77,92.77-150.72,173.65-184.28,6-2.47,11.56,2.81,8.67,8.9a784.34,784.34,0,0,1-247,297.58c-4.4,3.21-11.22-2.27-9.36-7.3A842.13,842.13,0,0,1,711.92,476.89c24.53-25.7,50.81-54.3,83.31-69.79,25.22-12,56.77-14.76,76.13,9.22,17.87,22.14,15,53.93,10.65,80.15-11.59,70.15-37.26,138-73.88,198.79A571.49,571.49,0,0,1,645.75,869.08c-5,3.49-10.29-2.38-9.36-7.3,26.28-138.17,89.65-268,181-374.51a790.67,790.67,0,0,1,74.39-75.77c24.89-22.14,51.66-46,81.13-61.83,22.9-12.28,55.81-22.57,78-3.34,21.07,18.24,17,47.58,7.29,70.65-12.62,29.92-32.53,57.84-51.54,84a748.93,748.93,0,0,1-63.62,76.31A749.25,749.25,0,0,1,789.93,700.37c-55,33.32-116.18,63.62-180.06,74-54.73,8.87-120.49,4.68-159.36-40.48-40.75-47.38-32-113.05-12.14-167.52,23.9-65.7,59.58-128.49,97.16-187.17A1226.75,1226.75,0,0,1,827,63.35c47.91-36.28,112.22-73.71,174.77-60.72,60.14,12.48,83,71.74,79.19,127.61-2.11,30.7-9.93,60.44-18.45,89.85q-16.82,58.07-36.35,115.27-38.5,113-87.19,222A2614.9,2614.9,0,0,1,705.48,974.14c-22.07,32.12-44.65,64-68.53,94.79-20.34,26.23-42.24,51.54-68.86,71.58-47.54,35.78-118.86,53.12-171,15.84-49.08-35.12-51-99.68-41.84-154,11.89-70.75,35.35-140.92,60.52-207.9A1505.53,1505.53,0,0,1,638.41,397.57q34.46-44.07,72.12-85.5c22.93-25.14,46.34-50.06,73.31-70.86,44.28-34.13,103.63-61,157.78-33,56.49,29.21,73.14,100,65.39,158.51-4.88,36.94-17.32,72.19-29.92,107.06-10.81,29.89-22,59.66-33.84,89.17C896.52,679.69,840.58,794.56,762.19,893.41c-75.34,95-177.1,178-296.44,207.83-61,15.27-128.67,16.3-186.37-11.42-51.74-24.86-87.39-72.69-101.57-128-14.1-55-9.32-113.53,1.51-168.69,12.8-65.19,34.6-129.35,59.31-190.85,27.15-67.62,61.94-133.24,112.48-186.27,38.56-40.48,86.25-71.24,138-91.7,103.85-41.06,224.55-40.48,328,1.67,222,90.43,317.29,368.2,230.91,586.29-88.89,224.46-362.87,354-592.4,283.59-104.53-32.07-206.8-108.43-235.54-219.05C201.75,906.4,219,833.78,245.79,768c29.64-72.75,67.4-142.74,108.13-209.77a1745.23,1745.23,0,0,1,136.74-194c44.55-54.89,92.46-107.82,149.61-149.79,53.22-39.09,114.18-66.79,180.23-73.26,63.35-6.21,130.1,7.61,180.73,47.81,48.34,38.38,76.65,96.58,86.58,156.89,11.42,69.21-.8,138.77-26.14,203.59-29.27,74.84-73.19,143.22-117.48,209.8-41.46,62.31-86.26,123-139.56,175.66-92.26,91.25-218.57,161.21-351.71,149.84-117.23-10-232.42-91.64-255-212.22-25.34-135.19,64.61-261.73,153.68-353,91-93.29,198.13-176.45,316.85-230.85,111.27-51,241.79-77.68,362.14-44.62,53.07,14.58,105.31,41.79,141.84,83.89,40.55,46.74,53.8,107.79,38.36,167.75-18.83,73.13-69.08,134-113.78,192.8-46.74,61.47-94.28,122.52-146.92,179.05-94.68,101.68-209.84,190.4-345.9,226.05-56.49,14.81-115.5,20.59-173,8.23-50.36-10.83-101.49-35-133.27-77-38.82-51.35-33.76-115.15-9.73-172,26.65-63,66-122.22,106.77-176.81a1155.28,1155.28,0,0,1,289.56-273,1114,1114,0,0,1,179.78-96.2c60.74-25.6,128.84-46.67,195.26-34.62,56.85,10.31,103.2,51.25,116.28,108.33,12.06,52.71-1.94,108.57-23.53,156.84-25.22,56.35-64.79,106.23-107,150.7A763,763,0,0,1,895.62,810.23a746.47,746.47,0,0,1-179.3,81.39c-66.72,20.14-141.19,33.18-209.07,10.71-57.37-19-108.35-63.65-120.37-125.1C374.11,711.91,404.08,647,436.18,592c39.52-67.59,84.17-132.56,130.6-195.5q35.22-47.81,72.63-93.92c23.33-28.78,46.91-57.79,74.74-82.35,47.92-42.35,116.23-72.4,179.55-47.41,50.64,20,75.07,70.1,77.74,122.3,3,58.57-16.74,115.07-42.64,166.62A650.57,650.57,0,0,1,802.12,634.79c-46.49,45.38-99.83,87-162.25,107.06-53.3,17.16-119.09,19.46-160.95-24-38.84-40.3-38.17-98-19.79-147.74,22-59.68,63.51-108.37,105.89-154.54,51-55.59,106.77-110.7,168.12-154.87C773,232,846.59,199.8,883.35,250.46c16.84,23.25,14.88,53.37,7.87,79.83-9,33.85-24.67,66.65-39.57,98.21a1074.19,1074.19,0,0,1-122,198.71c-22.27,28.73-45.43,58.27-72,83.19-20,18.77-46.58,37.85-75.22,37.24-24.81-.53-45.3-17.71-52-41.39-7.09-25.14-1-53.29,7.19-77.37,25-73.48,60.31-145,97-213.16C670.59,349.14,709.6,281.57,756.29,222c30.39-38.79,86.43-85.48,135.38-47.17,42.23,33,34,100,25.39,146.12a2274,2274,0,0,1-59.81,245.2c-19.63,64.72-38.44,136.38-79,191.64-32.4,44.07-82.21,72.57-137.59,60.31-51.74-11.44-96.89-54.22-109.11-106.33-13.6-58.11,10.81-120.12,53.32-160.07,39.5-37.12,93.45-52.84,146.74-46.26,106.6,13.13,195.75,101.9,205.12,209.85C947,833.8,870,955.87,764.21,1006.08c-49.3,23.4-122.39,34.42-162.08-12.73-38.79-46-19.68-111.74.85-161.39,31-75.1,66.75-148.4,105.67-219.65,18.73-34.32,37.48-69.22,59.41-101.59,17-25.16,38.16-49.19,66.87-60.79,25.36-10.26,56.74-11,79.84,5.36,21.47,15.18,30.24,40.6,30.47,66.12.28,30.43-9.4,59.79-18.6,88.39q-19.5,60.42-39,120.84c-21.74,67.44-38.62,150.42-95.81,197.74-45.38,37.55-110.16,44.55-152.7-1.26-47.59-51.27-42-124.85-17.07-185.39,24.79-60.19,61.94-119,107.3-165.71,40.73-41.92,94.32-76.94,153.73-81.92,49.53-4.15,101.49,12.66,139.08,45.36,39.47,34.31,57,86.59,41.38,137.4C1043.79,741.2,985.42,782.28,924.17,802c-33.31,10.72-68.12,16.33-102.77,20.49-32.93,4-66.52,5.64-99.35-.05-31.58-5.48-62.35-19.17-83.72-43.84-18.48-21.3-28.38-48.38-31.42-76.23-7.75-70.9,30-134,71.57-187.84C720.41,460.29,765.71,397,830.15,368.41c54.48-24.13,123.84-21,162.51,29.47,34.24,44.72,33.88,107.29,27.88,160.68-15.14,134.25-53,290-174.2,367.12-51,32.42-114,49.55-173.92,37.07-60.84-12.66-108.68-57.08-135.93-111.94-31.58-63.57-34.84-135.76-25.67-205.13,9.23-69.74,26.52-141,53.93-205.88,25.77-61,64.78-119.87,122.76-154C737,256.6,799.63,244.07,855.32,261.1c53.67,16.4,91.76,60.32,107.39,113.61C979,430,973.88,490,964.07,545.92a1245.64,1245.64,0,0,1-52.62,201.54c-23.9,67.32-56.06,132.26-102.32,187-76.75,90.84-204.46,148.2-323,117.55-124.49-32.17-183.24-160-180-280.86,2.09-78.18,27.48-153.71,57.14-225.22,15-36.1,30.62-72.06,47.39-107.36,15.64-32.92,33.41-65.12,57.45-92.66,38.39-44,99.08-76,158.38-61.78,49.95,12,82.08,55,94.85,103C736,442.17,728.23,499.2,709.07,552c-26.69,73.58-69.26,142.69-77.38,222-.82,8.19-13.67,8.27-12.82,0Z"/><path class="cls-1" d="M819.67,681.21c-96.6-86.92-250.52-95.8-319.48-215-25.63-44.31-33.18-99.74.29-142.07,42.41-53.6,119.59-57.28,180.8-41.17,32,8.42,62.57,21.35,92.81,34.63,35.79,15.72,71.59,31.53,106.5,49.17,63.41,32,125.44,70.77,172.29,125.1,37.89,43.95,66.29,97.91,73.82,155.83s-9.09,115.17-45.16,160.5c-73.65,92.52-201.54,124.42-314.6,103.7-67.38-12.36-131.11-39.79-190.64-73.28A1283.34,1283.34,0,0,1,417.61,733.15C375.41,700.29,334,661.7,309.68,613.33c-24.66-48.93-25.5-106.06,5-152.43,31.55-48,87.51-77.52,143.61-85.36,64.33-9,130.38,11.91,187.37,40.78a810,810,0,0,1,169.1,115c50.06,44.39,92.51,99.21,108,165.35,13.68,58.6,3.34,120.84-37.25,166.39-38.92,43.69-96.86,67.58-154.43,73.27C663.57,943,596.44,921.87,537.39,890.1c-58.48-31.44-114-72.88-162.41-118.33-37.55-35.26-77.36-82.83-71.89-137.78,6.73-67.64,77.27-103.35,138.11-108.09,33.24-2.6,66.67,1.35,99.55,6.23,35.88,5.3,72,10.55,107.15,20,59.36,16.05,120.41,50,141.54,111.73,22.67,66.21-23.27,123-72,161.84-50.61,40.3-111.15,79.89-176.33,89.91-58.75,9-128.42-10.86-155.29-68.56C365.77,804,375.86,752.46,399,713c62.18-106.3,199.25-103.18,304.18-73.56,63.56,17.94,139.86,44,174.43,105.15,30.18,53.34,19.85,122.4-41.43,146.12-66.94,25.91-134.64-12.49-191.62-45.32l-99-57c-30.45-17.55-61.94-34-91.26-53.39-21.48-14.23-44.79-32.63-53.44-57.93-10.61-31.1,8.09-60.15,35.37-74.3,29.91-15.51,65-11.23,96.54-3.12,33.36,8.58,66.22,20,98.8,31.12Q739.6,667.76,843.83,715.2c47.57,21.65,115.46,51.73,122.32,111.22,7.32,63.64-62.91,103.51-115.6,115.59-56.29,12.92-116.34,8.68-170.88-10.54-54-19.06-103.6-54-134.94-102.58-27.8-43.1-37.69-94.09-31-144.58,13.7-104,101.82-197.45,213.11-174.38,55.38,11.47,106.35,50.87,117.47,108.48,9.81,50.86-11.1,110.38-58.11,135.51C733.06,782.3,669.54,761.39,619,737c-64.33-31.11-125.9-69.68-185.63-108.82Q385.84,597,339.91,563.54c-25.78-18.79-52.77-37.2-75.12-60.14-17.23-17.67-34.5-39.84-37.35-65.15-3.09-27.41,14.56-50.43,39.83-59.11,26.8-9.21,57.58-6.25,84.93-.81,35.46,7,70.63,16.54,105.4,26.46A1770.07,1770.07,0,0,1,663,477.27c35.13,14.88,70,30.75,103.92,48.16,21.82,11.2,45.18,25.49,58.44,46.82,16.59,26.7,4.07,55.75-24,67.13-30,12.18-64.23,7.93-95.57,4.34a1064.76,1064.76,0,0,1-207.94-45.39q-50-16.27-98.26-37.37c-28.86-12.65-59.83-25.41-84.85-45.05-23.91-18.75-40.37-49.87-22.51-78.49,15.33-24.57,47.07-36.31,73.91-42.59,33.23-7.77,68.35-7.62,102.34-8.18q54-.86,107.88,2.44c61.56,3.79,125.29,8.65,183.81,29.83,47.14,17.06,98.45,47.93,110.25,100.52,13.87,61.81-32.34,109.85-83.32,135.62-56.43,28.51-120.64,34.6-183.16,33.55a639.89,639.89,0,0,1-195.25-34c-54-18.38-107.23-43.12-147.9-84.18-35.88-36.23-60.56-87.25-40.06-137.6,26.17-64.3,101.33-86,164.76-85.12,70.37.92,142,16.38,210.77,30.14,73.08,14.6,145.64,32.22,217.12,53.35,58.34,17.24,123,40.34,161.08,90.86,38.32,50.83,33.36,119.22,3.24,172.4-33.84,59.78-95,98.19-155.36,127.06A733.56,733.56,0,0,1,648,879.11a750.43,750.43,0,0,1-181.5,13.22C408.91,889.49,349.7,881.4,295.12,862,246.2,844.64,197.06,817,165.33,774.75c-34.32-45.67-36.67-105.29-5.06-152.92,35.43-53.38,98.3-84.6,156.79-105.86a1100.11,1100.11,0,0,1,181.61-48.63,1142.3,1142.3,0,0,1,370.8-4.88,1110.91,1110.91,0,0,1,181.3,43.25c61.26,20.18,132.25,48.09,155.6,114.4,16.41,46.65,3.93,98-18.77,140.06-25.72,47.66-64.42,85.15-109.65,114.23-107.77,69.32-238.9,92.18-365.58,89.71-70.29-1.38-140.27-10-209.64-21.36s-140.5-22.07-208.32-41.2c-64.87-18.28-131.53-51-158.89-116.84C115,735.18,121.7,679,140.25,630.21,181,523,279.06,444.6,380.61,398c109.05-50.12,230.73-69.64,350.15-73.34,123.63-3.82,262.13,2.78,370.52,69.8,52,32.2,93.87,80.57,110.31,140.24,14.88,53.94,9,111.64-11.07,163.27-45,116.09-158.91,183.54-277,205.83-133.79,25.28-270.54-5-399.92-40.23C392,827.67,247.25,776.42,181,646.62,154,593.74,145,532.7,163.88,475.86c20.15-60.54,67.91-109,122.77-139.65,115.74-64.68,258.58-48.6,384.13-26.75A1739,1739,0,0,1,881.27,359.8c70.75,21.65,141.65,46.74,208.24,79.26,60.42,29.51,118.61,69.43,150.55,130.48,24.39,46.64,31.36,100.09,26.07,151.91-11.36,110.95-75.39,209.89-162,277.32-88.61,68.93-201.47,107.23-314,105.85s-219.79-44.62-301-123c-79.39-76.6-133-181.8-142.3-292-9.06-107.31,27.22-212.24,97-293.36C512,316.92,609.14,261,714,249.88,845.11,236,970.26,299.22,1080.11,364c86.09,50.75,189.13,125.08,202.68,232.36,16.71,132.64-115.4,218.07-226.6,248.08-225.26,60.73-460.9-34.66-659.64-136.77C339.26,678.25,272.29,649.08,233.8,595c-34.64-48.64-39.11-118.79,13.33-156.32,48.73-34.88,116.59-31.95,173.5-27.29a1463.15,1463.15,0,0,1,209.19,32.5,1492.88,1492.88,0,0,1,387.83,148.53q46.27,25.64,90.64,54.54c25.83,16.83,51.85,34,74.27,55.35,19.43,18.48,37.25,40.55,44.41,66.83,8.12,29.78.43,60-18.42,83.87-41.33,52.41-111.07,58.52-172.86,50.68C964.25,894.64,893,876.1,823.46,857.58a2620.63,2620.63,0,0,1-409-146.27Q314,665.68,217.66,611.56q-48.48-27.22-95.79-56.48c-24.67-15.29-49.15-31.37-69.81-51.93-18.38-18.26-34.35-40.41-38.54-66.53-5-31.22,8.41-60.39,31.76-80.56,49-42.31,120.16-48.42,182-51.89a1216.11,1216.11,0,0,1,398.05,44.14c61.73,17.47,124.88,38.41,181.84,68.47,50,26.4,101.75,69,97.25,131.37-4.28,59.45-58.33,103.28-106.92,129.34-52.9,28.36-113.87,44.16-172.83,54.2a736.26,736.26,0,0,1-185,7.75,723,723,0,0,1-95-14.34c-29.3-6.46-61.3-13.1-88.26-26.76-11.28-5.71-23.1-13.51-28.59-25.34-6.92-14.94-.87-30,11.2-39.79,24.83-20.14,61.62-21.15,92.07-23.1A783.15,783.15,0,0,1,518,620.53c123.26,21.84,240.77,72.6,340.84,148.19q1-5.87,2-11.7C731,773.62,596.08,742.36,486.07,670.67c-24.72-16.13-52.74-34-70.08-58.47-8.6-12.15-13.79-27.13-8.7-41.77,6-17.18,23.76-26.12,40.17-30.8,30.82-8.79,65-5.84,96.65-3.83a815.48,815.48,0,0,1,105.77,13.73A834.38,834.38,0,0,1,873.56,628c.69-3.89,1.35-7.8,2-11.69C748,630,618.12,611,499.31,561.87c-.16,4.13-.3,8.29-.46,12.42,79.24-28.29,168.33-22,242.72,18.25,1.22-3.94,2.44-7.91,3.66-11.84-29,1.78-56.89-7.59-78.46-27.39l-1.8,10a237.44,237.44,0,0,1,124.95-20.88l-4.11-11.21c-16.21,14.24-39.67,10.78-56.38-1.15-20.62-14.74-25.73-40.34-19.06-63.79,16-56.27,76.66-75.8,126.63-91,7.87-2.39,5.09-15-2.84-12.57-58.84,17.89-135,46-139.35,118.67C693.24,507.71,705.64,532,729,544.88c21.07,11.6,47,12.24,65.51-4.09,4.41-3.89,1.26-10.66-4.11-11.2A250.29,250.29,0,0,0,659,551.89c-3.5,1.64-4.83,7.25-1.8,10,24,22.08,54.93,33.62,87.51,31.62,5.73-.35,9.84-8.5,3.66-11.84C671.18,540,578.46,532.3,496,561.74c-6.07,2.16-6.68,9.84-.45,12.41a784.34,784.34,0,0,0,382.84,54.69c5.41-.58,6.78-9.22,2-11.69A841.84,841.84,0,0,0,551.29,523.4c-35.43-2.57-74.11-6.13-108.6,4.22-26.76,8-52,27.18-50.22,58,1.62,28.4,25.09,50,45.92,66.55,55.69,44.2,120.27,77.24,188.23,97.7a571.47,571.47,0,0,0,237,19.77c6-.76,6-8.66,2-11.69-112.24-84.75-246.41-138.43-385.58-156a789.5,789.5,0,0,0-106-6.21c-33.3.31-69.19.57-101.63,8.65-25.22,6.28-56.51,20.76-60.07,49.93-3.36,27.66,19.32,46.7,42,57.25,29.44,13.69,62.94,21,94.57,27.61A749.46,749.46,0,0,0,447.4,753a749,749,0,0,0,196.14-11.59c63.1-12.21,128.81-30.86,183.08-66.1,46.52-30.17,92.44-77.44,90.92-137C915.92,475.81,865.33,433,814.05,406c-61.83-32.64-130.43-55.21-197.68-73.46a1226.67,1226.67,0,0,0-428-38.34c-59.88,5.29-132.66,20.74-170.29,72.36-36.18,49.63-13.35,108.9,27,147.73,22.18,21.34,47.94,38.12,74,54.2q51.45,31.74,104.34,61,104.37,57.84,213.69,106A2615.08,2615.08,0,0,0,890,887.56c37.92,9,76.06,17.45,114.42,24.22,32.69,5.78,65.91,9.84,99.1,6.81,59.25-5.41,123.74-40.45,137.32-103.05,12.78-59-29.17-108.08-72.41-142.22-56.32-44.44-120.82-80.69-184.45-113.43A1505.71,1505.71,0,0,0,552.51,415.26q-55.14-9.52-110.87-14.94c-33.87-3.23-67.94-6-101.9-3.28C284,401.48,222,421.41,200.65,478.51c-22.25,59.58,12.94,123.2,58,161.37,28.42,24.1,61.31,41.87,94.06,59.25,28.08,14.89,56.38,29.42,84.95,43.36,113,55.14,231.62,102.71,356.08,123.33,119.65,19.83,250.74,12.95,359.23-45.05,55.43-29.63,106.3-74.32,130.44-133.6,21.64-53.17,15.94-112.55-10.66-163-26.48-50.23-69.32-90.39-114.38-124-53.26-39.72-112.49-72.63-172.1-101.61C920.72,266.67,850.87,241.41,777.81,236c-55.76-4.1-111.74,5.14-163.85,24.73-104.53,39.3-193.58,120.78-241.9,221.44-103.8,216.09,12.11,485.91,222.56,589.52,216.59,106.64,506.59,18.66,629.41-187.63,55.93-94,80.44-219.2,27.46-320.48-33.75-64.49-95.27-106.74-159.33-137.49-70.81-34-145.79-60.52-221-82.85a1746.49,1746.49,0,0,0-231.56-51.92c-69.87-10.75-140.92-17.81-211.45-10.54-65.68,6.77-129.46,27.18-182.74,66.73-51.12,37.94-91.3,93-101.83,156.79-10,60.9,8,123,41.18,174.39C222.8,737.67,278.56,781,340.86,812c71.94,35.82,150.4,57,227.93,76.59,72.56,18.34,146.49,33.22,221.37,36.47C919.79,930.75,1060.37,897.8,1151.4,800c80.15-86.13,110.69-224,46.48-328.51C1125.89,354.27,974.26,320.9,847,313.07c-130.1-8-265.3,2.28-389.8,41.68-116.69,36.93-231.34,104.79-298.32,210.1-29.54,46.44-50,101.68-48.78,157.4,1.33,61.87,32.51,116,84.21,150.07,63,41.55,141.17,52.92,213.77,66.47,75.91,14.18,152.14,27.5,229.1,34,138.43,11.77,283.35.18,408.11-64.75,51.81-27,99.42-62.29,133.72-110.05,30-41.85,51.73-94.06,47-146.56-5.72-64.11-52.3-108-108.29-134-62-28.79-131-46.24-197.83-59.33A1155.19,1155.19,0,0,0,522,450.28a1114.14,1114.14,0,0,0-197.81,49.43C262,521.53,197.39,551.64,156.27,605.17c-35.2,45.8-42.07,107.27-13.43,158.34,26.45,47.16,74.34,79.17,122.75,100.43C322.11,888.76,384.93,899.15,446,903.8a762.59,762.59,0,0,0,193-10,746.89,746.89,0,0,0,187.52-60.08c63-29.88,126.9-70.22,162.12-132.44,29.77-52.59,37.55-119.92,5.19-173.53-34.39-57-100.22-85-160.91-104.17C758.23,400,681.53,381.82,604.85,366.36Q546.67,354.6,488,345.53c-36.61-5.66-73.57-11.33-110.68-10.84-64,.79-134.74,24.39-164.89,85.43-24.11,48.79-8.56,102.35,24.52,142.83,37.11,45.41,89.67,74,143.47,94.84A650.48,650.48,0,0,0,590.47,701c64.92,2.42,132.38-2.58,192.13-29.61,51-23.07,101.31-65.54,103.16-125.84,1.73-55.94-37.51-98.23-84.54-122.77C744.83,393.31,681.39,385.08,619,379.34c-75.15-6.93-153.46-10.35-228.57-1.89-48.82,5.5-125,31-118.2,93.26,3.13,28.54,24.8,49.54,47.76,64.44,29.39,19.06,63,32.83,95.28,46.21a1073.64,1073.64,0,0,0,223.8,65.36c35.79,6.34,72.79,12.68,109.17,13.33,27.42.49,59.94-3.23,80.75-22.9,18-17.06,21.68-43.55,10.73-65.59-11.62-23.39-35.05-40.14-57.28-52.5-67.85-37.68-142-66.95-215-92.82C496.14,401,421.85,377.1,347.27,364.31c-48.57-8.33-121.45-5.31-132,55.94-9.11,52.86,42,96.91,79.3,125.34a2273.58,2273.58,0,0,0,209,141.54c58,34.77,120.05,75.25,187.24,88.94,53.61,10.9,109.65-1.42,142.46-47.69,30.66-43.22,35.39-105.24,9.46-152.06-28.94-52.2-88.67-81.75-147-82.81-54.19-1-104.72,23.59-139.8,64.24-70.17,81.31-76.63,207-11.1,293.24,71.94,94.74,211,133.48,323.07,99.67C920.12,934.9,981.67,894,979.43,832.39c-2.17-60.16-60.44-96-109-119C797,678.55,721.32,648.22,644.64,621.55c-36.92-12.86-74.25-26.12-112.23-35.39C502.88,579,471.09,575.33,442,586c-25.68,9.43-49.41,30-55.57,57.58-5.71,25.68,4.85,50.4,21.82,69.46,20.23,22.74,47.11,38,73.14,53q55,31.68,110,63.38c61.4,35.37,129.62,85.54,203.78,82.21,58.84-2.65,111.55-41,112.31-103.47.84-69.95-52.7-120.73-111.84-148.85-58.78-28-125.81-46.6-190.77-50.75C546.58,604.87,483.34,614.9,436,651.1c-39.49,30.19-66.71,77.53-72.61,127C357.16,830,379.27,880.55,425,907.71c57.86,34.39,128.71,25.64,187.32-.88,31.88-14.43,61.45-33.65,89.92-53.82,27.07-19.18,53.08-40.49,73.59-66.75,19.72-25.27,33.33-56.08,32.6-88.7-.61-28.19-11.45-54.92-27.9-77.59-41.87-57.74-112.2-79.2-179.17-91.14-67.48-12-143.57-28.54-210.49-6.43-56.58,18.7-105.9,67.55-100.64,131,4.66,56.13,46.93,102.26,87.23,137.79,101.36,89.32,234,179.34,375.59,155.09,59.53-10.2,117.76-39.84,153.78-89.32,36.58-50.23,42.2-115.27,25.57-174.22-19.29-68.31-65.35-124-118.72-169.24C760,468,699.29,426.74,635.45,397.09c-60.06-27.9-128.5-45.33-194.4-31.72C384.8,377,330,409.76,300.13,459.77c-28.76,48.19-27.5,106.31-3.3,156.3,25.1,51.9,69.11,92.9,114,127.79a1245.44,1245.44,0,0,0,174.32,114c62.91,33.83,130.34,60.36,201.37,69.86,117.87,15.78,251-27.47,318.32-129.81,70.66-107.43,28.38-241.59-55.19-329C995.57,412.41,926,373.49,856,340.42c-35.35-16.7-71.08-32.85-107.21-47.75-33.69-13.89-68.48-25.81-104.78-30.09-58-6.84-124.46,10.21-158.86,60.57-29,42.42-23.88,95.88-1.13,140,26.11,50.65,70.12,87.72,119.76,114C673,613.74,751,636.37,810.2,689.66c6.11,5.51,15.68-3.06,9.5-8.61Z"/></g></g></svg>