<svg xmlns="http://www.w3.org/2000/svg" xmlns:xlink="http://www.w3.org/1999/xlink" viewBox="0 0 1246.92 1117.35"><defs><style>.cls-1{fill:none;}.cls-2{clip-path:url(#clip-path);}.cls-3{fill:#3f3d56;}.cls-4{fill:#f2f2f2;}.cls-5{fill:#232222;}.cls-6{fill:#f66;}</style><clipPath id="clip-path" transform="translate(-5.79 -1.01)"><rect class="cls-1" x="87" y="-54.08" width="1084.38" height="1227.56" transform="translate(51.55 1172.45) rotate(-88.34)"/></clipPath></defs><g id="Layer_2" data-name="Layer 2"><g id="Layer_1-2" data-name="Layer 1"><g class="cls-2"><path class="cls-3" d="M1191.16,1118.34l-634-18.32a36.66,36.66,0,0,1-10.78-2l-.36-.16C350.36,993.49,181.71,934.72,30.47,918.21l-.57-.12a35.79,35.79,0,0,1-24.1-35L30.29,35.93A35.93,35.93,0,0,1,78,3.06l496.6,173a30.59,30.59,0,0,0,9.23,1.69l634,18.33A36,36,0,0,1,1252.69,233l-24.58,850.43A36,36,0,0,1,1191.16,1118.34Zm-642.87-25.16a30.24,30.24,0,0,0,9,1.64l634,18.32a30.75,30.75,0,0,0,31.6-29.83l24.58-850.45a30.78,30.78,0,0,0-29.83-31.61l-634-18.32a36.22,36.22,0,0,1-10.78-2L76.29,7.94A30.72,30.72,0,0,0,35.48,36.08L11,883.26a30.58,30.58,0,0,0,20.32,29.8c151.81,16.6,320.93,75.52,517,180.1Z" transform="translate(-5.79 -1.01)"/><path class="cls-4" d="M575.21,1062c174.62-56.19,367.27-43.57,570.74,10.38a40.92,40.92,0,0,0,51.52-38.29L1219.84,260a40.87,40.87,0,0,0-29.94-40.6c-214.59-59.09-416.17-74.66-595.88-17a41.16,41.16,0,0,1-38.33-7.37C409.11,76.61,257.36,15,98.86,27.39A40.8,40.8,0,0,0,61.44,67L38.82,849.51A40.88,40.88,0,0,0,74.33,891.2c169.55,22.6,324.29,80.74,467.23,167a40.82,40.82,0,0,0,33.65,3.81Z" transform="translate(-5.79 -1.01)"/><path class="cls-5" d="M570.93,1018.45a63.54,63.54,0,0,1-33.3-10.56c-119.85-79.32-251.54-127.46-391.43-143-32.79-3.65-57.72-32.44-56.76-65.52l19.32-668.41c1-34.3,28.42-61.65,62.43-62.25C273.4,66.87,396,116,557.09,223.14a58.86,58.86,0,0,0,46.1,8.41c157.08-37.33,326.08-33.67,516.65,11.19A64.47,64.47,0,0,1,1169.4,307l-18.86,652.44a64.18,64.18,0,0,1-81,59.95c-180.14-48.4-335.95-49.78-476.4-4.23A65.92,65.92,0,0,1,571,1018.4ZM185.59,74q-7.25-.21-14.35-.08c-31.22.56-56.4,25.69-57.32,57.21L94.61,799.5c-.88,30.41,22,56.85,52.16,60.22,140.68,15.68,273.15,64.08,393.72,143.86a58.94,58.94,0,0,0,51,6.73l.81,2.46-.81-2.46c141.43-45.89,298.23-44.55,479.34,4.13a59,59,0,0,0,74.46-55.1l18.85-652.43a59.22,59.22,0,0,0-45.53-59.09c-189.78-44.67-358-48.34-514.27-11.2a64.08,64.08,0,0,1-50.15-9.14C401.53,125.9,283.84,76.81,185.59,74Z" transform="translate(-5.79 -1.01)"/><path class="cls-5" d="M581.78,234.84l-5.19-.1L561.22,1017l5.19.1Z" transform="translate(-5.79 -1.01)"/><path class="cls-3" d="M158.24,170.94l-1.77,4.89L516.6,306.66l1.78-4.88Z" transform="translate(-5.79 -1.01)"/><path class="cls-3" d="M155.46,267.19l-1.77,4.88L513.83,402.91,515.6,398Z" transform="translate(-5.79 -1.01)"/><path class="cls-3" d="M152.69,363.46l-1.77,4.89L511.05,499.18l1.78-4.88Z" transform="translate(-5.79 -1.01)"/><path class="cls-3" d="M149.92,459.71l-1.78,4.88L508.28,595.43l1.78-4.89Z" transform="translate(-5.79 -1.01)"/><path class="cls-3" d="M1103,323.88l-435.8-12.6-.15,5.2,435.79,12.59Z" transform="translate(-5.79 -1.01)"/><path class="cls-3" d="M1100.31,414.79,664.52,402.2l-.15,5.19,435.8,12.6Z" transform="translate(-5.79 -1.01)"/><path class="cls-3" d="M1097.69,505.69,661.89,493.1l-.15,5.19,435.8,12.6Z" transform="translate(-5.79 -1.01)"/><path class="cls-3" d="M1095.06,596.58,659.27,584l-.15,5.19,435.8,12.6Z" transform="translate(-5.79 -1.01)"/><path class="cls-3" d="M1092.44,687.49l-435.8-12.6-.15,5.2,435.8,12.59Z" transform="translate(-5.79 -1.01)"/><path class="cls-3" d="M1089.81,778.4,654,765.81l-.15,5.19,435.8,12.6Z" transform="translate(-5.79 -1.01)"/><path class="cls-6" d="M1100.41,1045.56a59.75,59.75,0,1,0-58-61.45A59.74,59.74,0,0,0,1100.41,1045.56Z" transform="translate(-5.79 -1.01)"/><path d="M1130.17,984.39l-36.44-22.47a2.61,2.61,0,0,0-4,2.15l-.54,18.8-11.11-.33a2.6,2.6,0,0,0-.15,5.2l11.11.32-.55,18.8a2.61,2.61,0,0,0,3.84,2.37L1130,988.9a2.59,2.59,0,0,0,.13-4.49Z" transform="translate(-5.79 -1.01)"/><path class="cls-5" d="M256.55,792.91a126,126,0,0,1,33.14-71.16A124.12,124.12,0,0,1,400.21,685c3.41.59,3.18,6-.29,5.45a120.44,120.44,0,0,0-72,10,118.66,118.66,0,0,0-66,92.74c-.41,3.47-5.86,3.21-5.45-.29Z" transform="translate(-5.79 -1.01)"/><path class="cls-5" d="M394.82,663l41.36,21.91a2.74,2.74,0,0,1,.34,4.33l-40.67,31.69c-2.77,2.16-6.42-1.9-3.66-4l40.68-31.7.35,4.32-41.37-21.9c-3.1-1.65-.13-6.25,2.94-4.6Z" transform="translate(-5.79 -1.01)"/></g></g></g></svg>