<svg xmlns="http://www.w3.org/2000/svg" xmlns:xlink="http://www.w3.org/1999/xlink" viewBox="0 0 1404.74 1069.75"><defs><style>.cls-1{fill:none;}.cls-2{clip-path:url(#clip-path);}.cls-3{fill:#2f2e41;}.cls-4{fill:#e6e6e6;}.cls-5{fill:#a0616a;}.cls-6{fill:#ffb6b6;}.cls-7{fill:#f66;}</style><clipPath id="clip-path" transform="translate(0 0.02)"><rect class="cls-1" width="1404.74" height="1069.69"/></clipPath></defs><g id="Layer_2" data-name="Layer 2"><g id="Layer_1-2" data-name="Layer 1"><g class="cls-2"><path class="cls-3" d="M1069.33,149.09c-12.6-45.93,89-85.32,115.7-48.32,3.71-5.27,17.41-8.45,23.72-6.84s11.58,5.65,16.74,9.55c7.1,5.45,14.46,11.1,18.82,18.94s5,18.46-.85,25.23c-4.67,5.38-18.48,8.87-25.5,10.29-4.91,1-9,1.81-12.59,2.38a24,24,0,0,1-4.2-15.9,19.49,19.49,0,0,0-8.51,14.33c-.1,1.19,39.64,147.44,39.64,147.44a86.56,86.56,0,0,1-15,6.74,188.29,188.29,0,0,1-23.38-51,163.7,163.7,0,0,0,.45,36.29q1.2,10.13,3.42,20.1c-47.24,10.19-118.28,6.84-149.19-36.53v-.54a7.38,7.38,0,0,0-14.25-2.58c-.75,1.91-1.44,3.57-2.06,4.88-9-32.2,2.65-69.46,37.08-134.5Z" transform="translate(0 0.02)"/><path class="cls-3" d="M989,919.16v1.51A5.45,5.45,0,0,1,989,919.16Z" transform="translate(0 0.02)"/><path class="cls-3" d="M1035.22,659.22a24.35,24.35,0,0,1,3.66-.7C1037.45,658.75,1036.24,659,1035.22,659.22Z" transform="translate(0 0.02)"/><path class="cls-3" d="M1034.15,659.49c.32-.09.69-.19,1.08-.27C1034.88,659.32,1034.52,659.39,1034.15,659.49Z" transform="translate(0 0.02)"/><path class="cls-3" d="M1375.89,1069.68H1202.75a13.76,13.76,0,0,1-3.71-17c4.73-10.85-4.54-20.75-4.54-20.75a29.48,29.48,0,0,1-5.93-27.14c4.59-16-13.4-61.24-13.4-61.24s-9.69,58.39-21.56,126.11H988.94a30.59,30.59,0,0,1,0-31c9.59-16.28,0-19.4,0-19.4s-9.59-18.2,0-31.43,0-67.2,0-67.2c.37,2.38,3.1-2,7.31-11.05,6.4-13.84,16.19-38.74,26.1-67.64,7.07-20.61,14.2-43.31,20.16-65.51q2.34-8.75,4.45-17.33c2.73-11.23,5.07-22.12,6.85-32.37,3.86-22.06,5.13-41,2.16-53.32-2.46-10.26-7.84-15.91-17.13-14.94,5-.82,12.27-1.6,21.26-2.34,1.62-.14,3.3-.27,5-.4,67-5.07,210.74-8,210.74-8l44,78.86,55.75,99.87s-1.53,134,.2,243.18Z" transform="translate(0 0.02)"/><path class="cls-4" d="M1191.1,307l-101.43-21.53L1069.52,326,1001.7,365.3s43.71,178.76,43.46,203.9c-.64,63.83-102.77,206.92-25.61,195.91s92.82-57.11,117.58-49.82c22.32,6.57,49.6,35.82,67.86,14.9s24.7,3.24,36.24,4.08c5.49.4,2.19-26.42,16,.83s87-9.43,62.18-34.24c-41.31-41.32-49.71-345.92-49.71-345.92l-46-14.15L1191.12,307Z" transform="translate(0 0.02)"/><path class="cls-5" d="M999.77,956.18a24.34,24.34,0,0,0-2.52-33.87,23.33,23.33,0,0,0-3.13-2.27l17-83.24-39.21-23.47L961,929.87a24.28,24.28,0,0,0,5.6,29.11,23.23,23.23,0,0,0,32.79-2.33,6.27,6.27,0,0,1,.42-.48Z" transform="translate(0 0.02)"/><path class="cls-4" d="M1121.52,517.44c-.26-2.68-3.66-3.89-8.38-5.57a51.76,51.76,0,0,1-13.42-6.35c-10.47-7.56-6.35-15.47-.65-26.42,1.1-2.13,2.27-4.34,3.36-6.64,3.21-6.8-1.92-34.91-15.29-83.54-4.13-15-4.11-25.55-7-32.56s-8.52-10.47-24-11.19a70.84,70.84,0,0,0-51,18.12c-.37.33-.77.68-1.14,1-.7.67-1.4,1.34-2.08,2A70.77,70.77,0,0,0,981.4,415l-.07,3.12-3.2,148.57-9,130.38L956.75,876.7l9.17.45,36.6,1.83,4.44.22L1017.49,835l12.67-53.16,4.66-19.53,14.45-60.58,6.74-28.31,4.12-17.28,1.68-7.06L1070,614.8c.18-.72,19-75,40.73-87.45,8.1-4.63,11-7.33,10.8-9.91Z" transform="translate(0 0.02)"/><path class="cls-5" d="M1365.09,955.3a24.34,24.34,0,0,1-1.13-33.94,23.31,23.31,0,0,1,2.87-2.58L1341,837.85l36.46-27.54L1400.84,925a24.29,24.29,0,0,1-2.43,29.53,23.25,23.25,0,0,1-32.85,1.21c-.15-.15-.29-.29-.47-.44Z" transform="translate(0 0.02)"/><path class="cls-4" d="M1383,779.68s-28.43-100.06-19.76-110.89-17-12.94-5.9-33.12-4.19-23.56-4.19-23.56l-8.27-46.38-14.78-113.92-.45-3.39-4.3-33.14a70.94,70.94,0,0,0-28-48c-.38-.3-.79-.59-1.18-.87-1.84-1.31-3.68-2.53-5.6-3.64a70.9,70.9,0,0,0-47.11-8.95c-30.66,4.78-21.1,16.21-26.08,46.82-8.08,49.78-10.18,78.28-6.24,84.72,1.32,2.16,2.71,4.24,4.05,6.23,6.85,10.28,11.79,17.69,2.19,26.35a52.56,52.56,0,0,1-12.64,7.75c-4.52,2.18-7.78,3.75-7.75,6.43s3.23,5,11.79,8.69c10.36,4.52,21.46,21.66,30.59,39.16a430.11,430.11,0,0,1,19.3,43.41l78.3,220.2,12.76,35.9,4.42-.7,36.17-5.73,9.06-1.44-16.39-92Z" transform="translate(0 0.02)"/><path class="cls-5" d="M1148.31,284a82.76,82.76,0,1,0-82.76-82.76A82.75,82.75,0,0,0,1148.31,284Z" transform="translate(0 0.02)"/><path class="cls-3" d="M1024.17,155.53c-12.6-45.93,89-85.32,115.7-48.33,3.71-5.26,17.42-8.45,23.72-6.84s11.59,5.65,16.75,9.56c7.09,5.45,14.45,11.1,18.81,18.94s5,18.46-.85,25.23c-4.67,5.38-18.48,8.87-25.5,10.29-4.91,1-9,1.81-12.59,2.38a24,24,0,0,1-4.2-15.91,19.54,19.54,0,0,0-8.51,14.34c-.1,1.19,39.64,147.44,39.64,147.44a86.56,86.56,0,0,1-15,6.74,188.22,188.22,0,0,1-23.38-51,163.79,163.79,0,0,0,.45,36.3,203.52,203.52,0,0,0,3.42,20.09c-47.24,10.2-118.28,6.84-149.19-36.52v-.54a7.38,7.38,0,0,0-14.25-2.58c-.75,1.91-1.44,3.57-2.06,4.88-9-32.2,2.65-69.47,37.08-134.51Z" transform="translate(0 0.02)"/><path class="cls-3" d="M297.59,100.74c-1.54,3.59-48.95,3.21-51.13,6.39-16.74,24.64,43.62,129.46,26.87,154.13L271,264.05a109.89,109.89,0,0,0,15.69-8.85c.46-10.1.89-20.24,1.38-30.33a83.53,83.53,0,0,1,12,21.12c3.9-2.75,7.09-7.84,23.8-17.87A105.75,105.75,0,0,1,347,209.06L297.59,100.74Z" transform="translate(0 0.02)"/><path class="cls-6" d="M332,302.66a39.27,39.27,0,0,0-54.34,11.46,39.72,39.72,0,0,0-5.17,11.77L200.45,513.63,76.59,443.31a38.34,38.34,0,1,0-35.67,40.85,37.89,37.89,0,0,0,11.77-2.69c26.08,27.84,139.16,142,186,97.37C278,541.36,334.8,396.08,348.48,345.91A39.28,39.28,0,0,0,332,302.66Z" transform="translate(0 0.02)"/><path class="cls-6" d="M196.71,586.72l22.75,102.77,166.27,15L401,615Z" transform="translate(0 0.02)"/><path class="cls-3" d="M450.7,850.27c-.08,1.48-.17,2.93-.27,4.41C448.84,876,447,900.54,445,927.45c-3.11,42.71-6.58,91.34-10.1,142.23H86.18l67.63-203.3s27.31-15,13.41-40.3,13.46-5.13,13.72-41.2,24.77-74.46,24.77-74.46l4-54.62,2.3.05,181.49,3,3.32.07,5.58,46.89a207.28,207.28,0,0,1,48.3,144.44Z" transform="translate(0 0.02)"/><path class="cls-7" d="M300.49,252.85l82.76-4.26,38.44,60.75S494,321.43,489,406.67s-88,160-88,160l3.55-12.17-6.16,17.61.78,9.89,8.4,10.46.87,10.82L401,620.43a9.79,9.79,0,0,1-9.27,14.91l-119.59-12c-2.71-7.49-4.91-16.45-15.82-1.53l-11.26-1.09-46.84-4.54-2.75-10a38.84,38.84,0,0,1,6.34-33.54,51.3,51.3,0,0,1,3-38.52l.22-.46,5-4.14S155.56,447.77,218,386.2l25.06-42.61,28-34.22,29.35-56.49Z" transform="translate(0 0.02)"/><path class="cls-6" d="M321.09,217a78.49,78.49,0,1,0-78.48-78.48A78.48,78.48,0,0,0,321.09,217Z" transform="translate(0 0.02)"/><path class="cls-3" d="M380.7,251.59A37.82,37.82,0,0,1,368,230.82a81,81,0,0,0,1.13,29.65c-4.26,3.2-8.37,6.24-12.27,9a83.53,83.53,0,0,0-12-21.12c-.49,10.09-.92,20.24-1.38,30.33a110.44,110.44,0,0,1-15.69,8.85l2.33-2.78c16.75-24.68-26.58-70.07-9.84-94.71,4.7-6.91-16.52-61.46-32.68-63.9-14.39-2.18-13.78,2-27.71,5a69.36,69.36,0,0,0-6.67-17.28,58,58,0,0,1-.54,18.22c-4.95.18-8.85-3-14.13-3.78-33.65-5.14-30.23-41.53-20.87-53.07s40.58-14.95,55-18.69c1.31-1.27,4.28-.48,5.6-1.69,27.56-25.21,64.42-29.4,97.58-18.22,35.37,11.92,57.43,35,68.74,70.55l3.25,28.47c2.92,9.15-.75,51.73-3.25,61-9.7,36.05-30.35,18.05-63.88,55Z" transform="translate(0 0.02)"/><path class="cls-6" d="M495.12,623.4,492,382.77a38.84,38.84,0,0,0-77.68.6c0,.69,0,1.37.05,2.06L425.29,635.3l.2,152.1a33.9,33.9,0,1,0,44.44,18,34.82,34.82,0,0,0-2.82-5.29l28-176.68Z" transform="translate(0 0.02)"/><path class="cls-3" d="M900.18,934.73s-4.78,85.94-7,135H728.7c-3.39-44.6-4.53-77.37-4.53-77.37l-9,77.37H548.88l-10.31-143.3,49.82-123.49s270-18.73,295,5,16.76,126.81,16.76,126.81Z" transform="translate(0 0.02)"/><path class="cls-6" d="M754.71,211.76a89.87,89.87,0,1,0-89.86-89.86A89.87,89.87,0,0,0,754.71,211.76Z" transform="translate(0 0.02)"/><path class="cls-3" d="M859.44,92.69c-9.23,4.21-15.2,34.69-22.46,27.61s-6.77-16.31-16.54-18.92c-7.9-2.13-16.4.3-23.6,4.12-1.29.67-2.53,1.41-3.76,2.15-.8-.54-1.61-1-2.46-1.51a28.56,28.56,0,0,0-21-2.37A28,28,0,0,1,783.44,114c-2.41,1.61-4.86,3.24-7.36,4.68-20.87,12-50.57-14.15-72.53-24,13.76,25.82,7,36.51-5,63.21l-.42,1.53c.67-6.69-20-11.68-18.82-2.26.85,6.68,6.63,21.55,9.89,27.45-23.1-26.7-38.88-59.39-35.56-93.1.72-7.07.5-14.55,4.16-20.7s11.28-10.41,18-8.08a59.59,59.59,0,0,1,89.7-54.53c8.61,5.06,15.82,12.22,23.73,18.39s17,11.55,27,12.07c6.35.3,13.28-1.24,18.74,2.05,6.32,3.82,7.41,11.81,8.37,19.51a28.47,28.47,0,0,0-15.38,6.4,27.93,27.93,0,0,1,16.8,3.6l.27.16c3.35,12.72,3,15.53,14.3,22.31Z" transform="translate(0 0.02)"/><path class="cls-7" d="M549.28,846.36c76.53-89.58,50.68-203.5,20.3-318.51L575.37,358a52,52,0,0,1,23.51-41.74L677,265.17l30.41-44,83.81,8.39,46.49,49.14L889.15,318a85.21,85.21,0,0,1,31.5,86.14L871.42,626.8S892,742.23,879.44,755s-44.94,0-19.26,14.31c30.81,17.17,58.83,14,43.24,29.6s4.14,37.27,4.14,37.27L549.28,846.36Z" transform="translate(0 0.02)"/><path class="cls-6" d="M582,976.53l12.75-90.89-50.91-14.53-10.07,96.57A30.73,30.73,0,1,0,582,976.53Z" transform="translate(0 0.02)"/><path class="cls-7" d="M678.91,281.57S534,328.72,530.56,363.24,528.25,418.87,513,557l.8,371.93s97.14,20.81,87.19-1.44-6.49-32.7-6.49-32.7,20.82-8.22,15.61-34.33S631,704.9,631,704.9l16.5-232.07,31.39-191.26Z" transform="translate(0 0.02)"/><path class="cls-6" d="M857.57,971.72l-6.79-91.52L902.53,869l3.74,97a30.72,30.72,0,1,1-48.68,5.67Z" transform="translate(0 0.02)"/><path class="cls-7" d="M806.29,271.89s141.5,56.53,142.7,91.19-1.32,55.66,4.9,194.45l-25.11,371.1s-98.3,14.4-86.9-7.14,8.62-32.21,8.62-32.21-20.25-9.55-13.35-35.26-10.73-156.55-10.73-156.55l-1.29-232.65L806.29,271.91Z" transform="translate(0 0.02)"/></g></g></g></svg>