<svg xmlns="http://www.w3.org/2000/svg" xmlns:xlink="http://www.w3.org/1999/xlink" viewBox="0 0 475 437.51"><defs><style>.cls-1{fill:none;}.cls-2{clip-path:url(#clip-path);}.cls-3{fill:#eaeaf3;}.cls-4,.cls-5,.cls-6{fill:#6d6d6d;isolation:isolate;}.cls-4{opacity:0.5;}.cls-5{opacity:0.7;}.cls-6{opacity:0.4;}.cls-7{fill:#323232;}.cls-8{fill:#ff3d4a;}.cls-9{fill:#c0c0cd;}.cls-10{fill:#2e2d2d;}.cls-11{fill:#fff;}.cls-12{fill:#393939;}.cls-13{fill:#5e5c68;}.cls-14{fill:#1e1c1c;}.cls-15{fill-rule:evenodd;fill:url(#무제_그라디언트_2);}.cls-16{fill:#ee3636;}.cls-17{fill:#f29461;}.cls-18{fill:#ffa165;}.cls-19{fill:#fc7171;}.cls-20{fill:#2e303e;}.cls-21{fill:#504d5c;}</style><clipPath id="clip-path" transform="translate(0.35 -6.09)"><rect class="cls-1" width="481.57" height="443.43"/></clipPath><radialGradient id="무제_그라디언트_2" cx="543.3" cy="656.26" r="1" gradientTransform="matrix(0, 33.04, 197.64, 0, -129499.32, -17536.99)" gradientUnits="userSpaceOnUse"><stop offset="0" stop-color="#949aa0"/><stop offset="1" stop-color="#cecece" stop-opacity="0"/></radialGradient></defs><title>a2</title><g id="레이어_2" data-name="레이어 2"><g id="레이어_1-2" data-name="레이어 1"><g class="cls-2"><path class="cls-3" d="M67,265.28c-37.11,0-67.3-30.35-67.3-67.65S29.84,130,67,130s67.3,30.34,67.3,67.64a67.32,67.32,0,0,1-19.79,47.91l2.77,14.83-13.79-5.9A66.77,66.77,0,0,1,67,265.28Z" transform="translate(0.35 -6.09)"/><path class="cls-4" d="M50.74,241A43.77,43.77,0,1,0,16.2,189.76,43.62,43.62,0,0,0,50.74,241ZM67,156.14A42.66,42.66,0,1,1,17.29,190,42.72,42.72,0,0,1,67,156.14Z" transform="translate(0.35 -6.09)"/><path class="cls-5" d="M78,205.67c-11.41-.27-21.78-9.07-33.37-5.58-4.3,1.3-8.12,4.42-8.53,9.18-.52,6,4.19,11,9.07,13.67a55.49,55.49,0,0,0,8,3.41c3.23,1.17,6.47,2.33,9.76,3.32,6,1.79,12.28,3.07,18.55,2.42a26.44,26.44,0,0,0,14.1-5.56,19,19,0,0,0,6.78-13.1c.86-10.46-5.39-20.3-13.86-25.85a54.09,54.09,0,0,0-16.6-6.88,112.16,112.16,0,0,0-16.49-2.86c-4.67-.45-9.64-.48-14.11,1.16a13.31,13.31,0,0,0-8.86,10.13,18.44,18.44,0,0,0,4,14.25c3.57,4.5,9.05,7.17,14.43,8.78A70.24,70.24,0,0,0,68.61,215c5.87.19,11.88-.77,16.85-4.09a16.35,16.35,0,0,0,7.64-13,21.24,21.24,0,0,0-5.45-14.13c-3.91-4.54-9.47-7.26-15.16-8.8A68.06,68.06,0,0,0,55,172.75c-4.52,0-9.93.63-12.89,4.51-3.64,4.77-1.28,11.37,2.32,15.38a39.6,39.6,0,0,0,6.73,5.66,81.63,81.63,0,0,0,8.06,5.23C64,206.11,69.9,207.64,75,205c5.43-2.89,5.92-9.36,5.14-14.83-.8-5.68-2.29-11.92-5.85-16.53-3.21-4.16-8.86-7.12-14.05-5-3.87,1.56-6.34,5.5-7.24,9.46-2.43,10.64,6.52,18.78,15,23.26,5.14,2.71,11.59,5.67,17.48,3.84,5.14-1.61,8.64-6.69,6.15-12-2.72-5.75-9.36-7.39-15-8.74l-9.77-2.35c-3-.72-6-1.58-9-2.12-2.23-.38-4.83-.62-6.91.49-2.55,1.36-3.1,4.37-2.21,6.94,1,2.83,3.48,4.69,6,6.08,2.65,1.48,5.43,2.75,8.19,4Q72,201.65,81.54,205c4.34,1.5,10.49,3.69,14.51.27,4.3-3.66,2.21-10.51-.42-14.49A27.24,27.24,0,0,0,84.07,181a22.9,22.9,0,0,0-14.8-1.6,18.71,18.71,0,0,0-10.69,7.43c-5.39,7.54-5.38,18.94,3.12,24.22,4.23,2.64,9.85,3.2,14,.16,3.69-2.68,5.94-7.8,4.45-12.28-1.68-5.06-7-7.58-11.7-9.08a145.16,145.16,0,0,0-18.42-4.29q-4.91-.88-9.86-1.52a50.62,50.62,0,0,0-8.42-.7c-2.17.09-4.61.47-6.31,1.93a5,5,0,0,0-1,6.24,14.8,14.8,0,0,0,5.38,5.22c2.69,1.71,5.51,3.23,8.33,4.71a152.94,152.94,0,0,0,17.49,7.83c3.14,1.18,6.32,2.28,9.54,3.22a12.41,12.41,0,0,0,6.55.54c2.67-.71,3.62-3.35,2.51-5.79-1.18-2.61-3.62-4.42-5.84-6.1a94.16,94.16,0,0,0-16-9.73q-4.17-2-8.53-3.57a33.83,33.83,0,0,0-8.14-2.26c-2.65-.24-5.58.76-6.16,3.69-.5,2.52.82,5.21,2.16,7.25a42.64,42.64,0,0,0,6.05,6.76q3.39,3.35,7,6.41c4.16,3.5,8.52,7.07,13.54,9.26,4,1.78,9.17,2.91,13.1.23,4.6-3.14,4.54-9.05,2.84-13.82-1.89-5.27-5.63-9.57-9.68-13.31a56,56,0,0,0-14.53-9.69c-4.55-2.11-9.45-3.75-14.52-3.58-4.47.15-9.12,1.94-10.85,6.44-2.19,5.74,1.3,11.71,5.41,15.52,4.55,4.22,10.06,7.58,15.28,10.89,5.55,3.5,11.25,6.79,17.09,9.78,4.77,2.44,10.29,4.88,15.76,3.94s9.31-5.66,10.59-10.92c1.44-5.91-.16-12.11-2.28-17.65a65.27,65.27,0,0,0-7.67-14.34,66.4,66.4,0,0,0-10.81-11.9,52.77,52.77,0,0,0-12.77-8.48c-4.18-1.86-9-3.06-13.55-2.27a11.48,11.48,0,0,0-9.53,9.55c-1,5.6,1.18,11.44,3.64,16.38a98,98,0,0,0,8.68,14.19A100.68,100.68,0,0,0,68,222.81a97,97,0,0,0,14.19,8.25c5.13,2.43,11.35,4.95,16.83,2.09,3.86-2,6.15-6.08,7.24-10.18a28.4,28.4,0,0,0-.13-14c-2.72-11-9.72-20.49-18-28.05A131.15,131.15,0,0,0,73.44,169.5a165.77,165.77,0,0,0-15.8-10c-5.24-2.77-11.47-4.72-17.19-2.13-4.29,1.94-7.24,6-9,10.25C27.6,177,29.15,188,32.83,197.2c4,9.87,10.54,18.54,18,26.05C58.45,231,67.7,239,78.66,241.31A21.29,21.29,0,0,0,94.16,239a23.22,23.22,0,0,0,9.12-11.21c4.12-10.23.9-21.51-5.3-30.14-7-9.77-17.59-16.15-28-21.75-10.57-5.7-22.9-11.21-34.95-6.87a19.5,19.5,0,0,0-11.38,10c-2.36,5.13-2.23,11.17-.57,16.48,3.5,11.22,13.6,18.88,22.94,25.12a154.58,154.58,0,0,0,16.48,9.57,125.32,125.32,0,0,0,18.08,7.56c5.64,1.78,11.76,2.74,17.48.75a23.62,23.62,0,0,0,10.82-8.21c5.95-7.85,7.82-18.13,6.34-27.75a45.1,45.1,0,0,0-13.69-25.95A38.42,38.42,0,0,0,74.9,166.16a40.8,40.8,0,0,0-26.68,10.17,35.46,35.46,0,0,0-11.46,24.83,37.62,37.62,0,0,0,8.46,25.89c7.54,8.88,19.34,12.42,30.26,14.93,8.56,2,19.62,3.45,26.94-2.65,9.06-7.53,5.76-21.09.46-29.79C92.15,191.9,71.34,183.71,52.5,178.2c-5.44-1.59-11.47-3.79-17.19-2.65-5.14,1-9.65,5.28-8.56,10.9,1,5.21,5.53,9.15,9.44,12.32a130.16,130.16,0,0,0,49.06,24.67c3,.78,6,1.44,9.07,2a43.16,43.16,0,0,0,8.08.95,13,13,0,0,0,6.86-1.6,8.41,8.41,0,0,0,3.88-6.53c.51-5.9-3.58-10.54-8-13.8a143.78,143.78,0,0,0-16.34-9.94,228.77,228.77,0,0,0-34.94-15.47q-9.16-3.18-18.58-5.55-4.74-1.2-9.52-2.19a33.51,33.51,0,0,0-7.59-.9,10.87,10.87,0,0,0-6.47,2,7.81,7.81,0,0,0-2.82,7.13c.59,5.71,4.76,10.44,8.51,14.43A107.08,107.08,0,0,0,45.48,215.3,81.53,81.53,0,0,0,61.22,222c4.79,1.34,10.66,1.74,14.13-2.55,3.3-4.1,2.49-10.22,1-14.85a50.31,50.31,0,0,0-7.78-14,64.88,64.88,0,0,0-11.35-11.77,62.81,62.81,0,0,0-6.93-4.85A32.65,32.65,0,0,0,43,170.27a5.14,5.14,0,0,0-3.35-.11A2.9,2.9,0,0,0,38,173.41c.37,2.81,2.66,5.12,4.49,7.1A68.94,68.94,0,0,0,55,191.2a69.64,69.64,0,0,0,30.7,11.2l-.57.88A49.25,49.25,0,0,0,56,186c-2.55-.47-5.42-1-8-.5a4.08,4.08,0,0,0-3.07,2.17c-.65,1.47-.05,3.13.71,4.43,1.44,2.44,3.81,4.34,5.95,6.13a72.27,72.27,0,0,0,7.58,5.56,73.17,73.17,0,0,0,19,8.56l-.57.87a67.9,67.9,0,0,0-27.32-19.4L51,193a26.46,26.46,0,0,0,16.61,13.6l-.48,1a9.16,9.16,0,0,0-6.66-3c.17-.25.33-.5.49-.76a21.1,21.1,0,0,0,6.73,9l-.94.47a4,4,0,0,0-3.67-3.36,5,5,0,0,0-5.06,3c-2.36,4.6.33,9.55,2.61,13.57.36.64-.58,1.28-.94.64-2.68-4.73-5.85-11.18-1.75-16.14a5.8,5.8,0,0,1,6-2,5,5,0,0,1,3.94,4.25.57.57,0,0,1-.94.47,22.28,22.28,0,0,1-7-9.43.58.58,0,0,1,.49-.76,10.31,10.31,0,0,1,7.5,3.29c.34.37.12,1.15-.48,1a27.57,27.57,0,0,1-17.33-14.07.57.57,0,0,1,.72-.83,68.84,68.84,0,0,1,27.76,19.78.58.58,0,0,1-.58.88,73.68,73.68,0,0,1-26.67-14c-2.42-2-5.11-4.12-6.69-6.88-1.23-2.15-1.68-4.92.28-6.8,1.81-1.73,4.62-1.7,6.94-1.5a49.48,49.48,0,0,1,17.91,5.16,50.24,50.24,0,0,1,16.34,13.16c.34.42-.14.92-.57.87a70.73,70.73,0,0,1-34-13.41A72.35,72.35,0,0,1,44.32,184a39.49,39.49,0,0,1-6-6.75c-1.23-1.94-2.36-4.78-.83-6.88s4-1.83,6.13-1.13a38.3,38.3,0,0,1,7.71,4,65.93,65.93,0,0,1,7.12,5.1,65.64,65.64,0,0,1,11.83,12.69c3.3,4.63,6.38,9.83,7.72,15.41,1.16,4.78,1.25,10.62-2.44,14.37-3.86,3.93-9.67,3.61-14.58,2.23a84.38,84.38,0,0,1-17-7.3A108,108,0,0,1,14.3,192.18c-3.51-4-7.23-9.42-6.52-15,.67-5.4,5.7-7.83,10.62-7.88a37.12,37.12,0,0,1,8,1q5.2,1.08,10.35,2.42,10.15,2.63,20,6.17a228.23,228.23,0,0,1,38.1,17.76c3,1.73,5.91,3.51,8.77,5.4a33.19,33.19,0,0,1,6.74,5.6c3.46,3.95,5.47,10.14,2.57,15-2.74,4.59-8.38,5.2-13.19,4.77a98.86,98.86,0,0,1-18.62-3.92,131.71,131.71,0,0,1-36.28-16.93q-4.09-2.74-8-5.79a50.92,50.92,0,0,1-6.71-6c-3.3-3.67-6.06-8.74-4-13.72,2.16-5.2,8.25-7.16,13.42-6.88a45.44,45.44,0,0,1,9.58,1.91c2.69.75,5.38,1.53,8,2.37,10.54,3.33,21,7.48,30.18,13.73,8.84,6,16.81,14.43,20.25,24.78,1.75,5.28,2.31,11.26.28,16.55a17,17,0,0,1-10.49,9.87c-4.72,1.63-9.88,1.61-14.78,1a93,93,0,0,1-17.11-3.92c-6.11-1.94-12.09-4.56-17.09-8.66a34.21,34.21,0,0,1-9-11.57,40,40,0,0,1-2.12-29c6.38-20.26,30-30.6,49.72-24.47,20.26,6.3,33.49,29.64,28.92,50.42-2.08,9.46-8.06,19-17.55,22.34-6,2.11-12.51,1.09-18.46-.83a130.44,130.44,0,0,1-19.11-8.11A154.78,154.78,0,0,1,43,219.83a73.16,73.16,0,0,1-14.14-12.19,32.68,32.68,0,0,1-7.66-15.43c-1-5.56-.24-11.56,2.93-16.31a22,22,0,0,1,13.14-8.74,33.6,33.6,0,0,1,18,.9c6.75,2.07,13,5.48,19.17,8.94a96.14,96.14,0,0,1,16.35,11.12c8.62,7.53,15.62,18.21,15.55,30.06-.07,10.44-6.42,21.19-16.82,24-11.65,3.18-23.35-3.9-32-11.14-8.79-7.41-16.81-16.31-22.39-26.42-5.24-9.49-8.47-20.85-6.41-31.72a25.49,25.49,0,0,1,6.36-13.12,15.9,15.9,0,0,1,14.42-4.55c6.53,1.16,12.2,5.18,17.66,8.73a201.22,201.22,0,0,1,16.69,11.75C93.41,183.4,102,193,106,204.75A33.4,33.4,0,0,1,108,220c-.6,4.53-2.36,9.22-5.82,12.32-4.22,3.79-9.84,3.78-15,2.05a76.34,76.34,0,0,1-16.22-8.22A101.94,101.94,0,0,1,45,202.42a99.41,99.41,0,0,1-9.66-15.23c-2.66-5.19-5-11.07-4.38-17a12.69,12.69,0,0,1,8.68-11c4.53-1.43,9.52-.58,13.89,1a48.62,48.62,0,0,1,13.93,8.41,67.91,67.91,0,0,1,11.73,12.4,66.79,66.79,0,0,1,8.36,15.29C89.8,202,91.46,208.48,90,214.64c-1.26,5.21-4.82,10-10.12,11.51-5.63,1.58-11.52-.62-16.55-3.08a194.77,194.77,0,0,1-18-10.2q-4.43-2.77-8.72-5.77a59.29,59.29,0,0,1-7.73-6c-4-3.94-7.14-9.77-5.39-15.55,1.4-4.61,5.62-7.12,10.17-7.71,5.11-.67,10.19.68,14.88,2.61a57.24,57.24,0,0,1,16,10c4.3,3.8,8.31,8.23,10.5,13.61,1.87,4.59,2.53,10.39-1,14.39-3.26,3.72-8.31,4.05-12.79,2.77-5.38-1.53-9.93-4.86-14.26-8.29a100.1,100.1,0,0,1-14.72-13.79c-2.79-3.33-6.12-9.61-1.94-13.21,1.92-1.65,4.57-1.69,6.93-1.25a51.11,51.11,0,0,1,8.87,2.82,94,94,0,0,1,18.24,9.41,62.72,62.72,0,0,1,7.78,5.78c1.78,1.64,3.63,3.86,3.78,6.4a4.91,4.91,0,0,1-3.26,4.88,11.69,11.69,0,0,1-6.83-.1,124.1,124.1,0,0,1-19.33-7.11,118.58,118.58,0,0,1-17.79-9.41c-3.61-2.42-8.08-7-5.07-11.64,2.6-4,8.52-3.7,12.62-3.26A197,197,0,0,1,58.11,186c5.8,1.28,12.21,2.45,17.33,5.66,4.08,2.56,6.92,6.77,6.23,11.75a13,13,0,0,1-8.56,10.38c-5,1.61-10.58-.12-14.38-3.61a16.1,16.1,0,0,1-5.06-12.65c.41-9.52,7.57-18,17-19.59,10.3-1.73,21.52,4.23,26.64,13.24,2.39,4.19,3.86,10.58,0,14.42s-9.64,2.51-14.13,1a200.85,200.85,0,0,1-20-7.82c-3.13-1.42-6.32-2.84-9.3-4.56a13.75,13.75,0,0,1-5.79-5.49,7.62,7.62,0,0,1-.08-7.1,6.94,6.94,0,0,1,5.58-3.15,24.37,24.37,0,0,1,7.86,1l10.85,2.6c6,1.46,13.43,2.38,18,7.11,3.6,3.75,4.66,9.43,1,13.51-4.16,4.57-10.64,4.58-16.11,2.79a46.53,46.53,0,0,1-15.25-8.34c-4-3.31-7.39-7.81-8.23-13a17.06,17.06,0,0,1,3-12.62A11.35,11.35,0,0,1,66.38,167c5.77,1.31,9.77,6.18,11.91,11.46a49.56,49.56,0,0,1,2.51,8.95,30.9,30.9,0,0,1,.68,8.79,12.55,12.55,0,0,1-3.26,7.7,12,12,0,0,1-6.45,3.31c-6.16,1.18-11.94-1.72-16.94-5s-10.89-6.9-13.84-12.4c-2.49-4.65-2.7-10.81,1.46-14.57,3.68-3.34,9.15-3.74,13.87-3.58,11.86.41,25.75,2.68,33.34,12.86,3.19,4.28,5.13,9.74,4.45,15.13s-4.25,10-8.86,12.79c-5.34,3.23-11.64,4-17.78,3.69a69.76,69.76,0,0,1-18.39-3.35c-5.52-1.85-10.94-4.89-14.33-9.78-2.9-4.18-4.43-9.63-3.32-14.67A14.46,14.46,0,0,1,40.63,178c4.73-1.81,10-1.78,15-1.3a107.89,107.89,0,0,1,18,3.26,52,52,0,0,1,17.08,7.76c8.48,6.16,14.38,17.05,12.52,27.75-1.95,11.23-12.74,17.31-23.34,17.86-6.86.36-13.64-1.37-20.11-3.5-3.26-1.07-6.52-2.21-9.72-3.44A35.37,35.37,0,0,1,41.53,222c-4.12-3.09-7.34-8.24-6.5-13.58.7-4.5,4.24-7.64,8.36-9.1a23.88,23.88,0,0,1,14.51-.06c6.63,1.85,13,5.14,20,5.31.72,0,.81,1.15.09,1.13Z" transform="translate(0.35 -6.09)"/><path class="cls-4" d="M25.35,181A43.57,43.57,0,1,0,78.9,150.37,43.86,43.86,0,0,0,25.35,181Zm82.92,23a42.47,42.47,0,1,1-29.66-52.46A42.47,42.47,0,0,1,108.27,203.9Z" transform="translate(0.35 -6.09)"/><path class="cls-6" d="M66.94,210.8c1.17-11.4,10.71-21.11,8.16-33-.95-4.42-3.74-8.49-8.44-9.27-5.95-1-11.22,3.34-14.26,8a54.81,54.81,0,0,0-4,7.76c-1.41,3.15-2.82,6.31-4.05,9.53-2.25,5.85-4,12.06-3.86,18.39a26.73,26.73,0,0,0,4.41,14.56,18.74,18.74,0,0,0,12.46,7.82c10.3,1.69,20.56-3.8,26.72-11.86a54.92,54.92,0,0,0,8.13-16.09,114,114,0,0,0,4.13-16.29c.81-4.65,1.23-9.63,0-14.24a13.29,13.29,0,0,0-9.35-9.67c-4.91-1.27-10.32.12-14.45,2.93-4.74,3.22-7.82,8.5-9.84,13.77a71.55,71.55,0,0,0-4.24,17.54c-.65,5.87-.17,12,2.74,17.21a16.26,16.26,0,0,0,12.29,8.68,21,21,0,0,0,14.44-4.36c4.81-3.57,7.94-8.93,9.92-14.5a69.06,69.06,0,0,0,3.61-17.36c.37-4.54.15-10-3.46-13.27-4.45-4-11.18-2.19-15.44,1.11a39.42,39.42,0,0,0-6.14,6.31,81.68,81.68,0,0,0-5.82,7.66c-2.93,4.56-4.91,10.4-2.63,15.69,2.44,5.67,8.81,6.67,14.3,6.32,5.69-.37,12-1.37,16.85-4.57,4.38-2.89,7.76-8.32,6.1-13.69-1.24-4-5-6.78-8.81-8C86,184.68,77.19,193,72.09,201.16c-3.1,4.94-6.54,11.17-5.18,17.22,1.19,5.27,6,9.18,11.37,7.1,5.91-2.28,8.06-8.8,9.85-14.32l3.09-9.6c1-2.95,2-5.89,2.8-8.9.57-2.2,1-4.79.07-6.95-1.15-2.67-4.1-3.46-6.72-2.77-2.87.76-4.92,3.12-6.5,5.52s-3.15,5.23-4.61,7.89q-4.87,8.84-8.88,18.11C65.55,218.69,62.89,224.68,66,229c3.29,4.59,10.25,3,14.41.71a27.31,27.31,0,0,0,10.55-10.82,23.33,23.33,0,0,0,2.75-14.7,18.8,18.8,0,0,0-6.54-11.29c-7.06-6-18.36-6.88-24.27,1.22-2.94,4-3.94,9.63-1.25,14.05,2.37,3.91,7.26,6.56,11.83,5.42,5.15-1.29,8.06-6.42,9.92-11a145.26,145.26,0,0,0,5.69-18.12q1.27-4.84,2.29-9.76a51.82,51.82,0,0,0,1.35-8.39c.08-2.17-.11-4.64-1.42-6.47a5,5,0,0,0-6.11-1.5,14.58,14.58,0,0,0-5.6,5c-1.9,2.56-3.64,5.26-5.33,8a156.43,156.43,0,0,0-9.13,16.91c-1.42,3.06-2.76,6.16-4,9.31a12.67,12.67,0,0,0-1,6.53c.49,2.72,3,3.88,5.54,3,2.69-1,4.67-3.29,6.51-5.38a94.61,94.61,0,0,0,10.91-15.29q2.3-4,4.21-8.27a35,35,0,0,0,2.88-8c.45-2.65-.32-5.66-3.18-6.47-2.46-.7-5.23.41-7.36,1.59a43.59,43.59,0,0,0-7.18,5.53q-3.57,3.15-6.91,6.56c-3.8,3.89-7.68,8-10.25,12.84-2.07,3.91-3.6,9-1.25,13.11,2.75,4.86,8.62,5.26,13.48,3.93,5.38-1.48,9.94-4.89,14-8.66a56.31,56.31,0,0,0,10.75-13.8c2.44-4.4,4.46-9.17,4.68-14.27.2-4.49-1.2-9.29-5.53-11.37-5.52-2.65-11.72.39-15.82,4.2-4.55,4.23-8.31,9.48-12,14.46-3.91,5.28-7.61,10.74-11,16.35-2.8,4.59-5.65,9.93-5.15,15.49s4.88,9.77,10,11.47c5.76,1.9,12,.79,17.69-.9a65,65,0,0,0,14.82-6.57,66.14,66.14,0,0,0,12.65-9.89A53.06,53.06,0,0,0,112,191.54c2.17-4,3.74-8.75,3.32-13.39a11.53,11.53,0,0,0-8.73-10.3c-5.48-1.39-11.44.29-16.53,2.36a98,98,0,0,0-14.76,7.59,100.57,100.57,0,0,0-24.53,21.65A98.14,98.14,0,0,0,41.43,213c-2.81,4.95-5.8,11-3.39,16.7,1.69,4,5.55,6.64,9.52,8.05a27.84,27.84,0,0,0,13.94,1c11.16-1.85,21.09-8.13,29.23-15.79a132.57,132.57,0,0,0,12.44-13.82,166.88,166.88,0,0,0,11.18-15c3.16-5,5.58-11.13,3.47-17.06-1.59-4.46-5.36-7.73-9.47-9.82-9-4.6-20.07-3.91-29.48-1-10.1,3.19-19.21,9.12-27.24,16-8.31,7.07-17,15.71-20.09,26.52a21.53,21.53,0,0,0,1.09,15.7,23.12,23.12,0,0,0,10.4,10c9.82,4.93,21.27,2.59,30.31-3,10.25-6.27,17.4-16.35,23.77-26.33,6.48-10.14,12.91-22.07,9.55-34.48a19.58,19.58,0,0,0-9-12.19c-4.9-2.76-10.9-3.1-16.3-1.85-11.4,2.63-19.79,12.14-26.71,21a153.87,153.87,0,0,0-10.78,15.76A126.66,126.66,0,0,0,35,211c-2.2,5.51-3.64,11.57-2.11,17.45a23.74,23.74,0,0,0,7.29,11.48c7.32,6.58,17.37,9.26,27,8.53A44.7,44.7,0,0,0,94,236.74a38.8,38.8,0,0,0,12.4-25.89,41.26,41.26,0,0,0-8-27.53,35.2,35.2,0,0,0-23.73-13.43,37.16,37.16,0,0,0-26.34,6.45c-9.4,6.86-13.84,18.41-17.18,29.15-2.63,8.42-5,19.39.51,27.21,6.77,9.66,20.47,7.42,29.52,2.79,18.33-9.37,28.09-29.57,35-48,2-5.32,4.66-11.19,4-17-.62-5.23-4.48-10.09-10.13-9.43-5.26.6-9.52,4.82-13,8.49A129.9,129.9,0,0,0,65.3,184a131.88,131.88,0,0,0-16.56,32.7c-1,2.94-1.91,5.93-2.7,8.94a45.52,45.52,0,0,0-1.58,8,13.31,13.31,0,0,0,1.06,7,8.29,8.29,0,0,0,6.17,4.39c5.81,1,10.74-2.75,14.31-6.93a142.9,142.9,0,0,0,11.15-15.59,231.36,231.36,0,0,0,18.08-33.8q3.87-8.94,7-18.18,1.56-4.67,2.91-9.37a33.58,33.58,0,0,0,1.49-7.54,11,11,0,0,0-1.42-6.63,7.76,7.76,0,0,0-6.85-3.39c-5.71.14-10.73,4-15,7.39a107.44,107.44,0,0,0-23.41,26.48,83.23,83.23,0,0,0-7.84,15.25c-1.7,4.69-2.56,10.54,1.43,14.35,3.8,3.64,9.93,3.3,14.65,2.13a50.3,50.3,0,0,0,14.52-6.7A65.09,65.09,0,0,0,95.24,192.1a62.45,62.45,0,0,0,5.36-6.57,32.82,32.82,0,0,0,4.19-7,5.24,5.24,0,0,0,.37-3.35,2.88,2.88,0,0,0-3.09-1.94c-2.82.16-5.29,2.27-7.39,4A69,69,0,0,0,83.08,189a70.38,70.38,0,0,0-13.51,29.88l-.82-.64a49.64,49.64,0,0,0,19.39-27.85c.66-2.52,1.43-5.35,1.11-8a4.07,4.07,0,0,0-1.9-3.25c-1.41-.77-3.1-.3-4.45.37-2.54,1.25-4.6,3.47-6.55,5.48a70.52,70.52,0,0,0-6.1,7.16,73.49,73.49,0,0,0-10,18.39l-.83-.65A67.92,67.92,0,0,0,80.82,184l.77.78A26.51,26.51,0,0,0,66.8,200.38l-.94-.56a9.3,9.3,0,0,0,3.51-6.44l.71.55a20.93,20.93,0,0,0-9.41,6c-.13-.33-.27-.66-.4-1a4,4,0,0,0,3.62-3.42,5,5,0,0,0-2.53-5.3c-4.38-2.73-9.51-.41-13.67,1.55-.66.31-1.23-.67-.56-1,4.9-2.31,11.55-5,16.14-.49a5.87,5.87,0,0,1,1.53,6.17,5,5,0,0,1-4.53,3.62.58.58,0,0,1-.39-1,22,22,0,0,1,9.91-6.32.57.57,0,0,1,.71.55,10.38,10.38,0,0,1-3.85,7.25c-.4.32-1.15,0-.94-.56A27.64,27.64,0,0,1,81,183.81a.58.58,0,0,1,.77.79A69.26,69.26,0,0,1,60,210.86a.57.57,0,0,1-.82-.65,74.53,74.53,0,0,1,9.5-17.86,76.25,76.25,0,0,1,6.46-7.77c2.17-2.27,4.49-4.79,7.36-6.16,2.22-1.06,5-1.3,6.71.81s1.33,4.76,1,7.08a49.9,49.9,0,0,1-6.53,17.54,50.31,50.31,0,0,1-14.32,15.34c-.44.31-.91-.21-.83-.64a71.47,71.47,0,0,1,16-33.05A68,68,0,0,1,91,178.81a39.53,39.53,0,0,1,7.16-5.46c2-1.08,4.92-2,6.88-.29s1.51,4.2.65,6.23a38.59,38.59,0,0,1-4.55,7.41A65.85,65.85,0,0,1,82,204.3c-4.85,2.94-10.25,5.62-15.89,6.53-4.83.78-10.63.41-14.06-3.57-3.6-4.19-2.83-10-1.08-14.79A85.21,85.21,0,0,1,59.58,176,108,108,0,0,1,85.3,148.09c4.23-3.21,9.9-6.51,15.42-5.36,5.31,1.1,7.33,6.33,7,11.26a38.39,38.39,0,0,1-1.63,7.93c-1,3.41-2.06,6.81-3.21,10.17-2.26,6.65-4.84,13.18-7.69,19.59a230.54,230.54,0,0,1-20.6,36.78c-2,2.84-3.94,5.65-6,8.37a33.06,33.06,0,0,1-6.08,6.31c-4.19,3.16-10.49,4.69-15.08,1.4-4.34-3.1-4.5-8.8-3.7-13.59A100.38,100.38,0,0,1,49,212.6a133,133,0,0,1,19.65-35q3-3.89,6.36-7.55a53.06,53.06,0,0,1,6.47-6.25c3.91-3,9.15-5.38,13.93-2.91,5,2.57,6.45,8.82,5.77,14a45.49,45.49,0,0,1-2.64,9.44c-1,2.64-2,5.27-3,7.87-4.12,10.31-9.06,20.44-16,29.17C72.93,229.72,64,237,53.42,239.68,48,241,42.07,241.12,37,238.67a17.06,17.06,0,0,1-9-11.29c-1.24-4.86-.82-10,.13-14.89a94.66,94.66,0,0,1,5.24-16.84c2.39-6,5.46-11.76,9.92-16.44a34.16,34.16,0,0,1,12.18-8.09,39.36,39.36,0,0,1,28.94.15c19.6,8,28,32.49,20.38,51.74-7.84,19.8-32,31.23-52.28,25-9.22-2.83-18.25-9.57-20.78-19.33-1.62-6.22-.1-12.63,2.27-18.43a132.1,132.1,0,0,1,9.54-18.51,153.81,153.81,0,0,1,12.07-17.12,73.42,73.42,0,0,1,13.2-13.22A32.35,32.35,0,0,1,84.73,155c5.59-.55,11.48.67,16,4.21A22.16,22.16,0,0,1,108.32,173,34.14,34.14,0,0,1,106,191c-2.58,6.6-6.46,12.64-10.37,18.51A97.49,97.49,0,0,1,83.33,225c-8.15,8.06-19.29,14.23-31,13.23-10.35-.89-20.51-8.09-22.51-18.73-2.23-11.93,5.71-23.1,13.57-31.15,8-8.24,17.48-15.58,28-20.38,9.82-4.5,21.33-6.85,32-3.93a25.3,25.3,0,0,1,12.51,7.4,16.09,16.09,0,0,1,3.39,14.8c-1.66,6.46-6.1,11.83-10,17-4.13,5.42-8.32,10.81-13,15.8-8.35,9-18.52,16.8-30.52,19.95a33,33,0,0,1-15.27.72c-4.44-.95-9-3.08-11.76-6.79-3.43-4.53-3-10.16-.86-15.18a76.66,76.66,0,0,1,9.42-15.6,101.89,101.89,0,0,1,25.56-24.1,99,99,0,0,1,15.86-8.49c5.36-2.25,11.37-4.11,17.23-3a12.64,12.64,0,0,1,10.26,9.56c1.07,4.65-.17,9.58-2.07,13.84a49.14,49.14,0,0,1-9.44,13.3A67.42,67.42,0,0,1,91.36,214a66.28,66.28,0,0,1-15.83,7.18c-5.89,1.78-12.46,2.93-18.45.94-5.06-1.67-9.56-5.61-10.62-11-1.13-5.76,1.52-11.49,4.35-16.34a195.54,195.54,0,0,1,11.53-17.26q3.1-4.22,6.41-8.28a59,59,0,0,1,6.59-7.27c4.23-3.74,10.26-6.39,15.85-4.18,4.47,1.76,6.62,6.18,6.86,10.79.26,5.17-1.48,10.15-3.77,14.7A57.19,57.19,0,0,1,83.1,198.51c-4.1,4-8.81,7.68-14.31,9.45-4.71,1.52-10.51,1.72-14.21-2.11-3.43-3.56-3.37-8.65-1.74-13,1.94-5.27,5.6-9.57,9.34-13.64A99.58,99.58,0,0,1,77,165.5c3.52-2.53,10-5.37,13.25-.9,1.49,2.05,1.32,4.71.7,7a52.37,52.37,0,0,1-3.49,8.67,95,95,0,0,1-10.77,17.54,62.48,62.48,0,0,1-6.35,7.34c-1.76,1.65-4.11,3.34-6.63,3.28a4.9,4.9,0,0,1-4.59-3.65,11.85,11.85,0,0,1,.63-6.83,126.42,126.42,0,0,1,8.56-18.81,119.88,119.88,0,0,1,10.73-17.09c2.68-3.43,7.63-7.55,12-4.17,3.72,2.92,3,8.83,2.24,12.9A201.3,201.3,0,0,1,88,192.46c-1.73,5.71-3.39,12-7,16.91-2.85,3.89-7.25,6.4-12.14,5.32a13,13,0,0,1-9.63-9.38c-1.2-5.13,1-10.6,4.71-14.13a16,16,0,0,1,12.95-4.08A20.9,20.9,0,0,1,95,205.62c.91,10.46-5.89,21.23-15.22,25.66-4.35,2.07-10.8,3-14.3-1.12s-1.74-9.86.07-14.25a199.42,199.42,0,0,1,9.33-19.38c1.65-3,3.3-6.11,5.24-9A13.66,13.66,0,0,1,86,182.2a7.53,7.53,0,0,1,7,.47,7,7,0,0,1,2.69,5.84,25,25,0,0,1-1.65,7.8q-1.71,5.33-3.44,10.66c-1.91,5.95-3.4,13.28-8.45,17.45-4,3.32-9.72,3.93-13.48-.11-4.2-4.52-3.7-11-1.5-16.36a46.74,46.74,0,0,1,9.47-14.62c3.59-3.7,8.32-6.79,13.56-7.23a16.92,16.92,0,0,1,12.28,4,11.49,11.49,0,0,1,3.65,12.13c-1.75,5.67-6.9,9.3-12.3,11a48.41,48.41,0,0,1-9.07,1.81,30,30,0,0,1-8.77,0,12.42,12.42,0,0,1-7.39-3.87,12.22,12.22,0,0,1-2.77-6.72c-.69-6.26,2.64-11.83,6.31-16.58s7.7-10.37,13.39-12.89c4.81-2.13,10.93-1.86,14.34,2.6,3,3.94,3,9.47,2.46,14.18C101,203.63,97.7,217.38,87,224.18c-4.5,2.87-10.06,4.38-15.35,3.28s-9.59-5-12-9.88c-2.78-5.61-3.07-12-2.26-18.1a70.78,70.78,0,0,1,4.76-18.17c2.27-5.39,5.71-10.58,10.83-13.6,4.37-2.57,9.9-3.68,14.81-2.17a14.43,14.43,0,0,1,9.48,10c1.43,4.88,1,10.17.12,15.11a110.3,110.3,0,0,1-4.65,17.79,52.38,52.38,0,0,1-9,16.5c-6.77,8-18,13.08-28.51,10.37-11-2.84-16.17-14.12-15.88-24.78.18-6.9,2.42-13.57,5-19.88,1.32-3.18,2.7-6.36,4.18-9.47A35.17,35.17,0,0,1,53.62,173c3.39-3.88,8.75-6.71,14-5.45,4.41,1.05,7.24,4.85,8.37,9.09a24.24,24.24,0,0,1-1.08,14.55c-2.35,6.49-6.11,12.59-6.83,19.58-.07.73-1.2.73-1.13,0Z" transform="translate(0.35 -6.09)"/><path class="cls-7" d="M103.14,161.8A50.5,50.5,0,1,1,138.7,147l2.08,11.1-10.33-4.41a50,50,0,0,1-27.31,8.08Z" transform="translate(0.35 -6.09)"/><path class="cls-8" d="M363.87,173.89c46-3.25,80.72-43.47,77.46-89.68S398,3.06,352.06,6.3,271.34,49.77,274.6,96a83.6,83.6,0,0,0,28.69,57.61l-2.13,18.63,16.57-8.52a82.91,82.91,0,0,0,46.14,10.2Z" transform="translate(0.35 -6.09)"/><path class="cls-9" d="M171.9,106.53a42.71,42.71,0,1,1,31.26-9.17l.72,9.53-8.27-4.66A42.25,42.25,0,0,1,171.9,106.53Z" transform="translate(0.35 -6.09)"/><path class="cls-3" d="M153.86,44a17.09,17.09,0,0,1,8.86.91l8,12.11-2.77,3.67,9.88,12-4.71,5.07,7.29,14.62.09.32s-33.64-8.25-38.9-29.2c-1.85-7.34,1.81-16,8.6-18.56a20.44,20.44,0,0,1,3.67-1Z" transform="translate(0.35 -6.09)"/><path class="cls-3" d="M183.33,94.25l-2.75-13.56,6.33-5.43-7.29-13.21,5.66-5-4.66-13A16.82,16.82,0,0,1,189,39.3a17.94,17.94,0,0,1,3.48-.51c7.32-.37,14.13,6.2,15.31,13.72,3.33,21.34-24.4,42.07-24.4,42.07Z" transform="translate(0.35 -6.09)"/><path class="cls-9" d="M244.35,39a26.19,26.19,0,0,1,48.55-7.75,17.4,17.4,0,0,1,9.1-2.55,17.6,17.6,0,0,1,17.55,17.64,18.5,18.5,0,0,1-.3,3.27c.59-.05,1.18-.08,1.78-.08a20.63,20.63,0,0,1,0,41.25H249.54A26.17,26.17,0,0,1,244.35,39Z" transform="translate(0.35 -6.09)"/><path class="cls-10" d="M251.21,45.93l9.94,14.78h-4.36l6.94,12.59L252.57,58.52h4.36Z" transform="translate(0.35 -6.09)"/><path class="cls-10" d="M292.78,45.93l9.94,14.78h-4.36L305.3,73.3,294.14,58.52h4.36Z" transform="translate(0.35 -6.09)"/><path class="cls-11" d="M268.13,36.3l16.93,25.18h-7.42l11.83,21.45-19-25.18h7.42Z" transform="translate(0.35 -6.09)"/><path class="cls-12" d="M314.36,73.37a30.3,30.3,0,0,1,56-9.87,20.14,20.14,0,0,1,10.48-3.12,20.36,20.36,0,0,1,20.63,20.08,21.43,21.43,0,0,1-.29,3.78c.68-.07,1.36-.11,2.06-.12a23.85,23.85,0,0,1,.76,47.7c-.16,0-.32,0-.49,0h0l-81.47,1.32h0l-.73,0a30.27,30.27,0,0,1-7-59.79Z" transform="translate(0.35 -6.09)"/><path class="cls-10" d="M338.84,80.18,352.4,99.67l-5.81.09,9.53,16.63-15.2-19.46,5.81-.09Z" transform="translate(0.35 -6.09)"/><path class="cls-10" d="M394.25,79.29l13.57,19.48-5.81.1,9.53,16.63L396.34,96l5.8-.1Z" transform="translate(0.35 -6.09)"/><path class="cls-11" d="M361.19,67l23.11,33.2-9.89.16,16.22,28.34L364.74,95.52l9.89-.16Z" transform="translate(0.35 -6.09)"/><path class="cls-13" d="M259.32,102.9a20.89,20.89,0,0,1,38.73-6.19,14.06,14.06,0,0,1,21,14.65c.47,0,.94-.06,1.42-.06a16.45,16.45,0,0,1,0,32.9h-57a20.87,20.87,0,0,1-4.15-41.3Z" transform="translate(0.35 -6.09)"/><path class="cls-14" d="M264.79,108.41l7.93,11.79h-3.47l5.53,10-8.9-11.79h3.48Z" transform="translate(0.35 -6.09)"/><path class="cls-14" d="M298,108.41l7.93,11.79h-3.48l5.54,10-8.9-11.79h3.47Z" transform="translate(0.35 -6.09)"/><path class="cls-11" d="M278.29,100.73l13.51,20.09h-5.92l9.44,17.11-15.17-20.09h5.92Z" transform="translate(0.35 -6.09)"/><path class="cls-9" d="M401.45,238a50.53,50.53,0,1,0-25.11-29.19l-6.85,9,11.2.7A50,50,0,0,0,401.45,238Z" transform="translate(0.35 -6.09)"/><path class="cls-3" d="M399.44,204.41a5.1,5.1,0,0,1,.07-2.5,12.91,12.91,0,0,1,2.21-5.54,20,20,0,0,1,3.85-4,28.08,28.08,0,0,1,4.59-3l4.32-2.24c3.28-1.54,5.56-3.07,6.84-4.61a6.41,6.41,0,0,0,1.87-4.13,2.31,2.31,0,0,0-.86-1.87,3.47,3.47,0,0,0-1.8-.73,6.8,6.8,0,0,0-2.87.33,16.26,16.26,0,0,0-2.94,1.29c-1,.54-2,1.16-3.07,1.87s-2.11,1.39-3.18,2.08a9.17,9.17,0,0,1-5.61,1.44,13.64,13.64,0,0,1-6.2-1.75,4.21,4.21,0,0,1-1.25-.91,2.15,2.15,0,0,1-.56-1.22,3.26,3.26,0,0,1,.39-1.68,12.2,12.2,0,0,1,1.63-2.37,29.86,29.86,0,0,1,8-7,21.25,21.25,0,0,1,9.32-3A18.25,18.25,0,0,1,424.55,167a16.84,16.84,0,0,1,3.76,2.74,16.37,16.37,0,0,1,2.62,3.26,17.3,17.3,0,0,1,2.69,6.18,13.07,13.07,0,0,1,0,5.29,11.67,11.67,0,0,1-1.89,4.35,18.6,18.6,0,0,1-2.87,3.27,17.25,17.25,0,0,1-3.33,2.32c-1.21.65-2.46,1.26-3.75,1.86s-2.57,1.2-3.84,1.82a21,21,0,0,0-3.57,2.2,14.4,14.4,0,0,0-2.94,3,12.68,12.68,0,0,0-1.92,4.35c0,.79-.35,1.24-.93,1.37a4.21,4.21,0,0,1-2.13-.19,16,16,0,0,1-2.74-1.17c-1-.52-1.89-1-2.72-1.47a3.77,3.77,0,0,1-1.56-1.8ZM396,212a5,5,0,0,1,2-1.48,6.56,6.56,0,0,1,2.89-.48,11.36,11.36,0,0,1,5.89,2.09,6.35,6.35,0,0,1,1.38,1.43,4.26,4.26,0,0,1,.62,1.48,5.24,5.24,0,0,1,.06,1.48l-.1.93a1.49,1.49,0,0,1-.2.73,4.89,4.89,0,0,1-2.7,2.6,7.68,7.68,0,0,1-5.07.15,12.52,12.52,0,0,1-2.5-.88,6.84,6.84,0,0,1-2-1.43,4.87,4.87,0,0,1-1.24-4.49A4.65,4.65,0,0,1,396,212Z" transform="translate(0.35 -6.09)"/><path class="cls-3" d="M427.76,215.19a5.23,5.23,0,0,1,1.9-1.74,6,6,0,0,1,2.79-.71,8.68,8.68,0,0,1,3.51.71,7.33,7.33,0,0,1,2.58,1.56,5.59,5.59,0,0,1,1.35,2,4.78,4.78,0,0,1,.31,2,5.31,5.31,0,0,1-.39,1.72A6.77,6.77,0,0,1,439,222a7.23,7.23,0,0,1-1.45,1.29,7.63,7.63,0,0,1-2,.92,6.28,6.28,0,0,1-2.48.21,7.53,7.53,0,0,1-4.77-2.07,5.24,5.24,0,0,1-1.43-4.79,6,6,0,0,1,.9-2.39ZM457,172.94a4.52,4.52,0,0,1-.45,2.81q-2.1,4.49-4.17,9.09t-4,9.1q-1.93,4.5-3.59,8.68c-1.1,2.79-2.09,5.4-3,7.81-.3.85-.68,1.35-1.13,1.51a3.23,3.23,0,0,1-2.06-.28,23.61,23.61,0,0,1-3.09-1.1,20.46,20.46,0,0,1-2.69-1.45,4.27,4.27,0,0,1-1.71-1.84,4.51,4.51,0,0,1,.13-2.71c.58-2.36,1.34-5.14,2.28-8.32s2-6.45,3.06-9.8,2.21-6.66,3.35-9.93,2.19-6.19,3.17-8.76c.46-1.24,1-2,1.69-2.2a4.22,4.22,0,0,1,2.91.56,30.4,30.4,0,0,1,3.89,1.85,21.9,21.9,0,0,1,3.58,2.44A5.37,5.37,0,0,1,457,173Z" transform="translate(0.35 -6.09)"/><path class="cls-15" d="M102.64,414.88c-6.72-2.29-10.43-4.79-10.43-7.42,0-10.78,62.57-19.53,139.77-19.53s139.76,8.75,139.76,19.53c0,8.9-42.65,16.42-101,18.77a3,3,0,0,1,1.21,2.19c0,8.39-52.21,15.19-116.61,15.19s-116.63-6.8-116.63-15.19C38.75,422.51,64.73,417.38,102.64,414.88Z" transform="translate(0.35 -6.09)"/><path class="cls-16" d="M337.91,354.16,341,400.79a.57.57,0,0,1-.44.6,11.53,11.53,0,0,1-2.65.25,7.46,7.46,0,0,1-2.73-.38.56.56,0,0,1-.33-.4l-10.43-45.31,13.49-1.39Z" transform="translate(0.35 -6.09)"/><path class="cls-16" d="M271.46,364.87,267,425.25a.74.74,0,0,1-.39.61,8.26,8.26,0,0,1-3.67.6,7.28,7.28,0,0,1-3.71-.73.78.78,0,0,1-.34-.57C258.5,420.38,254,364,254.35,364s17.11.88,17.11.88Z" transform="translate(0.35 -6.09)"/><path class="cls-10" d="M247.38,375.26c0,.12-1,13.69-1.21,15.46a.35.35,0,0,1-.28.32,13,13,0,0,1-2.73.25,15.52,15.52,0,0,1-2.75-.25.36.36,0,0,1-.29-.35l-.3-15.69,7.56.26Z" transform="translate(0.35 -6.09)"/><path class="cls-10" d="M171.46,353.27c-.08.33-15.39,45.05-16.48,48.25a.46.46,0,0,1-.25.28,9.64,9.64,0,0,1-3.71.6,8.55,8.55,0,0,1-3.48-.49.46.46,0,0,1-.24-.5l10.09-52.51Z" transform="translate(0.35 -6.09)"/><path class="cls-9" d="M354.92,346.72c3.86-8.33,13.13-26.44,16.14-64.05,2.74-34.37,2.46-46.4,2.36-48.7-.59-12.75-9.31-15.41-12.15-15.92-50-9-111-3.41-111-3.41-11.6.37-19.47,8.25-24.22,13.58-5.08,5.68-11.22,15.13-12.85,16.47-4.93,4.05-25.07,5.11-58.86,7.78-8.49.67-14.16.63-19.46,3.08-7.43,3.44-7.53,10.9-7.93,14.3-2.78,23.75,6.12,65.55,13.17,80.55,1,2.1,5.2,6.16,8.87,7.18,37.1,10.38,68.4,15.25,109.22,20.2,2.43.29,11.24,1,15.7-.06,33.54-7.71,52.8-15,70.74-21.11,1.12-.39,6.84-2.48,10.26-9.88Z" transform="translate(0.35 -6.09)"/><path class="cls-3" d="M127,270.31c.14-1.22.93-6.8,1.16-7.66a12.19,12.19,0,0,1,6.6-7.15c5.3-2.45,11-2.42,19.46-3.09,32.77-2.58,52.7-3.66,58.37-7.42,0,.08,0,.15,0,.22a29.69,29.69,0,0,1-9.9,5.38c-9.11,3-18.4,2.69-31.53,4.32s-18.74,2.38-22.26,7.3c-2.4,3.35-2.39,7.48-1.9,11.66a.76.76,0,0,0,0,.15c.63,2.92,1,6,1.46,9,3.47,21.62,8,42.32,8.79,42.73,26.75,14.72,63.55,16.43,92.3,15.63a10.86,10.86,0,0,0,7.33-3.24c5.43-5.5,10.44-18,16.8-32.19,4-8.87,8.41-23.62,14.83-32.21,3-4,10.16-5.49,17.46-6.16,10.55-1,15.26-1.74,32.06-2.52,10-.46,30.67-2.16,34.75-6.11-.36,6.44-.9,14.39-1.68,24.15-3,37.61-12.28,55.72-16.13,64.06-3.43,7.4-9.15,9.49-10.27,9.88-17.94,6.12-37.2,13.4-70.74,21.11-4.46,1-13.26.35-15.69.06-40.82-4.95-72.13-9.82-109.23-20.2-3.66-1-7.88-5.08-8.87-7.18-7-15-15.95-56.8-13.17-80.55Z" transform="translate(0.35 -6.09)"/><path class="cls-3" d="M273.24,306.72s-9.12-.48-27-1.57C194.73,302,172.1,298,167,296.73c-1.92-.47-12.13-3.07-15.94,2a6.6,6.6,0,0,0-1.29,4.05c.09,4.54,2,15.21,3.43,18,3.21,6.47,12.09,9.9,23.61,13.15,28,7.9,63.07,8.71,72.11,7.66a17.26,17.26,0,0,0,6.47-1.87c7.23-5.4,17.88-33,17.88-33Z" transform="translate(0.35 -6.09)"/><path class="cls-9" d="M295.51,334.49a287.2,287.2,0,0,0,8.69-46.06c.19-1.86,1.42-8.45,3.85-11.86,3.58-5,9.4-5.76,22.63-7.41,7.9-1,14.44-1.26,20.38-2v1.15a67,67,0,0,1-55.55,66.14Z" transform="translate(0.35 -6.09)"/><path class="cls-9" d="M167,296.73a36,36,0,0,0-5.65-1.23,18.84,18.84,0,0,0-5.85.09,9.62,9.62,0,0,0-2.85,1l-.17.1-.16.1L152,297a10.89,10.89,0,0,0-.61.49,5.92,5.92,0,0,0-.56.56l-.26.3-.24.32a7.17,7.17,0,0,0-1.18,2.93,7,7,0,0,0-.08.8,2.57,2.57,0,0,0,0,.39v.38c0,.5,0,1,.06,1.48.06,1,.15,1.95.26,2.92,0,.49.11,1,.17,1.46l.1.72.1.73c.28,1.93.61,3.84,1,5.76.1.48.22,1,.32,1.44l.19.73.09.36.1.36.11.36c0,.12.07.24.11.37s.16.49.25.74l.16.38c.06.13.11.26.17.38l.18.35a3.9,3.9,0,0,0,.19.35,14.4,14.4,0,0,0,1.82,2.55,19.46,19.46,0,0,0,2.24,2.12,29.42,29.42,0,0,0,5.09,3.22,56.22,56.22,0,0,0,5.42,2.36q2.75,1,5.53,1.9c1.85.58,3.7,1.12,5.57,1.64s3.75,1,5.64,1.45l1.42.32,1.41.32,1.42.31,1.42.3c3.8.77,7.61,1.42,11.44,2s7.66,1,11.5,1.42,7.7.7,11.55.92,7.72.36,11.58.4,7.73,0,11.64-.33l.74-.07.74-.08.75-.1.74-.13a23.14,23.14,0,0,0,2.95-.74q.72-.24,1.44-.54l.36-.16.18-.08.18-.1.19-.1.09-.05.1-.06.11-.06.14-.09.05,0,0,0,.08-.06c.21-.17.41-.35.6-.53s.38-.36.56-.55a15.23,15.23,0,0,0,1-1.15c.64-.79,1.21-1.59,1.76-2.41s1.06-1.66,1.56-2.5q1.47-2.54,2.76-5.15c1.73-3.48,3.29-7,4.76-10.6s2.84-7.2,4.09-10.85c-.79,1.76-1.58,3.52-2.4,5.27s-1.64,3.48-2.49,5.22c-1.69,3.46-3.44,6.89-5.32,10.23-.94,1.67-1.92,3.32-3,4.91a41.5,41.5,0,0,1-3.34,4.54c-.31.34-.62.68-.94,1-.16.16-.32.3-.48.45s-.33.28-.5.4l-.07.05,0,0,0,0h0l0,0-.06,0-.06,0-.14.07-.14.06-.15.06-.3.12c-.42.16-.85.3-1.28.43a20,20,0,0,1-2.66.57c-.23,0-.45.07-.68.09s-.46.06-.69.07l-.69.06-.7,0c-1.87.11-3.78.13-5.68.12s-3.81,0-5.72-.1c-3.82-.13-7.64-.32-11.45-.6s-7.62-.61-11.42-1-7.59-.88-11.37-1.45-7.55-1.19-11.29-1.93S182.71,333.93,179,333c-1.84-.47-3.69-1-5.51-1.52s-3.63-1.11-5.41-1.74a54.08,54.08,0,0,1-5.21-2.12,26.59,26.59,0,0,1-4.73-2.81,14.15,14.15,0,0,1-3.62-3.87l-.17-.28-.16-.29c-.05-.09-.09-.19-.13-.28l-.13-.28-.24-.62c0-.1-.07-.21-.11-.32l-.11-.33-.11-.33-.1-.34-.2-.68c-.12-.46-.25-.91-.36-1.37-.47-1.85-.87-3.72-1.23-5.6s-.67-3.77-.89-5.65c0-.47-.1-1-.12-1.41l0-.35c0-.12,0-.22,0-.33a4.58,4.58,0,0,1,0-.64,6,6,0,0,1,.83-2.45,5.8,5.8,0,0,1,1.84-1.85,8.82,8.82,0,0,1,2.5-1.07,18.5,18.5,0,0,1,5.62-.46c.95,0,1.9.14,2.85.26S166,296.54,167,296.73Z" transform="translate(0.35 -6.09)"/><path class="cls-17" d="M188,183c1.24,3.17.13,4.67.62,10.44,1.26,15,12.67,26.67,16.46,42.38,1.71,7.08-.35,16.89-5.67,19.16a7.38,7.38,0,0,1-4.81.16c-2.12-.6-6.13-2.64-9.61-13.56-2.56-8.05-2-12.1-3.26-28.82-.69-9.41-1-14.11-1.7-18.39-1.68-10.72-3-16.57-3.46-18.74a1.16,1.16,0,0,1,.67-1.2C179.42,173,185.7,177.1,188,183Z" transform="translate(0.35 -6.09)"/><path class="cls-18" d="M194.45,256.61c-1.5,1-3.62,1.33-7.87,2-1.79.27-3.19.61-6,.86-1.78.15-4.56.46-8.43,1.17a5.47,5.47,0,0,0-3,1.4c-1.51,1.13-3.46,2.8-3.24,4,.12.59,1.77,2.53,2.3,3.85a2,2,0,0,1,.14,1.35c0,.11-.42,1.07-.9,1.28a1.93,1.93,0,0,1-1.69-.12A7,7,0,0,1,163,270a12.08,12.08,0,0,1-2.13-5.12,6.72,6.72,0,0,1-1.19-2.08,5.41,5.41,0,0,1,.12-2.68,3.65,3.65,0,0,1-.38-.73c-.53-1.61,1.71-5.1,1.71-5.1a6.58,6.58,0,0,1-.1-1c0-1.3.86-2.33,2.13-3.52a24.52,24.52,0,0,1,8.14-5.38,15.88,15.88,0,0,1,3.86-.68c2-.08,3.58,0,6.13-.2,5.48-.4,6-1.25,11.63-.83,4.1.3,4.76,1.32,5.11,1.71,2.34,2.61.54,9.54-3.55,12.28Z" transform="translate(0.35 -6.09)"/><path class="cls-19" d="M166.91,257a4.43,4.43,0,0,0-.58.2l-.28.11-.27.14c-.18.1-.36.19-.53.3l-.51.35a9.44,9.44,0,0,0-3,3.83c0,.09-.08.19-.12.28l-.11.29c-.06.19-.13.39-.18.59a6,6,0,0,0-.2,1.21c.46-.68.89-1.33,1.33-2s.88-1.26,1.35-1.86.95-1.18,1.46-1.76,1.06-1.11,1.62-1.72Z" transform="translate(0.35 -6.09)"/><path class="cls-19" d="M165.44,254a7.39,7.39,0,0,0-1.78.94,9.47,9.47,0,0,0-1.52,1.31,8,8,0,0,0-1.21,1.62,6.38,6.38,0,0,0-.75,1.88c.49-.47.92-1,1.35-1.44s.86-.94,1.3-1.41l1.31-1.4c.23-.23.44-.47.66-.72A9.84,9.84,0,0,0,165.44,254Z" transform="translate(0.35 -6.09)"/><path class="cls-19" d="M161.59,254c.34-.25.62-.48.9-.72s.55-.48.8-.74.51-.53.76-.81a6.31,6.31,0,0,0,.68-.94,3.25,3.25,0,0,0-1.11.43,4.57,4.57,0,0,0-.92.72,4.65,4.65,0,0,0-.72.92,3.36,3.36,0,0,0-.26.54,2,2,0,0,0-.13.6Z" transform="translate(0.35 -6.09)"/><path class="cls-17" d="M168.85,374.47a125.53,125.53,0,0,1,2-17.3H148.65c.95,17.4.83,30.46-.11,33.68-1.47,5.09-2.91,7-5.26,8.56-3.82,2.57-6.06,4.2-6.52,6-.76,3,5.26,6.76,11.78,8.59,9.12,2.55,20.79-1.12,22.81-7.56.83-2.63-.33-4.49-1.5-8.32C167.92,391.83,168.23,386.05,168.85,374.47Z" transform="translate(0.35 -6.09)"/><path class="cls-11" d="M170.51,398.24c-1.58,0-1.12,3.94-4.52,4.1-7.17.34-10.8-4.1-13.58-5.66-5.65-3.16-6.79-1.92-7.13-1.66a3.58,3.58,0,0,0-.77,1.11c-5,6.48-16.27,13.53-21.74,15.75-3.75,1.51-5.62,2.27-7.62,2.44a15.57,15.57,0,0,0-5.51.89,9.15,9.15,0,0,0-3.31,2.1c-2,2-3.17,5.23-1.77,7.22,3.12,4.45,11.48,5.75,14.07,6.07a46.34,46.34,0,0,0,14-.42c3.58-.62,5.28-1.47,12.14-3.55,5.67-1.72,16.3-2.56,23.64-3.66.66-.1,4.31.14,6-3.22,1-2.13.19-4-.33-6.87a59.62,59.62,0,0,1-.84-8.12,22.57,22.57,0,0,0-1-4.77c-.36-.88-.77-1.74-1.61-1.76Z" transform="translate(0.35 -6.09)"/><path class="cls-20" d="M173,414.57c-5.55.83-11,1.85-16.47,3.12l-8.15,2-4.09,1-4.09,1-4.09.93-4.1.91-.52.11-.26.05-.3.06-.28,0-.27,0-.53.06c-.71.09-1.42.11-2.13.15l-1.07,0h-1.07l-1.06,0c-.36,0-.71,0-1.07-.05a40.78,40.78,0,0,1-8.37-1.4,30.2,30.2,0,0,1-4-1.42,16.8,16.8,0,0,1-3.66-2.1l.92.5.95.44a20.1,20.1,0,0,0,2,.73l.49.17.5.15c.33.09.66.2,1,.28l1,.25,1,.21c.67.15,1.36.25,2,.37l1,.14,1,.12,1,.1c.34,0,.68.05,1,.08l1,.06,1,0c.34,0,.69,0,1,0h1l1-.05c.34,0,.69,0,1-.06.68-.06,1.37-.11,2-.21l.51-.06.25,0,.25,0,.46-.11.51-.12,4.08-1,4.09-1,4.1-.93,4.1-.91c1.37-.3,2.73-.6,4.11-.88s2.74-.58,4.12-.83A104.85,104.85,0,0,1,173,414.57Z" transform="translate(0.35 -6.09)"/><path class="cls-20" d="M268.61,274.7c-2.15-10-20.69-12.82-35.09-15.11-22.81-3.64-65.4-.39-79.12,4.56a15.7,15.7,0,0,0-5.19,3.06,22.43,22.43,0,0,0-5.68,10A58.48,58.48,0,0,0,142,293.11c.05,2,.06,8.89.06,8.89l-1.52,82.09s1.54.71,14.78,2c14.67,1.45,19.3,0,19.3,0l1.07-45.94A113.39,113.39,0,0,0,178.33,324c1-11.39.79-16.19,0-21.36,1.79.48,3.34.81,4.54,1.05,8,1.64,14.17,1.21,22.06.51,46-4.08,51.88-8.46,55.14-11.59,1.88-1.81,10.26-9.84,8.53-17.89Z" transform="translate(0.35 -6.09)"/><path class="cls-17" d="M243.46,366.16c-.11-1.7-.19-3.1-.23-4.48H222.59c3,15.64-.29,25.21-.32,28.11-.06,7.06,2.25,8.24,3.23,9.45,3.57,4.38,19.9,1,22.87-7.31.39-1.08,4.5-4.44-.72-12.89-.75-1.22-3.57-2.89-4.19-12.89Z" transform="translate(0.35 -6.09)"/><path class="cls-11" d="M246.09,375.59c-1.19.69.86,3.43-.85,6.52a6.93,6.93,0,0,1-3.4,2.81c-3.42,1.57-7.1.54-9.92-.26a63.63,63.63,0,0,0-8.57-1.87,2.65,2.65,0,0,0-1.62.17c-1.6.79-1.78,3.44-1.86,4.43a56.5,56.5,0,0,1-2.55,11.18c-.87,2.73-3.09,9.68-8.06,11.42-1.22.43-2.95.34-5.09,1.81a9.46,9.46,0,0,0-2.89,2.81c-.32.51-1.95,4.2-.69,6.72.61,1.22,1.77,1.89,3.9,2.64A34.19,34.19,0,0,0,215,426c5-.09,9.51-.51,14.42-2.71,2.65-1.19,6.07-4.49,12.65-11.35,6.06-6.32,7.66-8.94,12.89-15.35A10.8,10.8,0,0,0,257.2,393a7.73,7.73,0,0,0,.51-3.76c-.22-1.68-1-2.56-2.72-5.11a42.74,42.74,0,0,0-5.68-7C248.45,376.19,246.86,375.13,246.09,375.59Z" transform="translate(0.35 -6.09)"/><path class="cls-20" d="M202.24,417.05a47.19,47.19,0,0,0,8,1.29,38.92,38.92,0,0,0,4,.1l1,0,1-.06c.68,0,1.35-.09,2-.16s1.33-.16,2-.27,1.31-.23,1.95-.38a24.6,24.6,0,0,0,10.54-5.33c1-.85,2-1.77,3-2.71l1.46-1.42,1.42-1.46c1.87-2,3.69-4,5.48-6.05,3.57-4.13,7-8.37,10.48-12.64a148.31,148.31,0,0,1-9.51,13.45c-.86,1.07-1.71,2.15-2.61,3.2s-1.79,2.09-2.72,3.11c-.46.51-.94,1-1.42,1.51L237,410.67c-1,1-2,1.92-3.08,2.82a27.92,27.92,0,0,1-3.42,2.45,24.35,24.35,0,0,1-3.8,1.87,26.75,26.75,0,0,1-8.2,1.68c-.7,0-1.39.06-2.07.07h-1l-1,0a40.89,40.89,0,0,1-4.13-.38,36.7,36.7,0,0,1-7.95-2.11Z" transform="translate(0.35 -6.09)"/><path class="cls-20" d="M309,270.6c-.4-2.78-.9-6.14-1.19-10.41l-.08-1.14a25.38,25.38,0,0,1-12.94,4.78,6.58,6.58,0,0,1-2.18-.18c-5.75-1.46-12-1.66-18.59-1.69-2.31,0-2.35.07-20.31,1.72-8.55.79-17.06,2.24-25.64,2.58-7.95.31-14,.09-20.52,4.08a19.37,19.37,0,0,0-7.49,7.74c-2.64,5.47-.68,15.34-.42,17a102.27,102.27,0,0,0,5.76,21c1,2.68,5,14.74,5.81,19.26,3.37,18.11,3.5,38.38,3.5,38.38s6.34,3.68,19.85,1.36c7.21-1.24,11-4.58,11-4.58s-1.82-26.2-1.67-29.25c.58-11.29.87-16.94.22-23.21-.33-3.18-.64-6.11-1.16-9l2.65-.06c22.77-.51,47.09.85,59.21-8.81,5.36-4.27,6.26-11.06,5.95-16.15C310.57,281.11,309.42,273.5,309,270.6Z" transform="translate(0.35 -6.09)"/><path class="cls-20" d="M273.81,224.35a79.19,79.19,0,0,0,3.26-8.21c.94-2.78,1.78-5.6,2.53-8.43l.55-2.12c0-.17.09-.37.13-.49l.16-.51c.12-.35.23-.71.33-1.07.41-1.43.76-2.87,1.05-4.33s.5-2.92.65-4.4a38.6,38.6,0,0,0,.22-4.44c-.87,2.84-1.64,5.65-2.51,8.42-.43,1.39-.87,2.77-1.35,4.13l-.35,1-.19.53c-.09.22-.12.38-.18.57l-.58,2.13q-1.12,4.24-2.08,8.53c-.63,2.87-1.23,5.74-1.65,8.67Z" transform="translate(0.35 -6.09)"/><path class="cls-20" d="M253.74,179.2a41.57,41.57,0,0,0-1.45,4.6c-.4,1.55-.75,3.11-1.08,4.68q-.24,1.17-.45,2.37c-.14.79-.25,1.61-.32,2.44s-.12,1.57-.2,2.35-.17,1.56-.27,2.35l-.56,4.72-.52,4.74c-.34,3.15-.75,6.29-1.12,9.49a51.26,51.26,0,0,0,2.78-9.22c.33-1.57.61-3.15.87-4.73l.36-2.36c.11-.8.21-1.59.31-2.39s.18-1.6.24-2.41.1-1.64.13-2.41c0-1.53.24-3.1.4-4.68.34-3.18.6-6.34.87-9.54Z" transform="translate(0.35 -6.09)"/><path class="cls-20" d="M203.41,190.05a121.27,121.27,0,0,0,5.34,13.19c2,4.3,4.21,8.51,6.53,12.64s4.77,8.2,7.35,12.17,5.25,7.89,8.1,11.68c-2.34-4.13-4.74-8.2-7.12-12.28s-4.73-8.18-7-12.3-4.59-8.25-6.79-12.43-4.32-8.4-6.38-12.67Z" transform="translate(0.35 -6.09)"/><path class="cls-17" d="M212.21,178.22c3.92,2.61,5.26,6.73,6.22,9.79a46.7,46.7,0,0,1,2,18.43c-.24,2.14-3.69,29.77-17.15,45.18a7.5,7.5,0,0,1-6,2.91,5.57,5.57,0,0,1-3.67-2c-3.54-3.9-2.56-11.35-.7-20.26,3.08-14.85,4.68-15,6.6-26.45,1.53-9.15,2.3-13.72,2.23-17.5-.12-6.07-1.14-9.86,1.1-11.6,2.39-1.85,6.91-.12,9.39,1.53Z" transform="translate(0.35 -6.09)"/><path class="cls-21" d="M203.41,190.05c11.88,29.38,36.76,63.46,38.49,65.95,10.46,15.05,48.76,15.54,60.6,10.35,2.57-1.13,6.11-2.53,5.18-7.68-7-39-15.71-83-31.5-95.49a26.68,26.68,0,0,0-11.89-4.65,135.54,135.54,0,0,0-29,.68c-15.5,2.33-22.65,6.46-26.85,9.17a20.79,20.79,0,0,0-3.06,2.59,13.42,13.42,0,0,0-4,10.21,33.64,33.64,0,0,0,2,8.87Z" transform="translate(0.35 -6.09)"/><path class="cls-18" d="M272.4,163c5.11,1.3,7.57,6.36,8.39,8.06a21,21,0,0,1,1.87,10.51,82.73,82.73,0,0,1-4.29,23.15C271,232.67,264.7,251.24,256.72,260c-1.92,2.12-4.18,4.23-6.72,3.94-5.14-.59-7.64-10.66-8-12.19a22,22,0,0,1-.37-12.75c1.8-6.81,3.22-9,6.15-18.76a112.43,112.43,0,0,0,3.73-18.75c1.31-9.66.36-6,1.49-13.21,1.51-9.49,3.07-19.34,10.27-23.63.79-.47,4.71-2.81,9.14-1.69Z" transform="translate(0.35 -6.09)"/><path class="cls-21" d="M218.63,220.59a118.33,118.33,0,0,0,2.67-14,48.48,48.48,0,0,0-2-18.8c-.92-3-2.31-7.44-6.58-10.28a14.43,14.43,0,0,0-7.2-2.48,5.2,5.2,0,0,0-3.23,1c-2.05,1.59-1.87,4.38-1.63,8.23.07,1.22.16,2.6.19,4.1.07,3.69-.7,8.25-2.22,17.33-.39,2.32-.8,4.35-1.24,6.19l-.14.57.47.36a45.29,45.29,0,0,0,19.94,8.5l.8.12.19-.79Z" transform="translate(0.35 -6.09)"/><path class="cls-21" d="M271.27,225c.57,0,1.16,0,1.73,0l.63,0,.18-.61c1.67-5.54,3.44-11.89,5.42-19.41l.09-.26a86.34,86.34,0,0,0,4.23-23.07,21.78,21.78,0,0,0-2-10.94c-.85-1.76-3.46-7.14-9-8.54a10.77,10.77,0,0,0-2.66-.33,14,14,0,0,0-7.15,2.12c-7.56,4.51-9.15,14.55-10.69,24.26a47.94,47.94,0,0,0-.69,5.73c-.07,1.18-.15,2.65-.81,7.5A122.81,122.81,0,0,1,247.77,217l-.16.63.54.35a43.35,43.35,0,0,0,23.12,7.1Z" transform="translate(0.35 -6.09)"/><path class="cls-20" d="M217.4,175.76l30.19.14v1.53l-30.2.14Z" transform="translate(0.35 -6.09)"/><path class="cls-20" d="M215.45,177.58l-14.55.07a4.15,4.15,0,0,1,1.18-1.72l.09-.24,13.27.06v1.83Z" transform="translate(0.35 -6.09)"/><path class="cls-20" d="M280.76,176.05l5.17,0c.19.38.39.77.58,1.17l-5.76,0v-1.22Z" transform="translate(0.35 -6.09)"/><path class="cls-20" d="M248.6,175.9l30.2.14v1.24l-30.2.14Z" transform="translate(0.35 -6.09)"/><path class="cls-20" d="M280.61,207.62l16.42-.07c.17.63.34,1.27.5,1.91l-16.93-.08v-1.76Z" transform="translate(0.35 -6.09)"/><path class="cls-20" d="M215.6,209.08,197.92,209c.07-.33.14-.65.2-1l17.47-.08Z" transform="translate(0.35 -6.09)"/><path class="cls-20" d="M217.25,207.92l30.2-.14v1.45l-30.2-.14Z" transform="translate(0.35 -6.09)"/><path class="cls-20" d="M248.75,207.77l30.2-.14v1.75l-30.2-.15Z" transform="translate(0.35 -6.09)"/><path class="cls-20" d="M280.46,239.73l23.73.11c.07.34.13.67.2,1l-23.93.11v-1.22Z" transform="translate(0.35 -6.09)"/><path class="cls-20" d="M248.9,239.59l30.2.14V241l-30.2.14Z" transform="translate(0.35 -6.09)"/><path class="cls-20" d="M247.29,241.11l-15.51.07-1.11-1.68,16.63.08v1.53Z" transform="translate(0.35 -6.09)"/><path class="cls-20" d="M217.39,177.57l-.14,30.35v1.17L217.19,221c-.51-.08-1-.18-1.54-.28l-.05-11.64v-1.15l-.14-30.35v-1.83l-.05-11.38c.65-.28,1.34-.57,2.07-.86l-.06,12.25v1.81Z" transform="translate(0.35 -6.09)"/><path class="cls-20" d="M248.61,177.42l.14,30.35v1.46l.14,30.36v1.51l.09,21c-.62-.36-1.22-.74-1.8-1.13l.09-19.83v-1.53l.14-30.35v-1.45l.14-30.35V175.9l.09-17.93.84,0,.08,18v1.52Z" transform="translate(0.35 -6.09)"/><path class="cls-20" d="M280.75,177.27l-.14,30.35v1.76l-.14,30.35V241l-.13,28.17-1.09,0L279.11,241v-1.23L279,209.37v-1.74l-.14-30.35V176l-.05-10.63c.7.74,1.37,1.54,2,2.4l0,8.24v1.22Z" transform="translate(0.35 -6.09)"/><path class="cls-19" d="M192.67,207.71a65.12,65.12,0,0,0,3,7.12c1.09,2.32,2.25,4.6,3.38,6.89s2.24,4.58,3.26,6.91,2,4.7,2.81,7.13a38.83,38.83,0,0,0-1.91-7.49,67.49,67.49,0,0,0-3.06-7.1c-1.14-2.3-2.38-4.55-3.63-6.78s-2.53-4.45-3.81-6.68Z" transform="translate(0.35 -6.09)"/><path class="cls-18" d="M245.36,240.29c-1.32-.2-2.25-.31-9.28.92-6.13,1.08-7,1.33-9.07,1.64a51.71,51.71,0,0,1-12.4.42c-15.29-.87-22.82-1-26.62-.47a5.65,5.65,0,0,0-2.41.71c-2.77,1.91-3,7.67-.29,10.23.78.75,1.31.95,5.14,1.61,5.88,1,13.42,3.62,17.95,4.75,6.37,1.59,34,7.18,42.67,3.7,4.92-2,5.52-11.3,2.71-16.63-1.64-3.11-4.31-6.26-8.4-6.88Z" transform="translate(0.35 -6.09)"/><path class="cls-18" d="M241.61,239c1.8-6.81,3.22-9,6.15-18.76.23-.75.44-1.48.64-2.2A43.27,43.27,0,0,0,271.27,225q.71,0,1.41,0c-5.13,16.85-10.1,28.58-16,35-1.92,2.12-4.18,4.23-6.72,3.94-5.14-.59-7.64-10.66-8-12.19A22,22,0,0,1,241.6,239Z" transform="translate(0.35 -6.09)"/><path class="cls-17" d="M192.13,174.12c.08,1.39-.32,3.06-1.12,6.4a22.16,22.16,0,0,1-1.45,4.29c-.81,1.78-1.21,2.67-2,3.1-1.9,1.1-5.11-.41-6.89-2.31-2.6-2.75-2.4-6.55-2.3-8.38.24-4.65,2.56-11.84,6.44-12.08,3.34-.21,7,4.78,7.29,9Z" transform="translate(0.35 -6.09)"/><path class="cls-17" d="M220.76,151.45a27.48,27.48,0,0,1,4.4,12.2A26.66,26.66,0,0,1,224,174.22c-.68,2.12-2.4,7.57-7.17,11.39-1.3,1-3.62,2.85-6.37,2.46a6.07,6.07,0,0,1-2.14-.76c-4-2.17-6.61-5.78-8.68-6.3a1.37,1.37,0,0,0-.89.1c-1.13.56-2.16,2.44-4.18,1.91a1.8,1.8,0,0,1-1.2-1c-1.43-2.64-2-5.81-2.92-8.58-.47-1.47-.81-2-2.52-4-3.91-4.43-6.24-4-9.85-8-1.78-2-4-4.38-3.72-7.27.3-3.37,3.79-5.56,5.58-6.65,10.14-6.18,32-8.44,40.83,3.89Z" transform="translate(0.35 -6.09)"/><path class="cls-21" d="M196.61,169a2.36,2.36,0,0,0,.36.53,3.92,3.92,0,0,0,.46.45,3.67,3.67,0,0,0,1.14.65,3.88,3.88,0,0,0,1.35.24l.35,0h.17l.16,0a3.61,3.61,0,0,0,.65-.15,4.17,4.17,0,0,0,1.23-.57,4.22,4.22,0,0,0,1-.94,4,4,0,0,0,.6-1.18,4.31,4.31,0,0,0,.15-.62,3.39,3.39,0,0,0,0-.64c-.28.32-.53.63-.8.91a6.26,6.26,0,0,1-.81.75,5.39,5.39,0,0,1-1.8.92l-.51.13-.13,0-.12,0-.25,0a4.86,4.86,0,0,1-1,0,7.87,7.87,0,0,1-2.22-.54Z" transform="translate(0.35 -6.09)"/><path class="cls-21" d="M191.37,168.41a12.69,12.69,0,0,0,1.71-.57c.53-.21,1-.43,1.53-.67a11.12,11.12,0,0,0,1.43-.8l.69-.45c.24-.14.48-.29.73-.41a24.72,24.72,0,0,1,3.09-1.27,24.22,24.22,0,0,1,3.3-.86v-.2a17.18,17.18,0,0,0-3.51.06c-.59.07-1.17.16-1.75.28s-1.16.29-1.73.47-1.15.35-1.72.57a6.38,6.38,0,0,0-1.58.86,8.68,8.68,0,0,0-1.32,1.25,6.17,6.17,0,0,0-1,1.59l.13.15Z" transform="translate(0.35 -6.09)"/><path class="cls-17" d="M218.69,179c1,1.19,3.82,2.87,6.56,4.1a12,12,0,0,0,9.95-.39c7.14-3.45,8.88-11.47,9.05-12.17.4-1.61,1.14-5.37-.64-8a11.55,11.55,0,0,0-3.2-2.94c-12-7-12.41-14.72-19.59-18.26-6.39-3.15-13.81.5-17.32,6.85-4.9,8.84,6.25,20.16,15.19,30.8Z" transform="translate(0.35 -6.09)"/><path class="cls-20" d="M213.69,148.43c-6.95-6-20.44-15.89-20-16.8,1.3-2.59,3.25-3.55,5.28-5.25a15.9,15.9,0,0,1,6.31-3.24,15.35,15.35,0,0,1,6.09-.41c4.84.38,2.93-3.42,4-2.8,2.82,1.6,9.92,4.66,13.67,16.34,2.11,6.58,1.47,15.69,3.48,16.57s1.55,2.55.38,3c-3.82,1.62-13.13-2.21-19.24-7.46Z" transform="translate(0.35 -6.09)"/><path class="cls-19" d="M224.62,160.49a48.4,48.4,0,0,1,.09,6.7,31.86,31.86,0,0,1-1,6.53,28.57,28.57,0,0,1-2.38,6.16,22.81,22.81,0,0,1-1.78,2.8c-.33.44-.69.87-1.05,1.29s-.76.82-1.16,1.21a14.35,14.35,0,0,0,1.34-1c.43-.37.84-.77,1.23-1.18a17.1,17.1,0,0,0,2.08-2.71,23.3,23.3,0,0,0,2.7-6.28,24.33,24.33,0,0,0,.88-6.78,27.47,27.47,0,0,0-.23-3.4,22,22,0,0,0-.69-3.32Z" transform="translate(0.35 -6.09)"/><path class="cls-20" d="M200.17,146.89c.73-1.06.9-1.93,1.48-1.85,3,.44,8,2.23,11.85,8.48a2.63,2.63,0,0,0,2.59,1.34c.75-.09,1.67-.75,1.7-1.51a5,5,0,0,0-.13-1.53,3.69,3.69,0,0,1,.91-3.17l.22-.26a18.27,18.27,0,0,0,4.48-18.34c-1.9-6.36-5.36-10.36-11.54-11.19-1.79-.24-3.33.58-4.26.35-1.55-.37-.8-.88-4.09-1.79-3.87-1.07-14.64,2.62-22.57,11.69A42.85,42.85,0,0,0,172.46,145c-2,7.24,2.43,13.56,3.06,13.65.42.07.2-3.14,3-2.2,5.26,1.81,12.13-1.34,16.29-4a17,17,0,0,0,5.4-5.48Z" transform="translate(0.35 -6.09)"/><path class="cls-17" d="M220.7,157.54c1.1,1.77,1.59,2.62,2.64,2.9a2.88,2.88,0,0,0,2.47-.49c.66-.52.95-1.29,1.18-3.1a16.64,16.64,0,0,0-.12-6.88c-.65-2.47-1.59-4.14-3.15-4.93a4.07,4.07,0,0,0-4.68.85c-2.49,2.2-1.44,6.22-1.21,7C218,153.42,217.94,153.09,220.7,157.54Z" transform="translate(0.35 -6.09)"/><path class="cls-18" d="M174.55,163.37c-.25-1.13-.87-1.25-1.3-2s-.24-1.57-.13-5.11c.09-3.1-.09-4.14.6-4.54a1.88,1.88,0,0,1,1.65.18,3.08,3.08,0,0,1,1.55,2.27,22.49,22.49,0,0,1,.41,5.47,32.52,32.52,0,0,1,4.46-3.52,2.65,2.65,0,0,1,2.71.14,2.61,2.61,0,0,1,1,1.7c.08.64-.36,1-.18,1.23s.84-.34,1.7-.18a2.11,2.11,0,0,1,1.13.7,2.72,2.72,0,0,1,.52,1.92,5.11,5.11,0,0,1-1.13,2.84c-.89,1.27-1.15,1-2.17,2.27s-.67,1.31-2.35,4c-.5.81-.8,1.24-.69,1.35s2.19-1.34,2.47-1.57a38.89,38.89,0,0,0,3.74-3.23,2.23,2.23,0,0,1,1.26-.79,2,2,0,0,1,1.35.31,2.18,2.18,0,0,1,.82,1.57c0,.24.12,1.24-1.13,2.93a19.38,19.38,0,0,1-2.48,2.4,13,13,0,0,0-2.64,3.14c-.39.7-.42,1-1.09,2.19a7.91,7.91,0,0,1-1.26,1.92,2.73,2.73,0,0,1-4.78-.61c-.7-1.05-.36-1.32-1-2.58-.79-1.46-1.3-1.8-1.49-2.91a11.16,11.16,0,0,1,0-2.77c.14-1-.15-1-.74-3.4-.62-2.58-.81-2.84-.78-3.84A5.3,5.3,0,0,0,174.55,163.37Z" transform="translate(0.35 -6.09)"/><path class="cls-19" d="M184.8,159.57a14.33,14.33,0,0,0-1.37.93c-.43.33-.85.68-1.25,1a26.38,26.38,0,0,0-2.28,2.33c-.35.42-.69.85-1,1.32a8.61,8.61,0,0,0-.83,1.48,10.32,10.32,0,0,0-.55,1.59,7.72,7.72,0,0,0-.23,1.66c.61-.94,1.15-1.84,1.76-2.69.3-.43.6-.83.93-1.22s.67-.8,1-1.2c.69-.81,1.37-1.64,2-2.5A23.55,23.55,0,0,0,184.8,159.57Z" transform="translate(0.35 -6.09)"/><path class="cls-21" d="M228.07,266.26c-2.95.3-5.9.52-8.8,1a34.93,34.93,0,0,0-8.4,2.29c-.67.28-1.32.59-2,.92l-1,.5c-.32.17-.63.35-.93.53a17.3,17.3,0,0,0-3.31,2.64,14.39,14.39,0,0,0-2.46,3.4c-.16.32-.3.62-.46,1a7.27,7.27,0,0,0-.39.95,13.4,13.4,0,0,0-.51,2,24.32,24.32,0,0,0-.36,4.28,42.75,42.75,0,0,0,.21,4.37c.13,1.46.33,2.91.56,4.37l.33,2.2c.12.73.23,1.45.37,2.18a134.24,134.24,0,0,0,4.42,17.19,86.29,86.29,0,0,1-5.68-16.94c-.17-.72-.32-1.46-.47-2.19-.07-.37-.13-.74-.2-1.11l-.2-1.09c-.28-1.46-.51-2.95-.69-4.45a32.36,32.36,0,0,1,.09-9.11,14.43,14.43,0,0,1,.59-2.28q.19-.56.45-1.11c.15-.32.32-.68.51-1a15.74,15.74,0,0,1,2.78-3.75,17.56,17.56,0,0,1,3.69-2.79c.33-.19.67-.37,1-.54s.67-.34,1-.49c.69-.31,1.39-.6,2.09-.86a29,29,0,0,1,4.34-1.26,37.38,37.38,0,0,1,4.44-.64,88,88,0,0,1,8.89-.17Z" transform="translate(0.35 -6.09)"/><path class="cls-3" d="M273.8,306c4-8.87,8.41-23.62,14.83-32.21,3-4,10.16-5.49,17.46-6.16,10.55-1,15.27-1.74,32.07-2.52,3.39-.16,8-.46,12.78-.94.09,1.37.13,2.75.13,4.15a66.91,66.91,0,0,1-66.74,67.08,61.17,61.17,0,0,1-21.59-3.92C266.48,325.05,269.36,315.94,273.8,306Z" transform="translate(0.35 -6.09)"/><path class="cls-9" d="M271.22,378.63c4.14-5.82,12.28-13.89,20.25-32.45,5.91-13.73,11-40.61,12.73-57.75.19-1.86,1.42-8.45,3.85-11.86,3.58-5,9.4-5.76,22.63-7.41s22.78-1.31,32-4.39a30.27,30.27,0,0,0,10.06-5.47c-.36,6.4-.9,14.26-1.66,23.88-3,37.62-12.28,55.72-16.13,64.06-3.43,7.4-9.15,9.5-10.27,9.88-17.94,6.13-37.2,13.4-70.74,21.11a18.44,18.44,0,0,1-2.76.4Z" transform="translate(0.35 -6.09)"/><path class="cls-16" d="M121.11,86.74a6.32,6.32,0,0,0-5.59-2.92c-4.07.18-19.12,4.91-19.12,4.91s-15,4.74-18.48,6.93A6.28,6.28,0,0,0,75,101.25c.17,4.07,2.64,11.9,2.64,11.9s2.46,7.83,4.65,11.26a6.34,6.34,0,0,0,5.59,2.92c4.07-.18,19.12-4.92,19.12-4.92s15-4.73,18.48-6.92a6.33,6.33,0,0,0,2.91-5.59c-.17-4.07-2.64-11.9-2.64-11.9S123.29,90.17,121.11,86.74Z" transform="translate(0.35 -6.09)"/><path class="cls-11" d="M99.16,114.31l10.23-11.15L94.62,99.87Z" transform="translate(0.35 -6.09)"/><path class="cls-11" d="M92.26,126.49l-5.56-1.17,3.36-6.07a2.2,2.2,0,0,0-1.64-3.17,2.83,2.83,0,0,0-2.18.43l-9.45,6.73-5.26-1.1-2.76,13.15,5.26,1.1,1.31.27,12.4,2.61a2.94,2.94,0,0,0,3.32-1.52l3.42-7.51A2.79,2.79,0,0,0,92.26,126.49Zm-18,8.58-4-.82,2.21-10.52,3.94.83Zm18.94-5.39-3.41,7.51A1.58,1.58,0,0,1,88,138l-12.4-2.6L78,124l9-6.42a1.44,1.44,0,0,1,1.11-.22,1,1,0,0,1,.75.57.72.72,0,0,1,0,.64l-3.36,6.08-.88,1.58,1.77.37L92,127.8a1.77,1.77,0,0,1,1.23.89A1.08,1.08,0,0,1,93.25,129.68Z" transform="translate(0.35 -6.09)"/></g></g></g></svg>