<svg xmlns="http://www.w3.org/2000/svg" viewBox="0 0 334.7 250.12"><defs><style>.cls-1{opacity:0.1;}.cls-2,.cls-3{fill:#fff;}.cls-3{fill-rule:evenodd;}</style></defs><title>a3</title><g id="레이어_2" data-name="레이어 2"><g id="레이어_1-2" data-name="레이어 1"><g class="cls-1"><circle class="cls-2" cx="167.35" cy="125.06" r="39.41"/><path class="cls-3" d="M278.56,0l-17.3,19.46a141.33,141.33,0,0,1,0,211.2l17.3,19.46A167.36,167.36,0,0,0,278.56,0ZM56.14,250.12l17.31-19.46a141.31,141.31,0,0,1,0-211.2L56.14,0a167.36,167.36,0,0,0,0,250.12ZM92.91,41.35a112,112,0,0,0,0,167.42l17.3-19.46a86,86,0,0,1,0-128.5ZM224.49,60.81,241.8,41.35a112,112,0,0,1,0,167.42l-17.31-19.46a86,86,0,0,0,0-128.5Z"/></g></g></g></svg>