<svg xmlns="http://www.w3.org/2000/svg" viewBox="0 0 40.32 40.32"><defs><style>.cls-1{fill:#ff2421;opacity:0.3;isolation:isolate;}.cls-2{fill:#fff;}</style></defs><title>a6-3</title><g id="레이어_2" data-name="레이어 2"><g id="레이어_1-2" data-name="레이어 1"><circle class="cls-1" cx="20.16" cy="20.16" r="20.16"/><circle class="cls-1" cx="20.16" cy="20.16" r="15.47"/><circle class="cls-1" cx="20.16" cy="20.16" r="10.67"/><path class="cls-2" d="M20.26,28.18c3.61,0,6.26-2,6.24-4.88,0-2.1-1.32-3.61-3.68-3.93v-.13a3.58,3.58,0,0,0,3.05-3.61C25.9,13.06,23.7,11,20.3,11s-5.83,1.93-5.89,4.74H17.3c.05-1.41,1.41-2.29,3-2.29A2.38,2.38,0,0,1,23,15.79c0,1.46-1.23,2.45-3,2.45h-1.5v2.31H20c2.18,0,3.47,1.09,3.47,2.59s-1.33,2.51-3.16,2.5-3.09-.88-3.17-2.22h-3C14.13,26.24,16.68,28.18,20.26,28.18Z"/></g></g></svg>