<svg xmlns="http://www.w3.org/2000/svg" viewBox="0 0 362.47 216.31"><defs><style>.cls-1{fill:#2f2d3d;}.cls-2{fill:none;stroke:#e7c8ff;stroke-linecap:round;stroke-linejoin:round;stroke-width:4.63px;stroke-dasharray:31.23 31.23;}</style></defs><title>a9</title><g id="레이어_2" data-name="레이어 2"><g id="레이어_1-2" data-name="레이어 1"><path class="cls-1" d="M89.71,37.05h-3.5V61.77h3.5ZM69.79,47.57c0,5.42,2.73,8.81,6.53,8.81S82.8,53,82.8,47.57,80,38.79,76.32,38.79,69.77,42.19,69.79,47.57Zm3.33,0c0-3.66,1.27-5.66,3.2-5.66s3.13,2,3.14,5.66-1.27,5.68-3.14,5.67S73.11,51.24,73.12,47.57Zm40.75-10.52h-3.25V61.72h3.25ZM92.19,54.16l2,2.44a17.49,17.49,0,0,0,7.21-7.3h4V60.64h3.23v-23h-3.23v9h-3a23.24,23.24,0,0,0,.86-6.59H93.54v2.79h6.31C99.37,47.61,97.18,51.2,92.19,54.16Zm50.36-17.11h-3.44v6h-3.85v2.79h3.85v5.83h3.44ZM121.6,49l1.79,2.74a9.83,9.83,0,0,0,6-5.53A9.34,9.34,0,0,0,135,51.07l1.71-2.71c-3.83-1.28-5.6-4.18-5.66-7H136V38.54H122.6v2.77h5A8.25,8.25,0,0,1,121.6,49Zm4,8c0,3,3.22,4.75,8.48,4.75s8.5-1.75,8.51-4.75-3.24-4.75-8.51-4.77S125.64,54,125.64,57Zm3.44,0c0-1.42,1.78-2.12,5-2.11s5.06.69,5.07,2.11-1.79,2.12-5.07,2.12S129.08,58.41,129.08,57Zm35.69-20H161.3V49.39h3.47V44.67h3.33V41.82h-3.33ZM145.93,48.46h11.84V38.22H145.93ZM148.39,53h12.93v1.57H148.45v6.86h17V58.74H151.84V57.08h12.93V50.36H148.39Zm1-7.29v-4.8h5v4.8Zm39.82,1.35h-9.51V42H189V39.25H176.21v10.6h4.69V54c-2.21.05-4.36.05-6.32,0l.41,2.82A104.05,104.05,0,0,0,190.63,56l-.27-2.52c-1.93.2-4,.34-6,.42v-4h4.8Zm2.6,14.69h3.45V37.05h-3.45Zm26.18-18h-13.8V37.92H200.7v8.57h17.24Zm-20.06,8.07h22.58V49.14H197.88Zm2.6,9.33H218.1V58.41H204V53.86h-3.47Zm41.65-24.13h-3.44v9.49h-4.91v2.82h4.91V61.72h3.44Zm-21,17.68,1.79,2.71c8.61-4.27,11-10.37,11-17.81H222.26v2.71h8.17C229.92,47.75,227.33,51.65,221.09,54.73Zm30.32-15.94c-3.78,0-6.52,3.4-6.5,8.78s2.72,8.81,6.5,8.81,6.49-3.39,6.51-8.81S255.18,38.79,251.41,38.79Zm-3.17,8.78c0-3.66,1.29-5.66,3.17-5.66s3.19,2,3.2,5.66-1.27,5.68-3.2,5.67S248.24,51.24,248.24,47.57Zm12.52,14.15h3.47V52.88h3.5V50.06h-3.5V45.67h3.5v-2.9h-3.5V37.05h-3.47Zm10.64-2.25a2.27,2.27,0,0,0,0-4.53,2.27,2.27,0,1,0,0,4.53Zm7.28,0a2.27,2.27,0,0,0,0-4.53,2.27,2.27,0,1,0,0,4.53Zm5.57-6.42v.29h3.58v-.29a3.75,3.75,0,0,1,2.22-3.69A5.23,5.23,0,0,0,293,44.64c0-3.34-2.67-5.31-6.45-5.31-3.47,0-6.3,1.83-6.37,5.64H284a2.42,2.42,0,0,1,2.49-2.44,2.23,2.23,0,0,1,2.36,2.25c0,1.25-.89,2.09-2.06,2.84C285.17,48.64,284.27,49.67,284.25,53.05Zm-.4,4.14a2.25,2.25,0,0,0,2.27,2.28,2.27,2.27,0,0,0,0-4.53A2.23,2.23,0,0,0,283.85,57.19ZM81.58,84.45c-5.83,0-10.31,3.76-10.29,9.06s4.46,9.09,10.29,9.11,10.23-3.78,10.25-9.11S87.46,84.43,81.58,84.45ZM69.75,107.26l.61,4.23c6.46,0,15.25-.07,23.46-1.67l-.41-3.74A174.08,174.08,0,0,1,69.75,107.26Zm6.71-13.75c0-2.88,2.19-4.59,5.12-4.59s5.18,1.71,5.2,4.59-2.25,4.62-5.2,4.6S76.44,96.44,76.46,93.51Zm19.07,25.54h5.16V82H95.53Zm41-37h-5.2v20.86h5.2Zm-31.1,16.14,2.52,4.06a14.53,14.53,0,0,0,9.11-7.82,13.93,13.93,0,0,0,8.82,7.13l2.52-3.94c-6-1.85-8.7-6.16-8.66-10.65V83.35h-5.41v3.58C114.35,91.54,111.65,96.28,105.45,98.15Zm6.3,20.41h24.8v-14h-24.8Zm5.12-4.15v-5.73h14.6v5.73ZM172.53,82h-5.24v37.08h5.24ZM142.65,97.74c0,8.13,4.11,13.22,9.8,13.22s9.72-5.09,9.72-13.22S158,84.57,152.45,84.57,142.63,89.67,142.65,97.74Zm5,0c0-5.49,1.91-8.5,4.8-8.5s4.69,3,4.71,8.5-1.91,8.52-4.71,8.5S147.63,103.25,147.65,97.74Zm61.07-4.43H195.63v-5h12.76V84.2h-18V97.46h6.47v3.9c-3.36.08-6.63.12-9.6.12l.69,4.11a170.65,170.65,0,0,0,23.06-1.3l-.37-3.7c-2.74.28-5.65.47-8.58.61V97.46h6.63Zm-15.7,25h26.19v-4.15H198.27V107.7H193Zm19.93-8.5h5.28V81.93H213ZM252.3,82h-5.2v37.08h5.2V99.94h5.45V95.71H252.3Zm-27.72,28.09h3.13A96.08,96.08,0,0,0,245,109l-.57-4.35a85.31,85.31,0,0,1-14.72,1.18V89.57h12.2V85.38H224.58ZM278.2,85H260.64v18H278.2V99.86h6.92v9.06h5.16V82h-5.16v5.77H278.2Zm-12.56,33.34h25.41v-4.15H270.89v-7.81h-5.25ZM265.8,99V89.08h7.32V99Zm12.4-3.21V92h6.92v3.78Z"/><rect class="cls-2" x="2.31" y="2.31" width="357.84" height="155.82" rx="9.25"/><path class="cls-1" d="M25.31,192.78v-1.21h6.53v-2H16.17v2h6.62v1.21c0,4-3,7.71-7.26,9.2l1.31,2a12.13,12.13,0,0,0,7.26-7,11.84,11.84,0,0,0,7.2,6.43l1.27-1.94C28.34,200.06,25.33,196.58,25.31,192.78Zm-5.86,15.44H36v7.62H38.5v-9.69h-19ZM36,204.66H38.5V187.52H36Zm30.74-17.14H64.26v6.88H58.53v2.1h5.73v6.41h2.49ZM43.43,201.41l1.31,2a12.09,12.09,0,0,0,7.2-7.1,11.78,11.78,0,0,0,6.88,6.43l1.3-1.94c-4.14-1.43-7-5-7-8.63v-.83h6.34v-2.07H44.23v2.07h6.4v.83C50.63,196.15,47.61,199.9,43.43,201.41Zm5.1,14H66.75V204.28H64.26v3.53H51.05v-3.53H48.53Zm2.52-2v-3.6H64.26v3.6ZM88.6,195.93v-.38h4.29v-3.66H88.56v-3.83h-4.3v3.83H79.84v3.66h4.42v.38c0,4.43-1.32,9.08-5.63,11.56l2.61,3.44a12,12,0,0,0,5.22-6.77,10.77,10.77,0,0,0,5.19,6.07l2.49-3.34C89.93,204.61,88.6,200.29,88.6,195.93Zm2.7,5.8h3.06V215h4.27V187.49H94.36V198H91.3Zm9,14.58h4.33V187.08h-4.33Zm31.91-29.23h-4.56v8.47h-3.4v3.73h3.4v5.47h4.56Zm-24.65,6h17.26v-3.63h-6.37v-2.62H114v2.62h-6.37Zm1.53,6.05c0,3.18,3,5.3,7.1,5.32s7.1-2.14,7.1-5.32-3-5.26-7.1-5.26S109.12,196.09,109.11,199.15ZM112.42,216h19.81V205.87H112.42Zm1.11-16.85c0-1.23,1-1.83,2.68-1.82s2.71.59,2.71,1.82-1.06,1.94-2.71,1.94S113.5,200.47,113.53,199.15ZM117,212.33v-2.86h10.73v2.86Zm33.15-19.9h-5.83v-4.05h-2.48v4.05H136v2h14.2ZM137,202.81c0,3.81,2.56,6.48,6.08,6.5s6.11-2.69,6.15-6.5-2.58-6.42-6.15-6.43S137,199.05,137,202.81Zm2.23,0c0-2.48,1.6-4.3,3.85-4.33a4,4,0,0,1,3.92,4.33c0,2.52-1.66,4.32-3.92,4.3S139.24,205.33,139.24,202.81Zm12.42,11.63H154v-12.9h3.76v14.3h2.39V187.52h-2.39v11.95H154V188.22h-2.35ZM170.16,188h-2.48v9.3h8.18v2.8H164.24v2H190v-2H178.31v-2.8h8.35V188h-2.49v2.71h-14Zm-2.8,18.41h16.91v2.52H167.42v6.59h20.16v-2H169.91v-2.77h16.81V204.5H167.36Zm2.8-11v-2.74h14v2.74Zm44.65-5.19v-1.63h-2.58v1.63c0,4.06-5.17,7.43-10.28,8.15l1,2c4.41-.73,8.75-3.14,10.57-6.64,1.82,3.47,6.18,5.91,10.57,6.64l1-2C220,197.6,214.83,194.16,214.81,190.17Zm-14.2,15.41h11.62v10.26h2.46V205.58h11.72v-2.1h-25.8Zm46,1V205h-2.42v1.56c0,2.7-2.18,5.73-5.77,7.07l1.28,1.84a10,10,0,0,0,5.67-5.27,8.94,8.94,0,0,0,5.35,5.5,9.73,9.73,0,0,0,5.22-5.58,9.56,9.56,0,0,0,5.8,5.35l1.24-1.84c-3.63-1.26-5.78-4.16-5.77-7.07V205h-2.45v1.56a8.4,8.4,0,0,1-4.12,6.69A7.72,7.72,0,0,1,246.57,206.54Zm-8.92-10.7c0,3.88,3.12,6.56,7.42,6.56s7.41-2.68,7.42-6.56-3.12-6.65-7.42-6.63S237.63,191.89,237.65,195.84Zm2.45,0c0-2.65,2.06-4.53,5-4.5s5,1.85,5,4.5-2.09,4.47-5,4.49S240.07,198.46,240.1,195.84Zm17.77,7.89h2.49V187.55h-2.49Zm13.06.8h-2.48v10.92h19.14V204.53h-2.52v3.31H270.93Zm-5.76-2H291v-2.07h-25.8Zm1.46-6.08,1,2c4.36-.66,8.69-2.87,10.49-6,1.8,3.16,6.12,5.39,10.5,6l.92-2c-5-.64-10.14-3.77-10.13-7.26v-1.34h-2.58v1.34C276.79,192.78,271.68,195.76,266.63,196.44Zm4.3,17v-3.63h14.14v3.63Zm45.77-25.93h-2.48v28.32h2.48Zm-21.5,21h2.29a66.83,66.83,0,0,0,14.05-1.4l-.35-2.13a67,67,0,0,1-13.54,1.37v-16H295.2Zm48.25-21H341V215.9h2.48V200.84h4.75v-2.11h-4.75ZM322.78,208.8H325a71.1,71.1,0,0,0,13.54-1l-.32-2.16a68,68,0,0,1-13,1V192.36H336v-2.07H322.78Zm29.94,4.65a2.06,2.06,0,0,0,2-2.07,2,2,0,1,0-4.08,0A2.07,2.07,0,0,0,352.72,213.45Z"/></g></g></svg>