<svg xmlns="http://www.w3.org/2000/svg" xmlns:xlink="http://www.w3.org/1999/xlink" viewBox="0 0 831.52 220.26"><defs><style>.cls-1,.cls-6{fill:none;}.cls-2{clip-path:url(#clip-path);}.cls-3{fill:#fcfcfc;}.cls-4{fill:#b3b3b3;}.cls-5{fill:#dfdfdf;}.cls-6{stroke:#bcbcbc;stroke-width:2.33px;}.cls-7{fill:url(#무제_그라디언트_6);}</style><clipPath id="clip-path" transform="translate(0 0)"><rect class="cls-1" x="47.26" width="737" height="209"/></clipPath><linearGradient id="무제_그라디언트_6" x1="415.54" y1="841.35" x2="415.54" y2="689.07" gradientTransform="translate(0.22 -621.09)" gradientUnits="userSpaceOnUse"><stop offset="0" stop-color="#fff"/><stop offset="1" stop-color="#fff" stop-opacity="0"/></linearGradient></defs><title>a9-3</title><g id="레이어_2" data-name="레이어 2"><g id="레이어_1-2" data-name="레이어 1"><g class="cls-2"><path class="cls-3" d="M118.47,1.16H283.72a27,27,0,0,1,27,27.05h0a27,27,0,0,1-27,27.05H118.47a27,27,0,0,1-27-27h0A27,27,0,0,1,118.47,1.16Z" transform="translate(0 0)"/><path class="cls-4" d="M156.09,29.1H132v2.64h10.4v9.05h3.22v-9h10.52Zm-22.88-4.34,1.23,2.55c4.47-.64,7.95-2.71,9.58-5.57,1.61,2.86,5.13,4.93,9.64,5.57l1.17-2.55c-5.24-.66-8.7-3.45-8.92-6.36h8V15.83H134.17V18.4h8C141.89,21.31,138.41,24.1,133.21,24.76Zm34.84-6.65V15.59h-3.37v2.52a9,9,0,0,1-6.47,8.56l1.64,2.55a10.77,10.77,0,0,0,6.54-6.07,10.61,10.61,0,0,0,6.43,5.63l1.62-2.58C170.23,24.88,168,21.6,168.05,18.11ZM162.16,34H177v6.83h3.28V31.38H162.16ZM177,30.18h3.28V14.33H177Zm35.75-15.85h-3.25V33.49h3.25v-9h3.72v-2.7h-3.72ZM192.94,29h2.13c5.79,0,8.87-.16,12.34-.85l-.35-2.64a49.48,49.48,0,0,1-10.9.82v-7.2h8.64V16.53H192.94Zm2.81,11.28h18V37.65H199V31.47h-3.25Zm35.89-23.67H219.13v18h2.2a73,73,0,0,0,12.37-.79l-.3-2.63a66.39,66.39,0,0,1-11,.79V26.58h8.73V24h-8.73V19.28h9.19Zm3.9,24.2h3.25V27.31h4.08V24.59h-4.08V14.33h-3.25Z" transform="translate(0 0)"/><path class="cls-5" d="M281.13,30.09h-11.2v11.2H266.2V30.09H255V26.36H266.2V15.17h3.73V26.36h11.2Z" transform="translate(0 0)"/><path class="cls-6" d="M118.47,1.16H283.72a27,27,0,0,1,27,27.05h0a27,27,0,0,1-27,27.05H118.47a27,27,0,0,1-27-27h0A27,27,0,0,1,118.47,1.16Z" transform="translate(0 0)"/><path class="cls-3" d="M350.14,1.16H541.38a27,27,0,0,1,27,27.05h0a27,27,0,0,1-27,27.05H350.14a27,27,0,0,1-27.05-27h0A27,27,0,0,1,350.14,1.16Z" transform="translate(0 0)"/><path class="cls-4" d="M385.15,16.68H366.43v2.63H382c0,1.15,0,2.38-.08,3.75l-16.27.59.47,2.78,15.61-.88a47.34,47.34,0,0,1-.91,5.72l3.2.32a54.22,54.22,0,0,0,1.17-12.51ZM363.62,37.57h24.14v-2.7h-12V28.34h-3.22v6.53h-8.9ZM411.9,14.36h-3.28V33.49h3.28Zm-21.59,8.35c0,3.91,3.12,6.65,7.15,6.65s7.13-2.74,7.12-6.65-3.09-6.6-7.12-6.62S390.31,18.86,390.31,22.71Zm3.2,0a3.94,3.94,0,1,1,3.95,3.81A3.67,3.67,0,0,1,393.51,22.71Zm.87,17.58h18.26V37.65h-15V31.56h-3.29Zm51.11-26h-3.22V27.84h3.22Zm-22,10.93,1.64,2.55a10.55,10.55,0,0,0,6.62-5.9,10.32,10.32,0,0,0,6.48,5.43l1.58-2.52c-4.19-1.27-6.43-4.42-6.42-7.79V15H430V17C430,20.5,427.75,23.9,423.46,25.26ZM428,31.59H442.3v1.93H428v7.06h18.31V38H431.22V36h14.33V29.07H428Zm31.77-10.9V16.47h-3.31v4.22c0,5.11-2.6,10.17-7,12.07l2,2.73a13.43,13.43,0,0,0,6.71-8.28,12.89,12.89,0,0,0,6.5,7.66l1.93-2.61C462.27,30.42,459.71,25.55,459.74,20.69Zm8.73,20.16h3.28V14.33h-3.28Zm28.36-26.52h-3.31v19.1h3.31V24.67h3.7V22h-3.7Zm-21,13.77,1.35,2.58c7.83-2.27,12.43-7.29,12.42-14.33H477V19h9.1C485.51,23.05,481.92,26.34,475.86,28.1Zm3.95,12.19h18V37.65H483.12V31.47h-3.31Z" transform="translate(0 0)"/><path class="cls-5" d="M538.79,30.09H527.6v11.2h-3.73V30.09h-11.2V26.36h11.2V15.17h3.73V26.36h11.19Z" transform="translate(0 0)"/><path class="cls-6" d="M350.14,1.16H541.38a27,27,0,0,1,27,27.05h0a27,27,0,0,1-27,27.05H350.14a27,27,0,0,1-27.05-27h0A27,27,0,0,1,350.14,1.16Z" transform="translate(0 0)"/><path class="cls-3" d="M607.8,1.16H713.05A27,27,0,0,1,740.1,28.21h0a27,27,0,0,1-27.05,27.05H607.8a27,27,0,0,1-27-27h0A27,27,0,0,1,607.8,1.16Z" transform="translate(0 0)"/><path class="cls-4" d="M643.46,14.36h-3.25v4.48h-5.32a14.81,14.81,0,0,0,.22-2.63H623v2.63h8.6c-.5,3.94-3.81,7.09-10,8.76l1.32,2.58c5.75-1.61,9.62-4.55,11.29-8.76h6.05v2.84h-6.3V26.9h6.3v2.93h3.25Zm-17.75,21c0,3.25,3.56,5.29,9,5.27s8.94-2,8.94-5.27-3.58-5.26-8.94-5.28S625.71,32.15,625.71,35.4Zm3.25,0c0-1.78,2.18-2.73,5.74-2.73s5.67.95,5.68,2.73-2.18,2.69-5.68,2.69S629,37.14,629,35.4ZM670.3,14.33h-3.1V40.82h3.1ZM647,33.29l2,2.43c2.49-1.55,4.18-4.34,5.12-7.6a11.84,11.84,0,0,0,5,7l1.94-2.4c-3.8-2.18-5.4-6.66-5.4-11.13V19.81H660V17.17H648v2.64h4.6v1.76C652.55,26.18,650.87,31,647,33.29Zm11-7.09h3.81V39.53h3.07V14.83h-3.07v8.73H658Z" transform="translate(0 0)"/><path class="cls-5" d="M710.46,30.09H699.27v11.2h-3.73V30.09h-11.2V26.36h11.2V15.17h3.73V26.36h11.19Z" transform="translate(0 0)"/><path class="cls-6" d="M607.8,1.16H713.05A27,27,0,0,1,740.1,28.21h0a27,27,0,0,1-27.05,27.05H607.8a27,27,0,0,1-27-27h0A27,27,0,0,1,607.8,1.16Z" transform="translate(0 0)"/><rect class="cls-3" x="48.42" y="77.58" width="305.34" height="54.09" rx="27.05"/><path class="cls-4" d="M111,90.75h-3.22v13.51H111Zm-22,10.93,1.64,2.55a10.61,10.61,0,0,0,6.62-5.9,10.35,10.35,0,0,0,6.48,5.43l1.58-2.52c-4.19-1.27-6.43-4.42-6.42-7.79v-2H95.45v2C95.47,96.92,93.21,100.32,88.92,101.68ZM93.43,108h14.33v1.93H93.49V117H111.8v-2.58H96.68v-2H111v-6.88H93.43Zm31.77-10.9V92.89h-3.31v4.22c0,5.11-2.6,10.17-7,12.07l2,2.72a13.37,13.37,0,0,0,6.7-8.27,12.91,12.91,0,0,0,6.51,7.66l1.93-2.61C127.73,106.84,125.17,102,125.2,97.11Zm8.73,20.16h3.28V90.75h-3.28Zm28.36-26.52H159v19.1h3.31v-8.76H166V98.37h-3.69Zm-21,13.77,1.34,2.58c7.84-2.27,12.44-7.3,12.43-14.33H142.43v2.67h9.1C151,99.47,147.38,102.76,141.32,104.52Zm4,12.19h18v-2.64H148.58v-6.18h-3.31Zm53.92-11.19H175.05v2.63h10.4v9.06h3.22v-9.06h10.52Zm-22.88-4.34,1.23,2.55c4.47-.64,8-2.71,9.58-5.57,1.61,2.86,5.13,4.93,9.64,5.57l1.17-2.55c-5.24-.66-8.7-3.46-8.92-6.36h8V92.25H177.28v2.57h7.95C185,97.72,181.51,100.52,176.31,101.18Zm34.84-6.65V92h-3.37v2.52a9,9,0,0,1-6.47,8.56l1.64,2.54a10.77,10.77,0,0,0,6.55-6.06,10.59,10.59,0,0,0,6.43,5.63l1.61-2.58C213.33,101.3,211.14,98,211.15,94.53Zm-5.89,15.88h14.8v6.83h3.28V107.8H205.26Zm14.8-3.81h3.28V90.75h-3.28Zm27.14.5c-5.54,0-9,1.86-9,5s3.42,5.08,9,5.1,8.86-1.88,8.88-5.1S252.69,107.1,247.2,107.1Zm-11.37-2.31h12.63V92.42h-3.22V96h-6.18V92.42h-3.23Zm3.23-2.58V98.54h6.18v3.67Zm2.43,9.93c0-1.64,2.08-2.48,5.71-2.49s5.66.85,5.66,2.49-2,2.53-5.66,2.52S241.49,113.78,241.49,112.14Zm11.07-5.68h3.25V99.8h3.7V97.08h-3.7V90.75h-3.25Zm22.25-6.36h-3.23v3.45H261.15v2.61h24.14v-2.61H274.81ZM262.47,99l1.17,2.55c4.37-.66,7.83-2.64,9.52-5.4,1.69,2.78,5.16,4.74,9.5,5.4L283.92,99c-5.53-.69-9.09-3.62-9.09-6.85v-1h-3.31v1C271.52,95.35,267.94,98.35,262.47,99Zm1.5,13.51c0,3,3.44,4.66,9.22,4.66s9.16-1.66,9.17-4.66-3.42-4.67-9.17-4.66S264,109.58,264,112.55Zm3.31,0c0-1.45,2-2.17,5.91-2.17s5.89.72,5.92,2.17-2.09,2.2-5.92,2.2S267.26,114,267.28,112.55Z" transform="translate(0 0)"/><path class="cls-5" d="M324.13,106.51h-11.2v11.2H309.2v-11.2H298v-3.73H309.2V91.59h3.73v11.19h11.2Z" transform="translate(0 0)"/><rect class="cls-6" x="48.42" y="77.58" width="305.34" height="54.09" rx="27.05"/><rect class="cls-3" x="366.09" y="77.58" width="219.34" height="54.09" rx="27.05"/><path class="cls-4" d="M420.27,100.21h-3.22v3.37H406.62v2.64h24.14v-2.64H420.27ZM407.76,99.1l1.14,2.55c4.81-.5,8.32-2.37,9.76-5,1.43,2.67,5,4.54,9.78,5l1.17-2.55c-4.93-.48-8.11-2.42-8.65-4.57h7.63V91.92H408.81v2.61h7.56C415.83,96.7,412.65,98.62,407.76,99.1Zm1.67,13.45c0,3,3.44,4.66,9.23,4.66s9.15-1.66,9.17-4.66-3.43-4.63-9.17-4.63S409.43,109.58,409.43,112.55Zm3.31,0c0-1.41,2-2.13,5.92-2.14s5.89.73,5.91,2.14-2.09,2.2-5.91,2.2S412.72,114,412.74,112.55Zm41.17-20.71h-18V101h7.35v2.78h-10.4v2.64H457v-2.64H446.53V101h7.38Zm-18.4,19.42h15.26v6H454v-8.56H435.51Zm3.54-12.8V94.38h11.64v4.08Zm51.58,8.2H466.49v2.67h10.43v7.94h3.22v-7.94h10.49Zm-22.82-4.19,1.17,2.58c4.41-.56,7.85-2.45,9.58-5,1.71,2.55,5.11,4.47,9.49,5l1.2-2.58c-5.28-.64-8.74-3.38-9.05-6h8.18V93.89h-8.24V90.78h-3.22v3.11h-8.2v2.57h8.17C476.57,99.12,473.1,101.83,467.81,102.47ZM502.24,97v-.41h5.54V94h-5.51v-3.1H499V94h-5.54v2.58H499V97c0,3.4-2.18,6.64-6.36,7.94l1.58,2.55a10.37,10.37,0,0,0,6.45-5.68,10.17,10.17,0,0,0,6.38,5.24l1.59-2.55C504.44,103.23,502.22,100.17,502.24,97Zm-4.72,19.69h18.05v-2.64h-14.8v-5.33h-3.25Zm9.38-15.44h4.74v9.17h3.26V90.78h-3.26v7.88H506.9Z" transform="translate(0 0)"/><path class="cls-5" d="M555.79,106.51H544.6v11.2h-3.73v-11.2h-11.2v-3.73h11.2V91.59h3.73v11.19h11.19Z" transform="translate(0 0)"/><rect class="cls-6" x="366.09" y="77.58" width="219.34" height="54.09" rx="27.05"/><rect class="cls-3" x="597.76" y="77.58" width="185.34" height="54.09" rx="27.05"/><path class="cls-4" d="M644.46,105.84h-3.19v11.07h18.17V105.84h-3.23v3H644.46Zm-6.18-2h24.2v-2.61h-3.6a30.59,30.59,0,0,0,.64-7.32V91.89H641.27V94.5h15a32.93,32.93,0,0,1-.61,6.77H638.28Zm6.18,10.4v-2.87h11.75v2.87ZM688.68,103H664.51v2.66h24.17Zm-21.36,9.31c0,3.12,3.48,4.87,9.23,4.87s9.16-1.75,9.17-4.87-3.46-4.82-9.17-4.8S667.32,109.27,667.32,112.34Zm.15-11.39H685.9V98.34H670.72v-4.1h15V91.6H667.47Zm3.16,11.39c0-1.49,2.07-2.31,5.92-2.31s5.89.82,5.92,2.31-2.12,2.35-5.92,2.35S670.62,113.91,670.63,112.34Zm44.25-6.82H690.74v2.63h10.4v9.06h3.22v-9.06h10.52ZM692,101.18l1.23,2.55c4.47-.64,7.95-2.71,9.58-5.57,1.61,2.86,5.13,4.93,9.64,5.57l1.17-2.55c-5.24-.66-8.7-3.46-8.92-6.36h7.95V92.25H693v2.57h7.95C700.69,97.72,697.2,100.52,692,101.18Z" transform="translate(0 0)"/><path class="cls-5" d="M753.46,106.51H742.27v11.2h-3.73v-11.2h-11.2v-3.73h11.2V91.59h3.73v11.19h11.19Z" transform="translate(0 0)"/><rect class="cls-6" x="597.76" y="77.58" width="185.34" height="54.09" rx="27.05"/><path class="cls-3" d="M131.47,154H296.72a27,27,0,0,1,27,27.05h0a27,27,0,0,1-27,27H131.47a27,27,0,0,1-27-27h0A27,27,0,0,1,131.47,154Z" transform="translate(0 0)"/><path class="cls-4" d="M166.48,169.51H147.76v2.64h15.53c0,1.14,0,2.37-.08,3.75l-16.27.59.47,2.78,15.61-.88a46.72,46.72,0,0,1-.9,5.71l3.19.33a53.67,53.67,0,0,0,1.17-12.51ZM145,190.4h24.14v-2.69h-12v-6.53h-3.23v6.53H145Zm48.29-23.2H190v19.13h3.28Zm-21.6,8.35c0,3.91,3.12,6.65,7.15,6.65s7.14-2.74,7.12-6.65-3.09-6.61-7.12-6.62S171.64,171.7,171.64,175.55Zm3.2,0a3.94,3.94,0,1,1,3.95,3.81A3.68,3.68,0,0,1,174.84,175.55Zm.88,17.58H194v-2.64H179V184.4h-3.28Zm51.13-26h-3.28v26.51h3.28Zm-21.18,11.28c0,5.76,2.9,9.38,6.92,9.38s6.9-3.62,6.91-9.38-2.94-9.35-6.91-9.35S205.66,172.74,205.67,178.45Zm3.14,0c0-4,1.54-6.42,3.78-6.42s3.75,2.38,3.75,6.42-1.53,6.43-3.75,6.45S208.81,182.52,208.81,178.45ZM255.22,182H231v2.63h5.8v9.14h3.28V184.6h6.19v9.14h3.25V184.6h5.68Zm-23.14-5.07,1.29,2.66c4.48-.7,8-2.93,9.77-5.94,1.74,3,5.3,5.24,9.77,5.94l1.29-2.66c-5.57-.75-9.37-4.18-9.35-7.53V168h-3.43v1.35C241.42,172.75,237.64,176.14,232.08,176.9Z" transform="translate(0 0)"/><path class="cls-5" d="M294.13,182.93h-11.2v11.2H279.2v-11.2H268V179.2H279.2V168h3.73V179.2h11.2Z" transform="translate(0 0)"/><path class="cls-6" d="M131.47,154H296.72a27,27,0,0,1,27,27.05h0a27,27,0,0,1-27,27H131.47a27,27,0,0,1-27-27h0A27,27,0,0,1,131.47,154Z" transform="translate(0 0)"/><path class="cls-3" d="M363.14,154H528.38a27,27,0,0,1,27,27.05h0a27,27,0,0,1-27,27H363.14a27,27,0,0,1-27.05-27h0A27,27,0,0,1,363.14,154Z" transform="translate(0 0)"/><path class="cls-4" d="M398.15,169.51H379.43v2.64H395c0,1.14,0,2.37-.08,3.75l-16.27.59.47,2.78,15.61-.88a46.9,46.9,0,0,1-.91,5.71l3.2.33a54.22,54.22,0,0,0,1.17-12.51ZM376.62,190.4h24.14v-2.69h-12v-6.53h-3.22v6.53h-8.9Zm48.28-23.2h-3.28v19.13h3.28Zm-21.59,8.35c0,3.91,3.12,6.65,7.15,6.65s7.13-2.74,7.12-6.65-3.09-6.61-7.12-6.62S403.31,171.7,403.31,175.55Zm3.2,0a3.94,3.94,0,1,1,3.95,3.81A3.68,3.68,0,0,1,406.51,175.55Zm.87,17.58h18.26v-2.64h-15V184.4h-3.29Zm51.29-25.93h-3.25v7h-4.69v2.64h4.69v9.7h3.25Zm-22.24,13.62,1.67,2.64a10.69,10.69,0,0,0,6.51-6.09,10.37,10.37,0,0,0,6.21,5.53l1.64-2.6c-4.1-1.35-6.24-4.65-6.24-7.83v-.73h5.48V169.1H437.4v2.64h5.51v.7A8.89,8.89,0,0,1,436.43,180.82Zm4.87,12.31h18v-2.64H444.55v-5.65H441.3Zm34.87-24H463.63v11.66h12.54ZM466,188.5c0,3.25,3.49,5.14,9,5.16s8.87-1.91,8.88-5.16-3.44-5.13-8.88-5.13S466,185.31,466,188.5Zm.79-10.34v-6.45H473v6.45Zm2.46,10.34c0-1.63,2.08-2.52,5.71-2.52s5.66.89,5.66,2.52-2,2.55-5.66,2.55S469.28,190.2,469.28,188.5Zm11.07-5.89h3.26V176h3.69v-2.64h-3.69v-6.21h-3.26Z" transform="translate(0 0)"/><path class="cls-5" d="M525.79,182.93H514.6v11.2h-3.73v-11.2h-11.2V179.2h11.2V168h3.73V179.2h11.19Z" transform="translate(0 0)"/><path class="cls-6" d="M363.14,154H528.38a27,27,0,0,1,27,27.05h0a27,27,0,0,1-27,27H363.14a27,27,0,0,1-27.05-27h0A27,27,0,0,1,363.14,154Z" transform="translate(0 0)"/><path class="cls-3" d="M594.8,154H700.05a27,27,0,0,1,27.05,27.05h0a27,27,0,0,1-27.05,27H594.8a27,27,0,0,1-27-27h0A27,27,0,0,1,594.8,154Z" transform="translate(0 0)"/><path class="cls-4" d="M629.52,168.46H611.27v2.61h15a30.36,30.36,0,0,1-.69,7h-17.3v2.64h24.2V178h-3.6a32.07,32.07,0,0,0,.64-7.53Zm-18.34,24.87h18.31v-9.58H611.18Zm3.2-2.63v-4.4h11.89v4.4Zm44.27-11.49H634.51v2.67h5.63v3.25c-1.82.81-2.82,2.07-2.82,3.72,0,3.08,3.45,4.79,9.23,4.81s9.16-1.73,9.17-4.81a4,4,0,0,0-2.66-3.66v-3.31h5.59ZM637,172.71c0,3.13,3.71,5,9.55,5s9.54-1.88,9.55-5-3.72-5.08-9.55-5.07S637,169.54,637,172.71Zm3.4,0c0-1.64,2.28-2.52,6.15-2.52s6.18.88,6.18,2.52-2.31,2.5-6.18,2.49S640.37,174.33,640.4,172.71Zm.23,16.14c0-1.51,2.07-2.3,5.92-2.31s5.89.8,5.92,2.31-2.12,2.3-5.92,2.29S640.62,190.37,640.63,188.85Zm2.79-4.58v-2.39h6.38v2.4a24.75,24.75,0,0,0-3.25-.2A21.66,21.66,0,0,0,643.42,184.27Z" transform="translate(0 0)"/><path class="cls-5" d="M697.46,182.93H686.27v11.2h-3.73v-11.2h-11.2V179.2h11.2V168h3.73V179.2h11.19Z" transform="translate(0 0)"/><path class="cls-6" d="M594.8,154H700.05a27,27,0,0,1,27.05,27.05h0a27,27,0,0,1-27.05,27H594.8a27,27,0,0,1-27-27h0A27,27,0,0,1,594.8,154Z" transform="translate(0 0)"/></g><rect class="cls-7" y="67.99" width="831.52" height="152.28"/></g></g></svg>