<svg xmlns="http://www.w3.org/2000/svg" xmlns:xlink="http://www.w3.org/1999/xlink" width="236.36119" height="35.5785" viewBox="0 0 236.36119 35.5785">
  <defs>
    <style>
      .cls-1 {
        fill: #c41324;
      }

      .cls-1, .cls-2, .cls-5 {
        fill-rule: evenodd;
      }

      .cls-2 {
        fill: #808284;
      }

      .cls-3 {
        fill: #00578a;
      }

      .cls-4 {
        fill: #bc9239;
      }

      .cls-5 {
        fill: url(#linear-gradient);
      }

      .cls-6 {
        fill: #4c4c4e;
      }
    </style>
    <linearGradient id="linear-gradient" x1="2034.27516" y1="-603.45312" x2="2034.27516" y2="-607.09872" gradientTransform="translate(2052.04621 -596.591) rotate(180)" gradientUnits="userSpaceOnUse">
      <stop offset="0" stop-color="#fff"/>
      <stop offset="1" stop-color="#c41324"/>
    </linearGradient>
  </defs>
  <title>logo-f</title>
  <g id="Layer_2" data-name="Layer 2">
    <g id="Layer_1-2" data-name="Layer 1">
      <g>
        <g>
          <path class="cls-1" d="M23.6846,11.6292a6.20987,6.20987,0,0,1-5.9138,6.1943,6.17846,6.17846,0,0,1-5.8767-6.1943,5.896,5.896,0,0,1,11.7905,0"/>
          <path class="cls-2" d="M0,17.902C0,9.1295,6.5964,1.798,14.8924,0,9.4552,1.607,6.4368,5.5293,5.5557,11.2329A14.68517,14.68517,0,0,0,.1869,20.5293,18.26993,18.26993,0,0,1,0,17.902"/>
          <path class="cls-3" d="M11.2732,21.3033c-2.6922-1.978-6.6027-4.9501-6.6525-8.0271a13.28166,13.28166,0,0,0-3.6016,7.2802c1.0176,6.8899,5.5398,12.844,14.7894,15.0221l-.6722-6.1315s-.2984-5.524-3.8631-8.1437"/>
          <path class="cls-2" d="M35.578,17.902C35.578,9.1295,28.9823,1.798,20.6848,0c5.4382,1.607,8.457,5.5293,9.3375,11.2329a14.68647,14.68647,0,0,1,5.3688,9.2964,18.34193,18.34193,0,0,0,.1869-2.6273"/>
          <path class="cls-4" d="M24.3048,21.3033c2.6917-1.978,6.6024-4.9501,6.6522-8.0271a13.27975,13.27975,0,0,1,3.6026,7.2802c-1.0182,6.8899-5.5405,12.844-14.7909,15.0221l.6736-6.1315s.2978-5.524,3.8625-8.1437"/>
          <path class="cls-5" d="M13.3654,9.0853c0-1.2769,2.2327-2.9866,4.4054-2.9866,2.1707,0,4.4059,1.7097,4.4059,2.9866,0,1.2763-2.233,2.2612-4.4059,2.2612C15.5995,11.3465,13.3654,10.3616,13.3654,9.0853Z"/>
        </g>
        <g>
          <g>
            <path class="cls-6" d="M43.4294,33.5317a1.64389,1.64389,0,0,0,.1804.8628H42.5179a5.06512,5.06512,0,0,0,.1752-1.6572l-.0362-3.17a2.19378,2.19378,0,0,0-.139-.8384h1.0919a2.18755,2.18755,0,0,0-.1804,1.1869Zm1.4313-3.8612a1.37819,1.37819,0,0,1,.1277-.2474,2.29909,2.29909,0,0,1,.1254-.2004c.0425-.1171.0689-.2109.0911-.2896a.53987.53987,0,0,0,.0294-.2042h1.3786c-.0708.058-.1367.1088-.1925.1518-.0659.0584-.1307.1171-.2045.1879a11.3802,11.3802,0,0,0-1.1021,1.2743l-.6377.8818,1.4238,2.1702a8.618,8.618,0,0,0,.6057.7021c.1299.1514.2165.2449.2602.2975H45.582a2.03067,2.03067,0,0,1-.1744-.3405.56326.56326,0,0,0-.1439-.2022l-1.6478-2.6053Z"/>
            <path class="cls-6" d="M50.7007,28.8743a1.77041,1.77041,0,0,1,.8166.6086,2.0478,2.0478,0,0,1,.4253.9259,3.6793,3.6793,0,0,1,.1661,1.119,5.59439,5.59439,0,0,1-.136.9582,2.89093,2.89093,0,0,1-.498,1.214,1.93083,1.93083,0,0,1-.867.5849,2.61522,2.61522,0,0,1-.8893.1598c-.087,0-.1593-.008-.2248-.008a1.466,1.466,0,0,1-.2166-.0422c-.1371-.0226-.2818-.0526-.4256-.0873a.75767.75767,0,0,1-.2087-.0874.66052.66052,0,0,1-.2038-.1432c-.0942-.0587-.1631-.1118-.2237-.1544a.64324.64324,0,0,1-.1804-.1638,2.47511,2.47511,0,0,1-.5771-1.246,4.17251,4.17251,0,0,1-.0953-.9258,2.83568,2.83568,0,0,1,.0953-.9827,2.06205,2.06205,0,0,1,.5266-1.1586,1.84513,1.84513,0,0,1,.7443-.571,2.22016,2.22016,0,0,1,1.0038-.217,2.50326,2.50326,0,0,1,.5126.0573A3.89321,3.89321,0,0,1,50.7007,28.8743Zm-1.3672.3609a1.09772,1.09772,0,0,0-.3153.1536,1.48786,1.48786,0,0,0-.6651.9846,4.24377,4.24377,0,0,0-.1522,1.2132,6.2077,6.2077,0,0,0,.0749,1.0753,2.77033,2.77033,0,0,0,.229.6095,1.642,1.642,0,0,0,.4844.487,1.35842,1.35842,0,0,0,.7432.2064,1.16178,1.16178,0,0,0,.3891-.0569,1.00319,1.00319,0,0,0,.3977-.2079,1.04585,1.04585,0,0,0,.2381-.2313,1.28336,1.28336,0,0,0,.1947-.3179,3.55965,3.55965,0,0,0,.1378-.3291,1.924,1.924,0,0,0,.0942-.3899c.015-.136.0373-.2738.0576-.4113a3.78179,3.78179,0,0,0,.0234-.4339,3.70433,3.70433,0,0,0-.0234-.4193,2.2528,2.2528,0,0,1-.0294-.3705,2.577,2.577,0,0,0-.2519-.7722,1.2783,1.2783,0,0,0-.6363-.6663,1.1777,1.1777,0,0,0-.6056-.1827.97047.97047,0,0,0-.1948.0309A.63574.63574,0,0,1,49.3335,29.2352Z"/>
            <path class="cls-6" d="M54.6345,28.7289a2.192,2.192,0,0,1,1.0121.2305,1.66713,1.66713,0,0,1,.1518,2.4328,1.32286,1.32286,0,0,1-.6656.4682h-.0726l.7382,1.411c.1002.1747.1954.3269.2825.4505a1.32728,1.32728,0,0,0,.1721.2595,2.31617,2.31617,0,0,0,.3322.4131H55.4865a.718.718,0,0,1-.0941-.2327.98078.98078,0,0,0-.1228-.2539,1.12738,1.12738,0,0,0-.1074-.2018.98177.98177,0,0,1-.1506-.2837l-.0287-.0832c-.1092-.2208-.2045-.3993-.2764-.5424-.0863-.1465-.1529-.2618-.2015-.3492-.0211-.0448-.0588-.1096-.1074-.194a2.7542,2.7542,0,0,1-.1883-.3145,3.208,3.208,0,0,0-.159-.2795c-.0723-.1012-.1246-.166-.16-.2105h.226a1.19885,1.19885,0,0,0,.4373-.0569,1.009,1.009,0,0,0,.5348-.261,1.13723,1.13723,0,0,0,.2957-.47,1.06967,1.06967,0,0,0,.0527-.3481.96244.96244,0,0,0-.3484-.8302.989.989,0,0,0-.7578-.2477h-.5488l-.0283.4211v3.2106a6.34745,6.34745,0,0,0,.0283.6648c0,.1208,0,.2632.0094.4191a1.1693,1.1693,0,0,0,.0799.4437H52.7852a.289.289,0,0,0,.087-.1318c.0143-.0791.0369-.1657.0504-.2606.0155-.1729.037-.432.0592-.7865,0-.154,0-.3487.0139-.5793.006-.2335.0143-.4904.0143-.7962V30.4088c0-.232-.0143-.4588-.0282-.6591-.0222-.2024-.0437-.3767-.0592-.527a3.6053,3.6053,0,0,0-.0787-.4938Z"/>
            <path class="cls-6" d="M58.209,31.1451h1.7409a2.051,2.051,0,0,0,0,.5225H58.209v1.8945a1.80953,1.80953,0,0,0,.0143.3101h2.0731a1.36106,1.36106,0,0,0-.087.5118H57.2689a3.66908,3.66908,0,0,0,.1672-1.0912c-.0365-2.7107-.0659-4.1224-.081-4.2302-.0222-.1032-.0403-.2188-.0576-.3337h2.8339l-.0316.3703v.136H58.2293a1.77939,1.77939,0,0,0-.0203.2327v1.6772Z"/>
            <path class="cls-6" d="M63.7752,28.7289a.27491.27491,0,0,0-.0573.261l1.3349,4.7237a1.41649,1.41649,0,0,0,.1175.2817.65987.65987,0,0,0,.1093.2027.54975.54975,0,0,0,.0923.1965H64.295v-.0526a.71447.71447,0,0,0,.0305-.1153,1.1266,1.1266,0,0,0-.0791-.3187c-.0222-.0139-.038-.0648-.0444-.1348-.0154-.0731-.1032-.4584-.2754-1.1673a8.05934,8.05934,0,0,0-1.8479,0c-.195.7228-.3035,1.1368-.3317,1.2294a.88849.88849,0,0,0-.0426.2188.82018.82018,0,0,0-.0306.2449v.0956H60.742c.0211-.0674.0648-.1604.1216-.2892a2.429,2.429,0,0,1,.1681-.3409,2.71712,2.71712,0,0,1,.1378-.4636c.0565-.1861.1288-.4396.2147-.7598l.8023-2.5812c.0576-.1876.1092-.3477.1379-.4836.0282-.1318.0504-.2471.0726-.348a.64672.64672,0,0,0,.0637-.2031.25193.25193,0,0,0-.0637-.1962Zm0,3.2712-.6934-2.8361-.8377,2.8361.7586.0283Z"/>
            <path class="cls-6" d="M70.2315,28.7289c-.0211.0731-.0448.1454-.0588.2042a.57.57,0,0,0-.0274.1661,5.14335,5.14335,0,0,0-.0446.7578c-.0222.2324-.0342.4779-.0342.7311-.0162.2614-.0162.5288-.0162.8041v2.3214a4.425,4.425,0,0,0,.0504.6809h-.882c-.0283-.0873-.0648-.1679-.0931-.2474a.60672.60672,0,0,0-.1371-.1657c-.0222-.0445-.0505-.1092-.0859-.1808a2.497,2.497,0,0,1-.1529-.2976l-.1864-.2874-1.1857-2.33-.3172-.5871a2.64079,2.64079,0,0,0-.2109-.3101l-.0788-.2248c-.0286-.0561-.0568-.1073-.0873-.1579a.594.594,0,0,1-.0708-.1228c.0132.1292.0305.2668.0433.4103.0071.1525.0215.3122.0425.4802,0,.1725,0,.3894.0155.6343.0083.261.012.5446.012.8527v1.5345a1.76465,1.76465,0,0,0,.0242.3187,3.01484,3.01484,0,0,0,.0206.3544c.0162.1096.0302.2109.0524.3265h-.9258a.27591.27591,0,0,1,.0143-.1032.12366.12366,0,0,1,.0648-.0933c.0143-.1092.0373-.2472.0569-.4031.0162-.2192.0384-.4941.0588-.8267.0138-.3319.0222-.7304.0222-1.2016,0-.4388-.0084-.8305-.0084-1.1702-.0138-.3349-.0282-.6324-.0444-.8889-.0192-.1462-.0426-.2844-.0565-.4061a1.25422,1.25422,0,0,0-.0791-.267.3378.3378,0,0,0-.0448-.1537c-.0275-.043-.0648-.0938-.1002-.1518h1.3014l.0572.1088a3.68134,3.68134,0,0,0,.1657.385.89113.89113,0,0,0,.1379.2904c.0588.113.1224.2366.186.374l1.1507,2.1982.3741.6806a1.17959,1.17959,0,0,0,.1374.261c.0438.0719.0724.1141.0954.1239a1.25983,1.25983,0,0,0,.1152.3021,1.62423,1.62423,0,0,1-.0294-.3541v-2.539c0-.3099-.0139-.5789-.029-.8101-.0214-.217-.0436-.4053-.0568-.5567a1.35731,1.35731,0,0,0-.139-.4641Z"/>
            <path class="cls-6" d="M77.3062,33.7584a1.22479,1.22479,0,0,1,.1944-.0953l-.1357.6727a1.77229,1.77229,0,0,0-.4052.0867,1.88279,1.88279,0,0,0-.3756.0294,2.86437,2.86437,0,0,1-.3253.0226,3.12368,3.12368,0,0,1-.8378-.1086,2.23965,2.23965,0,0,1-1.1201-.638,2.05387,2.05387,0,0,1-.4991-.976,4.15059,4.15059,0,0,1-.1499-1.1348,3.42739,3.42739,0,0,1,.6196-2.1993,2.49745,2.49745,0,0,1,1.959-.7605c.1134,0,.2248.0064.325.0128a1.62949,1.62949,0,0,0,.2799.0162,3.7115,3.7115,0,0,1,.7239.2181l-.2806.7077c-.0294-.0372-.0456-.0594-.0535-.0712a.15352.15352,0,0,1-.0425-.0452c-.0426-.0278-.0791-.0579-.1074-.0779a.65677.65677,0,0,1-.1156-.0595,1.4604,1.4604,0,0,0-.3183-.1518,1.65292,1.65292,0,0,0-.4109-.0651,1.421,1.421,0,0,0-.7729.2169,1.46907,1.46907,0,0,0-.5499.4561,2.50541,2.50541,0,0,0-.3485.7677,7.19867,7.19867,0,0,0-.0628.9457,5.17105,5.17105,0,0,0,.0934,1.0494,2.49215,2.49215,0,0,0,.4252.8023,1.53361,1.53361,0,0,0,.6385.4437,1.59678,1.59678,0,0,0,.7005.1416,2.35474,2.35474,0,0,0,.4313-.0279,1.37341,1.37341,0,0,0,.3687-.1137Z"/>
            <path class="cls-6" d="M81.4509,28.8743a1.77491,1.77491,0,0,1,.8162.6086,2.06789,2.06789,0,0,1,.4253.9259,3.6793,3.6793,0,0,1,.1661,1.119,5.25812,5.25812,0,0,1-.1367.9582,2.8918,2.8918,0,0,1-.4972,1.214,1.92313,1.92313,0,0,1-.8689.5849,2.59184,2.59184,0,0,1-.8886.1598c-.0859,0-.1567-.008-.2229-.008a1.4105,1.4105,0,0,1-.2166-.0422c-.1368-.0226-.2818-.0526-.4253-.0873a.79972.79972,0,0,1-.2117-.0874.69131.69131,0,0,1-.2015-.1432c-.0922-.0587-.1654-.1118-.2238-.1544a.63893.63893,0,0,1-.1803-.1638,2.47921,2.47921,0,0,1-.5785-1.246,4.35368,4.35368,0,0,1-.0942-.9258,2.94424,2.94424,0,0,1,.0942-.9827,2.05448,2.05448,0,0,1,.5299-1.1586,1.83645,1.83645,0,0,1,.7416-.571,2.221,2.221,0,0,1,1.0042-.217,2.51982,2.51982,0,0,1,.5126.0573A3.75073,3.75073,0,0,1,81.4509,28.8743Zm-1.3669.3609a1.1126,1.1126,0,0,0-.3167.1536,1.49832,1.49832,0,0,0-.6663.9846,4.30731,4.30731,0,0,0-.1499,1.2132,6.30608,6.30608,0,0,0,.0726,1.0753,2.93124,2.93124,0,0,0,.2302.6095,1.65574,1.65574,0,0,0,.4852.487,1.35925,1.35925,0,0,0,.7431.2064,1.17207,1.17207,0,0,0,.3902-.0569.99726.99726,0,0,0,.397-.2079,1.04631,1.04631,0,0,0,.2391-.2313,1.40279,1.40279,0,0,0,.1937-.3179c.0422-.0892.087-.1966.1374-.3291a1.84735,1.84735,0,0,0,.0942-.3899c.0151-.136.0373-.2738.058-.4113a3.56564,3.56564,0,0,0,.0219-.4339,3.47344,3.47344,0,0,0-.0219-.4193,2.20991,2.20991,0,0,1-.0294-.3705,2.51024,2.51024,0,0,0-.2524-.7722,1.27358,1.27358,0,0,0-.6361-.6663,1.18631,1.18631,0,0,0-.6068-.1827.94357.94357,0,0,0-.1936.0309A.63436.63436,0,0,1,80.084,29.2352Z"/>
            <path class="cls-6" d="M87.6737,28.753a2.3375,2.3375,0,0,0-.0648.498,2.29292,2.29292,0,0,0-.0283.4094v2.7714a2.45827,2.45827,0,0,1-.1378.8829,1.40233,1.40233,0,0,1-.527.7966,1.88493,1.88493,0,0,1-.6866.2832,3.0449,3.0449,0,0,1-.6927.08,2.71416,2.71416,0,0,1-.6361-.08,1.37016,1.37016,0,0,1-1.1567-1.015,5.89868,5.89868,0,0,1-.0709-1.0615V30.2337c0-.2697-.0071-.4984-.0071-.6928-.0132-.1879-.0294-.3401-.0456-.4417a1.07731,1.07731,0,0,0-.1337-.3462h1.0745a.26772.26772,0,0,0-.0131.0847.19381.19381,0,0,0-.0422.0954.48411.48411,0,0,0-.0162.1661,2.23271,2.23271,0,0,0-.067.5612v3.0015a1.0391,1.0391,0,0,0,.067.3997.90341.90341,0,0,0,.411.6384,1.46629,1.46629,0,0,0,.8316.194,1.39886,1.39886,0,0,0,.6494-.1356,1.336,1.336,0,0,0,.2026-.1883,1.52688,1.52688,0,0,0,.1439-.2106c.0505-.1725.0926-.3687.1375-.5853a.79451.79451,0,0,0,.0504-.2882V29.5673a1.50932,1.50932,0,0,0-.0222-.2817.43934.43934,0,0,1-.0282-.1216.636.636,0,0,0-.0588-.2596v-.0667a.47826.47826,0,0,0-.0282-.0847Z"/>
            <path class="cls-6" d="M92.6768,28.7289c-.0211.0731-.0441.1454-.0584.2042a.59563.59563,0,0,0-.0275.1661,5.45653,5.45653,0,0,0-.0437.7578c-.0199.2324-.0361.4779-.0361.7311-.0155.2614-.0155.5288-.0155.8041v2.3214a4.1983,4.1983,0,0,0,.0516.6809h-.8798c-.0298-.0873-.0671-.1679-.0946-.2474a.56422.56422,0,0,0-.1374-.1657c-.0223-.0445-.0506-.1092-.0874-.1808a2.511,2.511,0,0,1-.1507-.2976l-.1876-.2874-1.1849-2.33-.3172-.5871a2.95939,2.95939,0,0,0-.2094-.3101l-.0799-.2248c-.0297-.0561-.0587-.1073-.0869-.1579a.59755.59755,0,0,1-.0732-.1228c.0152.1292.0294.2668.0434.4103.0082.1525.0214.3122.0429.4802,0,.1725,0,.3894.0151.6343.0072.261.015.5446.015.8527v1.5345a2.17088,2.17088,0,0,0,.0204.3187,2.45627,2.45627,0,0,0,.0233.3544c.014.1096.0294.2109.0494.3265h-.9259a.21834.21834,0,0,1,.0185-.1032.121.121,0,0,1,.0629-.0933c.0151-.1092.0365-.2472.0576-.4031.0132-.2192.0373-.4941.0581-.8267.0139-.3319.0218-.7304.0218-1.2016,0-.4388-.0079-.8305-.0079-1.1702-.0139-.3349-.0283-.6324-.0426-.8889-.0222-.1462-.0425-.2844-.0587-.4061a1.14412,1.14412,0,0,0-.078-.267.34674.34674,0,0,0-.0425-.1537c-.0313-.043-.0678-.0938-.1026-.1518h1.2999l.0576.1088a3.06153,3.06153,0,0,0,.1673.385.86809.86809,0,0,0,.1364.2904c.0568.113.1227.2366.1875.374l1.1488,2.1982.3744.6806a1.14565,1.14565,0,0,0,.139.261c.0422.0719.0708.1141.093.1239a1.24583,1.24583,0,0,0,.1156.3021,1.84021,1.84021,0,0,1-.0263-.3541v-2.539c0-.3099-.0185-.5789-.0324-.8101-.0203-.217-.0403-.4053-.0569-.5567a1.388,1.388,0,0,0-.1378-.4641Z"/>
            <path class="cls-6" d="M96.9673,33.7584a1.12555,1.12555,0,0,1,.1939-.0953l-.137.6727a1.72185,1.72185,0,0,0-.4031.0867,1.91622,1.91622,0,0,0-.3777.0294,2.82572,2.82572,0,0,1-.3251.0226,3.10925,3.10925,0,0,1-.8366-.1086,2.2358,2.2358,0,0,1-1.1201-.638,2.03306,2.03306,0,0,1-.4987-.976,4.11924,4.11924,0,0,1-.1518-1.1348,3.41563,3.41563,0,0,1,.6211-2.1993,2.4924,2.4924,0,0,1,1.9575-.7605c.1156,0,.2248.0064.325.0128a1.65382,1.65382,0,0,0,.2829.0162,3.71105,3.71105,0,0,1,.7209.2181l-.2814.7077c-.0282-.0372-.0425-.0594-.0516-.0712a.18923.18923,0,0,1-.0436-.0452c-.0415-.0278-.0788-.0579-.1062-.0779a.59564.59564,0,0,1-.1146-.0595,1.49558,1.49558,0,0,0-.3179-.1518,1.67108,1.67108,0,0,0-.4135-.0651,1.41977,1.41977,0,0,0-.7714.2169,1.46294,1.46294,0,0,0-.5515.4561,2.47893,2.47893,0,0,0-.3461.7677,7.00045,7.00045,0,0,0-.0667.9457,5.09739,5.09739,0,0,0,.0972,1.0494,2.44454,2.44454,0,0,0,.4252.8023,1.51244,1.51244,0,0,0,.6362.4437,1.60348,1.60348,0,0,0,.701.1416,2.40551,2.40551,0,0,0,.4335-.0279,1.37435,1.37435,0,0,0,.3676-.1137Z"/>
            <path class="cls-6" d="M98.7636,33.503a2.70283,2.70283,0,0,0,.1212.8915H97.8385a4.30388,4.30388,0,0,0,.1518-.8915V29.7353a3.53253,3.53253,0,0,0-.1518-1.0064h1.0463a2.53713,2.53713,0,0,0-.2014,1.2309Z"/>
            <path class="cls-6" d="M102.59,33.8722a1.15425,1.15425,0,0,0-.0591.5118H99.5775a3.41269,3.41269,0,0,0,.1529-1.2576v-3.037a7.919,7.919,0,0,0-.1235-1.3605h1.0494a8.63845,8.63845,0,0,0-.2177,2.7281,16.06282,16.06282,0,0,0,.093,2.4152Z"/>
            <path class="cls-6" d="M107.1464,34.3945h-1.043a4.46116,4.46116,0,0,0,.1236-.7314l-.0049-4.4279a1.57507,1.57507,0,0,1-.0448-.2656.78709.78709,0,0,0-.0739-.2407h2.912a1.4762,1.4762,0,0,0-.0204.5063H107.03a13.75538,13.75538,0,0,0-.0373,1.8817h1.823a1.00578,1.00578,0,0,0,0,.5201h-1.823a20.1569,20.1569,0,0,0,.0667,2.4231A3.10758,3.10758,0,0,0,107.1464,34.3945Z"/>
            <path class="cls-6" d="M112.9654,28.8743a1.76344,1.76344,0,0,1,.8154.6086,2.05439,2.05439,0,0,1,.4264.9259,3.6793,3.6793,0,0,1,.1661,1.119,5.18819,5.18819,0,0,1-.1371.9582,2.82594,2.82594,0,0,1-.4991,1.214,1.89111,1.89111,0,0,1-.867.5849,2.58747,2.58747,0,0,1-.887.1598c-.0874,0-.1583-.008-.2249-.008a1.37134,1.37134,0,0,1-.2147-.0422c-.1379-.0226-.2825-.0526-.4268-.0873a.8011.8011,0,0,1-.2094-.0874.651.651,0,0,1-.2027-.1432c-.093-.0587-.1653-.1118-.2237-.1544a.64092.64092,0,0,1-.1815-.1638,2.49725,2.49725,0,0,1-.5774-1.246,4.24057,4.24057,0,0,1-.0938-.9258,2.91878,2.91878,0,0,1,.0938-.9827,2.067,2.067,0,0,1,.5269-1.1586,1.85207,1.85207,0,0,1,.7454-.571,2.21394,2.21394,0,0,1,1.0038-.217,2.50675,2.50675,0,0,1,.5115.0573A3.752,3.752,0,0,1,112.9654,28.8743Zm-1.3643.3609a1.06067,1.06067,0,0,0-.319.1536,1.50145,1.50145,0,0,0-.6644.9846,4.3023,4.3023,0,0,0-.1518,1.2132,6.42173,6.42173,0,0,0,.0734,1.0753,2.84379,2.84379,0,0,0,.2301.6095,1.67633,1.67633,0,0,0,.4833.487,1.37325,1.37325,0,0,0,.7454.2064,1.17068,1.17068,0,0,0,.3899-.0569,1.01377,1.01377,0,0,0,.3973-.2079,1.03782,1.03782,0,0,0,.2381-.2313,1.42552,1.42552,0,0,0,.1944-.3179c.0436-.0892.087-.1966.1374-.3291a1.89774,1.89774,0,0,0,.0942-.3899c.0143-.136.0354-.2738.0587-.4113.0124-.1296.0204-.2757.0204-.4339,0-.1439-.008-.2897-.0204-.4193a1.96714,1.96714,0,0,1-.0301-.3705,2.565,2.565,0,0,0-.2524-.7722,1.28331,1.28331,0,0,0-.6369-.6663,1.17631,1.17631,0,0,0-.6056-.1827,1.01607,1.01607,0,0,0-.1959.0309A.61954.61954,0,0,1,111.6011,29.2352Z"/>
            <path class="cls-6" d="M116.9015,28.7289a2.1828,2.1828,0,0,1,1.0086.2305,1.66664,1.66664,0,0,1,.1521,2.4328,1.32564,1.32564,0,0,1-.6636.4682h-.0708l.7344,1.411c.101.1747.1956.3269.2822.4505a1.46114,1.46114,0,0,0,.1725.2595,2.34716,2.34716,0,0,0,.3353.4131h-1.1003a.7535.7535,0,0,1-.0949-.2327,1.09634,1.09634,0,0,0-.1205-.2539,1.53205,1.53205,0,0,0-.1097-.2018,1.033,1.033,0,0,1-.1518-.2837l-.027-.0832c-.1097-.2208-.2038-.3993-.275-.5424-.0871-.1465-.1518-.2618-.2034-.3492a2.005,2.005,0,0,0-.1085-.194,3.03827,3.03827,0,0,1-.1865-.3145c-.0432-.0851-.096-.1781-.16-.2795-.0727-.1012-.1232-.166-.1578-.2105h.2218a1.22139,1.22139,0,0,0,.4426-.0569,1.02757,1.02757,0,0,0,.5348-.261,1.20353,1.20353,0,0,0,.2949-.47,1.11089,1.11089,0,0,0,.0494-.3481.96745.96745,0,0,0-.3443-.8302.99529.99529,0,0,0-.7604-.2477h-.5481l-.0282.4211v3.2106a5.8,5.8,0,0,0,.0282.6648c0,.1208,0,.2632.0072.4191a1.25932,1.25932,0,0,0,.0787.4437h-1.0817a.29841.29841,0,0,0,.0854-.1318c.0151-.0791.0354-.1657.0516-.2606.014-.1729.0362-.432.0566-.7865,0-.154,0-.3487.0166-.5793.0048-.2335.0128-.4904.0128-.7962V30.4088c0-.232-.0128-.4588-.0294-.6591-.0204-.2024-.0426-.3767-.0566-.527a3.73077,3.73077,0,0,0-.0802-.4938Z"/>
            <path class="cls-6" d="M126.4605,28.753a2.30918,2.30918,0,0,0-.0662.498,2.25949,2.25949,0,0,0-.0279.4094v2.7714a2.443,2.443,0,0,1-.1378.8829,1.40718,1.40718,0,0,1-.5273.7966,1.8805,1.8805,0,0,1-.6856.2832,3.06426,3.06426,0,0,1-.6945.08,2.71508,2.71508,0,0,1-.6347-.08,1.37067,1.37067,0,0,1-1.1556-1.015,5.73785,5.73785,0,0,1-.073-1.0615V30.2337c0-.2697-.0061-.4984-.0061-.6928-.0131-.1879-.0305-.3401-.0437-.4417a1.08647,1.08647,0,0,0-.1378-.3462h1.0757a.26772.26772,0,0,0-.0131.0847.19989.19989,0,0,0-.0438.0954.52107.52107,0,0,0-.015.1661,2.28184,2.28184,0,0,0-.0648.5612v3.0015a1.06128,1.06128,0,0,0,.0648.3997.9015.9015,0,0,0,.4124.6384,1.46172,1.46172,0,0,0,.829.194.87632.87632,0,0,0,.8527-.3239,1.44858,1.44858,0,0,0,.1455-.2106c.0512-.1725.0941-.3687.1363-.5853a.77.77,0,0,0,.0513-.2882V29.5673a1.503,1.503,0,0,0-.022-.2817.41416.41416,0,0,1-.0293-.1216.634.634,0,0,0-.0573-.2596v-.0667a.621.621,0,0,0-.0278-.0847Z"/>
            <path class="cls-6" d="M131.4618,28.7289c-.0195.0731-.0421.1454-.058.2042a.65371.65371,0,0,0-.0271.1661,5.37949,5.37949,0,0,0-.0444.7578c-.0204.2324-.0362.4779-.0362.7311-.0144.2614-.0144.5288-.0144.8041v2.3214a4.188,4.188,0,0,0,.0506.6809h-.88c-.0286-.0873-.0655-.1679-.0941-.2474a.55446.55446,0,0,0-.1386-.1657c-.0218-.0445-.049-.1092-.0844-.1808a2.39758,2.39758,0,0,1-.1536-.2976l-.1876-.2874-1.1834-2.33-.318-.5871a2.83941,2.83941,0,0,0-.2101-.3101l-.0792-.2248c-.0286-.0561-.0587-.1073-.0888-.1579a.66537.66537,0,0,1-.0701-.1228c.0143.1292.0294.2668.043.4103.009.1525.0218.3122.0444.4802,0,.1725,0,.3894.0128.6343.0075.261.0151.5446.0151.8527v1.5345a1.98059,1.98059,0,0,0,.021.3187,2.52167,2.52167,0,0,0,.0226.3544c.0151.1096.0287.2109.0512.3265h-.9265a.2406.2406,0,0,1,.0166-.1032.12579.12579,0,0,1,.0647-.0933c.0151-.1092.0362-.2472.0573-.4031.0135-.2192.0369-.4941.0587-.8267.0136-.3319.0204-.7304.0204-1.2016,0-.4388-.0068-.8305-.0068-1.1702-.0136-.3349-.0301-.6324-.0422-.8889-.024-.1462-.0436-.2844-.0587-.4061a1.39819,1.39819,0,0,0-.0769-.267.36434.36434,0,0,0-.0451-.1537c-.0302-.043-.0648-.0938-.101-.1518h1.2972l.0573.1088a3.46926,3.46926,0,0,0,.1695.385.842.842,0,0,0,.1378.2904c.055.113.1198.2366.1845.374l1.1504,2.1982.3751.6806a1.06545,1.06545,0,0,0,.1387.261.40852.40852,0,0,0,.0918.1239,1.27357,1.27357,0,0,0,.1161.3021,1.75174,1.75174,0,0,1-.0294-.3541v-2.539c0-.3099-.0143-.5789-.0294-.8101-.0211-.217-.0407-.4053-.0573-.5567a1.301,1.301,0,0,0-.137-.4641Z"/>
            <path class="cls-6" d="M133.1146,33.503a2.61732,2.61732,0,0,0,.1243.8915h-1.0478a4.22477,4.22477,0,0,0,.1528-.8915V29.7353a3.48208,3.48208,0,0,0-.1528-1.0064h1.0478a2.51937,2.51937,0,0,0-.2026,1.2309Z"/>
            <path class="cls-6" d="M133.8807,28.9044a.45243.45243,0,0,1-.0882-.1514h1.1489a.22572.22572,0,0,0-.0287.0987v.1077a1.81009,1.81009,0,0,0,.0942.5235l.4852,1.5914c.1001.3605.1867.6705.2651.9172.073.2621.1182.4561.1446.5857a3.63346,3.63346,0,0,0,.1582.4418c.058.1748.1235.3691.1891.5993l.8596-2.9571c.079-.3183.1589-.608.2395-.8671a2.69812,2.69812,0,0,0,.1138-.6301,1.22419,1.22419,0,0,0,.0293-.411h.9831a2.45506,2.45506,0,0,0-.101.296c-.0361.0995-.067.1658-.0798.202-.0444.1152-.0866.2252-.1364.3401a2.85608,2.85608,0,0,0-.1544.3973,6.69169,6.69169,0,0,0-.2659.715,5.42762,5.42762,0,0,1-.2155.5935c-.0655.2753-.1393.5292-.2169.7594a4.45357,4.45357,0,0,0-.1958.7096c-.0806.2309-.138.4211-.1816.5627a3.27087,3.27087,0,0,0-.1002.3631c-.0279.0867-.0497.1883-.0799.3036-.0278.116-.0655.2531-.0941.3992h-.9809v-.0752l-.0301-.0927c0-.0121-.0045-.0573-.0128-.1153a.61751.61751,0,0,1-.0241-.1744.52352.52352,0,0,1-.0843-.215,2.19673,2.19673,0,0,1-.058-.269c-.0716-.1601-.1319-.2817-.168-.3766l-.8061-2.553a4.04428,4.04428,0,0,1-.1469-.4701c-.0421-.1461-.0851-.2757-.1227-.3827a1.09705,1.09705,0,0,1-.1206-.2474,1.46381,1.46381,0,0,1-.0821-.2591c-.0196-.0584-.0414-.1089-.0558-.1522C133.9372,28.9813,133.9093,28.9459,133.8807,28.9044Z"/>
            <path class="cls-6" d="M140.0819,31.1451h1.7424a1.96332,1.96332,0,0,0,0,.5225h-1.7424v1.8945a1.71478,1.71478,0,0,0,.0151.3101h2.0732a1.37532,1.37532,0,0,0-.0867.5118h-2.9402a3.70427,3.70427,0,0,0,.1672-1.0912q-.05415-4.066-.079-4.2302c-.0219-.1032-.0437-.2188-.058-.3337h2.8302l-.0279.3703v.136h-1.8727a1.56049,1.56049,0,0,0-.0212.2327v1.6772Z"/>
            <path class="cls-6" d="M144.6388,28.7289a2.196,2.196,0,0,1,1.0116.2305,1.66675,1.66675,0,0,1,.1515,2.4328,1.32485,1.32485,0,0,1-.6644.4682h-.0732l.7376,1.411c.1002.1747.1943.3269.2817.4505a1.323,1.323,0,0,0,.1732.2595,2.3137,2.3137,0,0,0,.3315.4131h-1.0975a.69266.69266,0,0,1-.092-.2327,1.20241,1.20241,0,0,0-.1235-.2539,1.31442,1.31442,0,0,0-.11-.2018,1.08355,1.08355,0,0,1-.1529-.2837l-.0249-.0832c-.1092-.2208-.2034-.3993-.2765-.5424-.0881-.1465-.1506-.2618-.2026-.3492a1.77178,1.77178,0,0,0-.1085-.194c-.0557-.0805-.1152-.1826-.1876-.3145a2.94332,2.94332,0,0,0-.1581-.2795c-.0738-.1012-.1236-.166-.1598-.2105h.2245a1.22883,1.22883,0,0,0,.4415-.0569,1.02133,1.02133,0,0,0,.5341-.261,1.08013,1.08013,0,0,0,.3457-.8181.96709.96709,0,0,0-.3457-.8302.99132.99132,0,0,0-.7594-.2477h-.5491l-.0279.4211v3.2106a6.58512,6.58512,0,0,0,.0279.6648c0,.1208,0,.2632.0082.4191a1.21572,1.21572,0,0,0,.0792.4437h-1.0825a.3115.3115,0,0,0,.0843-.1318c.0151-.0791.0377-.1657.0528-.2606.0135-.1729.0361-.432.0572-.7865,0-.154,0-.3487.0136-.5793.009-.2335.015-.4904.015-.7962V30.4088c0-.232-.015-.4588-.0286-.6591-.0211-.2024-.0437-.3767-.0572-.527a3.401,3.401,0,0,0-.0814-.4938Z"/>
            <path class="cls-6" d="M149.2227,31.2969a4.1665,4.1665,0,0,1,.7736.5515,1.2159,1.2159,0,0,1,.3473,1.2504c-.043.1063-.0792.2246-.1146.3394-.0444.0935-.0805.1887-.1167.2754a.43994.43994,0,0,1-.2018.2086.60733.60733,0,0,1-.2231.2027c-.1032.0587-.1898.1156-.2757.16a2.56876,2.56876,0,0,1-.974.1896,2.97081,2.97081,0,0,1-.7895-.0958c-.2169-.0648-.3676-.11-.4527-.1382l.217-.7088a.58822.58822,0,0,0,.1559.1374.43866.43866,0,0,0,.1514.0893.93908.93908,0,0,0,.348.1296,1.88621,1.88621,0,0,0,.4196.0342,1.09729,1.09729,0,0,0,.7865-.2697.85225.85225,0,0,0,.3051-.6704.77809.77809,0,0,0-.2765-.5913,1.34758,1.34758,0,0,0-.4686-.3345l-.0798-.0279-.5544-.3484a1.763,1.763,0,0,1-.5786-.4395,1.42545,1.42545,0,0,1-.2614-.8976,1.61506,1.61506,0,0,1,.4708-1.2147,1.93726,1.93726,0,0,1,1.3492-.4709c.043,0,.0942.0064.1665.0128.058.0162.131.0302.2162.0588.0723.0158.1672.0362.2817.0528l.4415.0926-.2095.6508a.269.269,0,0,1-.2018-.1363,1.92192,1.92192,0,0,0-.3684-.1378,1.53129,1.53129,0,0,0-.3533-.0445,1.03,1.03,0,0,0-.8045.3186.75.75,0,0,0-.1484.2953,1.20553,1.20553,0,0,0-.052.3711.94971.94971,0,0,0,.2004.6053,1.17273,1.17273,0,0,0,.2041.1604.95335.95335,0,0,0,.3254.1597l.3172.18Z"/>
            <path class="cls-6" d="M151.9971,33.503a2.68166,2.68166,0,0,0,.1213.8915h-1.0456a4.22082,4.22082,0,0,0,.1499-.8915V29.7353a3.50042,3.50042,0,0,0-.1499-1.0064h1.0456a2.51482,2.51482,0,0,0-.2012,1.2309Z"/>
            <path class="cls-6" d="M155.1,29.2656c-.0286.188-.0437,1.0264-.0498,2.5157a9.13985,9.13985,0,0,0,.1673,2.6132h-1.0418a8.55239,8.55239,0,0,0,.1807-2.5974,21.23988,21.23988,0,0,0-.0934-2.5315h-1.5593a1.383,1.383,0,0,0-.058-.5367h4.1017a1.41324,1.41324,0,0,0-.0293.5367Z"/>
            <path class="cls-6" d="M161.5792,28.753l-.0301.0591c-.0716.1473-.1364.2791-.1959.3887-.064.115-.1137.2102-.1514.2821-.0565.0988-.1221.2298-.1951.3741a5.1254,5.1254,0,0,0-.2441.5164l-.925,1.9736v1.0264c0,.3605.0082.5993.0203.7319a.85884.85884,0,0,0,.0731.2892h-1.0177c.0369-.1156.073-.2169.1001-.3265a1.8743,1.8743,0,0,0,.0377-.4049V32.347l-1.0916-2.2938c-.1009-.1883-.1958-.3683-.2749-.5363-.0852-.1586-.1582-.2878-.2162-.3887a2.05574,2.05574,0,0,0-.2516-.3752h1.212a.98077.98077,0,0,0,0,.2814,4.25343,4.25343,0,0,0,.3195.9254l.7721,1.6573.7571-1.7013a4.078,4.078,0,0,0,.2885-.8814V28.753Z"/>
            <path class="cls-6" d="M168.5903,33.7584a1.07,1.07,0,0,1,.1929-.0953l-.1379.6727a1.72764,1.72764,0,0,0-.403.0867,1.89289,1.89289,0,0,0-.3767.0294,2.83188,2.83188,0,0,1-.3262.0226,3.12121,3.12121,0,0,1-.8369-.1086,2.24771,2.24771,0,0,1-1.1202-.638,2.04931,2.04931,0,0,1-.4979-.976,4.11967,4.11967,0,0,1-.1507-1.1348,3.405,3.405,0,0,1,.62-2.1993,2.49371,2.49371,0,0,1,1.9586-.7605c.1145,0,.2238.0064.3232.0128a1.6702,1.6702,0,0,0,.2817.0162,3.62283,3.62283,0,0,1,.7224.2181l-.2794.7077c-.0294-.0372-.046-.0594-.0535-.0712a.14259.14259,0,0,1-.0407-.0452c-.0422-.0278-.0799-.0579-.1085-.0779a.63908.63908,0,0,1-.1152-.0595,1.44645,1.44645,0,0,0-.3187-.1518,1.6428,1.6428,0,0,0-.4113-.0651,1.42724,1.42724,0,0,0-.7736.2169,1.44587,1.44587,0,0,0-.5492.4561,2.51,2.51,0,0,0-.348.7677,7.32245,7.32245,0,0,0-.0648.9457,5.005,5.005,0,0,0,.0949,1.0494,2.45961,2.45961,0,0,0,.4271.8023,1.52271,1.52271,0,0,0,.6351.4437,1.6096,1.6096,0,0,0,.7021.1416,2.37507,2.37507,0,0,0,.4323-.0279,1.424,1.424,0,0,0,.3691-.1137Z"/>
            <path class="cls-6" d="M172.7335,28.8743a1.76645,1.76645,0,0,1,.8143.6086,2.066,2.066,0,0,1,.4264.9259,3.70081,3.70081,0,0,1,.1673,1.119,5.60018,5.60018,0,0,1-.1372.9582,2.83475,2.83475,0,0,1-.4994,1.214,1.90311,1.90311,0,0,1-.8663.5849,2.59943,2.59943,0,0,1-.8874.1598c-.0874,0-.1605-.008-.2253-.008a1.37344,1.37344,0,0,1-.2169-.0422c-.1356-.0226-.2825-.0526-.4263-.0873a.81152.81152,0,0,1-.2095-.0874.66617.66617,0,0,1-.2012-.1432c-.0934-.0587-.1672-.1118-.2252-.1544a.63618.63618,0,0,1-.1793-.1638,2.50529,2.50529,0,0,1-.5785-1.246,4.24178,4.24178,0,0,1-.0927-.9258,2.90191,2.90191,0,0,1,.0927-.9827,2.06538,2.06538,0,0,1,.5281-1.1586,1.83515,1.83515,0,0,1,.7435-.571,2.22348,2.22348,0,0,1,1.0034-.217,2.52963,2.52963,0,0,1,.5145.0573A4.00122,4.00122,0,0,1,172.7335,28.8743Zm-1.3673.3609a1.06548,1.06548,0,0,0-.3163.1536,1.49384,1.49384,0,0,0-.6653.9846,4.30911,4.30911,0,0,0-.1506,1.2132,6.62075,6.62075,0,0,0,.0708,1.0753,2.94,2.94,0,0,0,.232.6095,1.65615,1.65615,0,0,0,.4844.487,1.36106,1.36106,0,0,0,.7428.2064,1.16543,1.16543,0,0,0,.391-.0569,1.00452,1.00452,0,0,0,.3977-.2079,1.052,1.052,0,0,0,.2381-.2313,1.42171,1.42171,0,0,0,.1943-.3179c.043-.0892.0866-.1966.1371-.3291a2.02194,2.02194,0,0,0,.0941-.3899c.0144-.136.0355-.2738.0581-.4113a3.99513,3.99513,0,0,0,.0219-.4339,3.91125,3.91125,0,0,0-.0219-.4193,2.02674,2.02674,0,0,1-.0294-.3705,2.565,2.565,0,0,0-.2524-.7722,1.28485,1.28485,0,0,0-.635-.6663,1.19485,1.19485,0,0,0-.6064-.1827,1.003,1.003,0,0,0-.1959.0309A.63642.63642,0,0,1,171.3662,29.2352Z"/>
            <path class="cls-6" d="M177.8297,33.8722a1.12733,1.12733,0,0,0-.0588.5118h-2.9545a3.39905,3.39905,0,0,0,.1537-1.2576v-3.037a8.17924,8.17924,0,0,0-.1228-1.3605h1.0456a8.83417,8.83417,0,0,0-.2162,2.7281,15.97471,15.97471,0,0,0,.0942,2.4152Z"/>
            <path class="cls-6" d="M181.5714,33.8722a1.098,1.098,0,0,0-.0588.5118h-2.9544a3.42646,3.42646,0,0,0,.1521-1.2576v-3.037a8.17924,8.17924,0,0,0-.1228-1.3605h1.0464a8.7939,8.7939,0,0,0-.217,2.7281,16.0439,16.0439,0,0,0,.0934,2.4152Z"/>
            <path class="cls-6" d="M183.2354,31.1451h1.7402a2.41911,2.41911,0,0,0,0,.5225h-1.7402v1.8945a1.56189,1.56189,0,0,0,.0166.3101h2.0723a1.34711,1.34711,0,0,0-.0873.5118h-2.9394a3.68307,3.68307,0,0,0,.1672-1.0912q-.0543-4.066-.0798-4.2302c-.0212-.1032-.043-.2188-.0581-.3337h2.8302l-.0301.3703v.136h-1.8682a1.191,1.191,0,0,0-.0234.2327v1.6772Z"/>
            <path class="cls-6" d="M190.1681,31.5584a.75448.75448,0,0,0-.073.2817c-.0128.1092-.0128.4779-.0128,1.1141,0,.6501,0,1.0106.0128,1.078a.89772.89772,0,0,0,.0452.2083,2.5034,2.5034,0,0,0-.666.0734c-.2591.052-.4767.0867-.6561.1086-.1807.0142-.3179.0368-.4188.052a2.25346,2.25346,0,0,1-1.7778-.7466,3.24046,3.24046,0,0,1-.6509-2.1413,3.04623,3.04623,0,0,1,.6365-2.0457,2.4282,2.4282,0,0,1,2.0589-.8836,3.64557,3.64557,0,0,1,.4761.0347c.1611.0301.2983.061.4196.0897a4.20051,4.20051,0,0,1,.5333.1943,4.6248,4.6248,0,0,0-.2742.7797.10338.10338,0,0,1-.0437-.0482c-.0128-.0166-.0346-.037-.0482-.0512a.63645.63645,0,0,0-.2547-.211.85155.85155,0,0,0-.2154-.1375c-.0874-.0301-.1597-.05-.2245-.0726a1.0816,1.0816,0,0,0-.3969-.0938,1.57686,1.57686,0,0,0-1.4073.7314,2.7858,2.7858,0,0,0-.4421,1.635,3.9683,3.9683,0,0,0,.1514,1.1541,2.07217,2.07217,0,0,0,.3465.7176,1.52636,1.52636,0,0,0,.2817.2614,1.2521,1.2521,0,0,0,.2968.1823,1.73445,1.73445,0,0,0,.7443.1638c.0573,0,.1221,0,.18-.0056a.39668.39668,0,0,0,.1666-.0445.57282.57282,0,0,0,.1506-.0147,1.82112,1.82112,0,0,0,.2177-.0422V32.071h-1.0042a1.33516,1.33516,0,0,0-.0565-.5126Z"/>
            <path class="cls-6" d="M191.7697,31.1451h1.7409a2.24145,2.24145,0,0,0,0,.5225h-1.7409v1.8945a1.72607,1.72607,0,0,0,.015.3101h2.0732a1.34818,1.34818,0,0,0-.0859.5118h-2.9409a3.64892,3.64892,0,0,0,.168-1.0912q-.0555-4.066-.0806-4.2302c-.0219-.1032-.043-.2188-.0573-.3337h2.831l-.0294.3703v.136h-1.8697a1.256,1.256,0,0,0-.0234.2327v1.6772Z"/>
            <path class="cls-6" d="M198.20369,31.1451h1.741a2.015,2.015,0,0,0,0,.5225h-1.741v1.8945a1.90025,1.90025,0,0,0,.01361.3101h2.07389a1.37677,1.37677,0,0,0-.0874.5118H197.2644a3.753,3.753,0,0,0,.1679-1.0912q-.0576-4.066-.0798-4.2302c-.0234-.1032-.043-.2188-.058-.3337h2.83089l-.0286.3703v.136h-1.8719a1.4621,1.4621,0,0,0-.0212.2327v1.6772Z"/>
            <path class="cls-6" d="M205.3323,30.726a6.452,6.452,0,0,1,.049.7879,4.47868,4.47868,0,0,1-.16571,1.2434,2.54638,2.54638,0,0,1-.52129,1.0071,2.33847,2.33847,0,0,1-.92361.5269c-.1152.0159-.2305.028-.3533.0506-.1296.0142-.26809.03-.41809.0421h-2.08671a.85818.85818,0,0,0,.0836-.2222c.0166-.0852.0302-.211.046-.3612,0-.1481.0136-.3172.0354-.5368a2.01931,2.01931,0,0,1,.0144-.287c.0075-.0953.0128-.1905.0128-.2893v-1.536a17.291,17.291,0,0,0-.0566-1.7337,3.33383,3.33383,0,0,0-.1356-.6889h2.2879c.2019.0158.3902.0362.5566.0528a1.3613,1.3613,0,0,1,.4249.1227,1.765,1.765,0,0,1,.5937.4034,1.80315,1.80315,0,0,1,.3607.6731A3.38944,3.38944,0,0,1,205.3323,30.726Zm-.92581,1.9103a3.88884,3.88884,0,0,0,.1371-1.0998,4.19,4.19,0,0,0-.1092-1.0501,1.71877,1.71877,0,0,0-.5265-.9047,1.42045,1.42045,0,0,1-.1229-.0938,1.26519,1.26519,0,0,0-.1521-.0701c-.0279-.0166-.0648-.0373-.107-.0595a.90664.90664,0,0,1-.1597-.0648c-.08589-.0158-.1733-.0279-.2591-.0425-.095-.008-.1794-.0158-.2607-.0158h-.8158l-.1514.0304v.7876a4.73166,4.73166,0,0,0-.031.5289v2.98c0,.2023.0174.3037.043.3101h1.1873a1.32746,1.32746,0,0,0,.3539-.0648,1.90476,1.90476,0,0,0,.3383-.1259A1.88372,1.88372,0,0,0,204.40649,32.6363Z"/>
            <path class="cls-6" d="M210.22589,28.753a2.245,2.245,0,0,0-.0648.498,2.13129,2.13129,0,0,0-.0279.4094v2.7714a2.52446,2.52446,0,0,1-.1386.8829,1.42167,1.42167,0,0,1-.52729.7966,1.87326,1.87326,0,0,1-.68631.2832,3.062,3.062,0,0,1-.6938.08,2.69917,2.69917,0,0,1-.6343-.08,1.48648,1.48648,0,0,1-.5793-.2109,1.47089,1.47089,0,0,1-.5771-.8041,5.70369,5.70369,0,0,1-.073-1.0615V30.2337c0-.2697-.0053-.4984-.0053-.6928-.0143-.1879-.0286-.3401-.0452-.4417a1.03908,1.03908,0,0,0-.1371-.3462h1.0772a.23637.23637,0,0,0-.015.0847.24932.24932,0,0,0-.0437.0954.64187.64187,0,0,0-.01209.1661,2.21537,2.21537,0,0,0-.06551.5612v3.0015a1.03315,1.03315,0,0,0,.06551.3997.88624.88624,0,0,0,.41059.6384,1.46262,1.46262,0,0,0,.8301.194,1.39219,1.39219,0,0,0,.6494-.1356,1.50414,1.50414,0,0,0,.2042-.1883,1.71938,1.71938,0,0,0,.1431-.2106c.0497-.1725.0942-.3687.1378-.5853a.78721.78721,0,0,0,.04981-.2882V29.5673a1.66334,1.66334,0,0,0-.02121-.2817.38174.38174,0,0,1-.0286-.1216.64907.64907,0,0,0-.0587-.2596v-.0667a.60844.60844,0,0,0-.0294-.0847Z"/>
            <path class="cls-6" d="M214.53779,33.7584a1.11657,1.11657,0,0,1,.1921-.0953l-.1363.6727a1.77656,1.77656,0,0,0-.4038.0867,1.90315,1.90315,0,0,0-.3759.0294,2.8528,2.8528,0,0,1-.3247.0226,3.11163,3.11163,0,0,1-.8377-.1086,2.23872,2.23872,0,0,1-1.1194-.638,2.04473,2.04473,0,0,1-.4994-.976,4.09009,4.09009,0,0,1-.1492-1.1348,3.40909,3.40909,0,0,1,.6192-2.1993,2.49272,2.49272,0,0,1,1.95861-.7605c.11459,0,.223.0064.32239.0128a1.676,1.676,0,0,0,.2833.0162,3.67576,3.67576,0,0,1,.7216.2181l-.2809.7077c-.0302-.0372-.043-.0594-.052-.0712a.13369.13369,0,0,1-.04139-.0452c-.04381-.0278-.08061-.0579-.10861-.0779a.8105.8105,0,0,1-.1159-.0595,1.46058,1.46058,0,0,0-.3164-.1518,1.66334,1.66334,0,0,0-.41209-.0651,1.41954,1.41954,0,0,0-.77291.2169,1.435,1.435,0,0,0-.54909.4561,2.42578,2.42578,0,0,0-.34961.7677,7.20164,7.20164,0,0,0-.0648.9457,5.10719,5.10719,0,0,0,.095,1.0494,2.50034,2.50034,0,0,0,.4256.8023,1.5247,1.5247,0,0,0,.6373.4437,1.60007,1.60007,0,0,0,.70051.1416,2.3678,2.3678,0,0,0,.43249-.0279,1.39506,1.39506,0,0,0,.3683-.1137Z"/>
            <path class="cls-6" d="M218.26819,28.7289a.27773.27773,0,0,0-.0573.261l1.3349,4.7237a1.21768,1.21768,0,0,0,.1176.2817.64883.64883,0,0,0,.1077.2027.567.567,0,0,0,.0934.1965h-1.0757v-.0526a.71258.71258,0,0,0,.0301-.1153,1.07489,1.07489,0,0,0-.0807-.3187.2102.2102,0,0,1-.0428-.1348c-.0144-.0731-.1033-.4584-.27509-1.1673a8.05893,8.05893,0,0,0-1.84781,0c-.1966.7228-.3029,1.1368-.3337,1.2294a.92269.92269,0,0,0-.0422.2188.84676.84676,0,0,0-.0301.2449v.0956h-.9311c.0226-.0674.0647-.1604.1213-.2892a2.41843,2.41843,0,0,1,.1679-.3409,2.99457,2.99457,0,0,1,.1356-.4636q.0882-.27915.217-.7598l.8038-2.5812c.05731-.1876.1062-.3477.1341-.4836.0301-.1318.05121-.2471.0753-.348a.65925.65925,0,0,0,.061-.2031.24592.24592,0,0,0-.061-.1962Zm0,3.2712-.6931-2.8361-.83679,2.8361.75779.0283Z"/>
            <path class="cls-6" d="M222.75869,29.2656c-.0301.188-.0445,1.0264-.0505,2.5157a9.15116,9.15116,0,0,0,.168,2.6132h-1.0433a8.61269,8.61269,0,0,0,.1823-2.5974,22.13239,22.13239,0,0,0-.0927-2.5315h-1.5623a1.34294,1.34294,0,0,0-.0588-.5367h4.1048a1.34311,1.34311,0,0,0-.0286.5367Z"/>
            <path class="cls-6" d="M225.93319,33.503a2.59906,2.59906,0,0,0,.125.8915h-1.0494a4.12372,4.12372,0,0,0,.1544-.8915V29.7353a3.41525,3.41525,0,0,0-.1544-1.0064h1.0494a2.49757,2.49757,0,0,0-.2041,1.2309Z"/>
            <path class="cls-6" d="M230.02279,28.8743a1.776,1.776,0,0,1,.8166.6086,2.07159,2.07159,0,0,1,.4257.9259,3.70109,3.70109,0,0,1,.1657,1.119,5.246,5.246,0,0,1-.1379.9582,2.82448,2.82448,0,0,1-.4987,1.214,1.895,1.895,0,0,1-.8662.5849,2.59987,2.59987,0,0,1-.8874.1598c-.0867,0-.15829-.008-.22529-.008a1.45344,1.45344,0,0,1-.21621-.0422c-.1379-.0226-.2817-.0526-.4256-.0873a.75714.75714,0,0,1-.2086-.0874.65461.65461,0,0,1-.2027-.1432c-.0926-.0587-.168-.1118-.2252-.1544a.64788.64788,0,0,1-.1801-.1638,2.466,2.466,0,0,1-.5771-1.246,4.10863,4.10863,0,0,1-.0948-.9258,2.82645,2.82645,0,0,1,.0948-.9827,2.04964,2.04964,0,0,1,.5267-1.1586,1.85584,1.85584,0,0,1,.7434-.571,2.22149,2.22149,0,0,1,1.005-.217,2.52546,2.52546,0,0,1,.5122.0573A3.81055,3.81055,0,0,1,230.02279,28.8743Zm-1.3657.3609a1.06355,1.06355,0,0,0-.3171.1536,1.48509,1.48509,0,0,0-.6644.9846,4.24758,4.24758,0,0,0-.1507,1.2132,6.72208,6.72208,0,0,0,.0693,1.0753,3.02984,3.02984,0,0,0,.2328.6095,1.6374,1.6374,0,0,0,.4844.487,1.35965,1.35965,0,0,0,.7435.2064,1.18813,1.18813,0,0,0,.3909-.0569.989.989,0,0,0,.3948-.2079,1.10574,1.10574,0,0,0,.241-.2313,1.57236,1.57236,0,0,0,.1944-.3179c.0422-.0892.0851-.1966.1356-.3291a1.97173,1.97173,0,0,0,.0934-.3899c.0166-.136.0385-.2738.0587-.4113a3.61837,3.61837,0,0,0,.02261-.4339,3.53175,3.53175,0,0,0-.02261-.4193,2.26336,2.26336,0,0,1-.0286-.3705,2.54184,2.54184,0,0,0-.2531-.7722,1.27814,1.27814,0,0,0-.63569-.6663,1.18625,1.18625,0,0,0-.60571-.1827.978.978,0,0,0-.1951.0309A.63991.63991,0,0,1,228.65709,29.2352Z"/>
            <path class="cls-6" d="M236.36119,28.7289c-.0226.0731-.0421.1454-.0572.2042a.62624.62624,0,0,0-.0279.1661,5.50523,5.50523,0,0,0-.0444.7578c-.0226.2324-.0362.4779-.0362.7311-.015.2614-.015.5288-.015.8041v2.3214a4.18747,4.18747,0,0,0,.0512.6809h-.8792c-.03-.0873-.06619-.1679-.0948-.2474a.55451.55451,0,0,0-.1387-.1657c-.0218-.0445-.04969-.1092-.0843-.1808a2.12725,2.12725,0,0,1-.1537-.2976l-.1891-.2874-1.1827-2.33-.31789-.5871a2.46894,2.46894,0,0,0-.20861-.3101l-.0792-.2248c-.0324-.0561-.0587-.1073-.0896-.1579a.6276.6276,0,0,1-.0708-.1228c.0143.1292.0286.2668.0429.4103.00831.1525.0219.3122.0445.4802,0,.1725,0,.3894.0143.6343.006.261.0143.5446.0143.8527v1.5345a1.96635,1.96635,0,0,0,.0218.3187,2.40656,2.40656,0,0,0,.0226.3544c.0136.1096.0287.2109.049.3265h-.9258a.25166.25166,0,0,1,.0158-.1032.12771.12771,0,0,1,.06481-.0933c.01659-.1092.03459-.2472.05879-.4031.012-.2192.0361-.4941.05721-.8267.01359-.3319.02189-.7304.02189-1.2016,0-.4388-.0083-.8305-.0083-1.1702-.01359-.3349-.02859-.6324-.0422-.8889-.0226-.1462-.0422-.2844-.0588-.4061a1.16657,1.16657,0,0,0-.0768-.267.36466.36466,0,0,0-.0452-.1537c-.0302-.043-.067-.0938-.101-.1518h1.2987l.0588.1088a3.22953,3.22953,0,0,0,.168.385.80451.80451,0,0,0,.1356.2904c.0565.113.12131.2366.18831.374l1.14889,2.1982.37511.6806a1.06564,1.06564,0,0,0,.13709.261.37073.37073,0,0,0,.0934.1239,1.24725,1.24725,0,0,0,.1152.3021,1.81689,1.81689,0,0,1-.0286-.3541v-2.539c0-.3099-.0158-.5789-.0278-.8101-.0226-.217-.043-.4053-.0588-.5567a1.29762,1.29762,0,0,0-.1379-.4641Z"/>
          </g>
          <g>
            <path class="cls-6" d="M53.2529,6.6146V8.5364H50.7697a4.638,4.638,0,0,1,1.1028,1.3797,3.6821,3.6821,0,0,1,.4264,1.7499,4.155,4.155,0,0,1-1.2701,3.0468,4.47087,4.47087,0,0,1-6.2352,0,4.17232,4.17232,0,0,1-1.2617-3.0468,3.76045,3.76045,0,0,1,.4173-1.7499,4.5022,4.5022,0,0,1,1.0949-1.3797H42.5179V6.6146h4.176V4.5499h2.4856V6.6146Zm-3.875,3.283a1.84022,1.84022,0,0,0-2.9311,0,2.40811,2.40811,0,0,0-.6686,1.6859,2.3518,2.3518,0,0,0,.6686,1.6566,1.86333,1.86333,0,0,0,2.9311,0,2.3845,2.3845,0,0,0,.6566-1.6566A2.44208,2.44208,0,0,0,49.3779,9.8976Zm-.2388,7.6977v3.9259h7.9516v1.9835H46.8125V17.5953Zm10.1991-7.1772v2.0016h-2.524v6.1579H54.5068V5.0399h2.3074v5.3782Z"/>
            <path class="cls-6" d="M71.2676,10.0193a13.84314,13.84314,0,0,0,.1579-2.362H63.4939V5.652H73.8312a26.20348,26.20348,0,0,1-.1774,3.458,27.943,27.943,0,0,1-.5571,3.4536h3.9157V14.486H69.9945v2.6804h3.9753v6.6457H71.6455V19.1087H63.315V17.1664h4.2324V14.486H60.4709V12.5636H70.7897A21.688,21.688,0,0,0,71.2676,10.0193Z"/>
            <path class="cls-6" d="M79.3774,7.8011V5.8564h8.8078V7.8011H85.0058v.9805a5.06912,5.06912,0,0,0,.3285,1.8008,4.9544,4.9544,0,0,0,.824,1.4708,7.50038,7.50038,0,0,0,1.2623,1.1669,14.32739,14.32739,0,0,0,1.58,1.041l-1.1933,1.6366a8.82923,8.82923,0,0,1-1.3118-.7454c-.3574-.2534-.7097-.5307-1.0542-.8286-.3443-.3137-.6509-.6215-.924-.9194a6.93986,6.93986,0,0,1-.6471-.8181,3.75861,3.75861,0,0,1-.4667.745,12.44264,12.44264,0,0,1-.8041.9522,12.8389,12.8389,0,0,1-1.1627,1.0938,10.47655,10.47655,0,0,1-1.4205.9726L78.5428,14.796a12.04949,12.04949,0,0,0,1.5812-1.1687,7.86121,7.86121,0,0,0,1.3205-1.4299,6.6423,6.6423,0,0,0,.7872-1.5744,5.35738,5.35738,0,0,0,.3281-1.8004V7.8011Zm6.0865,9.7942v3.9259h8.1492v1.9835H83.1361V17.5953ZM90.8907,5.0399h2.3059V18.5358H90.8907V11.2954H87.4692V9.3549h3.4215Z"/>
            <path class="cls-6" d="M96.3568,16.2239V14.2834h16.4221v1.9405h-6.6785v3.4155h-2.4076V16.2239Zm5.3285,1.3304v3.9266h8.3508V23.464H99.2799V17.5543Zm7.973-11.943v7.0148H99.3579V5.6113Zm-7.973,5.1131h5.5869V7.5134h-5.5869Z"/>
            <path class="cls-6" d="M122.5407,15.5512a11.52114,11.52114,0,0,1-2.4245.4497c-.9277.081-1.6977.1217-2.3051.1217l-2.587.0204V6.0629h6.483V8.087h-4.197v6.0932l.5571.0203a17.55861,17.55861,0,0,0,2.1673-.113,15.00637,15.00637,0,0,0,2.3062-.3977Zm4.573-10.4702h2.2659V21.1099h-2.2659V12.1974h-1.6309v8.4447h-2.1843V5.3665h2.1843V10.031h1.6309Z"/>
            <path class="cls-6" d="M142.7201,6.5736V8.4957h-2.1477a4.37131,4.37131,0,0,1,.8354,1.2264,3.51867,3.51867,0,0,1,.3187,1.472,4.04548,4.04548,0,0,1-1.2634,2.9861,4.44158,4.44158,0,0,1-6.1733,0,4.07089,4.07089,0,0,1-1.2513-2.9861,3.60327,3.60327,0,0,1,.3066-1.472,4.42578,4.42578,0,0,1,.8061-1.2264h-2.1673V6.5736h4.1748V4.5091h2.4852V6.5736Zm-3.8969,2.8825a1.86511,1.86511,0,0,0-2.904,0,2.34512,2.34512,0,0,0-.6539,1.6551,2.31594,2.31594,0,0,0,.6539,1.6366,1.86074,1.86074,0,0,0,2.904,0,2.29523,2.29523,0,0,0,.6553-1.6366A2.32422,2.32422,0,0,0,138.8232,9.4561Zm-2.6238,7.4021H146.299v6.8307h-2.3254V18.7803h-7.7742Zm12.6059-6.9726V11.889H146.299v3.9887h-2.3058V5.0606h2.3058v4.825Z"/>
            <path class="cls-6" d="M153.9723,11.7877h2.1688v5.0705h1.9284V11.7877h2.1673v5.0705h6.1628v1.985H149.9971v-1.985h3.9752Zm7.2378,3.5594q.23955-1.7385.3781-3.7033c.0904-1.3085.1274-2.5281.1002-3.6603h-8.7888V6.0007h11.1128q0,2.10795-.1484,4.7237-.14685,2.61585-.4075,4.6227Z"/>
            <path class="cls-6" d="M167.8106,15.6529V13.7297h16.6226v1.9232h-4.7933v1.9424h1.6904v6.2168h-2.3247V19.5378h-8.3317V17.5953h2.1659V15.6529Zm11.5016-9.9381a4.157,4.157,0,0,1-.0106,6.0932,4.723,4.723,0,0,1-6.44,0,4.044,4.044,0,0,1-1.3334-3.0464,4.06722,4.06722,0,0,1,1.3236-3.0468,4.74815,4.74815,0,0,1,6.4604,0Zm-4.8506,4.744a2.23738,2.23738,0,0,0,3.2408,0,2.325,2.325,0,0,0,.6854-1.6972,2.29518,2.29518,0,0,0-.6854-1.6757,2.23317,2.23317,0,0,0-3.2408,0,2.29664,2.29664,0,0,0-.687,1.6757A2.32644,2.32644,0,0,0,174.4616,10.4588Zm.7051,7.1365h2.1484V15.6529h-2.1484Z"/>
            <path class="cls-6" d="M196.5977,6.4297V8.3522h-1.9473a4.04678,4.04678,0,0,1,.7239,1.1363,3.31532,3.31532,0,0,1,.2704,1.3395,3.91484,3.91484,0,0,1-1.2723,2.9341,4.608,4.608,0,0,1-6.2336,0,3.93094,3.93094,0,0,1-1.2611-2.9341,3.31487,3.31487,0,0,1,.2697-1.3395,4.28952,4.28952,0,0,1,.7051-1.1363h-1.9887V6.4297h4.174V4.4263h2.4859V6.4297Zm-3.8758,2.6901a1.91164,1.91164,0,0,0-2.9319,0,2.29254,2.29254,0,0,0,0,3.231,1.91092,1.91092,0,0,0,2.9319,0,2.31312,2.31312,0,0,0,0-3.231Zm.1793,6.9199v1.8009h5.1481V16.0397h2.32629v7.465H190.5757v-7.465Zm0,3.6826v1.86h5.1481v-1.86Zm5.34849-14.6824h2.30661V15.3041h-2.30661V13.5663H195.9822V11.727h2.26749V10.4995h-2.226V8.6603h2.226Z"/>
            <path class="cls-6" d="M215.508,17.3505q-1.15245.1599-3.5714.3258-2.41365.1644-4.3428.1845l-3.42.0204V15.9791h2.7239q2.008,0,4.6125-.1627,2.60235-.16335,3.9978-.3277Zm-8.9583-10.5923a4.45929,4.45929,0,0,1,6.312,0,4.366,4.366,0,0,1,1.2934,3.188,4.34872,4.34872,0,0,1-1.2934,3.1704,4.45953,4.45953,0,0,1-6.312,0,4.36444,4.36444,0,0,1-1.28439-3.1704A4.38188,4.38188,0,0,1,206.54969,6.7582Zm4.6728,1.3789a1.96473,1.96473,0,0,0-1.5217-.745,1.93538,1.93538,0,0,0-1.5104.745,2.69782,2.69782,0,0,0-.6373,1.8091,2.66156,2.66156,0,0,0,.6373,1.8015,1.93491,1.93491,0,0,0,1.5104.7372,1.96435,1.96435,0,0,0,1.5217-.7372,2.638,2.638,0,0,0,.64481-1.8015A2.67371,2.67371,0,0,0,211.22249,8.1371Zm4.9191-3.0765h2.327V20.9683h-2.327Z"/>
            <path class="cls-6" d="M232.24519,6.4904V8.4147h-1.8073a3.77554,3.77554,0,0,1,1.1127,2.6784,3.97114,3.97114,0,0,1-.7564,2.3798,3.88034,3.88034,0,0,1-1.9864,1.4628v1.2701q1.35135-.0852,2.5823-.1864c.8219-.0671,1.49921-.1277,2.028-.1842v1.8633c-.7661.1074-1.9549.2189-3.5572.3266q-2.40675.1638-4.3549.1823l-3.57969.0219V16.3252h3.67079c.2713,0,.553-.0041.8446-.0184V15.0187a3.83454,3.83454,0,0,1-2.1779-1.4118,3.96542,3.96542,0,0,1-.8467-2.5138,3.70938,3.70938,0,0,1,.2998-1.4727,3.93967,3.93967,0,0,1,.7963-1.2057h-1.9104V6.4904h3.7394V4.4873h2.3842V6.4904Zm-3.4095,3.0268a1.77144,1.77144,0,0,0-2.7127,0,2.097,2.097,0,0,0-.617,1.5149,2.06586,2.06586,0,0,0,.617,1.4908,1.76732,1.76732,0,0,0,2.7127,0,2.08139,2.08139,0,0,0,.6079-1.4908A2.113,2.113,0,0,0,228.83569,9.5172Zm5.2385-4.4362h2.287V20.9073h-2.287Z"/>
          </g>
        </g>
      </g>
    </g>
  </g>
</svg>
