<?xml version="1.0" encoding="utf-8"?>
<!-- Generator: Adobe Illustrator 24.2.0, SVG Export Plug-In . SVG Version: 6.00 Build 0)  -->
<svg version="1.1" id="Layer_1" xmlns="http://www.w3.org/2000/svg" xmlns:xlink="http://www.w3.org/1999/xlink" x="0px" y="0px"
	 viewBox="0 0 360.7 232.8" style="enable-background:new 0 0 360.7 232.8;" xml:space="preserve">
<style type="text/css">
	.st0{fill:#FFFFFF;}
	.st1{fill:#FDD000;}
	.st2{fill:#E96854;}
	.st3{fill:#D14232;}
</style>
<g id="Layer_2_1_">
	<g id="레이어_1">
		<path class="st0" d="M7.9,216.4c-1.7,2.5-3.8,4.5-6.4,6.1L0,220.3c2-1.3,3.8-3,5.2-4.9c1.1-1.6,1.7-3.6,1.7-5.6v-0.3H1.1V207h14.5
			v2.6H9.7v0.3c0,1.4-0.2,2.8-0.6,4.1l7.6,5.9l-1.6,2.3L7.9,216.4z M7.9,224v5.8h16.1v2.6H5V224L7.9,224z M14.6,215.1v-2.5h5.3v-7.1
			h2.9v20.2h-2.9v-10.6L14.6,215.1z"/>
		<path class="st0" d="M27.2,222.2v-2.7h25.3v2.7H41.3v4.8h-2.9v-4.8L27.2,222.2z M30.5,224.7h2.9v5.1h16.5v2.7H30.5V224.7z
			 M30.6,206.1h18.6v10.6H30.6V206.1z M33.5,214.2h12.8v-5.5H33.5V214.2z"/>
		<path class="st0" d="M59.9,225.5c2.4,0,4.9-0.2,7.3-0.6l0.3,2.6c-2.6,0.4-5.3,0.6-8,0.6h-3.7v-20.6h10.1v2.7h-7.2v15.3H59.9z
			 M75.5,215.7v-10.1h2.8v26.9h-2.8v-14.2H72v13.6h-2.7v-26H72v9.7H75.5z"/>
		<path class="st0" d="M91.7,208h6.4v2.4H82.3V208h6.4v-2.8h2.9V208z M96.9,216.7c0,1.4-0.7,2.7-1.9,3.4c-3,1.6-6.6,1.6-9.6,0
			c-1.2-0.7-1.9-2-1.9-3.4v-0.4c0-1.4,0.7-2.7,1.9-3.4c3-1.6,6.6-1.6,9.6,0c1.2,0.7,1.9,2,1.9,3.4V216.7z M101,225.9H86.3v-2.6h17.5
			v9.5H101L101,225.9z M86.4,216.7c0,0.7,0.4,1.3,1.1,1.6c1.7,0.8,3.8,0.8,5.5,0c0.6-0.3,1.1-0.9,1.1-1.6v-0.3
			c0-0.7-0.4-1.4-1.1-1.7c-1.7-0.8-3.8-0.8-5.5,0c-0.7,0.3-1.1,0.9-1.1,1.7V216.7z M103.9,212.3h4.2v2.6h-4.2v6.6H101v-16h2.9V212.3
			z"/>
		<path class="st0" d="M125.3,216.3c-1.7,2.6-4,4.7-6.6,6.2l-1.5-2.3c2.1-1.3,3.9-2.9,5.4-4.9c1.1-1.6,1.7-3.6,1.7-5.6v-0.2h-6V207
			h15v2.6h-6.1v0.2c0,1.4-0.2,2.8-0.6,4.1l7.8,5.8l-1.6,2.3L125.3,216.3z M125.1,224v5.8h16.1v2.6h-19V224L125.1,224z M137.1,205.5
			h2.9v20.2h-2.9V205.5z"/>
		<path class="st0" d="M158.6,222.8v5.1h11.2v2.7h-25.3v-2.7h11.2v-5.1h-8.1v-9h16.2v-3.8h-16.4v-2.6h19.3v9h-16.2v3.9h16.8v2.6
			H158.6z"/>
		<path class="st0" d="M180.4,216.3c-1.7,2.6-4,4.7-6.6,6.2l-1.5-2.3c2.1-1.3,3.9-2.9,5.4-4.9c1.1-1.6,1.7-3.6,1.7-5.6v-0.2h-6V207
			h15v2.6h-6.1v0.2c0,1.4-0.2,2.8-0.6,4.1l7.8,5.8l-1.6,2.3L180.4,216.3z M180.1,224v5.8h16.1v2.6h-19V224L180.1,224z M192.2,205.5
			h2.9v20.2h-2.9V205.5z"/>
		<path class="st0" d="M208.9,208h6.4v2.4h-15.8V208h6.4v-2.8h2.9V208z M214.1,216.7c0,1.4-0.7,2.7-1.9,3.4c-3,1.6-6.6,1.6-9.6,0
			c-1.2-0.7-1.9-2-1.9-3.4v-0.4c0-1.4,0.7-2.7,1.9-3.4c3-1.6,6.6-1.6,9.6,0c1.2,0.7,1.9,2,1.9,3.4V216.7z M218.2,225.9h-14.6v-2.6
			h17.5v9.5h-2.9L218.2,225.9z M203.7,216.7c0,0.7,0.4,1.3,1.1,1.6c1.7,0.8,3.8,0.8,5.5,0c0.6-0.3,1.1-0.9,1.1-1.6v-0.3
			c0-0.7-0.4-1.4-1.1-1.7c-1.7-0.8-3.8-0.8-5.5,0c-0.7,0.3-1.1,0.9-1.1,1.7V216.7z M221.1,212.3h4.2v2.6h-4.2v6.6h-2.9v-16h2.9
			L221.1,212.3z"/>
		<path class="st0" d="M241.1,217.7v2.1h11.2v2.4H227v-2.4h11.2v-2.1h-7.9v-11.6H249v2.4h-15.7v2.2H249v2.4h-15.7v2.3h16.2v2.4
			H241.1z M242.8,224.1c1.7-0.1,3.4,0.3,4.9,1.2c1.1,0.7,1.8,1.9,1.7,3.2c0,1.3-0.6,2.5-1.7,3.2c-1.5,0.9-3.2,1.3-4.9,1.2h-6.3
			c-1.7,0.1-3.4-0.3-4.9-1.2c-1.1-0.7-1.8-1.9-1.7-3.2c0-1.3,0.6-2.5,1.7-3.2c1.5-0.9,3.2-1.3,4.9-1.2H242.8z M242.2,230.4
			c3,0,4.4-0.7,4.4-2c0-1.3-1.5-2-4.4-2h-5c-3,0-4.4,0.7-4.4,2c0,1.3,1.5,2,4.4,2H242.2z"/>
		<path class="st0" d="M264,207.9h6.4v2.4h-15.8v-2.4h6.4v-2.6h2.9L264,207.9z M269.2,216.2c0,1.3-0.7,2.6-1.9,3.2
			c-3,1.5-6.6,1.5-9.6,0c-1.2-0.6-1.9-1.9-1.9-3.2v-0.3c0-1.3,0.7-2.6,1.9-3.2c3-1.5,6.6-1.5,9.6,0c1.2,0.6,1.9,1.9,1.9,3.2
			L269.2,216.2z M258.7,216.2c0,0.7,0.4,1.3,1.1,1.5c1.8,0.7,3.7,0.7,5.5,0c0.6-0.2,1.1-0.8,1.1-1.5v-0.2c0-0.7-0.5-1.3-1.1-1.5
			c-1.7-0.8-3.7-0.8-5.5,0c-0.6,0.2-1.1,0.8-1.1,1.5L258.7,216.2z M261.8,224.6h11.5v-2.7h2.9v10.6h-17.3v-10.6h2.9V224.6z
			 M261.8,227.1v2.8h11.5v-2.8H261.8z M276.1,211.7h4.2v2.6h-4.2v6.1h-2.9v-14.9h2.9V211.7z"/>
		<path class="st0" d="M292,210.6c0,2.2-0.3,4.4-0.8,6.5l8,9.6l-2.2,1.9l-6.9-8.3c-1.5,3.2-3.5,6.1-6,8.6l-2-1.9
			c2.3-2.2,4.1-4.8,5.4-7.6c1.2-2.7,1.8-5.7,1.7-8.7v-3.5h2.8L292,210.6z M302.3,232.5v-26.9h2.9v26.9H302.3z"/>
		<path class="st0" d="M309.6,230.4v-2.6h25.3v2.6H309.6z M321.7,215.4c-1.9,2.6-5.1,4.9-9.5,7l-1.3-2.5c2.8-1.2,5.4-3,7.6-5.2
			c1.5-1.5,2.4-3.6,2.4-5.7v-2.1h2.9v2.1c0,1.3-0.3,2.7-0.8,3.9l10.5,7l-1.6,2.4L321.7,215.4z"/>
		<path class="st0" d="M350,219.3c-1.2,0.2-2.4,0.4-3.7,0.5c-1.3,0.1-2.7,0.2-4.4,0.2h-4.1v-13.2h10.4v2.5h-7.6v2.7h7.3v2.5h-7.3v3
			h1.8c2.4,0,4.8-0.2,7.2-0.6L350,219.3z M360.6,232.5h-18v-10.1h18V232.5z M357.7,224.9h-12.2v5h12.2V224.9z M354.9,220.7h-2.7
			v-6.9H349v-2.5h3.2v-5.4h2.7V220.7z M357.9,220.7v-15.1h2.8v15.1L357.9,220.7z"/>
		<path class="st0" d="M45.3,91.9h8.7v7.5c0,4.7,3.8,8.6,8.6,8.6s8.6-3.8,8.6-8.6V83.3c0-4.7-3.8-8.6-8.6-8.6H45.3
			c-4.7,0-8.6,3.8-8.6,8.6C36.7,88.1,40.5,91.9,45.3,91.9L45.3,91.9z"/>
		<path class="st0" d="M16.1,91.9v7.5c0,4.7,3.8,8.6,8.6,8.6s8.6-3.8,8.6-8.6c0,0,0,0,0,0V83.3c0-4.7-3.8-8.6-8.6-8.6H8.6
			c-4.7,0-8.6,3.8-8.6,8.6c0,4.7,3.8,8.6,8.6,8.6L16.1,91.9z"/>
		<path class="st0" d="M121.3,108h8.7v7.5c0,4.7,3.8,8.6,8.6,8.6c4.7,0,8.6-3.8,8.6-8.6c0,0,0,0,0,0V99.4c0-4.7-3.8-8.6-8.6-8.6
			h-17.2c-4.7,0-8.6,3.8-8.6,8.6C112.7,104.2,116.5,108,121.3,108L121.3,108z"/>
		<path class="st0" d="M92.1,108v7.5c0,4.7,3.8,8.6,8.6,8.6s8.6-3.8,8.6-8.6V99.4c0-4.7-3.8-8.6-8.6-8.6H84.6
			c-4.7,0-8.6,3.8-8.6,8.6c0,4.7,3.8,8.6,8.6,8.6H92.1z"/>
		<path class="st0" d="M64.1,111.9h-55c-4.7,0-8.6,3.8-8.6,8.6c0,4.7,3.8,8.6,8.6,8.6h18.9v4.7h-5.8c-4.7,0-8.6,3.8-8.6,8.6v7.8
			c0,11.6,9,19.1,23,19.1c14,0,23-7.5,23-19.1v-7.8c0-4.7-3.8-8.6-8.6-8.6h-5.8v-4.7h18.9c4.7,0,8.6-3.8,8.6-8.6
			C72.7,115.8,68.9,111.9,64.1,111.9z M42.5,150.2c0,3.2-2.6,4.5-5.8,4.5c-3.2,0-5.8-1.2-5.8-4.5v-3.1h11.7V150.2z"/>
		<path class="st0" d="M138.4,128.9h-55c-4.7,0-8.6,3.8-8.6,8.6s3.8,8.6,8.6,8.6h18.9V158c0,4.7,3.8,8.6,8.6,8.6
			c4.7,0,8.6-3.8,8.6-8.6l0,0v-11.9h18.9c4.7,0,8.6-3.8,8.6-8.6S143.1,128.9,138.4,128.9L138.4,128.9L138.4,128.9z"/>
		<path class="st1" d="M266,46.7l-6-6.9l2-9.3c0.2-0.9-0.4-1.7-1.2-1.9c-0.3-0.1-0.7,0-1,0.1l-8.5,4.1l-5.5-3.2l-2.7-1.6
			c-0.8-0.4-1.7-0.2-2.2,0.6c-0.2,0.3-0.2,0.7-0.2,1l0.8,5.9C201.4,24.1,159,43,140.9,80.4c-0.5,1-0.1,2.3,1,2.8
			c1,0.5,2.3,0.1,2.8-1C162,46.4,202.8,28.4,241,39.8l-6.2,5.6c-0.7,0.6-0.7,1.6-0.1,2.3c0.2,0.3,0.5,0.4,0.9,0.5l9.3,1.7l2.6,5.5
			l1.3,2.8c0.4,0.8,1.3,1.1,2.1,0.8c0.3-0.1,0.5-0.4,0.7-0.7l4.4-7.9l8.9-1c0.9-0.1,1.5-0.9,1.4-1.8C266.3,47.3,266.2,47,266,46.7
			L266,46.7z"/>
		<path class="st1" d="M273.2,22.1c0.4,0,0.8-0.3,1-0.6l2.9-6.1l4.3-0.8l0,0l2.1-0.4c0.6-0.1,1-0.7,0.9-1.3c0-0.2-0.2-0.4-0.3-0.6
			l-4.6-4.4l1-6.3c0.1-0.6-0.3-1.2-0.9-1.3c-0.2,0-0.5,0-0.7,0.1L273,3.2l-6-3.1c-0.6-0.3-1.2-0.1-1.5,0.5c-0.1,0.2-0.2,0.5-0.1,0.7
			l1.2,6.6l-3.2,3.2l0,0l-1.6,1.6c-0.4,0.4-0.4,1.2,0,1.6c0.2,0.2,0.4,0.3,0.7,0.3l6.6,0.9l3,6C272.4,21.8,272.8,22.1,273.2,22.1z"
			/>
		<path class="st1" d="M285.7,42.7c0.2,0,0.4-0.1,0.5-0.3l1.4-2.9l2.1-0.4l0,0l1-0.2c0.3-0.1,0.5-0.3,0.4-0.6c0,0,0-0.1,0-0.1
			c0-0.1-0.1-0.2-0.1-0.2l-2.2-2.2l0.5-3.1c0-0.3-0.2-0.6-0.5-0.6c-0.1,0-0.2,0-0.3,0.1l-2.8,1.4l-2.9-1.5c-0.3-0.1-0.6,0-0.7,0.2
			c-0.1,0.1-0.1,0.2-0.1,0.4l0.6,3.2l-1.5,1.5l0,0l-0.8,0.8c-0.2,0.2-0.2,0.6,0,0.8c0.1,0.1,0.2,0.1,0.3,0.2l3.2,0.4l1.5,2.9
			C285.3,42.6,285.5,42.7,285.7,42.7z"/>
		<path class="st1" d="M301.2,59.7c-27.5,0.1-51.3,18.9-57.7,45.7h0.6c2-1.9,4.7-3,7.5-3c3.3,0,6.4,1.5,8.5,3.9
			c2.2-2.4,5.3-3.8,8.5-3.9c4.4,0,9,2.5,11.3,8.8c4.4-11.7,17.5-17.7,29.3-13.2c11.7,4.4,17.7,17.5,13.2,29.3s-17.5,17.7-29.3,13.2
			c-5.4-2-9.8-6-12.3-11.2c-1.4,8.3-4.4,16.2-9,23.2c-0.1,0.1-5.7,8.4-9.5,11.4c24.7,21.5,62.2,18.9,83.7-5.9
			c21.5-24.7,18.9-62.2-5.9-83.7C329.4,64.9,315.6,59.7,301.2,59.7L301.2,59.7z"/>
		<path class="st2" d="M238.7,120.8c0-7.8,2.3-12.7,5.4-15.4h-0.6l0,0h-24.4c-7.6,0-13.7,6.2-13.7,13.8c0,7.6,6.2,13.7,13.7,13.7
			h18.1c-7.6,10-21.9,12-31.9,4.4c-10-7.6-12-21.9-4.4-31.9c4.3-5.7,11-9,18.1-9c10.1,0,18.3-8.2,18.3-18.3s-8.2-18.3-18.3-18.3
			c-32.8-0.1-59.5,26.4-59.6,59.2s26.4,59.5,59.2,59.6c14.4,0,28.4-5.1,39.2-14.6C255.1,161.4,238.7,145.2,238.7,120.8z"/>
		<path class="st3" d="M259.5,161.2c0.5,0.5,0.8,0.7,0.8,0.7v0c2.8-2.6,5.3-5.5,7.5-8.6c0.8-1.1,1.6-2.3,2.4-3.6
			c4.5-7.2,7.3-15.3,8.3-23.7c0.2-1.7,0.3-3.4,0.3-5.2c0,0,0,0,0-0.1c0-0.4,0-0.7-0.1-1c-0.3-10.3-5-14.4-9.8-14.4
			c-1.8,0-3.5,0.6-4.9,1.6c-1.6,1.2-2.9,2.9-3.6,4.8c-1.7-4.2-5.2-6.4-8.5-6.4c-1.3,0-2.5,0.3-3.6,0.8c-2,1.1-3.5,2.7-4.4,4.8
			c-1.3,3.1-1.9,6.4-1.8,9.8C241.9,142.7,256,157.8,259.5,161.2z"/>
	</g>
</g>
</svg>
