<svg xmlns="http://www.w3.org/2000/svg" viewBox="0 0 348.36719 224.8358"><defs><style>.cls-1{fill:#898989;}.cls-2{fill:#4d413c;}.cls-3{fill:#fdd000;}.cls-4{fill:#d14232;}.cls-5{fill:#e96854;}</style></defs><g id="Layer_2" data-name="Layer 2"><g id="레이어_1" data-name="레이어 1"><path class="cls-1" d="M7.6566,209.0468a19.83239,19.83239,0,0,1-6.1416,5.8614L0,212.7476a19.07468,19.07468,0,0,0,5.0331-4.7247,9.32486,9.32486,0,0,0,1.6125-5.3706v-.2526H1.0368v-2.4963H15.0882v2.4963H9.3942v.2526a12.55348,12.55348,0,0,1-.61589,3.9813l7.31879,5.6658-1.5702,2.1885Zm-.05729,7.3464v5.6106H23.1099v2.5515H4.7949v-8.1621Zm6.53459-8.5806v-2.4135H19.239v-6.8703h2.7768v19.4919H19.239V207.8126Z"/><path class="cls-1" d="M26.307,214.6553v-2.5809H50.7615v2.5809H39.9375v4.5996H37.1607v-4.5996Zm3.1401,2.3559h2.8041v4.9353H48.1824v2.6088H29.4471Zm.1125-17.9217H47.5092v10.2654H29.5596Zm2.8041,7.7694H44.7048v-5.3283H32.3637Z"/><path class="cls-1" d="M57.8571,217.7678a46.56081,46.56081,0,0,0,7.0404-.5334l.2805,2.4963a44.15823,44.15823,0,0,1-7.7142.5907H53.9034V200.4365H63.663v2.5791H56.7078v14.7522Zm15.0327-9.4515v-9.7875h2.721v26.0265h-2.721V210.8699H69.552v13.1523H66.9159V198.9218H69.552v9.3945Z"/><path class="cls-1" d="M88.5681,200.885h6.1968v2.3007H79.5369V200.885h6.1992v-2.6643h2.832Zm5.0475,8.4423a3.70866,3.70866,0,0,1-1.8078,3.2802,9.67311,9.67311,0,0,1-9.2562,0,3.70868,3.70868,0,0,1-1.8078-3.2802v-.3654a3.67822,3.67822,0,0,1,1.8078-3.2673,9.78044,9.78044,0,0,1,9.2562,0,3.6782,3.6782,0,0,1,1.8078,3.2673Zm3.8982,8.8608H83.3802v-2.5233h16.938v9.171H97.5138Zm-14.0232-8.8905a1.79118,1.79118,0,0,0,1.0536,1.5849,6.12326,6.12326,0,0,0,5.3007,0,1.79206,1.79206,0,0,0,1.0515-1.5849v-.2508a1.812,1.812,0,0,0-1.0515-1.6125,6.126,6.126,0,0,0-5.3007,0,1.81109,1.81109,0,0,0-1.0536,1.6125Zm16.8276-4.2342h4.0389v2.5239h-4.0389v6.4224H97.5138V198.5288h2.8044Z"/><path class="cls-1" d="M121.0719,208.9067a19.20675,19.20675,0,0,1-6.3945,6.0015l-1.4298-2.1882a19.04453,19.04453,0,0,0,5.1753-4.7247,9.20147,9.20147,0,0,0,1.66741-5.3706v-.225H114.2565v-2.4963h14.4441v2.4963h-5.8887v.225a12.15354,12.15354,0,0,1-.6183,3.9261l7.5162,5.6082-1.5147,2.1885Zm-.25259,7.4865v5.6106H136.3296v2.5515H118.0149v-8.1621Zm11.63939-17.8644h2.7768v19.4919h-2.7768Z"/><path class="cls-1" d="M153.1572,215.1611v4.8798h10.824V222.62H139.5267v-2.5791h10.854v-4.8798h-7.854v-8.6955H158.205v-3.6732H142.38631v-2.5239H161.0094v8.6658H145.3311v3.7581h16.2114v2.4687Z"/><path class="cls-1" d="M174.2448,208.9067a19.211,19.211,0,0,1-6.3948,6.0015l-1.4298-2.1882a19.04468,19.04468,0,0,0,5.1753-4.7247,9.20146,9.20146,0,0,0,1.6674-5.3706v-.225h-5.8338v-2.4963h14.4441v2.4963h-5.8887v.225a12.15354,12.15354,0,0,1-.6183,3.9261l7.5162,5.6082-1.5144,2.1885Zm-.2529,7.4865v5.6106h15.5103v2.5515H171.1875v-8.1621Zm11.6397-17.8644h2.7765v19.4919h-2.7765Z"/><path class="cls-1" d="M201.78569,200.885h6.1971v2.3007h-15.228V200.885h6.19889v-2.6643h2.832Zm5.0478,8.4423a3.709,3.709,0,0,1-1.8081,3.2802,9.6725,9.6725,0,0,1-9.25589,0,3.709,3.709,0,0,1-1.8081-3.2802v-.3654a3.67849,3.67849,0,0,1,1.8081-3.2673,9.77982,9.77982,0,0,1,9.25589,0,3.67849,3.67849,0,0,1,1.8081,3.2673Zm3.8982,8.8608H196.5978v-2.5233h16.93829v9.171h-2.8044Zm-14.02349-8.8905a1.791,1.791,0,0,0,1.0539,1.5849,6.12258,6.12258,0,0,0,5.30039,0,1.79241,1.79241,0,0,0,1.05182-1.5849v-.2508a1.81237,1.81237,0,0,0-1.05182-1.6125,6.12532,6.12532,0,0,0-5.30039,0,1.81086,1.81086,0,0,0-1.0539,1.6125Zm16.82789-4.2342h4.0386v2.5239h-4.0386v6.4224h-2.8044V198.5288h2.8044Z"/><path class="cls-1" d="M232.91731,210.3089v2.0181h10.824v2.2731H219.28679V212.327h10.8537v-2.0181h-7.6008V199.0895H240.489v2.3007h-15.1455v2.1036H240.489v2.271h-15.1455v2.2434h15.6783v2.3007Zm1.653,6.1416a8.40093,8.40093,0,0,1,4.76938,1.1493,3.53977,3.53977,0,0,1,1.6821,3.057,3.49521,3.49521,0,0,1-1.6821,3.0573,8.5697,8.5697,0,0,1-4.76938,1.1217h-6.11222a8.5625,8.5625,0,0,1-4.7691-1.1217,3.49579,3.49579,0,0,1-1.68268-3.0573,3.54038,3.54038,0,0,1,1.68268-3.057,8.39391,8.39391,0,0,1,4.7691-1.1493Zm-.61622,6.0867q4.29255,0,4.2915-1.908,0-1.90845-4.2915-1.9077h-4.8522q-4.28985,0-4.2915,1.9077,0,1.90575,4.2915,1.908Z"/><path class="cls-1" d="M254.96069,200.7722h6.1968v2.2731h-15.228v-2.2731h6.1992v-2.5515h2.832Zm5.0472,8.0772a3.45246,3.45246,0,0,1-1.8078,3.1146,10.35521,10.35521,0,0,1-9.2559,0,3.45331,3.45331,0,0,1-1.8081-3.1146v-.3354a3.45311,3.45311,0,0,1,1.8081-3.1149,10.38262,10.38262,0,0,1,9.2688,0,3.45693,3.45693,0,0,1,1.7949,3.1149Zm-10.1247-.0555a1.61845,1.61845,0,0,0,1.0386,1.4577,6.88849,6.88849,0,0,0,5.3157,0,1.61947,1.61947,0,0,0,1.0515-1.4577v-.225a1.662,1.662,0,0,0-1.0665-1.4571,6.50565,6.50565,0,0,0-5.2857,0,1.65727,1.65727,0,0,0-1.0536,1.4571Zm2.9463,8.1327h11.0769v-2.6364h2.8044v10.2651H250.02331V214.2902h2.80618Zm0,2.4411v2.7189h11.0769v-2.7189Zm13.8813-14.865h4.0386v2.5515h-4.0386v5.8911h-2.8044V198.5288h2.8044Z"/><path class="cls-1" d="M282.05339,203.4365a24.32827,24.32827,0,0,1-.786,6.282l7.7115,9.2283-2.103,1.7949-6.6474-8.0217a26.96318,26.96318,0,0,1-5.8314,8.3025l-1.9653-1.8801a25.01091,25.01091,0,0,0,5.2326-7.3335,20.36481,20.36481,0,0,0,1.6674-8.3724v-3.3927h2.7216Zm9.9,21.1188V198.5288h2.8044v26.0265Z"/><path class="cls-1" d="M299.049,222.5924v-2.5515h24.4545v2.5515Zm11.7225-14.5566q-2.74995,3.7602-9.171,6.732l-1.2897-2.4132a23.84944,23.84944,0,0,0,7.3761-4.9776,8.07971,8.07971,0,0,0,2.3262-5.5107v-1.9905h2.8065v1.9905a9.949,9.949,0,0,1-.7308,3.7857l10.1526,6.7875-1.5147,2.3283Z"/><path class="cls-1" d="M338.11531,211.8512a33.7666,33.7666,0,0,1-3.56042.4905q-1.8261.153-4.2639.153h-3.9261V199.7633h10.0125v2.4408h-7.2933v2.6346h7.068v2.3856h-7.068v2.8593h1.7403a48.75093,48.75093,0,0,0,6.9828-.5607Zm10.23748,12.7041h-17.3607v-9.7875h17.3607Zm-2.8041-7.3209h-11.7801v4.8246h11.7801Zm-2.7765-4.0935h-2.5815V206.438H337.134v-2.4111h3.0567v-5.2452h2.5815Zm2.9166,0V198.5288h2.664v14.6121Z"/><path class="cls-2" d="M43.7322,88.772h8.3772v7.28191a8.28165,8.28165,0,1,0,16.5633,0V80.48841a8.29259,8.29259,0,0,0-8.2815-8.2833H43.7322a8.28345,8.28345,0,0,0,0,16.56689Z"/><path class="cls-2" d="M15.5655,88.772v7.28191a8.28241,8.28241,0,1,0,16.56481,0V80.48841a8.29279,8.29279,0,0,0-8.28331-8.2833H8.2818a8.28345,8.28345,0,0,0,0,16.56689Z"/><path class="cls-2" d="M117.129,104.33721h8.3772v7.2819a8.2818,8.2818,0,1,0,16.5636,0V96.05391a8.29272,8.29272,0,0,0-8.2818-8.2836H117.129a8.28345,8.28345,0,0,0,0,16.5669Z"/><path class="cls-2" d="M88.96231,104.33721v7.2819a8.2824,8.2824,0,1,0,16.56479,0V96.05391a8.29284,8.29284,0,0,0-8.2833-8.2836H81.6786a8.28345,8.28345,0,0,0,0,16.5669Z"/><path class="cls-2" d="M61.95,108.13251H8.8575a8.28165,8.28165,0,1,0,0,16.5633H27.1218V129.23h-5.631a8.29266,8.29266,0,0,0-8.2818,8.28331v7.5783c0,11.2338,8.7117,18.49019,22.1946,18.49019,13.4826,0,22.1946-7.25639,22.1946-18.49019v-7.5783A8.29246,8.29246,0,0,0,49.3164,129.23H43.6872v-4.53419H61.95a8.28165,8.28165,0,0,0,0-16.5633Zm-20.9166,36.9591c0,3.1059-2.5257,4.3089-5.6298,4.3089-3.1056,0-5.63129-1.203-5.63129-4.3089v-2.9973H41.0334Z"/><path class="cls-2" d="M133.6617,124.54581H80.5689a8.2833,8.2833,0,1,0,0,16.5666H98.8335v11.4687a8.2818,8.2818,0,1,0,16.5636,0v-11.4687h18.2646a8.2833,8.2833,0,0,0,0-16.5666Z"/><path class="cls-3" d="M256.90859,45.11811l-5.8377-6.6564,1.9131-8.9556a1.53941,1.53941,0,0,0-2.1651-1.71511L242.58,31.70571l-5.2908-3.0642-2.6052-1.5012a1.53723,1.53723,0,0,0-2.2968,1.5309l.7434,5.7252a82.37724,82.37724,0,0,0-97.02419,43.2822,1.99613,1.99613,0,0,0,3.5937,1.7388,78.4308,78.4308,0,0,1,93.06059-40.9806l-5.9832,5.379a1.54016,1.54016,0,0,0,.7467,2.6559l8.997,1.6809,2.553,5.3226,1.2786,2.6574a1.5391,1.5391,0,0,0,2.7357.0819l4.2264-7.6311,8.5989-.9177a1.54136,1.54136,0,0,0,.9948-2.5476Z"/><path class="cls-3" d="M263.93219,21.31161a1.07706,1.07706,0,0,0,.972-.6204l2.7996-5.8644,4.1187-.7776h0l2.0571-.3903a1.0929,1.0929,0,0,0,.5568-1.8618l-4.4613-4.296.9441-6.0669a1.095,1.095,0,0,0-1.566-1.149l-5.6343,2.7867L257.92531.12051A1.09348,1.09348,0,0,0,256.35209,1.292l1.1784,6.36841-3.0708,3.069h0l-1.5063,1.51259a1.0915,1.0915,0,0,0,.6294,1.85551l6.4209.8496,2.9418,5.7696A1.08432,1.08432,0,0,0,263.93219,21.31161Z"/><path class="cls-3" d="M275.92469,41.28891a.5242.5242,0,0,0,.4722-.3018l1.3596-2.8485,2.0007-.3777h0l.9993-.1896a.53176.53176,0,0,0,.4047-.6936.54224.54224,0,0,0-.1341-.2106l-2.1672-2.0868.45842-2.9469a.53139.53139,0,0,0-.76022-.558l-2.7369,1.35359-2.8146-1.43339a.53036.53036,0,0,0-.7635.5688l.5718,3.0933-1.4913,1.4904h0l-.7317.735a.53012.53012,0,0,0,.306.9015l3.1185.4125,1.4292,2.8026A.527.527,0,0,0,275.92469,41.28891Z"/><path class="cls-3" d="M290.97749,57.66951a57.48543,57.48543,0,0,0-55.7724,44.1057h7.8384c3.2529,0,6.594,2.1387,8.247,6.2082,1.6524-4.0695,4.9935-6.2082,8.2464-6.2082,4.6365,0,9.17642,3.9207,9.4818,13.902-.0057-.207-.0315-.40921-.0315-.6177a22.27386,22.27386,0,1,1,.0864,1.698c-.0336,24.1647-17.784,39.6477-17.784,39.6477h0l-.0021.0021a57.35859,57.35859,0,1,0,39.69-98.7378Z"/><path class="cls-4" d="M277.56239,115.04151c0-.0219-.00208-.0438-.00208-.0663,0,.027-.00812.0516-.00812.078,0,.0231.0066.0441.0066.0663C277.55879,115.09371,277.56239,115.06791,277.56239,115.04151Z"/><path class="cls-5" d="M251.28959,156.40521c-.0021-.0018-17.7861-15.5124-17.7861-39.7143,0-10.7796,4.7403-14.9157,9.54-14.9157h-7.8414l.0015-.0063H211.59331a13.2735,13.2735,0,1,0,0,26.547h17.49208a21.968,21.968,0,1,1-17.49208-35.2488,17.69835,17.69835,0,0,0,0-35.3967,57.38678,57.38678,0,1,0,39.69418,98.7369l.0021-.0021Z"/><path class="cls-4" d="M233.50349,116.69091c0,24.2019,17.784,39.7125,17.7861,39.7143h0s17.7504-15.483,17.784-39.6477c0-.0228.003-.0438.003-.0666,0-.3657-.0471-.6633-.0579-1.0137-.30538-9.9813-4.8453-13.902-9.4818-13.902-3.2529,0-6.594,2.1387-8.2464,6.2082-1.653-4.0695-4.9941-6.2082-8.247-6.2082h0C238.24379,101.77521,233.50349,105.91131,233.50349,116.69091Z"/></g></g></svg>