<svg xmlns="http://www.w3.org/2000/svg" viewBox="0 0 360.66179 232.77074"><defs><style>.cls-1{fill:#fff;}</style></defs><g id="Layer_2" data-name="Layer 2"><g id="레이어_1" data-name="레이어 1"><path class="cls-1" d="M7.9269,216.42464a20.53324,20.53324,0,0,1-6.35849,6.0681L0,220.25594a19.74283,19.74283,0,0,0,5.2107-4.8915,9.65238,9.65238,0,0,0,1.6695-5.5599v-.2616H1.07341v-2.5845H15.6207v2.5845H9.7257v.2616a12.997,12.997,0,0,1-.6375,4.1217l7.5771,5.8656-1.6257,2.2659Zm-.0594,7.6056v5.8086H23.9256v2.6415H4.9641v-8.4501Zm6.7653-8.8833v-2.4987h5.2851v-7.113h2.8749v20.1801H19.9179v-10.5684Z"/><path class="cls-1" d="M27.2355,222.23114V219.559H52.5531v2.6721H41.3469v4.7619H38.4723v-4.7619Zm3.2508,2.439h2.90311v5.1093H49.8828v2.7009H30.4863Zm.1164-18.5544H49.1859v10.6278H30.6027Zm2.9031,8.0436H46.2825v-5.5161H33.5058Z"/><path class="cls-1" d="M59.8989,225.45344a48.2077,48.2077,0,0,0,7.2891-.5523l.29041,2.5845a45.72729,45.72729,0,0,1-7.98661.6114H55.8057v-20.5866h10.104v2.67H58.7091v15.273Zm15.5634-9.7851v-10.1331h2.817v26.9451h-2.817v-14.1684H72.0066v13.6167H69.2775v-25.9863h2.7291v9.726Z"/><path class="cls-1" d="M91.6938,207.97484h6.4155v2.3817H82.344v-2.3817h6.4179v-2.7585h2.9319Zm5.2257,8.7402a3.83944,3.83944,0,0,1-1.8717,3.396,10.01605,10.01605,0,0,1-9.5829,0,3.83979,3.83979,0,0,1-1.8714-3.396v-.3783a3.80884,3.80884,0,0,1,1.8714-3.3828,10.12782,10.12782,0,0,1,9.5829,0,3.8085,3.8085,0,0,1,1.8717,3.3828Zm4.03591,9.1734H86.3229V223.276h17.5359v9.4947h-2.90339Zm-14.51821-9.2043a1.85412,1.85412,0,0,0,1.0908,1.641,6.33891,6.33891,0,0,0,5.4876,0,1.855,1.855,0,0,0,1.0887-1.641v-.2595a1.8759,1.8759,0,0,0-1.0887-1.6695,6.34165,6.34165,0,0,0-5.4876,0,1.875,1.875,0,0,0-1.0908,1.6695Zm17.4216-4.3836h4.1814v2.613h-4.1814v6.6492h-2.90339v-16.0275h2.90339Z"/><path class="cls-1" d="M125.3448,216.27944a19.88617,19.88617,0,0,1-6.6201,6.2133l-1.4802-2.2653a19.72185,19.72185,0,0,0,5.3577-4.8915,9.52568,9.52568,0,0,0,1.7265-5.5602v-.2328h-6.0399v-2.5845h14.9538v2.5845h-6.0963v.2328a12.58615,12.58615,0,0,1-.6402,4.0647l7.7814,5.8062-1.56809,2.2656Zm-.2616,7.7508v5.8086H141.141v2.6415H122.1798v-8.4501Zm12.0504-18.495h2.8746v20.1801h-2.8746Z"/><path class="cls-1" d="M158.5626,222.75464v5.052h11.2059v2.6703H144.4509v-2.6703H155.688v-5.052h-8.1312v-9.0024h16.2315v-3.8028h-16.377v-2.613h19.2804v8.9718H150.4602v3.8907h16.7835v2.5557Z"/><path class="cls-1" d="M180.3942,216.27944a19.88454,19.88454,0,0,1-6.6204,6.2133l-1.4802-2.2653a19.71925,19.71925,0,0,0,5.358-4.8915,9.52762,9.52762,0,0,0,1.7262-5.5602v-.2328h-6.0399v-2.5845H188.292v2.5845h-6.09659v.2328a12.57827,12.57827,0,0,1-.64021,4.0647l7.7814,5.8062-1.5678,2.2656Zm-.2616,7.7508v5.8086h16.0575v2.6415H177.2292v-8.4501Zm12.0504-18.495h2.8743v20.1801H192.183Z"/><path class="cls-1" d="M208.90709,207.97484h6.4158v2.3817h-15.7653v-2.3817h6.4176v-2.7585h2.9319Zm5.226,8.7402a3.83971,3.83971,0,0,1-1.872,3.396,10.01546,10.01546,0,0,1-9.5826,0,3.84006,3.84006,0,0,1-1.8717-3.396v-.3783a3.80911,3.80911,0,0,1,1.8717-3.3828,10.12722,10.12722,0,0,1,9.5826,0,3.80877,3.80877,0,0,1,1.872,3.3828Zm4.0359,9.1734h-14.6328V223.276h17.53622v9.4947H218.169Zm-14.5185-9.2043a1.85392,1.85392,0,0,0,1.0911,1.641,6.33825,6.33825,0,0,0,5.4873,0,1.85535,1.85535,0,0,0,1.089-1.641v-.2595a1.87623,1.87623,0,0,0-1.089-1.6695,6.341,6.341,0,0,0-5.4873,0,1.87474,1.87474,0,0,0-1.0911,1.6695Zm17.42192-4.3836h4.18108v2.613h-4.18108v6.6492H218.169v-16.0275h2.90342Z"/><path class="cls-1" d="M241.13759,217.73114v2.0895h11.2059v2.3532h-25.3176v-2.3532h11.2368v-2.0895h-7.869v-11.6154h18.5826v2.382h-15.6798v2.178h15.6798v2.3511h-15.6798v2.3226H249.528v2.3817Zm1.7112,6.3585a8.69784,8.69784,0,0,1,4.9377,1.1898,3.66462,3.66462,0,0,1,1.7415,3.165,3.61851,3.61851,0,0,1-1.7415,3.165,8.87191,8.87191,0,0,1-4.9377,1.1613h-6.3279a8.86468,8.86468,0,0,1-4.9374-1.1613,3.61905,3.61905,0,0,1-1.74208-3.165,3.66518,3.66518,0,0,1,1.74208-3.165,8.69079,8.69079,0,0,1,4.9374-1.1898Zm-.6378,6.3015q4.44375,0,4.4427-1.9755,0-1.9755-4.4427-1.9749h-5.0235q-4.4415,0-4.443,1.9749,0,1.97325,4.443,1.9755Z"/><path class="cls-1" d="M263.95889,207.85784h6.41552v2.3535H254.60879v-2.3535h6.4182v-2.6415h2.9319Zm5.2254,8.3625a3.5742,3.5742,0,0,1-1.8717,3.2244,10.72184,10.72184,0,0,1-9.5826,0,3.575,3.575,0,0,1-1.872-3.2244v-.3474a3.57485,3.57485,0,0,1,1.872-3.2247,10.74734,10.74734,0,0,1,9.5958,0,3.579,3.579,0,0,1,1.8585,3.2247Zm-10.4823-.0576a1.67571,1.67571,0,0,0,1.0755,1.5093,7.134,7.134,0,0,0,5.5032,0,1.67711,1.67711,0,0,0,1.08872-1.5093v-.2328a1.7206,1.7206,0,0,0-1.10432-1.5087,6.73537,6.73537,0,0,0-5.4723,0,1.71613,1.71613,0,0,0-1.0908,1.5087Zm3.05042,8.4198h11.46778v-2.7294h2.9034v10.6272h-17.2764v-10.6272h2.90522Zm0,2.5272v2.8149h11.46778v-2.8149ZM276.12359,211.72h4.1811v2.6415h-4.1811v6.099h-2.9034v-14.9253h2.9034Z"/><path class="cls-1" d="M292.00769,210.61634a25.1799,25.1799,0,0,1-.8139,6.5037l7.9839,9.5538-2.1774,1.8585-6.882-8.3049a27.916,27.916,0,0,1-6.0372,8.5956l-2.0346-1.9467a25.89668,25.89668,0,0,0,5.4174-7.5921,21.08754,21.08754,0,0,0,1.7262-8.6679v-3.5124h2.8176Zm10.2495,21.864v-26.9451h2.9034v26.9451Z"/><path class="cls-1" d="M309.603,230.44814v-2.6415h25.3176v2.6415Zm12.1362-15.0702q-2.84667,3.893-9.4947,6.9696l-1.335-2.4984a24.6827,24.6827,0,0,0,7.6362-5.1534,8.36392,8.36392,0,0,0,2.4084-5.7051v-2.0607h2.9055v2.0607a10.29474,10.29474,0,0,1-.7566,3.9192l10.5111,7.0272-1.5681,2.4105Z"/><path class="cls-1" d="M350.04809,219.328a34.97285,34.97285,0,0,1-3.6861.5076q-1.89045.1584-4.4142.1584h-4.0647v-13.1805H348.249v2.5269h-7.5507v2.7276h7.3173v2.4696h-7.3173v2.9604h1.8015a50.47159,50.47159,0,0,0,7.2294-.5805Zm10.5987,13.1523h-17.9733v-10.1328h17.9733Zm-2.9028-7.5792h-12.1959v4.995H357.744Zm-2.87458-4.2381h-2.67272v-6.9393h-3.1644v-2.4963h3.1644v-5.4303h2.67272Zm3.01948,0v-15.1278h2.7579V220.663Z"/><path class="cls-1" d="M45.2757,91.90514h8.67271v7.5387a8.574,8.574,0,1,0,17.148,0V83.329a8.58522,8.58522,0,0,0-8.574-8.5755H45.2757a8.5758,8.5758,0,0,0,0,17.1516Z"/><path class="cls-1" d="M16.1148,91.90514v7.5387a8.57475,8.57475,0,1,0,17.1495,0V83.329a8.5854,8.5854,0,0,0-8.5758-8.5755H8.574a8.5758,8.5758,0,0,0,0,17.1516Z"/><path class="cls-1" d="M121.2627,108.01964h8.673v7.5387a8.574,8.574,0,1,0,17.148,0V99.44384a8.58527,8.58527,0,0,0-8.574-8.5758h-17.247a8.5758,8.5758,0,0,0,0,17.1516Z"/><path class="cls-1" d="M92.1021,108.01964v7.5387a8.5746,8.5746,0,1,0,17.1492,0V99.44384a8.5854,8.5854,0,0,0-8.5755-8.5758H84.5613a8.5758,8.5758,0,0,0,0,17.1516Z"/><path class="cls-1" d="M64.13641,111.94874H9.1701a8.574,8.574,0,1,0,0,17.148h18.909v4.6941H22.2492a8.58527,8.58527,0,0,0-8.574,8.5758v7.8456c0,11.6304,9.01921,19.1427,22.9779,19.1427,13.9584,0,22.9779-7.5123,22.9779-19.1427v-7.8456a8.58508,8.58508,0,0,0-8.574-8.5758H45.2289v-4.6941H64.13641a8.574,8.574,0,0,0,0-17.148ZM42.4815,150.21224c0,3.2154-2.6148,4.461-5.8284,4.461-3.2151,0-5.8302-1.2456-5.8302-4.461v-3.1029H42.4815Z"/><path class="cls-1" d="M138.3789,128.94134H83.4123a8.57565,8.57565,0,0,0,0,17.1513h18.9093V157.966a8.574,8.574,0,1,0,17.148,0v-11.8734h18.9093a8.57565,8.57565,0,0,0,0-17.1513Z"/><path class="cls-1" d="M265.97549,46.71044l-6.0438-6.8913,1.9806-9.2715a1.59361,1.59361,0,0,0-2.2413-1.7757l-8.5299,4.0527-5.4774-3.1722-2.69728-1.5543a1.5915,1.5915,0,0,0-2.37782,1.5849l.76982,5.9274A85.284,85.284,0,0,0,140.91,80.42024a2.06644,2.06644,0,0,0,3.7203,1.8,81.19962,81.19962,0,0,1,96.345-42.4269l-6.1944,5.5689a1.5944,1.5944,0,0,0,.7731,2.7495l9.3147,1.7403,2.643,5.5104,1.3236,2.7513a1.59375,1.59375,0,0,0,2.8323.0849l4.3755-7.9005,8.9025-.9501a1.596,1.596,0,0,0,1.0299-2.6376Z"/><path class="cls-1" d="M273.24689,22.06394a1.11614,1.11614,0,0,0,1.00652-.6423l2.89828-6.0714,4.2639-.8052h0l2.1297-.4041a1.13163,1.13163,0,0,0,.5766-1.9275l-4.6188-4.4475.9774-6.2811a1.13363,1.13363,0,0,0-1.6212-1.1895l-5.8332,2.8851-5.9979-3.0555a1.13212,1.13212,0,0,0-1.629,1.2126l1.2201,6.5934-3.1791,3.1773h0l-1.5594,1.566a1.12995,1.12995,0,0,0,.65162,1.9209l6.64738.8796,3.04562,5.9733A1.12273,1.12273,0,0,0,273.24689,22.06394Z"/><path class="cls-1" d="M285.66269,42.74624a.543.543,0,0,0,.489-.3126l1.4073-2.949,2.0715-.3909h0l1.0344-.1965a.55012.55012,0,0,0,.4191-.7179.56228.56228,0,0,0-.1389-.2181l-2.24368-2.1606.47458-3.0507a.55019.55019,0,0,0-.7869-.5778l-2.8335,1.4013-2.9139-1.4838a.549.549,0,0,0-.7905.5889l.5919,3.2025-1.5438,1.5429h0l-.7575.7608a.54877.54877,0,0,0,.3168.9333l3.2283.4272,1.4799,2.9016A.54546.54546,0,0,0,285.66269,42.74624Z"/><path class="cls-1" d="M301.24679,59.70494a59.51435,59.51435,0,0,0-57.741,45.6624h.6111a11.21042,11.21042,0,0,1,7.5039-3.0141,11.70724,11.70724,0,0,1,8.538,3.8907,11.70722,11.70722,0,0,1,8.5377-3.8907c4.3521,0,8.9736,2.4783,11.3043,8.7915a22.72206,22.72206,0,1,1,.9003,18.1083,60.36164,60.36164,0,0,1-9.0168,23.163c-.066.1026-5.6655,8.4414-9.5154,11.4486a59.35713,59.35713,0,1,0,38.8779-104.1597Z"/><path class="cls-1" d="M238.73041,120.80924c0-7.8168,2.31418-12.6657,5.38648-15.4419h-.6138l.0012-.0069h-24.4437a13.7421,13.7421,0,0,0,0,27.4842h18.10982a22.74346,22.74346,0,1,1-18.10982-36.4932,18.3228,18.3228,0,1,0,0-36.6456,59.41219,59.41219,0,1,0,38.8197,104.2134C255.13289,161.39744,238.73041,145.24814,238.73041,120.80924Z"/><path class="cls-1" d="M259.51049,161.18564c.5034.4884.7914.7392.7917.7395v.0003a54.02664,54.02664,0,0,0,7.4775-8.6148c.77972-1.0923,1.5738-2.3145,2.3643-3.5943a56.15467,56.15467,0,0,0,8.2779-23.6658,50.692,50.692,0,0,0,.2919-5.1726c0-.0234.003-.0453.003-.0687,0-.3786-.0486-.6867-.0597-1.0494-.3162-10.3335-5.0163-14.3925-9.8166-14.3925a8.38093,8.38093,0,0,0-4.89,1.6335,10.84555,10.84555,0,0,0-3.6474,4.7934c-1.7115-4.2132-5.1705-6.4269-8.5383-6.4269a8.133,8.133,0,0,0-3.6393.8433,9.809,9.809,0,0,0-4.4223,4.8081,23.013,23.013,0,0,0-1.8147,9.7905C241.88849,142.73324,255.98459,157.76834,259.51049,161.18564Z"/></g></g></svg>