<svg xmlns="http://www.w3.org/2000/svg" viewBox="0 0 201.14 180.07"><defs><style>.cls-1{fill:#1e2235;}</style></defs><g id="Layer_2" data-name="Layer 2"><g id="Layer_1-2" data-name="Layer 1"><path class="cls-1" d="M109.27,143.64H14.09V19.25H178.34v90.2a3.26,3.26,0,1,0,6.52,0V19.25h4.32A3.26,3.26,0,0,0,192.44,16V3.26A3.26,3.26,0,0,0,189.18,0H3.26A3.26,3.26,0,0,0,0,3.26V16a3.26,3.26,0,0,0,3.26,3.26H7.57V146.9a3.26,3.26,0,0,0,3.26,3.26h98.44a3.26,3.26,0,0,0,0-6.52ZM6.52,6.52h179.4v6.21H6.52Z"/><path class="cls-1" d="M145,96.93a19.7,19.7,0,1,0-19.7-19.69A19.71,19.71,0,0,0,145,96.93Zm0-32.87a13.18,13.18,0,1,1-13.18,13.18A13.19,13.19,0,0,1,145,64.06Z"/><path class="cls-1" d="M196.7,132.09l-33.28-26.93a11.48,11.48,0,0,0-2.17-1.39,19.44,19.44,0,0,0-3.09-1.49,37.31,37.31,0,0,0-26.35.1l-2.45.94-27.23,8-24.38-7.89a12,12,0,1,0-7.35,22.75l27.88,9a11.8,11.8,0,0,0,3.68.58,10.61,10.61,0,0,0,3.23-.49l14.13-4.19v45.7a3.26,3.26,0,1,0,6.52,0V126.74a3.26,3.26,0,0,0-4.19-3.12l-18.31,5.43a4.49,4.49,0,0,1-1.38.22,5.55,5.55,0,0,1-1.67-.26L72.4,120a5.45,5.45,0,0,1-3.5-6.84,5.46,5.46,0,0,1,6.85-3.5l25.33,8.19a3.31,3.31,0,0,0,1.92,0l28.33-8.33.24-.09,2.56-1a30.75,30.75,0,0,1,21.75-.09,14,14,0,0,1,2.14,1,2,2,0,0,0,.25.14,5.21,5.21,0,0,1,1,.66l33.28,26.93a5.42,5.42,0,0,1,1.1,7.22l-16.52,25a5.43,5.43,0,0,1-4.57,2.44,5.51,5.51,0,0,1-3-.87,5.78,5.78,0,0,1-1.43-7.79l7.27-11.22,4.58-6.93a3.26,3.26,0,0,0-.67-4.34l-10-8.08a3.27,3.27,0,0,0-5.32,2.53V157.5l-1.35,2.09a12.29,12.29,0,0,0,1.35,15.1v2.12a3.26,3.26,0,0,0,6.26,1.28,11.54,11.54,0,0,0,2.26.22,12,12,0,0,0,10-5.36l16.52-25A11.93,11.93,0,0,0,196.7,132.09Zm-26.09,9.84,2.38,1.92-2.38,3.6Z"/><path class="cls-1" d="M144.75,109.65a3.25,3.25,0,0,0-3.26,3.26v2.17a3.26,3.26,0,0,0,6.52,0v-2.17A3.25,3.25,0,0,0,144.75,109.65Z"/><path class="cls-1" d="M144.75,120.08a3.26,3.26,0,0,0-3.26,3.26v34.77a3.26,3.26,0,0,0,6.52,0V123.34A3.26,3.26,0,0,0,144.75,120.08Z"/><path class="cls-1" d="M132.19,30.71a3.25,3.25,0,0,0-4.58.51L96.35,70.38,81.16,49.3a3.26,3.26,0,0,0-5.53.37L55.76,86.94,44.82,67.55a3.25,3.25,0,0,0-5.45-.34L26.46,84.52a3.26,3.26,0,1,0,5.22,3.9l9.92-13.3L53,95.32A3.27,3.27,0,0,0,55.84,97h0a3.26,3.26,0,0,0,2.83-1.73l20.22-37.9L93.57,77.67a3.26,3.26,0,0,0,5.2.13L132.7,35.29A3.25,3.25,0,0,0,132.19,30.71Z"/></g></g></svg>