<svg xmlns="http://www.w3.org/2000/svg" viewBox="0 0 209.74 199.51"><defs><style>.cls-1{fill:#1e2235;}</style></defs><g id="Layer_2" data-name="Layer 2"><g id="Layer_1-2" data-name="Layer 1"><path class="cls-1" d="M69.33,43.83a103.43,103.43,0,0,1,39.36-14.18,3.26,3.26,0,0,0-1-6.45A109.93,109.93,0,0,0,65.89,38.28C50.18,48,36.87,62.17,26.34,80.36-.17,126.16-.73,168.93.26,185.19a15.14,15.14,0,0,0,15,14.32,3.26,3.26,0,1,0,0-6.52,8.73,8.73,0,0,1-8.47-8.2C5.82,169.12,6.36,127.9,32,83.63,42,66.38,54.54,53,69.33,43.83Z"/><path class="cls-1" d="M145.31,79a8.15,8.15,0,1,0-8.14,8.14A8.15,8.15,0,0,0,145.31,79Zm-9.76,0a1.62,1.62,0,1,1,1.62,1.61A1.62,1.62,0,0,1,135.55,79Z"/><path class="cls-1" d="M183.16,33.88,208.89,5.45a3.26,3.26,0,0,0-4.08-5L146.05,35.34a3.27,3.27,0,0,0-1.14,4.48,3.21,3.21,0,0,0,1.69,1.38,3.3,3.3,0,0,0,1.2.55L164,45.34,153,57.43A34.89,34.89,0,0,0,141,51.71c-.89-.22-1.79-.43-2.69-.62l2.7-22.2a6.71,6.71,0,0,0-11.62-5.32L108.28,46.69a67.63,67.63,0,0,0-22.9,8.37c-12,6.86-28.33,20.73-38.27,47.84A224.24,224.24,0,0,0,33.77,169c-.76,16.85.78,27.3.85,27.74a3.26,3.26,0,1,0,6.45-1c-.06-.4-5.89-41.36,12.16-90.61C60.62,85,72.43,70.1,88.33,60.88,100.21,54,110.07,53,110.16,53A3.28,3.28,0,0,0,112.3,52l21.86-24c.06-.07.1-.11.22,0s.12.08.1.18l-3.07,25.25A3.26,3.26,0,0,0,134.14,57c1.72.28,3.48.64,5.21,1.08a28.58,28.58,0,0,1,18.28,14.5l27.73,51.95a.72.72,0,0,1-.25.92l-7,4.39a9.77,9.77,0,0,1-7.78.64,2.79,2.79,0,0,1-1.9-1.71c0-.13-.08-.25-.13-.37-6.08-15.09-21.78-11.2-27.69-9.74-12.3,3-21.06-12.34-21.14-12.49l0,0v0a72.78,72.78,0,0,1-4.79-11.37,3.27,3.27,0,1,0-6.22,2,87.89,87.89,0,0,0,4.17,10.4c-2.93,3.26-8.24,10.51-7.65,19.65.55,8.46,6,16.19,16,23,25.8,17.38,31,32.66,35.13,44.95.3.89.59,1.76.89,2.62a3.26,3.26,0,0,0,3.08,2.19,3,3,0,0,0,1.07-.18,3.27,3.27,0,0,0,2-4.15l-.88-2.57c-4.47-13.22-10-29.67-37.66-48.27-8.3-5.59-12.72-11.63-13.15-18-.39-5.61,2.48-10.48,4.73-13.39,4.16,5.58,13.35,15.09,26,12,11.36-2.81,17.17-1.17,20,5.69a9.19,9.19,0,0,0,5.77,5.87,16.14,16.14,0,0,0,13.63-1.2l7-4.39a7.28,7.28,0,0,0,2.54-9.49L163.4,69.5a35.1,35.1,0,0,0-5.48-7.73l25.24-27.88Zm-3.57-5.78-6.23-1.38,16.17-9.6Zm-23.41,8.82,9-5.34,9.38,2.09L169,39.77Z"/></g></g></svg>