<svg xmlns="http://www.w3.org/2000/svg" viewBox="0 0 173.1 183.92"><defs><style>.cls-1{fill:#1e2235;}</style></defs><g id="Layer_2" data-name="Layer 2"><g id="Layer_1-2" data-name="Layer 1"><path class="cls-1" d="M165.28,41.39a7.82,7.82,0,0,0-7.82,7.81,8,8,0,0,0,.09,1.11l-19,12.08V17.59A17.61,17.61,0,0,0,120.93,0H49.79A17.61,17.61,0,0,0,32.2,17.59v2a3,3,0,0,0,0,1.6V95.34L12.33,107a7.73,7.73,0,0,0-4.51-1.45,7.82,7.82,0,1,0,7.82,7.82,7.73,7.73,0,0,0-.05-.84l16.61-9.76v47.14a3,3,0,0,0,0,1.6v14.82a17.61,17.61,0,0,0,17.59,17.58h71.14a17.61,17.61,0,0,0,17.59-17.58v-82a3.21,3.21,0,0,0-6.41,0v63.17H38.61V23.59h93.5V65.88a3.1,3.1,0,0,0,0,.54l-8,5.09a7.8,7.8,0,0,0-11.81,8.68L86.83,101.83a7.77,7.77,0,0,0-8.38.77l-27-13.51a3.21,3.21,0,0,0-2.87,5.74l26.82,13.44c0,.16,0,.33,0,.5a7.82,7.82,0,1,0,15.63,0,8,8,0,0,0-.24-1.91L116.5,85.08a7.74,7.74,0,0,0,3.36.77A7.83,7.83,0,0,0,127.68,78a8,8,0,0,0-.09-1.11L161,55.73a7.82,7.82,0,1,0,4.3-14.34ZM49.79,6.41h71.14a11.18,11.18,0,0,1,11.16,10.76H38.63A11.18,11.18,0,0,1,49.79,6.41Zm82.32,147.52v12.41a11.18,11.18,0,0,1-11.18,11.17H49.79a11.19,11.19,0,0,1-11.18-11.17V153.93Z"/><path class="cls-1" d="M78.88,168H91.7a3.21,3.21,0,1,0,0-6.41H78.88a3.21,3.21,0,0,0,0,6.41Z"/></g></g></svg>