<svg xmlns="http://www.w3.org/2000/svg" viewBox="0 0 200.54 196.66"><defs><style>.cls-1{fill:#1e2235;}</style></defs><g id="Layer_2" data-name="Layer 2"><g id="Layer_1-2" data-name="Layer 1"><path class="cls-1" d="M123.29,185.47q-3.08,1-6.21,1.7a48.55,48.55,0,0,0,3.81-3.68,3.06,3.06,0,0,0-4.48-4.16c-5.4,5.82-11.15,9.18-17.1,10V102.52h6.76a3.06,3.06,0,0,0,0-6.12H99.31V9.56c6,.85,11.7,4.22,17.1,10a3.06,3.06,0,1,0,4.48-4.16,48.4,48.4,0,0,0-3.8-3.68q3.82.9,7.58,2.14a3.06,3.06,0,1,0,1.93-5.8,96.24,96.24,0,1,0-1.48,183.21,3.06,3.06,0,0,0-1.83-5.84ZM32.52,35.73a89.44,89.44,0,0,1,42.84-24c-5.59,4.87-10.7,11.74-15.08,20.42a109.52,109.52,0,0,0-5.22,12.27,115.59,115.59,0,0,1-23-8.31Zm-4.69,5.08a118.81,118.81,0,0,0,25.29,9.46A167.87,167.87,0,0,0,46.23,96.4h-40A89.39,89.39,0,0,1,27.83,40.81Zm0,117.3A89.39,89.39,0,0,1,6.19,102.52h40a168,168,0,0,0,6.89,46.14A119.35,119.35,0,0,0,27.83,158.11Zm4.69,5.09c-.14-.14-.27-.29-.41-.42a115,115,0,0,1,23-8.31,110.32,110.32,0,0,0,5.22,12.27c4.38,8.68,9.49,15.55,15.08,20.42A89.61,89.61,0,0,1,32.52,163.2Zm60.67,26.15C83,187.87,73.32,179,65.74,164a104,104,0,0,1-4.69-10.89,171.81,171.81,0,0,1,32.14-3.53Zm0-45.9a177.29,177.29,0,0,0-34.1,3.81,161.2,161.2,0,0,1-6.75-44.74H93.19Zm0-47H52.34a161.26,161.26,0,0,1,6.75-44.74,177.28,177.28,0,0,0,34.1,3.82Zm0-47a171,171,0,0,1-32.14-3.53,104.92,104.92,0,0,1,4.69-10.89C73.32,19.92,83,11.06,93.19,9.58Z"/><path class="cls-1" d="M200.54,129.59c0-5.9-.75-14.78-6.65-23.62-6.12-9.17-16.43-16.58-31.52-22.65C142.54,75.23,141,71.52,141,66.79c0-6.3,5.3-10.09,14.26-10.13a43.46,43.46,0,0,1,22.73,6,8.21,8.21,0,0,0,11.72-4.28l5.24-14a8.19,8.19,0,0,0-3.62-10,64.25,64.25,0,0,0-23.65-7.78L167.63,8a8,8,0,0,0-8.09-8h0L146.32.06a7.63,7.63,0,0,0-5.64,2.42,8.25,8.25,0,0,0-2.07,5.63l.08,20.47c-9.52,2.73-17.44,7.69-23,14.44a40.68,40.68,0,0,0-9.09,26.49,37.27,37.27,0,0,0,12.76,28.77c8,7.31,18.93,12.07,27.51,15.38,18.86,7.54,18.89,14.08,18.91,17.59a11,11,0,0,1-4.34,9c-3.08,2.42-7.48,3.71-12.7,3.74a48.24,48.24,0,0,1-26.09-7.63,8.2,8.2,0,0,0-12.26,4.12l-5,14.25a8.08,8.08,0,0,0,2.69,9.43c7.21,5.09,17.81,8.81,28.81,10.15l.07,14.23c0,4.35,4.13,8.16,8.81,8.16h0l13.38-.07a8,8,0,0,0,5.77-2.46,8.23,8.23,0,0,0,2.29-5.78l-.08-15.95C187.61,166.32,200.64,149.75,200.54,129.59ZM163.32,167.1a3.07,3.07,0,0,0-2.31,3l.09,18.29a2.15,2.15,0,0,1-.59,1.51,1.88,1.88,0,0,1-1.39.58l-13.38.07h0c-1.28,0-2.69-1.08-2.69-2.07l-.08-17a3.06,3.06,0,0,0-2.8-3c-10.94-.92-21.63-4.41-28.59-9.33a2.08,2.08,0,0,1-.46-2.4l5-14.26a2.11,2.11,0,0,1,1.31-1.28,1.92,1.92,0,0,1,.67-.11,2.15,2.15,0,0,1,1.15.34,54.43,54.43,0,0,0,29.49,8.64c6.6,0,12.28-1.77,16.45-5a17.13,17.13,0,0,0,6.68-13.8,17.38,17.38,0,0,0-4.3-11.79C164,115.27,158,111.52,149.1,108c-8.11-3.13-18.36-7.58-25.64-14.21A31.48,31.48,0,0,1,112.7,69.48c-.09-17.75,11-31.05,29.77-35.57a3,3,0,0,0,2.34-3l-.08-22.85a2.15,2.15,0,0,1,.46-1.46,1.49,1.49,0,0,1,1.16-.44l13.17-.06h0a1.83,1.83,0,0,1,2,1.88l.07,21.36a3.06,3.06,0,0,0,2.77,3,59.24,59.24,0,0,1,23.92,7.3,2.11,2.11,0,0,1,1,2.53L184,56.28a2.12,2.12,0,0,1-1.24,1.23,2.08,2.08,0,0,1-1.74-.15,49.23,49.23,0,0,0-25.49-6.82h-.28c-15.07.08-20.38,8.82-20.35,16.28C135,76.07,140.59,81,160.06,89h0c13.72,5.52,23.39,12.38,28.72,20.38,4.93,7.38,5.6,14.7,5.62,20.25C194.51,147.62,182.3,162.33,163.32,167.1Z"/></g></g></svg>