<svg xmlns="http://www.w3.org/2000/svg" viewBox="0 0 199.25 186.3"><defs><style>.cls-1{fill:#1e2235;}</style></defs><g id="Layer_2" data-name="Layer 2"><g id="Layer_1-2" data-name="Layer 1"><path class="cls-1" d="M118.81,160.63l-23,9.33V73.49l37.56-15.26.06,0,46-18.7V109a3.06,3.06,0,0,0,6.11,0V34.9a3.4,3.4,0,0,0-.08-.64.06.06,0,0,1,0,0,3.81,3.81,0,0,0-.24-.64l-.11-.17a2.7,2.7,0,0,0-.27-.39l-.15-.17a3.9,3.9,0,0,0-.38-.33l-.11-.09-.05,0a3.39,3.39,0,0,0-.57-.29l-.05,0h0L93.82.18a3,3,0,0,0-2,0L2,32.09H2l-.06,0a3.81,3.81,0,0,0-.57.29l0,0-.11.09a2.91,2.91,0,0,0-.37.33L.72,33a2.14,2.14,0,0,0-.28.39l-.1.17a3.86,3.86,0,0,0-.25.64v0A2.74,2.74,0,0,0,0,34.9s0,0,0,.07V138a3.05,3.05,0,0,0,1.91,2.83l89.74,36.47.09,0a2.59,2.59,0,0,0,.37.11l.16,0a3.05,3.05,0,0,0,.52.05h0a3,3,0,0,0,.52-.05l.16,0a2.59,2.59,0,0,0,.37-.11l.1,0,27.16-11a3.05,3.05,0,1,0-2.3-5.66ZM11.65,35.16l33.76-12,81.71,31-34.32,14Zm53.1-18.88,82.69,29.65-12,4.88L54.31,20ZM92.8,6.3,174,35.16l-18,7.32L73.84,13ZM6.12,39.51l83.62,34V170L6.12,136Z"/><path class="cls-1" d="M135.48,61.55a3.06,3.06,0,0,0-3.06,3.06V79.4a3.06,3.06,0,0,0,3.06,3,3.08,3.08,0,0,0,1.19-.24l20.4-8.63a3.07,3.07,0,0,0,1.87-2.82v-15a3.06,3.06,0,0,0-6.12,0V68.74l-14.29,6V64.61A3.05,3.05,0,0,0,135.48,61.55Z"/><path class="cls-1" d="M79.46,131.33,49,119.55a3.06,3.06,0,0,0-4.16,2.86v18.16a3.06,3.06,0,0,0,2,2.85l30.43,11.77a3,3,0,0,0,2.83-.33,3.06,3.06,0,0,0,1.33-2.52V134.18A3,3,0,0,0,79.46,131.33ZM75.3,147.88,51,138.47v-11.6l24.31,9.4Z"/><path class="cls-1" d="M162.79,113.4a36.45,36.45,0,1,0,36.46,36.45A36.5,36.5,0,0,0,162.79,113.4Zm0,66.79a30.34,30.34,0,1,1,30.34-30.34A30.37,30.37,0,0,1,162.79,180.19Z"/><path class="cls-1" d="M178.28,136l-23.42,23.41-5.7-5.7a3.05,3.05,0,0,0-4.32,4.32l7.86,7.87a3.08,3.08,0,0,0,4.33,0l25.57-25.58a3.05,3.05,0,0,0-4.32-4.32Z"/></g></g></svg>