<svg xmlns="http://www.w3.org/2000/svg" viewBox="0 0 211.5 207.27"><defs><style>.cls-1{fill:#1e2235;}</style></defs><g id="Layer_2" data-name="Layer 2"><g id="Layer_1-2" data-name="Layer 1"><path class="cls-1" d="M64,141.75a3.66,3.66,0,0,0,.57-.05l21.88-3.88a3.27,3.27,0,0,0-1.14-6.43l-17.66,3.14L71.75,91l6.13-8.41c-.41,4.32-.63,8.35-.63,11.93,0,13.19,2.1,22.73,6.41,29.16a3.28,3.28,0,0,0,2.72,1.45,3.21,3.21,0,0,0,1.81-.56,3.25,3.25,0,0,0,.89-4.52c-3.52-5.26-5.31-13.84-5.31-25.53,0-14.24,3.64-36.1,9.26-55.71a151.35,151.35,0,0,1,8.53-23.48c3.8-7.76,6.06-8.7,6.32-8.79.27.09,2.53,1,6.32,8.79a150.22,150.22,0,0,1,8.54,23.48C128.36,58.41,132,80.27,132,94.51c0,11.39-1.7,19.83-5,25.11a3.26,3.26,0,0,0,5.51,3.49c4.07-6.42,6.05-15.78,6.05-28.6,0-3.84-.25-8.19-.72-12.88L144.62,91l4.1,43.54-17.66-3.14a3.27,3.27,0,0,0-1.14,6.43l21.88,3.88a3.79,3.79,0,0,0,.58.05,3.25,3.25,0,0,0,3.24-3.57L151,89.48a3.33,3.33,0,0,0-.62-1.62L136.31,68.51a2.59,2.59,0,0,0-.31-.35,277.44,277.44,0,0,0-7.22-32,150.08,150.08,0,0,0-9.12-24.56C115.66,3.7,111.92,0,107.88,0s-7.77,3.7-11.77,11.63A150.08,150.08,0,0,0,87,36.19a277.44,277.44,0,0,0-7.37,32.93L66,87.86a3.22,3.22,0,0,0-.61,1.62l-4.59,48.7A3.26,3.26,0,0,0,64,141.75Z"/><path class="cls-1" d="M121.32,77.43h.15a3.27,3.27,0,0,0,3.12-3.4c0-1-.11-2.08-.19-3.11a3.26,3.26,0,0,0-6.51.49c.08,1,.13,1.94.17,2.9A3.27,3.27,0,0,0,121.32,77.43Z"/><path class="cls-1" d="M119.64,63a3,3,0,0,0,.59,0,3.26,3.26,0,0,0,2.62-3.8,165.63,165.63,0,0,0-10.16-33.66,3.27,3.27,0,0,0-6,2.65,160.55,160.55,0,0,1,9.71,32.18A3.26,3.26,0,0,0,119.64,63Z"/><path class="cls-1" d="M109.67,136.47a3.26,3.26,0,0,0-3.27,3.27v1.74a3.27,3.27,0,0,0,6.53,0v-1.74A3.26,3.26,0,0,0,109.67,136.47Z"/><path class="cls-1" d="M112.93,101.45a3.27,3.27,0,1,0-6.53,0v27a3.27,3.27,0,1,0,6.53,0Z"/><path class="cls-1" d="M53.76,166.74a24.9,24.9,0,0,0-8.51-.93c0-.2,0-.4,0-.59a8.23,8.23,0,0,1,14.32-5.54,3.26,3.26,0,0,0,4.91-.11,19.71,19.71,0,0,1,33.64,5.78,3.26,3.26,0,1,0,6.12-2.27,26.23,26.23,0,0,0-5.65-9V126.25a3.27,3.27,0,1,0-6.53,0v22.88A26.11,26.11,0,0,0,61.72,153a14.76,14.76,0,0,0-23,12.23,13.8,13.8,0,0,0,.13,1.93,21.29,21.29,0,0,0-9.63,8.47A20.43,20.43,0,0,0,3.78,205.91a3.27,3.27,0,0,0,5.32-3.79,13.89,13.89,0,0,1,17.61-20.45,21.19,21.19,0,0,0-.59,4.93,3.27,3.27,0,0,0,6.53,0,14.74,14.74,0,0,1,9.59-13.79,19.4,19.4,0,0,1,9.47.13,3.23,3.23,0,0,0,1,.16,3.26,3.26,0,0,0,1-6.36Z"/><path class="cls-1" d="M191.07,173.63a20.6,20.6,0,0,0-4.07.43,21.15,21.15,0,0,0-8.58-6.91,15.51,15.51,0,0,0,.13-1.93,14.76,14.76,0,0,0-23-12.23,26.22,26.22,0,0,0-31.29-3.35V126.25a3.26,3.26,0,1,0-6.52,0v28.28a3.17,3.17,0,0,0,0,.53,26.1,26.1,0,0,0-4.24,6.78,3.26,3.26,0,1,0,6,2.57,19.71,19.71,0,0,1,33.26-4.84,3.27,3.27,0,0,0,4.92.11A8.23,8.23,0,0,1,172,165.22c0,.09,0,.18,0,.27a25.38,25.38,0,0,0-9.9.82,3.26,3.26,0,0,0,1,6.35,3.17,3.17,0,0,0,1-.16,19.45,19.45,0,0,1,9.58-.1,14.74,14.74,0,0,1,10.86,14.2,3.26,3.26,0,1,0,6.52,0,21,21,0,0,0-1-6.4c.32,0,.64,0,.95,0a13.92,13.92,0,0,1,13.9,13.9,13.76,13.76,0,0,1-2.57,8.06,3.27,3.27,0,0,0,.77,4.55,3.21,3.21,0,0,0,1.89.6,3.26,3.26,0,0,0,2.66-1.36,20.44,20.44,0,0,0-16.65-32.28Z"/><path class="cls-1" d="M111.89,181.84a21.84,21.84,0,0,0-41.36,2.6A15.85,15.85,0,0,0,55.39,199.3a3.26,3.26,0,1,0,6.51.4,9.31,9.31,0,0,1,18.58,1.12,3.26,3.26,0,0,0,3.06,3.45h.2A3.26,3.26,0,0,0,87,201.21a15.84,15.84,0,0,0-10-15.67,15.31,15.31,0,0,1,29.34.24,10.08,10.08,0,0,0-1.68,7.45,3.26,3.26,0,1,0,6.44-1.07,3.6,3.6,0,0,1,6-3.2,3.26,3.26,0,0,0,4.5-4.72A10.07,10.07,0,0,0,111.89,181.84Z"/></g></g></svg>