<svg id="Capa_1" enable-background="new 0 0 512 512" height="512" viewBox="0 0 512 512" width="512" xmlns="http://www.w3.org/2000/svg"><g><path d="m256 0c-141.389 0-256 114.611-256 256s114.611 256 256 256 256-114.611 256-256-114.611-256-256-256zm-203.135 256.002c-.001-112.239 90.897-203.138 203.136-203.137 46.415 0 89.193 15.568 123.399 41.769l-280.656 280.655c-2.181 2.181-5.807 1.902-7.612-.599-24.08-33.386-38.267-74.38-38.267-118.688zm203.133 203.133c-44.308 0-85.301-14.187-118.688-38.267-2.502-1.805-2.781-5.431-.599-7.612l280.655-280.656c26.2 34.206 41.768 76.983 41.768 123.398.002 112.239-90.897 203.138-203.136 203.137z" fill="#fd8087"/><path d="m382.913 33.629c65.631 46.343 108.481 122.792 108.481 209.245 0 141.389-114.611 256-256 256-46.189 0-89.503-12.23-126.913-33.629 41.696 29.456 92.583 46.755 147.519 46.755 141.389 0 256-114.611 256-256 0-95.211-51.969-178.274-129.087-222.371z" fill="#fe646f"/><g><path d="m303.433 193.746-87.692 8.374-87.692-8.374c-9.654 0-17.479-7.826-17.479-17.479v-6.544c0-9.654 7.826-17.479 17.479-17.479h175.384c9.654 0 17.479 7.826 17.479 17.479v6.544c.001 9.653-7.825 17.479-17.479 17.479z" fill="#fece85"/><path d="m320.909 169.722v6.542c0 9.654-7.82 17.484-17.474 17.484h-22.038c9.654 0 17.484-7.83 17.484-17.484v-6.542c0-9.654-7.83-17.474-17.484-17.474h22.038c9.654 0 17.474 7.82 17.474 17.474z" fill="#e9b665"/><path d="m303.433 235.249-87.692 5.948-87.692-5.948c-9.654 0-17.479-7.826-17.479-17.479v-6.544c0-9.654 7.826-17.479 17.479-17.479h175.384c9.654 0 17.479 7.826 17.479 17.479v6.544c.001 9.653-7.825 17.479-17.479 17.479z" fill="#fddeb0"/><path d="m320.909 211.223v6.542c0 9.654-7.82 17.484-17.474 17.484h-22.038c9.654 0 17.484-7.83 17.484-17.484v-6.542c0-9.654-7.83-17.474-17.484-17.474h22.038c9.654 0 17.474 7.82 17.474 17.474z" fill="#fccd7f"/><path d="m303.433 276.751-87.692 5.876-87.692-5.876c-9.654 0-17.479-7.826-17.479-17.479v-6.544c0-9.654 7.826-17.479 17.479-17.479h175.384c9.654 0 17.479 7.826 17.479 17.479v6.544c.001 9.654-7.825 17.479-17.479 17.479z" fill="#fece85"/><path d="m320.909 252.724v6.553c0 9.654-7.82 17.474-17.474 17.474h-22.038c9.654 0 17.484-7.82 17.484-17.474v-6.553c0-9.654-7.83-17.474-17.484-17.474h22.038c9.654 0 17.474 7.82 17.474 17.474z" fill="#e9b665"/><path d="m303.433 318.254-100.218 5.333-75.167-5.333c-9.654 0-17.479-7.826-17.479-17.479v-6.544c0-9.654 7.826-17.479 17.479-17.479h175.384c9.654 0 17.479 7.826 17.479 17.479v6.544c.002 9.653-7.824 17.479-17.478 17.479z" fill="#fddeb0"/><path d="m171.331 294.235v6.542c0 9.654 7.82 17.474 17.474 17.474h22.038c-9.654 0-17.484-7.82-17.484-17.474v-6.542c0-9.654 7.83-17.484 17.484-17.484h-22.038c-9.654-.001-17.474 7.83-17.474 17.484z" fill="#fccd7f"/><path d="m383.951 318.254-87.692 5.333-87.692-5.333c-9.654 0-17.479-7.826-17.479-17.479v-6.544c0-9.654 7.826-17.479 17.479-17.479h175.384c9.654 0 17.479 7.826 17.479 17.479v6.544c.001 9.653-7.825 17.479-17.479 17.479z" fill="#fbc56d"/><path d="m401.428 294.235v6.542c0 9.654-7.82 17.474-17.474 17.474h-22.038c9.654 0 17.484-7.82 17.484-17.474v-6.542c0-9.654-7.83-17.484-17.484-17.484h22.038c9.654-.001 17.474 7.83 17.474 17.484z" fill="#e9b665"/><path d="m303.433 359.757h-175.384c-9.654 0-17.479-7.826-17.479-17.479v-6.544c0-9.654 7.826-17.479 17.479-17.479h175.384c9.654 0 17.479 7.826 17.479 17.479v6.544c.001 9.653-7.825 17.479-17.479 17.479z" fill="#fece85"/><path d="m171.331 335.735v6.542c0 9.654 7.82 17.474 17.474 17.474h22.038c-9.654 0-17.484-7.82-17.484-17.474v-6.542c0-9.654 7.83-17.484 17.484-17.484h-22.038c-9.654 0-17.474 7.83-17.474 17.484z" fill="#e9b665"/><path d="m383.951 359.757h-175.384c-9.654 0-17.479-7.826-17.479-17.479v-6.544c0-9.654 7.826-17.479 17.479-17.479h175.384c9.654 0 17.479 7.826 17.479 17.479v6.544c.001 9.653-7.825 17.479-17.479 17.479z" fill="#fddeb0"/><path d="m401.428 335.735v6.542c0 9.654-7.82 17.474-17.474 17.474h-22.038c9.654 0 17.484-7.82 17.484-17.474v-6.542c0-9.654-7.83-17.484-17.484-17.484h22.038c9.654 0 17.474 7.83 17.474 17.484z" fill="#fccd7f"/></g></g></svg>