<?xml version="1.0" encoding="utf-8"?>
<!-- Generator: Adobe Illustrator 24.0.1, SVG Export Plug-In . SVG Version: 6.00 Build 0)  -->
<svg version="1.1" id="Capa_1" xmlns="http://www.w3.org/2000/svg" xmlns:xlink="http://www.w3.org/1999/xlink" x="0px" y="0px"
	 viewBox="0 0 512 512" style="enable-background:new 0 0 512 512;" xml:space="preserve">
<style type="text/css">
	.st0{fill:#FFD164;}
	.st1{fill:#FFC350;}
	.st2{fill:#D8AA5E;}
	.st3{fill:#C99C56;}
	.st4{fill:#172A92;}
	.st5{fill:#8D9CA8;}
	.st6{fill:#7A8C98;}
</style>
<g>
	<g>
		<path class="st0" d="M367.9,225.5H144.1V9.6c0-4.4,3.5-7.9,7.9-7.9h208c4.4,0,7.9,3.5,7.9,7.9L367.9,225.5L367.9,225.5z"/>
		<path class="st1" d="M367.9,9.6v215.9h-20.2V9.6c0-4.4-3.5-7.9-7.9-7.9H360C364.4,1.6,367.9,5.2,367.9,9.6z"/>
		<path class="st2" d="M256,1.6h-26.7v59.4c0,3.5,3.7,5.8,6.9,4.2l17.7-9.1c1.3-0.7,2.9-0.7,4.3,0l17.7,9.1c3.1,1.6,6.9-0.7,6.9-4.2
			V1.6L256,1.6z"/>
		<path class="st3" d="M282.7,1.6v59.4c0,3.5-3.7,5.8-6.9,4.2l-13.4-6.8V1.6L282.7,1.6z"/>
		<path class="st2" d="M293.7,187.9h-75.4c-2.5,0-4.5-2-4.5-4.5V151c0-2.5,2-4.5,4.5-4.5h75.4c2.5,0,4.5,2,4.5,4.5v32.4
			C298.2,185.8,296.2,187.9,293.7,187.9L293.7,187.9z"/>
		<path class="st3" d="M298.2,151v32.4c0,2.5-2,4.5-4.5,4.5h-20.6c2.5,0,4.5-2,4.5-4.5V151c0-2.5-2-4.5-4.5-4.5h20.6
			C296.2,146.4,298.2,148.4,298.2,151z"/>
	</g>
	<g>
		<path class="st0" d="M479.9,447.1H256V223.2h215.9c4.4,0,7.9,3.5,7.9,7.9L479.9,447.1z"/>
		<path class="st1" d="M479.9,231.1v215.9h-20.2V231.1c0-4.4-3.5-7.9-7.9-7.9h20.2C476.3,223.2,479.9,226.8,479.9,231.1z"/>
		<path class="st2" d="M367.9,223.2h-26.7v59.4c0,3.5,3.7,5.8,6.9,4.2l17.7-9.1c1.3-0.7,2.9-0.7,4.3,0l17.7,9.1
			c3.1,1.6,6.9-0.7,6.9-4.2v-59.4L367.9,223.2z"/>
		<path class="st3" d="M394.7,223.2v59.4c0,3.5-3.7,5.8-6.9,4.2l-13.4-6.8v-56.8H394.7z"/>
		<path class="st2" d="M405.6,409.4h-75.4c-2.5,0-4.5-2-4.5-4.5v-32.4c0-2.5,2-4.5,4.5-4.5h75.4c2.5,0,4.5,2,4.5,4.5v32.4
			C410.2,407.4,408.1,409.4,405.6,409.4z"/>
		<path class="st3" d="M410.2,372.5v32.4c0,2.5-2,4.5-4.5,4.5H385c2.5,0,4.5-2,4.5-4.5v-32.4c0-2.5-2-4.5-4.5-4.5h20.6
			C408.1,368,410.2,370,410.2,372.5z"/>
	</g>
	<g>
		<path class="st0" d="M260.5,447.1H32.1V231.1c0-4.4,3.5-7.9,7.9-7.9h220.5L260.5,447.1L260.5,447.1z"/>
		<path class="st1" d="M256,223.2v223.9h-20.2V231.1c0-4.4-3.5-7.9-7.9-7.9L256,223.2z"/>
		<path class="st2" d="M144.1,223.2h-26.7v59.4c0,3.5,3.7,5.8,6.9,4.2l17.7-9.1c1.3-0.7,2.9-0.7,4.3,0l17.7,9.1
			c3.1,1.6,6.9-0.7,6.9-4.2v-59.4L144.1,223.2z"/>
		<path class="st3" d="M170.8,223.2v59.4c0,3.5-3.7,5.8-6.9,4.2l-13.4-6.8v-56.8H170.8z"/>
		<path class="st2" d="M181.8,409.4h-75.4c-2.5,0-4.5-2-4.5-4.5v-32.4c0-2.5,2-4.5,4.5-4.5h75.4c2.5,0,4.5,2,4.5,4.5v32.4
			C186.3,407.4,184.3,409.4,181.8,409.4z"/>
		<path class="st3" d="M186.3,372.5v32.4c0,2.5-2,4.5-4.5,4.5h-20.6c2.5,0,4.5-2,4.5-4.5v-32.4c0-2.5-2-4.5-4.5-4.5h20.6
			C184.3,368,186.3,370,186.3,372.5z"/>
	</g>
	<g>
		<rect x="228.3" y="0.3" class="st4" width="53.4" height="64.2"/>
		<rect x="117.6" y="223.5" class="st4" width="53.4" height="64.2"/>
		<rect x="340.8" y="223.5" class="st4" width="53.4" height="64.2"/>
	</g>
</g>
<g>
	<path class="st5" d="M476.3,510.4h-22.5c-3.3,0-6-2.7-6-6v-34h34.5v34C482.3,507.7,479.6,510.4,476.3,510.4z"/>
	<path class="st5" d="M58.1,510.4H35.7c-3.3,0-6-2.7-6-6v-34h34.5v34C64.2,507.7,61.5,510.4,58.1,510.4z"/>
</g>
<g>
	<path class="st6" d="M482.3,475.9v28.5c0,3.3-2.7,6-6,6h-16.7c3.3,0,6-2.7,6-6v-28.5H482.3z"/>
	<path class="st6" d="M64.2,475.9v28.5c0,3.3-2.7,6-6,6H41.4c3.3,0,6-2.7,6-6v-28.5H64.2z"/>
</g>
<path class="st5" d="M508.2,475.9H3.8c-2.1,0-3.8-1.7-3.8-3.8v-22.4c0-2.1,1.7-3.8,3.8-3.8h504.4c2.1,0,3.8,1.7,3.8,3.8v22.4
	C512,474.2,510.3,475.9,508.2,475.9z"/>
<path class="st6" d="M512,449.7v22.4c0,2.1-1.7,3.8-3.8,3.8h-20.6c2.1,0,3.8-1.7,3.8-3.8v-22.4c0-2.1-1.7-3.8-3.8-3.8h20.6
	C510.3,445.9,512,447.6,512,449.7z"/>
</svg>
