<svg xmlns="http://www.w3.org/2000/svg" viewBox="0 0 512 320.5"><defs><style>.cls-1{fill:#ffd164;}.cls-2{fill:#ffc350;}.cls-3{fill:#d8aa5e;}.cls-4{fill:#c99c56;}.cls-5{fill:#172a92;}.cls-6{fill:#eaf6ff;}.cls-7{fill:#d8ecfe;}.cls-8{fill:#fd8087;}.cls-9{fill:#fe646f;}.cls-10{fill:#0f216d;}.cls-11{fill:#99e6fc;}.cls-12{fill:#62dbfb;}.cls-13{fill:#9facba;}.cls-14{fill:#8d9ca8;}.cls-15{fill:#7a8c98;}.cls-16{fill:#fad448;}</style></defs><title>a2-6</title><g id="레이어_2" data-name="레이어 2"><g id="Capa_1" data-name="Capa 1"><path class="cls-1" d="M289.93,224.25H66.07V8.31A7.93,7.93,0,0,1,74,.39H282a7.93,7.93,0,0,1,7.92,7.92V224.25Z"/><path class="cls-2" d="M289.92,8.31V224.25H269.71V8.31A7.92,7.92,0,0,0,261.79.4H282A7.91,7.91,0,0,1,289.92,8.31Z"/><path class="cls-3" d="M178,.39H151.28V59.84A4.71,4.71,0,0,0,158.13,64l17.72-9.09a4.72,4.72,0,0,1,4.3,0L197.87,64a4.71,4.71,0,0,0,6.85-4.19V.39Z"/><path class="cls-4" d="M204.73.4V59.83a4.72,4.72,0,0,1-6.87,4.2l-13.35-6.84V.4Z"/><path class="cls-3" d="M215.71,186.61H140.29a4.53,4.53,0,0,1-4.53-4.54V149.71a4.54,4.54,0,0,1,4.53-4.54h75.42a4.54,4.54,0,0,1,4.53,4.54v32.36a4.53,4.53,0,0,1-4.53,4.54Z"/><path class="cls-4" d="M220.24,149.71v32.36a4.54,4.54,0,0,1-4.53,4.54H195.09a4.54,4.54,0,0,0,4.54-4.54V149.71a4.54,4.54,0,0,0-4.54-4.54h20.62A4.53,4.53,0,0,1,220.24,149.71Z"/><rect class="cls-5" x="151.28" y="0.39" width="53.42" height="64.23"/><path class="cls-6" d="M381.4,126.51V266.75H14.74v-132A8.25,8.25,0,0,1,23,126.51Z"/><path class="cls-7" d="M45.65,126.51a8.24,8.24,0,0,0-8.24,8.24v132H14.74v-132A8.25,8.25,0,0,1,23,126.51Z"/><path class="cls-8" d="M49.59,180.65v20.91a4.11,4.11,0,0,1-4.12,4.12H14.74V176.53H45.47a4.11,4.11,0,0,1,4.12,4.12Z"/><path class="cls-9" d="M14.74,176.53H37.41v29.15H14.74Z"/><path class="cls-5" d="M497.26,130.07v46.46l-12.75,14.58,12.75,14.57v53.66H334.7V8.24A8.24,8.24,0,0,1,343,0h94.89a8.21,8.21,0,0,1,7.6,5.07l12.88,31-53.63,74.07,92.36,19.06,0,.1a2,2,0,0,1,.17.79Z"/><path class="cls-10" d="M364.61,0a8.23,8.23,0,0,0-8.24,8.24v251.1H334.7V8.24A8.24,8.24,0,0,1,343,0Z"/><path class="cls-11" d="M497.05,129.18H374.88a4.12,4.12,0,0,1-4.12-4.12V44.3A8.24,8.24,0,0,1,379,36.05h79.32Z"/><path class="cls-12" d="M396.54,129.18H374.88a4.12,4.12,0,0,1-4.12-4.12V44.3A8.24,8.24,0,0,1,379,36.05h21.66a8.23,8.23,0,0,0-8.23,8.25v80.76A4.11,4.11,0,0,0,396.54,129.18Z"/><path class="cls-13" d="M512,259v15.42a6,6,0,0,1-6,6H6a6,6,0,0,1-6-6V259a6,6,0,0,1,6-6H506A6,6,0,0,1,512,259Z"/><path class="cls-14" d="M27.05,280.47H6a6,6,0,0,1-6-6V259a6,6,0,0,1,6-6h21a6,6,0,0,0-6,6v15.42A6,6,0,0,0,27.05,280.47Z"/><path class="cls-14" d="M142.16,264.34A49.14,49.14,0,1,1,101.85,216,49.21,49.21,0,0,1,142.16,264.34Z"/><path class="cls-14" d="M468.21,269a51.49,51.49,0,0,1-41.8,50.58,50.11,50.11,0,0,1-9.71.93,51.52,51.52,0,0,1,0-103,50.91,50.91,0,0,1,9.71.93A51.5,51.5,0,0,1,468.21,269Z"/><path class="cls-15" d="M101.85,312.72a49.19,49.19,0,1,1,0-96.77,50.29,50.29,0,0,0,0,96.77Z"/><path class="cls-15" d="M426.41,319.57a50.11,50.11,0,0,1-9.71.93,51.52,51.52,0,0,1,0-103,50.91,50.91,0,0,1,9.71.93,52.09,52.09,0,0,0,0,101.17Z"/><circle class="cls-7" cx="416.71" cy="268.98" r="18.03"/><circle class="cls-7" cx="92.97" cy="264.34" r="18.03"/><path class="cls-16" d="M497.26,176.53v29.15H466.53a4.11,4.11,0,0,1-4.12-4.12V180.65a4.11,4.11,0,0,1,4.12-4.12Z"/></g></g></svg>