<svg xmlns="http://www.w3.org/2000/svg" viewBox="0 0 40.24 48"><defs><style>.cls-1{fill:#fff;}</style></defs><title>a6-1</title><g id="레이어_2" data-name="레이어 2"><g id="layer_1" data-name="layer 1"><path class="cls-1" d="M39.51,8.66H31.6V.73A.73.73,0,0,0,30.87,0H.73A.73.73,0,0,0,0,.73V39.58a.72.72,0,0,0,.41.65.72.72,0,0,0,.32.08.75.75,0,0,0,.45-.16l6.39-5H16.4v7.06a.75.75,0,0,0,.21.51.72.72,0,0,0,.52.21h0l15.6,0,6.33,5a.73.73,0,0,0,.77.09.74.74,0,0,0,.41-.66V9.39A.73.73,0,0,0,39.51,8.66Zm-32.19,25a.75.75,0,0,0-.45.16L1.45,38.08V1.45H30.14v32.2ZM38.79,45.78l-5.36-4.21a.74.74,0,0,0-.45-.15h0l-15.12,0V35.11h13a.73.73,0,0,0,.73-.73V10.12h7.19Z"/><path class="cls-1" d="M15.8,13.09A4.12,4.12,0,1,0,11.68,9,4.13,4.13,0,0,0,15.8,13.09Zm0-6.79A2.67,2.67,0,1,1,13.13,9,2.68,2.68,0,0,1,15.8,6.3Z"/><path class="cls-1" d="M20.65,28.8H19.43V16.24a.73.73,0,0,0-.72-.73H11A.73.73,0,0,0,11,17h1.21V28.8H11a.73.73,0,1,0,0,1.46h9.7a.73.73,0,0,0,0-1.46ZM18,28.8H13.62V17H18Z"/></g></g></svg>