<svg xmlns="http://www.w3.org/2000/svg" viewBox="0 0 41.69 48"><defs><style>.cls-1{fill:#fff;}</style></defs><title>a6-2</title><g id="레이어_2" data-name="레이어 2"><g id="layer_1" data-name="layer 1"><path class="cls-1" d="M20.84,12.16a5.84,5.84,0,0,0,5.55-6.08A5.84,5.84,0,0,0,20.84,0a5.13,5.13,0,0,0-2.68.76A.73.73,0,1,0,18.92,2a3.64,3.64,0,0,1,1.92-.54,4.38,4.38,0,0,1,4.09,4.62,4.39,4.39,0,0,1-4.09,4.63,4.4,4.4,0,0,1-4.09-4.63,5,5,0,0,1,.18-1.34,9.28,9.28,0,0,0,5.58,1,.74.74,0,0,0,.65-.81.73.73,0,0,0-.81-.64A7.32,7.32,0,0,1,17,3.07a.72.72,0,0,0-.62-.14.71.71,0,0,0-.49.4,6.45,6.45,0,0,0-.6,2.75A5.83,5.83,0,0,0,20.84,12.16Z"/><path class="cls-1" d="M20.84,21.13a.73.73,0,1,0-.73-.73A.73.73,0,0,0,20.84,21.13Z"/><path class="cls-1" d="M20.84,18.37a.73.73,0,1,0,0-1.45.73.73,0,1,0,0,1.45Z"/><path class="cls-1" d="M41,23.31a2.69,2.69,0,0,0-2-.9H36.15l-1.59-5.62A6.57,6.57,0,0,0,28.26,12H26.19a.73.73,0,0,0-.49.19,8,8,0,0,1-4.86,1.95A8.06,8.06,0,0,1,16,12.22a.78.78,0,0,0-.5-.19H13.42a6.59,6.59,0,0,0-6.3,4.76L5.54,22.41H2.67A2.67,2.67,0,0,0,0,25.4L1.66,39a3.64,3.64,0,0,0,3.61,3.2h8.46l.48,4.37H7.52a.72.72,0,0,0-.73.72.73.73,0,0,0,.73.73H34.17a.73.73,0,0,0,.73-.73.73.73,0,0,0-.73-.72h-6.7L28,42.18h8.46A3.64,3.64,0,0,0,40,39L41.67,25.4A2.69,2.69,0,0,0,41,23.31ZM8.52,17.19a5.13,5.13,0,0,1,4.9-3.71h1.8a9.31,9.31,0,0,0,5.62,2.15,9.28,9.28,0,0,0,5.62-2.15h1.8a5.12,5.12,0,0,1,4.9,3.71l1.48,5.22H29l-.85-4.32a.74.74,0,0,0-.86-.57.73.73,0,0,0-.57.86l.8,4H14.14l.8-4a.73.73,0,0,0-1.43-.29l-.85,4.32H7.05ZM27.25,35.45,26,46.55H15.68l-1.24-11.1h0a2.15,2.15,0,0,1,.54-1.7A2.2,2.2,0,0,1,16.61,33h8.47a2.18,2.18,0,0,1,2.17,2.43Zm13-10.22L38.59,38.81a2.2,2.2,0,0,1-2.17,1.92h-8.3l.57-5.12a3.63,3.63,0,0,0-3.61-4H16.61a3.64,3.64,0,0,0-3.62,4l.57,5.12H5.27A2.18,2.18,0,0,1,3.1,38.81L1.46,25.23a1.22,1.22,0,0,1,.3-.95,1.16,1.16,0,0,1,.91-.41H39a1.19,1.19,0,0,1,.91.41A1.17,1.17,0,0,1,40.22,25.23Z"/><path class="cls-1" d="M20.84,38.3a3.43,3.43,0,0,0-3.63,3.15,3.43,3.43,0,0,0,3.63,3.16,3.43,3.43,0,0,0,3.64-3.16A3.43,3.43,0,0,0,20.84,38.3Zm0,4.85a2,2,0,0,1-2.18-1.7,2,2,0,0,1,2.18-1.69A2,2,0,0,1,23,41.45,2,2,0,0,1,20.84,43.15Z"/></g></g></svg>