<?xml version="1.0" encoding="UTF-8"?>
<svg id="Layer_2" xmlns="http://www.w3.org/2000/svg" version="1.1" viewBox="0 0 258.4 215.1">
  <!-- Generator: Adobe Illustrator 29.0.0, SVG Export Plug-In . SVG Version: 2.1.0 Build 186)  -->
  <defs>
    <style>
      .st0 {
        fill: #fff;
      }
    </style>
  </defs>
  <g id="Layer_1-2">
    <g>
      <path class="st0" d="M25.4,124.7l-11.4,33.1,8.1,5,20.9-23.8,1.5-.6c.3.2.5.6.3,1.2l-9.1,20.4c0,.4,0,.7.2,1,2.6,3.1,25.6,19.3,48.1,19.2,35.3,0,42.9-27.5,69.1-27.4,23.4.1,50.4,42.7,59,57.3.9,1.6,2.2,2.9,3.9,3.8,4.1,2.1,8.8,1.1,11.6-2l30.5-33.2c.4-.4.4-1,0-1.4l-5.1-7.1c-.3-.5-1-.6-1.5-.3l-23.5,12.8c-1.1.6-2.2-.8-1.4-1.7l12-13.9c.3-.4.4-1,0-1.4-8.5-11.9-17.2-21.5-26-27.9-15.8-11.6-32.5-16.3-32.5-16.3v-2.3s44.4,2.5,75.1-35.9c.3-.4.3-.9,0-1.4l-17.2-25.5c-.4-.6-1.2-.7-1.7-.2-5,5.2-29.1,28.7-53.6,30.3-.6,0-1.2-.5-1.2-1.1v-4.1c-.1-.5.2-.9.6-1.1,14-5.1,24-18,24-33.1s-2.1-13.6-5.9-19.1c-.4-.5-.2-1.3.4-1.6l13.4-7.7c.6-.3.7-1,.4-1.6l-6.1-9.9c-.2-.3-.6-.5-1-.5l-18.3.2c-.2,0-.5,0-.7-.2-12.4-9.2-31.1-8.2-42.8-.5-13.4,8.8-18,22.5-19.2,33.8-1.1,7.7,4.1,12.5,6,16.3h0c2.4,4.7,2.6,10.1.6,14.9-3.4,8.1-10.2,19-22,35.1l-21,25.8c-4.1,4.2-10.7,4.4-15.1.5l-4.8-4.3,12.7-5.1c4.6-1.8,6.9-7.1,5.1-11.7l-.8-2.1c4.3-3.5,8.9-9.5,10.4-17.7,3.6-.5,7.2-.6,10.7-.5,3.4,0,6.4-1.8,8-4.9l10.2-20.3c1.2-2.4,0-5.4-2.7-6.1-13.7-3.5-34.2-1.6-36.8-1.3-7.3-7.5-16.5-9.7-23-9.7l-3.4-9c-.8-2.2-2.4-4-4.5-4.9-2.1-1-4.5-1-6.6-.2L5.4,51.7c-4.3,1.7-6.4,6.5-4.8,11l24.9,62.1h0ZM52.5,43.3l5.8,15.2,3.6-.5c.4,0,6.1-.8,12.2,2.1-.2,0-.4,0-.6,0-1.8.3-5.3.6-7.7,1-.6,0-1.1.6-1,1.2l10.7,35.4c0,.6.7,1.3,1.3.9,3.8-2.2,7.5-3.7,11-4.9-2.5,6.2-7.3,9.3-8.2,9.8l-3.4,1.9,3.4,9.1-42,16.8L9.2,59.9s43.3-16.7,43.3-16.7Z"/>
      <polygon class="st0" points="46.5 100.3 54.3 97.2 51.3 89.4 59.1 86.4 56 78.6 48.2 81.7 45.2 73.8 37.4 76.9 40.4 84.7 32.6 87.8 35.7 95.6 43.5 92.5 46.5 100.3"/>
    </g>
  </g>
</svg>