<?xml version="1.0" encoding="UTF-8"?>
<svg id="Layer_2" data-name="Layer 2" xmlns="http://www.w3.org/2000/svg" viewBox="0 0 258.36 215.06">
  <defs>
    <style>
      .cls-1 {
        fill: #b12025;
      }
    </style>
  </defs>
  <g id="Layer_1-2" data-name="Layer 1">
    <g>
      <path class="cls-1" d="M25.41,124.72l-11.35,33.1,8.05,5.03,20.94-23.77,1.45-.58c.29.21.47.64.34,1.19l-9.06,20.39c-.08.35,0,.7.23.97,2.62,3.08,25.59,19.28,48.07,19.22,35.28-.08,42.87-27.5,69.05-27.35,23.41.14,50.4,42.66,58.98,57.26.93,1.58,2.23,2.94,3.86,3.77,4.1,2.08,8.75,1.07,11.58-2.02l30.5-33.21c.36-.39.4-.99.09-1.42l-5.05-7.12c-.33-.47-.96-.61-1.47-.34l-23.5,12.77c-1.11.6-2.22-.78-1.4-1.74l11.98-13.86c.34-.4.37-.99.06-1.42-8.51-11.92-17.25-21.49-26.03-27.95-15.79-11.64-32.51-16.28-32.51-16.28v-2.35s44.45,2.49,75.14-35.91c.31-.39.34-.95.06-1.36l-17.2-25.48c-.4-.6-1.24-.68-1.74-.17-5.02,5.17-29.15,28.72-53.57,30.31-.64.04-1.19-.48-1.21-1.12l-.11-4.13c-.01-.48.29-.91.75-1.08,14.01-5.06,23.99-17.95,23.99-33.1,0-7.03-2.15-13.57-5.85-19.07-.37-.55-.21-1.28.36-1.61l13.43-7.7c.56-.32.74-1.03.4-1.58l-6.1-9.87c-.21-.34-.58-.54-.97-.54l-18.29.16c-.24,0-.47-.08-.66-.22-12.42-9.16-31.09-8.19-42.82-.53-13.43,8.76-17.97,22.5-19.22,33.81-1.07,7.74,4.05,12.52,5.98,16.3l.03.06c2.36,4.63,2.64,10.06.62,14.85-3.41,8.1-10.19,19.01-22.04,35.09l-20.98,25.79c-4.06,4.19-10.72,4.41-15.05.49l-4.75-4.3,12.74-5.1c4.59-1.84,6.9-7.12,5.13-11.74l-.79-2.07c4.29-3.5,8.87-9.48,10.39-17.66,3.64-.47,7.19-.58,10.7-.5,3.36.08,6.45-1.85,7.96-4.86l10.22-20.32c1.23-2.44-.08-5.43-2.72-6.1-13.7-3.51-34.17-1.62-36.81-1.35-7.35-7.48-16.47-9.72-22.97-9.72l-3.44-8.96c-.78-2.18-2.43-3.97-4.54-4.92-2.11-.95-4.54-1-6.64-.17L5.36,51.69c-4.29,1.71-6.44,6.46-4.82,10.98l24.87,62.06ZM52.47,43.26l5.85,15.17,3.58-.51c.41-.06,6.06-.79,12.25,2.12-.19.03-.37.05-.57.08-1.8.26-5.31.6-7.73.98-.62.1-1.05.64-.97,1.24l10.74,35.39c.08.6.72,1.26,1.28.94,3.84-2.16,7.51-3.73,11.04-4.88-2.46,6.2-7.27,9.27-8.18,9.8l-3.39,1.91,3.43,9.11-41.97,16.75L9.19,59.92l43.28-16.66Z"/>
      <polygon class="cls-1" points="46.54 100.3 54.33 97.24 51.27 89.44 59.07 86.38 56.02 78.59 48.22 81.65 45.16 73.85 37.37 76.91 40.43 84.71 32.63 87.77 35.68 95.56 43.48 92.5 46.54 100.3"/>
    </g>
  </g>
</svg>