<svg xmlns="http://www.w3.org/2000/svg" viewBox="0 0 110.53 110.53"><defs><style>.cls-1{fill:#ececec;}.cls-2{fill:#1e120d;}.cls-3{fill:#fff;}.cls-4{fill:none;stroke:#1e120d;stroke-miterlimit:10;stroke-width:0.98px;}.cls-5{fill:#ffc2b0;}</style></defs><g id="Layer_2" data-name="Layer 2"><g id="OBJECTS"><circle class="cls-1" cx="55.27" cy="55.27" r="55.27"/><path class="cls-2" d="M64.65,18.3c-13.22-4.41-28,.88-35,11.87C21.8,42.5,19.24,58.1,19.24,73.07H91.29S89.88,53.32,86.67,45C84.53,39.44,81.67,24,64.65,18.3Z"/><path class="cls-3" d="M84,61.28c0,2.42-2.94,5.85-6.33,4.86-2.32-.67-5.3-2.44-5.3-4.86s3.39-4.86,5.82-4.86C82.13,56.42,84,58.85,84,61.28Z"/><path class="cls-3" d="M26.15,61.28c0,2.42,3,5.85,6.33,4.86,2.33-.67,5.3-2.44,5.3-4.86S34.39,56.42,32,56.42C28.06,56.42,26.15,58.85,26.15,61.28Z"/><path class="cls-3" d="M78.2,55c.43,16.91-7.57,33.08-21.48,33.44s-24-14.09-24.39-31S41.24,27.5,55.15,27.15,77.77,38.05,78.2,55Z"/><path class="cls-2" d="M79.17,63.44c.26-.89.64-1.62.8-2.31a1.65,1.65,0,0,0,0-.91,2.86,2.86,0,0,0-.72-.92,1.57,1.57,0,0,1,1.37.5,1.75,1.75,0,0,1,.31,1.56,3,3,0,0,1-.67,1.25A2.91,2.91,0,0,1,79.17,63.44Z"/><path class="cls-2" d="M31.36,63.44a3.08,3.08,0,0,1-1.09-.83,3,3,0,0,1-.66-1.25,1.75,1.75,0,0,1,.31-1.56,1.55,1.55,0,0,1,1.36-.5,3.18,3.18,0,0,0-.72.92,1.57,1.57,0,0,0,0,.91C30.73,61.82,31.1,62.55,31.36,63.44Z"/><polyline class="cls-4" points="55.74 56.36 58.38 61.82 55.18 63.89"/><path class="cls-2" d="M46.13,55.17A1,1,0,1,1,45.2,54,1.08,1.08,0,0,1,46.13,55.17Z"/><path class="cls-2" d="M66.81,55.17A1,1,0,1,1,65.88,54,1.09,1.09,0,0,1,66.81,55.17Z"/><path class="cls-4" d="M53.11,69.39a4.19,4.19,0,0,0,4.15,3.25,3.76,3.76,0,0,0,4.05-3.25"/><circle class="cls-5" cx="41.6" cy="63.89" r="4.54"/><path class="cls-5" d="M74,63.89a4.54,4.54,0,1,1-4.54-4.54A4.53,4.53,0,0,1,74,63.89Z"/><path class="cls-2" d="M32,56.42s12.87-6.83,23.49-28c0,0,7.65,17.59,22.76,28,0,0,1.16-33.91-23.12-33.91S32,56.42,32,56.42Z"/></g></g></svg>