<?xml version="1.0" encoding="UTF-8"?>
<svg id="Layer_2" data-name="Layer 2" xmlns="http://www.w3.org/2000/svg" viewBox="0 0 1022.61 552.73">
  <defs>
    <style>
      .cls-1 {
        fill: #fff;
      }

      .cls-2 {
        fill: #e60013;
      }
    </style>
  </defs>
  <g id="W">
    <g>
      <g>
        <g>
          <path class="cls-1" d="M355.26,534.95v3.66h-38.52v-3.66h38.52ZM353.68,518.08h-35.4v-3.57h15.4v-4.04h4.52v4.04h15.49v3.57ZM319.09,542.13h33.46v10.6h-4.51v-6.89h-28.94v-3.71ZM324.15,521.6c2.89-.98,6.83-1.47,11.83-1.47s8.94.49,11.83,1.47c2.89.98,4.34,2.49,4.34,4.52s-1.45,3.53-4.34,4.51c-2.89.98-6.83,1.47-11.83,1.47s-8.94-.49-11.83-1.47c-2.89-.98-4.34-2.49-4.34-4.51s1.45-3.53,4.34-4.52ZM344.45,524.23c-2.15-.43-4.98-.64-8.47-.64s-6.31.21-8.47.64c-2.15.43-3.23,1.05-3.23,1.88s1.07,1.49,3.21,1.9c2.14.41,4.97.62,8.49.62s6.35-.21,8.49-.62c2.14-.41,3.21-1.05,3.21-1.9s-1.08-1.45-3.23-1.88Z"/>
          <path class="cls-1" d="M387.27,528.15c-.96,1.55-2.34,2.77-4.13,3.64-1.79.87-3.88,1.31-6.25,1.31s-4.46-.44-6.23-1.31c-1.78-.87-3.14-2.08-4.11-3.64-.97-1.55-1.45-3.33-1.45-5.32s.48-3.77,1.45-5.32c.96-1.55,2.33-2.76,4.11-3.64,1.78-.87,3.85-1.31,6.23-1.31s4.46.44,6.25,1.31c1.79.87,3.17,2.08,4.13,3.64.96,1.55,1.44,3.33,1.44,5.32s-.48,3.77-1.44,5.32ZM368.62,536.38h32.37v15.78h-32.37v-15.78ZM371.54,527.47c1.34,1.13,3.12,1.69,5.35,1.69s4.01-.56,5.35-1.69c1.34-1.12,2.01-2.67,2.01-4.63s-.67-3.51-2.01-4.63c-1.34-1.13-3.12-1.69-5.35-1.69s-4.01.56-5.35,1.69c-1.34,1.13-2.01,2.67-2.01,4.63s.67,3.51,2.01,4.63ZM373.09,548.16h23.43v-7.79h-23.43v7.79ZM401,512.09v22.05h-4.42v-4.32h-6.82l.27-4.09h6.55v-5.99h-6.55l-.27-4.09h6.82v-3.56h4.42Z"/>
          <path class="cls-1" d="M451.16,546.31v4.42h-38.52v-4.42h16.93v-11.36h4.56v11.36h17.02ZM423.39,533.86c-3.16,2.06-6.49,3.09-9.98,3.09v-4.47c2.74,0,5.36-.89,7.88-2.69,2.51-1.79,4.66-4.23,6.46-7.32,1.79-3.09,3.02-6.49,3.68-10.19l4.6.86c-.54,3.01-1.41,5.86-2.62,8.55l16.89,11.64-2.44,3.75-16.43-11.64c-2.2,3.55-4.88,6.35-8.04,8.41Z"/>
          <path class="cls-1" d="M499.11,546.41v4.33h-38.52v-4.33h8.85v-10.98c-2.23-1.08-3.95-2.49-5.17-4.25-1.22-1.76-1.83-3.76-1.83-6.01,0-2.47.71-4.64,2.14-6.51,1.43-1.87,3.46-3.31,6.1-4.33,2.63-1.01,5.68-1.52,9.14-1.52s6.51.51,9.14,1.52c2.63,1.01,4.66,2.46,6.09,4.33,1.43,1.87,2.14,4.04,2.14,6.51,0,2.25-.61,4.25-1.83,6.01s-2.93,3.16-5.13,4.21v11.03h8.85ZM468.77,529.37c1.05,1.22,2.54,2.16,4.45,2.83,1.91.67,4.12,1,6.62,1s4.71-.33,6.64-1c1.93-.67,3.42-1.61,4.47-2.83,1.05-1.22,1.58-2.62,1.58-4.21s-.53-3.03-1.58-4.25c-1.05-1.22-2.54-2.16-4.47-2.83-1.93-.67-4.14-1-6.64-1s-4.7.33-6.62,1c-1.91.66-3.39,1.61-4.45,2.83-1.05,1.22-1.58,2.64-1.58,4.25s.53,2.99,1.58,4.21ZM473.92,546.41h11.88v-9.51c-1.81.38-3.79.57-5.96.57s-4.11-.19-5.92-.57v9.51Z"/>
          <path class="cls-1" d="M510.76,529.44h17.25v-11.55h-17.34v-4.32h21.81v20.2h-17.25v12.17h11.29c1.84,0,3.66-.17,5.48-.52,1.82-.35,3.32-.82,4.49-1.43v4.32c-1.14.6-2.64,1.08-4.47,1.43-1.84.35-3.72.52-5.64.52h-15.62v-20.82ZM540.06,512.09h4.47v40.59h-4.47v-40.59Z"/>
          <path class="cls-1" d="M581.97,533.65c-2.2,1.57-4.71,2.51-7.54,2.83v-4.32c3.19-.48,5.75-2.05,7.67-4.73,1.93-2.68,2.99-6.08,3.21-10.19h-10.39v-4.09h24.61v4.09h-9.71c-.09,2.09-.42,4.17-.99,6.23l11.83,9.27-2.53,3.42-10.88-8.7c-1.32,2.57-3.09,4.63-5.28,6.2ZM610.77,547.93v4.23h-33.64v-12.93h4.56v8.7h29.08ZM605.49,521.69v-9.6h4.47v30.18h-4.47v-16.45h-7.5v-4.13h7.5Z"/>
          <path class="cls-1" d="M660.12,532.91v3.99h-17.02v6.99h-4.51v-6.99h-16.98v-3.99h38.52ZM628.84,548.16h29.35v4.04h-33.86v-11.83h4.51v7.79ZM657.33,528.82h-32.96v-16.26h32.96v16.26ZM652.86,516.46h-24.02v8.46h24.02v-8.46Z"/>
          <path class="cls-1" d="M677.85,531.2c-2.21,1.39-4.72,2.23-7.52,2.52v-4.23c3.16-.44,5.7-1.77,7.61-3.97,1.91-2.2,3-4.98,3.27-8.34h-10.38v-4.04h24.61v4.04h-9.75c-.09,1.74-.38,3.33-.86,4.75l11.87,7.89-2.21,3.52-11.33-7.65c-1.32,2.28-3.09,4.12-5.3,5.51ZM673.04,536.76h32.83v15.4h-32.83v-15.4ZM677.51,548.16h23.89v-7.46h-23.89v7.46ZM705.86,512.09v22.43h-4.47v-10.69h-7.5v-4.09h7.5v-7.65h4.47Z"/>
        </g>
        <g>
          <g>
            <path class="cls-1" d="M229.75,488.73l-4.65.2-5.86-.6-2.83.81h-6.87l-4.85-.4-5.05.81c-.81-.54-1.68-1.21-2.63-2.02-.94-.81-1.55-1.35-1.82-1.62-.68-.67-1.42-1.55-2.22-2.63v-7.07l-.2-3.23c.67-.68,1.14-1.21,1.42-1.62.27-.4.6-.68,1.01-.81v-3.23c0-.67.13-1.48.4-2.42.13-.67.17-1.35.1-2.02-.07-.67.03-1.28.3-1.82-.4-1.62-.54-3.23-.4-4.85.13-.67.13-1.41,0-2.22-.14-.81-.07-1.55.2-2.22,0-.54-.07-1.18-.2-1.92-.14-.74-.07-1.58.2-2.53v-2.12c0-1.01.06-1.85.2-2.53-.14-.27-.2-.74-.2-1.41s-.07-1.28-.2-1.82c.4-1.88.33-3.3-.2-4.24-.27-.54-.61-1.01-1.01-1.41-.4.13-1.01.47-1.82,1.01-.68.27-1.42.44-2.22.5-.81.07-1.55.24-2.22.51h-1.72c-.47,0-.84.14-1.11.4-1.21.27-2.36.61-3.43,1.01-1.21-.27-2.16-.27-2.83,0-1.21,0-2.22-.2-3.03-.61-.27-.13-.88-.67-1.82-1.61-.94-.94-1.62-1.55-2.02-1.82-.27-.67-.61-1.11-1.01-1.31s-.88-.64-1.41-1.31c-.4-.54-.78-1.08-1.11-1.62-.34-.54-.84-1.14-1.51-1.82-.14-.27-.44-.71-.91-1.31-.47-.6-.71-1.11-.71-1.51-.54-.94-1.01-1.78-1.41-2.53-.41-.74-.68-1.52-.81-2.32-.4-.81-.44-1.58-.1-2.32.33-.74.84-1.31,1.51-1.72.13-.27.71-.41,1.72-.41s1.85-.13,2.52-.4h3.03c.94,0,1.68.07,2.22.2l4.44-.4,3.64.2,3.84-.4,3.84.4,4.44-.2h3.64l3.64.81,4.04-.2,4.44.2,4.24.2,4.04.4,4.24-.4c.67.13,1.24.13,1.72,0,.47-.13.84-.07,1.11.2.67.14,1.28.1,1.82-.1.54-.2,1.21-.44,2.02-.71,1.35-.27,2.49-.37,3.43-.3.94.07,1.95.1,3.03.1v-3.64l.2-3.43-.2-4.65.61-3.43-.2-1.82-4.04-1.01-3.64.81-3.64-.81-11.31.61c-1.08-1.08-1.89-2.15-2.43-3.23-.81-.13-1.41-.2-1.82-.2h-1.41c-.27-.67-1.01-1.51-2.22-2.52s-2.22-1.85-3.03-2.53c.27-.67.4-1.38.4-2.12s.13-1.45.4-2.12c-.27-.81-.34-1.55-.2-2.22.13-.67.13-1.41,0-2.22,0-.67.03-1.28.1-1.82.07-.54.17-1.14.3-1.82-.54-1.48-.68-3.03-.41-4.65.27-.67.34-1.31.2-1.92-.14-.61-.07-1.24.2-1.92-.27-.54-.41-1.14-.41-1.82v-4.44c0-.67.13-1.21.41-1.62,0-.94-.1-1.78-.3-2.52-.2-.74-.17-1.45.1-2.12l.2-4.04c-.54-.54-1.05-1.11-1.52-1.72-.47-.6-.98-1.24-1.52-1.92-.27-.67-.54-1.31-.81-1.92-.27-.61-.74-1.11-1.41-1.52-.68-1.21-1.28-2.22-1.82-3.03-1.08-1.75-1.48-3.1-1.21-4.04,1.21-.27,2.46-.47,3.74-.6,1.28-.13,2.32-.07,3.13.2.41-.27.98-.4,1.72-.4s1.51-.13,2.32-.4c.67,0,1.45.17,2.32.5.87.34,1.72.44,2.52.3l8.08,2.63,1.82,4.04,2.42,3.64.2,2.42-.2,2.43,3.23-1.01h3.64l3.23.4,5.45-.61,1.82.4c.54-.13,1.08-.27,1.62-.4.54-.13,1.21-.13,2.02,0,.94-.13,1.95-.07,3.03.2.81-.27,1.45-.34,1.92-.2.47.14,1.11.27,1.92.4.67-.4,1.31-.54,1.92-.4.61.14,1.38.07,2.32-.2.67.14,1.31.24,1.92.3.61.07,1.45-.03,2.53-.3.27,0,.74.04,1.41.1.67.07,1.28.24,1.82.5.81-.27,1.55-.47,2.22-.61.67-.13,1.21-.2,1.62-.2h7.27c.67,0,1.21.13,1.62.4.4.27,1.08.27,2.02,0,.67-.13.98-.17.91-.1-.07.07.17.1.71.1l.2-4.04-.2-3.43-1.41-3.64-2.22-2.83c-.14-.27.1-.54.71-.81.61-.27,1.31-.57,2.12-.91.81-.34,1.62-.71,2.43-1.11.81-.41,1.34-.88,1.62-1.42l3.23.81,5.45,1.82,3.64.2c.67.81,1.51,1.65,2.52,2.53,1.01.88,1.99,1.79,2.93,2.73-.13.54-.27,1.08-.4,1.62-.14.54-.2,1.08-.2,1.62l.41,4.04.2,4.65-.4,3.43-.4,4.44.4,3.64-.4,4.85v4.44l.61,3.84-.41,4.44v4.24l.41,4.24c-.14.27-.2.58-.2.91s-.07.64-.2.91c0,.54-.4,1.21-1.21,2.02s-1.42,1.48-1.82,2.02c-1.48.94-3.23,1.15-5.25.61-.4.14-.84.24-1.31.3-.47.07-1.04-.03-1.72-.3-1.48.54-2.83.61-4.04.2-1.08.13-1.92.17-2.52.1-.61-.07-1.18.1-1.72.51-.94,0-1.72-.1-2.32-.3-.61-.2-1.18-.23-1.72-.1-.68-.13-1.38-.23-2.12-.3-.74-.07-1.45-.03-2.12.1-.54,0-1.21-.03-2.02-.1-.81-.07-1.55-.1-2.22-.1l-5.66.2-1.42.2.2,2.83.61,3.43-.81,4.04.81,5.05-.4,2.43,2.42-.2,4.04.4,4.04-.4,4.44.4,4.44.2,3.43-.4,4.44.2h4.24l4.04.2,4.65-1.21,3.43-.2,4.44.2,4.24.2c1.48.14,2.79.2,3.94.2s2.05-.27,2.73-.81c.67.68,1.52.98,2.53.91,1.01-.07,1.99.17,2.93.71.67.27,1.51.74,2.53,1.41,1.01.68,1.72,1.28,2.12,1.82.4.27.84.74,1.31,1.41.47.68.84,1.15,1.11,1.42.67.81,1.21,1.75,1.62,2.83.13.54.2,1.69.2,3.43,0,1.08-.2,1.75-.61,2.02-.4.27-1.08.94-2.02,2.02.27.4.1.98-.51,1.72-.6.74-1.25,1.25-1.92,1.52-.68,0-1.38.3-2.12.91-.74.61-1.31,1.18-1.72,1.72l-4.24.61-4.04-.61c-.27,0-.64-.03-1.11-.1-.47-.07-.98-.23-1.52-.51-.54,0-1.11-.17-1.72-.5-.61-.34-1.25-.57-1.92-.71-.67-.27-1.41-.54-2.22-.81-.81-.27-1.62-.4-2.43-.4-.54-.27-1.15-.88-1.82-1.82-.68-.94-1.55-1.34-2.63-1.21l-4.04-.2-4.85-.4-4.65.6-4.44-1.82-3.23.61-2.83-.2-3.84.2h-3.84l-4.85.4h-3.43l-5.05-.2-3.84.2-3.64-.2-4.65-.2-3.84.2-4.44.81-4.04-.2-3.64.2-4.44-.61-4.04.4-3.23.2c0,.67-.14,1.28-.4,1.82l.61,3.64v4.04l-.2,2.83.4,3.84-.2,4.24v7.68l.2,4.65-.61,2.42.2,1.82c.4.4.71.77.91,1.11.2.34.44.51.71.51h11.92l3.43.4,4.04-.2,4.24-.2,2.63-.4,3.43,2.63,2.83-1.42,3.84-2.02,3.84.2h8.48l4.44-.61c1.35,1.08,2.96,1.34,4.85.81.54.27,1.21.44,2.02.51.81.07,1.55.03,2.22-.1l4.65-.2,4.85-.4c.67.13,1.38.17,2.12.1.74-.07,1.38-.17,1.92-.3h2.12c.61,0,1.38-.14,2.32-.4,1.08.13,1.89.13,2.43,0,.54-.14,1.34-.34,2.42-.61,1.75-.4,3.06-.64,3.94-.71.88-.07,1.78.24,2.73.91.54-.67,1.28-.94,2.22-.81.94.14,1.55.27,1.82.4,1.88.67,3.43,1.08,4.65,1.21.4.27,1.01.98,1.82,2.12.81,1.14,1.41,1.85,1.82,2.12.27.4.37,1.01.3,1.82-.07.81-.03,1.41.1,1.82.13.27.2.77.2,1.52s.13,1.24.4,1.51c-.13.94-.27,1.72-.4,2.32-.14.6-.27,1.24-.4,1.92-.27.67-.68,1.38-1.21,2.12-.54.74-1.01,1.52-1.41,2.32-.4-.14-1.21,0-2.43.4-1.21.4-2.29.81-3.23,1.21l-4.44.2-4.24-.2-4.85-.2-3.64.81-3.64-1.82-4.04.4-4.24-.6-3.43-.2-3.84.4-4.44.2-4.04-.2-3.84-.2-7.27.4-4.65-.2-4.04-.2-3.84.2-4.04.4h-7.68l-4.85-.2ZM244.09,379.85c.4.54.81,1.01,1.21,1.41s.87.94,1.41,1.62c.67-.67,1.28-1.24,1.82-1.72.54-.47.94-.98,1.21-1.52.67.27,1.55.4,2.63.4h2.22c.81.68,1.45,1.15,1.92,1.42.47.27.84.61,1.11,1.01.4-.54.81-.91,1.21-1.11.41-.2.74-.57,1.01-1.11.67,0,1.38-.07,2.12-.2.74-.13,1.45-.33,2.12-.6,1.08,0,1.82.1,2.22.3.4.2,1.01.17,1.82-.1,1.08.54,1.82.81,2.22.81.54.27.97.4,1.31.4s.64.2.91.61l2.22-.2,1.41.2,2.83-2.63,1.01-3.23-.4-2.83v-4.04c-.27.14-.51.3-.71.5s-.84.17-1.92-.1h-1.21c-.13,0-.4-.07-.81-.2-.94.27-1.62.37-2.02.3-.41-.07-.88-.23-1.42-.5-.67,0-.88.03-.61.1.27.07.07.04-.6-.1-.95.27-1.69.37-2.22.3-.54-.07-1.28-.03-2.22.1-.54.14-1.15.24-1.82.3-.67.07-1.21-.03-1.62-.3-.67,0-1.31.03-1.92.1-.61.07-1.11-.1-1.52-.5-1.08,0-1.92.07-2.53.2-.61.14-1.11.07-1.51-.2l-6.06.2c-1.08-.27-2.02-.33-2.83-.2-.81.14-1.41.07-1.82-.2l-5.45-.2c-.67.4-1.38.6-2.12.6s-1.72.14-2.93.41l-2.02-.41h-3.23l-5.05-.2-.4,4.24.61,2.63v2.63l-.61,2.63,4.04.4c1.62-.81,2.83-.81,3.64,0,.81-.13,1.45-.2,1.92-.2s1.04-.13,1.72-.41c.27.27.54.41.81.41s.81-.13,1.62-.41c.67,0,1.31.1,1.92.3.61.2,1.45.3,2.53.3.54-.67.97-.94,1.31-.81.33.13.84-.13,1.51-.81v.2Z"/>
            <path class="cls-1" d="M388.93,429.14l2.22-2.63c-.27-.54-.54-.98-.81-1.31-.27-.34-.67-.71-1.21-1.11,0-1.08.27-1.78.81-2.12.54-.34.88-.91,1.01-1.72l.2-3.23.4-3.23c.27-.67.44-1.28.51-1.82.07-.54.1-1.21.1-2.02-.68-1.35-.68-2.56,0-3.64-.14-.81-.3-1.55-.51-2.22-.2-.67-.3-1.35-.3-2.02.27-.94.43-1.72.5-2.32.07-.61.17-1.38.3-2.32,0-.41-.07-.94-.2-1.62-.13-.67-.34-1.21-.6-1.62.27-.67.47-1.45.6-2.32.13-.88.13-1.52,0-1.92-.27-.81-.44-1.52-.5-2.12-.07-.61-.03-1.31.1-2.12l.2-1.01-.2-1.01c.13-.67.23-1.08.3-1.21.07-.13-.03-.54-.3-1.21.27-.67.34-1.75.2-3.23-.94-.67-1.62-1.41-2.02-2.22-1.62-.67-2.56-1.41-2.83-2.22-.54-.27-1.11-.27-1.72,0-.61.27-1.11.4-1.52.4-1.08-.27-1.69-.44-1.82-.51-.14-.07-.68-.03-1.62.1l-5.25,2.63-3.84,1.01-3.84,1.62-3.43,1.01c-.95-.13-1.82-.23-2.63-.3-.81-.07-1.55.03-2.22.3-.81.14-1.59.14-2.32,0-.74-.13-1.59-.13-2.53,0-.4-.4-.84-.94-1.31-1.62-.47-.67-1.25-1.35-2.32-2.02-.94.27-1.82.34-2.63.2-.41-.27-.81-.54-1.21-.81-.4-.27-.81-.67-1.21-1.21-.4-.27-.94-.64-1.62-1.11-.67-.47-1.14-.84-1.41-1.11,0-.27-.03-.84-.1-1.72-.07-.87-.1-1.75-.1-2.63v-4.14c.41-.4.91-.84,1.52-1.31.61-.47,1.24-.71,1.92-.71.94-.27,2.29-.13,4.04.4.54-.4,1.18-.67,1.92-.81.74-.13,1.52-.2,2.32-.2.67,0,1.31.07,1.92.2.61.14,1.18.2,1.72.2,1.21.27,2.19.37,2.93.3.74-.07,1.38-.17,1.92-.3.67-.13,1.38-.3,2.12-.51.74-.2,1.24-.17,1.51.1.67-.27,1.24-.43,1.72-.5.47-.07.97-.23,1.51-.51.54-.27,1.01-.4,1.42-.4s.94-.13,1.61-.4c2.02-.67,3.57-.94,4.65-.81.54-.27,1.28-.33,2.22-.2.94.13,1.82.27,2.63.4.94-.67,1.92-.94,2.93-.81,1.01.13,1.65.2,1.92.2,1.08-.67,1.92-1.04,2.53-1.11.61-.07,1.04-.17,1.31-.3l1.01-1.01c.94,0,1.68-.07,2.22-.2.54-.13,1.41-.07,2.63.2.54.27,1.21.34,2.02.2.81-.13,1.55-.33,2.22-.61l3.23,1.62,3.43,1.01c.41.54.84,1.01,1.31,1.41.47.4.91.81,1.31,1.21.27.54.67,1.21,1.21,2.02.54.81,1.28,1.48,2.22,2.02-.14.94-.24,1.89-.3,2.83-.07.94-.17,1.95-.3,3.03l.2,3.64v4.44l.4,4.04c-.4,1.08-.51,1.92-.3,2.53.2.6.17,1.31-.1,2.12.13.81.17,1.45.1,1.92-.07.47-.1,1.04-.1,1.72v4.65c-.27.81-.34,2.02-.2,3.64.27.67.4,1.35.4,2.02s-.07,1.35-.2,2.02c.13.67.17,1.31.1,1.92-.07.61.03,1.25.3,1.92-.14.67-.3,1.45-.51,2.32-.2.88-.17,1.58.1,2.12-.27.68-.34,1.31-.2,1.92.13.61.2,1.38.2,2.32,0,.4.07,1.05.2,1.92.13.88.2,1.65.2,2.32-.14.54-.24,1.05-.3,1.52-.07.47-.03,1.18.1,2.12,0,1.21-.2,2.43-.61,3.64.27,1.08.41,1.96.41,2.63s.13,1.28.4,1.82c0,.68-.03,1.35-.1,2.02-.07.68-.1,1.42-.1,2.22-.27.68-.37,1.35-.3,2.02.07.68.1,1.48.1,2.43,0,.67.03,1.35.1,2.02.07.67-.03,1.35-.3,2.02.13.68.2,1.31.2,1.92s.07,1.18.2,1.72c-.81.81-1.48,1.52-2.02,2.12-.54.6-.94,1.11-1.21,1.51.13.4.07,1.28-.2,2.63-.27,1.21-.64,2.22-1.11,3.03-.47.81-.84,1.62-1.11,2.43-.14.67-.37,1.52-.71,2.53-.34,1.01-.64,1.85-.91,2.52-.4.41-1.08.68-2.02.81-.94.13-1.62.27-2.02.4-.41.14-1.01.24-1.82.3-.81.07-1.65.1-2.53.1s-1.75.04-2.63.1c-.88.07-1.58.1-2.12.1-.68-.94-1.15-2.09-1.41-3.43-.27-.27-.74-.67-1.42-1.21-.67-.54-1.21-1.21-1.62-2.02.27-.67.37-1.38.3-2.12-.07-.74-.17-1.58-.3-2.53,0-1.08.03-1.92.1-2.52.07-.61.17-1.31.3-2.12-.14-.81-.2-1.58-.2-2.32s-.14-1.45-.4-2.12c.67-1.08,1.31-1.89,1.92-2.43.6-.54,1.04-1.14,1.31-1.82-.27-.41-.71-.81-1.31-1.21-.61-.4-1.18-.81-1.72-1.21l.41-5.25.2-5.05ZM505.48,388.94c-.41.27-1.01,1.01-1.82,2.22-.81,1.21-1.35,1.96-1.62,2.22-.94,1.21-2.09,2.02-3.43,2.43-.27.67-.68,1.14-1.21,1.41-.54.27-1.08.74-1.62,1.41-.54.14-1.25.1-2.12-.1-.88-.2-1.65-.17-2.32.1-.54.68-1.18,1.21-1.92,1.62-.74.4-1.45.88-2.12,1.42-.54.13-1.18.2-1.92.2s-1.45.07-2.12.2c-.68-.13-1.35-.2-2.02-.2s-1.61.14-2.83.4c-.81-.13-1.59-.27-2.32-.4-.74-.13-1.65-.07-2.73.2-.81-.4-1.51-.57-2.12-.51-.61.07-1.45-.03-2.53-.3-.4.54-.74.71-1.01.51-.27-.2-.61-.23-1.01-.1-.27.27-.47.57-.61.91-.14.34-.34.51-.61.51.27.67.3,1.25.1,1.72-.2.47-.3,1.05-.3,1.72,0,.81-.1,1.25-.3,1.31-.2.07-.3.44-.3,1.11.27.81.37,1.51.3,2.12-.07.61.03,1.18.3,1.72.13.67.1,1.35-.1,2.02-.2.67-.3,1.35-.3,2.02,0,.4.07.94.2,1.62.13.67.27,1.41.4,2.22,0,.67-.07,1.38-.2,2.12-.14.74,0,1.31.4,1.72-.4.54-.57,1.28-.51,2.22.07.94.23,1.62.51,2.02l-.2,5.05-.61,4.24c.27.4.37,1.04.3,1.92-.07.88.03,1.51.3,1.92v2.22c0,.81-.13,1.55-.4,2.22.27.68.37,1.38.3,2.12-.07.74-.1,1.38-.1,1.92.27.95.37,1.75.3,2.43-.07.67-.17,1.48-.3,2.42,0,.94-.07,1.69-.2,2.22-.14.54-.2,1.15-.2,1.82l.41,5.45-.61,4.44c.4.94.54,1.72.4,2.32-.14.61-.14,1.38,0,2.32,0,.81-.03,1.65-.1,2.53-.07.87-.04,1.65.1,2.32-.4.54-1.04,1.14-1.92,1.82-.88.67-1.31,1.08-1.31,1.21-.54.67-1.01,1.21-1.41,1.62s-.88.94-1.41,1.62c-.68.27-1.18.67-1.52,1.21-.34.54-.84,1.01-1.52,1.41-.67-.13-1.35-.24-2.02-.3-.67-.07-1.41-.24-2.22-.5-.4,0-1.04.03-1.92.1-.88.07-1.82.1-2.83.1s-1.95.03-2.83.1c-.88.07-1.45.17-1.72.3-.81-.95-1.28-1.85-1.41-2.73-.14-.88-.07-1.38.2-1.51,0-.68.17-1.35.51-2.02.33-.67.97-1.75,1.92-3.23.27-.68.37-1.28.3-1.82-.07-.54-.04-1.35.1-2.42-.14-.81-.2-1.55-.2-2.22s-.07-1.55-.2-2.63l.2-2.83.2-3.23c-.27-.67-.34-1.31-.2-1.92.13-.61.13-1.24,0-1.92-.27-.67-.34-1.38-.2-2.12.13-.74.2-1.45.2-2.12-.27-.4-.37-.91-.3-1.51.07-.61.1-1.38.1-2.32.27-.27.33-.77.2-1.52-.13-.74-.27-1.38-.4-1.92l-.4-5.05-.2-4.44v-4.04l.61-4.24.2-4.44-.61-3.43.4-3.84v-4.04l.2-4.85-.41-4.04.41-3.43v-4.44l-.2-4.04.2-4.44.4-4.04c.13-.67.13-1.31,0-1.92-.14-.61-.2-1.24-.2-1.92.13-1.34-.07-3.03-.61-5.05l.41-4.65-.61-3.84v-4.24l-.2-4.24-.4-3.43v-3.23c.4-1.08.44-1.89.1-2.43-.34-.54-.91-1.01-1.72-1.41,0-.81-.07-1.78-.2-2.93-.13-1.14-.2-2.05-.2-2.73-.41-.81-.78-1.45-1.11-1.92-.34-.47-.91-.84-1.72-1.11-.4-.54-.84-1.28-1.31-2.22-.47-.94-1.11-1.68-1.92-2.22-.4-.67-.67-1.21-.81-1.62-.14-.4-.47-.94-1.01-1.62.4-.4.81-.91,1.21-1.52.41-.61.74-.91,1.01-.91.67.27,1.82.34,3.43.2,1.62-.13,2.83-.2,3.64-.2.81-.27,1.48-.4,2.02-.4s1.35.14,2.43.4c.67,0,1.24-.03,1.72-.1.47-.07.98.03,1.51.3,1.35.54,2.56,1.35,3.64,2.42.4.41.81.88,1.21,1.42.41.54,1.01.94,1.82,1.21.27.54.94,1.21,2.02,2.02,1.08.81,1.95,1.41,2.63,1.82.27.27.64.78,1.11,1.52.47.74.98,1.31,1.52,1.72,0,1.21-.07,2.16-.2,2.83.81.27,1.24.67,1.31,1.21.06.54.23,1.15.5,1.82,0,.68-.14,1.18-.4,1.52-.27.34-.54.64-.81.91-.13.54-.1.91.1,1.11s.64.57,1.31,1.11l-.41,3.23v3.03c-.67,1.48-1.14,2.56-1.41,3.23-.27.68-.4,1.48-.4,2.43.27.81.5,1.48.71,2.02.2.54.3,1.28.3,2.22-.4,1.48-.61,2.83-.61,4.04,0,.54.07.88.2,1.01v1.01c.13.68.2,1.62.2,2.83v3.03l2.22,2.02c.54-.27,1.01-.44,1.41-.5.41-.07.74-.37,1.01-.91.67-.27,1.68-.4,3.03-.4,1.21.4,2.42.47,3.64.2,1.75-.27,3.36-.2,4.85.2.81-.27,1.41-.4,1.82-.4s1.14.13,2.22.4c.94-.27,1.89-.34,2.83-.2.67-.54,1.34-1.04,2.02-1.51.67-.47,1.35-1.04,2.02-1.72h.91c.47,0,.98-.07,1.52-.2.27-.13.71-.1,1.31.1.6.2,1.24.17,1.92-.1.54.4,1.01.78,1.42,1.11.4.34.87.78,1.41,1.31.27.27.64.64,1.11,1.11.47.47,1.04.91,1.72,1.31.13.67.54,1.62,1.21,2.83.67,1.21,1.35,2.22,2.02,3.03v1.01Z"/>
            <path class="cls-1" d="M606.48,423.28l-3.84.2-3.64-.2-4.65-.2-3.84.2-4.44.81-4.04-.2-3.64.2-4.44-.61-4.04.41-3.64.2h-4.44l-3.64.2-3.84.61c-.94-.41-1.65-.57-2.12-.51-.47.07-1.18.17-2.12.3-.67.14-1.35.37-2.02.71-.67.34-1.35.64-2.02.91-.68.14-1.35.24-2.02.3-.68.07-1.35.44-2.02,1.11-.68.27-1.42.44-2.22.51-.81.07-1.55.24-2.22.5h-1.72c-.47,0-.84.14-1.11.41-1.21.27-2.36.6-3.43,1.01-1.21-.27-2.16-.27-2.83,0-1.21,0-2.22-.2-3.03-.61-.27-.13-.88-.67-1.82-1.62-.94-.94-1.62-1.55-2.02-1.82-.27-.67-.61-1.11-1.01-1.31-.4-.2-.88-.64-1.41-1.31-.4-.54-.78-1.08-1.11-1.62-.34-.54-.84-1.14-1.51-1.82-.14-.27-.44-.71-.91-1.31-.47-.61-.71-1.11-.71-1.52-.54-.94-1.01-1.78-1.41-2.53-.41-.74-.68-1.51-.81-2.32-.4-.81-.44-1.58-.1-2.32.33-.74.84-1.31,1.51-1.72.13-.27.71-.4,1.72-.4s1.85-.13,2.52-.41h3.03c.94,0,1.68.07,2.22.2l4.44-.4,3.64.2,3.84-.4,3.84.4,4.44-.2h3.64l3.64.81,4.04-.2,4.44.2,4.24.2,4.04.4,4.24-.4c.67.14,1.24.14,1.72,0,.47-.13.84-.07,1.11.2.67.13,1.28.1,1.82-.1.54-.2,1.21-.44,2.02-.71,1.89-.4,3.5-.5,4.85-.3,1.35.2,2.63.1,3.84-.3.67.68,1.21,1.08,1.62,1.21.4.14.67.4.81.81l1.82.41h5.25l3.64-1.21,4.44-.61,3.84.2,4.24-.41,4.04.41,4.04-.41,4.44.41,4.44.2,3.43-.4,4.44.2h4.24l4.04.2,4.65-1.21,3.43-.2,4.44.2,4.24.2c1.48.14,2.79.2,3.94.2s2.05-.27,2.73-.81c.67.68,1.52.98,2.53.91,1.01-.07,1.99.17,2.93.71.67.27,1.51.74,2.53,1.42,1.01.67,1.72,1.28,2.12,1.82.4.27.84.74,1.31,1.42.47.67.84,1.14,1.11,1.41.67.81,1.21,1.75,1.62,2.83.13.54.2,1.68.2,3.43,0,1.08-.2,1.75-.61,2.02-.4.27-1.08.94-2.02,2.02.27.41.1.98-.51,1.72-.6.74-1.25,1.25-1.92,1.51-.68,0-1.38.3-2.12.91-.74.61-1.31,1.18-1.72,1.72l-4.24.61-4.04-.61c-.27,0-.64-.03-1.11-.1-.47-.07-.98-.23-1.52-.51-.54,0-1.11-.17-1.72-.5-.61-.34-1.25-.57-1.92-.71-.67-.27-1.41-.54-2.22-.81-.81-.27-1.62-.4-2.43-.4-.54-.27-1.15-.87-1.82-1.82-.68-.94-1.55-1.34-2.63-1.21l-4.04-.2-4.85-.4-4.65.61-4.44-1.82-3.23.61-2.83-.2-3.84.2h-3.84l-4.85.4h-3.43l-5.05-.2ZM574.36,392.78c-.27-.81-.51-1.68-.71-2.63-.2-.94-1.04-1.75-2.52-2.42,0-2.29.07-4.85.2-7.68.13-2.83-.74-5.25-2.63-7.27,0-.27-.03-.71-.1-1.31-.07-.61-.1-1.11-.1-1.51.81-.94,1.38-1.62,1.72-2.02.33-.4.57-.74.71-1.01.13-.27.2-.61.2-1.01v-1.82c1.62-1.48,3.26-2.63,4.95-3.43,1.68-.81,3.6-1.62,5.76-2.42l-9.9.4h-4.04c-1.62,1.35-2.93,2.09-3.94,2.22-1.01.13-2.32.2-3.94.2h-6.46c-3.1,0-5.29.37-6.56,1.11-1.28.74-2.6,1.18-3.94,1.31-1.89-.67-3.37-1.65-4.44-2.93-1.08-1.28-1.95-2.73-2.63-4.34-1.35-.13-2.73-.84-4.14-2.12-1.41-1.28-2.69-2.73-3.84-4.34-1.15-1.62-2.09-3.26-2.83-4.95-.74-1.68-1.11-3.06-1.11-4.14.94-1.08,1.95-1.95,3.03-2.63,1.08-.67,2.63-1.14,4.65-1.41,1.21,1.08,2.22,1.72,3.03,1.92.81.2,1.62.34,2.43.4.81.07,1.72.24,2.73.5,1.01.27,2.25.94,3.74,2.02h43.63c.4,0,.91-.03,1.52-.1.61-.07.91-.44.91-1.11,0-.4-.13-.61-.4-.61s-.67-.07-1.21-.2c-.54-.13-1.15-.33-1.82-.61-.68-.27-1.48-.87-2.42-1.82-2.16,0-3.87-.71-5.15-2.12-1.28-1.41-1.92-3.6-1.92-6.56.27-.13.61-.4,1.01-.81,1.48.13,3,.2,4.55.2h8.79c1.34,0,2.76-.07,4.24-.2.4.27.84.64,1.31,1.11.47.47,1.04.91,1.72,1.31.67,0,1.68-.03,3.03-.1,1.35-.07,2.36-.1,3.03-.1,1.62,0,2.83.17,3.64.5.81.34,1.45.84,1.92,1.52.47.67.91,1.45,1.31,2.32.4.88,1.14,1.85,2.22,2.93v2.42c0,.81.88,1.35,2.63,1.62,1.75.27,3.84.4,6.26.4s4.95-.03,7.57-.1c2.63-.07,4.75-.1,6.36-.1.94-.81,2.19-1.38,3.74-1.72,1.55-.34,3.16-.54,4.85-.61,1.68-.07,3.43-.07,5.25,0,1.82.07,3.47.1,4.95.1h6.46c1.35,1.08,2.25,1.65,2.73,1.72.47.07,1.58.44,3.33,1.11,2.42,2.16,4.68,4.21,6.77,6.16,2.09,1.95,3.26,4.34,3.53,7.17,0,.27-.17.74-.5,1.42-.34.67-.71,1.35-1.11,2.02-.41.68-.88,1.28-1.42,1.82-.54.54-1.08.81-1.62.81-.13,0-.27-.03-.4-.1-.14-.07-.27-.1-.4-.1-1.89,1.75-4.11,2.56-6.67,2.43-2.56-.13-4.98-.2-7.27-.2-1.21-1.08-2.19-1.72-2.93-1.92-.74-.2-1.65-.3-2.73-.3h-3.64c-.68,0-1.21-.13-1.62-.4-.4-.27-.88-.54-1.42-.81-.54-.27-1.25-.54-2.12-.81-.88-.27-2.19-.4-3.94-.4-.68-.4-1.25-.77-1.72-1.11-.47-.34-1.05-.77-1.72-1.31l-8.48.2-10.1.61c0,.68.64,1.18,1.92,1.52,1.28.34,2.46.84,3.54,1.51.54.68.81,1.08.81,1.21v1.21c.81.67,1.95,1.25,3.43,1.72,1.48.47,2.22.98,2.22,1.52-.14,2.96-.2,5.79-.2,8.48v7.88c0,.81-.34,1.38-1.01,1.72-.67.34-1.21.71-1.62,1.11,0,.68.03,1.38.1,2.12.07.74.1,1.45.1,2.12-1.35,2.02-3.03,3.54-5.05,4.55-2.02,1.01-3.17,1.52-3.43,1.52h-.2c-1.35,0-2.39.47-3.13,1.41-.74.94-1.72,1.41-2.93,1.41-1.08,0-1.85.2-2.32.61-.47.41-1.05.81-1.72,1.21h-10.51c-.4.54-.81.81-1.21.81-.54,0-1.31-.06-2.32-.2-1.01-.13-2.39-.47-4.14-1.01-1.75-.54-3.94-1.35-6.56-2.43-2.63-1.08-5.83-2.49-9.59-4.24ZM655.97,460.45c0,.68.03,1.28.1,1.82.07.54.1,1.28.1,2.22.13.67.17,1.35.1,2.02-.07.67-.1,1.35-.1,2.02s.07,1.31.2,1.92c.13.61.07,1.45-.2,2.53-.14.4-.17.87-.1,1.41.07.54.1,1.14.1,1.82-.14.81-.17,1.58-.1,2.32.07.74.1,1.45.1,2.12,0,.94.03,1.72.1,2.32.07.61-.03,1.31-.3,2.12-.27.4-.74.94-1.41,1.62-.68.67-1.35,1.14-2.02,1.41-.14.4-.44.81-.91,1.21-.47.4-.91.81-1.31,1.21-.54.41-1.08.77-1.62,1.11-.54.33-.94.77-1.21,1.31-.4.27-.84.37-1.31.3-.47-.07-1.04-.1-1.72-.1-.54-.27-.98-.6-1.31-1.01-.34-.4-.78-.74-1.31-1.01-.14-.27-.37-.74-.71-1.41-.34-.68-.64-1.15-.91-1.41-.54-.68-1.52-1.42-2.93-2.22-1.41-.81-2.46-1.55-3.13-2.22,0-.27.03-.68.1-1.21.07-.54-.04-1.14-.3-1.82.27-.54.4-1.15.4-1.82s-.07-1.35-.2-2.02c-.27-.94-.34-1.69-.2-2.22.13-.54.07-1.15-.2-1.82.4-1.48.47-2.76.2-3.84.13-1.08.2-1.89.2-2.42v-3.84c0-.67.07-1.42.2-2.22l-.4-3.23c0-2.02-.2-3.64-.61-4.85.13-.54.2-.67.2-.4s0-.2,0-1.41c-.27-.27-.58-.61-.91-1.01-.34-.41-.64-.61-.91-.61l-1.21-.4-1.01.2c-.67-.13-1.15-.13-1.41,0-.27.14-.81.2-1.62.2-.68.13-1.38.2-2.12.2h-2.52c-.54-.27-1.08-.37-1.62-.3-.54.07-1.28.1-2.22.1-.68,0-1.35-.03-2.02-.1-.68-.06-1.48-.17-2.43-.3-.4.27-1.01.4-1.82.4h-2.22c-.68.13-1.28.1-1.82-.1-.54-.2-1.14-.17-1.82.1l-4.85.4c-.67.27-1.38.37-2.12.3-.74-.07-1.45.1-2.12.5-.67-.27-1.25-.4-1.72-.4s-1.05-.07-1.72-.2c-.95.27-1.69.37-2.22.3-.54-.07-1.28-.03-2.22.1-.68-.27-1.28-.37-1.82-.3-.54.07-1.14.03-1.82-.1-.68.13-1.35.13-2.02,0-.68-.13-1.35-.13-2.02,0l-4.04.6-4.24,1.01-4.04,1.41-3.84.81-3.84,1.01-3.64.61c-.94.14-1.79.3-2.52.51-.74.2-1.45.37-2.12.5-.81,0-1.62-.03-2.42-.1-.81-.07-1.62-.1-2.43-.1-.4-.27-.98-1.04-1.72-2.32-.74-1.28-1.25-2.12-1.52-2.53-.27-.54-.71-.98-1.31-1.31-.61-.34-1.04-.64-1.31-.91-.67-.81-1.21-1.41-1.62-1.82-.4-.41-.81-.94-1.21-1.62-.81-.54-1.42-.98-1.82-1.31-.4-.34-.88-.91-1.41-1.72-.94-.4-1.89-1.48-2.83-3.23-.27,0-.44-.3-.5-.91-.07-.61.03-1.11.3-1.52,0-.54.13-1.14.41-1.82.27-.67.74-1.08,1.41-1.21.4-.27,1.01-.34,1.82-.2.81.14,1.55.14,2.22,0,.81.27,1.48.4,2.02.4s1.21-.13,2.02-.4c.81.14,1.51.17,2.12.1.61-.07,1.18.1,1.72.5.81-.27,1.62-.37,2.43-.3.81.07,1.55-.03,2.22-.3.54.27,1.18.37,1.92.3.74-.07,1.38-.1,1.92-.1.54.27,1.18.34,1.92.2.74-.13,1.38-.07,1.92.2h2.32c.88,0,1.65-.13,2.32-.4.54.27,1.11.37,1.72.3.6-.07,1.45-.03,2.52.1.67-.27,1.38-.4,2.12-.4s1.24.13,1.51.4c1.35.14,2.43.03,3.23-.3.81-.33,1.75-.23,2.83.3h4.04l3.43-.61,3.84-.4,4.65-.2,3.43.41,3.43.2,4.44-.4,3.64-.4,4.24.2,3.64-.2c1.48-.27,2.63-.3,3.43-.1.81.2,1.48.04,2.02-.5.41.4.94.61,1.62.61s1.21-.07,1.62-.2c1.75-.13,3.36,0,4.85.4.54,0,1.08-.07,1.62-.2.54-.13,1.14-.2,1.82-.2.81-.27,1.58-.3,2.32-.1.74.2,1.45.24,2.12.1.4.27.91.37,1.52.3.61-.07,1.18-.17,1.72-.3.54-.13,1.01-.23,1.41-.3.41-.07.61.1.61.51.67-.13,1.48-.27,2.43-.41.94-.13,1.95-.06,3.03.2.54.14,1.45.07,2.73-.2,1.28-.27,2.25-.47,2.93-.6.4.4.88,1.01,1.42,1.82.54.81.81,1.28.81,1.42-.4,1.75-.57,2.69-.51,2.83.07.14.51.81,1.31,2.02-.27.94-.5,1.72-.71,2.32-.2.61-.44,1.38-.71,2.32.67,1.75,1.55,2.96,2.63,3.64l-1.21,3.23-1.41,2.63.2,3.43-.2,3.03ZM605.88,364.9c-1.21,0-2.26.17-3.13.51-.88.34-1.99-.03-3.33-1.11l-5.25,1.62c-.68,0-1.08.1-1.21.3-.13.2-.2.51-.2.91s-.14.91-.41,1.52c-.27.6-.81,1.25-1.61,1.92,0,.54-.24,1.15-.71,1.82-.47.68-.71,1.35-.71,2.02,0,.94.23,1.99.71,3.13.47,1.15.71,2.05.71,2.73.67.54,1.24,1.05,1.72,1.52.47.47,1.31.71,2.53.71,1.21.94,2.42,1.35,3.64,1.21,1.21-.13,2.76-.2,4.65-.2,1.08,0,1.92-.2,2.53-.61.6-.4,1.65-1.34,3.13-2.83,0-1.08.67-1.95,2.02-2.63-.13-.54-.17-1.21-.1-2.02.07-.81.1-1.48.1-2.02.13-1.08,0-2.12-.4-3.13-.4-1.01-.94-1.92-1.62-2.73-.67-.81-1.31-1.45-1.92-1.92-.61-.47-.98-.71-1.11-.71Z"/>
            <path class="cls-1" d="M777.37,385.3c-.13.4-.2.84-.2,1.31s-.07,1.04-.2,1.72c-.67.54-1.08,1.01-1.21,1.41-.13.4-.54.68-1.21.81-1.21.81-2.16,1.82-2.83,3.03-.4,1.21-.67,2.12-.81,2.73-.14.61-.47,1.05-1.01,1.31,0,.94-1.28,1.35-3.84,1.21-.54.67-.81,1.38-.81,2.12v2.73c-.67.27-1.28.74-1.82,1.41-.54.68-1.21,1.08-2.02,1.21-.68.67-1.28,1.04-1.82,1.11-.54.07-1.35.17-2.42.3-.27.27-.58.61-.91,1.01-.34.4-.84.94-1.52,1.62-1.08-.27-2.09-.27-3.03,0-.94.27-1.75.14-2.42-.4-.68.81-1.28,1.48-1.82,2.02s-.94,1.01-1.21,1.41c-.94,0-1.72-.03-2.32-.1-.61-.07-1.25-.03-1.92.1-.27.27-.67.37-1.21.3-.54-.07-1.15-.1-1.82-.1-.4,0-.91-.03-1.52-.1-.6-.07-1.38-.1-2.32-.1-.54.14-1.08.14-1.62,0-.54-.13-1.14-.07-1.82.2-.68-.13-1.31-.23-1.92-.3-.61-.07-1.38-.1-2.32-.1-.27-.4-.64-.81-1.11-1.21-.47-.4-1.11-.74-1.92-1.01-.54-.27-.88-.4-1.01-.4h-.6c-.68-.67-1.28-1.24-1.82-1.72-.54-.47-1.01-.84-1.41-1.11-.54-.67-1.05-1.24-1.52-1.72-.47-.47-.84-.91-1.11-1.31-.81-.54-1.35-1.11-1.62-1.72-.27-.61-.88-1.11-1.82-1.52-.14-.4-.44-.74-.91-1.01-.47-.27-1.04-.61-1.72-1.01-.27-.67-.61-1.28-1.01-1.82-.4-.54-.94-.94-1.62-1.21-.14-.94-.14-1.89,0-2.83-.27-.4-.61-.74-1.01-1.01-.4-.27-.94-.67-1.62-1.21l-1.21-4.24-.81-4.44-.81-3.43c-.27-.94-.4-1.65-.4-2.12v-1.11c-.14-1.08-.1-1.88.1-2.42.2-.54.3-1.35.3-2.43-.4-.54-.6-1.75-.6-3.64.27-.54.6-1.14,1.01-1.82.4-.67.94-1.08,1.62-1.21.81-.67,1.48-1.24,2.02-1.72.54-.47,1.01-1.04,1.41-1.72,0-.54-.03-1.04-.1-1.51-.07-.47-.1-1.04-.1-1.72.54-.27.94-.71,1.21-1.31.27-.6.67-1.11,1.21-1.51.4-.54.77-1.04,1.11-1.52.34-.47.57-.98.71-1.51.94-.27,1.62-.54,2.02-.81.4-.27.87-.87,1.41-1.82l1.01-.41c.4-.27.74-.54,1.01-.81s.67-.54,1.21-.81c.4-.27.91-.6,1.51-1.01.61-.4,1.38-.87,2.32-1.41.81-.81,1.55-1.45,2.22-1.92.67-.47,1.48-1.38,2.43-2.73,1.75.81,3.36.94,4.85.4.67.27,1.21.4,1.62.4s.87.14,1.41.4c1.08-.4,1.88-.6,2.42-.6s1.14.13,1.82.4c.27-.27.74-.34,1.41-.2.67.14,1.41.14,2.22,0l2.02-2.02c.67-.27,1.18-.07,1.52.61.33.67.84.94,1.51.81,1.08.68,1.95.91,2.63.71.67-.2,1.35-.23,2.02-.1.94.27,1.82.3,2.63.1.81-.2,1.55.03,2.22.71.81.4,1.48.88,2.02,1.41.54.54,1.21,1.01,2.02,1.41l2.63,2.83,2.02,3.03c.81.41,1.41.78,1.82,1.11.4.34.74.64,1.01.91.54.95,1.41,1.89,2.63,2.83,0,.27.3.64.91,1.11.61.47,1.11.98,1.52,1.52l.4,1.62c.27.68.57,1.28.91,1.82.34.54,1.04,1.48,2.12,2.83-.14.68-.27,1.28-.41,1.82-.13.54-.13,1.01,0,1.41-.13.68-.17,1.38-.1,2.12.07.74-.03,1.45-.3,2.12.13.68.27,1.31.4,1.92.13.61.27,1.18.41,1.72-.54.81-.61,2.02-.2,3.64l-.2,2.83v3.43ZM819.39,425.3c.54,1.21,1.18,1.99,1.92,2.32.74.34,1.85.64,3.33.91l3.03,4.24,3.43,2.42-.61,3.64-.2,4.85-.4,3.23-.4,4.44-.61,4.44-.61,3.64-.2,4.44-.6,4.24-.81,4.04c.94.81,1.78,1.45,2.53,1.92.74.47,1.18,1.11,1.31,1.92,1.21.27,2.19.33,2.93.2.74-.14,1.38,0,1.92.4,0,.67.07,1.38.2,2.12.13.74.27,1.31.41,1.72-.27.67-.3,1.34-.1,2.02.2.67.3,1.14.3,1.41-.27.67-.37,1.24-.3,1.72.07.47.03.98-.1,1.52-.81.81-1.48,1.75-2.02,2.83-.68.27-1.15.71-1.42,1.31-.27.6-.54,1.18-.81,1.72-.94,0-1.89-.04-2.83-.1-.94-.07-1.95.03-3.03.3-.4-.13-.94-.17-1.62-.1-.67.07-1.48.03-2.42-.1-.68-.14-1.45-.24-2.32-.3-.88-.07-1.45-.17-1.72-.3-.94.4-1.72.57-2.32.51-.61-.07-1.25-.04-1.92.1-1.89-.54-3.5-.61-4.85-.2-.54-.54-.91-.98-1.11-1.31-.2-.34-.57-.64-1.11-.91-1.48-.54-2.63-.81-3.43-.81-1.48,0-2.56-.14-3.23-.4-1.35.4-2.42.4-3.23,0-.54.13-1.08.37-1.61.71-.54.33-1.35.5-2.43.5-.67.27-1.52.47-2.53.61-1.01.13-1.85.13-2.52,0-2.43.81-3.71,1.35-3.84,1.62-.4-.54-.91-1.01-1.52-1.41s-1.25-.88-1.92-1.41c-.54-.27-1.14-.34-1.82-.2-.68.13-1.41.27-2.22.4-.68-.13-1.28-.13-1.82,0-.54.13-1.28.2-2.22.2-.54-.14-1.08-.24-1.62-.3-.54-.07-1.28-.24-2.22-.51-1.08.41-2.16.61-3.23.61-.67,0-1.35-.07-2.02-.2-.68-.14-1.35-.27-2.02-.41-.68.27-1.35.41-2.02.41h-2.43c-.81,0-1.45.07-1.92.2-.47.13-1.11.07-1.92-.2-.81.13-1.51.17-2.12.1-.61-.07-1.18-.1-1.72-.1h-4.65c-.27-.27-.81-.34-1.62-.2-.81.13-1.61.33-2.42.61-.67-.27-1.31-.37-1.92-.3-.61.07-1.31-.03-2.12-.3-.27.4-.64.77-1.11,1.11-.47.34-1.11.91-1.92,1.72-.4,0-.81-.04-1.21-.1-.4-.07-.88.03-1.42.3-.67-.27-1.45-.44-2.32-.5-.88-.07-1.72.03-2.52.3-.27-.27-.61-.78-1.01-1.52-.41-.74-.81-1.31-1.21-1.72-.27-.54-.61-1.01-1.01-1.42-.41-.4-.81-.88-1.21-1.41-.27-.67-.61-1.25-1.01-1.72-.4-.47-.94-1.11-1.62-1.92-.14-.54-.14-1.21,0-2.02.13-.81.13-1.42,0-1.82-.27-.54-.37-1.15-.3-1.82.07-.68-.03-1.28-.3-1.82.54-1.75.54-3.23,0-4.44.4-.68.54-1.38.4-2.12-.13-.74-.07-1.45.2-2.12-.27-.67-.4-1.38-.4-2.12s-.07-1.45-.2-2.12c.27-.67.44-1.42.51-2.22.07-.81-.04-1.35-.3-1.62.27-.94.33-1.78.2-2.53-.13-.74-.27-1.58-.4-2.53.4-.4.61-.97.61-1.72s-.07-1.65-.2-2.73c.27-.54.67-.94,1.21-1.21.54-.27.94-.74,1.21-1.41-.14-.67-1.01-1.62-2.63-2.83.81-1.35,1.82-2.29,3.03-2.83-.27-.67-.61-1.14-1.01-1.41-.4-.27-.81-.74-1.21-1.41,0-.27-.13-.64-.4-1.11-.27-.47-.4-.97-.4-1.51.13-.54.2-1.18.2-1.92s-.13-1.45-.4-2.12c-.27-.81-.3-1.68-.1-2.63.2-.94.3-1.75.3-2.42-.27-.67-.34-1.62-.2-2.83.13-1.21.34-2.15.61-2.83.27.13.94,0,2.02-.41,1.08-.4,2.29-.67,3.64-.81.67.27,1.18.68,1.52,1.21.33.54.84,1.14,1.52,1.82.4.54.74,1.05,1.01,1.52.27.47.6,1.04,1.01,1.72,1.21,1.89,2.29,3.03,3.23,3.43.67-.54,1.21-1.01,1.62-1.42l1.01-1.01c.81-.67,1.58-1.01,2.32-1.01s1.38-.13,1.92-.4c.81,0,1.45.1,1.92.3.47.2.98.44,1.52.71.54.68,1.08,1.11,1.62,1.31.54.2,1.08.64,1.62,1.31.54-.67.94-1.24,1.21-1.72.27-.47.74-.84,1.41-1.11.81-.27,1.55-.37,2.22-.3.67.07,1.34.04,2.02-.1.81,0,1.58.03,2.32.1.74.07,1.38-.03,1.92-.3,1.62,0,3.03.2,4.24.61.67-.81,1.21-1.01,1.62-.61.4.41.81.41,1.21,0,.4,0,.84.04,1.31.1.47.07.97-.03,1.51-.3.54,0,1.14.1,1.82.3.67.2,1.28.17,1.82-.1.67,0,1.42-.03,2.22-.1.81-.07,1.41.04,1.82.3.67-.27,1.45-.44,2.32-.5.87-.07,1.58-.03,2.12.1,1.62.27,3.03.2,4.24-.2,1.08.27,1.95.4,2.63.4s1.35.14,2.02.41c.81-.27,1.51-.37,2.12-.3.61.07,1.24-.03,1.92-.3.81.27,1.48.37,2.02.3.54-.07,1.14-.17,1.82-.3.94.14,1.95.14,3.03,0,.27-.67.74-1.18,1.41-1.52.67-.33,1.35-1.04,2.02-2.12.67.13,1.38.24,2.12.3.74.07,1.45.03,2.12-.1,1.08.14,1.99.24,2.73.3.74.07,1.45.1,2.12.1.67.67,1.35,1.25,2.02,1.72.67.47,1.28,1.04,1.82,1.72.67-.27,1.41-.47,2.22-.61.81-.13,1.55-.2,2.22-.2l-.2.4ZM725.06,368.34c.13.94.13,1.89,0,2.83.27.68.34,1.18.2,1.52-.14.34-.27.64-.4.91-.14.81-.47,1.62-1.01,2.42-.27.27-.27.74,0,1.41.13.14.33.37.61.71.27.34.54.71.81,1.11.27,1.48.13,2.49-.4,3.03.54,1.08,1.11,1.82,1.72,2.22s1.11.94,1.52,1.62c.27,1.35.94,2.16,2.02,2.42.27.68.57,1.15.91,1.42.33.27.64.54.91.81.41.27.81.44,1.21.51.4.07.74.24,1.01.5l1.21.41c1.08.27,2.19.2,3.33-.2,1.14-.4,2.05-.61,2.73-.61.81,0,1.65.03,2.53.1.88.07,1.58-.1,2.12-.5.67,0,1.18-.07,1.51-.2.34-.13.77-.13,1.31,0,.81-.67,1.35-1.21,1.62-1.62l1.01-.81.61-.61v-1.62c.54-.27.91-.57,1.11-.91.2-.33.64-.64,1.31-.91-.14-1.48-.14-2.83,0-4.04.54-.27.84-.67.91-1.21.07-.54.17-1.01.3-1.41,0-.81.34-1.41,1.01-1.82-.4-.67-.67-1.08-.81-1.21-.14-.13-.27-.34-.4-.61-.27-.54-.41-1.28-.41-2.22v-2.42l-.6-2.22c-.41-.67-1.21-1.28-2.43-1.82-.4-.67-.81-1.14-1.21-1.41-.4-.27-.74-.61-1.01-1.01-.27-.54-.5-.98-.71-1.31-.2-.34-.44-.64-.71-.91-.68.27-1.28.37-1.82.3-.54-.07-1.01-.17-1.41-.3-.54.14-1.01.14-1.41,0-.4-.13-.94-.07-1.62.2h-1.41c-.54,0-.95-.13-1.21-.4-.27,0-.74.07-1.41.2-.68.14-1.35.2-2.02.2-.4,0-.81-.03-1.21-.1-.41-.06-.81-.03-1.21.1l-2.22,1.01-1.41,2.83-2.43,1.41-1.11,1.11c-.47.47-.98.84-1.52,1.11ZM770.1,442.07c-.81.68-1.35,1.11-1.62,1.31-.27.2-.67.44-1.21.71-.4-.13-.81-.33-1.21-.61-.4-.27-.94-.6-1.62-1.01-1.48-.4-2.49-.54-3.03-.4-.95-.27-2.16-.13-3.64.4,0,.27-.3.58-.91.91-.61.34-1.45,1.05-2.53,2.12-.68.13-1.25.13-1.72,0-.47-.13-.98-.2-1.52-.2-.81-.13-1.48-.17-2.02-.1-.54.07-1.15.17-1.82.3-.67-.13-1.31-.34-1.92-.61-.6-.27-1.25-.34-1.92-.2-.68-.27-1.25-.23-1.72.1-.47.34-.91.51-1.31.51l-.4.4c.13.81.17,1.28.1,1.42-.07.13-.1.47-.1,1.01,0,1.08,0,1.58,0,1.51s-.14.04-.4.3l-.2,3.64-.2,4.04v4.04c-.27,1.21-.27,2.09,0,2.63.27.54.47,1.01.6,1.41-.27,1.08-.47,1.59-.6,1.52-.14-.07-.07.37.2,1.31-.27.54-.13,1.28.4,2.22-.27.81.07,1.55,1.01,2.22.54-.14.74-.17.6-.1-.13.07-.07.03.2-.1.81,0,1.24.07,1.31.2.07.13.44,0,1.11-.41.54.27,1.18.44,1.92.51.74.07,1.58.17,2.53.3.4-.27.87-.34,1.41-.2.54.13,1.08.07,1.62-.2.54.67,1.08,1.14,1.62,1.41.54.27.94.61,1.21,1.01.27-.27.74-.5,1.41-.71.67-.2,1.14-.57,1.42-1.11.67-.27,1.38-.47,2.12-.61.74-.14,1.38,0,1.92.4.67-.27,1.28-.37,1.82-.3.54.07,1.14.23,1.82.51.54.67.91,1.21,1.11,1.61.2.41.57.74,1.11,1.01.67-.68,1.24-1.18,1.72-1.52.47-.34,1.04-.84,1.72-1.52.41-.54.91-1.04,1.52-1.51.61-.47,1.11-.98,1.52-1.52,1.08.27,1.88.3,2.42.1.54-.2,1.35-.24,2.42-.1.67-.14,1.35-.24,2.02-.3.67-.07,1.34-.1,2.02-.1.54.54,1.41.94,2.63,1.21.67.27,1.38.43,2.12.5.74.07,1.65.03,2.73-.1.67.4,1.41.71,2.22.91.81.2,1.42.37,1.82.5.67.27,1.24.44,1.72.51.47.07.84.23,1.11.5.4-.4.97-.78,1.72-1.11.74-.34,1.31-.78,1.72-1.31.4-.14.81-.34,1.21-.61.4-.27.94-.34,1.62-.2.4-.27.61-.44.61-.5,0-.07.33-.1,1.01-.1.81.13,1.11.07.91-.2-.2-.27-.1-.81.3-1.62,0-.27.03-.4.1-.4s.23-.27.5-.81c-.4-.81-.54-1.34-.4-1.62.13-.27,0-.74-.4-1.41.27-.4.33-.98.2-1.72-.13-.74-.13-1.38,0-1.92.27-.94.37-1.78.3-2.53-.07-.74-.1-1.45-.1-2.12-.27-.27-.34-.74-.2-1.42.13-.67.34-1.21.61-1.62,0-.81-.13-1.62-.4-2.42-.27-.81-.27-1.48,0-2.02,0-.81-.03-1.35-.1-1.62-.07-.27.03-.61.3-1.01-.14-.81-.24-1.18-.3-1.11-.07.07-.17-.17-.3-.71-.54-1.21-1.28-1.68-2.22-1.41l-1.01.2c-.68-.27-1.31-.43-1.92-.5-.61-.07-1.18-.1-1.72-.1-.94.13-1.69.24-2.22.3-.54.07-1.21-.1-2.02-.5-1.35.54-2.83.74-4.44.61-.54-.13-1.21-.17-2.02-.1-.81.07-1.55.17-2.22.3-.81-.27-1.62-.47-2.42-.6-.81-.13-1.62-.07-2.42.2-.81.27-2.02.2-3.64-.2-1.89.4-3.03.34-3.43-.2h-2.02c-.68,0-1.21.07-1.62.2l-.2.2ZM831.92,387.73c.4,1.62.4,3.03,0,4.24-.27.94-.34,1.69-.2,2.22.13.54.2,1.08.2,1.62l-.2,4.04c.27,1.08.33,1.89.2,2.42-.13.41-.13.95,0,1.62.13.68.27,1.42.4,2.22-1.21.68-2.63,1.82-4.24,3.43-.27.54-.57.98-.91,1.31-.34.34-.84.84-1.52,1.51-.4.68-.81,1.01-1.21,1.01s-.94.34-1.62,1.01c-.27.54-.67,1.01-1.21,1.41-.54.4-1.15.81-1.82,1.21-.54.54-1.15,1.08-1.82,1.61-.68.54-1.15,1.08-1.42,1.62h-6.87c-.81-.54-1.25-1.24-1.31-2.12-.07-.87-.24-1.65-.5-2.32.13-.67.13-1.21,0-1.62-.14-.4-.2-.88-.2-1.41.67-.54,1.21-1.11,1.62-1.72s1.08-1.18,2.02-1.72c-.67-.54-1.25-1.11-1.72-1.72-.47-.61-.98-1.04-1.52-1.31v-6.26c-.67-.13-1.38-.27-2.12-.41-.74-.13-1.45-.07-2.12.2-.94-.27-2.29-.27-4.04,0-1.21-.4-2.42-.4-3.64,0-.4-.13-1.45-.34-3.13-.61-1.68-.27-2.8-.27-3.33,0-.67-.81-1.25-1.88-1.72-3.23-.47-1.34-.91-2.49-1.31-3.43-.27-.67-.4-1.45-.4-2.32s-.47-1.38-1.42-1.52c-.27-1.48-.27-2.93,0-4.34.27-1.42.81-2.25,1.62-2.53.4,0,1.18-.1,2.32-.3,1.14-.2,1.85-.37,2.12-.5.4.13.94.24,1.62.3.67.07,1.38.14,2.12.2.74.07,1.42.07,2.02,0,.61-.07.98-.1,1.11-.1.81,0,1.58-.03,2.32-.1.74-.06,1.45-.1,2.12-.1s1.31-.03,1.92-.1c.61-.07,1.24-.1,1.92-.1.13.13.61.2,1.41.2.27-.81.47-1.48.61-2.02-.27-.67-.37-1.21-.3-1.62.07-.4.17-1.01.3-1.82,0-.4.34-1.08,1.01-2.02h-1.41c-.81,0-1.58.07-2.32.2-.74.14-1.45.14-2.12,0-.81.54-1.48,1.08-2.02,1.62s-1.14.94-1.82,1.21c-.41-.67-.74-1.11-1.01-1.31-.27-.2-.81-.64-1.62-1.31-.27-.27-.78-.37-1.52-.3-.74.07-1.25-.03-1.52-.3-1.08.4-1.89.4-2.42,0-.81-.67-1.41-1.21-1.82-1.62-.4-.4-1.08-.88-2.02-1.42-.13-.4-.54-.91-1.21-1.51-.68-.61-1.21-1.18-1.62-1.72-.27-.27-.54-1.11-.81-2.53-.27-1.42-.61-2.25-1.01-2.53.13-1.08.17-2.15.1-3.23-.07-1.08.03-1.82.3-2.22.94-.54,1.82-1.11,2.63-1.72.81-.61,1.68-.64,2.63-.1.41-.27.91-.44,1.52-.51.61-.07,1.18-.1,1.72-.1.67,0,1.31.03,1.92.1.61.07,1.31.04,2.12-.1,1.75-.13,3.1,0,4.04.4.27.4.74.81,1.41,1.21.67.4,1.28.88,1.82,1.41.81-.54,1.38-1.11,1.72-1.72.34-.61.77-1.04,1.31-1.31.67-.13,1.35-.13,2.02,0,.67.14,1.35.14,2.02,0-.13-.13-.2-.27-.2-.4s-.07-.34-.2-.61c-.4-.67-.71-1.35-.91-2.02-.2-.67-.5-1.55-.91-2.63-.14-.13-.17-.47-.1-1.01.07-.54-.03-1.14-.3-1.82.13-.67.17-1.24.1-1.72-.07-.47-.04-1.11.1-1.92-.27-.81-.37-1.35-.3-1.62.07-.27.23-.94.51-2.02-.68-.27-1.25-.64-1.72-1.11-.47-.47-.98-.97-1.51-1.51-.27-.94-.47-1.68-.61-2.22-.14-.54-.61-1.14-1.41-1.82.27-.67.57-1.58.91-2.73.34-1.14.71-2.05,1.11-2.73.81.27,1.95.67,3.43,1.21,1.48.54,2.83.68,4.04.41.4.81.87,1.28,1.41,1.41.54.14,1.14.27,1.82.4.81.14,1.48.17,2.02.1.54-.07,1.28.03,2.22.3.4.27.81.58,1.21.91.4.34.88.78,1.42,1.31.4,0,.87.2,1.41.61.54.4.87.81,1.01,1.21.4.4.98,1.01,1.72,1.82.74.81,1.31,1.35,1.72,1.62.27.41.54.88.81,1.42.27.54.61,1.14,1.01,1.82.4.68.74,1.38,1.01,2.12.27.74.61,1.45,1.01,2.12v1.62c0,.54.07,1.15.2,1.82-.27.4-.37,1.01-.3,1.82.07.81.17,1.55.3,2.22-.14.54-.17,1.15-.1,1.82.06.67-.04,1.41-.3,2.22.4,1.48.6,2.56.6,3.23-.4,1.21-.67,2.7-.81,4.44,0,.94.1,1.69.3,2.22.2.54.3,1.14.3,1.82.13.68.17,1.31.1,1.92-.07.61-.03,1.25.1,1.92l-.6,4.04.6,3.43-.4,4.24v3.64Z"/>
            <path class="cls-1" d="M948.07,445.09c.67-.13,1.31-.23,1.92-.3.6-.06,1.04-.17,1.31-.3.67.27,1.41.44,2.22.5.81.07,1.55-.03,2.22-.3.81.14,1.55.2,2.22.2s1.35.2,2.02.61c.94,0,1.78-.13,2.53-.41.74-.27,1.45-.27,2.12,0,.54,0,1.08.04,1.62.1.54.07,1.14-.03,1.82-.3,1.08.13,1.95.13,2.63,0,.67-.13,1.28-.13,1.82,0,.54.13,1.21.17,2.02.1.81-.07,1.55-.1,2.22-.1.41.13,1.01.2,1.82.2h2.02c.4,0,.98-.1,1.72-.3.74-.2,1.38-.17,1.92.1.54,0,1.11-.34,1.72-1.01.6-.67,1.38-.94,2.32-.81,1.34.54,2.49.54,3.43,0,1.35-.54,2.76-.61,4.24-.2.4-.13.98-.27,1.72-.41.74-.13,1.45-.2,2.12-.2.67-.27,1.31-.4,1.92-.4s1.31.07,2.12.2c1.48-.54,2.9-.81,4.24-.81l3.43.61,3.23-.2c.54.14,1.34.3,2.42.5,1.08.2,1.89.64,2.42,1.31.41.41.74,1.31,1.01,2.73.27,1.41.54,2.32.81,2.73.27.4.44,1.11.51,2.12.06,1.01.17,1.65.3,1.92l.41,5.25-2.02,4.04-1.42,2.22c-.94.81-1.72,1.58-2.32,2.32s-1.25,1.24-1.92,1.51c-1.35.13-2.39.23-3.13.3-.74.07-1.52.03-2.32-.1-.54-.27-1.18-.44-1.92-.5-.74-.07-1.45-.24-2.12-.51-.94.27-1.89.3-2.83.1-.95-.2-1.69-.23-2.22-.1-.54-.4-1.25-.74-2.12-1.01-.88-.27-1.65-.34-2.32-.2-.81-.27-1.48-.44-2.02-.5-.54-.07-1.15-.23-1.82-.51-.4-.27-.88-.4-1.41-.4s-1.15-.07-1.82-.2c-.68-.27-1.21-.43-1.62-.5-.41-.07-.95-.17-1.62-.3l-5.45.2-4.44.41c-1.35-.27-2.29-.54-2.83-.81-.94.14-1.65.17-2.12.1-.47-.07-.98-.03-1.51.1-.95-.13-1.62-.1-2.02.1-.4.2-.94.3-1.62.3-.27-.27-.64-.44-1.11-.5-.47-.07-.91-.1-1.31-.1-.4.14-.88.24-1.41.3-.54.07-1.08.04-1.62-.1-.68-.13-1.15-.2-1.42-.2h-1.41c-.54.27-1.01.37-1.41.3-.4-.07-.94-.1-1.62-.1-.81-.27-1.75-.27-2.83,0-.67-.13-1.68-.2-3.03-.2-.54,0-1.08.04-1.62.1-.54.07-1.08-.03-1.62-.3-.67,0-1.25.03-1.72.1-.47.07-.98.1-1.52.1-.4-.13-1.01-.1-1.82.1-.81.2-1.35.17-1.62-.1-.68-.27-1.25-.33-1.72-.2-.47.13-1.18.07-2.12-.2-.54.27-1.11.47-1.72.61-.61.14-1.11.07-1.52-.2h-2.22c-.54,0-1.21-.13-2.02-.4-.54,0-1.11.17-1.72.51-.61.34-1.45.44-2.53.3-.67-.27-1.31-.33-1.92-.2-.61.14-1.45.07-2.52-.2-1.08.54-2.5.81-4.24.81-.41-.27-.98-.37-1.72-.3-.74.07-1.58.1-2.52.1h-2.32c-.74,0-1.45.14-2.12.4-1.08.14-1.95.17-2.63.1-.68-.07-1.69-.23-3.03-.51-.68.14-1.42.27-2.22.4-.81.14-1.62.14-2.43,0-1.21.68-2.15.98-2.83.91-.68-.07-1.35-.1-2.02-.1-1.48.27-2.66.44-3.54.5-.88.07-1.99.04-3.33-.1-.54.27-1.31.34-2.32.2-1.01-.13-1.99-.07-2.93.2-.81.27-1.62.61-2.43,1.01-.81.41-1.55.54-2.22.41-.67.27-1.35.54-2.02.81-.67.27-1.35.47-2.02.61-.81.27-1.55.47-2.22.61-.67.13-1.35.33-2.02.61-.68.13-1.35.27-2.02.4-.68.13-1.62.13-2.83,0-.27-.27-.74-.78-1.41-1.52-.68-.74-1.35-1.31-2.02-1.72-.68-.4-1.18-.91-1.52-1.52-.34-.6-.78-1.11-1.31-1.51-.27-.41-.64-.84-1.11-1.31-.47-.47-.84-.84-1.11-1.11-.94-.81-1.75-1.75-2.42-2.83-.14-.67-.2-1.31-.2-1.92v-1.72c-.13-.94-.24-2.09-.3-3.43-.07-1.35.1-2.22.51-2.63.67-.81,1.65-1.75,2.93-2.83,1.28-1.08,2.46-1.48,3.54-1.21l3.64-.61,4.44,1.21,3.43-.41,4.85.41,3.43.6,5.25-.6,3.64.4,5.05,1.41c.67-.27,1.68-.4,3.03-.4,1.75-.4,3.3-.34,4.65.2.54-.13,1.18-.17,1.92-.1.74.07,1.52.1,2.32.1,1.08-.27,1.95-.37,2.63-.3.67.07,1.35-.03,2.02-.3,1.48.67,3.03.67,4.65,0,1.75.54,3.16.67,4.24.4h2.22c.81,0,1.55.07,2.22.2l3.43-.4,1.82-1.41-.2-2.02v-17.98c-.54-.54-1.05-1.01-1.52-1.42-.47-.4-1.04-.74-1.72-1.01l-3.03-5.25v-3.43c-2.29-2.02-3.1-3.23-2.43-3.64l9.09.4c.27.94.74,1.45,1.41,1.51.67.07,1.42.17,2.22.3.67.41,1.21.71,1.62.91.4.2.81.84,1.21,1.92.54-.13,1.08-.17,1.62-.1.54.07,1.08.17,1.62.3.67.13,1.21.2,1.62.2s.94.07,1.61.2c.41.27.84.57,1.31.91.47.34.91.64,1.31.91.13.14.54.34,1.21.61.67.27,1.42.54,2.22.81.81.27,1.58.57,2.32.91.74.34,1.31.57,1.72.71,0,.67-.1,1.18-.3,1.51-.2.34-.17.78.1,1.31v2.93c0,1.55.03,3.17.1,4.85.07,1.69.1,3.27.1,4.75v4.85l-.2,3.23ZM878.98,416.41c-.27-.41-.6-.81-1.01-1.21-.4-.4-.74-.74-1.01-1.01-.27-.54-.81-1.31-1.62-2.32-.81-1.01-1.75-1.72-2.83-2.12l6.67-9.9c.81-.54,1.75-1.08,2.83-1.62,1.08-.54,2.15-1.14,3.23-1.82.54-.41,1.24-.84,2.12-1.31.87-.47,1.38-1.24,1.52-2.32.54-.27,1.21-.57,2.02-.91.81-.34,1.55-.98,2.22-1.92,2.15-.27,3.57-.94,4.24-2.02.81-1.75,1.21-3.1,1.21-4.04.81-.4,1.48-1.01,2.02-1.82.54-.81,1.21-1.55,2.02-2.22.67-.67,1.24-1.21,1.72-1.62.47-.4.84-1.08,1.11-2.02.67-.41,1.31-.91,1.92-1.52s1.24-1.18,1.92-1.72l5.05-4.44c.94-1.21,1.55-2.83,1.82-4.85.54-.67.94-1.28,1.21-1.82.27-.54.67-1.28,1.21-2.22l-2.63-5.86-.6-5.66c.4-.54.94-1.11,1.62-1.72.67-.61,1.14-1.24,1.41-1.92.81-.81,1.35-1.75,1.62-2.83.81.4,1.45.81,1.92,1.21.47.4.84.61,1.11.61.81.54,1.45,1.04,1.92,1.51.47.47.84.84,1.11,1.11.67.54,1.14.98,1.42,1.31.27.34.74.78,1.41,1.31h-.2c.94.4,2.09,1.18,3.43,2.32,1.35,1.15,2.63,2.39,3.84,3.74,1.21,1.35,2.19,2.66,2.93,3.94.74,1.28.97,2.32.71,3.13-.4,1.35-.54,2.32-.4,2.93.13.61.33,1.18.6,1.72.67.68,1.35,1.28,2.02,1.82.67.54,1.48,1.14,2.42,1.82.54,0,1.14.1,1.82.3.67.2,1.34.44,2.02.71.4.27.77.54,1.11.81.34.27.77.47,1.31.61l5.05-.2c.27.68.74,2.02,1.41,4.04.27.68.61,1.35,1.01,2.02,1.08,1.08,2.29,1.35,3.64.81l3.23-.2c.13.41.37.81.71,1.21.34.4.64.74.91,1.01,1.08.54,2.02.84,2.83.91.81.07,1.48.24,2.02.51,1.08.13,2.15,0,3.23-.41l4.44,5.05,1.42,1.41,6.06-.2c0,.41.2.78.61,1.11.4.34,1.01,1.31,1.82,2.93.4.13.94.44,1.61.91.67.47,1.21,1.18,1.62,2.12.54.4,1.08.88,1.62,1.41.54.54,1.01.95,1.42,1.21.4.54.91,1.35,1.51,2.42.61,1.08,1.18,1.89,1.72,2.43l.2,5.05v6.46c-.27,0-.81.1-1.62.3-.81.2-1.35.3-1.62.3-.54.27-1.04.51-1.51.71-.47.2-.91.17-1.31-.1-.68.27-1.42.61-2.22,1.01-.81.4-1.48.61-2.02.61-1.35-.81-3.1-1.45-5.25-1.92-2.16-.47-3.84-.57-5.05-.3-.27-.67-.94-1.01-2.02-1.01-.54-.4-.94-.77-1.21-1.11-.27-.33-.54-.57-.81-.71-1.08-.27-1.75-.57-2.02-.91-.27-.34-.74-.84-1.42-1.52-.54-.67-1.04-1.24-1.51-1.72-.47-.47-1.05-.71-1.72-.71-1.08,0-2.09-.33-3.03-1.01-.94-.67-1.55-1.14-1.82-1.41-.54-.4-.88-.71-1.01-.91-.13-.2-.34-.64-.6-1.31h-.2c-.68-.27-1.35-.81-2.02-1.62-.68-.81-1.41-1.08-2.22-.81-.54-.27-1.01-.54-1.41-.81-.41-.27-.88-.54-1.42-.81-.67-.4-1.21-1.04-1.62-1.92-.4-.87-.88-1.45-1.41-1.72-.67-1.48-1.45-2.39-2.32-2.73-.88-.33-1.79-.77-2.73-1.31-.94.27-1.89,0-2.83-.81-.54-.54-.91-.98-1.11-1.31-.2-.34-.51-.77-.91-1.31-.4-.13-.88-.54-1.41-1.21-.54-.67-.95-1.14-1.21-1.41-.81-.67-1.59-1.65-2.32-2.93-.74-1.28-1.38-1.99-1.92-2.12-1.62.54-2.7,1.15-3.23,1.82-.68,1.08-1.15,1.75-1.41,2.02.13.14-.1.57-.71,1.31-.6.74-1.04,1.45-1.31,2.12-.4,0-.81.27-1.21.81-.4.54-.61,1.01-.61,1.42-.4.54-.71,1.18-.91,1.92-.2.74-.3,1.38-.3,1.92-1.08.14-2.09.34-3.03.61-.94.27-1.62.68-2.02,1.21-.81.4-1.75,1.35-2.83,2.83-.27.68-.67,1.52-1.21,2.53-.54,1.01-.88,1.85-1.01,2.53-.27.14-.57.2-.91.2h-.91l-2.22.81h.4c-.67.4-1.18.88-1.51,1.41-.34.54-.78,1.01-1.31,1.42-.27.81-1.15,1.75-2.63,2.83-.54.14-1.35.58-2.43,1.31-1.08.74-1.75,1.45-2.02,2.12l-5.66.61-4.04.2-7.07,2.02-4.65.41Z"/>
          </g>
          <g>
            <path class="cls-1" d="M1.2,346.55c.86,1.04,1.33,1.77,1.43,2.16.09.4.17.75.23,1.06,0,.31-.01.58-.04.83-.03.25-.02.52.04.83.12.25.26.51.41.78s.38.54.69.78c-.12.12-.28.28-.46.46-.18.18-.46.52-.83,1.01.18.18.37.4.55.64.31.43.58.71.83.83-.06.37-.09.65-.09.83v.74l-.09,1.1.28,2.03-.28,3.77c.12.31.18.63.18.97s.03.75.09,1.24v1.47l.18,1.38c-.12.37-.15.78-.09,1.24s.03.94-.09,1.43c.31.25.51.41.6.51.09.09.2.29.32.6.25.18.44.36.6.51.15.15.38.48.69.97.31-.31.58-.63.83-.97.24-.34.58-.66,1.01-.97.06-.06.25-.2.55-.41s.61-.44.92-.69c.12-.12.34-.12.64,0,.31.12.61.15.92.09.18.06.46.05.83-.04.37-.09.7-.08,1.01.04.37-.12.67-.15.92-.09.24.06.46.03.64-.09.37.12.67.2.92.23.25.03.58-.01,1.01-.14.31.06.66.11,1.06.14.4.03.72.05.97.05.12,0,.28-.03.46-.09.18-.06.61-.09,1.29-.09.25-.06.54-.06.88,0,.34.06.6.15.78.28h1.57c.49,0,.92-.06,1.29-.18.24-.06.44-.08.6-.04.15.03.57.04,1.24.04.3-.12.6-.12.87,0,.28.12.6.18.97.18.18,0,.4-.01.64-.05.25-.03.58.02,1.01.14.37-.12.7-.24,1.01-.37.3-.12.61-.12.92,0,.18.06.4.08.64.05.24-.03.43.04.55.23h2.49c.49,0,1.01-.09,1.56-.28s.98-.52,1.29-1.01c.18-.3.41-.6.69-.87l.78-.78c0-.37-.02-.69-.05-.97s-.17-.57-.41-.88c-.31-.18-.52-.38-.64-.6-.12-.21-.25-.41-.37-.6-.18-.25-.37-.46-.55-.64-.18-.18-.43-.28-.74-.28-.06-.18-.22-.41-.46-.69-.25-.28-.43-.51-.55-.69-.18-.61-.25-1.27-.18-1.98.06-.7.03-1.18-.09-1.43.06-.25.11-.55.14-.92.03-.37.01-.7-.05-1.01l.28-2.03-.09-1.57.55-1.66.09-2.21-.09-1.93c.12-.37.2-.66.23-.88.03-.21.05-.54.05-.97-.12-.24-.2-.46-.23-.64s-.14-.43-.32-.74c-.18-.24-.34-.43-.46-.55-.12-.12-.25-.24-.37-.37-.37-.24-.75-.43-1.15-.55-.4-.12-.66-.37-.78-.74-.49.06-.95.08-1.38.04-.43-.03-.86.02-1.29.14-.31.12-.6.18-.88.18h-.88c-.49.18-.8.37-.92.55-.12.18-.34.43-.64.74-.12,0-.32-.01-.6-.04s-.54-.11-.78-.23c-.31.12-.6.23-.88.32s-.57.14-.87.14c-.37-.12-.64-.21-.83-.28-.18-.06-.49-.03-.92.09-.31.12-.58.12-.83,0-.25-.12-.55-.12-.92,0h-1.15c-.28,0-.57.03-.88.09-.55-.18-1.23-.18-2.03,0-.61-.31-1.38-.37-2.3-.18-.31,0-.61-.03-.92-.09-.31-.06-.64-.03-1.01.09-.31-.06-.58-.12-.83-.18-.25-.06-.49-.03-.74.09-.31.06-.6.11-.88.14s-.57.04-.87.04c-.31-.06-.63-.09-.97-.09h-.97l-1.38.09c-.25-.43-.46-.74-.64-.92-.18-.18-.37-.46-.55-.83-.12-.18-.31-.43-.55-.74-.25-.31-.43-.52-.55-.65-.8.37-1.32.57-1.57.6-.25.03-.55.17-.92.41-.12.37-.2.64-.23.83-.03.18-.02.52.04,1.01v.74c0,.18-.06.49-.18.92ZM13.81,355.29c-.06-.12-.11-.29-.14-.51-.03-.22-.08-.38-.14-.51v-.65c.12-.12.22-.31.28-.55.61.12,1.14.09,1.57-.09.49,0,.89.03,1.2.09.31.06.61.09.92.09.18-.12.48-.14.88-.05.4.09.69.14.87.14.25-.24.7-.34,1.38-.28h1.38c.74,0,1.44.09,2.12.28.43-.06.83-.11,1.2-.14.37-.03.64-.08.83-.14.12.06.28.05.46-.05.18-.09.34-.08.46.05.18.31.21.58.09.83l.09.83c-.18.61-.25,1.01-.18,1.2.06.12.09.34.09.64s.03.55.09.74c-.12.43-.17.72-.14.88.03.15.11.38.23.69-.12.25-.2.57-.23.97-.03.4.01.75.14,1.06l.09,1.84c-.06.12-.12.28-.18.46-.06.18-.12.34-.18.46,0,.25-.18.37-.55.37h-1.01l-1.75-.37c-.49.06-.83.11-1.01.14-.18.03-.31.05-.37.05-.31-.12-.57-.14-.78-.05-.22.09-.48.14-.78.14s-.61-.08-.92-.23c-.31-.15-.61-.17-.92-.05-.31.06-.57.12-.78.18-.22.06-.48.12-.78.18-.31-.06-.57-.12-.78-.18s-.48-.06-.78,0c-.25.06-.49.02-.74-.14-.25-.15-.46-.2-.64-.14-.18-.06-.35-.06-.51,0-.15.06-.32.06-.51,0l-.09-1.75.18-1.2-.09-1.01c0-.55-.09-1.07-.28-1.56-.12-.12-.22-.32-.28-.6-.06-.28-.12-.48-.18-.6.24-.24.64-.74,1.2-1.47Z"/>
            <path class="cls-1" d="M45.29,340.38c.18.12.34.31.46.55.12.25.28.49.46.74l.83,1.38.55,1.01c.06.31.11.6.14.88s-.01.57-.14.88c-.06.43-.03.8.09,1.1.12.31.12.64,0,1.01-.12.18-.14.43-.05.74s.11.52.05.64c.06.43.06.84,0,1.24-.06.4-.03.75.09,1.06-.25.8-.25,1.5,0,2.12-.12.31-.17.64-.14,1.01.03.37.08.74.14,1.1.12.68.06,1.26-.18,1.75.12.55.17.95.14,1.2-.03.25-.11.52-.23.83.12.31.18.55.18.74s-.03.34-.09.46c-.06.55-.06,1.01,0,1.38.06.37.12.68.18.92-.12.37-.2.72-.23,1.06-.03.34-.05.78-.05,1.33.18.31.22.83.09,1.57.12.31.18.61.18.92v.92c.12.55.12,1.07,0,1.57.06.49.03,1.04-.09,1.66-.06.49-.05.84.04,1.06.09.22.11.51.05.87-.12.37-.2.66-.23.88-.03.22-.05.51-.05.88.12.25.17.52.14.83-.03.31-.08.62-.14.92.49.37.83.69,1.01.97.18.28.34.54.46.78.12.18.35.43.69.74s.6.52.78.64c.55.8,1.23,1.29,2.03,1.47.8.31,1.69.25,2.67-.18.12-.06.29-.26.51-.6s.38-.51.51-.51c.12-.37.28-.7.46-1.01.18-.31.34-.61.46-.92.31-.49.49-1.2.55-2.12l.18-1.84-.18-1.57v-5.43l-.18-1.57.18-1.93.09-1.2v-.64c.31.06.57.05.78-.05.22-.09.38-.11.51-.04.24-.06.55-.06.92,0s.92.03,1.66-.09l1.66.09,1.66-.18,1.2.28,1.84-.18,1.29.37,2.76-1.84.18-2.12c-.12-.12-.32-.4-.6-.83-.27-.43-.48-.7-.6-.83.06-.24.06-.44,0-.6-.06-.15-.03-.29.09-.41-.37-.12-.71-.37-1.01-.74-.31-.37-.62-.58-.92-.65-.18-.18-.37-.4-.55-.64-.18-.24-.4-.43-.64-.55-.18-.31-.38-.55-.6-.74-.22-.18-.48-.46-.78-.83-.31-.12-.7-.18-1.2-.18s-.95-.03-1.38-.09c0,.31-.25.46-.74.46s-.8.09-.92.28h-1.38l-2.48.18h-.83v-1.93l.09-1.56.09-1.84-.09-1.66.09-1.75c-.49-1.23-.67-2.09-.55-2.58-.18-.31-.37-.54-.55-.69-.18-.15-.34-.38-.46-.69-.12-.24-.43-.47-.92-.69-.49-.21-.92-.35-1.29-.41-.18-.06-.34-.12-.46-.18-.12-.06-.31-.15-.55-.28l-1.57-.74c-.61.12-1.26.03-1.93-.28-.61-.37-1.24-.6-1.89-.69s-1.12-.2-1.43-.32c-.31.12-.67.34-1.1.64-.43.31-.58.55-.46.74,0,.49.05.98.14,1.47s.26.86.51,1.1Z"/>
            <path class="cls-1" d="M3.13,410.67c.49.34,1.29.51,2.39.51,1.35-.55,2.44-1.07,3.27-1.56.83-.49,1.49-.92,1.98-1.29.49-.37.84-.71,1.06-1.01.21-.31.38-.55.51-.74.86-.49,1.63-.95,2.3-1.38.67-.43,1.38-.86,2.12-1.29.74-.68,1.52-1.41,2.35-2.21.83-.8,1.58-1.54,2.26-2.21l5.43-4.88c1.59-1.53,2.96-2.95,4.1-4.23,1.14-1.29,2.32-2.55,3.54-3.77h.55c.18.18.51.6.97,1.24.46.65,1.09,1.4,1.89,2.26.67.68,1.33,1.29,1.98,1.84.65.55,1.24,1.17,1.8,1.84.67.8,1.43,1.33,2.26,1.61s1.55.72,2.16,1.33c.43.43.84.83,1.24,1.2.4.37.81.74,1.24,1.1.67.68,1.38,1.35,2.12,2.03.74.67,1.41,1.41,2.03,2.21.55.67,1.18,1.21,1.89,1.61.7.4,1.41.77,2.12,1.1.7.34,1.38.69,2.03,1.06.64.37,1.15.86,1.52,1.47l3.68-.46c.49-.43.95-.83,1.38-1.2.43-.37.83-.77,1.2-1.2l-.09-3.13c-.18-.49-.48-.84-.88-1.06-.4-.22-.48-.66-.23-1.34-.92-.98-1.8-1.84-2.62-2.58-.83-.74-1.7-1.56-2.62-2.49h-1.2c-.74-.67-1.44-1.26-2.12-1.75-.68-.49-1.47-.89-2.39-1.2-.18-.06-.43-.26-.74-.6-.31-.34-.64-.7-1.01-1.1-.37-.4-.75-.8-1.15-1.2-.4-.4-.78-.69-1.15-.87h-1.01c-1.04-1.23-2.18-2.18-3.41-2.85-1.23-.67-2.46-1.38-3.68-2.12-1.47-.86-2.7-1.87-3.68-3.04-.98-1.16-2.09-2.18-3.31-3.04-.31-.12-.55-.29-.74-.51-.18-.21-.37-.38-.55-.51-1.04.12-1.95.14-2.72.05-.77-.09-1.58.11-2.44.6v3.04l-2.85,2.76v1.38c-.62.25-1.21.52-1.8.83-.58.31-1.18.55-1.8.74-.61.18-1.09.4-1.43.65s-.64.51-.92.78-.55.6-.83.97c-.28.37-.69.74-1.24,1.1-.25,1.35-.87,2.46-1.89,3.31-1.01.86-1.95,1.72-2.81,2.58h-1.2l-5.16,5.06-5.06,2.12-1.75,3.68c.61.55,1.03,1.14,1.24,1.75s.46,1.18.74,1.7.66.95,1.15,1.29Z"/>
            <path class="cls-1" d="M128.52,340.29c.12.37.31.62.55.74.25.12.49.34.74.64.18.37.26.68.23.92-.03.25-.08.58-.14,1.01.12.31.14.63.05.97-.09.34-.08.57.04.69.12.49.12.86,0,1.1-.12.25-.18.49-.18.74.06.37.12.72.18,1.06.06.34.06.63,0,.88v1.01c0,.37.03.64.09.83-.06.37-.12.72-.18,1.06s-.06.6,0,.78c.12.37.17.74.14,1.1-.03.37-.02.71.05,1.01-.12.31-.17.62-.14.92.03.31.08.61.14.92-.06.31-.06.6,0,.88.06.28.03.6-.09.97,0,.25.03.52.09.83.06.31.06.62,0,.92.06.31.08.6.04.87s-.08.57-.14.88v.92c0,.31.03.68.09,1.1-.06.43-.09.75-.09.97s-.06.57-.18,1.06l.46,1.93-.18,2.49c0,.18-.02.37-.05.55-.03.18-.11.43-.23.74l.28,2.12-.09,1.66.09,1.75c0,.31.03.61.09.92.06.31.03.64-.09,1.01,0,.49-.02.92-.05,1.29-.03.37-.08.71-.14,1.01.06.31.14.57.23.78.09.22.11.48.05.78-.12.18-.17.4-.14.64.03.25.01.55-.05.92.25.43.22.98-.09,1.66.06.12.09.31.09.55s.03.52.09.83c-.25.62-.25,1.32,0,2.12.12.49.15.92.09,1.29-.06.37-.03.74.09,1.1-.18.55-.28,1.26-.28,2.12-.12.31-.18.55-.18.74v.55l.18,1.47.28,1.66-.09,2.12c-.12.43-.17.8-.14,1.1.03.31.05.67.05,1.1-.06.18-.05.41.04.69.09.28.11.57.05.87,0,.31-.03.74-.09,1.29-.06.55-.06.98,0,1.29.06.18.24.35.55.51.31.15.61.29.92.41.31.12.57.26.78.41.22.15.32.29.32.41.12.3.34.63.64.97s.64.57,1.01.69c.31-.06.54-.08.69-.04.15.03.38.08.69.14l1.1-1.38c.12-.12.34-.28.64-.46.31-.18.52-.34.64-.46.31-.31.52-.52.64-.65.12-.12.31-.34.55-.64.06-.31.08-.66.05-1.06-.03-.4-.02-.66.05-.78.18-.31.38-.58.6-.83.22-.25.41-.49.6-.74.06-.43.03-.98-.09-1.66.12-.18.21-.43.27-.74.06-.31.03-.62-.09-.92.06-.31.06-.6,0-.87s-.09-.66-.09-1.15c.12-.31.15-.63.09-.97-.06-.34,0-.66.18-.97-.18-.3-.25-.64-.18-1.01.06-.37.09-.74.09-1.1,0-.43-.03-.81-.09-1.15-.06-.34-.03-.66.09-.97.06-.18.05-.46-.04-.83-.09-.37-.14-.7-.14-1.01-.06-.31-.06-.6,0-.88.06-.28.09-.54.09-.78,0-.31-.02-.58-.04-.83-.03-.24-.02-.46.04-.64l-.55-1.47.09-2.3-.18-2.12,1.01-1.56c-.12-.25-.18-.51-.18-.78s-.03-.63-.09-1.06c.12-.31.17-.58.14-.83-.03-.24-.11-.58-.23-1.01.18-.61.22-1.26.09-1.93-.06-.37-.08-.66-.04-.88.03-.21.04-.48.04-.78.12-.49.17-.86.14-1.1-.03-.24-.08-.55-.14-.92l-.64-.92.83-.83c0-.12.01-.35.05-.69.03-.34.04-.69.04-1.06v-.78c0-.21-.03-.48-.09-.78s-.08-.6-.05-.88.01-.51-.04-.69c-.06-.43-.08-.8-.05-1.1.03-.3.05-.61.05-.92-.06-.37-.08-.7-.05-1.01s.01-.61-.05-.92c-.06-.24-.06-.51,0-.78s.09-.57.09-.87c.12-.31.15-.63.09-.97s-.03-.66.09-.97c-.06-.31-.09-.6-.09-.88s-.03-.6-.09-.97c-.12-.31-.15-.6-.09-.87s.03-.57-.09-.88c.06-.31.12-.63.18-.97.06-.34.12-.72.18-1.15-.12-.12-.2-.35-.23-.69s.01-.6.14-.78c-.12-.3-.2-.61-.23-.92-.03-.31-.05-.7-.05-1.2.18-.31.28-.58.28-.83s.06-.67.18-1.29c-.06-.67-.17-1.21-.32-1.61-.15-.4-.17-.81-.05-1.24-.12-.3-.25-.54-.37-.69-.12-.15-.25-.38-.37-.69-.18-.49-.55-.86-1.1-1.1-.18-.12-.45-.4-.78-.83-.34-.43-.66-.86-.97-1.29-.25-.12-.46-.28-.64-.46-.18-.18-.4-.4-.65-.64h.09c-.92-.18-1.63-.12-2.12.18-.31-.12-.64-.22-1.01-.28-.37-.06-.71-.03-1.01.09-.18-.06-.46-.09-.83-.09h-1.2c-.43,0-.83.02-1.2.05-.37.03-.58.04-.65.04-.25.25-.4.6-.46,1.06-.06.46-.22.81-.46,1.06.12.31.31.64.55,1.01.24.37.55.65.92.83Z"/>
            <path class="cls-1" d="M84.1,359.71c-.09.25-.11.58-.05,1.01v.65c0,.18.06.49.18.92l.37,1.47.37,1.75.55,1.84c.3.18.55.34.74.46.18.12.34.28.46.46-.06.37-.06.74,0,1.1.49.25.86.71,1.1,1.38.67.31,1.1.61,1.29.92.43.18.72.38.88.6.15.22.38.44.69.69.12.25.29.46.51.65.22.18.44.4.69.64.18.12.4.29.64.51.25.22.52.41.83.6h.28c.06,0,.22.06.46.18.61.25,1.07.58,1.38,1.01.37,0,.69.02.97.05s.6.08.97.14c.31-.18.57-.23.78-.14.21.09.47.11.78.04.37,0,.7.02,1.01.05.3.03.52.05.64.05.43,0,.78.02,1.06.04.28.03.48-.01.6-.14.31-.06.6-.08.87-.04s.63.04,1.06.04c.12-.24.29-.47.51-.69.21-.22.47-.48.78-.78.37.18.75.22,1.15.09.4-.12.84-.12,1.33,0,.49-.37.86-.7,1.1-1.01.49-.06.86-.09,1.1-.09s.52-.15.83-.46c.37-.06.7-.24,1.01-.55.31-.31.64-.52,1.01-.64,0-.49-.03-.89-.09-1.2s.03-.58.28-.83c.67.06,1.12.03,1.34-.09.21-.12.32-.24.32-.37.25-.12.4-.32.46-.6.06-.27.18-.66.37-1.15.18-.24.37-.46.55-.64.18-.18.43-.4.74-.65.3-.06.51-.17.6-.32.09-.15.26-.38.51-.69.06-.25.09-.46.09-.64s.03-.37.09-.55v-1.38l.09-1.2c-.18-.67-.15-1.26.09-1.75-.06-.18-.12-.41-.18-.69s-.12-.54-.18-.78c.12-.31.17-.61.14-.92-.03-.31-.02-.58.04-.83-.06-.24-.06-.48,0-.69.06-.21.12-.41.18-.6-.43-.61-.74-1.04-.92-1.29-.18-.24-.34-.49-.46-.74l-.18-.74c-.18-.12-.4-.29-.64-.51-.25-.21-.37-.38-.37-.51-.68-.55-1.07-.98-1.2-1.29-.12-.12-.29-.25-.51-.37-.22-.12-.48-.31-.78-.55l-1.1-1.29-1.1-1.1c-.37-.25-.68-.46-.92-.64-.25-.18-.55-.34-.92-.46-.31-.31-.65-.41-1.01-.32-.37.09-.74.08-1.1-.04-.37-.06-.71-.05-1.01.04-.31.09-.71-.01-1.2-.32-.31.06-.55-.06-.74-.37-.18-.3-.46-.4-.83-.28-.12.18-.26.36-.41.51-.15.15-.29.29-.41.41-.37.06-.69.06-.97,0s-.54-.03-.78.09c-.25-.12-.51-.18-.78-.18s-.66.09-1.15.28c-.25-.12-.46-.18-.64-.18s-.43-.06-.74-.18c-.68.25-1.38.18-2.12-.18-.43.49-.8.84-1.1,1.06-.31.22-.65.51-1.01.87-.37.18-.71.35-1.01.51s-.55.29-.74.41c-.43.43-.77.71-1.01.83l-.37.18c-.31.31-.57.54-.78.69-.22.15-.51.29-.88.41-.06.18-.18.38-.37.6-.18.22-.37.41-.55.6-.18.25-.34.48-.46.69-.12.22-.31.38-.55.51,0,.31.01.57.05.78.03.22.05.41.05.6l-1.38,1.38c-.31.06-.58.23-.83.51-.25.28-.43.57-.55.88,0,.68.09,1.2.28,1.56,0,.37-.05.68-.14.92ZM93.53,360.72c.12-.18.21-.34.28-.46.06-.12.15-.31.28-.55.06-.12.12-.25.18-.37.06-.12.03-.3-.09-.55.06-.49.06-.89,0-1.2.37-.55.74-.95,1.1-1.2l1.1-.74.74-1.1,1.01-.37c.24-.12.48-.17.69-.14.21.03.41.08.6.14.24,0,.52-.04.83-.14.3-.09.52-.14.64-.14.31.12.6.2.87.23s.51.04.69.04c.18-.12.38-.15.6-.09.21.06.41.03.6-.09.37.18.86.18,1.47,0,.24.25.43.41.55.51.12.09.21.26.28.51.18.12.37.26.55.41.18.15.4.35.64.6.37.12.7.37,1.01.74l.28,1.2v1.1c0,.18.01.34.05.46.03.12.05.22.05.28.12.12.21.23.28.32.06.09.18.26.37.51-.31.43-.46.77-.46,1.01-.12.49-.31.83-.55,1.01-.06.31-.11.58-.14.83-.03.25.02.52.14.83-.31.18-.51.37-.6.55s-.26.34-.51.46v.83l-.28.09-.46.37c-.06.25-.31.46-.74.64h-1.47c-.25.25-.57.36-.97.32-.4-.03-.78-.01-1.15.05-.49-.06-1,.01-1.52.23-.52.22-1.03.26-1.52.14,0-.06-.18-.15-.55-.28-.12-.06-.28-.12-.46-.18-.18-.06-.37-.15-.55-.28-.49-.18-.83-.49-1.01-.92-.55-.06-.89-.4-1.01-1.01-.12-.31-.32-.57-.6-.78-.28-.21-.51-.57-.69-1.06.12-.12.2-.29.23-.51.03-.22.01-.41-.05-.6-.12-.18-.26-.35-.41-.51-.15-.15-.26-.29-.32-.41-.06-.12-.11-.26-.14-.41-.03-.15.01-.26.14-.32Z"/>
            <path class="cls-1" d="M80.14,391.89c.22-.03.41.02.6.14.49.37.92.8,1.29,1.29.31-.06.6-.09.88-.09h.78c.24-.12.52-.18.83-.18s.61-.06.92-.18c.31.12.6.12.88,0s.63-.18,1.06-.18c.37-.12.75-.21,1.15-.28.4-.06.81-.24,1.24-.55l1.66.28,2.03-.37,1.93.18h5.52l1.93.09,1.75-.09,1.84-.18,1.93.37,1.66-.18,2.03-.09,1.75.09,1.47.09,2.3-.09,1.75-.18,2.12.37c.55-.06,1.06-.12,1.52-.18.46-.06.88-.09,1.24-.09.31,0,.57-.03.78-.09s.44-.09.69-.09l1.1-.55c-.31-.43-.43-.9-.37-1.43.06-.52.15-1,.28-1.43-.37-.3-.64-.61-.83-.92-.18-.31-.34-.67-.46-1.1-.25-.06-.46-.23-.64-.51s-.35-.61-.51-1.01c-.15-.4-.29-.8-.41-1.2-.12-.4-.25-.75-.37-1.06-.61.12-1.17.25-1.66.37-.49.12-.92.18-1.29.18l-1.93-.46-1.38.09-2.21.18-.92-.09c-.68-.12-1.35-.09-2.03.09-.31-.06-.6-.11-.87-.14-.28-.03-.57-.08-.88-.14-.31.18-.61.25-.92.18-.31-.06-.62-.06-.92,0-.31,0-.63.03-.97.09-.34.06-.57.03-.69-.09l-8.93.18c-.31.06-.86.03-1.66-.09-.18.06-.4.09-.64.09s-.49.06-.74.18l-2.85-.09c-.12.12-.37.14-.74.05-.37-.09-.74-.11-1.1-.05-.31-.12-.58-.14-.83-.05-.25.09-.49.08-.74-.04-.49-.06-.89-.03-1.2.09-.31.12-.61.12-.92,0-.31,0-.62-.03-.92-.09-.31-.06-.68-.03-1.1.09l-1.47-.18-1.56.28-1.75-.09-1.75-.18c-.25.06-.52.08-.83.05-.31-.03-.55-.05-.74-.05-.31.06-.6.15-.88.28-.27.12-.48.28-.6.46-.06.55-.14,1.14-.23,1.75-.09.61-.11,1.17-.05,1.66.12.12.34.34.64.64.31.31.49.52.55.64.06.37.12.78.18,1.24.06.46.15.75.28.88,0,.12.2.22.6.28.4.06.78.09,1.15.09.67.37,1.16.77,1.47,1.2.24,0,.48-.01.69-.04Z"/>
            <path class="cls-1" d="M65.63,426.73c.12-.37.17-.7.14-1.01-.03-.3-.02-.58.05-.83-.06-.3-.11-.64-.14-1.01-.03-.37.01-.64.14-.83-.06-.31-.09-.58-.09-.83v-.74c-.18-.3-.34-.63-.46-.97-.12-.34-.28-.66-.46-.97s-.34-.58-.46-.83c-.12-.25-.25-.46-.37-.65-.18-.12-.44-.37-.78-.74-.34-.37-.6-.64-.78-.83-.06-.18-.22-.37-.46-.55-.25-.18-.46-.28-.64-.28-.25-.24-.46-.44-.65-.6-.18-.15-.37-.29-.55-.41-.43-.12-.77-.17-1.01-.14-.25.03-.55.02-.92-.04-.31-.06-.58-.12-.83-.18-.25-.06-.46-.28-.64-.64-.55.12-1.17.06-1.84-.18-.68-.24-1.2-.43-1.56-.55-.18.31-.36.72-.51,1.24-.15.52-.29.94-.41,1.24.37.31.58.58.65.83.06.25.15.58.28,1.01.24.25.47.48.69.69.22.22.48.39.78.51-.12.49-.2.8-.23.92-.03.12.01.37.14.74-.06.37-.08.66-.04.87.03.22.01.48-.05.78.12.31.17.58.14.83-.03.25-.02.4.05.46.18.49.32.89.41,1.2.09.31.23.62.41.92.12.25.24.45.37.6.12.15.31.29.55.41-.49.55-.83.92-1.01,1.1-.18.18-.43.52-.74,1.01-.12.49-.15.89-.09,1.2-.12.55-.09,1.1.09,1.66.06.06.17.23.32.51s.38.48.69.6c.18.31.29.51.32.6.03.09.08.35.14.78-.31.18-.62.45-.92.78-.31.34-.46.66-.46.97-.06.37-.11.64-.14.83-.03.18.01.43.14.74-.12.43-.2.78-.23,1.06-.03.28-.05.54-.05.78.12.31.15.64.09,1.01s0,.64.18.83c-.06.31-.11.6-.14.88-.03.28-.08.66-.14,1.15v.55c0,.25.09.52.28.83-.31.98-.34,1.57-.09,1.75-.06.37-.11.69-.14.97-.03.28-.02.57.04.88.12.31.14.66.05,1.06-.09.4-.11.75-.05,1.06.12.12.15.34.09.64-.06.31-.03.58.09.83-.12.12-.2.51-.23,1.15-.03.64-.06,1.33-.09,2.07-.03.74-.04,1.41-.04,2.03v1.01c.12.31.17.62.14.92-.03.31-.05.68-.05,1.1-.06.25-.03.52.09.83s.12.61,0,.92c.25.12.48.32.69.6s.48.54.78.78c-.43.25-.74.51-.92.78-.18.28-.43.54-.74.78,0,.25.03.54.09.88s.06.66,0,.97c.12.31.2.66.23,1.06.03.4.23.72.6.97h3.13c.12-.24.34-.49.64-.74.31-.24.58-.49.83-.74.31-.18.58-.37.83-.55.24-.18.43-.4.55-.65.31-.3.55-.54.74-.69.18-.15.37-.38.55-.69.3-.31.54-.54.69-.69.15-.15.29-.35.41-.6.74-.74,1.38-1.26,1.93-1.57-.06-.37-.12-.7-.18-1.01-.06-.31-.06-.55,0-.74.12-.37.14-.72.04-1.06-.09-.34-.14-.66-.14-.97.06-.12.11-.49.14-1.1.03-.61.05-1.27.05-1.98v-2.03c0-.65.06-1.03.18-1.15-.12-.18-.18-.46-.18-.83v-1.2c-.25-.18-.43-.34-.55-.46-.12-.12-.34-.37-.64-.74.37-.18.63-.35.78-.51s.38-.29.69-.41c-.12-.49-.17-.92-.14-1.29.03-.37.01-.77-.05-1.2,0-.25-.03-.49-.09-.74-.06-.24-.03-.58.09-1.01.18-.55.18-1.2,0-1.93v-1.66l.18-1.93-.28-1.57.28-1.84c-.06-.31-.08-.6-.05-.88s.01-.57-.04-.87c0-.31-.05-.58-.14-.83-.09-.24-.14-.58-.14-1.01.06-.8.18-1.47.37-2.03,0-.31-.09-.8-.28-1.47Z"/>
            <path class="cls-1" d="M9.66,454.81c.61-.31,1.04-.52,1.29-.64.55-.37.98-.8,1.29-1.29.24-.31.51-.58.78-.83.28-.24.57-.4.87-.46.31-.31.6-.58.88-.83s.54-.4.78-.46c.43-.43.77-.7,1.01-.83.18-.37.35-.67.51-.92.15-.24.29-.49.41-.74.18-.18.43-.67.74-1.47.06-.31.4-.7,1.01-1.2,0-.37.09-.61.28-.74.18-.12.4-.3.65-.55-.06-.3-.05-.57.04-.78.09-.21.32-.48.69-.78.12-.31.23-.55.32-.74.09-.18.2-.37.32-.55-.06-.61.12-1.1.55-1.47s.7-.67.83-.92l.74-1.2.83-1.66.74-1.57.65.65,2.21,2.58.74,1.84v2.39l.55,1.75.55,2.76c.12.25.29.51.51.78s.38.6.51.97c.18.31.3.54.37.69.06.15.21.35.46.6.12.49.23.83.32,1.01.09.18.2.43.32.74.12.25.26.48.41.69.15.22.35.51.6.88.25.55.58.95,1.01,1.2.06.25.28.54.64.88s.74.66,1.1.97c.24,0,.57-.03.97-.09.4-.06.8-.12,1.2-.18.4-.06.75-.12,1.06-.18.31-.06.49-.09.55-.09.31-.12.58-.29.83-.51.25-.21.4-.35.46-.41.31-.12.6-.32.88-.6s.47-.54.6-.78c-.12-.31-.15-.81-.09-1.52.06-.7.06-1.33,0-1.89-.06-.12-.05-.4.04-.83.09-.43.05-.8-.14-1.1-.25-.31-.41-.61-.51-.92-.09-.3-.35-.61-.78-.92,0-.43.01-.86.05-1.29.03-.43.11-.92.23-1.47-.49-.18-1.01-.49-1.57-.92-.31-.31-.64-.7-1.01-1.2-.18,0-.38.02-.6.05s-.41-.01-.6-.14c-.31-.31-.51-.6-.6-.88s-.23-.69-.41-1.24c-.18-.31-.38-.58-.6-.83-.22-.24-.38-.49-.51-.74-.06-.55-.18-.89-.37-1.01-.18-.12-.34-.43-.46-.92-.18-.12-.35-.23-.51-.32-.15-.09-.23-.29-.23-.6-.18-.31-.4-.43-.65-.37-.25.06-.46-.03-.64-.28-.25-.12-.45-.24-.6-.37-.15-.12-.38-.24-.69-.37.18-.37.23-.6.14-.69-.09-.09-.29-.2-.6-.32-.06-.49-.23-.74-.51-.74s-.48-.12-.6-.37l-.83-.74,1.01.18c.49.18,1.04.25,1.66.18l1.66-.09,1.66.09c.31-.18.66-.2,1.06-.05.4.15.69.17.88.05.74.06,1.29.25,1.66.55.55.06,1.1.22,1.66.46.24.12.47.17.69.14.21-.03.47-.01.78.04.31.06.67-.09,1.1-.46.43-.37.86-.7,1.29-1.01.06-.06.14-.28.23-.64.09-.37.18-.78.28-1.24.09-.46.2-.92.32-1.38.12-.46.25-.78.37-.97.06-.18.11-.41.14-.69.03-.28-.11-.57-.41-.87.06-.12-.15-.46-.65-1.01s-.86-.98-1.1-1.29c-.25-.3-.58-.49-1.01-.55-.43-.06-.89-.21-1.38-.46-.25.06-.52.08-.83.05-.31-.03-.68-.02-1.1.04-.49.06-.89.08-1.2.05-.31-.03-.58-.05-.83-.05-.49-.12-.92-.15-1.29-.09-.37.06-.67.06-.92,0l-2.12.55-2.12.18-1.56.46c-.8,0-1.47.12-2.03.37-.43-.12-.74-.17-.92-.14-.18.03-.46.08-.83.14-.43-.12-.78-.2-1.06-.23-.28-.03-.63-.01-1.06.05-.18.06-.45.08-.78.04-.34-.03-.69-.08-1.06-.14-.12.06-.32.08-.6.05-.28-.03-.54-.08-.78-.14-.68.18-1.35.22-2.03.09h-1.01c-.31,0-.62-.03-.92-.09-.25.18-.54.28-.88.28s-.6.03-.78.09c-.37-.12-.71-.17-1.01-.14-.31.03-.61.02-.92-.04h-.69c-.34,0-.63.06-.88.18-.31-.12-.63-.17-.97-.14-.34.03-.57.02-.69-.04-.25-.12-.49-.31-.74-.55-.25-.25-.49-.37-.74-.37-.12-.06-.37-.11-.74-.14-.37-.03-.65-.11-.83-.23-.25.12-.52.14-.83.05-.31-.09-.64-.08-1.01.04-.18.06-.57.14-1.15.23-.58.09-1.03.2-1.33.32.24.86.43,1.47.55,1.84.12.37.3.71.55,1.01.12.18.23.52.32,1.01.09.49.15,1.01.18,1.57.03.55.08,1.06.14,1.52.06.46.15.75.28.88.31.31.66.52,1.06.64.4.12.72.34.97.65.61-.06,1.03-.01,1.24.14.21.15.54.32.97.51.3-.12.64-.12,1.01,0,.37.12.67.12.92,0,.61-.06,1.29-.06,2.03,0,.24,0,.52.02.83.05.3.03.61-.01.92-.14.49-.06,1.14.03,1.93.28.3-.18.66-.25,1.06-.18.4.06.81-.03,1.24-.28l2.58-.18c-.31.18-.55.34-.74.46-.18.12-.34.37-.46.74-.12.31-.29.48-.51.51s-.41.26-.6.69c-.06.12-.23.32-.51.6s-.54.6-.78.97l-.92.92-.92,1.2-1.47,1.75-1.2,1.47c-.12.18-.29.4-.51.64-.22.25-.48.49-.78.74-.31.12-.58.32-.83.6-.25.28-.52.57-.83.87-.12.18-.29.35-.51.51-.22.15-.36.32-.41.51-.31.31-.48.64-.51,1.01-.03.37-.14.77-.32,1.2-.12.12-.31.31-.55.55-.25.25-.52.43-.83.55-.12.37-.31.68-.55.92-.25.25-.43.43-.55.55-.43.31-.72.61-.88.92s-.29.55-.41.74c-.43.18-.74.39-.92.6-.18.22-.37.48-.55.78,0,.37-.02.75-.04,1.15-.03.4-.05.75-.05,1.06l-.09.09c.3.12.66.36,1.06.69.4.34.66.57.78.69.61-.06,1.17-.06,1.66,0,.31-.06.78-.03,1.43.09.65.12,1.09.22,1.34.28.12-.37.49-.7,1.1-1.01Z"/>
            <path class="cls-1" d="M74.1,485.88c0-.22-.06-.48-.18-.78.06-.31.14-.58.23-.83.09-.25.08-.52-.05-.83-.18-.31-.51-.83-.97-1.56-.46-.74-.88-1.29-1.24-1.66-.49-.06-.95-.34-1.38-.83-.43-.25-.72-.45-.87-.6s-.38-.32-.69-.51c-.18-.31-.4-.51-.65-.6-.25-.09-.52-.23-.83-.41-.31-.12-.54-.26-.69-.41-.15-.15-.39-.29-.69-.41-.31-.12-.55-.23-.74-.32-.18-.09-.52-.29-1.01-.6-.25.31-.51.62-.78.92-.28.31-.54.55-.78.74-.31-.06-.54-.03-.69.09-.15.12-.45.15-.88.09-.43-.06-.89,0-1.38.18-.37,0-.72.03-1.06.09-.34.06-.66.03-.97-.09-.61.25-1.14.28-1.56.09-.18,0-.43.06-.74.18-.31.12-.58.22-.83.28-.31.18-.58.37-.83.55-.25.18-.49.37-.74.55-.37-.31-.66-.54-.88-.69-.22-.15-.44-.29-.69-.41-.31-.12-.63-.17-.97-.14s-.66.01-.97-.04c-.31-.12-.6-.17-.88-.14-.28.03-.63.08-1.06.14h-1.66l-1.84-.09-1.93.18h-1.57l-1.84-.18h-1.75l-1.84.09-1.66-.18-1.84.37h-1.75l-1.75-.18-1.93-.09-1.84-.09-.74.18h-2.12c0-.31.03-.65.09-1.01s.12-.7.18-1.01c0-.49.01-1.04.04-1.66s-.01-1.1-.14-1.47c.06-.3.08-.64.05-1.01-.03-.37-.05-.7-.05-1.01s.03-.6.09-.87c.06-.28.03-.57-.09-.88,0-.31-.03-.6-.09-.88-.06-.27-.06-.57,0-.87.12-.31.17-.61.14-.92-.03-.31-.08-.65-.14-1.01,0-.31.03-.63.09-.97.06-.34.09-.66.09-.97-.31-.12-.57-.37-.78-.74-.22-.37-.41-.61-.6-.74-.25-.18-.52-.4-.83-.64-.31-.25-.55-.46-.74-.64-.25.06-.8.14-1.66.23s-1.41.14-1.66.14c-.18-.06-.46-.2-.83-.41-.37-.22-.71-.29-1.01-.23l-3.5.18c-.18.12-.41.31-.69.55-.28.25-.6.43-.97.55.31.43.57.78.78,1.06s.41.57.6.88c.31.31.57.57.78.78.22.22.48.48.78.78v1.29c.06.25.08.48.05.69-.03.22-.05.38-.05.51.25.31.48.55.69.74.22.18.44.46.69.83.06.12.09.28.09.46s-.06.46-.18.83c-.31.12-.57.36-.78.69-.22.34-.29.66-.23.97-.06.18-.11.52-.14,1.01s-.04,1.01-.04,1.56v2.49c-.12.31-.17.66-.14,1.06.03.4.04.78.04,1.15-.06.18-.09.44-.09.78s.06.63.18.88c.06.49.11.87.14,1.15.03.28-.02.57-.14.88,0,.31-.02.61-.05.92-.03.31-.08.61-.14.92.24.31.46.55.64.74.18.18.43.4.74.64.18.49.46.92.83,1.29.49.06.95.09,1.38.09h1.38c.3-.12.64-.15,1.01-.09.37.06.74.03,1.1-.09.31-.31.57-.55.78-.74.22-.18.51-.34.88-.46l1.47-.18,1.84.18,2.03-.18,1.93.18,1.84.09,1.75-.09h2.12l1.75-.18h3.77l1.57.18,1.84-.09,2.21-.18,1.93.18c.31.12.6.15.87.09s.66-.06,1.15,0c.37-.12.7-.17,1.01-.14.3.03.61-.02.92-.14.24-.12.46-.26.64-.41.18-.15.34-.26.46-.32.37.06.75.23,1.15.51.4.28.84.48,1.33.6.25-.06.49-.06.74,0,.24.06.52.06.83,0,.43,0,.78-.01,1.06-.04.28-.03.57-.02.88.04.31.18.61.37.92.55.31.18.61.37.92.55.12-.31.25-.52.37-.64.12-.12.28-.31.46-.55.37.31.66.57.88.78.21.22.47.41.78.6h2.12c.37.06.69.08.97.05.28-.03.63-.02,1.06.04.31.12.58.32.83.6.24.28.49.54.74.78.31,0,.61-.04.92-.14.31-.09.7-.14,1.2-.14.18,0,.44.03.78.09.34.06.66.06.97,0,.31-.12.72-.18,1.24-.18s1.06-.15,1.61-.46c.06-.18.09-.46.09-.83s-.03-.64-.09-.83v-.78Z"/>
            <path class="cls-1" d="M139.73,420.98c0-.34-.03-.75-.09-1.24h-.18c-.12-.18-.2-.49-.23-.92-.03-.43-.11-.8-.23-1.1-.43-.31-.8-.6-1.1-.87-.31-.28-.68-.57-1.1-.88-.86-.31-1.54-.49-2.03-.55-.25-.12-.45-.29-.6-.51-.15-.22-.32-.38-.51-.51-.18,0-.4-.04-.64-.14-.25-.09-.46-.17-.65-.23-.49,0-.91.03-1.24.09-.34.06-.66.09-.97.09-.25,0-.58.04-1.01.14-.43.09-.86.18-1.29.28-.43.09-.81.22-1.15.37-.34.15-.51.29-.51.41.06.37.14.84.23,1.43s.29,1,.6,1.24c.24.06.49.2.74.41.25.22.46.45.64.69.31.18.49.38.55.6s.15.38.28.51l.18,1.47-.28,1.84v1.66l.09,1.75.18,1.47-.09,1.66c.06.43.04.8-.05,1.1-.09.31-.11.61-.05.92.06.37.05.69-.04.97-.09.28-.11.57-.05.88s.09.61.09.92v.83c.06.31.09.64.09,1.01s.03.74.09,1.1c-.06.31-.11.57-.14.78-.03.22-.05.54-.05.97.12.25.12.54,0,.88s-.18.72-.18,1.15c.31.61.34,1.14.09,1.56l.09,1.93.09,2.12.09,3.68c.18.37.32.71.41,1.01.09.31.2.61.32.92.3.31.87.65,1.7,1.01s1.49.68,1.98.92c.12-.24.34-.48.64-.69.31-.21.61-.32.92-.32.31-.3.7-.52,1.2-.64.49-.12.89-.37,1.2-.74-.25-.49-.25-.98,0-1.47.3-.37.55-.97.74-1.79.18-.83.34-1.34.46-1.52-.06-.67,0-1.2.18-1.57v-.83c0-.24-.06-.43-.18-.55-.12-.37-.31-.64-.55-.83-.25-.18-.49-.43-.74-.74.25-.12.48-.29.69-.51s.51-.48.88-.78c-.06-.18-.11-.41-.14-.69-.03-.28.04-.57.23-.87-.06-.18-.12-.4-.18-.65-.06-.24-.09-.52-.09-.83-.06-.25-.09-.55-.09-.92s.06-.64.18-.83c0-.43.03-.8.09-1.1.06-.3.09-.58.09-.83-.12-.31-.18-.63-.18-.97v-.78c-.12-.3-.15-.63-.09-.97.06-.34.15-.66.28-.97.24-.18.29-.38.14-.6-.15-.22-.11-.48.14-.78.06-.31.06-.6,0-.88s-.06-.57,0-.88c.12-.24.15-.49.09-.74-.06-.24-.09-.58-.09-1.01.06-.24.05-.49-.05-.74-.09-.25-.14-.49-.14-.74,0-.31.01-.57.05-.78.03-.22.05-.44.05-.69-.06-.43-.08-.72-.05-.88.03-.15.11-.47.23-.97v-.78Z"/>
            <path class="cls-1" d="M142.08,483.99c-.09-.31-.08-.61.05-.92-.06-.18-.12-.45-.18-.78-.06-.34-.09-.66-.09-.97-.25-.18-.54-.25-.88-.18-.34.06-.78.03-1.33-.09-.06-.37-.26-.66-.6-.88s-.72-.51-1.15-.88l.37-1.84.28-1.93.09-2.03.27-1.66.28-2.03.18-2.03.18-1.47.09-2.21.28-1.66-1.56-1.1-1.38-1.93c-.68-.12-1.18-.26-1.52-.41-.34-.15-.63-.51-.88-1.06l.09-.18c-.31,0-.65.03-1.01.09s-.71.15-1.01.28c-.25-.31-.52-.57-.83-.78-.31-.21-.61-.47-.92-.78-.31,0-.63-.01-.97-.04s-.75-.08-1.24-.14c-.31.06-.63.08-.97.04-.34-.03-.66-.08-.97-.14-.31.49-.62.81-.92.97-.31.15-.52.38-.64.69-.49.06-.95.06-1.38,0-.31.06-.58.11-.83.14-.25.03-.55-.01-.92-.14-.31.12-.6.17-.88.14-.28-.03-.6.02-.97.14-.31-.12-.62-.18-.92-.18s-.7-.06-1.2-.18c-.55.18-1.2.22-1.93.09-.25-.06-.57-.08-.97-.05-.4.03-.75.11-1.06.23-.18-.12-.46-.17-.83-.14s-.71.04-1.01.04c-.25.12-.52.14-.83.05-.31-.09-.58-.14-.83-.14-.25.12-.48.17-.69.14-.22-.03-.41-.05-.6-.05-.18.18-.37.18-.55,0s-.43-.09-.74.28c-.55-.18-1.2-.28-1.93-.28-.25.12-.54.17-.88.14-.34-.03-.69-.04-1.06-.04-.31.06-.61.08-.92.04-.31-.03-.65.02-1.01.14-.31.12-.52.29-.64.51-.12.22-.31.48-.55.78-.25-.31-.49-.51-.74-.6-.25-.09-.49-.29-.74-.6-.25-.12-.48-.23-.69-.32-.22-.09-.51-.14-.88-.14-.25.12-.54.18-.87.18s-.69.15-1.06.46c-.12.12-.28.28-.46.46-.18.18-.43.4-.74.64-.43-.18-.92-.7-1.47-1.56-.18-.31-.34-.57-.46-.78-.12-.21-.28-.44-.46-.69-.31-.31-.54-.58-.69-.83-.15-.25-.38-.43-.69-.55-.62.06-1.17.18-1.66.37-.49.18-.8.25-.92.18-.12.31-.22.74-.28,1.29-.06.55-.03.98.09,1.29,0,.31-.05.68-.14,1.1s-.08.83.05,1.2c.12.31.18.63.18.97s-.03.63-.09.87c0,.25.06.48.18.69.12.22.18.38.18.51.18.31.37.52.55.64.18.12.34.34.46.64-.55.25-1.01.68-1.38,1.29.74.55,1.14.98,1.2,1.29-.12.31-.31.52-.55.64-.25.12-.43.31-.55.55.06.49.09.91.09,1.24s-.09.6-.28.78c.06.43.12.81.18,1.15.06.34.03.72-.09,1.15.12.12.17.37.14.74-.03.37-.11.71-.23,1.01.06.31.09.63.09.97s.06.66.18.97c-.12.31-.15.63-.09.97.06.34,0,.66-.18.97.24.55.24,1.23,0,2.03.12.24.17.52.14.83-.03.3.01.58.14.83.06.18.06.46,0,.83-.06.37-.06.68,0,.92.31.37.55.66.74.87.18.22.34.48.46.78.18.24.37.46.55.64.18.18.34.4.46.64.18.18.37.44.55.78.18.34.34.57.46.69.37-.12.75-.17,1.15-.14.4.03.75.11,1.06.23.24-.12.46-.17.64-.14.18.03.37.04.55.04.37-.37.66-.63.88-.78.21-.15.38-.32.51-.51.37.12.69.17.97.14.28-.03.57.01.88.14.37-.12.74-.22,1.1-.28.37-.06.61-.03.74.09h2.12c.24,0,.51.01.78.05.28.03.6.01.97-.05.37.12.66.15.87.09s.51-.09.88-.09h1.1c.31,0,.61-.06.92-.18.31.06.61.12.92.18s.61.09.92.09c.49,0,.98-.09,1.47-.28.43.12.77.2,1.01.23.25.03.49.08.74.14.43,0,.77-.03,1.01-.09s.52-.06.83,0c.37-.06.7-.12,1.01-.18.31-.06.58-.03.83.09.31.24.6.46.87.64.28.18.51.4.69.65.06-.12.65-.37,1.75-.74.3.06.69.06,1.15,0,.46-.06.84-.15,1.15-.28.49,0,.86-.08,1.1-.23.24-.15.49-.26.74-.32.37.18.86.18,1.47,0,.31.12.8.18,1.47.18.37,0,.89.12,1.56.37.24.12.41.26.51.41.09.15.26.35.51.6.61-.18,1.35-.15,2.21.09.31-.06.6-.08.88-.05s.63-.04,1.06-.23c.12.06.38.11.78.14.4.03.75.08,1.06.14.43.06.8.08,1.1.05.31-.03.55-.02.74.04.49-.12.95-.17,1.38-.14.43.03.86.05,1.29.05.12-.25.24-.51.37-.78.12-.28.34-.48.64-.6.25-.49.55-.92.92-1.29.06-.25.08-.48.04-.69-.03-.22.01-.48.14-.78,0-.12-.04-.34-.14-.64ZM128.5,471.75c0,.31.01.63.04.97s-.01.72-.14,1.15c-.06.25-.06.54,0,.88s.03.6-.09.78c.18.31.24.52.18.64-.06.12,0,.37.18.74-.12.25-.2.37-.23.37-.03,0-.05.06-.05.18-.18.37-.23.61-.14.74.09.12-.04.15-.41.09-.31,0-.46.01-.46.05,0,.03-.09.11-.28.23-.31-.06-.55-.03-.74.09-.18.12-.37.22-.55.28-.18.25-.44.44-.78.6-.34.15-.6.32-.78.51-.12-.12-.29-.2-.51-.23-.22-.03-.48-.11-.78-.23-.18-.06-.46-.14-.83-.23-.37-.09-.7-.23-1.01-.41-.49.06-.91.08-1.24.05-.34-.03-.66-.11-.97-.23-.55-.12-.95-.31-1.2-.55-.31,0-.62.01-.92.04-.31.03-.62.08-.92.14-.49-.06-.86-.04-1.1.05s-.61.08-1.1-.05c-.18.25-.41.48-.69.69s-.51.44-.69.69c-.31.31-.57.54-.78.69-.22.15-.48.38-.78.69-.25-.12-.41-.28-.51-.46-.09-.18-.26-.43-.51-.74-.31-.12-.58-.2-.83-.23-.25-.03-.52.01-.83.14-.25-.18-.54-.25-.88-.18-.34.06-.66.15-.97.28-.12.24-.34.41-.64.51-.31.09-.52.2-.64.32-.12-.18-.31-.34-.55-.46-.25-.12-.49-.34-.74-.64-.25.12-.49.15-.74.09s-.46-.03-.64.09c-.43-.06-.81-.11-1.15-.14-.34-.03-.63-.11-.88-.23-.31.18-.48.24-.51.18-.03-.06-.23-.09-.6-.09-.12.06-.15.08-.09.05.06-.03-.03-.02-.28.05-.43-.31-.58-.65-.46-1.01-.25-.43-.31-.77-.18-1.01-.12-.43-.15-.63-.09-.6.06.03.15-.2.28-.69-.06-.18-.15-.4-.28-.64-.12-.25-.12-.64,0-1.2v-1.84l.09-1.84.09-1.66c.12-.12.18-.17.18-.14s0-.2,0-.69c0-.25.01-.4.04-.46.03-.06.01-.28-.04-.64l.18-.18c.18,0,.38-.08.6-.23.21-.15.47-.17.78-.05.31-.06.6-.03.88.09s.57.22.87.28c.31-.06.58-.11.83-.14.24-.03.55-.01.92.04.25,0,.48.03.69.09s.48.06.78,0c.49-.49.87-.81,1.15-.97s.41-.29.41-.41c.67-.25,1.23-.31,1.66-.18.24-.06.7,0,1.38.18.31.18.55.34.74.46.18.12.37.22.55.28.25-.12.43-.23.55-.32.12-.09.37-.29.74-.6l.09-.09c.18-.06.43-.09.74-.09h.92c.18.25.7.28,1.57.09.74.18,1.29.22,1.66.09.37-.12.74-.15,1.1-.09.37.06.74.15,1.1.28.31-.06.65-.11,1.01-.14s.67-.01.92.04c.74.06,1.41-.03,2.03-.28.37.18.67.26.92.23.24-.03.58-.08,1.01-.14.24,0,.51.02.78.04.28.03.57.11.88.23l.46-.09c.43-.12.77.09,1.01.65.06.25.11.35.14.32.03-.03.08.14.14.51-.12.18-.17.34-.14.46.03.12.05.37.05.74-.12.25-.12.55,0,.92.12.37.18.74.18,1.1-.12.18-.22.43-.28.74s-.03.52.09.64Z"/>
            <path class="cls-1" d="M89.93,448.92l.92-1.2.92-1.84,5.52-6.54,1.1-1.38,1.1-2.03.37.37c0,.25.03.49.09.74.06.25.09.46.09.65.25.55.74,1.04,1.47,1.47.3.37.52.63.64.78.12.15.34.38.64.69.18.25.38.51.6.78.21.28.47.51.78.69,0,.37.01.68.05.92.03.25.01.43-.05.55.18.18.41.39.69.6.28.22.51.48.69.78.24.12.48.32.69.6.21.28.47.48.78.6.31.12.6.41.88.87s.57.81.87,1.06v1.38l.18-.18c.06.25.24.54.55.87.31.34.52.6.64.78.06.12.23.23.51.32s.58.17.92.23c.34.06.69.11,1.06.14.37.03.64.05.83.05.24,0,.47.02.69.05.21.03.47.01.78-.05.12-.12.32-.26.6-.41.28-.15.51-.35.69-.6.18-.18.38-.4.6-.64.22-.24.41-.49.6-.74v-1.1c0-.43-.06-.89-.18-1.38.18-.25.18-.66,0-1.24s-.22-1.09-.09-1.52c-.74-.37-1.14-.86-1.2-1.47-.12-.31-.25-.6-.37-.88-.12-.28-.18-.66-.18-1.15-.25-.31-.45-.51-.6-.6-.15-.09-.35-.29-.6-.6-.25-.24-.44-.46-.6-.64-.15-.18-.38-.37-.69-.55-.12-.31-.32-.55-.6-.74-.28-.18-.57-.37-.87-.55-.12-.31-.34-.58-.65-.83s-.52-.46-.64-.64c-.25-.25-.46-.46-.64-.65-.18-.18-.46-.43-.83-.74,0-.12.01-.29.05-.51.03-.21-.02-.38-.14-.51-.25-.24-.48-.48-.69-.69-.22-.21-.41-.44-.6-.69-.31-.67-.71-1.04-1.2-1.1-.31-.37-.52-.63-.64-.78-.12-.15-.34-.38-.65-.69-.12-.18-.17-.38-.14-.6.03-.21.08-.38.14-.51l-.74-.74c-.12-.25-.18-.46-.18-.65.18-.12.26-.29.23-.51-.03-.21-.06-.44-.09-.69-.03-.24-.06-.48-.09-.69-.03-.21.01-.38.14-.51-.06-.49-.2-.98-.41-1.47-.22-.49-.36-.83-.41-1.01-.12-.12-.41-.2-.88-.23-.46-.03-.87-.11-1.24-.23-.25-.18-.54-.37-.87-.55-.34-.18-.6-.46-.78-.83-.31-.12-.58-.15-.83-.09-.25.06-.52.09-.83.09-.74-.18-1.32-.15-1.75.09-.37-.12-.66-.17-.87-.14-.22.03-.48.05-.78.05-.31.06-.66.08-1.06.04-.4-.03-.81-.04-1.24-.04-.31.12-.51.49-.6,1.1-.09.62-.08,1.08.05,1.38.12.31.26.55.41.74s.35.4.6.64c.12.18.17.43.14.74-.03.31.01.52.14.64.18.31.4.57.64.78.25.22.52.48.83.78-.06.18-.08.31-.04.37.03.06-.02.25-.14.55-.12.31-.31.58-.55.83-.25.25-.43.49-.55.74-.31.25-.57.52-.78.83-.22.31-.48.52-.78.65,0,.31.01.7.05,1.2.03.49.01.92-.05,1.29-.12.31-.31.57-.55.78s-.52.44-.83.69c-.18.18-.37.41-.55.69-.18.27-.46.57-.83.87-.18.31-.61.64-1.29,1.01-.25.55-.71,1.04-1.38,1.47.06.25.08.48.05.69-.03.22-.02.51.04.87-.31.18-.55.39-.74.6-.18.22-.43.48-.74.78-.18.18-.41.38-.69.6s-.51.51-.69.87c.06.12.06.31,0,.55-.06.25-.15.52-.28.83-.06.31-.2.51-.41.6s-.51.29-.87.6c-.12.25-.29.46-.51.64-.22.18-.48.43-.78.74-.12.12-.26.29-.41.51-.15.22-.32.38-.51.51-.18.31-.29.61-.32.92-.03.31-.04.71-.04,1.2.18.12.41.32.69.6l.69.69c.3.18.54.38.69.6s.29.32.41.32c.12.25.25.32.37.23.12-.09.31-.01.55.23.24.12.47.17.69.14.21-.03.47-.05.78-.05.31-.12.81-.24,1.52-.37.7-.12,1.27-.24,1.7-.37.12-.25.28-.55.46-.92.18-.37.49-.7.92-1.01l1.29-1.29Z"/>
          </g>
        </g>
      </g>
      <g>
        <path class="cls-2" d="M642.33,230.84h-24.35c-3.31,0-5.99,2.68-5.99,5.99v45.03c0,3.31,2.68,5.99,5.99,5.99h24.35c3.31,0,5.99-2.68,5.99-5.99v-45.03c0-3.31-2.68-5.99-5.99-5.99ZM627.28,252.14v-10.9h-9.72l-.52-2.2h10.23v-4.5l.26.03c2.69.28,4.38.46,5.07.53l.21.02v3.92h1.46c1.2,0,1.66-.25,1.84-.45.19-.2.31-.38.38-.57.04-.08.08-.18.13-.31l.07-.18,6.35.93-.5,2.78h-9.72v10.9h2.46c-.18-1.08-.26-2.24-.26-3.45v-6.82h4.58l.03.26v6.66c0,1.97.48,3.38,1.43,4.2.43.37,1.02.65,1.76.82l.18.04v5.43h-.24c-.4,0-1.04-.1-1.96-.3-1.29-.34-2.39-.95-3.27-1.83-.53-.59-.93-1.15-1.19-1.66-.15-.29-.32-.68-.5-1.16h-3.02v4.95h-5.54v-4.95h-3.01c-.13.34-.28.68-.44,1.02-.82,1.61-2.06,2.74-3.68,3.36-.59.23-1.29.4-2.1.51-.2.03-.43.05-.69.07l-.25.02v-5.48h.22c.08-.02.32-.07,1.05-.38.74-.37,1.31-1.01,1.67-1.92.29-.77.43-1.7.43-2.75v-6.91h4.63v6.8c0,1.21-.09,2.38-.26,3.47h2.44ZM643.26,267.43h-5.51v-.85l-.28,1.52h-5.15c.24.36.44.72.59,1.07.4.91.6,2.11.61,3.55l-.06-1.05.26-.1c.37,0,.86-.12,1.45-.37.22-.12.44-.26.65-.42.52-.48.59-.62.6-.63l.03-.05c.2-.27.38-.6.55-.98.11-.26.19-.54.25-.8l.04-.18h3.81v.24c0,.47-.13,1.09-.41,1.89-.19.45-.44.89-.75,1.33-.72,1.04-1.73,1.83-3,2.36.03.16.1.49.27,1.14.2.62.43,1.19.71,1.65.2.38.47.79.82,1.2.31.36.61.65.9.86h.01c.4.33.8.59,1.2.78.75.33,1.47.5,2.16.5h.24v4.09h-.42c-2.25,0-4.17-.68-5.71-2.01-.76-.71-.91-.92-.96-1-.36-.43-.69-.94-.99-1.51-.3-.55-.57-1.18-.8-1.86-.2-.58-.39-1.33-.56-2.21-.07-.42-.12-.78-.16-1.1h-.01l-.04-.22-.07-1.35v7.05c0,1.42-.28,2.37-.85,2.92-.29.28-.55.48-.79.59-.89.47-2.47.7-4.83.7h-.33l-.96-3.06h.32c1.26,0,1.6-.14,1.69-.2.15-.08.22-.3.22-.65v-.56c-.9.55-1.89,1.03-2.96,1.43-.9.37-2.06.72-3.43,1.02-1.55.3-2.9.45-4.02.45h-.24v-3.29l.29-.06c1.44,0,3.26-.33,5.45-.97,1.37-.46,2.57-.96,3.54-1.5.45-.25.91-.56,1.36-.93v-.68c-.63.41-1.3.78-1.98,1.1-.77.38-1.76.75-2.95,1.11-.63.2-1.49.39-2.62.6-1.18.16-2.14.24-2.86.24h-.24v-3.34h.24c1.7,0,3.74-.42,6.09-1.23,1.24-.48,2.26-.98,3.04-1.48.31-.19.67-.47,1.06-.83.04-.04.07-.07.09-.1-.06-.24-.13-.5-.21-.75-.26.28-.49.49-.68.65-.67.52-1.22.88-1.69,1.09-.47.26-1.15.53-2.02.81-.51.16-1.17.32-1.96.47-1.3.22-2.55.34-3.72.34h-.24v-3.35h.24c1.69,0,3.33-.24,4.91-.71.7-.23,1.29-.49,1.74-.77.48-.29.85-.6,1.11-.92h-2.47l-.04-.18c-.42-1.69-.42-1.74-.42-1.78v-.24h7.07c1.49,0,1.96-.18,2.11-.28.31-.14.51-.4.66-.79.04-.09.07-.17.09-.25l.06-.2,5.33.91v-1.52h-19.93l-.52-2.2h10.11v-2.16l5.52.58v1.57h4.82v-.59l5.51.58v5.87Z"/>
        <g>
          <path class="cls-1" d="M719.89,107.86c-.03-15.04-6.33-29.52-17.23-39.88-.74-.71-1.52-1.41-2.33-2.11-8.99-7.75-17.78-10.95-25.27-13.67-1.84-.67-3.94-1.37-6.26-2.05,14.9,14.8,24.14,35.28,24.14,57.89,0,3.35-.22,6.65-.62,9.91-.44,4.91-1.4,11.89-3.71,20.01-4.96,17.48-13.07,29.4-17.54,35.86-3.54,5.11-8.71,11.83-15.87,18.99,37.79-10.33,64.68-45.09,64.68-84.76,0-.06,0-.12,0-.18Z"/>
          <path class="cls-1" d="M333.98,137.96c-2.3-8.11-3.26-15.1-3.71-20.01-.4-3.26-.62-6.56-.62-9.91,0-22.61,9.25-43.09,24.14-57.89-2.32.68-4.43,1.38-6.26,2.05-7.49,2.73-16.27,5.92-25.27,13.67-.81.69-1.58,1.4-2.33,2.11-10.9,10.36-17.2,24.84-17.23,39.88,0,.06,0,.12,0,.18,0,39.67,26.89,74.43,64.68,84.76-7.16-7.16-12.33-13.88-15.87-18.99-4.47-6.45-12.58-18.38-17.54-35.86Z"/>
          <path class="cls-1" d="M633.45,1.06c-31.33-4.84-55.64,8.19-63.28,12.73-37.02,22.01-45.53,60.52-46.85,67.04-2.72,13.37-3.43,26.59-3.43,40.13v21.24h-17.16v-21.24c0-13.54-.71-26.76-3.43-40.13-1.33-6.51-9.84-45.03-46.85-67.04-7.64-4.54-31.95-17.57-63.28-12.73-49.63,7.66-72.29,53.28-74.4,57.69,5.7-4.44,29.43-22.17,61.63-25.15.81-.05,1.36-.07,1.58-.08.06-.03.13-.05.2-.08,7.75-.58,15.97-.29,24.54,1.25,10.12,1.82,35.19,6.33,53.34,28.83,6.34,7.86,10.33,16.07,12.87,23.57.43,1.45,6.51,22.44,6.58,50.86l.05,21.63h71.51l.07-27.03c0-32.82,9.56-53.09,10.91-55.8,2.22-4.39,5.01-8.86,8.53-13.23,18.16-22.5,43.22-27.01,53.34-28.83,8.56-1.54,16.78-1.83,24.54-1.25.06.03.13.05.2.08.22,0,.77.03,1.58.08,32.2,2.97,55.93,20.71,61.63,25.15-2.1-4.42-24.76-50.03-74.4-57.69Z"/>
          <path class="cls-1" d="M631.38,90.56h-5.99v-.24h-56.58v.24h-.02v6.22h.02v14.75h37.61v49.13c0,8.17-2.71,16.27-7.64,22.8l-51.96,68.87.12-47.22h.05v-26.59h-27.11v107.74h29.85l74.73-99.05c5.73-7.6,8.89-17.03,8.89-26.54v-70.1h-1.98Z"/>
          <path class="cls-1" d="M475.61,205.11h.05l.12,47.22-51.96-68.87c-4.92-6.53-7.64-14.63-7.64-22.8v-70.34h-18.97v.24h-7.97v70.1c0,9.52,3.16,18.94,8.89,26.54l74.73,99.05h29.85v-107.74h-27.11v26.59Z"/>
        </g>
      </g>
    </g>
  </g>
</svg>