<?xml version="1.0" encoding="UTF-8"?>
<svg id="Layer_2" data-name="Layer 2" xmlns="http://www.w3.org/2000/svg" viewBox="0 0 1532.96 292.94">
  <defs>
    <style>
      .cls-1 {
        fill: #c30f23;
      }

      .cls-2 {
        fill: #1a1a1a;
      }
    </style>
  </defs>
  <g id="B">
    <g>
      <g>
        <path class="cls-1" d="M345.62,234.92h-24.78c-3.37,0-6.09,2.73-6.09,6.09v45.83c0,3.37,2.73,6.09,6.09,6.09h24.78c3.37,0,6.09-2.73,6.09-6.09v-45.83c0-3.37-2.73-6.09-6.09-6.09ZM330.3,256.59v-11.1h-9.89l-.53-2.24h10.41v-4.58l.27.03c2.74.29,4.46.47,5.16.54l.21.02v3.99h1.49c1.22,0,1.69-.25,1.87-.46.19-.2.32-.39.38-.58.04-.08.08-.18.13-.32l.07-.18,6.46.95-.51,2.83h-9.9v11.1h2.5c-.18-1.1-.27-2.28-.27-3.51v-6.94h4.67l.03.27v6.78c0,2,.49,3.44,1.46,4.27.44.38,1.04.66,1.8.83l.19.04v5.53h-.24c-.41,0-1.06-.1-1.99-.31-1.31-.35-2.43-.97-3.33-1.86-.54-.6-.95-1.17-1.22-1.69-.15-.3-.32-.69-.51-1.18h-3.07v5.04h-5.64v-5.04h-3.06c-.13.35-.29.69-.45,1.04-.83,1.64-2.09,2.79-3.74,3.42-.6.23-1.32.41-2.14.52-.2.03-.44.05-.7.07l-.26.02v-5.58h.23c.08-.02.33-.08,1.07-.38.76-.37,1.33-1.03,1.7-1.95.29-.79.44-1.73.44-2.79v-7.04h4.71v6.92c0,1.23-.09,2.42-.27,3.53h2.49ZM346.57,272.15h-5.61v-.86l-.29,1.55h-5.24c.25.37.45.74.6,1.09.41.92.61,2.14.62,3.62l-.06-1.07.27-.11c.38,0,.87-.13,1.48-.38.23-.12.45-.26.66-.42.53-.49.6-.63.61-.64l.03-.05c.2-.27.39-.61.56-1,.11-.27.2-.55.26-.81l.04-.19h3.87v.24c0,.48-.13,1.11-.41,1.92-.19.46-.45.91-.76,1.36-.73,1.05-1.76,1.86-3.05,2.4.03.17.1.5.27,1.16.2.64.44,1.21.72,1.68.2.39.48.8.83,1.22.32.37.63.67.91.87h.01c.4.34.81.6,1.22.79.76.34,1.5.51,2.2.51h.24v4.17h-.43c-2.29,0-4.24-.69-5.81-2.04-.78-.72-.93-.93-.98-1.02-.36-.44-.7-.96-1.01-1.53-.31-.56-.58-1.2-.81-1.89-.21-.6-.39-1.35-.57-2.24-.07-.43-.13-.8-.16-1.12h-.01l-.04-.23-.08-1.37v7.17c0,1.44-.28,2.41-.86,2.97-.3.29-.56.48-.81.6-.9.47-2.51.71-4.91.71h-.33l-.98-3.11h.33c1.29,0,1.63-.14,1.72-.2.15-.08.22-.31.22-.66v-.57c-.91.56-1.93,1.05-3.02,1.46-.92.38-2.1.73-3.49,1.04-1.57.31-2.95.46-4.09.46h-.24v-3.34l.3-.07c1.46,0,3.32-.33,5.54-.99,1.4-.47,2.61-.98,3.61-1.52.46-.25.93-.57,1.39-.94v-.69c-.64.42-1.32.8-2.01,1.12-.78.38-1.8.76-3,1.13-.64.2-1.52.4-2.67.61-1.2.16-2.17.25-2.91.25h-.24v-3.39h.24c1.73,0,3.81-.42,6.2-1.26,1.26-.49,2.3-1,3.09-1.51.32-.19.68-.48,1.08-.84.04-.04.07-.07.1-.1-.06-.24-.13-.51-.22-.77-.27.28-.5.5-.69.66-.68.53-1.24.89-1.72,1.1-.48.26-1.17.54-2.05.82-.52.16-1.19.32-2,.48-1.32.23-2.59.35-3.79.35h-.24v-3.41h.24c1.72,0,3.39-.24,5-.72.71-.24,1.31-.5,1.77-.79.49-.3.87-.61,1.13-.94h-2.52l-.04-.18c-.42-1.72-.42-1.77-.42-1.81v-.24h7.2c1.51,0,1.99-.18,2.15-.29.31-.15.52-.4.67-.8.04-.09.07-.17.1-.26l.06-.2,5.42.92v-1.55h-20.28l-.53-2.24h10.29v-2.2l5.62.59v1.6h4.9v-.6l5.61.59v5.97Z"/>
        <g>
          <path class="cls-2" d="M424.55,109.77c-.03-15.31-6.44-30.04-17.53-40.59-.76-.72-1.55-1.44-2.37-2.14-9.15-7.89-18.09-11.14-25.72-13.91-1.87-.68-4.01-1.39-6.37-2.09,15.16,15.06,24.57,35.9,24.57,58.91,0,3.41-.22,6.77-.63,10.08-.45,4.99-1.43,12.1-3.77,20.36-5.05,17.79-13.3,29.92-17.85,36.49-3.6,5.2-8.86,12.04-16.15,19.32,38.46-10.51,65.82-45.89,65.82-86.25,0-.06,0-.12,0-.18Z"/>
          <path class="cls-2" d="M31.82,140.4c-2.34-8.26-3.32-15.36-3.77-20.36-.41-3.32-.63-6.68-.63-10.08,0-23.01,9.41-43.85,24.57-58.91-2.36.7-4.5,1.41-6.37,2.09-7.62,2.77-16.56,6.03-25.72,13.91-.82.71-1.61,1.42-2.37,2.14C6.44,79.73.03,94.46,0,109.77c0,.06,0,.12,0,.18,0,40.37,27.36,75.75,65.82,86.25-7.29-7.28-12.55-14.12-16.15-19.32-4.55-6.57-12.81-18.7-17.85-36.49Z"/>
          <path class="cls-2" d="M336.58,1.08c-31.88-4.92-56.63,8.34-64.4,12.96-37.67,22.39-46.33,61.59-47.68,68.22-2.77,13.61-3.49,27.06-3.49,40.84v21.61h-17.46v-21.61c0-13.78-.72-27.23-3.49-40.84-1.35-6.63-10.01-45.83-47.68-68.22-7.77-4.62-32.51-17.88-64.4-12.96C37.46,8.88,14.4,55.3,12.26,59.79c5.8-4.52,29.95-22.56,62.72-25.59.83-.05,1.39-.07,1.61-.08.07-.03.13-.06.2-.08,7.89-.59,16.25-.3,24.97,1.27,10.3,1.85,35.81,6.44,54.28,29.34,6.46,8,10.52,16.35,13.1,23.98.44,1.47,6.62,22.84,6.7,51.76l.06,22.01h72.77l.07-27.51c0-33.4,9.73-54.03,11.1-56.78,2.26-4.47,5.09-9.02,8.68-13.46,18.48-22.9,43.98-27.49,54.28-29.34,8.72-1.57,17.08-1.86,24.97-1.27.07.03.13.05.2.08.22,0,.78.03,1.61.08,32.77,3.03,56.92,21.07,62.72,25.59-2.14-4.49-25.2-50.92-75.71-58.71Z"/>
          <path class="cls-2" d="M334.48,92.16h-6.1v-.24h-57.58v.24h-.02v6.33h.02v15.01h38.27v50c0,8.32-2.76,16.56-7.77,23.2l-52.88,70.08.12-48.05h.05v-27.06h-27.59v109.64h30.38l76.05-100.8c5.83-7.74,9.05-17.33,9.05-27.01v-71.34h-2.01Z"/>
          <path class="cls-2" d="M175.95,208.73h.05l.12,48.05-52.88-70.08c-5.01-6.64-7.77-14.88-7.77-23.2v-71.58h-19.31v.24h-8.11v71.34c0,9.68,3.21,19.28,9.05,27.01l76.05,100.8h30.38v-109.64h-27.59v27.06Z"/>
        </g>
      </g>
      <g>
        <g>
          <path class="cls-2" d="M853.83,264.66v3.72h-39.2v-3.72h39.2ZM852.22,247.49h-36.02v-3.63h15.67v-4.11h4.6v4.11h15.76v3.63ZM817.02,271.96h34.05v10.79h-4.59v-7.01h-29.45v-3.77ZM822.17,251.07c2.94-1,6.95-1.5,12.04-1.5s9.1.5,12.04,1.5c2.94,1,4.41,2.53,4.41,4.6s-1.47,3.6-4.41,4.59c-2.94,1-6.95,1.5-12.04,1.5s-9.1-.5-12.04-1.5c-2.94-1-4.41-2.53-4.41-4.59s1.47-3.6,4.41-4.6ZM842.83,253.75c-2.19-.44-5.06-.65-8.62-.65s-6.43.22-8.61.65c-2.19.43-3.29,1.07-3.29,1.91s1.09,1.52,3.26,1.94c2.18.42,5.05.63,8.64.63s6.46-.21,8.64-.63c2.18-.42,3.26-1.06,3.26-1.94s-1.09-1.48-3.28-1.91Z"/>
          <path class="cls-2" d="M886.41,257.74c-.98,1.58-2.38,2.81-4.2,3.7-1.82.89-3.95,1.33-6.36,1.33s-4.54-.44-6.34-1.33c-1.81-.89-3.2-2.12-4.18-3.7-.98-1.58-1.47-3.38-1.47-5.42s.49-3.84,1.47-5.42c.98-1.58,2.37-2.81,4.18-3.7,1.81-.89,3.92-1.33,6.34-1.33s4.54.44,6.36,1.33c1.82.89,3.22,2.12,4.2,3.7.98,1.58,1.47,3.39,1.47,5.42s-.49,3.84-1.47,5.42ZM867.43,266.11h32.95v16.06h-32.95v-16.06ZM870.4,257.04c1.36,1.15,3.18,1.72,5.45,1.72s4.08-.57,5.44-1.72c1.36-1.14,2.05-2.72,2.05-4.72s-.68-3.57-2.05-4.72c-1.36-1.15-3.18-1.72-5.44-1.72s-4.08.57-5.45,1.72c-1.36,1.15-2.05,2.72-2.05,4.72s.68,3.57,2.05,4.72ZM871.98,278.11h23.85v-7.93h-23.85v7.93ZM900.38,241.39v22.44h-4.5v-4.4h-6.94l.28-4.16h6.66v-6.09h-6.66l-.28-4.16h6.94v-3.63h4.5Z"/>
          <path class="cls-2" d="M951.43,276.22v4.5h-39.2v-4.5h17.23v-11.56h4.64v11.56h17.32ZM923.17,263.55c-3.22,2.1-6.6,3.14-10.15,3.14v-4.55c2.79,0,5.46-.91,8.02-2.73,2.56-1.82,4.75-4.3,6.57-7.45,1.82-3.14,3.07-6.6,3.75-10.37l4.69.87c-.55,3.06-1.44,5.97-2.67,8.71l17.18,11.85-2.48,3.82-16.73-11.85c-2.24,3.61-4.96,6.47-8.18,8.56Z"/>
          <path class="cls-2" d="M1000.22,276.32v4.4h-39.2v-4.4h9.01v-11.17c-2.27-1.1-4.02-2.54-5.26-4.33s-1.86-3.83-1.86-6.12c0-2.51.73-4.72,2.18-6.63s3.52-3.37,6.2-4.4c2.68-1.03,5.78-1.55,9.3-1.55s6.62.52,9.31,1.55c2.68,1.03,4.75,2.5,6.2,4.4,1.45,1.9,2.18,4.11,2.18,6.63,0,2.29-.62,4.33-1.86,6.12-1.24,1.79-2.98,3.22-5.22,4.28v11.22h9.01ZM969.35,258.98c1.07,1.24,2.58,2.2,4.53,2.88s4.19,1.02,6.73,1.02,4.79-.34,6.76-1.02c1.96-.68,3.48-1.64,4.55-2.88,1.07-1.24,1.61-2.67,1.61-4.28s-.53-3.09-1.61-4.33c-1.07-1.24-2.59-2.2-4.55-2.88-1.96-.68-4.21-1.02-6.76-1.02s-4.79.34-6.73,1.02c-1.95.68-3.45,1.64-4.53,2.88-1.07,1.24-1.61,2.68-1.61,4.33s.54,3.04,1.61,4.28ZM974.58,276.32h12.09v-9.67c-1.84.39-3.86.58-6.07.58s-4.18-.19-6.02-.58v9.67Z"/>
          <path class="cls-2" d="M1012.08,259.05h17.55v-11.75h-17.65v-4.4h22.19v20.56h-17.55v12.38h11.49c1.87,0,3.73-.18,5.58-.53,1.85-.36,3.38-.84,4.57-1.45v4.4c-1.17.61-2.68,1.1-4.55,1.45s-3.78.53-5.74.53h-15.9v-21.18ZM1041.9,241.39h4.55v41.31h-4.55v-41.31Z"/>
          <path class="cls-2" d="M1084.54,263.33c-2.24,1.6-4.79,2.56-7.67,2.88v-4.4c3.25-.48,5.85-2.09,7.81-4.81,1.96-2.72,3.05-6.18,3.26-10.37h-10.57v-4.16h25.04v4.16h-9.88c-.09,2.13-.43,4.24-1.01,6.34l12.04,9.43-2.57,3.48-11.07-8.85c-1.35,2.61-3.14,4.72-5.38,6.31ZM1113.86,277.86v4.3h-34.23v-13.16h4.64v8.85h29.59ZM1108.48,251.16v-9.77h4.55v30.71h-4.55v-16.74h-7.63v-4.21h7.63Z"/>
          <path class="cls-2" d="M1164.08,262.58v4.06h-17.32v7.11h-4.59v-7.11h-17.28v-4.06h39.2ZM1132.24,278.11h29.87v4.11h-34.46v-12.04h4.59v7.93ZM1161.23,258.42h-33.54v-16.54h33.54v16.54ZM1156.68,245.84h-24.44v8.61h24.44v-8.61Z"/>
          <path class="cls-2" d="M1182.12,260.84c-2.25,1.42-4.8,2.27-7.65,2.56v-4.3c3.22-.45,5.8-1.8,7.74-4.04,1.95-2.24,3.06-5.07,3.33-8.49h-10.57v-4.11h25.04v4.11h-9.92c-.09,1.77-.38,3.39-.87,4.84l12.08,8.03-2.25,3.58-11.53-7.79c-1.35,2.32-3.15,4.19-5.4,5.61ZM1177.22,266.5h33.41v15.67h-33.41v-15.67ZM1181.77,278.11h24.31v-7.59h-24.31v7.59ZM1210.63,241.39v22.83h-4.55v-10.88h-7.63v-4.16h7.63v-7.79h4.55Z"/>
        </g>
        <g>
          <g>
            <path class="cls-2" d="M726.11,217.62l-4.73.2-5.96-.62-2.88.82h-6.99l-4.93-.41-5.14.82c-.82-.55-1.71-1.23-2.67-2.06-.96-.82-1.58-1.37-1.85-1.64-.69-.69-1.44-1.58-2.26-2.67v-7.19l-.21-3.29c.68-.69,1.16-1.23,1.44-1.64.27-.41.62-.69,1.03-.82v-3.29c0-.68.14-1.51.41-2.47.14-.68.17-1.37.1-2.06-.07-.68.03-1.3.31-1.85-.41-1.64-.55-3.29-.41-4.93.14-.68.14-1.44,0-2.26-.14-.82-.07-1.58.21-2.26,0-.55-.07-1.2-.21-1.95-.14-.75-.07-1.61.21-2.57v-2.16c0-1.03.07-1.88.2-2.57-.14-.27-.2-.75-.2-1.44s-.07-1.3-.21-1.85c.41-1.92.34-3.36-.21-4.32-.28-.55-.62-1.03-1.03-1.44-.41.14-1.03.48-1.85,1.03-.69.28-1.44.45-2.26.51-.82.07-1.58.24-2.26.51h-1.75c-.48,0-.86.14-1.13.41-1.23.28-2.4.62-3.49,1.03-1.23-.27-2.19-.27-2.88,0-1.23,0-2.26-.2-3.08-.62-.28-.13-.89-.68-1.85-1.64-.96-.96-1.64-1.58-2.06-1.85-.28-.68-.62-1.13-1.03-1.34s-.89-.65-1.44-1.34c-.41-.55-.79-1.1-1.13-1.64-.34-.55-.86-1.16-1.54-1.85-.14-.27-.45-.72-.93-1.34-.48-.62-.72-1.13-.72-1.54-.55-.96-1.03-1.81-1.44-2.57-.41-.75-.69-1.54-.82-2.36-.41-.82-.45-1.61-.1-2.36.34-.75.85-1.34,1.54-1.75.14-.27.72-.41,1.75-.41s1.88-.14,2.57-.41h3.08c.96,0,1.71.07,2.26.21l4.52-.41,3.7.2,3.91-.41,3.91.41,4.52-.2h3.7l3.7.82,4.11-.21,4.52.21,4.32.21,4.11.41,4.32-.41c.68.14,1.26.14,1.75,0,.48-.14.85-.07,1.13.2.68.14,1.3.1,1.85-.1.55-.21,1.23-.44,2.06-.72,1.37-.27,2.53-.38,3.5-.31.96.07,1.98.1,3.08.1v-3.7l.2-3.5-.2-4.73.62-3.49-.21-1.85-4.11-1.03-3.7.82-3.7-.82-11.51.62c-1.1-1.1-1.92-2.19-2.47-3.29-.82-.14-1.44-.21-1.85-.21h-1.44c-.28-.68-1.03-1.54-2.26-2.57s-2.26-1.88-3.08-2.57c.27-.68.41-1.4.41-2.16s.14-1.47.41-2.16c-.28-.82-.34-1.57-.21-2.26.14-.68.14-1.44,0-2.26,0-.68.03-1.3.1-1.85.07-.55.17-1.16.31-1.85-.55-1.51-.69-3.08-.41-4.73.27-.68.34-1.34.21-1.95-.14-.62-.07-1.26.21-1.95-.28-.55-.41-1.16-.41-1.85v-4.52c0-.68.14-1.23.41-1.64,0-.96-.1-1.81-.31-2.57-.21-.75-.17-1.47.1-2.16l.21-4.11c-.55-.55-1.06-1.13-1.54-1.75-.48-.62-.99-1.26-1.54-1.95-.28-.68-.55-1.34-.82-1.95-.28-.62-.76-1.13-1.44-1.54-.69-1.23-1.31-2.26-1.85-3.08-1.1-1.78-1.51-3.15-1.23-4.11,1.23-.27,2.5-.48,3.8-.62,1.3-.14,2.36-.07,3.19.2.41-.27.99-.41,1.75-.41s1.54-.14,2.36-.41c.68,0,1.47.17,2.36.51.89.34,1.75.45,2.57.31l8.22,2.67,1.85,4.11,2.47,3.7.21,2.47-.21,2.47,3.29-1.03h3.7l3.29.41,5.55-.62,1.85.41c.55-.14,1.1-.27,1.64-.41.55-.14,1.23-.14,2.06,0,.96-.14,1.99-.07,3.08.21.82-.27,1.47-.34,1.95-.21.48.14,1.13.28,1.95.41.68-.41,1.34-.55,1.95-.41.62.14,1.4.07,2.36-.21.68.14,1.34.24,1.95.31.62.07,1.47-.03,2.57-.31.27,0,.75.04,1.44.1.68.07,1.3.24,1.85.51.82-.27,1.57-.48,2.26-.62.68-.14,1.23-.2,1.64-.2h7.4c.68,0,1.23.14,1.64.41.41.28,1.1.28,2.06,0,.68-.14.99-.17.93-.1-.07.07.17.1.72.1l.21-4.11-.21-3.5-1.44-3.7-2.26-2.88c-.14-.27.1-.55.72-.82.62-.27,1.34-.58,2.16-.93.82-.34,1.64-.72,2.47-1.13.82-.41,1.37-.89,1.64-1.44l3.29.82,5.55,1.85,3.7.21c.68.82,1.54,1.68,2.57,2.57,1.03.89,2.02,1.82,2.98,2.77-.14.55-.28,1.1-.41,1.64-.14.55-.21,1.1-.21,1.64l.41,4.11.2,4.73-.41,3.5-.41,4.52.41,3.7-.41,4.93v4.52l.62,3.91-.41,4.52v4.32l.41,4.32c-.14.28-.21.59-.21.93s-.07.65-.21.93c0,.55-.41,1.23-1.23,2.06s-1.44,1.51-1.85,2.06c-1.51.96-3.29,1.17-5.34.62-.41.14-.86.24-1.34.31-.48.07-1.06-.03-1.75-.31-1.51.55-2.88.62-4.11.21-1.1.14-1.95.17-2.57.1-.62-.07-1.2.1-1.75.51-.96,0-1.75-.1-2.36-.31-.62-.21-1.2-.24-1.75-.1-.69-.14-1.41-.24-2.16-.31-.76-.07-1.47-.03-2.16.1-.55,0-1.23-.03-2.06-.1-.82-.07-1.58-.1-2.26-.1l-5.76.21-1.44.2.21,2.88.62,3.5-.82,4.11.82,5.14-.41,2.47,2.47-.21,4.11.41,4.11-.41,4.52.41,4.52.21,3.5-.41,4.52.2h4.32l4.11.21,4.73-1.23,3.49-.2,4.52.2,4.32.21c1.51.14,2.84.21,4.01.21s2.09-.27,2.77-.82c.68.69,1.54,1,2.57.93,1.03-.07,2.02.17,2.98.72.68.28,1.54.75,2.57,1.44,1.03.69,1.75,1.31,2.16,1.85.41.28.85.75,1.34,1.44.48.69.85,1.17,1.13,1.44.68.82,1.23,1.78,1.64,2.88.14.55.21,1.72.21,3.5,0,1.1-.21,1.78-.62,2.06-.41.28-1.1.96-2.06,2.06.27.41.1,1-.51,1.75-.62.76-1.27,1.27-1.95,1.54-.69,0-1.41.31-2.16.93-.75.62-1.34,1.2-1.75,1.75l-4.32.62-4.11-.62c-.28,0-.65-.03-1.13-.1-.48-.07-.99-.24-1.54-.51-.55,0-1.13-.17-1.75-.51-.62-.34-1.27-.58-1.95-.72-.69-.27-1.44-.55-2.26-.82-.82-.27-1.64-.41-2.47-.41-.55-.27-1.17-.89-1.85-1.85-.69-.96-1.58-1.37-2.67-1.23l-4.11-.2-4.93-.41-4.73.62-4.52-1.85-3.29.62-2.88-.21-3.91.21h-3.9l-4.93.41h-3.5l-5.14-.21-3.91.21-3.7-.21-4.73-.2-3.91.2-4.52.82-4.11-.21-3.7.21-4.52-.62-4.11.41-3.29.21c0,.69-.14,1.3-.41,1.85l.62,3.7v4.11l-.21,2.88.41,3.91-.2,4.32v7.81l.2,4.73-.62,2.47.21,1.85c.41.41.72.79.93,1.13.2.34.44.51.72.51h12.13l3.5.41,4.11-.21,4.32-.2,2.67-.41,3.5,2.67,2.88-1.44,3.91-2.06,3.91.21h8.63l4.52-.62c1.37,1.1,3.01,1.37,4.93.82.55.27,1.23.44,2.06.51.82.07,1.58.03,2.26-.1l4.73-.21,4.93-.41c.68.14,1.4.17,2.16.1.75-.07,1.4-.17,1.95-.31h2.16c.62,0,1.4-.14,2.36-.41,1.1.14,1.92.14,2.47,0,.55-.14,1.37-.34,2.47-.62,1.78-.41,3.12-.65,4.01-.72.89-.07,1.81.24,2.77.93.55-.68,1.3-.96,2.26-.82.96.14,1.58.28,1.85.41,1.92.68,3.49,1.1,4.73,1.23.41.27,1.03.99,1.85,2.16.82,1.16,1.44,1.88,1.85,2.16.27.41.38,1.03.31,1.85-.07.82-.03,1.44.1,1.85.14.27.21.79.21,1.54s.14,1.26.41,1.54c-.14.96-.28,1.75-.41,2.37-.14.62-.28,1.26-.41,1.95-.28.68-.69,1.4-1.23,2.16-.55.75-1.03,1.54-1.44,2.36-.41-.14-1.23,0-2.47.41-1.23.41-2.33.82-3.29,1.23l-4.52.21-4.32-.21-4.93-.21-3.7.82-3.7-1.85-4.11.41-4.32-.62-3.49-.21-3.91.41-4.52.21-4.11-.21-3.9-.2-7.4.41-4.73-.21-4.11-.2-3.91.2-4.11.41h-7.81l-4.93-.2ZM740.7,106.82c.41.55.82,1.03,1.23,1.44s.89.96,1.44,1.64c.68-.68,1.3-1.26,1.85-1.75.55-.48.96-.99,1.23-1.54.68.28,1.57.41,2.67.41h2.26c.82.69,1.47,1.17,1.95,1.44.48.28.85.62,1.13,1.03.41-.55.82-.93,1.23-1.13.41-.2.75-.58,1.03-1.13.68,0,1.4-.07,2.16-.21.75-.13,1.47-.34,2.16-.62,1.1,0,1.85.1,2.26.31.41.2,1.03.17,1.85-.1,1.1.55,1.85.82,2.26.82.55.28.99.41,1.34.41s.65.21.92.62l2.26-.21,1.44.21,2.88-2.67,1.03-3.29-.41-2.88v-4.11c-.28.14-.51.31-.72.51s-.86.17-1.95-.1h-1.23c-.14,0-.41-.07-.82-.21-.96.28-1.64.38-2.06.31-.41-.07-.89-.24-1.44-.51-.69,0-.89.03-.62.1.27.07.07.04-.62-.1-.96.28-1.72.38-2.26.31-.55-.07-1.31-.03-2.26.1-.55.14-1.17.24-1.85.31-.69.07-1.23-.03-1.64-.31-.69,0-1.34.03-1.95.1-.62.07-1.13-.1-1.54-.51-1.1,0-1.95.07-2.57.2-.62.14-1.13.07-1.54-.2l-6.17.2c-1.1-.27-2.06-.34-2.88-.2-.82.14-1.44.07-1.85-.21l-5.55-.2c-.69.41-1.41.62-2.16.62s-1.75.14-2.98.41l-2.06-.41h-3.29l-5.14-.2-.41,4.32.62,2.67v2.67l-.62,2.67,4.11.41c1.64-.82,2.88-.82,3.7,0,.82-.14,1.47-.2,1.95-.2s1.06-.14,1.75-.41c.27.28.55.41.82.41s.82-.14,1.64-.41c.68,0,1.34.1,1.95.31.62.21,1.47.31,2.57.31.55-.68.99-.96,1.34-.82.34.14.85-.14,1.54-.82v.21Z"/>
            <path class="cls-2" d="M888.09,156.98l2.26-2.67c-.28-.55-.55-.99-.82-1.34-.28-.34-.69-.72-1.23-1.13,0-1.1.27-1.81.82-2.16.55-.34.89-.93,1.03-1.75l.21-3.29.41-3.29c.27-.68.44-1.3.51-1.85.07-.55.1-1.23.1-2.06-.69-1.37-.69-2.6,0-3.7-.14-.82-.31-1.57-.51-2.26-.2-.68-.31-1.37-.31-2.06.27-.96.44-1.75.51-2.36.07-.62.17-1.4.31-2.36,0-.41-.07-.96-.21-1.64-.14-.68-.34-1.23-.62-1.64.27-.68.48-1.47.62-2.36.14-.89.14-1.54,0-1.95-.28-.82-.45-1.54-.51-2.16-.07-.62-.03-1.34.1-2.16l.21-1.03-.21-1.03c.14-.68.24-1.1.31-1.23.07-.14-.03-.55-.31-1.23.27-.68.34-1.78.21-3.29-.96-.68-1.64-1.44-2.06-2.26-1.64-.68-2.6-1.44-2.88-2.26-.55-.27-1.13-.27-1.75,0-.62.28-1.13.41-1.54.41-1.1-.27-1.72-.44-1.85-.51-.14-.07-.69-.03-1.64.1l-5.34,2.67-3.91,1.03-3.91,1.64-3.49,1.03c-.96-.14-1.85-.24-2.67-.31-.82-.07-1.58.03-2.26.31-.82.14-1.61.14-2.36,0-.76-.14-1.61-.14-2.57,0-.41-.41-.86-.96-1.34-1.64-.48-.68-1.27-1.37-2.36-2.06-.96.28-1.85.34-2.67.2-.41-.27-.82-.55-1.23-.82-.41-.27-.82-.68-1.23-1.23-.41-.27-.96-.65-1.64-1.13-.69-.48-1.16-.85-1.44-1.13,0-.27-.03-.85-.1-1.75-.07-.89-.1-1.78-.1-2.67v-4.21c.41-.41.93-.85,1.54-1.34.62-.48,1.26-.72,1.95-.72.96-.27,2.33-.14,4.11.41.55-.41,1.2-.68,1.95-.82.75-.14,1.54-.21,2.36-.21.68,0,1.34.07,1.95.21.62.14,1.2.21,1.75.21,1.23.28,2.23.38,2.98.31.75-.07,1.4-.17,1.95-.31.68-.14,1.4-.31,2.16-.51.75-.21,1.26-.17,1.54.1.68-.27,1.27-.44,1.75-.51.48-.07.99-.24,1.54-.51.55-.27,1.03-.41,1.44-.41s.96-.14,1.64-.41c2.06-.68,3.63-.96,4.73-.82.55-.27,1.3-.34,2.26-.2.96.14,1.85.28,2.67.41.96-.68,1.95-.96,2.98-.82,1.03.14,1.68.2,1.95.2,1.1-.68,1.95-1.06,2.57-1.13.62-.07,1.06-.17,1.34-.31l1.03-1.03c.96,0,1.71-.07,2.26-.21.55-.14,1.44-.07,2.67.21.55.28,1.23.34,2.06.2.82-.14,1.57-.34,2.26-.62l3.29,1.64,3.49,1.03c.41.55.85,1.03,1.34,1.44.48.41.93.82,1.34,1.23.27.55.68,1.23,1.23,2.06.55.82,1.3,1.51,2.26,2.06-.14.96-.24,1.92-.31,2.88-.07.96-.17,1.99-.31,3.08l.21,3.7v4.52l.41,4.11c-.41,1.1-.51,1.95-.31,2.57.21.62.17,1.34-.1,2.16.14.82.17,1.47.1,1.95-.07.48-.1,1.06-.1,1.75v4.73c-.28.82-.34,2.06-.21,3.7.27.69.41,1.37.41,2.06s-.07,1.37-.2,2.06c.14.69.17,1.34.1,1.95-.07.62.03,1.27.31,1.95-.14.69-.31,1.47-.51,2.36-.2.89-.17,1.61.1,2.16-.28.69-.34,1.34-.21,1.95.14.62.21,1.41.21,2.36,0,.41.07,1.06.2,1.95.14.89.21,1.68.21,2.36-.14.55-.24,1.06-.31,1.54-.07.48-.03,1.2.1,2.16,0,1.23-.2,2.47-.62,3.7.27,1.1.41,1.99.41,2.67s.14,1.31.41,1.85c0,.69-.03,1.37-.1,2.06-.07.69-.1,1.44-.1,2.26-.28.69-.38,1.37-.31,2.06.07.69.1,1.51.1,2.47,0,.69.03,1.37.1,2.06.07.69-.03,1.37-.31,2.06.14.69.21,1.34.21,1.95s.07,1.2.2,1.75c-.82.82-1.51,1.54-2.06,2.16-.55.62-.96,1.13-1.23,1.54.14.41.07,1.31-.2,2.67-.28,1.23-.65,2.26-1.13,3.08-.48.82-.86,1.64-1.13,2.47-.14.69-.38,1.54-.72,2.57-.34,1.03-.65,1.89-.93,2.57-.41.41-1.1.69-2.06.82-.96.14-1.64.28-2.06.41-.41.14-1.03.24-1.85.31-.82.07-1.68.1-2.57.1s-1.78.04-2.67.1c-.89.07-1.61.1-2.16.1-.69-.96-1.17-2.12-1.44-3.5-.28-.27-.76-.68-1.44-1.23-.69-.55-1.23-1.23-1.64-2.06.27-.68.38-1.4.31-2.16-.07-.75-.17-1.61-.31-2.57,0-1.1.03-1.95.1-2.57.07-.62.17-1.34.31-2.16-.14-.82-.21-1.61-.21-2.36s-.14-1.47-.41-2.16c.68-1.1,1.34-1.92,1.95-2.47.62-.55,1.06-1.16,1.34-1.85-.28-.41-.72-.82-1.34-1.23-.62-.41-1.2-.82-1.75-1.23l.41-5.34.2-5.14ZM1006.71,116.07c-.41.28-1.03,1.03-1.85,2.26-.82,1.23-1.37,1.99-1.64,2.26-.96,1.23-2.13,2.06-3.49,2.47-.28.69-.69,1.16-1.23,1.44-.55.28-1.1.76-1.64,1.44-.55.14-1.27.1-2.16-.1-.89-.21-1.68-.17-2.36.1-.55.69-1.2,1.23-1.95,1.64-.76.41-1.47.89-2.16,1.44-.55.14-1.2.2-1.95.2s-1.47.07-2.16.21c-.69-.14-1.37-.21-2.06-.21s-1.64.14-2.88.41c-.82-.13-1.61-.27-2.36-.41-.76-.14-1.68-.07-2.78.21-.82-.41-1.54-.58-2.16-.51-.62.07-1.47-.03-2.57-.31-.41.55-.75.72-1.03.51-.28-.21-.62-.24-1.03-.1-.28.28-.48.58-.62.92-.14.34-.34.51-.62.51.27.69.31,1.27.1,1.75-.21.48-.31,1.06-.31,1.75,0,.82-.1,1.27-.31,1.34-.21.07-.31.45-.31,1.13.27.82.38,1.54.31,2.16-.07.62.03,1.2.31,1.75.14.69.1,1.37-.1,2.06-.2.69-.31,1.37-.31,2.06,0,.41.07.96.21,1.64.14.69.27,1.44.41,2.26,0,.69-.07,1.41-.2,2.16-.14.76,0,1.34.41,1.75-.41.55-.58,1.31-.51,2.26.07.96.24,1.64.51,2.06l-.21,5.14-.62,4.32c.27.41.38,1.06.31,1.95-.07.89.03,1.54.31,1.95v2.26c0,.82-.14,1.58-.41,2.26.27.69.38,1.41.31,2.16-.07.75-.1,1.41-.1,1.95.27.96.38,1.78.31,2.47-.07.69-.17,1.51-.31,2.47,0,.96-.07,1.72-.21,2.26-.14.55-.21,1.17-.21,1.85l.41,5.55-.62,4.52c.41.96.55,1.75.41,2.36-.14.62-.14,1.4,0,2.36,0,.82-.03,1.68-.1,2.57-.07.89-.04,1.68.1,2.36-.41.55-1.06,1.16-1.95,1.85-.89.68-1.34,1.1-1.34,1.23-.55.68-1.03,1.23-1.44,1.64s-.89.96-1.44,1.64c-.69.27-1.2.68-1.54,1.23-.34.55-.86,1.03-1.54,1.44-.69-.14-1.37-.24-2.06-.31-.69-.07-1.44-.24-2.26-.51-.41,0-1.06.03-1.95.1-.89.07-1.85.1-2.88.1s-1.99.03-2.88.1c-.89.07-1.47.17-1.75.31-.82-.96-1.31-1.89-1.44-2.78-.14-.89-.07-1.41.2-1.54,0-.69.17-1.37.51-2.06.34-.69.99-1.78,1.95-3.29.27-.69.37-1.31.31-1.85-.07-.55-.04-1.37.1-2.47-.14-.82-.21-1.58-.21-2.26s-.07-1.58-.2-2.67l.2-2.88.21-3.29c-.28-.68-.34-1.34-.21-1.95.14-.62.14-1.26,0-1.95-.28-.68-.34-1.4-.2-2.16.13-.75.2-1.47.2-2.16-.28-.41-.38-.92-.31-1.54.07-.62.1-1.4.1-2.36.27-.27.34-.79.2-1.54-.14-.75-.28-1.4-.41-1.95l-.41-5.14-.21-4.52v-4.11l.62-4.32.21-4.52-.62-3.49.41-3.91v-4.11l.21-4.93-.41-4.11.41-3.49v-4.52l-.21-4.11.21-4.52.41-4.11c.14-.68.14-1.34,0-1.95-.14-.62-.21-1.26-.21-1.95.14-1.37-.07-3.08-.62-5.14l.41-4.73-.62-3.91v-4.32l-.21-4.32-.41-3.5v-3.29c.41-1.1.44-1.92.1-2.47-.34-.55-.93-1.03-1.75-1.44,0-.82-.07-1.81-.21-2.98-.14-1.16-.2-2.09-.2-2.77-.41-.82-.79-1.47-1.13-1.95-.34-.48-.92-.85-1.75-1.13-.41-.55-.86-1.3-1.34-2.26-.48-.96-1.13-1.71-1.95-2.26-.41-.68-.69-1.23-.82-1.64-.14-.41-.48-.96-1.03-1.64.41-.41.82-.93,1.23-1.54.41-.62.75-.93,1.03-.93.68.28,1.85.34,3.5.21,1.64-.14,2.88-.21,3.7-.21.82-.27,1.51-.41,2.06-.41s1.37.14,2.47.41c.68,0,1.26-.03,1.75-.1.48-.07.99.03,1.54.31,1.37.55,2.6,1.37,3.7,2.47.41.41.82.89,1.23,1.44.41.55,1.03.96,1.85,1.23.27.55.96,1.23,2.06,2.06,1.1.82,1.99,1.44,2.67,1.85.27.28.65.79,1.13,1.54.48.75.99,1.34,1.54,1.75,0,1.23-.07,2.19-.2,2.88.82.28,1.26.69,1.34,1.23.07.55.24,1.17.51,1.85,0,.69-.14,1.2-.41,1.54-.28.34-.55.65-.82.92-.14.55-.1.93.1,1.13s.65.58,1.34,1.13l-.41,3.29v3.08c-.69,1.51-1.16,2.6-1.44,3.29-.28.69-.41,1.51-.41,2.47.27.82.51,1.51.72,2.06.21.55.31,1.3.31,2.26-.41,1.51-.62,2.88-.62,4.11,0,.55.07.89.21,1.03v1.03c.14.69.2,1.64.2,2.88v3.08l2.26,2.06c.55-.27,1.03-.44,1.44-.51.41-.07.75-.38,1.03-.93.68-.27,1.71-.41,3.08-.41,1.23.41,2.47.48,3.7.2,1.78-.27,3.42-.2,4.93.21.82-.27,1.44-.41,1.85-.41s1.16.14,2.26.41c.96-.27,1.92-.34,2.88-.21.68-.55,1.37-1.06,2.06-1.54.68-.48,1.37-1.06,2.06-1.75h.93c.48,0,.99-.07,1.54-.2.27-.14.72-.1,1.34.1.62.21,1.26.17,1.95-.1.55.41,1.03.79,1.44,1.13.41.34.89.79,1.44,1.34.27.28.65.65,1.13,1.13.48.48,1.06.92,1.75,1.34.14.69.55,1.64,1.23,2.88.68,1.23,1.37,2.26,2.06,3.08v1.03Z"/>
            <path class="cls-2" d="M1109.49,151.01l-3.91.2-3.7-.2-4.73-.21-3.91.21-4.52.82-4.11-.2-3.7.2-4.52-.62-4.11.41-3.7.2h-4.52l-3.7.21-3.91.62c-.96-.41-1.68-.58-2.16-.51-.48.07-1.2.17-2.16.31-.69.14-1.37.38-2.06.72-.69.34-1.37.65-2.06.93-.69.14-1.37.24-2.06.31-.69.07-1.37.45-2.06,1.13-.69.28-1.44.45-2.26.51-.82.07-1.58.24-2.26.51h-1.75c-.48,0-.86.14-1.13.41-1.23.28-2.4.62-3.49,1.03-1.23-.27-2.19-.27-2.88,0-1.23,0-2.26-.21-3.08-.62-.28-.14-.89-.68-1.85-1.64-.96-.96-1.64-1.57-2.06-1.85-.28-.68-.62-1.13-1.03-1.34-.41-.2-.89-.65-1.44-1.34-.41-.55-.79-1.1-1.13-1.64-.34-.55-.86-1.16-1.54-1.85-.14-.27-.45-.72-.93-1.34-.48-.62-.72-1.13-.72-1.54-.55-.96-1.03-1.81-1.44-2.57-.41-.75-.69-1.54-.82-2.36-.41-.82-.45-1.61-.1-2.36.34-.75.85-1.34,1.54-1.75.14-.27.72-.41,1.75-.41s1.88-.14,2.57-.41h3.08c.96,0,1.71.07,2.26.21l4.52-.41,3.7.2,3.91-.41,3.91.41,4.52-.2h3.7l3.7.82,4.11-.2,4.52.2,4.32.21,4.11.41,4.32-.41c.68.14,1.26.14,1.75,0,.48-.14.85-.07,1.13.21.68.14,1.3.1,1.85-.1.55-.2,1.23-.44,2.06-.72,1.92-.41,3.56-.51,4.93-.31,1.37.21,2.67.1,3.91-.31.68.69,1.23,1.1,1.64,1.23.41.14.68.41.82.82l1.85.41h5.34l3.7-1.23,4.52-.62,3.91.21,4.32-.41,4.11.41,4.11-.41,4.52.41,4.52.2,3.5-.41,4.52.21h4.32l4.11.2,4.73-1.23,3.49-.21,4.52.21,4.32.2c1.51.14,2.84.21,4.01.21s2.09-.27,2.77-.82c.68.69,1.54,1,2.57.93,1.03-.07,2.02.17,2.98.72.68.28,1.54.76,2.57,1.44,1.03.69,1.75,1.3,2.16,1.85.41.28.85.76,1.34,1.44.48.69.85,1.16,1.13,1.44.68.82,1.23,1.78,1.64,2.88.14.55.21,1.71.21,3.49,0,1.1-.21,1.78-.62,2.06-.41.28-1.1.96-2.06,2.06.27.41.1,1-.51,1.75-.62.75-1.27,1.27-1.95,1.54-.69,0-1.41.31-2.16.93-.75.62-1.34,1.2-1.75,1.75l-4.32.62-4.11-.62c-.28,0-.65-.03-1.13-.1-.48-.07-.99-.24-1.54-.51-.55,0-1.13-.17-1.75-.51-.62-.34-1.27-.58-1.95-.72-.69-.27-1.44-.55-2.26-.82-.82-.27-1.64-.41-2.47-.41-.55-.27-1.17-.89-1.85-1.85-.69-.96-1.58-1.37-2.67-1.23l-4.11-.21-4.93-.41-4.73.62-4.52-1.85-3.29.62-2.88-.21-3.91.21h-3.9l-4.93.41h-3.5l-5.14-.2ZM1076.81,119.97c-.28-.82-.51-1.71-.72-2.67-.2-.96-1.06-1.78-2.57-2.47,0-2.33.07-4.93.2-7.81.14-2.88-.75-5.34-2.67-7.4,0-.27-.03-.72-.1-1.34-.07-.62-.1-1.13-.1-1.54.82-.96,1.4-1.64,1.75-2.06.34-.41.58-.75.72-1.03.14-.27.21-.62.21-1.03v-1.85c1.64-1.51,3.32-2.67,5.04-3.5,1.71-.82,3.67-1.64,5.86-2.47l-10.07.41h-4.11c-1.64,1.37-2.98,2.13-4.01,2.26-1.03.14-2.36.2-4.01.2h-6.58c-3.15,0-5.38.38-6.68,1.13-1.31.75-2.64,1.2-4.01,1.34-1.92-.68-3.43-1.68-4.52-2.98-1.1-1.3-1.99-2.77-2.67-4.42-1.37-.14-2.77-.86-4.21-2.16-1.44-1.3-2.74-2.77-3.9-4.42-1.17-1.64-2.13-3.32-2.88-5.04-.75-1.71-1.13-3.12-1.13-4.21.96-1.1,1.98-1.98,3.08-2.67,1.1-.68,2.67-1.16,4.73-1.44,1.23,1.1,2.26,1.75,3.08,1.95.82.2,1.64.34,2.47.41.82.07,1.75.24,2.77.51,1.03.28,2.29.96,3.8,2.06h44.4c.41,0,.93-.03,1.54-.1.62-.07.92-.44.92-1.13,0-.41-.14-.62-.41-.62s-.69-.07-1.23-.21c-.55-.14-1.17-.34-1.85-.62-.69-.27-1.51-.89-2.47-1.85-2.19,0-3.94-.72-5.24-2.16-1.31-1.44-1.95-3.66-1.95-6.68.27-.14.62-.41,1.03-.82,1.51.14,3.05.2,4.63.2h8.94c1.37,0,2.81-.07,4.32-.2.41.28.85.65,1.34,1.13.48.48,1.06.93,1.75,1.34.68,0,1.71-.03,3.08-.1,1.37-.07,2.4-.1,3.08-.1,1.64,0,2.88.17,3.7.51.82.34,1.47.86,1.95,1.54.48.69.92,1.47,1.34,2.36.41.89,1.16,1.89,2.26,2.98v2.47c0,.82.89,1.37,2.67,1.64,1.78.28,3.91.41,6.37.41s5.04-.03,7.71-.1c2.67-.07,4.83-.1,6.47-.1.96-.82,2.23-1.4,3.8-1.75,1.57-.34,3.22-.55,4.93-.62,1.71-.07,3.5-.07,5.35,0,1.85.07,3.53.1,5.04.1h6.58c1.37,1.1,2.29,1.68,2.78,1.75.48.07,1.61.45,3.39,1.13,2.47,2.19,4.76,4.28,6.89,6.27,2.12,1.99,3.32,4.42,3.6,7.3,0,.28-.17.76-.51,1.44-.34.69-.72,1.37-1.13,2.06-.41.69-.89,1.3-1.44,1.85-.55.55-1.1.82-1.64.82-.14,0-.28-.03-.41-.1-.14-.07-.28-.1-.41-.1-1.92,1.78-4.18,2.6-6.78,2.47-2.6-.14-5.07-.21-7.4-.21-1.23-1.1-2.23-1.75-2.98-1.95-.75-.2-1.68-.31-2.77-.31h-3.7c-.69,0-1.23-.14-1.64-.41-.41-.27-.89-.55-1.44-.82-.55-.27-1.27-.55-2.16-.82-.89-.27-2.23-.41-4.01-.41-.69-.41-1.27-.79-1.75-1.13-.48-.34-1.06-.79-1.75-1.34l-8.63.2-10.28.62c0,.69.65,1.2,1.95,1.54,1.3.34,2.5.86,3.6,1.54.55.69.82,1.1.82,1.23v1.23c.82.69,1.98,1.27,3.49,1.75,1.51.48,2.26.99,2.26,1.54-.14,3.02-.21,5.89-.21,8.63v8.02c0,.82-.34,1.41-1.03,1.75-.69.34-1.23.72-1.64,1.13,0,.69.03,1.41.1,2.16.07.75.1,1.47.1,2.16-1.37,2.06-3.08,3.6-5.14,4.63-2.06,1.03-3.22,1.54-3.5,1.54h-.21c-1.37,0-2.43.48-3.19,1.44-.76.96-1.75,1.44-2.98,1.44-1.1,0-1.89.21-2.36.62-.48.41-1.06.82-1.75,1.23h-10.69c-.41.55-.82.82-1.23.82-.55,0-1.34-.07-2.36-.2-1.03-.14-2.44-.48-4.21-1.03-1.78-.55-4.01-1.37-6.68-2.47-2.67-1.1-5.93-2.53-9.76-4.32ZM1159.86,188.84c0,.69.03,1.31.1,1.85.07.55.1,1.3.1,2.26.14.69.17,1.37.1,2.06-.07.69-.1,1.37-.1,2.06s.07,1.34.2,1.95c.14.62.07,1.47-.2,2.57-.14.41-.17.89-.1,1.44.07.55.1,1.16.1,1.85-.14.82-.17,1.61-.1,2.36.07.75.1,1.47.1,2.16,0,.96.03,1.75.1,2.36.07.62-.03,1.34-.31,2.16-.28.41-.75.96-1.44,1.64-.69.68-1.37,1.16-2.06,1.44-.14.41-.45.82-.93,1.23-.48.41-.93.82-1.34,1.23-.55.41-1.1.79-1.64,1.13-.55.34-.96.79-1.23,1.34-.41.27-.86.38-1.34.31-.48-.07-1.06-.1-1.75-.1-.55-.28-1-.62-1.34-1.03-.34-.41-.79-.75-1.34-1.03-.14-.28-.38-.75-.72-1.44-.34-.69-.65-1.17-.93-1.44-.55-.69-1.54-1.44-2.98-2.26-1.44-.82-2.5-1.58-3.19-2.26,0-.28.03-.69.1-1.23.07-.55-.04-1.16-.31-1.85.27-.55.41-1.17.41-1.85s-.07-1.37-.21-2.06c-.28-.96-.34-1.72-.2-2.26.14-.55.07-1.17-.21-1.85.41-1.51.48-2.81.21-3.91.14-1.1.2-1.92.2-2.47v-3.91c0-.68.07-1.44.21-2.26l-.41-3.29c0-2.06-.21-3.7-.62-4.93.14-.55.21-.68.21-.41s0-.21,0-1.44c-.28-.27-.59-.62-.93-1.03-.34-.41-.65-.62-.93-.62l-1.23-.41-1.03.2c-.69-.14-1.17-.14-1.44,0-.28.14-.82.21-1.64.21-.69.14-1.41.2-2.16.2h-2.57c-.55-.27-1.1-.37-1.64-.31-.55.07-1.31.1-2.26.1-.69,0-1.37-.03-2.06-.1-.69-.07-1.51-.17-2.47-.31-.41.28-1.03.41-1.85.41h-2.26c-.69.14-1.3.1-1.85-.1-.55-.2-1.16-.17-1.85.1l-4.93.41c-.69.28-1.41.38-2.16.31-.76-.07-1.47.1-2.16.51-.69-.27-1.27-.41-1.75-.41s-1.06-.07-1.75-.2c-.96.28-1.72.38-2.26.31-.55-.07-1.31-.03-2.26.1-.69-.27-1.3-.38-1.85-.31-.55.07-1.16.03-1.85-.1-.69.14-1.37.14-2.06,0-.69-.14-1.37-.14-2.06,0l-4.11.62-4.32,1.03-4.11,1.44-3.91.82-3.91,1.03-3.7.62c-.96.14-1.82.31-2.57.51-.76.2-1.47.38-2.16.51-.82,0-1.64-.03-2.47-.1-.82-.07-1.64-.1-2.47-.1-.41-.27-.99-1.06-1.75-2.36-.76-1.3-1.27-2.16-1.54-2.57-.28-.55-.72-.99-1.34-1.34-.62-.34-1.06-.65-1.34-.93-.69-.82-1.23-1.44-1.64-1.85-.41-.41-.82-.96-1.23-1.64-.82-.55-1.44-.99-1.85-1.34-.41-.34-.89-.93-1.44-1.75-.96-.41-1.92-1.51-2.88-3.29-.28,0-.45-.31-.51-.93-.07-.62.03-1.13.31-1.54,0-.55.14-1.16.41-1.85.27-.68.75-1.1,1.44-1.23.41-.27,1.03-.34,1.85-.21.82.14,1.57.14,2.26,0,.82.28,1.51.41,2.06.41s1.23-.13,2.06-.41c.82.14,1.54.17,2.16.1.62-.07,1.2.1,1.75.51.82-.27,1.64-.38,2.47-.31.82.07,1.57-.03,2.26-.31.55.28,1.2.38,1.95.31.75-.07,1.4-.1,1.95-.1.55.28,1.2.34,1.95.2.75-.13,1.4-.07,1.95.21h2.36c.89,0,1.68-.14,2.36-.41.55.28,1.13.38,1.75.31.62-.07,1.47-.03,2.57.1.68-.27,1.4-.41,2.16-.41s1.26.14,1.54.41c1.37.14,2.47.03,3.29-.31.82-.34,1.78-.24,2.88.31h4.11l3.5-.62,3.91-.41,4.73-.21,3.49.41,3.5.2,4.52-.41,3.7-.41,4.32.2,3.7-.2c1.51-.27,2.67-.31,3.49-.1.82.21,1.51.04,2.06-.51.41.41.96.62,1.64.62s1.23-.07,1.64-.21c1.78-.14,3.42,0,4.93.41.55,0,1.1-.07,1.64-.2.55-.14,1.16-.21,1.85-.21.82-.27,1.61-.31,2.36-.1.75.2,1.47.24,2.16.1.41.28.93.38,1.54.31.62-.07,1.2-.17,1.75-.31.55-.14,1.03-.24,1.44-.31.41-.07.62.1.62.51.68-.14,1.51-.27,2.47-.41.96-.13,1.98-.07,3.08.21.55.14,1.47.07,2.77-.21,1.3-.27,2.29-.48,2.98-.62.41.41.89,1.03,1.44,1.85.55.82.82,1.31.82,1.44-.41,1.78-.58,2.74-.51,2.88.07.14.51.82,1.34,2.06-.28.96-.51,1.75-.72,2.36-.2.62-.45,1.41-.72,2.37.68,1.78,1.57,3.02,2.67,3.7l-1.23,3.29-1.44,2.67.21,3.49-.21,3.08ZM1108.87,91.6c-1.23,0-2.3.17-3.19.51-.89.34-2.02-.03-3.39-1.13l-5.34,1.64c-.69,0-1.1.1-1.23.31-.14.21-.2.51-.2.93s-.14.93-.41,1.54c-.28.62-.82,1.27-1.64,1.95,0,.55-.24,1.17-.72,1.85-.48.69-.72,1.37-.72,2.06,0,.96.24,2.02.72,3.19.48,1.17.72,2.09.72,2.77.68.55,1.26,1.06,1.75,1.54.48.48,1.34.72,2.57.72,1.23.96,2.47,1.37,3.7,1.23,1.23-.14,2.81-.21,4.73-.21,1.1,0,1.95-.21,2.57-.62.62-.41,1.68-1.37,3.19-2.88,0-1.1.68-1.98,2.06-2.67-.14-.55-.17-1.23-.1-2.06.07-.82.1-1.51.1-2.06.14-1.1,0-2.16-.41-3.19-.41-1.03-.96-1.95-1.64-2.78-.69-.82-1.34-1.47-1.95-1.95-.62-.48-.99-.72-1.13-.72Z"/>
            <path class="cls-2" d="M1283.4,112.37c-.14.41-.2.86-.2,1.34s-.07,1.06-.21,1.75c-.69.55-1.1,1.03-1.23,1.44-.14.41-.55.69-1.23.82-1.23.82-2.19,1.85-2.88,3.08-.41,1.23-.69,2.16-.82,2.77-.14.62-.48,1.06-1.03,1.34,0,.96-1.31,1.37-3.91,1.23-.55.69-.82,1.41-.82,2.16v2.78c-.69.28-1.3.75-1.85,1.44-.55.69-1.23,1.1-2.06,1.23-.69.69-1.31,1.06-1.85,1.13-.55.07-1.37.17-2.47.31-.28.28-.59.62-.93,1.03-.34.41-.86.96-1.54,1.64-1.1-.27-2.13-.27-3.08,0-.96.28-1.78.14-2.47-.41-.69.82-1.31,1.51-1.85,2.06s-.96,1.03-1.23,1.44c-.96,0-1.75-.03-2.36-.1-.62-.07-1.27-.03-1.95.1-.28.28-.69.38-1.23.31-.55-.07-1.17-.1-1.85-.1-.41,0-.93-.03-1.54-.1-.62-.07-1.41-.1-2.36-.1-.55.14-1.1.14-1.64,0-.55-.13-1.16-.07-1.85.21-.69-.14-1.34-.24-1.95-.31-.62-.07-1.41-.1-2.36-.1-.28-.41-.65-.82-1.13-1.23-.48-.41-1.13-.75-1.95-1.03-.55-.27-.89-.41-1.03-.41h-.62c-.69-.68-1.31-1.27-1.85-1.75-.55-.48-1.03-.86-1.44-1.13-.55-.68-1.06-1.26-1.54-1.75-.48-.48-.86-.93-1.13-1.34-.82-.55-1.37-1.13-1.64-1.75-.28-.62-.89-1.13-1.85-1.54-.14-.41-.45-.75-.93-1.03-.48-.27-1.06-.62-1.75-1.03-.28-.68-.62-1.3-1.03-1.85-.41-.55-.96-.96-1.64-1.23-.14-.96-.14-1.92,0-2.88-.28-.41-.62-.75-1.03-1.03-.41-.27-.96-.68-1.64-1.23l-1.23-4.32-.82-4.52-.82-3.5c-.28-.96-.41-1.68-.41-2.16v-1.13c-.14-1.1-.1-1.92.1-2.47.21-.55.31-1.37.31-2.47-.41-.55-.62-1.78-.62-3.7.27-.55.62-1.16,1.03-1.85.41-.68.96-1.1,1.64-1.23.82-.68,1.51-1.26,2.06-1.75.55-.48,1.03-1.06,1.44-1.75,0-.55-.03-1.06-.1-1.54-.07-.48-.1-1.06-.1-1.75.55-.27.96-.72,1.23-1.34.27-.62.68-1.13,1.23-1.54.41-.55.79-1.06,1.13-1.54.34-.48.58-.99.72-1.54.96-.27,1.64-.55,2.06-.82.41-.27.89-.89,1.44-1.85l1.03-.41c.41-.27.75-.55,1.03-.82s.68-.55,1.23-.82c.41-.27.93-.62,1.54-1.03.62-.41,1.4-.89,2.37-1.44.82-.82,1.57-1.47,2.26-1.95.68-.48,1.51-1.4,2.47-2.77,1.78.82,3.42.96,4.93.41.68.28,1.23.41,1.64.41s.89.14,1.44.41c1.1-.41,1.92-.62,2.47-.62s1.16.14,1.85.41c.27-.27.75-.34,1.44-.21.68.14,1.44.14,2.26,0l2.06-2.06c.68-.27,1.2-.07,1.54.62.34.69.85.96,1.54.82,1.1.69,1.99.93,2.67.72.68-.21,1.37-.24,2.06-.1.96.28,1.85.31,2.67.1.82-.21,1.57.03,2.26.72.82.41,1.51.89,2.06,1.44.55.55,1.23,1.03,2.06,1.44l2.67,2.88,2.06,3.08c.82.41,1.44.79,1.85,1.13.41.34.75.65,1.03.92.55.96,1.44,1.92,2.67,2.88,0,.28.31.65.92,1.13.62.48,1.13,1,1.54,1.54l.41,1.64c.27.69.58,1.3.93,1.85.34.55,1.06,1.51,2.16,2.88-.14.69-.28,1.31-.41,1.85-.14.55-.14,1.03,0,1.44-.14.69-.17,1.41-.1,2.16.07.75-.03,1.47-.31,2.16.14.69.27,1.34.41,1.95.14.62.27,1.2.41,1.75-.55.82-.62,2.06-.21,3.7l-.21,2.88v3.5ZM1326.16,153.07c.55,1.23,1.2,2.02,1.95,2.36.75.34,1.88.65,3.39.93l3.08,4.32,3.5,2.47-.62,3.7-.21,4.93-.41,3.29-.41,4.52-.62,4.52-.62,3.7-.21,4.52-.62,4.32-.82,4.11c.96.82,1.81,1.47,2.57,1.95.75.48,1.2,1.13,1.34,1.95,1.23.27,2.23.34,2.98.21.75-.14,1.4,0,1.95.41,0,.68.07,1.4.2,2.16.14.75.27,1.34.41,1.75-.28.68-.31,1.37-.1,2.06.21.68.31,1.16.31,1.44-.28.68-.38,1.26-.31,1.75.07.48.03.99-.1,1.54-.82.82-1.51,1.78-2.06,2.88-.69.27-1.17.72-1.44,1.34-.28.62-.55,1.2-.82,1.75-.96,0-1.92-.04-2.88-.1-.96-.07-1.99.03-3.08.31-.41-.14-.96-.17-1.64-.1-.69.07-1.51.03-2.47-.1-.69-.14-1.47-.24-2.36-.31-.89-.07-1.47-.17-1.75-.31-.96.41-1.75.58-2.36.51-.62-.07-1.27-.04-1.95.1-1.92-.55-3.56-.62-4.93-.21-.55-.55-.93-.99-1.13-1.34-.2-.34-.58-.65-1.13-.93-1.51-.55-2.67-.82-3.5-.82-1.51,0-2.6-.14-3.29-.41-1.37.41-2.47.41-3.29,0-.55.14-1.1.38-1.64.72-.55.34-1.37.51-2.47.51-.69.27-1.54.48-2.57.62-1.03.14-1.89.14-2.57,0-2.47.82-3.77,1.37-3.91,1.64-.41-.55-.93-1.03-1.54-1.44s-1.27-.89-1.95-1.44c-.55-.28-1.16-.34-1.85-.21-.69.14-1.44.27-2.26.41-.69-.14-1.3-.14-1.85,0-.55.14-1.3.21-2.26.21-.55-.14-1.1-.24-1.64-.31-.55-.07-1.31-.24-2.26-.51-1.1.41-2.19.62-3.29.62-.69,0-1.37-.07-2.06-.2-.69-.14-1.37-.28-2.06-.41-.69.27-1.37.41-2.06.41h-2.47c-.82,0-1.47.07-1.95.2-.48.14-1.13.07-1.95-.2-.82.13-1.54.17-2.16.1-.62-.07-1.2-.1-1.75-.1h-4.73c-.28-.28-.82-.34-1.64-.21-.82.14-1.64.34-2.47.62-.69-.28-1.34-.38-1.95-.31-.62.07-1.34-.03-2.16-.31-.28.41-.65.79-1.13,1.13-.48.34-1.13.93-1.95,1.75-.41,0-.82-.04-1.23-.1-.41-.07-.89.03-1.44.31-.69-.28-1.47-.45-2.36-.51-.89-.07-1.75.03-2.57.31-.28-.28-.62-.79-1.03-1.54-.41-.76-.82-1.34-1.23-1.75-.28-.55-.62-1.03-1.03-1.44-.41-.41-.82-.89-1.23-1.44-.28-.69-.62-1.27-1.03-1.75-.41-.48-.96-1.13-1.64-1.95-.14-.55-.14-1.23,0-2.06.14-.82.14-1.44,0-1.85-.28-.55-.38-1.17-.31-1.85.07-.69-.03-1.31-.31-1.85.55-1.78.55-3.29,0-4.52.41-.69.55-1.41.41-2.16-.14-.76-.07-1.47.21-2.16-.28-.68-.41-1.4-.41-2.16s-.07-1.47-.21-2.16c.27-.68.44-1.44.51-2.26.07-.82-.04-1.37-.31-1.64.27-.96.34-1.81.2-2.57-.14-.75-.28-1.61-.41-2.57.41-.41.62-.99.62-1.75s-.07-1.68-.21-2.77c.27-.55.68-.96,1.23-1.23.55-.27.96-.75,1.23-1.44-.14-.68-1.03-1.64-2.67-2.88.82-1.37,1.85-2.33,3.08-2.88-.28-.68-.62-1.16-1.03-1.44-.41-.27-.82-.75-1.23-1.44,0-.27-.14-.65-.41-1.13-.28-.48-.41-.99-.41-1.54.14-.55.2-1.2.2-1.95s-.14-1.47-.41-2.16c-.28-.82-.31-1.71-.1-2.67.2-.96.31-1.78.31-2.47-.28-.68-.34-1.64-.21-2.88.14-1.23.34-2.19.62-2.88.27.14.96,0,2.06-.41,1.1-.41,2.33-.68,3.7-.82.68.28,1.2.69,1.54,1.23.34.55.85,1.16,1.54,1.85.41.55.75,1.06,1.03,1.54.27.48.62,1.06,1.03,1.75,1.23,1.92,2.33,3.08,3.29,3.5.68-.55,1.23-1.03,1.64-1.44l1.03-1.03c.82-.68,1.61-1.03,2.36-1.03s1.4-.14,1.95-.41c.82,0,1.47.1,1.95.31.48.2.99.45,1.54.72.55.69,1.1,1.13,1.64,1.34.55.21,1.1.65,1.64,1.34.55-.68.96-1.26,1.23-1.75.27-.48.75-.85,1.44-1.13.82-.27,1.57-.38,2.26-.31.68.07,1.37.04,2.06-.1.82,0,1.61.03,2.36.1.75.07,1.4-.03,1.95-.31,1.64,0,3.08.21,4.32.62.68-.82,1.23-1.03,1.64-.62.41.41.82.41,1.23,0,.41,0,.85.04,1.34.1.48.07.99-.03,1.54-.31.55,0,1.16.1,1.85.31.68.2,1.3.17,1.85-.1.68,0,1.44-.03,2.26-.1.82-.07,1.44.04,1.85.31.68-.27,1.47-.44,2.36-.51.89-.07,1.61-.03,2.16.1,1.64.28,3.08.2,4.32-.21,1.1.28,1.99.41,2.67.41s1.37.14,2.06.41c.82-.27,1.54-.38,2.16-.31.62.07,1.26-.03,1.95-.31.82.28,1.51.38,2.06.31.55-.07,1.16-.17,1.85-.31.96.14,1.98.14,3.08,0,.27-.68.75-1.2,1.44-1.54.68-.34,1.37-1.06,2.06-2.16.68.14,1.4.24,2.16.31.75.07,1.47.03,2.16-.1,1.1.14,2.02.24,2.78.31.75.07,1.47.1,2.16.1.68.69,1.37,1.27,2.06,1.75.68.48,1.3,1.06,1.85,1.75.68-.27,1.44-.48,2.26-.62.82-.14,1.57-.2,2.26-.2l-.21.41ZM1230.16,95.1c.14.96.14,1.92,0,2.88.27.69.34,1.2.21,1.54-.14.34-.28.65-.41.93-.14.82-.48,1.64-1.03,2.47-.28.28-.28.76,0,1.44.14.14.34.38.62.72.27.34.55.72.82,1.13.27,1.51.14,2.54-.41,3.08.55,1.1,1.13,1.85,1.75,2.26s1.13.96,1.54,1.64c.27,1.37.96,2.19,2.06,2.47.27.69.58,1.17.93,1.44.34.28.65.55.92.82.41.28.82.45,1.23.51.41.07.75.24,1.03.51l1.23.41c1.1.28,2.23.2,3.39-.21,1.16-.41,2.09-.62,2.77-.62.82,0,1.68.03,2.57.1.89.07,1.61-.1,2.16-.51.68,0,1.2-.07,1.54-.21.34-.14.79-.14,1.34,0,.82-.68,1.37-1.23,1.64-1.64l1.03-.82.62-.62v-1.64c.55-.27.93-.58,1.13-.93.2-.34.65-.65,1.34-.93-.14-1.51-.14-2.88,0-4.11.55-.27.85-.68.92-1.23.07-.55.17-1.03.31-1.44,0-.82.34-1.44,1.03-1.85-.41-.68-.69-1.1-.82-1.23-.14-.14-.28-.34-.41-.62-.28-.55-.41-1.3-.41-2.26v-2.47l-.62-2.26c-.41-.68-1.23-1.3-2.47-1.85-.41-.68-.82-1.16-1.23-1.44-.41-.27-.75-.62-1.03-1.03-.28-.55-.51-.99-.72-1.34-.2-.34-.45-.65-.72-.93-.69.28-1.3.38-1.85.31-.55-.07-1.03-.17-1.44-.31-.55.14-1.03.14-1.44,0-.41-.14-.96-.07-1.64.21h-1.44c-.55,0-.96-.14-1.23-.41-.28,0-.76.07-1.44.2-.69.14-1.37.21-2.06.21-.41,0-.82-.03-1.23-.1-.41-.07-.82-.03-1.23.1l-2.26,1.03-1.44,2.88-2.47,1.44-1.13,1.13c-.48.48-1,.86-1.54,1.13ZM1276,170.13c-.82.69-1.37,1.13-1.64,1.34-.28.21-.69.45-1.23.72-.41-.14-.82-.34-1.23-.62-.41-.27-.96-.62-1.64-1.03-1.51-.41-2.54-.55-3.08-.41-.96-.27-2.19-.14-3.7.41,0,.28-.31.59-.92.93-.62.34-1.47,1.06-2.57,2.16-.69.14-1.27.14-1.75,0-.48-.14-1-.21-1.54-.21-.82-.14-1.51-.17-2.06-.1-.55.07-1.17.17-1.85.31-.69-.14-1.34-.34-1.95-.62-.62-.27-1.27-.34-1.95-.21-.69-.27-1.27-.24-1.75.1-.48.34-.92.51-1.34.51l-.41.41c.14.82.17,1.31.1,1.44-.07.14-.1.48-.1,1.03,0,1.1,0,1.61,0,1.54s-.14.04-.41.31l-.21,3.7-.2,4.11v4.11c-.28,1.23-.28,2.13,0,2.67.27.55.48,1.03.62,1.44-.28,1.1-.48,1.61-.62,1.54-.14-.07-.07.38.2,1.34-.28.55-.14,1.3.41,2.26-.28.82.07,1.57,1.03,2.26.55-.14.75-.17.62-.1-.14.07-.07.03.21-.1.82,0,1.26.07,1.34.21.07.14.44,0,1.13-.41.55.27,1.2.44,1.95.51.75.07,1.61.17,2.57.31.41-.28.89-.34,1.44-.21.55.14,1.1.07,1.64-.2.55.68,1.1,1.16,1.64,1.44.55.27.96.62,1.23,1.03.27-.28.75-.51,1.44-.72.68-.21,1.16-.58,1.44-1.13.68-.28,1.4-.48,2.16-.62.75-.14,1.4,0,1.95.41.68-.28,1.3-.38,1.85-.31.55.07,1.16.24,1.85.51.55.68.93,1.23,1.13,1.64.21.41.58.75,1.13,1.03.68-.69,1.26-1.2,1.75-1.54.48-.34,1.06-.86,1.75-1.54.41-.55.93-1.06,1.54-1.54.62-.48,1.13-1,1.54-1.54,1.1.27,1.92.31,2.47.1.55-.2,1.37-.24,2.47-.1.68-.14,1.37-.24,2.06-.31.68-.07,1.37-.1,2.06-.1.55.55,1.44.96,2.67,1.23.68.27,1.4.44,2.16.51.75.07,1.68.03,2.78-.1.68.41,1.44.72,2.26.93.82.2,1.44.37,1.85.51.68.27,1.26.44,1.75.51.48.07.85.24,1.13.51.41-.41.99-.79,1.75-1.13.75-.34,1.34-.79,1.75-1.34.41-.14.82-.34,1.23-.62.41-.28.96-.34,1.64-.21.41-.28.62-.45.62-.51,0-.07.34-.1,1.03-.1.82.14,1.13.07.93-.2-.21-.28-.1-.82.31-1.64,0-.28.03-.41.1-.41s.24-.27.51-.82c-.41-.82-.55-1.37-.41-1.64.14-.27,0-.75-.41-1.44.27-.41.34-.99.2-1.75-.14-.75-.14-1.4,0-1.95.27-.96.38-1.81.31-2.57-.07-.75-.1-1.47-.1-2.16-.28-.27-.34-.75-.21-1.44.14-.68.34-1.23.62-1.64,0-.82-.14-1.64-.41-2.47-.28-.82-.28-1.51,0-2.06,0-.82-.03-1.37-.1-1.64-.07-.27.03-.62.31-1.03-.14-.82-.24-1.2-.31-1.13-.07.07-.17-.17-.31-.72-.55-1.23-1.31-1.71-2.26-1.44l-1.03.2c-.69-.27-1.34-.44-1.95-.51-.62-.07-1.2-.1-1.75-.1-.96.14-1.72.24-2.26.31-.55.07-1.23-.1-2.06-.51-1.37.55-2.88.75-4.52.62-.55-.14-1.23-.17-2.06-.1-.82.07-1.58.17-2.26.31-.82-.27-1.64-.48-2.47-.62-.82-.14-1.64-.07-2.47.2-.82.28-2.06.21-3.7-.2-1.92.41-3.08.34-3.49-.21h-2.06c-.69,0-1.23.07-1.64.21l-.21.2ZM1338.91,114.83c.41,1.64.41,3.08,0,4.32-.28.96-.34,1.72-.2,2.26.13.55.2,1.1.2,1.64l-.2,4.11c.27,1.1.34,1.92.2,2.47-.14.41-.14.96,0,1.64.14.69.27,1.44.41,2.26-1.23.69-2.67,1.85-4.32,3.5-.28.55-.58.99-.92,1.34-.34.34-.86.86-1.54,1.54-.41.69-.82,1.03-1.23,1.03s-.96.34-1.64,1.03c-.28.55-.69,1.03-1.23,1.44-.55.41-1.17.82-1.85,1.23-.55.55-1.17,1.1-1.85,1.64-.69.55-1.17,1.1-1.44,1.64h-6.99c-.82-.55-1.27-1.26-1.34-2.16-.07-.89-.24-1.68-.51-2.36.14-.68.14-1.23,0-1.64-.14-.41-.21-.89-.21-1.44.68-.55,1.23-1.13,1.64-1.75s1.1-1.2,2.06-1.75c-.69-.55-1.27-1.13-1.75-1.75-.48-.62-1-1.06-1.54-1.34v-6.37c-.69-.14-1.41-.27-2.16-.41-.76-.14-1.47-.07-2.16.21-.96-.27-2.33-.27-4.11,0-1.23-.41-2.47-.41-3.7,0-.41-.14-1.47-.34-3.19-.62-1.71-.27-2.85-.27-3.39,0-.69-.82-1.27-1.92-1.75-3.29-.48-1.37-.93-2.53-1.34-3.49-.28-.68-.41-1.47-.41-2.36s-.48-1.4-1.44-1.54c-.28-1.51-.28-2.98,0-4.42.27-1.44.82-2.29,1.64-2.57.41,0,1.2-.1,2.36-.31,1.16-.21,1.88-.38,2.16-.51.41.14.96.24,1.64.31.68.07,1.4.14,2.16.21.75.07,1.44.07,2.06,0,.62-.07.99-.1,1.13-.1.82,0,1.61-.03,2.36-.1.75-.07,1.47-.1,2.16-.1s1.34-.03,1.95-.1c.62-.07,1.27-.1,1.95-.1.14.14.62.2,1.44.2.27-.82.48-1.51.62-2.06-.28-.68-.38-1.23-.31-1.64.07-.41.17-1.03.31-1.85,0-.41.34-1.1,1.03-2.06h-1.44c-.82,0-1.61.07-2.36.21-.76.14-1.47.14-2.16,0-.82.55-1.51,1.1-2.06,1.64s-1.16.96-1.85,1.23c-.41-.68-.76-1.13-1.03-1.34-.28-.21-.82-.65-1.64-1.34-.28-.27-.79-.38-1.54-.31-.75.07-1.27-.03-1.54-.31-1.1.41-1.92.41-2.47,0-.82-.68-1.44-1.23-1.85-1.64-.41-.41-1.1-.89-2.06-1.44-.14-.41-.55-.92-1.23-1.54-.69-.62-1.23-1.2-1.64-1.75-.28-.27-.55-1.13-.82-2.57-.28-1.44-.62-2.29-1.03-2.57.14-1.1.17-2.19.1-3.29-.07-1.1.03-1.85.31-2.26.96-.55,1.85-1.13,2.67-1.75.82-.62,1.71-.65,2.67-.1.41-.27.93-.44,1.54-.51.62-.07,1.2-.1,1.75-.1.68,0,1.34.03,1.95.1.62.07,1.34.04,2.16-.1,1.78-.14,3.15,0,4.11.41.27.41.75.82,1.44,1.23.68.41,1.3.89,1.85,1.44.82-.55,1.4-1.13,1.75-1.75.34-.62.79-1.06,1.34-1.34.68-.14,1.37-.14,2.06,0,.68.14,1.37.14,2.06,0-.14-.14-.2-.27-.2-.41s-.07-.34-.21-.62c-.41-.68-.72-1.37-.93-2.06-.2-.68-.51-1.57-.92-2.67-.14-.14-.17-.48-.1-1.03.07-.55-.03-1.16-.31-1.85.14-.68.17-1.26.1-1.75-.07-.48-.04-1.13.1-1.95-.28-.82-.38-1.37-.31-1.64.07-.27.24-.96.51-2.06-.69-.27-1.27-.65-1.75-1.13-.48-.48-.99-.99-1.54-1.54-.28-.96-.48-1.71-.62-2.26-.14-.55-.62-1.16-1.44-1.85.27-.68.58-1.61.92-2.77.34-1.16.72-2.09,1.13-2.77.82.28,1.98.69,3.49,1.23,1.51.55,2.88.69,4.11.41.41.82.89,1.3,1.44,1.44.55.14,1.16.28,1.85.41.82.14,1.51.17,2.06.1.55-.07,1.3.03,2.26.31.41.28.82.59,1.23.93.41.34.89.79,1.44,1.34.41,0,.89.21,1.44.62.55.41.89.82,1.03,1.23.41.41.99,1.03,1.75,1.85.75.82,1.34,1.37,1.75,1.64.27.41.55.89.82,1.44.27.55.62,1.16,1.03,1.85.41.69.75,1.41,1.03,2.16.27.75.62,1.47,1.03,2.16v1.64c0,.55.07,1.17.21,1.85-.28.41-.38,1.03-.31,1.85.07.82.17,1.58.31,2.26-.14.55-.17,1.17-.1,1.85.07.69-.04,1.44-.31,2.26.41,1.51.62,2.6.62,3.29-.41,1.23-.69,2.74-.82,4.52,0,.96.1,1.72.31,2.26.21.55.31,1.16.31,1.85.14.69.17,1.34.1,1.95-.07.62-.03,1.27.1,1.95l-.62,4.11.62,3.5-.41,4.32v3.7Z"/>
            <path class="cls-2" d="M1457.11,173.22c.68-.13,1.34-.24,1.95-.31.62-.07,1.06-.17,1.34-.31.68.28,1.44.45,2.26.51.82.07,1.58-.03,2.26-.31.82.14,1.57.21,2.26.21s1.37.2,2.06.62c.96,0,1.81-.14,2.57-.41.75-.27,1.47-.27,2.16,0,.55,0,1.1.04,1.64.1.55.07,1.16-.03,1.85-.31,1.1.14,1.98.14,2.67,0,.68-.14,1.3-.14,1.85,0,.55.14,1.23.17,2.06.1.82-.07,1.57-.1,2.26-.1.41.14,1.03.2,1.85.2h2.06c.41,0,.99-.1,1.75-.31.75-.2,1.4-.17,1.95.1.55,0,1.13-.34,1.75-1.03.62-.68,1.4-.96,2.36-.82,1.37.55,2.53.55,3.49,0,1.37-.55,2.81-.62,4.32-.2.41-.14.99-.27,1.75-.41.75-.14,1.47-.2,2.16-.2.68-.27,1.34-.41,1.95-.41s1.34.07,2.16.2c1.51-.55,2.95-.82,4.32-.82l3.5.62,3.29-.21c.55.14,1.37.31,2.47.51,1.1.21,1.92.65,2.47,1.34.41.41.75,1.34,1.03,2.78.27,1.44.55,2.36.82,2.77.27.41.44,1.13.51,2.16.07,1.03.17,1.68.31,1.95l.41,5.34-2.06,4.11-1.44,2.26c-.96.82-1.75,1.61-2.36,2.36s-1.27,1.26-1.95,1.54c-1.37.14-2.44.24-3.19.31-.76.07-1.54.03-2.36-.1-.55-.28-1.2-.45-1.95-.51-.76-.07-1.47-.24-2.16-.51-.96.27-1.92.31-2.88.1-.96-.2-1.72-.24-2.26-.1-.55-.41-1.27-.75-2.16-1.03-.89-.27-1.68-.34-2.36-.21-.82-.27-1.51-.44-2.06-.51-.55-.07-1.17-.24-1.85-.51-.41-.27-.89-.41-1.44-.41s-1.17-.07-1.85-.21c-.69-.27-1.23-.44-1.64-.51-.41-.07-.96-.17-1.64-.31l-5.55.2-4.52.41c-1.37-.27-2.33-.55-2.88-.82-.96.14-1.68.17-2.16.1-.48-.07-.99-.03-1.54.1-.96-.14-1.64-.1-2.06.1-.41.21-.96.31-1.64.31-.28-.27-.65-.44-1.13-.51-.48-.07-.93-.1-1.34-.1-.41.14-.89.24-1.44.31-.55.07-1.1.04-1.64-.1-.69-.14-1.17-.21-1.44-.21h-1.44c-.55.28-1.03.38-1.44.31-.41-.07-.96-.1-1.64-.1-.82-.27-1.78-.27-2.88,0-.69-.14-1.71-.21-3.08-.21-.55,0-1.1.04-1.64.1-.55.07-1.1-.03-1.64-.31-.69,0-1.27.03-1.75.1-.48.07-1,.1-1.54.1-.41-.14-1.03-.1-1.85.1-.82.2-1.37.17-1.64-.1-.69-.27-1.27-.34-1.75-.2-.48.14-1.2.07-2.16-.21-.55.28-1.13.48-1.75.62-.62.14-1.13.07-1.54-.21h-2.26c-.55,0-1.23-.14-2.06-.41-.55,0-1.13.17-1.75.51-.62.34-1.47.45-2.57.31-.69-.27-1.34-.34-1.95-.2-.62.14-1.47.07-2.57-.21-1.1.55-2.54.82-4.32.82-.41-.27-1-.38-1.75-.31-.75.07-1.61.1-2.57.1h-2.37c-.75,0-1.47.14-2.16.41-1.1.14-1.99.17-2.67.1-.69-.07-1.72-.24-3.08-.51-.69.14-1.44.28-2.26.41-.82.14-1.64.14-2.47,0-1.23.69-2.19,1-2.88.93-.69-.07-1.37-.1-2.06-.1-1.51.28-2.71.45-3.6.51-.89.07-2.02.04-3.39-.1-.55.28-1.34.34-2.36.21-1.03-.14-2.02-.07-2.98.2-.82.28-1.64.62-2.47,1.03-.82.41-1.58.55-2.26.41-.69.27-1.37.55-2.06.82-.69.27-1.37.48-2.06.62-.82.27-1.58.48-2.26.62-.69.14-1.37.34-2.06.62-.69.14-1.37.27-2.06.41-.69.14-1.64.14-2.88,0-.28-.28-.75-.79-1.44-1.54-.69-.75-1.37-1.34-2.06-1.75-.69-.41-1.2-.93-1.54-1.54-.34-.62-.79-1.13-1.34-1.54-.28-.41-.65-.85-1.13-1.34-.48-.48-.86-.85-1.13-1.13-.96-.82-1.78-1.78-2.47-2.88-.14-.68-.21-1.34-.21-1.95v-1.75c-.14-.96-.24-2.12-.31-3.5-.07-1.37.1-2.26.51-2.67.68-.82,1.68-1.78,2.98-2.88,1.3-1.1,2.5-1.51,3.6-1.23l3.7-.62,4.52,1.23,3.5-.41,4.93.41,3.49.62,5.34-.62,3.7.41,5.14,1.44c.68-.27,1.71-.41,3.08-.41,1.78-.41,3.36-.34,4.73.2.55-.13,1.2-.17,1.95-.1.75.07,1.54.1,2.36.1,1.1-.27,1.99-.37,2.67-.31.68.07,1.37-.03,2.06-.31,1.51.69,3.08.69,4.73,0,1.78.55,3.22.69,4.32.41h2.26c.82,0,1.58.07,2.26.2l3.5-.41,1.85-1.44-.2-2.06v-18.3c-.55-.55-1.06-1.03-1.54-1.44-.48-.41-1.06-.75-1.75-1.03l-3.08-5.34v-3.49c-2.33-2.06-3.15-3.29-2.47-3.7l9.25.41c.27.96.75,1.47,1.44,1.54.68.07,1.44.18,2.26.31.68.41,1.23.72,1.64.93.41.21.82.86,1.23,1.95.55-.14,1.1-.17,1.64-.1.55.07,1.1.17,1.64.31.68.14,1.23.2,1.64.2s.96.07,1.64.21c.41.28.86.58,1.34.93.48.34.93.65,1.34.92.14.14.55.34,1.23.62.68.28,1.44.55,2.26.82.82.28,1.61.58,2.36.93.75.34,1.34.58,1.75.72,0,.69-.1,1.2-.31,1.54-.2.34-.17.79.1,1.34v2.98c0,1.58.03,3.22.1,4.93.07,1.72.1,3.32.1,4.83v4.93l-.2,3.29ZM1386.8,144.03c-.28-.41-.62-.82-1.03-1.23-.41-.41-.75-.75-1.03-1.03-.28-.55-.82-1.34-1.64-2.36-.82-1.03-1.78-1.75-2.88-2.16l6.78-10.07c.82-.55,1.78-1.1,2.88-1.64,1.1-.55,2.19-1.16,3.29-1.85.55-.41,1.26-.86,2.16-1.34.89-.48,1.4-1.26,1.54-2.36.55-.27,1.23-.58,2.06-.92.82-.34,1.57-.99,2.26-1.95,2.19-.27,3.63-.96,4.32-2.06.82-1.78,1.23-3.15,1.23-4.11.82-.41,1.51-1.03,2.06-1.85.55-.82,1.23-1.58,2.06-2.26.68-.68,1.26-1.23,1.75-1.64.48-.41.85-1.1,1.13-2.06.68-.41,1.34-.93,1.95-1.54s1.27-1.2,1.95-1.75l5.14-4.52c.96-1.23,1.57-2.88,1.85-4.93.55-.68.96-1.3,1.23-1.85.27-.55.68-1.3,1.23-2.26l-2.67-5.96-.62-5.76c.41-.55.96-1.13,1.64-1.75.68-.62,1.16-1.27,1.44-1.95.82-.82,1.37-1.78,1.64-2.88.82.41,1.47.82,1.95,1.23.48.41.85.62,1.13.62.82.55,1.47,1.06,1.95,1.54.48.48.85.86,1.13,1.13.68.55,1.16.99,1.44,1.34.27.34.75.79,1.44,1.34h-.21c.96.41,2.12,1.2,3.5,2.36,1.37,1.17,2.67,2.44,3.91,3.8,1.23,1.37,2.23,2.71,2.98,4.01.75,1.31.99,2.36.72,3.19-.41,1.37-.55,2.36-.41,2.98.13.62.34,1.2.62,1.75.68.69,1.37,1.3,2.06,1.85.68.55,1.51,1.16,2.47,1.85.55,0,1.16.1,1.85.31.68.21,1.37.45,2.06.72.41.28.79.55,1.13.82.34.28.79.48,1.34.62l5.14-.21c.27.69.75,2.06,1.44,4.11.27.69.62,1.37,1.03,2.06,1.1,1.1,2.33,1.37,3.7.82l3.29-.21c.14.41.38.82.72,1.23.34.41.65.76.93,1.03,1.1.55,2.06.86,2.88.93.82.07,1.51.24,2.06.51,1.1.14,2.19,0,3.29-.41l4.52,5.14,1.44,1.44,6.17-.21c0,.41.21.79.62,1.13.41.34,1.03,1.34,1.85,2.98.41.14.96.45,1.64.93.68.48,1.23,1.2,1.64,2.16.55.41,1.1.89,1.64,1.44.55.55,1.03.96,1.44,1.23.41.55.92,1.37,1.54,2.47.62,1.1,1.2,1.92,1.75,2.47l.2,5.14v6.58c-.28,0-.82.1-1.64.31-.82.21-1.37.31-1.64.31-.55.28-1.06.51-1.54.72-.48.21-.93.17-1.34-.1-.69.28-1.44.62-2.26,1.03-.82.41-1.51.62-2.06.62-1.37-.82-3.15-1.47-5.34-1.95-2.19-.48-3.91-.58-5.14-.31-.28-.68-.96-1.03-2.06-1.03-.55-.41-.96-.79-1.23-1.13-.28-.34-.55-.58-.82-.72-1.1-.27-1.78-.58-2.06-.92-.28-.34-.76-.86-1.44-1.54-.55-.68-1.06-1.26-1.54-1.75-.48-.48-1.06-.72-1.75-.72-1.1,0-2.12-.34-3.08-1.03-.96-.68-1.58-1.16-1.85-1.44-.55-.41-.89-.72-1.03-.93-.14-.2-.34-.65-.62-1.34h-.21c-.69-.27-1.37-.82-2.06-1.64-.69-.82-1.44-1.1-2.26-.82-.55-.27-1.03-.55-1.44-.82-.41-.27-.89-.55-1.44-.82-.69-.41-1.23-1.06-1.64-1.95-.41-.89-.89-1.47-1.44-1.75-.69-1.51-1.47-2.43-2.36-2.78-.89-.34-1.82-.79-2.77-1.34-.96.28-1.92,0-2.88-.82-.55-.55-.93-.99-1.13-1.34-.21-.34-.51-.79-.93-1.34-.41-.14-.89-.55-1.44-1.23-.55-.68-.96-1.16-1.23-1.44-.82-.68-1.61-1.68-2.36-2.98-.76-1.3-1.41-2.02-1.95-2.16-1.64.55-2.74,1.17-3.29,1.85-.69,1.1-1.17,1.78-1.44,2.06.14.14-.1.58-.72,1.34-.62.76-1.06,1.47-1.34,2.16-.41,0-.82.28-1.23.82-.41.55-.62,1.03-.62,1.44-.41.55-.72,1.2-.93,1.95-.2.76-.31,1.41-.31,1.95-1.1.14-2.13.34-3.08.62-.96.28-1.64.69-2.06,1.23-.82.41-1.78,1.37-2.88,2.88-.28.69-.69,1.54-1.23,2.57-.55,1.03-.89,1.89-1.03,2.57-.28.14-.58.21-.92.21h-.93l-2.26.82h.41c-.69.41-1.2.89-1.54,1.44-.34.55-.79,1.03-1.34,1.44-.28.82-1.17,1.78-2.67,2.88-.55.14-1.37.59-2.47,1.34-1.1.76-1.78,1.47-2.06,2.16l-5.76.62-4.11.2-7.19,2.06-4.73.41Z"/>
          </g>
          <g>
            <path class="cls-2" d="M493.52,72.93c.87,1.06,1.36,1.8,1.45,2.2.09.41.17.77.23,1.08,0,.31-.01.59-.05.84-.03.25-.02.53.05.84.13.25.27.52.42.8s.39.55.7.8c-.13.13-.28.28-.47.47-.19.19-.47.53-.84,1.03.19.19.37.41.56.66.31.44.59.72.84.84-.06.38-.09.66-.09.84v.75l-.09,1.12.28,2.06-.28,3.84c.12.31.19.64.19.98s.03.77.09,1.26v1.5l.19,1.41c-.13.37-.16.8-.09,1.26s.03.95-.09,1.45c.31.25.51.42.61.51.09.09.2.3.33.61.25.19.45.36.61.52.16.16.39.48.7.98.31-.31.59-.64.84-.98.25-.34.59-.67,1.03-.98.06-.06.25-.2.56-.42s.62-.45.94-.7c.12-.12.34-.12.66,0,.31.13.62.16.94.09.19.06.47.05.84-.05.37-.09.72-.08,1.03.05.37-.12.69-.16.94-.09.25.06.47.03.66-.09.37.13.69.2.94.23.25.03.59-.01,1.03-.14.31.06.67.11,1.08.14.41.03.73.05.98.05.12,0,.28-.03.47-.09.19-.06.62-.09,1.31-.09.25-.06.55-.06.89,0,.34.06.61.16.8.28h1.59c.5,0,.94-.06,1.31-.19.25-.06.45-.08.61-.05.16.03.58.05,1.26.05.31-.12.61-.12.89,0,.28.13.61.19.98.19.19,0,.41-.01.66-.05.25-.03.59.02,1.03.14.37-.12.72-.25,1.03-.37.31-.12.62-.12.94,0,.19.06.41.08.66.05.25-.03.44.05.56.23h2.53c.5,0,1.03-.09,1.59-.28s1-.53,1.31-1.03c.19-.31.42-.61.7-.89l.8-.8c0-.38-.02-.7-.05-.98s-.17-.58-.42-.89c-.31-.19-.53-.39-.66-.61-.13-.22-.25-.42-.37-.61-.19-.25-.37-.47-.56-.66-.19-.19-.44-.28-.75-.28-.06-.19-.22-.42-.47-.7-.25-.28-.44-.52-.56-.7-.19-.62-.25-1.3-.19-2.02.06-.72.03-1.2-.09-1.45.06-.25.11-.56.14-.94.03-.37.01-.72-.05-1.03l.28-2.06-.09-1.59.56-1.69.09-2.25-.09-1.97c.12-.38.2-.67.23-.89.03-.22.05-.55.05-.98-.13-.25-.2-.47-.24-.66s-.14-.44-.33-.75c-.19-.25-.34-.44-.47-.56-.13-.12-.25-.25-.37-.37-.38-.25-.77-.44-1.17-.56-.41-.12-.67-.37-.8-.75-.5.06-.97.08-1.41.05-.44-.03-.87.02-1.31.14-.31.13-.61.19-.89.19h-.89c-.5.19-.81.37-.94.56-.13.19-.34.44-.66.75-.13,0-.33-.01-.61-.05s-.55-.11-.8-.24c-.31.13-.61.24-.89.33s-.58.14-.89.14c-.38-.12-.66-.22-.84-.28-.19-.06-.5-.03-.94.09-.31.13-.6.13-.84,0-.25-.12-.56-.12-.94,0h-1.17c-.28,0-.58.03-.89.09-.56-.19-1.25-.19-2.06,0-.62-.31-1.41-.38-2.34-.19-.31,0-.62-.03-.94-.09-.31-.06-.66-.03-1.03.09-.31-.06-.59-.12-.84-.19-.25-.06-.5-.03-.75.09-.31.06-.61.11-.89.14s-.58.05-.89.05c-.31-.06-.64-.09-.98-.09h-.98l-1.41.09c-.25-.44-.47-.75-.66-.94-.19-.19-.38-.47-.56-.84-.13-.19-.31-.44-.56-.75-.25-.31-.44-.53-.56-.66-.81.38-1.35.58-1.59.61-.25.03-.56.17-.94.42-.13.37-.2.66-.23.84-.03.19-.02.53.05,1.03v.75c0,.19-.06.5-.19.94ZM506.35,81.83c-.06-.12-.11-.3-.14-.51-.03-.22-.08-.39-.14-.51v-.66c.12-.12.22-.31.28-.56.62.13,1.16.09,1.59-.09.5,0,.9.03,1.22.09.31.06.62.09.94.09.19-.13.48-.14.89-.05.41.09.7.14.89.14.25-.25.72-.34,1.41-.28h1.41c.75,0,1.47.09,2.16.28.43-.06.84-.11,1.22-.14.37-.03.66-.08.84-.14.12.06.28.05.47-.05.19-.09.34-.08.47.05.19.31.22.6.09.84l.09.84c-.19.62-.25,1.03-.19,1.22.06.13.09.34.09.66s.03.56.09.75c-.13.44-.17.74-.14.89.03.16.11.39.23.7-.13.25-.2.58-.23.98-.03.41.01.77.14,1.08l.09,1.87c-.06.13-.13.28-.19.47-.06.19-.13.34-.19.47,0,.25-.19.38-.56.38h-1.03l-1.78-.38c-.5.06-.84.11-1.03.14-.19.03-.31.05-.37.05-.31-.12-.58-.14-.8-.05-.22.09-.49.14-.8.14s-.62-.08-.94-.23c-.31-.16-.62-.17-.94-.05-.31.06-.58.13-.8.19-.22.06-.49.13-.8.19-.31-.06-.58-.13-.8-.19s-.48-.06-.8,0c-.25.06-.5.02-.75-.14-.25-.16-.47-.2-.66-.14-.19-.06-.36-.06-.51,0-.16.06-.33.06-.51,0l-.09-1.78.19-1.22-.09-1.03c0-.56-.09-1.09-.28-1.59-.13-.13-.22-.33-.28-.61-.06-.28-.13-.48-.19-.61.25-.25.66-.75,1.22-1.5Z"/>
            <path class="cls-2" d="M538.39,66.65c.19.13.34.31.47.56.12.25.28.5.47.75l.84,1.41.56,1.03c.06.31.11.61.14.89s-.01.58-.14.89c-.06.44-.03.81.09,1.12.12.31.12.66,0,1.03-.13.19-.14.44-.05.75s.11.53.05.66c.06.44.06.86,0,1.26-.06.41-.03.76.09,1.08-.25.81-.25,1.53,0,2.16-.13.31-.17.66-.14,1.03.03.37.08.75.14,1.12.12.69.06,1.28-.19,1.78.13.56.17.97.14,1.22-.03.25-.11.53-.23.84.12.31.19.56.19.75s-.03.34-.09.47c-.06.56-.06,1.03,0,1.4.06.38.13.69.19.94-.13.37-.2.73-.23,1.08-.03.34-.05.8-.05,1.36.19.31.22.84.09,1.59.13.31.19.62.19.94v.94c.12.56.12,1.09,0,1.59.06.5.03,1.06-.09,1.69-.06.5-.05.86.05,1.08.09.22.11.51.05.89-.13.38-.2.67-.23.89-.03.22-.05.51-.05.89.12.25.17.53.14.84-.03.31-.08.63-.14.94.5.37.84.7,1.03.98.19.28.34.55.47.8.12.19.36.44.7.75s.61.53.8.66c.56.81,1.25,1.31,2.06,1.5.81.31,1.72.25,2.72-.19.12-.06.3-.26.51-.61s.39-.52.52-.52c.12-.37.28-.72.47-1.03.19-.31.34-.62.47-.94.31-.5.5-1.22.56-2.16l.19-1.87-.19-1.59v-5.53l-.19-1.59.19-1.97.09-1.22v-.66c.31.06.58.05.8-.05.22-.09.39-.11.52-.05.25-.06.56-.06.94,0s.94.03,1.69-.09l1.69.09,1.68-.19,1.22.28,1.87-.19,1.31.38,2.81-1.87.19-2.15c-.13-.12-.33-.41-.61-.84-.28-.44-.48-.72-.61-.84.06-.25.06-.45,0-.61-.06-.16-.03-.3.09-.42-.37-.12-.72-.37-1.03-.75-.31-.38-.63-.59-.94-.66-.19-.19-.37-.41-.56-.66-.19-.25-.41-.44-.66-.56-.19-.31-.39-.56-.61-.75-.22-.19-.49-.47-.8-.84-.31-.12-.72-.19-1.22-.19s-.97-.03-1.41-.09c0,.31-.25.47-.75.47s-.81.09-.94.28h-1.41l-2.53.19h-.84v-1.97l.09-1.59.09-1.87-.09-1.69.09-1.78c-.5-1.25-.69-2.12-.56-2.62-.19-.31-.37-.55-.56-.7-.19-.16-.34-.39-.47-.7-.13-.25-.44-.48-.94-.7-.5-.22-.94-.36-1.31-.42-.19-.06-.34-.12-.47-.19-.12-.06-.31-.16-.56-.28l-1.59-.75c-.62.13-1.28.03-1.97-.28-.62-.37-1.26-.61-1.92-.7s-1.14-.2-1.45-.33c-.31.12-.69.34-1.12.66-.44.31-.6.56-.47.75,0,.5.05,1,.14,1.5s.26.87.51,1.12Z"/>
            <path class="cls-2" d="M495.48,138.18c.5.34,1.31.51,2.44.51,1.37-.56,2.48-1.09,3.33-1.59.84-.5,1.51-.94,2.01-1.31.5-.37.86-.72,1.08-1.03.22-.31.39-.56.51-.75.87-.5,1.65-.97,2.34-1.41.69-.44,1.41-.87,2.16-1.31.75-.69,1.54-1.44,2.39-2.25.84-.81,1.61-1.56,2.3-2.25l5.53-4.97c1.62-1.56,3.01-3,4.17-4.31,1.16-1.31,2.36-2.59,3.61-3.84h.56c.19.19.51.61.98,1.26.47.66,1.11,1.42,1.92,2.3.69.69,1.36,1.31,2.01,1.87.66.56,1.26,1.19,1.83,1.87.69.81,1.45,1.36,2.3,1.64s1.58.74,2.2,1.36c.44.44.86.84,1.26,1.22.41.37.83.75,1.26,1.12.69.69,1.4,1.37,2.15,2.06.75.69,1.44,1.43,2.06,2.25.56.69,1.2,1.23,1.92,1.64.72.41,1.44.78,2.16,1.12.72.34,1.41.7,2.06,1.08.66.37,1.17.87,1.55,1.5l3.75-.47c.5-.44.97-.84,1.41-1.22.44-.37.84-.78,1.22-1.22l-.09-3.19c-.19-.5-.49-.86-.89-1.08-.41-.22-.48-.67-.23-1.36-.94-1-1.83-1.87-2.67-2.62-.84-.75-1.73-1.59-2.67-2.53h-1.22c-.75-.69-1.47-1.28-2.15-1.78-.69-.5-1.5-.9-2.44-1.22-.19-.06-.44-.26-.75-.61-.31-.34-.66-.72-1.03-1.12-.37-.41-.77-.81-1.17-1.22-.41-.41-.8-.7-1.17-.89h-1.03c-1.06-1.25-2.22-2.22-3.47-2.9-1.25-.69-2.5-1.41-3.75-2.16-1.5-.87-2.75-1.9-3.75-3.09-1-1.18-2.12-2.22-3.37-3.09-.31-.12-.56-.3-.75-.52-.19-.22-.37-.39-.56-.51-1.06.13-1.98.14-2.76.05-.78-.09-1.61.11-2.48.61v3.09l-2.9,2.81v1.41c-.63.25-1.23.53-1.83.84-.6.31-1.2.56-1.83.75-.62.19-1.11.41-1.45.66s-.66.51-.94.8-.56.61-.84.98c-.28.37-.7.75-1.26,1.12-.25,1.37-.89,2.5-1.92,3.37-1.03.88-1.98,1.75-2.86,2.62h-1.22l-5.25,5.15-5.15,2.16-1.78,3.75c.62.56,1.05,1.16,1.26,1.78s.47,1.2.75,1.73.67.97,1.17,1.31Z"/>
            <path class="cls-2" d="M623.08,66.56c.12.37.31.63.56.75.25.13.5.34.75.66.19.37.26.69.23.94-.03.25-.08.6-.14,1.03.12.31.14.64.05.98-.09.34-.08.58.05.7.13.5.13.87,0,1.12-.12.25-.19.5-.19.75.06.37.12.74.19,1.08.06.34.06.64,0,.89v1.03c0,.37.03.66.09.84-.06.37-.13.73-.19,1.08s-.06.61,0,.8c.12.37.17.75.14,1.12-.03.37-.02.72.05,1.03-.13.31-.17.63-.14.94.03.31.08.62.14.94-.06.31-.06.61,0,.89.06.28.03.61-.09.98,0,.25.03.53.09.84.06.31.06.63,0,.94.06.31.08.61.05.89s-.08.58-.14.89v.94c0,.31.03.69.09,1.12-.06.44-.09.76-.09.98s-.06.58-.19,1.08l.47,1.97-.19,2.53c0,.19-.02.37-.05.56-.03.19-.11.44-.23.75l.28,2.16-.09,1.69.09,1.78c0,.31.03.62.09.94.06.31.03.66-.09,1.03,0,.5-.02.94-.05,1.31-.03.37-.08.72-.14,1.03.06.31.14.58.23.8.09.22.11.48.05.8-.13.19-.17.41-.14.66.03.25.01.56-.05.94.25.44.22,1-.09,1.69.06.13.09.31.09.56s.03.53.09.84c-.25.63-.25,1.35,0,2.16.12.5.16.94.09,1.31-.06.38-.03.75.09,1.12-.19.56-.28,1.28-.28,2.16-.12.31-.19.56-.19.75v.56l.19,1.5.28,1.68-.09,2.16c-.13.44-.17.81-.14,1.12.03.31.05.69.05,1.12-.06.19-.05.42.05.7.09.28.11.58.05.89,0,.31-.03.75-.09,1.31-.06.56-.06,1,0,1.31.06.19.25.36.56.52.31.16.62.3.94.42.31.12.58.26.8.42.22.16.33.3.33.42.12.31.34.64.66.98s.66.58,1.03.7c.31-.06.55-.08.7-.05.16.03.39.08.7.14l1.12-1.41c.12-.13.34-.28.66-.47.31-.19.53-.34.66-.47.31-.31.53-.53.66-.66.13-.13.31-.34.56-.66.06-.31.08-.67.05-1.08-.03-.41-.02-.67.05-.8.19-.31.39-.6.61-.84.22-.25.42-.5.61-.75.06-.44.03-1-.09-1.69.12-.19.22-.44.28-.75.06-.31.03-.63-.09-.94.06-.31.06-.61,0-.89s-.09-.67-.09-1.17c.12-.31.16-.64.09-.98-.06-.34,0-.67.19-.98-.19-.31-.25-.66-.19-1.03.06-.38.09-.75.09-1.12,0-.44-.03-.83-.09-1.17-.06-.34-.03-.67.09-.98.06-.19.05-.47-.05-.84-.09-.37-.14-.72-.14-1.03-.06-.31-.06-.61,0-.89.06-.28.09-.55.09-.8,0-.31-.02-.59-.05-.84-.03-.25-.02-.47.05-.66l-.56-1.5.09-2.34-.19-2.16,1.03-1.59c-.13-.25-.19-.52-.19-.8s-.03-.64-.09-1.08c.13-.31.17-.59.14-.84-.03-.25-.11-.59-.23-1.03.19-.62.22-1.28.09-1.97-.06-.38-.08-.67-.05-.89.03-.22.05-.48.05-.8.13-.5.17-.87.14-1.12-.03-.25-.08-.56-.14-.94l-.66-.94.84-.84c0-.13.01-.36.05-.7.03-.34.05-.7.05-1.08v-.8c0-.22-.03-.48-.09-.8s-.08-.61-.05-.89.01-.51-.05-.7c-.06-.44-.08-.81-.05-1.12.03-.31.05-.62.05-.94-.06-.37-.08-.72-.05-1.03s.01-.62-.05-.94c-.06-.25-.06-.51,0-.8s.09-.58.09-.89c.12-.31.16-.64.09-.98s-.03-.67.09-.98c-.06-.31-.09-.61-.09-.89s-.03-.61-.09-.98c-.13-.31-.16-.61-.09-.89s.03-.58-.09-.89c.06-.31.12-.64.19-.98.06-.34.12-.73.19-1.17-.13-.13-.2-.36-.23-.7s.01-.61.14-.8c-.13-.31-.2-.62-.23-.94-.03-.31-.05-.72-.05-1.22.19-.31.28-.59.28-.84s.06-.69.19-1.31c-.06-.69-.17-1.23-.33-1.64-.16-.41-.17-.83-.05-1.26-.12-.31-.25-.55-.37-.7-.13-.16-.25-.39-.37-.7-.19-.5-.56-.87-1.12-1.12-.19-.13-.45-.41-.8-.84-.34-.44-.67-.87-.98-1.31-.25-.12-.47-.28-.66-.47-.19-.19-.41-.41-.66-.66h.09c-.94-.19-1.66-.12-2.16.19-.31-.12-.66-.22-1.03-.28-.38-.06-.72-.03-1.03.09-.19-.06-.47-.09-.84-.09h-1.22c-.44,0-.84.02-1.22.05-.38.03-.6.05-.66.05-.25.25-.41.61-.47,1.08-.06.47-.22.83-.47,1.08.12.31.31.66.56,1.03.25.38.56.66.94.84Z"/>
            <path class="cls-2" d="M577.88,86.33c-.09.25-.11.59-.05,1.03v.66c0,.19.06.5.19.94l.37,1.5.38,1.78.56,1.87c.31.19.56.34.75.47.19.13.34.28.47.47-.06.37-.06.75,0,1.12.5.25.87.72,1.12,1.41.69.31,1.12.62,1.31.94.44.19.73.39.89.61.16.22.39.45.7.7.12.25.3.47.51.66.22.19.45.41.7.66.19.13.41.3.66.51.25.22.53.42.84.61h.28c.06,0,.22.06.47.19.62.25,1.09.59,1.41,1.03.37,0,.7.02.98.05s.61.08.98.14c.31-.19.58-.24.8-.14.22.09.48.11.8.05.37,0,.72.02,1.03.05.31.03.53.05.66.05.44,0,.8.02,1.08.05.28.03.48-.01.61-.14.31-.06.61-.08.89-.05s.64.05,1.08.05c.12-.25.3-.48.51-.7.22-.22.48-.48.8-.8.37.19.76.22,1.17.09.41-.13.86-.13,1.36,0,.5-.38.87-.72,1.12-1.03.5-.06.87-.09,1.12-.09s.53-.16.84-.47c.37-.06.72-.25,1.03-.56.31-.31.66-.53,1.03-.66,0-.5-.03-.91-.09-1.22s.03-.59.28-.84c.69.06,1.14.03,1.36-.09.22-.12.33-.25.33-.37.25-.12.41-.33.47-.61.06-.28.19-.67.37-1.17.19-.25.37-.47.56-.66.19-.19.44-.41.75-.66.31-.06.51-.17.61-.33.09-.16.26-.39.52-.7.06-.25.09-.47.09-.66s.03-.38.09-.56v-1.41l.09-1.22c-.19-.69-.16-1.28.09-1.78-.06-.19-.13-.42-.19-.7s-.13-.55-.19-.8c.12-.31.17-.62.14-.94-.03-.31-.02-.59.05-.84-.06-.25-.06-.48,0-.7.06-.22.12-.42.19-.61-.44-.62-.75-1.06-.94-1.31-.19-.25-.34-.5-.47-.75l-.19-.75c-.19-.13-.41-.3-.66-.52-.25-.22-.37-.39-.37-.51-.69-.56-1.09-1-1.22-1.31-.13-.13-.3-.25-.52-.38-.22-.12-.48-.31-.8-.56l-1.12-1.31-1.12-1.12c-.37-.25-.69-.47-.94-.66-.25-.19-.56-.34-.94-.47-.31-.31-.66-.42-1.03-.33-.37.09-.75.08-1.12-.05-.37-.06-.72-.05-1.03.05-.31.09-.72-.01-1.22-.33-.31.06-.56-.06-.75-.38-.19-.31-.47-.41-.84-.28-.13.19-.27.36-.42.52-.16.16-.3.3-.42.42-.37.06-.7.06-.98,0s-.55-.03-.8.09c-.25-.12-.51-.19-.8-.19s-.67.09-1.17.28c-.25-.12-.47-.19-.66-.19s-.44-.06-.75-.19c-.69.25-1.41.19-2.15-.19-.44.5-.81.86-1.12,1.08-.31.22-.66.51-1.03.89-.37.19-.72.36-1.03.51s-.56.3-.75.42c-.44.44-.78.72-1.03.84l-.37.19c-.31.31-.58.55-.8.7-.22.16-.51.3-.89.42-.06.19-.19.39-.37.61-.19.22-.37.42-.56.61-.19.25-.34.49-.47.7-.13.22-.31.39-.56.51,0,.31.01.58.05.8.03.22.05.42.05.61l-1.41,1.41c-.31.06-.6.23-.84.51-.25.28-.44.58-.56.89,0,.69.09,1.22.28,1.59,0,.38-.05.69-.14.94ZM587.48,87.35c.12-.19.22-.34.28-.47.06-.13.16-.31.28-.56.06-.12.12-.25.19-.38.06-.12.03-.31-.09-.56.06-.5.06-.9,0-1.22.37-.56.75-.97,1.12-1.22l1.12-.75.75-1.12,1.03-.38c.25-.12.48-.17.7-.14.22.03.42.08.61.14.25,0,.53-.05.84-.14.31-.09.53-.14.66-.14.31.13.61.2.89.24s.52.05.7.05c.19-.12.39-.16.61-.09.22.06.42.03.61-.09.37.19.87.19,1.5,0,.25.25.44.42.56.51.12.09.22.27.28.51.19.13.37.27.56.42.19.16.41.36.66.61.37.13.72.37,1.03.75l.28,1.22v1.12c0,.19.01.34.05.47.03.13.05.22.05.28.12.13.22.23.28.33.06.09.19.27.37.51-.31.44-.47.78-.47,1.03-.13.5-.31.84-.56,1.03-.06.31-.11.6-.14.84-.03.25.02.53.14.84-.31.19-.51.37-.61.56s-.27.34-.51.47v.84l-.28.09-.47.37c-.06.25-.31.47-.75.66h-1.5c-.25.25-.58.36-.98.33-.41-.03-.8-.01-1.17.05-.5-.06-1.02.01-1.55.23-.53.22-1.05.27-1.55.14,0-.06-.19-.16-.56-.28-.13-.06-.28-.12-.47-.19-.19-.06-.37-.16-.56-.28-.5-.19-.84-.5-1.03-.94-.56-.06-.91-.41-1.03-1.03-.13-.31-.33-.58-.61-.8-.28-.22-.52-.58-.7-1.08.12-.12.2-.3.23-.51.03-.22.01-.42-.05-.61-.13-.19-.27-.36-.42-.51-.16-.16-.26-.3-.33-.42-.06-.12-.11-.26-.14-.42-.03-.16.01-.26.14-.33Z"/>
            <path class="cls-2" d="M573.85,119.07c.22-.03.42.02.61.14.5.37.94.81,1.31,1.31.31-.06.61-.09.89-.09h.8c.25-.12.53-.19.84-.19s.62-.06.94-.19c.31.13.61.13.89,0s.64-.19,1.08-.19c.37-.12.76-.22,1.17-.28.41-.06.83-.25,1.26-.56l1.68.28,2.06-.37,1.97.19h5.62l1.97.09,1.78-.09,1.87-.19,1.97.37,1.69-.19,2.06-.09,1.78.09,1.5.09,2.34-.09,1.78-.19,2.15.37c.56-.06,1.08-.12,1.55-.19.47-.06.89-.09,1.26-.09.31,0,.58-.03.8-.09s.45-.09.7-.09l1.12-.56c-.31-.43-.44-.92-.37-1.45.06-.53.16-1.01.28-1.45-.38-.31-.66-.62-.84-.94-.19-.31-.34-.69-.47-1.12-.25-.06-.47-.23-.66-.51s-.36-.62-.51-1.03c-.16-.41-.3-.81-.42-1.22-.13-.41-.25-.76-.38-1.08-.62.13-1.19.25-1.68.37-.5.13-.94.19-1.31.19l-1.97-.47-1.41.09-2.25.19-.94-.09c-.69-.12-1.37-.09-2.06.09-.31-.06-.61-.11-.89-.14-.28-.03-.58-.08-.89-.14-.31.19-.62.25-.94.19-.31-.06-.63-.06-.94,0-.31,0-.64.03-.98.09-.34.06-.58.03-.7-.09l-9.09.19c-.31.06-.87.03-1.69-.09-.19.06-.41.09-.66.09s-.5.06-.75.19l-2.9-.09c-.13.13-.37.14-.75.05-.38-.09-.75-.11-1.12-.05-.31-.12-.6-.14-.84-.05-.25.09-.5.08-.75-.05-.5-.06-.91-.03-1.22.09-.31.13-.62.13-.94,0-.31,0-.63-.03-.94-.09-.31-.06-.69-.03-1.12.09l-1.5-.19-1.59.28-1.78-.09-1.78-.19c-.25.06-.53.08-.84.05-.31-.03-.56-.05-.75-.05-.31.06-.61.16-.89.28-.28.13-.48.28-.61.47-.06.56-.14,1.16-.23,1.78-.09.62-.11,1.19-.05,1.69.12.13.34.34.66.66.31.31.5.53.56.66.06.38.12.8.19,1.26.06.47.16.77.28.89,0,.13.2.22.61.28.41.06.8.09,1.17.09.69.37,1.18.78,1.5,1.22.25,0,.48-.01.7-.05Z"/>
            <path class="cls-2" d="M559.09,154.53c.12-.37.17-.72.14-1.03-.03-.31-.02-.59.05-.84-.06-.31-.11-.66-.14-1.03-.03-.37.01-.66.14-.84-.06-.31-.09-.59-.09-.84v-.75c-.19-.31-.34-.64-.47-.98-.13-.34-.28-.67-.47-.98s-.34-.59-.47-.84c-.12-.25-.25-.47-.37-.66-.19-.12-.45-.37-.8-.75-.34-.37-.61-.66-.8-.84-.06-.19-.22-.37-.47-.56-.25-.19-.47-.28-.66-.28-.25-.25-.47-.45-.66-.61-.19-.16-.37-.3-.56-.42-.44-.12-.78-.17-1.03-.14-.25.03-.56.02-.94-.05-.31-.06-.6-.12-.84-.19-.25-.06-.47-.28-.66-.66-.56.13-1.19.06-1.87-.19-.69-.25-1.22-.44-1.59-.56-.19.31-.36.74-.52,1.26-.16.53-.3.95-.42,1.26.38.31.59.6.66.84.06.25.16.6.28,1.03.25.25.48.48.7.7.22.22.48.39.8.52-.13.5-.2.81-.24.94-.03.13.01.37.14.75-.06.37-.08.67-.05.89.03.22.01.49-.05.8.12.31.17.6.14.84-.03.25-.02.41.05.47.19.5.33.91.42,1.22.09.31.23.63.42.94.12.25.25.45.37.61.12.16.31.3.56.42-.5.56-.84.94-1.03,1.12-.19.19-.44.53-.75,1.03-.13.5-.16.91-.09,1.22-.13.56-.09,1.12.09,1.69.06.06.17.23.33.51s.39.48.7.61c.19.31.3.52.33.61.03.09.08.36.14.8-.31.19-.63.45-.94.8-.31.34-.47.67-.47.98-.06.37-.11.66-.14.84-.03.19.01.44.14.75-.13.44-.2.8-.23,1.08-.03.28-.05.55-.05.8.12.31.16.66.09,1.03s0,.66.19.84c-.06.31-.11.61-.14.89-.03.28-.08.67-.14,1.17v.56c0,.25.09.53.28.84-.31,1-.34,1.59-.09,1.78-.06.38-.11.7-.14.98-.03.28-.02.58.05.89.13.31.14.67.05,1.08-.09.41-.11.76-.05,1.08.13.13.16.34.09.66-.06.31-.03.6.09.84-.13.13-.2.52-.23,1.17-.03.66-.06,1.36-.09,2.11-.03.75-.05,1.44-.05,2.06v1.03c.12.31.17.63.14.94-.03.31-.05.69-.05,1.12-.06.25-.03.53.09.84s.13.62,0,.94c.25.13.48.33.7.61s.48.55.8.8c-.44.25-.75.51-.94.8-.19.28-.44.55-.75.8,0,.25.03.55.09.89s.06.67,0,.98c.12.31.2.67.23,1.08.03.41.24.74.61.98h3.19c.12-.25.34-.5.66-.75.31-.25.59-.5.84-.75.31-.19.59-.38.84-.56.25-.19.44-.41.56-.66.31-.31.56-.55.75-.7.19-.16.37-.39.56-.7.31-.31.55-.55.7-.7.16-.16.3-.36.42-.61.75-.75,1.4-1.28,1.97-1.59-.06-.37-.13-.72-.19-1.03-.06-.31-.06-.56,0-.75.12-.37.14-.73.05-1.08-.09-.34-.14-.67-.14-.98.06-.12.11-.5.14-1.12.03-.62.05-1.29.05-2.01v-2.06c0-.66.06-1.05.19-1.17-.13-.19-.19-.47-.19-.84v-1.22c-.25-.19-.44-.34-.56-.47-.13-.12-.34-.37-.66-.75.37-.19.64-.36.8-.52s.39-.3.7-.42c-.13-.5-.17-.94-.14-1.31.03-.37.01-.78-.05-1.22,0-.25-.03-.5-.09-.75-.06-.25-.03-.59.09-1.03.19-.56.19-1.22,0-1.97v-1.69l.19-1.97-.28-1.59.28-1.87c-.06-.31-.08-.61-.05-.89s.01-.58-.05-.89c0-.31-.05-.59-.14-.84-.09-.25-.14-.59-.14-1.03.06-.81.19-1.5.37-2.06,0-.31-.09-.81-.28-1.5Z"/>
            <path class="cls-2" d="M502.13,183.1c.62-.31,1.06-.53,1.31-.66.56-.38,1-.81,1.31-1.31.25-.31.51-.59.8-.84.28-.25.58-.41.89-.47.31-.31.61-.59.89-.84s.55-.41.8-.47c.44-.44.78-.72,1.03-.84.19-.37.36-.69.51-.94.16-.25.3-.5.42-.75.19-.19.44-.69.75-1.5.06-.31.41-.72,1.03-1.22,0-.37.09-.62.28-.75.19-.12.41-.31.66-.56-.06-.31-.05-.58.05-.8.09-.22.33-.48.7-.8.12-.31.23-.56.33-.75.09-.19.2-.37.33-.56-.06-.62.13-1.12.56-1.5s.72-.69.84-.94l.75-1.22.84-1.69.75-1.59.66.66,2.25,2.62.75,1.87v2.44l.56,1.78.56,2.81c.12.25.3.51.51.8s.39.61.52.98c.19.31.31.55.37.7.06.16.22.36.47.61.13.5.24.84.33,1.03.09.19.2.44.33.75.12.25.26.49.42.7.16.22.36.52.61.89.25.56.59.97,1.03,1.22.06.25.28.55.66.89s.75.67,1.12.98c.25,0,.58-.03.98-.09.41-.06.81-.12,1.22-.19.41-.06.76-.12,1.08-.19.31-.06.5-.09.56-.09.31-.12.59-.3.84-.52.25-.22.41-.36.47-.42.31-.12.61-.33.89-.61s.48-.55.61-.8c-.13-.31-.16-.83-.09-1.55.06-.72.06-1.36,0-1.92-.06-.13-.05-.41.05-.84.09-.44.05-.81-.14-1.12-.25-.31-.42-.62-.51-.94-.09-.31-.36-.62-.8-.94,0-.44.01-.87.05-1.31.03-.44.11-.94.23-1.5-.5-.19-1.03-.5-1.59-.94-.31-.31-.66-.72-1.03-1.22-.19,0-.39.02-.61.05s-.42-.01-.61-.14c-.31-.31-.52-.61-.61-.89s-.23-.7-.42-1.26c-.19-.31-.39-.59-.61-.84-.22-.25-.39-.5-.51-.75-.06-.56-.19-.91-.37-1.03-.19-.12-.34-.44-.47-.94-.19-.12-.36-.23-.51-.33-.16-.09-.23-.3-.23-.61-.19-.31-.41-.44-.66-.38-.25.06-.47-.03-.66-.28-.25-.12-.45-.25-.61-.37-.16-.12-.39-.25-.7-.37.19-.38.23-.61.14-.7-.09-.09-.3-.2-.61-.33-.06-.5-.23-.75-.51-.75s-.49-.13-.61-.38l-.84-.75,1.03.19c.5.19,1.06.25,1.68.19l1.69-.09,1.69.09c.31-.19.67-.2,1.08-.05.41.16.7.17.89.05.75.06,1.31.25,1.69.56.56.06,1.12.22,1.69.47.25.13.48.17.7.14.22-.03.48-.01.8.05.31.06.69-.09,1.12-.47.44-.38.87-.72,1.31-1.03.06-.06.14-.28.24-.66.09-.38.19-.8.28-1.26.09-.47.2-.94.33-1.41.12-.47.25-.8.38-.98.06-.19.11-.42.14-.7.03-.28-.11-.58-.42-.89.06-.13-.16-.47-.66-1.03s-.87-1-1.12-1.31c-.25-.31-.59-.5-1.03-.56-.44-.06-.91-.22-1.41-.47-.25.06-.53.08-.84.05-.31-.03-.69-.02-1.12.05-.5.06-.91.08-1.22.05-.31-.03-.6-.05-.84-.05-.5-.12-.94-.16-1.31-.09-.37.06-.69.06-.94,0l-2.15.56-2.16.19-1.59.47c-.81,0-1.5.13-2.06.37-.44-.12-.75-.17-.94-.14-.19.03-.47.08-.84.14-.44-.12-.8-.2-1.08-.23-.28-.03-.64-.01-1.08.05-.19.06-.45.08-.8.05-.34-.03-.7-.08-1.08-.14-.13.06-.33.08-.61.05-.28-.03-.55-.08-.8-.14-.69.19-1.37.22-2.06.09h-1.03c-.31,0-.63-.03-.94-.09-.25.19-.55.28-.89.28s-.61.03-.8.09c-.38-.12-.72-.17-1.03-.14-.31.03-.62.02-.94-.05h-.7c-.34,0-.64.06-.89.19-.31-.12-.64-.17-.98-.14-.34.03-.58.02-.7-.05-.25-.12-.5-.31-.75-.56-.25-.25-.5-.38-.75-.38-.13-.06-.37-.11-.75-.14-.38-.03-.66-.11-.84-.23-.25.13-.53.14-.84.05-.31-.09-.66-.08-1.03.05-.19.06-.58.14-1.17.24-.6.09-1.05.2-1.36.33.25.88.44,1.5.56,1.87.12.37.31.72.56,1.03.13.19.24.53.33,1.03.09.5.16,1.03.19,1.59.03.56.08,1.08.14,1.54.06.47.16.77.28.89.31.31.67.53,1.08.66.41.13.73.34.98.66.62-.06,1.04-.01,1.26.14.22.16.55.33.98.51.31-.12.66-.12,1.03,0,.38.13.69.13.94,0,.62-.06,1.31-.06,2.06,0,.25,0,.53.02.84.05.31.03.62-.01.94-.14.5-.06,1.16.03,1.97.28.31-.19.67-.25,1.08-.19.41.06.83-.03,1.26-.28l2.62-.19c-.31.19-.56.34-.75.47-.19.13-.34.37-.47.75-.13.31-.3.49-.52.52s-.42.27-.61.7c-.06.13-.24.33-.52.61s-.55.61-.8.98l-.94.94-.94,1.22-1.5,1.78-1.22,1.5c-.13.19-.3.41-.51.66-.22.25-.48.5-.8.75-.31.13-.6.33-.84.61-.25.28-.53.58-.84.89-.13.19-.3.36-.51.51-.22.16-.36.33-.42.52-.31.31-.49.66-.52,1.03-.03.38-.14.78-.33,1.22-.13.12-.31.31-.56.56-.25.25-.53.44-.84.56-.13.38-.31.69-.56.94-.25.25-.44.44-.56.56-.44.31-.74.62-.89.94s-.3.56-.42.75c-.44.19-.75.39-.94.61-.19.22-.37.49-.56.8,0,.38-.02.77-.05,1.17-.03.41-.05.76-.05,1.08l-.09.09c.31.13.67.36,1.08.7.41.34.67.58.8.7.62-.06,1.19-.06,1.69,0,.31-.06.8-.03,1.45.09.66.13,1.11.22,1.36.28.12-.38.5-.72,1.12-1.03Z"/>
            <path class="cls-2" d="M567.71,214.72c0-.22-.06-.48-.19-.8.06-.31.14-.6.24-.84.09-.25.08-.53-.05-.84-.19-.31-.51-.84-.98-1.59-.47-.75-.89-1.31-1.26-1.69-.5-.06-.97-.34-1.41-.84-.44-.25-.73-.45-.89-.61s-.39-.33-.7-.51c-.19-.31-.41-.51-.66-.61-.25-.09-.53-.23-.84-.42-.31-.12-.55-.26-.7-.42-.16-.16-.39-.3-.7-.42-.31-.12-.56-.23-.75-.33-.19-.09-.53-.3-1.03-.61-.25.31-.51.63-.8.94-.28.31-.55.56-.8.75-.31-.06-.55-.03-.7.09-.16.12-.45.16-.89.09-.44-.06-.91,0-1.4.19-.38,0-.74.03-1.08.09-.34.06-.67.03-.98-.09-.62.25-1.16.28-1.59.09-.19,0-.44.06-.75.19-.31.12-.59.22-.84.28-.31.19-.59.38-.84.56-.25.19-.5.37-.75.56-.37-.31-.67-.55-.89-.7-.22-.16-.45-.3-.7-.42-.31-.13-.64-.17-.98-.14s-.67.01-.98-.05c-.31-.13-.61-.17-.89-.14-.28.03-.64.08-1.08.14h-1.69l-1.87-.09-1.97.19h-1.59l-1.87-.19h-1.78l-1.87.09-1.69-.19-1.87.37h-1.78l-1.78-.19-1.97-.09-1.87-.09-.75.19h-2.15c0-.31.03-.66.09-1.03s.12-.72.19-1.03c0-.5.01-1.06.05-1.68s-.01-1.12-.14-1.5c.06-.31.08-.66.05-1.03-.03-.37-.05-.72-.05-1.03s.03-.61.09-.89c.06-.28.03-.58-.09-.89,0-.31-.03-.61-.09-.89-.06-.28-.06-.57,0-.89.12-.31.17-.62.14-.94-.03-.31-.08-.66-.14-1.03,0-.31.03-.64.09-.98.06-.34.09-.67.09-.98-.31-.12-.58-.37-.8-.75-.22-.38-.42-.62-.61-.75-.25-.19-.53-.41-.84-.66-.31-.25-.56-.47-.75-.66-.25.06-.81.14-1.69.23s-1.44.14-1.68.14c-.19-.06-.47-.2-.84-.42-.38-.22-.72-.3-1.03-.23l-3.56.19c-.19.13-.42.31-.7.56-.28.25-.61.44-.98.56.31.44.58.8.8,1.08s.42.58.61.89c.31.31.58.58.8.8.22.22.48.49.8.8v1.31c.06.25.08.48.05.7-.03.22-.05.39-.05.51.25.31.48.56.7.75.22.19.45.47.7.84.06.13.09.28.09.47s-.06.47-.19.84c-.31.13-.58.36-.8.7-.22.34-.3.67-.24.98-.06.19-.11.53-.14,1.03s-.05,1.03-.05,1.59v2.53c-.13.31-.17.67-.14,1.08.03.41.05.8.05,1.17-.06.19-.09.45-.09.8s.06.64.19.89c.06.5.11.89.14,1.17.03.28-.02.58-.14.89,0,.31-.02.62-.05.94-.03.31-.08.62-.14.94.25.31.47.56.66.75.19.19.44.41.75.66.19.5.47.94.84,1.31.5.06.97.09,1.41.09h1.41c.31-.13.66-.16,1.03-.09.37.06.75.03,1.12-.09.31-.31.58-.56.8-.75.22-.19.52-.34.89-.47l1.5-.19,1.87.19,2.06-.19,1.97.19,1.87.09,1.78-.09h2.16l1.78-.19h3.84l1.59.19,1.87-.09,2.25-.19,1.97.19c.31.12.61.16.89.09s.67-.06,1.17,0c.37-.13.72-.17,1.03-.14.31.03.62-.02.94-.14.25-.13.47-.27.66-.42.19-.16.34-.27.47-.33.37.06.76.23,1.17.51.41.28.86.48,1.36.61.25-.06.5-.06.75,0,.25.06.53.06.84,0,.44,0,.8-.01,1.08-.05.28-.03.58-.02.89.05.31.19.62.38.94.56.31.19.62.38.94.56.12-.31.25-.53.38-.66.12-.13.28-.31.47-.56.38.31.67.58.89.8.22.22.48.42.8.61h2.16c.37.06.7.08.98.05.28-.03.64-.02,1.08.05.31.13.59.33.84.61.25.28.5.55.75.8.31,0,.62-.05.94-.14.31-.09.72-.14,1.22-.14.19,0,.45.03.8.09.34.06.67.06.98,0,.31-.13.73-.19,1.26-.19s1.08-.16,1.64-.47c.06-.19.09-.47.09-.84s-.03-.66-.09-.84v-.8Z"/>
            <path class="cls-2" d="M634.5,148.67c0-.34-.03-.76-.09-1.26h-.19c-.13-.19-.2-.5-.23-.94-.03-.44-.11-.81-.23-1.12-.44-.31-.81-.61-1.12-.89-.31-.28-.69-.58-1.12-.89-.88-.31-1.56-.5-2.06-.56-.25-.12-.45-.3-.61-.51-.16-.22-.33-.39-.51-.52-.19,0-.41-.05-.66-.14-.25-.09-.47-.17-.66-.23-.5,0-.92.03-1.26.09-.34.06-.67.09-.98.09-.25,0-.6.05-1.03.14-.44.09-.88.19-1.31.28-.44.09-.83.22-1.17.37-.34.16-.51.3-.51.42.06.37.14.86.23,1.45s.3,1.01.61,1.26c.25.06.5.2.75.42.25.22.47.45.66.7.31.19.5.39.56.61s.16.39.28.51l.19,1.5-.28,1.87v1.69l.09,1.78.19,1.5-.09,1.69c.06.44.05.81-.05,1.12-.09.31-.11.62-.05.94.06.37.05.7-.05.98-.09.28-.11.58-.05.89s.09.62.09.94v.84c.06.31.09.66.09,1.03s.03.75.09,1.12c-.06.31-.11.58-.14.8-.03.22-.05.55-.05.98.13.25.13.55,0,.89s-.19.74-.19,1.17c.31.62.34,1.16.09,1.59l.09,1.97.09,2.15.09,3.75c.19.38.33.72.42,1.03.09.31.2.62.33.94.31.31.89.66,1.73,1.03s1.51.69,2.02.94c.12-.25.34-.48.66-.7.31-.22.62-.33.94-.33.31-.31.72-.53,1.22-.66.5-.12.91-.37,1.22-.75-.25-.5-.25-1,0-1.5.31-.37.56-.98.75-1.83.19-.84.34-1.36.47-1.55-.06-.69,0-1.22.19-1.59v-.84c0-.25-.06-.44-.19-.56-.13-.37-.31-.66-.56-.84-.25-.19-.5-.44-.75-.75.25-.12.48-.3.7-.51s.51-.48.89-.8c-.06-.19-.11-.42-.14-.7-.03-.28.05-.58.23-.89-.06-.19-.13-.41-.19-.66-.06-.25-.09-.53-.09-.84-.06-.25-.09-.56-.09-.94s.06-.66.19-.84c0-.44.03-.81.09-1.12.06-.31.09-.59.09-.84-.13-.31-.19-.64-.19-.98v-.8c-.13-.31-.16-.64-.09-.98.06-.34.16-.67.28-.98.25-.19.3-.39.14-.61-.16-.22-.11-.48.14-.8.06-.31.06-.61,0-.89s-.06-.58,0-.89c.12-.25.16-.5.09-.75-.06-.25-.09-.59-.09-1.03.06-.25.05-.5-.05-.75-.09-.25-.14-.5-.14-.75,0-.31.01-.58.05-.8.03-.22.05-.45.05-.7-.06-.44-.08-.73-.05-.89.03-.16.11-.48.23-.98v-.8Z"/>
            <path class="cls-2" d="M636.89,212.8c-.09-.31-.08-.62.05-.94-.06-.19-.13-.45-.19-.8-.06-.34-.09-.67-.09-.98-.25-.19-.55-.25-.89-.19-.34.06-.8.03-1.36-.09-.06-.38-.27-.67-.61-.89s-.73-.51-1.17-.89l.37-1.87.28-1.97.09-2.06.28-1.69.28-2.06.19-2.06.19-1.5.09-2.25.28-1.69-1.59-1.12-1.41-1.97c-.69-.12-1.2-.26-1.55-.42-.34-.16-.64-.51-.89-1.08l.09-.19c-.31,0-.66.03-1.03.09s-.72.16-1.03.28c-.25-.31-.53-.58-.84-.8-.31-.22-.62-.48-.94-.8-.31,0-.64-.01-.98-.05s-.76-.08-1.26-.14c-.31.06-.64.08-.98.05-.34-.03-.67-.08-.98-.14-.31.5-.63.83-.94.98-.31.16-.53.39-.66.7-.5.06-.97.06-1.41,0-.31.06-.59.11-.84.14-.25.03-.56-.01-.94-.14-.31.13-.61.17-.89.14-.28-.03-.61.02-.98.14-.31-.12-.63-.19-.94-.19s-.72-.06-1.22-.19c-.56.19-1.22.22-1.97.09-.25-.06-.58-.08-.98-.05-.41.03-.76.11-1.08.24-.19-.12-.47-.17-.84-.14s-.72.05-1.03.05c-.25.13-.53.14-.84.05-.31-.09-.6-.14-.84-.14-.25.13-.49.17-.7.14-.22-.03-.42-.05-.61-.05-.19.19-.37.19-.56,0s-.44-.09-.75.28c-.56-.19-1.22-.28-1.97-.28-.25.13-.55.17-.89.14-.34-.03-.7-.05-1.08-.05-.31.06-.62.08-.94.05-.31-.03-.66.02-1.03.14-.31.13-.53.3-.66.52-.13.22-.31.48-.56.8-.25-.31-.5-.51-.75-.61-.25-.09-.5-.3-.75-.61-.25-.12-.49-.24-.7-.33-.22-.09-.51-.14-.89-.14-.25.13-.55.19-.89.19s-.7.16-1.08.47c-.13.13-.28.28-.47.47-.19.19-.44.41-.75.66-.44-.19-.94-.72-1.5-1.59-.19-.31-.34-.58-.47-.8-.13-.22-.28-.45-.47-.7-.31-.31-.55-.59-.7-.84-.16-.25-.39-.44-.7-.56-.63.06-1.19.19-1.69.37-.5.19-.81.25-.94.19-.13.31-.22.75-.28,1.31-.06.56-.03,1,.09,1.31,0,.31-.05.69-.14,1.12s-.08.84.05,1.22c.12.31.19.64.19.98s-.03.64-.09.89c0,.25.06.49.19.7.12.22.19.39.19.52.19.31.38.53.56.66.19.13.34.34.47.66-.56.25-1.03.69-1.41,1.31.75.56,1.16,1,1.22,1.31-.13.31-.31.53-.56.66-.25.13-.44.31-.56.56.06.5.09.92.09,1.26s-.09.61-.28.8c.06.44.12.83.19,1.17.06.34.03.74-.09,1.17.12.13.17.37.14.75-.03.38-.11.72-.23,1.03.06.31.09.64.09.98s.06.67.19.98c-.13.31-.16.64-.09.98.06.34,0,.67-.19.98.25.56.25,1.25,0,2.06.12.25.17.53.14.84-.03.31.01.59.14.84.06.19.06.47,0,.84-.06.38-.06.69,0,.94.31.37.56.67.75.89.19.22.34.48.47.8.19.25.37.47.56.66.19.19.34.41.47.66.19.19.37.45.56.8.19.34.34.58.47.7.37-.13.76-.17,1.17-.14.41.03.76.11,1.08.24.25-.13.47-.17.66-.14.19.03.38.05.56.05.37-.37.67-.64.89-.8.22-.16.39-.33.51-.51.37.12.7.17.98.14.28-.03.58.01.89.14.37-.13.75-.22,1.12-.28.38-.06.62-.03.75.09h2.16c.25,0,.51.01.8.05.28.03.61.01.98-.05.37.12.67.16.89.09s.52-.09.89-.09h1.12c.31,0,.62-.06.94-.19.31.06.62.13.94.19s.62.09.94.09c.5,0,1-.09,1.5-.28.44.13.78.2,1.03.24.25.03.5.08.75.14.44,0,.78-.03,1.03-.09s.53-.06.84,0c.38-.06.72-.13,1.03-.19.31-.06.59-.03.84.09.31.25.61.47.89.66.28.19.52.41.7.66.06-.13.66-.38,1.78-.75.31.06.7.06,1.17,0,.47-.06.86-.16,1.17-.28.5,0,.87-.08,1.12-.23.25-.16.5-.27.75-.33.37.19.87.19,1.5,0,.31.12.81.19,1.5.19.37,0,.9.12,1.59.37.25.12.42.26.51.42.09.16.27.36.52.61.62-.19,1.37-.16,2.25.09.31-.06.61-.08.89-.05s.64-.05,1.08-.23c.12.06.39.11.8.14.41.03.76.08,1.08.14.44.06.81.08,1.12.05.31-.03.56-.02.75.05.5-.13.97-.17,1.41-.14.44.03.87.05,1.31.05.12-.25.25-.51.37-.8.12-.28.34-.49.66-.61.25-.5.56-.94.94-1.31.06-.25.08-.49.05-.7-.03-.22.01-.49.14-.8,0-.13-.05-.34-.14-.66ZM623.07,200.34c0,.31.01.64.05.98s-.01.73-.14,1.17c-.06.25-.06.55,0,.89s.03.61-.09.8c.19.31.25.53.19.66-.06.13,0,.38.19.75-.13.25-.2.37-.23.37-.03,0-.05.06-.05.19-.19.37-.23.62-.14.75.09.12-.05.16-.42.09-.31,0-.47.01-.47.05,0,.03-.09.11-.28.23-.31-.06-.56-.03-.75.09-.19.12-.37.22-.56.28-.19.25-.45.45-.8.61-.34.16-.61.33-.8.51-.13-.13-.3-.2-.51-.23-.22-.03-.49-.11-.8-.24-.19-.06-.47-.14-.84-.23-.37-.09-.72-.23-1.03-.42-.5.06-.92.08-1.26.05-.34-.03-.67-.11-.98-.23-.56-.13-.97-.31-1.22-.56-.31,0-.63.01-.94.05-.31.03-.63.08-.94.14-.5-.06-.87-.05-1.12.05s-.62.08-1.12-.05c-.19.25-.42.48-.7.7s-.52.45-.7.7c-.31.31-.58.55-.8.7-.22.16-.48.39-.8.7-.25-.13-.42-.28-.51-.47-.09-.19-.27-.44-.51-.75-.31-.13-.6-.2-.84-.24-.25-.03-.53.01-.84.14-.25-.19-.55-.25-.89-.19-.34.06-.67.16-.98.28-.13.25-.34.42-.66.51-.31.09-.53.2-.66.33-.13-.19-.31-.34-.56-.47-.25-.13-.5-.34-.75-.66-.25.12-.5.16-.75.09s-.47-.03-.66.09c-.44-.06-.83-.11-1.17-.14-.34-.03-.64-.11-.89-.23-.31.19-.48.25-.51.19-.03-.06-.24-.09-.61-.09-.13.06-.16.08-.09.05.06-.03-.03-.02-.28.05-.44-.31-.6-.66-.47-1.03-.25-.44-.31-.78-.19-1.03-.13-.44-.16-.64-.09-.61.06.03.16-.2.28-.7-.06-.19-.16-.41-.28-.66-.13-.25-.13-.66,0-1.22v-1.87l.09-1.87.09-1.69c.12-.12.19-.17.19-.14s0-.2,0-.7c0-.25.01-.41.05-.47.03-.06.01-.28-.05-.66l.19-.19c.19,0,.39-.08.61-.23.22-.16.48-.17.8-.05.31-.06.61-.03.89.09s.58.22.89.28c.31-.06.59-.11.84-.14.25-.03.56-.01.94.05.25,0,.48.03.7.09s.48.06.8,0c.5-.5.89-.83,1.17-.98s.42-.3.42-.42c.69-.25,1.25-.31,1.69-.19.25-.06.72,0,1.41.19.31.19.56.34.75.47.19.13.38.22.56.28.25-.12.44-.23.56-.33.13-.09.38-.3.75-.61l.09-.09c.19-.06.44-.09.75-.09h.94c.19.25.72.28,1.59.09.75.19,1.31.22,1.68.09.38-.12.75-.16,1.12-.09.38.06.75.16,1.12.28.31-.06.66-.11,1.03-.14s.69-.01.94.05c.75.06,1.44-.03,2.06-.28.38.19.69.27.94.24.25-.03.59-.08,1.03-.14.25,0,.51.02.8.05.28.03.58.11.89.24l.47-.09c.44-.12.78.09,1.03.66.06.25.11.36.14.33.03-.03.08.14.14.52-.13.19-.17.34-.14.47.03.13.05.38.05.75-.13.25-.13.56,0,.94.12.37.19.75.19,1.12-.13.19-.22.44-.28.75s-.03.53.09.66Z"/>
            <path class="cls-2" d="M583.81,177.1l.94-1.22.94-1.87,5.62-6.65,1.12-1.4,1.12-2.06.38.38c0,.25.03.5.09.75.06.25.09.47.09.66.25.56.75,1.06,1.5,1.5.31.37.53.64.66.8.12.16.34.39.66.7.19.25.39.51.61.8.22.28.48.52.8.7,0,.38.01.69.05.94.03.25.01.44-.05.56.19.19.42.39.7.61.28.22.51.48.7.8.25.13.48.33.7.61.22.28.48.48.8.61.31.12.61.42.89.89s.58.83.89,1.08v1.41l.19-.19c.06.25.25.55.56.89.31.34.53.61.66.8.06.13.23.24.51.33s.59.17.94.23c.34.06.7.11,1.08.14.37.03.66.05.84.05.25,0,.48.02.7.05.22.03.48.01.8-.05.12-.12.33-.26.61-.42.28-.16.51-.36.7-.61.19-.19.39-.41.61-.66.22-.25.42-.5.61-.75v-1.12c0-.44-.06-.91-.19-1.41.19-.25.19-.67,0-1.26s-.22-1.11-.09-1.55c-.75-.37-1.16-.87-1.22-1.5-.13-.31-.25-.61-.38-.89-.13-.28-.19-.67-.19-1.17-.25-.31-.45-.52-.61-.61-.16-.09-.36-.3-.61-.61-.25-.25-.45-.47-.61-.66-.16-.19-.39-.37-.7-.56-.13-.31-.33-.56-.61-.75-.28-.19-.58-.38-.89-.56-.13-.31-.34-.59-.66-.84s-.53-.47-.66-.66c-.25-.25-.47-.47-.66-.66-.19-.19-.47-.44-.84-.75,0-.13.01-.3.05-.52.03-.22-.02-.39-.14-.51-.25-.25-.49-.48-.7-.7-.22-.22-.42-.45-.61-.7-.31-.69-.72-1.06-1.22-1.12-.31-.37-.53-.64-.66-.8-.13-.16-.34-.39-.66-.7-.13-.19-.17-.39-.14-.61.03-.22.08-.39.14-.51l-.75-.75c-.13-.25-.19-.47-.19-.66.19-.12.26-.3.23-.51-.03-.22-.06-.45-.09-.7-.03-.25-.06-.48-.09-.7-.03-.22.01-.39.14-.51-.06-.5-.2-1-.42-1.5-.22-.5-.36-.84-.42-1.03-.13-.12-.42-.2-.89-.23-.47-.03-.89-.11-1.26-.24-.25-.19-.55-.37-.89-.56-.34-.19-.61-.47-.8-.84-.31-.13-.59-.16-.84-.09-.25.06-.53.09-.84.09-.75-.19-1.35-.16-1.78.09-.37-.12-.67-.17-.89-.14-.22.03-.49.05-.8.05-.31.06-.67.08-1.08.05-.41-.03-.83-.05-1.26-.05-.31.13-.51.5-.61,1.12-.09.63-.08,1.1.05,1.41.12.31.26.56.42.75s.36.41.61.66c.12.19.17.44.14.75-.03.31.01.53.14.66.19.31.41.58.66.8.25.22.53.49.84.8-.06.19-.08.31-.05.37.03.06-.02.25-.14.56-.13.31-.31.59-.56.84-.25.25-.44.5-.56.75-.31.25-.58.53-.8.84-.22.31-.48.53-.8.66,0,.31.01.72.05,1.22.03.5.01.94-.05,1.31-.13.31-.31.58-.56.8s-.53.45-.84.7c-.19.19-.37.42-.56.7-.19.28-.47.58-.84.89-.19.31-.62.66-1.31,1.03-.25.56-.72,1.06-1.41,1.5.06.25.08.48.05.7-.03.22-.02.51.05.89-.31.19-.56.39-.75.61-.19.22-.44.48-.75.8-.19.19-.42.39-.7.61s-.51.51-.7.89c.06.13.06.31,0,.56-.06.25-.16.53-.28.84-.06.31-.2.52-.42.61s-.51.3-.89.61c-.13.25-.3.47-.52.66-.22.19-.48.44-.8.75-.13.13-.27.3-.42.52-.16.22-.33.39-.51.51-.19.31-.3.62-.33.94-.03.31-.05.72-.05,1.22.19.13.42.33.7.61l.7.7c.31.19.55.39.7.61s.3.33.42.33c.13.25.25.33.38.24.12-.09.31-.01.56.23.25.13.48.17.7.14.22-.03.48-.05.8-.05.31-.12.83-.25,1.55-.37.72-.12,1.29-.25,1.73-.37.12-.25.28-.56.47-.94.19-.37.5-.72.94-1.03l1.31-1.31Z"/>
          </g>
        </g>
      </g>
    </g>
  </g>
</svg>