<?xml version="1.0" encoding="UTF-8"?>
<svg id="Layer_2" data-name="Layer 2" xmlns="http://www.w3.org/2000/svg" viewBox="0 0 63.67 15.42">
  <defs>
    <style>
      .cls-1 {
        fill: #fff;
      }
    </style>
  </defs>
  <g id="Layer_1-2" data-name="Layer 1">
    <g>
      <g>
        <path class="cls-1" d="M9.21,5.31v.31h2.68c.15,1.5-.05,3.55-1.47,4.43,0,0,0,0,0,0,.07-2.49-1.85-4.8-4.23-5.3-.01.17-.02.35-.02.52,1.66.92,2.09,2.99,2.07,4.99h0c-2.07-.86-2.46-3.37-2.34-5.57h0c.06-3.24,3.61-6.57,5.28-2.27.04.15.26.17.34.05l1-1.16C9.5-1.59,4.06.64,3.73,4.82,1.47,5.44-.16,7.73.01,10.11h4.9v-.31h-2.68c-.15-1.5.05-3.55,1.47-4.43.22,7.12,10.49,7.23,10.41-.06h-4.9Z"/>
        <path class="cls-1" d="M8.19,11.02c-.19,3.18-3.73,6.09-5.25,1.97-.04-.15-.26-.18-.34-.05l-1,1.16c2.88,2.82,8.22.81,8.76-3.17-.68.17-1.45.21-2.16.09Z"/>
      </g>
      <g>
        <g>
          <path class="cls-1" d="M22.06,4.34c0,.36,0,.68-.03.95-.02.28-.06.59-.13.94h.88v.68h-5.96v-.68h4.25c.07-.32.12-.61.14-.88s.03-.55.03-.85h-3.68v-.68h4.51v.52ZM22.04,10.09h-4.51v-2.42h4.51v2.42ZM18.35,9.42h2.86v-1.08h-2.86v1.08Z"/>
          <path class="cls-1" d="M26.39,6.82c.28.54.66.93,1.16,1.17l-.5.68c-.34-.18-.64-.43-.89-.76s-.44-.71-.59-1.14c-.15.46-.35.87-.62,1.22-.27.35-.58.62-.94.81l-.5-.69c.34-.17.64-.41.88-.72.25-.31.43-.67.56-1.07s.19-.81.19-1.22v-1.05h.83v1.05c0,.62.14,1.19.41,1.73ZM28.75,6.11h.98v.73h-.98v3.34h-.83V3.51h.83v2.6Z"/>
          <path class="cls-1" d="M33.68,5.85h-2.15v.68c.59,0,1.09-.02,1.5-.05.41-.03.82-.08,1.23-.15l.08.68c-.45.09-.9.14-1.36.17-.46.03-1.04.04-1.74.04h-.55v-2.01h2.17v-.64h-2.18v-.66h2.99v1.93ZM35.08,8c.39.23.59.53.59.93s-.2.69-.59.91c-.39.22-.93.33-1.61.33s-1.22-.11-1.61-.33c-.39-.22-.59-.52-.59-.91s.2-.7.59-.93c.39-.23.93-.34,1.61-.34s1.22.11,1.61.34ZM32.43,8.47c-.24.1-.36.26-.36.45s.12.34.36.45.58.16,1.03.16.79-.05,1.03-.16.35-.25.35-.45-.12-.35-.35-.45-.58-.16-1.03-.16-.79.05-1.03.16ZM35.6,5.1h.91v.69h-.91v1.72h-.83v-3.99h.83v1.59Z"/>
          <path class="cls-1" d="M42.51,4.34c0,.36,0,.68-.03.95-.02.28-.06.59-.13.94h.88v.68h-5.96v-.68h4.25c.07-.32.12-.61.14-.88s.03-.55.03-.85h-3.68v-.68h4.51v.52ZM42.49,10.09h-4.51v-2.42h4.51v2.42ZM38.8,9.42h2.86v-1.08h-2.86v1.08Z"/>
          <path class="cls-1" d="M46.73,6.99c-.44.79-1.2,1.45-2.27,1.99l-.43-.66c.82-.41,1.43-.9,1.83-1.46.4-.56.63-1.22.7-1.99h-2.22v-.66h3.06c0,1.06-.22,1.99-.66,2.77ZM49.55,10.17h-.83v-3.38h-1.35v-.69h1.35v-2.59h.83v6.67Z"/>
          <path class="cls-1" d="M53.56,6.68h-1.67v1.28c.74-.01,1.4-.06,1.98-.15l.06.68c-.4.07-.78.12-1.15.14-.37.02-.79.04-1.25.04h-.43v-2.66h1.65v-1.14h-1.67v-.68h2.48v2.5ZM56.52,10.17h-.79v-3.43h-.7v3.09h-.77V3.63h.77v2.42h.7v-2.55h.79v6.67Z"/>
          <path class="cls-1" d="M63.67,9.35h-5.96v-.67h2.54v-1.55h.83v1.55h2.6v.67ZM61.4,5.36c.2.31.47.58.83.81.35.23.76.38,1.22.45l-.35.7c-.56-.11-1.05-.31-1.47-.62-.42-.3-.74-.67-.96-1.11-.22.43-.54.8-.96,1.11-.42.3-.91.51-1.46.62l-.36-.7c.46-.08.86-.23,1.22-.45.36-.23.63-.49.83-.81s.29-.63.29-.96v-.47h.89v.47c0,.33.1.66.3.97Z"/>
        </g>
        <g>
          <path class="cls-1" d="M24.14,11.73c.37,0,.57.19.57.19l-.11.16s-.17-.15-.44-.15c-.37,0-.59.27-.59.6,0,.36.25.61.57.61.27,0,.44-.19.44-.19v-.23h-.25v-.19h.45v.78h-.19v-.1s0-.07,0-.07h0s-.17.19-.48.19c-.42,0-.77-.33-.77-.81,0-.45.34-.8.8-.8Z"/>
          <path class="cls-1" d="M25.93,11.73c.45,0,.8.35.8.8s-.35.82-.8.82-.8-.36-.8-.82.35-.8.8-.8ZM25.93,13.14c.32,0,.57-.27.57-.62s-.26-.6-.57-.6-.58.26-.58.6.26.62.58.62Z"/>
          <path class="cls-1" d="M27.14,11.75h.22v1.37h.7v.19h-.92v-1.56Z"/>
          <path class="cls-1" d="M28.42,11.75h.52c.48,0,.79.29.79.78s-.31.78-.79.78h-.52v-1.56ZM28.92,13.12c.35,0,.58-.21.58-.59s-.23-.59-.58-.59h-.28v1.18h.28Z"/>
          <path class="cls-1" d="M30.83,11.75h.22v1.37h.7v.19h-.92v-1.56Z"/>
          <path class="cls-1" d="M32.76,11.73c.45,0,.8.35.8.8s-.35.82-.8.82-.8-.36-.8-.82.35-.8.8-.8ZM32.76,13.14c.32,0,.57-.27.57-.62s-.26-.6-.57-.6-.58.26-.58.6.26.62.58.62Z"/>
          <path class="cls-1" d="M33.77,11.75h.24l.39,1.1c.03.08.06.21.06.21h0s.03-.13.06-.21l.39-1.1h.23l-.57,1.56h-.22l-.58-1.56Z"/>
          <path class="cls-1" d="M35.47,11.75h.91v.19h-.69v.49h.56v.19h-.56v.5h.72v.19h-.94v-1.56Z"/>
          <path class="cls-1" d="M38.2,11.73c.37,0,.57.19.57.19l-.11.16s-.17-.15-.44-.15c-.37,0-.59.27-.59.6,0,.36.25.61.57.61.27,0,.44-.19.44-.19v-.23h-.25v-.19h.45v.78h-.19v-.1s0-.07,0-.07h0s-.17.19-.48.19c-.42,0-.77-.33-.77-.81,0-.45.34-.8.8-.8Z"/>
          <path class="cls-1" d="M39.99,11.73c.45,0,.8.35.8.8s-.35.82-.8.82-.8-.36-.8-.82.35-.8.8-.8ZM39.99,13.14c.32,0,.57-.27.57-.62s-.26-.6-.57-.6-.58.26-.58.6.26.62.58.62Z"/>
          <path class="cls-1" d="M41.21,11.75h.22v1.37h.7v.19h-.92v-1.56Z"/>
          <path class="cls-1" d="M42.48,11.75h.52c.48,0,.79.29.79.78s-.31.78-.79.78h-.52v-1.56ZM42.98,13.12c.35,0,.58-.21.58-.59s-.23-.59-.58-.59h-.28v1.18h.28Z"/>
          <path class="cls-1" d="M44.89,11.75h.91v.19h-.69v.49h.56v.19h-.56v.5h.72v.19h-.94v-1.56Z"/>
          <path class="cls-1" d="M46.59,12.51l-.46-.76h.25l.25.42c.05.08.1.19.1.19h0s.04-.1.1-.19l.25-.42h.25l-.46.76.49.8h-.25l-.28-.48c-.05-.09-.1-.18-.1-.18h0s-.04.09-.09.18l-.28.48h-.25l.49-.8Z"/>
          <path class="cls-1" d="M48.37,11.73c.38,0,.57.21.57.21l-.11.16s-.18-.17-.45-.17c-.35,0-.58.26-.58.6s.23.62.58.62c.29,0,.48-.2.48-.2l.12.16s-.21.25-.61.25c-.47,0-.8-.36-.8-.82s.34-.8.79-.8Z"/>
          <path class="cls-1" d="M49.38,11.75h.22v.68h.81v-.68h.22v1.56h-.22v-.68h-.81v.68h-.22v-1.56Z"/>
          <path class="cls-1" d="M51.93,12.86h-.59l-.15.45h-.23l.56-1.56h.23l.56,1.56h-.23l-.16-.45ZM51.63,11.97s-.04.14-.06.22l-.17.49h.47l-.17-.49c-.03-.08-.06-.22-.06-.22h0Z"/>
          <path class="cls-1" d="M52.64,11.75h.22l.69,1.01c.06.08.13.23.13.23h0s-.02-.14-.02-.23v-1.01h.22v1.56h-.21l-.7-1.01c-.06-.09-.13-.23-.13-.23h0s.02.14.02.23v1.01h-.22v-1.56Z"/>
          <path class="cls-1" d="M55.11,11.73c.37,0,.57.19.57.19l-.11.16s-.17-.15-.44-.15c-.37,0-.59.27-.59.6,0,.36.25.61.57.61.27,0,.44-.19.44-.19v-.23h-.25v-.19h.45v.78h-.19v-.1s0-.07,0-.07h0s-.17.19-.48.19c-.42,0-.77-.33-.77-.81,0-.45.34-.8.8-.8Z"/>
          <path class="cls-1" d="M56.2,11.75h.91v.19h-.69v.49h.56v.19h-.56v.5h.72v.19h-.94v-1.56Z"/>
        </g>
      </g>
    </g>
  </g>
</svg>