<?xml version="1.0" encoding="UTF-8"?>
<svg id="Layer_2" xmlns="http://www.w3.org/2000/svg" version="1.1" xmlns:xlink="http://www.w3.org/1999/xlink" viewBox="0 0 63.7 15.4">
  <!-- Generator: Adobe Illustrator 29.0.0, SVG Export Plug-In . SVG Version: 2.1.0 Build 186)  -->
  <defs>
    <style>
      .st0 {
        fill: url(#linear-gradient1);
      }

      .st1 {
        fill: #c68a61;
      }

      .st2 {
        fill: url(#linear-gradient);
      }
    </style>
    <linearGradient id="linear-gradient" x1="7.1" y1="18.2" x2="7.1" y2="2.4" gradientTransform="translate(0 18) scale(1 -1)" gradientUnits="userSpaceOnUse">
      <stop offset="0" stop-color="#eedbc3"/>
      <stop offset="0" stop-color="#e1c6aa"/>
      <stop offset=".2" stop-color="#bf8e66"/>
      <stop offset=".3" stop-color="#b2794c"/>
      <stop offset=".4" stop-color="#ba865b"/>
      <stop offset=".6" stop-color="#cba079"/>
      <stop offset=".7" stop-color="#bd8a60"/>
      <stop offset=".8" stop-color="#ac6f41"/>
    </linearGradient>
    <linearGradient id="linear-gradient1" x1="6" y1="18.2" x2="6" y2="2.4" gradientTransform="translate(0 18) scale(1 -1)" gradientUnits="userSpaceOnUse">
      <stop offset="0" stop-color="#eedbc3"/>
      <stop offset="0" stop-color="#e1c6aa"/>
      <stop offset=".2" stop-color="#bf8e66"/>
      <stop offset=".3" stop-color="#b2794c"/>
      <stop offset=".4" stop-color="#ba865b"/>
      <stop offset=".6" stop-color="#cba079"/>
      <stop offset=".7" stop-color="#bd8a60"/>
      <stop offset=".8" stop-color="#ac6f41"/>
    </linearGradient>
  </defs>
  <g id="Layer_1-2">
    <g>
      <g>
        <g>
          <path class="st1" d="M22.1,4.3c0,.4,0,.7,0,.9,0,.3,0,.6-.1.9h.9v.7h-6v-.7h4.2c0-.3.1-.6.1-.9s0-.6,0-.8h-3.7v-.7h4.5v.5h0ZM22,10.1h-4.5v-2.4h4.5v2.4ZM18.4,9.4h2.9v-1.1h-2.9v1.1Z"/>
          <path class="st1" d="M26.4,6.8c.3.5.7.9,1.2,1.2l-.5.7c-.3-.2-.6-.4-.9-.8s-.4-.7-.6-1.1c-.1.5-.4.9-.6,1.2-.3.4-.6.6-.9.8l-.5-.7c.3-.2.6-.4.9-.7.2-.3.4-.7.6-1.1s.2-.8.2-1.2v-1.1h.8v1.1c0,.6.1,1.2.4,1.7h0ZM28.8,6.1h1v.7h-1v3.3h-.8V3.5h.8v2.6Z"/>
          <path class="st1" d="M33.7,5.8h-2.1v.7c.6,0,1.1,0,1.5,0s.8,0,1.2-.2v.7c-.4,0-.8.1-1.3.2s-1,0-1.7,0h-.5v-2h2.2v-.6h-2.2v-.7h3v1.9h0ZM35.1,8c.4.2.6.5.6.9s-.2.7-.6.9-.9.3-1.6.3-1.2-.1-1.6-.3-.6-.5-.6-.9.2-.7.6-.9c.4-.2.9-.3,1.6-.3s1.2.1,1.6.3ZM32.4,8.5c-.2.1-.4.3-.4.4s.1.3.4.4.6.2,1,.2.8,0,1-.2.3-.2.3-.4-.1-.4-.3-.4-.6-.2-1-.2-.8,0-1,.2ZM35.6,5.1h.9v.7h-.9v1.7h-.8v-4h.8v1.6h0Z"/>
          <path class="st1" d="M42.5,4.3c0,.4,0,.7,0,.9,0,.3,0,.6-.1.9h.9v.7h-6v-.7h4.2c0-.3.1-.6.1-.9s0-.6,0-.8h-3.7v-.7h4.5v.5h0ZM42.5,10.1h-4.5v-2.4h4.5s0,2.4,0,2.4ZM38.8,9.4h2.9v-1.1h-2.9v1.1Z"/>
          <path class="st1" d="M46.7,7c-.4.8-1.2,1.4-2.3,2l-.4-.7c.8-.4,1.4-.9,1.8-1.5s.6-1.2.7-2h-2.2v-.7h3.1c0,1.1-.2,2-.7,2.8h0ZM49.5,10.2h-.8v-3.4h-1.3v-.7h1.3v-2.6h.8v6.7h0Z"/>
          <path class="st1" d="M53.6,6.7h-1.7v1.3c.7,0,1.4,0,2-.2v.7c-.3,0-.7.1-1.1.1-.4,0-.8,0-1.2,0h-.4v-2.7h1.7v-1.1h-1.7v-.7h2.5v2.5h0ZM56.5,10.2h-.8v-3.4h-.7v3.1h-.8V3.6h.8v2.4h.7v-2.5h.8v6.7Z"/>
          <path class="st1" d="M63.7,9.4h-6v-.7h2.5v-1.6h.8v1.6h2.6v.7h0ZM61.4,5.4c.2.3.5.6.8.8.3.2.8.4,1.2.4l-.3.7c-.6-.1-1-.3-1.5-.6-.4-.3-.7-.7-1-1.1-.2.4-.5.8-1,1.1-.4.3-.9.5-1.5.6l-.4-.7c.5,0,.9-.2,1.2-.4.4-.2.6-.5.8-.8s.3-.6.3-1v-.5h.9v.5c0,.3,0,.7.3,1h0Z"/>
        </g>
        <g>
          <path class="st1" d="M24.1,11.7c.4,0,.6.2.6.2v.2c-.1,0-.3-.1-.6-.1s-.6.3-.6.6.2.6.6.6.4-.2.4-.2v-.2h-.2v-.2h.5v.8h-.2v-.2h0s-.2.2-.5.2-.8-.3-.8-.8.3-.8.8-.8h0Z"/>
          <path class="st1" d="M25.9,11.7c.5,0,.8.4.8.8s-.4.8-.8.8-.8-.4-.8-.8.4-.8.8-.8ZM25.9,13.1c.3,0,.6-.3.6-.6s-.3-.6-.6-.6-.6.3-.6.6.3.6.6.6Z"/>
          <path class="st1" d="M27.1,11.8h.2v1.4h.7v.2h-.9v-1.6Z"/>
          <path class="st1" d="M28.4,11.8h.5c.5,0,.8.3.8.8s-.3.8-.8.8h-.5v-1.6ZM28.9,13.1c.4,0,.6-.2.6-.6s-.2-.6-.6-.6h-.3v1.2h.3Z"/>
          <path class="st1" d="M30.8,11.8h.2v1.4h.7v.2h-.9v-1.6Z"/>
          <path class="st1" d="M32.8,11.7c.5,0,.8.4.8.8s-.3.8-.8.8-.8-.4-.8-.8.3-.8.8-.8ZM32.8,13.1c.3,0,.6-.3.6-.6s-.3-.6-.6-.6-.6.3-.6.6.3.6.6.6Z"/>
          <path class="st1" d="M33.8,11.8h.2l.4,1.1c0,0,0,.2,0,.2h0s0-.1,0-.2l.4-1.1h.2l-.6,1.6h-.2l-.6-1.6Z"/>
          <path class="st1" d="M35.5,11.8h.9v.2h-.7v.5h.6v.2h-.6v.5h.7v.2h-.9s0-1.6,0-1.6Z"/>
          <path class="st1" d="M38.2,11.7c.4,0,.6.2.6.2v.2c-.1,0-.3-.1-.5-.1s-.6.3-.6.6.2.6.6.6.4-.2.4-.2v-.2h-.2v-.2h.5v.8h-.2v-.2h0s-.2.2-.5.2-.8-.3-.8-.8.3-.8.8-.8h0Z"/>
          <path class="st1" d="M40,11.7c.5,0,.8.4.8.8s-.3.8-.8.8-.8-.4-.8-.8.3-.8.8-.8ZM40,13.1c.3,0,.6-.3.6-.6s-.3-.6-.6-.6-.6.3-.6.6.3.6.6.6Z"/>
          <path class="st1" d="M41.2,11.8h.2v1.4h.7v.2h-.9s0-1.6,0-1.6Z"/>
          <path class="st1" d="M42.5,11.8h.5c.5,0,.8.3.8.8s-.3.8-.8.8h-.5v-1.6ZM43,13.1c.3,0,.6-.2.6-.6s-.2-.6-.6-.6h-.3v1.2h.3Z"/>
          <path class="st1" d="M44.9,11.8h.9v.2h-.7v.5h.6v.2h-.6v.5h.7v.2h-.9s0-1.6,0-1.6Z"/>
          <path class="st1" d="M46.6,12.5l-.5-.8h.2l.2.4c0,0,0,.2,0,.2h0s0-.1,0-.2l.2-.4h.2l-.5.8.5.8h-.2l-.3-.5v-.2h0s0,0,0,.2l-.3.5h-.2l.5-.8h0Z"/>
          <path class="st1" d="M48.4,11.7c.4,0,.6.2.6.2v.2c-.1,0-.3-.2-.6-.2s-.6.3-.6.6.2.6.6.6.5-.2.5-.2v.2c.1,0,0,.2-.5.2s-.8-.4-.8-.8.3-.8.8-.8h0Z"/>
          <path class="st1" d="M49.4,11.8h.2v.7h.8v-.7h.2v1.6h-.2v-.7h-.8v.7h-.2v-1.6Z"/>
          <path class="st1" d="M51.9,12.9h-.6l-.2.4h-.2l.6-1.6h.2l.6,1.6h-.2l-.2-.4h0ZM51.6,12s0,.1,0,.2l-.2.5h.5l-.2-.5c0,0,0-.2,0-.2h0Z"/>
          <path class="st1" d="M52.6,11.8h.2l.7,1c0,0,.1.2.1.2h0s0-.1,0-.2v-1h.2v1.6h-.2l-.7-1c0,0-.1-.2-.1-.2h0s0,.1,0,.2v1h-.2v-1.6Z"/>
          <path class="st1" d="M55.1,11.7c.4,0,.6.2.6.2v.2c-.1,0-.3-.1-.5-.1s-.6.3-.6.6.2.6.6.6.4-.2.4-.2v-.2h-.2v-.2h.5v.8h-.2v-.2h0s-.2.2-.5.2-.8-.3-.8-.8.3-.8.8-.8h0Z"/>
          <path class="st1" d="M56.2,11.8h.9v.2h-.7v.5h.6v.2h-.6v.5h.7v.2h-.9s0-1.6,0-1.6Z"/>
        </g>
      </g>
      <g>
        <path class="st2" d="M9.2,5.3v.3h2.7c.1,1.5,0,3.6-1.5,4.4h0c0-2.5-1.9-4.8-4.2-5.3,0,.2,0,.3,0,.5,1.7.9,2.1,3,2.1,5h0c-2.1-.9-2.5-3.4-2.3-5.6h0c0-3.2,3.6-6.6,5.3-2.3,0,.2.3.2.3,0l1-1.2C9.5-1.6,4.1.6,3.7,4.8,1.5,5.4-.2,7.7,0,10.1h4.9v-.3h-2.7c-.2-1.5,0-3.6,1.5-4.4.2,7.1,10.5,7.2,10.4,0,0,0-4.9,0-4.9,0Z"/>
        <path class="st0" d="M8.2,11c-.2,3.2-3.7,6.1-5.2,2,0-.1-.3-.2-.3,0l-1,1.2c2.9,2.8,8.2.8,8.8-3.2-.7.2-1.4.2-2.2,0h0Z"/>
      </g>
    </g>
  </g>
</svg>