<?xml version="1.0" encoding="UTF-8"?>
<svg id="Layer_2" data-name="Layer 2" xmlns="http://www.w3.org/2000/svg" xmlns:xlink="http://www.w3.org/1999/xlink" viewBox="0 0 45.35 49.58">
  <defs>
    <style>
      .cls-1 {
        fill: url(#linear-gradient-2);
      }

      .cls-2 {
        fill: url(#linear-gradient);
      }
    </style>
    <linearGradient id="linear-gradient" x1="22.68" y1="-.5" x2="22.68" y2="50.03" gradientUnits="userSpaceOnUse">
      <stop offset="0" stop-color="#eedbc3"/>
      <stop offset=".06" stop-color="#e1c6aa"/>
      <stop offset=".24" stop-color="#bf8e66"/>
      <stop offset=".32" stop-color="#b2794c"/>
      <stop offset=".44" stop-color="#ba865b"/>
      <stop offset=".61" stop-color="#cba079"/>
      <stop offset=".72" stop-color="#bd8a60"/>
      <stop offset=".84" stop-color="#ac6f41"/>
    </linearGradient>
    <linearGradient id="linear-gradient-2" x1="19.2" y1="-.5" x2="19.2" y2="50.03" xlink:href="#linear-gradient"/>
  </defs>
  <g id="Layer_1-2" data-name="Layer 1">
    <g>
      <path class="cls-2" d="M29.6,17.09v.99h8.63c.47,4.81-.16,11.41-4.72,14.25,0,0,0,0,0,0,.22-8.01-5.93-15.42-13.6-17.03-.05.55-.07,1.11-.08,1.68,5.32,2.97,6.73,9.61,6.67,16.04h0c-6.66-2.76-7.91-10.82-7.53-17.9h0c.21-10.41,11.62-21.12,16.99-7.3.13.47.83.56,1.11.18l3.21-3.73C30.55-5.12,13.06,2.05,11.98,15.49,4.71,17.5-.52,24.87.04,32.51h15.75v-.99H7.16c-.47-4.81.15-11.42,4.72-14.25.72,22.9,33.72,23.26,33.47-.19h-15.75Z"/>
      <path class="cls-1" d="M26.32,35.44c-.61,10.22-11.98,19.57-16.89,6.35-.13-.47-.83-.56-1.11-.18l-3.21,3.73c9.26,9.07,26.44,2.62,28.16-10.2-2.2.56-4.67.67-6.95.3Z"/>
    </g>
  </g>
</svg>